# Blender 5.0.1
# www.blender.org
mtllib i02_head_right_eye_vertical_visual_2.mtl
o i02.head.eyeCamera.right_visual.001
v -0.034461 -0.014694 -0.040080
v -0.034461 -0.014694 0.040080
v -0.034461 0.027745 -0.040080
v -0.034461 0.027745 0.040080
v 0.034461 -0.014694 -0.040080
v 0.034461 -0.014694 0.040080
v 0.034461 0.027745 -0.040080
v 0.034461 0.027745 0.040080
v 0.000000 -0.014694 0.032664
v -0.005479 -0.014694 0.032037
v -0.010748 -0.014694 0.030178
v -0.015603 -0.014694 0.027159
v -0.019859 -0.014694 0.023097
v -0.023352 -0.014694 0.018147
v -0.025947 -0.014694 0.012500
v -0.027545 -0.014694 0.006373
v -0.028085 -0.014694 0.000000
v -0.027545 -0.014694 -0.006372
v -0.025947 -0.014694 -0.012500
v -0.023352 -0.014694 -0.018147
v -0.019859 -0.014694 -0.023097
v -0.015603 -0.014694 -0.027159
v -0.010748 -0.014694 -0.030178
v -0.005479 -0.014694 -0.032037
v 0.000000 -0.014694 -0.032664
v 0.005479 -0.014694 -0.032037
v 0.010748 -0.014694 -0.030178
v 0.015603 -0.014694 -0.027159
v 0.019859 -0.014694 -0.023097
v 0.023352 -0.014694 -0.018147
v 0.025947 -0.014694 -0.012500
v 0.027545 -0.014694 -0.006372
v 0.028085 -0.014694 0.000000
v 0.027545 -0.014694 0.006373
v 0.025947 -0.014694 0.012500
v 0.023352 -0.014694 0.018147
v 0.019859 -0.014694 0.023097
v 0.015603 -0.014694 0.027159
v 0.010748 -0.014694 0.030178
v 0.005479 -0.014694 0.032037
v -0.000000 -0.022851 0.032664
v -0.005479 -0.022851 0.032037
v -0.010748 -0.022851 0.030178
v -0.015603 -0.022851 0.027159
v -0.019859 -0.022851 0.023097
v -0.023352 -0.022851 0.018147
v -0.025947 -0.022851 0.012500
v -0.027545 -0.022851 0.006373
v -0.028085 -0.022851 0.000000
v -0.027545 -0.022851 -0.006372
v -0.025947 -0.022851 -0.012500
v -0.023352 -0.022851 -0.018147
v -0.019859 -0.022851 -0.023097
v -0.015603 -0.022851 -0.027159
v -0.010748 -0.022851 -0.030178
v -0.005479 -0.022851 -0.032037
v 0.000000 -0.022851 -0.032664
v 0.005479 -0.022851 -0.032037
v 0.010748 -0.022851 -0.030178
v 0.015603 -0.022851 -0.027159
v 0.019859 -0.022851 -0.023097
v 0.023352 -0.022851 -0.018147
v 0.025947 -0.022851 -0.012500
v 0.027545 -0.022851 -0.006372
v 0.028085 -0.022851 0.000000
v 0.027545 -0.022851 0.006373
v 0.025947 -0.022851 0.012500
v 0.023352 -0.022851 0.018147
v 0.019859 -0.022851 0.023097
v 0.015603 -0.022851 0.027159
v 0.010748 -0.022851 0.030178
v 0.005479 -0.022851 0.032037
v 0.000000 -0.022851 0.027688
v -0.004644 -0.022851 0.027156
v -0.009110 -0.022851 0.025581
v -0.013226 -0.022851 0.023022
v -0.016834 -0.022851 0.019579
v -0.019794 -0.022851 0.015383
v -0.021994 -0.022851 0.010596
v -0.023349 -0.022851 0.005402
v -0.023807 -0.022851 0.000000
v -0.023349 -0.022851 -0.005402
v -0.021994 -0.022851 -0.010596
v -0.019794 -0.022851 -0.015383
v -0.016834 -0.022851 -0.019579
v -0.013226 -0.022851 -0.023022
v -0.009110 -0.022851 -0.025581
v -0.004644 -0.022851 -0.027156
v 0.000000 -0.022851 -0.027688
v 0.004644 -0.022851 -0.027156
v 0.009110 -0.022851 -0.025581
v 0.013226 -0.022851 -0.023022
v 0.016834 -0.022851 -0.019579
v 0.019794 -0.022851 -0.015383
v 0.021994 -0.022851 -0.010596
v 0.023349 -0.022851 -0.005402
v 0.023807 -0.022851 0.000000
v 0.023349 -0.022851 0.005402
v 0.021994 -0.022851 0.010596
v 0.019794 -0.022851 0.015383
v 0.016834 -0.022851 0.019579
v 0.013226 -0.022851 0.023022
v 0.009110 -0.022851 0.025581
v 0.004644 -0.022851 0.027156
v -0.000000 -0.027745 0.027688
v -0.004644 -0.027745 0.027156
v -0.009110 -0.027745 0.025581
v -0.013226 -0.027745 0.023022
v -0.016834 -0.027745 0.019579
v -0.019794 -0.027745 0.015383
v -0.021994 -0.027745 0.010596
v -0.023349 -0.027745 0.005402
v -0.023807 -0.027745 0.000000
v -0.023349 -0.027745 -0.005402
v -0.021994 -0.027745 -0.010596
v -0.019794 -0.027745 -0.015383
v -0.016834 -0.027745 -0.019579
v -0.013226 -0.027745 -0.023022
v -0.009110 -0.027745 -0.025581
v -0.004644 -0.027745 -0.027156
v 0.000000 -0.027745 -0.027688
v 0.004644 -0.027745 -0.027156
v 0.009110 -0.027745 -0.025581
v 0.013226 -0.027745 -0.023022
v 0.016834 -0.027745 -0.019579
v 0.019794 -0.027745 -0.015383
v 0.021994 -0.027745 -0.010596
v 0.023349 -0.027745 -0.005402
v 0.023807 -0.027745 0.000000
v 0.023349 -0.027745 0.005402
v 0.021994 -0.027745 0.010596
v 0.019794 -0.027745 0.015383
v 0.016834 -0.027745 0.019579
v 0.013226 -0.027745 0.023022
v 0.009110 -0.027745 0.025581
v 0.004644 -0.027745 0.027156
v 0.000000 -0.027745 0.023445
v -0.003933 -0.027745 0.022995
v -0.007714 -0.027745 0.021660
v -0.011199 -0.027745 0.019494
v -0.014254 -0.027745 0.016578
v -0.016761 -0.027745 0.013025
v -0.018624 -0.027745 0.008972
v -0.019771 -0.027745 0.004574
v -0.020158 -0.027745 0.000000
v -0.019771 -0.027745 -0.004574
v -0.018624 -0.027745 -0.008972
v -0.016761 -0.027745 -0.013025
v -0.014254 -0.027745 -0.016578
v -0.011199 -0.027745 -0.019494
v -0.007714 -0.027745 -0.021660
v -0.003933 -0.027745 -0.022994
v 0.000000 -0.027745 -0.023445
v 0.003933 -0.027745 -0.022994
v 0.007714 -0.027745 -0.021660
v 0.011199 -0.027745 -0.019494
v 0.014254 -0.027745 -0.016578
v 0.016761 -0.027745 -0.013025
v 0.018624 -0.027745 -0.008972
v 0.019771 -0.027745 -0.004574
v 0.020158 -0.027745 0.000000
v 0.019771 -0.027745 0.004574
v 0.018624 -0.027745 0.008972
v 0.016761 -0.027745 0.013025
v 0.014254 -0.027745 0.016578
v 0.011199 -0.027745 0.019494
v 0.007714 -0.027745 0.021660
v 0.003933 -0.027745 0.022995
v 0.000000 -0.026176 0.023445
v -0.003933 -0.026176 0.022995
v -0.007714 -0.026176 0.021660
v -0.011199 -0.026176 0.019494
v -0.014254 -0.026176 0.016578
v -0.016761 -0.026176 0.013025
v -0.018624 -0.026176 0.008972
v -0.019771 -0.026176 0.004574
v -0.020158 -0.026176 0.000000
v -0.019771 -0.026176 -0.004574
v -0.018624 -0.026176 -0.008972
v -0.016761 -0.026176 -0.013025
v -0.014254 -0.026176 -0.016578
v -0.011199 -0.026176 -0.019494
v -0.007714 -0.026176 -0.021660
v -0.003933 -0.026176 -0.022994
v 0.000000 -0.026176 -0.023445
v 0.003933 -0.026176 -0.022994
v 0.007714 -0.026176 -0.021660
v 0.011199 -0.026176 -0.019494
v 0.014254 -0.026176 -0.016578
v 0.016761 -0.026176 -0.013025
v 0.018624 -0.026176 -0.008972
v 0.019771 -0.026176 -0.004574
v 0.020158 -0.026176 0.000000
v 0.019771 -0.026176 0.004574
v 0.018624 -0.026176 0.008972
v 0.016761 -0.026176 0.013025
v 0.014254 -0.026176 0.016578
v 0.011199 -0.026176 0.019494
v 0.007714 -0.026176 0.021660
v 0.003933 -0.026176 0.022995
v 0.000000 -0.018112 0.000000
vn -1.0000 -0.0000 -0.0000
vn -0.0000 1.0000 -0.0000
vn 1.0000 -0.0000 -0.0000
vn -0.0000 -1.0000 -0.0000
vn -0.0000 -0.0000 -1.0000
vn -0.0000 -0.0000 1.0000
vn -0.9676 -0.0000 0.2524
vn 0.9676 -0.0000 0.2524
vn -0.9964 -0.0000 0.0844
vn 0.9086 -0.0000 0.4176
vn -0.9964 -0.0000 -0.0844
vn 0.8171 -0.0000 0.5765
vn -0.9676 -0.0000 -0.2524
vn 0.6905 -0.0000 0.7234
vn -0.9086 -0.0000 -0.4176
vn 0.5280 -0.0000 0.8493
vn 0.1138 -0.0000 -0.9935
vn -0.8171 -0.0000 -0.5765
vn 0.3327 -0.0000 0.9430
vn 0.3327 -0.0000 -0.9430
vn -0.6905 -0.0000 -0.7234
vn 0.1138 -0.0000 0.9935
vn 0.5280 -0.0000 -0.8493
vn -0.5280 -0.0000 -0.8493
vn -0.1138 -0.0000 0.9935
vn 0.6905 -0.0000 -0.7234
vn -0.3327 -0.0000 -0.9430
vn -0.3327 -0.0000 0.9430
vn 0.8171 -0.0000 -0.5765
vn -0.1138 -0.0000 -0.9935
vn -0.5280 -0.0000 0.8493
vn 0.9086 -0.0000 -0.4176
vn -0.6905 -0.0000 0.7234
vn 0.9676 -0.0000 -0.2524
vn -0.8171 -0.0000 0.5765
vn 0.9964 -0.0000 -0.0844
vn -0.9086 -0.0000 0.4176
vn 0.9964 -0.0000 0.0844
vn -0.1784 0.9412 0.2869
vn 0.1784 0.9412 0.2869
vn 0.0372 0.9450 -0.3250
vn -0.2392 0.9381 0.2506
vn 0.1101 0.9436 0.3121
vn 0.1101 0.9436 -0.3121
vn -0.2904 0.9347 0.2049
vn 0.0372 0.9450 0.3250
vn 0.1784 0.9412 -0.2869
vn -0.3303 0.9316 0.1518
vn 0.2392 0.9381 -0.2506
vn -0.3575 0.9293 0.0932
vn 0.2904 0.9347 -0.2049
vn -0.3713 0.9280 0.0314
vn 0.3303 0.9316 -0.1518
vn -0.3713 0.9280 -0.0314
vn 0.3575 0.9293 -0.0932
vn -0.3575 0.9293 -0.0932
vn 0.3713 0.9280 -0.0314
vn -0.3303 0.9316 -0.1518
vn 0.3713 0.9280 0.0314
vn -0.2904 0.9347 -0.2049
vn 0.3575 0.9293 0.0932
vn -0.2392 0.9381 -0.2506
vn 0.3303 0.9316 0.1518
vn -0.1784 0.9412 -0.2869
vn -0.0372 0.9450 0.3250
vn 0.2904 0.9347 0.2049
vn -0.1101 0.9436 -0.3121
vn -0.1101 0.9436 0.3121
vn 0.2392 0.9381 0.2506
vn -0.0372 0.9450 -0.3250
vt 0.375000 0.000000
vt 0.625000 0.000000
vt 0.625000 0.250000
vt 0.375000 0.250000
vt 0.625000 0.500000
vt 0.375000 0.500000
vt 0.625000 0.750000
vt 0.375000 0.750000
vt 0.625000 1.000000
vt 0.375000 1.000000
vt 0.125000 0.500000
vt 0.125000 0.750000
vt 0.875000 0.500000
vt 0.875000 0.750000
vt 0.000000 0.000000
s 0
usemtl Material.060
f 1/1/1 2/2/1 4/3/1 3/4/1
f 3/4/2 4/3/2 8/5/2 7/6/2
f 7/6/3 8/5/3 6/7/3 5/8/3
f 5/8/4 6/7/4 2/9/4 1/10/4
f 3/11/5 7/6/5 5/8/5 1/12/5
f 8/5/6 4/13/6 2/14/6 6/7/6
f 32/15/7 31/15/7 63/15/7 64/15/7
f 19/15/8 18/15/8 50/15/8 51/15/8
f 33/15/9 32/15/9 64/15/9 65/15/9
f 20/15/10 19/15/10 51/15/10 52/15/10
f 34/15/11 33/15/11 65/15/11 66/15/11
f 21/15/12 20/15/12 52/15/12 53/15/12
f 35/15/13 34/15/13 66/15/13 67/15/13
f 22/15/14 21/15/14 53/15/14 54/15/14
f 36/15/15 35/15/15 67/15/15 68/15/15
f 23/15/16 22/15/16 54/15/16 55/15/16
f 10/15/17 9/15/17 41/15/17 42/15/17
f 37/15/18 36/15/18 68/15/18 69/15/18
f 24/15/19 23/15/19 55/15/19 56/15/19
f 11/15/20 10/15/20 42/15/20 43/15/20
f 38/15/21 37/15/21 69/15/21 70/15/21
f 25/15/22 24/15/22 56/15/22 57/15/22
f 12/15/23 11/15/23 43/15/23 44/15/23
f 39/15/24 38/15/24 70/15/24 71/15/24
f 26/15/25 25/15/25 57/15/25 58/15/25
f 13/15/26 12/15/26 44/15/26 45/15/26
f 40/15/27 39/15/27 71/15/27 72/15/27
f 27/15/28 26/15/28 58/15/28 59/15/28
f 14/15/29 13/15/29 45/15/29 46/15/29
f 9/15/30 40/15/30 72/15/30 41/15/30
f 28/15/31 27/15/31 59/15/31 60/15/31
f 15/15/32 14/15/32 46/15/32 47/15/32
f 29/15/33 28/15/33 60/15/33 61/15/33
f 16/15/34 15/15/34 47/15/34 48/15/34
f 30/15/35 29/15/35 61/15/35 62/15/35
f 17/15/36 16/15/36 48/15/36 49/15/36
f 31/15/37 30/15/37 62/15/37 63/15/37
f 18/15/38 17/15/38 49/15/38 50/15/38
f 72/15/2 71/15/2 103/15/2 104/15/2
f 59/15/2 58/15/2 90/15/2 91/15/2
f 46/15/2 45/15/2 77/15/2 78/15/2
f 41/15/2 72/15/2 104/15/2 73/15/2
f 60/15/2 59/15/2 91/15/2 92/15/2
f 47/15/2 46/15/2 78/15/2 79/15/2
f 61/15/2 60/15/2 92/15/2 93/15/2
f 48/15/2 47/15/2 79/15/2 80/15/2
f 62/15/2 61/15/2 93/15/2 94/15/2
f 49/15/2 48/15/2 80/15/2 81/15/2
f 63/15/2 62/15/2 94/15/2 95/15/2
f 50/15/2 49/15/2 81/15/2 82/15/2
f 64/15/2 63/15/2 95/15/2 96/15/2
f 51/15/2 50/15/2 82/15/2 83/15/2
f 65/15/2 64/15/2 96/15/2 97/15/2
f 52/15/2 51/15/2 83/15/2 84/15/2
f 66/15/2 65/15/2 97/15/2 98/15/2
f 53/15/2 52/15/2 84/15/2 85/15/2
f 67/15/2 66/15/2 98/15/2 99/15/2
f 54/15/2 53/15/2 85/15/2 86/15/2
f 68/15/2 67/15/2 99/15/2 100/15/2
f 55/15/2 54/15/2 86/15/2 87/15/2
f 42/15/2 41/15/2 73/15/2 74/15/2
f 69/15/2 68/15/2 100/15/2 101/15/2
f 56/15/2 55/15/2 87/15/2 88/15/2
f 43/15/2 42/15/2 74/15/2 75/15/2
f 70/15/2 69/15/2 101/15/2 102/15/2
f 57/15/2 56/15/2 88/15/2 89/15/2
f 44/15/2 43/15/2 75/15/2 76/15/2
f 71/15/2 70/15/2 102/15/2 103/15/2
f 58/15/2 57/15/2 89/15/2 90/15/2
f 45/15/2 44/15/2 76/15/2 77/15/2
f 94/15/35 93/15/35 125/15/35 126/15/35
f 81/15/36 80/15/36 112/15/36 113/15/36
f 95/15/37 94/15/37 126/15/37 127/15/37
f 82/15/38 81/15/38 113/15/38 114/15/38
f 96/15/7 95/15/7 127/15/7 128/15/7
f 83/15/8 82/15/8 114/15/8 115/15/8
f 97/15/9 96/15/9 128/15/9 129/15/9
f 84/15/10 83/15/10 115/15/10 116/15/10
f 98/15/11 97/15/11 129/15/11 130/15/11
f 85/15/12 84/15/12 116/15/12 117/15/12
f 99/15/13 98/15/13 130/15/13 131/15/13
f 86/15/14 85/15/14 117/15/14 118/15/14
f 100/15/15 99/15/15 131/15/15 132/15/15
f 87/15/16 86/15/16 118/15/16 119/15/16
f 74/15/17 73/15/17 105/15/17 106/15/17
f 101/15/18 100/15/18 132/15/18 133/15/18
f 88/15/19 87/15/19 119/15/19 120/15/19
f 75/15/20 74/15/20 106/15/20 107/15/20
f 102/15/21 101/15/21 133/15/21 134/15/21
f 89/15/22 88/15/22 120/15/22 121/15/22
f 76/15/23 75/15/23 107/15/23 108/15/23
f 103/15/24 102/15/24 134/15/24 135/15/24
f 90/15/25 89/15/25 121/15/25 122/15/25
f 77/15/26 76/15/26 108/15/26 109/15/26
f 104/15/27 103/15/27 135/15/27 136/15/27
f 91/15/28 90/15/28 122/15/28 123/15/28
f 78/15/29 77/15/29 109/15/29 110/15/29
f 73/15/30 104/15/30 136/15/30 105/15/30
f 92/15/31 91/15/31 123/15/31 124/15/31
f 79/15/32 78/15/32 110/15/32 111/15/32
f 93/15/33 92/15/33 124/15/33 125/15/33
f 80/15/34 79/15/34 111/15/34 112/15/34
f 129/15/2 128/15/2 160/15/2 161/15/2
f 116/15/2 115/15/2 147/15/2 148/15/2
f 130/15/2 129/15/2 161/15/2 162/15/2
f 117/15/2 116/15/2 148/15/2 149/15/2
f 131/15/2 130/15/2 162/15/2 163/15/2
f 118/15/2 117/15/2 149/15/2 150/15/2
f 132/15/2 131/15/2 163/15/2 164/15/2
f 119/15/2 118/15/2 150/15/2 151/15/2
f 106/15/2 105/15/2 137/15/2 138/15/2
f 133/15/2 132/15/2 164/15/2 165/15/2
f 120/15/2 119/15/2 151/15/2 152/15/2
f 107/15/2 106/15/2 138/15/2 139/15/2
f 134/15/2 133/15/2 165/15/2 166/15/2
f 121/15/2 120/15/2 152/15/2 153/15/2
f 108/15/2 107/15/2 139/15/2 140/15/2
f 135/15/2 134/15/2 166/15/2 167/15/2
f 122/15/2 121/15/2 153/15/2 154/15/2
f 109/15/2 108/15/2 140/15/2 141/15/2
f 136/15/2 135/15/2 167/15/2 168/15/2
f 123/15/2 122/15/2 154/15/2 155/15/2
f 110/15/2 109/15/2 141/15/2 142/15/2
f 105/15/2 136/15/2 168/15/2 137/15/2
f 124/15/2 123/15/2 155/15/2 156/15/2
f 111/15/2 110/15/2 142/15/2 143/15/2
f 125/15/2 124/15/2 156/15/2 157/15/2
f 112/15/2 111/15/2 143/15/2 144/15/2
f 126/15/2 125/15/2 157/15/2 158/15/2
f 113/15/2 112/15/2 144/15/2 145/15/2
f 127/15/2 126/15/2 158/15/2 159/15/2
f 114/15/2 113/15/2 145/15/2 146/15/2
f 128/15/2 127/15/2 159/15/2 160/15/2
f 115/15/2 114/15/2 146/15/2 147/15/2
f 164/15/10 163/15/10 195/15/10 196/15/10
f 151/15/24 150/15/24 182/15/24 183/15/24
f 138/15/25 137/15/25 169/15/25 170/15/25
f 165/15/12 164/15/12 196/15/12 197/15/12
f 152/15/27 151/15/27 183/15/27 184/15/27
f 139/15/28 138/15/28 170/15/28 171/15/28
f 166/15/14 165/15/14 197/15/14 198/15/14
f 153/15/30 152/15/30 184/15/30 185/15/30
f 140/15/31 139/15/31 171/15/31 172/15/31
f 167/15/16 166/15/16 198/15/16 199/15/16
f 154/15/17 153/15/17 185/15/17 186/15/17
f 141/15/33 140/15/33 172/15/33 173/15/33
f 168/15/19 167/15/19 199/15/19 200/15/19
f 155/15/20 154/15/20 186/15/20 187/15/20
f 142/15/35 141/15/35 173/15/35 174/15/35
f 137/15/22 168/15/22 200/15/22 169/15/22
f 156/15/23 155/15/23 187/15/23 188/15/23
f 143/15/37 142/15/37 174/15/37 175/15/37
f 157/15/26 156/15/26 188/15/26 189/15/26
f 144/15/7 143/15/7 175/15/7 176/15/7
f 158/15/29 157/15/29 189/15/29 190/15/29
f 145/15/9 144/15/9 176/15/9 177/15/9
f 159/15/32 158/15/32 190/15/32 191/15/32
f 146/15/11 145/15/11 177/15/11 178/15/11
f 160/15/34 159/15/34 191/15/34 192/15/34
f 147/15/13 146/15/13 178/15/13 179/15/13
f 161/15/36 160/15/36 192/15/36 193/15/36
f 148/15/15 147/15/15 179/15/15 180/15/15
f 162/15/38 161/15/38 193/15/38 194/15/38
f 149/15/18 148/15/18 180/15/18 181/15/18
f 163/15/8 162/15/8 194/15/8 195/15/8
f 150/15/21 149/15/21 181/15/21 182/15/21
f 172/15/39 171/15/39 201/15/39
f 199/15/40 198/15/40 201/15/40
f 186/15/41 185/15/41 201/15/41
f 173/15/42 172/15/42 201/15/42
f 200/15/43 199/15/43 201/15/43
f 187/15/44 186/15/44 201/15/44
f 174/15/45 173/15/45 201/15/45
f 169/15/46 200/15/46 201/15/46
f 188/15/47 187/15/47 201/15/47
f 175/15/48 174/15/48 201/15/48
f 189/15/49 188/15/49 201/15/49
f 176/15/50 175/15/50 201/15/50
f 190/15/51 189/15/51 201/15/51
f 177/15/52 176/15/52 201/15/52
f 191/15/53 190/15/53 201/15/53
f 178/15/54 177/15/54 201/15/54
f 192/15/55 191/15/55 201/15/55
f 179/15/56 178/15/56 201/15/56
f 193/15/57 192/15/57 201/15/57
f 180/15/58 179/15/58 201/15/58
f 194/15/59 193/15/59 201/15/59
f 181/15/60 180/15/60 201/15/60
f 195/15/61 194/15/61 201/15/61
f 182/15/62 181/15/62 201/15/62
f 196/15/63 195/15/63 201/15/63
f 183/15/64 182/15/64 201/15/64
f 170/15/65 169/15/65 201/15/65
f 197/15/66 196/15/66 201/15/66
f 184/15/67 183/15/67 201/15/67
f 171/15/68 170/15/68 201/15/68
f 198/15/69 197/15/69 201/15/69
f 185/15/70 184/15/70 201/15/70
