# Blender 5.0.1
# www.blender.org
mtllib i02_head_right_cheek_visual.mtl
o i02_head_right_cheek_visual.001
v 0.000889 -0.078450 -0.067538
v -0.025801 -0.076666 -0.068604
v -0.033344 -0.078450 -0.033493
v -0.030079 -0.078450 0.067220
v -0.016567 -0.078450 0.068604
v -0.003045 -0.078450 0.067326
v 0.009968 -0.078450 0.063434
v 0.021972 -0.078450 0.057078
v 0.032505 -0.078450 0.048502
v 0.041163 -0.078450 0.038036
v 0.047612 -0.078450 0.026082
v 0.051606 -0.078450 0.013100
v 0.052990 -0.078450 -0.000412
v 0.051712 -0.078450 -0.013934
v 0.047820 -0.078450 -0.026947
v 0.041464 -0.078450 -0.038951
v 0.032888 -0.078450 -0.049484
v 0.022422 -0.078450 -0.058142
v 0.010468 -0.078450 -0.064591
v -0.010380 -0.078450 -0.028658
v -0.052990 -0.078450 0.057962
v -0.043061 -0.078450 0.063226
v -0.021301 -0.078450 0.023210
v -0.044476 -0.078450 0.018330
v -0.021301 0.106744 0.023210
v -0.017851 0.091083 0.006827
v -0.017814 0.092922 0.006650
v -0.017703 0.094692 0.006125
v -0.014003 0.092922 -0.011452
v -0.013965 0.091083 -0.011629
v -0.010380 0.106744 -0.028658
v -0.014113 0.094692 -0.010927
v -0.017524 0.096322 0.005272
v -0.017282 0.097751 0.004124
v -0.014293 0.096322 -0.010074
v -0.014534 0.097751 -0.008927
v -0.016988 0.098924 0.002726
v -0.016652 0.099795 0.001130
v -0.014829 0.098924 -0.007528
v -0.015165 0.099795 -0.005933
v -0.016287 0.100332 -0.000601
v -0.015908 0.100513 -0.002401
v -0.015529 0.100332 -0.004201
v -0.033344 0.106744 -0.033493
v -0.036999 0.091083 -0.016479
v -0.037037 0.092922 -0.016302
v -0.037149 0.094692 -0.015777
v -0.040922 0.092922 0.001784
v -0.040960 0.091083 0.001961
v -0.044476 0.106744 0.018330
v -0.040809 0.094692 0.001260
v -0.037332 0.096322 -0.014925
v -0.037579 0.097751 -0.013778
v -0.040626 0.096322 0.000408
v -0.040380 0.097751 -0.000739
v -0.037879 0.098924 -0.012381
v -0.038221 0.099795 -0.010787
v -0.040080 0.098924 -0.002136
v -0.039737 0.099795 -0.003730
v -0.038593 0.100332 -0.009057
v -0.038979 0.100513 -0.007259
v -0.039366 0.100332 -0.005460
v -0.022252 0.112636 0.027729
v -0.045446 0.112636 0.022845
v -0.015529 0.081833 -0.004201
v -0.038593 0.081833 -0.009057
v -0.038979 0.081652 -0.007259
v -0.015908 0.081652 -0.002401
v -0.014113 0.066400 -0.010927
v -0.037149 0.066400 -0.015777
v -0.037037 0.064631 -0.016302
v -0.014003 0.064631 -0.011452
v -0.014003 0.089243 -0.011452
v -0.037037 0.089243 -0.016302
v -0.037149 0.087474 -0.015777
v -0.014113 0.087474 -0.010927
v -0.014829 0.070632 -0.007528
v -0.037879 0.070632 -0.012381
v -0.037579 0.069459 -0.013778
v -0.014534 0.069459 -0.008927
v -0.014293 0.039739 -0.010074
v -0.037332 0.039739 -0.014925
v -0.037149 0.038109 -0.015777
v -0.014113 0.038109 -0.010927
v -0.016287 0.043749 -0.000601
v -0.039366 0.043749 -0.005460
v -0.038979 0.043930 -0.007259
v -0.015908 0.043930 -0.002401
v -0.017282 0.041168 0.004124
v -0.040380 0.041168 -0.000739
v -0.040080 0.042341 -0.002136
v -0.016988 0.042341 0.002726
v -0.015165 0.025787 -0.005932
v -0.038221 0.025787 -0.010787
v -0.038593 0.025250 -0.009057
v -0.015529 0.025250 -0.004201
v -0.014003 0.036339 -0.011452
v -0.037037 0.036339 -0.016301
v -0.036999 0.034500 -0.016479
v -0.013965 0.034500 -0.011629
v -0.017524 0.039739 0.005272
v -0.040626 0.039739 0.000408
v -0.036999 0.062791 -0.016479
v -0.037332 0.085843 -0.014925
v -0.037332 0.068031 -0.014925
v -0.037579 0.084414 -0.013778
v -0.037879 0.083241 -0.012381
v -0.038221 0.071504 -0.010787
v -0.038221 0.082370 -0.010787
v -0.038593 0.072040 -0.009057
v -0.038979 0.072222 -0.007259
v -0.039366 0.072040 -0.005460
v -0.039366 0.081833 -0.005460
v -0.039737 0.071504 -0.003730
v -0.039737 0.082370 -0.003730
v -0.040080 0.070632 -0.002136
v -0.040080 0.083241 -0.002136
v -0.040380 0.069459 -0.000739
v -0.040380 0.084414 -0.000739
v -0.040626 0.068031 0.000408
v -0.040626 0.085843 0.000408
v -0.040809 0.066400 0.001260
v -0.040809 0.087474 0.001260
v -0.040922 0.064631 0.001784
v -0.040960 0.062791 0.001961
v -0.040922 0.089243 0.001784
v -0.037037 0.060951 -0.016302
v -0.037149 0.059182 -0.015777
v -0.037332 0.057552 -0.014925
v -0.037579 0.041168 -0.013778
v -0.037579 0.056123 -0.013778
v -0.037879 0.042341 -0.012381
v -0.037879 0.054950 -0.012381
v -0.038221 0.043212 -0.010787
v -0.038221 0.054078 -0.010787
v -0.038593 0.043749 -0.009057
v -0.038593 0.053542 -0.009057
v -0.038979 0.053361 -0.007259
v -0.039366 0.053542 -0.005460
v -0.039737 0.043212 -0.003730
v -0.039737 0.054078 -0.003730
v -0.040080 0.054950 -0.002136
v -0.040380 0.056123 -0.000739
v -0.040626 0.057552 0.000408
v -0.040809 0.038109 0.001260
v -0.040809 0.059182 0.001260
v -0.040922 0.036339 0.001784
v -0.040960 0.034500 0.001962
v -0.040922 0.060951 0.001784
v -0.037037 0.032660 -0.016301
v -0.036895 -0.078450 -0.016960
v -0.040922 0.032660 0.001784
v -0.037149 0.030891 -0.015777
v -0.040809 0.030891 0.001260
v -0.040626 0.029260 0.000408
v -0.037332 0.029260 -0.014925
v -0.037579 0.027831 -0.013778
v -0.040380 0.027831 -0.000739
v -0.040080 0.026658 -0.002136
v -0.037879 0.026658 -0.012381
v -0.039737 0.025787 -0.003730
v -0.039366 0.025250 -0.005460
v -0.038979 0.025069 -0.007259
v -0.015165 0.082370 -0.005933
v -0.014534 0.056123 -0.008927
v -0.014829 0.054950 -0.007528
v -0.017703 0.030891 0.006125
v -0.017814 0.032660 0.006650
v -0.014829 0.042341 -0.007528
v -0.014534 0.041168 -0.008926
v -0.017814 0.064631 0.006650
v -0.017703 0.066400 0.006125
v -0.016652 0.043212 0.001130
v -0.014003 0.032660 -0.011452
v -0.014113 0.030891 -0.010927
v -0.016287 0.081833 -0.000601
v -0.016652 0.082370 0.001130
v -0.015529 0.043749 -0.004201
v -0.017282 0.084414 0.004124
v -0.017524 0.085843 0.005272
v -0.016287 0.025250 -0.000601
v -0.016652 0.025787 0.001130
v -0.015908 0.025069 -0.002401
v -0.015908 0.072222 -0.002401
v -0.015529 0.072040 -0.004201
v -0.015165 0.054078 -0.005933
v -0.015529 0.053542 -0.004201
v -0.014293 0.085843 -0.010074
v -0.014534 0.084414 -0.008927
v -0.016652 0.054078 0.001130
v -0.016988 0.054950 0.002726
v -0.014293 0.057552 -0.010074
v -0.017282 0.027831 0.004124
v -0.017524 0.029260 0.005272
v -0.017814 0.060951 0.006650
v -0.017851 0.062791 0.006827
v -0.016988 0.070632 0.002726
v -0.016652 0.071504 0.001130
v -0.017814 0.089243 0.006650
v -0.016988 0.083241 0.002726
v -0.013965 0.062791 -0.011629
v -0.017703 0.087474 0.006125
v -0.015908 0.053361 -0.002401
v -0.014829 0.083241 -0.007528
v -0.016988 0.026658 0.002726
v -0.017524 0.057552 0.005272
v -0.017703 0.059182 0.006125
v -0.014003 0.060951 -0.011452
v -0.014113 0.059182 -0.010927
v -0.016287 0.072040 -0.000601
v -0.014534 0.027831 -0.008926
v -0.014829 0.026658 -0.007528
v -0.017282 0.056123 0.004124
v -0.015165 0.071504 -0.005933
v -0.017814 0.036339 0.006650
v -0.017703 0.038109 0.006125
v -0.015165 0.043212 -0.005932
v -0.014293 0.029260 -0.010074
v -0.017524 0.068031 0.005272
v -0.017851 0.034500 0.006827
v -0.017282 0.069459 0.004124
v -0.016287 0.053542 -0.000601
v -0.014293 0.068031 -0.010074
v -0.032374 0.112636 -0.038008
v -0.032374 0.220924 -0.038008
v -0.009428 0.220924 -0.033178
v -0.009428 0.112636 -0.033178
v -0.045446 0.220924 0.022845
v -0.022252 0.220924 0.027729
v -0.042871 0.164115 0.010859
v -0.034949 0.164115 -0.026022
v -0.035025 0.195890 -0.025667
v -0.042795 0.195890 0.010504
v -0.042570 0.199428 0.009455
v -0.035250 0.199428 -0.024618
v -0.035616 0.202689 -0.022914
v -0.042204 0.202689 0.007751
v -0.041711 0.205547 0.005458
v -0.036109 0.205547 -0.020621
v -0.036709 0.207893 -0.017826
v -0.041111 0.207893 0.002663
v -0.040426 0.209636 -0.000525
v -0.037394 0.209636 -0.014638
v -0.038137 0.210709 -0.011179
v -0.039683 0.210709 -0.003984
v -0.038910 0.211071 -0.007582
v -0.011954 0.164115 -0.021181
v -0.019726 0.164115 0.015732
v -0.019651 0.195890 0.015377
v -0.012029 0.195890 -0.020826
v -0.012250 0.199428 -0.019776
v -0.019430 0.199428 0.014327
v -0.019071 0.202689 0.012622
v -0.012609 0.202689 -0.018070
v -0.013092 0.205547 -0.015775
v -0.018588 0.205547 0.010326
v -0.017999 0.207893 0.007530
v -0.013681 0.207893 -0.012978
v -0.014353 0.209636 -0.009787
v -0.017327 0.209636 0.004339
v -0.016598 0.210709 0.000876
v -0.015082 0.210709 -0.006325
v -0.015840 0.211071 -0.002724
v -0.035025 0.160435 -0.025667
v -0.012029 0.160435 -0.020826
v -0.012609 0.153636 -0.018070
v -0.035616 0.153636 -0.022914
v -0.036109 0.150778 -0.020621
v -0.013092 0.150778 -0.015775
v -0.012250 0.156897 -0.019776
v -0.035250 0.156897 -0.024618
v -0.015840 0.145254 -0.002724
v -0.038910 0.145254 -0.007582
v -0.039683 0.145616 -0.003984
v -0.016598 0.145616 0.000876
v -0.015082 0.145616 -0.006325
v -0.038137 0.145616 -0.011179
v -0.019651 0.160435 0.015377
v -0.019430 0.156897 0.014327
v -0.019071 0.153636 0.012622
v -0.018588 0.150778 0.010326
v -0.013681 0.148432 -0.012978
v -0.017999 0.148432 0.007530
v -0.017327 0.146689 0.004339
v -0.014353 0.146689 -0.009787
v -0.040426 0.146689 -0.000525
v -0.041111 0.148432 0.002663
v -0.036709 0.148432 -0.017826
v -0.037394 0.146689 -0.014638
v -0.041711 0.150778 0.005458
v -0.042204 0.153636 0.007751
v -0.042570 0.156897 0.009455
v -0.042795 0.160435 0.010504
v 0.047612 -0.220099 0.026082
v 0.043316 -0.220924 0.034046
v 0.044334 -0.192584 -0.033530
v 0.047820 -0.197494 -0.026947
v 0.051712 -0.205296 -0.013934
v 0.052990 -0.211862 -0.000412
v 0.051606 -0.216900 0.013100
v -0.043061 -0.151795 0.063226
v -0.052909 -0.135831 0.057586
v -0.017709 -0.185881 0.068454
v -0.030079 -0.171247 0.067220
v -0.009476 -0.117721 -0.067969
v 0.000889 -0.130559 -0.067538
v 0.010468 -0.143293 -0.064591
v 0.022422 -0.160691 -0.058142
v 0.031809 -0.175285 -0.050376
v -0.003045 -0.197804 0.067326
v 0.038231 -0.220311 0.041580
v 0.032505 -0.218662 0.048502
v 0.021972 -0.213251 0.057078
v 0.009968 -0.206208 0.063434
v -0.025801 -0.088230 -0.068604
v 0.041464 -0.187815 -0.038951
v -0.036895 -0.109132 -0.016960
v -0.018008 -0.146788 -0.008057
v -0.019933 -0.146618 -0.004165
v -0.021330 -0.147086 -0.000077
v -0.022145 -0.148174 0.004051
v -0.022346 -0.149842 0.008058
v -0.021925 -0.152024 0.011793
v -0.020900 -0.154636 0.015110
v -0.019308 -0.157579 0.017883
v -0.017212 -0.160740 0.020005
v -0.014692 -0.163996 0.021395
v -0.011845 -0.167222 0.021998
v -0.008779 -0.170296 0.021792
v -0.005614 -0.173098 0.020785
v -0.002471 -0.175521 0.019016
v 0.000530 -0.177471 0.016552
v 0.003274 -0.178875 0.013488
v 0.005654 -0.179677 0.009942
v 0.007579 -0.179848 0.006050
v 0.008976 -0.179379 0.001962
v 0.009791 -0.178291 -0.002165
v 0.009992 -0.176624 -0.006173
v 0.009571 -0.174442 -0.009908
v 0.008546 -0.171829 -0.013225
v 0.006954 -0.168886 -0.015998
v 0.004858 -0.165726 -0.018120
v 0.002338 -0.162470 -0.019510
v -0.000509 -0.159243 -0.020113
v -0.003574 -0.156170 -0.019907
v -0.006740 -0.153368 -0.018900
v -0.009883 -0.150945 -0.017131
v -0.012884 -0.148994 -0.014667
v -0.015628 -0.147591 -0.011603
v -0.007757 -0.136859 -0.003422
v -0.009682 -0.136689 0.000470
v -0.011079 -0.137157 0.004558
v -0.011894 -0.138246 0.008685
v -0.012094 -0.139913 0.012693
v -0.011674 -0.142095 0.016427
v -0.010648 -0.144707 0.019745
v -0.009057 -0.147650 0.022518
v -0.006961 -0.150811 0.024640
v -0.004441 -0.154067 0.026029
v -0.001594 -0.157293 0.026633
v 0.001472 -0.160367 0.026427
v 0.004637 -0.163169 0.025420
v 0.007780 -0.165592 0.023650
v 0.010781 -0.167542 0.021186
v 0.013525 -0.168946 0.018123
v 0.015905 -0.169748 0.014576
v 0.017830 -0.169919 0.010685
v 0.019227 -0.169451 0.006596
v 0.020042 -0.168362 0.002469
v 0.020243 -0.166695 -0.001539
v 0.019822 -0.164513 -0.005273
v 0.018797 -0.161900 -0.008591
v 0.017205 -0.158957 -0.011364
v 0.015109 -0.155797 -0.013486
v 0.012589 -0.152541 -0.014875
v 0.009742 -0.149314 -0.015478
v 0.006677 -0.146241 -0.015273
v 0.003511 -0.143439 -0.014266
v 0.000368 -0.141016 -0.012496
v -0.002633 -0.139065 -0.010032
v -0.005377 -0.137662 -0.006968
v -0.007376 -0.128722 -0.004266
v -0.009837 -0.128504 0.000709
v -0.011623 -0.129103 0.005935
v -0.012664 -0.130494 0.011212
v -0.012921 -0.132626 0.016335
v -0.012384 -0.135415 0.021109
v -0.011073 -0.138755 0.025350
v -0.009038 -0.142517 0.028896
v -0.006359 -0.146557 0.031608
v -0.003137 -0.150720 0.033384
v 0.000503 -0.154845 0.034156
v 0.004422 -0.158774 0.033893
v 0.008468 -0.162356 0.032606
v 0.012487 -0.165454 0.030343
v 0.016323 -0.167947 0.027193
v 0.019830 -0.169742 0.023277
v 0.022873 -0.170767 0.018743
v 0.025335 -0.170985 0.013768
v 0.027121 -0.170387 0.008542
v 0.028162 -0.168995 0.003265
v 0.028419 -0.166864 -0.001859
v 0.027881 -0.164074 -0.006633
v 0.026570 -0.160734 -0.010874
v 0.024536 -0.156972 -0.014419
v 0.021856 -0.152932 -0.017131
v 0.018634 -0.148769 -0.018908
v 0.014994 -0.144644 -0.019679
v 0.011076 -0.140715 -0.019416
v 0.007029 -0.137133 -0.018129
v 0.003011 -0.134036 -0.015866
v -0.000826 -0.131542 -0.012717
v -0.004333 -0.129748 -0.008800
v 0.005506 -0.130798 0.003461
v 0.004048 -0.130669 0.006407
v 0.002991 -0.131024 0.009501
v 0.002375 -0.131847 0.012625
v 0.002222 -0.133109 0.015658
v 0.002541 -0.134761 0.018485
v 0.003317 -0.136738 0.020996
v 0.004521 -0.138966 0.023094
v 0.006108 -0.141357 0.024700
v 0.008015 -0.143822 0.025752
v 0.010170 -0.146264 0.026209
v 0.012490 -0.148590 0.026053
v 0.014886 -0.150711 0.025291
v 0.017265 -0.152545 0.023952
v 0.019536 -0.154021 0.022087
v 0.021613 -0.155083 0.019768
v 0.023414 -0.155690 0.017084
v 0.024871 -0.155819 0.014138
v 0.025929 -0.155465 0.011044
v 0.026545 -0.154641 0.007920
v 0.026697 -0.153379 0.004887
v 0.026379 -0.151728 0.002061
v 0.025603 -0.149751 -0.000450
v 0.024398 -0.147523 -0.002549
v 0.022812 -0.145131 -0.004155
v 0.020904 -0.142667 -0.005207
v 0.018749 -0.140225 -0.005663
v 0.016430 -0.137899 -0.005508
v 0.014034 -0.135778 -0.004746
v 0.011655 -0.133944 -0.003406
v 0.009383 -0.132468 -0.001541
v 0.007307 -0.131406 0.000778
v 0.014460 -0.143244 0.010273
v -0.006819 -0.132321 -0.009869
v -0.015363 -0.135184 0.015135
v 0.022694 -0.173344 0.012581
v -0.003331 -0.134106 -0.013765
v -0.015107 -0.133064 0.010038
v 0.020245 -0.173127 0.017531
v 0.000486 -0.136587 -0.016899
v -0.014072 -0.131679 0.004789
v 0.017218 -0.172107 0.022040
v 0.004484 -0.139668 -0.019149
v -0.012295 -0.131084 -0.000410
v -0.009846 -0.131301 -0.005359
v 0.013729 -0.170322 0.025937
v 0.008509 -0.143231 -0.020430
v 0.009913 -0.167841 0.029070
v 0.012407 -0.147140 -0.020691
v 0.005915 -0.164760 0.031321
v 0.016028 -0.151244 -0.019924
v 0.001889 -0.161196 0.032601
v 0.019233 -0.155384 -0.018157
v -0.002009 -0.157288 0.032863
v 0.021899 -0.159404 -0.015458
v -0.005630 -0.153184 0.032096
v 0.023922 -0.163146 -0.011932
v -0.008835 -0.149043 0.030329
v 0.025227 -0.166469 -0.007713
v -0.011500 -0.145024 0.027630
v 0.025762 -0.169244 -0.002964
v 0.025506 -0.171364 0.002133
v -0.013524 -0.141281 0.024103
v -0.014828 -0.137959 0.019885
v 0.024470 -0.172748 0.007382
vn 0.1227 0.2013 -0.9718
vn -0.0000 1.0000 -0.0000
vn -0.2319 0.2314 0.9448
vn -0.4584 0.2061 0.8645
vn -0.9777 -0.0000 -0.2100
vn 0.9785 -0.0000 0.2060
vn 0.9785 -0.0000 0.2061
vn 0.9785 -0.0001 0.2060
vn 0.9786 0.0001 0.2060
vn -0.9777 -0.0000 -0.2101
vn -0.9777 -0.0001 -0.2100
vn -0.9777 0.0001 -0.2100
vn -0.9777 -0.0001 -0.2101
vn 0.9807 -0.0000 0.1956
vn -0.1622 -0.6169 0.7701
vn -0.1622 -0.6169 0.7702
vn 0.9605 -0.0000 0.2784
vn -0.0202 0.9952 0.0958
vn -0.1971 -0.2903 0.9364
vn -0.1972 -0.2903 0.9364
vn 0.2050 -0.0980 -0.9738
vn -0.1972 0.2903 0.9364
vn -0.1307 -0.7730 0.6208
vn -0.1817 -0.4714 0.8630
vn 0.0202 -0.9952 -0.0960
vn 0.1307 -0.7730 -0.6208
vn -0.0598 0.9569 0.2841
vn -0.2050 -0.0980 0.9738
vn 0.1593 -0.6344 -0.7564
vn -0.9778 0.0002 -0.2097
vn -0.9777 -0.0000 -0.2099
vn -0.9777 0.0001 -0.2099
vn -0.9776 -0.0001 -0.2104
vn -0.1307 0.7730 0.6208
vn 0.1972 0.2903 -0.9364
vn 0.1972 -0.2903 -0.9364
vn 0.0971 -0.8819 -0.4614
vn 0.0971 -0.8819 -0.4613
vn 0.0598 0.9569 -0.2841
vn -0.0202 -0.9952 0.0960
vn 0.1593 0.6344 -0.7565
vn 0.0202 0.9952 -0.0958
vn -0.1593 0.6343 0.7565
vn 0.1593 -0.6345 -0.7564
vn 0.0971 0.8819 -0.4613
vn 0.1593 0.6344 -0.7564
vn 0.2050 0.0980 -0.9738
vn 0.2050 0.0981 -0.9738
vn 0.0598 -0.9569 -0.2841
vn 0.0598 -0.9569 -0.2840
vn -0.1593 -0.6344 0.7564
vn -0.1817 0.4714 0.8630
vn -0.0971 -0.8819 0.4613
vn 0.1307 0.7730 -0.6208
vn 0.1817 0.4714 -0.8630
vn -0.0971 0.8819 0.4613
vn -0.0971 -0.8819 0.4614
vn -0.0598 -0.9569 0.2841
vn 0.2050 -0.0981 -0.9738
vn 0.1817 -0.4714 -0.8630
vn -0.1593 0.6344 0.7564
vn -0.0598 -0.9569 0.2840
vn -0.2050 0.0980 0.9738
vn 0.0598 -0.9570 -0.2840
vn 0.9786 -0.0000 0.2060
vn 0.9786 -0.0000 0.2057
vn 0.9785 -0.0000 0.2064
vn 0.9785 -0.0001 0.2063
vn 0.9786 -0.0000 0.2059
vn 0.2060 -0.0000 -0.9786
vn 0.1621 -0.6169 -0.7702
vn -0.2061 -0.0000 0.9785
vn 0.2060 -0.0114 -0.9785
vn -0.2060 -0.0114 0.9785
vn 0.0202 -0.9952 -0.0959
vn 0.0202 0.9952 -0.0959
vn -0.0202 0.9952 0.0959
vn 0.9785 0.0004 0.2063
vn -0.0202 -0.9952 0.0959
vn -0.1971 0.2903 0.9364
vn -0.9777 -0.0002 -0.2099
vn -0.6899 -0.6078 -0.3932
vn -0.6027 -0.7288 -0.3250
vn -0.6508 -0.6766 -0.3446
vn -0.6728 -0.6618 -0.3306
vn -0.6643 -0.6363 -0.3921
vn -0.7055 -0.5907 -0.3917
vn -0.7040 -0.6501 -0.2859
vn -0.8340 -0.4382 -0.3352
vn -0.7761 -0.5169 -0.3613
vn -0.7995 -0.4900 -0.3473
vn -0.5886 -0.7346 -0.3375
vn -0.8059 -0.4790 -0.3479
vn -0.7442 -0.5532 -0.3744
vn -0.6812 -0.6452 -0.3459
vn -0.6400 -0.7206 -0.2665
vn -0.6886 -0.6090 -0.3936
vn -0.6120 -0.7432 -0.2703
vn -0.7005 -0.6549 -0.2834
vn -0.6013 -0.7303 -0.3240
vn -0.7578 -0.5784 -0.3021
vn -0.6748 -0.6819 -0.2821
vn -0.6765 -0.6233 -0.3922
vn 0.8801 -0.0000 0.4748
vn 0.8801 -0.0063 0.4748
vn 0.8291 0.0062 0.5590
vn 0.9558 -0.0000 0.2940
vn 0.0941 -0.0024 0.9956
vn 0.0767 -0.0000 0.9971
vn 0.7755 -0.0028 -0.6314
vn 0.7638 -0.0000 -0.6454
vn -0.1019 -0.0003 0.9948
vn -0.0993 -0.0000 0.9951
vn -0.6759 -0.6584 -0.3311
vn 0.8838 -0.0000 -0.4679
vn 0.8838 -0.0000 -0.4680
vn 0.4748 -0.0000 -0.8801
vn -0.6852 -0.6153 -0.3898
vn 0.2940 -0.0000 -0.9558
vn -0.6194 -0.6984 -0.3586
vn 0.6314 -0.0000 0.7755
vn -0.7547 -0.5763 -0.3136
vn 0.7705 -0.0000 0.6374
vn 0.2865 -0.0000 0.9581
vn -0.2940 -0.0000 0.9558
vn 0.9581 -0.0000 -0.2865
vn 0.9956 -0.0000 -0.0941
vn -0.8130 -0.4578 -0.3599
vn 0.0399 -0.0000 -0.9992
vn 0.0415 -0.0000 -0.9991
vn 0.0397 0.0005 -0.9992
vn 0.4680 -0.0000 0.8838
vn 0.9948 -0.0000 0.1019
vn -0.4684 -0.0065 0.8835
vn -0.4970 -0.0000 0.8677
vn 0.6374 -0.0000 -0.7705
vn -0.5986 -0.7403 -0.3060
vn -0.6757 -0.6506 -0.3466
vn -0.6009 -0.7297 -0.3263
vn -0.6599 -0.6521 -0.3731
vn -0.6752 -0.6345 -0.3761
vn -0.7041 -0.6238 -0.3394
vn -0.6519 -0.6622 -0.3694
vn -0.7226 -0.5751 -0.3836
vn -0.7518 -0.5699 -0.3317
vn -0.6839 -0.6593 -0.3123
vn -0.6600 -0.7011 -0.2698
vn -0.5749 -0.7561 -0.3128
vn -0.5749 -0.7561 -0.3129
vn -0.6086 -0.7130 -0.3481
vn -0.6078 -0.7148 -0.3459
vn -0.7436 -0.6033 -0.2882
vn -0.7103 -0.5866 -0.3890
vn -0.5749 -0.7719 -0.2714
vn -0.5741 -0.7462 -0.3370
vn -0.5744 -0.7664 -0.2876
vn -0.5896 -0.7349 -0.3353
vn -0.6196 -0.7234 -0.3047
vn -0.5621 -0.7349 -0.3794
vn -0.7349 -0.6184 -0.2786
vn -0.5672 -0.7420 -0.3573
vn -0.5798 -0.7372 -0.3469
vn -0.6556 -0.6694 -0.3494
vn -0.5790 -0.7638 -0.2853
vn -0.7286 -0.6294 -0.2704
vn 0.7172 -0.4223 -0.5543
vn -0.4430 0.0393 0.8957
vn 0.0458 0.3833 -0.9225
vn -0.3212 -0.1075 0.9409
vn -0.0972 0.5016 -0.8596
vn -0.1871 -0.2502 0.9499
vn -0.2366 0.6007 -0.7637
vn 0.5805 -0.7487 0.3200
vn -0.0458 -0.3833 0.9225
vn -0.3668 0.6767 -0.6384
vn 0.6558 -0.7420 0.1391
vn 0.0972 -0.5016 0.8596
vn -0.4830 0.7267 -0.4886
vn 0.7059 -0.7068 -0.0471
vn 0.2366 -0.6007 0.7637
vn -0.5805 0.7487 -0.3200
vn 0.7288 -0.6444 -0.2315
vn 0.3668 -0.6767 0.6384
vn -0.6558 0.7420 -0.1391
vn 0.7237 -0.5572 -0.4070
vn 0.4829 -0.7267 0.4886
vn -0.7059 0.7068 0.0471
vn 0.6909 -0.4487 -0.5669
vn -0.7288 0.6444 0.2315
vn 0.6314 -0.3228 -0.7050
vn -0.7237 0.5572 0.4071
vn 0.5478 -0.1846 -0.8160
vn -0.6909 0.4487 0.5669
vn 0.4430 -0.0393 -0.8957
vn -0.6314 0.3228 0.7050
vn 0.3212 0.1075 -0.9409
vn -0.5478 0.1846 0.8160
vn 0.1871 0.2502 -0.9499
vn -0.2322 -0.5282 -0.8167
vn -0.7014 0.6699 0.2435
vn 0.6578 -0.2966 -0.6923
vn -0.6963 0.5828 0.4189
vn 0.5742 -0.1585 -0.8032
vn -0.6634 0.4743 0.5787
vn 0.4696 -0.0133 -0.8828
vn -0.6041 0.3486 0.7167
vn 0.3479 0.1335 -0.9280
vn -0.5204 0.2105 0.8276
vn 0.2139 0.2760 -0.9370
vn -0.4158 0.0653 0.9071
vn 0.0727 0.4090 -0.9096
vn -0.2941 -0.0814 0.9523
vn -0.0703 0.5273 -0.8468
vn -0.1601 -0.2240 0.9614
vn -0.2095 0.6263 -0.7509
vn 0.6070 -0.7221 0.3319
vn -0.0189 -0.3570 0.9339
vn -0.3396 0.7022 -0.6258
vn 0.6822 -0.7154 0.1512
vn 0.1241 -0.4752 0.8711
vn -0.4557 0.7522 -0.4760
vn 0.7322 -0.6802 -0.0349
vn 0.2633 -0.5742 0.7752
vn -0.5532 0.7742 -0.3076
vn 0.7551 -0.6179 -0.2192
vn 0.3934 -0.6501 0.6500
vn -0.6284 0.7675 -0.1269
vn 0.7501 -0.5308 -0.3946
vn 0.5095 -0.7001 0.5004
vn -0.6784 0.7323 0.0593
vn -0.6836 -0.6611 -0.3093
vn -0.9298 -0.2931 0.2226
vn -0.3113 -0.4329 -0.8460
vn -0.8756 -0.3829 0.2946
vn -0.3983 -0.3402 -0.8518
vn -0.8076 -0.4773 0.3464
vn -0.4900 -0.2538 -0.8340
vn -0.7286 -0.5727 0.3758
vn -0.5828 -0.1770 -0.7931
vn -0.6416 -0.6654 0.3817
vn -0.6732 -0.1127 -0.7308
vn -0.1430 -0.9893 -0.0274
vn -0.5498 -0.7519 0.3639
vn -0.7578 -0.0633 -0.6495
vn -0.0941 -0.9850 -0.1449
vn -0.4569 -0.8288 0.3231
vn -0.8331 -0.0309 -0.5522
vn -0.0616 -0.9620 -0.2659
vn -0.3664 -0.8932 0.2608
vn -0.8965 -0.0166 -0.4428
vn -0.0467 -0.9215 -0.3857
vn -0.2818 -0.9425 0.1794
vn -0.9453 -0.0209 -0.3254
vn -0.0500 -0.8648 -0.4996
vn -0.2064 -0.9750 0.0821
vn -0.9779 -0.0438 -0.2045
vn -0.0713 -0.7942 -0.6034
vn -0.9928 -0.0843 -0.0848
vn -0.1099 -0.7125 -0.6931
vn -0.9896 -0.1409 0.0291
vn -0.1642 -0.6226 -0.7651
vn -0.9683 -0.2114 0.1329
vn 0.8264 0.5519 0.1114
vn -0.6836 -0.6611 -0.3092
vn 0.4675 0.7852 0.4061
vn 0.8043 0.5885 0.0820
vn 0.4762 0.7564 0.4485
vn 0.7766 0.6271 0.0609
vn 0.4919 0.7230 0.4850
vn 0.7444 0.6660 0.0490
vn 0.5141 0.6864 0.5144
vn 0.7089 0.7038 0.0466
vn 0.5418 0.6478 0.5355
vn 0.6714 0.7391 0.0538
vn 0.5740 0.6089 0.5474
vn 0.6335 0.7705 0.0705
vn 0.6095 0.5711 0.5498
vn 0.5966 0.7968 0.0959
vn 0.8128 0.4390 0.3829
vn 0.6469 0.5358 0.5425
vn 0.5621 0.8169 0.1291
vn 0.8328 0.4408 0.3350
vn 0.6848 0.5045 0.5259
vn 0.5314 0.8301 0.1688
vn 0.8460 0.4501 0.2857
vn 0.7217 0.4782 0.5004
vn 0.5055 0.8360 0.2135
vn 0.8521 0.4667 0.2369
vn 0.7562 0.4581 0.4672
vn 0.4856 0.8342 0.2614
vn 0.8508 0.4898 0.1904
vn 0.7870 0.4448 0.4276
vn 0.4723 0.8249 0.3108
vn 0.4662 0.8083 0.3596
vn 0.8421 0.5186 0.1480
vt 0.000000 0.000000
vt 0.971731 0.341844
vt 0.949553 0.383337
vt 0.514612 0.296822
vt 0.510000 0.250000
vt 0.919706 0.080294
vt 0.949553 0.116663
vt 0.528269 0.341844
vt 0.883337 0.050447
vt 0.550447 0.383337
vt 0.841844 0.028269
vt 0.796822 0.485388
vt 0.750000 0.490000
vt 0.580295 0.419706
vt 0.796822 0.014612
vt 0.841844 0.471731
vt 0.616663 0.449553
vt 0.750000 0.010000
vt 0.883337 0.449553
vt 0.658156 0.471731
vt 0.703178 0.014612
vt 0.919706 0.419706
vt 0.703179 0.485389
vt 0.658156 0.028269
vt 0.616663 0.050447
vt 0.580294 0.080294
vt 0.985388 0.296822
vt 0.550447 0.116663
vt 0.990000 0.250000
vt 0.528269 0.158156
vt 0.985388 0.203178
vt 0.514611 0.203179
vt 0.971731 0.158156
s 0
f 2/1/1 44/1/1 31/1/1 1/1/1
f 4/1/2 5/1/2 6/1/2
f 6/1/2 7/1/2 8/1/2
f 8/1/2 9/1/2 10/1/2
f 10/1/2 11/1/2 12/1/2
f 12/1/2 13/1/2 14/1/2
f 14/1/2 15/1/2 16/1/2
f 16/1/2 17/1/2 18/1/2
f 18/1/2 19/1/2 1/1/2
f 16/1/2 18/1/2 1/1/2
f 12/1/2 14/1/2 16/1/2
f 8/1/2 10/1/2 12/1/2
f 4/1/2 6/1/2 8/1/2
f 50/1/3 22/1/3 4/1/3 25/1/3
f 22/1/4 50/1/4 21/1/4
f 1/1/2 20/1/2 23/1/2
f 12/1/2 16/1/2 1/1/2
f 4/1/2 8/1/2 12/1/2
f 21/1/5 50/1/5 24/1/5
f 12/1/2 1/1/2 23/1/2
f 12/1/2 23/1/2 4/1/2
f 25/1/6 26/1/6 27/1/6
f 25/1/6 27/1/6 28/1/6
f 29/1/7 30/1/7 31/1/7
f 32/1/6 29/1/6 31/1/6
f 25/1/6 28/1/6 33/1/6
f 25/1/6 33/1/6 34/1/6
f 35/1/6 32/1/6 31/1/6
f 36/1/6 35/1/6 31/1/6
f 25/1/6 34/1/6 37/1/6
f 25/1/6 37/1/6 38/1/6
f 39/1/6 36/1/6 31/1/6
f 40/1/6 39/1/6 31/1/6
f 25/1/6 38/1/6 41/1/6
f 25/1/8 41/1/8 42/1/8
f 43/1/6 40/1/6 31/1/6
f 25/1/9 42/1/9 43/1/9
f 31/1/6 25/1/6 43/1/6
f 44/1/10 45/1/10 46/1/10
f 44/1/5 46/1/5 47/1/5
f 48/1/5 49/1/5 50/1/5
f 51/1/5 48/1/5 50/1/5
f 44/1/5 47/1/5 52/1/5
f 44/1/5 52/1/5 53/1/5
f 54/1/10 51/1/10 50/1/10
f 55/1/5 54/1/5 50/1/5
f 44/1/5 53/1/5 56/1/5
f 44/1/5 56/1/5 57/1/5
f 58/1/5 55/1/5 50/1/5
f 59/1/5 58/1/5 50/1/5
f 44/1/11 57/1/11 60/1/11
f 44/1/12 60/1/12 61/1/12
f 62/1/5 59/1/5 50/1/5
f 44/1/13 61/1/13 62/1/13
f 44/1/5 62/1/5 50/1/5
f 4/1/14 23/1/14 25/1/14
f 25/1/15 63/1/15 64/1/15
f 25/1/16 64/1/16 50/1/16
f 20/1/17 1/1/17 31/1/17
f 3/1/5 44/1/5 2/1/5
f 65/1/18 66/1/18 67/1/18
f 65/1/18 67/1/18 68/1/18
f 69/1/19 70/1/19 71/1/19
f 69/1/20 71/1/20 72/1/20
f 26/1/21 49/1/21 48/1/21
f 26/1/21 48/1/21 27/1/21
f 32/1/20 47/1/20 46/1/20
f 32/1/20 46/1/20 29/1/20
f 73/1/22 74/1/22 75/1/22
f 73/1/22 75/1/22 76/1/22
f 77/1/23 78/1/23 79/1/23
f 77/1/23 79/1/23 80/1/23
f 81/1/24 82/1/24 83/1/24
f 81/1/24 83/1/24 84/1/24
f 85/1/25 86/1/25 87/1/25
f 85/1/25 87/1/25 88/1/25
f 89/1/26 90/1/26 91/1/26
f 89/1/26 91/1/26 92/1/26
f 93/1/27 94/1/27 95/1/27
f 93/1/27 95/1/27 96/1/27
f 97/1/28 98/1/28 99/1/28
f 97/1/28 99/1/28 100/1/28
f 101/1/29 102/1/29 90/1/29
f 101/1/29 90/1/29 89/1/29
f 74/1/5 45/1/5 44/1/5
f 44/1/10 103/1/10 71/1/10
f 44/1/5 71/1/5 70/1/5
f 75/1/10 74/1/10 44/1/10
f 104/1/5 75/1/5 44/1/5
f 44/1/5 70/1/5 105/1/5
f 44/1/10 105/1/10 79/1/10
f 106/1/30 104/1/30 44/1/30
f 106/1/5 44/1/5 79/1/5
f 106/1/5 79/1/5 78/1/5
f 107/1/5 106/1/5 78/1/5
f 107/1/5 78/1/5 108/1/5
f 109/1/5 107/1/5 108/1/5
f 109/1/10 108/1/10 110/1/10
f 66/1/10 109/1/10 110/1/10
f 66/1/5 110/1/5 111/1/5
f 67/1/5 66/1/5 111/1/5
f 67/1/5 111/1/5 112/1/5
f 113/1/5 67/1/5 112/1/5
f 113/1/5 112/1/5 114/1/5
f 115/1/5 113/1/5 114/1/5
f 115/1/5 114/1/5 116/1/5
f 117/1/5 115/1/5 116/1/5
f 117/1/5 116/1/5 118/1/5
f 119/1/5 117/1/5 118/1/5
f 119/1/5 118/1/5 120/1/5
f 121/1/5 119/1/5 120/1/5
f 121/1/10 120/1/10 122/1/10
f 123/1/10 121/1/10 122/1/10
f 124/1/5 125/1/5 50/1/5
f 123/1/31 122/1/31 124/1/31
f 50/1/5 49/1/5 126/1/5
f 126/1/31 123/1/31 124/1/31
f 124/1/5 50/1/5 126/1/5
f 127/1/32 103/1/32 44/1/32
f 44/1/5 99/1/5 98/1/5
f 44/1/10 98/1/10 83/1/10
f 128/1/33 127/1/33 44/1/33
f 128/1/5 44/1/5 83/1/5
f 128/1/31 83/1/31 82/1/31
f 129/1/5 128/1/5 82/1/5
f 129/1/10 82/1/10 130/1/10
f 131/1/10 129/1/10 130/1/10
f 131/1/5 130/1/5 132/1/5
f 133/1/5 131/1/5 132/1/5
f 133/1/5 132/1/5 134/1/5
f 135/1/5 133/1/5 134/1/5
f 135/1/5 134/1/5 136/1/5
f 137/1/10 135/1/10 136/1/10
f 137/1/10 136/1/10 87/1/10
f 138/1/5 137/1/5 87/1/5
f 138/1/5 87/1/5 86/1/5
f 139/1/5 138/1/5 86/1/5
f 139/1/10 86/1/10 140/1/10
f 141/1/5 139/1/5 140/1/5
f 141/1/5 140/1/5 91/1/5
f 142/1/5 141/1/5 91/1/5
f 142/1/5 91/1/5 90/1/5
f 143/1/10 142/1/10 90/1/10
f 143/1/5 90/1/5 102/1/5
f 144/1/5 143/1/5 102/1/5
f 144/1/5 102/1/5 145/1/5
f 146/1/10 144/1/10 145/1/10
f 147/1/5 148/1/5 50/1/5
f 146/1/10 145/1/10 147/1/10
f 50/1/5 125/1/5 149/1/5
f 149/1/31 146/1/31 147/1/31
f 147/1/5 50/1/5 149/1/5
f 150/1/5 99/1/5 44/1/5
f 44/1/5 3/1/5 151/1/5
f 151/1/5 24/1/5 50/1/5
f 50/1/5 148/1/5 152/1/5
f 151/1/5 50/1/5 152/1/5
f 150/1/5 44/1/5 151/1/5
f 153/1/10 150/1/10 151/1/10
f 151/1/10 152/1/10 154/1/10
f 151/1/10 154/1/10 155/1/10
f 156/1/31 153/1/31 151/1/31
f 157/1/10 156/1/10 151/1/10
f 151/1/5 155/1/5 158/1/5
f 151/1/10 158/1/10 159/1/10
f 160/1/5 157/1/5 151/1/5
f 94/1/5 160/1/5 151/1/5
f 151/1/5 159/1/5 161/1/5
f 151/1/10 161/1/10 162/1/10
f 95/1/5 94/1/5 151/1/5
f 151/1/5 162/1/5 163/1/5
f 151/1/10 163/1/10 95/1/10
f 164/1/27 109/1/27 66/1/27
f 164/1/27 66/1/27 65/1/27
f 165/1/34 131/1/34 133/1/34
f 165/1/34 133/1/34 166/1/34
f 167/1/35 154/1/35 152/1/35
f 167/1/35 152/1/35 168/1/35
f 169/1/23 132/1/23 130/1/23
f 169/1/23 130/1/23 170/1/23
f 171/1/36 124/1/36 122/1/36
f 171/1/36 122/1/36 172/1/36
f 92/1/37 91/1/37 140/1/37
f 92/1/38 140/1/38 173/1/38
f 174/1/22 150/1/22 153/1/22
f 174/1/22 153/1/22 175/1/22
f 29/1/28 46/1/28 45/1/28
f 29/1/28 45/1/28 30/1/28
f 176/1/39 113/1/39 115/1/39
f 176/1/39 115/1/39 177/1/39
f 88/1/40 87/1/40 136/1/40
f 88/1/40 136/1/40 178/1/40
f 179/1/41 119/1/41 121/1/41
f 179/1/41 121/1/41 180/1/41
f 39/1/23 56/1/23 53/1/23
f 39/1/23 53/1/23 36/1/23
f 181/1/39 162/1/39 161/1/39
f 181/1/39 161/1/39 182/1/39
f 183/1/42 163/1/42 162/1/42
f 183/1/42 162/1/42 181/1/42
f 96/1/18 95/1/18 163/1/18
f 96/1/18 163/1/18 183/1/18
f 184/1/40 111/1/40 110/1/40
f 184/1/40 110/1/40 185/1/40
f 186/1/27 135/1/27 137/1/27
f 186/1/27 137/1/27 187/1/27
f 188/1/43 104/1/43 106/1/43
f 188/1/43 106/1/43 189/1/43
f 33/1/29 54/1/29 55/1/29
f 33/1/44 55/1/44 34/1/44
f 190/1/45 141/1/45 142/1/45
f 190/1/45 142/1/45 191/1/45
f 192/1/43 129/1/43 131/1/43
f 192/1/43 131/1/43 165/1/43
f 41/1/25 62/1/25 61/1/25
f 41/1/25 61/1/25 42/1/25
f 193/1/46 158/1/46 155/1/46
f 193/1/46 155/1/46 194/1/46
f 195/1/47 149/1/47 125/1/47
f 195/1/48 125/1/48 196/1/48
f 38/1/49 59/1/49 62/1/49
f 38/1/50 62/1/50 41/1/50
f 36/1/51 53/1/51 52/1/51
f 36/1/51 52/1/51 35/1/51
f 76/1/52 75/1/52 104/1/52
f 76/1/52 104/1/52 188/1/52
f 40/1/53 57/1/53 56/1/53
f 40/1/53 56/1/53 39/1/53
f 197/1/38 116/1/38 114/1/38
f 197/1/38 114/1/38 198/1/38
f 34/1/26 55/1/26 58/1/26
f 34/1/26 58/1/26 37/1/26
f 199/1/47 126/1/47 49/1/47
f 199/1/47 49/1/47 26/1/47
f 200/1/54 117/1/54 119/1/54
f 200/1/54 119/1/54 179/1/54
f 72/1/28 71/1/28 103/1/28
f 72/1/28 103/1/28 201/1/28
f 180/1/55 121/1/55 123/1/55
f 180/1/55 123/1/55 202/1/55
f 187/1/18 137/1/18 138/1/18
f 187/1/18 138/1/18 203/1/18
f 204/1/56 107/1/56 109/1/56
f 204/1/56 109/1/56 164/1/56
f 205/1/54 159/1/54 158/1/54
f 205/1/54 158/1/54 193/1/54
f 177/1/45 115/1/45 117/1/45
f 177/1/45 117/1/45 200/1/45
f 206/1/55 144/1/55 146/1/55
f 206/1/55 146/1/55 207/1/55
f 208/1/22 127/1/22 128/1/22
f 208/1/22 128/1/22 209/1/22
f 198/1/50 114/1/50 112/1/50
f 198/1/50 112/1/50 210/1/50
f 211/1/34 157/1/34 160/1/34
f 211/1/34 160/1/34 212/1/34
f 213/1/41 143/1/41 144/1/41
f 213/1/41 144/1/41 206/1/41
f 214/1/57 108/1/57 78/1/57
f 214/1/53 78/1/53 77/1/53
f 215/1/36 147/1/36 145/1/36
f 215/1/36 145/1/36 216/1/36
f 178/1/58 136/1/58 134/1/58
f 178/1/58 134/1/58 217/1/58
f 209/1/52 128/1/52 129/1/52
f 209/1/52 129/1/52 192/1/52
f 42/1/40 61/1/40 60/1/40
f 42/1/40 60/1/40 43/1/40
f 37/1/38 58/1/38 59/1/38
f 37/1/38 59/1/38 38/1/38
f 196/1/21 125/1/21 124/1/21
f 196/1/59 124/1/59 171/1/59
f 35/1/24 52/1/24 47/1/24
f 35/1/24 47/1/24 32/1/24
f 194/1/55 155/1/55 154/1/55
f 194/1/55 154/1/55 167/1/55
f 84/1/20 83/1/20 98/1/20
f 84/1/20 98/1/20 97/1/20
f 170/1/51 130/1/51 82/1/51
f 170/1/51 82/1/51 81/1/51
f 175/1/52 153/1/52 156/1/52
f 175/1/52 156/1/52 218/1/52
f 27/1/36 48/1/36 51/1/36
f 27/1/36 51/1/36 28/1/36
f 28/1/60 51/1/60 54/1/60
f 28/1/60 54/1/60 33/1/60
f 218/1/43 156/1/43 157/1/43
f 218/1/61 157/1/61 211/1/61
f 172/1/60 122/1/60 120/1/60
f 172/1/60 120/1/60 219/1/60
f 191/1/54 142/1/54 143/1/54
f 191/1/54 143/1/54 213/1/54
f 185/1/62 110/1/62 108/1/62
f 185/1/62 108/1/62 214/1/62
f 220/1/21 148/1/21 147/1/21
f 220/1/21 147/1/21 215/1/21
f 219/1/29 120/1/29 118/1/29
f 219/1/44 118/1/44 221/1/44
f 212/1/56 160/1/56 94/1/56
f 212/1/56 94/1/56 93/1/56
f 100/1/63 99/1/63 150/1/63
f 100/1/63 150/1/63 174/1/63
f 216/1/60 145/1/60 102/1/60
f 216/1/60 102/1/60 101/1/60
f 210/1/25 112/1/25 111/1/25
f 210/1/25 111/1/25 184/1/25
f 203/1/42 138/1/42 139/1/42
f 203/1/42 139/1/42 222/1/42
f 173/1/64 140/1/64 86/1/64
f 173/1/50 86/1/50 85/1/50
f 30/1/63 45/1/63 74/1/63
f 30/1/63 74/1/63 73/1/63
f 26/1/6 25/1/6 220/1/6 196/1/6
f 199/1/6 26/1/6 196/1/6
f 199/1/65 196/1/65 171/1/65
f 202/1/7 199/1/7 171/1/7
f 202/1/7 171/1/7 172/1/7
f 180/1/65 202/1/65 172/1/65
f 180/1/65 172/1/65 219/1/65
f 179/1/65 180/1/65 219/1/65
f 179/1/65 219/1/65 221/1/65
f 200/1/7 179/1/7 221/1/7
f 200/1/7 221/1/7 197/1/7
f 177/1/65 200/1/65 197/1/65
f 177/1/65 197/1/65 198/1/65
f 176/1/6 177/1/6 198/1/6
f 176/1/6 198/1/6 210/1/6
f 68/1/6 176/1/6 210/1/6
f 68/1/6 210/1/6 184/1/6
f 65/1/6 68/1/6 184/1/6
f 65/1/6 184/1/6 185/1/6
f 164/1/6 65/1/6 185/1/6
f 164/1/6 185/1/6 214/1/6
f 204/1/6 164/1/6 214/1/6
f 204/1/6 214/1/6 77/1/6
f 189/1/6 204/1/6 77/1/6
f 189/1/6 77/1/6 80/1/6
f 188/1/6 189/1/6 80/1/6
f 188/1/6 80/1/6 223/1/6
f 76/1/7 188/1/7 223/1/7
f 76/1/7 223/1/7 69/1/7
f 31/1/65 30/1/65 73/1/65
f 73/1/65 76/1/65 69/1/65
f 72/1/7 201/1/7 31/1/7
f 73/1/65 69/1/65 72/1/65
f 72/1/6 31/1/6 73/1/6
f 196/1/66 220/1/66 215/1/66
f 196/1/7 215/1/7 216/1/7
f 195/1/65 196/1/65 216/1/65
f 195/1/65 216/1/65 101/1/65
f 207/1/7 195/1/7 101/1/7
f 207/1/7 101/1/7 89/1/7
f 206/1/65 207/1/65 89/1/65
f 206/1/6 89/1/6 92/1/6
f 213/1/65 206/1/65 92/1/65
f 213/1/6 92/1/6 173/1/6
f 191/1/7 213/1/7 173/1/7
f 191/1/6 173/1/6 85/1/6
f 190/1/65 191/1/65 85/1/65
f 190/1/6 85/1/6 88/1/6
f 222/1/6 190/1/6 88/1/6
f 222/1/7 88/1/7 178/1/7
f 203/1/6 222/1/6 178/1/6
f 203/1/65 178/1/65 217/1/65
f 187/1/6 203/1/6 217/1/6
f 187/1/6 217/1/6 169/1/6
f 186/1/6 187/1/6 169/1/6
f 186/1/6 169/1/6 170/1/6
f 166/1/6 186/1/6 170/1/6
f 166/1/7 170/1/7 81/1/7
f 165/1/6 166/1/6 81/1/6
f 165/1/6 81/1/6 84/1/6
f 192/1/6 165/1/6 84/1/6
f 97/1/7 100/1/7 31/1/7
f 192/1/7 84/1/7 97/1/7
f 209/1/7 192/1/7 97/1/7
f 97/1/6 31/1/6 201/1/6
f 208/1/65 209/1/65 97/1/65
f 97/1/67 201/1/67 208/1/67
f 168/1/68 220/1/68 25/1/68
f 20/1/6 31/1/6 100/1/6
f 20/1/7 100/1/7 174/1/7
f 168/1/6 25/1/6 23/1/6
f 167/1/6 168/1/6 23/1/6
f 20/1/6 174/1/6 175/1/6
f 20/1/6 175/1/6 218/1/6
f 167/1/6 23/1/6 20/1/6
f 194/1/69 167/1/69 20/1/69
f 20/1/7 218/1/7 211/1/7
f 20/1/6 211/1/6 212/1/6
f 193/1/7 194/1/7 20/1/7
f 205/1/6 193/1/6 20/1/6
f 20/1/6 212/1/6 93/1/6
f 20/1/65 93/1/65 96/1/65
f 182/1/6 205/1/6 20/1/6
f 181/1/6 182/1/6 20/1/6
f 20/1/7 96/1/7 183/1/7
f 20/1/6 183/1/6 181/1/6
f 217/1/53 134/1/53 132/1/53
f 217/1/53 132/1/53 169/1/53
f 80/1/51 79/1/51 105/1/51
f 80/1/51 105/1/51 223/1/51
f 182/1/45 161/1/45 159/1/45
f 182/1/45 159/1/45 205/1/45
f 221/1/26 118/1/26 116/1/26
f 221/1/26 116/1/26 197/1/26
f 223/1/24 105/1/24 70/1/24
f 223/1/24 70/1/24 69/1/24
f 168/1/47 152/1/47 148/1/47
f 168/1/47 148/1/47 220/1/47
f 43/1/58 60/1/58 57/1/58
f 43/1/58 57/1/58 40/1/58
f 189/1/34 106/1/34 107/1/34
f 189/1/34 107/1/34 204/1/34
f 166/1/56 133/1/56 135/1/56
f 166/1/56 135/1/56 186/1/56
f 201/1/63 103/1/63 127/1/63
f 201/1/63 127/1/63 208/1/63
f 222/1/39 139/1/39 141/1/39
f 222/1/39 141/1/39 190/1/39
f 202/1/35 123/1/35 126/1/35
f 202/1/35 126/1/35 199/1/35
f 207/1/35 146/1/35 149/1/35
f 207/1/35 149/1/35 195/1/35
f 68/1/42 67/1/42 113/1/42
f 68/1/42 113/1/42 176/1/42
f 224/1/70 225/1/70 226/1/70
f 224/1/70 226/1/70 227/1/70
f 31/1/6 227/1/6 63/1/6
f 31/1/6 63/1/6 25/1/6
f 44/1/71 224/1/71 227/1/71
f 44/1/71 227/1/71 31/1/71
f 50/1/5 64/1/5 224/1/5
f 50/1/5 224/1/5 44/1/5
f 226/1/2 225/1/2 228/1/2
f 226/1/2 228/1/2 229/1/2
f 230/1/5 64/1/5 228/1/5
f 225/1/5 224/1/5 231/1/5
f 225/1/5 231/1/5 232/1/5
f 233/1/5 230/1/5 228/1/5
f 234/1/5 233/1/5 228/1/5
f 225/1/5 232/1/5 235/1/5
f 225/1/5 235/1/5 236/1/5
f 237/1/5 234/1/5 228/1/5
f 238/1/5 237/1/5 228/1/5
f 225/1/5 236/1/5 239/1/5
f 225/1/5 239/1/5 240/1/5
f 241/1/5 238/1/5 228/1/5
f 242/1/5 241/1/5 228/1/5
f 225/1/5 240/1/5 243/1/5
f 225/1/5 243/1/5 244/1/5
f 245/1/5 242/1/5 228/1/5
f 225/1/5 244/1/5 246/1/5
f 246/1/5 245/1/5 228/1/5
f 228/1/5 225/1/5 246/1/5
f 63/1/72 229/1/72 228/1/72
f 63/1/72 228/1/72 64/1/72
f 247/1/6 227/1/6 226/1/6
f 229/1/6 63/1/6 248/1/6
f 229/1/6 248/1/6 249/1/6
f 250/1/6 247/1/6 226/1/6
f 251/1/6 250/1/6 226/1/6
f 229/1/6 249/1/6 252/1/6
f 229/1/6 252/1/6 253/1/6
f 254/1/6 251/1/6 226/1/6
f 255/1/6 254/1/6 226/1/6
f 229/1/6 253/1/6 256/1/6
f 229/1/6 256/1/6 257/1/6
f 258/1/6 255/1/6 226/1/6
f 259/1/6 258/1/6 226/1/6
f 229/1/6 257/1/6 260/1/6
f 229/1/6 260/1/6 261/1/6
f 262/1/6 259/1/6 226/1/6
f 229/1/6 261/1/6 263/1/6
f 263/1/6 262/1/6 226/1/6
f 226/1/6 229/1/6 263/1/6
f 247/1/63 231/1/63 264/1/63
f 247/1/63 264/1/63 265/1/63
f 266/1/61 267/1/61 268/1/61
f 266/1/61 268/1/61 269/1/61
f 270/1/52 271/1/52 267/1/52
f 270/1/52 267/1/52 266/1/52
f 248/1/73 230/1/73 233/1/73
f 248/1/73 233/1/73 249/1/73
f 251/1/19 235/1/19 232/1/19
f 251/1/19 232/1/19 250/1/19
f 250/1/74 232/1/74 231/1/74
f 250/1/74 231/1/74 247/1/74
f 255/1/51 239/1/51 236/1/51
f 255/1/51 236/1/51 254/1/51
f 261/1/75 245/1/75 246/1/75
f 261/1/75 246/1/75 263/1/75
f 272/1/76 273/1/76 274/1/76
f 272/1/76 274/1/76 275/1/76
f 252/1/60 234/1/60 237/1/60
f 252/1/60 237/1/60 253/1/60
f 276/1/77 277/1/77 273/1/77
f 276/1/77 273/1/77 272/1/77
f 260/1/50 242/1/50 245/1/50
f 260/1/50 245/1/50 261/1/50
f 258/1/23 240/1/23 239/1/23
f 258/1/23 239/1/23 255/1/23
f 227/1/6 247/1/6 265/1/6
f 227/1/6 265/1/6 270/1/6
f 278/1/6 248/1/6 63/1/6
f 279/1/6 278/1/6 63/1/6
f 227/1/6 270/1/6 266/1/6
f 227/1/6 266/1/6 269/1/6
f 280/1/6 279/1/6 63/1/6
f 281/1/6 280/1/6 63/1/6
f 63/1/6 227/1/6 269/1/6
f 63/1/78 269/1/78 282/1/78
f 283/1/6 281/1/6 63/1/6
f 284/1/6 283/1/6 63/1/6
f 63/1/6 282/1/6 285/1/6
f 63/1/6 285/1/6 276/1/6
f 275/1/6 284/1/6 63/1/6
f 63/1/6 276/1/6 272/1/6
f 63/1/6 272/1/6 275/1/6
f 284/1/45 286/1/45 287/1/45
f 284/1/45 287/1/45 283/1/45
f 259/1/53 243/1/53 240/1/53
f 259/1/53 240/1/53 258/1/53
f 269/1/34 268/1/34 288/1/34
f 269/1/34 288/1/34 282/1/34
f 256/1/26 238/1/26 241/1/26
f 256/1/26 241/1/26 257/1/26
f 249/1/36 233/1/36 234/1/36
f 249/1/36 234/1/36 252/1/36
f 282/1/56 288/1/56 289/1/56
f 282/1/56 289/1/56 285/1/56
f 283/1/54 287/1/54 290/1/54
f 283/1/54 290/1/54 281/1/54
f 280/1/55 291/1/55 292/1/55
f 280/1/55 292/1/55 279/1/55
f 254/1/24 236/1/24 235/1/24
f 254/1/24 235/1/24 251/1/24
f 263/1/79 246/1/79 244/1/79
f 263/1/79 244/1/79 262/1/79
f 278/1/47 293/1/47 230/1/47
f 278/1/47 230/1/47 248/1/47
f 265/1/80 264/1/80 271/1/80
f 265/1/80 271/1/80 270/1/80
f 275/1/39 274/1/39 286/1/39
f 275/1/39 286/1/39 284/1/39
f 257/1/38 241/1/38 242/1/38
f 257/1/38 242/1/38 260/1/38
f 262/1/58 244/1/58 243/1/58
f 262/1/58 243/1/58 259/1/58
f 279/1/35 292/1/35 293/1/35
f 279/1/35 293/1/35 278/1/35
f 285/1/27 289/1/27 277/1/27
f 285/1/27 277/1/27 276/1/27
f 253/1/29 237/1/29 238/1/29
f 253/1/29 238/1/29 256/1/29
f 64/1/5 230/1/5 293/1/5
f 64/1/5 293/1/5 292/1/5
f 264/1/5 231/1/5 224/1/5
f 271/1/5 264/1/5 224/1/5
f 64/1/5 292/1/5 291/1/5
f 64/1/5 291/1/5 290/1/5
f 267/1/5 271/1/5 224/1/5
f 268/1/5 267/1/5 224/1/5
f 224/1/5 64/1/5 290/1/5
f 224/1/81 290/1/81 287/1/81
f 288/1/5 268/1/5 224/1/5
f 289/1/5 288/1/5 224/1/5
f 224/1/5 287/1/5 286/1/5
f 224/1/5 286/1/5 274/1/5
f 277/1/5 289/1/5 224/1/5
f 224/1/5 274/1/5 273/1/5
f 224/1/5 273/1/5 277/1/5
f 281/1/46 290/1/46 291/1/46
f 281/1/46 291/1/46 280/1/46
f 347/1/82 306/1/82 346/1/82
f 333/1/83 311/1/83 312/1/83
f 340/1/84 341/1/84 309/1/84
f 327/1/85 304/1/85 326/1/85
f 344/1/86 345/1/86 307/1/86
f 348/1/87 305/1/87 347/1/87
f 325/1/88 301/1/88 324/1/88
f 305/1/89 319/1/89 320/1/89
f 305/1/90 318/1/90 319/1/90
f 317/1/91 305/1/91 302/1/91
f 334/1/92 295/1/92 311/1/92
f 302/1/93 305/1/93 320/1/93
f 349/1/94 318/1/94 305/1/94
f 329/1/95 330/1/95 303/1/95
f 333/1/96 334/1/96 311/1/96
f 306/1/97 307/1/97 346/1/97
f 294/1/98 334/1/98 335/1/98
f 326/1/99 301/1/99 325/1/99
f 296/1/100 339/1/100 316/1/100
f 321/1/101 302/1/101 320/1/101
f 331/1/102 332/1/102 314/1/102
f 345/1/103 346/1/103 307/1/103
f 295/1/104 294/1/104 11/1/104
f 11/1/105 10/1/105 311/1/105
f 11/1/106 311/1/106 295/1/106
f 12/1/107 11/1/107 294/1/107
f 12/1/107 294/1/107 300/1/107
f 6/1/108 5/1/108 303/1/108
f 6/1/109 303/1/109 310/1/109
f 309/1/110 17/1/110 16/1/110
f 309/1/111 16/1/111 316/1/111
f 303/1/112 5/1/112 4/1/112
f 4/1/113 304/1/113 303/1/113
f 327/1/114 328/1/114 304/1/114
f 296/1/115 316/1/115 16/1/115
f 16/1/115 15/1/115 297/1/115
f 16/1/116 297/1/116 296/1/116
f 18/1/117 308/1/117 307/1/117
f 18/1/117 307/1/117 19/1/117
f 317/1/5 151/1/5 3/1/5
f 3/1/5 2/1/5 315/1/5
f 308/1/118 344/1/118 307/1/118
f 3/1/5 315/1/5 317/1/5
f 19/1/119 307/1/119 306/1/119
f 19/1/119 306/1/119 1/1/119
f 302/1/5 21/1/5 24/1/5
f 24/1/5 151/1/5 317/1/5
f 339/1/120 340/1/120 316/1/120
f 24/1/5 317/1/5 302/1/5
f 9/1/121 8/1/121 313/1/121
f 9/1/121 313/1/121 312/1/121
f 301/1/122 302/1/122 324/1/122
f 311/1/123 10/1/123 9/1/123
f 311/1/123 9/1/123 312/1/123
f 7/1/124 6/1/124 310/1/124
f 7/1/124 310/1/124 314/1/124
f 4/1/125 22/1/125 301/1/125
f 4/1/125 301/1/125 304/1/125
f 297/1/126 15/1/126 14/1/126
f 297/1/126 14/1/126 298/1/126
f 298/1/127 14/1/127 13/1/127
f 298/1/127 13/1/127 299/1/127
f 317/1/128 315/1/128 305/1/128
f 315/1/129 2/1/129 1/1/129
f 1/1/130 306/1/130 305/1/130
f 315/1/131 1/1/131 305/1/131
f 8/1/132 7/1/132 314/1/132
f 8/1/132 314/1/132 313/1/132
f 299/1/133 13/1/133 12/1/133
f 299/1/133 12/1/133 300/1/133
f 22/1/134 21/1/134 302/1/134
f 22/1/135 302/1/135 301/1/135
f 18/1/136 17/1/136 309/1/136
f 309/1/136 308/1/136 18/1/136
f 316/1/137 340/1/137 309/1/137
f 328/1/138 329/1/138 303/1/138
f 332/1/139 313/1/139 314/1/139
f 343/1/140 344/1/140 308/1/140
f 309/1/141 342/1/141 308/1/141
f 304/1/142 328/1/142 303/1/142
f 342/1/143 343/1/143 308/1/143
f 349/1/144 305/1/144 348/1/144
f 304/1/145 301/1/145 326/1/145
f 330/1/146 331/1/146 310/1/146
f 332/1/147 333/1/147 313/1/147
f 299/1/148 336/1/148 298/1/148
f 336/1/149 337/1/149 298/1/149
f 339/1/150 296/1/150 338/1/150
f 330/1/151 310/1/151 303/1/151
f 322/1/152 302/1/152 321/1/152
f 305/1/153 306/1/153 347/1/153
f 296/1/154 297/1/154 338/1/154
f 299/1/155 300/1/155 335/1/155
f 298/1/156 337/1/156 297/1/156
f 337/1/157 338/1/157 297/1/157
f 333/1/158 312/1/158 313/1/158
f 294/1/159 295/1/159 334/1/159
f 323/1/160 302/1/160 322/1/160
f 300/1/161 294/1/161 335/1/161
f 331/1/162 314/1/162 310/1/162
f 341/1/163 342/1/163 309/1/163
f 336/1/164 299/1/164 335/1/164
f 324/1/165 302/1/165 323/1/165
f 476/2/166 477/3/166 387/3/166 388/2/166
f 343/4/167 342/5/167 374/5/167 375/4/167
f 330/6/168 329/7/168 361/7/168 362/6/168
f 344/8/169 343/4/169 375/4/169 376/8/169
f 331/9/170 330/6/170 362/6/170 363/9/170
f 345/10/171 344/8/171 376/8/171 377/10/171
f 332/11/172 331/9/172 363/9/172 364/11/172
f 319/12/173 318/13/173 350/13/173 351/12/173
f 346/14/174 345/10/174 377/10/174 378/14/174
f 333/15/175 332/11/175 364/11/175 365/15/175
f 320/16/176 319/12/176 351/12/176 352/16/176
f 347/17/177 346/14/177 378/14/177 379/17/177
f 334/18/178 333/15/178 365/15/178 366/18/178
f 321/19/179 320/16/179 352/16/179 353/19/179
f 348/20/180 347/17/180 379/17/180 380/20/180
f 335/21/181 334/18/181 366/18/181 367/21/181
f 322/22/182 321/19/182 353/19/182 354/22/182
f 349/23/183 348/20/183 380/20/183 381/23/183
f 336/24/184 335/21/184 367/21/184 368/24/184
f 323/3/185 322/22/185 354/22/185 355/3/185
f 318/13/186 349/23/186 381/23/186 350/13/186
f 337/25/187 336/24/187 368/24/187 369/25/187
f 324/2/188 323/3/188 355/3/188 356/2/188
f 338/26/189 337/25/189 369/25/189 370/26/189
f 325/27/190 324/2/190 356/2/190 357/27/190
f 339/28/191 338/26/191 370/26/191 371/28/191
f 326/29/192 325/27/192 357/27/192 358/29/192
f 340/30/193 339/28/193 371/28/193 372/30/193
f 327/31/194 326/29/194 358/29/194 359/31/194
f 341/32/195 340/30/195 372/30/195 373/32/195
f 328/33/196 327/31/196 359/31/196 360/33/196
f 342/5/197 341/32/197 373/32/197 374/5/197
f 329/7/198 328/33/198 360/33/198 361/7/198
f 391/31/199 390/29/199 422/29/199 423/31/199
f 474/26/200 475/25/200 401/25/200 402/26/200
f 473/27/201 476/2/201 388/2/201 389/27/201
f 472/28/202 474/26/202 402/26/202 403/28/202
f 471/29/203 473/27/203 389/27/203 390/29/203
f 470/30/204 472/28/204 403/28/204 404/30/204
f 469/31/205 471/29/205 390/29/205 391/31/205
f 468/32/206 470/30/206 404/30/206 405/32/206
f 467/33/207 469/31/207 391/31/207 392/33/207
f 466/5/208 468/32/208 405/32/208 406/5/208
f 465/7/209 467/33/209 392/33/209 393/7/209
f 464/4/210 466/5/210 406/5/210 407/4/210
f 463/6/211 465/7/211 393/7/211 394/6/211
f 462/8/212 464/4/212 407/4/212 408/8/212
f 461/9/213 463/6/213 394/6/213 395/9/213
f 460/10/214 462/8/214 408/8/214 409/10/214
f 459/11/215 461/9/215 395/9/215 396/11/215
f 457/12/216 458/13/216 382/13/216 383/12/216
f 456/14/217 460/10/217 409/10/217 410/14/217
f 455/15/218 459/11/218 396/11/218 397/15/218
f 454/16/219 457/12/219 383/12/219 384/16/219
f 453/17/220 456/14/220 410/14/220 411/17/220
f 452/18/221 455/15/221 397/15/221 398/18/221
f 451/19/222 454/16/222 384/16/222 385/19/222
f 450/20/223 453/17/223 411/17/223 412/20/223
f 449/21/224 452/18/224 398/18/224 399/21/224
f 448/22/225 451/19/225 385/19/225 386/22/225
f 447/23/226 450/20/226 412/20/226 413/23/226
f 478/24/227 449/21/227 399/21/227 400/24/227
f 477/3/228 448/22/228 386/22/228 387/3/228
f 458/13/229 447/23/229 413/23/229 382/13/229
f 475/25/230 478/24/230 400/24/230 401/25/230
f 426/6/231 425/7/231 446/6/231
f 405/32/232 404/30/232 436/30/232 437/32/232
f 392/33/233 391/31/233 423/31/233 424/33/233
f 406/5/234 405/32/234 437/32/234 438/5/234
f 393/7/235 392/33/235 424/33/235 425/7/235
f 407/4/236 406/5/236 438/5/236 439/4/236
f 394/6/237 393/7/237 425/7/237 426/6/237
f 408/8/238 407/4/238 439/4/238 440/8/238
f 395/9/239 394/6/239 426/6/239 427/9/239
f 409/10/240 408/8/240 440/8/240 441/10/240
f 396/11/241 395/9/241 427/9/241 428/11/241
f 383/12/242 382/13/242 414/13/242 415/12/242
f 410/14/243 409/10/243 441/10/243 442/14/243
f 397/15/244 396/11/244 428/11/244 429/15/244
f 384/16/245 383/12/245 415/12/245 416/16/245
f 411/17/246 410/14/246 442/14/246 443/17/246
f 398/18/247 397/15/247 429/15/247 430/18/247
f 385/19/248 384/16/248 416/16/248 417/19/248
f 412/20/249 411/17/249 443/17/249 444/20/249
f 399/21/250 398/18/250 430/18/250 431/21/250
f 386/22/251 385/19/251 417/19/251 418/22/251
f 413/23/252 412/20/252 444/20/252 445/23/252
f 400/24/253 399/21/253 431/21/253 432/24/253
f 387/3/254 386/22/254 418/22/254 419/3/254
f 382/13/255 413/23/255 445/23/255 414/13/255
f 401/25/256 400/24/256 432/24/256 433/25/256
f 388/2/257 387/3/257 419/3/257 420/2/257
f 402/26/258 401/25/258 433/25/258 434/26/258
f 389/27/259 388/2/259 420/2/259 421/27/259
f 403/28/260 402/26/260 434/26/260 435/28/260
f 390/29/261 389/27/261 421/27/261 422/29/261
f 404/30/262 403/28/262 435/28/262 436/30/262
f 357/27/263 356/2/263 476/2/263 473/27/263
f 440/8/231 439/4/231 446/8/231
f 427/9/231 426/6/231 446/9/231
f 441/10/231 440/8/231 446/10/231
f 428/11/231 427/9/231 446/11/231
f 415/12/231 414/13/231 446/12/231
f 442/14/231 441/10/231 446/14/231
f 429/15/231 428/11/231 446/15/231
f 416/16/231 415/12/231 446/16/231
f 443/17/231 442/14/231 446/17/231
f 430/18/231 429/15/231 446/18/231
f 417/19/231 416/16/231 446/19/231
f 444/20/231 443/17/231 446/20/231
f 431/21/231 430/18/231 446/21/231
f 418/22/231 417/19/231 446/22/231
f 445/23/231 444/20/231 446/23/231
f 432/24/231 431/21/231 446/24/231
f 419/3/231 418/22/231 446/3/231
f 414/13/231 445/23/231 446/13/231
f 433/25/231 432/24/231 446/25/231
f 420/2/231 419/3/231 446/2/231
f 434/26/264 433/25/264 446/26/264
f 421/27/231 420/2/231 446/27/231
f 435/28/231 434/26/231 446/28/231
f 422/29/231 421/27/231 446/29/231
f 436/30/231 435/28/231 446/30/231
f 423/31/231 422/29/231 446/31/231
f 437/32/231 436/30/231 446/32/231
f 424/33/231 423/31/231 446/33/231
f 438/5/231 437/32/231 446/5/231
f 425/7/231 424/33/231 446/7/231
f 439/4/231 438/5/231 446/4/231
f 371/28/265 370/26/265 474/26/265 472/28/265
f 358/29/266 357/27/266 473/27/266 471/29/266
f 372/30/267 371/28/267 472/28/267 470/30/267
f 359/31/268 358/29/268 471/29/268 469/31/268
f 373/32/269 372/30/269 470/30/269 468/32/269
f 360/33/270 359/31/270 469/31/270 467/33/270
f 374/5/271 373/32/271 468/32/271 466/5/271
f 361/7/272 360/33/272 467/33/272 465/7/272
f 375/4/273 374/5/273 466/5/273 464/4/273
f 362/6/274 361/7/274 465/7/274 463/6/274
f 376/8/275 375/4/275 464/4/275 462/8/275
f 363/9/276 362/6/276 463/6/276 461/9/276
f 377/10/277 376/8/277 462/8/277 460/10/277
f 364/11/278 363/9/278 461/9/278 459/11/278
f 351/12/279 350/13/279 458/13/279 457/12/279
f 378/14/280 377/10/280 460/10/280 456/14/280
f 365/15/281 364/11/281 459/11/281 455/15/281
f 352/16/282 351/12/282 457/12/282 454/16/282
f 379/17/283 378/14/283 456/14/283 453/17/283
f 366/18/284 365/15/284 455/15/284 452/18/284
f 353/19/285 352/16/285 454/16/285 451/19/285
f 380/20/286 379/17/286 453/17/286 450/20/286
f 367/21/287 366/18/287 452/18/287 449/21/287
f 354/22/288 353/19/288 451/19/288 448/22/288
f 381/23/289 380/20/289 450/20/289 447/23/289
f 368/24/290 367/21/290 449/21/290 478/24/290
f 355/3/291 354/22/291 448/22/291 477/3/291
f 350/13/292 381/23/292 447/23/292 458/13/292
f 369/25/293 368/24/293 478/24/293 475/25/293
f 370/26/294 369/25/294 475/25/294 474/26/294
f 356/2/295 355/3/295 477/3/295 476/2/295
