# Blender 5.0.1
# www.blender.org
mtllib i02_head_right_forehead_visual.mtl
o i02_head_right_forehead_visual.001
v 0.109815 -0.028444 -0.028131
v 0.025672 -0.032133 -0.131492
v 0.083375 -0.032133 -0.156741
v 0.106296 -0.032133 -0.138384
v 0.102682 -0.032133 -0.144017
v 0.028327 -0.032133 -0.138384
v 0.097416 -0.032133 -0.149371
v 0.051248 -0.032133 -0.156741
v 0.090812 -0.032133 -0.153747
v 0.025672 -0.028444 -0.028131
v 0.067311 -0.032133 -0.158420
v 0.075564 -0.032133 -0.158266
v 0.059059 -0.032133 -0.158266
v 0.109815 -0.032133 -0.131492
v 0.031941 -0.032133 -0.144017
v 0.106392 -0.018285 -0.129604
v 0.109815 -0.017072 -0.122969
v 0.090812 -0.021186 -0.145478
v 0.097222 -0.020382 -0.141079
v 0.083499 -0.021784 -0.148746
v 0.075564 -0.022152 -0.150759
v 0.067311 -0.022276 -0.151439
v 0.025672 -0.022509 0.040789
v 0.025672 -0.012722 0.098991
v 0.025672 -0.002394 0.005641
v 0.032140 -0.019403 -0.135719
v 0.025672 0.022631 0.105904
v 0.059059 -0.022152 -0.150759
v 0.051124 -0.021784 -0.148746
v 0.037400 -0.020382 -0.141079
v 0.102483 -0.019403 -0.135719
v 0.109815 -0.002394 0.005640
v 0.043810 -0.021186 -0.145478
v 0.109815 0.005109 0.158420
v 0.025672 0.005109 0.158420
v 0.025672 -0.017072 -0.122968
v 0.109815 0.022631 0.105907
v 0.025672 0.022631 0.158420
v 0.109815 -0.012722 0.098991
v -0.013513 0.059393 0.125603
v -0.011883 0.059393 0.124731
v -0.008274 0.059393 0.142875
v -0.003035 0.059393 0.125603
v -0.016987 0.059393 0.129835
v -0.011883 0.059393 0.142157
v -0.010114 0.059393 0.142693
v -0.000433 0.059393 0.128205
v -0.001606 0.059393 0.126776
v -0.000433 0.059393 0.138683
v -0.003035 0.059393 0.141285
v -0.001606 0.059393 0.140112
v 0.001156 0.059393 0.133444
v 0.000439 0.059393 0.137053
v 0.000975 0.059393 0.135284
v -0.017523 0.059393 0.131604
v -0.004665 0.059393 0.124731
v -0.006434 0.059393 0.124195
v -0.016987 0.059393 0.137053
v -0.014942 0.059393 0.126776
v -0.016115 0.059393 0.128205
v -0.006434 0.059393 0.142693
v -0.004665 0.059393 0.142157
v 0.001157 0.022631 0.133444
v 0.000975 0.022631 0.135284
v 0.000439 0.022631 0.137053
v -0.000433 0.022631 0.138683
v -0.000433 0.022631 0.128205
v -0.001606 0.022631 0.126776
v -0.001606 0.022631 0.140112
v -0.003035 0.022631 0.141285
v -0.003035 0.022631 0.125603
v -0.004665 0.022631 0.124732
v -0.004665 0.022631 0.142157
v -0.006434 0.022631 0.124195
v -0.006434 0.022631 0.142693
v -0.014942 0.022631 0.126776
v -0.016115 0.022631 0.128205
v -0.016987 0.022631 0.129835
v -0.017523 0.022631 0.131604
v -0.016987 0.022631 0.137053
v -0.011883 0.022631 0.142157
v -0.010114 0.022631 0.142693
v -0.008274 0.022631 0.142875
v -0.013513 0.022631 0.141285
v -0.013513 0.059393 0.141285
v -0.010114 0.022631 0.124195
v -0.008274 0.022631 0.124014
v -0.008274 0.059393 0.124014
v -0.010114 0.059393 0.124195
v 0.000439 0.022631 0.129835
v 0.000975 0.022631 0.131604
v 0.000975 0.059393 0.131604
v 0.000439 0.059393 0.129835
v -0.014942 0.022631 0.140112
v -0.016115 0.022631 0.138683
v -0.016115 0.059393 0.138683
v -0.014942 0.059393 0.140112
v -0.017523 0.022631 0.135284
v -0.017705 0.022631 0.133444
v -0.017705 0.059393 0.133444
v -0.017523 0.059393 0.135284
v -0.013513 0.022631 0.125603
v -0.011883 0.022631 0.124732
v 0.109815 0.022631 0.158420
v 0.011112 0.059393 0.158420
v 0.011112 0.059393 0.105907
v 0.109815 -0.022509 0.040789
v 0.043810 -0.032133 -0.153747
v 0.028231 -0.018285 -0.129604
v 0.037206 -0.032133 -0.149371
v 0.109906 -0.055720 -0.048554
v 0.025684 -0.059393 -0.131492
v 0.083348 -0.059393 -0.156741
v 0.106253 -0.059393 -0.138384
v 0.102641 -0.059393 -0.144017
v 0.028338 -0.059393 -0.138384
v 0.097380 -0.059393 -0.149371
v 0.051243 -0.059393 -0.156741
v 0.090780 -0.059393 -0.153747
v 0.025821 -0.055720 -0.048554
v 0.067295 -0.059393 -0.158420
v 0.075542 -0.059393 -0.158266
v 0.059049 -0.059393 -0.158266
v 0.109770 -0.059393 -0.131492
v 0.031949 -0.059393 -0.144017
v 0.043810 -0.059393 -0.153747
v 0.037211 -0.059393 -0.149371
v -0.109906 0.059393 0.105907
v -0.092941 0.059393 0.124013
v -0.094781 0.059393 0.124195
v -0.096550 0.059393 0.124731
v -0.094781 0.059393 0.142693
v -0.092941 0.059393 0.142874
v -0.109906 0.059393 0.158420
v -0.096550 0.059393 0.142157
v -0.098181 0.059393 0.125603
v -0.099610 0.059393 0.126776
v -0.098181 0.059393 0.141285
v -0.099610 0.059393 0.140112
v -0.100782 0.059393 0.128205
v -0.101654 0.059393 0.129835
v -0.100782 0.059393 0.138683
v -0.101654 0.059393 0.137053
v -0.102191 0.059393 0.131604
v -0.102372 0.059393 0.133444
v -0.102191 0.059393 0.135284
v -0.109906 0.022631 0.158420
v -0.092941 0.022631 0.142874
v -0.094781 0.022631 0.142693
v -0.096550 0.022631 0.142157
v -0.094781 0.022631 0.124195
v -0.092941 0.022631 0.124013
v -0.109906 0.022631 0.105907
v -0.096550 0.022631 0.124731
v -0.098181 0.022631 0.141285
v -0.099610 0.022631 0.140112
v -0.098181 0.022631 0.125603
v -0.099610 0.022631 0.126776
v -0.100782 0.022631 0.138683
v -0.101654 0.022631 0.137053
v -0.100782 0.022631 0.128205
v -0.101654 0.022631 0.129835
v -0.102191 0.022631 0.135284
v -0.102372 0.022631 0.133444
v -0.102191 0.022631 0.131604
v -0.083692 0.059393 0.131604
v -0.083511 0.059393 0.133444
v -0.083511 0.022631 0.133444
v -0.083692 0.022631 0.131604
v -0.068259 0.059393 0.124731
v -0.066490 0.059393 0.124195
v -0.066490 0.022631 0.124195
v -0.068259 0.022631 0.124731
v -0.091102 0.059393 0.124195
v -0.089332 0.059393 0.124731
v -0.089332 0.022631 0.124731
v -0.091102 0.022631 0.124195
v -0.072491 0.059393 0.128205
v -0.071318 0.059393 0.126776
v -0.071318 0.022631 0.126776
v -0.072491 0.022631 0.128205
v -0.041598 0.059393 0.125603
v -0.039967 0.059393 0.124731
v -0.039967 0.022631 0.124732
v -0.041598 0.022631 0.125603
v -0.045608 0.059393 0.135284
v -0.045789 0.059393 0.133444
v -0.045789 0.022631 0.133444
v -0.045608 0.022631 0.135284
v -0.043027 0.059393 0.140112
v -0.044199 0.059393 0.138683
v -0.044199 0.022631 0.138683
v -0.043027 0.022631 0.140112
v -0.027646 0.059393 0.129835
v -0.027109 0.059393 0.131604
v -0.027109 0.022631 0.131604
v -0.027646 0.022631 0.129835
v -0.038198 0.059393 0.124195
v -0.036358 0.059393 0.124014
v -0.036358 0.022631 0.124014
v -0.038198 0.022631 0.124195
v -0.041598 0.059393 0.141285
v -0.041598 0.022631 0.141285
v -0.091102 0.022631 0.142693
v -0.064650 0.022631 0.142874
v -0.066490 0.022631 0.142693
v -0.068259 0.022631 0.142157
v -0.089332 0.022631 0.142157
v -0.087702 0.022631 0.141285
v -0.069889 0.022631 0.141285
v -0.071318 0.022631 0.140112
v -0.086273 0.022631 0.140112
v -0.072491 0.022631 0.138683
v -0.085100 0.022631 0.138683
v -0.073362 0.022631 0.137053
v -0.084229 0.022631 0.137053
v -0.073899 0.022631 0.135284
v -0.083692 0.022631 0.135284
v -0.074080 0.022631 0.133444
v -0.073899 0.022631 0.131604
v -0.073362 0.022631 0.129835
v -0.084229 0.022631 0.129835
v -0.085100 0.022631 0.128205
v -0.086273 0.022631 0.126776
v -0.069889 0.022631 0.125603
v -0.087702 0.022631 0.125603
v -0.064650 0.022631 0.124013
v -0.062810 0.022631 0.142693
v -0.036358 0.022631 0.142875
v -0.038198 0.022631 0.142693
v -0.039967 0.022631 0.142157
v -0.061041 0.022631 0.142157
v -0.059411 0.022631 0.141285
v -0.057981 0.022631 0.140112
v -0.056809 0.022631 0.138683
v -0.045071 0.022631 0.137053
v -0.055937 0.022631 0.137053
v -0.055401 0.022631 0.135284
v -0.055219 0.022631 0.133444
v -0.045608 0.022631 0.131604
v -0.055401 0.022631 0.131604
v -0.045071 0.022631 0.129835
v -0.055937 0.022631 0.129835
v -0.044199 0.022631 0.128205
v -0.056809 0.022631 0.128205
v -0.043027 0.022631 0.126776
v -0.057981 0.022631 0.126776
v -0.059411 0.022631 0.125603
v -0.061041 0.022631 0.124731
v -0.062810 0.022631 0.124195
v -0.034519 0.022631 0.142693
v -0.034518 0.022631 0.124195
v -0.032749 0.022631 0.142157
v -0.032749 0.022631 0.124732
v -0.031119 0.022631 0.125603
v -0.031119 0.022631 0.141285
v -0.029690 0.022631 0.140112
v -0.029690 0.022631 0.126776
v -0.028517 0.022631 0.128205
v -0.028517 0.022631 0.138683
v -0.027646 0.022631 0.137053
v -0.027109 0.022631 0.135284
v -0.026928 0.022631 0.133444
v -0.084229 0.059393 0.129835
v -0.057981 0.059393 0.126776
v -0.056809 0.059393 0.128205
v -0.032749 0.059393 0.142157
v -0.034519 0.059393 0.142693
v -0.044199 0.059393 0.128205
v -0.043027 0.059393 0.126776
v -0.066490 0.059393 0.142693
v -0.068259 0.059393 0.142157
v -0.045071 0.059393 0.137053
v -0.034519 0.059393 0.124195
v -0.032749 0.059393 0.124731
v -0.083692 0.059393 0.135284
v -0.084229 0.059393 0.137053
v -0.045608 0.059393 0.131604
v -0.086273 0.059393 0.140112
v -0.087702 0.059393 0.141285
v -0.027109 0.059393 0.135284
v -0.027646 0.059393 0.137053
v -0.026928 0.059393 0.133444
v -0.074080 0.059393 0.133444
v -0.073899 0.059393 0.131604
v -0.055937 0.059393 0.129835
v -0.055401 0.059393 0.131604
v -0.087702 0.059393 0.125603
v -0.086273 0.059393 0.126776
v -0.055937 0.059393 0.137053
v -0.056809 0.059393 0.138683
v -0.059411 0.059393 0.125603
v -0.029690 0.059393 0.140112
v -0.031119 0.059393 0.141285
v -0.062810 0.059393 0.142693
v -0.064650 0.059393 0.142874
v -0.072491 0.059393 0.138683
v -0.073363 0.059393 0.137053
v -0.091102 0.059393 0.142693
v -0.085100 0.059393 0.138683
v -0.064650 0.059393 0.124013
v -0.089332 0.059393 0.142157
v -0.055219 0.059393 0.133444
v -0.085100 0.059393 0.128205
v -0.028517 0.059393 0.138683
v -0.059411 0.059393 0.141285
v -0.061041 0.059393 0.142157
v -0.062810 0.059393 0.124195
v -0.061041 0.059393 0.124731
v -0.073899 0.059393 0.135284
v -0.029690 0.059393 0.126776
v -0.028517 0.059393 0.128205
v -0.057981 0.059393 0.140112
v -0.073363 0.059393 0.129835
v -0.038198 0.059393 0.142693
v -0.039967 0.059393 0.142157
v -0.045071 0.059393 0.129835
v -0.031119 0.059393 0.125603
v -0.069889 0.059393 0.141285
v -0.036358 0.059393 0.142875
v -0.071318 0.059393 0.140112
v -0.055401 0.059393 0.135284
v -0.069889 0.059393 0.125603
v 0.011112 0.046319 0.158420
v 0.011112 0.046319 0.105907
v 0.109815 0.046319 0.158420
v 0.109815 0.046319 0.105907
v 0.067864 -0.041831 -0.071379
v 0.051181 -0.058283 -0.115862
v 0.048383 -0.058173 -0.112540
v 0.046287 -0.058048 -0.108735
v 0.044974 -0.057912 -0.104595
v 0.044494 -0.057771 -0.100278
v 0.044866 -0.057631 -0.095951
v 0.046076 -0.057496 -0.091780
v 0.048077 -0.057371 -0.087924
v 0.050792 -0.057263 -0.084533
v 0.054116 -0.057173 -0.081736
v 0.057923 -0.057107 -0.079641
v 0.062065 -0.057067 -0.078329
v 0.066384 -0.057054 -0.077849
v 0.070714 -0.057068 -0.078221
v 0.074888 -0.057110 -0.079430
v 0.078745 -0.057177 -0.081430
v 0.082138 -0.057268 -0.084143
v 0.084936 -0.057377 -0.087466
v 0.087032 -0.057502 -0.091271
v 0.088345 -0.057638 -0.095411
v 0.088825 -0.057779 -0.099728
v 0.088452 -0.057919 -0.104055
v 0.087243 -0.058054 -0.108226
v 0.085242 -0.058179 -0.112082
v 0.082527 -0.058288 -0.115473
v 0.079202 -0.058377 -0.118270
v 0.075396 -0.058443 -0.120365
v 0.071253 -0.058483 -0.121677
v 0.066934 -0.058496 -0.122156
v 0.062605 -0.058482 -0.121784
v 0.058431 -0.058440 -0.120575
v 0.054574 -0.058373 -0.118576
v 0.051181 -0.043286 -0.116361
v 0.048383 -0.043176 -0.113038
v 0.046287 -0.043051 -0.109233
v 0.044974 -0.042916 -0.105093
v 0.044494 -0.042775 -0.100776
v 0.044866 -0.042634 -0.096449
v 0.046076 -0.042499 -0.092278
v 0.048077 -0.042375 -0.088422
v 0.050792 -0.042266 -0.085031
v 0.054116 -0.042177 -0.082234
v 0.057923 -0.042111 -0.080139
v 0.062065 -0.042070 -0.078827
v 0.066384 -0.042057 -0.078347
v 0.070714 -0.042072 -0.078719
v 0.074888 -0.042114 -0.079928
v 0.078745 -0.042181 -0.081928
v 0.082138 -0.042271 -0.084641
v 0.084936 -0.042381 -0.087964
v 0.087032 -0.042506 -0.091769
v 0.088345 -0.042641 -0.095909
v 0.088825 -0.042782 -0.100226
v 0.088452 -0.042923 -0.104553
v 0.087243 -0.043058 -0.108724
v 0.085242 -0.043182 -0.112580
v 0.082527 -0.043291 -0.115971
v 0.079202 -0.043380 -0.118768
v 0.075396 -0.043446 -0.120863
v 0.071253 -0.043486 -0.122175
v 0.066934 -0.043500 -0.122654
v 0.062605 -0.043485 -0.122282
v 0.058431 -0.043443 -0.121074
v 0.054574 -0.043376 -0.119074
v 0.046871 -0.038051 -0.120954
v 0.043294 -0.037911 -0.116707
v 0.040615 -0.037751 -0.111843
v 0.038936 -0.037578 -0.106550
v 0.038323 -0.037398 -0.101031
v 0.038799 -0.037218 -0.095500
v 0.040346 -0.037046 -0.090167
v 0.042903 -0.036887 -0.085238
v 0.046374 -0.036748 -0.080902
v 0.050624 -0.036634 -0.077327
v 0.055491 -0.036549 -0.074649
v 0.060786 -0.036498 -0.072971
v 0.066308 -0.036481 -0.072358
v 0.071843 -0.036499 -0.072834
v 0.077178 -0.036553 -0.074379
v 0.082110 -0.036639 -0.076936
v 0.086447 -0.036754 -0.080405
v 0.090025 -0.036894 -0.084652
v 0.092704 -0.037054 -0.089516
v 0.094382 -0.037227 -0.094809
v 0.094996 -0.037407 -0.100327
v 0.094520 -0.037587 -0.105859
v 0.092973 -0.037760 -0.111192
v 0.090415 -0.037919 -0.116121
v 0.086945 -0.038058 -0.120457
v 0.082695 -0.038172 -0.124032
v 0.077828 -0.038256 -0.126710
v 0.072532 -0.038308 -0.128388
v 0.067011 -0.038325 -0.129001
v 0.061476 -0.038306 -0.128525
v 0.056140 -0.038253 -0.126980
v 0.051209 -0.038167 -0.124423
v 0.054944 -0.027969 -0.113009
v 0.052826 -0.027886 -0.110494
v 0.051240 -0.027791 -0.107615
v 0.050246 -0.027689 -0.104481
v 0.049883 -0.027582 -0.101214
v 0.050165 -0.027476 -0.097939
v 0.051081 -0.027373 -0.094782
v 0.052595 -0.027279 -0.091864
v 0.054650 -0.027197 -0.089297
v 0.057166 -0.027129 -0.087180
v 0.060047 -0.027079 -0.085595
v 0.063182 -0.027049 -0.084601
v 0.066451 -0.027039 -0.084239
v 0.069728 -0.027050 -0.084520
v 0.072887 -0.027082 -0.085435
v 0.075806 -0.027132 -0.086948
v 0.078375 -0.027201 -0.089002
v 0.080492 -0.027284 -0.091517
v 0.082079 -0.027378 -0.094397
v 0.083072 -0.027481 -0.097530
v 0.083435 -0.027588 -0.100797
v 0.083154 -0.027694 -0.104072
v 0.082238 -0.027796 -0.107230
v 0.080724 -0.027890 -0.110148
v 0.078669 -0.027973 -0.112714
v 0.076153 -0.028040 -0.114831
v 0.073272 -0.028090 -0.116417
v 0.070136 -0.028121 -0.117410
v 0.066868 -0.028131 -0.117773
v 0.063591 -0.028120 -0.117491
v 0.060432 -0.028088 -0.116576
v 0.057512 -0.028037 -0.115063
v 0.066659 -0.027585 -0.101006
v 0.051289 -0.041892 -0.124176
v 0.038471 -0.041128 -0.100906
v 0.089903 -0.040627 -0.084612
v 0.056195 -0.041978 -0.126719
v 0.039081 -0.041307 -0.106395
v 0.086344 -0.040487 -0.080386
v 0.061503 -0.042031 -0.128256
v 0.040750 -0.041479 -0.111661
v 0.082029 -0.040372 -0.076936
v 0.067009 -0.042050 -0.128729
v 0.043416 -0.041638 -0.116499
v 0.046974 -0.041778 -0.120725
v 0.077124 -0.040287 -0.074393
v 0.072502 -0.042033 -0.128120
v 0.071816 -0.040234 -0.072855
v 0.077770 -0.041981 -0.126451
v 0.066310 -0.040215 -0.072382
v 0.082611 -0.041897 -0.123787
v 0.060817 -0.040232 -0.072992
v 0.086839 -0.041784 -0.120230
v 0.055549 -0.040283 -0.074661
v 0.090292 -0.041646 -0.115917
v 0.050708 -0.040367 -0.077325
v 0.092836 -0.041488 -0.111014
v 0.046480 -0.040481 -0.080881
v 0.094374 -0.041316 -0.105709
v 0.043027 -0.040619 -0.085194
v 0.094848 -0.041137 -0.100205
v 0.094238 -0.040958 -0.094716
v 0.040483 -0.040777 -0.090098
v 0.038944 -0.040949 -0.095403
v 0.092568 -0.040786 -0.089450
vn -0.0000 0.9837 -0.1798
vn 0.1917 -0.0002 -0.9815
vn 0.7131 -0.0010 -0.7011
vn -1.0000 -0.0033 0.0009
vn -0.9332 -0.0004 -0.3594
vn 0.5525 -0.0007 -0.8335
vn -0.9111 0.2162 -0.3510
vn 0.4714 -0.0000 0.8819
vn -0.0187 -0.0000 -0.9998
vn -0.0000 0.9936 -0.1134
vn -0.8418 -0.0003 -0.5398
vn 0.0001 0.9837 -0.1799
vn 0.8571 0.2715 -0.4377
vn 0.8342 0.2716 -0.4800
vn 0.4674 0.5329 -0.7054
vn 0.4365 0.5235 -0.7317
vn 0.2915 0.5826 -0.7587
vn 0.3058 0.5739 -0.7597
vn 0.1702 0.6011 -0.7808
vn 0.1542 0.5939 -0.7897
vn 0.0187 -0.0000 -0.9998
vn 0.0584 0.5770 -0.8147
vn 0.0149 0.6010 -0.7991
vn -0.0000 0.9702 -0.2422
vn 0.8418 -0.0013 -0.5398
vn -0.0000 -0.9963 0.0858
vn -0.1917 0.0001 -0.9815
vn -0.3735 -0.0000 -0.9276
vn -0.0000 -0.9862 0.1658
vn -1.0000 -0.0000 -0.0000
vn -0.6457 0.4240 -0.6350
vn -0.7907 0.3430 -0.5072
vn -0.7617 0.3432 -0.5496
vn 0.8907 -0.0014 -0.4547
vn -0.0000 0.9837 -0.1797
vn -0.5832 0.4748 -0.6592
vn -0.5525 -0.0000 -0.8335
vn 0.5832 0.4748 -0.6592
vn 0.6457 0.4240 -0.6350
vn 0.7617 0.3432 -0.5496
vn 0.7907 0.3430 -0.5072
vn -0.8965 0.2182 -0.3856
vn -0.0000 -0.9578 0.2874
vn -0.0149 0.6010 -0.7991
vn -0.0584 0.5770 -0.8147
vn 1.0000 -0.0000 -0.0000
vn -0.8819 -0.0000 -0.4714
vn 0.8819 -0.0000 0.4714
vn -0.0980 -0.0000 -0.9952
vn -0.0980 -0.0000 0.9952
vn 0.9569 -0.0000 -0.2903
vn -0.6344 -0.0000 0.7730
vn -0.8819 -0.0000 0.4714
vn 0.6344 -0.0000 0.7730
vn 0.2903 -0.0000 0.9569
vn 0.9569 -0.0000 0.2903
vn -0.4714 -0.0000 -0.8819
vn 0.4714 -0.0000 -0.8819
vn 0.0980 -0.0000 -0.9952
vn -0.4714 -0.0000 0.8819
vn -0.6344 -0.0000 -0.7730
vn -0.9952 -0.0000 0.0980
vn 0.7730 -0.0000 0.6344
vn -0.2903 -0.0000 -0.9569
vn 0.8819 -0.0000 -0.4714
vn -0.0000 -0.0000 1.0000
vn 0.9952 -0.0000 0.0980
vn -0.9569 -0.0000 -0.2903
vn 0.0980 -0.0000 0.9952
vn 0.7730 -0.0000 -0.6344
vn 0.9952 -0.0000 -0.0980
vn -0.2903 -0.0000 0.9569
vn -0.7730 -0.0000 -0.6344
vn -0.7730 -0.0000 0.6344
vn 0.2903 -0.0000 -0.9569
vn -0.9952 -0.0000 -0.0980
vn -0.9569 -0.0000 0.2903
vn -0.0000 -0.0000 -1.0000
vn 0.6344 -0.0000 -0.7730
vn -0.7131 -0.0002 -0.7011
vn 0.3735 -0.0004 -0.9276
vn -0.1542 0.5939 -0.7897
vn -0.1702 0.6011 -0.7808
vn -0.3058 0.5739 -0.7597
vn -0.2915 0.5826 -0.7587
vn -0.4365 0.5235 -0.7317
vn -0.4674 0.5329 -0.7054
vn -0.0000 -1.0000 -0.0000
vn -0.0867 -0.9953 0.0442
vn -0.0088 -0.9992 0.0391
vn 0.1137 -0.9926 0.0438
vn -0.0000 -0.5993 0.8005
vn 1.0000 0.0011 -0.0008
vn -0.0000 1.0000 -0.0000
vn -0.2902 -0.0000 -0.9570
vn -0.0000 0.0001 -1.0000
vn 0.0108 -0.9992 0.0388
vn -0.0106 -0.9992 0.0377
vn 0.0137 -0.9992 0.0371
vn -0.0130 -0.9993 0.0361
vn -0.0074 -0.9991 0.0406
vn 0.0071 -0.9991 0.0421
vn -0.0045 -0.9990 0.0450
vn -0.0060 -0.9991 0.0424
vn -0.0000 -0.9985 0.0552
vn 0.0055 -0.9990 0.0442
vn 0.0037 -0.9992 0.0408
vn -0.0024 -0.9988 0.0493
vn 0.0011 -0.9986 0.0525
vn 0.0037 -0.9989 0.0472
vn 0.0105 -0.9993 0.0360
vn 0.0186 -0.9992 0.0346
vn 0.0081 -0.9993 0.0373
vn -0.0173 -0.9993 0.0340
vn 0.0064 -0.9992 0.0384
vn -0.0160 -0.9993 0.0339
vn 0.0050 -0.9992 0.0395
vn -0.0018 -0.9992 0.0409
vn 0.0037 -0.9992 0.0410
vn -0.0000 -0.9990 0.0455
vn 0.0145 -0.9993 0.0342
vn -0.0114 -0.9993 0.0357
vn 0.0023 -0.9991 0.0424
vn 0.0005 -0.9990 0.0448
vn -0.0089 -0.9993 0.0369
vn -0.0017 -0.9991 0.0431
vn -0.0072 -0.9993 0.0378
vn -0.0046 -0.9992 0.0398
vn -0.0058 -0.9992 0.0388
vn -0.0033 -0.9991 0.0412
vn 0.0088 -0.9991 0.0404
vn 0.9597 0.0301 -0.2793
vn -0.6439 0.0254 0.7647
vn 0.1104 -0.0330 -0.9933
vn -0.4823 0.0291 0.8755
vn -0.0857 -0.0331 -0.9958
vn -0.3021 0.0316 0.9527
vn -0.2784 -0.0319 -0.9599
vn 0.7651 0.0214 0.6436
vn -0.1104 0.0330 0.9933
vn -0.4604 -0.0295 -0.8872
vn 0.8760 0.0160 0.4821
vn 0.0857 0.0331 0.9958
vn -0.6248 -0.0259 -0.7804
vn 0.9533 0.0100 0.3020
vn 0.2784 0.0319 0.9599
vn -0.7651 -0.0214 -0.6436
vn 0.9939 0.0037 0.1103
vn 0.4604 0.0295 0.8872
vn -0.8760 -0.0160 -0.4820
vn 0.9963 -0.0028 -0.0856
vn 0.6247 0.0259 0.7804
vn -0.9533 -0.0100 -0.3020
vn 0.9605 -0.0092 -0.2782
vn -0.9939 -0.0037 -0.1103
vn 0.8877 -0.0153 -0.4602
vn -0.9963 0.0028 0.0856
vn 0.7808 -0.0207 -0.6244
vn -0.9605 0.0092 0.2782
vn 0.6439 -0.0254 -0.7647
vn -0.8877 0.0153 0.4602
vn 0.4823 -0.0291 -0.8755
vn -0.7808 0.0207 0.6244
vn 0.3021 -0.0316 -0.9527
vn 0.4177 -0.7765 -0.4717
vn -0.9931 0.0357 -0.1115
vn 0.8870 0.0241 -0.4611
vn -0.9956 0.0422 0.0843
vn 0.7802 0.0186 -0.6252
vn -0.9597 0.0486 0.2767
vn 0.6435 0.0140 -0.7653
vn -0.8870 0.0546 0.4585
vn 0.4820 0.0103 -0.8761
vn -0.7802 0.0601 0.6226
vn 0.3019 0.0077 -0.9533
vn -0.6434 0.0647 0.7628
vn 0.1103 0.0064 -0.9939
vn -0.4819 0.0684 0.8736
vn -0.0856 0.0063 -0.9963
vn -0.3019 0.0710 0.9507
vn -0.2782 0.0075 -0.9605
vn 0.7645 0.0607 0.6418
vn -0.1102 0.0723 0.9913
vn -0.4601 0.0099 -0.8878
vn 0.8753 0.0553 0.4804
vn 0.0856 0.0724 0.9937
vn -0.6243 0.0134 -0.7811
vn 0.9525 0.0494 0.3005
vn 0.2782 0.0712 0.9579
vn -0.7645 0.0180 -0.6444
vn 0.9931 0.0430 0.1089
vn 0.4601 0.0688 0.8852
vn -0.8753 0.0233 -0.4830
vn 0.9956 0.0365 -0.0868
vn 0.6243 0.0652 0.7785
vn -0.9525 0.0293 -0.3030
vn -0.0006 -0.9995 0.0325
vn -0.5768 -0.7501 0.3235
vn 0.3127 -0.7789 -0.5437
vn -0.5074 -0.7466 0.4302
vn 0.1957 -0.7805 -0.5938
vn -0.4186 -0.7437 0.5213
vn 0.0712 -0.7813 -0.6201
vn -0.3136 -0.7413 0.5933
vn -0.0560 -0.7813 -0.6216
vn -0.1967 -0.7397 0.6435
vn -0.1811 -0.7805 -0.5983
vn 0.4966 -0.7465 0.4428
vn -0.0721 -0.7389 0.6699
vn -0.2993 -0.7789 -0.5511
vn 0.5686 -0.7500 0.3379
vn 0.0552 -0.7389 0.6716
vn -0.4059 -0.7766 -0.4818
vn 0.6188 -0.7539 0.2209
vn 0.1804 -0.7397 0.6483
vn -0.4970 -0.7737 -0.3930
vn 0.6451 -0.7580 0.0964
vn 0.2987 -0.7413 0.6011
vn -0.5690 -0.7702 -0.2881
vn 0.6467 -0.7621 -0.0309
vn 0.4054 -0.7436 0.5317
vn -0.6192 -0.7663 -0.1713
vn 0.6233 -0.7662 -0.1560
vn -0.6456 -0.7622 -0.0469
vn 0.5760 -0.7701 -0.2741
vn -0.6472 -0.7581 0.0803
vn 0.5066 -0.7736 -0.3807
vn -0.6240 -0.7540 0.2054
vn 0.2357 0.9597 -0.1533
vn -0.0005 -0.9995 0.0325
vn -0.2634 0.9646 -0.0087
vn 0.2074 0.9583 -0.1968
vn -0.2539 0.9663 0.0423
vn 0.1711 0.9571 -0.2340
vn -0.2346 0.9679 0.0906
vn 0.1283 0.9561 -0.2633
vn -0.2063 0.9693 0.1341
vn 0.0806 0.9555 -0.2838
vn -0.1700 0.9705 0.1712
vn 0.0298 0.9552 -0.2946
vn -0.1272 0.9714 0.2006
vn -0.0222 0.9552 -0.2952
vn -0.0795 0.9720 0.2210
vn -0.0732 0.9555 -0.2857
vn 0.2032 0.9692 0.1391
vn -0.0287 0.9724 0.2318
vn -0.1215 0.9562 -0.2665
vn 0.2326 0.9678 0.0963
vn 0.0233 0.9723 0.2324
vn -0.1650 0.9571 -0.2382
vn 0.2530 0.9662 0.0486
vn 0.0743 0.9720 0.2229
vn -0.2022 0.9583 -0.2019
vn 0.2638 0.9646 -0.0021
vn 0.1225 0.9714 0.2036
vn -0.2316 0.9597 -0.1591
vn 0.2645 0.9629 -0.0540
vn 0.1660 0.9704 0.1753
vn -0.2520 0.9613 -0.1114
vn -0.2628 0.9629 -0.0606
vn 0.2550 0.9612 -0.1051
vt 0.000000 0.000000
vt 0.971731 0.341844
vt 0.949553 0.383337
vt 0.514612 0.296822
vt 0.510000 0.250000
vt 0.919706 0.080294
vt 0.949553 0.116663
vt 0.528269 0.341844
vt 0.883337 0.050447
vt 0.550447 0.383337
vt 0.841844 0.028269
vt 0.796822 0.485388
vt 0.750000 0.490000
vt 0.580295 0.419706
vt 0.796822 0.014612
vt 0.841844 0.471731
vt 0.616663 0.449553
vt 0.750000 0.010000
vt 0.883337 0.449553
vt 0.658156 0.471731
vt 0.703178 0.014612
vt 0.919706 0.419706
vt 0.703179 0.485389
vt 0.658156 0.028269
vt 0.616663 0.050447
vt 0.580294 0.080294
vt 0.985388 0.296822
vt 0.550447 0.116663
vt 0.990000 0.250000
vt 0.528269 0.158156
vt 0.985388 0.203178
vt 0.514611 0.203179
vt 0.971731 0.158156
s 0
f 17/1/1 31/1/1 21/1/1
f 3/1/2 113/1/2 122/1/2 12/1/2
f 5/1/3 115/1/3 117/1/3 7/1/3
f 10/1/4 2/1/4 112/1/4 120/1/4
f 2/1/5 6/1/5 116/1/5 112/1/5
f 7/1/6 117/1/6 119/1/6 9/1/6
f 109/1/7 6/1/7 2/1/7
f 40/1/8 103/1/8 41/1/8
f 28/1/1 26/1/1 36/1/1
f 13/1/9 11/1/9 121/1/9 123/1/9
f 36/1/10 25/1/10 17/1/10
f 36/1/1 22/1/1 28/1/1
f 6/1/11 15/1/11 125/1/11 116/1/11
f 22/1/1 17/1/1 21/1/1
f 36/1/1 26/1/1 109/1/1
f 16/1/12 31/1/12 17/1/12
f 16/1/13 14/1/13 4/1/13
f 16/1/14 17/1/14 14/1/14
f 18/1/15 7/1/15 9/1/15
f 18/1/16 19/1/16 7/1/16
f 18/1/17 3/1/17 20/1/17
f 18/1/18 9/1/18 3/1/18
f 3/1/19 21/1/19 20/1/19
f 21/1/20 3/1/20 12/1/20
f 12/1/21 122/1/21 121/1/21 11/1/21
f 21/1/22 11/1/22 22/1/22
f 21/1/23 12/1/23 11/1/23
f 25/1/24 27/1/24 32/1/24
f 36/1/1 17/1/1 22/1/1
f 4/1/25 114/1/25 115/1/25 5/1/25
f 25/1/10 32/1/10 17/1/10
f 1/1/26 107/1/26 23/1/26
f 8/1/27 13/1/27 123/1/27 118/1/27
f 108/1/28 8/1/28 118/1/28 126/1/28
f 39/1/29 24/1/29 23/1/29
f 10/1/26 1/1/26 23/1/26
f 25/1/30 10/1/30 23/1/30
f 36/1/30 2/1/30 10/1/30
f 26/1/31 110/1/31 15/1/31
f 26/1/32 15/1/32 6/1/32
f 28/1/1 33/1/1 26/1/1
f 6/1/33 109/1/33 26/1/33
f 107/1/29 39/1/29 23/1/29
f 27/1/24 37/1/24 32/1/24
f 14/1/34 124/1/34 114/1/34 4/1/34
f 21/1/35 18/1/35 20/1/35
f 18/1/1 31/1/1 19/1/1
f 26/1/36 30/1/36 110/1/36
f 24/1/30 35/1/30 27/1/30
f 110/1/37 108/1/37 126/1/37 127/1/37
f 21/1/1 31/1/1 18/1/1
f 27/1/30 23/1/30 24/1/30
f 27/1/30 25/1/30 23/1/30
f 28/1/1 29/1/1 33/1/1
f 33/1/1 30/1/1 26/1/1
f 31/1/38 7/1/38 19/1/38
f 31/1/39 5/1/39 7/1/39
f 4/1/40 31/1/40 16/1/40
f 31/1/41 4/1/41 5/1/41
f 109/1/42 2/1/42 36/1/42
f 39/1/43 35/1/43 24/1/43
f 28/1/44 11/1/44 13/1/44
f 28/1/45 22/1/45 11/1/45
f 34/1/46 39/1/46 37/1/46
f 40/1/8 102/1/8 103/1/8
f 34/1/46 37/1/46 104/1/46
f 53/1/47 65/1/47 66/1/47
f 44/1/48 78/1/48 77/1/48
f 61/1/49 75/1/49 83/1/49
f 88/1/50 87/1/50 74/1/50
f 58/1/51 98/1/51 101/1/51
f 43/1/52 71/1/52 68/1/52
f 47/1/53 90/1/53 93/1/53
f 59/1/54 76/1/54 102/1/54
f 41/1/55 86/1/55 89/1/55
f 55/1/56 79/1/56 78/1/56
f 44/1/48 77/1/48 60/1/48
f 50/1/57 70/1/57 73/1/57
f 41/1/55 103/1/55 86/1/55
f 55/1/56 78/1/56 44/1/56
f 50/1/57 73/1/57 62/1/57
f 88/1/50 74/1/50 57/1/50
f 45/1/58 84/1/58 85/1/58
f 42/1/59 83/1/59 82/1/59
f 47/1/53 67/1/53 90/1/53
f 56/1/60 72/1/60 71/1/60
f 42/1/59 82/1/59 46/1/59
f 61/1/49 83/1/49 42/1/49
f 45/1/58 81/1/58 84/1/58
f 53/1/47 66/1/47 49/1/47
f 43/1/52 68/1/52 48/1/52
f 58/1/51 80/1/51 98/1/51
f 51/1/61 69/1/61 70/1/61
f 92/1/62 91/1/62 63/1/62
f 51/1/61 70/1/61 50/1/61
f 60/1/63 76/1/63 59/1/63
f 62/1/64 73/1/64 75/1/64
f 60/1/63 77/1/63 76/1/63
f 96/1/65 80/1/65 58/1/65
f 96/1/65 95/1/65 80/1/65
f 38/1/66 104/1/66 326/1/66
f 100/1/67 79/1/67 55/1/67
f 100/1/67 99/1/67 79/1/67
f 54/1/68 64/1/68 65/1/68
f 54/1/68 65/1/68 53/1/68
f 89/1/69 87/1/69 88/1/69
f 97/1/70 94/1/70 95/1/70
f 101/1/71 98/1/71 99/1/71
f 97/1/70 95/1/70 96/1/70
f 92/1/62 63/1/62 52/1/62
f 57/1/72 72/1/72 56/1/72
f 57/1/72 74/1/72 72/1/72
f 89/1/69 86/1/69 87/1/69
f 49/1/73 69/1/73 51/1/73
f 48/1/74 68/1/74 67/1/74
f 46/1/75 81/1/75 45/1/75
f 46/1/75 82/1/75 81/1/75
f 48/1/74 67/1/74 47/1/74
f 49/1/73 66/1/73 69/1/73
f 52/1/76 63/1/76 64/1/76
f 52/1/76 64/1/76 54/1/76
f 93/1/77 90/1/77 91/1/77
f 93/1/77 91/1/77 92/1/77
f 38/1/66 324/1/66 134/1/66
f 128/1/78 106/1/78 325/1/78
f 85/1/79 94/1/79 97/1/79
f 62/1/64 75/1/64 61/1/64
f 85/1/79 84/1/79 94/1/79
f 59/1/54 102/1/54 40/1/54
f 56/1/60 71/1/60 43/1/60
f 27/1/30 35/1/30 38/1/30
f 35/1/43 39/1/43 34/1/43
f 15/1/80 110/1/80 127/1/80 125/1/80
f 9/1/81 119/1/81 113/1/81 3/1/81
f 10/1/30 25/1/30 36/1/30
f 32/1/46 107/1/46 1/1/46
f 107/1/46 37/1/46 39/1/46
f 37/1/46 107/1/46 32/1/46
f 28/1/82 13/1/82 8/1/82
f 101/1/71 99/1/71 100/1/71
f 17/1/46 1/1/46 14/1/46
f 8/1/83 29/1/83 28/1/83
f 33/1/84 8/1/84 108/1/84
f 1/1/46 17/1/46 32/1/46
f 33/1/85 29/1/85 8/1/85
f 33/1/86 110/1/86 30/1/86
f 33/1/87 108/1/87 110/1/87
f 118/1/88 123/1/88 121/1/88
f 117/1/88 114/1/88 113/1/88
f 117/1/88 113/1/88 119/1/88
f 127/1/88 126/1/88 118/1/88
f 115/1/88 114/1/88 117/1/88
f 113/1/88 121/1/88 122/1/88
f 111/1/89 114/1/89 124/1/89
f 127/1/88 118/1/88 116/1/88
f 121/1/88 114/1/88 116/1/88
f 118/1/88 121/1/88 116/1/88
f 121/1/88 113/1/88 114/1/88
f 114/1/90 352/1/90 353/1/90
f 125/1/88 127/1/88 116/1/88
f 120/1/91 112/1/91 116/1/91
f 1/1/92 10/1/92 120/1/92 111/1/92
f 1/1/93 111/1/93 124/1/93 14/1/93
f 249/1/88 184/1/88 248/1/88
f 267/1/94 45/1/94 294/1/94
f 105/1/94 51/1/94 50/1/94
f 254/1/88 103/1/88 255/1/88
f 248/1/88 184/1/88 185/1/88
f 272/1/94 302/1/94 134/1/94
f 271/1/94 272/1/94 134/1/94
f 255/1/88 103/1/88 102/1/88
f 72/1/88 27/1/88 71/1/88
f 307/1/94 295/1/94 316/1/94
f 284/1/94 276/1/94 310/1/94
f 153/1/88 157/1/88 158/1/88
f 255/1/88 76/1/88 258/1/88
f 295/1/94 315/1/94 316/1/94
f 268/1/94 46/1/94 267/1/94
f 225/1/88 180/1/88 226/1/88
f 134/1/94 302/1/94 299/1/94
f 315/1/94 295/1/94 134/1/94
f 27/1/88 252/1/88 200/1/88
f 147/1/88 208/1/88 207/1/88
f 307/1/94 316/1/94 202/1/94
f 134/1/94 299/1/94 133/1/94
f 227/1/88 153/1/88 250/1/88
f 27/1/88 201/1/88 250/1/88
f 320/1/94 134/1/94 42/1/94
f 132/1/94 134/1/94 133/1/94
f 27/1/88 103/1/88 254/1/88
f 153/1/88 152/1/88 151/1/88
f 135/1/94 134/1/94 132/1/94
f 138/1/94 134/1/94 135/1/94
f 27/1/88 254/1/88 252/1/88
f 227/1/88 172/1/88 153/1/88
f 139/1/94 134/1/94 138/1/94
f 153/1/88 173/1/88 176/1/88
f 142/1/94 134/1/94 139/1/94
f 166/1/62 168/1/62 167/1/62
f 166/1/62 169/1/62 168/1/62
f 170/1/55 172/1/55 171/1/55
f 170/1/55 173/1/55 172/1/55
f 133/1/59 149/1/59 132/1/59
f 133/1/59 148/1/59 149/1/59
f 131/1/55 151/1/55 130/1/55
f 131/1/55 154/1/55 151/1/55
f 174/1/72 176/1/72 175/1/72
f 174/1/72 177/1/72 176/1/72
f 178/1/63 180/1/63 179/1/63
f 178/1/63 181/1/63 180/1/63
f 182/1/8 184/1/8 183/1/8
f 182/1/8 185/1/8 184/1/8
f 186/1/71 188/1/71 187/1/71
f 186/1/71 189/1/71 188/1/71
f 190/1/70 192/1/70 191/1/70
f 190/1/70 193/1/70 192/1/70
f 194/1/77 196/1/77 195/1/77
f 194/1/77 197/1/77 196/1/77
f 198/1/69 200/1/69 199/1/69
f 198/1/69 201/1/69 200/1/69
f 202/1/79 193/1/79 190/1/79
f 202/1/79 203/1/79 193/1/79
f 134/1/66 324/1/66 105/1/66
f 87/1/88 86/1/88 27/1/88
f 87/1/88 27/1/88 74/1/88
f 200/1/88 201/1/88 27/1/88
f 38/1/88 230/1/88 229/1/88
f 153/1/88 151/1/88 154/1/88
f 250/1/88 201/1/88 249/1/88
f 172/1/88 173/1/88 153/1/88
f 249/1/88 201/1/88 184/1/88
f 69/1/88 66/1/88 38/1/88
f 256/1/88 81/1/88 253/1/88
f 247/1/88 185/1/88 246/1/88
f 223/1/88 221/1/88 222/1/88
f 238/1/88 188/1/88 189/1/88
f 219/1/88 218/1/88 168/1/88
f 38/1/88 228/1/88 230/1/88
f 235/1/88 192/1/88 234/1/88
f 213/1/88 211/1/88 214/1/88
f 234/1/88 192/1/88 193/1/88
f 232/1/88 231/1/88 228/1/88
f 153/1/88 161/1/88 162/1/88
f 71/1/88 27/1/88 68/1/88
f 102/1/88 76/1/88 255/1/88
f 153/1/88 158/1/88 161/1/88
f 34/1/66 104/1/66 38/1/66 35/1/66
f 256/1/88 94/1/88 84/1/88
f 257/1/88 94/1/88 256/1/88
f 226/1/88 180/1/88 224/1/88
f 68/1/88 27/1/88 67/1/88
f 146/1/94 134/1/94 143/1/94
f 259/1/88 76/1/88 77/1/88
f 306/1/94 307/1/94 202/1/94
f 75/1/88 73/1/88 38/1/88
f 143/1/94 134/1/94 142/1/94
f 38/1/88 253/1/88 81/1/88
f 74/1/88 27/1/88 72/1/88
f 153/1/88 154/1/88 157/1/88
f 153/1/88 176/1/88 177/1/88
f 176/1/88 173/1/88 226/1/88
f 263/1/88 99/1/88 98/1/88
f 27/1/88 38/1/88 63/1/88
f 221/1/88 169/1/88 222/1/88
f 148/1/88 204/1/88 147/1/88
f 210/1/88 207/1/88 209/1/88
f 259/1/88 78/1/88 197/1/88
f 233/1/88 203/1/88 232/1/88
f 65/1/88 64/1/88 38/1/88
f 245/1/88 244/1/88 243/1/88
f 181/1/88 221/1/88 223/1/88
f 243/1/88 244/1/88 242/1/88
f 75/1/88 38/1/88 83/1/88
f 237/1/88 189/1/88 236/1/88
f 238/1/88 189/1/88 237/1/88
f 232/1/88 203/1/88 231/1/88
f 164/1/88 147/1/88 153/1/88
f 156/1/88 155/1/88 147/1/88
f 70/1/88 69/1/88 38/1/88
f 223/1/88 180/1/88 181/1/88
f 224/1/88 180/1/88 223/1/88
f 220/1/88 169/1/88 221/1/88
f 228/1/88 231/1/88 230/1/88
f 95/1/88 94/1/88 260/1/88
f 197/1/88 79/1/88 196/1/88
f 61/1/94 105/1/94 62/1/94
f 209/1/88 207/1/88 208/1/88
f 128/1/94 134/1/94 145/1/94
f 251/1/88 253/1/88 38/1/88
f 62/1/94 105/1/94 50/1/94
f 86/1/88 103/1/88 27/1/88
f 264/1/77 169/1/77 166/1/77
f 264/1/77 222/1/77 169/1/77
f 265/1/74 245/1/74 266/1/74
f 265/1/74 247/1/74 245/1/74
f 267/1/95 251/1/95 268/1/95
f 267/1/64 253/1/64 251/1/64
f 269/1/63 246/1/63 270/1/63
f 269/1/63 244/1/63 246/1/63
f 271/1/75 207/1/75 272/1/75
f 271/1/75 206/1/75 207/1/75
f 191/1/65 236/1/65 273/1/65
f 191/1/65 192/1/65 236/1/65
f 274/1/72 254/1/72 275/1/72
f 274/1/72 252/1/72 254/1/72
f 130/1/69 152/1/69 129/1/69
f 130/1/69 151/1/69 152/1/69
f 276/1/68 216/1/68 277/1/68
f 276/1/68 218/1/68 216/1/68
f 187/1/67 240/1/67 278/1/67
f 187/1/67 188/1/67 240/1/67
f 279/1/61 209/1/61 280/1/61
f 279/1/61 212/1/61 209/1/61
f 140/1/63 158/1/63 137/1/63
f 140/1/63 161/1/63 158/1/63
f 281/1/68 261/1/68 282/1/68
f 281/1/68 262/1/68 261/1/68
f 283/1/76 262/1/76 281/1/76
f 283/1/76 263/1/76 262/1/76
f 195/1/62 263/1/62 283/1/62
f 195/1/62 196/1/62 263/1/62
f 284/1/67 220/1/67 285/1/67
f 284/1/67 219/1/67 220/1/67
f 286/1/77 241/1/77 287/1/77
f 286/1/77 243/1/77 241/1/77
f 288/1/52 224/1/52 289/1/52
f 288/1/52 226/1/52 224/1/52
f 138/1/79 156/1/79 139/1/79
f 138/1/79 155/1/79 156/1/79
f 290/1/47 235/1/47 291/1/47
f 290/1/47 237/1/47 235/1/47
f 292/1/52 247/1/52 265/1/52
f 292/1/52 248/1/52 247/1/52
f 146/1/71 164/1/71 145/1/71
f 146/1/71 163/1/71 164/1/71
f 293/1/61 256/1/61 294/1/61
f 293/1/61 257/1/61 256/1/61
f 295/1/49 205/1/49 296/1/49
f 295/1/49 228/1/49 205/1/49
f 143/1/51 163/1/51 146/1/51
f 143/1/51 160/1/51 163/1/51
f 137/1/54 157/1/54 136/1/54
f 137/1/54 158/1/54 157/1/54
f 175/1/60 226/1/60 288/1/60
f 175/1/60 176/1/60 226/1/60
f 141/1/48 161/1/48 140/1/48
f 141/1/48 162/1/48 161/1/48
f 297/1/65 215/1/65 298/1/65
f 297/1/65 213/1/65 215/1/65
f 139/1/70 159/1/70 142/1/70
f 139/1/70 156/1/70 159/1/70
f 299/1/49 148/1/49 133/1/49
f 299/1/49 204/1/49 148/1/49
f 300/1/73 212/1/73 279/1/73
f 300/1/73 214/1/73 212/1/73
f 171/1/69 227/1/69 301/1/69
f 171/1/69 172/1/69 227/1/69
f 280/1/57 208/1/57 302/1/57
f 280/1/57 209/1/57 208/1/57
f 287/1/62 239/1/62 303/1/62
f 287/1/62 241/1/62 239/1/62
f 304/1/53 222/1/53 264/1/53
f 304/1/53 223/1/53 222/1/53
f 305/1/73 257/1/73 293/1/73
f 305/1/73 260/1/73 257/1/73
f 277/1/47 214/1/47 300/1/47
f 277/1/47 216/1/47 214/1/47
f 306/1/57 232/1/57 307/1/57
f 306/1/57 233/1/57 232/1/57
f 308/1/72 249/1/72 309/1/72
f 308/1/72 250/1/72 249/1/72
f 298/1/51 217/1/51 310/1/51
f 298/1/51 215/1/51 217/1/51
f 311/1/74 259/1/74 312/1/74
f 311/1/74 258/1/74 259/1/74
f 313/1/61 233/1/61 306/1/61
f 313/1/61 234/1/61 233/1/61
f 314/1/48 181/1/48 178/1/48
f 314/1/48 221/1/48 181/1/48
f 315/1/75 231/1/75 316/1/75
f 315/1/75 230/1/75 231/1/75
f 278/1/56 242/1/56 317/1/56
f 278/1/56 240/1/56 242/1/56
f 309/1/60 248/1/60 292/1/60
f 309/1/60 249/1/60 248/1/60
f 145/1/67 165/1/67 144/1/67
f 145/1/67 164/1/67 165/1/67
f 142/1/65 160/1/65 143/1/65
f 142/1/65 159/1/65 160/1/65
f 296/1/59 206/1/59 271/1/59
f 296/1/59 205/1/59 206/1/59
f 136/1/8 154/1/8 131/1/8
f 136/1/8 157/1/8 154/1/8
f 294/1/57 253/1/57 267/1/57
f 294/1/57 256/1/57 253/1/57
f 183/1/55 201/1/55 198/1/55
f 183/1/55 184/1/55 201/1/55
f 270/1/54 185/1/54 182/1/54
f 270/1/54 246/1/54 185/1/54
f 275/1/60 255/1/60 318/1/60
f 275/1/60 254/1/60 255/1/60
f 132/1/75 150/1/75 135/1/75
f 132/1/75 149/1/75 150/1/75
f 135/1/58 155/1/58 138/1/58
f 135/1/58 150/1/58 155/1/58
f 318/1/52 258/1/52 311/1/52
f 318/1/52 255/1/52 258/1/52
f 272/1/58 210/1/58 319/1/58
f 272/1/58 207/1/58 210/1/58
f 291/1/73 234/1/73 313/1/73
f 291/1/73 235/1/73 234/1/73
f 285/1/56 221/1/56 314/1/56
f 285/1/56 220/1/56 221/1/56
f 320/1/59 230/1/59 315/1/59
f 320/1/59 229/1/59 230/1/59
f 319/1/79 211/1/79 321/1/79
f 319/1/79 210/1/79 211/1/79
f 312/1/53 197/1/53 194/1/53
f 312/1/53 259/1/53 197/1/53
f 199/1/50 252/1/50 274/1/50
f 199/1/50 200/1/50 252/1/50
f 316/1/58 203/1/58 202/1/58
f 316/1/58 231/1/58 203/1/58
f 310/1/71 219/1/71 284/1/71
f 310/1/71 217/1/71 219/1/71
f 303/1/76 238/1/76 322/1/76
f 303/1/76 239/1/76 238/1/76
f 273/1/51 189/1/51 186/1/51
f 273/1/51 236/1/51 189/1/51
f 129/1/50 177/1/50 174/1/50
f 129/1/50 152/1/50 177/1/50
f 226/1/88 173/1/88 225/1/88
f 160/1/88 159/1/88 147/1/88
f 216/1/88 213/1/88 214/1/88
f 216/1/88 215/1/88 213/1/88
f 261/1/88 95/1/88 260/1/88
f 27/1/78 153/1/78 128/1/78
f 63/1/88 38/1/88 64/1/88
f 233/1/88 193/1/88 203/1/88
f 218/1/88 215/1/88 216/1/88
f 239/1/88 188/1/88 238/1/88
f 217/1/88 218/1/88 219/1/88
f 147/1/88 207/1/88 206/1/88
f 245/1/88 246/1/88 244/1/88
f 247/1/88 246/1/88 245/1/88
f 258/1/88 76/1/88 259/1/88
f 128/1/30 153/1/30 147/1/30 134/1/30
f 250/1/88 153/1/88 27/1/88
f 263/1/88 98/1/88 262/1/88
f 78/1/88 79/1/88 197/1/88
f 212/1/88 210/1/88 209/1/88
f 196/1/88 79/1/88 263/1/88
f 211/1/88 210/1/88 212/1/88
f 159/1/88 156/1/88 147/1/88
f 163/1/88 160/1/88 147/1/88
f 73/1/88 70/1/88 38/1/88
f 38/1/88 82/1/88 83/1/88
f 84/1/88 81/1/88 256/1/88
f 260/1/88 94/1/88 257/1/88
f 153/1/88 177/1/88 152/1/88
f 147/1/88 206/1/88 205/1/88
f 279/1/94 319/1/94 321/1/94
f 163/1/88 147/1/88 164/1/88
f 296/1/94 271/1/94 134/1/94
f 234/1/88 193/1/88 233/1/88
f 235/1/88 236/1/88 192/1/88
f 237/1/88 236/1/88 235/1/88
f 261/1/88 80/1/88 95/1/88
f 150/1/88 149/1/88 147/1/88
f 149/1/88 148/1/88 147/1/88
f 153/1/88 162/1/88 165/1/88
f 67/1/88 27/1/88 90/1/88
f 263/1/88 79/1/88 99/1/88
f 262/1/88 80/1/88 261/1/88
f 262/1/88 98/1/88 80/1/88
f 228/1/88 147/1/88 205/1/88
f 229/1/88 251/1/88 38/1/88
f 38/1/88 147/1/88 228/1/88
f 155/1/88 150/1/88 147/1/88
f 66/1/88 65/1/88 38/1/88
f 168/1/88 220/1/88 219/1/88
f 153/1/88 165/1/88 164/1/88
f 90/1/88 27/1/88 91/1/88
f 91/1/88 27/1/88 63/1/88
f 77/1/88 78/1/88 259/1/88
f 214/1/88 211/1/88 212/1/88
f 38/1/88 81/1/88 82/1/88
f 204/1/88 208/1/88 147/1/88
f 241/1/88 242/1/88 240/1/88
f 243/1/88 242/1/88 241/1/88
f 169/1/88 220/1/88 168/1/88
f 218/1/88 217/1/88 215/1/88
f 128/1/94 88/1/94 106/1/94
f 239/1/88 240/1/88 188/1/88
f 105/1/94 52/1/94 54/1/94
f 241/1/88 240/1/88 239/1/88
f 320/1/94 315/1/94 134/1/94
f 248/1/88 185/1/88 247/1/88
f 320/1/94 42/1/94 268/1/94
f 317/1/48 244/1/48 269/1/48
f 317/1/48 242/1/48 244/1/48
f 179/1/54 225/1/54 323/1/54
f 179/1/54 180/1/54 225/1/54
f 282/1/47 260/1/47 305/1/47
f 282/1/47 261/1/47 260/1/47
f 321/1/70 213/1/70 297/1/70
f 321/1/70 211/1/70 213/1/70
f 323/1/8 173/1/8 170/1/8
f 323/1/8 225/1/8 173/1/8
f 268/1/49 229/1/49 320/1/49
f 268/1/49 251/1/49 229/1/49
f 144/1/56 162/1/56 141/1/56
f 144/1/56 165/1/56 162/1/56
f 289/1/74 223/1/74 304/1/74
f 289/1/74 224/1/74 223/1/74
f 266/1/53 243/1/53 286/1/53
f 266/1/53 245/1/53 243/1/53
f 301/1/50 250/1/50 308/1/50
f 301/1/50 227/1/50 250/1/50
f 322/1/68 237/1/68 290/1/68
f 322/1/68 238/1/68 237/1/68
f 302/1/64 204/1/64 299/1/64
f 302/1/64 208/1/64 204/1/64
f 307/1/64 228/1/64 295/1/64
f 307/1/64 232/1/64 228/1/64
f 167/1/76 218/1/76 276/1/76
f 167/1/76 168/1/76 218/1/76
f 38/1/66 326/1/66 324/1/66
f 134/1/94 105/1/94 42/1/94
f 302/1/94 272/1/94 319/1/94
f 280/1/94 302/1/94 319/1/94
f 145/1/94 134/1/94 146/1/94
f 294/1/94 85/1/94 293/1/94
f 318/1/94 59/1/94 40/1/94
f 306/1/94 202/1/94 190/1/94
f 313/1/94 306/1/94 190/1/94
f 280/1/94 319/1/94 279/1/94
f 274/1/94 41/1/94 89/1/94
f 105/1/94 54/1/94 53/1/94
f 293/1/94 97/1/94 305/1/94
f 312/1/94 44/1/94 60/1/94
f 313/1/94 190/1/94 191/1/94
f 291/1/94 313/1/94 191/1/94
f 279/1/94 321/1/94 297/1/94
f 300/1/94 279/1/94 297/1/94
f 128/1/94 171/1/94 301/1/94
f 282/1/94 305/1/94 96/1/94
f 282/1/94 96/1/94 58/1/94
f 291/1/94 191/1/94 273/1/94
f 290/1/94 291/1/94 273/1/94
f 277/1/94 300/1/94 297/1/94
f 277/1/94 297/1/94 298/1/94
f 128/1/94 198/1/94 199/1/94
f 281/1/94 282/1/94 58/1/94
f 281/1/94 58/1/94 101/1/94
f 290/1/94 273/1/94 186/1/94
f 322/1/94 290/1/94 186/1/94
f 276/1/94 277/1/94 298/1/94
f 276/1/94 298/1/94 310/1/94
f 106/1/94 52/1/94 105/1/94
f 283/1/94 281/1/94 101/1/94
f 283/1/94 101/1/94 100/1/94
f 322/1/94 186/1/94 187/1/94
f 303/1/94 322/1/94 187/1/94
f 167/1/94 276/1/94 284/1/94
f 293/1/94 85/1/94 97/1/94
f 42/1/94 105/1/94 61/1/94
f 92/1/94 52/1/94 106/1/94
f 283/1/94 100/1/94 55/1/94
f 195/1/94 283/1/94 55/1/94
f 303/1/94 187/1/94 278/1/94
f 287/1/94 303/1/94 278/1/94
f 167/1/94 284/1/94 285/1/94
f 166/1/94 167/1/94 285/1/94
f 128/1/94 145/1/94 144/1/94
f 93/1/94 92/1/94 106/1/94
f 195/1/94 55/1/94 194/1/94
f 305/1/94 97/1/94 96/1/94
f 287/1/94 278/1/94 317/1/94
f 286/1/94 287/1/94 317/1/94
f 264/1/94 166/1/94 314/1/94
f 304/1/94 314/1/94 178/1/94
f 128/1/94 144/1/94 141/1/94
f 47/1/94 93/1/94 106/1/94
f 194/1/94 44/1/94 312/1/94
f 267/1/94 46/1/94 45/1/94
f 286/1/94 317/1/94 269/1/94
f 266/1/94 286/1/94 269/1/94
f 264/1/94 314/1/94 304/1/94
f 288/1/94 179/1/94 323/1/94
f 128/1/94 141/1/94 140/1/94
f 48/1/94 47/1/94 106/1/94
f 312/1/94 60/1/94 59/1/94
f 311/1/94 312/1/94 59/1/94
f 266/1/94 269/1/94 270/1/94
f 265/1/94 266/1/94 270/1/94
f 304/1/94 178/1/94 179/1/94
f 289/1/94 304/1/94 179/1/94
f 128/1/94 140/1/94 137/1/94
f 43/1/94 48/1/94 106/1/94
f 311/1/94 59/1/94 318/1/94
f 268/1/94 42/1/94 46/1/94
f 265/1/94 270/1/94 182/1/94
f 292/1/94 265/1/94 182/1/94
f 289/1/94 179/1/94 288/1/94
f 294/1/94 45/1/94 85/1/94
f 128/1/94 137/1/94 136/1/94
f 56/1/94 43/1/94 106/1/94
f 318/1/94 40/1/94 41/1/94
f 275/1/94 318/1/94 41/1/94
f 292/1/94 182/1/94 183/1/94
f 309/1/94 292/1/94 183/1/94
f 288/1/94 323/1/94 170/1/94
f 175/1/94 288/1/94 170/1/94
f 128/1/94 136/1/94 131/1/94
f 57/1/94 56/1/94 106/1/94
f 275/1/94 41/1/94 274/1/94
f 194/1/94 55/1/94 44/1/94
f 309/1/94 183/1/94 198/1/94
f 308/1/94 309/1/94 198/1/94
f 175/1/94 170/1/94 128/1/94
f 174/1/94 175/1/94 128/1/94
f 128/1/94 131/1/94 130/1/94
f 88/1/94 57/1/94 106/1/94
f 274/1/94 89/1/94 88/1/94
f 199/1/94 274/1/94 88/1/94
f 308/1/94 198/1/94 128/1/94
f 301/1/94 308/1/94 128/1/94
f 314/1/94 166/1/94 285/1/94
f 129/1/94 174/1/94 128/1/94
f 128/1/94 130/1/94 129/1/94
f 199/1/94 88/1/94 128/1/94
f 128/1/94 170/1/94 171/1/94
f 105/1/94 53/1/94 49/1/94
f 105/1/94 49/1/94 51/1/94
f 134/1/94 295/1/94 296/1/94
f 147/1/66 38/1/66 134/1/66
f 104/1/46 37/1/46 327/1/46 326/1/46
f 106/1/46 105/1/46 324/1/46 325/1/46
f 324/1/94 326/1/94 327/1/94 325/1/94
f 27/1/96 128/1/96 325/1/96
f 27/1/96 325/1/96 327/1/96
f 27/1/78 327/1/78 37/1/78
f 330/1/97 331/1/97 116/1/97
f 114/1/98 351/1/98 352/1/98
f 331/1/99 332/1/99 116/1/99
f 114/1/100 350/1/100 351/1/100
f 114/1/101 353/1/101 354/1/101
f 360/1/102 329/1/102 116/1/102
f 114/1/103 355/1/103 356/1/103
f 114/1/104 354/1/104 355/1/104
f 114/1/105 357/1/105 116/1/105
f 359/1/106 360/1/106 116/1/106
f 343/1/107 344/1/107 111/1/107
f 114/1/108 356/1/108 357/1/108
f 357/1/109 358/1/109 116/1/109
f 358/1/110 359/1/110 116/1/110
f 347/1/111 348/1/111 111/1/111
f 332/1/112 333/1/112 116/1/112
f 347/1/113 111/1/113 346/1/113
f 114/1/114 349/1/114 350/1/114
f 346/1/115 111/1/115 345/1/115
f 334/1/116 120/1/116 333/1/116
f 345/1/117 111/1/117 344/1/117
f 114/1/118 111/1/118 349/1/118
f 120/1/119 116/1/119 333/1/119
f 111/1/120 120/1/120 341/1/120
f 111/1/121 348/1/121 349/1/121
f 334/1/122 335/1/122 120/1/122
f 343/1/123 111/1/123 342/1/123
f 342/1/124 111/1/124 341/1/124
f 336/1/125 120/1/125 335/1/125
f 341/1/126 120/1/126 340/1/126
f 337/1/127 120/1/127 336/1/127
f 339/1/128 120/1/128 338/1/128
f 338/1/129 120/1/129 337/1/129
f 340/1/130 120/1/130 339/1/130
f 329/1/131 330/1/131 116/1/131
f 487/2/132 488/3/132 398/3/132 399/2/132
f 354/4/133 353/5/133 385/5/133 386/4/133
f 341/6/134 340/7/134 372/7/134 373/6/134
f 355/8/135 354/4/135 386/4/135 387/8/135
f 342/9/136 341/6/136 373/6/136 374/9/136
f 356/10/137 355/8/137 387/8/137 388/10/137
f 343/11/138 342/9/138 374/9/138 375/11/138
f 330/12/139 329/13/139 361/13/139 362/12/139
f 357/14/140 356/10/140 388/10/140 389/14/140
f 344/15/141 343/11/141 375/11/141 376/15/141
f 331/16/142 330/12/142 362/12/142 363/16/142
f 358/17/143 357/14/143 389/14/143 390/17/143
f 345/18/144 344/15/144 376/15/144 377/18/144
f 332/19/145 331/16/145 363/16/145 364/19/145
f 359/20/146 358/17/146 390/17/146 391/20/146
f 346/21/147 345/18/147 377/18/147 378/21/147
f 333/22/148 332/19/148 364/19/148 365/22/148
f 360/23/149 359/20/149 391/20/149 392/23/149
f 347/24/150 346/21/150 378/21/150 379/24/150
f 334/3/151 333/22/151 365/22/151 366/3/151
f 329/13/152 360/23/152 392/23/152 361/13/152
f 348/25/153 347/24/153 379/24/153 380/25/153
f 335/2/154 334/3/154 366/3/154 367/2/154
f 349/26/155 348/25/155 380/25/155 381/26/155
f 336/27/156 335/2/156 367/2/156 368/27/156
f 350/28/157 349/26/157 381/26/157 382/28/157
f 337/29/158 336/27/158 368/27/158 369/29/158
f 351/30/159 350/28/159 382/28/159 383/30/159
f 338/31/160 337/29/160 369/29/160 370/31/160
f 352/32/161 351/30/161 383/30/161 384/32/161
f 339/33/162 338/31/162 370/31/162 371/33/162
f 353/5/163 352/32/163 384/32/163 385/5/163
f 340/7/164 339/33/164 371/33/164 372/7/164
f 402/31/165 401/29/165 433/29/165 434/31/165
f 485/26/166 486/25/166 412/25/166 413/26/166
f 484/27/167 487/2/167 399/2/167 400/27/167
f 483/28/168 485/26/168 413/26/168 414/28/168
f 482/29/169 484/27/169 400/27/169 401/29/169
f 481/30/170 483/28/170 414/28/170 415/30/170
f 480/31/171 482/29/171 401/29/171 402/31/171
f 479/32/172 481/30/172 415/30/172 416/32/172
f 478/33/173 480/31/173 402/31/173 403/33/173
f 477/5/174 479/32/174 416/32/174 417/5/174
f 476/7/175 478/33/175 403/33/175 404/7/175
f 475/4/176 477/5/176 417/5/176 418/4/176
f 474/6/177 476/7/177 404/7/177 405/6/177
f 473/8/178 475/4/178 418/4/178 419/8/178
f 472/9/179 474/6/179 405/6/179 406/9/179
f 471/10/180 473/8/180 419/8/180 420/10/180
f 470/11/181 472/9/181 406/9/181 407/11/181
f 468/12/182 469/13/182 393/13/182 394/12/182
f 467/14/183 471/10/183 420/10/183 421/14/183
f 466/15/184 470/11/184 407/11/184 408/15/184
f 465/16/185 468/12/185 394/12/185 395/16/185
f 464/17/186 467/14/186 421/14/186 422/17/186
f 463/18/187 466/15/187 408/15/187 409/18/187
f 462/19/188 465/16/188 395/16/188 396/19/188
f 461/20/189 464/17/189 422/17/189 423/20/189
f 460/21/190 463/18/190 409/18/190 410/21/190
f 459/22/191 462/19/191 396/19/191 397/22/191
f 458/23/192 461/20/192 423/20/192 424/23/192
f 489/24/193 460/21/193 410/21/193 411/24/193
f 488/3/194 459/22/194 397/22/194 398/3/194
f 469/13/195 458/23/195 424/23/195 393/13/195
f 486/25/196 489/24/196 411/24/196 412/25/196
f 437/6/197 436/7/197 457/6/197
f 416/32/198 415/30/198 447/30/198 448/32/198
f 403/33/199 402/31/199 434/31/199 435/33/199
f 417/5/200 416/32/200 448/32/200 449/5/200
f 404/7/201 403/33/201 435/33/201 436/7/201
f 418/4/202 417/5/202 449/5/202 450/4/202
f 405/6/203 404/7/203 436/7/203 437/6/203
f 419/8/204 418/4/204 450/4/204 451/8/204
f 406/9/205 405/6/205 437/6/205 438/9/205
f 420/10/206 419/8/206 451/8/206 452/10/206
f 407/11/207 406/9/207 438/9/207 439/11/207
f 394/12/208 393/13/208 425/13/208 426/12/208
f 421/14/209 420/10/209 452/10/209 453/14/209
f 408/15/210 407/11/210 439/11/210 440/15/210
f 395/16/211 394/12/211 426/12/211 427/16/211
f 422/17/212 421/14/212 453/14/212 454/17/212
f 409/18/213 408/15/213 440/15/213 441/18/213
f 396/19/214 395/16/214 427/16/214 428/19/214
f 423/20/215 422/17/215 454/17/215 455/20/215
f 410/21/216 409/18/216 441/18/216 442/21/216
f 397/22/217 396/19/217 428/19/217 429/22/217
f 424/23/218 423/20/218 455/20/218 456/23/218
f 411/24/219 410/21/219 442/21/219 443/24/219
f 398/3/220 397/22/220 429/22/220 430/3/220
f 393/13/221 424/23/221 456/23/221 425/13/221
f 412/25/222 411/24/222 443/24/222 444/25/222
f 399/2/223 398/3/223 430/3/223 431/2/223
f 413/26/224 412/25/224 444/25/224 445/26/224
f 400/27/225 399/2/225 431/2/225 432/27/225
f 414/28/226 413/26/226 445/26/226 446/28/226
f 401/29/227 400/27/227 432/27/227 433/29/227
f 415/30/228 414/28/228 446/28/228 447/30/228
f 368/27/229 367/2/229 487/2/229 484/27/229
f 451/8/197 450/4/197 457/8/197
f 438/9/197 437/6/197 457/9/197
f 452/10/197 451/8/197 457/10/197
f 439/11/197 438/9/197 457/11/197
f 426/12/197 425/13/197 457/12/197
f 453/14/230 452/10/230 457/14/230
f 440/15/197 439/11/197 457/15/197
f 427/16/197 426/12/197 457/16/197
f 454/17/197 453/14/197 457/17/197
f 441/18/197 440/15/197 457/18/197
f 428/19/197 427/16/197 457/19/197
f 455/20/197 454/17/197 457/20/197
f 442/21/197 441/18/197 457/21/197
f 429/22/197 428/19/197 457/22/197
f 456/23/197 455/20/197 457/23/197
f 443/24/197 442/21/197 457/24/197
f 430/3/197 429/22/197 457/3/197
f 425/13/197 456/23/197 457/13/197
f 444/25/197 443/24/197 457/25/197
f 431/2/197 430/3/197 457/2/197
f 445/26/197 444/25/197 457/26/197
f 432/27/197 431/2/197 457/27/197
f 446/28/197 445/26/197 457/28/197
f 433/29/197 432/27/197 457/29/197
f 447/30/197 446/28/197 457/30/197
f 434/31/197 433/29/197 457/31/197
f 448/32/197 447/30/197 457/32/197
f 435/33/197 434/31/197 457/33/197
f 449/5/197 448/32/197 457/5/197
f 436/7/197 435/33/197 457/7/197
f 450/4/197 449/5/197 457/4/197
f 382/28/231 381/26/231 485/26/231 483/28/231
f 369/29/232 368/27/232 484/27/232 482/29/232
f 383/30/233 382/28/233 483/28/233 481/30/233
f 370/31/234 369/29/234 482/29/234 480/31/234
f 384/32/235 383/30/235 481/30/235 479/32/235
f 371/33/236 370/31/236 480/31/236 478/33/236
f 385/5/237 384/32/237 479/32/237 477/5/237
f 372/7/238 371/33/238 478/33/238 476/7/238
f 386/4/239 385/5/239 477/5/239 475/4/239
f 373/6/240 372/7/240 476/7/240 474/6/240
f 387/8/241 386/4/241 475/4/241 473/8/241
f 374/9/242 373/6/242 474/6/242 472/9/242
f 388/10/243 387/8/243 473/8/243 471/10/243
f 375/11/244 374/9/244 472/9/244 470/11/244
f 362/12/245 361/13/245 469/13/245 468/12/245
f 389/14/246 388/10/246 471/10/246 467/14/246
f 376/15/247 375/11/247 470/11/247 466/15/247
f 363/16/248 362/12/248 468/12/248 465/16/248
f 390/17/249 389/14/249 467/14/249 464/17/249
f 377/18/250 376/15/250 466/15/250 463/18/250
f 364/19/251 363/16/251 465/16/251 462/19/251
f 391/20/252 390/17/252 464/17/252 461/20/252
f 378/21/253 377/18/253 463/18/253 460/21/253
f 365/22/254 364/19/254 462/19/254 459/22/254
f 392/23/255 391/20/255 461/20/255 458/23/255
f 379/24/256 378/21/256 460/21/256 489/24/256
f 366/3/257 365/22/257 459/22/257 488/3/257
f 361/13/258 392/23/258 458/23/258 469/13/258
f 380/25/259 379/24/259 489/24/259 486/25/259
f 381/26/260 380/25/260 486/25/260 485/26/260
f 367/2/261 366/3/261 488/3/261 487/2/261
