# Blender 5.0.1
# www.blender.org
mtllib i02_head_eyeAssembly_origin_visual_0.mtl
o i02.head.eyeBase.left_visual.001
v 0.246608 -0.205078 -0.074883
v 0.246608 -0.205078 -0.121922
v 0.246608 -0.242830 -0.074883
v 0.246608 -0.242830 -0.121922
v -0.092828 0.426299 -0.079593
v -0.092828 0.426299 -0.121922
v -0.058547 0.426299 -0.121922
v -0.014006 0.426299 -0.121922
v -0.014006 0.426299 -0.079593
v -0.170685 -0.345390 -0.121922
v -0.170685 -0.400334 -0.121922
v -0.166631 -0.345390 -0.121922
v -0.111494 -0.400334 -0.121922
v -0.061571 -0.148625 -0.074867
v -0.166631 -0.253081 -0.121922
v -0.111494 -0.205106 -0.121922
v -0.166631 0.002486 -0.121922
v -0.061571 -0.205102 -0.074880
v -0.042677 -0.105818 -0.121922
v 0.051972 0.157898 -0.041876
v 0.041926 -0.205106 -0.121922
v 0.051972 0.157898 -0.121922
v 0.051972 0.275122 -0.041876
v 0.003606 -0.131093 -0.121922
v 0.008900 -0.135573 -0.121922
v 0.005738 -0.134158 -0.121922
v 0.016458 -0.131093 -0.121922
v 0.013303 -0.134762 -0.121922
v 0.002730 -0.127273 -0.121922
v 0.005738 -0.120389 -0.121922
v 0.004172 -0.105818 -0.121922
v 0.008900 -0.118974 -0.121922
v 0.014317 -0.120389 -0.121922
v 0.016458 -0.123463 -0.121922
v 0.107126 -0.120389 -0.121922
v 0.017325 -0.127273 -0.121922
v 0.107126 -0.134158 -0.121922
v 0.104994 -0.131093 -0.121922
v 0.165134 -0.105667 -0.121922
v 0.109161 -0.119182 -0.121922
v 0.104994 -0.123463 -0.121922
v 0.104118 -0.127273 -0.121922
v 0.180483 -0.222723 -0.121922
v 0.180532 -0.220856 -0.121922
v 0.165037 -0.205106 -0.121922
v 0.210930 -0.242820 -0.121922
v 0.192532 -0.228400 -0.121922
v 0.189686 -0.230249 -0.121922
v 0.183419 -0.228872 -0.121922
v 0.181789 -0.226967 -0.121922
v 0.165037 -0.242820 -0.121922
v 0.186338 -0.230305 -0.121922
v 0.194300 -0.225703 -0.121922
v -0.042677 -0.105818 -0.074867
v 0.182364 -0.216433 -0.121922
v 0.184237 -0.214707 -0.121922
v 0.062732 -0.148257 -0.008377
v 0.223782 -0.227250 -0.121922
v 0.210930 -0.242830 -0.121922
v 0.226661 -0.231230 -0.121922
v 0.228915 -0.232163 -0.121922
v 0.062732 -0.148248 -0.074867
v 0.062732 -0.105818 -0.074867
v 0.062732 -0.105828 -0.008377
v 0.237445 -0.221874 -0.121922
v 0.236237 -0.218894 -0.121922
v 0.234599 -0.216999 -0.121922
v 0.232175 -0.215725 -0.121922
v 0.194608 -0.219243 -0.121922
v 0.194162 -0.218460 -0.074883
v 0.194949 -0.220856 -0.121922
v 0.110288 -0.118974 -0.008377
v 0.107126 -0.120389 -0.008377
v 0.104994 -0.123463 -0.008377
v 0.104118 -0.127273 -0.008377
v 0.104994 -0.131093 -0.008377
v 0.107126 -0.134158 -0.008377
v 0.108051 0.144429 -0.008378
v 0.111415 0.145476 -0.008378
v 0.111415 0.145476 -0.121922
v 0.131662 0.120466 -0.008397
v 0.113734 0.128463 -0.008388
v 0.116516 0.130509 -0.008388
v 0.110840 0.128359 -0.121922
v 0.109096 0.128463 -0.008388
v 0.091120 0.120466 -0.008397
v 0.234599 -0.230871 -0.121922
v 0.231485 -0.232343 -0.121922
v 0.131662 0.115769 -0.038896
v 0.131662 0.115750 -0.008388
v 0.236967 -0.227552 -0.121922
v 0.237631 -0.224977 -0.121922
v 0.131662 0.115750 -0.038896
v 0.224342 -0.219205 -0.121922
v 0.227309 -0.216282 -0.121922
v 0.211741 -0.205078 -0.121922
v 0.223466 -0.222006 -0.121922
v 0.160042 0.115750 -0.038896
v 0.185989 -0.101056 -0.121922
v 0.186670 -0.213717 -0.121922
v 0.189686 -0.213943 -0.121922
v 0.156612 0.124766 -0.008388
v 0.191932 -0.215188 -0.121922
v 0.115705 -0.134158 -0.121922
v 0.113670 -0.135365 -0.121922
v 0.110288 -0.135582 -0.121922
v -0.110423 0.282940 -0.104900
v 0.117845 -0.131093 -0.121922
v 0.115705 -0.120389 -0.121922
v 0.118713 -0.127273 -0.121922
v 0.113670 -0.119182 -0.121922
v 0.211725 -0.101056 -0.121922
v 0.211725 -0.103413 -0.121922
v 0.211741 -0.103413 -0.121922
v -0.045864 0.280677 -0.095781
v -0.045864 0.282667 -0.099581
v -0.045864 0.276810 -0.093348
v -0.042677 0.115760 -0.121922
v 0.210930 -0.242830 -0.074883
v 0.234599 -0.216999 -0.074883
v 0.229872 -0.215471 -0.074883
v 0.160042 0.115769 -0.038896
v 0.160042 0.115750 -0.008388
v 0.160042 0.121248 -0.008388
v 0.234599 -0.230871 -0.074883
v 0.226661 -0.231230 -0.074883
v 0.152882 0.131566 -0.008388
v 0.151390 0.141742 -0.008378
v 0.149026 0.157898 -0.008378
v 0.116654 0.142845 -0.008378
v 0.113734 0.145052 -0.008378
v 0.118551 0.139450 -0.008378
v 0.118737 0.135413 -0.008378
v 0.223401 -0.226194 -0.074883
v 0.186670 -0.213717 -0.074883
v 0.191932 -0.215188 -0.074883
v 0.159940 -0.148512 -0.074870
v 0.159914 -0.205090 -0.074851
v 0.156336 0.156067 -0.008378
v 0.157836 0.157898 -0.008378
v 0.152785 0.148786 -0.008378
v 0.165134 -0.105667 -0.074873
v 0.160042 -0.105818 -0.074873
v 0.160042 -0.148257 -0.008377
v 0.160042 -0.105828 -0.008377
v 0.152882 0.131566 -0.074798
v 0.156612 0.124766 -0.074798
v 0.160042 0.121248 -0.074798
v 0.160042 0.115769 -0.074864
v 0.165134 0.115769 -0.074864
v -0.045864 0.277866 -0.110370
v -0.134846 0.103845 -0.121922
v -0.134781 0.157898 -0.121922
v -0.110423 0.157898 -0.121922
v -0.110423 0.287722 -0.121922
v 0.008868 0.145259 -0.121922
v 0.051972 0.386368 -0.121922
v 0.165134 0.038357 -0.121922
v 0.185989 0.086792 -0.121922
v 0.012347 0.128463 -0.121922
v 0.008525 0.128204 -0.121922
v -0.010236 0.120475 -0.121922
v 0.005616 0.129708 -0.121922
v 0.003427 0.132858 -0.121922
v 0.030299 0.120475 -0.121922
v 0.015266 0.130679 -0.121922
v -0.010241 0.115772 -0.121922
v 0.002527 0.136762 -0.121922
v 0.017163 0.134065 -0.121922
v 0.091115 0.115772 -0.121922
v 0.030299 0.115760 -0.121922
v 0.091120 0.120475 -0.121922
v 0.107004 0.129708 -0.121922
v 0.104815 0.132858 -0.121922
v 0.002892 0.139450 -0.121922
v 0.013392 0.144429 -0.121922
v 0.016628 0.140666 -0.121922
v 0.017528 0.136762 -0.121922
v 0.008569 0.128222 -0.074864
v 0.004789 0.143250 -0.121922
v 0.104815 0.140666 -0.121922
v 0.108051 0.144429 -0.121922
v 0.103915 0.136762 -0.121922
v 0.131662 0.120475 -0.121922
v 0.115827 0.129708 -0.121922
v 0.118551 0.134065 -0.121922
v 0.131662 0.115769 -0.121922
v 0.165134 0.115769 -0.121922
v 0.051972 0.275122 -0.079593
v 0.185989 0.120381 -0.074854
v -0.045864 0.186359 -0.095781
v -0.045864 0.188358 -0.099591
v -0.110423 0.275122 -0.079593
v -0.045864 0.172562 -0.096026
v -0.045864 0.170892 -0.098733
v -0.045864 0.175645 -0.093848
v -0.045864 0.182502 -0.093348
v -0.110423 0.172562 -0.096026
v -0.110423 0.170892 -0.098733
v -0.045864 0.188820 -0.103910
v -0.045864 0.177400 -0.111332
v -0.045864 0.182926 -0.110860
v -0.045864 0.183558 -0.110370
v -0.045864 0.170251 -0.102807
v -0.045864 0.187934 -0.106569
v -0.045864 0.185680 -0.109408
v -0.045864 0.172024 -0.107729
v -0.045864 0.174476 -0.109898
v 0.211741 -0.205078 -0.074883
v 0.211741 -0.130320 -0.074873
v 0.211725 -0.130320 -0.074873
v 0.185989 -0.127962 -0.074873
v -0.110423 0.170364 -0.104042
v 0.185989 -0.006012 -0.074864
v 0.211725 -0.127962 -0.074873
v 0.165134 -0.006398 -0.074864
v 0.165134 -0.075894 -0.089548
v -0.166631 -0.084099 -0.074883
v -0.166631 0.002486 -0.074883
v -0.045864 0.283129 -0.103919
v -0.045864 0.282242 -0.106560
v -0.045864 0.279988 -0.109408
v -0.045864 0.277234 -0.110860
v -0.045864 0.271416 -0.111285
v -0.045864 0.271708 -0.111332
v -0.045864 0.265210 -0.098733
v -0.045864 0.264560 -0.102807
v -0.045864 0.269944 -0.093847
v -0.045864 0.266870 -0.096026
v -0.045864 0.266323 -0.107729
v -0.045864 0.268304 -0.109672
v 0.165134 0.087825 -0.092131
v 0.165134 0.091126 -0.089972
v -0.110423 0.265946 -0.107267
v 0.185989 0.091126 -0.089972
v 0.165134 0.085468 -0.096762
v 0.165134 0.085675 -0.100704
v 0.165134 0.086882 -0.103071
v 0.185989 0.086882 -0.103071
v 0.185989 0.085468 -0.096762
v -0.110423 0.359500 -0.098733
v -0.110423 0.361160 -0.096026
v -0.110423 0.365969 -0.093338
v -0.110423 0.366149 -0.093121
v 0.165134 -0.084231 -0.099393
v 0.165134 -0.084024 -0.095441
v -0.110423 0.360245 -0.107267
v -0.110423 0.358981 -0.104042
v 0.165134 0.095059 -0.106371
v 0.165134 0.089947 -0.105560
v -0.110423 0.362376 -0.109644
v -0.045864 0.358859 -0.102807
v 0.185989 0.091126 -0.106164
v -0.037877 0.399015 -0.079593
v -0.014006 0.386368 -0.079593
v -0.110423 0.386368 -0.079593
v -0.092828 0.386368 -0.079593
v -0.066711 0.399100 -0.079593
v -0.064311 0.399081 -0.079593
v -0.045864 0.359500 -0.098733
v -0.045864 0.360632 -0.107729
v -0.045864 0.362329 -0.109389
v -0.110423 0.365356 -0.111124
v -0.045864 0.366017 -0.111332
v 0.165134 0.096370 -0.089972
v -0.045864 0.364253 -0.093847
v -0.045864 0.361169 -0.096026
v 0.165134 0.099680 -0.092131
v 0.185989 0.099680 -0.092131
v 0.165134 -0.071029 -0.104991
v 0.165134 -0.080992 -0.091228
v 0.165134 -0.070962 -0.091188
v -0.110423 0.375542 -0.096384
v -0.110423 0.377560 -0.101609
v 0.185989 -0.080940 -0.091188
v 0.185989 -0.070962 -0.091188
v 0.185989 -0.068482 -0.094253
v -0.110423 0.366677 -0.092970
v -0.110423 0.370562 -0.093234
v 0.165134 -0.068482 -0.094253
v 0.185989 -0.067463 -0.098072
v 0.165134 -0.067463 -0.098072
v 0.165134 -0.068482 -0.101892
v 0.013303 -0.134762 -0.074867
v 0.010028 -0.135780 -0.074867
v 0.006760 -0.134762 -0.074867
v 0.003606 -0.131093 -0.074867
v 0.002730 -0.127273 -0.074867
v 0.005738 -0.120389 -0.074867
v 0.003087 -0.124642 -0.074867
v -0.110423 0.386368 -0.121922
v 0.165134 -0.078573 -0.106164
v 0.165134 -0.082816 -0.103071
v -0.110423 0.377230 -0.104900
v 0.185989 -0.081883 -0.104014
v -0.110423 0.369412 -0.111539
v -0.110423 0.374655 -0.109097
v -0.177463 -0.400329 0.098417
v -0.156496 -0.400329 0.098417
v 0.165134 -0.075951 -0.106579
v 0.185989 -0.078573 -0.106164
v 0.185989 -0.075951 -0.106579
v -0.110423 0.369638 -0.111369
v 0.116654 0.142845 -0.121922
v 0.141360 0.157898 -0.121922
v 0.118551 0.139450 -0.121922
v 0.185989 0.157898 -0.121922
v 0.015939 -0.122275 -0.074867
v 0.013303 -0.119785 -0.074867
v 0.016458 -0.131093 -0.074867
v 0.017325 -0.127273 -0.074867
v -0.092828 0.386368 -0.121922
v -0.070043 0.400750 -0.121922
v 0.165134 0.101821 -0.095441
v -0.156496 -0.353316 0.098417
v 0.185989 -0.084024 -0.095441
v -0.177463 -0.353316 0.098417
v 0.185989 -0.084024 -0.100704
v -0.071519 0.402552 -0.121922
v 0.165134 0.101217 -0.101892
v -0.061489 0.400364 -0.121922
v -0.065381 0.398959 -0.121922
v -0.043237 0.401137 -0.121922
v -0.059592 0.402552 -0.121922
v -0.072752 0.407390 -0.121922
v 0.185989 -0.075951 -0.089557
v 0.010028 -0.118757 -0.074867
v -0.067505 0.415613 -0.121922
v -0.064578 0.415802 -0.121922
v -0.045597 0.407852 -0.121922
v -0.043748 0.413143 -0.121922
v -0.069751 0.414378 -0.121922
v -0.061359 0.414378 -0.121922
v -0.072435 0.410304 -0.121922
v -0.045362 0.405173 -0.121922
v -0.058327 0.408682 -0.121922
v -0.059292 0.411813 -0.121922
v 0.051972 0.386368 -0.079593
v -0.014006 0.386368 -0.121922
v -0.036037 0.415491 -0.121922
v -0.031447 0.410304 -0.121922
v 0.165134 0.098737 -0.104957
v -0.035048 0.399854 -0.121922
v -0.037075 0.399081 -0.121922
v -0.032550 0.402335 -0.121922
v 0.185989 0.095059 -0.106371
v 0.185989 0.099680 -0.104014
v -0.031091 0.408682 -0.121922
v -0.031293 0.405173 -0.121922
v -0.040610 0.415491 -0.121922
v -0.042524 0.414378 -0.121922
v -0.040424 0.399411 -0.121922
v 0.185989 0.157898 -0.074854
v 0.185989 0.055949 -0.074859
v 0.185989 0.102028 -0.096762
v 0.185989 0.085675 -0.100704
v 0.185989 0.086882 -0.093065
v -0.177463 -0.353293 -0.017125
v 0.185989 0.016849 -0.100704
v 0.185989 0.096370 -0.089972
v 0.185989 0.101821 -0.100704
v -0.177463 -0.400353 -0.017121
v -0.061797 0.400147 -0.079593
v -0.069314 0.400147 -0.079593
v -0.071519 0.402552 -0.079593
v 0.151439 0.138280 -0.074798
v 0.151731 0.145193 -0.074798
v -0.156496 -0.400334 0.004976
v -0.072719 0.406098 -0.079593
v -0.071398 0.412482 -0.079593
v -0.072614 0.409493 -0.079593
v -0.059137 0.403561 -0.079593
v 0.185989 -0.068482 -0.101892
v 0.185989 0.001901 -0.093065
v 0.185989 0.000486 -0.096762
v 0.185989 0.008767 -0.106579
v 0.185989 0.006145 -0.106164
v 0.185989 -0.070962 -0.104957
v 0.185989 0.000694 -0.100704
v -0.170685 -0.400334 -0.037170
v -0.042677 0.115750 -0.074864
v -0.134749 0.103845 -0.074883
v -0.110423 0.157898 -0.041876
v -0.110423 0.275122 -0.041876
v 0.154755 0.153700 -0.074798
v 0.165134 0.006145 -0.089972
v 0.165134 0.002844 -0.092131
v -0.044413 0.412171 -0.079593
v -0.045564 0.408682 -0.079593
v -0.060143 0.413143 -0.079593
v -0.042524 0.414378 -0.079593
v -0.067505 0.415613 -0.079593
v -0.069751 0.414378 -0.079593
v -0.063265 0.415491 -0.079593
v -0.156496 -0.353293 0.004976
v -0.170685 -0.353293 -0.037170
v -0.170685 -0.353293 -0.026919
v -0.170685 -0.345390 -0.034445
v -0.166631 -0.345390 -0.034445
v -0.150414 -0.353293 -0.026919
v -0.134781 0.157898 -0.074873
v -0.166631 -0.302819 -0.074883
v -0.150414 -0.302819 -0.074883
v -0.110423 0.157898 -0.074862
v -0.136695 -0.400334 -0.074883
v -0.136695 -0.353293 -0.074883
v 0.165134 0.011398 -0.089972
v 0.165134 0.014699 -0.092131
v -0.150414 -0.353293 -0.074883
v 0.185989 0.010672 -0.090066
v -0.111494 -0.400334 -0.074883
v 0.165134 0.000694 -0.100704
v 0.165134 0.000486 -0.096762
v 0.165134 0.017056 -0.096762
v 0.165134 0.001901 -0.103071
v 0.165134 0.006862 -0.106070
v 0.185989 0.002844 -0.104014
v -0.111494 -0.291710 -0.074883
v 0.165134 0.012577 -0.105560
v 0.165134 0.015642 -0.103071
v 0.157836 0.157898 -0.074798
v 0.155947 0.155567 -0.074798
v 0.062732 0.157898 -0.074854
v -0.061359 0.414378 -0.079593
v -0.058302 0.407748 -0.079593
v -0.045629 0.407022 -0.079593
v -0.044924 0.404042 -0.079593
v -0.045864 0.371109 -0.093348
v -0.045864 0.367035 -0.092970
v -0.045864 0.377277 -0.100364
v 0.110288 -0.135582 -0.008377
v -0.045864 0.371534 -0.110860
v 0.113670 -0.135365 -0.008377
v -0.111494 -0.205106 -0.074883
v 0.115705 -0.134158 -0.008377
v 0.117845 -0.131093 -0.008377
v -0.042670 0.400647 -0.079593
v -0.040610 0.399383 -0.079593
v -0.033839 0.400750 -0.079593
v -0.032364 0.402552 -0.079593
v -0.110423 0.281243 -0.096384
v -0.110423 0.276806 -0.093329
v -0.110423 0.266870 -0.096026
v -0.110423 0.269979 -0.093817
v -0.110423 0.265201 -0.098733
v 0.113670 -0.119182 -0.008377
v 0.118713 -0.127273 -0.008377
v 0.115705 -0.120389 -0.008377
v 0.185989 0.015642 -0.093065
v 0.185989 0.006145 -0.089972
v 0.117327 -0.122275 -0.008377
v 0.185989 0.016849 -0.095441
v -0.037075 0.415793 -0.079593
v -0.039394 0.415802 -0.079593
v -0.045864 0.374287 -0.109408
v -0.045864 0.372166 -0.110370
v -0.031156 0.406098 -0.079593
v 0.185989 0.011398 -0.106164
v 0.185989 0.014699 -0.104014
v -0.031447 0.410304 -0.079593
v -0.034123 0.414378 -0.079593
v 0.106899 0.129830 -0.008388
v 0.091120 0.115769 -0.008397
v 0.091112 0.115769 -0.008397
v -0.110423 0.283270 -0.101609
v -0.110423 0.281214 -0.096488
v -0.110423 0.273311 -0.093378
v 0.165037 -0.205106 -0.074883
v 0.104815 0.132858 -0.008378
v 0.103915 0.136762 -0.008378
v 0.091112 0.115750 -0.008388
v 0.210930 -0.242820 -0.074883
v 0.165037 -0.242820 -0.074883
v 0.062732 0.115750 -0.008388
v 0.062732 0.157898 -0.008378
v 0.104815 0.140666 -0.008378
v 0.002892 0.139450 -0.074864
v 0.003962 0.131641 -0.074864
v 0.005616 0.129708 -0.074864
v -0.010241 0.115763 -0.074864
v -0.010236 0.120466 -0.074864
v 0.012338 0.128463 -0.074864
v 0.002706 0.135413 -0.074864
v 0.014439 0.129708 -0.074864
v 0.030299 0.120466 -0.074864
v 0.016628 0.132858 -0.074864
v 0.062732 0.115750 -0.074864
v 0.030299 0.115750 -0.074864
v 0.186338 -0.230305 -0.074883
v 0.183419 -0.228872 -0.074883
v 0.189686 -0.230249 -0.074883
v 0.180508 -0.222412 -0.074883
v 0.181335 -0.225967 -0.074883
v 0.182364 -0.216433 -0.074883
v 0.194243 -0.225901 -0.074883
v 0.192532 -0.228400 -0.074883
v 0.195022 -0.221676 -0.074883
v 0.224163 -0.219564 -0.074883
v 0.223134 -0.224355 -0.074883
v 0.189686 -0.213943 -0.074883
v 0.229872 -0.232390 -0.074883
v 0.231485 -0.232343 -0.074883
v 0.236237 -0.228976 -0.074883
v 0.237559 -0.225269 -0.074883
v -0.110423 0.264673 -0.104042
v -0.110423 0.188952 -0.101609
v -0.110423 0.187736 -0.106965
v -0.110423 0.271057 -0.111124
v -0.110423 0.268077 -0.109644
v -0.110423 0.186048 -0.109097
v -0.110423 0.186906 -0.096488
v -0.110423 0.280356 -0.109097
v -0.110423 0.275339 -0.111369
v -0.110423 0.275113 -0.111539
v -0.045864 0.374966 -0.095781
v -0.045864 0.377362 -0.104466
v -0.045864 0.376541 -0.106569
v -0.110423 0.171637 -0.107267
v -0.110423 0.182440 -0.093311
v -0.110423 0.175577 -0.093848
v -0.110423 0.178986 -0.092994
v -0.110423 0.186934 -0.096384
v 0.232175 -0.215725 -0.074883
v 0.237275 -0.221073 -0.074883
v 0.226661 -0.216640 -0.074883
v 0.004654 0.143145 -0.074864
v 0.007360 0.144844 -0.074864
v 0.010028 0.145476 -0.074864
v 0.051972 0.157898 -0.074854
v 0.017528 0.136762 -0.074864
v 0.012347 0.145052 -0.074864
v 0.016101 0.141883 -0.074864
v -0.110423 0.181030 -0.111369
v -0.110423 0.180804 -0.111539
v -0.110423 0.176749 -0.111124
v -0.110423 0.173769 -0.109644
v 0.121203 -0.148719 -0.008377
v 0.003841 -0.148719 0.072504
v 0.056132 -0.148719 0.104266
v 0.009103 -0.148719 0.086150
v 0.009711 -0.148719 0.085056
v 0.010173 -0.148719 0.083868
v 0.010465 -0.148719 0.082614
v -0.000773 -0.148719 0.104266
v 0.004400 -0.148719 0.089404
v 0.005495 -0.148719 0.089111
v 0.006533 -0.148719 0.088621
v 0.007490 -0.148719 0.087951
v 0.008357 -0.148719 0.087121
v -0.000927 -0.148719 0.087951
v 0.000038 -0.148719 0.088621
v -0.008776 -0.148719 0.100730
v 0.009427 -0.148719 0.076371
v 0.008746 -0.148719 0.075333
v 0.007935 -0.148719 0.074428
v 0.007019 -0.148719 0.073673
v 0.006022 -0.148719 0.073098
v 0.004952 -0.148719 0.072702
v 0.001619 -0.148719 0.072702
v 0.000549 -0.148719 0.073098
v -0.012936 -0.148719 0.057113
v 0.002722 -0.148719 0.072504
v -0.012936 -0.148719 0.090120
v -0.003903 -0.148719 0.082614
v -0.003603 -0.148719 0.083868
v -0.003149 -0.148719 0.085056
v -0.002541 -0.148719 0.086150
v -0.011046 -0.148719 0.097552
v -0.012676 -0.148719 0.092874
v -0.001795 -0.148719 0.087121
v -0.000457 -0.148719 0.073673
v -0.001373 -0.148719 0.074428
v -0.002857 -0.148719 0.076371
v -0.003392 -0.148719 0.077512
v -0.002184 -0.148719 0.075333
v -0.003773 -0.148719 0.078738
v -0.003984 -0.148719 0.080020
v -0.004033 -0.148719 0.081322
v -0.004641 -0.148719 0.103370
v 0.001076 -0.148719 0.089111
v 0.010555 -0.148719 0.080020
v 0.009963 -0.148719 0.077512
v 0.010336 -0.148719 0.078738
v 0.010595 -0.148719 0.081322
v 0.002162 -0.148719 0.089404
v 0.003281 -0.148719 0.089507
v 0.007019 -0.176748 0.073673
v 0.007935 -0.176748 0.074428
v 0.006022 -0.176748 0.073098
v 0.019539 -0.205106 0.104266
v 0.019539 -0.205106 0.062112
v 0.019539 -0.176748 0.062112
v 0.056132 -0.205106 0.104266
v 0.019539 -0.176748 0.104266
v -0.012936 -0.205106 0.062112
v -0.012936 -0.176748 0.062112
v -0.012936 -0.176748 0.090120
v -0.001795 -0.176748 0.087121
v -0.000927 -0.176748 0.087951
v 0.000038 -0.176748 0.088621
v -0.002184 -0.176748 0.075333
v -0.001373 -0.176748 0.074428
v -0.002857 -0.176748 0.076371
v -0.003773 -0.176748 0.078738
v -0.003392 -0.176748 0.077512
v 0.010595 -0.176748 0.081322
v 0.010465 -0.176748 0.082614
v 0.010555 -0.176748 0.080020
v 0.009963 -0.176748 0.077512
v 0.010336 -0.176748 0.078738
v 0.009427 -0.176748 0.076371
v 0.003841 -0.176748 0.072504
v 0.004952 -0.176748 0.072702
v 0.002722 -0.176748 0.072504
v 0.001619 -0.176748 0.072702
v -0.003984 -0.176748 0.080020
v -0.004033 -0.176748 0.081322
v -0.011866 -0.176748 0.095194
v -0.012805 -0.176748 0.091505
v -0.011046 -0.176748 0.097547
v -0.010216 -0.176748 0.098827
v -0.006995 -0.176748 0.101753
v -0.005552 -0.176748 0.102948
v -0.009074 -0.176748 0.100425
v -0.002718 -0.176748 0.103816
v -0.000773 -0.176748 0.104266
v 0.004400 -0.176748 0.089404
v 0.007490 -0.176748 0.087951
v 0.006533 -0.176748 0.088621
v 0.009103 -0.176748 0.086150
v 0.008357 -0.176748 0.087121
v 0.010173 -0.176748 0.083868
v 0.009711 -0.176748 0.085056
v 0.003281 -0.176748 0.089507
v 0.002162 -0.176748 0.089404
v 0.008746 -0.176748 0.075333
v -0.002541 -0.176748 0.086150
v -0.003149 -0.176748 0.085056
v 0.001076 -0.176748 0.089111
v -0.000457 -0.176748 0.073673
v 0.000549 -0.176748 0.073098
v -0.003603 -0.176748 0.083868
v -0.003903 -0.176748 0.082614
v 0.005495 -0.176748 0.089111
v -0.012936 -0.205106 0.057113
v -0.156496 -0.376823 0.106904
v -0.156496 -0.373574 0.106258
v -0.156496 -0.370821 0.104418
v -0.156496 -0.368981 0.101665
v -0.156496 -0.368335 0.098417
v -0.156496 -0.368981 0.095169
v -0.156496 -0.370821 0.092415
v -0.156496 -0.373574 0.090575
v -0.156496 -0.376823 0.089929
v -0.156496 -0.380071 0.090575
v -0.156496 -0.382824 0.092415
v -0.156496 -0.384664 0.095169
v -0.156496 -0.385310 0.098417
v -0.156496 -0.384664 0.101665
v -0.156496 -0.382824 0.104418
v -0.156496 -0.380071 0.106258
v -0.156496 -0.376823 0.121922
v -0.156496 -0.367827 0.120133
v -0.156496 -0.360201 0.115038
v -0.156496 -0.355106 0.107412
v -0.156496 -0.398539 0.107412
v -0.156496 -0.393444 0.115038
v -0.156496 -0.385818 0.120133
v -0.177463 -0.376823 0.106904
v -0.177463 -0.373574 0.106258
v -0.177463 -0.370821 0.104418
v -0.177463 -0.368981 0.101665
v -0.177463 -0.368335 0.098417
v -0.177463 -0.368981 0.095169
v -0.177463 -0.370821 0.092415
v -0.177463 -0.373574 0.090575
v -0.177463 -0.376823 0.089929
v -0.177463 -0.380071 0.090575
v -0.177463 -0.382824 0.092415
v -0.177463 -0.384664 0.095169
v -0.177463 -0.385310 0.098417
v -0.177463 -0.384664 0.101665
v -0.177463 -0.382824 0.104418
v -0.177463 -0.380071 0.106258
v -0.177463 -0.376823 0.121922
v -0.177463 -0.367827 0.120133
v -0.177463 -0.360201 0.115038
v -0.177463 -0.355106 0.107412
v -0.177463 -0.398539 0.107412
v -0.177463 -0.393444 0.115038
v -0.177463 -0.385818 0.120133
v 0.051971 0.215547 -0.058587
v 0.051971 0.212699 -0.060275
v 0.051971 0.219536 -0.058294
v 0.051971 0.222347 -0.059369
v 0.051971 0.225204 -0.070648
v 0.051971 0.223035 -0.073034
v 0.051971 0.226138 -0.064707
v 0.051971 0.224714 -0.061510
v 0.051971 0.226364 -0.066810
v 0.051971 0.220894 -0.074138
v 0.051971 0.211529 -0.071299
v 0.051971 0.213387 -0.073138
v 0.051971 0.216716 -0.074524
v 0.051971 0.210775 -0.062708
v 0.051971 0.210021 -0.064999
v 0.051971 0.210313 -0.068989
v 0.051971 0.325426 -0.107154
v 0.051971 0.324153 -0.104419
v 0.051971 0.327086 -0.095931
v 0.051971 0.324700 -0.098893
v 0.051971 0.328632 -0.094960
v 0.051971 0.328453 -0.109766
v 0.051971 0.332556 -0.110653
v 0.051971 0.335262 -0.109936
v 0.051971 0.338261 -0.107955
v 0.051971 0.323917 -0.102014
v 0.051971 0.336375 -0.095375
v 0.051971 0.338638 -0.097346
v 0.051971 0.339874 -0.099647
v 0.051971 0.340100 -0.103740
v 0.051971 0.332348 -0.094243
v -0.018564 0.215547 -0.074222
v -0.018564 0.213387 -0.073138
v -0.018564 0.212010 -0.071950
v -0.018564 0.324285 -0.104702
v -0.018564 0.324040 -0.101213
v -0.018564 0.218631 -0.074581
v -0.018564 0.224714 -0.061510
v -0.018564 0.225940 -0.063821
v -0.018564 0.339497 -0.106116
v -0.018564 0.340261 -0.103825
v -0.018564 0.336375 -0.109455
v -0.018564 0.330745 -0.110530
v -0.018564 0.226355 -0.066206
v -0.018564 0.340270 -0.101213
v -0.018564 0.328453 -0.109766
v -0.018564 0.225327 -0.070139
v -0.018564 0.222347 -0.073449
v -0.018564 0.215547 -0.058587
v -0.018564 0.222347 -0.059369
v -0.018564 0.210021 -0.064999
v -0.018564 0.210445 -0.069262
v -0.018564 0.338638 -0.097346
v -0.018564 0.334913 -0.094687
v -0.018564 0.210775 -0.062708
v -0.018564 0.331952 -0.094187
v -0.018564 0.327086 -0.095931
v -0.018564 0.212699 -0.060275
v -0.018564 0.219536 -0.058294
v -0.018564 0.217852 -0.066407
v -0.018564 0.333043 -0.102414
v -0.246608 -0.394806 -0.017147
v -0.246608 -0.426299 -0.017137
v -0.246608 -0.394806 0.036950
v -0.246608 -0.426299 0.036960
v -0.170685 -0.353293 -0.121922
vn 1.0000 -0.0000 -0.0000
vn -0.0000 1.0000 -0.0000
vn -0.0000 -0.0000 -1.0000
vn 0.0016 -0.0000 -1.0000
vn -1.0000 -0.0000 -0.0000
vn -0.9784 -0.2067 -0.0058
vn -0.0000 -0.0000 1.0000
vn 0.2970 -0.9549 -0.0000
vn 0.9747 0.2235 -0.0000
vn 0.8209 0.5711 -0.0000
vn 0.8217 -0.5699 -0.0000
vn 0.0003 -0.0004 1.0000
vn -0.0000 1.0000 -0.0009
vn -0.0000 -0.0012 1.0000
vn -0.0007 0.0020 1.0000
vn -0.0000 -1.0000 -0.0000
vn -0.9266 -0.3756 -0.0171
vn 0.1136 -0.9935 0.0109
vn -0.4272 0.9041 -0.0000
vn 0.3827 0.9239 -0.0000
vn -0.0003 -0.0002 1.0000
vn -0.0000 -0.0009 1.0000
vn 0.8103 0.5860 -0.0066
vn 0.3770 -0.9262 -0.0000
vn -0.0748 -0.9972 -0.0000
vn -0.4848 -0.8746 -0.0000
vn -0.0005 -0.0017 1.0000
vn 0.0002 -0.0011 1.0000
vn -0.0000 0.0001 1.0000
vn 1.0000 -0.0024 -0.0015
vn -0.0296 0.9996 -0.0000
vn 0.8768 0.4809 -0.0000
vn 0.7160 0.6981 -0.0000
vn -0.0000 0.8511 -0.5249
vn -0.0009 1.0000 0.0012
vn -0.0000 -0.0001 1.0000
vn -0.0000 0.8678 0.4969
vn 0.0001 0.0001 1.0000
vn -0.0048 0.9408 0.3389
vn -0.0001 -0.0001 1.0000
vn -0.0000 0.8681 0.4964
vn -0.0000 0.8683 0.4960
vn 0.0010 0.7003 0.7139
vn -0.0000 0.5475 -0.8368
vn -0.0000 0.8908 0.4543
vn -0.0000 0.9986 0.0526
vn 0.0038 0.9953 -0.0972
vn -0.0052 0.9311 0.3648
vn -0.0000 0.6305 0.7762
vn -0.0099 0.5890 0.8081
vn -0.0000 0.9878 -0.1555
vn -0.2611 0.9653 0.0058
vn -0.5927 0.8054 -0.0021
vn -0.0000 -1.0000 -0.0001
vn -0.0032 0.9408 0.3389
vn 0.0009 0.6991 0.7150
vn -0.0021 0.7445 0.6677
vn -0.0019 0.4661 0.8847
vn -0.0000 0.8525 -0.5228
vn -0.0000 -0.5464 -0.8375
vn -0.0001 0.8511 -0.5249
vn 0.0010 0.3130 -0.9498
vn -0.0006 -0.3070 0.9517
vn -0.0009 0.8117 -0.5840
vn -0.0000 -0.7773 -0.6291
vn -0.0000 -0.9662 -0.2577
vn -0.0001 0.4878 -0.8730
vn -0.0000 -1.0000 0.0003
vn -0.0030 1.0000 0.0036
vn 0.0001 -1.0000 -0.0000
vn -0.0023 1.0000 0.0041
vn -0.0000 -0.9662 0.2577
vn 0.0021 -0.4126 0.9109
vn 0.0102 0.5890 0.8081
vn -0.0000 0.5447 0.8386
vn -0.0000 0.1563 0.9877
vn -0.0032 0.4449 0.8956
vn 0.9163 -0.4004 -0.0000
vn 0.9900 -0.1342 0.0437
vn 0.0079 0.9999 0.0108
vn -0.0000 0.9986 -0.0524
vn -0.0099 1.0000 -0.0000
vn -0.0000 0.8096 -0.5870
vn -0.7583 0.6519 -0.0000
vn -0.9636 -0.2673 -0.0039
vn 0.0005 0.3108 -0.9505
vn -0.0012 -0.3155 -0.9489
vn -0.6867 -0.7269 0.0108
vn -0.2994 -0.9541 0.0058
vn -0.8206 -0.5714 -0.0103
vn -0.0000 -0.3108 -0.9505
vn -0.9752 0.2215 -0.0000
vn -0.0042 1.0000 0.0022
vn -0.0000 -0.3590 0.9333
vn -0.0197 -0.4544 0.8906
vn 0.0197 0.1567 0.9875
vn 0.0067 -0.7773 0.6291
vn -0.0004 -0.0001 1.0000
vn -0.0000 0.9340 -0.3574
vn 0.0200 0.8910 -0.4537
vn -0.0095 0.5890 -0.8081
vn -0.0066 -0.8397 0.5431
vn -0.0000 0.0527 0.9986
vn -0.0000 -0.8397 -0.5431
vn -0.0198 -0.8917 -0.4522
vn 0.0235 -0.9954 0.0931
vn 0.0133 -0.9985 0.0526
vn -0.1800 -0.9837 -0.0000
vn -0.6030 -0.7977 0.0093
vn -0.8729 -0.4879 -0.0000
vn -0.9109 0.4127 -0.0034
vn 0.9777 0.2101 -0.0000
vn 0.9809 -0.1942 -0.0051
vn -0.0255 0.9330 0.3589
vn 0.0258 0.8394 0.5429
vn -0.0000 -0.3092 0.9510
vn -0.0000 -0.7773 0.6291
vn -0.5147 0.8573 -0.0000
vn 0.0014 -0.7725 0.6350
vn -0.0638 0.9980 -0.0003
vn 0.0014 -1.0000 -0.0005
vn -0.9542 0.2992 -0.0000
vn 0.9991 -0.0422 0.0029
vn 0.9894 0.1451 -0.0068
vn 0.7582 0.6519 -0.0081
vn 0.3555 -0.9347 -0.0042
vn 0.4083 0.9128 0.0028
vn 0.2976 0.9547 -0.0029
vn 0.9747 0.2234 -0.0000
vn -0.2969 0.9549 -0.0000
vn 0.4083 -0.9128 -0.0000
vn 0.8486 -0.5290 -0.0000
vn -0.2527 -0.9675 0.0105
vn 0.9263 -0.3768 -0.0033
vn -0.1812 0.9834 0.0087
vn -0.9750 -0.2220 -0.0000
vn -0.0289 -0.9996 -0.0065
vn -0.0001 -1.0000 -0.0000
vn 0.9746 -0.2240 -0.0000
vn -0.0000 1.0000 0.0032
vn 0.0007 -1.0000 0.0002
vn -0.0000 -1.0000 0.0001
vn -0.0000 1.0000 0.0002
vn -0.0002 1.0000 0.0002
vn 0.3236 -0.9462 -0.0000
vn 0.3489 -0.9298 0.1171
vn -0.5071 0.8447 -0.1715
vn 0.0004 -1.0000 -0.0002
vn -0.0000 0.6896 0.7242
vn -1.0000 -0.0006 0.0021
vn -0.9539 0.3001 0.0020
vn 0.3513 -0.9363 -0.0000
vn -0.0000 0.6887 0.7250
vn 0.9706 -0.0000 0.2407
vn -0.0228 -0.5474 -0.8366
vn 0.0153 0.5173 0.8557
vn 0.0324 -0.0887 0.9955
vn -0.0007 0.6889 0.7249
vn -0.0000 -0.0002 1.0000
vn 0.7735 -0.6338 -0.0000
vn 0.7768 -0.6297 0.0002
vn 0.0020 0.0001 1.0000
vn 0.0192 -0.0120 0.9997
vn 0.8988 -0.4384 -0.0020
vn 0.8428 -0.5380 -0.0148
vn 0.9422 -0.3350 0.0032
vn -1.0000 -0.0000 0.0016
vn -0.8479 0.5302 0.0014
vn -0.4489 -0.8936 -0.0000
vn -0.9989 -0.0461 -0.0000
vn 0.0020 -0.4129 0.9108
vn -0.0015 0.2747 -0.9615
vn 0.4106 0.9118 -0.0000
vn 0.3731 0.9278 0.0068
vn 0.0004 -0.0678 -0.9977
vn 0.0118 -0.6130 0.7900
vn 0.5102 -0.8601 -0.0000
vn 0.0031 -0.5346 -0.8451
vn 0.0119 -0.9999 0.0038
vn -0.0030 1.0000 0.0001
vn -0.0005 -0.0000 1.0000
vn -0.7736 0.6337 0.0002
vn -0.7047 0.7095 0.0051
vn -0.3948 0.9187 -0.0082
vn -0.0001 0.9875 -0.1577
vn -0.0001 -0.0002 1.0000
vn -0.0045 -0.0000 -1.0000
vn -0.0000 -0.0208 -0.9998
vn -0.0150 -0.5166 -0.8561
vn -0.0000 1.0000 0.0001
vn 0.4083 -0.9128 -0.0024
vn -0.0000 -1.0000 0.0018
vn -0.0612 -0.9981 -0.0000
vn -0.0640 0.9979 -0.0000
vn -0.5101 0.8601 -0.0000
vn -0.8199 0.5726 -0.0000
vn -0.9163 -0.4004 -0.0000
vn 0.0578 -0.9983 -0.0000
vn 0.0200 -0.8914 -0.4528
vn -0.0236 -0.9755 0.2187
vn 0.9992 -0.0391 -0.0000
vn -0.0037 -0.8929 -0.4502
vn 0.0030 -0.5335 -0.8458
vn 0.0199 -0.8910 -0.4537
vn -0.0000 0.8386 0.5448
vn 0.9731 0.2304 0.0053
vn 0.0029 -0.9328 -0.3603
vn -0.0077 -0.0852 0.9963
vn 0.4141 -0.9102 -0.0052
vn -0.9636 -0.2673 -0.0000
vn -0.7581 -0.6518 0.0194
vn 0.0014 -0.9950 0.0998
vn -0.5101 -0.8601 -0.0000
vn 0.0098 0.1563 0.9877
vn 0.7370 0.6759 -0.0000
vn 0.7735 0.6337 -0.0043
vn 0.0198 -0.1557 0.9876
vn -0.0066 -0.5458 0.8379
vn 0.3587 0.9334 0.0082
vn 0.0066 -0.6305 0.7762
vn -0.0133 -0.8385 0.5447
vn -0.7555 0.6551 -0.0075
vn 0.0225 0.5457 0.8377
vn -0.0197 0.8907 0.4542
vn -0.0003 -0.0005 1.0000
vn -0.9466 0.3225 0.0025
vn -0.3903 0.9206 0.0072
vn -0.3396 0.9406 0.0023
vn -0.8356 -0.5488 0.0233
vn -0.9976 -0.0692 -0.0000
vn -0.7889 0.6146 -0.0026
vn 0.0078 1.0000 -0.0031
vn -0.4322 -0.9018 -0.0042
vn 0.9691 0.2469 -0.0000
vn 0.9995 -0.0310 -0.0017
vn -0.7786 -0.6276 -0.0000
vn -0.7126 -0.7015 0.0077
vn -0.9464 -0.3229 -0.0089
vn 0.9942 -0.1079 0.0021
vn -0.9794 0.2021 0.0057
vn -0.9556 -0.2945 -0.0059
vn -0.4046 -0.9145 0.0058
vn -0.9144 0.4048 -0.0059
vn 0.4820 -0.8762 -0.0000
vn 0.0981 0.9952 0.0034
vn -0.5043 -0.8635 -0.0000
vn 0.9496 -0.3133 0.0054
vn 0.0643 -0.9979 -0.0000
vn -0.9807 0.1956 0.0049
vn 0.9472 0.3205 0.0091
vn 0.7596 -0.6503 -0.0000
vn 0.7550 -0.6556 0.0152
vn 0.0062 0.0003 1.0000
vn -0.0011 -0.0003 1.0000
vn 0.0009 -0.0025 1.0000
vn 1.0000 -0.0017 -0.0034
vn -0.0000 0.0020 1.0000
vn 0.0004 -0.0002 1.0000
vn -0.0004 -0.0008 1.0000
vn -0.0032 -1.0000 -0.0000
vn 0.7583 -0.6519 -0.0000
vn 0.9744 -0.2246 -0.0000
vn 0.7598 0.6501 0.0082
vn 1.0000 -0.0011 -0.0000
vn 0.4408 0.8976 -0.0000
vn 0.8212 0.5707 -0.0000
vn -0.0169 0.9999 -0.0000
vn 0.4593 0.8883 -0.0000
vn -0.5099 0.8602 0.0088
vn -0.6047 0.7965 -0.0001
vn -0.8212 0.5707 -0.0027
vn 0.9997 -0.0261 -0.0003
vn -0.0676 0.9977 -0.0000
vn 0.4496 0.8932 -0.0008
vn 0.9239 -0.3828 -0.0000
vn 0.6776 -0.7354 -0.0000
vn -0.0000 -1.0000 -0.0002
vn 0.9550 -0.2966 -0.0093
vn 0.7103 -0.7039 -0.0050
vn -0.9766 -0.2147 -0.0146
vn -0.7489 -0.6627 -0.0000
vn -0.8252 0.5649 -0.0000
vn -0.3564 0.9343 -0.0053
vn 0.1334 0.9911 0.0013
vn -0.9661 -0.2582 -0.0030
vn -0.8264 -0.5631 -0.0000
vn -0.0000 -1.0000 0.0074
vn -0.8347 -0.5507 0.0013
vn 0.5027 -0.8644 -0.0000
vn -0.0041 -1.0000 0.0070
vn 0.9961 0.0874 -0.0080
vn 0.9440 -0.3299 0.0073
vn 0.9544 -0.2984 0.0013
vn -0.9983 0.0577 0.0020
vn 0.9777 -0.2101 -0.0036
vn -0.0068 -0.1108 0.9938
vn 0.9981 0.0602 0.0101
vn 0.5230 0.8523 0.0029
vn 0.0021 0.1057 0.9944
vn 0.8331 0.5531 -0.0048
vn 0.9896 0.1440 0.0048
vn 0.5229 0.8524 0.0029
vn 0.8849 0.4657 0.0033
vn -0.8723 0.4889 0.0026
vn -0.0008 -0.0000 1.0000
vn 0.0002 -1.0000 -0.0003
vn -0.9982 -0.0600 -0.0019
vn 0.3317 0.9434 0.0042
vn 0.3398 0.9405 -0.0024
vn -0.0292 0.9996 0.0054
vn -0.0048 0.9414 0.3372
vn 0.0695 0.9976 -0.0000
vn 0.0036 0.9951 -0.0990
vn -0.0028 0.9302 0.3672
vn -0.0023 0.7445 0.6677
vn -0.9419 0.3359 -0.0044
vn 0.9744 0.2246 -0.0000
vn 0.8351 -0.5501 -0.0000
vn -1.0000 0.0001 -0.0000
vn -0.0015 -0.7831 0.6218
vn -0.0091 0.7709 -0.6368
vn 0.0033 -0.4394 0.8983
vn -1.0000 0.0012 -0.0000
vn -0.0000 -0.9217 0.3879
vn -0.0025 0.0917 -0.9958
vn -0.0005 -0.9316 0.3635
vn 0.0113 -0.5998 0.8001
vn 0.0022 0.1018 0.9948
vn 0.0177 -0.9951 -0.0972
vn -0.0003 0.4601 0.8879
vn 0.0005 0.3007 -0.9537
vn -0.0029 0.9301 0.3672
vn -0.0010 -0.0922 -0.9957
vn 0.0044 -0.8524 0.5229
vn -0.0040 -0.9998 -0.0207
vn -0.0012 0.4449 0.8956
vn 0.0089 0.5769 -0.8167
vn -0.0075 -0.9888 -0.1490
vn -0.0000 0.5787 -0.8155
vn -0.0000 -0.7296 -0.6839
vn -0.0003 -0.3081 -0.9513
vn -0.0010 -0.7388 0.6740
vn -0.7567 0.6538 -0.0000
vn -0.8141 0.5807 0.0049
vn 0.5284 0.8490 -0.0004
vn -0.9682 0.2500 0.0001
vn -0.0000 0.5770 -0.8168
vn 0.8395 0.5434 -0.0000
vn 0.8237 0.5670 -0.0000
vn 0.8212 0.5707 0.0001
vn 0.0005 -1.0000 -0.0002
vn 0.9487 0.3161 -0.0026
vn 0.9909 -0.1345 -0.0076
vn 0.9989 -0.0461 -0.0000
vn 0.9026 -0.4305 -0.0000
vn 0.9744 0.2246 0.0027
vn 0.5313 -0.8459 0.0465
vn 0.4419 -0.8970 0.0063
vn -0.1804 -0.9836 0.0090
vn 0.2305 -0.9731 -0.0012
vn -0.1800 -0.9836 0.0090
vn -0.6450 -0.7642 -0.0042
vn -0.7582 -0.6519 0.0084
vn -0.9633 -0.2685 -0.0038
vn -0.8358 -0.5490 0.0063
vn -0.9909 0.1340 -0.0078
vn -0.9977 -0.0675 -0.0025
vn -0.9744 -0.2246 -0.0000
vn -0.9744 0.2246 -0.0000
vn -0.4649 -0.8853 -0.0000
vn -0.1099 -0.9939 -0.0000
vn -0.7567 -0.6538 -0.0000
vn 0.7603 -0.6495 -0.0021
vn 0.3422 -0.9396 -0.0024
vn 0.7018 -0.7124 0.0043
vn 0.0002 -0.0001 1.0000
vn 0.0001 -0.0001 1.0000
vn 0.5335 -0.8457 -0.0098
vn -0.9834 0.1812 -0.0004
vn -0.8364 0.5481 0.0013
vn -0.5447 0.8386 -0.0000
vn 0.8125 0.5829 -0.0000
vn 0.9740 0.2266 0.0046
vn 0.9558 0.2940 -0.0024
vn 0.7598 0.6501 -0.0065
vn -0.9912 0.1326 0.0039
vn -0.0000 -0.0006 1.0000
vn -0.0002 -0.0001 1.0000
vn -0.0002 -0.0002 1.0000
vn -0.0001 -0.0005 1.0000
vn -0.0094 0.0727 -0.9973
vn -0.0013 0.4449 0.8956
vn 0.0118 -0.6131 0.7899
vn 0.8942 -0.4465 -0.0337
vn -0.0016 0.4402 0.8979
vn -0.0015 -0.7839 0.6209
vn -0.0058 -0.9943 -0.1064
vn -0.0077 -0.0850 0.9964
vn 0.0010 -0.9487 0.3162
vn -0.0014 -0.7831 0.6218
vn -0.0000 -0.5335 -0.8458
vn 0.0031 -0.9286 -0.3711
vn -0.0055 0.7444 0.6677
vn 0.0014 0.6626 0.7490
vn 0.0059 -0.9751 0.2215
vn -0.0005 -0.0913 -0.9958
vn -0.0002 0.2431 -0.9700
vn -0.0111 -0.9646 0.2635
vn -0.0024 -0.8855 -0.4647
vn 0.0113 -0.6000 0.7999
vn 0.0027 -0.5646 -0.8254
vn 0.0020 -0.4126 0.9109
vn -0.0006 0.5855 -0.8107
vn -0.6356 -0.0000 0.7720
vn -0.4996 -0.0000 0.8662
vn 0.8659 -0.0000 0.5002
vn 0.6912 -0.0000 -0.7227
vn 0.5701 -0.0000 -0.8215
vn 0.7449 -0.0000 0.6671
vn 0.8389 -0.0000 0.5443
vn 0.9549 -0.0000 0.2968
vn -0.9950 -0.0000 -0.0999
vn -0.9995 -0.0000 0.0311
vn -0.9567 -0.0000 0.2910
vn -0.9054 -0.0000 0.4246
vn -0.1755 -0.0000 0.9845
vn 0.1768 -0.0000 0.9843
vn 0.9868 -0.0000 0.1622
vn 0.9993 -0.0000 0.0374
vn -0.9691 -0.0076 0.2467
vn -0.9956 -0.0000 0.0938
vn -0.9443 -0.0001 0.3290
vn -0.8137 0.0023 0.5813
vn -0.8389 -0.0001 0.5443
vn -0.6379 0.0091 0.7700
vn -0.5382 -0.0034 0.8428
vn -0.2927 -0.0049 0.9562
vn -0.2257 -0.0000 0.9742
vn -0.8740 -0.0000 -0.4859
vn -0.9320 -0.0000 -0.3625
vn -0.9740 -0.0000 -0.2267
vn -0.9857 -0.0000 0.1683
vn -0.0923 -0.0000 -0.9957
vn -0.2580 -0.0000 -0.9661
vn -0.4272 -0.0000 -0.9042
vn -0.5734 -0.0000 -0.8193
vn -0.6912 -0.0000 -0.7226
vn -0.6912 -0.0000 -0.7227
vn -0.7931 -0.0000 -0.6090
vn -0.7931 -0.0000 -0.6091
vn 0.2599 -0.0000 -0.9656
vn 0.2598 -0.0000 -0.9657
vn 0.0923 -0.0000 -0.9957
vn -0.8359 -0.0000 0.5489
vn -0.7449 -0.0000 0.6671
vn -0.9383 -0.0001 0.3458
vn -0.3471 -0.0000 0.9378
vn -0.3470 -0.0000 0.9378
vn 0.3470 -0.0000 0.9378
vn 0.3470 -0.0000 0.9379
vn 0.4966 -0.0000 0.8680
vn 0.9950 -0.0000 -0.0999
vn 0.9726 -0.0000 -0.2326
vn 0.9341 -0.0000 -0.3570
vn 0.8740 -0.0000 -0.4859
vn 0.7932 -0.0000 -0.6090
vn 0.4272 -0.0000 -0.9042
vn 0.6356 -0.0000 0.7720
vn 0.6357 -0.0000 0.7720
vn 0.9054 -0.0000 0.4246
vn -0.9383 -0.0000 0.3457
vn 0.8652 0.0030 0.5013
vn 0.8641 -0.0002 0.5034
vn -0.0002 -0.0003 1.0000
vn -0.0001 -0.0000 1.0000
vn -0.0001 0.0001 1.0000
vn -0.0002 0.0001 1.0000
vn -0.0005 -0.0002 1.0000
vn -0.0000 0.1951 -0.9808
vn -0.0000 -0.8315 -0.5556
vn -0.0000 -0.8315 0.5556
vn -0.0000 0.1951 0.9808
vn -0.0000 -0.9808 -0.1951
vn -0.0000 -0.5556 0.8315
vn -0.0000 0.5556 0.8315
vn -0.0000 -0.9808 0.1951
vn -0.0000 -0.1951 0.9808
vn -0.0000 0.8315 0.5556
vn -0.0000 0.9808 0.1951
vn -0.0000 0.9808 -0.1951
vn -0.0000 0.8315 -0.5556
vn -0.0000 -0.1951 -0.9808
vn -0.0000 0.5556 -0.8315
vn -0.0000 -0.5556 -0.8315
vn -0.0000 0.9066 0.4220
vn 0.0050 -0.7304 0.6830
vn -0.0025 0.6533 0.7571
vn -0.0000 0.7035 0.7107
vn -0.0000 0.5099 -0.8603
vn -0.0000 0.0731 -0.9973
vn -0.0000 -0.3573 -0.9340
vn 0.0033 -0.7432 0.6691
vn 0.0036 -0.7399 0.6727
vn -0.0033 -0.0922 0.9957
vn -0.0000 0.9951 0.0991
vn 0.0016 0.9973 0.0731
vn 0.0096 0.7720 0.6355
vn 0.0023 0.1154 0.9933
vn 0.0041 -0.5810 -0.8139
vn -0.0024 0.3844 0.9232
vn -0.0000 0.4488 0.8936
vn -0.0000 0.7844 -0.6202
vn -0.0000 0.9499 -0.3127
vn -0.0056 -0.9166 0.3998
vn -0.0000 -0.6707 -0.7417
vn -0.0030 -0.5511 0.8345
vn 0.0037 -0.1876 0.9822
vn 0.0083 -0.2560 0.9667
vn -0.0011 0.9700 -0.2432
vn 0.0025 0.9975 0.0701
vn -0.0044 -0.9985 -0.0552
vn -0.0019 0.1894 -0.9819
vn 0.0083 0.8662 -0.4996
vn -0.0023 -1.0000 0.0036
vn -0.0025 -0.9487 0.3162
vn 0.0015 0.9952 0.0975
vn -0.0065 0.3162 0.9487
vn -0.0000 0.2112 0.9774
vn -0.0000 0.6533 0.7571
vn -0.0038 -0.2705 -0.9627
vn 0.0001 -0.1664 -0.9861
vn -0.0008 -0.4581 0.8889
vn 0.0033 -0.2913 0.9566
vn 0.0012 0.8641 0.5033
vn -0.0000 -0.9135 -0.4069
vn -0.0034 -0.8833 -0.4687
vn 0.0006 -0.9852 -0.1713
vn -0.0008 -0.9943 -0.1070
vn -0.0002 0.8848 0.4659
vn -0.0000 -0.6708 -0.7417
vn 0.0004 -0.9572 0.2893
vn 0.0023 -0.9675 0.2529
vn -0.0000 0.9498 -0.3127
vn -0.0000 -0.6567 -0.7541
vn -0.0000 0.5319 -0.8468
vn -0.0000 0.7787 -0.6274
vn 0.0056 0.3375 -0.9413
vn -0.0000 -0.8810 -0.4731
vn 0.0035 -0.9213 -0.3888
vn 0.6160 0.0001 0.7877
vn -0.4798 0.8774 -0.0000
vn -0.8098 -0.0001 -0.5868
vt 0.000000 0.000000
s 0
usemtl Material.065
f 1/1/1 3/1/1 2/1/1
f 3/1/1 4/1/1 2/1/1
f 5/1/2 7/1/2 6/1/2
f 7/1/2 9/1/2 8/1/2
f 9/1/2 7/1/2 5/1/2
f 757/1/3 10/1/3 12/1/3
f 26/1/3 19/1/3 24/1/3
f 19/1/3 30/1/3 29/1/3
f 24/1/3 19/1/3 29/1/3
f 30/1/3 19/1/3 31/1/3
f 30/1/3 31/1/3 32/1/3
f 31/1/3 33/1/3 32/1/3
f 33/1/3 35/1/3 34/1/3
f 35/1/3 33/1/3 31/1/3
f 27/1/3 36/1/3 42/1/3
f 108/1/3 39/1/3 45/1/3
f 39/1/3 40/1/3 31/1/3
f 35/1/3 31/1/3 40/1/3
f 34/1/3 35/1/3 41/1/3
f 16/1/3 19/1/3 26/1/3
f 36/1/3 34/1/3 42/1/3
f 27/1/3 42/1/3 38/1/3
f 43/1/3 45/1/3 44/1/3
f 46/1/3 48/1/3 47/1/3
f 49/1/3 51/1/3 50/1/3
f 52/1/3 51/1/3 49/1/3
f 46/1/3 52/1/3 48/1/3
f 46/1/3 47/1/3 53/1/3
f 52/1/3 46/1/3 51/1/3
f 16/1/3 26/1/3 21/1/3
f 50/1/3 51/1/3 43/1/3
f 19/1/2 54/1/2 31/1/2
f 45/1/3 55/1/3 44/1/3
f 45/1/3 43/1/3 51/1/3
f 55/1/3 45/1/3 56/1/3
f 58/1/3 46/1/3 53/1/3
f 46/1/4 60/1/4 59/1/4
f 61/1/3 59/1/3 60/1/3
f 62/1/5 64/1/5 63/1/5
f 65/1/3 66/1/3 2/1/3
f 66/1/3 67/1/3 2/1/3
f 67/1/3 68/1/3 2/1/3
f 69/1/6 71/1/6 70/1/6
f 72/1/7 64/1/7 73/1/7
f 73/1/7 64/1/7 74/1/7
f 64/1/7 75/1/7 74/1/7
f 57/1/7 75/1/7 64/1/7
f 57/1/7 76/1/7 75/1/7
f 78/1/8 80/1/8 79/1/8
f 75/1/9 76/1/9 38/1/9
f 38/1/10 77/1/10 37/1/10
f 73/1/11 74/1/11 41/1/11
f 81/1/12 83/1/12 82/1/12
f 84/1/13 85/1/13 82/1/13
f 85/1/14 81/1/14 82/1/14
f 81/1/14 85/1/14 86/1/14
f 4/1/3 88/1/3 87/1/3
f 88/1/3 59/1/3 61/1/3
f 89/1/5 90/1/5 81/1/5
f 87/1/3 91/1/3 4/1/3
f 91/1/3 92/1/3 4/1/3
f 2/1/3 92/1/3 65/1/3
f 92/1/3 2/1/3 4/1/3
f 90/1/5 89/1/5 93/1/5
f 94/1/3 96/1/3 95/1/3
f 96/1/3 94/1/3 69/1/3
f 69/1/3 94/1/3 97/1/3
f 93/1/3 89/1/3 98/1/3
f 71/1/3 97/1/3 58/1/3
f 46/1/3 58/1/3 60/1/3
f 71/1/3 58/1/3 53/1/3
f 97/1/3 71/1/3 69/1/3
f 99/1/3 101/1/3 100/1/3
f 81/1/15 90/1/15 102/1/15
f 99/1/3 56/1/3 45/1/3
f 96/1/3 68/1/3 95/1/3
f 99/1/3 103/1/3 101/1/3
f 103/1/3 96/1/3 69/1/3
f 56/1/3 99/1/3 100/1/3
f 68/1/3 96/1/3 2/1/3
f 39/1/3 110/1/3 109/1/3
f 39/1/3 108/1/3 110/1/3
f 111/1/3 39/1/3 109/1/3
f 40/1/3 39/1/3 111/1/3
f 39/1/5 270/1/5 416/1/5
f 293/1/5 39/1/5 245/1/5
f 112/1/3 113/1/3 99/1/3
f 103/1/3 99/1/3 96/1/3
f 39/1/3 99/1/3 45/1/3
f 96/1/3 113/1/3 114/1/3
f 96/1/3 99/1/3 113/1/3
f 88/1/3 4/1/3 59/1/3
f 4/1/16 119/1/16 59/1/16
f 46/1/5 59/1/5 119/1/5
f 66/1/17 65/1/17 120/1/17
f 68/1/18 121/1/18 95/1/18
f 122/1/1 123/1/1 98/1/1
f 123/1/1 122/1/1 124/1/1
f 90/1/16 98/1/16 123/1/16
f 93/1/16 98/1/16 90/1/16
f 122/1/3 98/1/3 89/1/3
f 87/1/19 88/1/19 125/1/19
f 60/1/20 126/1/20 61/1/20
f 90/1/7 124/1/7 102/1/7
f 124/1/7 90/1/7 123/1/7
f 127/1/21 81/1/21 102/1/21
f 81/1/22 127/1/22 128/1/22
f 129/1/7 131/1/7 130/1/7
f 79/1/7 131/1/7 129/1/7
f 132/1/7 129/1/7 130/1/7
f 128/1/7 132/1/7 133/1/7
f 134/1/23 60/1/23 58/1/23
f 135/1/24 56/1/24 100/1/24
f 100/1/25 101/1/25 135/1/25
f 136/1/26 101/1/26 103/1/26
f 81/1/27 133/1/27 83/1/27
f 128/1/28 133/1/28 81/1/28
f 537/1/7 77/1/7 57/1/7
f 77/1/7 537/1/7 431/1/7
f 139/1/7 140/1/7 129/1/7
f 21/1/3 26/1/3 25/1/3
f 21/1/3 38/1/3 37/1/3
f 132/1/7 141/1/7 129/1/7
f 139/1/7 129/1/7 141/1/7
f 132/1/7 128/1/7 141/1/7
f 314/1/5 188/1/5 320/1/5
f 216/1/5 407/1/5 386/1/5
f 142/1/29 143/1/29 137/1/29
f 342/1/5 188/1/5 249/1/5
f 292/1/5 39/1/5 293/1/5
f 249/1/5 188/1/5 250/1/5
f 143/1/30 144/1/30 137/1/30
f 144/1/1 143/1/1 145/1/1
f 39/1/31 143/1/31 142/1/31
f 146/1/32 102/1/32 147/1/32
f 102/1/32 146/1/32 127/1/32
f 124/1/33 147/1/33 102/1/33
f 148/1/1 122/1/1 149/1/1
f 122/1/1 148/1/1 124/1/1
f 152/1/3 153/1/3 154/1/3
f 175/1/3 154/1/3 156/1/3 180/1/3
f 15/1/3 17/1/3 16/1/3
f 158/1/3 99/1/3 39/1/3
f 99/1/3 158/1/3 159/1/3
f 160/1/3 162/1/3 161/1/3
f 162/1/3 164/1/3 163/1/3
f 160/1/3 166/1/3 165/1/3
f 161/1/3 162/1/3 163/1/3
f 162/1/3 160/1/3 165/1/3
f 164/1/3 162/1/3 168/1/3
f 118/1/3 162/1/3 167/1/3
f 169/1/3 165/1/3 166/1/3
f 170/1/3 171/1/3 165/1/3
f 172/1/3 174/1/3 173/1/3
f 165/1/3 172/1/3 170/1/3
f 118/1/3 168/1/3 162/1/3
f 118/1/3 175/1/3 168/1/3
f 176/1/3 22/1/3 177/1/3
f 22/1/3 178/1/3 177/1/3
f 178/1/3 165/1/3 169/1/3
f 178/1/3 22/1/3 165/1/3
f 165/1/3 22/1/3 172/1/3
f 157/1/3 176/1/3 156/1/3
f 181/1/3 22/1/3 182/1/3
f 183/1/3 22/1/3 181/1/3
f 22/1/3 183/1/3 172/1/3
f 172/1/3 183/1/3 174/1/3
f 182/1/3 22/1/3 80/1/3
f 172/1/3 173/1/3 84/1/3
f 184/1/3 84/1/3 185/1/3
f 84/1/3 184/1/3 172/1/3
f 186/1/3 184/1/3 185/1/3
f 184/1/3 188/1/3 187/1/3
f 188/1/3 159/1/3 158/1/3
f 147/1/33 124/1/33 148/1/33
f 193/1/2 23/1/2 189/1/2
f 194/1/5 192/1/5 195/1/5
f 196/1/5 192/1/5 194/1/5
f 196/1/5 191/1/5 192/1/5
f 196/1/5 197/1/5 191/1/5
f 198/1/34 195/1/34 199/1/34
f 63/1/35 39/1/35 31/1/35
f 300/1/5 39/1/5 292/1/5
f 204/1/5 192/1/5 200/1/5
f 192/1/5 204/1/5 195/1/5
f 200/1/5 205/1/5 204/1/5
f 206/1/5 204/1/5 205/1/5
f 202/1/5 204/1/5 203/1/5
f 204/1/5 208/1/5 207/1/5
f 204/1/5 202/1/5 201/1/5
f 96/1/1 210/1/1 209/1/1
f 210/1/1 96/1/1 114/1/1
f 211/1/36 209/1/36 210/1/36
f 204/1/5 206/1/5 203/1/5
f 113/1/37 211/1/37 210/1/37
f 212/1/38 142/1/38 137/1/38
f 208/1/5 204/1/5 201/1/5
f 207/1/39 213/1/39 204/1/39
f 142/1/40 212/1/40 214/1/40
f 211/1/7 215/1/7 212/1/7
f 112/1/1 215/1/1 113/1/1
f 113/1/1 215/1/1 211/1/1
f 214/1/36 216/1/36 142/1/36
f 215/1/41 112/1/41 212/1/41
f 112/1/41 99/1/41 212/1/41
f 114/1/42 113/1/42 210/1/42
f 119/1/16 4/1/16 3/1/16
f 416/1/5 419/1/5 158/1/5
f 15/1/5 218/1/5 17/1/5
f 218/1/5 219/1/5 17/1/5
f 42/1/3 34/1/3 41/1/3
f 226/1/5 117/1/5 227/1/5
f 117/1/5 229/1/5 228/1/5
f 117/1/5 115/1/5 116/1/5
f 229/1/5 117/1/5 226/1/5
f 230/1/5 117/1/5 231/1/5
f 117/1/5 230/1/5 227/1/5
f 234/1/43 230/1/43 231/1/43
f 232/1/44 233/1/44 235/1/44
f 238/1/45 237/1/45 239/1/45
f 220/1/5 117/1/5 116/1/5
f 220/1/5 221/1/5 117/1/5
f 221/1/5 222/1/5 117/1/5
f 223/1/5 225/1/5 117/1/5
f 224/1/5 231/1/5 117/1/5
f 237/1/46 236/1/46 240/1/46
f 117/1/5 222/1/5 151/1/5
f 223/1/5 117/1/5 151/1/5
f 117/1/5 225/1/5 224/1/5
f 193/1/5 242/1/5 241/1/5
f 243/1/5 193/1/5 244/1/5
f 415/1/5 416/1/5 270/1/5
f 158/1/5 238/1/5 250/1/5
f 155/1/5 248/1/5 247/1/5
f 251/1/5 155/1/5 247/1/5
f 252/1/47 248/1/47 241/1/47
f 252/1/48 247/1/48 248/1/48
f 239/1/49 250/1/49 238/1/49
f 250/1/50 239/1/50 253/1/50
f 254/1/7 189/1/7 255/1/7
f 193/1/7 257/1/7 256/1/7
f 258/1/7 189/1/7 259/1/7
f 252/1/51 241/1/51 260/1/51
f 84/1/52 82/1/52 185/1/52
f 185/1/53 82/1/53 83/1/53
f 81/1/54 172/1/54 184/1/54
f 261/1/55 247/1/55 252/1/55
f 149/1/16 89/1/16 187/1/16
f 247/1/56 261/1/56 262/1/56
f 89/1/5 184/1/5 187/1/5
f 184/1/5 89/1/5 81/1/5
f 251/1/57 247/1/57 262/1/57
f 263/1/58 262/1/58 264/1/58
f 266/1/5 262/1/5 261/1/5
f 266/1/5 252/1/5 260/1/5
f 266/1/5 260/1/5 267/1/5
f 266/1/5 261/1/5 252/1/5
f 241/1/59 242/1/59 260/1/59
f 269/1/60 265/1/60 268/1/60
f 267/1/61 260/1/61 242/1/61
f 300/1/5 270/1/5 39/1/5
f 275/1/62 271/1/62 217/1/62
f 378/1/63 270/1/63 300/1/63
f 256/1/5 274/1/5 273/1/5
f 275/1/64 246/1/64 271/1/64
f 272/1/65 277/1/65 276/1/65
f 193/1/5 243/1/5 242/1/5
f 193/1/5 278/1/5 244/1/5
f 278/1/5 256/1/5 279/1/5
f 256/1/5 278/1/5 193/1/5
f 279/1/5 256/1/5 273/1/5
f 277/1/66 282/1/66 281/1/66
f 158/1/5 236/1/5 237/1/5
f 150/1/5 233/1/5 216/1/5
f 216/1/5 280/1/5 272/1/5
f 158/1/5 39/1/5 416/1/5
f 408/1/5 236/1/5 414/1/5
f 242/1/67 243/1/67 267/1/67
f 21/1/68 45/1/68 138/1/68
f 157/1/2 339/1/2 338/1/2
f 558/1/2 561/1/2 538/1/2
f 538/1/2 561/1/2 562/1/2
f 339/1/2 255/1/2 338/1/2
f 561/1/69 557/1/69 57/1/69
f 138/1/70 591/1/70 21/1/70
f 21/1/16 591/1/16 645/1/16
f 57/1/71 557/1/71 556/1/71
f 57/1/69 556/1/69 555/1/69
f 14/1/7 285/1/7 286/1/7
f 54/1/7 287/1/7 288/1/7
f 272/1/65 280/1/65 277/1/65
f 282/1/66 277/1/66 280/1/66
f 282/1/72 283/1/72 281/1/72
f 233/1/5 408/1/5 407/1/5
f 386/1/5 387/1/5 216/1/5
f 233/1/5 232/1/5 408/1/5
f 297/1/73 303/1/73 456/1/73
f 274/1/5 256/1/5 291/1/5
f 257/1/2 291/1/2 256/1/2
f 150/1/5 314/1/5 268/1/5
f 387/1/5 413/1/5 216/1/5
f 291/1/5 294/1/5 274/1/5
f 293/1/74 295/1/74 292/1/74
f 263/1/5 155/1/5 251/1/5
f 291/1/5 263/1/5 296/1/5
f 150/1/5 268/1/5 265/1/5
f 271/1/5 246/1/5 142/1/5
f 250/1/5 188/1/5 158/1/5
f 291/1/5 297/1/5 294/1/5
f 413/1/5 412/1/5 282/1/5
f 295/1/75 301/1/75 292/1/75
f 301/1/76 302/1/76 292/1/76
f 302/1/76 300/1/76 292/1/76
f 262/1/77 263/1/77 251/1/77
f 263/1/5 291/1/5 155/1/5
f 303/1/5 291/1/5 296/1/5
f 297/1/5 291/1/5 303/1/5
f 80/1/3 305/1/3 304/1/3
f 305/1/3 80/1/3 22/1/3
f 186/1/3 305/1/3 184/1/3
f 305/1/3 306/1/3 304/1/3
f 305/1/3 186/1/3 306/1/3
f 30/1/78 288/1/78 29/1/78
f 290/1/79 288/1/79 30/1/79
f 189/1/7 338/1/7 255/1/7
f 14/1/7 62/1/7 285/1/7
f 188/1/3 307/1/3 159/1/3
f 305/1/3 307/1/3 188/1/3
f 188/1/3 184/1/3 305/1/3
f 537/1/80 57/1/80 555/1/80
f 63/1/7 311/1/7 62/1/7
f 284/1/7 62/1/7 310/1/7
f 308/1/7 311/1/7 63/1/7
f 310/1/7 62/1/7 311/1/7
f 308/1/7 63/1/7 309/1/7
f 312/1/3 155/1/3 291/1/3
f 313/1/3 155/1/3 312/1/3
f 232/1/5 236/1/5 408/1/5
f 420/1/5 414/1/5 158/1/5
f 412/1/5 415/1/5 283/1/5
f 246/1/5 245/1/5 142/1/5
f 413/1/5 282/1/5 216/1/5
f 415/1/5 270/1/5 283/1/5
f 414/1/5 236/1/5 158/1/5
f 216/1/5 272/1/5 217/1/5
f 245/1/5 39/1/5 142/1/5
f 419/1/5 420/1/5 158/1/5
f 150/1/5 265/1/5 233/1/5
f 217/1/5 271/1/5 142/1/5
f 216/1/5 233/1/5 407/1/5
f 158/1/5 237/1/5 238/1/5
f 216/1/5 282/1/5 280/1/5
f 216/1/5 217/1/5 142/1/5
f 275/1/1 212/1/1 316/1/1
f 277/1/1 214/1/1 276/1/1
f 246/1/81 316/1/81 245/1/81
f 316/1/82 318/1/82 245/1/82
f 246/1/83 275/1/83 316/1/83
f 313/1/3 312/1/3 319/1/3
f 321/1/3 155/1/3 322/1/3
f 323/1/3 321/1/3 324/1/3
f 155/1/3 313/1/3 322/1/3
f 6/1/3 325/1/3 312/1/3
f 275/1/1 326/1/1 212/1/1
f 326/1/1 276/1/1 214/1/1
f 284/1/84 310/1/84 27/1/84
f 308/1/85 34/1/85 311/1/85
f 275/1/86 217/1/86 326/1/86
f 217/1/87 272/1/87 326/1/87
f 34/1/88 308/1/88 309/1/88
f 327/1/89 33/1/89 309/1/89
f 33/1/90 34/1/90 309/1/90
f 272/1/91 276/1/91 326/1/91
f 7/1/3 329/1/3 328/1/3
f 330/1/3 7/1/3 331/1/3
f 6/1/3 328/1/3 332/1/3
f 329/1/3 7/1/3 333/1/3
f 89/1/16 149/1/16 122/1/16
f 188/1/16 149/1/16 187/1/16
f 325/1/3 6/1/3 334/1/3
f 312/1/3 325/1/3 319/1/3
f 334/1/3 6/1/3 332/1/3
f 328/1/3 6/1/3 7/1/3
f 335/1/3 324/1/3 336/1/3
f 321/1/3 323/1/3 155/1/3
f 330/1/3 337/1/3 7/1/3
f 7/1/3 337/1/3 333/1/3
f 176/1/3 157/1/3 22/1/3
f 157/1/3 154/1/3 155/1/3
f 27/1/92 310/1/92 311/1/92
f 285/1/7 62/1/7 284/1/7
f 57/1/93 14/1/93 561/1/93
f 14/1/7 286/1/7 287/1/7
f 562/1/2 561/1/2 559/1/2
f 557/1/2 561/1/2 558/1/2
f 715/1/1 714/1/1 157/1/1
f 8/1/3 341/1/3 340/1/3
f 339/1/3 344/1/3 343/1/3
f 339/1/3 343/1/3 345/1/3
f 342/1/94 249/1/94 346/1/94
f 337/1/3 330/1/3 336/1/3
f 336/1/3 330/1/3 335/1/3
f 346/1/95 347/1/95 342/1/95
f 253/1/96 249/1/96 250/1/96
f 348/1/3 339/1/3 349/1/3
f 339/1/3 348/1/3 8/1/3
f 341/1/3 8/1/3 348/1/3
f 339/1/3 345/1/3 349/1/3
f 350/1/3 8/1/3 340/1/3
f 8/1/3 350/1/3 7/1/3
f 7/1/3 350/1/3 351/1/3
f 331/1/3 7/1/3 351/1/3
f 347/1/97 320/1/97 342/1/97
f 149/1/16 188/1/16 150/1/16
f 155/1/3 339/1/3 157/1/3
f 339/1/3 155/1/3 344/1/3
f 352/1/3 155/1/3 323/1/3
f 344/1/3 155/1/3 352/1/3
f 324/1/3 335/1/3 323/1/3
f 354/1/1 235/1/1 190/1/1
f 355/1/1 190/1/1 269/1/1
f 150/1/98 354/1/98 190/1/98
f 354/1/98 150/1/98 214/1/98
f 239/1/45 237/1/45 356/1/45
f 159/1/1 346/1/1 253/1/1
f 253/1/1 239/1/1 159/1/1
f 240/1/99 236/1/99 357/1/99
f 236/1/100 232/1/100 357/1/100
f 357/1/101 232/1/101 235/1/101
f 237/1/46 240/1/46 356/1/46
f 240/1/1 359/1/1 356/1/1
f 360/1/3 235/1/3 233/1/3
f 307/1/1 346/1/1 159/1/1
f 347/1/102 361/1/102 320/1/102
f 249/1/103 253/1/103 346/1/103
f 346/1/1 307/1/1 347/1/1
f 268/1/104 314/1/104 269/1/104
f 269/1/105 314/1/105 355/1/105
f 320/1/106 361/1/106 314/1/106
f 355/1/107 314/1/107 361/1/107
f 265/1/3 360/1/3 233/1/3
f 360/1/60 265/1/60 269/1/60
f 360/1/1 269/1/1 190/1/1
f 235/1/1 360/1/1 190/1/1
f 190/1/1 307/1/1 353/1/1
f 79/1/108 80/1/108 131/1/108
f 80/1/109 130/1/109 131/1/109
f 132/1/110 130/1/110 304/1/110
f 312/1/2 291/1/2 257/1/2
f 6/1/5 257/1/5 5/1/5
f 257/1/5 6/1/5 312/1/5
f 133/1/111 186/1/111 83/1/111
f 189/1/7 363/1/7 259/1/7
f 257/1/7 258/1/7 364/1/7
f 258/1/7 257/1/7 189/1/7
f 257/1/7 364/1/7 365/1/7
f 366/1/112 127/1/112 146/1/112
f 128/1/113 367/1/113 141/1/113
f 369/1/7 5/1/7 257/1/7
f 370/1/7 5/1/7 371/1/7
f 189/1/7 372/1/7 363/1/7
f 5/1/7 369/1/7 371/1/7
f 369/1/7 257/1/7 365/1/7
f 281/1/72 283/1/72 373/1/72
f 374/1/1 281/1/1 375/1/1
f 99/1/1 295/1/1 318/1/1
f 212/1/1 99/1/1 318/1/1
f 212/1/1 318/1/1 316/1/1
f 376/1/1 99/1/1 159/1/1
f 99/1/1 302/1/1 301/1/1
f 99/1/1 377/1/1 302/1/1
f 301/1/1 295/1/1 99/1/1
f 293/1/114 245/1/114 295/1/114
f 318/1/115 295/1/115 245/1/115
f 302/1/116 378/1/116 300/1/116
f 373/1/117 283/1/117 378/1/117
f 753/1/118 755/1/118 358/1/118
f 378/1/119 283/1/119 270/1/119
f 379/1/1 281/1/1 373/1/1
f 677/1/5 362/1/5 678/1/5
f 676/1/5 358/1/5 677/1/5
f 150/1/7 216/1/7 214/1/7
f 690/1/5 684/1/5 683/1/5
f 665/1/1 664/1/1 649/1/1
f 161/1/120 179/1/120 482/1/120
f 380/1/121 368/1/121 362/1/121
f 659/1/1 666/1/1 658/1/1
f 19/1/1 381/1/1 54/1/1
f 381/1/1 19/1/1 118/1/1
f 219/1/122 152/1/122 17/1/122
f 147/1/7 366/1/7 146/1/7
f 152/1/3 118/1/3 17/1/3
f 384/1/7 383/1/7 20/1/7
f 367/1/123 128/1/123 366/1/123
f 366/1/124 128/1/124 127/1/124
f 147/1/7 367/1/7 366/1/7
f 385/1/7 147/1/7 148/1/7
f 21/1/3 27/1/3 38/1/3
f 286/1/125 26/1/125 287/1/125
f 26/1/10 24/1/10 287/1/10
f 327/1/126 289/1/126 32/1/126
f 25/1/127 26/1/127 286/1/127
f 285/1/128 25/1/128 286/1/128
f 288/1/129 24/1/129 29/1/129
f 24/1/129 288/1/129 287/1/129
f 284/1/130 28/1/130 285/1/130
f 32/1/131 289/1/131 30/1/131
f 289/1/132 290/1/132 30/1/132
f 32/1/133 33/1/133 327/1/133
f 334/1/134 370/1/134 371/1/134
f 28/1/135 25/1/135 285/1/135
f 388/1/7 390/1/7 389/1/7
f 27/1/84 28/1/84 284/1/84
f 391/1/7 390/1/7 388/1/7
f 63/1/2 31/1/2 54/1/2
f 5/1/7 393/1/7 392/1/7
f 36/1/92 27/1/92 311/1/92
f 36/1/136 311/1/136 34/1/136
f 54/1/7 288/1/7 290/1/7
f 329/1/137 394/1/137 392/1/137
f 64/1/5 62/1/5 57/1/5
f 327/1/7 309/1/7 63/1/7
f 327/1/7 63/1/7 54/1/7
f 106/1/3 105/1/3 45/1/3
f 18/1/138 21/1/138 645/1/138
f 289/1/7 327/1/7 54/1/7
f 289/1/7 54/1/7 290/1/7
f 14/1/7 287/1/7 54/1/7
f 74/1/139 75/1/139 41/1/139
f 77/1/10 38/1/10 76/1/10
f 39/1/140 63/1/140 143/1/140
f 672/1/5 688/1/5 317/1/5
f 362/1/141 368/1/141 298/1/141
f 368/1/142 299/1/142 298/1/142
f 395/1/143 317/1/143 315/1/143
f 317/1/144 395/1/144 358/1/144
f 667/1/1 666/1/1 659/1/1
f 665/1/1 649/1/1 315/1/1
f 658/1/1 299/1/1 657/1/1
f 315/1/1 650/1/1 651/1/1
f 657/1/1 299/1/1 656/1/1
f 315/1/1 651/1/1 652/1/1
f 656/1/1 299/1/1 655/1/1
f 315/1/1 652/1/1 653/1/1
f 754/1/145 11/1/145 380/1/145
f 754/1/146 380/1/146 362/1/146
f 753/1/147 358/1/147 396/1/147
f 397/1/2 396/1/2 358/1/2
f 398/1/5 396/1/5 397/1/5
f 167/1/148 381/1/148 118/1/148
f 398/1/149 397/1/149 399/1/149
f 397/1/149 400/1/149 399/1/149
f 382/1/150 401/1/150 152/1/150
f 219/1/151 382/1/151 152/1/151
f 756/1/152 754/1/152 362/1/152
f 10/1/5 757/1/5 396/1/5
f 10/1/5 396/1/5 398/1/5
f 399/1/153 403/1/153 402/1/153
f 12/1/2 398/1/2 399/1/2
f 398/1/2 12/1/2 10/1/2
f 402/1/5 12/1/5 399/1/5
f 12/1/5 402/1/5 15/1/5
f 655/1/1 299/1/1 368/1/1
f 654/1/1 655/1/1 368/1/1
f 368/1/1 395/1/1 654/1/1
f 649/1/1 650/1/1 315/1/1
f 668/1/1 646/1/1 662/1/1
f 667/1/1 661/1/1 668/1/1
f 646/1/1 663/1/1 662/1/1
f 661/1/1 646/1/1 668/1/1
f 395/1/1 653/1/1 654/1/1
f 646/1/1 647/1/1 663/1/1
f 647/1/1 664/1/1 663/1/1
f 664/1/1 647/1/1 648/1/1
f 664/1/1 648/1/1 649/1/1
f 661/1/1 667/1/1 660/1/1
f 666/1/1 299/1/1 658/1/1
f 660/1/1 667/1/1 659/1/1
f 368/1/16 380/1/16 405/1/16
f 368/1/154 406/1/154 395/1/154
f 406/1/154 368/1/154 405/1/154
f 397/1/2 395/1/2 400/1/2
f 358/1/2 395/1/2 397/1/2
f 395/1/2 406/1/2 400/1/2
f 315/1/1 653/1/1 395/1/1
f 406/1/2 409/1/2 400/1/2
f 407/1/155 408/1/155 410/1/155
f 406/1/7 405/1/7 411/1/7
f 105/1/3 104/1/3 45/1/3
f 412/1/5 283/1/5 282/1/5
f 417/1/156 416/1/156 415/1/156
f 405/1/16 13/1/16 411/1/16
f 380/1/16 11/1/16 405/1/16
f 405/1/16 11/1/16 13/1/16
f 403/1/1 400/1/1 409/1/1
f 419/1/157 416/1/157 376/1/157
f 400/1/158 403/1/158 399/1/158
f 150/1/159 353/1/159 149/1/159
f 421/1/2 129/1/2 140/1/2
f 140/1/160 139/1/160 421/1/160
f 139/1/161 422/1/161 421/1/161
f 353/1/162 421/1/162 148/1/162
f 385/1/7 148/1/7 422/1/7
f 147/1/7 385/1/7 367/1/7
f 422/1/7 148/1/7 421/1/7
f 353/1/163 148/1/163 149/1/163
f 422/1/164 139/1/164 141/1/164
f 422/1/165 141/1/165 385/1/165
f 141/1/166 367/1/166 385/1/166
f 186/1/167 133/1/167 306/1/167
f 304/1/110 306/1/110 132/1/110
f 185/1/168 83/1/168 186/1/168
f 80/1/169 304/1/169 130/1/169
f 423/1/2 305/1/2 22/1/2
f 305/1/2 423/1/2 421/1/2
f 306/1/170 133/1/170 132/1/170
f 394/1/7 5/1/7 392/1/7
f 393/1/7 5/1/7 370/1/7
f 390/1/7 391/1/7 424/1/7
f 372/1/7 426/1/7 425/1/7
f 425/1/7 389/1/7 390/1/7
f 426/1/7 372/1/7 427/1/7
f 297/1/171 456/1/171 455/1/171
f 25/1/3 28/1/3 21/1/3
f 244/1/172 278/1/172 429/1/172
f 411/1/1 13/1/1 418/1/1
f 218/1/5 15/1/5 402/1/5
f 431/1/173 37/1/173 77/1/173
f 258/1/174 313/1/174 364/1/174
f 279/1/175 429/1/175 278/1/175
f 303/1/176 432/1/176 456/1/176
f 41/1/139 75/1/139 42/1/139
f 42/1/9 75/1/9 38/1/9
f 40/1/177 73/1/177 35/1/177
f 35/1/11 73/1/11 41/1/11
f 279/1/178 273/1/178 515/1/178
f 137/1/179 144/1/179 537/1/179
f 433/1/7 537/1/7 435/1/7
f 57/1/180 62/1/180 14/1/180
f 451/1/7 145/1/7 448/1/7
f 353/1/2 305/1/2 421/1/2
f 305/1/2 353/1/2 307/1/2
f 307/1/1 355/1/1 361/1/1
f 347/1/1 307/1/1 361/1/1
f 355/1/1 307/1/1 190/1/1
f 16/1/1 418/1/1 13/1/1
f 418/1/1 16/1/1 434/1/1
f 437/1/7 189/1/7 438/1/7
f 255/1/7 440/1/7 439/1/7
f 189/1/7 254/1/7 438/1/7
f 372/1/7 189/1/7 437/1/7
f 372/1/7 437/1/7 427/1/7
f 190/1/181 353/1/181 150/1/181
f 175/1/3 118/1/3 154/1/3
f 440/1/182 345/1/182 439/1/182
f 441/1/5 193/1/5 241/1/5
f 345/1/183 343/1/183 439/1/183
f 343/1/184 254/1/184 439/1/184
f 257/1/7 193/1/7 189/1/7
f 193/1/2 384/1/2 23/1/2
f 193/1/5 444/1/5 443/1/5
f 227/1/185 445/1/185 226/1/185
f 226/1/61 445/1/61 443/1/61
f 229/1/59 226/1/59 443/1/59
f 451/1/7 447/1/7 145/1/7
f 144/1/7 447/1/7 537/1/7
f 193/1/5 441/1/5 442/1/5
f 14/1/186 434/1/186 18/1/186
f 326/1/1 214/1/1 212/1/1
f 214/1/1 410/1/1 354/1/1
f 449/1/1 354/1/1 410/1/1
f 281/1/1 214/1/1 277/1/1
f 28/1/3 27/1/3 21/1/3
f 386/1/187 407/1/187 410/1/187
f 16/1/70 18/1/70 434/1/70
f 386/1/188 410/1/188 450/1/188
f 76/1/7 57/1/7 77/1/7
f 408/1/189 449/1/189 410/1/189
f 446/1/7 145/1/7 72/1/7
f 63/1/190 64/1/190 143/1/190
f 104/1/3 108/1/3 45/1/3
f 37/1/173 431/1/173 106/1/173
f 73/1/191 40/1/191 72/1/191
f 450/1/44 387/1/44 386/1/44
f 111/1/192 72/1/192 40/1/192
f 214/1/1 450/1/1 410/1/1
f 72/1/193 111/1/193 446/1/193
f 105/1/194 431/1/194 433/1/194
f 431/1/194 105/1/194 106/1/194
f 105/1/195 433/1/195 104/1/195
f 433/1/195 435/1/195 104/1/195
f 354/1/1 240/1/1 357/1/1
f 239/1/1 359/1/1 159/1/1
f 104/1/196 436/1/196 108/1/196
f 436/1/196 104/1/196 435/1/196
f 235/1/1 354/1/1 357/1/1
f 452/1/1 354/1/1 449/1/1
f 447/1/92 108/1/92 436/1/92
f 108/1/92 447/1/92 110/1/92
f 110/1/197 448/1/197 109/1/197
f 281/1/1 379/1/1 375/1/1
f 281/1/1 374/1/1 214/1/1
f 9/1/7 454/1/7 453/1/7
f 21/1/142 18/1/142 16/1/142
f 214/1/1 374/1/1 450/1/1
f 359/1/198 452/1/198 420/1/198
f 424/1/7 391/1/7 394/1/7
f 454/1/7 394/1/7 391/1/7
f 425/1/7 426/1/7 389/1/7
f 9/1/7 394/1/7 454/1/7
f 394/1/7 9/1/7 5/1/7
f 408/1/199 452/1/199 449/1/199
f 420/1/200 452/1/200 414/1/200
f 426/1/201 330/1/201 389/1/201
f 273/1/202 430/1/202 515/1/202
f 279/1/203 515/1/203 428/1/203
f 414/1/204 452/1/204 408/1/204
f 417/1/205 412/1/205 379/1/205
f 330/1/206 426/1/206 427/1/206
f 375/1/99 413/1/99 374/1/99
f 273/1/207 274/1/207 430/1/207
f 296/1/208 264/1/208 432/1/208
f 412/1/46 375/1/46 379/1/46
f 375/1/46 412/1/46 413/1/46
f 413/1/100 387/1/100 374/1/100
f 387/1/101 450/1/101 374/1/101
f 350/1/209 454/1/209 391/1/209
f 99/1/1 376/1/1 377/1/1
f 457/1/7 440/1/7 255/1/7
f 159/1/1 459/1/1 458/1/1
f 159/1/1 359/1/1 459/1/1
f 9/1/7 461/1/7 460/1/7
f 453/1/7 461/1/7 9/1/7
f 417/1/1 378/1/1 377/1/1
f 378/1/1 417/1/1 373/1/1
f 376/1/1 159/1/1 458/1/1
f 447/1/210 451/1/210 110/1/210
f 451/1/211 448/1/211 110/1/211
f 294/1/212 516/1/212 274/1/212
f 373/1/1 417/1/1 379/1/1
f 302/1/1 377/1/1 378/1/1
f 446/1/213 109/1/213 448/1/213
f 109/1/213 446/1/213 111/1/213
f 377/1/214 376/1/214 416/1/214
f 365/1/215 364/1/215 319/1/215
f 319/1/216 364/1/216 313/1/216
f 376/1/217 458/1/217 419/1/217
f 419/1/218 458/1/218 459/1/218
f 72/1/7 145/1/7 64/1/7
f 313/1/219 258/1/219 322/1/219
f 419/1/220 459/1/220 420/1/220
f 446/1/7 448/1/7 145/1/7
f 420/1/221 459/1/221 359/1/221
f 537/1/7 447/1/7 436/1/7
f 324/1/222 321/1/222 372/1/222
f 143/1/190 64/1/190 145/1/190
f 417/1/223 377/1/223 416/1/223
f 435/1/7 537/1/7 436/1/7
f 145/1/7 447/1/7 144/1/7
f 417/1/224 415/1/224 412/1/224
f 9/1/7 457/1/7 255/1/7
f 457/1/7 9/1/7 460/1/7
f 452/1/1 240/1/1 354/1/1
f 359/1/1 240/1/1 452/1/1
f 356/1/1 359/1/1 239/1/1
f 462/1/225 86/1/225 85/1/225
f 431/1/7 537/1/7 433/1/7
f 440/1/226 457/1/226 345/1/226
f 322/1/227 259/1/227 363/1/227
f 321/1/228 322/1/228 363/1/228
f 340/1/229 460/1/229 461/1/229
f 457/1/230 460/1/230 341/1/230
f 86/1/1 463/1/1 170/1/1
f 363/1/231 372/1/231 321/1/231
f 258/1/232 259/1/232 322/1/232
f 340/1/233 461/1/233 453/1/233
f 319/1/234 325/1/234 365/1/234
f 320/1/5 188/1/5 342/1/5
f 369/1/235 325/1/235 371/1/235
f 463/1/7 86/1/7 464/1/7
f 337/1/236 424/1/236 333/1/236
f 337/1/237 390/1/237 424/1/237
f 8/1/1 9/1/1 255/1/1
f 425/1/238 390/1/238 337/1/238
f 325/1/239 334/1/239 371/1/239
f 254/1/7 255/1/7 439/1/7
f 324/1/240 372/1/240 336/1/240
f 401/1/2 404/1/2 153/1/2
f 425/1/241 337/1/241 336/1/241
f 333/1/242 394/1/242 329/1/242
f 457/1/243 349/1/243 345/1/243
f 332/1/244 392/1/244 393/1/244
f 352/1/245 254/1/245 344/1/245
f 333/1/246 424/1/246 394/1/246
f 388/1/247 389/1/247 330/1/247
f 392/1/248 328/1/248 329/1/248
f 372/1/249 425/1/249 336/1/249
f 325/1/250 369/1/250 365/1/250
f 388/1/251 351/1/251 391/1/251
f 248/1/5 465/1/5 241/1/5
f 241/1/5 466/1/5 441/1/5
f 466/1/5 241/1/5 465/1/5
f 393/1/252 370/1/252 334/1/252
f 392/1/244 332/1/244 328/1/244
f 170/1/16 463/1/16 464/1/16
f 193/1/5 467/1/5 444/1/5
f 193/1/5 442/1/5 467/1/5
f 150/1/5 188/1/5 314/1/5
f 135/1/186 137/1/186 468/1/186
f 468/1/253 137/1/253 138/1/253
f 469/1/254 470/1/254 86/1/254
f 469/1/255 86/1/255 462/1/255
f 471/1/256 464/1/256 86/1/256
f 21/1/3 106/1/3 45/1/3
f 472/1/16 51/1/16 46/1/16
f 51/1/5 468/1/5 45/1/5
f 468/1/5 51/1/5 473/1/5
f 471/1/257 86/1/257 474/1/257
f 474/1/258 86/1/258 475/1/258
f 470/1/259 475/1/259 86/1/259
f 468/1/260 138/1/260 45/1/260
f 475/1/7 79/1/7 129/1/7
f 181/1/261 78/1/261 476/1/261
f 78/1/261 181/1/261 182/1/261
f 80/1/8 78/1/8 182/1/8
f 470/1/262 181/1/262 476/1/262
f 181/1/262 470/1/262 183/1/262
f 476/1/7 475/1/7 470/1/7
f 78/1/7 475/1/7 476/1/7
f 79/1/7 475/1/7 78/1/7
f 423/1/2 129/1/2 421/1/2
f 129/1/2 423/1/2 475/1/2
f 478/1/263 479/1/263 164/1/263
f 381/1/7 480/1/7 481/1/7
f 179/1/7 479/1/7 481/1/7
f 478/1/7 481/1/7 479/1/7
f 483/1/7 481/1/7 478/1/7
f 481/1/7 477/1/7 381/1/7
f 481/1/264 480/1/264 167/1/264
f 482/1/7 485/1/7 484/1/7
f 485/1/7 482/1/7 481/1/7
f 485/1/7 486/1/7 484/1/7
f 487/1/7 485/1/7 488/1/7
f 21/1/3 37/1/3 106/1/3
f 472/1/7 489/1/7 473/1/7
f 473/1/7 489/1/7 490/1/7
f 489/1/7 472/1/7 491/1/7
f 51/1/16 472/1/16 473/1/16
f 473/1/7 493/1/7 492/1/7
f 488/1/5 485/1/5 171/1/5
f 489/1/265 52/1/265 490/1/265
f 164/1/266 479/1/266 163/1/266
f 489/1/267 491/1/267 52/1/267
f 479/1/268 161/1/268 163/1/268
f 482/1/269 484/1/269 166/1/269
f 160/1/270 482/1/270 166/1/270
f 484/1/271 486/1/271 166/1/271
f 43/1/272 44/1/272 492/1/272
f 160/1/273 161/1/273 482/1/273
f 161/1/274 479/1/274 179/1/274
f 55/1/275 494/1/275 44/1/275
f 480/1/148 381/1/148 167/1/148
f 494/1/276 55/1/276 56/1/276
f 162/1/264 481/1/264 167/1/264
f 485/1/277 162/1/277 165/1/277
f 492/1/278 44/1/278 494/1/278
f 493/1/7 473/1/7 490/1/7
f 468/1/7 492/1/7 494/1/7
f 351/1/279 388/1/279 331/1/279
f 134/1/7 495/1/7 472/1/7
f 472/1/7 496/1/7 491/1/7
f 472/1/7 495/1/7 496/1/7
f 497/1/7 499/1/7 498/1/7
f 499/1/7 497/1/7 495/1/7
f 341/1/280 348/1/280 457/1/280
f 70/1/7 497/1/7 498/1/7
f 460/1/281 340/1/281 341/1/281
f 495/1/282 47/1/282 496/1/282
f 254/1/283 343/1/283 344/1/283
f 352/1/284 438/1/284 254/1/284
f 497/1/285 70/1/285 71/1/285
f 136/1/286 103/1/286 70/1/286
f 340/1/287 454/1/287 350/1/287
f 70/1/288 103/1/288 69/1/288
f 351/1/289 350/1/289 391/1/289
f 101/1/26 136/1/26 500/1/26
f 340/1/290 453/1/290 454/1/290
f 126/1/7 119/1/7 501/1/7
f 134/1/7 472/1/7 126/1/7
f 501/1/7 119/1/7 3/1/7
f 46/1/5 119/1/5 472/1/5
f 427/1/291 335/1/291 330/1/291
f 331/1/292 388/1/292 330/1/292
f 94/1/293 498/1/293 97/1/293
f 457/1/294 348/1/294 349/1/294
f 499/1/295 97/1/295 498/1/295
f 223/1/296 513/1/296 514/1/296 225/1/296
f 58/1/297 97/1/297 499/1/297
f 352/1/298 437/1/298 438/1/298
f 225/1/299 514/1/299 508/1/299 224/1/299
f 427/1/300 437/1/300 323/1/300
f 134/1/301 58/1/301 499/1/301
f 437/1/302 352/1/302 323/1/302
f 323/1/303 335/1/303 427/1/303
f 8/1/1 255/1/1 339/1/1
f 495/1/7 134/1/7 499/1/7
f 169/1/304 166/1/304 486/1/304
f 119/1/305 126/1/305 472/1/305
f 162/1/277 485/1/277 481/1/277
f 165/1/5 171/1/5 485/1/5
f 125/1/7 502/1/7 3/1/7
f 502/1/7 501/1/7 3/1/7
f 487/1/306 171/1/306 170/1/306
f 125/1/7 3/1/7 503/1/7
f 1/1/7 504/1/7 3/1/7
f 3/1/7 504/1/7 503/1/7
f 92/1/307 504/1/307 65/1/307
f 84/1/308 173/1/308 85/1/308
f 505/1/5 507/1/5 506/1/5
f 508/1/5 510/1/5 509/1/5
f 510/1/5 234/1/5 509/1/5
f 501/1/309 61/1/309 126/1/309
f 511/1/5 445/1/5 506/1/5
f 61/1/310 501/1/310 502/1/310
f 230/1/311 505/1/311 227/1/311
f 88/1/312 61/1/312 502/1/312
f 227/1/313 505/1/313 445/1/313
f 230/1/314 234/1/314 505/1/314
f 502/1/19 125/1/19 88/1/19
f 234/1/315 231/1/315 509/1/315
f 487/1/16 471/1/16 474/1/16
f 504/1/316 91/1/316 503/1/316
f 423/1/5 474/1/5 475/1/5
f 470/1/317 469/1/317 183/1/317
f 332/1/318 393/1/318 334/1/318
f 107/1/5 155/1/5 512/1/5
f 512/1/5 155/1/5 513/1/5
f 155/1/5 107/1/5 248/1/5
f 465/1/5 248/1/5 107/1/5
f 513/1/319 155/1/319 514/1/319
f 297/1/320 455/1/320 517/1/320
f 170/1/1 464/1/1 471/1/1
f 514/1/5 155/1/5 508/1/5
f 510/1/5 508/1/5 155/1/5
f 244/1/321 429/1/321 243/1/321
f 154/1/3 118/1/3 152/1/3
f 151/1/322 512/1/322 513/1/322 223/1/322
f 430/1/5 428/1/5 515/1/5
f 428/1/5 430/1/5 429/1/5
f 429/1/5 430/1/5 266/1/5
f 153/1/323 152/1/323 401/1/323
f 221/1/324 465/1/324 107/1/324 222/1/324
f 228/1/325 444/1/325 467/1/325 117/1/325
f 154/1/3 157/1/3 156/1/3
f 12/1/3 16/1/3 13/1/3
f 294/1/326 517/1/326 516/1/326
f 154/1/5 199/1/5 213/1/5
f 303/1/327 296/1/327 432/1/327
f 518/1/5 154/1/5 213/1/5
f 199/1/5 154/1/5 404/1/5
f 204/1/51 199/1/51 195/1/51
f 296/1/328 263/1/328 264/1/328
f 204/1/313 213/1/313 199/1/313
f 116/1/329 441/1/329 466/1/329 220/1/329
f 264/1/5 266/1/5 432/1/5
f 516/1/5 266/1/5 430/1/5
f 517/1/5 266/1/5 516/1/5
f 455/1/5 266/1/5 517/1/5
f 266/1/5 456/1/5 432/1/5
f 266/1/5 264/1/5 262/1/5
f 224/1/330 508/1/330 231/1/330
f 243/1/331 429/1/331 266/1/331
f 518/1/332 213/1/332 207/1/332
f 154/1/2 153/1/2 404/1/2
f 279/1/333 428/1/333 429/1/333
f 297/1/334 517/1/334 294/1/334
f 274/1/335 516/1/335 430/1/335
f 266/1/5 455/1/5 456/1/5
f 384/1/5 519/1/5 383/1/5
f 520/1/5 383/1/5 521/1/5
f 383/1/5 519/1/5 521/1/5
f 508/1/336 509/1/336 231/1/336
f 243/1/337 266/1/337 267/1/337
f 383/1/5 198/1/5 199/1/5
f 383/1/5 520/1/5 198/1/5
f 23/1/7 384/1/7 20/1/7
f 220/1/338 466/1/338 465/1/338 221/1/338
f 229/1/339 443/1/339 444/1/339 228/1/339
f 115/1/340 442/1/340 441/1/340 116/1/340
f 117/1/341 467/1/341 442/1/341 115/1/341
f 222/1/342 107/1/342 512/1/342 151/1/342
f 519/1/5 384/1/5 522/1/5
f 193/1/5 522/1/5 384/1/5
f 445/1/5 522/1/5 443/1/5
f 522/1/5 445/1/5 511/1/5
f 443/1/5 522/1/5 193/1/5
f 423/1/5 487/1/5 474/1/5
f 125/1/343 503/1/343 87/1/343
f 91/1/344 87/1/344 503/1/344
f 85/1/345 173/1/345 462/1/345
f 92/1/346 91/1/346 504/1/346
f 196/1/347 194/1/347 198/1/347
f 126/1/348 60/1/348 134/1/348
f 195/1/34 198/1/34 194/1/34
f 171/1/277 487/1/277 488/1/277
f 183/1/317 469/1/317 174/1/317
f 469/1/349 462/1/349 174/1/349
f 120/1/7 1/1/7 523/1/7
f 524/1/7 1/1/7 120/1/7
f 504/1/7 1/1/7 524/1/7
f 174/1/350 462/1/350 173/1/350
f 209/1/7 121/1/7 1/1/7
f 209/1/7 525/1/7 121/1/7
f 209/1/7 498/1/7 525/1/7
f 86/1/54 172/1/54 81/1/54
f 86/1/264 170/1/264 172/1/264
f 487/1/351 170/1/351 471/1/351
f 478/1/352 164/1/352 483/1/352
f 175/1/353 483/1/353 168/1/353
f 175/1/354 477/1/354 483/1/354
f 526/1/355 477/1/355 175/1/355
f 164/1/356 168/1/356 483/1/356
f 526/1/357 175/1/357 527/1/357
f 180/1/358 156/1/358 527/1/358
f 199/1/5 404/1/5 383/1/5
f 404/1/7 527/1/7 528/1/7
f 477/1/7 481/1/7 483/1/7
f 530/1/7 486/1/7 485/1/7
f 176/1/359 531/1/359 156/1/359
f 156/1/360 528/1/360 527/1/360
f 528/1/361 156/1/361 531/1/361
f 176/1/362 532/1/362 531/1/362
f 176/1/363 177/1/363 532/1/363
f 532/1/364 177/1/364 530/1/364
f 120/1/365 65/1/365 524/1/365
f 178/1/366 169/1/366 486/1/366
f 524/1/367 65/1/367 504/1/367
f 177/1/368 178/1/368 530/1/368
f 530/1/369 178/1/369 486/1/369
f 68/1/370 120/1/370 523/1/370
f 120/1/370 68/1/370 67/1/370
f 523/1/371 121/1/371 68/1/371
f 120/1/372 67/1/372 66/1/372
f 529/1/16 383/1/16 404/1/16
f 498/1/373 94/1/373 525/1/373
f 121/1/374 525/1/374 95/1/374
f 94/1/375 95/1/375 525/1/375
f 212/1/36 500/1/36 211/1/36
f 500/1/40 136/1/40 211/1/40
f 500/1/36 212/1/36 135/1/36
f 383/1/16 529/1/16 20/1/16
f 137/1/376 135/1/376 212/1/376
f 136/1/377 209/1/377 211/1/377
f 135/1/7 468/1/7 494/1/7
f 498/1/7 209/1/7 70/1/7
f 1/1/7 121/1/7 523/1/7
f 492/1/7 468/1/7 473/1/7
f 70/1/7 209/1/7 136/1/7
f 1/1/2 96/1/2 209/1/2
f 96/1/2 1/1/2 2/1/2
f 56/1/378 135/1/378 494/1/378
f 101/1/25 500/1/25 135/1/25
f 497/1/379 53/1/379 495/1/379
f 52/1/265 49/1/265 490/1/265
f 491/1/267 48/1/267 52/1/267
f 53/1/380 47/1/380 495/1/380
f 155/1/5 533/1/5 510/1/5
f 47/1/381 491/1/381 496/1/381
f 491/1/381 47/1/381 48/1/381
f 49/1/382 493/1/382 490/1/382
f 234/1/5 510/1/5 507/1/5
f 492/1/383 493/1/383 50/1/383
f 43/1/384 492/1/384 50/1/384
f 533/1/5 155/1/5 534/1/5
f 234/1/5 507/1/5 505/1/5
f 50/1/385 493/1/385 49/1/385
f 53/1/386 497/1/386 71/1/386
f 535/1/5 154/1/5 536/1/5
f 154/1/5 534/1/5 155/1/5
f 534/1/5 154/1/5 535/1/5
f 536/1/5 154/1/5 518/1/5
f 528/1/387 529/1/387 404/1/387
f 530/1/388 529/1/388 532/1/388
f 485/1/388 529/1/388 530/1/388
f 532/1/389 529/1/389 531/1/389
f 529/1/390 528/1/390 531/1/390
f 196/1/391 521/1/391 197/1/391
f 206/1/171 510/1/171 203/1/171
f 485/1/159 487/1/159 529/1/159
f 487/1/159 423/1/159 529/1/159
f 208/1/392 535/1/392 536/1/392
f 202/1/393 203/1/393 533/1/393
f 22/1/2 529/1/2 423/1/2
f 180/1/394 527/1/394 175/1/394
f 208/1/395 201/1/395 535/1/395
f 179/1/7 481/1/7 482/1/7
f 206/1/396 507/1/396 510/1/396
f 200/1/397 192/1/397 506/1/397
f 201/1/398 202/1/398 534/1/398
f 200/1/399 507/1/399 205/1/399
f 205/1/400 507/1/400 206/1/400
f 197/1/401 519/1/401 191/1/401
f 506/1/402 192/1/402 511/1/402
f 208/1/403 536/1/403 518/1/403
f 207/1/404 208/1/404 518/1/404
f 506/1/405 507/1/405 200/1/405
f 521/1/406 519/1/406 197/1/406
f 520/1/407 521/1/407 196/1/407
f 201/1/328 534/1/328 535/1/328
f 522/1/408 511/1/408 191/1/408
f 191/1/409 511/1/409 192/1/409
f 202/1/410 533/1/410 534/1/410
f 191/1/411 519/1/411 522/1/411
f 203/1/412 510/1/412 533/1/412
f 196/1/413 198/1/413 520/1/413
f 505/1/5 506/1/5 445/1/5
f 527/1/7 404/1/7 526/1/7
f 526/1/7 404/1/7 477/1/7
f 529/1/1 706/1/1 20/1/1
f 715/1/1 157/1/1 716/1/1
f 714/1/1 22/1/1 157/1/1
f 189/1/1 711/1/1 710/1/1
f 539/1/2 541/1/2 540/1/2
f 539/1/2 542/1/2 541/1/2
f 539/1/2 543/1/2 542/1/2
f 544/1/2 546/1/2 545/1/2
f 544/1/2 547/1/2 546/1/2
f 547/1/2 539/1/2 548/1/2
f 549/1/2 539/1/2 540/1/2
f 548/1/2 539/1/2 549/1/2
f 550/1/2 552/1/2 551/1/2
f 537/1/2 554/1/2 553/1/2
f 537/1/2 555/1/2 554/1/2
f 559/1/2 561/1/2 560/1/2
f 563/1/2 565/1/2 564/1/2
f 563/1/2 566/1/2 565/1/2
f 563/1/2 567/1/2 566/1/2
f 568/1/2 567/1/2 569/1/2
f 567/1/2 568/1/2 570/1/2
f 570/1/2 552/1/2 550/1/2
f 552/1/2 570/1/2 568/1/2
f 561/1/2 571/1/2 560/1/2
f 571/1/2 561/1/2 572/1/2
f 573/1/2 561/1/2 574/1/2
f 575/1/2 561/1/2 573/1/2
f 561/1/2 577/1/2 576/1/2
f 563/1/2 577/1/2 561/1/2
f 574/1/2 561/1/2 576/1/2
f 572/1/2 561/1/2 575/1/2
f 567/1/2 563/1/2 569/1/2
f 563/1/2 564/1/2 578/1/2
f 563/1/2 578/1/2 577/1/2
f 544/1/2 580/1/2 579/1/2
f 551/1/2 579/1/2 580/1/2
f 579/1/2 551/1/2 552/1/2
f 581/1/2 539/1/2 537/1/2
f 537/1/2 553/1/2 582/1/2
f 537/1/2 582/1/2 583/1/2
f 537/1/2 583/1/2 581/1/2
f 539/1/2 581/1/2 584/1/2
f 539/1/2 584/1/2 543/1/2
f 585/1/2 544/1/2 586/1/2
f 586/1/2 544/1/2 545/1/2
f 547/1/2 544/1/2 539/1/2
f 580/1/2 544/1/2 585/1/2
f 587/1/414 588/1/414 556/1/414
f 587/1/415 556/1/415 589/1/415
f 590/1/5 592/1/5 591/1/5
f 645/1/16 591/1/16 595/1/16
f 590/1/5 594/1/5 592/1/5
f 539/1/7 594/1/7 593/1/7
f 537/1/416 539/1/416 593/1/416
f 596/1/5 563/1/5 561/1/5
f 563/1/5 596/1/5 597/1/5
f 595/1/7 592/1/7 596/1/7
f 594/1/7 590/1/7 593/1/7
f 592/1/7 595/1/7 591/1/7
f 550/1/417 599/1/417 598/1/417
f 550/1/418 600/1/418 599/1/418
f 601/1/419 602/1/419 575/1/419
f 575/1/420 603/1/420 601/1/420
f 604/1/421 605/1/421 576/1/421
f 606/1/422 607/1/422 584/1/422
f 606/1/423 584/1/423 608/1/423
f 609/1/424 610/1/424 582/1/424
f 609/1/425 582/1/425 611/1/425
f 612/1/426 613/1/426 538/1/426
f 614/1/427 562/1/427 615/1/427
f 577/1/428 616/1/428 604/1/428
f 577/1/429 617/1/429 616/1/429
f 604/1/428 576/1/428 577/1/428
f 612/1/7 562/1/7 614/1/7
f 562/1/7 612/1/7 538/1/7
f 569/1/430 619/1/430 618/1/430
f 563/1/431 619/1/431 569/1/431
f 619/1/431 563/1/431 597/1/431
f 568/1/432 618/1/432 620/1/432
f 618/1/432 568/1/432 569/1/432
f 552/1/433 568/1/433 621/1/433
f 568/1/434 620/1/434 621/1/434
f 598/1/16 620/1/16 618/1/16
f 622/1/16 600/1/16 623/1/16
f 600/1/16 622/1/16 599/1/16
f 599/1/16 624/1/16 621/1/16
f 624/1/16 599/1/16 622/1/16
f 599/1/16 621/1/16 620/1/16
f 624/1/433 552/1/433 621/1/433
f 623/1/435 579/1/435 622/1/435
f 552/1/436 622/1/436 579/1/436
f 622/1/436 552/1/436 624/1/436
f 625/1/437 579/1/437 623/1/437
f 626/1/438 544/1/438 625/1/438
f 544/1/438 579/1/438 625/1/438
f 627/1/16 594/1/16 626/1/16
f 594/1/16 629/1/16 628/1/16
f 594/1/16 631/1/16 630/1/16
f 594/1/16 632/1/16 607/1/16
f 594/1/16 633/1/16 632/1/16
f 626/1/16 635/1/16 634/1/16
f 592/1/16 611/1/16 636/1/16
f 612/1/16 592/1/16 613/1/16
f 588/1/16 587/1/16 592/1/16
f 592/1/16 587/1/16 589/1/16
f 637/1/16 597/1/16 638/1/16
f 620/1/16 598/1/16 599/1/16
f 639/1/16 623/1/16 600/1/16
f 596/1/16 602/1/16 601/1/16
f 596/1/16 601/1/16 603/1/16
f 596/1/16 603/1/16 605/1/16
f 596/1/16 616/1/16 597/1/16
f 616/1/16 596/1/16 604/1/16
f 602/1/16 596/1/16 640/1/16
f 596/1/16 614/1/16 615/1/16
f 641/1/16 596/1/16 615/1/16
f 596/1/16 641/1/16 640/1/16
f 596/1/16 612/1/16 614/1/16
f 613/1/16 592/1/16 589/1/16
f 604/1/16 596/1/16 605/1/16
f 612/1/16 596/1/16 592/1/16
f 642/1/16 597/1/16 643/1/16
f 638/1/16 597/1/16 642/1/16
f 597/1/16 637/1/16 619/1/16
f 618/1/16 637/1/16 598/1/16
f 643/1/16 597/1/16 617/1/16
f 617/1/16 597/1/16 616/1/16
f 637/1/16 618/1/16 619/1/16
f 623/1/16 639/1/16 625/1/16
f 626/1/16 639/1/16 635/1/16
f 626/1/16 634/1/16 627/1/16
f 594/1/16 627/1/16 644/1/16
f 594/1/16 644/1/16 629/1/16
f 594/1/16 628/1/16 631/1/16
f 594/1/16 630/1/16 633/1/16
f 639/1/16 626/1/16 625/1/16
f 592/1/16 610/1/16 609/1/16
f 592/1/16 636/1/16 588/1/16
f 611/1/16 592/1/16 609/1/16
f 592/1/16 608/1/16 610/1/16
f 594/1/16 607/1/16 606/1/16
f 592/1/16 606/1/16 608/1/16
f 606/1/16 592/1/16 594/1/16
f 544/1/7 594/1/7 539/1/7
f 594/1/7 544/1/7 626/1/7
f 541/1/439 630/1/439 540/1/439
f 630/1/439 541/1/439 633/1/439
f 541/1/440 632/1/440 633/1/440
f 632/1/440 541/1/440 542/1/440
f 543/1/441 632/1/441 542/1/441
f 632/1/441 543/1/441 607/1/441
f 607/1/422 543/1/422 584/1/422
f 608/1/423 584/1/423 581/1/423
f 608/1/442 581/1/442 583/1/442
f 586/1/443 627/1/443 634/1/443
f 627/1/443 586/1/443 545/1/443
f 627/1/444 546/1/444 644/1/444
f 546/1/444 627/1/444 545/1/444
f 629/1/445 546/1/445 547/1/445
f 546/1/445 629/1/445 644/1/445
f 629/1/446 548/1/446 628/1/446
f 548/1/446 629/1/446 547/1/446
f 631/1/447 548/1/447 549/1/447
f 548/1/448 631/1/448 628/1/448
f 549/1/449 630/1/449 631/1/449
f 630/1/450 549/1/450 540/1/450
f 635/1/451 580/1/451 585/1/451
f 580/1/452 635/1/452 639/1/452
f 585/1/453 586/1/453 635/1/453
f 586/1/453 634/1/453 635/1/453
f 610/1/442 608/1/442 583/1/442
f 583/1/424 582/1/424 610/1/424
f 611/1/425 582/1/425 553/1/425
f 554/1/454 611/1/454 553/1/454
f 611/1/454 554/1/454 636/1/454
f 554/1/455 588/1/455 636/1/455
f 588/1/455 554/1/455 555/1/455
f 555/1/414 556/1/414 588/1/414
f 589/1/415 556/1/415 557/1/415
f 18/1/456 561/1/456 14/1/456
f 557/1/457 613/1/457 589/1/457
f 613/1/458 557/1/458 558/1/458
f 613/1/426 558/1/426 538/1/426
f 615/1/427 562/1/427 559/1/427
f 559/1/459 641/1/459 615/1/459
f 641/1/460 559/1/460 560/1/460
f 640/1/461 560/1/461 571/1/461
f 577/1/429 578/1/429 617/1/429
f 643/1/462 578/1/462 564/1/462
f 578/1/462 643/1/462 617/1/462
f 643/1/463 565/1/463 642/1/463
f 565/1/463 643/1/463 564/1/463
f 638/1/464 565/1/464 566/1/464
f 565/1/464 638/1/464 642/1/464
f 638/1/465 567/1/465 637/1/465
f 567/1/465 638/1/465 566/1/465
f 598/1/466 567/1/466 570/1/466
f 567/1/466 598/1/466 637/1/466
f 570/1/417 550/1/417 598/1/417
f 551/1/418 600/1/418 550/1/418
f 600/1/467 580/1/467 639/1/467
f 600/1/467 551/1/467 580/1/467
f 560/1/461 640/1/461 641/1/461
f 602/1/468 640/1/468 572/1/468
f 640/1/469 571/1/469 572/1/469
f 572/1/419 575/1/419 602/1/419
f 573/1/420 603/1/420 575/1/420
f 605/1/470 573/1/470 574/1/470
f 573/1/470 605/1/470 603/1/470
f 574/1/421 576/1/421 605/1/421
f 561/1/5 645/1/5 596/1/5
f 645/1/5 595/1/5 596/1/5
f 18/1/471 645/1/471 561/1/471
f 593/1/54 590/1/54 138/1/54
f 138/1/472 537/1/472 593/1/472
f 138/1/70 590/1/70 591/1/70
f 138/1/473 137/1/473 537/1/473
f 411/1/7 418/1/7 406/1/7
f 14/1/388 218/1/388 434/1/388
f 406/1/7 403/1/7 409/1/7
f 406/1/7 418/1/7 403/1/7
f 404/1/7 381/1/7 477/1/7
f 382/1/474 381/1/474 404/1/474
f 54/1/475 381/1/475 219/1/475
f 403/1/7 434/1/7 402/1/7
f 218/1/475 54/1/475 219/1/475
f 402/1/7 434/1/7 218/1/7
f 54/1/476 218/1/476 14/1/476
f 219/1/477 381/1/477 382/1/477
f 418/1/7 434/1/7 403/1/7
f 17/1/3 118/1/3 19/1/3
f 382/1/478 404/1/478 401/1/478
f 15/1/3 16/1/3 12/1/3
f 11/1/3 12/1/3 13/1/3
f 16/1/3 17/1/3 19/1/3
f 646/1/479 661/1/479 684/1/479 669/1/479
f 649/1/480 648/1/480 671/1/480 672/1/480
f 667/1/481 690/1/481 689/1/481 666/1/481
f 663/1/482 686/1/482 685/1/482 662/1/482
f 650/1/483 649/1/483 672/1/483 673/1/483
f 668/1/484 691/1/484 690/1/484 667/1/484
f 664/1/485 687/1/485 686/1/485 663/1/485
f 651/1/486 650/1/486 673/1/486 674/1/486
f 662/1/487 685/1/487 691/1/487 668/1/487
f 665/1/488 688/1/488 687/1/488 664/1/488
f 652/1/481 651/1/481 674/1/481 675/1/481
f 315/1/489 317/1/489 688/1/489 665/1/489
f 653/1/484 652/1/484 675/1/484 676/1/484
f 654/1/487 653/1/487 676/1/487 677/1/487
f 655/1/482 654/1/482 677/1/482 678/1/482
f 656/1/485 655/1/485 678/1/485 679/1/485
f 657/1/488 656/1/488 679/1/488 680/1/488
f 658/1/489 657/1/489 680/1/489 681/1/489
f 659/1/490 658/1/490 681/1/490 682/1/490
f 660/1/491 659/1/491 682/1/491 683/1/491
f 647/1/492 646/1/492 669/1/492 670/1/492
f 661/1/493 660/1/493 683/1/493 684/1/493
f 648/1/494 647/1/494 670/1/494 671/1/494
f 666/1/486 689/1/486 298/1/486 299/1/486
f 678/1/5 362/1/5 298/1/5
f 317/1/5 676/1/5 675/1/5
f 679/1/5 678/1/5 298/1/5
f 317/1/5 675/1/5 674/1/5
f 680/1/5 679/1/5 298/1/5
f 317/1/5 674/1/5 673/1/5
f 681/1/5 680/1/5 298/1/5
f 673/1/5 672/1/5 317/1/5
f 687/1/5 688/1/5 672/1/5
f 298/1/5 689/1/5 681/1/5
f 671/1/5 687/1/5 672/1/5
f 689/1/5 690/1/5 682/1/5
f 670/1/5 687/1/5 671/1/5
f 689/1/5 682/1/5 681/1/5
f 684/1/5 690/1/5 691/1/5
f 358/1/5 362/1/5 677/1/5
f 669/1/5 691/1/5 685/1/5
f 676/1/5 317/1/5 358/1/5
f 669/1/5 684/1/5 691/1/5
f 687/1/5 670/1/5 686/1/5
f 690/1/5 683/1/5 682/1/5
f 686/1/5 669/1/5 685/1/5
f 670/1/5 669/1/5 686/1/5
f 726/1/495 709/1/495 708/1/495
f 731/1/496 733/1/496 716/1/496
f 702/1/497 724/1/497 725/1/497
f 724/1/498 702/1/498 703/1/498
f 740/1/499 692/1/499 693/1/499
f 740/1/500 694/1/500 692/1/500
f 694/1/501 741/1/501 695/1/501
f 739/1/502 697/1/502 738/1/502
f 738/1/503 697/1/503 696/1/503
f 704/1/504 701/1/504 728/1/504
f 706/1/505 743/1/505 742/1/505
f 707/1/506 743/1/506 706/1/506
f 708/1/507 737/1/507 726/1/507
f 728/1/508 723/1/508 704/1/508
f 718/1/509 745/1/509 744/1/509
f 723/1/510 703/1/510 704/1/510
f 723/1/511 724/1/511 703/1/511
f 746/1/512 693/1/512 705/1/512
f 705/1/513 742/1/513 746/1/513
f 721/1/514 731/1/514 716/1/514
f 729/1/515 699/1/515 741/1/515
f 733/1/516 715/1/516 716/1/516
f 734/1/517 715/1/517 733/1/517
f 734/1/518 714/1/518 715/1/518
f 717/1/519 727/1/519 711/1/519
f 717/1/520 726/1/520 727/1/520
f 720/1/521 736/1/521 721/1/521
f 722/1/522 712/1/522 747/1/522
f 748/1/523 711/1/523 727/1/523
f 732/1/524 721/1/524 736/1/524
f 721/1/525 732/1/525 731/1/525
f 717/1/526 709/1/526 726/1/526
f 737/1/527 714/1/527 734/1/527
f 714/1/528 737/1/528 713/1/528
f 708/1/529 713/1/529 737/1/529
f 722/1/530 745/1/530 718/1/530
f 747/1/531 745/1/531 722/1/531
f 739/1/532 701/1/532 697/1/532
f 701/1/533 739/1/533 728/1/533
f 725/1/534 743/1/534 702/1/534
f 729/1/535 698/1/535 699/1/535
f 730/1/536 698/1/536 729/1/536
f 735/1/537 698/1/537 730/1/537
f 693/1/512 746/1/512 749/1/512
f 698/1/538 735/1/538 700/1/538
f 749/1/499 740/1/499 693/1/499
f 750/1/500 694/1/500 740/1/500
f 694/1/501 750/1/501 741/1/501
f 743/1/539 707/1/539 702/1/539
f 695/1/540 741/1/540 699/1/540
f 738/1/541 696/1/541 700/1/541
f 735/1/542 738/1/542 700/1/542
f 742/1/543 705/1/543 706/1/543
f 718/1/544 744/1/544 719/1/544
f 710/1/545 748/1/545 712/1/545
f 748/1/546 710/1/546 711/1/546
f 748/1/547 747/1/547 712/1/547
f 744/1/548 720/1/548 719/1/548
f 720/1/549 744/1/549 736/1/549
f 703/1/1 702/1/1 22/1/1
f 713/1/1 708/1/1 22/1/1
f 338/1/1 721/1/1 157/1/1
f 189/1/1 698/1/1 700/1/1
f 338/1/1 720/1/1 721/1/1
f 709/1/1 189/1/1 708/1/1
f 338/1/1 719/1/1 720/1/1
f 189/1/1 717/1/1 711/1/1
f 338/1/1 718/1/1 719/1/1
f 717/1/1 189/1/1 709/1/1
f 338/1/1 722/1/1 718/1/1
f 713/1/1 22/1/1 714/1/1
f 338/1/1 189/1/1 722/1/1
f 189/1/1 700/1/1 696/1/1
f 697/1/1 189/1/1 696/1/1
f 697/1/1 701/1/1 189/1/1
f 189/1/1 701/1/1 22/1/1
f 712/1/1 189/1/1 710/1/1
f 704/1/1 703/1/1 22/1/1
f 22/1/1 701/1/1 704/1/1
f 189/1/1 22/1/1 708/1/1
f 157/1/1 721/1/1 716/1/1
f 702/1/1 707/1/1 529/1/1
f 22/1/1 702/1/1 529/1/1
f 707/1/1 706/1/1 529/1/1
f 23/1/1 698/1/1 189/1/1
f 705/1/1 20/1/1 706/1/1
f 23/1/1 699/1/1 698/1/1
f 693/1/1 20/1/1 705/1/1
f 23/1/1 695/1/1 699/1/1
f 692/1/1 20/1/1 693/1/1
f 23/1/1 694/1/1 695/1/1
f 694/1/1 20/1/1 692/1/1
f 23/1/1 20/1/1 694/1/1
f 189/1/1 712/1/1 722/1/1
f 730/1/1 751/1/1 735/1/1
f 749/1/1 751/1/1 740/1/1
f 750/1/1 751/1/1 741/1/1
f 739/1/1 751/1/1 728/1/1
f 724/1/1 751/1/1 725/1/1
f 725/1/1 751/1/1 743/1/1
f 740/1/1 751/1/1 750/1/1
f 735/1/1 751/1/1 738/1/1
f 723/1/1 751/1/1 724/1/1
f 729/1/1 751/1/1 730/1/1
f 728/1/1 751/1/1 723/1/1
f 743/1/1 751/1/1 742/1/1
f 746/1/1 751/1/1 749/1/1
f 738/1/1 751/1/1 739/1/1
f 741/1/1 751/1/1 729/1/1
f 742/1/1 751/1/1 746/1/1
f 748/1/1 752/1/1 747/1/1
f 731/1/1 752/1/1 733/1/1
f 747/1/1 752/1/1 745/1/1
f 736/1/1 752/1/1 732/1/1
f 744/1/1 752/1/1 736/1/1
f 726/1/1 752/1/1 727/1/1
f 727/1/1 752/1/1 748/1/1
f 733/1/1 752/1/1 734/1/1
f 734/1/1 752/1/1 737/1/1
f 732/1/1 752/1/1 731/1/1
f 745/1/1 752/1/1 744/1/1
f 737/1/1 752/1/1 726/1/1
f 755/1/5 753/1/5 754/1/5 756/1/5
f 362/1/550 358/1/550 755/1/550 756/1/550
f 757/1/551 753/1/551 396/1/551
f 11/1/552 754/1/552 753/1/552 757/1/552
f 757/1/3 12/1/3 11/1/3
