# Blender 5.0.1
# www.blender.org
mtllib i02_head_left_eye_vertical_visual_4.mtl
o i02_head_left_eye_vertical_visual.001
v 0.001319 -0.079490 0.013835
v 0.000582 -0.079490 0.014070
v 0.001148 -0.052566 0.013910
v 0.000492 -0.052566 0.014099
v 0.008522 -0.052566 0.014146
v 0.000002 -0.052566 0.014146
v -0.000577 -0.079490 0.014070
v -0.008523 -0.052566 0.014146
v -0.000492 -0.052566 0.014099
v -0.001144 -0.052566 0.013910
v -0.001625 -0.052566 0.013684
v -0.001319 -0.079490 0.013835
v -0.001945 -0.052566 0.013476
v -0.008522 0.052566 0.014146
v -0.003470 0.004712 0.014146
v -0.003559 0.003168 0.014146
v -0.003470 -0.004694 0.014146
v -0.003559 -0.003150 0.014146
v -0.002984 -0.008984 0.014146
v -0.003180 -0.007620 0.014146
v -0.003615 -0.001571 0.014146
v -0.003342 -0.006184 0.014146
v -0.003632 0.000009 0.014146
v -0.003615 0.001589 0.014146
v -0.002763 -0.010276 0.014146
v 0.003184 -0.010276 0.014146
v 0.002929 -0.011443 0.014146
v 0.000211 -0.016200 0.014146
v 0.000586 -0.016110 0.014146
v 0.000961 -0.015876 0.014146
v 0.001327 -0.015500 0.014146
v -0.000164 -0.016110 0.014146
v 0.001681 -0.014961 0.014146
v -0.000539 -0.015876 0.014146
v -0.001600 -0.014279 0.014146
v -0.001259 -0.014961 0.014146
v 0.002494 0.079490 0.012967
v 0.003150 0.052566 0.012307
v 0.002861 0.052566 0.012656
v 0.004220 0.052566 0.010628
v 0.003968 0.052566 0.011090
v 0.003794 0.079490 0.011373
v 0.004548 0.079490 0.009930
v 0.006137 0.052566 0.003951
v 0.006290 0.052566 0.002537
v 0.008522 0.052566 0.014146
v -0.005702 0.079490 0.006366
v -0.005787 0.052566 0.005998
v -0.005920 0.052566 0.005328
v 0.006375 0.052566 0.001094
v -0.005481 0.052566 0.007280
v -0.005302 0.052566 0.007893
v 0.006392 0.052566 -0.000368
v 0.006375 0.052566 -0.001094
v 0.008522 0.052566 -0.014146
v -0.004910 0.052566 0.009063
v 0.006358 0.079490 0.001283
v -0.005187 0.079490 0.008252
v 0.006367 0.079490 -0.001103
v 0.006290 0.052566 -0.002537
v 0.001148 0.052566 -0.013910
v 0.000492 0.052566 -0.014099
v 0.001319 0.079490 -0.013835
v 0.000582 0.079490 -0.014070
v 0.006056 0.079490 -0.004508
v 0.005924 0.052566 -0.005328
v 0.000002 0.052566 -0.014146
v -0.000492 0.052566 -0.014099
v -0.008522 0.052566 -0.014146
v -0.001144 0.052566 -0.013910
v 0.005481 0.052566 -0.007280
v 0.005792 0.052566 -0.005998
v -0.001945 0.052566 -0.013476
v -0.002256 0.052566 -0.013241
v -0.001319 0.079490 -0.013835
v 0.004910 0.052566 -0.009063
v 0.005306 0.052566 -0.007893
v -0.003146 0.052566 -0.012307
v -0.002558 0.052566 -0.012958
v 0.004220 0.052566 -0.010628
v 0.004693 0.052566 -0.009610
v 0.003968 0.052566 -0.011090
v 0.003432 0.052566 -0.011939
v 0.003794 0.079490 -0.011373
v 0.002950 0.079490 -0.012533
v 0.003150 0.052566 -0.012307
v 0.002563 0.052566 -0.012958
v 0.002256 0.052566 -0.013241
v 0.001945 0.052566 -0.013476
v 0.003406 -0.008984 -0.014146
v 0.003406 -0.008984 0.014146
v -0.002256 -0.052566 0.013240
v 0.005775 -0.079490 0.006036
v 0.006337 -0.079490 0.001650
v 0.005187 -0.079490 0.008252
v 0.004548 -0.079490 0.009930
v 0.003794 -0.079490 0.011373
v 0.006388 -0.079490 -0.000547
v -0.006384 -0.079490 -0.000547
v 0.006260 -0.079490 -0.002735
v 0.005971 -0.079490 -0.005027
v 0.005591 -0.079490 -0.006856
v 0.002494 -0.079490 -0.012967
v 0.003794 -0.079490 -0.011364
v 0.004548 -0.079490 -0.009930
v -0.006337 -0.079490 0.001650
v -0.006128 -0.079490 0.003980
v 0.002950 -0.079490 0.012533
v -0.002857 -0.052566 0.012656
v -0.003432 -0.052566 0.011939
v -0.002950 -0.079490 0.012533
v -0.004544 -0.079490 0.009930
v -0.003794 -0.079490 0.011373
v -0.002034 -0.079490 -0.013391
v -0.006260 -0.079490 -0.002735
v -0.001071 -0.079490 -0.013929
v -0.000330 -0.079490 -0.014127
v 0.000334 -0.079490 -0.014127
v 0.001076 -0.079490 -0.013929
v -0.004220 -0.052566 0.010628
v -0.004693 -0.052566 0.009610
v -0.005775 -0.079490 0.006036
v -0.005187 -0.079490 0.008252
v -0.004544 -0.079490 -0.009930
v -0.003794 -0.079490 -0.011364
v -0.005587 -0.079490 -0.006856
v -0.005967 -0.079490 -0.005027
v -0.008523 -0.052566 -0.014146
v -0.004910 -0.052566 0.009063
v -0.005302 -0.052566 0.007893
v -0.005481 -0.052566 0.007280
v -0.005787 -0.052566 0.005998
v -0.005920 -0.052566 0.005328
v -0.001924 -0.013453 -0.014146
v -0.001600 -0.014279 -0.014146
v -0.001924 -0.013453 0.014146
v 0.000961 0.015895 0.014146
v 0.000586 0.016128 -0.014146
v 0.000586 0.016128 0.014146
v 0.000211 0.016200 0.014146
v -0.000905 0.015518 -0.014146
v -0.000905 0.015518 0.014146
v -0.000539 0.015895 0.014146
v -0.001259 0.014979 -0.014146
v -0.001259 0.014979 0.014146
v -0.001600 0.014297 0.014146
v -0.000539 -0.015876 -0.014146
v -0.000905 -0.015500 -0.014146
v 0.000002 -0.052566 -0.014146
v -0.000164 -0.016110 -0.014146
v 0.000961 -0.015876 -0.014146
v 0.000586 -0.016110 -0.014146
v 0.001327 -0.015500 -0.014146
v 0.000211 -0.016200 -0.014146
v -0.000905 -0.015500 0.014146
v -0.001259 -0.014961 -0.014146
v 0.002021 -0.014279 -0.014146
v 0.001681 -0.014961 -0.014146
v 0.008522 -0.052566 -0.014146
v 0.006235 0.079490 -0.003093
v 0.001076 0.079490 0.013929
v 0.005187 0.079490 0.008252
v 0.006098 0.079490 0.004159
v 0.005702 0.079490 0.006366
v 0.005187 0.079490 -0.008252
v 0.004548 0.079490 -0.009930
v 0.005702 0.079490 -0.006366
v 0.006290 -0.052566 -0.002537
v 0.006375 -0.052566 -0.001094
v 0.006222 -0.052566 0.003254
v 0.006137 -0.052566 0.003951
v 0.003150 -0.052566 0.012307
v 0.002562 -0.052566 0.012958
v 0.002256 -0.052566 0.013240
v 0.005792 -0.052566 0.005998
v 0.005481 -0.052566 0.007280
v -0.004543 0.079490 0.009930
v -0.003794 0.079490 0.011373
v -0.002494 0.079490 0.012967
v -0.001071 0.079490 0.013929
v -0.000330 0.079490 0.014127
v -0.000577 0.079490 -0.014070
v 0.000334 0.079490 0.014127
v 0.004693 -0.052566 0.009610
v 0.004910 -0.052566 0.009063
v 0.004220 -0.052566 0.010628
v 0.003968 -0.052566 0.011090
v 0.003432 -0.052566 0.011939
v -0.006098 0.079490 0.004159
v -0.006354 0.079490 0.001283
v -0.006367 0.079490 -0.001103
v -0.006235 0.079490 -0.003093
v -0.006056 0.079490 -0.004508
v -0.005702 0.079490 -0.006366
v -0.005187 0.079490 -0.008252
v -0.004543 0.079490 -0.009930
v -0.003794 0.079490 -0.011373
v -0.002950 0.079490 -0.012533
v 0.000002 0.052566 0.014146
v 0.001327 0.015518 0.014146
v 0.003406 0.009002 0.014146
v 0.003184 0.010294 0.014146
v 0.002929 0.011461 0.014146
v 0.002652 0.012538 0.014146
v 0.003764 0.006202 0.014146
v 0.003892 0.004712 0.014146
v 0.002021 0.014297 0.014146
v 0.002345 0.013471 0.014146
v 0.003602 0.007638 0.014146
v 0.004058 0.000009 0.014146
v 0.003981 0.003168 0.014146
v 0.002021 -0.014279 0.014146
v 0.002345 -0.013453 0.014146
v 0.003764 -0.006184 0.014146
v 0.003602 -0.007620 0.014146
v 0.003892 -0.004694 0.014146
v 0.003981 -0.003150 0.014146
v 0.004037 -0.001571 0.014146
v 0.004037 0.001589 0.014146
v 0.002652 -0.012520 0.014146
v -0.002507 -0.011443 0.014146
v -0.002230 -0.012520 0.014146
v 0.001681 0.014979 0.014146
v -0.006290 0.052566 -0.002537
v -0.006371 0.052566 -0.001094
v -0.005920 0.052566 -0.005328
v -0.003968 -0.052566 0.011090
v -0.006388 0.052566 -0.000368
v -0.006371 0.052566 0.001094
v 0.003184 0.010294 -0.014146
v 0.003406 0.009002 -0.014146
v 0.000492 -0.052566 -0.014099
v 0.001148 -0.052566 -0.013910
v -0.000492 -0.052566 -0.014099
v 0.001630 -0.052566 -0.013684
v -0.003432 0.052566 -0.011939
v -0.001787 -0.052566 -0.013580
v -0.001144 -0.052566 -0.013910
v 0.003602 0.007638 -0.014146
v 0.003764 0.006202 -0.014146
v 0.008410 0.003635 -0.014146
v 0.003892 0.004712 -0.014146
v -0.002558 -0.052566 -0.012958
v 0.002929 0.011461 -0.014146
v 0.002652 0.012538 -0.014146
v 0.002345 0.013471 -0.014146
v -0.006137 -0.052566 0.003951
v -0.004220 0.052566 -0.010628
v -0.004693 0.052566 -0.009610
v -0.006222 -0.052566 0.003254
v -0.006337 -0.052566 0.001820
v 0.001327 0.015518 -0.014146
v -0.006388 -0.052566 0.000368
v -0.003968 0.052566 -0.011090
v -0.004910 0.052566 -0.009063
v -0.005302 0.052566 -0.007893
v -0.005481 0.052566 -0.007280
v 0.002021 0.014297 -0.014146
v -0.006371 -0.052566 -0.001094
v -0.005787 0.052566 -0.005998
v 0.002345 -0.013453 -0.014146
v -0.006039 -0.052566 -0.004649
v -0.006137 -0.052566 -0.003951
v -0.006290 -0.052566 -0.002537
v 0.003892 -0.004694 -0.014146
v 0.003981 -0.003150 -0.014146
v -0.004220 -0.052566 -0.010628
v -0.003704 -0.052566 -0.011534
v 0.004037 -0.001571 -0.014146
v 0.004037 0.001589 -0.014146
v 0.003981 0.003168 -0.014146
v 0.002652 -0.012520 -0.014146
v 0.003764 -0.006184 -0.014146
v 0.004058 0.000009 -0.014146
v 0.003602 -0.007620 -0.014146
v 0.003184 -0.010276 -0.014146
v 0.002929 -0.011443 -0.014146
v 0.001681 0.014979 -0.014146
v 0.000961 0.015894 -0.014146
v -0.000164 0.016128 -0.014146
v -0.000539 0.015894 -0.014146
v -0.001924 0.013471 -0.014146
v -0.002230 0.012538 -0.014146
v -0.001625 0.052566 0.013684
v 0.001945 -0.052566 0.013476
v 0.005306 -0.052566 0.007893
v 0.006039 -0.052566 0.004649
v 0.006137 -0.052566 -0.003951
v 0.006039 -0.052566 -0.004649
v 0.006392 -0.052566 0.000368
v -0.006290 0.052566 0.002537
v -0.006137 0.052566 0.003951
v 0.006341 -0.052566 0.001820
v 0.000492 0.052566 0.014099
v 0.001148 0.052566 0.013910
v -0.000492 0.052566 0.014099
v 0.001630 0.052566 0.013684
v 0.004910 -0.052566 -0.009063
v 0.005114 -0.052566 -0.008488
v 0.005481 -0.052566 -0.007280
v 0.005792 -0.052566 -0.005998
v 0.002562 -0.052566 -0.012958
v 0.002861 -0.052566 -0.012656
v 0.003968 -0.052566 -0.011090
v 0.004220 -0.052566 -0.010628
v 0.004693 -0.052566 -0.009610
v -0.002558 0.052566 0.012958
v -0.002856 0.052566 0.012656
v -0.001945 0.052566 0.013476
v -0.001144 0.052566 0.013910
v -0.003146 -0.052566 -0.012307
v 0.005924 0.052566 0.005328
v -0.002857 -0.052566 -0.012656
v -0.005787 -0.052566 -0.005998
v -0.005481 -0.052566 -0.007280
v -0.005110 -0.052566 -0.008488
v -0.004910 -0.052566 -0.009063
v -0.004693 -0.052566 -0.009610
v 0.001945 0.052566 0.013476
v 0.002563 0.052566 0.012958
v 0.003432 0.052566 0.011939
v 0.004693 0.052566 0.009610
v 0.004910 0.052566 0.009063
v 0.005306 0.052566 0.007893
v 0.005481 0.052566 0.007280
v 0.005792 0.052566 0.005998
v 0.000211 0.016200 -0.014146
v -0.001600 0.014297 -0.014146
v -0.002230 -0.012520 -0.014146
v -0.002507 -0.011443 -0.014146
v -0.002507 0.011461 -0.014146
v -0.002763 0.010294 -0.014146
v -0.003470 0.004712 -0.014146
v -0.003342 0.006202 -0.014146
v -0.002984 0.009002 -0.014146
v -0.003180 0.007638 -0.014146
v -0.003180 -0.007620 -0.014146
v -0.002984 -0.008984 -0.014146
v -0.002763 -0.010276 -0.014146
v -0.003559 0.003168 -0.014146
v -0.003632 0.000009 -0.014146
v -0.003615 0.001589 -0.014146
v -0.003615 -0.001571 -0.014146
v -0.003470 -0.004694 -0.014146
v -0.003559 -0.003150 -0.014146
v -0.003342 -0.006184 -0.014146
v -0.002507 0.011461 0.014146
v -0.002230 0.012538 0.014146
v -0.001924 0.013471 0.014146
v -0.002763 0.010294 0.014146
v -0.000164 0.016128 0.014146
v -0.002984 0.009002 0.014146
v -0.003180 0.007638 0.014146
v -0.003342 0.006202 0.014146
v -0.004693 0.052566 0.009610
v -0.004220 0.052566 0.010628
v -0.003968 0.052566 0.011090
v -0.003432 0.052566 0.011939
v -0.003146 0.052566 0.012307
v 0.001945 -0.052566 -0.013476
v 0.003150 -0.052566 -0.012307
v 0.003432 -0.052566 -0.011939
vn 0.3047 -0.0007 0.9524
vn -0.0000 -1.0000 -0.0000
vn -0.0000 -1.0000 0.0001
vn 0.2763 -0.0001 0.9611
vn 0.0959 -0.0007 0.9954
vn -0.0000 -0.0028 1.0000
vn -0.0951 -0.0007 0.9955
vn -0.2779 -0.0001 0.9606
vn -0.3031 -0.0007 0.9530
vn -0.0000 -0.0000 1.0000
vn 0.7694 0.0031 0.6388
vn 0.8784 0.0007 0.4780
vn 0.8863 0.0012 0.4632
vn -0.0000 1.0000 -0.0000
vn -0.9811 0.0005 0.1935
vn -0.9726 -0.0001 0.2326
vn 0.9983 0.0002 0.0589
vn 0.9999 0.0006 0.0117
vn -0.9600 0.0004 0.2801
vn 1.0000 0.0010 0.0036
vn -0.9482 -0.0002 0.3178
vn 0.9997 0.0003 -0.0234
vn 0.9983 0.0003 -0.0589
vn 0.3047 0.0007 -0.9525
vn 0.9915 -0.0009 -0.1301
vn 0.2764 0.0001 -0.9611
vn -0.0000 1.0000 -0.0001
vn -0.0000 1.0000 0.0001
vn -0.4762 -0.0006 -0.8793
vn -0.6042 0.0034 -0.7969
vn 0.8452 -0.0001 -0.5345
vn 0.8088 0.0015 -0.5881
vn 0.7944 0.0008 -0.6074
vn -0.9646 0.0010 0.2636
vn -0.9856 0.1690 -0.0000
vn -0.4255 0.0002 0.9050
vn -0.6041 -0.0054 0.7969
vn -0.6975 -0.0008 0.7165
vn -1.0000 -0.0000 -0.0000
vn -0.9482 0.0002 0.3178
vn -0.9600 -0.0004 0.2801
vn 0.9309 0.3652 -0.0000
vn -0.9811 -0.0002 0.1935
vn -0.9855 -0.0008 0.1695
vn -0.5285 -0.8489 -0.0000
vn -0.1880 -0.9822 -0.0000
vn 0.7170 -0.6970 -0.0000
vn 0.8359 -0.5488 -0.0000
vn 0.8946 -0.4470 -0.0000
vn -0.0000 -0.0000 -1.0000
vn -0.5285 0.8489 -0.0000
vn 0.7170 0.6970 -0.0000
vn 0.5285 0.8489 -0.0000
vn -0.7170 0.6970 -0.0000
vn -0.8359 0.5489 -0.0000
vn 0.9294 -0.0006 0.3691
vn 0.8784 -0.0007 0.4780
vn 0.7944 -0.0008 0.6074
vn 0.7420 0.0001 0.6704
vn 1.0000 -0.0000 -0.0000
vn 0.6780 -0.0074 0.7350
vn -0.5444 -0.0091 0.8388
vn -0.6236 -0.0027 0.7818
vn -0.7799 -0.0001 0.6259
vn -0.9913 -0.0010 -0.1316
vn -0.8088 -0.0015 0.5881
vn -0.8452 0.0001 0.5344
vn -0.8784 -0.0007 0.4780
vn -0.8873 -0.0013 0.4611
vn -0.9070 -0.0000 0.4211
vn -0.9294 -0.0008 0.3691
vn -0.9984 0.0001 -0.0560
vn -0.9338 -0.0012 0.3578
vn -0.9666 -0.0013 0.2564
vn -0.0000 -1.0000 -0.0001
vn 0.0957 0.0005 -0.9954
vn -0.0949 0.0005 -0.9955
vn 0.2580 -0.0005 -0.9661
vn 0.2764 -0.0001 -0.9611
vn 0.4254 -0.0005 -0.9050
vn -0.7420 -0.0002 -0.6704
vn -0.7899 0.0006 -0.6132
vn -0.6281 0.0003 -0.7781
vn -0.4875 -0.0016 -0.8731
vn -0.4565 -0.0006 -0.8897
vn -0.2780 -0.0001 -0.9606
vn -0.2581 -0.0005 -0.9661
vn -0.0000 -0.0007 -1.0000
vn -0.9070 -0.0000 -0.4211
vn -0.9878 -0.0001 0.1559
vn -0.9926 -0.0002 0.1213
vn -0.9294 0.0008 -0.3691
vn -0.9960 -0.0011 0.0892
vn -0.9338 0.0012 -0.3578
vn -0.9968 -0.0005 0.0799
vn -0.9994 -0.0002 0.0352
vn -0.9481 -0.0002 -0.3178
vn -0.9998 -0.0009 0.0214
vn -0.9999 0.0002 -0.0117
vn -0.9984 -0.0007 -0.0564
vn -0.9984 -0.0007 -0.0560
vn -0.9811 0.0005 -0.1935
vn -0.9942 -0.0003 -0.1078
vn -0.9919 -0.0012 -0.1272
vn -0.9824 0.0007 -0.1870
vn -0.9903 -0.0007 -0.1389
vn -0.9338 0.0012 0.3578
vn -0.5600 0.0040 0.8285
vn 0.6042 -0.0034 0.7969
vn 0.4782 0.0006 0.8783
vn 0.0957 0.0007 -0.9954
vn -0.0000 0.0028 -1.0000
vn -0.0949 0.0007 -0.9955
vn -0.2780 0.0001 -0.9606
vn -0.3031 0.0007 -0.9530
vn -0.6832 0.0077 -0.7302
vn 0.9471 0.0001 0.3209
vn -0.6236 0.0032 -0.7818
vn 0.9346 -0.0011 0.3558
vn -0.8088 0.0015 -0.5881
vn -0.8452 -0.0001 -0.5345
vn -0.8784 0.0007 -0.4779
vn 0.9836 -0.0004 0.1803
vn -0.8873 0.0013 -0.4611
vn 0.9718 -0.0003 0.2357
vn 0.9666 -0.0013 0.2564
vn 0.9617 -0.0006 0.2739
vn 0.9070 0.0001 0.4211
vn -0.9600 0.0004 -0.2801
vn 0.8863 -0.0012 0.4632
vn -0.9646 0.0010 -0.2636
vn 0.8452 0.0001 0.5344
vn -0.9726 -0.0001 -0.2326
vn 0.8088 -0.0015 0.5881
vn 0.6236 -0.0033 0.7818
vn -0.9921 -0.0006 -0.1255
vn -0.9978 0.0007 -0.0662
vn -0.9997 0.0002 -0.0234
vn 0.9903 -0.0006 -0.1389
vn -1.0000 0.0009 0.0054
vn 0.9921 -0.0011 -0.1255
vn -0.9999 0.0006 0.0117
vn 0.9942 -0.0003 -0.1078
vn -0.9984 0.0002 0.0560
vn 0.9983 -0.0007 -0.0589
vn -0.9961 0.0018 0.0885
vn 0.9983 -0.0007 -0.0583
vn -0.9942 0.0006 0.1078
vn 0.9999 0.0002 -0.0117
vn -0.9878 0.0002 0.1559
vn 0.9997 -0.0009 0.0233
vn -0.9843 0.0011 0.1767
vn 0.9994 -0.0004 0.0352
vn 0.9966 -0.0007 0.0829
vn 0.0959 -0.0005 0.9954
vn 0.9926 -0.0040 0.1213
vn -0.0951 -0.0005 0.9955
vn 0.2581 0.0005 0.9661
vn 0.9919 -0.0033 0.1272
vn 0.2763 0.0001 0.9611
vn 0.9903 -0.0026 0.1389
vn 0.4255 0.0005 0.9050
vn -0.7113 0.0014 0.7029
vn 0.9070 0.0001 -0.4211
vn -0.6457 0.0013 0.7636
vn -0.5444 0.0048 0.8388
vn -0.4255 0.0005 0.9050
vn -0.2779 0.0001 0.9606
vn 0.9718 0.0003 -0.2356
vn -0.2582 0.0005 0.9661
vn -0.0000 0.0007 1.0000
vn 0.9843 0.0013 0.1767
vn 0.9882 0.0002 0.1529
vn 0.9942 0.0006 0.1078
vn 0.9959 0.0017 0.0900
vn 0.9978 0.0007 -0.0662
vn 0.9921 -0.0006 -0.1255
vn -0.9831 -0.0001 -0.1833
vn 0.9824 0.0009 -0.1870
vn 0.9811 0.0006 -0.1935
vn 0.9718 -0.0000 -0.2356
vn 0.9646 0.0010 -0.2636
vn 0.9617 0.0006 -0.2739
vn 0.9471 -0.0001 -0.3210
vn 0.9346 0.0011 -0.3558
vn 0.9294 0.0006 -0.3691
vn 0.9070 -0.0001 -0.4211
vn 0.8863 0.0012 -0.4632
vn 0.8784 0.0007 -0.4779
vn -0.9792 -0.0008 -0.2030
vn -0.9726 0.0002 -0.2326
vn -0.9559 -0.0008 -0.2935
vn -0.9469 -0.0025 -0.3215
vn -0.9294 -0.0008 -0.3691
vn 0.7420 -0.0001 -0.6704
vn 0.6780 0.0074 -0.7350
vn -0.9444 -0.0032 -0.3287
vn 0.6042 0.0034 -0.7969
vn 0.4782 -0.0006 -0.8783
vn -0.8861 -0.0014 -0.4635
vn -0.8690 -0.0002 -0.4948
vn 0.6236 0.0033 -0.7818
vn -0.8109 -0.0010 -0.5852
vn -0.7694 -0.0039 -0.6387
vn -0.7553 -0.0041 -0.6554
vn -0.7112 -0.0090 -0.7029
vn 0.5496 0.0046 0.8354
vn 0.6431 0.0014 0.7658
vn 0.5612 0.0040 0.8277
vn 0.7113 0.0016 0.7029
vn 0.7751 0.0029 0.6319
vn 0.8452 -0.0001 0.5344
vn 0.7944 0.0045 0.6074
vn 0.9070 -0.0001 0.4211
vn 0.9294 0.0006 0.3691
vn 0.9346 0.0011 0.3558
vn 0.9471 -0.0001 0.3209
vn 0.9617 0.0006 0.2739
vn 0.9646 0.0010 0.2636
vn 0.9718 -0.0000 0.2357
vn 0.9811 0.0006 0.1935
vn -0.9898 -0.1422 -0.0000
vn -0.9856 -0.1689 -0.0000
vn -0.9685 -0.2490 -0.0000
vn -0.9500 -0.3122 -0.0000
vn -0.9310 -0.3651 -0.0000
vn -0.9898 0.1422 -0.0000
vn -0.9937 0.1121 -0.0000
vn -0.9963 0.0855 -0.0000
vn -0.9983 0.0578 -0.0000
vn -0.9994 0.0350 -0.0000
vn -0.9999 0.0135 -0.0000
vn -0.9999 -0.0135 -0.0000
vn -0.9994 -0.0350 -0.0000
vn -0.9983 -0.0578 -0.0000
vn -0.9500 0.3122 -0.0000
vn -0.9685 0.2490 -0.0000
vn -0.9963 -0.0855 -0.0000
vn -0.9937 -0.1121 -0.0000
vn -0.9768 -0.2140 -0.0000
vn -0.8946 -0.4470 -0.0000
vn -0.9294 0.0008 0.3691
vn -0.8873 0.0013 0.4611
vn -0.8784 0.0007 0.4780
vn -0.8452 -0.0001 0.5344
vn -0.8946 0.4469 -0.0000
vn -0.7899 0.0041 0.6132
vn -0.9309 0.3652 -0.0000
vn -0.7694 0.0030 0.6388
vn -0.9768 0.2140 -0.0000
vn -0.7751 0.0029 0.6319
vn 0.5498 -0.0046 -0.8353
vn 0.5612 -0.0040 -0.8277
vn 0.8784 -0.0008 -0.4779
vn 0.6431 -0.0014 -0.7658
vn 0.7112 -0.0016 -0.7030
vn 0.7694 -0.0031 -0.6387
vn 0.7769 -0.0030 -0.6296
vn 0.8850 -0.0013 -0.4656
vn 0.7944 -0.0045 -0.6074
vn 0.9294 -0.0006 -0.3691
vn 0.9422 -0.0036 -0.3350
vn 0.9569 -0.0006 -0.2904
vn 0.9469 -0.0024 -0.3215
vn 0.9792 -0.0008 -0.2029
vn 0.9836 -0.0000 -0.1803
vn 0.9898 -0.1422 -0.0000
vn 0.9937 -0.1121 -0.0000
vn 0.9856 0.1690 -0.0000
vn 0.9768 0.2140 -0.0000
vn 0.9983 0.0578 -0.0000
vn 0.9963 0.0855 -0.0000
vn 0.9937 0.1121 -0.0000
vn 0.9994 -0.0350 -0.0000
vn 0.9999 -0.0108 -0.0000
vn 0.9310 -0.3651 -0.0000
vn -0.8359 -0.5488 -0.0000
vn -0.7170 -0.6970 -0.0000
vn 0.1880 -0.9822 -0.0000
vn 0.5285 -0.8489 -0.0000
vn 0.9500 -0.3122 -0.0000
vn 0.9685 -0.2490 -0.0000
vn 0.9685 0.2490 -0.0000
vn 0.9500 0.3122 -0.0000
vn 0.8946 0.4469 -0.0000
vn 0.9768 -0.2140 -0.0000
vn 0.9856 -0.1689 -0.0000
vn 0.9963 -0.0855 -0.0000
vn 0.9983 -0.0578 -0.0000
vn 0.9898 0.1422 -0.0000
vn 0.9999 0.0108 -0.0000
vn 0.9994 0.0350 -0.0000
vn 0.8359 0.5489 -0.0000
vn 0.2330 0.9725 -0.0000
vn -0.2330 0.9725 -0.0000
s 0
f 1//1 3//1 2//1
f 3//2 5//2 4//2
f 6//3 4//3 5//3
f 2//4 3//4 4//4
f 2//5 4//5 6//5
f 2//6 6//6 7//6
f 8//3 9//3 6//3
f 7//7 6//7 9//7
f 9//2 8//2 10//2
f 7//8 9//8 10//8
f 10//2 8//2 11//2
f 7//9 10//9 12//9
f 11//2 8//2 13//2
f 14//10 16//10 15//10
f 17//10 18//10 8//10
f 19//10 20//10 8//10
f 18//10 21//10 8//10
f 22//10 17//10 8//10
f 22//10 8//10 20//10
f 23//10 8//10 21//10
f 24//10 14//10 23//10
f 19//10 8//10 25//10
f 8//10 23//10 14//10
f 24//10 16//10 14//10
f 26//10 27//10 5//10
f 28//10 6//10 29//10
f 30//10 6//10 31//10
f 32//10 6//10 28//10
f 5//10 31//10 6//10
f 33//10 31//10 5//10
f 29//10 6//10 30//10
f 34//10 6//10 32//10
f 35//10 8//10 36//10
f 37//11 39//11 38//11
f 40//12 42//12 41//12
f 43//13 42//13 40//13
f 44//14 46//14 45//14
f 47//15 49//15 48//15
f 45//14 46//14 50//14
f 48//14 14//14 51//14
f 51//14 14//14 52//14
f 51//16 47//16 48//16
f 50//14 46//14 53//14
f 54//14 53//14 55//14
f 56//14 52//14 14//14
f 57//17 45//17 50//17
f 53//18 57//18 50//18
f 51//19 52//19 58//19
f 57//20 53//20 59//20
f 58//21 52//21 56//21
f 59//22 53//22 54//22
f 60//23 59//23 54//23
f 61//14 55//14 62//14
f 63//24 61//24 64//24
f 65//25 60//25 66//25
f 64//26 61//26 62//26
f 67//27 62//27 55//27
f 46//14 55//14 53//14
f 54//14 55//14 60//14
f 55//14 66//14 60//14
f 67//28 69//28 68//28
f 68//14 69//14 70//14
f 71//14 72//14 55//14
f 70//14 69//14 73//14
f 73//14 69//14 74//14
f 75//29 70//29 73//29
f 76//14 77//14 55//14
f 75//30 73//30 74//30
f 78//14 79//14 69//14
f 80//14 81//14 55//14
f 72//14 66//14 55//14
f 71//14 55//14 77//14
f 76//14 55//14 81//14
f 80//14 55//14 82//14
f 83//14 82//14 55//14
f 84//31 82//31 83//31
f 85//32 84//32 83//32
f 83//14 55//14 86//14
f 86//14 55//14 87//14
f 83//33 86//33 85//33
f 87//14 55//14 88//14
f 89//14 88//14 55//14
f 61//14 89//14 55//14
f 47//34 51//34 58//34
f 90//35 26//35 91//35
f 12//36 10//36 11//36
f 13//2 8//2 92//2
f 93//2 95//2 94//2
f 96//2 94//2 95//2
f 97//2 94//2 96//2
f 98//2 94//2 99//2
f 100//2 98//2 99//2
f 101//2 100//2 99//2
f 102//2 101//2 99//2
f 103//2 104//2 99//2
f 104//2 105//2 99//2
f 106//2 94//2 107//2
f 7//2 94//2 2//2
f 2//2 94//2 1//2
f 1//2 94//2 108//2
f 108//2 94//2 97//2
f 109//2 8//2 110//2
f 92//2 8//2 109//2
f 111//37 13//37 92//37
f 112//2 94//2 113//2
f 113//2 94//2 111//2
f 111//2 94//2 12//2
f 109//38 111//38 92//38
f 114//2 116//2 115//2
f 117//2 99//2 116//2
f 118//2 99//2 117//2
f 12//2 94//2 7//2
f 99//2 94//2 106//2
f 102//2 99//2 105//2
f 119//2 103//2 99//2
f 118//2 119//2 99//2
f 120//2 8//2 121//2
f 99//2 115//2 116//2
f 122//2 94//2 123//2
f 123//2 94//2 112//2
f 107//2 94//2 122//2
f 124//2 125//2 115//2
f 126//2 124//2 127//2
f 115//2 127//2 124//2
f 125//2 114//2 115//2
f 69//39 128//39 14//39
f 14//39 128//39 8//39
f 129//2 121//2 8//2
f 129//2 8//2 130//2
f 130//2 8//2 131//2
f 131//2 8//2 132//2
f 123//40 129//40 130//40
f 132//2 8//2 133//2
f 123//41 130//41 131//41
f 134//42 136//42 135//42
f 133//43 122//43 132//43
f 122//44 133//44 107//44
f 137//45 139//45 138//45
f 139//46 140//46 138//46
f 141//47 143//47 142//47
f 144//48 141//48 145//48
f 142//48 145//48 141//48
f 144//49 145//49 146//49
f 147//50 149//50 148//50
f 150//50 149//50 147//50
f 151//50 149//50 152//50
f 29//51 151//51 152//51
f 153//50 149//50 151//50
f 154//50 149//50 150//50
f 152//50 149//50 154//50
f 147//52 155//52 34//52
f 34//53 32//53 147//53
f 128//50 148//50 149//50
f 156//50 148//50 128//50
f 157//50 159//50 158//50
f 156//50 128//50 135//50
f 160//14 161//14 59//14
f 43//14 59//14 42//14
f 42//14 59//14 37//14
f 37//14 59//14 161//14
f 162//14 59//14 43//14
f 151//51 29//51 30//51
f 30//54 31//54 151//54
f 153//54 151//54 31//54
f 57//14 59//14 163//14
f 163//14 59//14 164//14
f 164//14 59//14 162//14
f 153//55 31//55 33//55
f 165//14 166//14 161//14
f 166//14 84//14 161//14
f 167//14 165//14 161//14
f 65//14 167//14 161//14
f 85//14 63//14 161//14
f 168//2 159//2 169//2
f 170//2 5//2 171//2
f 172//2 5//2 173//2
f 173//2 5//2 174//2
f 175//2 5//2 176//2
f 177//14 178//14 75//14
f 178//14 179//14 75//14
f 58//14 177//14 75//14
f 179//14 180//14 75//14
f 181//14 182//14 180//14
f 183//14 182//14 181//14
f 65//14 161//14 160//14
f 183//14 161//14 182//14
f 184//2 185//2 5//2
f 186//2 184//2 5//2
f 182//14 75//14 180//14
f 185//56 184//56 96//56
f 187//2 186//2 5//2
f 188//2 187//2 5//2
f 84//14 85//14 161//14
f 63//14 64//14 161//14
f 64//14 182//14 161//14
f 172//2 188//2 5//2
f 97//57 186//57 187//57
f 47//14 190//14 189//14
f 47//14 191//14 190//14
f 47//14 192//14 191//14
f 47//14 193//14 192//14
f 47//14 194//14 193//14
f 47//14 195//14 194//14
f 47//14 196//14 195//14
f 47//14 197//14 196//14
f 47//14 198//14 197//14
f 198//14 47//14 75//14
f 47//14 58//14 75//14
f 108//58 188//58 172//58
f 108//59 172//59 173//59
f 55//60 46//60 5//60
f 1//61 173//61 174//61
f 159//60 55//60 5//60
f 143//10 199//10 142//10
f 46//10 199//10 200//10
f 201//10 46//10 202//10
f 203//10 46//10 204//10
f 202//10 46//10 203//10
f 205//10 206//10 46//10
f 207//10 208//10 46//10
f 204//10 46//10 208//10
f 205//10 46//10 209//10
f 209//10 46//10 201//10
f 5//10 46//10 210//10
f 211//10 46//10 206//10
f 33//10 5//10 212//10
f 213//10 212//10 5//10
f 214//10 215//10 5//10
f 214//10 5//10 216//10
f 217//10 5//10 218//10
f 211//10 219//10 46//10
f 220//10 213//10 5//10
f 216//10 5//10 217//10
f 210//10 218//10 5//10
f 91//10 5//10 215//10
f 220//10 5//10 27//10
f 91//10 26//10 5//10
f 219//10 210//10 46//10
f 155//10 6//10 34//10
f 221//10 25//10 8//10
f 6//10 155//10 8//10
f 136//10 222//10 8//10
f 200//10 223//10 46//10
f 207//10 46//10 223//10
f 137//10 200//10 199//10
f 139//10 137//10 199//10
f 199//10 14//10 142//10
f 111//62 11//62 13//62
f 12//63 11//63 111//63
f 224//14 69//14 225//14
f 111//64 109//64 110//64
f 224//65 193//65 226//65
f 111//66 110//66 113//66
f 113//67 110//67 227//67
f 113//68 227//68 120//68
f 225//14 69//14 228//14
f 113//69 120//69 112//69
f 112//70 120//70 121//70
f 112//71 121//71 129//71
f 191//72 224//72 225//72
f 112//73 129//73 123//73
f 229//14 228//14 14//14
f 123//74 131//74 122//74
f 122//16 131//16 132//16
f 230//50 55//50 231//50
f 159//75 232//75 149//75
f 232//2 159//2 233//2
f 149//76 232//76 118//76
f 149//75 234//75 128//75
f 117//77 234//77 149//77
f 118//78 232//78 119//78
f 235//2 233//2 159//2
f 119//79 232//79 233//79
f 119//80 233//80 235//80
f 74//14 69//14 79//14
f 236//14 78//14 69//14
f 198//81 79//81 78//81
f 237//2 128//2 238//2
f 198//82 78//82 236//82
f 239//50 241//50 240//50
f 242//50 240//50 241//50
f 241//50 239//50 55//50
f 114//83 243//83 237//83
f 234//2 238//2 128//2
f 237//84 116//84 114//84
f 244//50 55//50 230//50
f 116//85 237//85 238//85
f 244//50 245//50 55//50
f 116//86 238//86 234//86
f 116//87 234//87 117//87
f 117//88 149//88 118//88
f 231//50 55//50 239//50
f 245//50 246//50 55//50
f 133//2 8//2 247//2
f 248//89 249//89 196//89
f 247//2 8//2 250//2
f 250//2 8//2 251//2
f 67//50 55//50 252//50
f 133//90 247//90 107//90
f 251//2 8//2 253//2
f 236//14 69//14 254//14
f 254//14 69//14 248//14
f 248//14 69//14 249//14
f 249//14 69//14 255//14
f 256//14 255//14 69//14
f 107//91 247//91 250//91
f 196//92 249//92 255//92
f 107//93 250//93 106//93
f 256//14 69//14 257//14
f 246//50 258//50 55//50
f 259//2 253//2 128//2
f 196//94 255//94 195//94
f 106//95 250//95 251//95
f 106//96 251//96 253//96
f 195//97 255//97 256//97
f 257//14 69//14 260//14
f 149//50 153//50 159//50
f 106//98 253//98 99//98
f 158//50 159//50 153//50
f 261//50 159//50 157//50
f 99//99 253//99 259//99
f 260//14 69//14 226//14
f 262//2 263//2 128//2
f 99//100 259//100 115//100
f 115//101 259//101 264//101
f 224//14 226//14 69//14
f 226//102 194//102 260//102
f 115//103 264//103 263//103
f 115//104 263//104 127//104
f 194//105 226//105 193//105
f 127//106 263//106 262//106
f 265//50 266//50 241//50
f 69//14 14//14 228//14
f 267//2 128//2 268//2
f 269//50 241//50 266//50
f 270//50 271//50 241//50
f 272//50 159//50 261//50
f 242//50 241//50 271//50
f 273//50 265//50 241//50
f 274//50 241//50 269//50
f 270//50 241//50 274//50
f 275//50 273//50 159//50
f 90//50 275//50 159//50
f 273//50 241//50 159//50
f 159//50 276//50 90//50
f 159//50 277//50 276//50
f 272//50 277//50 159//50
f 55//50 159//50 241//50
f 278//50 252//50 55//50
f 138//50 67//50 279//50
f 279//50 67//50 252//50
f 280//50 281//50 67//50
f 282//50 283//50 69//50
f 56//107 177//107 58//107
f 179//108 284//108 180//108
f 285//109 1//109 174//109
f 3//2 285//2 5//2
f 1//110 285//110 3//110
f 64//111 62//111 67//111
f 176//2 5//2 286//2
f 64//112 67//112 182//112
f 182//113 67//113 68//113
f 185//2 286//2 5//2
f 182//114 68//114 70//114
f 182//115 70//115 75//115
f 75//116 74//116 79//116
f 95//117 286//117 185//117
f 75//118 79//118 198//118
f 95//119 185//119 96//119
f 198//120 236//120 197//120
f 197//121 236//121 254//121
f 197//122 254//122 248//122
f 93//123 287//123 175//123
f 197//124 248//124 196//124
f 93//125 175//125 176//125
f 93//126 176//126 95//126
f 95//127 176//127 286//127
f 96//128 184//128 186//128
f 195//129 256//129 257//129
f 96//130 186//130 97//130
f 194//131 195//131 257//131
f 97//132 187//132 188//132
f 194//133 257//133 260//133
f 97//134 188//134 108//134
f 173//135 1//135 108//135
f 224//136 192//136 193//136
f 192//137 224//137 191//137
f 191//138 225//138 228//138
f 288//2 159//2 168//2
f 101//139 289//139 288//139
f 191//140 228//140 190//140
f 101//141 288//141 100//141
f 190//142 228//142 229//142
f 169//2 159//2 290//2
f 100//143 288//143 168//143
f 190//144 229//144 291//144
f 100//145 168//145 169//145
f 190//146 291//146 189//146
f 100//147 169//147 98//147
f 189//148 291//148 292//148
f 5//2 290//2 159//2
f 290//2 5//2 293//2
f 98//149 169//149 290//149
f 170//2 293//2 5//2
f 189//150 292//150 49//150
f 98//151 290//151 94//151
f 189//152 49//152 47//152
f 94//153 290//153 293//153
f 294//28 199//28 46//28
f 294//14 46//14 295//14
f 94//154 293//154 170//154
f 199//155 294//155 183//155
f 171//2 5//2 287//2
f 199//27 296//27 14//27
f 171//156 93//156 170//156
f 181//157 296//157 199//157
f 287//2 5//2 175//2
f 183//158 294//158 161//158
f 295//14 46//14 297//14
f 94//159 170//159 93//159
f 295//160 161//160 294//160
f 93//161 171//161 287//161
f 298//2 159//2 299//2
f 159//2 301//2 300//2
f 159//2 288//2 289//2
f 159//2 289//2 301//2
f 297//162 161//162 295//162
f 302//2 159//2 303//2
f 304//2 159//2 305//2
f 305//2 159//2 306//2
f 179//163 308//163 307//163
f 298//2 306//2 159//2
f 307//14 14//14 309//14
f 309//14 14//14 284//14
f 305//164 306//164 105//164
f 309//165 179//165 307//165
f 300//2 299//2 159//2
f 284//14 14//14 310//14
f 179//166 309//166 284//166
f 180//167 284//167 310//167
f 296//14 310//14 14//14
f 296//168 180//168 310//168
f 102//169 300//169 301//169
f 180//170 296//170 181//170
f 181//171 199//171 183//171
f 268//2 128//2 311//2
f 164//172 312//172 163//172
f 243//2 128//2 237//2
f 311//2 128//2 313//2
f 312//173 44//173 163//173
f 163//174 44//174 45//174
f 243//2 313//2 128//2
f 163//175 45//175 57//175
f 60//176 160//176 59//176
f 160//177 60//177 65//177
f 8//2 128//2 253//2
f 262//2 128//2 314//2
f 314//2 128//2 315//2
f 315//2 128//2 316//2
f 314//178 127//178 262//178
f 65//179 66//179 167//179
f 316//2 128//2 317//2
f 167//180 66//180 72//180
f 167//181 72//181 71//181
f 317//2 128//2 318//2
f 167//182 71//182 165//182
f 165//183 71//183 77//183
f 165//184 77//184 76//184
f 318//2 128//2 267//2
f 165//185 76//185 166//185
f 166//186 76//186 81//186
f 166//187 81//187 80//187
f 166//188 80//188 84//188
f 84//189 80//189 82//189
f 314//190 126//190 127//190
f 126//191 314//191 315//191
f 126//192 315//192 316//192
f 124//193 126//193 317//193
f 124//194 317//194 318//194
f 85//195 86//195 87//195
f 124//89 318//89 267//89
f 87//196 88//196 63//196
f 126//197 316//197 317//197
f 89//198 63//198 88//198
f 63//199 89//199 61//199
f 124//200 267//200 125//200
f 125//201 267//201 268//201
f 85//202 87//202 63//202
f 125//203 268//203 311//203
f 125//204 311//204 313//204
f 125//205 243//205 114//205
f 125//206 313//206 243//206
f 312//14 46//14 44//14
f 227//2 8//2 120//2
f 227//2 110//2 8//2
f 297//14 46//14 319//14
f 264//2 259//2 128//2
f 263//2 264//2 128//2
f 319//14 46//14 320//14
f 320//14 46//14 39//14
f 37//207 297//207 319//207
f 39//14 46//14 38//14
f 320//208 37//208 319//208
f 37//209 161//209 297//209
f 38//14 46//14 321//14
f 321//14 46//14 41//14
f 41//14 46//14 40//14
f 37//210 320//210 39//210
f 40//14 46//14 322//14
f 37//211 321//211 42//211
f 42//212 321//212 41//212
f 321//213 37//213 38//213
f 323//14 322//14 46//14
f 43//214 40//214 322//214
f 323//14 46//14 324//14
f 43//215 322//215 323//215
f 324//14 46//14 325//14
f 323//216 162//216 43//216
f 325//14 46//14 326//14
f 162//217 323//217 324//217
f 312//14 326//14 46//14
f 325//218 162//218 324//218
f 162//219 325//219 164//219
f 326//220 164//220 325//220
f 164//221 326//221 312//221
f 280//50 67//50 327//50
f 327//50 67//50 138//50
f 67//50 141//50 69//50
f 141//50 67//50 281//50
f 258//50 278//50 55//50
f 144//50 69//50 141//50
f 328//50 69//50 144//50
f 328//50 282//50 69//50
f 134//50 128//50 329//50
f 134//50 135//50 128//50
f 231//222 209//222 201//222
f 231//223 201//223 202//223
f 329//50 128//50 330//50
f 331//50 69//50 283//50
f 203//224 204//224 245//224
f 246//225 245//225 208//225
f 204//225 208//225 245//225
f 208//226 207//226 246//226
f 331//50 332//50 69//50
f 90//227 91//227 275//227
f 215//227 275//227 91//227
f 273//228 275//228 215//228
f 69//50 334//50 333//50
f 265//229 273//229 214//229
f 335//50 336//50 69//50
f 332//50 335//50 69//50
f 334//50 69//50 336//50
f 217//230 266//230 216//230
f 217//231 269//231 266//231
f 210//232 274//232 269//232
f 210//233 270//233 274//233
f 271//234 270//234 211//234
f 337//50 338//50 128//50
f 339//50 330//50 128//50
f 214//229 216//229 265//229
f 69//50 333//50 340//50
f 69//50 341//50 128//50
f 341//50 69//50 342//50
f 340//50 342//50 69//50
f 343//50 128//50 341//50
f 271//235 211//235 242//235
f 344//50 128//50 345//50
f 128//50 346//50 337//50
f 272//236 213//236 220//236
f 346//50 128//50 344//50
f 27//237 272//237 220//237
f 343//50 345//50 128//50
f 338//50 339//50 128//50
f 347//10 348//10 14//10
f 273//228 215//228 214//228
f 146//10 14//10 349//10
f 349//10 14//10 348//10
f 350//10 347//10 14//10
f 265//230 216//230 266//230
f 269//231 217//231 218//231
f 145//10 142//10 14//10
f 140//10 139//10 199//10
f 351//10 140//10 199//10
f 218//232 210//232 269//232
f 270//233 210//233 219//233
f 270//234 219//234 211//234
f 146//10 145//10 14//10
f 206//235 242//235 211//235
f 240//238 242//238 205//238
f 206//238 205//238 242//238
f 240//239 205//239 239//239
f 209//239 239//239 205//239
f 143//10 351//10 199//10
f 231//222 239//222 209//222
f 230//223 231//223 202//223
f 244//240 230//240 202//240
f 36//10 8//10 155//10
f 136//10 8//10 35//10
f 221//10 8//10 222//10
f 258//226 246//226 207//226
f 352//10 350//10 14//10
f 258//241 207//241 278//241
f 353//10 352//10 14//10
f 15//10 354//10 14//10
f 354//10 353//10 14//10
f 355//14 56//14 14//14
f 355//14 14//14 356//14
f 356//14 14//14 357//14
f 177//242 56//242 355//242
f 244//240 202//240 203//240
f 357//14 14//14 358//14
f 356//70 177//70 355//70
f 203//224 245//224 244//224
f 177//243 356//243 178//243
f 178//244 356//244 357//244
f 358//14 14//14 359//14
f 359//14 14//14 308//14
f 358//245 178//245 357//245
f 157//246 158//246 212//246
f 179//247 358//247 359//247
f 157//248 212//248 261//248
f 213//248 261//248 212//248
f 213//236 272//236 261//236
f 359//249 308//249 179//249
f 307//14 308//14 14//14
f 27//237 277//237 272//237
f 27//250 26//250 277//250
f 276//250 277//250 26//250
f 178//251 358//251 179//251
f 90//35 276//35 26//35
f 292//14 291//14 14//14
f 229//14 14//14 291//14
f 14//14 49//14 292//14
f 49//14 14//14 48//14
f 235//2 159//2 360//2
f 360//2 159//2 302//2
f 360//252 103//252 235//252
f 235//253 103//253 119//253
f 303//2 159//2 361//2
f 361//2 159//2 362//2
f 304//2 362//2 159//2
f 362//31 304//31 104//31
f 104//254 304//254 305//254
f 103//255 360//255 302//255
f 103//256 302//256 303//256
f 103//257 303//257 361//257
f 103//258 362//258 104//258
f 104//259 305//259 105//259
f 103//260 361//260 362//260
f 105//261 306//261 298//261
f 102//262 298//262 299//262
f 300//263 102//263 299//263
f 105//264 298//264 102//264
f 101//265 102//265 301//265
f 101//266 301//266 289//266
f 174//2 5//2 285//2
f 336//267 352//267 353//267
f 336//268 353//268 354//268
f 19//269 25//269 339//269
f 339//270 25//270 221//270
f 345//271 18//271 344//271
f 346//272 344//272 22//272
f 17//272 22//272 344//272
f 22//273 20//273 346//273
f 342//274 16//274 24//274
f 24//275 23//275 342//275
f 223//241 278//241 207//241
f 328//49 144//49 146//49
f 282//276 328//276 146//276
f 252//277 278//277 200//277
f 223//277 200//277 278//277
f 137//278 279//278 200//278
f 252//278 200//278 279//278
f 137//45 138//45 279//45
f 140//46 327//46 138//46
f 280//279 327//279 351//279
f 140//279 351//279 327//279
f 143//280 281//280 351//280
f 280//280 351//280 281//280
f 143//47 141//47 281//47
f 282//276 146//276 349//276
f 283//281 282//281 348//281
f 349//281 348//281 282//281
f 347//282 331//282 348//282
f 283//282 348//282 331//282
f 329//283 221//283 222//283
f 329//283 330//283 221//283
f 134//284 329//284 222//284
f 134//284 222//284 136//284
f 35//42 135//42 136//42
f 36//285 135//285 35//285
f 350//286 332//286 331//286
f 335//287 332//287 352//287
f 334//268 336//268 354//268
f 354//288 333//288 334//288
f 354//288 15//288 333//288
f 340//289 333//289 16//289
f 347//286 350//286 331//286
f 350//287 352//287 332//287
f 335//267 352//267 336//267
f 15//289 16//289 333//289
f 338//290 337//290 19//290
f 23//291 21//291 341//291
f 343//291 341//291 21//291
f 21//292 18//292 343//292
f 345//292 343//292 18//292
f 17//271 344//271 18//271
f 346//273 20//273 337//273
f 337//290 20//290 19//290
f 19//269 339//269 338//269
f 330//270 339//270 221//270
f 16//274 342//274 340//274
f 23//275 341//275 342//275
f 33//246 212//246 158//246
f 156//285 135//285 36//285
f 36//293 155//293 156//293
f 148//293 156//293 155//293
f 155//52 147//52 148//52
f 150//53 147//53 32//53
f 28//294 150//294 32//294
f 28//294 154//294 150//294
f 154//295 28//295 152//295
f 29//295 152//295 28//295
f 158//55 153//55 33//55
