# Blender 5.0.1
# www.blender.org
mtllib i02_head_eyeAssembly_origin_visual_1.mtl
o i02.head.eyeBase.right_visual.001
v -0.246608 -0.205078 -0.074883
v -0.246608 -0.205078 -0.121922
v -0.246608 -0.242830 -0.074883
v -0.246608 -0.242830 -0.121922
v 0.092828 0.426299 -0.079593
v 0.092828 0.426299 -0.121922
v 0.058547 0.426299 -0.121922
v 0.014006 0.426299 -0.121922
v 0.014006 0.426299 -0.079593
v 0.170685 -0.345390 -0.121922
v 0.170685 -0.400334 -0.121922
v 0.166631 -0.345390 -0.121922
v 0.111494 -0.400334 -0.121922
v 0.061571 -0.148625 -0.074867
v 0.166631 -0.253081 -0.121922
v 0.111494 -0.205106 -0.121922
v 0.166631 0.002486 -0.121922
v 0.061571 -0.205102 -0.074880
v 0.042677 -0.105818 -0.121922
v -0.051972 0.157898 -0.041876
v -0.041926 -0.205106 -0.121922
v -0.051972 0.157898 -0.121922
v -0.051972 0.275122 -0.041876
v -0.003606 -0.131093 -0.121922
v -0.008900 -0.135573 -0.121922
v -0.005738 -0.134158 -0.121922
v -0.016458 -0.131093 -0.121922
v -0.013303 -0.134762 -0.121922
v -0.002730 -0.127273 -0.121922
v -0.005738 -0.120389 -0.121922
v -0.004172 -0.105818 -0.121922
v -0.008900 -0.118974 -0.121922
v -0.014317 -0.120389 -0.121922
v -0.016458 -0.123463 -0.121922
v -0.107126 -0.120389 -0.121922
v -0.017325 -0.127273 -0.121922
v -0.107126 -0.134158 -0.121922
v -0.104994 -0.131093 -0.121922
v -0.165134 -0.105667 -0.121922
v -0.109161 -0.119182 -0.121922
v -0.104994 -0.123463 -0.121922
v -0.104118 -0.127273 -0.121922
v -0.180483 -0.222723 -0.121922
v -0.180532 -0.220856 -0.121922
v -0.165037 -0.205106 -0.121922
v -0.210930 -0.242820 -0.121922
v -0.192532 -0.228400 -0.121922
v -0.189686 -0.230249 -0.121922
v -0.183419 -0.228872 -0.121922
v -0.181789 -0.226967 -0.121922
v -0.165037 -0.242820 -0.121922
v -0.186338 -0.230305 -0.121922
v -0.194300 -0.225703 -0.121922
v 0.042677 -0.105818 -0.074867
v -0.182364 -0.216433 -0.121922
v -0.184237 -0.214707 -0.121922
v -0.062732 -0.148257 -0.008377
v -0.223782 -0.227250 -0.121922
v -0.210930 -0.242830 -0.121922
v -0.226661 -0.231230 -0.121922
v -0.228915 -0.232163 -0.121922
v -0.062732 -0.148248 -0.074867
v -0.062732 -0.105818 -0.074867
v -0.062732 -0.105828 -0.008377
v -0.237445 -0.221874 -0.121922
v -0.236237 -0.218894 -0.121922
v -0.234599 -0.216999 -0.121922
v -0.232175 -0.215725 -0.121922
v -0.194608 -0.219243 -0.121922
v -0.194162 -0.218460 -0.074883
v -0.194949 -0.220856 -0.121922
v -0.110288 -0.118974 -0.008377
v -0.107126 -0.120389 -0.008377
v -0.104994 -0.123463 -0.008377
v -0.104118 -0.127273 -0.008377
v -0.104994 -0.131093 -0.008377
v -0.107126 -0.134158 -0.008377
v -0.108051 0.144429 -0.008378
v -0.111415 0.145476 -0.008378
v -0.111415 0.145476 -0.121922
v -0.131662 0.120466 -0.008397
v -0.113734 0.128463 -0.008388
v -0.116516 0.130509 -0.008388
v -0.110840 0.128359 -0.121922
v -0.109096 0.128463 -0.008388
v -0.091120 0.120466 -0.008397
v -0.234599 -0.230871 -0.121922
v -0.231485 -0.232343 -0.121922
v -0.131662 0.115769 -0.038896
v -0.131662 0.115750 -0.008388
v -0.236967 -0.227552 -0.121922
v -0.237631 -0.224977 -0.121922
v -0.131662 0.115750 -0.038896
v -0.224342 -0.219205 -0.121922
v -0.227309 -0.216282 -0.121922
v -0.211741 -0.205078 -0.121922
v -0.223466 -0.222006 -0.121922
v -0.160042 0.115750 -0.038896
v -0.185989 -0.101056 -0.121922
v -0.186670 -0.213717 -0.121922
v -0.189686 -0.213943 -0.121922
v -0.156612 0.124766 -0.008388
v -0.191932 -0.215188 -0.121922
v -0.115705 -0.134158 -0.121922
v -0.113670 -0.135365 -0.121922
v -0.110288 -0.135582 -0.121922
v 0.110423 0.282940 -0.104900
v -0.117845 -0.131093 -0.121922
v -0.115705 -0.120389 -0.121922
v -0.118713 -0.127273 -0.121922
v -0.113670 -0.119182 -0.121922
v -0.211725 -0.101056 -0.121922
v -0.211725 -0.103413 -0.121922
v -0.211741 -0.103413 -0.121922
v 0.045864 0.280677 -0.095781
v 0.045864 0.282667 -0.099581
v 0.045864 0.276810 -0.093348
v 0.042677 0.115760 -0.121922
v -0.210930 -0.242830 -0.074883
v -0.234599 -0.216999 -0.074883
v -0.229872 -0.215471 -0.074883
v -0.160042 0.115769 -0.038896
v -0.160042 0.115750 -0.008388
v -0.160042 0.121248 -0.008388
v -0.234599 -0.230871 -0.074883
v -0.226661 -0.231230 -0.074883
v -0.152882 0.131566 -0.008388
v -0.151390 0.141742 -0.008378
v -0.149026 0.157898 -0.008378
v -0.116654 0.142845 -0.008378
v -0.113734 0.145052 -0.008378
v -0.118551 0.139450 -0.008378
v -0.118737 0.135413 -0.008378
v -0.223401 -0.226194 -0.074883
v -0.186670 -0.213717 -0.074883
v -0.191932 -0.215188 -0.074883
v -0.159940 -0.148512 -0.074870
v -0.159914 -0.205090 -0.074851
v -0.156336 0.156067 -0.008378
v -0.157836 0.157898 -0.008378
v -0.152785 0.148786 -0.008378
v -0.165134 -0.105667 -0.074873
v -0.160042 -0.105818 -0.074873
v -0.160042 -0.148257 -0.008377
v -0.160042 -0.105828 -0.008377
v -0.152882 0.131566 -0.074798
v -0.156612 0.124766 -0.074798
v -0.160042 0.121248 -0.074798
v -0.160042 0.115769 -0.074864
v -0.165134 0.115769 -0.074864
v 0.045864 0.277866 -0.110370
v 0.134846 0.103844 -0.121922
v 0.134781 0.157898 -0.121922
v 0.110423 0.157898 -0.121922
v 0.110423 0.287722 -0.121922
v -0.008868 0.145259 -0.121922
v -0.051972 0.386368 -0.121922
v -0.165134 0.038357 -0.121922
v -0.185989 0.086792 -0.121922
v -0.012347 0.128463 -0.121922
v -0.008525 0.128204 -0.121922
v 0.010236 0.120475 -0.121922
v -0.005616 0.129708 -0.121922
v -0.003427 0.132858 -0.121922
v -0.030299 0.120475 -0.121922
v -0.015266 0.130679 -0.121922
v 0.010241 0.115772 -0.121922
v -0.002527 0.136762 -0.121922
v -0.017163 0.134065 -0.121922
v -0.091115 0.115772 -0.121922
v -0.030299 0.115760 -0.121922
v -0.091120 0.120475 -0.121922
v -0.107004 0.129708 -0.121922
v -0.104815 0.132858 -0.121922
v -0.002892 0.139450 -0.121922
v -0.013392 0.144429 -0.121922
v -0.016628 0.140666 -0.121922
v -0.017528 0.136762 -0.121922
v -0.008569 0.128222 -0.074864
v -0.004789 0.143250 -0.121922
v -0.104815 0.140666 -0.121922
v -0.108051 0.144429 -0.121922
v -0.103915 0.136762 -0.121922
v -0.131662 0.120475 -0.121922
v -0.115827 0.129708 -0.121922
v -0.118551 0.134065 -0.121922
v -0.131662 0.115769 -0.121922
v -0.165134 0.115769 -0.121922
v -0.051972 0.275122 -0.079593
v -0.185989 0.120381 -0.074854
v 0.045864 0.186359 -0.095781
v 0.045864 0.188358 -0.099591
v 0.110423 0.275122 -0.079593
v 0.045864 0.172562 -0.096026
v 0.045864 0.170892 -0.098733
v 0.045864 0.175645 -0.093848
v 0.045864 0.182502 -0.093348
v 0.110423 0.172562 -0.096026
v 0.110423 0.170892 -0.098733
v 0.045864 0.188820 -0.103910
v 0.045864 0.177400 -0.111332
v 0.045864 0.182926 -0.110860
v 0.045864 0.183558 -0.110370
v 0.045864 0.170251 -0.102807
v 0.045864 0.187934 -0.106569
v 0.045864 0.185680 -0.109408
v 0.045864 0.172024 -0.107729
v 0.045864 0.174476 -0.109898
v -0.211741 -0.205078 -0.074883
v -0.211741 -0.130320 -0.074873
v -0.211725 -0.130320 -0.074873
v -0.185989 -0.127962 -0.074873
v 0.110423 0.170364 -0.104042
v -0.185989 -0.006012 -0.074864
v -0.211725 -0.127962 -0.074873
v -0.165134 -0.006398 -0.074864
v -0.165134 -0.075894 -0.089548
v 0.166631 -0.084099 -0.074883
v 0.166631 0.002486 -0.074883
v 0.045864 0.283129 -0.103919
v 0.045864 0.282242 -0.106560
v 0.045864 0.279988 -0.109408
v 0.045864 0.277234 -0.110860
v 0.045864 0.271416 -0.111285
v 0.045864 0.271708 -0.111332
v 0.045864 0.265210 -0.098733
v 0.045864 0.264559 -0.102807
v 0.045864 0.269944 -0.093848
v 0.045864 0.266870 -0.096026
v 0.045864 0.266323 -0.107729
v 0.045864 0.268304 -0.109672
v -0.165134 0.087825 -0.092131
v -0.165134 0.091126 -0.089972
v 0.110423 0.265946 -0.107267
v -0.185989 0.091126 -0.089972
v -0.165134 0.085468 -0.096762
v -0.165134 0.085675 -0.100704
v -0.165134 0.086882 -0.103071
v -0.185989 0.086882 -0.103071
v -0.185989 0.085468 -0.096762
v 0.110423 0.359500 -0.098733
v 0.110423 0.361160 -0.096026
v 0.110423 0.365969 -0.093338
v 0.110423 0.366149 -0.093121
v -0.165134 -0.084231 -0.099393
v -0.165134 -0.084024 -0.095441
v 0.110423 0.360245 -0.107267
v 0.110423 0.358981 -0.104042
v -0.165134 0.095059 -0.106371
v -0.165134 0.089947 -0.105560
v 0.110423 0.362376 -0.109644
v 0.045864 0.358858 -0.102807
v -0.185989 0.091126 -0.106164
v 0.037877 0.399015 -0.079593
v 0.014006 0.386368 -0.079593
v 0.110423 0.386368 -0.079593
v 0.092828 0.386368 -0.079593
v 0.066711 0.399100 -0.079593
v 0.064311 0.399081 -0.079593
v 0.045864 0.359500 -0.098733
v 0.045864 0.360632 -0.107729
v 0.045864 0.362329 -0.109389
v 0.110423 0.365356 -0.111124
v 0.045864 0.366017 -0.111332
v -0.165134 0.096370 -0.089972
v 0.045864 0.364253 -0.093848
v 0.045864 0.361169 -0.096026
v -0.165134 0.099680 -0.092131
v -0.185989 0.099680 -0.092131
v -0.165134 -0.071029 -0.104991
v -0.165134 -0.080992 -0.091228
v -0.165134 -0.070962 -0.091188
v 0.110423 0.375542 -0.096384
v 0.110423 0.377560 -0.101609
v -0.185989 -0.080940 -0.091188
v -0.185989 -0.070962 -0.091188
v -0.185989 -0.068482 -0.094253
v 0.110423 0.366677 -0.092971
v 0.110423 0.370562 -0.093235
v -0.165134 -0.068482 -0.094253
v -0.185989 -0.067463 -0.098072
v -0.165134 -0.067463 -0.098072
v -0.165134 -0.068482 -0.101892
v -0.013303 -0.134762 -0.074867
v -0.010028 -0.135780 -0.074867
v -0.006760 -0.134762 -0.074867
v -0.003606 -0.131093 -0.074867
v -0.002730 -0.127273 -0.074867
v -0.005738 -0.120389 -0.074867
v -0.003087 -0.124642 -0.074867
v 0.110423 0.386368 -0.121922
v -0.165134 -0.078573 -0.106164
v -0.165134 -0.082816 -0.103071
v 0.110423 0.377230 -0.104900
v -0.185989 -0.081883 -0.104014
v 0.110423 0.369412 -0.111539
v 0.110423 0.374655 -0.109097
v 0.177463 -0.400329 0.098417
v 0.156496 -0.400329 0.098417
v -0.165134 -0.075951 -0.106579
v -0.185989 -0.078573 -0.106164
v -0.185989 -0.075951 -0.106579
v 0.110423 0.369638 -0.111370
v -0.116654 0.142845 -0.121922
v -0.141360 0.157898 -0.121922
v -0.118551 0.139450 -0.121922
v -0.185989 0.157898 -0.121922
v -0.015939 -0.122275 -0.074867
v -0.013303 -0.119785 -0.074867
v -0.016458 -0.131093 -0.074867
v -0.017325 -0.127273 -0.074867
v 0.092828 0.386368 -0.121922
v 0.070043 0.400750 -0.121922
v -0.165134 0.101821 -0.095441
v 0.156496 -0.353316 0.098417
v -0.185989 -0.084024 -0.095441
v 0.177463 -0.353316 0.098417
v -0.185989 -0.084024 -0.100704
v 0.071519 0.402552 -0.121922
v -0.165134 0.101217 -0.101892
v 0.061489 0.400364 -0.121922
v 0.065381 0.398958 -0.121922
v 0.043237 0.401137 -0.121922
v 0.059592 0.402552 -0.121922
v 0.072752 0.407390 -0.121922
v -0.185989 -0.075951 -0.089557
v -0.010028 -0.118757 -0.074867
v 0.067505 0.415613 -0.121922
v 0.064578 0.415802 -0.121922
v 0.045597 0.407852 -0.121922
v 0.043748 0.413142 -0.121922
v 0.069751 0.414378 -0.121922
v 0.061359 0.414378 -0.121922
v 0.072435 0.410304 -0.121922
v 0.045362 0.405173 -0.121922
v 0.058327 0.408682 -0.121922
v 0.059292 0.411813 -0.121922
v -0.051972 0.386368 -0.079593
v 0.014006 0.386368 -0.121922
v 0.036037 0.415491 -0.121922
v 0.031447 0.410304 -0.121922
v -0.165134 0.098737 -0.104957
v 0.035048 0.399854 -0.121922
v 0.037075 0.399081 -0.121922
v 0.032550 0.402335 -0.121922
v -0.185989 0.095059 -0.106371
v -0.185989 0.099680 -0.104014
v 0.031091 0.408682 -0.121922
v 0.031293 0.405173 -0.121922
v 0.040610 0.415491 -0.121922
v 0.042524 0.414378 -0.121922
v 0.040424 0.399411 -0.121922
v -0.185989 0.157898 -0.074854
v -0.185989 0.055949 -0.074859
v -0.185989 0.102028 -0.096762
v -0.185989 0.085675 -0.100704
v -0.185989 0.086882 -0.093065
v 0.177463 -0.353293 -0.017125
v -0.185989 0.016849 -0.100704
v -0.185989 0.096370 -0.089972
v -0.185989 0.101821 -0.100704
v 0.177463 -0.400353 -0.017121
v 0.061797 0.400147 -0.079593
v 0.069314 0.400147 -0.079593
v 0.071519 0.402552 -0.079593
v -0.151439 0.138280 -0.074798
v -0.151731 0.145193 -0.074798
v 0.156496 -0.400334 0.004976
v 0.072719 0.406098 -0.079593
v 0.071398 0.412482 -0.079593
v 0.072614 0.409493 -0.079593
v 0.059137 0.403561 -0.079593
v -0.185989 -0.068482 -0.101892
v -0.185989 0.001901 -0.093065
v -0.185989 0.000486 -0.096762
v -0.185989 0.008767 -0.106579
v -0.185989 0.006145 -0.106164
v -0.185989 -0.070962 -0.104957
v -0.185989 0.000694 -0.100704
v 0.170685 -0.400334 -0.037170
v 0.042677 0.115750 -0.074864
v 0.134749 0.103844 -0.074883
v 0.110423 0.157898 -0.041876
v 0.110423 0.275122 -0.041876
v -0.154755 0.153700 -0.074798
v -0.165134 0.006145 -0.089972
v -0.165134 0.002844 -0.092131
v 0.044413 0.412171 -0.079593
v 0.045564 0.408682 -0.079593
v 0.060143 0.413142 -0.079593
v 0.042524 0.414378 -0.079593
v 0.067505 0.415613 -0.079593
v 0.069751 0.414378 -0.079593
v 0.063265 0.415491 -0.079593
v 0.156496 -0.353293 0.004976
v 0.170685 -0.353293 -0.037170
v 0.170685 -0.353293 -0.026919
v 0.170685 -0.345390 -0.034445
v 0.166631 -0.345390 -0.034445
v 0.150414 -0.353293 -0.026919
v 0.134781 0.157898 -0.074873
v 0.166631 -0.302819 -0.074883
v 0.150414 -0.302819 -0.074883
v 0.110423 0.157898 -0.074862
v 0.136695 -0.400334 -0.074883
v 0.136695 -0.353293 -0.074883
v -0.165134 0.011398 -0.089972
v -0.165134 0.014699 -0.092131
v 0.150414 -0.353293 -0.074883
v -0.185989 0.010672 -0.090066
v 0.111494 -0.400334 -0.074883
v -0.165134 0.000694 -0.100704
v -0.165134 0.000486 -0.096762
v -0.165134 0.017056 -0.096762
v -0.165134 0.001901 -0.103071
v -0.165134 0.006862 -0.106070
v -0.185989 0.002844 -0.104014
v 0.111494 -0.291710 -0.074883
v -0.165134 0.012577 -0.105560
v -0.165134 0.015642 -0.103071
v -0.157836 0.157898 -0.074798
v -0.155947 0.155567 -0.074798
v -0.062732 0.157898 -0.074854
v 0.061359 0.414378 -0.079593
v 0.058302 0.407748 -0.079593
v 0.045629 0.407022 -0.079593
v 0.044924 0.404042 -0.079593
v 0.045864 0.371109 -0.093348
v 0.045864 0.367035 -0.092971
v 0.045864 0.377277 -0.100364
v -0.110288 -0.135582 -0.008377
v 0.045864 0.371534 -0.110860
v -0.113670 -0.135365 -0.008377
v 0.111494 -0.205106 -0.074883
v -0.115705 -0.134158 -0.008377
v -0.117845 -0.131093 -0.008377
v 0.042670 0.400647 -0.079593
v 0.040610 0.399383 -0.079593
v 0.033839 0.400750 -0.079593
v 0.032364 0.402552 -0.079593
v 0.110423 0.281243 -0.096384
v 0.110423 0.276806 -0.093329
v 0.110423 0.266870 -0.096026
v 0.110423 0.269979 -0.093817
v 0.110423 0.265201 -0.098733
v -0.113670 -0.119182 -0.008377
v -0.118713 -0.127273 -0.008377
v -0.115705 -0.120389 -0.008377
v -0.185989 0.015642 -0.093065
v -0.185989 0.006145 -0.089972
v -0.117327 -0.122275 -0.008377
v -0.185989 0.016849 -0.095441
v 0.037075 0.415793 -0.079593
v 0.039394 0.415802 -0.079593
v 0.045864 0.374287 -0.109408
v 0.045864 0.372165 -0.110370
v 0.031156 0.406098 -0.079593
v -0.185989 0.011398 -0.106164
v -0.185989 0.014699 -0.104014
v 0.031447 0.410304 -0.079593
v 0.034123 0.414378 -0.079593
v -0.106899 0.129830 -0.008388
v -0.091120 0.115769 -0.008397
v -0.091112 0.115769 -0.008397
v 0.110423 0.283270 -0.101609
v 0.110423 0.281214 -0.096488
v 0.110423 0.273311 -0.093378
v -0.165037 -0.205106 -0.074883
v -0.104815 0.132858 -0.008378
v -0.103915 0.136762 -0.008378
v -0.091112 0.115750 -0.008388
v -0.210930 -0.242820 -0.074883
v -0.165037 -0.242820 -0.074883
v -0.062732 0.115750 -0.008388
v -0.062732 0.157898 -0.008378
v -0.104815 0.140666 -0.008378
v -0.002892 0.139450 -0.074864
v -0.003962 0.131641 -0.074864
v -0.005616 0.129708 -0.074864
v 0.010241 0.115763 -0.074864
v 0.010236 0.120466 -0.074864
v -0.012338 0.128463 -0.074864
v -0.002706 0.135413 -0.074864
v -0.014439 0.129708 -0.074864
v -0.030299 0.120466 -0.074864
v -0.016628 0.132858 -0.074864
v -0.062732 0.115750 -0.074864
v -0.030299 0.115750 -0.074864
v -0.186338 -0.230305 -0.074883
v -0.183419 -0.228872 -0.074883
v -0.189686 -0.230249 -0.074883
v -0.180508 -0.222412 -0.074883
v -0.181335 -0.225967 -0.074883
v -0.182364 -0.216433 -0.074883
v -0.194243 -0.225901 -0.074883
v -0.192532 -0.228400 -0.074883
v -0.195022 -0.221676 -0.074883
v -0.224163 -0.219564 -0.074883
v -0.223134 -0.224355 -0.074883
v -0.189686 -0.213943 -0.074883
v -0.229872 -0.232390 -0.074883
v -0.231485 -0.232343 -0.074883
v -0.236237 -0.228976 -0.074883
v -0.237559 -0.225269 -0.074883
v 0.110423 0.264673 -0.104042
v 0.110423 0.188952 -0.101609
v 0.110423 0.187736 -0.106965
v 0.110423 0.271057 -0.111124
v 0.110423 0.268077 -0.109644
v 0.110423 0.186048 -0.109097
v 0.110423 0.186906 -0.096488
v 0.110423 0.280356 -0.109097
v 0.110423 0.275339 -0.111370
v 0.110423 0.275113 -0.111539
v 0.045864 0.374966 -0.095781
v 0.045864 0.377362 -0.104466
v 0.045864 0.376541 -0.106569
v 0.110423 0.171637 -0.107267
v 0.110423 0.182440 -0.093311
v 0.110423 0.175577 -0.093848
v 0.110423 0.178986 -0.092994
v 0.110423 0.186934 -0.096384
v -0.232175 -0.215725 -0.074883
v -0.237275 -0.221073 -0.074883
v -0.226661 -0.216640 -0.074883
v -0.004654 0.143145 -0.074864
v -0.007360 0.144844 -0.074864
v -0.010028 0.145476 -0.074864
v -0.051972 0.157898 -0.074854
v -0.017528 0.136762 -0.074864
v -0.012347 0.145052 -0.074864
v -0.016101 0.141883 -0.074864
v 0.110423 0.181030 -0.111370
v 0.110423 0.180804 -0.111539
v 0.110423 0.176749 -0.111124
v 0.110423 0.173769 -0.109644
v -0.121203 -0.148719 -0.008377
v -0.003841 -0.148719 0.072504
v -0.056132 -0.148719 0.104266
v -0.009103 -0.148719 0.086150
v -0.009711 -0.148719 0.085056
v -0.010173 -0.148719 0.083868
v -0.010465 -0.148719 0.082614
v 0.000773 -0.148719 0.104266
v -0.004400 -0.148719 0.089404
v -0.005495 -0.148719 0.089111
v -0.006533 -0.148719 0.088621
v -0.007490 -0.148719 0.087951
v -0.008357 -0.148719 0.087121
v 0.000927 -0.148719 0.087951
v -0.000038 -0.148719 0.088621
v 0.008776 -0.148719 0.100730
v -0.009427 -0.148719 0.076371
v -0.008746 -0.148719 0.075333
v -0.007935 -0.148719 0.074428
v -0.007019 -0.148719 0.073673
v -0.006022 -0.148719 0.073098
v -0.004952 -0.148719 0.072702
v -0.001619 -0.148719 0.072702
v -0.000549 -0.148719 0.073098
v 0.012936 -0.148719 0.057113
v -0.002722 -0.148719 0.072504
v 0.012936 -0.148719 0.090120
v 0.003903 -0.148719 0.082614
v 0.003603 -0.148719 0.083868
v 0.003149 -0.148719 0.085056
v 0.002541 -0.148719 0.086150
v 0.011046 -0.148719 0.097552
v 0.012676 -0.148719 0.092874
v 0.001795 -0.148719 0.087121
v 0.000457 -0.148719 0.073673
v 0.001373 -0.148719 0.074428
v 0.002857 -0.148719 0.076371
v 0.003392 -0.148719 0.077512
v 0.002184 -0.148719 0.075333
v 0.003773 -0.148719 0.078738
v 0.003984 -0.148719 0.080020
v 0.004033 -0.148719 0.081322
v 0.004641 -0.148719 0.103370
v -0.001076 -0.148719 0.089111
v -0.010555 -0.148719 0.080020
v -0.009963 -0.148719 0.077512
v -0.010336 -0.148719 0.078738
v -0.010595 -0.148719 0.081322
v -0.002162 -0.148719 0.089404
v -0.003281 -0.148719 0.089507
v -0.007019 -0.176748 0.073673
v -0.007935 -0.176748 0.074428
v -0.006022 -0.176748 0.073098
v -0.019539 -0.205106 0.104266
v -0.019539 -0.205106 0.062112
v -0.019539 -0.176748 0.062112
v -0.056132 -0.205106 0.104266
v -0.019539 -0.176748 0.104266
v 0.012936 -0.205106 0.062112
v 0.012936 -0.176748 0.062112
v 0.012936 -0.176748 0.090120
v 0.001795 -0.176748 0.087121
v 0.000927 -0.176748 0.087951
v -0.000038 -0.176748 0.088621
v 0.002184 -0.176748 0.075333
v 0.001373 -0.176748 0.074428
v 0.002857 -0.176748 0.076371
v 0.003773 -0.176748 0.078738
v 0.003392 -0.176748 0.077512
v -0.010595 -0.176748 0.081322
v -0.010465 -0.176748 0.082614
v -0.010555 -0.176748 0.080020
v -0.009963 -0.176748 0.077512
v -0.010336 -0.176748 0.078738
v -0.009427 -0.176748 0.076371
v -0.003841 -0.176748 0.072504
v -0.004952 -0.176748 0.072702
v -0.002722 -0.176748 0.072504
v -0.001619 -0.176748 0.072702
v 0.003984 -0.176748 0.080020
v 0.004033 -0.176748 0.081322
v 0.011866 -0.176748 0.095194
v 0.012805 -0.176748 0.091505
v 0.011046 -0.176748 0.097547
v 0.010216 -0.176748 0.098827
v 0.006995 -0.176748 0.101753
v 0.005552 -0.176748 0.102948
v 0.009074 -0.176748 0.100425
v 0.002718 -0.176748 0.103816
v 0.000773 -0.176748 0.104266
v -0.004400 -0.176748 0.089404
v -0.007490 -0.176748 0.087951
v -0.006533 -0.176748 0.088621
v -0.009103 -0.176748 0.086150
v -0.008357 -0.176748 0.087121
v -0.010173 -0.176748 0.083868
v -0.009711 -0.176748 0.085056
v -0.003281 -0.176748 0.089507
v -0.002162 -0.176748 0.089404
v -0.008746 -0.176748 0.075333
v 0.002541 -0.176748 0.086150
v 0.003149 -0.176748 0.085056
v -0.001076 -0.176748 0.089111
v 0.000457 -0.176748 0.073673
v -0.000549 -0.176748 0.073098
v 0.003603 -0.176748 0.083868
v 0.003903 -0.176748 0.082614
v -0.005495 -0.176748 0.089111
v 0.012936 -0.205106 0.057113
v 0.156496 -0.376823 0.106904
v 0.156496 -0.373574 0.106258
v 0.156496 -0.370821 0.104418
v 0.156496 -0.368981 0.101665
v 0.156496 -0.368335 0.098417
v 0.156496 -0.368981 0.095169
v 0.156496 -0.370821 0.092415
v 0.156496 -0.373574 0.090575
v 0.156496 -0.376823 0.089929
v 0.156496 -0.380071 0.090575
v 0.156496 -0.382824 0.092415
v 0.156496 -0.384664 0.095169
v 0.156496 -0.385310 0.098417
v 0.156496 -0.384664 0.101665
v 0.156496 -0.382824 0.104418
v 0.156496 -0.380071 0.106258
v 0.156496 -0.376823 0.121922
v 0.156496 -0.367827 0.120133
v 0.156496 -0.360201 0.115038
v 0.156496 -0.355106 0.107412
v 0.156496 -0.398539 0.107412
v 0.156496 -0.393444 0.115038
v 0.156496 -0.385818 0.120133
v 0.177463 -0.376823 0.106904
v 0.177463 -0.373574 0.106258
v 0.177463 -0.370821 0.104418
v 0.177463 -0.368981 0.101665
v 0.177463 -0.368335 0.098417
v 0.177463 -0.368981 0.095169
v 0.177463 -0.370821 0.092415
v 0.177463 -0.373574 0.090575
v 0.177463 -0.376823 0.089929
v 0.177463 -0.380071 0.090575
v 0.177463 -0.382824 0.092415
v 0.177463 -0.384664 0.095169
v 0.177463 -0.385310 0.098417
v 0.177463 -0.384664 0.101665
v 0.177463 -0.382824 0.104418
v 0.177463 -0.380071 0.106258
v 0.177463 -0.376823 0.121922
v 0.177463 -0.367827 0.120133
v 0.177463 -0.360201 0.115038
v 0.177463 -0.355106 0.107412
v 0.177463 -0.398539 0.107412
v 0.177463 -0.393444 0.115038
v 0.177463 -0.385818 0.120133
v -0.051971 0.215547 -0.058587
v -0.051971 0.212699 -0.060275
v -0.051971 0.219536 -0.058294
v -0.051971 0.222347 -0.059369
v -0.051971 0.225204 -0.070648
v -0.051971 0.223035 -0.073034
v -0.051971 0.226138 -0.064707
v -0.051971 0.224714 -0.061510
v -0.051971 0.226364 -0.066810
v -0.051971 0.220894 -0.074138
v -0.051971 0.211529 -0.071299
v -0.051971 0.213387 -0.073138
v -0.051971 0.216716 -0.074524
v -0.051971 0.210775 -0.062708
v -0.051971 0.210021 -0.064999
v -0.051971 0.210313 -0.068989
v -0.051971 0.325426 -0.107154
v -0.051971 0.324153 -0.104419
v -0.051971 0.327086 -0.095932
v -0.051971 0.324700 -0.098893
v -0.051971 0.328632 -0.094960
v -0.051971 0.328453 -0.109766
v -0.051971 0.332556 -0.110653
v -0.051971 0.335262 -0.109936
v -0.051971 0.338261 -0.107955
v -0.051971 0.323917 -0.102014
v -0.051971 0.336375 -0.095375
v -0.051971 0.338638 -0.097346
v -0.051971 0.339874 -0.099647
v -0.051971 0.340100 -0.103740
v -0.051971 0.332348 -0.094243
v 0.018564 0.215547 -0.074223
v 0.018564 0.213387 -0.073138
v 0.018564 0.212010 -0.071950
v 0.018564 0.324285 -0.104702
v 0.018564 0.324040 -0.101213
v 0.018564 0.218631 -0.074581
v 0.018564 0.224714 -0.061510
v 0.018564 0.225940 -0.063821
v 0.018564 0.339497 -0.106116
v 0.018564 0.340261 -0.103825
v 0.018564 0.336375 -0.109455
v 0.018564 0.330745 -0.110530
v 0.018564 0.226355 -0.066206
v 0.018564 0.340270 -0.101213
v 0.018564 0.328453 -0.109766
v 0.018564 0.225327 -0.070139
v 0.018564 0.222347 -0.073449
v 0.018564 0.215547 -0.058587
v 0.018564 0.222347 -0.059369
v 0.018564 0.210021 -0.064999
v 0.018564 0.210445 -0.069262
v 0.018564 0.338638 -0.097346
v 0.018564 0.334913 -0.094687
v 0.018564 0.210775 -0.062708
v 0.018564 0.331952 -0.094187
v 0.018564 0.327086 -0.095932
v 0.018564 0.212699 -0.060275
v 0.018564 0.219536 -0.058294
v 0.018564 0.217852 -0.066407
v 0.018564 0.333043 -0.102414
v 0.246608 -0.394806 -0.017147
v 0.246608 -0.426299 -0.017137
v 0.246608 -0.394806 0.036950
v 0.246608 -0.426299 0.036960
v 0.170685 -0.353293 -0.121922
vn -1.0000 -0.0000 -0.0000
vn -0.0000 1.0000 -0.0000
vn -0.0000 -0.0000 -1.0000
vn 1.0000 -0.0000 -0.0000
vn 0.9784 -0.2066 -0.0058
vn -0.0000 -0.0000 1.0000
vn -0.2970 -0.9549 -0.0000
vn -0.9747 0.2235 -0.0000
vn -0.8209 0.5711 -0.0000
vn -0.8217 -0.5699 -0.0000
vn -0.0003 -0.0004 1.0000
vn -0.0000 1.0000 -0.0009
vn -0.0000 -0.0012 1.0000
vn 0.0007 0.0020 1.0000
vn -0.0000 -1.0000 -0.0000
vn 0.9266 -0.3757 -0.0171
vn -0.1136 -0.9935 0.0109
vn 0.4272 0.9042 -0.0000
vn -0.3827 0.9239 -0.0000
vn 0.0003 -0.0002 1.0000
vn -0.0000 -0.0009 1.0000
vn -0.8103 0.5860 -0.0066
vn -0.3770 -0.9262 -0.0000
vn 0.0748 -0.9972 -0.0000
vn 0.4848 -0.8746 -0.0000
vn 0.0005 -0.0017 1.0000
vn -0.0002 -0.0011 1.0000
vn -0.0000 0.0001 1.0000
vn -1.0000 -0.0024 -0.0015
vn 0.0296 0.9996 -0.0000
vn -0.8768 0.4809 -0.0000
vn -0.7160 0.6981 -0.0000
vn -0.0000 0.8511 -0.5249
vn 0.0009 1.0000 0.0012
vn -0.0000 -0.0001 1.0000
vn -0.0000 0.8683 0.4960
vn -0.0001 0.0001 1.0000
vn 0.0048 0.9408 0.3389
vn 0.0001 -0.0001 1.0000
vn -0.0000 0.8681 0.4964
vn -0.0000 0.8678 0.4969
vn -0.0010 0.7003 0.7139
vn -0.0000 0.5475 -0.8368
vn -0.0000 0.8908 0.4543
vn -0.0000 0.9986 0.0526
vn -0.0038 0.9953 -0.0972
vn 0.0052 0.9311 0.3648
vn -0.0000 0.6305 0.7762
vn 0.0099 0.5890 0.8081
vn -0.0000 0.9878 -0.1555
vn 0.2611 0.9653 0.0058
vn 0.5927 0.8054 -0.0021
vn -0.0000 -1.0000 -0.0001
vn 0.0032 0.9408 0.3389
vn -0.0009 0.6991 0.7150
vn 0.0021 0.7445 0.6677
vn 0.0019 0.4661 0.8847
vn -0.0000 0.8525 -0.5228
vn -0.0000 -0.5464 -0.8375
vn 0.0001 0.8511 -0.5249
vn -0.0010 0.3130 -0.9498
vn 0.0006 -0.3070 0.9517
vn 0.0009 0.8117 -0.5840
vn -0.0000 -0.7773 -0.6291
vn -0.0000 -0.9662 -0.2577
vn 0.0001 0.4878 -0.8730
vn -0.0000 -1.0000 0.0003
vn 0.0030 1.0000 0.0036
vn -0.0001 -1.0000 -0.0000
vn 0.0023 1.0000 0.0041
vn -0.0000 -0.9662 0.2577
vn -0.0020 -0.4126 0.9109
vn -0.0102 0.5890 0.8081
vn -0.0000 0.5447 0.8386
vn -0.0000 0.1563 0.9877
vn 0.0032 0.4449 0.8956
vn -0.9163 -0.4004 -0.0000
vn -0.9900 -0.1342 0.0437
vn -0.0079 0.9999 0.0108
vn -0.0000 0.9986 -0.0524
vn 0.0099 1.0000 -0.0000
vn -0.0000 0.8096 -0.5870
vn 0.7583 0.6519 -0.0000
vn 0.9636 -0.2673 -0.0039
vn -0.0005 0.3108 -0.9505
vn 0.0012 -0.3155 -0.9489
vn 0.6867 -0.7269 0.0108
vn 0.2994 -0.9541 0.0058
vn 0.8206 -0.5714 -0.0103
vn -0.0000 -0.3108 -0.9505
vn 0.9752 0.2215 -0.0000
vn 0.0042 1.0000 0.0022
vn -0.0000 -0.3590 0.9333
vn 0.0197 -0.4544 0.8906
vn -0.0197 0.1567 0.9875
vn -0.0067 -0.7773 0.6291
vn 0.0004 -0.0001 1.0000
vn -0.0000 0.9340 -0.3574
vn -0.0200 0.8910 -0.4537
vn 0.0095 0.5890 -0.8081
vn 0.0066 -0.8397 0.5431
vn -0.0000 0.0527 0.9986
vn -0.0000 -0.8397 -0.5431
vn 0.0198 -0.8917 -0.4522
vn -0.0235 -0.9954 0.0931
vn -0.0133 -0.9985 0.0526
vn 0.1800 -0.9837 -0.0000
vn 0.6030 -0.7977 0.0093
vn 0.8729 -0.4879 -0.0000
vn 0.9109 0.4127 -0.0034
vn -0.9777 0.2101 -0.0000
vn -0.9809 -0.1942 -0.0051
vn 0.0255 0.9330 0.3589
vn -0.0258 0.8394 0.5429
vn -0.0000 -0.3092 0.9510
vn -0.0000 -0.7773 0.6291
vn 0.5147 0.8573 -0.0000
vn -0.0014 -0.7725 0.6350
vn 0.0638 0.9980 -0.0003
vn -0.0014 -1.0000 -0.0005
vn 0.9542 0.2992 -0.0000
vn -0.9991 -0.0422 0.0029
vn -0.9894 0.1451 -0.0068
vn -0.7582 0.6519 -0.0081
vn -0.3555 -0.9347 -0.0042
vn -0.4083 0.9128 0.0028
vn -0.2976 0.9547 -0.0029
vn -0.9747 0.2234 -0.0000
vn 0.2969 0.9549 -0.0000
vn -0.4083 -0.9128 -0.0000
vn -0.8486 -0.5290 -0.0000
vn 0.2527 -0.9675 0.0105
vn -0.9263 -0.3768 -0.0033
vn 0.1812 0.9834 0.0087
vn 0.9750 -0.2220 -0.0000
vn 0.0289 -0.9996 -0.0065
vn 0.0001 -1.0000 -0.0000
vn -0.9746 -0.2240 -0.0000
vn -0.0000 1.0000 0.0032
vn -0.0007 -1.0000 0.0002
vn -0.0000 -1.0000 0.0001
vn -0.0000 1.0000 0.0002
vn 0.0002 1.0000 0.0002
vn -0.3236 -0.9462 -0.0000
vn -0.3489 -0.9298 0.1171
vn 0.5071 0.8447 -0.1715
vn -0.0004 -1.0000 -0.0002
vn -0.0000 0.6896 0.7242
vn 1.0000 -0.0006 0.0021
vn 0.9539 0.3001 0.0020
vn -0.3513 -0.9363 -0.0000
vn -0.0000 0.6887 0.7250
vn -0.9706 -0.0000 0.2407
vn 0.0228 -0.5474 -0.8366
vn -0.0153 0.5173 0.8557
vn -0.0324 -0.0887 0.9955
vn 0.0007 0.6889 0.7249
vn -0.0000 -0.0002 1.0000
vn -0.7735 -0.6338 -0.0000
vn -0.7768 -0.6297 0.0002
vn -0.0020 0.0001 1.0000
vn -0.0192 -0.0120 0.9997
vn -0.8988 -0.4384 -0.0020
vn -0.8428 -0.5380 -0.0148
vn -0.9422 -0.3350 0.0032
vn 1.0000 -0.0000 0.0016
vn 0.8479 0.5302 0.0014
vn 0.4489 -0.8936 -0.0000
vn 0.9989 -0.0461 -0.0000
vn -0.0020 -0.4129 0.9108
vn 0.0015 0.2747 -0.9615
vn -0.4106 0.9118 -0.0000
vn -0.3731 0.9278 0.0068
vn -0.0004 -0.0678 -0.9977
vn -0.0118 -0.6130 0.7900
vn -0.5102 -0.8601 -0.0000
vn -0.0031 -0.5346 -0.8451
vn -0.0119 -0.9999 0.0038
vn 0.0030 1.0000 0.0001
vn 0.0005 -0.0000 1.0000
vn 0.7736 0.6337 0.0002
vn 0.7047 0.7095 0.0051
vn 0.3948 0.9187 -0.0082
vn 0.0001 0.9875 -0.1577
vn 0.0001 -0.0002 1.0000
vn 0.0045 -0.0000 -1.0000
vn -0.0000 -0.0208 -0.9998
vn 0.0150 -0.5166 -0.8561
vn -0.0000 1.0000 0.0001
vn -0.4083 -0.9128 -0.0024
vn -0.0000 -1.0000 0.0018
vn 0.0612 -0.9981 -0.0000
vn 0.0640 0.9979 -0.0000
vn 0.5101 0.8601 -0.0000
vn 0.8199 0.5726 -0.0000
vn 0.9163 -0.4004 -0.0000
vn -0.0578 -0.9983 -0.0000
vn -0.0200 -0.8914 -0.4528
vn 0.0236 -0.9755 0.2187
vn -0.9992 -0.0391 -0.0000
vn 0.0037 -0.8929 -0.4502
vn -0.0030 -0.5335 -0.8458
vn -0.0199 -0.8910 -0.4537
vn -0.0000 0.8386 0.5448
vn -0.9731 0.2304 0.0053
vn -0.0029 -0.9328 -0.3603
vn 0.0077 -0.0852 0.9963
vn -0.4141 -0.9102 -0.0052
vn 0.9636 -0.2673 -0.0000
vn 0.7581 -0.6518 0.0194
vn -0.0014 -0.9950 0.0998
vn 0.5101 -0.8601 -0.0000
vn -0.0098 0.1563 0.9877
vn -0.7370 0.6759 -0.0000
vn -0.7735 0.6337 -0.0043
vn -0.0198 -0.1557 0.9876
vn 0.0066 -0.5458 0.8379
vn -0.3587 0.9334 0.0081
vn -0.0066 -0.6305 0.7762
vn 0.0133 -0.8385 0.5447
vn 0.7555 0.6551 -0.0075
vn -0.0225 0.5457 0.8377
vn 0.0197 0.8907 0.4542
vn 0.0003 -0.0005 1.0000
vn 0.9466 0.3225 0.0025
vn 0.3903 0.9206 0.0072
vn 0.3396 0.9406 0.0023
vn 0.8356 -0.5488 0.0233
vn 0.9976 -0.0692 -0.0000
vn 0.7889 0.6146 -0.0026
vn -0.0078 1.0000 -0.0031
vn 0.4322 -0.9018 -0.0042
vn -0.9691 0.2469 -0.0000
vn -0.9995 -0.0310 -0.0017
vn 0.7786 -0.6276 -0.0000
vn 0.7126 -0.7015 0.0077
vn 0.9464 -0.3229 -0.0089
vn -0.9942 -0.1079 0.0021
vn 0.9794 0.2021 0.0057
vn 0.9556 -0.2945 -0.0059
vn 0.4046 -0.9145 0.0058
vn 0.9144 0.4048 -0.0059
vn -0.4820 -0.8762 -0.0000
vn -0.0981 0.9952 0.0034
vn 0.5043 -0.8635 -0.0000
vn -0.9496 -0.3133 0.0054
vn -0.0643 -0.9979 -0.0000
vn 0.9807 0.1956 0.0049
vn -0.9472 0.3205 0.0091
vn -0.7596 -0.6503 -0.0000
vn -0.7550 -0.6556 0.0152
vn -0.0062 0.0003 1.0000
vn 0.0011 -0.0003 1.0000
vn -0.0009 -0.0025 1.0000
vn -1.0000 -0.0017 -0.0034
vn -0.0000 0.0020 1.0000
vn -0.0004 -0.0002 1.0000
vn 0.0004 -0.0008 1.0000
vn 0.0032 -1.0000 -0.0000
vn -0.7583 -0.6519 -0.0000
vn -0.9744 -0.2246 -0.0000
vn -0.7598 0.6501 0.0082
vn -1.0000 -0.0011 -0.0000
vn -0.4408 0.8976 -0.0000
vn -0.8212 0.5707 -0.0000
vn 0.0169 0.9999 -0.0000
vn -0.4593 0.8883 -0.0000
vn 0.5099 0.8602 0.0088
vn 0.6047 0.7965 -0.0001
vn 0.8212 0.5707 -0.0027
vn -0.9997 -0.0260 -0.0003
vn 0.0676 0.9977 -0.0000
vn -0.4496 0.8932 -0.0008
vn -0.9239 -0.3828 -0.0000
vn -0.6776 -0.7354 -0.0000
vn -0.0000 -1.0000 -0.0002
vn -0.9550 -0.2966 -0.0093
vn -0.7103 -0.7039 -0.0050
vn 0.9766 -0.2147 -0.0146
vn 0.7489 -0.6627 -0.0000
vn 0.8252 0.5649 -0.0000
vn 0.3564 0.9343 -0.0053
vn -0.1334 0.9911 0.0013
vn 0.9661 -0.2582 -0.0030
vn 0.8264 -0.5631 -0.0000
vn -0.0000 -1.0000 0.0074
vn 0.8347 -0.5507 0.0013
vn -0.5027 -0.8644 -0.0000
vn 0.0041 -1.0000 0.0070
vn -0.9961 0.0874 -0.0080
vn -0.9440 -0.3299 0.0073
vn -0.9544 -0.2984 0.0013
vn 0.9983 0.0577 0.0020
vn -0.9777 -0.2101 -0.0036
vn 0.0068 -0.1108 0.9938
vn -0.9981 0.0602 0.0101
vn -0.5230 0.8523 0.0029
vn -0.0021 0.1057 0.9944
vn -0.8331 0.5531 -0.0048
vn -0.9896 0.1440 0.0048
vn -0.5229 0.8524 0.0029
vn -0.8849 0.4657 0.0033
vn 0.8723 0.4889 0.0026
vn -0.0002 -1.0000 -0.0003
vn 0.9982 -0.0600 -0.0019
vn -0.3317 0.9434 0.0042
vn -0.3398 0.9405 -0.0024
vn 0.0292 0.9996 0.0054
vn 0.0048 0.9414 0.3372
vn -0.0695 0.9976 -0.0000
vn -0.0036 0.9951 -0.0990
vn 0.0028 0.9301 0.3672
vn 0.0023 0.7445 0.6677
vn 0.9419 0.3359 -0.0044
vn -0.9744 0.2246 -0.0000
vn -0.8351 -0.5501 -0.0000
vn 1.0000 0.0001 -0.0000
vn 0.0015 -0.7831 0.6218
vn 0.0091 0.7709 -0.6368
vn -0.0033 -0.4394 0.8983
vn 1.0000 0.0012 -0.0000
vn -0.0000 -0.9217 0.3879
vn 0.0025 0.0917 -0.9958
vn 0.0005 -0.9316 0.3635
vn -0.0113 -0.5998 0.8001
vn -0.0022 0.1018 0.9948
vn -0.0177 -0.9951 -0.0972
vn 0.0003 0.4601 0.8879
vn -0.0005 0.3007 -0.9537
vn 0.0029 0.9301 0.3672
vn 0.0010 -0.0922 -0.9957
vn -0.0044 -0.8524 0.5229
vn 0.0040 -0.9998 -0.0207
vn 0.0012 0.4449 0.8956
vn -0.0089 0.5769 -0.8167
vn 0.0075 -0.9888 -0.1490
vn -0.0000 0.5787 -0.8155
vn -0.0000 -0.7296 -0.6839
vn 0.0003 -0.3081 -0.9513
vn 0.0010 -0.7388 0.6740
vn 0.7567 0.6538 -0.0000
vn 0.8141 0.5806 0.0049
vn -0.5284 0.8490 -0.0004
vn 0.9682 0.2500 0.0001
vn -0.0000 0.5770 -0.8168
vn -0.8395 0.5434 -0.0000
vn -0.8237 0.5670 -0.0000
vn -0.8212 0.5707 0.0001
vn -0.0005 -1.0000 -0.0002
vn -0.9487 0.3161 -0.0026
vn -0.9909 -0.1345 -0.0076
vn -0.9989 -0.0461 -0.0000
vn -0.9026 -0.4305 -0.0000
vn -0.9744 0.2246 0.0027
vn -0.5313 -0.8459 0.0465
vn -0.4419 -0.8970 0.0063
vn 0.1804 -0.9836 0.0090
vn -0.2305 -0.9731 -0.0012
vn 0.1800 -0.9836 0.0090
vn 0.6450 -0.7642 -0.0042
vn 0.7582 -0.6519 0.0084
vn 0.9633 -0.2685 -0.0038
vn 0.8358 -0.5490 0.0063
vn 0.9909 0.1340 -0.0078
vn 0.9977 -0.0675 -0.0025
vn 0.9744 -0.2246 -0.0000
vn 0.9744 0.2246 -0.0000
vn 0.4649 -0.8853 -0.0000
vn 0.1099 -0.9939 -0.0000
vn 0.7567 -0.6538 -0.0000
vn -0.7603 -0.6495 -0.0021
vn -0.3422 -0.9396 -0.0024
vn -0.7018 -0.7124 0.0043
vn -0.0002 -0.0001 1.0000
vn -0.0001 -0.0001 1.0000
vn -0.5335 -0.8457 -0.0098
vn 0.9834 0.1812 -0.0004
vn 0.8364 0.5481 0.0013
vn 0.5447 0.8386 -0.0000
vn -0.8125 0.5829 -0.0000
vn -0.9740 0.2266 0.0046
vn -0.9558 0.2940 -0.0024
vn -0.7598 0.6501 -0.0065
vn 0.9912 0.1326 0.0039
vn -0.0000 -0.0006 1.0000
vn 0.0002 -0.0001 1.0000
vn 0.0002 -0.0002 1.0000
vn 0.0001 -0.0005 1.0000
vn 0.0094 0.0727 -0.9973
vn 0.0013 0.4449 0.8956
vn -0.0118 -0.6131 0.7899
vn -0.8942 -0.4465 -0.0337
vn 0.0016 0.4402 0.8979
vn 0.0015 -0.7839 0.6209
vn 0.0058 -0.9943 -0.1064
vn 0.0077 -0.0850 0.9964
vn -0.0010 -0.9487 0.3162
vn 0.0014 -0.7831 0.6218
vn -0.0000 -0.5335 -0.8458
vn -0.0031 -0.9286 -0.3711
vn 0.0055 0.7444 0.6677
vn -0.0014 0.6626 0.7490
vn -0.0059 -0.9751 0.2215
vn 0.0005 -0.0913 -0.9958
vn 0.0002 0.2431 -0.9700
vn 0.0111 -0.9646 0.2635
vn 0.0024 -0.8855 -0.4647
vn -0.0113 -0.6000 0.7999
vn -0.0027 -0.5646 -0.8254
vn -0.0021 -0.4126 0.9109
vn 0.0006 0.5855 -0.8107
vn 0.6356 -0.0000 0.7720
vn 0.4996 -0.0000 0.8662
vn -0.8659 -0.0000 0.5002
vn -0.6912 -0.0000 -0.7227
vn -0.5701 -0.0000 -0.8215
vn -0.7449 -0.0000 0.6671
vn -0.8389 -0.0000 0.5443
vn -0.9549 -0.0000 0.2968
vn 0.9950 -0.0000 -0.0999
vn 0.9995 -0.0000 0.0311
vn 0.9567 -0.0000 0.2910
vn 0.9054 -0.0000 0.4246
vn 0.1755 -0.0000 0.9845
vn -0.1768 -0.0000 0.9843
vn -0.9868 -0.0000 0.1622
vn -0.9993 -0.0000 0.0374
vn 0.9691 -0.0076 0.2467
vn 0.9956 -0.0000 0.0938
vn 0.9443 -0.0001 0.3290
vn 0.8137 0.0023 0.5813
vn 0.8389 -0.0001 0.5443
vn 0.6379 0.0091 0.7700
vn 0.5382 -0.0034 0.8428
vn 0.2927 -0.0049 0.9562
vn 0.2257 -0.0000 0.9742
vn 0.8740 -0.0000 -0.4859
vn 0.9320 -0.0000 -0.3625
vn 0.9740 -0.0000 -0.2267
vn 0.9857 -0.0000 0.1683
vn 0.0923 -0.0000 -0.9957
vn 0.2580 -0.0000 -0.9661
vn 0.4272 -0.0000 -0.9042
vn 0.5734 -0.0000 -0.8193
vn 0.6912 -0.0000 -0.7226
vn 0.6912 -0.0000 -0.7227
vn 0.7931 -0.0000 -0.6090
vn 0.7931 -0.0000 -0.6091
vn -0.2598 -0.0000 -0.9657
vn -0.0923 -0.0000 -0.9957
vn 0.8359 -0.0000 0.5489
vn 0.7449 -0.0000 0.6671
vn 0.9383 -0.0001 0.3458
vn 0.3471 -0.0000 0.9378
vn -0.3470 -0.0000 0.9378
vn -0.4966 -0.0000 0.8680
vn -0.9950 -0.0000 -0.0999
vn -0.9726 -0.0000 -0.2326
vn -0.9341 -0.0000 -0.3570
vn -0.8740 -0.0000 -0.4859
vn -0.7932 -0.0000 -0.6090
vn -0.4272 -0.0000 -0.9042
vn -0.6357 -0.0000 0.7720
vn -0.6356 -0.0000 0.7720
vn -0.7449 -0.0000 0.6672
vn -0.9054 -0.0000 0.4246
vn 0.9383 -0.0000 0.3457
vn -0.8652 0.0030 0.5013
vn -0.8641 -0.0002 0.5034
vn 0.0002 -0.0003 1.0000
vn 0.0001 -0.0000 1.0000
vn 0.0001 0.0001 1.0000
vn 0.0002 0.0001 1.0000
vn 0.0005 -0.0002 1.0000
vn -0.0000 0.1951 -0.9808
vn -0.0000 -0.8315 -0.5556
vn -0.0000 -0.8315 0.5556
vn -0.0000 0.1951 0.9808
vn -0.0000 -0.9808 -0.1951
vn -0.0000 -0.5556 0.8315
vn -0.0000 0.5556 0.8315
vn -0.0000 -0.9808 0.1951
vn -0.0000 -0.1951 0.9808
vn -0.0000 0.8315 0.5556
vn -0.0000 0.9808 0.1951
vn -0.0000 0.9808 -0.1951
vn -0.0000 0.8315 -0.5556
vn -0.0000 -0.1951 -0.9808
vn -0.0000 0.5556 -0.8315
vn -0.0000 -0.5556 -0.8315
vn -0.0000 0.9066 0.4220
vn -0.0050 -0.7304 0.6830
vn 0.0025 0.6533 0.7571
vn -0.0000 0.7035 0.7107
vn -0.0000 0.5099 -0.8603
vn -0.0000 0.0731 -0.9973
vn -0.0000 -0.3573 -0.9340
vn -0.0033 -0.7432 0.6691
vn -0.0036 -0.7399 0.6727
vn 0.0033 -0.0922 0.9957
vn -0.0000 0.9951 0.0991
vn -0.0016 0.9973 0.0731
vn -0.0096 0.7720 0.6355
vn -0.0023 0.1154 0.9933
vn -0.0041 -0.5810 -0.8139
vn 0.0024 0.3844 0.9232
vn -0.0000 0.4488 0.8936
vn -0.0000 0.7844 -0.6202
vn -0.0000 0.9499 -0.3127
vn 0.0056 -0.9166 0.3999
vn -0.0000 -0.6707 -0.7417
vn 0.0030 -0.5511 0.8345
vn -0.0037 -0.1876 0.9822
vn -0.0083 -0.2560 0.9667
vn 0.0011 0.9700 -0.2432
vn -0.0025 0.9975 0.0701
vn 0.0044 -0.9985 -0.0552
vn 0.0019 0.1894 -0.9819
vn -0.0083 0.8662 -0.4996
vn 0.0023 -1.0000 0.0036
vn 0.0025 -0.9487 0.3162
vn -0.0015 0.9952 0.0975
vn 0.0065 0.3162 0.9487
vn -0.0000 0.2112 0.9774
vn -0.0000 0.6533 0.7571
vn 0.0038 -0.2705 -0.9627
vn -0.0001 -0.1664 -0.9861
vn 0.0008 -0.4582 0.8889
vn -0.0033 -0.2913 0.9566
vn -0.0012 0.8641 0.5033
vn -0.0000 -0.9135 -0.4069
vn 0.0034 -0.8833 -0.4687
vn -0.0006 -0.9852 -0.1713
vn 0.0008 -0.9943 -0.1070
vn 0.0002 0.8848 0.4659
vn -0.0004 -0.9572 0.2893
vn -0.0023 -0.9675 0.2529
vn -0.0000 0.9498 -0.3127
vn -0.0000 -0.6567 -0.7541
vn -0.0000 0.5319 -0.8468
vn -0.0000 0.7787 -0.6274
vn -0.0056 0.3375 -0.9413
vn -0.0000 -0.8810 -0.4731
vn -0.0035 -0.9213 -0.3888
vn -0.6160 0.0001 0.7877
vn 0.4798 0.8774 -0.0000
vn 0.8098 -0.0001 -0.5868
vt 0.000000 0.000000
s 0
usemtl Material.065
f 1/1/1 2/1/1 3/1/1
f 3/1/1 2/1/1 4/1/1
f 5/1/2 6/1/2 7/1/2
f 7/1/2 8/1/2 9/1/2
f 9/1/2 5/1/2 7/1/2
f 757/1/3 12/1/3 10/1/3
f 26/1/3 24/1/3 19/1/3
f 19/1/3 29/1/3 30/1/3
f 24/1/3 29/1/3 19/1/3
f 30/1/3 31/1/3 19/1/3
f 30/1/3 32/1/3 31/1/3
f 31/1/3 32/1/3 33/1/3
f 33/1/3 34/1/3 35/1/3
f 35/1/3 31/1/3 33/1/3
f 27/1/3 42/1/3 36/1/3
f 108/1/3 45/1/3 39/1/3
f 39/1/3 31/1/3 40/1/3
f 35/1/3 40/1/3 31/1/3
f 34/1/3 41/1/3 35/1/3
f 16/1/3 26/1/3 19/1/3
f 36/1/3 42/1/3 34/1/3
f 27/1/3 38/1/3 42/1/3
f 43/1/3 44/1/3 45/1/3
f 46/1/3 47/1/3 48/1/3
f 49/1/3 50/1/3 51/1/3
f 52/1/3 49/1/3 51/1/3
f 46/1/3 48/1/3 52/1/3
f 46/1/3 53/1/3 47/1/3
f 52/1/3 51/1/3 46/1/3
f 16/1/3 21/1/3 26/1/3
f 50/1/3 43/1/3 51/1/3
f 19/1/2 31/1/2 54/1/2
f 45/1/3 44/1/3 55/1/3
f 45/1/3 51/1/3 43/1/3
f 55/1/3 56/1/3 45/1/3
f 58/1/3 53/1/3 46/1/3
f 46/1/3 59/1/3 60/1/3
f 61/1/3 60/1/3 59/1/3
f 62/1/4 63/1/4 64/1/4
f 65/1/3 2/1/3 66/1/3
f 66/1/3 2/1/3 67/1/3
f 67/1/3 2/1/3 68/1/3
f 69/1/5 70/1/5 71/1/5
f 72/1/6 73/1/6 64/1/6
f 73/1/6 74/1/6 64/1/6
f 64/1/6 74/1/6 75/1/6
f 57/1/6 64/1/6 75/1/6
f 57/1/6 75/1/6 76/1/6
f 78/1/7 79/1/7 80/1/7
f 75/1/8 38/1/8 76/1/8
f 38/1/9 37/1/9 77/1/9
f 73/1/10 41/1/10 74/1/10
f 81/1/11 82/1/11 83/1/11
f 84/1/12 82/1/12 85/1/12
f 85/1/13 82/1/13 81/1/13
f 81/1/13 86/1/13 85/1/13
f 4/1/3 87/1/3 88/1/3
f 88/1/3 61/1/3 59/1/3
f 89/1/4 81/1/4 90/1/4
f 87/1/3 4/1/3 91/1/3
f 91/1/3 4/1/3 92/1/3
f 2/1/3 65/1/3 92/1/3
f 92/1/3 4/1/3 2/1/3
f 90/1/4 93/1/4 89/1/4
f 94/1/3 95/1/3 96/1/3
f 96/1/3 69/1/3 94/1/3
f 69/1/3 97/1/3 94/1/3
f 93/1/3 98/1/3 89/1/3
f 71/1/3 58/1/3 97/1/3
f 46/1/3 60/1/3 58/1/3
f 71/1/3 53/1/3 58/1/3
f 97/1/3 69/1/3 71/1/3
f 99/1/3 100/1/3 101/1/3
f 81/1/14 102/1/14 90/1/14
f 99/1/3 45/1/3 56/1/3
f 96/1/3 95/1/3 68/1/3
f 99/1/3 101/1/3 103/1/3
f 103/1/3 69/1/3 96/1/3
f 56/1/3 100/1/3 99/1/3
f 68/1/3 2/1/3 96/1/3
f 39/1/3 109/1/3 110/1/3
f 39/1/3 110/1/3 108/1/3
f 111/1/3 109/1/3 39/1/3
f 40/1/3 111/1/3 39/1/3
f 39/1/4 416/1/4 270/1/4
f 293/1/4 245/1/4 39/1/4
f 112/1/3 99/1/3 113/1/3
f 103/1/3 96/1/3 99/1/3
f 39/1/3 45/1/3 99/1/3
f 96/1/3 114/1/3 113/1/3
f 96/1/3 113/1/3 99/1/3
f 88/1/3 59/1/3 4/1/3
f 4/1/15 59/1/15 119/1/15
f 46/1/4 119/1/4 59/1/4
f 66/1/16 120/1/16 65/1/16
f 68/1/17 95/1/17 121/1/17
f 122/1/1 98/1/1 123/1/1
f 123/1/1 124/1/1 122/1/1
f 90/1/15 123/1/15 98/1/15
f 93/1/15 90/1/15 98/1/15
f 122/1/3 89/1/3 98/1/3
f 87/1/18 125/1/18 88/1/18
f 60/1/19 61/1/19 126/1/19
f 90/1/6 102/1/6 124/1/6
f 124/1/6 123/1/6 90/1/6
f 127/1/20 102/1/20 81/1/20
f 81/1/21 128/1/21 127/1/21
f 129/1/6 130/1/6 131/1/6
f 79/1/6 129/1/6 131/1/6
f 132/1/6 130/1/6 129/1/6
f 128/1/6 133/1/6 132/1/6
f 134/1/22 58/1/22 60/1/22
f 135/1/23 100/1/23 56/1/23
f 100/1/24 135/1/24 101/1/24
f 136/1/25 103/1/25 101/1/25
f 81/1/26 83/1/26 133/1/26
f 128/1/27 81/1/27 133/1/27
f 537/1/6 57/1/6 77/1/6
f 77/1/6 431/1/6 537/1/6
f 139/1/6 129/1/6 140/1/6
f 21/1/3 25/1/3 26/1/3
f 21/1/3 37/1/3 38/1/3
f 132/1/6 129/1/6 141/1/6
f 139/1/6 141/1/6 129/1/6
f 132/1/6 141/1/6 128/1/6
f 314/1/4 320/1/4 188/1/4
f 216/1/4 386/1/4 407/1/4
f 142/1/28 137/1/28 143/1/28
f 342/1/4 249/1/4 188/1/4
f 292/1/4 293/1/4 39/1/4
f 249/1/4 250/1/4 188/1/4
f 143/1/29 137/1/29 144/1/29
f 144/1/1 145/1/1 143/1/1
f 39/1/30 142/1/30 143/1/30
f 146/1/31 147/1/31 102/1/31
f 102/1/31 127/1/31 146/1/31
f 124/1/32 102/1/32 147/1/32
f 148/1/1 149/1/1 122/1/1
f 122/1/1 124/1/1 148/1/1
f 152/1/3 154/1/3 153/1/3
f 175/1/3 180/1/3 156/1/3 154/1/3
f 15/1/3 16/1/3 17/1/3
f 158/1/3 39/1/3 99/1/3
f 99/1/3 159/1/3 158/1/3
f 160/1/3 161/1/3 162/1/3
f 162/1/3 163/1/3 164/1/3
f 160/1/3 165/1/3 166/1/3
f 161/1/3 163/1/3 162/1/3
f 162/1/3 165/1/3 160/1/3
f 164/1/3 168/1/3 162/1/3
f 118/1/3 167/1/3 162/1/3
f 169/1/3 166/1/3 165/1/3
f 170/1/3 165/1/3 171/1/3
f 172/1/3 173/1/3 174/1/3
f 165/1/3 170/1/3 172/1/3
f 118/1/3 162/1/3 168/1/3
f 118/1/3 168/1/3 175/1/3
f 176/1/3 177/1/3 22/1/3
f 22/1/3 177/1/3 178/1/3
f 178/1/3 169/1/3 165/1/3
f 178/1/3 165/1/3 22/1/3
f 165/1/3 172/1/3 22/1/3
f 157/1/3 156/1/3 176/1/3
f 181/1/3 182/1/3 22/1/3
f 183/1/3 181/1/3 22/1/3
f 22/1/3 172/1/3 183/1/3
f 172/1/3 174/1/3 183/1/3
f 182/1/3 80/1/3 22/1/3
f 172/1/3 84/1/3 173/1/3
f 184/1/3 185/1/3 84/1/3
f 84/1/3 172/1/3 184/1/3
f 186/1/3 185/1/3 184/1/3
f 184/1/3 187/1/3 188/1/3
f 188/1/3 158/1/3 159/1/3
f 147/1/32 148/1/32 124/1/32
f 193/1/2 189/1/2 23/1/2
f 194/1/4 195/1/4 192/1/4
f 196/1/4 194/1/4 192/1/4
f 196/1/4 192/1/4 191/1/4
f 196/1/4 191/1/4 197/1/4
f 198/1/33 199/1/33 195/1/33
f 63/1/34 31/1/34 39/1/34
f 300/1/4 292/1/4 39/1/4
f 204/1/4 200/1/4 192/1/4
f 192/1/4 195/1/4 204/1/4
f 200/1/4 204/1/4 205/1/4
f 206/1/4 205/1/4 204/1/4
f 202/1/4 203/1/4 204/1/4
f 204/1/4 207/1/4 208/1/4
f 204/1/4 201/1/4 202/1/4
f 96/1/1 209/1/1 210/1/1
f 210/1/1 114/1/1 96/1/1
f 211/1/35 210/1/35 209/1/35
f 204/1/4 203/1/4 206/1/4
f 113/1/36 210/1/36 211/1/36
f 212/1/37 137/1/37 142/1/37
f 208/1/4 201/1/4 204/1/4
f 207/1/38 204/1/38 213/1/38
f 142/1/39 214/1/39 212/1/39
f 211/1/6 212/1/6 215/1/6
f 112/1/1 113/1/1 215/1/1
f 113/1/1 211/1/1 215/1/1
f 214/1/35 142/1/35 216/1/35
f 215/1/40 212/1/40 112/1/40
f 112/1/40 212/1/40 99/1/40
f 114/1/41 210/1/41 113/1/41
f 119/1/15 3/1/15 4/1/15
f 416/1/4 158/1/4 419/1/4
f 15/1/4 17/1/4 218/1/4
f 218/1/4 17/1/4 219/1/4
f 42/1/3 41/1/3 34/1/3
f 226/1/4 227/1/4 117/1/4
f 117/1/4 228/1/4 229/1/4
f 117/1/4 116/1/4 115/1/4
f 229/1/4 226/1/4 117/1/4
f 230/1/4 231/1/4 117/1/4
f 117/1/4 227/1/4 230/1/4
f 234/1/42 231/1/42 230/1/42
f 232/1/43 235/1/43 233/1/43
f 238/1/44 239/1/44 237/1/44
f 220/1/4 116/1/4 117/1/4
f 220/1/4 117/1/4 221/1/4
f 221/1/4 117/1/4 222/1/4
f 223/1/4 117/1/4 225/1/4
f 224/1/4 117/1/4 231/1/4
f 237/1/45 240/1/45 236/1/45
f 117/1/4 151/1/4 222/1/4
f 223/1/4 151/1/4 117/1/4
f 117/1/4 224/1/4 225/1/4
f 193/1/4 241/1/4 242/1/4
f 243/1/4 244/1/4 193/1/4
f 415/1/4 270/1/4 416/1/4
f 158/1/4 250/1/4 238/1/4
f 155/1/4 247/1/4 248/1/4
f 251/1/4 247/1/4 155/1/4
f 252/1/46 241/1/46 248/1/46
f 252/1/47 248/1/47 247/1/47
f 239/1/48 238/1/48 250/1/48
f 250/1/49 253/1/49 239/1/49
f 254/1/6 255/1/6 189/1/6
f 193/1/6 256/1/6 257/1/6
f 258/1/6 259/1/6 189/1/6
f 252/1/50 260/1/50 241/1/50
f 84/1/51 185/1/51 82/1/51
f 185/1/52 83/1/52 82/1/52
f 81/1/53 184/1/53 172/1/53
f 261/1/54 252/1/54 247/1/54
f 149/1/15 187/1/15 89/1/15
f 247/1/55 262/1/55 261/1/55
f 89/1/4 187/1/4 184/1/4
f 184/1/4 81/1/4 89/1/4
f 251/1/56 262/1/56 247/1/56
f 263/1/57 264/1/57 262/1/57
f 266/1/4 261/1/4 262/1/4
f 266/1/4 260/1/4 252/1/4
f 266/1/4 267/1/4 260/1/4
f 266/1/4 252/1/4 261/1/4
f 241/1/58 260/1/58 242/1/58
f 269/1/59 268/1/59 265/1/59
f 267/1/60 242/1/60 260/1/60
f 300/1/4 39/1/4 270/1/4
f 275/1/61 217/1/61 271/1/61
f 378/1/62 300/1/62 270/1/62
f 256/1/4 273/1/4 274/1/4
f 275/1/63 271/1/63 246/1/63
f 272/1/64 276/1/64 277/1/64
f 193/1/4 242/1/4 243/1/4
f 193/1/4 244/1/4 278/1/4
f 278/1/4 279/1/4 256/1/4
f 256/1/4 193/1/4 278/1/4
f 279/1/4 273/1/4 256/1/4
f 277/1/65 281/1/65 282/1/65
f 158/1/4 237/1/4 236/1/4
f 150/1/4 216/1/4 233/1/4
f 216/1/4 272/1/4 280/1/4
f 158/1/4 416/1/4 39/1/4
f 408/1/4 414/1/4 236/1/4
f 242/1/66 267/1/66 243/1/66
f 21/1/67 138/1/67 45/1/67
f 157/1/2 338/1/2 339/1/2
f 558/1/2 538/1/2 561/1/2
f 538/1/2 562/1/2 561/1/2
f 339/1/2 338/1/2 255/1/2
f 561/1/68 57/1/68 557/1/68
f 138/1/69 21/1/69 591/1/69
f 21/1/15 645/1/15 591/1/15
f 57/1/70 556/1/70 557/1/70
f 57/1/68 555/1/68 556/1/68
f 14/1/6 286/1/6 285/1/6
f 54/1/6 288/1/6 287/1/6
f 272/1/64 277/1/64 280/1/64
f 282/1/65 280/1/65 277/1/65
f 282/1/71 281/1/71 283/1/71
f 233/1/4 407/1/4 408/1/4
f 386/1/4 216/1/4 387/1/4
f 233/1/4 408/1/4 232/1/4
f 297/1/72 456/1/72 303/1/72
f 274/1/4 291/1/4 256/1/4
f 257/1/2 256/1/2 291/1/2
f 150/1/4 268/1/4 314/1/4
f 387/1/4 216/1/4 413/1/4
f 291/1/4 274/1/4 294/1/4
f 293/1/73 292/1/73 295/1/73
f 263/1/4 251/1/4 155/1/4
f 291/1/4 296/1/4 263/1/4
f 150/1/4 265/1/4 268/1/4
f 271/1/4 142/1/4 246/1/4
f 250/1/4 158/1/4 188/1/4
f 291/1/4 294/1/4 297/1/4
f 413/1/4 282/1/4 412/1/4
f 295/1/74 292/1/74 301/1/74
f 301/1/75 292/1/75 302/1/75
f 302/1/75 292/1/75 300/1/75
f 262/1/76 251/1/76 263/1/76
f 263/1/4 155/1/4 291/1/4
f 303/1/4 296/1/4 291/1/4
f 297/1/4 303/1/4 291/1/4
f 80/1/3 304/1/3 305/1/3
f 305/1/3 22/1/3 80/1/3
f 186/1/3 184/1/3 305/1/3
f 305/1/3 304/1/3 306/1/3
f 305/1/3 306/1/3 186/1/3
f 30/1/77 29/1/77 288/1/77
f 290/1/78 30/1/78 288/1/78
f 189/1/6 255/1/6 338/1/6
f 14/1/6 285/1/6 62/1/6
f 188/1/3 159/1/3 307/1/3
f 305/1/3 188/1/3 307/1/3
f 188/1/3 305/1/3 184/1/3
f 537/1/79 555/1/79 57/1/79
f 63/1/6 62/1/6 311/1/6
f 284/1/6 310/1/6 62/1/6
f 308/1/6 63/1/6 311/1/6
f 310/1/6 311/1/6 62/1/6
f 308/1/6 309/1/6 63/1/6
f 312/1/3 291/1/3 155/1/3
f 313/1/3 312/1/3 155/1/3
f 232/1/4 408/1/4 236/1/4
f 420/1/4 158/1/4 414/1/4
f 412/1/4 283/1/4 415/1/4
f 246/1/4 142/1/4 245/1/4
f 413/1/4 216/1/4 282/1/4
f 415/1/4 283/1/4 270/1/4
f 414/1/4 158/1/4 236/1/4
f 216/1/4 217/1/4 272/1/4
f 245/1/4 142/1/4 39/1/4
f 419/1/4 158/1/4 420/1/4
f 150/1/4 233/1/4 265/1/4
f 217/1/4 142/1/4 271/1/4
f 216/1/4 407/1/4 233/1/4
f 158/1/4 238/1/4 237/1/4
f 216/1/4 280/1/4 282/1/4
f 216/1/4 142/1/4 217/1/4
f 275/1/1 316/1/1 212/1/1
f 277/1/1 276/1/1 214/1/1
f 246/1/80 245/1/80 316/1/80
f 316/1/81 245/1/81 318/1/81
f 246/1/82 316/1/82 275/1/82
f 313/1/3 319/1/3 312/1/3
f 321/1/3 322/1/3 155/1/3
f 323/1/3 324/1/3 321/1/3
f 155/1/3 322/1/3 313/1/3
f 6/1/3 312/1/3 325/1/3
f 275/1/1 212/1/1 326/1/1
f 326/1/1 214/1/1 276/1/1
f 284/1/83 27/1/83 310/1/83
f 308/1/84 311/1/84 34/1/84
f 275/1/85 326/1/85 217/1/85
f 217/1/86 326/1/86 272/1/86
f 34/1/87 309/1/87 308/1/87
f 327/1/88 309/1/88 33/1/88
f 33/1/89 309/1/89 34/1/89
f 272/1/90 326/1/90 276/1/90
f 7/1/3 328/1/3 329/1/3
f 330/1/3 331/1/3 7/1/3
f 6/1/3 332/1/3 328/1/3
f 329/1/3 333/1/3 7/1/3
f 89/1/15 122/1/15 149/1/15
f 188/1/15 187/1/15 149/1/15
f 325/1/3 334/1/3 6/1/3
f 312/1/3 319/1/3 325/1/3
f 334/1/3 332/1/3 6/1/3
f 328/1/3 7/1/3 6/1/3
f 335/1/3 336/1/3 324/1/3
f 321/1/3 155/1/3 323/1/3
f 330/1/3 7/1/3 337/1/3
f 7/1/3 333/1/3 337/1/3
f 176/1/3 22/1/3 157/1/3
f 157/1/3 155/1/3 154/1/3
f 27/1/91 311/1/91 310/1/91
f 285/1/6 284/1/6 62/1/6
f 57/1/92 561/1/92 14/1/92
f 14/1/6 287/1/6 286/1/6
f 562/1/2 559/1/2 561/1/2
f 557/1/2 558/1/2 561/1/2
f 715/1/1 157/1/1 714/1/1
f 8/1/3 340/1/3 341/1/3
f 339/1/3 343/1/3 344/1/3
f 339/1/3 345/1/3 343/1/3
f 342/1/93 346/1/93 249/1/93
f 337/1/3 336/1/3 330/1/3
f 336/1/3 335/1/3 330/1/3
f 346/1/94 342/1/94 347/1/94
f 253/1/95 250/1/95 249/1/95
f 348/1/3 349/1/3 339/1/3
f 339/1/3 8/1/3 348/1/3
f 341/1/3 348/1/3 8/1/3
f 339/1/3 349/1/3 345/1/3
f 350/1/3 340/1/3 8/1/3
f 8/1/3 7/1/3 350/1/3
f 7/1/3 351/1/3 350/1/3
f 331/1/3 351/1/3 7/1/3
f 347/1/96 342/1/96 320/1/96
f 149/1/15 150/1/15 188/1/15
f 155/1/3 157/1/3 339/1/3
f 339/1/3 344/1/3 155/1/3
f 352/1/3 323/1/3 155/1/3
f 344/1/3 352/1/3 155/1/3
f 324/1/3 323/1/3 335/1/3
f 354/1/1 190/1/1 235/1/1
f 355/1/1 269/1/1 190/1/1
f 150/1/97 190/1/97 354/1/97
f 354/1/97 214/1/97 150/1/97
f 239/1/44 356/1/44 237/1/44
f 159/1/1 253/1/1 346/1/1
f 253/1/1 159/1/1 239/1/1
f 240/1/98 357/1/98 236/1/98
f 236/1/99 357/1/99 232/1/99
f 357/1/100 235/1/100 232/1/100
f 237/1/45 356/1/45 240/1/45
f 240/1/1 356/1/1 359/1/1
f 360/1/3 233/1/3 235/1/3
f 307/1/1 159/1/1 346/1/1
f 347/1/101 320/1/101 361/1/101
f 249/1/102 346/1/102 253/1/102
f 346/1/1 347/1/1 307/1/1
f 268/1/103 269/1/103 314/1/103
f 269/1/104 355/1/104 314/1/104
f 320/1/105 314/1/105 361/1/105
f 355/1/106 361/1/106 314/1/106
f 265/1/3 233/1/3 360/1/3
f 360/1/59 269/1/59 265/1/59
f 360/1/1 190/1/1 269/1/1
f 235/1/1 190/1/1 360/1/1
f 190/1/1 353/1/1 307/1/1
f 79/1/107 131/1/107 80/1/107
f 80/1/108 131/1/108 130/1/108
f 132/1/109 304/1/109 130/1/109
f 312/1/2 257/1/2 291/1/2
f 6/1/4 5/1/4 257/1/4
f 257/1/4 312/1/4 6/1/4
f 133/1/110 83/1/110 186/1/110
f 189/1/6 259/1/6 363/1/6
f 257/1/6 364/1/6 258/1/6
f 258/1/6 189/1/6 257/1/6
f 257/1/6 365/1/6 364/1/6
f 366/1/111 146/1/111 127/1/111
f 128/1/112 141/1/112 367/1/112
f 369/1/6 257/1/6 5/1/6
f 370/1/6 371/1/6 5/1/6
f 189/1/6 363/1/6 372/1/6
f 5/1/6 371/1/6 369/1/6
f 369/1/6 365/1/6 257/1/6
f 281/1/71 373/1/71 283/1/71
f 374/1/1 375/1/1 281/1/1
f 99/1/1 318/1/1 295/1/1
f 212/1/1 318/1/1 99/1/1
f 212/1/1 316/1/1 318/1/1
f 376/1/1 159/1/1 99/1/1
f 99/1/1 301/1/1 302/1/1
f 99/1/1 302/1/1 377/1/1
f 301/1/1 99/1/1 295/1/1
f 293/1/113 295/1/113 245/1/113
f 318/1/114 245/1/114 295/1/114
f 302/1/115 300/1/115 378/1/115
f 373/1/116 378/1/116 283/1/116
f 753/1/117 358/1/117 755/1/117
f 378/1/118 270/1/118 283/1/118
f 379/1/1 373/1/1 281/1/1
f 677/1/4 678/1/4 362/1/4
f 676/1/4 677/1/4 358/1/4
f 150/1/6 214/1/6 216/1/6
f 690/1/4 683/1/4 684/1/4
f 665/1/1 649/1/1 664/1/1
f 161/1/119 482/1/119 179/1/119
f 380/1/120 362/1/120 368/1/120
f 659/1/1 658/1/1 666/1/1
f 19/1/1 54/1/1 381/1/1
f 381/1/1 118/1/1 19/1/1
f 219/1/121 17/1/121 152/1/121
f 147/1/6 146/1/6 366/1/6
f 152/1/3 17/1/3 118/1/3
f 384/1/6 20/1/6 383/1/6
f 367/1/122 366/1/122 128/1/122
f 366/1/123 127/1/123 128/1/123
f 147/1/6 366/1/6 367/1/6
f 385/1/6 148/1/6 147/1/6
f 21/1/3 38/1/3 27/1/3
f 286/1/124 287/1/124 26/1/124
f 26/1/9 287/1/9 24/1/9
f 327/1/125 32/1/125 289/1/125
f 25/1/126 286/1/126 26/1/126
f 285/1/127 286/1/127 25/1/127
f 288/1/128 29/1/128 24/1/128
f 24/1/128 287/1/128 288/1/128
f 284/1/129 285/1/129 28/1/129
f 32/1/130 30/1/130 289/1/130
f 289/1/131 30/1/131 290/1/131
f 32/1/132 327/1/132 33/1/132
f 334/1/133 371/1/133 370/1/133
f 28/1/134 285/1/134 25/1/134
f 388/1/6 389/1/6 390/1/6
f 27/1/83 284/1/83 28/1/83
f 391/1/6 388/1/6 390/1/6
f 63/1/2 54/1/2 31/1/2
f 5/1/6 392/1/6 393/1/6
f 36/1/91 311/1/91 27/1/91
f 36/1/135 34/1/135 311/1/135
f 54/1/6 290/1/6 288/1/6
f 329/1/136 392/1/136 394/1/136
f 64/1/4 57/1/4 62/1/4
f 327/1/6 63/1/6 309/1/6
f 327/1/6 54/1/6 63/1/6
f 106/1/3 45/1/3 105/1/3
f 18/1/137 645/1/137 21/1/137
f 289/1/6 54/1/6 327/1/6
f 289/1/6 290/1/6 54/1/6
f 14/1/6 54/1/6 287/1/6
f 74/1/138 41/1/138 75/1/138
f 77/1/9 76/1/9 38/1/9
f 39/1/139 143/1/139 63/1/139
f 672/1/4 317/1/4 688/1/4
f 362/1/140 298/1/140 368/1/140
f 368/1/141 298/1/141 299/1/141
f 395/1/142 315/1/142 317/1/142
f 317/1/143 358/1/143 395/1/143
f 667/1/1 659/1/1 666/1/1
f 665/1/1 315/1/1 649/1/1
f 658/1/1 657/1/1 299/1/1
f 315/1/1 651/1/1 650/1/1
f 657/1/1 656/1/1 299/1/1
f 315/1/1 652/1/1 651/1/1
f 656/1/1 655/1/1 299/1/1
f 315/1/1 653/1/1 652/1/1
f 754/1/144 380/1/144 11/1/144
f 754/1/145 362/1/145 380/1/145
f 753/1/146 396/1/146 358/1/146
f 397/1/2 358/1/2 396/1/2
f 398/1/4 397/1/4 396/1/4
f 167/1/147 118/1/147 381/1/147
f 398/1/148 399/1/148 397/1/148
f 397/1/148 399/1/148 400/1/148
f 382/1/149 152/1/149 401/1/149
f 219/1/150 152/1/150 382/1/150
f 756/1/151 362/1/151 754/1/151
f 10/1/4 396/1/4 757/1/4
f 10/1/4 398/1/4 396/1/4
f 399/1/152 402/1/152 403/1/152
f 12/1/2 399/1/2 398/1/2
f 398/1/2 10/1/2 12/1/2
f 402/1/4 399/1/4 12/1/4
f 12/1/4 15/1/4 402/1/4
f 655/1/1 368/1/1 299/1/1
f 654/1/1 368/1/1 655/1/1
f 368/1/1 654/1/1 395/1/1
f 649/1/1 315/1/1 650/1/1
f 668/1/1 662/1/1 646/1/1
f 667/1/1 668/1/1 661/1/1
f 646/1/1 662/1/1 663/1/1
f 661/1/1 668/1/1 646/1/1
f 395/1/1 654/1/1 653/1/1
f 646/1/1 663/1/1 647/1/1
f 647/1/1 663/1/1 664/1/1
f 664/1/1 648/1/1 647/1/1
f 664/1/1 649/1/1 648/1/1
f 661/1/1 660/1/1 667/1/1
f 666/1/1 658/1/1 299/1/1
f 660/1/1 659/1/1 667/1/1
f 368/1/15 405/1/15 380/1/15
f 368/1/153 395/1/153 406/1/153
f 406/1/153 405/1/153 368/1/153
f 397/1/2 400/1/2 395/1/2
f 358/1/2 397/1/2 395/1/2
f 395/1/2 400/1/2 406/1/2
f 315/1/1 395/1/1 653/1/1
f 406/1/2 400/1/2 409/1/2
f 407/1/154 410/1/154 408/1/154
f 406/1/6 411/1/6 405/1/6
f 105/1/3 45/1/3 104/1/3
f 412/1/4 282/1/4 283/1/4
f 417/1/155 415/1/155 416/1/155
f 405/1/15 411/1/15 13/1/15
f 380/1/15 405/1/15 11/1/15
f 405/1/15 13/1/15 11/1/15
f 403/1/1 409/1/1 400/1/1
f 419/1/156 376/1/156 416/1/156
f 400/1/157 399/1/157 403/1/157
f 150/1/158 149/1/158 353/1/158
f 421/1/2 140/1/2 129/1/2
f 140/1/159 421/1/159 139/1/159
f 139/1/160 421/1/160 422/1/160
f 353/1/161 148/1/161 421/1/161
f 385/1/6 422/1/6 148/1/6
f 147/1/6 367/1/6 385/1/6
f 422/1/6 421/1/6 148/1/6
f 353/1/162 149/1/162 148/1/162
f 422/1/163 141/1/163 139/1/163
f 422/1/164 385/1/164 141/1/164
f 141/1/165 385/1/165 367/1/165
f 186/1/166 306/1/166 133/1/166
f 304/1/109 132/1/109 306/1/109
f 185/1/167 186/1/167 83/1/167
f 80/1/168 130/1/168 304/1/168
f 423/1/2 22/1/2 305/1/2
f 305/1/2 421/1/2 423/1/2
f 306/1/169 132/1/169 133/1/169
f 394/1/6 392/1/6 5/1/6
f 393/1/6 370/1/6 5/1/6
f 390/1/6 424/1/6 391/1/6
f 372/1/6 425/1/6 426/1/6
f 425/1/6 390/1/6 389/1/6
f 426/1/6 427/1/6 372/1/6
f 297/1/170 455/1/170 456/1/170
f 25/1/3 21/1/3 28/1/3
f 244/1/171 429/1/171 278/1/171
f 411/1/1 418/1/1 13/1/1
f 218/1/4 402/1/4 15/1/4
f 431/1/172 77/1/172 37/1/172
f 258/1/173 364/1/173 313/1/173
f 279/1/174 278/1/174 429/1/174
f 303/1/175 456/1/175 432/1/175
f 41/1/138 42/1/138 75/1/138
f 42/1/8 38/1/8 75/1/8
f 40/1/176 35/1/176 73/1/176
f 35/1/10 41/1/10 73/1/10
f 279/1/177 515/1/177 273/1/177
f 137/1/178 537/1/178 144/1/178
f 433/1/6 435/1/6 537/1/6
f 57/1/179 14/1/179 62/1/179
f 451/1/6 448/1/6 145/1/6
f 353/1/2 421/1/2 305/1/2
f 305/1/2 307/1/2 353/1/2
f 307/1/1 361/1/1 355/1/1
f 347/1/1 361/1/1 307/1/1
f 355/1/1 190/1/1 307/1/1
f 16/1/1 13/1/1 418/1/1
f 418/1/1 434/1/1 16/1/1
f 437/1/6 438/1/6 189/1/6
f 255/1/6 439/1/6 440/1/6
f 189/1/6 438/1/6 254/1/6
f 372/1/6 437/1/6 189/1/6
f 372/1/6 427/1/6 437/1/6
f 190/1/180 150/1/180 353/1/180
f 175/1/3 154/1/3 118/1/3
f 440/1/181 439/1/181 345/1/181
f 441/1/4 241/1/4 193/1/4
f 345/1/182 439/1/182 343/1/182
f 343/1/183 439/1/183 254/1/183
f 257/1/6 189/1/6 193/1/6
f 193/1/2 23/1/2 384/1/2
f 193/1/4 443/1/4 444/1/4
f 227/1/184 226/1/184 445/1/184
f 226/1/60 443/1/60 445/1/60
f 229/1/58 443/1/58 226/1/58
f 451/1/6 145/1/6 447/1/6
f 144/1/6 537/1/6 447/1/6
f 193/1/4 442/1/4 441/1/4
f 14/1/185 18/1/185 434/1/185
f 326/1/1 212/1/1 214/1/1
f 214/1/1 354/1/1 410/1/1
f 449/1/1 410/1/1 354/1/1
f 281/1/1 277/1/1 214/1/1
f 28/1/3 21/1/3 27/1/3
f 386/1/186 410/1/186 407/1/186
f 16/1/69 434/1/69 18/1/69
f 386/1/187 450/1/187 410/1/187
f 76/1/6 77/1/6 57/1/6
f 408/1/188 410/1/188 449/1/188
f 446/1/6 72/1/6 145/1/6
f 63/1/189 143/1/189 64/1/189
f 104/1/3 45/1/3 108/1/3
f 37/1/172 106/1/172 431/1/172
f 73/1/190 72/1/190 40/1/190
f 450/1/43 386/1/43 387/1/43
f 111/1/191 40/1/191 72/1/191
f 214/1/1 410/1/1 450/1/1
f 72/1/192 446/1/192 111/1/192
f 105/1/193 433/1/193 431/1/193
f 431/1/193 106/1/193 105/1/193
f 105/1/194 104/1/194 433/1/194
f 433/1/194 104/1/194 435/1/194
f 354/1/1 357/1/1 240/1/1
f 239/1/1 159/1/1 359/1/1
f 104/1/195 108/1/195 436/1/195
f 436/1/195 435/1/195 104/1/195
f 235/1/1 357/1/1 354/1/1
f 452/1/1 449/1/1 354/1/1
f 447/1/91 436/1/91 108/1/91
f 108/1/91 110/1/91 447/1/91
f 110/1/196 109/1/196 448/1/196
f 281/1/1 375/1/1 379/1/1
f 281/1/1 214/1/1 374/1/1
f 9/1/6 453/1/6 454/1/6
f 21/1/141 16/1/141 18/1/141
f 214/1/1 450/1/1 374/1/1
f 359/1/197 420/1/197 452/1/197
f 424/1/6 394/1/6 391/1/6
f 454/1/6 391/1/6 394/1/6
f 425/1/6 389/1/6 426/1/6
f 9/1/6 454/1/6 394/1/6
f 394/1/6 5/1/6 9/1/6
f 408/1/198 449/1/198 452/1/198
f 420/1/199 414/1/199 452/1/199
f 426/1/200 389/1/200 330/1/200
f 273/1/201 515/1/201 430/1/201
f 279/1/202 428/1/202 515/1/202
f 414/1/203 408/1/203 452/1/203
f 417/1/204 379/1/204 412/1/204
f 330/1/205 427/1/205 426/1/205
f 375/1/98 374/1/98 413/1/98
f 273/1/206 430/1/206 274/1/206
f 296/1/207 432/1/207 264/1/207
f 412/1/45 379/1/45 375/1/45
f 375/1/45 413/1/45 412/1/45
f 413/1/99 374/1/99 387/1/99
f 387/1/100 374/1/100 450/1/100
f 350/1/208 391/1/208 454/1/208
f 99/1/1 377/1/1 376/1/1
f 457/1/6 255/1/6 440/1/6
f 159/1/1 458/1/1 459/1/1
f 159/1/1 459/1/1 359/1/1
f 9/1/6 460/1/6 461/1/6
f 453/1/6 9/1/6 461/1/6
f 417/1/1 377/1/1 378/1/1
f 378/1/1 373/1/1 417/1/1
f 376/1/1 458/1/1 159/1/1
f 447/1/209 110/1/209 451/1/209
f 451/1/210 110/1/210 448/1/210
f 294/1/211 274/1/211 516/1/211
f 373/1/1 379/1/1 417/1/1
f 302/1/1 378/1/1 377/1/1
f 446/1/212 448/1/212 109/1/212
f 109/1/212 111/1/212 446/1/212
f 377/1/213 416/1/213 376/1/213
f 365/1/214 319/1/214 364/1/214
f 319/1/215 313/1/215 364/1/215
f 376/1/216 419/1/216 458/1/216
f 419/1/217 459/1/217 458/1/217
f 72/1/6 64/1/6 145/1/6
f 313/1/218 322/1/218 258/1/218
f 419/1/219 420/1/219 459/1/219
f 446/1/6 145/1/6 448/1/6
f 420/1/220 359/1/220 459/1/220
f 537/1/6 436/1/6 447/1/6
f 324/1/221 372/1/221 321/1/221
f 143/1/189 145/1/189 64/1/189
f 417/1/222 416/1/222 377/1/222
f 435/1/6 436/1/6 537/1/6
f 145/1/6 144/1/6 447/1/6
f 417/1/223 412/1/223 415/1/223
f 9/1/6 255/1/6 457/1/6
f 457/1/6 460/1/6 9/1/6
f 452/1/1 354/1/1 240/1/1
f 359/1/1 452/1/1 240/1/1
f 356/1/1 239/1/1 359/1/1
f 462/1/224 85/1/224 86/1/224
f 431/1/6 433/1/6 537/1/6
f 440/1/225 345/1/225 457/1/225
f 322/1/226 363/1/226 259/1/226
f 321/1/227 363/1/227 322/1/227
f 340/1/228 461/1/228 460/1/228
f 457/1/229 341/1/229 460/1/229
f 86/1/1 170/1/1 463/1/1
f 363/1/230 321/1/230 372/1/230
f 258/1/231 322/1/231 259/1/231
f 340/1/232 453/1/232 461/1/232
f 319/1/233 365/1/233 325/1/233
f 320/1/4 342/1/4 188/1/4
f 369/1/234 371/1/234 325/1/234
f 463/1/6 464/1/6 86/1/6
f 337/1/235 333/1/235 424/1/235
f 337/1/236 424/1/236 390/1/236
f 8/1/1 255/1/1 9/1/1
f 425/1/237 337/1/237 390/1/237
f 325/1/238 371/1/238 334/1/238
f 254/1/6 439/1/6 255/1/6
f 324/1/239 336/1/239 372/1/239
f 401/1/2 153/1/2 404/1/2
f 425/1/240 336/1/240 337/1/240
f 333/1/241 329/1/241 394/1/241
f 457/1/242 345/1/242 349/1/242
f 332/1/243 393/1/243 392/1/243
f 352/1/244 344/1/244 254/1/244
f 333/1/245 394/1/245 424/1/245
f 388/1/246 330/1/246 389/1/246
f 392/1/247 329/1/247 328/1/247
f 372/1/248 336/1/248 425/1/248
f 325/1/249 365/1/249 369/1/249
f 388/1/250 391/1/250 351/1/250
f 248/1/4 241/1/4 465/1/4
f 241/1/4 441/1/4 466/1/4
f 466/1/4 465/1/4 241/1/4
f 393/1/251 334/1/251 370/1/251
f 392/1/243 328/1/243 332/1/243
f 170/1/15 464/1/15 463/1/15
f 193/1/4 444/1/4 467/1/4
f 193/1/4 467/1/4 442/1/4
f 150/1/4 314/1/4 188/1/4
f 135/1/185 468/1/185 137/1/185
f 468/1/252 138/1/252 137/1/252
f 469/1/253 86/1/253 470/1/253
f 469/1/254 462/1/254 86/1/254
f 471/1/255 86/1/255 464/1/255
f 21/1/3 45/1/3 106/1/3
f 472/1/15 46/1/15 51/1/15
f 51/1/4 45/1/4 468/1/4
f 468/1/4 473/1/4 51/1/4
f 471/1/256 474/1/256 86/1/256
f 474/1/257 475/1/257 86/1/257
f 470/1/258 86/1/258 475/1/258
f 468/1/259 45/1/259 138/1/259
f 475/1/6 129/1/6 79/1/6
f 181/1/260 476/1/260 78/1/260
f 78/1/260 182/1/260 181/1/260
f 80/1/7 182/1/7 78/1/7
f 470/1/261 476/1/261 181/1/261
f 181/1/261 183/1/261 470/1/261
f 476/1/6 470/1/6 475/1/6
f 78/1/6 476/1/6 475/1/6
f 79/1/6 78/1/6 475/1/6
f 423/1/2 421/1/2 129/1/2
f 129/1/2 475/1/2 423/1/2
f 478/1/262 164/1/262 479/1/262
f 381/1/6 481/1/6 480/1/6
f 179/1/6 481/1/6 479/1/6
f 478/1/6 479/1/6 481/1/6
f 483/1/6 478/1/6 481/1/6
f 481/1/6 381/1/6 477/1/6
f 481/1/263 167/1/263 480/1/263
f 482/1/6 484/1/6 485/1/6
f 485/1/6 481/1/6 482/1/6
f 485/1/6 484/1/6 486/1/6
f 487/1/6 488/1/6 485/1/6
f 21/1/3 106/1/3 37/1/3
f 472/1/6 473/1/6 489/1/6
f 473/1/6 490/1/6 489/1/6
f 489/1/6 491/1/6 472/1/6
f 51/1/15 473/1/15 472/1/15
f 473/1/6 492/1/6 493/1/6
f 488/1/4 171/1/4 485/1/4
f 489/1/264 490/1/264 52/1/264
f 164/1/265 163/1/265 479/1/265
f 489/1/266 52/1/266 491/1/266
f 479/1/267 163/1/267 161/1/267
f 482/1/268 166/1/268 484/1/268
f 160/1/269 166/1/269 482/1/269
f 484/1/270 166/1/270 486/1/270
f 43/1/271 492/1/271 44/1/271
f 160/1/272 482/1/272 161/1/272
f 161/1/273 179/1/273 479/1/273
f 55/1/274 44/1/274 494/1/274
f 480/1/147 167/1/147 381/1/147
f 494/1/275 56/1/275 55/1/275
f 162/1/263 167/1/263 481/1/263
f 485/1/276 165/1/276 162/1/276
f 492/1/277 494/1/277 44/1/277
f 493/1/6 490/1/6 473/1/6
f 468/1/6 494/1/6 492/1/6
f 351/1/278 331/1/278 388/1/278
f 134/1/6 472/1/6 495/1/6
f 472/1/6 491/1/6 496/1/6
f 472/1/6 496/1/6 495/1/6
f 497/1/6 498/1/6 499/1/6
f 499/1/6 495/1/6 497/1/6
f 341/1/279 457/1/279 348/1/279
f 70/1/6 498/1/6 497/1/6
f 460/1/280 341/1/280 340/1/280
f 495/1/281 496/1/281 47/1/281
f 254/1/282 344/1/282 343/1/282
f 352/1/283 254/1/283 438/1/283
f 497/1/284 71/1/284 70/1/284
f 136/1/285 70/1/285 103/1/285
f 340/1/286 350/1/286 454/1/286
f 70/1/287 69/1/287 103/1/287
f 351/1/288 391/1/288 350/1/288
f 101/1/25 500/1/25 136/1/25
f 340/1/289 454/1/289 453/1/289
f 126/1/6 501/1/6 119/1/6
f 134/1/6 126/1/6 472/1/6
f 501/1/6 3/1/6 119/1/6
f 46/1/4 472/1/4 119/1/4
f 427/1/290 330/1/290 335/1/290
f 331/1/291 330/1/291 388/1/291
f 94/1/292 97/1/292 498/1/292
f 457/1/293 349/1/293 348/1/293
f 499/1/294 498/1/294 97/1/294
f 223/1/295 225/1/295 514/1/295 513/1/295
f 58/1/296 499/1/296 97/1/296
f 352/1/297 438/1/297 437/1/297
f 225/1/298 224/1/298 508/1/298 514/1/298
f 427/1/299 323/1/299 437/1/299
f 134/1/300 499/1/300 58/1/300
f 437/1/301 323/1/301 352/1/301
f 323/1/302 427/1/302 335/1/302
f 8/1/1 339/1/1 255/1/1
f 495/1/6 499/1/6 134/1/6
f 169/1/303 486/1/303 166/1/303
f 119/1/6 472/1/6 126/1/6
f 162/1/276 481/1/276 485/1/276
f 165/1/4 485/1/4 171/1/4
f 125/1/6 3/1/6 502/1/6
f 502/1/6 3/1/6 501/1/6
f 487/1/304 170/1/304 171/1/304
f 125/1/6 503/1/6 3/1/6
f 1/1/6 3/1/6 504/1/6
f 3/1/6 503/1/6 504/1/6
f 92/1/305 65/1/305 504/1/305
f 84/1/306 85/1/306 173/1/306
f 505/1/4 506/1/4 507/1/4
f 508/1/4 509/1/4 510/1/4
f 510/1/4 509/1/4 234/1/4
f 501/1/307 126/1/307 61/1/307
f 511/1/4 506/1/4 445/1/4
f 61/1/308 502/1/308 501/1/308
f 230/1/309 227/1/309 505/1/309
f 88/1/310 502/1/310 61/1/310
f 227/1/311 445/1/311 505/1/311
f 230/1/312 505/1/312 234/1/312
f 502/1/18 88/1/18 125/1/18
f 234/1/313 509/1/313 231/1/313
f 487/1/15 474/1/15 471/1/15
f 504/1/314 503/1/314 91/1/314
f 423/1/4 475/1/4 474/1/4
f 470/1/315 183/1/315 469/1/315
f 332/1/316 334/1/316 393/1/316
f 107/1/4 512/1/4 155/1/4
f 512/1/4 513/1/4 155/1/4
f 155/1/4 248/1/4 107/1/4
f 465/1/4 107/1/4 248/1/4
f 513/1/317 514/1/317 155/1/317
f 297/1/318 517/1/318 455/1/318
f 170/1/1 471/1/1 464/1/1
f 514/1/4 508/1/4 155/1/4
f 510/1/4 155/1/4 508/1/4
f 244/1/319 243/1/319 429/1/319
f 154/1/3 152/1/3 118/1/3
f 151/1/320 223/1/320 513/1/320 512/1/320
f 430/1/4 515/1/4 428/1/4
f 428/1/4 429/1/4 430/1/4
f 429/1/4 266/1/4 430/1/4
f 153/1/321 401/1/321 152/1/321
f 221/1/322 222/1/322 107/1/322 465/1/322
f 228/1/323 117/1/323 467/1/323 444/1/323
f 154/1/3 156/1/3 157/1/3
f 12/1/3 13/1/3 16/1/3
f 294/1/324 516/1/324 517/1/324
f 154/1/4 213/1/4 199/1/4
f 303/1/325 432/1/325 296/1/325
f 518/1/4 213/1/4 154/1/4
f 199/1/4 404/1/4 154/1/4
f 204/1/50 195/1/50 199/1/50
f 296/1/326 264/1/326 263/1/326
f 204/1/311 199/1/311 213/1/311
f 116/1/327 220/1/327 466/1/327 441/1/327
f 264/1/4 432/1/4 266/1/4
f 516/1/4 430/1/4 266/1/4
f 517/1/4 516/1/4 266/1/4
f 455/1/4 517/1/4 266/1/4
f 266/1/4 432/1/4 456/1/4
f 266/1/4 262/1/4 264/1/4
f 224/1/328 231/1/328 508/1/328
f 243/1/329 266/1/329 429/1/329
f 518/1/330 207/1/330 213/1/330
f 154/1/2 404/1/2 153/1/2
f 279/1/331 429/1/331 428/1/331
f 297/1/332 294/1/332 517/1/332
f 274/1/333 430/1/333 516/1/333
f 266/1/4 456/1/4 455/1/4
f 384/1/4 383/1/4 519/1/4
f 520/1/4 521/1/4 383/1/4
f 383/1/4 521/1/4 519/1/4
f 508/1/334 231/1/334 509/1/334
f 243/1/335 267/1/335 266/1/335
f 383/1/4 199/1/4 198/1/4
f 383/1/4 198/1/4 520/1/4
f 23/1/6 20/1/6 384/1/6
f 220/1/336 221/1/336 465/1/336 466/1/336
f 229/1/337 228/1/337 444/1/337 443/1/337
f 115/1/338 116/1/338 441/1/338 442/1/338
f 117/1/339 115/1/339 442/1/339 467/1/339
f 222/1/340 151/1/340 512/1/340 107/1/340
f 519/1/4 522/1/4 384/1/4
f 193/1/4 384/1/4 522/1/4
f 445/1/4 443/1/4 522/1/4
f 522/1/4 511/1/4 445/1/4
f 443/1/4 193/1/4 522/1/4
f 423/1/4 474/1/4 487/1/4
f 125/1/341 87/1/341 503/1/341
f 91/1/342 503/1/342 87/1/342
f 85/1/343 462/1/343 173/1/343
f 92/1/344 504/1/344 91/1/344
f 196/1/345 198/1/345 194/1/345
f 126/1/346 134/1/346 60/1/346
f 195/1/33 194/1/33 198/1/33
f 171/1/276 488/1/276 487/1/276
f 183/1/315 174/1/315 469/1/315
f 469/1/347 174/1/347 462/1/347
f 120/1/6 523/1/6 1/1/6
f 524/1/6 120/1/6 1/1/6
f 504/1/6 524/1/6 1/1/6
f 174/1/348 173/1/348 462/1/348
f 209/1/6 1/1/6 121/1/6
f 209/1/6 121/1/6 525/1/6
f 209/1/6 525/1/6 498/1/6
f 86/1/53 81/1/53 172/1/53
f 86/1/263 172/1/263 170/1/263
f 487/1/349 471/1/349 170/1/349
f 478/1/350 483/1/350 164/1/350
f 175/1/351 168/1/351 483/1/351
f 175/1/352 483/1/352 477/1/352
f 526/1/353 175/1/353 477/1/353
f 164/1/354 483/1/354 168/1/354
f 526/1/355 527/1/355 175/1/355
f 180/1/356 527/1/356 156/1/356
f 199/1/4 383/1/4 404/1/4
f 404/1/6 528/1/6 527/1/6
f 477/1/6 483/1/6 481/1/6
f 530/1/6 485/1/6 486/1/6
f 176/1/357 156/1/357 531/1/357
f 156/1/358 527/1/358 528/1/358
f 528/1/359 531/1/359 156/1/359
f 176/1/360 531/1/360 532/1/360
f 176/1/361 532/1/361 177/1/361
f 532/1/362 530/1/362 177/1/362
f 120/1/363 524/1/363 65/1/363
f 178/1/364 486/1/364 169/1/364
f 524/1/365 504/1/365 65/1/365
f 177/1/366 530/1/366 178/1/366
f 530/1/367 486/1/367 178/1/367
f 68/1/368 523/1/368 120/1/368
f 120/1/368 67/1/368 68/1/368
f 523/1/369 68/1/369 121/1/369
f 120/1/370 66/1/370 67/1/370
f 529/1/15 404/1/15 383/1/15
f 498/1/371 525/1/371 94/1/371
f 121/1/372 95/1/372 525/1/372
f 94/1/373 525/1/373 95/1/373
f 212/1/35 211/1/35 500/1/35
f 500/1/39 211/1/39 136/1/39
f 500/1/35 135/1/35 212/1/35
f 383/1/15 20/1/15 529/1/15
f 137/1/374 212/1/374 135/1/374
f 136/1/375 211/1/375 209/1/375
f 135/1/6 494/1/6 468/1/6
f 498/1/6 70/1/6 209/1/6
f 1/1/6 523/1/6 121/1/6
f 492/1/6 473/1/6 468/1/6
f 70/1/6 136/1/6 209/1/6
f 1/1/2 209/1/2 96/1/2
f 96/1/2 2/1/2 1/1/2
f 56/1/376 494/1/376 135/1/376
f 101/1/24 135/1/24 500/1/24
f 497/1/377 495/1/377 53/1/377
f 52/1/264 490/1/264 49/1/264
f 491/1/266 52/1/266 48/1/266
f 53/1/378 495/1/378 47/1/378
f 155/1/4 510/1/4 533/1/4
f 47/1/379 496/1/379 491/1/379
f 491/1/379 48/1/379 47/1/379
f 49/1/380 490/1/380 493/1/380
f 234/1/4 507/1/4 510/1/4
f 492/1/381 50/1/381 493/1/381
f 43/1/382 50/1/382 492/1/382
f 533/1/4 534/1/4 155/1/4
f 234/1/4 505/1/4 507/1/4
f 50/1/383 49/1/383 493/1/383
f 53/1/384 71/1/384 497/1/384
f 535/1/4 536/1/4 154/1/4
f 154/1/4 155/1/4 534/1/4
f 534/1/4 535/1/4 154/1/4
f 536/1/4 518/1/4 154/1/4
f 528/1/385 404/1/385 529/1/385
f 530/1/386 532/1/386 529/1/386
f 485/1/386 530/1/386 529/1/386
f 532/1/387 531/1/387 529/1/387
f 529/1/388 531/1/388 528/1/388
f 196/1/389 197/1/389 521/1/389
f 206/1/170 203/1/170 510/1/170
f 485/1/158 529/1/158 487/1/158
f 487/1/158 529/1/158 423/1/158
f 208/1/390 536/1/390 535/1/390
f 202/1/391 533/1/391 203/1/391
f 22/1/2 423/1/2 529/1/2
f 180/1/392 175/1/392 527/1/392
f 208/1/393 535/1/393 201/1/393
f 179/1/6 482/1/6 481/1/6
f 206/1/394 510/1/394 507/1/394
f 200/1/395 506/1/395 192/1/395
f 201/1/396 534/1/396 202/1/396
f 200/1/397 205/1/397 507/1/397
f 205/1/398 206/1/398 507/1/398
f 197/1/399 191/1/399 519/1/399
f 506/1/400 511/1/400 192/1/400
f 208/1/401 518/1/401 536/1/401
f 207/1/402 518/1/402 208/1/402
f 506/1/403 200/1/403 507/1/403
f 521/1/404 197/1/404 519/1/404
f 520/1/405 196/1/405 521/1/405
f 201/1/326 535/1/326 534/1/326
f 522/1/406 191/1/406 511/1/406
f 191/1/407 192/1/407 511/1/407
f 202/1/408 534/1/408 533/1/408
f 191/1/409 522/1/409 519/1/409
f 203/1/410 533/1/410 510/1/410
f 196/1/411 520/1/411 198/1/411
f 505/1/4 445/1/4 506/1/4
f 527/1/6 526/1/6 404/1/6
f 526/1/6 477/1/6 404/1/6
f 529/1/1 20/1/1 706/1/1
f 715/1/1 716/1/1 157/1/1
f 714/1/1 157/1/1 22/1/1
f 189/1/1 710/1/1 711/1/1
f 539/1/2 540/1/2 541/1/2
f 539/1/2 541/1/2 542/1/2
f 539/1/2 542/1/2 543/1/2
f 544/1/2 545/1/2 546/1/2
f 544/1/2 546/1/2 547/1/2
f 547/1/2 548/1/2 539/1/2
f 549/1/2 540/1/2 539/1/2
f 548/1/2 549/1/2 539/1/2
f 550/1/2 551/1/2 552/1/2
f 537/1/2 553/1/2 554/1/2
f 537/1/2 554/1/2 555/1/2
f 559/1/2 560/1/2 561/1/2
f 563/1/2 564/1/2 565/1/2
f 563/1/2 565/1/2 566/1/2
f 563/1/2 566/1/2 567/1/2
f 568/1/2 569/1/2 567/1/2
f 567/1/2 570/1/2 568/1/2
f 570/1/2 550/1/2 552/1/2
f 552/1/2 568/1/2 570/1/2
f 561/1/2 560/1/2 571/1/2
f 571/1/2 572/1/2 561/1/2
f 573/1/2 574/1/2 561/1/2
f 575/1/2 573/1/2 561/1/2
f 561/1/2 576/1/2 577/1/2
f 563/1/2 561/1/2 577/1/2
f 574/1/2 576/1/2 561/1/2
f 572/1/2 575/1/2 561/1/2
f 567/1/2 569/1/2 563/1/2
f 563/1/2 578/1/2 564/1/2
f 563/1/2 577/1/2 578/1/2
f 544/1/2 579/1/2 580/1/2
f 551/1/2 580/1/2 579/1/2
f 579/1/2 552/1/2 551/1/2
f 581/1/2 537/1/2 539/1/2
f 537/1/2 582/1/2 553/1/2
f 537/1/2 583/1/2 582/1/2
f 537/1/2 581/1/2 583/1/2
f 539/1/2 584/1/2 581/1/2
f 539/1/2 543/1/2 584/1/2
f 585/1/2 586/1/2 544/1/2
f 586/1/2 545/1/2 544/1/2
f 547/1/2 539/1/2 544/1/2
f 580/1/2 585/1/2 544/1/2
f 587/1/412 556/1/412 588/1/412
f 587/1/413 589/1/413 556/1/413
f 590/1/4 591/1/4 592/1/4
f 645/1/15 595/1/15 591/1/15
f 590/1/4 592/1/4 594/1/4
f 539/1/6 593/1/6 594/1/6
f 537/1/414 593/1/414 539/1/414
f 596/1/4 561/1/4 563/1/4
f 563/1/4 597/1/4 596/1/4
f 595/1/6 596/1/6 592/1/6
f 594/1/6 593/1/6 590/1/6
f 592/1/6 591/1/6 595/1/6
f 550/1/415 598/1/415 599/1/415
f 550/1/416 599/1/416 600/1/416
f 601/1/417 575/1/417 602/1/417
f 575/1/418 601/1/418 603/1/418
f 604/1/419 576/1/419 605/1/419
f 606/1/420 584/1/420 607/1/420
f 606/1/421 608/1/421 584/1/421
f 609/1/422 582/1/422 610/1/422
f 609/1/423 611/1/423 582/1/423
f 612/1/424 538/1/424 613/1/424
f 614/1/425 615/1/425 562/1/425
f 577/1/426 604/1/426 616/1/426
f 577/1/427 616/1/427 617/1/427
f 604/1/426 577/1/426 576/1/426
f 612/1/6 614/1/6 562/1/6
f 562/1/6 538/1/6 612/1/6
f 569/1/428 618/1/428 619/1/428
f 563/1/429 569/1/429 619/1/429
f 619/1/429 597/1/429 563/1/429
f 568/1/430 620/1/430 618/1/430
f 618/1/430 569/1/430 568/1/430
f 552/1/431 621/1/431 568/1/431
f 568/1/432 621/1/432 620/1/432
f 598/1/15 618/1/15 620/1/15
f 622/1/15 623/1/15 600/1/15
f 600/1/15 599/1/15 622/1/15
f 599/1/15 621/1/15 624/1/15
f 624/1/15 622/1/15 599/1/15
f 599/1/15 620/1/15 621/1/15
f 624/1/431 621/1/431 552/1/431
f 623/1/433 622/1/433 579/1/433
f 552/1/434 579/1/434 622/1/434
f 622/1/434 624/1/434 552/1/434
f 625/1/435 623/1/435 579/1/435
f 626/1/436 625/1/436 544/1/436
f 544/1/436 625/1/436 579/1/436
f 627/1/15 626/1/15 594/1/15
f 594/1/15 628/1/15 629/1/15
f 594/1/15 630/1/15 631/1/15
f 594/1/15 607/1/15 632/1/15
f 594/1/15 632/1/15 633/1/15
f 626/1/15 634/1/15 635/1/15
f 592/1/15 636/1/15 611/1/15
f 612/1/15 613/1/15 592/1/15
f 588/1/15 592/1/15 587/1/15
f 592/1/15 589/1/15 587/1/15
f 637/1/15 638/1/15 597/1/15
f 620/1/15 599/1/15 598/1/15
f 639/1/15 600/1/15 623/1/15
f 596/1/15 601/1/15 602/1/15
f 596/1/15 603/1/15 601/1/15
f 596/1/15 605/1/15 603/1/15
f 596/1/15 597/1/15 616/1/15
f 616/1/15 604/1/15 596/1/15
f 602/1/15 640/1/15 596/1/15
f 596/1/15 615/1/15 614/1/15
f 641/1/15 615/1/15 596/1/15
f 596/1/15 640/1/15 641/1/15
f 596/1/15 614/1/15 612/1/15
f 613/1/15 589/1/15 592/1/15
f 604/1/15 605/1/15 596/1/15
f 612/1/15 592/1/15 596/1/15
f 642/1/15 643/1/15 597/1/15
f 638/1/15 642/1/15 597/1/15
f 597/1/15 619/1/15 637/1/15
f 618/1/15 598/1/15 637/1/15
f 643/1/15 617/1/15 597/1/15
f 617/1/15 616/1/15 597/1/15
f 637/1/15 619/1/15 618/1/15
f 623/1/15 625/1/15 639/1/15
f 626/1/15 635/1/15 639/1/15
f 626/1/15 627/1/15 634/1/15
f 594/1/15 644/1/15 627/1/15
f 594/1/15 629/1/15 644/1/15
f 594/1/15 631/1/15 628/1/15
f 594/1/15 633/1/15 630/1/15
f 639/1/15 625/1/15 626/1/15
f 592/1/15 609/1/15 610/1/15
f 592/1/15 588/1/15 636/1/15
f 611/1/15 609/1/15 592/1/15
f 592/1/15 610/1/15 608/1/15
f 594/1/15 606/1/15 607/1/15
f 592/1/15 608/1/15 606/1/15
f 606/1/15 594/1/15 592/1/15
f 544/1/6 539/1/6 594/1/6
f 594/1/6 626/1/6 544/1/6
f 541/1/437 540/1/437 630/1/437
f 630/1/437 633/1/437 541/1/437
f 541/1/438 633/1/438 632/1/438
f 632/1/438 542/1/438 541/1/438
f 543/1/439 542/1/439 632/1/439
f 632/1/439 607/1/439 543/1/439
f 607/1/420 584/1/420 543/1/420
f 608/1/421 581/1/421 584/1/421
f 608/1/440 583/1/440 581/1/440
f 586/1/441 634/1/441 627/1/441
f 627/1/441 545/1/441 586/1/441
f 627/1/442 644/1/442 546/1/442
f 546/1/442 545/1/442 627/1/442
f 629/1/443 547/1/443 546/1/443
f 546/1/443 644/1/443 629/1/443
f 629/1/444 628/1/444 548/1/444
f 548/1/444 547/1/444 629/1/444
f 631/1/445 549/1/445 548/1/445
f 548/1/446 628/1/446 631/1/446
f 549/1/447 631/1/447 630/1/447
f 630/1/448 540/1/448 549/1/448
f 635/1/449 585/1/449 580/1/449
f 580/1/449 639/1/449 635/1/449
f 585/1/450 635/1/450 586/1/450
f 586/1/450 635/1/450 634/1/450
f 610/1/440 583/1/440 608/1/440
f 583/1/422 610/1/422 582/1/422
f 611/1/423 553/1/423 582/1/423
f 554/1/451 553/1/451 611/1/451
f 611/1/451 636/1/451 554/1/451
f 554/1/452 636/1/452 588/1/452
f 588/1/452 555/1/452 554/1/452
f 555/1/412 588/1/412 556/1/412
f 589/1/413 557/1/413 556/1/413
f 18/1/453 14/1/453 561/1/453
f 557/1/454 589/1/454 613/1/454
f 613/1/454 558/1/454 557/1/454
f 613/1/424 538/1/424 558/1/424
f 615/1/425 559/1/425 562/1/425
f 559/1/455 615/1/455 641/1/455
f 641/1/455 560/1/455 559/1/455
f 640/1/456 571/1/456 560/1/456
f 577/1/427 617/1/427 578/1/427
f 643/1/457 564/1/457 578/1/457
f 578/1/457 617/1/457 643/1/457
f 643/1/458 642/1/458 565/1/458
f 565/1/458 564/1/458 643/1/458
f 638/1/459 566/1/459 565/1/459
f 565/1/459 642/1/459 638/1/459
f 638/1/460 637/1/460 567/1/460
f 567/1/460 566/1/460 638/1/460
f 598/1/461 570/1/461 567/1/461
f 567/1/461 637/1/461 598/1/461
f 570/1/415 598/1/415 550/1/415
f 551/1/416 550/1/416 600/1/416
f 600/1/462 639/1/462 580/1/462
f 600/1/462 580/1/462 551/1/462
f 560/1/456 641/1/456 640/1/456
f 602/1/463 572/1/463 640/1/463
f 640/1/464 572/1/464 571/1/464
f 572/1/465 602/1/465 575/1/465
f 573/1/418 575/1/418 603/1/418
f 605/1/466 574/1/466 573/1/466
f 573/1/466 603/1/466 605/1/466
f 574/1/419 605/1/419 576/1/419
f 561/1/4 596/1/4 645/1/4
f 645/1/4 596/1/4 595/1/4
f 18/1/467 561/1/467 645/1/467
f 593/1/53 138/1/53 590/1/53
f 138/1/468 593/1/468 537/1/468
f 138/1/69 591/1/69 590/1/69
f 138/1/469 537/1/469 137/1/469
f 411/1/6 406/1/6 418/1/6
f 14/1/386 434/1/386 218/1/386
f 406/1/6 409/1/6 403/1/6
f 406/1/6 403/1/6 418/1/6
f 404/1/6 477/1/6 381/1/6
f 382/1/470 404/1/470 381/1/470
f 54/1/471 219/1/471 381/1/471
f 403/1/6 402/1/6 434/1/6
f 218/1/471 219/1/471 54/1/471
f 402/1/6 218/1/6 434/1/6
f 54/1/472 14/1/472 218/1/472
f 219/1/473 382/1/473 381/1/473
f 418/1/6 403/1/6 434/1/6
f 17/1/3 19/1/3 118/1/3
f 382/1/474 401/1/474 404/1/474
f 15/1/3 12/1/3 16/1/3
f 11/1/3 13/1/3 12/1/3
f 16/1/3 19/1/3 17/1/3
f 646/1/475 669/1/475 684/1/475 661/1/475
f 649/1/476 672/1/476 671/1/476 648/1/476
f 667/1/477 666/1/477 689/1/477 690/1/477
f 663/1/478 662/1/478 685/1/478 686/1/478
f 650/1/479 673/1/479 672/1/479 649/1/479
f 668/1/480 667/1/480 690/1/480 691/1/480
f 664/1/481 663/1/481 686/1/481 687/1/481
f 651/1/482 674/1/482 673/1/482 650/1/482
f 662/1/483 668/1/483 691/1/483 685/1/483
f 665/1/484 664/1/484 687/1/484 688/1/484
f 652/1/477 675/1/477 674/1/477 651/1/477
f 315/1/485 665/1/485 688/1/485 317/1/485
f 653/1/480 676/1/480 675/1/480 652/1/480
f 654/1/483 677/1/483 676/1/483 653/1/483
f 655/1/478 678/1/478 677/1/478 654/1/478
f 656/1/481 679/1/481 678/1/481 655/1/481
f 657/1/484 680/1/484 679/1/484 656/1/484
f 658/1/485 681/1/485 680/1/485 657/1/485
f 659/1/486 682/1/486 681/1/486 658/1/486
f 660/1/487 683/1/487 682/1/487 659/1/487
f 647/1/488 670/1/488 669/1/488 646/1/488
f 661/1/489 684/1/489 683/1/489 660/1/489
f 648/1/490 671/1/490 670/1/490 647/1/490
f 666/1/482 299/1/482 298/1/482 689/1/482
f 678/1/4 298/1/4 362/1/4
f 317/1/4 675/1/4 676/1/4
f 679/1/4 298/1/4 678/1/4
f 317/1/4 674/1/4 675/1/4
f 680/1/4 298/1/4 679/1/4
f 317/1/4 673/1/4 674/1/4
f 681/1/4 298/1/4 680/1/4
f 673/1/4 317/1/4 672/1/4
f 687/1/4 672/1/4 688/1/4
f 298/1/4 681/1/4 689/1/4
f 671/1/4 672/1/4 687/1/4
f 689/1/4 682/1/4 690/1/4
f 670/1/4 671/1/4 687/1/4
f 689/1/4 681/1/4 682/1/4
f 684/1/4 691/1/4 690/1/4
f 358/1/4 677/1/4 362/1/4
f 669/1/4 685/1/4 691/1/4
f 676/1/4 358/1/4 317/1/4
f 669/1/4 691/1/4 684/1/4
f 687/1/4 686/1/4 670/1/4
f 690/1/4 682/1/4 683/1/4
f 686/1/4 685/1/4 669/1/4
f 670/1/4 686/1/4 669/1/4
f 726/1/491 708/1/491 709/1/491
f 731/1/492 716/1/492 733/1/492
f 702/1/493 725/1/493 724/1/493
f 724/1/494 703/1/494 702/1/494
f 740/1/495 693/1/495 692/1/495
f 740/1/496 692/1/496 694/1/496
f 694/1/497 695/1/497 741/1/497
f 739/1/498 738/1/498 697/1/498
f 738/1/499 696/1/499 697/1/499
f 704/1/500 728/1/500 701/1/500
f 706/1/501 742/1/501 743/1/501
f 707/1/502 706/1/502 743/1/502
f 708/1/503 726/1/503 737/1/503
f 728/1/504 704/1/504 723/1/504
f 718/1/505 744/1/505 745/1/505
f 723/1/506 704/1/506 703/1/506
f 723/1/507 703/1/507 724/1/507
f 746/1/508 705/1/508 693/1/508
f 705/1/509 746/1/509 742/1/509
f 721/1/510 716/1/510 731/1/510
f 729/1/511 741/1/511 699/1/511
f 733/1/512 716/1/512 715/1/512
f 734/1/513 733/1/513 715/1/513
f 734/1/514 715/1/514 714/1/514
f 717/1/515 711/1/515 727/1/515
f 717/1/516 727/1/516 726/1/516
f 720/1/517 721/1/517 736/1/517
f 722/1/518 747/1/518 712/1/518
f 748/1/519 727/1/519 711/1/519
f 732/1/520 736/1/520 721/1/520
f 721/1/521 731/1/521 732/1/521
f 717/1/522 726/1/522 709/1/522
f 737/1/523 734/1/523 714/1/523
f 714/1/524 713/1/524 737/1/524
f 708/1/525 737/1/525 713/1/525
f 722/1/526 718/1/526 745/1/526
f 747/1/527 722/1/527 745/1/527
f 739/1/528 697/1/528 701/1/528
f 701/1/529 728/1/529 739/1/529
f 725/1/530 702/1/530 743/1/530
f 729/1/531 699/1/531 698/1/531
f 730/1/532 729/1/532 698/1/532
f 735/1/533 730/1/533 698/1/533
f 693/1/508 749/1/508 746/1/508
f 698/1/534 700/1/534 735/1/534
f 749/1/495 693/1/495 740/1/495
f 750/1/496 740/1/496 694/1/496
f 694/1/497 741/1/497 750/1/497
f 743/1/535 702/1/535 707/1/535
f 695/1/511 699/1/511 741/1/511
f 738/1/536 700/1/536 696/1/536
f 735/1/537 700/1/537 738/1/537
f 742/1/538 706/1/538 705/1/538
f 718/1/539 719/1/539 744/1/539
f 710/1/540 712/1/540 748/1/540
f 748/1/541 711/1/541 710/1/541
f 748/1/542 712/1/542 747/1/542
f 744/1/543 719/1/543 720/1/543
f 720/1/544 736/1/544 744/1/544
f 703/1/1 22/1/1 702/1/1
f 713/1/1 22/1/1 708/1/1
f 338/1/1 157/1/1 721/1/1
f 189/1/1 700/1/1 698/1/1
f 338/1/1 721/1/1 720/1/1
f 709/1/1 708/1/1 189/1/1
f 338/1/1 720/1/1 719/1/1
f 189/1/1 711/1/1 717/1/1
f 338/1/1 719/1/1 718/1/1
f 717/1/1 709/1/1 189/1/1
f 338/1/1 718/1/1 722/1/1
f 713/1/1 714/1/1 22/1/1
f 338/1/1 722/1/1 189/1/1
f 189/1/1 696/1/1 700/1/1
f 697/1/1 696/1/1 189/1/1
f 697/1/1 189/1/1 701/1/1
f 189/1/1 22/1/1 701/1/1
f 712/1/1 710/1/1 189/1/1
f 704/1/1 22/1/1 703/1/1
f 22/1/1 704/1/1 701/1/1
f 189/1/1 708/1/1 22/1/1
f 157/1/1 716/1/1 721/1/1
f 702/1/1 529/1/1 707/1/1
f 22/1/1 529/1/1 702/1/1
f 707/1/1 529/1/1 706/1/1
f 23/1/1 189/1/1 698/1/1
f 705/1/1 706/1/1 20/1/1
f 23/1/1 698/1/1 699/1/1
f 693/1/1 705/1/1 20/1/1
f 23/1/1 699/1/1 695/1/1
f 692/1/1 693/1/1 20/1/1
f 23/1/1 695/1/1 694/1/1
f 694/1/1 692/1/1 20/1/1
f 23/1/1 694/1/1 20/1/1
f 189/1/1 722/1/1 712/1/1
f 730/1/1 735/1/1 751/1/1
f 749/1/1 740/1/1 751/1/1
f 750/1/1 741/1/1 751/1/1
f 739/1/1 728/1/1 751/1/1
f 724/1/1 725/1/1 751/1/1
f 725/1/1 743/1/1 751/1/1
f 740/1/1 750/1/1 751/1/1
f 735/1/1 738/1/1 751/1/1
f 723/1/1 724/1/1 751/1/1
f 729/1/1 730/1/1 751/1/1
f 728/1/1 723/1/1 751/1/1
f 743/1/1 742/1/1 751/1/1
f 746/1/1 749/1/1 751/1/1
f 738/1/1 739/1/1 751/1/1
f 741/1/1 729/1/1 751/1/1
f 742/1/1 746/1/1 751/1/1
f 748/1/1 747/1/1 752/1/1
f 731/1/1 733/1/1 752/1/1
f 747/1/1 745/1/1 752/1/1
f 736/1/1 732/1/1 752/1/1
f 744/1/1 736/1/1 752/1/1
f 726/1/1 727/1/1 752/1/1
f 727/1/1 748/1/1 752/1/1
f 733/1/1 734/1/1 752/1/1
f 734/1/1 737/1/1 752/1/1
f 732/1/1 731/1/1 752/1/1
f 745/1/1 744/1/1 752/1/1
f 737/1/1 726/1/1 752/1/1
f 755/1/4 756/1/4 754/1/4 753/1/4
f 362/1/545 756/1/545 755/1/545 358/1/545
f 757/1/546 396/1/546 753/1/546
f 11/1/547 757/1/547 753/1/547 754/1/547
f 757/1/3 11/1/3 12/1/3
