# Blender 5.0.1
# www.blender.org
mtllib i02_head_eyeAssembly_origin_visual_2.mtl
o i02.head.eyeHolderJXedit.left_visual.001
v 0.023729 -0.035092 0.122031
v -0.000726 -0.074214 0.121968
v 0.023729 -0.106581 0.122031
v -0.000596 -0.035092 0.122031
v -0.023729 -0.190164 0.122031
v 0.007361 -0.236563 0.122031
v -0.000775 -0.244712 0.095918
v -0.000775 -0.243967 0.094258
v 0.007361 -0.243438 0.093523
v -0.023729 -0.236563 0.122031
v -0.023729 -0.247663 0.077670
v -0.023729 -0.250568 0.079556
v 0.007361 -0.247663 0.077670
v 0.023729 0.236328 -0.106160
v 0.023729 0.238695 -0.104953
v 0.023729 0.260093 -0.122003
v 0.023729 0.242194 -0.098068
v 0.023729 0.260122 -0.074860
v 0.023729 0.241779 -0.095437
v 0.023729 0.241779 -0.100699
v 0.023729 0.238695 -0.091193
v 0.023729 0.240571 -0.093061
v 0.023729 0.236328 -0.089977
v 0.007361 -0.259103 0.091618
v 0.007361 -0.256142 0.085375
v -0.000775 -0.257641 0.088062
v 0.023729 0.240571 -0.103067
v 0.023729 0.260122 -0.122003
v 0.023729 0.228726 -0.104953
v 0.023729 0.231084 -0.106160
v 0.023729 0.140369 -0.122012
v 0.023729 0.225642 -0.095437
v 0.023729 0.204744 -0.074869
v 0.023729 0.226850 -0.093061
v 0.023729 0.225227 -0.098068
v 0.023729 0.225642 -0.100699
v 0.023729 0.156844 -0.100699
v 0.023729 0.228726 -0.091193
v 0.023729 0.233706 -0.106575
v 0.023729 0.155647 -0.103067
v 0.023729 0.226850 -0.103067
v 0.023729 0.231084 -0.089977
v 0.023729 0.233706 -0.089562
v 0.023729 0.153770 -0.104953
v 0.023729 0.157259 -0.098068
v 0.023729 0.153770 -0.091193
v 0.023729 0.155647 -0.093061
v 0.023729 0.156844 -0.095437
v 0.023729 0.143792 -0.104953
v 0.023729 0.146159 -0.106160
v 0.023729 0.140708 -0.100699
v 0.023729 0.141915 -0.103067
v 0.023729 0.072174 -0.100699
v 0.023729 0.148781 -0.106575
v 0.023729 0.151412 -0.106160
v 0.007361 -0.259839 0.095003
v -0.023729 -0.258820 0.090920
v -0.023729 -0.259688 0.094023
v -0.019651 -0.257358 0.087431
v 0.007361 -0.237837 0.106867
v 0.007361 -0.240024 0.106226
v 0.007361 -0.243410 0.121022
v 0.007361 -0.240015 0.121748
v 0.023729 0.141915 -0.093061
v 0.023729 0.077474 -0.074879
v 0.023729 0.143792 -0.091193
v 0.023729 0.146159 -0.089977
v 0.023729 0.148781 -0.089562
v 0.023729 0.070977 -0.093061
v 0.023729 0.140708 -0.095437
v 0.023729 0.140293 -0.098068
v 0.023729 0.072599 -0.098068
v 0.023729 0.151412 -0.089977
v 0.023729 0.061489 -0.106160
v 0.023729 0.064111 -0.106575
v 0.023729 0.039298 -0.122031
v 0.023729 0.066723 -0.106160
v 0.023729 0.069090 -0.104953
v 0.023729 0.070977 -0.103067
v 0.023729 0.072174 -0.095437
v 0.023729 0.061489 -0.089977
v 0.023729 0.064111 -0.089562
v 0.023729 0.059122 -0.091193
v 0.023729 -0.073268 0.074888
v 0.023729 0.069090 -0.091193
v 0.023729 0.066723 -0.089977
v 0.023729 0.056038 -0.095437
v 0.023729 0.057245 -0.093061
v 0.023729 0.059122 -0.104953
v 0.023729 0.057245 -0.103067
v 0.023729 0.056038 -0.100699
v 0.023729 0.055623 -0.098068
v 0.007361 -0.236563 0.074888
v 0.007361 -0.232225 0.091184
v 0.007361 -0.243410 0.075907
v 0.007361 -0.237214 0.090015
v 0.007361 -0.234328 0.106641
v 0.007361 -0.236177 0.106952
v 0.007361 -0.229311 0.102831
v 0.007361 -0.230292 0.104170
v 0.007361 -0.232225 0.105754
v 0.007361 -0.228255 0.100124
v 0.007361 -0.228453 0.095994
v 0.007361 -0.228113 0.098879
v 0.007361 -0.229311 0.094089
v 0.007361 -0.230886 0.092165
v 0.007361 -0.239647 0.090562
v 0.007361 -0.233734 0.090467
v 0.007361 -0.250568 0.079556
v 0.007361 -0.253992 0.082649
v 0.007361 -0.241656 0.091637
v 0.007361 -0.260122 0.098455
v 0.007361 -0.259839 0.101907
v 0.007361 -0.245108 0.098464
v 0.007361 -0.244740 0.095994
v 0.007361 -0.244872 0.100322
v -0.000775 -0.232187 0.105726
v 0.007361 -0.258716 0.106395
v 0.007361 -0.242891 0.104170
v 0.007361 -0.251502 0.116684
v 0.007361 -0.241656 0.105292
v 0.007361 -0.244278 0.102095
v 0.007361 -0.256736 0.110554
v 0.007361 -0.248654 0.118655
v -0.000775 -0.240034 0.106216
v -0.000775 -0.240062 0.106216
v 0.007361 -0.253992 0.114270
v -0.000596 0.260122 -0.074860
v -0.000596 0.260122 -0.122003
v -0.023729 -0.255604 0.084667
v -0.023729 -0.257377 0.087478
v -0.023729 -0.237752 0.074954
v -0.023729 -0.237601 0.090052
v -0.023729 -0.238997 0.075029
v -0.019651 -0.253265 0.081857
v -0.023729 -0.236563 0.074888
v -0.023729 -0.190154 0.074888
v -0.023729 -0.233734 0.090467
v -0.023729 -0.240685 0.075341
v -0.023729 -0.235083 0.090175
v -0.023729 -0.231622 0.091674
v -0.023729 -0.230726 0.092429
v -0.023729 -0.253303 0.081895
v -0.023729 -0.228943 0.094862
v -0.023729 -0.228245 0.099615
v -0.023729 -0.228170 0.098153
v -0.023729 -0.229311 0.102831
v -0.023729 -0.230292 0.104170
v -0.023729 -0.228566 0.101246
v -0.023729 -0.228198 0.097210
v -0.023729 -0.231518 0.105264
v -0.023729 -0.244165 0.076227
v -0.023729 -0.239478 0.090477
v -0.023729 -0.241015 0.091222
v -0.023729 -0.244598 0.095616
v -0.023729 -0.242750 0.092627
v -0.023729 -0.243891 0.094107
v -0.023729 -0.245560 0.076689
v -0.023729 -0.245079 0.098842
v -0.023729 -0.234517 0.106697
v -0.023729 -0.232895 0.106113
v -0.023729 -0.238035 0.106820
v -0.023729 -0.235762 0.106886
v -0.023729 -0.240204 0.106150
v -0.023729 -0.240015 0.121748
v -0.023729 -0.243410 0.121022
v -0.023729 -0.248569 0.118693
v -0.023729 -0.250993 0.116986
v -0.023729 -0.241656 0.105292
v -0.023729 -0.252322 0.115949
v -0.023729 -0.242891 0.104170
v -0.023729 -0.244834 0.100511
v -0.023729 -0.244174 0.102265
v -0.023729 -0.258283 0.107527
v -0.023729 -0.256208 0.111441
v -0.000775 -0.242891 0.104170
v -0.000775 -0.244259 0.102123
v -0.000775 -0.244259 0.102133
v -0.023729 -0.260112 0.098342
v -0.023729 -0.259631 0.103142
v -0.023729 -0.259688 0.102878
v -0.023729 -0.254680 0.113506
v -0.000596 0.242194 -0.098068
v -0.000596 0.260093 -0.122003
v -0.000596 0.260093 -0.122012
v -0.019651 -0.230264 0.092825
v -0.019651 -0.229094 0.094636
v -0.000596 0.233706 -0.106575
v -0.000596 0.236328 -0.106160
v -0.019651 -0.228943 0.094881
v -0.000596 0.241779 -0.100699
v -0.000596 0.240571 -0.103067
v -0.000596 0.238695 -0.104953
v -0.000596 0.241779 -0.095437
v -0.000596 0.238695 -0.091193
v -0.000596 0.240571 -0.093061
v -0.000596 0.233706 -0.089562
v -0.000596 0.236328 -0.089977
v -0.000775 -0.228293 0.100218
v -0.019651 -0.228198 0.097210
v -0.019651 -0.228340 0.100143
v -0.019651 -0.228566 0.101199
v -0.019651 -0.228404 0.096569
v -0.000596 0.228726 -0.104953
v -0.000596 0.154289 -0.122012
v -0.000596 0.231084 -0.106160
v -0.000596 0.225227 -0.098068
v -0.000596 0.156844 -0.100699
v -0.000596 0.225642 -0.100699
v -0.000596 0.226850 -0.103067
v -0.000775 -0.229311 0.102831
v -0.000596 0.231084 -0.089977
v -0.000596 0.204744 -0.074869
v -0.000596 0.228726 -0.091193
v -0.000596 0.226850 -0.093061
v -0.000596 0.225642 -0.095437
v -0.000596 0.157259 -0.098068
v -0.000775 -0.228321 0.100350
v -0.000596 0.155647 -0.103067
v -0.000596 0.156844 -0.095437
v -0.000596 0.155647 -0.093061
v -0.000596 0.153770 -0.104953
v -0.000596 0.153770 -0.091193
v -0.000596 0.039298 -0.122031
v -0.000775 -0.241656 0.105292
v -0.000596 0.072174 -0.095437
v -0.000596 0.072599 -0.098068
v -0.000596 0.140708 -0.095437
v -0.000596 0.070977 -0.093061
v -0.000596 0.151412 -0.106160
v -0.000596 0.148781 -0.106575
v -0.000596 0.146159 -0.106160
v -0.000596 0.143792 -0.104953
v -0.000596 0.141915 -0.093061
v -0.000596 0.077474 -0.074879
v -0.000596 0.148781 -0.089562
v -0.000596 0.146159 -0.089977
v -0.000596 0.143792 -0.091193
v -0.000596 0.151412 -0.089977
v -0.000596 0.140293 -0.098068
v -0.019651 -0.247550 0.119287
v -0.000596 0.140708 -0.100699
v -0.000596 0.141915 -0.103067
v -0.019651 -0.228953 0.094843
v -0.009273 -0.241449 0.091505
v -0.019651 -0.233734 0.090467
v -0.019651 -0.245089 0.098804
v -0.019651 -0.245079 0.098860
v -0.019651 -0.232055 0.091307
v -0.019651 -0.259678 0.102982
v -0.019651 -0.244598 0.095626
v -0.009483 -0.242778 0.092655
v -0.019651 -0.249578 0.118099
v -0.000596 0.072174 -0.100699
v -0.000596 0.070977 -0.103067
v -0.000596 0.069090 -0.091193
v -0.000596 0.066723 -0.106160
v -0.000775 -0.233734 0.090467
v -0.000775 -0.237148 0.090024
v -0.000775 -0.237252 0.090024
v -0.000775 -0.239647 0.090562
v -0.000775 -0.241581 0.091599
v -0.000596 0.064111 -0.106575
v -0.000596 0.061489 -0.106160
v -0.000596 0.059122 -0.104953
v -0.000596 0.069090 -0.104953
v -0.000775 -0.234036 0.090392
v -0.000775 -0.236865 0.090024
v -0.000596 0.061489 -0.089977
v -0.000689 -0.073928 0.074888
v -0.000596 0.059122 -0.091193
v -0.000775 -0.237290 0.090024
v -0.000775 -0.239610 0.090543
v -0.000596 0.064111 -0.089562
v -0.000596 0.066723 -0.089977
v -0.000596 0.057245 -0.103067
v -0.000596 0.056038 -0.100699
v -0.000596 0.056038 -0.095437
v -0.000596 0.057245 -0.093061
v -0.000596 0.055623 -0.098068
v -0.000775 -0.241524 0.091552
v -0.000775 -0.242863 0.092731
v 0.023729 -0.106581 0.074888
v 0.007361 -0.188486 0.122031
v -0.000596 -0.071920 0.094768
v -0.001910 -0.080247 0.095117
v -0.019651 -0.243023 0.075859
v -0.000775 -0.243410 0.075907
v -0.019651 -0.228943 0.094890
v 0.007361 -0.188486 0.074888
vn -0.0078 -0.0000 1.0000
vn -0.0000 -0.0016 1.0000
vn 0.0006 0.0004 1.0000
vn -0.0222 0.9121 0.4094
vn -0.0000 -0.0000 1.0000
vn -0.0000 -0.5446 -0.8387
vn 1.0000 -0.0000 -0.0000
vn 0.0249 -0.9032 -0.4284
vn 0.0038 -0.9630 -0.2693
vn -0.0012 -0.9259 -0.3779
vn -0.0026 -0.0000 1.0000
vn 0.9806 -0.1960 -0.0000
vn -0.0002 -0.6338 -0.7735
vn 0.0012 -0.0000 -1.0000
vn 0.0008 0.2813 -0.9596
vn -0.0000 1.0000 -0.0000
vn -0.0023 -0.8457 -0.5336
vn -1.0000 -0.0000 -0.0000
vn -0.0029 -0.7851 -0.6194
vn 0.0051 -0.6445 -0.7645
vn 0.0012 -0.7695 -0.6386
vn 0.0055 -0.8405 -0.5418
vn -0.0002 -0.9234 -0.3837
vn 0.0003 -0.9222 -0.3866
vn -0.0037 -0.8684 -0.4958
vn 0.0012 -0.7695 -0.6387
vn -0.0054 -0.3391 -0.9407
vn 0.0006 0.2950 -0.9555
vn 0.0014 -0.3884 -0.9215
vn -0.0003 0.8314 -0.5556
vn -0.0006 0.8315 -0.5556
vn -0.0000 0.8303 -0.5574
vn 0.0023 1.0000 -0.0000
vn -0.0000 -0.0000 -1.0000
vn 0.0424 -0.8393 0.5420
vn 0.0030 -0.8067 0.5910
vn -0.0024 -0.8516 0.5241
vn -0.0000 -0.7089 0.7054
vn -0.0000 -0.9878 0.1558
vn -0.0000 -0.4543 0.8909
vn 0.0083 -0.9965 -0.0831
vn -0.0000 -0.7053 -0.7089
vn -0.0000 -0.4571 -0.8894
vn -0.0000 -0.1563 -0.9877
vn -0.0000 -0.8908 0.4543
vn -0.0000 -0.7089 0.7053
vn -0.0000 -0.1563 0.9877
vn -0.0000 -0.9878 -0.1558
vn 0.0023 -0.9812 -0.1929
vn -0.0024 -0.9778 -0.2095
vn -0.0049 -0.9049 -0.4255
vn -0.0164 -0.9985 -0.0515
vn -0.0000 -0.8916 -0.4529
vn 0.0048 -0.9521 0.3058
vn -0.0003 -0.9526 0.3042
vn -0.0000 -0.9521 0.3058
vn -0.0000 0.4557 0.8901
vn -0.0000 -0.9995 0.0300
vn -0.0181 -0.9987 -0.0482
vn -0.0000 0.7089 0.7054
vn -0.0000 0.8908 0.4543
vn -0.0000 0.1563 0.9877
vn -0.0000 -0.6658 -0.7462
vn -0.0000 -0.8067 -0.5909
vn -0.0000 -0.8068 -0.5909
vn -0.0000 -0.9287 -0.3708
vn -0.0000 0.7053 -0.7089
vn -0.0000 0.8916 -0.4529
vn -0.0026 -0.6277 -0.7785
vn -0.0000 0.9878 -0.1558
vn 0.0018 -0.5247 -0.8513
vn -0.0000 -0.9317 -0.3633
vn -0.0000 0.4585 -0.8887
vn -0.0000 0.9878 0.1558
vn -0.0000 0.7089 0.7053
vn -0.0026 -0.9316 -0.3636
vn -0.0000 0.1563 -0.9877
vn -0.0096 -0.9004 -0.4350
vn 0.0021 -0.9778 -0.2096
vn 0.0097 -0.9957 -0.0918
vn -0.0000 -0.8923 0.4515
vn 0.0033 -0.9936 -0.1129
vn -0.0000 -0.8930 -0.4501
vn -0.0000 -0.0002 1.0000
vn 0.0011 0.9482 -0.3177
vn 0.0001 0.0002 -1.0000
vn -0.0000 0.0001 -1.0000
vn 0.0004 -0.0000 -1.0000
vn -0.0000 0.6724 -0.7402
vn -0.0013 0.4967 -0.8679
vn -0.0000 0.5016 -0.8651
vn 0.0021 0.9891 0.1472
vn -0.0000 -0.1558 0.9878
vn -0.0000 -0.4557 0.8901
vn 0.0033 -0.8044 0.5941
vn 0.0031 -0.9029 0.4299
vn -0.0000 0.4571 -0.8894
vn 0.0045 -0.4114 0.9114
vn -0.0000 -0.4585 -0.8887
vn -0.0017 -0.8835 0.4684
vn -0.0041 -0.9931 0.1169
vn -0.0006 -0.9117 0.4108
vn 0.0025 0.0290 -0.9996
vn -0.0012 0.4950 -0.8689
vn -0.0004 0.2852 -0.9585
vn 0.0012 0.0511 -0.9987
vn -0.0001 -0.1660 -0.9861
vn 0.0007 -0.3907 -0.9205
vn -0.0009 -0.1498 -0.9887
vn -0.0000 0.5087 -0.8609
vn -0.0000 0.8295 -0.5585
vn -0.0045 0.4361 0.8999
vn -0.0000 -0.4961 0.8683
vn 0.0008 0.9863 -0.1652
vn 0.0013 0.9359 -0.3522
vn 0.0331 -0.4470 0.8939
vn -0.0008 0.9455 -0.3255
vn -0.0008 0.9920 -0.1259
vn 0.0003 0.9893 -0.1462
vn 0.0007 0.9894 -0.1453
vn -0.0027 -0.9566 0.2913
vn 0.0039 -0.9701 0.2425
vn -0.0000 -0.2119 0.9773
vn 0.0005 -0.9558 0.2939
vn -0.0031 -0.9778 0.2097
vn -0.0017 -0.9952 -0.0978
vn -1.0000 0.0001 -0.0000
vn -0.0027 -0.9967 0.0817
vn -0.0002 -0.9953 0.0966
vn -0.0004 0.9883 0.1525
vn 0.0032 -0.8039 0.5947
vn 0.0037 0.9891 0.1475
vn 0.0004 0.7921 0.6105
vn -0.0003 0.6293 0.7772
vn -0.0006 -0.9957 0.0931
vn 0.0048 0.6538 0.7566
vn -0.0000 -0.9967 -0.0817
vn -0.0010 0.9055 0.4244
vn -0.0010 -0.6499 -0.7600
vn -0.0000 -0.2091 0.9779
vn -0.0000 -0.2092 0.9779
vn -0.0000 -0.0817 0.9967
vn -0.0234 -0.5757 0.8174
vn -0.0000 0.4543 0.8909
vn -0.0000 -0.3865 0.9223
vn -0.0300 -0.4113 0.9110
vn -0.0005 -0.5056 0.8628
vn 0.0006 -0.5056 0.8628
vn -0.0018 -0.6151 0.7885
vn 0.0051 -0.6214 0.7835
vn -0.0000 -0.1558 -0.9878
vn -0.0044 -0.5691 0.8223
vn -0.0011 -0.7195 0.6945
vn 0.0014 -0.6961 0.7179
vn -0.0000 -0.0001 1.0000
vn -0.0000 0.8682 0.4963
vn -0.0000 0.0002 -1.0000
vn 0.0002 0.9067 0.4218
vn -0.0051 -0.1287 0.9917
vn 0.0014 -0.4350 0.9004
vn 0.0066 -0.0000 1.0000
vn -0.0020 0.2206 0.9754
vn 0.0020 -0.0486 0.9988
vn 0.0042 0.7443 0.6678
vn -0.0041 -0.9772 -0.2123
vn -0.0013 0.8000 0.6001
vn -0.0486 0.6579 0.7515
vn -0.0021 0.2190 0.9757
vn -0.0000 -0.6704 -0.7420
vn -0.0000 -0.9872 0.1592
vn -0.0000 -0.1569 0.9876
vn -1.0000 0.0002 -0.0004
vn 0.0001 0.4633 0.8862
vn -1.0000 0.0001 -0.0005
vn -0.0000 -0.4472 0.8944
vn -0.0000 -0.7035 -0.7107
vn -0.0001 -0.5909 0.8068
vn -0.0000 -0.1569 -0.9876
vn -1.0000 0.0004 -0.0002
vn -1.0000 0.0003 -0.0003
vn -1.0000 0.0006 -0.0001
vn -0.0000 -0.2426 0.9701
vn -1.0000 0.0004 -0.0003
vn -0.0000 -0.4290 0.9033
vn 0.0012 -0.0000 1.0000
vn -0.0000 0.4469 0.8946
vn -0.0012 0.2182 0.9759
vn -0.0009 0.2193 0.9757
vn -0.0044 -0.1289 0.9916
vn -0.0044 -0.1290 0.9916
vn -0.0000 -0.7071 0.7071
vn 0.0031 0.9896 0.1439
vn 0.0037 0.9891 0.1471
vn -0.0024 0.4728 0.8812
vn -0.0000 -0.9872 -0.1592
vn 0.0027 0.6616 0.7499
vn -0.0155 0.7267 0.6868
vn 0.0024 0.6400 0.7684
vn -0.0000 0.4667 0.8844
vn -0.0015 0.4719 0.8817
vn -0.0000 -0.8669 -0.4985
vn -0.0012 0.8848 0.4660
vn -0.0009 0.9123 0.4095
vn 0.0003 0.8107 0.5855
vn -0.0020 0.0004 1.0000
vn -0.9878 0.1554 -0.0111
vn -0.9877 0.1562 0.0085
vn -1.0000 0.0033 -0.0045
vn -1.0000 0.0014 0.0008
vn -1.0000 -0.0038 0.0051
vn 0.0235 -0.8679 -0.4961
vn -0.0183 -0.2468 -0.9689
vn 0.0023 -0.3143 -0.9493
vn -0.0039 -0.3053 -0.9523
vn 0.0037 -0.3769 -0.9262
vn -0.0000 -0.4227 -0.9063
vn -0.0000 -0.3830 -0.9237
vn 0.0097 -0.1813 -0.9834
vn 0.0051 -0.1471 -0.9891
vn -0.0021 -0.2199 -0.9755
vn -0.0000 -0.2033 -0.9791
vn -0.0000 -0.0555 -0.9985
vn 0.0002 -0.0605 -0.9982
vn -0.9809 0.1945 0.0016
vn -0.9809 0.1946 -0.0005
vn -0.9809 0.1947 -0.0000
vn 0.0037 -0.6465 0.7629
vn 0.0182 -0.9998 -0.0000
vn 0.0076 -0.9700 0.2429
vn 0.0048 -0.8263 0.5632
vn 0.0042 -0.8400 0.5425
vn -0.0023 -0.7738 0.6335
vn -1.0000 0.0014 -0.0000
vn -0.0008 -0.6465 0.7629
vn 0.0005 -0.6441 0.7649
vn -0.0014 -0.9532 0.3024
s 0
f 2//1 6//1 284//1
f 4//2 2//2 1//2
f 5//3 6//3 2//3
f 7//4 9//4 8//4
f 10//5 6//5 5//5
f 11//6 13//6 12//6
f 6//7 100//7 284//7
f 14//7 16//7 15//7
f 17//7 16//7 18//7
f 19//7 17//7 18//7
f 20//7 16//7 17//7
f 21//7 22//7 18//7
f 22//7 19//7 18//7
f 23//7 21//7 18//7
f 24//8 26//8 25//8
f 15//7 16//7 27//7
f 27//7 16//7 20//7
f 28//7 18//7 16//7
f 29//7 31//7 30//7
f 32//7 34//7 33//7
f 35//7 37//7 36//7
f 38//7 33//7 34//7
f 30//7 16//7 39//7
f 39//7 16//7 14//7
f 16//7 30//7 31//7
f 40//7 36//7 37//7
f 29//7 41//7 31//7
f 42//7 33//7 38//7
f 43//7 33//7 42//7
f 33//7 43//7 18//7
f 44//7 31//7 41//7
f 32//7 45//7 35//7
f 46//7 47//7 33//7
f 33//7 45//7 32//7
f 48//7 45//7 33//7
f 37//7 35//7 45//7
f 36//7 40//7 41//7
f 44//7 41//7 40//7
f 23//7 18//7 43//7
f 48//7 33//7 47//7
f 49//7 31//7 50//7
f 51//7 53//7 52//7
f 49//7 52//7 31//7
f 54//7 50//7 31//7
f 44//7 55//7 31//7
f 54//7 31//7 55//7
f 56//9 58//9 57//9
f 59//10 26//10 24//10
f 60//7 62//7 61//7
f 63//7 60//7 6//7
f 64//7 66//7 65//7
f 67//7 65//7 66//7
f 68//7 65//7 67//7
f 65//7 68//7 33//7
f 69//7 70//7 65//7
f 71//7 70//7 72//7
f 46//7 33//7 73//7
f 51//7 71//7 72//7
f 31//7 52//7 53//7
f 64//7 65//7 70//7
f 73//7 33//7 68//7
f 74//7 76//7 75//7
f 75//7 76//7 77//7
f 31//7 77//7 76//7
f 31//7 78//7 77//7
f 53//7 79//7 31//7
f 78//7 31//7 79//7
f 72//7 53//7 51//7
f 80//7 72//7 70//7
f 69//7 80//7 70//7
f 81//7 82//7 1//7
f 83//7 81//7 84//7
f 1//7 82//7 65//7
f 85//7 65//7 86//7
f 86//7 65//7 82//7
f 69//7 65//7 85//7
f 87//7 88//7 84//7
f 89//7 90//7 76//7
f 91//7 76//7 90//7
f 74//7 89//7 76//7
f 92//7 76//7 91//7
f 88//7 83//7 84//7
f 76//7 92//7 84//7
f 92//7 87//7 84//7
f 284//7 104//7 290//7
f 1//7 84//7 81//7
f 95//7 93//7 96//7
f 97//7 6//7 98//7
f 103//7 105//7 290//7
f 2//11 3//11 1//11
f 102//7 284//7 99//7
f 105//7 106//7 290//7
f 3//7 283//7 84//7
f 84//7 1//7 3//7
f 290//7 104//7 103//7
f 290//12 283//12 3//12 284//12
f 96//7 107//7 95//7
f 108//7 96//7 93//7
f 290//7 106//7 93//7
f 94//7 108//7 93//7
f 109//7 111//7 110//7
f 109//7 13//7 111//7
f 111//7 13//7 107//7
f 95//7 107//7 13//7
f 110//7 9//7 25//7
f 9//7 110//7 111//7
f 112//7 114//7 113//7
f 25//7 115//7 24//7
f 24//7 115//7 56//7
f 116//7 113//7 114//7
f 114//7 56//7 115//7
f 98//7 6//7 60//7
f 101//13 117//13 100//13
f 113//7 116//7 118//7
f 119//7 121//7 120//7
f 122//7 119//7 123//7
f 61//7 124//7 121//7
f 124//7 61//7 62//7
f 62//7 60//7 63//7
f 124//7 120//7 121//7
f 56//7 114//7 112//7
f 61//14 126//14 125//14
f 127//7 123//7 119//7
f 115//7 25//7 9//7
f 60//15 61//15 125//15
f 123//7 118//7 122//7
f 122//7 118//7 116//7
f 120//7 127//7 119//7
f 101//7 6//7 97//7
f 101//7 100//7 6//7
f 28//16 128//16 18//16
f 128//16 28//16 129//16
f 59//17 131//17 130//17
f 132//18 134//18 133//18
f 135//19 110//19 25//19
f 136//18 132//18 133//18
f 137//18 136//18 138//18
f 139//18 133//18 134//18
f 133//18 140//18 136//18
f 110//20 135//20 12//20
f 141//18 142//18 137//18
f 25//21 143//21 135//21
f 142//18 144//18 137//18
f 26//22 59//22 130//22
f 131//23 59//23 24//23
f 145//18 5//18 146//18
f 141//18 137//18 138//18
f 131//24 24//24 57//24
f 26//25 130//25 25//25
f 147//18 148//18 5//18
f 25//26 130//26 143//26
f 149//18 147//18 5//18
f 145//18 149//18 5//18
f 137//18 146//18 5//18
f 150//18 146//18 137//18
f 144//18 150//18 137//18
f 151//18 5//18 148//18
f 140//18 138//18 136//18
f 152//18 153//18 139//18
f 154//18 153//18 11//18
f 133//18 139//18 153//18
f 58//18 155//18 57//18
f 156//18 154//18 12//18
f 157//18 156//18 130//18
f 11//18 12//18 154//18
f 11//18 153//18 158//18
f 152//18 158//18 153//18
f 155//18 58//18 159//18
f 57//18 155//18 131//18
f 130//18 131//18 157//18
f 143//18 130//18 156//18
f 12//18 143//18 156//18
f 157//18 131//18 155//18
f 160//18 10//18 161//18
f 162//18 10//18 163//18
f 161//27 117//27 160//27
f 162//28 125//28 164//28
f 161//18 10//18 5//18
f 151//18 161//18 5//18
f 10//18 160//18 163//18
f 10//18 162//18 165//18
f 165//18 162//18 166//18
f 167//18 169//18 168//18
f 169//18 167//18 164//18
f 168//18 169//18 170//18
f 117//29 101//29 97//29
f 171//18 170//18 169//18
f 172//18 174//18 173//18
f 175//18 173//18 174//18
f 176//7 178//7 177//7
f 179//18 159//18 58//18
f 174//18 172//18 180//18
f 180//18 172//18 181//18
f 159//18 181//18 172//18
f 179//18 181//18 159//18
f 173//18 175//18 171//18
f 173//30 176//30 177//30
f 122//31 178//31 119//31
f 176//32 119//32 178//32
f 182//18 171//18 175//18
f 170//18 171//18 182//18
f 164//18 166//18 162//18
f 167//18 166//18 164//18
f 177//33 178//33 122//33
f 183//18 128//18 184//18
f 185//16 184//16 16//16
f 184//34 28//34 16//34
f 184//34 129//34 28//34
f 186//35 187//35 142//35
f 142//36 187//36 144//36
f 188//18 189//18 185//18
f 187//37 190//37 144//37
f 183//18 184//18 191//18
f 192//38 193//38 15//38
f 183//39 191//39 17//39
f 15//40 193//40 189//40
f 192//18 191//18 184//18
f 193//18 192//18 184//18
f 189//18 193//18 184//18
f 129//18 184//18 128//18
f 183//18 194//18 128//18
f 195//18 128//18 196//18
f 196//18 128//18 194//18
f 128//18 198//18 197//18
f 198//18 128//18 195//18
f 199//41 200//41 104//41
f 21//42 195//42 196//42
f 198//43 195//43 21//43
f 197//44 198//44 43//44
f 20//45 191//45 27//45
f 192//45 27//45 191//45
f 15//46 27//46 192//46
f 188//47 39//47 189//47
f 14//47 189//47 39//47
f 19//48 194//48 17//48
f 183//48 17//48 194//48
f 145//49 201//49 149//49
f 202//50 149//50 201//50
f 20//39 17//39 191//39
f 147//51 149//51 202//51
f 196//42 22//42 21//42
f 145//52 146//52 201//52
f 196//53 194//53 22//53
f 19//53 22//53 194//53
f 21//43 23//43 198//43
f 43//44 198//44 23//44
f 15//40 189//40 14//40
f 200//54 203//54 103//54
f 204//18 206//18 205//18
f 190//55 203//55 150//55
f 200//56 150//56 203//56
f 207//18 209//18 208//18
f 210//18 205//18 209//18
f 201//18 200//18 202//18
f 30//57 206//57 204//57
f 200//58 146//58 150//58
f 201//59 146//59 200//59
f 204//60 210//60 41//60
f 210//61 209//61 41//61
f 30//62 188//62 206//62
f 206//18 188//18 185//18
f 184//18 185//18 189//18
f 204//18 205//18 210//18
f 100//63 151//63 148//63
f 99//64 100//64 211//64
f 147//65 211//65 148//65
f 212//18 214//18 213//18
f 214//18 215//18 213//18
f 215//18 216//18 213//18
f 216//18 207//18 217//18
f 211//66 218//66 99//66
f 34//67 215//67 214//67
f 32//68 215//68 34//68
f 32//68 216//68 215//68
f 100//69 117//69 151//69
f 32//70 207//70 216//70
f 151//71 117//71 161//71
f 211//72 147//72 199//72
f 185//18 205//18 206//18
f 205//18 219//18 209//18
f 188//62 30//62 39//62
f 214//67 38//67 34//67
f 100//65 148//65 211//65
f 38//73 214//73 42//73
f 212//73 42//73 214//73
f 35//70 207//70 32//70
f 30//57 204//57 29//57
f 207//74 35//74 209//74
f 36//74 209//74 35//74
f 204//75 41//75 29//75
f 218//76 102//76 99//76
f 41//61 209//61 36//61
f 43//77 42//77 197//77
f 212//77 197//77 42//77
f 199//7 218//7 211//7
f 220//18 221//18 213//18
f 147//78 202//78 199//78
f 213//18 217//18 220//18
f 208//18 217//18 207//18
f 219//18 208//18 209//18
f 199//79 102//79 218//79
f 40//46 219//46 222//46
f 223//42 221//42 46//42
f 202//80 200//80 199//80
f 37//81 219//81 40//81
f 37//81 208//81 219//81
f 104//82 102//82 199//82
f 221//83 48//83 47//83
f 221//83 220//83 48//83
f 220//48 45//48 48//48
f 220//48 217//48 45//48
f 217//39 37//39 45//39
f 217//39 208//39 37//39
f 18//84 213//84 33//84
f 18//84 128//84 213//84
f 213//18 128//18 197//18
f 213//18 216//18 217//18
f 212//18 213//18 197//18
f 177//85 122//85 116//85
f 224//86 205//86 31//86
f 205//87 16//87 31//87
f 205//88 185//88 16//88
f 119//89 176//89 121//89
f 225//89 121//89 176//89
f 171//89 225//89 176//89
f 126//7 225//7 125//7
f 121//90 126//90 61//90
f 226//18 228//18 227//18
f 229//18 228//18 226//18
f 225//91 126//91 121//91
f 230//18 222//18 205//18
f 222//18 219//18 205//18
f 230//18 205//18 231//18
f 231//18 205//18 232//18
f 233//18 232//18 205//18
f 114//92 115//92 7//92
f 55//93 230//93 231//93
f 55//94 222//94 230//94
f 123//95 127//95 175//95
f 234//18 228//18 235//18
f 236//18 237//18 235//18
f 118//96 123//96 174//96
f 238//18 234//18 235//18
f 237//18 238//18 235//18
f 228//18 229//18 235//18
f 239//18 236//18 213//18
f 223//18 239//18 213//18
f 221//18 223//18 213//18
f 213//18 236//18 235//18
f 70//70 240//70 228//70
f 237//97 67//97 238//97
f 236//77 67//77 237//77
f 62//98 241//98 124//98
f 228//68 234//68 70//68
f 239//99 223//99 46//99
f 175//100 174//100 123//100
f 70//70 71//70 240//70
f 240//74 71//74 242//74
f 51//74 242//74 71//74
f 44//46 40//46 222//46
f 55//93 231//93 54//93
f 243//75 52//75 233//75
f 49//75 233//75 52//75
f 104//101 200//101 103//101
f 244//102 105//102 103//102
f 163//103 98//103 162//103
f 169//89 225//89 171//89
f 125//104 225//104 164//104
f 125//105 162//105 60//105
f 60//106 162//106 98//106
f 97//107 98//107 163//107
f 97//108 160//108 117//108
f 97//109 163//109 160//109
f 164//110 225//110 169//110
f 173//111 171//111 176//111
f 154//112 245//112 153//112
f 138//113 246//113 141//113
f 247//114 159//114 248//114
f 177//115 172//115 173//115
f 249//116 141//116 246//116
f 116//117 172//117 177//117
f 248//118 116//118 114//118
f 248//119 172//119 116//119
f 248//120 159//120 172//120
f 118//121 174//121 250//121
f 118//122 250//122 113//122
f 138//123 140//123 246//123
f 174//124 180//124 250//124
f 250//125 180//125 181//125
f 179//126 58//126 56//126
f 251//127 247//127 248//127
f 250//128 112//128 113//128
f 181//129 112//129 250//129
f 251//130 155//130 247//130
f 175//131 127//131 182//131
f 155//132 159//132 247//132
f 252//133 156//133 157//133
f 154//134 156//134 252//134
f 181//135 179//135 112//135
f 252//136 245//136 154//136
f 112//137 179//137 56//137
f 157//138 155//138 251//138
f 135//139 143//139 12//139
f 165//140 166//140 63//140
f 62//141 63//141 166//141
f 6//142 10//142 63//142
f 165//142 63//142 10//142
f 51//61 52//61 242//61
f 243//61 242//61 52//61
f 167//143 168//143 253//143
f 233//144 49//144 232//144
f 50//144 232//144 49//144
f 62//145 166//145 241//145
f 222//94 55//94 44//94
f 50//62 54//62 232//62
f 231//62 232//62 54//62
f 241//146 166//146 167//146
f 124//147 241//147 253//147
f 67//97 66//97 238//97
f 234//67 238//67 64//67
f 66//67 64//67 238//67
f 241//148 167//148 253//148
f 236//77 68//77 67//77
f 253//149 168//149 170//149
f 47//42 46//42 221//42
f 253//150 170//150 124//150
f 68//151 236//151 73//151
f 239//151 73//151 236//151
f 120//152 124//152 170//152
f 70//68 234//68 64//68
f 239//99 46//99 73//99
f 170//153 182//153 127//153
f 120//154 170//154 127//154
f 254//18 242//18 255//18
f 233//18 255//18 243//18
f 243//18 255//18 242//18
f 256//18 235//18 229//18
f 33//155 235//155 65//155
f 33//155 213//155 235//155
f 235//156 1//156 65//156
f 205//18 224//18 257//18
f 31//157 76//157 224//157
f 258//123 246//123 140//123
f 157//158 251//158 8//158
f 140//159 259//159 258//159
f 94//160 249//160 258//160
f 140//161 260//161 259//161
f 261//162 133//162 153//162
f 133//163 260//163 140//163
f 109//6 12//6 13//6
f 8//164 262//164 245//164
f 57//165 24//165 56//165
f 157//166 8//166 252//166
f 263//18 224//18 264//18
f 264//18 224//18 265//18
f 8//167 245//167 252//167
f 205//18 266//18 255//18
f 205//18 257//18 266//18
f 263//18 257//18 224//18
f 133//168 261//168 260//168
f 205//18 255//18 233//18
f 12//169 109//169 110//169
f 72//170 227//170 53//170
f 254//170 53//170 227//170
f 75//171 257//171 263//171
f 74//144 264//144 265//144
f 263//62 74//62 75//62
f 263//62 264//62 74//62
f 255//81 53//81 254//81
f 258//7 259//7 267//7
f 268//7 267//7 259//7
f 269//172 271//172 270//172
f 261//7 272//7 260//7
f 261//7 273//7 272//7
f 242//18 227//18 240//18
f 245//173 261//173 153//173
f 227//18 242//18 254//18
f 270//174 274//174 269//174
f 275//18 274//18 235//18
f 249//175 246//175 258//175
f 240//18 227//18 228//18
f 256//18 275//18 235//18
f 229//176 69//176 256//176
f 94//177 106//177 249//177
f 274//77 82//77 269//77
f 226//83 69//83 229//83
f 274//178 86//178 82//178
f 274//178 275//178 86//178
f 275//43 256//43 86//43
f 276//18 224//18 277//18
f 278//179 270//179 279//179
f 271//180 279//180 270//180
f 280//181 270//181 278//181
f 108//182 258//182 267//182
f 277//18 224//18 280//18
f 270//183 280//183 224//183
f 265//18 224//18 276//18
f 258//184 108//184 94//184
f 92//70 280//70 278//70
f 268//185 259//185 96//185
f 259//185 260//185 96//185
f 88//67 279//67 271//67
f 278//68 279//68 88//68
f 280//74 92//74 277//74
f 91//74 277//74 92//74
f 107//186 273//186 261//186
f 91//61 276//61 277//61
f 272//187 273//187 107//187
f 96//188 272//188 107//188
f 257//40 77//40 266//40
f 78//40 266//40 77//40
f 108//189 267//189 268//189
f 89//75 265//75 90//75
f 272//185 96//185 260//185
f 257//171 75//171 77//171
f 74//144 265//144 89//144
f 108//190 268//190 96//190
f 255//81 79//81 53//81
f 78//191 79//191 266//191
f 255//191 266//191 79//191
f 248//192 114//192 7//192
f 69//176 85//176 256//176
f 248//193 7//193 251//193
f 83//97 271//97 81//97
f 269//97 81//97 271//97
f 82//77 81//77 269//77
f 261//194 245//194 262//194
f 271//67 83//67 88//67
f 226//83 80//83 69//83
f 281//7 261//7 262//7
f 227//195 80//195 226//195
f 227//195 72//195 80//195
f 282//196 111//196 262//196
f 9//197 111//197 282//197
f 86//43 256//43 85//43
f 111//198 281//198 262//198
f 92//70 278//70 87//70
f 281//199 107//199 261//199
f 276//75 90//75 265//75
f 111//200 107//200 281//200
f 278//68 88//68 87//68
f 276//61 91//61 90//61
f 270//201 224//201 76//201
f 270//180 235//180 274//180
f 7//202 115//202 9//202
f 7//203 8//203 251//203
f 1//156 235//156 4//156
f 282//204 8//204 9//204
f 282//7 262//7 8//7
f 2//205 284//205 3//205
f 270//206 286//206 285//206
f 285//207 286//207 2//207
f 284//7 100//7 99//7
f 2//208 4//208 285//208
f 235//209 270//209 4//209
f 285//210 4//210 270//210
f 84//34 283//34 137//34
f 76//211 84//211 270//211
f 152//212 139//212 287//212
f 152//213 287//213 158//213
f 288//214 158//214 287//214
f 158//215 288//215 13//215
f 158//216 13//216 11//216
f 13//217 288//217 95//217
f 104//7 284//7 102//7
f 270//34 84//34 137//34
f 136//34 137//34 93//34
f 93//218 139//218 134//218
f 93//219 95//219 139//219
f 288//220 287//220 139//220
f 288//221 139//221 95//221
f 132//222 136//222 93//222
f 132//223 93//223 134//223
f 286//224 270//224 137//224
f 2//225 286//225 5//225
f 93//7 106//7 94//7
f 137//226 5//226 286//226
f 249//227 106//227 186//227
f 289//228 190//228 103//228
f 190//229 244//229 103//229
f 289//54 103//54 203//54
f 187//230 105//230 244//230
f 186//231 105//231 187//231
f 186//232 106//232 105//232
f 190//233 289//233 203//233
f 187//7 244//7 190//7
f 249//234 186//234 142//234
f 249//235 142//235 141//235
f 144//236 190//236 150//236
f 137//34 290//34 93//34
f 137//34 283//34 290//34
