# Blender 5.0.1
# www.blender.org
mtllib i02_head_left_cheek_visual.mtl
o i02_head_left_cheek_visual.001
v -0.000889 -0.078450 -0.067538
v 0.025801 -0.088230 -0.068604
v 0.009476 -0.117721 -0.067969
v -0.000889 -0.130559 -0.067538
v 0.021301 -0.078450 0.023210
v 0.025801 -0.076666 -0.068604
v 0.010380 0.106744 -0.028658
v -0.051606 -0.078450 0.013100
v -0.041464 -0.078450 -0.038951
v -0.022422 -0.078450 -0.058142
v -0.010468 -0.078450 -0.064591
v 0.010380 -0.078450 -0.028658
v 0.017703 0.030891 0.006125
v 0.016287 0.025250 -0.000601
v 0.016988 0.026658 0.002726
v 0.015165 0.025787 -0.005932
v 0.015529 0.025250 -0.004201
v 0.013965 0.034500 -0.011629
v 0.014003 0.032660 -0.011452
v 0.014113 0.030891 -0.010927
v 0.016652 0.025787 0.001130
v 0.015908 0.025069 -0.002401
v 0.017282 0.027831 0.004124
v 0.017524 0.029260 0.005272
v 0.014534 0.027831 -0.008926
v 0.014829 0.026658 -0.007528
v 0.014293 0.029260 -0.010074
v 0.037332 0.029260 -0.014925
v 0.037579 0.027831 -0.013778
v 0.037879 0.026658 -0.012381
v 0.036895 -0.078450 -0.016960
v 0.044476 -0.078450 0.018330
v 0.044476 0.106744 0.018330
v 0.033344 -0.078450 -0.033493
v 0.033344 0.106744 -0.033493
v 0.038221 0.025787 -0.010787
v 0.037037 0.032660 -0.016301
v 0.038593 0.025250 -0.009057
v 0.040922 0.032660 0.001784
v 0.037149 0.030891 -0.015777
v 0.040809 0.030891 0.001260
v 0.040626 0.029260 0.000408
v 0.040380 0.027831 -0.000739
v 0.040080 0.026658 -0.002136
v 0.039737 0.025787 -0.003730
v 0.039366 0.025250 -0.005460
v 0.038979 0.025069 -0.007259
v 0.036895 -0.109132 -0.016960
v 0.052909 -0.135831 0.057586
v 0.022145 -0.148174 0.004050
v 0.052990 -0.078450 0.057962
v 0.043061 -0.078450 0.063226
v 0.043061 -0.151795 0.063226
v 0.020900 -0.154636 0.015110
v 0.021925 -0.152024 0.011793
v 0.022346 -0.149842 0.008058
v 0.021330 -0.147086 -0.000077
v 0.019933 -0.146618 -0.004165
v 0.011079 -0.137157 0.004558
v 0.009682 -0.136689 0.000470
v 0.011894 -0.138246 0.008685
v 0.014072 -0.131679 0.004789
v 0.012295 -0.131084 -0.000410
v 0.015107 -0.133064 0.010038
v 0.011623 -0.129103 0.005935
v 0.009837 -0.128504 0.000709
v 0.012664 -0.130494 0.011212
v -0.002991 -0.131024 0.009501
v -0.004048 -0.130669 0.006407
v -0.002375 -0.131847 0.012625
v -0.014460 -0.143244 0.010273
v -0.005506 -0.130798 0.003461
v -0.012490 -0.148590 0.026053
v -0.014886 -0.150711 0.025291
v -0.020904 -0.142667 -0.005207
v -0.018749 -0.140225 -0.005663
v -0.017265 -0.152545 0.023952
v -0.016430 -0.137899 -0.005508
v -0.019536 -0.154021 0.022087
v -0.014034 -0.135778 -0.004746
v -0.021613 -0.155083 0.019768
v -0.011655 -0.133944 -0.003406
v -0.023414 -0.155690 0.017084
v -0.009383 -0.132468 -0.001541
v -0.024871 -0.155819 0.014138
v -0.002222 -0.133109 0.015658
v -0.007307 -0.131406 0.000778
v -0.025929 -0.155465 0.011044
v -0.002541 -0.134761 0.018485
v -0.026545 -0.154641 0.007920
v -0.003317 -0.136738 0.020995
v -0.026697 -0.153379 0.004887
v -0.004521 -0.138966 0.023094
v -0.026379 -0.151728 0.002061
v -0.006108 -0.141357 0.024700
v -0.025603 -0.149751 -0.000450
v -0.008015 -0.143822 0.025752
v -0.024398 -0.147523 -0.002549
v -0.010170 -0.146264 0.026209
v -0.022812 -0.145131 -0.004155
v -0.021856 -0.152932 -0.017131
v -0.024536 -0.156972 -0.014419
v -0.018634 -0.148769 -0.018908
v -0.019233 -0.155384 -0.018157
v -0.015109 -0.155797 -0.013486
v -0.021899 -0.159404 -0.015458
v -0.016028 -0.151244 -0.019924
v -0.012589 -0.152541 -0.014875
v -0.012407 -0.147140 -0.020691
v -0.009742 -0.149314 -0.015478
v -0.008509 -0.143231 -0.020430
v -0.014994 -0.144644 -0.019679
v -0.011076 -0.140715 -0.019416
v -0.007029 -0.137133 -0.018129
v -0.003011 -0.134036 -0.015866
v -0.004484 -0.139668 -0.019149
v -0.003511 -0.143439 -0.014266
v -0.000486 -0.136587 -0.016899
v -0.000368 -0.141016 -0.012496
v 0.003331 -0.134106 -0.013765
v 0.002633 -0.139065 -0.010032
v 0.006819 -0.132321 -0.009869
v 0.000826 -0.131542 -0.012717
v 0.004333 -0.129748 -0.008800
v 0.007376 -0.128722 -0.004266
v 0.009846 -0.131301 -0.005359
v 0.007757 -0.136859 -0.003422
v 0.005377 -0.137662 -0.006968
v 0.018008 -0.146788 -0.008057
v 0.015628 -0.147591 -0.011603
v 0.012884 -0.148994 -0.014667
v 0.009883 -0.150945 -0.017131
v 0.006740 -0.153368 -0.018900
v -0.010468 -0.143293 -0.064591
v 0.003574 -0.156170 -0.019907
v 0.000509 -0.159243 -0.020113
v -0.006677 -0.146241 -0.015273
v -0.022422 -0.160691 -0.058142
v -0.002338 -0.162470 -0.019510
v -0.004858 -0.165726 -0.018120
v -0.031809 -0.175285 -0.050376
v -0.006954 -0.168886 -0.015998
v -0.008546 -0.171829 -0.013225
v -0.017205 -0.158957 -0.011364
v -0.018797 -0.161900 -0.008591
v -0.019822 -0.164513 -0.005273
v -0.023922 -0.163146 -0.011932
v -0.025227 -0.166469 -0.007713
v -0.026570 -0.160734 -0.010874
v -0.027881 -0.164074 -0.006633
v -0.028419 -0.166864 -0.001859
v -0.028162 -0.168995 0.003265
v -0.025762 -0.169244 -0.002964
v -0.020243 -0.166695 -0.001539
v -0.025506 -0.171364 0.002133
v -0.024470 -0.172748 0.007382
v -0.020042 -0.168362 0.002469
v -0.019227 -0.169451 0.006596
v -0.009791 -0.178291 -0.002165
v -0.047820 -0.197494 -0.026947
v -0.051712 -0.205296 -0.013934
v -0.008976 -0.179379 0.001962
v -0.009992 -0.176624 -0.006173
v -0.044334 -0.192584 -0.033530
v -0.009571 -0.174442 -0.009908
v -0.041464 -0.187815 -0.038951
v -0.052990 -0.211862 -0.000412
v -0.007579 -0.179848 0.006050
v -0.051606 -0.216900 0.013100
v -0.047612 -0.220099 0.026082
v -0.005654 -0.179677 0.009942
v -0.017830 -0.169919 0.010685
v -0.015905 -0.169748 0.014576
v -0.022694 -0.173344 0.012581
v -0.020245 -0.173127 0.017531
v -0.025335 -0.170985 0.013768
v -0.022873 -0.170767 0.018743
v -0.027121 -0.170387 0.008542
v -0.019830 -0.169742 0.023277
v -0.016323 -0.167947 0.027193
v -0.017218 -0.172107 0.022040
v -0.013525 -0.168946 0.018122
v -0.013729 -0.170322 0.025937
v -0.010781 -0.167542 0.021186
v -0.009913 -0.167841 0.029070
v -0.007780 -0.165592 0.023650
v -0.005915 -0.164760 0.031321
v -0.012487 -0.165454 0.030343
v -0.008468 -0.162356 0.032606
v -0.004422 -0.158774 0.033893
v -0.000503 -0.154845 0.034156
v -0.001889 -0.161196 0.032601
v -0.001472 -0.160367 0.026427
v 0.002009 -0.157288 0.032863
v 0.001594 -0.157293 0.026633
v 0.005630 -0.153184 0.032096
v 0.004441 -0.154067 0.026029
v 0.008835 -0.149043 0.030329
v 0.003137 -0.150720 0.033384
v 0.006359 -0.146557 0.031608
v 0.009038 -0.142517 0.028895
v 0.011073 -0.138755 0.025350
v 0.011500 -0.145024 0.027630
v 0.009057 -0.147650 0.022518
v 0.013524 -0.141281 0.024103
v 0.010648 -0.144707 0.019745
v 0.014828 -0.137959 0.019885
v 0.012384 -0.135415 0.021109
v 0.015363 -0.135184 0.015135
v 0.011674 -0.142095 0.016427
v 0.012094 -0.139913 0.012693
v 0.012921 -0.132626 0.016335
v 0.006961 -0.150811 0.024640
v 0.019308 -0.157579 0.017883
v 0.017212 -0.160740 0.020005
v 0.030079 -0.171246 0.067220
v 0.014692 -0.163996 0.021395
v 0.011845 -0.167222 0.021998
v 0.017709 -0.185881 0.068454
v 0.008779 -0.170296 0.021792
v 0.005614 -0.173098 0.020785
v 0.003045 -0.197804 0.067326
v 0.002471 -0.175521 0.019016
v -0.004637 -0.163169 0.025420
v -0.009968 -0.206208 0.063434
v -0.000530 -0.177471 0.016552
v -0.021972 -0.213251 0.057078
v -0.003274 -0.178875 0.013488
v -0.032505 -0.218662 0.048502
v -0.038231 -0.220311 0.041580
v -0.043316 -0.220924 0.034046
v -0.047612 -0.078450 0.026082
v -0.041163 -0.078450 0.038036
v -0.032505 -0.078450 0.048502
v -0.021972 -0.078450 0.057078
v 0.030079 -0.078450 0.067220
v 0.003045 -0.078450 0.067326
v -0.009968 -0.078450 0.063434
v 0.016567 -0.078450 0.068604
v 0.021301 0.106744 0.023210
v 0.017851 0.091083 0.006827
v 0.017814 0.092922 0.006650
v 0.017703 0.094692 0.006125
v 0.017524 0.096322 0.005272
v 0.017282 0.097751 0.004124
v 0.016988 0.098924 0.002726
v 0.016652 0.099795 0.001130
v 0.016287 0.100332 -0.000601
v 0.015529 0.100332 -0.004201
v 0.017814 0.032660 0.006650
v 0.017851 0.034500 0.006827
v 0.015908 0.100513 -0.002401
v 0.022252 0.112636 0.027729
v 0.045446 0.112636 0.022845
v 0.041711 0.150778 0.005458
v 0.042204 0.153636 0.007751
v 0.042570 0.156897 0.009455
v 0.042795 0.160435 0.010504
v 0.032374 0.112636 -0.038008
v 0.045446 0.220924 0.022845
v 0.042871 0.164115 0.010859
v 0.042795 0.195890 0.010504
v 0.019726 0.164115 0.015732
v 0.019651 0.160435 0.015377
v 0.019430 0.156897 0.014327
v 0.019071 0.153636 0.012622
v 0.018588 0.150778 0.010326
v 0.017999 0.148432 0.007530
v 0.017327 0.146689 0.004339
v 0.041111 0.148432 0.002663
v 0.040426 0.146689 -0.000525
v 0.039683 0.145616 -0.003984
v 0.016598 0.145616 0.000876
v 0.015840 0.145254 -0.002724
v 0.038910 0.145254 -0.007582
v 0.015082 0.145616 -0.006325
v 0.014353 0.146689 -0.009787
v 0.038137 0.145616 -0.011179
v 0.037394 0.146689 -0.014638
v 0.036709 0.148432 -0.017826
v 0.013681 0.148432 -0.012978
v 0.013092 0.150778 -0.015775
v 0.012609 0.153636 -0.018070
v 0.009428 0.112636 -0.033178
v 0.036109 0.150778 -0.020621
v 0.035616 0.153636 -0.022914
v 0.012250 0.156897 -0.019776
v 0.035250 0.156897 -0.024618
v 0.035025 0.160435 -0.025667
v 0.012029 0.160435 -0.020826
v 0.011954 0.164115 -0.021181
v 0.009428 0.220924 -0.033178
v 0.012029 0.195890 -0.020826
v 0.034949 0.164115 -0.026022
v 0.032374 0.220924 -0.038008
v 0.035025 0.195890 -0.025667
v 0.035250 0.199428 -0.024618
v 0.012250 0.199428 -0.019776
v 0.012609 0.202689 -0.018070
v 0.035616 0.202689 -0.022914
v 0.013092 0.205547 -0.015775
v 0.036109 0.205547 -0.020621
v 0.013681 0.207893 -0.012978
v 0.036709 0.207893 -0.017826
v 0.014353 0.209636 -0.009787
v 0.037394 0.209636 -0.014638
v 0.015082 0.210709 -0.006325
v 0.038137 0.210709 -0.011179
v 0.015840 0.211071 -0.002724
v 0.016598 0.210709 0.000876
v 0.022252 0.220924 0.027729
v 0.038910 0.211071 -0.007582
v 0.039683 0.210709 -0.003984
v 0.040426 0.209636 -0.000525
v 0.017327 0.209636 0.004339
v 0.017999 0.207893 0.007530
v 0.018588 0.205547 0.010326
v 0.041111 0.207893 0.002663
v 0.041711 0.205547 0.005458
v 0.042204 0.202689 0.007751
v 0.019071 0.202689 0.012622
v 0.019430 0.199428 0.014327
v 0.019651 0.195890 0.015377
v 0.042570 0.199428 0.009455
v 0.038593 0.100332 -0.009057
v 0.038979 0.100513 -0.007259
v 0.039366 0.100332 -0.005460
v 0.039737 0.099795 -0.003730
v 0.040080 0.098924 -0.002136
v 0.040380 0.097751 -0.000739
v 0.040626 0.096322 0.000408
v 0.040809 0.094692 0.001260
v 0.040922 0.092922 0.001784
v 0.040960 0.091083 0.001961
v 0.040922 0.089243 0.001784
v 0.017814 0.089243 0.006650
v 0.017814 0.064631 0.006650
v 0.017703 0.087474 0.006125
v 0.040809 0.087474 0.001260
v 0.017524 0.085843 0.005272
v 0.017703 0.066400 0.006125
v 0.040626 0.068031 0.000408
v 0.040809 0.066400 0.001260
v 0.017524 0.068031 0.005272
v 0.017282 0.069459 0.004124
v 0.017282 0.084414 0.004124
v 0.040380 0.069459 -0.000739
v 0.040080 0.070632 -0.002136
v 0.040080 0.083241 -0.002136
v 0.040380 0.084414 -0.000739
v 0.040626 0.085843 0.000408
v 0.016988 0.083241 0.002726
v 0.016652 0.082370 0.001130
v 0.016988 0.070632 0.002726
v 0.039737 0.071504 -0.003730
v 0.016652 0.071504 0.001130
v 0.039366 0.072040 -0.005460
v 0.016287 0.081833 -0.000601
v 0.016287 0.072040 -0.000601
v 0.015908 0.072222 -0.002401
v 0.015908 0.081652 -0.002401
v 0.038979 0.072222 -0.007259
v 0.038593 0.081833 -0.009057
v 0.038979 0.081652 -0.007259
v 0.038593 0.072040 -0.009057
v 0.038221 0.071504 -0.010787
v 0.038221 0.082370 -0.010787
v 0.015529 0.072040 -0.004201
v 0.015529 0.081833 -0.004201
v 0.015165 0.071504 -0.005933
v 0.015165 0.082370 -0.005933
v 0.014829 0.083241 -0.007528
v 0.037879 0.083241 -0.012381
v 0.014829 0.070632 -0.007528
v 0.014534 0.084414 -0.008927
v 0.014534 0.069459 -0.008927
v 0.037579 0.084414 -0.013778
v 0.014293 0.085843 -0.010074
v 0.037332 0.085843 -0.014925
v 0.014113 0.087474 -0.010927
v 0.014293 0.068031 -0.010074
v 0.037332 0.068031 -0.014925
v 0.014113 0.066400 -0.010927
v 0.037149 0.066400 -0.015777
v 0.037037 0.064631 -0.016302
v 0.014003 0.064631 -0.011452
v 0.036999 0.062791 -0.016479
v 0.037037 0.060951 -0.016302
v 0.013965 0.062791 -0.011629
v 0.014003 0.036339 -0.011452
v 0.014003 0.060951 -0.011452
v 0.037149 0.059182 -0.015777
v 0.014113 0.059182 -0.010927
v 0.014293 0.057552 -0.010074
v 0.037332 0.057552 -0.014925
v 0.037579 0.041168 -0.013778
v 0.037579 0.056123 -0.013778
v 0.037332 0.039739 -0.014925
v 0.014293 0.039739 -0.010074
v 0.037149 0.038109 -0.015777
v 0.014534 0.041168 -0.008926
v 0.014829 0.042341 -0.007528
v 0.015165 0.054078 -0.005933
v 0.014829 0.054950 -0.007528
v 0.014534 0.056123 -0.008927
v 0.037879 0.054950 -0.012381
v 0.038221 0.054078 -0.010787
v 0.038221 0.043212 -0.010787
v 0.038593 0.043749 -0.009057
v 0.038593 0.053542 -0.009057
v 0.038979 0.053361 -0.007259
v 0.015529 0.053542 -0.004201
v 0.038979 0.043930 -0.007259
v 0.016287 0.043749 -0.000601
v 0.039366 0.043749 -0.005460
v 0.015908 0.043930 -0.002401
v 0.015529 0.043749 -0.004201
v 0.016652 0.054078 0.001130
v 0.016287 0.053542 -0.000601
v 0.039366 0.053542 -0.005460
v 0.015908 0.053361 -0.002401
v 0.039737 0.054078 -0.003730
v 0.040080 0.042341 -0.002136
v 0.039737 0.043212 -0.003730
v 0.040080 0.054950 -0.002136
v 0.040380 0.041168 -0.000739
v 0.040380 0.056123 -0.000739
v 0.016988 0.054950 0.002726
v 0.016652 0.043212 0.001130
v 0.017282 0.056123 0.004124
v 0.040626 0.057552 0.000408
v 0.016988 0.042341 0.002726
v 0.017524 0.057552 0.005272
v 0.017282 0.041168 0.004124
v 0.040809 0.059182 0.001260
v 0.017703 0.059182 0.006125
v 0.017814 0.060951 0.006650
v 0.017524 0.039739 0.005272
v 0.040922 0.060951 0.001784
v 0.040922 0.036339 0.001784
v 0.040960 0.062791 0.001961
v 0.040922 0.064631 0.001784
v 0.040809 0.038109 0.001260
v 0.040960 0.034500 0.001962
v 0.017814 0.036339 0.006650
v 0.017703 0.038109 0.006125
v 0.040626 0.039739 0.000408
v 0.015165 0.043212 -0.005932
v 0.037879 0.042341 -0.012381
v 0.014113 0.038109 -0.010927
v 0.037037 0.036339 -0.016301
v 0.036999 0.034500 -0.016479
v 0.014003 0.089243 -0.011452
v 0.037037 0.089243 -0.016302
v 0.037149 0.087474 -0.015777
v 0.013965 0.091083 -0.011629
v 0.014003 0.092922 -0.011452
v 0.036999 0.091083 -0.016479
v 0.037037 0.092922 -0.016302
v 0.014113 0.094692 -0.010927
v 0.037149 0.094692 -0.015777
v 0.014293 0.096322 -0.010074
v 0.037332 0.096322 -0.014925
v 0.037579 0.097751 -0.013778
v 0.014534 0.097751 -0.008927
v 0.014829 0.098924 -0.007528
v 0.015165 0.099795 -0.005933
v 0.037879 0.098924 -0.012381
v 0.038221 0.099795 -0.010787
v 0.037579 0.069459 -0.013778
v 0.037879 0.070632 -0.012381
v 0.039366 0.081833 -0.005460
v 0.039737 0.082370 -0.003730
v -0.052990 -0.078450 -0.000412
v -0.051712 -0.078450 -0.013934
v -0.047820 -0.078450 -0.026947
v -0.032888 -0.078450 -0.049484
v 0.017851 0.062791 0.006827
vn -0.0397 0.0005 -0.9992
vn -0.0399 -0.0000 -0.9992
vn -0.0415 -0.0000 -0.9991
vn -0.2940 -0.0000 -0.9558
vn -0.0000 1.0000 -0.0000
vn -0.1227 0.2013 -0.9718
vn -0.9605 -0.0000 0.2784
vn -0.9786 -0.0000 0.2059
vn -0.9785 -0.0000 0.2060
vn -0.9786 -0.0000 0.2060
vn -0.9785 -0.0000 0.2061
vn 0.1593 0.6344 0.7564
vn 0.1593 0.6343 0.7565
vn 0.1817 0.4714 0.8630
vn 0.9777 -0.0000 -0.2101
vn 0.1307 0.7730 0.6208
vn 0.9777 -0.0000 -0.2100
vn 0.9777 -0.0000 -0.2099
vn 0.7995 -0.4900 -0.3473
vn 0.8130 -0.4578 -0.3599
vn 0.7436 -0.6033 -0.2882
vn 0.7578 -0.5784 -0.3021
vn 0.4684 -0.0065 0.8835
vn 0.4970 -0.0000 0.8677
vn 0.7547 -0.5763 -0.3136
vn 0.8059 -0.4790 -0.3479
vn 0.7286 -0.6294 -0.2704
vn 0.7349 -0.6184 -0.2786
vn 0.8340 -0.4382 -0.3352
vn -0.6558 -0.7420 0.1391
vn -0.7059 -0.7068 -0.0471
vn -0.8327 0.4408 0.3350
vn -0.8460 0.4501 0.2857
vn -0.6822 -0.7154 0.1512
vn -0.7322 -0.6802 -0.0349
vn 0.0941 -0.9850 -0.1449
vn 0.0616 -0.9620 -0.2659
vn 0.6836 -0.6611 -0.3093
vn 0.6836 -0.6611 -0.3092
vn 0.8756 -0.3829 0.2946
vn 0.8076 -0.4773 0.3464
vn 0.5204 0.2105 0.8276
vn 0.4158 0.0653 0.9071
vn -0.5418 0.6478 0.5355
vn -0.5141 0.6864 0.5144
vn -0.5740 0.6089 0.5474
vn 0.2941 -0.0814 0.9523
vn -0.6095 0.5711 0.5498
vn 0.1601 -0.2240 0.9614
vn 0.7286 -0.5727 0.3758
vn 0.6416 -0.6654 0.3817
vn 0.5498 -0.7519 0.3639
vn 0.0189 -0.3570 0.9339
vn 0.4569 -0.8288 0.3231
vn -0.1241 -0.4752 0.8711
vn -0.6848 0.5045 0.5259
vn -0.6469 0.5358 0.5425
vn -0.7217 0.4782 0.5004
vn -0.2633 -0.5742 0.7752
vn -0.7562 0.4581 0.4672
vn -0.3934 -0.6501 0.6500
vn 0.3664 -0.8932 0.2608
vn 0.2818 -0.9425 0.1794
vn 0.2064 -0.9750 0.0821
vn -0.5095 -0.7001 0.5004
vn 0.1430 -0.9893 -0.0274
vn -0.6070 -0.7221 0.3319
vn -0.8128 0.4390 0.3829
vn -0.7870 0.4448 0.4276
vn -0.5805 -0.7487 0.3200
vn -0.4829 -0.7267 0.4886
vn 0.7442 -0.5532 -0.3744
vn 0.7761 -0.5169 -0.3613
vn 0.7226 -0.5751 -0.3836
vn -0.3668 -0.6767 0.6384
vn 0.7055 -0.5907 -0.3917
vn -0.2366 -0.6007 0.7637
vn 0.7103 -0.5866 -0.3890
vn 0.6899 -0.6078 -0.3932
vn -0.0972 -0.5016 0.8596
vn 0.6765 -0.6233 -0.3922
vn 0.6886 -0.6090 -0.3936
vn 0.0458 -0.3833 0.9225
vn 0.6643 -0.6363 -0.3921
vn 0.1871 -0.2502 0.9499
vn 0.6599 -0.6521 -0.3731
vn 0.6852 -0.6153 -0.3898
vn 0.3212 -0.1075 0.9409
vn 0.6519 -0.6622 -0.3694
vn 0.4430 0.0393 0.8957
vn 0.6556 -0.6694 -0.3494
vn 0.6752 -0.6345 -0.3761
vn 0.5478 0.1846 0.8160
vn 0.6508 -0.6766 -0.3446
vn 0.6314 0.3228 0.7050
vn -0.4919 0.7230 0.4850
vn -0.4762 0.7564 0.4485
vn 0.6909 0.4487 0.5669
vn 0.6634 0.4743 0.5787
vn 0.6041 0.3486 0.7167
vn 0.9683 -0.2114 0.1329
vn 0.9298 -0.2931 0.2226
vn 0.9896 -0.1409 0.0291
vn 0.6963 0.5828 0.4189
vn 0.9928 -0.0843 -0.0848
vn 0.7014 0.6699 0.2435
vn -0.4662 0.8083 0.3596
vn -0.4675 0.7852 0.4061
vn 0.6784 0.7323 0.0593
vn -0.4723 0.8249 0.3108
vn 0.7059 0.7068 0.0471
vn 0.7288 0.6444 0.2315
vn 0.5896 -0.7349 -0.3353
vn 0.5744 -0.7664 -0.2876
vn 0.5749 -0.7561 -0.3129
vn 0.5749 -0.7719 -0.2714
vn 0.6086 -0.7130 -0.3481
vn 0.7237 0.5572 0.4071
vn 0.6013 -0.7303 -0.3240
vn 0.6194 -0.6984 -0.3586
vn -0.8838 -0.0000 -0.4679
vn -0.7638 -0.0000 -0.6454
vn 0.5986 -0.7403 -0.3060
vn -0.8838 -0.0000 -0.4680
vn 0.5749 -0.7561 -0.3128
vn 0.5790 -0.7638 -0.2853
vn 0.6558 0.7420 -0.1391
vn 0.5672 -0.7420 -0.3573
vn 0.5741 -0.7462 -0.3370
vn 0.6120 -0.7432 -0.2703
vn 0.5805 0.7487 -0.3200
vn -0.5055 0.8360 0.2135
vn -0.4856 0.8342 0.2614
vn 0.5532 0.7742 -0.3076
vn 0.6284 0.7675 -0.1269
vn 0.8965 -0.0166 -0.4428
vn 0.9453 -0.0209 -0.3254
vn 0.9779 -0.0438 -0.2045
vn 0.8331 -0.0309 -0.5522
vn 0.4557 0.7522 -0.4760
vn 0.7578 -0.0633 -0.6495
vn 0.3396 0.7022 -0.6258
vn -0.5314 0.8301 0.1688
vn -0.5621 0.8169 0.1291
vn -0.5966 0.7968 0.0959
vn 0.2095 0.6263 -0.7509
vn -0.6335 0.7705 0.0705
vn 0.0703 0.5273 -0.8468
vn 0.5828 -0.1770 -0.7931
vn 0.6732 -0.1127 -0.7308
vn 0.4900 -0.2538 -0.8340
vn -0.0727 0.4090 -0.9096
vn 0.3983 -0.3402 -0.8518
vn -0.2139 0.2760 -0.9370
vn -0.6714 0.7391 0.0538
vn -0.7089 0.7038 0.0466
vn -0.7444 0.6660 0.0490
vn -0.3479 0.1335 -0.9280
vn -0.7766 0.6271 0.0609
vn -0.4696 -0.0133 -0.8828
vn 0.2322 -0.5282 -0.8167
vn 0.3113 -0.4329 -0.8460
vn 0.1642 -0.6226 -0.7651
vn -0.5742 -0.1585 -0.8032
vn 0.1099 -0.7125 -0.6931
vn -0.6578 -0.2966 -0.6923
vn -0.8043 0.5885 0.0820
vn -0.8264 0.5519 0.1114
vn -0.8421 0.5186 0.1480
vn -0.7172 -0.4223 -0.5543
vn -0.7501 -0.5308 -0.3946
vn -0.8508 0.4898 0.1904
vn -0.7237 -0.5572 -0.4070
vn -0.6909 -0.4487 -0.5669
vn -0.8521 0.4667 0.2369
vn -0.7288 -0.6444 -0.2315
vn -0.7551 -0.6179 -0.2192
vn 0.0467 -0.9215 -0.3857
vn 0.0500 -0.8648 -0.4996
vn 0.0713 -0.7942 -0.6034
vn -0.6314 -0.3228 -0.7050
vn -0.5478 -0.1846 -0.8160
vn 0.7005 -0.6549 -0.2834
vn 0.7040 -0.6501 -0.2859
vn 0.7518 -0.5699 -0.3317
vn 0.6728 -0.6618 -0.3306
vn -0.4430 -0.0393 -0.8957
vn 0.6759 -0.6584 -0.3311
vn -0.3212 0.1075 -0.9409
vn 0.7041 -0.6238 -0.3394
vn 0.6757 -0.6506 -0.3466
vn -0.1871 0.2502 -0.9499
vn 0.6812 -0.6452 -0.3459
vn -0.0458 0.3833 -0.9225
vn 0.6078 -0.7148 -0.3459
vn 0.6839 -0.6593 -0.3123
vn 0.0972 0.5016 -0.8596
vn 0.5798 -0.7372 -0.3469
vn 0.6748 -0.6819 -0.2821
vn 0.2366 0.6007 -0.7637
vn 0.6600 -0.7011 -0.2698
vn 0.6009 -0.7297 -0.3263
vn 0.3668 0.6767 -0.6384
vn 0.6196 -0.7234 -0.3047
vn 0.6027 -0.7288 -0.3250
vn 0.6400 -0.7206 -0.2665
vn 0.4830 0.7267 -0.4886
vn 0.5886 -0.7346 -0.3374
vn -0.8291 0.0062 0.5590
vn -0.8801 -0.0063 0.4748
vn -0.7705 -0.0000 0.6374
vn -0.6314 -0.0000 0.7755
vn -0.4679 -0.0000 0.8838
vn -0.2865 -0.0000 0.9581
vn -0.0941 -0.0024 0.9956
vn -0.0767 -0.0000 0.9971
vn 0.1019 -0.0003 0.9948
vn 0.2940 -0.0000 0.9558
vn 0.0993 -0.0000 0.9951
vn -0.9807 -0.0000 0.1956
vn 0.2319 0.2314 0.9448
vn -0.9786 0.0001 0.2060
vn 0.1622 -0.6169 0.7702
vn -0.9785 -0.0001 0.2063
vn 0.1622 -0.6169 0.7701
vn 0.2061 -0.0000 0.9785
vn -0.2060 -0.0114 -0.9785
vn -0.2050 0.0980 -0.9738
vn -0.1972 0.2903 -0.9364
vn -0.1817 0.4714 -0.8630
vn -0.1593 0.6344 -0.7564
vn -0.1307 0.7730 -0.6208
vn -0.0971 0.8819 -0.4613
vn 0.9777 -0.0002 -0.2099
vn -0.0598 0.9569 -0.2841
vn -0.0202 0.9952 -0.0959
vn 0.0202 0.9952 0.0959
vn 0.0598 0.9569 0.2841
vn 0.0971 0.8819 0.4613
vn -0.9785 0.0004 0.2063
vn 0.1971 0.2903 0.9364
vn 0.2050 0.0980 0.9738
vn 0.2060 -0.0114 0.9785
vn 0.1971 -0.2903 0.9364
vn 0.1817 -0.4714 0.8630
vn 0.1593 -0.6344 0.7564
vn 0.1307 -0.7730 0.6208
vn 0.0971 -0.8819 0.4613
vn 0.0598 -0.9569 0.2841
vn 0.0202 -0.9952 0.0959
vn -0.0202 -0.9952 -0.0959
vn -0.0598 -0.9569 -0.2840
vn -0.0971 -0.8819 -0.4613
vn -0.1307 -0.7730 -0.6208
vn -0.1593 -0.6344 -0.7564
vn -0.1817 -0.4714 -0.8630
vn -0.1972 -0.2903 -0.9364
vn -0.2060 -0.0000 -0.9786
vn -0.1621 -0.6169 -0.7702
vn -0.0202 -0.9952 -0.0960
vn 0.0202 -0.9952 0.0960
vn 0.9777 -0.0001 -0.2100
vn -0.0598 -0.9569 -0.2841
vn -0.1593 -0.6345 -0.7564
vn -0.2050 -0.0980 -0.9738
vn -0.1593 0.6344 -0.7565
vn 0.0598 -0.9569 0.2840
vn 0.0598 -0.9570 0.2840
vn 0.1972 -0.2903 0.9364
vn 0.2050 -0.0980 0.9738
vn 0.9777 0.0001 -0.2099
vn -0.9785 -0.0000 0.2064
vn 0.1972 0.2903 0.9364
vn 0.0202 0.9952 0.0958
vn -0.0202 0.9952 -0.0958
vn -0.2050 0.0981 -0.9738
vn -0.2050 -0.0981 -0.9738
vn -0.9786 -0.0000 0.2057
vn -0.0971 -0.8819 -0.4614
vn 0.9776 -0.0001 -0.2104
vn 0.0971 -0.8819 0.4614
vn 0.9778 0.0003 -0.2097
vn -0.9558 -0.0000 0.2940
vn -0.8801 -0.0000 0.4748
vn 0.5621 -0.7349 -0.3794
vn -0.9948 -0.0000 0.1019
vn -0.9956 -0.0000 -0.0941
vn -0.9581 -0.0000 -0.2865
vn -0.6374 -0.0000 -0.7705
vn -0.7755 -0.0028 -0.6314
vn -0.4748 -0.0000 -0.8801
vn 0.4584 0.2061 0.8645
vt 0.000000 0.000000
vt 0.841844 0.471731
vt 0.796822 0.485388
vt 0.883337 0.449553
vt 0.750000 0.490000
vt 0.703179 0.485389
vt 0.949553 0.116663
vt 0.971731 0.158156
vt 0.919706 0.080294
vt 0.883337 0.050447
vt 0.514612 0.296822
vt 0.510000 0.250000
vt 0.528269 0.341844
vt 0.550447 0.383337
vt 0.841844 0.028269
vt 0.580295 0.419706
vt 0.796822 0.014612
vt 0.616663 0.449553
vt 0.750000 0.010000
vt 0.658156 0.471731
vt 0.703178 0.014612
vt 0.919706 0.419706
vt 0.658156 0.028269
vt 0.949553 0.383337
vt 0.616663 0.050447
vt 0.971731 0.341844
vt 0.580294 0.080294
vt 0.985388 0.296822
vt 0.550447 0.116663
vt 0.990000 0.250000
vt 0.528269 0.158156
vt 0.985388 0.203178
vt 0.514611 0.203179
s 0
f 2/1/1 3/1/1 1/1/1
f 2/1/2 1/1/2 6/1/2
f 1/1/3 3/1/3 4/1/3
f 11/1/4 1/1/4 4/1/4
f 8/1/5 5/1/5 1/1/5
f 1/1/5 5/1/5 12/1/5
f 6/1/6 1/1/6 7/1/6 35/1/6
f 12/1/7 7/1/7 1/1/7
f 8/1/5 1/1/5 9/1/5
f 9/1/5 1/1/5 10/1/5
f 10/1/5 1/1/5 11/1/5
f 24/1/8 12/1/8 13/1/8
f 13/1/9 12/1/9 5/1/9
f 12/1/9 14/1/9 22/1/9
f 14/1/9 12/1/9 21/1/9
f 21/1/9 12/1/9 15/1/9
f 15/1/9 12/1/9 23/1/9
f 12/1/9 18/1/9 7/1/9
f 12/1/10 17/1/10 16/1/10
f 12/1/9 16/1/9 26/1/9
f 12/1/11 22/1/11 17/1/11
f 12/1/11 19/1/11 18/1/11
f 12/1/9 20/1/9 19/1/9
f 12/1/9 27/1/9 20/1/9
f 23/1/11 12/1/11 24/1/11
f 12/1/9 26/1/9 25/1/9
f 12/1/11 25/1/11 27/1/11
f 27/1/12 25/1/12 29/1/12
f 27/1/13 29/1/13 28/1/13
f 20/1/14 27/1/14 28/1/14
f 29/1/15 31/1/15 28/1/15
f 25/1/16 30/1/16 29/1/16
f 30/1/17 31/1/17 29/1/17
f 32/1/17 48/1/17 31/1/17
f 31/1/17 33/1/17 32/1/17
f 31/1/17 39/1/17 33/1/17
f 48/1/17 34/1/17 31/1/17
f 35/1/17 31/1/17 34/1/17
f 37/1/17 31/1/17 35/1/17
f 38/1/17 31/1/17 36/1/17
f 36/1/17 31/1/17 30/1/17
f 40/1/15 31/1/15 37/1/15
f 31/1/15 38/1/15 47/1/15
f 31/1/15 41/1/15 39/1/15
f 28/1/18 31/1/18 40/1/18
f 31/1/15 42/1/15 41/1/15
f 31/1/17 43/1/17 42/1/17
f 31/1/15 44/1/15 43/1/15
f 31/1/17 45/1/17 44/1/17
f 31/1/15 46/1/15 45/1/15
f 31/1/17 47/1/17 46/1/17
f 32/1/17 49/1/17 48/1/17
f 34/1/17 48/1/17 2/1/17
f 48/1/19 49/1/19 3/1/19
f 48/1/20 3/1/20 2/1/20
f 56/1/21 50/1/21 49/1/21
f 50/1/22 57/1/22 49/1/22
f 49/1/17 32/1/17 51/1/17
f 52/1/23 49/1/23 51/1/23
f 52/1/24 53/1/24 49/1/24
f 53/1/25 54/1/25 49/1/25
f 49/1/26 57/1/26 3/1/26
f 54/1/27 55/1/27 49/1/27
f 55/1/28 56/1/28 49/1/28
f 3/1/29 57/1/29 58/1/29
f 57/2/30 59/2/30 60/3/30 58/3/30
f 50/4/31 61/4/31 59/2/31 57/2/31
f 59/2/32 62/2/32 63/3/32 60/3/32
f 61/4/33 64/4/33 62/2/33 59/2/33
f 62/2/34 65/2/34 66/3/34 63/3/34
f 64/4/35 67/4/35 65/2/35 62/2/35
f 65/2/36 68/2/36 69/3/36 66/3/36
f 67/4/37 70/4/37 68/2/37 65/2/37
f 68/2/38 71/2/38 69/3/38
f 70/4/38 71/4/38 68/2/38
f 72/5/38 71/5/38 87/6/38
f 69/3/38 71/3/38 72/5/38
f 73/7/38 71/7/38 99/8/38
f 74/9/38 71/9/38 73/7/38
f 77/10/38 71/10/38 74/9/38
f 75/11/38 71/11/38 100/12/38
f 76/13/38 71/13/38 75/11/38
f 78/14/38 71/14/38 76/13/38
f 79/15/38 71/15/38 77/10/38
f 80/16/38 71/16/38 78/14/38
f 81/17/38 71/17/38 79/15/38
f 82/18/38 71/18/38 80/16/38
f 83/19/38 71/19/38 81/17/38
f 84/20/38 71/20/38 82/18/38
f 85/21/38 71/21/38 83/19/38
f 86/22/38 71/22/38 70/4/38
f 87/6/38 71/6/38 84/20/38
f 88/23/38 71/23/38 85/21/38
f 89/24/38 71/24/38 86/22/38
f 90/25/38 71/25/38 88/23/38
f 91/26/38 71/26/38 89/24/38
f 92/27/39 71/27/39 90/25/39
f 93/28/38 71/28/38 91/26/38
f 94/29/38 71/29/38 92/27/38
f 95/30/38 71/30/38 93/28/38
f 96/31/38 71/31/38 94/29/38
f 97/32/38 71/32/38 95/30/38
f 98/33/38 71/33/38 96/31/38
f 99/8/38 71/8/38 97/32/38
f 100/12/38 71/12/38 98/33/38
f 101/12/40 100/12/40 98/33/40 102/33/40
f 103/11/41 75/11/41 100/12/41 101/12/41
f 104/12/42 101/12/42 102/33/42 106/33/42
f 107/11/43 103/11/43 101/12/43 104/12/43
f 108/11/44 107/11/44 104/12/44 105/12/44
f 105/12/45 104/12/45 106/33/45 144/33/45
f 110/13/46 109/13/46 107/11/46 108/11/46
f 109/13/47 112/13/47 103/11/47 107/11/47
f 137/14/48 111/14/48 109/13/48 110/13/48
f 111/14/49 113/14/49 112/13/49 109/13/49
f 112/13/50 76/13/50 75/11/50 103/11/50
f 113/14/51 78/14/51 76/13/51 112/13/51
f 114/16/52 80/16/52 78/14/52 113/14/52
f 116/16/53 114/16/53 113/14/53 111/14/53
f 115/18/54 82/18/54 80/16/54 114/16/54
f 118/18/55 115/18/55 114/16/55 116/16/55
f 119/18/56 118/18/56 116/16/56 117/16/56
f 117/16/57 116/16/57 111/14/57 137/14/57
f 121/20/58 120/20/58 118/18/58 119/18/58
f 120/20/59 123/20/59 115/18/59 118/18/59
f 128/6/60 122/6/60 120/20/60 121/20/60
f 122/6/61 124/6/61 123/20/61 120/20/61
f 123/20/62 84/20/62 82/18/62 115/18/62
f 124/6/63 87/6/63 84/20/63 123/20/63
f 125/5/64 72/5/64 87/6/64 124/6/64
f 126/5/65 125/5/65 124/6/65 122/6/65
f 66/3/66 69/3/66 72/5/66 125/5/66
f 63/3/67 66/3/67 125/5/67 126/5/67
f 60/3/68 63/3/68 126/5/68 127/5/68
f 127/5/69 126/5/69 122/6/69 128/6/69
f 58/3/70 60/3/70 127/5/70 129/5/70
f 129/5/71 127/5/71 128/6/71 130/6/71
f 130/1/72 3/1/72 129/1/72
f 3/1/73 58/1/73 129/1/73
f 130/1/74 131/1/74 3/1/74
f 130/6/75 128/6/75 121/20/75 131/20/75
f 131/1/76 132/1/76 3/1/76
f 131/20/77 121/20/77 119/18/77 132/18/77
f 3/1/78 132/1/78 4/1/78
f 132/1/79 133/1/79 4/1/79
f 132/18/80 119/18/80 117/16/80 133/16/80
f 135/1/81 134/1/81 133/1/81
f 4/1/82 133/1/82 134/1/82
f 133/16/83 117/16/83 137/14/83 135/14/83
f 136/1/84 134/1/84 135/1/84
f 135/14/85 137/14/85 110/13/85 136/13/85
f 139/1/86 138/1/86 136/1/86
f 138/1/87 134/1/87 136/1/87
f 136/13/88 110/13/88 108/11/88 139/11/88
f 140/1/89 138/1/89 139/1/89
f 139/11/90 108/11/90 105/12/90 140/12/90
f 142/1/91 141/1/91 140/1/91
f 141/1/92 138/1/92 140/1/92
f 140/12/93 105/12/93 144/33/93 142/33/93
f 143/1/94 141/1/94 142/1/94
f 142/33/95 144/33/95 145/31/95 143/31/95
f 144/33/96 106/33/96 147/31/96 145/31/96
f 145/31/97 147/31/97 148/29/97 146/29/97
f 143/31/98 145/31/98 146/29/98 165/29/98
f 147/31/99 149/31/99 150/29/99 148/29/99
f 106/33/100 102/33/100 149/31/100 147/31/100
f 149/31/101 96/31/101 94/29/101 150/29/101
f 102/33/102 98/33/102 96/31/102 149/31/102
f 150/29/103 94/29/103 92/27/103 151/27/103
f 148/29/104 150/29/104 151/27/104 153/27/104
f 151/27/105 92/27/105 90/25/105 152/25/105
f 153/27/106 151/27/106 152/25/106 155/25/106
f 154/27/107 153/27/107 155/25/107 157/25/107
f 146/29/108 148/29/108 153/27/108 154/27/108
f 155/25/109 152/25/109 178/23/109 156/23/109
f 157/25/110 155/25/110 156/23/110 158/23/110
f 159/25/111 157/25/111 158/23/111 162/23/111
f 163/27/112 154/27/112 157/25/112 159/25/112
f 159/1/113 160/1/113 163/1/113
f 161/1/114 160/1/114 159/1/114
f 162/1/115 161/1/115 159/1/115
f 164/1/116 163/1/116 160/1/116
f 165/1/117 163/1/117 164/1/117
f 165/29/118 146/29/118 154/27/118 163/27/118
f 164/1/119 166/1/119 165/1/119
f 165/1/120 166/1/120 143/1/120
f 164/1/121 9/1/121 166/1/121
f 141/1/122 166/1/122 9/1/122
f 166/1/123 141/1/123 143/1/123
f 9/1/124 164/1/124 160/1/124
f 167/1/125 161/1/125 162/1/125
f 162/1/126 168/1/126 167/1/126
f 162/23/127 158/23/127 172/21/127 168/21/127
f 169/1/128 168/1/128 170/1/128
f 167/1/129 168/1/129 169/1/129
f 170/1/130 168/1/130 171/1/130
f 168/21/131 172/21/131 173/19/131 171/19/131
f 172/21/132 174/21/132 175/19/132 173/19/132
f 158/23/133 156/23/133 174/21/133 172/21/133
f 174/21/134 176/21/134 177/19/134 175/19/134
f 156/23/135 178/23/135 176/21/135 174/21/135
f 176/21/136 85/21/136 83/19/136 177/19/136
f 178/23/137 88/23/137 85/21/137 176/21/137
f 152/25/138 90/25/138 88/23/138 178/23/138
f 177/19/139 83/19/139 81/17/139 179/17/139
f 175/19/140 177/19/140 179/17/140 181/17/140
f 179/17/141 81/17/141 79/15/141 180/15/141
f 181/17/142 179/17/142 180/15/142 183/15/142
f 173/19/143 175/19/143 181/17/143 182/17/143
f 182/17/144 181/17/144 183/15/144 184/15/144
f 184/15/145 183/15/145 185/10/145 186/10/145
f 183/15/146 180/15/146 188/10/146 185/10/146
f 186/10/147 185/10/147 187/9/147 224/9/147
f 185/10/148 188/10/148 189/9/148 187/9/148
f 188/10/149 77/10/149 74/9/149 189/9/149
f 180/15/150 79/15/150 77/10/150 188/10/150
f 189/9/151 74/9/151 73/7/151 190/7/151
f 187/9/152 189/9/152 190/7/152 192/7/152
f 190/7/153 73/7/153 99/8/153 191/8/153
f 192/7/154 190/7/154 191/8/154 194/8/154
f 224/9/155 187/9/155 192/7/155 193/7/155
f 193/7/156 192/7/156 194/8/156 195/8/156
f 195/8/157 194/8/157 196/32/157 197/32/157
f 194/8/158 191/8/158 199/32/158 196/32/158
f 197/32/159 196/32/159 198/30/159 213/30/159
f 196/32/160 199/32/160 200/30/160 198/30/160
f 199/32/161 97/32/161 95/30/161 200/30/161
f 191/8/162 99/8/162 97/32/162 199/32/162
f 200/30/163 95/30/163 93/28/163 201/28/163
f 198/30/164 200/30/164 201/28/164 203/28/164
f 201/28/165 93/28/165 91/26/165 202/26/165
f 203/28/166 201/28/166 202/26/166 205/26/166
f 213/30/167 198/30/167 203/28/167 204/28/167
f 204/28/168 203/28/168 205/26/168 206/26/168
f 206/26/169 205/26/169 207/24/169 210/24/169
f 205/26/170 202/26/170 208/24/170 207/24/170
f 207/24/171 208/24/171 212/22/171 209/22/171
f 210/24/172 207/24/172 209/22/172 211/22/172
f 55/24/173 210/24/173 211/22/173 56/22/173
f 54/26/174 206/26/174 210/24/174 55/24/174
f 211/22/175 209/22/175 64/4/175 61/4/175
f 56/22/176 211/22/176 61/4/176 50/4/176
f 209/22/177 212/22/177 67/4/177 64/4/177
f 212/22/178 86/22/178 70/4/178 67/4/178
f 208/24/179 89/24/179 86/22/179 212/22/179
f 202/26/180 91/26/180 89/24/180 208/24/180
f 214/28/181 204/28/181 206/26/181 54/26/181
f 215/30/182 213/30/182 204/28/182 214/28/182
f 215/1/183 214/1/183 53/1/183
f 214/1/184 54/1/184 53/1/184
f 216/1/185 215/1/185 53/1/185
f 217/1/186 215/1/186 216/1/186
f 217/32/187 197/32/187 213/30/187 215/30/187
f 217/1/188 216/1/188 218/1/188
f 218/8/189 195/8/189 197/32/189 217/32/189
f 216/1/190 219/1/190 218/1/190
f 218/1/191 219/1/191 220/1/191
f 220/7/192 193/7/192 195/8/192 218/8/192
f 220/1/193 219/1/193 221/1/193
f 221/9/194 224/9/194 193/7/194 220/7/194
f 221/1/195 219/1/195 222/1/195
f 221/1/196 222/1/196 223/1/196
f 223/10/197 186/10/197 224/9/197 221/9/197
f 223/1/198 222/1/198 225/1/198
f 223/1/199 225/1/199 226/1/199
f 226/15/200 184/15/200 186/10/200 223/10/200
f 226/1/201 227/1/201 228/1/201
f 226/1/202 225/1/202 227/1/202
f 228/17/203 182/17/203 184/15/203 226/15/203
f 228/1/204 227/1/204 229/1/204
f 228/1/205 229/1/205 230/1/205
f 228/1/206 230/1/206 171/1/206
f 171/19/207 173/19/207 182/17/207 228/17/207
f 171/1/208 230/1/208 231/1/208
f 232/1/209 231/1/209 230/1/209
f 232/1/210 230/1/210 233/1/210
f 230/1/211 229/1/211 234/1/211
f 230/1/211 234/1/211 233/1/211
f 234/1/212 227/1/212 235/1/212
f 235/1/5 233/1/5 234/1/5
f 234/1/212 229/1/212 227/1/212
f 235/1/213 227/1/213 225/1/213
f 235/1/213 225/1/213 238/1/213
f 235/1/5 8/1/5 233/1/5
f 236/1/5 8/1/5 235/1/5
f 236/1/5 235/1/5 237/1/5
f 237/1/5 235/1/5 238/1/5
f 238/1/214 222/1/214 237/1/214
f 238/1/214 225/1/214 222/1/214
f 236/1/5 237/1/5 239/1/5
f 237/1/215 219/1/215 239/1/215
f 237/1/216 222/1/216 219/1/216
f 219/1/217 236/1/217 239/1/217
f 236/1/218 216/1/218 53/1/218
f 236/1/218 53/1/218 52/1/218
f 236/1/219 219/1/219 216/1/219
f 8/1/5 236/1/5 5/1/5
f 236/1/220 240/1/220 5/1/220
f 33/1/221 240/1/221 236/1/221 52/1/221
f 241/1/9 478/1/9 251/1/9 240/1/9
f 240/1/9 242/1/9 241/1/9
f 240/1/9 243/1/9 242/1/9
f 240/1/9 244/1/9 243/1/9
f 7/1/9 240/1/9 253/1/9
f 7/1/9 249/1/9 240/1/9
f 240/1/9 245/1/9 244/1/9
f 240/1/9 246/1/9 245/1/9
f 240/1/9 247/1/9 246/1/9
f 240/1/9 248/1/9 247/1/9
f 240/1/9 252/1/9 248/1/9
f 240/1/222 249/1/222 252/1/222
f 240/1/223 33/1/223 254/1/223
f 250/1/9 5/1/9 240/1/9
f 250/1/224 240/1/224 251/1/224
f 240/1/225 254/1/225 253/1/225
f 259/1/17 255/1/17 254/1/17
f 254/1/17 255/1/17 256/1/17
f 254/1/17 256/1/17 257/1/17
f 254/1/17 257/1/17 258/1/17
f 254/1/17 258/1/17 261/1/17
f 33/1/17 259/1/17 254/1/17
f 253/1/226 254/1/226 260/1/226
f 261/1/17 260/1/17 254/1/17
f 262/1/17 260/1/17 261/1/17
f 263/1/227 262/1/227 261/1/227
f 264/1/228 263/1/228 261/1/228
f 264/1/228 261/1/228 258/1/228
f 264/1/9 253/1/9 263/1/9
f 265/1/229 264/1/229 258/1/229
f 265/1/9 253/1/9 264/1/9
f 266/1/9 253/1/9 265/1/9
f 266/1/230 265/1/230 257/1/230
f 265/1/229 258/1/229 257/1/229
f 267/1/231 266/1/231 256/1/231
f 267/1/9 253/1/9 266/1/9
f 266/1/230 257/1/230 256/1/230
f 268/1/232 267/1/232 255/1/232
f 268/1/9 253/1/9 267/1/9
f 267/1/231 256/1/231 255/1/231
f 269/1/233 268/1/233 270/1/233
f 269/1/9 253/1/9 268/1/9
f 268/1/232 255/1/232 270/1/232
f 259/1/17 271/1/17 270/1/17
f 259/1/234 270/1/234 255/1/234
f 269/1/233 270/1/233 271/1/233
f 259/1/17 272/1/17 271/1/17
f 273/1/235 271/1/235 272/1/235
f 273/1/235 269/1/235 271/1/235
f 253/1/9 273/1/9 274/1/9
f 274/1/236 273/1/236 272/1/236
f 273/1/9 253/1/9 269/1/9
f 276/1/237 274/1/237 275/1/237
f 274/1/236 272/1/236 275/1/236
f 253/1/9 274/1/9 276/1/9
f 276/1/237 275/1/237 278/1/237
f 277/1/238 276/1/238 278/1/238
f 253/1/9 276/1/9 277/1/9
f 259/1/17 278/1/17 275/1/17
f 278/1/17 259/1/17 279/1/17
f 277/1/238 278/1/238 279/1/238
f 279/1/17 259/1/17 280/1/17
f 281/1/239 279/1/239 280/1/239
f 281/1/239 277/1/239 279/1/239
f 253/1/9 277/1/9 281/1/9
f 282/1/16 281/1/16 280/1/16
f 253/1/240 281/1/240 282/1/240
f 284/1/9 282/1/9 283/1/9
f 283/1/12 282/1/12 285/1/12
f 253/1/9 282/1/9 284/1/9
f 282/1/16 280/1/16 285/1/16
f 280/1/17 259/1/17 285/1/17
f 285/1/17 259/1/17 286/1/17
f 283/1/12 285/1/12 286/1/12
f 286/1/17 259/1/17 288/1/17
f 287/1/14 283/1/14 286/1/14
f 287/1/14 286/1/14 288/1/14
f 288/1/17 259/1/17 289/1/17
f 290/1/241 288/1/241 289/1/241
f 290/1/241 287/1/241 288/1/241
f 291/1/242 290/1/242 289/1/242
f 284/1/9 287/1/9 290/1/9
f 284/1/9 290/1/9 291/1/9
f 293/1/9 292/1/9 291/1/9
f 291/1/9 292/1/9 284/1/9
f 293/1/243 291/1/243 294/1/243
f 291/1/242 289/1/242 294/1/242
f 289/1/17 259/1/17 294/1/17
f 295/1/17 294/1/17 259/1/17
f 295/1/17 296/1/17 294/1/17
f 293/1/243 294/1/243 296/1/243
f 298/1/244 296/1/244 297/1/244
f 295/1/17 297/1/17 296/1/17
f 298/1/244 293/1/244 296/1/244
f 299/1/9 292/1/9 298/1/9
f 298/1/9 292/1/9 293/1/9
f 299/1/245 298/1/245 297/1/245
f 301/1/9 292/1/9 299/1/9
f 299/1/245 297/1/245 300/1/245
f 301/1/246 299/1/246 300/1/246
f 303/1/9 292/1/9 301/1/9
f 301/1/246 300/1/246 302/1/246
f 303/1/247 301/1/247 302/1/247
f 305/1/248 303/1/248 304/1/248
f 303/1/247 302/1/247 304/1/247
f 305/1/9 292/1/9 303/1/9
f 305/1/248 304/1/248 306/1/248
f 307/1/9 292/1/9 305/1/9
f 307/1/249 305/1/249 306/1/249
f 309/1/9 292/1/9 307/1/9
f 307/1/249 306/1/249 308/1/249
f 309/1/250 307/1/250 308/1/250
f 292/1/9 309/1/9 311/1/9
f 309/1/250 308/1/250 312/1/250
f 310/1/251 309/1/251 312/1/251
f 311/1/9 309/1/9 310/1/9
f 260/1/17 312/1/17 295/1/17
f 295/1/17 312/1/17 308/1/17
f 312/1/17 260/1/17 313/1/17
f 310/1/251 312/1/251 313/1/251
f 315/1/252 313/1/252 314/1/252
f 313/1/17 260/1/17 314/1/17
f 315/1/252 310/1/252 313/1/252
f 316/1/253 315/1/253 314/1/253
f 311/1/9 315/1/9 316/1/9
f 311/1/9 310/1/9 315/1/9
f 317/1/254 316/1/254 318/1/254
f 311/1/9 316/1/9 317/1/9
f 316/1/253 314/1/253 318/1/253
f 314/1/17 260/1/17 318/1/17
f 317/1/254 318/1/254 319/1/254
f 318/1/17 260/1/17 319/1/17
f 319/1/17 260/1/17 320/1/17
f 321/1/255 319/1/255 320/1/255
f 321/1/255 317/1/255 319/1/255
f 322/1/256 321/1/256 320/1/256
f 311/1/9 321/1/9 322/1/9
f 311/1/9 317/1/9 321/1/9
f 323/1/257 322/1/257 324/1/257
f 311/1/9 322/1/9 323/1/9
f 322/1/256 320/1/256 324/1/256
f 323/1/257 324/1/257 262/1/257
f 324/1/17 260/1/17 262/1/17
f 320/1/17 260/1/17 324/1/17
f 263/1/227 323/1/227 262/1/227
f 311/1/9 323/1/9 263/1/9
f 292/1/5 311/1/5 260/1/5
f 253/1/226 260/1/226 311/1/226
f 311/1/9 263/1/9 253/1/9
f 295/1/17 308/1/17 306/1/17
f 295/1/17 306/1/17 304/1/17
f 295/1/17 304/1/17 302/1/17
f 295/1/17 302/1/17 300/1/17
f 295/1/17 300/1/17 297/1/17
f 259/1/258 292/1/258 295/1/258
f 292/1/5 260/1/5 295/1/5
f 259/1/258 284/1/258 292/1/258
f 284/1/9 283/1/9 287/1/9
f 35/1/259 284/1/259 259/1/259
f 35/1/259 7/1/259 284/1/259
f 7/1/9 253/1/9 284/1/9
f 259/1/17 275/1/17 272/1/17
f 33/1/17 35/1/17 259/1/17
f 248/1/260 252/1/260 326/1/260
f 252/1/261 249/1/261 325/1/261
f 252/1/261 325/1/261 326/1/261
f 248/1/260 326/1/260 327/1/260
f 35/1/262 327/1/262 326/1/262
f 35/1/17 326/1/17 325/1/17
f 247/1/252 248/1/252 327/1/252
f 35/1/17 33/1/17 327/1/17
f 327/1/17 33/1/17 328/1/17
f 247/1/263 327/1/263 328/1/263
f 328/1/17 33/1/17 329/1/17
f 246/1/253 328/1/253 329/1/253
f 246/1/253 247/1/253 328/1/253
f 329/1/17 33/1/17 330/1/17
f 245/1/254 246/1/254 329/1/254
f 245/1/254 329/1/254 330/1/254
f 244/1/264 245/1/264 330/1/264
f 244/1/255 330/1/255 331/1/255
f 330/1/17 33/1/17 331/1/17
f 243/1/256 244/1/256 331/1/256
f 331/1/15 33/1/15 332/1/15
f 243/1/256 331/1/256 332/1/256
f 242/1/257 332/1/257 333/1/257
f 332/1/17 33/1/17 333/1/17
f 242/1/257 243/1/257 332/1/257
f 333/1/17 33/1/17 334/1/17
f 241/1/265 333/1/265 334/1/265
f 241/1/265 242/1/265 333/1/265
f 33/1/17 335/1/17 334/1/17
f 336/1/228 334/1/228 335/1/228
f 336/1/228 241/1/228 334/1/228
f 336/1/9 478/1/9 241/1/9
f 338/1/11 337/1/11 336/1/11
f 336/1/10 337/1/10 478/1/10
f 338/1/229 336/1/229 335/1/229
f 338/1/229 335/1/229 339/1/229
f 340/1/230 338/1/230 339/1/230
f 338/1/11 341/1/11 337/1/11
f 340/1/10 341/1/10 338/1/10
f 341/1/256 344/1/256 342/1/256
f 341/1/256 342/1/256 343/1/256
f 337/1/257 341/1/257 343/1/257
f 340/1/10 344/1/10 341/1/10
f 344/1/255 347/1/255 342/1/255
f 346/1/10 345/1/10 344/1/10
f 344/1/264 345/1/264 347/1/264
f 346/1/10 344/1/10 340/1/10
f 345/1/254 348/1/254 347/1/254
f 349/1/17 347/1/17 348/1/17
f 350/1/17 347/1/17 349/1/17
f 350/1/17 342/1/17 347/1/17
f 352/1/232 350/1/232 349/1/232
f 351/1/17 342/1/17 350/1/17
f 346/1/266 351/1/266 350/1/266
f 352/1/232 346/1/232 350/1/232
f 352/1/11 354/1/11 345/1/11
f 352/1/11 345/1/11 346/1/11
f 353/1/10 354/1/10 352/1/10
f 353/1/233 352/1/233 349/1/233
f 353/1/10 356/1/10 354/1/10
f 354/1/253 356/1/253 355/1/253
f 354/1/253 355/1/253 348/1/253
f 345/1/254 354/1/254 348/1/254
f 356/1/252 359/1/252 357/1/252
f 356/1/252 357/1/252 355/1/252
f 358/1/9 359/1/9 356/1/9
f 358/1/9 356/1/9 353/1/9
f 359/1/260 362/1/260 357/1/260
f 361/1/9 359/1/9 358/1/9
f 361/1/9 360/1/9 359/1/9
f 359/1/260 360/1/260 362/1/260
f 364/1/17 362/1/17 363/1/17
f 363/1/17 362/1/17 365/1/17
f 364/1/17 357/1/17 362/1/17
f 360/1/261 365/1/261 362/1/261
f 363/1/15 365/1/15 367/1/15
f 368/1/267 366/1/267 365/1/267
f 367/1/15 365/1/15 366/1/15
f 360/1/261 368/1/261 365/1/261
f 369/1/9 368/1/9 360/1/9
f 371/1/9 368/1/9 369/1/9
f 371/1/9 370/1/9 368/1/9
f 368/1/268 370/1/268 366/1/268
f 371/1/238 369/1/238 363/1/238
f 371/1/238 363/1/238 367/1/238
f 372/1/9 370/1/9 371/1/9
f 372/1/239 371/1/239 367/1/239
f 375/1/16 372/1/16 373/1/16
f 372/1/239 367/1/239 373/1/239
f 372/1/9 374/1/9 370/1/9
f 375/1/9 374/1/9 372/1/9
f 378/1/9 376/1/9 375/1/9
f 375/1/9 376/1/9 374/1/9
f 375/1/16 373/1/16 377/1/16
f 378/1/13 375/1/13 377/1/13
f 380/1/14 378/1/14 379/1/14
f 378/1/13 377/1/13 379/1/13
f 378/1/9 381/1/9 376/1/9
f 380/1/11 381/1/11 378/1/11
f 376/1/246 381/1/246 382/1/246
f 381/1/245 384/1/245 382/1/245
f 380/1/11 383/1/11 381/1/11
f 381/1/245 383/1/245 384/1/245
f 35/1/17 382/1/17 384/1/17
f 35/1/17 384/1/17 385/1/17
f 383/1/244 385/1/244 384/1/244
f 35/1/15 385/1/15 387/1/15
f 383/1/269 386/1/269 385/1/269
f 386/1/270 387/1/270 385/1/270
f 386/1/270 389/1/270 387/1/270
f 388/1/271 35/1/271 387/1/271
f 389/1/242 388/1/242 387/1/242
f 386/1/11 7/1/11 389/1/11
f 390/1/272 391/1/272 389/1/272
f 390/1/9 389/1/9 7/1/9
f 389/1/242 391/1/242 388/1/242
f 391/1/273 393/1/273 392/1/273
f 391/1/273 392/1/273 388/1/273
f 391/1/10 390/1/10 393/1/10
f 393/1/14 395/1/14 392/1/14
f 393/1/11 390/1/11 394/1/11
f 393/1/14 394/1/14 395/1/14
f 395/1/17 398/1/17 392/1/17
f 397/1/15 396/1/15 395/1/15
f 395/1/15 396/1/15 398/1/15
f 394/1/13 397/1/13 395/1/13
f 401/1/246 399/1/246 398/1/246
f 399/1/245 400/1/245 398/1/245
f 392/1/18 398/1/18 400/1/18
f 401/1/246 398/1/246 396/1/246
f 404/1/11 399/1/11 401/1/11
f 403/1/9 401/1/9 402/1/9
f 402/1/247 401/1/247 396/1/247
f 404/1/9 401/1/9 403/1/9
f 405/1/9 399/1/9 404/1/9
f 405/1/16 404/1/16 406/1/16
f 404/1/239 407/1/239 406/1/239
f 404/1/239 403/1/239 407/1/239
f 407/1/17 408/1/17 406/1/17
f 407/1/17 409/1/17 408/1/17
f 410/1/15 409/1/15 407/1/15
f 403/1/238 410/1/238 407/1/238
f 410/1/15 413/1/15 409/1/15
f 412/1/274 411/1/274 410/1/274
f 411/1/17 413/1/17 410/1/17
f 403/1/238 412/1/238 410/1/238
f 414/1/260 416/1/260 413/1/260
f 414/1/260 413/1/260 415/1/260
f 411/1/17 415/1/17 413/1/17
f 416/1/261 409/1/261 413/1/261
f 416/1/261 417/1/261 409/1/261
f 419/1/11 417/1/11 416/1/11
f 419/1/9 416/1/9 418/1/9
f 418/1/9 416/1/9 414/1/9
f 421/1/9 417/1/9 419/1/9
f 419/1/235 422/1/235 420/1/235
f 421/1/275 419/1/275 420/1/275
f 419/1/235 418/1/235 422/1/235
f 425/1/17 423/1/17 422/1/17
f 422/1/17 423/1/17 424/1/17
f 422/1/17 424/1/17 420/1/17
f 418/1/233 425/1/233 422/1/233
f 427/1/17 426/1/17 425/1/17
f 425/1/17 426/1/17 423/1/17
f 428/1/232 427/1/232 425/1/232
f 418/1/233 428/1/233 425/1/233
f 418/1/10 414/1/10 428/1/10
f 428/1/9 414/1/9 429/1/9
f 428/1/11 429/1/11 430/1/11
f 428/1/232 430/1/232 427/1/232
f 430/1/266 433/1/266 431/1/266
f 430/1/266 431/1/266 427/1/266
f 430/1/9 429/1/9 432/1/9
f 430/1/10 432/1/10 433/1/10
f 433/1/230 435/1/230 431/1/230
f 433/1/9 432/1/9 434/1/9
f 433/1/10 434/1/10 436/1/10
f 433/1/230 436/1/230 435/1/230
f 436/1/11 434/1/11 438/1/11
f 436/1/229 439/1/229 435/1/229
f 436/1/229 437/1/229 439/1/229
f 436/1/11 438/1/11 437/1/11
f 439/1/18 440/1/18 435/1/18
f 440/1/17 439/1/17 33/1/17
f 33/1/17 439/1/17 441/1/17
f 437/1/228 441/1/228 439/1/228
f 442/1/17 33/1/17 441/1/17
f 478/1/265 442/1/265 441/1/265
f 437/1/276 478/1/276 441/1/276
f 337/1/257 343/1/257 442/1/257
f 339/1/18 442/1/18 343/1/18
f 442/1/17 335/1/17 33/1/17
f 335/1/18 442/1/18 339/1/18
f 478/1/277 337/1/277 442/1/277
f 445/1/257 443/1/257 440/1/257
f 435/1/15 440/1/15 443/1/15
f 440/1/17 33/1/17 444/1/17
f 251/1/265 440/1/265 444/1/265
f 251/1/265 445/1/265 440/1/265
f 445/1/257 446/1/257 443/1/257
f 478/1/11 446/1/11 445/1/11
f 478/1/278 445/1/278 251/1/278
f 446/1/256 447/1/256 443/1/256
f 437/1/10 438/1/10 446/1/10
f 437/1/10 446/1/10 478/1/10
f 446/1/256 438/1/256 447/1/256
f 427/1/17 447/1/17 426/1/17
f 438/1/255 426/1/255 447/1/255
f 431/1/17 447/1/17 427/1/17
f 431/1/17 443/1/17 447/1/17
f 33/1/17 39/1/17 444/1/17
f 250/1/228 444/1/228 39/1/228
f 250/1/228 251/1/228 444/1/228
f 435/1/15 443/1/15 431/1/15
f 438/1/255 434/1/255 426/1/255
f 434/1/254 423/1/254 426/1/254
f 434/1/254 432/1/254 423/1/254
f 432/1/279 424/1/279 423/1/279
f 432/1/253 429/1/253 424/1/253
f 429/1/252 415/1/252 424/1/252
f 429/1/252 414/1/252 415/1/252
f 420/1/15 424/1/15 415/1/15
f 421/1/275 420/1/275 411/1/275
f 412/1/274 421/1/274 411/1/274
f 421/1/10 448/1/10 417/1/10
f 412/1/9 448/1/9 421/1/9
f 448/1/248 402/1/248 449/1/248
f 412/1/9 402/1/9 448/1/9
f 417/1/249 448/1/249 408/1/249
f 448/1/248 449/1/248 408/1/248
f 402/1/247 396/1/247 449/1/247
f 397/1/17 449/1/17 396/1/17
f 406/1/17 449/1/17 397/1/17
f 406/1/17 408/1/17 449/1/17
f 420/1/17 415/1/17 411/1/17
f 417/1/249 408/1/249 409/1/249
f 403/1/9 402/1/9 412/1/9
f 405/1/16 406/1/16 397/1/16
f 405/1/9 450/1/9 399/1/9
f 394/1/13 405/1/13 397/1/13
f 394/1/9 450/1/9 405/1/9
f 399/1/245 450/1/245 400/1/245
f 450/1/269 451/1/269 400/1/269
f 394/1/11 390/1/11 450/1/11
f 450/1/269 390/1/269 451/1/269
f 390/1/270 452/1/270 451/1/270
f 35/1/17 451/1/17 452/1/17
f 35/1/17 400/1/17 451/1/17
f 390/1/270 18/1/270 452/1/270
f 18/1/242 37/1/242 452/1/242
f 37/1/17 35/1/17 452/1/17
f 392/1/17 400/1/17 35/1/17
f 392/1/280 35/1/280 388/1/280
f 390/1/11 7/1/11 18/1/11
f 386/1/9 453/1/9 7/1/9
f 453/1/10 386/1/10 383/1/10
f 456/1/242 453/1/242 454/1/242
f 453/1/273 455/1/273 454/1/273
f 453/1/273 380/1/273 455/1/273
f 453/1/10 383/1/10 380/1/10
f 7/1/10 453/1/10 456/1/10
f 457/1/270 456/1/270 458/1/270
f 457/1/11 7/1/11 456/1/11
f 456/1/242 454/1/242 458/1/242
f 454/1/17 35/1/17 458/1/17
f 35/1/15 459/1/15 458/1/15
f 457/1/270 458/1/270 459/1/270
f 460/1/269 457/1/269 459/1/269
f 460/1/244 459/1/244 461/1/244
f 35/1/17 461/1/17 459/1/17
f 462/1/245 460/1/245 461/1/245
f 462/1/245 461/1/245 463/1/245
f 35/1/17 463/1/17 461/1/17
f 465/1/246 462/1/246 463/1/246
f 465/1/246 463/1/246 464/1/246
f 35/1/17 464/1/17 463/1/17
f 465/1/9 7/1/9 462/1/9
f 466/1/247 465/1/247 464/1/247
f 466/1/9 7/1/9 465/1/9
f 467/1/248 466/1/248 468/1/248
f 467/1/9 7/1/9 466/1/9
f 466/1/247 464/1/247 468/1/247
f 467/1/248 468/1/248 469/1/248
f 35/1/17 469/1/17 468/1/17
f 35/1/17 468/1/17 464/1/17
f 249/1/249 467/1/249 469/1/249
f 249/1/249 469/1/249 325/1/249
f 35/1/262 325/1/262 469/1/262
f 249/1/9 7/1/9 467/1/9
f 462/1/9 7/1/9 460/1/9
f 460/1/9 7/1/9 457/1/9
f 455/1/15 35/1/15 454/1/15
f 380/1/14 379/1/14 455/1/14
f 379/1/17 35/1/17 455/1/17
f 376/1/246 382/1/246 470/1/246
f 35/1/15 470/1/15 382/1/15
f 377/1/17 470/1/17 35/1/17
f 374/1/247 376/1/247 470/1/247
f 374/1/247 470/1/247 471/1/247
f 377/1/17 471/1/17 470/1/17
f 370/1/248 374/1/248 471/1/248
f 373/1/17 471/1/17 377/1/17
f 373/1/17 366/1/17 471/1/17
f 370/1/281 471/1/281 366/1/281
f 377/1/282 35/1/282 379/1/282
f 367/1/17 366/1/17 373/1/17
f 369/1/274 364/1/274 363/1/274
f 369/1/274 361/1/274 364/1/274
f 369/1/9 360/1/9 361/1/9
f 361/1/275 472/1/275 364/1/275
f 472/1/17 357/1/17 364/1/17
f 472/1/17 355/1/17 357/1/17
f 473/1/17 355/1/17 472/1/17
f 358/1/235 473/1/235 472/1/235
f 361/1/275 358/1/275 472/1/275
f 473/1/17 348/1/17 355/1/17
f 349/1/17 348/1/17 473/1/17
f 353/1/233 349/1/233 473/1/233
f 358/1/235 353/1/235 473/1/235
f 351/1/15 343/1/15 342/1/15
f 339/1/15 343/1/15 351/1/15
f 340/1/230 339/1/230 351/1/230
f 346/1/266 340/1/266 351/1/266
f 13/1/229 250/1/229 39/1/229
f 13/1/9 5/1/9 250/1/9
f 233/1/5 8/1/5 232/1/5
f 8/1/283 170/1/283 232/1/283
f 231/1/284 232/1/284 170/1/284
f 170/1/285 171/1/285 231/1/285
f 8/1/283 169/1/283 170/1/283
f 167/1/286 169/1/286 8/1/286
f 161/1/287 167/1/287 474/1/287
f 167/1/286 8/1/286 474/1/286
f 8/1/5 475/1/5 474/1/5
f 161/1/287 474/1/287 475/1/287
f 8/1/5 9/1/5 475/1/5
f 160/1/288 161/1/288 475/1/288
f 160/1/288 475/1/288 476/1/288
f 475/1/5 9/1/5 476/1/5
f 9/1/124 160/1/124 476/1/124
f 141/1/289 10/1/289 138/1/289
f 10/1/289 141/1/289 477/1/289
f 141/1/290 9/1/290 477/1/290
f 9/1/5 10/1/5 477/1/5
f 10/1/291 134/1/291 138/1/291
f 10/1/291 11/1/291 134/1/291
f 11/1/4 4/1/4 134/1/4
f 52/1/292 51/1/292 33/1/292
f 51/1/17 32/1/17 33/1/17
f 17/1/274 22/1/274 47/1/274
f 17/1/274 47/1/274 38/1/274
f 22/1/275 46/1/275 47/1/275
f 14/1/235 45/1/235 46/1/235
f 22/1/275 14/1/275 46/1/275
f 14/1/235 21/1/235 45/1/235
f 21/1/233 44/1/233 45/1/233
f 15/1/232 43/1/232 44/1/232
f 21/1/233 15/1/233 44/1/233
f 23/1/231 42/1/231 43/1/231
f 15/1/232 23/1/232 43/1/232
f 24/1/230 41/1/230 42/1/230
f 23/1/231 24/1/231 42/1/231
f 13/1/229 39/1/229 41/1/229
f 24/1/230 13/1/230 41/1/230
f 20/1/14 28/1/14 40/1/14
f 19/1/273 20/1/273 40/1/273
f 19/1/273 40/1/273 37/1/273
f 16/1/238 17/1/238 38/1/238
f 16/1/238 38/1/238 36/1/238
f 18/1/242 19/1/242 37/1/242
f 26/1/239 16/1/239 36/1/239
f 26/1/239 36/1/239 30/1/239
f 34/1/17 6/1/17 35/1/17
f 34/1/17 2/1/17 6/1/17
f 25/1/16 26/1/16 30/1/16
