# Blender 5.0.1
# www.blender.org
mtllib i02_head_right_eye_vertical_visual_4.mtl
o i02_head_right_eye_vertical_visual.001
v -0.001319 -0.079490 0.013835
v -0.000582 -0.079490 0.014070
v -0.001148 -0.052566 0.013910
v -0.000492 -0.052566 0.014099
v -0.008522 -0.052566 0.014146
v -0.000002 -0.052566 0.014146
v 0.000577 -0.079490 0.014070
v 0.008523 -0.052566 0.014146
v 0.000492 -0.052566 0.014099
v 0.001144 -0.052566 0.013910
v 0.001625 -0.052566 0.013684
v 0.001319 -0.079490 0.013835
v 0.001945 -0.052566 0.013476
v 0.008522 0.052566 0.014146
v 0.003470 0.004712 0.014146
v 0.003559 0.003168 0.014146
v 0.003470 -0.004694 0.014146
v 0.003559 -0.003150 0.014146
v 0.002984 -0.008984 0.014146
v 0.003180 -0.007620 0.014146
v 0.003615 -0.001571 0.014146
v 0.003342 -0.006184 0.014146
v 0.003632 0.000009 0.014146
v 0.003615 0.001589 0.014146
v 0.002763 -0.010276 0.014146
v -0.003184 -0.010276 0.014146
v -0.002929 -0.011443 0.014146
v -0.000211 -0.016200 0.014146
v -0.000586 -0.016110 0.014146
v -0.000961 -0.015876 0.014146
v -0.001327 -0.015500 0.014146
v 0.000164 -0.016110 0.014146
v -0.001681 -0.014961 0.014146
v 0.000539 -0.015876 0.014146
v 0.001600 -0.014279 0.014146
v 0.001259 -0.014961 0.014146
v -0.002494 0.079490 0.012967
v -0.003150 0.052566 0.012307
v -0.002861 0.052566 0.012656
v -0.004220 0.052566 0.010628
v -0.003968 0.052566 0.011090
v -0.003794 0.079490 0.011373
v -0.004548 0.079490 0.009930
v -0.006137 0.052566 0.003951
v -0.006290 0.052566 0.002537
v -0.008522 0.052566 0.014146
v 0.005702 0.079490 0.006366
v 0.005787 0.052566 0.005998
v 0.005920 0.052566 0.005328
v -0.006375 0.052566 0.001094
v 0.005481 0.052566 0.007280
v 0.005302 0.052566 0.007893
v -0.006392 0.052566 -0.000368
v -0.006375 0.052566 -0.001094
v -0.008522 0.052566 -0.014146
v 0.004910 0.052566 0.009063
v -0.006358 0.079490 0.001283
v 0.005187 0.079490 0.008252
v -0.006367 0.079490 -0.001103
v -0.006290 0.052566 -0.002537
v -0.001148 0.052566 -0.013910
v -0.000492 0.052566 -0.014099
v -0.001319 0.079490 -0.013835
v -0.000582 0.079490 -0.014070
v -0.006056 0.079490 -0.004508
v -0.005924 0.052566 -0.005328
v -0.000002 0.052566 -0.014146
v 0.000492 0.052566 -0.014099
v 0.008522 0.052566 -0.014146
v 0.001144 0.052566 -0.013910
v -0.005481 0.052566 -0.007280
v -0.005792 0.052566 -0.005998
v 0.001945 0.052566 -0.013476
v 0.002256 0.052566 -0.013240
v 0.001319 0.079490 -0.013835
v -0.004910 0.052566 -0.009063
v -0.005306 0.052566 -0.007893
v 0.003146 0.052566 -0.012307
v 0.002558 0.052566 -0.012958
v -0.004220 0.052566 -0.010628
v -0.004693 0.052566 -0.009610
v -0.003968 0.052566 -0.011090
v -0.003432 0.052566 -0.011939
v -0.003794 0.079490 -0.011373
v -0.002950 0.079490 -0.012533
v -0.003150 0.052566 -0.012307
v -0.002563 0.052566 -0.012958
v -0.002256 0.052566 -0.013240
v -0.001945 0.052566 -0.013476
v -0.003406 -0.008984 -0.014146
v -0.003406 -0.008984 0.014146
v 0.002256 -0.052566 0.013241
v -0.005775 -0.079490 0.006036
v -0.006337 -0.079490 0.001650
v -0.005187 -0.079490 0.008252
v -0.004548 -0.079490 0.009930
v -0.003794 -0.079490 0.011373
v -0.006388 -0.079490 -0.000547
v 0.006384 -0.079490 -0.000547
v -0.006260 -0.079490 -0.002735
v -0.005971 -0.079490 -0.005026
v -0.005591 -0.079490 -0.006856
v -0.002494 -0.079490 -0.012967
v -0.003794 -0.079490 -0.011364
v -0.004548 -0.079490 -0.009930
v 0.006337 -0.079490 0.001650
v 0.006128 -0.079490 0.003980
v -0.002950 -0.079490 0.012533
v 0.002856 -0.052566 0.012656
v 0.003432 -0.052566 0.011939
v 0.002950 -0.079490 0.012533
v 0.004544 -0.079490 0.009930
v 0.003794 -0.079490 0.011373
v 0.002034 -0.079490 -0.013391
v 0.006260 -0.079490 -0.002735
v 0.001071 -0.079490 -0.013929
v 0.000330 -0.079490 -0.014127
v -0.000334 -0.079490 -0.014127
v -0.001076 -0.079490 -0.013929
v 0.004220 -0.052566 0.010628
v 0.004693 -0.052566 0.009610
v 0.005775 -0.079490 0.006036
v 0.005187 -0.079490 0.008252
v 0.004544 -0.079490 -0.009930
v 0.003794 -0.079490 -0.011364
v 0.005587 -0.079490 -0.006856
v 0.005966 -0.079490 -0.005026
v 0.008523 -0.052566 -0.014146
v 0.004910 -0.052566 0.009063
v 0.005302 -0.052566 0.007893
v 0.005481 -0.052566 0.007280
v 0.005787 -0.052566 0.005998
v 0.005920 -0.052566 0.005328
v 0.001924 -0.013453 -0.014146
v 0.001600 -0.014279 -0.014146
v 0.001924 -0.013453 0.014146
v -0.000961 0.015895 0.014146
v -0.000586 0.016128 -0.014146
v -0.000586 0.016128 0.014146
v -0.000211 0.016200 0.014146
v 0.000905 0.015518 -0.014146
v 0.000905 0.015518 0.014146
v 0.000539 0.015895 0.014146
v 0.001259 0.014979 -0.014146
v 0.001259 0.014979 0.014146
v 0.001600 0.014297 0.014146
v 0.000539 -0.015876 -0.014146
v 0.000905 -0.015500 -0.014146
v -0.000002 -0.052566 -0.014146
v 0.000164 -0.016110 -0.014146
v -0.000961 -0.015876 -0.014146
v -0.000586 -0.016110 -0.014146
v -0.001327 -0.015500 -0.014146
v -0.000211 -0.016200 -0.014146
v 0.000905 -0.015500 0.014146
v 0.001259 -0.014961 -0.014146
v -0.002021 -0.014279 -0.014146
v -0.001681 -0.014961 -0.014146
v -0.008522 -0.052566 -0.014146
v -0.006235 0.079490 -0.003093
v -0.001076 0.079490 0.013929
v -0.005187 0.079490 0.008252
v -0.006098 0.079490 0.004159
v -0.005702 0.079490 0.006366
v -0.005187 0.079490 -0.008252
v -0.004548 0.079490 -0.009930
v -0.005702 0.079490 -0.006366
v -0.006290 -0.052566 -0.002537
v -0.006375 -0.052566 -0.001094
v -0.006222 -0.052566 0.003254
v -0.006137 -0.052566 0.003951
v -0.003150 -0.052566 0.012307
v -0.002563 -0.052566 0.012958
v -0.002256 -0.052566 0.013241
v -0.005792 -0.052566 0.005998
v -0.005481 -0.052566 0.007280
v 0.004544 0.079490 0.009930
v 0.003794 0.079490 0.011373
v 0.002494 0.079490 0.012967
v 0.001071 0.079490 0.013929
v 0.000330 0.079490 0.014127
v 0.000577 0.079490 -0.014070
v -0.000334 0.079490 0.014127
v -0.004693 -0.052566 0.009610
v -0.004910 -0.052566 0.009063
v -0.004220 -0.052566 0.010628
v -0.003968 -0.052566 0.011090
v -0.003432 -0.052566 0.011939
v 0.006098 0.079490 0.004159
v 0.006354 0.079490 0.001283
v 0.006367 0.079490 -0.001103
v 0.006235 0.079490 -0.003093
v 0.006056 0.079490 -0.004508
v 0.005702 0.079490 -0.006366
v 0.005187 0.079490 -0.008252
v 0.004544 0.079490 -0.009930
v 0.003794 0.079490 -0.011373
v 0.002950 0.079490 -0.012533
v -0.000002 0.052566 0.014146
v -0.001327 0.015518 0.014146
v -0.003406 0.009002 0.014146
v -0.003184 0.010294 0.014146
v -0.002929 0.011461 0.014146
v -0.002652 0.012538 0.014146
v -0.003764 0.006202 0.014146
v -0.003892 0.004712 0.014146
v -0.002021 0.014297 0.014146
v -0.002345 0.013471 0.014146
v -0.003602 0.007638 0.014146
v -0.004058 0.000009 0.014146
v -0.003981 0.003168 0.014146
v -0.002021 -0.014279 0.014146
v -0.002345 -0.013453 0.014146
v -0.003764 -0.006184 0.014146
v -0.003602 -0.007620 0.014146
v -0.003892 -0.004694 0.014146
v -0.003981 -0.003150 0.014146
v -0.004037 -0.001571 0.014146
v -0.004037 0.001589 0.014146
v -0.002652 -0.012520 0.014146
v 0.002507 -0.011443 0.014146
v 0.002230 -0.012520 0.014146
v -0.001681 0.014979 0.014146
v 0.006290 0.052566 -0.002537
v 0.006371 0.052566 -0.001094
v 0.005920 0.052566 -0.005328
v 0.003968 -0.052566 0.011090
v 0.006388 0.052566 -0.000368
v 0.006371 0.052566 0.001094
v -0.003184 0.010294 -0.014146
v -0.003406 0.009002 -0.014146
v -0.000492 -0.052566 -0.014099
v -0.001148 -0.052566 -0.013910
v 0.000492 -0.052566 -0.014099
v -0.001630 -0.052566 -0.013684
v 0.003432 0.052566 -0.011939
v 0.001787 -0.052566 -0.013580
v 0.001144 -0.052566 -0.013910
v -0.003602 0.007638 -0.014146
v -0.003764 0.006202 -0.014146
v -0.008410 0.003635 -0.014146
v -0.003892 0.004712 -0.014146
v 0.002558 -0.052566 -0.012958
v -0.002929 0.011461 -0.014146
v -0.002652 0.012538 -0.014146
v -0.002345 0.013471 -0.014146
v 0.006137 -0.052566 0.003951
v 0.004220 0.052566 -0.010628
v 0.004693 0.052566 -0.009610
v 0.006222 -0.052566 0.003254
v 0.006337 -0.052566 0.001820
v -0.001327 0.015518 -0.014146
v 0.006388 -0.052566 0.000368
v 0.003968 0.052566 -0.011090
v 0.004910 0.052566 -0.009063
v 0.005302 0.052566 -0.007893
v 0.005481 0.052566 -0.007280
v -0.002021 0.014297 -0.014146
v 0.006371 -0.052566 -0.001094
v 0.005787 0.052566 -0.005998
v -0.002345 -0.013453 -0.014146
v 0.006039 -0.052566 -0.004649
v 0.006137 -0.052566 -0.003951
v 0.006290 -0.052566 -0.002537
v -0.003892 -0.004694 -0.014146
v -0.003981 -0.003150 -0.014146
v 0.004220 -0.052566 -0.010628
v 0.003704 -0.052566 -0.011534
v -0.004037 -0.001571 -0.014146
v -0.004037 0.001589 -0.014146
v -0.003981 0.003168 -0.014146
v -0.002652 -0.012520 -0.014146
v -0.003764 -0.006184 -0.014146
v -0.004058 0.000009 -0.014146
v -0.003602 -0.007620 -0.014146
v -0.003184 -0.010276 -0.014146
v -0.002929 -0.011443 -0.014146
v -0.001681 0.014979 -0.014146
v -0.000961 0.015895 -0.014146
v 0.000164 0.016128 -0.014146
v 0.000539 0.015895 -0.014146
v 0.001924 0.013471 -0.014146
v 0.002230 0.012538 -0.014146
v 0.001625 0.052566 0.013684
v -0.001945 -0.052566 0.013476
v -0.005306 -0.052566 0.007893
v -0.006039 -0.052566 0.004649
v -0.006137 -0.052566 -0.003951
v -0.006039 -0.052566 -0.004649
v -0.006392 -0.052566 0.000368
v 0.006290 0.052566 0.002537
v 0.006137 0.052566 0.003951
v -0.006341 -0.052566 0.001820
v -0.000492 0.052566 0.014099
v -0.001148 0.052566 0.013910
v 0.000492 0.052566 0.014099
v -0.001630 0.052566 0.013684
v -0.004910 -0.052566 -0.009063
v -0.005114 -0.052566 -0.008487
v -0.005481 -0.052566 -0.007280
v -0.005792 -0.052566 -0.005998
v -0.002563 -0.052566 -0.012958
v -0.002861 -0.052566 -0.012656
v -0.003968 -0.052566 -0.011090
v -0.004220 -0.052566 -0.010628
v -0.004693 -0.052566 -0.009610
v 0.002558 0.052566 0.012958
v 0.002856 0.052566 0.012656
v 0.001945 0.052566 0.013476
v 0.001144 0.052566 0.013910
v 0.003146 -0.052566 -0.012307
v -0.005924 0.052566 0.005328
v 0.002856 -0.052566 -0.012656
v 0.005787 -0.052566 -0.005998
v 0.005481 -0.052566 -0.007280
v 0.005110 -0.052566 -0.008487
v 0.004910 -0.052566 -0.009063
v 0.004693 -0.052566 -0.009610
v -0.001945 0.052566 0.013476
v -0.002563 0.052566 0.012958
v -0.003432 0.052566 0.011939
v -0.004693 0.052566 0.009610
v -0.004910 0.052566 0.009063
v -0.005306 0.052566 0.007893
v -0.005481 0.052566 0.007280
v -0.005792 0.052566 0.005998
v -0.000211 0.016200 -0.014146
v 0.001600 0.014297 -0.014146
v 0.002230 -0.012520 -0.014146
v 0.002507 -0.011443 -0.014146
v 0.002507 0.011461 -0.014146
v 0.002763 0.010294 -0.014146
v 0.003470 0.004712 -0.014146
v 0.003342 0.006202 -0.014146
v 0.002984 0.009002 -0.014146
v 0.003180 0.007638 -0.014146
v 0.003180 -0.007620 -0.014146
v 0.002984 -0.008984 -0.014146
v 0.002763 -0.010276 -0.014146
v 0.003559 0.003168 -0.014146
v 0.003632 0.000009 -0.014146
v 0.003615 0.001589 -0.014146
v 0.003615 -0.001571 -0.014146
v 0.003470 -0.004694 -0.014146
v 0.003559 -0.003150 -0.014146
v 0.003342 -0.006184 -0.014146
v 0.002507 0.011461 0.014146
v 0.002230 0.012538 0.014146
v 0.001924 0.013471 0.014146
v 0.002763 0.010294 0.014146
v 0.000164 0.016128 0.014146
v 0.002984 0.009002 0.014146
v 0.003180 0.007638 0.014146
v 0.003342 0.006202 0.014146
v 0.004693 0.052566 0.009610
v 0.004220 0.052566 0.010628
v 0.003968 0.052566 0.011090
v 0.003432 0.052566 0.011939
v 0.003146 0.052566 0.012307
v -0.001945 -0.052566 -0.013476
v -0.003150 -0.052566 -0.012307
v -0.003432 -0.052566 -0.011939
vn -0.3047 -0.0007 0.9525
vn -0.0000 -1.0000 -0.0000
vn -0.2763 -0.0001 0.9611
vn -0.0959 -0.0007 0.9954
vn -0.0000 -0.0028 1.0000
vn -0.0000 -1.0000 -0.0001
vn 0.0951 -0.0007 0.9955
vn 0.2779 -0.0001 0.9606
vn 0.3031 -0.0007 0.9530
vn -0.0000 -0.0000 1.0000
vn -0.7694 0.0031 0.6388
vn -0.8784 0.0007 0.4780
vn -0.8863 0.0012 0.4632
vn -0.0000 1.0000 -0.0000
vn 0.9811 0.0005 0.1935
vn 0.9726 -0.0001 0.2326
vn -0.9983 0.0002 0.0589
vn -0.9999 0.0006 0.0117
vn 0.9600 0.0004 0.2801
vn -1.0000 0.0010 0.0036
vn 0.9482 -0.0002 0.3178
vn -0.9997 0.0003 -0.0234
vn -0.9983 0.0003 -0.0589
vn -0.3047 0.0007 -0.9525
vn -0.9915 -0.0009 -0.1301
vn -0.2764 0.0001 -0.9611
vn -0.0000 1.0000 -0.0001
vn 0.4762 -0.0006 -0.8793
vn 0.6042 0.0034 -0.7969
vn -0.8452 -0.0001 -0.5345
vn -0.8088 0.0015 -0.5881
vn -0.7944 0.0008 -0.6074
vn 0.9646 0.0010 0.2636
vn 0.9856 0.1690 -0.0000
vn 0.4255 0.0002 0.9050
vn 0.6041 -0.0054 0.7969
vn 0.6975 -0.0008 0.7165
vn 1.0000 -0.0000 -0.0000
vn 0.9482 0.0002 0.3178
vn 0.9600 -0.0004 0.2801
vn -0.9309 0.3652 -0.0000
vn 0.9811 -0.0002 0.1935
vn 0.9855 -0.0008 0.1695
vn 0.5285 -0.8489 -0.0000
vn 0.1880 -0.9822 -0.0000
vn -0.7170 -0.6970 -0.0000
vn -0.8359 -0.5488 -0.0000
vn -0.8946 -0.4470 -0.0000
vn -0.0000 -0.0000 -1.0000
vn 0.5285 0.8489 -0.0000
vn -0.7170 0.6970 -0.0000
vn -0.5285 0.8489 -0.0000
vn 0.7170 0.6970 -0.0000
vn 0.8359 0.5489 -0.0000
vn -0.9294 -0.0006 0.3691
vn -0.8784 -0.0007 0.4780
vn -0.7944 -0.0008 0.6074
vn -0.7420 0.0001 0.6704
vn -1.0000 -0.0000 -0.0000
vn -0.6780 -0.0074 0.7350
vn 0.5444 -0.0091 0.8388
vn 0.6236 -0.0027 0.7818
vn 0.7799 -0.0001 0.6259
vn 0.9913 -0.0010 -0.1316
vn 0.8088 -0.0015 0.5881
vn 0.8452 0.0001 0.5344
vn 0.8784 -0.0007 0.4780
vn 0.8873 -0.0013 0.4611
vn 0.9070 -0.0000 0.4211
vn 0.9294 -0.0008 0.3691
vn 0.9984 0.0001 -0.0560
vn 0.9338 -0.0012 0.3578
vn 0.9666 -0.0013 0.2564
vn -0.0957 0.0005 -0.9954
vn 0.0949 0.0005 -0.9955
vn -0.2581 -0.0005 -0.9661
vn -0.2764 -0.0001 -0.9611
vn -0.4254 -0.0005 -0.9050
vn 0.7420 -0.0002 -0.6704
vn 0.7899 0.0006 -0.6132
vn 0.6281 0.0003 -0.7781
vn 0.4874 -0.0016 -0.8732
vn 0.4565 -0.0006 -0.8897
vn 0.2780 -0.0001 -0.9606
vn 0.2581 -0.0005 -0.9661
vn -0.0000 -0.0007 -1.0000
vn 0.9070 -0.0000 -0.4211
vn 0.9878 -0.0001 0.1559
vn 0.9926 -0.0002 0.1213
vn 0.9294 0.0008 -0.3691
vn 0.9960 -0.0011 0.0892
vn 0.9338 0.0012 -0.3578
vn 0.9968 -0.0005 0.0799
vn 0.9994 -0.0002 0.0352
vn 0.9481 -0.0002 -0.3178
vn 0.9998 -0.0009 0.0214
vn 0.9999 0.0002 -0.0117
vn 0.9984 -0.0007 -0.0564
vn 0.9984 -0.0007 -0.0560
vn 0.9811 0.0005 -0.1936
vn 0.9942 -0.0003 -0.1078
vn 0.9919 -0.0012 -0.1272
vn 0.9824 0.0007 -0.1870
vn 0.9903 -0.0007 -0.1389
vn 0.9338 0.0012 0.3578
vn 0.5600 0.0040 0.8285
vn -0.6042 -0.0034 0.7969
vn -0.4782 0.0006 0.8783
vn -0.0957 0.0007 -0.9954
vn -0.0000 0.0028 -1.0000
vn 0.0949 0.0007 -0.9955
vn 0.2780 0.0001 -0.9606
vn 0.3031 0.0007 -0.9530
vn 0.6831 0.0077 -0.7302
vn -0.9471 0.0001 0.3209
vn 0.6236 0.0032 -0.7818
vn -0.9346 -0.0011 0.3558
vn 0.8088 0.0015 -0.5881
vn 0.8452 -0.0001 -0.5345
vn 0.8784 0.0007 -0.4779
vn -0.9836 -0.0004 0.1803
vn 0.8873 0.0013 -0.4611
vn -0.9718 -0.0003 0.2357
vn -0.9666 -0.0013 0.2564
vn -0.9617 -0.0006 0.2739
vn -0.9070 0.0001 0.4211
vn 0.9600 0.0004 -0.2801
vn -0.8863 -0.0012 0.4632
vn 0.9646 0.0010 -0.2636
vn -0.8452 0.0001 0.5344
vn 0.9726 -0.0001 -0.2326
vn -0.8088 -0.0015 0.5881
vn -0.6236 -0.0033 0.7818
vn 0.9921 -0.0006 -0.1255
vn 0.9978 0.0007 -0.0662
vn 0.9997 0.0002 -0.0234
vn -0.9903 -0.0006 -0.1389
vn 1.0000 0.0009 0.0054
vn -0.9921 -0.0011 -0.1255
vn 0.9999 0.0006 0.0117
vn -0.9942 -0.0003 -0.1078
vn 0.9984 0.0002 0.0560
vn -0.9983 -0.0007 -0.0589
vn 0.9961 0.0018 0.0885
vn -0.9983 -0.0007 -0.0583
vn 0.9942 0.0006 0.1078
vn -0.9999 0.0002 -0.0117
vn 0.9878 0.0002 0.1559
vn -0.9997 -0.0009 0.0233
vn 0.9843 0.0011 0.1767
vn -0.9994 -0.0004 0.0352
vn -0.9966 -0.0007 0.0829
vn -0.0959 -0.0005 0.9954
vn -0.9926 -0.0040 0.1213
vn 0.0951 -0.0005 0.9955
vn -0.2581 0.0005 0.9661
vn -0.9919 -0.0033 0.1272
vn -0.2763 0.0001 0.9611
vn -0.9903 -0.0026 0.1389
vn -0.4255 0.0005 0.9050
vn 0.7113 0.0014 0.7029
vn -0.9070 0.0001 -0.4211
vn 0.6457 0.0013 0.7636
vn 0.5444 0.0048 0.8388
vn 0.4255 0.0005 0.9050
vn 0.2779 0.0001 0.9606
vn -0.9718 0.0003 -0.2356
vn 0.2582 0.0005 0.9661
vn -0.0000 0.0007 1.0000
vn -0.9843 0.0013 0.1767
vn -0.9882 0.0002 0.1529
vn -0.9942 0.0006 0.1078
vn -0.9959 0.0017 0.0900
vn -0.9978 0.0007 -0.0662
vn -0.9921 -0.0006 -0.1255
vn 0.9831 -0.0001 -0.1833
vn -0.9824 0.0009 -0.1870
vn -0.9811 0.0006 -0.1935
vn -0.9718 -0.0000 -0.2356
vn -0.9646 0.0010 -0.2636
vn -0.9617 0.0006 -0.2739
vn -0.9471 -0.0001 -0.3210
vn -0.9346 0.0011 -0.3558
vn -0.9294 0.0006 -0.3691
vn -0.9070 -0.0001 -0.4211
vn -0.8863 0.0012 -0.4632
vn -0.8784 0.0007 -0.4779
vn 0.9792 -0.0008 -0.2030
vn 0.9726 0.0002 -0.2326
vn 0.9559 -0.0008 -0.2935
vn 0.9469 -0.0025 -0.3215
vn 0.9294 -0.0008 -0.3691
vn -0.7420 -0.0001 -0.6704
vn -0.6780 0.0074 -0.7350
vn 0.9444 -0.0032 -0.3287
vn -0.6042 0.0034 -0.7969
vn -0.4782 -0.0006 -0.8783
vn 0.8861 -0.0014 -0.4635
vn 0.8690 -0.0002 -0.4948
vn -0.6236 0.0033 -0.7818
vn 0.8109 -0.0010 -0.5852
vn 0.7694 -0.0039 -0.6387
vn 0.7553 -0.0041 -0.6554
vn 0.7112 -0.0090 -0.7029
vn -0.5496 0.0046 0.8354
vn -0.6431 0.0014 0.7658
vn -0.5612 0.0040 0.8277
vn -0.7113 0.0016 0.7029
vn -0.7751 0.0029 0.6319
vn -0.8452 -0.0001 0.5344
vn -0.7944 0.0045 0.6074
vn -0.9070 -0.0001 0.4211
vn -0.9294 0.0006 0.3691
vn -0.9346 0.0011 0.3558
vn -0.9471 -0.0001 0.3209
vn -0.9617 0.0006 0.2739
vn -0.9646 0.0010 0.2636
vn -0.9718 -0.0000 0.2357
vn -0.9811 0.0006 0.1935
vn 0.9898 -0.1422 -0.0000
vn 0.9856 -0.1689 -0.0000
vn 0.9685 -0.2490 -0.0000
vn 0.9500 -0.3122 -0.0000
vn 0.9310 -0.3651 -0.0000
vn 0.9898 0.1422 -0.0000
vn 0.9937 0.1121 -0.0000
vn 0.9963 0.0855 -0.0000
vn 0.9983 0.0578 -0.0000
vn 0.9994 0.0350 -0.0000
vn 0.9999 0.0135 -0.0000
vn 0.9999 -0.0135 -0.0000
vn 0.9994 -0.0350 -0.0000
vn 0.9983 -0.0578 -0.0000
vn 0.9500 0.3122 -0.0000
vn 0.9685 0.2490 -0.0000
vn 0.9963 -0.0855 -0.0000
vn 0.9937 -0.1121 -0.0000
vn 0.9768 -0.2140 -0.0000
vn 0.8946 -0.4470 -0.0000
vn 0.9294 0.0008 0.3691
vn 0.8873 0.0013 0.4611
vn 0.8784 0.0007 0.4780
vn 0.8452 -0.0001 0.5344
vn 0.8946 0.4469 -0.0000
vn 0.7899 0.0041 0.6132
vn 0.9309 0.3652 -0.0000
vn 0.7694 0.0030 0.6388
vn 0.9768 0.2140 -0.0000
vn 0.7751 0.0029 0.6319
vn -0.5498 -0.0046 -0.8353
vn -0.5612 -0.0040 -0.8277
vn -0.8784 -0.0008 -0.4779
vn -0.6431 -0.0014 -0.7658
vn -0.7112 -0.0016 -0.7030
vn -0.7694 -0.0031 -0.6387
vn -0.7769 -0.0030 -0.6296
vn -0.8850 -0.0013 -0.4656
vn -0.7944 -0.0045 -0.6074
vn -0.9294 -0.0006 -0.3691
vn -0.9422 -0.0036 -0.3350
vn -0.9569 -0.0006 -0.2904
vn -0.9469 -0.0024 -0.3215
vn -0.9792 -0.0008 -0.2029
vn -0.9836 -0.0000 -0.1803
vn -0.9898 -0.1422 -0.0000
vn -0.9937 -0.1121 -0.0000
vn -0.9856 0.1690 -0.0000
vn -0.9768 0.2140 -0.0000
vn -0.9983 0.0578 -0.0000
vn -0.9963 0.0855 -0.0000
vn -0.9937 0.1121 -0.0000
vn -0.9994 -0.0350 -0.0000
vn -0.9999 -0.0108 -0.0000
vn -0.9310 -0.3651 -0.0000
vn 0.8359 -0.5488 -0.0000
vn 0.7170 -0.6970 -0.0000
vn -0.1880 -0.9822 -0.0000
vn -0.5285 -0.8489 -0.0000
vn -0.9500 -0.3122 -0.0000
vn -0.9685 -0.2490 -0.0000
vn -0.9685 0.2490 -0.0000
vn -0.9500 0.3122 -0.0000
vn -0.8946 0.4469 -0.0000
vn -0.9768 -0.2140 -0.0000
vn -0.9856 -0.1689 -0.0000
vn -0.9963 -0.0855 -0.0000
vn -0.9983 -0.0578 -0.0000
vn -0.9898 0.1422 -0.0000
vn -0.9999 0.0108 -0.0000
vn -0.9994 0.0350 -0.0000
vn -0.8359 0.5489 -0.0000
vn -0.2330 0.9725 -0.0000
vn 0.2330 0.9725 -0.0000
s 0
f 1//1 2//1 3//1
f 3//2 4//2 5//2
f 6//2 5//2 4//2
f 2//3 4//3 3//3
f 2//4 6//4 4//4
f 2//5 7//5 6//5
f 8//6 6//6 9//6
f 7//7 9//7 6//7
f 9//2 10//2 8//2
f 7//8 10//8 9//8
f 10//2 11//2 8//2
f 7//9 12//9 10//9
f 11//2 13//2 8//2
f 14//10 15//10 16//10
f 17//10 8//10 18//10
f 19//10 8//10 20//10
f 18//10 8//10 21//10
f 22//10 8//10 17//10
f 22//10 20//10 8//10
f 23//10 21//10 8//10
f 24//10 23//10 14//10
f 19//10 25//10 8//10
f 8//10 14//10 23//10
f 24//10 14//10 16//10
f 26//10 5//10 27//10
f 28//10 29//10 6//10
f 30//10 31//10 6//10
f 32//10 28//10 6//10
f 5//10 6//10 31//10
f 33//10 5//10 31//10
f 29//10 30//10 6//10
f 34//10 32//10 6//10
f 35//10 36//10 8//10
f 37//11 38//11 39//11
f 40//12 41//12 42//12
f 43//13 40//13 42//13
f 44//14 45//14 46//14
f 47//15 48//15 49//15
f 45//14 50//14 46//14
f 48//14 51//14 14//14
f 51//14 52//14 14//14
f 51//16 48//16 47//16
f 50//14 53//14 46//14
f 54//14 55//14 53//14
f 56//14 14//14 52//14
f 57//17 50//17 45//17
f 53//18 50//18 57//18
f 51//19 58//19 52//19
f 57//20 59//20 53//20
f 58//21 56//21 52//21
f 59//22 54//22 53//22
f 60//23 54//23 59//23
f 61//14 62//14 55//14
f 63//24 64//24 61//24
f 65//25 66//25 60//25
f 64//26 62//26 61//26
f 67//27 55//27 62//27
f 46//14 53//14 55//14
f 54//14 60//14 55//14
f 55//14 60//14 66//14
f 67//14 68//14 69//14
f 68//14 70//14 69//14
f 71//14 55//14 72//14
f 70//14 73//14 69//14
f 73//14 74//14 69//14
f 75//28 73//28 70//28
f 76//14 55//14 77//14
f 75//29 74//29 73//29
f 78//14 69//14 79//14
f 80//14 55//14 81//14
f 72//14 55//14 66//14
f 71//14 77//14 55//14
f 76//14 81//14 55//14
f 80//14 82//14 55//14
f 83//14 55//14 82//14
f 84//30 83//30 82//30
f 85//31 83//31 84//31
f 83//14 86//14 55//14
f 86//14 87//14 55//14
f 83//32 85//32 86//32
f 87//14 88//14 55//14
f 89//14 55//14 88//14
f 61//14 55//14 89//14
f 47//33 58//33 51//33
f 90//34 91//34 26//34
f 12//35 11//35 10//35
f 13//2 92//2 8//2
f 93//2 94//2 95//2
f 96//2 95//2 94//2
f 97//2 96//2 94//2
f 98//2 99//2 94//2
f 100//2 99//2 98//2
f 101//2 99//2 100//2
f 102//2 99//2 101//2
f 103//2 99//2 104//2
f 104//2 99//2 105//2
f 106//2 107//2 94//2
f 7//2 2//2 94//2
f 2//2 1//2 94//2
f 1//2 108//2 94//2
f 108//2 97//2 94//2
f 109//2 110//2 8//2
f 92//2 109//2 8//2
f 111//36 92//36 13//36
f 112//2 113//2 94//2
f 113//2 111//2 94//2
f 111//2 12//2 94//2
f 109//37 92//37 111//37
f 114//2 115//2 116//2
f 117//2 116//2 99//2
f 118//2 117//2 99//2
f 12//2 7//2 94//2
f 99//2 106//2 94//2
f 102//2 105//2 99//2
f 119//2 99//2 103//2
f 118//2 99//2 119//2
f 120//2 121//2 8//2
f 99//2 116//2 115//2
f 122//2 123//2 94//2
f 123//2 112//2 94//2
f 107//2 122//2 94//2
f 124//2 115//2 125//2
f 126//2 127//2 124//2
f 115//2 124//2 127//2
f 125//2 115//2 114//2
f 69//38 14//38 128//38
f 14//38 8//38 128//38
f 129//2 8//2 121//2
f 129//2 130//2 8//2
f 130//2 131//2 8//2
f 131//2 132//2 8//2
f 123//39 130//39 129//39
f 132//2 133//2 8//2
f 123//40 131//40 130//40
f 134//41 135//41 136//41
f 133//42 132//42 122//42
f 122//43 107//43 133//43
f 137//44 138//44 139//44
f 139//45 138//45 140//45
f 141//46 142//46 143//46
f 144//47 145//47 141//47
f 142//47 141//47 145//47
f 144//48 146//48 145//48
f 147//49 148//49 149//49
f 150//49 147//49 149//49
f 151//49 152//49 149//49
f 29//50 152//50 151//50
f 153//49 151//49 149//49
f 154//49 150//49 149//49
f 152//49 154//49 149//49
f 147//51 34//51 155//51
f 34//52 147//52 32//52
f 128//49 149//49 148//49
f 156//49 128//49 148//49
f 157//49 158//49 159//49
f 156//49 135//49 128//49
f 160//14 59//14 161//14
f 43//14 42//14 59//14
f 42//14 37//14 59//14
f 37//14 161//14 59//14
f 162//14 43//14 59//14
f 151//50 30//50 29//50
f 30//53 151//53 31//53
f 153//53 31//53 151//53
f 57//14 163//14 59//14
f 163//14 164//14 59//14
f 164//14 162//14 59//14
f 153//54 33//54 31//54
f 165//14 161//14 166//14
f 166//14 161//14 84//14
f 167//14 161//14 165//14
f 65//14 161//14 167//14
f 85//14 161//14 63//14
f 168//2 169//2 159//2
f 170//2 171//2 5//2
f 172//2 173//2 5//2
f 173//2 174//2 5//2
f 175//2 176//2 5//2
f 177//14 75//14 178//14
f 178//14 75//14 179//14
f 58//14 75//14 177//14
f 179//14 75//14 180//14
f 181//14 180//14 182//14
f 183//14 181//14 182//14
f 65//14 160//14 161//14
f 183//14 182//14 161//14
f 184//2 5//2 185//2
f 186//2 5//2 184//2
f 182//14 180//14 75//14
f 185//55 96//55 184//55
f 187//2 5//2 186//2
f 188//2 5//2 187//2
f 84//14 161//14 85//14
f 63//14 161//14 64//14
f 64//14 161//14 182//14
f 172//2 5//2 188//2
f 97//56 187//56 186//56
f 47//14 189//14 190//14
f 47//14 190//14 191//14
f 47//14 191//14 192//14
f 47//14 192//14 193//14
f 47//14 193//14 194//14
f 47//14 194//14 195//14
f 47//14 195//14 196//14
f 47//14 196//14 197//14
f 47//14 197//14 198//14
f 198//14 75//14 47//14
f 47//14 75//14 58//14
f 108//57 172//57 188//57
f 108//58 173//58 172//58
f 55//59 5//59 46//59
f 1//60 174//60 173//60
f 159//59 5//59 55//59
f 143//10 142//10 199//10
f 46//10 200//10 199//10
f 201//10 202//10 46//10
f 203//10 204//10 46//10
f 202//10 203//10 46//10
f 205//10 46//10 206//10
f 207//10 46//10 208//10
f 204//10 208//10 46//10
f 205//10 209//10 46//10
f 209//10 201//10 46//10
f 5//10 210//10 46//10
f 211//10 206//10 46//10
f 33//10 212//10 5//10
f 213//10 5//10 212//10
f 214//10 5//10 215//10
f 214//10 216//10 5//10
f 217//10 218//10 5//10
f 211//10 46//10 219//10
f 220//10 5//10 213//10
f 216//10 217//10 5//10
f 210//10 5//10 218//10
f 91//10 215//10 5//10
f 220//10 27//10 5//10
f 91//10 5//10 26//10
f 219//10 46//10 210//10
f 155//10 34//10 6//10
f 221//10 8//10 25//10
f 6//10 8//10 155//10
f 136//10 8//10 222//10
f 200//10 46//10 223//10
f 207//10 223//10 46//10
f 137//10 199//10 200//10
f 139//10 199//10 137//10
f 199//10 142//10 14//10
f 111//61 13//61 11//61
f 12//62 111//62 11//62
f 224//14 225//14 69//14
f 111//63 110//63 109//63
f 224//64 226//64 193//64
f 111//65 113//65 110//65
f 113//66 227//66 110//66
f 113//67 120//67 227//67
f 225//14 228//14 69//14
f 113//68 112//68 120//68
f 112//69 121//69 120//69
f 112//70 129//70 121//70
f 191//71 225//71 224//71
f 112//72 123//72 129//72
f 229//14 14//14 228//14
f 123//73 122//73 131//73
f 122//16 132//16 131//16
f 230//49 231//49 55//49
f 159//6 149//6 232//6
f 232//2 233//2 159//2
f 149//74 118//74 232//74
f 149//2 128//2 234//2
f 117//75 149//75 234//75
f 118//76 119//76 232//76
f 235//2 159//2 233//2
f 119//77 233//77 232//77
f 119//78 235//78 233//78
f 74//14 79//14 69//14
f 236//14 69//14 78//14
f 198//79 78//79 79//79
f 237//2 238//2 128//2
f 198//80 236//80 78//80
f 239//49 240//49 241//49
f 242//49 241//49 240//49
f 241//49 55//49 239//49
f 114//81 237//81 243//81
f 234//2 128//2 238//2
f 237//82 114//82 116//82
f 244//49 230//49 55//49
f 116//83 238//83 237//83
f 244//49 55//49 245//49
f 116//84 234//84 238//84
f 116//85 117//85 234//85
f 117//86 118//86 149//86
f 231//49 239//49 55//49
f 245//49 55//49 246//49
f 133//2 247//2 8//2
f 248//87 196//87 249//87
f 247//2 250//2 8//2
f 250//2 251//2 8//2
f 67//49 252//49 55//49
f 133//88 107//88 247//88
f 251//2 253//2 8//2
f 236//14 254//14 69//14
f 254//14 248//14 69//14
f 248//14 249//14 69//14
f 249//14 255//14 69//14
f 256//14 69//14 255//14
f 107//89 250//89 247//89
f 196//90 255//90 249//90
f 107//91 106//91 250//91
f 256//14 257//14 69//14
f 246//49 55//49 258//49
f 259//2 128//2 253//2
f 196//92 195//92 255//92
f 106//93 251//93 250//93
f 106//94 253//94 251//94
f 195//95 256//95 255//95
f 257//14 260//14 69//14
f 149//49 159//49 153//49
f 106//96 99//96 253//96
f 158//49 153//49 159//49
f 261//49 157//49 159//49
f 99//97 259//97 253//97
f 260//14 226//14 69//14
f 262//2 128//2 263//2
f 99//98 115//98 259//98
f 115//99 264//99 259//99
f 224//14 69//14 226//14
f 226//100 260//100 194//100
f 115//101 263//101 264//101
f 115//102 127//102 263//102
f 194//103 193//103 226//103
f 127//104 262//104 263//104
f 265//49 241//49 266//49
f 69//14 228//14 14//14
f 267//2 268//2 128//2
f 269//49 266//49 241//49
f 270//49 241//49 271//49
f 272//49 261//49 159//49
f 242//49 271//49 241//49
f 273//49 241//49 265//49
f 274//49 269//49 241//49
f 270//49 274//49 241//49
f 275//49 159//49 273//49
f 90//49 159//49 275//49
f 273//49 159//49 241//49
f 159//49 90//49 276//49
f 159//49 276//49 277//49
f 272//49 159//49 277//49
f 55//49 241//49 159//49
f 278//49 55//49 252//49
f 138//49 279//49 67//49
f 279//49 252//49 67//49
f 280//49 67//49 281//49
f 282//49 69//49 283//49
f 56//105 58//105 177//105
f 179//106 180//106 284//106
f 285//107 174//107 1//107
f 3//2 5//2 285//2
f 1//108 3//108 285//108
f 64//109 67//109 62//109
f 176//2 286//2 5//2
f 64//110 182//110 67//110
f 182//111 68//111 67//111
f 185//2 5//2 286//2
f 182//112 70//112 68//112
f 182//113 75//113 70//113
f 75//114 79//114 74//114
f 95//115 185//115 286//115
f 75//116 198//116 79//116
f 95//117 96//117 185//117
f 198//118 197//118 236//118
f 197//119 254//119 236//119
f 197//120 248//120 254//120
f 93//121 175//121 287//121
f 197//122 196//122 248//122
f 93//123 176//123 175//123
f 93//124 95//124 176//124
f 95//125 286//125 176//125
f 96//126 186//126 184//126
f 195//127 257//127 256//127
f 96//128 97//128 186//128
f 194//129 257//129 195//129
f 97//130 188//130 187//130
f 194//131 260//131 257//131
f 97//132 108//132 188//132
f 173//133 108//133 1//133
f 224//134 193//134 192//134
f 192//135 191//135 224//135
f 191//136 228//136 225//136
f 288//2 168//2 159//2
f 101//137 288//137 289//137
f 191//138 190//138 228//138
f 101//139 100//139 288//139
f 190//140 229//140 228//140
f 169//2 290//2 159//2
f 100//141 168//141 288//141
f 190//142 291//142 229//142
f 100//143 169//143 168//143
f 190//144 189//144 291//144
f 100//145 98//145 169//145
f 189//146 292//146 291//146
f 5//2 159//2 290//2
f 290//2 293//2 5//2
f 98//147 290//147 169//147
f 170//2 5//2 293//2
f 189//148 49//148 292//148
f 98//149 94//149 290//149
f 189//150 47//150 49//150
f 94//151 293//151 290//151
f 294//14 46//14 199//14
f 294//14 295//14 46//14
f 94//152 170//152 293//152
f 199//153 183//153 294//153
f 171//2 287//2 5//2
f 199//14 14//14 296//14
f 171//154 170//154 93//154
f 181//155 199//155 296//155
f 287//2 175//2 5//2
f 183//156 161//156 294//156
f 295//14 297//14 46//14
f 94//157 93//157 170//157
f 295//158 294//158 161//158
f 93//159 287//159 171//159
f 298//2 299//2 159//2
f 159//2 300//2 301//2
f 159//2 289//2 288//2
f 159//2 301//2 289//2
f 297//160 295//160 161//160
f 302//2 303//2 159//2
f 304//2 305//2 159//2
f 305//2 306//2 159//2
f 179//161 307//161 308//161
f 298//2 159//2 306//2
f 307//14 309//14 14//14
f 309//14 284//14 14//14
f 305//162 105//162 306//162
f 309//163 307//163 179//163
f 300//2 159//2 299//2
f 284//14 310//14 14//14
f 179//164 284//164 309//164
f 180//165 310//165 284//165
f 296//14 14//14 310//14
f 296//166 310//166 180//166
f 102//167 301//167 300//167
f 180//168 181//168 296//168
f 181//169 183//169 199//169
f 268//2 311//2 128//2
f 164//170 163//170 312//170
f 243//2 237//2 128//2
f 311//2 313//2 128//2
f 312//171 163//171 44//171
f 163//172 45//172 44//172
f 243//2 128//2 313//2
f 163//173 57//173 45//173
f 60//174 59//174 160//174
f 160//175 65//175 60//175
f 8//2 253//2 128//2
f 262//2 314//2 128//2
f 314//2 315//2 128//2
f 315//2 316//2 128//2
f 314//176 262//176 127//176
f 65//177 167//177 66//177
f 316//2 317//2 128//2
f 167//178 72//178 66//178
f 167//179 71//179 72//179
f 317//2 318//2 128//2
f 167//180 165//180 71//180
f 165//181 77//181 71//181
f 165//182 76//182 77//182
f 318//2 267//2 128//2
f 165//183 166//183 76//183
f 166//184 81//184 76//184
f 166//185 80//185 81//185
f 166//186 84//186 80//186
f 84//187 82//187 80//187
f 314//188 127//188 126//188
f 126//189 315//189 314//189
f 126//190 316//190 315//190
f 124//191 317//191 126//191
f 124//192 318//192 317//192
f 85//193 87//193 86//193
f 124//87 267//87 318//87
f 87//194 63//194 88//194
f 126//195 317//195 316//195
f 89//196 88//196 63//196
f 63//197 61//197 89//197
f 124//198 125//198 267//198
f 125//199 268//199 267//199
f 85//200 63//200 87//200
f 125//201 311//201 268//201
f 125//202 313//202 311//202
f 125//203 114//203 243//203
f 125//204 243//204 313//204
f 312//14 44//14 46//14
f 227//2 120//2 8//2
f 227//2 8//2 110//2
f 297//14 319//14 46//14
f 264//2 128//2 259//2
f 263//2 128//2 264//2
f 319//14 320//14 46//14
f 320//14 39//14 46//14
f 37//205 319//205 297//205
f 39//14 38//14 46//14
f 320//206 319//206 37//206
f 37//207 297//207 161//207
f 38//14 321//14 46//14
f 321//14 41//14 46//14
f 41//14 40//14 46//14
f 37//208 39//208 320//208
f 40//14 322//14 46//14
f 37//209 42//209 321//209
f 42//210 41//210 321//210
f 321//211 38//211 37//211
f 323//14 46//14 322//14
f 43//212 322//212 40//212
f 323//14 324//14 46//14
f 43//213 323//213 322//213
f 324//14 325//14 46//14
f 323//214 43//214 162//214
f 325//14 326//14 46//14
f 162//215 324//215 323//215
f 312//14 46//14 326//14
f 325//216 324//216 162//216
f 162//217 164//217 325//217
f 326//218 325//218 164//218
f 164//219 312//219 326//219
f 280//49 327//49 67//49
f 327//49 138//49 67//49
f 67//49 69//49 141//49
f 141//49 281//49 67//49
f 258//49 55//49 278//49
f 144//49 141//49 69//49
f 328//49 144//49 69//49
f 328//49 69//49 282//49
f 134//49 329//49 128//49
f 134//49 128//49 135//49
f 231//220 201//220 209//220
f 231//221 202//221 201//221
f 329//49 330//49 128//49
f 331//49 283//49 69//49
f 203//222 245//222 204//222
f 246//223 208//223 245//223
f 204//223 245//223 208//223
f 208//224 246//224 207//224
f 331//49 69//49 332//49
f 90//225 275//225 91//225
f 215//225 91//225 275//225
f 273//226 215//226 275//226
f 69//49 333//49 334//49
f 265//227 214//227 273//227
f 335//49 69//49 336//49
f 332//49 69//49 335//49
f 334//49 336//49 69//49
f 217//228 216//228 266//228
f 217//229 266//229 269//229
f 210//230 269//230 274//230
f 210//231 274//231 270//231
f 271//232 211//232 270//232
f 337//49 128//49 338//49
f 339//49 128//49 330//49
f 214//227 265//227 216//227
f 69//49 340//49 333//49
f 69//49 128//49 341//49
f 341//49 342//49 69//49
f 340//49 69//49 342//49
f 343//49 341//49 128//49
f 271//233 242//233 211//233
f 344//49 345//49 128//49
f 128//49 337//49 346//49
f 272//234 220//234 213//234
f 346//49 344//49 128//49
f 27//235 220//235 272//235
f 343//49 128//49 345//49
f 338//49 128//49 339//49
f 347//10 14//10 348//10
f 273//226 214//226 215//226
f 146//10 349//10 14//10
f 349//10 348//10 14//10
f 350//10 14//10 347//10
f 265//228 266//228 216//228
f 269//229 218//229 217//229
f 145//10 14//10 142//10
f 140//10 199//10 139//10
f 351//10 199//10 140//10
f 218//230 269//230 210//230
f 270//231 219//231 210//231
f 270//232 211//232 219//232
f 146//10 14//10 145//10
f 206//233 211//233 242//233
f 240//236 205//236 242//236
f 206//236 242//236 205//236
f 240//237 239//237 205//237
f 209//237 205//237 239//237
f 143//10 199//10 351//10
f 231//220 209//220 239//220
f 230//221 202//221 231//221
f 244//238 202//238 230//238
f 36//10 155//10 8//10
f 136//10 35//10 8//10
f 221//10 222//10 8//10
f 258//224 207//224 246//224
f 352//10 14//10 350//10
f 258//239 278//239 207//239
f 353//10 14//10 352//10
f 15//10 14//10 354//10
f 354//10 14//10 353//10
f 355//14 14//14 56//14
f 355//14 356//14 14//14
f 356//14 357//14 14//14
f 177//240 355//240 56//240
f 244//238 203//238 202//238
f 357//14 358//14 14//14
f 356//69 355//69 177//69
f 203//222 244//222 245//222
f 177//241 178//241 356//241
f 178//242 357//242 356//242
f 358//14 359//14 14//14
f 359//14 308//14 14//14
f 358//243 357//243 178//243
f 157//244 212//244 158//244
f 179//245 359//245 358//245
f 157//246 261//246 212//246
f 213//246 212//246 261//246
f 213//234 261//234 272//234
f 359//247 179//247 308//247
f 307//14 14//14 308//14
f 27//235 272//235 277//235
f 27//248 277//248 26//248
f 276//248 26//248 277//248
f 178//249 179//249 358//249
f 90//34 26//34 276//34
f 292//14 14//14 291//14
f 229//14 291//14 14//14
f 14//14 292//14 49//14
f 49//14 48//14 14//14
f 235//2 360//2 159//2
f 360//2 302//2 159//2
f 360//250 235//250 103//250
f 235//251 119//251 103//251
f 303//2 361//2 159//2
f 361//2 362//2 159//2
f 304//2 159//2 362//2
f 362//30 104//30 304//30
f 104//252 305//252 304//252
f 103//253 302//253 360//253
f 103//254 303//254 302//254
f 103//255 361//255 303//255
f 103//256 104//256 362//256
f 104//257 105//257 305//257
f 103//258 362//258 361//258
f 105//259 298//259 306//259
f 102//260 299//260 298//260
f 300//261 299//261 102//261
f 105//262 102//262 298//262
f 101//263 301//263 102//263
f 101//264 289//264 301//264
f 174//2 285//2 5//2
f 336//265 353//265 352//265
f 336//266 354//266 353//266
f 19//267 339//267 25//267
f 339//268 221//268 25//268
f 345//269 344//269 18//269
f 346//270 22//270 344//270
f 17//270 344//270 22//270
f 22//271 346//271 20//271
f 342//272 24//272 16//272
f 24//273 342//273 23//273
f 223//239 207//239 278//239
f 328//48 146//48 144//48
f 282//274 146//274 328//274
f 252//275 200//275 278//275
f 223//275 278//275 200//275
f 137//276 200//276 279//276
f 252//276 279//276 200//276
f 137//44 279//44 138//44
f 140//45 138//45 327//45
f 280//277 351//277 327//277
f 140//277 327//277 351//277
f 143//278 351//278 281//278
f 280//278 281//278 351//278
f 143//46 281//46 141//46
f 282//274 349//274 146//274
f 283//279 348//279 282//279
f 349//279 282//279 348//279
f 347//280 348//280 331//280
f 283//280 331//280 348//280
f 329//281 222//281 221//281
f 329//281 221//281 330//281
f 134//282 222//282 329//282
f 134//282 136//282 222//282
f 35//41 136//41 135//41
f 36//283 35//283 135//283
f 350//284 331//284 332//284
f 335//285 352//285 332//285
f 334//266 354//266 336//266
f 354//286 334//286 333//286
f 354//286 333//286 15//286
f 340//287 16//287 333//287
f 347//284 331//284 350//284
f 350//285 332//285 352//285
f 335//265 336//265 352//265
f 15//287 333//287 16//287
f 338//288 19//288 337//288
f 23//289 341//289 21//289
f 343//289 21//289 341//289
f 21//290 343//290 18//290
f 345//290 18//290 343//290
f 17//269 18//269 344//269
f 346//271 337//271 20//271
f 337//288 19//288 20//288
f 19//267 338//267 339//267
f 330//268 221//268 339//268
f 16//272 340//272 342//272
f 23//273 342//273 341//273
f 33//244 158//244 212//244
f 156//283 36//283 135//283
f 36//291 156//291 155//291
f 148//291 155//291 156//291
f 155//51 148//51 147//51
f 150//52 32//52 147//52
f 28//292 32//292 150//292
f 28//292 150//292 154//292
f 154//293 152//293 28//293
f 29//293 28//293 152//293
f 158//54 33//54 153//54
