# Blender 5.0.1
# www.blender.org
mtllib i02_head_eyeAssembly_origin_visual_3.mtl
o i02.head.eyeHolderJXedit.right_visual.001
v -0.023729 -0.035092 0.122031
v 0.000726 -0.074214 0.121968
v -0.023729 -0.106581 0.122031
v 0.000596 -0.035092 0.122031
v 0.023729 -0.190164 0.122031
v -0.007361 -0.236563 0.122031
v 0.000775 -0.244712 0.095918
v 0.000775 -0.243967 0.094258
v -0.007361 -0.243438 0.093523
v 0.023729 -0.236563 0.122031
v 0.023729 -0.247663 0.077670
v 0.023729 -0.250568 0.079556
v -0.007361 -0.247663 0.077670
v -0.023729 0.236328 -0.106160
v -0.023729 0.238695 -0.104953
v -0.023729 0.260093 -0.122003
v -0.023729 0.242194 -0.098068
v -0.023729 0.260122 -0.074860
v -0.023729 0.241779 -0.095437
v -0.023729 0.241779 -0.100699
v -0.023729 0.238695 -0.091193
v -0.023729 0.240571 -0.093061
v -0.023729 0.236328 -0.089977
v -0.007361 -0.259103 0.091618
v -0.007361 -0.256142 0.085375
v 0.000775 -0.257641 0.088062
v -0.023729 0.240571 -0.103067
v -0.023729 0.260122 -0.122003
v -0.023729 0.228726 -0.104953
v -0.023729 0.231084 -0.106160
v -0.023729 0.140369 -0.122012
v -0.023729 0.225642 -0.095437
v -0.023729 0.204744 -0.074869
v -0.023729 0.226850 -0.093061
v -0.023729 0.225228 -0.098068
v -0.023729 0.225642 -0.100699
v -0.023729 0.156844 -0.100699
v -0.023729 0.228726 -0.091193
v -0.023729 0.233706 -0.106575
v -0.023729 0.155647 -0.103067
v -0.023729 0.226850 -0.103067
v -0.023729 0.231084 -0.089977
v -0.023729 0.233706 -0.089562
v -0.023729 0.153770 -0.104953
v -0.023729 0.157259 -0.098068
v -0.023729 0.153770 -0.091193
v -0.023729 0.155647 -0.093061
v -0.023729 0.156844 -0.095437
v -0.023729 0.143792 -0.104953
v -0.023729 0.146159 -0.106160
v -0.023729 0.140708 -0.100699
v -0.023729 0.141915 -0.103067
v -0.023729 0.072174 -0.100699
v -0.023729 0.148781 -0.106575
v -0.023729 0.151412 -0.106160
v -0.007361 -0.259839 0.095003
v 0.023729 -0.258820 0.090920
v 0.023729 -0.259688 0.094023
v 0.019651 -0.257358 0.087431
v -0.007361 -0.237837 0.106867
v -0.007361 -0.240025 0.106226
v -0.007361 -0.243410 0.121022
v -0.007361 -0.240015 0.121748
v -0.023729 0.141915 -0.093061
v -0.023729 0.077474 -0.074879
v -0.023729 0.143792 -0.091193
v -0.023729 0.146159 -0.089977
v -0.023729 0.148781 -0.089562
v -0.023729 0.070977 -0.093061
v -0.023729 0.140708 -0.095437
v -0.023729 0.140293 -0.098068
v -0.023729 0.072599 -0.098068
v -0.023729 0.151412 -0.089977
v -0.023729 0.061489 -0.106160
v -0.023729 0.064111 -0.106575
v -0.023729 0.039298 -0.122031
v -0.023729 0.066723 -0.106160
v -0.023729 0.069090 -0.104953
v -0.023729 0.070977 -0.103067
v -0.023729 0.072174 -0.095437
v -0.023729 0.061489 -0.089977
v -0.023729 0.064111 -0.089562
v -0.023729 0.059122 -0.091193
v -0.023729 -0.073268 0.074888
v -0.023729 0.069090 -0.091193
v -0.023729 0.066723 -0.089977
v -0.023729 0.056038 -0.095437
v -0.023729 0.057245 -0.093061
v -0.023729 0.059122 -0.104953
v -0.023729 0.057245 -0.103067
v -0.023729 0.056038 -0.100699
v -0.023729 0.055623 -0.098068
v -0.007361 -0.236563 0.074888
v -0.007361 -0.232225 0.091184
v -0.007361 -0.243410 0.075907
v -0.007361 -0.237214 0.090015
v -0.007361 -0.234328 0.106641
v -0.007361 -0.236177 0.106952
v -0.007361 -0.229311 0.102831
v -0.007361 -0.230292 0.104170
v -0.007361 -0.232225 0.105754
v -0.007361 -0.228255 0.100124
v -0.007361 -0.228453 0.095994
v -0.007361 -0.228113 0.098879
v -0.007361 -0.229311 0.094089
v -0.007361 -0.230886 0.092165
v -0.007361 -0.239647 0.090562
v -0.007361 -0.233734 0.090467
v -0.007361 -0.250568 0.079556
v -0.007361 -0.253992 0.082649
v -0.007361 -0.241656 0.091637
v -0.007361 -0.260122 0.098455
v -0.007361 -0.259839 0.101907
v -0.007361 -0.245108 0.098464
v -0.007361 -0.244740 0.095994
v -0.007361 -0.244872 0.100322
v 0.000775 -0.232187 0.105726
v -0.007361 -0.258716 0.106395
v -0.007361 -0.242891 0.104170
v -0.007361 -0.251502 0.116684
v -0.007361 -0.241656 0.105292
v -0.007361 -0.244278 0.102095
v -0.007361 -0.256736 0.110554
v -0.007361 -0.248654 0.118655
v 0.000775 -0.240034 0.106216
v 0.000775 -0.240062 0.106216
v -0.007361 -0.253992 0.114270
v 0.000596 0.260122 -0.074860
v 0.000596 0.260122 -0.122003
v 0.023729 -0.255604 0.084667
v 0.023729 -0.257377 0.087478
v 0.023729 -0.237752 0.074954
v 0.023729 -0.237601 0.090052
v 0.023729 -0.238997 0.075029
v 0.019651 -0.253265 0.081857
v 0.023729 -0.236563 0.074888
v 0.023729 -0.190154 0.074888
v 0.023729 -0.233734 0.090467
v 0.023729 -0.240685 0.075341
v 0.023729 -0.235083 0.090175
v 0.023729 -0.231622 0.091674
v 0.023729 -0.230726 0.092429
v 0.023729 -0.253303 0.081895
v 0.023729 -0.228943 0.094862
v 0.023729 -0.228245 0.099615
v 0.023729 -0.228170 0.098153
v 0.023729 -0.229311 0.102831
v 0.023729 -0.230292 0.104170
v 0.023729 -0.228566 0.101246
v 0.023729 -0.228198 0.097210
v 0.023729 -0.231518 0.105264
v 0.023729 -0.244165 0.076227
v 0.023729 -0.239478 0.090477
v 0.023729 -0.241015 0.091222
v 0.023729 -0.244598 0.095616
v 0.023729 -0.242750 0.092627
v 0.023729 -0.243891 0.094107
v 0.023729 -0.245560 0.076689
v 0.023729 -0.245079 0.098842
v 0.023729 -0.234517 0.106697
v 0.023729 -0.232895 0.106113
v 0.023729 -0.238035 0.106820
v 0.023729 -0.235762 0.106886
v 0.023729 -0.240204 0.106150
v 0.023729 -0.240015 0.121748
v 0.023729 -0.243410 0.121022
v 0.023729 -0.248569 0.118693
v 0.023729 -0.250993 0.116986
v 0.023729 -0.241656 0.105292
v 0.023729 -0.252322 0.115949
v 0.023729 -0.242891 0.104170
v 0.023729 -0.244834 0.100511
v 0.023729 -0.244174 0.102265
v 0.023729 -0.258283 0.107527
v 0.023729 -0.256208 0.111441
v 0.000775 -0.242891 0.104170
v 0.000775 -0.244259 0.102123
v 0.000775 -0.244259 0.102133
v 0.023729 -0.260112 0.098342
v 0.023729 -0.259631 0.103142
v 0.023729 -0.259688 0.102878
v 0.023729 -0.254680 0.113506
v 0.000596 0.242194 -0.098068
v 0.000596 0.260093 -0.122003
v 0.000596 0.260093 -0.122012
v 0.019651 -0.230264 0.092825
v 0.019651 -0.229094 0.094636
v 0.000596 0.233706 -0.106575
v 0.000596 0.236328 -0.106160
v 0.019651 -0.228943 0.094881
v 0.000596 0.241779 -0.100699
v 0.000596 0.240571 -0.103067
v 0.000596 0.238695 -0.104953
v 0.000596 0.241779 -0.095437
v 0.000596 0.238695 -0.091193
v 0.000596 0.240571 -0.093061
v 0.000596 0.233706 -0.089562
v 0.000596 0.236328 -0.089977
v 0.000775 -0.228293 0.100218
v 0.019651 -0.228198 0.097210
v 0.019651 -0.228340 0.100143
v 0.019651 -0.228566 0.101199
v 0.019651 -0.228403 0.096569
v 0.000596 0.228726 -0.104953
v 0.000596 0.154289 -0.122012
v 0.000596 0.231084 -0.106160
v 0.000596 0.225228 -0.098068
v 0.000596 0.156844 -0.100699
v 0.000596 0.225642 -0.100699
v 0.000596 0.226850 -0.103067
v 0.000775 -0.229311 0.102831
v 0.000596 0.231084 -0.089977
v 0.000596 0.204744 -0.074869
v 0.000596 0.228726 -0.091193
v 0.000596 0.226850 -0.093061
v 0.000596 0.225642 -0.095437
v 0.000596 0.157259 -0.098068
v 0.000775 -0.228321 0.100350
v 0.000596 0.155647 -0.103067
v 0.000596 0.156844 -0.095437
v 0.000596 0.155647 -0.093061
v 0.000596 0.153770 -0.104953
v 0.000596 0.153770 -0.091193
v 0.000596 0.039298 -0.122031
v 0.000775 -0.241656 0.105292
v 0.000596 0.072174 -0.095437
v 0.000596 0.072599 -0.098068
v 0.000596 0.140708 -0.095437
v 0.000596 0.070977 -0.093061
v 0.000596 0.151412 -0.106160
v 0.000596 0.148781 -0.106575
v 0.000596 0.146159 -0.106160
v 0.000596 0.143792 -0.104953
v 0.000596 0.141915 -0.093061
v 0.000596 0.077474 -0.074879
v 0.000596 0.148781 -0.089562
v 0.000596 0.146159 -0.089977
v 0.000596 0.143792 -0.091193
v 0.000596 0.151412 -0.089977
v 0.000596 0.140293 -0.098068
v 0.019651 -0.247550 0.119287
v 0.000596 0.140708 -0.100699
v 0.000596 0.141915 -0.103067
v 0.019651 -0.228953 0.094843
v 0.009273 -0.241449 0.091505
v 0.019651 -0.233734 0.090467
v 0.019651 -0.245089 0.098804
v 0.019651 -0.245079 0.098860
v 0.019651 -0.232055 0.091307
v 0.019651 -0.259678 0.102982
v 0.019651 -0.244598 0.095626
v 0.009483 -0.242778 0.092655
v 0.019651 -0.249578 0.118099
v 0.000596 0.072174 -0.100699
v 0.000596 0.070977 -0.103067
v 0.000596 0.069090 -0.091193
v 0.000596 0.066723 -0.106160
v 0.000775 -0.233734 0.090467
v 0.000775 -0.237148 0.090024
v 0.000775 -0.237252 0.090024
v 0.000775 -0.239647 0.090562
v 0.000775 -0.241581 0.091599
v 0.000596 0.064111 -0.106575
v 0.000596 0.061489 -0.106160
v 0.000596 0.059122 -0.104953
v 0.000596 0.069090 -0.104953
v 0.000775 -0.234036 0.090392
v 0.000775 -0.236865 0.090024
v 0.000596 0.061489 -0.089977
v 0.000689 -0.073928 0.074888
v 0.000596 0.059122 -0.091193
v 0.000775 -0.237290 0.090024
v 0.000775 -0.239610 0.090543
v 0.000596 0.064111 -0.089562
v 0.000596 0.066723 -0.089977
v 0.000596 0.057245 -0.103067
v 0.000596 0.056038 -0.100699
v 0.000596 0.056038 -0.095437
v 0.000596 0.057245 -0.093061
v 0.000596 0.055623 -0.098068
v 0.000775 -0.241524 0.091552
v 0.000775 -0.242863 0.092731
v -0.023729 -0.106581 0.074888
v -0.007361 -0.188486 0.122031
v 0.000596 -0.071920 0.094768
v 0.001910 -0.080247 0.095117
v 0.019651 -0.243024 0.075859
v 0.000775 -0.243410 0.075907
v 0.019651 -0.228943 0.094890
v -0.007361 -0.188486 0.074888
vn 0.0078 -0.0000 1.0000
vn -0.0000 -0.0016 1.0000
vn -0.0006 0.0004 1.0000
vn 0.0222 0.9121 0.4094
vn -0.0000 -0.0000 1.0000
vn -0.0000 -0.5446 -0.8387
vn -1.0000 -0.0000 -0.0000
vn -0.0249 -0.9032 -0.4284
vn -0.0038 -0.9630 -0.2693
vn 0.0012 -0.9259 -0.3779
vn 0.0026 -0.0000 1.0000
vn -0.9806 -0.1960 -0.0000
vn 0.0002 -0.6338 -0.7735
vn -0.0012 -0.0000 -1.0000
vn -0.0008 0.2813 -0.9596
vn -0.0000 1.0000 -0.0000
vn 0.0023 -0.8457 -0.5336
vn 1.0000 -0.0000 -0.0000
vn 0.0029 -0.7851 -0.6194
vn -0.0051 -0.6445 -0.7645
vn -0.0012 -0.7695 -0.6386
vn -0.0055 -0.8405 -0.5418
vn 0.0002 -0.9234 -0.3837
vn -0.0003 -0.9222 -0.3866
vn 0.0037 -0.8684 -0.4958
vn 0.0054 -0.3391 -0.9407
vn -0.0006 0.2950 -0.9555
vn -0.0014 -0.3884 -0.9215
vn 0.0004 0.8314 -0.5556
vn 0.0006 0.8315 -0.5556
vn -0.0000 0.8303 -0.5574
vn -0.0023 1.0000 -0.0000
vn -0.0000 -0.0000 -1.0000
vn -0.0424 -0.8393 0.5421
vn -0.0030 -0.8067 0.5910
vn 0.0024 -0.8517 0.5241
vn -0.0000 -0.7089 0.7054
vn -0.0000 -0.9878 0.1558
vn -0.0000 -0.4543 0.8909
vn -0.0083 -0.9965 -0.0831
vn -0.0000 -0.7053 -0.7089
vn -0.0000 -0.4571 -0.8894
vn -0.0000 -0.1563 -0.9877
vn -0.0000 -0.8908 0.4543
vn -0.0000 -0.1563 0.9877
vn -0.0000 -0.9878 -0.1558
vn -0.0023 -0.9812 -0.1928
vn 0.0024 -0.9778 -0.2095
vn 0.0049 -0.9049 -0.4255
vn 0.0164 -0.9985 -0.0515
vn -0.0000 -0.8916 -0.4529
vn -0.0047 -0.9525 0.3046
vn -0.0000 -0.9525 0.3046
vn -0.0000 0.4557 0.8901
vn -0.0000 -0.9996 0.0300
vn 0.0181 -0.9987 -0.0482
vn -0.0000 0.7089 0.7053
vn -0.0000 0.8908 0.4543
vn -0.0000 0.1563 0.9877
vn -0.0000 -0.6658 -0.7462
vn -0.0000 -0.8068 -0.5909
vn -0.0000 -0.9287 -0.3708
vn -0.0000 0.7053 -0.7089
vn -0.0000 0.8916 -0.4529
vn 0.0026 -0.6277 -0.7785
vn -0.0000 0.9878 -0.1558
vn -0.0018 -0.5247 -0.8513
vn -0.0000 -0.9317 -0.3633
vn -0.0000 0.4585 -0.8887
vn -0.0000 0.9878 0.1558
vn 0.0026 -0.9316 -0.3635
vn -0.0000 0.1563 -0.9877
vn 0.0096 -0.9003 -0.4351
vn -0.0021 -0.9778 -0.2096
vn -0.0000 -0.7089 0.7053
vn -0.0097 -0.9957 -0.0918
vn -0.0000 -0.8923 0.4515
vn -0.0033 -0.9936 -0.1129
vn -0.0000 -0.8930 -0.4501
vn -0.0000 -0.0002 1.0000
vn -0.0011 0.9482 -0.3177
vn -0.0001 0.0002 -1.0000
vn -0.0000 0.0001 -1.0000
vn -0.0004 -0.0000 -1.0000
vn -0.0000 0.6724 -0.7402
vn 0.0013 0.4967 -0.8679
vn -0.0000 0.5016 -0.8651
vn -0.0021 0.9891 0.1472
vn -0.0000 -0.1558 0.9878
vn -0.0000 -0.4557 0.8901
vn -0.0033 -0.8044 0.5941
vn -0.0031 -0.9029 0.4299
vn -0.0000 0.4571 -0.8894
vn -0.0045 -0.4114 0.9114
vn -0.0000 -0.4585 -0.8887
vn 0.0017 -0.8835 0.4684
vn 0.0041 -0.9931 0.1169
vn 0.0006 -0.9117 0.4108
vn -0.0025 0.0290 -0.9996
vn 0.0012 0.4950 -0.8689
vn 0.0004 0.2852 -0.9585
vn -0.0012 0.0511 -0.9987
vn 0.0001 -0.1660 -0.9861
vn -0.0007 -0.3907 -0.9205
vn 0.0009 -0.1498 -0.9887
vn -0.0000 0.5087 -0.8609
vn -0.0000 0.8295 -0.5585
vn 0.0045 0.4361 0.8999
vn -0.0000 -0.4961 0.8682
vn -0.0008 0.9863 -0.1652
vn -0.0013 0.9359 -0.3522
vn -0.0331 -0.4470 0.8939
vn 0.0008 0.9455 -0.3255
vn 0.0008 0.9920 -0.1259
vn -0.0003 0.9893 -0.1462
vn -0.0007 0.9894 -0.1453
vn 0.0027 -0.9566 0.2913
vn -0.0039 -0.9701 0.2425
vn -0.0000 -0.2119 0.9773
vn -0.0005 -0.9558 0.2940
vn 0.0031 -0.9778 0.2095
vn 0.0017 -0.9952 -0.0978
vn 1.0000 -0.0002 -0.0000
vn 0.0027 -0.9967 0.0817
vn 0.0002 -0.9953 0.0965
vn 0.0004 0.9883 0.1525
vn -0.0032 -0.8039 0.5947
vn -0.0037 0.9891 0.1475
vn -0.0004 0.7921 0.6105
vn 0.0003 0.6293 0.7772
vn 0.0006 -0.9957 0.0932
vn -0.0048 0.6539 0.7566
vn -0.0000 -0.9967 -0.0817
vn 0.0010 0.9054 0.4245
vn 0.0010 -0.6499 -0.7600
vn -0.0000 -0.2092 0.9779
vn -0.0000 -0.0817 0.9967
vn 0.0234 -0.5756 0.8174
vn -0.0000 0.4543 0.8909
vn -0.0000 -0.3865 0.9223
vn 0.0300 -0.4113 0.9110
vn 0.0005 -0.5056 0.8628
vn -0.0006 -0.5056 0.8628
vn 0.0018 -0.6151 0.7885
vn -0.0051 -0.6214 0.7835
vn -0.0000 -0.1558 -0.9878
vn 0.0044 -0.5691 0.8223
vn 0.0011 -0.7195 0.6945
vn -0.0014 -0.6961 0.7179
vn -0.0000 -0.0001 1.0000
vn -0.0000 0.8682 0.4963
vn -0.0000 0.0002 -1.0000
vn -0.0002 0.9067 0.4218
vn 0.0051 -0.1288 0.9917
vn -0.0014 -0.4350 0.9004
vn -0.0066 -0.0000 1.0000
vn 0.0020 0.2206 0.9754
vn -0.0020 -0.0486 0.9988
vn -0.0042 0.7443 0.6678
vn 0.0041 -0.9772 -0.2123
vn 0.0013 0.7999 0.6001
vn 0.0486 0.6579 0.7515
vn 0.0021 0.2190 0.9757
vn -0.0000 -0.6704 -0.7420
vn -0.0000 -0.9872 0.1592
vn -0.0000 -0.1569 0.9876
vn 1.0000 0.0002 -0.0004
vn -0.0001 0.4633 0.8862
vn 1.0000 0.0001 -0.0005
vn -0.0000 -0.4472 0.8944
vn -0.0000 -0.7035 -0.7107
vn 0.0001 -0.5909 0.8068
vn -0.0000 -0.1569 -0.9876
vn 1.0000 0.0004 -0.0002
vn 1.0000 0.0003 -0.0003
vn 1.0000 0.0006 -0.0001
vn -0.0000 -0.2426 0.9701
vn 1.0000 0.0004 -0.0003
vn -0.0000 -0.4290 0.9033
vn -0.0012 -0.0000 1.0000
vn -0.0000 0.4475 0.8943
vn 0.0012 0.2182 0.9759
vn 0.0009 0.2193 0.9757
vn 0.0044 -0.1289 0.9916
vn 0.0044 -0.1290 0.9916
vn -0.0000 -0.7071 0.7071
vn -0.0031 0.9896 0.1439
vn -0.0037 0.9891 0.1471
vn 0.0024 0.4728 0.8812
vn -0.0000 -0.9872 -0.1592
vn -0.0027 0.6616 0.7498
vn 0.0155 0.7267 0.6868
vn -0.0024 0.6400 0.7684
vn -0.0000 0.4667 0.8844
vn 0.0015 0.4719 0.8817
vn -0.0000 -0.8669 -0.4985
vn 0.0012 0.8848 0.4660
vn 0.0009 0.9123 0.4095
vn -0.0003 0.8107 0.5855
vn 0.0020 0.0004 1.0000
vn 0.9878 0.1554 -0.0111
vn 0.9877 0.1562 0.0085
vn 1.0000 0.0033 -0.0045
vn 1.0000 0.0014 0.0008
vn 1.0000 -0.0038 0.0051
vn -0.0235 -0.8679 -0.4961
vn 0.0183 -0.2468 -0.9689
vn -0.0023 -0.3143 -0.9493
vn 0.0039 -0.3053 -0.9523
vn -0.0037 -0.3769 -0.9262
vn -0.0000 -0.4227 -0.9063
vn -0.0000 -0.3830 -0.9237
vn -0.0097 -0.1813 -0.9834
vn -0.0051 -0.1471 -0.9891
vn 0.0021 -0.2199 -0.9755
vn -0.0000 -0.2033 -0.9791
vn -0.0000 -0.0555 -0.9985
vn -0.0002 -0.0605 -0.9982
vn 0.9809 0.1945 0.0016
vn 0.9809 0.1946 -0.0005
vn 0.9809 0.1947 -0.0000
vn -0.0037 -0.6465 0.7629
vn -0.0182 -0.9998 -0.0000
vn -0.0076 -0.9700 0.2429
vn -0.0048 -0.9520 0.3062
vn -0.0048 -0.8263 0.5632
vn -0.0042 -0.8400 0.5425
vn 0.0023 -0.7738 0.6335
vn 1.0000 0.0014 -0.0000
vn 0.0008 -0.6465 0.7629
vn -0.0005 -0.6441 0.7649
vn 0.0014 -0.9532 0.3024
s 0
f 2//1 284//1 6//1
f 4//2 1//2 2//2
f 5//3 2//3 6//3
f 7//4 8//4 9//4
f 10//5 5//5 6//5
f 11//6 12//6 13//6
f 6//7 284//7 100//7
f 14//7 15//7 16//7
f 17//7 18//7 16//7
f 19//7 18//7 17//7
f 20//7 17//7 16//7
f 21//7 18//7 22//7
f 22//7 18//7 19//7
f 23//7 18//7 21//7
f 24//8 25//8 26//8
f 15//7 27//7 16//7
f 27//7 20//7 16//7
f 28//7 16//7 18//7
f 29//7 30//7 31//7
f 32//7 33//7 34//7
f 35//7 36//7 37//7
f 38//7 34//7 33//7
f 30//7 39//7 16//7
f 39//7 14//7 16//7
f 16//7 31//7 30//7
f 40//7 37//7 36//7
f 29//7 31//7 41//7
f 42//7 38//7 33//7
f 43//7 42//7 33//7
f 33//7 18//7 43//7
f 44//7 41//7 31//7
f 32//7 35//7 45//7
f 46//7 33//7 47//7
f 33//7 32//7 45//7
f 48//7 33//7 45//7
f 37//7 45//7 35//7
f 36//7 41//7 40//7
f 44//7 40//7 41//7
f 23//7 43//7 18//7
f 48//7 47//7 33//7
f 49//7 50//7 31//7
f 51//7 52//7 53//7
f 49//7 31//7 52//7
f 54//7 31//7 50//7
f 44//7 31//7 55//7
f 54//7 55//7 31//7
f 56//9 57//9 58//9
f 59//10 24//10 26//10
f 60//7 61//7 62//7
f 63//7 6//7 60//7
f 64//7 65//7 66//7
f 67//7 66//7 65//7
f 68//7 67//7 65//7
f 65//7 33//7 68//7
f 69//7 65//7 70//7
f 71//7 72//7 70//7
f 46//7 73//7 33//7
f 51//7 72//7 71//7
f 31//7 53//7 52//7
f 64//7 70//7 65//7
f 73//7 68//7 33//7
f 74//7 75//7 76//7
f 75//7 77//7 76//7
f 31//7 76//7 77//7
f 31//7 77//7 78//7
f 53//7 31//7 79//7
f 78//7 79//7 31//7
f 72//7 51//7 53//7
f 80//7 70//7 72//7
f 69//7 70//7 80//7
f 81//7 1//7 82//7
f 83//7 84//7 81//7
f 1//7 65//7 82//7
f 85//7 86//7 65//7
f 86//7 82//7 65//7
f 69//7 85//7 65//7
f 87//7 84//7 88//7
f 89//7 76//7 90//7
f 91//7 90//7 76//7
f 74//7 76//7 89//7
f 92//7 91//7 76//7
f 88//7 84//7 83//7
f 76//7 84//7 92//7
f 92//7 84//7 87//7
f 284//7 290//7 104//7
f 1//7 81//7 84//7
f 95//7 96//7 93//7
f 97//7 98//7 6//7
f 103//7 290//7 105//7
f 2//11 1//11 3//11
f 102//7 99//7 284//7
f 105//7 290//7 106//7
f 3//7 84//7 283//7
f 84//7 3//7 1//7
f 290//7 103//7 104//7
f 290//12 284//12 3//12 283//12
f 96//7 95//7 107//7
f 108//7 93//7 96//7
f 290//7 93//7 106//7
f 94//7 93//7 108//7
f 109//7 110//7 111//7
f 109//7 111//7 13//7
f 111//7 107//7 13//7
f 95//7 13//7 107//7
f 110//7 25//7 9//7
f 9//7 111//7 110//7
f 112//7 113//7 114//7
f 25//7 24//7 115//7
f 24//7 56//7 115//7
f 116//7 114//7 113//7
f 114//7 115//7 56//7
f 98//7 60//7 6//7
f 101//13 100//13 117//13
f 113//7 118//7 116//7
f 119//7 120//7 121//7
f 122//7 123//7 119//7
f 61//7 121//7 124//7
f 124//7 62//7 61//7
f 62//7 63//7 60//7
f 124//7 121//7 120//7
f 56//7 112//7 114//7
f 61//14 125//14 126//14
f 127//7 119//7 123//7
f 115//7 9//7 25//7
f 60//15 125//15 61//15
f 123//7 122//7 118//7
f 122//7 116//7 118//7
f 120//7 119//7 127//7
f 101//7 97//7 6//7
f 101//7 6//7 100//7
f 28//16 18//16 128//16
f 128//16 129//16 28//16
f 59//17 130//17 131//17
f 132//18 133//18 134//18
f 135//19 25//19 110//19
f 136//18 133//18 132//18
f 137//18 138//18 136//18
f 139//18 134//18 133//18
f 133//18 136//18 140//18
f 110//20 12//20 135//20
f 141//18 137//18 142//18
f 25//21 135//21 143//21
f 142//18 137//18 144//18
f 26//22 130//22 59//22
f 131//23 24//23 59//23
f 145//18 146//18 5//18
f 141//18 138//18 137//18
f 131//24 57//24 24//24
f 26//25 25//25 130//25
f 147//18 5//18 148//18
f 25//21 143//21 130//21
f 149//18 5//18 147//18
f 145//18 5//18 149//18
f 137//18 5//18 146//18
f 150//18 137//18 146//18
f 144//18 137//18 150//18
f 151//18 148//18 5//18
f 140//18 136//18 138//18
f 152//18 139//18 153//18
f 154//18 11//18 153//18
f 133//18 153//18 139//18
f 58//18 57//18 155//18
f 156//18 12//18 154//18
f 157//18 130//18 156//18
f 11//18 154//18 12//18
f 11//18 158//18 153//18
f 152//18 153//18 158//18
f 155//18 159//18 58//18
f 57//18 131//18 155//18
f 130//18 157//18 131//18
f 143//18 156//18 130//18
f 12//18 156//18 143//18
f 157//18 155//18 131//18
f 160//18 161//18 10//18
f 162//18 163//18 10//18
f 161//26 160//26 117//26
f 162//27 164//27 125//27
f 161//18 5//18 10//18
f 151//18 5//18 161//18
f 10//18 163//18 160//18
f 10//18 165//18 162//18
f 165//18 166//18 162//18
f 167//18 168//18 169//18
f 169//18 164//18 167//18
f 168//18 170//18 169//18
f 117//28 97//28 101//28
f 171//18 169//18 170//18
f 172//18 173//18 174//18
f 175//18 174//18 173//18
f 176//7 177//7 178//7
f 179//18 58//18 159//18
f 174//18 180//18 172//18
f 180//18 181//18 172//18
f 159//18 172//18 181//18
f 179//18 159//18 181//18
f 173//18 171//18 175//18
f 173//29 177//29 176//29
f 122//30 119//30 178//30
f 176//31 178//31 119//31
f 182//18 175//18 171//18
f 170//18 182//18 171//18
f 164//18 162//18 166//18
f 167//18 164//18 166//18
f 177//32 122//32 178//32
f 183//18 184//18 128//18
f 185//16 16//16 184//16
f 184//33 16//33 28//33
f 184//33 28//33 129//33
f 186//34 142//34 187//34
f 142//35 144//35 187//35
f 188//18 185//18 189//18
f 187//36 144//36 190//36
f 183//18 191//18 184//18
f 192//37 15//37 193//37
f 183//38 17//38 191//38
f 15//39 189//39 193//39
f 192//18 184//18 191//18
f 193//18 184//18 192//18
f 189//18 184//18 193//18
f 129//18 128//18 184//18
f 183//18 128//18 194//18
f 195//18 196//18 128//18
f 196//18 194//18 128//18
f 128//18 197//18 198//18
f 198//18 195//18 128//18
f 199//40 104//40 200//40
f 21//41 196//41 195//41
f 198//42 21//42 195//42
f 197//43 43//43 198//43
f 20//44 27//44 191//44
f 192//44 191//44 27//44
f 15//37 192//37 27//37
f 188//45 189//45 39//45
f 14//45 39//45 189//45
f 19//46 17//46 194//46
f 183//46 194//46 17//46
f 145//47 149//47 201//47
f 202//48 201//48 149//48
f 20//38 191//38 17//38
f 147//49 202//49 149//49
f 196//41 21//41 22//41
f 145//50 201//50 146//50
f 196//51 22//51 194//51
f 19//51 194//51 22//51
f 21//42 198//42 23//42
f 43//43 23//43 198//43
f 15//39 14//39 189//39
f 200//52 103//52 203//52
f 204//18 205//18 206//18
f 190//53 150//53 203//53
f 200//53 203//53 150//53
f 207//18 208//18 209//18
f 210//18 209//18 205//18
f 201//18 202//18 200//18
f 30//54 204//54 206//54
f 200//55 150//55 146//55
f 201//56 200//56 146//56
f 204//57 41//57 210//57
f 210//58 41//58 209//58
f 30//59 206//59 188//59
f 206//18 185//18 188//18
f 184//18 189//18 185//18
f 204//18 210//18 205//18
f 100//60 148//60 151//60
f 99//61 211//61 100//61
f 147//61 148//61 211//61
f 212//18 213//18 214//18
f 214//18 213//18 215//18
f 215//18 213//18 216//18
f 216//18 217//18 207//18
f 211//62 99//62 218//62
f 34//63 214//63 215//63
f 32//64 34//64 215//64
f 32//64 215//64 216//64
f 100//65 151//65 117//65
f 32//66 216//66 207//66
f 151//67 161//67 117//67
f 211//68 199//68 147//68
f 185//18 206//18 205//18
f 205//18 209//18 219//18
f 188//59 39//59 30//59
f 214//63 34//63 38//63
f 100//61 211//61 148//61
f 38//69 42//69 214//69
f 212//69 214//69 42//69
f 35//66 32//66 207//66
f 30//54 29//54 204//54
f 207//70 209//70 35//70
f 36//70 35//70 209//70
f 204//57 29//57 41//57
f 218//71 99//71 102//71
f 41//58 36//58 209//58
f 43//72 197//72 42//72
f 212//72 42//72 197//72
f 199//7 211//7 218//7
f 220//18 213//18 221//18
f 147//73 199//73 202//73
f 213//18 220//18 217//18
f 208//18 207//18 217//18
f 219//18 209//18 208//18
f 199//74 218//74 102//74
f 40//75 222//75 219//75
f 223//41 46//41 221//41
f 202//76 199//76 200//76
f 37//77 40//77 219//77
f 37//77 219//77 208//77
f 104//78 199//78 102//78
f 221//79 47//79 48//79
f 221//79 48//79 220//79
f 220//46 48//46 45//46
f 220//46 45//46 217//46
f 217//38 45//38 37//38
f 217//38 37//38 208//38
f 18//80 33//80 213//80
f 18//80 213//80 128//80
f 213//18 197//18 128//18
f 213//18 217//18 216//18
f 212//18 197//18 213//18
f 177//81 116//81 122//81
f 224//82 31//82 205//82
f 205//83 31//83 16//83
f 205//84 16//84 185//84
f 119//85 121//85 176//85
f 225//85 176//85 121//85
f 171//85 176//85 225//85
f 126//7 125//7 225//7
f 121//86 61//86 126//86
f 226//18 227//18 228//18
f 229//18 226//18 228//18
f 225//87 121//87 126//87
f 230//18 205//18 222//18
f 222//18 205//18 219//18
f 230//18 231//18 205//18
f 231//18 232//18 205//18
f 233//18 205//18 232//18
f 114//88 7//88 115//88
f 55//89 231//89 230//89
f 55//90 230//90 222//90
f 123//91 175//91 127//91
f 234//18 235//18 228//18
f 236//18 235//18 237//18
f 118//92 174//92 123//92
f 238//18 235//18 234//18
f 237//18 235//18 238//18
f 228//18 235//18 229//18
f 239//18 213//18 236//18
f 223//18 213//18 239//18
f 221//18 213//18 223//18
f 213//18 235//18 236//18
f 70//66 228//66 240//66
f 237//93 238//93 67//93
f 236//72 237//72 67//72
f 62//94 124//94 241//94
f 228//64 70//64 234//64
f 239//95 46//95 223//95
f 175//96 123//96 174//96
f 70//66 240//66 71//66
f 240//70 242//70 71//70
f 51//70 71//70 242//70
f 44//75 222//75 40//75
f 55//89 54//89 231//89
f 243//57 233//57 52//57
f 49//57 52//57 233//57
f 104//97 103//97 200//97
f 244//98 103//98 105//98
f 163//99 162//99 98//99
f 169//85 171//85 225//85
f 125//100 164//100 225//100
f 125//101 60//101 162//101
f 60//102 98//102 162//102
f 97//103 163//103 98//103
f 97//104 117//104 160//104
f 97//105 160//105 163//105
f 164//106 169//106 225//106
f 173//107 176//107 171//107
f 154//108 153//108 245//108
f 138//109 141//109 246//109
f 247//110 248//110 159//110
f 177//111 173//111 172//111
f 249//112 246//112 141//112
f 116//113 177//113 172//113
f 248//114 114//114 116//114
f 248//115 116//115 172//115
f 248//116 172//116 159//116
f 118//117 250//117 174//117
f 118//118 113//118 250//118
f 138//119 246//119 140//119
f 174//120 250//120 180//120
f 250//121 181//121 180//121
f 179//122 56//122 58//122
f 251//123 248//123 247//123
f 250//124 113//124 112//124
f 181//125 250//125 112//125
f 251//126 247//126 155//126
f 175//127 182//127 127//127
f 155//128 247//128 159//128
f 252//129 157//129 156//129
f 154//130 252//130 156//130
f 181//131 112//131 179//131
f 252//132 154//132 245//132
f 112//133 56//133 179//133
f 157//134 251//134 155//134
f 135//135 12//135 143//135
f 165//136 63//136 166//136
f 62//136 166//136 63//136
f 6//137 63//137 10//137
f 165//137 10//137 63//137
f 51//58 242//58 52//58
f 243//58 52//58 242//58
f 167//138 253//138 168//138
f 233//139 232//139 49//139
f 50//139 49//139 232//139
f 62//140 241//140 166//140
f 222//90 44//90 55//90
f 50//59 232//59 54//59
f 231//59 54//59 232//59
f 241//141 167//141 166//141
f 124//142 253//142 241//142
f 67//93 238//93 66//93
f 234//63 64//63 238//63
f 66//63 238//63 64//63
f 241//143 253//143 167//143
f 236//72 67//72 68//72
f 253//144 170//144 168//144
f 47//41 221//41 46//41
f 253//145 124//145 170//145
f 68//146 73//146 236//146
f 239//146 236//146 73//146
f 120//147 170//147 124//147
f 70//64 64//64 234//64
f 239//95 73//95 46//95
f 170//148 127//148 182//148
f 120//149 127//149 170//149
f 254//18 255//18 242//18
f 233//18 243//18 255//18
f 243//18 242//18 255//18
f 256//18 229//18 235//18
f 33//150 65//150 235//150
f 33//150 235//150 213//150
f 235//151 65//151 1//151
f 205//18 257//18 224//18
f 31//152 224//152 76//152
f 258//119 140//119 246//119
f 157//153 8//153 251//153
f 140//154 258//154 259//154
f 94//155 258//155 249//155
f 140//156 259//156 260//156
f 261//157 153//157 133//157
f 133//158 140//158 260//158
f 109//6 13//6 12//6
f 8//159 245//159 262//159
f 57//160 56//160 24//160
f 157//161 252//161 8//161
f 263//18 264//18 224//18
f 264//18 265//18 224//18
f 8//162 252//162 245//162
f 205//18 255//18 266//18
f 205//18 266//18 257//18
f 263//18 224//18 257//18
f 133//163 260//163 261//163
f 205//18 233//18 255//18
f 12//164 110//164 109//164
f 72//165 53//165 227//165
f 254//165 227//165 53//165
f 75//166 263//166 257//166
f 74//139 265//139 264//139
f 263//59 75//59 74//59
f 263//59 74//59 264//59
f 255//77 254//77 53//77
f 258//7 267//7 259//7
f 268//7 259//7 267//7
f 269//167 270//167 271//167
f 261//7 260//7 272//7
f 261//7 272//7 273//7
f 242//18 240//18 227//18
f 245//168 153//168 261//168
f 227//18 254//18 242//18
f 270//169 269//169 274//169
f 275//18 235//18 274//18
f 249//170 258//170 246//170
f 240//18 228//18 227//18
f 256//18 235//18 275//18
f 229//171 256//171 69//171
f 94//172 249//172 106//172
f 274//72 269//72 82//72
f 226//79 229//79 69//79
f 274//173 82//173 86//173
f 274//173 86//173 275//173
f 275//42 86//42 256//42
f 276//18 277//18 224//18
f 278//174 279//174 270//174
f 271//175 270//175 279//175
f 280//176 278//176 270//176
f 108//177 267//177 258//177
f 277//18 280//18 224//18
f 270//178 224//178 280//178
f 265//18 276//18 224//18
f 258//179 94//179 108//179
f 92//66 278//66 280//66
f 268//180 96//180 259//180
f 259//180 96//180 260//180
f 88//63 271//63 279//63
f 278//64 88//64 279//64
f 280//70 277//70 92//70
f 91//70 92//70 277//70
f 107//181 261//181 273//181
f 91//58 277//58 276//58
f 272//182 107//182 273//182
f 96//183 107//183 272//183
f 257//39 266//39 77//39
f 78//39 77//39 266//39
f 108//184 268//184 267//184
f 89//57 90//57 265//57
f 272//180 260//180 96//180
f 257//166 77//166 75//166
f 74//139 89//139 265//139
f 108//185 96//185 268//185
f 255//77 53//77 79//77
f 78//186 266//186 79//186
f 255//186 79//186 266//186
f 248//187 7//187 114//187
f 69//171 256//171 85//171
f 248//188 251//188 7//188
f 83//93 81//93 271//93
f 269//93 271//93 81//93
f 82//72 269//72 81//72
f 261//189 262//189 245//189
f 271//63 88//63 83//63
f 226//79 69//79 80//79
f 281//7 262//7 261//7
f 227//190 226//190 80//190
f 227//190 80//190 72//190
f 282//191 262//191 111//191
f 9//192 282//192 111//192
f 86//42 85//42 256//42
f 111//193 262//193 281//193
f 92//66 87//66 278//66
f 281//194 261//194 107//194
f 276//57 265//57 90//57
f 111//195 281//195 107//195
f 278//64 87//64 88//64
f 276//58 90//58 91//58
f 270//196 76//196 224//196
f 270//175 274//175 235//175
f 7//197 9//197 115//197
f 7//198 251//198 8//198
f 1//151 4//151 235//151
f 282//199 9//199 8//199
f 282//7 8//7 262//7
f 2//200 3//200 284//200
f 270//201 285//201 286//201
f 285//202 2//202 286//202
f 284//7 99//7 100//7
f 2//203 285//203 4//203
f 235//204 4//204 270//204
f 285//205 270//205 4//205
f 84//33 137//33 283//33
f 76//206 270//206 84//206
f 152//207 287//207 139//207
f 152//208 158//208 287//208
f 288//209 287//209 158//209
f 158//210 13//210 288//210
f 158//211 11//211 13//211
f 13//212 95//212 288//212
f 104//7 102//7 284//7
f 270//33 137//33 84//33
f 136//33 93//33 137//33
f 93//213 134//213 139//213
f 93//214 139//214 95//214
f 288//215 139//215 287//215
f 288//216 95//216 139//216
f 132//217 93//217 136//217
f 132//218 134//218 93//218
f 286//219 137//219 270//219
f 2//220 5//220 286//220
f 93//7 94//7 106//7
f 137//221 286//221 5//221
f 249//222 186//222 106//222
f 289//223 103//223 190//223
f 190//224 103//224 244//224
f 289//225 203//225 103//225
f 187//226 244//226 105//226
f 186//227 187//227 105//227
f 186//228 105//228 106//228
f 190//229 203//229 289//229
f 187//7 190//7 244//7
f 249//230 142//230 186//230
f 249//231 141//231 142//231
f 144//232 150//232 190//232
f 137//33 93//33 290//33
f 137//33 290//33 283//33
