# Blender 5.0.1
# www.blender.org
mtllib left_shoulder_z_link_visual_9.mtl
o i01.leftArm.rotate.full.010_visual.001
v -0.265447 -0.000000 -0.037625
v 0.305893 0.009745 -0.036343
v -0.265447 -0.000000 -0.060201
v 0.305893 0.000000 -0.037625
v -0.265447 0.009745 -0.036343
v -0.265447 -0.009731 -0.036344
v -0.309656 0.009745 -0.036343
v -0.309656 -0.000000 -0.037625
v -0.309656 -0.009731 -0.036344
v -0.345399 -0.009731 -0.036344
v -0.309656 -0.000000 -0.060201
v -0.345399 -0.000000 -0.037625
v -0.345399 0.009745 -0.036343
v -0.309656 0.018819 -0.032582
v -0.345399 0.018819 -0.032582
v -0.345399 -0.018806 -0.032586
v -0.345399 -0.026599 -0.026608
v -0.309656 -0.018806 -0.032586
v -0.309656 -0.026599 -0.026608
v -0.265447 -0.018806 -0.032586
v -0.309656 -0.051320 -0.030571
v -0.265447 -0.026599 -0.026608
v 0.305893 -0.026599 -0.026608
v -0.309656 -0.032579 -0.018815
v -0.265447 -0.032579 -0.018815
v 0.305893 -0.018806 -0.032586
v -0.265447 -0.051320 -0.030571
v -0.309656 -0.051320 0.028688
v -0.265447 -0.051320 0.028688
v -0.265447 -0.036338 -0.009742
v -0.309656 -0.036338 -0.009742
v -0.309656 -0.037621 -0.000004
v 0.305893 -0.036338 -0.009742
v 0.305893 -0.032579 -0.018815
v -0.265447 -0.037621 -0.000004
v -0.309656 -0.036340 0.009734
v 0.305893 -0.037621 -0.000004
v -0.265447 -0.036340 0.009734
v 0.305893 -0.036340 0.009734
v -0.265447 -0.032582 0.018809
v -0.309656 -0.032582 0.018809
v -0.345399 -0.026604 0.026602
v -0.309656 -0.026604 0.026602
v -0.345399 -0.032582 0.018809
v -0.345399 0.032586 0.018815
v -0.345399 -0.036340 0.009734
v -0.345399 0.036345 0.009741
v -0.345399 0.037628 0.000003
v -0.309656 0.036345 0.009741
v -0.309656 0.037628 0.000003
v -0.265447 0.032586 0.018815
v -0.309656 0.051320 0.028688
v -0.309656 0.032586 0.018815
v -0.265447 0.036345 0.009741
v 0.305893 0.036345 0.009741
v -0.265447 0.051320 0.028688
v -0.265447 0.037628 0.000003
v 0.305893 0.032586 0.018815
v 0.305893 0.026606 0.026607
v 0.305893 -0.026604 0.026602
v -0.265447 0.026606 0.026607
v 0.305893 0.056099 0.032388
v 0.305893 -0.032582 0.018809
v -0.265447 -0.026604 0.026602
v 0.305893 -0.056099 0.032388
v 0.345399 -0.056099 -0.032390
v 0.305893 -0.056099 -0.032390
v 0.345399 -0.056099 0.032388
v 0.345399 0.000000 0.064778
v 0.305893 -0.018812 0.032582
v 0.305893 0.000000 0.064778
v 0.305893 0.009738 0.036343
v 0.305893 -0.009738 0.036342
v 0.305893 0.018813 0.032585
v 0.305893 0.000000 0.037624
v 0.345399 0.056099 0.032388
v 0.305893 0.056099 -0.032390
v 0.345399 0.056099 -0.032390
v 0.345399 0.000000 -0.064778
v 0.305893 0.000000 -0.064778
v 0.305893 0.026611 -0.026603
v 0.305893 0.018819 -0.032582
v 0.305893 0.032589 -0.018809
v 0.305893 0.036347 -0.009735
v -0.265447 0.032589 -0.018809
v -0.265447 0.026611 -0.026603
v -0.309656 0.026611 -0.026603
v -0.265447 0.051320 -0.030571
v -0.265447 0.018819 -0.032582
v -0.309656 0.051320 -0.030571
v -0.265447 0.036347 -0.009735
v -0.309656 0.036347 -0.009735
v 0.305893 0.037628 0.000003
v -0.309656 0.032589 -0.018809
v -0.345399 0.032589 -0.018809
v -0.345399 -0.036338 -0.009742
v -0.345399 0.036347 -0.009735
v -0.345399 -0.032579 -0.018815
v -0.345399 0.026611 -0.026603
v -0.345399 -0.037621 -0.000004
v -0.265447 -0.009738 0.036342
v -0.265447 -0.000000 0.037624
v -0.265447 0.009738 0.036343
v -0.309656 0.009738 0.036343
v -0.309656 -0.000000 0.037624
v -0.265447 -0.000000 0.058318
v -0.309656 -0.000000 0.058318
v -0.265447 0.018813 0.032585
v -0.265447 -0.018812 0.032582
v -0.309656 -0.018812 0.032582
v -0.309656 -0.009738 0.036342
v -0.345399 -0.018812 0.032582
v -0.345399 -0.009738 0.036342
v -0.345399 0.009738 0.036343
v -0.345399 -0.000000 0.037624
v -0.345399 0.018813 0.032585
v -0.309656 0.018813 0.032585
v -0.345399 0.026606 0.026607
v -0.309656 0.026606 0.026607
v 0.305893 -0.009731 -0.036344
vn -0.0000 0.1305 -0.9914
vn 1.0000 -0.0000 -0.0000
vn -0.0000 -0.1306 -0.9914
vn -1.0000 -0.0000 -0.0000
vn -0.0000 0.3828 -0.9238
vn -0.0000 -0.6087 -0.7934
vn -0.0000 -0.3826 -0.9239
vn -0.0000 -0.7933 -0.6088
vn -0.0000 -1.0000 -0.0000
vn -0.0000 -0.5000 -0.8660
vn -0.0000 -0.9914 -0.1306
vn -0.0000 -0.9238 -0.3828
vn -0.0000 -0.9915 0.1304
vn -0.0000 -0.9239 0.3826
vn -0.0000 -0.7934 0.6087
vn -0.0000 0.9914 0.1306
vn -0.0000 0.9238 0.3828
vn -0.0000 0.7933 0.6088
vn -1.0000 -0.0001 -0.0000
vn -0.0000 -0.5000 0.8660
vn -0.0000 0.5000 0.8660
vn -0.0000 1.0000 -0.0000
vn -0.0000 0.5000 -0.8660
vn -0.0000 0.9239 -0.3826
vn -0.0000 0.7934 -0.6087
vn -0.0000 0.6088 -0.7933
vn -0.0000 0.9915 -0.1304
vn -0.0000 -0.1306 0.9914
vn -0.0000 0.1305 0.9914
vn -0.0000 -0.3828 0.9239
vn -0.0000 -0.6089 0.7933
vn -0.0000 0.3826 0.9239
vn -0.0000 0.6087 0.7934
s 0
usemtl Material.018
f 2//1 1//1 5//1
f 1//1 2//1 4//1
f 1//2 6//2 3//2
f 1//2 3//2 5//2
f 1//3 4//3 6//3
f 1//1 7//1 5//1
f 1//3 6//3 8//3
f 7//1 1//1 8//1
f 11//4 9//4 8//4
f 8//3 6//3 9//3
f 10//3 8//3 9//3
f 8//3 10//3 12//3
f 7//4 11//4 8//4
f 12//1 7//1 8//1
f 7//1 12//1 13//1
f 10//4 13//4 12//4
f 14//5 13//5 15//5
f 13//5 14//5 7//5
f 13//4 10//4 16//4
f 13//4 16//4 15//4
f 18//6 17//6 16//6
f 15//4 16//4 17//4
f 9//7 16//7 10//7
f 16//7 9//7 18//7
f 9//4 21//4 18//4
f 9//7 20//7 18//7
f 18//4 21//4 19//4
f 18//6 22//6 19//6
f 17//6 18//6 19//6
f 22//6 18//6 20//6
f 22//8 24//8 19//8
f 23//8 25//8 22//8
f 22//6 26//6 23//6
f 24//8 22//8 25//8
f 27//2 22//2 25//2
f 26//6 22//6 20//6
f 27//2 20//2 22//2
f 27//2 6//2 20//2
f 27//9 28//9 21//9
f 28//9 27//9 29//9
f 27//2 25//2 30//2
f 3//2 6//2 27//2
f 27//10 11//10 3//10
f 27//2 30//2 29//2
f 11//10 27//10 21//10
f 30//11 32//11 31//11
f 31//12 25//12 30//12
f 32//11 30//11 35//11
f 29//2 30//2 35//2
f 33//11 35//11 30//11
f 30//12 34//12 33//12
f 34//12 30//12 25//12
f 35//13 36//13 32//13
f 36//13 35//13 38//13
f 29//2 35//2 38//2
f 37//13 38//13 35//13
f 35//11 33//11 37//11
f 39//14 40//14 38//14
f 38//13 37//13 39//13
f 41//14 38//14 40//14
f 29//2 38//2 40//2
f 38//14 41//14 36//14
f 41//4 28//4 43//4
f 36//4 28//4 41//4
f 41//15 42//15 44//15
f 42//15 41//15 43//15
f 40//15 43//15 41//15
f 44//14 36//14 41//14
f 45//4 44//4 42//4
f 47//4 44//4 45//4
f 36//14 44//14 46//14
f 47//4 46//4 44//4
f 48//4 46//4 47//4
f 49//16 48//16 47//16
f 45//17 49//17 47//17
f 52//4 50//4 49//4
f 54//16 50//16 49//16
f 48//16 49//16 50//16
f 51//17 49//17 53//17
f 49//17 51//17 54//17
f 52//4 49//4 53//4
f 49//17 45//17 53//17
f 55//16 57//16 54//16
f 54//17 58//17 55//17
f 54//2 56//2 51//2
f 57//2 56//2 54//2
f 50//16 54//16 57//16
f 58//17 54//17 51//17
f 58//4 60//4 59//4
f 58//18 61//18 59//18
f 62//4 58//4 59//4
f 58//4 63//4 60//4
f 61//18 58//18 51//18
f 62//4 55//4 58//4
f 55//4 63//4 58//4
f 55//4 39//4 63//4
f 40//14 39//14 63//14
f 39//4 65//4 63//4
f 64//15 63//15 60//15
f 63//4 65//4 60//4
f 63//15 64//15 40//15
f 66//9 65//9 67//9
f 65//9 66//9 68//9
f 34//4 67//4 65//4
f 33//4 65//4 37//4
f 34//19 65//19 33//19
f 69//20 65//20 68//20
f 60//4 65//4 70//4
f 37//4 65//4 39//4
f 65//20 69//20 71//20
f 70//4 65//4 71//4
f 71//4 72//4 75//4
f 71//4 74//4 72//4
f 73//4 71//4 75//4
f 70//4 71//4 73//4
f 71//21 76//21 62//21
f 62//4 74//4 71//4
f 76//21 71//21 69//21
f 76//22 77//22 62//22
f 77//22 76//22 78//22
f 68//2 76//2 69//2
f 68//2 78//2 76//2
f 66//2 78//2 68//2
f 78//2 66//2 79//2
f 79//23 77//23 78//23
f 66//10 80//10 79//10
f 77//23 79//23 80//23
f 4//4 77//4 80//4
f 67//4 4//4 80//4
f 80//10 66//10 67//10
f 77//4 2//4 82//4
f 77//4 4//4 2//4
f 77//4 81//4 83//4
f 77//4 82//4 81//4
f 77//4 83//4 62//4
f 83//4 33//4 84//4
f 85//24 84//24 83//24
f 62//19 83//19 84//19
f 83//4 34//4 33//4
f 81//4 34//4 83//4
f 86//25 83//25 81//25
f 83//25 86//25 85//25
f 81//26 89//26 86//26
f 89//26 87//26 86//26
f 87//25 85//25 86//25
f 86//2 88//2 85//2
f 89//2 88//2 86//2
f 82//5 5//5 89//5
f 89//26 81//26 82//26
f 5//2 88//2 89//2
f 5//5 14//5 89//5
f 87//26 89//26 14//26
f 5//2 3//2 88//2
f 3//23 90//23 88//23
f 85//2 88//2 91//2
f 90//22 56//22 88//22
f 91//2 88//2 56//2
f 91//24 94//24 92//24
f 92//27 57//27 91//27
f 94//24 91//24 85//24
f 84//24 85//24 91//24
f 93//27 91//27 57//27
f 91//27 93//27 84//27
f 91//2 56//2 57//2
f 90//4 94//4 92//4
f 95//24 92//24 94//24
f 87//25 95//25 94//25
f 85//25 87//25 94//25
f 90//4 87//4 94//4
f 95//4 96//4 97//4
f 95//4 98//4 96//4
f 92//24 95//24 97//24
f 99//4 98//4 95//4
f 95//25 87//25 99//25
f 99//4 17//4 98//4
f 15//4 17//4 99//4
f 87//26 15//26 99//26
f 19//8 98//8 17//8
f 98//8 19//8 24//8
f 24//12 96//12 98//12
f 50//27 97//27 48//27
f 97//27 50//27 92//27
f 97//4 100//4 48//4
f 97//4 96//4 100//4
f 31//11 100//11 96//11
f 100//11 31//11 32//11
f 32//13 46//13 100//13
f 48//4 100//4 46//4
f 96//12 24//12 31//12
f 84//4 37//4 93//4
f 62//4 84//4 93//4
f 57//16 55//16 93//16
f 93//4 37//4 39//4
f 62//4 93//4 55//4
f 93//4 39//4 55//4
f 52//4 92//4 50//4
f 57//27 92//27 50//27
f 90//4 92//4 52//4
f 11//4 7//4 90//4
f 90//23 3//23 11//23
f 56//22 90//22 52//22
f 90//4 7//4 14//4
f 90//4 14//4 87//4
f 15//26 87//26 14//26
f 84//4 33//4 37//4
f 5//5 82//5 2//5
f 82//4 26//4 23//4
f 2//4 26//4 82//4
f 82//4 23//4 81//4
f 81//4 23//4 34//4
f 72//4 73//4 75//4
f 75//28 101//28 73//28
f 101//28 75//28 102//28
f 72//29 102//29 75//29
f 105//28 101//28 102//28
f 106//2 101//2 102//2
f 104//29 102//29 103//29
f 102//29 72//29 103//29
f 103//2 106//2 102//2
f 102//29 104//29 105//29
f 52//21 106//21 56//21
f 106//21 52//21 107//21
f 107//20 29//20 106//20
f 108//2 106//2 103//2
f 106//2 109//2 101//2
f 108//2 56//2 106//2
f 29//2 109//2 106//2
f 109//30 111//30 110//30
f 110//31 64//31 109//31
f 109//30 73//30 101//30
f 73//30 109//30 70//30
f 64//31 70//31 109//31
f 29//2 64//2 109//2
f 111//30 109//30 101//30
f 112//30 111//30 113//30
f 111//30 112//30 110//30
f 110//4 107//4 111//4
f 101//28 105//28 111//28
f 111//4 107//4 105//4
f 105//28 113//28 111//28
f 114//4 113//4 115//4
f 116//4 113//4 114//4
f 113//28 105//28 115//28
f 116//4 112//4 113//4
f 114//32 117//32 116//32
f 119//33 116//33 117//33
f 116//33 119//33 118//33
f 118//4 112//4 116//4
f 119//18 45//18 118//18
f 119//33 108//33 61//33
f 108//33 119//33 117//33
f 52//4 119//4 117//4
f 45//18 119//18 53//18
f 52//4 53//4 119//4
f 61//18 53//18 119//18
f 45//4 42//4 118//4
f 118//4 42//4 112//4
f 117//32 103//32 108//32
f 103//32 117//32 104//32
f 107//4 117//4 104//4
f 117//32 114//32 104//32
f 52//4 117//4 107//4
f 104//29 115//29 105//29
f 115//29 104//29 114//29
f 42//31 110//31 112//31
f 43//4 28//4 110//4
f 64//31 110//31 43//31
f 110//31 42//31 43//31
f 110//4 28//4 107//4
f 108//33 59//33 61//33
f 61//2 56//2 108//2
f 59//33 108//33 74//33
f 103//32 74//32 108//32
f 29//20 107//20 28//20
f 107//4 104//4 105//4
f 74//32 103//32 72//32
f 74//4 70//4 73//4
f 59//4 70//4 74//4
f 62//4 59//4 74//4
f 74//4 73//4 72//4
f 59//4 60//4 70//4
f 70//31 64//31 60//31
f 26//4 67//4 23//4
f 120//4 67//4 26//4
f 23//4 67//4 34//4
f 4//4 67//4 120//4
f 120//4 2//4 4//4
f 6//3 4//3 120//3
f 2//4 120//4 26//4
f 20//7 120//7 26//7
f 120//7 20//7 6//7
f 29//2 40//2 64//2
f 43//15 40//15 64//15
f 53//18 61//18 51//18
f 51//2 56//2 61//2
f 46//13 32//13 36//13
f 32//4 28//4 36//4
f 25//8 23//8 34//8
f 31//4 28//4 32//4
f 31//4 21//4 28//4
f 24//4 21//4 31//4
f 25//12 31//12 24//12
f 19//4 21//4 24//4
f 9//4 11//4 21//4
f 20//7 9//7 6//7
f 14//5 5//5 7//5
