# Blender 5.0.1
# www.blender.org
mtllib left_shoulder_z_link_visual_10.mtl
o i01.leftArm.rotate.full.011_visual.001
v -0.033645 0.000467 -0.079590
v 0.027870 0.000387 -0.081112
v -0.033618 0.023946 -0.077629
v -0.033646 0.000456 -0.081088
v 0.027871 0.000398 -0.079614
v -0.033656 -0.009306 -0.078970
v -0.033651 -0.004529 -0.079443
v -0.033620 0.024271 -0.082314
v 0.027894 0.023580 -0.087247
v 0.027898 0.023877 -0.077652
v 0.027897 0.024202 -0.082338
v -0.033622 0.023649 -0.087224
v -0.033647 0.001496 -0.085649
v -0.033626 0.022338 -0.092286
v -0.033646 0.003527 -0.090190
v 0.027872 0.006171 -0.094683
v 0.027870 0.003458 -0.090212
v -0.033645 0.006240 -0.094659
v 0.027870 0.001427 -0.085673
v -0.033630 0.020373 -0.097421
v 0.027874 0.009515 -0.099022
v -0.033643 0.009585 -0.099000
v -0.033635 0.017786 -0.102544
v -0.033640 0.013562 -0.103153
v 0.027877 0.013493 -0.103176
v 0.027882 0.017717 -0.102568
v 0.027887 0.020304 -0.097445
v 0.027891 0.022269 -0.092310
v -0.033618 0.023529 -0.076189
v 0.027898 0.023460 -0.076213
v 0.028012 -0.003762 -0.067616
v 0.028036 0.017231 -0.065638
v -0.033613 0.028093 -0.074669
v 0.027904 0.028024 -0.074692
v 0.027910 0.032609 -0.072834
v 0.027909 0.031855 -0.073126
v -0.033608 0.031924 -0.073102
v -0.033683 -0.036254 -0.070532
v -0.033607 0.032678 -0.072810
v -0.033687 -0.040431 -0.068173
v -0.033579 0.057841 -0.075509
v -0.033578 0.056982 -0.070336
v -0.033712 -0.064227 -0.062651
v -0.033607 0.033300 -0.074150
v 0.027910 0.033231 -0.074174
v -0.033605 0.036114 -0.077920
v 0.027912 0.036045 -0.077944
v -0.033581 0.058116 -0.080983
v -0.033602 0.039806 -0.081236
v -0.033584 0.057836 -0.086734
v 0.027935 0.058047 -0.081007
v 0.027915 0.039737 -0.081260
v 0.027933 0.057767 -0.086758
v 0.027937 0.057772 -0.075532
v 0.027938 0.056913 -0.070360
v -0.033578 0.055557 -0.065609
v 0.027938 0.055488 -0.065633
v 0.027937 0.053291 -0.061478
v -0.033579 0.053360 -0.061455
v -0.033580 0.052386 -0.060318
v -0.033708 -0.062188 -0.058143
v -0.033703 -0.059513 -0.054296
v -0.033702 -0.058375 -0.053294
v 0.027815 -0.058444 -0.053318
v 0.027809 -0.062258 -0.058165
v 0.027813 -0.059582 -0.054320
v 0.027829 -0.040500 -0.068197
v 0.027833 -0.036323 -0.070555
v 0.027837 -0.031851 -0.072705
v 0.027828 -0.041258 -0.069449
v 0.027991 -0.024308 -0.063004
v 0.027974 -0.042459 -0.052267
v 0.027801 -0.065774 -0.067698
v 0.027805 -0.064296 -0.062674
v 0.027798 -0.066739 -0.073093
v -0.033715 -0.065705 -0.067674
v -0.033719 -0.066669 -0.073071
v -0.033689 -0.041189 -0.069427
v -0.033693 -0.044457 -0.072810
v -0.033721 -0.067146 -0.078808
v -0.033699 -0.048538 -0.075634
v -0.033705 -0.053185 -0.078026
v 0.027817 -0.048607 -0.075658
v 0.027811 -0.053254 -0.078048
v 0.027823 -0.044526 -0.072834
v 0.027795 -0.067215 -0.078832
v -0.033712 -0.058315 -0.079990
v 0.027805 -0.058384 -0.080013
v 0.027798 -0.063909 -0.081530
v -0.033719 -0.063840 -0.081506
v 0.033590 -0.042465 -0.052269
v 0.027811 -0.064517 -0.045638
v 0.033580 -0.056391 -0.036456
v 0.027965 -0.056385 -0.036455
v 0.027812 -0.063267 -0.047329
v 0.027813 -0.061547 -0.049644
v -0.033704 -0.061582 -0.049472
v -0.033705 -0.063198 -0.047305
v -0.033570 0.059381 -0.053467
v -0.033705 -0.064448 -0.045614
v -0.033573 0.057050 -0.055892
v 0.027947 0.059311 -0.053491
v 0.027944 0.056980 -0.055916
v 0.027942 0.055860 -0.057089
v -0.033575 0.055929 -0.057065
v -0.033576 0.055388 -0.057569
v 0.027941 0.055319 -0.057590
v 0.027936 0.052317 -0.060342
v 0.028061 0.036592 -0.057281
v 0.028084 0.052405 -0.043354
v 0.033677 0.036586 -0.057282
v 0.033700 0.052398 -0.043356
v 0.033652 0.017225 -0.065639
v 0.033719 0.063105 -0.025232
v 0.033587 0.016296 -0.010727
v 0.033606 -0.024314 -0.063005
v 0.033628 -0.003768 -0.067617
v 0.033732 0.067746 -0.004659
v -0.006540 0.016341 -0.010713
v 0.033595 0.017485 0.008029
v 0.033551 -0.016203 -0.008666
v 0.033584 -0.066728 0.003869
v -0.006576 -0.016158 -0.008652
v 0.033560 -0.015014 0.010090
v 0.033578 -0.064751 -0.017124
v 0.027968 -0.066721 0.003871
v 0.027963 -0.064744 -0.017122
v 0.027807 -0.074897 -0.024734
v 0.027807 -0.076262 -0.019955
v 0.027808 -0.077295 -0.015280
v 0.027807 -0.075660 -0.022057
v -0.033709 -0.074828 -0.024711
v -0.033709 -0.075591 -0.022034
v -0.033709 -0.076193 -0.019931
v -0.033654 -0.027888 -0.018414
v -0.033649 -0.020924 -0.026320
v -0.033708 -0.077226 -0.015256
v -0.033715 -0.083395 -0.015346
v 0.027807 -0.078782 -0.015553
v -0.033710 -0.078713 -0.015530
v -0.033720 -0.088244 -0.014219
v 0.027796 -0.088313 -0.014241
v -0.033725 -0.093104 -0.012383
v -0.033730 -0.098007 -0.009895
v 0.027791 -0.093173 -0.012406
v 0.027787 -0.098076 -0.009918
v -0.033734 -0.102843 -0.006789
v 0.027783 -0.102912 -0.006813
v 0.027784 -0.103093 -0.002531
v -0.033732 -0.103024 -0.002508
v -0.033655 -0.032081 -0.008732
v -0.033726 -0.098450 0.000962
v 0.027791 -0.098519 0.000939
v -0.033720 -0.093770 0.003861
v 0.027797 -0.093839 0.003838
v 0.027803 -0.089145 0.006084
v -0.033708 -0.084343 0.007617
v -0.033714 -0.089075 0.006108
v 0.027809 -0.084412 0.007594
v 0.027816 -0.078277 0.008024
v 0.027814 -0.079766 0.008176
v -0.033702 -0.079697 0.008200
v -0.033701 -0.078208 0.008048
v 0.027818 -0.077609 0.012761
v -0.033652 -0.033055 0.001763
v -0.033698 -0.077527 0.012981
v -0.033695 -0.076580 0.017671
v 0.027821 -0.076649 0.017649
v -0.033646 -0.030761 0.012080
v -0.033697 -0.078028 0.018018
v -0.033704 -0.086189 0.023088
v -0.033700 -0.082222 0.020093
v -0.033636 -0.025380 0.021126
v -0.022105 -0.030774 0.012075
v -0.006567 -0.014969 0.010104
v -0.022095 -0.025393 0.021121
v -0.022111 -0.033068 0.001759
v -0.022114 -0.032093 -0.008737
v -0.022113 -0.027901 -0.018418
v -0.022108 -0.020937 -0.026324
v -0.033641 -0.011850 -0.031702
v -0.022100 -0.011863 -0.031707
v -0.033630 -0.001564 -0.034022
v -0.022089 -0.001577 -0.034027
v -0.033618 0.008962 -0.033022
v -0.022077 0.008949 -0.033027
v -0.022064 0.018630 -0.028832
v -0.033606 0.018643 -0.028830
v -0.022053 0.026536 -0.021870
v -0.022043 0.031919 -0.012795
v -0.033594 0.026549 -0.021866
v -0.033540 0.075891 -0.024966
v -0.033515 0.097183 -0.022273
v -0.033585 0.031932 -0.012792
v -0.033522 0.092005 -0.024122
v -0.033508 0.102373 -0.019803
v -0.033544 0.074208 -0.029666
v -0.033508 0.102644 -0.018209
v -0.033528 0.086924 -0.025327
v 0.027989 0.086855 -0.025350
v 0.027995 0.091936 -0.024146
v -0.033534 0.082000 -0.025834
v -0.033539 0.077304 -0.025423
v 0.027978 0.077235 -0.025447
v 0.027983 0.081931 -0.025858
v 0.027976 0.075822 -0.024990
v 0.028008 0.098925 -0.011581
v 0.028116 0.067752 -0.004658
v 0.027996 0.085771 -0.003199
v 0.027973 0.074138 -0.029690
v 0.028004 0.094677 -0.008118
v 0.028000 0.090276 -0.005293
v 0.028103 0.063111 -0.025230
v 0.028001 0.097114 -0.022297
v 0.028009 0.102575 -0.018232
v 0.028011 0.103024 -0.015602
v 0.028008 0.102304 -0.019827
v 0.027989 0.079740 -0.001995
v 0.027991 0.081208 -0.002032
v 0.027990 0.079700 0.000043
v -0.033527 0.079809 -0.001972
v -0.033521 0.085840 -0.003175
v -0.033525 0.081277 -0.002009
v -0.033578 0.034224 -0.002503
v -0.033526 0.079769 0.000066
v -0.033525 0.079757 0.003007
v -0.033576 0.033251 0.008020
v 0.027991 0.079683 0.002899
v -0.033524 0.079410 0.007779
v 0.027995 0.080821 0.007916
v 0.027992 0.079341 0.007756
v -0.033522 0.080890 0.007940
v -0.033516 0.085313 0.009469
v 0.028000 0.085244 0.009446
v 0.028006 0.089557 0.011915
v 0.028122 0.065747 0.016336
v 0.027994 0.071550 0.034716
v 0.028120 0.057416 0.035669
v 0.027995 0.073537 0.030376
v 0.033735 0.057410 0.035666
v 0.033737 0.065741 0.016335
v 0.028002 0.079533 0.031750
v -0.033520 0.074970 0.030964
v 0.027997 0.074901 0.030941
v -0.033514 0.079602 0.031773
v 0.028013 0.089682 0.030823
v 0.028008 0.084502 0.031632
v -0.033509 0.084571 0.031656
v -0.033503 0.089751 0.030847
v -0.033498 0.095034 0.029437
v 0.028018 0.094965 0.029413
v -0.033493 0.100390 0.027401
v 0.028024 0.100321 0.027377
v 0.028023 0.101416 0.023236
v -0.033493 0.101485 0.023260
v -0.033499 0.097731 0.018917
v -0.033581 0.022095 0.025608
v -0.033590 0.013019 0.030962
v -0.033600 0.002705 0.033284
v 0.028018 0.097662 0.018894
v 0.028012 0.093690 0.015102
v -0.033505 0.093759 0.015125
v -0.033511 0.089626 0.011939
v -0.033576 0.029057 0.017673
v -0.022035 0.029044 0.017670
v -0.022034 0.033238 0.008017
v -0.022037 0.034211 -0.002508
v -0.006531 0.017530 0.008043
v -0.022059 0.002692 0.033280
v -0.022040 0.022082 0.025604
v -0.022048 0.013006 0.030958
v -0.022071 -0.007805 0.032277
v -0.022084 -0.017485 0.028112
v -0.033612 -0.007792 0.032282
v -0.033711 -0.096494 0.035815
v -0.033625 -0.017472 0.028117
v -0.033709 -0.093348 0.031034
v 0.027810 -0.089955 0.026748
v 0.027806 -0.096563 0.035791
v 0.027807 -0.093417 0.031012
v -0.033707 -0.089886 0.026772
v 0.027809 -0.095011 0.039764
v -0.033700 -0.089343 0.041130
v 0.027839 -0.068034 0.039355
v 0.027816 -0.089412 0.041106
v -0.033707 -0.094941 0.039787
v -0.033522 0.073606 0.030400
v -0.033677 -0.067965 0.039377
v 0.027844 -0.065419 0.043571
v -0.033678 -0.069247 0.040110
v -0.033522 0.071619 0.034739
v -0.033673 -0.065350 0.043594
v -0.033671 -0.064545 0.044703
v -0.033523 0.071088 0.035734
v -0.033523 0.069696 0.038311
v 0.027993 0.069627 0.038287
v 0.027994 0.071019 0.035710
v 0.027993 0.069200 0.039134
v 0.028005 0.076857 0.047075
v 0.028000 0.073918 0.043077
v 0.027984 0.054723 0.057413
v 0.028009 0.079354 0.051667
v 0.027995 0.070489 0.039845
v -0.033523 0.069269 0.039158
v -0.033668 -0.062557 0.047518
v -0.033669 -0.063746 0.048385
v -0.033522 0.070558 0.039867
v -0.033516 0.073987 0.043100
v -0.033671 -0.066739 0.052023
v -0.033512 0.076927 0.047098
v -0.033507 0.079423 0.051690
v -0.033672 -0.069150 0.056362
v -0.033673 -0.071046 0.061232
v 0.027844 -0.069219 0.056338
v 0.027844 -0.071115 0.061209
v 0.027873 -0.045956 0.063798
v 0.027848 -0.062626 0.047495
v -0.033672 -0.072464 0.066524
v 0.027845 -0.072533 0.066502
v 0.027846 -0.073446 0.072158
v 0.027866 -0.054659 0.070571
v 0.027873 -0.046814 0.064983
v 0.027870 -0.050377 0.068094
v -0.033650 -0.054590 0.070595
v -0.033647 -0.050308 0.068116
v -0.033644 -0.046745 0.065007
v -0.033643 -0.045887 0.063822
v 0.027875 -0.044744 0.064626
v -0.033642 -0.044675 0.064650
v -0.033533 0.054792 0.057437
v -0.033533 0.054015 0.058107
v 0.027983 0.053946 0.058085
v 0.027982 0.051751 0.060034
v -0.033535 0.051820 0.060057
v -0.033535 0.051204 0.060605
v 0.027981 0.051135 0.060581
v 0.027978 0.047524 0.063383
v -0.033538 0.047593 0.063407
v 0.028110 0.043489 0.051480
v 0.033726 0.043483 0.051478
v 0.028094 0.025339 0.062217
v 0.033709 0.025333 0.062215
v 0.027978 0.047200 0.063630
v 0.027959 0.026512 0.074471
v 0.027983 0.049899 0.069170
v 0.027979 0.048069 0.064848
v -0.033539 0.047270 0.063654
v -0.033638 -0.041779 0.066615
v -0.033632 -0.037639 0.069038
v -0.033537 0.048138 0.064871
v -0.033632 -0.038347 0.070355
v -0.033534 0.049968 0.069194
v -0.033530 0.051009 0.074020
v -0.033632 -0.039616 0.074876
v -0.033558 0.026581 0.074494
v -0.033601 -0.012572 0.077741
v 0.027954 0.022241 0.075788
v 0.027960 0.026995 0.075854
v -0.033562 0.022310 0.075812
v -0.033604 -0.015775 0.077181
v -0.033557 0.027065 0.075878
v -0.033552 0.029578 0.079846
v -0.033528 0.051426 0.079253
v -0.033547 0.032975 0.083476
v 0.027969 0.032906 0.083453
v 0.027964 0.029509 0.079823
v 0.027988 0.051356 0.079229
v 0.027986 0.050940 0.073997
v 0.027990 0.051196 0.084725
v -0.033526 0.051265 0.084748
v -0.033541 0.037030 0.086781
v -0.033535 0.041631 0.089770
v -0.033525 0.050522 0.090423
v -0.033528 0.046718 0.092416
v 0.027992 0.050453 0.090399
v 0.027981 0.041562 0.089746
v 0.027988 0.046649 0.092393
v 0.027975 0.036961 0.086758
v -0.033604 -0.016080 0.078614
v 0.027912 -0.016149 0.078590
v -0.033631 -0.040039 0.079794
v 0.027912 -0.015844 0.077157
v 0.027884 -0.037708 0.069015
v 0.028048 -0.016200 0.064851
v 0.027884 -0.039685 0.074852
v 0.027886 -0.040108 0.079770
v 0.027916 -0.012641 0.077717
v 0.027918 -0.011126 0.077990
v -0.033599 -0.011057 0.078012
v -0.033565 0.019556 0.076524
v -0.033596 -0.008522 0.078303
v -0.033563 0.021840 0.075982
v 0.027954 0.021771 0.075959
v 0.027952 0.019487 0.076500
v 0.028072 0.004764 0.066831
v 0.027949 0.017122 0.077103
v 0.033664 -0.016207 0.064850
v 0.033688 0.004758 0.066828
v 0.027924 -0.006168 0.078579
v 0.027921 -0.008591 0.078281
v -0.033593 -0.006099 0.078603
v -0.033567 0.017191 0.077126
v -0.033592 -0.006232 0.080082
v 0.027924 -0.006301 0.080058
v 0.027952 0.017342 0.083253
v 0.027950 0.017440 0.078552
v -0.033590 -0.005569 0.084733
v 0.027926 -0.005638 0.084709
v -0.033587 -0.003915 0.089407
v 0.027930 -0.003985 0.089383
v 0.027935 -0.001653 0.094042
v 0.027952 0.016320 0.088096
v 0.027952 0.014568 0.093014
v 0.027952 0.012194 0.097943
v 0.027940 0.001352 0.098631
v -0.033564 0.016389 0.088119
v -0.033564 0.014637 0.093038
v -0.033582 -0.001584 0.094066
v -0.033565 0.012264 0.097965
v -0.033566 0.009269 0.102906
v -0.033577 0.001421 0.098654
v 0.027950 0.009199 0.102882
v -0.033571 0.005016 0.103176
v 0.027946 0.004947 0.103152
v -0.033565 0.017411 0.083275
v -0.033566 0.017509 0.078576
v 0.033639 -0.035568 0.056492
v 0.033616 -0.051380 0.042565
v 0.028023 -0.035561 0.056494
v 0.028000 -0.051374 0.042567
v 0.027879 -0.041848 0.066591
v 0.027845 -0.064614 0.044680
v 0.027981 -0.062109 0.024445
v 0.033597 -0.062115 0.024443
v 0.027912 -0.018141 0.082845
v 0.027888 -0.039860 0.085013
v -0.033628 -0.039791 0.085037
v -0.033625 -0.038938 0.090468
v 0.027891 -0.039007 0.090445
v -0.033605 -0.018072 0.082869
v -0.033607 -0.020983 0.086898
v 0.027910 -0.021052 0.086875
v -0.033609 -0.024560 0.090687
v -0.033612 -0.028746 0.094233
v 0.027907 -0.024629 0.090665
v 0.027904 -0.028815 0.094209
v -0.033617 -0.033487 0.097503
v 0.027899 -0.034598 0.097094
v 0.027895 -0.037553 0.095980
v 0.027900 -0.033556 0.097479
v -0.033618 -0.034529 0.097116
v -0.033622 -0.037484 0.096004
v 0.027884 -0.038416 0.070333
v -0.033503 0.081498 0.056761
v -0.033531 0.055793 0.058504
v -0.033526 0.059721 0.061140
v 0.027991 0.059652 0.061116
v 0.027985 0.055724 0.058481
v 0.028014 0.081429 0.056737
v -0.033499 0.083119 0.062257
v 0.028018 0.083050 0.062234
v 0.027997 0.064212 0.063032
v 0.028018 0.082867 0.062471
v 0.028003 0.069248 0.064409
v -0.033514 0.069317 0.064433
v -0.033520 0.064282 0.063056
v -0.033499 0.082936 0.062494
v -0.033507 0.074743 0.065276
v -0.033500 0.080580 0.065472
v 0.028009 0.074674 0.065252
v 0.028016 0.080511 0.065449
v -0.033671 -0.073377 0.072181
v -0.033655 -0.059440 0.072598
v 0.027861 -0.059509 0.072575
v -0.033670 -0.072773 0.072793
v 0.027847 -0.072842 0.072770
v -0.033660 -0.064687 0.074119
v -0.033666 -0.070331 0.075183
v 0.027850 -0.070400 0.075159
v 0.027856 -0.064756 0.074095
v 0.027847 -0.063815 0.048361
v 0.027845 -0.066808 0.052001
v -0.033683 -0.073740 0.041496
v -0.033694 -0.083896 0.041859
v 0.027838 -0.069316 0.040086
v 0.027833 -0.073809 0.041474
v 0.027828 -0.078753 0.041986
v 0.027822 -0.083965 0.041835
v -0.033688 -0.078684 0.042009
v 0.027812 -0.086258 0.023065
v 0.027816 -0.082292 0.020071
v 0.027820 -0.078097 0.017994
v -0.033513 0.094746 -0.008094
v -0.033516 0.090345 -0.005271
v -0.033509 0.098994 -0.011559
v -0.033506 0.103093 -0.015579
v 0.027969 0.072221 -0.034063
v -0.033548 0.072290 -0.034040
v 0.027970 0.073593 -0.034717
v -0.033546 0.073663 -0.034693
v -0.033543 0.077325 -0.037583
v 0.027973 0.077256 -0.037607
v -0.033541 0.080592 -0.041353
v -0.033727 -0.087349 -0.034888
v 0.027977 0.083356 -0.045741
v -0.033540 0.083425 -0.045717
v -0.033722 -0.083930 -0.030920
v 0.027976 0.080523 -0.041377
v 0.027795 -0.084000 -0.030943
v -0.033716 -0.080270 -0.027589
v 0.027800 -0.080339 -0.027613
v 0.027789 -0.087418 -0.034911
v 0.027784 -0.090506 -0.039465
v -0.033732 -0.090437 -0.039443
v -0.033539 0.085941 -0.050628
v -0.033737 -0.093188 -0.044471
v -0.033707 -0.065691 -0.046496
v 0.027779 -0.093257 -0.044494
v -0.033737 -0.092434 -0.045960
v 0.027780 -0.092503 -0.045983
v 0.027809 -0.065760 -0.046520
v 0.027804 -0.070111 -0.048251
v 0.027780 -0.091350 -0.048319
v 0.027786 -0.085666 -0.049188
v -0.033731 -0.085596 -0.049165
v -0.033737 -0.091281 -0.048295
v 0.027792 -0.080199 -0.049479
v 0.027798 -0.074976 -0.049159
v -0.033719 -0.074907 -0.049136
v -0.033725 -0.080129 -0.049455
v -0.033713 -0.070042 -0.048228
v -0.033538 0.088035 -0.055963
v 0.027978 0.085872 -0.050650
v 0.027978 0.087966 -0.055986
v 0.027975 0.086124 -0.058724
v -0.033541 0.086193 -0.058702
v 0.027948 0.060405 -0.054521
v 0.027952 0.064503 -0.056788
v -0.033569 0.060474 -0.054498
v -0.033565 0.064572 -0.056766
v -0.033560 0.069311 -0.058282
v 0.027956 0.069242 -0.058305
v 0.027962 0.074383 -0.059280
v -0.033542 0.085661 -0.059516
v -0.033555 0.074452 -0.059258
v -0.033549 0.079911 -0.059661
v 0.027974 0.085591 -0.059540
v 0.027968 0.079842 -0.059683
v 0.027805 -0.076285 -0.025212
v -0.033711 -0.076215 -0.025188
v 0.027801 -0.083464 -0.015369
v 0.027860 -0.009375 -0.078993
v 0.027836 -0.032447 -0.074080
v -0.033679 -0.031781 -0.072681
v -0.033680 -0.032378 -0.074058
v -0.033683 -0.033264 -0.078667
v 0.027833 -0.033333 -0.078690
v -0.033685 -0.033266 -0.083614
v -0.033657 -0.009485 -0.080457
v 0.027859 -0.009554 -0.080481
v -0.033660 -0.011120 -0.084848
v 0.027856 -0.011189 -0.084872
v 0.027852 -0.013749 -0.089121
v -0.033665 -0.013680 -0.089097
v -0.033670 -0.016965 -0.093188
v -0.033686 -0.032578 -0.088803
v -0.033687 -0.031276 -0.094146
v 0.027832 -0.033336 -0.083638
v 0.027830 -0.032647 -0.088827
v 0.027830 -0.031345 -0.094169
v 0.027846 -0.017034 -0.093210
v 0.027840 -0.020899 -0.097094
v 0.027830 -0.029455 -0.099577
v 0.027834 -0.025342 -0.100714
v -0.033676 -0.020830 -0.097070
v -0.033682 -0.025273 -0.100691
v -0.033686 -0.029386 -0.099553
v 0.027865 -0.004598 -0.079465
v 0.027918 0.044045 -0.084219
v 0.027923 0.048857 -0.086814
v -0.033589 0.054244 -0.088994
v 0.027928 0.054174 -0.089018
v -0.033594 0.048926 -0.086791
v -0.033598 0.044114 -0.084195
vn -0.0011 -1.0000 0.0068
vn -1.0000 0.0011 0.0004
vn -1.0000 0.0011 0.0002
vn -1.0000 0.0011 0.0005
vn -0.0004 -0.0294 -0.9996
vn -1.0000 0.0012 0.0007
vn 0.0011 0.9921 -0.1258
vn 0.0011 0.9976 0.0692
vn -1.0000 0.0011 0.0003
vn 0.0010 0.9681 -0.2507
vn -0.0011 -0.8549 -0.5189
vn -0.0012 -0.8548 -0.5190
vn -0.0012 -0.9128 -0.4084
vn -0.0012 -0.9129 -0.4083
vn 1.0000 -0.0011 -0.0003
vn 1.0000 -0.0011 -0.0004
vn -0.0012 -0.9750 -0.2222
vn -0.0011 -0.7921 -0.6104
vn -0.0011 -0.7922 -0.6103
vn -0.0011 -0.7222 -0.6917
vn -0.0011 -0.7223 -0.6916
vn -0.0002 0.1426 -0.9898
vn -0.0002 0.1428 -0.9897
vn 0.0008 0.8927 -0.4507
vn 0.0009 0.9339 -0.3575
vn 0.0010 0.9681 -0.2506
vn 0.0012 0.9604 0.2787
vn 0.0012 0.9604 0.2785
vn 0.9999 0.0005 -0.0116
vn 0.9999 0.0001 -0.0130
vn 0.9999 0.0029 -0.0113
vn -0.0000 0.3160 -0.9488
vn -0.0000 0.3162 -0.9487
vn 1.0000 -0.0016 0.0008
vn 0.9998 -0.0075 0.0169
vn -0.0000 0.3611 -0.9325
vn 0.0001 0.3783 -0.9257
vn 0.0001 0.3785 -0.9256
vn -0.0012 -0.9071 -0.4210
vn -0.0011 -0.8013 -0.5983
vn 0.0011 0.9988 -0.0486
vn 0.0011 0.9987 0.0502
vn 0.0011 0.9987 0.0501
vn 0.0012 0.9865 0.1640
vn 0.0012 0.9574 0.2886
vn 0.0012 0.9865 0.1639
vn 0.0012 0.8841 0.4673
vn 0.0012 0.8840 0.4674
vn 0.0011 0.7593 0.6507
vn -0.0005 -0.6609 0.7505
vn -0.0005 -0.6609 0.7504
vn -0.0007 -0.8208 0.5712
vn -0.0007 -0.8209 0.5710
vn 1.0000 -0.0015 -0.0012
vn -0.0009 -0.4915 -0.8708
vn 0.9999 -0.0065 -0.0107
vn 1.0000 -0.0011 -0.0005
vn 0.0008 0.8555 -0.5179
vn 0.9999 -0.0068 -0.0099
vn 0.9999 -0.0093 -0.0102
vn -0.0009 -0.9112 0.4120
vn -0.0010 -0.9594 0.2822
vn -0.0010 -0.9593 0.2823
vn -0.0010 -0.9844 0.1759
vn -0.0011 -0.9966 0.0829
vn 0.0002 0.4576 -0.8892
vn 0.0003 0.5690 -0.8223
vn 0.0002 0.4573 -0.8893
vn 0.0005 0.7193 -0.6947
vn 0.0005 0.7193 -0.6946
vn 0.0001 0.3577 -0.9338
vn 0.0001 0.3578 -0.9338
vn -0.0001 0.2647 -0.9643
vn -0.0001 0.2645 -0.9644
vn -0.0010 -0.6322 -0.7748
vn -0.0011 -0.9966 0.0828
vn 0.0008 0.8556 -0.5176
vn -0.0011 -0.7504 -0.6609
vn -0.0009 -0.5091 -0.8607
vn 0.9999 -0.0093 -0.0063
vn 0.9999 -0.0098 -0.0080
vn -0.0010 -0.7504 -0.6610
vn 0.9999 -0.0093 -0.0064
vn 0.9999 -0.0095 -0.0075
vn -0.0011 -0.8027 -0.5963
vn -0.0014 -0.7640 -0.6452
vn -0.0012 -0.8017 -0.5978
vn -0.0011 -0.8041 -0.5945
vn -0.0011 -0.8041 -0.5944
vn 0.0005 0.7210 -0.6930
vn 0.0005 0.7231 -0.6908
vn -1.0000 0.0011 0.0007
vn 0.0005 0.6814 -0.7319
vn 0.0005 0.6754 -0.7374
vn 0.0005 0.6800 -0.7332
vn 0.9999 0.0063 -0.0085
vn 0.0005 0.6757 -0.7372
vn 0.9999 0.0063 -0.0087
vn 1.0000 0.0063 -0.0074
vn 1.0000 0.0063 -0.0075
vn 0.9999 0.0065 -0.0091
vn 0.9999 0.0033 -0.0106
vn 0.0001 0.3963 -0.9181
vn 0.9999 0.0057 -0.0112
vn 0.0005 0.6609 -0.7504
vn 1.0000 -0.0025 0.0011
vn 1.0000 -0.0008 0.0012
vn -0.0002 0.0938 -0.9956
vn -0.0006 -0.2190 -0.9757
vn 1.0000 -0.0010 0.0015
vn 1.0000 -0.0028 -0.0000
vn 1.0000 -0.0028 -0.0003
vn -0.0011 -0.9980 0.0633
vn 0.0004 0.0633 0.9980
vn 1.0000 0.0006 -0.0002
vn 1.0000 0.0005 -0.0005
vn 0.0011 0.9980 -0.0633
vn 1.0000 0.0004 0.0006
vn -0.0012 -0.9179 -0.3969
vn 1.0000 -0.0012 -0.0004
vn -0.0012 -0.9956 -0.0938
vn 0.9999 -0.0116 -0.0049
vn 0.9999 -0.0126 -0.0036
vn 0.9999 -0.0125 -0.0015
vn -0.0011 -0.9179 -0.3969
vn 0.9999 -0.0126 -0.0037
vn 0.9999 -0.0127 -0.0030
vn -0.0012 -0.9614 -0.2753
vn -0.0012 -0.9617 -0.2741
vn -0.0012 -0.9617 -0.2742
vn -0.0012 -0.9614 -0.2751
vn -0.0012 -0.9765 -0.2157
vn -1.0000 0.0012 -0.0002
vn -0.0002 0.1810 -0.9835
vn -0.0006 -0.2263 -0.9741
vn -0.0007 -0.3534 -0.9355
vn -0.0008 -0.4525 -0.8918
vn -0.0007 -0.3532 -0.9355
vn -0.0009 -0.5404 -0.8414
vn 1.0000 -0.0012 -0.0005
vn -0.0009 -0.5403 -0.8415
vn -0.0011 -0.9991 -0.0422
vn -0.0004 -0.6044 0.7967
vn -0.0003 -0.5265 0.8502
vn -0.0003 -0.5267 0.8501
vn -0.0001 -0.4317 0.9020
vn -0.0000 -0.3037 0.9528
vn -0.0000 -0.3039 0.9527
vn 0.0002 -0.1242 0.9923
vn 0.0005 0.1013 0.9949
vn 0.0002 -0.1245 0.9922
vn -1.0000 0.0011 0.0010
vn -0.0008 -0.9906 0.1366
vn -0.0011 -0.9902 0.1396
vn -0.0010 -0.9802 0.1981
vn -0.0006 -0.9812 0.1928
vn -1.0000 0.0012 0.0008
vn 0.0008 0.8595 -0.5112
vn 0.0010 0.9762 -0.2171
vn -0.6847 0.6267 -0.3720
vn -0.7143 0.6833 -0.1515
vn -0.7484 0.6619 -0.0416
vn 0.0012 0.9957 0.0924
vn -0.7146 0.6965 0.0649
vn -0.6862 0.6675 0.2890
vn 0.0012 0.9176 0.3974
vn 0.0011 0.7504 0.6610
vn -0.7009 0.5355 0.4712
vn 0.0009 0.5102 0.8601
vn -0.7504 0.3377 0.5682
vn 0.0006 0.2200 0.9755
vn 0.0007 0.2200 0.9755
vn -0.8112 0.1295 0.5703
vn 0.0003 -0.0946 0.9955
vn -0.8109 -0.0544 0.5826
vn -0.8436 0.0349 0.5358
vn -0.0001 -0.3975 0.9176
vn -0.7489 -0.2626 0.6084
vn -0.6978 -0.4729 0.5381
vn -0.0006 -0.6609 0.7505
vn -0.0002 -0.3974 0.9177
vn -0.0008 -0.8601 0.5102
vn -0.6820 -0.6287 0.3737
vn -0.0005 -0.6610 0.7504
vn -1.0000 0.0011 -0.0000
vn -0.0008 -0.8601 0.5101
vn -0.0001 0.2305 -0.9731
vn -0.0003 0.1025 -0.9947
vn -0.0001 0.2307 -0.9730
vn -0.0003 0.1027 -0.9947
vn -0.0005 -0.0872 -0.9962
vn 1.0000 -0.0012 -0.0003
vn 0.9999 0.0100 -0.0029
vn 0.9999 0.0111 -0.0025
vn 0.9999 0.0101 -0.0044
vn 0.0009 0.9414 -0.3372
vn -0.0007 -0.3076 -0.9515
vn 0.0004 0.0253 0.9997
vn 0.9999 0.0106 -0.0003
vn 0.0011 0.9998 0.0198
vn -1.0000 0.0012 0.0006
vn 0.0011 1.0000 0.0039
vn 0.0012 1.0000 0.0059
vn 0.0013 0.9974 0.0727
vn -0.0002 0.1076 -0.9942
vn -0.0003 0.1082 -0.9941
vn 0.0011 0.9975 0.0703
vn -0.0000 0.3267 -0.9451
vn -0.0000 0.3268 -0.9451
vn 1.0000 -0.0016 0.0011
vn 1.0000 0.0033 -0.0082
vn 0.0002 0.4968 -0.8679
vn 0.9999 0.0021 -0.0117
vn 1.0000 0.0099 0.0007
vn 0.0011 0.9955 0.0951
vn 1.0000 0.0088 0.0042
vn 0.9999 0.0092 0.0040
vn 1.0000 0.0054 0.0029
vn 0.0012 0.9184 0.3957
vn 0.9999 -0.0037 0.0111
vn 0.0011 0.9183 0.3958
vn 0.0002 -0.1720 0.9851
vn 1.0000 -0.0012 -0.0002
vn 0.0004 0.0236 0.9997
vn 1.0000 -0.0012 -0.0010
vn 0.0004 0.0234 0.9997
vn 0.0006 0.1544 0.9880
vn 0.0007 0.2578 0.9662
vn 0.0008 0.3553 0.9347
vn 0.0012 0.9668 0.2556
vn 0.0006 0.7566 -0.6539
vn 0.0006 0.7565 -0.6539
vn 0.0005 0.6904 -0.7234
vn 1.0000 -0.0009 -0.0006
vn 1.0000 -0.0010 -0.0005
vn 0.0004 0.6107 -0.7918
vn 0.0004 0.6106 -0.7919
vn -0.0011 -0.7517 -0.6595
vn -0.0012 -0.9172 -0.3985
vn -0.0012 -0.9958 -0.0920
vn -0.6805 -0.6721 -0.2921
vn -0.7102 -0.7010 -0.0646
vn -0.0004 -0.0633 -0.9980
vn -0.8424 -0.0332 -0.5378
vn -0.7451 -0.6656 0.0426
vn -0.8093 -0.1282 -0.5733
vn -0.6954 -0.5400 -0.4742
vn -0.7473 -0.3371 -0.5726
vn -0.0009 -0.5081 -0.8613
vn -0.0006 -0.2196 -0.9756
vn -0.0002 0.0951 -0.9955
vn -0.8095 0.0568 -0.5844
vn 0.0001 0.3952 -0.9186
vn -0.7488 0.2628 -0.6085
vn -0.0003 0.0951 -0.9955
vn 0.0004 0.6624 -0.7492
vn -0.0011 -0.7763 -0.6303
vn -0.0011 -0.7763 -0.6304
vn -0.0011 -0.8353 -0.5498
vn -0.0012 -0.8353 -0.5498
vn -0.0011 -0.7058 -0.7084
vn -0.0009 -0.9314 0.3640
vn 0.0001 -0.2332 0.9724
vn 0.0001 -0.2331 0.9725
vn 1.0000 -0.0011 -0.0006
vn -0.0009 -0.9314 0.3641
vn 0.0009 0.4959 0.8684
vn -0.0008 -0.8498 0.5271
vn -0.0008 -0.8499 0.5269
vn -0.0007 -0.8092 0.5876
vn -1.0000 0.0011 0.0001
vn 0.0012 0.8823 0.4707
vn 0.0012 0.8799 0.4752
vn 0.0012 0.8822 0.4708
vn 0.9999 0.0092 0.0052
vn 0.0012 0.8929 0.4502
vn 0.9999 0.0093 0.0050
vn 0.9999 0.0086 0.0073
vn 0.0002 0.4827 -0.8758
vn 0.0002 0.4822 -0.8761
vn 0.0005 0.6861 -0.7275
vn 0.0007 0.8056 -0.5924
vn 0.0005 0.6860 -0.7276
vn 0.0007 0.8057 -0.5923
vn 0.0008 0.8785 -0.4777
vn -0.0012 -0.8741 -0.4857
vn -0.0012 -0.9318 -0.3629
vn -0.0012 -0.9660 -0.2587
vn -0.0012 -0.9872 -0.1595
vn 0.0010 0.6577 0.7533
vn 0.0009 0.5007 0.8656
vn 0.0009 0.5010 0.8655
vn 0.0010 0.6574 0.7535
vn 0.0011 0.8101 0.5863
vn -0.0003 -0.5641 0.8257
vn -1.0000 0.0011 0.0006
vn 0.0010 0.6638 0.7479
vn 0.0010 0.6531 0.7573
vn 0.0010 0.6640 0.7477
vn -1.0000 0.0011 -0.0001
vn 0.0010 0.6652 0.7467
vn 0.0010 0.6646 0.7472
vn 0.9999 0.0068 0.0085
vn 0.9999 0.0061 0.0090
vn 0.0010 0.6130 0.7901
vn 0.9999 0.0067 0.0085
vn 0.0009 0.5091 0.8607
vn 0.9999 0.0074 0.0072
vn 0.9999 0.0047 0.0095
vn 0.9999 0.0062 0.0090
vn 0.0012 0.7504 0.6610
vn 0.9999 0.0046 0.0106
vn 0.0007 0.8140 -0.5808
vn 0.0010 0.6067 0.7949
vn 0.0010 0.6067 0.7950
vn 0.0007 0.8138 -0.5811
vn 0.0009 0.9209 -0.3897
vn 0.0009 0.9209 -0.3898
vn 0.0010 0.9775 -0.2109
vn 0.0007 0.2949 0.9555
vn -0.0009 -0.9440 0.3299
vn -0.0007 -0.8448 0.5351
vn -0.0006 -0.7301 0.6833
vn -0.0006 -0.7302 0.6832
vn 0.0011 0.9968 -0.0794
vn 0.0011 0.9996 0.0292
vn 0.0012 0.9915 0.1298
vn 0.0009 0.4641 0.8858
vn 0.0009 0.4643 0.8857
vn -0.0002 -0.4615 0.8872
vn -0.0002 -0.4613 0.8872
vn -0.0003 -0.5448 0.8386
vn -0.0004 -0.6317 0.7752
vn -0.0004 -0.6318 0.7751
vn 0.0002 -0.1722 0.9851
vn 0.0012 0.9781 0.2081
vn 0.9999 -0.0054 0.0112
vn 0.9999 -0.0031 0.0111
vn 0.0002 -0.1771 0.9842
vn 0.0002 -0.1759 0.9844
vn -1.0000 0.0011 0.0009
vn 0.0002 -0.1144 0.9934
vn -1.0000 0.0010 -0.0014
vn 0.0006 0.2307 0.9730
vn 0.0007 0.3398 0.9405
vn 0.0006 0.2304 0.9731
vn 0.0007 0.3415 0.9399
vn 1.0000 0.0022 0.0089
vn 0.9999 0.0015 0.0102
vn 0.9999 -0.0003 0.0124
vn 0.9999 0.0014 0.0109
vn 0.0007 0.2188 0.9758
vn 1.0000 0.0019 0.0094
vn 0.9999 -0.0022 0.0108
vn 0.9999 -0.0024 0.0104
vn 0.0001 -0.0940 0.9956
vn 0.0004 -0.0939 0.9956
vn 0.9999 -0.0025 0.0104
vn 0.0002 -0.1219 0.9925
vn 0.0002 -0.1227 0.9924
vn -0.0012 -0.9960 -0.0892
vn -0.0012 -0.9960 -0.0891
vn -0.0011 -0.9900 0.1410
vn -0.0009 -0.9427 0.3335
vn -0.0008 -0.8943 0.4475
vn 0.0012 0.9420 0.3356
vn 0.0012 0.9010 0.4338
vn 0.0012 0.9009 0.4340
vn 0.0012 0.8552 0.5184
vn 0.0011 0.8551 0.5185
vn 0.0005 0.0633 0.9980
vn -0.0006 -0.7828 0.6223
vn -0.0006 -0.7827 0.6224
vn -0.0007 -0.8366 0.5479
vn -0.0007 -0.8365 0.5479
vn 0.0012 0.9785 0.2064
vn 0.0011 0.9998 0.0208
vn 0.0010 0.9767 -0.2144
vn 0.0007 0.2469 0.9690
vn 0.0006 0.2188 0.9758
vn 1.0000 -0.0015 -0.0019
vn 1.0000 -0.0010 -0.0018
vn 1.0000 -0.0006 -0.0016
vn -0.0003 -0.3963 0.9181
vn 1.0000 -0.0000 -0.0017
vn 1.0000 -0.0012 -0.0023
vn -0.0001 -0.3963 0.9181
vn 0.9999 -0.0057 0.0101
vn 0.9999 -0.0071 0.0099
vn 0.9999 -0.0079 0.0093
vn 0.9999 -0.0077 0.0095
vn 0.9999 -0.0087 0.0082
vn -0.0002 -0.5051 0.8631
vn -0.0003 -0.5616 0.8274
vn -0.0008 -0.8604 0.5096
vn 0.9999 -0.0098 0.0085
vn 0.9999 -0.0107 0.0064
vn 0.9999 -0.0107 0.0065
vn 0.9999 -0.0107 0.0056
vn 0.9999 -0.0107 0.0053
vn 0.9999 -0.0130 0.0043
vn 0.9999 -0.0120 0.0021
vn -0.0010 -0.9758 0.2188
vn 1.0000 0.0004 -0.0013
vn 1.0000 0.0006 -0.0008
vn -0.0007 -0.8168 0.5769
vn -0.0007 -0.8168 0.5770
vn -0.0012 -0.9963 -0.0857
vn -0.0011 -0.9989 0.0472
vn -0.0010 -0.9879 0.1552
vn 0.0011 0.7272 0.6865
vn 0.0011 0.8106 0.5857
vn 0.0010 0.6463 0.7631
vn 0.0011 0.7273 0.6864
vn 0.0010 0.6461 0.7632
vn 0.0010 0.5678 0.8232
vn -0.0000 -0.3467 0.9380
vn -0.0000 -0.3525 0.9358
vn -0.0000 -0.3528 0.9357
vn -0.0010 -0.9672 0.2540
vn -0.0000 -0.3474 0.9377
vn 0.0011 0.8106 0.5856
vn 0.0012 0.9056 0.4241
vn 1.0000 -0.0009 -0.0003
vn -0.0012 -0.9628 -0.2702
vn -0.0012 -0.8808 -0.4736
vn -0.0012 -0.8809 -0.4733
vn 1.0000 -0.0020 -0.0018
vn 1.0000 -0.0024 -0.0015
vn 0.0010 0.6541 0.7564
vn -0.0006 -0.7294 0.6841
vn -0.0003 -0.5573 0.8303
vn -0.0003 -0.5571 0.8304
vn -0.0006 -0.7297 0.6837
vn 0.0009 0.9255 -0.3787
vn 0.0010 0.9592 -0.2828
vn 0.0010 0.9592 -0.2829
vn 1.0000 -0.0011 -0.0009
vn 0.0001 -0.2638 0.9646
vn -0.0001 -0.3873 0.9220
vn 0.0011 0.7924 0.6100
vn 0.0011 0.7842 0.6205
vn 0.0003 -0.0335 0.9994
vn 0.0003 -0.0336 0.9994
vn 0.0002 -0.1535 0.9881
vn 0.0011 0.7923 0.6101
vn 0.0008 0.3819 0.9242
vn -0.0005 -0.7117 0.7025
vn -0.0005 -0.7117 0.7024
vn -0.0005 -0.6993 0.7148
vn -0.0005 -0.6995 0.7147
vn 0.0006 0.1853 0.9827
vn 0.0007 0.2782 0.9605
vn -0.0010 -0.5887 -0.8084
vn -0.0010 -0.5891 -0.8080
vn 1.0000 -0.0015 -0.0007
vn -0.0011 -0.7725 -0.6350
vn -0.0011 -0.7723 -0.6352
vn -0.0012 -0.8740 -0.4859
vn 0.0012 0.9092 0.4163
vn 0.0009 0.4949 0.8689
vn 0.0007 0.2953 0.9554
vn 0.0005 0.1028 0.9947
vn 1.0000 -0.0011 -0.0002
vn 1.0000 -0.0011 -0.0000
vn 0.0002 -0.1326 0.9912
vn 0.0004 -0.0289 0.9996
vn 0.0005 0.1032 0.9947
vn -0.0001 -0.3817 0.9243
vn -0.0010 -0.6024 -0.7982
vn 1.0000 -0.0010 -0.0001
vn -0.0010 -0.6026 -0.7980
vn -0.0008 -0.4434 -0.8963
vn -0.0008 -0.4438 -0.8961
vn -0.0006 -0.2331 -0.9725
vn -0.0006 -0.2319 -0.9727
vn -0.6986 0.4745 -0.5356
vn -0.7106 -0.6867 0.1535
vn -0.0010 -0.9761 0.2175
vn 0.0002 0.4970 -0.8678
vn -0.0001 -0.3823 0.9240
vn 1.0000 -0.0028 -0.0011
vn 1.0000 -0.0029 -0.0005
vn 0.9999 0.0102 0.0004
vn 0.9999 0.0106 -0.0002
vn 0.0009 0.5401 0.8416
vn 0.0009 0.5398 0.8418
vn 0.0008 0.4219 0.9066
vn 0.0010 0.6322 0.7748
vn 0.0010 0.6320 0.7750
vn 0.0010 0.7001 0.7140
vn 0.0011 0.7002 0.7139
vn 0.0010 0.9857 -0.1685
vn 0.0006 0.2474 0.9689
vn 0.0007 0.2476 0.9689
vn 0.0008 0.4216 0.9068
vn 0.0001 0.4298 -0.9029
vn 0.0010 0.9859 -0.1674
vn -0.0000 0.3363 -0.9418
vn 0.0008 0.8610 -0.5086
vn 0.0010 0.9755 -0.2201
vn 0.9999 0.0087 -0.0062
vn 0.9999 0.0098 -0.0051
vn 0.9999 0.0092 -0.0072
vn 0.0009 0.9159 -0.4015
vn 0.0008 0.4293 0.9032
vn 1.0000 -0.0009 -0.0005
vn 0.0008 0.4298 0.9029
vn 0.0010 0.6196 0.7849
vn 0.0011 0.7557 0.6549
vn 0.0012 0.8387 0.5446
vn -0.0005 -0.6729 0.7397
vn -0.0006 -0.7576 0.6527
vn -0.0005 -0.6730 0.7396
vn -0.0007 -0.8277 0.5612
vn -0.0008 -0.8773 0.4799
vn -0.0012 -0.8923 -0.4515
vn -1.0000 0.0011 -0.0003
vn 1.0000 -0.0011 -0.0001
vn -0.0012 -0.8967 -0.4425
vn -0.0005 -0.1511 -0.9885
vn -0.0006 -0.1512 -0.9885
vn -0.0012 -0.8967 -0.4427
vn -0.0002 0.1835 -0.9830
vn -0.0003 0.0609 -0.9981
vn -0.0003 0.0611 -0.9981
vn -0.0004 -0.0530 -0.9986
vn 0.0001 0.3696 -0.9292
vn 0.0001 0.3698 -0.9291
vn -0.0004 -0.0531 -0.9986
vn 0.0003 0.5786 -0.8156
vn 0.0012 0.9309 0.3653
vn 0.0012 0.8899 0.4562
vn 0.0012 0.9309 0.3652
vn 0.0012 0.8900 0.4560
vn 1.0000 -0.0011 -0.0008
vn 0.0007 0.8297 -0.5582
vn 0.0007 0.8299 -0.5579
vn -0.0009 -0.4842 -0.8749
vn -0.0010 -0.6855 -0.7281
vn -0.0011 -0.6859 -0.7277
vn -0.0007 -0.3048 -0.9524
vn -0.0006 -0.1865 -0.9825
vn -0.0006 -0.1864 -0.9825
vn -0.0005 -0.0737 -0.9973
vn -0.0003 0.0249 -0.9997
vn -0.0004 0.0252 -0.9997
vn -0.0004 -0.0735 -0.9973
vn 1.0000 -0.0011 -0.0007
vn 0.0007 0.8374 -0.5467
vn 0.0007 0.8368 -0.5475
vn -0.0002 -0.5095 0.8605
vn -0.0000 -0.3256 0.9455
vn 0.0009 0.9159 -0.4014
vn 0.0011 0.9755 -0.2201
vn 0.9999 -0.0123 0.0018
vn 0.9999 -0.0127 0.0013
vn 0.9999 -0.0135 -0.0009
vn -0.0006 -0.2266 -0.9740
vn 1.0000 -0.0012 0.0002
vn -0.0004 -0.0393 -0.9992
vn 0.9999 -0.0122 -0.0059
vn 0.0011 0.7591 0.6510
vn -0.0011 -0.7660 -0.6428
vn 0.9999 -0.0039 -0.0128
vn 0.9999 -0.0042 -0.0113
vn -0.0009 -0.9175 0.3978
vn -0.0008 -0.4333 -0.9012
vn -0.0008 -0.4332 -0.9013
vn -0.0009 -0.9176 0.3975
vn -0.0010 -0.9820 0.1888
vn -0.0011 -1.0000 0.0006
vn 0.0009 0.9371 -0.3490
vn 0.0011 0.9928 -0.1196
vn 0.0008 0.8566 -0.5161
vn 0.0006 0.7798 -0.6261
vn -0.0012 -0.9716 -0.2366
vn -0.0012 -0.9913 -0.1316
vn -0.0012 -0.9716 -0.2367
vn 0.0005 0.7087 -0.7055
vn 0.0007 0.7796 -0.6262
vn 0.0004 0.6317 -0.7752
vn 0.0005 0.7086 -0.7056
vn 0.0004 0.6318 -0.7751
vn -0.0007 -0.2666 -0.9638
vn -0.0007 -0.2664 -0.9639
vn -0.0012 -0.9440 -0.3301
vn -0.0012 -0.9440 -0.3300
vn 0.0011 0.9928 -0.1195
vn -0.0005 -0.0985 -0.9951
vn -0.0005 -0.0983 -0.9952
vn 0.9999 -0.0019 -0.0124
vn -0.0004 -0.0298 -0.9996
vn -0.0009 -0.4917 -0.8708
vn -0.0009 -0.9111 0.4121
vn 0.0003 0.5325 -0.8464
vn -0.0008 -0.3829 -0.9238
vn -0.0008 -0.3828 -0.9239
vn -0.0009 -0.4747 -0.8802
vn -0.0009 -0.4748 -0.8801
vn -0.0010 -0.5662 -0.8243
vn -0.0010 -0.6682 -0.7440
s 0
usemtl Lisanne_Tools.001
f 2//1 5//1 1//1
f 1//1 4//1 2//1
f 1//2 3//2 8//2
f 1//3 6//3 3//3
f 8//4 4//4 1//4
f 1//5 5//5 7//5
f 7//6 6//6 1//6
f 8//7 11//7 9//7
f 9//7 12//7 8//7
f 8//8 3//8 10//8
f 10//8 11//8 8//8
f 8//9 12//9 4//9
f 12//2 13//2 4//2
f 12//2 15//2 13//2
f 14//10 12//10 9//10
f 12//2 14//2 15//2
f 16//11 17//11 15//11
f 15//12 18//12 16//12
f 15//13 17//13 19//13
f 14//2 18//2 15//2
f 19//14 13//14 15//14
f 19//15 17//15 9//15
f 2//16 19//16 9//16
f 13//17 19//17 2//17
f 20//2 22//2 18//2
f 14//2 20//2 18//2
f 21//18 16//18 18//18
f 18//19 22//19 21//19
f 20//2 23//2 22//2
f 21//20 22//20 24//20
f 23//2 24//2 22//2
f 24//21 25//21 21//21
f 26//22 25//22 24//22
f 24//23 23//23 26//23
f 26//24 23//24 20//24
f 21//15 25//15 26//15
f 21//16 26//16 27//16
f 20//24 27//24 26//24
f 28//25 27//25 20//25
f 16//16 27//16 28//16
f 16//16 21//16 27//16
f 17//16 28//16 9//16
f 9//26 28//26 14//26
f 17//16 16//16 28//16
f 20//25 14//25 28//25
f 2//17 4//17 13//17
f 2//15 9//15 11//15
f 5//15 2//15 11//15
f 5//16 11//16 10//16
f 10//15 30//15 5//15
f 29//27 30//27 10//27
f 10//28 3//28 29//28
f 31//29 5//29 30//29
f 30//30 32//30 31//30
f 32//31 30//31 35//31
f 30//32 29//32 33//32
f 33//33 34//33 30//33
f 30//34 34//34 36//34
f 30//35 36//35 35//35
f 35//36 36//36 37//36
f 36//37 34//37 33//37
f 33//38 37//38 36//38
f 37//2 33//2 38//2
f 39//2 37//2 38//2
f 37//36 39//36 35//36
f 35//39 39//39 44//39
f 39//2 40//2 43//2
f 38//2 40//2 39//2
f 41//9 44//9 39//9
f 42//2 41//2 39//2
f 42//2 39//2 43//2
f 41//2 48//2 44//2
f 44//39 45//39 35//39
f 47//40 45//40 44//40
f 48//2 46//2 44//2
f 44//40 46//40 47//40
f 48//2 50//2 49//2
f 48//9 49//9 46//9
f 50//41 48//41 51//41
f 51//42 48//42 41//42
f 45//15 47//15 51//15
f 45//16 51//16 54//16
f 47//16 52//16 51//16
f 52//16 53//16 51//16
f 51//41 53//41 50//41
f 41//43 54//43 51//43
f 35//15 45//15 54//15
f 55//44 54//44 41//44
f 35//15 54//15 55//15
f 56//45 57//45 55//45
f 55//45 42//45 56//45
f 41//46 42//46 55//46
f 35//16 55//16 57//16
f 35//16 57//16 58//16
f 59//47 58//47 57//47
f 57//48 56//48 59//48
f 59//2 56//2 61//2
f 58//49 59//49 60//49
f 60//9 59//9 62//9
f 59//2 61//2 62//2
f 60//3 62//3 63//3
f 64//50 63//50 62//50
f 62//51 66//51 64//51
f 65//52 66//52 62//52
f 62//53 61//53 65//53
f 67//16 64//16 66//16
f 66//16 65//16 67//16
f 67//54 68//54 69//54
f 68//55 67//55 40//55
f 67//56 69//56 71//56
f 73//57 70//57 67//57
f 40//58 67//58 70//58
f 65//15 74//15 67//15
f 71//59 72//59 67//59
f 67//60 72//60 64//60
f 74//16 73//16 67//16
f 43//61 74//61 65//61
f 73//62 74//62 43//62
f 43//63 76//63 73//63
f 73//16 75//16 70//16
f 77//64 75//64 73//64
f 73//64 76//64 77//64
f 78//9 79//9 77//9
f 78//2 77//2 76//2
f 79//2 81//2 77//2
f 81//2 80//2 77//2
f 75//65 77//65 80//65
f 81//2 82//2 80//2
f 84//66 82//66 81//66
f 85//67 83//67 81//67
f 81//68 83//68 84//68
f 81//67 79//67 85//67
f 85//69 79//69 78//69
f 75//16 85//16 70//16
f 78//70 70//70 85//70
f 75//16 83//16 85//16
f 86//15 84//15 83//15
f 87//71 82//71 84//71
f 86//15 88//15 84//15
f 84//72 88//72 87//72
f 86//16 89//16 88//16
f 87//73 88//73 89//73
f 89//74 90//74 87//74
f 90//75 89//75 86//75
f 86//75 80//75 90//75
f 87//2 90//2 80//2
f 82//9 87//9 80//9
f 80//76 86//76 75//76
f 75//16 86//16 83//16
f 70//77 78//77 40//77
f 40//4 78//4 76//4
f 76//2 43//2 40//2
f 72//78 91//78 93//78
f 91//79 72//79 71//79
f 92//80 95//80 72//80
f 72//81 94//81 92//81
f 93//82 94//82 72//82
f 95//83 96//83 72//83
f 96//84 64//84 72//84
f 95//85 98//85 96//85
f 64//86 96//86 97//86
f 96//87 98//87 97//87
f 99//9 101//9 98//9
f 98//2 100//2 99//2
f 98//88 95//88 92//88
f 92//89 100//89 98//89
f 101//2 97//2 98//2
f 102//90 103//90 101//90
f 101//90 99//90 102//90
f 101//91 103//91 104//91
f 104//91 105//91 101//91
f 101//2 105//2 97//2
f 105//92 106//92 63//92
f 106//93 105//93 104//93
f 105//2 63//2 97//2
f 60//94 106//94 107//94
f 104//95 107//95 106//95
f 106//9 60//9 63//9
f 109//96 108//96 107//96
f 107//97 108//97 60//97
f 109//98 107//98 104//98
f 109//99 104//99 103//99
f 109//100 103//100 102//100
f 102//101 110//101 109//101
f 35//102 109//102 32//102
f 113//103 32//103 109//103
f 35//104 108//104 109//104
f 109//105 110//105 112//105
f 112//105 111//105 109//105
f 109//103 111//103 113//103
f 113//16 112//16 114//16
f 114//106 115//106 113//106
f 113//16 111//16 112//16
f 91//107 113//107 115//107
f 116//16 117//16 113//16
f 91//16 116//16 113//16
f 32//108 113//108 117//108
f 31//109 117//109 116//109
f 117//108 31//108 32//108
f 71//79 116//79 91//79
f 116//109 71//109 31//109
f 115//110 121//110 91//110
f 115//111 114//111 118//111
f 120//112 115//112 118//112
f 119//113 115//113 120//113
f 121//114 115//114 119//114
f 119//114 123//114 121//114
f 122//115 125//115 121//115
f 122//116 121//116 124//116
f 124//117 121//117 123//117
f 91//118 121//118 125//118
f 93//119 125//119 127//119
f 125//120 93//120 91//120
f 125//121 122//121 126//121
f 126//121 127//121 125//121
f 94//122 127//122 128//122
f 131//123 128//123 127//123
f 127//124 126//124 130//124
f 127//125 94//125 93//125
f 129//126 131//126 127//126
f 127//127 130//127 129//127
f 131//128 129//128 134//128
f 132//129 128//129 131//129
f 131//130 133//130 132//130
f 134//131 133//131 131//131
f 135//2 136//2 134//2
f 135//2 134//2 137//2
f 136//9 133//9 134//9
f 134//132 129//132 130//132
f 130//132 137//132 134//132
f 137//133 140//133 138//133
f 138//92 141//92 137//92
f 139//134 140//134 137//134
f 137//134 130//134 139//134
f 135//4 137//4 141//4
f 142//135 141//135 138//135
f 143//136 141//136 142//136
f 135//2 141//2 143//2
f 135//9 143//9 144//9
f 144//137 143//137 145//137
f 142//138 145//138 143//138
f 146//16 145//16 130//16
f 145//137 146//137 144//137
f 145//16 142//16 130//16
f 147//139 144//139 146//139
f 148//140 146//140 130//140
f 146//141 148//141 147//141
f 149//16 148//16 130//16
f 148//142 149//142 150//142
f 150//142 147//142 148//142
f 151//2 147//2 150//2
f 151//2 150//2 152//2
f 152//143 150//143 149//143
f 152//144 153//144 155//144
f 149//143 153//143 152//143
f 155//145 154//145 152//145
f 151//9 152//9 154//9
f 155//15 153//15 130//15
f 156//16 155//16 130//16
f 154//146 155//146 156//146
f 157//147 158//147 156//147
f 156//148 159//148 157//148
f 159//16 156//16 130//16
f 156//146 158//146 154//146
f 159//120 130//120 160//120
f 160//140 161//140 159//140
f 157//149 159//149 161//149
f 162//150 161//150 160//150
f 161//151 162//151 157//151
f 160//150 163//150 162//150
f 157//152 162//152 163//152
f 164//153 166//153 163//153
f 164//154 163//154 160//154
f 165//9 157//9 163//9
f 165//2 163//2 166//2
f 168//155 167//155 166//155
f 169//2 166//2 167//2
f 164//156 168//156 166//156
f 169//2 165//2 166//2
f 169//157 167//157 170//157
f 169//2 170//2 172//2
f 169//2 172//2 171//2
f 173//2 169//2 171//2
f 174//158 169//158 173//158
f 165//159 169//159 174//159
f 174//159 177//159 165//159
f 175//160 174//160 176//160
f 177//161 174//161 175//161
f 173//158 176//158 174//158
f 123//162 177//162 175//162
f 165//163 177//163 178//163
f 178//164 177//164 123//164
f 179//165 178//165 123//165
f 178//166 179//166 135//166
f 135//166 151//166 178//166
f 178//163 151//163 165//163
f 179//167 180//167 136//167
f 136//167 135//167 179//167
f 180//168 179//168 123//168
f 181//169 136//169 180//169
f 180//169 182//169 181//169
f 182//170 180//170 123//170
f 183//171 181//171 182//171
f 182//172 184//172 183//172
f 184//173 182//173 123//173
f 185//174 183//174 184//174
f 184//174 186//174 185//174
f 184//175 119//175 186//175
f 184//176 123//176 119//176
f 185//177 186//177 187//177
f 186//178 119//178 187//178
f 187//179 119//179 189//179
f 188//180 187//180 189//180
f 187//181 188//181 185//181
f 191//182 189//182 190//182
f 189//183 119//183 190//183
f 189//184 191//184 188//184
f 192//2 197//2 191//2
f 199//185 192//185 191//185
f 193//9 195//9 191//9
f 196//2 193//2 191//2
f 190//186 194//186 191//186
f 198//2 191//2 194//2
f 195//2 199//2 191//2
f 198//9 196//9 191//9
f 197//2 188//2 191//2
f 201//187 200//187 199//187
f 202//188 199//188 200//188
f 199//189 195//189 201//189
f 192//2 199//2 202//2
f 200//190 205//190 202//190
f 202//3 203//3 192//3
f 204//191 203//191 202//191
f 202//191 205//191 204//191
f 206//120 204//120 205//120
f 206//15 205//15 200//15
f 206//16 200//16 201//16
f 206//15 201//15 214//15
f 206//16 216//16 207//16
f 206//192 207//192 211//192
f 213//193 206//193 208//193
f 206//194 218//194 208//194
f 206//16 212//16 209//16
f 218//16 206//16 209//16
f 210//195 206//195 213//195
f 206//196 210//196 197//196
f 206//16 211//16 212//16
f 197//196 192//196 206//196
f 206//197 192//197 203//197
f 203//197 204//197 206//197
f 206//15 214//15 217//15
f 206//16 217//16 215//16
f 206//16 215//16 216//16
f 209//16 219//16 218//16
f 221//198 218//198 219//198
f 208//199 218//199 220//199
f 220//200 218//200 221//200
f 221//4 222//4 224//4
f 222//201 221//201 223//201
f 219//198 223//198 221//198
f 225//2 221//2 224//2
f 221//200 225//200 220//200
f 226//9 225//9 224//9
f 220//202 225//202 226//202
f 226//2 224//2 227//2
f 229//2 226//2 227//2
f 228//203 220//203 226//203
f 228//204 226//204 229//204
f 232//185 229//185 227//185
f 230//205 231//205 229//205
f 229//206 232//206 230//206
f 231//207 228//207 229//207
f 232//208 233//208 234//208
f 233//9 232//9 227//9
f 234//209 230//209 232//209
f 231//210 230//210 234//210
f 234//211 235//211 236//211
f 235//212 234//212 233//212
f 231//213 234//213 236//213
f 231//214 236//214 208//214
f 208//215 236//215 241//215
f 236//216 239//216 237//216
f 238//217 236//217 237//217
f 235//218 242//218 236//218
f 236//219 238//219 240//219
f 236//220 242//220 239//220
f 240//221 241//221 236//221
f 243//222 244//222 242//222
f 242//222 245//222 243//222
f 239//223 242//223 244//223
f 245//224 242//224 247//224
f 242//16 235//16 246//16
f 246//225 247//225 242//225
f 247//226 248//226 245//226
f 248//227 247//227 246//227
f 245//185 248//185 249//185
f 246//227 249//227 248//227
f 251//228 250//228 249//228
f 249//4 250//4 243//4
f 249//9 243//9 245//9
f 249//228 246//228 251//228
f 235//16 253//16 251//16
f 235//16 251//16 246//16
f 252//229 250//229 251//229
f 251//229 253//229 252//229
f 255//230 252//230 253//230
f 235//16 254//16 253//16
f 253//230 254//230 255//230
f 255//2 256//2 257//2
f 260//231 256//231 255//231
f 255//232 254//232 260//232
f 255//2 257//2 258//2
f 255//4 258//4 259//4
f 252//2 255//2 259//2
f 256//233 260//233 261//233
f 235//234 261//234 260//234
f 235//235 260//235 254//235
f 262//236 261//236 235//236
f 261//233 262//233 256//233
f 235//237 263//237 262//237
f 262//9 263//9 264//9
f 256//2 262//2 264//2
f 257//238 264//238 265//238
f 266//239 265//239 264//239
f 264//239 227//239 266//239
f 263//2 227//2 264//2
f 256//2 264//2 257//2
f 224//240 267//240 266//240
f 266//240 227//240 224//240
f 268//241 265//241 266//241
f 267//242 268//242 266//242
f 124//243 175//243 268//243
f 268//243 120//243 124//243
f 175//244 269//244 268//244
f 119//245 268//245 267//245
f 120//113 268//113 119//113
f 268//246 269//246 271//246
f 268//247 270//247 265//247
f 268//248 271//248 270//248
f 257//249 270//249 271//249
f 271//250 269//250 259//250
f 271//249 258//249 257//249
f 259//250 258//250 271//250
f 265//238 270//238 257//238
f 259//251 269//251 272//251
f 175//252 272//252 269//252
f 274//253 272//253 273//253
f 175//254 273//254 272//254
f 272//255 274//255 259//255
f 273//253 276//253 274//253
f 274//2 276//2 275//2
f 259//2 274//2 275//2
f 276//2 277//2 275//2
f 276//2 173//2 277//2
f 276//256 273//256 176//256
f 176//256 173//256 276//256
f 278//257 280//257 277//257
f 277//258 281//258 278//258
f 277//259 280//259 279//259
f 279//260 275//260 277//260
f 173//2 281//2 277//2
f 278//261 281//261 171//261
f 173//9 171//9 281//9
f 279//120 280//120 168//120
f 280//15 278//15 168//15
f 282//16 279//16 168//16
f 275//262 279//262 282//262
f 283//263 286//263 282//263
f 282//264 285//264 283//264
f 282//16 168//16 284//16
f 285//265 282//265 284//265
f 282//266 286//266 275//266
f 288//4 286//4 283//4
f 252//9 259//9 286//9
f 275//2 286//2 259//2
f 287//9 252//9 286//9
f 288//9 287//9 286//9
f 284//267 288//267 290//267
f 288//268 284//268 289//268
f 291//2 287//2 288//2
f 290//92 288//92 283//92
f 289//269 292//269 288//269
f 291//2 288//2 292//2
f 293//270 292//270 289//270
f 294//271 291//271 292//271
f 294//4 292//4 293//4
f 237//272 291//272 294//272
f 294//273 295//273 296//273
f 295//2 294//2 293//2
f 294//274 297//274 237//274
f 296//273 297//273 294//273
f 238//275 237//275 297//275
f 238//275 297//275 296//275
f 298//276 296//276 295//276
f 296//277 298//277 238//277
f 298//235 300//235 299//235
f 298//120 299//120 302//120
f 298//16 303//16 300//16
f 238//278 298//278 301//278
f 301//16 298//16 302//16
f 295//276 304//276 298//276
f 303//279 298//279 304//279
f 304//9 295//9 305//9
f 304//271 305//271 306//271
f 307//9 304//9 306//9
f 304//280 307//280 303//280
f 308//2 307//2 306//2
f 303//281 307//281 308//281
f 308//2 306//2 309//2
f 310//2 308//2 309//2
f 300//282 308//282 310//282
f 308//283 300//283 303//283
f 310//284 299//284 300//284
f 302//285 299//285 310//285
f 311//2 310//2 312//2
f 310//285 311//285 302//285
f 310//9 309//9 312//9
f 314//286 312//286 309//286
f 315//287 313//287 312//287
f 311//2 312//2 313//2
f 312//287 314//287 315//287
f 318//288 313//288 315//288
f 315//16 317//16 316//16
f 319//16 315//16 316//16
f 315//120 314//120 317//120
f 315//288 319//288 318//288
f 320//15 319//15 321//15
f 318//289 319//289 320//289
f 319//57 323//57 321//57
f 319//16 316//16 322//16
f 319//15 322//15 323//15
f 325//290 323//290 322//290
f 324//291 321//291 323//291
f 323//292 325//292 324//292
f 324//2 325//2 318//2
f 322//293 326//293 325//293
f 325//2 326//2 318//2
f 326//2 327//2 318//2
f 327//294 326//294 322//294
f 311//2 313//2 327//2
f 311//2 327//2 330//2
f 322//294 316//294 327//294
f 327//295 316//295 328//295
f 328//295 329//295 327//295
f 331//2 327//2 329//2
f 327//2 313//2 318//2
f 331//296 330//296 327//296
f 334//2 331//2 329//2
f 333//297 332//297 331//297
f 330//298 331//298 332//298
f 331//299 334//299 333//299
f 335//300 334//300 329//300
f 334//301 335//301 336//301
f 336//302 333//302 334//302
f 339//303 333//303 336//303
f 339//304 336//304 337//304
f 338//305 337//305 336//305
f 336//305 335//305 338//305
f 339//306 301//306 332//306
f 339//306 332//306 333//306
f 342//307 340//307 339//307
f 339//167 340//167 240//167
f 238//308 301//308 339//308
f 339//309 343//309 341//309
f 339//307 341//307 342//307
f 337//310 343//310 339//310
f 240//311 238//311 339//311
f 341//312 343//312 344//312
f 344//16 343//16 345//16
f 343//235 346//235 345//235
f 346//313 343//313 347//313
f 338//314 347//314 343//314
f 343//315 337//315 338//315
f 347//4 338//4 348//4
f 347//9 348//9 349//9
f 350//2 347//2 349//2
f 347//316 350//316 346//316
f 350//2 349//2 351//2
f 352//2 350//2 351//2
f 350//317 352//317 345//317
f 345//318 346//318 350//318
f 345//319 352//319 353//319
f 353//2 352//2 355//2
f 352//2 351//2 354//2
f 352//2 354//2 355//2
f 355//2 360//2 356//2
f 359//296 355//296 356//296
f 355//320 359//320 357//320
f 357//320 344//320 355//320
f 353//4 355//4 361//4
f 355//321 344//321 358//321
f 358//321 361//321 355//321
f 360//2 355//2 354//2
f 353//2 361//2 362//2
f 362//322 361//322 358//322
f 363//2 353//2 362//2
f 363//2 362//2 364//2
f 358//322 366//322 362//322
f 365//323 364//323 362//323
f 362//324 366//324 365//324
f 366//16 368//16 367//16
f 365//16 366//16 367//16
f 366//15 358//15 368//15
f 344//16 345//16 368//16
f 353//319 368//319 345//319
f 367//325 368//325 353//325
f 358//57 344//57 368//57
f 365//16 367//16 369//16
f 370//326 369//326 367//326
f 367//326 363//326 370//326
f 353//325 363//325 367//325
f 370//2 363//2 364//2
f 370//2 364//2 371//2
f 370//9 371//9 372//9
f 373//2 370//2 372//2
f 369//327 370//327 373//327
f 372//4 374//4 373//4
f 375//328 373//328 374//328
f 373//327 375//327 369//327
f 374//329 377//329 375//329
f 376//16 369//16 375//16
f 375//57 377//57 376//57
f 376//330 377//330 374//330
f 374//331 372//331 376//331
f 378//332 376//332 372//332
f 376//15 378//15 369//15
f 364//333 365//333 378//333
f 378//334 371//334 364//334
f 372//332 371//332 378//332
f 378//16 365//16 369//16
f 360//2 354//2 381//2
f 356//335 360//335 382//335
f 360//336 379//336 380//336
f 379//2 360//2 381//2
f 380//336 382//336 360//336
f 384//337 382//337 383//337
f 385//16 383//16 382//16
f 387//338 382//338 384//338
f 382//335 387//335 356//335
f 386//16 385//16 382//16
f 386//16 382//16 380//16
f 384//338 388//338 387//338
f 387//339 388//339 389//339
f 389//340 356//340 387//340
f 390//341 392//341 389//341
f 390//271 389//271 391//271
f 391//342 389//342 388//342
f 359//296 356//296 389//296
f 392//343 359//343 389//343
f 393//344 392//344 390//344
f 359//345 392//345 393//345
f 390//346 394//346 393//346
f 393//347 357//347 359//347
f 395//348 357//348 393//348
f 395//349 393//349 394//349
f 394//349 396//349 395//349
f 395//350 396//350 399//350
f 395//351 341//351 344//351
f 341//352 395//352 398//352
f 344//353 357//353 395//353
f 388//354 384//354 395//354
f 400//355 388//355 395//355
f 395//356 384//356 397//356
f 397//357 398//357 395//357
f 395//358 399//358 400//358
f 388//342 400//342 391//342
f 400//359 399//359 401//359
f 401//360 391//360 400//360
f 402//4 391//4 401//4
f 402//2 401//2 403//2
f 401//361 399//361 404//361
f 404//362 403//362 401//362
f 404//15 399//15 406//15
f 404//16 406//16 405//16
f 408//16 404//16 405//16
f 404//363 408//363 407//363
f 407//363 403//363 404//363
f 409//364 407//364 408//364
f 408//364 410//364 409//364
f 410//16 408//16 405//16
f 411//16 410//16 413//16
f 409//365 410//365 411//365
f 410//16 405//16 412//16
f 410//16 412//16 413//16
f 413//366 412//366 416//366
f 415//140 413//140 414//140
f 414//367 413//367 417//367
f 415//16 411//16 413//16
f 416//366 417//366 413//366
f 417//2 409//2 418//2
f 419//9 417//9 418//9
f 417//2 416//2 409//2
f 417//368 419//368 414//368
f 419//2 418//2 421//2
f 419//369 420//369 422//369
f 420//2 419//2 421//2
f 422//370 414//370 419//370
f 414//15 422//15 424//15
f 423//371 424//371 422//371
f 422//371 420//371 423//371
f 424//372 423//372 421//372
f 424//16 415//16 414//16
f 421//373 415//373 424//373
f 421//2 423//2 420//2
f 411//374 415//374 421//374
f 421//375 418//375 411//375
f 411//365 418//365 409//365
f 416//376 412//376 405//376
f 405//376 425//376 416//376
f 416//2 425//2 409//2
f 426//377 425//377 405//377
f 425//2 426//2 403//2
f 425//9 407//9 409//9
f 425//2 403//2 407//2
f 396//378 402//378 426//378
f 426//2 402//2 403//2
f 426//378 406//378 396//378
f 405//377 406//377 426//377
f 399//16 396//16 406//16
f 390//379 402//379 396//379
f 402//185 390//185 391//185
f 398//380 342//380 341//380
f 342//381 398//381 120//381
f 120//382 398//382 397//382
f 397//383 427//383 120//383
f 427//384 397//384 384//384
f 124//385 427//385 428//385
f 428//51 427//51 429//51
f 427//386 124//386 120//386
f 384//387 429//387 427//387
f 429//388 384//388 383//388
f 429//389 383//389 431//389
f 328//390 316//390 429//390
f 431//391 328//391 429//391
f 429//51 430//51 428//51
f 430//392 429//392 316//392
f 348//393 431//393 383//393
f 431//394 348//394 329//394
f 329//394 328//394 431//394
f 428//395 430//395 433//395
f 430//396 316//396 317//396
f 430//397 317//397 432//397
f 432//398 289//398 430//398
f 430//399 289//399 284//399
f 284//400 433//400 430//400
f 168//401 433//401 284//401
f 126//402 433//402 168//402
f 434//403 433//403 126//403
f 433//395 434//395 428//395
f 126//403 122//403 434//403
f 428//404 434//404 124//404
f 434//405 122//405 124//405
f 289//270 432//270 293//270
f 432//406 317//406 305//406
f 305//407 293//407 432//407
f 396//379 394//379 390//379
f 386//408 381//408 354//408
f 437//409 381//409 386//409
f 354//408 385//408 386//408
f 386//16 380//16 435//16
f 436//16 386//16 435//16
f 386//409 436//409 437//409
f 439//410 438//410 437//410
f 441//2 437//2 438//2
f 437//410 436//410 439//410
f 440//2 381//2 437//2
f 441//2 440//2 437//2
f 443//2 441//2 438//2
f 442//411 441//411 443//411
f 440//412 441//412 442//412
f 444//2 443//2 438//2
f 445//413 443//413 444//413
f 443//414 445//414 442//414
f 439//16 442//16 445//16
f 439//16 445//16 446//16
f 444//415 446//415 445//415
f 446//416 444//416 447//416
f 447//416 450//416 446//416
f 448//15 449//15 446//15
f 446//140 450//140 448//140
f 449//16 439//16 446//16
f 448//417 450//417 447//417
f 451//418 452//418 449//418
f 449//419 448//419 451//419
f 439//420 449//420 452//420
f 444//2 438//2 452//2
f 444//2 452//2 451//2
f 452//420 438//420 439//420
f 447//421 451//421 448//421
f 451//3 447//3 444//3
f 436//15 435//15 442//15
f 439//16 436//16 442//16
f 442//422 435//422 440//422
f 440//423 435//423 380//423
f 380//423 379//423 440//423
f 440//2 379//2 381//2
f 385//424 453//424 383//424
f 453//425 385//425 354//425
f 354//425 351//425 453//425
f 453//426 351//426 349//426
f 349//427 383//427 453//427
f 383//393 349//393 348//393
f 338//2 335//2 348//2
f 335//2 329//2 348//2
f 120//428 340//428 342//428
f 120//429 240//429 340//429
f 332//430 301//430 330//430
f 454//2 311//2 330//2
f 455//431 330//431 301//431
f 454//9 330//9 455//9
f 457//432 456//432 455//432
f 454//2 455//2 456//2
f 455//433 458//433 457//433
f 301//434 458//434 455//434
f 458//15 301//15 459//15
f 457//16 458//16 459//16
f 462//16 457//16 459//16
f 301//16 302//16 459//16
f 454//435 459//435 302//435
f 460//436 461//436 459//436
f 459//437 454//437 460//437
f 462//16 459//16 461//16
f 462//438 461//438 463//438
f 464//16 462//16 463//16
f 462//439 464//439 465//439
f 465//439 466//439 462//439
f 456//440 457//440 462//440
f 462//440 466//440 456//440
f 460//2 454//2 466//2
f 467//341 460//341 466//341
f 454//2 456//2 466//2
f 467//2 466//2 465//2
f 467//2 465//2 468//2
f 468//2 469//2 467//2
f 460//441 467//441 463//441
f 463//442 467//442 469//442
f 469//443 468//443 470//443
f 470//444 471//444 469//444
f 469//442 471//442 463//442
f 463//15 471//15 470//15
f 470//16 464//16 463//16
f 464//445 470//445 468//445
f 468//445 465//445 464//445
f 463//446 461//446 460//446
f 302//435 311//435 454//435
f 324//2 318//2 472//2
f 324//2 472//2 475//2
f 473//9 324//9 475//9
f 324//447 473//447 474//447
f 474//447 321//447 324//447
f 320//448 476//448 475//448
f 475//449 472//449 320//449
f 475//450 476//450 479//450
f 477//2 473//2 475//2
f 475//9 478//9 477//9
f 479//451 478//451 475//451
f 480//16 479//16 476//16
f 477//452 478//452 479//452
f 479//452 480//452 477//452
f 476//16 474//16 480//16
f 477//453 480//453 474//453
f 474//453 473//453 477//453
f 476//16 320//16 321//16
f 476//15 321//15 474//15
f 320//289 472//289 318//289
f 317//454 481//454 306//454
f 306//455 305//455 317//455
f 482//456 481//456 317//456
f 314//15 482//15 317//15
f 306//457 481//457 482//457
f 482//458 309//458 306//458
f 309//459 482//459 314//459
f 295//2 293//2 305//2
f 287//460 291//460 237//460
f 290//320 483//320 486//320
f 483//2 290//2 484//2
f 290//3 283//3 484//3
f 290//461 485//461 284//461
f 486//462 485//462 290//462
f 487//463 486//463 483//463
f 488//464 485//464 486//464
f 486//265 487//265 488//265
f 488//465 285//465 485//465
f 285//466 488//466 484//466
f 489//467 484//467 488//467
f 488//467 487//467 489//467
f 484//9 489//9 483//9
f 483//468 489//468 487//468
f 285//15 284//15 485//15
f 484//466 283//466 285//466
f 250//3 252//3 287//3
f 237//460 239//460 287//460
f 243//469 287//469 239//469
f 250//9 287//9 243//9
f 171//261 490//261 278//261
f 278//140 490//140 168//140
f 491//470 490//470 171//470
f 490//471 491//471 168//471
f 491//15 492//15 168//15
f 171//472 172//472 491//472
f 491//473 172//473 170//473
f 170//474 492//474 491//474
f 492//475 170//475 167//475
f 167//476 168//476 492//476
f 175//477 176//477 273//477
f 190//478 119//478 267//478
f 190//479 267//479 224//479
f 233//480 263//480 235//480
f 263//2 233//2 227//2
f 239//481 244//481 243//481
f 241//482 240//482 120//482
f 120//483 118//483 241//483
f 241//215 118//215 208//215
f 208//484 228//484 231//484
f 208//485 220//485 228//485
f 493//2 194//2 224//2
f 494//2 493//2 224//2
f 222//2 494//2 224//2
f 224//479 194//479 190//479
f 494//486 212//486 211//486
f 211//487 493//487 494//487
f 212//488 494//488 222//488
f 495//489 493//489 211//489
f 493//9 495//9 194//9
f 495//2 496//2 194//2
f 211//490 207//490 495//490
f 496//491 495//491 207//491
f 207//492 216//492 496//492
f 496//2 198//2 194//2
f 496//493 216//493 215//493
f 215//493 198//493 496//493
f 222//494 223//494 219//494
f 219//495 209//495 222//495
f 222//496 209//496 212//496
f 217//497 214//497 193//497
f 215//498 217//498 196//498
f 193//497 196//497 217//497
f 196//498 198//498 215//498
f 214//499 201//499 195//499
f 195//499 193//499 214//499
f 213//500 114//500 112//500
f 112//500 110//500 213//500
f 114//501 213//501 208//501
f 110//502 497//502 213//502
f 213//503 497//503 210//503
f 102//504 497//504 110//504
f 210//505 497//505 498//505
f 500//506 498//506 497//506
f 499//507 497//507 102//507
f 497//508 499//508 500//508
f 500//2 501//2 185//2
f 498//3 500//3 185//3
f 501//509 500//509 499//509
f 501//2 183//2 185//2
f 499//509 502//509 501//509
f 503//510 501//510 502//510
f 501//9 503//9 183//9
f 503//2 506//2 504//2
f 503//2 504//2 507//2
f 503//511 508//511 505//511
f 505//511 506//511 503//511
f 503//4 507//4 183//4
f 502//510 508//510 503//510
f 102//16 505//16 508//16
f 102//16 508//16 502//16
f 507//512 509//512 511//512
f 512//513 509//513 507//513
f 183//2 507//2 510//2
f 511//514 510//514 507//514
f 507//513 504//513 512//513
f 512//16 513//16 92//16
f 509//16 512//16 92//16
f 512//515 504//515 514//515
f 514//515 513//515 512//515
f 515//2 516//2 514//2
f 506//2 515//2 514//2
f 513//516 514//516 516//516
f 506//2 514//2 504//2
f 517//2 519//2 516//2
f 100//9 517//9 516//9
f 516//516 518//516 513//516
f 520//517 518//517 516//517
f 515//518 100//518 516//518
f 516//517 519//517 520//517
f 520//16 522//16 521//16
f 518//519 520//519 521//519
f 520//57 523//57 522//57
f 523//520 520//520 519//520
f 523//16 524//16 527//16
f 525//521 524//521 523//521
f 523//522 526//522 525//522
f 519//523 526//523 523//523
f 523//16 527//16 528//16
f 523//265 528//265 522//265
f 522//524 528//524 529//524
f 530//525 529//525 528//525
f 528//526 527//526 530//526
f 529//9 530//9 526//9
f 525//527 530//527 527//527
f 530//185 525//185 526//185
f 531//4 529//4 526//4
f 529//524 531//524 522//524
f 521//528 522//528 531//528
f 517//9 531//9 519//9
f 531//529 517//529 521//529
f 531//2 526//2 519//2
f 527//530 524//530 525//530
f 518//15 521//15 92//15
f 92//531 521//531 517//531
f 513//16 518//16 92//16
f 517//531 100//531 92//531
f 99//2 100//2 515//2
f 515//2 532//2 99//2
f 534//532 532//532 515//532
f 505//533 533//533 515//533
f 515//534 533//534 534//534
f 515//535 506//535 505//535
f 102//536 537//536 534//536
f 102//16 534//16 533//16
f 537//16 535//16 534//16
f 534//537 535//537 536//537
f 536//538 532//538 534//538
f 537//464 538//464 535//464
f 538//539 537//539 539//539
f 539//540 537//540 102//540
f 532//9 536//9 539//9
f 532//9 539//9 99//9
f 102//541 99//541 539//541
f 539//539 540//539 538//539
f 536//9 540//9 539//9
f 536//2 541//2 540//2
f 538//542 540//542 541//542
f 541//542 542//542 538//542
f 543//543 542//543 541//543
f 536//2 544//2 541//2
f 541//544 545//544 543//544
f 544//296 545//296 541//296
f 544//92 546//92 545//92
f 543//545 545//545 546//545
f 547//546 548//546 546//546
f 546//547 544//547 547//547
f 546//548 548//548 543//548
f 543//549 548//549 547//549
f 542//265 543//265 547//265
f 542//464 547//464 535//464
f 535//550 547//550 544//550
f 544//551 536//551 535//551
f 538//15 542//15 535//15
f 102//15 533//15 505//15
f 511//16 509//16 92//16
f 549//16 511//16 92//16
f 510//552 511//552 549//552
f 549//552 550//552 510//552
f 550//553 549//553 128//553
f 92//120 128//120 549//120
f 181//9 550//9 132//9
f 128//553 132//553 550//553
f 181//2 510//2 550//2
f 181//2 183//2 510//2
f 102//16 502//16 499//16
f 197//2 498//2 188//2
f 498//554 197//554 210//554
f 498//2 185//2 188//2
f 208//555 118//555 114//555
f 136//9 181//9 132//9
f 123//117 175//117 124//117
f 168//556 164//556 126//556
f 165//2 158//2 157//2
f 165//2 154//2 158//2
f 165//2 151//2 154//2
f 164//557 160//557 126//557
f 130//558 126//558 160//558
f 153//16 149//16 130//16
f 151//2 135//2 147//2
f 135//4 144//4 147//4
f 142//140 551//140 130//140
f 138//559 551//559 142//559
f 551//560 139//560 130//560
f 139//561 551//561 138//561
f 138//561 140//561 139//561
f 136//2 132//2 133//2
f 92//562 94//562 128//562
f 58//223 108//223 35//223
f 60//563 108//563 58//563
f 64//564 97//564 63//564
f 31//565 71//565 69//565
f 69//566 552//566 31//566
f 552//16 69//16 553//16
f 553//567 69//567 554//567
f 554//568 69//568 68//568
f 33//9 29//9 554//9
f 33//9 554//9 38//9
f 29//2 555//2 554//2
f 68//569 38//569 554//569
f 554//570 555//570 553//570
f 3//2 556//2 555//2
f 29//4 3//4 555//4
f 553//571 555//571 556//571
f 556//571 557//571 553//571
f 557//572 556//572 558//572
f 559//9 558//9 556//9
f 6//3 559//3 556//3
f 3//4 6//4 556//4
f 559//2 561//2 558//2
f 561//573 559//573 560//573
f 560//574 559//574 6//574
f 561//575 562//575 563//575
f 560//573 562//573 561//573
f 561//2 564//2 558//2
f 563//575 564//575 561//575
f 564//2 565//2 566//2
f 565//576 564//576 563//576
f 564//2 566//2 558//2
f 565//2 567//2 566//2
f 569//577 566//577 567//577
f 568//578 558//578 566//578
f 566//578 569//578 568//578
f 568//16 569//16 563//16
f 569//16 570//16 571//16
f 567//579 570//579 569//579
f 569//16 571//16 563//16
f 565//580 571//580 572//580
f 563//581 571//581 565//581
f 570//16 572//16 571//16
f 573//16 574//16 572//16
f 570//15 573//15 572//15
f 572//582 574//582 576//582
f 572//583 575//583 565//583
f 576//584 575//584 572//584
f 575//2 576//2 577//2
f 573//585 577//585 576//585
f 576//586 574//586 573//586
f 575//9 577//9 567//9
f 570//587 567//587 577//587
f 577//588 573//588 570//588
f 565//2 575//2 567//2
f 557//15 568//15 560//15
f 558//572 568//572 557//572
f 568//15 562//15 560//15
f 568//16 563//16 562//16
f 557//15 560//15 552//15
f 6//589 552//589 560//589
f 553//16 557//16 552//16
f 552//590 6//590 7//590
f 7//591 578//591 552//591
f 552//465 578//465 5//465
f 5//592 31//592 552//592
f 5//593 578//593 7//593
f 40//594 38//594 68//594
f 65//595 61//595 43//595
f 42//2 43//2 61//2
f 56//9 42//9 61//9
f 579//15 580//15 53//15
f 52//15 579//15 53//15
f 580//16 582//16 53//16
f 53//596 582//596 581//596
f 581//596 50//596 53//596
f 582//597 580//597 583//597
f 583//598 581//598 582//598
f 583//599 580//599 579//599
f 579//600 584//600 583//600
f 50//9 583//9 584//9
f 50//2 581//2 583//2
f 49//601 584//601 579//601
f 50//2 584//2 49//2
f 579//601 52//601 49//601
f 49//602 52//602 47//602
f 47//602 46//602 49//602
