# Blender 5.0.1
# www.blender.org
mtllib left_shoulder_x_link_visual_2.mtl
o i01..leftArm.shoulder.full.003_visual.001
v 0.039377 -0.010296 -0.013011
v 0.039377 -0.008504 0.014249
v 0.039377 0.008504 -0.014248
v -0.004410 -0.010296 -0.013011
v 0.039377 0.010296 0.013013
v -0.039377 0.010296 0.013013
v -0.004410 -0.008504 0.014249
v -0.039377 0.008090 0.013158
v -0.039377 0.006298 -0.014103
v -0.039377 0.008504 -0.014248
vn 1.0000 -0.0000 -0.0000
vn -0.0000 -0.9978 0.0656
vn -0.0000 -0.0657 -0.9978
vn -0.0000 0.0656 0.9978
vn -0.0000 0.9978 -0.0656
vn -0.4295 -0.9011 0.0593
vn -1.0000 -0.0000 -0.0000
vn -0.0000 -0.0656 -0.9978
s 0
usemtl Material.389
f 1//1 5//1 2//1
f 4//2 1//2 2//2
f 4//3 3//3 1//3
f 1//1 3//1 5//1
f 2//4 5//4 7//4
f 6//5 5//5 3//5
f 7//4 5//4 6//4
f 4//2 2//2 7//2
f 7//4 6//4 8//4
f 4//6 7//6 8//6
f 4//6 8//6 9//6
f 9//7 8//7 6//7
f 9//7 6//7 10//7
f 9//8 10//8 4//8
f 6//5 3//5 10//5
f 4//3 10//3 3//3
