# Blender 5.0.1
# www.blender.org
mtllib left_shoulder_x_link_visual_1.mtl
o i01..leftArm.shoulder.full.002_visual.001
v 0.000000 -0.011110 0.189544
v 0.036757 -0.011348 0.185932
v -0.036756 -0.011347 0.185932
v 0.000000 0.035833 0.186459
v -0.001033 -0.012148 0.173753
v -0.005805 -0.012210 0.172806
v 0.003740 -0.012210 0.172806
v -0.009851 -0.012388 0.170108
v 0.007786 -0.012388 0.170108
v 0.036757 0.035596 0.182846
v -0.036757 0.035596 0.182846
v -0.072101 0.034892 0.172147
v -0.000000 0.023472 -0.001543
v -0.013504 0.033977 0.158222
v -0.012555 0.034290 0.162985
v -0.009851 0.034555 0.167023
v -0.012555 0.033663 0.153460
v -0.009851 0.033398 0.149423
v -0.012555 -0.013280 0.156547
v -0.013504 -0.012967 0.161308
v -0.012555 -0.012653 0.166070
v -0.009851 -0.013545 0.152509
v 0.000000 -0.023472 0.001543
v 0.072101 -0.012051 0.175232
v 0.104674 -0.013194 0.157860
v 0.156655 -0.016604 0.105990
v 0.174066 -0.018741 0.073487
v 0.184787 -0.021060 0.038219
v 0.184787 -0.025883 -0.035134
v 0.174065 -0.028202 -0.070402
v 0.156655 -0.030340 -0.102906
v 0.104673 -0.033750 -0.154777
v 0.072100 -0.034892 -0.172146
v 0.036756 -0.035596 -0.182845
v -0.036757 -0.035595 -0.182845
v -0.072101 -0.034892 -0.172146
v -0.104674 -0.033750 -0.154775
v -0.156655 -0.030339 -0.102905
v -0.174066 -0.028202 -0.070402
v -0.184787 -0.025883 -0.035134
v -0.184787 -0.021060 0.038219
v -0.174065 -0.018741 0.073487
v -0.156654 -0.016604 0.105991
v -0.104673 -0.013193 0.157862
v -0.072100 -0.012051 0.175232
v 0.150394 -0.022704 0.013213
v 0.146348 -0.022882 0.010515
v 0.143645 -0.023147 0.006477
v 0.142695 -0.023460 0.001716
v 0.143645 -0.023773 -0.003045
v 0.146348 -0.024039 -0.007083
v 0.150394 -0.024216 -0.009782
v 0.007786 -0.013545 0.152509
v -0.005805 -0.013722 0.149812
v 0.003740 -0.013722 0.149812
v -0.001033 -0.013785 0.148865
v -0.009852 -0.033179 -0.146093
v -0.005806 -0.033002 -0.143395
v -0.001033 -0.032939 -0.142447
v 0.003739 -0.033002 -0.143395
v 0.007785 -0.033179 -0.146093
v -0.012555 -0.033444 -0.150130
v 0.010489 -0.033444 -0.150130
v -0.150966 -0.022704 0.013213
v -0.146920 -0.022881 0.010516
v -0.144216 -0.023147 0.006479
v -0.143267 -0.023460 0.001716
v -0.144217 -0.023773 -0.003045
v -0.146920 -0.024039 -0.007083
v -0.150966 -0.024216 -0.009781
v -0.064425 -0.028649 -0.077200
v -0.063499 -0.028336 -0.072434
v -0.064472 -0.028023 -0.067676
v -0.067195 -0.027758 -0.063651
v -0.080800 -0.027585 -0.061022
v -0.071255 -0.027582 -0.060975
v -0.076032 -0.027521 -0.060050
v -0.078660 -0.019300 0.064982
v -0.073882 -0.019361 0.064060
v -0.069115 -0.019297 0.065029
v -0.065082 -0.019118 0.067748
v -0.062399 -0.018852 0.071798
v -0.061473 -0.018538 0.076566
v -0.062446 -0.018226 0.081323
v 0.064391 -0.018220 0.081421
v 0.063465 -0.018533 0.076655
v 0.064438 -0.018846 0.071897
v 0.067161 -0.019110 0.067873
v 0.071220 -0.019286 0.065196
v 0.075997 -0.019347 0.064272
v 0.080765 -0.019283 0.065243
v 0.063662 -0.028650 -0.077222
v 0.062690 -0.028338 -0.072465
v 0.063615 -0.028024 -0.067697
v 0.066299 -0.027758 -0.063646
v 0.070331 -0.027579 -0.060928
v 0.079876 -0.027576 -0.060882
v 0.075099 -0.027515 -0.059957
v 0.075099 0.019428 -0.063043
v 0.070331 0.019364 -0.064014
v 0.079876 0.019367 -0.063968
v 0.083936 0.019191 -0.066646
v 0.156654 0.016604 -0.105992
v 0.174065 0.018741 -0.073487
v 0.133224 0.014730 -0.134480
v 0.086706 0.018300 -0.080193
v 0.087632 0.018613 -0.075427
v 0.086659 0.018926 -0.070669
v 0.086659 -0.028017 -0.067583
v 0.083936 -0.027752 -0.063560
v 0.087632 -0.028330 -0.072341
v 0.086706 -0.028643 -0.077107
v 0.084023 -0.028910 -0.081158
v 0.133224 -0.032213 -0.131394
v 0.084023 0.018034 -0.084244
v 0.079990 0.017855 -0.086962
v 0.075222 0.017791 -0.087932
v 0.079990 -0.029088 -0.083876
v 0.104673 0.013193 -0.157861
v 0.072100 0.012051 -0.175234
v 0.066386 0.018028 -0.084330
v 0.070445 0.017852 -0.087009
v 0.063662 0.018293 -0.080306
v 0.062690 0.018605 -0.075551
v 0.063615 0.018919 -0.070783
v 0.066299 0.019185 -0.066731
v 0.070445 -0.029091 -0.083924
v 0.066386 -0.028915 -0.081246
v 0.075222 -0.029152 -0.084846
v 0.036756 0.011348 -0.185932
v 0.000000 0.011110 -0.189545
v 0.010489 0.013499 -0.153215
v 0.011438 0.013186 -0.157980
v 0.010489 0.012872 -0.162743
v 0.007785 0.012607 -0.166780
v 0.007785 -0.034336 -0.163692
v 0.003739 0.012430 -0.169477
v 0.010489 -0.034071 -0.159656
v 0.011438 -0.033758 -0.154894
v 0.003739 -0.034514 -0.166389
v -0.001033 0.012367 -0.170425
v -0.001033 -0.034576 -0.167338
v -0.005806 0.012430 -0.169477
v -0.005806 -0.034514 -0.166389
v -0.009852 -0.034336 -0.163692
v -0.000000 -0.035833 -0.186458
v -0.012555 -0.034071 -0.159656
v -0.009852 0.012607 -0.166780
v -0.012555 0.012872 -0.162743
v -0.036756 0.011348 -0.185932
v -0.072100 0.012051 -0.175234
v -0.012555 0.013499 -0.153217
v -0.013505 0.013186 -0.157980
v -0.013505 -0.033758 -0.154894
v -0.009852 0.013764 -0.149179
v -0.005806 0.013942 -0.146483
v -0.001033 0.014004 -0.145535
v 0.003739 0.013942 -0.146483
v 0.007785 0.013764 -0.149178
v -0.104673 0.013194 -0.157861
v -0.133224 0.014731 -0.134481
v -0.075909 0.017785 -0.088026
v -0.071141 0.017849 -0.087053
v -0.067109 0.018028 -0.084336
v -0.064425 0.018294 -0.080285
v -0.080686 0.017846 -0.087101
v -0.133224 -0.032212 -0.131394
v -0.080686 -0.029097 -0.084016
v -0.084745 -0.028921 -0.081338
v -0.087469 -0.028656 -0.077314
v -0.087469 0.018287 -0.080400
v -0.088441 -0.028344 -0.072556
v -0.084745 0.018022 -0.084424
v -0.088441 0.018599 -0.075643
v -0.087516 -0.028030 -0.067788
v -0.087516 0.018913 -0.070874
v -0.084832 -0.027764 -0.063738
v -0.084832 0.019179 -0.066823
v -0.080800 0.019358 -0.064108
v -0.156654 0.016604 -0.105994
v -0.174065 0.018741 -0.073489
v -0.184787 0.021060 -0.038222
v -0.188407 0.023472 -0.001543
v -0.164557 0.022905 -0.010169
v -0.160511 0.022727 -0.012867
v -0.150966 0.022727 -0.012867
v -0.155738 0.022665 -0.013813
v -0.188407 -0.023471 0.001543
v -0.164557 -0.022881 0.010516
v -0.167260 -0.023147 0.006479
v -0.168210 -0.023460 0.001716
v -0.167260 -0.023773 -0.003045
v -0.164557 -0.024039 -0.007083
v -0.160511 -0.024216 -0.009781
v -0.155738 -0.024278 -0.010728
v -0.167260 0.023170 -0.006131
v -0.168210 0.023483 -0.001369
v -0.167260 0.023796 0.003393
v -0.164557 0.024062 0.007430
v -0.160511 0.024239 0.010127
v -0.184787 0.025884 0.035134
v -0.160511 -0.022704 0.013213
v -0.155738 -0.022642 0.014162
v -0.155738 0.024302 0.011076
v -0.150966 0.024239 0.010127
v -0.146920 0.024062 0.007430
v -0.144216 0.023796 0.003393
v -0.143267 0.023483 -0.001369
v -0.144217 0.023170 -0.006131
v -0.146920 0.022905 -0.010169
v -0.174066 0.028202 0.070402
v -0.156655 0.030339 0.102904
v -0.133225 0.032213 0.131393
v -0.078660 0.027643 0.061896
v -0.082719 0.027819 0.064574
v -0.085442 0.028084 0.068599
v -0.086415 0.028396 0.073356
v -0.085489 0.028710 0.078123
v -0.133224 -0.014731 0.134480
v -0.082806 -0.017967 0.085259
v -0.085489 -0.018233 0.081209
v -0.078773 -0.017788 0.087978
v -0.074006 -0.017724 0.088947
v -0.078773 0.029155 0.084892
v -0.082806 0.028976 0.082174
v -0.074006 0.029219 0.085862
v -0.104674 0.033750 0.154774
v -0.062446 0.028717 0.078238
v -0.065169 0.028982 0.082261
v -0.069228 0.029158 0.084939
v -0.069228 -0.017785 0.088024
v -0.065169 -0.017961 0.085346
v -0.061473 0.028405 0.073480
v -0.062399 0.028091 0.068712
v -0.065082 0.027825 0.064663
v -0.069115 0.027646 0.061943
v -0.073883 0.027582 0.060974
v -0.086415 -0.018547 0.076442
v -0.085442 -0.018859 0.071685
v -0.082719 -0.019124 0.067660
v -0.076032 0.019422 -0.063135
v -0.071255 0.019361 -0.064061
v -0.067195 0.019185 -0.066737
v -0.064472 0.018920 -0.070762
v -0.063499 0.018607 -0.075521
v -0.075909 -0.029158 -0.084939
v -0.071141 -0.029094 -0.083967
v -0.067109 -0.028915 -0.081251
v 0.184787 0.021060 -0.038220
v 0.188407 0.023471 -0.001543
v 0.163985 0.022904 -0.010169
v 0.150394 0.022727 -0.012868
v 0.159939 0.022727 -0.012868
v 0.155167 0.022665 -0.013813
v 0.188407 -0.023472 0.001543
v 0.163985 -0.022882 0.010515
v 0.166689 -0.023147 0.006477
v 0.167638 -0.023460 0.001716
v 0.166689 -0.023773 -0.003045
v 0.163985 -0.024039 -0.007083
v 0.159939 -0.024216 -0.009782
v 0.155167 -0.024279 -0.010728
v 0.166689 0.023170 -0.006131
v 0.167638 0.023483 -0.001369
v 0.166689 0.023796 0.003391
v 0.163985 0.024061 0.007429
v 0.159939 0.024239 0.010127
v 0.184787 0.025883 0.035134
v 0.159939 -0.022704 0.013213
v 0.155167 -0.022642 0.014160
v 0.155167 0.024301 0.011074
v 0.150394 0.024239 0.010127
v 0.146348 0.024061 0.007429
v 0.143645 0.023796 0.003391
v 0.142695 0.023483 -0.001369
v 0.143645 0.023170 -0.006131
v 0.146348 0.022904 -0.010169
v 0.174066 0.028202 0.070402
v 0.156655 0.030339 0.102904
v 0.133224 0.032212 0.131393
v 0.080765 0.027660 0.062157
v 0.084798 0.027839 0.064875
v 0.087481 0.028105 0.068923
v 0.088407 0.028418 0.073693
v 0.087434 0.028731 0.078450
v 0.133224 -0.014731 0.134480
v 0.084711 -0.017947 0.085558
v 0.087434 -0.018212 0.081534
v 0.080651 -0.017771 0.088237
v 0.075874 -0.017711 0.089160
v 0.080651 0.029172 0.085151
v 0.084711 0.028996 0.082473
v 0.075874 0.029233 0.086075
v 0.104674 0.033750 0.154774
v 0.072101 0.034892 0.172147
v 0.064391 0.028724 0.078336
v 0.067074 0.028990 0.082386
v 0.071107 0.029169 0.085104
v 0.071107 -0.017774 0.088190
v 0.067074 -0.017953 0.085472
v 0.063465 0.028410 0.073569
v 0.064438 0.028097 0.068811
v 0.067161 0.027833 0.064787
v 0.071220 0.027657 0.062110
v 0.075997 0.027596 0.061186
v 0.088407 -0.018525 0.076778
v 0.087481 -0.018838 0.072009
v 0.084798 -0.019105 0.067960
v -0.001033 0.033158 0.145779
v -0.005805 0.033221 0.146726
v 0.003740 0.033221 0.146726
v 0.007786 0.033398 0.149423
v 0.010489 0.033663 0.153460
v 0.010489 -0.013280 0.156547
v 0.011438 -0.012967 0.161308
v 0.011438 0.033977 0.158222
v 0.010489 -0.012653 0.166070
v 0.010489 0.034290 0.162985
v 0.007786 0.034555 0.167023
v 0.003740 0.034733 0.169720
v -0.001033 0.034795 0.170667
v -0.005805 0.034733 0.169720
vn -0.0000 -0.9978 0.0656
vn 0.0980 0.0653 0.9930
vn -0.0980 0.0653 0.9930
vn -0.2903 0.0628 0.9549
vn -0.0000 0.9978 -0.0656
vn 0.8315 0.0364 0.5543
vn -0.0001 0.9978 -0.0656
vn 0.9808 0.0128 0.1947
vn 0.9808 -0.0128 -0.1947
vn 0.8315 -0.0364 -0.5543
vn -0.0001 -0.9978 0.0657
vn -0.0001 -0.9978 0.0656
vn -0.1905 -0.0644 -0.9796
vn 0.2001 -0.0643 -0.9777
vn -0.5515 -0.0547 -0.8324
vn -0.0000 0.9978 -0.0657
vn 0.8819 -0.0309 -0.4704
vn 0.7730 -0.0416 -0.6330
vn -0.8287 -0.0367 -0.5585
vn -0.9798 -0.0131 -0.1995
vn -0.9817 0.0125 0.1899
vn -0.8343 0.0362 0.5502
vn -0.8342 0.0362 0.5503
vn -0.5597 0.0544 0.8269
vn -0.1997 0.0643 0.9777
vn 0.6344 -0.0507 -0.7713
vn 0.4714 -0.0578 -0.8800
vn 0.8287 0.0367 0.5585
vn 0.9798 0.0131 0.1996
vn 0.9798 0.0131 0.1995
vn 0.9818 -0.0125 -0.1898
vn 0.8342 -0.0362 -0.5502
vn 0.8342 -0.0362 -0.5503
vn 0.5596 -0.0544 -0.8270
vn 0.5597 -0.0543 -0.8269
vn 0.1899 0.0644 0.9797
vn 0.5518 0.0547 0.8322
vn 0.5515 0.0547 0.8324
vn 0.8287 0.0367 0.5584
vn -0.1999 0.0643 0.9777
vn 0.2903 -0.0628 -0.9549
vn 0.4713 -0.0579 -0.8801
vn 0.0980 -0.0653 -0.9930
vn 0.0001 0.9978 -0.0656
vn -0.5556 0.0546 0.8296
vn -0.8314 0.0365 0.5544
vn -0.9808 0.0128 0.1947
vn -0.9808 -0.0128 -0.1946
vn -0.9808 0.0128 0.1946
vn -0.1952 0.0644 0.9786
vn -0.5555 0.0546 0.8297
vn 0.1954 0.0644 0.9786
vn -0.1954 0.0644 0.9786
vn 0.1952 0.0644 0.9786
vn 0.5555 0.0546 0.8297
vn -0.0980 -0.0653 -0.9930
vn 0.8315 0.0365 0.5544
vn 0.5556 0.0546 0.8297
vn -0.2903 -0.0628 -0.9549
vn 0.9808 0.0128 0.1946
vn 0.9808 -0.0128 -0.1946
vn 0.8315 -0.0365 -0.5544
vn 0.5556 -0.0545 -0.8297
vn 0.5553 -0.0546 -0.8298
vn 0.1952 -0.0644 -0.9786
vn 0.1954 -0.0644 -0.9786
vn -0.1954 -0.0644 -0.9786
vn -0.5552 -0.0546 -0.8299
vn -0.1952 -0.0644 -0.9786
vn -0.8314 -0.0364 -0.5544
vn -0.5556 -0.0545 -0.8296
vn -0.4714 -0.0578 -0.8800
vn -0.4714 -0.0579 -0.8800
vn -0.6344 -0.0507 -0.7714
vn -0.6344 -0.0507 -0.7713
vn -0.7730 -0.0416 -0.6330
vn 0.9798 0.0131 0.1994
vn 0.5514 0.0547 0.8325
vn 0.8343 -0.0362 -0.5502
vn 0.5595 -0.0544 -0.8271
vn -0.0001 -0.9978 0.0658
vn 0.5593 -0.0544 -0.8272
vn 0.0002 0.9978 -0.0659
vn -0.8819 -0.0309 -0.4704
vn -0.9569 -0.0191 -0.2897
vn -0.9569 -0.0190 -0.2897
vn -0.9952 -0.0064 -0.0978
vn -0.0000 0.9978 -0.0655
vn -0.9952 0.0064 0.0978
vn 0.5556 0.0545 0.8297
vn 0.1948 0.0643 0.9787
vn 0.1950 0.0643 0.9787
vn -0.1950 0.0643 0.9787
vn 0.8314 -0.0364 -0.5544
vn 0.5555 -0.0545 -0.8297
vn 0.1954 -0.0643 -0.9786
vn -0.1954 -0.0643 -0.9786
vn -0.0000 -0.9978 0.0657
vn -0.5555 -0.0545 -0.8297
vn -0.8315 -0.0364 -0.5544
vn -0.8315 0.0364 0.5543
vn -0.5556 0.0545 0.8296
vn -0.9569 0.0190 0.2897
vn -0.8819 0.0309 0.4704
vn -0.7730 0.0416 0.6330
vn 0.0001 0.9979 -0.0655
vn -0.6344 0.0507 0.7713
vn 0.5599 -0.0543 -0.8268
vn 0.1996 -0.0643 -0.9778
vn 0.5597 -0.0544 -0.8269
vn 0.1998 -0.0643 -0.9777
vn -0.4714 0.0578 0.8800
vn -0.4713 0.0579 0.8801
vn 0.0001 0.9978 -0.0655
vn -0.1901 -0.0644 -0.9796
vn -0.5600 0.0543 0.8267
vn -0.1996 0.0643 0.9778
vn -0.5599 0.0544 0.8268
vn 0.9817 -0.0125 -0.1898
vn 0.8288 0.0367 0.5584
vn -0.1948 0.0643 0.9787
vn 0.2003 -0.0642 -0.9776
vn -0.1907 -0.0644 -0.9795
vn -0.5512 -0.0547 -0.8326
vn -0.8288 -0.0367 -0.5584
vn -0.9798 -0.0131 -0.1994
vn 0.1905 0.0644 0.9796
vn 0.1901 0.0644 0.9796
vn -0.2001 0.0643 0.9777
vn -0.2003 0.0643 0.9776
vn -0.5595 0.0544 0.8271
vn -0.5596 0.0543 0.8270
vn -0.8342 0.0362 0.5502
vn 0.0001 -0.9978 0.0656
vn 0.9569 -0.0190 -0.2897
vn 0.9952 -0.0064 -0.0978
vn 0.9952 0.0064 0.0978
vn -0.5558 0.0545 0.8296
vn -0.1949 0.0643 0.9787
vn -0.1947 0.0643 0.9788
vn -0.9808 -0.0128 -0.1947
vn -0.8315 -0.0364 -0.5543
vn -0.1950 -0.0643 -0.9787
vn 0.1950 -0.0643 -0.9787
vn 0.5556 -0.0545 -0.8296
vn 0.9808 -0.0128 -0.1948
vn 0.9808 0.0128 0.1948
vn 0.5558 0.0545 0.8295
vn 0.9569 0.0190 0.2897
vn 0.8819 0.0309 0.4704
vn 0.7730 0.0416 0.6330
vn 0.6344 0.0507 0.7713
vn -0.5516 -0.0547 -0.8323
vn -0.8286 -0.0367 -0.5586
vn -0.1903 -0.0644 -0.9796
vn 0.4714 0.0578 0.8800
vn 0.4714 0.0579 0.8800
vn -0.0002 0.9979 -0.0655
vn 0.1999 -0.0643 -0.9777
vn 0.9817 -0.0125 -0.1899
vn 0.1903 0.0644 0.9796
vn 0.2903 0.0628 0.9549
vn -0.9798 -0.0131 -0.1996
vn -0.9817 0.0125 0.1898
vn -0.9818 0.0125 0.1897
vn -0.8341 0.0362 0.5504
vn -0.8341 0.0362 0.5505
vn -0.5596 0.0544 0.8270
vn -0.5597 0.0543 0.8269
vn 0.1947 0.0643 0.9788
vn -0.5555 0.0545 0.8297
vn 0.0001 -0.9979 0.0655
vn 0.5555 0.0545 0.8297
vn -0.2903 0.0627 0.9549
s 0
usemtl Material.390
f 2//1 1//1 9//1
f 1//2 2//2 10//2
f 1//3 11//3 3//3
f 8//1 1//1 3//1
f 1//2 10//2 4//2
f 1//3 4//3 11//3
f 7//1 1//1 5//1
f 5//1 1//1 6//1
f 6//1 1//1 8//1
f 9//1 1//1 7//1
f 12//4 3//4 11//4
f 13//5 12//5 11//5
f 11//5 17//5 13//5
f 16//5 11//5 4//5
f 11//5 14//5 17//5
f 15//5 14//5 11//5
f 16//5 15//5 11//5
f 19//6 18//6 17//6
f 18//7 13//7 17//7
f 20//8 17//8 14//8
f 20//8 19//8 17//8
f 21//9 20//9 14//9
f 21//1 3//1 20//1
f 3//1 19//1 20//1
f 21//9 14//9 15//9
f 8//10 21//10 15//10
f 8//1 3//1 21//1
f 22//1 19//1 23//1
f 19//6 22//6 18//6
f 3//1 23//1 19//1
f 53//1 23//1 2//1
f 23//1 24//1 2//1
f 23//1 25//1 24//1
f 85//1 25//1 23//1
f 26//1 91//1 23//1
f 23//1 27//1 26//1
f 23//1 28//1 27//1
f 28//1 23//1 46//1
f 23//1 29//1 52//1
f 23//1 30//1 29//1
f 23//1 31//1 30//1
f 31//1 23//1 97//1
f 32//1 92//1 23//1
f 23//1 33//1 32//1
f 23//1 34//1 33//1
f 23//1 63//1 34//1
f 23//1 35//1 62//1
f 23//1 36//1 35//1
f 23//1 37//1 36//1
f 37//1 23//1 71//1
f 38//1 75//1 23//1
f 23//1 39//1 38//1
f 23//1 40//1 39//1
f 23//1 70//1 40//1
f 41//1 64//1 23//1
f 23//1 42//1 41//1
f 23//1 43//1 42//1
f 78//1 43//1 23//1
f 44//1 84//1 23//1
f 23//1 45//1 44//1
f 23//1 3//1 45//1
f 47//1 46//1 23//1
f 48//1 47//1 23//1
f 49//1 48//1 23//1
f 50//1 49//1 23//1
f 50//1 23//1 51//1
f 23//1 52//1 51//1
f 54//1 22//1 23//1
f 23//1 53//1 55//1
f 56//1 54//1 23//1
f 23//1 55//1 56//1
f 23//1 62//1 57//1
f 58//1 23//1 57//1
f 59//1 23//1 58//1
f 60//1 23//1 59//1
f 61//1 23//1 60//1
f 23//1 61//1 63//1
f 23//1 64//1 65//1
f 23//1 65//1 66//1
f 23//1 66//1 67//1
f 23//1 67//1 68//1
f 69//1 23//1 68//1
f 23//1 69//1 70//1
f 23//1 72//1 71//1
f 23//1 73//1 72//1
f 23//1 74//1 73//1
f 23//1 76//1 74//1
f 77//11 23//11 75//11
f 23//1 77//1 76//1
f 79//1 78//1 23//1
f 80//1 79//1 23//1
f 81//1 80//1 23//1
f 82//1 81//1 23//1
f 83//1 82//1 23//1
f 84//12 83//12 23//12
f 86//1 85//1 23//1
f 87//1 86//1 23//1
f 88//1 87//1 23//1
f 89//1 88//1 23//1
f 90//1 89//1 23//1
f 91//1 90//1 23//1
f 93//1 23//1 92//1
f 94//1 23//1 93//1
f 95//1 23//1 94//1
f 96//1 23//1 95//1
f 98//1 23//1 96//1
f 23//1 98//1 97//1
f 101//13 98//13 99//13
f 98//14 100//14 99//14
f 101//13 97//13 98//13
f 98//14 96//14 100//14
f 13//5 101//5 99//5
f 102//15 97//15 101//15
f 103//16 102//16 101//16
f 103//5 101//5 13//5
f 30//17 103//17 104//17
f 13//5 104//5 103//5
f 31//18 105//18 103//18
f 106//5 103//5 105//5
f 30//17 31//17 103//17
f 107//5 103//5 106//5
f 108//5 103//5 107//5
f 102//5 103//5 108//5
f 108//19 110//19 102//19
f 107//20 109//20 108//20
f 108//19 109//19 110//19
f 102//15 110//15 97//15
f 110//1 109//1 31//1
f 31//1 97//1 110//1
f 109//1 111//1 31//1
f 107//20 111//20 109//20
f 106//21 111//21 107//21
f 111//1 112//1 31//1
f 106//21 112//21 111//21
f 115//22 112//22 106//22
f 112//1 113//1 114//1
f 115//23 113//23 112//23
f 112//1 114//1 31//1
f 106//5 105//5 115//5
f 116//24 113//24 115//24
f 115//5 105//5 116//5
f 117//25 118//25 116//25
f 119//5 117//5 116//5
f 116//24 118//24 113//24
f 119//5 116//5 105//5
f 114//26 119//26 105//26
f 119//5 13//5 123//5
f 13//5 119//5 120//5
f 32//27 120//27 119//27
f 114//26 32//26 119//26
f 119//5 123//5 121//5
f 122//5 119//5 121//5
f 117//5 119//5 122//5
f 92//28 121//28 123//28
f 93//29 123//29 124//29
f 124//5 123//5 13//5
f 93//30 92//30 123//30
f 94//31 124//31 125//31
f 125//5 124//5 13//5
f 94//31 93//31 124//31
f 95//32 125//32 126//32
f 126//5 125//5 13//5
f 95//33 94//33 125//33
f 96//34 126//34 100//34
f 100//5 126//5 13//5
f 96//35 95//35 126//35
f 127//36 117//36 122//36
f 128//37 122//37 121//37
f 128//38 127//38 122//38
f 92//39 128//39 121//39
f 127//1 128//1 32//1
f 32//1 128//1 92//1
f 129//1 127//1 32//1
f 127//36 129//36 117//36
f 117//40 129//40 118//40
f 32//1 118//1 129//1
f 13//5 120//5 130//5
f 33//41 130//41 120//41
f 32//42 33//42 120//42
f 13//5 130//5 132//5
f 34//43 131//43 130//43
f 135//5 130//5 131//5
f 33//41 34//41 130//41
f 130//44 133//44 132//44
f 130//5 134//5 133//5
f 130//5 135//5 134//5
f 137//45 136//45 135//45
f 135//46 136//46 138//46
f 135//5 131//5 137//5
f 135//46 138//46 134//46
f 34//1 139//1 138//1
f 134//47 138//47 139//47
f 34//1 138//1 136//1
f 34//1 63//1 139//1
f 133//48 139//48 63//48
f 134//49 139//49 133//49
f 141//50 140//50 137//50
f 137//51 140//51 136//51
f 137//5 131//5 141//5
f 144//52 142//52 141//52
f 141//53 142//53 140//53
f 144//54 141//54 143//54
f 143//5 141//5 131//5
f 144//1 146//1 142//1
f 144//1 145//1 35//1
f 145//55 144//55 143//55
f 144//1 35//1 146//1
f 136//1 146//1 34//1
f 34//43 146//43 131//43
f 131//56 146//56 35//56
f 140//1 142//1 146//1
f 136//1 140//1 146//1
f 145//1 147//1 35//1
f 147//57 145//57 148//57
f 145//58 143//58 148//58
f 147//57 148//57 149//57
f 148//5 150//5 149//5
f 143//5 150//5 148//5
f 131//56 35//56 150//56
f 143//5 131//5 150//5
f 13//5 152//5 150//5
f 13//5 150//5 151//5
f 150//59 36//59 151//59
f 150//59 35//59 36//59
f 153//5 150//5 152//5
f 149//5 150//5 153//5
f 154//60 149//60 153//60
f 62//61 154//61 153//61
f 62//61 153//61 152//61
f 147//1 154//1 35//1
f 154//8 147//8 149//8
f 154//1 62//1 35//1
f 57//62 62//62 152//62
f 57//10 152//10 155//10
f 13//5 155//5 152//5
f 58//63 57//63 155//63
f 58//64 155//64 156//64
f 156//5 155//5 13//5
f 59//65 58//65 156//65
f 59//66 156//66 157//66
f 157//5 156//5 13//5
f 158//67 59//67 157//67
f 158//5 157//5 13//5
f 159//68 60//68 158//68
f 158//69 60//69 59//69
f 159//44 158//44 13//44
f 132//70 61//70 159//70
f 159//71 61//71 60//71
f 13//5 132//5 159//5
f 13//5 151//5 160//5
f 151//72 37//72 160//72
f 151//73 36//73 37//73
f 160//5 165//5 13//5
f 160//74 167//74 161//74
f 160//5 161//5 166//5
f 160//75 37//75 167//75
f 160//5 166//5 162//5
f 163//5 160//5 162//5
f 164//5 160//5 163//5
f 160//7 164//7 165//7
f 37//1 168//1 167//1
f 170//1 38//1 167//1
f 161//76 167//76 38//76
f 169//1 167//1 168//1
f 170//1 167//1 169//1
f 170//28 173//28 171//28
f 172//77 170//77 171//77
f 170//1 172//1 38//1
f 170//28 169//28 173//28
f 171//5 173//5 161//5
f 169//78 166//78 173//78
f 173//5 166//5 161//5
f 172//77 171//77 174//77
f 175//31 172//31 174//31
f 172//1 175//1 38//1
f 175//31 174//31 176//31
f 177//33 175//33 176//33
f 175//1 177//1 38//1
f 177//79 176//79 178//79
f 75//80 177//80 178//80
f 38//81 177//81 75//81
f 176//5 180//5 178//5
f 75//82 178//82 179//82
f 180//83 179//83 178//83
f 161//76 38//76 180//76
f 171//5 161//5 180//5
f 180//5 13//5 179//5
f 13//5 180//5 181//5
f 180//84 39//84 181//84
f 180//84 38//84 39//84
f 174//5 180//5 176//5
f 171//5 180//5 174//5
f 13//5 181//5 182//5
f 181//85 40//85 182//85
f 181//86 39//86 40//86
f 13//5 182//5 186//5
f 182//87 188//87 183//87
f 183//5 184//5 182//5
f 182//87 40//87 188//87
f 185//5 182//5 184//5
f 187//5 182//5 185//5
f 182//88 187//88 186//88
f 188//1 40//1 193//1
f 41//1 188//1 189//1
f 183//89 188//89 41//89
f 190//1 189//1 188//1
f 191//1 190//1 188//1
f 192//1 191//1 188//1
f 188//1 193//1 192//1
f 193//90 185//90 184//90
f 192//6 193//6 184//6
f 194//1 193//1 40//1
f 193//90 194//90 185//90
f 194//91 187//91 185//91
f 195//1 194//1 40//1
f 194//92 195//92 187//92
f 187//93 195//93 70//93
f 40//1 70//1 195//1
f 192//6 184//6 196//6
f 191//8 192//8 196//8
f 183//5 196//5 184//5
f 191//8 196//8 197//8
f 196//5 183//5 197//5
f 190//9 197//9 198//9
f 197//5 183//5 198//5
f 190//9 191//9 197//9
f 189//94 198//94 199//94
f 198//5 183//5 199//5
f 189//94 190//94 198//94
f 202//95 199//95 200//95
f 201//5 200//5 199//5
f 202//95 189//95 199//95
f 201//5 199//5 183//5
f 203//96 202//96 200//96
f 203//1 41//1 202//1
f 41//1 189//1 202//1
f 205//97 203//97 204//97
f 203//96 200//96 204//96
f 41//98 203//98 64//98
f 205//97 64//97 203//97
f 201//16 205//16 204//16
f 206//99 64//99 205//99
f 13//5 206//5 205//5
f 201//5 13//5 205//5
f 207//100 65//100 206//100
f 13//5 207//5 206//5
f 206//99 65//99 64//99
f 208//48 66//48 207//48
f 13//5 208//5 207//5
f 207//100 66//100 65//100
f 209//47 67//47 208//47
f 13//5 209//5 208//5
f 208//48 67//48 66//48
f 210//101 68//101 209//101
f 210//5 209//5 13//5
f 209//47 68//47 67//47
f 186//102 69//102 210//102
f 13//5 186//5 210//5
f 210//101 69//101 68//101
f 204//5 200//5 201//5
f 183//89 41//89 201//89
f 13//5 201//5 211//5
f 201//103 42//103 211//103
f 201//103 41//103 42//103
f 13//5 211//5 212//5
f 211//104 43//104 212//104
f 211//104 42//104 43//104
f 214//5 13//5 212//5
f 212//105 219//105 213//105
f 218//5 212//5 213//5
f 212//105 43//105 219//105
f 215//106 214//106 212//106
f 216//5 215//5 212//5
f 217//5 216//5 212//5
f 218//5 217//5 212//5
f 221//1 219//1 43//1
f 222//1 44//1 219//1
f 213//107 219//107 44//107
f 222//1 219//1 220//1
f 221//1 220//1 219//1
f 222//108 220//108 225//108
f 222//1 223//1 44//1
f 223//109 222//109 224//109
f 222//110 225//110 224//110
f 220//32 218//32 225//32
f 224//5 225//5 213//5
f 218//5 213//5 225//5
f 223//111 224//111 226//111
f 224//5 227//5 226//5
f 224//5 213//5 227//5
f 213//107 44//107 227//107
f 227//5 13//5 228//5
f 13//5 227//5 12//5
f 227//112 45//112 12//112
f 227//113 44//113 45//113
f 227//114 228//114 229//114
f 227//5 229//5 230//5
f 227//5 230//5 226//5
f 229//15 231//15 230//15
f 230//115 231//115 223//115
f 230//115 223//115 226//115
f 44//1 223//1 231//1
f 44//1 231//1 232//1
f 229//15 232//15 231//15
f 44//12 232//12 84//12
f 228//19 84//19 232//19
f 228//19 232//19 229//19
f 233//20 84//20 228//20
f 228//5 13//5 233//5
f 234//21 83//21 233//21
f 233//20 83//20 84//20
f 233//5 13//5 234//5
f 235//23 82//23 234//23
f 234//21 82//21 83//21
f 234//5 13//5 235//5
f 236//116 81//116 235//116
f 235//23 81//23 82//23
f 235//5 13//5 236//5
f 237//117 80//117 236//117
f 236//118 80//118 81//118
f 236//5 13//5 237//5
f 237//117 79//117 80//117
f 78//36 79//36 237//36
f 78//36 237//36 214//36
f 237//5 13//5 214//5
f 221//1 43//1 238//1
f 221//119 238//119 217//119
f 220//33 221//33 218//33
f 221//119 217//119 218//119
f 238//1 43//1 239//1
f 238//30 239//30 216//30
f 238//30 216//30 217//30
f 239//1 43//1 240//1
f 239//120 240//120 215//120
f 239//120 215//120 216//120
f 240//1 43//1 78//1
f 240//38 78//38 214//38
f 240//38 214//38 215//38
f 187//121 70//121 186//121
f 186//102 70//102 69//102
f 77//122 179//122 241//122
f 241//16 179//16 13//16
f 77//14 75//14 179//14
f 242//123 77//123 241//123
f 13//5 242//5 241//5
f 243//124 76//124 242//124
f 13//5 243//5 242//5
f 242//13 76//13 77//13
f 244//125 74//125 243//125
f 13//5 244//5 243//5
f 243//124 74//124 76//124
f 245//20 73//20 244//20
f 13//5 245//5 244//5
f 244//125 73//125 74//125
f 165//21 72//21 245//21
f 13//5 165//5 245//5
f 245//126 72//126 73//126
f 169//38 168//38 166//38
f 168//127 162//127 166//127
f 37//1 246//1 168//1
f 168//128 246//128 162//128
f 162//129 246//129 247//129
f 247//1 246//1 37//1
f 162//130 247//130 163//130
f 163//131 247//131 248//131
f 248//1 247//1 37//1
f 163//132 248//132 164//132
f 164//133 248//133 71//133
f 37//134 71//134 248//134
f 164//133 71//133 165//133
f 165//21 71//21 72//21
f 133//48 63//48 132//48
f 132//70 63//70 61//70
f 113//1 118//1 114//1
f 32//1 114//1 118//1
f 31//18 114//18 105//18
f 29//135 104//135 249//135
f 13//5 249//5 104//5
f 29//135 30//135 104//135
f 255//136 249//136 250//136
f 250//5 249//5 251//5
f 13//5 252//5 249//5
f 255//136 29//136 249//136
f 249//5 253//5 251//5
f 254//5 249//5 252//5
f 249//5 254//5 253//5
f 28//1 256//1 255//1
f 28//137 255//137 250//137
f 255//1 260//1 29//1
f 255//1 256//1 257//1
f 255//1 257//1 258//1
f 255//1 258//1 259//1
f 255//1 259//1 260//1
f 251//101 260//101 259//101
f 29//1 260//1 261//1
f 253//138 261//138 260//138
f 253//138 260//138 251//138
f 29//1 261//1 262//1
f 254//139 262//139 261//139
f 254//140 261//140 253//140
f 262//1 52//1 29//1
f 52//91 262//91 254//91
f 263//47 259//47 258//47
f 251//101 259//101 263//101
f 250//5 251//5 263//5
f 263//47 258//47 264//47
f 250//5 263//5 264//5
f 264//141 258//141 257//141
f 264//141 257//141 265//141
f 250//5 264//5 265//5
f 265//142 257//142 256//142
f 265//142 256//142 266//142
f 250//5 265//5 266//5
f 266//71 256//71 269//71
f 266//71 269//71 267//71
f 268//5 266//5 267//5
f 268//5 250//5 266//5
f 269//1 28//1 270//1
f 267//143 269//143 270//143
f 28//1 269//1 256//1
f 28//1 46//1 270//1
f 270//144 46//144 272//144
f 270//144 272//144 271//144
f 267//143 270//143 271//143
f 46//145 273//145 272//145
f 268//5 271//5 272//5
f 273//5 13//5 272//5
f 268//5 272//5 13//5
f 47//10 274//10 273//10
f 46//145 47//145 273//145
f 274//5 13//5 273//5
f 48//146 275//146 274//146
f 47//10 48//10 274//10
f 275//5 13//5 274//5
f 49//147 276//147 275//147
f 48//146 49//146 275//146
f 276//5 13//5 275//5
f 50//6 277//6 276//6
f 49//147 50//147 276//147
f 276//5 277//5 13//5
f 51//148 252//148 277//148
f 50//6 51//6 277//6
f 13//88 277//88 252//88
f 267//5 271//5 268//5
f 27//149 268//149 278//149
f 13//5 278//5 268//5
f 28//137 250//137 268//137
f 27//149 28//149 268//149
f 26//150 278//150 279//150
f 13//5 279//5 278//5
f 26//150 27//150 278//150
f 286//151 279//151 280//151
f 285//5 280//5 279//5
f 279//5 13//5 281//5
f 286//151 26//151 279//151
f 279//88 281//88 282//88
f 279//16 282//16 283//16
f 279//5 283//5 284//5
f 279//5 284//5 285//5
f 289//1 286//1 25//1
f 25//152 286//152 280//152
f 288//1 26//1 286//1
f 289//1 287//1 286//1
f 288//1 286//1 287//1
f 289//1 25//1 290//1
f 291//115 289//115 290//115
f 292//153 287//153 289//153
f 292//15 289//15 291//15
f 285//154 287//154 292//154
f 285//5 292//5 280//5
f 291//5 280//5 292//5
f 291//155 290//155 293//155
f 291//5 293//5 294//5
f 291//5 294//5 280//5
f 24//156 294//156 295//156
f 13//5 295//5 294//5
f 296//5 13//5 294//5
f 25//152 280//152 294//152
f 24//157 25//157 294//157
f 297//158 296//158 294//158
f 298//5 297//5 294//5
f 293//5 298//5 294//5
f 299//110 297//110 298//110
f 290//111 299//111 298//111
f 290//159 298//159 293//159
f 299//1 25//1 300//1
f 299//110 300//110 297//110
f 290//1 25//1 299//1
f 300//134 25//134 85//134
f 300//32 85//32 296//32
f 300//33 296//33 297//33
f 85//119 301//119 296//119
f 301//5 13//5 296//5
f 86//30 302//30 301//30
f 85//160 86//160 301//160
f 302//5 13//5 301//5
f 87//120 303//120 302//120
f 86//30 87//30 302//30
f 303//5 13//5 302//5
f 88//78 304//78 303//78
f 304//5 13//5 303//5
f 87//120 88//120 303//120
f 89//161 305//161 304//161
f 88//78 89//78 304//78
f 305//5 13//5 304//5
f 305//40 90//40 91//40
f 89//161 90//161 305//161
f 305//40 91//40 281//40
f 281//5 13//5 305//5
f 2//162 295//162 10//162
f 13//5 10//5 295//5
f 2//162 24//162 295//162
f 285//19 288//19 287//19
f 26//1 288//1 306//1
f 284//163 306//163 288//163
f 284//20 288//20 285//20
f 26//1 306//1 307//1
f 283//164 307//164 306//164
f 283//165 306//165 284//165
f 26//1 307//1 308//1
f 282//166 308//166 307//166
f 282//167 307//167 283//167
f 26//1 308//1 91//1
f 281//168 91//168 308//168
f 281//169 308//169 282//169
f 52//170 254//170 252//170
f 51//148 52//148 252//148
f 99//5 100//5 13//5
f 309//93 56//93 55//93
f 54//92 56//92 309//92
f 54//92 309//92 310//92
f 309//5 13//5 310//5
f 309//93 55//93 311//93
f 13//5 309//5 311//5
f 311//171 53//171 312//171
f 13//5 311//5 312//5
f 311//171 55//171 53//171
f 312//101 314//101 313//101
f 13//5 312//5 313//5
f 312//101 53//101 314//101
f 313//47 314//47 315//47
f 53//172 2//172 314//172
f 2//1 315//1 314//1
f 313//47 315//47 316//47
f 316//141 315//141 317//141
f 315//1 2//1 317//1
f 316//141 317//141 318//141
f 318//142 317//142 9//142
f 317//1 2//1 9//1
f 318//142 9//142 319//142
f 318//5 319//5 10//5
f 316//5 318//5 10//5
f 319//99 7//99 320//99
f 319//5 320//5 4//5
f 319//71 9//71 7//71
f 319//5 4//5 10//5
f 320//143 5//143 321//143
f 320//5 321//5 4//5
f 320//143 7//143 5//143
f 5//144 322//144 321//144
f 322//5 4//5 321//5
f 6//95 16//95 322//95
f 16//5 4//5 322//5
f 5//144 6//144 322//144
f 10//5 313//5 316//5
f 10//5 13//5 313//5
f 22//173 310//173 18//173
f 310//5 13//5 18//5
f 22//173 54//173 310//173
f 12//174 45//174 3//174
f 8//10 15//10 16//10
f 6//145 8//145 16//145
