# Blender 5.0.1
# www.blender.org
mtllib left_wrist_z_link_visual_4.mtl
o L_RotaWrist3V3_visual.001
v 0.231077 -0.095565 -0.035103
v 0.231297 -0.093486 -0.031300
v 0.243654 -0.078109 -0.042815
v 0.243672 -0.079858 -0.046763
v 0.243612 -0.081717 -0.050664
v 0.230858 -0.097644 -0.038905
v 0.243715 -0.076249 -0.038916
v 0.231516 -0.091407 -0.027496
v 0.243696 -0.074500 -0.034966
v -0.153307 0.138199 -0.134062
v -0.153526 0.136120 -0.137865
v -0.140950 0.153576 -0.145578
v -0.140889 0.155436 -0.141678
v -0.140907 0.157185 -0.137730
v -0.153088 0.140278 -0.130260
v -0.140931 0.151827 -0.149527
v -0.153746 0.134041 -0.141668
v -0.140992 0.149968 -0.153426
v 0.229500 -0.102942 -0.045644
v 0.230179 -0.100293 -0.042274
v 0.243168 -0.094792 -0.078439
v 0.241939 -0.098796 -0.082808
v 0.241130 -0.101286 -0.085329
v 0.228821 -0.105591 -0.049013
v 0.243686 -0.086536 -0.061775
v -0.154425 0.131392 -0.145038
v -0.155104 0.128743 -0.148407
v -0.141435 0.136893 -0.181202
v -0.140917 0.145148 -0.164538
v -0.142665 0.132888 -0.185572
v -0.155782 0.126094 -0.151776
v -0.143474 0.130399 -0.188092
v 0.226596 -0.111825 -0.054627
v 0.227709 -0.108708 -0.051820
v 0.239019 -0.105351 -0.086463
v 0.238021 -0.107221 -0.086875
v 0.236566 -0.109892 -0.087387
v 0.225484 -0.114942 -0.057434
v 0.240246 -0.102997 -0.085812
v -0.156895 0.122977 -0.154583
v -0.158008 0.119860 -0.157390
v -0.145584 0.126334 -0.189226
v -0.144358 0.128687 -0.188575
v -0.146583 0.124464 -0.189638
v -0.159120 0.116743 -0.160196
v -0.148038 0.121793 -0.190149
v 0.222477 -0.121873 -0.061707
v 0.223980 -0.118407 -0.059570
v 0.232647 -0.117184 -0.089052
v 0.231144 -0.119979 -0.089672
v 0.229640 -0.122757 -0.090254
v 0.220974 -0.125338 -0.063843
v 0.234150 -0.114472 -0.088622
v -0.160623 0.113277 -0.162333
v -0.162127 0.109812 -0.164470
v -0.151957 0.114501 -0.191814
v -0.150453 0.117213 -0.191384
v -0.153460 0.111706 -0.192434
v -0.163630 0.106347 -0.166606
v -0.154963 0.108928 -0.193016
v 0.217301 -0.133301 -0.067974
v 0.219137 -0.129018 -0.065226
v 0.225968 -0.129279 -0.091125
v 0.224131 -0.132457 -0.091371
v 0.222295 -0.135635 -0.091616
v 0.215465 -0.136981 -0.069357
v 0.227804 -0.126102 -0.090878
v -0.165467 0.102667 -0.167989
v -0.167303 0.098383 -0.170737
v -0.158636 0.102405 -0.193888
v -0.156800 0.105582 -0.193642
v -0.160473 0.099227 -0.194134
v -0.169139 0.094703 -0.172120
v -0.162309 0.096049 -0.194380
v 0.211267 -0.143887 -0.069148
v 0.213366 -0.140133 -0.068570
v 0.218097 -0.142808 -0.092013
v 0.215998 -0.146311 -0.092023
v 0.213899 -0.149562 -0.091463
v 0.209168 -0.148746 -0.072228
v 0.220196 -0.139221 -0.091815
v -0.171238 0.091552 -0.171334
v -0.173337 0.087798 -0.171911
v -0.166507 0.088877 -0.194777
v -0.164408 0.092463 -0.194578
v -0.168606 0.085374 -0.194786
v -0.175436 0.082939 -0.174991
v -0.170704 0.082123 -0.194226
v 0.204607 -0.156715 -0.073092
v 0.206887 -0.154137 -0.075843
v 0.209338 -0.156734 -0.090522
v 0.207057 -0.160166 -0.089703
v 0.204777 -0.163849 -0.089452
v 0.202326 -0.161905 -0.076251
v 0.211618 -0.153162 -0.091022
v -0.177717 0.077548 -0.178605
v -0.179997 0.074970 -0.175854
v -0.175266 0.074951 -0.193285
v -0.172985 0.078523 -0.193786
v -0.177547 0.071519 -0.192465
v -0.182278 0.069780 -0.179014
v -0.179827 0.067836 -0.192214
v 0.197576 -0.170957 -0.078889
v 0.199951 -0.165376 -0.075183
v 0.200027 -0.170791 -0.087315
v 0.197652 -0.174263 -0.086246
v 0.195277 -0.177566 -0.084799
v 0.195201 -0.174429 -0.077821
v 0.202402 -0.167320 -0.088384
v -0.184653 0.066308 -0.177945
v -0.187028 0.060727 -0.181652
v -0.184577 0.060893 -0.190077
v -0.182202 0.064365 -0.191146
v -0.186952 0.057422 -0.189009
v -0.189403 0.057256 -0.180584
v -0.189327 0.054119 -0.187561
v 0.190446 -0.180680 -0.074129
v 0.192823 -0.177554 -0.075975
v 0.190521 -0.183985 -0.081486
v 0.188144 -0.187111 -0.079639
v 0.185766 -0.190236 -0.077794
v 0.188068 -0.181696 -0.067508
v 0.192899 -0.180859 -0.083331
v -0.191780 0.054131 -0.178738
v -0.194158 0.051005 -0.176891
v -0.194082 0.047700 -0.184248
v -0.191705 0.050825 -0.186094
v -0.196460 0.044574 -0.182403
v -0.196536 0.049989 -0.170270
v -0.198838 0.041448 -0.180556
v 0.183489 -0.185508 -0.058991
v 0.185778 -0.184355 -0.064956
v 0.181187 -0.196310 -0.074395
v 0.178898 -0.199499 -0.073041
v 0.176609 -0.202578 -0.071436
v 0.181200 -0.188168 -0.056439
v 0.183477 -0.193231 -0.076000
v -0.198825 0.047329 -0.167718
v -0.201115 0.046177 -0.161754
v -0.203417 0.035375 -0.177157
v -0.201127 0.038453 -0.178762
v -0.205706 0.032186 -0.175803
v -0.203404 0.043517 -0.159202
v -0.207995 0.029107 -0.174199
v 0.176974 -0.191749 -0.048754
v 0.179087 -0.189657 -0.051913
v 0.172383 -0.208102 -0.068148
v 0.170270 -0.210948 -0.066693
v 0.168157 -0.213710 -0.065049
v 0.174861 -0.193841 -0.045592
v 0.174495 -0.205424 -0.069982
v -0.205517 0.042028 -0.154676
v -0.207630 0.039936 -0.151516
v -0.212221 0.023583 -0.170911
v -0.210108 0.026261 -0.172744
v -0.214334 0.020737 -0.169456
v -0.209743 0.037844 -0.148355
v -0.216447 0.017975 -0.167812
v 0.171151 -0.196227 -0.037161
v 0.173006 -0.194783 -0.040809
v 0.163779 -0.219380 -0.061539
v 0.161683 -0.222023 -0.059691
v 0.159587 -0.224733 -0.057998
v 0.169296 -0.197067 -0.032149
v 0.166167 -0.216297 -0.063476
v -0.211598 0.036902 -0.143571
v -0.213453 0.035458 -0.139923
v -0.220934 0.012140 -0.164263
v -0.218436 0.015388 -0.166239
v -0.223030 0.009498 -0.162416
v -0.215308 0.034618 -0.134912
v -0.225126 0.006788 -0.160722
v 0.166243 -0.198547 -0.024160
v 0.167769 -0.197808 -0.028154
v 0.155817 -0.229464 -0.054646
v 0.154068 -0.231584 -0.052924
v 0.151910 -0.234251 -0.050916
v 0.164716 -0.199287 -0.020165
v 0.157430 -0.227417 -0.056026
v -0.216835 0.033878 -0.130918
v -0.218361 0.033138 -0.126923
v -0.228896 0.002056 -0.157371
v -0.227283 0.004104 -0.158750
v -0.230645 -0.000063 -0.155648
v -0.219887 0.032398 -0.122928
v -0.232803 -0.002731 -0.153640
v 0.162439 -0.199303 -0.011790
v 0.163578 -0.199295 -0.015979
v 0.141185 -0.247488 -0.040706
v 0.141176 -0.240619 -0.025173
v 0.141138 -0.230777 -0.002961
v 0.161300 -0.199310 -0.007604
v 0.150043 -0.236479 -0.048997
v -0.221026 0.032390 -0.118741
v -0.222165 0.032382 -0.114553
v -0.243552 -0.016000 -0.143415
v -0.234670 -0.004958 -0.151721
v -0.243561 -0.009131 -0.127883
v -0.223303 0.032375 -0.110366
v -0.243598 0.000723 -0.105642
v 0.159885 -0.197861 0.000836
v 0.160593 -0.198586 -0.003384
v 0.141109 -0.227404 0.004628
v 0.141095 -0.225716 0.008423
v 0.141081 -0.224029 0.012218
v 0.159178 -0.197136 0.005055
v 0.141124 -0.229090 0.000834
v -0.224011 0.033099 -0.106147
v -0.224718 0.033824 -0.101927
v -0.243627 0.004097 -0.098053
v -0.243613 0.002410 -0.101848
v -0.243641 0.005784 -0.094258
v -0.225426 0.034549 -0.097707
v -0.243656 0.007471 -0.090464
v 0.158680 -0.194278 0.013235
v 0.158929 -0.195707 0.009145
v 0.141052 -0.220521 0.020109
v 0.141037 -0.218767 0.024055
v 0.141022 -0.217013 0.028001
v 0.158432 -0.192848 0.017324
v 0.141066 -0.222275 0.016164
v -0.225674 0.035978 -0.093617
v -0.225923 0.037408 -0.089528
v -0.243685 0.010979 -0.082572
v -0.243670 0.009225 -0.086518
v -0.243700 0.012733 -0.078626
v -0.226172 0.038837 -0.085439
v -0.243715 0.014488 -0.074679
v -0.086662 0.159059 -0.045038
v -0.086640 0.122774 -0.127142
v -0.086697 0.120913 -0.131041
v 0.188734 -0.006944 0.028309
v 0.188756 -0.043160 -0.053640
v 0.188700 -0.045022 -0.057539
v -0.086674 0.119161 -0.134988
v -0.086731 0.117299 -0.138886
v 0.188722 -0.046774 -0.061487
v 0.188666 -0.048636 -0.065385
v -0.086652 0.112477 -0.149998
v -0.087165 0.104219 -0.166659
v 0.188745 -0.053458 -0.076496
v 0.188231 -0.061715 -0.093158
v -0.088391 0.100212 -0.171029
v -0.089195 0.097720 -0.173549
v 0.187006 -0.065722 -0.097527
v 0.186201 -0.068215 -0.100047
v -0.090076 0.096007 -0.174029
v -0.091299 0.093650 -0.174680
v 0.185320 -0.069928 -0.100528
v 0.184097 -0.072284 -0.101178
v -0.092294 0.091778 -0.175092
v -0.093745 0.089105 -0.175602
v 0.183103 -0.074156 -0.101590
v 0.181652 -0.076829 -0.102100
v -0.096157 0.084523 -0.176836
v -0.097657 0.081810 -0.177265
v 0.179239 -0.081412 -0.103334
v 0.177739 -0.084125 -0.103764
v -0.099157 0.079013 -0.177884
v -0.100657 0.076232 -0.178465
v 0.176239 -0.086922 -0.104383
v 0.174739 -0.089703 -0.104963
v -0.102491 0.072885 -0.179090
v -0.104325 0.069706 -0.179335
v 0.172905 -0.093049 -0.105588
v 0.171072 -0.096228 -0.105833
v -0.106158 0.066527 -0.179580
v -0.107992 0.063347 -0.179825
v 0.169238 -0.099408 -0.106078
v 0.167404 -0.102587 -0.106323
v -0.110089 0.059760 -0.180023
v -0.112186 0.056172 -0.180222
v 0.165307 -0.106175 -0.106522
v 0.163210 -0.109763 -0.106720
v -0.114283 0.052668 -0.180230
v -0.116380 0.049416 -0.179669
v 0.161114 -0.113266 -0.106729
v 0.159017 -0.116519 -0.106168
v -0.118659 0.045816 -0.179229
v -0.120939 0.042242 -0.178727
v 0.156737 -0.120119 -0.105728
v 0.154458 -0.123693 -0.105227
v -0.123218 0.038810 -0.177908
v -0.125498 0.035126 -0.177657
v 0.152178 -0.127125 -0.104406
v 0.149899 -0.130809 -0.104156
v -0.127872 0.031654 -0.176588
v -0.130246 0.028183 -0.175519
v 0.147524 -0.134281 -0.103087
v 0.145150 -0.137752 -0.102018
v -0.132621 0.024711 -0.174451
v -0.134995 0.021408 -0.173003
v 0.142776 -0.141223 -0.100949
v 0.140401 -0.144527 -0.099502
v -0.137374 0.018115 -0.171536
v -0.139752 0.014989 -0.169690
v 0.138023 -0.147820 -0.098035
v 0.135645 -0.150945 -0.096189
v -0.142130 0.011864 -0.167845
v -0.144508 0.008739 -0.165998
v 0.133267 -0.154071 -0.094343
v 0.130888 -0.157196 -0.092498
v -0.146799 0.005744 -0.164206
v -0.149089 0.002666 -0.162601
v 0.128598 -0.160190 -0.090704
v 0.126307 -0.163268 -0.089100
v -0.151380 -0.000522 -0.161247
v -0.153670 -0.003600 -0.159642
v 0.124017 -0.166457 -0.087746
v 0.121726 -0.169535 -0.086141
v -0.155785 -0.006445 -0.158188
v -0.157900 -0.009122 -0.156356
v 0.119611 -0.172380 -0.084687
v 0.117496 -0.175057 -0.082854
v -0.160015 -0.011967 -0.154902
v -0.162130 -0.014728 -0.153258
v 0.115381 -0.177902 -0.081400
v 0.113266 -0.180662 -0.079757
v -0.164122 -0.017312 -0.151685
v -0.166608 -0.020536 -0.149715
v 0.111274 -0.183247 -0.078184
v 0.108868 -0.186352 -0.076241
v -0.168706 -0.023177 -0.147868
v -0.170805 -0.025886 -0.146176
v 0.106770 -0.188993 -0.074395
v 0.104671 -0.191701 -0.072701
v -0.172965 -0.028568 -0.144204
v -0.174581 -0.030613 -0.142827
v 0.102510 -0.194383 -0.070730
v 0.100894 -0.196428 -0.069353
v -0.176334 -0.032730 -0.141105
v -0.178495 -0.035396 -0.139098
v 0.099141 -0.198546 -0.067631
v 0.096981 -0.201211 -0.065623
v -0.180366 -0.037621 -0.137179
v -0.189248 -0.048656 -0.128877
v 0.095110 -0.203437 -0.063706
v 0.086244 -0.214449 -0.055413
v -0.189260 -0.041784 -0.113346
v -0.189302 -0.031929 -0.091109
v 0.086231 -0.207578 -0.039882
v 0.086190 -0.197732 -0.017667
v -0.189320 -0.030240 -0.087316
v -0.189338 -0.028551 -0.083523
v 0.086171 -0.196043 -0.013873
v 0.086153 -0.194353 -0.010079
v -0.189357 -0.026861 -0.079729
v -0.189375 -0.025172 -0.075935
v 0.086135 -0.192664 -0.006286
v 0.086116 -0.190975 -0.002493
v -0.189394 -0.023415 -0.071991
v -0.189413 -0.021659 -0.068046
v 0.086097 -0.189218 0.001452
v 0.086078 -0.187461 0.005397
v -0.189432 -0.019902 -0.064101
v -0.189451 0.016388 0.018000
v 0.086059 -0.185705 0.009342
v 0.086040 -0.149483 0.091289
v -0.170056 0.109317 -0.136783
v -0.171456 0.104251 -0.142897
v -0.170093 0.115761 -0.122257
v -0.169577 0.113229 -0.129826
v -0.213812 0.051830 -0.102696
v -0.213400 0.055649 -0.095698
v -0.203775 0.050816 -0.142256
v -0.207183 0.048659 -0.134407
v -0.209984 0.047896 -0.125693
v -0.212071 0.047877 -0.117987
v -0.213364 0.049206 -0.110222
v -0.179560 0.084427 -0.157107
v -0.182741 0.077870 -0.159956
v -0.186940 0.069588 -0.162907
v -0.191310 0.061093 -0.165716
v -0.195683 0.057452 -0.157545
v -0.199892 0.054064 -0.149437
v -0.176404 0.091380 -0.153285
v -0.173531 0.098493 -0.148049
v -0.212143 0.060517 -0.089497
v -0.210088 0.066247 -0.084332
v -0.173635 0.116844 -0.106688
v -0.176536 0.115340 -0.099276
v -0.207316 0.072618 -0.080399
v -0.171528 0.116892 -0.114405
v -0.115896 0.083375 -0.107183
v -0.115380 0.080843 -0.114751
v -0.117331 0.084506 -0.099331
v -0.119439 0.084458 -0.091614
v -0.122340 0.082954 -0.084202
v -0.179716 0.112996 -0.092703
v -0.125520 0.080611 -0.077629
v -0.182915 0.110095 -0.087307
v -0.128719 0.077709 -0.072232
v -0.187124 0.105199 -0.082610
v -0.132928 0.072814 -0.067536
v -0.191498 0.099449 -0.079214
v -0.137301 0.067063 -0.064140
v -0.195868 0.093063 -0.077249
v -0.141671 0.060678 -0.062175
v -0.200066 0.086289 -0.076788
v -0.145870 0.053903 -0.061714
v -0.203931 0.079385 -0.077852
v -0.149735 0.047000 -0.062778
v -0.153119 0.040232 -0.065325
v -0.155892 0.033861 -0.069257
v -0.157946 0.028131 -0.074423
v -0.159204 0.023263 -0.080624
v -0.159616 0.019444 -0.087623
v -0.159167 0.016820 -0.095148
v -0.157875 0.015491 -0.102913
v -0.155787 0.015510 -0.110620
v -0.152987 0.016273 -0.119333
v -0.149579 0.018430 -0.127182
v -0.145696 0.021678 -0.134363
v -0.141487 0.025066 -0.142471
v -0.137113 0.028707 -0.150642
v -0.132743 0.037202 -0.147833
v -0.128545 0.045484 -0.144881
v -0.125364 0.052041 -0.142033
v -0.122207 0.058995 -0.138210
v -0.119334 0.066108 -0.132976
v -0.117259 0.071865 -0.127823
v -0.115859 0.076931 -0.121709
v 0.160331 -0.085319 -0.041251
v 0.159815 -0.082788 -0.033683
v 0.214317 -0.115640 -0.019168
v 0.214833 -0.118171 -0.026735
v 0.158380 -0.081657 -0.025830
v 0.212882 -0.114509 -0.011315
v 0.156273 -0.081704 -0.018113
v 0.210774 -0.114556 -0.003597
v 0.153372 -0.083209 -0.010701
v 0.207873 -0.116061 0.003814
v 0.150192 -0.085552 -0.004128
v 0.204693 -0.118404 0.010387
v 0.146993 -0.088454 0.001267
v 0.201494 -0.121306 0.015783
v 0.142784 -0.093349 0.005964
v 0.197285 -0.126201 0.020479
v 0.138410 -0.099100 0.009359
v 0.192912 -0.131952 0.023876
v 0.134041 -0.105485 0.011326
v 0.188542 -0.138337 0.025842
v 0.129842 -0.112260 0.011786
v 0.184343 -0.145111 0.026302
v 0.125977 -0.119163 0.010722
v 0.180478 -0.152015 0.025238
v 0.122592 -0.125931 0.008175
v 0.177094 -0.158783 0.022691
v 0.119820 -0.132301 0.004243
v 0.174321 -0.165153 0.018759
v 0.117765 -0.138031 -0.000922
v 0.172266 -0.170883 0.013594
v 0.116508 -0.142899 -0.007124
v 0.171009 -0.175751 0.007392
v 0.116096 -0.146719 -0.014122
v 0.170597 -0.179571 0.000394
v 0.116544 -0.149343 -0.021647
v 0.171046 -0.182195 -0.007132
v 0.117837 -0.150671 -0.029412
v 0.172338 -0.183523 -0.014897
v 0.119924 -0.150652 -0.037119
v 0.174426 -0.183504 -0.022603
v 0.122725 -0.149890 -0.045834
v 0.177227 -0.182742 -0.031318
v 0.126133 -0.147732 -0.053682
v 0.180634 -0.180584 -0.039166
v 0.130016 -0.144484 -0.060863
v 0.184517 -0.177336 -0.046347
v 0.134225 -0.141096 -0.068971
v 0.188726 -0.173948 -0.054455
v 0.138598 -0.137455 -0.077142
v 0.193100 -0.170307 -0.062626
v 0.142968 -0.128960 -0.074332
v 0.197470 -0.161812 -0.059816
v 0.147167 -0.120678 -0.071382
v 0.201668 -0.153530 -0.056866
v 0.150348 -0.114121 -0.068533
v 0.204849 -0.146973 -0.054017
v 0.153505 -0.107168 -0.064711
v 0.208006 -0.140020 -0.050194
v 0.156377 -0.100055 -0.059476
v 0.210879 -0.132907 -0.044959
v 0.158452 -0.094297 -0.054322
v 0.212954 -0.127149 -0.039806
v 0.159852 -0.089231 -0.048208
v 0.214354 -0.122083 -0.033692
v 0.132519 0.134605 0.025487
v 0.096505 0.165347 0.026889
v 0.094949 0.162680 0.027838
v 0.160412 0.161108 0.013778
v 0.168639 0.112858 0.035096
v 0.188263 0.139462 0.023341
v 0.210216 0.103295 0.039322
v 0.179240 0.061286 0.057883
v 0.189843 0.017915 0.077046
v 0.224054 0.064091 0.056643
v 0.229247 0.023361 0.074640
v 0.224909 -0.010108 0.089428
v 0.225595 -0.017336 0.092622
v 0.222443 -0.017805 0.092829
v 0.211330 -0.042107 0.103566
v 0.213234 -0.056429 0.109895
v 0.191870 -0.069148 0.115515
v 0.192647 -0.092421 0.125798
v 0.172411 -0.096188 0.127462
v 0.164616 -0.123929 0.139719
v 0.134861 -0.139509 0.146604
v 0.130224 -0.149740 0.151124
v 0.128726 -0.143763 0.148482
v 0.090796 -0.168864 0.159574
v 0.153702 -0.122186 0.138949
v 0.047840 -0.180563 0.164743
v 0.003011 -0.184387 0.166432
v 0.040244 -0.131581 0.143101
v -0.008374 -0.132811 0.143643
v -0.041969 -0.180192 0.164578
v -0.085374 -0.168139 0.159253
v -0.044509 -0.111055 0.134031
v -0.125533 -0.148693 0.150661
v -0.082082 -0.088432 0.124035
v -0.119652 -0.065812 0.114040
v -0.160904 -0.122598 0.139132
v -0.155772 -0.044064 0.104431
v -0.190124 -0.090859 0.125108
v -0.212077 -0.054692 0.109127
v -0.174210 -0.003382 0.086456
v -0.224322 0.068804 0.054562
v -0.225915 -0.015489 0.091805
v -0.222053 0.075579 0.051568
v -0.212524 0.098547 0.041419
v -0.227452 0.065939 0.055827
v -0.194504 0.141024 0.022651
v -0.215095 0.105032 0.038554
v -0.193810 0.124552 0.029929
v -0.174349 0.151595 0.017981
v -0.154891 0.178633 0.006034
v -0.166477 0.172532 0.008730
v -0.132085 0.198343 -0.002675
v -0.132642 0.196203 -0.001729
v -0.126116 0.201240 -0.003955
v -0.092657 0.217467 -0.011125
v -0.049700 0.229166 -0.016294
v -0.082518 0.181901 0.004590
v -0.043863 0.189297 0.001322
v -0.004872 0.232990 -0.017983
v 0.040108 0.228795 -0.016129
v 0.021241 0.201604 -0.004116
v 0.057376 0.179848 0.005497
v 0.072956 0.214165 -0.009665
v 0.112828 0.157077 0.024574
v 0.130446 0.155405 0.020491
v 0.146677 0.160585 0.015252
v 0.243696 -0.040074 0.042947
v 0.141022 -0.182587 0.105916
v -0.243715 0.049059 0.003564
v -0.140907 0.191757 -0.059485
v 0.168640 0.090780 -0.014870
v 0.021252 0.179520 -0.054079
v -0.009442 -0.157610 0.094880
v -0.157631 -0.068320 0.055428
v 0.212789 0.115473 0.066787
v 0.190317 0.152113 0.050598
v 0.161950 0.174169 0.040854
v 0.083961 0.174458 0.016895
v 0.077106 0.187521 0.006301
v 0.076984 0.202546 -0.003288
v 0.039513 0.243044 0.010421
v 0.072838 0.227888 0.017118
v -0.006146 0.247488 0.008457
v -0.051608 0.243831 0.010074
v -0.095127 0.232208 0.015209
v -0.135024 0.213068 0.023665
v -0.169776 0.187149 0.035118
v -0.198040 0.155446 0.049126
v -0.218735 0.119178 0.065150
v -0.231057 0.079740 0.082576
v -0.234543 0.038641 0.100736
v -0.231108 0.025242 0.073809
v -0.229052 -0.002531 0.118927
v -0.214798 -0.042201 0.136456
v -0.192326 -0.078841 0.152644
v -0.162506 -0.111040 0.166871
v -0.126477 -0.137566 0.178591
v -0.085626 -0.157395 0.187353
v -0.041521 -0.169772 0.192822
v 0.004137 -0.174216 0.194785
v 0.049599 -0.170559 0.193169
v 0.093117 -0.158936 0.188033
v 0.133016 -0.139796 0.179577
v 0.167768 -0.113877 0.168124
v 0.196034 -0.082174 0.154117
v 0.216725 -0.045906 0.138092
v 0.229052 -0.006468 0.120667
v 0.232534 0.034631 0.102508
v 0.227043 0.075803 0.084315
v 0.103325 0.151010 0.015069
v 0.108745 0.145995 0.012545
v 0.096932 0.155475 0.014760
v 0.085120 0.160220 0.006260
v 0.090539 0.158709 0.011667
v 0.112366 0.141192 0.007573
v 0.113638 0.137333 0.000911
v 0.081498 0.159778 -0.000639
v 0.080227 0.157450 -0.007977
v 0.112366 0.135006 -0.006428
v 0.108745 0.134564 -0.013327
v 0.081498 0.153591 -0.014640
v 0.085120 0.148788 -0.019611
v 0.090539 0.143773 -0.022135
v 0.103325 0.136075 -0.018734
v 0.096932 0.139309 -0.021828
v 0.096505 0.171951 0.041833
v 0.112828 0.165886 0.044513
v 0.077106 0.198113 0.030273
v 0.083961 0.183267 0.036833
v 0.076984 0.214228 0.023153
v 0.130446 0.165997 0.044463
v 0.146677 0.172267 0.041693
v 0.053715 -0.086644 0.063524
v 0.044154 -0.056634 0.142832
v 0.044154 -0.090854 0.065384
v 0.053716 -0.052424 0.140972
v 0.034187 -0.094187 0.066857
v 0.023911 -0.062391 0.145375
v 0.023911 -0.096611 0.067927
v 0.034187 -0.059967 0.144305
v -0.106053 -0.000416 0.025425
v -0.105605 0.043502 0.098588
v -0.105605 0.009282 0.021140
v -0.106053 0.033804 0.102873
v -0.104121 0.018893 0.016893
v -0.101613 0.062545 0.090174
v -0.101613 0.028325 0.012726
v -0.104121 0.053113 0.094341
v 0.086146 -0.061955 0.052615
v 0.079074 -0.034972 0.133261
v 0.079074 -0.069192 0.055813
v 0.086146 -0.027735 0.130063
v 0.071260 -0.075760 0.058715
v 0.062780 -0.047376 0.138741
v 0.062780 -0.081596 0.061294
v 0.071260 -0.041540 0.136163
v -0.097536 -0.038216 0.042127
v -0.101180 0.005121 0.115546
v -0.101180 -0.029099 0.038098
v -0.097536 -0.003996 0.119575
v -0.103830 -0.019700 0.033945
v -0.105459 0.024112 0.107155
v -0.105459 -0.010108 0.029707
v -0.103830 0.014520 0.111393
v 0.105779 -0.027793 0.037521
v 0.102273 -0.002735 0.119017
v 0.102273 -0.036955 0.041569
v 0.105779 0.006427 0.114969
v 0.097801 -0.045758 0.045459
v 0.092409 -0.019898 0.126600
v 0.092409 -0.054118 0.049152
v 0.097801 -0.011538 0.122907
v -0.073853 -0.070157 0.056239
v -0.081034 -0.028790 0.130529
v -0.081034 -0.063010 0.053082
v -0.073853 -0.035937 0.133687
v -0.087414 -0.055253 0.049654
v -0.092933 -0.012742 0.123439
v -0.092933 -0.046962 0.045991
v -0.087414 -0.021033 0.127102
v -0.009259 0.098634 -0.018340
v 0.001337 0.133397 0.058867
v 0.001337 0.099177 -0.018580
v -0.009259 0.132854 0.059108
v 0.109624 0.010640 0.020539
v 0.110218 0.035168 0.102269
v 0.110218 0.000948 0.024821
v 0.109624 0.044860 0.097987
v 0.011939 0.098768 -0.018399
v 0.022447 0.131629 0.059649
v 0.022447 0.097409 -0.017799
v 0.011939 0.132987 0.059049
v 0.109771 -0.008750 0.029107
v 0.108286 0.015859 0.110802
v 0.108286 -0.018361 0.033354
v 0.109771 0.025470 0.106555
v -0.038610 -0.091377 0.065615
v -0.048234 -0.053067 0.141256
v -0.048234 -0.087287 0.063808
v -0.038610 -0.057157 0.143063
v -0.057374 -0.082354 0.061628
v -0.065941 -0.042406 0.136545
v -0.065941 -0.076626 0.059097
v -0.057374 -0.048134 0.139076
v -0.049550 0.087176 -0.013277
v -0.039988 0.125607 0.062310
v -0.039988 0.091387 -0.015138
v -0.049550 0.121396 0.064171
v 0.097098 0.047494 0.004256
v 0.101701 0.072968 0.085568
v 0.101701 0.038748 0.008121
v 0.097098 0.081714 0.081704
v -0.030021 0.094720 -0.016610
v -0.019745 0.131363 0.059767
v -0.019745 0.097143 -0.017681
v -0.030021 0.128940 0.060838
v 0.105345 0.029631 0.012148
v 0.107995 0.054452 0.093749
v 0.107995 0.020232 0.016301
v 0.105345 0.063851 0.089596
v 0.002829 -0.098645 0.068827
v -0.007774 -0.064015 0.146093
v -0.007774 -0.098235 0.068645
v 0.002829 -0.064425 0.146275
v -0.018282 -0.096877 0.068046
v -0.028593 -0.060364 0.144480
v -0.028593 -0.094584 0.067032
v -0.018282 -0.062657 0.145494
v -0.081981 0.062487 -0.002369
v -0.074908 0.103944 0.071881
v -0.074908 0.069724 -0.005567
v -0.081981 0.096707 0.075079
v -0.067095 0.076292 -0.008469
v -0.058614 0.116348 0.066401
v -0.058614 0.082128 -0.011047
v -0.067095 0.110512 0.068979
v 0.085200 0.063542 -0.002835
v 0.091580 0.090005 0.078040
v 0.091580 0.055785 0.000592
v 0.085200 0.097762 0.074613
v 0.013425 -0.063882 0.146034
v 0.013425 -0.098101 0.068586
v -0.098107 0.071707 0.086125
v -0.098107 0.037487 0.008677
v -0.093636 0.046290 0.004787
v -0.088243 0.088870 0.078542
v -0.088243 0.054651 0.001094
v -0.093636 0.080510 0.082235
v 0.032759 0.129336 0.060662
v 0.032759 0.095116 -0.016786
v 0.070107 0.111378 0.068597
v 0.078019 0.104909 0.071455
v 0.052399 0.122039 0.063886
v 0.061539 0.117107 0.066066
v 0.042775 0.126129 0.062079
v 0.078019 0.070689 -0.005993
v 0.042775 0.091909 -0.015368
v 0.070107 0.077158 -0.008851
v 0.052399 0.087819 -0.013562
v 0.061539 0.082887 -0.011382
v 0.048167 0.097439 0.003078
v 0.044191 0.101750 0.008266
v 0.071944 0.083425 0.009269
v 0.066878 0.085428 0.003644
v 0.042743 0.105362 0.015037
v 0.044191 0.107936 0.022267
v 0.053991 0.092986 0.000305
v 0.075186 0.083340 0.016400
v 0.071944 0.094856 0.035140
v 0.075186 0.089526 0.030401
v 0.066878 0.100363 0.037447
v 0.060586 0.104968 0.037076
v 0.048167 0.108870 0.028949
v 0.053991 0.107921 0.034107
v 0.060586 0.088802 0.000488
v 0.076407 0.085597 0.023770
vn 0.8350 -0.5017 0.2261
vn 0.8350 -0.5016 0.2262
vn 0.8350 -0.5016 0.2261
vn -0.8350 0.5016 -0.2261
vn -0.8350 0.5016 -0.2262
vn -0.8350 0.5017 -0.2261
vn 0.8365 -0.4999 0.2244
vn 0.8369 -0.4992 0.2245
vn 0.8366 -0.4997 0.2243
vn 0.8360 -0.5010 0.2239
vn 0.8349 -0.5031 0.2233
vn 0.8356 -0.5009 0.2254
vn 0.8347 -0.5031 0.2238
vn -0.8365 0.4999 -0.2244
vn -0.8347 0.5031 -0.2238
vn -0.8356 0.5009 -0.2255
vn -0.8349 0.5031 -0.2233
vn -0.8360 0.5010 -0.2239
vn -0.8367 0.4997 -0.2243
vn -0.8369 0.4992 -0.2245
vn 0.8361 -0.5006 0.2245
vn 0.8368 -0.4990 0.2255
vn 0.8360 -0.5007 0.2247
vn 0.8378 -0.4971 0.2258
vn 0.8372 -0.4985 0.2250
vn 0.8362 -0.5004 0.2243
vn 0.8382 -0.4966 0.2252
vn -0.8361 0.5005 -0.2245
vn -0.8382 0.4967 -0.2252
vn -0.8362 0.5005 -0.2243
vn -0.8372 0.4985 -0.2250
vn -0.8378 0.4971 -0.2258
vn -0.8360 0.5007 -0.2247
vn -0.8368 0.4990 -0.2254
vn 0.8356 -0.5012 0.2248
vn 0.8363 -0.4997 0.2256
vn 0.8356 -0.5012 0.2250
vn 0.8363 -0.4998 0.2253
vn 0.8365 -0.4995 0.2252
vn 0.8357 -0.5011 0.2247
vn 0.8356 -0.5013 0.2247
vn -0.8356 0.5012 -0.2248
vn -0.8356 0.5012 -0.2247
vn -0.8357 0.5011 -0.2247
vn -0.8365 0.4996 -0.2251
vn -0.8363 0.4997 -0.2253
vn -0.8356 0.5012 -0.2250
vn -0.8363 0.4997 -0.2256
vn 0.8348 -0.5024 0.2252
vn 0.8357 -0.5005 0.2262
vn 0.8352 -0.5015 0.2257
vn 0.8358 -0.5004 0.2260
vn 0.8358 -0.5006 0.2255
vn 0.8353 -0.5015 0.2252
vn 0.8357 -0.5008 0.2253
vn -0.8348 0.5024 -0.2252
vn -0.8357 0.5009 -0.2253
vn -0.8353 0.5015 -0.2252
vn -0.8358 0.5005 -0.2255
vn -0.8358 0.5005 -0.2259
vn -0.8352 0.5016 -0.2257
vn -0.8357 0.5005 -0.2262
vn 0.8351 -0.5017 0.2258
vn 0.8356 -0.5004 0.2268
vn 0.8340 -0.5034 0.2259
vn 0.8354 -0.5011 0.2259
vn 0.8353 -0.5013 0.2258
vn 0.8359 -0.5003 0.2260
vn 0.8352 -0.5013 0.2260
vn -0.8351 0.5016 -0.2258
vn -0.8352 0.5013 -0.2260
vn -0.8358 0.5003 -0.2260
vn -0.8353 0.5013 -0.2258
vn -0.8354 0.5011 -0.2259
vn -0.8340 0.5034 -0.2259
vn -0.8356 0.5004 -0.2268
vn 0.8370 -0.4975 0.2278
vn 0.8345 -0.5012 0.2287
vn 0.8328 -0.5046 0.2277
vn 0.8352 -0.5008 0.2273
vn 0.8349 -0.5010 0.2280
vn 0.8329 -0.5046 0.2272
vn 0.8350 -0.5014 0.2267
vn -0.8371 0.4975 -0.2278
vn -0.8350 0.5014 -0.2267
vn -0.8329 0.5047 -0.2272
vn -0.8349 0.5010 -0.2280
vn -0.8352 0.5007 -0.2273
vn -0.8328 0.5046 -0.2277
vn -0.8345 0.5012 -0.2287
vn 0.8303 -0.5070 0.2315
vn 0.8351 -0.4982 0.2331
vn 0.8345 -0.4993 0.2329
vn 0.8348 -0.5007 0.2287
vn 0.8348 -0.5008 0.2287
vn -0.8303 0.5070 -0.2315
vn -0.8348 0.5008 -0.2287
vn -0.8348 0.5007 -0.2287
vn -0.8345 0.4993 -0.2329
vn -0.8352 0.4982 -0.2331
vn 0.8353 -0.4982 0.2324
vn 0.8351 -0.5004 0.2286
vn 0.8397 -0.4940 0.2257
vn 0.8354 -0.4981 0.2324
vn 0.8353 -0.4982 0.2325
vn 0.8348 -0.4987 0.2333
vn -0.8353 0.4982 -0.2325
vn -0.8347 0.4987 -0.2334
vn -0.8354 0.4982 -0.2324
vn -0.8353 0.4982 -0.2324
vn -0.8396 0.4940 -0.2257
vn -0.8352 0.5003 -0.2285
vn 0.8370 -0.4990 0.2248
vn 0.8344 -0.5022 0.2270
vn 0.8350 -0.5014 0.2265
vn 0.8343 -0.5022 0.2275
vn 0.8345 -0.5012 0.2289
vn 0.8353 -0.5003 0.2280
vn 0.8347 -0.5008 0.2290
vn -0.8370 0.4990 -0.2248
vn -0.8347 0.5008 -0.2291
vn -0.8353 0.5003 -0.2279
vn -0.8345 0.5012 -0.2289
vn -0.8343 0.5022 -0.2275
vn -0.8351 0.5014 -0.2264
vn -0.8344 0.5022 -0.2270
vn 0.8348 -0.5021 0.2258
vn 0.8340 -0.5032 0.2265
vn 0.8348 -0.5023 0.2256
vn 0.8339 -0.5032 0.2269
vn 0.8342 -0.5027 0.2267
vn 0.8355 -0.5013 0.2251
vn 0.8339 -0.5027 0.2278
vn -0.8348 0.5021 -0.2258
vn -0.8339 0.5027 -0.2277
vn -0.8355 0.5013 -0.2251
vn -0.8341 0.5028 -0.2268
vn -0.8339 0.5031 -0.2268
vn -0.8348 0.5023 -0.2256
vn -0.8340 0.5032 -0.2265
vn 0.8345 -0.5029 0.2253
vn 0.8338 -0.5038 0.2260
vn 0.8348 -0.5026 0.2247
vn 0.8339 -0.5035 0.2260
vn 0.8338 -0.5036 0.2264
vn 0.8349 -0.5024 0.2249
vn 0.8338 -0.5034 0.2268
vn -0.8344 0.5029 -0.2254
vn -0.8338 0.5034 -0.2268
vn -0.8349 0.5023 -0.2249
vn -0.8338 0.5035 -0.2263
vn -0.8340 0.5034 -0.2260
vn -0.8348 0.5026 -0.2247
vn -0.8337 0.5038 -0.2260
vn 0.8340 -0.5036 0.2255
vn 0.8336 -0.5040 0.2259
vn 0.8340 -0.5036 0.2254
vn 0.8334 -0.5042 0.2263
vn 0.8335 -0.5041 0.2263
vn 0.8341 -0.5034 0.2254
vn 0.8337 -0.5038 0.2260
vn -0.8341 0.5035 -0.2254
vn -0.8337 0.5038 -0.2261
vn -0.8341 0.5035 -0.2255
vn -0.8335 0.5041 -0.2263
vn -0.8334 0.5042 -0.2263
vn -0.8340 0.5036 -0.2254
vn -0.8336 0.5040 -0.2260
vn 0.8340 -0.5034 0.2258
vn 0.8353 -0.5022 0.2239
vn 0.8344 -0.5026 0.2260
vn 0.8357 -0.5021 0.2225
vn 0.8348 -0.5029 0.2241
vn 0.8337 -0.5040 0.2258
vn 0.8335 -0.5041 0.2260
vn -0.8340 0.5034 -0.2258
vn -0.8336 0.5041 -0.2260
vn -0.8337 0.5040 -0.2258
vn -0.8348 0.5029 -0.2241
vn -0.8357 0.5022 -0.2225
vn -0.8344 0.5026 -0.2260
vn -0.8353 0.5022 -0.2239
vn 0.5487 0.7653 -0.3366
vn 0.5503 0.7638 -0.3374
vn 0.5500 0.7505 -0.3663
vn 0.5500 0.7505 -0.3664
vn 0.5503 0.7637 -0.3374
vn 0.5503 0.7644 -0.3361
vn 0.5502 0.7674 -0.3291
vn 0.5496 0.7417 -0.3845
vn 0.5109 0.5573 -0.6545
vn 0.5109 0.5574 -0.6544
vn 0.5020 0.5294 -0.6839
vn 0.5020 0.5295 -0.6838
vn 0.3150 0.1032 -0.9435
vn 0.3148 0.1029 -0.9436
vn 0.3125 0.0986 -0.9448
vn 0.3150 0.1033 -0.9435
vn 0.2897 0.0558 -0.9555
vn 0.2899 0.0562 -0.9554
vn 0.2771 0.0329 -0.9603
vn 0.2899 0.0563 -0.9554
vn 0.2897 0.0559 -0.9555
vn 0.2772 0.0331 -0.9602
vn 0.3091 0.0922 -0.9465
vn 0.3091 0.0922 -0.9466
vn 0.2629 0.0073 -0.9648
vn 0.2898 0.0561 -0.9555
vn 0.2897 0.0560 -0.9555
vn 0.2846 0.0465 -0.9575
vn 0.2897 0.0561 -0.9555
vn 0.2749 0.0288 -0.9610
vn 0.2748 0.0288 -0.9611
vn 0.2269 -0.0559 -0.9723
vn 0.2748 0.0286 -0.9611
vn 0.2269 -0.0558 -0.9723
vn 0.2268 -0.0561 -0.9723
vn 0.2169 -0.0731 -0.9735
vn 0.2169 -0.0730 -0.9735
vn 0.2170 -0.0729 -0.9735
vn 0.2169 -0.0729 -0.9735
vn 0.2168 -0.0731 -0.9735
vn 0.1930 -0.1131 -0.9746
vn 0.1141 -0.2396 -0.9641
vn 0.1140 -0.2397 -0.9641
vn 0.1931 -0.1130 -0.9746
vn 0.1363 -0.2049 -0.9692
vn 0.1283 -0.2175 -0.9676
vn 0.1282 -0.2176 -0.9676
vn 0.1364 -0.2047 -0.9693
vn 0.1363 -0.2050 -0.9692
vn 0.0846 -0.2845 -0.9549
vn 0.0848 -0.2842 -0.9550
vn 0.1608 -0.1659 -0.9729
vn 0.1609 -0.1658 -0.9730
vn 0.0846 -0.2844 -0.9550
vn 0.0847 -0.2843 -0.9550
vn 0.1610 -0.1656 -0.9730
vn 0.0552 -0.3280 -0.9431
vn 0.0551 -0.3281 -0.9430
vn 0.0026 -0.4029 -0.9152
vn -0.0001 -0.4068 -0.9135
vn -0.0527 -0.4778 -0.8769
vn -0.0002 -0.4068 -0.9135
vn -0.0003 -0.4069 -0.9135
vn -0.0527 -0.4777 -0.8769
vn -0.0526 -0.4777 -0.8770
vn -0.0526 -0.4777 -0.8769
vn -0.0527 -0.4779 -0.8769
vn -0.0555 -0.4815 -0.8747
vn -0.0554 -0.4814 -0.8748
vn -0.0284 -0.4454 -0.8949
vn -0.0284 -0.4455 -0.8948
vn -0.0556 -0.4815 -0.8747
vn -0.0283 -0.4453 -0.8949
vn 0.0079 -0.3956 -0.9184
vn 0.0080 -0.3955 -0.9184
vn -0.0283 -0.4453 -0.8950
vn 0.0078 -0.3957 -0.9184
vn -0.0284 -0.4455 -0.8949
vn -0.0248 -0.4405 -0.8974
vn -0.0247 -0.4404 -0.8974
vn -0.0832 -0.5173 -0.8518
vn -0.0831 -0.5172 -0.8518
vn -0.0246 -0.4403 -0.8975
vn -0.0833 -0.5174 -0.8517
vn -0.0542 -0.4798 -0.8757
vn -0.0542 -0.4797 -0.8757
vn -0.0586 -0.4856 -0.8722
vn -0.0587 -0.4857 -0.8721
vn -0.0593 -0.4867 -0.8716
vn -0.0586 -0.4855 -0.8723
vn -0.0587 -0.4856 -0.8722
vn -0.0644 -0.4930 -0.8676
vn -0.0651 -0.4941 -0.8670
vn -0.0876 -0.5231 -0.8478
vn -0.0877 -0.5232 -0.8477
vn -0.0640 -0.4928 -0.8678
vn -0.0639 -0.4926 -0.8679
vn -0.0877 -0.5231 -0.8477
vn -0.0642 -0.4929 -0.8677
vn -0.0641 -0.4928 -0.8678
vn -0.0984 -0.5367 -0.8380
vn -0.0985 -0.5368 -0.8379
vn -0.0797 -0.5130 -0.8547
vn -0.0795 -0.5127 -0.8548
vn -0.0984 -0.5366 -0.8381
vn -0.0984 -0.5366 -0.8380
vn -0.0795 -0.5128 -0.8548
vn -0.1206 -0.5642 -0.8168
vn -0.1208 -0.5643 -0.8167
vn -0.1037 -0.5433 -0.8331
vn -0.1036 -0.5432 -0.8332
vn -0.1208 -0.5644 -0.8167
vn -0.1207 -0.5642 -0.8168
vn -0.1338 -0.5801 -0.8035
vn -0.1339 -0.5802 -0.8034
vn -0.1037 -0.5434 -0.8331
vn -0.1336 -0.5799 -0.8036
vn -0.1039 -0.5436 -0.8329
vn -0.5498 -0.7640 0.3376
vn -0.5498 -0.7640 0.3375
vn -0.8210 0.3617 -0.4418
vn -0.8329 0.5037 -0.2293
vn -0.8323 0.5053 -0.2281
vn -0.8334 0.5038 -0.2274
vn -0.8331 0.5049 -0.2257
vn -0.8375 0.4979 -0.2250
vn -0.8372 0.4993 -0.2232
vn -0.8391 0.4935 -0.2287
vn -0.8394 0.4932 -0.2284
vn -0.8381 0.4944 -0.2306
vn -0.8392 0.4938 -0.2278
vn -0.8395 0.4939 -0.2266
vn -0.8383 0.4949 -0.2287
vn -0.8375 0.4976 -0.2258
vn -0.8390 0.4950 -0.2260
vn -0.8376 0.4979 -0.2250
vn -0.8375 0.4976 -0.2259
vn -0.8378 0.4959 -0.2283
vn -0.8382 0.4958 -0.2271
vn -0.8385 0.4971 -0.2233
vn -0.8377 0.4967 -0.2269
vn -0.8385 0.4965 -0.2245
vn -0.8383 0.4958 -0.2270
vn -0.8326 0.5040 -0.2297
vn -0.8328 0.5033 -0.2304
vn -0.8328 0.5034 -0.2304
vn -0.8294 0.5075 -0.2335
vn -0.8287 0.5076 -0.2356
vn -0.8273 0.5093 -0.2369
vn -0.8306 0.5049 -0.2348
vn -0.8343 0.4984 -0.2356
vn -0.8355 0.4966 -0.2353
vn -0.8436 0.4859 -0.2284
vn -0.8422 0.4881 -0.2290
vn -0.8300 0.5065 -0.2336
vn -0.8386 0.4917 -0.2344
vn -0.8314 0.5045 -0.2327
vn -0.8344 0.4983 -0.2356
vn -0.8308 0.5047 -0.2345
vn -0.8396 0.4920 -0.2301
vn -0.8366 0.4952 -0.2344
vn -0.8396 0.4920 -0.2303
vn -0.8366 0.4953 -0.2341
vn -0.8374 0.4946 -0.2325
vn -0.8375 0.4945 -0.2325
vn -0.8351 0.4978 -0.2342
vn -0.8324 0.5016 -0.2357
vn -0.8309 0.5053 -0.2330
vn -0.8391 0.4926 -0.2309
vn -0.8395 0.4924 -0.2300
vn -0.8326 0.5028 -0.2324
vn -0.8329 0.5027 -0.2316
vn -0.8317 0.5049 -0.2311
vn -0.8315 0.5055 -0.2305
vn -0.8325 0.5036 -0.2310
vn -0.8319 0.5052 -0.2295
vn -0.8331 0.5042 -0.2276
vn -0.8331 0.5038 -0.2283
vn -0.8331 0.5039 -0.2282
vn -0.8329 0.5037 -0.2292
vn -0.8328 0.5042 -0.2286
vn -0.8327 0.5052 -0.2268
vn -0.8371 0.4985 -0.2252
vn -0.8370 0.4999 -0.2227
vn -0.8371 0.5001 -0.2218
vn -0.8332 0.5058 -0.2235
vn -0.8374 0.5003 -0.2201
vn -0.8334 0.5050 -0.2245
vn -0.8335 0.5047 -0.2250
vn -0.5457 -0.8052 0.2321
vn -0.5185 -0.8546 0.0283
vn -0.4799 -0.8666 -0.1364
vn -0.4134 -0.8472 -0.3338
vn -0.3567 -0.8120 -0.4620
vn -0.2920 -0.7593 -0.5815
vn -0.2921 -0.7594 -0.5814
vn -0.1511 -0.6136 -0.7750
vn -0.0450 -0.4824 -0.8748
vn 0.0629 -0.3327 -0.9409
vn 0.1683 -0.1703 -0.9709
vn 0.2673 -0.0011 -0.9636
vn 0.2673 -0.0012 -0.9636
vn 0.3560 0.1679 -0.9193
vn 0.4311 0.3307 -0.8395
vn 0.4311 0.3306 -0.8396
vn 0.4895 0.4804 -0.7277
vn 0.4895 0.4805 -0.7277
vn 0.5292 0.6120 -0.5877
vn 0.5292 0.6120 -0.5878
vn 0.5485 0.7200 -0.4252
vn 0.5467 0.8002 -0.2464
vn 0.5467 0.8002 -0.2465
vn 0.5240 0.8498 -0.0582
vn 0.5240 0.8498 -0.0581
vn 0.4810 0.8666 0.1325
vn 0.4810 0.8666 0.1324
vn 0.4541 0.8630 0.2214
vn 0.4541 0.8630 0.2215
vn 0.3870 0.8323 0.3968
vn 0.3220 0.7851 0.5292
vn 0.3219 0.7851 0.5292
vn 0.3344 0.7951 0.5059
vn 0.3245 0.7872 0.5245
vn 0.3245 0.7872 0.5244
vn -0.3389 -0.1337 0.9313
vn -0.3485 -0.1528 0.9248
vn -0.3486 -0.1529 0.9247
vn -0.3762 -0.2095 0.9025
vn -0.4124 -0.2879 0.8643
vn -0.4591 -0.3989 0.7938
vn -0.4591 -0.3988 0.7938
vn -0.4885 -0.4775 0.7303
vn -0.5243 -0.5928 0.6113
vn -0.5243 -0.5929 0.6113
vn -0.5477 -0.7126 0.4384
vn -0.5478 -0.7126 0.4384
vn -0.5467 -0.8046 0.2319
vn -0.5214 -0.8529 0.0275
vn -0.4842 -0.8641 -0.1375
vn -0.4192 -0.8437 -0.3354
vn -0.3635 -0.8079 -0.4639
vn -0.3635 -0.8079 -0.4638
vn -0.2996 -0.7548 -0.5835
vn -0.1597 -0.6085 -0.7773
vn -0.1597 -0.6084 -0.7774
vn -0.0539 -0.4770 -0.8773
vn -0.0540 -0.4771 -0.8772
vn 0.0539 -0.3274 -0.9433
vn 0.0540 -0.3273 -0.9434
vn 0.1597 -0.1650 -0.9733
vn 0.1597 -0.1651 -0.9733
vn 0.2594 0.0035 -0.9658
vn 0.2594 0.0036 -0.9658
vn 0.3491 0.1721 -0.9211
vn 0.4254 0.3340 -0.8411
vn 0.4853 0.4830 -0.7289
vn 0.5266 0.6136 -0.5884
vn 0.5476 0.7205 -0.4255
vn 0.5476 0.7997 -0.2462
vn 0.5266 0.8482 -0.0575
vn 0.5266 0.8482 -0.0574
vn 0.4853 0.8641 0.1336
vn 0.4591 0.8600 0.2228
vn 0.3933 0.8286 0.3985
vn 0.3292 0.7808 0.5311
vn 0.3291 0.7807 0.5312
vn 0.3415 0.7909 0.5078
vn 0.3317 0.7829 0.5264
vn -0.3317 -0.1380 0.9332
vn -0.3415 -0.1571 0.9267
vn -0.3696 -0.2135 0.9043
vn -0.4064 -0.2915 0.8659
vn -0.4064 -0.2916 0.8659
vn -0.4540 -0.4019 0.7952
vn -0.4842 -0.4802 0.7314
vn -0.4842 -0.4801 0.7315
vn -0.5214 -0.5946 0.6120
vn -0.5467 -0.7132 0.4387
vn 0.8282 -0.5095 0.2336
vn 0.8283 -0.5109 0.2302
vn 0.8425 -0.4905 0.2227
vn 0.8432 -0.4912 0.2184
vn 0.8243 -0.5072 0.2516
vn 0.8339 -0.4959 0.2424
vn 0.8360 -0.4893 0.2483
vn 0.8524 -0.4674 0.2344
vn 0.8443 -0.4800 0.2380
vn 0.8387 -0.4858 0.2461
vn 0.8387 -0.4859 0.2459
vn 0.8411 -0.4837 0.2422
vn 0.8456 -0.4771 0.2396
vn 0.8480 -0.4758 0.2335
vn 0.8440 -0.4801 0.2393
vn 0.8451 -0.4794 0.2368
vn 0.8411 -0.4836 0.2421
vn 0.8429 -0.4827 0.2376
vn 0.8451 -0.4810 0.2331
vn 0.8448 -0.4810 0.2345
vn 0.8452 -0.4814 0.2321
vn 0.8458 -0.4816 0.2297
vn 0.8440 -0.4832 0.2329
vn 0.8433 -0.4865 0.2284
vn 0.8439 -0.4832 0.2330
vn 0.8453 -0.4834 0.2278
vn 0.8433 -0.4892 0.2223
vn 0.8431 -0.4883 0.2252
vn 0.8433 -0.4865 0.2285
vn 0.8430 -0.4852 0.2322
vn 0.8440 -0.4868 0.2251
vn 0.8439 -0.4889 0.2208
vn 0.8455 -0.4849 0.2237
vn 0.8443 -0.4846 0.2287
vn 0.8286 -0.5079 0.2357
vn 0.8285 -0.5079 0.2356
vn 0.8230 -0.5124 0.2450
vn 0.8215 -0.5128 0.2494
vn 0.8189 -0.5157 0.2518
vn 0.8238 -0.5112 0.2451
vn 0.8413 -0.4810 0.2468
vn 0.8268 -0.5070 0.2436
vn 0.8333 -0.4935 0.2490
vn 0.8260 -0.5067 0.2469
vn 0.8339 -0.4939 0.2463
vn 0.8285 -0.5016 0.2491
vn 0.8256 -0.5089 0.2439
vn 0.8287 -0.5065 0.2383
vn 0.8291 -0.5044 0.2411
vn 0.8286 -0.5046 0.2425
vn 0.8287 -0.5064 0.2384
vn 0.8281 -0.5069 0.2395
vn 0.8270 -0.5099 0.2368
vn 0.8269 -0.5086 0.2401
vn 0.8265 -0.5097 0.2390
vn 0.8280 -0.5084 0.2365
vn 0.8274 -0.5107 0.2337
vn 0.8426 -0.4945 0.2133
vn 0.8425 -0.4905 0.2226
vn 0.8422 -0.4937 0.2167
vn 0.8292 -0.5092 0.2306
vn 0.8294 -0.5113 0.2252
vn 0.8287 -0.5088 0.2330
vn 0.8286 -0.5099 0.2311
vn 0.8286 -0.5099 0.2310
vn 0.8290 -0.5109 0.2274
vn -0.8370 0.4996 -0.2233
vn -0.8370 0.4998 -0.2228
vn -0.8345 0.5031 -0.2246
vn -0.8356 0.5011 -0.2253
vn -0.8335 0.5046 -0.2251
vn -0.8341 0.5042 -0.2237
vn 0.8335 -0.5053 0.2235
vn 0.8317 -0.5071 0.2263
vn -0.8350 0.5022 -0.2249
vn -0.8375 0.4997 -0.2211
vn -0.8372 0.4981 -0.2258
vn -0.8369 0.5003 -0.2221
vn -0.8373 0.4992 -0.2230
vn -0.8380 0.4975 -0.2243
vn -0.8392 0.4946 -0.2260
vn -0.8382 0.4970 -0.2246
vn -0.8389 0.4954 -0.2255
vn -0.8379 0.4976 -0.2244
vn -0.8349 0.5026 -0.2245
vn -0.8355 0.5015 -0.2246
vn -0.8355 0.5016 -0.2244
vn -0.8362 0.5004 -0.2245
vn -0.8360 0.5008 -0.2244
vn -0.8366 0.4999 -0.2239
vn -0.8359 0.5010 -0.2244
vn -0.8359 0.5010 -0.2241
vn -0.8366 0.4997 -0.2244
vn -0.8366 0.4998 -0.2244
vn -0.8356 0.5019 -0.2234
vn -0.8374 0.4985 -0.2241
vn -0.8365 0.5001 -0.2238
vn -0.8373 0.4985 -0.2245
vn -0.8372 0.4987 -0.2244
vn -0.8362 0.5010 -0.2231
vn -0.8365 0.5005 -0.2232
vn -0.8336 0.5044 -0.2251
vn -0.8328 0.5062 -0.2240
vn -0.8331 0.5038 -0.2284
vn -0.8329 0.5041 -0.2285
vn -0.8328 0.5041 -0.2285
vn -0.8327 0.5051 -0.2267
vn -0.8332 0.5048 -0.2257
vn -0.8328 0.5041 -0.2286
vn -0.8351 0.5019 -0.2252
vn -0.8338 0.5037 -0.2260
vn -0.8353 0.5013 -0.2259
vn -0.8347 0.5021 -0.2261
vn -0.8347 0.5025 -0.2254
vn -0.8307 0.4099 -0.3768
vn -0.8349 0.5019 -0.2260
vn -0.8362 0.5003 -0.2246
vn -0.8342 0.5031 -0.2260
vn -0.8355 0.5018 -0.2241
vn -0.8342 0.5033 -0.2252
vn -0.8335 0.5041 -0.2262
vn -0.8335 0.5043 -0.2256
vn -0.8348 0.5029 -0.2239
vn -0.8337 0.5039 -0.2259
vn -0.8333 0.5047 -0.2255
vn -0.8344 0.5041 -0.2226
vn -0.8326 0.5055 -0.2263
vn -0.8336 0.5043 -0.2255
vn -0.8336 0.5047 -0.2245
vn -0.8327 0.5054 -0.2262
vn -0.8327 0.5055 -0.2259
vn -0.8329 0.5053 -0.2255
vn -0.8345 0.5036 -0.2239
vn -0.8332 0.5046 -0.2261
vn -0.8331 0.5051 -0.2256
vn -0.8333 0.5049 -0.2253
vn -0.8334 0.5047 -0.2254
vn -0.8341 0.5040 -0.2240
vn 0.8344 -0.4973 0.2377
vn 0.8306 -0.5048 0.2350
vn 0.8371 -0.4985 0.2254
vn 0.8333 -0.5010 0.2339
vn 0.8335 -0.5015 0.2318
vn 0.8368 -0.4989 0.2254
vn 0.8351 -0.5007 0.2279
vn 0.8336 -0.5019 0.2308
vn 0.8368 -0.4986 0.2261
vn 0.8369 -0.4986 0.2261
vn 0.8365 -0.5002 0.2237
vn 0.8366 -0.5010 0.2216
vn 0.8367 -0.4988 0.2262
vn 0.8374 -0.4992 0.2228
vn 0.8376 -0.4993 0.2216
vn 0.8367 -0.4994 0.2247
vn 0.8369 -0.4993 0.2241
vn 0.8367 -0.4988 0.2261
vn 0.8332 -0.4994 0.2372
vn 0.8343 -0.4975 0.2373
vn 0.8343 -0.4976 0.2374
vn 0.8343 -0.4977 0.2374
vn 0.8282 -0.5058 0.2412
vn 0.8351 -0.4947 0.2406
vn 0.8346 -0.4955 0.2408
vn 0.8355 -0.4959 0.2368
vn 0.8356 -0.4940 0.2401
vn 0.8418 -0.4865 0.2338
vn 0.8355 -0.4958 0.2368
vn 0.8349 -0.4966 0.2374
vn 0.8339 -0.4990 0.2358
vn 0.8396 -0.4919 0.2303
vn 0.8345 -0.4970 0.2379
vn 0.8345 -0.4984 0.2351
vn 0.8338 -0.5006 0.2327
vn 0.8337 -0.4991 0.2361
vn 0.8377 -0.4966 0.2272
vn 0.8341 -0.5003 0.2322
vn 0.8379 -0.4955 0.2289
vn 0.8345 -0.4984 0.2349
vn 0.8337 -0.5000 0.2344
vn 0.8339 -0.5005 0.2326
vn 0.8337 -0.5007 0.2329
vn 0.8337 -0.4999 0.2344
vn 0.8340 -0.4997 0.2339
vn 0.8332 -0.5036 0.2284
vn 0.8332 -0.5036 0.2283
vn 0.8329 -0.5055 0.2253
vn 0.8329 -0.5057 0.2250
vn 0.8341 -0.5027 0.2270
vn 0.8351 -0.5005 0.2283
vn 0.8375 -0.4952 0.2308
vn 0.8364 -0.4976 0.2298
vn 0.8308 -0.5048 0.2342
vn 0.8341 -0.4990 0.2352
vn 0.8341 -0.4995 0.2340
vn 0.8350 -0.4980 0.2341
vn 0.8341 -0.4997 0.2338
vn 0.8338 -0.5002 0.2336
vn 0.8315 -0.5049 0.2317
vn 0.8340 -0.5003 0.2326
vn 0.8346 -0.4993 0.2329
vn 0.8349 -0.4994 0.2315
vn 0.8317 -0.5053 0.2301
vn 0.8370 -0.4957 0.2316
vn 0.8328 -0.5051 0.2267
vn 0.8345 -0.5011 0.2292
vn 0.8361 -0.4978 0.2306
vn 0.8344 -0.5003 0.2312
vn 0.8351 -0.4990 0.2318
vn 0.8356 -0.4984 0.2310
vn 0.8324 -0.5051 0.2279
vn 0.8350 -0.4991 0.2317
vn 0.8325 -0.5046 0.2286
vn -0.2179 -0.2118 -0.9527
vn -0.0000 -0.4041 -0.9147
vn -0.0000 -0.4042 -0.9147
vn 0.0002 -0.4042 -0.9147
vn 0.0001 -0.4042 -0.9147
vn 0.0003 -0.4043 -0.9146
vn 0.0001 -0.4043 -0.9146
vn 0.0582 0.3002 0.9521
vn 0.2858 -0.4649 -0.8380
vn -0.2696 -0.2737 -0.9232
vn -0.2411 -0.2493 -0.9379
vn -0.2247 -0.2487 -0.9422
vn -0.0889 -0.3228 -0.9423
vn 0.5503 0.7638 -0.3375
vn -0.8350 0.5045 -0.2197
vn -0.8354 0.5045 -0.2183
vn -0.8357 0.5028 -0.2210
vn -0.8359 0.5022 -0.2214
vn -0.8362 0.5016 -0.2217
vn -0.8368 0.5003 -0.2224
vn -0.8350 0.5033 -0.2224
vn -0.8334 0.5052 -0.2241
vn -0.8337 0.5050 -0.2233
vn -0.8339 0.5049 -0.2229
vn -0.8343 0.5047 -0.2217
vn -0.8347 0.5046 -0.2205
vn 0.8350 -0.5063 0.2156
vn 0.8354 -0.5051 0.2167
vn 0.8361 -0.5033 0.2180
vn 0.8366 -0.5022 0.2188
vn 0.8371 -0.5012 0.2195
vn 0.8375 -0.5002 0.2199
vn 0.8406 -0.4938 0.2224
vn 0.8350 -0.5033 0.2224
vn 0.8328 -0.5070 0.2221
vn 0.8331 -0.5068 0.2213
vn 0.8338 -0.5066 0.2193
vn 0.8345 -0.5064 0.2172
vn 0.8292 -0.5125 0.2232
vn 0.8302 -0.5090 0.2274
vn 0.8325 -0.5073 0.2229
vn -0.8350 0.5022 -0.2248
vn 0.8350 -0.5050 0.2187
vn 0.8354 -0.5049 0.2170
vn 0.8358 -0.5030 0.2202
vn 0.8361 -0.5022 0.2208
vn 0.8364 -0.5015 0.2212
vn 0.8367 -0.5008 0.2215
vn 0.8371 -0.5001 0.2218
vn 0.8375 -0.4992 0.2221
vn 0.8325 -0.5063 0.2250
vn 0.8329 -0.5060 0.2243
vn 0.8333 -0.5057 0.2235
vn 0.8335 -0.5055 0.2230
vn 0.8337 -0.5054 0.2224
vn 0.8342 -0.5052 0.2211
vn 0.8347 -0.5051 0.2197
vn 0.5498 0.7640 -0.3376
vn -0.5489 -0.7401 0.3884
vn -0.5490 -0.7406 0.3874
vn -0.5490 -0.7401 0.3884
vn -0.5493 -0.7402 0.3878
vn 0.6542 0.7280 -0.2049
vn 0.8987 -0.0992 0.4272
vn 0.8144 -0.4006 0.4198
vn 0.6635 -0.4614 0.5890
vn 0.5603 -0.5250 0.6407
vn 0.8679 -0.1950 0.4569
vn 0.8139 -0.4005 0.4209
vn 0.8141 -0.3997 0.4213
vn 0.4338 0.8618 -0.2627
vn -0.6054 0.7955 0.0254
vn -0.8227 0.5651 -0.0609
vn -0.8227 0.5652 -0.0609
vn -0.8854 0.4372 0.1580
vn -0.9016 0.3873 0.1929
vn -0.6137 0.7891 0.0271
vn -0.8226 0.5652 -0.0621
vn -0.8230 0.5646 -0.0626
vn 0.9754 0.1866 -0.1174
vn 0.5493 0.7392 -0.3896
vn -0.2048 0.8955 -0.3951
vn 0.5494 0.7406 -0.3868
vn -0.2030 0.8956 -0.3959
vn -0.2024 0.8952 -0.3970
vn 0.9828 0.1691 -0.0747
vn 0.9828 0.1691 -0.0746
vn -0.1457 -0.9677 0.2056
vn -0.5432 -0.6925 0.4747
vn -0.8256 -0.5639 0.0210
vn -0.9219 -0.3750 0.0970
vn -0.9447 -0.2782 0.1735
vn 0.0925 -0.8883 0.4498
vn 0.0276 -0.9370 0.3481
vn 0.8697 0.4159 -0.2659
vn 0.8722 0.4152 -0.2585
vn 0.6464 0.6722 -0.3610
vn 0.6466 0.6722 -0.3607
vn 0.2280 -0.5599 -0.7966
vn 0.2401 -0.5324 -0.8118
vn 0.2362 -0.5214 -0.8200
vn 0.1186 -0.4458 -0.8872
vn 0.4370 0.7966 -0.4177
vn 0.4447 0.7979 -0.4069
vn 0.1055 0.8772 -0.4684
vn 0.1011 0.8744 -0.4746
vn -0.0924 0.8673 -0.4891
vn -0.0873 0.8717 -0.4822
vn -0.2787 0.8306 -0.4821
vn -0.2835 0.8252 -0.4885
vn -0.4646 0.7498 -0.4710
vn -0.4610 0.7552 -0.4660
vn -0.6263 0.6486 -0.4325
vn -0.6283 0.6446 -0.4356
vn -0.7678 0.5140 -0.3825
vn -0.7673 0.5155 -0.3815
vn -0.8776 0.3619 -0.3143
vn -0.8773 0.3635 -0.3134
vn -0.9524 0.1990 -0.2310
vn -0.9527 0.1944 -0.2337
vn -0.9894 0.0204 -0.1439
vn -0.9898 0.0271 -0.1398
vn -0.9869 -0.1535 -0.0495
vn -0.9883 -0.1457 -0.0447
vn -0.9484 -0.3132 0.0487
vn -0.9462 -0.3207 0.0437
vn -0.8698 -0.4757 0.1308
vn -0.8724 -0.4698 0.1353
vn -0.7638 -0.6103 0.2102
vn -0.7617 -0.6139 0.2070
vn -0.6271 -0.7307 0.2699
vn -0.6262 -0.7319 0.2688
vn -0.4683 -0.8262 0.3133
vn -0.4673 -0.8272 0.3121
vn -0.2929 -0.8940 0.3392
vn -0.2900 -0.8964 0.3353
vn -0.1012 -0.9352 0.3395
vn -0.1056 -0.9324 0.3457
vn 0.0874 -0.9388 0.3333
vn 0.0925 -0.9410 0.3255
vn 0.2840 -0.9123 0.2951
vn 0.2791 -0.9111 0.3034
vn 0.4618 -0.8485 0.2583
vn 0.4654 -0.8487 0.2510
vn 0.6274 -0.7522 0.2013
vn 0.6294 -0.7519 0.1962
vn 0.7691 -0.6249 0.1341
vn 0.7685 -0.6252 0.1360
vn 0.8786 -0.4727 0.0676
vn 0.8789 -0.4724 0.0658
vn 0.9534 -0.3017 -0.0006
vn 0.9537 -0.3007 -0.0059
vn 0.9901 -0.1177 -0.0765
vn 0.9905 -0.1192 -0.0686
vn 0.9872 0.0681 -0.1440
vn 0.9886 0.0664 -0.1349
vn 0.9462 0.2484 -0.2073
vn 0.9485 0.2471 -0.1984
vn 0.5498 0.7641 -0.3375
vn 0.0001 -0.4041 -0.9147
vn 0.3763 0.8475 -0.3745
vn 0.3763 0.8475 -0.3744
vn 0.9212 0.3559 -0.1572
vn 0.9567 0.2607 -0.1294
vn 0.9635 0.2447 -0.1081
vn 1.0000 0.0063 -0.0028
vn -0.0069 0.9147 -0.4041
vn 0.7022 0.6512 -0.2878
vn -0.3891 0.8426 -0.3723
vn -0.0780 0.9119 -0.4029
vn -0.1348 0.8954 -0.4243
vn -0.4338 0.8242 -0.3642
vn -0.2496 0.8857 -0.3914
vn 0.9991 -0.0386 0.0170
vn 0.9717 -0.2161 0.0955
vn -0.7456 0.6096 -0.2693
vn -0.6012 0.7309 -0.3229
vn 0.9392 0.3141 -0.1388
vn 0.9881 0.1404 -0.0621
vn -0.9438 0.3022 -0.1335
vn -0.8613 0.4648 -0.2054
vn 0.7363 0.6189 -0.2735
vn 0.8542 0.4757 -0.2102
vn 0.0560 -0.9133 0.4035
vn -0.9984 -0.0512 0.0226
vn -0.1399 -0.9057 0.4002
vn -0.9902 0.1280 -0.0565
vn 0.4213 0.8296 -0.3665
vn 0.5901 0.7384 -0.3263
vn 0.4338 -0.8242 0.3641
vn -0.9010 -0.3968 0.1753
vn 0.2497 -0.8857 0.3914
vn -0.9683 -0.2284 0.1009
vn 0.0422 0.9139 -0.4038
vn 0.2363 0.8888 -0.3927
vn 0.7456 -0.6096 0.2693
vn 0.6012 -0.7309 0.3230
vn 0.6012 -0.7309 0.3229
vn -0.7991 -0.5499 0.2430
vn -0.3434 0.8591 -0.3796
vn -0.1536 0.9038 -0.3994
vn 0.9438 -0.3022 0.1335
vn 0.8613 -0.4648 0.2054
vn -0.6767 0.6735 -0.2976
vn -0.5200 0.7813 -0.3452
vn 0.9984 0.0512 -0.0226
vn 0.9902 -0.1280 0.0565
vn -0.9069 0.3854 -0.1703
vn -0.8073 0.5398 -0.2385
vn 0.9010 0.3968 -0.1753
vn 0.9683 0.2284 -0.1009
vn -0.0422 -0.9139 0.4038
vn -0.9991 0.0386 -0.0170
vn -0.2363 -0.8888 0.3927
vn -0.9717 0.2161 -0.0955
vn 0.6664 0.6820 -0.3013
vn 0.7991 0.5499 -0.2430
vn 0.3434 -0.8591 0.3796
vn -0.9392 -0.3141 0.1388
vn 0.1536 -0.9038 0.3994
vn -0.9881 -0.1404 0.0621
vn 0.3304 0.8633 -0.3815
vn 0.5082 0.7878 -0.3481
vn 0.6767 -0.6735 0.2976
vn 0.5200 -0.7813 0.3452
vn -0.8542 -0.4756 0.2102
vn -0.0560 0.9133 -0.4035
vn 0.1399 0.9057 -0.4002
vn 0.9069 -0.3854 0.1703
vn 0.8073 -0.5398 0.2385
vn -0.0000 0.4042 0.9147
vn -0.0000 0.4041 0.9147
vn -0.0001 0.4041 0.9147
vn 0.0001 0.4042 0.9147
vn 0.0001 0.4041 0.9147
vn -0.0001 0.4042 0.9147
vn -0.0001 -0.4041 -0.9147
vn -0.0001 -0.4042 -0.9147
vn 0.6945 -0.1936 0.6929
vn -0.4640 0.6154 0.6371
vn 0.8192 -0.5721 0.0395
vn 0.4640 0.0567 0.8840
vn 0.4641 0.0566 0.8840
vn 0.8192 -0.4144 0.3964
vn -0.6945 0.6427 0.3234
vn -0.6945 0.1936 -0.6929
vn -0.4641 -0.0566 -0.8840
vn -0.1629 -0.2983 -0.9405
vn 0.4641 -0.6154 -0.6371
vn 0.4640 -0.6154 -0.6371
vn 0.1629 -0.4945 -0.8538
vn 0.1631 0.2982 0.9405
vn 0.1630 0.2982 0.9405
vn -0.8192 0.5721 -0.0395
vn -0.8192 0.4144 -0.3964
vn 0.6945 -0.6427 -0.3234
vn -0.1630 0.4945 0.8537
vn -0.5901 -0.7405 0.3216
vn -0.5721 -0.7442 0.3447
vn -0.5082 -0.7864 0.3511
vn -0.5084 -0.7862 0.3512
vn -0.4546 -0.8163 0.3563
vn -0.4213 -0.8275 0.3712
vn -0.6386 -0.6966 0.3271
vn -0.6663 -0.6894 0.2841
vn -0.5695 -0.7513 0.3333
vn -0.5901 -0.7399 0.3228
vn -0.5088 -0.7881 0.3465
vn -0.5082 -0.7883 0.3468
vn -0.4213 -0.8280 0.3701
vn -0.3962 -0.8471 0.3542
vn -0.3299 -0.8635 0.3815
vn -0.3304 -0.8580 0.3932
vn -0.4479 -0.8207 0.3547
vn -0.3475 -0.8592 0.3754
vn -0.3437 -0.8571 0.3838
vn -0.3857 -0.8330 0.3966
vn -0.3303 -0.8732 0.3583
vn -0.6664 -0.6785 0.3090
vn -0.6348 -0.7108 0.3030
vn -0.6888 -0.6684 0.2805
vn -0.6752 -0.6825 0.2800
vn -0.7311 -0.6241 0.2758
vn -0.6885 -0.6536 0.3143
vn -0.6944 -0.6504 0.3079
vn -0.7357 -0.6346 0.2367
vn -0.7361 -0.6105 0.2922
s 0
f 1//1 3//1 2//1
f 4//2 6//2 5//2
f 6//2 4//2 1//2
f 1//1 4//1 3//1
f 7//1 2//1 3//1
f 2//3 7//3 8//3
f 9//1 8//1 7//1
f 10//4 12//4 11//4
f 13//5 15//5 14//5
f 15//5 13//5 10//5
f 12//6 10//6 13//6
f 16//4 11//4 12//4
f 11//6 16//6 17//6
f 18//5 17//5 16//5
f 19//7 21//7 20//7
f 22//8 24//8 23//8
f 24//9 22//9 19//9
f 21//10 19//10 22//10
f 25//11 20//11 21//11
f 20//12 25//12 6//12
f 5//13 6//13 25//13
f 26//14 28//14 27//14
f 29//15 17//15 18//15
f 17//16 29//16 26//16
f 28//17 26//17 29//17
f 30//18 27//18 28//18
f 27//19 30//19 31//19
f 32//20 31//20 30//20
f 33//21 35//21 34//21
f 36//22 38//22 37//22
f 38//23 36//23 33//23
f 35//24 33//24 36//24
f 39//25 34//25 35//25
f 34//26 39//26 24//26
f 23//27 24//27 39//27
f 40//28 42//28 41//28
f 43//29 31//29 32//29
f 31//30 43//30 40//30
f 42//31 40//31 43//31
f 44//32 41//32 42//32
f 41//33 44//33 45//33
f 46//34 45//34 44//34
f 47//35 49//35 48//35
f 50//36 52//36 51//36
f 52//37 50//37 47//37
f 49//38 47//38 50//38
f 53//39 48//39 49//39
f 48//40 53//40 38//40
f 37//41 38//41 53//41
f 54//42 56//42 55//42
f 57//43 45//43 46//43
f 45//44 57//44 54//44
f 56//45 54//45 57//45
f 58//46 55//46 56//46
f 55//47 58//47 59//47
f 60//48 59//48 58//48
f 61//49 63//49 62//49
f 64//50 66//50 65//50
f 66//51 64//51 61//51
f 63//52 61//52 64//52
f 67//53 62//53 63//53
f 62//54 67//54 52//54
f 51//55 52//55 67//55
f 68//56 70//56 69//56
f 71//57 59//57 60//57
f 59//58 71//58 68//58
f 70//59 68//59 71//59
f 72//60 69//60 70//60
f 69//61 72//61 73//61
f 74//62 73//62 72//62
f 75//63 77//63 76//63
f 78//64 80//64 79//64
f 80//65 78//65 75//65
f 77//66 75//66 78//66
f 81//67 76//67 77//67
f 76//68 81//68 66//68
f 65//69 66//69 81//69
f 82//70 84//70 83//70
f 85//71 73//71 74//71
f 73//72 85//72 82//72
f 84//73 82//73 85//73
f 86//74 83//74 84//74
f 83//75 86//75 87//75
f 88//76 87//76 86//76
f 89//77 91//77 90//77
f 92//78 94//78 93//78
f 94//79 92//79 89//79
f 91//80 89//80 92//80
f 95//81 90//81 91//81
f 90//82 95//82 80//82
f 79//83 80//83 95//83
f 96//84 98//84 97//84
f 99//85 87//85 88//85
f 87//86 99//86 96//86
f 98//87 96//87 99//87
f 100//88 97//88 98//88
f 97//89 100//89 101//89
f 102//90 101//90 100//90
f 103//91 105//91 104//91
f 106//92 108//92 107//92
f 108//93 106//93 103//93
f 105//93 103//93 106//93
f 109//94 104//94 105//94
f 104//95 109//95 94//95
f 93//95 94//95 109//95
f 110//96 112//96 111//96
f 113//97 101//97 102//97
f 101//97 113//97 110//97
f 112//98 110//98 113//98
f 114//99 111//99 112//99
f 111//99 114//99 115//99
f 116//100 115//100 114//100
f 117//101 119//101 118//101
f 120//102 122//102 121//102
f 122//103 120//103 117//103
f 119//104 117//104 120//104
f 123//101 118//101 119//101
f 118//105 123//105 108//105
f 107//106 108//106 123//106
f 124//107 126//107 125//107
f 127//108 115//108 116//108
f 115//109 127//109 124//109
f 126//110 124//110 127//110
f 128//107 125//107 126//107
f 125//111 128//111 129//111
f 130//112 129//112 128//112
f 131//113 133//113 132//113
f 134//114 136//114 135//114
f 136//115 134//115 131//115
f 133//116 131//116 134//116
f 137//117 132//117 133//117
f 132//118 137//118 122//118
f 121//119 122//119 137//119
f 138//120 140//120 139//120
f 141//121 129//121 130//121
f 129//122 141//122 138//122
f 140//123 138//123 141//123
f 142//124 139//124 140//124
f 139//125 142//125 143//125
f 144//126 143//126 142//126
f 145//127 147//127 146//127
f 148//128 150//128 149//128
f 150//129 148//129 145//129
f 147//130 145//130 148//130
f 151//131 146//131 147//131
f 146//132 151//132 136//132
f 135//133 136//133 151//133
f 152//134 154//134 153//134
f 155//135 143//135 144//135
f 143//136 155//136 152//136
f 154//137 152//137 155//137
f 156//138 153//138 154//138
f 153//139 156//139 157//139
f 158//140 157//140 156//140
f 159//141 161//141 160//141
f 162//142 164//142 163//142
f 164//143 162//143 159//143
f 161//144 159//144 162//144
f 165//145 160//145 161//145
f 160//146 165//146 150//146
f 149//147 150//147 165//147
f 166//148 168//148 167//148
f 169//149 157//149 158//149
f 157//150 169//150 166//150
f 168//151 166//151 169//151
f 170//152 167//152 168//152
f 167//153 170//153 171//153
f 172//154 171//154 170//154
f 173//155 175//155 174//155
f 176//156 178//156 177//156
f 178//157 176//157 173//157
f 175//158 173//158 176//158
f 179//159 174//159 175//159
f 174//160 179//160 164//160
f 163//161 164//161 179//161
f 180//162 182//162 181//162
f 183//163 171//163 172//163
f 171//164 183//164 180//164
f 182//165 180//165 183//165
f 184//166 181//166 182//166
f 181//167 184//167 185//167
f 186//168 185//168 184//168
f 187//169 189//169 188//169
f 190//170 192//170 191//170
f 192//171 190//171 187//171
f 189//172 187//172 190//172
f 193//173 188//173 189//173
f 188//174 193//174 178//174
f 177//175 178//175 193//175
f 194//176 196//176 195//176
f 197//177 185//177 186//177
f 185//178 197//178 194//178
f 196//179 194//179 197//179
f 198//180 195//180 196//180
f 195//181 198//181 199//181
f 200//182 199//182 198//182
f 201//1 203//1 202//1
f 204//2 206//2 205//2
f 206//2 204//2 201//2
f 203//1 201//1 204//1
f 207//1 202//1 203//1
f 202//1 207//1 192//1
f 191//1 192//1 207//1
f 208//6 210//6 209//6
f 211//5 199//5 200//5
f 199//4 211//4 208//4
f 210//6 208//6 211//6
f 212//6 209//6 210//6
f 209//5 212//5 213//5
f 214//5 213//5 212//5
f 215//1 217//1 216//1
f 218//2 220//2 219//2
f 220//1 218//1 215//1
f 217//1 215//1 218//1
f 221//2 216//2 217//2
f 216//1 221//1 206//1
f 205//1 206//1 221//1
f 222//6 224//6 223//6
f 225//6 213//6 214//6
f 213//6 225//6 222//6
f 224//4 222//4 225//4
f 226//6 223//6 224//6
f 223//6 226//6 227//6
f 228//6 227//6 226//6
f 229//183 13//183 14//183
f 13//184 229//184 230//184
f 230//185 12//185 13//185
f 12//186 230//186 231//186
f 9//187 233//187 232//187
f 233//188 9//188 7//188
f 7//186 234//186 233//186
f 234//186 7//186 3//186
f 231//188 16//188 12//188
f 16//188 231//188 235//188
f 235//186 18//186 16//186
f 18//186 235//186 236//186
f 3//188 237//188 234//188
f 237//188 3//188 4//188
f 4//186 238//186 237//186
f 238//185 4//185 5//185
f 236//189 29//189 18//189
f 29//189 236//189 239//189
f 239//190 28//190 29//190
f 28//190 239//190 240//190
f 5//189 241//189 238//189
f 241//189 5//189 25//189
f 25//190 242//190 241//190
f 242//190 25//190 21//190
f 240//191 30//191 28//191
f 30//192 240//192 243//192
f 243//193 32//193 30//193
f 32//193 243//193 244//193
f 21//191 245//191 242//191
f 245//191 21//191 22//191
f 22//194 246//194 245//194
f 246//193 22//193 23//193
f 244//195 43//195 32//195
f 43//196 244//196 247//196
f 247//197 42//197 43//197
f 42//197 247//197 248//197
f 23//196 249//196 246//196
f 249//198 23//198 39//198
f 39//197 250//197 249//197
f 250//197 39//197 35//197
f 248//199 44//199 42//199
f 44//200 248//200 251//200
f 251//201 46//201 44//201
f 46//201 251//201 252//201
f 35//202 253//202 250//202
f 253//203 35//203 36//203
f 36//201 254//201 253//201
f 254//204 36//204 37//204
f 252//205 57//205 46//205
f 57//206 252//206 255//206
f 255//207 56//207 57//207
f 56//207 255//207 256//207
f 37//206 257//206 254//206
f 257//206 37//206 53//206
f 53//207 258//207 257//207
f 258//207 53//207 49//207
f 256//208 58//208 56//208
f 58//209 256//209 259//209
f 259//210 60//210 58//210
f 60//210 259//210 260//210
f 49//209 261//209 258//209
f 261//211 49//211 50//211
f 50//210 262//210 261//210
f 262//210 50//210 51//210
f 260//212 71//212 60//212
f 71//213 260//213 263//213
f 263//214 70//214 71//214
f 70//214 263//214 264//214
f 51//213 265//213 262//213
f 265//215 51//215 67//215
f 67//214 266//214 265//214
f 266//216 67//216 63//216
f 264//216 72//216 70//216
f 72//214 264//214 267//214
f 267//214 74//214 72//214
f 74//214 267//214 268//214
f 63//214 269//214 266//214
f 269//216 63//216 64//216
f 64//214 270//214 269//214
f 270//217 64//217 65//217
f 268//218 85//218 74//218
f 85//219 268//219 271//219
f 271//218 84//218 85//218
f 84//219 271//219 272//219
f 65//219 273//219 270//219
f 273//220 65//220 81//220
f 81//221 274//221 273//221
f 274//222 81//222 77//222
f 272//223 86//223 84//223
f 86//223 272//223 275//223
f 275//224 88//224 86//224
f 88//225 275//225 276//225
f 77//223 277//223 274//223
f 277//226 77//226 78//226
f 78//225 278//225 277//225
f 278//224 78//224 79//224
f 276//227 99//227 88//227
f 99//227 276//227 279//227
f 279//228 98//228 99//228
f 98//229 279//229 280//229
f 79//230 281//230 278//230
f 281//231 79//231 95//231
f 95//229 282//229 281//229
f 282//228 95//228 91//228
f 280//232 100//232 98//232
f 100//233 280//233 283//233
f 283//234 102//234 100//234
f 102//235 283//235 284//235
f 91//236 285//236 282//236
f 285//237 91//237 92//237
f 92//238 286//238 285//238
f 286//234 92//234 93//234
f 284//239 113//239 102//239
f 113//240 284//240 287//240
f 287//240 112//240 113//240
f 112//240 287//240 288//240
f 93//240 289//240 286//240
f 289//239 93//239 109//239
f 109//240 290//240 289//240
f 290//240 109//240 105//240
f 288//239 114//239 112//239
f 114//239 288//239 291//239
f 291//241 116//241 114//241
f 116//241 291//241 292//241
f 105//240 293//240 290//240
f 293//239 105//239 106//239
f 106//241 294//241 293//241
f 294//241 106//241 107//241
f 292//242 127//242 116//242
f 127//242 292//242 295//242
f 295//243 126//243 127//243
f 126//243 295//243 296//243
f 107//244 297//244 294//244
f 297//245 107//245 123//245
f 123//246 298//246 297//246
f 298//247 123//247 119//247
f 296//248 128//248 126//248
f 128//248 296//248 299//248
f 299//243 130//243 128//243
f 130//249 299//249 300//249
f 119//243 301//243 298//243
f 301//243 119//243 120//243
f 120//246 302//246 301//246
f 302//246 120//246 121//246
f 300//250 141//250 130//250
f 141//251 300//251 303//251
f 303//252 140//252 141//252
f 140//253 303//253 304//253
f 121//254 305//254 302//254
f 305//250 121//250 137//250
f 137//255 306//255 305//255
f 306//252 137//252 133//252
f 304//256 142//256 140//256
f 142//257 304//257 307//257
f 307//258 144//258 142//258
f 144//253 307//253 308//253
f 133//259 309//259 306//259
f 309//256 133//256 134//256
f 134//260 310//260 309//260
f 310//252 134//252 135//252
f 308//261 155//261 144//261
f 155//262 308//262 311//262
f 311//263 154//263 155//263
f 154//264 311//264 312//264
f 135//265 313//265 310//265
f 313//265 135//265 151//265
f 151//266 314//266 313//266
f 314//266 151//266 147//266
f 312//265 156//265 154//265
f 156//262 312//262 315//262
f 315//267 158//267 156//267
f 158//268 315//268 316//268
f 147//262 317//262 314//262
f 317//265 147//265 148//265
f 148//268 318//268 317//268
f 318//267 148//267 149//267
f 316//269 169//269 158//269
f 169//270 316//270 319//270
f 319//269 168//269 169//269
f 168//271 319//271 320//271
f 149//272 321//272 318//272
f 321//273 149//273 165//273
f 165//274 322//274 321//274
f 322//275 165//275 161//275
f 320//276 170//276 168//276
f 170//277 320//277 323//277
f 323//278 172//278 170//278
f 172//279 323//279 324//279
f 161//276 325//276 322//276
f 325//280 161//280 162//280
f 162//281 326//281 325//281
f 326//282 162//282 163//282
f 324//283 183//283 172//283
f 183//284 324//284 327//284
f 327//285 182//285 183//285
f 182//286 327//286 328//286
f 163//287 329//287 326//287
f 329//288 163//288 179//288
f 179//289 330//289 329//289
f 330//285 179//285 175//285
f 328//290 184//290 182//290
f 184//291 328//291 331//291
f 331//292 186//292 184//292
f 186//293 331//293 332//293
f 175//294 333//294 330//294
f 333//295 175//295 176//295
f 176//292 334//292 333//292
f 334//292 176//292 177//292
f 332//296 197//296 186//296
f 197//297 332//297 335//297
f 335//292 196//292 197//292
f 196//298 335//298 336//298
f 177//299 337//299 334//299
f 337//296 177//296 193//296
f 193//300 338//300 337//300
f 338//300 193//300 189//300
f 336//301 198//301 196//301
f 198//301 336//301 339//301
f 339//301 200//301 198//301
f 200//301 339//301 340//301
f 189//301 341//301 338//301
f 341//301 189//301 190//301
f 190//301 342//301 341//301
f 342//301 190//301 191//301
f 340//302 211//302 200//302
f 211//301 340//301 343//301
f 343//301 210//301 211//301
f 210//301 343//301 344//301
f 191//302 345//302 342//302
f 345//302 191//302 207//302
f 207//301 346//301 345//301
f 346//301 207//301 203//301
f 344//301 212//301 210//301
f 212//301 344//301 347//301
f 347//302 214//302 212//302
f 214//301 347//301 348//301
f 203//301 349//301 346//301
f 349//301 203//301 204//301
f 204//301 350//301 349//301
f 350//301 204//301 205//301
f 348//301 225//301 214//301
f 225//301 348//301 351//301
f 351//301 224//301 225//301
f 224//301 351//301 352//301
f 205//301 353//301 350//301
f 353//301 205//301 221//301
f 221//301 354//301 353//301
f 354//301 221//301 217//301
f 352//302 226//302 224//302
f 226//301 352//301 355//301
f 355//301 228//301 226//301
f 228//301 355//301 356//301
f 217//302 357//302 354//302
f 357//301 217//301 218//301
f 218//301 358//301 357//301
f 358//301 218//301 219//301
f 298//303 301//303 305//303
f 41//304 359//304 40//304
f 359//305 41//305 360//305
f 11//306 361//306 10//306
f 361//307 11//307 362//307
f 223//308 363//308 222//308
f 363//309 223//309 364//309
f 157//310 366//310 365//310
f 366//311 157//311 166//311
f 366//312 166//312 167//312
f 366//313 167//313 171//313
f 366//314 171//314 367//314
f 367//315 171//315 180//315
f 209//316 363//316 208//316
f 367//315 180//315 181//315
f 367//317 181//317 368//317
f 213//318 222//318 363//318
f 213//319 363//319 209//319
f 199//319 208//319 363//319
f 368//320 181//320 185//320
f 368//321 185//321 194//321
f 199//322 363//322 369//322
f 199//323 369//323 195//323
f 195//324 369//324 368//324
f 195//325 368//325 194//325
f 360//326 41//326 45//326
f 360//327 45//327 54//327
f 360//328 54//328 55//328
f 370//329 87//329 96//329
f 371//330 97//330 101//330
f 372//331 110//331 111//331
f 373//332 372//332 111//332
f 373//333 111//333 115//333
f 373//334 115//334 124//334
f 374//335 125//335 129//335
f 375//336 138//336 139//336
f 83//337 87//337 370//337
f 96//338 97//338 371//338
f 96//339 371//339 370//339
f 101//340 110//340 372//340
f 101//341 372//341 371//341
f 373//334 124//334 125//334
f 373//342 125//342 374//342
f 374//343 129//343 138//343
f 374//344 138//344 375//344
f 375//345 139//345 143//345
f 365//346 152//346 153//346
f 365//347 153//347 157//347
f 73//348 82//348 376//348
f 82//349 83//349 370//349
f 82//350 370//350 376//350
f 152//351 365//351 375//351
f 152//352 375//352 143//352
f 69//353 73//353 376//353
f 59//354 68//354 377//354
f 68//355 69//355 376//355
f 68//356 376//356 377//356
f 55//357 59//357 377//357
f 55//358 377//358 360//358
f 362//359 11//359 17//359
f 362//360 17//360 26//360
f 362//361 26//361 27//361
f 31//362 40//362 359//362
f 27//363 31//363 359//363
f 27//364 359//364 362//364
f 227//365 364//365 223//365
f 378//366 364//366 227//366
f 379//367 378//367 227//367
f 380//368 381//368 15//368
f 382//369 379//369 227//369
f 383//370 380//370 15//370
f 361//371 383//371 15//371
f 361//306 15//306 10//306
f 362//372 384//372 361//372
f 384//372 362//372 385//372
f 383//373 361//373 384//373
f 384//373 386//373 383//373
f 380//374 383//374 386//374
f 386//374 387//374 380//374
f 381//375 380//375 387//375
f 387//375 388//375 381//375
f 389//376 381//376 388//376
f 388//376 390//376 389//376
f 391//377 389//377 390//377
f 390//378 392//378 391//378
f 393//379 391//379 392//379
f 392//379 394//379 393//379
f 395//380 393//380 394//380
f 394//380 396//380 395//380
f 397//381 395//381 396//381
f 396//381 398//381 397//381
f 399//382 397//382 398//382
f 398//382 400//382 399//382
f 401//383 399//383 400//383
f 400//384 402//384 401//384
f 382//385 401//385 402//385
f 402//385 403//385 382//385
f 379//386 382//386 403//386
f 403//387 404//387 379//387
f 378//388 379//388 404//388
f 404//389 405//389 378//389
f 364//390 378//390 405//390
f 405//391 406//391 364//391
f 364//392 407//392 363//392
f 407//392 364//392 406//392
f 369//393 363//393 407//393
f 407//394 408//394 369//394
f 368//395 369//395 408//395
f 408//396 409//396 368//396
f 367//397 368//397 409//397
f 409//398 410//398 367//398
f 366//399 367//399 410//399
f 410//400 411//400 366//400
f 366//401 412//401 365//401
f 412//401 366//401 411//401
f 375//402 365//402 412//402
f 412//403 413//403 375//403
f 374//404 375//404 413//404
f 413//404 414//404 374//404
f 373//405 374//405 414//405
f 414//406 415//406 373//406
f 372//407 373//407 415//407
f 415//407 416//407 372//407
f 371//408 372//408 416//408
f 416//409 417//409 371//409
f 370//410 371//410 417//410
f 417//410 418//410 370//410
f 376//411 370//411 418//411
f 418//411 419//411 376//411
f 377//412 376//412 419//412
f 419//413 420//413 377//413
f 360//414 377//414 420//414
f 420//414 421//414 360//414
f 360//415 422//415 359//415
f 422//416 360//416 421//416
f 362//417 359//417 422//417
f 422//418 385//418 362//418
f 423//419 425//419 424//419
f 425//419 423//419 426//419
f 427//420 424//420 425//420
f 425//420 428//420 427//420
f 429//421 427//421 428//421
f 428//421 430//421 429//421
f 431//422 429//422 430//422
f 430//422 432//422 431//422
f 433//423 431//423 432//423
f 432//424 434//424 433//424
f 435//425 433//425 434//425
f 434//425 436//425 435//425
f 437//426 435//426 436//426
f 436//427 438//427 437//427
f 439//428 437//428 438//428
f 438//429 440//429 439//429
f 441//430 439//430 440//430
f 440//431 442//431 441//431
f 443//432 441//432 442//432
f 442//433 444//433 443//433
f 445//434 443//434 444//434
f 444//435 446//435 445//435
f 447//436 445//436 446//436
f 446//436 448//436 447//436
f 449//437 447//437 448//437
f 448//437 450//437 449//437
f 451//438 449//438 450//438
f 450//438 452//438 451//438
f 453//439 451//439 452//439
f 452//439 454//439 453//439
f 453//440 456//440 455//440
f 456//440 453//440 454//440
f 457//441 455//441 456//441
f 456//441 458//441 457//441
f 459//442 457//442 458//442
f 458//443 460//443 459//443
f 461//444 459//444 460//444
f 460//444 462//444 461//444
f 463//445 461//445 462//445
f 462//445 464//445 463//445
f 463//446 466//446 465//446
f 466//446 463//446 464//446
f 467//447 465//447 466//447
f 466//448 468//448 467//448
f 469//449 467//449 468//449
f 468//449 470//449 469//449
f 471//450 469//450 470//450
f 470//450 472//450 471//450
f 473//451 471//451 472//451
f 472//451 474//451 473//451
f 475//452 473//452 474//452
f 474//452 476//452 475//452
f 477//453 475//453 476//453
f 476//453 478//453 477//453
f 479//454 477//454 478//454
f 478//455 480//455 479//455
f 481//456 479//456 480//456
f 480//456 482//456 481//456
f 483//457 481//457 482//457
f 482//458 484//458 483//458
f 483//459 486//459 485//459
f 486//459 483//459 484//459
f 423//460 485//460 486//460
f 486//460 426//460 423//460
f 20//461 486//461 19//461
f 486//462 20//462 426//462
f 216//463 454//463 215//463
f 454//464 216//464 456//464
f 108//465 474//465 472//465
f 474//466 108//466 103//466
f 472//467 118//467 108//467
f 470//468 122//468 117//468
f 472//467 117//467 118//467
f 472//469 470//469 117//469
f 470//470 132//470 122//470
f 468//471 136//471 131//471
f 466//472 145//472 146//472
f 131//473 470//473 468//473
f 131//474 132//474 470//474
f 146//475 468//475 466//475
f 146//476 136//476 468//476
f 466//477 150//477 145//477
f 159//478 160//478 464//478
f 466//479 160//479 150//479
f 466//480 464//480 160//480
f 464//481 164//481 159//481
f 464//482 462//482 164//482
f 462//483 174//483 164//483
f 188//484 458//484 187//484
f 462//485 173//485 174//485
f 462//486 460//486 173//486
f 206//487 456//487 216//487
f 206//488 201//488 456//488
f 458//489 192//489 187//489
f 460//490 178//490 173//490
f 202//491 192//491 458//491
f 201//492 458//492 456//492
f 201//491 202//491 458//491
f 188//493 460//493 458//493
f 188//494 178//494 460//494
f 486//461 24//461 19//461
f 486//495 34//495 24//495
f 486//496 33//496 34//496
f 478//497 90//497 80//497
f 476//498 94//498 89//498
f 474//499 103//499 104//499
f 75//500 478//500 80//500
f 90//501 476//501 89//501
f 90//502 478//502 476//502
f 94//503 474//503 104//503
f 94//504 476//504 474//504
f 66//505 480//505 76//505
f 76//506 478//506 75//506
f 76//507 480//507 478//507
f 48//508 484//508 47//508
f 52//509 482//509 62//509
f 61//510 480//510 66//510
f 38//511 484//511 48//511
f 47//512 482//512 52//512
f 47//513 484//513 482//513
f 62//514 480//514 61//514
f 62//515 482//515 480//515
f 33//516 484//516 38//516
f 33//517 486//517 484//517
f 452//518 450//518 220//518
f 454//519 220//519 215//519
f 454//520 452//520 220//520
f 8//521 425//521 2//521
f 425//522 8//522 428//522
f 6//523 426//523 20//523
f 1//524 426//524 6//524
f 2//525 426//525 1//525
f 2//526 425//526 426//526
f 238//527 485//527 423//527
f 485//528 238//528 241//528
f 282//529 473//529 475//529
f 473//530 282//530 285//530
f 338//531 457//531 459//531
f 457//532 338//532 341//532
f 229//533 385//533 230//533
f 385//534 229//534 384//534
f 232//535 423//535 424//535
f 423//536 232//536 233//536
f 423//537 233//537 234//537
f 423//537 234//537 237//537
f 423//537 237//537 238//537
f 485//538 241//538 242//538
f 485//539 242//539 245//539
f 485//540 245//540 246//540
f 485//541 246//541 249//541
f 485//542 249//542 250//542
f 485//543 250//543 253//543
f 485//544 253//544 254//544
f 475//545 477//545 281//545
f 475//546 281//546 282//546
f 278//547 281//547 477//547
f 278//548 477//548 277//548
f 274//549 277//549 477//549
f 265//550 266//550 481//550
f 273//551 274//551 477//551
f 273//182 477//182 479//182
f 270//552 273//552 479//552
f 270//553 479//553 269//553
f 266//554 269//554 479//554
f 266//555 479//555 481//555
f 257//556 258//556 483//556
f 262//557 265//557 481//557
f 262//558 481//558 261//558
f 258//559 261//559 481//559
f 258//560 481//560 483//560
f 254//561 257//561 483//561
f 254//561 483//561 485//561
f 457//562 341//562 342//562
f 457//360 342//360 345//360
f 357//563 358//563 453//563
f 457//564 345//564 346//564
f 353//565 354//565 455//565
f 455//566 354//566 357//566
f 455//567 357//567 453//567
f 349//568 455//568 457//568
f 349//360 457//360 346//360
f 350//565 353//565 455//565
f 350//569 455//569 349//569
f 473//58 285//58 286//58
f 473//570 286//570 289//570
f 473//570 289//570 290//570
f 473//570 290//570 293//570
f 471//571 473//571 293//571
f 471//572 293//572 294//572
f 471//573 294//573 297//573
f 469//574 298//574 305//574
f 305//575 301//575 302//575
f 471//576 297//576 298//576
f 471//577 298//577 469//577
f 469//578 305//578 306//578
f 469//579 306//579 467//579
f 309//162 467//162 306//162
f 310//580 467//580 309//580
f 313//581 467//581 310//581
f 465//582 314//582 317//582
f 314//583 465//583 467//583
f 314//584 467//584 313//584
f 463//585 321//585 322//585
f 337//586 338//586 459//586
f 329//587 330//587 461//587
f 465//588 317//588 318//588
f 333//589 459//589 461//589
f 333//590 461//590 330//590
f 334//591 337//591 459//591
f 334//592 459//592 333//592
f 321//593 463//593 465//593
f 321//594 465//594 318//594
f 326//595 329//595 461//595
f 326//596 461//596 325//596
f 463//597 322//597 325//597
f 463//598 325//598 461//598
f 280//599 416//599 283//599
f 416//600 280//600 417//600
f 328//601 411//601 410//601
f 411//602 328//602 327//602
f 410//603 331//603 328//603
f 410//604 409//604 331//604
f 335//605 409//605 336//605
f 332//606 409//606 335//606
f 332//606 331//606 409//606
f 347//607 344//607 408//607
f 343//608 408//608 344//608
f 406//609 355//609 407//609
f 406//610 356//610 355//610
f 352//611 407//611 355//611
f 340//607 408//607 343//607
f 340//612 339//612 408//612
f 409//613 339//613 336//613
f 409//614 408//614 339//614
f 351//611 407//611 352//611
f 347//615 408//615 407//615
f 348//611 407//611 351//611
f 348//616 347//616 407//616
f 416//617 284//617 283//617
f 416//618 287//618 284//618
f 416//619 288//619 287//619
f 416//620 291//620 288//620
f 415//621 291//621 416//621
f 415//622 292//622 291//622
f 415//623 295//623 292//623
f 414//624 299//624 296//624
f 415//625 296//625 295//625
f 415//626 414//626 296//626
f 414//627 300//627 299//627
f 303//628 300//628 414//628
f 307//629 304//629 413//629
f 304//630 414//630 413//630
f 304//631 303//631 414//631
f 308//632 307//632 413//632
f 320//633 319//633 411//633
f 311//634 308//634 413//634
f 319//635 412//635 411//635
f 323//636 320//636 411//636
f 312//637 413//637 412//637
f 312//638 311//638 413//638
f 315//639 312//639 412//639
f 324//640 411//640 327//640
f 324//641 323//641 411//641
f 316//642 412//642 319//642
f 316//643 315//643 412//643
f 385//644 231//644 230//644
f 385//645 235//645 231//645
f 385//644 236//644 235//644
f 385//646 239//646 236//646
f 385//647 240//647 239//647
f 385//648 243//648 240//648
f 385//649 244//649 243//649
f 385//650 247//650 244//650
f 385//651 248//651 247//651
f 417//652 279//652 418//652
f 417//653 280//653 279//653
f 276//654 418//654 279//654
f 276//655 275//655 418//655
f 272//656 418//656 275//656
f 271//657 418//657 272//657
f 271//658 419//658 418//658
f 268//659 419//659 271//659
f 268//660 267//660 419//660
f 263//661 420//661 264//661
f 419//662 264//662 420//662
f 419//660 267//660 264//660
f 248//663 422//663 251//663
f 248//664 385//664 422//664
f 252//665 422//665 255//665
f 252//666 251//666 422//666
f 260//667 420//667 263//667
f 260//668 259//668 420//668
f 255//669 421//669 256//669
f 255//670 422//670 421//670
f 256//671 420//671 259//671
f 256//672 421//672 420//672
f 487//673 489//673 488//673
f 490//674 492//674 491//674
f 491//674 487//674 490//674
f 493//675 491//675 492//675
f 491//675 493//675 494//675
f 493//674 496//674 495//674
f 495//674 494//674 493//674
f 497//675 495//675 496//675
f 495//674 497//674 498//674
f 499//676 498//676 497//676
f 498//677 499//677 500//677
f 499//677 502//677 501//677
f 501//677 500//677 499//677
f 502//675 504//675 503//675
f 503//675 501//675 502//675
f 504//674 506//674 505//674
f 505//675 503//675 504//675
f 506//674 508//674 507//674
f 508//675 510//675 509//675
f 506//674 511//674 505//674
f 506//674 507//674 511//674
f 510//674 512//674 509//674
f 513//675 509//675 512//675
f 509//674 513//674 514//674
f 513//675 516//675 515//675
f 515//675 514//675 513//675
f 517//674 515//674 516//674
f 515//674 517//674 518//674
f 519//674 518//674 517//674
f 518//675 519//675 520//675
f 519//675 522//675 521//675
f 521//675 520//675 519//675
f 522//675 524//675 523//675
f 523//675 521//675 522//675
f 525//675 523//675 524//675
f 523//674 525//674 526//674
f 525//674 528//674 527//674
f 527//674 526//674 525//674
f 529//678 531//678 530//678
f 532//675 534//675 533//675
f 534//674 532//674 535//674
f 532//674 537//674 536//674
f 536//675 535//675 532//675
f 538//674 536//674 537//674
f 536//679 538//679 539//679
f 538//680 541//680 540//680
f 540//679 539//679 538//679
f 542//675 540//675 541//675
f 540//674 542//674 543//674
f 542//674 545//674 544//674
f 544//674 543//674 542//674
f 546//675 544//675 545//675
f 544//674 546//674 547//674
f 546//674 549//674 548//674
f 548//674 547//674 546//674
f 548//681 488//681 489//681
f 550//682 487//682 488//682
f 551//683 487//683 550//683
f 552//684 487//684 551//684
f 490//685 487//685 552//685
f 9//686 232//686 553//686
f 219//301 554//301 358//301
f 228//301 356//301 555//301
f 14//686 556//686 229//686
f 397//687 555//687 556//687
f 556//688 395//688 397//688
f 555//689 397//689 399//689
f 555//690 399//690 401//690
f 555//691 401//691 382//691
f 555//692 382//692 227//692
f 555//693 227//693 228//693
f 556//693 14//693 15//693
f 381//694 556//694 15//694
f 389//695 556//695 381//695
f 391//696 556//696 389//696
f 393//697 556//697 391//697
f 395//698 556//698 393//698
f 440//699 553//699 554//699
f 554//700 442//700 440//700
f 554//701 444//701 442//701
f 554//702 446//702 444//702
f 554//703 448//703 446//703
f 554//704 450//704 448//704
f 554//705 220//705 450//705
f 554//706 219//706 220//706
f 553//706 8//706 9//706
f 434//707 432//707 553//707
f 436//708 434//708 553//708
f 438//709 436//709 553//709
f 440//710 438//710 553//710
f 430//711 428//711 8//711
f 553//712 430//712 8//712
f 553//713 432//713 430//713
f 232//535 441//535 358//535
f 441//714 232//714 439//714
f 358//535 441//535 443//535
f 358//535 443//535 445//535
f 358//535 445//535 447//535
f 358//535 447//535 449//535
f 358//535 449//535 451//535
f 358//535 451//535 453//535
f 427//535 232//535 424//535
f 429//535 232//535 427//535
f 431//535 232//535 429//535
f 433//535 232//535 431//535
f 435//535 232//535 433//535
f 437//535 232//535 435//535
f 439//535 232//535 437//535
f 229//715 356//715 398//715
f 398//716 396//716 229//716
f 356//717 400//717 398//717
f 356//718 402//718 400//718
f 356//719 403//719 402//719
f 356//720 404//720 403//720
f 356//721 405//721 404//721
f 356//722 406//722 405//722
f 386//723 384//723 229//723
f 387//724 386//724 229//724
f 388//725 387//725 229//725
f 390//726 388//726 229//726
f 392//727 390//727 229//727
f 394//728 392//728 229//728
f 396//729 394//729 229//729
f 487//730 491//730 557//730
f 547//730 548//730 558//730
f 515//731 518//731 559//731
f 521//732 523//732 560//732
f 520//732 521//732 560//732
f 518//733 520//733 559//733
f 520//734 560//734 559//734
f 553//735 495//735 498//735
f 553//736 498//736 500//736
f 554//737 503//737 505//737
f 554//737 505//737 511//737
f 554//738 511//738 507//738
f 554//739 507//739 509//739
f 553//740 500//740 501//740
f 503//741 554//741 553//741
f 503//742 553//742 501//742
f 556//743 540//743 543//743
f 556//744 539//744 540//744
f 555//745 534//745 535//745
f 555//746 530//746 534//746
f 555//747 529//747 530//747
f 555//748 527//748 529//748
f 556//749 536//749 539//749
f 535//750 556//750 555//750
f 535//751 536//751 556//751
f 232//752 494//752 495//752
f 495//753 553//753 232//753
f 229//754 543//754 544//754
f 543//755 229//755 556//755
f 229//756 547//756 558//756
f 547//757 229//757 544//757
f 232//758 557//758 491//758
f 491//759 494//759 232//759
f 358//760 509//760 514//760
f 509//761 358//761 554//761
f 356//762 526//762 527//762
f 527//761 555//761 356//761
f 356//763 523//763 526//763
f 523//764 356//764 560//764
f 358//765 515//765 559//765
f 515//766 358//766 514//766
f 493//767 562//767 561//767
f 562//768 493//768 492//768
f 492//769 490//769 563//769
f 563//770 562//770 492//770
f 564//771 488//771 548//771
f 565//772 564//772 548//772
f 566//773 565//773 548//773
f 549//774 566//774 548//774
f 549//775 546//775 567//775
f 567//776 568//776 549//776
f 546//777 569//777 567//777
f 569//778 546//778 545//778
f 545//779 542//779 570//779
f 570//780 569//780 545//780
f 542//781 571//781 570//781
f 571//782 542//782 541//782
f 541//783 538//783 572//783
f 572//784 571//784 541//784
f 538//785 573//785 572//785
f 573//786 538//786 537//786
f 537//787 532//787 574//787
f 574//788 573//788 537//788
f 532//789 575//789 574//789
f 575//790 532//790 533//790
f 533//791 531//791 576//791
f 576//792 575//792 533//792
f 531//793 577//793 576//793
f 577//794 531//794 578//794
f 578//795 579//795 577//795
f 579//796 578//796 528//796
f 528//797 525//797 580//797
f 580//798 579//798 528//798
f 525//799 581//799 580//799
f 581//800 525//800 524//800
f 524//801 522//801 582//801
f 582//802 581//802 524//802
f 522//803 519//803 583//803
f 583//804 582//804 522//804
f 519//805 584//805 583//805
f 584//806 519//806 517//806
f 517//807 585//807 584//807
f 585//808 517//808 516//808
f 516//809 513//809 586//809
f 586//810 585//810 516//810
f 513//811 587//811 586//811
f 587//812 513//812 512//812
f 512//813 510//813 588//813
f 588//814 587//814 512//814
f 510//815 589//815 588//815
f 589//816 510//816 508//816
f 508//817 590//817 589//817
f 590//818 508//818 506//818
f 506//819 504//819 591//819
f 591//820 590//820 506//820
f 504//821 502//821 592//821
f 592//822 591//822 504//822
f 502//823 499//823 593//823
f 593//824 592//824 502//824
f 499//825 594//825 593//825
f 594//826 499//826 497//826
f 497//827 595//827 594//827
f 595//828 497//828 496//828
f 561//829 595//829 496//829
f 496//830 493//830 561//830
f 487//730 597//730 596//730
f 596//730 489//730 487//730
f 489//730 596//730 598//730
f 489//730 599//730 548//730
f 599//730 489//730 600//730
f 489//730 598//730 600//730
f 487//730 601//730 597//730
f 487//730 557//730 602//730
f 602//730 601//730 487//730
f 548//730 599//730 603//730
f 548//730 604//730 558//730
f 604//730 548//730 603//730
f 557//730 605//730 602//730
f 557//730 606//730 605//730
f 558//730 604//730 607//730
f 558//730 607//730 608//730
f 558//730 608//730 609//730
f 557//730 610//730 606//730
f 557//730 611//730 610//730
f 558//831 609//831 611//831
f 557//730 558//730 611//730
f 533//674 534//674 530//674
f 533//674 530//674 531//674
f 578//832 527//832 528//832
f 531//676 527//676 578//676
f 531//678 529//678 527//678
f 550//833 488//833 612//833
f 612//834 613//834 550//834
f 564//835 565//835 614//835
f 614//835 615//835 564//835
f 566//836 549//836 568//836
f 568//837 616//837 566//837
f 565//838 566//838 616//838
f 616//838 614//838 565//838
f 551//839 550//839 613//839
f 613//839 617//839 551//839
f 564//840 612//840 488//840
f 612//840 564//840 615//840
f 552//841 551//841 617//841
f 617//841 618//841 552//841
f 490//842 552//842 618//842
f 618//843 563//843 490//843
f 508//677 509//677 507//677
f 619//844 621//844 620//844
f 620//844 622//844 619//844
f 623//845 625//845 624//845
f 624//845 626//845 623//845
f 627//846 629//846 628//846
f 628//846 630//846 627//846
f 631//847 633//847 632//847
f 632//847 634//847 631//847
f 635//848 637//848 636//848
f 636//848 638//848 635//848
f 639//849 641//849 640//849
f 640//849 642//849 639//849
f 643//850 645//850 644//850
f 644//850 646//850 643//850
f 647//851 649//851 648//851
f 648//851 650//851 647//851
f 651//852 653//852 652//852
f 652//852 654//852 651//852
f 655//853 657//853 656//853
f 656//853 658//853 655//853
f 659//854 661//854 660//854
f 660//854 662//854 659//854
f 663//855 665//855 664//855
f 664//855 666//855 663//855
f 667//856 669//856 668//856
f 668//856 670//856 667//856
f 671//857 673//857 672//857
f 672//857 674//857 671//857
f 675//858 677//858 676//858
f 676//858 678//858 675//858
f 679//859 681//859 680//859
f 680//859 682//859 679//859
f 683//860 685//860 684//860
f 684//860 686//860 683//860
f 687//861 689//861 688//861
f 688//861 690//861 687//861
f 691//862 693//862 692//862
f 692//862 694//862 691//862
f 695//863 697//863 696//863
f 696//863 698//863 695//863
f 699//864 701//864 700//864
f 700//864 702//864 699//864
f 703//865 705//865 704//865
f 704//865 706//865 703//865
f 707//866 709//866 708//866
f 708//866 710//866 707//866
f 711//867 713//867 712//867
f 712//867 714//867 711//867
f 715//868 717//868 716//868
f 716//868 718//868 715//868
f 719//869 721//869 720//869
f 720//870 722//870 719//870
f 723//871 725//871 724//871
f 724//871 726//871 723//871
f 621//872 623//872 626//872
f 626//872 620//872 621//872
f 625//873 728//873 727//873
f 727//873 624//873 625//873
f 633//874 730//874 729//874
f 729//874 632//874 633//874
f 731//875 733//875 732//875
f 732//875 734//875 731//875
f 637//876 639//876 642//876
f 642//876 636//876 637//876
f 641//877 619//877 622//877
f 622//877 640//877 641//877
f 649//878 627//878 630//878
f 630//878 648//878 649//878
f 629//879 631//879 634//879
f 634//879 628//879 629//879
f 653//880 655//880 658//880
f 658//880 652//880 653//880
f 657//881 635//881 638//881
f 638//881 656//881 657//881
f 665//882 643//882 646//882
f 646//882 664//882 665//882
f 645//883 647//883 650//883
f 650//883 644//883 645//883
f 669//884 675//884 678//884
f 678//884 668//884 669//884
f 673//885 679//885 682//885
f 682//885 672//885 673//885
f 677//886 736//886 735//886
f 735//886 676//886 677//886
f 681//887 651//887 654//887
f 654//887 680//887 681//887
f 689//888 659//888 662//888
f 662//888 688//888 689//888
f 661//889 663//889 666//889
f 666//889 660//889 661//889
f 693//890 699//890 702//890
f 702//890 692//890 693//890
f 697//891 703//891 706//891
f 706//891 696//891 697//891
f 701//892 667//892 670//892
f 670//892 700//892 701//892
f 705//893 671//893 674//893
f 674//893 704//893 705//893
f 713//894 683//894 686//894
f 686//894 712//894 713//894
f 685//895 687//895 690//895
f 690//895 684//895 685//895
f 717//896 719//896 722//896
f 722//896 716//896 717//896
f 721//897 691//897 694//897
f 694//897 720//897 721//897
f 725//898 695//898 698//898
f 698//898 724//898 725//898
f 728//899 707//899 710//899
f 710//899 727//899 728//899
f 709//900 711//900 714//900
f 714//900 708//900 709//900
f 730//901 731//901 734//901
f 734//901 729//901 730//901
f 733//902 715//902 718//902
f 718//902 732//902 733//902
f 584//903 684//903 583//903
f 737//903 613//903 612//903
f 588//904 589//904 622//904
f 678//904 676//904 614//904
f 579//903 644//903 650//903
f 594//903 672//903 682//903
f 580//904 664//904 646//904
f 577//904 579//904 648//904
f 582//904 583//904 688//904
f 727//903 587//903 624//903
f 712//903 585//903 714//903
f 580//904 581//904 664//904
f 581//904 582//904 660//904
f 580//903 646//903 644//903
f 356//674 229//674 733//674
f 613//904 738//904 726//904
f 582//904 662//904 660//904
f 595//903 561//903 706//903
f 569//903 570//903 670//903
f 714//904 585//904 708//904
f 739//903 740//903 612//903
f 577//904 630//904 628//904
f 579//903 580//903 644//903
f 708//903 586//903 710//903
f 579//903 650//903 648//903
f 710//903 586//903 727//903
f 581//903 660//903 666//903
f 594//903 595//903 674//903
f 571//904 572//904 694//904
f 561//904 698//904 696//904
f 581//904 666//904 664//904
f 624//905 587//905 626//905
f 613//904 737//904 738//904
f 626//906 588//906 620//906
f 593//903 680//903 654//903
f 620//905 588//905 622//905
f 587//904 588//904 626//904
f 622//903 589//903 640//903
f 575//903 632//903 729//903
f 575//903 576//903 632//903
f 576//903 577//903 628//903
f 575//903 729//903 734//903
f 642//904 590//904 636//904
f 590//904 591//904 638//904
f 636//904 590//904 638//904
f 574//904 575//904 734//904
f 656//903 638//903 591//903
f 574//904 734//904 732//904
f 658//904 656//904 591//904
f 574//903 732//903 718//903
f 658//904 591//904 592//904
f 573//904 574//904 718//904
f 652//903 658//903 592//903
f 573//904 718//904 716//904
f 654//904 652//904 592//904
f 573//904 716//904 722//904
f 592//903 593//903 654//903
f 720//903 572//903 722//903
f 585//903 586//903 708//903
f 694//904 572//904 720//904
f 678//903 614//903 567//903
f 686//907 684//907 584//907
f 593//904 594//904 682//904
f 692//903 571//903 694//903
f 561//904 696//904 706//904
f 702//904 571//904 692//904
f 615//904 614//904 676//904
f 700//903 570//903 702//903
f 595//903 704//903 674//903
f 670//903 570//903 700//903
f 584//903 585//903 712//903
f 668//903 569//903 670//903
f 593//904 682//904 680//904
f 741//907 739//907 615//907
f 594//904 674//904 672//904
f 678//904 569//904 668//904
f 640//903 589//903 642//903
f 576//904 628//904 634//904
f 561//904 562//904 698//904
f 735//903 615//903 676//903
f 589//903 590//903 642//903
f 741//903 615//903 735//903
f 686//903 584//903 712//903
f 576//903 634//903 632//903
f 572//903 573//903 722//903
f 583//904 690//904 688//904
f 726//903 724//903 617//903
f 684//903 690//903 583//903
f 570//903 571//903 702//903
f 688//904 662//904 582//904
f 577//904 648//904 630//904
f 615//904 739//904 612//904
f 595//903 706//903 704//903
f 740//904 737//904 612//904
f 586//903 587//903 727//903
f 698//903 562//903 617//903
f 724//908 698//908 617//908
f 569//903 678//903 567//903
f 567//904 614//904 616//904
f 618//903 617//903 562//903
f 567//903 616//903 568//903
f 563//904 618//904 562//904
f 617//904 613//904 726//904
f 559//674 728//674 625//674
f 689//674 687//674 560//674
f 685//832 559//832 687//832
f 631//675 629//675 356//675
f 559//675 709//675 707//675
f 559//674 713//674 711//674
f 659//674 560//674 661//674
f 559//675 711//675 709//675
f 661//675 560//675 663//675
f 559//674 707//674 728//674
f 663//674 560//674 665//674
f 358//674 637//674 635//674
f 665//674 560//674 643//674
f 358//909 635//909 657//909
f 559//675 560//675 687//675
f 358//675 559//675 625//675
f 625//832 623//832 358//832
f 623//910 621//910 358//910
f 621//832 619//832 358//832
f 619//675 641//675 358//675
f 641//674 639//674 358//674
f 558//675 675//675 669//675
f 629//674 627//674 356//674
f 627//674 649//674 356//674
f 647//675 560//675 649//675
f 645//675 560//675 647//675
f 643//675 560//675 645//675
f 659//674 689//674 560//674
f 358//674 639//674 637//674
f 631//675 356//675 633//675
f 558//674 667//674 701//674
f 633//675 356//675 730//675
f 558//674 701//674 699//674
f 730//675 356//675 731//675
f 232//675 358//675 657//675
f 731//674 356//674 733//674
f 655//674 232//674 657//674
f 229//909 715//909 733//909
f 653//675 232//675 655//675
f 229//674 717//674 715//674
f 651//674 232//674 653//674
f 229//674 719//674 717//674
f 681//675 232//675 651//675
f 229//675 721//675 719//675
f 679//674 232//674 681//674
f 229//674 691//674 721//674
f 673//675 232//675 679//675
f 229//675 693//675 691//675
f 671//674 232//674 673//674
f 229//674 699//674 693//674
f 705//675 232//675 671//675
f 229//675 558//675 699//675
f 703//675 557//675 705//675
f 560//675 356//675 649//675
f 697//674 557//674 703//674
f 695//674 557//674 697//674
f 557//675 232//675 705//675
f 725//675 557//675 695//675
f 559//910 685//910 683//910
f 558//674 677//674 675//674
f 558//674 669//674 667//674
f 723//675 557//675 725//675
f 558//674 736//674 677//674
f 742//674 557//674 723//674
f 558//674 743//674 736//674
f 744//674 557//674 742//674
f 558//910 745//910 743//910
f 746//674 557//674 744//674
f 558//832 746//832 745//832
f 558//675 557//675 746//675
f 559//675 683//675 713//675
f 607//911 747//911 608//911
f 747//911 607//911 748//911
f 610//912 749//912 606//912
f 749//912 610//912 750//912
f 603//913 751//913 604//913
f 751//913 603//913 752//913
f 608//914 753//914 609//914
f 753//915 608//915 747//915
f 604//916 748//916 607//916
f 748//916 604//916 751//916
f 606//917 754//917 605//917
f 754//917 606//917 749//917
f 601//918 755//918 597//918
f 755//918 601//918 756//918
f 597//919 757//919 596//919
f 757//919 597//919 755//919
f 596//920 758//920 598//920
f 758//920 596//920 757//920
f 600//921 759//921 599//921
f 759//922 600//922 760//922
f 598//923 760//923 600//923
f 760//923 598//923 758//923
f 609//924 761//924 611//924
f 761//925 609//925 753//925
f 605//926 762//926 602//926
f 762//926 605//926 754//926
f 602//927 756//927 601//927
f 756//927 602//927 762//927
f 599//928 752//928 603//928
f 752//928 599//928 759//928
f 611//929 750//929 610//929
f 750//929 611//929 761//929
f 761//930 746//930 744//930
f 744//931 750//931 761//931
f 745//932 746//932 761//932
f 761//933 753//933 745//933
f 745//934 753//934 747//934
f 747//935 743//935 745//935
f 742//936 749//936 750//936
f 750//937 744//937 742//937
f 740//938 758//938 757//938
f 757//939 737//939 740//939
f 739//940 760//940 758//940
f 758//941 740//941 739//941
f 741//942 760//942 739//942
f 735//943 752//943 759//943
f 735//944 736//944 751//944
f 741//945 735//945 759//945
f 759//946 760//946 741//946
f 752//947 735//947 751//947
f 736//948 748//948 751//948
f 736//949 747//949 748//949
f 736//950 743//950 747//950
f 757//951 738//951 737//951
f 757//952 755//952 738//952
f 756//953 726//953 755//953
f 726//954 756//954 762//954
f 723//955 726//955 762//955
f 754//956 723//956 762//956
f 749//957 723//957 754//957
f 742//958 723//958 749//958
f 726//959 738//959 755//959
