# Blender 5.0.1
# www.blender.org
mtllib left_shoulder_y_link_visual_1.mtl
o i01.leftArm.omoplate.full.002_visual.001
v -0.066527 -0.110824 0.354142
v -0.066998 -0.110488 0.358909
v -0.066998 -0.111160 0.349378
v -0.066527 -0.146417 0.356651
v 0.066956 -0.111160 0.349376
v -0.066998 -0.146753 0.351885
v 0.066485 -0.110824 0.354142
v 0.066485 -0.146417 0.356651
v 0.066956 -0.110488 0.358909
v 0.066956 -0.146753 0.351886
v 0.068349 -0.147076 0.347303
v 0.068349 -0.111483 0.344794
v 0.070613 -0.147374 0.343079
v -0.068392 -0.147076 0.347301
v -0.070655 -0.147374 0.343078
v -0.068392 -0.111483 0.344794
v -0.070655 -0.111781 0.340569
v -0.073701 -0.112042 0.336867
v 0.070613 -0.111781 0.340569
v -0.073701 -0.147635 0.339376
v -0.077413 -0.147849 0.336339
v 0.073659 -0.147635 0.339376
v 0.077370 -0.147849 0.336339
v 0.077370 -0.112256 0.333830
v 0.081605 -0.148008 0.334080
v 0.073659 -0.112042 0.336867
v -0.077413 -0.112256 0.333830
v -0.081647 -0.112415 0.331571
v -0.081647 -0.148008 0.334080
v -0.086242 -0.148106 0.332688
v 0.086200 -0.148106 0.332688
v 0.086200 -0.112513 0.330181
v 0.090978 -0.148139 0.332218
v 0.141423 -0.149845 0.310057
v -0.141187 -0.149845 0.310057
v 0.081605 -0.112415 0.331571
v -0.086242 -0.112514 0.330181
v -0.091020 -0.112547 0.329710
v -0.141187 -0.114136 0.307539
v -0.091020 -0.148139 0.332218
v -0.095799 -0.148106 0.332688
v -0.095799 -0.112514 0.330181
v -0.100393 -0.112415 0.331571
v -0.104628 -0.112256 0.333830
v -0.100393 -0.148008 0.334080
v -0.104628 -0.147849 0.336339
v -0.108339 -0.147635 0.339376
v -0.108340 -0.112042 0.336867
v -0.111385 -0.111781 0.340569
v -0.113649 -0.111483 0.344794
v -0.111385 -0.147374 0.343079
v -0.113649 -0.147076 0.347303
v -0.115042 -0.146753 0.351886
v -0.115043 -0.111160 0.349376
v -0.115513 -0.110824 0.354142
v -0.141187 -0.108638 0.385534
v 0.141423 -0.108638 0.385534
v -0.141187 -0.144347 0.388052
v 0.086200 -0.109135 0.378106
v -0.086242 -0.109135 0.378106
v -0.091020 -0.109102 0.378576
v -0.095799 -0.109135 0.378106
v -0.100393 -0.109233 0.376715
v -0.104628 -0.109392 0.374457
v -0.108340 -0.109607 0.371419
v -0.111385 -0.109868 0.367716
v -0.113649 -0.110165 0.363492
v -0.115043 -0.110488 0.358909
v 0.141423 -0.144347 0.388052
v 0.115471 -0.146417 0.356651
v 0.115000 -0.146081 0.361417
v 0.113607 -0.145758 0.366000
v 0.111343 -0.145460 0.370226
v 0.108297 -0.145199 0.373928
v 0.104586 -0.144985 0.376966
v 0.100351 -0.144826 0.379224
v 0.095756 -0.144728 0.380613
v 0.090978 -0.144695 0.381085
v 0.086200 -0.144728 0.380613
v 0.115000 -0.146753 0.351885
v 0.115000 -0.111160 0.349378
v 0.113607 -0.147076 0.347301
v 0.115471 -0.110824 0.354142
v 0.115000 -0.110488 0.358909
v 0.113606 -0.110165 0.363492
v 0.111343 -0.109867 0.367716
v 0.108297 -0.109606 0.371419
v 0.104586 -0.109392 0.374457
v 0.100351 -0.109233 0.376715
v 0.095756 -0.109135 0.378106
v 0.090978 -0.109102 0.378576
v 0.113606 -0.111483 0.344794
v 0.111343 -0.147374 0.343078
v 0.111343 -0.111781 0.340569
v 0.108297 -0.147635 0.339376
v 0.108297 -0.112042 0.336867
v 0.104586 -0.147849 0.336339
v 0.104586 -0.112256 0.333830
v 0.100351 -0.148008 0.334080
v 0.100351 -0.112415 0.331571
v 0.095756 -0.148106 0.332688
v 0.095756 -0.112513 0.330181
v 0.090978 -0.112547 0.329710
v 0.141423 -0.114136 0.307539
v 0.141239 0.282201 0.279639
v 0.141422 -0.157672 -0.310058
v 0.141422 -0.193380 -0.307541
v 0.141423 -0.198878 -0.385535
v -0.141188 -0.193380 -0.307541
v 0.115278 -0.196187 -0.349390
v -0.085964 -0.194834 -0.330193
v 0.086478 -0.194834 -0.330193
v 0.091256 -0.194801 -0.329724
v 0.096034 -0.194834 -0.330193
v 0.100629 -0.194932 -0.331583
v 0.104863 -0.195091 -0.333840
v 0.108575 -0.195305 -0.336879
v 0.111621 -0.195566 -0.340583
v 0.113884 -0.195864 -0.344807
v 0.141235 -0.282202 -0.301026
v 0.141235 -0.260442 0.007665
v 0.048015 -0.261879 -0.012737
v 0.141236 -0.247280 0.194379
v 0.141282 -0.198417 0.191070
v 0.048015 -0.247288 0.194249
v 0.048015 -0.267065 0.195643
v 0.046161 -0.245795 0.214766
v 0.051059 -0.242438 0.194054
v 0.048015 -0.281656 -0.011344
v 0.049104 -0.241054 0.212992
v 0.045634 -0.240264 0.224203
v 0.049104 -0.196988 0.209887
v 0.045634 -0.196197 0.221097
v 0.040000 -0.195469 0.231430
v 0.141330 -0.189412 0.312866
v 0.061854 -0.189279 0.312874
v -0.141281 -0.189356 0.312861
v -0.022591 -0.193678 0.256841
v -0.010696 -0.193597 0.257990
v 0.001198 -0.193678 0.256841
v 0.012636 -0.193917 0.253440
v 0.023178 -0.194307 0.247918
v 0.032417 -0.194831 0.240486
v 0.032417 -0.238897 0.243591
v 0.040000 -0.239535 0.234535
v 0.037525 -0.244355 0.235198
v 0.042870 -0.245046 0.225399
v 0.042870 -0.264785 0.226790
v 0.046161 -0.265535 0.216157
v 0.037525 -0.264094 0.236589
v 0.021570 -0.262992 0.252230
v 0.030334 -0.263489 0.245179
v -0.058644 -0.264227 0.234702
v 0.011572 -0.262623 0.257466
v 0.000723 -0.262395 0.260692
v 0.011572 -0.242883 0.256075
v 0.000723 -0.242656 0.259300
v -0.010559 -0.242579 0.260390
v 0.001198 -0.237744 0.259947
v -0.010696 -0.237663 0.261095
v -0.022591 -0.237744 0.259947
v -0.021842 -0.242656 0.259300
v -0.021842 -0.262395 0.260692
v -0.032690 -0.242883 0.256075
v -0.032690 -0.262623 0.257466
v -0.042688 -0.262992 0.252230
v -0.051452 -0.263489 0.245179
v -0.042688 -0.243253 0.250838
v -0.051452 -0.243750 0.243788
v -0.044571 -0.238373 0.251024
v -0.034029 -0.237984 0.256548
v -0.034029 -0.193917 0.253440
v -0.044571 -0.194307 0.247918
v -0.053810 -0.194831 0.240486
v -0.053810 -0.238897 0.243591
v -0.061392 -0.239676 0.232546
v -0.058644 -0.244488 0.233311
v -0.141375 -0.244534 0.233305
v -0.141375 -0.261878 -0.012737
v -0.141375 -0.264311 0.234698
v -0.141423 -0.239696 0.232941
v -0.141375 -0.281655 -0.011344
v -0.141423 -0.195630 0.229833
v -0.141328 -0.195655 0.229840
v -0.061392 -0.195609 0.229440
v -0.141376 -0.282201 -0.301026
v -0.010559 -0.262318 0.261782
v 0.012636 -0.237984 0.256548
v 0.023178 -0.238373 0.251024
v 0.021570 -0.243253 0.250838
v 0.030334 -0.243750 0.243788
v 0.051059 -0.198372 0.190948
v 0.113884 -0.160271 -0.347315
v 0.111621 -0.159973 -0.343091
v 0.108575 -0.159712 -0.339388
v 0.104863 -0.159498 -0.336350
v 0.100628 -0.159339 -0.334093
v 0.096034 -0.159241 -0.332702
v 0.091256 -0.159208 -0.332233
v 0.086477 -0.159241 -0.332702
v 0.081882 -0.159339 -0.334093
v -0.085964 -0.159241 -0.332702
v -0.081370 -0.159339 -0.334093
v 0.081883 -0.194932 -0.331583
v 0.077648 -0.195091 -0.333840
v -0.081370 -0.194932 -0.331583
v -0.077135 -0.195091 -0.333840
v -0.077135 -0.159498 -0.336350
v -0.073424 -0.195305 -0.336879
v 0.073937 -0.195305 -0.336879
v 0.070891 -0.195566 -0.340583
v 0.073936 -0.159712 -0.339388
v 0.077648 -0.159498 -0.336350
v -0.073424 -0.159713 -0.339388
v -0.070378 -0.159974 -0.343091
v -0.070378 -0.195566 -0.340583
v -0.068114 -0.195864 -0.344807
v 0.068627 -0.195864 -0.344807
v 0.067233 -0.196187 -0.349390
v 0.068627 -0.160271 -0.347315
v 0.070890 -0.159973 -0.343091
v -0.068114 -0.160271 -0.347315
v -0.066721 -0.160594 -0.351898
v -0.066720 -0.196187 -0.349390
v -0.066250 -0.196523 -0.354156
v 0.066763 -0.196523 -0.354156
v 0.067233 -0.196859 -0.358922
v 0.066763 -0.160930 -0.356665
v 0.067233 -0.160594 -0.351898
v 0.067233 -0.161266 -0.361431
v -0.066250 -0.160930 -0.356665
v -0.066721 -0.161266 -0.361431
v -0.066720 -0.196859 -0.358922
v -0.068114 -0.197182 -0.363506
v -0.068114 -0.161589 -0.366015
v -0.070378 -0.197480 -0.367730
v 0.068627 -0.197182 -0.363506
v 0.070891 -0.197480 -0.367730
v 0.068627 -0.161589 -0.366015
v 0.070890 -0.161887 -0.370239
v -0.070378 -0.161887 -0.370239
v -0.073424 -0.162148 -0.373941
v 0.073936 -0.162148 -0.373941
v -0.073424 -0.197741 -0.371433
v -0.077135 -0.197955 -0.374472
v 0.073937 -0.197741 -0.371433
v 0.077648 -0.197955 -0.374472
v 0.081883 -0.198114 -0.376729
v 0.077648 -0.162362 -0.376980
v -0.081370 -0.198114 -0.376729
v -0.081370 -0.162522 -0.379238
v -0.085964 -0.198212 -0.378119
v -0.077135 -0.162362 -0.376980
v 0.081882 -0.162522 -0.379238
v 0.086477 -0.162620 -0.380629
v 0.086477 -0.198212 -0.378119
v 0.091256 -0.198245 -0.378589
v 0.096034 -0.198212 -0.378119
v 0.091256 -0.162653 -0.381097
v 0.096034 -0.162620 -0.380629
v 0.100628 -0.162522 -0.379238
v 0.141422 -0.163170 -0.388053
v -0.141188 -0.163170 -0.388053
v 0.115748 -0.160930 -0.356665
v -0.085964 -0.162620 -0.380629
v 0.104863 -0.162362 -0.376980
v 0.108575 -0.162148 -0.373941
v 0.111621 -0.161887 -0.370239
v 0.113884 -0.161589 -0.366015
v 0.115278 -0.161266 -0.361431
v -0.141188 -0.198878 -0.385535
v 0.115278 -0.160594 -0.351898
v 0.115748 -0.196523 -0.354156
v 0.115278 -0.196859 -0.358922
v 0.113884 -0.197182 -0.363506
v 0.111621 -0.197480 -0.367730
v 0.108575 -0.197741 -0.371433
v 0.104863 -0.197955 -0.374472
v 0.100629 -0.198114 -0.376729
v -0.115236 -0.196523 -0.354156
v -0.114765 -0.196859 -0.358922
v -0.113371 -0.197182 -0.363506
v -0.111108 -0.197480 -0.367730
v -0.108062 -0.197741 -0.371433
v -0.104350 -0.197955 -0.374472
v -0.100116 -0.198114 -0.376729
v -0.095521 -0.198212 -0.378119
v -0.090743 -0.198245 -0.378589
v -0.141188 -0.157672 -0.310058
v -0.114765 -0.196187 -0.349390
v -0.114765 -0.160594 -0.351898
v -0.113371 -0.195864 -0.344807
v -0.113371 -0.160271 -0.347315
v -0.111108 -0.159974 -0.343091
v -0.111108 -0.195566 -0.340583
v -0.108062 -0.159713 -0.339388
v -0.108062 -0.195305 -0.336879
v -0.104350 -0.159498 -0.336350
v -0.104350 -0.195091 -0.333840
v -0.100116 -0.159339 -0.334093
v -0.100116 -0.194932 -0.331583
v -0.095521 -0.159241 -0.332702
v -0.095521 -0.194834 -0.330193
v -0.090743 -0.159208 -0.332233
v -0.090743 -0.194801 -0.329724
v -0.115236 -0.160930 -0.356665
v -0.114765 -0.161266 -0.361431
v -0.113371 -0.161589 -0.366015
v -0.111108 -0.161887 -0.370239
v -0.108062 -0.162148 -0.373941
v -0.104350 -0.162362 -0.376980
v -0.100116 -0.162522 -0.379238
v -0.095521 -0.162620 -0.380629
v -0.090743 -0.162653 -0.381097
v -0.141373 0.238682 -0.337745
v -0.141372 0.282202 0.279638
v 0.141238 0.238680 -0.337744
v 0.081605 -0.144826 0.379224
v -0.086242 -0.144728 0.380613
v -0.081647 -0.144826 0.379224
v -0.077413 -0.144985 0.376966
v -0.081647 -0.109233 0.376715
v -0.077413 -0.109392 0.374457
v 0.077370 -0.109392 0.374457
v 0.081605 -0.109233 0.376715
v 0.077371 -0.144985 0.376966
v 0.073659 -0.145199 0.373928
v -0.073701 -0.145199 0.373928
v -0.070655 -0.145460 0.370226
v -0.073701 -0.109607 0.371419
v -0.070655 -0.109868 0.367716
v 0.070613 -0.109867 0.367716
v 0.073659 -0.109606 0.371419
v 0.070613 -0.145460 0.370224
v 0.068349 -0.145758 0.366000
v -0.068392 -0.145758 0.366000
v -0.066998 -0.146081 0.361417
v -0.068392 -0.110165 0.363492
v 0.068349 -0.110165 0.363492
v 0.066956 -0.146081 0.361417
v -0.091020 -0.144695 0.381085
v -0.095799 -0.144728 0.380613
v -0.100393 -0.144826 0.379224
v -0.104628 -0.144985 0.376966
v -0.108339 -0.145199 0.373928
v -0.111385 -0.145460 0.370224
v -0.113649 -0.145758 0.366000
v -0.115042 -0.146081 0.361417
v -0.115513 -0.146417 0.356651
vn -0.0000 0.9975 -0.0703
vn -0.9952 -0.0069 -0.0978
vn -0.9952 0.0069 0.0978
vn 0.9952 -0.0069 -0.0978
vn 0.9952 0.0069 0.0978
vn 0.9569 0.0204 0.2896
vn -0.0000 -0.9975 0.0703
vn 0.8819 0.0331 0.4702
vn -0.8819 0.0331 0.4703
vn -0.9569 0.0204 0.2896
vn -0.9569 0.0204 0.2895
vn -0.8820 0.0331 0.4701
vn -0.7729 0.0446 0.6329
vn -0.6343 0.0544 0.7712
vn 0.6343 0.0544 0.7712
vn 0.4716 0.0620 0.8796
vn 0.7729 0.0446 0.6329
vn -0.4716 0.0620 0.8796
vn -0.2905 0.0673 0.9545
vn 0.2901 0.0672 0.9546
vn 0.0982 0.0699 0.9927
vn 0.0008 -0.9969 0.0786
vn 0.2905 0.0673 0.9545
vn -0.0000 -0.9971 0.0766
vn -0.0000 0.9975 -0.0704
vn 0.0002 0.9974 -0.0719
vn -0.0984 0.0700 0.9927
vn -0.2901 0.0672 0.9546
vn -0.0982 0.0699 0.9927
vn -0.0000 0.9974 -0.0715
vn 0.0005 -0.9971 0.0756
vn -0.0008 -0.9969 0.0786
vn 0.0984 0.0700 0.9927
vn -0.0002 0.9975 -0.0711
vn -0.0001 0.9975 -0.0713
vn -0.0003 0.9975 -0.0709
vn 0.0017 -0.9973 0.0734
vn 0.0012 -0.9972 0.0742
vn 0.0021 -0.9973 0.0729
vn -0.0005 0.9975 -0.0707
vn -0.0004 0.9975 -0.0708
vn 0.8820 0.0332 0.4701
vn -0.0005 0.9975 -0.0706
vn 0.7730 0.0446 0.6328
vn 0.0030 -0.9974 0.0719
vn 0.8820 0.0331 0.4701
vn 0.0025 -0.9974 0.0724
vn 0.0037 -0.9974 0.0714
vn 0.9569 0.0204 0.2897
vn -0.0012 0.9975 -0.0704
vn -0.0007 0.9975 -0.0705
vn -0.0010 0.9975 -0.0703
vn -0.0000 0.9978 -0.0668
vn -0.0000 0.0703 0.9975
vn -1.0000 -0.0000 -0.0000
vn -0.0009 0.9975 -0.0702
vn 0.0013 0.9984 -0.0570
vn -0.0002 0.9977 -0.0681
vn -0.0004 0.9976 -0.0691
vn -0.0005 0.9976 -0.0695
vn -0.0005 0.9976 -0.0697
vn -0.0006 0.9976 -0.0698
vn -0.0007 0.9975 -0.0700
vn -0.0008 0.9975 -0.0701
vn -0.0000 -0.9987 0.0511
vn 1.0000 -0.0000 -0.0000
vn -0.0049 -0.9975 0.0698
vn -0.0063 -0.9975 0.0709
vn -0.0041 -0.9976 0.0691
vn -0.0036 -0.9977 0.0684
vn -0.0032 -0.9977 0.0677
vn -0.0028 -0.9978 0.0669
vn -0.0025 -0.9978 0.0657
vn -0.0020 -0.9980 0.0636
vn -0.0012 -0.9983 0.0583
vn 0.0071 -1.0000 -0.0014
vn -0.0054 -0.9975 0.0703
vn -0.0036 -0.9974 0.0714
vn -0.9952 -0.0069 -0.0977
vn 0.0011 0.9975 -0.0704
vn 0.0009 0.9975 -0.0702
vn -0.9569 -0.0204 -0.2896
vn 0.0008 0.9975 -0.0701
vn -0.8819 -0.0331 -0.4702
vn 0.0007 0.9975 -0.0700
vn -0.8820 -0.0332 -0.4701
vn -0.7731 -0.0446 -0.6328
vn 0.0006 0.9976 -0.0698
vn -0.7730 -0.0446 -0.6329
vn -0.6344 -0.0544 -0.7711
vn 0.0005 0.9976 -0.0697
vn -0.4713 -0.0620 -0.8798
vn 0.0005 0.9976 -0.0695
vn -0.2905 -0.0673 -0.9545
vn 0.0004 0.9976 -0.0691
vn -0.2901 -0.0672 -0.9546
vn -0.0982 -0.0699 -0.9927
vn 0.0002 0.9977 -0.0681
vn -0.0986 -0.0700 -0.9927
vn 0.0986 -0.0700 -0.9927
vn 0.0982 -0.0699 -0.9927
vn -0.0013 0.9984 -0.0569
vn -0.8819 0.0331 0.4702
vn -0.0030 -0.9974 0.0719
vn -0.7729 0.0446 0.6330
vn -0.8820 0.0331 0.4700
vn -0.0025 -0.9974 0.0723
vn -0.0021 -0.9973 0.0729
vn -0.0017 -0.9973 0.0734
vn -0.0012 -0.9972 0.0742
vn -0.0005 -0.9971 0.0756
vn 0.0002 0.9975 -0.0711
vn 0.0001 0.9975 -0.0713
vn -0.0000 0.0702 0.9975
vn 1.0000 0.0005 -0.0000
vn -0.0002 0.9974 -0.0719
vn 0.0007 0.9975 -0.0705
vn 0.0005 0.9975 -0.0706
vn 0.0005 0.9975 -0.0707
vn 0.0004 0.9975 -0.0708
vn 0.0003 0.9975 -0.0709
vn 0.0010 0.9975 -0.0703
vn -0.0055 -0.9975 0.0703
vn -0.0000 -0.9979 0.0640
vn -0.0000 -0.0731 -0.9973
vn -0.0037 -0.9976 0.0692
vn 0.0008 -0.9981 0.0621
vn -0.0005 -0.9979 0.0651
vn -0.0012 -0.9978 0.0664
vn -0.0017 -0.9977 0.0672
vn -0.0021 -0.9977 0.0678
vn -0.0025 -0.9977 0.0683
vn -0.0030 -0.9976 0.0687
vn 1.0000 -0.0021 0.0001
vn 0.9999 -0.0133 0.0042
vn 1.0000 -0.0010 0.0001
vn 0.9960 0.0063 0.0896
vn 0.8626 -0.4928 0.1138
vn -0.0014 0.0411 0.9992
vn 0.8426 -0.5237 0.1253
vn 0.9947 0.0072 0.1022
vn 0.8574 -0.4218 0.2950
vn 0.9555 0.0207 0.2942
vn 0.9555 0.0207 0.2943
vn 0.8785 0.0336 0.4766
vn 0.0022 -0.9974 0.0715
vn -0.0012 -0.9975 0.0700
vn -0.0000 -0.9973 0.0737
vn 1.0000 -0.0024 -0.0002
vn 0.0002 0.0708 0.9975
vn -0.0017 -0.9971 0.0762
vn -0.0001 0.0708 0.9975
vn -0.0000 0.0713 0.9975
vn 0.0004 -0.9970 0.0777
vn -0.0009 -0.9968 0.0796
vn 0.0007 -0.9970 0.0775
vn 0.0018 -0.9971 0.0763
vn 0.0028 -0.9971 0.0755
vn 0.0038 -0.9972 0.0750
vn 0.0050 -0.9972 0.0745
vn 0.6277 0.0547 0.7765
vn 0.7675 0.0451 0.6395
vn 0.8111 -0.3520 0.4671
vn 0.8784 0.0336 0.4767
vn 0.7247 -0.2858 0.6270
vn 0.8110 -0.3521 0.4672
vn 0.8573 -0.4218 0.2951
vn 0.0007 -0.9972 0.0745
vn 0.4649 0.0623 0.8832
vn 0.2856 0.0674 0.9560
vn 0.0964 0.0700 0.9929
vn 0.0943 -0.1387 0.9858
vn 0.2787 -0.1518 0.9483
vn 0.0942 -0.1389 0.9858
vn -0.0942 -0.1439 0.9851
vn 0.0963 0.0700 0.9929
vn -0.0963 0.0700 0.9929
vn -0.0941 -0.1440 0.9851
vn -0.2856 0.0674 0.9560
vn -0.0964 0.0700 0.9929
vn -0.2778 -0.1669 0.9460
vn -0.4649 0.0623 0.8832
vn -0.6278 0.0547 0.7765
vn -0.5965 -0.2590 0.7597
vn -0.4480 -0.2064 0.8699
vn -0.4482 -0.2060 0.8699
vn -0.2855 0.0674 0.9560
vn -0.2776 -0.1672 0.9460
vn -0.4650 0.0623 0.8831
vn -0.2857 0.0674 0.9560
vn -0.0017 -0.9973 0.0735
vn -0.0012 -0.9972 0.0744
vn -0.6277 0.0547 0.7765
vn -0.5965 -0.2591 0.7597
vn -0.7614 -0.3478 0.5471
vn -0.7613 -0.3478 0.5472
vn -0.8251 0.0397 0.5636
vn -0.0001 0.0703 0.9975
vn -0.0002 0.1569 0.9876
vn -1.0000 -0.0100 0.0007
vn 0.0049 0.0751 0.9972
vn -0.0000 -0.0703 -0.9975
vn -0.0000 -0.9975 0.0707
vn 0.0010 -0.9975 0.0703
vn 0.0049 0.0704 0.9975
vn 0.0613 -0.0702 -0.9956
vn -1.0000 -0.0000 -0.0002
vn -1.0000 0.0052 -0.0012
vn 0.0002 -0.9971 0.0757
vn -1.0000 0.0024 0.0004
vn -0.0046 -0.3098 -0.9508
vn 0.0009 -0.9976 0.0697
vn 0.0049 0.0703 0.9975
vn -1.0000 0.0021 -0.0001
vn 0.2786 -0.1521 0.9483
vn 0.2855 0.0674 0.9560
vn 0.4509 -0.1823 0.8738
vn 0.4650 0.0623 0.8831
vn 0.4511 -0.1819 0.8737
vn 0.6278 0.0547 0.7765
vn 0.6025 -0.2277 0.7649
vn 0.7675 0.0451 0.6394
vn 0.6025 -0.2277 0.7650
vn -0.0008 -0.9975 0.0703
vn -0.0006 -0.9973 0.0728
vn -0.0013 0.0703 0.9975
vn -0.0000 0.0676 0.9977
vn -0.8819 -0.0331 -0.4703
vn 0.0006 0.9975 -0.0700
vn 0.0005 0.9976 -0.0699
vn 0.0004 0.9976 -0.0698
vn -0.6343 -0.0544 -0.7712
vn -0.7731 -0.0446 -0.6327
vn 0.0003 0.9976 -0.0698
vn 0.0002 0.9976 -0.0696
vn 0.0001 0.9976 -0.0693
vn -0.0978 -0.0700 -0.9927
vn -0.2901 -0.0673 -0.9546
vn -0.0002 0.9976 -0.0688
vn 0.0978 -0.0700 -0.9927
vn 0.0980 -0.0700 -0.9927
vn -0.0980 -0.0700 -0.9927
vn 0.2905 -0.0673 -0.9545
vn 0.2901 -0.0673 -0.9546
vn -0.0000 0.9976 -0.0691
vn -0.0000 -0.9975 0.0704
vn 0.4713 -0.0620 -0.8798
vn 0.6344 -0.0544 -0.7711
vn 0.7731 -0.0446 -0.6327
vn 0.6343 -0.0544 -0.7712
vn -0.7732 -0.0446 -0.6327
vn 0.8819 -0.0331 -0.4702
vn 0.9569 -0.0204 -0.2896
vn 0.8819 -0.0331 -0.4703
vn 0.7731 -0.0446 -0.6328
vn -0.9569 -0.0204 -0.2895
vn -0.9570 0.0204 0.2895
vn 0.9570 0.0204 0.2895
vn 0.8819 0.0332 0.4703
vn 0.8819 0.0332 0.4702
vn -0.7731 0.0446 0.6328
vn -0.7730 0.0446 0.6328
vn -0.6344 0.0543 0.7711
vn 0.7731 0.0446 0.6328
vn 0.6344 0.0543 0.7711
vn 0.4713 0.0620 0.8798
vn -0.2903 0.0673 0.9546
vn -0.4715 0.0620 0.8797
vn -0.4713 0.0620 0.8798
vn 0.4715 0.0620 0.8797
vn 0.2903 0.0673 0.9546
vn 0.0980 0.0700 0.9927
vn 0.0070 -0.9900 0.1406
vn -0.0000 -0.9960 0.0894
vn -0.0980 0.0700 0.9927
vn -0.0012 -0.9966 0.0822
vn -0.0978 0.0700 0.9927
vn 0.0978 0.0700 0.9927
vn 0.0002 0.9974 -0.0725
vn 0.0004 0.9974 -0.0716
vn -0.0000 0.9973 -0.0739
vn 0.0009 0.9975 -0.0704
vn 0.0012 0.9975 -0.0702
vn -0.0013 0.9965 -0.0833
vn 0.0005 0.9975 -0.0712
vn 0.0005 0.9975 -0.0710
vn 0.0006 0.9975 -0.0708
vn 0.0007 0.9975 -0.0707
vn 0.0008 0.9975 -0.0705
vn 0.0007 0.9975 -0.0701
vn -0.9952 0.0069 0.0977
vn -0.0049 -0.9975 0.0708
vn -0.0063 -0.9975 0.0697
vn -0.0042 -0.9974 0.0716
vn -0.0036 -0.9974 0.0723
vn -0.0032 -0.9973 0.0729
vn -0.0029 -0.9973 0.0738
vn -0.0025 -0.9972 0.0750
vn -0.0020 -0.9970 0.0770
vn 0.0054 -0.9975 0.0703
vn 0.0063 -0.9975 0.0697
vn 0.0049 -0.9975 0.0708
vn 0.0041 -0.9974 0.0716
vn 0.0036 -0.9974 0.0722
vn 0.0032 -0.9973 0.0729
vn 0.0028 -0.9973 0.0738
vn 0.0025 -0.9972 0.0750
vn 0.0020 -0.9970 0.0770
vn 0.0012 -0.9966 0.0822
vn -0.0070 -0.9899 0.1413
vn 0.0036 -0.9976 0.0692
vn -0.0007 0.9975 -0.0701
vn -0.0006 0.9975 -0.0700
vn -0.0005 0.9976 -0.0699
vn 0.7732 -0.0446 -0.6326
vn -0.0004 0.9976 -0.0698
vn -0.0003 0.9976 -0.0698
vn -0.0002 0.9976 -0.0696
vn -0.0001 0.9976 -0.0693
vn 0.0002 0.9976 -0.0688
vn 0.0005 -0.9979 0.0651
vn -0.0008 -0.9981 0.0621
vn 0.0012 -0.9978 0.0664
vn 0.0017 -0.9977 0.0672
vn 0.0021 -0.9977 0.0678
vn 0.0025 -0.9977 0.0683
vn 0.0030 -0.9976 0.0687
vn -0.0012 0.9975 -0.0702
vn -0.0009 0.9975 -0.0704
vn -0.0008 0.9975 -0.0705
vn -0.0007 0.9975 -0.0707
vn 0.7731 0.0446 0.6327
vn -0.0006 0.9975 -0.0708
vn 0.7730 0.0446 0.6329
vn -0.0005 0.9975 -0.0710
vn -0.0005 0.9975 -0.0712
vn -0.0004 0.9974 -0.0716
vn -0.0002 0.9974 -0.0725
vn 0.0013 0.9965 -0.0836
vn -0.0000 0.9976 -0.0692
vn -0.0000 -0.0697 -0.9976
vn -1.0000 -0.0005 -0.0000
vn 0.2901 -0.0672 -0.9546
vn -0.7730 -0.0446 -0.6328
vn 0.9570 -0.0204 -0.2895
vn 0.9569 -0.0204 -0.2895
vn -0.0070 -1.0000 -0.0004
vn 0.0012 -0.9983 0.0583
vn 0.0021 -0.9980 0.0636
vn 0.0025 -0.9978 0.0657
vn 0.0029 -0.9978 0.0669
vn 0.0032 -0.9977 0.0677
vn 0.0036 -0.9977 0.0684
vn 0.0042 -0.9976 0.0691
vn 0.0050 -0.9975 0.0698
vn 0.0063 -0.9975 0.0709
vn 0.0055 -0.9975 0.0703
s 0
usemtl Material.285
f 1//1 2//1 7//1
f 2//2 1//2 4//2
f 6//3 1//3 3//3
f 1//1 5//1 3//1
f 6//3 4//3 1//3
f 1//1 7//1 5//1
f 9//4 8//4 7//4
f 7//5 8//5 10//5
f 7//5 10//5 5//5
f 2//1 9//1 7//1
f 5//6 10//6 11//6
f 6//7 11//7 10//7
f 4//7 10//7 8//7
f 4//7 6//7 10//7
f 5//6 11//6 12//6
f 12//8 11//8 13//8
f 14//7 13//7 11//7
f 6//7 14//7 11//7
f 16//9 15//9 14//9
f 14//7 15//7 13//7
f 3//10 14//10 6//10
f 3//11 16//11 14//11
f 16//1 12//1 17//1
f 16//12 17//12 15//12
f 3//1 5//1 16//1
f 16//1 5//1 12//1
f 17//1 19//1 18//1
f 17//13 18//13 20//13
f 17//13 20//13 15//13
f 17//1 12//1 19//1
f 18//14 21//14 20//14
f 23//7 20//7 21//7
f 15//7 20//7 22//7
f 23//7 22//7 20//7
f 26//15 23//15 24//15
f 24//16 23//16 25//16
f 25//7 23//7 21//7
f 26//15 22//15 23//15
f 19//17 22//17 26//17
f 24//1 27//1 26//1
f 26//1 18//1 19//1
f 26//1 27//1 18//1
f 24//1 28//1 27//1
f 27//18 28//18 29//18
f 18//14 27//14 21//14
f 27//18 29//18 21//18
f 28//19 30//19 29//19
f 30//7 31//7 29//7
f 25//7 21//7 29//7
f 31//7 25//7 29//7
f 36//20 31//20 32//20
f 32//21 31//21 33//21
f 34//22 33//22 31//22
f 36//23 25//23 31//23
f 30//24 35//24 31//24
f 34//24 31//24 35//24
f 24//16 25//16 36//16
f 36//25 32//25 37//25
f 36//1 28//1 24//1
f 36//25 37//25 28//25
f 38//26 37//26 39//26
f 37//27 38//27 40//27
f 28//28 37//28 30//28
f 37//29 40//29 30//29
f 37//30 32//30 39//30
f 41//31 35//31 40//31
f 42//21 41//21 40//21
f 40//32 35//32 30//32
f 42//33 40//33 38//33
f 43//20 41//20 42//20
f 43//34 42//34 39//34
f 42//35 38//35 39//35
f 44//16 45//16 43//16
f 44//36 43//36 39//36
f 43//23 45//23 41//23
f 46//37 35//37 45//37
f 44//16 46//16 45//16
f 45//38 35//38 41//38
f 47//39 35//39 46//39
f 48//15 47//15 46//15
f 48//15 46//15 44//15
f 49//17 47//17 48//17
f 49//40 48//40 39//40
f 48//41 44//41 39//41
f 50//42 51//42 49//42
f 50//43 49//43 39//43
f 49//44 51//44 47//44
f 52//45 35//45 51//45
f 50//46 52//46 51//46
f 51//47 35//47 47//47
f 53//48 35//48 52//48
f 54//6 53//6 52//6
f 54//49 52//49 50//49
f 55//5 53//5 54//5
f 56//50 55//50 54//50
f 54//51 50//51 39//51
f 56//52 54//52 39//52
f 57//53 59//53 56//53
f 69//54 57//54 56//54
f 56//55 35//55 58//55
f 69//54 56//54 58//54
f 56//56 68//56 55//56
f 59//53 60//53 56//53
f 56//57 60//57 61//57
f 56//58 61//58 62//58
f 56//59 62//59 63//59
f 56//60 63//60 64//60
f 56//61 64//61 65//61
f 56//62 65//62 66//62
f 56//63 66//63 67//63
f 56//64 67//64 68//64
f 56//55 39//55 35//55
f 69//65 58//65 79//65
f 57//66 69//66 34//66
f 71//67 70//67 69//67
f 69//68 70//68 80//68
f 72//69 71//69 69//69
f 73//70 72//70 69//70
f 74//71 73//71 69//71
f 75//72 74//72 69//72
f 76//73 75//73 69//73
f 77//74 76//74 69//74
f 78//75 77//75 69//75
f 69//76 79//76 78//76
f 69//77 80//77 34//77
f 81//10 82//10 80//10
f 80//3 83//3 81//3
f 80//3 70//3 83//3
f 80//78 82//78 34//78
f 84//79 83//79 70//79
f 57//80 81//80 83//80
f 84//81 57//81 83//81
f 84//2 70//2 71//2
f 85//82 84//82 71//82
f 85//83 57//83 84//83
f 85//82 71//82 72//82
f 86//84 85//84 72//84
f 86//85 57//85 85//85
f 86//86 72//86 73//86
f 87//87 86//87 73//87
f 87//88 57//88 86//88
f 87//89 73//89 74//89
f 88//90 87//90 74//90
f 88//91 57//91 87//91
f 88//90 74//90 75//90
f 89//92 88//92 75//92
f 89//93 57//93 88//93
f 89//92 75//92 76//92
f 90//94 89//94 76//94
f 90//95 57//95 89//95
f 90//96 76//96 77//96
f 91//97 90//97 77//97
f 91//98 57//98 90//98
f 91//99 77//99 78//99
f 91//100 78//100 79//100
f 91//101 79//101 59//101
f 57//102 91//102 59//102
f 92//103 93//103 82//103
f 81//10 92//10 82//10
f 82//104 93//104 34//104
f 94//105 95//105 93//105
f 92//106 94//106 93//106
f 93//107 95//107 34//107
f 96//14 97//14 95//14
f 94//105 96//105 95//105
f 95//108 97//108 34//108
f 98//18 99//18 97//18
f 96//14 98//14 97//14
f 97//109 99//109 34//109
f 100//19 101//19 99//19
f 98//18 100//18 99//18
f 99//110 101//110 34//110
f 102//29 33//29 101//29
f 100//28 102//28 101//28
f 101//111 33//111 34//111
f 100//112 104//112 102//112
f 102//113 104//113 103//113
f 102//27 103//27 33//27
f 57//66 34//66 104//66
f 107//66 104//66 34//66
f 39//114 104//114 105//114
f 106//115 105//115 104//115
f 104//30 39//30 32//30
f 104//116 32//116 103//116
f 81//117 104//117 92//117
f 92//118 104//118 94//118
f 94//119 104//119 96//119
f 96//120 104//120 98//120
f 98//121 104//121 100//121
f 57//122 104//122 81//122
f 107//66 106//66 104//66
f 108//123 107//123 110//123
f 106//66 107//66 108//66
f 109//124 111//124 107//124
f 120//125 109//125 107//125
f 110//126 107//126 119//126
f 112//124 107//124 111//124
f 113//127 107//127 112//127
f 114//128 107//128 113//128
f 115//129 107//129 114//129
f 116//130 107//130 115//130
f 117//131 107//131 116//131
f 118//132 107//132 117//132
f 119//133 107//133 118//133
f 121//134 107//134 34//134
f 120//134 107//134 121//134
f 122//7 120//7 121//7
f 121//135 34//135 124//135
f 125//7 122//7 121//7
f 121//136 124//136 123//136
f 125//7 121//7 123//7
f 126//137 125//137 127//137
f 125//66 126//66 129//66
f 125//138 130//138 127//138
f 123//139 128//139 125//139
f 125//66 129//66 122//66
f 125//140 128//140 130//140
f 128//141 132//141 130//141
f 127//142 130//142 131//142
f 130//143 133//143 131//143
f 130//144 132//144 133//144
f 134//145 131//145 133//145
f 134//146 133//146 135//146
f 133//147 132//147 124//147
f 135//148 133//148 124//148
f 124//149 34//149 135//149
f 34//150 136//150 135//150
f 134//151 135//151 136//151
f 137//152 136//152 35//152
f 136//153 34//153 35//153
f 138//154 136//154 137//154
f 139//155 136//155 138//155
f 140//156 136//156 139//156
f 141//157 136//157 140//157
f 142//158 136//158 141//158
f 143//159 136//159 142//159
f 134//160 136//160 143//160
f 142//161 144//161 143//161
f 143//162 144//162 145//162
f 143//162 145//162 134//162
f 145//163 147//163 131//163
f 134//164 145//164 131//164
f 144//165 146//165 145//165
f 145//166 146//166 147//166
f 148//164 147//164 146//164
f 149//144 147//144 148//144
f 149//144 127//144 147//144
f 127//167 131//167 147//167
f 153//168 126//168 149//168
f 126//137 127//137 149//137
f 150//7 149//7 148//7
f 152//7 149//7 150//7
f 154//7 149//7 151//7
f 152//7 151//7 149//7
f 154//7 153//7 149//7
f 151//169 156//169 154//169
f 154//7 155//7 153//7
f 154//170 157//170 155//170
f 154//170 156//170 157//170
f 155//171 157//171 158//171
f 157//172 160//172 158//172
f 156//173 159//173 157//173
f 157//174 159//174 160//174
f 162//175 158//175 160//175
f 159//176 139//176 160//176
f 161//177 160//177 139//177
f 162//178 160//178 161//178
f 165//179 163//179 162//179
f 163//180 158//180 162//180
f 164//181 162//181 161//181
f 165//179 162//179 164//179
f 165//7 153//7 163//7
f 165//7 166//7 153//7
f 164//182 166//182 165//182
f 167//183 166//183 168//183
f 153//7 166//7 167//7
f 164//182 168//182 166//182
f 169//184 168//184 170//184
f 167//183 168//183 169//183
f 171//185 168//185 164//185
f 171//186 170//186 168//186
f 171//187 161//187 138//187
f 164//188 161//188 171//188
f 170//189 171//189 172//189
f 171//190 138//190 172//190
f 170//182 172//182 173//182
f 137//191 173//191 172//191
f 138//192 137//192 172//192
f 175//183 170//183 173//183
f 175//193 173//193 174//193
f 174//108 173//108 137//108
f 169//194 170//194 175//194
f 177//195 169//195 175//195
f 177//196 175//196 176//196
f 176//197 175//197 174//197
f 178//198 153//198 177//198
f 153//197 169//197 177//197
f 178//199 177//199 176//199
f 179//200 178//200 181//200
f 182//55 178//55 179//55
f 178//198 180//198 153//198
f 182//55 180//55 178//55
f 178//201 176//201 181//201
f 122//202 182//202 179//202
f 122//202 129//202 182//202
f 153//203 182//203 129//203
f 180//204 182//204 153//204
f 176//205 183//205 181//205
f 181//206 183//206 184//206
f 181//207 183//207 179//207
f 184//208 35//208 179//208
f 184//209 174//209 137//209
f 137//210 35//210 184//210
f 185//211 184//211 183//211
f 184//212 185//212 174//212
f 176//213 185//213 183//213
f 176//197 174//197 185//197
f 179//7 186//7 122//7
f 179//214 109//214 186//214
f 179//214 35//214 109//214
f 120//125 186//125 109//125
f 122//7 186//7 120//7
f 153//197 167//197 169//197
f 163//180 187//180 158//180
f 187//7 163//7 153//7
f 153//7 155//7 187//7
f 155//171 158//171 187//171
f 161//180 139//180 138//180
f 156//215 188//215 159//215
f 140//216 159//216 188//216
f 159//171 140//171 139//171
f 190//217 188//217 156//217
f 189//218 141//218 188//218
f 190//219 189//219 188//219
f 140//170 188//170 141//170
f 151//169 190//169 156//169
f 152//220 190//220 151//220
f 152//220 191//220 190//220
f 189//221 190//221 191//221
f 150//222 191//222 152//222
f 150//222 146//222 191//222
f 144//165 191//165 146//165
f 189//223 191//223 144//223
f 142//220 189//220 144//220
f 189//169 142//169 141//169
f 153//224 129//224 126//224
f 148//164 146//164 150//164
f 128//141 192//141 132//141
f 132//225 192//225 124//225
f 124//226 192//226 128//226
f 124//227 128//227 123//227
f 110//82 119//82 193//82
f 119//84 118//84 194//84
f 119//228 194//228 193//228
f 193//229 194//229 106//229
f 194//230 195//230 106//230
f 118//87 195//87 194//87
f 195//231 196//231 106//231
f 117//232 196//232 195//232
f 118//233 117//233 195//233
f 196//234 197//234 106//234
f 116//92 197//92 196//92
f 117//90 116//90 196//90
f 197//235 198//235 106//235
f 115//94 198//94 197//94
f 116//92 115//92 197//92
f 198//236 199//236 106//236
f 114//237 199//237 198//237
f 115//238 114//238 198//238
f 199//239 200//239 106//239
f 199//240 112//240 200//240
f 199//241 113//241 112//241
f 114//242 113//242 199//242
f 203//1 200//1 201//1
f 200//243 204//243 201//243
f 200//244 112//244 204//244
f 200//245 202//245 106//245
f 203//1 202//1 200//1
f 112//246 111//246 204//246
f 201//247 204//247 205//247
f 206//7 205//7 204//7
f 111//246 206//246 204//246
f 207//92 206//92 203//92
f 206//94 202//94 203//94
f 206//238 111//238 202//238
f 206//7 207//7 205//7
f 209//90 207//90 208//90
f 207//92 203//92 208//92
f 207//7 209//7 210//7
f 207//7 210//7 205//7
f 213//248 205//248 210//248
f 212//249 210//249 211//249
f 211//7 210//7 209//7
f 213//250 210//250 212//250
f 208//1 201//1 213//1
f 201//247 205//247 213//247
f 214//1 213//1 212//1
f 208//1 213//1 214//1
f 216//251 209//251 214//251
f 209//232 208//232 214//232
f 214//1 212//1 215//1
f 216//87 214//87 215//87
f 217//228 216//228 215//228
f 211//7 209//7 216//7
f 218//7 216//7 217//7
f 218//7 211//7 216//7
f 221//252 211//252 218//252
f 220//253 218//253 219//253
f 219//7 218//7 217//7
f 221//254 218//254 220//254
f 221//1 215//1 212//1
f 212//255 211//255 221//255
f 220//1 222//1 221//1
f 221//1 222//1 215//1
f 224//256 217//256 222//256
f 217//84 215//84 222//84
f 220//1 223//1 222//1
f 224//82 222//82 223//82
f 225//2 224//2 223//2
f 219//7 217//7 224//7
f 226//7 224//7 225//7
f 226//7 219//7 224//7
f 228//5 226//5 227//5
f 226//7 225//7 227//7
f 226//4 229//4 219//4
f 226//4 228//4 229//4
f 229//1 223//1 220//1
f 220//253 219//253 229//253
f 228//1 223//1 229//1
f 228//1 230//1 231//1
f 228//5 227//5 230//5
f 228//1 231//1 223//1
f 233//3 225//3 231//3
f 225//2 223//2 231//2
f 230//1 232//1 231//1
f 233//3 231//3 232//3
f 234//257 233//257 232//257
f 227//7 225//7 233//7
f 227//7 233//7 234//7
f 236//9 234//9 235//9
f 234//257 232//257 235//257
f 237//7 234//7 236//7
f 227//7 234//7 237//7
f 230//258 227//258 237//258
f 239//259 237//259 238//259
f 237//7 236//7 238//7
f 230//258 237//258 239//258
f 230//1 239//1 235//1
f 239//1 240//1 241//1
f 239//260 238//260 240//260
f 239//1 241//1 235//1
f 244//261 236//261 241//261
f 236//103 235//103 241//103
f 243//1 242//1 241//1
f 244//262 241//262 242//262
f 240//1 243//1 241//1
f 245//263 244//263 242//263
f 238//7 236//7 244//7
f 245//7 246//7 244//7
f 238//7 244//7 246//7
f 240//264 238//264 246//264
f 243//265 246//265 247//265
f 245//7 247//7 246//7
f 240//44 246//44 243//44
f 249//266 247//266 248//266
f 250//7 248//7 247//7
f 243//265 247//265 249//265
f 250//7 247//7 245//7
f 252//267 250//267 251//267
f 250//268 253//268 251//268
f 250//269 245//269 253//269
f 252//7 248//7 250//7
f 245//263 242//263 253//263
f 253//1 242//1 249//1
f 251//1 253//1 254//1
f 253//1 249//1 254//1
f 249//270 248//270 254//270
f 251//1 254//1 255//1
f 254//271 256//271 255//271
f 254//271 248//271 256//271
f 252//246 256//246 248//246
f 255//272 256//272 257//272
f 108//273 257//273 256//273
f 252//274 108//274 256//274
f 257//275 258//275 260//275
f 108//276 258//276 257//276
f 257//277 260//277 259//277
f 255//278 257//278 259//278
f 262//279 259//279 260//279
f 262//280 260//280 261//280
f 258//267 261//267 260//267
f 272//122 106//122 262//122
f 106//66 108//66 262//66
f 263//281 265//281 262//281
f 262//202 271//202 263//202
f 262//202 108//202 271//202
f 262//282 270//282 264//282
f 272//283 262//283 264//283
f 265//281 255//281 262//281
f 262//284 255//284 259//284
f 262//285 261//285 266//285
f 262//286 266//286 267//286
f 262//287 267//287 268//287
f 262//288 268//288 269//288
f 262//289 269//289 270//289
f 273//2 272//2 264//2
f 272//290 193//290 106//290
f 110//82 193//82 272//82
f 273//79 110//79 272//79
f 274//291 273//291 264//291
f 108//292 273//292 274//292
f 108//293 110//293 273//293
f 275//11 274//11 270//11
f 108//294 274//294 275//294
f 274//3 264//3 270//3
f 276//103 275//103 269//103
f 108//295 275//295 276//295
f 275//257 270//257 269//257
f 277//261 276//261 268//261
f 108//296 276//296 277//296
f 276//103 269//103 268//103
f 278//263 277//263 267//263
f 108//297 277//297 278//297
f 277//262 268//262 267//262
f 279//269 278//269 266//269
f 108//298 278//298 279//298
f 278//263 267//263 266//263
f 258//267 279//267 261//267
f 108//299 279//299 258//299
f 279//268 266//268 261//268
f 271//274 108//274 252//274
f 271//55 109//55 289//55
f 271//300 290//300 109//300
f 271//55 289//55 263//55
f 271//301 280//301 290//301
f 281//302 280//302 271//302
f 282//303 281//303 271//303
f 283//304 282//304 271//304
f 284//305 283//305 271//305
f 285//306 284//306 271//306
f 286//307 285//307 271//307
f 287//308 286//308 271//308
f 288//309 287//309 271//309
f 271//310 252//310 288//310
f 293//253 290//253 291//253
f 280//4 291//4 290//4
f 293//253 292//253 290//253
f 290//311 292//311 109//311
f 294//252 292//252 293//252
f 291//312 289//312 293//312
f 293//313 289//313 294//313
f 294//254 295//254 292//254
f 296//255 295//255 294//255
f 294//314 289//314 296//314
f 296//315 297//315 295//315
f 298//250 297//250 296//250
f 296//316 289//316 298//316
f 298//248 299//248 297//248
f 300//247 299//247 298//247
f 298//317 289//317 300//317
f 300//247 301//247 299//247
f 302//243 301//243 300//243
f 300//318 289//318 302//318
f 302//244 303//244 301//244
f 304//240 303//240 302//240
f 302//319 289//319 304//319
f 111//242 305//242 304//242
f 304//241 305//241 303//241
f 289//320 202//320 304//320
f 111//237 304//237 202//237
f 303//321 305//321 109//321
f 109//322 305//322 111//322
f 301//323 303//323 109//323
f 299//324 301//324 109//324
f 297//325 299//325 109//325
f 295//326 297//326 109//326
f 292//327 295//327 109//327
f 280//4 306//4 291//4
f 263//328 291//328 306//328
f 263//52 289//52 291//52
f 306//5 280//5 281//5
f 307//329 263//329 306//329
f 306//5 281//5 307//5
f 307//258 281//258 282//258
f 308//330 263//330 307//330
f 307//258 282//258 308//258
f 308//259 282//259 283//259
f 309//331 263//331 308//331
f 308//260 283//260 309//260
f 309//332 283//332 284//332
f 310//333 263//333 309//333
f 309//334 284//334 310//334
f 310//265 284//265 285//265
f 311//335 263//335 310//335
f 310//265 285//265 311//265
f 311//266 285//266 286//266
f 312//336 263//336 311//336
f 311//270 286//270 312//270
f 312//271 286//271 287//271
f 313//337 263//337 312//337
f 312//271 287//271 313//271
f 313//272 287//272 288//272
f 314//338 263//338 313//338
f 313//278 288//278 314//278
f 288//277 265//277 314//277
f 263//339 314//339 265//339
f 289//340 106//340 202//340
f 289//341 317//341 106//341
f 109//55 39//55 289//55
f 289//342 39//342 316//342
f 289//341 315//341 317//341
f 289//342 316//342 315//342
f 106//115 317//115 105//115
f 317//1 316//1 105//1
f 317//1 315//1 316//1
f 39//114 105//114 316//114
f 288//275 252//275 265//275
f 252//267 251//267 265//267
f 265//1 251//1 255//1
f 243//1 249//1 242//1
f 230//1 235//1 232//1
f 203//1 201//1 208//1
f 109//55 35//55 39//55
f 32//33 33//33 103//33
f 59//343 79//343 318//343
f 79//246 320//246 318//246
f 79//65 58//65 319//65
f 79//246 319//246 320//246
f 322//92 321//92 320//92
f 318//7 320//7 321//7
f 60//96 320//96 319//96
f 60//94 322//94 320//94
f 324//1 323//1 322//1
f 322//92 323//92 321//92
f 325//1 322//1 60//1
f 325//1 324//1 322//1
f 59//243 318//243 325//243
f 325//247 318//247 326//247
f 325//247 326//247 324//247
f 59//1 325//1 60//1
f 324//248 326//248 327//248
f 326//7 328//7 327//7
f 318//7 321//7 326//7
f 326//7 321//7 328//7
f 330//344 329//344 328//344
f 329//7 327//7 328//7
f 323//90 328//90 321//90
f 323//90 330//90 328//90
f 331//1 330//1 332//1
f 330//233 331//233 329//233
f 330//1 323//1 333//1
f 330//1 333//1 332//1
f 324//248 327//248 333//248
f 333//315 327//315 334//315
f 333//249 334//249 332//249
f 324//1 333//1 323//1
f 332//254 334//254 335//254
f 336//7 335//7 334//7
f 329//7 334//7 327//7
f 336//7 334//7 329//7
f 338//256 337//256 336//256
f 337//7 335//7 336//7
f 331//86 336//86 329//86
f 331//228 338//228 336//228
f 2//1 338//1 339//1
f 338//256 2//256 337//256
f 338//1 331//1 332//1
f 338//1 332//1 339//1
f 332//254 335//254 339//254
f 339//345 335//345 340//345
f 339//346 340//346 9//346
f 2//1 339//1 9//1
f 9//4 340//4 8//4
f 337//7 8//7 340//7
f 337//7 340//7 335//7
f 4//7 8//7 337//7
f 2//2 4//2 337//2
f 61//99 319//99 341//99
f 58//347 341//347 319//347
f 61//97 60//97 319//97
f 58//348 342//348 341//348
f 61//100 341//100 342//100
f 58//349 343//349 342//349
f 62//343 342//343 343//343
f 61//101 342//101 62//101
f 58//350 344//350 343//350
f 63//247 343//247 344//247
f 62//243 343//243 63//243
f 58//351 345//351 344//351
f 64//248 344//248 345//248
f 63//247 344//247 64//247
f 58//352 346//352 345//352
f 65//315 345//315 346//315
f 64//248 345//248 65//248
f 58//353 347//353 346//353
f 66//252 346//252 347//252
f 65//249 346//249 66//249
f 58//354 348//354 347//354
f 67//253 347//253 348//253
f 66//252 347//252 67//252
f 58//355 349//355 348//355
f 68//4 348//4 349//4
f 67//253 348//253 68//253
f 53//356 349//356 58//356
f 55//5 349//5 53//5
f 68//4 349//4 55//4
f 53//357 58//357 35//357
f 15//7 22//7 13//7
f 19//44 13//44 22//44
f 12//42 13//42 19//42
