# Blender 5.0.1
# www.blender.org
mtllib left_elbow_x_link_visual_1.mtl
o i01.left.bicep.full.002_visual.001
v 0.314660 0.089406 0.249085
v 0.314667 0.094616 0.230572
v 0.247863 0.088928 0.249168
v 0.314654 0.075760 0.240366
v 0.247867 0.094309 0.246500
v 0.314663 0.093898 0.246756
v 0.247854 0.067149 0.232026
v 0.247873 0.092823 0.218695
v 0.247806 0.037069 0.147909
v 0.314669 0.092287 0.218917
v 0.314674 0.098819 0.214437
v 0.247877 0.098526 0.214828
v 0.247895 0.120023 0.195499
v 0.314678 0.108860 0.220714
v 0.247889 0.123829 0.225982
v 0.314686 0.124265 0.225775
v 0.247892 0.128367 0.222017
v 0.314689 0.128036 0.222400
v 0.314691 0.124707 0.206546
v 0.314690 0.119553 0.195836
v 0.314695 0.124765 0.189871
v 0.314637 0.036509 0.148156
v 0.314701 0.163132 0.072028
v 0.314646 0.060140 0.234519
v 0.314651 0.067563 0.231753
v 0.314521 -0.094870 0.190739
v 0.314604 -0.010561 0.239767
v 0.314609 -0.002724 0.240919
v 0.314629 0.032999 0.240775
v 0.314624 0.025121 0.241610
v 0.314653 0.050291 0.118723
v 0.314620 0.002480 0.136559
v 0.247790 0.006033 0.138261
v 0.314714 0.143789 0.159629
v 0.314710 0.140222 0.166701
v 0.314729 0.154676 0.125728
v 0.314725 0.152997 0.133340
v 0.247930 0.153258 0.132834
v 0.314730 0.162675 0.140243
v 0.247936 0.173346 0.152054
v 0.314732 0.173227 0.152529
v 0.314720 0.155625 0.160291
v 0.247917 0.143732 0.160128
v 0.314730 0.171549 0.157306
v 0.247934 0.171391 0.157694
v 0.247862 0.163170 0.072012
v 0.247914 0.140598 0.166265
v 0.247916 0.155276 0.189877
v 0.314712 0.147878 0.175792
v 0.247898 0.124584 0.190331
v 0.247913 0.151865 0.194845
v 0.314701 0.136059 0.193458
v 0.314710 0.152232 0.194527
v 0.314712 0.155045 0.190320
v 0.247950 0.181042 0.116433
v 0.247940 0.167134 0.122976
v 0.247932 0.154702 0.125587
v 0.247853 0.180804 0.064218
v 0.314698 0.201103 0.055251
v 0.247648 0.085768 -0.017149
v 0.247823 0.051430 0.114929
v 0.247828 0.053628 0.099475
v 0.247831 0.051610 0.086426
v 0.314662 0.051991 0.087720
v 0.314661 0.044864 0.074563
v 0.247829 0.046626 0.077066
v 0.247827 0.038425 0.068377
v 0.247821 0.024905 0.061884
v 0.314656 0.033197 0.065110
v 0.314689 0.155511 -0.047966
v 0.314649 0.018826 0.060857
v 0.314640 0.003828 0.062417
v 0.247813 0.009863 0.061061
v 0.247803 -0.004311 0.066012
v 0.247510 -0.114653 0.071407
v 0.314631 -0.009359 0.069551
v 0.247794 -0.015553 0.076051
v 0.314622 -0.018866 0.081202
v 0.247787 -0.022104 0.089586
v 0.247783 -0.022965 0.104459
v 0.314614 -0.023167 0.103138
v 0.314617 -0.022628 0.092588
v 0.314512 -0.114692 0.071424
v 0.314549 -0.130060 0.183543
v 0.291800 -0.159965 0.091429
v 0.314567 -0.099518 0.185004
v 0.247752 -0.111215 0.187564
v 0.247770 -0.099730 0.184508
v 0.247652 -0.097839 0.187001
v 0.314550 -0.127147 0.188234
v 0.247730 -0.127499 0.188344
v 0.247927 -0.226484 0.120821
v 0.247571 -0.159940 0.091415
v 0.247927 -0.185178 0.214304
v 0.186195 -0.108123 0.180178
v 0.198043 -0.140841 0.194634
v 0.144082 -0.073260 0.164852
v 0.144081 -0.069084 0.174303
v 0.247752 -0.123475 0.198339
v 0.175563 -0.069101 0.174314
v 0.247510 -0.069129 0.174326
v 0.175569 -0.054469 0.181872
v 0.175563 -0.114585 0.071373
v 0.174911 -0.023033 0.103106
v -0.189634 -0.021800 0.089490
v -0.189639 -0.022661 0.104342
v 0.175600 -0.072824 0.052924
v 0.174908 -0.018606 0.117411
v 0.174913 -0.022496 0.092563
v 0.174921 -0.018741 0.081197
v -0.189627 -0.015257 0.075971
v 0.174930 -0.009245 0.069557
v -0.189618 -0.004038 0.065951
v 0.174939 0.003914 0.062435
v 0.175696 0.046708 0.000110
v 0.174944 0.018906 0.060875
v -0.189608 0.010133 0.061001
v -0.189539 0.068404 -0.009477
v -0.189600 0.025140 0.061824
v 0.174943 0.033252 0.065121
v -0.189588 0.038651 0.068313
v -0.189558 0.117886 0.105719
v -0.189388 0.114168 0.093663
v -0.189592 0.046837 0.076984
v 0.174957 0.044904 0.074559
v 0.175689 0.113957 0.093756
v -0.189591 0.051815 0.086335
v 0.174957 0.052024 0.087707
v 0.175683 0.120153 0.130899
v -0.189593 0.053830 0.099367
v 0.174954 0.053600 0.100383
v 0.175677 0.117183 0.146091
v 0.175664 0.106948 0.167153
v -0.189598 0.051635 0.114800
v 0.174949 0.050326 0.118662
v 0.175641 0.083849 0.190363
v -0.189615 0.037292 0.147735
v 0.174951 0.036563 0.148055
v 0.175609 0.019979 0.212093
v 0.175634 0.053226 0.206207
v -0.189631 0.006284 0.138093
v 0.174912 0.002584 0.136479
v 0.175591 -0.010730 0.207134
v -0.189637 -0.009409 0.128248
v 0.174909 -0.010323 0.127727
v 0.175585 -0.040354 0.190761
v -0.189639 -0.017736 0.118487
v -0.189675 -0.051780 0.183463
v -0.100717 -0.068951 0.174223
v -0.189660 -0.015038 0.204721
v -0.189740 -0.197434 0.107985
v -0.100774 -0.197485 0.108006
v -0.100717 -0.114426 0.071307
v -0.189634 -0.042973 0.039736
v 0.086589 -0.114535 0.071352
v 0.142559 -0.178402 0.099576
v 0.146334 -0.164122 0.093266
v 0.086609 -0.073219 0.164857
v 0.086845 -0.226391 0.120780
v 0.086845 -0.185085 0.214264
v 0.154021 -0.159110 0.091051
v 0.142611 -0.171649 0.096591
v 0.143345 -0.169484 0.095634
v 0.087208 -0.198936 0.108648
v 0.142324 -0.142747 0.163794
v 0.142332 -0.176144 0.098576
v 0.142431 -0.191654 0.067827
v 0.143170 -0.183201 0.064104
v 0.130652 -0.184976 0.047525
v 0.129127 -0.199544 0.053958
v 0.148068 -0.162631 0.092607
v 0.148371 -0.176268 0.061028
v 0.142157 -0.171252 0.041463
v 0.156466 -0.172129 0.059212
v 0.156673 -0.166179 0.039215
v 0.156399 -0.158465 0.090767
v 0.166957 -0.158532 0.090795
v 0.167526 -0.172603 0.059421
v 0.161272 -0.157838 0.090488
v 0.086616 -0.114534 0.071353
v 0.168773 -0.159306 0.091137
v 0.158678 -0.128092 0.157317
v 0.147216 -0.133663 0.159780
v 0.186195 -0.119835 0.153670
v 0.149293 -0.112861 0.150588
v 0.172920 -0.131622 0.158877
v 0.176066 -0.164287 0.093337
v 0.179710 -0.141611 0.163291
v 0.180416 -0.175356 0.098228
v 0.179456 -0.149929 0.166966
v 0.198043 -0.152554 0.168127
v 0.175067 -0.157496 0.170310
v 0.172989 -0.178298 0.179502
v 0.167365 -0.161925 0.172267
v 0.158041 -0.162791 0.172650
v 0.136087 -0.171324 0.176421
v 0.172989 -0.166586 0.206008
v 0.136087 -0.159612 0.202927
v 0.124239 -0.126893 0.188472
v 0.124239 -0.138606 0.161964
v 0.143270 -0.151271 0.167559
v 0.146434 -0.186278 0.103055
v 0.148109 -0.158315 0.170671
v 0.151600 -0.190004 0.104701
v 0.153778 -0.191086 0.105179
v 0.183598 -0.311460 0.158367
v 0.158544 -0.192213 0.105679
v 0.149931 -0.202994 0.072837
v 0.161007 -0.192449 0.105783
v 0.156615 -0.205854 0.074103
v 0.153007 -0.224076 0.064798
v 0.165596 -0.224745 0.065093
v 0.163995 -0.206159 0.074236
v 0.180128 -0.219665 0.062855
v 0.169875 -0.190649 0.104987
v 0.170943 -0.203854 0.073218
v 0.176392 -0.199297 0.071202
v 0.190240 -0.208334 0.057841
v 0.180012 -0.191562 0.067798
v 0.177387 -0.183871 0.101990
v 0.175214 -0.186602 0.103198
v 0.244256 -0.278002 0.143581
v 0.169874 -0.190650 0.104987
v 0.249401 -0.304294 0.100240
v 0.187470 -0.338453 0.115333
v 0.295531 -0.235360 0.124741
v 0.335447 -0.183545 0.101847
v 0.301751 -0.260757 0.081002
v 0.176065 -0.164286 0.093338
v 0.178934 -0.183145 0.064067
v 0.190802 -0.183152 0.046720
v 0.175110 -0.177365 0.061512
v 0.180615 -0.171864 0.041727
v 0.293185 -0.074068 -0.001487
v 0.281531 -0.130956 0.023650
v 0.169265 -0.166844 0.039509
v 0.086616 -0.134851 0.025372
v 0.292589 -0.044530 -0.014537
v 0.291993 -0.024254 -0.048553
v 0.318441 -0.121325 -0.092214
v 0.291993 -0.014991 -0.027589
v 0.351968 -0.014788 -0.027681
v 0.366050 0.053076 -0.057665
v 0.023800 0.086075 -0.072246
v 0.292864 0.100737 -0.078725
v 0.309440 0.107403 -0.081670
v 0.255352 0.152860 -0.101756
v 0.103956 0.169103 -0.108932
v 0.292864 0.091474 -0.099687
v 0.309440 0.098140 -0.102633
v 0.255352 0.143597 -0.122719
v 0.269806 0.153213 -0.126969
v 0.208028 0.189191 -0.142864
v 0.208028 0.198454 -0.121900
v 0.219803 0.210650 -0.127291
v 0.161353 0.250076 -0.144710
v 0.152709 0.235767 -0.138388
v 0.091522 0.263366 -0.150581
v 0.152709 0.226504 -0.159352
v 0.161353 0.240813 -0.165674
v 0.091522 0.254103 -0.171546
v 0.096703 0.269973 -0.178558
v 0.026818 0.270926 -0.178980
v 0.026818 0.280189 -0.158015
v 0.013185 0.242422 -0.141328
v -0.038917 0.285590 -0.160401
v -0.067738 0.273903 -0.155238
v -0.038917 0.276327 -0.181366
v -0.041120 0.293456 -0.188934
v 0.028336 0.287749 -0.186414
v -0.094375 0.265946 -0.175316
v -0.096559 0.262216 -0.150074
v -0.096482 0.239762 -0.251760
v -0.101694 0.291471 -0.186594
v -0.108918 0.273684 -0.266748
v -0.108996 0.296139 -0.165063
v -0.041120 0.302719 -0.167970
v -0.044641 0.330092 -0.180066
v 0.030761 0.323897 -0.177328
v 0.028336 0.297012 -0.165449
v 0.104981 0.304599 -0.168801
v 0.096703 0.279236 -0.157594
v 0.175167 0.272942 -0.154813
v 0.102805 0.318375 -0.119927
v 0.171548 0.287369 -0.106228
v 0.238620 0.230142 -0.135901
v 0.292904 0.177843 -0.112793
v 0.233697 0.245448 -0.087704
v 0.286865 0.194224 -0.065071
v 0.103956 0.189421 -0.062948
v 0.329008 0.135666 -0.039198
v 0.023800 0.106393 -0.026263
v 0.013185 0.262740 -0.095345
v 0.030111 0.337276 -0.128278
v -0.043741 0.343345 -0.130962
v -0.066973 0.159394 -0.104642
v -0.066973 0.179711 -0.058661
v -0.115912 0.336348 -0.127869
v -0.183630 0.316555 -0.119122
v -0.118327 0.322949 -0.176908
v -0.187465 0.302740 -0.167977
v -0.172682 0.277523 -0.156838
v -0.172605 0.255069 -0.258522
v -0.229733 0.238326 -0.164575
v -0.229733 0.247589 -0.143610
v -0.249400 0.270243 -0.153621
v -0.217426 0.224150 -0.158313
v -0.217426 0.233414 -0.137347
v -0.315496 0.158754 -0.104359
v -0.342505 0.173803 -0.111009
v -0.301751 0.226706 -0.134383
v -0.345487 0.132464 -0.204350
v -0.370903 0.076978 -0.179832
v -0.276469 0.114619 -0.196464
v -0.340912 0.103268 -0.079843
v -0.246477 0.140908 -0.096473
v -0.156834 0.244598 -0.142289
v -0.096819 0.108867 -0.082310
v -0.100719 0.098063 -0.077542
v -0.274475 0.069747 -0.065032
v -0.100570 0.088027 -0.073103
v -0.270562 0.101215 -0.112435
v -0.283285 0.091785 -0.161799
v -0.268735 0.095466 -0.113104
v -0.279711 0.087332 -0.155690
v -0.281425 0.076171 -0.144438
v -0.295506 0.047456 -0.166788
v -0.291717 0.050018 -0.152295
v -0.316032 0.033240 -0.133197
v -0.312886 0.054152 -0.153336
v -0.294872 0.028895 -0.132098
v -0.308865 0.038552 -0.105391
v -0.300325 0.015146 -0.136587
v -0.287718 0.034348 -0.104157
v -0.298552 0.064775 -0.097722
v -0.289348 0.023281 -0.094003
v -0.277385 0.060642 -0.096681
v -0.295405 0.085687 -0.117863
v -0.273553 0.063441 -0.082261
v -0.274246 0.081342 -0.116765
v -0.302572 0.080375 -0.145671
v -0.303947 0.068813 -0.131958
v -0.306130 0.064751 -0.136029
v -0.302203 0.070528 -0.126505
v -0.360869 0.076845 -0.135056
v -0.359123 0.078366 -0.129347
v -0.301269 0.069256 -0.120522
v -0.301451 0.064780 -0.114890
v -0.358309 0.076894 -0.123586
v -0.358477 0.072990 -0.118782
v -0.360404 0.065041 -0.116143
v -0.303199 0.057802 -0.112904
v -0.363402 0.057810 -0.119361
v -0.305228 0.052298 -0.114195
v -0.308202 0.047091 -0.120158
v -0.365388 0.054950 -0.124228
v -0.310162 0.047526 -0.129658
v -0.367058 0.054738 -0.131451
v -0.366887 0.060694 -0.139182
v -0.383219 0.016869 -0.153275
v -0.353227 0.043158 -0.053284
v -0.280995 -0.036836 -0.042994
v -0.312179 0.005216 -0.148125
v -0.351967 -0.028527 -0.046665
v -0.351967 -0.019264 -0.025702
v -0.319119 -0.087404 -0.020652
v -0.337182 -0.090863 -0.019121
v -0.292863 -0.144052 0.004379
v -0.309439 -0.150717 0.007325
v -0.337182 -0.081600 0.001842
v -0.309439 -0.141454 0.028289
v -0.382100 -0.019455 -0.025617
v -0.366049 -0.087128 0.004285
v -0.335931 -0.152107 0.032997
v -0.358544 -0.065300 0.049601
v -0.374265 0.000983 0.020316
v -0.383467 0.048311 -0.055560
v -0.086125 0.103763 -0.025100
v -0.286904 -0.187501 0.103596
v -0.375604 0.067357 -0.009015
v -0.370097 0.113566 -0.084393
v -0.362509 0.131271 -0.037254
v -0.089840 0.111631 -0.028576
v -0.090247 0.099804 -0.060940
v -0.088923 0.121563 -0.032965
v -0.087383 0.091740 -0.057390
v -0.335484 0.190269 -0.063322
v -0.295567 0.242084 -0.086218
v -0.244292 0.284726 -0.105059
v -0.091803 0.074158 -0.066975
v -0.082396 0.086762 -0.055192
v -0.076095 0.067088 -0.063848
v -0.078835 0.098786 -0.022901
v -0.073925 0.083461 -0.053718
v -0.061355 0.068454 -0.064459
v -0.069667 0.097292 -0.022241
v -0.062980 0.084987 -0.054392
v -0.051295 0.073864 -0.066848
v -0.062994 0.099111 -0.023044
v -0.054805 0.091818 -0.057410
v -0.059844 0.100873 -0.023824
v -0.053482 0.107681 -0.026832
v -0.055942 0.137740 0.051565
v -0.052143 0.149093 0.046549
v -0.059354 0.115795 0.061260
v -0.034300 0.141540 0.049885
v -0.064985 0.132167 0.054027
v -0.066461 0.097944 -0.022530
v -0.076246 0.131496 0.054324
v -0.084995 0.102305 -0.024455
v -0.075313 0.097728 -0.022432
v -0.085329 0.136999 0.051893
v -0.096256 0.122769 0.058180
v -0.059354 0.127508 0.087769
v -0.108104 0.155488 0.043722
v -0.096256 0.134482 0.084687
v -0.090321 0.146262 0.047800
v -0.088922 0.121564 -0.032966
v -0.086462 0.159288 0.042044
v -0.083050 0.181233 0.032348
v -0.077420 0.164861 0.039581
v -0.078367 0.130992 -0.037132
v -0.068101 0.165725 0.039201
v -0.063615 0.130832 -0.037061
v -0.080382 0.180576 -0.059039
v -0.080382 0.226179 0.044169
v 0.023268 0.096182 -0.021751
v -0.055235 0.123911 -0.034003
v -0.052968 0.118960 -0.031814
v -0.056673 0.160102 0.041684
v -0.046148 0.174259 0.035428
v -0.046148 0.185971 0.061936
v -0.083050 0.192945 0.058855
v -0.108104 0.167200 0.070230
v -0.034300 0.153253 0.076392
v 0.023268 0.141786 0.081459
v 0.175817 0.299553 0.011749
v -0.003628 0.114061 0.093711
v 0.175817 0.253949 -0.091459
v 0.222697 0.299526 0.011762
v 0.175735 0.180845 0.064199
v 0.175701 0.085809 -0.017168
v 0.222697 0.253922 -0.091449
v 0.270239 0.210869 -0.072427
v 0.270239 0.256473 0.030786
v -0.052393 0.115622 -0.030342
v -0.056278 0.125481 -0.034697
v -0.053994 0.108248 -0.064670
v -0.045402 0.108181 -0.082010
v -0.053169 0.116154 -0.085533
v -0.041061 0.095228 -0.076282
v -0.052294 0.099966 -0.061028
v -0.060010 0.114683 -0.067528
v -0.063682 0.120803 -0.087587
v -0.067215 0.131874 -0.037522
v -0.068478 0.117993 -0.068976
v -0.075340 0.121419 -0.087860
v -0.077677 0.116989 -0.068548
v -0.079936 0.130128 -0.036751
v -0.086368 0.117906 -0.086310
v -0.083989 0.113486 -0.067000
v -0.088356 0.108038 -0.064592
v -0.044259 0.082387 -0.070613
v -0.100632 -0.115268 0.071679
v -0.171584 -0.280647 0.144752
v -0.233734 -0.238726 0.126230
v -0.100596 -0.219989 0.062991
v -0.100632 -0.135585 0.025696
v -0.100596 -0.199671 0.108973
v -0.030262 -0.283164 0.145865
v -0.102868 -0.300833 0.153671
v 0.087208 -0.219254 0.062664
v 0.141670 -0.219061 0.062582
v 0.133277 -0.210446 0.058776
v -0.026945 -0.261642 0.081393
v 0.038792 -0.267847 0.084136
v 0.103054 -0.270676 0.085383
v 0.163423 -0.292322 0.094952
v -0.091603 -0.263644 0.082278
v -0.152768 -0.245186 0.074122
v -0.152768 -0.254449 0.053159
v -0.091603 -0.272907 0.061315
v -0.096784 -0.288778 0.068327
v -0.161353 -0.293390 0.070363
v -0.026945 -0.270905 0.060429
v -0.028463 -0.287728 0.067863
v 0.038792 -0.277110 0.063172
v 0.040995 -0.294238 0.070741
v 0.103054 -0.279940 0.064421
v 0.108892 -0.296715 0.071834
v 0.163423 -0.301585 0.073987
v 0.172674 -0.317365 0.080956
v 0.217426 -0.276728 0.063002
v 0.217426 -0.267465 0.083966
v 0.229733 -0.281640 0.090229
v 0.172674 -0.308101 0.101921
v 0.229733 -0.290903 0.069265
v 0.315496 -0.192805 0.050979
v 0.282731 -0.230728 -0.043874
v 0.340752 -0.240061 -0.039748
v 0.366168 -0.184575 -0.064265
v 0.342505 -0.207854 0.057628
v 0.257475 -0.183472 0.046855
v 0.340912 -0.137319 0.026462
v 0.378483 -0.124466 -0.090827
v 0.353227 -0.077210 -0.000099
v 0.370098 -0.147617 0.031013
v 0.383467 -0.082362 0.002178
v 0.362471 -0.124544 0.075782
v 0.375566 -0.060633 0.047538
v 0.374227 0.005741 0.018209
v 0.382100 -0.014596 -0.027765
v 0.358506 0.072022 -0.011075
v 0.351968 -0.024051 -0.048642
v 0.193411 -0.197159 0.052903
v 0.306786 -0.178214 -0.067077
v 0.108892 -0.287452 0.092798
v 0.118294 -0.343345 0.117494
v 0.115843 -0.315657 0.160222
v 0.044522 -0.315026 0.104981
v -0.030867 -0.314268 0.104646
v 0.043576 -0.283313 0.145930
v 0.040995 -0.284975 0.091704
v -0.028463 -0.278465 0.088827
v -0.096784 -0.279515 0.089292
v -0.105008 -0.327603 0.110540
v -0.174700 -0.306514 0.101220
v -0.238650 -0.264223 0.082536
v -0.161353 -0.284126 0.091328
v -0.219802 -0.244701 0.073910
v -0.268839 -0.200319 0.054298
v -0.292903 -0.211894 0.059414
v -0.226803 -0.266774 0.031237
v -0.230633 -0.266622 0.026601
v -0.214537 -0.277250 0.033607
v -0.221216 -0.269572 0.034748
v -0.189520 -0.226767 0.015845
v -0.181998 -0.233887 0.016296
v -0.188572 -0.220806 0.031466
v -0.179284 -0.238453 0.011941
v -0.169682 -0.242088 0.024906
v -0.158259 -0.227335 0.018386
v -0.177149 -0.206052 0.024947
v -0.169682 -0.253891 -0.001806
v -0.179663 -0.241577 0.004037
v -0.185227 -0.240137 -0.004959
v -0.158259 -0.239137 -0.008325
v -0.188573 -0.244411 -0.021957
v -0.207463 -0.223129 -0.015398
v -0.192897 -0.233519 -0.006873
v -0.177149 -0.229658 -0.028476
v -0.196040 -0.208376 -0.021916
v -0.144110 -0.254565 -0.012079
v -0.175512 -0.236857 -0.041165
v -0.184642 -0.247503 -0.036460
v -0.145028 -0.268094 -0.011042
v -0.206914 -0.203430 -0.034674
v -0.218626 -0.206529 -0.038243
v -0.206948 -0.183333 0.010695
v -0.196040 -0.196573 0.004796
v -0.207463 -0.211326 0.011313
v -0.195791 -0.223246 0.010002
v -0.198304 -0.224815 0.000918
v -0.196365 -0.229098 -0.004505
v -0.233045 -0.270290 0.019232
v -0.231203 -0.275821 0.014766
v -0.231746 -0.295730 -0.015152
v -0.274360 -0.253592 -0.033770
v -0.191949 -0.316309 0.010263
v -0.191949 -0.322344 -0.003390
v -0.217499 -0.286446 0.018785
v -0.222948 -0.284344 0.014615
v -0.227759 -0.280529 0.013299
v -0.213304 -0.284015 0.026978
v -0.145956 -0.275082 -0.024274
v -0.220022 -0.150881 0.032455
v -0.231967 -0.201910 -0.056605
v -0.319119 -0.078142 0.000314
v -0.280995 -0.027573 -0.022030
v -0.172089 -0.197583 0.052925
v -0.292863 -0.134789 0.025344
v -0.144110 -0.234946 0.032323
v -0.281591 0.001966 -0.035081
v -0.339003 -0.048668 -0.012709
v -0.282187 0.031505 -0.048133
v -0.295455 0.020307 -0.091516
v -0.309238 0.009787 -0.140397
v -0.303374 0.047692 -0.166892
v -0.300524 0.062105 -0.173262
v 0.144949 -0.198010 0.070636
v 0.145175 -0.184433 0.102240
v -0.329047 -0.128941 0.077720
v -0.309673 0.053409 -0.135885
v -0.308160 0.059246 -0.137324
v -0.365095 0.067489 -0.140778
v -0.362976 0.073080 -0.139193
v -0.156757 0.222144 -0.243975
v 0.335931 0.118055 -0.086375
v 0.269806 0.162476 -0.106004
v 0.219803 0.201387 -0.148255
v 0.149293 -0.101149 0.177096
v -0.189649 0.007092 0.211283
v -0.189629 0.039795 0.209832
v -0.189608 0.072095 0.197870
v -0.189587 0.098860 0.177240
v -0.189570 0.115827 0.151268
v -0.189563 0.120250 0.130576
v 0.247782 -0.018030 0.118630
v 0.247784 -0.009696 0.128397
v 0.247794 -0.037849 0.232057
v 0.247808 -0.010045 0.239969
v 0.247791 -0.044218 0.229421
v 0.247772 -0.095352 0.190598
v 0.247780 -0.069176 0.214821
v 0.247778 -0.074983 0.210269
v 0.314575 -0.074674 0.210696
v 0.247770 -0.086149 0.216359
v 0.247759 -0.104842 0.216474
v 0.247760 -0.100961 0.220404
v 0.314557 -0.100617 0.220690
v 0.314562 -0.100529 0.201196
v 0.314556 -0.104605 0.216869
v 0.314577 -0.068732 0.215089
v 0.314587 -0.044663 0.229106
v 0.314573 -0.071613 0.226629
v 0.314580 -0.053251 0.237308
v 0.247772 -0.071985 0.242505
v 0.314568 -0.071663 0.242818
v 0.314570 -0.067287 0.245360
v 0.247774 -0.066848 0.245532
v 0.314591 -0.037359 0.232173
v 0.314598 -0.016829 0.249832
v 0.314588 -0.037281 0.244063
v 0.314588 -0.028431 0.261134
v 0.247789 -0.033687 0.259545
v 0.314586 -0.033302 0.259760
v 0.247792 -0.027865 0.261109
v 0.247812 -0.003227 0.240919
v 0.247812 0.007645 0.266524
v 0.314607 0.000308 0.252413
v 0.247828 0.025677 0.241686
v 0.314620 0.021551 0.252919
v 0.247815 0.013605 0.266705
v 0.247833 0.032526 0.240926
v 0.247850 0.060703 0.234464
v 0.247840 0.055271 0.261576
v 0.247837 0.049416 0.263007
v 0.314630 0.038793 0.251153
v 0.314643 0.059496 0.246359
v 0.314633 0.049844 0.262998
v 0.314636 0.054775 0.261854
v 0.314611 0.013127 0.266748
v 0.314608 0.008067 0.266631
v 0.314615 -0.010436 0.127800
v 0.314613 -0.018731 0.117473
v 0.314659 0.053570 0.100413
v 0.314746 0.181035 0.116612
v 0.314737 0.167097 0.122805
vn 1.0000 -0.0006 0.0002
vn -0.0021 0.4443 0.8959
vn 0.0049 -0.5384 0.8427
vn -0.0006 0.4604 0.8877
vn 0.0060 0.9990 0.0444
vn -1.0000 0.0006 -0.0003
vn -0.0173 0.9984 -0.0533
vn -1.0000 0.0009 0.0003
vn -1.0000 0.0009 0.0002
vn 0.0085 0.9806 -0.1959
vn 0.0018 0.5656 0.8247
vn 0.0024 0.5612 0.8277
vn -1.0000 0.0010 0.0002
vn 0.0073 -0.5301 0.8479
vn -0.0182 -0.4033 0.9149
vn 0.0050 -0.3121 0.9500
vn -0.0020 0.6579 0.7531
vn -0.0010 0.6669 0.7451
vn 0.0060 0.9786 -0.2055
vn -0.0173 0.9538 -0.3001
vn 1.0000 -0.0006 0.0003
vn 0.0085 0.9010 -0.4336
vn 1.0000 -0.0007 0.0001
vn 0.0020 0.7530 0.6580
vn 1.0000 -0.0007 0.0002
vn -0.0060 -0.9056 -0.4241
vn 0.0060 0.2969 -0.9549
vn 1.0000 -0.0009 -0.0007
vn 1.0000 -0.0003 0.0004
vn 1.0000 -0.0006 0.0001
vn 1.0000 -0.0009 -0.0001
vn 1.0000 -0.0007 0.0006
vn -0.0069 0.3226 -0.9465
vn 1.0000 -0.0007 0.0003
vn 0.0022 0.9765 0.2155
vn 0.0084 0.5806 -0.8141
vn 0.0060 0.7586 -0.6515
vn -0.0173 0.6912 -0.7224
vn 0.0075 -0.0558 0.9984
vn -0.0180 0.0877 0.9960
vn 0.0053 0.1842 0.9829
vn -1.0000 0.0006 -0.0002
vn -0.0003 0.9449 0.3275
vn -0.0007 0.9435 0.3314
vn -1.0000 0.0039 0.0015
vn -1.0000 0.0084 0.0025
vn 0.0026 0.8906 0.4548
vn -1.0000 0.0009 0.0008
vn -1.0000 0.0010 -0.0000
vn -0.0173 0.8492 -0.5279
vn 0.0021 0.8929 0.4503
vn 0.0085 0.7649 -0.6441
vn -0.0018 0.8244 0.5660
vn -0.0181 -0.1632 0.9864
vn 0.0051 -0.0660 0.9978
vn -0.0008 0.8313 0.5558
vn 0.0060 0.8968 -0.4424
vn 0.0074 -0.3027 0.9531
vn -1.0000 0.0010 0.0001
vn 0.0025 0.7498 0.6617
vn -1.0000 0.0014 0.0014
vn 0.0006 0.9277 -0.3732
vn -1.0000 0.0009 0.0014
vn -0.9992 0.0403 0.0077
vn -0.0000 0.4041 0.9147
vn -0.0001 0.4043 0.9146
vn -1.0000 0.0004 0.0021
vn -1.0000 0.0005 0.0019
vn -1.0000 0.0002 -0.0004
vn -1.0000 0.0002 -0.0003
vn -0.0042 -0.8793 0.4763
vn 0.0027 -0.9882 0.1529
vn -1.0000 -0.0019 0.0011
vn -0.0057 -0.8826 0.4700
vn -1.0000 -0.0012 0.0014
vn 0.0065 -0.7272 0.6864
vn -1.0000 -0.0004 0.0018
vn -0.0113 -0.6295 0.7769
vn 0.0102 -0.4329 0.9014
vn 1.0000 -0.0003 -0.0001
vn 1.0000 -0.0004 -0.0002
vn -0.0111 -0.2838 0.9588
vn 1.0000 -0.0006 -0.0004
vn 0.0104 -0.0546 0.9985
vn -0.0108 0.1035 0.9946
vn -1.0000 0.0022 0.0042
vn 0.0106 0.3298 0.9440
vn -1.0000 0.0004 0.0025
vn -1.0000 0.0029 0.0050
vn -1.0000 0.0028 0.0022
vn 0.0108 0.6660 0.7459
vn -0.0106 0.4758 0.8795
vn -1.0000 0.0028 0.0008
vn -0.0103 0.7748 0.6322
vn 0.0110 0.9001 0.4356
vn -1.0000 0.0030 -0.0001
vn -0.0066 0.9495 0.3137
vn 0.0042 0.9983 0.0578
vn 0.0056 0.9987 0.0510
vn 1.0000 -0.0012 0.0001
vn 1.0000 -0.0012 0.0002
vn 0.8802 -0.4702 -0.0647
vn -0.0000 -0.4042 -0.9147
vn 1.0000 -0.0011 -0.0002
vn 1.0000 -0.0012 -0.0012
vn 1.0000 -0.0011 -0.0008
vn 0.9999 0.0124 -0.0021
vn 0.0177 0.1161 0.9931
vn -0.0080 0.2571 0.9664
vn -0.0020 -0.7968 0.6042
vn -0.0007 -0.7768 0.6297
vn 0.0053 -0.8496 0.5274
vn 0.0014 0.0478 0.9989
vn 1.0000 0.0040 -0.0030
vn 1.0000 0.0028 -0.0013
vn -0.0140 -0.9500 0.3119
vn -0.0006 -0.9483 0.3174
vn 0.0052 0.4104 0.9119
vn 0.0066 0.4062 0.9138
vn 0.0084 0.4109 0.9116
vn 1.0000 -0.0015 -0.0017
vn -0.4954 -0.7946 0.3511
vn -0.4974 -0.8044 0.3249
vn 0.9999 0.0079 0.0089
vn -0.0001 0.4041 0.9147
vn 0.0003 0.4045 0.9145
vn 0.0004 0.9145 -0.4045
vn -0.0000 0.4039 0.9148
vn -0.0005 -0.4590 0.8885
vn 1.0000 0.0032 -0.0071
vn 0.0011 0.9147 -0.4042
vn 1.0000 0.0084 -0.0037
vn 0.0015 0.9987 0.0509
vn 0.0012 0.9983 0.0578
vn -0.0000 0.9553 -0.2956
vn 0.9999 0.0121 -0.0035
vn 0.9999 0.0036 0.0102
vn 0.9999 0.0130 0.0009
vn -0.0008 0.9495 0.3137
vn 0.9999 0.0104 0.0041
vn -0.0017 0.7749 0.6321
vn 0.0024 0.9001 0.4357
vn 0.9999 0.0085 0.0077
vn -0.0019 0.4760 0.8795
vn 0.0021 0.6661 0.7459
vn 0.9999 0.0069 0.0140
vn 0.9998 0.0065 0.0166
vn 0.9999 0.0010 0.0128
vn 0.0019 0.3298 0.9441
vn -0.0021 0.1035 0.9946
vn -1.0000 0.0004 -0.0006
vn -1.0000 0.0006 -0.0005
vn 0.0017 -0.0548 0.9985
vn -1.0000 0.0010 -0.0003
vn 0.0015 -0.4329 0.9014
vn -0.0024 -0.2838 0.9589
vn -1.0000 0.0025 0.0003
vn -1.0000 0.0010 -0.0013
vn -0.9998 0.0082 -0.0166
vn -0.0025 -0.6294 0.7771
vn 0.0007 -0.7272 0.6864
vn 0.9999 -0.0133 0.0096
vn 0.9999 -0.0090 0.0097
vn 0.9999 -0.0125 0.0068
vn -0.0013 -0.8793 0.4762
vn -0.0016 -0.8827 0.4699
vn 0.9999 -0.0120 0.0022
vn 0.9999 -0.0117 0.0017
vn -0.0000 -0.9883 0.1528
vn -0.0010 -0.9924 0.1234
vn 0.9999 -0.0102 -0.0016
vn 1.0000 -0.0088 -0.0036
vn 0.9999 -0.0111 -0.0017
vn -0.0002 -0.9900 -0.1409
vn -0.0017 -0.9843 -0.1763
vn 1.0000 -0.0073 -0.0062
vn 0.9999 -0.0102 -0.0049
vn 0.0009 -0.9168 -0.3993
vn -0.0014 -0.9056 -0.4241
vn 1.0000 0.0022 -0.0097
vn 0.9999 -0.0027 -0.0110
vn 0.9999 -0.0055 -0.0102
vn -0.0009 0.3225 -0.9466
vn 0.0014 0.2969 -0.9549
vn 1.0000 0.0009 -0.0094
vn 0.9999 0.0055 -0.0086
vn 0.0002 0.5613 -0.8276
vn 0.0016 0.5314 -0.8471
vn 1.0000 0.0045 -0.0086
vn 0.9999 0.0084 -0.0067
vn 0.0010 0.7608 -0.6490
vn -0.0000 0.7797 -0.6261
vn 0.0013 0.9444 -0.3288
vn 0.0039 -0.4580 0.8890
vn 0.0004 -0.4724 0.8814
vn -0.0002 -0.5329 0.8462
vn -0.0016 -0.5008 0.8656
vn -0.0005 -0.4601 0.8879
vn -0.0000 -0.4041 -0.9147
vn -0.0006 -0.9147 0.4042
vn -0.0001 -0.4043 -0.9146
vn 0.0001 -0.4041 -0.9147
vn -0.0000 -0.4042 -0.9146
vn -1.0000 -0.0017 0.0010
vn -1.0000 -0.0019 0.0008
vn 0.9551 -0.2737 0.1138
vn 0.0002 0.4039 0.9148
vn 0.9111 -0.3773 0.1661
vn 1.0000 -0.0049 0.0063
vn 0.9984 -0.0495 0.0282
vn 0.9968 -0.0688 0.0416
vn 0.6340 -0.6567 -0.4084
vn 0.7716 -0.3228 -0.5481
vn 0.7681 -0.3132 -0.5586
vn 0.8908 -0.4184 0.1771
vn 0.8247 -0.5163 0.2309
vn 0.6839 -0.6423 0.3460
vn 0.6228 -0.6872 -0.3740
vn 0.3670 -0.8664 -0.3387
vn 0.5430 -0.7690 0.3373
vn 0.4875 -0.7944 0.3623
vn 0.2798 -0.9210 -0.2711
vn -0.0357 -0.9578 -0.2853
vn 0.2841 -0.8796 0.3815
vn 0.1394 -0.9086 0.3937
vn -0.0468 -0.9118 0.4081
vn -0.1322 -0.8937 0.4287
vn 0.0002 0.4045 0.9145
vn 0.0001 0.4043 0.9146
vn -0.0001 -0.4042 -0.9147
vn 0.1883 -0.8945 0.4055
vn -0.2092 -0.8964 0.3909
vn 0.0001 0.4042 0.9147
vn 0.4692 -0.8120 0.3471
vn -0.2616 -0.8877 0.3788
vn -0.5982 -0.7283 0.3343
vn -0.8492 -0.4878 0.2024
vn -0.9410 -0.3045 0.1477
vn -0.9995 0.0209 -0.0217
vn -0.0000 0.4042 0.9147
vn -0.7469 0.6082 -0.2687
vn -0.9493 -0.2876 0.1271
vn 0.2023 0.8958 -0.3958
vn -0.0000 0.4075 0.9132
vn 0.0004 0.4060 0.9139
vn -0.0008 0.4048 0.9144
vn 0.0013 0.4045 0.9145
vn 0.9493 0.2876 -0.1271
vn 0.7469 -0.6082 0.2687
vn 0.8467 0.4839 -0.2211
vn 0.9119 0.3778 -0.1603
vn 0.9949 0.0900 -0.0463
vn 0.6192 0.7201 -0.3131
vn 0.4420 0.8175 -0.3693
vn -0.0000 0.4043 0.9146
vn 0.4771 0.7993 -0.3653
vn 0.2504 0.8871 -0.3878
vn 0.5820 0.7382 -0.3410
vn 0.0002 -0.4046 -0.9145
vn -0.0003 0.4041 0.9147
vn 0.4239 0.8324 -0.3569
vn 0.2020 0.8916 -0.4053
vn 0.0447 0.4473 -0.8933
vn 0.3259 0.3780 -0.8665
vn 0.0344 0.4435 -0.8956
vn 0.0450 0.9178 -0.3946
vn -0.2758 0.4050 -0.8717
vn -0.2654 0.4160 -0.8698
vn -0.2167 0.8877 -0.4063
vn -0.3408 0.8640 -0.3706
vn -0.6749 0.6731 -0.3025
vn -0.5097 0.2445 -0.8248
vn -0.6381 0.7073 -0.3041
vn -0.6922 0.0063 -0.7217
vn -0.6080 0.2030 -0.7675
vn -0.9192 0.3632 -0.1523
vn -0.8086 0.5361 -0.2425
vn -0.6381 0.7059 -0.3075
vn -0.8086 0.5392 -0.2356
vn -0.0002 -0.4044 -0.9146
vn 0.0003 0.4043 0.9146
vn -0.5322 0.7713 -0.3491
vn -0.2167 0.8949 -0.3902
vn 0.6637 -0.6020 0.4439
vn 0.5096 -0.7075 0.4897
vn 0.5096 -0.7075 0.4896
vn 0.8066 -0.4541 0.3784
vn 0.6638 -0.6020 0.4439
vn -0.9407 -0.3195 0.1137
vn -0.9930 -0.0982 0.0655
vn -0.9508 0.2784 -0.1356
vn -0.7776 -0.3353 -0.5319
vn -0.6460 -0.6226 -0.4417
vn -0.8555 -0.4694 0.2186
vn -0.6051 -0.7075 -0.3651
vn -0.4268 -0.8337 -0.3505
vn -0.5656 -0.7567 0.3279
vn -0.3395 -0.8952 -0.2886
vn 0.0001 -0.4044 -0.9146
vn -0.0440 -0.9587 -0.2811
vn -0.9998 -0.0169 0.0075
vn -0.9704 -0.2145 -0.1109
vn -0.9708 -0.1130 -0.2114
vn -0.0037 0.9147 -0.4042
vn 0.4024 -0.8373 0.3700
vn -0.8353 -0.5029 0.2222
vn 0.4025 -0.8373 0.3700
vn -0.7252 -0.6298 0.2783
vn -0.7496 0.6054 -0.2675
vn 0.8753 -0.4424 0.1955
vn -0.4423 -0.8204 0.3625
vn -0.2734 -0.8798 0.3887
vn -0.0895 -0.9110 0.4025
vn 0.4053 -0.8362 0.3695
vn -0.0235 -0.4066 -0.9133
vn 0.1958 -0.9726 0.1257
vn 0.3573 -0.9280 -0.1062
vn 0.9727 -0.2264 0.0507
vn 0.9673 0.2307 -0.1057
vn -0.0218 -0.4093 -0.9121
vn 0.9479 0.2821 -0.1480
vn -0.0455 0.9137 -0.4037
vn -0.0117 0.9764 -0.2156
vn -0.1039 0.9641 -0.2442
vn 0.0895 0.9110 -0.4025
vn 0.2734 0.8798 -0.3887
vn 0.4423 0.8204 -0.3625
vn 0.4376 0.8704 -0.2258
vn 0.5873 0.7868 -0.1899
vn 0.7176 0.6816 -0.1432
vn -0.7496 0.6055 -0.2675
vn -0.6619 -0.6856 0.3029
vn 0.7496 -0.6055 0.2675
vn -0.3007 0.9237 -0.2376
vn -0.1042 0.9607 -0.2574
vn -0.5400 0.8218 -0.1819
vn -0.2990 0.9318 -0.2060
vn -0.4976 0.7934 -0.3506
vn -0.0001 -0.4041 -0.9147
vn -0.7831 -0.5688 0.2513
vn 0.2713 0.9077 -0.3200
vn -0.8751 0.4630 0.1407
vn 0.8703 -0.4731 -0.1367
vn 0.0001 -0.4037 -0.9149
vn -0.0001 -0.4046 -0.9145
vn 0.8707 -0.4398 -0.2201
vn 0.9007 0.3204 -0.2934
vn 0.8737 -0.4672 -0.1359
vn 0.9300 0.2661 0.2534
vn 0.9007 0.3204 -0.2933
vn 0.7993 -0.1550 -0.5806
vn 0.9297 -0.3223 -0.1781
vn 0.9333 -0.3159 -0.1711
vn 0.9300 -0.3163 -0.1872
vn 0.1018 0.6795 0.7266
vn 0.0977 0.6827 0.7241
vn -0.0964 -0.2514 0.9631
vn 0.9297 -0.3175 -0.1869
vn 0.2072 0.9497 -0.2348
vn 0.2027 0.9501 -0.2373
vn 0.9329 -0.3102 -0.1830
vn 0.9332 -0.3120 -0.1780
vn 0.1042 0.2412 -0.9649
vn 0.9346 -0.3052 -0.1826
vn 0.0940 0.2379 -0.9667
vn 0.9309 -0.3117 -0.1903
vn -0.1031 -0.6845 -0.7216
vn -0.0977 -0.6827 -0.7241
vn 0.9316 -0.3117 -0.1871
vn 0.9292 -0.3202 -0.1848
vn -0.2026 -0.9518 0.2304
vn -0.2072 -0.9497 0.2348
vn 0.9310 -0.3159 -0.1826
vn 0.9311 -0.3159 -0.1825
vn -0.1042 -0.2411 0.9649
vn 0.9300 -0.3216 -0.1779
vn 0.9229 -0.3349 -0.1899
vn 0.9330 -0.3173 -0.1699
vn 0.9318 -0.3152 -0.1799
vn -0.1448 -0.9442 0.2959
vn -0.1495 -0.9285 0.3398
vn -0.1248 -0.9743 -0.1876
vn 0.9313 -0.2986 -0.2088
vn 0.9315 -0.2988 -0.2075
vn -0.0710 -0.7798 -0.6220
vn -0.1170 -0.9660 -0.2304
vn -0.0683 -0.7731 -0.6306
vn -0.9370 0.2864 0.2000
vn -0.9380 0.2801 0.2042
vn -0.9363 0.2918 0.1954
vn 0.0187 -0.3191 -0.9475
vn 0.0192 -0.2782 -0.9603
vn 0.0805 0.1994 -0.9766
vn -0.9346 0.3089 0.1765
vn 0.1165 0.3631 -0.9244
vn 0.9351 -0.3300 -0.1290
vn 0.9246 -0.3463 -0.1587
vn 0.9390 -0.3124 -0.1439
vn 0.1288 0.7143 -0.6879
vn 0.1521 0.8238 -0.5462
vn 0.1402 0.9882 -0.0615
vn 0.9221 -0.3280 -0.2053
vn 0.9174 -0.3610 -0.1675
vn 0.1251 0.9919 0.0196
vn -0.9372 0.2798 0.2084
vn 0.0808 0.7887 0.6094
vn -0.9375 0.2853 0.1991
vn -0.9366 0.2508 0.2445
vn -0.9366 0.2831 0.2065
vn -0.9585 0.0095 0.2850
vn -0.1288 -0.9333 -0.3351
vn -0.0893 -0.9256 -0.3679
vn -0.9368 0.2829 0.2059
vn -0.9370 0.2665 0.2259
vn -0.9773 -0.1939 0.0857
vn -0.9207 -0.3570 0.1578
vn -0.9660 -0.1306 0.2229
vn -0.9105 -0.2930 0.2919
vn -0.9879 0.0456 0.1482
vn -0.9707 0.2298 0.0700
vn 0.9510 0.2864 -0.1166
vn 0.9963 -0.0839 0.0181
vn 0.9180 0.3586 -0.1693
vn -0.9106 0.4133 -0.0086
vn -0.8069 0.5848 -0.0831
vn -0.8069 0.5849 -0.0831
vn -0.6640 0.7328 -0.1487
vn -0.4913 0.8475 -0.2011
vn 0.5968 0.2631 -0.7580
vn 0.7338 0.1736 -0.6569
vn 0.7671 -0.0099 -0.6415
vn 0.7372 0.6233 -0.2608
vn 0.3712 0.4710 -0.8002
vn 0.3248 0.4661 -0.8229
vn 0.3924 0.8470 -0.3586
vn 0.5981 0.7272 -0.3367
vn -0.0842 0.5323 -0.8423
vn -0.1233 0.5072 -0.8530
vn 0.1753 0.8924 -0.4158
vn -0.1507 0.9124 -0.3805
vn -0.4246 0.4400 -0.7913
vn -0.5435 0.3049 -0.7821
vn -0.2855 0.8737 -0.3938
vn -0.5218 0.7777 -0.3506
vn -0.6744 0.6812 -0.2848
vn -0.0000 0.4048 0.9144
vn -0.7601 0.5897 -0.2730
vn -0.7601 0.5984 -0.2533
vn -0.5218 0.7767 -0.3528
vn 0.0001 0.4041 0.9147
vn -0.9561 0.2623 -0.1306
vn -0.5588 0.7568 -0.3390
vn -0.2170 0.8927 -0.3949
vn -0.0650 0.9090 -0.4117
vn -0.3452 0.8593 -0.3775
vn 0.5522 0.7599 -0.3429
vn 0.4591 0.8152 -0.3531
vn 0.0840 0.9125 -0.4004
vn -0.0001 0.4042 0.9147
vn 0.9964 -0.0744 0.0400
vn 0.9651 -0.2454 0.0918
vn 0.8969 0.4040 -0.1797
vn 0.9032 0.3930 -0.1725
vn 0.5588 -0.7612 0.3292
vn 0.6986 -0.6482 0.3031
vn 0.1008 -0.9106 0.4008
vn -0.0119 -0.9095 0.4155
vn 0.6649 0.6832 -0.3019
vn -0.7470 0.6081 -0.2687
vn -0.6701 -0.6745 0.3098
vn -0.0002 -0.4045 -0.9145
vn -0.9224 -0.3551 0.1523
vn -0.4736 -0.8111 0.3432
vn -0.9359 -0.3254 0.1350
vn -0.2023 -0.8958 0.3958
vn -0.7491 0.6060 -0.2678
vn 0.0006 0.9556 -0.2948
vn 0.0006 0.9556 -0.2947
vn 0.9995 -0.0134 -0.0273
vn 0.0006 0.9147 -0.4042
vn -0.0006 -0.6504 0.7596
vn 1.0000 -0.0001 0.0001
vn 0.7036 0.6500 -0.2872
vn 0.8060 0.5415 -0.2392
vn -0.9878 -0.1415 0.0648
vn -0.9877 -0.1368 0.0754
vn 0.0002 -0.4034 -0.9150
vn -0.0001 0.4034 0.9150
vn 0.0001 0.4044 0.9146
vn -0.9069 -0.3914 0.1559
vn -0.8033 -0.4445 -0.3963
vn -0.6132 -0.7303 -0.3010
vn -0.7602 -0.5866 0.2794
vn -0.6280 -0.7192 -0.2974
vn -0.7989 -0.3719 -0.4727
vn -0.9828 -0.1660 0.0815
vn -0.3605 -0.9085 -0.2112
vn -0.3218 -0.9204 -0.2219
vn -0.5383 -0.7805 0.3179
vn -0.3924 -0.8356 0.3845
vn 0.1178 -0.9102 0.3970
vn -0.0483 -0.9857 -0.1613
vn 0.0963 -0.9726 -0.2114
vn 0.5187 -0.7765 0.3577
vn 0.1483 -0.9102 0.3867
vn 0.2749 -0.9439 -0.1832
vn 0.4219 -0.8711 -0.2514
vn 0.5772 -0.7776 -0.2491
vn 0.6529 -0.6752 -0.3434
vn 0.8065 -0.5383 0.2447
vn 0.7213 -0.6431 0.2572
vn 0.7916 -0.4621 -0.3998
vn 0.7973 -0.3882 -0.4622
vn 0.9786 -0.1824 0.0956
vn -0.0010 -0.4038 -0.9149
vn 0.0002 -0.4042 -0.9146
vn 0.0002 0.4041 0.9147
vn 0.0001 -0.4042 -0.9147
vn -0.9623 0.2562 -0.0912
vn -0.9922 0.1098 -0.0593
vn -0.8071 -0.0132 -0.5902
vn -0.0001 -0.4038 -0.9148
vn -0.8013 -0.0631 -0.5950
vn -0.6677 0.2399 -0.7047
vn -0.9922 0.1153 -0.0469
vn -0.0000 -0.4043 -0.9146
vn -0.0002 -0.4051 -0.9143
vn 0.0002 -0.4036 -0.9150
vn -0.0002 -0.4048 -0.9144
vn 1.0000 0.0004 -0.0002
vn 0.0043 -0.9147 0.4042
vn -0.0043 0.9147 -0.4041
vn -0.0043 0.9147 -0.4042
vn 0.0001 -0.4040 -0.9147
vn -0.0001 -0.4039 -0.9148
vn -1.0000 -0.0059 0.0026
vn -0.0338 0.9142 -0.4039
vn 0.3133 0.8686 -0.3838
vn 0.1027 0.9099 -0.4020
vn 0.0481 0.9136 -0.4037
vn 0.3650 0.8516 -0.3763
vn -0.0000 -0.4040 -0.9148
vn -0.4495 0.8171 -0.3610
vn 0.0003 -0.4038 -0.9148
vn -0.0004 -0.4043 -0.9146
vn 0.7831 0.5688 -0.2513
vn 0.4522 -0.8158 0.3605
vn -0.1732 -0.8924 0.4166
vn 0.8941 -0.2435 0.3758
vn 0.9524 -0.0634 0.2981
vn 0.9103 -0.2838 0.3013
vn 0.9705 -0.1024 0.2181
vn 0.9705 -0.1025 0.2181
vn 0.9878 0.0792 0.1341
vn 0.9660 0.2528 0.0536
vn 0.9105 0.4130 -0.0205
vn 0.9677 0.1822 0.1745
vn 0.9998 0.0169 -0.0075
vn -0.0027 0.3867 -0.9222
vn 0.0429 0.4195 -0.9067
vn -0.8941 0.2435 -0.3758
vn -0.7550 -0.0737 -0.6515
vn -0.7545 -0.3775 -0.5369
vn -0.9524 0.0634 -0.2981
vn -0.8941 0.2436 -0.3758
vn -0.3337 -0.8623 0.3810
vn 0.0762 -0.8416 0.5347
vn 0.0667 -0.8356 0.5453
vn -0.3838 -0.7848 0.4865
vn -0.0107 -0.7907 0.6121
vn -0.4298 -0.7187 0.5466
vn -0.0398 -0.9140 0.4038
vn -0.1019 -0.9099 0.4021
vn -0.0399 -0.9140 0.4038
vn 0.0168 -0.9146 0.4041
vn -0.1020 -0.9099 0.4020
vn 0.1881 -0.7853 0.5898
vn 0.2551 -0.8272 0.5007
vn -0.3108 -0.8006 0.5123
vn -0.5807 -0.6810 0.4462
vn -0.3031 -0.8096 0.5027
vn 0.0778 -0.9119 0.4029
vn -0.5935 -0.7362 0.3253
vn -0.6947 -0.5788 0.4272
vn -0.5427 -0.6867 0.4837
vn -0.5710 -0.6872 0.4491
vn -0.6079 -0.6602 0.4412
vn -0.6514 -0.6296 0.4234
vn 0.2405 -0.5356 -0.8095
vn -0.1984 -0.2693 -0.9424
vn -0.3173 -0.1365 -0.9384
vn 0.6650 0.6834 -0.3012
vn 0.6653 0.6833 -0.3009
vn 0.6654 0.6830 -0.3013
vn -0.6880 0.2433 -0.6837
vn -0.4099 -0.0839 -0.9083
vn 0.6656 0.6826 -0.3016
vn -0.8161 0.5286 -0.2336
vn -0.4100 -0.0839 -0.9082
vn 0.6653 0.6827 -0.3022
vn 0.6655 0.6827 -0.3018
vn 0.6653 0.6826 -0.3026
vn -0.8161 0.5287 -0.2336
vn -0.4099 0.6150 0.6736
vn 0.4099 0.0839 0.9083
vn 0.6645 0.6832 -0.3028
vn 0.6648 0.6830 -0.3026
vn 0.6649 0.6832 -0.3018
vn 0.2287 -0.5509 -0.8027
vn -0.3309 -0.1293 -0.9348
vn 0.6445 -0.1018 -0.7578
vn 0.2477 0.1639 -0.9549
vn -0.1176 0.9079 -0.4023
vn 0.6654 0.6827 -0.3019
vn 0.4100 -0.6150 -0.6736
vn 0.8161 -0.5287 0.2336
vn 0.4099 -0.6150 -0.6736
vn 0.6652 0.6827 -0.3024
vn 0.6645 0.6838 -0.3013
vn 0.6644 0.6837 -0.3018
vn 0.6641 0.6838 -0.3022
vn 0.6644 0.6835 -0.3023
vn 0.7554 -0.3553 0.5506
vn 0.8010 -0.5977 0.0354
vn 0.7572 -0.6457 -0.0980
vn 0.7204 -0.2745 0.6369
vn -0.7385 -0.5551 0.3828
vn -0.7243 -0.5671 0.3922
vn -0.6439 -0.5797 0.4994
vn -0.7282 -0.5652 0.3876
vn -0.6318 -0.5605 0.5354
vn -0.4747 -0.7777 0.4121
vn -0.5902 -0.7384 0.3263
vn -0.5937 -0.6773 0.4345
vn -0.6298 -0.6450 0.4329
vn -0.6637 -0.6171 0.4227
vn 0.0428 0.3737 0.9266
vn 0.0688 0.3499 0.9343
vn 0.4487 0.0502 0.8923
vn -0.3261 0.6013 0.7294
vn -0.7243 0.6675 0.1728
vn -0.5921 0.6540 0.4709
vn -0.5261 -0.7033 0.4781
vn -0.5621 -0.6289 0.5372
vn -0.7526 0.3858 -0.5337
vn -0.8157 0.5502 -0.1784
vn 0.7469 -0.6081 0.2688
vn 0.6121 0.6808 -0.4024
vn 0.8847 -0.3372 -0.3218
vn 0.7460 -0.6274 0.2233
vn -0.7413 0.5938 -0.3127
vn -0.7995 0.5611 -0.2143
vn 0.7532 0.5065 -0.4198
vn 0.7086 0.5671 -0.4199
vn 0.7208 0.5814 -0.3774
vn 0.7209 0.5622 -0.4053
vn -0.0004 -0.4018 -0.9157
vn 0.9207 0.3570 -0.1578
vn 0.8359 0.4674 0.2877
vn 0.0036 -0.4056 -0.9141
vn 0.6667 0.6713 -0.3238
vn 0.6699 0.6737 -0.3121
vn 0.6553 0.6819 -0.3249
vn 0.9497 -0.2864 0.1266
vn 0.3695 -0.8500 0.3756
vn 0.4541 0.0507 0.8895
vn 0.8510 0.4804 -0.2122
vn 0.9584 -0.0989 -0.2676
vn 0.9615 -0.0809 -0.2625
vn 0.9636 0.0676 -0.2588
vn 0.9352 -0.2827 -0.2130
vn 0.8497 -0.4788 0.2207
vn 0.4574 -0.8871 0.0619
vn 0.9451 -0.2476 -0.2132
vn 0.5102 -0.4201 0.7505
vn 0.9405 -0.2800 -0.1923
vn 0.5813 -0.5247 -0.6220
vn 0.5039 -0.8630 0.0350
vn 0.0164 0.1074 -0.9941
vn 0.8526 -0.3429 -0.3944
vn -0.0108 -0.6820 -0.7313
vn 0.8784 -0.4599 -0.1302
vn 0.5262 -0.0421 0.8493
vn 0.6645 0.6833 -0.3025
vn 0.5744 -0.6512 -0.4959
vn 0.3411 -0.5972 -0.7260
vn 0.6646 0.6838 -0.3013
vn 0.9897 -0.0570 0.1314
vn -0.8262 -0.4382 0.3541
vn -0.7174 -0.5640 0.4088
vn -0.7177 -0.5632 0.4094
vn -0.5870 -0.6687 0.4563
vn -0.0021 -0.7982 0.6024
vn 0.7286 -0.0252 -0.6845
vn 0.7225 -0.0191 -0.6911
vn 0.5759 0.2123 -0.7894
vn 0.5671 0.2158 -0.7949
vn 0.9295 0.3364 -0.1511
vn 0.7380 0.6181 -0.2708
vn 0.9401 0.3132 -0.1345
vn 0.0001 0.4040 0.9148
vn 0.8476 0.4998 -0.1784
vn 0.3359 0.3780 -0.8628
vn -0.0004 -0.4041 -0.9147
vn -0.0001 -0.4037 -0.9149
vn 0.8366 -0.2112 -0.5055
vn -0.8262 -0.4381 0.3541
vn 0.0525 0.7239 0.6879
vn -0.0246 0.2453 0.9691
vn -0.0249 0.2348 0.9717
vn -0.9320 0.2953 0.2104
vn -0.0878 -0.1973 0.9764
vn -0.9325 0.2938 0.2101
vn -0.0890 -0.2403 0.9666
vn -0.9332 0.2917 0.2100
vn -0.1367 -0.6970 0.7039
vn -0.1381 -0.6631 0.7356
vn 0.9392 -0.2890 -0.1853
vn 0.9359 -0.3029 -0.1799
vn 0.9188 -0.3204 -0.2305
vn 0.9300 -0.3179 -0.1848
vn 0.9459 -0.2824 -0.1598
vn 0.9421 -0.2951 -0.1592
vn -0.9356 0.2833 0.2105
vn -0.9403 0.2660 0.2121
vn 0.9942 -0.0727 0.0798
vn 0.1941 -0.9579 0.2117
vn 0.2990 -0.9318 0.2060
vn -0.6911 -0.5433 -0.4767
vn 0.4754 -0.8047 0.3555
vn -0.5583 -0.6889 -0.4623
vn 0.6619 0.6856 -0.3030
vn 0.0885 0.9613 -0.2610
vn 0.2704 0.9297 -0.2500
vn 0.8263 0.5565 -0.0865
vn 0.7252 0.6298 -0.2783
vn 0.8353 0.5029 -0.2222
vn -0.0002 -0.4046 -0.9145
vn -0.5683 -0.7546 0.3281
vn -0.9509 0.2857 -0.1190
vn -0.8834 0.4264 -0.1946
vn 0.1045 0.9108 -0.3994
vn -0.1011 0.9078 -0.4071
vn 0.0001 -0.4043 -0.9146
vn 0.0010 0.4033 0.9151
vn 0.0022 0.4040 0.9147
vn -0.0005 0.4019 0.9157
vn 0.0004 0.4021 0.9156
vn 0.5804 -0.7432 0.3327
vn 0.8971 -0.4061 0.1741
vn -0.0002 0.4040 0.9148
vn 0.9958 0.0831 -0.0387
vn -0.0004 0.4051 0.9143
vn -0.0006 -0.9146 0.4043
vn -1.0000 0.0007 -0.0004
vn -0.0001 -0.4837 0.8752
vn -0.0030 -0.2843 0.9587
vn -0.0038 0.0443 0.9990
vn 0.0034 -0.1594 0.9872
vn 0.0034 0.1743 0.9847
vn -0.0035 0.3473 0.9378
vn 0.0035 0.4595 0.8882
vn -0.0034 0.6105 0.7920
vn 0.0038 0.7088 0.7054
vn -0.0034 0.8372 0.5469
vn -0.0009 0.9814 0.1919
vn 0.0001 0.9779 0.2090
vn 0.0029 0.8994 0.4371
vn 0.0076 0.9955 -0.0946
vn 0.0004 0.9864 -0.1645
vn -0.0005 -0.4590 0.8884
vn 1.0000 0.0040 -0.0080
vn 0.9999 -0.0032 0.0109
vn -1.0000 0.0023 -0.0030
vn -1.0000 0.0018 -0.0041
vn -1.0000 0.0038 -0.0014
vn -1.0000 0.0035 -0.0016
vn -1.0000 0.0029 -0.0022
vn -1.0000 0.0032 0.0017
vn -1.0000 -0.0020 0.0060
vn -1.0000 -0.0010 0.0055
vn -1.0000 -0.0035 0.0067
vn -0.9996 0.0075 0.0281
vn -1.0000 -0.0060 0.0065
vn -1.0000 -0.0048 0.0067
vn -0.0022 -0.6169 0.7870
vn -0.0078 0.4788 0.8779
vn 0.0174 0.3594 0.9330
vn -0.0055 0.2634 0.9647
vn -0.0018 -0.6917 0.7222
vn 0.0007 -0.7115 0.7027
vn 0.0049 -0.9678 -0.2517
vn 1.0000 0.0008 -0.0035
vn 0.0074 -0.8794 -0.4760
vn -0.0181 -0.9387 -0.3443
vn 0.0007 -0.5945 0.8041
vn 0.9999 0.0063 -0.0090
vn 1.0000 0.0024 -0.0049
vn 0.0074 -0.9702 -0.2422
vn -0.0185 -0.9947 -0.1009
vn 0.0048 -1.0000 -0.0031
vn -0.0011 -0.5024 0.8646
vn -0.0016 -0.5077 0.8616
vn -0.0178 0.5799 0.8145
vn 0.0055 0.4976 0.8674
vn 0.0080 0.6907 0.7231
vn 1.0000 0.0006 -0.0025
vn 0.0018 -0.3824 0.9240
vn 0.0012 -0.3872 0.9220
vn 1.0000 -0.0001 -0.0016
vn 0.0073 -1.0000 0.0066
vn -0.0185 -0.9886 0.1497
vn 1.0000 -0.0005 0.0002
vn 0.0048 -0.9693 0.2457
vn -0.0015 -0.2715 0.9624
vn -0.0026 -0.2594 0.9658
vn 0.0057 0.6978 0.7163
vn -0.0175 0.7645 0.6444
vn 0.0082 0.8488 0.5286
vn 0.0047 -0.8225 0.5687
vn -1.0000 0.0005 0.0003
vn 0.0019 -0.1380 0.9904
vn -1.0000 0.0006 0.0003
vn 0.0011 -0.1454 0.9894
vn -0.0185 -0.9203 0.3908
vn 0.0073 -0.9669 0.2551
vn 0.0021 0.1103 0.9939
vn 0.0083 0.9536 0.3010
vn -0.0174 0.9005 0.4345
vn -1.0000 0.0007 0.0003
vn -0.0185 -0.7942 0.6074
vn 0.0073 -0.8731 0.4875
vn 0.0015 0.1053 0.9944
vn 0.0048 -0.7312 0.6822
vn -0.0013 0.2259 0.9741
vn -0.0023 0.2375 0.9714
vn 0.0059 0.9566 0.2914
vn 0.0084 0.9985 0.0543
vn -0.0173 0.9804 0.1964
vn 0.0022 0.3537 0.9353
vn -0.0009 -0.0304 0.9995
vn 0.0058 0.8540 0.5202
vn -0.0015 -0.0232 0.9997
vn 0.0048 -0.8778 0.4790
vn 0.0026 0.7607 -0.6491
vn 0.0067 0.5313 -0.8472
vn -0.0012 0.5613 -0.8276
vn 1.0000 -0.0008 0.0004
vn -0.0027 0.7796 -0.6262
vn 1.0000 -0.0007 0.0005
vn 0.0042 0.9444 -0.3289
vn 1.0000 -0.0009 0.0004
vn -0.0030 0.9553 -0.2956
vn 0.9991 0.0092 0.0403
vn 1.0000 -0.0000 -0.0001
vn 1.0000 -0.0003 0.0001
vn -0.0026 -0.9923 0.1235
vn 1.0000 -0.0003 0.0002
vn 1.0000 -0.0003 0.0003
vn -0.0068 -0.9843 -0.1763
vn 0.0011 -0.9900 -0.1408
vn 0.0070 -0.9168 -0.3992
vn -0.0000 0.9807 0.1955
vn -0.0020 0.2056 0.9786
vn -0.0024 0.4257 0.9049
vn 0.0026 0.4060 0.9139
vn 0.0026 0.2291 0.9734
vn 1.0000 -0.0010 -0.0006
vn 1.0000 -0.0008 -0.0006
vn 0.0011 0.9280 -0.3726
vn 0.0073 -0.7244 0.6894
vn 0.0017 0.3491 0.9371
vn -0.0184 -0.6184 0.7857
s 0
usemtl Material.022
f 2//1 1//1 4//1
f 6//1 1//1 2//1
f 3//2 1//2 5//2
f 4//3 1//3 3//3
f 5//4 1//4 6//4
f 5//5 6//5 2//5
f 8//6 7//6 5//6
f 3//6 5//6 7//6
f 5//7 2//7 8//7
f 8//8 9//8 7//8
f 12//9 9//9 8//9
f 8//10 2//10 10//10
f 8//11 10//11 11//11
f 8//12 11//12 12//12
f 12//13 13//13 9//13
f 12//6 15//6 13//6
f 11//14 14//14 12//14
f 14//15 15//15 12//15
f 16//16 15//16 14//16
f 15//17 16//17 17//17
f 17//6 13//6 15//6
f 17//18 16//18 18//18
f 17//19 18//19 19//19
f 17//20 19//20 13//20
f 19//21 18//21 16//21
f 19//21 16//21 14//21
f 13//22 19//22 20//22
f 14//1 20//1 19//1
f 11//23 22//23 20//23
f 11//1 20//1 14//1
f 13//24 20//24 21//24
f 21//25 20//25 22//25
f 31//26 22//26 9//26
f 33//27 9//27 22//27
f 36//28 22//28 23//28
f 22//29 31//29 23//29
f 24//30 22//30 25//30
f 29//30 22//30 24//30
f 10//23 25//23 22//23
f 26//31 22//31 27//31
f 26//32 32//32 22//32
f 27//30 22//30 28//30
f 28//30 22//30 30//30
f 29//30 30//30 22//30
f 22//33 32//33 33//33
f 22//25 37//25 34//25
f 22//25 34//25 35//25
f 21//23 22//23 35//23
f 22//34 36//34 37//34
f 10//23 22//23 11//23
f 39//1 34//1 37//1
f 38//35 37//35 36//35
f 38//36 39//36 37//36
f 40//37 41//37 39//37
f 40//38 39//38 38//38
f 41//21 42//21 39//21
f 39//21 42//21 34//21
f 42//39 43//39 34//39
f 41//1 44//1 42//1
f 45//40 43//40 42//40
f 44//41 45//41 42//41
f 40//42 43//42 45//42
f 45//43 44//43 40//43
f 40//44 44//44 41//44
f 47//45 43//45 46//45
f 43//46 38//46 46//46
f 47//47 34//47 43//47
f 40//6 38//6 43//6
f 47//48 46//48 9//48
f 50//49 47//49 9//49
f 48//42 47//42 51//42
f 48//50 49//50 47//50
f 47//51 35//51 34//51
f 47//52 49//52 35//52
f 47//6 50//6 51//6
f 51//53 53//53 48//53
f 51//54 50//54 52//54
f 53//55 51//55 52//55
f 49//21 53//21 52//21
f 49//21 54//21 53//21
f 48//56 53//56 54//56
f 48//57 54//57 49//57
f 52//58 50//58 21//58
f 21//21 49//21 52//21
f 50//59 9//59 13//59
f 13//60 21//60 50//60
f 21//1 35//1 49//1
f 55//61 46//61 56//61
f 23//62 46//62 55//62
f 57//63 56//63 46//63
f 38//64 57//64 46//64
f 46//65 23//65 59//65
f 58//66 46//66 59//66
f 46//67 58//67 60//67
f 63//68 46//68 60//68
f 61//69 9//69 46//69
f 62//70 61//70 46//70
f 63//70 62//70 46//70
f 65//71 64//71 63//71
f 62//72 63//72 64//72
f 66//73 63//73 60//73
f 63//74 66//74 65//74
f 67//75 66//75 60//75
f 66//76 67//76 65//76
f 68//77 67//77 60//77
f 69//78 65//78 67//78
f 67//79 68//79 69//79
f 69//80 70//80 65//80
f 69//81 71//81 70//81
f 71//82 69//82 68//82
f 71//83 72//83 70//83
f 68//84 73//84 71//84
f 72//85 71//85 73//85
f 74//86 73//86 60//86
f 73//87 74//87 72//87
f 73//88 68//88 60//88
f 75//89 74//89 60//89
f 75//90 77//90 74//90
f 74//91 77//91 76//91
f 76//92 72//92 74//92
f 75//93 79//93 77//93
f 78//94 76//94 77//94
f 77//95 79//95 78//95
f 75//96 80//96 79//96
f 82//97 78//97 79//97
f 79//98 80//98 81//98
f 81//99 82//99 79//99
f 83//100 78//100 82//100
f 83//101 82//101 81//101
f 83//102 84//102 85//102
f 83//83 86//83 84//83
f 75//103 83//103 85//103
f 81//100 26//100 83//100
f 83//104 76//104 78//104
f 83//105 70//105 72//105
f 83//106 72//106 76//106
f 70//103 83//103 75//103
f 26//107 86//107 83//107
f 86//21 90//21 84//21
f 86//108 87//108 90//108
f 88//109 87//109 86//109
f 86//110 89//110 88//110
f 86//111 26//111 89//111
f 84//112 90//112 91//112
f 87//113 91//113 90//113
f 91//114 92//114 93//114
f 94//115 92//115 91//115
f 91//116 85//116 84//116
f 91//117 93//117 85//117
f 91//118 96//118 94//118
f 95//119 96//119 91//119
f 91//120 97//120 95//120
f 87//121 99//121 91//121
f 97//122 91//122 98//122
f 98//123 91//123 99//123
f 89//124 99//124 87//124
f 99//125 100//125 98//125
f 89//126 100//126 99//126
f 101//127 75//127 100//127
f 89//128 101//128 100//128
f 102//129 98//129 100//129
f 102//130 100//130 104//130
f 100//131 75//131 103//131
f 103//132 104//132 100//132
f 104//133 109//133 105//133
f 105//134 106//134 104//134
f 108//135 104//135 106//135
f 108//136 102//136 104//136
f 104//137 103//137 107//137
f 104//138 107//138 109//138
f 109//139 110//139 105//139
f 109//140 107//140 110//140
f 110//141 112//141 111//141
f 111//142 105//142 110//142
f 112//143 110//143 107//143
f 112//144 114//144 113//144
f 113//145 111//145 112//145
f 107//146 114//146 112//146
f 107//147 115//147 114//147
f 115//148 116//148 114//148
f 117//149 113//149 114//149
f 114//150 116//150 117//150
f 113//151 117//151 118//151
f 117//152 119//152 118//152
f 119//153 117//153 116//153
f 119//154 121//154 118//154
f 121//155 119//155 120//155
f 116//156 120//156 119//156
f 118//157 121//157 123//157
f 121//158 124//158 122//158
f 122//159 123//159 121//159
f 120//160 125//160 121//160
f 124//161 121//161 125//161
f 126//162 125//162 115//162
f 125//163 120//163 115//163
f 126//164 128//164 125//164
f 125//165 128//165 127//165
f 127//166 124//166 125//166
f 126//167 129//167 128//167
f 128//168 129//168 131//168
f 130//169 127//169 128//169
f 128//170 131//170 130//170
f 131//171 129//171 132//171
f 131//172 132//172 133//172
f 131//173 133//173 135//173
f 134//174 130//174 131//174
f 131//175 135//175 134//175
f 135//176 133//176 136//176
f 138//177 135//177 136//177
f 137//178 134//178 135//178
f 135//179 138//179 137//179
f 142//180 138//180 139//180
f 139//181 138//181 140//181
f 138//182 136//182 140//182
f 138//183 142//183 141//183
f 141//184 137//184 138//184
f 142//185 139//185 143//185
f 145//186 142//186 143//186
f 142//187 145//187 144//187
f 144//188 141//188 142//188
f 145//189 143//189 146//189
f 108//190 145//190 146//190
f 147//191 144//191 145//191
f 145//192 108//192 147//192
f 106//193 147//193 108//193
f 147//42 106//42 148//42
f 144//6 147//6 148//6
f 152//194 149//194 148//194
f 148//195 149//195 102//195
f 148//196 102//196 146//196
f 148//6 150//6 144//6
f 146//197 150//197 148//197
f 148//198 151//198 152//198
f 151//6 148//6 106//6
f 153//199 152//199 151//199
f 149//21 152//21 153//21
f 151//103 154//103 153//103
f 153//103 154//103 107//103
f 107//199 155//199 153//199
f 155//200 149//200 153//200
f 162//201 156//201 155//201
f 155//103 156//103 159//103
f 157//202 162//202 155//202
f 161//203 157//203 155//203
f 107//199 103//199 155//199
f 158//200 149//200 155//200
f 103//103 161//103 155//103
f 160//204 158//204 155//204
f 155//205 159//205 160//205
f 163//206 162//206 168//206
f 162//65 163//65 164//65
f 166//207 162//207 164//207
f 165//208 162//208 157//208
f 165//209 156//209 162//209
f 162//210 166//210 167//210
f 167//211 168//211 162//211
f 172//212 168//212 169//212
f 170//213 169//213 168//213
f 168//214 167//214 170//214
f 157//215 163//215 168//215
f 168//216 172//216 171//216
f 171//217 157//217 168//217
f 169//218 173//218 172//218
f 174//219 172//219 173//219
f 161//220 171//220 172//220
f 172//221 174//221 161//221
f 173//222 175//222 174//222
f 178//223 174//223 175//223
f 176//224 161//224 174//224
f 179//225 176//225 174//225
f 174//226 178//226 177//226
f 177//227 179//227 174//227
f 176//228 179//228 180//228
f 179//229 177//229 180//229
f 179//230 161//230 103//230
f 182//231 161//231 179//231
f 181//103 179//103 103//103
f 182//232 179//232 181//232
f 185//233 183//233 182//233
f 161//234 182//234 183//234
f 182//65 186//65 184//65
f 185//65 182//65 184//65
f 181//235 186//235 182//235
f 186//236 181//236 187//236
f 187//237 188//237 186//237
f 186//125 188//125 184//125
f 188//238 187//238 189//238
f 184//125 188//125 191//125
f 189//239 190//239 188//239
f 190//240 191//240 188//240
f 193//240 191//240 192//240
f 192//240 191//240 190//240
f 96//241 191//241 193//241
f 191//242 96//242 95//242
f 95//242 184//242 191//242
f 194//240 193//240 192//240
f 195//233 193//233 194//233
f 193//240 195//240 196//240
f 193//241 197//241 96//241
f 197//243 193//243 196//243
f 94//244 197//244 160//244
f 197//245 198//245 160//245
f 94//246 96//246 197//246
f 196//243 198//243 197//243
f 198//247 199//247 160//247
f 200//248 199//248 198//248
f 198//248 196//248 200//248
f 200//65 165//65 183//65
f 200//240 183//240 185//240
f 200//65 201//65 165//65
f 196//233 201//233 200//233
f 199//249 200//249 185//249
f 202//250 201//250 203//250
f 201//251 202//251 156//251
f 156//252 165//252 201//252
f 196//240 203//240 201//240
f 203//253 204//253 202//253
f 204//254 203//254 195//254
f 196//255 195//255 203//255
f 205//199 159//199 204//199
f 195//256 205//256 204//256
f 204//199 159//199 202//199
f 195//257 207//257 205//257
f 202//258 205//258 208//258
f 205//65 202//65 164//65
f 164//240 206//240 205//240
f 207//259 159//259 205//259
f 206//260 209//260 205//260
f 210//261 208//261 205//261
f 205//262 209//262 210//262
f 212//263 211//263 210//263
f 208//264 210//264 211//264
f 210//265 213//265 212//265
f 213//266 210//266 209//266
f 214//267 212//267 213//267
f 213//268 216//268 214//268
f 209//269 215//269 213//269
f 216//270 213//270 215//270
f 217//271 216//271 215//271
f 216//272 217//272 214//272
f 215//273 221//273 217//273
f 217//274 219//274 218//274
f 218//275 214//275 217//275
f 219//276 217//276 220//276
f 221//277 220//277 217//277
f 192//278 221//278 223//278
f 192//279 220//279 221//279
f 92//280 221//280 220//280
f 221//281 222//281 220//281
f 215//233 222//233 221//233
f 92//103 223//103 221//103
f 223//282 194//282 192//282
f 194//283 223//283 209//283
f 92//201 209//201 223//201
f 224//284 226//284 222//284
f 222//285 225//285 224//285
f 225//286 222//286 206//286
f 222//240 215//240 206//240
f 222//240 226//240 220//240
f 226//65 227//65 189//65
f 228//287 227//287 226//287
f 226//288 224//288 228//288
f 220//65 226//65 189//65
f 189//289 229//289 230//289
f 227//65 229//65 189//65
f 230//290 219//290 189//290
f 220//291 189//291 219//291
f 219//292 230//292 231//292
f 230//293 232//293 231//293
f 232//294 230//294 229//294
f 233//295 231//295 232//295
f 232//296 178//296 233//296
f 178//297 232//297 229//297
f 236//298 233//298 178//298
f 236//103 234//103 233//103
f 234//103 235//103 233//103
f 233//299 235//299 231//299
f 175//300 236//300 178//300
f 236//103 175//103 237//103
f 238//103 236//103 237//103
f 234//199 236//199 238//199
f 241//301 239//301 238//301
f 238//302 239//302 240//302
f 238//303 240//303 234//303
f 238//103 237//103 241//103
f 243//199 242//199 241//199
f 242//304 239//304 241//304
f 243//103 241//103 245//103
f 241//103 237//103 244//103
f 241//103 244//103 245//103
f 245//103 246//103 243//103
f 249//305 246//305 245//305
f 247//103 245//103 248//103
f 247//306 249//306 245//306
f 245//103 244//103 248//103
f 246//307 249//307 250//307
f 251//230 250//230 249//230
f 249//306 247//306 251//306
f 250//230 251//230 252//230
f 253//230 252//230 251//230
f 251//308 254//308 253//308
f 254//308 251//308 247//308
f 255//309 253//309 254//309
f 254//230 256//230 255//230
f 256//103 254//103 257//103
f 247//199 248//199 254//199
f 254//103 248//103 257//103
f 259//310 256//310 257//310
f 257//103 248//103 258//103
f 258//311 259//311 257//311
f 256//310 259//310 260//310
f 261//199 260//199 259//199
f 259//311 258//311 261//311
f 260//103 261//103 262//103
f 263//103 262//103 261//103
f 261//312 264//312 263//312
f 264//312 261//312 258//312
f 258//103 265//103 264//103
f 264//103 265//103 266//103
f 266//313 263//313 264//313
f 266//199 265//199 267//199
f 267//314 268//314 266//314
f 263//313 266//313 268//313
f 271//315 269//315 268//315
f 270//103 268//103 269//103
f 268//103 270//103 263//103
f 268//316 267//316 271//316
f 272//317 271//317 267//317
f 271//318 272//318 273//318
f 273//319 274//319 271//319
f 269//320 271//320 274//320
f 274//321 273//321 275//321
f 274//322 277//322 269//322
f 276//323 274//323 275//323
f 277//324 274//324 276//324
f 280//325 269//325 277//325
f 276//103 278//103 277//103
f 279//103 277//103 278//103
f 277//103 279//103 280//103
f 269//325 280//325 270//325
f 282//326 270//326 280//326
f 280//103 281//103 282//103
f 281//103 280//103 279//103
f 270//326 282//326 262//326
f 256//327 262//327 282//327
f 282//199 283//199 256//199
f 283//103 282//103 281//103
f 284//328 283//328 281//328
f 283//328 284//328 285//328
f 285//329 286//329 283//329
f 286//199 256//199 283//199
f 287//199 255//199 286//199
f 288//330 287//330 286//330
f 286//329 285//329 288//329
f 256//199 286//199 255//199
f 287//330 288//330 289//330
f 288//240 285//240 290//240
f 289//65 288//65 290//65
f 285//240 284//240 290//240
f 284//240 293//240 290//240
f 292//65 291//65 290//65
f 291//65 289//65 290//65
f 292//331 290//331 248//331
f 265//332 248//332 290//332
f 290//332 293//332 265//332
f 293//65 284//65 294//65
f 294//240 295//240 293//240
f 298//240 293//240 295//240
f 296//333 265//333 293//333
f 293//333 297//333 296//333
f 293//65 298//65 297//65
f 298//240 299//240 297//240
f 300//334 299//334 298//334
f 300//335 298//335 278//335
f 295//335 278//335 298//335
f 299//334 300//334 301//334
f 300//199 302//199 301//199
f 302//199 300//199 276//199
f 278//199 276//199 300//199
f 304//336 302//336 303//336
f 276//337 303//337 302//337
f 302//338 304//338 305//338
f 305//339 301//339 302//339
f 301//103 305//103 306//103
f 309//103 306//103 305//103
f 307//340 305//340 304//340
f 305//340 307//340 308//340
f 308//199 309//199 305//199
f 311//103 309//103 310//103
f 315//103 310//103 309//103
f 306//103 309//103 311//103
f 309//341 314//341 312//341
f 313//342 309//342 312//342
f 309//342 313//342 315//342
f 314//341 309//341 316//341
f 316//103 309//103 308//103
f 322//343 314//343 316//343
f 316//103 308//103 317//103
f 316//103 317//103 318//103
f 316//344 318//344 319//344
f 316//345 319//345 321//345
f 320//346 322//346 316//346
f 320//199 316//199 321//199
f 325//347 323//347 322//347
f 323//348 314//348 322//348
f 324//349 322//349 320//349
f 322//350 324//350 325//350
f 323//351 325//351 327//351
f 326//352 325//352 324//352
f 325//353 326//353 328//353
f 328//354 327//354 325//354
f 329//355 331//355 328//355
f 328//356 330//356 329//356
f 330//357 328//357 326//357
f 327//358 328//358 331//358
f 331//359 329//359 332//359
f 332//360 334//360 331//360
f 331//361 333//361 327//361
f 333//362 331//362 334//362
f 334//363 332//363 335//363
f 334//364 336//364 333//364
f 335//365 337//365 334//365
f 336//366 334//366 337//366
f 338//367 340//367 337//367
f 337//368 335//368 338//368
f 337//369 339//369 336//369
f 339//370 337//370 340//370
f 341//371 326//371 340//371
f 340//372 338//372 341//372
f 340//373 324//373 339//373
f 324//374 340//374 326//374
f 326//375 341//375 330//375
f 341//376 342//376 343//376
f 341//377 344//377 342//377
f 341//378 343//378 330//378
f 338//379 344//379 341//379
f 344//380 346//380 345//380
f 345//381 342//381 344//381
f 346//382 344//382 347//382
f 344//383 338//383 347//383
f 347//384 338//384 348//384
f 349//385 347//385 348//385
f 347//386 349//386 346//386
f 348//387 350//387 349//387
f 315//388 349//388 350//388
f 315//389 346//389 349//389
f 350//390 351//390 315//390
f 348//391 351//391 350//391
f 351//392 348//392 352//392
f 351//393 352//393 354//393
f 351//394 353//394 315//394
f 354//395 353//395 351//395
f 332//396 354//396 335//396
f 354//397 332//397 355//397
f 335//398 354//398 352//398
f 353//399 354//399 355//399
f 355//400 356//400 353//400
f 355//401 358//401 356//401
f 357//402 355//402 329//402
f 329//403 355//403 332//403
f 358//404 355//404 357//404
f 358//405 360//405 356//405
f 357//406 359//406 358//406
f 359//407 360//407 358//407
f 353//408 360//408 315//408
f 315//409 360//409 361//409
f 364//410 361//410 360//410
f 362//411 360//411 363//411
f 360//412 362//412 364//412
f 313//199 363//199 360//199
f 313//413 360//413 359//413
f 356//414 360//414 353//414
f 361//301 364//301 365//301
f 367//415 365//415 364//415
f 366//199 364//199 362//199
f 364//230 366//230 367//230
f 365//415 367//415 370//415
f 368//230 367//230 366//230
f 367//103 368//103 369//103
f 369//416 370//416 367//416
f 370//416 369//416 371//416
f 371//199 373//199 370//199
f 370//103 372//103 365//103
f 372//103 370//103 373//103
f 376//417 372//417 373//417
f 373//103 371//103 374//103
f 375//418 373//418 374//418
f 376//417 373//417 375//417
f 376//419 377//419 372//419
f 380//419 377//419 376//419
f 378//240 380//240 376//240
f 378//240 376//240 379//240
f 375//125 379//125 376//125
f 380//420 381//420 377//420
f 382//420 381//420 380//420
f 382//65 380//65 383//65
f 378//65 383//65 380//65
f 386//421 384//421 383//421
f 385//422 383//422 384//422
f 383//240 385//240 387//240
f 383//423 378//423 386//423
f 382//65 383//65 387//65
f 310//424 382//424 387//424
f 387//425 311//425 310//425
f 387//240 385//240 388//240
f 311//426 387//426 388//426
f 388//427 306//427 311//427
f 306//427 388//427 389//427
f 389//240 388//240 385//240
f 389//428 301//428 306//428
f 301//428 389//428 299//428
f 297//65 299//65 389//65
f 389//240 385//240 297//240
f 386//429 391//429 390//429
f 390//430 321//430 386//430
f 384//431 386//431 321//431
f 391//432 386//432 378//432
f 392//433 390//433 391//433
f 391//434 394//434 392//434
f 394//435 391//435 393//435
f 378//436 393//436 391//436
f 395//437 392//437 394//437
f 394//438 397//438 395//438
f 393//439 396//439 394//439
f 397//440 394//440 396//440
f 398//441 395//441 397//441
f 397//442 400//442 398//442
f 396//443 399//443 397//443
f 399//444 401//444 397//444
f 400//445 397//445 401//445
f 292//446 401//446 399//446
f 292//65 402//65 401//65
f 401//447 402//447 400//447
f 399//345 401//345 115//345
f 401//199 402//199 115//199
f 403//448 402//448 401//448
f 403//449 401//449 399//449
f 403//450 406//450 404//450
f 402//451 403//451 404//451
f 407//125 405//125 403//125
f 405//450 406//450 403//450
f 399//452 407//452 403//452
f 409//233 405//233 407//233
f 407//453 408//453 396//453
f 396//454 409//454 407//454
f 407//455 399//455 408//455
f 410//456 412//456 409//456
f 409//457 411//457 410//457
f 409//458 396//458 411//458
f 413//65 409//65 412//65
f 405//65 409//65 413//65
f 414//243 405//243 413//243
f 413//243 416//243 414//243
f 413//459 417//459 415//459
f 416//248 413//248 415//248
f 413//65 412//65 417//65
f 417//460 383//460 418//460
f 418//461 419//461 417//461
f 417//240 419//240 415//240
f 410//462 417//462 412//462
f 417//463 410//463 383//463
f 383//103 118//103 418//103
f 410//199 118//199 383//199
f 420//65 419//65 421//65
f 415//65 419//65 420//65
f 422//464 421//464 419//464
f 419//465 418//465 422//465
f 422//466 423//466 421//466
f 423//467 422//467 424//467
f 424//199 422//199 425//199
f 418//339 425//339 422//339
f 425//103 428//103 424//103
f 427//468 425//468 426//468
f 123//241 426//241 425//241
f 425//199 418//199 118//199
f 425//469 118//469 123//469
f 427//199 428//199 425//199
f 430//470 424//470 428//470
f 427//471 429//471 428//471
f 430//472 428//472 429//472
f 423//450 430//450 431//450
f 424//473 430//473 423//473
f 429//474 404//474 430//474
f 430//240 404//240 431//240
f 431//233 404//233 406//233
f 432//242 431//242 406//242
f 431//475 432//475 433//475
f 433//475 420//475 431//475
f 420//240 423//240 431//240
f 433//459 426//459 434//459
f 420//249 433//249 434//249
f 432//240 426//240 433//240
f 434//249 415//249 420//249
f 416//240 434//240 123//240
f 415//248 434//248 416//248
f 434//240 426//240 123//240
f 406//242 435//242 432//242
f 436//65 432//65 435//65
f 436//240 426//240 432//240
f 126//240 436//240 438//240
f 126//240 437//240 436//240
f 436//240 435//240 438//240
f 426//468 436//468 427//468
f 427//476 436//476 437//476
f 122//477 126//477 438//477
f 123//478 122//478 438//478
f 438//240 435//240 414//240
f 438//240 414//240 123//240
f 126//479 441//479 437//479
f 437//65 441//65 58//65
f 58//65 440//65 437//65
f 439//480 437//480 440//480
f 437//476 439//476 427//476
f 126//21 442//21 441//21
f 58//481 441//481 442//481
f 126//482 115//482 442//482
f 115//103 427//103 442//103
f 442//481 60//481 58//481
f 443//103 60//103 442//103
f 442//199 427//199 439//199
f 443//199 442//199 439//199
f 439//480 440//480 443//480
f 444//483 443//483 440//483
f 444//103 60//103 443//103
f 70//103 60//103 444//103
f 70//484 444//484 445//484
f 440//483 445//483 444//483
f 445//484 59//484 70//484
f 58//65 59//65 445//65
f 440//65 58//65 445//65
f 435//241 406//241 405//241
f 405//241 414//241 435//241
f 404//485 429//485 446//485
f 446//486 429//486 448//486
f 427//487 446//487 429//487
f 292//488 429//488 446//488
f 292//489 447//489 429//489
f 429//490 447//490 448//490
f 449//491 451//491 448//491
f 450//492 449//492 448//492
f 453//493 448//493 447//493
f 448//494 453//494 450//494
f 452//495 448//495 451//495
f 448//496 452//496 446//496
f 454//497 450//497 453//497
f 453//498 456//498 454//498
f 447//499 455//499 453//499
f 456//500 453//500 455//500
f 458//501 456//501 455//501
f 457//502 454//502 456//502
f 456//503 458//503 457//503
f 461//504 458//504 459//504
f 455//505 459//505 458//505
f 460//506 457//506 458//506
f 458//507 461//507 460//507
f 318//508 460//508 461//508
f 461//509 462//509 318//509
f 462//510 461//510 385//510
f 459//511 385//511 461//511
f 319//512 318//512 462//512
f 462//513 384//513 319//513
f 384//514 462//514 385//514
f 460//515 318//515 296//515
f 457//516 460//516 296//516
f 385//517 459//517 297//517
f 459//240 455//240 297//240
f 454//518 457//518 296//518
f 297//459 455//459 447//459
f 450//103 454//103 296//103
f 452//519 400//519 402//519
f 402//520 446//520 452//520
f 400//521 452//521 451//521
f 244//471 451//471 449//471
f 244//522 463//522 451//522
f 451//523 463//523 400//523
f 463//524 398//524 400//524
f 463//199 244//199 398//199
f 450//230 296//230 449//230
f 296//230 244//230 449//230
f 292//240 297//240 447//240
f 404//525 446//525 402//525
f 427//526 402//526 446//526
f 292//255 446//255 402//255
f 115//103 402//103 427//103
f 421//125 423//125 420//125
f 414//240 416//240 123//240
f 411//103 118//103 410//103
f 115//527 411//527 396//527
f 118//199 411//199 115//199
f 408//528 399//528 115//528
f 396//529 408//529 115//529
f 396//459 464//459 399//459
f 180//240 292//240 399//240
f 464//240 180//240 399//240
f 466//240 464//240 379//240
f 378//240 379//240 464//240
f 393//240 378//240 464//240
f 396//240 393//240 464//240
f 466//240 465//240 464//240
f 465//240 469//240 464//240
f 464//530 469//530 467//530
f 467//530 468//530 464//530
f 180//531 464//531 468//531
f 164//240 469//240 470//240
f 471//240 470//240 469//240
f 469//240 465//240 471//240
f 469//532 164//532 472//532
f 472//533 467//533 469//533
f 473//534 472//534 474//534
f 473//202 478//202 472//202
f 170//535 472//535 169//535
f 472//202 237//202 169//202
f 474//518 472//518 170//518
f 237//536 472//536 164//536
f 472//199 479//199 467//199
f 475//103 472//103 476//103
f 479//199 472//199 475//199
f 476//199 472//199 477//199
f 477//202 472//202 478//202
f 475//537 482//537 479//537
f 480//199 467//199 479//199
f 479//538 481//538 480//538
f 481//538 479//538 482//538
f 484//103 482//103 483//103
f 485//199 483//199 482//199
f 482//199 484//199 481//199
f 482//537 475//537 485//537
f 483//103 485//103 486//103
f 487//103 486//103 485//103
f 485//539 476//539 487//539
f 476//539 485//539 475//539
f 486//103 487//103 488//103
f 489//103 488//103 487//103
f 487//540 477//540 489//540
f 477//540 487//540 476//540
f 488//103 489//103 490//103
f 491//103 490//103 489//103
f 489//541 478//541 491//541
f 478//541 489//541 477//541
f 490//542 491//542 492//542
f 493//339 492//339 491//339
f 491//543 494//543 493//543
f 494//543 491//543 478//543
f 212//103 494//103 478//103
f 494//544 212//544 214//544
f 494//545 214//545 218//545
f 218//199 495//199 494//199
f 495//546 493//546 494//546
f 493//546 495//546 497//546
f 496//547 497//547 495//547
f 495//103 225//103 496//103
f 224//103 495//103 228//103
f 498//199 228//199 495//199
f 225//103 495//103 224//103
f 218//199 498//199 495//199
f 499//548 498//548 503//548
f 498//548 499//548 500//548
f 501//549 498//549 500//549
f 498//549 501//549 504//549
f 228//199 498//199 502//199
f 504//103 502//103 498//103
f 498//103 218//103 503//103
f 505//550 504//550 501//550
f 504//550 505//550 506//550
f 502//103 504//103 507//103
f 506//103 507//103 504//103
f 227//551 502//551 507//551
f 227//551 507//551 509//551
f 509//552 507//552 508//552
f 507//103 506//103 508//103
f 227//65 509//65 229//65
f 177//255 229//255 509//255
f 509//240 510//240 177//240
f 509//553 508//553 510//553
f 510//554 512//554 511//554
f 510//240 511//240 177//240
f 510//554 508//554 512//554
f 513//555 512//555 243//555
f 243//199 512//199 242//199
f 508//103 242//103 512//103
f 511//555 512//555 513//555
f 180//240 513//240 291//240
f 180//65 511//65 513//65
f 513//556 243//556 291//556
f 177//240 511//240 180//240
f 242//103 508//103 506//103
f 514//557 506//557 505//557
f 506//558 514//558 242//558
f 239//304 242//304 514//304
f 505//559 239//559 514//559
f 501//103 240//103 505//103
f 239//560 505//560 240//560
f 515//535 231//535 503//535
f 235//339 503//339 231//339
f 235//561 499//561 503//561
f 503//103 218//103 515//103
f 515//562 218//562 219//562
f 231//563 515//563 219//563
f 227//287 228//287 502//287
f 500//103 516//103 501//103
f 240//103 501//103 516//103
f 516//103 500//103 499//103
f 234//564 516//564 235//564
f 234//564 240//564 516//564
f 235//565 516//565 499//565
f 497//547 496//547 492//547
f 492//103 493//103 497//103
f 517//566 492//566 496//566
f 496//199 518//199 517//199
f 518//103 496//103 225//103
f 206//567 518//567 225//567
f 518//568 206//568 519//568
f 519//569 520//569 518//569
f 520//199 517//199 518//199
f 521//199 523//199 520//199
f 522//570 521//570 520//570
f 520//571 519//571 522//571
f 517//199 520//199 523//199
f 490//572 523//572 488//572
f 524//573 488//573 523//573
f 523//574 490//574 517//574
f 523//199 521//199 524//199
f 525//575 486//575 524//575
f 524//103 526//103 525//103
f 488//576 524//576 486//576
f 526//199 524//199 521//199
f 470//577 526//577 521//577
f 526//578 470//578 471//578
f 527//103 525//103 526//103
f 471//579 527//579 526//579
f 528//103 529//103 527//103
f 465//580 528//580 527//580
f 527//581 471//581 465//581
f 525//103 527//103 529//103
f 483//582 529//582 484//582
f 530//583 484//583 529//583
f 529//582 483//582 525//582
f 529//199 528//199 530//199
f 534//584 530//584 531//584
f 530//103 532//103 531//103
f 532//103 530//103 528//103
f 535//585 484//585 530//585
f 534//586 533//586 530//586
f 533//587 536//587 530//587
f 535//588 530//588 536//588
f 537//589 536//589 533//589
f 536//590 537//590 538//590
f 538//591 535//591 536//591
f 539//592 538//592 537//592
f 541//593 538//593 539//593
f 538//594 541//594 540//594
f 535//595 538//595 540//595
f 541//596 539//596 543//596
f 544//597 540//597 541//597
f 544//598 541//598 542//598
f 543//599 542//599 541//599
f 546//600 545//600 544//600
f 545//601 540//601 544//601
f 548//602 546//602 544//602
f 542//603 547//603 544//603
f 548//604 544//604 547//604
f 549//605 548//605 551//605
f 549//606 550//606 548//606
f 548//607 550//607 546//607
f 547//604 551//604 548//604
f 551//605 552//605 549//605
f 551//468 547//468 553//468
f 552//608 551//608 554//608
f 553//468 554//468 551//468
f 556//609 555//609 554//609
f 557//610 554//610 555//610
f 554//611 553//611 556//611
f 554//468 557//468 552//468
f 555//612 558//612 557//612
f 559//613 557//613 558//613
f 557//614 559//614 560//614
f 560//468 552//468 557//468
f 539//615 561//615 560//615
f 552//616 560//616 561//616
f 560//617 543//617 539//617
f 543//618 560//618 559//618
f 561//616 549//616 552//616
f 539//619 562//619 561//619
f 562//620 563//620 561//620
f 561//621 563//621 549//621
f 549//622 563//622 564//622
f 565//623 564//623 563//623
f 563//624 534//624 565//624
f 534//625 563//625 562//625
f 564//626 565//626 566//626
f 567//627 566//627 565//627
f 565//628 531//628 567//628
f 534//629 531//629 565//629
f 570//103 567//103 555//103
f 568//199 555//199 567//199
f 567//630 531//630 568//630
f 484//631 567//631 569//631
f 571//632 567//632 484//632
f 569//633 567//633 570//633
f 571//634 572//634 567//634
f 572//635 573//635 567//635
f 573//636 566//636 567//636
f 546//637 573//637 572//637
f 573//638 546//638 550//638
f 550//639 566//639 573//639
f 546//640 572//640 571//640
f 545//641 571//641 574//641
f 571//642 545//642 546//642
f 484//643 574//643 571//643
f 484//644 535//644 574//644
f 540//645 574//645 535//645
f 574//646 540//646 545//646
f 555//103 575//103 570//103
f 556//647 569//647 570//647
f 570//647 575//647 556//647
f 556//648 575//648 555//648
f 481//649 484//649 569//649
f 569//650 556//650 481//650
f 576//651 568//651 531//651
f 568//652 576//652 577//652
f 555//103 568//103 577//103
f 577//653 559//653 558//653
f 577//654 576//654 559//654
f 577//655 558//655 555//655
f 576//199 531//199 371//199
f 576//199 371//199 581//199
f 581//103 578//103 576//103
f 578//103 579//103 576//103
f 579//103 468//103 576//103
f 559//656 576//656 580//656
f 580//657 576//657 468//657
f 581//658 368//658 578//658
f 371//305 368//305 581//305
f 480//659 582//659 580//659
f 580//660 468//660 480//660
f 559//661 580//661 543//661
f 580//662 582//662 542//662
f 542//663 543//663 580//663
f 481//664 582//664 480//664
f 553//664 582//664 481//664
f 547//468 542//468 582//468
f 582//468 553//468 547//468
f 584//665 362//665 579//665
f 579//558 362//558 583//558
f 579//199 583//199 390//199
f 579//199 390//199 468//199
f 584//103 579//103 578//103
f 584//666 366//666 362//666
f 578//667 366//667 584//667
f 583//103 585//103 390//103
f 585//668 583//668 586//668
f 586//669 583//669 363//669
f 583//670 362//670 363//670
f 586//671 320//671 585//671
f 339//672 320//672 586//672
f 336//673 586//673 587//673
f 363//674 587//674 586//674
f 586//675 336//675 339//675
f 363//676 588//676 587//676
f 333//677 587//677 588//677
f 587//678 333//678 336//678
f 327//679 588//679 323//679
f 589//680 323//680 588//680
f 588//199 363//199 313//199
f 588//103 313//103 589//103
f 588//681 327//681 333//681
f 314//682 323//682 589//682
f 312//103 589//103 313//103
f 589//199 312//199 314//199
f 390//103 585//103 321//103
f 585//103 320//103 321//103
f 578//658 368//658 366//658
f 566//683 550//683 564//683
f 549//684 564//684 550//684
f 562//685 533//685 534//685
f 533//686 562//686 537//686
f 537//687 562//687 539//687
f 481//688 556//688 553//688
f 374//103 531//103 532//103
f 379//689 374//689 532//689
f 532//690 466//690 379//690
f 466//691 532//691 528//691
f 531//103 374//103 371//103
f 528//692 465//692 466//692
f 486//575 525//575 483//575
f 522//240 519//240 164//240
f 521//693 522//693 470//693
f 470//65 522//65 164//65
f 519//240 206//240 164//240
f 492//566 517//566 490//566
f 467//103 480//103 468//103
f 212//339 478//339 211//339
f 211//202 478//202 473//202
f 474//694 170//694 167//694
f 167//695 590//695 474//695
f 473//696 474//696 590//696
f 590//697 208//697 473//697
f 156//698 591//698 590//698
f 208//699 590//699 591//699
f 590//700 167//700 156//700
f 591//701 156//701 164//701
f 202//255 591//255 164//255
f 591//702 202//702 208//702
f 211//703 473//703 208//703
f 237//103 468//103 395//103
f 392//704 395//704 468//704
f 390//202 392//202 468//202
f 468//531 237//531 180//531
f 398//705 244//705 395//705
f 237//103 395//103 244//103
f 321//706 319//706 384//706
f 382//424 310//424 381//424
f 310//103 315//103 381//103
f 361//199 381//199 315//199
f 381//199 361//199 377//199
f 592//707 374//707 379//707
f 592//125 379//125 375//125
f 375//418 374//418 592//418
f 365//103 377//103 361//103
f 377//103 365//103 372//103
f 368//307 371//307 369//307
f 359//708 357//708 593//708
f 359//709 593//709 594//709
f 594//710 595//710 359//710
f 595//711 313//711 359//711
f 595//712 594//712 343//712
f 596//713 313//713 595//713
f 343//714 596//714 595//714
f 345//715 313//715 596//715
f 342//716 345//716 596//716
f 596//717 343//717 342//717
f 330//718 594//718 593//718
f 330//719 343//719 594//719
f 593//720 357//720 329//720
f 330//721 593//721 329//721
f 335//722 352//722 348//722
f 335//723 348//723 338//723
f 313//724 345//724 346//724
f 313//725 346//725 315//725
f 320//726 339//726 324//726
f 318//230 317//230 296//230
f 272//103 296//103 317//103
f 308//727 597//727 317//727
f 317//728 273//728 272//728
f 273//728 317//728 597//728
f 275//103 597//103 303//103
f 307//729 303//729 597//729
f 597//199 275//199 273//199
f 597//730 308//730 307//730
f 303//731 307//731 304//731
f 303//337 276//337 275//337
f 244//732 296//732 297//732
f 297//732 292//732 244//732
f 296//103 267//103 265//103
f 267//103 296//103 272//103
f 295//733 279//733 278//733
f 279//733 295//733 294//733
f 281//734 294//734 284//734
f 294//734 281//734 279//734
f 291//240 292//240 180//240
f 248//309 244//309 292//309
f 291//556 243//556 598//556
f 598//735 289//735 291//735
f 243//199 246//199 598//199
f 599//199 598//199 246//199
f 598//199 599//199 287//199
f 289//735 598//735 287//735
f 600//736 599//736 252//736
f 599//736 600//736 255//736
f 246//737 252//737 599//737
f 255//199 287//199 599//199
f 253//309 255//309 600//309
f 252//230 253//230 600//230
f 262//103 263//103 270//103
f 265//103 258//103 248//103
f 262//327 256//327 260//327
f 252//737 246//737 250//737
f 173//518 169//518 237//518
f 175//738 173//738 237//738
f 164//536 180//536 237//536
f 229//739 177//739 178//739
f 92//202 220//202 189//202
f 190//740 189//740 220//740
f 220//741 192//741 190//741
f 215//233 209//233 206//233
f 195//742 209//742 207//742
f 209//743 195//743 194//743
f 209//744 159//744 207//744
f 92//199 159//199 209//199
f 202//339 159//339 156//339
f 199//745 601//745 158//745
f 185//249 601//249 199//249
f 199//746 158//746 160//746
f 601//475 185//475 184//475
f 184//475 95//475 601//475
f 97//747 601//747 95//747
f 158//748 601//748 97//748
f 92//103 189//103 93//103
f 93//103 189//103 187//103
f 181//230 103//230 187//230
f 93//103 187//103 103//103
f 183//749 157//749 161//749
f 157//750 183//750 165//750
f 176//751 180//751 161//751
f 161//255 180//255 171//255
f 171//240 180//240 157//240
f 157//125 180//125 163//125
f 180//240 164//240 163//240
f 166//752 156//752 167//752
f 156//753 166//753 164//753
f 94//200 160//200 159//200
f 159//200 92//200 94//200
f 149//754 158//754 98//754
f 98//200 158//200 97//200
f 111//6 113//6 154//6
f 118//755 154//755 113//755
f 106//6 105//6 154//6
f 154//6 151//6 106//6
f 105//6 111//6 154//6
f 107//103 154//103 118//103
f 150//756 146//756 143//756
f 141//6 144//6 150//6
f 150//6 602//6 141//6
f 143//757 602//757 150//757
f 602//6 603//6 141//6
f 139//758 603//758 602//758
f 602//759 143//759 139//759
f 137//6 141//6 603//6
f 603//6 604//6 137//6
f 603//760 139//760 140//760
f 140//761 604//761 603//761
f 604//6 605//6 137//6
f 604//762 140//762 136//762
f 136//763 605//763 604//763
f 605//764 136//764 133//764
f 133//765 606//765 605//765
f 134//6 137//6 605//6
f 605//6 606//6 134//6
f 606//766 132//766 129//766
f 129//767 607//767 606//767
f 606//768 133//768 132//768
f 606//42 607//42 130//42
f 130//6 134//6 606//6
f 607//6 122//6 127//6
f 126//769 122//769 607//769
f 607//770 129//770 126//770
f 127//6 130//6 607//6
f 149//771 98//771 102//771
f 146//772 102//772 108//772
f 124//42 127//42 122//42
f 115//773 120//773 116//773
f 107//103 118//103 115//103
f 75//202 93//202 103//202
f 101//774 33//774 609//774
f 101//775 9//775 33//775
f 80//776 101//776 608//776
f 80//777 75//777 101//777
f 608//778 101//778 609//778
f 611//779 9//779 101//779
f 101//780 612//780 610//780
f 101//781 610//781 611//781
f 101//782 614//782 612//782
f 101//783 89//783 613//783
f 101//784 613//784 615//784
f 101//785 615//785 614//785
f 616//786 614//786 615//786
f 617//787 616//787 615//787
f 613//6 617//6 615//6
f 618//6 619//6 617//6
f 617//6 613//6 618//6
f 616//788 617//788 620//788
f 617//789 619//789 620//789
f 622//21 621//21 620//21
f 616//21 620//21 621//21
f 622//790 620//790 618//790
f 620//791 619//791 618//791
f 621//792 622//792 618//792
f 26//793 616//793 621//793
f 26//794 621//794 613//794
f 621//795 618//795 613//795
f 616//796 623//796 614//796
f 616//797 26//797 623//797
f 623//798 26//798 624//798
f 625//1 623//1 624//1
f 623//799 625//799 614//799
f 626//1 625//1 624//1
f 628//21 625//21 626//21
f 625//800 627//800 614//800
f 625//801 628//801 627//801
f 628//21 626//21 629//21
f 628//802 629//802 630//802
f 628//803 630//803 627//803
f 612//6 614//6 630//6
f 627//6 630//6 614//6
f 630//804 626//804 612//804
f 630//805 629//805 626//805
f 612//806 626//806 624//806
f 624//807 26//807 631//807
f 624//808 610//808 612//808
f 624//809 631//809 610//809
f 27//810 631//810 26//810
f 631//811 633//811 610//811
f 632//1 631//1 27//1
f 633//1 631//1 632//1
f 633//812 635//812 610//812
f 633//21 632//21 634//21
f 633//813 634//813 636//813
f 633//814 636//814 635//814
f 634//815 635//815 636//815
f 637//816 635//816 634//816
f 611//6 635//6 637//6
f 611//6 610//6 635//6
f 637//817 634//817 632//817
f 637//818 632//818 611//818
f 611//819 632//819 27//819
f 26//820 613//820 89//820
f 638//821 9//821 611//821
f 638//822 611//822 27//822
f 638//823 641//823 9//823
f 28//824 638//824 27//824
f 641//6 638//6 639//6
f 640//825 639//825 638//825
f 28//826 640//826 638//826
f 641//823 644//823 9//823
f 641//6 639//6 643//6
f 644//827 641//827 30//827
f 641//828 642//828 30//828
f 643//829 642//829 641//829
f 645//830 9//830 644//830
f 644//6 646//6 645//6
f 644//6 647//6 646//6
f 648//831 647//831 644//831
f 29//832 648//832 644//832
f 29//833 644//833 30//833
f 649//21 650//21 648//21
f 648//21 29//21 649//21
f 648//834 650//834 647//834
f 651//835 647//835 650//835
f 649//1 651//1 650//1
f 646//836 647//836 651//836
f 646//837 651//837 649//837
f 24//21 649//21 29//21
f 645//838 649//838 24//838
f 646//839 649//839 645//839
f 7//840 645//840 24//840
f 645//830 7//830 9//830
f 643//841 639//841 652//841
f 643//842 652//842 642//842
f 640//21 642//21 652//21
f 640//21 652//21 653//21
f 652//843 639//843 653//843
f 640//844 653//844 639//844
f 30//1 642//1 640//1
f 30//21 640//21 28//21
f 608//845 609//845 654//845
f 609//846 33//846 32//846
f 32//847 654//847 609//847
f 655//848 654//848 26//848
f 654//849 655//849 608//849
f 26//850 654//850 32//850
f 80//851 608//851 655//851
f 81//852 655//852 26//852
f 655//853 81//853 80//853
f 85//199 93//199 75//199
f 89//854 87//854 88//854
f 75//103 60//103 70//103
f 23//855 70//855 59//855
f 23//80 65//80 70//80
f 64//856 65//856 23//856
f 64//857 656//857 62//857
f 656//858 64//858 23//858
f 31//859 656//859 23//859
f 656//860 31//860 61//860
f 61//861 62//861 656//861
f 9//862 61//862 31//862
f 38//863 36//863 57//863
f 56//864 57//864 36//864
f 56//865 657//865 55//865
f 657//866 56//866 658//866
f 658//867 56//867 36//867
f 658//868 23//868 657//868
f 36//869 23//869 658//869
f 55//870 657//870 23//870
f 25//21 10//21 4//21
f 25//871 4//871 7//871
f 25//872 7//872 24//872
f 4//21 10//21 2//21
f 4//873 3//873 7//873
