# Blender 5.0.1
# www.blender.org
mtllib left_elbow_x_link_visual_12.mtl
o i01.left.bicep.full_visual.001
v 0.036628 -0.076273 -0.093734
v 0.036628 -0.062106 -0.097530
v -0.034719 -0.062106 -0.097530
v -0.034719 -0.076273 -0.093734
v 0.036628 -0.050470 -0.106457
v -0.034719 -0.050470 -0.106457
v 0.036628 -0.043137 -0.119160
v -0.034719 -0.043137 -0.119160
v 0.036628 -0.041223 -0.133699
v -0.034719 -0.041223 -0.133699
v 0.036628 -0.045019 -0.147866
v -0.034719 -0.045019 -0.147866
v 0.036628 -0.053948 -0.159503
v -0.034719 -0.053948 -0.159503
v 0.036628 -0.066649 -0.166836
v -0.034719 -0.066650 -0.166836
v 0.036628 -0.081191 -0.168750
v -0.034719 -0.081191 -0.168750
v 0.036628 -0.095358 -0.164954
v -0.034719 -0.095357 -0.164952
v 0.036628 -0.106993 -0.156027
v -0.034719 -0.106993 -0.156027
v 0.036628 -0.114326 -0.143323
v -0.034719 -0.114326 -0.143323
v 0.036628 -0.116241 -0.128783
v -0.034719 -0.116241 -0.128783
v 0.036628 -0.112444 -0.114615
v -0.034719 -0.112444 -0.114615
v 0.036628 -0.103516 -0.102981
v -0.034719 -0.103516 -0.102981
v 0.036628 -0.090814 -0.095646
v -0.034719 -0.090814 -0.095646
v -0.034719 -0.114244 -0.205826
v -0.034726 -0.140266 -0.185993
v -0.034719 -0.084146 -0.213824
v -0.034719 -0.053260 -0.209825
v -0.034719 -0.026288 -0.194431
v 0.036628 -0.114245 -0.205826
v 0.036628 -0.138976 -0.187044
v 0.036628 -0.084147 -0.213823
v 0.036628 -0.053259 -0.209825
v 0.036628 -0.026288 -0.194431
v 0.168280 0.340987 0.126274
v 0.168281 -0.061913 0.190966
v 0.168281 -0.175895 0.160591
v -0.168279 -0.175839 0.160646
v -0.168280 -0.349122 0.136454
v -0.168280 -0.378410 0.211797
v -0.168280 -0.062239 0.190986
v 0.168280 -0.378410 0.211797
v 0.168280 -0.349122 0.136454
v -0.109066 -0.334793 0.171535
v -0.112157 -0.337083 0.209099
v 0.112626 0.364032 0.163137
v -0.113142 -0.342499 0.172040
v -0.097942 -0.357185 0.210415
v -0.096002 -0.359505 0.173156
v 0.105468 -0.358650 0.173100
v 0.097188 -0.360358 0.173211
v 0.099741 -0.357974 0.210467
v -0.097314 0.347399 0.125849
v -0.094970 0.350096 0.164051
v 0.113821 -0.344604 0.172177
v 0.110944 -0.354244 0.172810
v 0.113711 -0.345361 0.209640
v 0.109028 -0.353895 0.210198
v -0.088460 0.372757 0.124166
v -0.084923 0.370834 0.162693
v -0.090523 0.376553 0.162316
v -0.088472 0.350180 0.125665
v -0.087278 0.353873 0.163805
v -0.083716 0.357407 0.125185
v -0.082900 0.363020 0.163204
v -0.106693 -0.354490 0.210238
v -0.103991 -0.358392 0.173082
v -0.111625 -0.351911 0.172657
v -0.088403 -0.356964 0.172989
v -0.083472 -0.349438 0.209908
v -0.082110 -0.348860 0.172458
v -0.090121 -0.355373 0.210297
v 0.109027 -0.335669 0.171593
v 0.107047 -0.331625 0.208740
v 0.084293 -0.350587 0.172571
v 0.083684 -0.343903 0.209544
v 0.109398 0.352203 0.125529
v 0.109898 0.355354 0.163705
v 0.084911 0.360059 0.125009
v 0.085390 0.367045 0.162940
v -0.106396 -0.330291 0.208651
v 0.091424 -0.355943 0.210334
v 0.089429 -0.357143 0.173000
v -0.112987 -0.346386 0.209708
v 0.102751 -0.332367 0.171376
v 0.097187 -0.329207 0.208581
v 0.111922 -0.337083 0.209095
v -0.111260 0.358383 0.125119
v -0.110653 0.358943 0.163471
v -0.083368 0.364576 0.124710
v -0.098727 0.375628 0.123976
v -0.101122 0.377784 0.162235
v 0.111062 0.370289 0.162728
v 0.088117 0.370353 0.124325
v 0.092262 0.351509 0.163959
v 0.089348 0.351350 0.125586
v 0.096179 0.347820 0.125821
v 0.088426 0.372944 0.162554
v -0.081894 -0.341086 0.209359
v -0.107456 0.371488 0.124249
v -0.109001 0.372146 0.162606
v 0.102610 0.348149 0.125800
v 0.101893 0.350392 0.164033
v 0.106817 0.375376 0.162394
v 0.108657 0.371332 0.124260
v 0.086885 -0.334361 0.208918
v 0.089026 -0.335213 0.171563
v 0.084677 -0.340890 0.171934
v 0.086227 -0.351455 0.210038
v -0.095520 -0.327795 0.208487
v -0.094833 -0.330527 0.171258
v -0.102114 -0.331076 0.171291
v 0.100210 0.377767 0.162237
v 0.093596 0.376823 0.162298
v 0.095835 0.375039 0.124015
v 0.102610 0.374745 0.124034
v -0.104488 0.351628 0.163950
v 0.085978 0.358971 0.163469
v 0.095376 -0.332063 0.171356
v 0.112763 0.362504 0.124846
v -0.106169 0.350201 0.125664
v -0.111403 0.365634 0.163032
v -0.110958 0.365308 0.124661
v -0.087555 -0.333720 0.171464
v -0.082957 -0.339412 0.171839
v -0.085193 -0.333180 0.208842
v -0.168280 0.408945 0.160193
v -0.168280 0.406423 0.121930
v 0.168280 0.406425 0.121930
v 0.168280 0.408947 0.160193
v 0.036628 -0.007338 -0.169991
v -0.034719 -0.007339 -0.169991
v 0.036628 -0.171050 -0.152600
v 0.036628 0.000640 -0.139975
v -0.034719 0.000639 -0.139975
v -0.034719 -0.172461 -0.150750
v -0.063395 0.110963 0.141558
v 0.065306 0.110953 0.141547
v 0.000000 -0.328199 0.208514
v 0.000000 0.408946 0.160193
v 0.000000 0.406424 0.121930
v 0.058301 0.031498 0.038336
v 0.038817 0.014766 0.039445
v -0.036907 0.014765 0.039445
v -0.056392 0.031496 0.038334
v 0.000627 -0.268737 -0.018285
v -0.037424 -0.267919 -0.018340
v 0.038678 -0.267645 -0.018358
v -0.063397 0.046530 0.078048
v 0.065306 0.046532 0.078048
v 0.132715 -0.392606 0.212740
v 0.136236 -0.363317 0.137397
v 0.046809 -0.406801 0.213682
v -0.021703 -0.408947 0.213825
v 0.000299 -0.379696 0.138486
v 0.046809 -0.377512 0.138340
v -0.046210 -0.378058 0.138375
v -0.135540 -0.363863 0.137432
v -0.132116 -0.393152 0.212775
v -0.089984 -0.402433 0.213393
v 0.091129 -0.401341 0.213321
v -0.168280 -0.283204 0.035040
v -0.135542 -0.297967 0.035995
v -0.046211 -0.341013 0.081052
v -0.000466 -0.314015 0.037349
v 0.046808 -0.340467 0.081017
v 0.136229 -0.298893 0.038228
v 0.168281 -0.284015 0.036142
v 0.046808 -0.310819 0.035932
v -0.046211 -0.311365 0.035967
v -0.168280 -0.239367 -0.020761
v -0.132116 -0.254108 -0.019783
v -0.089984 -0.263389 -0.019168
v -0.089984 -0.306452 0.035642
v 0.091129 -0.262297 -0.019240
v 0.091129 -0.305360 0.035570
v 0.132715 -0.253562 -0.019819
v 0.168280 -0.239367 -0.020761
v 0.082019 -0.316935 0.170249
v 0.102505 -0.378982 0.174316
v 0.088409 -0.377744 0.174233
v 0.071769 -0.325055 0.170781
v -0.093253 -0.312990 0.170037
v 0.129634 -0.330950 0.171167
v 0.133317 -0.343553 0.171994
v -0.070178 -0.325076 0.170829
v -0.064064 -0.336186 0.171557
v -0.108283 -0.375667 0.174145
v -0.120051 -0.369607 0.173749
v 0.075984 -0.371138 0.173803
v -0.062947 -0.348608 0.172373
v -0.080418 -0.316922 0.170295
v -0.076089 -0.370442 0.173803
v -0.088527 -0.376162 0.174178
v 0.095693 -0.312881 0.169983
v 0.108894 -0.314266 0.170073
v -0.067059 -0.360615 0.173160
v 0.125269 -0.367287 0.173547
v -0.124329 -0.324393 0.170785
v -0.113086 -0.316131 0.170243
v -0.130668 -0.335007 0.171479
v -0.104313 -0.313452 0.170067
v 0.115073 -0.375234 0.174072
v 0.067709 -0.361022 0.173140
v 0.064066 -0.348791 0.172337
v 0.065500 -0.336197 0.171514
v 0.120951 -0.320583 0.170488
v -0.132274 -0.347608 0.172306
v -0.128439 -0.360070 0.173121
v 0.131721 -0.356214 0.172824
v -0.097548 -0.377148 0.174243
v 0.064829 -0.359636 0.109998
v 0.066038 -0.347360 0.091751
v -0.123226 -0.365288 0.139222
v -0.130587 -0.338124 0.096595
v -0.124343 -0.328113 0.079863
v -0.099769 -0.378779 0.151923
v -0.112551 -0.373975 0.148669
v -0.082428 -0.324641 0.065303
v -0.071816 -0.333267 0.074951
v -0.065045 -0.344463 0.089577
v -0.063322 -0.356536 0.107135
v 0.128282 -0.362351 0.133353
v -0.108514 -0.319310 0.065446
v -0.086868 -0.379260 0.148604
v 0.072596 -0.335332 0.075878
v 0.072490 -0.374393 0.135255
v 0.067181 -0.367118 0.122239
v 0.097808 -0.319994 0.061710
v -0.129045 -0.357368 0.125809
v 0.120470 -0.325315 0.073691
v 0.130271 -0.335205 0.092180
v 0.083054 -0.326038 0.065481
v 0.107705 -0.378110 0.153991
v -0.116670 -0.321727 0.071661
v 0.110333 -0.321205 0.064342
v 0.132559 -0.349122 0.114351
v -0.131640 -0.348887 0.113641
v -0.075325 -0.375343 0.139085
v 0.082539 -0.379977 0.147469
v 0.094040 -0.381300 0.153576
v 0.121199 -0.369509 0.144529
v -0.095369 -0.319726 0.062062
v -0.067011 -0.367429 0.124626
vn -0.0000 -0.2589 -0.9659
vn -0.0000 -0.6087 -0.7934
vn -0.0000 -0.8661 -0.5000
vn -0.0000 -0.9914 -0.1305
vn -0.0000 -0.9659 0.2588
vn -0.0000 -0.7934 0.6087
vn -0.0000 -0.5000 0.8660
vn -0.0000 -0.1305 0.9914
vn -0.0000 0.2588 0.9659
vn -0.0000 0.2589 0.9659
vn -0.0000 0.6087 0.7934
vn -0.0000 0.6086 0.7934
vn -0.0000 0.8661 0.4999
vn -0.0000 0.9914 0.1305
vn -0.0000 0.9659 -0.2588
vn -0.0000 0.7933 -0.6088
vn -0.0000 0.5001 -0.8660
vn -0.0000 0.1304 -0.9915
vn -1.0000 0.0003 -0.0000
vn -1.0000 -0.0000 -0.0000
vn 1.0000 -0.0000 -0.0000
vn 0.8843 -0.4648 0.0444
vn 0.1383 0.9889 -0.0544
vn -0.2025 0.9781 -0.0487
vn -0.9582 0.2861 0.0030
vn -0.4028 0.9119 -0.0782
vn -0.7152 -0.6983 0.0308
vn 0.6479 0.7610 -0.0328
vn -0.7903 0.6124 -0.0193
vn -0.6667 0.7427 -0.0624
vn 0.9477 0.3164 -0.0416
vn -0.9508 0.3097 -0.0131
vn -0.9542 0.2989 -0.0153
vn -0.4414 0.8944 -0.0728
vn -0.8358 0.5483 -0.0269
vn -0.9023 0.4289 -0.0440
vn -0.6276 0.7775 -0.0394
vn 0.7632 -0.6458 0.0234
vn 0.3836 0.9222 -0.0501
vn 0.7903 0.6096 -0.0619
vn -0.2386 -0.9700 0.0467
vn -0.7465 -0.6646 0.0326
vn -0.9681 -0.2505 0.0017
vn 0.4292 -0.8999 0.0776
vn -0.9070 -0.4188 0.0453
vn 0.9547 -0.2945 0.0422
vn 0.8895 -0.4564 0.0237
vn -0.9773 -0.2117 -0.0071
vn -0.8770 0.4780 -0.0494
vn -0.9825 0.1835 -0.0329
vn -0.4664 -0.8817 0.0711
vn 0.2377 0.9682 -0.0782
vn -0.8494 -0.5252 0.0518
vn -0.5136 0.8560 -0.0598
vn -0.5277 0.8471 -0.0630
vn -0.3006 0.9525 -0.0488
vn 0.4598 0.8872 -0.0386
vn 0.1155 0.9898 -0.0839
vn -0.8814 -0.4697 0.0503
vn 0.9990 -0.0380 0.0233
vn 0.6544 0.7538 -0.0592
vn 0.7878 0.6154 -0.0264
vn 0.2949 0.9523 -0.0786
vn 0.9959 -0.0897 -0.0134
vn 0.4722 -0.8785 0.0726
vn -0.9987 0.0494 0.0141
vn 0.5827 -0.8118 0.0374
vn 0.1417 -0.9884 0.0543
vn -0.4923 -0.8678 0.0683
vn 0.1591 0.9841 -0.0792
vn 0.8913 0.4532 -0.0119
vn -0.0412 -0.9961 0.0784
vn 0.4451 -0.8943 0.0459
vn 0.4481 -0.8928 0.0467
vn -0.2262 0.9714 -0.0722
vn -0.3177 0.9466 -0.0550
vn -0.9959 -0.0877 0.0243
vn 0.0753 -0.9944 0.0744
vn 0.6010 -0.7977 0.0492
vn 0.5197 -0.8514 0.0701
vn -0.7684 -0.6392 0.0307
vn -0.2698 -0.9595 0.0809
vn 0.9871 0.1599 0.0124
vn 0.8495 0.5272 -0.0211
vn 0.3022 0.9520 -0.0487
vn -0.9702 -0.2421 0.0062
vn 0.7654 0.6406 -0.0608
vn 0.9972 0.0709 -0.0256
vn -0.0435 -0.9962 0.0761
vn 0.9990 -0.0428 0.0120
vn 0.9938 0.1102 -0.0173
vn -0.1157 -0.9921 0.0487
vn 0.9481 -0.3181 -0.0005
vn 0.7943 -0.6046 0.0593
vn -0.7785 -0.6250 0.0582
vn 0.2241 -0.9735 0.0462
vn -0.3410 -0.9386 0.0528
vn -0.0513 0.9969 -0.0594
vn 0.8705 -0.4903 0.0435
vn 0.9384 -0.3452 0.0138
vn -0.4024 -0.9135 0.0596
vn -0.4631 -0.8853 0.0421
vn 0.7652 0.6412 -0.0575
vn -0.9231 -0.3846 0.0090
vn -0.0000 0.7903 -0.6127
vn -0.0000 0.4957 -0.8685
vn -0.0000 0.1284 -0.9917
vn -0.0000 -0.2568 -0.9665
vn -0.0008 -0.6048 -0.7964
vn -0.0000 -0.6062 -0.7953
vn 0.0032 -0.7318 -0.6815
vn -0.0000 0.9664 -0.2569
vn -0.0000 0.9665 -0.2568
vn -0.0029 -0.7383 -0.6745
vn -0.0001 -0.0662 -0.9978
vn 0.0005 0.0655 0.9979
vn -0.0007 0.0653 0.9979
vn -0.0000 0.9978 -0.0658
vn -0.0001 0.0652 0.9979
vn -0.0015 0.0654 0.9979
vn 0.0001 0.0655 0.9978
vn -0.0000 0.0655 0.9979
vn -0.0001 0.0656 0.9978
vn 0.0001 0.0653 0.9979
vn -0.0000 0.0654 0.9979
vn 0.0001 0.0656 0.9978
vn -0.0000 0.0653 0.9979
vn 0.0004 0.0653 0.9979
vn 0.0001 0.0652 0.9979
vn 0.0002 0.0652 0.9979
vn -0.0000 0.0666 0.9978
vn -0.0000 0.0652 0.9979
vn -0.0001 0.0651 0.9979
vn -0.0000 -0.0663 -0.9978
vn -0.0001 -0.0663 -0.9978
vn 0.0001 -0.0661 -0.9978
vn -0.0001 -0.0661 -0.9978
vn 0.0001 -0.0652 -0.9979
vn -0.0000 -0.0662 -0.9978
vn -0.0001 -0.0666 -0.9978
vn 0.0001 -0.0664 -0.9978
vn -0.0001 -0.0664 -0.9978
vn 0.0002 -0.0660 -0.9978
vn -0.0000 -0.0661 -0.9978
vn 0.0001 -0.0663 -0.9978
vn 0.0014 -0.0662 -0.9978
vn -0.0002 -0.0663 -0.9978
vn -0.0003 0.0657 0.9978
vn -0.0001 0.0657 0.9978
vn 0.0001 0.0658 0.9978
vn -0.0014 0.0655 0.9979
vn -0.0000 0.0657 0.9978
vn -0.0000 0.0658 0.9978
vn 0.0002 0.0654 0.9979
vn 0.0008 0.0656 0.9978
vn 0.0002 0.0657 0.9978
vn 0.0003 0.0657 0.9978
vn -0.0166 -0.8109 -0.5849
vn 0.0222 -0.8113 -0.5841
vn 0.0007 -0.8088 -0.5881
vn -0.0000 0.9969 -0.0785
vn -0.9999 -0.0037 -0.0139
vn -0.9999 -0.0086 -0.0112
vn -0.9999 -0.0146 -0.0085
vn -0.9996 -0.0278 -0.0037
vn -0.9997 -0.0222 -0.0055
vn -0.9998 0.0156 -0.0121
vn -0.9977 0.0651 -0.0173
vn -0.9897 -0.1060 -0.0967
vn -0.9999 0.0118 -0.0091
vn -0.9998 0.0087 -0.0151
vn -0.9999 0.0149 -0.0040
vn -0.9998 0.0060 -0.0205
vn -0.9996 0.0035 -0.0269
vn -0.9999 0.0137 -0.0056
vn 0.9999 -0.0037 -0.0139
vn 0.9999 -0.0086 -0.0112
vn 0.9999 -0.0146 -0.0085
vn 0.9996 -0.0278 -0.0037
vn 0.9997 -0.0222 -0.0055
vn 0.9998 0.0156 -0.0121
vn 0.9977 0.0651 -0.0173
vn 0.9999 0.0089 -0.0069
vn 0.9999 0.0066 -0.0114
vn 0.9999 0.0113 -0.0030
vn 0.9998 0.0033 -0.0187
vn 0.9998 0.0027 -0.0204
vn 0.9999 0.0105 -0.0041
vn 0.9952 -0.0718 -0.0669
vn -0.0000 0.9352 -0.3541
vn -0.0000 0.7020 -0.7122
vn 0.3429 -0.8808 -0.3264
vn 0.3732 -0.8647 -0.3362
vn 0.0285 -0.9346 -0.3545
vn 0.0426 -0.9312 -0.3620
vn -0.0318 -0.9286 -0.3698
vn -0.3784 -0.8627 -0.3354
vn -0.3493 -0.8786 -0.3257
vn -0.0002 0.0657 0.9978
vn 0.0001 0.0659 0.9978
vn -0.0001 0.0668 0.9978
vn -0.0000 0.0662 0.9978
vn -0.3405 -0.7883 -0.5124
vn -0.3398 -0.7887 -0.5123
vn -0.0228 -0.8397 -0.5426
vn -0.0282 -0.8384 -0.5443
vn 0.0340 -0.8381 -0.5445
vn 0.0377 -0.8393 -0.5424
vn 0.3336 -0.7905 -0.5136
vn 0.3350 -0.7903 -0.5130
vn 0.0400 -0.8349 -0.5490
vn -0.0318 -0.8351 -0.5492
vn -0.2907 -0.7524 -0.5911
vn -0.3147 -0.7367 -0.5986
vn -0.1609 -0.7710 -0.6161
vn -0.1495 -0.7775 -0.6109
vn -0.0579 -0.7850 -0.6168
vn -0.0819 -0.7717 -0.6307
vn -0.0159 -0.7795 -0.6262
vn -0.0258 -0.7751 -0.6313
vn 0.0210 -0.7756 -0.6308
vn 0.0340 -0.7797 -0.6252
vn 0.0686 -0.7758 -0.6272
vn 0.0914 -0.7830 -0.6152
vn 0.1547 -0.7769 -0.6104
vn 0.1473 -0.7752 -0.6143
vn 0.2825 -0.7477 -0.6010
vn 0.3091 -0.7482 -0.5871
vn 0.0327 0.2001 -0.9792
vn 0.1975 0.1659 -0.9662
vn 0.0551 0.1851 -0.9812
vn -0.0369 0.2004 -0.9790
vn -0.0528 0.1864 -0.9811
vn -0.1985 0.1671 -0.9658
vn -0.0958 0.1749 -0.9799
vn 0.8562 0.4148 -0.3081
vn 0.7846 0.4352 -0.4415
vn 0.0973 0.1736 -0.9800
vn -0.8532 0.4199 -0.3095
vn -0.7791 0.4401 -0.4465
vn 0.0026 -0.0707 -0.9975
vn 0.0007 -0.0590 -0.9983
vn 0.0047 -0.0688 -0.9976
vn -0.0057 -0.0671 -0.9977
vn -0.0034 -0.0673 -0.9977
vn 0.0017 -0.0618 -0.9981
vn 0.0026 -0.0600 -0.9982
vn 0.0024 -0.0596 -0.9982
vn -0.0019 -0.0686 -0.9976
vn -0.0016 -0.0618 -0.9981
vn -0.0012 -0.0693 -0.9976
vn -0.0006 -0.0714 -0.9974
vn -0.0002 -0.0717 -0.9974
vn -0.0026 -0.0630 -0.9980
vn -0.0030 -0.0631 -0.9980
vn 0.0023 -0.0686 -0.9976
vn -0.0036 -0.0642 -0.9979
vn 0.0039 -0.0702 -0.9975
vn 0.0002 -0.0693 -0.9976
vn 0.0007 -0.0695 -0.9976
vn 0.0059 -0.0638 -0.9979
vn -0.0040 -0.0608 -0.9981
vn -0.0039 -0.0608 -0.9981
vn 0.0024 -0.0627 -0.9980
vn 0.0034 -0.0649 -0.9979
vn 0.0037 -0.0660 -0.9978
vn 0.0036 -0.0642 -0.9979
vn -0.0050 -0.0680 -0.9977
vn -0.0012 -0.0618 -0.9981
vn -0.0059 -0.0646 -0.9979
vn -0.0054 -0.0639 -0.9979
vn -0.0028 -0.0708 -0.9975
vn 0.0017 -0.0687 -0.9976
vn 0.0046 -0.0617 -0.9981
vn -0.0016 -0.0595 -0.9982
vn -0.0012 -0.0596 -0.9982
vn 0.0018 -0.0714 -0.9974
vn -0.0047 -0.0693 -0.9976
vn -0.0027 -0.0679 -0.9977
vn 0.0051 -0.0685 -0.9976
vn 0.0006 -0.0616 -0.9981
vn 0.0006 -0.0615 -0.9981
vn -0.0005 -0.0615 -0.9981
vn 0.0011 -0.0692 -0.9976
vn -0.0052 -0.0621 -0.9981
vn -0.0036 -0.0658 -0.9978
vn -0.0036 -0.0657 -0.9978
vn -0.0024 -0.0684 -0.9977
vn 0.0032 -0.0672 -0.9977
vn 0.0034 -0.0671 -0.9977
vn 0.0030 -0.0630 -0.9980
vn 0.0057 -0.0659 -0.9978
vn 0.0058 -0.0658 -0.9978
vn 0.9977 -0.0636 0.0233
vn 0.9935 -0.1116 0.0223
vn 0.7504 0.6609 0.0137
vn 0.8643 -0.5026 0.0218
vn 0.8590 -0.5116 0.0208
vn 0.3511 0.9363 0.0034
vn -0.6655 -0.7433 0.0674
vn -0.6235 -0.7780 0.0771
vn -0.9938 -0.1086 0.0229
vn -0.9959 -0.0885 0.0165
vn -0.8641 0.5034 -0.0030
vn 0.2926 -0.9553 0.0417
vn 0.0061 0.9928 -0.1198
vn -0.1088 0.9921 -0.0617
vn 0.1369 0.9869 -0.0858
vn 0.9091 -0.4116 0.0637
vn 0.8716 -0.4865 0.0603
vn 0.8608 0.5043 -0.0693
vn 0.7847 0.6194 0.0253
vn -0.7430 -0.6683 0.0364
vn -0.7672 -0.6408 0.0283
vn 0.3959 -0.9145 0.0834
vn 0.2848 -0.9561 0.0684
vn -0.2862 0.9576 -0.0321
vn 0.7721 0.6235 -0.1226
vn 0.3135 -0.9486 0.0424
vn -0.4174 -0.9071 0.0539
vn -0.4649 -0.8842 0.0455
vn -0.9385 0.3441 0.0283
vn -0.9921 0.1251 0.0010
vn 0.9542 0.2990 0.0049
vn 0.9557 0.2944 0.0039
vn 0.9969 -0.0778 0.0125
vn 0.9920 -0.1260 0.0063
vn 0.6072 0.7934 0.0434
vn -0.9921 -0.1233 0.0250
vn 0.5904 0.7980 -0.1209
vn -0.2268 0.9738 -0.0162
vn -0.6137 0.7891 0.0256
vn 0.9697 0.2410 -0.0389
vn 0.9584 0.2830 -0.0375
vn -0.5051 0.8608 0.0620
vn -0.0171 -0.9983 0.0566
vn 0.0418 -0.9972 0.0614
vn 0.7065 -0.7029 0.0823
vn 0.6216 -0.7798 0.0739
vn -0.9598 0.2794 -0.0284
vn -0.9460 0.3210 -0.0460
vn 0.6586 -0.7519 0.0307
vn 0.5928 -0.8050 0.0241
vn -0.6791 0.7330 0.0391
vn -0.7646 0.6382 -0.0904
vn -0.7354 0.6685 -0.1105
vn -0.1092 -0.9920 0.0630
vn -0.1045 -0.9925 0.0637
vn 0.1761 0.9770 -0.1201
vn -0.3685 -0.9274 0.0651
vn -0.2935 -0.9530 0.0757
vn -0.4171 0.8986 -0.1360
vn -0.4173 0.8985 -0.1359
vn 0.4670 0.8668 -0.1747
vn 0.4582 0.8887 -0.0178
vn -0.8844 -0.4635 0.0547
vn -0.8762 -0.4783 0.0588
vn -0.9600 -0.2800 0.0073
vn 0.0874 0.9855 -0.1458
vn -0.1481 -0.8713 -0.4679
vn 0.0626 -0.8150 -0.5761
vn -0.3690 -0.8535 -0.3679
vn -0.1288 -0.8554 -0.5017
vn -0.1647 -0.8643 -0.4752
vn -0.2513 -0.9036 -0.3470
vn -0.1990 -0.9248 -0.3242
vn -0.0866 -0.9315 -0.3532
vn -0.0574 -0.9391 -0.3387
vn -0.1220 -0.9327 -0.3395
vn -0.0932 -0.8759 -0.4734
vn -0.0919 -0.8503 -0.5182
vn -0.1011 -0.8244 -0.5569
vn -0.1098 -0.8131 -0.5716
vn -0.1541 -0.8147 -0.5590
vn -0.1642 -0.8067 -0.5677
vn -0.0955 -0.8815 -0.4624
vn -0.0653 -0.8381 -0.5416
vn -0.0732 -0.8396 -0.5383
vn -0.1210 -0.8294 -0.5454
vn 0.1780 -0.8254 -0.5358
vn 0.0193 -0.8703 -0.4922
vn 0.1501 -0.8203 -0.5519
vn 0.1648 -0.8246 -0.5412
vn 0.1345 -0.8709 -0.4726
vn 0.1724 -0.8262 -0.5364
vn 0.1752 -0.8256 -0.5363
vn 0.1744 -0.8257 -0.5364
vn 0.0967 -0.8316 -0.5469
vn 0.0198 -0.7552 -0.6552
vn 0.1650 -0.7797 -0.6040
vn 0.1014 -0.8568 -0.5056
vn 0.0448 -0.8642 -0.5012
vn 0.0422 -0.8046 -0.5923
vn 0.0137 -0.8301 -0.5575
vn 0.0200 -0.8513 -0.5242
vn -0.0205 -0.8397 -0.5427
vn 0.1112 -0.9263 -0.3601
vn 0.0539 -0.8906 -0.4516
vn 0.0262 -0.9481 -0.3168
vn -0.0260 -0.9860 -0.1646
vn 0.1918 -0.9333 -0.3037
vn 0.2245 -0.9196 -0.3225
vn 0.3152 -0.8815 -0.3517
vn 0.2126 -0.9141 -0.3454
vn -0.0556 -0.9315 -0.3596
vn -0.1026 -0.8342 -0.5419
vn -0.1479 -0.8259 -0.5441
vn -0.0277 -0.8660 -0.4993
vn -0.1178 -0.8322 -0.5418
vn -0.1799 -0.8267 -0.5331
vn 0.9373 0.3289 -0.1151
vn -0.9352 0.3342 -0.1170
s 0
usemtl Material.022
f 1//1 3//1 2//1
f 3//1 1//1 4//1
f 2//2 6//2 5//2
f 6//2 2//2 3//2
f 5//3 8//3 7//3
f 8//3 5//3 6//3
f 7//4 10//4 9//4
f 10//4 7//4 8//4
f 9//5 12//5 11//5
f 12//5 9//5 10//5
f 11//6 14//6 13//6
f 14//6 11//6 12//6
f 13//7 16//7 15//7
f 16//7 13//7 14//7
f 15//8 18//8 17//8
f 18//8 15//8 16//8
f 17//9 20//9 19//9
f 20//10 17//10 18//10
f 19//11 22//11 21//11
f 22//12 19//12 20//12
f 21//13 24//13 23//13
f 24//13 21//13 22//13
f 23//14 26//14 25//14
f 26//14 23//14 24//14
f 25//15 28//15 27//15
f 28//15 25//15 26//15
f 27//16 30//16 29//16
f 30//16 27//16 28//16
f 29//17 32//17 31//17
f 32//17 29//17 30//17
f 31//18 4//18 1//18
f 4//18 31//18 32//18
f 26//19 33//19 34//19
f 26//20 24//20 33//20
f 20//20 35//20 22//20
f 18//20 35//20 20//20
f 16//20 35//20 18//20
f 12//20 36//20 14//20
f 10//20 36//20 12//20
f 33//20 22//20 35//20
f 33//20 24//20 22//20
f 35//20 14//20 36//20
f 35//20 16//20 14//20
f 10//20 37//20 36//20
f 25//21 39//21 38//21
f 25//21 38//21 23//21
f 19//21 21//21 40//21
f 17//21 19//21 40//21
f 15//21 17//21 40//21
f 11//21 13//21 41//21
f 9//21 11//21 41//21
f 38//21 40//21 21//21
f 38//21 21//21 23//21
f 40//21 41//21 13//21
f 40//21 13//21 15//21
f 9//21 41//21 42//21
f 44//21 45//21 43//21
f 46//20 47//20 48//20
f 48//20 49//20 46//20
f 44//21 50//21 51//21
f 51//21 45//21 44//21
f 53//22 55//22 52//22
f 57//23 75//23 56//23
f 58//24 59//24 60//24
f 63//25 64//25 65//25
f 58//26 60//26 66//26
f 68//27 69//27 67//27
f 75//28 76//28 74//28
f 78//29 79//29 77//29
f 80//30 78//30 77//30
f 84//31 117//31 83//31
f 128//32 85//32 86//32
f 86//33 54//33 128//33
f 70//34 62//34 71//34
f 72//35 70//35 71//35
f 71//36 73//36 72//36
f 64//37 58//37 66//37
f 89//38 53//38 52//38
f 90//39 59//39 91//39
f 76//40 92//40 74//40
f 82//41 94//41 93//41
f 81//42 95//42 82//42
f 73//43 68//43 98//43
f 108//44 99//44 100//44
f 113//45 128//45 101//45
f 87//46 102//46 88//46
f 102//47 106//47 88//47
f 63//48 65//48 95//48
f 64//49 66//49 65//49
f 79//50 78//50 107//50
f 82//51 93//51 81//51
f 59//52 90//52 60//52
f 68//53 67//53 98//53
f 85//54 110//54 111//54
f 111//55 86//55 85//55
f 70//56 61//56 62//56
f 103//57 105//57 104//57
f 103//58 111//58 105//58
f 95//59 81//59 63//59
f 84//60 83//60 116//60
f 91//61 117//61 90//61
f 117//62 91//62 83//62
f 75//63 74//63 56//63
f 55//64 53//64 92//64
f 52//65 120//65 89//65
f 73//66 98//66 72//66
f 108//67 100//67 109//67
f 121//68 122//68 123//68
f 112//69 124//69 113//69
f 61//70 125//70 62//70
f 126//71 104//71 87//71
f 94//72 127//72 93//72
f 114//73 115//73 127//73
f 127//74 94//74 114//74
f 57//75 56//75 80//75
f 80//76 77//76 57//76
f 107//77 133//77 79//77
f 118//78 120//78 119//78
f 102//79 122//79 106//79
f 122//80 102//80 123//80
f 113//81 101//81 112//81
f 69//82 99//82 67//82
f 92//83 76//83 55//83
f 97//84 129//84 96//84
f 125//85 61//85 129//85
f 128//86 54//86 101//86
f 104//87 126//87 103//87
f 87//88 88//88 126//88
f 121//89 123//89 124//89
f 130//90 96//90 131//90
f 96//91 130//91 97//91
f 99//92 69//92 100//92
f 114//93 84//93 116//93
f 114//94 116//94 115//94
f 132//95 133//95 134//95
f 120//96 118//96 89//96
f 124//97 112//97 121//97
f 110//98 105//98 111//98
f 109//99 131//99 108//99
f 131//100 109//100 130//100
f 118//101 119//101 132//101
f 132//102 134//102 118//102
f 129//103 97//103 125//103
f 107//104 134//104 133//104
f 49//20 135//20 136//20
f 136//20 46//20 49//20
f 43//21 137//21 138//21
f 138//21 44//21 43//21
f 139//105 42//105 37//105
f 37//105 140//105 139//105
f 42//106 41//106 36//106
f 36//106 37//106 42//106
f 40//107 36//107 41//107
f 36//107 40//107 35//107
f 40//108 38//108 33//108
f 33//108 35//108 40//108
f 38//109 39//109 34//109
f 34//110 33//110 38//110
f 39//111 141//111 34//111
f 142//112 139//112 140//112
f 140//113 143//113 142//113
f 144//114 34//114 141//114
f 43//115 146//115 145//115
f 71//116 147//116 44//116
f 147//117 71//117 49//117
f 136//118 135//118 148//118
f 148//118 149//118 136//118
f 149//118 148//118 138//118
f 138//118 137//118 149//118
f 130//119 135//119 49//119
f 97//120 130//120 49//120
f 125//119 97//119 49//119
f 109//121 100//121 135//121
f 130//119 109//119 135//119
f 69//122 148//122 100//122
f 68//123 148//123 69//123
f 73//124 148//124 68//124
f 71//123 148//123 73//123
f 49//119 62//119 125//119
f 49//119 71//119 62//119
f 135//125 100//125 148//125
f 88//125 148//125 71//125
f 126//125 88//125 71//125
f 103//125 126//125 71//125
f 106//126 122//126 148//126
f 88//125 106//125 148//125
f 112//127 138//127 121//127
f 44//128 86//128 111//128
f 101//123 138//123 112//123
f 54//124 138//124 101//124
f 44//129 54//129 86//129
f 44//130 138//130 54//130
f 71//131 111//131 103//131
f 71//132 44//132 111//132
f 148//125 121//125 138//125
f 148//133 122//133 121//133
f 87//134 145//134 149//134
f 104//135 145//135 87//135
f 105//134 145//134 104//134
f 102//136 149//136 123//136
f 87//134 149//134 102//134
f 124//137 123//137 137//137
f 43//138 105//138 110//138
f 113//139 124//139 137//139
f 43//140 110//140 85//140
f 128//134 113//134 137//134
f 43//139 85//139 128//139
f 43//139 128//139 137//139
f 145//134 105//134 43//134
f 149//134 137//134 123//134
f 96//135 46//135 136//135
f 129//141 46//141 96//141
f 61//135 46//135 129//135
f 108//136 136//136 99//136
f 131//142 136//142 108//142
f 96//143 136//143 131//143
f 67//144 99//144 149//144
f 145//145 61//145 70//145
f 98//141 67//141 149//141
f 145//145 70//145 72//145
f 145//146 72//146 98//146
f 145//134 98//134 149//134
f 46//147 61//147 145//147
f 136//134 149//134 99//134
f 92//148 49//148 48//148
f 74//119 92//119 48//119
f 56//133 74//133 48//133
f 89//149 118//149 49//149
f 53//150 89//150 49//150
f 92//151 53//151 49//151
f 134//152 147//152 118//152
f 107//132 147//132 134//132
f 49//153 118//153 147//153
f 114//132 94//132 147//132
f 84//122 114//122 147//122
f 82//153 44//153 94//153
f 50//154 66//154 60//154
f 95//155 44//155 82//155
f 50//124 65//124 66//124
f 65//156 44//156 95//156
f 50//157 44//157 65//157
f 147//153 94//153 44//153
f 150//144 151//144 152//144
f 152//139 153//139 150//139
f 154//158 155//158 144//158
f 141//159 156//159 154//159
f 154//160 144//160 141//160
f 143//161 152//161 151//161
f 151//161 142//161 143//161
f 152//162 3//162 4//162
f 152//163 6//163 3//163
f 152//164 8//164 6//164
f 152//165 10//165 8//165
f 152//166 37//166 10//166
f 152//167 140//167 37//167
f 152//168 143//168 140//168
f 155//169 34//169 144//169
f 28//170 155//170 30//170
f 32//171 30//171 155//171
f 26//172 155//172 28//172
f 4//173 155//173 152//173
f 4//174 32//174 155//174
f 34//175 155//175 26//175
f 151//176 1//176 2//176
f 151//177 2//177 5//177
f 151//178 5//178 7//178
f 151//179 7//179 9//179
f 151//180 9//180 42//180
f 151//181 42//181 139//181
f 151//182 139//182 142//182
f 27//183 29//183 156//183
f 31//184 156//184 29//184
f 25//185 27//185 156//185
f 1//186 151//186 156//186
f 1//187 156//187 31//187
f 39//188 25//188 156//188
f 39//189 156//189 141//189
f 150//190 153//190 157//190
f 145//191 146//191 158//191
f 158//191 157//191 145//191
f 157//190 158//190 150//190
f 50//192 159//192 160//192
f 160//193 51//193 50//193
f 161//194 162//194 163//194
f 163//195 164//195 161//195
f 165//196 163//196 162//196
f 48//197 47//197 166//197
f 166//198 167//198 48//198
f 78//122 147//122 107//122
f 48//199 167//199 56//199
f 167//123 162//123 56//123
f 167//131 168//131 162//131
f 80//125 147//125 78//125
f 162//123 147//123 80//123
f 56//123 162//123 80//123
f 60//156 159//156 50//156
f 147//127 117//127 84//127
f 90//126 147//126 162//126
f 90//200 117//200 147//200
f 159//201 161//201 169//201
f 60//152 90//152 162//152
f 159//202 162//202 161//202
f 159//126 60//126 162//126
f 47//203 170//203 171//203
f 171//204 166//204 47//204
f 165//205 172//205 173//205
f 173//206 163//206 165//206
f 163//207 173//207 174//207
f 174//208 164//208 163//208
f 160//209 175//209 176//209
f 176//210 51//210 160//210
f 177//211 174//211 173//211
f 172//212 178//212 173//212
f 170//213 179//213 180//213
f 180//214 171//214 170//214
f 171//215 180//215 181//215
f 181//216 182//216 171//216
f 182//217 181//217 155//217
f 155//218 178//218 182//218
f 178//219 155//219 154//219
f 154//220 173//220 178//220
f 173//221 154//221 156//221
f 156//222 177//222 173//222
f 177//223 156//223 183//223
f 183//224 184//224 177//224
f 184//225 183//225 185//225
f 185//226 175//226 184//226
f 175//227 185//227 186//227
f 186//228 176//228 175//228
f 46//20 170//20 47//20
f 46//20 179//20 170//20
f 45//21 51//21 176//21
f 45//21 176//21 186//21
f 152//229 155//229 181//229
f 153//230 152//230 181//230
f 181//231 180//231 153//231
f 151//232 183//232 156//232
f 150//233 185//233 183//233
f 183//234 151//234 150//234
f 150//235 186//235 185//235
f 150//236 158//236 186//236
f 146//237 186//237 158//237
f 153//238 180//238 179//238
f 153//239 179//239 157//239
f 145//240 157//240 179//240
f 187//241 127//241 115//241
f 59//242 188//242 189//242
f 190//243 115//243 116//243
f 63//244 192//244 193//244
f 133//245 194//245 195//245
f 75//246 196//246 197//246
f 59//247 189//247 198//247
f 198//248 91//248 59//248
f 200//249 132//249 119//249
f 77//250 201//250 202//250
f 119//251 191//251 200//251
f 127//252 203//252 204//252
f 204//253 93//253 127//253
f 79//254 205//254 201//254
f 201//255 77//255 79//255
f 52//256 207//256 208//256
f 79//257 199//257 205//257
f 115//258 190//258 187//258
f 120//259 210//259 191//259
f 191//260 119//260 120//260
f 83//261 212//261 213//261
f 64//262 206//262 211//262
f 211//263 58//263 64//263
f 197//264 76//264 75//264
f 216//265 55//265 76//265
f 55//266 216//266 209//266
f 76//267 217//267 216//267
f 192//268 63//268 81//268
f 202//269 57//269 77//269
f 63//270 193//270 218//270
f 218//271 64//271 63//271
f 93//272 204//272 215//272
f 215//272 81//272 93//272
f 208//273 120//273 52//273
f 91//274 198//274 212//274
f 212//274 83//274 91//274
f 58//275 211//275 188//275
f 188//276 59//276 58//276
f 127//277 187//277 203//277
f 81//278 215//278 192//278
f 194//279 133//279 132//279
f 116//280 214//280 190//280
f 57//281 219//281 196//281
f 196//282 75//282 57//282
f 57//283 202//283 219//283
f 120//284 208//284 210//284
f 64//285 218//285 206//285
f 133//286 195//286 199//286
f 199//287 79//287 133//287
f 132//288 200//288 194//288
f 55//289 209//289 207//289
f 207//290 52//290 55//290
f 76//291 197//291 217//291
f 83//292 213//292 214//292
f 214//293 116//293 83//293
f 213//294 220//294 221//294
f 221//295 214//295 213//295
f 222//296 217//296 197//296
f 209//297 223//297 224//297
f 224//298 207//298 209//298
f 196//299 225//299 226//299
f 200//300 227//300 228//300
f 228//301 194//301 200//301
f 195//302 229//302 230//302
f 230//303 199//303 195//303
f 231//304 206//304 218//304
f 232//305 210//305 208//305
f 202//306 233//306 225//306
f 225//307 219//307 202//307
f 225//308 196//308 219//308
f 214//309 221//309 234//309
f 234//310 190//310 214//310
f 212//311 235//311 236//311
f 217//312 222//312 238//312
f 215//313 239//313 240//313
f 240//314 192//314 215//314
f 187//315 241//315 237//315
f 237//316 203//316 187//316
f 242//317 188//317 211//317
f 235//318 212//318 198//318
f 208//319 243//319 232//319
f 204//320 244//320 239//320
f 239//321 215//321 204//321
f 218//322 245//322 231//322
f 245//323 218//323 193//323
f 217//324 238//324 246//324
f 246//325 216//325 217//325
f 216//326 246//326 223//326
f 223//327 209//327 216//327
f 197//328 226//328 222//328
f 193//329 240//329 245//329
f 198//330 248//330 235//330
f 188//331 242//331 249//331
f 250//332 211//332 206//332
f 212//333 236//333 220//333
f 220//334 213//334 212//334
f 211//335 250//335 242//335
f 210//336 232//336 251//336
f 251//337 191//337 210//337
f 190//338 234//338 241//338
f 241//339 187//339 190//339
f 199//340 230//340 252//340
f 252//341 205//341 199//341
f 207//342 224//342 243//342
f 243//343 208//343 207//343
f 206//344 231//344 250//344
f 205//345 252//345 247//345
f 247//346 201//346 205//346
f 203//347 237//347 244//347
f 244//348 204//348 203//348
f 189//349 249//349 248//349
f 191//350 251//350 227//350
f 227//351 200//351 191//351
f 201//352 247//352 233//352
f 233//353 202//353 201//353
f 248//354 198//354 189//354
f 226//355 197//355 196//355
f 194//356 228//356 229//356
f 229//357 195//357 194//357
f 240//358 193//358 192//358
f 249//359 189//359 188//359
f 251//360 232//360 182//360
f 171//361 243//361 224//361
f 167//362 222//362 226//362
f 232//363 243//363 171//363
f 232//364 171//364 182//364
f 225//365 167//365 226//365
f 225//366 168//366 167//366
f 168//367 165//367 162//367
f 233//368 165//368 168//368
f 225//369 233//369 168//369
f 247//370 165//370 233//370
f 247//371 252//371 165//371
f 229//372 172//372 230//372
f 228//373 172//373 229//373
f 227//374 178//374 228//374
f 251//375 178//375 227//375
f 182//376 178//376 251//376
f 165//377 230//377 172//377
f 165//378 252//378 230//378
f 172//379 228//379 178//379
f 239//380 175//380 240//380
f 244//381 237//381 184//381
f 244//382 184//382 175//382
f 244//383 175//383 239//383
f 160//384 250//384 231//384
f 160//385 231//385 245//385
f 245//386 240//386 175//386
f 160//387 245//387 175//387
f 174//388 177//388 241//388
f 174//389 241//389 234//389
f 237//390 241//390 177//390
f 237//391 177//391 184//391
f 235//392 164//392 236//392
f 221//393 174//393 234//393
f 220//394 174//394 221//394
f 164//395 220//395 236//395
f 220//396 164//396 174//396
f 169//397 161//397 164//397
f 164//398 235//398 248//398
f 249//399 169//399 164//399
f 249//400 164//400 248//400
f 159//401 169//401 249//401
f 159//402 249//402 242//402
f 159//403 242//403 250//403
f 250//404 160//404 159//404
f 166//405 222//405 167//405
f 246//406 166//406 171//406
f 238//407 166//407 246//407
f 222//408 166//408 238//408
f 223//409 171//409 224//409
f 246//410 171//410 223//410
f 146//139 43//139 45//139
f 146//411 45//411 186//411
f 145//412 179//412 46//412
