# Blender 5.0.1
# www.blender.org
mtllib left_shoulder_y_link_visual_0.mtl
o i01.leftArm.omoplate.full.001_visual.001
v -0.013660 -0.012166 -0.038033
v 0.013659 -0.012166 -0.038033
v -0.013660 0.006628 -0.039357
v -0.013659 -0.009087 0.005646
v -0.013659 0.009961 0.039357
v 0.013659 -0.009087 0.005646
v -0.013659 0.012166 0.039202
v 0.013659 0.012166 0.039202
v 0.013660 0.009961 0.039357
v 0.013659 0.006628 -0.039357
vn -0.0000 -0.9975 0.0703
vn -0.0000 -0.0703 -0.9975
vn -1.0000 -0.0000 -0.0000
vn -0.0000 -0.8706 0.4919
vn -0.0000 0.9975 -0.0703
vn -0.0000 0.0703 0.9975
vn 1.0000 0.0001 -0.0000
vn 1.0000 -0.0000 -0.0000
s 0
usemtl Material.285
f 4//1 1//1 2//1
f 2//2 1//2 3//2
f 4//3 3//3 1//3
f 5//3 7//3 4//3
f 5//4 4//4 6//4
f 4//1 2//1 6//1
f 4//3 7//3 3//3
f 8//5 3//5 7//5
f 5//6 8//6 7//6
f 6//7 8//7 9//7
f 5//6 9//6 8//6
f 6//8 10//8 8//8
f 8//5 10//5 3//5
f 2//2 3//2 10//2
f 2//8 10//8 6//8
f 5//4 6//4 9//4
