# Blender 5.0.1
# www.blender.org
mtllib left_shoulder_y_link_visual_5.mtl
o i01.leftArm.omoplate.full.006_visual.001
v 0.073370 0.024009 0.454341
v -0.012705 0.024009 0.454341
v -0.012705 0.019317 0.453726
v 0.073370 0.019317 0.453726
v 0.073370 0.030420 0.487163
v 0.073370 0.028579 0.453116
v -0.012705 0.028579 0.453116
v 0.073370 0.032333 0.450235
v 0.073370 0.103286 0.475117
v -0.012705 0.032333 0.450235
v 0.073370 0.034698 0.446135
v 0.073370 0.035314 0.441444
v -0.012705 0.034698 0.446135
v -0.012705 0.035314 0.441444
v -0.026669 0.045682 0.449861
v -0.026669 0.046888 0.440682
v -0.026669 0.044490 0.431741
v -0.026669 0.103289 0.475117
v 0.073370 0.176878 0.393246
v -0.026669 0.176881 0.393243
v -0.026669 0.030419 0.487163
v -0.026669 0.041055 0.457880
v -0.026669 0.033711 0.463517
v -0.026669 0.024770 0.465914
v -0.026669 0.015591 0.464708
v -0.012705 0.015219 0.451360
v -0.026669 0.007573 0.460081
v -0.012705 0.012337 0.447605
v -0.026669 -0.037575 0.417622
v -0.026669 0.001935 0.452739
v -0.026669 -0.000462 0.443797
v -0.012705 0.011112 0.443036
v 0.073370 0.012337 0.447605
v 0.073370 0.011112 0.443036
v -0.012705 0.011728 0.438344
v -0.026669 0.000744 0.434618
v 0.073370 0.011728 0.438344
v -0.012705 0.014093 0.434244
v -0.026669 0.005371 0.426599
v 0.073370 0.014093 0.434244
v -0.012705 0.017847 0.431364
v 0.073370 0.017847 0.431364
v -0.012705 0.022417 0.430139
v -0.026669 0.012714 0.420962
v -0.026669 0.021656 0.418565
v -0.012705 0.027109 0.430755
v -0.026669 -0.046315 0.284716
v -0.026669 0.030835 0.419771
v -0.026669 -0.037154 0.297776
v -0.026669 0.072384 0.290572
v 0.037030 0.072384 0.290572
v 0.037030 0.017729 0.294167
v -0.026669 0.038853 0.424397
v -0.026669 0.051040 0.238786
v 0.037030 0.051040 0.238786
v -0.026669 0.085714 0.225726
v 0.073370 0.117174 0.206154
v -0.026669 0.117174 0.206154
v 0.073370 0.085714 0.225726
v 0.073370 0.051040 0.238786
v 0.037030 0.014491 0.244924
v 0.073370 0.014485 0.244829
v 0.073370 0.031207 0.433120
v 0.073370 -0.022548 0.243625
v 0.073370 0.022417 0.430139
v 0.073370 0.027109 0.430755
v 0.073370 -0.043397 0.484761
v 0.073370 -0.058633 0.235218
v -0.026669 -0.108455 0.422282
v -0.026669 -0.043397 0.484761
v 0.073370 -0.118943 0.413009
v 0.073370 0.015219 0.451360
v 0.073370 -0.092386 0.219933
v -0.026669 -0.186222 0.382542
v 0.073370 -0.186222 0.382541
v -0.026669 -0.118944 0.413009
v -0.026669 -0.189982 0.377279
v -0.026669 -0.137058 0.373799
v -0.026669 -0.157080 0.317970
v -0.026669 -0.117195 0.289376
v -0.026669 -0.122508 0.198359
v -0.026669 -0.058633 0.235218
v -0.026669 -0.092386 0.219933
v 0.037030 -0.022548 0.243625
v -0.026669 -0.022548 0.243625
v 0.037030 -0.037154 0.297776
v -0.026669 -0.147842 0.171320
v -0.026669 -0.164745 0.201394
v 0.073370 -0.122508 0.198359
v 0.073370 -0.147842 0.171320
v 0.073370 -0.246264 0.339535
v -0.026669 -0.246265 0.339535
v 0.073370 -0.296763 0.285642
v -0.026669 -0.296763 0.285642
v -0.026669 -0.335777 0.222932
v -0.026669 -0.234467 0.205978
v -0.048461 -0.164749 0.201394
v -0.026669 -0.226802 0.322554
v -0.026669 -0.167414 0.139860
v -0.048451 -0.234471 0.205979
v -0.073193 -0.165713 0.186790
v -0.048432 -0.226805 0.322555
v -0.073183 -0.235435 0.191375
v -0.073183 -0.225943 0.335712
v -0.073193 -0.156222 0.331127
v -0.048443 -0.157083 0.317970
v -0.026669 -0.180473 0.105186
v 0.073370 -0.167414 0.139860
v 0.073370 -0.335777 0.222932
v 0.073370 -0.180473 0.105186
v 0.073370 -0.186516 0.068630
v -0.026669 -0.186517 0.068630
v 0.073370 -0.370285 0.088305
v 0.073370 -0.367920 0.084205
v 0.073370 -0.415524 0.157347
v 0.073370 -0.387399 0.089429
v -0.026669 -0.415524 0.157347
v 0.073370 -0.427570 0.084480
v -0.026669 -0.427570 0.084480
v 0.073370 -0.383301 0.091794
v 0.073370 -0.378609 0.092409
v 0.073370 -0.374039 0.091185
v -0.012706 -0.374039 0.091185
v -0.012706 -0.378609 0.092409
v -0.012706 -0.383301 0.091794
v -0.026669 -0.368907 0.101586
v -0.026669 -0.377848 0.103986
v -0.026669 -0.387027 0.102777
v -0.012706 -0.387399 0.089429
v -0.026669 -0.395045 0.098151
v -0.012706 -0.390281 0.085674
v -0.026669 -0.400683 0.090808
v -0.012706 -0.391506 0.081104
v -0.026669 -0.403080 0.081865
v -0.012706 -0.390890 0.076412
v -0.026669 -0.401874 0.072687
v -0.026669 -0.397247 0.064671
v -0.012706 -0.388525 0.072315
v 0.073370 -0.390890 0.076412
v 0.073370 -0.388525 0.072315
v -0.012706 -0.384771 0.069435
v -0.012706 -0.380201 0.068208
v 0.073370 -0.384771 0.069435
v -0.026669 -0.389903 0.059031
v -0.026669 -0.425169 0.010665
v -0.026669 -0.380962 0.056635
v -0.026669 -0.371783 0.057840
v -0.012706 -0.375509 0.068826
v -0.012706 -0.371411 0.071191
v 0.073370 -0.380201 0.068208
v 0.073370 -0.375509 0.068826
v 0.073370 -0.425169 0.010665
v 0.073370 -0.371411 0.071191
v 0.073370 -0.368529 0.074943
v -0.012706 -0.368529 0.074943
v 0.073370 -0.185312 0.031597
v -0.026669 -0.185312 0.031597
v -0.026669 -0.176906 -0.004487
v 0.073370 -0.176906 -0.004487
v 0.073370 -0.354697 -0.064798
v 0.073370 -0.161622 -0.038239
v -0.026669 -0.161622 -0.038239
v -0.026669 -0.354697 -0.064798
v -0.026669 -0.252830 -0.066526
v -0.026669 -0.183725 -0.071071
v -0.026669 -0.140046 -0.068363
v -0.026669 -0.191399 -0.187771
v 0.073370 -0.140046 -0.068363
v -0.026669 -0.113009 -0.093697
v 0.073370 -0.113009 -0.093697
v -0.026669 -0.081549 -0.113268
v 0.073370 -0.081549 -0.113268
v -0.026669 -0.046875 -0.126327
v 0.073370 -0.010319 -0.132371
v 0.073370 -0.046875 -0.126327
v -0.026669 -0.010325 -0.132464
v -0.026669 -0.262712 -0.223793
v -0.026669 0.162991 -0.211074
v -0.026669 -0.204986 -0.402256
v -0.026669 -0.192804 -0.228062
v 0.073370 -0.281224 -0.192119
v -0.026669 -0.281224 -0.192119
v -0.026669 -0.260503 -0.183227
v -0.026669 -0.269191 -0.321363
v 0.073370 -0.262712 -0.223793
v 0.073370 -0.269191 -0.321363
v 0.073370 -0.272223 -0.366510
v 0.073370 -0.192003 -0.206641
v 0.073370 -0.204876 -0.402405
v 0.073370 -0.276186 -0.425812
v 0.073370 -0.021740 -0.447487
v 0.066489 -0.204657 -0.399060
v 0.073370 -0.010069 -0.440752
v 0.073370 -0.014760 -0.441367
v 0.066489 -0.192258 -0.210500
v 0.073370 -0.022966 -0.452057
v 0.073370 -0.106431 -0.473832
v 0.073370 -0.022349 -0.456750
v 0.073370 -0.014062 -0.487163
v 0.073370 0.136669 -0.424884
v 0.073370 -0.018859 -0.443732
v -0.012668 -0.018859 -0.443732
v -0.012668 -0.021740 -0.447487
v -0.026669 -0.026505 -0.435011
v -0.026669 -0.032142 -0.442353
v -0.012668 -0.022966 -0.452057
v -0.012668 -0.022349 -0.456750
v -0.026669 -0.034540 -0.451296
v -0.026669 -0.106431 -0.473832
v -0.026669 -0.033333 -0.460474
v -0.012668 -0.019984 -0.460846
v -0.026669 -0.028706 -0.468492
v -0.026669 -0.021363 -0.474130
v -0.012668 -0.016231 -0.463726
v -0.026669 -0.014062 -0.487163
v -0.026669 -0.003243 -0.475322
v -0.026669 0.078379 -0.486462
v -0.026669 -0.012421 -0.476528
v -0.026669 0.004776 -0.470693
v -0.012668 -0.002870 -0.461970
v -0.026669 0.010413 -0.463351
v -0.012668 0.000011 -0.458219
v 0.073370 -0.002870 -0.461970
v 0.073370 0.000011 -0.458219
v -0.012668 0.001237 -0.453649
v 0.073370 0.001237 -0.453649
v -0.012668 0.000620 -0.448956
v -0.026669 0.012811 -0.454410
v -0.026669 0.011605 -0.445230
v -0.026669 0.006977 -0.437212
v -0.012668 -0.001745 -0.444857
v -0.012668 -0.005498 -0.441977
v 0.073370 0.000620 -0.448956
v 0.073370 -0.001745 -0.444857
v 0.073370 -0.005498 -0.441977
v -0.012668 -0.010069 -0.440752
v -0.026669 -0.000366 -0.431575
v -0.026669 -0.009308 -0.429176
v -0.012668 -0.014760 -0.441367
v -0.026669 -0.018486 -0.430384
v -0.026669 0.148492 -0.425819
v -0.026669 0.223808 -0.460582
v -0.026669 0.159720 -0.250585
v -0.026669 0.237958 -0.255402
v -0.055224 0.149491 -0.410563
v -0.055171 -0.203990 -0.387055
v -0.055171 -0.193806 -0.243233
v -0.055223 0.158711 -0.265872
v -0.026669 -0.012377 -0.239595
v -0.026669 0.231175 -0.215557
v -0.048672 0.231172 -0.215557
v -0.048662 0.162988 -0.211074
v -0.026669 0.243192 -0.234127
v -0.026669 0.238849 -0.098857
v -0.048441 0.238846 -0.098857
v -0.073370 0.239705 -0.085731
v -0.048431 0.170662 -0.094374
v -0.026669 0.170665 -0.094374
v -0.026669 0.096551 -0.107476
v -0.026669 0.126673 -0.085901
v 0.073370 0.126673 -0.085901
v -0.026669 0.152007 -0.058862
v 0.073370 0.096551 -0.107476
v 0.073370 0.062799 -0.122760
v 0.073370 0.243458 -0.234303
v 0.073370 0.267763 -0.172633
v 0.073370 0.304409 -0.144940
v 0.073370 0.152007 -0.058863
v -0.026669 0.267763 -0.172632
v -0.026669 0.304408 -0.144942
v 0.073370 0.413441 -0.152029
v -0.026669 0.413440 -0.152032
v -0.026669 0.419946 -0.044909
v -0.026669 0.356987 -0.110639
v -0.026669 0.375108 -0.111831
v -0.026669 0.365929 -0.113036
v -0.026669 0.388763 -0.099860
v -0.026669 0.383126 -0.107204
v -0.026669 0.391161 -0.090918
v -0.026669 0.389954 -0.081740
v -0.012721 0.378970 -0.085466
v -0.012721 0.379587 -0.090157
v 0.073370 0.378361 -0.094728
v 0.073370 0.379587 -0.090157
v -0.012721 0.378361 -0.094728
v 0.073370 0.375480 -0.098482
v -0.012721 0.375480 -0.098482
v 0.073370 0.371381 -0.100846
v -0.012721 0.371381 -0.100846
v 0.073370 0.366690 -0.101462
v -0.012721 0.366690 -0.101462
v -0.012721 0.362119 -0.100238
v 0.073370 0.362119 -0.100238
v 0.073370 0.358366 -0.097357
v 0.073370 0.171580 -0.027403
v -0.012721 0.358366 -0.097357
v 0.073370 0.356001 -0.093258
v -0.012721 0.356001 -0.093258
v 0.073370 0.355384 -0.088566
v -0.012721 0.355384 -0.088566
v 0.073370 0.356610 -0.083995
v 0.073370 0.184639 0.007270
v 0.073370 0.359491 -0.080242
v -0.012721 0.356610 -0.083995
v -0.012721 0.359491 -0.080242
v -0.026669 0.351845 -0.071520
v -0.026669 0.346208 -0.078864
v -0.026669 0.171580 -0.027402
v -0.026669 0.343810 -0.087805
v -0.026669 0.345017 -0.096984
v -0.026669 0.349644 -0.105002
v -0.026669 0.359864 -0.066894
v -0.026669 0.184639 0.007271
v -0.026669 0.190682 0.043827
v -0.026669 0.427570 0.069056
v 0.073370 0.419947 -0.044908
v 0.073370 0.427570 0.069057
v -0.026669 0.357657 0.074116
v -0.026669 0.362798 0.177981
v -0.026669 0.189478 0.080861
v -0.026669 0.181072 0.116944
v 0.073370 0.357657 0.074118
v 0.073370 0.181072 0.116943
v 0.073370 0.189478 0.080860
v 0.073370 0.362797 0.177984
v 0.073370 0.331593 0.249804
v -0.026669 0.331595 0.249803
v 0.073370 0.165787 0.150696
v 0.073370 0.144212 0.180819
v -0.026669 0.144212 0.180819
v -0.026669 0.165787 0.150697
v -0.026669 0.188129 0.178191
v -0.026669 0.258240 0.173581
v -0.048524 0.258236 0.173581
v -0.048514 0.188126 0.178191
v -0.026669 0.195795 0.294766
v -0.026669 0.265905 0.290156
v -0.048495 0.195792 0.294766
v -0.073246 0.196653 0.307921
v -0.073246 0.187162 0.163587
v -0.048506 0.265902 0.290156
v -0.073257 0.257272 0.158977
v -0.073257 0.266763 0.303311
v -0.026669 0.231567 0.358576
v -0.026669 0.286219 0.309455
v 0.073370 0.286216 0.309456
v 0.073370 0.231564 0.358575
v 0.073370 0.190682 0.043826
v 0.073370 0.363590 -0.077876
v 0.073370 0.368281 -0.077260
v 0.073370 0.372852 -0.078485
v 0.073370 0.376605 -0.081367
v 0.073370 0.378970 -0.085466
v -0.012721 0.376605 -0.081367
v -0.012721 0.372852 -0.078485
v -0.026669 0.385328 -0.073722
v -0.026669 0.377984 -0.068086
v -0.026669 0.369042 -0.065687
v -0.012721 0.368281 -0.077260
v -0.012721 0.363590 -0.077876
v 0.073370 0.237720 -0.260788
v 0.073370 0.184125 -0.232020
v 0.073370 0.026713 -0.131166
v -0.026669 0.026713 -0.131166
v -0.026669 0.062799 -0.122760
v 0.073370 0.149543 -0.229101
v 0.041438 0.182846 -0.251445
v 0.073370 0.183127 -0.257197
v 0.050752 0.181840 -0.276754
v 0.014219 0.181097 -0.278031
v -0.001320 0.179170 -0.307310
v 0.014395 0.146486 -0.275496
v 0.041433 0.148240 -0.248866
v 0.041475 -0.193307 -0.226397
v 0.041475 -0.203756 -0.385298
v 0.014465 -0.202012 -0.358718
v 0.014465 -0.195059 -0.252976
v -0.012362 -0.184624 -0.307149
v -0.001320 0.144560 -0.305035
v -0.012362 0.177613 -0.330968
v -0.012362 0.142989 -0.328690
v 0.000109 0.141256 -0.355044
v 0.000269 0.175887 -0.357234
v 0.014413 0.174173 -0.383334
v 0.050752 0.174683 -0.385591
v 0.013183 0.178216 -0.331819
v 0.050732 0.236433 -0.280345
v 0.013163 0.232810 -0.335410
v 0.050732 0.229276 -0.389182
v 0.073370 0.173604 -0.402023
v 0.073370 0.228197 -0.405614
v 0.073370 0.171316 -0.426824
v 0.073370 0.223809 -0.460580
v 0.073370 0.078379 -0.486462
v 0.041255 0.137793 -0.407741
v 0.041082 0.172439 -0.409714
v 0.014492 0.139534 -0.381218
v -0.073360 0.171521 -0.081244
v -0.073360 0.162028 -0.225615
v -0.073370 0.230212 -0.230100
v 0.073370 -0.006968 -0.464336
v -0.012668 -0.006968 -0.464336
v 0.073370 -0.011660 -0.464954
v -0.012668 -0.011660 -0.464954
v 0.073370 -0.016231 -0.463726
v 0.073370 -0.019984 -0.460846
v -0.026669 -0.272223 -0.366510
v -0.026669 -0.276186 -0.425812
v -0.048368 -0.252833 -0.066526
v -0.048598 -0.260507 -0.183227
v -0.026669 -0.324231 -0.132078
v 0.073370 -0.324231 -0.132078
v -0.073297 -0.251973 -0.053397
v -0.073297 -0.261467 -0.197768
v -0.048609 -0.191402 -0.187771
v -0.048378 -0.183728 -0.071071
v -0.073307 -0.182868 -0.057941
v -0.073307 -0.192362 -0.202312
v -0.026669 -0.363765 0.062469
v -0.026669 -0.358128 0.069810
v -0.012706 -0.367304 0.079513
v -0.012706 -0.367920 0.084205
v -0.026669 -0.355730 0.078752
v 0.073370 -0.367304 0.079513
v -0.026669 -0.356936 0.087931
v -0.012706 -0.370285 0.088305
v -0.026669 -0.361563 0.095950
v 0.073370 -0.391506 0.081104
v 0.073370 -0.390281 0.085674
v -0.012705 0.031207 0.433120
v -0.012705 0.034089 0.436874
v 0.073370 0.034089 0.436874
vn -0.0000 -0.2588 -0.9659
vn -0.0000 0.1300 -0.9915
vn 1.0000 -0.0000 -0.0000
vn -0.0000 -0.6089 -0.7933
vn -0.0000 -0.8662 -0.4997
vn -0.0000 -0.9915 -0.1303
vn -0.6316 -0.7687 -0.1011
vn -0.6316 -0.6715 -0.3874
vn -0.6316 -0.7687 -0.1010
vn -1.0000 -0.0000 -0.0000
vn -0.6316 -0.7488 0.2008
vn -0.0000 0.7437 0.6685
vn -0.0000 0.1631 0.9866
vn -0.6316 -0.4721 -0.6150
vn -0.6316 -0.6715 -0.3875
vn -0.6316 -0.2006 -0.7489
vn -0.6316 -0.2007 -0.7489
vn -0.6316 0.1010 -0.7687
vn -0.6316 0.1008 -0.7687
vn -0.6316 0.3875 -0.6715
vn -0.6316 0.3876 -0.6715
vn -0.6317 0.6149 -0.4721
vn -0.6316 0.6151 -0.4720
vn -0.6316 0.7488 -0.2009
vn -0.6316 0.7488 -0.2008
vn -0.0000 0.9659 -0.2591
vn -0.0000 0.9915 0.1303
vn -0.6316 0.7687 0.1010
vn -0.6317 0.6715 0.3874
vn -0.0000 0.8662 0.4997
vn -0.6316 0.6715 0.3875
vn -0.6316 0.4720 0.6151
vn -0.0000 0.6087 0.7934
vn -0.0000 0.2590 0.9659
vn -0.6316 0.2008 0.7488
vn -0.6316 0.4720 0.6150
vn -0.6316 -0.1010 0.7687
vn -0.6316 -0.1009 0.7687
vn -0.0000 -0.0656 -0.9978
vn -0.0000 -0.9246 0.3811
vn -0.0000 -0.3525 -0.9358
vn -0.0000 -0.5282 -0.8491
vn -0.0000 -0.1656 -0.9862
vn -0.0026 -0.1631 -0.9866
vn -0.0026 0.0325 -0.9995
vn -0.0000 -0.0325 0.9995
vn -0.0000 -0.6927 0.7213
vn -0.0050 -0.6887 0.7251
vn -0.0000 0.5000 -0.8660
vn -0.0000 0.7933 -0.6088
vn -0.0000 -0.4125 0.9109
vn -0.0000 -0.6624 0.7492
vn -0.0000 0.5823 -0.8130
vn -0.0000 0.4125 -0.9109
vn -0.0000 0.2269 -0.9739
vn -0.0000 0.9655 0.2604
vn -0.0000 0.0350 -0.9994
vn -0.0000 0.7297 -0.6837
vn -0.0000 -0.7297 0.6838
vn -0.0000 -0.5823 0.8130
vn -0.0000 -0.8491 0.5282
vn 0.0001 -0.9978 0.0656
vn 0.5093 -0.0564 -0.8588
vn 0.5093 -0.0564 -0.8587
vn 0.0002 -0.9978 0.0656
vn -1.0000 -0.0001 -0.0000
vn -0.0002 0.9978 -0.0656
vn 0.4702 0.0580 0.8807
vn -0.0000 0.0656 0.9978
vn -0.0000 0.9358 -0.3525
vn -0.0000 0.8491 -0.5283
vn -0.0000 0.9866 -0.1631
vn -0.0000 -0.9866 0.1631
vn -0.0000 -0.6352 0.7724
vn -0.0000 -0.6087 -0.7934
vn -0.6318 0.1008 -0.7686
vn -0.6317 -0.2009 -0.7487
vn -0.6316 0.1012 -0.7686
vn -0.6316 0.3874 -0.6715
vn -0.6316 0.6150 -0.4720
vn -0.6317 0.7488 -0.2008
vn -0.6316 0.7686 0.1010
vn -0.6316 0.6714 0.3876
vn -0.0000 0.8660 0.5000
vn -0.0000 0.6088 0.7934
vn -0.6317 0.2010 0.7487
vn -0.0000 0.2594 0.9658
vn -0.6317 0.4722 0.6148
vn -0.6316 0.2007 0.7488
vn -0.6317 -0.1009 0.7686
vn -0.6316 -0.1012 0.7687
vn -0.6317 -0.3875 0.6714
vn -0.0000 -0.4998 0.8661
vn -0.0000 -0.1306 0.9914
vn -0.0000 -0.7931 0.6091
vn -0.0000 0.9739 0.2269
vn -0.0000 0.9995 0.0325
vn -0.0000 0.9110 0.4125
vn -0.0000 0.8130 0.5823
vn -0.0000 0.6837 0.7297
vn -0.0000 0.5282 0.8491
vn -0.0000 0.3525 0.9358
vn -0.0009 0.1656 0.9862
vn -0.0000 -0.8634 -0.5046
vn -0.0000 -0.9978 0.0663
vn -0.0000 -0.9978 0.0670
vn -0.0001 0.9978 -0.0656
vn 0.4379 0.0590 0.8971
vn 1.0000 -0.0000 -0.0001
vn -0.0000 0.4998 -0.8661
vn -0.6306 0.6156 -0.4726
vn -0.6306 0.6157 -0.4725
vn -0.6306 0.7496 -0.2011
vn -0.6306 0.7695 0.1011
vn -0.6306 0.7496 -0.2010
vn -0.6306 0.6722 0.3879
vn -0.6306 0.6721 0.3881
vn -0.6307 0.4726 0.6156
vn -0.6306 0.4725 0.6157
vn -0.0000 0.0076 -1.0000
vn -0.0000 -0.1428 -0.9897
vn -0.6306 -0.3880 0.6721
vn -0.6306 -0.6155 0.4728
vn -0.6306 -0.6156 0.4727
vn -0.0000 -0.7930 0.6092
vn -0.0000 -0.9659 0.2590
vn -0.6306 -0.7496 0.2010
vn -0.6306 -0.7695 -0.1012
vn -0.6306 -0.7695 -0.1011
vn -0.6306 -0.6722 -0.3879
vn -0.6306 -0.6723 -0.3878
vn -0.6306 -0.4725 -0.6158
vn -0.0000 -0.6088 -0.7934
vn -0.6307 -0.2011 -0.7496
vn -0.6306 -0.2009 -0.7497
vn -0.6307 0.1009 -0.7694
vn -0.6306 0.3879 -0.6722
vn -0.6306 0.1012 -0.7695
vn 0.0008 0.9980 -0.0639
vn -0.4720 -0.0586 -0.8796
vn -0.4714 -0.0587 -0.8800
vn 0.0028 -0.9975 0.0706
vn -0.4716 0.0564 0.8800
vn -0.4707 0.0563 0.8805
vn -0.0021 -0.9976 0.0698
vn -0.4728 0.0562 0.8794
vn 0.4667 0.0581 0.8825
vn -0.0000 -0.7297 0.6837
vn -0.0000 -0.4125 0.9110
vn -0.0000 0.6029 -0.7978
vn -0.0031 0.9303 -0.3667
vn -0.0000 0.9286 -0.3710
vn -0.0000 -0.0649 -0.9979
vn -0.0000 0.9982 -0.0606
vn -0.6320 -0.7683 -0.1010
vn -0.6320 -0.7485 0.2007
vn -0.0000 -0.9915 -0.1304
vn -0.0000 -0.7932 0.6089
vn -0.0000 -0.7933 0.6089
vn -0.6320 -0.6147 0.4719
vn -0.6320 -0.6147 0.4718
vn -0.0000 -0.4997 0.8662
vn -0.6321 -0.3872 0.6712
vn -0.6320 -0.3873 0.6712
vn -0.0000 -0.1302 0.9915
vn -0.6320 -0.1009 0.7683
vn -0.6320 0.2007 0.7485
vn -0.6320 0.2006 0.7486
vn -0.0000 0.2588 0.9659
vn -0.0000 0.6089 0.7933
vn -0.0000 0.8661 0.4998
vn -0.0000 0.9659 -0.2590
vn -0.0000 0.7931 -0.6090
vn -0.6320 0.6146 -0.4720
vn -0.6320 0.6147 -0.4719
vn -0.6320 0.7485 -0.2007
vn -0.6320 0.7485 -0.2008
vn -0.6320 0.7683 0.1010
vn -0.6320 0.6712 0.3873
vn -0.6320 0.4718 0.6148
vn -0.6320 0.4719 0.6147
vn -0.0000 -0.9358 0.3525
vn -0.0000 -0.8491 0.5283
vn -0.0000 0.9978 -0.0667
vn -0.0000 0.0722 0.9974
vn -0.0000 0.9988 -0.0494
vn -0.0000 0.9172 0.3985
vn -0.0000 -0.8130 -0.5823
vn -0.0000 -0.9110 -0.4125
vn 0.4701 0.0580 0.8807
vn -1.0000 -0.0002 -0.0000
vn -0.0000 0.7959 0.6054
vn -0.0000 0.6685 0.7437
vn -0.0000 0.6685 0.7438
vn -0.0000 0.5354 0.8446
vn -0.0000 0.5355 0.8446
vn -0.0000 -0.6838 -0.7297
vn -0.0000 -0.9739 -0.2269
vn -0.0000 -0.9995 -0.0325
vn -0.0000 -0.6091 -0.7931
vn -0.6320 -0.6712 -0.3873
vn -0.6321 -0.4720 -0.6146
vn -0.6320 -0.4719 -0.6148
vn -0.6320 -0.2008 -0.7485
vn -0.6319 -0.2006 -0.7486
vn -0.0000 0.1302 -0.9915
vn -0.6320 0.1009 -0.7684
vn -0.6320 0.3875 -0.6712
vn -0.6320 0.1010 -0.7684
vn -0.6320 0.3873 -0.6712
vn -0.0091 0.9773 -0.2117
vn -0.0030 0.9710 -0.2389
vn -0.0000 -0.0350 0.9994
vn -0.0000 -0.2269 0.9739
vn -0.0009 -0.0325 0.9995
vn 0.5205 -0.0718 -0.8509
vn 0.0159 -0.9991 0.0396
vn 0.6549 -0.0496 -0.7541
vn 0.0188 -0.9989 0.0440
vn 0.0174 -0.9987 0.0479
vn 0.0183 -0.9983 0.0560
vn 0.8837 -0.0297 -0.4671
vn 0.6995 -0.0532 -0.7126
vn 0.7025 -0.0484 -0.7100
vn 0.5271 -0.0632 -0.8475
vn 0.7025 -0.0466 -0.7102
vn 0.5271 -0.0568 -0.8479
vn 0.5372 -0.0553 -0.8416
vn 0.7022 -0.0467 -0.7105
vn 0.8937 -0.0271 -0.4478
vn 0.4618 0.8851 -0.0582
vn 0.8832 -0.0307 -0.4679
vn 0.8832 -0.0308 -0.4679
vn 0.9065 -0.0277 -0.4213
vn 0.9043 0.0280 0.4261
vn 0.9043 0.0228 0.4264
vn 0.9016 0.0284 0.4317
vn 0.8796 0.0260 0.4750
vn 0.0187 -0.9970 0.0756
vn 0.0261 -0.9966 0.0780
vn 0.0214 -0.9965 0.0804
vn 0.0254 -0.9982 0.0539
vn 0.0211 -0.9985 0.0513
vn 0.8203 0.0378 0.5706
vn 0.8266 -0.0366 -0.5616
vn -0.0012 0.9979 -0.0648
vn -0.0093 0.9976 -0.0688
vn -0.0061 0.9975 -0.0698
vn 0.5882 0.0531 0.8069
vn 0.5886 0.0533 0.8067
vn -0.0044 0.9974 -0.0716
vn -0.0000 0.9968 -0.0796
vn -0.0000 0.1752 -0.9845
vn 0.4717 0.0493 0.8804
vn 0.4690 0.0525 0.8816
vn 0.0140 -0.9957 0.0919
vn 0.7047 0.0438 0.7082
vn 0.7040 0.0449 0.7088
vn 0.0164 -0.9965 0.0821
vn 0.8768 0.0313 0.4798
vn 0.7047 0.0466 0.7080
vn 0.8768 0.0315 0.4798
vn 0.7022 0.0471 0.7104
vn 0.4717 0.0581 0.8798
vn 0.0197 -0.9955 0.0925
vn -0.0011 0.9979 -0.0644
vn 0.6545 -0.0494 -0.7544
vn 0.8911 0.0324 0.4526
vn 0.4828 0.0564 0.8739
vn 0.4899 -0.0572 -0.8699
vn 0.4668 0.0581 0.8825
vn 0.5082 -0.0564 -0.8594
vn -0.0012 0.9980 -0.0636
vn -0.6306 -0.4726 -0.6156
vn -0.0000 -0.5000 0.8660
vn -0.0000 0.2595 0.9657
vn -0.6307 0.2014 0.7494
vn -0.6306 0.2011 0.7496
vn -0.6306 -0.1014 0.7695
vn -0.6306 -0.1011 0.7695
vn -0.0000 -0.2722 -0.9622
vn -0.0000 -0.9978 0.0667
vn -0.0000 -0.7309 -0.6825
vn -0.6316 -0.6149 0.4722
vn -0.6317 -0.7686 -0.1010
vn -0.6316 -0.7686 -0.1010
vn -0.6317 -0.6715 -0.3874
vn -0.6316 -0.4720 -0.6151
vn -0.6316 -0.4720 -0.6150
vn -0.6316 -0.3876 0.6714
vn -0.6316 -0.3874 0.6715
vn -0.6316 -0.6150 0.4720
vn -0.6316 -0.3875 0.6715
vn -0.0000 -0.7933 0.6088
vn -0.6317 -0.6149 0.4721
vn -0.0000 -0.9659 0.2591
s 0
usemtl Material.254
f 2//1 6//1 1//1
f 1//2 3//2 2//2
f 3//2 1//2 4//2
f 5//3 4//3 1//3
f 6//3 5//3 1//3
f 6//1 2//1 7//1
f 7//4 8//4 6//4
f 8//3 5//3 6//3
f 8//3 9//3 5//3
f 8//3 11//3 9//3
f 8//4 7//4 10//4
f 10//5 11//5 8//5
f 11//3 12//3 9//3
f 13//6 12//6 11//6
f 11//5 10//5 13//5
f 13//7 16//7 14//7
f 12//6 13//6 14//6
f 10//8 15//8 13//8
f 16//9 13//9 15//9
f 16//10 15//10 18//10
f 17//10 16//10 18//10
f 17//11 14//11 16//11
f 19//12 20//12 18//12
f 18//12 9//12 19//12
f 17//10 18//10 20//10
f 9//13 18//13 21//13
f 15//10 22//10 18//10
f 21//10 18//10 22//10
f 21//10 22//10 23//10
f 22//14 7//14 23//14
f 15//15 10//15 22//15
f 7//14 22//14 10//14
f 2//16 23//16 7//16
f 21//10 23//10 24//10
f 23//17 2//17 24//17
f 25//10 21//10 24//10
f 24//18 3//18 25//18
f 3//19 24//19 2//19
f 25//20 26//20 27//20
f 26//21 25//21 3//21
f 27//10 21//10 25//10
f 27//22 28//22 30//22
f 28//23 27//23 26//23
f 29//10 27//10 30//10
f 29//10 21//10 27//10
f 32//24 30//24 28//24
f 29//10 30//10 31//10
f 30//25 32//25 31//25
f 32//26 33//26 34//26
f 33//26 32//26 28//26
f 34//27 35//27 32//27
f 35//28 31//28 32//28
f 35//27 34//27 37//27
f 31//28 35//28 36//28
f 38//29 36//29 35//29
f 37//30 38//30 35//30
f 36//31 38//31 39//31
f 41//32 39//32 38//32
f 40//33 41//33 38//33
f 38//30 37//30 40//30
f 42//34 43//34 41//34
f 41//33 40//33 42//33
f 43//35 44//35 41//35
f 39//36 41//36 44//36
f 29//10 44//10 45//10
f 29//10 39//10 44//10
f 44//35 43//35 45//35
f 45//37 46//37 48//37
f 46//38 45//38 43//38
f 45//10 47//10 29//10
f 45//10 49//10 47//10
f 45//10 48//10 50//10
f 45//10 50//10 49//10
f 51//39 52//39 50//39
f 51//40 50//40 54//40
f 52//39 49//39 50//39
f 53//10 20//10 50//10
f 54//10 50//10 20//10
f 53//10 50//10 48//10
f 20//10 56//10 54//10
f 54//40 55//40 51//40
f 55//41 54//41 56//41
f 56//42 58//42 57//42
f 57//42 59//42 56//42
f 55//41 56//41 59//41
f 20//10 58//10 56//10
f 57//3 9//3 59//3
f 60//41 55//41 59//41
f 59//3 9//3 60//3
f 60//3 9//3 62//3
f 61//43 55//43 60//43
f 60//44 62//44 61//44
f 63//3 62//3 9//3
f 66//3 62//3 63//3
f 61//45 62//45 64//45
f 67//3 64//3 62//3
f 62//3 65//3 42//3
f 65//3 62//3 66//3
f 40//3 67//3 62//3
f 62//3 42//3 40//3
f 67//3 37//3 34//3
f 34//3 33//3 67//3
f 40//3 37//3 67//3
f 68//3 64//3 67//3
f 67//3 71//3 68//3
f 72//3 5//3 67//3
f 70//46 67//46 5//46
f 70//47 69//47 67//47
f 69//48 71//48 67//48
f 33//3 72//3 67//3
f 72//3 4//3 5//3
f 26//49 4//49 72//49
f 28//50 72//50 33//50
f 72//50 28//50 26//50
f 73//3 68//3 71//3
f 71//3 75//3 73//3
f 74//51 75//51 71//51
f 71//51 76//51 74//51
f 69//52 76//52 71//52
f 77//10 74//10 76//10
f 76//10 78//10 77//10
f 79//10 78//10 76//10
f 76//10 80//10 79//10
f 76//10 69//10 80//10
f 79//10 80//10 81//10
f 80//10 83//10 81//10
f 47//10 80//10 69//10
f 82//10 80//10 47//10
f 80//10 82//10 83//10
f 81//53 83//53 73//53
f 68//54 73//54 83//54
f 83//54 82//54 68//54
f 85//55 84//55 82//55
f 84//55 68//55 82//55
f 82//10 47//10 85//10
f 84//56 85//56 49//56
f 85//10 47//10 49//10
f 84//55 64//55 68//55
f 64//57 84//57 61//57
f 49//56 86//56 84//56
f 84//10 86//10 52//10
f 52//10 61//10 84//10
f 52//39 86//39 49//39
f 81//10 87//10 88//10
f 87//58 81//58 89//58
f 81//10 88//10 79//10
f 73//53 89//53 81//53
f 89//3 73//3 75//3
f 75//3 91//3 89//3
f 89//58 90//58 87//58
f 90//3 89//3 91//3
f 91//59 92//59 94//59
f 92//60 91//60 75//60
f 91//3 93//3 90//3
f 94//59 93//59 91//59
f 96//10 94//10 92//10
f 93//61 94//61 95//61
f 94//10 96//10 95//10
f 96//39 97//39 88//39
f 97//39 96//39 100//39
f 96//10 88//10 87//10
f 92//10 98//10 96//10
f 98//62 100//62 96//62
f 95//10 96//10 99//10
f 87//10 99//10 96//10
f 100//63 101//63 97//63
f 101//64 100//64 103//64
f 100//65 98//65 102//65
f 102//65 103//65 100//65
f 103//65 102//65 104//65
f 105//66 103//66 104//66
f 103//66 105//66 101//66
f 106//67 101//67 105//67
f 104//68 106//68 105//68
f 106//68 104//68 102//68
f 102//69 79//69 106//69
f 101//67 106//67 97//67
f 79//67 97//67 106//67
f 79//69 102//69 98//69
f 107//10 95//10 99//10
f 107//70 99//70 108//70
f 99//71 87//71 90//71
f 90//71 108//71 99//71
f 108//3 90//3 93//3
f 93//3 109//3 108//3
f 110//3 108//3 109//3
f 108//70 110//70 107//70
f 114//3 111//3 110//3
f 110//72 111//72 112//72
f 112//72 107//72 110//72
f 115//3 113//3 110//3
f 114//3 110//3 113//3
f 109//3 115//3 110//3
f 115//3 118//3 116//3
f 115//3 116//3 120//3
f 115//73 117//73 119//73
f 117//74 115//74 109//74
f 119//73 118//73 115//73
f 120//3 121//3 115//3
f 115//3 121//3 122//3
f 115//3 122//3 113//3
f 122//1 124//1 123//1
f 123//75 113//75 122//75
f 124//1 122//1 121//1
f 124//16 126//16 123//16
f 125//76 127//76 124//76
f 121//2 125//2 124//2
f 126//77 124//77 127//77
f 128//10 117//10 127//10
f 127//78 125//78 128//78
f 117//10 126//10 127//10
f 129//20 128//20 125//20
f 128//79 129//79 130//79
f 117//10 128//10 130//10
f 130//22 131//22 132//22
f 131//80 130//80 129//80
f 117//10 130//10 119//10
f 119//10 130//10 132//10
f 119//10 132//10 134//10
f 133//81 132//81 131//81
f 132//25 133//25 134//25
f 119//10 134//10 136//10
f 135//82 134//82 133//82
f 134//82 135//82 136//82
f 137//10 119//10 136//10
f 136//83 138//83 137//83
f 138//83 136//83 135//83
f 139//84 138//84 135//84
f 138//84 139//84 140//84
f 141//32 137//32 138//32
f 140//85 141//85 138//85
f 142//86 144//86 141//86
f 143//87 142//87 141//87
f 141//33 140//33 143//33
f 137//88 141//88 144//88
f 145//10 144//10 146//10
f 145//10 137//10 144//10
f 144//89 142//89 146//89
f 146//10 147//10 145//10
f 146//90 148//90 147//90
f 148//91 146//91 142//91
f 149//92 147//92 148//92
f 151//93 149//93 148//93
f 148//94 150//94 151//94
f 150//94 148//94 142//94
f 153//3 151//3 152//3
f 151//3 150//3 152//3
f 149//93 151//93 153//93
f 153//3 156//3 154//3
f 155//95 153//95 154//95
f 153//95 155//95 149//95
f 153//3 152//3 156//3
f 158//96 157//96 156//96
f 111//97 156//97 157//97
f 111//3 154//3 156//3
f 156//96 159//96 158//96
f 159//3 156//3 152//3
f 162//98 158//98 159//98
f 152//3 160//3 159//3
f 161//3 159//3 160//3
f 159//98 161//98 162//98
f 166//99 162//99 161//99
f 158//10 162//10 163//10
f 163//10 162//10 164//10
f 165//10 164//10 162//10
f 162//10 166//10 165//10
f 161//99 168//99 166//99
f 167//10 165//10 166//10
f 166//10 169//10 167//10
f 169//100 166//100 168//100
f 171//101 169//101 170//101
f 168//100 170//100 169//100
f 169//10 171//10 167//10
f 171//10 173//10 167//10
f 170//101 172//101 171//101
f 173//102 171//102 172//102
f 167//10 173//10 177//10
f 173//103 174//103 176//103
f 174//13 173//13 175//13
f 175//102 173//102 172//102
f 176//10 177//10 173//10
f 178//10 177//10 176//10
f 180//10 177//10 178//10
f 179//10 184//10 177//10
f 177//10 180//10 179//10
f 177//104 185//104 181//104
f 181//104 182//104 177//104
f 182//10 183//10 177//10
f 177//10 183//10 167//10
f 177//105 184//105 186//105
f 186//105 185//105 177//105
f 187//106 186//106 184//106
f 186//3 187//3 189//3
f 186//3 188//3 185//3
f 189//3 188//3 186//3
f 189//3 190//3 197//3
f 189//3 187//3 190//3
f 196//3 191//3 189//3
f 191//3 201//3 189//3
f 189//107 195//107 188//107
f 192//108 189//108 200//108
f 195//67 189//67 192//67
f 189//3 193//3 200//3
f 194//109 193//109 189//109
f 201//3 194//3 189//3
f 198//3 196//3 189//3
f 199//3 189//3 197//3
f 199//3 198//3 189//3
f 202//110 194//110 201//110
f 203//50 201//50 191//50
f 201//50 203//50 202//50
f 204//111 203//111 205//111
f 203//112 204//112 202//112
f 206//113 205//113 203//113
f 191//26 206//26 203//26
f 207//114 208//114 206//114
f 196//27 207//27 206//27
f 205//115 206//115 208//115
f 206//26 191//26 196//26
f 209//10 205//10 208//10
f 209//10 208//10 210//10
f 208//114 207//114 210//114
f 210//116 211//116 212//116
f 211//117 210//117 207//117
f 209//10 210//10 212//10
f 212//10 213//10 215//10
f 212//118 214//118 213//118
f 214//119 212//119 211//119
f 212//10 215//10 209//10
f 219//10 215//10 216//10
f 216//10 215//10 218//10
f 199//120 215//120 217//120
f 215//121 199//121 197//121
f 219//10 217//10 215//10
f 197//121 209//121 215//121
f 213//10 218//10 215//10
f 219//10 221//10 217//10
f 216//122 220//122 219//122
f 222//123 219//123 220//123
f 219//124 222//124 221//124
f 223//125 222//125 220//125
f 222//125 223//125 224//125
f 224//126 225//126 222//126
f 225//127 221//127 222//127
f 225//126 224//126 226//126
f 226//6 227//6 225//6
f 227//128 228//128 225//128
f 221//127 225//127 228//127
f 221//10 228//10 217//10
f 229//10 217//10 228//10
f 228//129 227//129 229//129
f 230//10 217//10 229//10
f 229//130 231//130 230//130
f 231//131 229//131 227//131
f 232//132 230//132 231//132
f 234//133 232//133 231//133
f 231//5 233//5 234//5
f 233//5 231//5 227//5
f 233//3 200//3 234//3
f 200//3 235//3 234//3
f 232//133 234//133 235//133
f 193//109 235//109 200//109
f 236//1 235//1 193//1
f 235//1 236//1 232//1
f 237//134 236//134 238//134
f 236//135 237//135 232//135
f 239//136 238//136 236//136
f 193//2 239//2 236//2
f 194//110 202//110 239//110
f 239//2 193//2 194//2
f 202//137 240//137 239//137
f 238//138 239//138 240//138
f 240//137 202//137 204//137
f 179//10 240//10 204//10
f 240//10 179//10 238//10
f 238//10 241//10 237//10
f 238//10 179//10 241//10
f 241//10 230//10 237//10
f 241//10 217//10 230//10
f 241//10 244//10 242//10
f 217//10 241//10 242//10
f 243//139 241//139 245//139
f 244//10 241//10 243//10
f 246//140 245//140 241//140
f 241//141 179//141 246//141
f 247//142 246//142 179//142
f 246//66 247//66 245//66
f 247//66 248//66 245//66
f 249//143 248//143 247//143
f 249//144 247//144 180//144
f 179//145 180//145 247//145
f 243//10 249//10 250//10
f 249//10 178//10 250//10
f 249//146 243//146 248//146
f 249//10 180//10 178//10
f 244//10 243//10 250//10
f 250//107 251//107 255//107
f 252//39 251//39 250//39
f 250//39 178//39 252//39
f 253//10 244//10 250//10
f 253//10 250//10 254//10
f 255//67 254//67 250//67
f 258//69 254//69 255//69
f 257//147 255//147 256//147
f 256//107 255//107 251//107
f 255//69 257//69 258//69
f 254//10 258//10 260//10
f 258//10 178//10 259//10
f 178//62 258//62 257//62
f 259//10 260//10 258//10
f 260//10 262//10 254//10
f 260//60 259//60 263//60
f 262//148 260//148 261//148
f 263//60 261//60 260//60
f 263//3 264//3 265//3
f 264//149 263//149 259//149
f 263//3 265//3 266//3
f 263//3 266//3 261//3
f 266//3 267//3 268//3
f 267//150 266//150 269//150
f 261//3 266//3 268//3
f 253//151 266//151 265//151
f 266//152 253//152 269//152
f 269//10 253//10 254//10
f 270//10 269//10 254//10
f 269//150 270//150 267//150
f 271//153 267//153 270//153
f 270//153 272//153 271//153
f 272//10 270//10 254//10
f 273//10 272//10 279//10
f 271//154 272//154 273//154
f 272//10 262//10 274//10
f 272//10 274//10 276//10
f 272//10 254//10 262//10
f 276//10 275//10 272//10
f 275//10 278//10 272//10
f 278//10 277//10 272//10
f 277//10 279//10 272//10
f 273//10 279//10 280//10
f 279//155 281//155 280//155
f 281//155 279//155 282//155
f 277//156 282//156 279//156
f 282//126 283//126 284//126
f 283//126 282//126 285//126
f 284//157 281//157 282//157
f 282//156 277//156 285//156
f 285//158 286//158 283//158
f 286//159 285//159 287//159
f 285//160 278//160 287//160
f 278//161 285//161 277//161
f 287//162 288//162 286//162
f 288//162 287//162 289//162
f 287//163 275//163 289//163
f 275//164 287//164 278//164
f 289//165 290//165 288//165
f 290//165 289//165 291//165
f 276//166 289//166 275//166
f 289//166 276//166 291//166
f 274//167 291//167 276//167
f 291//168 274//168 292//168
f 293//169 291//169 292//169
f 291//169 293//169 290//169
f 271//3 290//3 293//3
f 294//3 271//3 293//3
f 292//170 294//170 293//170
f 271//3 294//3 295//3
f 294//3 297//3 295//3
f 296//171 297//171 294//171
f 294//170 292//170 296//170
f 297//3 299//3 295//3
f 297//171 296//171 298//171
f 298//27 299//27 297//27
f 299//3 301//3 295//3
f 300//172 301//172 299//172
f 299//27 298//27 300//27
f 301//3 302//3 295//3
f 301//172 300//172 304//172
f 301//3 303//3 302//3
f 304//173 303//173 301//173
f 303//173 304//173 305//173
f 304//174 306//174 305//174
f 306//175 304//175 307//175
f 300//176 307//176 304//176
f 309//10 308//10 307//10
f 307//10 308//10 306//10
f 307//177 300//177 309//177
f 298//178 309//178 300//178
f 310//10 308//10 309//10
f 309//178 298//178 310//178
f 311//10 308//10 310//10
f 296//179 310//179 298//179
f 310//179 296//179 311//179
f 308//10 311//10 274//10
f 311//180 292//180 274//180
f 292//181 311//181 296//181
f 262//10 308//10 274//10
f 273//10 312//10 308//10
f 306//10 308//10 312//10
f 313//182 308//182 295//182
f 268//183 295//183 308//183
f 308//10 313//10 273//10
f 308//183 262//183 268//183
f 313//10 314//10 315//10
f 314//73 313//73 302//73
f 295//182 302//182 313//182
f 313//10 315//10 273//10
f 315//184 317//184 316//184
f 316//184 273//184 315//184
f 317//185 315//185 318//185
f 314//10 318//10 315//10
f 321//10 319//10 318//10
f 322//186 318//186 319//186
f 318//185 322//185 317//185
f 314//10 320//10 318//10
f 318//10 320//10 321//10
f 317//3 322//3 324//3
f 319//186 325//186 322//186
f 323//3 324//3 322//3
f 322//3 325//3 323//3
f 328//3 323//3 325//3
f 325//187 319//187 327//187
f 325//3 326//3 328//3
f 327//187 326//187 325//187
f 329//3 328//3 326//3
f 328//188 329//188 330//188
f 330//188 331//188 328//188
f 323//189 328//189 331//189
f 331//10 330//10 332//10
f 332//10 321//10 331//10
f 331//189 321//189 323//189
f 336//10 332//10 330//10
f 321//10 332//10 333//10
f 332//39 334//39 333//39
f 334//39 332//39 335//39
f 336//62 335//62 332//62
f 337//10 336//10 20//10
f 58//10 20//10 336//10
f 330//10 58//10 336//10
f 337//69 338//69 336//69
f 335//65 336//65 338//65
f 341//190 339//190 338//190
f 340//65 338//65 339//65
f 338//62 340//62 335//62
f 338//69 337//69 341//69
f 337//67 334//67 341//67
f 342//67 341//67 334//67
f 341//67 342//67 343//67
f 339//190 341//190 343//190
f 340//66 343//66 342//66
f 343//191 340//191 339//191
f 335//64 342//64 334//64
f 342//64 335//64 340//64
f 334//107 337//107 333//107
f 327//10 333//10 337//10
f 337//10 345//10 327//10
f 20//10 344//10 337//10
f 344//10 345//10 337//10
f 326//192 327//192 345//192
f 345//192 346//192 326//192
f 346//193 345//193 344//193
f 57//3 346//3 347//3
f 344//194 347//194 346//194
f 57//3 326//3 346//3
f 347//195 344//195 20//195
f 20//196 19//196 347//196
f 57//3 347//3 19//3
f 319//10 333//10 327//10
f 319//10 321//10 333//10
f 58//197 330//197 329//197
f 57//3 329//3 326//3
f 329//197 57//197 58//197
f 321//198 320//198 324//198
f 324//198 323//198 321//198
f 348//199 324//199 320//199
f 324//3 348//3 317//3
f 302//73 348//73 314//73
f 348//3 302//3 316//3
f 316//3 317//3 348//3
f 320//199 314//199 348//199
f 283//3 316//3 284//3
f 316//3 353//3 284//3
f 273//154 316//154 271//154
f 283//3 271//3 316//3
f 316//3 302//3 349//3
f 316//3 349//3 350//3
f 350//3 351//3 316//3
f 351//3 352//3 316//3
f 352//3 353//3 316//3
f 281//157 284//157 353//157
f 354//5 353//5 352//5
f 353//5 354//5 281//5
f 352//200 355//200 354//200
f 354//201 280//201 281//201
f 355//202 356//202 354//202
f 280//201 354//201 356//201
f 357//10 273//10 356//10
f 356//203 355//203 357//203
f 356//10 273//10 280//10
f 358//10 273//10 357//10
f 357//204 359//204 358//204
f 359//205 357//205 355//205
f 351//1 359//1 355//1
f 350//206 360//206 359//206
f 359//1 351//1 350//1
f 360//207 358//207 359//207
f 360//206 350//206 349//206
f 349//49 305//49 360//49
f 305//208 312//208 360//208
f 358//209 360//209 312//209
f 273//10 358//10 312//10
f 355//200 352//200 351//200
f 303//3 349//3 302//3
f 305//49 349//49 303//49
f 312//210 305//210 306//210
f 267//3 271//3 295//3
f 267//3 295//3 268//3
f 290//3 271//3 288//3
f 288//3 271//3 286//3
f 286//3 271//3 283//3
f 261//148 268//148 262//148
f 244//211 265//211 361//211
f 362//3 361//3 265//3
f 264//3 363//3 265//3
f 265//212 244//212 253//212
f 174//3 362//3 265//3
f 174//3 265//3 363//3
f 176//213 363//213 364//213
f 364//214 363//214 264//214
f 363//215 176//215 174//215
f 364//214 264//214 365//214
f 178//10 176//10 364//10
f 365//10 178//10 364//10
f 365//10 259//10 178//10
f 259//149 365//149 264//149
f 174//3 366//3 362//3
f 366//216 367//216 362//216
f 368//3 361//3 362//3
f 367//217 368//217 362//217
f 369//218 361//218 368//218
f 368//219 370//219 369//219
f 368//220 367//220 370//220
f 371//221 369//221 370//221
f 372//222 371//222 370//222
f 373//223 370//223 367//223
f 370//224 373//224 372//224
f 367//225 366//225 373//225
f 374//226 372//226 373//226
f 195//227 373//227 366//227
f 373//228 195//228 374//228
f 376//67 374//67 375//67
f 195//107 375//107 374//107
f 374//67 376//67 377//67
f 372//229 374//229 377//229
f 379//230 377//230 378//230
f 377//231 376//231 378//231
f 372//232 377//232 379//232
f 371//233 372//233 379//233
f 380//234 379//234 381//234
f 379//234 380//234 371//234
f 379//234 378//234 381//234
f 381//235 378//235 382//235
f 383//236 381//236 382//236
f 381//237 383//237 380//237
f 382//238 384//238 383//238
f 384//239 385//239 383//239
f 383//240 386//240 380//240
f 383//241 385//241 386//241
f 380//242 386//242 371//242
f 371//243 386//243 369//243
f 385//244 388//244 386//244
f 387//245 386//245 388//245
f 386//245 387//245 369//245
f 244//246 387//246 388//246
f 242//247 244//247 388//247
f 389//248 242//248 388//248
f 388//244 385//244 389//244
f 389//249 390//249 391//249
f 390//250 389//250 385//250
f 391//251 242//251 389//251
f 391//3 390//3 392//3
f 391//3 392//3 393//3
f 391//252 393//252 242//252
f 393//3 392//3 200//3
f 242//253 393//253 394//253
f 394//3 393//3 200//3
f 199//3 394//3 224//3
f 217//120 394//120 199//120
f 394//253 217//253 242//253
f 233//3 394//3 200//3
f 224//3 394//3 226//3
f 226//3 394//3 233//3
f 392//254 395//254 200//254
f 395//255 392//255 396//255
f 396//256 392//256 390//256
f 396//257 397//257 395//257
f 397//258 396//258 384//258
f 390//259 384//259 396//259
f 384//260 382//260 397//260
f 376//261 395//261 397//261
f 382//262 376//262 397//262
f 395//263 376//263 375//263
f 375//264 200//264 395//264
f 385//265 384//265 390//265
f 361//266 387//266 244//266
f 361//267 369//267 387//267
f 382//268 378//268 376//268
f 200//269 375//269 192//269
f 375//67 195//67 192//67
f 188//3 366//3 174//3
f 188//270 195//270 366//270
f 256//271 398//271 257//271
f 257//65 252//65 178//65
f 252//65 257//65 398//65
f 400//66 399//66 398//66
f 398//65 399//65 252//65
f 398//66 256//66 400//66
f 399//272 400//272 251//272
f 251//67 400//67 256//67
f 251//272 252//272 399//272
f 245//273 248//273 243//273
f 230//274 232//274 237//274
f 227//6 226//6 233//6
f 223//3 199//3 224//3
f 401//3 199//3 223//3
f 220//275 401//275 223//275
f 403//3 199//3 401//3
f 401//275 220//275 402//275
f 402//94 403//94 401//94
f 199//3 403//3 405//3
f 403//94 402//94 404//94
f 404//276 405//276 403//276
f 405//276 404//276 214//276
f 214//33 406//33 405//33
f 199//3 405//3 406//3
f 199//3 406//3 198//3
f 211//84 198//84 406//84
f 406//85 214//85 211//85
f 404//277 213//277 214//277
f 213//278 404//278 218//278
f 402//279 218//279 404//279
f 218//280 402//280 216//280
f 220//122 216//122 402//122
f 198//84 211//84 207//84
f 179//10 209//10 407//10
f 209//10 408//10 407//10
f 209//281 197//281 190//281
f 190//281 408//281 209//281
f 179//10 204//10 209//10
f 204//10 205//10 209//10
f 407//282 408//282 190//282
f 184//10 179//10 407//10
f 184//106 407//106 187//106
f 190//282 187//282 407//282
f 207//27 196//27 198//27
f 185//3 188//3 174//3
f 185//3 175//3 172//3
f 185//3 172//3 170//3
f 185//3 174//3 175//3
f 181//3 185//3 170//3
f 409//65 410//65 183//65
f 183//62 164//62 409//62
f 411//10 164//10 183//10
f 167//39 183//39 410//39
f 183//10 182//10 411//10
f 163//10 164//10 411//10
f 160//189 163//189 411//189
f 412//188 411//188 182//188
f 411//189 412//189 160//189
f 160//3 412//3 161//3
f 182//188 181//188 412//188
f 168//3 161//3 412//3
f 412//3 181//3 168//3
f 413//65 414//65 410//65
f 410//65 409//65 413//65
f 415//272 410//272 414//272
f 410//39 415//39 167//39
f 417//107 416//107 415//107
f 167//107 415//107 416//107
f 415//67 418//67 417//67
f 414//272 418//272 415//272
f 413//66 417//66 418//66
f 418//66 414//66 413//66
f 409//271 416//271 417//271
f 417//271 413//271 409//271
f 416//67 165//67 167//67
f 164//69 165//69 416//69
f 416//69 409//69 164//69
f 170//3 168//3 181//3
f 112//10 163//10 145//10
f 152//283 145//283 163//283
f 163//283 160//283 152//283
f 157//10 158//10 163//10
f 112//10 157//10 163//10
f 157//97 112//97 111//97
f 155//284 419//284 149//284
f 419//284 155//284 420//284
f 421//11 420//11 155//11
f 154//126 421//126 155//126
f 422//285 423//285 421//285
f 424//6 422//6 421//6
f 420//11 421//11 423//11
f 421//126 154//126 424//126
f 111//3 424//3 154//3
f 424//3 111//3 114//3
f 422//6 424//6 114//6
f 423//10 112//10 420//10
f 423//10 425//10 112//10
f 423//286 422//286 425//286
f 425//8 426//8 427//8
f 426//287 425//287 422//287
f 425//10 107//10 112//10
f 425//10 427//10 107//10
f 123//288 427//288 426//288
f 427//289 123//289 126//289
f 427//10 126//10 107//10
f 426//5 114//5 113//5
f 114//5 426//5 422//5
f 113//133 123//133 426//133
f 420//10 112//10 419//10
f 112//10 147//10 419//10
f 147//290 149//290 419//290
f 152//3 150//3 143//3
f 140//3 118//3 152//3
f 145//199 152//199 118//199
f 152//3 143//3 140//3
f 142//87 143//87 150//87
f 112//10 145//10 147//10
f 137//10 145//10 119//10
f 118//199 119//199 145//199
f 140//3 139//3 118//3
f 118//3 139//3 428//3
f 135//27 428//27 139//27
f 118//3 428//3 429//3
f 133//26 429//26 428//26
f 428//27 135//27 133//27
f 429//26 133//26 131//26
f 131//50 116//50 429//50
f 118//3 429//3 116//3
f 116//50 131//50 129//50
f 129//110 120//110 116//110
f 120//110 129//110 125//110
f 117//10 107//10 126//10
f 125//2 121//2 120//2
f 107//10 117//10 95//10
f 109//74 95//74 117//74
f 95//61 109//61 93//61
f 98//10 78//10 79//10
f 78//10 98//10 77//10
f 92//10 77//10 98//10
f 97//107 79//107 88//107
f 74//10 77//10 92//10
f 75//60 74//60 92//60
f 5//46 21//46 70//46
f 70//10 21//10 29//10
f 70//10 29//10 69//10
f 69//10 29//10 47//10
f 46//165 65//165 66//165
f 430//93 66//93 63//93
f 66//93 430//93 46//93
f 48//291 430//291 53//291
f 431//292 53//292 430//292
f 430//293 48//293 46//293
f 63//294 431//294 430//294
f 53//295 431//295 17//295
f 14//11 17//11 431//11
f 432//296 14//296 431//296
f 431//294 63//294 432//294
f 63//3 9//3 432//3
f 9//3 12//3 432//3
f 14//296 432//296 12//296
f 43//34 42//34 65//34
f 65//165 46//165 43//165
f 55//10 61//10 52//10
f 57//3 19//3 9//3
f 52//10 51//10 55//10
f 53//10 17//10 20//10
f 29//10 36//10 39//10
f 29//10 31//10 36//10
f 4//49 26//49 3//49
f 21//13 5//13 9//13
