# Blender 5.0.1
# www.blender.org
mtllib left_shoulder_x_link_visual_8.mtl
o i01..leftArm.shoulder.full.011_visual.001
v 0.002020 0.000155 0.002356
v 0.001097 0.000130 0.001972
v -0.002020 -0.000155 -0.002355
v -0.001768 -0.000093 -0.001410
v -0.001415 -0.000036 -0.000551
v -0.000956 0.000015 0.000221
v 0.000297 0.000098 0.001485
v -0.000386 0.000059 0.000900
vn -0.0000 -0.9978 0.0656
vn -0.0001 -0.9978 0.0657
vn 0.0001 -0.9979 0.0655
vn 0.0001 -0.9978 0.0656
s 0
usemtl Material.239
f 2//1 4//1 1//1
f 4//2 3//2 1//2
f 5//3 4//3 2//3
f 6//1 5//1 7//1
f 7//4 5//4 2//4
f 6//1 7//1 8//1
