# Blender 5.0.1
# www.blender.org
mtllib left_shoulder_x_link_visual_0.mtl
o i01..leftArm.shoulder.full.001_visual.001
v -0.000000 0.038559 -0.058472
v -0.000000 0.042237 -0.002541
v 0.021450 0.038839 -0.054214
v -0.021450 0.038839 -0.054214
v -0.000000 -0.038766 -0.053388
v -0.021450 -0.038486 -0.049130
v 0.021450 -0.038486 -0.049130
v 0.016781 -0.037747 -0.037884
v 0.031008 -0.037123 -0.028399
v 0.039634 -0.037689 -0.037006
v 0.051785 -0.036496 -0.018861
v 0.039634 0.039636 -0.042089
v 0.040514 -0.036190 -0.014204
v 0.043852 -0.035088 0.002542
v 0.040514 -0.044138 -0.013680
v 0.043852 -0.043037 0.003066
v 0.040514 -0.041936 0.019810
v -0.000000 -0.043037 0.003066
v 0.016781 -0.045695 -0.037360
v -0.000000 -0.045914 -0.040691
v 0.031008 -0.045072 -0.027876
v 0.031008 -0.041003 0.034006
v 0.016781 -0.040379 0.043492
v 0.000000 -0.040160 0.046823
v -0.016781 -0.040379 0.043492
v -0.031008 -0.041003 0.034006
v -0.040514 -0.041936 0.019810
v -0.043852 -0.043037 0.003066
v -0.040514 -0.044138 -0.013680
v -0.031008 -0.045072 -0.027876
v -0.016781 -0.045695 -0.037360
v -0.016781 -0.037747 -0.037884
v -0.000000 -0.037965 -0.041214
v -0.031008 -0.037123 -0.028399
v -0.040514 -0.036189 -0.014202
v -0.039634 -0.037689 -0.037006
v -0.039634 0.039636 -0.042089
v -0.051784 -0.036496 -0.018861
v -0.056051 -0.035088 0.002542
v -0.051785 0.040829 -0.023943
v -0.043852 -0.035088 0.002542
v -0.040514 -0.033987 0.019287
v -0.051784 -0.033681 0.023945
v -0.039634 -0.032488 0.042090
v -0.051784 0.043644 0.018863
v -0.056051 0.042237 -0.002541
v -0.039634 0.044837 0.037006
v -0.021450 0.045634 0.049131
v -0.021450 -0.031691 0.054215
v -0.016781 -0.032430 0.042970
v -0.031008 -0.033054 0.033484
v -0.000000 -0.031411 0.058472
v 0.021450 -0.031691 0.054215
v 0.000000 0.045914 0.053389
v 0.000000 -0.032211 0.046300
v 0.021450 0.045634 0.049131
v 0.016781 -0.032430 0.042970
v 0.031008 -0.033054 0.033484
v 0.040514 -0.033988 0.019287
v 0.039634 -0.032488 0.042090
v 0.051785 -0.033681 0.023945
v 0.039634 0.044837 0.037006
v 0.051785 0.043644 0.018863
v 0.056051 0.042237 -0.002541
v 0.051785 0.040829 -0.023944
v 0.056051 -0.035088 0.002542
vn -0.0000 0.9978 -0.0656
vn 0.1951 -0.0643 -0.9787
vn -0.1951 -0.0643 -0.9787
vn -0.0000 -0.9978 0.0656
vn 0.5556 -0.0546 -0.8297
vn 0.8315 -0.0364 -0.5544
vn 0.5556 -0.0545 -0.8297
vn 0.8314 -0.0365 -0.5544
vn 0.9808 -0.0128 -0.1947
vn 0.9808 0.0128 0.1947
vn -0.1951 -0.0645 -0.9787
vn -0.5555 -0.0547 -0.8297
vn 0.1951 -0.0645 -0.9787
vn -0.5556 -0.0545 -0.8297
vn -0.8315 -0.0364 -0.5544
vn -0.5556 -0.0546 -0.8297
vn -0.9808 -0.0128 -0.1947
vn -0.8315 -0.0364 -0.5543
vn -0.9808 0.0128 0.1947
vn -0.8315 0.0364 0.5544
vn -0.8314 0.0365 0.5544
vn -0.5556 0.0545 0.8297
vn -0.1950 0.0643 0.9787
vn 0.1950 0.0643 0.9787
vn -0.1951 0.0643 0.9787
vn 0.1951 0.0643 0.9787
vn 0.5556 0.0545 0.8297
vn 0.8315 0.0364 0.5544
vn 0.5555 -0.0547 -0.8297
s 0
usemtl Material.390
f 4//1 2//1 1//1
f 2//1 3//1 1//1
f 1//2 3//2 7//2
f 1//3 6//3 4//3
f 1//2 7//2 5//2
f 1//3 5//3 6//3
f 7//4 9//4 8//4
f 5//4 7//4 8//4
f 7//4 10//4 9//4
f 3//5 10//5 7//5
f 12//6 11//6 10//6
f 10//4 11//4 13//4
f 3//7 12//7 10//7
f 10//4 13//4 9//4
f 9//8 13//8 15//8
f 11//4 14//4 13//4
f 13//9 14//9 16//9
f 13//9 16//9 15//9
f 14//10 17//10 16//10
f 18//4 16//4 17//4
f 18//4 15//4 16//4
f 18//4 19//4 21//4
f 18//4 20//4 19//4
f 18//4 31//4 20//4
f 18//4 21//4 15//4
f 18//4 17//4 22//4
f 18//4 22//4 23//4
f 18//4 23//4 24//4
f 18//4 24//4 25//4
f 18//4 25//4 26//4
f 18//4 26//4 27//4
f 18//4 27//4 28//4
f 18//4 28//4 29//4
f 18//4 29//4 30//4
f 18//4 30//4 31//4
f 33//11 31//11 32//11
f 32//12 31//12 30//12
f 33//3 20//3 31//3
f 5//4 8//4 33//4
f 33//13 8//13 19//13
f 5//4 33//4 32//4
f 33//2 19//2 20//2
f 32//14 30//14 34//14
f 6//4 32//4 34//4
f 5//4 32//4 6//4
f 34//15 29//15 35//15
f 36//4 34//4 35//4
f 34//15 30//15 29//15
f 6//4 34//4 36//4
f 36//16 4//16 6//16
f 38//15 37//15 36//15
f 36//14 37//14 4//14
f 36//4 35//4 38//4
f 38//4 41//4 39//4
f 39//17 40//17 38//17
f 38//18 40//18 37//18
f 38//4 35//4 41//4
f 41//19 27//19 42//19
f 43//4 41//4 42//4
f 43//4 39//4 41//4
f 35//17 28//17 41//17
f 41//19 28//19 27//19
f 43//19 46//19 39//19
f 44//20 45//20 43//20
f 44//4 43//4 42//4
f 43//19 45//19 46//19
f 2//1 46//1 45//1
f 2//1 40//1 46//1
f 39//17 46//17 40//17
f 44//21 47//21 45//21
f 2//1 45//1 47//1
f 49//22 48//22 47//22
f 2//1 47//1 48//1
f 49//22 47//22 44//22
f 49//4 44//4 51//4
f 49//4 51//4 50//4
f 52//4 49//4 50//4
f 52//23 48//23 49//23
f 52//4 57//4 53//4
f 56//24 52//24 53//24
f 52//25 54//25 48//25
f 56//26 54//26 52//26
f 52//4 50//4 55//4
f 52//4 55//4 57//4
f 58//27 57//27 23//27
f 53//4 57//4 58//4
f 57//26 55//26 24//26
f 57//26 24//26 23//26
f 59//28 58//28 22//28
f 60//4 58//4 59//4
f 58//27 23//27 22//27
f 53//4 58//4 60//4
f 60//4 59//4 61//4
f 63//28 60//28 61//28
f 62//27 53//27 60//27
f 63//28 62//28 60//28
f 64//10 63//10 61//10
f 2//1 63//1 64//1
f 2//1 62//1 63//1
f 65//9 64//9 66//9
f 2//1 64//1 65//1
f 64//10 61//10 66//10
f 65//9 66//9 11//9
f 11//4 66//4 14//4
f 61//4 14//4 66//4
f 12//6 65//6 11//6
f 2//1 65//1 12//1
f 2//1 56//1 62//1
f 62//27 56//27 53//27
f 61//4 59//4 14//4
f 14//10 59//10 17//10
f 59//28 22//28 17//28
f 2//1 54//1 56//1
f 50//25 24//25 55//25
f 2//1 48//1 54//1
f 51//22 25//22 50//22
f 44//4 42//4 51//4
f 42//20 26//20 51//20
f 51//22 26//22 25//22
f 50//25 25//25 24//25
f 42//20 27//20 26//20
f 2//1 37//1 40//1
f 2//1 4//1 37//1
f 35//17 29//17 28//17
f 9//6 15//6 21//6
f 8//5 9//5 21//5
f 8//29 21//29 19//29
f 2//1 12//1 3//1
