# Blender 5.0.1
# www.blender.org
mtllib left_elbow_x_link_visual_9.mtl
o i01.left.bicep.full.010_visual.001
v -0.066601 0.350123 0.112411
v -0.067617 0.349147 0.148231
v -0.071743 0.339105 0.113135
v 0.069482 0.342394 0.112920
v -0.067617 0.361878 0.111639
v -0.066601 0.360903 0.147459
v 0.066188 0.353727 0.112174
v 0.066536 0.359516 0.147551
v 0.069075 0.365531 0.111398
v 0.067838 0.347788 0.148321
v -0.072290 0.340781 0.148782
v 0.076689 0.336463 0.149067
v 0.075701 0.335098 0.113399
v 0.090354 0.331954 0.149364
v 0.086740 0.329968 0.113737
v -0.082114 0.333601 0.149254
v -0.141195 0.310072 0.150946
v -0.096468 0.332549 0.149322
v -0.080974 0.331731 0.113621
v -0.095258 0.329968 0.113737
v -0.106297 0.335097 0.113399
v -0.141195 0.307724 0.115226
v 0.141231 0.281692 -0.281239
v -0.112516 0.342394 0.112921
v -0.141379 0.281692 -0.281240
v 0.141416 0.307723 0.115226
v -0.141195 -0.307723 0.191569
v -0.141195 -0.310072 0.155848
v -0.141195 0.385744 0.110095
v -0.115462 0.351508 0.112320
v -0.114160 0.363237 0.111548
v -0.115462 0.359517 0.147551
v -0.114160 0.347788 0.148321
v -0.106964 0.337985 0.148966
v -0.112516 0.368631 0.146950
v -0.141195 0.388093 0.145815
v -0.104284 0.377587 0.146362
v 0.088988 0.381149 0.146133
v -0.083479 0.380045 0.146194
v 0.141416 0.385744 0.110095
v -0.093009 0.381149 0.146125
v 0.141415 0.388093 0.145815
v 0.112864 0.367873 0.146999
v 0.141416 0.310072 0.150946
v 0.115753 0.356068 0.147778
v 0.098522 0.380044 0.146200
v 0.106907 0.375381 0.146507
v 0.106240 0.373586 0.110868
v 0.112458 0.366291 0.111348
v 0.115753 0.354957 0.112093
v 0.112865 0.343152 0.112869
v 0.105252 0.334122 0.113463
v 0.112458 0.344735 0.148522
v 0.104226 0.335780 0.149111
v 0.095749 0.330371 0.113709
v 0.097697 0.377952 0.110580
v 0.085530 0.378476 0.110546
v -0.084301 0.377952 0.110579
v 0.077714 0.377586 0.146362
v 0.075033 0.373040 0.110905
v -0.073940 0.372263 0.110955
v 0.069482 0.368631 0.146951
v -0.073068 0.373734 0.146615
v -0.096468 0.378476 0.110545
v -0.106965 0.373040 0.110905
v 0.141415 -0.307723 0.191569
v 0.141415 -0.310072 0.155848
v 0.141275 0.190858 0.198956
v 0.141319 0.312693 0.190345
v 0.141431 -0.301628 0.280422
v -0.141383 -0.301629 0.280418
v 0.048007 -0.013247 0.261456
v 0.141228 0.193936 0.247833
v 0.048007 0.193807 0.247842
v 0.051051 0.193634 0.242990
v 0.051051 0.190736 0.198911
v 0.047555 0.216496 0.197167
v 0.049096 0.212579 0.241696
v 0.043126 0.229364 0.241101
v 0.046153 0.214328 0.246446
v 0.046956 0.212263 0.266426
v 0.040750 0.230120 0.244976
v 0.032393 0.242306 0.242041
v 0.026358 0.248656 0.264020
v 0.040588 0.231351 0.265158
v 0.022635 0.250552 0.240821
v 0.011919 0.255817 0.242096
v 0.005327 0.259339 0.263318
v 0.001032 0.259326 0.240244
v -0.058651 0.234178 0.264972
v -0.010612 0.260211 0.241807
v -0.016255 0.261152 0.263198
v -0.037058 0.255245 0.263587
v -0.021252 0.259395 0.241125
v -0.033590 0.255982 0.240464
v -0.028465 0.255382 0.194613
v -0.005766 0.257863 0.194448
v 0.012629 0.253248 0.194750
v 0.028103 0.244344 0.195336
v 0.039992 0.231231 0.196198
v -0.050990 0.243557 0.195383
v -0.141289 0.312690 0.190469
v -0.141335 0.229639 0.196377
v -0.141383 -0.013247 0.261456
v -0.141431 0.232533 0.240437
v -0.061400 0.229239 0.196329
v -0.141431 0.229634 0.196352
v -0.060449 0.232430 0.242037
v -0.051460 0.243361 0.244536
v -0.053817 0.243188 0.239683
v -0.043324 0.250482 0.242447
v -0.051460 0.244659 0.264282
v -0.141382 0.234175 0.265054
v -0.141383 -0.011946 0.281239
v 0.048007 -0.011946 0.281239
v -0.081836 -0.333612 0.157371
v 0.116031 -0.356080 0.158848
v 0.141415 -0.388093 0.160978
v 0.141231 -0.335891 -0.240629
v 0.111512 -0.342444 0.157951
v -0.141380 -0.335891 -0.240631
v 0.102461 -0.334847 0.157452
v 0.093227 -0.332228 0.157279
v 0.083694 -0.333335 0.157352
v 0.091864 -0.329624 0.192865
v 0.073288 -0.339643 0.157767
v 0.080035 -0.332506 0.193054
v 0.070985 -0.340103 0.193554
v -0.087910 -0.329971 0.192888
v -0.078774 -0.332913 0.193081
v -0.071463 -0.339117 0.193489
v -0.072011 -0.340793 0.157843
v -0.067339 -0.349159 0.158392
v -0.066323 -0.360914 0.159166
v 0.067587 -0.349982 0.158446
v -0.066323 -0.350134 0.194213
v 0.066814 -0.359528 0.159075
v 0.070300 -0.367580 0.195360
v 0.070985 -0.370945 0.159824
v 0.066466 -0.353738 0.194450
v -0.067339 -0.361889 0.194985
v -0.071464 -0.371931 0.159890
v -0.072011 -0.370255 0.195537
v -0.078777 -0.378136 0.160297
v -0.079537 -0.376200 0.195927
v -0.087910 -0.381076 0.160492
v -0.088769 -0.378819 0.196106
v 0.079275 -0.375795 0.195900
v 0.090632 -0.379082 0.196126
v 0.082334 -0.379777 0.160404
v 0.094088 -0.381076 0.160491
v 0.102462 -0.376201 0.195927
v 0.103222 -0.378136 0.160297
v 0.111512 -0.368604 0.195427
v 0.112197 -0.369922 0.159758
v 0.116031 -0.354968 0.194531
v 0.141415 -0.385744 0.196699
v 0.113143 -0.343164 0.193755
v 0.105530 -0.334134 0.193161
v -0.141195 -0.388093 0.160978
v -0.141195 -0.385744 0.196699
v -0.114161 -0.346818 0.193994
v -0.115269 -0.356330 0.194621
v -0.106687 -0.373051 0.195721
v -0.098303 -0.377713 0.196025
v -0.112644 -0.365543 0.195225
v -0.109488 -0.372597 0.159934
v -0.114936 -0.362123 0.159245
v -0.114411 -0.349982 0.158446
v -0.110036 -0.341458 0.157886
v -0.107838 -0.336432 0.193313
v -0.102725 -0.335253 0.157478
v -0.093590 -0.332313 0.157284
v -0.097476 -0.330743 0.192938
v -0.099664 -0.379777 0.160405
vn -0.9961 0.0844 -0.0260
vn -0.9065 0.4221 -0.0142
vn -0.0000 -0.0656 -0.9978
vn -0.0000 -0.0657 -0.9978
vn -0.0000 -0.0655 -0.9979
vn -0.9961 -0.0844 0.0260
vn 0.9714 -0.2357 0.0290
vn 0.9937 0.1085 -0.0275
vn 0.9602 0.2793 0.0020
vn -0.0000 0.0657 0.9978
vn -0.0000 0.0656 0.9978
vn 0.7884 0.6125 -0.0567
vn 0.7618 0.6462 -0.0459
vn 0.4221 0.9054 -0.0464
vn -0.0000 0.0658 0.9978
vn 0.3139 0.9457 -0.0846
vn -0.0000 0.0716 0.9974
vn -0.0006 0.0732 0.9973
vn -0.0732 0.9945 -0.0746
vn -0.5909 0.8044 -0.0611
vn -0.1227 0.9909 -0.0559
vn -0.0003 -0.0662 -0.9978
vn 0.4221 0.9051 -0.0513
vn 0.0002 -0.0671 -0.9977
vn -0.0000 0.9979 -0.0655
vn -1.0000 -0.0000 -0.0000
vn -0.0005 -0.0659 -0.9978
vn -1.0000 -0.0000 0.0005
vn -0.0000 -0.0668 -0.9978
vn -0.0000 -0.0667 -0.9978
vn -0.0010 -0.0656 -0.9978
vn -0.0009 -0.0655 -0.9978
vn 0.9938 -0.1087 0.0247
vn 0.9938 0.1087 -0.0247
vn 0.9516 0.3075 -0.0026
vn 0.8067 0.5887 -0.0522
vn 0.0026 0.0675 0.9977
vn 0.0047 0.0661 0.9978
vn 0.0017 0.0687 0.9976
vn 0.4606 0.8853 -0.0632
vn 0.7618 0.6467 -0.0382
vn 0.9516 -0.3074 0.0026
vn 0.0042 0.0644 0.9979
vn 0.0056 0.0656 0.9978
vn 0.0030 0.0627 0.9980
vn 0.0022 0.0597 0.9982
vn -0.0000 0.0475 0.9989
vn -0.0000 0.0458 0.9989
vn -0.0109 -0.0310 0.9995
vn -0.0000 0.9978 -0.0656
vn -0.0031 0.0629 0.9980
vn -0.0044 0.0647 0.9979
vn -0.0056 0.0656 0.9978
vn 1.0000 -0.0000 -0.0000
vn -0.0009 0.0526 0.9986
vn -0.0025 0.0612 0.9981
vn -0.7618 -0.6462 0.0468
vn -0.4868 -0.8719 0.0530
vn -0.7840 -0.6197 0.0364
vn -0.9604 -0.2777 0.0233
vn 0.0006 -0.0651 -0.9979
vn 0.0007 -0.0654 -0.9979
vn -0.9714 -0.2372 0.0074
vn -0.9714 0.2372 -0.0074
vn 0.0007 -0.0658 -0.9978
vn 0.0010 -0.0656 -0.9978
vn -0.9604 0.2777 -0.0233
vn 0.0004 -0.0660 -0.9978
vn -0.7652 0.6427 -0.0373
vn -0.0024 0.0678 0.9977
vn -0.7369 0.6739 -0.0525
vn -0.0037 0.0667 0.9978
vn -0.3678 0.9283 -0.0537
vn -0.0010 0.0698 0.9976
vn -0.2664 0.9603 -0.0829
vn -0.0448 0.9977 -0.0511
vn 0.0003 -0.0662 -0.9978
vn -0.0001 -0.0669 -0.9978
vn 0.0005 -0.0649 -0.9979
vn -0.4559 -0.8878 0.0627
vn 0.0001 -0.0628 -0.9980
vn -0.1154 -0.9915 0.0609
vn -0.0431 -0.9959 0.0790
vn -0.0000 -0.0658 -0.9978
vn -0.0000 -0.0621 -0.9981
vn -0.0000 -0.0619 -0.9981
vn 0.3019 -0.9524 0.0422
vn 0.4606 -0.8841 0.0785
vn -0.0000 -0.0659 -0.9978
vn 0.7369 -0.6753 0.0309
vn 0.7840 -0.6191 0.0450
vn 0.9517 -0.3066 0.0159
vn -0.0000 0.0665 0.9978
vn -0.5192 -0.8533 0.0479
vn -0.8933 -0.4493 0.0131
vn -0.8546 -0.5175 0.0422
vn -0.4821 -0.8739 0.0625
vn -0.0001 0.0643 0.9979
vn 0.0002 -0.0605 -0.9982
vn 0.3018 -0.9524 0.0422
vn -0.0005 -0.0650 -0.9979
vn -0.0006 -0.0651 -0.9979
vn 0.8067 -0.5887 0.0522
vn -0.0000 0.9978 -0.0664
vn -0.0000 0.0721 0.9974
vn 1.0000 -0.0000 -0.0002
vn 1.0000 -0.0002 0.0025
vn 1.0000 0.0014 0.0063
vn -0.0000 -0.9977 0.0684
vn 1.0000 0.0005 0.0009
vn -0.0014 0.9993 -0.0364
vn 0.0002 0.9978 -0.0656
vn -0.0013 0.9980 -0.0629
vn 0.9947 0.1022 -0.0067
vn -0.0006 0.0674 0.9977
vn 0.9909 0.1330 -0.0226
vn 0.8632 0.1226 0.4898
vn 0.9422 0.3350 -0.0031
vn 0.8538 0.3183 0.4119
vn 0.9957 0.0879 -0.0309
vn 0.9463 0.3233 -0.0046
vn 0.8328 0.3265 0.4470
vn 0.8435 0.1120 0.5253
vn 0.7365 0.5863 0.3373
vn 0.8167 0.5741 0.0584
vn 0.7730 0.6335 -0.0325
vn 0.9488 0.3158 -0.0117
vn 0.0014 0.0668 0.9978
vn 0.6479 0.7606 -0.0418
vn 0.4412 0.8974 0.0025
vn 0.4531 0.8914 -0.0072
vn 0.0003 0.0661 0.9978
vn -0.0001 0.0658 0.9978
vn 0.3153 0.9471 -0.0592
vn 0.0739 0.9972 -0.0143
vn 0.0838 0.9962 -0.0217
vn 0.0001 0.0655 0.9979
vn -0.2734 0.9618 -0.0147
vn -0.0724 0.9954 -0.0628
vn -0.2661 0.9639 -0.0092
vn -0.2643 0.9635 -0.0422
vn -0.1089 0.9917 -0.0687
vn -0.0728 0.9957 -0.0568
vn 0.0701 0.9966 -0.0423
vn 0.2438 0.9675 -0.0671
vn 0.0014 0.0709 0.9975
vn -0.0012 0.0779 0.9970
vn 0.3136 0.9484 -0.0468
vn 0.0021 0.0694 0.9976
vn 0.4365 0.8987 -0.0422
vn 0.4996 0.8643 -0.0579
vn 0.0028 0.0682 0.9977
vn 0.6471 0.7619 -0.0262
vn 0.7416 0.6698 -0.0389
vn 0.0035 0.0674 0.9977
vn 0.8900 0.4540 -0.0432
vn 0.7685 0.6393 -0.0271
vn -0.0019 0.0685 0.9977
vn -0.4656 0.8827 -0.0636
vn 0.0004 0.0730 0.9973
vn -0.0000 0.9978 -0.0661
vn -0.0000 0.0710 0.9975
vn -1.0000 0.0004 -0.0024
vn 0.2559 -0.2503 -0.9337
vn -1.0000 -0.0012 -0.0052
vn -1.0000 -0.0004 -0.0021
vn 0.0009 0.0653 0.9979
vn -0.0047 -0.9749 0.2226
vn 0.0026 0.9978 -0.0656
vn 0.0049 0.9976 -0.0697
vn -0.8550 0.5161 -0.0503
vn -0.8094 0.5868 -0.0241
vn -0.7611 0.5459 0.3503
vn -0.7737 0.6335 0.0124
vn 0.0028 0.9971 -0.0762
vn -0.5653 0.8243 -0.0292
vn -0.5964 0.7585 0.2627
vn -0.4985 0.8656 -0.0462
vn -0.6649 0.7453 -0.0490
vn -0.4987 0.8655 -0.0472
vn -0.5924 0.8056 -0.0059
vn -0.0002 0.0658 0.9978
vn -0.8251 0.5637 -0.0371
vn -1.0000 -0.0000 0.0020
vn -0.0001 0.9978 -0.0665
vn 0.0010 0.0656 0.9978
vn -0.0000 -0.9978 0.0656
vn -0.0000 0.0659 0.9978
vn 0.9988 0.0079 0.0487
vn -0.0001 0.0659 0.9978
vn -1.0000 -0.0001 -0.0021
vn 0.0003 0.0705 0.9975
vn 1.0000 -0.0000 -0.0005
vn -0.0000 -0.0645 -0.9979
vn 0.0006 -0.0654 -0.9979
vn -0.0000 -0.9979 0.0650
vn 0.0004 -0.0652 -0.9979
vn 0.0002 -0.0649 -0.9979
vn -0.0003 -0.0638 -0.9980
vn 0.1155 -0.9903 0.0769
vn 0.2372 -0.9703 0.0468
vn 0.5192 -0.8515 0.0730
vn -0.0000 0.0654 0.9979
vn 0.6436 -0.7647 0.0316
vn -0.5908 -0.8041 0.0664
vn -0.3070 -0.9506 0.0449
vn -0.6479 -0.7604 0.0457
vn -0.8735 -0.4854 0.0362
vn -0.9065 -0.4220 0.0142
vn 0.9637 0.2647 -0.0338
vn 0.9395 0.3423 -0.0143
vn 0.9966 -0.0792 0.0228
vn 0.9491 -0.3148 -0.0033
vn -0.9065 0.4220 -0.0142
vn -0.8735 0.4854 -0.0362
vn -0.0000 0.0655 0.9979
vn -0.6207 0.7821 -0.0557
vn -0.6478 0.7604 -0.0457
vn -0.2735 0.9595 -0.0674
vn -0.3070 0.9499 -0.0582
vn -0.0000 0.0683 0.9977
vn -0.0000 0.0686 0.9976
vn 0.6760 0.7348 -0.0565
vn 0.6149 0.7878 -0.0354
vn 0.2785 0.9568 -0.0833
vn -0.0000 -0.0688 -0.9976
vn -0.0012 -0.0770 -0.9970
vn 0.1101 0.9929 -0.0449
vn -0.0000 -0.0660 -0.9978
vn -0.2372 0.9684 -0.0772
vn 0.0004 -0.0668 -0.9978
vn -0.6437 0.7633 -0.0552
vn -0.6759 0.7359 -0.0402
vn 0.0005 -0.0662 -0.9978
vn -0.9494 0.3127 -0.0298
vn -0.9638 0.2664 -0.0083
vn 0.0008 -0.0658 -0.9978
vn -0.0041 0.0669 0.9978
vn -0.0039 0.0647 0.9979
vn -0.0057 0.0656 0.9978
vn -0.9493 -0.3122 0.0370
vn -0.0025 0.0635 0.9980
vn -0.7651 -0.6436 0.0219
vn -0.0012 0.0618 0.9981
vn -0.3139 -0.9483 0.0459
vn -0.6436 -0.7621 0.0705
vn -0.0029 0.0690 0.9976
vn -0.0014 0.0749 0.9972
vn -0.0000 0.0858 0.9963
vn -0.0000 0.0853 0.9964
vn 0.0054 0.0656 0.9978
vn 0.0061 0.0651 0.9979
vn 0.0044 0.0666 0.9978
vn 0.0026 0.0698 0.9976
vn 0.0031 0.0684 0.9977
vn 0.0008 0.0796 0.9968
vn 0.8874 0.4607 -0.0127
vn 0.7840 0.6185 -0.0535
vn 0.9617 0.2717 -0.0354
vn -0.0009 -0.0656 -0.9978
vn 0.9990 -0.0421 0.0163
vn -0.0006 -0.0659 -0.9978
vn -0.0006 -0.0653 -0.9979
vn 0.8900 -0.4546 0.0342
vn 0.9933 -0.1155 0.0033
vn 0.8546 -0.5189 0.0206
vn 0.6478 -0.7588 0.0675
vn -0.0003 -0.0651 -0.9979
vn 0.3070 -0.9487 0.0752
vn 0.4820 -0.8753 0.0400
vn 0.0017 0.0626 0.9980
vn 0.0805 -0.9954 0.0526
vn 0.0003 0.0600 0.9982
vn 0.0003 -0.0637 -0.9980
vn -0.1101 -0.9905 0.0827
vn 0.0027 0.0638 0.9980
vn -0.0005 -0.0662 -0.9978
vn 0.5908 0.8060 -0.0360
vn -0.0002 -0.0680 -0.9977
vn 0.1155 0.9914 -0.0618
vn 0.1101 0.9921 -0.0602
vn 0.4868 0.8708 -0.0690
vn -0.0000 -0.0692 -0.9976
vn 0.8760 -0.4798 0.0502
vn -0.0000 0.0590 0.9983
vn -0.0000 0.0592 0.9982
vn -0.2734 -0.9600 0.0598
vn -0.6249 0.7793 -0.0462
vn -0.8735 0.4855 -0.0362
s 0
usemtl Material.021
f 6//1 1//1 2//1
f 3//2 2//2 1//2
f 1//3 4//3 3//3
f 1//4 7//4 4//4
f 7//5 1//5 5//5
f 1//6 6//6 5//6
f 9//7 8//7 7//7
f 10//8 7//8 8//8
f 5//3 9//3 7//3
f 7//9 10//9 4//9
f 11//10 12//10 10//10
f 2//11 11//11 10//11
f 6//11 2//11 10//11
f 8//11 6//11 10//11
f 12//12 4//12 10//12
f 4//13 12//13 13//13
f 13//14 12//14 15//14
f 14//15 12//15 16//15
f 14//16 15//16 12//16
f 12//11 11//11 16//11
f 16//17 17//17 14//17
f 18//18 17//18 16//18
f 16//19 20//19 18//19
f 11//20 19//20 16//20
f 20//21 16//21 19//21
f 21//22 20//22 22//22
f 21//23 18//23 20//23
f 20//24 19//24 22//24
f 23//25 25//25 22//25
f 22//25 26//25 23//25
f 27//26 17//26 22//26
f 29//26 22//26 17//26
f 30//27 24//27 22//27
f 24//27 21//27 22//27
f 28//28 22//28 25//28
f 26//29 22//29 15//29
f 22//26 28//26 27//26
f 19//30 15//30 22//30
f 22//31 29//31 30//31
f 29//32 31//32 30//32
f 31//33 32//33 30//33
f 33//34 30//34 32//34
f 30//35 33//35 24//35
f 34//36 24//36 33//36
f 33//37 17//37 34//37
f 32//38 17//38 33//38
f 34//39 17//39 18//39
f 18//40 21//40 34//40
f 24//41 34//41 21//41
f 32//42 31//42 35//42
f 36//43 32//43 35//43
f 17//44 32//44 36//44
f 36//45 35//45 37//45
f 36//46 37//46 41//46
f 38//47 36//47 39//47
f 42//48 36//48 38//48
f 36//49 41//49 39//49
f 17//26 36//26 29//26
f 36//50 42//50 40//50
f 40//50 29//50 36//50
f 47//51 43//51 42//51
f 43//52 45//52 42//52
f 45//53 44//53 42//53
f 42//54 44//54 26//54
f 26//54 40//54 42//54
f 38//55 46//55 42//55
f 46//56 47//56 42//56
f 49//57 47//57 48//57
f 46//58 48//58 47//58
f 47//59 49//59 43//59
f 50//60 43//60 49//60
f 48//61 40//61 49//61
f 49//62 40//62 50//62
f 43//63 50//63 45//63
f 51//64 45//64 50//64
f 50//65 26//65 51//65
f 50//66 40//66 26//66
f 45//67 51//67 53//67
f 51//68 26//68 52//68
f 52//69 53//69 51//69
f 53//70 54//70 44//70
f 53//71 52//71 54//71
f 45//72 53//72 44//72
f 55//73 54//73 52//73
f 54//74 14//74 44//74
f 54//75 55//75 14//75
f 15//76 14//76 55//76
f 52//77 26//77 55//77
f 55//78 26//78 15//78
f 56//79 40//79 48//79
f 48//80 46//80 56//80
f 57//81 40//81 56//81
f 38//82 56//82 46//82
f 56//83 38//83 57//83
f 57//84 60//84 58//84
f 57//85 58//85 29//85
f 40//86 57//86 29//86
f 59//87 57//87 38//87
f 57//88 59//88 60//88
f 61//5 60//5 9//5
f 60//89 61//89 58//89
f 62//90 60//90 59//90
f 60//91 62//91 9//91
f 63//11 62//11 59//11
f 6//11 62//11 63//11
f 6//10 8//10 62//10
f 8//92 9//92 62//92
f 59//93 39//93 63//93
f 39//94 61//94 63//94
f 63//95 5//95 6//95
f 5//96 63//96 61//96
f 61//97 39//97 58//97
f 5//4 61//4 9//4
f 38//98 39//98 59//98
f 41//82 58//82 39//82
f 58//83 41//83 64//83
f 29//99 58//99 64//99
f 64//88 37//88 65//88
f 37//100 64//100 41//100
f 29//101 64//101 65//101
f 29//102 65//102 31//102
f 35//90 65//90 37//90
f 65//103 35//103 31//103
f 69//104 44//104 17//104
f 44//105 14//105 17//105
f 70//106 66//106 44//106
f 44//54 66//54 67//54
f 67//54 26//54 44//54
f 68//107 44//107 69//107
f 70//108 44//108 68//108
f 72//11 71//11 70//11
f 70//109 71//109 27//109
f 27//109 66//109 70//109
f 70//110 68//110 73//110
f 72//11 70//11 73//11
f 73//11 74//11 72//11
f 73//111 75//111 74//111
f 76//112 75//112 73//112
f 73//113 68//113 76//113
f 76//114 78//114 75//114
f 77//115 76//115 68//115
f 78//116 76//116 77//116
f 80//117 75//117 78//117
f 77//118 79//118 78//118
f 80//119 78//119 79//119
f 81//120 74//120 80//120
f 81//121 80//121 82//121
f 79//122 82//122 80//122
f 75//123 80//123 74//123
f 79//124 83//124 82//124
f 84//125 82//125 83//125
f 82//126 84//126 85//126
f 82//127 85//127 81//127
f 84//128 81//128 85//128
f 84//129 83//129 86//129
f 84//130 86//130 87//130
f 87//131 88//131 84//131
f 88//132 81//132 84//132
f 88//133 90//133 81//133
f 88//134 87//134 89//134
f 88//135 89//135 91//135
f 90//10 88//10 92//10
f 91//136 92//136 88//136
f 93//137 90//137 92//137
f 94//138 93//138 92//138
f 92//139 91//139 94//139
f 93//140 94//140 95//140
f 96//141 95//141 94//141
f 94//142 97//142 96//142
f 97//143 94//143 91//143
f 97//144 91//144 89//144
f 89//145 98//145 97//145
f 98//146 69//146 97//146
f 97//147 69//147 96//147
f 98//148 89//148 87//148
f 99//149 69//149 98//149
f 98//150 87//150 86//150
f 86//151 99//151 98//151
f 100//152 69//152 99//152
f 99//153 86//153 83//153
f 83//154 100//154 99//154
f 100//155 77//155 69//155
f 79//156 77//156 100//156
f 100//157 83//157 79//157
f 102//158 101//158 96//158
f 95//159 96//159 101//159
f 96//160 69//160 102//160
f 102//161 69//161 17//161
f 103//162 101//162 102//162
f 102//163 17//163 103//163
f 103//164 104//164 107//164
f 103//165 17//165 104//165
f 104//166 105//166 103//166
f 103//167 106//167 101//167
f 106//168 103//168 107//168
f 107//169 105//169 108//169
f 108//170 106//170 107//170
f 101//171 108//171 110//171
f 108//172 101//172 106//172
f 110//173 108//173 109//173
f 90//174 109//174 108//174
f 90//175 108//175 105//175
f 101//176 110//176 111//176
f 109//177 111//177 110//177
f 101//178 111//178 95//178
f 112//179 111//179 109//179
f 93//180 95//180 111//180
f 111//181 112//181 93//181
f 90//182 93//182 112//182
f 109//183 90//183 112//183
f 113//184 105//184 104//184
f 105//185 113//185 90//185
f 113//186 114//186 90//186
f 104//26 114//26 113//26
f 114//187 104//187 72//187
f 72//187 115//187 114//187
f 90//188 114//188 115//188
f 115//54 72//54 74//54
f 74//189 81//189 115//189
f 90//190 115//190 81//190
f 104//11 71//11 72//11
f 104//191 27//191 71//191
f 104//191 17//191 27//191
f 69//192 77//192 68//192
f 26//193 67//193 119//193
f 124//194 116//194 67//194
f 28//194 67//194 116//194
f 118//54 67//54 66//54
f 117//195 120//195 67//195
f 67//66 118//66 117//66
f 67//196 28//196 121//196
f 121//196 119//196 67//196
f 120//197 122//197 67//197
f 122//198 123//198 67//198
f 123//199 124//199 67//199
f 123//200 125//200 124//200
f 127//201 124//201 125//201
f 116//3 124//3 126//3
f 124//202 127//202 126//202
f 125//203 129//203 127//203
f 130//11 128//11 127//11
f 128//204 126//204 127//204
f 129//203 130//203 127//203
f 132//205 130//205 116//205
f 129//206 116//206 130//206
f 130//11 131//11 128//11
f 130//207 132//207 131//207
f 116//3 126//3 132//3
f 126//5 133//5 132//5
f 133//208 131//208 132//208
f 137//4 134//4 133//4
f 134//6 136//6 133//6
f 135//5 133//5 126//5
f 137//4 133//4 135//4
f 131//209 133//209 136//209
f 138//210 137//210 140//210
f 137//211 138//211 139//211
f 137//5 139//5 134//5
f 135//212 140//212 137//212
f 140//213 135//213 128//213
f 140//11 136//11 141//11
f 140//11 128//11 136//11
f 140//11 141//11 138//11
f 142//214 141//214 134//214
f 136//1 134//1 141//1
f 141//215 142//215 143//215
f 138//10 141//10 143//10
f 145//216 138//216 143//216
f 143//217 144//217 145//217
f 144//218 143//218 142//218
f 145//219 146//219 147//219
f 146//220 145//220 144//220
f 147//221 148//221 145//221
f 145//11 148//11 138//11
f 147//222 149//222 148//222
f 148//223 139//223 138//223
f 139//224 148//224 150//224
f 149//225 150//225 148//225
f 146//226 150//226 118//226
f 118//227 150//227 151//227
f 139//5 150//5 142//5
f 150//228 149//228 151//228
f 146//229 144//229 150//229
f 144//5 142//5 150//5
f 152//230 151//230 149//230
f 151//220 152//220 153//220
f 118//231 151//231 153//231
f 154//232 153//232 152//232
f 153//233 154//233 155//233
f 118//234 153//234 155//234
f 156//235 155//235 154//235
f 155//236 156//236 117//236
f 118//237 155//237 117//237
f 157//238 156//238 154//238
f 156//239 66//239 158//239
f 66//240 156//240 157//240
f 158//63 117//63 156//63
f 117//241 158//241 120//241
f 158//242 66//242 159//242
f 159//243 120//243 158//243
f 159//244 66//244 125//244
f 125//245 122//245 159//245
f 120//246 159//246 122//246
f 157//247 154//247 152//247
f 157//248 152//248 149//248
f 66//54 157//54 118//54
f 147//249 157//249 149//249
f 161//250 157//250 147//250
f 157//187 161//187 160//187
f 160//187 118//187 157//187
f 162//251 27//251 161//251
f 161//252 163//252 162//252
f 166//253 163//253 161//253
f 165//254 164//254 161//254
f 164//255 166//255 161//255
f 161//26 27//26 28//26
f 147//256 165//256 161//256
f 28//26 160//26 161//26
f 168//257 166//257 167//257
f 164//258 167//258 166//258
f 166//259 168//259 163//259
f 160//260 169//260 168//260
f 169//261 163//261 168//261
f 167//262 160//262 168//262
f 169//263 28//263 170//263
f 170//264 162//264 169//264
f 163//265 169//265 162//265
f 169//31 160//31 28//31
f 162//266 170//266 171//266
f 172//267 171//267 170//267
f 170//268 28//268 172//268
f 172//268 28//268 173//268
f 173//269 174//269 172//269
f 171//270 172//270 174//270
f 171//271 174//271 27//271
f 174//272 173//272 129//272
f 174//273 129//273 27//273
f 28//274 116//274 173//274
f 116//275 129//275 173//275
f 162//276 171//276 27//276
f 175//277 160//277 167//277
f 167//278 164//278 175//278
f 146//279 160//279 175//279
f 147//280 175//280 165//280
f 175//281 147//281 146//281
f 165//282 175//282 164//282
f 160//283 146//283 118//283
f 139//3 142//3 134//3
f 128//11 131//11 136//11
f 126//284 128//284 135//284
f 125//285 66//285 129//285
f 27//286 129//286 66//286
f 122//287 125//287 123//287
f 25//28 121//28 28//28
f 121//3 25//3 23//3
f 23//3 119//3 121//3
f 119//193 23//193 26//193
f 15//4 19//4 13//4
f 13//4 19//4 3//4
f 19//288 11//288 3//288
f 13//3 3//3 4//3
f 2//289 3//289 11//289
