# Blender 5.0.1
# www.blender.org
mtllib left_wrist_z_link_visual_9.mtl
o L_KidsBaseV4.008_visual.001
v -0.055380 -0.065270 -0.029428
v -0.057221 -0.063325 -0.030469
v -0.058712 -0.061365 -0.031951
v -0.059795 -0.059467 -0.033817
v -0.060428 -0.057702 -0.035995
v -0.060587 -0.056139 -0.038401
v -0.060267 -0.054838 -0.040943
v -0.059479 -0.053849 -0.043523
v -0.058253 -0.053209 -0.046043
v -0.056637 -0.052944 -0.048404
v -0.054693 -0.053064 -0.050518
v -0.052496 -0.053563 -0.052301
v -0.050130 -0.054424 -0.053686
v -0.047686 -0.055612 -0.054620
v -0.045257 -0.057082 -0.055066
v -0.042938 -0.058778 -0.055007
v -0.040817 -0.060634 -0.054447
v -0.038976 -0.062579 -0.053406
v -0.037485 -0.064539 -0.051924
v -0.036403 -0.066437 -0.050058
v -0.035769 -0.068202 -0.047880
v -0.035610 -0.069765 -0.045474
v -0.035931 -0.071066 -0.042932
v -0.036719 -0.072055 -0.040352
v -0.037944 -0.072695 -0.037832
v -0.039560 -0.072960 -0.035470
v -0.041504 -0.072841 -0.033358
v -0.043701 -0.072341 -0.031574
v -0.046067 -0.071481 -0.030189
v -0.048512 -0.070293 -0.029255
v -0.050940 -0.068822 -0.028809
v -0.053259 -0.067127 -0.028867
v -0.003904 0.006620 0.013859
v -0.005745 0.008565 0.012818
v -0.007236 0.010525 0.011336
v -0.008318 0.012423 0.009470
v -0.008951 0.014188 0.007292
v -0.009111 0.015751 0.004886
v -0.008790 0.017052 0.002344
v -0.008002 0.018041 -0.000237
v -0.006777 0.018681 -0.002756
v -0.005161 0.018946 -0.005117
v -0.003217 0.018826 -0.007231
v -0.001020 0.018327 -0.009014
v 0.001347 0.017466 -0.010399
v 0.003791 0.016278 -0.011333
v 0.006219 0.014808 -0.011779
v 0.008538 0.013112 -0.011721
v 0.010659 0.011256 -0.011160
v 0.012501 0.009311 -0.010119
v 0.013991 0.007351 -0.008637
v 0.015074 0.005453 -0.006771
v 0.015707 0.003688 -0.004593
v 0.015866 0.002125 -0.002187
v 0.015546 0.000824 0.000355
v 0.014758 -0.000165 0.002935
v 0.013532 -0.000805 0.005455
v 0.011916 -0.001070 0.007816
v 0.009973 -0.000950 0.009929
v 0.007775 -0.000451 0.011713
v 0.005409 0.000409 0.013098
v 0.002965 0.001598 0.014031
v 0.000536 0.003068 0.014478
v -0.001783 0.004763 0.014420
v -0.006859 0.011214 0.032072
v -0.010746 0.015320 0.029874
v -0.013892 0.019456 0.026746
v -0.016177 0.023464 0.022808
v -0.017514 0.027189 0.018210
v -0.017850 0.030488 0.013132
v -0.017174 0.033235 0.007765
v -0.015510 0.035323 0.002319
v -0.012923 0.036673 -0.002999
v -0.009512 0.037233 -0.007984
v -0.005409 0.036980 -0.012444
v -0.000771 0.035926 -0.016209
v 0.004224 0.034110 -0.019133
v 0.009383 0.031602 -0.021104
v 0.014509 0.028499 -0.022046
v 0.019405 0.024919 -0.021923
v 0.023882 0.021001 -0.020740
v 0.027768 0.016895 -0.018541
v 0.030915 0.012758 -0.015413
v 0.033200 0.008750 -0.011475
v 0.034536 0.005025 -0.006878
v 0.034873 0.001726 -0.001799
v 0.034196 -0.001020 0.003567
v 0.032532 -0.003109 0.009014
v 0.029946 -0.004458 0.014332
v 0.026535 -0.005018 0.019317
v 0.022432 -0.004766 0.023777
v 0.017794 -0.003711 0.027542
v 0.012799 -0.001895 0.030466
v 0.007639 0.000613 0.032436
v 0.002513 0.003716 0.033378
v -0.002383 0.007296 0.033255
v 0.018366 0.046636 0.053745
v 0.014434 0.050791 0.051521
v 0.011251 0.054976 0.048356
v 0.008939 0.059030 0.044372
v 0.007586 0.062799 0.039721
v 0.007246 0.066137 0.034582
v 0.007931 0.068915 0.029153
v 0.009614 0.071028 0.023643
v 0.012231 0.072394 0.018262
v 0.015682 0.072960 0.013219
v 0.019833 0.072705 0.008707
v 0.024525 0.071638 0.004898
v 0.029579 0.069801 0.001940
v 0.034799 0.067263 -0.000054
v 0.039985 0.064124 -0.001007
v 0.044938 0.060502 -0.000883
v 0.049467 0.056538 0.000314
v 0.053399 0.052384 0.002538
v 0.056582 0.048199 0.005703
v 0.058894 0.044144 0.009687
v 0.060247 0.040375 0.014338
v 0.060587 0.037038 0.019477
v 0.059902 0.034259 0.024906
v 0.058219 0.032146 0.030416
v 0.055602 0.030780 0.035797
v 0.052152 0.030214 0.040840
v 0.048000 0.030470 0.045353
v 0.043308 0.031536 0.049162
v 0.038254 0.033374 0.052119
v 0.033034 0.035911 0.054113
v 0.027848 0.039051 0.055066
v 0.022895 0.042672 0.054942
v -0.048099 -0.062952 -0.041937
v 0.033916 0.051587 0.027030
vn 0.2743 0.3442 -0.8979
vn -0.6764 0.0416 0.7353
vn 0.0555 -0.5439 0.8373
vn 0.4264 0.2225 -0.8767
vn -0.7646 0.1738 0.6206
vn -0.1115 -0.4528 0.8846
vn 0.5622 0.0923 -0.8218
vn -0.8234 0.2994 0.4820
vn -0.2743 -0.3443 0.8979
vn 0.6764 -0.0416 -0.7353
vn -0.8506 0.4134 0.3249
vn -0.4265 -0.2225 0.8767
vn 0.7646 -0.1739 -0.6206
vn -0.8451 0.5116 0.1553
vn 0.8234 -0.2994 -0.4820
vn -0.8071 0.5901 -0.0203
vn 0.8506 -0.4134 -0.3249
vn -0.7381 0.6459 -0.1950
vn 0.8451 -0.5116 -0.1553
vn -0.6407 0.6769 -0.3623
vn 0.8071 -0.5901 0.0203
vn -0.5187 0.6819 -0.5157
vn 0.7381 -0.6459 0.1950
vn -0.3767 0.6607 -0.6493
vn 0.6407 -0.6769 0.3623
vn -0.2203 0.6141 -0.7579
vn 0.5186 -0.6819 0.5157
vn -0.0555 0.5439 -0.8373
vn 0.3767 -0.6607 0.6493
vn 0.1115 0.4528 -0.8846
vn -0.5622 -0.0923 0.8218
vn 0.2204 -0.6141 0.7578
vn -0.7385 -0.6724 0.0498
vn -0.7977 -0.6030 0.0049
vn -0.8434 -0.5345 -0.0545
vn -0.8739 -0.4694 -0.1263
vn -0.8880 -0.4103 -0.2077
vn -0.8851 -0.3595 -0.2956
vn -0.8654 -0.3188 -0.3866
vn -0.8296 -0.2899 -0.4771
vn -0.7792 -0.2738 -0.5638
vn -0.7160 -0.2712 -0.6433
vn -0.6425 -0.2822 -0.7125
vn -0.5614 -0.3064 -0.7688
vn -0.4760 -0.3428 -0.8099
vn -0.3894 -0.3900 -0.8344
vn -0.3051 -0.4462 -0.8413
vn -0.2262 -0.5093 -0.8303
vn -0.1559 -0.5768 -0.8019
vn -0.0967 -0.6461 -0.7571
vn -0.0510 -0.7146 -0.6976
vn -0.0206 -0.7797 -0.6258
vn -0.0065 -0.8388 -0.5444
vn -0.0093 -0.8897 -0.4565
vn -0.0290 -0.9303 -0.3656
vn -0.0648 -0.9593 -0.2750
vn -0.1152 -0.9753 -0.1883
vn -0.1785 -0.9779 -0.1089
vn -0.2520 -0.9669 -0.0396
vn -0.3330 -0.9428 0.0166
vn -0.4185 -0.9064 0.0578
vn -0.5050 -0.8592 0.0823
vn -0.5893 -0.8030 0.0892
vn -0.6682 -0.7399 0.0782
vn -0.8545 0.4080 0.3216
vn -0.8489 0.5062 0.1520
vn -0.8109 0.5847 -0.0235
vn -0.7419 0.6405 -0.1983
vn -0.6445 0.6715 -0.3656
vn -0.5225 0.6765 -0.5190
vn -0.3806 0.6553 -0.6525
vn -0.2242 0.6087 -0.7611
vn -0.0593 0.5384 -0.8406
vn 0.1077 0.4473 -0.8879
vn 0.2704 0.3388 -0.9012
vn 0.4225 0.2171 -0.8800
vn 0.5584 0.0868 -0.8250
vn 0.6725 -0.0470 -0.7386
vn 0.7607 -0.1793 -0.6238
vn 0.8195 -0.3048 -0.4853
vn 0.8467 -0.4189 -0.3282
vn 0.8412 -0.5170 -0.1585
vn 0.8032 -0.5955 0.0170
vn 0.7342 -0.6513 0.1918
vn 0.6368 -0.6823 0.3591
vn 0.5148 -0.6873 0.5124
vn 0.3729 -0.6661 0.6460
vn 0.2164 -0.6195 0.7546
vn 0.0516 -0.5493 0.8340
vn -0.1155 -0.4582 0.8813
vn -0.2781 -0.3497 0.8946
vn -0.4303 -0.2280 0.8734
vn -0.5661 -0.0977 0.8185
vn -0.6803 0.0362 0.7320
vn -0.7685 0.1684 0.6173
vn -0.8273 0.2939 0.4787
vn -0.5229 -0.7302 -0.4397
vn -0.5229 -0.7303 -0.4397
vn -0.5229 -0.7302 -0.4396
vn -0.5228 -0.7302 -0.4398
vn -0.5228 -0.7303 -0.4397
vn -0.5229 -0.7303 -0.4396
vn 0.5229 0.7302 0.4397
vn 0.5229 0.7303 0.4397
vn 0.5228 0.7303 0.4397
s 0
usemtl Material.073
f 16//1 15//1 47//1 48//1
f 3//2 2//2 34//2 35//2
f 30//3 29//3 61//3 62//3
f 17//4 16//4 48//4 49//4
f 4//5 3//5 35//5 36//5
f 31//6 30//6 62//6 63//6
f 18//7 17//7 49//7 50//7
f 5//8 4//8 36//8 37//8
f 32//9 31//9 63//9 64//9
f 19//10 18//10 50//10 51//10
f 6//11 5//11 37//11 38//11
f 1//12 32//12 64//12 33//12
f 20//13 19//13 51//13 52//13
f 7//14 6//14 38//14 39//14
f 21//15 20//15 52//15 53//15
f 8//16 7//16 39//16 40//16
f 22//17 21//17 53//17 54//17
f 9//18 8//18 40//18 41//18
f 23//19 22//19 54//19 55//19
f 10//20 9//20 41//20 42//20
f 24//21 23//21 55//21 56//21
f 11//22 10//22 42//22 43//22
f 25//23 24//23 56//23 57//23
f 12//24 11//24 43//24 44//24
f 26//25 25//25 57//25 58//25
f 13//26 12//26 44//26 45//26
f 27//27 26//27 58//27 59//27
f 14//28 13//28 45//28 46//28
f 28//29 27//29 59//29 60//29
f 15//30 14//30 46//30 47//30
f 2//31 1//31 33//31 34//31
f 29//32 28//32 60//32 61//32
f 34//33 33//33 65//33 66//33
f 35//34 34//34 66//34 67//34
f 36//35 35//35 67//35 68//35
f 37//36 36//36 68//36 69//36
f 38//37 37//37 69//37 70//37
f 39//38 38//38 70//38 71//38
f 40//39 39//39 71//39 72//39
f 41//40 40//40 72//40 73//40
f 42//41 41//41 73//41 74//41
f 43//42 42//42 74//42 75//42
f 44//43 43//43 75//43 76//43
f 45//44 44//44 76//44 77//44
f 46//45 45//45 77//45 78//45
f 47//46 46//46 78//46 79//46
f 48//47 47//47 79//47 80//47
f 49//48 48//48 80//48 81//48
f 50//49 49//49 81//49 82//49
f 51//50 50//50 82//50 83//50
f 52//51 51//51 83//51 84//51
f 53//52 52//52 84//52 85//52
f 54//53 53//53 85//53 86//53
f 55//54 54//54 86//54 87//54
f 56//55 55//55 87//55 88//55
f 57//56 56//56 88//56 89//56
f 58//57 57//57 89//57 90//57
f 59//58 58//58 90//58 91//58
f 60//59 59//59 91//59 92//59
f 61//60 60//60 92//60 93//60
f 62//61 61//61 93//61 94//61
f 63//62 62//62 94//62 95//62
f 64//63 63//63 95//63 96//63
f 33//64 64//64 96//64 65//64
f 70//65 69//65 101//65 102//65
f 71//66 70//66 102//66 103//66
f 72//67 71//67 103//67 104//67
f 73//68 72//68 104//68 105//68
f 74//69 73//69 105//69 106//69
f 75//70 74//70 106//70 107//70
f 76//71 75//71 107//71 108//71
f 77//72 76//72 108//72 109//72
f 78//73 77//73 109//73 110//73
f 79//74 78//74 110//74 111//74
f 80//75 79//75 111//75 112//75
f 81//76 80//76 112//76 113//76
f 82//77 81//77 113//77 114//77
f 83//78 82//78 114//78 115//78
f 84//79 83//79 115//79 116//79
f 85//80 84//80 116//80 117//80
f 86//81 85//81 117//81 118//81
f 87//82 86//82 118//82 119//82
f 88//83 87//83 119//83 120//83
f 89//84 88//84 120//84 121//84
f 90//85 89//85 121//85 122//85
f 91//86 90//86 122//86 123//86
f 92//87 91//87 123//87 124//87
f 93//88 92//88 124//88 125//88
f 94//89 93//89 125//89 126//89
f 95//90 94//90 126//90 127//90
f 96//91 95//91 127//91 128//91
f 65//92 96//92 128//92 97//92
f 66//93 65//93 97//93 98//93
f 67//94 66//94 98//94 99//94
f 68//95 67//95 99//95 100//95
f 69//96 68//96 100//96 101//96
f 10//97 11//97 129//97
f 24//97 25//97 129//97
f 11//98 12//98 129//98
f 25//99 26//99 129//99
f 12//97 13//97 129//97
f 26//100 27//100 129//100
f 13//97 14//97 129//97
f 27//97 28//97 129//97
f 14//97 15//97 129//97
f 1//98 2//98 129//98
f 28//97 29//97 129//97
f 15//101 16//101 129//101
f 2//97 3//97 129//97
f 29//97 30//97 129//97
f 16//97 17//97 129//97
f 3//97 4//97 129//97
f 30//97 31//97 129//97
f 17//98 18//98 129//98
f 4//102 5//102 129//102
f 31//97 32//97 129//97
f 18//98 19//98 129//98
f 5//97 6//97 129//97
f 32//98 1//98 129//98
f 19//97 20//97 129//97
f 6//97 7//97 129//97
f 20//97 21//97 129//97
f 7//97 8//97 129//97
f 21//97 22//97 129//97
f 8//98 9//98 129//98
f 22//97 23//97 129//97
f 9//100 10//100 129//100
f 23//97 24//97 129//97
f 101//103 100//103 130//103
f 128//103 127//103 130//103
f 115//103 114//103 130//103
f 102//103 101//103 130//103
f 97//103 128//103 130//103
f 116//103 115//103 130//103
f 103//103 102//103 130//103
f 117//103 116//103 130//103
f 104//103 103//103 130//103
f 118//103 117//103 130//103
f 105//103 104//103 130//103
f 119//103 118//103 130//103
f 106//103 105//103 130//103
f 120//103 119//103 130//103
f 107//103 106//103 130//103
f 121//103 120//103 130//103
f 108//103 107//103 130//103
f 122//103 121//103 130//103
f 109//103 108//103 130//103
f 123//103 122//103 130//103
f 110//103 109//103 130//103
f 124//103 123//103 130//103
f 111//103 110//103 130//103
f 98//104 97//104 130//104
f 125//105 124//105 130//105
f 112//103 111//103 130//103
f 99//104 98//104 130//104
f 126//103 125//103 130//103
f 113//103 112//103 130//103
f 100//103 99//103 130//103
f 127//104 126//104 130//104
f 114//104 113//104 130//104
