# Blender 5.0.1
# www.blender.org
mtllib left_elbow_x_link_visual_10.mtl
o i01.left.bicep.full.011_visual.001
v 0.035458 -0.007899 -0.026838
v -0.035592 -0.009664 -0.026721
v 0.033972 0.009286 -0.027968
v 0.033972 -0.009162 0.028002
v 0.027944 -0.023999 -0.025779
v -0.034825 0.008079 -0.027889
v -0.028431 0.020538 -0.028708
v 0.014451 -0.034778 -0.025070
v -0.017745 0.029606 -0.029304
v -0.001144 0.034412 -0.029621
v 0.035592 0.004742 0.027087
v -0.003138 -0.037489 -0.024891
v 0.016147 0.030199 -0.029343
v -0.016633 -0.033661 -0.025145
v 0.027144 0.021511 -0.028772
v -0.027631 -0.024972 -0.025715
v -0.017744 -0.029483 0.029338
v -0.028430 -0.020415 0.028742
v -0.034826 -0.007954 0.027923
v 0.003908 0.037489 0.024934
v -0.004392 -0.033781 0.029621
v -0.010074 0.036362 0.025008
v 0.012786 -0.031881 0.029496
v -0.025218 0.028048 0.025556
v 0.027144 -0.021387 0.028807
v -0.035592 0.009788 0.026756
v 0.031757 0.018207 0.026203
v 0.020629 0.031406 0.025334
vn -0.0000 -0.0657 -0.9978
vn -0.0000 -0.0656 -0.9978
vn 0.9962 0.0846 -0.0223
vn 0.9932 -0.1141 0.0243
vn 0.9064 -0.4221 0.0148
vn 0.0001 -0.0657 -0.9978
vn -0.0000 -0.0655 -0.9979
vn -0.0001 -0.0656 -0.9978
vn -0.0001 -0.0657 -0.9978
vn 0.0001 -0.0655 -0.9979
vn 0.0001 -0.0658 -0.9978
vn -0.6478 -0.7599 0.0541
vn -0.6207 -0.7826 0.0473
vn -0.8876 -0.4599 0.0255
vn -0.0000 0.0656 0.9978
vn -0.8901 -0.4551 0.0267
vn -0.0805 0.9956 -0.0487
vn -0.0000 0.0657 0.9978
vn 0.0001 0.0657 0.9978
vn 0.2372 0.9684 -0.0766
vn -0.0001 0.0655 0.9979
vn 0.3425 0.9383 -0.0488
vn 0.6207 0.7811 -0.0681
vn 0.7651 0.6434 -0.0255
vn 0.8734 0.4849 -0.0441
vn 0.9618 0.2736 -0.0057
vn -0.8698 0.4931 -0.0167
vn -0.8901 0.4551 -0.0267
vn -0.9990 0.0422 -0.0153
vn -0.9990 -0.0422 0.0153
vn 0.5909 -0.8045 0.0607
vn 0.6250 -0.7793 0.0465
vn 0.8735 -0.4855 0.0360
vn -0.4820 0.8752 -0.0408
vn -0.6478 0.7589 -0.0667
vn 0.1101 -0.9914 0.0700
vn 0.1527 -0.9866 0.0570
vn -0.2786 0.9571 -0.0797
vn -0.2735 -0.9601 0.0590
vn -0.3070 -0.9494 0.0665
s 0
usemtl Material.021
f 6//1 1//1 2//1
f 1//2 16//2 2//2
f 1//3 3//3 11//3
f 1//2 15//2 3//2
f 11//4 4//4 1//4
f 5//5 1//5 4//5
f 1//6 5//6 8//6
f 1//2 6//2 7//2
f 1//7 7//7 9//7
f 1//8 8//8 12//8
f 1//9 9//9 10//9
f 1//10 10//10 13//10
f 1//11 12//11 14//11
f 1//9 13//9 15//9
f 1//7 14//7 16//7
f 17//12 18//12 16//12
f 16//13 14//13 17//13
f 2//14 16//14 18//14
f 20//15 18//15 17//15
f 18//16 19//16 2//16
f 20//15 19//15 18//15
f 20//15 21//15 23//15
f 20//15 17//15 21//15
f 22//17 20//17 10//17
f 20//18 22//18 24//18
f 20//15 23//15 25//15
f 20//15 24//15 26//15
f 20//19 25//19 4//19
f 20//15 26//15 19//15
f 20//15 4//15 11//15
f 13//20 10//20 20//20
f 20//21 11//21 27//21
f 20//22 28//22 13//22
f 20//18 27//18 28//18
f 15//23 13//23 28//23
f 28//24 27//24 15//24
f 3//25 15//25 27//25
f 27//26 11//26 3//26
f 26//27 24//27 7//27
f 7//28 6//28 26//28
f 6//29 2//29 26//29
f 19//30 26//30 2//30
f 25//31 23//31 8//31
f 8//32 5//32 25//32
f 4//33 25//33 5//33
f 24//34 22//34 9//34
f 9//35 7//35 24//35
f 23//36 21//36 12//36
f 12//37 8//37 23//37
f 10//38 9//38 22//38
f 14//39 12//39 21//39
f 21//40 17//40 14//40
