# Blender 5.0.1
# www.blender.org
mtllib left_elbow_x_link_visual_0.mtl
o i01.left.bicep.full.001_visual.001
v -0.134796 0.357616 0.140360
v 0.000376 0.386637 -0.229212
v -0.134796 0.360116 0.177564
v -0.090493 0.358793 0.140277
v 0.135536 0.357618 0.140360
v -0.134797 0.434102 0.135283
v -0.104439 0.369776 0.139549
v -0.100635 0.382882 0.138679
v -0.104136 0.376703 0.139090
v -0.099347 0.361595 0.140092
v -0.168168 0.386635 -0.229210
v -0.168168 0.357616 0.140361
v -0.168168 0.216093 0.078741
v -0.168168 0.360116 0.177563
v -0.168168 -0.205632 0.106738
v -0.142895 -0.300788 0.221021
v -0.168168 -0.324181 0.222559
v -0.142899 0.342146 0.178745
v 0.000383 0.315131 -0.224510
v -0.143004 0.216093 0.078740
v 0.143652 0.342148 0.178743
v -0.142899 0.315130 -0.224511
v -0.097569 0.330774 -0.225539
v -0.111515 0.341759 -0.226261
v -0.143004 0.196271 -0.216695
v -0.106423 0.333575 -0.225723
v -0.168168 0.196271 -0.216695
v -0.110908 0.343973 -0.163261
v -0.104742 0.336657 -0.162777
v -0.095224 0.335126 -0.162675
v -0.083155 0.348048 -0.163532
v -0.087533 0.338902 -0.162924
v -0.111658 0.350662 -0.163707
v -0.109256 0.357174 -0.164139
v -0.088728 0.333554 -0.225722
v -0.085179 0.355864 -0.164052
v -0.083793 0.348978 -0.226736
v -0.089599 0.356626 -0.227239
v -0.090777 0.361581 -0.164431
v -0.098981 0.359004 -0.227396
v -0.101377 0.362813 -0.164512
v -0.107710 0.354865 -0.227122
v -0.111213 0.348684 -0.226717
v -0.083971 0.340782 -0.226196
v 0.135536 0.360118 0.177564
v 0.143365 -0.205791 0.106748
v 0.143353 0.216634 0.078705
v 0.168165 0.360118 0.177564
v 0.168165 -0.324178 0.222559
v 0.143306 -0.300785 0.221021
v 0.143652 0.315132 -0.224510
v 0.109145 0.335579 -0.225855
v 0.168165 0.196812 -0.216731
v 0.143353 0.196812 -0.216731
v 0.102355 0.331524 -0.225589
v 0.095925 0.331194 -0.225568
v 0.112240 0.343466 -0.226375
v 0.168165 0.386638 -0.229211
v 0.110874 0.351442 -0.226897
v 0.168165 0.216634 0.078704
v 0.103033 0.358180 -0.227341
v 0.168165 0.357618 0.140361
v 0.099955 0.362796 -0.164511
v 0.106562 0.360404 -0.164352
v 0.092006 0.357297 -0.227283
v 0.093342 0.361851 -0.164449
v 0.085722 0.349835 -0.226791
v 0.088171 0.357972 -0.164191
v 0.085135 0.352073 -0.163800
v 0.110805 0.355321 -0.164016
v 0.101639 0.335421 -0.162694
v 0.112371 0.349062 -0.163601
v 0.109644 0.340384 -0.163024
v 0.085723 0.343998 -0.163262
v 0.092007 0.336539 -0.162768
v 0.088075 0.335579 -0.225855
v 0.084996 0.343229 -0.226358
v 0.168165 -0.205791 0.106748
v 0.143365 -0.225631 -0.188952
v 0.168165 -0.225631 -0.188951
v 0.168165 -0.335490 0.010646
v 0.168168 -0.328920 0.165432
v 0.124152 -0.325906 0.222677
v 0.124153 -0.333838 0.151957
v 0.168165 -0.334994 0.077378
v 0.052169 -0.334994 0.077378
v 0.052169 -0.335490 0.010646
v 0.052169 -0.330515 0.151934
v 0.050811 -0.307729 0.150103
v -0.050406 -0.307729 0.150103
v 0.050811 -0.327806 -0.182234
v -0.050018 -0.330515 0.151934
v 0.143306 -0.303260 0.184233
v -0.142895 -0.303263 0.184233
v -0.143002 -0.205632 0.106736
v -0.050407 -0.327807 -0.182234
v -0.142895 -0.327808 -0.182234
v -0.095087 -0.347365 -0.180948
v -0.113397 -0.359334 -0.180161
v -0.143002 -0.225472 -0.188963
v -0.102368 -0.347913 -0.180913
v -0.109320 -0.351629 -0.180668
v -0.168168 -0.225472 -0.188962
v -0.132264 -0.413307 -0.176612
v -0.168168 -0.397273 -0.177667
v -0.168168 -0.406415 -0.092773
v -0.132264 -0.416107 -0.120266
v -0.168168 -0.335490 0.010646
v -0.050018 -0.335490 0.010646
v -0.050018 -0.363593 -0.023773
v -0.168168 -0.363593 -0.023773
v -0.168168 -0.334994 0.077379
v -0.168164 -0.328479 0.168753
v -0.126388 -0.330448 0.151932
v -0.126342 -0.325266 0.222630
v -0.121272 -0.324180 0.222559
v -0.126342 -0.373339 0.225791
v -0.126388 -0.382183 0.152318
v -0.168168 -0.386650 0.077763
v -0.150577 -0.382200 0.152318
v 0.124153 -0.380749 0.152306
v 0.168165 -0.382170 0.152317
v 0.168165 -0.386650 0.077760
v 0.168165 -0.387145 0.011029
v 0.168165 -0.408440 0.092739
v 0.052169 -0.387145 0.011029
v -0.168168 -0.387145 0.011029
v -0.050018 -0.387145 0.011029
v -0.047538 -0.404582 -0.177186
v -0.082365 -0.365698 -0.179743
v -0.000757 -0.429062 -0.175575
v -0.047154 -0.427219 -0.175696
v -0.091759 -0.421817 -0.176053
v 0.047951 -0.404582 -0.177186
v -0.083212 -0.356248 -0.180365
v -0.096257 -0.376341 -0.179043
v -0.088658 -0.373800 -0.179211
v -0.090373 -0.370418 -0.115205
v -0.083726 -0.364484 -0.115599
v -0.082425 -0.353268 -0.116344
v -0.098197 -0.372231 -0.115086
v -0.113242 -0.361433 -0.115801
v -0.112412 -0.352131 -0.116420
v -0.104245 -0.375228 -0.179116
v -0.106949 -0.369536 -0.115264
v -0.111880 -0.368748 -0.179543
v -0.106651 -0.345339 -0.116871
v -0.089310 -0.345177 -0.116881
v -0.097803 -0.342924 -0.117032
v -0.087810 -0.350557 -0.180738
v 0.089173 -0.373979 -0.179198
v 0.096934 -0.377195 -0.178987
v 0.052169 -0.363593 -0.023773
v 0.045628 -0.427279 -0.175693
v 0.090204 -0.421947 -0.176044
v 0.131626 -0.413181 -0.176620
v 0.084422 -0.357726 -0.180266
v 0.084038 -0.367423 -0.179629
v 0.085973 -0.366502 -0.115466
v 0.083429 -0.358949 -0.115969
v 0.099487 -0.373021 -0.115032
v 0.086631 -0.349408 -0.116601
v 0.095120 -0.348900 -0.180848
v 0.096933 -0.344255 -0.116942
v 0.088771 -0.352050 -0.180640
v 0.111668 -0.352132 -0.116421
v 0.106794 -0.346673 -0.116782
v 0.108772 -0.352506 -0.180611
v 0.102493 -0.349202 -0.180827
v 0.143305 -0.327806 -0.182234
v 0.113566 -0.361439 -0.180022
v 0.168165 -0.397270 -0.177668
v 0.168165 -0.404392 -0.120354
v 0.168165 -0.408846 -0.033390
v 0.168165 -0.363593 -0.023773
v 0.131727 -0.420682 -0.027681
v 0.090697 -0.429402 -0.027541
v 0.131563 -0.420524 0.078013
v 0.090513 -0.429229 0.078077
v 0.131563 -0.416044 0.152569
v 0.168165 -0.397863 0.227405
v 0.090513 -0.424750 0.152632
v 0.131563 -0.409533 0.228170
v 0.124153 -0.372843 0.225760
v -0.106292 -0.417436 0.228691
v 0.090513 -0.418205 0.228742
v -0.046672 -0.423545 0.229093
v 0.045971 -0.423545 0.229093
v 0.045971 -0.430110 0.152673
v -0.000350 -0.431920 0.152685
v -0.000350 -0.436399 0.078133
v 0.045971 -0.434589 0.078118
v -0.000146 -0.436605 -0.027408
v 0.046174 -0.434778 -0.027456
v -0.046479 -0.434811 -0.027388
v -0.046672 -0.434589 0.078118
v -0.091049 -0.429463 -0.027370
v -0.087082 -0.429685 0.086962
v -0.132356 -0.420693 -0.028618
v -0.136086 -0.418987 0.093503
v -0.168168 -0.409422 0.063260
v -0.168168 -0.398356 0.227431
v -0.150531 -0.373370 0.225793
v -0.168168 -0.382170 0.152317
v -0.150531 -0.340630 0.223640
v -0.168168 -0.340651 0.223641
v -0.168168 -0.349483 0.152074
v -0.150577 -0.349483 0.152074
v -0.046672 -0.430110 0.152673
v -0.000350 -0.425348 0.229211
v 0.148159 -0.372843 0.225759
v 0.091271 -0.351445 0.224352
v 0.100558 -0.347366 0.224084
v -0.077590 -0.342907 0.223790
v -0.084237 -0.348842 0.224181
v -0.092061 -0.350656 0.224301
v 0.082953 -0.349413 0.224218
v -0.076013 -0.334556 0.223241
v 0.077758 -0.344927 0.223924
v 0.080958 -0.350788 0.161848
v 0.088717 -0.354004 0.162062
v 0.096997 -0.352296 0.161947
v 0.102474 -0.347890 0.161654
v 0.105350 -0.338249 0.161015
v 0.100557 -0.329317 0.160421
v 0.105241 -0.338833 0.223522
v 0.103453 -0.330556 0.222979
v 0.098578 -0.325097 0.222619
v 0.088717 -0.322679 0.222461
v 0.094279 -0.326013 0.160203
v 0.075823 -0.344232 0.161412
v 0.086904 -0.325710 0.160182
v 0.076206 -0.334537 0.160768
v 0.078415 -0.327832 0.222799
v 0.080556 -0.328859 0.160392
v 0.075214 -0.337374 0.223427
v -0.079313 -0.326650 0.222721
v -0.089639 -0.321266 0.222368
v -0.094383 -0.324174 0.160081
v -0.100517 -0.323763 0.222531
v -0.083690 -0.325773 0.160187
v -0.105744 -0.345557 0.161501
v -0.077075 -0.333059 0.160670
v -0.098110 -0.352037 0.161931
v -0.076229 -0.342507 0.161299
v -0.082523 -0.350610 0.161836
v -0.090122 -0.353150 0.162004
v -0.100814 -0.347960 0.224123
v -0.107106 -0.339856 0.223590
v -0.106277 -0.330554 0.222980
v -0.107262 -0.336145 0.160876
v -0.103184 -0.328438 0.160364
v 0.148159 -0.344949 0.223924
v 0.148159 -0.380749 0.152306
v 0.148159 -0.352854 0.152100
v 0.168165 -0.344949 0.223924
v 0.168165 -0.352854 0.152100
v 0.113456 -0.360409 -0.115871
v 0.110689 -0.371081 -0.179388
v 0.108773 -0.368942 -0.115304
v 0.105213 -0.375487 -0.179099
v 0.091167 -0.370988 -0.115168
v -0.050018 -0.334994 0.077379
v -0.088148 0.361441 0.177477
v 0.104441 0.375377 0.176559
v 0.135536 0.436605 0.172534
v 0.093708 0.361736 0.177457
v -0.080456 0.365217 0.177228
v 0.101714 0.366699 0.177131
v 0.102197 0.383096 0.176053
v 0.104578 0.373899 0.139276
v 0.095948 0.388167 0.175719
v 0.100472 0.382726 0.138688
v 0.135536 0.434104 0.135282
v 0.094426 0.386138 0.138463
v 0.089335 0.389112 0.175657
v 0.087651 0.386433 0.138444
v 0.081861 0.386180 0.175850
v 0.081802 0.383372 0.138645
v -0.081651 0.361574 0.140093
v 0.077792 0.377853 0.139012
v 0.077066 0.371244 0.139452
v 0.077204 0.378389 0.176362
v 0.077792 0.370317 0.176892
v 0.084076 0.362854 0.177382
v 0.080145 0.363597 0.139959
v 0.087995 0.359213 0.140248
v 0.094425 0.359543 0.140226
v 0.101215 0.363598 0.139959
v -0.076895 0.368802 0.139615
v -0.076079 0.374365 0.176626
v -0.076547 0.375968 0.139138
v -0.081638 0.384150 0.138595
v -0.078102 0.382179 0.176113
v -0.083701 0.387897 0.175736
v -0.091905 0.387021 0.138404
v -0.094301 0.389129 0.175655
v -0.134797 0.436603 0.172534
v -0.102180 0.383490 0.176026
v -0.104582 0.376977 0.176455
v -0.103832 0.370287 0.176894
v -0.097666 0.362972 0.177377
vn -0.0000 0.9969 0.0783
vn -1.0000 -0.0000 -0.0000
vn -0.0000 0.9977 -0.0671
vn -0.0001 -0.0662 -0.9978
vn -0.0000 -0.0703 -0.9975
vn -0.0000 -0.0664 -0.9978
vn -0.0000 0.0656 0.9978
vn -0.0000 -0.9978 0.0668
vn 1.0000 -0.0001 -0.0010
vn 1.0000 -0.0009 0.0001
vn -0.0000 -0.0656 -0.9978
vn -0.0001 -0.0656 -0.9978
vn -0.0000 -0.9978 0.0669
vn 0.8495 0.5269 -0.0267
vn 0.7653 0.6416 -0.0518
vn 0.3023 0.9517 -0.0547
vn 0.1592 0.9845 -0.0741
vn 0.0001 -0.0660 -0.9978
vn 0.0004 -0.0666 -0.9978
vn 0.0001 -0.0663 -0.9978
vn -0.3005 0.9522 -0.0547
vn -0.4414 0.8947 -0.0678
vn -0.0002 -0.0665 -0.9978
vn 0.0001 -0.0662 -0.9978
vn -0.0000 -0.0663 -0.9978
vn -0.7971 -0.6019 0.0485
vn -0.9682 -0.2503 0.0061
vn -0.0000 -0.0661 -0.9978
vn -0.7153 -0.6976 0.0416
vn -0.2462 -0.9666 0.0716
vn -0.1157 -0.9917 0.0557
vn -0.0000 -0.0659 -0.9978
vn 0.4291 -0.9005 0.0709
vn 0.5828 -0.8114 0.0441
vn 0.8705 -0.4906 0.0394
vn -0.0001 -0.0658 -0.9978
vn 0.0001 -0.0655 -0.9979
vn 0.9384 -0.3450 0.0175
vn 0.9990 -0.0431 0.0084
vn -0.0001 -0.0657 -0.9978
vn 0.0001 -0.0658 -0.9978
vn -0.0000 -0.0655 -0.9979
vn 0.0001 -0.0657 -0.9978
vn -0.9997 0.0223 0.0104
vn -0.9023 0.4293 -0.0380
vn -0.8358 0.5481 -0.0308
vn -0.0000 -0.0657 -0.9978
vn 0.9938 0.1105 -0.0135
vn -0.0000 0.0655 0.9979
vn -1.0000 0.0005 -0.0001
vn -1.0000 0.0002 0.0028
vn -1.0000 0.0025 -0.0002
vn -0.0001 0.0656 0.9978
vn -0.0000 -0.0655 -0.9978
vn 0.0001 -0.0654 -0.9979
vn -0.0001 -0.0654 -0.9979
vn 1.0000 -0.0000 -0.0000
vn 0.0800 -0.9938 0.0769
vn -0.3410 -0.9386 0.0523
vn -0.6525 -0.7551 0.0632
vn 0.1417 -0.9875 0.0686
vn 0.6010 -0.7980 0.0451
vn 0.7656 -0.6411 0.0534
vn -0.0000 -0.0662 -0.9978
vn 0.8895 -0.4563 0.0245
vn -0.7684 -0.6388 0.0386
vn -0.0002 -0.0662 -0.9978
vn -0.9702 -0.2418 0.0139
vn -0.9857 -0.1677 0.0170
vn -0.9542 0.2982 -0.0246
vn -0.5277 0.8472 -0.0606
vn -0.9312 0.3641 -0.0204
vn -0.5136 0.8560 -0.0589
vn 0.1155 0.9903 -0.0771
vn -0.0513 0.9967 -0.0624
vn -0.0000 -0.0660 -0.9978
vn 0.4884 0.8715 -0.0437
vn 0.7654 0.6410 -0.0575
vn 0.9279 0.3725 -0.0152
vn -0.0000 -0.0654 -0.9979
vn 0.9973 0.0719 -0.0124
vn 0.9940 -0.1085 0.0131
vn 0.0001 -0.0659 -0.9978
vn -0.0000 0.9978 -0.0669
vn 0.0767 -0.9908 0.1111
vn 0.0393 -0.9958 0.0827
vn 0.0900 -0.9936 0.0685
vn 1.0000 -0.0005 -0.0000
vn -0.0000 -0.9999 0.0155
vn -0.0000 -1.0000 0.0074
vn -0.0460 -0.9971 0.0599
vn -0.9987 -0.0507 0.0004
vn -0.9982 -0.0592 0.0036
vn -0.0000 -0.0801 -0.9968
vn -0.0000 0.9915 -0.1298
vn -0.9975 -0.0701 0.0042
vn -0.0260 0.9978 -0.0603
vn 1.0000 0.0010 -0.0001
vn 0.0259 0.9978 -0.0603
vn -0.0000 0.9978 -0.0668
vn -0.3307 -0.9383 -0.1010
vn -0.4062 -0.9126 -0.0454
vn -0.0000 -0.7746 0.6325
vn -1.0000 0.0006 -0.0000
vn -0.0184 -0.9973 0.0711
vn -0.0176 -0.9972 0.0731
vn -0.0260 -0.9965 0.0796
vn -1.0000 -0.0001 -0.0001
vn -0.0000 0.0657 0.9978
vn -1.0000 -0.0000 0.0006
vn -1.0000 -0.0000 0.0007
vn -0.0007 0.9982 -0.0594
vn -0.0000 0.9982 -0.0598
vn -0.0000 -0.0075 -1.0000
vn -0.0007 0.9928 -0.1195
vn -0.0000 -0.0074 -1.0000
vn -0.0000 -0.0081 -1.0000
vn -0.0000 0.9982 -0.0600
vn -0.0000 1.0000 -0.0074
vn 0.9998 0.0171 0.0116
vn -0.0000 0.9957 -0.0923
vn -0.0000 0.8282 0.5605
vn 0.9993 0.0377 0.0061
vn -0.0000 0.9957 -0.0922
vn -0.6668 0.7431 -0.0571
vn -0.3177 0.9464 -0.0585
vn -0.7904 0.6120 -0.0283
vn 0.0002 -0.0664 -0.9978
vn -0.9932 0.1136 -0.0232
vn 0.1383 0.9886 -0.0593
vn -0.2262 0.9716 -0.0693
vn -0.0002 -0.0664 -0.9978
vn 0.2949 0.9528 -0.0725
vn 0.6479 0.7606 -0.0404
vn 0.7904 0.6103 -0.0532
vn 0.9872 0.1593 0.0028
vn 0.7633 -0.6453 0.0317
vn 0.9960 -0.0891 -0.0053
vn 0.8843 -0.4653 0.0389
vn -0.7623 -0.6462 0.0365
vn -0.0000 -0.0667 -0.9978
vn -0.4024 -0.9130 0.0675
vn -0.2569 -0.9648 0.0561
vn -0.7785 -0.6264 0.0387
vn 0.0752 -0.9945 0.0723
vn 0.2638 -0.9629 0.0563
vn 0.4722 -0.8790 0.0669
vn -0.9960 -0.0882 0.0163
vn -0.9994 0.0291 0.0197
vn -0.9991 0.0384 0.0172
vn 0.9478 0.3170 -0.0331
vn 0.7879 0.6149 -0.0326
vn 0.9991 -0.0386 0.0147
vn 0.9482 -0.3176 0.0086
vn 0.0002 -0.0662 -0.9978
vn 0.4481 -0.8924 0.0522
vn 0.4452 -0.8939 0.0518
vn 0.7944 -0.6052 0.0515
vn -0.7466 -0.6642 0.0376
vn -0.4664 -0.8821 0.0662
vn -0.2386 -0.9696 0.0543
vn -0.0411 -0.9964 0.0736
vn -0.0001 -0.0655 -0.9979
vn 0.3939 -0.9121 -0.1133
vn 0.3039 -0.9515 -0.0487
vn 0.3094 -0.9509 0.0031
vn 0.3017 -0.9522 -0.0482
vn 0.2061 -0.9773 -0.0494
vn 0.2075 -0.9770 -0.0497
vn 0.2079 -0.9782 0.0018
vn 0.3128 -0.9498 0.0019
vn 0.2074 -0.9782 0.0020
vn 0.2072 -0.9765 0.0587
vn 0.2921 -0.9547 0.0574
vn 0.3043 -0.9491 0.0817
vn 0.3178 -0.9453 0.0742
vn 0.2068 -0.9748 0.0840
vn -0.0000 0.0655 0.9978
vn 0.2071 -0.9747 0.0838
vn 0.1191 -0.9892 0.0851
vn 0.1193 -0.9892 0.0850
vn 0.0390 -0.9974 0.0599
vn 0.0389 -0.9956 0.0855
vn 0.1193 -0.9911 0.0595
vn 0.0391 -0.9992 0.0020
vn 0.0394 -0.9992 0.0019
vn 0.1195 -0.9928 0.0020
vn 0.0382 -0.9980 -0.0506
vn 0.1196 -0.9915 -0.0506
vn 0.0393 -0.9979 -0.0510
vn 0.1199 -0.9928 0.0018
vn -0.0387 -0.9992 0.0019
vn -0.0395 -0.9979 -0.0506
vn -0.0387 -0.9980 -0.0509
vn -0.1197 -0.9915 -0.0502
vn -0.1190 -0.9916 -0.0504
vn -0.1191 -0.9929 0.0019
vn -0.0390 -0.9992 0.0020
vn -0.2057 -0.9774 -0.0493
vn -0.2060 -0.9773 -0.0491
vn -0.2078 -0.9781 0.0053
vn -0.1200 -0.9928 0.0022
vn -0.2124 -0.9772 0.0072
vn -0.2945 -0.9545 -0.0481
vn -0.3421 -0.9395 -0.0181
vn -0.2896 -0.9571 0.0045
vn -0.3394 -0.9385 0.0633
vn -0.0000 0.0654 0.9979
vn -0.0002 0.0656 0.9978
vn -0.2952 -0.9524 0.0760
vn -0.0012 0.9925 -0.1225
vn -0.0000 0.9924 -0.1228
vn 1.0000 -0.0000 -0.0006
vn 0.0017 0.9982 -0.0600
vn -0.0013 0.9929 -0.1193
vn -0.2057 -0.9770 0.0565
vn -0.1074 -0.9924 0.0596
vn -0.1480 -0.9854 0.0847
vn -0.1021 -0.9922 0.0719
vn -0.0390 -0.9956 0.0855
vn -0.0389 -0.9956 0.0855
vn -0.0390 -0.9974 0.0599
vn 0.0390 -0.9956 0.0855
vn 0.0001 0.0657 0.9978
vn -0.0000 0.9943 -0.1070
vn 0.0001 0.0658 0.9978
vn -0.0001 0.0655 0.9978
vn -0.0000 0.0660 0.9978
vn 0.2378 0.9701 -0.0496
vn 0.6544 0.7552 -0.0376
vn 0.3834 0.9230 -0.0326
vn -0.0000 0.0663 0.9978
vn -0.2024 0.9788 -0.0319
vn 0.0001 0.0661 0.9978
vn 0.0001 0.0662 0.9978
vn -0.8816 -0.4710 0.0315
vn -0.9774 -0.2114 -0.0037
vn -0.9582 0.2860 0.0010
vn -0.0002 0.0655 0.9978
vn -0.0002 0.0655 0.9979
vn -0.7465 -0.6651 0.0214
vn -0.0002 0.0644 0.9979
vn -0.2385 -0.9707 0.0307
vn -0.4664 -0.8834 0.0451
vn -0.0001 0.0663 0.9978
vn -0.0411 -0.9979 0.0498
vn -0.0000 0.0662 0.9978
vn 0.0002 0.0660 0.9978
vn 0.4480 -0.8935 0.0305
vn 0.4450 -0.8950 0.0300
vn 0.7945 -0.6062 0.0372
vn 0.9481 -0.3181 0.0006
vn 0.2240 -0.9742 0.0284
vn -0.1482 -0.9873 0.0574
vn -0.0000 0.0651 0.9979
vn -0.4628 -0.8863 0.0200
vn -0.7411 -0.6700 0.0425
vn -0.0001 0.0664 0.9978
vn -0.9230 -0.3848 0.0065
vn -0.9960 -0.0882 0.0148
vn -0.7901 0.6128 -0.0133
vn -0.0000 0.0661 0.9978
vn -0.9827 0.1843 -0.0202
vn -0.3176 0.9476 -0.0356
vn -0.2262 0.9730 -0.0460
vn 0.1383 0.9898 -0.0353
vn -0.6668 0.7442 -0.0394
vn 0.6477 0.7616 -0.0218
vn 0.2949 0.9542 -0.0497
vn 0.7905 0.6113 -0.0388
vn -0.0001 0.0657 0.9978
vn 0.9872 0.1596 0.0070
vn 0.9960 -0.0893 -0.0078
vn 0.8843 -0.4660 0.0279
vn 0.4368 -0.8983 0.0488
vn 0.7631 -0.6461 0.0159
vn -0.0000 0.0659 0.9978
vn 0.9992 -0.0386 0.0141
vn 0.9479 0.3175 -0.0258
vn 0.7877 0.6158 -0.0175
vn -0.0001 0.0659 0.9978
vn -0.0005 0.0660 0.9978
vn -0.8771 0.4793 -0.0309
vn -0.6275 0.7782 -0.0258
vn -0.4028 0.9139 -0.0494
vn -0.0000 0.9940 -0.1094
vn 0.1182 -0.9917 -0.0502
vn -0.9584 0.2855 -0.0062
vn -0.9775 -0.2111 0.0017
vn -0.8815 -0.4702 0.0425
vn -0.6277 0.7772 -0.0447
vn -0.8771 0.4785 -0.0422
vn 0.0001 -0.0656 -0.9978
vn -0.4028 0.9125 -0.0711
vn -0.2025 0.9777 -0.0557
vn -0.0001 -0.0663 -0.9978
vn 0.2378 0.9686 -0.0727
vn 0.6545 0.7540 -0.0556
vn 0.3835 0.9219 -0.0550
vn -0.9999 -0.0082 0.0067
vn -0.2047 -0.9776 -0.0486
vn -0.0000 -0.9981 0.0609
vn -0.0009 -0.9982 0.0600
vn 0.9999 0.0145 -0.0001
vn 0.9999 0.0170 -0.0010
vn 1.0000 0.0024 -0.0019
vn 0.9998 0.0201 -0.0012
vn -0.0000 0.0658 0.9978
vn -0.0001 0.0654 0.9979
vn -0.9604 -0.2786 0.0075
vn -0.9069 -0.4188 0.0460
vn -0.6308 -0.7750 0.0368
vn -0.4923 -0.8678 0.0674
vn 0.0002 -0.0663 -0.9978
vn -0.0001 -0.0661 -0.9978
vn -0.1417 -0.9881 0.0596
vn -0.0436 -0.9963 0.0737
vn 0.3659 -0.9293 0.0503
vn 0.4643 -0.8832 0.0659
vn 0.0006 -0.0668 -0.9978
vn 0.8097 -0.5853 0.0429
vn 0.8588 -0.5119 0.0209
vn 0.9940 -0.1081 0.0172
vn 0.9973 0.0715 -0.0176
vn 0.7654 0.6400 -0.0677
vn 0.9278 0.3730 -0.0088
vn 0.4883 0.8720 -0.0340
vn -0.0000 -0.0658 -0.9978
vn -0.0513 0.9969 -0.0597
vn 0.1155 0.9897 -0.0848
vn -0.0001 -0.0726 -0.9974
vn 0.0001 -0.0677 -0.9977
vn -0.5136 0.8559 -0.0603
vn 0.0002 -0.0660 -0.9978
vn -0.5277 0.8470 -0.0636
vn -0.9508 0.3096 -0.0131
vn -0.0000 0.0665 0.9978
vn -0.0001 -0.0659 -0.9978
vn -0.8359 0.5483 -0.0269
vn -0.4414 0.8943 -0.0736
vn -0.3006 0.9525 -0.0489
vn -0.9987 0.0494 0.0146
vn -0.9023 0.4289 -0.0446
vn 0.0001 -0.0664 -0.9978
vn -0.8494 -0.5251 0.0525
vn -0.9681 -0.2506 0.0014
vn -0.7152 -0.6983 0.0307
vn -0.2698 -0.9594 0.0818
vn -0.1157 -0.9921 0.0487
vn 0.4291 -0.8998 0.0785
vn 0.5827 -0.8118 0.0373
vn 0.8705 -0.4903 0.0440
vn 0.9384 -0.3452 0.0137
vn 0.9937 0.1102 -0.0177
vn 0.9990 -0.0428 0.0122
vn 0.8495 0.5272 -0.0210
vn 0.7652 0.6412 -0.0582
vn 0.1591 0.9840 -0.0801
vn -0.0000 0.0653 0.9979
vn 0.3022 0.9520 -0.0488
vn -0.0000 0.9978 -0.0670
vn 0.0001 -0.0661 -0.9978
vn -0.9542 0.2988 -0.0154
s 0
usemtl Material.022
f 2//1 11//1 1//1
f 5//1 2//1 1//1
f 6//2 1//2 3//2
f 3//3 1//3 12//3
f 10//4 4//4 1//4
f 1//5 4//5 5//5
f 1//4 6//4 8//4
f 7//4 10//4 1//4
f 1//4 9//4 7//4
f 8//6 9//6 1//6
f 12//1 1//1 11//1
f 13//2 14//2 12//2
f 13//2 12//2 11//2
f 12//3 14//3 3//3
f 15//2 14//2 13//2
f 15//2 17//2 14//2
f 14//7 18//7 3//7
f 16//7 18//7 14//7
f 14//7 17//7 16//7
f 19//8 18//8 22//8
f 19//8 21//8 18//8
f 20//9 18//9 16//9
f 22//10 18//10 20//10
f 3//7 18//7 21//7
f 22//11 23//11 19//11
f 23//11 22//11 26//11
f 11//11 24//11 22//11
f 26//11 22//11 24//11
f 22//10 20//10 25//10
f 22//11 25//11 27//11
f 22//12 27//12 11//12
f 27//13 25//13 20//13
f 20//13 13//13 27//13
f 13//2 11//2 27//2
f 28//14 26//14 24//14
f 26//15 28//15 29//15
f 29//16 23//16 26//16
f 23//17 29//17 30//17
f 28//18 30//18 29//18
f 30//19 31//19 32//19
f 30//20 36//20 31//20
f 35//21 23//21 30//21
f 35//22 30//22 32//22
f 28//23 33//23 30//23
f 33//24 34//24 30//24
f 34//25 36//25 30//25
f 38//26 37//26 36//26
f 31//27 36//27 37//27
f 36//28 34//28 39//28
f 36//29 39//29 38//29
f 39//30 40//30 38//30
f 40//31 39//31 41//31
f 34//32 41//32 39//32
f 42//33 40//33 41//33
f 42//34 41//34 34//34
f 34//35 43//35 42//35
f 42//36 11//36 40//36
f 43//37 11//37 42//37
f 43//38 34//38 33//38
f 33//39 24//39 43//39
f 24//40 11//40 43//40
f 38//41 40//41 2//41
f 11//42 2//42 40//42
f 37//11 38//11 2//11
f 44//43 37//43 2//43
f 31//44 37//44 44//44
f 32//45 31//45 44//45
f 44//11 2//11 19//11
f 19//42 35//42 44//42
f 44//46 35//46 32//46
f 19//47 23//47 35//47
f 24//48 33//48 28//48
f 51//8 21//8 19//8
f 21//49 45//49 3//49
f 48//49 45//49 21//49
f 46//50 50//50 21//50
f 21//51 47//51 46//51
f 51//52 47//52 21//52
f 49//53 48//53 21//53
f 21//7 50//7 49//7
f 56//47 51//47 19//47
f 51//40 52//40 57//40
f 51//54 55//54 52//54
f 51//11 53//11 54//11
f 53//11 51//11 58//11
f 51//52 54//52 47//52
f 51//55 56//55 55//55
f 57//11 58//11 51//11
f 2//11 58//11 61//11
f 2//1 5//1 58//1
f 57//56 59//56 58//56
f 59//11 61//11 58//11
f 53//57 58//57 60//57
f 5//1 62//1 58//1
f 60//57 58//57 62//57
f 48//3 62//3 5//3
f 62//57 48//57 60//57
f 65//58 61//58 63//58
f 61//59 64//59 63//59
f 61//60 59//60 64//60
f 2//11 61//11 65//11
f 63//61 66//61 65//61
f 65//62 66//62 68//62
f 67//47 2//47 65//47
f 68//63 67//63 65//63
f 70//28 68//28 64//28
f 68//64 66//64 64//64
f 69//28 68//28 70//28
f 67//65 68//65 69//65
f 59//66 70//66 64//66
f 69//25 70//25 71//25
f 71//67 70//67 72//67
f 59//68 72//68 70//68
f 72//69 59//69 57//69
f 71//25 72//25 73//25
f 73//70 72//70 57//70
f 71//71 73//71 52//71
f 57//72 52//72 73//72
f 52//73 55//73 71//73
f 75//74 71//74 56//74
f 55//75 56//75 71//75
f 74//76 71//76 75//76
f 74//23 69//23 71//23
f 75//77 56//77 76//77
f 76//78 74//78 75//78
f 76//40 2//40 77//40
f 74//79 76//79 77//79
f 76//11 19//11 2//11
f 56//80 19//80 76//80
f 77//81 69//81 74//81
f 69//82 77//82 67//82
f 77//55 2//55 67//55
f 64//83 66//83 63//83
f 47//64 60//64 78//64
f 47//13 53//13 60//13
f 60//57 48//57 78//57
f 79//84 78//84 80//84
f 78//84 79//84 46//84
f 78//64 46//64 47//64
f 81//57 80//57 78//57
f 81//57 78//57 82//57
f 78//57 49//57 82//57
f 78//57 48//57 49//57
f 83//85 84//85 82//85
f 82//86 49//86 83//86
f 85//87 82//87 84//87
f 85//88 81//88 82//88
f 84//89 86//89 85//89
f 86//90 81//90 85//90
f 86//91 84//91 88//91
f 89//92 87//92 86//92
f 81//90 86//90 87//90
f 89//93 86//93 88//93
f 92//94 90//94 89//94
f 89//95 90//95 94//95
f 91//96 87//96 89//96
f 93//97 91//97 89//97
f 89//94 88//94 92//94
f 94//95 93//95 89//95
f 94//98 95//98 16//98
f 97//98 95//98 94//98
f 94//99 90//99 96//99
f 97//100 94//100 96//100
f 50//3 93//3 94//3
f 94//3 16//3 50//3
f 98//11 97//11 96//11
f 98//55 101//55 97//55
f 99//11 104//11 97//11
f 99//11 97//11 102//11
f 97//98 100//98 95//98
f 97//11 103//11 100//11
f 97//40 101//40 102//40
f 105//11 103//11 97//11
f 97//11 104//11 105//11
f 106//2 108//2 105//2
f 105//101 107//101 106//101
f 107//102 105//102 104//102
f 103//2 105//2 108//2
f 108//103 110//103 109//103
f 109//90 112//90 108//90
f 110//103 108//103 111//103
f 111//2 108//2 106//2
f 108//2 15//2 103//2
f 108//2 113//2 15//2
f 113//104 108//104 112//104
f 112//105 114//105 113//105
f 113//106 114//106 115//106
f 115//107 17//107 113//107
f 113//108 17//108 15//108
f 116//109 17//109 115//109
f 116//7 115//7 117//7
f 115//110 118//110 117//110
f 118//111 115//111 114//111
f 119//112 120//112 118//112
f 123//113 119//113 118//113
f 114//114 92//114 118//114
f 120//115 117//115 118//115
f 84//116 118//116 88//116
f 118//116 84//116 121//116
f 121//117 122//117 118//117
f 122//118 123//118 118//118
f 92//116 88//116 118//116
f 125//57 123//57 122//57
f 126//119 123//119 124//119
f 125//57 124//57 123//57
f 128//119 123//119 126//119
f 127//119 123//119 128//119
f 123//119 127//119 119//119
f 110//120 128//120 129//120
f 126//121 129//121 128//121
f 111//122 128//122 110//122
f 128//122 111//122 127//122
f 135//40 129//40 130//40
f 129//11 137//11 130//11
f 110//123 129//123 96//123
f 129//124 126//124 134//124
f 129//47 134//47 131//47
f 129//47 131//47 132//47
f 129//47 132//47 133//47
f 133//11 104//11 129//11
f 104//11 136//11 129//11
f 135//11 96//11 129//11
f 129//40 136//40 137//40
f 138//125 139//125 137//125
f 138//126 137//126 136//126
f 139//127 130//127 137//127
f 141//128 139//128 138//128
f 141//128 140//128 139//128
f 130//129 139//129 140//129
f 136//130 144//130 141//130
f 136//131 141//131 138//131
f 142//28 141//28 145//28
f 142//132 143//132 141//132
f 143//64 140//64 141//64
f 144//133 145//133 141//133
f 144//134 146//134 145//134
f 146//135 142//135 145//135
f 146//11 104//11 99//11
f 142//136 146//136 99//136
f 144//11 104//11 146//11
f 104//11 144//11 136//11
f 147//25 148//25 143//25
f 147//137 143//137 102//137
f 99//138 143//138 142//138
f 143//139 99//139 102//139
f 140//64 143//64 148//64
f 140//140 148//140 150//140
f 148//141 147//141 149//141
f 148//142 98//142 150//142
f 148//143 149//143 98//143
f 150//144 135//144 140//144
f 135//11 150//11 96//11
f 150//11 98//11 96//11
f 149//145 101//145 98//145
f 101//146 149//146 147//146
f 102//147 101//147 147//147
f 140//148 135//148 130//148
f 152//11 134//11 151//11
f 151//11 134//11 158//11
f 134//11 152//11 156//11
f 126//149 153//149 134//149
f 153//150 91//150 134//150
f 134//47 154//47 131//47
f 134//47 155//47 154//47
f 156//11 155//11 134//11
f 157//11 134//11 91//11
f 134//12 157//12 158//12
f 160//151 159//151 158//151
f 159//152 151//152 158//152
f 160//153 158//153 157//153
f 162//154 160//154 157//154
f 159//6 160//6 161//6
f 160//155 162//155 161//155
f 163//156 164//156 162//156
f 162//157 165//157 163//157
f 164//28 167//28 162//28
f 162//158 157//158 165//158
f 166//28 162//28 167//28
f 162//25 166//25 161//25
f 168//159 166//159 167//159
f 167//160 169//160 168//160
f 167//161 164//161 169//161
f 169//83 163//83 170//83
f 164//162 163//162 169//162
f 168//163 169//163 170//163
f 171//43 168//43 170//43
f 171//11 170//11 156//11
f 163//54 91//54 170//54
f 170//104 93//104 79//104
f 170//11 79//11 80//11
f 91//100 93//100 170//100
f 172//11 156//11 170//11
f 170//11 80//11 172//11
f 173//57 172//57 81//57
f 173//164 156//164 172//164
f 81//57 172//57 80//57
f 174//165 156//165 173//165
f 175//57 174//57 173//57
f 81//57 175//57 173//57
f 175//103 87//103 153//103
f 153//122 124//122 175//122
f 175//57 124//57 174//57
f 87//103 175//103 81//103
f 124//57 125//57 174//57
f 125//166 176//166 174//166
f 156//167 174//167 176//167
f 176//168 155//168 156//168
f 155//169 176//169 177//169
f 178//170 177//170 176//170
f 176//171 125//171 178//171
f 177//172 178//172 179//172
f 180//173 179//173 178//173
f 178//174 125//174 180//174
f 180//175 181//175 183//175
f 181//176 180//176 125//176
f 179//173 180//173 182//173
f 183//177 182//177 180//177
f 117//7 185//7 183//7
f 117//178 183//178 184//178
f 181//178 184//178 183//178
f 185//109 186//109 183//109
f 182//179 183//179 186//179
f 187//7 186//7 185//7
f 188//7 186//7 187//7
f 186//180 189//180 182//180
f 189//181 186//181 188//181
f 191//182 189//182 190//182
f 188//183 190//183 189//183
f 192//184 182//184 189//184
f 189//182 191//182 192//182
f 193//185 192//185 191//185
f 192//186 193//186 194//186
f 182//184 192//184 179//184
f 194//187 179//187 192//187
f 194//188 131//188 154//188
f 154//189 177//189 194//189
f 131//190 194//190 193//190
f 179//191 194//191 177//191
f 191//192 195//192 193//192
f 193//193 132//193 131//193
f 132//194 193//194 195//194
f 195//195 133//195 132//195
f 133//196 195//196 197//196
f 196//197 197//197 195//197
f 195//198 191//198 196//198
f 197//199 107//199 133//199
f 107//200 197//200 199//200
f 198//201 199//201 197//201
f 197//202 196//202 198//202
f 199//203 198//203 200//203
f 199//204 106//204 107//204
f 106//205 199//205 201//205
f 200//206 201//206 199//206
f 202//2 119//2 201//2
f 201//207 200//207 202//207
f 201//2 127//2 106//2
f 127//2 201//2 119//2
f 203//208 202//208 117//208
f 185//53 117//53 202//53
f 205//209 202//209 203//209
f 206//2 204//2 202//2
f 119//2 202//2 204//2
f 185//210 202//210 200//210
f 202//49 205//49 206//49
f 204//2 206//2 207//2
f 205//211 207//211 206//211
f 208//116 204//116 207//116
f 207//212 205//212 208//212
f 203//213 208//213 205//213
f 208//213 203//213 120//213
f 204//114 208//114 120//114
f 204//214 120//214 119//214
f 117//215 120//215 203//215
f 185//216 200//216 198//216
f 209//217 198//217 196//217
f 187//218 198//218 209//218
f 198//219 187//219 185//219
f 209//220 210//220 187//220
f 210//221 209//221 190//221
f 196//222 190//222 209//222
f 188//208 187//208 210//208
f 190//223 188//223 210//223
f 190//222 196//222 191//222
f 211//224 184//224 181//224
f 211//225 121//225 184//225
f 84//57 184//57 121//57
f 184//57 84//57 83//57
f 184//226 212//226 217//226
f 184//7 213//7 212//7
f 83//227 213//227 184//227
f 217//109 214//109 184//109
f 184//109 214//109 215//109
f 184//228 215//228 216//228
f 216//178 117//178 184//178
f 214//7 217//7 218//7
f 221//229 217//229 212//229
f 218//49 217//49 219//49
f 220//230 219//230 217//230
f 217//231 221//231 220//231
f 220//232 221//232 224//232
f 222//233 221//233 212//233
f 221//234 222//234 223//234
f 221//235 223//235 224//235
f 220//232 224//232 225//232
f 227//236 225//236 224//236
f 224//237 226//237 227//237
f 224//238 223//238 226//238
f 83//239 228//239 227//239
f 83//240 227//240 226//240
f 225//241 227//241 228//241
f 228//242 83//242 229//242
f 228//243 229//243 230//243
f 228//244 230//244 225//244
f 231//234 225//234 230//234
f 230//245 232//245 231//245
f 229//246 232//246 230//246
f 233//247 231//247 232//247
f 233//248 232//248 235//248
f 232//249 229//249 234//249
f 234//250 235//250 232//250
f 234//251 233//251 235//251
f 236//7 234//7 237//7
f 234//252 236//252 233//252
f 238//7 234//7 229//7
f 238//208 237//208 234//208
f 239//253 238//253 240//253
f 239//254 241//254 238//254
f 116//7 238//7 16//7
f 238//255 116//255 240//255
f 241//256 237//256 238//256
f 229//7 50//7 238//7
f 238//109 50//109 16//109
f 242//247 243//247 241//247
f 242//232 241//232 239//232
f 241//257 243//257 237//257
f 242//232 244//232 243//232
f 244//258 245//258 243//258
f 218//259 237//259 243//259
f 218//260 243//260 245//260
f 247//234 246//234 245//234
f 214//261 245//261 246//261
f 244//262 247//262 245//262
f 245//263 214//263 218//263
f 215//264 246//264 247//264
f 247//265 216//265 215//265
f 247//266 244//266 216//266
f 215//267 214//267 246//267
f 244//268 242//268 248//268
f 244//269 248//269 216//269
f 242//270 249//270 248//270
f 249//7 117//7 248//7
f 117//271 216//271 248//271
f 116//7 117//7 249//7
f 250//240 116//240 249//240
f 249//272 242//272 251//272
f 251//273 250//273 249//273
f 239//235 251//235 242//235
f 250//274 251//274 252//274
f 252//232 251//232 239//232
f 252//275 239//275 240//275
f 240//276 250//276 252//276
f 240//277 116//277 250//277
f 236//7 237//7 218//7
f 236//278 231//278 233//278
f 236//279 219//279 231//279
f 218//7 219//7 236//7
f 231//232 220//232 225//232
f 219//280 220//280 231//280
f 83//281 50//281 229//281
f 83//282 226//282 213//282
f 223//283 213//283 226//283
f 223//284 222//284 213//284
f 222//285 212//285 213//285
f 181//7 253//7 211//7
f 253//2 254//2 211//2
f 121//225 211//225 254//225
f 255//116 122//116 254//116
f 254//2 253//2 255//2
f 122//117 121//117 254//117
f 255//286 256//286 257//286
f 256//286 255//286 253//286
f 122//116 255//116 257//116
f 181//57 257//57 256//57
f 257//57 181//57 122//57
f 253//7 181//7 256//7
f 122//57 181//57 125//57
f 177//287 154//287 155//287
f 171//288 259//288 258//288
f 171//289 258//289 166//289
f 156//12 259//12 171//12
f 166//290 168//290 171//290
f 259//291 261//291 260//291
f 259//292 260//292 258//292
f 156//293 261//293 259//293
f 261//294 161//294 260//294
f 261//295 152//295 161//295
f 156//11 152//11 261//11
f 161//296 258//296 260//296
f 161//4 166//4 258//4
f 91//40 163//40 165//40
f 157//40 91//40 165//40
f 159//25 161//25 262//25
f 152//297 262//297 161//297
f 151//298 159//298 262//298
f 262//299 152//299 151//299
f 124//122 153//122 126//122
f 153//300 87//300 91//300
f 104//301 133//301 107//301
f 127//2 111//2 106//2
f 116//7 16//7 17//7
f 114//302 112//302 263//302
f 263//303 92//303 114//303
f 112//90 109//90 263//90
f 90//304 263//304 109//304
f 90//305 92//305 263//305
f 109//306 110//306 96//306
f 96//307 90//307 109//307
f 100//84 103//84 15//84
f 15//84 95//84 100//84
f 15//4 20//4 95//4
f 16//9 95//9 20//9
f 93//104 50//104 46//104
f 93//104 46//104 79//104
f 49//224 50//224 83//224
f 53//13 47//13 54//13
f 5//3 45//3 48//3
f 45//208 264//208 3//208
f 45//308 268//308 264//308
f 266//57 45//57 5//57
f 45//109 265//109 269//109
f 265//309 45//309 270//309
f 270//7 45//7 266//7
f 45//7 269//7 267//7
f 45//247 267//247 268//247
f 271//310 265//310 270//310
f 266//7 272//7 270//7
f 273//311 271//311 270//311
f 270//312 272//312 273//312
f 272//313 275//313 273//313
f 273//314 274//314 271//314
f 274//315 273//315 275//315
f 275//316 272//316 276//316
f 274//315 275//315 277//315
f 276//317 277//317 275//317
f 276//318 278//318 277//318
f 278//319 279//319 277//319
f 274//320 277//320 279//320
f 274//28 279//28 280//28
f 281//6 280//6 279//6
f 278//321 281//321 279//321
f 281//322 278//322 283//322
f 283//323 282//323 281//323
f 280//6 281//6 282//6
f 282//324 283//324 284//324
f 284//178 283//178 268//178
f 268//7 283//7 278//7
f 268//7 285//7 284//7
f 286//325 284//325 285//325
f 284//326 286//326 282//326
f 285//327 287//327 286//327
f 286//64 280//64 282//64
f 280//328 286//328 287//328
f 288//329 287//329 267//329
f 285//330 267//330 287//330
f 280//331 287//331 5//331
f 5//332 287//332 288//332
f 289//333 288//333 267//333
f 5//334 288//334 289//334
f 5//20 289//20 271//20
f 267//335 269//335 289//335
f 271//336 289//336 269//336
f 285//337 268//337 267//337
f 290//338 274//338 280//338
f 5//28 4//28 280//28
f 290//339 280//339 268//339
f 280//340 264//340 268//340
f 280//341 4//341 264//341
f 291//342 292//342 290//342
f 268//343 291//343 290//343
f 292//344 274//344 290//344
f 294//345 293//345 292//345
f 293//25 274//25 292//25
f 291//346 294//346 292//346
f 291//49 278//49 294//49
f 294//109 278//109 295//109
f 294//347 295//347 293//347
f 295//348 296//348 293//348
f 295//109 278//109 297//109
f 296//349 295//349 297//349
f 298//7 297//7 278//7
f 298//7 299//7 297//7
f 8//350 296//350 297//350
f 8//351 297//351 299//351
f 299//352 9//352 8//352
f 9//353 299//353 300//353
f 299//7 298//7 300//7
f 7//354 300//354 301//354
f 300//355 7//355 9//355
f 300//53 298//53 301//53
f 301//356 10//356 7//356
f 298//7 3//7 301//7
f 301//308 3//308 302//308
f 10//357 301//357 302//357
f 4//358 302//358 264//358
f 3//359 264//359 302//359
f 302//360 4//360 10//360
f 266//7 298//7 278//7
f 6//361 298//361 266//361
f 3//2 298//2 6//2
f 6//64 296//64 8//64
f 6//362 293//362 296//362
f 6//64 274//64 293//64
f 278//7 291//7 268//7
f 278//109 276//109 266//109
f 266//7 276//7 272//7
f 271//24 274//24 5//24
f 5//57 274//57 266//57
f 266//361 274//361 6//361
f 269//363 265//363 271//363
f 15//64 13//64 20//64
