# Blender 5.0.1
# www.blender.org
mtllib left_elbow_x_link_visual_3.mtl
o i01.left.bicep.full.004_visual.001
v 0.391427 -0.185800 0.521080
v 0.389174 -0.147996 0.504375
v 0.340211 -0.185012 0.520730
v 0.383112 -0.202499 0.429810
v 0.412675 -0.167132 0.512831
v 0.373847 -0.198616 0.526733
v 0.346270 -0.232847 0.407516
v 0.354505 -0.210879 0.532152
v 0.315071 -0.242695 0.454287
v 0.322014 -0.252045 0.373210
v 0.333025 -0.221797 0.536985
v 0.275413 -0.213858 0.533476
v 0.309019 -0.232414 0.541670
v 0.279108 -0.243229 0.546452
v 0.278334 -0.269047 0.389585
v 0.257469 -0.286998 0.331737
v 0.220039 -0.312160 0.253777
v 0.268000 -0.311410 0.156458
v 0.235577 -0.285133 0.377083
v 0.276119 -0.289161 0.273227
v 0.228476 -0.326474 0.160607
v 0.195693 -0.377892 -0.071689
v 0.197917 -0.330861 0.179562
v 0.189604 -0.361311 0.028642
v 0.219595 -0.352199 0.029247
v 0.232340 -0.350197 0.009499
v 0.185472 -0.406837 -0.212215
v 0.222746 -0.377924 -0.132682
v 0.265946 -0.327076 0.058013
v 0.241984 -0.370427 -0.143496
v 0.284826 -0.315008 0.064342
v 0.307520 -0.275753 0.261976
v 0.304943 -0.290513 0.160116
v 0.336818 -0.258307 0.248616
v 0.355603 -0.230680 0.368927
v 0.343050 -0.258637 0.199961
v 0.318766 -0.284077 0.129352
v 0.341952 -0.264714 0.136204
v 0.379995 -0.212887 0.337296
v 0.300909 -0.312909 -0.006194
v 0.312307 -0.257718 0.086757
v 0.296981 -0.325045 -0.099372
v 0.275162 -0.339031 -0.068861
v 0.235441 -0.359390 -0.312644
v 0.257408 -0.376461 -0.269514
v 0.266277 -0.368024 -0.264267
v 0.252457 -0.389625 -0.343598
v 0.234347 -0.404360 -0.337109
v 0.232944 -0.373748 -0.350637
v 0.202042 -0.393682 -0.341830
v 0.188915 -0.401239 -0.387846
v 0.158766 -0.411159 -0.334107
v 0.205655 -0.381242 -0.302989
v 0.181134 -0.376658 -0.349352
v 0.170719 -0.386423 -0.394392
v 0.214023 -0.416797 -0.331614
v 0.175710 -0.432191 -0.324811
v 0.142569 -0.439320 -0.321661
v 0.142895 -0.426608 -0.263460
v 0.162732 -0.405293 -0.173365
v 0.193195 -0.412142 -0.257270
v 0.213189 -0.406494 -0.275156
v 0.230735 -0.396398 -0.271913
v 0.260158 -0.363392 -0.177986
v 0.129866 -0.419164 -0.219838
v 0.163336 -0.375019 -0.015858
v 0.178142 -0.384388 -0.081703
v 0.156590 -0.360568 0.060234
v 0.186382 -0.325195 0.220196
v 0.133528 -0.377577 -0.017402
v 0.147345 -0.338981 0.166412
v 0.112010 -0.362649 0.051883
v 0.182037 -0.311031 0.293669
v 0.201426 -0.283247 0.424032
v 0.162039 -0.313238 0.287144
v 0.161593 -0.288716 0.406989
v 0.126234 -0.316883 0.270319
v 0.110811 -0.296814 0.360503
v 0.096771 -0.339942 0.152212
v 0.065408 -0.383165 -0.065661
v 0.073963 -0.337030 0.150848
v 0.087928 -0.292151 0.369239
v 0.081446 -0.384104 -0.059222
v 0.101286 -0.385090 -0.057410
v 0.069180 -0.420269 -0.230737
v 0.045650 -0.406222 -0.185395
v 0.101441 -0.410476 -0.176112
v 0.066424 -0.440944 -0.320945
v 0.114158 -0.442413 -0.320295
v 0.026859 -0.434480 -0.323801
v 0.023368 -0.418588 -0.261446
v 0.109045 -0.428467 -0.259737
v 0.109504 -0.419363 -0.330482
v 0.054575 -0.417125 -0.331471
v 0.005130 -0.407618 -0.335672
v 0.052420 -0.423550 -0.377987
v 0.104384 -0.423753 -0.377897
v -0.001800 -0.413920 -0.382242
v 0.050910 -0.408304 -0.384723
v 0.000069 -0.398657 -0.388986
v 0.099411 -0.409196 -0.384330
v 0.055503 -0.400566 -0.338788
v 0.059031 -0.406843 -0.291677
v 0.003766 -0.390487 -0.343241
v 0.104886 -0.401713 -0.338282
v 0.113165 -0.408006 -0.291163
v 0.147466 -0.391808 -0.342658
v 0.141298 -0.399164 -0.388762
v 0.152041 -0.414613 -0.381936
v 0.162657 -0.399345 -0.294990
v 0.156444 -0.327028 0.112118
v 0.223067 -0.308111 0.103760
v 0.274642 -0.288589 0.100398
v 0.201290 -0.228674 0.540024
v 0.132066 -0.259800 0.553777
v 0.202412 -0.258408 0.553153
v 0.231774 -0.254180 0.551293
v 0.179896 -0.259421 0.553584
v 0.070675 -0.328962 0.112973
v 0.120692 -0.228967 0.540153
v 0.086560 -0.255064 0.551683
v 0.036729 -0.214731 0.533863
v 0.044623 -0.273649 0.325810
v -0.007788 -0.257739 0.320964
v -0.006275 -0.306637 0.103108
v -0.049226 -0.236150 0.309241
v -0.054732 -0.375588 -0.305488
v -0.051074 -0.287016 0.094439
v 0.002326 -0.395881 -0.296520
v -0.160490 -0.221462 0.065474
v -0.126284 -0.334887 -0.323471
v -0.194650 -0.096178 0.481482
v -0.148785 -0.205650 -0.080476
v -0.149942 -0.175248 -0.007542
v -0.140862 -0.175173 0.516382
v -0.246695 -0.096748 0.481729
v -0.047378 -0.186464 0.521372
v -0.151875 0.020538 0.429902
v -0.249843 -0.045587 0.459127
v -0.206831 -0.130788 0.496772
v -0.193237 -0.150995 0.439376
v -0.214387 -0.146922 0.367307
v -0.236452 -0.116397 0.423785
v -0.256928 -0.109128 0.345761
v -0.230282 -0.140672 0.320852
v -0.222451 -0.173618 0.188619
v -0.196442 -0.216513 0.091532
v -0.214585 -0.205343 0.060945
v -0.265582 -0.118807 0.231873
v -0.235463 -0.185533 0.051647
v -0.246498 -0.178671 0.020879
v -0.226078 -0.221980 -0.080117
v -0.201460 -0.280439 -0.239592
v -0.199206 -0.257251 -0.118457
v -0.227240 -0.254327 -0.247975
v -0.206877 -0.292156 -0.321631
v -0.252305 -0.219857 -0.233866
v -0.251764 -0.194561 -0.095242
v -0.230887 -0.267352 -0.332732
v -0.257759 -0.246353 -0.406925
v -0.226882 -0.285431 -0.389660
v -0.259714 -0.235154 -0.370872
v -0.274449 -0.220004 -0.418569
v -0.277239 -0.201984 -0.349228
v -0.291352 -0.148100 -0.163891
v -0.275120 -0.176871 -0.175582
v -0.304968 -0.106527 -0.045807
v -0.297566 -0.107505 0.028728
v -0.280823 -0.138426 -0.005253
v -0.267356 -0.150238 0.032225
v -0.292830 -0.096137 0.150363
v -0.278980 -0.082677 0.350536
v -0.293717 -0.072281 0.291010
v -0.320878 -0.034187 0.278120
v -0.345573 0.008533 0.270837
v -0.322857 -0.051399 0.125042
v -0.340414 0.006791 0.340760
v -0.329487 0.000055 0.438959
v -0.316263 -0.028396 0.370702
v -0.284597 -0.058132 0.464667
v -0.284878 -0.004764 0.441088
v -0.267403 -0.025453 0.450229
v -0.221349 -0.159223 0.074139
v -0.230675 -0.154757 0.041264
v -0.176581 -0.296657 -0.340363
v -0.245830 -0.140341 0.034894
v -0.206805 -0.267919 -0.353061
v -0.253897 -0.206205 -0.380330
v -0.278817 -0.110955 -0.061396
v -0.147398 -0.310927 -0.378567
v -0.231004 -0.216063 -0.420311
v -0.187284 -0.273441 -0.394958
v -0.226154 -0.230983 -0.463073
v -0.144791 -0.323922 -0.422008
v -0.183432 -0.287340 -0.438171
v -0.231761 -0.252385 -0.453616
v -0.196427 -0.296936 -0.433932
v -0.201640 -0.281843 -0.391246
v -0.238778 -0.235483 -0.411730
v -0.156381 -0.323228 -0.372960
v -0.151584 -0.334908 -0.417153
v -0.105712 -0.365413 -0.403675
v -0.100480 -0.354881 -0.408329
v -0.114786 -0.333853 -0.368264
v -0.051045 -0.380665 -0.396936
v -0.048354 -0.371884 -0.351460
v -0.054089 -0.393201 -0.391396
v -0.105739 -0.359108 -0.357106
v -0.051216 -0.387604 -0.344515
v -0.055110 -0.408406 -0.335322
v -0.094350 -0.389141 -0.343834
v -0.098362 -0.372283 -0.285087
v -0.124355 -0.371779 -0.351506
v -0.119185 -0.349467 -0.243292
v -0.169507 -0.339540 -0.365751
v -0.138638 -0.347693 -0.296650
v -0.168005 -0.321994 -0.284968
v -0.139127 -0.325293 -0.199264
v -0.141776 -0.291171 -0.052496
v -0.168603 -0.282738 -0.110127
v -0.173130 -0.239549 0.073513
v -0.133229 -0.273042 0.057315
v -0.150470 -0.237047 0.170546
v -0.134636 -0.230082 0.257222
v -0.109050 -0.289137 0.053930
v -0.108145 -0.264735 0.170829
v -0.066432 -0.384687 -0.260264
v -0.102108 -0.346982 -0.185009
v -0.078001 -0.337172 -0.081164
v -0.077242 -0.304910 0.064589
v -0.050740 -0.307398 0.112320
v -0.049421 -0.355333 -0.097541
v -0.020346 -0.334358 0.047565
v -0.027734 -0.383787 -0.182729
v -0.004404 -0.361753 -0.046700
v 0.010574 -0.382975 -0.119129
v 0.018653 -0.338635 0.088410
v 0.054840 -0.351878 0.067450
v 0.025581 -0.294424 0.300392
v 0.032578 -0.366674 -0.020054
v -0.002445 -0.318021 0.151211
v 0.043165 -0.319553 0.205437
v 0.067565 -0.310208 0.270713
v 0.056489 -0.278702 0.408254
v 0.033954 -0.269293 0.430040
v 0.031400 -0.245144 0.547299
v 0.001890 -0.290860 0.281616
v -0.008557 -0.262635 0.397481
v -0.029729 -0.238203 0.477713
v -0.056680 -0.256921 0.334069
v -0.033818 -0.289814 0.226440
v -0.082040 -0.267149 0.228102
v -0.083755 -0.236414 0.367021
v -0.058047 -0.228738 0.466632
v -0.068808 -0.211643 0.532499
v -0.088437 -0.213594 0.467624
v -0.118051 -0.214684 0.382220
v -0.146393 -0.192689 0.404040
v -0.181744 -0.205890 0.206561
v -0.164043 -0.181894 0.394464
v -0.189972 -0.172287 0.340625
v -0.022114 -0.229351 0.540322
v 0.090757 -0.267779 0.489218
v 0.117800 -0.271705 0.485220
v 0.140079 -0.271175 0.493468
v -0.013337 -0.408912 -0.267817
v 0.005007 -0.414470 -0.264884
v -0.004951 -0.426658 -0.327258
v -0.184991 -0.268523 -0.108243
v -0.197468 -0.315158 -0.376526
v -0.258242 -0.205122 -0.474500
v -0.267702 -0.187265 -0.433035
v -0.291439 -0.189159 -0.432198
v -0.303951 -0.157687 -0.446103
v -0.286371 -0.138204 -0.454713
v -0.312291 -0.131033 -0.457880
v -0.294460 -0.090452 -0.475813
v -0.274955 -0.156998 -0.495763
v -0.258996 -0.155976 -0.496215
v -0.242630 -0.201049 -0.476299
v -0.283266 -0.108126 -0.517358
v -0.265583 -0.112014 -0.515639
v -0.267894 -0.065996 -0.535973
v -0.282566 -0.060752 -0.538290
v -0.276127 -0.004353 -0.513856
v -0.272316 -0.025701 -0.553777
v -0.290857 -0.045072 -0.495864
v -0.311085 -0.018158 -0.507748
v -0.318444 -0.059138 -0.489647
v -0.315461 -0.034179 -0.500661
v -0.324722 -0.005501 -0.413743
v -0.311471 0.032055 -0.439963
v -0.320765 0.033692 -0.397234
v -0.324004 -0.046164 -0.431320
v -0.335663 0.009574 -0.326164
v -0.318932 -0.090877 -0.475622
v -0.324388 -0.060985 -0.421716
v -0.338079 -0.010771 -0.302382
v -0.329615 -0.056317 -0.343204
v -0.360500 0.067617 -0.114255
v -0.347469 0.010397 -0.209704
v -0.358271 0.072408 -0.136842
v -0.382177 0.157261 0.063458
v -0.370731 0.137115 -0.028027
v -0.347176 0.050531 -0.228660
v -0.352244 0.092902 -0.175805
v -0.362848 0.162718 -0.062825
v -0.340703 0.073964 -0.258381
v -0.334598 0.085558 -0.277394
v -0.346742 0.136998 -0.169010
v -0.349576 0.217661 -0.065575
v -0.355084 0.201881 -0.060386
v -0.332560 0.129806 -0.239049
v -0.334509 0.176883 -0.172835
v -0.354273 0.272374 0.022154
v -0.343186 0.254118 -0.038998
v -0.311552 0.070049 -0.391360
v -0.318703 0.151212 -0.258028
v -0.319482 0.196295 -0.189334
v -0.307639 0.190444 -0.228349
v -0.331820 0.250120 -0.076511
v -0.324133 0.288261 -0.037638
v -0.311933 0.270194 -0.093348
v -0.336796 0.297614 0.008552
v -0.350216 0.349777 0.123308
v -0.362093 0.344220 0.147829
v -0.370421 0.336184 0.163692
v -0.375473 0.377030 0.242932
v -0.353561 0.396671 0.205449
v -0.340024 0.391321 0.162069
v -0.360350 0.414040 0.256039
v -0.334219 0.419461 0.195441
v -0.335959 0.442413 0.243503
v -0.316512 0.426579 0.250498
v -0.324766 0.355818 0.072173
v -0.286424 0.216474 -0.158737
v -0.296293 0.170223 -0.285157
v -0.260531 0.044434 -0.491075
v -0.280806 0.014839 -0.477998
v -0.351022 0.377796 0.272055
v -0.315925 0.192255 -0.112065
v -0.327776 0.161183 -0.098335
v -0.336738 0.128779 -0.084017
v -0.374854 0.315595 0.299536
v -0.392892 0.352012 0.283447
v -0.382356 0.246535 0.330050
v -0.404927 0.310967 0.301576
v -0.409150 0.286057 0.312589
v -0.404224 0.272151 0.262245
v -0.412675 0.246827 0.329921
v -0.401509 0.213838 0.222731
v -0.409090 0.195427 0.352632
v -0.405669 0.202910 0.284491
v -0.399745 0.167451 0.264090
v -0.395561 0.171158 0.191216
v -0.377067 0.091463 0.087037
v -0.377882 0.116056 0.042181
v -0.384858 0.151308 0.088496
v -0.368730 0.074957 -0.010925
v -0.356475 0.032030 -0.107424
v -0.346834 -0.007719 -0.159868
v -0.323702 -0.085589 -0.356756
v -0.336819 -0.044492 -0.214410
v -0.360221 0.031726 -0.013018
v -0.342440 -0.027587 -0.117905
v -0.383503 0.104109 0.183352
v -0.357854 0.021999 0.005893
v -0.340905 -0.028690 -0.026718
v -0.370322 0.059474 0.168990
v -0.372352 0.065954 0.256169
v -0.353919 0.015956 0.172626
v -0.391132 0.122467 0.296961
v -0.402312 0.160399 0.368111
v -0.392066 0.125702 0.383441
v -0.396658 0.145701 0.278554
v -0.376526 0.083768 0.401967
v -0.348137 0.098630 0.395404
v -0.373338 0.173275 0.362420
v -0.314331 -0.028772 0.018544
v -0.337824 0.041040 0.008489
v -0.340764 0.083116 -0.063841
v -0.299186 -0.072267 -0.439509
v -0.291666 -0.121303 -0.417843
v -0.273179 -0.171562 -0.395636
v -0.265007 -0.139604 -0.454095
v -0.271987 -0.094860 -0.473865
v -0.295528 -0.026286 -0.459826
v -0.271403 -0.050760 -0.493350
v -0.260716 -0.016900 -0.508311
v -0.257592 -0.037690 -0.548480
v -0.248069 -0.185442 -0.433842
v -0.320214 0.046248 0.418548
v -0.355531 0.042674 0.420126
v -0.329709 -0.047138 0.052387
v -0.330901 -0.053972 -0.036733
v -0.311916 -0.106054 -0.134994
v -0.327032 -0.074226 -0.160607
v -0.306937 -0.130321 -0.245441
v -0.288164 -0.185990 -0.375421
v -0.297786 -0.166062 -0.377595
v -0.307972 -0.137634 -0.361161
v -0.313592 -0.122714 -0.420459
v -0.318292 -0.106836 -0.332766
v -0.321464 -0.082965 -0.427493
v -0.395168 0.225438 0.177302
v -0.375608 0.181633 0.024882
v -0.397226 0.271450 0.214622
v -0.379306 0.239543 0.090234
v -0.366833 0.243377 0.037023
v -0.392048 0.292515 0.203942
v -0.372646 0.302412 0.128995
v -0.388994 0.331037 0.233982
v -0.396900 0.315871 0.255940
v -0.382364 0.376943 0.272427
v -0.256371 0.024656 -0.526673
v -0.292087 0.023767 -0.526266
v -0.277785 0.042134 -0.534324
v -0.290810 0.088201 -0.425141
v -0.283000 0.085654 -0.447271
v -0.297854 0.046833 -0.468492
v -0.301081 0.097196 -0.384649
v -0.302684 0.005455 -0.518175
v -0.305412 0.024317 -0.476554
v -0.161354 -0.310325 -0.334323
v -0.167006 -0.190860 -0.087010
v -0.205604 -0.181999 0.053301
v -0.168177 -0.160447 -0.014082
v -0.170342 0.035813 0.423136
v 0.240992 -0.263115 0.490623
v 0.216726 -0.279833 0.428537
vn -0.0000 0.4042 0.9147
vn -0.0000 0.4036 0.9149
vn 0.6741 -0.7350 0.0731
vn 0.6054 -0.7909 0.0895
vn 0.0001 0.4040 0.9148
vn 0.6005 -0.7946 0.0892
vn 0.5538 -0.8255 0.1089
vn 0.0004 0.4041 0.9147
vn 0.5098 -0.8524 0.1166
vn 0.4710 -0.8741 0.1186
vn 0.4395 -0.8873 0.1400
vn -0.0001 0.4038 0.9148
vn 0.4227 -0.8962 0.1347
vn 0.0001 0.4041 0.9147
vn 0.3573 -0.9219 0.1500
vn 0.4101 -0.9021 0.1345
vn 0.3749 -0.9151 0.1488
vn 0.4206 -0.8983 0.1271
vn 0.2765 -0.9454 0.1724
vn 0.2800 -0.9447 0.1705
vn 0.3658 -0.9185 0.1499
vn 0.3636 -0.9194 0.1499
vn 0.3760 -0.9138 0.1536
vn 0.2648 -0.9497 0.1669
vn 0.3660 -0.9176 0.1550
vn 0.2418 -0.9555 0.1687
vn 0.3236 -0.9325 0.1607
vn 0.2637 -0.9490 0.1728
vn 0.2474 -0.9523 0.1785
vn 0.3702 -0.9174 0.1459
vn 0.3761 -0.9143 0.1500
vn 0.3314 -0.9286 0.1672
vn 0.3828 -0.9113 0.1519
vn 0.4234 -0.8960 0.1338
vn 0.4061 -0.9017 0.1484
vn 0.4472 -0.8847 0.1315
vn 0.5046 -0.8544 0.1238
vn 0.4274 -0.8930 0.1413
vn 0.5085 -0.8539 0.1112
vn 0.5442 -0.8321 0.1068
vn 0.5114 -0.8522 0.1106
vn 0.4308 -0.8915 0.1399
vn 0.4295 -0.8930 0.1344
vn 0.5115 -0.8515 0.1148
vn 0.5427 -0.8338 0.1013
vn 0.5884 -0.8045 0.0808
vn 0.5807 -0.8086 0.0950
vn 0.6149 -0.7841 0.0841
vn 0.5807 -0.8089 0.0917
vn 0.6287 -0.7751 0.0630
vn 0.6855 -0.7258 0.0574
vn 0.6506 -0.7556 0.0767
vn 0.6649 0.6832 -0.3019
vn 0.6411 -0.7647 0.0643
vn 0.6963 -0.7155 0.0569
vn 0.6242 -0.7768 0.0830
vn 0.6442 -0.7614 0.0720
vn 0.6648 0.6833 -0.3019
vn 0.6119 -0.7872 0.0767
vn 0.6234 -0.7767 0.0897
vn 0.6656 -0.7430 0.0697
vn 0.6585 -0.7474 0.0888
vn 0.0011 -0.4042 -0.9147
vn 0.6479 -0.7562 0.0911
vn -0.5745 0.7774 -0.2560
vn 0.0001 -0.4042 -0.9147
vn -0.6197 0.7623 -0.1865
vn 0.3807 -0.9237 0.0431
vn -0.0000 -0.4043 -0.9146
vn 0.6647 0.6913 -0.2832
vn 0.2245 -0.9523 0.2067
vn 0.1860 -0.9645 0.1872
vn 0.2611 -0.9463 0.1904
vn 0.3785 -0.9095 0.1720
vn 0.4011 -0.9013 0.1637
vn 0.3933 -0.9034 0.1707
vn 0.4687 -0.8677 0.1653
vn 0.4755 -0.8694 0.1342
vn 0.4309 -0.8899 0.1496
vn 0.3946 -0.9057 0.1551
vn 0.5430 -0.8294 0.1314
vn 0.5903 -0.8014 0.0967
vn 0.5861 -0.7997 0.1301
vn 0.5475 -0.8282 0.1195
vn 0.5368 -0.8362 0.1123
vn 0.5965 -0.7968 0.0959
vn 0.5477 -0.8294 0.1098
vn 0.3533 -0.9201 0.1689
vn 0.2386 -0.9547 0.1776
vn 0.1234 -0.9714 0.2026
vn 0.1468 -0.9715 0.1862
vn 0.2096 -0.9604 0.1838
vn 0.2538 -0.9517 0.1727
vn 0.1960 -0.9637 0.1812
vn 0.2508 -0.9516 0.1778
vn 0.1680 -0.9656 0.1983
vn 0.1023 -0.9756 0.1943
vn 0.1557 -0.9702 0.1855
vn 0.1126 -0.9744 0.1945
vn 0.0058 -0.9772 0.2124
vn 0.0479 -0.9786 0.2002
vn 0.0444 -0.9782 0.2028
vn 0.0083 -0.9798 0.1999
vn 0.1627 -0.9697 0.1825
vn 0.0420 -0.9784 0.2023
vn 0.0415 -0.9782 0.2035
vn 0.1775 -0.9643 0.1964
vn 0.0486 -0.9785 0.2004
vn 0.0055 -0.9797 0.2005
vn 0.0017 -0.9781 0.2083
vn -0.0374 -0.9768 0.2110
vn -0.0377 -0.9790 0.2005
vn -0.0634 -0.9764 0.2064
vn -0.1180 -0.9708 0.2090
vn -0.1362 -0.9678 0.2116
vn -0.1418 -0.9669 0.2122
vn -0.1361 -0.9687 0.2078
vn -0.0417 -0.9758 0.2145
vn -0.0758 -0.9749 0.2091
vn -0.1425 -0.9664 0.2140
vn -0.0676 -0.9753 0.2105
vn -0.0674 -0.9760 0.2070
vn -0.1414 -0.9640 0.2253
vn -0.1651 -0.9631 0.2127
vn -0.0570 -0.9763 0.2087
vn -0.0865 -0.9705 0.2251
vn -0.0000 -0.4042 -0.9147
vn -0.0330 -0.9746 0.2217
vn -0.1732 -0.9567 0.2341
vn -0.2004 -0.9560 0.2142
vn -0.0140 -0.9778 0.2091
vn -0.0428 -0.9894 0.1387
vn -0.1986 -0.9696 0.1431
vn -0.1847 -0.9699 0.1587
vn -0.0040 -0.9957 0.0926
vn -0.0000 -0.4041 -0.9147
vn 0.1980 0.9631 -0.1821
vn 0.0195 0.9856 -0.1680
vn 0.0217 0.9912 0.1305
vn 0.1802 0.9767 0.1166
vn 0.2034 0.9609 -0.1880
vn 0.0246 0.9863 -0.1632
vn 0.0201 0.9915 0.1289
vn -0.2073 0.9642 0.1652
vn -0.2368 0.9639 -0.1221
vn -0.2437 0.9615 -0.1273
vn -0.4116 0.9057 -0.1012
vn -0.4232 0.9018 -0.0873
vn 0.1918 -0.9805 0.0438
vn 0.3436 -0.9389 0.0195
vn -0.1537 0.9673 0.2019
vn -0.3490 0.8964 0.2732
vn -0.3357 0.9080 0.2505
vn -0.2890 0.9418 -0.1717
vn -0.1828 0.9675 -0.1747
vn -0.4067 0.9020 -0.1448
vn -0.3585 0.9213 -0.1503
vn -0.3585 0.9179 -0.1702
vn -0.2899 0.9389 -0.1854
vn -0.4260 0.8932 -0.1440
vn -0.2083 0.9604 -0.1853
vn 0.0005 0.4033 0.9151
vn -0.0002 0.4039 0.9148
vn -0.0007 0.4039 0.9148
vn -0.0242 0.9749 -0.2215
vn -0.0039 0.9738 -0.2275
vn -0.0000 0.4041 0.9147
vn 0.1804 0.9482 -0.2617
vn 0.1040 0.9656 -0.2382
vn 0.3017 0.9307 -0.2068
vn 0.3023 0.9201 -0.2491
vn 0.2969 0.9324 -0.2060
vn 0.4950 0.8485 -0.1870
vn 0.4262 0.8795 -0.2119
vn 0.4252 0.8828 -0.1994
vn 0.3558 0.9137 -0.1964
vn 0.2967 0.9334 -0.2020
vn 0.2020 0.9606 -0.1907
vn 0.3162 0.9413 0.1184
vn 0.1787 0.9768 0.1183
vn 0.5421 0.8159 -0.2012
vn 0.5412 0.8189 -0.1912
vn 0.5210 0.8324 -0.1891
vn 0.5486 0.8125 -0.1971
vn 0.5505 0.8118 -0.1949
vn 0.9967 0.0047 0.0804
vn 0.9504 -0.2814 0.1324
vn 0.9481 -0.2886 0.1333
vn -0.0001 0.4041 0.9147
vn -0.5815 -0.8006 0.1442
vn -0.6049 -0.7851 0.1331
vn -0.6737 -0.7275 0.1300
vn -0.6716 -0.7296 0.1287
vn -0.6967 -0.7078 0.1169
vn -0.7090 -0.6947 0.1213
vn -0.6716 -0.7291 0.1317
vn -0.7032 -0.6986 0.1324
vn -0.6844 -0.7159 0.1379
vn -0.6760 -0.7237 0.1386
vn -0.6773 -0.7227 0.1378
vn -0.7120 -0.6905 0.1277
vn -0.7357 -0.6678 0.1127
vn -0.7279 -0.6736 0.1277
vn -0.7135 -0.6867 0.1391
vn -0.7430 -0.6585 0.1196
vn -0.7521 -0.6471 0.1254
vn -0.7264 -0.6739 0.1349
vn -0.7039 -0.6951 0.1462
vn -0.7421 -0.6572 0.1318
vn -0.7088 -0.6915 0.1393
vn -0.7269 -0.6715 0.1439
vn -0.7412 -0.6580 0.1330
vn -0.7804 -0.6146 0.1152
vn -0.7764 -0.6171 0.1282
vn -0.7717 -0.6245 0.1204
vn -0.7435 -0.6507 0.1543
vn -0.8049 -0.5796 0.1275
vn -0.8114 -0.5692 0.1328
vn -0.8013 -0.5883 0.1090
vn -0.8515 -0.5148 0.0995
vn -0.8607 -0.4976 0.1079
vn -0.8581 -0.5069 0.0820
vn -0.8522 -0.5160 0.0868
vn -0.8099 -0.5765 0.1082
vn -0.8531 -0.5150 0.0830
vn -0.8574 -0.5086 0.0785
vn -0.8097 -0.5767 0.1084
vn -0.8043 -0.5848 0.1051
vn -0.8264 -0.5546 0.0975
vn -0.8156 -0.5672 0.1143
vn -0.8045 -0.5846 0.1048
vn -0.7970 -0.5955 0.1008
vn -0.7818 -0.6149 0.1037
vn -0.7771 -0.6179 0.1198
vn -0.8169 -0.5705 0.0851
vn -0.7896 -0.6061 0.0954
vn -0.8012 -0.5908 0.0952
vn -0.8250 -0.5580 0.0894
vn -0.8316 -0.5491 0.0837
vn -0.8684 -0.4931 0.0518
vn -0.8687 -0.4908 0.0664
vn -0.8608 -0.5045 0.0679
vn -0.8614 -0.5043 0.0613
vn -0.8216 -0.5649 0.0763
vn -0.8239 -0.5616 0.0762
vn -0.8070 -0.5841 0.0871
vn -0.8060 -0.5856 0.0863
vn -0.8034 -0.5876 0.0963
vn -0.7340 -0.6691 0.1162
vn -0.7549 -0.6478 0.1022
vn -0.0001 0.4042 0.9147
vn 0.7642 0.6315 -0.1310
vn 0.7745 0.6199 -0.1257
vn 0.7841 0.6085 -0.1220
vn 0.7139 0.6833 -0.1529
vn 0.7601 0.6369 -0.1291
vn 0.7147 0.6812 -0.1587
vn 0.7141 0.6832 -0.1528
vn 0.7143 0.6545 0.2476
vn 0.8127 0.5726 -0.1075
vn 0.8151 0.5697 -0.1054
vn 0.6295 0.7507 0.2005
vn 0.6285 0.7533 0.1936
vn 0.7151 0.6540 0.2470
vn 0.8149 0.5690 -0.1104
vn 0.8131 0.5721 -0.1074
vn 0.7104 0.6849 -0.1622
vn 0.7128 0.6838 -0.1564
vn -0.7990 -0.5909 0.1114
vn -0.7006 -0.6953 0.1603
vn -0.8011 -0.5895 0.1037
vn -0.6675 -0.7346 0.1217
vn -0.5776 -0.8025 0.1494
vn 0.6012 0.7756 -0.1924
vn 0.5273 0.8152 -0.2396
vn 0.4884 0.8510 -0.1932
vn 0.3169 0.9409 0.1198
vn 0.4663 0.8742 0.1351
vn 0.3566 0.9143 -0.1921
vn 0.3527 0.9147 -0.1975
vn -0.4830 -0.8655 0.1329
vn -0.4921 -0.8627 0.1165
vn -0.3501 -0.9273 0.1322
vn -0.3894 -0.9033 0.1802
vn -0.4675 -0.8576 0.2142
vn -0.5286 -0.8248 0.2006
vn -0.5180 -0.8325 0.1964
vn -0.5920 -0.7833 0.1898
vn -0.6086 -0.7726 0.1807
vn -0.6064 -0.7746 0.1795
vn -0.6080 -0.7744 0.1751
vn -0.5705 -0.8010 0.1814
vn -0.5795 -0.7961 0.1746
vn -0.5978 -0.7831 0.1713
vn -0.6111 -0.7727 0.1714
vn -0.6055 -0.7779 0.1680
vn -0.5900 -0.7880 0.1760
vn -0.5729 -0.8004 0.1767
vn -0.5959 -0.7871 0.1595
vn -0.5702 -0.8040 0.1688
vn -0.5285 -0.8307 0.1748
vn -0.5262 -0.8297 0.1864
vn -0.4852 -0.8552 0.1823
vn -0.5135 -0.8392 0.1792
vn -0.4700 -0.8602 0.1979
vn -0.4937 -0.8484 0.1911
vn -0.5172 -0.8351 0.1872
vn -0.4868 -0.8524 0.1912
vn -0.4381 -0.8769 0.1976
vn -0.4440 -0.8732 0.2010
vn -0.4435 -0.8746 0.1959
vn -0.3599 -0.9105 0.2037
vn -0.3681 -0.9070 0.2049
vn -0.4392 -0.8750 0.2038
vn -0.3851 -0.9003 0.2027
vn -0.3661 -0.9067 0.2096
vn -0.3203 -0.9249 0.2048
vn -0.3004 -0.9303 0.2104
vn -0.3242 -0.9217 0.2130
vn -0.3116 -0.9289 0.2002
vn -0.2531 -0.9440 0.2115
vn -0.2221 -0.9505 0.2172
vn -0.2304 -0.9516 0.2034
vn -0.3023 -0.9311 0.2041
vn -0.2439 -0.9477 0.2056
vn -0.2074 -0.9545 0.2142
vn -0.1815 -0.9617 0.2055
vn -0.1724 -0.9622 0.2108
vn -0.1505 -0.9664 0.2082
vn -0.1540 -0.9658 0.2088
vn -0.2036 -0.9578 0.2030
vn -0.2183 -0.9553 0.1993
vn -0.2990 -0.9330 0.2002
vn -0.2137 -0.9577 0.1926
vn -0.2902 -0.9385 0.1870
vn -0.2995 -0.9329 0.2002
vn -0.3537 -0.9167 0.1858
vn -0.3272 -0.9246 0.1952
vn -0.3698 -0.9076 0.1988
vn -0.3290 -0.9239 0.1954
vn -0.3399 -0.9184 0.2026
vn -0.3570 -0.9138 0.1937
vn -0.3798 -0.9041 0.1956
vn -0.4340 -0.8809 0.1889
vn -0.4360 -0.8798 0.1893
vn -0.4432 -0.8777 0.1820
vn -0.3770 -0.9068 0.1889
vn -0.3732 -0.9110 0.1755
vn -0.4362 -0.8858 0.1586
vn -0.4340 -0.8827 0.1800
vn -0.4708 -0.8649 0.1743
vn -0.4713 -0.8645 0.1745
vn -0.4750 -0.8635 0.1697
vn -0.5277 -0.8349 0.1562
vn -0.5179 -0.8380 0.1719
vn -0.4659 -0.8651 0.1857
vn -0.5025 -0.8475 0.1711
vn -0.5758 -0.8024 0.1567
vn -0.5797 -0.7995 0.1572
vn -0.5749 -0.8037 0.1536
vn -0.6124 -0.7749 0.1566
vn -0.6011 -0.7851 0.1494
vn -0.5942 -0.7889 0.1565
vn -0.6266 -0.7642 0.1531
vn -0.6336 -0.7603 0.1430
vn -0.6333 -0.7590 0.1510
vn -0.5982 -0.7853 0.1599
vn -0.5895 -0.7895 0.1711
vn -0.6312 -0.7608 0.1509
vn -0.3746 -0.9107 0.1743
vn -0.2992 -0.9391 0.1691
vn -0.4935 -0.8489 0.1892
vn -0.4656 -0.8674 0.1757
vn -0.3018 -0.9313 0.2040
vn -0.1701 -0.9645 0.2021
vn -0.1881 -0.9648 0.1838
vn -0.1114 -0.9730 0.2021
vn -0.1130 -0.9747 0.1928
vn -0.1103 -0.9753 0.1911
vn -0.1216 -0.9721 0.2003
vn -0.1649 -0.9658 0.2001
vn -0.0507 -0.9785 0.1998
vn -0.0431 -0.9828 0.1796
vn -0.0209 -0.9808 0.1937
vn -0.0079 -0.9804 0.1969
vn 0.0085 -0.9824 0.1864
vn -0.3657 -0.9076 0.2062
vn -0.1832 -0.9593 0.2150
vn -0.1895 -0.9591 0.2104
vn -0.2353 -0.9493 0.2085
vn -0.1775 -0.9611 0.2118
vn -0.3359 -0.9173 0.2140
vn -0.3143 -0.9254 0.2120
vn -0.2177 -0.9512 0.2185
vn -0.2517 -0.9440 0.2136
vn -0.3157 -0.9205 0.2303
vn -0.2530 -0.9411 0.2243
vn -0.3645 -0.9051 0.2188
vn -0.2557 -0.9401 0.2253
vn -0.3507 -0.9126 0.2102
vn -0.4140 -0.8840 0.2169
vn -0.4845 -0.8523 0.1973
vn -0.5270 -0.8284 0.1897
vn -0.4840 -0.8527 0.1965
vn -0.6272 -0.7617 0.1624
vn -0.6359 -0.7546 0.1618
vn -0.6350 -0.7542 0.1672
vn -0.6789 -0.7183 0.1521
vn -0.6782 -0.7194 0.1500
vn -0.6857 -0.7130 0.1463
vn -0.6689 -0.7237 0.1696
vn -0.6841 -0.7139 0.1494
vn -0.7064 -0.6927 0.1456
vn -0.6849 -0.7064 0.1786
vn -0.7352 -0.6608 0.1509
vn -0.5969 -0.7951 0.1073
vn 0.6045 0.7724 -0.1948
vn 0.4630 0.8754 0.1391
vn 0.5345 0.8306 0.1564
vn -0.0001 -0.4042 -0.9147
vn -0.8797 -0.4736 0.0437
vn -0.8616 -0.5072 0.0219
vn -0.9259 -0.3744 -0.0500
vn -0.9592 -0.2332 -0.1600
vn -0.9274 -0.3627 -0.0919
vn -0.9593 -0.2334 -0.1592
vn -0.9706 -0.0852 -0.2253
vn -0.9382 0.2221 -0.2654
vn -0.9611 0.1946 -0.1958
vn -0.9818 -0.0059 -0.1897
vn -0.0003 -0.4041 -0.9147
vn -0.0007 -0.4044 -0.9146
vn -0.0004 -0.4037 -0.9149
vn -0.9926 0.0329 -0.1166
vn -0.9736 0.1649 -0.1581
vn -0.9915 0.0700 -0.1101
vn -0.9685 0.1974 -0.1517
vn -0.9431 0.2537 -0.2149
vn -0.9907 0.0389 -0.1305
vn -0.9943 -0.0067 -0.1067
vn -0.9960 -0.0291 -0.0847
vn -0.9957 -0.0243 -0.0895
vn -0.9945 -0.0378 -0.0982
vn -0.9896 -0.1319 -0.0580
vn -0.9903 -0.1183 -0.0733
vn -0.9939 -0.0324 -0.1050
vn -0.9924 -0.0941 -0.0791
vn -0.9934 -0.0149 -0.1137
vn -0.9940 -0.0323 -0.1049
vn -0.9911 0.0281 -0.1302
vn -0.9903 0.0355 -0.1345
vn -0.9905 0.0439 -0.1301
vn -0.9922 0.0150 -0.1235
vn -0.9837 0.0964 -0.1519
vn -0.9797 0.1157 -0.1635
vn -0.9850 0.0755 -0.1550
vn -0.9628 0.1874 -0.1949
vn -0.9629 0.1856 -0.1960
vn -0.9662 0.1755 -0.1890
vn -0.9854 0.0871 -0.1459
vn -0.9359 0.2648 -0.2321
vn -0.9407 0.2546 -0.2243
vn -0.9598 0.2024 -0.1946
vn -0.9388 0.2671 -0.2175
vn -0.9488 0.2307 -0.2158
vn -0.8879 0.3713 -0.2718
vn -0.9115 0.3254 -0.2517
vn -0.8605 0.4151 -0.2954
vn -0.9168 0.3122 -0.2489
vn -0.8828 0.3788 -0.2779
vn -0.8600 0.4221 -0.2868
vn -0.8147 0.4836 -0.3198
vn -0.8205 0.4735 -0.3201
vn -0.8446 0.4414 -0.3030
vn -0.8383 0.4537 -0.3024
vn -0.7941 0.5119 -0.3276
vn -0.7948 0.5043 -0.3376
vn -0.8098 0.4908 -0.3214
vn -0.8524 0.4294 -0.2985
vn -0.8531 0.4370 -0.2851
vn -0.8034 0.5011 -0.3217
vn -0.8386 0.4523 -0.3037
vn -0.8843 0.3795 -0.2720
vn -0.8340 0.4639 -0.2988
vn -0.8799 0.3971 -0.2608
vn -0.8571 0.4378 -0.2716
vn -0.7876 0.5317 -0.3114
vn -0.8119 0.4922 -0.3141
vn -0.7886 0.5413 -0.2917
vn -0.8552 0.4441 -0.2672
vn 0.6649 0.6831 -0.3022
vn -0.7853 0.5471 -0.2897
vn 0.6643 0.6837 -0.3020
vn -0.7431 0.5697 -0.3511
vn 0.6650 0.6832 -0.3018
vn -0.7569 0.5547 -0.3456
vn -0.7938 0.5075 -0.3351
vn -0.7844 0.5262 -0.3283
vn 0.6650 0.6832 -0.3019
vn 0.8364 -0.4601 0.2977
vn 0.8438 -0.4469 0.2971
vn 0.8418 -0.4496 0.2988
vn 0.8406 -0.4537 0.2959
vn 0.9401 -0.2625 0.2175
vn 0.9405 -0.2643 0.2136
vn 0.9646 -0.1829 0.1898
vn 0.9650 -0.1848 0.1859
vn 0.9400 -0.2655 0.2143
vn -0.0001 0.4040 0.9147
vn 0.9909 -0.0528 0.1242
vn -0.0002 0.4044 0.9146
vn -0.9857 0.1109 -0.1271
vn -0.9932 0.0413 -0.1086
vn -0.9932 0.0302 -0.1127
vn -0.9939 -0.0755 -0.0803
vn -0.9935 -0.0960 -0.0604
vn -0.9896 -0.1286 -0.0638
vn -0.9896 -0.1289 -0.0634
vn -0.9936 -0.0788 -0.0809
vn -0.9873 -0.1453 -0.0641
vn -0.9871 -0.1471 -0.0627
vn -0.9928 -0.0812 -0.0878
vn -0.9934 -0.0723 -0.0895
vn -0.9936 -0.0199 -0.1111
vn -0.9927 -0.0869 -0.0834
vn -0.9934 -0.0239 -0.1121
vn -0.9880 -0.1423 -0.0601
vn -0.9885 -0.1362 -0.0649
vn -0.9895 -0.1256 -0.0711
vn -0.9829 -0.1784 -0.0455
vn -0.9904 -0.1237 -0.0610
vn -0.9837 -0.1724 -0.0501
vn -0.9808 -0.1912 -0.0380
vn -0.9727 -0.2308 -0.0230
vn -0.9844 -0.1689 -0.0489
vn -0.9746 -0.2222 -0.0292
vn -0.9803 -0.1905 -0.0513
vn -0.9764 -0.2129 -0.0373
vn -0.9617 -0.2741 -0.0080
vn -0.9646 -0.2632 -0.0147
vn -0.9638 -0.2660 -0.0162
vn -0.9598 -0.2806 -0.0089
vn -0.9483 -0.3174 0.0004
vn -0.9460 -0.3240 0.0120
vn -0.9361 -0.3514 0.0176
vn -0.9358 -0.3524 0.0044
vn -0.9487 -0.3163 0.0014
vn -0.9606 -0.2773 -0.0197
vn -0.9688 -0.2468 -0.0207
vn -0.9591 -0.2831 0.0002
vn -0.9486 -0.3164 0.0016
vn -0.9680 -0.2497 -0.0246
vn -0.9790 -0.2021 -0.0286
vn -0.9838 -0.1725 -0.0493
vn -0.9823 -0.1780 -0.0580
vn -0.9397 -0.3417 0.0148
vn 0.9499 0.3118 -0.0202
vn 0.9485 0.3159 -0.0229
vn 0.9888 0.1421 0.0461
vn 0.9875 0.1501 0.0472
vn 0.9884 0.1450 0.0442
vn 0.9846 0.1696 0.0420
vn 0.9484 0.3166 -0.0179
vn 0.8104 0.4590 0.3642
vn 0.9415 0.3364 -0.0224
vn 0.8338 0.3251 0.4463
vn 0.8325 0.3274 0.4470
vn 0.8244 0.1726 0.5391
vn 0.8584 0.1978 0.4733
vn 0.9901 0.0457 0.1330
vn 0.9798 0.1856 0.0740
vn 0.8122 0.0014 0.5834
vn 0.9574 -0.2192 0.1879
vn 0.9957 0.0745 0.0554
vn 0.9476 -0.2680 0.1738
vn 0.6648 0.6913 -0.2832
vn 0.8151 -0.0363 0.5782
vn 0.9466 -0.2478 0.2061
vn 0.9919 -0.0333 0.1225
vn 0.9924 -0.0257 0.1205
vn 0.8094 0.4603 0.3648
vn 0.9814 0.1783 0.0707
vn 0.9381 0.3463 -0.0007
vn 0.7700 0.5620 0.3019
vn 0.7697 0.5624 0.3020
vn 0.8832 0.4648 -0.0620
vn 0.8850 0.4621 -0.0565
vn 0.9406 0.3396 -0.0043
vn 0.8846 0.4610 -0.0710
vn 0.9923 -0.0348 0.1192
vn 0.8870 0.4558 -0.0745
vn 0.8919 0.4477 -0.0640
vn 0.8927 0.4454 -0.0689
vn -0.8636 -0.5004 0.0618
vn -0.8955 -0.4441 0.0302
vn 0.8384 0.5352 -0.1030
vn -0.9273 -0.3738 0.0191
vn -0.8868 -0.4590 0.0540
vn -0.8954 -0.4432 0.0428
vn -0.8960 -0.4420 0.0421
vn -0.8905 -0.4513 0.0575
vn -0.9009 -0.4317 0.0452
vn -0.9263 -0.3760 0.0237
vn -0.8926 -0.4485 0.0463
vn -0.8901 -0.4508 0.0670
vn -0.9011 -0.4302 0.0539
vn -0.9248 -0.3791 0.0331
vn -0.9237 -0.3817 0.0336
vn -0.8772 -0.4741 0.0764
vn -0.8885 -0.4550 0.0599
vn -0.9015 -0.4294 0.0537
vn -0.9352 -0.3528 0.0307
vn -0.9244 -0.3800 0.0323
vn -0.9599 -0.2797 0.0206
vn -0.9459 -0.3244 0.0080
vn -0.9330 -0.3576 0.0402
vn -0.9440 -0.3297 0.0145
vn -0.9542 -0.2992 0.0082
vn -0.9584 -0.2854 0.0003
vn -0.9789 -0.2007 -0.0384
vn -0.9812 -0.1928 0.0087
vn -0.9577 -0.2863 0.0303
vn -0.9750 -0.2206 -0.0262
vn -0.9918 -0.1236 -0.0319
vn -0.9846 -0.1731 -0.0234
vn -0.9828 -0.1810 -0.0378
vn -0.9914 -0.1164 -0.0591
vn -0.9346 -0.3535 0.0409
vn -0.9012 -0.4268 0.0758
vn -0.8873 -0.4549 0.0766
vn -0.8821 -0.4634 0.0849
vn -0.9496 -0.3133 -0.0004
vn -0.9461 -0.3236 0.0120
vn -0.8778 -0.4746 0.0659
vn -0.8755 -0.4778 0.0723
vn -0.8666 -0.4926 0.0796
vn -0.8725 -0.4856 0.0538
vn -0.9788 -0.2013 -0.0390
vn -0.9829 -0.1791 -0.0419
vn -0.9910 0.0296 -0.1308
vn -0.9909 0.0406 -0.1280
vn -0.9802 0.1174 -0.1595
vn -0.9891 0.0451 -0.1399
vn -0.9823 0.0895 -0.1645
vn -0.9865 0.0743 -0.1461
vn -0.9515 0.2282 -0.2066
vn -0.9536 0.2179 -0.2078
vn -0.9576 0.2026 -0.2047
vn -0.9769 0.1295 -0.1701
vn -0.9727 0.1487 -0.1783
vn -0.9485 0.2329 -0.2148
vn -0.9174 0.3129 -0.2457
vn -0.9298 0.2803 -0.2387
vn -0.9467 0.2413 -0.2132
vn -0.9298 0.2917 -0.2243
vn -0.9232 0.3144 -0.2209
vn -0.9248 0.3137 -0.2151
vn -0.9560 0.2237 -0.1897
vn -0.9543 0.2408 -0.1773
vn -0.9310 0.3038 -0.2022
vn -0.8788 0.4314 -0.2040
vn -0.9649 0.2183 -0.1462
vn -0.9742 0.1575 -0.1616
vn -0.9761 0.1517 -0.1554
vn -0.9306 0.2861 -0.2282
vn -0.9410 0.2554 -0.2223
vn -0.9807 0.1302 -0.1460
vn -0.9834 0.0838 -0.1611
vn -0.9894 0.0525 -0.1353
vn 0.8397 -0.4271 0.3354
vn 0.8408 -0.4239 0.3366
vn -0.0004 -0.4039 -0.9148
vn 0.6652 0.6830 -0.3017
vn -0.0004 -0.4014 -0.9159
vn 0.6651 0.6831 -0.3017
vn -0.8459 0.4478 -0.2898
vn -0.7508 0.5717 -0.3308
vn -0.8129 0.5084 -0.2841
vn -0.8820 0.4008 -0.2480
vn -0.8255 0.4692 -0.3136
vn -0.8717 0.4046 -0.2766
vn -0.8940 0.3833 -0.2323
vn -0.8778 0.3928 -0.2741
vn -0.9492 0.2585 -0.1794
vn -0.9350 0.2824 -0.2145
vn -0.9391 0.2699 -0.2126
vn -0.0004 -0.4040 -0.9148
vn -0.8286 0.4640 -0.3132
vn -0.8652 0.4064 -0.2938
vn -0.7836 0.5222 -0.3366
vn -0.8079 0.4941 -0.3211
vn -0.8111 0.4807 -0.3331
vn -0.7630 0.5456 -0.3466
vn -0.9322 0.2744 -0.2362
vn -0.9380 0.2724 -0.2145
vn -0.9528 0.2227 -0.2064
vn -0.9661 0.1767 -0.1880
vn -0.9913 0.0274 -0.1286
vn 0.6153 0.7666 0.1836
vn 0.5335 0.8311 0.1570
vn 0.6079 0.7203 -0.3341
vn -0.8279 0.4973 -0.2592
vn 0.7590 0.6390 -0.1249
vn 0.6935 0.7028 -0.1581
vn -0.8252 0.5020 -0.2587
vn 0.7535 0.6436 -0.1342
vn 0.6635 0.6942 -0.2789
vn 0.6637 0.6841 -0.3024
vn -0.7145 0.6416 -0.2790
vn 0.6637 0.6836 -0.3036
vn -0.7458 0.6064 -0.2759
vn 0.6709 0.6780 -0.3005
vn -0.0003 0.4047 0.9145
vn 0.8195 0.5627 -0.1090
vn -0.7532 -0.6482 0.1123
vn 0.3418 0.9047 -0.2542
vn 0.4969 0.8440 -0.2020
vn 0.9964 0.0193 0.0820
vn -0.0240 0.9818 -0.1883
vn 0.0478 -0.9806 0.1900
vn 0.2390 -0.9548 0.1769
vn 0.1508 -0.9745 0.1664
vn 0.1857 -0.9646 0.1872
vn 0.2111 -0.9614 0.1764
vn 0.2438 -0.9542 0.1734
vn 0.2258 -0.9571 0.1813
vn 0.1618 -0.9693 0.1852
vn 0.0541 -0.9806 0.1882
vn -0.6489 0.7567 -0.0794
vn -0.6472 0.7592 -0.0687
vn -0.6061 0.7916 -0.0782
vn -0.6203 0.7785 -0.0951
vn 0.0229 0.9797 -0.1992
vn 0.1690 -0.9829 0.0728
vn 0.0046 -0.9744 0.2248
vn 0.0287 -0.9767 0.2127
vn 0.1296 -0.9703 0.2043
vn 0.1158 -0.9705 0.2113
vn -0.0316 -0.9774 0.2090
vn 0.0099 -0.9795 0.2010
vn -0.0243 -0.9788 0.2034
vn 0.1777 -0.9665 0.1852
vn 0.1865 -0.9644 0.1874
vn 0.5698 -0.8150 0.1056
vn 0.5850 -0.8056 0.0943
vn 0.5434 -0.8336 0.0991
vn 0.5961 -0.7967 0.0994
vn 0.4211 -0.8962 0.1394
s 0
usemtl Material.022
f 2//1 1//1 5//1
f 2//1 3//1 1//1
f 1//2 3//2 6//2
f 5//3 1//3 4//3
f 4//4 1//4 6//4
f 3//5 8//5 6//5
f 4//6 6//6 7//6
f 8//7 7//7 6//7
f 8//8 3//8 11//8
f 8//9 10//9 7//9
f 8//10 11//10 9//10
f 8//11 9//11 10//11
f 3//1 12//1 11//1
f 11//12 12//12 13//12
f 13//13 9//13 11//13
f 13//14 12//14 14//14
f 15//15 13//15 14//15
f 15//16 9//16 13//16
f 15//17 14//17 16//17
f 9//18 15//18 16//18
f 16//19 19//19 17//19
f 17//20 21//20 16//20
f 21//21 18//21 16//21
f 20//22 16//22 18//22
f 16//23 20//23 9//23
f 16//24 14//24 19//24
f 21//25 25//25 18//25
f 21//26 17//26 23//26
f 21//27 22//27 25//27
f 24//28 22//28 21//28
f 21//29 23//29 24//29
f 26//30 25//30 22//30
f 25//31 26//31 18//31
f 22//32 27//32 26//32
f 28//33 26//33 27//33
f 29//34 18//34 26//34
f 29//35 26//35 28//35
f 29//36 32//36 18//36
f 31//37 29//37 30//37
f 29//38 28//38 30//38
f 31//39 32//39 29//39
f 33//40 34//40 32//40
f 32//41 31//41 33//41
f 32//42 20//42 18//42
f 32//43 10//43 20//43
f 7//44 10//44 32//44
f 34//45 7//45 32//45
f 36//46 34//46 33//46
f 34//47 35//47 7//47
f 34//48 36//48 35//48
f 33//49 37//49 36//49
f 38//50 36//50 37//50
f 36//51 38//51 39//51
f 39//52 35//52 36//52
f 39//53 38//53 2//53
f 39//54 4//54 35//54
f 4//55 39//55 5//55
f 39//53 2//53 5//53
f 38//56 37//56 40//56
f 40//57 42//57 38//57
f 42//58 41//58 38//58
f 2//58 38//58 41//58
f 42//59 40//59 43//59
f 43//60 45//60 42//60
f 41//53 42//53 44//53
f 46//53 44//53 42//53
f 45//61 46//61 42//61
f 47//62 46//62 45//62
f 47//53 44//53 46//53
f 47//63 48//63 49//63
f 48//64 47//64 45//64
f 49//58 44//58 47//58
f 50//65 44//65 49//65
f 48//66 50//66 49//66
f 50//67 53//67 44//67
f 55//53 50//53 51//53
f 52//68 51//68 50//68
f 50//69 57//69 52//69
f 50//70 54//70 53//70
f 50//53 55//53 54//53
f 48//66 56//66 50//66
f 50//69 56//69 57//69
f 52//69 57//69 58//69
f 59//71 58//71 57//71
f 57//72 60//72 59//72
f 57//73 27//73 60//73
f 61//74 27//74 57//74
f 62//75 61//75 57//75
f 57//76 56//76 62//76
f 56//77 63//77 62//77
f 62//78 63//78 30//78
f 28//79 62//79 30//79
f 62//80 28//80 61//80
f 56//81 48//81 63//81
f 64//82 63//82 45//82
f 48//83 45//83 63//83
f 63//84 64//84 30//84
f 30//85 64//85 31//85
f 43//86 64//86 45//86
f 43//87 31//87 64//87
f 61//88 28//88 27//88
f 67//89 60//89 27//89
f 59//90 60//90 65//90
f 65//91 60//91 66//91
f 66//92 60//92 67//92
f 22//93 24//93 67//93
f 66//94 67//94 24//94
f 67//95 27//95 22//95
f 68//96 66//96 24//96
f 66//97 68//97 65//97
f 68//98 24//98 69//98
f 69//99 73//99 68//99
f 72//100 70//100 68//100
f 65//101 68//101 70//101
f 68//102 73//102 71//102
f 68//103 71//103 72//103
f 17//104 74//104 73//104
f 73//105 74//105 75//105
f 73//106 75//106 71//106
f 73//107 69//107 17//107
f 74//108 76//108 75//108
f 76//109 77//109 75//109
f 77//110 71//110 75//110
f 78//111 77//111 76//111
f 79//112 71//112 77//112
f 78//113 79//113 77//113
f 82//114 79//114 78//114
f 79//115 81//115 80//115
f 80//116 83//116 79//116
f 82//117 81//117 79//117
f 79//118 72//118 71//118
f 79//119 83//119 72//119
f 80//120 85//120 83//120
f 83//121 85//121 84//121
f 83//122 84//122 72//122
f 88//123 85//123 86//123
f 80//124 86//124 85//124
f 85//125 87//125 84//125
f 87//126 85//126 88//126
f 93//127 89//127 88//127
f 88//128 89//128 92//128
f 88//127 90//127 94//127
f 91//129 90//129 88//129
f 88//130 86//130 91//130
f 92//131 87//131 88//131
f 93//127 88//127 94//127
f 93//132 94//132 96//132
f 94//127 90//127 95//127
f 95//133 96//133 94//133
f 96//134 95//134 98//134
f 96//135 97//135 93//135
f 97//136 96//136 99//136
f 98//136 99//136 96//136
f 99//136 98//136 100//136
f 99//127 101//127 97//127
f 100//137 102//137 99//137
f 101//138 99//138 102//138
f 105//139 102//139 103//139
f 104//140 103//140 102//140
f 102//141 100//141 104//141
f 102//142 105//142 101//142
f 103//143 106//143 105//143
f 107//144 105//144 106//144
f 105//145 107//145 108//145
f 108//146 101//146 105//146
f 55//127 109//127 108//127
f 101//127 108//127 109//127
f 108//147 54//147 55//147
f 54//148 108//148 107//148
f 97//149 109//149 52//149
f 109//127 97//127 101//127
f 52//150 109//150 51//150
f 109//127 55//127 51//127
f 106//151 110//151 107//151
f 107//152 53//152 54//152
f 53//153 107//153 110//153
f 110//154 111//154 112//154
f 110//155 106//155 111//155
f 110//156 112//156 53//156
f 53//157 112//157 113//157
f 3//158 113//158 112//158
f 114//159 112//159 111//159
f 12//160 3//160 112//160
f 12//161 112//161 114//161
f 120//1 115//1 114//1
f 114//162 115//162 118//162
f 117//163 114//163 116//163
f 116//164 114//164 118//164
f 12//1 114//1 117//1
f 119//165 114//165 111//165
f 119//166 120//166 114//166
f 115//1 120//1 121//1
f 122//167 121//167 120//167
f 122//168 120//168 123//168
f 123//169 120//169 119//169
f 123//170 125//170 124//170
f 123//171 124//171 122//171
f 119//172 125//172 123//172
f 126//173 124//173 125//173
f 125//174 128//174 126//174
f 128//175 125//175 127//175
f 125//176 129//176 127//176
f 125//177 119//177 129//177
f 119//178 103//178 129//178
f 127//179 129//179 104//179
f 103//180 104//180 129//180
f 128//181 130//181 132//181
f 128//182 131//182 130//182
f 127//183 131//183 128//183
f 128//184 132//184 126//184
f 126//185 132//185 137//185
f 133//186 132//186 130//186
f 132//187 133//187 134//187
f 132//188 134//188 138//188
f 135//167 137//167 132//167
f 132//167 140//167 135//167
f 139//189 136//189 132//189
f 136//189 140//189 132//189
f 139//1 132//1 138//1
f 135//190 140//190 141//190
f 140//191 142//191 141//191
f 143//192 142//192 140//192
f 140//193 136//193 143//193
f 143//194 136//194 144//194
f 145//195 143//195 144//195
f 142//196 143//196 145//196
f 145//197 144//197 146//197
f 142//198 145//198 146//198
f 146//199 147//199 142//199
f 147//200 146//200 148//200
f 150//201 148//201 146//201
f 146//202 144//202 149//202
f 149//203 150//203 146//203
f 148//204 150//204 152//204
f 149//205 151//205 150//205
f 151//206 152//206 150//206
f 155//207 153//207 152//207
f 152//208 153//208 154//208
f 152//209 151//209 155//209
f 148//210 152//210 154//210
f 153//211 155//211 156//211
f 159//212 156//212 155//212
f 158//213 157//213 155//213
f 155//214 157//214 159//214
f 155//215 151//215 158//215
f 156//216 159//216 161//216
f 160//217 161//217 159//217
f 159//218 162//218 160//218
f 162//219 159//219 157//219
f 164//220 163//220 162//220
f 163//221 160//221 162//221
f 165//222 164//222 162//222
f 165//223 162//223 166//223
f 157//224 166//224 162//224
f 167//225 165//225 166//225
f 166//226 168//226 167//226
f 166//227 157//227 158//227
f 166//228 158//228 169//228
f 169//229 168//229 166//229
f 168//230 169//230 170//230
f 158//231 170//231 169//231
f 171//232 170//232 149//232
f 149//233 170//233 151//233
f 170//234 158//234 151//234
f 170//235 171//235 168//235
f 149//236 172//236 171//236
f 172//237 173//237 171//237
f 171//238 173//238 174//238
f 171//239 174//239 168//239
f 174//240 177//240 175//240
f 174//241 175//241 176//241
f 168//242 174//242 176//242
f 177//243 174//243 178//243
f 178//244 174//244 179//244
f 173//245 179//245 174//245
f 180//246 178//246 179//246
f 172//247 180//247 179//247
f 179//248 173//248 172//248
f 181//167 180//167 182//167
f 178//167 180//167 181//167
f 180//249 144//249 136//249
f 180//250 172//250 144//250
f 180//189 136//189 139//189
f 182//251 180//251 139//251
f 184//252 182//252 183//252
f 139//253 183//253 182//253
f 182//254 184//254 181//254
f 187//255 184//255 185//255
f 184//256 183//256 185//256
f 184//257 186//257 181//257
f 184//258 187//258 186//258
f 187//259 191//259 188//259
f 187//260 188//260 189//260
f 189//261 186//261 187//261
f 187//262 185//262 190//262
f 190//263 192//263 187//263
f 191//264 187//264 192//264
f 193//265 192//265 195//265
f 192//266 193//266 191//266
f 192//267 190//267 194//267
f 194//268 195//268 192//268
f 196//136 195//136 197//136
f 195//127 196//127 193//127
f 195//136 194//136 197//136
f 199//269 197//269 198//269
f 200//270 198//270 197//270
f 197//271 199//271 196//271
f 197//272 201//272 200//272
f 194//127 201//127 197//127
f 202//273 200//273 201//273
f 201//127 203//127 202//127
f 203//127 201//127 194//127
f 194//274 204//274 203//274
f 206//275 203//275 204//275
f 205//127 202//127 203//127
f 203//276 206//276 205//276
f 104//277 206//277 127//277
f 204//278 127//278 206//278
f 206//279 104//279 100//279
f 100//280 205//280 206//280
f 98//127 207//127 205//127
f 202//127 205//127 207//127
f 205//136 100//136 98//136
f 208//281 207//281 209//281
f 207//282 208//282 202//282
f 95//283 209//283 207//283
f 207//284 98//284 95//284
f 95//127 210//127 209//127
f 209//127 211//127 208//127
f 210//127 211//127 209//127
f 212//285 211//285 210//285
f 213//286 211//286 212//286
f 211//127 213//127 208//127
f 212//287 214//287 213//287
f 213//288 214//288 216//288
f 213//127 215//127 200//127
f 215//289 213//289 216//289
f 208//127 213//127 200//127
f 215//290 216//290 217//290
f 217//291 216//291 218//291
f 218//292 216//292 214//292
f 219//293 218//293 214//293
f 219//294 217//294 218//294
f 220//295 217//295 219//295
f 220//296 219//296 221//296
f 219//297 222//297 221//297
f 214//298 222//298 219//298
f 223//299 221//299 222//299
f 223//300 222//300 224//300
f 225//301 224//301 222//301
f 225//302 222//302 214//302
f 225//303 230//303 226//303
f 224//304 225//304 226//304
f 225//305 227//305 229//305
f 228//306 227//306 225//306
f 214//307 228//307 225//307
f 230//308 225//308 229//308
f 232//309 231//309 230//309
f 226//310 230//310 231//310
f 230//311 229//311 232//311
f 232//312 235//312 233//312
f 233//313 231//313 232//313
f 229//314 227//314 232//314
f 227//315 234//315 232//315
f 232//316 234//316 235//316
f 236//317 235//317 234//317
f 235//318 236//318 237//318
f 237//319 233//319 235//319
f 237//320 241//320 233//320
f 237//321 236//321 240//321
f 237//322 240//322 238//322
f 237//323 238//323 242//323
f 241//324 237//324 239//324
f 239//325 237//325 242//325
f 239//326 242//326 243//326
f 243//327 242//327 81//327
f 242//328 238//328 81//328
f 81//329 82//329 243//329
f 82//330 244//330 243//330
f 243//331 244//331 245//331
f 243//332 245//332 239//332
f 239//333 245//333 247//333
f 246//334 245//334 244//334
f 248//335 245//335 246//335
f 245//336 248//336 247//336
f 250//337 248//337 249//337
f 249//338 248//338 246//338
f 251//339 248//339 250//339
f 248//340 251//340 247//340
f 247//341 251//341 241//341
f 241//342 251//342 231//342
f 251//343 250//343 231//343
f 231//344 250//344 252//344
f 250//345 253//345 252//345
f 250//346 254//346 253//346
f 249//347 254//347 250//347
f 255//348 254//348 249//348
f 256//349 254//349 255//349
f 254//350 256//350 253//350
f 256//351 257//351 253//351
f 135//352 257//352 256//352
f 256//353 255//353 135//353
f 135//354 258//354 257//354
f 257//355 258//355 224//355
f 253//356 257//356 252//356
f 252//357 257//357 224//357
f 260//358 259//358 258//358
f 224//359 258//359 259//359
f 260//360 258//360 135//360
f 261//361 259//361 260//361
f 261//362 260//362 141//362
f 141//363 260//363 135//363
f 259//364 261//364 142//364
f 261//365 141//365 142//365
f 221//366 259//366 147//366
f 259//367 221//367 223//367
f 259//368 223//368 224//368
f 142//369 147//369 259//369
f 255//1 137//1 135//1
f 249//370 262//370 255//370
f 262//1 137//1 255//1
f 246//371 262//371 249//371
f 122//167 262//167 246//167
f 137//1 262//1 122//1
f 224//372 226//372 252//372
f 231//373 252//373 226//373
f 239//374 247//374 241//374
f 246//375 244//375 263//375
f 121//167 122//167 246//167
f 263//376 121//376 246//376
f 78//377 264//377 263//377
f 263//378 264//378 115//378
f 115//379 121//379 263//379
f 263//380 82//380 78//380
f 263//381 244//381 82//381
f 265//382 264//382 78//382
f 115//383 264//383 265//383
f 78//384 76//384 265//384
f 118//385 265//385 76//385
f 118//386 115//386 265//386
f 233//387 241//387 231//387
f 240//388 86//388 80//388
f 238//389 240//389 80//389
f 236//390 86//390 240//390
f 238//391 80//391 81//391
f 236//392 234//392 266//392
f 266//393 267//393 236//393
f 236//394 91//394 86//394
f 236//395 267//395 91//395
f 268//396 267//396 266//396
f 91//397 267//397 268//397
f 210//398 268//398 266//398
f 268//399 90//399 91//399
f 95//127 90//127 268//127
f 268//127 210//127 95//127
f 266//400 234//400 210//400
f 234//401 227//401 210//401
f 228//402 212//402 227//402
f 214//403 212//403 228//403
f 210//404 227//404 212//404
f 147//405 269//405 221//405
f 220//406 221//406 269//406
f 269//407 217//407 220//407
f 154//408 217//408 269//408
f 269//409 148//409 154//409
f 148//410 269//410 147//410
f 215//411 217//411 153//411
f 154//412 153//412 217//412
f 215//413 153//413 156//413
f 156//414 270//414 215//414
f 200//127 215//127 270//127
f 200//136 270//136 198//136
f 198//127 270//127 161//127
f 161//415 270//415 156//415
f 200//416 202//416 208//416
f 204//417 194//417 190//417
f 127//418 204//418 131//418
f 190//419 131//419 204//419
f 160//420 199//420 161//420
f 161//127 199//127 198//127
f 163//127 199//127 160//127
f 271//421 196//421 199//421
f 199//422 272//422 271//422
f 199//127 163//127 272//127
f 272//127 163//127 273//127
f 274//136 272//136 273//136
f 272//127 274//127 275//127
f 275//423 271//423 272//423
f 276//420 275//420 274//420
f 275//420 276//420 277//420
f 277//424 278//424 275//424
f 271//425 275//425 278//425
f 280//127 278//127 279//127
f 281//127 279//127 278//127
f 278//127 280//127 271//127
f 278//426 277//426 281//426
f 279//136 281//136 282//136
f 283//127 282//127 281//127
f 281//127 284//127 283//127
f 284//427 281//427 277//427
f 285//428 284//428 287//428
f 284//429 285//429 286//429
f 286//136 283//136 284//136
f 277//430 287//430 284//430
f 288//431 285//431 287//431
f 288//432 287//432 290//432
f 290//433 287//433 289//433
f 289//420 287//420 277//420
f 294//434 291//434 290//434
f 290//435 291//435 293//435
f 290//436 289//436 294//436
f 292//437 288//437 290//437
f 290//438 293//438 292//438
f 291//439 294//439 295//439
f 298//440 295//440 294//440
f 296//441 297//441 294//441
f 294//442 289//442 296//442
f 294//443 297//443 298//443
f 298//444 297//444 299//444
f 299//445 301//445 298//445
f 298//446 300//446 302//446
f 301//447 300//447 298//447
f 302//448 295//448 298//448
f 303//449 302//449 300//449
f 302//450 303//450 304//450
f 304//451 306//451 302//451
f 306//452 305//452 302//452
f 295//453 302//453 305//453
f 306//454 304//454 307//454
f 307//455 308//455 306//455
f 305//456 306//456 308//456
f 309//457 291//457 308//457
f 310//458 309//458 308//458
f 310//459 308//459 307//459
f 291//460 305//460 308//460
f 310//461 311//461 314//461
f 311//462 310//462 312//462
f 312//463 310//463 307//463
f 314//464 313//464 310//464
f 310//465 313//465 309//465
f 314//466 315//466 316//466
f 311//467 315//467 314//467
f 316//468 319//468 314//468
f 313//469 314//469 317//469
f 317//470 314//470 318//470
f 319//471 318//471 314//471
f 321//472 320//472 319//472
f 320//473 318//473 319//473
f 319//474 316//474 321//474
f 324//475 321//475 316//475
f 320//476 321//476 323//476
f 321//477 322//477 323//477
f 322//478 321//478 324//478
f 315//479 326//479 324//479
f 324//480 316//480 315//480
f 325//481 322//481 324//481
f 325//482 324//482 326//482
f 315//483 327//483 326//483
f 329//484 325//484 326//484
f 326//485 327//485 328//485
f 329//486 326//486 328//486
f 332//487 330//487 329//487
f 330//488 325//488 329//488
f 331//489 332//489 329//489
f 328//490 331//490 329//490
f 334//491 332//491 333//491
f 332//492 331//492 333//492
f 334//493 335//493 332//493
f 330//494 332//494 335//494
f 323//495 335//495 336//495
f 335//496 323//496 322//496
f 325//497 330//497 335//497
f 322//498 325//498 335//498
f 336//53 335//53 334//53
f 338//53 337//53 336//53
f 337//499 323//499 336//499
f 340//500 336//500 334//500
f 338//501 336//501 339//501
f 336//502 341//502 339//502
f 336//503 340//503 341//503
f 342//504 339//504 341//504
f 342//505 341//505 340//505
f 339//506 342//506 343//506
f 344//507 343//507 342//507
f 340//508 344//508 342//508
f 345//167 344//167 340//167
f 344//509 345//509 347//509
f 344//510 346//510 343//510
f 348//1 346//1 344//1
f 344//511 347//511 348//511
f 349//512 348//512 347//512
f 350//513 348//513 349//513
f 346//167 348//167 350//167
f 349//514 351//514 350//514
f 350//515 351//515 353//515
f 346//1 350//1 352//1
f 353//516 352//516 350//516
f 352//517 353//517 354//517
f 355//518 354//518 353//518
f 355//519 353//519 351//519
f 356//520 354//520 355//520
f 355//521 357//521 356//521
f 357//522 355//522 358//522
f 355//523 351//523 358//523
f 300//524 358//524 303//524
f 357//525 358//525 300//525
f 351//526 303//526 358//526
f 359//527 356//527 357//527
f 357//528 360//528 359//528
f 360//529 357//529 300//529
f 359//530 360//530 361//530
f 301//531 360//531 300//531
f 360//532 301//532 361//532
f 359//533 361//533 364//533
f 361//534 362//534 363//534
f 362//535 361//535 301//535
f 361//536 363//536 364//536
f 356//537 359//537 364//537
f 356//538 364//538 366//538
f 364//539 363//539 365//539
f 365//540 367//540 364//540
f 366//541 364//541 367//541
f 367//542 369//542 366//542
f 367//543 368//543 369//543
f 367//544 365//544 368//544
f 371//545 369//545 368//545
f 371//546 370//546 369//546
f 372//547 369//547 370//547
f 369//548 372//548 366//548
f 373//549 375//549 372//549
f 372//550 374//550 373//550
f 370//551 374//551 372//551
f 372//552 375//552 366//552
f 352//553 375//553 373//553
f 354//554 375//554 352//554
f 375//555 354//555 366//555
f 373//1 374//1 378//1
f 374//189 376//189 377//189
f 374//556 370//556 376//556
f 378//1 374//1 377//1
f 378//1 352//1 373//1
f 346//1 352//1 378//1
f 378//557 377//557 379//557
f 379//558 380//558 378//558
f 346//559 378//559 380//559
f 380//560 382//560 381//560
f 380//561 381//561 346//561
f 383//562 382//562 380//562
f 379//563 383//563 380//563
f 384//564 385//564 383//564
f 384//565 383//565 379//565
f 383//566 386//566 382//566
f 386//567 383//567 385//567
f 387//568 382//568 386//568
f 386//569 388//569 387//569
f 388//570 386//570 282//570
f 385//571 282//571 386//571
f 389//572 387//572 388//572
f 388//573 390//573 389//573
f 282//574 283//574 388//574
f 390//575 388//575 283//575
f 283//127 286//127 390//127
f 285//53 390//53 286//53
f 390//53 285//53 389//53
f 285//576 339//576 389//576
f 387//577 389//577 339//577
f 387//578 339//578 343//578
f 387//579 343//579 381//579
f 387//580 381//580 382//580
f 385//581 384//581 391//581
f 282//582 385//582 279//582
f 391//583 279//583 385//583
f 188//584 391//584 384//584
f 391//585 188//585 191//585
f 193//586 391//586 191//586
f 391//587 193//587 280//587
f 279//588 391//588 280//588
f 188//589 384//589 379//589
f 346//590 381//590 343//590
f 189//591 379//591 377//591
f 189//592 188//592 379//592
f 377//593 392//593 189//593
f 392//167 377//167 393//167
f 393//189 377//189 376//189
f 178//1 392//1 393//1
f 178//594 393//594 177//594
f 177//595 393//595 376//595
f 181//1 392//1 178//1
f 392//596 181//596 189//596
f 370//597 371//597 376//597
f 376//598 175//598 177//598
f 371//599 176//599 376//599
f 175//600 376//600 176//600
f 371//601 394//601 176//601
f 371//602 395//602 394//602
f 368//603 395//603 371//603
f 167//604 394//604 395//604
f 395//605 396//605 167//605
f 395//606 398//606 396//606
f 368//607 397//607 395//607
f 397//608 398//608 395//608
f 398//609 399//609 164//609
f 398//610 164//610 396//610
f 398//611 400//611 399//611
f 398//612 401//612 400//612
f 397//613 401//613 398//613
f 402//614 274//614 401//614
f 401//615 403//615 402//615
f 400//616 401//616 274//616
f 397//617 403//617 401//617
f 363//618 403//618 397//618
f 363//619 402//619 403//619
f 402//620 362//620 404//620
f 404//621 276//621 402//621
f 402//622 276//622 274//622
f 362//623 402//623 363//623
f 404//624 297//624 296//624
f 404//625 296//625 276//625
f 299//626 404//626 362//626
f 404//627 299//627 297//627
f 400//628 274//628 273//628
f 399//629 400//629 273//629
f 273//630 163//630 399//630
f 163//631 164//631 399//631
f 397//632 365//632 363//632
f 397//633 368//633 365//633
f 167//634 396//634 165//634
f 396//635 164//635 165//635
f 394//636 167//636 168//636
f 168//637 176//637 394//637
f 354//638 356//638 366//638
f 301//639 299//639 362//639
f 303//640 351//640 405//640
f 349//641 405//641 351//641
f 406//642 405//642 408//642
f 405//643 406//643 303//643
f 405//644 407//644 408//644
f 407//645 405//645 349//645
f 411//646 409//646 408//646
f 312//647 408//647 409//647
f 408//648 312//648 307//648
f 408//649 307//649 406//649
f 407//650 410//650 408//650
f 408//651 410//651 411//651
f 411//652 327//652 315//652
f 409//653 411//653 315//653
f 410//654 412//654 411//654
f 411//655 412//655 327//655
f 328//656 327//656 412//656
f 412//657 414//657 328//657
f 412//658 410//658 413//658
f 412//659 413//659 345//659
f 412//660 345//660 414//660
f 340//511 414//511 345//511
f 340//251 331//251 414//251
f 328//661 414//661 331//661
f 347//662 345//662 413//662
f 413//663 410//663 407//663
f 407//664 347//664 413//664
f 311//665 409//665 315//665
f 409//666 311//666 312//666
f 347//667 407//667 349//667
f 304//668 406//668 307//668
f 406//669 304//669 303//669
f 331//1 340//1 334//1
f 415//670 338//670 339//670
f 285//671 415//671 339//671
f 415//672 285//672 416//672
f 415//673 417//673 338//673
f 417//674 415//674 416//674
f 417//675 419//675 338//675
f 420//676 418//676 417//676
f 418//677 419//677 417//677
f 417//678 416//678 420//678
f 420//679 416//679 422//679
f 420//680 421//680 418//680
f 421//681 420//681 317//681
f 422//682 423//682 420//682
f 423//683 317//683 420//683
f 423//684 422//684 288//684
f 288//685 292//685 423//685
f 292//686 317//686 423//686
f 416//687 285//687 422//687
f 422//672 285//672 288//672
f 418//688 421//688 318//688
f 318//689 421//689 317//689
f 419//53 337//53 338//53
f 337//690 419//690 418//690
f 337//691 418//691 318//691
f 318//692 320//692 337//692
f 323//693 337//693 320//693
f 333//167 331//167 334//167
f 317//694 293//694 313//694
f 317//695 292//695 293//695
f 313//696 293//696 309//696
f 309//697 293//697 291//697
f 305//698 291//698 295//698
f 277//420 276//420 296//420
f 289//420 277//420 296//420
f 280//127 193//127 196//127
f 196//127 271//127 280//127
f 185//699 424//699 190//699
f 131//700 190//700 424//700
f 425//701 131//701 424//701
f 425//702 424//702 426//702
f 183//703 426//703 424//703
f 185//704 183//704 424//704
f 425//705 426//705 139//705
f 183//706 139//706 426//706
f 427//707 133//707 425//707
f 131//708 425//708 133//708
f 139//709 427//709 425//709
f 133//707 427//707 134//707
f 134//710 427//710 428//710
f 139//711 428//711 427//711
f 428//712 138//712 134//712
f 138//713 428//713 139//713
f 189//714 181//714 186//714
f 172//715 149//715 144//715
f 124//716 137//716 122//716
f 124//717 126//717 137//717
f 133//718 130//718 131//718
f 119//719 111//719 103//719
f 118//720 76//720 116//720
f 14//14 12//14 117//14
f 14//721 117//721 429//721
f 429//722 117//722 116//722
f 116//723 430//723 429//723
f 429//724 430//724 19//724
f 19//725 14//725 429//725
f 430//726 17//726 19//726
f 116//727 74//727 430//727
f 74//104 17//104 430//104
f 76//728 74//728 116//728
f 113//729 2//729 41//729
f 113//730 41//730 44//730
f 44//731 53//731 113//731
f 2//732 113//732 3//732
f 103//733 111//733 106//733
f 52//734 93//734 97//734
f 52//69 58//69 93//69
f 93//127 58//127 89//127
f 89//735 65//735 92//735
f 65//736 87//736 92//736
f 59//737 65//737 89//737
f 89//738 58//738 59//738
f 84//739 87//739 70//739
f 70//740 87//740 65//740
f 84//741 70//741 72//741
f 23//742 69//742 24//742
f 69//743 23//743 17//743
f 43//744 40//744 31//744
f 37//745 33//745 40//745
f 40//746 33//746 31//746
f 7//747 35//747 4//747
f 9//748 20//748 10//748
