# Blender 5.0.1
# www.blender.org
mtllib left_wrist_z_link_visual_3.mtl
o L_IndexV2.011_visual.001
v -0.027266 -0.045235 0.035363
v 0.037359 0.048507 -0.006056
v 0.041890 0.044946 -0.004482
v 0.049702 0.036694 -0.000836
v 0.046018 0.040995 -0.002737
v 0.052907 0.032083 0.001201
v 0.059368 0.016850 0.007932
v 0.057764 0.022113 0.005606
v 0.060851 0.006019 0.012717
v 0.060400 0.011468 0.010310
v 0.060716 0.000557 0.015131
v 0.058698 -0.010201 0.019884
v 0.059996 -0.004868 0.017528
v 0.054425 -0.020393 0.024387
v 0.056835 -0.015393 0.022178
v 0.048059 -0.029625 0.028466
v 0.051490 -0.025152 0.026490
v 0.039848 -0.037545 0.031966
v 0.044166 -0.033769 0.030297
v 0.030104 -0.043847 0.034750
v 0.035145 -0.040915 0.033454
v 0.019204 -0.048289 0.036713
v 0.024774 -0.046313 0.035840
v 0.013450 -0.049756 0.037361
v 0.001609 -0.051113 0.037961
v 0.007566 -0.050701 0.037778
v -0.004363 -0.050989 0.037906
v -0.016124 -0.049144 0.037090
v -0.010293 -0.050331 0.037615
v -0.021800 -0.047439 0.036337
v 0.055603 0.027207 0.003355
v 0.032469 0.051645 -0.007442
v -0.037360 -0.039412 0.032791
v 0.027266 0.054329 -0.008628
v 0.021800 0.056534 -0.009603
v 0.010293 0.059425 -0.010880
v 0.016124 0.058238 -0.010355
v 0.004363 0.060084 -0.011171
v -0.013450 0.058851 -0.010626
v -0.007566 0.059795 -0.011044
v -0.024774 0.055407 -0.009105
v -0.019204 0.057383 -0.009978
v -0.030104 0.052941 -0.008015
v -0.039848 0.046639 -0.005230
v -0.035145 0.050009 -0.006720
v -0.048060 0.038720 -0.001731
v -0.044166 0.042864 -0.003562
v -0.054425 0.029487 0.002348
v -0.051490 0.034246 0.000245
v -0.058698 0.019296 0.006851
v -0.056835 0.024487 0.004557
v -0.060716 0.008538 0.011604
v -0.059996 0.013962 0.009208
v -0.060400 -0.002373 0.016425
v -0.060851 0.003075 0.014018
v -0.059368 -0.007755 0.018803
v -0.055603 -0.018113 0.023380
v -0.057764 -0.013019 0.021129
v -0.052907 -0.022989 0.025534
v -0.046018 -0.031901 0.029472
v -0.049702 -0.027600 0.027572
v -0.041890 -0.035851 0.031218
v -0.001610 0.060207 -0.011226
v -0.032469 -0.042550 0.034177
v -0.028011 -0.049810 0.028686
v 0.038380 0.046492 -0.013865
v 0.043035 0.042834 -0.012248
v 0.051059 0.034357 -0.008502
v 0.047275 0.038776 -0.010455
v 0.054353 0.029620 -0.006410
v 0.060990 0.013970 0.000505
v 0.059342 0.019377 -0.001884
v 0.062514 0.002844 0.005421
v 0.062051 0.008441 0.002948
v 0.062375 -0.002768 0.007901
v 0.060302 -0.013820 0.012784
v 0.061635 -0.008341 0.010363
v 0.055911 -0.024290 0.017410
v 0.058388 -0.019153 0.015141
v 0.049372 -0.033775 0.021601
v 0.052897 -0.029179 0.019570
v 0.040936 -0.041911 0.025196
v 0.045373 -0.038032 0.023482
v 0.030927 -0.048385 0.028056
v 0.036105 -0.045372 0.026725
v 0.019729 -0.052948 0.030073
v 0.025450 -0.050918 0.029175
v 0.013817 -0.054456 0.030738
v 0.001653 -0.055849 0.031354
v 0.007773 -0.055426 0.031167
v -0.004482 -0.055722 0.031298
v -0.016565 -0.053826 0.030460
v -0.010574 -0.055046 0.030999
v -0.022396 -0.052075 0.029687
v 0.057122 0.024611 -0.004197
v 0.033356 0.049716 -0.015289
v -0.038380 -0.043829 0.026043
v 0.028011 0.052473 -0.016507
v 0.022395 0.054738 -0.017508
v 0.010574 0.057709 -0.018821
v 0.016565 0.056489 -0.018281
v 0.004482 0.058385 -0.019119
v -0.013818 0.057118 -0.018560
v -0.007773 0.058089 -0.018989
v -0.025450 0.053581 -0.016997
v -0.019729 0.055611 -0.017894
v -0.030927 0.051047 -0.015877
v -0.040936 0.044573 -0.013017
v -0.036106 0.048035 -0.014546
v -0.049373 0.036438 -0.009422
v -0.045373 0.040695 -0.011303
v -0.055912 0.026953 -0.005231
v -0.052897 0.031842 -0.007391
v -0.060302 0.016483 -0.000605
v -0.058388 0.021816 -0.002962
v -0.062375 0.005431 0.004278
v -0.061635 0.011004 0.001816
v -0.062051 -0.005778 0.009231
v -0.062514 -0.000181 0.006758
v -0.060990 -0.011307 0.011674
v -0.057122 -0.021948 0.016375
v -0.059342 -0.016714 0.014063
v -0.054353 -0.026957 0.018589
v -0.047275 -0.036113 0.022634
v -0.051060 -0.031694 0.020681
v -0.043035 -0.040171 0.024427
v -0.001653 0.058512 -0.019176
v -0.033356 -0.047053 0.027468
v -0.028011 -0.052659 0.022239
v 0.038380 0.043644 -0.020311
v 0.043035 0.039985 -0.018695
v 0.051059 0.031508 -0.014950
v 0.047275 0.035927 -0.016902
v 0.054353 0.026771 -0.012856
v 0.060990 0.011122 -0.005942
v 0.059342 0.016529 -0.008331
v 0.062514 -0.000005 -0.001026
v 0.062051 0.005593 -0.003499
v 0.062375 -0.005617 0.001454
v 0.060302 -0.016669 0.006337
v 0.061635 -0.011189 0.003916
v 0.055911 -0.027138 0.010963
v 0.058388 -0.022002 0.008694
v 0.049372 -0.036623 0.015154
v 0.052897 -0.032028 0.013124
v 0.040936 -0.044759 0.018749
v 0.045373 -0.040881 0.017035
v 0.030927 -0.051233 0.021609
v 0.036105 -0.048221 0.020278
v 0.019729 -0.055797 0.023625
v 0.025450 -0.053766 0.022728
v 0.013817 -0.057304 0.024292
v 0.001653 -0.058698 0.024908
v 0.007773 -0.058274 0.024720
v -0.004482 -0.058571 0.024851
v -0.016565 -0.056675 0.024014
v -0.010574 -0.057894 0.024552
v -0.022396 -0.054924 0.023240
v 0.057122 0.021762 -0.010643
v 0.033356 0.046867 -0.021736
v -0.038380 -0.046678 0.019597
v 0.028011 0.049625 -0.022954
v 0.022395 0.051890 -0.023955
v 0.010574 0.054860 -0.025268
v 0.016565 0.053640 -0.024729
v 0.004482 0.055537 -0.025567
v -0.013818 0.054270 -0.025007
v -0.007773 0.055240 -0.025435
v -0.025450 0.050732 -0.023444
v -0.019729 0.052762 -0.024341
v -0.030927 0.048199 -0.022324
v -0.040936 0.041725 -0.019464
v -0.036106 0.045187 -0.020993
v -0.049373 0.033589 -0.015869
v -0.045373 0.037846 -0.017750
v -0.055912 0.024104 -0.011678
v -0.052897 0.028993 -0.013838
v -0.060302 0.013634 -0.007052
v -0.058388 0.018968 -0.009408
v -0.062375 0.002583 -0.002169
v -0.061635 0.008155 -0.004631
v -0.062051 -0.008627 0.002784
v -0.062514 -0.003029 0.000311
v -0.060990 -0.014156 0.005227
v -0.057122 -0.024796 0.009928
v -0.059342 -0.019563 0.007616
v -0.054353 -0.029806 0.012142
v -0.047275 -0.038961 0.016187
v -0.051060 -0.034542 0.014235
v -0.043035 -0.043019 0.017980
v -0.001653 0.055664 -0.025622
v -0.033356 -0.049901 0.021021
v -0.027266 -0.038867 0.049775
v 0.037359 0.054875 0.008356
v 0.041890 0.051314 0.009930
v 0.049702 0.043062 0.013576
v 0.046018 0.047363 0.011675
v 0.052907 0.038451 0.015613
v 0.059368 0.023218 0.022344
v 0.057764 0.028481 0.020018
v 0.060851 0.012387 0.027129
v 0.060400 0.017836 0.024722
v 0.060716 0.006924 0.029543
v 0.058698 -0.003834 0.034296
v 0.059996 0.001500 0.031940
v 0.054425 -0.014025 0.038799
v 0.056835 -0.009025 0.036590
v 0.048059 -0.023257 0.042878
v 0.051490 -0.018784 0.040902
v 0.039848 -0.031177 0.046378
v 0.044166 -0.027402 0.044710
v 0.030104 -0.037479 0.049162
v 0.035145 -0.034547 0.047866
v 0.019204 -0.041921 0.051125
v 0.024774 -0.039945 0.050251
v 0.013450 -0.043388 0.051773
v 0.001609 -0.044745 0.052372
v 0.007566 -0.044333 0.052190
v -0.004363 -0.044621 0.052318
v -0.016124 -0.042776 0.051502
v -0.010293 -0.043963 0.052027
v -0.021800 -0.041071 0.050749
v 0.055603 0.033575 0.017767
v 0.032469 0.058013 0.006969
v -0.037360 -0.033045 0.047203
v 0.027266 0.060697 0.005784
v 0.021800 0.062902 0.004809
v 0.010293 0.065793 0.003532
v 0.016124 0.064606 0.004056
v 0.004363 0.066451 0.003241
v -0.013450 0.065218 0.003786
v -0.007566 0.066163 0.003368
v -0.024774 0.061775 0.005307
v -0.019204 0.063751 0.004434
v -0.030104 0.059309 0.006397
v -0.039848 0.053007 0.009181
v -0.035145 0.056377 0.007692
v -0.048060 0.045087 0.012681
v -0.044166 0.049232 0.010849
v -0.054425 0.035855 0.016760
v -0.051490 0.040614 0.014657
v -0.058698 0.025664 0.021263
v -0.056835 0.030855 0.018969
v -0.060716 0.014906 0.026016
v -0.059996 0.020330 0.023620
v -0.060400 0.003994 0.030838
v -0.060851 0.009443 0.028430
v -0.059368 -0.001387 0.033216
v -0.055603 -0.011745 0.037792
v -0.057764 -0.006651 0.035541
v -0.052907 -0.016621 0.039946
v -0.046018 -0.025533 0.043884
v -0.049702 -0.021232 0.041984
v -0.041890 -0.029483 0.045630
v -0.001610 0.066575 0.003186
v -0.032469 -0.036182 0.048589
v 0.023616 -0.055804 0.006254
v 0.018119 -0.057789 0.007131
v -0.055649 0.010255 -0.022934
v -0.053434 0.015267 -0.025149
v -0.057299 0.005064 -0.020641
v -0.050676 0.020048 -0.027261
v 0.046362 -0.038985 -0.001178
v -0.039452 0.032532 -0.032777
v -0.043648 0.028725 -0.031095
v -0.034856 0.035931 -0.034279
v -0.047403 0.024550 -0.029250
v 0.027222 -0.047167 0.019826
v 0.021564 -0.049440 0.020831
v 0.016062 0.048930 -0.022634
v 0.021765 0.046834 -0.021707
v 0.009890 0.049994 -0.023104
v 0.004154 0.045979 -0.038718
v 0.010014 0.045273 -0.038407
v -0.024657 0.041369 -0.036682
v 0.039748 -0.038128 0.015833
v 0.036316 -0.041390 0.017274
v 0.031255 -0.044608 0.018696
v 0.046007 -0.010709 0.003718
v 0.039918 0.035543 -0.016718
v 0.043382 0.032366 -0.015315
v 0.044637 -0.025008 0.010036
v 0.044158 -0.030009 0.012245
v -0.013470 0.044819 -0.038206
v 0.049325 0.023917 -0.011581
v 0.048844 0.018899 -0.009365
v -0.007648 0.045750 -0.038618
v 0.026245 0.045146 -0.020961
v 0.031439 0.042003 -0.019573
v -0.056681 -0.021683 -0.008822
v -0.057993 -0.016412 -0.011151
v 0.047525 0.005131 -0.003281
v 0.046984 -0.000520 -0.000784
v 0.045579 -0.015179 0.005693
v 0.045056 -0.020641 0.008106
v 0.048462 0.014909 -0.007601
v 0.047940 0.009464 -0.005195
v 0.035531 0.039553 -0.018490
v -0.058715 -0.011046 -0.013522
v 0.026710 0.039981 -0.036068
v 0.046885 0.027650 -0.013231
v 0.015766 0.044029 -0.037857
v 0.021350 0.042259 -0.037075
v 0.011033 -0.052392 0.022135
v 0.006262 -0.053356 0.022561
v -0.052348 -0.031728 -0.004385
v 0.043774 -0.034016 0.014016
v -0.054793 -0.026806 -0.006559
v 0.017011 -0.051232 0.021623
v -0.000016 -0.053405 0.022583
v 0.056952 0.001977 -0.019277
v 0.055640 0.007248 -0.021605
v 0.000713 -0.060573 0.008361
v 0.003288 0.051057 -0.023573
v -0.029907 0.038886 -0.035585
v 0.052393 -0.029703 -0.005279
v 0.054609 -0.024691 -0.007493
v 0.049635 -0.034484 -0.003167
v 0.056258 -0.019500 -0.009788
v 0.057326 -0.014182 -0.012137
v -0.037580 -0.048436 0.002998
v -0.049371 -0.036398 -0.002321
v -0.058840 -0.005642 -0.015910
v -0.041949 -0.044795 0.001390
v -0.045893 -0.040769 -0.000390
v -0.019159 0.043354 -0.037559
v -0.001753 0.046138 -0.038789
v 0.006608 -0.060185 0.008190
v -0.038959 -0.041862 0.017483
v -0.033820 -0.045000 0.018869
v -0.009695 0.050995 -0.023546
v -0.015710 0.049838 -0.023034
v -0.003415 0.051061 -0.023575
v 0.031791 0.037219 -0.034848
v -0.032831 -0.051654 0.004420
v -0.016806 -0.058464 0.007429
v -0.049575 -0.030968 0.012669
v -0.046816 -0.034727 0.014330
v -0.042444 -0.038701 0.016086
v -0.050398 -0.002981 0.000303
v -0.027751 -0.054416 0.005641
v -0.035734 0.041607 -0.019398
v -0.039750 0.039029 -0.018259
v -0.051768 -0.017280 0.006621
v -0.052247 -0.022281 0.008831
v -0.022391 -0.056694 0.006647
v 0.057674 -0.003389 -0.016906
v -0.047081 0.031645 -0.014996
v -0.047562 0.026627 -0.012779
v 0.053752 0.012371 -0.023869
v -0.020443 0.048888 -0.022615
v -0.026156 0.046620 -0.021613
v -0.048881 0.012859 -0.006695
v -0.049422 0.007208 -0.004199
v -0.050827 -0.007451 0.002278
v -0.051350 -0.012914 0.004692
v -0.047944 0.022637 -0.011016
v -0.048466 0.017192 -0.008610
v -0.030651 0.044858 -0.020834
v -0.044096 0.034943 -0.016453
v 0.051307 0.017293 -0.026044
v -0.024010 -0.049583 0.020894
v -0.019495 -0.051291 0.021649
v 0.048331 0.021963 -0.028107
v -0.052631 -0.026288 0.010602
v -0.029676 -0.047490 0.019969
v -0.013322 -0.052338 0.022111
v 0.012430 -0.059254 0.007778
v 0.036540 0.034001 -0.033426
v 0.044852 0.026334 -0.030038
v 0.040909 0.030360 -0.031817
v -0.011055 -0.059708 0.007978
v -0.005195 -0.060414 0.008290
v 0.057799 -0.008794 -0.014518
v 0.028866 -0.053322 0.005157
v 0.042608 -0.043160 0.000667
v 0.033815 -0.050366 0.003851
v 0.038411 -0.046967 0.002349
v -0.058366 -0.000253 -0.018291
v 0.023616 -0.061806 -0.007330
v 0.018119 -0.063791 -0.006453
v -0.055649 0.004254 -0.036518
v -0.053434 0.009266 -0.038733
v -0.057299 -0.000938 -0.034225
v -0.050676 0.014047 -0.040845
v 0.046362 -0.044987 -0.014761
v -0.039452 0.026530 -0.046360
v -0.043648 0.022723 -0.044679
v -0.034856 0.029929 -0.047863
v -0.047403 0.018548 -0.042834
v 0.004154 0.039977 -0.052302
v 0.010014 0.039271 -0.051991
v -0.024657 0.035367 -0.050265
v -0.013470 0.038817 -0.051790
v -0.007648 0.039748 -0.052201
v -0.056681 -0.027685 -0.022406
v -0.057993 -0.022414 -0.024735
v -0.058715 -0.017048 -0.027106
v 0.026710 0.033979 -0.049652
v 0.015766 0.038027 -0.051441
v 0.021350 0.036257 -0.050659
v -0.052348 -0.037730 -0.017968
v -0.054793 -0.032808 -0.020143
v 0.056952 -0.004025 -0.032860
v 0.055640 0.001246 -0.035189
v 0.000713 -0.066575 -0.005223
v -0.029907 0.032885 -0.049169
v 0.052393 -0.035704 -0.018863
v 0.054609 -0.030692 -0.021077
v 0.049635 -0.040486 -0.016750
v 0.056258 -0.025501 -0.023371
v 0.057326 -0.020184 -0.025720
v -0.037580 -0.054438 -0.010585
v -0.049371 -0.042400 -0.015904
v -0.058840 -0.011643 -0.029494
v -0.041949 -0.050797 -0.012194
v -0.045893 -0.046771 -0.013973
v -0.019159 0.037352 -0.051142
v -0.001753 0.040136 -0.052372
v 0.006608 -0.066187 -0.005394
v 0.031791 0.031217 -0.048432
v -0.032831 -0.057656 -0.009163
v -0.016806 -0.064466 -0.006155
v -0.027751 -0.060418 -0.007943
v -0.022391 -0.062696 -0.006937
v 0.057674 -0.009391 -0.030489
v 0.053752 0.006369 -0.037453
v 0.051307 0.011291 -0.039627
v 0.048331 0.015961 -0.041691
v 0.012430 -0.065256 -0.005805
v 0.036540 0.027999 -0.047010
v 0.044852 0.020332 -0.043622
v 0.040909 0.024358 -0.045401
v -0.011055 -0.065710 -0.005605
v -0.005195 -0.066416 -0.005293
v 0.057799 -0.014795 -0.028101
v 0.028866 -0.059323 -0.008427
v 0.042608 -0.049162 -0.012917
v 0.033815 -0.056368 -0.009733
v 0.038411 -0.052969 -0.011235
v -0.058366 -0.006255 -0.031875
vn 0.8526 -0.3573 0.3813
vn -0.9429 -0.1579 0.2932
vn 0.9718 -0.0253 0.2346
vn -0.7706 -0.4696 0.4309
vn 0.8957 -0.2787 0.3466
vn -0.7077 -0.5360 0.4603
vn 0.9301 -0.1967 0.3103
vn -0.6380 -0.5965 0.4870
vn 0.9642 0.2373 0.1186
vn -0.8526 0.5224 -0.0074
vn 0.7706 0.6348 -0.0571
vn -0.6037 0.7874 -0.1245
vn 0.9761 0.1502 0.1571
vn 0.7077 0.7012 -0.0864
vn -0.8014 0.5968 -0.0403
vn 0.9786 0.0623 0.1959
vn 0.8735 0.4867 0.0084
vn -0.5253 0.8382 -0.1469
vn 0.8260 0.5631 -0.0254
vn 0.7424 -0.5010 0.4448
vn -0.7424 0.6662 -0.0709
vn 0.9429 0.3230 0.0807
vn 0.6764 -0.5647 0.4729
vn -0.6763 0.7299 -0.0991
vn 0.5621 0.8156 -0.1370
vn 0.6037 -0.6222 0.4983
vn -0.2629 0.9451 -0.1942
vn 0.4809 0.8625 -0.1577
vn 0.9126 0.4064 0.0438
vn 0.2127 0.9566 -0.1993
vn -0.4809 -0.6973 0.5315
vn 0.2629 -0.7799 0.5680
vn -0.3540 0.9174 -0.1819
vn 0.3053 0.9333 -0.1890
vn 0.3540 -0.7522 0.5558
vn -0.4418 0.8816 -0.1661
vn 0.0222 0.9777 -0.2086
vn 0.5253 -0.6730 0.5208
vn 0.1180 0.9715 -0.2058
vn -0.8957 0.4439 0.0273
vn -0.0222 -0.8126 0.5824
vn -0.1692 0.9645 -0.2028
vn -0.9301 0.3618 0.0635
vn 0.4418 -0.7164 0.5400
vn -0.5621 -0.6504 0.5108
vn -0.9555 0.2771 0.1010
vn -0.1180 -0.8063 0.5797
vn -0.0739 0.9754 -0.2076
vn 0.6380 0.7617 -0.1131
vn -0.9642 -0.0722 0.2553
vn 0.0739 -0.8102 0.5814
vn -0.9761 0.0150 0.2168
vn 0.1692 -0.7993 0.5766
vn -0.9718 0.1905 0.1392
vn -0.2127 -0.7914 0.5731
vn -0.8735 -0.3215 0.3655
vn -0.3053 -0.7681 0.5628
vn -0.9786 0.1029 0.1780
vn -0.3950 -0.7367 0.5489
vn -0.8260 -0.3979 0.3992
vn 0.8014 -0.4316 0.4141
vn 0.3950 0.9018 -0.1751
vn 0.9555 -0.1119 0.2729
vn -0.9126 -0.2412 0.3300
vn 0.1205 0.9080 -0.4012
vn -0.9150 0.3691 -0.1631
vn -0.0226 -0.9145 0.4040
vn -0.1728 0.9009 -0.3981
vn -0.9501 0.2853 -0.1260
vn 0.4513 -0.8162 0.3607
vn -0.5743 -0.7488 0.3309
vn -0.9761 0.1987 -0.0878
vn -0.1205 -0.9080 0.4012
vn -0.0754 0.9121 -0.4030
vn 0.6517 0.6937 -0.3065
vn -0.9850 -0.1581 0.0699
vn 0.0755 -0.9121 0.4030
vn -0.9971 -0.0690 0.0305
vn 0.1728 -0.9009 0.3981
vn -0.9927 0.1102 -0.0487
vn -0.2173 -0.8928 0.3945
vn -0.8924 -0.4128 0.1824
vn -0.3119 -0.8691 0.3840
vn -0.9997 0.0207 -0.0092
vn -0.4035 -0.8369 0.3698
vn -0.8438 -0.4908 0.2169
vn 0.8187 -0.5253 0.2321
vn 0.4035 0.8369 -0.3698
vn 0.9761 -0.1987 0.0878
vn -0.9323 -0.3308 0.1462
vn 0.8710 -0.4493 0.1985
vn -0.9633 -0.2456 0.1085
vn 0.9927 -0.1102 0.0487
vn -0.7872 -0.5641 0.2492
vn 0.9150 -0.3691 0.1631
vn -0.7229 -0.6320 0.2792
vn 0.9501 -0.2853 0.1261
vn -0.6517 -0.6937 0.3065
vn 0.9849 0.1581 -0.0699
vn -0.8710 0.4493 -0.1985
vn 0.7872 0.5641 -0.2492
vn -0.6167 0.7200 -0.3181
vn 0.9971 0.0690 -0.0305
vn 0.7229 0.6320 -0.2792
vn -0.8187 0.5253 -0.2321
vn 0.9997 -0.0207 0.0092
vn 0.8924 0.4128 -0.1824
vn -0.5366 0.7719 -0.3410
vn 0.8438 0.4908 -0.2169
vn 0.7584 -0.5961 0.2634
vn -0.7584 0.5961 -0.2634
vn 0.9633 0.2456 -0.1085
vn 0.6909 -0.6612 0.2922
vn -0.6909 0.6613 -0.2922
vn 0.5743 0.7488 -0.3309
vn 0.6167 -0.7200 0.3181
vn -0.2686 0.8811 -0.3893
vn 0.4913 0.7967 -0.3520
vn 0.9323 0.3308 -0.1462
vn 0.2173 0.8928 -0.3945
vn -0.4912 -0.7967 0.3520
vn 0.2685 -0.8811 0.3893
vn -0.3617 0.8528 -0.3768
vn 0.3119 0.8691 -0.3840
vn 0.3617 -0.8528 0.3768
vn -0.4513 0.8162 -0.3607
vn 0.0226 0.9145 -0.4040
vn 0.5366 -0.7719 0.3410
vn 0.8710 -0.4494 0.1985
vn -0.7872 -0.5641 0.2493
vn -0.7230 -0.6320 0.2792
vn 0.9501 -0.2853 0.1260
vn -0.6517 -0.6938 0.3065
vn 0.9850 0.1581 -0.0698
vn 0.9997 -0.0207 0.0091
vn 0.9633 0.2457 -0.1085
vn 0.6909 -0.6613 0.2922
vn -0.2685 0.8811 -0.3893
vn 0.4912 0.7967 -0.3520
vn 0.2686 -0.8811 0.3893
vn 0.0227 0.9145 -0.4041
vn -0.0755 0.9121 -0.4030
vn -0.2172 -0.8928 0.3945
vn -0.0406 0.9457 -0.3225
vn 0.8201 0.1657 0.5477
vn -0.8882 0.3326 0.3169
vn -0.9103 0.3415 0.2337
vn 0.8263 0.1172 0.5509
vn 0.8143 0.5626 -0.1426
vn -0.9412 0.0597 0.3326
vn 0.9138 -0.2520 0.3185
vn 0.0392 -0.8969 0.4406
vn 0.5294 0.8103 -0.2511
vn -0.7106 0.6381 -0.2964
vn 0.8570 0.5033 -0.1111
vn -0.4299 0.8339 -0.3461
vn 0.4012 0.8727 -0.2782
vn 0.8441 0.0631 0.5325
vn 0.7570 -0.5680 0.3230
vn -0.3829 0.8575 -0.3436
vn 0.7251 0.6621 -0.1892
vn 0.3489 0.8929 -0.2847
vn 0.2059 0.9330 -0.2953
vn 0.1918 -0.8814 0.4317
vn -0.1004 -0.8836 0.4573
vn -0.8602 -0.4837 0.1614
vn -0.1891 0.9214 -0.3395
vn -0.0295 -0.8932 0.4487
vn 0.3797 -0.8294 0.4099
vn -0.7239 -0.6494 0.2331
vn -0.9773 -0.1689 0.1282
vn -0.6869 -0.6817 0.2519
vn -0.9697 -0.0278 0.2426
vn -0.7714 0.5767 -0.2691
vn 0.4300 -0.8091 0.4007
vn -0.5747 -0.7610 0.3009
vn -0.3976 -0.8421 0.3643
vn -0.9106 0.1529 0.3839
vn -0.8757 0.2967 0.3809
vn -0.3523 -0.8568 0.3766
vn 0.2387 -0.8724 0.4265
vn -0.5282 -0.7873 0.3181
vn -0.8870 0.2091 0.4116
vn 0.5714 0.7840 -0.2425
vn 0.5567 -0.7398 0.3779
vn -0.6044 0.7273 -0.3253
vn 0.9628 0.2428 0.1188
vn 0.1524 0.9422 -0.2983
vn 0.0141 0.9500 -0.3118
vn -0.9367 0.3461 -0.0527
vn 0.5989 -0.7128 0.3650
vn 0.8575 0.2304 0.4600
vn 0.8691 -0.0258 0.4939
vn -0.8721 0.2634 0.4124
vn -0.8173 -0.5473 0.1804
vn -0.2055 -0.8849 0.4180
vn -0.2452 0.9056 -0.3460
vn 0.9277 0.2681 0.2599
vn 0.6876 0.6971 -0.2033
vn 0.8329 0.1971 0.5172
vn 0.9001 -0.1119 0.4210
vn -0.5603 0.7600 -0.3294
vn 0.8915 0.2364 0.3864
vn 0.7106 -0.6187 0.3351
vn -0.9230 0.3728 0.0958
vn 0.0018 -0.4018 -0.9157
vn 0.0020 -0.4017 -0.9158
vn 0.0024 -0.4019 -0.9157
vn 0.0028 -0.4019 -0.9157
vn 0.0032 -0.4023 -0.9155
vn 0.0034 -0.4025 -0.9154
vn 0.0024 -0.4037 -0.9149
vn 0.0016 -0.4040 -0.9147
vn 0.0013 -0.4041 -0.9147
vn 0.0011 -0.4041 -0.9147
vn 0.0010 -0.4042 -0.9147
vn 0.0011 -0.4043 -0.9146
vn 0.0012 -0.4044 -0.9146
vn 0.0014 -0.4045 -0.9145
vn 0.0018 -0.4047 -0.9145
vn 0.0027 -0.4051 -0.9142
vn 0.0032 -0.4066 -0.9136
vn 0.0030 -0.4069 -0.9135
vn 0.0023 -0.4070 -0.9134
vn 0.0021 -0.4070 -0.9134
vn 0.0015 -0.4071 -0.9134
vn 0.0013 -0.4070 -0.9134
vn 0.0008 -0.4070 -0.9134
vn 0.0005 -0.4068 -0.9135
vn 0.0001 -0.4066 -0.9136
vn -0.0001 -0.4065 -0.9137
vn -0.0004 -0.4064 -0.9137
vn -0.0005 -0.4063 -0.9137
vn -0.0008 -0.4062 -0.9138
vn -0.0010 -0.4062 -0.9138
vn -0.0012 -0.4060 -0.9139
vn -0.0013 -0.4059 -0.9139
vn -0.0016 -0.4057 -0.9140
vn -0.0017 -0.4056 -0.9141
vn -0.0018 -0.4054 -0.9141
vn -0.0019 -0.4052 -0.9142
vn -0.0019 -0.4050 -0.9143
vn -0.0015 -0.4044 -0.9146
vn -0.0012 -0.4043 -0.9146
vn -0.0010 -0.4042 -0.9147
vn -0.0009 -0.4041 -0.9147
vn -0.0008 -0.4041 -0.9147
vn -0.0008 -0.4040 -0.9147
vn -0.0009 -0.4040 -0.9148
vn -0.0010 -0.4039 -0.9148
vn -0.0012 -0.4038 -0.9148
vn -0.0015 -0.4036 -0.9150
vn -0.0016 -0.4029 -0.9152
vn -0.0015 -0.4028 -0.9153
vn -0.0013 -0.4026 -0.9154
vn -0.0012 -0.4025 -0.9154
vn -0.0010 -0.4023 -0.9155
vn -0.0008 -0.4022 -0.9155
vn -0.0006 -0.4021 -0.9156
vn -0.0004 -0.4021 -0.9156
vn -0.0001 -0.4021 -0.9156
vn 0.0001 -0.4021 -0.9156
vn 0.0002 -0.4022 -0.9156
vn 0.0005 -0.4020 -0.9157
vn 0.0009 -0.4018 -0.9157
vn 0.0011 -0.4019 -0.9157
vn 0.0015 -0.4018 -0.9157
vn 0.9925 0.1117 -0.0494
vn -0.2711 0.8805 -0.3890
vn -0.9968 0.0733 -0.0324
vn -0.3274 -0.8643 0.3819
vn 0.7041 -0.6495 0.2870
vn -0.7448 -0.6103 0.2697
vn 0.5468 -0.7659 0.3384
vn -0.0295 -0.9143 0.4040
vn 0.8327 -0.5065 0.2238
vn -0.9836 0.1652 -0.0730
vn -0.7724 0.5810 -0.2567
vn 0.8844 -0.4269 0.1886
vn 0.9603 -0.2553 0.1128
vn 0.9968 -0.0733 0.0324
vn 0.4213 0.8295 -0.3665
vn 0.7724 -0.5810 0.2567
vn -0.8639 -0.4607 0.2036
vn 0.9836 -0.1652 0.0730
vn 0.6287 -0.7113 0.3143
vn -0.8326 0.5066 -0.2238
vn -0.9104 -0.3784 0.1672
vn -0.5953 -0.7350 0.3247
vn -0.3671 0.8508 -0.3759
vn -0.9603 0.2553 -0.1128
vn 0.5953 0.7350 -0.3247
vn -0.6287 0.7113 -0.3143
vn 0.2301 0.8901 -0.3933
vn -0.9998 -0.0193 0.0085
vn 0.5109 0.7863 -0.3474
vn -0.1723 0.9010 -0.3981
vn -0.8085 -0.5383 0.2378
vn 0.6735 0.6761 -0.2988
vn -0.5109 -0.7863 0.3474
vn 0.9751 0.2030 -0.0897
vn -0.5468 0.7659 -0.3384
vn 0.9476 0.2922 -0.1291
vn 0.7448 0.6103 -0.2697
vn -0.9476 -0.2922 0.1291
vn 0.8085 0.5383 -0.2378
vn 0.1723 -0.9010 0.3981
vn -0.6735 -0.6761 0.2987
vn 0.9998 0.0193 -0.0085
vn 0.0717 -0.9123 0.4031
vn -0.4593 0.8125 -0.3590
vn -0.8844 0.4269 -0.1886
vn 0.3274 0.8643 -0.3819
vn -0.4213 -0.8295 0.3665
vn 0.3671 -0.8508 0.3759
vn 0.0295 0.9143 -0.4040
vn 0.9271 -0.3429 0.1515
vn -0.7041 0.6495 -0.2870
vn -0.1305 -0.9069 0.4007
vn 0.1305 0.9069 -0.4007
vn 0.4593 -0.8125 0.3590
vn 0.8639 0.4607 -0.2036
vn -0.0717 0.9123 -0.4031
vn -0.9925 -0.1117 0.0494
vn 0.9104 0.3784 -0.1672
vn 0.2711 -0.8804 0.3890
vn -0.9271 0.3429 -0.1515
vn -0.9751 -0.2030 0.0897
vn -0.2301 -0.8901 0.3933
vn -0.0000 0.4042 0.9147
vn -0.0000 -0.4042 -0.9147
s 0
usemtl Material.067
f 14//1 17//1 81//1 78//1
f 56//2 120//2 122//2 58//2
f 11//3 13//3 77//3 75//3
f 60//4 61//4 125//4 124//4
f 14//5 78//5 79//5 15//5
f 60//6 124//6 126//6 62//6
f 12//7 15//7 79//7 76//7
f 33//8 62//8 126//8 97//8
f 7//9 10//9 74//9 71//9
f 48//10 49//10 113//10 112//10
f 4//11 68//11 69//11 5//11
f 44//12 45//12 109//12 108//12
f 9//13 73//13 74//13 10//13
f 3//14 5//14 69//14 67//14
f 46//15 110//15 113//15 49//15
f 9//16 11//16 75//16 73//16
f 6//17 31//17 95//17 70//17
f 43//18 107//18 109//18 45//18
f 4//19 6//19 70//19 68//19
f 16//20 19//20 83//20 80//20
f 46//21 47//21 111//21 110//21
f 7//22 71//22 72//22 8//22
f 18//23 82//23 83//23 19//23
f 44//24 108//24 111//24 47//24
f 2//25 66//25 96//25 32//25
f 18//26 21//26 85//26 82//26
f 39//27 103//27 106//27 42//27
f 34//28 32//28 96//28 98//28
f 8//29 72//29 95//29 31//29
f 36//30 37//30 101//30 100//30
f 1//31 64//31 128//31 65//31
f 22//32 24//32 88//32 86//32
f 41//33 42//33 106//33 105//33
f 35//34 99//34 101//34 37//34
f 22//35 86//35 87//35 23//35
f 41//36 105//36 107//36 43//36
f 38//37 102//37 127//37 63//37
f 20//38 84//38 85//38 21//38
f 36//39 100//39 102//39 38//39
f 48//40 112//40 115//40 51//40
f 25//41 27//41 91//41 89//41
f 39//42 40//42 104//42 103//42
f 50//43 51//43 115//43 114//43
f 20//44 23//44 87//44 84//44
f 33//45 97//45 128//45 64//45
f 50//46 114//46 117//46 53//46
f 27//47 29//47 93//47 91//47
f 40//48 63//48 127//48 104//48
f 2//49 3//49 67//49 66//49
f 54//50 118//50 120//50 56//50
f 25//51 89//51 90//51 26//51
f 54//52 55//52 119//52 118//52
f 24//53 26//53 90//53 88//53
f 52//54 53//54 117//54 116//54
f 28//55 92//55 93//55 29//55
f 57//56 121//56 123//56 59//56
f 28//57 30//57 94//57 92//57
f 52//58 116//58 119//58 55//58
f 1//59 65//59 94//59 30//59
f 59//60 123//60 125//60 61//60
f 16//61 80//61 81//61 17//61
f 34//62 98//62 99//62 35//62
f 12//63 76//63 77//63 13//63
f 57//64 58//64 122//64 121//64
f 100//65 164//65 166//65 102//65
f 112//66 176//66 179//66 115//66
f 89//67 91//67 155//67 153//67
f 103//68 104//68 168//68 167//68
f 114//69 115//69 179//69 178//69
f 84//70 87//70 151//70 148//70
f 97//71 161//71 192//71 128//71
f 114//72 178//72 181//72 117//72
f 91//73 93//73 157//73 155//73
f 104//74 127//74 191//74 168//74
f 66//75 67//75 131//75 130//75
f 118//76 182//76 184//76 120//76
f 89//77 153//77 154//77 90//77
f 118//78 119//78 183//78 182//78
f 88//79 90//79 154//79 152//79
f 116//80 117//80 181//80 180//80
f 92//81 156//81 157//81 93//81
f 121//82 185//82 187//82 123//82
f 92//83 94//83 158//83 156//83
f 116//84 180//84 183//84 119//84
f 65//85 129//85 158//85 94//85
f 123//86 187//86 189//86 125//86
f 80//87 144//87 145//87 81//87
f 98//88 162//88 163//88 99//88
f 76//89 140//89 141//89 77//89
f 121//90 122//90 186//90 185//90
f 78//91 81//91 145//91 142//91
f 120//92 184//92 186//92 122//92
f 75//93 77//93 141//93 139//93
f 124//94 125//94 189//94 188//94
f 78//95 142//95 143//95 79//95
f 124//96 188//96 190//96 126//96
f 76//97 79//97 143//97 140//97
f 97//98 126//98 190//98 161//98
f 71//99 74//99 138//99 135//99
f 112//100 113//100 177//100 176//100
f 68//101 132//101 133//101 69//101
f 108//102 109//102 173//102 172//102
f 73//103 137//103 138//103 74//103
f 67//104 69//104 133//104 131//104
f 110//105 174//105 177//105 113//105
f 73//106 75//106 139//106 137//106
f 70//107 95//107 159//107 134//107
f 107//108 171//108 173//108 109//108
f 68//109 70//109 134//109 132//109
f 80//110 83//110 147//110 144//110
f 110//111 111//111 175//111 174//111
f 71//112 135//112 136//112 72//112
f 82//113 146//113 147//113 83//113
f 108//114 172//114 175//114 111//114
f 66//115 130//115 160//115 96//115
f 82//116 85//116 149//116 146//116
f 103//117 167//117 170//117 106//117
f 98//118 96//118 160//118 162//118
f 72//119 136//119 159//119 95//119
f 100//120 101//120 165//120 164//120
f 65//121 128//121 192//121 129//121
f 86//122 88//122 152//122 150//122
f 105//123 106//123 170//123 169//123
f 99//124 163//124 165//124 101//124
f 86//125 150//125 151//125 87//125
f 105//126 169//126 171//126 107//126
f 102//127 166//127 191//127 127//127
f 84//128 148//128 149//128 85//128
f 17//129 14//129 206//129 209//129
f 58//92 250//92 248//92 56//92
f 13//93 11//93 203//93 205//93
f 61//130 60//130 252//130 253//130
f 15//95 207//95 206//95 14//95
f 62//131 254//131 252//131 60//131
f 15//132 12//132 204//132 207//132
f 62//133 33//133 225//133 254//133
f 10//134 7//134 199//134 202//134
f 49//100 48//100 240//100 241//100
f 5//101 197//101 196//101 4//101
f 45//102 44//102 236//102 237//102
f 10//103 202//103 201//103 9//103
f 5//104 3//104 195//104 197//104
f 49//105 241//105 238//105 46//105
f 11//135 9//135 201//135 203//135
f 31//107 6//107 198//107 223//107
f 45//108 237//108 235//108 43//108
f 6//109 4//109 196//109 198//109
f 19//110 16//110 208//110 211//110
f 47//111 46//111 238//111 239//111
f 8//136 200//136 199//136 7//136
f 19//137 211//137 210//137 18//137
f 47//114 239//114 236//114 44//114
f 32//115 224//115 194//115 2//115
f 21//116 18//116 210//116 213//116
f 42//138 234//138 231//138 39//138
f 32//139 34//139 226//139 224//139
f 31//119 223//119 200//119 8//119
f 37//120 36//120 228//120 229//120
f 64//121 1//121 193//121 256//121
f 24//140 22//140 214//140 216//140
f 42//123 41//123 233//123 234//123
f 37//124 229//124 227//124 35//124
f 23//125 215//125 214//125 22//125
f 43//126 235//126 233//126 41//126
f 63//141 255//141 230//141 38//141
f 21//128 213//128 212//128 20//128
f 38//65 230//65 228//65 36//65
f 51//66 243//66 240//66 48//66
f 27//67 25//67 217//67 219//67
f 40//68 39//68 231//68 232//68
f 51//69 50//69 242//69 243//69
f 23//70 20//70 212//70 215//70
f 64//71 256//71 225//71 33//71
f 53//72 245//72 242//72 50//72
f 29//73 27//73 219//73 221//73
f 63//142 40//142 232//142 255//142
f 3//75 2//75 194//75 195//75
f 56//76 248//76 246//76 54//76
f 26//77 218//77 217//77 25//77
f 55//78 54//78 246//78 247//78
f 26//79 24//79 216//79 218//79
f 53//80 52//80 244//80 245//80
f 29//143 221//143 220//143 28//143
f 59//82 251//82 249//82 57//82
f 30//83 28//83 220//83 222//83
f 55//84 247//84 244//84 52//84
f 30//85 222//85 193//85 1//85
f 61//86 253//86 251//86 59//86
f 17//87 209//87 208//87 16//87
f 35//88 227//88 226//88 34//88
f 13//89 205//89 204//89 12//89
f 58//90 57//90 249//90 250//90
f 327//144 287//144 331//144 333//144
f 320//145 374//145 293//145 279//145
f 259//146 261//146 353//146 358//146
f 260//147 259//147 358//147 357//147
f 319//148 320//148 279//148 294//148
f 364//149 370//149 281//149 301//149
f 291//150 290//150 344//150 356//150
f 263//151 318//151 283//151 307//151
f 313//152 328//152 305//152 310//152
f 334//153 300//153 288//153 289//153
f 264//154 265//154 360//154 343//154
f 361//155 364//155 301//155 285//155
f 275//156 315//156 359//156 352//156
f 300//157 303//157 271//157 288//157
f 317//158 319//158 294//158 295//158
f 376//159 263//159 307//159 276//159
f 326//160 275//160 352//160 351//160
f 370//161 371//161 280//161 281//161
f 303//162 302//162 270//162 271//162
f 302//163 274//163 272//163 270//163
f 328//164 368//164 304//164 305//164
f 372//165 373//165 310//165 367//165
f 306//166 322//166 337//166 365//166
f 287//167 284//167 332//167 331//167
f 373//168 313//168 310//168
f 258//169 257//169 269//169 309//169
f 325//170 324//170 339//170 338//170
f 308//171 306//171 365//171 345//171
f 324//172 321//172 329//172 339//172
f 290//173 308//173 345//173 344//173
f 265//174 267//174 348//174 360//174
f 257//175 375//175 268//175 269//175
f 321//176 335//176 330//176 329//176
f 341//177 346//177 362//177 366//177
f 299//178 291//178 356//178 355//178
f 261//179 379//179 354//179 353//179
f 346//180 336//180 363//180 362//180
f 368//181 258//181 309//181 304//181
f 335//182 341//182 366//182 330//182
f 323//183 299//183 355//183 340//183
f 369//184 334//184 289//184 298//184
f 375//185 377//185 278//185 268//185
f 266//186 264//186 343//186 342//186
f 350//187 361//187 285//187 286//187
f 274//188 273//188 314//188 272//188
f 273//189 327//189 333//189 314//189
f 267//190 262//190 349//190 348//190
f 377//191 378//191 277//191 278//191
f 347//192 311//192 297//192 292//192
f 316//193 317//193 295//193 282//193
f 379//194 323//194 340//194 354//194
f 322//195 325//195 338//195 337//195
f 336//196 372//196 367//196 363//196
f 284//197 326//197 351//197 332//197
f 312//198 350//198 286//198 296//198
f 371//199 369//199 298//199 280//199
f 374//200 347//200 292//200 293//200
f 318//201 316//201 282//201 283//201
f 315//202 266//202 342//202 359//202
f 311//203 312//203 296//203 297//203
f 378//204 376//204 276//204 277//204
f 262//205 260//205 357//205 349//205
f 192//206 161//206 330//206
f 161//207 190//207 329//207 330//207
f 190//208 188//208 339//208 329//208
f 188//209 189//209 338//209 339//209
f 189//210 187//210 337//210 338//210
f 187//211 185//211 365//211 337//211
f 185//212 186//212 345//212 365//212
f 186//213 184//213 344//213 345//213
f 184//214 182//214 356//214 344//214
f 182//215 183//215 355//215 356//215
f 183//216 180//216 340//216 355//216
f 180//216 181//216 354//216 340//216
f 181//217 178//217 353//217 354//217
f 178//218 179//218 358//218 353//218
f 179//219 176//219 357//219 358//219
f 176//220 177//220 349//220 357//220
f 177//221 174//221 348//221 349//221
f 174//222 175//222 360//222 348//222
f 175//223 172//223 343//223 360//223
f 172//224 173//224 342//224 343//224
f 173//225 171//225 359//225 342//225
f 171//226 169//226 352//226 359//226
f 169//227 170//227 351//227 352//227
f 170//228 167//228 332//228 351//228
f 167//229 168//229 331//229 332//229
f 168//230 191//230 333//230 331//230
f 191//231 166//231 314//231 333//231
f 166//232 164//232 272//232 314//232
f 164//233 165//233 270//233 272//233
f 165//234 163//234 271//234 270//234
f 163//235 162//235 288//235 271//235
f 162//236 160//236 289//236 288//236
f 160//237 130//237 298//237 289//237
f 130//238 131//238 280//238 298//238
f 131//239 133//239 281//239 280//239
f 133//240 132//240 301//240 281//240
f 132//241 134//241 285//241 301//241
f 134//242 159//242 285//242
f 159//243 136//243 286//243 285//243
f 136//244 135//244 296//244 286//244
f 135//245 138//245 297//245 296//245
f 138//246 137//246 292//246 297//246
f 137//247 139//247 293//247 292//247
f 139//247 141//247 279//247 293//247
f 141//248 140//248 294//248 279//248
f 140//249 143//249 295//249 294//249
f 143//250 142//250 282//250 295//250
f 142//251 145//251 283//251 282//251
f 145//252 144//252 307//252 283//252
f 144//253 147//253 276//253 307//253
f 147//254 146//254 277//254 276//254
f 146//255 149//255 278//255 277//255
f 149//256 148//256 268//256 278//256
f 148//257 151//257 269//257 268//257
f 151//258 150//258 309//258 269//258
f 150//259 152//259 304//259 309//259
f 152//260 154//260 305//260 304//260
f 154//261 153//261 310//261 305//261
f 153//262 155//262 310//262
f 155//263 157//263 367//263 310//263
f 157//264 156//264 363//264 367//264
f 156//265 158//265 362//265 363//265
f 158//266 129//266 366//266 362//266
f 129//267 192//267 330//267 366//267
f 311//268 347//268 426//268 404//268
f 326//269 284//269 394//269 418//269
f 323//270 379//270 441//270 415//270
f 336//271 346//271 425//271 423//271
f 376//272 378//272 440//272 438//272
f 324//273 325//273 417//273 416//273
f 377//274 375//274 437//274 439//274
f 313//275 373//275 435//275 406//275
f 318//276 263//276 386//276 410//276
f 379//277 261//277 384//277 441//277
f 267//278 265//278 388//278 390//278
f 316//279 318//279 410//279 408//279
f 319//280 317//280 409//280 411//280
f 374//281 320//281 412//281 436//281
f 303//282 300//282 399//282 401//282
f 263//283 376//283 438//283 386//283
f 322//284 306//284 402//284 414//284
f 320//285 319//285 411//285 412//285
f 378//286 377//286 439//286 440//286
f 262//287 267//287 390//287 385//287
f 306//288 308//288 403//288 402//288
f 335//289 321//289 413//289 422//289
f 275//290 326//290 418//290 393//290
f 261//291 259//291 382//291 384//291
f 334//292 369//292 431//292 421//292
f 264//293 266//293 389//293 387//293
f 274//294 302//294 400//294 392//294
f 299//295 323//295 415//295 398//295
f 300//296 334//296 421//296 399//296
f 284//297 287//297 395//297 394//297
f 325//298 322//298 414//298 417//298
f 369//299 371//299 433//299 431//299
f 341//300 335//300 422//300 424//300
f 312//301 311//301 404//301 405//301
f 266//302 315//302 407//302 389//302
f 350//303 312//303 405//303 427//303
f 371//304 370//304 432//304 433//304
f 308//305 290//305 396//305 403//305
f 370//306 364//306 429//306 432//306
f 368//307 328//307 420//307 430//307
f 321//308 324//308 416//308 413//308
f 347//309 374//309 436//309 426//309
f 328//310 313//310 406//310 420//310
f 315//311 275//311 393//311 407//311
f 260//312 262//312 385//312 383//312
f 302//313 303//313 401//313 400//313
f 346//314 341//314 424//314 425//314
f 257//315 258//315 381//315 380//315
f 327//316 273//316 391//316 419//316
f 317//317 316//317 408//317 409//317
f 265//318 264//318 387//318 388//318
f 373//319 372//319 434//319 435//319
f 273//320 274//320 392//320 391//320
f 375//321 257//321 380//321 437//321
f 364//322 361//322 428//322 429//322
f 287//323 327//323 419//323 395//323
f 291//324 299//324 398//324 397//324
f 361//325 350//325 427//325 428//325
f 258//326 368//326 430//326 381//326
f 259//327 260//327 383//327 382//327
f 290//328 291//328 397//328 396//328
f 372//329 336//329 423//329 434//329
f 197//330 195//330 194//330 224//330 226//330 227//330 229//330 228//330 230//330 255//330 232//330 231//330 234//330 233//330 235//330 237//330 236//330 239//330 238//330 241//330 240//330 243//330 242//330 245//330 244//330 247//330 246//330 248//330 250//330 249//330 251//330 253//330 252//330 254//330 225//330 256//330 193//330 222//330 220//330 221//330 219//330 217//330 218//330 216//330 214//330 215//330 212//330 213//330 210//330 211//330 208//330 209//330 206//330 207//330 204//330 205//330 203//330 201//330 202//330 199//330 200//330 223//330 198//330 196//330
f 440//331 439//331 437//331 380//331 381//331 430//331 420//331 406//331 435//331 434//331 423//331 425//331 424//331 422//331 413//331 416//331 417//331 414//331 402//331 403//331 396//331 397//331 398//331 415//331 441//331 384//331 382//331 383//331 385//331 390//331 388//331 387//331 389//331 407//331 393//331 418//331 394//331 395//331 419//331 391//331 392//331 400//331 401//331 399//331 421//331 431//331 433//331 432//331 429//331 428//331 427//331 405//331 404//331 426//331 436//331 412//331 411//331 409//331 408//331 410//331 386//331 438//331
