# Blender 5.0.1
# www.blender.org
mtllib left_elbow_x_link_visual_6.mtl
o i01.left.bicep.full.007_visual.001
v -0.092832 -0.184948 0.083881
v -0.109242 -0.217525 -0.027291
v -0.100760 -0.147133 0.158700
v -0.127209 -0.178213 0.030467
v -0.088881 -0.254593 -0.078822
v -0.070261 -0.198850 0.088609
v -0.049131 -0.228520 0.047692
v -0.061270 -0.270105 -0.071967
v -0.053605 -0.174736 0.170897
v -0.073229 -0.140529 0.155742
v -0.024832 -0.165761 0.166890
v -0.029052 -0.186317 0.176013
v -0.005117 -0.195512 0.180078
v -0.007476 -0.244142 0.058103
v -0.031612 -0.246710 0.026278
v -0.024730 -0.286456 -0.064743
v 0.019450 -0.154604 -0.123003
v -0.000309 -0.152088 -0.124115
v 0.009503 -0.153790 -0.123362
v 0.014853 -0.299020 -0.059192
v 0.040724 -0.239680 0.109746
v 0.029436 -0.154522 -0.123038
v 0.044058 -0.305297 -0.056417
v 0.039365 -0.153545 -0.123470
v 0.017596 -0.233422 0.108751
v 0.025126 -0.205035 0.184285
v 0.025189 -0.183448 0.174705
v 0.056139 -0.211956 0.187343
v 0.080994 -0.215385 0.188857
v 0.074917 -0.192916 0.178888
v 0.075458 -0.176333 0.222162
v 0.122440 -0.193794 0.179276
v 0.104048 -0.216526 0.189363
v 0.080554 -0.266239 0.058143
v 0.132288 -0.215822 0.189052
v 0.116089 -0.243845 0.118361
v 0.098239 -0.282190 0.017168
v 0.125618 -0.307875 -0.055279
v 0.134589 -0.251763 0.093747
v 0.161330 -0.267356 0.035584
v 0.158281 -0.212439 0.187552
v 0.165927 -0.186050 0.175855
v 0.182667 -0.206486 0.184925
v 0.176501 -0.262886 0.033826
v 0.200425 -0.199773 0.181958
v 0.207631 -0.225989 0.096170
v 0.221123 -0.189767 0.177540
v 0.188596 -0.290959 -0.062747
v 0.203715 -0.169985 0.168756
v 0.228231 -0.137849 0.206851
v 0.232191 -0.135130 0.200726
v 0.240431 -0.176463 0.171657
v 0.227551 -0.136321 0.214508
v 0.171502 -0.152343 0.266881
v 0.234344 -0.146214 0.158254
v 0.209650 -0.136125 0.259715
v 0.229983 -0.132156 0.218947
v 0.194085 -0.119363 0.252309
v 0.219292 -0.100050 0.243774
v 0.240571 -0.112128 0.249112
v 0.159105 -0.134235 0.258880
v 0.153582 -0.176333 0.144999
v 0.123434 -0.177219 0.222553
v 0.114683 -0.158462 0.214266
v 0.182705 -0.130428 0.239284
v 0.181344 -0.149645 0.192791
v 0.176065 -0.119079 0.230503
v 0.173194 -0.134284 0.189770
v 0.187736 -0.161918 0.138630
v 0.210774 -0.132834 0.150820
v 0.196849 -0.116105 0.158010
v 0.242451 -0.089533 0.166230
v 0.215379 -0.140510 0.129170
v 0.235457 -0.112933 0.116986
v 0.237273 -0.173904 0.102036
v 0.247189 -0.080248 0.102544
v 0.259875 -0.142929 0.088349
v 0.273159 -0.106263 0.072149
v 0.260786 -0.168267 -0.093835
v 0.276623 -0.065308 0.054053
v 0.250132 -0.043706 0.086397
v 0.248278 0.024644 0.133360
v 0.254212 -0.015234 0.150980
v 0.244168 -0.004717 0.069170
v 0.237845 0.019844 0.058319
v 0.254458 0.020889 0.015966
v 0.270125 -0.021646 0.034760
v 0.256773 -0.088859 -0.128921
v 0.240913 -0.046747 -0.147529
v 0.263485 -0.129890 -0.110791
v 0.115910 -0.092088 -0.127495
v 0.111282 -0.100182 -0.123919
v 0.105808 -0.107822 -0.120542
v 0.115910 -0.100639 -0.146848
v 0.111282 -0.108733 -0.143271
v 0.288675 -0.159066 -0.121027
v 0.289908 -0.141398 -0.128838
v 0.105808 -0.116373 -0.139895
v 0.285038 -0.179173 -0.112144
v 0.278021 -0.201036 -0.102485
v 0.285621 -0.156494 -0.012961
v 0.295254 -0.090266 0.133565
v 0.288585 -0.110687 0.142591
v 0.269751 -0.079476 0.128765
v 0.298808 -0.067824 0.123656
v 0.295951 -0.089990 0.059280
v 0.299744 -0.046427 0.114197
v 0.298151 -0.025184 0.104817
v 0.293691 -0.038180 0.033681
v 0.273169 -0.039069 0.110910
v 0.289302 -0.118328 -0.139028
v 0.287783 -0.106486 -0.144263
v 0.119649 -0.092169 -0.150591
v 0.122462 -0.083404 -0.154463
v 0.119649 -0.083618 -0.131238
v 0.122462 -0.074853 -0.135110
v 0.124322 -0.065878 -0.139075
v 0.124322 -0.074429 -0.158428
v 0.273801 -0.053061 -0.167870
v 0.284055 -0.086437 -0.153123
v 0.125212 -0.065331 -0.162448
v 0.259547 -0.022187 -0.181511
v 0.125123 -0.056197 -0.166484
v 0.125212 -0.056780 -0.143095
v 0.125123 -0.047646 -0.147132
v 0.124055 -0.038563 -0.151144
v 0.216511 -0.005173 -0.165898
v 0.124055 -0.047114 -0.170497
v 0.122019 -0.038172 -0.174449
v 0.247829 -0.001860 -0.190493
v 0.249467 0.070111 -0.013145
v 0.238304 0.084338 -0.023154
v 0.228680 0.025192 -0.202443
v 0.260473 0.050749 -0.007079
v 0.265722 0.071397 0.062141
v 0.273459 0.039328 0.033565
v 0.277565 0.048169 0.072405
v 0.279762 0.009382 0.009754
v 0.279535 -0.037387 -0.090841
v 0.289631 -0.018567 0.026011
v 0.291608 0.009116 0.089661
v 0.257793 0.038268 0.076738
v 0.266758 0.004010 0.091876
v 0.257720 0.057288 0.118937
v 0.275599 -0.021021 0.153538
v 0.269128 0.022469 0.134321
v 0.241670 0.049954 0.122176
v 0.255214 -0.035580 0.215289
v 0.276315 -0.044754 0.219342
v 0.263084 -0.081276 0.235479
v 0.256646 -0.115653 0.144750
v 0.240005 -0.125748 0.201502
v 0.236554 -0.130387 0.199370
v 0.241615 -0.121870 0.208121
v 0.280561 -0.129149 0.150754
v 0.270685 -0.144541 0.157556
v 0.257628 -0.160967 0.164810
v 0.269713 -0.169914 0.077829
v 0.271309 -0.215692 -0.096006
v 0.258270 -0.236552 -0.086791
v 0.253855 -0.212362 0.015821
v 0.240265 -0.228283 0.013572
v 0.237651 -0.259622 -0.076599
v 0.092544 -0.130003 -0.133873
v 0.222347 -0.271691 -0.071262
v 0.099542 -0.123486 -0.136752
v 0.092544 -0.121452 -0.114520
v 0.099542 -0.114935 -0.117399
v 0.227943 -0.231305 -0.065981
v 0.248789 -0.202509 -0.078704
v 0.199061 -0.253548 -0.056152
v 0.206229 -0.197997 0.112681
v 0.167929 -0.214279 0.119876
v 0.163244 -0.268383 -0.049598
v 0.084882 -0.127310 -0.111932
v 0.121876 -0.275241 -0.046568
v 0.123853 -0.222128 0.123344
v 0.076628 -0.132453 -0.109659
v 0.067864 -0.136831 -0.107724
v 0.084882 -0.135861 -0.131284
v 0.076628 -0.141004 -0.129011
v 0.159685 -0.301252 -0.058205
v 0.067864 -0.145382 -0.127077
v 0.058672 -0.148953 -0.125500
v 0.081203 -0.309323 -0.054639
v 0.058672 -0.140402 -0.106147
v 0.076538 -0.273854 -0.047181
v 0.049142 -0.143132 -0.104940
v 0.028980 -0.264276 -0.051413
v 0.039365 -0.144994 -0.104117
v 0.049142 -0.151683 -0.124293
v 0.029436 -0.145971 -0.103686
v 0.019450 -0.146053 -0.103650
v -0.018973 -0.246878 -0.059100
v 0.009503 -0.145239 -0.104010
v 0.025286 -0.211643 0.118711
v -0.065482 -0.222328 -0.069947
v -0.074465 -0.168142 0.099491
v -0.025412 -0.193715 0.110790
v -0.000309 -0.143537 -0.104761
v -0.009891 -0.140964 -0.105899
v -0.019151 -0.137545 -0.107409
v -0.009891 -0.149515 -0.125251
v -0.019151 -0.146096 -0.126762
v -0.028000 -0.141862 -0.128633
v -0.028000 -0.133311 -0.109280
v -0.036353 -0.128304 -0.111492
v -0.108754 -0.191572 -0.083537
v -0.147129 -0.155788 -0.099348
v -0.119981 -0.135910 0.085249
v -0.044129 -0.122573 -0.114024
v -0.160214 -0.098254 0.068609
v -0.051254 -0.116172 -0.116853
v -0.057658 -0.109163 -0.119949
v -0.044129 -0.131124 -0.133377
v -0.051254 -0.124723 -0.136206
v -0.057658 -0.117714 -0.139302
v -0.148480 -0.209810 -0.098609
v -0.124076 -0.230458 -0.089486
v -0.165930 -0.192819 -0.106115
v -0.144291 -0.173535 0.000778
v -0.162968 -0.096681 0.136409
v -0.164508 -0.130970 0.049308
v -0.135321 -0.121434 0.147346
v -0.118137 -0.108727 0.141689
v -0.157833 -0.071574 0.125274
v -0.118661 -0.070097 0.230541
v -0.149515 -0.061386 0.171238
v -0.148705 -0.059226 0.178734
v -0.133703 -0.046526 0.177340
v -0.132601 -0.050841 0.170879
v -0.151374 -0.053606 0.183496
v -0.136770 -0.041560 0.179336
v -0.156435 -0.047157 0.182728
v -0.158817 -0.032674 0.214005
v -0.107286 -0.058515 0.225423
v -0.142122 -0.023993 0.210169
v -0.192295 0.008575 0.195779
v -0.160100 -0.044349 0.178061
v -0.162013 -0.044415 0.172193
v -0.144977 -0.033972 0.171794
v -0.140908 -0.036666 0.177925
v -0.155744 -0.019141 0.174709
v -0.139340 -0.030847 0.195845
v -0.142770 -0.009688 0.170532
v -0.122936 -0.054355 0.190269
v -0.126366 -0.021393 0.191668
v -0.152006 0.003548 0.173672
v -0.126366 -0.014978 0.206186
v -0.109961 -0.044901 0.186091
v -0.100725 -0.051491 0.197991
v -0.122936 -0.066157 0.163556
v -0.109961 -0.056703 0.159380
v -0.100725 -0.069939 0.156239
v -0.139340 -0.054452 0.142422
v -0.126366 -0.044998 0.138245
v -0.142770 -0.021490 0.143821
v -0.155744 -0.030944 0.147998
v -0.126366 -0.051643 0.123205
v -0.152006 -0.014900 0.131922
v -0.139601 -0.068334 0.107764
v -0.103897 -0.105504 0.113703
v -0.139976 -0.071771 0.098799
v -0.172014 -0.019281 0.127801
v -0.108520 -0.087919 0.158129
v -0.169964 -0.034512 0.082335
v -0.192718 0.004847 0.064944
v -0.193613 -0.056623 0.050216
v -0.218904 -0.012612 0.030769
v -0.235108 0.032085 0.011020
v -0.207357 0.044789 0.047297
v -0.203529 -0.074781 -0.135141
v -0.219390 -0.032668 -0.153748
v -0.078060 -0.058447 -0.142359
v -0.077260 -0.040215 -0.150414
v -0.076992 -0.067529 -0.138346
v -0.179128 -0.116355 -0.116773
v -0.078149 -0.049313 -0.146395
v -0.078060 -0.066998 -0.161711
v -0.078149 -0.057864 -0.165748
v -0.235883 -0.086949 -0.152894
v -0.077260 -0.048766 -0.169767
v -0.248094 -0.046845 -0.170615
v -0.123521 0.026289 -0.202930
v -0.075399 -0.039791 -0.173733
v -0.075399 -0.031240 -0.154380
v -0.072586 -0.022476 -0.158253
v -0.126557 0.035502 -0.183870
v -0.137269 0.031408 -0.205192
v -0.138197 0.040606 -0.186126
v -0.113668 0.035166 -0.183722
v -0.068847 -0.014005 -0.161996
v -0.064219 -0.005911 -0.165572
v -0.102166 0.039233 -0.185518
v -0.108785 0.027743 -0.203573
v -0.098176 0.033434 -0.206088
v -0.068847 -0.022556 -0.181349
v -0.064219 -0.014462 -0.184924
v -0.058746 -0.006822 -0.188301
v -0.052479 0.000291 -0.191443
v -0.052479 0.008842 -0.172091
v -0.058746 0.001729 -0.168948
v -0.091271 0.049490 -0.190051
v -0.045482 0.015359 -0.174970
v -0.037819 0.021217 -0.177559
v -0.045482 0.006808 -0.194323
v -0.037819 0.012666 -0.196912
v -0.090762 0.042408 -0.210052
v -0.087673 0.053299 -0.214865
v -0.029566 0.017809 -0.199183
v -0.089378 0.064454 -0.219793
v -0.087536 0.062963 -0.196004
v -0.020801 0.022187 -0.201118
v -0.011609 0.025758 -0.202696
v -0.011609 0.034309 -0.183343
v -0.020801 0.030738 -0.181766
v -0.029566 0.026360 -0.179831
v -0.089674 0.074083 -0.200917
v -0.130855 0.150922 -0.234868
v -0.095619 0.074168 -0.224085
v -0.039155 0.152326 -0.235490
v -0.084492 0.153713 -0.236102
v 0.008403 0.142748 -0.231258
v -0.098572 0.085883 -0.206131
v -0.111772 0.091731 -0.208715
v -0.108704 0.082540 -0.227785
v -0.123542 0.092318 -0.208975
v -0.124631 0.083431 -0.228179
v -0.096064 0.169662 -0.266281
v -0.109443 0.166319 -0.264804
v -0.132493 0.160577 -0.262266
v -0.121150 0.163725 -0.263658
v -0.179000 0.303973 -0.087905
v -0.185883 0.297930 -0.085232
v -0.125966 0.268914 -0.072412
v -0.192914 0.290926 -0.082137
v -0.199993 0.283652 -0.078923
v -0.143290 0.156600 -0.260509
v -0.153723 0.152068 -0.258507
v -0.207073 0.276377 -0.075708
v -0.163950 0.147272 -0.256387
v -0.177494 0.139690 -0.253034
v -0.136102 0.079373 -0.226386
v -0.214152 0.269103 -0.072494
v -0.223297 0.259591 -0.068294
v -0.239536 0.243192 -0.061047
v -0.195419 0.126156 -0.247055
v -0.210728 0.111831 -0.240727
v -0.144995 0.071608 -0.222955
v -0.150751 0.058338 -0.217092
v -0.150602 0.068448 -0.198427
v -0.144399 0.081132 -0.204032
v -0.135192 0.088623 -0.207341
v -0.170439 0.139155 -0.229670
v -0.199326 0.116912 -0.219841
v -0.167536 0.205726 -0.104887
v -0.220167 0.088115 -0.207118
v -0.210076 0.162013 -0.085572
v -0.255375 0.135937 -0.013655
v -0.246358 0.108594 -0.061969
v -0.241606 0.075748 -0.008273
v -0.228402 0.050807 -0.190632
v -0.226102 0.008363 -0.171880
v -0.213321 0.083779 0.030067
v -0.213166 0.073718 0.111676
v -0.220651 0.117635 0.015109
v -0.219100 0.113596 0.094057
v -0.240578 0.119478 0.091457
v -0.234107 0.075988 0.110673
v -0.220651 0.146161 0.079668
v -0.237508 0.159885 0.073604
v -0.238137 0.100103 0.049417
v -0.235592 0.139619 0.031957
v -0.264463 0.105660 0.047028
v -0.259574 0.058607 -0.001952
v -0.271215 0.117805 -0.005643
v -0.258114 0.066219 0.064369
v -0.260151 0.051187 -0.078092
v -0.254368 -0.001758 -0.190537
v -0.253057 0.009245 -0.195399
v -0.147421 0.041728 -0.209752
v -0.289843 0.144990 -0.017654
v -0.296244 0.154532 -0.021872
v -0.251745 0.020249 -0.200262
v -0.299744 0.164478 -0.026265
v -0.298925 0.176339 -0.031506
v -0.249247 0.038605 -0.208371
v -0.293265 0.187366 -0.036381
v -0.245078 0.052121 -0.214344
v -0.241354 0.062120 -0.218762
v -0.283344 0.197895 -0.041035
v -0.237319 0.071962 -0.223111
v -0.232677 0.081441 -0.227299
v -0.224769 0.093894 -0.232800
v -0.272777 0.208861 -0.045876
v -0.262807 0.219046 -0.050377
v -0.148172 0.051664 -0.191011
v -0.254790 0.027249 -0.009790
v -0.250209 0.014540 0.009310
v -0.231727 0.057024 0.068453
v -0.248068 0.032421 0.079365
v -0.239648 0.011302 0.088693
v -0.215739 0.012924 0.087937
v -0.217966 0.031468 0.130344
v -0.190786 -0.030500 0.107125
v -0.228471 -0.010689 0.098413
v -0.207389 -0.044419 0.113317
v -0.228750 -0.059248 -0.026098
v -0.219033 -0.059573 0.025382
v -0.204592 -0.077676 0.044254
v -0.220279 -0.119895 -0.138337
v -0.204882 -0.144979 -0.127255
v -0.189213 -0.166297 -0.117833
v -0.074956 -0.085023 -0.153748
v -0.071972 -0.093740 -0.149896
v -0.068067 -0.102148 -0.146180
v -0.074956 -0.076472 -0.134395
v -0.071972 -0.085189 -0.130543
v -0.068067 -0.093597 -0.126827
v -0.063281 -0.101614 -0.123285
v -0.063281 -0.110165 -0.142639
v -0.076992 -0.076080 -0.157699
v -0.178887 -0.130524 0.006951
v -0.188406 -0.069086 0.124213
v -0.235824 -0.054770 -0.059506
v -0.242661 -0.044943 -0.093821
v -0.161137 -0.048466 0.165526
v -0.146079 -0.035842 0.164254
v -0.143345 -0.041731 0.159200
v -0.157921 -0.053746 0.163353
v -0.153776 -0.058636 0.164762
v -0.139340 -0.046924 0.159458
v -0.135337 -0.050611 0.163120
v -0.198366 0.032895 0.129713
v -0.174826 0.013601 0.193558
v -0.172102 0.003555 0.179726
v -0.121028 0.237380 -0.118874
v -0.040669 0.231677 -0.077170
v 0.009731 0.222082 -0.072930
v -0.034395 0.222334 -0.031154
v 0.010663 0.213615 -0.027301
v -0.072321 0.227693 -0.033521
v -0.035579 0.256010 0.031130
v 0.010453 0.247247 0.035003
v -0.040437 0.274790 0.022832
v -0.072321 0.256219 0.031037
v -0.091864 0.272131 0.024007
v -0.039885 0.253950 -0.018560
v -0.090140 0.252021 -0.017708
v -0.045203 0.278291 -0.029315
v -0.031556 0.248410 -0.091014
v -0.032420 0.277083 -0.028747
v -0.105079 0.288522 -0.081075
v 0.009842 0.244483 -0.014378
v -0.050743 0.229115 -0.137849
v -0.038522 0.171010 -0.266880
v -0.066253 0.189818 -0.226021
v 0.004486 0.165053 -0.264242
v -0.018173 0.199831 -0.194151
v -0.001490 0.243297 -0.086342
v 0.014231 0.250725 -0.059665
v 0.014427 0.266859 -0.024222
v 0.048458 0.227343 -0.083459
v 0.059211 0.251475 -0.017425
v 0.102094 0.230585 -0.008190
v 0.059863 0.226795 -0.006562
v 0.073514 0.216294 -0.081132
v 0.078262 0.141468 -0.253822
v 0.111024 0.202900 -0.058805
v 0.134727 0.210938 0.000487
v 0.128017 0.180257 -0.083998
v 0.114743 0.123341 -0.245813
v 0.066214 0.022900 -0.201433
v 0.143594 0.104996 -0.237706
v 0.056954 0.026320 -0.202945
v 0.047371 0.028893 -0.204082
v 0.037560 0.030595 -0.204833
v 0.056954 0.034871 -0.183592
v 0.047371 0.037444 -0.184729
v 0.056356 0.125351 -0.223570
v 0.102865 0.100800 -0.212723
v 0.037560 0.039146 -0.185480
v 0.027613 0.039960 -0.185840
v 0.027613 0.031409 -0.205193
v 0.017627 0.031327 -0.205157
v 0.045702 0.153995 -0.259356
v 0.007698 0.030350 -0.204724
v 0.017627 0.039878 -0.185804
v 0.007698 0.038901 -0.185372
v -0.002079 0.037039 -0.184549
v -0.002079 0.028488 -0.203902
v 0.066214 0.031451 -0.182080
v 0.146137 0.070044 -0.199133
v 0.109482 0.178581 -0.053711
v 0.075063 0.027218 -0.180210
v 0.060429 0.204155 -0.065010
v 0.056018 0.197459 -0.020163
v 0.057940 0.222311 0.021708
v 0.097505 0.174772 -0.010480
v 0.056738 0.209615 0.032148
v 0.090048 0.180594 0.023173
v 0.137182 0.172458 0.043736
v 0.153457 0.133008 0.008316
v 0.166714 0.134349 -0.034166
v 0.123359 0.167691 0.050673
v 0.138856 0.196619 0.093764
v 0.123359 0.186560 0.093378
v 0.090048 0.186284 0.036051
v 0.110884 0.179074 0.055201
v 0.110884 0.190877 0.081912
v 0.100606 0.200158 0.029922
v 0.121442 0.192948 0.049070
v 0.121442 0.204751 0.075782
v 0.108074 0.205168 0.053137
v 0.109530 0.207402 0.060525
v 0.102696 0.206517 0.047604
v 0.113060 0.218014 0.045782
v 0.108209 0.219606 0.041654
v 0.097202 0.210016 0.046809
v 0.079770 0.219171 0.037483
v 0.101487 0.224332 0.041633
v 0.093139 0.213949 0.049255
v 0.091682 0.217908 0.055881
v 0.097943 0.229062 0.046808
v 0.063111 0.270755 0.079933
v 0.099073 0.231528 0.054176
v 0.095328 0.218614 0.063229
v 0.104686 0.230191 0.060015
v 0.110077 0.243338 0.092049
v 0.154499 0.192287 0.114606
v 0.100777 0.230127 0.097885
v 0.114427 0.222466 0.058195
v 0.165479 0.204763 0.109093
v 0.110174 0.226686 0.060810
v 0.105884 0.212358 0.065993
v 0.100606 0.216236 0.066308
v 0.100606 0.223764 0.083344
v 0.069212 0.217100 0.070325
v 0.079770 0.230974 0.064196
v 0.090048 0.209890 0.089475
v 0.090048 0.216305 0.103992
v 0.056738 0.228484 0.074854
v 0.059684 0.246544 0.071705
v 0.059646 0.254293 0.087208
v 0.069212 0.205297 0.043613
v 0.167193 0.155916 0.024756
v 0.115570 0.218686 0.051385
v 0.108261 0.201563 0.004587
v 0.198005 0.159549 0.023191
v 0.170176 0.185086 0.011908
v 0.176787 0.111844 0.017667
v 0.192864 0.132608 0.035055
v 0.226894 0.128126 0.037076
v 0.212758 0.144684 0.029756
v 0.209834 0.070629 0.035878
v 0.229178 0.087172 0.055131
v 0.248525 0.099975 0.049515
v 0.195231 0.108693 -0.022830
v 0.232036 0.062642 -0.002482
v 0.184512 0.034261 -0.183322
v 0.119034 -0.020904 -0.158947
v 0.104721 0.003070 -0.169540
v 0.115130 -0.012496 -0.162662
v 0.110343 -0.004479 -0.166205
v 0.104721 -0.005481 -0.188893
v 0.110343 -0.013030 -0.185557
v 0.201939 0.055888 -0.216009
v 0.115130 -0.021047 -0.182015
v 0.119034 -0.029455 -0.178300
v 0.122019 -0.029621 -0.155096
v 0.098317 0.001528 -0.191990
v 0.205966 0.120565 -0.046295
v 0.220799 0.083551 -0.088659
v 0.169628 0.085722 -0.229191
v 0.179749 0.149180 -0.047874
v 0.165073 0.178023 -0.014355
v 0.083416 0.013660 -0.197350
v 0.091192 0.007928 -0.194818
v 0.098317 0.010079 -0.172637
v 0.091192 0.016480 -0.175466
v 0.083416 0.022211 -0.177998
v 0.075063 0.018667 -0.199563
v 0.009764 0.265233 0.027055
v -0.149598 0.309066 -0.090153
v -0.165363 0.309323 -0.090266
v -0.072586 -0.031026 -0.177606
v -0.107984 -0.064442 0.209770
v -0.066445 -0.109155 0.192480
v -0.074099 -0.123447 0.198794
v -0.063119 -0.134411 0.126476
v -0.036353 -0.136855 -0.130845
v 0.075686 -0.221238 0.122951
v 0.026148 -0.173542 0.143766
v 0.024659 -0.148885 0.210034
v 0.071206 -0.182261 0.147618
v 0.025257 -0.166776 0.217939
v 0.070692 -0.157649 0.213906
v 0.114237 -0.183203 0.148034
v 0.060398 -0.271451 0.038754
v 0.207880 -0.281251 -0.067043
v 0.221259 -0.220115 0.088212
v 0.223894 -0.108623 0.199900
v 0.239095 -0.122317 0.215999
v 0.223469 -0.106800 0.207508
v 0.219377 -0.109649 0.214000
v 0.233243 -0.091347 0.210424
v 0.217497 -0.078526 0.204759
v 0.201643 -0.090710 0.226045
v 0.218689 -0.104589 0.232177
v 0.232328 -0.102358 0.183488
v 0.215573 -0.088716 0.177460
v 0.216172 -0.126052 0.178056
v 0.220637 -0.113786 0.194931
v 0.216399 -0.118741 0.195104
v 0.212314 -0.122325 0.198700
v 0.198370 -0.136650 0.198639
v 0.210001 -0.122899 0.206211
v 0.199328 -0.125673 0.225592
v 0.211351 -0.119254 0.213013
v 0.214976 -0.114326 0.215323
v 0.233995 -0.127125 0.220139
v 0.183866 -0.113084 0.220030
v 0.181942 -0.123275 0.192729
v 0.197796 -0.111091 0.171445
v 0.223374 -0.082721 0.166985
v 0.243536 -0.072870 0.213850
v 0.226244 -0.067516 0.207720
v 0.202590 -0.086451 0.237767
v 0.243082 -0.069069 0.230086
vn -0.5880 -0.7486 0.3062
vn -0.6149 -0.7277 0.3040
vn -0.5442 -0.7706 0.3318
vn -0.6140 -0.7287 0.3033
vn -0.5446 -0.7757 0.3188
vn -0.5232 -0.7894 0.3210
vn -0.4923 -0.8055 0.3299
vn -0.4854 -0.8076 0.3349
vn -0.5390 -0.7726 0.3355
vn 0.0010 0.4055 0.9141
vn 0.0008 0.4054 0.9141
vn 0.0008 0.4055 0.9141
vn -0.4582 -0.8206 0.3416
vn 0.0006 0.4055 0.9141
vn -0.3871 -0.8539 0.3479
vn -0.4427 -0.8289 0.3419
vn -0.3735 -0.8581 0.3525
vn -0.3679 -0.8620 0.3486
vn -0.4392 -0.8350 0.3314
vn -0.4517 -0.8276 0.3334
vn -0.0001 -0.4041 -0.9147
vn -0.0000 -0.4042 -0.9147
vn 0.0001 -0.4042 -0.9147
vn -0.3276 -0.8782 0.3485
vn -0.2285 -0.9070 0.3536
vn -0.2584 -0.8984 0.3551
vn -0.3282 -0.8780 0.3483
vn -0.3254 -0.8740 0.3609
vn -0.3423 -0.8705 0.3537
vn -0.2579 -0.8957 0.3623
vn 0.0006 0.4056 0.9140
vn 0.0004 0.4056 0.9140
vn -0.2369 -0.8990 0.3683
vn -0.1490 -0.9214 0.3588
vn 0.0003 0.4056 0.9141
vn -0.2036 -0.9134 0.3526
vn -0.0202 -0.9335 0.3580
vn -0.0000 0.4055 0.9141
vn -0.0540 -0.9305 0.3622
vn -0.0159 -0.9341 0.3567
vn -0.0000 0.4056 0.9141
vn 0.0272 -0.9314 0.3630
vn -0.0159 -0.9341 0.3568
vn 0.0412 -0.9367 0.3477
vn 0.0711 -0.9327 0.3535
vn 0.0632 -0.9352 0.3483
vn 0.1407 -0.9252 0.3523
vn 0.1923 -0.9222 0.3356
vn 0.1954 -0.9211 0.3368
vn -0.0002 0.4053 0.9142
vn -0.0001 0.4056 0.9141
vn -0.0005 0.4054 0.9142
vn 0.2573 -0.9071 0.3330
vn -0.0005 0.4053 0.9142
vn 0.3018 -0.8972 0.3226
vn 0.3811 -0.8712 0.3096
vn 0.4662 -0.8344 0.2941
vn 0.4316 -0.8519 0.2966
vn -0.0008 0.4053 0.9142
vn 0.4070 -0.8622 0.3016
vn 0.6994 -0.7007 0.1410
vn 0.6465 -0.7351 0.2041
vn 0.6443 -0.7314 0.2236
vn -0.0007 0.4053 0.9142
vn -0.0008 0.4050 0.9143
vn 0.6049 -0.7583 0.2428
vn 0.4201 -0.8591 0.2924
vn 0.6770 -0.6842 0.2711
vn 0.6458 -0.7208 0.2519
vn -0.0000 0.4042 0.9147
vn -0.3171 0.8944 -0.3153
vn -0.1697 0.9270 -0.3345
vn -0.6439 -0.1060 0.7577
vn -0.7044 -0.0151 0.7096
vn -0.4214 0.8389 -0.3445
vn -0.4160 0.8446 -0.3369
vn -0.9039 -0.3852 0.1857
vn -0.8790 -0.4231 0.2199
vn -0.6312 -0.4580 -0.6260
vn -0.4156 0.8753 -0.2474
vn -0.7120 0.6621 -0.2340
vn -0.6853 -0.2817 -0.6716
vn -0.0440 0.3634 -0.9306
vn -0.6445 0.6671 -0.3736
vn -0.7596 0.6226 -0.1880
vn -0.8258 0.4527 -0.3362
vn -0.6630 0.1596 -0.7314
vn -0.6622 0.1598 -0.7321
vn -0.9441 0.3290 -0.0223
vn -0.7646 -0.0103 -0.6444
vn -0.7648 -0.0076 -0.6442
vn -0.9458 0.3209 -0.0494
vn -0.9943 0.1003 0.0367
vn -0.8157 -0.1747 -0.5514
vn -0.8178 -0.1762 -0.5479
vn -0.9892 -0.1001 0.1066
vn -0.9886 -0.1025 0.1102
vn -0.9956 0.0904 0.0230
vn -0.8264 -0.3285 -0.4574
vn -0.9716 -0.1852 0.1469
vn -0.8600 -0.3745 -0.3466
vn -0.8022 -0.4624 -0.3777
vn -0.8248 -0.3267 -0.4615
vn -0.9865 -0.1065 0.1242
vn -0.9436 -0.2720 0.1887
vn -0.9457 -0.2652 0.1881
vn -0.9886 -0.0957 0.1163
vn -0.0000 0.4041 0.9147
vn -0.9950 0.0895 0.0442
vn -0.8861 0.4239 -0.1873
vn -0.8364 0.5013 -0.2215
vn -0.0000 -0.4041 -0.9147
vn -0.0000 -0.4043 -0.9146
vn -0.8364 0.5014 -0.2215
vn 0.9578 -0.2814 0.0587
vn 0.9645 -0.2585 0.0534
vn 0.9854 -0.1693 0.0203
vn 0.9918 -0.1275 0.0088
vn -0.0010 0.4045 0.9145
vn 0.9567 -0.2836 0.0653
vn -0.0012 0.4041 0.9147
vn 0.9882 -0.1527 0.0087
vn 0.9982 -0.0549 -0.0254
vn 0.9975 -0.0698 -0.0135
vn 0.9972 -0.0745 -0.0112
vn -0.0011 0.4044 0.9146
vn -0.0013 0.4038 0.9148
vn 0.9966 0.0436 -0.0705
vn 0.9940 0.0873 -0.0658
vn 0.9990 0.0072 -0.0432
vn -0.0000 -0.4040 -0.9147
vn -0.0000 -0.4044 -0.9146
vn 0.9929 0.0964 -0.0700
vn -0.9273 0.3425 -0.1513
vn -0.9595 0.2577 -0.1138
vn -0.9825 0.1704 -0.0753
vn -0.9960 0.0815 -0.0360
vn -1.0000 -0.0082 0.0036
vn -0.9943 -0.0978 0.0432
vn -0.9790 -0.1865 0.0824
vn 0.8358 0.5059 -0.2130
vn 0.8780 0.4406 -0.1869
vn 0.8846 0.4286 -0.1839
vn 0.8394 0.5012 -0.2104
vn 0.8776 0.4371 -0.1969
vn 0.9063 0.3812 -0.1824
vn 0.8983 0.4037 -0.1736
vn 0.9212 0.3542 -0.1609
vn 0.9405 0.3096 -0.1404
vn 0.9062 0.3814 -0.1826
vn 0.9267 0.3332 -0.1738
vn 0.9564 0.2640 -0.1249
vn 0.9561 0.2648 -0.1253
vn 0.9564 0.2557 -0.1409
vn 0.9498 0.2797 -0.1399
vn -0.0016 0.4037 0.9149
vn -0.0014 0.4039 0.9148
vn 0.9849 0.1486 -0.0889
vn 0.9813 0.1634 -0.1015
vn -0.0014 0.4040 0.9148
vn 0.9725 0.2129 -0.0942
vn 0.9568 0.2432 -0.1592
vn 0.9896 0.1031 -0.1001
vn -0.4469 0.8192 -0.3595
vn -0.9710 -0.1885 0.1471
vn 0.3261 0.8904 0.3176
vn 0.2172 0.9316 0.2914
vn 0.9978 -0.0587 -0.0320
vn 0.9462 -0.3190 0.0537
vn 0.9945 -0.0992 -0.0341
vn 0.7711 -0.6263 0.1147
vn 0.8106 -0.5694 0.1364
vn 0.8298 -0.5343 0.1611
vn 0.8312 -0.5369 0.1445
vn -0.0011 0.4045 0.9145
vn -0.0011 0.4048 0.9144
vn 0.8606 -0.4882 0.1449
vn -0.0011 0.4047 0.9144
vn 0.8066 -0.5660 0.1703
vn 0.8744 -0.4671 0.1310
vn 0.8659 -0.4817 0.1348
vn 0.8154 -0.5533 0.1702
vn 0.8211 -0.5466 0.1642
vn 0.7298 -0.6520 0.2055
vn 0.7296 -0.6520 0.2064
vn 0.7714 -0.6111 0.1773
vn -0.0001 -0.4043 -0.9146
vn 0.6509 -0.7227 0.2323
vn 0.0001 -0.4041 -0.9147
vn -0.7787 0.5739 -0.2536
vn -0.7134 0.6410 -0.2832
vn -0.9491 0.3113 -0.0480
vn -0.8302 0.5402 -0.1376
vn -0.6408 0.7369 -0.2153
vn -0.6437 0.7344 -0.2152
vn -0.8282 0.5428 -0.1394
vn -0.3394 0.4283 -0.8375
vn -0.5150 0.3106 -0.7989
vn -0.4190 0.8683 -0.2656
vn -0.4102 0.8713 -0.2693
vn -0.1772 0.9399 -0.2918
vn -0.1899 0.9368 -0.2938
vn -0.4793 0.8028 -0.3547
vn -0.5630 0.7559 -0.3340
vn -0.3909 0.8419 -0.3720
vn -0.0001 0.4042 0.9147
vn -0.2989 0.8729 -0.3857
vn -0.2039 0.8955 -0.3957
vn -0.1069 0.9094 -0.4018
vn -0.0090 0.9146 -0.4042
vn -0.1069 0.9094 -0.4019
vn 0.3662 0.8912 -0.2678
vn 0.3581 0.8949 -0.2665
vn 0.4964 0.8341 -0.2404
vn 0.4919 0.8361 -0.2430
vn 0.1863 0.8987 -0.3971
vn 0.2817 0.8777 -0.3878
vn 0.1864 0.8987 -0.3971
vn 0.3744 0.8482 -0.3748
vn 0.2816 0.8777 -0.3878
vn 0.4635 0.8105 -0.3581
vn 0.0001 0.4041 0.9147
vn 0.5481 0.7651 -0.3380
vn 0.7094 0.6819 -0.1783
vn 0.6081 0.7651 -0.2119
vn 0.7106 0.6809 -0.1773
vn 0.6095 0.7639 -0.2120
vn 0.7008 0.6525 -0.2883
vn 0.7673 0.5866 -0.2592
vn 0.7007 0.6526 -0.2883
vn -0.6789 -0.6801 0.2768
vn -0.7287 -0.6328 0.2617
vn -0.6995 -0.6588 0.2770
vn -0.7171 -0.6441 0.2663
vn -0.7215 -0.6411 0.2617
vn -0.6740 -0.6835 0.2801
vn -0.6775 -0.6790 0.2828
vn 0.0012 0.4053 0.9142
vn 0.0011 0.4054 0.9141
vn -0.6307 -0.7143 0.3032
vn 0.0010 0.4054 0.9142
vn -0.6122 -0.7265 0.3122
vn 0.0012 0.4052 0.9142
vn -0.7151 -0.6438 0.2721
vn -0.7111 -0.6463 0.2768
vn -0.7206 -0.6416 0.2627
vn -0.5229 0.8325 -0.1833
vn -0.5800 0.6283 -0.5185
vn -0.4483 0.4444 -0.7756
vn -0.7373 -0.6049 0.3007
vn -0.3744 0.1372 -0.9170
vn -0.1102 -0.2025 -0.9731
vn -0.7808 -0.5875 0.2126
vn -0.7136 -0.6466 0.2695
vn -0.8025 -0.5585 0.2101
vn -0.7572 -0.6128 0.2261
vn 0.2796 -0.7098 -0.6466
vn -0.7832 -0.5640 0.2616
vn 0.5134 -0.8435 -0.1579
vn 0.3079 -0.7788 -0.5465
vn 0.7620 0.6008 -0.2417
vn 0.7733 0.5801 -0.2561
vn -0.0687 -0.3295 -0.9417
vn 0.7600 0.5957 -0.2600
vn 0.7595 0.5933 -0.2668
vn 0.3117 -0.7078 -0.6339
vn -0.3116 0.0079 -0.9502
vn 0.7611 0.5933 -0.2621
vn 0.7611 0.5933 -0.2622
vn -0.3117 0.0079 -0.9501
vn -0.6231 0.7154 -0.3161
vn -0.3117 0.7078 0.6339
vn 0.3117 -0.0079 0.9502
vn 0.3736 0.4527 -0.8096
vn 0.7789 -0.0386 -0.6259
vn 0.7148 0.6425 -0.2762
vn 0.7232 0.6646 -0.1878
vn 0.0915 0.4278 -0.8992
vn 0.8053 0.5416 -0.2412
vn 0.7917 0.5892 -0.1617
vn 0.7178 -0.3730 -0.5880
vn 0.6871 0.2519 -0.6815
vn 0.8811 0.4590 -0.1140
vn 0.7478 0.1461 -0.6476
vn 0.6884 0.2518 -0.6802
vn 0.7475 0.1429 -0.6487
vn 0.7913 0.0168 -0.6112
vn 0.9444 0.3269 -0.0350
vn 0.8805 0.4650 -0.0927
vn 0.7892 0.0180 -0.6139
vn 0.9410 0.3358 -0.0422
vn 0.8761 0.4730 -0.0932
vn 0.9960 -0.0815 0.0360
vn 1.0000 0.0082 -0.0036
vn 0.9825 -0.1704 0.0753
vn 0.9595 -0.2577 0.1138
vn 0.3769 0.8560 -0.3537
vn 0.4323 0.8202 -0.3747
vn 0.0285 0.9017 -0.4313
vn -0.3605 0.8412 -0.4032
vn -0.1072 0.9223 -0.3712
vn -0.5057 0.7997 -0.3236
vn -0.0001 -0.4042 -0.9147
vn 0.8364 -0.5013 0.2215
vn 0.7787 -0.5739 0.2536
vn 0.7134 -0.6410 0.2832
vn 0.6413 -0.7018 0.3101
vn -0.7976 0.5620 -0.2193
vn -0.9679 0.2280 -0.1053
vn -0.9903 -0.1208 0.0691
vn -0.9693 0.2217 -0.1065
vn 0.3909 -0.8419 0.3720
vn 0.4793 -0.8028 0.3547
vn 0.0001 0.4042 0.9147
vn -0.9849 -0.1601 0.0663
vn -0.8230 -0.5281 0.2093
vn -0.8620 -0.4568 0.2195
vn -0.4357 -0.8363 0.3330
vn -0.0001 0.4041 0.9147
vn -0.5724 -0.7266 0.3800
vn -0.0544 -0.9029 0.4264
vn -0.0610 -0.9045 0.4220
vn -0.2243 0.7244 -0.6519
vn -0.2774 0.7168 -0.6398
vn -0.6487 0.4763 -0.5936
vn 0.0002 0.4044 0.9146
vn -0.6954 0.4509 -0.5595
vn -0.7102 0.4531 -0.5388
vn -0.3576 0.6955 -0.6232
vn -0.4120 0.6811 -0.6052
vn -0.7145 0.4638 -0.5239
vn -0.4400 0.6776 -0.5892
vn -0.7181 0.4736 -0.5098
vn -0.0002 -0.4042 -0.9147
vn -0.5045 0.6500 -0.5683
vn -0.0000 0.4040 0.9148
vn -0.7259 0.4807 -0.4919
vn -0.7193 0.4983 -0.4841
vn -0.6163 0.5820 -0.5305
vn -0.6941 0.5236 -0.4941
vn 0.9293 -0.3279 0.1702
vn 0.6904 -0.6547 0.3077
vn 0.9128 -0.3756 0.1603
vn 0.6646 -0.6841 0.3005
vn 0.6434 -0.6815 0.3486
vn 0.7469 -0.6099 0.2647
vn 0.8338 -0.4998 0.2346
vn 0.8343 -0.3983 0.3811
vn 0.7467 -0.6178 0.2463
vn 0.8494 -0.4793 0.2209
vn 0.9724 0.2272 0.0529
vn 0.9768 0.2100 0.0420
vn 0.9725 -0.1291 0.1937
vn 0.9949 0.0809 0.0610
vn 0.9846 0.1726 0.0261
vn 0.9869 0.1592 0.0279
vn 0.7856 0.1256 -0.6059
vn 0.8107 -0.1284 -0.5712
vn 0.8091 -0.1326 -0.5725
vn 0.9878 0.1546 0.0172
vn 0.9871 0.1588 0.0177
vn 0.5417 -0.2388 -0.8059
vn 0.9781 0.2080 -0.0086
vn 0.9991 0.0398 -0.0176
vn 0.6649 0.6832 -0.3019
vn -0.9962 0.0417 -0.0770
vn -0.9973 0.0362 -0.0635
vn 0.0022 0.4040 0.9147
vn -0.6840 0.6885 0.2411
vn 0.6408 0.6913 -0.3338
vn -0.9922 -0.1235 0.0196
vn -0.9891 -0.1425 0.0381
vn -0.6731 0.6971 0.2470
vn -0.9691 -0.2367 0.0696
vn 0.0019 0.4028 0.9153
vn -0.9741 -0.2199 0.0534
vn -0.9911 -0.1328 0.0116
vn -0.9897 -0.1418 0.0213
vn -0.9759 0.0202 -0.2174
vn -0.8472 -0.4780 0.2319
vn -0.8522 -0.4857 0.1945
vn -0.0000 0.4042 0.9146
vn -0.9691 0.0065 -0.2466
vn -0.9447 -0.3276 0.0110
vn -0.9696 -0.0397 -0.2414
vn -0.9618 0.0100 -0.2736
vn -0.8638 0.2501 -0.4374
vn -0.9273 0.1311 -0.3507
vn -0.9100 0.1722 -0.3772
vn -0.7249 0.4540 -0.5181
vn -0.9050 0.2068 -0.3718
vn -0.8808 0.2550 -0.3990
vn -0.8370 0.3433 -0.4261
vn -0.7242 0.4787 -0.4963
vn -0.7218 0.4912 -0.4875
vn -0.0003 0.4041 0.9147
vn -0.7886 0.4179 -0.4511
vn -0.7288 0.4919 -0.4764
vn 0.0002 0.4043 0.9146
vn 0.9834 0.1738 -0.0528
vn 0.7712 0.5747 -0.2738
vn 0.7433 0.6159 -0.2610
vn 0.9912 0.1130 -0.0691
vn -0.9862 -0.1605 0.0401
vn -0.0007 0.4041 0.9147
vn -0.9696 -0.2318 0.0783
vn -0.9649 -0.2459 0.0922
vn -0.0001 0.4055 0.9141
vn 0.0014 0.4045 0.9145
vn -0.9391 -0.3251 0.1117
vn 0.0015 0.4046 0.9145
vn -0.8843 -0.4431 0.1473
vn -0.9481 -0.3065 0.0842
vn 0.0014 0.4049 0.9144
vn 0.0015 0.4049 0.9143
vn -0.9067 -0.3923 0.1550
vn -0.8681 -0.4570 0.1937
vn -0.8923 -0.4199 0.1658
vn -0.8559 -0.4786 0.1958
vn -0.8880 -0.4292 0.1649
vn -0.8547 -0.4828 0.1909
vn -0.8717 -0.4577 0.1753
vn -0.8297 -0.5192 0.2051
vn 0.9543 0.2734 -0.1208
vn 0.9204 0.3576 -0.1580
vn 0.9543 0.2733 -0.1208
vn 0.8777 0.4384 -0.1937
vn 0.0001 -0.4042 -0.9146
vn 0.8265 0.5150 -0.2275
vn 0.9790 0.1865 -0.0824
vn 0.9943 0.0978 -0.0432
vn -0.8047 -0.5497 0.2242
vn -0.7795 -0.5821 0.2314
vn -0.7530 -0.6090 0.2492
vn -0.7645 -0.5945 0.2494
vn -0.8059 -0.5488 0.2221
vn -0.7574 -0.6029 0.2507
vn 0.0014 0.4050 0.9143
vn 0.0013 0.4050 0.9143
vn -0.8177 -0.5310 0.2226
vn 0.0013 0.4052 0.9142
vn -0.9171 -0.3767 0.1304
vn -0.9109 -0.3879 0.1409
vn -0.9158 -0.3751 0.1436
vn -0.9445 -0.3083 0.1131
vn -0.9487 -0.2986 0.1035
vn -0.9485 -0.2994 0.1033
vn -0.9627 -0.2602 0.0746
vn -0.9650 -0.2516 0.0745
vn -0.7962 -0.5585 0.2326
vn -0.8728 -0.4519 0.1843
vn -0.8062 -0.5393 0.2434
vn -0.7972 -0.5567 0.2335
vn 0.5886 -0.6543 0.4749
vn 0.4462 -0.4545 0.7709
vn 0.3797 -0.1448 0.9137
vn -0.7692 -0.5794 0.2695
vn -0.7716 -0.5768 0.2683
vn 0.0744 0.3338 0.9397
vn 0.1456 0.1608 0.9762
vn -0.1842 0.5848 0.7900
vn 0.7714 0.5821 -0.2572
vn -0.2976 0.7926 0.5322
vn -0.5145 0.8323 0.2061
vn 0.7603 0.5994 -0.2503
vn 0.7588 0.5981 -0.2577
vn -0.7754 -0.5722 0.2671
vn 0.7603 0.5887 -0.2747
vn 0.7588 0.5933 -0.2687
vn 0.7565 0.6003 -0.2595
vn 0.5202 -0.8436 0.1332
vn 0.7527 0.6022 -0.2661
vn -0.0568 0.9352 0.3495
vn -0.2166 0.9095 0.3547
vn 0.8400 0.5208 -0.1523
vn 0.9463 0.3186 -0.0554
vn 0.7825 0.5669 -0.2576
vn 0.8801 0.4494 -0.1530
vn -0.1754 0.6379 0.7499
vn 0.9158 0.3681 -0.1604
vn 0.1253 0.9013 0.4147
vn -0.1201 0.9087 -0.3998
vn -0.9896 -0.1434 0.0086
vn -0.9677 -0.2419 0.0712
vn -0.9868 -0.1585 0.0319
vn 0.9454 0.3206 -0.0587
vn 0.5854 -0.6406 0.4970
vn 0.3084 -0.8422 0.4422
vn 0.5911 -0.6699 0.4493
vn -0.3206 -0.7992 0.5084
vn -0.3103 -0.8168 0.4863
vn 0.0641 -0.8027 0.5929
vn -0.4028 -0.9061 -0.1291
vn -0.1701 -0.9700 -0.1738
vn -0.2035 -0.8746 0.4400
vn -0.2148 -0.8739 0.4360
vn -0.0334 -0.8936 0.4476
vn -0.0596 -0.7250 -0.6862
vn -0.2064 -0.8623 0.4623
vn -0.1724 -0.9691 -0.1763
vn -0.1522 -0.8706 0.4678
vn -0.2032 -0.8619 0.4646
vn -0.0062 -0.9147 0.4042
vn -0.6649 -0.6832 0.3019
vn -0.0564 0.8915 -0.4496
vn -0.0419 0.8993 -0.4353
vn -0.6971 -0.6724 0.2489
vn -0.3483 0.8068 0.4773
vn 0.1038 0.9040 -0.4148
vn 0.1036 0.9040 -0.4149
vn -0.0030 0.4001 0.9165
vn 0.5114 0.7343 -0.4464
vn -0.0296 0.9110 -0.4113
vn -0.4007 0.6921 0.6004
vn -0.0891 0.9155 -0.3923
vn 0.0156 0.9123 -0.4093
vn 0.0693 0.9121 -0.4042
vn -0.0256 0.9014 -0.4323
vn 0.1498 0.9041 -0.4002
vn 0.1643 0.9004 -0.4028
vn 0.1758 0.9033 -0.3914
vn 0.2132 0.8942 -0.3935
vn 0.2321 0.8882 -0.3964
vn 0.2142 0.8884 -0.4061
vn 0.2655 0.8769 -0.4007
vn 0.2314 0.8934 -0.3851
vn 0.3153 0.8631 -0.3946
vn 0.3516 0.8594 -0.3713
vn -0.0005 0.4028 0.9153
vn -0.0006 0.4028 0.9153
vn -0.0009 0.4028 0.9153
vn 0.4700 0.8131 -0.3435
vn 0.4033 0.8364 -0.3713
vn 0.4047 0.8431 -0.3542
vn 0.4876 0.8059 -0.3358
vn 0.4925 0.7972 -0.3492
vn 0.5497 0.7699 -0.3241
vn 0.5480 0.7713 -0.3236
vn 0.4772 0.8120 -0.3360
vn 0.5559 0.7688 -0.3160
vn 0.5707 0.7589 -0.3137
vn -0.2817 -0.8776 0.3878
vn -0.1863 -0.8987 0.3971
vn -0.2817 -0.8777 0.3878
vn -0.0891 -0.9111 0.4025
vn 0.0089 -0.9147 0.4041
vn 0.2814 0.8802 -0.3820
vn 0.3877 0.8486 -0.3599
vn 0.3373 0.8670 -0.3668
vn 0.1070 -0.9094 0.4018
vn 0.0090 -0.9147 0.4041
vn 0.1070 -0.9094 0.4019
vn 0.2039 -0.8955 0.3957
vn 0.2038 -0.8955 0.3957
vn 0.2989 -0.8729 0.3857
vn -0.6127 -0.6996 0.3677
vn -0.4945 -0.7725 0.3984
vn -0.4992 -0.7708 0.3959
vn -0.3682 -0.8288 0.4214
vn -0.3602 -0.8328 0.4203
vn -0.3048 -0.9371 -0.1699
vn -0.4233 -0.8890 -0.1744
vn -0.3600 -0.7949 0.4884
vn -0.5065 -0.7311 0.4572
vn -0.3073 -0.9367 -0.1675
vn -0.4344 -0.8788 -0.1978
vn -0.6592 -0.7518 -0.0160
vn -0.8024 -0.3319 -0.4960
vn -0.4081 -0.9105 0.0671
vn 0.2253 -0.9524 -0.2055
vn -0.6282 -0.6471 0.4321
vn -0.5436 -0.8163 -0.1954
vn -0.5474 -0.8067 -0.2227
vn 0.4641 -0.8036 0.3726
vn 0.5041 -0.7900 0.3491
vn -0.5668 -0.7536 0.3330
vn -0.8207 0.5226 -0.2309
vn -0.4104 0.6113 0.6767
vn -0.5850 -0.7419 0.3278
vn -0.5767 -0.7435 0.3384
vn -0.5640 -0.7393 0.3678
vn -0.5692 -0.7499 0.3370
vn -0.5170 0.5675 0.6408
vn -0.4485 0.5195 0.7273
vn 0.1052 0.3745 0.9213
vn -0.5396 -0.7700 0.3407
vn -0.5702 -0.7543 0.3254
vn -0.5643 -0.7693 0.2996
vn 0.5902 0.1124 0.7994
vn 0.1949 0.2814 0.9396
vn -0.5767 -0.7509 0.3218
vn 0.9106 -0.2343 0.3403
vn 0.7550 -0.1361 0.6414
vn 0.5194 0.7538 -0.4026
vn 0.5727 0.7469 -0.3378
vn 0.8799 -0.4745 0.0239
vn 0.4889 0.7842 -0.3821
vn 0.5118 -0.5877 -0.6267
vn 0.8033 -0.4800 -0.3526
vn 0.5776 0.7164 -0.3912
vn 0.5372 0.7482 -0.3894
vn 0.5343 0.7466 -0.3963
vn 0.6052 0.7100 -0.3600
vn 0.5069 0.7613 -0.4043
vn -0.5968 -0.1089 -0.7950
vn -0.2487 -0.2628 -0.9323
vn -0.1107 -0.3815 -0.9177
vn -0.5437 -0.7676 0.3392
vn 0.2825 -0.4618 -0.8408
vn -0.5438 -0.7676 0.3392
vn 0.4104 -0.6113 -0.6767
vn -0.5717 -0.7462 0.3410
vn -0.4104 -0.0887 -0.9076
vn -0.5717 -0.7546 0.3222
vn -0.9971 0.0693 -0.0306
vn -0.9872 0.1541 -0.0402
vn -0.5913 0.2312 0.7726
vn -0.2880 -0.8569 0.4276
vn -0.5400 -0.7534 0.3752
vn -0.2750 0.5591 0.7822
vn -0.2838 -0.8589 0.4262
vn -0.6911 0.4088 0.5960
vn -0.3527 -0.8239 0.4436
vn 0.3860 0.1053 0.9165
vn 0.8207 -0.5226 0.2309
vn -0.5683 -0.7430 0.3534
vn 0.4104 0.0887 0.9076
vn -0.7562 0.1472 -0.6376
vn -0.5683 -0.7616 0.3114
vn 0.6288 0.6784 -0.3801
vn 0.6324 -0.6647 0.3978
vn 0.7780 -0.5520 0.3002
vn 0.5786 0.7505 -0.3193
vn -0.9211 0.2537 -0.2954
vn -0.8151 0.4917 0.3063
vn -0.8729 0.4872 0.0247
vn 0.6363 0.6788 -0.3665
vn -0.0010 0.4031 0.9152
vn 0.6457 0.6803 -0.3469
vn -0.0011 0.4032 0.9151
vn -0.0008 0.4032 0.9151
vn -0.5455 -0.2476 0.8007
vn -0.5459 -0.2476 0.8004
vn -0.0012 0.4035 0.9150
vn -0.0012 0.4033 0.9150
vn -0.0009 0.4032 0.9151
vn -0.6221 -0.1601 0.7664
vn -0.6239 -0.1607 0.7649
vn -0.0013 0.4035 0.9150
vn -0.6735 -0.0689 0.7359
vn -0.0014 0.4035 0.9150
vn -0.0013 0.4033 0.9151
vn 0.8181 0.5276 -0.2286
vn 0.8372 0.4985 -0.2250
vn 0.8761 0.4403 -0.1967
vn -0.6611 -0.0335 0.7495
vn -0.7657 -0.5612 -0.3142
vn -0.7648 -0.5552 -0.3270
vn -0.6926 -0.6716 -0.2632
vn -0.6941 -0.6705 -0.2621
vn -0.8059 -0.5148 0.2926
vn -0.8017 -0.5213 0.2925
vn -0.8954 -0.3746 0.2405
vn -0.7128 -0.6169 0.3337
vn -0.8264 -0.5150 0.2275
vn -0.8777 -0.4384 0.1937
vn -0.8265 -0.5150 0.2275
vn -0.9204 -0.3576 0.1580
vn -0.9543 -0.2734 0.1208
vn 0.7820 0.5749 -0.2407
vn 0.7187 0.6439 -0.2625
vn 0.7729 0.5866 -0.2419
vn 0.7103 0.6511 -0.2675
vn 0.7172 0.6421 -0.2708
vn 0.6916 0.6688 -0.2727
vn 0.6490 0.6936 -0.3126
vn 0.6066 0.7365 -0.2992
vn 0.6253 0.7162 -0.3098
vn 0.6234 0.7162 -0.3137
vn 0.6290 0.7190 -0.2956
vn -0.6274 -0.7122 0.3147
vn -0.7007 -0.6526 0.2883
vn -0.7007 -0.6525 0.2883
vn -0.6274 -0.7123 0.3147
vn -0.5481 -0.7650 0.3380
vn -0.5481 -0.7651 0.3380
vn -0.4635 -0.8105 0.3581
vn -0.7673 -0.5866 0.2592
vn 0.8092 0.5437 -0.2228
vn 0.8118 0.5395 -0.2234
vn 0.7584 0.5988 -0.2576
vn 0.7082 0.6472 -0.2820
vn 0.7403 0.6189 -0.2624
vn -0.6044 -0.7670 -0.2156
vn -0.7004 -0.6311 0.3334
vn 0.7881 0.5592 -0.2572
vn -0.6079 -0.7646 -0.2139
vn 0.4948 0.7778 -0.3876
vn 0.5352 0.7598 -0.3691
vn 0.5550 0.7482 -0.3635
vn 0.0315 -0.0867 0.9957
vn -0.6101 -0.7309 0.3060
vn -0.6505 -0.6752 0.3479
vn -0.7174 -0.6054 0.3447
vn 0.3456 0.8312 -0.4354
vn -0.6919 0.2695 0.6698
vn 0.2035 0.8756 -0.4381
vn 0.3602 0.8344 -0.4172
vn 0.4103 0.0887 0.9076
vn -0.6449 -0.6815 0.3461
vn -0.4634 -0.8105 0.3581
vn -0.3744 -0.8482 0.3748
vn 0.4472 0.7625 -0.4676
vn 0.0173 0.7865 -0.6173
vn -0.3702 0.6512 -0.6625
vn 0.3276 -0.8644 0.3814
vn 0.3606 -0.8456 0.3935
vn -0.2506 0.7138 -0.6540
vn 0.5630 -0.7560 0.3340
vn -0.7167 0.6224 -0.3145
vn 0.8861 -0.4239 0.1873
vn 0.9273 -0.3425 0.1513
vn 0.7982 0.5858 -0.1403
vn 0.8013 0.5823 -0.1370
vn 0.9114 -0.3781 0.1624
vn 0.5883 0.7710 -0.2440
vn 0.6254 0.7079 -0.3283
vn 0.6396 0.7090 -0.2970
vn 0.6313 0.0046 0.7755
vn 0.8979 -0.3942 0.1961
vn 0.6111 0.7490 -0.2558
vn 0.8630 -0.4633 0.2013
vn 0.8667 -0.4550 0.2043
vn 0.5268 0.4154 -0.7416
vn 0.5266 0.4160 -0.7414
vn 0.4930 -0.1024 0.8640
vn -0.6555 -0.7064 0.2670
vn 0.7348 0.6228 -0.2686
vn 0.9163 -0.3663 0.1619
vn 0.4987 0.4134 0.7618
vn -0.1162 0.9085 -0.4014
vn 0.6135 0.3417 -0.7119
vn 0.6141 0.3417 -0.7114
vn 0.6231 -0.7154 0.3161
vn 0.2623 -0.0323 0.9645
vn 0.7619 0.5835 -0.2812
vn 0.7565 0.5961 -0.2691
vn -0.5996 -0.7429 0.2975
vn -0.6223 -0.7235 0.2989
vn 0.6274 0.7123 -0.3147
vn 0.3602 0.8335 -0.4190
vn 0.4947 0.7758 -0.3917
vn -0.9992 0.0355 -0.0196
vn 0.2135 0.9346 -0.2845
vn 0.2024 0.9359 -0.2884
vn 0.1719 0.5385 -0.8249
vn 0.1750 0.5408 -0.8227
vn -0.9993 -0.0372 -0.0086
vn 0.2066 0.9185 -0.3371
vn -0.9988 0.0461 -0.0162
vn 0.0202 0.9373 -0.3479
vn 0.2034 0.9184 -0.3394
vn 0.0239 0.9365 -0.3500
vn 0.0199 0.5363 -0.8438
vn -0.1536 0.5045 -0.8497
vn -0.1562 0.5012 -0.8511
vn 0.0168 0.5385 -0.8424
vn -0.1872 0.9206 -0.3426
vn 0.0201 0.9552 -0.2953
vn 0.0891 0.9111 -0.4025
vn 0.0890 0.9110 -0.4026
vn -0.0089 0.9147 -0.4041
vn 0.0332 0.9538 -0.2985
vn -0.0160 -0.9341 0.3567
vn 0.0356 -0.9376 0.3459
vn -0.1175 -0.9291 0.3506
vn -0.1007 -0.9296 0.3545
vn -0.1075 -0.9264 0.3608
vn -0.1873 -0.9149 0.3575
vn -0.1637 -0.9166 0.3648
vn 0.3615 -0.8822 0.3017
vn 0.3017 -0.8983 0.3194
vn 0.0002 -0.4041 -0.9147
vn 0.2073 -0.9212 0.3293
vn -0.6413 0.7018 -0.3101
vn -0.0002 -0.4043 -0.9146
vn 0.0002 -0.4040 -0.9147
vn 0.4808 -0.8303 0.2819
vn 0.5837 -0.7714 0.2535
vn 0.5119 -0.8135 0.2762
vn 0.6002 -0.7570 0.2581
vn 0.5121 -0.8130 0.2770
vn 0.6256 -0.7410 0.2439
vn -0.3370 0.4279 -0.8387
vn 0.6394 -0.7308 0.2389
vn 0.7000 -0.6788 0.2218
vn 0.9275 -0.3623 0.0923
vn 0.9357 -0.3428 0.0831
vn 0.9211 -0.3741 0.1079
vn -0.0009 0.4050 0.9143
vn 0.7925 -0.5683 0.2213
vn -0.6349 -0.7586 0.1463
vn -0.6559 -0.5708 0.4940
vn -0.6155 -0.7509 -0.2395
vn -0.7936 0.5508 -0.2586
vn -0.4030 -0.7170 -0.5687
vn -0.8163 0.5498 -0.1773
vn -0.3315 -0.6910 -0.6424
vn -0.8001 0.5694 -0.1888
vn -0.8052 0.5581 -0.2008
vn -0.3315 0.0097 0.9434
vn -0.7827 0.5834 -0.2170
vn -0.7631 0.6280 -0.1525
vn -0.7387 0.6229 -0.2573
vn -0.1259 0.1419 0.9818
vn -0.5091 -0.4081 0.7578
vn -0.3893 -0.1294 0.9120
vn -0.7537 0.6076 -0.2505
vn 0.2551 0.5244 0.8123
vn -0.0290 0.2992 0.9537
vn -0.6930 0.6757 -0.2515
vn -0.7064 0.6883 -0.1650
vn 0.6096 0.7538 0.2453
vn 0.4006 0.7129 0.5755
vn -0.6494 0.7164 -0.2551
vn -0.6604 0.7034 -0.2630
vn 0.6332 0.7679 -0.0970
vn 0.6669 0.5936 -0.4504
vn 0.5376 0.4477 -0.7145
vn -0.6849 0.6542 -0.3207
vn 0.3881 0.1415 -0.9107
vn -0.6715 0.6960 -0.2542
vn -0.7411 0.6390 -0.2059
vn 0.2592 0.0219 -0.9656
vn 0.0366 -0.3038 -0.9520
vn 0.7444 -0.6468 0.1659
vn -0.2268 -0.4862 -0.8439
vn 0.7531 -0.6383 0.1595
vn 0.3314 -0.0097 -0.9434
vn -0.7440 0.6414 -0.1870
vn -0.7440 0.6415 -0.1870
vn 0.3315 0.6910 0.6424
vn -0.3315 0.0098 0.9434
vn 0.3073 0.8960 -0.3205
vn 0.0427 0.2276 -0.9728
vn 0.3873 0.8545 -0.3462
vn -0.7441 0.6414 -0.1870
vn 0.3093 0.6756 0.6693
vn -0.7453 0.6413 -0.1826
vn -0.0072 0.7431 0.6692
vn -0.2333 0.1387 0.9625
vn -0.5573 0.2790 0.7820
vn -0.7448 0.6442 -0.1739
vn -0.7380 0.6512 -0.1769
vn -0.9500 0.3007 -0.0836
vn -0.9487 0.3009 -0.0970
vn -0.8153 0.5583 -0.1535
vn 0.3315 -0.0097 -0.9434
vn 0.8275 -0.5459 0.1311
vn 0.7489 -0.6310 0.2027
vn -0.9962 0.0777 0.0401
vn -0.9652 0.2593 -0.0340
vn -0.4192 0.8274 -0.3737
vn -0.0015 0.4035 0.9150
vn 0.9620 0.2441 -0.1224
vn 0.9816 0.1665 -0.0937
vn 0.9626 0.2423 -0.1210
vn -0.8797 -0.4093 0.2422
vn 0.9856 0.1443 -0.0881
vn -0.0013 0.4043 0.9146
vn -0.5147 0.3116 -0.7988
vn -0.6273 0.7714 -0.1072
vn 0.1551 -0.9237 0.3502
vn 0.1906 -0.9243 0.3306
vn 0.0006 0.4056 0.9141
s 0
usemtl Material.021
f 94//110 92//110 91//110
f 95//111 93//111 92//111
f 95//110 92//110 94//110
f 98//114 93//114 95//114
f 94//134 91//134 113//134
f 113//135 115//135 114//135
f 113//134 91//134 115//134
f 114//135 115//135 116//135
f 118//136 116//136 117//136
f 114//136 116//136 118//136
f 118//137 117//137 121//137
f 121//138 124//138 123//138
f 121//137 117//137 124//137
f 123//138 124//138 125//138
f 128//139 125//139 126//139
f 123//139 125//139 128//139
f 128//140 126//140 129//140
f 166//190 168//190 98//190
f 164//191 167//191 166//191
f 166//191 167//191 168//191
f 98//190 168//190 93//190
f 181//203 179//203 178//203
f 180//204 178//204 175//204
f 181//204 178//204 180//204
f 183//203 179//203 181//203
f 184//205 186//205 183//205
f 183//205 186//205 179//205
f 184//207 188//207 186//207
f 191//208 190//208 188//208
f 191//207 188//207 184//207
f 24//208 190//208 191//208
f 24//209 192//209 190//209
f 22//210 193//210 192//210
f 22//211 192//211 24//211
f 19//216 200//216 195//216
f 18//217 201//217 200//217
f 18//218 200//218 19//218
f 203//219 202//219 201//219
f 203//220 201//220 18//220
f 204//219 202//219 203//219
f 205//221 206//221 204//221
f 204//221 206//221 202//221
f 205//223 207//223 206//223
f 215//228 213//228 211//228
f 216//229 214//229 213//229
f 216//230 213//230 215//230
f 217//229 214//229 216//229
f 280//293 275//293 278//293
f 279//294 278//294 274//294
f 280//294 278//294 279//294
f 282//293 275//293 280//293
f 285//295 286//295 282//295
f 282//295 286//295 275//295
f 285//296 287//296 286//296
f 299//304 302//304 298//304
f 300//305 301//305 299//305
f 299//305 301//305 302//305
f 298//304 302//304 293//304
f 300//306 304//306 301//306
f 306//307 305//307 304//307
f 306//306 304//306 300//306
f 307//307 305//307 306//307
f 314//312 315//312 313//312
f 313//313 316//313 310//313
f 313//312 315//312 316//312
f 310//313 316//313 317//313
f 414//424 417//424 415//424
f 415//425 418//425 416//425
f 415//426 417//426 418//426
f 416//425 418//425 419//425
f 421//427 419//427 420//427
f 416//427 419//427 421//427
f 421//429 420//429 217//429
f 217//429 420//429 214//429
f 414//430 276//430 417//430
f 422//430 276//430 414//430
f 279//431 274//431 422//431
f 422//431 274//431 276//431
f 475//542 478//542 476//542
f 476//543 479//543 477//543
f 476//544 478//544 479//544
f 477//543 479//543 482//543
f 484//545 482//545 483//545
f 477//545 482//545 484//545
f 484//546 483//546 485//546
f 485//550 488//550 487//550
f 485//551 483//551 488//551
f 487//552 488//552 489//552
f 491//553 489//553 490//553
f 487//554 489//554 491//554
f 491//555 490//555 314//555
f 314//555 490//555 315//555
f 565//665 564//665 562//665
f 566//666 563//666 564//666
f 566//667 564//667 565//667
f 568//666 563//666 566//666
f 569//668 561//668 568//668
f 568//668 561//668 563//668
f 129//669 570//669 569//669
f 569//669 570//669 561//669
f 129//140 126//140 570//140
f 578//681 580//681 577//681
f 571//682 579//682 578//682
f 578//683 579//683 580//683
f 577//684 580//684 581//684
f 582//685 581//685 495//685
f 577//686 581//686 582//686
f 582//687 495//687 473//687
f 571//688 562//688 579//688
f 565//688 562//688 571//688
f 473//711 495//711 492//711
f 475//712 492//712 478//712
f 473//712 492//712 475//712
f 307//719 317//719 305//719
f 310//719 317//719 307//719
f 298//721 293//721 297//721
f 297//722 292//722 586//722
f 297//721 293//721 292//721
f 586//296 287//296 285//296
f 586//722 292//722 287//722
f 591//223 207//223 205//223
f 215//750 211//750 591//750
f 591//750 211//750 207//750
f 17//770 195//770 193//770
f 19//771 195//771 17//771
f 17//772 193//772 22//772
f 180//785 175//785 164//785
f 164//785 175//785 167//785
usemtl Material.023
f 5//1 1//1 2//1
f 4//2 2//2 1//2
f 3//3 1//3 6//3
f 3//4 4//4 1//4
f 6//5 1//5 5//5
f 8//6 6//6 5//6
f 6//7 8//7 7//7
f 6//8 7//8 9//8
f 6//9 9//9 3//9
f 9//10 10//10 3//10
f 9//11 11//11 10//11
f 12//12 11//12 9//12
f 12//13 9//13 7//13
f 13//14 11//14 12//14
f 14//15 13//15 12//15
f 7//16 15//16 12//16
f 12//17 15//17 14//17
f 14//18 15//18 16//18
f 15//19 8//19 16//19
f 8//20 15//20 7//20
f 17//21 16//21 19//21
f 20//22 16//22 17//22
f 16//22 8//22 18//22
f 19//23 16//23 18//23
f 14//24 16//24 20//24
f 23//25 21//25 20//25
f 21//26 25//26 20//26
f 22//23 20//23 17//23
f 24//22 20//22 22//22
f 23//23 20//23 24//23
f 25//27 14//27 20//27
f 26//28 13//28 25//28
f 13//29 14//29 25//29
f 26//30 25//30 21//30
f 27//31 13//31 26//31
f 28//32 27//32 26//32
f 21//33 28//33 26//33
f 29//34 28//34 21//34
f 29//35 30//35 28//35
f 27//35 28//35 30//35
f 27//36 30//36 31//36
f 32//37 31//37 30//37
f 30//38 33//38 32//38
f 33//38 30//38 29//38
f 34//39 33//39 29//39
f 33//40 34//40 36//40
f 35//41 32//41 33//41
f 35//42 33//42 36//42
f 34//43 37//43 36//43
f 36//44 37//44 38//44
f 36//45 39//45 35//45
f 38//46 39//46 36//46
f 39//47 41//47 35//47
f 39//48 38//48 40//48
f 39//49 40//49 41//49
f 32//50 41//50 42//50
f 41//51 32//51 35//51
f 43//52 42//52 41//52
f 41//53 40//53 43//53
f 45//54 42//54 43//54
f 40//55 44//55 43//55
f 43//56 44//56 45//56
f 47//57 45//57 46//57
f 45//58 48//58 46//58
f 47//59 49//59 45//59
f 45//60 44//60 48//60
f 45//54 49//54 42//54
f 49//61 51//61 50//61
f 49//62 50//62 53//62
f 51//63 49//63 55//63
f 52//64 49//64 47//64
f 55//65 49//65 52//65
f 53//66 56//66 49//66
f 49//67 54//67 42//67
f 54//67 49//67 56//67
f 56//68 53//68 57//68
f 57//69 60//69 56//69
f 61//70 56//70 58//70
f 59//70 58//70 56//70
f 56//70 60//70 59//70
f 56//70 61//70 54//70
f 61//71 66//71 62//71
f 64//72 61//72 62//72
f 63//73 54//73 61//73
f 61//74 64//74 63//74
f 65//75 61//75 58//75
f 61//76 65//76 66//76
f 66//77 65//77 67//77
f 67//78 68//78 66//78
f 70//79 66//79 68//79
f 69//80 62//80 66//80
f 70//81 69//81 66//81
f 68//82 71//82 70//82
f 72//83 70//83 71//83
f 73//84 69//84 70//84
f 72//85 74//85 70//85
f 70//86 74//86 73//86
f 74//87 75//87 73//87
f 75//88 74//88 77//88
f 72//89 76//89 74//89
f 74//90 76//90 78//90
f 78//91 77//91 74//91
f 77//92 78//92 79//92
f 80//93 79//93 78//93
f 78//94 81//94 80//94
f 81//95 78//95 76//95
f 82//96 81//96 83//96
f 81//97 82//97 84//97
f 76//98 83//98 81//98
f 84//99 80//99 81//99
f 85//100 84//100 82//100
f 84//101 85//101 86//101
f 86//102 87//102 84//102
f 80//103 84//103 87//103
f 90//104 87//104 88//104
f 89//105 88//105 87//105
f 87//106 86//106 89//106
f 87//107 90//107 80//107
f 79//108 90//108 92//108
f 79//109 80//109 90//109
f 88//70 91//70 90//70
f 92//108 90//108 91//108
f 92//70 93//70 79//70
f 95//112 96//112 99//112
f 95//113 97//113 96//113
f 94//112 97//112 95//112
f 95//22 99//22 98//22
f 98//112 99//112 100//112
f 101//115 100//115 99//115
f 101//116 99//116 102//116
f 99//117 96//117 102//117
f 102//118 96//118 106//118
f 102//119 104//119 103//119
f 103//120 101//120 102//120
f 102//121 105//121 104//121
f 106//122 105//122 102//122
f 106//123 107//123 105//123
f 96//124 107//124 106//124
f 107//125 96//125 97//125
f 107//126 110//126 105//126
f 107//127 108//127 110//127
f 109//128 108//128 107//128
f 107//129 111//129 109//129
f 111//130 107//130 97//130
f 94//131 111//131 97//131
f 113//22 111//22 94//22
f 113//132 112//132 111//132
f 109//133 111//133 112//133
f 114//112 112//112 113//112
f 115//70 91//70 88//70
f 115//108 88//108 116//108
f 89//70 116//70 88//70
f 117//70 116//70 89//70
f 121//112 119//112 118//112
f 118//22 119//22 120//22
f 118//112 120//112 114//112
f 121//112 122//112 119//112
f 123//22 122//22 121//22
f 124//108 117//108 89//108
f 125//70 124//70 89//70
f 127//70 125//70 89//70
f 126//108 125//108 127//108
f 128//22 122//22 123//22
f 129//22 130//22 128//22
f 128//22 130//22 122//22
f 129//112 133//112 130//112
f 132//141 131//141 130//141
f 130//142 131//142 134//142
f 130//143 134//143 122//143
f 130//144 133//144 132//144
f 135//145 134//145 131//145
f 134//146 135//146 136//146
f 122//147 134//147 136//147
f 119//148 122//148 136//148
f 119//149 136//149 138//149
f 135//150 137//150 136//150
f 136//151 137//151 138//151
f 119//152 138//152 139//152
f 138//153 140//153 139//153
f 140//154 138//154 141//154
f 137//155 141//155 138//155
f 141//156 137//156 142//156
f 143//157 141//157 142//157
f 141//158 108//158 109//158
f 109//159 140//159 141//159
f 108//160 141//160 143//160
f 143//161 142//161 144//161
f 144//162 146//162 143//162
f 110//160 108//160 143//160
f 143//163 145//163 110//163
f 145//163 143//163 146//163
f 146//108 144//108 147//108
f 147//70 82//70 146//70
f 146//70 83//70 145//70
f 83//70 146//70 82//70
f 85//164 147//164 144//164
f 82//165 147//165 85//165
f 145//166 148//166 149//166
f 148//167 145//167 83//167
f 149//168 110//168 145//168
f 150//70 149//70 148//70
f 149//169 150//169 151//169
f 110//170 149//170 104//170
f 151//169 104//169 149//169
f 151//171 152//171 153//171
f 151//172 154//172 152//172
f 153//173 55//173 151//173
f 154//174 151//174 150//174
f 151//175 103//175 104//175
f 55//176 156//176 151//176
f 155//176 103//176 151//176
f 155//176 151//176 156//176
f 155//177 156//177 158//177
f 157//178 156//178 55//178
f 158//179 156//179 157//179
f 159//180 155//180 158//180
f 158//181 160//181 159//181
f 157//182 161//182 158//182
f 160//183 158//183 161//183
f 163//184 161//184 162//184
f 162//185 161//185 157//185
f 163//186 160//186 161//186
f 163//112 164//112 166//112
f 163//187 165//187 164//187
f 165//188 163//188 162//188
f 160//112 163//112 166//112
f 166//189 159//189 160//189
f 98//22 159//22 166//22
f 170//108 93//108 168//108
f 170//70 168//70 169//70
f 169//108 168//108 167//108
f 79//70 93//70 170//70
f 79//192 170//192 77//192
f 169//193 77//193 170//193
f 169//70 167//70 171//70
f 169//194 171//194 172//194
f 172//195 75//195 169//195
f 77//196 169//196 75//196
f 173//197 69//197 172//197
f 75//198 172//198 69//198
f 172//199 174//199 173//199
f 174//200 172//200 171//200
f 178//70 174//70 175//70
f 175//70 174//70 171//70
f 178//70 176//70 174//70
f 174//201 176//201 177//201
f 177//202 173//202 174//202
f 179//70 176//70 178//70
f 180//22 182//22 181//22
f 181//112 38//112 183//112
f 182//22 38//22 181//22
f 183//22 185//22 184//22
f 38//22 185//22 183//22
f 188//70 187//70 186//70
f 187//206 179//206 186//206
f 187//70 188//70 189//70
f 189//70 188//70 190//70
f 184//22 185//22 191//22
f 185//22 23//22 191//22
f 191//22 23//22 24//22
f 189//206 190//206 192//206
f 194//70 192//70 193//70
f 189//70 192//70 194//70
f 200//108 194//108 195//108
f 194//70 193//70 195//70
f 194//212 196//212 189//212
f 196//213 194//213 199//213
f 194//70 200//70 197//70
f 194//214 197//214 198//214
f 198//215 199//215 194//215
f 197//206 200//206 201//206
f 202//108 197//108 201//108
f 203//22 8//22 204//22
f 18//21 8//21 203//21
f 204//112 5//112 205//112
f 8//22 5//22 204//22
f 206//70 208//70 197//70
f 206//222 197//222 202//222
f 207//70 208//70 206//70
f 209//70 208//70 213//70
f 208//224 209//224 212//224
f 198//225 208//225 210//225
f 212//226 210//226 208//226
f 213//70 208//70 211//70
f 211//108 208//108 207//108
f 208//227 198//227 197//227
f 214//108 209//108 213//108
f 215//22 218//22 216//22
f 216//112 218//112 217//112
f 219//22 218//22 215//22
f 221//231 218//231 219//231
f 217//112 218//112 220//112
f 220//232 218//232 221//232
f 224//233 222//233 221//233
f 223//234 221//234 222//234
f 220//235 221//235 223//235
f 219//236 4//236 221//236
f 221//237 4//237 224//237
f 222//238 224//238 225//238
f 225//239 224//239 3//239
f 4//240 3//240 224//240
f 3//241 10//241 225//241
f 10//242 227//242 225//242
f 226//243 222//243 225//243
f 228//244 226//244 225//244
f 229//245 225//245 227//245
f 229//246 228//246 225//246
f 228//247 229//247 231//247
f 231//248 229//248 230//248
f 232//249 230//249 229//249
f 227//250 232//250 229//250
f 233//251 230//251 232//251
f 234//252 233//252 232//252
f 232//253 235//253 234//253
f 232//254 227//254 235//254
f 235//70 227//70 236//70
f 236//70 237//70 235//70
f 238//70 235//70 237//70
f 239//255 235//255 238//255
f 239//256 234//256 235//256
f 239//257 242//257 234//257
f 239//258 238//258 240//258
f 239//259 240//259 241//259
f 242//260 239//260 241//260
f 242//261 241//261 243//261
f 244//262 233//262 242//262
f 233//263 234//263 242//263
f 244//264 242//264 243//264
f 246//265 233//265 244//265
f 245//266 247//266 244//266
f 244//266 243//266 245//266
f 246//267 244//267 247//267
f 248//268 249//268 247//268
f 247//269 245//269 248//269
f 250//268 247//268 249//268
f 247//270 250//270 246//270
f 253//269 250//269 251//269
f 249//268 251//268 250//268
f 252//271 246//271 250//271
f 250//271 253//271 252//271
f 251//269 254//269 253//269
f 256//268 253//268 254//268
f 253//272 256//272 255//272
f 255//272 252//272 253//272
f 257//268 256//268 259//268
f 256//273 257//273 258//273
f 258//273 255//273 256//273
f 254//268 259//268 256//268
f 260//274 259//274 261//274
f 259//268 260//268 257//268
f 254//275 261//275 259//275
f 261//276 262//276 263//276
f 261//277 265//277 262//277
f 264//278 260//278 261//278
f 263//279 266//279 261//279
f 261//280 266//280 264//280
f 265//281 261//281 254//281
f 266//282 263//282 212//282
f 264//283 266//283 267//283
f 266//284 269//284 267//284
f 212//285 268//285 266//285
f 269//286 266//286 268//286
f 269//287 270//287 271//287
f 270//288 269//288 272//288
f 268//289 272//289 269//289
f 271//290 267//290 269//290
f 272//108 275//108 273//108
f 272//291 273//291 270//291
f 274//70 278//70 272//70
f 274//70 272//70 276//70
f 278//108 275//108 272//108
f 277//108 276//108 272//108
f 272//292 268//292 277//292
f 279//22 281//22 280//22
f 281//112 282//112 280//112
f 283//22 282//22 281//22
f 282//22 283//22 284//22
f 285//112 282//112 284//112
f 287//70 288//70 286//70
f 288//70 275//70 286//70
f 289//297 288//297 284//297
f 289//298 290//298 288//298
f 288//70 273//70 275//70
f 290//70 273//70 288//70
f 287//108 291//108 288//108
f 284//299 288//299 291//299
f 292//70 291//70 287//70
f 293//108 291//108 292//108
f 291//108 293//108 294//108
f 295//300 291//300 294//300
f 295//301 284//301 291//301
f 299//22 295//22 296//22
f 296//302 295//302 294//302
f 284//22 295//22 297//22
f 297//189 295//189 298//189
f 299//303 298//303 295//303
f 300//112 299//112 296//112
f 294//70 293//70 302//70
f 301//108 294//108 302//108
f 301//70 303//70 294//70
f 303//108 301//108 304//108
f 305//70 303//70 304//70
f 307//303 306//303 308//303
f 306//112 300//112 308//112
f 308//112 300//112 296//112
f 308//308 296//308 303//308
f 307//22 308//22 309//22
f 309//309 308//309 303//309
f 310//22 309//22 313//22
f 307//112 309//112 310//112
f 313//112 309//112 311//112
f 312//310 311//310 309//310
f 312//311 309//311 303//311
f 311//112 314//112 313//112
f 316//70 312//70 317//70
f 316//108 315//108 318//108
f 318//70 312//70 316//70
f 318//70 322//70 319//70
f 318//314 319//314 324//314
f 312//315 318//315 311//315
f 320//316 318//316 324//316
f 320//317 311//317 318//317
f 323//70 318//70 315//70
f 323//70 321//70 318//70
f 322//70 318//70 321//70
f 326//318 324//318 325//318
f 319//319 325//319 324//319
f 326//320 320//320 324//320
f 326//321 325//321 327//321
f 326//322 327//322 328//322
f 328//22 331//22 326//22
f 326//23 329//23 320//23
f 330//22 329//22 326//22
f 332//22 330//22 326//22
f 331//22 332//22 326//22
f 332//323 333//323 330//323
f 331//324 334//324 332//324
f 334//325 333//325 332//325
f 335//70 334//70 336//70
f 335//326 333//326 334//326
f 336//327 334//327 331//327
f 335//108 336//108 337//108
f 337//328 336//328 338//328
f 338//329 336//329 331//329
f 338//189 331//189 328//189
f 339//22 338//22 328//22
f 339//330 337//330 338//330
f 340//331 337//331 339//331
f 341//332 340//332 339//332
f 341//22 339//22 328//22
f 344//333 340//333 341//333
f 343//112 341//112 328//112
f 342//334 341//334 343//334
f 342//335 344//335 341//335
f 335//336 344//336 345//336
f 335//108 340//108 344//108
f 345//337 344//337 342//337
f 346//338 345//338 347//338
f 335//70 345//70 346//70
f 347//339 345//339 342//339
f 347//340 348//340 346//340
f 343//303 349//303 347//303
f 342//112 343//112 347//112
f 349//112 348//112 347//112
f 348//112 349//112 350//112
f 349//341 351//341 350//341
f 343//342 352//342 349//342
f 349//343 352//343 351//343
f 352//70 355//70 351//70
f 343//344 353//344 352//344
f 353//108 354//108 352//108
f 355//70 352//70 354//70
f 351//108 355//108 357//108
f 355//345 354//345 356//345
f 356//346 358//346 355//346
f 357//347 355//347 358//347
f 358//348 359//348 360//348
f 358//349 335//349 359//349
f 335//349 358//349 356//349
f 358//350 360//350 357//350
f 360//351 359//351 361//351
f 360//352 361//352 362//352
f 362//353 357//353 360//353
f 362//70 290//70 357//70
f 363//108 290//108 362//108
f 362//354 361//354 363//354
f 363//355 270//355 273//355
f 270//356 363//356 361//356
f 273//70 290//70 363//70
f 359//357 364//357 361//357
f 271//358 361//358 364//358
f 361//359 271//359 270//359
f 365//360 364//360 367//360
f 364//361 365//361 271//361
f 364//362 359//362 366//362
f 366//363 367//363 364//363
f 367//108 369//108 365//108
f 367//364 366//364 370//364
f 370//70 368//70 367//70
f 369//108 367//108 368//108
f 368//70 370//70 371//70
f 366//365 371//365 370//365
f 371//365 366//365 373//365
f 371//366 372//366 368//366
f 372//367 371//367 373//367
f 374//368 372//368 373//368
f 359//369 374//369 373//369
f 373//370 366//370 359//370
f 378//371 375//371 374//371
f 375//372 377//372 374//372
f 374//373 359//373 376//373
f 374//374 376//374 378//374
f 372//375 374//375 377//375
f 378//376 376//376 379//376
f 378//377 379//377 283//377
f 283//378 375//378 378//378
f 381//22 379//22 380//22
f 380//379 379//379 382//379
f 289//22 379//22 381//22
f 376//380 382//380 379//380
f 379//22 289//22 283//22
f 383//381 380//381 382//381
f 382//382 359//382 383//382
f 359//70 382//70 376//70
f 384//383 380//383 383//383
f 383//384 385//384 384//384
f 383//319 359//319 385//319
f 386//385 387//385 385//385
f 385//108 359//108 386//108
f 387//386 384//386 385//386
f 388//387 387//387 386//387
f 389//388 387//388 388//388
f 381//112 384//112 387//112
f 381//22 387//22 389//22
f 390//389 389//389 388//389
f 381//22 389//22 390//22
f 391//390 390//390 388//390
f 392//391 390//391 391//391
f 350//22 390//22 392//22
f 381//22 390//22 350//22
f 393//392 392//392 391//392
f 350//112 392//112 393//112
f 350//112 393//112 394//112
f 394//393 393//393 395//393
f 395//394 393//394 391//394
f 396//395 394//395 395//395
f 359//70 396//70 395//70
f 359//396 395//396 391//396
f 348//397 394//397 396//397
f 346//398 348//398 396//398
f 359//70 346//70 396//70
f 350//22 394//22 348//22
f 359//314 391//314 388//314
f 386//399 359//399 388//399
f 381//22 380//22 384//22
f 350//400 397//400 381//400
f 290//401 381//401 397//401
f 289//402 381//402 290//402
f 350//403 351//403 397//403
f 357//108 397//108 351//108
f 357//108 290//108 397//108
f 375//404 398//404 377//404
f 372//405 377//405 400//405
f 377//406 398//406 399//406
f 399//407 401//407 377//407
f 400//408 377//408 401//408
f 403//409 401//409 402//409
f 402//410 401//410 399//410
f 400//411 401//411 403//411
f 405//412 404//412 403//412
f 400//413 403//413 404//413
f 405//414 403//414 406//414
f 402//414 406//414 403//414
f 407//415 405//415 406//415
f 408//416 406//416 402//416
f 407//417 406//417 409//417
f 406//418 408//418 409//418
f 409//419 410//419 407//419
f 408//420 411//420 409//420
f 412//421 410//421 409//421
f 412//422 409//422 411//422
f 415//22 413//22 412//22
f 412//423 413//423 410//423
f 414//112 412//112 411//112
f 415//22 412//22 414//22
f 416//22 413//22 415//22
f 419//70 418//70 209//70
f 209//70 418//70 277//70
f 417//70 277//70 418//70
f 419//108 209//108 420//108
f 421//22 220//22 413//22
f 421//21 413//21 416//21
f 217//428 220//428 421//428
f 420//70 209//70 214//70
f 417//108 276//108 277//108
f 414//112 411//112 422//112
f 422//112 411//112 279//112
f 410//432 413//432 423//432
f 423//433 413//433 220//433
f 223//434 423//434 220//434
f 424//435 423//435 222//435
f 410//436 423//436 424//436
f 223//437 222//437 423//437
f 424//438 405//438 407//438
f 226//439 405//439 424//439
f 407//440 410//440 424//440
f 424//441 222//441 226//441
f 279//22 411//22 281//22
f 281//442 411//442 425//442
f 408//443 425//443 411//443
f 402//444 425//444 408//444
f 399//445 425//445 402//445
f 281//446 425//446 426//446
f 425//447 399//447 426//447
f 283//448 281//448 426//448
f 283//449 426//449 399//449
f 240//450 238//450 405//450
f 404//451 405//451 238//451
f 226//452 427//452 405//452
f 240//453 405//453 427//453
f 427//454 428//454 240//454
f 429//455 428//455 427//455
f 430//456 429//456 427//456
f 430//457 427//457 226//457
f 431//458 430//458 226//458
f 430//459 431//459 432//459
f 432//460 429//460 430//460
f 432//461 431//461 433//461
f 255//462 429//462 432//462
f 432//462 433//462 255//462
f 431//463 228//463 433//463
f 433//464 228//464 231//464
f 231//465 252//465 433//465
f 255//466 433//466 252//466
f 228//467 431//467 226//467
f 429//468 258//468 428//468
f 258//469 429//469 255//469
f 241//470 428//470 243//470
f 428//471 241//471 240//471
f 243//472 428//472 258//472
f 404//413 369//413 400//413
f 369//70 404//70 434//70
f 238//473 434//473 404//473
f 434//474 238//474 435//474
f 435//475 267//475 434//475
f 434//108 365//108 369//108
f 365//476 434//476 267//476
f 237//70 435//70 238//70
f 436//477 435//477 237//477
f 435//478 436//478 267//478
f 436//479 237//479 249//479
f 436//480 264//480 267//480
f 249//481 248//481 436//481
f 264//482 436//482 248//482
f 400//483 368//483 372//483
f 368//483 400//483 369//483
f 399//484 398//484 283//484
f 283//485 398//485 375//485
f 267//486 271//486 365//486
f 335//70 346//70 359//70
f 335//487 356//487 437//487
f 319//488 356//488 354//488
f 356//489 319//489 437//489
f 438//490 335//490 437//490
f 438//491 437//491 322//491
f 322//492 437//492 319//492
f 335//493 438//493 440//493
f 439//494 440//494 438//494
f 438//495 323//495 439//495
f 323//496 438//496 321//496
f 322//497 321//497 438//497
f 440//498 442//498 335//498
f 441//499 443//499 440//499
f 440//500 439//500 441//500
f 442//501 440//501 443//501
f 444//70 445//70 443//70
f 443//502 441//502 444//502
f 446//70 443//70 445//70
f 443//503 446//503 442//503
f 442//504 446//504 447//504
f 445//108 447//108 446//108
f 447//504 449//504 442//504
f 447//505 445//505 448//505
f 448//506 449//506 447//506
f 335//507 442//507 449//507
f 335//508 449//508 450//508
f 450//108 449//108 448//108
f 450//509 452//509 451//509
f 451//510 455//510 450//510
f 452//511 450//511 454//511
f 329//512 453//512 450//512
f 329//513 450//513 455//513
f 453//514 335//514 450//514
f 454//108 450//108 448//108
f 457//515 329//515 455//515
f 457//516 455//516 456//516
f 456//517 455//517 451//517
f 457//518 456//518 329//518
f 458//23 311//23 456//23
f 456//303 311//303 329//303
f 456//519 459//519 458//519
f 451//520 459//520 456//520
f 458//521 459//521 460//521
f 460//522 459//522 451//522
f 452//523 462//523 460//523
f 451//524 452//524 460//524
f 461//525 460//525 462//525
f 458//526 460//526 461//526
f 461//527 462//527 463//527
f 462//528 464//528 463//528
f 454//529 462//529 452//529
f 454//530 464//530 462//530
f 466//531 465//531 464//531
f 464//532 465//532 467//532
f 464//533 467//533 463//533
f 464//530 454//530 466//530
f 463//534 467//534 468//534
f 468//535 467//535 469//535
f 465//536 469//536 467//536
f 469//537 465//537 470//537
f 469//538 470//538 471//538
f 469//539 472//539 468//539
f 469//540 471//540 472//540
f 472//22 474//22 473//22
f 475//23 472//23 473//23
f 472//541 471//541 474//541
f 476//112 472//112 475//112
f 468//22 472//22 476//22
f 477//112 468//112 476//112
f 480//70 479//70 481//70
f 479//108 480//108 482//108
f 481//70 479//70 478//70
f 480//70 483//70 482//70
f 484//22 486//22 477//22
f 485//23 486//23 484//23
f 458//112 486//112 485//112
f 461//547 486//547 458//547
f 468//548 486//548 463//548
f 463//549 486//549 461//549
f 486//112 468//112 477//112
f 487//303 458//303 485//303
f 323//70 489//70 488//70
f 323//70 488//70 480//70
f 480//206 488//206 483//206
f 323//70 490//70 489//70
f 311//22 491//22 314//22
f 491//112 311//112 458//112
f 491//23 458//23 487//23
f 323//70 315//70 490//70
f 492//70 481//70 478//70
f 495//108 481//108 492//108
f 481//70 495//70 493//70
f 493//556 494//556 481//556
f 496//557 481//557 494//557
f 481//558 496//558 480//558
f 323//559 480//559 496//559
f 496//560 439//560 323//560
f 439//561 496//561 497//561
f 494//562 497//562 496//562
f 498//563 441//563 497//563
f 499//564 498//564 497//564
f 497//565 441//565 439//565
f 497//566 494//566 499//566
f 501//567 500//567 499//567
f 500//568 498//568 499//568
f 505//569 501//569 499//569
f 502//570 505//570 499//570
f 502//571 499//571 503//571
f 499//572 504//572 503//572
f 504//573 499//573 494//573
f 505//574 502//574 506//574
f 506//575 507//575 505//575
f 508//576 501//576 505//576
f 509//576 505//576 507//576
f 505//576 509//576 508//576
f 507//576 510//576 509//576
f 512//577 509//577 510//577
f 511//578 508//578 509//578
f 509//578 512//578 511//578
f 510//577 513//577 512//577
f 513//579 515//579 512//579
f 512//580 515//580 514//580
f 514//581 516//581 512//581
f 512//582 516//582 511//582
f 516//583 514//583 517//583
f 517//584 518//584 516//584
f 519//585 516//585 518//585
f 516//586 519//586 511//586
f 511//587 519//587 520//587
f 519//588 522//588 520//588
f 519//589 521//589 522//589
f 518//590 521//590 519//590
f 522//591 523//591 520//591
f 523//592 522//592 524//592
f 521//593 524//593 522//593
f 466//594 525//594 524//594
f 526//595 524//595 525//595
f 526//596 523//596 524//596
f 466//597 524//597 521//597
f 528//598 527//598 526//598
f 527//599 523//599 526//599
f 526//600 529//600 528//600
f 526//601 525//601 529//601
f 525//108 531//108 529//108
f 529//70 530//70 533//70
f 530//108 529//108 531//108
f 534//602 528//602 529//602
f 532//603 529//603 533//603
f 532//604 534//604 529//604
f 534//605 532//605 535//605
f 536//606 534//606 535//606
f 534//607 536//607 528//607
f 537//608 527//608 536//608
f 536//609 527//609 528//609
f 536//610 535//610 537//610
f 538//611 539//611 537//611
f 537//611 540//611 538//611
f 539//612 527//612 537//612
f 540//613 537//613 513//613
f 537//614 535//614 513//614
f 513//613 510//613 540//613
f 542//576 538//576 540//576
f 541//576 540//576 510//576
f 540//576 541//576 542//576
f 498//615 500//615 542//615
f 542//616 543//616 498//616
f 538//576 542//576 500//576
f 543//617 542//617 541//617
f 441//618 543//618 544//618
f 531//619 544//619 543//619
f 541//620 531//620 543//620
f 498//621 543//621 441//621
f 444//622 544//622 525//622
f 544//623 444//623 441//623
f 531//70 525//70 544//70
f 531//624 541//624 507//624
f 510//576 507//576 541//576
f 539//625 538//625 545//625
f 545//625 520//625 539//625
f 520//579 523//579 539//579
f 527//626 539//626 523//626
f 520//627 545//627 508//627
f 501//576 508//576 545//576
f 545//576 500//576 501//576
f 500//576 545//576 538//576
f 535//628 532//628 515//628
f 513//629 535//629 515//629
f 547//630 533//630 546//630
f 533//631 503//631 546//631
f 503//632 533//632 530//632
f 533//633 547//633 532//633
f 532//634 547//634 515//634
f 517//635 514//635 547//635
f 515//636 547//636 514//636
f 546//637 517//637 547//637
f 546//638 470//638 548//638
f 517//639 546//639 548//639
f 549//640 550//640 546//640
f 552//640 549//640 546//640
f 546//641 550//641 470//641
f 546//642 503//642 551//642
f 551//643 552//643 546//643
f 554//644 552//644 553//644
f 556//645 553//645 552//645
f 554//646 549//646 552//646
f 552//647 551//647 555//647
f 555//648 556//648 552//648
f 142//649 135//649 556//649
f 555//650 142//650 556//650
f 557//651 556//651 135//651
f 553//652 556//652 557//652
f 132//653 553//653 557//653
f 557//654 131//654 132//654
f 557//655 135//655 131//655
f 142//656 555//656 85//656
f 555//657 86//657 85//657
f 86//658 555//658 559//658
f 555//659 551//659 558//659
f 558//660 559//660 555//660
f 559//661 558//661 560//661
f 560//662 127//662 559//662
f 127//663 86//663 559//663
f 563//70 561//70 560//70
f 560//70 561//70 127//70
f 564//108 560//108 562//108
f 493//70 562//70 560//70
f 563//70 560//70 564//70
f 493//664 560//664 558//664
f 565//22 567//22 566//22
f 566//112 567//112 568//112
f 568//22 133//22 569//22
f 568//22 567//22 133//22
f 569//112 133//112 129//112
f 570//108 127//108 561//108
f 570//70 126//70 127//70
f 571//112 567//112 565//112
f 571//22 574//22 567//22
f 573//670 133//670 567//670
f 575//671 572//671 567//671
f 567//672 572//672 573//672
f 575//673 567//673 574//673
f 572//674 575//674 550//674
f 576//675 575//675 574//675
f 576//676 550//676 575//676
f 474//677 471//677 576//677
f 471//678 470//678 576//678
f 470//679 550//679 576//679
f 576//680 574//680 474//680
f 474//112 574//112 577//112
f 577//112 574//112 578//112
f 578//22 574//22 571//22
f 579//70 493//70 580//70
f 580//108 493//108 581//108
f 493//70 495//70 581//70
f 473//112 474//112 582//112
f 582//22 474//22 577//22
f 579//108 562//108 493//108
f 573//689 132//689 133//689
f 554//690 132//690 573//690
f 573//691 572//691 554//691
f 550//692 549//692 572//692
f 572//693 549//693 554//693
f 504//694 558//694 551//694
f 558//695 504//695 493//695
f 132//696 554//696 553//696
f 551//697 503//697 504//697
f 465//531 466//531 548//531
f 466//698 521//698 548//698
f 548//531 470//531 465//531
f 518//699 548//699 521//699
f 517//700 548//700 518//700
f 507//701 506//701 531//701
f 531//702 506//702 530//702
f 506//703 502//703 530//703
f 502//704 503//704 530//704
f 583//705 525//705 466//705
f 525//706 583//706 444//706
f 448//707 583//707 454//707
f 466//708 454//708 583//708
f 445//70 444//70 583//70
f 583//707 448//707 445//707
f 508//709 511//709 520//709
f 494//710 493//710 504//710
f 453//70 584//70 335//70
f 584//713 453//713 329//713
f 335//70 584//70 585//70
f 585//714 584//714 329//714
f 333//715 585//715 329//715
f 335//319 585//319 333//319
f 325//108 354//108 327//108
f 354//108 325//108 319//108
f 354//314 353//314 327//314
f 328//716 327//716 353//716
f 328//717 353//717 343//717
f 335//70 337//70 340//70
f 330//718 333//718 329//718
f 329//303 311//303 320//303
f 317//108 312//108 305//108
f 305//108 312//108 303//108
f 296//720 294//720 303//720
f 586//22 284//22 297//22
f 285//22 284//22 586//22
f 284//112 283//112 289//112
f 209//723 277//723 268//723
f 268//724 212//724 209//724
f 587//725 265//725 254//725
f 262//726 265//726 588//726
f 587//727 588//727 265//727
f 236//728 588//728 587//728
f 236//729 589//729 588//729
f 589//730 590//730 588//730
f 262//731 588//731 590//731
f 590//732 589//732 10//732
f 198//733 590//733 10//733
f 590//734 210//734 262//734
f 210//735 590//735 198//735
f 589//736 236//736 227//736
f 227//737 10//737 589//737
f 237//738 236//738 587//738
f 254//739 251//739 587//739
f 237//740 587//740 251//740
f 248//741 260//741 264//741
f 263//742 262//742 210//742
f 210//743 212//743 263//743
f 245//269 257//269 260//269
f 260//269 248//269 245//269
f 243//744 258//744 257//744
f 257//744 245//744 243//744
f 252//472 231//472 246//472
f 251//745 249//745 237//745
f 246//746 230//746 233//746
f 246//747 231//747 230//747
f 591//112 219//112 215//112
f 205//22 219//22 591//22
f 5//22 219//22 205//22
f 2//748 219//748 5//748
f 2//749 4//749 219//749
f 27//751 199//751 11//751
f 199//751 27//751 196//751
f 11//752 199//752 198//752
f 198//752 10//752 11//752
f 196//753 27//753 593//753
f 187//754 189//754 196//754
f 196//755 592//755 187//755
f 592//756 196//756 593//756
f 593//757 595//757 592//757
f 596//758 594//758 593//758
f 595//759 593//759 594//759
f 593//760 27//760 596//760
f 597//70 594//70 596//70
f 596//70 31//70 597//70
f 31//36 596//36 27//36
f 597//108 63//108 64//108
f 64//761 595//761 597//761
f 63//70 597//70 31//70
f 594//762 597//762 595//762
f 595//763 64//763 598//763
f 598//764 592//764 595//764
f 598//765 62//765 173//765
f 173//766 177//766 598//766
f 592//767 598//767 177//767
f 62//768 598//768 64//768
f 177//769 187//769 592//769
f 176//70 179//70 187//70
f 187//773 177//773 176//773
f 37//774 34//774 185//774
f 37//775 185//775 38//775
f 599//776 23//776 185//776
f 185//777 34//777 599//777
f 599//778 34//778 29//778
f 21//779 23//779 599//779
f 21//780 599//780 29//780
f 182//781 48//781 44//781
f 182//782 44//782 40//782
f 48//783 182//783 180//783
f 38//784 182//784 40//784
f 164//303 600//303 180//303
f 600//786 48//786 180//786
f 165//787 600//787 164//787
f 46//788 48//788 600//788
f 600//789 165//789 601//789
f 600//790 601//790 46//790
f 601//791 52//791 47//791
f 601//792 47//792 46//792
f 52//793 601//793 165//793
f 171//70 167//70 175//70
f 69//794 173//794 62//794
f 165//795 162//795 52//795
f 52//796 162//796 157//796
f 155//797 159//797 103//797
f 98//187 100//187 159//187
f 159//798 101//798 103//798
f 159//799 100//799 101//799
f 157//800 55//800 52//800
f 150//801 603//801 154//801
f 604//802 602//802 154//802
f 154//803 602//803 152//803
f 603//804 604//804 154//804
f 605//805 606//805 604//805
f 605//806 604//806 603//806
f 604//807 606//807 602//807
f 610//504 606//504 607//504
f 608//808 607//808 606//808
f 606//808 609//808 608//808
f 606//809 605//809 609//809
f 610//810 602//810 606//810
f 612//811 610//811 611//811
f 607//504 611//504 610//504
f 612//812 613//812 610//812
f 602//813 610//813 613//813
f 614//814 613//814 612//814
f 614//815 153//815 613//815
f 613//816 152//816 602//816
f 153//817 152//817 613//817
f 612//818 615//818 614//818
f 614//819 615//819 51//819
f 153//820 614//820 51//820
f 616//821 615//821 612//821
f 615//822 616//822 617//822
f 615//823 617//823 50//823
f 51//824 615//824 50//824
f 618//825 619//825 617//825
f 618//826 617//826 616//826
f 53//827 50//827 617//827
f 619//828 53//828 617//828
f 57//829 53//829 619//829
f 618//830 620//830 619//830
f 620//831 57//831 619//831
f 609//832 620//832 618//832
f 605//833 620//833 609//833
f 57//834 620//834 621//834
f 620//835 605//835 621//835
f 60//836 621//836 603//836
f 621//837 605//837 603//837
f 60//838 57//838 621//838
f 609//839 618//839 622//839
f 623//365 622//365 618//365
f 618//365 616//365 623//365
f 622//840 623//840 68//840
f 623//841 624//841 71//841
f 624//842 623//842 616//842
f 71//840 68//840 623//840
f 611//843 624//843 612//843
f 616//842 612//842 624//842
f 624//840 611//840 625//840
f 625//840 71//840 624//840
f 626//844 72//844 625//844
f 71//845 625//845 72//845
f 625//846 627//846 626//846
f 627//847 625//847 611//847
f 627//848 628//848 59//848
f 628//849 627//849 607//849
f 59//850 626//850 627//850
f 611//840 607//840 627//840
f 65//851 59//851 628//851
f 628//852 67//852 65//852
f 67//853 628//853 608//853
f 607//854 608//854 628//854
f 626//855 148//855 72//855
f 629//856 148//856 626//856
f 59//857 629//857 626//857
f 59//108 150//108 629//108
f 148//70 629//70 150//70
f 622//858 608//858 609//858
f 608//840 622//840 67//840
f 68//840 67//840 622//840
f 603//859 150//859 60//859
f 55//860 153//860 51//860
f 150//70 59//70 60//70
f 83//861 76//861 148//861
f 148//862 76//862 72//862
f 144//863 142//863 85//863
f 137//864 135//864 142//864
f 120//865 139//865 140//865
f 120//866 140//866 109//866
f 120//867 119//867 139//867
f 86//868 127//868 89//868
f 114//22 120//22 112//22
f 109//869 112//869 120//869
f 104//870 105//870 110//870
f 69//871 73//871 75//871
f 65//872 58//872 59//872
f 31//37 32//37 63//37
f 54//873 63//873 32//873
f 32//874 42//874 54//874
f 11//875 13//875 27//875
