# Blender 5.0.1
# www.blender.org
mtllib left_shoulder_z_link_visual_3.mtl
o i01.leftArm.rotate.full.004_visual.001
v 0.035290 0.202282 -0.567869
v -0.035256 0.195115 -0.566255
v 0.035290 0.195117 -0.566254
v -0.035256 0.202279 -0.567871
v 0.035290 0.231409 -0.607865
v 0.035290 0.209624 -0.568056
v 0.035288 0.275646 -0.597070
v 0.035288 0.235251 -0.555188
v 0.035289 0.216862 -0.566809
v 0.035289 0.223717 -0.564171
v -0.035258 0.275644 -0.597073
v -0.035262 0.375669 -0.555722
v 0.035289 0.229927 -0.560247
v -0.035256 0.231406 -0.607867
v 0.035284 0.375671 -0.555721
v 0.035287 0.244086 -0.535311
v 0.035278 0.483776 -0.476832
v 0.035288 0.242469 -0.542476
v 0.035288 0.239486 -0.549187
v 0.035287 0.243024 -0.520729
v 0.035287 0.244273 -0.527967
v -0.035259 0.244083 -0.535312
v -0.035259 0.244271 -0.527969
v -0.035259 0.243022 -0.520732
v -0.035268 0.483773 -0.476835
v 0.035287 0.240388 -0.513875
v -0.035259 0.240386 -0.513876
v -0.035259 0.236462 -0.507667
v 0.035287 0.236464 -0.507667
v 0.035287 0.231405 -0.502341
v -0.035259 0.231402 -0.502343
v 0.035287 0.225404 -0.498106
v 0.035287 0.218692 -0.495123
v -0.035259 0.225402 -0.498107
v -0.035259 0.218689 -0.495126
v -0.035259 0.211525 -0.493508
v -0.035242 0.360188 -0.358613
v 0.035288 0.211527 -0.493506
v -0.035261 0.224234 -0.406170
v -0.035242 0.351644 -0.356902
v -0.035242 0.344405 -0.352052
v -0.018700 0.360188 -0.358613
v -0.018700 0.351645 -0.356901
v -0.018709 0.341344 -0.386556
v -0.018700 0.344406 -0.352052
v -0.018708 0.323634 -0.374687
v -0.018708 0.311815 -0.356946
v -0.006136 0.341344 -0.386556
v -0.006136 0.323635 -0.374687
v -0.006136 0.337948 -0.394723
v -0.006135 0.317372 -0.380934
v -0.006136 0.311815 -0.356946
v -0.006135 0.303638 -0.360320
v -0.018709 0.308749 -0.344534
v -0.006136 0.308749 -0.344534
v -0.018708 0.300568 -0.340273
v -0.006136 0.300229 -0.340272
v -0.006136 0.298839 -0.336020
v 0.035216 0.303640 -0.360319
v -0.006137 0.303704 -0.311734
v -0.018708 0.299517 -0.336021
v 0.035216 0.298840 -0.336019
v -0.006136 0.300241 -0.331772
v -0.006136 0.308772 -0.327533
v -0.018709 0.300579 -0.331773
v -0.018709 0.308772 -0.327533
v -0.018700 0.337886 -0.336250
v -0.018700 0.339597 -0.327707
v -0.018709 0.311871 -0.315129
v -0.018710 0.323739 -0.297420
v -0.006137 0.311872 -0.315129
v -0.018700 0.344448 -0.320468
v -0.018701 0.351700 -0.315638
v -0.035242 0.344448 -0.320468
v -0.035243 0.351700 -0.315638
v -0.035267 0.266753 -0.207046
v -0.035243 0.360248 -0.313949
v -0.035275 0.400190 -0.078682
v -0.035243 0.368792 -0.315660
v -0.018701 0.360249 -0.313949
v -0.018712 0.362394 -0.281470
v -0.018701 0.368793 -0.315659
v -0.018702 0.376032 -0.320510
v -0.035243 0.376031 -0.320510
v -0.018712 0.383297 -0.285657
v -0.006139 0.362394 -0.281470
v -0.006140 0.383297 -0.285657
v -0.018713 0.401006 -0.297524
v -0.006140 0.401007 -0.297524
v -0.018702 0.380863 -0.327762
v -0.018713 0.412826 -0.315266
v -0.018701 0.382551 -0.336310
v -0.006140 0.412826 -0.315266
v -0.018712 0.416956 -0.336180
v -0.006140 0.416957 -0.336180
v -0.018712 0.412769 -0.357082
v -0.018701 0.380839 -0.344855
v -0.018711 0.400902 -0.374791
v -0.006139 0.412769 -0.357082
v -0.006138 0.400902 -0.374791
v -0.006139 0.420937 -0.360478
v -0.006140 0.425802 -0.336192
v 0.035211 0.421004 -0.311891
v -0.006141 0.421003 -0.311892
v 0.035212 0.425803 -0.336190
v 0.035212 0.432720 -0.336220
v 0.035212 0.433394 -0.339632
v 0.035212 0.435322 -0.342527
v 0.035211 0.433403 -0.332808
v 0.035211 0.435340 -0.329919
v 0.035213 0.420939 -0.360477
v 0.035212 0.441623 -0.345148
v 0.035212 0.438212 -0.344463
v 0.035213 0.407150 -0.381054
v -0.006138 0.407148 -0.381055
v 0.035211 0.445036 -0.344473
v -0.027007 0.445034 -0.344475
v -0.027007 0.441621 -0.345149
v 0.035211 0.447931 -0.342544
v 0.035211 0.449867 -0.339654
v -0.027007 0.447929 -0.342546
v -0.027007 0.449865 -0.339657
v -0.027007 0.450548 -0.336246
v 0.035211 0.450551 -0.336244
v 0.035211 0.449877 -0.332831
v -0.027007 0.449875 -0.332832
v 0.035211 0.447948 -0.329936
v 0.035271 0.400192 -0.078679
v 0.035211 0.407271 -0.291277
v 0.035212 0.386695 -0.277488
v -0.035274 0.359342 -0.062353
v 0.035272 0.359345 -0.062351
v 0.035268 0.430650 0.012502
v 0.035259 0.504801 0.290145
v 0.035264 0.369430 0.261989
v 0.035267 0.282862 0.262082
v 0.035269 0.389210 0.026920
v -0.035278 0.430648 0.012501
v -0.035282 0.369428 0.261988
v -0.035277 0.389208 0.026918
v -0.035279 0.282860 0.262081
v -0.035287 0.504799 0.290142
v -0.035288 0.507709 0.331617
v -0.035283 0.370723 0.303464
v 0.035263 0.370725 0.303466
v -0.035290 0.479144 0.432523
v -0.035280 0.282540 0.303559
v 0.035266 0.282543 0.303560
v 0.035266 0.232855 0.348442
v 0.035259 0.370302 0.451432
v 0.035256 0.479148 0.432525
v 0.035258 0.507711 0.331619
v 0.035256 0.469534 0.457690
v 0.035255 0.476218 0.495015
v 0.035254 0.510617 0.476307
v -0.035290 0.469530 0.457689
v -0.035291 0.476214 0.495014
v -0.035292 0.510614 0.476305
v -0.035287 0.370298 0.451428
v 0.035258 0.389053 0.472260
v 0.035257 0.395523 0.508737
v 0.035259 0.341649 0.514345
v -0.035287 0.341646 0.514344
v -0.035280 0.232853 0.348440
v -0.035289 0.395521 0.508736
v -0.035288 0.389050 0.472259
v -0.035279 0.212335 0.339688
v -0.035277 0.186283 0.303677
v -0.035276 0.152566 0.317397
v -0.035278 0.213870 0.312148
v 0.035270 0.152568 0.317399
v 0.035267 0.212337 0.339689
v 0.035268 0.213872 0.312149
v 0.035269 0.227709 0.267397
v -0.035278 0.227707 0.267395
v 0.035270 0.200414 0.258971
v 0.035270 0.198773 0.244109
v 0.035269 0.186285 0.303678
v -0.035277 0.200412 0.258970
v -0.035276 0.198770 0.244108
v 0.035276 0.177750 0.017459
v -0.035268 -0.076115 0.287089
v 0.035278 -0.076113 0.287091
v 0.035283 -0.209810 0.255842
v -0.035263 -0.273738 0.352694
v 0.035283 -0.273735 0.352696
v -0.035263 -0.303944 0.393609
v 0.035283 -0.303942 0.393611
v 0.035286 -0.340946 0.311205
v 0.035288 -0.333809 0.242783
v 0.035287 -0.333489 0.289638
v 0.035291 -0.389988 0.204824
v 0.035286 -0.305288 0.289502
v -0.035260 -0.305290 0.289500
v 0.035287 -0.305352 0.242612
v -0.035259 -0.305355 0.242609
v -0.035262 -0.154017 0.157005
v -0.035263 -0.209813 0.255840
v -0.035258 -0.333812 0.242782
v -0.035256 -0.389991 0.204823
v -0.018101 -0.389990 0.204823
v -0.035260 -0.340792 0.338862
v -0.035260 -0.407711 0.407745
v -0.015824 -0.154016 0.157006
v -0.035255 -0.506813 0.347592
v 0.035289 -0.507291 0.442323
v -0.035257 -0.507293 0.442322
v -0.035261 -0.407538 0.446859
v 0.035291 -0.506811 0.347595
v 0.019016 -0.389989 0.204824
v 0.035284 -0.154015 0.157007
v 0.001698 -0.154016 0.157006
v -0.035270 0.177748 0.017458
v -0.035269 0.199411 -0.037765
v 0.035279 0.266755 -0.207045
v 0.035277 0.199413 -0.037765
v 0.035216 0.279382 -0.329708
v 0.035216 0.282277 -0.327780
v 0.035214 0.317494 -0.291156
v 0.035215 0.303706 -0.311732
v 0.035212 0.362408 -0.272623
v 0.035213 0.338108 -0.277423
v 0.035217 0.277445 -0.332598
v 0.035285 0.224236 -0.406169
v 0.035217 0.279365 -0.342317
v 0.035216 0.317373 -0.380933
v 0.035285 0.217924 -0.415017
v 0.035217 0.277436 -0.339421
v 0.035217 0.276762 -0.336009
v 0.035217 0.282255 -0.344253
v 0.035216 0.337949 -0.394722
v 0.035215 0.362236 -0.399587
v 0.035215 0.386536 -0.394787
v -0.006137 0.362235 -0.399589
v -0.006137 0.386535 -0.394788
v -0.006137 0.362247 -0.390742
v -0.006138 0.383161 -0.386611
v -0.018709 0.362246 -0.390742
v -0.018700 0.368737 -0.356925
v -0.018710 0.383160 -0.386611
v -0.018701 0.375989 -0.352094
v -0.035242 0.368736 -0.356925
v -0.035243 0.375988 -0.352094
v -0.035243 0.380839 -0.344855
v -0.035243 0.382550 -0.336311
v -0.035243 0.380862 -0.327763
v 0.035217 0.285665 -0.344935
v -0.027027 0.279363 -0.342319
v -0.027027 0.282253 -0.344254
v -0.027027 0.285663 -0.344938
v -0.027028 0.285687 -0.327107
v -0.027028 0.293907 -0.339445
v -0.027028 0.291971 -0.342336
v -0.027027 0.289076 -0.344264
v 0.035216 0.293910 -0.339443
v 0.035216 0.294593 -0.336033
v -0.027028 0.293917 -0.332622
v -0.027028 0.294591 -0.336035
v 0.035216 0.293919 -0.332621
v 0.035216 0.291990 -0.329725
v 0.035216 0.289100 -0.327788
v -0.027028 0.291988 -0.329726
v -0.027028 0.289098 -0.327790
v 0.035216 0.285689 -0.327105
v 0.035216 0.291973 -0.342333
v 0.035216 0.289078 -0.344262
v -0.027027 0.279380 -0.329709
v -0.027028 0.282275 -0.327781
v -0.027027 0.277434 -0.339423
v -0.027027 0.276760 -0.336010
v -0.027027 0.277443 -0.332599
v -0.035261 0.217922 -0.415020
v 0.035286 0.211841 -0.418473
v 0.035286 0.201716 -0.420141
v -0.035260 0.211839 -0.418475
v 0.035288 0.204185 -0.493319
v -0.035258 0.204182 -0.493321
v 0.035288 0.196947 -0.494567
v -0.035258 0.196944 -0.494570
v 0.035287 0.191315 -0.424852
v 0.035288 0.190091 -0.497205
v 0.035287 0.170017 -0.435587
v 0.035289 0.183882 -0.501129
v -0.035258 0.190089 -0.497207
v -0.035260 0.201714 -0.420144
v -0.035257 0.183880 -0.501130
v -0.035260 0.191313 -0.424854
v -0.035259 0.170015 -0.435589
v -0.035257 0.138980 -0.479457
v -0.035257 0.178555 -0.506189
v 0.035289 0.178558 -0.506187
v -0.035257 0.174320 -0.512191
v 0.035289 0.174322 -0.512189
v 0.035290 0.138982 -0.479455
v 0.035290 0.171339 -0.518901
v 0.035291 0.130957 -0.542175
v 0.035290 0.169723 -0.526065
v -0.035255 0.130954 -0.542178
v 0.035292 0.150638 -0.588556
v 0.035290 0.170785 -0.540646
v 0.035290 0.169536 -0.533408
v -0.035256 0.169533 -0.533409
v -0.035256 0.169721 -0.526067
v -0.035257 0.171337 -0.518902
v -0.035256 0.170782 -0.540648
v 0.035290 0.173421 -0.547502
v -0.035256 0.173419 -0.547502
v -0.035254 0.150636 -0.588557
v -0.035255 0.187179 -0.607263
v 0.035291 0.187182 -0.607262
v 0.035290 0.177345 -0.553710
v 0.035290 0.182404 -0.559035
v 0.035290 0.188405 -0.563271
v -0.035256 0.188403 -0.563271
v -0.035256 0.182402 -0.559036
v -0.035256 0.177342 -0.553713
v -0.006139 0.338106 -0.277424
v -0.006140 0.362407 -0.272624
v -0.006140 0.386693 -0.277490
v -0.006141 0.407270 -0.291278
v -0.006138 0.317493 -0.291157
v -0.006139 0.341480 -0.285601
v -0.006138 0.323739 -0.297420
v -0.018711 0.341480 -0.285601
v 0.035286 -0.407703 0.407812
v 0.035285 -0.407543 0.447057
v 0.035285 -0.479242 0.546118
v 0.035283 -0.333453 0.446012
v 0.035282 -0.354174 0.526962
v 0.035278 -0.301224 0.588491
v 0.035281 -0.365715 0.552170
v -0.035265 -0.365720 0.552170
v 0.035282 -0.305089 0.432844
v -0.035264 -0.354178 0.526960
v -0.035264 -0.305091 0.432843
v -0.035261 -0.479245 0.546115
v -0.035263 -0.333436 0.446429
v -0.035268 -0.301226 0.588489
v -0.035266 -0.358851 0.589513
v 0.035280 -0.358846 0.589513
v -0.035262 -0.334071 0.405663
v 0.035284 -0.334139 0.405989
v -0.035263 -0.304859 0.413227
v -0.035261 -0.510617 0.607866
v -0.035262 -0.458207 0.566923
v 0.035284 -0.458204 0.566924
v 0.035283 -0.451561 0.603420
v 0.035285 -0.510614 0.607867
v -0.035263 -0.451563 0.603418
v -0.035260 -0.333409 0.289424
v 0.035211 0.445058 -0.327999
v -0.027007 0.445056 -0.328001
v -0.027007 0.447946 -0.329937
v 0.035211 0.441647 -0.327316
v -0.027007 0.441645 -0.327318
v 0.035211 0.438235 -0.327991
v -0.027007 0.438232 -0.327991
v -0.027007 0.435338 -0.329921
v -0.027007 0.433401 -0.332809
v -0.027006 0.435320 -0.342528
v -0.027006 0.432718 -0.336221
v -0.027006 0.433392 -0.339634
v -0.027006 0.438210 -0.344466
v -0.035242 0.339597 -0.327707
v -0.035242 0.337885 -0.336251
v -0.018700 0.339575 -0.344799
v -0.035242 0.339574 -0.344799
v -0.035258 0.242467 -0.542478
v -0.035258 0.239484 -0.549190
v -0.035258 0.235249 -0.555189
v -0.035257 0.229924 -0.560248
v -0.035257 0.223715 -0.564174
v -0.035257 0.216860 -0.566810
v -0.035257 0.209622 -0.568059
vn -0.0000 0.2201 0.9755
vn -0.0000 0.2200 0.9755
vn 1.0000 -0.0000 -0.0000
vn -0.0000 0.0254 0.9997
vn -0.0000 0.2371 -0.9715
vn -0.0000 0.3820 -0.9241
vn -0.0000 0.3820 -0.9242
vn -0.0000 0.5895 -0.8078
vn -0.0000 -0.9997 0.0255
vn -0.0000 -0.9854 -0.1700
vn -1.0000 -0.0000 -0.0000
vn -0.0000 -0.9333 -0.3590
vn -0.0000 -0.9334 -0.3589
vn -0.0000 -0.8453 -0.5343
vn -0.0000 -0.7250 -0.6888
vn -0.0000 -0.7249 -0.6888
vn -0.0000 -0.5766 -0.8170
vn -0.0000 -0.4061 -0.9138
vn -0.0000 -0.5767 -0.8169
vn 0.0001 -0.4059 -0.9139
vn -0.0000 -0.2202 -0.9755
vn -1.0000 -0.0000 0.0001
vn -1.0000 -0.0000 0.0002
vn -0.0000 -0.2201 -0.9755
vn -1.0000 0.0002 -0.0000
vn -0.0000 0.1964 0.9805
vn -1.0000 0.0001 0.0001
vn -0.0001 0.5566 0.8308
vn -0.0001 0.1965 0.9805
vn 1.0000 -0.0000 -0.0003
vn 1.0000 -0.0001 -0.0002
vn 1.0000 -0.0001 -0.0003
vn -0.0000 0.5566 0.8308
vn 1.0000 -0.0002 -0.0002
vn -0.0000 0.8322 0.5544
vn -0.0000 0.5567 0.8307
vn -0.0000 0.9708 0.2398
vn -0.0000 0.4619 0.8869
vn 0.0120 0.4473 0.8943
vn 0.0256 0.9502 0.3107
vn 1.0000 0.0002 -0.0000
vn -0.0000 0.9810 0.1938
vn -0.0000 0.9805 -0.1964
vn 0.0522 0.9695 0.2396
vn 0.0512 0.9484 -0.3129
vn 0.0121 0.4449 -0.8955
vn 0.0261 0.9698 -0.2425
vn 1.0000 -0.0000 0.0001
vn -0.0000 0.4596 -0.8881
vn 1.0000 -0.0003 -0.0000
vn 1.0000 -0.0003 0.0001
vn -0.0000 0.9702 -0.2424
vn 1.0000 -0.0002 0.0002
vn -0.0000 0.8307 -0.5567
vn 1.0000 -0.0001 0.0003
vn -0.0000 0.5544 -0.8323
vn -1.0000 -0.0000 -0.0002
vn -1.0000 0.0001 -0.0002
vn -0.0000 0.1938 -0.9810
vn -1.0000 -0.0001 -0.0001
vn -1.0000 0.0001 -0.0001
vn -0.0000 -0.1965 -0.9805
vn 1.0000 0.0001 0.0003
vn 1.0000 -0.0000 0.0003
vn 0.0001 -0.1964 -0.9805
vn 1.0000 0.0002 0.0003
vn -0.0000 -0.5566 -0.8308
vn 0.0001 -0.5566 -0.8308
vn -0.0000 -0.1964 -0.9805
vn -0.0000 -0.5567 -0.8307
vn -0.0000 -0.8322 -0.5544
vn 1.0000 0.0003 0.0002
vn 1.0000 0.0003 0.0001
vn -0.0000 -0.9810 -0.1938
vn 1.0000 0.0003 -0.0000
vn -0.0000 -0.9805 0.1964
vn 1.0000 0.0003 -0.0001
vn -0.0000 -0.8307 0.5567
vn -0.0000 -0.9811 -0.1938
vn 1.0000 0.0001 -0.0000
vn -0.0000 -0.1938 0.9810
vn -0.0000 -0.5545 0.8322
vn 1.0000 -0.0002 0.0004
vn 1.0000 -0.0003 0.0004
vn -0.0000 -0.1941 0.9810
vn 1.0000 -0.0004 0.0004
vn -0.0000 -0.5544 0.8323
vn 1.0000 0.0002 -0.0001
vn 1.0000 -0.0010 0.0002
vn 0.9999 -0.0114 -0.0022
vn -0.0000 -0.9811 -0.1937
vn -0.0000 -0.8323 -0.5544
vn 1.0000 -0.0005 -0.0003
vn 0.9998 -0.0177 -0.0037
vn 1.0000 -0.0003 -0.0003
vn 1.0000 -0.0002 -0.0003
vn -0.0000 0.3712 0.9286
vn -0.0000 -0.9485 0.3168
vn -0.0000 -0.3286 -0.9445
vn -0.0000 0.9996 -0.0274
vn -0.0000 0.9975 -0.0700
vn -0.0000 -0.9995 0.0312
vn -0.0000 -0.0011 -1.0000
vn -0.0000 1.0000 0.0077
vn 0.0001 -0.9342 -0.3569
vn -0.0000 0.1711 0.9852
vn 0.0001 -0.9843 0.1763
vn -0.0000 0.4778 0.8785
vn -0.0000 0.9998 -0.0201
vn -0.0000 0.7432 -0.6691
vn -0.0001 0.1711 0.9852
vn -0.0000 -0.8362 0.5484
vn -0.0000 0.1035 0.9946
vn -0.0000 0.9846 -0.1747
vn -0.0000 0.7432 -0.6690
vn -0.0000 -0.3923 0.9198
vn -0.0000 -0.3494 0.9370
vn -0.0000 -0.3924 0.9198
vn -0.0000 -0.2950 0.9555
vn -0.0000 -0.9554 -0.2954
vn -0.0000 0.9535 0.3013
vn -0.0000 0.2935 -0.9560
vn -0.0000 0.2936 -0.9559
vn -0.0000 -0.2949 0.9555
vn -0.0000 -0.1314 0.9913
vn -0.0000 0.3151 0.9491
vn -0.0000 0.8045 0.5939
vn 1.0000 -0.0001 0.0001
vn -0.0000 -0.0048 -1.0000
vn -0.0000 -1.0000 0.0014
vn -0.0000 0.0060 1.0000
vn -0.0000 0.0061 1.0000
vn 0.0001 -0.1986 -0.9801
vn 0.0001 -0.7739 -0.6333
vn -0.0000 -0.7739 -0.6333
vn -0.0000 -1.0000 -0.0051
vn -0.0000 -0.1986 -0.9801
vn -0.0000 -0.3877 -0.9218
vn -0.0000 -0.9309 -0.3652
vn 0.0001 -0.3877 -0.9218
vn -0.0000 -0.9292 -0.3696
vn -0.0000 -0.9780 0.2088
vn 1.0000 0.0004 -0.0005
vn 1.0000 0.0007 -0.0004
vn 1.0000 0.0005 -0.0003
vn 1.0000 0.0006 -0.0004
vn 1.0000 0.0002 -0.0007
vn 1.0000 0.0018 -0.0003
vn 1.0000 0.0005 0.0006
vn 1.0000 0.0006 0.0005
vn 1.0000 0.0006 0.0004
vn 1.0000 0.0005 0.0008
vn -0.0000 -0.8141 0.5808
vn 1.0000 0.0010 0.0002
vn 1.0000 0.0017 -0.0003
vn 1.0000 0.0006 -0.0000
vn 1.0000 0.0003 0.0013
vn 1.0000 -0.0000 0.0007
vn 1.0000 -0.0001 0.0007
vn -0.0001 0.1964 0.9805
vn 1.0000 0.0001 -0.0003
vn 1.0000 0.0002 -0.0002
vn -1.0000 -0.0002 0.0001
vn -1.0000 -0.0001 0.0001
vn -1.0000 -0.0002 -0.0000
vn -1.0000 -0.0004 -0.0001
vn -1.0000 -0.0002 -0.0001
vn 0.0001 -0.8322 -0.5544
vn -0.0000 -0.1937 0.9811
vn -0.0000 -0.5544 0.8322
vn 1.0000 -0.0003 0.0005
vn -0.0000 0.1963 0.9805
vn -0.0000 0.5564 0.8309
vn -0.0001 0.1968 0.9804
vn -0.0000 -0.8308 0.5566
vn -0.0000 -0.9805 0.1965
vn 1.0000 0.0002 0.0002
vn 1.0000 0.0001 0.0001
vn -0.0000 -0.1963 -0.9805
vn -0.0000 -0.5546 0.8321
vn -0.0000 -0.1936 0.9811
vn -0.0000 0.1936 -0.9811
vn -0.0000 0.9811 0.1938
vn -0.0000 0.8307 -0.5568
vn -0.0000 -0.8141 0.5807
vn -0.0000 -0.4940 0.8695
vn -0.0000 -0.1625 0.9867
vn -0.0000 -0.4939 0.8695
vn -0.0000 -0.0254 -0.9997
vn -0.0000 0.1698 -0.9855
vn -0.0000 0.1700 -0.9854
vn -0.0000 0.3591 -0.9333
vn -0.0000 0.5343 -0.8453
vn -0.0000 0.3590 -0.9333
vn -0.0000 0.5342 -0.8454
vn -0.0000 -0.4501 0.8930
vn -0.0000 -0.4125 0.9109
vn -0.0000 -0.8164 0.5775
vn -0.0000 0.6888 -0.7249
vn -0.0000 0.8170 -0.5766
vn -0.0000 0.9138 -0.4061
vn -0.0000 -0.9919 0.1269
vn 0.0001 -0.9205 -0.3906
vn -0.0000 0.9997 -0.0255
vn -0.0000 0.9854 0.1700
vn -0.0000 0.9755 -0.2201
vn -0.0000 0.9138 -0.4062
vn -0.0000 0.9333 0.3590
vn -0.0000 0.9333 0.3591
vn -0.0000 -0.4556 -0.8902
vn -0.0000 -0.9205 -0.3906
vn -0.0000 -0.0136 -0.9999
vn -0.0000 0.4061 0.9138
vn -0.0000 0.5766 0.8170
vn -0.0000 0.7249 0.6889
vn -0.0001 0.8454 0.5341
vn -0.0001 0.7250 0.6888
vn -0.0000 0.8453 0.5342
vn -0.0000 -0.0137 -0.9999
vn -0.0000 0.6888 -0.7250
vn -0.0000 -0.4126 0.9109
vn -0.0000 -0.1626 0.9867
vn -0.0000 0.5544 -0.8322
vn 0.0001 -0.5567 -0.8307
vn -0.0000 0.1937 -0.9811
vn -0.0000 0.5545 -0.8322
vn -0.0000 0.1938 -0.9811
vn 0.0001 1.0000 -0.0041
vn 0.0028 -0.0141 -0.9999
vn 0.0001 -0.9092 -0.4163
vn -0.0000 0.1514 0.9885
vn -0.0000 0.0178 0.9998
vn -0.0000 0.9997 -0.0248
vn 0.0001 -0.9835 0.1809
vn -0.0000 0.0177 0.9998
vn -0.0001 -0.9999 0.0156
vn -0.0059 -0.0058 -1.0000
vn -0.0046 0.0283 0.9996
vn -0.0010 -0.9999 0.0172
vn -0.0000 0.9989 0.0466
vn -0.0049 0.9996 0.0292
vn -0.0000 0.9999 0.0118
vn -0.0009 0.0248 0.9997
vn -0.0000 0.7032 -0.7110
vn -0.0000 0.9838 -0.1791
vn -0.0000 0.0751 0.9972
vn -0.0000 -0.9998 -0.0201
vn -0.0001 1.0000 -0.0044
vn -1.0000 -0.0001 -0.0000
vn 0.0030 0.0027 -1.0000
vn 0.0012 1.0000 -0.0068
vn -0.0000 1.0000 -0.0086
vn -0.0000 0.0011 1.0000
vn -0.0000 0.9483 -0.3173
vn -0.0000 -0.5568 -0.8307
vn -0.0000 0.5546 -0.8321
vn -0.0000 0.8306 -0.5568
vn -0.0000 0.9805 -0.1965
vn -0.0000 0.8323 0.5544
vn -0.0000 0.8322 0.5545
vn -0.0001 0.5570 0.8305
vn 1.0000 -0.0000 -0.0001
vn -1.0000 0.0002 -0.0001
vn 1.0000 -0.0003 -0.0001
vn -0.0000 -0.9755 0.2200
vn -0.0000 -0.9755 0.2201
vn -0.0000 -0.9138 0.4061
vn -0.0000 -0.9138 0.4062
vn -0.0000 -0.8170 0.5767
vn -0.0000 -0.6888 0.7249
vn -0.0000 -0.8171 0.5766
vn -0.0000 -0.5344 0.8453
vn -0.0000 -0.5342 0.8454
vn -0.0000 -0.3589 0.9334
vn -0.0000 -0.1701 0.9854
vn -0.0000 -0.3591 0.9333
vn -0.0000 -0.1698 0.9855
vn -0.0000 0.0256 0.9997
s 0
usemtl [Chris_Shoe_Sole]1.002
f 1//1 4//1 2//1
f 1//2 2//2 3//2
f 5//3 1//3 3//3
f 1//4 6//4 4//4
f 7//3 1//3 5//3
f 1//3 7//3 6//3
f 7//3 8//3 13//3
f 15//3 8//3 7//3
f 7//3 9//3 6//3
f 7//3 10//3 9//3
f 7//3 13//3 10//3
f 7//5 14//5 11//5
f 7//6 11//6 12//6
f 7//7 12//7 15//7
f 5//5 14//5 7//5
f 15//3 21//3 16//3
f 15//3 16//3 18//3
f 17//8 15//8 12//8
f 17//3 20//3 15//3
f 15//3 18//3 19//3
f 15//3 19//3 8//3
f 15//3 20//3 21//3
f 21//9 23//9 22//9
f 21//9 22//9 16//9
f 20//10 23//10 21//10
f 12//11 23//11 24//11
f 12//11 22//11 23//11
f 24//10 23//10 20//10
f 26//12 24//12 20//12
f 25//11 12//11 24//11
f 25//11 24//11 27//11
f 27//13 24//13 26//13
f 25//11 27//11 28//11
f 29//14 28//14 27//14
f 29//14 27//14 26//14
f 17//3 30//3 29//3
f 17//3 29//3 26//3
f 30//15 28//15 29//15
f 30//16 31//16 28//16
f 32//17 31//17 30//17
f 17//3 32//3 30//3
f 17//3 33//3 32//3
f 33//18 34//18 32//18
f 32//19 34//19 31//19
f 33//20 35//20 34//20
f 25//11 34//11 35//11
f 25//11 31//11 34//11
f 35//11 36//11 39//11
f 38//21 36//21 35//21
f 37//22 35//22 40//22
f 25//23 35//23 37//23
f 38//24 35//24 33//24
f 40//25 35//25 39//25
f 42//26 37//26 40//26
f 40//27 39//27 41//27
f 43//28 40//28 41//28
f 42//29 40//29 43//29
f 42//30 43//30 44//30
f 43//31 46//31 44//31
f 43//32 45//32 46//32
f 43//33 41//33 45//33
f 45//34 47//34 46//34
f 47//35 49//35 46//35
f 48//36 44//36 46//36
f 49//36 48//36 46//36
f 48//3 49//3 50//3
f 50//3 49//3 51//3
f 49//3 52//3 51//3
f 52//35 49//35 47//35
f 51//3 52//3 53//3
f 54//37 52//37 47//37
f 52//3 55//3 53//3
f 55//37 52//37 54//37
f 55//38 54//38 56//38
f 55//39 56//39 57//39
f 55//3 57//3 53//3
f 58//40 57//40 56//40
f 53//41 57//41 58//41
f 58//42 59//42 53//42
f 62//42 59//42 58//42
f 60//43 62//43 58//43
f 60//3 58//3 63//3
f 61//44 58//44 56//44
f 63//45 58//45 61//45
f 64//3 60//3 63//3
f 63//46 65//46 64//46
f 65//47 63//47 61//47
f 66//48 65//48 61//48
f 64//49 65//49 66//49
f 54//3 66//3 61//3
f 67//50 66//50 54//50
f 68//51 66//51 67//51
f 68//51 69//51 66//51
f 69//52 64//52 66//52
f 72//53 70//53 69//53
f 70//54 71//54 69//54
f 71//52 64//52 69//52
f 72//53 69//53 68//53
f 73//55 70//55 72//55
f 72//56 75//56 73//56
f 72//56 74//56 75//56
f 72//54 68//54 74//54
f 77//57 75//57 76//57
f 75//58 74//58 76//58
f 73//59 75//59 77//59
f 78//60 79//60 77//60
f 78//61 77//61 76//61
f 80//62 77//62 79//62
f 73//59 77//59 80//59
f 82//63 81//63 80//63
f 80//64 81//64 73//64
f 80//65 79//65 82//65
f 85//63 81//63 82//63
f 85//66 82//66 83//66
f 82//67 84//67 83//67
f 82//68 79//68 84//68
f 86//69 81//69 85//69
f 86//69 85//69 87//69
f 87//70 85//70 88//70
f 88//66 85//66 83//66
f 87//70 88//70 89//70
f 88//71 91//71 89//71
f 88//72 83//72 90//72
f 91//72 88//72 90//72
f 94//73 91//73 92//73
f 91//73 90//73 92//73
f 89//71 91//71 93//71
f 91//74 94//74 93//74
f 93//74 94//74 95//74
f 94//75 92//75 96//75
f 94//76 96//76 95//76
f 96//77 97//77 98//77
f 96//75 92//75 97//75
f 96//78 98//78 99//78
f 95//76 96//76 99//76
f 102//3 95//3 99//3
f 99//78 98//78 100//78
f 101//3 99//3 100//3
f 102//3 99//3 101//3
f 104//79 102//79 103//79
f 103//74 102//74 105//74
f 102//3 104//3 95//3
f 102//76 101//76 105//76
f 110//3 103//3 105//3
f 109//3 105//3 106//3
f 107//3 106//3 105//3
f 108//3 107//3 105//3
f 105//76 101//76 111//76
f 108//3 105//3 111//3
f 110//80 105//80 109//80
f 116//3 112//3 111//3
f 112//3 113//3 111//3
f 113//3 108//3 111//3
f 116//3 111//3 114//3
f 111//78 115//78 114//78
f 101//78 115//78 111//78
f 116//81 117//81 118//81
f 119//82 117//82 116//82
f 17//83 119//83 116//83
f 17//84 116//84 114//84
f 116//85 118//85 112//85
f 17//86 120//86 119//86
f 120//78 121//78 119//78
f 119//87 121//87 117//87
f 122//88 117//88 121//88
f 122//78 121//78 120//78
f 123//3 117//3 122//3
f 124//76 122//76 120//76
f 123//76 122//76 124//76
f 17//89 124//89 120//89
f 17//90 125//90 124//90
f 125//74 123//74 124//74
f 126//91 123//91 125//91
f 127//92 126//92 125//92
f 125//93 128//93 127//93
f 17//94 128//94 125//94
f 127//95 128//95 129//95
f 129//96 128//96 130//96
f 130//32 128//32 132//32
f 128//97 131//97 132//97
f 128//97 78//97 131//97
f 17//3 133//3 128//3
f 133//98 78//98 128//98
f 134//3 135//3 133//3
f 17//3 134//3 133//3
f 133//3 135//3 136//3
f 133//3 136//3 137//3
f 137//99 138//99 133//99
f 138//98 78//98 133//98
f 138//11 141//11 139//11
f 142//11 138//11 139//11
f 138//11 140//11 141//11
f 137//99 140//99 138//99
f 25//11 78//11 138//11
f 25//11 138//11 142//11
f 142//100 17//100 25//100
f 142//11 144//11 143//11
f 143//101 134//101 142//101
f 142//11 139//11 144//11
f 134//100 17//100 142//100
f 144//102 139//102 145//102
f 145//103 148//103 144//103
f 143//11 144//11 146//11
f 146//11 144//11 147//11
f 148//103 147//103 144//103
f 148//104 136//104 141//104
f 147//104 148//104 141//104
f 136//3 148//3 149//3
f 150//3 149//3 148//3
f 151//3 150//3 148//3
f 151//3 148//3 145//3
f 152//3 151//3 145//3
f 152//3 155//3 151//3
f 151//3 154//3 153//3
f 156//105 151//105 153//105
f 151//106 146//106 150//106
f 156//105 146//105 151//105
f 155//3 154//3 151//3
f 146//11 156//11 157//11
f 157//107 156//107 153//107
f 158//11 146//11 157//11
f 154//108 158//108 157//108
f 157//107 153//107 154//107
f 155//108 158//108 154//108
f 143//11 146//11 158//11
f 158//109 155//109 143//109
f 155//109 152//109 143//109
f 152//101 134//101 143//101
f 152//3 145//3 135//3
f 134//3 152//3 135//3
f 160//110 150//110 159//110
f 150//111 146//111 159//111
f 161//3 150//3 160//3
f 161//3 162//3 150//3
f 150//3 162//3 149//3
f 163//112 149//112 162//112
f 161//113 163//113 162//113
f 159//11 164//11 163//11
f 165//11 159//11 163//11
f 163//112 164//112 149//112
f 161//113 165//113 163//113
f 165//11 166//11 159//11
f 161//114 166//114 165//114
f 160//115 159//115 166//115
f 161//114 160//114 166//114
f 159//11 147//11 164//11
f 147//11 167//11 164//11
f 149//116 164//116 167//116
f 170//11 168//11 167//11
f 167//11 168//11 169//11
f 171//117 167//117 169//117
f 141//11 167//11 147//11
f 149//118 167//118 172//118
f 141//11 170//11 167//11
f 172//117 167//117 171//117
f 136//3 149//3 172//3
f 173//3 172//3 171//3
f 174//80 172//80 173//80
f 136//3 172//3 174//3
f 136//3 174//3 177//3
f 174//119 175//119 176//119
f 173//120 175//120 174//120
f 174//3 176//3 177//3
f 132//3 136//3 177//3
f 132//3 177//3 171//3
f 177//3 178//3 171//3
f 176//3 178//3 177//3
f 178//121 176//121 179//121
f 178//121 179//121 168//121
f 178//122 170//122 173//122
f 173//3 171//3 178//3
f 178//123 168//123 170//123
f 179//11 180//11 168//11
f 176//124 175//124 179//124
f 175//11 180//11 179//11
f 141//11 180//11 175//11
f 131//11 180//11 141//11
f 131//11 169//11 180//11
f 180//11 169//11 168//11
f 170//120 175//120 173//120
f 141//11 175//11 170//11
f 132//3 171//3 181//3
f 181//3 171//3 183//3
f 171//125 169//125 182//125
f 171//125 182//125 183//125
f 181//3 183//3 184//3
f 183//3 186//3 184//3
f 183//126 182//126 185//126
f 183//126 185//126 186//126
f 187//127 186//127 185//127
f 187//127 188//127 186//127
f 186//3 188//3 189//3
f 184//3 186//3 189//3
f 188//128 192//128 189//128
f 190//3 191//3 189//3
f 190//3 189//3 192//3
f 193//3 189//3 191//3
f 184//3 189//3 193//3
f 191//129 194//129 193//129
f 194//130 196//130 193//130
f 193//130 196//130 195//130
f 184//3 193//3 195//3
f 197//11 196//11 198//11
f 197//11 200//11 196//11
f 195//131 196//131 190//131
f 198//11 196//11 194//11
f 190//132 196//132 199//132
f 196//11 200//11 199//11
f 204//133 201//133 200//133
f 201//134 205//134 200//134
f 199//11 200//11 202//11
f 202//11 200//11 203//11
f 200//11 205//11 203//11
f 204//133 200//133 197//133
f 210//135 205//135 201//135
f 207//136 205//136 206//136
f 206//136 205//136 209//136
f 208//11 205//11 207//11
f 203//11 205//11 208//11
f 209//134 205//134 210//134
f 209//135 210//135 192//135
f 192//137 210//137 211//137
f 211//137 210//137 212//137
f 210//137 201//137 212//137
f 181//138 212//138 213//138
f 211//138 212//138 181//138
f 212//137 201//137 204//137
f 212//138 204//138 213//138
f 213//11 198//11 169//11
f 213//11 197//11 198//11
f 131//11 214//11 213//11
f 213//139 214//139 181//139
f 131//11 213//11 169//11
f 204//140 197//140 213//140
f 131//11 76//11 214//11
f 214//141 76//141 215//141
f 214//141 215//141 216//141
f 181//139 214//139 216//139
f 132//3 216//3 215//3
f 132//3 181//3 216//3
f 215//142 39//142 224//142
f 76//142 39//142 215//142
f 218//143 215//143 217//143
f 217//144 215//144 223//144
f 221//145 132//145 215//145
f 220//143 215//143 218//143
f 219//146 215//146 220//146
f 222//143 215//143 219//143
f 221//147 215//147 222//147
f 223//148 215//148 224//148
f 230//149 225//149 224//149
f 225//150 228//150 224//150
f 59//149 230//149 224//149
f 226//151 59//151 224//151
f 231//152 226//152 224//152
f 39//153 227//153 224//153
f 33//3 224//3 227//3
f 228//154 229//154 224//154
f 223//155 224//155 229//155
f 231//156 224//156 33//156
f 17//157 232//157 231//157
f 17//158 231//158 33//158
f 231//36 50//36 51//36
f 231//36 51//36 226//36
f 232//26 50//26 231//26
f 17//159 233//159 232//159
f 233//81 234//81 232//81
f 232//160 234//160 50//160
f 233//81 235//81 234//81
f 235//3 236//3 234//3
f 234//3 48//3 50//3
f 234//3 236//3 48//3
f 236//26 44//26 48//26
f 235//3 237//3 236//3
f 237//81 238//81 236//81
f 236//26 238//26 44//26
f 240//161 239//161 238//161
f 239//161 42//161 238//161
f 238//30 42//30 44//30
f 237//81 240//81 238//81
f 100//82 240//82 237//82
f 98//162 241//162 240//162
f 240//162 241//162 239//162
f 100//82 98//82 240//82
f 241//82 242//82 239//82
f 241//82 243//82 242//82
f 98//77 97//77 241//77
f 97//78 243//78 241//78
f 244//78 243//78 97//78
f 25//163 243//163 244//163
f 25//164 242//164 243//164
f 245//76 244//76 97//76
f 25//165 244//165 245//165
f 90//91 245//91 92//91
f 245//76 97//76 92//76
f 25//166 245//166 246//166
f 246//91 245//91 90//91
f 246//167 84//167 78//167
f 84//92 246//92 83//92
f 83//168 246//168 90//168
f 25//166 246//166 78//166
f 239//169 242//169 37//169
f 25//164 37//164 242//164
f 239//169 37//169 42//169
f 115//3 100//3 237//3
f 115//3 237//3 235//3
f 114//170 115//170 235//170
f 114//170 235//170 233//170
f 17//171 114//171 233//171
f 230//33 248//33 225//33
f 59//3 247//3 230//3
f 230//172 247//172 249//172
f 230//173 249//173 248//173
f 247//174 250//174 249//174
f 252//48 249//48 250//48
f 252//3 251//3 249//3
f 251//3 248//3 249//3
f 252//80 257//80 251//80
f 252//3 254//3 253//3
f 252//175 253//175 255//175
f 252//3 250//3 254//3
f 256//176 252//176 255//176
f 258//176 252//176 256//176
f 258//41 257//41 252//41
f 259//74 258//74 256//74
f 257//79 258//79 259//79
f 62//177 260//177 259//177
f 62//80 259//80 256//80
f 260//92 257//92 259//92
f 220//3 260//3 62//3
f 262//92 257//92 260//92
f 220//80 261//80 260//80
f 261//70 262//70 260//70
f 257//3 262//3 263//3
f 261//67 263//67 262//67
f 257//178 263//178 251//178
f 264//179 251//179 263//179
f 264//179 263//179 261//179
f 220//3 218//3 264//3
f 218//59 251//59 264//59
f 220//3 264//3 261//3
f 62//80 256//80 255//80
f 255//78 253//78 265//78
f 62//80 255//80 265//80
f 265//87 253//87 254//87
f 265//180 254//180 266//180
f 59//3 265//3 266//3
f 59//3 62//3 265//3
f 266//81 254//81 250//81
f 266//181 250//181 247//181
f 59//3 266//3 247//3
f 251//3 267//3 269//3
f 251//3 268//3 267//3
f 218//182 268//182 251//182
f 251//80 269//80 248//80
f 267//80 270//80 269//80
f 270//183 228//183 269//183
f 269//35 228//35 225//35
f 269//35 225//35 248//35
f 229//42 228//42 270//42
f 267//3 271//3 270//3
f 271//43 229//43 270//43
f 267//54 223//54 271//54
f 271//43 223//43 229//43
f 217//56 267//56 268//56
f 217//56 268//56 218//56
f 217//184 223//184 267//184
f 39//185 272//185 227//185
f 227//186 272//186 273//186
f 38//3 227//3 273//3
f 33//3 227//3 38//3
f 276//3 273//3 274//3
f 273//187 275//187 274//187
f 273//188 272//188 275//188
f 38//3 273//3 276//3
f 276//189 36//189 38//189
f 276//189 277//189 36//189
f 278//190 277//190 276//190
f 276//3 274//3 278//3
f 278//191 279//191 277//191
f 281//192 279//192 278//192
f 278//3 274//3 280//3
f 278//3 280//3 281//3
f 281//3 280//3 282//3
f 281//3 282//3 283//3
f 283//193 284//193 281//193
f 281//194 284//194 279//194
f 285//11 284//11 287//11
f 279//11 284//11 285//11
f 283//195 286//195 284//195
f 284//11 286//11 287//11
f 286//11 288//11 287//11
f 282//196 287//196 288//196
f 280//196 287//196 282//196
f 280//197 285//197 287//197
f 286//11 290//11 288//11
f 290//11 289//11 288//11
f 288//198 289//198 282//198
f 290//11 292//11 289//11
f 286//199 291//199 290//199
f 291//200 293//200 290//200
f 290//200 293//200 292//200
f 293//3 294//3 296//3
f 291//3 294//3 293//3
f 293//3 296//3 295//3
f 293//201 295//201 292//201
f 301//3 297//3 296//3
f 295//3 296//3 297//3
f 289//202 296//202 294//202
f 289//202 298//202 296//202
f 296//203 298//203 299//203
f 300//3 296//3 299//3
f 300//3 301//3 296//3
f 303//204 301//204 302//204
f 301//205 300//205 302//205
f 297//204 301//204 303//204
f 304//11 303//11 298//11
f 304//206 297//206 303//206
f 302//11 298//11 303//11
f 292//11 304//11 298//11
f 292//207 295//207 304//207
f 295//206 297//206 304//206
f 305//11 298//11 302//11
f 302//205 300//205 305//205
f 300//208 306//208 305//208
f 305//209 306//209 307//209
f 307//11 308//11 305//11
f 305//11 308//11 298//11
f 299//210 308//210 310//210
f 298//211 308//211 299//211
f 309//11 308//11 307//11
f 310//210 308//210 309//210
f 310//212 309//212 5//212
f 310//3 312//3 311//3
f 310//80 311//80 306//80
f 310//3 313//3 312//3
f 310//3 306//3 299//3
f 5//3 3//3 310//3
f 3//3 313//3 310//3
f 3//213 314//213 313//213
f 313//214 315//214 312//214
f 313//214 314//214 315//214
f 309//11 315//11 314//11
f 309//11 316//11 315//11
f 312//215 315//215 316//215
f 309//11 307//11 316//11
f 307//216 311//216 316//216
f 312//217 316//217 311//217
f 2//11 309//11 314//11
f 3//213 2//213 314//213
f 306//218 311//218 307//218
f 14//11 309//11 2//11
f 5//219 309//219 14//219
f 306//3 300//3 299//3
f 292//11 298//11 289//11
f 283//3 282//3 294//3
f 282//198 289//198 294//198
f 283//3 294//3 291//3
f 283//220 291//220 286//220
f 275//11 279//11 285//11
f 274//221 285//221 280//221
f 274//222 275//222 285//222
f 277//11 279//11 275//11
f 36//11 277//11 272//11
f 272//11 277//11 275//11
f 39//11 36//11 272//11
f 53//35 226//35 51//35
f 53//35 59//35 226//35
f 222//59 318//59 221//59
f 219//223 317//223 222//223
f 222//59 317//59 318//59
f 221//69 318//69 319//69
f 87//3 318//3 86//3
f 86//3 318//3 317//3
f 319//3 318//3 87//3
f 221//65 319//65 130//65
f 89//3 319//3 87//3
f 320//3 319//3 89//3
f 130//224 319//224 320//224
f 93//3 320//3 89//3
f 104//3 320//3 93//3
f 130//70 320//70 129//70
f 129//71 320//71 104//71
f 219//223 321//223 317//223
f 86//3 317//3 322//3
f 322//3 317//3 321//3
f 322//3 321//3 323//3
f 322//225 81//225 86//225
f 323//226 324//226 322//226
f 322//227 324//227 81//227
f 81//64 324//64 73//64
f 73//55 324//55 70//55
f 323//226 70//226 324//226
f 323//3 60//3 71//3
f 323//54 71//54 70//54
f 323//3 321//3 60//3
f 321//54 220//54 60//54
f 321//54 219//54 220//54
f 130//30 132//30 221//30
f 220//43 62//43 60//43
f 181//3 184//3 211//3
f 211//3 195//3 192//3
f 211//3 184//3 195//3
f 326//3 206//3 209//3
f 192//3 325//3 209//3
f 325//3 326//3 209//3
f 326//3 327//3 206//3
f 329//3 327//3 326//3
f 326//228 325//228 208//228
f 326//229 208//229 328//229
f 328//3 329//3 326//3
f 333//3 330//3 329//3
f 330//3 331//3 329//3
f 332//230 329//230 331//230
f 332//230 334//230 329//230
f 333//3 329//3 328//3
f 329//231 334//231 327//231
f 335//11 337//11 334//11
f 335//11 334//11 338//11
f 334//11 208//11 336//11
f 327//231 334//231 336//231
f 338//11 334//11 332//11
f 337//11 208//11 334//11
f 330//232 338//232 339//232
f 330//233 335//233 338//233
f 338//11 332//11 339//11
f 339//234 331//234 340//234
f 339//234 332//234 331//234
f 330//235 339//235 340//235
f 330//3 340//3 331//3
f 335//11 341//11 337//11
f 337//236 341//236 328//236
f 328//237 208//237 337//237
f 187//11 341//11 343//11
f 187//11 202//11 341//11
f 343//11 341//11 335//11
f 342//238 341//238 203//238
f 202//11 203//11 341//11
f 328//239 341//239 342//239
f 343//240 188//240 187//240
f 333//241 188//241 343//241
f 333//242 343//242 335//242
f 188//3 328//3 342//3
f 342//243 203//243 325//243
f 342//3 325//3 192//3
f 188//3 342//3 192//3
f 336//11 207//11 344//11
f 345//11 336//11 344//11
f 346//244 336//244 345//244
f 346//244 327//244 336//244
f 208//11 207//11 336//11
f 346//3 348//3 327//3
f 347//245 346//245 345//245
f 347//3 348//3 346//3
f 347//246 349//246 348//246
f 348//246 349//246 344//246
f 344//247 207//247 348//247
f 327//3 348//3 206//3
f 348//247 207//247 206//247
f 349//11 345//11 344//11
f 349//245 347//245 345//245
f 330//233 333//233 335//233
f 188//3 333//3 328//3
f 208//248 325//248 203//248
f 182//11 202//11 185//11
f 185//11 202//11 187//11
f 198//11 194//11 202//11
f 182//11 198//11 202//11
f 199//249 202//249 350//249
f 194//11 350//11 202//11
f 191//250 350//250 194//250
f 191//251 190//251 350//251
f 350//252 190//252 199//252
f 169//11 198//11 182//11
f 195//3 190//3 192//3
f 146//11 147//11 159//11
f 145//102 139//102 135//102
f 140//11 131//11 141//11
f 136//253 139//253 141//253
f 137//254 132//254 140//254
f 140//254 132//254 131//254
f 135//253 139//253 136//253
f 137//3 136//3 132//3
f 78//11 76//11 131//11
f 351//3 129//3 103//3
f 129//71 104//71 103//71
f 127//178 129//178 351//178
f 351//255 353//255 127//255
f 351//67 352//67 353//67
f 354//179 352//179 351//179
f 351//3 103//3 354//3
f 354//3 103//3 356//3
f 354//179 355//179 352//179
f 356//59 355//59 354//59
f 356//182 357//182 355//182
f 356//178 103//178 110//178
f 110//56 357//56 356//56
f 355//3 357//3 358//3
f 110//256 358//256 357//256
f 358//257 109//257 359//257
f 110//54 109//54 358//54
f 352//3 358//3 359//3
f 352//3 355//3 358//3
f 359//258 106//258 361//258
f 109//43 106//43 359//43
f 352//3 359//3 360//3
f 360//80 359//80 362//80
f 362//41 359//41 361//41
f 361//42 107//42 362//42
f 107//259 108//259 362//259
f 362//260 108//260 360//260
f 106//42 107//42 361//42
f 123//3 352//3 360//3
f 118//178 360//178 363//178
f 113//261 363//261 360//261
f 123//3 360//3 117//3
f 113//33 360//33 108//33
f 117//262 360//262 118//262
f 112//172 118//172 363//172
f 112//174 363//174 113//174
f 123//3 353//3 352//3
f 123//80 126//80 353//80
f 353//71 126//71 127//71
f 101//3 100//3 115//3
f 104//3 93//3 95//3
f 84//60 79//60 78//60
f 364//263 39//263 76//263
f 74//61 364//61 76//61
f 364//263 365//263 39//263
f 74//54 68//54 364//54
f 68//43 67//43 364//43
f 364//43 67//43 365//43
f 365//42 67//42 366//42
f 365//42 366//42 367//42
f 367//25 39//25 365//25
f 41//27 39//27 367//27
f 367//259 45//259 41//259
f 366//259 45//259 367//259
f 45//34 366//34 47//34
f 366//264 54//264 47//264
f 366//50 67//50 54//50
f 71//3 60//3 64//3
f 54//80 61//80 56//80
f 25//11 28//11 31//11
f 17//3 26//3 20//3
f 17//8 12//8 25//8
f 12//11 368//11 22//11
f 22//265 368//265 16//265
f 16//266 368//266 18//266
f 368//267 369//267 18//267
f 12//11 369//11 368//11
f 18//268 369//268 19//268
f 12//11 11//11 369//11
f 11//11 370//11 369//11
f 19//269 369//269 370//269
f 11//11 371//11 370//11
f 8//270 370//270 371//270
f 19//271 370//271 8//271
f 13//272 371//272 372//272
f 8//270 371//270 13//270
f 11//11 372//11 371//11
f 11//11 373//11 372//11
f 13//273 372//273 10//273
f 10//274 372//274 373//274
f 9//275 373//275 374//275
f 10//276 373//276 9//276
f 11//11 374//11 373//11
f 11//11 4//11 374//11
f 9//277 374//277 6//277
f 6//278 374//278 4//278
f 11//11 14//11 4//11
f 14//11 2//11 4//11
