# Blender 5.0.1
# www.blender.org
mtllib left_elbow_x_link_visual_8.mtl
o i01.left.bicep.full.009_visual.001
v -0.013660 -0.038202 0.011684
v 0.013659 0.005490 0.008812
v -0.013660 0.005490 0.008812
v 0.013659 -0.038202 0.011684
v -0.013660 -0.039438 -0.007116
v 0.013659 -0.039438 -0.007116
v -0.013659 0.039380 -0.011683
v 0.013659 0.039438 -0.010990
vn -0.0000 0.0656 0.9978
vn -1.0000 -0.0000 -0.0000
vn -0.0000 -0.9978 0.0656
vn 0.0254 -0.0490 -0.9985
vn -0.0000 -0.0578 -0.9983
vn 1.0000 -0.0000 -0.0000
vn -0.0228 0.5174 0.8555
vn -0.0000 0.5039 0.8638
s 0
usemtl Material.021
f 2//1 3//1 1//1
f 1//1 4//1 2//1
f 3//2 5//2 1//2
f 6//3 4//3 1//3
f 1//3 5//3 6//3
f 7//4 8//4 6//4
f 6//5 5//5 7//5
f 4//6 6//6 2//6
f 2//6 6//6 8//6
f 8//7 7//7 3//7
f 3//8 2//8 8//8
f 3//2 7//2 5//2
