# Blender 5.0.1
# www.blender.org
mtllib left_elbow_x_link_visual_11.mtl
o i01.left.bicep.full.012_visual.001
v 0.079731 0.024539 -0.018607
v 0.038213 0.073252 -0.021810
v 0.000044 0.082078 -0.022390
v -0.022853 -0.081478 -0.011636
v 0.016309 0.080479 -0.022285
v 0.025751 -0.080628 -0.011691
v 0.000044 -0.084303 -0.011450
v 0.069364 0.047330 0.013881
v -0.025662 0.078403 -0.022149
v 0.046362 -0.070283 -0.012372
v -0.054200 0.062534 -0.021105
v 0.074569 -0.039199 -0.014415
v -0.076979 0.030723 -0.019013
v 0.058996 -0.059937 -0.013052
v 0.080584 0.023960 0.015418
v -0.069275 0.045106 -0.019959
v 0.081813 -0.017342 -0.015854
v 0.083415 -0.001113 -0.016921
v -0.081724 -0.017342 -0.015854
v -0.083414 0.005617 -0.017364
v -0.063738 -0.055241 -0.013360
v 0.058996 0.057712 -0.020788
v -0.076979 -0.032948 -0.014827
v 0.069364 0.045106 -0.019959
v -0.046273 -0.070283 -0.012372
v -0.046273 -0.068058 0.021468
v -0.031860 -0.075746 0.021974
v -0.016220 -0.080479 0.022285
v 0.000045 0.084303 0.011450
v 0.022941 -0.079253 0.022205
v -0.022852 0.081478 0.011636
v 0.046362 -0.068058 0.021468
v -0.051929 0.066618 0.012613
v 0.058996 0.059937 0.013052
v 0.040804 0.074095 0.012122
v 0.016309 0.082704 0.011555
v 0.083415 0.001112 0.016920
v -0.083414 -0.005617 0.017363
v -0.076979 -0.030723 0.019013
v -0.065601 -0.050751 0.020330
v 0.058996 -0.057712 0.020788
v 0.069364 -0.045106 0.019959
v -0.073095 0.041785 0.014246
v 0.079731 -0.024540 0.018607
v -0.081724 0.017343 0.015853
v 0.000044 -0.082078 0.022390
vn -0.0000 -0.0656 -0.9978
vn 0.9018 0.4319 -0.0152
vn 0.8934 0.4484 -0.0295
vn -0.0003 -0.0656 -0.9978
vn 0.0001 -0.0656 -0.9978
vn 0.9898 0.1407 -0.0224
vn -0.0001 -0.0656 -0.9978
vn -0.0000 -0.0657 -0.9978
vn -0.6534 -0.7554 0.0497
vn -0.4714 -0.8800 0.0579
vn -0.4319 -0.9011 0.0379
vn -0.2902 -0.9532 0.0848
vn -0.0000 0.0656 0.9978
vn -0.1227 0.9903 -0.0651
vn 0.0980 0.9930 -0.0653
vn -0.0001 0.0654 0.9979
vn -0.0000 0.0659 0.9978
vn 0.1227 -0.9903 0.0651
vn -0.0980 -0.9940 0.0484
vn -0.1227 -0.9903 0.0651
vn -0.9969 0.0750 0.0243
vn -0.9686 0.2458 -0.0375
vn -0.9430 0.3328 -0.0006
vn 0.8930 -0.4463 0.0585
vn 0.9490 -0.3151 -0.0085
vn 0.9897 -0.1401 0.0305
vn -0.7617 0.6474 -0.0271
vn -0.7568 0.6533 -0.0211
vn -0.8817 0.4688 -0.0530
vn 0.7730 -0.6330 0.0416
vn 0.8001 -0.5996 0.0181
vn 0.6344 -0.7713 0.0507
vn -0.6678 -0.7417 0.0619
vn -0.8602 -0.5096 0.0203
vn -0.8699 -0.4921 0.0324
vn -0.9686 -0.2458 0.0375
vn -0.9569 -0.2897 0.0190
vn -0.9969 -0.0750 -0.0243
vn 0.9924 0.1224 -0.0081
vn 0.9952 -0.0978 0.0064
vn 0.3322 0.9419 -0.0488
vn 0.3140 0.9474 -0.0623
vn 0.6150 0.7868 -0.0517
vn 0.5996 0.7976 -0.0656
vn 0.7730 0.6330 -0.0416
vn -0.4867 0.8705 -0.0727
vn -0.4558 0.8890 -0.0430
vn 0.4493 -0.8914 0.0586
vn 0.4320 -0.8990 0.0723
vn -0.1418 0.9868 -0.0780
vn 0.1418 -0.9885 0.0518
s 0
usemtl Material.021
f 1//1 5//1 2//1
f 1//1 2//1 22//1
f 1//1 9//1 3//1
f 1//1 3//1 5//1
f 1//1 7//1 4//1
f 1//1 4//1 25//1
f 1//1 10//1 6//1
f 1//1 6//1 7//1
f 8//2 15//2 1//2
f 1//3 24//3 8//3
f 1//1 11//1 9//1
f 1//1 14//1 10//1
f 1//1 16//1 11//1
f 1//4 17//4 12//4
f 1//5 12//5 14//5
f 1//1 20//1 13//1
f 1//1 13//1 16//1
f 18//6 1//6 15//6
f 1//7 18//7 17//7
f 1//8 23//8 19//8
f 1//1 19//1 20//1
f 1//1 25//1 21//1
f 1//1 21//1 23//1
f 1//1 22//1 24//1
f 21//9 25//9 26//9
f 27//10 26//10 25//10
f 25//11 4//11 27//11
f 28//12 27//12 4//12
f 29//13 27//13 28//13
f 29//13 26//13 27//13
f 29//13 30//13 32//13
f 29//13 46//13 30//13
f 31//14 29//14 3//14
f 29//13 31//13 33//13
f 29//13 32//13 41//13
f 29//13 33//13 43//13
f 29//15 36//15 5//15
f 5//15 3//15 29//15
f 29//16 34//16 35//16
f 29//13 8//13 34//13
f 29//13 40//13 26//13
f 29//17 35//17 36//17
f 29//13 28//13 46//13
f 29//13 37//13 15//13
f 29//13 44//13 37//13
f 29//13 15//13 8//13
f 29//13 45//13 38//13
f 29//13 38//13 39//13
f 29//13 39//13 40//13
f 29//13 41//13 42//13
f 29//13 42//13 44//13
f 29//13 43//13 45//13
f 30//18 46//18 7//18
f 46//19 28//19 4//19
f 4//20 7//20 46//20
f 38//21 45//21 20//21
f 13//22 20//22 45//22
f 45//23 43//23 13//23
f 44//24 42//24 12//24
f 12//25 17//25 44//25
f 37//26 44//26 17//26
f 43//27 33//27 11//27
f 11//28 16//28 43//28
f 16//29 13//29 43//29
f 42//30 41//30 14//30
f 14//31 12//31 42//31
f 41//32 32//32 10//32
f 10//32 14//32 41//32
f 26//33 40//33 21//33
f 23//34 21//34 40//34
f 40//35 39//35 23//35
f 39//36 38//36 19//36
f 19//37 23//37 39//37
f 20//38 19//38 38//38
f 15//39 37//39 18//39
f 17//40 18//40 37//40
f 36//41 35//41 2//41
f 2//42 5//42 36//42
f 35//43 34//43 22//43
f 22//44 2//44 35//44
f 34//45 8//45 24//45
f 24//45 22//45 34//45
f 9//46 11//46 33//46
f 33//47 31//47 9//47
f 6//48 10//48 32//48
f 32//49 30//49 6//49
f 3//50 9//50 31//50
f 7//51 6//51 30//51
