# Blender 5.0.1
# www.blender.org
mtllib NewHead_origin_visual_0.mtl
o EarLockV1_visual.001
v -0.031695 -0.152639 0.402300
v -0.031516 -0.159720 0.408240
v -0.031373 -0.167823 0.412685
v -0.031271 -0.176639 0.415463
v -0.031214 -0.185827 0.416469
v -0.031205 -0.195035 0.415664
v -0.031243 -0.203910 0.413078
v -0.031328 -0.212109 0.408811
v -0.031456 -0.219318 0.403028
v -0.031622 -0.225261 0.395949
v -0.031820 -0.229707 0.387848
v -0.032041 -0.232488 0.379035
v -0.032279 -0.233495 0.369850
v -0.032523 -0.232690 0.360645
v -0.032764 -0.230104 0.351774
v -0.032993 -0.225837 0.343577
v -0.033201 -0.220052 0.336371
v -0.033380 -0.212971 0.330431
v -0.033524 -0.204868 0.325987
v -0.033626 -0.196052 0.323208
v -0.033682 -0.186864 0.322202
v -0.033692 -0.177656 0.323008
v -0.033653 -0.168781 0.325593
v -0.033568 -0.160582 0.329860
v -0.033441 -0.153372 0.335644
v -0.033275 -0.147430 0.342722
v -0.033077 -0.142984 0.350823
v -0.032855 -0.140203 0.359636
v -0.032618 -0.139196 0.368822
v -0.032373 -0.140001 0.378027
v -0.032132 -0.142587 0.386898
v -0.031903 -0.146854 0.395094
v -0.033732 0.241776 0.178464
v -0.033733 0.234704 0.184416
v -0.033736 0.226607 0.188875
v -0.033740 0.217796 0.191667
v -0.033746 0.208608 0.192687
v -0.033752 0.199399 0.191896
v -0.033759 0.190521 0.189322
v -0.033767 0.182315 0.185067
v -0.033775 0.175098 0.179292
v -0.033783 0.169146 0.172220
v -0.033791 0.164687 0.164122
v -0.033798 0.161895 0.155311
v -0.033804 0.160874 0.146124
v -0.033808 0.161666 0.136914
v -0.033812 0.164239 0.128036
v -0.033813 0.168495 0.119831
v -0.033814 0.174270 0.112613
v -0.033812 0.181342 0.106661
v -0.033810 0.189440 0.102203
v -0.033805 0.198251 0.099410
v -0.033800 0.207438 0.098390
v -0.033793 0.216648 0.099182
v -0.033786 0.225526 0.101755
v -0.033778 0.233731 0.106011
v -0.033770 0.240949 0.111786
v -0.033762 0.246901 0.118858
v -0.033754 0.251359 0.126955
v -0.033747 0.254152 0.135767
v -0.033742 0.255172 0.144954
v -0.033737 0.254380 0.154163
v -0.033734 0.251807 0.163041
v -0.033732 0.247551 0.171247
v -0.031290 0.074586 -0.265624
v -0.031254 0.067518 -0.259667
v -0.031242 0.059424 -0.255203
v -0.031254 0.050615 -0.252403
v -0.031289 0.041429 -0.251376
v -0.031346 0.032219 -0.252161
v -0.031423 0.023339 -0.254727
v -0.031517 0.015131 -0.258977
v -0.031624 0.007909 -0.264746
v -0.031739 0.001952 -0.271812
v -0.031860 -0.002512 -0.279906
v -0.031981 -0.005311 -0.288715
v -0.032097 -0.006337 -0.297900
v -0.032204 -0.005552 -0.307110
v -0.032298 -0.002985 -0.315989
v -0.032375 0.001265 -0.324197
v -0.032432 0.007035 -0.331419
v -0.032467 0.014103 -0.337376
v -0.032479 0.022197 -0.341840
v -0.032468 0.031006 -0.344639
v -0.032433 0.040192 -0.345666
v -0.032376 0.049402 -0.344882
v -0.032299 0.058282 -0.342315
v -0.032205 0.066490 -0.338066
v -0.032098 0.073712 -0.332297
v -0.031982 0.079669 -0.325230
v -0.031862 0.084133 -0.317137
v -0.031741 0.086932 -0.308328
v -0.031625 0.087958 -0.299142
v -0.031518 0.087173 -0.289933
v -0.031424 0.084606 -0.281053
v -0.031347 0.080356 -0.272845
v -0.022202 0.229872 0.256072
v -0.022202 0.204806 0.289852
v -0.022202 0.241132 0.238248
v -0.022202 0.217763 0.273217
v -0.022202 0.111444 0.374387
v -0.022202 0.145337 -0.314115
v -0.022202 0.161293 -0.300365
v -0.022202 0.191056 0.305808
v -0.022202 0.161293 0.335628
v -0.022202 0.093733 0.385647
v -0.022202 0.075400 0.396058
v -0.022202 0.176571 0.321086
v -0.022202 0.145337 0.349377
v -0.016866 -0.290216 0.414364
v -0.022202 0.128702 0.362335
v -0.022202 -0.251480 0.428254
v -0.022202 -0.084843 0.444720
v -0.022202 -0.126940 0.446757
v -0.022202 -0.105835 0.446247
v -0.022202 0.037320 0.414052
v -0.022202 0.056502 0.405564
v -0.022202 -0.210683 0.438496
v -0.022202 -0.189861 0.442117
v -0.022202 0.017629 0.421690
v -0.022202 0.289397 -0.086708
v -0.022202 0.293981 -0.066112
v -0.022202 -0.022601 0.433912
v -0.022202 -0.002345 0.428254
v -0.022202 -0.147933 0.446247
v -0.022202 -0.271453 0.421690
v -0.022202 -0.043198 0.438496
v -0.022202 -0.063964 0.442117
v -0.022202 -0.231166 0.433912
v -0.022202 -0.169038 0.444720
v -0.022202 0.297602 -0.045346
v -0.022202 0.297602 0.080551
v -0.022202 0.300148 -0.024467
v -0.022202 0.289397 0.121857
v -0.022202 0.283682 0.142170
v -0.022202 0.269537 0.181835
v -0.022202 0.261049 0.201130
v -0.022202 0.277175 0.162144
v -0.022202 0.251543 0.219915
v -0.022088 -0.000572 -0.376866
v -0.022202 0.261049 -0.165811
v -0.022202 0.229872 -0.220753
v -0.022088 0.099424 -0.320877
v -0.022202 0.176571 -0.285880
v -0.022202 0.301732 -0.003474
v -0.022202 0.277175 -0.126938
v -0.022202 0.128702 -0.327073
v -0.022202 0.302242 0.017631
v -0.022202 0.241132 -0.203043
v -0.022202 0.204806 -0.254646
v -0.022202 0.191056 -0.270603
v -0.059665 0.175692 0.320207
v -0.059665 0.216765 0.272476
v -0.059665 0.203845 0.289063
v -0.059665 0.190135 0.304974
v -0.022202 0.293981 0.101374
v -0.022202 0.251543 -0.184710
v -0.022202 0.300148 0.059729
v -0.022202 0.301732 0.038623
v -0.022202 0.283682 -0.106965
v -0.022202 0.269537 -0.146629
v -0.022202 0.112710 -0.338293
v -0.022202 0.217763 -0.238011
v -0.022202 0.223308 0.304790
v -0.022202 0.235304 0.287476
v -0.022202 0.210464 0.321482
v -0.022202 0.196884 0.337495
v -0.059665 0.196884 0.337495
v -0.059665 0.210464 0.321482
v -0.059665 0.223308 0.304790
v -0.059665 0.235304 0.287476
v -0.022202 0.111489 0.176951
v -0.022202 0.094740 0.199523
v -0.022202 0.119013 0.165041
v -0.022202 0.103398 0.188407
v -0.022202 0.032355 0.256010
v -0.022202 0.055002 -0.204049
v -0.022202 0.065665 -0.194861
v -0.022202 0.085552 0.210185
v -0.022202 0.065665 0.230111
v -0.022202 0.020521 0.263534
v -0.022202 0.008271 0.270490
v -0.022202 0.075873 0.220394
v -0.022202 0.055003 0.239298
v -0.029574 -0.249548 0.276842
v -0.022202 0.043887 0.247956
v -0.022202 -0.210151 0.292004
v -0.022202 -0.098804 0.303006
v -0.022202 -0.126934 0.304367
v -0.022202 -0.112831 0.304027
v -0.022202 -0.017175 0.282514
v -0.022202 -0.004357 0.276842
v -0.022202 -0.236655 0.282514
v -0.022202 -0.182891 0.298847
v -0.022202 -0.168977 0.301267
v -0.022202 -0.030332 0.287618
v -0.022202 0.151264 -0.052095
v -0.022202 0.154326 -0.038333
v -0.022202 -0.057214 0.295785
v -0.022202 -0.043679 0.292004
v -0.022202 -0.140961 0.304027
v -0.022202 -0.223498 0.287618
v -0.022202 -0.070977 0.298847
v -0.022202 -0.084853 0.301267
v -0.022202 -0.196578 0.295785
v -0.022202 -0.155064 0.303006
v -0.022202 0.156746 -0.024457
v -0.022202 0.156746 0.059668
v -0.022202 0.158448 -0.010505
v -0.022202 0.151264 0.087269
v -0.022202 0.147445 0.100842
v -0.022202 0.137993 0.127346
v -0.022202 0.132322 0.140239
v -0.022202 0.143097 0.114188
v -0.022202 0.125970 0.152791
v -0.022202 -0.017175 -0.247302
v -0.022202 0.132322 -0.104952
v -0.022202 0.111489 -0.141664
v -0.022202 0.020521 -0.228322
v -0.022202 -0.004357 -0.241631
v -0.022202 -0.043679 -0.256755
v -0.022202 0.075873 -0.185182
v -0.022202 0.159506 0.003522
v -0.022202 0.143097 -0.078977
v -0.022202 0.043887 -0.212707
v -0.022202 0.159847 0.017625
v -0.022202 0.119013 -0.129830
v -0.022202 0.094740 -0.164312
v -0.022202 0.085552 -0.174974
v -0.022202 0.154326 0.073582
v -0.022202 0.125970 -0.117580
v -0.022202 -0.030332 -0.252407
v -0.022202 0.158448 0.045754
v -0.022202 0.159506 0.031652
v -0.022202 0.147445 -0.065631
v -0.022202 0.137993 -0.092135
v -0.022202 0.032355 -0.220798
v -0.022202 0.103398 -0.153196
v -0.022202 0.008271 -0.235279
v -0.022202 -0.057214 -0.260573
v -0.059665 0.111489 0.176951
v -0.059665 0.094740 0.199523
v -0.059665 0.119013 0.165041
v -0.059665 0.103398 0.188407
v -0.059665 0.032355 0.256010
v -0.059665 0.055002 -0.204049
v -0.059665 0.065665 -0.194861
v -0.059665 0.085552 0.210185
v -0.059665 0.065665 0.230111
v -0.059665 0.020521 0.263534
v -0.059665 0.008271 0.270490
v -0.059665 0.075873 0.220394
v -0.059665 0.055003 0.239298
v -0.059665 -0.249548 0.276842
v -0.059665 0.043887 0.247956
v -0.059665 -0.210151 0.292004
v -0.059665 -0.098804 0.303006
v -0.059665 -0.126934 0.304367
v -0.059665 -0.112831 0.304027
v -0.059665 -0.017175 0.282514
v -0.059665 -0.004357 0.276842
v -0.059665 -0.236655 0.282514
v -0.059665 -0.182891 0.298847
v -0.059665 -0.168977 0.301267
v -0.059665 -0.030332 0.287618
v -0.059665 0.151264 -0.052095
v -0.059665 0.154326 -0.038333
v -0.059665 -0.057214 0.295785
v -0.059665 -0.043679 0.292004
v -0.059665 -0.140961 0.304027
v -0.059665 -0.223498 0.287618
v -0.059665 -0.070977 0.298847
v -0.059665 -0.084853 0.301267
v -0.059665 -0.196578 0.295785
v -0.059665 -0.155064 0.303006
v -0.059665 0.156746 -0.024457
v -0.059665 0.156746 0.059668
v -0.059665 0.158448 -0.010505
v -0.059665 0.151264 0.087269
v -0.059665 0.147445 0.100842
v -0.059665 0.137993 0.127346
v -0.059665 0.132322 0.140239
v -0.059665 0.143097 0.114188
v -0.059665 0.125970 0.152791
v -0.059665 -0.017175 -0.247302
v -0.059665 0.132322 -0.104952
v -0.059665 0.111489 -0.141664
v -0.059665 0.020521 -0.228322
v -0.059665 -0.004357 -0.241631
v -0.059665 -0.043679 -0.256755
v -0.059665 0.075873 -0.185182
v -0.059665 0.159506 0.003522
v -0.059665 0.143097 -0.078977
v -0.059665 0.043887 -0.212707
v -0.059665 0.159847 0.017625
v -0.059665 0.119013 -0.129830
v -0.059665 0.094740 -0.164312
v -0.059665 0.085552 -0.174974
v -0.059665 0.154326 0.073582
v -0.059665 0.125970 -0.117580
v -0.059665 -0.030332 -0.252407
v -0.059665 0.158448 0.045754
v -0.059665 0.159506 0.031652
v -0.059665 0.147445 -0.065631
v -0.059665 0.137993 -0.092135
v -0.059665 0.032355 -0.220798
v -0.059665 0.103398 -0.153196
v -0.059665 0.008271 -0.235279
v -0.059665 -0.057214 -0.260573
v -0.059665 0.228838 0.255381
v -0.059665 0.240066 0.237609
v -0.059665 0.110753 0.373353
v -0.059665 0.144548 -0.313154
v -0.059665 0.160458 -0.299444
v -0.059665 0.160458 0.334706
v -0.059665 0.093094 0.384581
v -0.059665 0.074814 0.394962
v -0.059665 0.144548 0.348416
v -0.059665 -0.292106 0.412271
v -0.059665 0.127961 0.361336
v -0.059665 -0.251119 0.427064
v -0.059665 -0.084965 0.443482
v -0.059665 -0.126940 0.445513
v -0.059665 -0.105896 0.445006
v -0.059665 0.036844 0.412903
v -0.059665 0.055970 0.404440
v -0.059665 -0.285643 0.414853
v -0.059665 -0.210441 0.437276
v -0.059665 -0.189679 0.440887
v -0.059665 0.017210 0.420520
v -0.059665 0.288191 -0.086406
v -0.059665 0.292761 -0.065869
v -0.059665 -0.022904 0.432706
v -0.059665 -0.002706 0.427064
v -0.059665 -0.147872 0.445006
v -0.059665 -0.271035 0.420520
v -0.059665 -0.043440 0.437276
v -0.059665 -0.064146 0.440887
v -0.059665 -0.230864 0.432706
v -0.059665 -0.168916 0.443482
v -0.059665 0.296372 -0.045163
v -0.059665 0.296372 0.080369
v -0.059665 0.298911 -0.024345
v -0.059665 0.288191 0.121555
v -0.059665 0.282493 0.141810
v -0.059665 0.268388 0.181359
v -0.059665 0.259925 0.200598
v -0.059665 0.276005 0.161725
v -0.059665 0.250447 0.219329
v -0.059665 0.259925 -0.165280
v -0.059665 0.228838 -0.220062
v -0.059665 0.175692 -0.285001
v -0.059665 0.300491 -0.003413
v -0.059665 0.276005 -0.126520
v -0.059665 0.127961 -0.326074
v -0.059665 0.300998 0.017631
v -0.059665 0.240066 -0.202403
v -0.059665 0.203845 -0.253858
v -0.059665 0.190135 -0.269768
v -0.059665 0.292761 0.101131
v -0.059665 0.250447 -0.184124
v -0.059665 0.298911 0.059607
v -0.059665 0.300491 0.038563
v -0.059665 0.282493 -0.106604
v -0.059665 0.268388 -0.146153
v -0.059665 0.111932 -0.337320
v -0.059665 0.216765 -0.237270
v -0.009874 0.149084 -0.385511
v -0.010759 0.149236 -0.385463
v -0.011431 0.149403 -0.385420
v -0.008562 0.148964 -0.385566
v -0.006609 0.148890 -0.385633
v -0.003802 0.148878 -0.385716
v 0.000094 0.148907 -0.385804
v 0.005313 0.148958 -0.385886
v 0.012092 0.149008 -0.385953
v 0.005604 0.099424 -0.320877
v -0.006566 0.099424 -0.320877
v -0.012651 0.099424 -0.320877
v -0.000481 0.099424 -0.320877
v 0.012688 0.126188 -0.356002
v 0.012999 0.126561 -0.356493
v 0.012409 0.125805 -0.355501
v 0.013339 0.126925 -0.356970
v 0.013708 0.127279 -0.357434
v 0.039308 0.123795 -0.352862
v 0.039392 0.123380 -0.352317
v 0.039190 0.124207 -0.353403
v 0.039443 0.122963 -0.351770
v 0.039460 0.122545 -0.351221
v 0.037460 0.126925 -0.356970
v 0.037800 0.126561 -0.356493
v 0.037090 0.127279 -0.357434
v 0.038110 0.126188 -0.356002
v 0.038390 0.125805 -0.355501
v 0.018171 0.129853 -0.360813
v 0.018771 0.130059 -0.361084
v 0.017587 0.129630 -0.360519
v 0.019388 0.130248 -0.361330
v 0.020018 0.130417 -0.361553
v 0.034842 0.116231 -0.342935
v 0.034319 0.115958 -0.342576
v 0.035342 0.116520 -0.343313
v 0.033775 0.115701 -0.342239
v 0.033211 0.115460 -0.341923
v 0.036693 0.117469 -0.344559
v 0.036268 0.117139 -0.344127
v 0.037090 0.117811 -0.345008
v 0.035818 0.116822 -0.343711
v 0.039443 0.122127 -0.350672
v 0.039392 0.121709 -0.350125
v 0.039308 0.121294 -0.349580
v 0.039190 0.120882 -0.349039
v 0.028816 0.130810 -0.362069
v 0.029481 0.130699 -0.361923
v 0.028142 0.130902 -0.362189
v 0.030136 0.130568 -0.361750
v 0.030780 0.130417 -0.361553
v 0.031411 0.130248 -0.361330
v 0.032027 0.130059 -0.361084
v 0.032628 0.129853 -0.360813
v 0.033211 0.129630 -0.360519
v 0.032628 0.115236 -0.341629
v 0.032027 0.115030 -0.341358
v 0.031411 0.114842 -0.341112
v 0.030780 0.114672 -0.340889
v 0.017023 0.115701 -0.342239
v 0.016479 0.115958 -0.342576
v 0.017587 0.115460 -0.341923
v 0.015957 0.116231 -0.342935
v 0.015457 0.116520 -0.343313
v 0.019388 0.114842 -0.341112
v 0.018771 0.115030 -0.341358
v 0.020018 0.114672 -0.340889
v 0.018171 0.115236 -0.341629
v 0.038638 0.125415 -0.354988
v 0.038854 0.125018 -0.354467
v 0.039039 0.124615 -0.353938
v 0.039039 0.120474 -0.348504
v 0.038854 0.120071 -0.347975
v 0.038638 0.119674 -0.347454
v 0.038390 0.119284 -0.346941
v 0.026089 0.131055 -0.362391
v 0.026777 0.131025 -0.362350
v 0.025399 0.131066 -0.362404
v 0.027462 0.130973 -0.362283
v 0.011355 0.122963 -0.351770
v 0.011406 0.123380 -0.352317
v 0.011338 0.122545 -0.351221
v 0.011491 0.123795 -0.352862
v 0.011609 0.124207 -0.353403
v 0.012160 0.119674 -0.347453
v 0.011944 0.120071 -0.347975
v 0.012409 0.119284 -0.346941
v 0.011760 0.120474 -0.348504
v 0.011609 0.120882 -0.349039
v 0.011491 0.121294 -0.349580
v 0.011406 0.121709 -0.350125
v 0.011355 0.122127 -0.350672
v 0.035818 0.128267 -0.358731
v 0.036268 0.127950 -0.358315
v 0.035342 0.128570 -0.359129
v 0.036693 0.127621 -0.357883
v 0.015957 0.128858 -0.359507
v 0.016479 0.129131 -0.359866
v 0.015457 0.128570 -0.359129
v 0.017023 0.129389 -0.360203
v 0.014981 0.116822 -0.343711
v 0.014530 0.117139 -0.344127
v 0.014106 0.117469 -0.344559
v 0.013708 0.117811 -0.345008
v 0.014105 0.127621 -0.357883
v 0.014530 0.127950 -0.358315
v 0.014981 0.128267 -0.358731
v 0.027462 0.114116 -0.340159
v 0.026777 0.114065 -0.340092
v 0.028142 0.114188 -0.340253
v 0.026089 0.114034 -0.340051
v 0.025399 0.114024 -0.340038
v 0.020662 0.130567 -0.361750
v 0.021318 0.130699 -0.361923
v 0.021983 0.130810 -0.362069
v 0.022656 0.130902 -0.362189
v 0.030136 0.114522 -0.340692
v 0.029481 0.114391 -0.340519
v 0.028816 0.114279 -0.340373
v 0.033775 0.129389 -0.360203
v 0.034319 0.129131 -0.359866
v 0.034842 0.128858 -0.359507
v 0.023336 0.130973 -0.362283
v 0.024021 0.131025 -0.362350
v 0.024709 0.131055 -0.362391
v 0.024709 0.114034 -0.340051
v 0.024021 0.114065 -0.340092
v 0.023336 0.114116 -0.340159
v 0.022656 0.114188 -0.340253
v 0.011760 0.124615 -0.353938
v 0.011944 0.125018 -0.354467
v 0.012160 0.125415 -0.354988
v 0.021983 0.114279 -0.340373
v 0.021318 0.114391 -0.340519
v 0.020662 0.114522 -0.340692
v 0.038110 0.118902 -0.346440
v 0.037800 0.118528 -0.345949
v 0.037460 0.118164 -0.345472
v 0.013339 0.118164 -0.345472
v 0.012999 0.118528 -0.345949
v 0.012688 0.118902 -0.346440
v 0.058230 0.111833 -0.337163
v 0.058731 0.124242 -0.353448
v 0.057729 0.099424 -0.320877
v 0.059232 0.136650 -0.369734
v 0.059732 0.149059 -0.386020
v 0.041399 0.149059 -0.386020
v 0.030584 0.149054 -0.386013
v 0.020665 0.149039 -0.385993
v 0.016868 0.099424 -0.320877
v 0.028132 0.099424 -0.320877
v 0.039396 0.099424 -0.320877
v -0.048412 0.117938 -0.345122
v -0.047166 0.119679 -0.347346
v -0.039234 0.129787 -0.360223
v -0.042361 0.125853 -0.355217
v -0.035204 0.133883 -0.365449
v -0.045077 0.122399 -0.350820
v -0.023116 0.141399 -0.375320
v -0.029783 0.137821 -0.370505
v -0.017548 0.145542 -0.380448
v -0.009874 0.042196 -0.446253
v -0.010759 0.042351 -0.446222
v -0.011431 0.042522 -0.446195
v -0.008562 0.042070 -0.446296
v -0.006609 0.041990 -0.446355
v -0.003802 0.041969 -0.446436
v 0.000094 0.041989 -0.446527
v 0.005313 0.042031 -0.446614
v 0.012092 0.042075 -0.446685
v 0.005604 -0.000572 -0.376866
v -0.006566 -0.000572 -0.376866
v -0.012651 -0.000572 -0.376866
v -0.000481 -0.000572 -0.376866
v 0.012688 0.043779 -0.403886
v 0.012999 0.044100 -0.404412
v 0.012409 0.043450 -0.403347
v 0.013339 0.044413 -0.404924
v 0.013708 0.044717 -0.405422
v 0.039308 0.041721 -0.400516
v 0.039392 0.041364 -0.399932
v 0.039190 0.042075 -0.401097
v 0.039443 0.041005 -0.399345
v 0.039460 0.040645 -0.398756
v 0.037460 0.044413 -0.404924
v 0.037800 0.044100 -0.404412
v 0.037090 0.044717 -0.405422
v 0.038110 0.043779 -0.403886
v 0.038390 0.043450 -0.403347
v 0.018171 0.046931 -0.409047
v 0.018771 0.047109 -0.409337
v 0.017587 0.046739 -0.408732
v 0.019388 0.047270 -0.409602
v 0.020018 0.047416 -0.409841
v 0.034842 0.035215 -0.389866
v 0.034319 0.034980 -0.389481
v 0.035342 0.035463 -0.390272
v 0.033775 0.034759 -0.389119
v 0.033211 0.034552 -0.388780
v 0.036693 0.036279 -0.391609
v 0.036268 0.035996 -0.391144
v 0.037090 0.036574 -0.392090
v 0.035818 0.035724 -0.390698
v 0.039443 0.040286 -0.398167
v 0.039392 0.039927 -0.397580
v 0.039308 0.039570 -0.396995
v 0.039190 0.039215 -0.396415
v 0.028816 0.047754 -0.410395
v 0.029481 0.047658 -0.410237
v 0.028142 0.047833 -0.410524
v 0.030136 0.047546 -0.410053
v 0.030780 0.047416 -0.409841
v 0.031411 0.047270 -0.409602
v 0.032027 0.047109 -0.409337
v 0.032628 0.046931 -0.409047
v 0.033211 0.046739 -0.408732
v 0.032628 0.034359 -0.388465
v 0.032027 0.034182 -0.388174
v 0.031411 0.034020 -0.387910
v 0.030780 0.033874 -0.387671
v 0.017023 0.034759 -0.389119
v 0.016479 0.034980 -0.389481
v 0.017587 0.034552 -0.388780
v 0.015957 0.035215 -0.389866
v 0.015457 0.035463 -0.390272
v 0.019388 0.034020 -0.387910
v 0.018771 0.034182 -0.388174
v 0.020018 0.033874 -0.387671
v 0.018171 0.034359 -0.388465
v 0.038638 0.043114 -0.402798
v 0.038854 0.042773 -0.402239
v 0.039039 0.042426 -0.401671
v 0.039039 0.038864 -0.395841
v 0.038854 0.038518 -0.395273
v 0.038638 0.038176 -0.394714
v 0.038390 0.037841 -0.394164
v 0.026089 0.047965 -0.410740
v 0.026777 0.047939 -0.410696
v 0.025399 0.047974 -0.410754
v 0.027462 0.047895 -0.410624
v 0.011355 0.041005 -0.399345
v 0.011406 0.041364 -0.399932
v 0.011338 0.040645 -0.398756
v 0.011491 0.041721 -0.400516
v 0.011609 0.042075 -0.401097
v 0.012160 0.038176 -0.394714
v 0.011944 0.038518 -0.395273
v 0.012409 0.037841 -0.394164
v 0.011760 0.038864 -0.395841
v 0.011609 0.039215 -0.396415
v 0.011491 0.039570 -0.396995
v 0.011406 0.039927 -0.397580
v 0.011355 0.040286 -0.398167
v 0.035818 0.045567 -0.406813
v 0.036268 0.045294 -0.406367
v 0.035342 0.045827 -0.407240
v 0.036693 0.045011 -0.405903
v 0.015957 0.046075 -0.407646
v 0.016479 0.046310 -0.408031
v 0.015457 0.045827 -0.407240
v 0.017023 0.046532 -0.408393
v 0.014981 0.035724 -0.390698
v 0.014530 0.035996 -0.391144
v 0.014106 0.036279 -0.391609
v 0.013708 0.036574 -0.392090
v 0.014105 0.045011 -0.405903
v 0.014530 0.045294 -0.406367
v 0.014981 0.045567 -0.406813
v 0.027462 0.033396 -0.386888
v 0.026777 0.033352 -0.386816
v 0.028142 0.033457 -0.386988
v 0.026089 0.033325 -0.386772
v 0.025399 0.033316 -0.386758
v 0.020662 0.047546 -0.410053
v 0.021318 0.047658 -0.410237
v 0.021983 0.047754 -0.410394
v 0.022656 0.047833 -0.410524
v 0.030136 0.033745 -0.387459
v 0.029481 0.033632 -0.387274
v 0.028816 0.033536 -0.387117
v 0.033775 0.046532 -0.408393
v 0.034319 0.046310 -0.408031
v 0.034842 0.046075 -0.407646
v 0.023336 0.047895 -0.410624
v 0.024021 0.047939 -0.410696
v 0.024709 0.047965 -0.410740
v 0.024709 0.033325 -0.386772
v 0.024021 0.033352 -0.386816
v 0.023336 0.033396 -0.386888
v 0.022656 0.033457 -0.386988
v 0.011760 0.042426 -0.401671
v 0.011944 0.042773 -0.402239
v 0.012160 0.043114 -0.402798
v 0.021983 0.033536 -0.387117
v 0.021318 0.033632 -0.387274
v 0.020662 0.033745 -0.387459
v 0.038110 0.037512 -0.393626
v 0.037800 0.037190 -0.393100
v 0.037460 0.036878 -0.392588
v 0.013339 0.036878 -0.392588
v 0.012999 0.037190 -0.393100
v 0.012688 0.037512 -0.393626
v 0.058230 0.010100 -0.394339
v 0.058731 0.020773 -0.411812
v 0.057729 -0.000572 -0.376866
v 0.059232 0.031446 -0.429284
v 0.059732 0.042118 -0.446757
v 0.041399 0.042118 -0.446757
v 0.030584 0.042114 -0.446750
v 0.020665 0.042101 -0.446728
v 0.016868 -0.000572 -0.376866
v 0.028132 -0.000572 -0.376866
v 0.039396 -0.000572 -0.376866
v -0.048412 0.015357 -0.402883
v -0.047166 0.016860 -0.405273
v -0.039234 0.025594 -0.419119
v -0.042361 0.022194 -0.413736
v -0.035204 0.029132 -0.424738
v -0.045077 0.019209 -0.409008
v -0.023116 0.035596 -0.435328
v -0.029783 0.032531 -0.430172
v -0.017548 0.039191 -0.440854
v 0.025399 0.055671 -0.422727
v 0.000898 0.048158 -0.410742
v 0.000898 0.033132 -0.386770
v 0.025399 0.025619 -0.374785
v 0.049900 0.033132 -0.386770
v 0.049900 0.048158 -0.410742
v 0.025399 0.034676 -0.434477
v 0.000898 0.027299 -0.422406
v 0.000898 0.012546 -0.398266
v 0.025399 0.005170 -0.386196
v 0.049900 0.012546 -0.398266
v 0.049900 0.027299 -0.422406
v -0.059732 0.013208 -0.398669
v -0.055004 0.015357 -0.402883
v -0.056059 0.013802 -0.400343
v -0.059501 0.013694 -0.400169
v -0.058830 0.014365 -0.401276
v -0.057784 0.014906 -0.402103
v -0.056466 0.015255 -0.402670
v -0.055004 0.117938 -0.345122
v -0.059732 0.114469 -0.341647
v -0.059732 0.114909 -0.341490
v -0.059701 0.115053 -0.341374
v -0.056466 0.117769 -0.344952
v -0.057784 0.117276 -0.344459
v -0.058830 0.116508 -0.343690
v -0.059501 0.115541 -0.342721
v -0.016144 -0.280624 0.384291
v -0.059665 -0.287674 0.398912
v -0.000380 -0.280624 0.384291
v -0.000380 -0.260511 0.390508
v -0.000380 -0.249548 0.276842
v -0.000380 -0.236655 0.282514
v -0.000380 -0.223498 0.287618
v -0.029574 -0.271165 0.271844
v -0.016144 -0.302242 0.377921
v -0.022536 -0.260511 0.390508
v -0.000380 -0.271165 0.271844
v -0.000380 -0.302242 0.377921
v -0.059665 -0.152732 0.403034
v -0.059678 0.032365 -0.251819
v -0.059665 0.217813 0.191682
v -0.059720 0.058424 -0.341985
v -0.059665 0.207455 0.098405
v -0.059665 -0.213058 0.331121
v -0.059665 -0.159813 0.408978
v -0.059665 -0.230193 0.352479
v -0.059665 -0.226122 0.344655
v -0.059665 -0.233425 0.368731
v -0.059665 -0.232780 0.361356
v -0.059720 0.066633 -0.337734
v -0.059677 0.026482 -0.253520
v -0.059677 0.023485 -0.254387
v -0.059665 0.253270 0.132945
v -0.059665 0.181359 0.106676
v -0.059665 -0.204954 0.326672
v -0.059665 0.177469 0.109950
v -0.059665 0.208626 0.192702
v -0.059665 0.216665 0.099196
v -0.059665 -0.204257 0.326452
v -0.059665 -0.165840 0.412287
v -0.059665 -0.167917 0.413426
v -0.059719 0.073855 -0.331964
v -0.059677 0.015276 -0.258637
v -0.059665 -0.196138 0.323891
v -0.059665 0.225543 0.101770
v -0.059665 0.199416 0.191910
v -0.059665 -0.176732 0.416208
v -0.059718 0.079812 -0.324896
v -0.059677 0.008054 -0.264407
v -0.059665 0.251376 0.126970
v -0.059665 0.198840 0.191744
v -0.059665 -0.220139 0.337065
v -0.059665 0.246918 0.118872
v -0.059665 0.240966 0.111800
v -0.059665 -0.187691 0.322965
v -0.059665 -0.186950 0.322883
v -0.059665 -0.233585 0.370568
v -0.059665 0.189457 0.102217
v -0.059665 -0.232579 0.379760
v -0.059665 0.233749 0.106025
v -0.059665 0.198268 0.099425
v -0.059665 0.199337 0.099306
v -0.059665 -0.225925 0.344277
v -0.059665 0.237200 0.108787
v -0.059665 0.190538 0.189337
v -0.059715 0.084277 -0.316801
v -0.059665 -0.177741 0.323689
v -0.059679 0.002096 -0.271475
v -0.059714 0.085577 -0.312709
v -0.059665 -0.185921 0.417215
v -0.059665 0.182333 0.185081
v -0.059665 -0.222651 0.399906
v -0.059665 -0.229799 0.388578
v -0.059665 -0.225353 0.396685
v -0.059665 -0.186166 0.417194
v -0.059699 0.087076 -0.307991
v -0.059712 0.087047 -0.308084
v -0.059680 -0.000494 -0.276172
v -0.059665 -0.172527 0.325208
v -0.059681 -0.002368 -0.279570
v -0.059665 -0.168867 0.326275
v -0.059665 0.175115 0.179306
v -0.059665 -0.195129 0.416410
v -0.059665 -0.139285 0.369531
v -0.059665 -0.140292 0.360339
v -0.059691 -0.005538 -0.305278
v -0.059693 -0.004843 -0.308741
v -0.059665 -0.140091 0.378742
v -0.059692 -0.005410 -0.306778
v -0.059665 -0.143071 0.351521
v -0.059665 -0.143271 0.351156
v -0.059665 -0.145306 0.392672
v -0.059665 0.174740 0.178861
v -0.059665 -0.142678 0.387620
v -0.059665 -0.160668 0.330544
v -0.059684 -0.005168 -0.288380
v -0.059665 0.087755 -0.301919
v -0.059665 0.088103 -0.298804
v -0.059665 -0.204004 0.413823
v -0.059665 0.169163 0.172234
v -0.059665 -0.157991 0.332693
v -0.059688 -0.006195 -0.297567
v -0.059665 -0.205607 0.412988
v -0.059665 -0.153459 0.336331
v -0.059665 0.254169 0.135781
v -0.059665 0.164705 0.164137
v -0.059665 0.174288 0.112628
v -0.059665 0.087318 -0.289593
v -0.059665 -0.212203 0.409554
v -0.059665 -0.147517 0.343414
v -0.059665 0.255190 0.144968
v -0.059665 0.084752 -0.280713
v -0.059665 0.167010 0.122742
v -0.059665 0.168513 0.119845
v -0.059665 0.161912 0.155326
v -0.059665 -0.219412 0.403767
v -0.059665 0.254413 0.154003
v -0.059665 0.230574 0.186715
v -0.059665 0.226624 0.188889
v -0.059665 0.161784 0.154175
v -0.059665 0.254398 0.154178
v -0.059696 -0.002843 -0.315659
v -0.059665 0.080502 -0.272504
v -0.059665 0.160892 0.146139
v -0.059665 0.251824 0.163056
v -0.059700 0.001406 -0.323868
v -0.059665 0.074733 -0.265282
v -0.059665 0.161664 0.137151
v -0.059665 0.161684 0.136929
v -0.059703 0.005400 -0.328867
v -0.059704 0.007176 -0.331090
v -0.059665 0.247568 0.171261
v -0.059665 0.164257 0.128051
v -0.059665 0.246683 0.172368
v -0.059708 0.014243 -0.337047
v -0.059665 0.241794 0.178479
v -0.059665 -0.146946 0.395822
v -0.059711 0.022337 -0.341511
v -0.059665 0.067665 -0.259324
v -0.059714 0.031147 -0.344310
v -0.059665 0.059571 -0.254860
v -0.059717 0.040333 -0.345337
v -0.059665 0.054521 -0.253255
v -0.059665 0.050762 -0.252061
v -0.059665 0.234722 0.184431
v -0.059719 0.049544 -0.344552
v -0.059665 0.041575 -0.251034
v -0.059679 0.039604 -0.251202
vn -0.0332 0.7571 -0.6524
vn 1.0000 -0.0000 -0.0000
vn -0.0000 0.7627 0.6468
vn -0.0000 0.7925 0.6098
vn -0.0000 0.8220 0.5695
vn -0.0033 -0.6321 0.7749
vn -0.0000 -0.6284 0.7779
vn -1.0000 -0.0000 -0.0000
vn -0.0000 0.6290 -0.7774
vn -0.0015 0.6308 -0.7760
vn 1.0000 -0.0002 0.0009
vn 1.0000 -0.0089 -0.0032
vn 1.0000 0.0068 0.0057
vn 1.0000 -0.0005 0.0008
vn 1.0000 -0.0004 0.0008
vn -0.0000 0.3617 -0.9323
vn 1.0000 -0.0003 0.0009
vn 1.0000 -0.0003 0.0008
vn -0.0000 0.0722 -0.9974
vn -0.0000 -0.3617 0.9323
vn -0.0000 -0.5365 0.8439
vn -0.0000 -0.4938 0.8696
vn -0.0000 -0.9626 -0.2708
vn -0.0000 -0.9508 0.3098
vn -0.0000 -0.9323 0.3617
vn -0.0000 -0.7257 -0.6880
vn -0.0000 -0.6880 0.7257
vn -0.0000 -0.0241 -0.9997
vn -0.0000 0.0242 -0.9997
vn -0.0000 -0.8186 0.5744
vn -0.0000 -0.9508 -0.3098
vn -0.0000 -0.9624 0.2715
vn -0.0000 -0.8439 0.5365
vn -0.0000 -0.3617 -0.9323
vn -0.0000 -0.9997 -0.0243
vn -0.0000 -0.8934 0.4494
vn -0.0000 -0.9145 0.4046
vn -0.0000 -0.9761 0.2172
vn -0.0000 -0.1718 -0.9851
vn -0.0000 -0.4046 -0.9145
vn -0.0000 -0.5365 -0.8439
vn -0.0000 -0.5726 -0.8199
vn -0.0000 -0.4494 0.8934
vn -0.0000 -0.8696 -0.4938
vn -0.0000 -0.9972 0.0753
vn -0.0000 0.1713 -0.9852
vn -0.0000 0.2184 -0.9759
vn -0.0000 -0.4938 -0.8696
vn -0.0000 -0.5744 0.8186
vn -0.0000 -0.9852 -0.1713
vn -0.0000 -0.9154 -0.4026
vn -0.0000 -0.7575 0.6528
vn -0.0000 -0.9323 -0.3617
vn -0.0000 0.4026 -0.9154
vn -0.0000 -0.6528 0.7575
vn -0.0000 -0.9972 -0.0749
vn -0.0000 -0.3122 -0.9500
vn -0.0000 -0.6895 -0.7243
vn -0.0000 -0.2690 -0.9631
vn -0.0000 -0.6528 -0.7575
vn -0.0000 -0.2172 -0.9761
vn -0.0000 -0.6145 -0.7889
vn -0.0000 -0.3098 0.9508
vn -0.0000 -0.9851 0.1718
vn -0.0000 -0.8696 0.4938
vn -0.0000 -0.7889 0.6145
vn -0.0000 0.1240 -0.9923
vn -0.0000 -0.6145 0.7889
vn -0.0000 -0.0726 -0.9974
vn -0.0000 -0.9997 0.0241
vn -0.0000 -0.7257 0.6880
vn -0.0000 -0.1237 -0.9923
vn -0.0000 -0.9926 -0.1214
vn -0.0000 -0.7889 -0.6145
vn -0.0000 -0.7575 -0.6528
vn -0.0000 0.3122 -0.9500
vn -0.0000 -0.2715 0.9624
vn -0.0000 0.2683 -0.9633
vn -0.0000 -0.4046 0.9145
vn -0.0000 -0.8923 -0.4515
vn -0.0000 -0.4494 -0.8934
vn -0.0000 -0.9759 -0.2184
vn -0.0000 -0.9926 0.1211
vn -0.0000 -0.8454 -0.5341
vn -0.0000 -0.8168 -0.5769
vn -0.0178 -0.8494 -0.5274
vn -1.0000 -0.0001 0.0004
vn -0.0000 -0.8528 -0.5222
vn -0.0000 0.4906 -0.8714
vn -0.4038 0.4584 -0.7917
vn -0.7616 0.3199 -0.5636
vn -0.6137 -0.3969 0.6825
vn -0.9138 0.1993 -0.3539
vn -0.0000 -0.4885 0.8725
vn -0.9492 -0.1581 0.2721
vn 0.7228 0.3464 -0.5979
vn -0.9755 -0.1105 0.1903
vn -0.6516 -0.3813 0.6557
vn 0.9136 -0.2043 0.3517
vn -0.7616 0.3193 -0.5639
vn 0.4913 0.4365 -0.7537
vn 0.9492 -0.1581 0.2722
vn -0.9997 0.0124 -0.0213
vn 0.2658 -0.4848 0.8332
vn 0.3586 -0.4694 0.8069
vn -0.9492 0.1579 -0.2722
vn -0.6136 0.3957 -0.6833
vn -0.8984 0.2158 -0.3825
vn 0.8439 -0.2696 0.4639
vn -0.8925 -0.2267 0.3901
vn 0.1219 -0.4992 0.8579
vn -0.7229 -0.3473 0.5973
vn -0.9924 -0.0617 0.1063
vn -0.9136 -0.2043 0.3517
vn -0.9852 -0.0862 0.1484
vn 0.9852 0.0861 -0.1484
vn 0.3585 0.4677 -0.8079
vn -0.5743 0.4103 -0.7084
vn 0.9973 0.0371 -0.0639
vn 0.9852 -0.0862 0.1484
vn 0.1218 0.4973 -0.8590
vn -0.7870 0.3093 -0.5338
vn 0.2658 0.4830 -0.8343
vn -0.9136 0.2040 -0.3518
vn -0.8164 0.2895 -0.4996
vn 0.5332 -0.4253 0.7313
vn -0.2658 -0.4848 0.8333
vn 0.9924 -0.0617 0.1063
vn 0.8692 0.2480 -0.4278
vn -0.2184 -0.4908 0.8435
vn 0.9491 0.1579 -0.2723
vn -0.5743 -0.4116 0.7076
vn 0.9325 0.1811 -0.3124
vn -0.8439 0.2691 -0.4642
vn -0.8692 0.2480 -0.4278
vn -0.9973 0.0371 -0.0639
vn -0.7560 -0.3290 0.5659
vn 0.2184 -0.4908 0.8435
vn -0.4914 -0.4379 0.7528
vn 0.0788 0.4927 -0.8666
vn 0.9997 -0.0121 0.0214
vn 0.3124 -0.4777 0.8211
vn 0.7229 -0.3473 0.5973
vn -0.0185 0.4938 -0.8694
vn 0.9997 -0.0120 0.0214
vn -0.1219 -0.4992 0.8579
vn 0.7559 0.3282 -0.5665
vn -0.1702 -0.4956 0.8517
vn 0.2183 0.4889 -0.8446
vn -0.0008 0.4939 -0.8695
vn 0.8164 0.2895 -0.4996
vn -0.8165 -0.2902 0.4992
vn 0.5743 -0.4116 0.7076
vn -0.4481 0.4480 -0.7736
vn -0.3585 0.4678 -0.8079
vn 0.1701 0.4937 -0.8528
vn 0.4038 0.4584 -0.7917
vn 0.4914 -0.4379 0.7528
vn 0.8692 -0.2484 0.4275
vn -0.0732 -0.5016 0.8620
vn 0.9135 0.2040 -0.3519
vn -0.3124 0.4760 -0.8221
vn 0.8165 -0.2901 0.4992
vn -0.0246 -0.5028 0.8641
vn -0.6880 -0.3648 0.6273
vn -0.9635 -0.1345 0.2316
vn 0.0732 -0.5016 0.8620
vn 0.9997 0.0124 -0.0215
vn 0.6516 -0.3814 0.6558
vn 0.9635 -0.1345 0.2316
vn -0.9635 0.1344 -0.2317
vn 0.6880 -0.3648 0.6273
vn -0.9325 -0.1814 0.3122
vn -0.8965 0.2180 -0.3858
vn -0.5333 0.4239 -0.7321
vn -0.9852 0.0861 -0.1484
vn 0.4040 -0.4600 0.7907
vn -0.8535 0.2566 -0.4536
vn -0.7559 0.3282 -0.5665
vn -0.4039 -0.4600 0.7907
vn 0.9755 -0.1105 0.1902
vn -0.9973 -0.0371 0.0639
vn -0.3125 -0.4777 0.8211
vn -0.0058 0.4938 -0.8695
vn 0.3124 0.4760 -0.8221
vn -0.0123 0.4938 -0.8695
vn 0.7871 -0.3100 0.5333
vn 0.4481 -0.4495 0.7727
vn -0.8692 -0.2484 0.4275
vn -0.3586 -0.4694 0.8069
vn -0.0245 0.5008 -0.8652
vn -0.6516 0.3802 -0.6564
vn -0.8439 -0.2696 0.4639
vn -0.4481 -0.4495 0.7727
vn -0.0733 0.4996 -0.8631
vn -0.6880 0.3638 -0.6280
vn 0.0246 -0.5028 0.8641
vn -0.1218 0.4973 -0.8590
vn -0.0000 0.4939 -0.8695
vn 0.9635 0.1344 -0.2317
vn -0.1701 0.4937 -0.8528
vn 0.6880 0.3638 -0.6280
vn -0.7152 0.3453 -0.6077
vn 0.9973 -0.0371 0.0639
vn 0.6137 0.3957 -0.6832
vn 0.6516 0.3802 -0.6564
vn 0.9997 -0.0125 0.0215
vn 0.5743 0.4103 -0.7084
vn 0.9755 0.1104 -0.1903
vn -0.8924 0.2263 -0.3903
vn 0.1703 -0.4956 0.8517
vn 0.4481 0.4480 -0.7736
vn 0.9924 0.0617 -0.1063
vn -0.9997 -0.0124 0.0213
vn 0.8925 0.2263 -0.3903
vn 0.0733 0.4996 -0.8631
vn -0.0225 0.4938 -0.8693
vn -0.0086 0.4939 -0.8695
vn -0.9325 0.1812 -0.3124
vn -0.7870 -0.3101 0.5334
vn -0.9924 0.0617 -0.1063
vn 0.8925 -0.2266 0.3900
vn 0.7871 0.3093 -0.5337
vn 0.0139 0.4940 -0.8694
vn -0.7229 0.3464 -0.5979
vn -0.0025 0.4939 -0.8695
vn 0.0467 0.4936 -0.8684
vn -0.9755 0.1104 -0.1903
vn -0.5333 -0.4253 0.7312
vn 0.6137 -0.3969 0.6825
vn -0.9028 0.2112 -0.3746
vn 0.8439 0.2691 -0.4642
vn -0.0231 0.4937 -0.8693
vn -0.2657 0.4830 -0.8343
vn -0.4913 0.4365 -0.7537
vn 0.7560 -0.3290 0.5659
vn 0.9325 -0.1814 0.3122
vn -0.2183 0.4889 -0.8446
vn 0.0245 0.5008 -0.8652
vn -0.6674 0.3673 -0.6478
vn 0.5332 0.4240 -0.7321
vn -0.4996 -0.4229 0.7560
vn -0.4996 0.4222 -0.7564
vn 0.4996 0.4222 -0.7564
vn 0.4996 -0.4229 0.7560
vn 0.0104 -0.8507 -0.5256
vn 0.0100 -0.8504 -0.5261
vn 0.0098 -0.8502 -0.5264
vn 0.0094 -0.8498 -0.5270
vn 0.0093 -0.8496 -0.5274
vn 0.0090 -0.8492 -0.5280
vn 0.0089 -0.8490 -0.5283
vn 0.0087 -0.8486 -0.5289
vn 0.0084 -0.8481 -0.5297
vn 0.0083 -0.8479 -0.5301
vn 0.0081 -0.8472 -0.5311
vn 0.0080 -0.8467 -0.5320
vn 0.0067 -0.8411 -0.5409
vn -0.0067 -0.8411 -0.5409
vn 0.0153 -0.8389 -0.5440
vn 0.0131 -0.8394 -0.5433
vn 0.0096 -0.8402 -0.5422
vn 0.0097 -0.8401 -0.5423
vn 0.0123 -0.8519 -0.5236
vn 0.0144 -0.8528 -0.5221
vn 0.0053 -0.8409 -0.5412
vn 0.0040 -0.8410 -0.5410
vn 0.0041 -0.8410 -0.5411
vn 0.0007 -0.8412 -0.5408
vn -0.0005 -0.8412 -0.5408
vn -0.0017 -0.8411 -0.5408
vn -0.0028 -0.8411 -0.5409
vn -0.0041 -0.8410 -0.5411
vn -0.0053 -0.8408 -0.5413
vn -0.0065 -0.8407 -0.5415
vn -0.0081 -0.8404 -0.5418
vn -0.0097 -0.8401 -0.5423
vn -0.0111 -0.8399 -0.5427
vn -0.0130 -0.8395 -0.5433
vn -0.0154 -0.8389 -0.5441
vn -0.0080 -0.8467 -0.5320
vn -0.0081 -0.8472 -0.5311
vn -0.0083 -0.8478 -0.5302
vn -0.0084 -0.8482 -0.5297
vn -0.0087 -0.8486 -0.5289
vn -0.0089 -0.8490 -0.5283
vn -0.0090 -0.8492 -0.5280
vn -0.0093 -0.8496 -0.5273
vn -0.0094 -0.8498 -0.5271
vn -0.0098 -0.8502 -0.5264
vn 0.0016 -0.8411 -0.5408
vn 0.0017 -0.8411 -0.5408
vn 0.0105 -0.8508 -0.5254
vn 0.0028 -0.8411 -0.5409
vn -0.0104 -0.8507 -0.5256
vn 0.0053 -0.8408 -0.5413
vn -0.0106 -0.8508 -0.5253
vn 0.0066 -0.8407 -0.5415
vn -0.0109 -0.8511 -0.5249
vn 0.0081 -0.8404 -0.5418
vn -0.0115 -0.8514 -0.5244
vn 0.0129 -0.8521 -0.5232
vn -0.0118 -0.8516 -0.5240
vn 0.0112 -0.8399 -0.5427
vn -0.0123 -0.8519 -0.5236
vn 0.0130 -0.8395 -0.5433
vn -0.0129 -0.8521 -0.5232
vn 0.0154 -0.8389 -0.5441
vn -0.0136 -0.8525 -0.5226
vn -0.0000 -0.8473 -0.5311
vn -0.0144 -0.8528 -0.5221
vn -0.0152 -0.8531 -0.5215
vn 0.0152 -0.8531 -0.5215
vn -0.0143 -0.8527 -0.5222
vn 0.0142 -0.8527 -0.5222
vn 0.0136 -0.8525 -0.5226
vn -0.0128 -0.8521 -0.5232
vn 0.0128 -0.8521 -0.5232
vn -0.0124 -0.8519 -0.5235
vn 0.0125 -0.8519 -0.5236
vn -0.0117 -0.8516 -0.5241
vn 0.0117 -0.8516 -0.5241
vn 0.0115 -0.8514 -0.5244
vn -0.0109 -0.8511 -0.5250
vn 0.0109 -0.8511 -0.5249
vn -0.0106 -0.8509 -0.5252
vn 0.0106 -0.8509 -0.5253
vn -0.0103 -0.8506 -0.5256
vn 0.0103 -0.8506 -0.5256
vn -0.0101 -0.8504 -0.5260
vn 0.0100 -0.8504 -0.5260
vn -0.0097 -0.8501 -0.5265
vn 0.0097 -0.8501 -0.5265
vn -0.0095 -0.8498 -0.5270
vn 0.0095 -0.8498 -0.5270
vn -0.0090 -0.8493 -0.5279
vn 0.0090 -0.8493 -0.5279
vn -0.0088 -0.8489 -0.5284
vn 0.0088 -0.8489 -0.5284
vn -0.0086 -0.8486 -0.5290
vn 0.0086 -0.8486 -0.5290
vn -0.0084 -0.8482 -0.5296
vn 0.0084 -0.8482 -0.5296
vn 0.0083 -0.8478 -0.5302
vn -0.0081 -0.8473 -0.5311
vn -0.0080 -0.8468 -0.5319
vn 0.0080 -0.8468 -0.5319
vn -0.0153 -0.8389 -0.5440
vn -0.0131 -0.8394 -0.5433
vn -0.0112 -0.8399 -0.5427
vn -0.0097 -0.8402 -0.5422
vn -0.0080 -0.8405 -0.5418
vn 0.0137 -0.8525 -0.5226
vn -0.0054 -0.8408 -0.5413
vn 0.0080 -0.8405 -0.5418
vn -0.0039 -0.8410 -0.5410
vn 0.0118 -0.8516 -0.5240
vn -0.0030 -0.8411 -0.5409
vn -0.0016 -0.8411 -0.5408
vn 0.0110 -0.8511 -0.5249
vn -0.0007 -0.8412 -0.5408
vn 0.0029 -0.8411 -0.5409
vn 0.0005 -0.8412 -0.5408
vn -0.0100 -0.8504 -0.5261
vn 0.0065 -0.8407 -0.5415
vn 0.0014 -0.8545 -0.5194
vn -0.0000 -0.8516 -0.5242
vn -0.0000 -0.8516 -0.5241
vn -0.0212 -0.8552 -0.5179
vn -0.0015 -0.8527 -0.5225
vn -0.0082 -0.8440 -0.5362
vn -0.0000 -0.8526 -0.5226
vn -0.0024 -0.8511 -0.5250
vn -0.0048 -0.8533 -0.5214
vn -0.0050 -0.8533 -0.5215
vn -0.0051 -0.8533 -0.5214
vn -0.0021 -0.8551 -0.5184
vn 0.0009 -0.8525 -0.5228
vn -0.0000 -0.8534 -0.5213
vn -0.0129 -0.8522 -0.5231
vn 0.0025 -0.8393 -0.5436
vn -0.0018 -0.8542 -0.5200
vn -0.0390 -0.8572 -0.5136
vn -0.0510 -0.8456 -0.5314
vn -0.0961 -0.8055 -0.5847
vn -0.1552 -0.7530 -0.6395
vn -0.2060 -0.7069 -0.6766
vn -0.0076 -0.8542 -0.5200
vn -0.0019 -0.8541 -0.5201
vn -0.0000 -0.8543 -0.5199
vn -0.0000 -0.8552 -0.5183
vn -0.0629 -0.8891 -0.4534
vn -0.0332 0.5740 -0.8182
vn -0.0081 -0.8435 -0.5370
vn -0.0000 -0.8990 -0.4379
vn -0.0065 -0.8533 -0.5215
vn -0.0003 -0.8524 -0.5229
vn 0.0020 -0.8460 -0.5332
vn 0.0019 -0.8461 -0.5330
vn 0.0015 -0.8469 -0.5318
vn 0.0092 -0.8486 -0.5289
vn -0.0000 0.7924 0.6100
vn -0.0000 0.7954 0.6061
vn 0.0001 0.7953 0.6062
vn 0.0004 0.7954 0.6060
vn -0.0000 0.7953 0.6062
vn -0.0000 0.7955 0.6060
vn -0.0031 0.7883 0.6153
vn 0.0001 0.7954 0.6061
vn -0.0001 0.7954 0.6061
vn -0.0000 0.7954 0.6060
vn 0.0961 0.7413 0.6643
vn 0.0019 0.7958 0.6056
vn 0.0002 0.7955 0.6060
vn 0.0111 0.7905 0.6123
vn 0.0076 0.7971 0.6037
vn 0.0004 0.7953 0.6062
vn 0.0001 0.7954 0.6060
vn -0.0002 0.7954 0.6060
vn 0.0003 0.7953 0.6062
vn 0.0002 0.7953 0.6062
vn 0.0111 0.7953 0.6061
vn 0.0076 0.7924 0.6099
vn 0.0107 0.7903 0.6126
vn -0.0001 0.7954 0.6060
vn 0.0081 0.7929 0.6093
vn 0.0003 0.7955 0.6059
vn 0.0084 0.7932 0.6090
vn 0.0003 0.7956 0.6059
vn 0.0086 0.7933 0.6087
vn 0.0089 0.7936 0.6084
vn 0.0004 0.7955 0.6060
vn 0.0098 0.7937 0.6082
vn 0.0003 0.7955 0.6060
vn 0.0100 0.7940 0.6078
vn 0.0102 0.7942 0.6075
vn -0.0000 0.7955 0.6059
vn 0.0079 0.7927 0.6095
vn 0.0004 0.7954 0.6061
vn -0.0000 0.7951 0.6065
vn 0.0320 0.8045 0.5930
vn 0.2060 0.6338 0.7456
vn 0.0204 0.8198 0.5723
vn 0.0509 0.7866 0.6153
vn 0.1551 0.6834 0.7134
vn 0.0058 0.7893 0.6140
vn -0.0046 0.7802 0.6255
vn -0.0006 0.7928 0.6094
vn 0.0003 0.7887 0.6148
vn -0.0026 0.7880 0.6156
vn -0.0040 0.7875 0.6163
vn -0.0039 0.7875 0.6162
vn 0.0100 -0.8426 -0.5385
vn -0.9669 0.2497 -0.0530
vn -0.9884 0.0745 -0.1323
vn -0.8895 0.2245 -0.3981
vn -0.6968 0.3521 -0.6249
vn -0.4524 0.4376 -0.7771
vn -0.1578 0.4845 -0.8605
vn 0.0006 -0.8553 -0.5182
vn 0.0144 -0.9519 -0.3060
vn -0.0030 -0.8484 -0.5294
vn -0.0645 0.8282 0.5568
vn -0.0000 0.7076 0.7066
vn -0.3201 0.8517 0.4148
vn -0.7539 0.6455 0.1220
vn -0.9862 0.0559 -0.1561
vn -0.0290 -0.3708 0.9283
vn 0.0595 -0.9569 -0.2842
vn -0.0000 -0.9545 -0.2981
vn -0.0332 0.6524 -0.7571
vn -0.0332 0.6877 -0.7253
vn -0.0332 0.7253 -0.6877
vn -0.0332 0.6142 -0.7885
vn -0.0332 0.6891 0.7239
vn -0.0332 0.6524 0.7571
vn -0.0332 0.6142 0.7885
vn -0.0332 0.5722 0.8194
vn -0.0332 0.5362 0.8434
vn -0.0332 0.4936 0.8691
vn -0.0332 0.4491 0.8929
vn -0.0332 0.4044 0.9140
vn -0.0332 0.3615 0.9318
vn -0.0332 0.3120 0.9495
vn -0.0332 0.2689 0.9626
vn -0.0332 0.2171 0.9756
vn -0.0332 0.1717 0.9846
vn -0.0332 0.1236 0.9918
vn -0.0332 0.0725 0.9968
vn -0.0332 0.0241 0.9992
vn -0.0332 -0.0242 0.9992
vn -0.0332 -0.0722 0.9968
vn -0.0332 -0.1240 0.9917
vn -0.0332 -0.1712 0.9847
vn -0.0332 -0.2182 0.9753
vn -0.0332 -0.2682 0.9628
vn -0.0332 -0.3120 0.9495
vn -0.0307 -0.3669 0.9297
vn -0.0332 0.7885 -0.6142
vn -0.0332 0.8182 -0.5740
vn -0.0332 0.8434 -0.5362
vn -0.0332 0.8691 -0.4936
vn -0.0332 0.8929 -0.4491
vn -0.0332 0.9140 -0.4044
vn -0.0332 0.9318 -0.3615
vn -0.0332 0.9503 -0.3096
vn -0.0332 0.9619 -0.2714
vn -0.0332 0.9756 -0.2171
vn -0.0332 0.9846 -0.1717
vn -0.0332 0.9921 -0.1210
vn -0.0332 0.9966 -0.0752
vn -0.0332 0.9992 -0.0241
vn -0.0332 0.9992 0.0242
vn -0.0332 0.9966 0.0748
vn -0.0332 0.9921 0.1213
vn -0.0332 0.9847 0.1712
vn -0.0332 0.9753 0.2182
vn -0.0332 0.9621 0.2707
vn -0.0332 0.9503 0.3096
vn -0.0332 0.9318 0.3615
vn -0.0332 0.9149 0.4024
vn -0.0332 0.8918 0.4513
vn -0.0332 0.8691 0.4936
vn -0.0332 0.8450 0.5338
vn -0.0332 0.8164 0.5766
vn -0.0000 0.9410 0.3385
vn -0.0000 -0.2953 0.9554
vn -0.0000 0.2253 -0.9743
vn -0.0000 -0.9597 -0.2811
vn 0.0526 -0.9518 -0.3023
vn -0.0000 -0.2826 0.9592
vn -0.9928 -0.0305 0.1160
vn 0.0572 -0.9476 -0.3144
vn 0.9666 0.2364 0.0986
vn 0.9569 0.2772 0.0870
vn -0.0180 -0.6429 -0.7658
vn -0.0214 -0.4811 -0.8764
vn -0.0240 -0.3008 -0.9534
vn -0.0257 -0.1090 -0.9937
vn -0.0264 0.0871 -0.9959
vn -0.0261 0.2797 -0.9597
vn -0.0248 0.4617 -0.8867
vn -0.0225 0.6258 -0.7796
vn -0.0194 0.7660 -0.6426
vn -0.0155 0.8767 -0.4808
vn -0.0110 0.9537 -0.3006
vn -0.0061 0.9940 -0.1088
vn -0.0010 0.9962 0.0871
vn 0.0042 0.9601 0.2797
vn 0.0092 0.8870 0.4616
vn 0.0138 0.7799 0.6257
vn 0.0180 0.6428 0.7658
vn 0.0214 0.4811 0.8764
vn 0.0240 0.3008 0.9534
vn 0.0257 0.1090 0.9937
vn 0.0264 -0.0871 0.9959
vn 0.0261 -0.2797 0.9597
vn 0.0248 -0.4617 0.8867
vn 0.0225 -0.6259 0.7796
vn 0.0194 -0.7660 0.6426
vn 0.0155 -0.8767 0.4808
vn 0.0110 -0.9537 0.3006
vn 0.0061 -0.9940 0.1088
vn 0.0010 -0.9962 -0.0871
vn -0.0042 -0.9601 -0.2797
vn -0.0092 -0.8870 -0.4616
vn -0.0138 -0.7799 -0.6257
vn -0.9997 -0.0033 0.0262
vn -0.0009 -0.6439 -0.7651
vn -0.0008 -0.4823 -0.8760
vn -0.0007 -0.3021 -0.9533
vn -0.0006 -0.1103 -0.9939
vn -0.0005 0.0857 -0.9963
vn -0.0004 0.2784 -0.9605
vn -0.0002 0.4604 -0.8877
vn -0.0000 0.6248 -0.7808
vn 0.0001 0.7651 -0.6439
vn 0.0003 0.8760 -0.4823
vn 0.0005 0.9533 -0.3021
vn 0.0006 0.9939 -0.1104
vn 0.0007 0.9963 0.0857
vn 0.0008 0.9605 0.2784
vn 0.0009 0.8877 0.4604
vn 0.0009 0.7808 0.6248
vn 0.0009 0.6440 0.7651
vn 0.0008 0.4823 0.8760
vn 0.0007 0.3021 0.9533
vn 0.0006 0.1104 0.9939
vn 0.0005 -0.0857 0.9963
vn 0.0004 -0.2784 0.9605
vn 0.0002 -0.4604 0.8877
vn -0.0000 -0.6247 0.7808
vn -0.0001 -0.7651 0.6439
vn -0.0003 -0.8760 0.4823
vn -0.0005 -0.9533 0.3021
vn -0.0006 -0.9939 0.1104
vn -0.0007 -0.9963 -0.0857
vn -0.0008 -0.9605 -0.2784
vn -0.0009 -0.8877 -0.4604
vn -0.0009 -0.7808 -0.6247
vn -1.0000 0.0007 0.0006
vn -0.0126 -0.6445 -0.7645
vn -0.0131 -0.4829 -0.8756
vn -0.0131 -0.3028 -0.9530
vn -0.0126 -0.1110 -0.9937
vn -0.0116 0.0850 -0.9963
vn -0.0102 0.2777 -0.9606
vn -0.0083 0.4598 -0.8880
vn -0.0062 0.6242 -0.7812
vn -0.0038 0.7646 -0.6445
vn -0.0013 0.8757 -0.4829
vn 0.0013 0.9530 -0.3028
vn 0.0038 0.9938 -0.1111
vn 0.0062 0.9964 0.0849
vn 0.0083 0.9607 0.2776
vn 0.0101 0.8880 0.4597
vn 0.0116 0.7812 0.6241
vn 0.0125 0.6445 0.7645
vn 0.0131 0.4829 0.8756
vn 0.0131 0.3028 0.9530
vn 0.0126 0.1111 0.9937
vn 0.0116 -0.0850 0.9963
vn 0.0102 -0.2777 0.9606
vn 0.0083 -0.4598 0.8880
vn 0.0062 -0.6242 0.7812
vn 0.0038 -0.7646 0.6445
vn 0.0013 -0.8757 0.4829
vn -0.0013 -0.9530 0.3028
vn -0.0038 -0.9938 0.1111
vn -0.0062 -0.9964 -0.0849
vn -0.0083 -0.9607 -0.2776
vn -0.0101 -0.8880 -0.4597
vn -0.0116 -0.7813 -0.6241
vn -0.9999 0.0052 0.0121
vn -1.0000 -0.0002 0.0004
vn -0.9997 0.0201 0.0159
vn -1.0000 0.0004 0.0003
vt 0.000000 0.000000
vt 1.000000 0.796696
vt 1.000000 0.500000
vt 0.968750 0.500000
vt 0.968750 0.798596
vt 0.968750 0.798596
vt 0.937500 0.500000
vt 0.937500 0.800116
vt 0.945508 0.799726
vt 0.937500 0.800116
vt 0.906250 0.500000
vt 0.906250 0.801198
vt 0.906250 0.801198
vt 0.875000 0.500000
vt 0.875000 0.801799
vt 0.875000 0.801800
vt 0.843750 0.500000
vt 0.843750 0.801898
vt 0.874170 0.801802
vt 0.812500 0.500000
vt 0.812500 0.801491
vt 0.812500 0.801491
vt 0.781250 0.500000
vt 0.781250 0.800591
vt 0.806389 0.801315
vt 0.750000 0.500000
vt 0.750000 0.799235
vt 0.718750 0.500000
vt 0.718750 0.797475
vt 0.732963 0.798275
vt 0.687500 0.500000
vt 0.687500 0.795378
vt 0.718750 0.797475
vt 0.656250 0.500000
vt 0.656250 0.793024
vt 0.625000 0.500000
vt 0.625000 0.790505
vt 0.593750 0.500000
vt 0.593750 0.787916
vt 0.618766 0.789988
vt 0.625000 0.790504
vt 0.562500 0.500000
vt 0.562500 0.785358
vt 0.593750 0.787916
vt 0.531250 0.500000
vt 0.531250 0.782929
vt 0.532692 0.783041
vt 0.562500 0.785358
vt 0.500000 0.500000
vt 0.500000 0.780722
vt 0.531250 0.782929
vt 0.468750 0.500000
vt 0.468750 0.778822
vt 0.437500 0.500000
vt 0.437500 0.777302
vt 0.468750 0.778822
vt 0.406250 0.500000
vt 0.406250 0.776220
vt 0.435030 0.777216
vt 0.375000 0.500000
vt 0.375000 0.775618
vt 0.377520 0.775666
vt 0.406250 0.776220
vt 0.343750 0.500000
vt 0.343750 0.775519
vt 0.375000 0.775618
vt 0.312500 0.500000
vt 0.312500 0.775928
vt 0.325388 0.775759
vt 0.343750 0.775519
vt 0.281250 0.500000
vt 0.281250 0.776827
vt 0.250000 0.500000
vt 0.250000 0.778183
vt 0.269647 0.777330
vt 0.250000 0.778183
vt 0.218750 0.500000
vt 0.218750 0.779943
vt 0.187500 0.500000
vt 0.187500 0.782041
vt 0.188906 0.781946
vt 0.156250 0.500000
vt 0.156250 0.784394
vt 0.156250 0.784394
vt 0.125000 0.500000
vt 0.125000 0.786914
vt 0.125000 0.786913
vt 0.093750 0.500000
vt 0.093750 0.789502
vt 0.093750 0.789502
vt 0.062500 0.500000
vt 0.062500 0.792060
vt 0.062500 0.792060
vt 0.031250 0.500000
vt 0.031250 0.794489
vt 0.043253 0.793556
vt 0.000000 0.500000
vt 0.000000 0.796696
vt 0.949553 0.383337
vt 0.919706 0.419706
vt 0.883337 0.449553
vt 0.841844 0.471731
vt 0.796822 0.485388
vt 0.750000 0.490000
vt 0.703179 0.485389
vt 0.658156 0.471731
vt 0.616663 0.449553
vt 0.580295 0.419706
vt 0.550447 0.383337
vt 0.528269 0.341844
vt 0.514612 0.296822
vt 0.510000 0.250000
vt 0.514611 0.203179
vt 0.528269 0.158156
vt 0.550447 0.116663
vt 0.580294 0.080294
vt 0.616663 0.050447
vt 0.658156 0.028269
vt 0.703178 0.014612
vt 0.750000 0.010000
vt 0.796822 0.014612
vt 0.841844 0.028269
vt 0.883337 0.050447
vt 0.919706 0.080294
vt 0.949553 0.116663
vt 0.971731 0.158156
vt 0.985388 0.203178
vt 0.990000 0.250000
vt 0.985388 0.296822
vt 0.971731 0.341844
vt 0.968750 0.774987
vt 1.000000 0.775000
vt 0.937500 0.774956
vt 0.952744 0.774971
vt 0.968750 0.774987
vt 0.906250 0.774911
vt 0.875000 0.774852
vt 0.843750 0.774782
vt 0.843750 0.774782
vt 0.812500 0.774704
vt 0.841723 0.774777
vt 0.781250 0.774621
vt 0.812500 0.774704
vt 0.750000 0.774534
vt 0.718750 0.774450
vt 0.748033 0.774529
vt 0.687500 0.774370
vt 0.718750 0.774450
vt 0.656250 0.774297
vt 0.625000 0.774235
vt 0.652337 0.774289
vt 0.593750 0.774186
vt 0.594504 0.774187
vt 0.625000 0.774235
vt 0.562500 0.774150
vt 0.531250 0.774131
vt 0.542280 0.774138
vt 0.562500 0.774150
vt 0.500000 0.774128
vt 0.531250 0.774131
vt 0.468750 0.774143
vt 0.485940 0.774135
vt 0.437500 0.774173
vt 0.406250 0.774218
vt 0.437500 0.774173
vt 0.375000 0.774277
vt 0.402615 0.774225
vt 0.406250 0.774218
vt 0.343750 0.774347
vt 0.312500 0.774425
vt 0.281250 0.774508
vt 0.250000 0.774594
vt 0.266308 0.774549
vt 0.218750 0.774679
vt 0.187500 0.774759
vt 0.156250 0.774832
vt 0.166310 0.774808
vt 0.125000 0.774893
vt 0.125000 0.774893
vt 0.093750 0.774943
vt 0.094345 0.774942
vt 0.062500 0.774978
vt 0.031250 0.774998
vt 0.000000 0.775000
vt 0.026457 0.774998
vt 1.000000 0.800919
vt 0.968750 0.801295
vt 0.937500 0.801422
vt 0.906250 0.801297
vt 0.919585 0.801351
vt 0.875000 0.800925
vt 0.906250 0.801297
vt 0.868310 0.800939
vt 0.843750 0.800449
vt 0.812500 0.799625
vt 0.823048 0.799902
vt 0.781250 0.798632
vt 0.812500 0.799625
vt 0.750000 0.797505
vt 0.718750 0.796291
vt 0.750000 0.797505
vt 0.687500 0.795036
vt 0.700618 0.795563
vt 0.718750 0.796291
vt 0.656250 0.793789
vt 0.687500 0.795036
vt 0.625000 0.792595
vt 0.656250 0.793789
vt 0.593750 0.791502
vt 0.598840 0.791680
vt 0.625000 0.792595
vt 0.562500 0.790550
vt 0.586842 0.791291
vt 0.593750 0.791502
vt 0.531250 0.789776
vt 0.500000 0.789211
vt 0.509617 0.789385
vt 0.531250 0.789776
vt 0.468750 0.788879
vt 0.437500 0.788790
vt 0.406250 0.788947
vt 0.375000 0.789344
vt 0.406250 0.788947
vt 0.343750 0.789969
vt 0.312500 0.790793
vt 0.343750 0.789969
vt 0.281250 0.791788
vt 0.312500 0.790793
vt 0.250000 0.792914
vt 0.218750 0.794128
vt 0.218750 0.794128
vt 0.187500 0.795384
vt 0.187500 0.795384
vt 0.156250 0.796486
vt 0.156582 0.796620
vt 0.172987 0.795964
vt 0.156250 0.796486
vt 0.125000 0.797364
vt 0.135595 0.796947
vt 0.125000 0.797364
vt 0.093750 0.798500
vt 0.093750 0.798499
vt 0.062500 0.799495
vt 0.062500 0.799495
vt 0.031250 0.800312
vt 0.031250 0.800312
vt 0.000000 0.800919
s 0
f 359/1/1 358/1/1 150/1/1 151/1/1
f 100/1/2 164/1/2 98/1/2
f 164/1/2 100/1/2 165/1/2
f 98/1/2 166/1/2 104/1/2
f 166/1/2 98/1/2 164/1/2
f 104/1/2 167/1/2 108/1/2
f 167/1/2 104/1/2 166/1/2
f 166/1/3 168/1/3 167/1/3
f 168/1/3 166/1/3 169/1/3
f 164/1/4 169/1/4 166/1/4
f 169/1/4 164/1/4 170/1/4
f 165/1/5 170/1/5 164/1/5
f 170/1/5 165/1/5 171/1/5
f 108/1/6 168/1/6 152/1/6
f 168/1/7 108/1/7 167/1/7
f 170/1/8 155/1/8 169/1/8
f 155/1/8 170/1/8 154/1/8
f 169/1/8 152/1/8 168/1/8
f 152/1/8 169/1/8 155/1/8
f 171/1/8 154/1/8 170/1/8
f 154/1/8 171/1/8 153/1/8
f 165/1/9 153/1/9 171/1/9
f 153/1/10 165/1/10 100/1/10
f 145/1/2 148/1/2 226/1/2 223/1/2
f 132/1/2 208/1/2 233/1/2 158/1/2
f 114/1/2 189/1/2 190/1/2 115/1/2
f 100/1/2 98/1/2 173/1/2 175/1/2
f 114/1/2 125/1/2 201/1/2 189/1/2
f 99/1/2 174/1/2 215/1/2 139/1/2
f 98/1/2 104/1/2 179/1/2 173/1/2
f 142/1/2 218/1/2 238/1/2 163/1/2
f 144/1/2 151/1/2 229/1/2 222/1/2
f 140/1/11 221/1/11 240/1/11
f 133/1/2 145/1/2 223/1/2 209/1/2
f 106/1/2 107/1/2 182/1/2 181/1/2
f 121/1/2 197/1/2 235/1/2 160/1/2
f 142/1/2 149/1/2 227/1/2 218/1/2
f 150/1/2 228/1/2 229/1/2 151/1/2
f 112/1/12 126/1/12 726/1/12 202/1/12 187/1/12
f 134/1/2 210/1/2 230/1/2 156/1/2
f 148/1/2 159/1/2 234/1/2 226/1/2
f 112/1/2 187/1/2 205/1/2 129/1/2
f 97/1/2 172/1/2 174/1/2 99/1/2
f 97/1/2 100/1/2 175/1/2 172/1/2
f 121/1/2 122/1/2 198/1/2 197/1/2
f 721/1/2 719/1/2 728/1/2 727/1/2
f 125/1/2 130/1/2 206/1/2 201/1/2
f 120/1/2 124/1/2 200/1/2 196/1/2
f 137/1/2 139/1/2 215/1/2 213/1/2
f 105/1/2 180/1/2 183/1/2 108/1/2
f 143/1/13 162/1/13 237/1/13 219/1/13
f 105/1/2 109/1/2 184/1/2 180/1/2
f 143/1/14 219/1/14 239/1/14 140/1/14
f 101/1/2 106/1/2 181/1/2 176/1/2
f 134/1/2 135/1/2 211/1/2 210/1/2
f 101/1/2 176/1/2 186/1/2 111/1/2
f 140/1/15 239/1/15 220/1/15
f 150/1/2 163/1/2 238/1/2 228/1/2
f 193/1/16 202/1/16 723/1/16 722/1/16
f 113/1/2 115/1/2 190/1/2 188/1/2
f 113/1/2 188/1/2 204/1/2 128/1/2
f 104/1/2 108/1/2 183/1/2 179/1/2
f 118/1/2 194/1/2 195/1/2 119/1/2
f 103/1/2 144/1/2 222/1/2 178/1/2
f 118/1/2 129/1/2 205/1/2 194/1/2
f 147/1/2 225/1/2 237/1/2 162/1/2
f 140/1/15 220/1/15 216/1/15
f 136/1/2 137/1/2 213/1/2 212/1/2
f 132/1/2 156/1/2 230/1/2 208/1/2
f 107/1/2 117/1/2 192/1/2 182/1/2
f 136/1/2 212/1/2 214/1/2 138/1/2
f 102/1/2 103/1/2 178/1/2 177/1/2
f 158/1/2 233/1/2 234/1/2 159/1/2
f 123/1/2 199/1/2 200/1/2 124/1/2
f 123/1/2 127/1/2 203/1/2 199/1/2
f 131/1/2 133/1/2 209/1/2 207/1/2
f 135/1/2 138/1/2 214/1/2 211/1/2
f 140/1/17 232/1/17 221/1/17
f 109/1/2 111/1/2 186/1/2 184/1/2
f 116/1/2 120/1/2 196/1/2 191/1/2
f 122/1/2 131/1/2 207/1/2 198/1/2
f 141/1/2 217/1/2 231/1/2 157/1/2
f 119/1/2 195/1/2 206/1/2 130/1/2
f 141/1/2 161/1/2 236/1/2 217/1/2
f 140/1/18 216/1/18 232/1/18
f 127/1/2 128/1/2 204/1/2 203/1/2
f 116/1/2 191/1/2 192/1/2 117/1/2
f 146/1/2 160/1/2 235/1/2 224/1/2
f 149/1/2 157/1/2 231/1/2 227/1/2
f 102/1/2 177/1/2 225/1/2 147/1/2
f 146/1/2 224/1/2 236/1/2 161/1/2
f 201/1/19 206/1/19 275/1/19 270/1/19
f 216/1/20 285/1/20 301/1/20 232/1/20
f 219/1/21 237/1/21 306/1/21 288/1/21
f 219/1/22 288/1/22 308/1/22 239/1/22
f 210/1/23 211/1/23 280/1/23 279/1/23
f 224/1/24 235/1/24 304/1/24 293/1/24
f 224/1/25 293/1/25 305/1/25 236/1/25
f 193/1/16 262/1/16 271/1/16 202/1/16
f 179/1/26 183/1/26 252/1/26 248/1/26
f 178/1/27 222/1/27 291/1/27 247/1/27
f 189/1/28 258/1/28 259/1/28 190/1/28
f 189/1/29 201/1/29 270/1/29 258/1/29
f 218/1/30 287/1/30 307/1/30 238/1/30
f 211/1/31 214/1/31 283/1/31 280/1/31
f 197/1/32 266/1/32 304/1/32 235/1/32
f 218/1/33 227/1/33 296/1/33 287/1/33
f 191/1/34 196/1/34 265/1/34 260/1/34
f 226/1/35 234/1/35 303/1/35 295/1/35
f 217/1/36 286/1/36 300/1/36 231/1/36
f 217/1/37 236/1/37 305/1/37 286/1/37
f 197/1/38 198/1/38 267/1/38 266/1/38
f 203/1/39 204/1/39 273/1/39 272/1/39
f 191/1/40 260/1/40 261/1/40 192/1/40
f 176/1/41 181/1/41 250/1/41 245/1/41
f 176/1/42 245/1/42 255/1/42 186/1/42
f 220/1/43 239/1/43 308/1/43 289/1/43
f 174/1/44 243/1/44 284/1/44 215/1/44
f 209/1/45 223/1/45 292/1/45 278/1/45
f 194/1/46 263/1/46 264/1/46 195/1/46
f 194/1/47 205/1/47 274/1/47 263/1/47
f 181/1/48 182/1/48 251/1/48 250/1/48
f 225/1/49 294/1/49 306/1/49 237/1/49
f 208/1/50 230/1/50 299/1/50 277/1/50
f 212/1/51 213/1/51 282/1/51 281/1/51
f 228/1/52 297/1/52 298/1/52 229/1/52
f 212/1/53 281/1/53 283/1/53 214/1/53
f 185/1/54 254/1/54 262/1/54 193/1/54
f 177/1/55 178/1/55 247/1/55 246/1/55
f 233/1/56 302/1/56 303/1/56 234/1/56
f 196/1/57 200/1/57 269/1/57 265/1/57
f 180/1/58 249/1/58 252/1/58 183/1/58
f 199/1/59 268/1/59 269/1/59 200/1/59
f 180/1/60 184/1/60 253/1/60 249/1/60
f 199/1/61 203/1/61 272/1/61 268/1/61
f 184/1/62 186/1/62 255/1/62 253/1/62
f 221/1/63 232/1/63 301/1/63 290/1/63
f 198/1/64 207/1/64 276/1/64 267/1/64
f 227/1/65 231/1/65 300/1/65 296/1/65
f 228/1/66 238/1/66 307/1/66 297/1/66
f 195/1/67 264/1/67 275/1/67 206/1/67
f 177/1/68 246/1/68 294/1/68 225/1/68
f 188/1/69 190/1/69 259/1/69 257/1/69
f 223/1/70 226/1/70 295/1/70 292/1/70
f 222/1/71 229/1/71 298/1/71 291/1/71
f 188/1/72 257/1/72 273/1/72 204/1/72
f 208/1/73 277/1/73 302/1/73 233/1/73
f 175/1/74 173/1/74 242/1/74 244/1/74
f 173/1/75 179/1/75 248/1/75 242/1/75
f 187/1/76 202/1/76 271/1/76 256/1/76
f 221/1/77 290/1/77 309/1/77 240/1/77
f 187/1/78 256/1/78 274/1/78 205/1/78
f 216/1/79 220/1/79 289/1/79 285/1/79
f 213/1/80 215/1/80 284/1/80 282/1/80
f 182/1/81 192/1/81 261/1/81 251/1/81
f 210/1/82 279/1/82 299/1/82 230/1/82
f 207/1/83 209/1/83 278/1/83 276/1/83
f 172/1/84 241/1/84 243/1/84 174/1/84
f 172/1/85 175/1/85 244/1/85 241/1/85
f 708/1/86 703/1/86 704/1/86
f 293/1/8 304/1/8 364/1/8 354/1/8
f 293/1/8 354/1/8 365/1/8 305/1/8
f 262/1/8 327/1/8 336/1/8 271/1/8
f 248/1/8 252/1/8 152/1/8 155/1/8
f 247/1/8 291/1/8 352/1/8 314/1/8
f 258/1/8 323/1/8 324/1/8 259/1/8
f 287/1/8 351/1/8 367/1/8 307/1/8
f 266/1/8 331/1/8 364/1/8 304/1/8
f 287/1/8 296/1/8 357/1/8 351/1/8
f 260/1/8 265/1/8 330/1/8 325/1/8
f 295/1/8 303/1/8 363/1/8 356/1/8
f 286/1/8 350/1/8 361/1/8 300/1/8
f 286/1/8 305/1/8 365/1/8 350/1/8
f 266/1/8 267/1/8 332/1/8 331/1/8
f 272/1/8 273/1/8 338/1/8 337/1/8
f 260/1/8 325/1/8 326/1/8 261/1/8
f 245/1/8 250/1/8 316/1/8 312/1/8
f 245/1/8 312/1/8 320/1/8 255/1/8
f 290/1/87 301/1/87 702/1/87
f 278/1/8 292/1/8 353/1/8 343/1/8
f 250/1/8 251/1/8 317/1/8 316/1/8
f 277/1/8 299/1/8 360/1/8 342/1/8
f 297/1/8 358/1/8 359/1/8 298/1/8
f 254/1/8 718/1/8 319/1/8 327/1/8 262/1/8
f 246/1/8 247/1/8 314/1/8 313/1/8
f 302/1/8 362/1/8 363/1/8 303/1/8
f 265/1/8 269/1/8 334/1/8 330/1/8
f 249/1/8 315/1/8 152/1/8 252/1/8
f 268/1/8 333/1/8 334/1/8 269/1/8
f 249/1/8 253/1/8 318/1/8 315/1/8
f 268/1/8 272/1/8 337/1/8 333/1/8
f 253/1/8 255/1/8 320/1/8 318/1/8
f 681/1/88 140/1/88 704/1/88 703/1/88
f 267/1/8 276/1/8 341/1/8 332/1/8
f 296/1/8 300/1/8 361/1/8 357/1/8
f 297/1/8 307/1/8 367/1/8 358/1/8
f 246/1/8 313/1/8 355/1/8 294/1/8
f 257/1/8 259/1/8 324/1/8 322/1/8
f 292/1/8 295/1/8 356/1/8 353/1/8
f 291/1/8 298/1/8 359/1/8 352/1/8
f 257/1/8 322/1/8 338/1/8 273/1/8
f 277/1/8 342/1/8 362/1/8 302/1/8
f 244/1/8 242/1/8 154/1/8 153/1/8
f 242/1/8 248/1/8 155/1/8 154/1/8
f 520/1/89 681/1/89 703/1/89 709/1/89
f 251/1/8 261/1/8 326/1/8 317/1/8
f 276/1/8 278/1/8 343/1/8 341/1/8
f 241/1/8 310/1/8 311/1/8 243/1/8
f 241/1/8 244/1/8 153/1/8 310/1/8
f 425/1/90 586/1/90 587/1/90 426/1/90
f 526/1/91 528/1/91 689/1/91 687/1/91
f 487/1/92 648/1/92 649/1/92 488/1/92
f 520/1/93 521/1/93 682/1/93 681/1/93
f 377/1/94 538/1/94 678/1/94 517/1/94
f 436/1/95 597/1/95 598/1/95 437/1/95
f 431/1/96 592/1/96 629/1/96 468/1/96
f 388/1/97 438/1/97 599/1/97 549/1/97
f 488/1/98 649/1/98 650/1/98 489/1/98
f 381/1/99 383/1/99 544/1/99 542/1/99
f 524/1/100 527/1/100 688/1/100 685/1/100
f 433/1/101 594/1/101 596/1/101 435/1/101
f 498/1/102 659/1/102 660/1/102 499/1/102
f 390/1/103 551/1/103 571/1/103 410/1/103
f 481/1/104 642/1/104 643/1/104 482/1/104
f 400/1/105 561/1/105 641/1/105 480/1/105
f 440/1/106 601/1/106 602/1/106 441/1/106
f 402/1/107 563/1/107 565/1/107 404/1/107
f 523/1/108 684/1/108 686/1/108 525/1/108
f 384/1/109 545/1/109 546/1/109 385/1/109
f 392/1/110 553/1/110 555/1/110 394/1/110
f 490/1/111 651/1/111 652/1/111 491/1/111
f 460/1/112 462/1/112 623/1/112 621/1/112
f 386/1/113 547/1/113 548/1/113 387/1/113
f 394/1/114 555/1/114 556/1/114 395/1/114
f 386/1/115 388/1/115 549/1/115 547/1/115
f 456/1/116 617/1/116 618/1/116 457/1/116
f 434/1/117 502/1/117 663/1/117 595/1/117
f 404/1/118 565/1/118 566/1/118 405/1/118
f 517/1/94 678/1/94 679/1/94 518/1/94
f 458/1/119 619/1/119 620/1/119 459/1/119
f 450/1/120 611/1/120 612/1/120 451/1/120
f 494/1/121 655/1/121 656/1/121 495/1/121
f 406/1/122 567/1/122 568/1/122 407/1/122
f 500/1/123 661/1/123 662/1/123 501/1/123
f 442/1/124 603/1/124 664/1/124 503/1/124
f 406/1/125 408/1/125 569/1/125 567/1/125
f 396/1/126 398/1/126 559/1/126 557/1/126
f 414/1/127 575/1/127 576/1/127 415/1/127
f 448/1/128 609/1/128 611/1/128 450/1/128
f 506/1/129 667/1/129 668/1/129 507/1/129
f 414/1/130 416/1/130 577/1/130 575/1/130
f 452/1/131 613/1/131 614/1/131 453/1/131
f 511/1/94 519/1/94 680/1/94 672/1/94
f 422/1/132 583/1/132 648/1/132 487/1/132
f 452/1/133 454/1/133 615/1/133 613/1/133
f 408/1/134 505/1/134 666/1/134 569/1/134
f 504/1/135 665/1/135 666/1/135 505/1/135
f 410/1/136 571/1/136 572/1/136 411/1/136
f 460/1/137 621/1/137 622/1/137 461/1/137
f 378/1/94 379/1/94 540/1/94 539/1/94
f 482/1/138 643/1/138 644/1/138 483/1/138
f 420/1/139 581/1/139 582/1/139 421/1/139
f 369/1/140 530/1/140 531/1/140 370/1/140
f 378/1/94 539/1/94 541/1/94 380/1/94
f 509/1/141 670/1/141 671/1/141 510/1/141
f 480/1/142 641/1/142 642/1/142 481/1/142
f 466/1/143 474/1/143 635/1/143 627/1/143
f 374/1/144 375/1/144 536/1/144 535/1/144
f 509/1/145 511/1/145 672/1/145 670/1/145
f 444/1/146 605/1/146 607/1/146 446/1/146
f 468/1/147 629/1/147 630/1/147 469/1/147
f 416/1/148 446/1/148 607/1/148 577/1/148
f 496/1/149 657/1/149 661/1/149 500/1/149
f 514/1/150 675/1/150 676/1/150 515/1/150
f 470/1/151 631/1/151 632/1/151 471/1/151
f 393/1/152 463/1/152 624/1/152 554/1/152
f 398/1/153 467/1/153 628/1/153 559/1/153
f 424/1/154 585/1/154 586/1/154 425/1/154
f 426/1/155 587/1/155 645/1/155 484/1/155
f 495/1/156 656/1/156 657/1/156 496/1/156
f 432/1/157 434/1/157 595/1/157 593/1/157
f 396/1/158 557/1/158 558/1/158 397/1/158
f 382/1/159 543/1/159 545/1/159 384/1/159
f 443/1/160 604/1/160 605/1/160 444/1/160
f 454/1/161 508/1/161 669/1/161 615/1/161
f 484/1/162 645/1/162 646/1/162 485/1/162
f 385/1/163 546/1/163 633/1/163 472/1/163
f 443/1/164 445/1/164 606/1/164 604/1/164
f 462/1/165 489/1/165 650/1/165 623/1/165
f 437/1/166 598/1/166 599/1/166 438/1/166
f 491/1/167 652/1/167 653/1/167 492/1/167
f 449/1/168 459/1/168 620/1/168 610/1/168
f 464/1/169 625/1/169 626/1/169 465/1/169
f 497/1/170 658/1/170 659/1/170 498/1/170
f 439/1/171 600/1/171 601/1/171 440/1/171
f 510/1/141 671/1/141 673/1/141 512/1/141
f 464/1/172 466/1/172 627/1/172 625/1/172
f 395/1/173 556/1/173 597/1/173 436/1/173
f 522/1/174 683/1/174 684/1/174 523/1/174
f 405/1/175 566/1/175 584/1/175 423/1/175
f 412/1/176 573/1/176 574/1/176 413/1/176
f 399/1/177 560/1/177 561/1/177 400/1/177
f 522/1/178 524/1/178 685/1/178 683/1/178
f 407/1/179 568/1/179 570/1/179 409/1/179
f 418/1/180 579/1/180 580/1/180 419/1/180
f 451/1/181 612/1/181 658/1/181 497/1/181
f 387/1/182 548/1/182 550/1/182 389/1/182
f 415/1/183 576/1/183 578/1/183 417/1/183
f 376/1/184 516/1/184 677/1/184 537/1/184
f 501/1/185 662/1/185 663/1/185 502/1/185
f 518/1/94 679/1/94 680/1/94 519/1/94
f 375/1/186 376/1/186 537/1/186 536/1/186
f 472/1/187 633/1/187 634/1/187 473/1/187
f 397/1/188 558/1/188 560/1/188 399/1/188
f 391/1/189 552/1/189 553/1/189 392/1/189
f 417/1/190 578/1/190 579/1/190 418/1/190
f 478/1/191 639/1/191 640/1/191 479/1/191
f 401/1/192 562/1/192 563/1/192 402/1/192
f 391/1/193 393/1/193 554/1/193 552/1/193
f 419/1/194 580/1/194 581/1/194 420/1/194
f 476/1/195 637/1/195 639/1/195 478/1/195
f 401/1/196 403/1/196 564/1/196 562/1/196
f 445/1/197 492/1/197 653/1/197 606/1/197
f 475/1/198 636/1/198 637/1/198 476/1/198
f 513/1/199 674/1/199 675/1/199 514/1/199
f 453/1/200 614/1/200 616/1/200 455/1/200
f 475/1/201 477/1/201 638/1/201 636/1/201
f 430/1/202 591/1/202 592/1/202 431/1/202
f 370/1/203 531/1/203 689/1/203 528/1/203
f 447/1/204 608/1/204 609/1/204 448/1/204
f 427/1/205 588/1/205 589/1/205 428/1/205
f 428/1/206 589/1/206 591/1/206 430/1/206
f 447/1/207 449/1/207 610/1/207 608/1/207
f 427/1/208 429/1/208 590/1/208 588/1/208
f 143/1/94 140/1/94 540/1/94 379/1/94
f 455/1/209 616/1/209 617/1/209 456/1/209
f 503/1/210 664/1/210 665/1/210 504/1/210
f 483/1/211 644/1/211 651/1/211 490/1/211
f 432/1/212 593/1/212 594/1/212 433/1/212
f 457/1/213 618/1/213 619/1/213 458/1/213
f 389/1/214 550/1/214 551/1/214 390/1/214
f 377/1/94 380/1/94 541/1/94 538/1/94
f 507/1/215 668/1/215 669/1/215 508/1/215
f 493/1/216 654/1/216 655/1/216 494/1/216
f 372/1/217 373/1/217 534/1/217 533/1/217
f 371/1/218 372/1/218 533/1/218 532/1/218
f 512/1/141 673/1/141 674/1/141 513/1/141
f 441/1/219 602/1/219 603/1/219 442/1/219
f 461/1/220 622/1/220 624/1/220 463/1/220
f 411/1/221 572/1/221 573/1/221 412/1/221
f 381/1/222 542/1/222 543/1/222 382/1/222
f 469/1/223 630/1/223 631/1/223 470/1/223
f 368/1/224 371/1/224 532/1/224 529/1/224
f 403/1/225 409/1/225 570/1/225 564/1/225
f 515/1/226 676/1/226 677/1/226 516/1/226
f 368/1/227 529/1/227 530/1/227 369/1/227
f 413/1/228 574/1/228 600/1/228 439/1/228
f 421/1/229 582/1/229 583/1/229 422/1/229
f 465/1/230 626/1/230 628/1/230 467/1/230
f 521/1/231 525/1/231 686/1/231 682/1/231
f 471/1/232 632/1/232 667/1/232 506/1/232
f 373/1/233 374/1/233 535/1/233 534/1/233
f 485/1/234 646/1/234 647/1/234 486/1/234
f 423/1/235 584/1/235 585/1/235 424/1/235
f 473/1/236 634/1/236 635/1/236 474/1/236
f 383/1/237 499/1/237 660/1/237 544/1/237
f 477/1/238 486/1/238 647/1/238 638/1/238
f 479/1/239 640/1/239 654/1/239 493/1/239
f 526/1/240 687/1/240 688/1/240 527/1/240
f 429/1/241 435/1/241 596/1/241 590/1/241
f 690/1/242 696/1/242 701/1/242 695/1/242
f 694/1/243 700/1/243 699/1/243 693/1/243
f 692/1/2 698/1/2 697/1/2 691/1/2
f 695/1/8 701/1/8 700/1/8 694/1/8
f 693/1/244 699/1/244 698/1/244 692/1/244
f 691/1/245 697/1/245 696/1/245 690/1/245
f 692/1/246 669/1/246 668/1/246
f 667/1/247 692/1/247 668/1/247
f 667/1/248 632/1/248 692/1/248
f 632/1/249 631/1/249 692/1/249
f 631/1/250 630/1/250 692/1/250
f 630/1/251 629/1/251 692/1/251
f 629/1/252 592/1/252 692/1/252
f 592/1/253 591/1/253 692/1/253
f 591/1/254 589/1/254 692/1/254
f 589/1/255 588/1/255 692/1/255
f 588/1/256 590/1/256 692/1/256
f 590/1/257 596/1/257 692/1/257
f 692/1/258 596/1/258 693/1/258
f 690/1/259 557/1/259 691/1/259
f 690/1/260 582/1/260 581/1/260
f 690/1/261 581/1/261 580/1/261
f 690/1/262 579/1/262 578/1/262
f 693/1/263 595/1/263 663/1/263
f 692/1/264 617/1/264 616/1/264
f 692/1/265 620/1/265 619/1/265
f 690/1/266 575/1/266 577/1/266
f 690/1/267 577/1/267 607/1/267
f 693/1/268 657/1/268 656/1/268
f 690/1/269 604/1/269 606/1/269
f 640/1/270 639/1/270 693/1/270
f 639/1/271 637/1/271 693/1/271
f 637/1/272 636/1/272 693/1/272
f 636/1/273 638/1/273 693/1/273
f 638/1/274 647/1/274 693/1/274
f 647/1/275 646/1/275 693/1/275
f 646/1/276 645/1/276 693/1/276
f 645/1/277 587/1/277 693/1/277
f 587/1/278 586/1/278 693/1/278
f 586/1/279 585/1/279 693/1/279
f 585/1/280 584/1/280 693/1/280
f 584/1/281 566/1/281 694/1/281
f 566/1/282 565/1/282 694/1/282
f 565/1/283 563/1/283 694/1/283
f 563/1/284 562/1/284 694/1/284
f 562/1/285 564/1/285 694/1/285
f 564/1/286 570/1/286 694/1/286
f 570/1/287 568/1/287 694/1/287
f 568/1/288 567/1/288 694/1/288
f 567/1/289 569/1/289 694/1/289
f 569/1/290 666/1/290 694/1/290
f 690/1/291 605/1/291 604/1/291
f 693/1/292 655/1/292 654/1/292
f 692/1/293 615/1/293 669/1/293
f 693/1/294 656/1/294 655/1/294
f 665/1/295 664/1/295 694/1/295
f 693/1/296 661/1/296 657/1/296
f 664/1/297 603/1/297 694/1/297
f 690/1/298 576/1/298 575/1/298
f 603/1/299 602/1/299 694/1/299
f 693/1/300 663/1/300 662/1/300
f 602/1/301 601/1/301 694/1/301
f 692/1/302 618/1/302 617/1/302
f 601/1/303 600/1/303 694/1/303
f 690/1/304 580/1/304 579/1/304
f 600/1/305 574/1/305 694/1/305
f 693/1/306 594/1/306 593/1/306
f 574/1/307 573/1/307 694/1/307
f 693/1/308 596/1/308 594/1/308
f 573/1/309 572/1/309 694/1/309
f 694/1/310 551/1/310 695/1/310
f 572/1/311 571/1/311 694/1/311
f 691/1/310 610/1/310 692/1/310
f 571/1/312 551/1/312 694/1/312
f 691/1/312 608/1/312 610/1/312
f 550/1/313 695/1/313 551/1/313
f 691/1/314 609/1/314 608/1/314
f 548/1/315 695/1/315 550/1/315
f 691/1/309 611/1/309 609/1/309
f 547/1/316 695/1/316 548/1/316
f 691/1/317 612/1/317 611/1/317
f 549/1/318 695/1/318 547/1/318
f 691/1/319 658/1/319 612/1/319
f 599/1/320 695/1/320 549/1/320
f 691/1/321 659/1/321 658/1/321
f 598/1/322 695/1/322 599/1/322
f 691/1/301 660/1/301 659/1/301
f 597/1/323 695/1/323 598/1/323
f 691/1/324 544/1/324 660/1/324
f 556/1/325 695/1/325 597/1/325
f 691/1/326 542/1/326 544/1/326
f 555/1/327 695/1/327 556/1/327
f 691/1/328 543/1/328 542/1/328
f 553/1/329 695/1/329 555/1/329
f 691/1/330 545/1/330 543/1/330
f 552/1/331 695/1/331 553/1/331
f 691/1/332 546/1/332 545/1/332
f 554/1/333 695/1/333 552/1/333
f 691/1/334 633/1/334 546/1/334
f 624/1/335 695/1/335 554/1/335
f 691/1/288 634/1/288 633/1/288
f 622/1/250 695/1/250 624/1/250
f 691/1/336 635/1/336 634/1/336
f 621/1/337 695/1/337 622/1/337
f 691/1/338 627/1/338 635/1/338
f 623/1/339 695/1/339 621/1/339
f 691/1/340 625/1/340 627/1/340
f 650/1/341 695/1/341 623/1/341
f 691/1/342 626/1/342 625/1/342
f 649/1/343 695/1/343 650/1/343
f 691/1/283 628/1/283 626/1/283
f 648/1/344 695/1/344 649/1/344
f 691/1/345 559/1/345 628/1/345
f 583/1/256 695/1/256 648/1/256
f 691/1/346 557/1/346 559/1/346
f 582/1/347 695/1/347 583/1/347
f 558/1/348 557/1/348 690/1/348
f 695/1/258 582/1/258 690/1/258
f 560/1/349 558/1/349 690/1/349
f 693/1/259 584/1/259 694/1/259
f 561/1/350 560/1/350 690/1/350
f 641/1/351 561/1/351 690/1/351
f 692/1/313 610/1/313 620/1/313
f 642/1/352 641/1/352 690/1/352
f 692/1/353 619/1/353 618/1/353
f 643/1/275 642/1/275 690/1/275
f 693/1/304 593/1/304 595/1/304
f 644/1/354 643/1/354 690/1/354
f 690/1/355 578/1/355 576/1/355
f 651/1/356 644/1/356 690/1/356
f 692/1/357 616/1/357 614/1/357
f 652/1/358 651/1/358 690/1/358
f 692/1/323 614/1/323 613/1/323
f 653/1/359 652/1/359 690/1/359
f 692/1/360 613/1/360 615/1/360
f 606/1/361 653/1/361 690/1/361
f 690/1/362 607/1/362 605/1/362
f 693/1/363 654/1/363 640/1/363
f 665/1/364 694/1/364 666/1/364
f 693/1/365 662/1/365 661/1/365
f 697/1/366 537/1/366 696/1/366
f 678/1/367 538/1/367 699/1/367
f 679/1/368 678/1/368 699/1/368
f 680/1/368 679/1/368 699/1/368
f 534/1/369 697/1/369 533/1/369
f 699/1/370 670/1/370 680/1/370
f 688/1/371 697/1/371 685/1/371
f 541/1/372 698/1/372 538/1/372
f 670/1/373 699/1/373 700/1/373
f 671/1/374 670/1/374 700/1/374
f 539/1/372 698/1/372 541/1/372
f 671/1/375 700/1/375 701/1/375
f 673/1/376 671/1/376 701/1/376
f 673/1/377 701/1/377 696/1/377
f 538/1/378 698/1/378 699/1/378
f 674/1/379 673/1/379 675/1/379
f 688/1/380 687/1/380 697/1/380
f 689/1/381 697/1/381 687/1/381
f 675/1/382 673/1/382 696/1/382
f 689/1/383 533/1/383 697/1/383
f 533/1/384 689/1/384 532/1/384
f 532/1/385 689/1/385 529/1/385
f 529/1/386 689/1/386 530/1/386
f 530/1/387 689/1/387 531/1/387
f 534/1/388 535/1/388 697/1/388
f 535/1/389 536/1/389 697/1/389
f 536/1/390 537/1/390 697/1/390
f 537/1/391 677/1/391 696/1/391
f 677/1/391 676/1/391 696/1/391
f 676/1/391 675/1/391 696/1/391
f 680/1/379 670/1/379 672/1/379
f 140/1/392 309/1/392 702/1/392 704/1/392
f 698/1/372 540/1/372 140/1/372
f 698/1/372 539/1/372 540/1/372
f 162/1/393 366/1/393 355/1/393 147/1/393
f 683/1/394 685/1/394 697/1/394
f 240/1/395 309/1/395 140/1/395
f 698/1/396 683/1/396 697/1/396
f 698/1/397 140/1/397 682/1/397
f 683/1/398 698/1/398 684/1/398
f 684/1/399 698/1/399 686/1/399
f 686/1/400 698/1/400 682/1/400
f 682/1/401 140/1/401 681/1/401
f 290/1/87 702/1/87 309/1/87
f 709/1/402 712/1/402 366/1/402 520/1/402
f 514/1/403 512/1/403 513/1/403
f 390/1/403 510/1/403 389/1/403
f 512/1/403 487/1/403 488/1/403
f 511/1/403 509/1/403 519/1/403
f 380/1/403 469/1/403 470/1/403
f 420/1/404 512/1/404 419/1/404
f 512/1/403 488/1/403 489/1/403
f 449/1/405 162/1/405 459/1/405
f 386/1/406 510/1/406 388/1/406
f 387/1/407 510/1/407 386/1/407
f 162/1/408 521/1/408 520/1/408
f 512/1/403 460/1/403 461/1/403
f 410/1/403 411/1/403 510/1/403
f 411/1/403 412/1/403 510/1/403
f 412/1/403 413/1/403 510/1/403
f 413/1/407 439/1/407 510/1/407
f 439/1/403 440/1/403 510/1/403
f 442/1/403 509/1/403 441/1/403
f 503/1/403 509/1/403 442/1/403
f 515/1/409 445/1/409 443/1/409
f 515/1/410 416/1/410 414/1/410
f 441/1/411 509/1/411 440/1/411
f 375/1/403 396/1/403 376/1/403
f 504/1/411 509/1/411 503/1/411
f 512/1/403 391/1/403 510/1/403
f 505/1/407 509/1/407 504/1/407
f 512/1/409 393/1/409 391/1/409
f 408/1/403 509/1/403 505/1/403
f 512/1/403 463/1/403 393/1/403
f 406/1/403 509/1/403 408/1/403
f 512/1/403 461/1/403 463/1/403
f 407/1/407 509/1/407 406/1/407
f 512/1/407 489/1/407 462/1/407
f 409/1/403 509/1/403 407/1/403
f 512/1/403 462/1/403 460/1/403
f 403/1/411 509/1/411 409/1/411
f 510/1/403 438/1/403 388/1/403
f 401/1/411 509/1/411 403/1/411
f 510/1/403 437/1/403 438/1/403
f 512/1/407 421/1/407 422/1/407
f 512/1/411 422/1/411 487/1/411
f 528/1/412 371/1/412 368/1/412
f 510/1/407 436/1/407 437/1/407
f 512/1/403 420/1/403 421/1/403
f 510/1/403 395/1/403 436/1/403
f 510/1/403 394/1/403 395/1/403
f 402/1/403 509/1/403 401/1/403
f 515/1/410 446/1/410 416/1/410
f 419/1/403 512/1/403 418/1/403
f 405/1/407 423/1/407 509/1/407
f 476/1/403 518/1/403 475/1/403
f 423/1/403 424/1/403 509/1/403
f 418/1/403 512/1/403 514/1/403
f 424/1/410 425/1/410 519/1/410
f 374/1/413 464/1/413 375/1/413
f 425/1/410 426/1/410 519/1/410
f 515/1/403 417/1/403 514/1/403
f 426/1/414 484/1/414 519/1/414
f 417/1/410 515/1/410 415/1/410
f 472/1/415 528/1/415 385/1/415
f 484/1/403 485/1/403 519/1/403
f 373/1/416 473/1/416 374/1/416
f 486/1/403 518/1/403 485/1/403
f 450/1/405 162/1/405 448/1/405
f 477/1/403 518/1/403 486/1/403
f 510/1/403 440/1/403 509/1/403
f 475/1/403 518/1/403 477/1/403
f 510/1/403 392/1/403 394/1/403
f 471/1/417 162/1/417 380/1/417
f 515/1/409 414/1/409 415/1/409
f 376/1/403 481/1/403 516/1/403
f 476/1/410 478/1/410 518/1/410
f 516/1/403 445/1/403 515/1/403
f 478/1/409 479/1/409 518/1/409
f 516/1/410 492/1/410 445/1/410
f 479/1/410 493/1/410 518/1/410
f 516/1/403 491/1/403 492/1/403
f 493/1/409 494/1/409 518/1/409
f 495/1/403 517/1/403 494/1/403
f 516/1/403 490/1/403 491/1/403
f 516/1/403 483/1/403 490/1/403
f 496/1/403 517/1/403 495/1/403
f 516/1/403 482/1/403 483/1/403
f 500/1/403 517/1/403 496/1/403
f 516/1/403 481/1/403 482/1/403
f 501/1/403 517/1/403 500/1/403
f 502/1/403 517/1/403 501/1/403
f 480/1/403 481/1/403 376/1/403
f 519/1/403 485/1/403 518/1/403
f 376/1/418 400/1/418 480/1/418
f 434/1/419 517/1/419 502/1/419
f 376/1/403 399/1/403 400/1/403
f 432/1/409 517/1/409 434/1/409
f 376/1/410 397/1/410 399/1/410
f 433/1/409 517/1/409 432/1/409
f 376/1/410 396/1/410 397/1/410
f 435/1/409 517/1/409 433/1/409
f 398/1/418 396/1/418 375/1/418
f 517/1/403 435/1/403 377/1/403
f 467/1/403 398/1/403 375/1/403
f 514/1/403 417/1/403 418/1/403
f 465/1/403 467/1/403 375/1/403
f 515/1/403 444/1/403 446/1/403
f 380/1/409 470/1/409 471/1/409
f 430/1/409 377/1/409 428/1/409
f 464/1/410 465/1/410 375/1/410
f 431/1/403 377/1/403 430/1/403
f 466/1/420 464/1/420 374/1/420
f 468/1/410 377/1/410 431/1/410
f 474/1/421 466/1/421 374/1/421
f 377/1/403 468/1/403 380/1/403
f 473/1/421 474/1/421 374/1/421
f 527/1/422 498/1/422 526/1/422
f 385/1/423 526/1/423 384/1/423
f 518/1/403 494/1/403 517/1/403
f 380/1/403 468/1/403 469/1/403
f 473/1/424 528/1/424 472/1/424
f 377/1/425 435/1/425 429/1/425
f 515/1/403 443/1/403 444/1/403
f 382/1/426 526/1/426 381/1/426
f 506/1/427 162/1/427 471/1/427
f 381/1/428 526/1/428 383/1/428
f 507/1/429 162/1/429 506/1/429
f 383/1/430 526/1/430 499/1/430
f 508/1/427 162/1/427 507/1/427
f 499/1/431 526/1/431 498/1/431
f 454/1/432 162/1/432 508/1/432
f 405/1/403 509/1/403 404/1/403
f 497/1/433 498/1/433 527/1/433
f 452/1/434 162/1/434 454/1/434
f 451/1/435 497/1/435 527/1/435
f 453/1/434 162/1/434 452/1/434
f 450/1/436 451/1/436 527/1/436
f 455/1/405 162/1/405 453/1/405
f 509/1/403 424/1/403 519/1/403
f 456/1/434 162/1/434 455/1/434
f 510/1/437 391/1/437 392/1/437
f 457/1/434 162/1/434 456/1/434
f 384/1/438 526/1/438 382/1/438
f 458/1/439 162/1/439 457/1/439
f 459/1/432 162/1/432 458/1/432
f 410/1/403 510/1/403 390/1/403
f 447/1/439 162/1/439 449/1/439
f 377/1/403 429/1/403 427/1/403
f 379/1/440 378/1/440 162/1/440
f 373/1/441 528/1/441 473/1/441
f 370/1/442 528/1/442 369/1/442
f 377/1/403 427/1/403 428/1/403
f 528/1/443 373/1/443 372/1/443
f 528/1/444 372/1/444 371/1/444
f 528/1/445 368/1/445 369/1/445
f 527/1/446 162/1/446 450/1/446
f 143/1/440 379/1/440 162/1/440
f 528/1/447 526/1/447 385/1/447
f 389/1/411 510/1/411 387/1/411
f 378/1/440 380/1/440 162/1/440
f 520/1/448 366/1/448 162/1/448
f 404/1/403 509/1/403 402/1/403
f 527/1/449 524/1/449 162/1/449
f 524/1/450 522/1/450 162/1/450
f 522/1/451 523/1/451 162/1/451
f 523/1/452 525/1/452 162/1/452
f 525/1/408 521/1/408 162/1/408
f 448/1/439 162/1/439 447/1/439
f 706/1/453 707/1/453 704/1/453
f 711/1/454 712/1/454 716/1/454
f 702/1/455 710/1/455 716/1/455 705/1/455
f 705/1/456 716/1/456 715/1/456 706/1/456
f 706/1/457 715/1/457 714/1/457 707/1/457
f 707/1/458 714/1/458 713/1/458 708/1/458
f 708/1/459 713/1/459 709/1/459 703/1/459
f 705/1/460 706/1/460 704/1/460
f 704/1/461 702/1/461 705/1/461
f 707/1/462 708/1/462 704/1/462
f 712/1/463 709/1/463 714/1/463
f 709/1/464 713/1/464 714/1/464
f 714/1/465 715/1/465 712/1/465
f 715/1/466 716/1/466 712/1/466
f 716/1/467 710/1/467 711/1/467
f 110/1/468 327/1/468 319/1/468
f 185/1/469 717/1/469 718/1/469
f 254/1/470 185/1/470 718/1/470
f 313/1/471 314/1/471 103/1/471 102/1/471
f 314/1/472 352/1/472 144/1/472 103/1/472
f 352/1/473 359/1/473 151/1/473 144/1/473
f 355/1/474 313/1/474 102/1/474 147/1/474
f 152/1/475 315/1/475 105/1/475 108/1/475
f 315/1/476 318/1/476 109/1/476 105/1/476
f 318/1/477 320/1/477 111/1/477 109/1/477
f 320/1/478 312/1/478 101/1/478 111/1/478
f 312/1/479 316/1/479 106/1/479 101/1/479
f 316/1/480 317/1/480 107/1/480 106/1/480
f 317/1/481 326/1/481 117/1/481 107/1/481
f 326/1/482 325/1/482 116/1/482 117/1/482
f 325/1/483 330/1/483 120/1/483 116/1/483
f 330/1/484 334/1/484 124/1/484 120/1/484
f 334/1/485 333/1/485 123/1/485 124/1/485
f 333/1/486 337/1/486 127/1/486 123/1/486
f 337/1/487 338/1/487 128/1/487 127/1/487
f 338/1/488 322/1/488 113/1/488 128/1/488
f 322/1/489 324/1/489 115/1/489 113/1/489
f 324/1/490 323/1/490 114/1/490 115/1/490
f 323/1/491 335/1/491 125/1/491 114/1/491
f 335/1/492 340/1/492 130/1/492 125/1/492
f 340/1/493 329/1/493 119/1/493 130/1/493
f 329/1/494 328/1/494 118/1/494 119/1/494
f 328/1/495 339/1/495 129/1/495 118/1/495
f 339/1/496 321/1/496 112/1/496 129/1/496
f 321/1/497 336/1/497 126/1/497 112/1/497
f 336/1/498 327/1/498 110/1/498 126/1/498
f 358/1/499 367/1/499 163/1/499 150/1/499
f 367/1/500 351/1/500 142/1/500 163/1/500
f 351/1/501 357/1/501 149/1/501 142/1/501
f 357/1/502 361/1/502 157/1/502 149/1/502
f 361/1/503 350/1/503 141/1/503 157/1/503
f 350/1/504 365/1/504 161/1/504 141/1/504
f 365/1/505 354/1/505 146/1/505 161/1/505
f 354/1/506 364/1/506 160/1/506 146/1/506
f 364/1/507 331/1/507 121/1/507 160/1/507
f 331/1/508 332/1/508 122/1/508 121/1/508
f 332/1/509 341/1/509 131/1/509 122/1/509
f 341/1/510 343/1/510 133/1/510 131/1/510
f 343/1/511 353/1/511 145/1/511 133/1/511
f 353/1/512 356/1/512 148/1/512 145/1/512
f 356/1/513 363/1/513 159/1/513 148/1/513
f 363/1/514 362/1/514 158/1/514 159/1/514
f 362/1/515 342/1/515 132/1/515 158/1/515
f 342/1/516 360/1/516 156/1/516 132/1/516
f 360/1/517 344/1/517 134/1/517 156/1/517
f 344/1/518 345/1/518 135/1/518 134/1/518
f 345/1/519 348/1/519 138/1/519 135/1/519
f 348/1/520 346/1/520 136/1/520 138/1/520
f 346/1/521 347/1/521 137/1/521 136/1/521
f 347/1/522 349/1/522 139/1/522 137/1/522
f 349/1/523 311/1/523 99/1/523 139/1/523
f 311/1/524 310/1/524 97/1/524 99/1/524
f 310/1/525 153/1/525 100/1/525 97/1/525
f 719/1/2 721/1/2 722/1/2
f 719/1/2 722/1/2 723/1/2 720/1/2
f 720/1/526 723/1/526 202/1/526
f 720/1/527 726/1/527 719/1/527
f 185/1/528 721/1/528 727/1/528 724/1/528
f 726/1/526 720/1/526 202/1/526
f 185/1/54 193/1/54 722/1/54 721/1/54
f 725/1/529 724/1/529 727/1/529 728/1/529
f 718/1/530 717/1/530 110/1/530
f 728/1/531 719/1/531 717/1/531 725/1/531
f 717/1/532 185/1/532 724/1/532 725/1/532
f 319/1/533 718/1/533 110/1/533
f 726/1/527 717/1/527 719/1/527
f 717/1/534 126/1/534 110/1/534
f 726/1/535 126/1/535 717/1/535
f 729/2/536 1/3/536 2/4/536 735/5/536
f 735/6/537 2/4/537 3/7/537 751/8/537 750/9/537
f 751/10/538 3/7/538 4/11/538 757/12/538
f 757/13/539 4/11/539 5/14/539 780/15/539
f 780/16/540 5/14/540 6/17/540 793/18/540 785/19/540
f 793/18/541 6/17/541 7/20/541 809/21/541
f 809/22/542 7/20/542 8/23/542 819/24/542 813/25/542
f 819/24/543 8/23/543 9/26/543 826/27/543
f 9/26/544 10/28/544 784/29/544 782/30/544 826/27/544
f 10/28/545 11/31/545 783/32/545 784/33/545
f 11/31/546 12/34/546 769/35/546 783/32/546
f 12/34/547 13/36/547 767/37/547 769/35/547
f 13/36/548 14/38/548 739/39/548 738/40/548 767/41/548
f 14/38/549 15/42/549 736/43/549 739/44/549
f 15/42/550 16/45/550 773/46/550 737/47/550 736/48/550
f 16/45/551 17/49/551 762/50/551 773/51/551
f 17/49/552 18/52/552 734/53/552 762/50/552
f 18/52/553 19/54/553 745/55/553 734/56/553
f 19/54/554 20/57/554 754/58/554 749/59/554 745/55/554
f 20/57/555 21/60/555 766/61/555 765/62/555 754/63/555
f 21/60/556 22/64/556 777/65/556 766/66/556
f 22/64/557 23/67/557 791/68/557 789/69/557 777/70/557
f 23/67/558 24/71/558 805/72/558 791/68/558
f 24/71/559 25/73/559 814/74/559 811/75/559 805/72/559
f 814/76/560 25/73/560 26/77/560 820/78/560
f 820/78/561 26/77/561 27/79/561 800/80/561 801/81/561
f 800/80/562 27/79/562 28/82/562 795/83/562
f 795/84/563 28/82/563 29/85/563 794/86/563
f 794/87/564 29/85/564 30/88/564 798/89/564
f 798/90/565 30/88/565 31/91/565 804/92/565
f 804/93/566 31/91/566 32/94/566 847/95/566 802/96/566
f 847/95/567 32/94/567 1/97/567 729/98/567
f 6/99/568 5/100/568 4/101/568 3/102/568 2/103/568 1/104/568 32/105/568 31/106/568 30/107/568 29/108/568 28/109/568 27/110/568 26/111/568 25/112/568 24/113/568 23/114/568 22/115/568 21/116/568 20/117/568 19/118/568 18/119/568 17/120/568 16/121/568 15/122/568 14/123/568 13/124/568 12/125/568 11/126/568 10/127/568 9/128/568 8/129/568 7/130/568
f 33/3/569 34/4/569 855/131/569 846/132/569
f 34/4/570 35/7/570 829/133/570 828/134/570 855/135/570
f 35/7/571 36/11/571 731/136/571 829/133/571
f 36/11/572 37/14/572 747/137/572 731/136/572
f 37/14/573 38/17/573 756/138/573 747/137/573
f 756/139/574 38/17/574 39/20/574 775/140/574 761/141/574
f 39/20/575 40/23/575 781/142/575 775/143/575
f 40/23/576 41/26/576 792/144/576 781/142/576
f 41/26/577 42/28/577 810/145/577 803/146/577 792/144/577
f 42/28/578 43/31/578 816/147/578 810/148/578
f 43/31/579 44/34/579 825/149/579 816/147/579
f 44/34/580 45/36/580 834/150/580 830/151/580 825/149/580
f 45/36/581 46/38/581 839/152/581 838/153/581 834/154/581
f 46/38/582 47/42/582 843/155/582 839/152/582
f 47/42/583 48/45/583 824/156/583 823/157/583 843/158/583
f 48/45/584 49/49/584 817/159/584 824/160/584
f 49/49/585 50/52/585 744/161/585 746/162/585 817/159/585
f 50/52/586 51/54/586 768/163/586 744/161/586
f 51/54/587 52/57/587 771/164/587 768/165/587
f 52/57/588 53/60/588 733/166/588 772/167/588 771/168/588
f 53/60/589 54/64/589 748/169/589 733/166/589
f 54/64/590 55/67/590 755/170/590 748/169/590
f 55/67/591 56/71/591 770/171/591 755/170/591
f 56/71/592 57/73/592 764/172/592 774/173/592 770/171/592
f 764/172/593 57/73/593 58/77/593 763/174/593
f 763/174/594 58/77/594 59/79/594 760/175/594
f 760/175/595 59/79/595 60/82/595 815/176/595 743/177/595
f 815/176/596 60/82/596 61/85/596 821/178/596
f 821/179/597 61/85/597 62/88/597 831/180/597 827/181/597
f 831/180/598 62/88/598 63/91/598 835/182/598
f 835/182/599 63/91/599 64/94/599 842/183/599
f 842/183/600 64/94/600 33/97/600 846/184/600 844/185/600
f 37/100/601 36/101/601 35/102/601 34/103/601 33/104/601 64/105/601 63/106/601 62/107/601 61/108/601 60/109/601 59/110/601 58/111/601 57/112/601 56/113/601 55/114/601 54/115/601 53/116/601 52/117/601 51/118/601 50/119/601 49/120/601 48/121/601 47/122/601 46/123/601 45/124/601 44/125/601 43/126/601 42/127/601 41/128/601 40/129/601 39/130/601 38/99/601
f 837/186/602 65/3/602 66/4/602 849/187/602
f 66/4/603 67/7/603 851/188/603 849/187/603
f 67/7/604 68/11/604 854/189/604 853/190/604 851/188/604
f 68/11/605 69/14/605 857/191/605 854/192/605
f 858/193/606 857/191/606 69/14/606 70/17/606 730/194/606
f 70/17/607 71/20/607 742/195/607 741/196/607 730/194/607
f 71/20/608 72/23/608 753/197/608 742/198/608
f 72/23/609 73/26/609 759/199/609 753/197/609
f 73/26/610 74/28/610 778/200/610 759/201/610
f 74/28/611 75/31/611 790/202/611 788/203/611 778/204/611
f 75/31/612 76/34/612 806/205/612 790/206/612
f 76/34/613 77/36/613 812/207/613 806/208/613
f 77/36/614 78/38/614 799/209/614 796/210/614 812/211/614
f 78/38/615 79/42/615 832/212/615 797/213/615 799/214/615
f 79/42/616 80/45/616 836/215/616 832/212/616
f 80/45/617 81/49/617 841/216/617 840/217/617 836/218/617
f 81/49/618 82/52/618 845/219/618 841/216/618
f 82/52/619 83/54/619 848/220/619 845/219/619
f 83/54/620 84/57/620 850/221/620 848/220/620
f 84/57/621 85/60/621 852/222/621 850/223/621
f 85/60/622 86/64/622 856/224/622 852/222/622
f 86/64/623 87/67/623 732/225/623 856/226/623
f 87/67/624 88/71/624 740/227/624 732/228/624
f 88/71/625 89/73/625 752/229/625 740/227/625
f 752/229/626 89/73/626 90/77/626 758/230/626
f 758/231/627 90/77/627 91/79/627 776/232/627
f 776/233/628 91/79/628 92/82/628 786/234/628 787/235/628 779/236/628
f 786/237/629 92/82/629 93/85/629 808/238/629 807/239/629
f 808/240/630 93/85/630 94/88/630 818/241/630
f 818/242/631 94/88/631 95/91/631 822/243/631
f 822/244/632 95/91/632 96/94/632 833/245/632
f 833/246/633 96/94/633 65/97/633 837/247/633
f 69/100/634 68/101/634 67/102/634 66/103/634 65/104/634 96/105/634 95/106/634 94/107/634 93/108/634 92/109/634 91/110/634 90/111/634 89/112/634 88/113/634 87/114/634 86/115/634 85/116/634 84/117/634 83/118/634 82/119/634 81/120/634 80/121/634 79/122/634 78/123/634 77/124/634 76/125/634 75/126/634 74/127/634 73/128/634 72/129/634 71/130/634 70/99/634
f 779/1/635 710/1/635 702/1/635 840/1/635 841/1/635 845/1/635 848/1/635 850/1/635 852/1/635 856/1/635 732/1/635 740/1/635 752/1/635 758/1/635 776/1/635
f 788/1/635 289/1/635 308/1/635 741/1/635 742/1/635 753/1/635 759/1/635 778/1/635
f 787/1/635 711/1/635 710/1/635 779/1/635
f 288/1/635 858/1/635 730/1/635 741/1/635 308/1/635
f 743/1/8 345/1/8 344/1/8 774/1/8 764/1/8 763/1/8 760/1/8
f 771/1/8 772/1/8 279/1/8 280/1/8 746/1/8 744/1/8 768/1/8
f 802/1/8 335/1/8 323/1/8 258/1/8 270/1/8 801/1/8 800/1/8 795/1/8 794/1/8 798/1/8 804/1/8
f 280/1/8 283/1/8 823/1/8 824/1/8 817/1/8 746/1/8
f 348/1/8 345/1/8 743/1/8 815/1/8 821/1/8 827/1/8
f 792/1/8 803/1/8 284/1/8 243/1/8 311/1/8 349/1/8 761/1/8 775/1/8 781/1/8
f 809/1/8 813/1/8 328/1/8 329/1/8 785/1/8 793/1/8
f 789/1/8 264/1/8 263/1/8 765/1/8 766/1/8 777/1/8
f 765/1/8 263/1/8 274/1/8 749/1/8 754/1/8
f 782/1/8 339/1/8 328/1/8 813/1/8 819/1/8 826/1/8
f 306/1/8 294/1/8 355/1/8 366/1/8 807/1/8 808/1/8 818/1/8 822/1/8 833/1/8 837/1/8 849/1/8 851/1/8 853/1/8
f 281/1/8 282/1/8 830/1/8 834/1/8 838/1/8
f 828/1/8 347/1/8 346/1/8 844/1/8 846/1/8 855/1/8
f 842/1/8 844/1/8 346/1/8 348/1/8 827/1/8 831/1/8 835/1/8
f 283/1/8 281/1/8 838/1/8 839/1/8 843/1/8 823/1/8
f 780/1/8 785/1/8 329/1/8 340/1/8 750/1/8 751/1/8 757/1/8
f 811/1/8 275/1/8 264/1/8 789/1/8 791/1/8 805/1/8
f 256/1/8 271/1/8 336/1/8 321/1/8 738/1/8 739/1/8 736/1/8 737/1/8
f 321/1/8 339/1/8 782/1/8 784/1/8 783/1/8 769/1/8 767/1/8 738/1/8
f 749/1/8 274/1/8 256/1/8 737/1/8 773/1/8 762/1/8 734/1/8 745/1/8
f 797/1/635 702/1/635 301/1/635 285/1/635 796/1/635 799/1/635
f 756/1/8 761/1/8 349/1/8 347/1/8 828/1/8 829/1/8 731/1/8 747/1/8
f 830/1/8 282/1/8 284/1/8 803/1/8 810/1/8 816/1/8 825/1/8
f 344/1/8 360/1/8 299/1/8 279/1/8 772/1/8 733/1/8 748/1/8 755/1/8 770/1/8 774/1/8
f 801/1/8 270/1/8 275/1/8 811/1/8 814/1/8 820/1/8
f 750/1/8 340/1/8 335/1/8 802/1/8 847/1/8 729/1/8 735/1/8
f 807/1/636 366/1/636 712/1/636 711/1/636 787/1/636 786/1/636
f 858/1/637 288/1/637 306/1/637 853/1/637 854/1/637 857/1/637
f 840/1/635 702/1/635 797/1/635 832/1/635 836/1/635
f 796/1/635 285/1/635 289/1/635 788/1/635 790/1/635 806/1/635 812/1/635
