# Blender 5.0.1
# www.blender.org
mtllib NewHead_origin_visual_5.mtl
o i02.head.jawHinge.left_visual.001
v -0.020558 0.118002 0.139304
v -0.020558 0.089088 0.145054
v -0.020558 0.142515 0.122924
v -0.020558 0.158894 0.098411
v -0.020558 0.164372 0.069498
v -0.020558 0.032727 -0.007678
v -0.020558 0.032727 0.098466
v -0.020558 0.035661 0.122925
v -0.020558 0.060173 0.139304
v 0.038276 0.063025 0.095560
v 0.038276 0.074983 0.103550
v 0.038276 0.055036 0.083602
v 0.038276 0.052230 0.069498
v 0.038276 0.055036 0.055393
v 0.038276 0.063025 0.043435
v 0.038276 0.074983 0.035446
v 0.038276 0.089088 0.032640
v 0.038276 0.103192 0.035446
v 0.038276 0.115150 0.043436
v 0.038276 0.123140 0.055393
v 0.038276 0.125946 0.069498
v 0.038276 0.123140 0.083602
v 0.038276 0.115150 0.095559
v 0.038276 0.103192 0.103550
v 0.038276 0.089088 0.106355
v 0.093101 0.103192 0.035446
v 0.093101 0.115150 0.043436
v 0.093101 0.055036 0.083602
v 0.093101 0.052230 0.069498
v 0.093101 0.074983 0.103550
v 0.093101 0.089088 0.106355
v 0.093101 0.115150 0.095559
v 0.093101 0.103192 0.103550
v 0.093101 0.063025 0.043435
v 0.093101 0.055036 0.055393
v 0.093101 0.123140 0.055393
v 0.093101 0.063025 0.095560
v 0.093101 0.125946 0.069498
v 0.093101 0.123140 0.083602
v 0.093101 0.089088 0.032640
v 0.093101 0.074983 0.035446
v -0.039978 0.078520 0.058930
v -0.039978 0.078520 0.080065
v -0.039978 0.089088 0.054553
v -0.039978 0.099656 0.080065
v -0.039978 0.099656 0.058930
v -0.039978 0.089088 0.084442
v -0.039978 0.094807 0.055690
v -0.039978 0.075280 0.063779
v -0.039978 0.074142 0.069498
v -0.039978 0.102895 0.063779
v -0.039978 0.104033 0.069498
v -0.039978 0.075280 0.075217
v -0.039978 0.102895 0.075217
v -0.039978 0.083368 0.083305
v -0.039978 0.083368 0.055690
v -0.039978 0.094807 0.083305
v 0.093101 0.089088 0.084442
v 0.093101 0.083368 0.083305
v 0.093101 0.075280 0.063779
v 0.093101 0.074142 0.069498
v 0.093101 0.102895 0.063779
v 0.093101 0.099656 0.058930
v 0.093101 0.094807 0.083305
v 0.093101 0.075280 0.075217
v 0.093101 0.094807 0.055690
v 0.093101 0.099656 0.080065
v 0.093101 0.078520 0.080065
v 0.093101 0.083368 0.055690
v 0.093101 0.089088 0.054553
v 0.093101 0.102895 0.075217
v 0.093101 0.078520 0.058930
v 0.093101 0.104033 0.069498
v -0.093101 0.142637 0.123047
v -0.093101 0.118069 0.139463
v -0.093101 0.035538 0.123047
v -0.093101 0.032727 0.098479
v -0.093101 0.159054 0.098479
v -0.093101 0.032727 -0.007678
v -0.093101 0.164372 0.069498
v -0.093101 0.089088 0.145228
v -0.093101 0.060107 0.139463
v -0.020558 -0.091287 -0.009212
v -0.093101 -0.091318 -0.009212
v -0.093101 -0.091318 -0.078200
v -0.093101 -0.164504 -0.009212
v -0.093101 -0.164504 -0.078200
v -0.020558 -0.091287 -0.078200
v -0.020558 0.084952 -0.078785
v -0.093101 0.084921 -0.078785
v -0.020558 0.084952 -0.145228
v -0.093101 0.084921 -0.145228
v -0.020558 0.164372 -0.145228
v -0.093101 0.164372 -0.145228
v -0.020558 -0.164472 -0.009212
v -0.020558 -0.164472 -0.078200
v -0.020558 -0.091287 -0.144909
v -0.020558 -0.164472 -0.144909
v -0.093101 -0.091318 -0.144909
v -0.093101 -0.164504 -0.144909
v -0.020558 0.159669 0.040874
v 0.038276 0.035760 0.122826
v 0.038276 0.060228 0.139173
v 0.038276 0.032988 0.098357
v 0.038276 0.032832 0.016170
v -0.020558 0.032832 0.016170
v -0.020558 0.060228 -0.000177
v 0.038276 0.060228 -0.000178
v 0.038276 0.089088 -0.005918
v -0.020558 0.089088 -0.005918
v -0.020558 0.142415 0.016172
v -0.020558 0.117948 -0.000177
v 0.038276 0.117948 -0.000178
v 0.038276 0.142415 0.016172
v 0.038276 0.158763 0.040638
v 0.038276 0.164504 0.069498
v 0.038276 0.158763 0.098357
v 0.038276 0.142415 0.122823
v 0.038276 0.117948 0.139173
v 0.038276 0.089088 0.144913
v -0.020558 0.164372 0.040874
vn 1.0000 -0.0000 -0.0000
vn -0.0000 0.5556 -0.8315
vn -0.0000 -0.9808 0.1951
vn -0.0000 -0.1951 0.9808
vn -0.0000 0.5556 0.8315
vn -0.0000 -0.8315 -0.5555
vn -0.0000 0.8315 -0.5556
vn -0.0000 -0.5555 0.8315
vn -0.0000 -0.9808 -0.1951
vn -0.0000 0.1951 0.9808
vn -0.0000 0.9808 0.1951
vn -0.0000 0.1951 -0.9808
vn -0.0000 -0.5555 -0.8315
vn -0.0000 0.1950 -0.9808
vn -0.0000 -0.8315 0.5555
vn -0.0000 -0.1951 -0.9808
vn -0.0000 0.9808 -0.1951
vn -0.0000 0.8315 -0.5555
vn -0.0000 0.1950 0.9808
vn -0.0000 0.5555 -0.8315
vn -0.0000 0.5555 0.8315
vn -0.0000 -0.9808 -0.1952
vn -0.0000 0.8315 0.5556
vn -0.0000 0.8315 0.5555
vn -0.0000 -0.9808 0.1952
vn -1.0000 -0.0000 -0.0000
vn 0.0023 -0.1951 0.9808
vn 0.0023 -0.5556 0.8315
vn 0.0019 -0.9935 0.1137
vn -0.0000 -0.9929 0.1191
vn 0.0023 0.1951 0.9808
vn 0.0023 0.5556 0.8315
vn 0.0024 0.5556 0.8315
vn 0.0023 0.8315 0.5556
vn 0.0023 0.9825 0.1862
vn -0.0000 0.9836 0.1805
vn 0.0019 -1.0000 -0.0013
vn -0.0000 -1.0000 -0.0000
vn -0.0000 -0.0124 0.9999
vn -0.0000 -0.0033 -1.0000
vn 0.0004 -1.0000 -0.0000
vn -0.0000 -0.0000 -1.0000
vn -0.0000 1.0000 -0.0000
vn 0.0046 -0.9929 0.1191
vn 0.0022 -1.0000 0.0003
vn -0.0000 -0.0000 1.0000
vn -0.0004 1.0000 -0.0000
vn 0.0024 -0.5555 0.8315
vn 0.0019 -0.9936 0.1126
vn -0.0000 -0.5124 -0.8587
vn -0.0000 0.8198 -0.5726
vn 0.0106 0.8314 -0.5555
vn 0.0145 0.9867 -0.1621
vn -0.0022 0.9808 -0.1951
vn -0.0022 0.9825 0.1862
vn 0.0024 0.9808 0.1951
vn 0.0024 0.8315 0.5556
vn 0.0024 0.1951 0.9808
vn 0.0024 -0.1951 0.9808
vn -0.0000 -1.0000 0.0044
s 0
f 22//1 117//1 118//1 23//1
f 21//1 116//1 117//1 22//1
f 17//1 109//1 113//1 18//1
f 19//1 114//1 115//1 20//1
f 24//1 119//1 120//1 25//1
f 18//1 113//1 114//1 19//1
f 15//1 105//1 108//1 16//1
f 20//1 115//1 116//1 21//1
f 16//1 108//1 109//1 17//1
f 10//1 102//1 104//1 12//1
f 19//2 26//2 18//2
f 26//2 19//2 27//2
f 13//3 28//3 12//3
f 28//3 13//3 29//3
f 25//4 11//4 30//4
f 30//4 31//4 25//4
f 24//5 32//5 23//5
f 32//5 24//5 33//5
f 14//6 15//6 34//6
f 34//6 35//6 14//6
f 25//1 120//1 103//1 11//1
f 11//1 103//1 102//1 10//1
f 23//1 118//1 119//1 24//1
f 20//7 27//7 19//7
f 27//7 20//7 36//7
f 11//8 10//8 37//8
f 37//8 30//8 11//8
f 14//9 29//9 13//9
f 29//9 14//9 35//9
f 24//10 25//10 31//10
f 31//10 33//10 24//10
f 22//11 38//11 21//11
f 38//11 22//11 39//11
f 17//12 18//12 26//12
f 26//12 40//12 17//12
f 16//13 34//13 15//13
f 34//13 16//13 41//13
f 42//1 44//1 43//1
f 45//1 47//1 46//1
f 48//1 46//1 44//1
f 49//1 42//1 50//1
f 47//1 43//1 44//1
f 50//1 42//1 43//1
f 51//1 52//1 46//1
f 53//1 50//1 43//1
f 52//1 45//1 46//1
f 46//1 47//1 44//1
f 54//1 45//1 52//1
f 55//1 43//1 47//1
f 42//1 56//1 44//1
f 57//1 47//1 45//1
f 58//14 59//14 55//14
f 55//14 47//14 58//14
f 60//11 50//11 61//11
f 50//11 60//11 49//11
f 62//15 46//15 63//15
f 46//15 62//15 51//15
f 64//16 58//16 47//16
f 47//16 57//16 64//16
f 61//17 53//17 65//17
f 53//17 61//17 50//17
f 63//8 48//8 66//8
f 48//8 63//8 46//8
f 64//13 45//13 67//13
f 45//13 64//13 57//13
f 68//7 65//7 53//7
f 53//18 43//18 68//18
f 69//19 70//19 44//19
f 44//19 56//19 69//19
f 71//6 67//6 45//6
f 45//6 54//6 71//6
f 59//2 68//2 43//2
f 43//20 55//20 59//20
f 69//5 42//5 72//5
f 42//21 69//21 56//21
f 71//22 52//22 73//22
f 52//9 71//9 54//9
f 70//4 66//4 48//4
f 48//4 44//4 70//4
f 60//23 72//23 42//23
f 42//24 49//24 60//24
f 73//25 51//25 62//25
f 51//3 73//3 52//3
f 41//1 72//1 34//1
f 72//1 41//1 69//1
f 31//1 30//1 59//1
f 59//1 58//1 31//1
f 30//1 37//1 68//1
f 68//1 59//1 30//1
f 39//1 32//1 67//1
f 67//1 71//1 39//1
f 41//1 40//1 70//1
f 70//1 69//1 41//1
f 40//1 26//1 66//1
f 66//1 70//1 40//1
f 37//1 28//1 65//1
f 65//1 68//1 37//1
f 33//1 67//1 32//1
f 67//1 33//1 64//1
f 27//1 66//1 26//1
f 66//1 27//1 63//1
f 29//1 65//1 28//1
f 65//1 29//1 61//1
f 36//1 63//1 27//1
f 63//1 36//1 62//1
f 35//1 61//1 29//1
f 61//1 35//1 60//1
f 38//1 62//1 36//1
f 62//1 38//1 73//1
f 35//1 34//1 72//1
f 72//1 60//1 35//1
f 33//1 31//1 58//1
f 58//1 64//1 33//1
f 39//1 73//1 38//1
f 73//1 39//1 71//1
f 21//17 36//17 20//17
f 36//17 21//17 38//17
f 10//15 12//15 28//15
f 28//15 37//15 10//15
f 22//23 23//23 32//23
f 32//23 39//23 22//23
f 16//16 17//16 40//16
f 40//16 41//16 16//16
f 74//26 76//26 75//26
f 74//26 77//26 76//26
f 78//26 77//26 74//26
f 78//26 79//26 77//26
f 80//26 79//26 78//26
f 81//26 76//26 82//26
f 81//26 75//26 76//26
f 9//27 2//27 81//27
f 81//27 82//27 9//27
f 9//28 82//28 76//28
f 76//28 8//28 9//28
f 8//29 76//29 77//29
f 77//30 7//30 8//30
f 1//31 75//31 81//31
f 81//31 2//31 1//31
f 3//32 75//32 1//32
f 75//33 3//33 74//33
f 4//34 74//34 3//34
f 74//34 4//34 78//34
f 5//35 78//35 4//35
f 78//36 5//36 80//36
f 106//37 7//37 79//37
f 79//38 7//38 77//38
f 79//39 83//39 6//39
f 83//39 79//39 84//39
f 85//26 86//26 84//26
f 86//26 85//26 87//26
f 85//40 89//40 88//40
f 89//40 85//40 90//40
f 90//41 91//41 89//41
f 91//41 90//41 92//41
f 92//42 93//42 91//42
f 93//42 92//42 94//42
f 5//43 94//43 80//43
f 93//43 94//43 121//43
f 84//26 90//26 85//26
f 83//1 88//1 89//1
f 79//26 90//26 84//26
f 6//1 83//1 89//1
f 80//26 92//26 90//26
f 92//26 80//26 94//26
f 104//44 8//44 7//44
f 104//45 7//45 106//45 105//45
f 80//26 90//26 79//26
f 86//41 96//41 95//41
f 96//41 86//41 87//41
f 96//1 97//1 88//1
f 97//1 96//1 98//1
f 84//46 95//46 83//46
f 95//46 84//46 86//46
f 83//1 96//1 88//1
f 96//1 83//1 95//1
f 97//42 100//42 99//42
f 100//42 97//42 98//42
f 88//47 99//47 85//47
f 99//47 88//47 97//47
f 87//41 98//41 96//41
f 98//41 87//41 100//41
f 85//26 100//26 87//26
f 100//26 85//26 99//26
f 9//28 8//28 102//28
f 102//48 103//48 9//48
f 104//49 102//49 8//49
f 107//50 105//50 106//50
f 105//50 107//50 108//50
f 107//16 110//16 109//16
f 109//16 108//16 107//16
f 111//2 113//2 112//2
f 113//2 111//2 114//2
f 101//51 114//51 111//51
f 114//52 101//52 115//52
f 5//53 115//53 101//53
f 115//54 5//54 116//54
f 4//55 116//55 5//55
f 116//56 4//56 117//56
f 4//57 3//57 118//57
f 118//57 117//57 4//57
f 1//33 118//33 3//33
f 118//33 1//33 119//33
f 1//58 2//58 120//58
f 120//58 119//58 1//58
f 120//59 2//59 9//59
f 9//59 103//59 120//59
f 112//12 113//12 109//12
f 109//12 110//12 112//12
f 111//1 93//1 101//1
f 112//1 93//1 111//1
f 6//1 107//1 106//1
f 110//1 107//1 89//1
f 93//1 112//1 89//1
f 12//1 104//1 13//1
f 89//1 107//1 6//1
f 91//1 93//1 89//1
f 89//1 112//1 110//1
f 106//60 79//60 6//60
f 14//1 13//1 105//1
f 15//1 14//1 105//1
f 13//1 104//1 105//1
f 101//1 121//1 5//1
f 101//1 93//1 121//1
f 121//43 94//43 5//43
