# Blender 5.0.1
# www.blender.org
mtllib NewHead_origin_visual_1.mtl
o FaceHolderLeftV5_visual.001
v 0.200081 -0.024810 -0.020272
v 0.274726 -0.073487 -0.020272
v 0.274402 -0.188630 -0.020272
v 0.181328 -0.188630 -0.020272
v 0.200081 -0.024810 -0.087677
v 0.181328 -0.188630 -0.087677
v 0.250686 -0.188786 -0.087677
v 0.252288 -0.073331 -0.087677
v 0.181328 -0.284022 -0.087677
v 0.235775 -0.284022 -0.087677
v 0.267000 -0.073487 -0.054076
v 0.200081 -0.024810 -0.054076
v 0.262520 -0.188630 -0.054076
v 0.254583 -0.284022 -0.054076
v 0.266620 -0.284022 -0.020272
v 0.181328 -0.284022 -0.054076
v 0.181328 -0.284022 -0.020272
v 0.181328 -0.325761 -0.087677
v 0.220512 -0.323582 -0.087677
v 0.133612 -0.366681 -0.087677
v 0.190887 -0.381041 -0.087677
v 0.181328 -0.325761 -0.054076
v 0.133612 -0.366681 -0.054076
v 0.181328 -0.325761 -0.020272
v 0.236409 -0.334794 -0.054076
v 0.249920 -0.334794 -0.020272
v 0.203241 -0.382625 -0.054076
v 0.211001 -0.385565 -0.020272
v 0.237850 -0.334794 0.087677
v 0.175189 -0.385564 0.057646
v 0.133612 -0.366681 0.057646
v 0.181328 -0.325761 0.087677
v 0.133612 -0.366681 -0.020272
v 0.078311 -0.420618 0.038803
v 0.087210 -0.411347 -0.006156
v 0.108684 -0.396971 -0.087677
v 0.157010 -0.428462 -0.087677
v 0.108684 -0.396971 -0.026117
v 0.161365 -0.430991 -0.026117
v 0.139216 -0.448606 -0.006156
v 0.114285 -0.432072 0.038803
v 0.197268 -0.395431 -0.002519
v 0.199450 -0.393864 -0.005993
v 0.196159 -0.395894 0.001705
v 0.200025 -0.390831 0.012466
v 0.197652 -0.393403 0.009815
v 0.205595 -0.388505 -0.008769
v 0.202374 -0.391433 -0.008187
v 0.203053 -0.387854 0.013586
v 0.208623 -0.385528 -0.007649
v 0.206274 -0.384927 0.013005
v 0.209198 -0.382494 0.010810
v 0.212488 -0.380465 0.003113
v 0.212353 -0.381176 -0.001218
v 0.210996 -0.382955 -0.004997
v 0.211380 -0.380927 0.007336
v 0.196295 -0.395182 0.006036
v 0.152610 -0.372317 0.016555
v 0.168323 -0.358827 0.012807
v 0.171216 -0.356375 0.030700
v 0.179507 -0.349278 0.006716
v 0.189821 -0.340433 0.016555
v 0.177651 -0.350863 0.010367
v 0.174874 -0.353233 0.012807
v 0.152610 -0.372317 -0.011737
v 0.163040 -0.363337 0.002409
v 0.180158 -0.348722 0.002409
v 0.171599 -0.356029 -0.008845
v 0.171216 -0.356375 -0.025883
v 0.174874 -0.353233 -0.007989
v 0.171599 -0.356029 0.013663
v 0.168323 -0.358827 -0.007989
v 0.165547 -0.361197 0.010367
v 0.189821 -0.340433 -0.011737
v 0.165547 -0.361197 -0.005549
v 0.179507 -0.349278 -0.001898
v 0.177651 -0.350863 -0.005549
v 0.163692 -0.362781 0.006716
v 0.163692 -0.362781 -0.001898
v 0.181328 -0.327842 0.016555
v 0.181328 -0.327842 -0.011737
v 0.142015 -0.359726 0.016555
v 0.160620 -0.343784 0.030700
v 0.142015 -0.359726 -0.011737
v 0.160620 -0.343784 -0.025883
v 0.278247 -0.188630 0.072642
v 0.181328 -0.188630 0.072642
v 0.275238 -0.284022 0.072642
v 0.181328 -0.284022 0.072642
v 0.199830 -0.024810 0.072642
v 0.275891 -0.073487 0.072642
v 0.258579 -0.229040 0.072642
v 0.260391 -0.229218 0.072642
v 0.262134 -0.229747 0.072642
v 0.263739 -0.230605 0.072642
v 0.265147 -0.231760 0.072642
v 0.266302 -0.233168 0.072642
v 0.267160 -0.234774 0.072642
v 0.267689 -0.236516 0.072642
v 0.267867 -0.238328 0.072642
v 0.267689 -0.240140 0.072642
v 0.267160 -0.241883 0.072642
v 0.266302 -0.243488 0.072642
v 0.265147 -0.244896 0.072642
v 0.263739 -0.246051 0.072642
v 0.262134 -0.246909 0.072642
v 0.260391 -0.247438 0.072642
v 0.258579 -0.247616 0.072642
v 0.256767 -0.247438 0.072642
v 0.255025 -0.246909 0.072642
v 0.253419 -0.246051 0.072642
v 0.252011 -0.244896 0.072642
v 0.250856 -0.243488 0.072642
v 0.249998 -0.241883 0.072642
v 0.249469 -0.240140 0.072642
v 0.249291 -0.238328 0.072642
v 0.249469 -0.236516 0.072642
v 0.249998 -0.234774 0.072642
v 0.250856 -0.233168 0.072642
v 0.252011 -0.231760 0.072642
v 0.253419 -0.230605 0.072642
v 0.255025 -0.229747 0.072642
v 0.256767 -0.229218 0.072642
v 0.209291 -0.227542 0.072642
v 0.211103 -0.227721 0.072642
v 0.212845 -0.228249 0.072642
v 0.214451 -0.229108 0.072642
v 0.215859 -0.230263 0.072642
v 0.217014 -0.231670 0.072642
v 0.217872 -0.233276 0.072642
v 0.218401 -0.235019 0.072642
v 0.218579 -0.236831 0.072642
v 0.218401 -0.238643 0.072642
v 0.217872 -0.240385 0.072642
v 0.217014 -0.241991 0.072642
v 0.215859 -0.243398 0.072642
v 0.214451 -0.244554 0.072642
v 0.212845 -0.245412 0.072642
v 0.211103 -0.245940 0.072642
v 0.209291 -0.246119 0.072642
v 0.207479 -0.245940 0.072642
v 0.205736 -0.245412 0.072642
v 0.204131 -0.244554 0.072642
v 0.202723 -0.243398 0.072642
v 0.201568 -0.241991 0.072642
v 0.200710 -0.240385 0.072642
v 0.200181 -0.238643 0.072642
v 0.200003 -0.236831 0.072642
v 0.200181 -0.235019 0.072642
v 0.200710 -0.233276 0.072642
v 0.201568 -0.231670 0.072642
v 0.202723 -0.230263 0.072642
v 0.204131 -0.229108 0.072642
v 0.205736 -0.228249 0.072642
v 0.207479 -0.227721 0.072642
v 0.258579 -0.229040 0.062265
v 0.260391 -0.229218 0.062265
v 0.262134 -0.229747 0.062265
v 0.263739 -0.230605 0.062265
v 0.265147 -0.231760 0.062265
v 0.266302 -0.233168 0.062265
v 0.267160 -0.234774 0.062265
v 0.267689 -0.236516 0.062265
v 0.267867 -0.238328 0.062265
v 0.267689 -0.240140 0.062265
v 0.267160 -0.241883 0.062265
v 0.266302 -0.243488 0.062265
v 0.265147 -0.244896 0.062265
v 0.263739 -0.246051 0.062265
v 0.262134 -0.246909 0.062265
v 0.260391 -0.247438 0.062265
v 0.258579 -0.247616 0.062265
v 0.256767 -0.247438 0.062265
v 0.255025 -0.246909 0.062265
v 0.253419 -0.246051 0.062265
v 0.252011 -0.244896 0.062265
v 0.250856 -0.243488 0.062265
v 0.249998 -0.241883 0.062265
v 0.249469 -0.240140 0.062265
v 0.249291 -0.238328 0.062265
v 0.249469 -0.236516 0.062265
v 0.249998 -0.234774 0.062265
v 0.250856 -0.233168 0.062265
v 0.252011 -0.231760 0.062265
v 0.253419 -0.230605 0.062265
v 0.255025 -0.229747 0.062265
v 0.256767 -0.229218 0.062265
v 0.209291 -0.227542 0.062265
v 0.211103 -0.227721 0.062265
v 0.212845 -0.228249 0.062265
v 0.214451 -0.229108 0.062265
v 0.215859 -0.230263 0.062265
v 0.217014 -0.231670 0.062265
v 0.217872 -0.233276 0.062265
v 0.218401 -0.235019 0.062265
v 0.218579 -0.236831 0.062265
v 0.218401 -0.238643 0.062265
v 0.217872 -0.240385 0.062265
v 0.217014 -0.241991 0.062265
v 0.215859 -0.243398 0.062265
v 0.214451 -0.244554 0.062265
v 0.212845 -0.245412 0.062265
v 0.211103 -0.245940 0.062265
v 0.209291 -0.246119 0.062265
v 0.207479 -0.245940 0.062265
v 0.205736 -0.245412 0.062265
v 0.204131 -0.244554 0.062265
v 0.202723 -0.243398 0.062265
v 0.201568 -0.241991 0.062265
v 0.200710 -0.240385 0.062265
v 0.200181 -0.238643 0.062265
v 0.200003 -0.236831 0.062265
v 0.200181 -0.235019 0.062265
v 0.200710 -0.233276 0.062265
v 0.201568 -0.231670 0.062265
v 0.202723 -0.230263 0.062265
v 0.204131 -0.229108 0.062265
v 0.205736 -0.228249 0.062265
v 0.207479 -0.227721 0.062265
v 0.258579 -0.229040 -0.003209
v 0.260391 -0.229218 -0.003209
v 0.262134 -0.229747 -0.003209
v 0.263739 -0.230605 -0.003209
v 0.265147 -0.231760 -0.003209
v 0.266302 -0.233168 -0.003209
v 0.267160 -0.234774 -0.003209
v 0.267689 -0.236516 -0.003209
v 0.267867 -0.238328 -0.003209
v 0.267689 -0.240140 -0.003209
v 0.267160 -0.241883 -0.003209
v 0.266302 -0.243488 -0.003209
v 0.265147 -0.244896 -0.003209
v 0.263739 -0.246051 -0.003209
v 0.262134 -0.246909 -0.003209
v 0.260391 -0.247438 -0.003209
v 0.258579 -0.247616 -0.003209
v 0.256767 -0.247438 -0.003209
v 0.255025 -0.246909 -0.003209
v 0.253419 -0.246051 -0.003209
v 0.252011 -0.244896 -0.003209
v 0.250856 -0.243488 -0.003209
v 0.249998 -0.241883 -0.003209
v 0.249469 -0.240140 -0.003209
v 0.249291 -0.238328 -0.003209
v 0.249469 -0.236516 -0.003209
v 0.249998 -0.234774 -0.003209
v 0.250856 -0.233168 -0.003209
v 0.252011 -0.231760 -0.003209
v 0.253419 -0.230605 -0.003209
v 0.255025 -0.229747 -0.003209
v 0.256767 -0.229218 -0.003209
v 0.209291 -0.227542 -0.003209
v 0.211103 -0.227721 -0.003209
v 0.212845 -0.228249 -0.003209
v 0.214451 -0.229108 -0.003209
v 0.215859 -0.230263 -0.003209
v 0.217014 -0.231670 -0.003209
v 0.217872 -0.233276 -0.003209
v 0.218401 -0.235019 -0.003209
v 0.218579 -0.236831 -0.003209
v 0.218401 -0.238643 -0.003209
v 0.217872 -0.240385 -0.003209
v 0.217014 -0.241991 -0.003209
v 0.215859 -0.243398 -0.003209
v 0.214451 -0.244554 -0.003209
v 0.212845 -0.245412 -0.003209
v 0.211103 -0.245940 -0.003209
v 0.209291 -0.246119 -0.003209
v 0.207479 -0.245940 -0.003209
v 0.205736 -0.245412 -0.003209
v 0.204131 -0.244554 -0.003209
v 0.202723 -0.243398 -0.003209
v 0.201568 -0.241991 -0.003209
v 0.200710 -0.240385 -0.003209
v 0.200181 -0.238643 -0.003209
v 0.200003 -0.236831 -0.003209
v 0.200181 -0.235019 -0.003209
v 0.200710 -0.233276 -0.003209
v 0.201568 -0.231670 -0.003209
v 0.202723 -0.230263 -0.003209
v 0.204131 -0.229108 -0.003209
v 0.205736 -0.228249 -0.003209
v 0.207479 -0.227721 -0.003209
v 0.209291 -0.236831 -0.003209
v 0.258579 -0.238328 -0.003209
v 0.053166 -0.433697 0.038803
v 0.053166 -0.435856 -0.006156
v 0.053166 -0.445554 -0.087677
v 0.053166 -0.503224 -0.087677
v 0.053166 -0.445554 -0.026117
v 0.053166 -0.508248 -0.026117
v 0.053166 -0.499811 -0.006156
v 0.053166 -0.477937 0.038803
v -0.029216 -0.433697 0.038803
v -0.029216 -0.445554 -0.087677
v -0.029216 -0.503224 -0.087677
v -0.029216 -0.445554 -0.026117
v -0.029216 -0.508248 -0.026117
v -0.029216 -0.477937 0.038803
v -0.118510 -0.239870 -0.020272
v -0.118510 -0.239870 -0.087677
v -0.118510 -0.284022 -0.087677
v -0.118510 -0.239870 -0.054076
v -0.118510 -0.284022 -0.054076
v -0.118510 -0.284022 -0.020272
v -0.118510 -0.054045 -0.054076
v -0.118510 -0.054045 -0.087677
v -0.118510 -0.054045 -0.020272
v -0.278246 -0.239870 -0.020265
v -0.278246 -0.239870 -0.087677
v -0.278246 -0.284022 -0.087677
v -0.278246 -0.239870 -0.054076
v -0.278246 -0.284022 -0.054076
v -0.278246 -0.284022 -0.015428
v -0.278246 -0.239870 0.023423
v -0.278246 -0.284022 0.023423
v -0.166781 0.194427 -0.087677
v -0.166781 0.102185 -0.087677
v -0.099409 0.080541 -0.087677
v -0.108862 0.142143 -0.087677
v -0.166781 0.102185 -0.020272
v -0.166781 0.194427 -0.020272
v -0.108862 0.142143 -0.020272
v -0.099409 0.080541 -0.020272
v -0.166781 0.194427 -0.054076
v -0.108862 0.142143 -0.054076
v -0.099409 0.080541 -0.054076
v -0.166781 0.102185 -0.054076
v -0.054420 0.272941 -0.087677
v -0.054420 0.272941 -0.054076
v -0.054420 0.272941 -0.020272
v -0.119143 0.275484 -0.087677
v -0.119143 0.275484 -0.054076
v -0.119143 0.275484 -0.020272
v -0.278247 -0.252658 -0.032333
v 0.062878 -0.122221 -0.054076
v 0.062878 -0.054045 -0.087677
v 0.062878 -0.122221 -0.020272
v 0.062878 0.100056 -0.087677
v -0.056789 0.100278 -0.020272
v -0.056789 0.100279 -0.087677
v -0.086381 0.274213 -0.087677
v -0.086381 0.274213 -0.054076
v -0.086381 0.274213 -0.020272
v -0.054420 0.156507 -0.087677
v -0.054420 0.156507 -0.020272
v 0.060114 0.156284 -0.020272
v 0.060114 0.156284 -0.087677
v 0.062878 0.100055 -0.020272
v -0.019417 0.253089 -0.087677
v -0.019417 0.253089 -0.020272
v -0.019417 0.253089 -0.054076
v 0.053856 0.253089 -0.087677
v 0.053856 0.253089 -0.020272
v 0.053856 0.253089 -0.054076
v 0.053856 0.179310 -0.087677
v 0.053856 0.179310 -0.020272
v 0.053856 0.179310 -0.054076
v -0.019417 0.179310 -0.087677
v -0.019417 0.179310 -0.020272
v -0.019417 0.179310 -0.054076
v -0.056789 0.042569 -0.020272
v -0.056789 0.042569 -0.054076
v 0.062878 0.100054 -0.054076
v -0.056789 0.100278 -0.054076
v -0.111647 0.335506 -0.087677
v -0.111647 0.335506 -0.054076
v -0.111647 0.335506 -0.020272
v -0.019417 0.335506 -0.087677
v -0.019417 0.335506 -0.020272
v 0.109390 0.335506 -0.087677
v -0.111647 0.428268 -0.087677
v -0.111647 0.428268 -0.054076
v -0.111647 0.428268 -0.020272
v -0.019417 0.428268 -0.087677
v -0.019417 0.428268 -0.054076
v -0.019417 0.428268 -0.020272
v 0.109390 0.428268 -0.087677
v 0.109390 0.428268 -0.054076
v 0.109390 0.428268 -0.020272
v -0.056789 -0.122221 -0.020272
v -0.056789 -0.122221 -0.054076
v -0.278247 -0.252836 -0.034145
v -0.278247 -0.253365 -0.035888
v -0.278247 -0.254223 -0.037494
v -0.278247 -0.255378 -0.038901
v -0.278247 -0.256786 -0.040056
v -0.278247 -0.258392 -0.040915
v -0.278247 -0.260134 -0.041443
v -0.278247 -0.261946 -0.041622
v -0.278247 -0.263758 -0.041443
v -0.278247 -0.265500 -0.040915
v -0.278247 -0.267106 -0.040056
v -0.278247 -0.268514 -0.038901
v -0.278247 -0.269669 -0.037494
v -0.278247 -0.270527 -0.035888
v -0.278247 -0.271056 -0.034145
v -0.278247 -0.271234 -0.032333
v -0.278247 -0.271056 -0.030521
v -0.278247 -0.270527 -0.028779
v -0.278247 -0.269669 -0.027173
v -0.278247 -0.268514 -0.025766
v -0.278247 -0.267106 -0.024610
v -0.278247 -0.265500 -0.023752
v -0.278247 -0.263758 -0.023224
v -0.278247 -0.261946 -0.023045
v -0.278247 -0.260134 -0.023224
v -0.278247 -0.258392 -0.023752
v -0.278247 -0.256786 -0.024610
v -0.278247 -0.255378 -0.025766
v -0.278247 -0.254223 -0.027173
v -0.278247 -0.253365 -0.028779
v -0.278247 -0.252836 -0.030521
v -0.219278 -0.252658 -0.032333
v -0.219278 -0.252836 -0.034145
v -0.219278 -0.253365 -0.035888
v -0.219278 -0.254223 -0.037494
v -0.219278 -0.255378 -0.038901
v -0.219278 -0.256786 -0.040056
v -0.219278 -0.258392 -0.040915
v -0.219278 -0.260134 -0.041443
v -0.219278 -0.261946 -0.041622
v -0.219278 -0.263758 -0.041443
v -0.219278 -0.265500 -0.040915
v -0.219278 -0.267106 -0.040056
v -0.219278 -0.268514 -0.038901
v -0.219278 -0.269669 -0.037494
v -0.219278 -0.270527 -0.035888
v -0.219278 -0.271056 -0.034145
v -0.219278 -0.271234 -0.032333
v -0.219278 -0.271056 -0.030521
v -0.219278 -0.270527 -0.028779
v -0.219278 -0.269669 -0.027173
v -0.219278 -0.268514 -0.025766
v -0.219278 -0.267106 -0.024610
v -0.219278 -0.265500 -0.023752
v -0.219278 -0.263758 -0.023224
v -0.219278 -0.261946 -0.023045
v -0.219278 -0.260134 -0.023224
v -0.219278 -0.258392 -0.023752
v -0.219278 -0.256786 -0.024610
v -0.219278 -0.255378 -0.025766
v -0.219278 -0.254223 -0.027173
v -0.219278 -0.253365 -0.028779
v -0.219278 -0.252836 -0.030521
v -0.219277 -0.261946 -0.032333
v -0.159377 -0.239870 -0.012914
v -0.159377 -0.239870 -0.054076
v -0.159377 -0.284022 -0.054076
v -0.159377 -0.284022 -0.012914
v -0.059823 -0.239870 -0.020272
v -0.059823 -0.284022 -0.020272
v -0.111647 0.508248 -0.087677
v -0.111647 0.508248 -0.054076
v -0.111647 0.508248 -0.020272
v -0.019417 0.508248 -0.087677
v -0.019417 0.508248 -0.054076
v -0.019417 0.508248 -0.020272
v 0.054327 0.428268 -0.087677
v 0.054327 0.428268 -0.054076
v 0.054327 0.428268 -0.020272
v 0.109390 0.508248 -0.087677
v 0.109390 0.508248 -0.054076
v 0.109390 0.508248 -0.020272
v 0.054327 0.508248 -0.087677
v 0.054327 0.508248 -0.054076
v 0.054327 0.508248 -0.020272
v -0.111647 0.371893 0.072642
v -0.019417 0.371893 0.072642
v -0.111647 0.412080 0.072642
v -0.019417 0.412080 0.072642
v -0.111647 0.371893 -0.020272
v -0.019417 0.371893 -0.020272
v -0.045671 0.402539 0.072642
v -0.043859 0.402360 0.072642
v -0.042117 0.401832 0.072642
v -0.040511 0.400974 0.072642
v -0.039103 0.399818 0.072642
v -0.037948 0.398411 0.072642
v -0.037090 0.396805 0.072642
v -0.036561 0.395063 0.072642
v -0.036383 0.393251 0.072642
v -0.036561 0.391439 0.072642
v -0.037090 0.389696 0.072642
v -0.037948 0.388090 0.072642
v -0.039103 0.386683 0.072642
v -0.040511 0.385528 0.072642
v -0.042117 0.384669 0.072642
v -0.043859 0.384141 0.072642
v -0.045671 0.383962 0.072642
v -0.047483 0.384141 0.072642
v -0.049226 0.384669 0.072642
v -0.050831 0.385528 0.072642
v -0.052239 0.386683 0.072642
v -0.053394 0.388090 0.072642
v -0.054252 0.389696 0.072642
v -0.054781 0.391439 0.072642
v -0.054959 0.393251 0.072642
v -0.054781 0.395063 0.072642
v -0.054252 0.396805 0.072642
v -0.053394 0.398411 0.072642
v -0.052239 0.399818 0.072642
v -0.050831 0.400974 0.072642
v -0.049225 0.401832 0.072642
v -0.047483 0.402360 0.072642
v -0.085957 0.402452 0.072642
v -0.084145 0.402274 0.072642
v -0.082403 0.401745 0.072642
v -0.080797 0.400887 0.072642
v -0.079390 0.399732 0.072642
v -0.078234 0.398324 0.072642
v -0.077376 0.396718 0.072642
v -0.076848 0.394976 0.072642
v -0.076669 0.393164 0.072642
v -0.076848 0.391352 0.072642
v -0.077376 0.389609 0.072642
v -0.078234 0.388004 0.072642
v -0.079390 0.386596 0.072642
v -0.080797 0.385441 0.072642
v -0.082403 0.384583 0.072642
v -0.084145 0.384054 0.072642
v -0.085957 0.383876 0.072642
v -0.087769 0.384054 0.072642
v -0.089512 0.384583 0.072642
v -0.091118 0.385441 0.072642
v -0.092525 0.386596 0.072642
v -0.093680 0.388004 0.072642
v -0.094539 0.389609 0.072642
v -0.095067 0.391352 0.072642
v -0.095246 0.393164 0.072642
v -0.095067 0.394976 0.072642
v -0.094539 0.396718 0.072642
v -0.093680 0.398324 0.072642
v -0.092525 0.399732 0.072642
v -0.091118 0.400887 0.072642
v -0.089512 0.401745 0.072642
v -0.087769 0.402274 0.072642
v -0.045671 0.402539 0.062265
v -0.043859 0.402360 0.062265
v -0.042117 0.401832 0.062265
v -0.040511 0.400974 0.062265
v -0.039103 0.399818 0.062265
v -0.037948 0.398411 0.062265
v -0.037090 0.396805 0.062265
v -0.036561 0.395063 0.062265
v -0.036383 0.393251 0.062265
v -0.036561 0.391439 0.062265
v -0.037090 0.389696 0.062265
v -0.037948 0.388090 0.062265
v -0.039103 0.386683 0.062265
v -0.040511 0.385528 0.062265
v -0.042117 0.384669 0.062265
v -0.043859 0.384141 0.062265
v -0.045671 0.383962 0.062265
v -0.047483 0.384141 0.062265
v -0.049226 0.384669 0.062265
v -0.050831 0.385528 0.062265
v -0.052239 0.386683 0.062265
v -0.053394 0.388090 0.062265
v -0.054252 0.389696 0.062265
v -0.054781 0.391439 0.062265
v -0.054959 0.393251 0.062265
v -0.054781 0.395063 0.062265
v -0.054252 0.396805 0.062265
v -0.053394 0.398411 0.062265
v -0.052239 0.399818 0.062265
v -0.050831 0.400974 0.062265
v -0.049225 0.401832 0.062265
v -0.047483 0.402360 0.062265
v -0.085957 0.402452 0.062265
v -0.084145 0.402274 0.062265
v -0.082403 0.401745 0.062265
v -0.080797 0.400887 0.062265
v -0.079390 0.399732 0.062265
v -0.078234 0.398324 0.062265
v -0.077376 0.396718 0.062265
v -0.076848 0.394976 0.062265
v -0.076669 0.393164 0.062265
v -0.076848 0.391352 0.062265
v -0.077376 0.389609 0.062265
v -0.078234 0.388004 0.062265
v -0.079390 0.386596 0.062265
v -0.080797 0.385441 0.062265
v -0.082403 0.384583 0.062265
v -0.084145 0.384054 0.062265
v -0.085957 0.383876 0.062265
v -0.087769 0.384054 0.062265
v -0.089512 0.384583 0.062265
v -0.091118 0.385441 0.062265
v -0.092525 0.386596 0.062265
v -0.093680 0.388004 0.062265
v -0.094539 0.389609 0.062265
v -0.095067 0.391352 0.062265
v -0.095246 0.393164 0.062265
v -0.095067 0.394976 0.062265
v -0.094539 0.396718 0.062265
v -0.093680 0.398324 0.062265
v -0.092525 0.399732 0.062265
v -0.091118 0.400887 0.062265
v -0.089512 0.401745 0.062265
v -0.087769 0.402274 0.062265
v -0.045671 0.402539 -0.003209
v -0.043859 0.402360 -0.003209
v -0.042117 0.401832 -0.003209
v -0.040511 0.400974 -0.003209
v -0.039103 0.399818 -0.003209
v -0.037948 0.398411 -0.003209
v -0.037090 0.396805 -0.003209
v -0.036561 0.395063 -0.003209
v -0.036383 0.393251 -0.003209
v -0.036561 0.391439 -0.003209
v -0.037090 0.389696 -0.003209
v -0.037948 0.388090 -0.003209
v -0.039103 0.386683 -0.003209
v -0.040511 0.385528 -0.003209
v -0.042117 0.384669 -0.003209
v -0.043859 0.384141 -0.003209
v -0.045671 0.383962 -0.003209
v -0.047483 0.384141 -0.003209
v -0.049226 0.384669 -0.003209
v -0.050831 0.385528 -0.003209
v -0.052239 0.386683 -0.003209
v -0.053394 0.388090 -0.003209
v -0.054252 0.389696 -0.003209
v -0.054781 0.391439 -0.003209
v -0.054959 0.393251 -0.003209
v -0.054781 0.395063 -0.003209
v -0.054252 0.396805 -0.003209
v -0.053394 0.398411 -0.003209
v -0.052239 0.399818 -0.003209
v -0.050831 0.400974 -0.003209
v -0.049225 0.401832 -0.003209
v -0.047483 0.402360 -0.003209
v -0.085957 0.402452 -0.003209
v -0.084145 0.402274 -0.003209
v -0.082403 0.401745 -0.003209
v -0.080797 0.400887 -0.003209
v -0.079390 0.399732 -0.003209
v -0.078234 0.398324 -0.003209
v -0.077376 0.396718 -0.003209
v -0.076848 0.394976 -0.003209
v -0.076669 0.393164 -0.003209
v -0.076848 0.391352 -0.003209
v -0.077376 0.389609 -0.003209
v -0.078234 0.388004 -0.003209
v -0.079390 0.386596 -0.003209
v -0.080797 0.385441 -0.003209
v -0.082403 0.384583 -0.003209
v -0.084145 0.384054 -0.003209
v -0.085957 0.383876 -0.003209
v -0.087769 0.384054 -0.003209
v -0.089512 0.384583 -0.003209
v -0.091118 0.385441 -0.003209
v -0.092525 0.386596 -0.003209
v -0.093680 0.388004 -0.003209
v -0.094539 0.389609 -0.003209
v -0.095067 0.391352 -0.003209
v -0.095246 0.393164 -0.003209
v -0.095067 0.394976 -0.003209
v -0.094539 0.396718 -0.003209
v -0.093680 0.398324 -0.003209
v -0.092525 0.399732 -0.003209
v -0.091118 0.400887 -0.003209
v -0.089512 0.401745 -0.003209
v -0.087769 0.402274 -0.003209
v -0.085957 0.393164 -0.003209
v -0.045671 0.393251 -0.003209
v 0.109390 0.335506 -0.054076
v 0.109390 0.335506 -0.020272
v 0.109390 0.063807 -0.087677
v 0.109390 0.096142 -0.020272
v 0.177858 0.063807 -0.087677
v 0.169342 0.096142 -0.020272
v 0.173600 0.079975 -0.053985
v 0.109390 0.079975 -0.053985
v -0.136108 -0.239870 -0.012914
v -0.136108 -0.284022 -0.012914
v -0.136108 -0.239870 0.023423
v -0.136108 -0.284022 0.023423
v -0.080532 -0.109166 -0.020272
v -0.083552 -0.110082 -0.020272
v -0.086335 -0.111570 -0.020272
v -0.088774 -0.113572 -0.020272
v -0.090776 -0.116011 -0.020272
v -0.092264 -0.118794 -0.020272
v -0.093180 -0.121814 -0.020272
v -0.093489 -0.124955 -0.020272
v -0.093180 -0.128095 -0.020272
v -0.092264 -0.131115 -0.020272
v -0.090776 -0.133898 -0.020272
v -0.088774 -0.136338 -0.020272
v -0.086335 -0.138340 -0.020272
v -0.083552 -0.139827 -0.020272
v -0.080532 -0.140743 -0.020272
v -0.077391 -0.141053 -0.020272
v -0.074251 -0.140743 -0.020272
v -0.071231 -0.139827 -0.020272
v -0.068448 -0.138340 -0.020272
v -0.066008 -0.136338 -0.020272
v -0.064006 -0.133898 -0.020272
v -0.062519 -0.131115 -0.020272
v -0.061603 -0.128095 -0.020272
v -0.061293 -0.124955 -0.020272
v -0.061603 -0.121814 -0.020272
v -0.062519 -0.118794 -0.020272
v -0.064006 -0.116011 -0.020272
v -0.066008 -0.113572 -0.020272
v -0.068448 -0.111570 -0.020272
v -0.071231 -0.110082 -0.020272
v -0.074251 -0.109166 -0.020272
v -0.077391 -0.108857 -0.020272
v -0.080532 0.003416 -0.020272
v -0.083552 0.002500 -0.020272
v -0.086335 0.001012 -0.020272
v -0.088774 -0.000990 -0.020272
v -0.090776 -0.003429 -0.020272
v -0.092264 -0.006212 -0.020272
v -0.093180 -0.009232 -0.020272
v -0.093489 -0.012372 -0.020272
v -0.093180 -0.015513 -0.020272
v -0.092264 -0.018533 -0.020272
v -0.090776 -0.021316 -0.020272
v -0.088774 -0.023755 -0.020272
v -0.086335 -0.025757 -0.020272
v -0.083552 -0.027245 -0.020272
v -0.080532 -0.028161 -0.020272
v -0.077391 -0.028470 -0.020272
v -0.074251 -0.028161 -0.020272
v -0.071231 -0.027245 -0.020272
v -0.068448 -0.025757 -0.020272
v -0.066008 -0.023755 -0.020272
v -0.064006 -0.021316 -0.020272
v -0.062519 -0.018533 -0.020272
v -0.061603 -0.015513 -0.020272
v -0.061293 -0.012372 -0.020272
v -0.061603 -0.009232 -0.020272
v -0.062519 -0.006212 -0.020272
v -0.064006 -0.003429 -0.020272
v -0.066008 -0.000990 -0.020272
v -0.068448 0.001012 -0.020272
v -0.071231 0.002500 -0.020272
v -0.074251 0.003416 -0.020272
v -0.077391 0.003725 -0.020272
v -0.080532 -0.109166 -0.087677
v -0.083552 -0.110082 -0.087677
v -0.086335 -0.111570 -0.087677
v -0.088774 -0.113572 -0.087677
v -0.090776 -0.116011 -0.087677
v -0.092264 -0.118794 -0.087677
v -0.093180 -0.121814 -0.087677
v -0.093489 -0.124955 -0.087677
v -0.093180 -0.128095 -0.087677
v -0.092264 -0.131115 -0.087677
v -0.090776 -0.133898 -0.087677
v -0.088774 -0.136338 -0.087677
v -0.086335 -0.138340 -0.087677
v -0.083552 -0.139827 -0.087677
v -0.080532 -0.140743 -0.087677
v -0.077391 -0.141053 -0.087677
v -0.074251 -0.140743 -0.087677
v -0.071231 -0.139827 -0.087677
v -0.068448 -0.138340 -0.087677
v -0.066008 -0.136338 -0.087677
v -0.064006 -0.133898 -0.087677
v -0.062519 -0.131115 -0.087677
v -0.061603 -0.128095 -0.087677
v -0.061293 -0.124955 -0.087677
v -0.061603 -0.121814 -0.087677
v -0.062519 -0.118794 -0.087677
v -0.064006 -0.116011 -0.087677
v -0.066008 -0.113572 -0.087677
v -0.068448 -0.111570 -0.087677
v -0.071231 -0.110082 -0.087677
v -0.074251 -0.109166 -0.087677
v -0.077391 -0.108857 -0.087677
v -0.080532 0.003416 -0.087677
v -0.083552 0.002500 -0.087677
v -0.086335 0.001012 -0.087677
v -0.088774 -0.000990 -0.087677
v -0.090776 -0.003429 -0.087677
v -0.092264 -0.006212 -0.087677
v -0.093180 -0.009232 -0.087677
v -0.093489 -0.012372 -0.087677
v -0.093180 -0.015513 -0.087677
v -0.092264 -0.018533 -0.087677
v -0.090776 -0.021316 -0.087677
v -0.088774 -0.023755 -0.087677
v -0.086335 -0.025757 -0.087677
v -0.083552 -0.027245 -0.087677
v -0.080532 -0.028161 -0.087677
v -0.077391 -0.028470 -0.087677
v -0.074251 -0.028161 -0.087677
v -0.071231 -0.027245 -0.087677
v -0.068448 -0.025757 -0.087677
v -0.066008 -0.023755 -0.087677
v -0.064006 -0.021316 -0.087677
v -0.062519 -0.018533 -0.087677
v -0.061603 -0.015513 -0.087677
v -0.061293 -0.012372 -0.087677
v -0.061603 -0.009232 -0.087677
v -0.062519 -0.006212 -0.087677
v -0.064006 -0.003429 -0.087677
v -0.066008 -0.000990 -0.087677
v -0.068448 0.001012 -0.087677
v -0.071231 0.002500 -0.087677
v -0.074251 0.003416 -0.087677
v -0.077391 0.003725 -0.087677
vn -0.0000 -0.0000 1.0000
vn -0.0000 -0.0000 -1.0000
vn 0.6530 0.7026 -0.2827
vn 0.5882 0.8087 -0.0000
vn 0.5830 0.8015 -0.1332
vn 0.5462 0.8376 -0.0000
vn 0.9742 -0.0379 -0.2226
vn 0.9434 -0.0027 -0.3316
vn 0.9159 -0.0127 -0.4011
vn 0.9426 -0.0367 -0.3318
vn 0.9405 -0.0782 -0.3306
vn 0.9393 -0.0766 -0.3344
vn 0.9333 -0.1461 -0.3280
vn 0.8703 -0.0724 -0.4872
vn -1.0000 -0.0000 -0.0000
vn -0.6510 0.7591 -0.0000
vn 0.8812 -0.3154 -0.3522
vn 0.8999 -0.2960 -0.3204
vn 0.7994 -0.5543 -0.2317
vn 0.7565 -0.5799 -0.3024
vn 0.8135 -0.3139 -0.4896
vn 0.8329 -0.2982 -0.4662
vn 0.8393 -0.4327 -0.3290
vn 0.7112 -0.4931 -0.5010
vn -0.1589 -0.3499 0.9232
vn -0.0838 -0.5242 0.8474
vn -0.9936 0.1130 -0.0013
vn 0.9996 0.0088 -0.0270
vn 0.9962 -0.0563 -0.0668
vn -0.6982 0.7159 -0.0000
vn -0.6915 0.7222 0.0120
vn 0.5812 -0.8107 -0.0703
vn 0.5480 -0.8287 0.1136
vn -0.6585 0.7525 -0.0000
vn 0.4906 -0.7439 0.4538
vn -0.5360 0.8441 0.0137
vn -0.0872 -0.2739 0.9578
vn -0.1047 -0.2306 0.9674
vn 0.7304 -0.6784 -0.0795
vn 0.7735 -0.5526 -0.3104
vn -0.7721 0.6355 -0.0000
vn -0.7074 0.6400 -0.3000
vn 0.6729 -0.7075 -0.2160
vn 0.6670 -0.7400 0.0871
vn 0.6698 -0.7373 0.0881
vn 0.6692 -0.7370 0.0949
vn 0.4755 -0.8048 0.3552
vn 0.6796 -0.7210 0.1350
vn 0.5655 -0.7239 0.3952
vn 0.6708 -0.7305 0.1285
vn 0.6460 -0.6231 0.4409
vn 0.4928 -0.8044 0.3317
vn 0.7018 -0.6922 0.1680
vn 0.7898 -0.6087 0.0754
vn 0.6608 -0.7398 0.1266
vn 0.8005 -0.5811 0.1464
vn 0.6684 -0.7370 0.1002
vn 0.4928 -0.7917 0.3612
vn 0.6350 -0.7615 0.1303
vn 0.7909 -0.6062 0.0835
vn 0.8125 -0.5114 0.2796
vn 0.7851 -0.6131 0.0878
vn 0.6671 -0.7372 0.1074
vn 0.5015 -0.6841 0.5297
vn 0.6705 -0.7380 0.0759
vn 0.6683 -0.7340 0.1207
vn -0.6512 0.7589 0.0013
vn -0.6505 0.7595 -0.0009
vn -0.6502 0.7598 -0.0018
vn -0.6525 0.7578 -0.0000
vn -0.6507 0.7593 -0.0004
vn -0.6505 0.7595 0.0003
vn -0.6492 0.7606 -0.0008
vn -0.6495 0.7603 0.0008
vn -0.6495 0.7603 -0.0008
vn -0.6512 0.7589 -0.0013
vn -0.6509 0.7591 0.0034
vn -0.6505 0.7595 -0.0003
vn -0.6509 0.7591 -0.0034
vn -0.6507 0.7593 0.0004
vn -0.6502 0.7598 0.0018
vn -0.6492 0.7606 0.0008
vn -0.6519 0.7583 0.0007
vn -0.6519 0.7583 -0.0007
vn -0.6505 0.7595 0.0009
vn -0.6514 0.7587 -0.0018
vn -0.8291 -0.5592 -0.0000
vn 0.3826 0.3219 -0.8660
vn 0.3826 0.3220 -0.8660
vn -0.3826 -0.3220 -0.8660
vn -0.3952 -0.2666 -0.8790
vn 0.7652 0.6438 -0.0000
vn 0.3826 0.3219 0.8660
vn -0.4166 -0.2810 0.8646
vn -0.3645 -0.3067 0.8792
vn -0.6511 0.7590 -0.0000
vn -0.6514 0.7587 0.0018
vn 0.5601 0.5644 0.6064
vn 0.5814 0.5959 0.5539
vn 0.6808 0.6871 0.2539
vn 0.6857 0.7015 0.1943
vn 0.6968 0.7040 -0.1375
vn 0.6856 0.7016 -0.1943
vn 0.6064 0.6131 -0.5063
vn 0.5810 0.5963 -0.5539
vn 0.4249 0.4294 -0.7969
vn 0.3876 0.4006 -0.8303
vn 0.1803 0.1805 -0.9669
vn 0.1341 0.1433 -0.9806
vn -0.0912 -0.0966 -0.9911
vn -0.1402 -0.1362 -0.9807
vn -0.3493 -0.3605 -0.8649
vn -0.3930 -0.3945 -0.8306
vn -0.5547 -0.5705 -0.6058
vn -0.5854 -0.5916 -0.5544
vn -0.6750 -0.6931 -0.2530
vn -0.6893 -0.6979 -0.1944
vn -0.6915 -0.7091 0.1381
vn -0.6894 -0.6978 0.1944
vn -0.6022 -0.6170 0.5066
vn -0.5857 -0.5913 0.5544
vn -0.4217 -0.4323 0.7970
vn -0.3932 -0.3943 0.8306
vn -0.1774 -0.1834 0.9669
vn -0.1402 -0.1362 0.9807
vn 0.0946 0.0928 0.9912
vn 0.1344 0.1430 0.9806
vn 0.3538 0.3554 0.8652
vn 0.3880 0.4001 0.8303
vn -0.6565 0.7543 -0.0000
vn -0.6729 0.7187 0.1751
vn -0.6493 0.7605 -0.0046
vn -0.6510 0.7591 0.0071
vn -0.6451 0.7640 0.0125
vn -0.6489 0.7608 -0.0039
vn -0.6376 0.7703 -0.0000
vn -0.6467 0.7628 -0.0000
vn -0.6197 0.7845 -0.0229
vn 0.5426 0.8400 -0.0027
vn 0.0182 0.3024 0.9530
vn 0.8834 -0.4683 0.0152
vn 0.9952 0.0980 -0.0000
vn 0.4714 -0.8819 -0.0000
vn -0.6344 -0.7730 -0.0000
vn 0.9952 -0.0980 -0.0000
vn 0.2903 -0.9569 -0.0000
vn -0.7730 -0.6344 -0.0000
vn 0.9569 -0.2903 -0.0000
vn 0.0980 -0.9952 -0.0000
vn -0.8819 -0.4714 -0.0000
vn 0.8819 -0.4714 -0.0000
vn -0.0980 -0.9952 -0.0000
vn -0.9569 -0.2903 -0.0000
vn 0.7730 -0.6344 -0.0000
vn -0.2903 -0.9569 -0.0000
vn -0.9952 -0.0980 -0.0000
vn 0.6344 -0.7730 -0.0000
vn -0.4714 -0.8819 -0.0000
vn -0.9952 0.0980 -0.0000
vn -0.9569 0.2903 -0.0000
vn -0.8819 0.4714 -0.0000
vn -0.7730 0.6344 -0.0000
vn -0.6344 0.7730 -0.0000
vn -0.4714 0.8819 -0.0000
vn -0.2903 0.9569 -0.0000
vn -0.9570 0.2903 -0.0000
vn -0.0980 0.9952 -0.0000
vn 0.0980 0.9952 -0.0000
vn 0.2903 0.9569 -0.0000
vn 0.4714 0.8819 -0.0000
vn 0.6344 0.7730 -0.0000
vn 0.7730 0.6344 -0.0000
vn 0.8819 0.4714 -0.0000
vn 0.9569 0.2903 -0.0000
vn -0.0000 1.0000 -0.0000
vn -0.0000 -0.9967 -0.0813
vn -0.6135 0.7517 -0.2419
vn 0.6701 0.7423 -0.0000
vn -0.3059 -0.9521 -0.0000
vn -0.9232 0.3843 -0.0000
vn -0.0398 -0.9992 -0.0000
vn -0.0388 -0.9992 -0.0000
vn -0.9988 -0.0491 -0.0000
vn 0.9991 -0.0421 -0.0000
vn -0.0000 -1.0000 -0.0000
vn 1.0000 -0.0000 -0.0000
vn -0.0019 -1.0000 -0.0000
vn 0.0019 1.0000 -0.0000
vn -0.9901 0.1405 -0.0000
vn -0.0000 -0.8992 0.4375
vn -0.0097 -0.9061 0.4230
vn -0.0000 -0.9211 0.3893
vn -0.0000 0.8995 -0.4370
vn -0.0721 0.9812 -0.1792
vn -0.0000 0.9988 -0.0480
vn -0.0000 0.9852 0.1716
vn -0.9923 0.1239 -0.0000
vn -0.0000 -0.8819 0.4714
vn -0.0000 -0.8819 -0.4714
vn -0.0000 0.9952 -0.0980
vn -0.0000 -0.7730 0.6344
vn -0.0000 -0.9569 -0.2903
vn -0.0000 0.9569 -0.2903
vn -0.0000 -0.6344 0.7730
vn -0.0000 -0.9952 -0.0980
vn -0.0000 0.8819 -0.4714
vn -0.0000 -0.4714 0.8819
vn -0.0000 0.7730 -0.6344
vn -0.0000 -0.2903 0.9569
vn -0.0000 0.6344 -0.7730
vn -0.0000 -0.0980 0.9952
vn -0.0000 0.4714 -0.8819
vn -0.0000 0.0980 0.9952
vn -0.0000 0.2903 -0.9569
vn -0.0000 0.2903 0.9569
vn -0.0000 0.0980 -0.9952
vn -0.0000 0.4714 0.8819
vn -0.0000 -0.0980 -0.9952
vn -0.0000 0.6344 0.7730
vn -0.0000 -0.2903 -0.9569
vn -0.0000 0.7730 0.6344
vn -0.0000 -0.4714 -0.8819
vn -0.0000 0.8819 0.4714
vn -0.0000 -0.9952 0.0980
vn -0.0000 -0.6344 -0.7730
vn -0.0000 0.9569 0.2903
vn -0.0000 -0.9569 0.2903
vn -0.0000 -0.7730 -0.6344
vn -0.0000 0.9952 0.0980
vn -1.0000 -0.0000 0.0001
vn -1.0000 -0.0000 -0.0001
vn -1.0000 0.0001 -0.0000
vn -1.0000 -0.0001 -0.0000
vn -1.0000 0.0001 0.0001
vn -1.0000 -0.0000 0.0002
vn -0.2902 -0.9570 -0.0000
vn 0.2903 -0.9570 -0.0000
vn -0.0981 0.9952 -0.0000
vn 0.0981 0.9952 -0.0000
vn -0.7730 0.6343 -0.0000
vn -0.0000 0.9016 -0.4326
vn -0.0000 0.9017 -0.4324
vn 0.9693 0.2457 0.0023
vn 0.9697 0.2442 0.0027
vt 0.000000 0.000000
s 0
f 86/1/1 91/1/1 87/1/1
f 5/1/2 7/1/2 6/1/2
f 7/1/2 5/1/2 8/1/2
f 7/1/2 9/1/2 6/1/2
f 9/1/2 7/1/2 10/1/2
f 5/1/3 11/1/3 8/1/3
f 11/1/4 5/1/4 12/1/4
f 12/1/5 2/1/5 11/1/5
f 2/1/6 12/1/6 1/1/6
f 2/1/7 13/1/7 11/1/7
f 13/1/8 2/1/8 3/1/8
f 11/1/9 7/1/9 8/1/9
f 7/1/10 11/1/10 13/1/10
f 3/1/11 14/1/11 13/1/11
f 14/1/12 3/1/12 15/1/12
f 13/1/13 10/1/13 7/1/13
f 10/1/14 13/1/14 14/1/14
f 308/1/1 723/1/1 722/1/1
f 300/1/1 693/1/1 692/1/1
f 697/1/1 300/1/1 698/1/1
f 731/1/1 381/1/1 732/1/1
f 9/1/2 19/1/2 18/1/2
f 19/1/2 9/1/2 10/1/2
f 18/1/2 21/1/2 20/1/2
f 21/1/2 18/1/2 19/1/2
f 16/1/15 18/1/15 22/1/15
f 18/1/15 16/1/15 9/1/15
f 22/1/16 20/1/16 23/1/16
f 20/1/16 22/1/16 18/1/16
f 17/1/15 22/1/15 24/1/15
f 22/1/15 17/1/15 16/1/15
f 14/1/17 26/1/17 25/1/17
f 26/1/18 14/1/18 15/1/18
f 25/1/19 28/1/19 27/1/19
f 28/1/20 25/1/20 26/1/20
f 10/1/21 25/1/21 19/1/21
f 25/1/22 10/1/22 14/1/22
f 19/1/23 27/1/23 21/1/23
f 27/1/24 19/1/24 25/1/24
f 29/1/25 31/1/25 30/1/25
f 31/1/26 29/1/26 32/1/26
f 1/1/27 4/1/27 87/1/27 90/1/27
f 86/1/28 3/1/28 2/1/28 91/1/28
f 91/1/1 90/1/1 87/1/1
f 3/1/29 86/1/29 88/1/29 15/1/29
f 33/1/30 34/1/30 31/1/30
f 34/1/31 33/1/31 35/1/31
f 21/1/2 36/1/2 20/1/2
f 36/1/2 21/1/2 37/1/2
f 37/1/2 289/1/2 288/1/2 36/1/2
f 39/1/32 291/1/32 289/1/32 37/1/32
f 40/1/33 292/1/33 291/1/33 39/1/33
f 36/1/34 288/1/34 290/1/34 38/1/34
f 41/1/35 293/1/35 292/1/35 40/1/35
f 35/1/36 287/1/36 286/1/36 34/1/36
f 30/1/37 34/1/37 41/1/37
f 34/1/38 30/1/38 31/1/38
f 39/1/39 37/1/39 27/1/39
f 27/1/40 37/1/40 21/1/40
f 20/1/41 38/1/41 23/1/41
f 38/1/41 20/1/41 36/1/41
f 33/1/41 23/1/41 38/1/41
f 33/1/42 38/1/42 35/1/42
f 28/1/43 39/1/43 27/1/43
f 28/1/44 40/1/44 39/1/44
f 42/1/45 40/1/45 43/1/45
f 44/1/46 40/1/46 42/1/46
f 30/1/47 46/1/47 45/1/47
f 47/1/48 48/1/48 28/1/48
f 30/1/49 45/1/49 49/1/49
f 50/1/50 47/1/50 28/1/50
f 30/1/51 49/1/51 51/1/51
f 29/1/52 30/1/52 51/1/52
f 29/1/53 51/1/53 52/1/53
f 53/1/54 54/1/54 26/1/54
f 28/1/55 55/1/55 50/1/55
f 56/1/56 53/1/56 26/1/56
f 40/1/57 44/1/57 57/1/57
f 46/1/58 30/1/58 41/1/58
f 54/1/59 55/1/59 28/1/59
f 54/1/60 28/1/60 26/1/60
f 52/1/61 56/1/61 26/1/61
f 52/1/62 26/1/62 29/1/62
f 40/1/63 57/1/63 46/1/63
f 40/1/64 46/1/64 41/1/64
f 40/1/65 48/1/65 43/1/65
f 28/1/66 48/1/66 40/1/66
f 58/1/67 60/1/67 59/1/67
f 61/1/68 63/1/68 62/1/68
f 63/1/69 64/1/69 62/1/69
f 65/1/70 58/1/70 66/1/70
f 67/1/71 61/1/71 62/1/71
f 62/1/72 64/1/72 60/1/72
f 68/1/73 70/1/73 69/1/73
f 71/1/74 59/1/74 60/1/74
f 69/1/75 72/1/75 68/1/75
f 69/1/76 65/1/76 72/1/76
f 73/1/77 58/1/77 59/1/77
f 70/1/78 74/1/78 69/1/78
f 65/1/79 75/1/79 72/1/79
f 74/1/80 76/1/80 67/1/80
f 74/1/81 70/1/81 77/1/81
f 64/1/82 71/1/82 60/1/82
f 66/1/83 58/1/83 78/1/83
f 79/1/84 65/1/84 66/1/84
f 74/1/85 77/1/85 76/1/85
f 65/1/86 79/1/86 75/1/86
f 80/1/87 74/1/87 62/1/87
f 74/1/87 80/1/87 81/1/87
f 82/1/88 60/1/88 58/1/88
f 60/1/89 82/1/89 83/1/89
f 83/1/90 62/1/90 60/1/90
f 62/1/91 83/1/91 80/1/91
f 84/1/92 58/1/92 65/1/92
f 58/1/92 84/1/92 82/1/92
f 85/1/93 65/1/93 69/1/93
f 65/1/93 85/1/93 84/1/93
f 81/1/94 69/1/94 74/1/94
f 69/1/95 81/1/95 85/1/95
f 74/1/96 67/1/96 62/1/96
f 73/1/97 78/1/97 58/1/97
f 43/1/98 79/1/98 42/1/98
f 79/1/99 43/1/99 75/1/99
f 42/1/100 66/1/100 44/1/100
f 66/1/101 42/1/101 79/1/101
f 44/1/102 78/1/102 57/1/102
f 78/1/103 44/1/103 66/1/103
f 57/1/104 73/1/104 46/1/104
f 73/1/105 57/1/105 78/1/105
f 46/1/106 59/1/106 45/1/106
f 59/1/107 46/1/107 73/1/107
f 45/1/108 71/1/108 49/1/108
f 71/1/109 45/1/109 59/1/109
f 49/1/110 64/1/110 51/1/110
f 64/1/111 49/1/111 71/1/111
f 51/1/112 63/1/112 52/1/112
f 63/1/113 51/1/113 64/1/113
f 52/1/114 61/1/114 56/1/114
f 61/1/115 52/1/115 63/1/115
f 56/1/116 67/1/116 53/1/116
f 67/1/117 56/1/117 61/1/117
f 53/1/118 76/1/118 54/1/118
f 76/1/119 53/1/119 67/1/119
f 54/1/120 77/1/120 55/1/120
f 77/1/121 54/1/121 76/1/121
f 55/1/122 70/1/122 50/1/122
f 70/1/123 55/1/123 77/1/123
f 50/1/124 68/1/124 47/1/124
f 68/1/125 50/1/125 70/1/125
f 47/1/126 72/1/126 48/1/126
f 72/1/127 47/1/127 68/1/127
f 48/1/128 75/1/128 43/1/128
f 75/1/129 48/1/129 72/1/129
f 24/1/130 22/1/130 85/1/130
f 81/1/131 24/1/131 85/1/131
f 32/1/15 24/1/15 80/1/15
f 31/1/132 32/1/132 83/1/132
f 85/1/133 22/1/133 23/1/133
f 80/1/15 24/1/15 81/1/15
f 84/1/134 85/1/134 33/1/134
f 82/1/135 31/1/135 83/1/135
f 82/1/136 84/1/136 33/1/136
f 33/1/137 85/1/137 23/1/137
f 33/1/136 31/1/136 82/1/136
f 83/1/138 32/1/138 80/1/138
f 88/1/1 110/1/1 111/1/1
f 150/1/1 151/1/1 87/1/1
f 17/1/15 89/1/15 87/1/15 4/1/15
f 1/1/139 90/1/139 91/1/139 2/1/139
f 88/1/140 89/1/140 32/1/140 29/1/140
f 89/1/15 17/1/15 24/1/15 32/1/15
f 15/1/141 88/1/141 29/1/141 26/1/141
f 148/1/142 147/1/142 211/1/142 212/1/142
f 122/1/143 121/1/143 185/1/143 186/1/143
f 96/1/144 95/1/144 159/1/144 160/1/144
f 149/1/145 148/1/145 212/1/145 213/1/145
f 123/1/146 122/1/146 186/1/146 187/1/146
f 97/1/147 96/1/147 160/1/147 161/1/147
f 150/1/148 149/1/148 213/1/148 214/1/148
f 92/1/149 123/1/149 187/1/149 156/1/149
f 98/1/150 97/1/150 161/1/150 162/1/150
f 151/1/151 150/1/151 214/1/151 215/1/151
f 125/1/152 124/1/152 188/1/152 189/1/152
f 99/1/153 98/1/153 162/1/153 163/1/153
f 152/1/154 151/1/154 215/1/154 216/1/154
f 126/1/155 125/1/155 189/1/155 190/1/155
f 100/1/156 99/1/156 163/1/156 164/1/156
f 153/1/157 152/1/157 216/1/157 217/1/157
f 127/1/158 126/1/158 190/1/158 191/1/158
f 101/1/159 100/1/159 164/1/159 165/1/159
f 154/1/143 153/1/143 217/1/143 218/1/143
f 128/1/144 127/1/144 191/1/144 192/1/144
f 102/1/160 101/1/160 165/1/160 166/1/160
f 155/1/146 154/1/146 218/1/146 219/1/146
f 129/1/147 128/1/147 192/1/147 193/1/147
f 103/1/161 102/1/161 166/1/161 167/1/161
f 124/1/149 155/1/149 219/1/149 188/1/149
f 130/1/150 129/1/150 193/1/150 194/1/150
f 104/1/162 103/1/162 167/1/162 168/1/162
f 131/1/153 130/1/153 194/1/153 195/1/153
f 105/1/163 104/1/163 168/1/163 169/1/163
f 132/1/156 131/1/156 195/1/156 196/1/156
f 106/1/164 105/1/164 169/1/164 170/1/164
f 133/1/159 132/1/159 196/1/159 197/1/159
f 107/1/165 106/1/165 170/1/165 171/1/165
f 134/1/166 133/1/166 197/1/166 198/1/166
f 108/1/167 107/1/167 171/1/167 172/1/167
f 135/1/161 134/1/161 198/1/161 199/1/161
f 109/1/168 108/1/168 172/1/168 173/1/168
f 136/1/162 135/1/162 199/1/162 200/1/162
f 110/1/169 109/1/169 173/1/169 174/1/169
f 137/1/163 136/1/163 200/1/163 201/1/163
f 111/1/170 110/1/170 174/1/170 175/1/170
f 138/1/164 137/1/164 201/1/164 202/1/164
f 112/1/171 111/1/171 175/1/171 176/1/171
f 139/1/165 138/1/165 202/1/165 203/1/165
f 113/1/172 112/1/172 176/1/172 177/1/172
f 140/1/167 139/1/167 203/1/167 204/1/167
f 114/1/173 113/1/173 177/1/173 178/1/173
f 141/1/168 140/1/168 204/1/168 205/1/168
f 115/1/174 114/1/174 178/1/174 179/1/174
f 142/1/169 141/1/169 205/1/169 206/1/169
f 116/1/142 115/1/142 179/1/142 180/1/142
f 143/1/170 142/1/170 206/1/170 207/1/170
f 117/1/145 116/1/145 180/1/145 181/1/145
f 144/1/171 143/1/171 207/1/171 208/1/171
f 118/1/148 117/1/148 181/1/148 182/1/148
f 145/1/172 144/1/172 208/1/172 209/1/172
f 119/1/151 118/1/151 182/1/151 183/1/151
f 93/1/152 92/1/152 156/1/152 157/1/152
f 146/1/173 145/1/173 209/1/173 210/1/173
f 120/1/154 119/1/154 183/1/154 184/1/154
f 94/1/155 93/1/155 157/1/155 158/1/155
f 147/1/174 146/1/174 210/1/174 211/1/174
f 121/1/157 120/1/157 184/1/157 185/1/157
f 95/1/158 94/1/158 158/1/158 159/1/158
f 201/1/163 200/1/163 264/1/163 265/1/163
f 175/1/170 174/1/170 238/1/170 239/1/170
f 202/1/164 201/1/164 265/1/164 266/1/164
f 176/1/171 175/1/171 239/1/171 240/1/171
f 203/1/165 202/1/165 266/1/165 267/1/165
f 177/1/172 176/1/172 240/1/172 241/1/172
f 204/1/167 203/1/167 267/1/167 268/1/167
f 178/1/173 177/1/173 241/1/173 242/1/173
f 205/1/168 204/1/168 268/1/168 269/1/168
f 179/1/174 178/1/174 242/1/174 243/1/174
f 206/1/169 205/1/169 269/1/169 270/1/169
f 180/1/142 179/1/142 243/1/142 244/1/142
f 207/1/170 206/1/170 270/1/170 271/1/170
f 181/1/145 180/1/145 244/1/145 245/1/145
f 208/1/171 207/1/171 271/1/171 272/1/171
f 182/1/148 181/1/148 245/1/148 246/1/148
f 209/1/172 208/1/172 272/1/172 273/1/172
f 183/1/151 182/1/151 246/1/151 247/1/151
f 157/1/152 156/1/152 220/1/152 221/1/152
f 210/1/173 209/1/173 273/1/173 274/1/173
f 184/1/154 183/1/154 247/1/154 248/1/154
f 158/1/155 157/1/155 221/1/155 222/1/155
f 211/1/174 210/1/174 274/1/174 275/1/174
f 185/1/157 184/1/157 248/1/157 249/1/157
f 159/1/158 158/1/158 222/1/158 223/1/158
f 212/1/142 211/1/142 275/1/142 276/1/142
f 186/1/143 185/1/143 249/1/143 250/1/143
f 160/1/144 159/1/144 223/1/144 224/1/144
f 213/1/145 212/1/145 276/1/145 277/1/145
f 187/1/146 186/1/146 250/1/146 251/1/146
f 161/1/147 160/1/147 224/1/147 225/1/147
f 214/1/148 213/1/148 277/1/148 278/1/148
f 156/1/149 187/1/149 251/1/149 220/1/149
f 162/1/150 161/1/150 225/1/150 226/1/150
f 215/1/151 214/1/151 278/1/151 279/1/151
f 189/1/152 188/1/152 252/1/152 253/1/152
f 163/1/153 162/1/153 226/1/153 227/1/153
f 216/1/154 215/1/154 279/1/154 280/1/154
f 190/1/155 189/1/155 253/1/155 254/1/155
f 164/1/156 163/1/156 227/1/156 228/1/156
f 217/1/157 216/1/157 280/1/157 281/1/157
f 191/1/158 190/1/158 254/1/158 255/1/158
f 165/1/159 164/1/159 228/1/159 229/1/159
f 218/1/143 217/1/143 281/1/143 282/1/143
f 192/1/144 191/1/144 255/1/144 256/1/144
f 166/1/160 165/1/160 229/1/160 230/1/160
f 219/1/146 218/1/146 282/1/146 283/1/146
f 193/1/147 192/1/147 256/1/147 257/1/147
f 167/1/161 166/1/161 230/1/161 231/1/161
f 188/1/149 219/1/149 283/1/149 252/1/149
f 194/1/150 193/1/150 257/1/150 258/1/150
f 168/1/162 167/1/162 231/1/162 232/1/162
f 195/1/153 194/1/153 258/1/153 259/1/153
f 169/1/163 168/1/163 232/1/163 233/1/163
f 196/1/156 195/1/156 259/1/156 260/1/156
f 170/1/164 169/1/164 233/1/164 234/1/164
f 197/1/159 196/1/159 260/1/159 261/1/159
f 171/1/165 170/1/165 234/1/165 235/1/165
f 198/1/160 197/1/160 261/1/160 262/1/160
f 172/1/167 171/1/167 235/1/167 236/1/167
f 199/1/161 198/1/161 262/1/161 263/1/161
f 173/1/168 172/1/168 236/1/168 237/1/168
f 200/1/162 199/1/162 263/1/162 264/1/162
f 174/1/169 173/1/169 237/1/169 238/1/169
f 267/1/1 266/1/1 284/1/1
f 254/1/1 253/1/1 284/1/1
f 281/1/1 280/1/1 284/1/1
f 268/1/1 267/1/1 284/1/1
f 255/1/1 254/1/1 284/1/1
f 282/1/1 281/1/1 284/1/1
f 269/1/1 268/1/1 284/1/1
f 256/1/1 255/1/1 284/1/1
f 283/1/1 282/1/1 284/1/1
f 270/1/1 269/1/1 284/1/1
f 257/1/1 256/1/1 284/1/1
f 252/1/1 283/1/1 284/1/1
f 271/1/1 270/1/1 284/1/1
f 258/1/1 257/1/1 284/1/1
f 272/1/1 271/1/1 284/1/1
f 259/1/1 258/1/1 284/1/1
f 273/1/1 272/1/1 284/1/1
f 260/1/1 259/1/1 284/1/1
f 274/1/1 273/1/1 284/1/1
f 261/1/1 260/1/1 284/1/1
f 275/1/1 274/1/1 284/1/1
f 262/1/1 261/1/1 284/1/1
f 276/1/1 275/1/1 284/1/1
f 263/1/1 262/1/1 284/1/1
f 277/1/1 276/1/1 284/1/1
f 264/1/1 263/1/1 284/1/1
f 278/1/1 277/1/1 284/1/1
f 265/1/1 264/1/1 284/1/1
f 279/1/1 278/1/1 284/1/1
f 266/1/1 265/1/1 284/1/1
f 253/1/1 252/1/1 284/1/1
f 280/1/1 279/1/1 284/1/1
f 227/1/1 226/1/1 285/1/1
f 241/1/1 240/1/1 285/1/1
f 228/1/1 227/1/1 285/1/1
f 242/1/1 241/1/1 285/1/1
f 229/1/1 228/1/1 285/1/1
f 243/1/1 242/1/1 285/1/1
f 230/1/1 229/1/1 285/1/1
f 244/1/1 243/1/1 285/1/1
f 231/1/1 230/1/1 285/1/1
f 245/1/1 244/1/1 285/1/1
f 232/1/1 231/1/1 285/1/1
f 246/1/1 245/1/1 285/1/1
f 233/1/1 232/1/1 285/1/1
f 247/1/1 246/1/1 285/1/1
f 234/1/1 233/1/1 285/1/1
f 221/1/1 220/1/1 285/1/1
f 248/1/1 247/1/1 285/1/1
f 235/1/1 234/1/1 285/1/1
f 222/1/1 221/1/1 285/1/1
f 249/1/1 248/1/1 285/1/1
f 236/1/1 235/1/1 285/1/1
f 223/1/1 222/1/1 285/1/1
f 250/1/1 249/1/1 285/1/1
f 237/1/1 236/1/1 285/1/1
f 224/1/1 223/1/1 285/1/1
f 251/1/1 250/1/1 285/1/1
f 238/1/1 237/1/1 285/1/1
f 225/1/1 224/1/1 285/1/1
f 220/1/1 251/1/1 285/1/1
f 239/1/1 238/1/1 285/1/1
f 226/1/1 225/1/1 285/1/1
f 240/1/1 239/1/1 285/1/1
f 151/1/1 152/1/1 87/1/1
f 152/1/1 153/1/1 87/1/1
f 153/1/1 154/1/1 87/1/1
f 154/1/1 155/1/1 87/1/1
f 87/1/1 155/1/1 124/1/1
f 88/1/1 108/1/1 109/1/1
f 87/1/1 123/1/1 86/1/1
f 92/1/1 93/1/1 86/1/1
f 93/1/1 94/1/1 86/1/1
f 94/1/1 95/1/1 86/1/1
f 95/1/1 96/1/1 86/1/1
f 96/1/1 97/1/1 86/1/1
f 97/1/1 98/1/1 86/1/1
f 98/1/1 99/1/1 86/1/1
f 99/1/1 100/1/1 86/1/1
f 87/1/1 89/1/1 148/1/1
f 126/1/1 122/1/1 87/1/1
f 122/1/1 123/1/1 87/1/1
f 119/1/1 120/1/1 129/1/1
f 111/1/1 112/1/1 137/1/1
f 123/1/1 92/1/1 86/1/1
f 122/1/1 127/1/1 121/1/1
f 129/1/1 120/1/1 128/1/1
f 112/1/1 113/1/1 136/1/1
f 130/1/1 119/1/1 129/1/1
f 120/1/1 121/1/1 128/1/1
f 130/1/1 118/1/1 119/1/1
f 138/1/1 139/1/1 89/1/1
f 131/1/1 118/1/1 130/1/1
f 131/1/1 117/1/1 118/1/1
f 149/1/1 87/1/1 148/1/1
f 132/1/1 117/1/1 131/1/1
f 132/1/1 116/1/1 117/1/1
f 87/1/1 125/1/1 126/1/1
f 89/1/1 147/1/1 148/1/1
f 133/1/1 116/1/1 132/1/1
f 133/1/1 115/1/1 116/1/1
f 88/1/1 86/1/1 101/1/1
f 89/1/1 146/1/1 147/1/1
f 134/1/1 115/1/1 133/1/1
f 134/1/1 114/1/1 115/1/1
f 102/1/1 88/1/1 101/1/1
f 89/1/1 145/1/1 146/1/1
f 135/1/1 114/1/1 134/1/1
f 135/1/1 113/1/1 114/1/1
f 103/1/1 88/1/1 102/1/1
f 89/1/1 144/1/1 145/1/1
f 136/1/1 113/1/1 135/1/1
f 89/1/1 143/1/1 144/1/1
f 137/1/1 112/1/1 136/1/1
f 127/1/1 128/1/1 121/1/1
f 104/1/1 88/1/1 103/1/1
f 89/1/1 142/1/1 143/1/1
f 138/1/1 111/1/1 137/1/1
f 126/1/1 127/1/1 122/1/1
f 105/1/1 88/1/1 104/1/1
f 89/1/1 141/1/1 142/1/1
f 89/1/1 140/1/1 141/1/1
f 88/1/1 111/1/1 138/1/1
f 139/1/1 140/1/1 89/1/1
f 106/1/1 88/1/1 105/1/1
f 88/1/1 138/1/1 89/1/1
f 149/1/1 150/1/1 87/1/1
f 107/1/1 88/1/1 106/1/1
f 86/1/1 100/1/1 101/1/1
f 108/1/1 88/1/1 107/1/1
f 87/1/1 124/1/1 125/1/1
f 88/1/1 109/1/1 110/1/1
f 286/1/1 294/1/1 299/1/1 293/1/1
f 288/1/175 295/1/175 297/1/175 290/1/175
f 291/1/176 298/1/176 296/1/176 289/1/176
f 34/1/1 286/1/1 293/1/1 41/1/1
f 38/1/177 290/1/177 287/1/177 35/1/177
f 295/1/15 298/1/15 297/1/15
f 298/1/15 295/1/15 296/1/15
f 289/1/2 296/1/2 295/1/2 288/1/2
f 303/1/175 301/1/175 448/1/175
f 447/1/175 448/1/175 312/1/175
f 447/1/175 312/1/175 309/1/175
f 306/1/15 301/1/15 303/1/15
f 301/1/15 306/1/15 307/1/15
f 303/1/15 308/1/15 306/1/15
f 310/1/15 313/1/15 312/1/15
f 313/1/15 310/1/15 311/1/15
f 385/1/15 384/1/15 312/1/15
f 385/1/15 312/1/15 386/1/15
f 302/1/2 311/1/2 310/1/2 301/1/2
f 676/1/175 447/1/175 315/1/175 678/1/175
f 448/1/175 301/1/175 310/1/175
f 448/1/175 310/1/175 312/1/175
f 314/1/15 316/1/15 315/1/15 309/1/15
f 750/1/2 307/1/2 749/1/2
f 319/1/2 782/1/2 307/1/2
f 745/1/2 307/1/2 744/1/2
f 696/1/1 300/1/1 697/1/1
f 791/1/2 792/1/2 775/1/2
f 307/1/2 790/1/2 791/1/2
f 764/1/2 765/1/2 6/1/2
f 300/1/1 694/1/1 693/1/1
f 792/1/2 793/1/2 774/1/2
f 6/1/2 765/1/2 337/1/2
f 307/1/2 789/1/2 790/1/2
f 301/1/2 752/1/2 753/1/2
f 773/1/2 793/1/2 772/1/2
f 301/1/2 763/1/2 6/1/2
f 307/1/2 788/1/2 789/1/2
f 751/1/2 752/1/2 307/1/2
f 301/1/2 753/1/2 754/1/2
f 781/1/2 319/1/2 780/1/2
f 337/1/2 766/1/2 767/1/2
f 714/1/1 713/1/1 324/1/1
f 715/1/1 324/1/1 716/1/1
f 751/1/2 307/1/2 750/1/2
f 337/1/2 768/1/2 769/1/2
f 307/1/2 752/1/2 301/1/2
f 796/1/2 770/1/2 771/1/2
f 795/1/2 771/1/2 772/1/2
f 337/1/2 767/1/2 768/1/2
f 793/1/2 773/1/2 774/1/2
f 792/1/2 774/1/2 775/1/2
f 337/1/2 770/1/2 796/1/2
f 695/1/1 300/1/1 696/1/1
f 337/1/2 765/1/2 766/1/2
f 746/1/2 307/1/2 745/1/2
f 747/1/2 307/1/2 746/1/2
f 300/1/1 695/1/1 694/1/1
f 748/1/2 307/1/2 747/1/2
f 749/1/2 307/1/2 748/1/2
f 759/1/2 760/1/2 301/1/2
f 712/1/1 743/1/1 362/1/1
f 301/1/2 754/1/2 755/1/2
f 791/1/2 775/1/2 307/1/2
f 734/1/1 381/1/1 735/1/1
f 301/1/2 758/1/2 759/1/2
f 308/1/1 721/1/1 720/1/1
f 301/1/2 757/1/2 758/1/2
f 737/1/1 736/1/1 362/1/1
f 763/1/2 764/1/2 6/1/2
f 713/1/1 712/1/1 362/1/1
f 301/1/2 755/1/2 756/1/2
f 705/1/1 381/1/1 706/1/1
f 807/1/2 319/1/2 806/1/2
f 707/1/1 731/1/1 730/1/1
f 706/1/1 381/1/1 707/1/1
f 324/1/1 718/1/1 717/1/1
f 308/1/1 727/1/1 726/1/1
f 707/1/1 730/1/1 708/1/1
f 369/1/2 371/1/2 350/1/2
f 727/1/1 711/1/1 710/1/1
f 308/1/1 725/1/1 724/1/1
f 686/1/1 308/1/1 687/1/1
f 686/1/1 685/1/1 308/1/1
f 797/1/2 798/1/2 337/1/2
f 685/1/1 684/1/1 308/1/1
f 350/1/2 371/1/2 353/1/2
f 342/1/2 366/1/2 369/1/2
f 777/1/2 319/1/2 776/1/2
f 308/1/1 711/1/1 727/1/1
f 702/1/1 381/1/1 703/1/1
f 308/1/1 722/1/1 721/1/1
f 684/1/1 683/1/1 308/1/1
f 704/1/1 381/1/1 705/1/1
f 682/1/1 681/1/1 308/1/1
f 727/1/1 710/1/1 728/1/1
f 681/1/1 680/1/1 308/1/1
f 702/1/1 701/1/1 381/1/1
f 329/1/2 369/1/2 350/1/2
f 703/1/1 381/1/1 704/1/1
f 307/1/2 784/1/2 785/1/2
f 683/1/1 682/1/1 308/1/1
f 794/1/2 795/1/2 772/1/2
f 307/1/2 787/1/2 788/1/2
f 795/1/2 796/1/2 771/1/2
f 307/1/2 786/1/2 787/1/2
f 796/1/2 797/1/2 337/1/2
f 307/1/2 785/1/2 786/1/2
f 329/1/2 342/1/2 369/1/2
f 307/1/2 783/1/2 784/1/2
f 798/1/2 799/1/2 337/1/2
f 799/1/2 800/1/2 337/1/2
f 680/1/1 711/1/1 308/1/1
f 307/1/2 782/1/2 783/1/2
f 805/1/2 319/1/2 804/1/2
f 800/1/2 801/1/2 337/1/2
f 307/1/2 775/1/2 744/1/2
f 781/1/2 782/1/2 319/1/2
f 337/1/2 803/1/2 319/1/2
f 801/1/2 802/1/2 337/1/2
f 802/1/2 803/1/2 337/1/2
f 319/1/2 803/1/2 804/1/2
f 381/1/1 701/1/1 338/1/1
f 738/1/1 737/1/1 362/1/1
f 761/1/2 762/1/2 301/1/2
f 324/1/1 713/1/1 362/1/1
f 741/1/1 740/1/1 362/1/1
f 762/1/2 763/1/2 301/1/2
f 736/1/1 735/1/1 362/1/1
f 760/1/2 761/1/2 301/1/2
f 308/1/1 718/1/1 324/1/1
f 733/1/1 381/1/1 734/1/1
f 740/1/1 739/1/1 362/1/1
f 337/1/2 769/1/2 770/1/2
f 308/1/1 720/1/1 719/1/1
f 308/1/1 719/1/1 718/1/1
f 739/1/1 738/1/1 362/1/1
f 743/1/1 742/1/1 362/1/1
f 735/1/1 381/1/1 362/1/1
f 301/1/2 756/1/2 757/1/2
f 732/1/1 381/1/1 733/1/1
f 742/1/1 741/1/1 362/1/1
f 671/1/1 669/1/1 347/1/1
f 671/1/1 347/1/1 349/1/1
f 17/1/1 4/1/1 451/1/1
f 9/1/2 302/1/2 301/1/2 6/1/2
f 381/1/175 338/1/175 336/1/175 382/1/175
f 699/1/1 698/1/1 338/1/1
f 317/1/2 319/1/2 318/1/2
f 319/1/2 317/1/2 320/1/2
f 321/1/1 323/1/1 322/1/1
f 323/1/1 321/1/1 324/1/1
f 322/1/178 326/1/178 325/1/178
f 326/1/178 322/1/178 323/1/178
f 325/1/178 320/1/178 317/1/178
f 320/1/178 325/1/178 326/1/178
f 324/1/179 328/1/179 327/1/179
f 328/1/179 324/1/179 321/1/179
f 327/1/179 318/1/179 319/1/179
f 318/1/179 327/1/179 328/1/179
f 325/1/15 321/1/15 322/1/15
f 321/1/15 325/1/15 328/1/15
f 328/1/15 317/1/15 318/1/15
f 317/1/15 328/1/15 325/1/15
f 320/1/180 330/1/180 329/1/180
f 330/1/180 320/1/180 326/1/180
f 326/1/180 331/1/180 330/1/180
f 331/1/180 326/1/180 323/1/180
f 346/1/1 360/1/1 331/1/1
f 320/1/2 329/1/2 345/1/2
f 320/1/2 345/1/2 319/1/2
f 347/1/1 354/1/1 357/1/1
f 360/1/1 351/1/1 331/1/1
f 347/1/1 357/1/1 360/1/1
f 729/1/1 709/1/1 708/1/1
f 338/1/1 698/1/1 300/1/1
f 362/1/1 340/1/1 324/1/1
f 337/1/2 319/1/2 341/1/2
f 330/1/181 342/1/181 329/1/181
f 342/1/181 330/1/181 343/1/181
f 343/1/182 332/1/182 342/1/182
f 332/1/182 343/1/182 333/1/182
f 331/1/181 343/1/181 330/1/181
f 343/1/181 331/1/181 344/1/181
f 344/1/182 333/1/182 343/1/182
f 333/1/182 344/1/182 334/1/182
f 339/1/183 347/1/183 348/1/183
f 340/1/184 345/1/184 346/1/184
f 337/1/2 341/1/2 339/1/2
f 340/1/1 346/1/1 324/1/1
f 323/1/1 324/1/1 346/1/1
f 341/1/2 319/1/2 345/1/2
f 323/1/1 346/1/1 331/1/1
f 347/1/1 360/1/1 346/1/1
f 332/1/2 366/1/2 342/1/2
f 351/1/185 352/1/185 355/1/185 354/1/185
f 350/1/185 353/1/185 355/1/185 352/1/185
f 354/1/15 355/1/15 358/1/15 357/1/15
f 353/1/15 356/1/15 358/1/15 355/1/15
f 357/1/175 358/1/175 361/1/175 360/1/175
f 356/1/175 359/1/175 361/1/175 358/1/175
f 352/1/186 361/1/186 359/1/186 350/1/186
f 352/1/186 351/1/186 360/1/186 361/1/186
f 346/1/187 345/1/187 348/1/187 347/1/187
f 353/1/2 371/1/2 348/1/2
f 359/1/2 329/1/2 350/1/2
f 345/1/2 329/1/2 359/1/2
f 348/1/2 356/1/2 353/1/2
f 348/1/2 359/1/2 356/1/2
f 348/1/2 345/1/2 359/1/2
f 336/1/15 338/1/15 349/1/15 364/1/15
f 363/1/1 336/1/1 364/1/1 365/1/1
f 362/1/186 363/1/186 365/1/186 340/1/186
f 345/1/184 340/1/184 365/1/184
f 345/1/184 365/1/184 341/1/184
f 341/1/188 365/1/188 364/1/188 339/1/188
f 349/1/183 347/1/183 364/1/183
f 347/1/183 339/1/183 364/1/183
f 728/1/1 709/1/1 729/1/1
f 308/1/1 726/1/1 725/1/1
f 307/1/189 327/1/189 319/1/189
f 306/1/189 327/1/189 307/1/189
f 299/1/15 294/1/15 297/1/15 298/1/15
f 293/1/190 299/1/190 292/1/190
f 298/1/191 292/1/191 299/1/191
f 291/1/192 292/1/192 298/1/192
f 290/1/193 297/1/193 287/1/193
f 297/1/194 294/1/194 287/1/194
f 286/1/195 287/1/195 294/1/195
f 374/1/196 470/1/196 471/1/196 377/1/196
f 668/1/186 379/1/186 380/1/186 669/1/186
f 371/1/186 378/1/186 379/1/186 668/1/186
f 368/1/15 472/1/15 374/1/15 373/1/15 367/1/15
f 366/1/2 372/1/2 375/1/2 369/1/2
f 669/1/1 461/1/1 473/1/1
f 373/1/15 454/1/15 453/1/15 372/1/15
f 374/1/15 455/1/15 454/1/15 373/1/15
f 377/1/1 458/1/1 455/1/1 374/1/1
f 376/1/186 457/1/186 458/1/186 377/1/186
f 378/1/186 462/1/186 463/1/186 379/1/186
f 460/1/15 466/1/15 465/1/15 459/1/15
f 367/1/15 373/1/15 372/1/15 366/1/15
f 369/1/2 375/1/2 459/1/2 378/1/2 371/1/2
f 334/1/197 368/1/197 367/1/197 333/1/197
f 333/1/197 367/1/197 366/1/197 332/1/197
f 337/1/2 339/1/2 670/1/2
f 362/1/186 381/1/186 382/1/186 363/1/186
f 304/1/185 16/1/185 452/1/185
f 9/1/185 16/1/185 304/1/185 302/1/185
f 308/1/1 724/1/1 723/1/1
f 381/1/1 731/1/1 707/1/1
f 780/1/2 319/1/2 779/1/2
f 370/1/1 368/1/1 344/1/1
f 708/1/1 730/1/1 729/1/1
f 300/1/1 691/1/1 690/1/1
f 300/1/1 690/1/1 689/1/1
f 300/1/1 689/1/1 688/1/1
f 300/1/1 688/1/1 308/1/1
f 728/1/1 710/1/1 709/1/1
f 700/1/1 338/1/1 701/1/1
f 6/1/2 337/1/2 5/1/2
f 772/1/2 793/1/2 794/1/2
f 779/1/2 319/1/2 778/1/2
f 339/1/2 348/1/2 670/1/2
f 700/1/1 699/1/1 338/1/1
f 778/1/2 319/1/2 777/1/2
f 776/1/2 319/1/2 807/1/2
f 806/1/2 319/1/2 805/1/2
f 300/1/1 692/1/1 691/1/1
f 670/1/2 5/1/2 337/1/2
f 354/1/1 669/1/1 351/1/1
f 347/1/1 669/1/1 354/1/1
f 331/1/1 370/1/1 344/1/1
f 351/1/1 669/1/1 370/1/1
f 344/1/1 368/1/1 334/1/1
f 715/1/1 714/1/1 324/1/1
f 671/1/1 349/1/1 1/1/1
f 1/1/1 349/1/1 338/1/1
f 4/1/1 1/1/1 338/1/1
f 351/1/1 370/1/1 331/1/1
f 384/1/198 385/1/198 417/1/198 416/1/198
f 411/1/199 412/1/199 444/1/199 443/1/199
f 398/1/200 399/1/200 431/1/200 430/1/200
f 385/1/201 386/1/201 418/1/201 417/1/201
f 412/1/202 413/1/202 445/1/202 444/1/202
f 399/1/203 400/1/203 432/1/203 431/1/203
f 386/1/204 387/1/204 419/1/204 418/1/204
f 413/1/205 335/1/205 414/1/205 445/1/205
f 400/1/206 401/1/206 433/1/206 432/1/206
f 387/1/207 388/1/207 420/1/207 419/1/207
f 401/1/208 402/1/208 434/1/208 433/1/208
f 388/1/209 389/1/209 421/1/209 420/1/209
f 402/1/210 403/1/210 435/1/210 434/1/210
f 389/1/211 390/1/211 422/1/211 421/1/211
f 403/1/212 404/1/212 436/1/212 435/1/212
f 390/1/213 391/1/213 423/1/213 422/1/213
f 404/1/214 405/1/214 437/1/214 436/1/214
f 391/1/215 392/1/215 424/1/215 423/1/215
f 405/1/216 406/1/216 438/1/216 437/1/216
f 392/1/217 393/1/217 425/1/217 424/1/217
f 406/1/218 407/1/218 439/1/218 438/1/218
f 393/1/219 394/1/219 426/1/219 425/1/219
f 407/1/220 408/1/220 440/1/220 439/1/220
f 394/1/221 395/1/221 427/1/221 426/1/221
f 408/1/222 409/1/222 441/1/222 440/1/222
f 395/1/223 396/1/223 428/1/223 427/1/223
f 335/1/224 383/1/224 415/1/224 414/1/224
f 409/1/225 410/1/225 442/1/225 441/1/225
f 396/1/226 397/1/226 429/1/226 428/1/226
f 383/1/227 384/1/227 416/1/227 415/1/227
f 410/1/228 411/1/228 443/1/228 442/1/228
f 397/1/229 398/1/229 430/1/229 429/1/229
f 424/1/230 425/1/230 446/1/230
f 438/1/231 439/1/231 446/1/231
f 425/1/15 426/1/15 446/1/15
f 439/1/231 440/1/231 446/1/231
f 426/1/15 427/1/15 446/1/15
f 440/1/231 441/1/231 446/1/231
f 427/1/232 428/1/232 446/1/232
f 414/1/233 415/1/233 446/1/233
f 441/1/15 442/1/15 446/1/15
f 428/1/232 429/1/232 446/1/232
f 415/1/233 416/1/233 446/1/233
f 442/1/233 443/1/233 446/1/233
f 429/1/232 430/1/232 446/1/232
f 416/1/233 417/1/233 446/1/233
f 443/1/233 444/1/233 446/1/233
f 430/1/232 431/1/232 446/1/232
f 417/1/15 418/1/15 446/1/15
f 444/1/233 445/1/233 446/1/233
f 431/1/232 432/1/232 446/1/232
f 418/1/15 419/1/15 446/1/15
f 445/1/233 414/1/233 446/1/233
f 432/1/232 433/1/232 446/1/232
f 419/1/230 420/1/230 446/1/230
f 433/1/232 434/1/232 446/1/232
f 420/1/230 421/1/230 446/1/230
f 434/1/15 435/1/15 446/1/15
f 421/1/230 422/1/230 446/1/230
f 435/1/231 436/1/231 446/1/231
f 422/1/230 423/1/230 446/1/230
f 436/1/231 437/1/231 446/1/231
f 423/1/230 424/1/230 446/1/230
f 437/1/231 438/1/231 446/1/231
f 386/1/15 312/1/15 387/1/15
f 387/1/231 312/1/231 388/1/231
f 313/1/233 314/1/233 398/1/233
f 389/1/231 312/1/231 390/1/231
f 390/1/231 313/1/231 391/1/231
f 391/1/231 313/1/231 392/1/231
f 392/1/231 313/1/231 393/1/231
f 393/1/15 313/1/15 394/1/15
f 394/1/15 313/1/15 395/1/15
f 389/1/231 388/1/231 312/1/231
f 312/1/232 384/1/232 383/1/232
f 312/1/232 383/1/232 335/1/232
f 312/1/231 313/1/231 390/1/231
f 396/1/233 313/1/233 397/1/233
f 309/1/232 312/1/232 335/1/232
f 397/1/233 313/1/233 398/1/233
f 309/1/232 335/1/232 413/1/232
f 399/1/233 398/1/233 314/1/233
f 309/1/232 413/1/232 412/1/232
f 400/1/233 399/1/233 314/1/233
f 309/1/232 412/1/232 411/1/232
f 401/1/233 400/1/233 314/1/233
f 309/1/234 411/1/234 410/1/234
f 402/1/15 401/1/15 314/1/15
f 309/1/234 410/1/234 409/1/234
f 403/1/230 402/1/230 314/1/230
f 309/1/234 409/1/234 408/1/234
f 404/1/230 403/1/230 314/1/230
f 309/1/230 408/1/230 407/1/230
f 405/1/230 404/1/230 314/1/230
f 309/1/235 407/1/235 406/1/235
f 406/1/230 405/1/230 314/1/230
f 309/1/235 406/1/235 314/1/235
f 396/1/15 395/1/15 313/1/15
f 677/1/185 679/1/185 316/1/185 450/1/185
f 303/1/15 304/1/15 305/1/15 300/1/15
f 448/1/1 449/1/1 304/1/1 303/1/1
f 316/1/1 679/1/1 678/1/1 315/1/1
f 315/1/175 447/1/175 309/1/175
f 304/1/185 449/1/185 302/1/185
f 449/1/185 311/1/185 302/1/185
f 449/1/185 313/1/185 311/1/185
f 450/1/185 313/1/185 449/1/185
f 450/1/185 314/1/185 313/1/185
f 314/1/185 450/1/185 316/1/185
f 449/1/186 448/1/186 447/1/186 450/1/186
f 676/1/2 677/1/2 450/1/2 447/1/2
f 452/1/1 451/1/1 300/1/1
f 17/1/1 451/1/1 452/1/1
f 452/1/185 305/1/185 304/1/185
f 452/1/185 16/1/185 17/1/185
f 303/1/15 300/1/15 308/1/15
f 308/1/1 688/1/1 687/1/1
f 716/1/1 324/1/1 717/1/1
f 300/1/1 4/1/1 338/1/1
f 451/1/1 4/1/1 300/1/1
f 327/1/189 306/1/189 324/1/189
f 452/1/1 300/1/1 305/1/1
f 382/1/1 336/1/1 363/1/1
f 324/1/189 306/1/189 308/1/189
f 454/1/175 456/1/175 453/1/175
f 456/1/175 454/1/175 457/1/175
f 455/1/175 457/1/175 454/1/175
f 457/1/175 455/1/175 458/1/175
f 375/1/186 456/1/186 457/1/186 376/1/186
f 372/1/2 453/1/2 456/1/2 375/1/2
f 375/1/175 376/1/175 460/1/175 459/1/175
f 376/1/175 377/1/175 461/1/175 460/1/175
f 466/1/175 467/1/175 464/1/175 463/1/175
f 465/1/175 466/1/175 463/1/175 462/1/175
f 380/1/1 464/1/1 467/1/1 461/1/1
f 461/1/15 467/1/15 466/1/15 460/1/15
f 459/1/2 465/1/2 462/1/2 378/1/2
f 379/1/186 463/1/186 464/1/186 380/1/186
f 533/1/1 470/1/1 532/1/1
f 472/1/15 468/1/15 470/1/15 374/1/15
f 370/1/1 473/1/1 472/1/1 368/1/1
f 471/1/186 469/1/186 473/1/186 377/1/186
f 469/1/185 468/1/185 472/1/185 473/1/185
f 530/1/142 529/1/142 593/1/142 594/1/142
f 504/1/143 503/1/143 567/1/143 568/1/143
f 478/1/144 477/1/144 541/1/144 542/1/144
f 531/1/145 530/1/145 594/1/145 595/1/145
f 505/1/146 504/1/146 568/1/146 569/1/146
f 479/1/147 478/1/147 542/1/147 543/1/147
f 532/1/148 531/1/148 595/1/148 596/1/148
f 474/1/149 505/1/149 569/1/149 538/1/149
f 480/1/150 479/1/150 543/1/150 544/1/150
f 533/1/151 532/1/151 596/1/151 597/1/151
f 507/1/152 506/1/152 570/1/152 571/1/152
f 481/1/153 480/1/153 544/1/153 545/1/153
f 534/1/154 533/1/154 597/1/154 598/1/154
f 508/1/236 507/1/236 571/1/236 572/1/236
f 482/1/156 481/1/156 545/1/156 546/1/156
f 535/1/157 534/1/157 598/1/157 599/1/157
f 509/1/158 508/1/158 572/1/158 573/1/158
f 483/1/159 482/1/159 546/1/159 547/1/159
f 536/1/143 535/1/143 599/1/143 600/1/143
f 510/1/144 509/1/144 573/1/144 574/1/144
f 484/1/160 483/1/160 547/1/160 548/1/160
f 537/1/237 536/1/237 600/1/237 601/1/237
f 511/1/147 510/1/147 574/1/147 575/1/147
f 485/1/161 484/1/161 548/1/161 549/1/161
f 506/1/149 537/1/149 601/1/149 570/1/149
f 512/1/150 511/1/150 575/1/150 576/1/150
f 486/1/162 485/1/162 549/1/162 550/1/162
f 513/1/153 512/1/153 576/1/153 577/1/153
f 487/1/163 486/1/163 550/1/163 551/1/163
f 514/1/156 513/1/156 577/1/156 578/1/156
f 488/1/164 487/1/164 551/1/164 552/1/164
f 515/1/159 514/1/159 578/1/159 579/1/159
f 489/1/165 488/1/165 552/1/165 553/1/165
f 516/1/160 515/1/160 579/1/160 580/1/160
f 490/1/238 489/1/238 553/1/238 554/1/238
f 517/1/161 516/1/161 580/1/161 581/1/161
f 491/1/239 490/1/239 554/1/239 555/1/239
f 518/1/240 517/1/240 581/1/240 582/1/240
f 492/1/169 491/1/169 555/1/169 556/1/169
f 519/1/163 518/1/163 582/1/163 583/1/163
f 493/1/170 492/1/170 556/1/170 557/1/170
f 520/1/164 519/1/164 583/1/164 584/1/164
f 494/1/171 493/1/171 557/1/171 558/1/171
f 521/1/165 520/1/165 584/1/165 585/1/165
f 495/1/172 494/1/172 558/1/172 559/1/172
f 522/1/167 521/1/167 585/1/167 586/1/167
f 496/1/173 495/1/173 559/1/173 560/1/173
f 523/1/168 522/1/168 586/1/168 587/1/168
f 497/1/174 496/1/174 560/1/174 561/1/174
f 524/1/169 523/1/169 587/1/169 588/1/169
f 498/1/142 497/1/142 561/1/142 562/1/142
f 525/1/170 524/1/170 588/1/170 589/1/170
f 499/1/145 498/1/145 562/1/145 563/1/145
f 526/1/171 525/1/171 589/1/171 590/1/171
f 500/1/148 499/1/148 563/1/148 564/1/148
f 527/1/172 526/1/172 590/1/172 591/1/172
f 501/1/151 500/1/151 564/1/151 565/1/151
f 475/1/152 474/1/152 538/1/152 539/1/152
f 528/1/173 527/1/173 591/1/173 592/1/173
f 502/1/154 501/1/154 565/1/154 566/1/154
f 476/1/155 475/1/155 539/1/155 540/1/155
f 529/1/174 528/1/174 592/1/174 593/1/174
f 503/1/157 502/1/157 566/1/157 567/1/157
f 477/1/158 476/1/158 540/1/158 541/1/158
f 583/1/163 582/1/163 646/1/163 647/1/163
f 557/1/170 556/1/170 620/1/170 621/1/170
f 584/1/164 583/1/164 647/1/164 648/1/164
f 558/1/171 557/1/171 621/1/171 622/1/171
f 585/1/165 584/1/165 648/1/165 649/1/165
f 559/1/172 558/1/172 622/1/172 623/1/172
f 586/1/167 585/1/167 649/1/167 650/1/167
f 560/1/173 559/1/173 623/1/173 624/1/173
f 587/1/168 586/1/168 650/1/168 651/1/168
f 561/1/174 560/1/174 624/1/174 625/1/174
f 588/1/169 587/1/169 651/1/169 652/1/169
f 562/1/142 561/1/142 625/1/142 626/1/142
f 589/1/170 588/1/170 652/1/170 653/1/170
f 563/1/145 562/1/145 626/1/145 627/1/145
f 590/1/171 589/1/171 653/1/171 654/1/171
f 564/1/148 563/1/148 627/1/148 628/1/148
f 591/1/172 590/1/172 654/1/172 655/1/172
f 565/1/151 564/1/151 628/1/151 629/1/151
f 539/1/152 538/1/152 602/1/152 603/1/152
f 592/1/173 591/1/173 655/1/173 656/1/173
f 566/1/154 565/1/154 629/1/154 630/1/154
f 540/1/155 539/1/155 603/1/155 604/1/155
f 593/1/174 592/1/174 656/1/174 657/1/174
f 567/1/157 566/1/157 630/1/157 631/1/157
f 541/1/158 540/1/158 604/1/158 605/1/158
f 594/1/142 593/1/142 657/1/142 658/1/142
f 568/1/143 567/1/143 631/1/143 632/1/143
f 542/1/144 541/1/144 605/1/144 606/1/144
f 595/1/145 594/1/145 658/1/145 659/1/145
f 569/1/146 568/1/146 632/1/146 633/1/146
f 543/1/147 542/1/147 606/1/147 607/1/147
f 596/1/148 595/1/148 659/1/148 660/1/148
f 538/1/149 569/1/149 633/1/149 602/1/149
f 544/1/150 543/1/150 607/1/150 608/1/150
f 597/1/151 596/1/151 660/1/151 661/1/151
f 571/1/152 570/1/152 634/1/152 635/1/152
f 545/1/153 544/1/153 608/1/153 609/1/153
f 598/1/154 597/1/154 661/1/154 662/1/154
f 572/1/236 571/1/236 635/1/236 636/1/236
f 546/1/156 545/1/156 609/1/156 610/1/156
f 599/1/157 598/1/157 662/1/157 663/1/157
f 573/1/158 572/1/158 636/1/158 637/1/158
f 547/1/159 546/1/159 610/1/159 611/1/159
f 600/1/143 599/1/143 663/1/143 664/1/143
f 574/1/144 573/1/144 637/1/144 638/1/144
f 548/1/160 547/1/160 611/1/160 612/1/160
f 601/1/237 600/1/237 664/1/237 665/1/237
f 575/1/147 574/1/147 638/1/147 639/1/147
f 549/1/161 548/1/161 612/1/161 613/1/161
f 570/1/149 601/1/149 665/1/149 634/1/149
f 576/1/150 575/1/150 639/1/150 640/1/150
f 550/1/162 549/1/162 613/1/162 614/1/162
f 577/1/153 576/1/153 640/1/153 641/1/153
f 551/1/163 550/1/163 614/1/163 615/1/163
f 578/1/156 577/1/156 641/1/156 642/1/156
f 552/1/164 551/1/164 615/1/164 616/1/164
f 579/1/159 578/1/159 642/1/159 643/1/159
f 553/1/165 552/1/165 616/1/165 617/1/165
f 580/1/160 579/1/160 643/1/160 644/1/160
f 554/1/238 553/1/238 617/1/238 618/1/238
f 581/1/161 580/1/161 644/1/161 645/1/161
f 555/1/239 554/1/239 618/1/239 619/1/239
f 582/1/240 581/1/240 645/1/240 646/1/240
f 556/1/169 555/1/169 619/1/169 620/1/169
f 649/1/1 648/1/1 666/1/1
f 636/1/1 635/1/1 666/1/1
f 663/1/1 662/1/1 666/1/1
f 650/1/1 649/1/1 666/1/1
f 637/1/1 636/1/1 666/1/1
f 664/1/1 663/1/1 666/1/1
f 651/1/1 650/1/1 666/1/1
f 638/1/1 637/1/1 666/1/1
f 665/1/1 664/1/1 666/1/1
f 652/1/1 651/1/1 666/1/1
f 639/1/1 638/1/1 666/1/1
f 634/1/1 665/1/1 666/1/1
f 653/1/1 652/1/1 666/1/1
f 640/1/1 639/1/1 666/1/1
f 654/1/1 653/1/1 666/1/1
f 641/1/1 640/1/1 666/1/1
f 655/1/1 654/1/1 666/1/1
f 642/1/1 641/1/1 666/1/1
f 656/1/1 655/1/1 666/1/1
f 643/1/1 642/1/1 666/1/1
f 657/1/1 656/1/1 666/1/1
f 644/1/1 643/1/1 666/1/1
f 658/1/1 657/1/1 666/1/1
f 645/1/1 644/1/1 666/1/1
f 659/1/1 658/1/1 666/1/1
f 646/1/1 645/1/1 666/1/1
f 660/1/1 659/1/1 666/1/1
f 647/1/1 646/1/1 666/1/1
f 661/1/1 660/1/1 666/1/1
f 648/1/1 647/1/1 666/1/1
f 635/1/1 634/1/1 666/1/1
f 662/1/1 661/1/1 666/1/1
f 609/1/1 608/1/1 667/1/1
f 623/1/1 622/1/1 667/1/1
f 610/1/1 609/1/1 667/1/1
f 624/1/1 623/1/1 667/1/1
f 611/1/1 610/1/1 667/1/1
f 625/1/1 624/1/1 667/1/1
f 612/1/1 611/1/1 667/1/1
f 626/1/1 625/1/1 667/1/1
f 613/1/1 612/1/1 667/1/1
f 627/1/1 626/1/1 667/1/1
f 614/1/1 613/1/1 667/1/1
f 628/1/1 627/1/1 667/1/1
f 615/1/1 614/1/1 667/1/1
f 629/1/1 628/1/1 667/1/1
f 616/1/1 615/1/1 667/1/1
f 603/1/1 602/1/1 667/1/1
f 630/1/1 629/1/1 667/1/1
f 617/1/1 616/1/1 667/1/1
f 604/1/1 603/1/1 667/1/1
f 631/1/1 630/1/1 667/1/1
f 618/1/1 617/1/1 667/1/1
f 605/1/1 604/1/1 667/1/1
f 632/1/1 631/1/1 667/1/1
f 619/1/1 618/1/1 667/1/1
f 606/1/1 605/1/1 667/1/1
f 633/1/1 632/1/1 667/1/1
f 620/1/1 619/1/1 667/1/1
f 607/1/1 606/1/1 667/1/1
f 602/1/1 633/1/1 667/1/1
f 621/1/1 620/1/1 667/1/1
f 608/1/1 607/1/1 667/1/1
f 622/1/1 621/1/1 667/1/1
f 501/1/1 502/1/1 511/1/1
f 493/1/1 494/1/1 519/1/1
f 504/1/1 509/1/1 503/1/1
f 511/1/1 502/1/1 510/1/1
f 494/1/1 495/1/1 518/1/1
f 512/1/1 501/1/1 511/1/1
f 502/1/1 503/1/1 510/1/1
f 512/1/1 500/1/1 501/1/1
f 513/1/1 500/1/1 512/1/1
f 513/1/1 499/1/1 500/1/1
f 514/1/1 499/1/1 513/1/1
f 514/1/1 498/1/1 499/1/1
f 515/1/1 498/1/1 514/1/1
f 515/1/1 497/1/1 498/1/1
f 516/1/1 497/1/1 515/1/1
f 516/1/1 496/1/1 497/1/1
f 517/1/1 496/1/1 516/1/1
f 517/1/1 495/1/1 496/1/1
f 518/1/1 495/1/1 517/1/1
f 519/1/1 494/1/1 518/1/1
f 509/1/1 510/1/1 503/1/1
f 520/1/1 493/1/1 519/1/1
f 508/1/1 509/1/1 504/1/1
f 533/1/1 534/1/1 470/1/1
f 534/1/1 535/1/1 470/1/1
f 535/1/1 536/1/1 470/1/1
f 536/1/1 537/1/1 470/1/1
f 471/1/1 470/1/1 507/1/1
f 470/1/1 530/1/1 531/1/1
f 471/1/1 505/1/1 474/1/1
f 474/1/1 475/1/1 471/1/1
f 475/1/1 476/1/1 471/1/1
f 476/1/1 477/1/1 471/1/1
f 477/1/1 478/1/1 471/1/1
f 478/1/1 479/1/1 471/1/1
f 506/1/1 470/1/1 537/1/1
f 507/1/1 470/1/1 506/1/1
f 507/1/1 508/1/1 471/1/1
f 504/1/1 505/1/1 508/1/1
f 508/1/1 505/1/1 471/1/1
f 480/1/1 471/1/1 479/1/1
f 470/1/1 531/1/1 532/1/1
f 469/1/1 491/1/1 468/1/1
f 480/1/1 481/1/1 471/1/1
f 468/1/1 530/1/1 470/1/1
f 481/1/1 482/1/1 471/1/1
f 468/1/1 529/1/1 530/1/1
f 483/1/1 469/1/1 482/1/1
f 468/1/1 528/1/1 529/1/1
f 484/1/1 469/1/1 483/1/1
f 468/1/1 527/1/1 528/1/1
f 485/1/1 469/1/1 484/1/1
f 468/1/1 526/1/1 527/1/1
f 468/1/1 525/1/1 526/1/1
f 486/1/1 469/1/1 485/1/1
f 468/1/1 524/1/1 525/1/1
f 487/1/1 469/1/1 486/1/1
f 468/1/1 523/1/1 524/1/1
f 493/1/1 520/1/1 492/1/1
f 468/1/1 522/1/1 523/1/1
f 521/1/1 491/1/1 492/1/1
f 488/1/1 469/1/1 487/1/1
f 522/1/1 468/1/1 521/1/1
f 468/1/1 491/1/1 521/1/1
f 489/1/1 469/1/1 488/1/1
f 490/1/1 491/1/1 469/1/1
f 490/1/1 469/1/1 489/1/1
f 471/1/1 482/1/1 469/1/1
f 492/1/1 520/1/1 521/1/1
f 380/1/1 461/1/1 669/1/1
f 669/1/1 473/1/1 370/1/1
f 473/1/1 461/1/1 377/1/1
f 670/1/241 674/1/241 672/1/241
f 674/1/242 675/1/242 673/1/242
f 673/1/242 675/1/242 671/1/242
f 1/1/243 12/1/243 674/1/243 673/1/243
f 12/1/244 5/1/244 672/1/244 674/1/244
f 669/1/186 671/1/186 675/1/186 668/1/186
f 668/1/186 675/1/186 670/1/186 371/1/186
f 675/1/241 674/1/241 670/1/241
f 1/1/1 673/1/1 671/1/1
f 5/1/2 670/1/2 672/1/2
f 348/1/2 371/1/2 670/1/2
f 677/1/186 676/1/186 678/1/186 679/1/186
f 725/1/169 726/1/169 790/1/169 789/1/169
f 711/1/149 680/1/149 744/1/149 775/1/149
f 687/1/142 688/1/142 752/1/142 751/1/142
f 720/1/174 721/1/174 785/1/174 784/1/174
f 680/1/146 681/1/146 745/1/146 744/1/146
f 702/1/159 703/1/159 767/1/159 766/1/159
f 721/1/173 722/1/173 786/1/173 785/1/173
f 681/1/143 682/1/143 746/1/143 745/1/143
f 698/1/163 699/1/163 763/1/163 762/1/163
f 738/1/147 739/1/147 803/1/147 802/1/147
f 716/1/151 717/1/151 781/1/151 780/1/151
f 696/1/165 697/1/165 761/1/165 760/1/165
f 714/1/157 715/1/157 779/1/157 778/1/157
f 717/1/148 718/1/148 782/1/148 781/1/148
f 692/1/170 693/1/170 757/1/170 756/1/170
f 715/1/154 716/1/154 780/1/154 779/1/154
f 718/1/145 719/1/145 783/1/145 782/1/145
f 709/1/155 710/1/155 774/1/155 773/1/155
f 743/1/149 712/1/149 776/1/149 807/1/149
f 719/1/142 720/1/142 784/1/142 783/1/142
f 705/1/150 706/1/150 770/1/150 769/1/150
f 712/1/146 713/1/146 777/1/146 776/1/146
f 734/1/159 735/1/159 799/1/159 798/1/159
f 701/1/160 702/1/160 766/1/160 765/1/160
f 713/1/143 714/1/143 778/1/143 777/1/143
f 730/1/163 731/1/163 795/1/163 794/1/163
f 695/1/167 696/1/167 760/1/167 759/1/167
f 728/1/165 729/1/165 793/1/165 792/1/165
f 691/1/171 692/1/171 756/1/171 755/1/171
f 724/1/170 725/1/170 789/1/170 788/1/170
f 708/1/158 709/1/158 773/1/158 772/1/158
f 741/1/155 742/1/155 806/1/155 805/1/155
f 704/1/153 705/1/153 769/1/153 768/1/153
f 737/1/150 738/1/150 802/1/150 801/1/150
f 700/1/161 701/1/161 765/1/161 764/1/161
f 733/1/160 734/1/160 798/1/160 797/1/160
f 694/1/168 695/1/168 759/1/168 758/1/168
f 727/1/167 728/1/167 792/1/167 791/1/167
f 690/1/172 691/1/172 755/1/172 754/1/172
f 723/1/171 724/1/171 788/1/171 787/1/171
f 710/1/152 711/1/152 775/1/152 774/1/152
f 740/1/158 741/1/158 805/1/158 804/1/158
f 707/1/144 708/1/144 772/1/144 771/1/144
f 736/1/153 737/1/153 801/1/153 800/1/153
f 703/1/156 704/1/156 768/1/156 767/1/156
f 732/1/161 733/1/161 797/1/161 796/1/161
f 699/1/162 700/1/162 764/1/162 763/1/162
f 726/1/168 727/1/168 791/1/168 790/1/168
f 697/1/164 698/1/164 762/1/164 761/1/164
f 722/1/172 723/1/172 787/1/172 786/1/172
f 693/1/169 694/1/169 758/1/169 757/1/169
f 742/1/152 743/1/152 807/1/152 806/1/152
f 688/1/174 689/1/174 753/1/174 752/1/174
f 739/1/144 740/1/144 804/1/144 803/1/144
f 689/1/173 690/1/173 754/1/173 753/1/173
f 735/1/156 736/1/156 800/1/156 799/1/156
f 706/1/147 707/1/147 771/1/147 770/1/147
f 684/1/151 685/1/151 749/1/151 748/1/151
f 731/1/162 732/1/162 796/1/162 795/1/162
f 682/1/157 683/1/157 747/1/157 746/1/157
f 685/1/148 686/1/148 750/1/148 749/1/148
f 729/1/164 730/1/164 794/1/164 793/1/164
f 683/1/154 684/1/154 748/1/154 747/1/154
f 686/1/145 687/1/145 751/1/145 750/1/145
