# Blender 5.0.1
# www.blender.org
mtllib right_shoulder_z_link_visual_7.mtl
o i01.rightArm.rotate.full.008_visual.001
v -0.052015 0.030586 0.006492
v -0.063537 0.030586 0.006492
v -0.052015 0.027943 -0.005980
v -0.052015 0.084006 0.016427
v -0.052015 0.037800 0.017002
v -0.063537 0.037800 0.017002
v -0.052015 0.090956 0.005739
v -0.063538 0.090956 0.005739
v -0.052015 0.093288 -0.006795
v -0.063538 0.093288 -0.006795
v -0.063538 0.111337 -0.007019
v -0.063538 0.090645 -0.019267
v -0.063538 0.107234 -0.026381
v -0.112372 0.096034 -0.042700
v -0.112372 0.107234 -0.026381
v -0.063537 0.096034 -0.042700
v -0.063537 0.083431 -0.029778
v -0.112372 0.079442 -0.053490
v -0.063537 0.079442 -0.053490
v -0.063537 0.072743 -0.036728
v -0.112372 0.059977 -0.057658
v -0.063537 0.059977 -0.057658
v -0.063537 0.047737 -0.036418
v -0.063537 0.025405 -0.057228
v -0.112372 0.025405 -0.057228
v -0.063537 0.060209 -0.039061
v -0.052015 0.060209 -0.039061
v -0.052015 0.072743 -0.036728
v -0.052015 0.047737 -0.036418
v -0.052015 0.083431 -0.029778
v -0.052015 0.037225 -0.029203
v -0.052015 0.030275 -0.018515
v -0.052015 0.090645 -0.019267
v -0.063537 0.030275 -0.018515
v -0.063537 0.027943 -0.005980
v -0.063537 0.026671 0.044456
v -0.063720 -0.029002 0.074377
v -0.062751 -0.049607 0.040884
v -0.112372 0.026671 0.044456
v -0.063537 0.048488 0.023952
v -0.063538 0.061243 0.044026
v -0.112372 0.061243 0.044026
v -0.063538 0.080609 0.040231
v -0.063537 0.061022 0.026284
v -0.112372 0.080609 0.040231
v -0.112372 0.096927 0.029031
v -0.063538 0.096927 0.029031
v -0.112372 0.107718 0.012439
v -0.063538 0.107718 0.012439
v -0.112372 0.111337 -0.007019
v -0.063538 0.084006 0.016427
v -0.063538 0.073494 0.023642
v -0.052015 0.073494 0.023642
v -0.052015 0.061022 0.026284
v -0.052015 0.048488 0.023952
v -0.112288 -0.029002 0.074377
v -0.112288 -0.060312 0.074769
v -0.063720 -0.060312 0.074769
v -0.112288 -0.111337 -0.074061
v -0.112288 -0.066221 -0.074624
v -0.112288 -0.105427 0.075333
v -0.112288 -0.034912 -0.075015
v -0.063720 -0.034912 -0.075015
v -0.063720 -0.066221 -0.074624
v 0.006039 -0.111337 -0.074061
v 0.006039 -0.066221 -0.074624
v 0.006039 -0.034912 -0.075015
v -0.063720 -0.111337 -0.074061
v -0.063720 -0.105427 0.075333
v 0.006039 -0.105427 0.075333
v 0.078760 -0.105427 0.075333
v 0.078760 -0.060312 0.074769
v 0.006039 -0.060312 0.074769
v 0.006039 -0.029002 0.074377
v 0.078760 -0.066221 -0.074624
v 0.005483 -0.059307 -0.004895
v 0.005483 -0.049607 0.040884
v -0.062751 -0.059307 -0.004895
v 0.005483 -0.050750 -0.050901
v -0.062751 -0.050750 -0.050901
v 0.112318 -0.009399 -0.075334
v 0.078760 -0.009399 -0.075334
v 0.079700 -0.041028 -0.004940
v 0.112318 -0.111337 -0.074061
v 0.112318 -0.066221 -0.074624
v 0.078760 -0.111337 -0.074061
v 0.079700 -0.038900 -0.018009
v 0.079700 -0.031932 -0.029270
v 0.079700 -0.021186 -0.037007
v 0.112372 -0.031933 -0.029270
v 0.112372 -0.021186 -0.037007
v 0.112372 -0.008289 -0.039837
v 0.079700 -0.008289 -0.039837
v 0.112372 -0.038900 -0.018009
v 0.112372 -0.041028 -0.004940
v 0.112318 -0.060312 0.074769
v 0.079700 -0.037993 0.007949
v 0.112372 -0.037993 0.007949
v 0.112372 -0.030256 0.018696
v 0.079700 -0.030256 0.018696
v 0.079700 -0.018996 0.025663
v 0.112372 -0.018996 0.025663
v 0.079700 -0.005913 0.028159
v 0.078760 -0.003490 0.074059
v 0.112372 -0.005913 0.028159
v 0.112318 -0.003490 0.074059
v 0.112318 -0.105427 0.075333
v -0.063537 0.037225 -0.029203
vn -0.0000 -0.8245 0.5659
vn -0.0000 -0.9783 0.2073
vn 1.0000 -0.0000 -0.0000
vn -0.0000 0.9831 0.1829
vn -0.0000 0.8383 0.5452
vn -0.0000 0.9783 -0.2073
vn -0.0000 0.8245 -0.5659
vn -0.0000 0.5452 -0.8383
vn -0.0000 0.2094 -0.9778
vn -0.0000 -0.0124 -0.9999
vn -0.0000 -0.2073 -0.9783
vn -0.0000 0.1830 -0.9831
vn -0.0000 0.5451 -0.8384
vn -0.0000 -0.9831 -0.1829
vn -0.0000 -0.8383 -0.5451
vn 0.9997 0.0092 0.0233
vn -0.0000 0.4734 0.8808
vn 0.9999 0.0103 -0.0001
vn -0.0000 0.0124 0.9999
vn -0.0000 0.1923 0.9813
vn -0.0000 0.5659 0.8245
vn -1.0000 -0.0000 -0.0000
vn -0.0000 0.2073 0.9783
vn -0.0000 -0.1829 0.9831
vn -0.0000 -0.5452 0.8383
vn -1.0000 -0.0015 -0.0000
vn -1.0000 -0.0000 0.0006
vn -0.0000 0.0125 0.9999
vn -1.0000 -0.0013 -0.0002
vn -0.0000 -0.0125 -0.9999
vn -0.0000 0.2828 -0.9592
vn -0.0000 -0.9992 0.0395
vn 0.9999 -0.0002 -0.0165
vn -0.0000 0.9992 -0.0395
vn 0.9912 0.1325 -0.0052
vn 0.9995 0.0310 -0.0066
vn -0.0000 0.8517 -0.5240
vn 0.9996 0.0279 0.0052
vn 0.9997 0.0003 0.0232
vn -0.0000 0.8358 0.5490
vn 0.9999 0.0105 0.0020
vn 0.9993 0.0074 -0.0353
vn 1.0000 0.0082 -0.0017
vn -0.9998 0.0003 0.0205
vn -0.9991 0.0418 -0.0017
vn -0.9997 0.0257 0.0042
vn -0.9998 0.0151 0.0093
vn -0.9992 0.0226 0.0315
vn -0.0000 0.5843 0.8115
vn -0.0000 0.8504 0.5262
vn 1.0000 -0.0013 -0.0018
vn 1.0000 -0.0003 -0.0015
vn -0.0000 0.2143 0.9768
vn -0.0000 0.9995 -0.0313
vn -0.9996 0.0058 0.0263
vn 1.0000 -0.0009 -0.0005
vn 1.0000 -0.0000 -0.0012
vn -0.0000 0.9870 0.1607
vn 1.0000 -0.0015 -0.0002
vn -0.0000 0.9734 -0.2292
vn 1.0000 -0.0024 0.0001
vn 1.0000 -0.0014 0.0003
vn 1.0000 -0.0008 0.0006
vn -0.0000 0.8116 -0.5843
vn -0.9999 0.0078 -0.0126
vn -0.0000 0.5262 -0.8504
vn -0.9999 0.0133 -0.0096
vn -0.0000 0.1874 -0.9823
vn -0.9999 0.0031 -0.0165
vn -0.9998 -0.0003 -0.0204
vn -0.0000 0.9986 -0.0527
vn 1.0000 -0.0000 0.0012
vn 1.0000 -0.0002 0.0010
vn 1.0000 -0.0004 0.0007
vn -0.9997 0.0247 -0.0058
vn -0.0000 -0.5659 -0.8245
s 0
usemtl [Chris_Hair]
f 1//1 6//1 2//1
f 1//2 2//2 3//2
f 1//3 3//3 7//3
f 1//3 7//3 4//3
f 1//3 4//3 5//3
f 1//1 5//1 6//1
f 3//3 9//3 7//3
f 7//4 10//4 8//4
f 7//5 8//5 4//5
f 9//4 10//4 7//4
f 10//3 11//3 8//3
f 13//3 11//3 10//3
f 13//3 10//3 12//3
f 9//6 12//6 10//6
f 13//7 14//7 15//7
f 16//7 14//7 13//7
f 13//6 15//6 11//6
f 16//3 13//3 12//3
f 16//8 18//8 14//8
f 16//3 12//3 17//3
f 19//3 16//3 17//3
f 16//8 19//8 18//8
f 19//3 17//3 20//3
f 22//3 19//3 20//3
f 19//9 21//9 18//9
f 19//9 22//9 21//9
f 22//3 20//3 26//3
f 22//3 26//3 23//3
f 24//3 22//3 23//3
f 22//10 24//10 25//10
f 22//10 25//10 21//10
f 27//11 23//11 26//11
f 28//12 27//12 26//12
f 28//12 26//12 20//12
f 30//13 28//13 20//13
f 27//3 28//3 29//3
f 29//3 28//3 30//3
f 29//3 30//3 31//3
f 31//3 30//3 32//3
f 30//13 20//13 17//13
f 30//7 17//7 33//7
f 30//3 33//3 32//3
f 33//7 17//7 12//7
f 32//3 33//3 9//3
f 33//6 12//6 9//6
f 32//3 9//3 3//3
f 3//14 35//14 32//14
f 32//14 35//14 34//14
f 32//15 34//15 31//15
f 35//3 2//3 36//3
f 3//2 2//2 35//2
f 24//3 35//3 36//3
f 24//3 34//3 35//3
f 38//16 36//16 37//16
f 36//17 39//17 37//17
f 2//3 6//3 36//3
f 6//3 40//3 36//3
f 24//18 36//18 38//18
f 41//19 39//19 36//19
f 40//3 41//3 36//3
f 42//19 39//19 41//19
f 45//20 42//20 41//20
f 45//20 41//20 43//20
f 44//3 43//3 41//3
f 40//3 44//3 41//3
f 46//21 45//21 43//21
f 46//22 42//22 45//22
f 47//5 48//5 46//5
f 47//21 46//21 43//21
f 48//22 42//22 46//22
f 49//4 50//4 48//4
f 49//5 48//5 47//5
f 50//22 42//22 48//22
f 11//4 50//4 49//4
f 11//6 15//6 50//6
f 21//22 50//22 15//22
f 21//22 42//22 50//22
f 49//3 47//3 51//3
f 8//3 49//3 51//3
f 11//3 49//3 8//3
f 51//3 47//3 52//3
f 51//21 52//21 53//21
f 4//21 51//21 53//21
f 4//5 8//5 51//5
f 5//3 4//3 53//3
f 5//3 53//3 55//3
f 55//3 53//3 54//3
f 52//23 54//23 53//23
f 54//24 44//24 55//24
f 44//24 40//24 55//24
f 40//25 5//25 55//25
f 52//23 44//23 54//23
f 52//3 47//3 43//3
f 52//3 43//3 44//3
f 21//22 39//22 42//22
f 40//25 6//25 5//25
f 39//17 56//17 37//17
f 25//26 56//26 39//26
f 25//22 39//22 21//22
f 25//27 57//27 56//27
f 56//28 57//28 37//28
f 37//28 57//28 58//28
f 57//28 61//28 58//28
f 62//29 57//29 25//29
f 59//22 61//22 57//22
f 59//22 57//22 60//22
f 60//22 57//22 62//22
f 62//30 63//30 64//30
f 24//31 63//31 62//31
f 62//30 64//30 60//30
f 24//31 62//31 25//31
f 64//30 65//30 68//30
f 66//30 65//30 64//30
f 67//30 66//30 64//30
f 67//30 64//30 63//30
f 64//30 68//30 60//30
f 70//32 69//32 68//32
f 68//32 69//32 61//32
f 65//32 70//32 68//32
f 68//32 61//32 59//32
f 60//30 68//30 59//30
f 71//32 70//32 65//32
f 72//28 70//28 71//28
f 73//28 69//28 70//28
f 73//28 70//28 72//28
f 77//33 74//33 73//33
f 37//28 73//28 74//28
f 75//34 66//34 73//34
f 66//35 76//35 73//35
f 75//34 73//34 72//34
f 76//36 77//36 73//36
f 73//28 58//28 69//28
f 37//28 58//28 73//28
f 76//6 38//6 77//6
f 77//37 38//37 37//37
f 74//37 77//37 37//37
f 76//6 78//6 38//6
f 79//4 78//4 76//4
f 66//38 79//38 76//38
f 66//39 67//39 79//39
f 67//40 80//40 79//40
f 79//4 80//4 78//4
f 67//40 63//40 80//40
f 24//41 78//41 80//41
f 63//42 24//42 80//42
f 24//43 38//43 78//43
f 81//30 75//30 82//30
f 81//30 85//30 75//30
f 75//30 86//30 66//30
f 75//44 88//44 82//44
f 75//45 72//45 83//45
f 75//46 83//46 87//46
f 85//30 84//30 75//30
f 75//30 84//30 86//30
f 75//47 87//47 88//47
f 82//48 88//48 89//48
f 89//49 88//49 91//49
f 91//49 88//49 90//49
f 90//50 88//50 87//50
f 81//51 91//51 90//51
f 81//52 92//52 91//52
f 92//53 89//53 91//53
f 92//54 81//54 93//54
f 93//53 89//53 92//53
f 82//55 89//55 93//55
f 81//54 82//54 93//54
f 85//56 90//56 94//56
f 90//50 87//50 94//50
f 85//57 81//57 90//57
f 94//58 87//58 83//58
f 94//58 83//58 95//58
f 85//59 94//59 95//59
f 95//60 83//60 97//60
f 85//61 95//61 96//61
f 95//62 98//62 96//62
f 95//60 97//60 98//60
f 98//63 99//63 96//63
f 98//64 100//64 99//64
f 98//64 97//64 100//64
f 100//65 72//65 101//65
f 101//66 99//66 100//66
f 97//67 72//67 100//67
f 101//66 102//66 99//66
f 103//68 102//68 101//68
f 101//69 72//69 103//69
f 103//70 72//70 104//70
f 106//71 103//71 104//71
f 105//71 103//71 106//71
f 103//68 105//68 102//68
f 104//28 96//28 106//28
f 105//72 106//72 96//72
f 102//73 105//73 96//73
f 104//28 72//28 96//28
f 99//74 102//74 96//74
f 83//75 72//75 97//75
f 84//3 96//3 107//3
f 96//28 71//28 107//28
f 72//28 71//28 96//28
f 84//3 85//3 96//3
f 107//32 71//32 86//32
f 107//32 86//32 84//32
f 66//30 86//30 65//30
f 71//32 65//32 86//32
f 58//28 61//28 69//28
f 24//3 108//3 34//3
f 31//15 34//15 108//15
f 29//76 108//76 23//76
f 29//76 31//76 108//76
f 24//3 23//3 108//3
f 27//11 29//11 23//11
f 21//22 15//22 14//22
f 21//22 14//22 18//22
