# Blender 5.0.1
# www.blender.org
mtllib right_shoulder_x_link_visual_5.mtl
o i01.rightArm.shoulder.full.006_visual.001
v 0.363090 0.058178 -0.347120
v 0.363090 -0.012225 -0.351749
v 0.308672 0.058163 -0.346888
v 0.321710 0.055151 -0.301084
v 0.348693 0.046578 -0.174121
v 0.308672 -0.012240 -0.351517
v 0.348693 -0.023562 -0.178733
v 0.309429 -0.036513 0.018234
v 0.321710 -0.015252 -0.305714
v 0.209594 -0.020958 -0.218938
v 0.170676 -0.029728 -0.085565
v 0.082504 -0.041031 0.086346
v 0.170676 0.040675 -0.080935
v 0.209594 0.049445 -0.214309
v 0.099830 0.049445 -0.214309
v 0.099830 -0.020958 -0.218938
v 0.176554 -0.015214 -0.306289
v -0.012934 -0.045217 0.149992
v -0.021776 -0.020957 -0.218938
v -0.068017 -0.015158 -0.307137
v -0.068017 0.055245 -0.302508
v -0.213825 -0.015100 -0.308010
v -0.081496 -0.013503 -0.332306
v -0.168267 -0.020957 -0.218938
v -0.081385 -0.012107 -0.353532
v -0.213825 0.055302 -0.303381
v -0.081496 0.056900 -0.327676
v -0.081385 0.058295 -0.348902
v 0.191005 0.058216 -0.347699
v 0.176554 0.055189 -0.301660
v 0.191005 -0.012186 -0.352329
v 0.190892 -0.013619 -0.330543
v 0.190892 0.056784 -0.325914
v -0.198789 0.056924 -0.328052
v -0.198676 0.058349 -0.349712
v -0.168267 0.049445 -0.214309
v -0.238164 0.058352 -0.349752
v -0.301040 0.054135 -0.285633
v -0.253659 0.058352 -0.349752
v -0.362865 0.058352 -0.349752
v -0.253659 -0.012051 -0.354382
v -0.362865 0.054187 -0.286422
v -0.362865 -0.012051 -0.354382
v -0.238164 -0.012051 -0.354382
v -0.198676 -0.012054 -0.354341
v -0.198789 -0.013478 -0.332681
v -0.362865 -0.016215 -0.291051
v -0.362865 -0.017494 -0.271612
v -0.301040 -0.016267 -0.290262
v -0.325363 -0.017494 -0.271612
v -0.301040 -0.024581 -0.163829
v -0.301040 0.045821 -0.159197
v -0.323679 -0.023651 -0.177979
v -0.362865 -0.027461 -0.120025
v -0.323678 0.046752 -0.173349
v -0.362865 -0.023651 -0.177979
v -0.362865 0.046752 -0.173349
v -0.362865 0.042941 -0.115396
v -0.360499 0.026950 0.127798
v -0.360499 -0.043453 0.123169
v -0.212851 0.026301 0.137673
v -0.142314 0.024408 0.166456
v -0.212851 -0.044102 0.133043
v -0.167118 0.012734 0.340577
v -0.302644 0.024439 0.165987
v -0.297877 0.016131 0.292342
v -0.142314 -0.045995 0.161826
v 0.030274 -0.054830 0.296787
v -0.167118 -0.057406 0.335965
v -0.021776 0.049445 -0.214309
v -0.012934 0.025186 0.154623
v 0.082505 0.029371 0.090976
v 0.030274 0.015311 0.301399
v 0.197615 0.022647 0.189825
v 0.309429 0.033627 0.022846
v 0.197615 -0.047493 0.185213
v -0.299216 -0.058352 0.349752
v -0.297876 -0.054272 0.287710
v -0.363091 -0.056347 0.319271
v -0.321640 -0.053330 0.273377
v -0.302643 -0.045964 0.161356
v -0.359581 -0.053498 0.275939
v -0.321640 0.017073 0.278011
v -0.359580 0.016905 0.280572
v -0.363091 0.014055 0.323900
v -0.299216 0.012051 0.354382
v -0.325751 -0.047181 0.179872
v -0.362822 -0.047341 0.182305
v -0.362822 0.023062 0.186934
v -0.325751 0.023222 0.184503
v -0.325363 0.052909 -0.266983
v -0.362865 0.052909 -0.266983
v 0.308563 -0.013625 -0.330459
v 0.308563 0.056778 -0.325829
vn 0.9966 -0.0054 0.0826
vn -0.0043 0.0656 -0.9978
vn -0.0000 0.9978 0.0656
vn 0.0016 0.9977 0.0670
vn 0.9808 -0.0128 0.1947
vn 0.0002 -0.9978 -0.0656
vn 0.0003 -0.9979 -0.0654
vn 0.0002 -0.9979 -0.0653
vn 0.0003 -0.9979 -0.0655
vn 0.0002 -0.9979 -0.0655
vn -0.8902 0.0299 -0.4546
vn -0.9601 0.0183 -0.2790
vn -0.0000 -0.0656 0.9978
vn 0.0015 0.9978 0.0660
vn 0.0012 0.9977 0.0671
vn -0.0000 -0.9978 -0.0656
vn 0.9565 -0.0191 0.2911
vn 0.0060 0.0656 -0.9978
vn -0.8820 -0.0309 0.4703
vn -1.0000 0.0003 -0.0052
vn 0.0044 0.0656 -0.9978
vn 1.0000 -0.0003 0.0052
vn 0.8613 -0.0333 0.5070
vn 0.0040 0.0656 -0.9978
vn 0.8544 -0.0341 0.5185
vn -0.0000 0.0656 -0.9978
vn 0.0010 0.0656 -0.9978
vn -1.0000 -0.0000 -0.0000
vn 0.6093 -0.0520 0.7912
vn 0.5309 0.0556 -0.8456
vn 0.5308 0.0556 -0.8457
vn -1.0000 -0.0006 0.0097
vn 0.3785 0.0607 -0.9236
vn -0.0005 0.9978 0.0668
vn 0.9921 -0.0082 0.1251
vn 0.0014 0.9978 0.0664
vn -0.9536 0.0198 -0.3006
vn -0.0001 -0.9979 -0.0654
vn -0.0000 -0.9979 -0.0654
vn 0.9565 -0.0192 0.2911
vn 0.0008 0.9978 0.0669
vn 0.0001 0.9977 0.0671
vn 0.0012 0.9978 0.0664
vn 0.8315 -0.0365 0.5544
vn 0.5556 -0.0546 0.8297
vn 0.0001 -0.9979 -0.0654
vn 0.0014 0.9978 0.0659
vn 0.0012 0.9978 0.0662
vn 0.0003 0.9978 0.0669
vn 0.1951 -0.0644 0.9787
vn 0.1040 -0.0653 0.9924
vn 0.0003 -0.9978 -0.0656
vn 0.5173 0.0562 -0.8540
vn -0.9993 -0.0025 0.0375
vn -0.0675 0.0655 -0.9956
vn -0.9967 0.0053 -0.0804
vn -0.9968 0.0053 -0.0804
vn -0.4314 -0.0592 0.9002
vn 0.0017 0.9978 0.0657
vn 0.6261 -0.0512 0.7780
vn 0.0656 -0.0655 0.9957
vn -0.9992 0.0026 -0.0391
vn -0.8835 -0.0307 0.4674
s 0
usemtl Material.012
f 1//1 7//1 2//1
f 1//2 2//2 6//2
f 1//2 6//2 3//2
f 4//3 1//3 3//3
f 5//4 1//4 4//4
f 1//1 5//1 7//1
f 5//5 8//5 7//5
f 8//6 11//6 7//6
f 7//7 9//7 2//7
f 7//8 10//8 9//8
f 7//9 11//9 10//9
f 8//10 12//10 11//10
f 13//11 11//11 12//11
f 11//12 14//12 10//12
f 11//12 13//12 14//12
f 4//3 15//3 14//3
f 14//13 15//13 16//13
f 5//14 14//14 13//14
f 14//13 16//13 10//13
f 5//15 4//15 14//15
f 9//16 10//16 16//16
f 15//17 18//17 16//17
f 16//16 20//16 17//16
f 9//16 16//16 17//16
f 18//16 19//16 16//16
f 20//16 16//16 19//16
f 20//18 26//18 21//18
f 20//19 21//19 27//19
f 24//16 22//16 20//16
f 20//18 22//18 26//18
f 20//19 27//19 23//19
f 25//16 20//16 23//16
f 20//16 19//16 24//16
f 17//16 20//16 25//16
f 28//3 27//3 21//3
f 23//20 27//20 28//20
f 28//21 31//21 25//21
f 23//20 28//20 25//20
f 30//3 28//3 21//3
f 30//3 29//3 28//3
f 28//21 29//21 31//21
f 17//16 25//16 31//16
f 17//16 31//16 32//16
f 32//22 31//22 29//22
f 17//23 32//23 33//23
f 32//22 29//22 33//22
f 17//23 33//23 30//23
f 30//3 33//3 29//3
f 9//24 30//24 4//24
f 4//3 30//3 15//3
f 9//24 17//24 30//24
f 15//3 30//3 21//3
f 22//25 34//25 26//25
f 26//3 34//3 35//3
f 36//3 21//3 26//3
f 35//3 37//3 26//3
f 36//3 26//3 38//3
f 26//3 37//3 39//3
f 26//3 39//3 38//3
f 39//3 42//3 38//3
f 43//26 40//26 39//26
f 39//3 40//3 42//3
f 43//26 39//26 41//26
f 44//26 41//26 39//26
f 44//26 39//26 37//26
f 45//27 44//27 37//27
f 22//16 41//16 44//16
f 45//16 22//16 44//16
f 45//27 37//27 35//27
f 46//22 45//22 35//22
f 22//16 45//16 46//16
f 46//22 35//22 34//22
f 22//25 46//25 34//25
f 47//28 40//28 43//28
f 41//16 47//16 43//16
f 42//28 47//28 48//28
f 47//28 42//28 40//28
f 48//16 47//16 49//16
f 41//16 49//16 47//16
f 22//16 49//16 41//16
f 48//16 49//16 50//16
f 38//29 50//29 49//29
f 38//28 49//28 51//28
f 49//16 24//16 51//16
f 49//16 22//16 24//16
f 38//28 51//28 52//28
f 55//30 52//30 51//30
f 51//16 56//16 53//16
f 55//31 51//31 53//31
f 24//16 54//16 51//16
f 51//16 54//16 56//16
f 57//26 53//26 56//26
f 54//28 57//28 56//28
f 57//3 52//3 55//3
f 57//26 55//26 53//26
f 57//3 58//3 52//3
f 54//28 58//28 57//28
f 61//3 58//3 59//3
f 58//32 60//32 59//32
f 58//32 54//32 60//32
f 36//3 52//3 58//3
f 61//3 36//3 58//3
f 67//33 61//33 62//33
f 62//34 61//34 64//34
f 36//35 61//35 63//35
f 67//33 63//33 61//33
f 61//36 66//36 64//36
f 65//3 61//3 59//3
f 61//3 65//3 66//3
f 70//37 67//37 62//37
f 18//16 67//16 19//16
f 70//37 19//37 67//37
f 67//38 69//38 63//38
f 68//39 67//39 18//39
f 67//39 68//39 69//39
f 36//13 19//13 70//13
f 21//3 36//3 70//3
f 71//3 70//3 62//3
f 21//3 70//3 15//3
f 71//3 15//3 70//3
f 15//40 71//40 18//40
f 71//41 74//41 72//41
f 73//42 71//42 62//42
f 71//41 73//41 74//41
f 74//43 75//43 72//43
f 75//44 74//44 76//44
f 74//45 73//45 68//45
f 74//45 68//45 76//45
f 18//46 76//46 68//46
f 75//44 76//44 8//44
f 76//10 12//10 8//10
f 18//46 12//46 76//46
f 75//47 5//47 13//47
f 5//5 75//5 8//5
f 75//48 13//48 72//48
f 62//49 64//49 73//49
f 73//50 64//50 69//50
f 73//50 69//50 68//50
f 13//11 12//11 72//11
f 77//51 69//51 64//51
f 69//52 77//52 78//52
f 63//9 69//9 78//9
f 78//16 77//16 79//16
f 78//16 79//16 82//16
f 83//53 78//53 80//53
f 78//16 82//16 80//16
f 65//54 78//54 66//54
f 83//53 66//53 78//53
f 63//16 78//16 81//16
f 65//54 81//54 78//54
f 83//55 82//55 84//55
f 84//3 66//3 83//3
f 83//55 80//55 82//55
f 79//56 85//56 84//56
f 84//3 85//3 66//3
f 79//57 84//57 82//57
f 85//58 77//58 86//58
f 66//3 85//3 86//3
f 85//58 79//58 77//58
f 77//51 64//51 86//51
f 64//59 66//59 86//59
f 81//16 60//16 63//16
f 88//16 60//16 81//16
f 65//60 87//60 81//60
f 88//16 81//16 87//16
f 90//61 88//61 87//61
f 59//62 88//62 89//62
f 90//61 89//61 88//61
f 59//62 60//62 88//62
f 65//3 89//3 90//3
f 65//60 90//60 87//60
f 65//3 59//3 89//3
f 36//35 63//35 24//35
f 54//16 24//16 63//16
f 54//16 63//16 60//16
f 36//3 38//3 52//3
f 92//13 48//13 50//13
f 92//13 50//13 91//13
f 38//29 91//29 50//29
f 42//28 48//28 92//28
f 38//3 42//3 92//3
f 38//3 92//3 91//3
f 36//13 24//13 19//13
f 9//16 6//16 2//16
f 6//16 9//16 93//16
f 9//63 94//63 93//63
f 9//63 4//63 94//63
f 93//20 94//20 3//20
f 3//3 94//3 4//3
f 93//20 3//20 6//20
