# Blender 5.0.1
# www.blender.org
mtllib right_shoulder_x_link_visual_0.mtl
o i01.rightArm.shoulder.full.001_visual.001
v -0.039376 0.008504 0.014249
v -0.039376 0.010296 -0.013011
v -0.039376 -0.010296 0.013013
v 0.004410 0.008504 0.014249
v 0.039376 -0.008090 0.013159
v 0.004410 0.010296 -0.013011
v 0.039376 -0.010296 0.013014
v 0.039376 -0.008504 -0.014248
v 0.039376 -0.006298 -0.014103
v -0.039376 -0.008504 -0.014248
vn -0.0000 0.9978 0.0656
vn -1.0000 -0.0000 -0.0000
vn -0.0000 -0.0656 0.9978
vn 0.4295 0.9011 0.0593
vn -0.0000 -0.9978 -0.0656
vn 1.0000 -0.0000 -0.0000
vn -0.0000 0.0656 -0.9978
vn -0.0000 0.0657 -0.9978
s 0
usemtl Material.014
f 4//1 2//1 1//1
f 2//2 3//2 1//2
f 4//3 1//3 3//3
f 5//3 4//3 7//3
f 5//4 6//4 4//4
f 4//1 6//1 2//1
f 4//3 3//3 7//3
f 8//5 7//5 3//5
f 7//6 8//6 9//6
f 7//6 9//6 5//6
f 5//4 9//4 6//4
f 6//7 9//7 8//7
f 6//8 8//8 10//8
f 8//5 3//5 10//5
f 2//2 10//2 3//2
f 2//8 6//8 10//8
