# Blender 5.0.1
# www.blender.org
mtllib right_shoulder_x_link_visual_8.mtl
o i01.rightArm.shoulder.full.009_visual.001
v -0.439350 -0.049030 -0.022274
v -0.467264 -0.049030 -0.022274
v -0.444551 -0.033409 -0.021246
v -0.441922 -0.029483 -0.020988
v -0.448485 -0.036032 -0.021419
v -0.453126 -0.036954 -0.021479
v -0.425393 -0.024908 -0.020686
v -0.439350 -0.051115 0.009429
v -0.467264 -0.051115 0.009429
v -0.481221 -0.026992 0.011015
v -0.487572 -0.025999 0.011080
v -0.480808 -0.117996 0.005032
v -0.487572 -0.019435 -0.088744
v -0.480808 -0.111433 -0.094792
v -0.445440 -0.261105 -0.004379
v -0.415697 -0.183838 0.000702
v -0.425393 -0.026992 0.011015
v -0.240103 -0.183544 0.000721
v -0.239775 -0.261760 -0.004423
v -0.400407 -0.185707 0.029195
v -0.400143 0.167796 0.052388
v -0.415376 0.169662 0.023946
v -0.241084 0.238823 0.028493
v -0.384118 0.238950 0.028502
v -0.439350 -0.002869 0.012602
v -0.338871 0.238887 0.028498
v -0.255961 0.167072 0.052340
v -0.240757 0.168937 0.023898
v -0.480333 0.066845 0.017184
v -0.467264 -0.002869 0.012602
v -0.480333 0.073409 -0.082639
v -0.443552 0.245577 -0.071318
v -0.443552 0.239013 0.028506
v -0.415518 0.176106 -0.075885
v -0.384118 0.245514 -0.071322
v -0.338871 0.245451 -0.071325
v -0.241084 0.245387 -0.071329
v -0.219332 0.176106 -0.075885
v -0.219332 -0.165440 -0.098343
v -0.223198 0.175655 -0.069017
v -0.133299 0.000067 -0.087462
v -0.129668 0.036861 -0.085042
v -0.129668 0.030297 0.014781
v -0.219975 -0.200065 -0.100619
v -0.133395 -0.006497 0.012362
v -0.129668 -0.036727 -0.089880
v -0.218359 -0.259291 -0.104515
v -0.245164 -0.255312 -0.104253
v -0.118912 -0.072107 -0.092206
v -0.101447 -0.104714 -0.094351
v -0.155227 -0.279454 -0.105841
v -0.218202 -0.265579 -0.004673
v -0.155228 -0.286017 -0.006019
v -0.200462 -0.252398 -0.003807
v -0.083510 -0.252398 -0.003807
v -0.083510 -0.253823 0.017920
v -0.049300 -0.163312 0.002051
v -0.077941 -0.139857 0.003593
v -0.125113 -0.429719 -0.015467
v -0.083510 -0.184214 0.000676
v -0.125193 -0.320693 -0.008298
v -0.125111 -0.423156 -0.115290
v -0.125192 -0.314129 -0.108122
v -0.049300 -0.156748 -0.097772
v -0.016623 -0.174177 -0.098919
v -0.065594 -0.361194 -0.111216
v -0.060952 -0.362115 -0.111276
v -0.074169 -0.364738 -0.111448
v -0.070235 -0.362115 -0.111276
v -0.016623 -0.180740 0.000905
v 0.018833 -0.191473 0.000199
v 0.018833 -0.184909 -0.099625
v -0.054389 -0.368664 -0.111706
v -0.057018 -0.364738 -0.111448
v -0.017793 -0.422620 -0.115253
v 0.055707 -0.188533 -0.099863
v 0.055707 -0.195097 -0.000039
v 0.092580 -0.191473 0.000199
v 0.096887 -0.359370 -0.010840
v 0.096425 -0.429313 -0.015440
v -0.017795 -0.429184 -0.015431
v 0.096427 -0.422749 -0.115264
v 0.096889 -0.352806 -0.110664
v 0.092580 -0.184909 -0.099625
v 0.128036 -0.180741 0.000905
v 0.128036 -0.174177 -0.098919
v 0.200870 -0.351124 -0.110553
v 0.160713 -0.156748 -0.097772
v 0.160713 -0.163312 0.002051
v 0.189613 -0.183758 0.000707
v 0.189355 -0.139857 0.003593
v 0.306440 -0.183758 0.000707
v 0.189355 -0.133294 -0.096230
v 0.212860 -0.111278 0.005472
v 0.403465 -0.158478 0.002369
v 0.230326 -0.078671 0.007617
v 0.212860 -0.104714 -0.094351
v 0.230326 -0.072108 -0.092207
v 0.270487 -0.315352 -0.108200
v 0.403466 -0.151911 -0.097454
v 0.480333 -0.073275 -0.092283
v 0.372460 -0.208631 -0.101184
v 0.327033 -0.266264 -0.104973
v 0.327032 -0.272831 -0.005151
v 0.372460 -0.215198 -0.001361
v 0.306440 -0.253868 -0.003903
v 0.306440 -0.255298 0.017887
v 0.189613 -0.255299 0.017905
v 0.189613 -0.253868 -0.003903
v 0.270485 -0.321917 -0.008379
v 0.306440 -0.185187 0.022489
v 0.319625 -0.186807 0.047184
v 0.174977 -0.186807 0.047184
v 0.189613 -0.185188 0.022507
v 0.174977 -0.256918 0.042586
v 0.319625 -0.256918 0.042586
v 0.200868 -0.357688 -0.010731
v 0.241082 -0.036728 -0.089880
v 0.450848 -0.004257 -0.087746
v 0.446913 -0.006880 -0.087917
v 0.442273 -0.007801 -0.087978
v 0.244714 0.000066 -0.087462
v 0.437632 -0.006880 -0.087917
v 0.433697 -0.004257 -0.087746
v 0.480333 -0.079842 0.007540
v 0.487572 -0.006498 0.012362
v 0.487572 0.000066 -0.087462
v 0.450848 0.012857 -0.086618
v 0.453477 0.008931 -0.086878
v 0.454400 0.004300 -0.087182
v 0.480333 0.066844 0.017184
v 0.453477 -0.000331 -0.087487
v 0.480333 0.073407 -0.082639
v 0.442273 0.016402 -0.086386
v 0.437632 0.015480 -0.086447
v 0.230326 0.072240 -0.082716
v 0.433697 0.012857 -0.086618
v 0.413719 0.127531 0.021174
v 0.403778 0.143930 -0.078001
v 0.241082 0.036860 -0.085042
v 0.446913 0.015480 -0.086447
v 0.442273 0.010754 -0.000497
v 0.446913 0.009833 -0.000557
v 0.459050 0.014477 0.013741
v 0.451352 0.019610 0.014078
v 0.450848 0.007210 -0.000730
v 0.464193 0.006797 0.013237
v 0.453478 0.003283 -0.000988
v 0.454400 -0.001348 -0.001291
v 0.465999 -0.002264 0.012641
v 0.464193 -0.011324 0.012045
v 0.459050 -0.019005 0.011540
v 0.453478 -0.005979 -0.001596
v 0.450848 -0.009904 -0.001856
v 0.446913 -0.012528 -0.002027
v 0.451352 -0.024137 0.011202
v 0.442273 -0.025939 0.011084
v 0.433193 -0.024137 0.011202
v 0.442273 -0.013449 -0.002088
v 0.437632 -0.012528 -0.002027
v 0.425496 -0.019005 0.011540
v 0.433697 -0.009905 -0.001856
v 0.420352 -0.011324 0.012045
v 0.431068 -0.000331 -0.087487
v 0.431068 -0.005979 -0.001596
v 0.418546 -0.002264 0.012641
v 0.430145 -0.001348 -0.001291
v 0.430145 0.004300 -0.087182
v 0.431068 0.008931 -0.086878
v 0.431068 0.003283 -0.000988
v 0.425496 0.014477 0.013741
v 0.433697 0.007210 -0.000730
v 0.420352 0.006797 0.013237
v 0.413719 0.056651 0.016515
v 0.433193 0.019610 0.014078
v 0.442273 0.021412 0.014196
v 0.280526 0.056651 0.016515
v 0.280526 0.127531 0.021174
v 0.230326 0.065676 0.017107
v 0.294160 0.048386 0.015972
v 0.241082 0.030296 0.014781
v 0.241082 0.034475 -0.048780
v 0.294160 0.052565 -0.047589
v 0.294160 -0.002318 -0.051199
v 0.244809 -0.002318 -0.051199
v 0.241082 -0.039112 -0.053617
v 0.241082 -0.043291 0.009944
v 0.294160 -0.056974 -0.054792
v 0.294160 -0.061153 0.008769
v 0.212861 0.098282 0.019252
v 0.212861 0.104846 -0.080570
v 0.189355 0.126862 0.021131
v 0.160714 0.150317 0.022674
v 0.306441 0.169117 0.023910
v 0.189613 0.169117 0.023910
v 0.189355 0.133426 -0.078691
v 0.368962 0.208925 -0.073727
v 0.160714 0.156881 -0.077149
v 0.322109 0.265893 -0.069982
v 0.322108 0.259330 0.029842
v 0.265017 0.312646 -0.066908
v 0.265017 0.306082 0.032916
v 0.199882 0.340822 0.035201
v 0.189613 0.238839 0.028494
v 0.189613 0.167690 0.045656
v 0.306441 0.238839 0.028494
v 0.128037 0.167746 0.023820
v 0.189613 0.237413 0.050230
v 0.174978 0.166071 0.070337
v 0.306441 0.237414 0.050211
v 0.174978 0.235794 0.074910
v 0.319626 0.235793 0.074910
v 0.319626 0.166071 0.070334
v 0.306441 0.167691 0.045638
v 0.092581 0.178478 0.024526
v 0.128037 0.174309 -0.076004
v 0.199883 0.347386 -0.064622
v 0.092581 0.185042 -0.075298
v 0.055707 0.188666 -0.075060
v 0.055707 0.182102 0.024764
v 0.063281 0.372931 -0.062943
v 0.059346 0.370308 -0.063116
v 0.129208 0.422495 -0.059684
v 0.063281 0.390045 -0.061817
v 0.129207 0.415932 0.040139
v 0.055708 0.429719 -0.059210
v 0.055707 0.423155 0.040613
v 0.065910 0.386119 -0.062077
v 0.066833 0.381489 -0.062380
v 0.065910 0.376857 -0.062686
v 0.065910 0.371210 0.023206
v 0.066833 0.375841 0.023510
v 0.065910 0.380472 0.023814
v 0.076626 0.365865 0.036847
v 0.078432 0.374925 0.037443
v 0.076626 0.383985 0.038039
v 0.063281 0.384398 0.024072
v 0.071482 0.391666 0.038544
v 0.059346 0.387021 0.024245
v 0.063785 0.396798 0.038881
v 0.054705 0.387942 0.024306
v 0.054705 0.398600 0.039000
v 0.050064 0.387021 0.024245
v 0.045625 0.396798 0.038881
v 0.037928 0.391666 0.038544
v 0.046130 0.384398 0.024072
v 0.050064 0.392669 -0.061646
v 0.046130 0.390045 -0.061817
v 0.043501 0.380472 0.023814
v 0.042578 0.375841 0.023510
v 0.043501 0.386119 -0.062077
v 0.032785 0.383985 0.038039
v -0.017793 0.415932 0.040139
v 0.030978 0.374925 0.037443
v 0.032785 0.365865 0.036847
v 0.043501 0.371210 0.023206
v 0.046130 0.367284 0.022947
v 0.042578 0.381489 -0.062380
v 0.043501 0.376857 -0.062686
v -0.017792 0.422496 -0.059684
v 0.046130 0.372931 -0.062943
v 0.050064 0.370308 -0.063116
v 0.050064 0.364661 0.022775
v 0.018834 0.185042 -0.075298
v 0.018834 0.178478 0.024526
v -0.016622 0.167746 0.023820
v -0.016622 0.174309 -0.076004
v -0.088468 0.347387 -0.064622
v -0.049299 0.156881 -0.077149
v -0.049299 0.150317 0.022674
v -0.088468 0.340822 0.035201
v -0.083509 0.239281 0.028523
v -0.083509 0.170176 0.023979
v -0.077941 0.126862 0.021131
v -0.200462 0.170176 0.023979
v -0.077941 0.133426 -0.078691
v -0.101446 0.098283 0.019252
v -0.101446 0.104847 -0.080570
v -0.118912 0.065677 0.017107
v -0.118912 0.072240 -0.082716
v -0.210694 0.265894 -0.069982
v -0.210694 0.259330 0.029842
v -0.153603 0.312647 -0.066908
v -0.153603 0.306082 0.032916
v -0.200461 0.239281 0.028523
v -0.083509 0.237860 0.050176
v -0.200461 0.237845 0.050406
v -0.070353 0.236228 0.075053
v -0.215035 0.236228 0.075053
v -0.200462 0.168740 0.045874
v -0.083509 0.168755 0.045644
v -0.070353 0.167123 0.070518
v -0.215035 0.167123 0.070518
v 0.037928 0.358184 0.036342
v 0.045625 0.353051 0.036004
v 0.054705 0.363739 0.022715
v 0.059346 0.364661 0.022775
v 0.054705 0.351249 0.035887
v 0.054705 0.369387 -0.063176
v 0.063785 0.353051 0.036004
v 0.063281 0.367284 0.022947
v 0.071482 0.358183 0.036342
v 0.054705 0.393590 -0.061584
v 0.059346 0.392669 -0.061646
v 0.363464 0.152836 0.022840
v 0.363464 0.205761 0.026320
v 0.368962 0.202361 0.026095
v 0.403777 0.137367 0.021822
v 0.437632 0.009833 -0.000557
v -0.043673 -0.370799 -0.011593
v -0.065593 -0.403535 -0.013745
v -0.056514 -0.401732 -0.013627
v -0.048816 -0.396600 -0.013288
v -0.043673 -0.388919 -0.012783
v -0.041867 -0.379859 -0.012188
v -0.053466 -0.378944 -0.026105
v -0.054389 -0.374313 -0.025800
v -0.053466 -0.373295 -0.112012
v -0.057018 -0.370387 -0.025541
v -0.048816 -0.363118 -0.011086
v -0.060952 -0.367764 -0.025369
v -0.056514 -0.357986 -0.010750
v -0.065594 -0.366843 -0.025310
v -0.065594 -0.356184 -0.010632
v -0.070235 -0.367764 -0.025369
v -0.074673 -0.357986 -0.010750
v -0.074169 -0.370387 -0.025541
v -0.076798 -0.374313 -0.025800
v -0.082371 -0.363118 -0.011086
v -0.087514 -0.370799 -0.011593
v -0.089320 -0.379859 -0.012188
v -0.077721 -0.378944 -0.026105
v -0.076798 -0.383575 -0.026409
v -0.076798 -0.368664 -0.111706
v -0.077721 -0.373295 -0.112012
v -0.076798 -0.377926 -0.112316
v -0.074169 -0.387501 -0.026668
v -0.074169 -0.381853 -0.112574
v -0.070235 -0.390124 -0.026839
v -0.070235 -0.384476 -0.112746
v -0.065594 -0.385397 -0.112807
v -0.065594 -0.391046 -0.026900
v -0.060952 -0.390124 -0.026839
v -0.074673 -0.401732 -0.013627
v -0.082371 -0.396600 -0.013288
v -0.087514 -0.388919 -0.012783
v -0.057018 -0.387501 -0.026668
v -0.060952 -0.384476 -0.112746
v -0.057018 -0.381853 -0.112574
v -0.054389 -0.383575 -0.026409
v -0.054389 -0.377926 -0.112316
v -0.077941 -0.133293 -0.096230
v -0.200462 -0.184214 0.000676
v -0.101447 -0.111277 0.005472
v -0.083510 -0.185639 0.022394
v -0.070353 -0.255455 0.042794
v -0.070353 -0.187271 0.047269
v -0.200462 -0.185654 0.022624
v -0.215036 -0.187270 0.047269
v -0.200462 -0.253838 0.018149
v -0.215036 -0.255455 0.042794
v -0.118912 -0.078671 0.007618
v -0.129668 -0.043291 0.009944
v -0.240430 -0.011468 0.012035
v -0.255421 -0.185414 0.029215
v -0.284655 -0.061920 0.037308
v -0.284655 -0.104183 0.034530
v -0.363537 -0.104183 0.034530
v -0.284655 -0.017972 0.040196
v -0.284655 -0.039946 0.038753
v -0.284655 -0.028483 0.043544
v -0.284655 -0.023360 0.042352
v -0.284655 -0.018102 0.042180
v -0.300732 -0.021704 0.054943
v -0.300732 -0.018935 0.054854
v -0.300732 -0.016203 0.055306
v -0.363524 -0.018935 0.054854
v -0.363524 -0.021704 0.054943
v -0.284655 -0.012912 0.043037
v -0.284655 0.004002 0.041643
v -0.284655 -0.007989 0.044892
v -0.284655 -0.003523 0.047669
v -0.300732 -0.013610 0.056283
v -0.284655 0.025976 0.043087
v -0.284655 0.068232 0.045866
v -0.284655 0.020050 0.106750
v -0.284655 0.000316 0.051268
v -0.284655 0.003379 0.055543
v -0.284655 0.005549 0.060337
v -0.284655 0.006742 0.065458
v -0.284655 0.006913 0.070715
v -0.300732 -0.005853 0.067116
v -0.300732 -0.006481 0.064417
v -0.300732 -0.007624 0.061893
v -0.363524 -0.006481 0.064417
v -0.363524 -0.007624 0.061893
v -0.363537 0.025976 0.043087
v -0.363524 -0.009237 0.059642
v -0.363524 -0.011258 0.057748
v -0.300732 -0.009237 0.059642
v -0.300732 -0.011258 0.057748
v -0.363524 -0.013610 0.056283
v -0.363524 -0.016203 0.055306
v -0.363537 -0.017972 0.040196
v -0.363537 -0.061920 0.037308
v -0.363524 -0.024402 0.055574
v -0.363524 -0.026925 0.056718
v -0.363524 -0.029177 0.058329
v -0.300732 -0.026925 0.056718
v -0.300732 -0.024402 0.055574
v -0.284655 -0.033274 0.045714
v -0.284655 -0.037551 0.048777
v -0.284655 -0.041148 0.052614
v -0.300732 -0.029177 0.058329
v -0.300732 -0.031071 0.060351
v -0.363524 -0.031071 0.060351
v -0.363524 -0.032535 0.062705
v -0.363524 -0.033511 0.065297
v -0.300732 -0.032535 0.062705
v -0.300732 -0.033511 0.065297
v -0.284655 -0.043926 0.057083
v -0.284655 -0.045780 0.062005
v -0.284655 -0.046638 0.067195
v -0.284655 -0.064381 0.101197
v -0.284655 -0.022165 0.103974
v -0.284655 -0.090571 0.106354
v -0.363537 -0.064381 0.101197
v -0.284655 -0.031736 0.093020
v -0.284655 -0.036202 0.090240
v -0.284655 -0.040041 0.086643
v -0.284655 -0.043104 0.082367
v -0.284655 -0.045274 0.077576
v -0.284655 -0.046467 0.072454
v -0.284655 -0.026813 0.094874
v -0.363537 -0.090571 0.106354
v -0.284655 -0.021623 0.095732
v -0.300732 -0.023523 0.082604
v -0.300732 -0.020790 0.083055
v -0.300732 -0.018021 0.082966
v -0.363524 -0.020790 0.083055
v -0.363524 -0.018021 0.082966
v -0.284655 -0.016366 0.095561
v -0.284655 -0.011243 0.094368
v -0.284655 -0.006451 0.092196
v -0.300732 -0.015323 0.082337
v -0.300732 -0.012800 0.081195
v -0.363524 -0.015323 0.082337
v -0.363524 -0.012800 0.081195
v -0.363524 -0.010548 0.079582
v -0.363537 -0.022165 0.103974
v -0.363537 0.020050 0.106750
v -0.363537 0.045332 0.115290
v -0.363524 -0.008654 0.077561
v -0.363524 -0.007191 0.075209
v -0.363524 -0.006214 0.072616
v -0.363524 -0.005763 0.069883
v -0.363537 0.068232 0.045866
v -0.284655 0.045332 0.115290
v -0.363524 -0.005853 0.067116
v -0.300732 -0.005763 0.069883
v -0.300732 -0.006214 0.072616
v -0.300732 -0.007191 0.075209
v -0.284655 0.006055 0.075908
v -0.284655 0.004201 0.080828
v -0.284655 0.001422 0.085294
v -0.300732 -0.008654 0.077561
v -0.300732 -0.010548 0.079582
v -0.284655 -0.002174 0.089133
v -0.363524 -0.028467 0.080164
v -0.363524 -0.026115 0.081628
v -0.363524 -0.023523 0.082604
v -0.300732 -0.026115 0.081628
v -0.300732 -0.028467 0.080164
v -0.300732 -0.030489 0.078271
v -0.300732 -0.032101 0.076020
v -0.363524 -0.030488 0.078271
v -0.363524 -0.032101 0.076020
v -0.363524 -0.033244 0.073497
v -0.300732 -0.033244 0.073497
v -0.300732 -0.033873 0.070798
v -0.300732 -0.033963 0.068028
v -0.363524 -0.033873 0.070798
v -0.363524 -0.033963 0.068028
v -0.264765 -0.256796 -0.081663
v -0.264765 -0.202202 -0.078093
v -0.245164 -0.200719 -0.100664
v -0.266087 -0.203943 -0.041596
v -0.239443 -0.202158 -0.068757
v -0.239141 -0.167532 -0.066473
v -0.265828 -0.169304 -0.039495
v -0.239130 0.174018 -0.044058
v -0.398373 0.174018 -0.044058
v -0.371737 0.172250 -0.017107
v -0.265767 0.172250 -0.017107
v -0.319138 0.156553 0.008747
v -0.295428 -0.170351 -0.023816
v -0.319138 -0.205684 -0.015071
v -0.295428 -0.204961 -0.026093
v -0.319138 -0.171060 -0.012794
v -0.345548 -0.170241 -0.025240
v -0.345461 -0.204857 -0.027676
v -0.371617 -0.203930 -0.041789
v -0.373836 -0.202202 -0.078093
v -0.319947 -0.204664 -0.040604
v -0.319947 -0.259259 -0.044175
v -0.373837 -0.256796 -0.081663
v -0.390303 -0.200719 -0.100664
v -0.390303 -0.255312 -0.104253
v -0.415200 -0.200064 -0.100619
v -0.445440 -0.254542 -0.104202
v -0.415538 -0.165440 -0.098343
v -0.448485 -0.031553 -0.089540
v -0.398358 -0.167544 -0.066297
v -0.444551 -0.028930 -0.089368
v -0.441922 -0.025004 -0.089109
v -0.440999 -0.020373 -0.088805
v -0.412165 0.175656 -0.069017
v -0.440999 -0.024852 -0.020683
v -0.441922 -0.015742 -0.088500
v -0.441922 -0.020221 -0.020379
v -0.444551 -0.011816 -0.088242
v -0.444551 -0.016295 -0.020121
v -0.448485 -0.009193 -0.088070
v -0.448485 -0.013672 -0.019949
v -0.453126 -0.008271 -0.088008
v -0.453126 -0.012751 -0.019887
v -0.457767 -0.009193 -0.088070
v -0.457767 -0.013672 -0.019949
v -0.467264 -0.000785 -0.019101
v -0.461702 -0.016295 -0.020121
v -0.464331 -0.020221 -0.020379
v -0.461702 -0.011816 -0.088242
v -0.464331 -0.015742 -0.088500
v -0.465254 -0.020373 -0.088805
v -0.465254 -0.024852 -0.020683
v -0.481221 -0.024908 -0.020686
v -0.464331 -0.029483 -0.020988
v -0.464331 -0.025004 -0.089109
v -0.461702 -0.033409 -0.021246
v -0.457768 -0.036032 -0.021419
v -0.461702 -0.028930 -0.089368
v -0.457768 -0.031553 -0.089540
v -0.453126 -0.032474 -0.089601
v -0.439350 -0.000785 -0.019101
v -0.398054 -0.202181 -0.068401
v -0.371777 -0.169297 -0.039591
vn -0.0000 0.9978 0.0656
vn -0.0000 -0.0657 0.9978
vn 0.0001 -0.0656 0.9978
vn -0.8660 0.4989 0.0328
vn -0.0001 -0.0656 0.9978
vn 0.8660 0.4989 0.0328
vn -0.0000 -0.0656 0.9978
vn -0.9973 -0.0730 -0.0048
vn -0.9709 -0.2389 -0.0157
vn 0.0017 -0.9978 -0.0664
vn -0.8816 -0.0302 0.4711
vn -0.8819 -0.0301 0.4704
vn 0.0050 0.9980 0.0628
vn 0.0042 0.9977 0.0677
vn -0.9970 0.0774 0.0051
vn -0.9780 0.2080 0.0137
vn 0.0011 0.9978 0.0656
vn -0.0000 0.0656 -0.9978
vn 0.0014 0.9978 0.0656
vn 0.0007 0.9978 0.0656
vn 0.0006 0.9978 0.0656
vn -0.8718 0.0321 -0.4887
vn -0.0000 -0.9979 -0.0654
vn -0.0001 0.0656 -0.9978
vn 0.9952 -0.0978 -0.0064
vn 0.9949 -0.1004 -0.0057
vn 0.9952 0.0977 0.0074
vn 0.0001 0.0656 -0.9978
vn -0.1471 -0.9875 -0.0558
vn -0.1747 -0.9827 -0.0616
vn -0.3048 -0.9506 -0.0594
vn -0.3093 -0.9489 -0.0624
vn -0.0000 -0.0655 0.9979
vn 1.0000 -0.0000 -0.0000
vn -0.0000 -0.9979 -0.0655
vn -1.0000 -0.0007 -0.0001
vn -0.7566 -0.6525 -0.0429
vn 0.4714 0.8800 0.0579
vn 0.2903 0.9549 0.0628
vn 0.0001 0.0655 -0.9978
vn 0.0980 0.9930 0.0653
vn -0.0980 0.9930 0.0653
vn -0.0011 -0.9978 -0.0656
vn 1.0000 -0.0066 -0.0004
vn 0.0003 0.0656 -0.9978
vn -0.2903 0.9549 0.0628
vn -0.4714 0.8800 0.0579
vn -0.6344 0.7713 0.0507
vn -0.7730 0.6330 0.0416
vn -0.8819 0.4704 0.0309
vn 0.7860 -0.6169 -0.0406
vn 0.6564 -0.7528 -0.0495
vn 0.8779 -0.4778 -0.0314
vn 0.8826 0.0308 -0.4692
vn -0.0000 0.9979 0.0655
vn -0.8606 0.0333 -0.5082
vn -1.0000 -0.0000 -0.0000
vn -0.8606 0.0334 -0.5082
vn -0.0000 -0.0654 0.9979
vn 0.8826 0.0308 -0.4691
vn 0.4578 -0.8871 -0.0583
vn 0.6563 -0.7528 -0.0495
vn 0.0162 -0.9977 -0.0656
vn -0.0002 0.0655 -0.9979
vn 0.0001 0.0657 -0.9978
vn -0.0001 0.0655 -0.9978
vn 0.0004 0.0658 -0.9978
vn 0.7159 -0.6967 -0.0458
vn -0.0000 0.0660 -0.9978
vn -0.0001 0.0655 -0.9979
vn -0.0000 0.0658 -0.9978
vn 0.9952 0.0978 0.0064
vn -0.0000 0.0657 -0.9978
vn 0.0001 0.0655 -0.9979
vn -0.0001 0.0657 -0.9978
vn -0.0004 0.0659 -0.9978
vn 0.6742 0.7369 0.0485
vn 0.6783 0.7328 0.0532
vn -0.1951 -0.9787 -0.0644
vn -0.5555 -0.8297 -0.0546
vn -0.4307 -0.6846 0.5880
vn -0.4307 -0.6847 0.5880
vn -0.1513 -0.8001 0.5804
vn -0.5556 -0.8297 -0.0546
vn -0.6446 -0.4712 0.6020
vn -0.6446 -0.4713 0.6020
vn -0.8315 -0.5543 -0.0365
vn -0.8314 -0.5544 -0.0365
vn -0.9808 -0.1947 -0.0128
vn -0.9808 -0.1946 -0.0128
vn -0.7604 -0.1921 0.6204
vn -0.7604 -0.1924 0.6203
vn -0.7604 0.1094 0.6402
vn -0.6446 0.3884 0.6585
vn -0.7604 0.1093 0.6402
vn -0.9808 0.1946 0.0128
vn -0.8315 0.5544 0.0365
vn -0.6447 0.3883 0.6585
vn -0.8314 0.5545 0.0365
vn -0.5555 0.8297 0.0546
vn -0.4305 0.6019 0.6726
vn -0.4308 0.6018 0.6725
vn -0.0001 -0.0657 0.9978
vn -0.1512 0.7173 0.6802
vn 0.1512 0.7173 0.6802
vn -0.1513 0.7173 0.6802
vn -0.1951 0.9787 0.0644
vn 0.1951 0.9787 0.0644
vn 0.1513 0.7172 0.6802
vn 0.4308 0.6017 0.6726
vn 0.4305 0.6020 0.6725
vn 0.5555 0.8297 0.0546
vn 0.6446 0.3884 0.6585
vn 0.6447 0.3882 0.6585
vn 0.8315 0.5544 0.0365
vn 0.8315 0.5543 0.0365
vn 0.7604 0.1095 0.6402
vn 0.7604 0.1094 0.6402
vn 0.9808 0.1947 0.0128
vn -0.0000 0.0655 -0.9978
vn 0.9808 -0.1947 -0.0128
vn 0.8315 -0.5543 -0.0365
vn -0.0000 0.0659 -0.9978
vn 0.7604 -0.1922 0.6203
vn 0.6446 -0.4712 0.6020
vn 0.7604 -0.1924 0.6204
vn -0.0004 -0.0660 0.9978
vn 0.0001 -0.0653 0.9979
vn 0.3232 -0.9443 -0.0621
vn -0.9569 -0.2897 -0.0190
vn -0.9949 -0.1004 -0.0066
vn -0.9949 0.1004 0.0066
vn -0.9952 0.0976 0.0090
vn -0.9952 -0.0980 -0.0038
vn 0.3196 0.9455 0.0622
vn -0.9569 0.2897 0.0190
vn -0.8819 -0.4704 -0.0309
vn -0.7730 -0.6330 -0.0416
vn -0.6344 -0.7713 -0.0507
vn 0.6344 0.7713 0.0507
vn 0.7730 0.6330 0.0416
vn -0.2903 -0.9549 -0.0628
vn -0.4714 -0.8800 -0.0579
vn -0.0980 -0.9930 -0.0653
vn -0.0001 0.0658 -0.9978
vn 0.7290 0.6830 0.0449
vn 0.0001 0.0654 -0.9979
vn -0.0003 0.0660 -0.9978
vn 0.0003 0.0653 -0.9979
vn -0.7604 0.1095 0.6402
vn -0.7604 -0.1923 0.6204
vn -0.6447 -0.4712 0.6020
vn -0.4307 -0.6847 0.5879
vn 0.0001 -0.0655 0.9978
vn -0.1512 -0.8002 0.5804
vn -0.1513 -0.8002 0.5804
vn 0.1512 -0.8002 0.5804
vn 0.1513 -0.8002 0.5804
vn -0.0001 -0.0655 0.9978
vn 0.4307 -0.6847 0.5880
vn 0.4306 -0.6847 0.5880
vn 0.5556 -0.8297 -0.0546
vn 0.6447 -0.4712 0.6020
vn 0.8315 -0.5544 -0.0365
vn 0.7604 -0.1923 0.6203
vn 0.9808 -0.1946 -0.0128
vn 0.7604 -0.1924 0.6203
vn 0.6446 0.3883 0.6585
vn 0.8314 0.5544 0.0365
vn 0.9808 0.1946 0.0128
vn -0.0003 0.0653 -0.9979
vn 0.0003 0.0660 -0.9978
vn 0.5556 0.8297 0.0546
vn 0.2903 -0.9549 -0.0628
vn 0.0980 -0.9930 -0.0653
vn 0.4714 -0.8800 -0.0579
vn 0.6344 -0.7713 -0.0507
vn 0.7730 -0.6330 -0.0416
vn 0.8819 -0.4704 -0.0309
vn 0.9569 -0.2897 -0.0190
vn -0.5602 0.8266 0.0544
vn -0.8613 0.0333 -0.5071
vn -0.8612 0.0333 -0.5071
vn 0.8844 0.0305 -0.4658
vn 0.8844 0.0306 -0.4657
vn -0.7290 0.6830 0.0449
vn 0.4307 0.6018 0.6726
vn -0.1511 0.7173 0.6802
vn -0.4307 0.6018 0.6726
vn -0.6446 0.3883 0.6585
vn -0.5556 0.8297 0.0546
vn -0.8314 0.5544 0.0365
vn -0.0002 0.0654 -0.9979
vn 0.0001 0.0658 -0.9978
vn -0.0002 0.0656 -0.9978
vn 0.0003 0.0655 -0.9978
vn 0.1951 -0.9787 -0.0644
vn -0.0003 0.0656 -0.9978
vn 0.0002 0.0656 -0.9978
vn -0.5556 -0.8296 -0.0546
vn -0.8315 -0.5544 -0.0365
vn 0.0002 -0.0655 0.9979
vn -0.0001 -0.0658 0.9978
vn 0.7041 0.7086 0.0466
vn 0.8819 0.4704 0.0309
vn 0.5555 -0.8297 -0.0546
vn 0.4308 -0.6846 0.5880
vn -0.9808 0.1947 0.0128
vn 0.0001 -0.0655 0.9979
vn 0.0003 -0.0655 0.9979
vn 0.0050 -0.9978 -0.0656
vn -0.7600 -0.1923 0.6208
vn -0.7600 0.1094 0.6406
vn -0.7600 -0.1924 0.6208
vn -0.6443 -0.4711 0.6025
vn -0.4305 -0.6844 0.5884
vn -0.4306 -0.6844 0.5885
vn -0.1513 -0.7998 0.5809
vn 0.1514 -0.7998 0.5808
vn -0.1512 -0.7999 0.5808
vn 0.1512 -0.7998 0.5809
vn 0.4305 -0.6844 0.5885
vn 0.6443 -0.4711 0.6025
vn 0.4305 -0.6844 0.5884
vn -0.0006 -0.0654 0.9979
vn 0.0001 -0.0657 0.9978
vn -0.0001 -0.0655 0.9979
vn 0.7600 -0.1923 0.6208
vn 0.7600 -0.1924 0.6208
vn 0.7600 0.1094 0.6406
vn -0.0005 0.0661 -0.9978
vn 0.8315 0.5543 0.0364
vn -0.0001 0.0654 -0.9979
vn 0.1951 0.9787 0.0643
vn -0.1951 0.9787 0.0643
vn -0.1512 0.7169 0.6806
vn 0.1512 0.7169 0.6806
vn 0.4305 0.6014 0.6730
vn 0.6444 0.3881 0.6589
vn 0.4304 0.6016 0.6730
vn 0.7600 0.1095 0.6406
vn -0.4304 0.6015 0.6730
vn -0.8315 0.5543 0.0365
vn -0.6444 0.3881 0.6589
vn -0.4306 0.6014 0.6730
vn 0.0008 0.0649 -0.9979
vn 0.0002 -0.0656 0.9978
vn 0.0007 0.0661 -0.9978
vn 0.8844 0.0306 -0.4658
vn 0.9569 0.2897 0.0190
vn 0.9949 0.1003 0.0066
vn 0.8818 -0.0295 0.4706
vn 0.8812 -0.0293 0.4718
vn 0.8823 -0.0293 0.4698
vn -0.0009 -0.0656 0.9978
vn -0.0008 -0.0656 0.9978
vn -0.0000 -0.0653 0.9979
vn 0.0020 -0.9979 -0.0644
vn -0.0007 -0.0656 0.9978
vn 0.6181 0.0257 0.7857
vn 0.6180 0.1782 0.7657
vn 0.6180 0.0252 0.7858
vn -0.0000 0.0320 0.9995
vn 0.6181 -0.1283 0.7756
vn -0.0000 -0.1632 0.9866
vn 0.6181 -0.1281 0.7756
vn 0.6181 -0.2772 0.7356
vn 0.6181 -0.4151 0.6676
vn 0.6181 -0.2771 0.7356
vn 0.0009 -0.0656 0.9978
vn 0.0006 -0.0656 0.9978
vn 0.6181 -0.7857 0.0256
vn 0.6181 -0.7656 0.1784
vn 0.6181 -0.7656 0.1783
vn -0.0000 -0.9739 0.2268
vn 0.6181 -0.7161 0.3243
vn -0.0000 -0.9110 0.4125
vn -1.0000 -0.0003 0.0001
vn -1.0000 -0.0003 0.0002
vn -0.0000 -0.8129 0.5824
vn -1.0000 -0.0002 0.0003
vn -0.0000 -0.6837 0.7297
vn 0.6181 -0.6390 0.4578
vn 0.6181 -0.5375 0.5736
vn 0.6182 -0.4155 0.6672
vn -0.0000 -0.5287 0.8488
vn 0.6182 -0.5376 0.5735
vn -1.0000 -0.0006 0.0009
vn -0.0000 -0.3525 0.9358
vn -1.0000 -0.0003 0.0009
vn -1.0000 -0.0000 0.0007
vn -1.0000 -0.0001 0.0009
vn -1.0000 -0.0000 0.0009
vn -1.0000 0.0002 0.0009
vn -1.0000 0.0004 0.0010
vn -1.0000 0.0002 0.0003
vn -0.0000 0.4128 0.9108
vn -0.0000 0.5818 0.8134
vn 0.6182 0.1791 0.7654
vn -0.0000 0.2279 0.9737
vn 0.6181 0.3244 0.7160
vn 0.6181 0.3243 0.7160
vn 0.6181 0.4576 0.6391
vn 0.6181 0.5736 0.5376
vn 0.6181 0.4573 0.6394
vn 0.6182 0.5738 0.5373
vn -0.0000 0.7300 0.6835
vn -1.0000 0.0002 0.0002
vn -0.0000 0.8493 0.5280
vn -1.0000 0.0003 0.0002
vn -0.0000 0.9358 0.3525
vn -1.0000 0.0003 0.0001
vn -0.0000 0.8492 0.5280
vn 0.6181 0.6676 0.4150
vn 0.6181 0.7356 0.2771
vn 0.6181 0.7756 0.1282
vn -0.0000 0.1932 0.9812
vn -0.0000 -0.9825 0.1862
vn 0.6181 0.2770 -0.7356
vn 0.6181 0.1281 -0.7756
vn 0.6181 0.1280 -0.7756
vn -0.0000 0.1629 -0.9867
vn 0.6181 -0.0254 -0.7857
vn -0.0000 -0.0324 -0.9995
vn 0.6181 -0.0255 -0.7857
vn 0.6181 -0.1783 -0.7656
vn 0.6181 -0.3245 -0.7160
vn 0.6181 -0.1784 -0.7656
vn -0.0000 -0.2269 -0.9739
vn 0.6181 -0.3242 -0.7161
vn -0.0000 -0.4124 -0.9110
vn -1.0000 -0.0003 -0.0007
vn -0.0000 -0.5822 -0.8130
vn -1.0000 -0.0002 -0.0003
vn -1.0000 -0.0000 -0.0005
vn -0.0000 -0.3200 0.9474
vn -1.0000 -0.0004 -0.0000
vn -1.0000 -0.0002 -0.0002
vn -1.0000 -0.0003 -0.0002
vn -1.0000 -0.0003 -0.0001
vn -1.0000 -0.0004 -0.0001
vn -0.0000 0.9497 0.3133
vn -0.0000 -0.9866 -0.1631
vn -0.0000 -0.9995 0.0325
vn 0.6181 -0.7756 -0.1283
vn -0.0000 -0.9866 -0.1632
vn -0.0000 -0.9995 0.0326
vn 0.6181 -0.7357 -0.2770
vn -0.0000 -0.9359 -0.3524
vn 0.6181 -0.7756 -0.1282
vn 0.6181 -0.7356 -0.2772
vn 0.6181 -0.6675 -0.4153
vn 0.6181 -0.6675 -0.4152
vn 0.6180 -0.5736 -0.5376
vn -0.0000 -0.7296 -0.6838
vn -0.0000 -0.8492 -0.5281
vn 0.6181 -0.4577 -0.6391
vn 0.6181 -0.5737 -0.5374
vn 0.6181 -0.4578 -0.6391
vn -1.0000 -0.0002 -0.0006
vn -1.0000 -0.0000 -0.0006
vn -1.0000 0.0004 -0.0006
vn -1.0000 0.0002 -0.0006
vn -1.0000 0.0001 -0.0006
vn -0.0000 0.3525 -0.9358
vn 0.6181 0.4154 -0.6674
vn -0.0000 0.5284 -0.8490
vn 0.6181 0.2771 -0.7356
vn 0.6181 0.5373 -0.5738
vn -0.0000 0.6835 -0.7299
vn 0.6181 0.5375 -0.5736
vn 0.6181 0.6390 -0.4579
vn -0.0000 0.8128 -0.5825
vn -0.0000 0.6836 -0.7299
vn 0.6181 0.6391 -0.4578
vn -1.0000 0.0002 -0.0002
vn -0.0000 0.9109 -0.4125
vn -1.0000 0.0003 -0.0001
vn 0.6181 0.7656 -0.1783
vn -0.0000 0.9740 -0.2268
vn 0.6181 0.7161 -0.3243
vn 0.6181 0.7656 -0.1784
vn 0.6181 0.7857 -0.0256
vn -0.0000 0.9995 -0.0325
vn 0.6181 0.7857 -0.0255
vn -1.0000 0.0004 -0.0000
vn -0.0000 0.9866 0.1632
vn -1.0000 0.0004 0.0001
vn 0.6181 0.7756 0.1283
vn 0.6181 0.6675 0.4151
vn 0.6181 -0.7161 0.3241
vn 0.0014 -0.0657 0.9978
vn 0.0012 -0.9979 -0.0645
vn -0.7560 0.0427 -0.6532
vn -0.7558 0.0430 -0.6534
vn -0.0216 0.9987 0.0469
vn -0.0177 0.9987 0.0482
vn -0.0260 0.9984 0.0497
vn -0.7146 0.0523 -0.6976
vn -0.8537 0.0499 -0.5183
vn -0.8498 0.0421 -0.5254
vn -0.7117 0.0478 -0.7009
vn -0.7117 0.0460 -0.7010
vn -0.8498 0.0356 -0.5259
vn -0.8434 0.0352 -0.5361
vn -0.7120 0.0461 -0.7007
vn -0.4486 0.0563 -0.8919
vn -0.0000 -0.8548 -0.5190
vn -0.4689 0.0579 -0.8814
vn -0.4689 0.0580 -0.8814
vn -0.4222 0.0595 -0.9045
vn -0.4223 0.0595 -0.9045
vn 0.4270 0.0593 -0.9023
vn 0.4270 0.0645 -0.9019
vn 0.4326 0.0591 -0.8996
vn 0.4757 0.0629 -0.8774
vn 0.0101 0.9988 0.0469
vn 0.0125 0.9991 0.0395
vn 0.0149 0.9989 0.0442
vn -0.0118 0.9991 0.0403
vn -0.0143 0.9989 0.0446
vn 0.5719 0.0536 -0.8186
vn -0.5628 0.0540 -0.8248
vn -0.5628 0.0539 -0.8248
vn 0.0008 -0.9979 -0.0644
vn -0.0032 -0.9984 -0.0564
vn -0.0042 -0.9982 -0.0595
vn 0.5719 0.0535 -0.8186
vn 0.8087 0.0386 -0.5870
vn 0.8085 0.0384 -0.5873
vn -0.0060 -0.9981 -0.0612
vn -0.0140 -0.9977 -0.0656
vn 0.8757 0.0328 -0.4817
vn 0.8818 0.0307 -0.4707
vn 0.8817 0.0395 -0.4701
vn 0.8990 0.0287 -0.4370
vn -0.0004 0.0657 -0.9978
vn -0.0003 0.0657 -0.9978
vn -0.0003 -0.0658 0.9978
vn 0.0003 0.0649 -0.9979
vn 0.8314 -0.5544 -0.0365
vn -0.0000 -0.0655 0.9978
vn 0.8660 -0.4989 -0.0328
vn -0.0000 -0.9978 -0.0656
vn -0.0002 -0.0655 0.9979
vn -0.8660 -0.4989 -0.0328
vn 0.0003 -0.0658 0.9978
vn 0.7120 0.0457 -0.7007
vn 0.8832 0.0362 -0.4676
vn 0.7095 0.0490 -0.7030
vn 0.7095 0.0462 -0.7032
vn 0.7102 0.0479 -0.7024
vn 0.4808 0.0578 -0.8749
vn 0.4808 0.0575 -0.8749
vn 0.0263 0.9983 0.0516
vn 0.0165 0.9987 0.0492
vn 0.0270 0.9986 0.0459
vn 0.4538 0.0558 -0.8893
vn -0.4680 0.0570 -0.8819
vn -0.0097 0.9988 0.0473
s 0
usemtl Material.012
f 1//1 2//1 9//1
f 2//2 1//2 6//2
f 4//2 3//2 1//2
f 3//2 5//2 1//2
f 1//2 7//2 4//2
f 1//3 5//3 6//3
f 7//4 1//4 8//4
f 9//1 8//1 1//1
f 10//5 11//5 9//5
f 10//6 9//6 2//6
f 12//7 8//7 9//7
f 11//7 12//7 9//7
f 12//8 13//8 14//8
f 13//8 12//8 11//8
f 14//9 15//9 12//9
f 12//7 15//7 16//7
f 12//7 16//7 8//7
f 16//7 22//7 17//7
f 8//7 16//7 17//7
f 16//7 15//7 19//7
f 18//10 20//10 16//10
f 19//7 18//7 16//7
f 21//11 16//11 20//11
f 16//12 21//12 22//12
f 22//7 23//7 26//7
f 23//7 22//7 28//7
f 22//5 24//5 29//5
f 26//7 24//7 22//7
f 17//7 22//7 25//7
f 25//7 22//7 29//7
f 27//13 22//13 21//13
f 22//14 27//14 28//14
f 30//7 25//7 29//7
f 29//5 11//5 30//5
f 29//7 24//7 33//7
f 31//15 11//15 29//15
f 29//16 32//16 31//16
f 32//16 29//16 33//16
f 24//17 32//17 33//17
f 34//18 31//18 32//18
f 34//18 32//18 35//18
f 32//17 24//17 35//17
f 35//19 26//19 36//19
f 26//19 35//19 24//19
f 36//18 34//18 35//18
f 23//20 36//20 26//20
f 36//18 37//18 38//18
f 36//21 23//21 37//21
f 34//18 36//18 38//18
f 38//18 41//18 39//18
f 38//22 39//22 40//22
f 34//23 38//23 40//23
f 37//24 41//24 38//24
f 41//25 42//25 43//25
f 37//18 42//18 41//18
f 43//26 45//26 41//26
f 41//18 44//18 39//18
f 41//24 47//24 44//24
f 46//27 41//27 45//27
f 41//28 46//28 47//28
f 19//29 48//29 47//29
f 44//18 47//18 48//18
f 50//18 47//18 49//18
f 49//18 47//18 46//18
f 50//18 51//18 47//18
f 47//30 52//30 19//30
f 52//31 47//31 51//31
f 51//32 53//32 52//32
f 53//2 55//2 52//2
f 52//33 54//33 19//33
f 52//7 55//7 54//7
f 60//34 56//34 55//34
f 56//35 54//35 55//35
f 58//7 55//7 57//7
f 59//7 57//7 55//7
f 55//5 58//5 60//5
f 59//7 55//7 61//7
f 61//7 55//7 53//7
f 62//36 61//36 63//36
f 61//36 62//36 59//36
f 53//37 63//37 61//37
f 51//18 64//18 63//18
f 63//37 53//37 51//37
f 63//18 65//18 62//18
f 63//18 64//18 65//18
f 69//24 65//24 66//24
f 66//28 65//28 67//28
f 67//18 65//18 72//18
f 62//18 65//18 68//18
f 68//18 65//18 69//18
f 64//38 70//38 65//38
f 71//39 65//39 70//39
f 65//39 71//39 72//39
f 75//18 73//18 72//18
f 74//40 72//40 73//40
f 67//18 72//18 74//18
f 76//18 75//18 72//18
f 72//41 77//41 76//41
f 77//41 72//41 71//41
f 77//7 79//7 78//7
f 78//42 76//42 77//42
f 71//7 80//7 77//7
f 77//7 80//7 79//7
f 80//43 75//43 82//43
f 75//43 80//43 81//43
f 71//7 81//7 80//7
f 82//44 79//44 80//44
f 79//44 82//44 83//44
f 82//45 84//45 83//45
f 75//18 76//18 82//18
f 84//18 82//18 76//18
f 85//46 84//46 78//46
f 84//46 85//46 86//46
f 76//42 78//42 84//42
f 86//18 83//18 84//18
f 83//18 86//18 87//18
f 88//18 87//18 86//18
f 89//47 86//47 85//47
f 86//47 89//47 88//47
f 89//7 90//7 91//7
f 90//7 89//7 85//7
f 91//48 88//48 89//48
f 92//7 91//7 90//7
f 91//7 92//7 94//7
f 94//49 93//49 91//49
f 88//48 91//48 93//48
f 94//7 92//7 95//7
f 95//7 96//7 94//7
f 96//50 97//50 94//50
f 93//49 94//49 97//49
f 97//50 96//50 98//50
f 97//18 98//18 101//18
f 97//18 103//18 99//18
f 97//18 99//18 93//18
f 97//18 100//18 102//18
f 97//18 101//18 100//18
f 97//18 102//18 103//18
f 105//51 103//51 102//51
f 104//52 99//52 103//52
f 103//51 105//51 104//51
f 102//53 95//53 105//53
f 105//7 106//7 104//7
f 95//7 106//7 105//7
f 106//7 95//7 92//7
f 106//34 92//34 111//34
f 111//34 107//34 106//34
f 106//35 107//35 108//35
f 108//35 109//35 106//35
f 110//7 106//7 109//7
f 106//7 110//7 104//7
f 107//54 111//54 112//54
f 113//55 112//55 111//55
f 111//55 114//55 113//55
f 114//55 111//55 92//55
f 115//56 113//56 114//56
f 108//57 114//57 90//57
f 92//55 90//55 114//55
f 114//58 108//58 115//58
f 115//35 108//35 107//35
f 113//59 115//59 116//59
f 107//35 116//35 115//35
f 112//60 116//60 107//60
f 116//59 112//59 113//59
f 117//7 110//7 109//7
f 87//61 110//61 117//61
f 99//62 104//62 110//62
f 110//61 87//61 99//61
f 85//7 79//7 117//7
f 83//63 117//63 79//63
f 117//63 83//63 87//63
f 117//7 109//7 85//7
f 85//7 109//7 90//7
f 90//57 109//57 108//57
f 95//53 102//53 100//53
f 98//18 118//18 101//18
f 118//18 122//18 101//18
f 119//18 127//18 101//18
f 119//64 101//64 120//64
f 120//65 101//65 121//65
f 101//66 123//66 121//66
f 124//18 101//18 122//18
f 124//67 123//67 101//67
f 125//68 100//68 101//68
f 101//25 126//25 125//25
f 126//25 101//25 127//25
f 128//69 127//69 129//69
f 128//24 133//24 127//24
f 127//70 130//70 129//70
f 132//71 130//71 127//71
f 131//72 127//72 133//72
f 127//72 131//72 126//72
f 119//73 132//73 127//73
f 133//74 134//74 135//74
f 134//75 133//75 141//75
f 137//76 133//76 135//76
f 136//18 133//18 140//18
f 133//18 136//18 139//18
f 137//18 122//18 133//18
f 133//18 122//18 140//18
f 131//77 133//77 138//77
f 138//78 133//78 139//78
f 141//74 133//74 128//74
f 142//79 134//79 141//79
f 141//79 143//79 142//79
f 143//80 141//80 128//80
f 144//81 145//81 143//81
f 143//82 146//82 144//82
f 142//83 143//83 145//83
f 128//84 146//84 143//84
f 147//85 144//85 146//85
f 146//86 148//86 147//86
f 146//87 128//87 129//87
f 129//88 148//88 146//88
f 148//89 129//89 130//89
f 130//90 149//90 148//90
f 148//91 149//91 150//91
f 150//92 147//92 148//92
f 147//7 150//7 126//7
f 126//7 150//7 151//7
f 151//93 150//93 149//93
f 126//33 151//33 152//33
f 152//94 151//94 153//94
f 149//95 153//95 151//95
f 132//96 153//96 149//96
f 153//97 132//97 119//97
f 153//98 154//98 152//98
f 119//99 154//99 153//99
f 154//100 119//100 120//100
f 120//100 155//100 154//100
f 154//101 155//101 156//101
f 156//102 152//102 154//102
f 156//103 125//103 152//103
f 157//7 125//7 156//7
f 157//104 156//104 155//104
f 158//7 125//7 157//7
f 158//105 157//105 159//105
f 155//106 159//106 157//106
f 121//107 159//107 155//107
f 159//108 121//108 123//108
f 159//109 160//109 158//109
f 123//108 160//108 159//108
f 161//110 158//110 160//110
f 160//111 162//111 161//111
f 160//112 123//112 124//112
f 124//112 162//112 160//112
f 163//113 161//113 162//113
f 162//114 165//114 163//114
f 162//115 124//115 164//115
f 164//116 165//116 162//116
f 166//117 163//117 165//117
f 165//118 167//118 166//118
f 168//119 167//119 165//119
f 165//119 164//119 168//119
f 122//120 169//120 168//120
f 168//71 164//71 122//71
f 167//121 168//121 169//121
f 169//121 170//121 167//121
f 170//122 169//122 137//122
f 122//123 137//123 169//123
f 167//124 170//124 173//124
f 171//125 173//125 170//125
f 170//125 172//125 171//125
f 137//122 172//122 170//122
f 174//5 166//5 173//5
f 174//3 173//3 171//3
f 173//126 166//126 167//126
f 174//3 171//3 175//3
f 174//7 175//7 176//7
f 138//7 177//7 174//7
f 131//7 138//7 174//7
f 166//7 174//7 177//7
f 174//127 145//127 144//127
f 174//2 144//2 126//2
f 174//2 176//2 145//2
f 131//7 174//7 126//7
f 166//128 177//128 180//128
f 177//7 138//7 178//7
f 179//7 177//7 178//7
f 179//7 181//7 177//7
f 181//7 180//7 177//7
f 182//129 180//129 181//129
f 181//130 179//130 182//130
f 182//130 179//130 136//130
f 182//130 136//130 140//130
f 140//131 185//131 182//131
f 180//129 182//129 183//129
f 182//7 184//7 183//7
f 184//7 182//7 185//7
f 185//132 118//132 186//132
f 186//7 184//7 185//7
f 118//133 185//133 122//133
f 185//134 140//134 122//134
f 187//135 188//135 186//135
f 186//136 96//136 187//136
f 118//136 98//136 186//136
f 186//136 98//136 96//136
f 184//7 186//7 188//7
f 188//57 189//57 184//57
f 188//135 187//135 189//135
f 184//57 189//57 180//57
f 166//7 180//7 189//7
f 161//7 189//7 95//7
f 187//7 95//7 189//7
f 161//7 163//7 189//7
f 166//7 189//7 163//7
f 95//7 187//7 96//7
f 184//57 180//57 183//57
f 178//7 190//7 179//7
f 190//137 136//137 179//137
f 192//138 191//138 190//138
f 136//137 190//137 191//137
f 178//7 192//7 190//7
f 192//7 195//7 193//7
f 193//139 196//139 192//139
f 194//7 192//7 178//7
f 192//7 194//7 195//7
f 191//138 192//138 196//138
f 196//18 197//18 191//18
f 197//18 196//18 199//18
f 196//139 193//139 198//139
f 198//18 199//18 196//18
f 199//140 202//140 200//140
f 200//141 197//141 199//141
f 199//18 198//18 201//18
f 202//140 199//140 201//140
f 204//7 200//7 202//7
f 201//38 203//38 202//38
f 202//7 203//7 204//7
f 204//57 195//57 205//57
f 205//57 208//57 204//57
f 204//7 193//7 195//7
f 200//2 204//2 206//2
f 206//55 204//55 208//55
f 203//7 207//7 204//7
f 193//7 204//7 207//7
f 208//56 205//56 209//56
f 209//56 211//56 208//56
f 208//55 210//55 206//55
f 210//55 208//55 211//55
f 211//55 212//55 210//55
f 213//33 212//33 211//33
f 211//59 209//59 213//59
f 214//35 213//35 209//35
f 212//54 213//54 214//54
f 214//60 210//60 212//60
f 210//34 214//34 194//34
f 209//35 205//35 214//35
f 194//35 214//35 205//35
f 194//34 206//34 210//34
f 215//7 207//7 203//7
f 215//142 216//142 207//142
f 207//143 198//143 193//143
f 198//143 207//143 216//143
f 216//18 201//18 198//18
f 201//18 216//18 217//18
f 218//18 217//18 216//18
f 216//142 215//142 218//142
f 222//18 218//18 219//18
f 218//144 220//144 219//144
f 220//144 218//144 215//144
f 223//18 218//18 221//18
f 222//18 221//18 218//18
f 217//18 218//18 223//18
f 223//18 224//18 226//18
f 223//145 228//145 224//145
f 223//41 227//41 225//41
f 225//146 217//146 223//146
f 227//41 223//41 226//41
f 228//147 223//147 229//147
f 223//148 230//148 229//148
f 223//149 221//149 230//149
f 230//96 231//96 232//96
f 231//97 230//97 221//97
f 232//96 229//96 230//96
f 232//150 231//150 234//150
f 233//151 232//151 235//151
f 229//90 232//90 233//90
f 234//150 235//150 232//150
f 236//7 235//7 225//7
f 235//92 236//92 233//92
f 225//2 235//2 234//2
f 237//152 233//152 236//152
f 236//85 238//85 237//85
f 225//7 238//7 236//7
f 238//82 240//82 239//82
f 239//153 237//153 238//153
f 225//7 227//7 238//7
f 227//154 240//154 238//154
f 227//7 242//7 240//7
f 241//155 239//155 240//155
f 240//156 242//156 241//156
f 227//7 244//7 242//7
f 243//157 241//157 242//157
f 242//158 244//158 243//158
f 245//159 244//159 227//159
f 244//160 245//160 246//160
f 246//161 243//161 244//161
f 247//162 243//162 246//162
f 246//162 248//162 247//162
f 249//163 246//163 245//163
f 248//164 246//164 249//164
f 250//165 249//165 252//165
f 251//166 249//166 250//166
f 249//164 251//164 248//164
f 245//125 252//125 249//125
f 253//7 254//7 252//7
f 253//7 252//7 245//7
f 252//167 254//167 250//167
f 254//2 253//2 255//2
f 254//117 255//117 256//117
f 256//117 250//117 254//117
f 257//168 256//168 255//168
f 259//169 256//169 257//169
f 256//170 259//170 258//170
f 258//170 250//170 256//170
f 261//171 260//171 259//171
f 259//172 260//172 258//172
f 257//169 261//169 259//169
f 261//18 262//18 264//18
f 263//173 262//173 261//173
f 261//173 257//173 263//173
f 261//18 264//18 260//18
f 266//174 264//174 265//174
f 219//175 265//175 264//175
f 219//18 264//18 262//18
f 264//174 266//174 267//174
f 267//18 260//18 264//18
f 270//176 267//176 266//176
f 260//18 267//18 268//18
f 269//18 268//18 267//18
f 267//176 270//176 269//176
f 274//177 269//177 270//177
f 266//7 271//7 270//7
f 271//7 272//7 270//7
f 273//7 270//7 272//7
f 270//7 273//7 274//7
f 269//177 274//177 276//177
f 275//7 274//7 273//7
f 274//7 275//7 277//7
f 277//178 276//178 274//178
f 279//179 278//179 277//179
f 276//178 277//178 278//178
f 277//7 275//7 279//7
f 279//7 275//7 43//7
f 278//179 279//179 280//179
f 43//180 280//180 279//180
f 37//18 280//18 42//18
f 37//18 278//18 280//18
f 42//180 280//180 43//180
f 278//18 281//18 276//18
f 281//18 278//18 37//18
f 283//18 276//18 281//18
f 23//181 281//181 37//181
f 281//181 23//181 282//181
f 282//48 283//48 281//48
f 268//18 269//18 283//18
f 284//47 268//47 283//47
f 283//48 282//48 284//48
f 276//18 283//18 269//18
f 271//7 284//7 272//7
f 268//47 284//47 271//47
f 285//7 284//7 282//7
f 284//7 285//7 272//7
f 286//55 285//55 287//55
f 285//55 286//55 272//55
f 275//57 287//57 285//57
f 23//7 275//7 285//7
f 282//7 23//7 285//7
f 288//55 287//55 289//55
f 287//55 288//55 286//55
f 290//182 289//182 287//182
f 287//57 275//57 290//57
f 292//35 290//35 291//35
f 275//35 291//35 290//35
f 290//35 292//35 293//35
f 289//183 290//183 293//183
f 288//33 293//33 292//33
f 293//33 288//33 289//33
f 286//184 292//184 291//184
f 292//185 286//185 288//185
f 291//35 275//35 273//35
f 272//34 291//34 273//34
f 291//34 272//34 286//34
f 275//5 23//5 43//5
f 220//7 253//7 271//7
f 260//186 271//186 253//186
f 271//186 260//186 268//186
f 265//7 271//7 266//7
f 220//7 271//7 265//7
f 265//175 219//175 220//175
f 263//187 257//187 294//187
f 294//187 295//187 263//187
f 296//105 263//105 295//105
f 262//108 263//108 296//108
f 297//104 296//104 298//104
f 299//107 296//107 297//107
f 295//105 298//105 296//105
f 296//108 299//108 262//108
f 219//28 262//28 299//28
f 299//24 222//24 219//24
f 297//107 222//107 299//107
f 298//5 295//5 220//5
f 298//3 220//3 300//3
f 298//188 300//188 297//188
f 300//189 302//189 301//189
f 301//189 297//189 300//189
f 300//7 220//7 215//7
f 300//7 215//7 302//7
f 231//190 301//190 302//190
f 302//190 234//190 231//190
f 302//5 215//5 234//5
f 301//100 221//100 222//100
f 222//191 297//191 301//191
f 221//192 301//192 231//192
f 295//7 294//7 220//7
f 220//3 294//3 255//3
f 255//168 294//168 257//168
f 260//193 251//193 258//193
f 248//18 260//18 226//18
f 253//42 226//42 260//42
f 260//194 248//194 251//194
f 250//166 258//166 251//166
f 220//7 255//7 253//7
f 245//7 227//7 253//7
f 226//42 253//42 227//42
f 248//195 226//195 247//195
f 226//196 303//196 247//196
f 243//197 247//197 303//197
f 226//198 304//198 303//198
f 241//79 303//79 304//79
f 303//197 241//197 243//197
f 304//79 239//79 241//79
f 239//84 304//84 224//84
f 226//199 224//199 304//199
f 224//200 237//200 239//200
f 237//201 224//201 228//201
f 228//201 233//201 237//201
f 225//7 234//7 215//7
f 233//90 228//90 229//90
f 215//7 203//7 225//7
f 217//146 225//146 203//146
f 203//38 201//38 217//38
f 206//7 194//7 305//7
f 305//7 306//7 206//7
f 200//7 206//7 306//7
f 308//7 306//7 305//7
f 307//202 200//202 306//202
f 306//202 308//202 307//202
f 194//203 308//203 305//203
f 308//7 194//7 178//7
f 308//2 178//2 138//2
f 138//204 139//204 308//204
f 139//205 307//205 308//205
f 307//205 139//205 197//205
f 197//141 200//141 307//141
f 205//35 195//35 194//35
f 139//18 191//18 197//18
f 191//73 139//73 136//73
f 145//156 176//156 142//156
f 309//158 142//158 176//158
f 176//157 175//157 309//157
f 134//197 142//197 309//197
f 309//197 135//197 134//197
f 172//160 309//160 175//160
f 135//206 309//206 172//206
f 175//207 171//207 172//207
f 172//206 137//206 135//206
f 164//73 124//73 122//73
f 161//3 95//3 158//3
f 158//7 95//7 125//7
f 155//107 120//107 121//107
f 126//7 152//7 125//7
f 149//208 130//208 132//208
f 144//209 147//209 126//209
f 100//68 125//68 95//68
f 93//18 99//18 88//18
f 87//18 88//18 99//18
f 79//7 85//7 78//7
f 81//7 70//7 310//7
f 81//210 310//210 315//210
f 81//7 311//7 59//7
f 62//211 81//211 59//211
f 81//211 62//211 75//211
f 81//7 312//7 311//7
f 313//103 312//103 81//103
f 70//7 81//7 71//7
f 314//7 313//7 81//7
f 315//3 314//3 81//3
f 315//212 310//212 317//212
f 314//213 315//213 316//213
f 317//214 316//214 315//214
f 317//89 73//89 318//89
f 318//89 316//89 317//89
f 73//201 317//201 319//201
f 319//215 317//215 310//215
f 321//216 319//216 320//216
f 310//215 320//215 319//215
f 74//200 319//200 321//200
f 319//201 74//201 73//201
f 321//200 67//200 74//200
f 320//217 322//217 321//217
f 323//218 321//218 322//218
f 67//79 321//79 323//79
f 323//79 66//79 67//79
f 66//197 323//197 325//197
f 325//219 323//219 324//219
f 322//220 324//220 323//220
f 325//197 69//197 66//197
f 69//162 325//162 327//162
f 324//221 326//221 325//221
f 327//222 325//222 326//222
f 327//162 68//162 69//162
f 68//122 327//122 328//122
f 328//223 327//223 329//223
f 326//224 329//224 327//224
f 70//225 330//225 329//225
f 329//226 326//226 70//226
f 329//223 330//223 328//223
f 57//7 330//7 70//7
f 59//7 330//7 57//7
f 59//227 331//227 330//227
f 330//228 331//228 332//228
f 332//229 328//229 330//229
f 335//119 332//119 333//119
f 333//230 332//230 331//230
f 334//121 328//121 332//121
f 332//121 335//121 334//121
f 333//119 336//119 335//119
f 335//18 336//18 62//18
f 62//231 334//231 335//231
f 337//116 338//116 336//116
f 336//232 333//232 337//232
f 336//74 338//74 62//74
f 338//112 337//112 339//112
f 339//112 340//112 338//112
f 338//18 340//18 62//18
f 340//233 341//233 75//233
f 342//234 341//234 340//234
f 340//18 75//18 62//18
f 340//108 339//108 342//108
f 341//235 342//235 343//235
f 343//236 342//236 311//236
f 344//237 311//237 342//237
f 342//237 339//237 344//237
f 345//226 59//226 344//226
f 344//7 59//7 311//7
f 345//238 344//238 339//238
f 346//2 59//2 345//2
f 346//239 345//239 337//239
f 339//240 337//240 345//240
f 337//239 333//239 346//239
f 331//241 346//241 333//241
f 331//5 59//5 346//5
f 347//242 343//242 312//242
f 311//236 312//236 343//236
f 348//191 343//191 347//191
f 343//107 348//107 341//107
f 75//65 341//65 348//65
f 347//191 349//191 348//191
f 349//18 75//18 348//18
f 350//97 351//97 349//97
f 349//243 347//243 350//243
f 351//70 75//70 349//70
f 318//18 75//18 351//18
f 316//208 318//208 351//208
f 351//208 350//208 316//208
f 313//244 314//244 350//244
f 350//244 347//244 313//244
f 316//213 350//213 314//213
f 312//245 313//245 347//245
f 68//246 334//246 62//246
f 328//164 334//164 68//164
f 326//7 324//7 70//7
f 324//7 322//7 70//7
f 322//5 320//5 70//5
f 320//247 310//247 70//247
f 75//248 318//248 73//248
f 70//38 64//38 57//38
f 352//18 64//18 51//18
f 352//140 57//140 64//140
f 57//140 352//140 58//140
f 50//141 58//141 352//141
f 50//18 352//18 51//18
f 60//7 354//7 353//7
f 353//55 355//55 60//55
f 56//34 60//34 355//34
f 354//7 60//7 58//7
f 355//249 356//249 56//249
f 356//249 355//249 357//249
f 355//55 353//55 358//55
f 358//55 357//55 355//55
f 54//57 358//57 353//57
f 358//57 54//57 360//57
f 360//183 359//183 358//183
f 357//55 358//55 359//55
f 359//183 360//183 361//183
f 356//35 360//35 56//35
f 360//35 356//35 361//35
f 54//35 56//35 360//35
f 357//33 361//33 356//33
f 361//33 357//33 359//33
f 362//2 353//2 354//2
f 354//205 49//205 362//205
f 49//205 354//205 50//205
f 58//141 50//141 354//141
f 363//250 362//250 49//250
f 362//7 363//7 353//7
f 45//251 363//251 46//251
f 363//250 49//250 46//250
f 353//5 363//5 45//5
f 353//7 45//7 23//7
f 28//3 353//3 23//3
f 364//7 54//7 353//7
f 364//7 353//7 28//7
f 18//7 54//7 364//7
f 364//252 27//252 365//252
f 364//253 365//253 18//253
f 364//254 28//254 27//254
f 366//255 365//255 370//255
f 367//256 365//256 366//256
f 369//227 365//227 27//227
f 368//257 20//257 365//257
f 20//258 18//258 365//258
f 367//257 368//257 365//257
f 365//259 369//259 370//259
f 372//34 371//34 370//34
f 370//34 371//34 366//34
f 370//34 369//34 372//34
f 372//34 369//34 373//34
f 375//260 372//260 373//260
f 374//261 371//261 372//261
f 375//262 374//262 372//262
f 378//263 374//263 375//263
f 379//264 376//264 375//264
f 377//265 375//265 376//265
f 378//263 375//263 377//263
f 379//266 375//266 373//266
f 379//34 380//34 381//34
f 369//34 380//34 379//34
f 379//34 373//34 369//34
f 381//267 376//267 379//267
f 381//34 380//34 384//34
f 382//268 383//268 381//268
f 382//34 381//34 384//34
f 381//269 383//269 376//269
f 385//34 386//34 384//34
f 385//270 384//270 27//270
f 384//271 380//271 27//271
f 384//34 386//34 390//34
f 387//34 382//34 384//34
f 388//34 387//34 384//34
f 389//34 388//34 384//34
f 390//34 389//34 384//34
f 391//272 392//272 390//272
f 386//34 391//34 390//34
f 390//273 393//273 389//273
f 390//274 392//274 393//274
f 395//275 393//275 392//275
f 389//276 393//276 394//276
f 396//277 394//277 393//277
f 396//277 393//277 395//277
f 395//278 397//278 396//278
f 396//279 397//279 398//279
f 398//280 394//280 396//280
f 398//281 397//281 399//281
f 399//282 400//282 398//282
f 398//280 400//280 394//280
f 388//283 394//283 400//283
f 387//284 400//284 401//284
f 399//282 401//282 400//282
f 388//283 400//283 387//283
f 382//285 401//285 383//285
f 402//286 383//286 401//286
f 402//286 401//286 399//286
f 387//287 401//287 382//287
f 402//288 399//288 404//288
f 403//289 383//289 402//289
f 403//290 402//290 404//290
f 20//271 405//271 404//271
f 407//291 404//291 405//291
f 21//259 404//259 397//259
f 404//291 399//291 397//291
f 377//292 403//292 404//292
f 378//293 377//293 404//293
f 378//294 404//294 406//294
f 407//295 406//295 404//295
f 21//209 20//209 404//209
f 405//296 408//296 407//296
f 407//297 410//297 406//297
f 408//298 409//298 407//298
f 407//297 409//297 410//297
f 374//299 410//299 371//299
f 406//300 410//300 374//300
f 410//301 409//301 411//301
f 410//302 411//302 371//302
f 411//34 366//34 371//34
f 409//303 412//303 411//303
f 412//34 366//34 411//34
f 414//304 413//304 412//304
f 413//34 366//34 412//34
f 409//305 414//305 412//305
f 408//298 414//298 409//298
f 414//306 415//306 413//306
f 416//307 415//307 414//307
f 416//307 414//307 408//307
f 405//308 416//308 408//308
f 417//309 415//309 416//309
f 417//310 416//310 405//310
f 418//311 419//311 417//311
f 418//312 417//312 405//312
f 417//313 419//313 415//313
f 415//314 419//314 421//314
f 419//315 420//315 422//315
f 418//311 420//311 419//311
f 419//315 422//315 421//315
f 422//34 366//34 421//34
f 420//316 423//316 422//316
f 423//34 424//34 422//34
f 422//34 424//34 366//34
f 425//7 427//7 424//7
f 434//34 425//34 424//34
f 424//317 435//317 426//317
f 424//34 426//34 367//34
f 424//317 427//317 435//317
f 424//34 367//34 366//34
f 428//34 424//34 429//34
f 428//34 434//34 424//34
f 429//34 424//34 430//34
f 430//34 424//34 431//34
f 431//34 424//34 432//34
f 432//34 424//34 433//34
f 433//34 424//34 423//34
f 427//57 368//57 435//57
f 426//318 435//318 368//318
f 428//319 437//319 434//319
f 434//320 438//320 436//320
f 425//34 434//34 436//34
f 434//321 437//321 438//321
f 440//322 438//322 437//322
f 438//323 439//323 442//323
f 441//324 439//324 438//324
f 441//324 438//324 440//324
f 438//325 442//325 436//325
f 436//34 442//34 425//34
f 439//326 443//326 442//326
f 386//34 442//34 443//34
f 442//34 386//34 425//34
f 445//327 444//327 443//327
f 386//34 443//34 444//34
f 439//328 445//328 443//328
f 447//329 445//329 439//329
f 445//330 446//330 444//330
f 448//331 446//331 445//331
f 448//331 445//331 447//331
f 447//332 450//332 448//332
f 449//333 446//333 448//333
f 451//334 449//334 448//334
f 450//335 451//335 448//335
f 386//7 451//7 450//7
f 457//57 451//57 452//57
f 458//336 452//336 451//336
f 458//336 451//336 386//336
f 451//337 397//337 456//337
f 457//57 397//57 451//57
f 451//338 453//338 449//338
f 451//339 454//339 453//339
f 451//340 455//340 454//340
f 451//341 456//341 455//341
f 385//34 458//34 386//34
f 457//342 452//342 458//342
f 458//342 385//342 457//342
f 457//59 385//59 27//59
f 21//259 397//259 457//259
f 21//59 457//59 27//59
f 460//343 455//343 456//343
f 459//344 460//344 456//344
f 456//337 397//337 459//337
f 461//345 460//345 391//345
f 460//346 461//346 455//346
f 391//272 460//272 392//272
f 459//347 392//347 460//347
f 462//348 461//348 463//348
f 455//349 461//349 462//349
f 461//350 391//350 463//350
f 462//351 463//351 464//351
f 386//34 464//34 463//34
f 386//34 463//34 391//34
f 466//352 464//352 465//352
f 386//34 465//34 464//34
f 466//353 462//353 464//353
f 467//354 466//354 465//354
f 453//355 466//355 467//355
f 454//356 462//356 466//356
f 454//356 466//356 453//356
f 446//357 467//357 468//357
f 449//333 467//333 446//333
f 453//355 467//355 449//355
f 467//358 465//358 468//358
f 446//359 468//359 444//359
f 386//34 444//34 468//34
f 386//34 468//34 465//34
f 455//349 462//349 454//349
f 459//278 397//278 395//278
f 395//275 392//275 459//275
f 427//335 450//335 469//335
f 425//7 450//7 427//7
f 441//360 450//360 447//360
f 441//361 440//361 450//361
f 386//7 450//7 425//7
f 450//362 470//362 469//362
f 450//363 471//363 470//363
f 450//364 440//364 471//364
f 471//365 472//365 470//365
f 440//322 437//322 471//322
f 471//365 437//365 472//365
f 429//366 473//366 472//366
f 470//367 472//367 473//367
f 428//368 472//368 437//368
f 429//366 472//366 428//366
f 430//369 474//369 473//369
f 469//370 473//370 474//370
f 470//367 473//367 469//367
f 430//371 473//371 429//371
f 431//372 475//372 474//372
f 476//373 474//373 475//373
f 469//374 474//374 476//374
f 431//375 474//375 430//375
f 476//373 475//373 477//373
f 477//376 427//376 476//376
f 476//376 427//376 469//376
f 477//377 479//377 478//377
f 427//378 477//378 478//378
f 477//377 475//377 479//377
f 433//379 480//379 479//379
f 478//380 479//380 480//380
f 432//381 479//381 475//381
f 433//382 479//382 432//382
f 423//383 481//383 480//383
f 482//384 480//384 481//384
f 478//380 480//380 482//380
f 423//385 480//385 433//385
f 482//384 481//384 483//384
f 427//386 482//386 483//386
f 427//378 478//378 482//378
f 483//387 420//387 418//387
f 483//388 418//388 405//388
f 483//387 481//387 420//387
f 405//386 427//386 483//386
f 420//389 481//389 423//389
f 432//381 475//381 431//381
f 447//329 439//329 441//329
f 427//57 405//57 368//57
f 367//318 426//318 368//318
f 421//34 366//34 413//34
f 415//390 421//390 413//390
f 406//300 374//300 378//300
f 20//271 368//271 405//271
f 377//265 376//265 403//265
f 403//289 376//289 383//289
f 389//391 394//391 388//391
f 380//392 369//392 27//392
f 19//7 54//7 18//7
f 48//393 19//393 484//393
f 48//394 484//394 485//394
f 485//395 486//395 48//395
f 486//28 44//28 48//28
f 486//396 485//396 487//396
f 486//397 487//397 488//397
f 488//398 44//398 486//398
f 489//399 488//399 487//399
f 39//400 44//400 488//400
f 488//401 489//401 39//401
f 487//402 490//402 489//402
f 491//403 489//403 490//403
f 40//404 39//404 489//404
f 489//405 491//405 40//405
f 493//35 492//35 491//35
f 40//35 491//35 492//35
f 491//35 494//35 493//35
f 490//406 494//406 491//406
f 496//407 495//407 494//407
f 494//408 495//408 493//408
f 490//409 496//409 494//409
f 498//410 496//410 490//410
f 497//411 499//411 496//411
f 496//412 498//412 497//412
f 496//411 499//411 495//411
f 499//413 500//413 495//413
f 501//414 500//414 499//414
f 499//415 497//415 501//415
f 500//416 501//416 502//416
f 502//417 501//417 503//417
f 501//418 497//418 504//418
f 501//419 504//419 503//419
f 497//420 498//420 504//420
f 498//421 485//421 504//421
f 503//422 504//422 505//422
f 484//423 505//423 504//423
f 504//424 485//424 484//424
f 19//425 505//425 484//425
f 15//426 505//426 19//426
f 506//427 505//427 15//427
f 505//428 506//428 503//428
f 506//429 508//429 507//429
f 507//430 503//430 506//430
f 508//431 506//431 15//431
f 508//24 509//24 507//24
f 508//18 510//18 509//18
f 508//432 15//432 510//432
f 510//18 511//18 509//18
f 15//9 14//9 510//9
f 14//18 511//18 510//18
f 511//433 517//433 492//433
f 492//434 513//434 511//434
f 509//435 511//435 513//435
f 512//18 511//18 14//18
f 512//18 514//18 511//18
f 511//28 514//28 515//28
f 516//24 511//24 515//24
f 34//18 511//18 516//18
f 517//436 511//436 34//436
f 40//23 517//23 34//23
f 492//35 517//35 40//35
f 516//96 4//96 518//96
f 519//90 516//90 518//90
f 519//437 34//437 516//437
f 516//96 515//96 4//96
f 519//89 518//89 520//89
f 521//201 519//201 520//201
f 521//24 34//24 519//24
f 521//201 520//201 522//201
f 523//80 521//80 522//80
f 523//199 34//199 521//199
f 523//80 522//80 524//80
f 525//79 523//79 524//79
f 525//438 34//438 523//438
f 525//79 524//79 526//79
f 528//197 525//197 526//197
f 527//196 34//196 525//196
f 528//197 527//197 525//197
f 530//162 527//162 528//162
f 529//202 530//202 528//202
f 529//439 528//439 526//439
f 531//164 532//164 530//164
f 529//5 531//5 530//5
f 530//162 532//162 527//162
f 13//440 527//440 532//440
f 13//73 532//73 533//73
f 531//441 533//441 532//441
f 535//121 533//121 531//121
f 13//73 533//73 534//73
f 535//121 534//121 533//121
f 536//7 535//7 531//7
f 535//442 536//442 537//442
f 537//119 534//119 535//119
f 536//2 2//2 537//2
f 539//169 538//169 537//169
f 537//119 538//119 534//119
f 537//2 2//2 539//2
f 540//173 541//173 539//173
f 539//2 2//2 540//2
f 539//169 541//169 538//169
f 538//65 541//65 13//65
f 541//194 542//194 13//194
f 540//173 542//173 541//173
f 6//108 542//108 540//108
f 542//28 543//28 14//28
f 6//108 543//108 542//108
f 13//18 542//18 14//18
f 512//107 543//107 6//107
f 543//75 512//75 14//75
f 540//5 2//5 6//5
f 534//18 538//18 13//18
f 529//3 536//3 531//3
f 536//443 529//443 30//443
f 30//443 10//443 536//443
f 2//6 536//6 10//6
f 25//444 30//444 529//444
f 529//444 544//444 25//444
f 544//33 529//33 526//33
f 522//3 520//3 544//3
f 524//445 522//445 544//445
f 544//446 7//446 17//446
f 7//5 544//5 520//5
f 524//447 544//447 526//447
f 17//446 25//446 544//446
f 13//18 34//18 527//18
f 518//7 7//7 520//7
f 7//442 518//442 4//442
f 515//97 3//97 4//97
f 515//97 514//97 3//97
f 514//191 5//191 3//191
f 514//191 512//191 5//191
f 513//448 492//448 493//448
f 513//449 545//449 509//449
f 545//450 513//450 546//450
f 493//451 546//451 513//451
f 546//452 502//452 545//452
f 502//453 546//453 500//453
f 500//454 546//454 493//454
f 545//455 507//455 509//455
f 507//456 545//456 502//456
f 512//107 6//107 5//107
f 503//457 507//457 502//457
f 500//458 493//458 495//458
f 490//459 487//459 498//459
f 498//460 487//460 485//460
f 45//7 43//7 23//7
f 13//18 31//18 34//18
f 11//15 31//15 13//15
f 11//5 10//5 30//5
f 8//4 17//4 7//4
