# Blender 5.0.1
# www.blender.org
mtllib right_elbow_x_link_visual_11.mtl
o i01.right.bicep.full.012_visual.001
v -0.074381 -0.040320 -0.010343
v -0.038024 0.070800 -0.029120
v 0.006887 -0.084976 -0.002797
v 0.000144 0.079521 -0.030595
v 0.032048 -0.078631 -0.003868
v -0.016121 0.077942 -0.030328
v -0.025564 -0.081256 -0.003425
v -0.081624 -0.013070 0.019446
v -0.072996 -0.037222 0.023528
v 0.025849 0.075890 -0.029981
v -0.054102 -0.065574 -0.006075
v 0.054389 0.060208 -0.027331
v 0.074669 0.034952 -0.023063
v -0.081624 -0.018721 -0.013993
v 0.081912 0.013354 -0.019413
v -0.076880 0.028775 -0.022019
v -0.083027 0.006849 -0.018312
v 0.083315 -0.012215 -0.015092
v 0.063927 -0.056170 -0.007663
v 0.077168 -0.034142 -0.011387
v -0.063639 0.050804 -0.025742
v 0.046462 -0.071034 -0.005153
v 0.040903 -0.069150 0.028924
v 0.009809 -0.079041 0.030595
v 0.083315 0.012500 0.015126
v 0.065790 -0.048281 0.025397
v 0.077168 -0.028491 0.022053
v 0.081912 -0.013070 0.019446
v -0.022753 -0.076446 0.030156
v 0.023039 0.082381 0.003317
v -0.051832 -0.061760 0.027676
v 0.046462 0.071318 0.005186
v -0.058808 0.061095 0.006913
v -0.040614 0.075086 0.004549
v -0.009525 0.084976 0.002879
v -0.083315 0.009617 0.015614
v -0.074381 0.040603 0.010376
v 0.063927 0.056455 0.007697
v 0.077168 0.034426 0.011420
vn -0.0000 -0.1666 -0.9860
vn -0.0000 -0.1667 -0.9860
vn -0.9494 -0.3096 0.0523
vn -0.9431 -0.3254 0.0683
vn -0.7839 -0.6146 0.0882
vn 0.0004 -0.1665 -0.9860
vn -0.0002 -0.1666 -0.9860
vn -0.0000 -0.1665 -0.9860
vn 0.6532 -0.7426 0.1476
vn 0.4713 -0.8731 0.1251
vn 0.3069 -0.9332 0.1869
vn -0.0000 0.1666 0.9860
vn 0.6478 -0.7485 0.1421
vn 0.8602 -0.5049 0.0720
vn 0.8699 -0.4863 0.0822
vn 0.9639 -0.2627 0.0444
vn 0.0003 0.1666 0.9860
vn 0.9568 -0.2890 0.0317
vn 0.9981 -0.0481 0.0393
vn -0.0000 0.1667 0.9860
vn 0.0001 0.1667 0.9860
vn 0.9981 0.0481 -0.0393
vn 0.9492 0.3131 -0.0308
vn 0.9636 0.2590 -0.0659
vn 0.8599 0.5076 -0.0546
vn 0.6531 0.7510 -0.0974
vn 0.7832 0.6038 -0.1486
vn -0.7999 0.5961 -0.0695
vn -0.8599 0.4974 -0.1153
vn -0.9636 0.2663 -0.0229
vn -0.9618 0.2722 -0.0304
vn -0.9985 -0.0554 -0.0039
vn -0.9973 -0.0722 0.0122
vn -0.3139 0.9396 -0.1367
vn -0.3070 0.9409 -0.1434
vn 0.0805 0.9872 -0.1376
vn -0.0980 0.9774 -0.1876
vn -0.6148 0.7737 -0.1529
vn -0.6206 0.7704 -0.1458
vn 0.4866 0.8562 -0.1739
vn 0.4320 0.8914 -0.1373
vn -0.7617 -0.6361 0.1231
vn -0.4867 -0.8638 0.1303
vn -0.4558 -0.8749 0.1635
vn 0.1418 0.9738 -0.1779
vn -0.0806 -0.9801 0.1812
vn -0.1155 -0.9819 0.1503
vn 0.2477 -0.9574 0.1485
s 0
usemtl Material.024
f 1//1 2//1 6//1
f 1//1 21//1 2//1
f 1//2 3//2 7//2
f 1//1 5//1 3//1
f 1//1 4//1 10//1
f 1//1 6//1 4//1
f 1//2 22//2 5//2
f 1//1 7//1 11//1
f 8//3 14//3 1//3
f 1//4 9//4 8//4
f 9//5 1//5 11//5
f 1//1 10//1 12//1
f 1//1 12//1 13//1
f 1//1 13//1 15//1
f 1//6 14//6 17//6
f 15//1 18//1 1//1
f 1//1 16//1 21//1
f 1//7 17//7 16//7
f 1//1 18//1 20//1
f 1//8 19//8 22//8
f 1//2 20//2 19//2
f 23//9 22//9 19//9
f 23//10 5//10 22//10
f 5//11 23//11 24//11
f 25//12 24//12 23//12
f 25//12 23//12 26//12
f 19//13 26//13 23//13
f 26//14 19//14 20//14
f 20//15 27//15 26//15
f 25//12 26//12 27//12
f 27//16 20//16 18//16
f 25//17 27//17 28//17
f 18//18 28//18 27//18
f 18//19 25//19 28//19
f 25//12 31//12 29//12
f 25//12 29//12 24//12
f 25//12 32//12 30//12
f 25//12 30//12 35//12
f 25//20 9//20 31//20
f 25//21 38//21 32//21
f 25//12 34//12 33//12
f 25//12 33//12 37//12
f 25//12 35//12 34//12
f 25//22 18//22 15//22
f 25//23 15//23 13//23
f 25//20 37//20 36//20
f 25//12 36//12 8//12
f 13//24 39//24 25//24
f 25//20 39//20 38//20
f 25//12 8//12 9//12
f 13//25 38//25 39//25
f 12//26 32//26 38//26
f 38//27 13//27 12//27
f 21//28 37//28 33//28
f 37//29 21//29 16//29
f 37//30 16//30 17//30
f 17//31 36//31 37//31
f 36//32 17//32 14//32
f 14//33 8//33 36//33
f 35//34 6//34 2//34
f 2//35 34//35 35//35
f 4//36 35//36 30//36
f 35//37 4//37 6//37
f 21//38 33//38 34//38
f 34//39 2//39 21//39
f 32//40 12//40 10//40
f 10//41 30//41 32//41
f 11//42 31//42 9//42
f 31//43 11//43 7//43
f 7//44 29//44 31//44
f 30//45 10//45 4//45
f 3//46 24//46 29//46
f 29//47 7//47 3//47
f 24//48 3//48 5//48
