# Blender 5.0.1
# www.blender.org
mtllib right_shoulder_y_link_visual_1.mtl
o i01.rightArm.omoplate.full.002_visual.001
v 0.066527 -0.110825 0.354143
v 0.066998 -0.110489 0.358910
v 0.066998 -0.111160 0.349379
v 0.066527 -0.146417 0.356652
v -0.066956 -0.111161 0.349377
v 0.066998 -0.146753 0.351886
v -0.066485 -0.110824 0.354143
v -0.066485 -0.146417 0.356652
v -0.066956 -0.110489 0.358910
v -0.066956 -0.146753 0.351887
v -0.068349 -0.147076 0.347304
v -0.068349 -0.111483 0.344795
v -0.070613 -0.147374 0.343080
v 0.068392 -0.147076 0.347302
v 0.070655 -0.147374 0.343079
v 0.068392 -0.111483 0.344795
v 0.070655 -0.111781 0.340569
v 0.073701 -0.112042 0.336868
v -0.070613 -0.111781 0.340569
v 0.073701 -0.147635 0.339377
v 0.077413 -0.147849 0.336340
v -0.073659 -0.147635 0.339377
v -0.077370 -0.147849 0.336340
v -0.077370 -0.112256 0.333831
v -0.081605 -0.148008 0.334081
v -0.073659 -0.112042 0.336868
v 0.077413 -0.112256 0.333831
v 0.081647 -0.112416 0.331572
v 0.081647 -0.148008 0.334081
v 0.086242 -0.148106 0.332689
v -0.086200 -0.148106 0.332689
v -0.086200 -0.112514 0.330182
v -0.090978 -0.148140 0.332219
v -0.141423 -0.149845 0.310058
v 0.141187 -0.149845 0.310058
v -0.081605 -0.112416 0.331572
v 0.086242 -0.112514 0.330182
v 0.091020 -0.112547 0.329711
v 0.141187 -0.114136 0.307540
v 0.091020 -0.148140 0.332219
v 0.095799 -0.148106 0.332689
v 0.095799 -0.112514 0.330182
v 0.100393 -0.112416 0.331572
v 0.104628 -0.112256 0.333831
v 0.100393 -0.148008 0.334081
v 0.104628 -0.147849 0.336340
v 0.108339 -0.147635 0.339377
v 0.108340 -0.112042 0.336868
v 0.111385 -0.111781 0.340569
v 0.113649 -0.111483 0.344795
v 0.111385 -0.147374 0.343080
v 0.113649 -0.147076 0.347304
v 0.115042 -0.146753 0.351887
v 0.115043 -0.111161 0.349377
v 0.115513 -0.110825 0.354143
v 0.141187 -0.108638 0.385535
v -0.141423 -0.108638 0.385535
v 0.141187 -0.144347 0.388053
v -0.086200 -0.109135 0.378107
v 0.086242 -0.109135 0.378107
v 0.091020 -0.109102 0.378577
v 0.095799 -0.109135 0.378107
v 0.100393 -0.109233 0.376716
v 0.104628 -0.109392 0.374458
v 0.108340 -0.109607 0.371420
v 0.111385 -0.109868 0.367717
v 0.113649 -0.110165 0.363493
v 0.115043 -0.110489 0.358910
v -0.141423 -0.144347 0.388053
v -0.115471 -0.146417 0.356652
v -0.115000 -0.146081 0.361418
v -0.113607 -0.145758 0.366001
v -0.111343 -0.145460 0.370227
v -0.108297 -0.145199 0.373929
v -0.104586 -0.144985 0.376967
v -0.100351 -0.144826 0.379225
v -0.095756 -0.144728 0.380614
v -0.090978 -0.144695 0.381086
v -0.086200 -0.144728 0.380614
v -0.115000 -0.146753 0.351886
v -0.115000 -0.111160 0.349379
v -0.113607 -0.147076 0.347302
v -0.115471 -0.110824 0.354143
v -0.115000 -0.110489 0.358910
v -0.113606 -0.110165 0.363493
v -0.111343 -0.109868 0.367717
v -0.108297 -0.109607 0.371420
v -0.104586 -0.109392 0.374458
v -0.100351 -0.109233 0.376716
v -0.095756 -0.109135 0.378107
v -0.090978 -0.109102 0.378577
v -0.113606 -0.111483 0.344795
v -0.111343 -0.147374 0.343079
v -0.111343 -0.111781 0.340569
v -0.108297 -0.147635 0.339377
v -0.108297 -0.112042 0.336868
v -0.104586 -0.147849 0.336340
v -0.104586 -0.112256 0.333831
v -0.100351 -0.148008 0.334081
v -0.100351 -0.112416 0.331572
v -0.095756 -0.148106 0.332689
v -0.095756 -0.112514 0.330182
v -0.090978 -0.112547 0.329711
v -0.141423 -0.114136 0.307540
v -0.141239 0.282200 0.279640
v -0.141423 -0.157671 -0.310057
v -0.141423 -0.193380 -0.307540
v -0.141423 -0.198878 -0.385534
v 0.141188 -0.193380 -0.307540
v -0.115278 -0.196187 -0.349389
v 0.085964 -0.194834 -0.330193
v -0.086478 -0.194834 -0.330193
v -0.091256 -0.194801 -0.329723
v -0.096034 -0.194834 -0.330193
v -0.100629 -0.194932 -0.331582
v -0.104864 -0.195091 -0.333839
v -0.108575 -0.195305 -0.336878
v -0.111621 -0.195566 -0.340582
v -0.113884 -0.195864 -0.344806
v -0.141235 -0.282202 -0.301025
v -0.141236 -0.260442 0.007666
v -0.048015 -0.261879 -0.012736
v -0.141236 -0.247280 0.194380
v -0.141282 -0.198417 0.191071
v -0.048015 -0.247289 0.194250
v -0.048015 -0.267065 0.195644
v -0.046161 -0.245796 0.214767
v -0.051059 -0.242439 0.194055
v -0.048015 -0.281656 -0.011343
v -0.049104 -0.241054 0.212993
v -0.045634 -0.240264 0.224204
v -0.049104 -0.196988 0.209888
v -0.045634 -0.196197 0.221098
v -0.040000 -0.195469 0.231431
v -0.141330 -0.189412 0.312867
v -0.061854 -0.189279 0.312875
v 0.141281 -0.189356 0.312862
v 0.022591 -0.193678 0.256842
v 0.010696 -0.193597 0.257991
v -0.001199 -0.193678 0.256842
v -0.012636 -0.193918 0.253441
v -0.023178 -0.194307 0.247919
v -0.032417 -0.194831 0.240487
v -0.032417 -0.238897 0.243592
v -0.040000 -0.239536 0.234536
v -0.037526 -0.244355 0.235199
v -0.042870 -0.245046 0.225400
v -0.042870 -0.264785 0.226791
v -0.046161 -0.265535 0.216158
v -0.037526 -0.264094 0.236590
v -0.021570 -0.262992 0.252231
v -0.030334 -0.263489 0.245180
v 0.058644 -0.264227 0.234703
v -0.011572 -0.262623 0.257467
v -0.000723 -0.262395 0.260693
v -0.011572 -0.242884 0.256076
v -0.000723 -0.242656 0.259301
v 0.010559 -0.242579 0.260391
v -0.001199 -0.237744 0.259948
v 0.010696 -0.237663 0.261096
v 0.022591 -0.237744 0.259948
v 0.021841 -0.242656 0.259301
v 0.021841 -0.262395 0.260693
v 0.032690 -0.242884 0.256076
v 0.032690 -0.262623 0.257467
v 0.042688 -0.262992 0.252231
v 0.051452 -0.263489 0.245180
v 0.042688 -0.243253 0.250839
v 0.051452 -0.243750 0.243789
v 0.044570 -0.238373 0.251025
v 0.034029 -0.237984 0.256549
v 0.034029 -0.193918 0.253441
v 0.044570 -0.194307 0.247919
v 0.053810 -0.194831 0.240487
v 0.053810 -0.238897 0.243592
v 0.061392 -0.239676 0.232547
v 0.058644 -0.244488 0.233312
v 0.141375 -0.244534 0.233306
v 0.141375 -0.261879 -0.012736
v 0.141375 -0.264311 0.234699
v 0.141423 -0.239696 0.232942
v 0.141375 -0.281655 -0.011343
v 0.141423 -0.195630 0.229834
v 0.141328 -0.195655 0.229841
v 0.061392 -0.195609 0.229441
v 0.141375 -0.282201 -0.301025
v 0.010559 -0.262319 0.261783
v -0.012636 -0.237984 0.256549
v -0.023178 -0.238373 0.251025
v -0.021570 -0.243253 0.250839
v -0.030334 -0.243750 0.243789
v -0.051059 -0.198372 0.190948
v -0.113884 -0.160271 -0.347314
v -0.111621 -0.159973 -0.343090
v -0.108575 -0.159712 -0.339387
v -0.104863 -0.159498 -0.336349
v -0.100629 -0.159339 -0.334092
v -0.096034 -0.159241 -0.332701
v -0.091256 -0.159208 -0.332232
v -0.086478 -0.159241 -0.332701
v -0.081883 -0.159339 -0.334092
v 0.085964 -0.159241 -0.332701
v 0.081370 -0.159339 -0.334092
v -0.081883 -0.194932 -0.331582
v -0.077649 -0.195091 -0.333839
v 0.081369 -0.194932 -0.331582
v 0.077135 -0.195091 -0.333839
v 0.077135 -0.159498 -0.336349
v 0.073423 -0.195305 -0.336878
v -0.073937 -0.195305 -0.336878
v -0.070891 -0.195566 -0.340582
v -0.073937 -0.159712 -0.339387
v -0.077648 -0.159498 -0.336349
v 0.073423 -0.159712 -0.339387
v 0.070377 -0.159973 -0.343090
v 0.070377 -0.195566 -0.340582
v 0.068114 -0.195864 -0.344806
v -0.068628 -0.195864 -0.344806
v -0.067234 -0.196187 -0.349389
v -0.068627 -0.160271 -0.347314
v -0.070891 -0.159973 -0.343090
v 0.068114 -0.160271 -0.347314
v 0.066720 -0.160594 -0.351897
v 0.066720 -0.196187 -0.349389
v 0.066249 -0.196523 -0.354156
v -0.066763 -0.196523 -0.354156
v -0.067234 -0.196859 -0.358921
v -0.066763 -0.160930 -0.356664
v -0.067234 -0.160594 -0.351897
v -0.067234 -0.161266 -0.361430
v 0.066250 -0.160930 -0.356664
v 0.066720 -0.161266 -0.361430
v 0.066720 -0.196859 -0.358921
v 0.068114 -0.197182 -0.363505
v 0.068114 -0.161589 -0.366014
v 0.070377 -0.197480 -0.367729
v -0.068627 -0.197182 -0.363505
v -0.070891 -0.197480 -0.367729
v -0.068627 -0.161589 -0.366014
v -0.070891 -0.161887 -0.370238
v 0.070377 -0.161887 -0.370238
v 0.073423 -0.162148 -0.373940
v -0.073937 -0.162148 -0.373940
v 0.073423 -0.197741 -0.371432
v 0.077135 -0.197955 -0.374471
v -0.073937 -0.197741 -0.371432
v -0.077649 -0.197955 -0.374471
v -0.081883 -0.198114 -0.376728
v -0.077648 -0.162362 -0.376979
v 0.081369 -0.198114 -0.376728
v 0.081370 -0.162522 -0.379237
v 0.085964 -0.198212 -0.378119
v 0.077135 -0.162362 -0.376979
v -0.081883 -0.162521 -0.379237
v -0.086478 -0.162620 -0.380628
v -0.086478 -0.198212 -0.378119
v -0.091256 -0.198245 -0.378588
v -0.096034 -0.198212 -0.378119
v -0.091256 -0.162652 -0.381096
v -0.096034 -0.162620 -0.380628
v -0.100629 -0.162521 -0.379237
v -0.141423 -0.163170 -0.388052
v 0.141188 -0.163170 -0.388052
v -0.115749 -0.160930 -0.356664
v 0.085964 -0.162620 -0.380628
v -0.104863 -0.162362 -0.376979
v -0.108575 -0.162148 -0.373940
v -0.111621 -0.161887 -0.370238
v -0.113884 -0.161589 -0.366014
v -0.115278 -0.161266 -0.361430
v 0.141187 -0.198878 -0.385534
v -0.115278 -0.160594 -0.351897
v -0.115749 -0.196523 -0.354156
v -0.115278 -0.196859 -0.358921
v -0.113884 -0.197182 -0.363505
v -0.111621 -0.197480 -0.367729
v -0.108575 -0.197741 -0.371432
v -0.104864 -0.197955 -0.374471
v -0.100629 -0.198114 -0.376728
v 0.115235 -0.196523 -0.354156
v 0.114765 -0.196859 -0.358921
v 0.113371 -0.197182 -0.363505
v 0.111107 -0.197480 -0.367729
v 0.108061 -0.197741 -0.371432
v 0.104350 -0.197955 -0.374471
v 0.100115 -0.198114 -0.376728
v 0.095521 -0.198212 -0.378119
v 0.090742 -0.198245 -0.378588
v 0.141188 -0.157672 -0.310057
v 0.114765 -0.196187 -0.349389
v 0.114765 -0.160594 -0.351897
v 0.113371 -0.195864 -0.344806
v 0.113371 -0.160271 -0.347314
v 0.111108 -0.159973 -0.343090
v 0.111107 -0.195566 -0.340582
v 0.108062 -0.159712 -0.339387
v 0.108061 -0.195305 -0.336878
v 0.104350 -0.159498 -0.336349
v 0.104350 -0.195091 -0.333839
v 0.100116 -0.159339 -0.334092
v 0.100115 -0.194932 -0.331582
v 0.095521 -0.159241 -0.332701
v 0.095521 -0.194834 -0.330193
v 0.090742 -0.159208 -0.332232
v 0.090742 -0.194801 -0.329723
v 0.115235 -0.160930 -0.356664
v 0.114765 -0.161266 -0.361430
v 0.113371 -0.161589 -0.366014
v 0.111108 -0.161887 -0.370238
v 0.108062 -0.162148 -0.373940
v 0.104350 -0.162362 -0.376979
v 0.100116 -0.162522 -0.379237
v 0.095521 -0.162620 -0.380628
v 0.090742 -0.162653 -0.381096
v 0.141372 0.238682 -0.337744
v 0.141372 0.282202 0.279639
v -0.141238 0.238680 -0.337743
v -0.081605 -0.144826 0.379225
v 0.086242 -0.144728 0.380614
v 0.081647 -0.144826 0.379225
v 0.077413 -0.144985 0.376967
v 0.081647 -0.109233 0.376716
v 0.077413 -0.109392 0.374458
v -0.077370 -0.109392 0.374458
v -0.081605 -0.109233 0.376716
v -0.077371 -0.144985 0.376967
v -0.073659 -0.145199 0.373929
v 0.073701 -0.145199 0.373929
v 0.070655 -0.145460 0.370227
v 0.073701 -0.109607 0.371420
v 0.070655 -0.109868 0.367717
v -0.070613 -0.109868 0.367717
v -0.073659 -0.109607 0.371420
v -0.070613 -0.145460 0.370225
v -0.068349 -0.145758 0.366001
v 0.068392 -0.145758 0.366001
v 0.066998 -0.146081 0.361418
v 0.068392 -0.110165 0.363493
v -0.068349 -0.110165 0.363493
v -0.066956 -0.146081 0.361418
v 0.091020 -0.144695 0.381086
v 0.095799 -0.144728 0.380614
v 0.100393 -0.144826 0.379225
v 0.104628 -0.144985 0.376967
v 0.108339 -0.145199 0.373929
v 0.111385 -0.145461 0.370225
v 0.113649 -0.145758 0.366001
v 0.115042 -0.146081 0.361418
v 0.115513 -0.146417 0.356652
vn -0.0000 0.9975 -0.0703
vn 0.9952 -0.0069 -0.0978
vn 0.9952 0.0069 0.0978
vn -0.9952 -0.0069 -0.0978
vn -0.9952 0.0069 0.0978
vn -0.9569 0.0204 0.2896
vn -0.0000 -0.9975 0.0703
vn -0.8819 0.0331 0.4702
vn 0.8819 0.0331 0.4703
vn 0.9569 0.0204 0.2896
vn 0.9569 0.0204 0.2895
vn 0.8820 0.0331 0.4701
vn 0.7729 0.0446 0.6329
vn 0.6343 0.0544 0.7712
vn -0.6343 0.0544 0.7712
vn -0.4716 0.0620 0.8796
vn -0.7729 0.0446 0.6329
vn 0.4716 0.0620 0.8796
vn 0.2905 0.0673 0.9545
vn -0.2901 0.0672 0.9546
vn -0.0982 0.0699 0.9927
vn -0.0008 -0.9969 0.0786
vn -0.2905 0.0673 0.9545
vn -0.0000 -0.9971 0.0766
vn -0.0000 0.9975 -0.0704
vn -0.0002 0.9974 -0.0718
vn 0.0984 0.0700 0.9927
vn 0.2901 0.0672 0.9546
vn 0.0982 0.0699 0.9927
vn -0.0000 0.9974 -0.0715
vn -0.0005 -0.9971 0.0756
vn 0.0008 -0.9969 0.0786
vn -0.0984 0.0700 0.9927
vn 0.0002 0.9975 -0.0711
vn 0.0001 0.9975 -0.0713
vn 0.0003 0.9975 -0.0709
vn -0.0017 -0.9973 0.0734
vn -0.0012 -0.9972 0.0742
vn -0.0021 -0.9973 0.0729
vn 0.0005 0.9975 -0.0707
vn 0.0004 0.9975 -0.0708
vn -0.8820 0.0332 0.4701
vn 0.0005 0.9975 -0.0706
vn -0.7730 0.0446 0.6328
vn -0.0030 -0.9974 0.0719
vn -0.8820 0.0331 0.4702
vn -0.0025 -0.9974 0.0724
vn -0.0037 -0.9974 0.0714
vn -0.9569 0.0204 0.2897
vn 0.0012 0.9975 -0.0704
vn 0.0007 0.9975 -0.0705
vn 0.0010 0.9975 -0.0703
vn -0.0000 0.9978 -0.0668
vn -0.0000 0.0703 0.9975
vn 1.0000 -0.0000 -0.0000
vn 0.0009 0.9975 -0.0702
vn -0.0013 0.9984 -0.0570
vn 0.0002 0.9977 -0.0681
vn 0.0004 0.9976 -0.0691
vn 0.0005 0.9976 -0.0695
vn 0.0005 0.9976 -0.0697
vn 0.0006 0.9976 -0.0698
vn 0.0007 0.9975 -0.0700
vn 0.0008 0.9975 -0.0701
vn -0.0000 -0.9987 0.0511
vn -1.0000 -0.0000 -0.0000
vn 0.0049 -0.9975 0.0698
vn 0.0063 -0.9975 0.0709
vn 0.0041 -0.9976 0.0691
vn 0.0036 -0.9977 0.0684
vn 0.0032 -0.9977 0.0677
vn 0.0028 -0.9978 0.0669
vn 0.0025 -0.9978 0.0657
vn 0.0020 -0.9980 0.0636
vn 0.0012 -0.9983 0.0583
vn -0.0071 -1.0000 -0.0015
vn 0.0054 -0.9975 0.0703
vn 0.0037 -0.9974 0.0714
vn 0.9952 -0.0069 -0.0977
vn -0.0011 0.9975 -0.0704
vn -0.0009 0.9975 -0.0702
vn 0.9569 -0.0204 -0.2896
vn -0.0008 0.9975 -0.0701
vn 0.8819 -0.0331 -0.4702
vn -0.0007 0.9975 -0.0700
vn 0.8820 -0.0332 -0.4701
vn 0.7731 -0.0446 -0.6328
vn -0.0006 0.9976 -0.0698
vn 0.7730 -0.0446 -0.6329
vn 0.6344 -0.0544 -0.7711
vn -0.0005 0.9976 -0.0697
vn 0.4713 -0.0620 -0.8798
vn -0.0005 0.9976 -0.0694
vn 0.2905 -0.0673 -0.9545
vn -0.0004 0.9976 -0.0691
vn 0.2901 -0.0672 -0.9546
vn 0.0982 -0.0699 -0.9927
vn -0.0002 0.9977 -0.0681
vn 0.0986 -0.0700 -0.9927
vn -0.0986 -0.0700 -0.9927
vn -0.0982 -0.0699 -0.9927
vn 0.0013 0.9984 -0.0568
vn 0.8819 0.0331 0.4702
vn 0.0030 -0.9974 0.0719
vn 0.7729 0.0446 0.6330
vn 0.8820 0.0331 0.4700
vn 0.0025 -0.9974 0.0723
vn 0.0021 -0.9973 0.0728
vn 0.0017 -0.9973 0.0734
vn 0.0012 -0.9972 0.0742
vn 0.0005 -0.9971 0.0756
vn -0.0002 0.9975 -0.0711
vn -0.0001 0.9975 -0.0713
vn -0.0000 0.0702 0.9975
vn -1.0000 0.0005 -0.0000
vn 0.0002 0.9974 -0.0719
vn -0.0007 0.9975 -0.0705
vn -0.0005 0.9975 -0.0706
vn -0.0005 0.9975 -0.0707
vn -0.0004 0.9975 -0.0708
vn -0.0003 0.9975 -0.0709
vn -0.0010 0.9975 -0.0703
vn 0.0055 -0.9975 0.0703
vn -0.0000 -0.9979 0.0640
vn -0.0000 -0.0731 -0.9973
vn 0.0037 -0.9976 0.0692
vn -0.0008 -0.9981 0.0621
vn 0.0005 -0.9979 0.0651
vn 0.0012 -0.9978 0.0664
vn 0.0017 -0.9977 0.0672
vn 0.0021 -0.9977 0.0678
vn 0.0025 -0.9977 0.0683
vn 0.0030 -0.9976 0.0687
vn -1.0000 -0.0021 0.0001
vn -0.9999 -0.0133 0.0042
vn -1.0000 -0.0010 0.0001
vn -0.9960 0.0063 0.0896
vn -0.8626 -0.4928 0.1138
vn 0.0014 0.0412 0.9992
vn -0.8426 -0.5237 0.1253
vn -0.9947 0.0072 0.1022
vn -0.8574 -0.4218 0.2950
vn -0.9555 0.0207 0.2942
vn -0.9555 0.0207 0.2943
vn -0.8785 0.0336 0.4766
vn -0.0022 -0.9974 0.0715
vn 0.0012 -0.9975 0.0700
vn -0.0000 -0.9973 0.0737
vn -1.0000 -0.0024 -0.0002
vn -0.0002 0.0708 0.9975
vn 0.0017 -0.9971 0.0762
vn 0.0001 0.0708 0.9975
vn -0.0000 0.0713 0.9975
vn -0.0004 -0.9970 0.0777
vn 0.0009 -0.9968 0.0796
vn -0.0007 -0.9970 0.0775
vn -0.0018 -0.9971 0.0763
vn -0.0028 -0.9971 0.0755
vn -0.0038 -0.9972 0.0750
vn -0.0050 -0.9972 0.0745
vn -0.6277 0.0547 0.7765
vn -0.7675 0.0451 0.6395
vn -0.8111 -0.3520 0.4671
vn -0.8784 0.0336 0.4767
vn -0.7247 -0.2858 0.6270
vn -0.8110 -0.3521 0.4672
vn -0.8573 -0.4218 0.2951
vn -0.0007 -0.9972 0.0745
vn -0.4649 0.0623 0.8832
vn -0.2856 0.0674 0.9560
vn -0.0964 0.0700 0.9929
vn -0.0943 -0.1387 0.9858
vn -0.2787 -0.1518 0.9483
vn -0.0942 -0.1389 0.9858
vn 0.0942 -0.1439 0.9851
vn -0.0963 0.0700 0.9929
vn 0.0963 0.0700 0.9929
vn 0.0941 -0.1440 0.9851
vn 0.2856 0.0674 0.9560
vn 0.0964 0.0700 0.9929
vn 0.2778 -0.1669 0.9460
vn 0.4649 0.0623 0.8832
vn 0.6278 0.0547 0.7765
vn 0.5965 -0.2590 0.7597
vn 0.4480 -0.2064 0.8699
vn 0.4482 -0.2060 0.8699
vn 0.2855 0.0674 0.9560
vn 0.2776 -0.1672 0.9460
vn 0.4650 0.0623 0.8831
vn 0.0017 -0.9973 0.0735
vn 0.0012 -0.9972 0.0744
vn 0.6277 0.0547 0.7765
vn 0.0021 -0.9973 0.0729
vn 0.5965 -0.2591 0.7597
vn 0.7614 -0.3478 0.5471
vn 0.7613 -0.3479 0.5472
vn 0.8251 0.0397 0.5636
vn 0.0001 0.0703 0.9975
vn 0.0002 0.1569 0.9876
vn 1.0000 -0.0100 0.0007
vn -0.0049 0.0751 0.9972
vn -0.0000 -0.0703 -0.9975
vn -0.0000 -0.9975 0.0707
vn -0.0010 -0.9975 0.0703
vn -0.0049 0.0704 0.9975
vn -0.0613 -0.0702 -0.9956
vn 1.0000 -0.0000 -0.0002
vn 1.0000 0.0052 -0.0012
vn -0.0002 -0.9971 0.0757
vn 1.0000 0.0024 0.0004
vn 0.0046 -0.3093 -0.9510
vn -0.0009 -0.9976 0.0697
vn -0.0049 0.0703 0.9975
vn 1.0000 0.0021 -0.0001
vn -0.2786 -0.1521 0.9483
vn -0.2855 0.0674 0.9560
vn -0.4509 -0.1823 0.8738
vn -0.4650 0.0623 0.8831
vn -0.4511 -0.1819 0.8737
vn -0.6278 0.0547 0.7765
vn -0.6025 -0.2277 0.7650
vn -0.7675 0.0451 0.6394
vn 0.0008 -0.9975 0.0703
vn 0.0006 -0.9973 0.0728
vn 0.0013 0.0703 0.9975
vn -0.0000 0.0676 0.9977
vn 0.8819 -0.0331 -0.4703
vn -0.0006 0.9975 -0.0700
vn -0.0005 0.9976 -0.0699
vn -0.0004 0.9976 -0.0698
vn 0.6343 -0.0544 -0.7712
vn 0.7731 -0.0446 -0.6327
vn -0.0003 0.9976 -0.0698
vn -0.0002 0.9976 -0.0696
vn -0.0001 0.9976 -0.0693
vn 0.0978 -0.0700 -0.9927
vn 0.2901 -0.0673 -0.9546
vn 0.0002 0.9976 -0.0688
vn -0.0978 -0.0700 -0.9927
vn -0.0980 -0.0700 -0.9927
vn 0.0980 -0.0700 -0.9927
vn -0.2905 -0.0673 -0.9545
vn -0.2901 -0.0673 -0.9546
vn -0.0000 0.9976 -0.0691
vn -0.0000 -0.9975 0.0704
vn -0.4713 -0.0620 -0.8798
vn -0.6344 -0.0544 -0.7711
vn -0.7731 -0.0446 -0.6327
vn -0.6343 -0.0544 -0.7712
vn -0.8819 -0.0331 -0.4702
vn -0.9569 -0.0204 -0.2896
vn -0.8819 -0.0331 -0.4703
vn -0.7731 -0.0446 -0.6328
vn 0.9569 -0.0204 -0.2895
vn 0.9570 0.0204 0.2895
vn -0.9570 0.0204 0.2895
vn -0.8819 0.0332 0.4703
vn 0.7731 0.0446 0.6327
vn 0.7730 0.0446 0.6328
vn 0.6344 0.0543 0.7711
vn -0.7731 0.0446 0.6327
vn -0.6344 0.0543 0.7711
vn -0.7730 0.0446 0.6329
vn -0.4713 0.0620 0.8798
vn 0.2903 0.0673 0.9546
vn 0.4715 0.0620 0.8797
vn 0.4713 0.0620 0.8798
vn -0.4715 0.0620 0.8797
vn -0.2903 0.0673 0.9546
vn -0.0980 0.0700 0.9927
vn -0.0070 -0.9900 0.1406
vn -0.0000 -0.9960 0.0894
vn 0.0980 0.0700 0.9927
vn 0.0012 -0.9966 0.0822
vn 0.0978 0.0700 0.9927
vn -0.0978 0.0700 0.9927
vn -0.0002 0.9974 -0.0725
vn -0.0004 0.9974 -0.0716
vn -0.0000 0.9973 -0.0739
vn -0.0009 0.9975 -0.0704
vn -0.0012 0.9975 -0.0702
vn 0.0013 0.9965 -0.0834
vn -0.0005 0.9975 -0.0712
vn -0.0005 0.9975 -0.0710
vn -0.0006 0.9975 -0.0708
vn -0.0007 0.9975 -0.0707
vn -0.0008 0.9975 -0.0705
vn -0.0007 0.9975 -0.0701
vn 0.9952 0.0069 0.0977
vn 0.0049 -0.9975 0.0708
vn 0.0063 -0.9975 0.0697
vn 0.0042 -0.9974 0.0716
vn 0.0036 -0.9974 0.0723
vn 0.7731 0.0446 0.6328
vn 0.0032 -0.9973 0.0729
vn 0.0029 -0.9973 0.0738
vn 0.0025 -0.9972 0.0750
vn 0.0020 -0.9970 0.0770
vn -0.0054 -0.9975 0.0703
vn -0.0063 -0.9975 0.0697
vn -0.0049 -0.9975 0.0708
vn -0.0041 -0.9974 0.0716
vn -0.0036 -0.9974 0.0722
vn -0.0032 -0.9973 0.0729
vn -0.0028 -0.9973 0.0738
vn -0.0025 -0.9972 0.0749
vn -0.0020 -0.9970 0.0770
vn -0.0012 -0.9966 0.0822
vn 0.0070 -0.9899 0.1414
vn -0.0036 -0.9976 0.0692
vn 0.0007 0.9975 -0.0701
vn 0.0006 0.9975 -0.0700
vn 0.0005 0.9976 -0.0699
vn -0.7732 -0.0446 -0.6326
vn 0.0004 0.9976 -0.0698
vn 0.0003 0.9976 -0.0697
vn 0.0002 0.9976 -0.0696
vn 0.0001 0.9976 -0.0693
vn -0.0002 0.9976 -0.0688
vn -0.0005 -0.9979 0.0651
vn 0.0008 -0.9981 0.0621
vn -0.0012 -0.9978 0.0664
vn -0.0017 -0.9977 0.0672
vn -0.0021 -0.9977 0.0678
vn -0.0025 -0.9977 0.0683
vn -0.0030 -0.9976 0.0687
vn 0.0012 0.9975 -0.0702
vn 0.0009 0.9975 -0.0704
vn 0.0008 0.9975 -0.0705
vn -0.9569 0.0204 0.2895
vn -0.8819 0.0332 0.4702
vn 0.0007 0.9975 -0.0707
vn 0.0006 0.9975 -0.0708
vn 0.0005 0.9975 -0.0710
vn 0.0005 0.9975 -0.0712
vn 0.0004 0.9974 -0.0716
vn 0.0002 0.9974 -0.0725
vn -0.0013 0.9965 -0.0837
vn -0.0000 -0.0697 -0.9976
vn 1.0000 -0.0005 -0.0000
vn -0.2901 -0.0672 -0.9546
vn -0.9570 -0.0204 -0.2895
vn -0.9569 -0.0204 -0.2895
vn 0.0070 -1.0000 -0.0004
vn -0.0012 -0.9983 0.0583
vn -0.0021 -0.9980 0.0636
vn -0.0025 -0.9978 0.0657
vn -0.0029 -0.9978 0.0669
vn -0.0032 -0.9977 0.0677
vn -0.0036 -0.9977 0.0684
vn -0.0042 -0.9976 0.0690
vn -0.0050 -0.9975 0.0698
vn -0.0063 -0.9975 0.0709
vn -0.0055 -0.9975 0.0703
s 0
usemtl Material.017
f 1//1 7//1 2//1
f 2//2 4//2 1//2
f 6//3 3//3 1//3
f 1//1 3//1 5//1
f 6//3 1//3 4//3
f 1//1 5//1 7//1
f 9//4 7//4 8//4
f 7//5 10//5 8//5
f 7//5 5//5 10//5
f 2//1 7//1 9//1
f 5//6 11//6 10//6
f 6//7 10//7 11//7
f 4//7 8//7 10//7
f 4//7 10//7 6//7
f 5//6 12//6 11//6
f 12//8 13//8 11//8
f 14//7 11//7 13//7
f 6//7 11//7 14//7
f 16//9 14//9 15//9
f 14//7 13//7 15//7
f 3//10 6//10 14//10
f 3//11 14//11 16//11
f 16//1 17//1 12//1
f 16//12 15//12 17//12
f 3//1 16//1 5//1
f 16//1 12//1 5//1
f 17//1 18//1 19//1
f 17//13 20//13 18//13
f 17//13 15//13 20//13
f 17//1 19//1 12//1
f 18//14 20//14 21//14
f 23//7 21//7 20//7
f 15//7 22//7 20//7
f 23//7 20//7 22//7
f 26//15 24//15 23//15
f 24//16 25//16 23//16
f 25//7 21//7 23//7
f 26//15 23//15 22//15
f 19//17 26//17 22//17
f 24//1 26//1 27//1
f 26//1 19//1 18//1
f 26//1 18//1 27//1
f 24//1 27//1 28//1
f 27//18 29//18 28//18
f 18//14 21//14 27//14
f 27//18 21//18 29//18
f 28//19 29//19 30//19
f 30//7 29//7 31//7
f 25//7 29//7 21//7
f 31//7 29//7 25//7
f 36//20 32//20 31//20
f 32//21 33//21 31//21
f 34//22 31//22 33//22
f 36//23 31//23 25//23
f 30//24 31//24 35//24
f 34//24 35//24 31//24
f 24//16 36//16 25//16
f 36//25 37//25 32//25
f 36//1 24//1 28//1
f 36//25 28//25 37//25
f 38//26 39//26 37//26
f 37//27 40//27 38//27
f 28//28 30//28 37//28
f 37//29 30//29 40//29
f 37//30 39//30 32//30
f 41//31 40//31 35//31
f 42//21 40//21 41//21
f 40//32 30//32 35//32
f 42//33 38//33 40//33
f 43//20 42//20 41//20
f 43//34 39//34 42//34
f 42//35 39//35 38//35
f 44//16 43//16 45//16
f 44//36 39//36 43//36
f 43//23 41//23 45//23
f 46//37 45//37 35//37
f 44//16 45//16 46//16
f 45//38 41//38 35//38
f 47//39 46//39 35//39
f 48//15 46//15 47//15
f 48//15 44//15 46//15
f 49//17 48//17 47//17
f 49//40 39//40 48//40
f 48//41 39//41 44//41
f 50//42 49//42 51//42
f 50//43 39//43 49//43
f 49//44 47//44 51//44
f 52//45 51//45 35//45
f 50//46 51//46 52//46
f 51//47 47//47 35//47
f 53//48 52//48 35//48
f 54//6 52//6 53//6
f 54//49 50//49 52//49
f 55//5 54//5 53//5
f 56//50 54//50 55//50
f 54//51 39//51 50//51
f 56//52 39//52 54//52
f 57//53 56//53 59//53
f 69//54 56//54 57//54
f 56//55 58//55 35//55
f 69//54 58//54 56//54
f 56//56 55//56 68//56
f 59//53 56//53 60//53
f 56//57 61//57 60//57
f 56//58 62//58 61//58
f 56//59 63//59 62//59
f 56//60 64//60 63//60
f 56//61 65//61 64//61
f 56//62 66//62 65//62
f 56//63 67//63 66//63
f 56//64 68//64 67//64
f 56//55 35//55 39//55
f 69//65 79//65 58//65
f 57//66 34//66 69//66
f 71//67 69//67 70//67
f 69//68 80//68 70//68
f 72//69 69//69 71//69
f 73//70 69//70 72//70
f 74//71 69//71 73//71
f 75//72 69//72 74//72
f 76//73 69//73 75//73
f 77//74 69//74 76//74
f 78//75 69//75 77//75
f 69//76 78//76 79//76
f 69//77 34//77 80//77
f 81//10 80//10 82//10
f 80//3 81//3 83//3
f 80//3 83//3 70//3
f 80//78 34//78 82//78
f 84//79 70//79 83//79
f 57//80 83//80 81//80
f 84//81 83//81 57//81
f 84//2 71//2 70//2
f 85//82 71//82 84//82
f 85//83 84//83 57//83
f 85//82 72//82 71//82
f 86//84 72//84 85//84
f 86//85 85//85 57//85
f 86//86 73//86 72//86
f 87//87 73//87 86//87
f 87//88 86//88 57//88
f 87//89 74//89 73//89
f 88//90 74//90 87//90
f 88//91 87//91 57//91
f 88//90 75//90 74//90
f 89//92 75//92 88//92
f 89//93 88//93 57//93
f 89//92 76//92 75//92
f 90//94 76//94 89//94
f 90//95 89//95 57//95
f 90//96 77//96 76//96
f 91//97 77//97 90//97
f 91//98 90//98 57//98
f 91//99 78//99 77//99
f 91//100 79//100 78//100
f 91//101 59//101 79//101
f 57//102 59//102 91//102
f 92//103 82//103 93//103
f 81//10 82//10 92//10
f 82//104 34//104 93//104
f 94//105 93//105 95//105
f 92//106 93//106 94//106
f 93//107 34//107 95//107
f 96//14 95//14 97//14
f 94//105 95//105 96//105
f 95//108 34//108 97//108
f 98//18 97//18 99//18
f 96//14 97//14 98//14
f 97//109 34//109 99//109
f 100//19 99//19 101//19
f 98//18 99//18 100//18
f 99//110 34//110 101//110
f 102//29 101//29 33//29
f 100//28 101//28 102//28
f 101//111 34//111 33//111
f 100//112 102//112 104//112
f 102//113 103//113 104//113
f 102//27 33//27 103//27
f 57//66 104//66 34//66
f 107//66 34//66 104//66
f 39//114 105//114 104//114
f 106//115 104//115 105//115
f 104//30 32//30 39//30
f 104//116 103//116 32//116
f 81//117 92//117 104//117
f 92//118 94//118 104//118
f 94//119 96//119 104//119
f 96//120 98//120 104//120
f 98//121 100//121 104//121
f 57//122 81//122 104//122
f 107//66 104//66 106//66
f 108//123 110//123 107//123
f 106//66 108//66 107//66
f 109//124 107//124 111//124
f 120//125 107//125 109//125
f 110//126 119//126 107//126
f 112//124 111//124 107//124
f 113//127 112//127 107//127
f 114//128 113//128 107//128
f 115//129 114//129 107//129
f 116//130 115//130 107//130
f 117//131 116//131 107//131
f 118//132 117//132 107//132
f 119//133 118//133 107//133
f 121//134 34//134 107//134
f 120//134 121//134 107//134
f 122//7 121//7 120//7
f 121//135 124//135 34//135
f 125//7 121//7 122//7
f 121//136 123//136 124//136
f 125//7 123//7 121//7
f 126//137 127//137 125//137
f 125//66 129//66 126//66
f 125//138 127//138 130//138
f 123//139 125//139 128//139
f 125//66 122//66 129//66
f 125//140 130//140 128//140
f 128//141 130//141 132//141
f 127//142 131//142 130//142
f 130//143 131//143 133//143
f 130//144 133//144 132//144
f 134//145 133//145 131//145
f 134//146 135//146 133//146
f 133//147 124//147 132//147
f 135//148 124//148 133//148
f 124//149 135//149 34//149
f 34//150 135//150 136//150
f 134//151 136//151 135//151
f 137//152 35//152 136//152
f 136//153 35//153 34//153
f 138//154 137//154 136//154
f 139//155 138//155 136//155
f 140//156 139//156 136//156
f 141//157 140//157 136//157
f 142//158 141//158 136//158
f 143//159 142//159 136//159
f 134//160 143//160 136//160
f 142//161 143//161 144//161
f 143//162 145//162 144//162
f 143//162 134//162 145//162
f 145//163 131//163 147//163
f 134//164 131//164 145//164
f 144//165 145//165 146//165
f 145//166 147//166 146//166
f 148//164 146//164 147//164
f 149//144 148//144 147//144
f 149//144 147//144 127//144
f 127//167 147//167 131//167
f 153//168 149//168 126//168
f 126//137 149//137 127//137
f 150//7 148//7 149//7
f 152//7 150//7 149//7
f 154//7 151//7 149//7
f 152//7 149//7 151//7
f 154//7 149//7 153//7
f 151//169 154//169 156//169
f 154//7 153//7 155//7
f 154//170 155//170 157//170
f 154//170 157//170 156//170
f 155//171 158//171 157//171
f 157//172 158//172 160//172
f 156//173 157//173 159//173
f 157//174 160//174 159//174
f 162//175 160//175 158//175
f 159//176 160//176 139//176
f 161//177 139//177 160//177
f 162//178 161//178 160//178
f 165//179 162//179 163//179
f 163//180 162//180 158//180
f 164//181 161//181 162//181
f 165//179 164//179 162//179
f 165//7 163//7 153//7
f 165//7 153//7 166//7
f 164//182 165//182 166//182
f 167//183 168//183 166//183
f 153//7 167//7 166//7
f 164//182 166//182 168//182
f 169//184 170//184 168//184
f 167//183 169//183 168//183
f 171//185 164//185 168//185
f 171//186 168//186 170//186
f 171//187 138//187 161//187
f 164//188 171//188 161//188
f 170//189 172//189 171//189
f 171//179 172//179 138//179
f 170//182 173//182 172//182
f 137//190 172//190 173//190
f 138//191 172//191 137//191
f 175//183 173//183 170//183
f 175//192 174//192 173//192
f 174//193 137//193 173//193
f 169//194 175//194 170//194
f 177//195 175//195 169//195
f 177//196 176//196 175//196
f 176//197 174//197 175//197
f 178//198 177//198 153//198
f 153//197 177//197 169//197
f 178//199 176//199 177//199
f 179//200 181//200 178//200
f 182//55 179//55 178//55
f 178//198 153//198 180//198
f 182//55 178//55 180//55
f 178//201 181//201 176//201
f 122//202 179//202 182//202
f 122//202 182//202 129//202
f 153//203 129//203 182//203
f 180//204 153//204 182//204
f 176//205 181//205 183//205
f 181//206 184//206 183//206
f 181//207 179//207 183//207
f 184//208 179//208 35//208
f 184//209 137//209 174//209
f 137//210 184//210 35//210
f 185//211 183//211 184//211
f 184//212 174//212 185//212
f 176//213 183//213 185//213
f 176//197 185//197 174//197
f 179//7 122//7 186//7
f 179//214 186//214 109//214
f 179//214 109//214 35//214
f 120//125 109//125 186//125
f 122//7 120//7 186//7
f 153//197 169//197 167//197
f 163//180 158//180 187//180
f 187//7 153//7 163//7
f 153//7 187//7 155//7
f 155//171 187//171 158//171
f 161//180 138//180 139//180
f 156//215 159//215 188//215
f 140//216 188//216 159//216
f 159//171 139//171 140//171
f 190//217 156//217 188//217
f 189//218 188//218 141//218
f 190//219 188//219 189//219
f 140//170 141//170 188//170
f 151//169 156//169 190//169
f 152//220 151//220 190//220
f 152//220 190//220 191//220
f 189//221 191//221 190//221
f 150//222 152//222 191//222
f 150//222 191//222 146//222
f 144//165 146//165 191//165
f 189//221 144//221 191//221
f 142//220 144//220 189//220
f 189//169 141//169 142//169
f 153//223 126//223 129//223
f 148//164 150//164 146//164
f 128//141 132//141 192//141
f 132//224 124//224 192//224
f 124//225 128//225 192//225
f 124//226 123//226 128//226
f 110//82 193//82 119//82
f 119//84 194//84 118//84
f 119//227 193//227 194//227
f 193//228 106//228 194//228
f 194//229 106//229 195//229
f 118//87 194//87 195//87
f 195//230 106//230 196//230
f 117//231 195//231 196//231
f 118//232 195//232 117//232
f 196//233 106//233 197//233
f 116//92 196//92 197//92
f 117//90 196//90 116//90
f 197//234 106//234 198//234
f 115//94 197//94 198//94
f 116//92 197//92 115//92
f 198//235 106//235 199//235
f 114//236 198//236 199//236
f 115//237 198//237 114//237
f 199//238 106//238 200//238
f 199//239 200//239 112//239
f 199//240 112//240 113//240
f 114//241 199//241 113//241
f 203//1 201//1 200//1
f 200//242 201//242 204//242
f 200//243 204//243 112//243
f 200//244 106//244 202//244
f 203//1 200//1 202//1
f 112//245 204//245 111//245
f 201//246 205//246 204//246
f 206//7 204//7 205//7
f 111//245 204//245 206//245
f 207//92 203//92 206//92
f 206//94 203//94 202//94
f 206//237 202//237 111//237
f 206//7 205//7 207//7
f 209//90 208//90 207//90
f 207//92 208//92 203//92
f 207//7 210//7 209//7
f 207//7 205//7 210//7
f 213//247 210//247 205//247
f 212//248 211//248 210//248
f 211//7 209//7 210//7
f 213//249 212//249 210//249
f 208//1 213//1 201//1
f 201//246 213//246 205//246
f 214//1 212//1 213//1
f 208//1 214//1 213//1
f 216//232 214//232 209//232
f 209//231 214//231 208//231
f 214//1 215//1 212//1
f 216//232 215//232 214//232
f 217//227 215//227 216//227
f 211//7 216//7 209//7
f 218//7 217//7 216//7
f 218//7 216//7 211//7
f 221//250 218//250 211//250
f 220//251 219//251 218//251
f 219//7 217//7 218//7
f 221//252 220//252 218//252
f 221//1 212//1 215//1
f 212//253 221//253 211//253
f 220//1 221//1 222//1
f 221//1 215//1 222//1
f 224//254 222//254 217//254
f 217//84 222//84 215//84
f 220//1 222//1 223//1
f 224//82 223//82 222//82
f 225//2 223//2 224//2
f 219//7 224//7 217//7
f 226//7 225//7 224//7
f 226//7 224//7 219//7
f 228//5 227//5 226//5
f 226//7 227//7 225//7
f 226//4 219//4 229//4
f 226//4 229//4 228//4
f 229//1 220//1 223//1
f 220//251 229//251 219//251
f 228//1 229//1 223//1
f 228//1 231//1 230//1
f 228//5 230//5 227//5
f 228//1 223//1 231//1
f 233//3 231//3 225//3
f 225//2 231//2 223//2
f 230//1 231//1 232//1
f 233//3 232//3 231//3
f 234//255 232//255 233//255
f 227//7 233//7 225//7
f 227//7 234//7 233//7
f 236//103 235//103 234//103
f 234//255 235//255 232//255
f 237//7 236//7 234//7
f 227//7 237//7 234//7
f 230//256 237//256 227//256
f 239//257 238//257 237//257
f 237//7 238//7 236//7
f 230//256 239//256 237//256
f 230//1 235//1 239//1
f 239//1 241//1 240//1
f 239//257 240//257 238//257
f 239//1 235//1 241//1
f 244//258 241//258 236//258
f 236//103 241//103 235//103
f 243//1 241//1 242//1
f 244//259 242//259 241//259
f 240//1 241//1 243//1
f 245//260 242//260 244//260
f 238//7 244//7 236//7
f 245//7 244//7 246//7
f 238//7 246//7 244//7
f 240//261 246//261 238//261
f 243//262 247//262 246//262
f 245//7 246//7 247//7
f 240//263 243//263 246//263
f 249//264 248//264 247//264
f 250//7 247//7 248//7
f 243//262 249//262 247//262
f 250//7 245//7 247//7
f 252//265 251//265 250//265
f 250//266 251//266 253//266
f 250//267 253//267 245//267
f 252//7 250//7 248//7
f 245//260 253//260 242//260
f 253//1 249//1 242//1
f 251//1 254//1 253//1
f 253//1 254//1 249//1
f 249//268 254//268 248//268
f 251//1 255//1 254//1
f 254//269 255//269 256//269
f 254//269 256//269 248//269
f 252//245 248//245 256//245
f 255//270 257//270 256//270
f 108//271 256//271 257//271
f 252//272 256//272 108//272
f 257//273 260//273 258//273
f 108//274 257//274 258//274
f 257//275 259//275 260//275
f 255//276 259//276 257//276
f 262//277 260//277 259//277
f 262//278 261//278 260//278
f 258//265 260//265 261//265
f 272//122 262//122 106//122
f 106//66 262//66 108//66
f 263//279 262//279 265//279
f 262//202 263//202 271//202
f 262//202 271//202 108//202
f 262//280 264//280 270//280
f 272//281 264//281 262//281
f 265//279 262//279 255//279
f 262//282 259//282 255//282
f 262//283 266//283 261//283
f 262//284 267//284 266//284
f 262//285 268//285 267//285
f 262//286 269//286 268//286
f 262//287 270//287 269//287
f 273//2 264//2 272//2
f 272//288 106//288 193//288
f 110//82 272//82 193//82
f 273//79 272//79 110//79
f 274//289 264//289 273//289
f 108//290 274//290 273//290
f 108//291 273//291 110//291
f 275//255 270//255 274//255
f 108//292 275//292 274//292
f 274//3 270//3 264//3
f 276//103 269//103 275//103
f 108//293 276//293 275//293
f 275//255 269//255 270//255
f 277//294 268//294 276//294
f 108//295 277//295 276//295
f 276//103 268//103 269//103
f 278//260 267//260 277//260
f 108//296 278//296 277//296
f 277//259 267//259 268//259
f 279//267 266//267 278//267
f 108//297 279//297 278//297
f 278//260 266//260 267//260
f 258//265 261//265 279//265
f 108//298 258//298 279//298
f 279//266 261//266 266//266
f 271//272 252//272 108//272
f 271//55 289//55 109//55
f 271//299 109//299 290//299
f 271//55 263//55 289//55
f 271//300 290//300 280//300
f 281//301 271//301 280//301
f 282//302 271//302 281//302
f 283//303 271//303 282//303
f 284//304 271//304 283//304
f 285//305 271//305 284//305
f 286//306 271//306 285//306
f 287//307 271//307 286//307
f 288//308 271//308 287//308
f 271//309 288//309 252//309
f 293//251 291//251 290//251
f 280//4 290//4 291//4
f 293//251 290//251 292//251
f 290//310 109//310 292//310
f 294//250 293//250 292//250
f 291//311 293//311 289//311
f 293//312 294//312 289//312
f 294//252 292//252 295//252
f 296//253 294//253 295//253
f 294//313 296//313 289//313
f 296//314 295//314 297//314
f 298//249 296//249 297//249
f 296//315 298//315 289//315
f 298//247 297//247 299//247
f 300//246 298//246 299//246
f 298//316 300//316 289//316
f 300//246 299//246 301//246
f 302//242 300//242 301//242
f 300//317 302//317 289//317
f 302//243 301//243 303//243
f 304//239 302//239 303//239
f 302//318 304//318 289//318
f 111//241 304//241 305//241
f 304//240 303//240 305//240
f 289//319 304//319 202//319
f 111//236 202//236 304//236
f 303//320 109//320 305//320
f 109//321 111//321 305//321
f 301//322 109//322 303//322
f 299//323 109//323 301//323
f 297//324 109//324 299//324
f 295//325 109//325 297//325
f 292//326 109//326 295//326
f 280//4 291//4 306//4
f 263//327 306//327 291//327
f 263//52 291//52 289//52
f 306//5 281//5 280//5
f 307//328 306//328 263//328
f 306//5 307//5 281//5
f 307//256 282//256 281//256
f 308//329 307//329 263//329
f 307//330 308//330 282//330
f 308//331 283//331 282//331
f 309//332 308//332 263//332
f 308//331 309//331 283//331
f 309//261 284//261 283//261
f 310//333 309//333 263//333
f 309//263 310//263 284//263
f 310//262 285//262 284//262
f 311//334 310//334 263//334
f 310//262 311//262 285//262
f 311//264 286//264 285//264
f 312//335 311//335 263//335
f 311//268 312//268 286//268
f 312//269 287//269 286//269
f 313//336 312//336 263//336
f 312//269 313//269 287//269
f 313//270 288//270 287//270
f 314//337 313//337 263//337
f 313//276 314//276 288//276
f 288//275 314//275 265//275
f 263//338 265//338 314//338
f 289//244 202//244 106//244
f 289//339 106//339 317//339
f 109//55 289//55 39//55
f 289//340 316//340 39//340
f 289//339 317//339 315//339
f 289//340 315//340 316//340
f 106//115 105//115 317//115
f 317//1 105//1 316//1
f 317//1 316//1 315//1
f 39//114 316//114 105//114
f 288//273 265//273 252//273
f 252//265 265//265 251//265
f 265//1 255//1 251//1
f 243//1 242//1 249//1
f 230//1 232//1 235//1
f 203//1 208//1 201//1
f 109//55 39//55 35//55
f 32//33 103//33 33//33
f 59//341 318//341 79//341
f 79//245 318//245 320//245
f 79//65 319//65 58//65
f 79//245 320//245 319//245
f 322//92 320//92 321//92
f 318//7 321//7 320//7
f 60//96 319//96 320//96
f 60//94 320//94 322//94
f 324//1 322//1 323//1
f 322//92 321//92 323//92
f 325//1 60//1 322//1
f 325//1 322//1 324//1
f 59//242 325//242 318//242
f 325//246 326//246 318//246
f 325//246 324//246 326//246
f 59//1 60//1 325//1
f 324//247 327//247 326//247
f 326//7 327//7 328//7
f 318//7 326//7 321//7
f 326//7 328//7 321//7
f 330//89 328//89 329//89
f 329//7 328//7 327//7
f 323//90 321//90 328//90
f 323//90 328//90 330//90
f 331//1 332//1 330//1
f 330//232 329//232 331//232
f 330//1 333//1 323//1
f 330//1 332//1 333//1
f 324//247 333//247 327//247
f 333//314 334//314 327//314
f 333//248 332//248 334//248
f 324//1 323//1 333//1
f 332//252 335//252 334//252
f 336//7 334//7 335//7
f 329//7 327//7 334//7
f 336//7 329//7 334//7
f 338//254 336//254 337//254
f 337//7 336//7 335//7
f 331//86 329//86 336//86
f 331//227 336//227 338//227
f 2//1 339//1 338//1
f 338//254 337//254 2//254
f 338//1 332//1 331//1
f 338//1 339//1 332//1
f 332//252 339//252 335//252
f 339//342 340//342 335//342
f 339//343 9//343 340//343
f 2//1 9//1 339//1
f 9//4 8//4 340//4
f 337//7 340//7 8//7
f 337//7 335//7 340//7
f 4//7 337//7 8//7
f 2//2 337//2 4//2
f 61//99 341//99 319//99
f 58//344 319//344 341//344
f 61//97 319//97 60//97
f 58//345 341//345 342//345
f 61//100 342//100 341//100
f 58//346 342//346 343//346
f 62//341 343//341 342//341
f 61//101 62//101 342//101
f 58//347 343//347 344//347
f 63//246 344//246 343//246
f 62//242 63//242 343//242
f 58//348 344//348 345//348
f 64//247 345//247 344//247
f 63//246 64//246 344//246
f 58//349 345//349 346//349
f 65//314 346//314 345//314
f 64//247 65//247 345//247
f 58//350 346//350 347//350
f 66//250 347//250 346//250
f 65//248 66//248 346//248
f 58//351 347//351 348//351
f 67//251 348//251 347//251
f 66//250 67//250 347//250
f 58//352 348//352 349//352
f 68//4 349//4 348//4
f 67//251 68//251 348//251
f 53//353 58//353 349//353
f 55//5 53//5 349//5
f 68//4 55//4 349//4
f 53//354 35//354 58//354
f 15//7 13//7 22//7
f 19//44 22//44 13//44
f 12//42 19//42 13//42
