# Blender 5.0.1
# www.blender.org
mtllib right_elbow_x_link_visual_1.mtl
o i01.right.bicep.full.002_visual.001
v -0.314659 0.089406 0.249084
v -0.314667 0.094616 0.230571
v -0.247862 0.088927 0.249166
v -0.314653 0.075758 0.240364
v -0.247866 0.094309 0.246499
v -0.314662 0.093898 0.246755
v -0.247854 0.067149 0.232025
v -0.247872 0.092823 0.218694
v -0.247805 0.037069 0.147907
v -0.314668 0.092287 0.218916
v -0.314673 0.098819 0.214437
v -0.247876 0.098526 0.214828
v -0.247894 0.120023 0.195498
v -0.314677 0.108862 0.220714
v -0.247888 0.123829 0.225981
v -0.314685 0.124265 0.225774
v -0.247892 0.128367 0.222016
v -0.314688 0.128036 0.222399
v -0.314690 0.124707 0.206545
v -0.314690 0.119553 0.195835
v -0.314694 0.124766 0.189870
v -0.314636 0.036510 0.148154
v -0.314700 0.163132 0.072027
v -0.314646 0.060140 0.234518
v -0.314651 0.067563 0.231752
v -0.314521 -0.094870 0.190738
v -0.314608 -0.002724 0.240917
v -0.314604 -0.010561 0.239765
v -0.314629 0.032999 0.240774
v -0.314624 0.025121 0.241609
v -0.314652 0.050291 0.118722
v -0.314725 0.152997 0.133339
v -0.314728 0.154676 0.125727
v -0.314620 0.002482 0.136559
v -0.247790 0.006031 0.138258
v -0.314709 0.140222 0.166700
v -0.314713 0.143789 0.159627
v -0.314720 0.155627 0.160290
v -0.247916 0.143732 0.160127
v -0.314729 0.162674 0.140241
v -0.247913 0.140598 0.166264
v -0.247862 0.163170 0.072011
v -0.247915 0.155277 0.189877
v -0.314711 0.147878 0.175791
v -0.247898 0.124584 0.190331
v -0.247912 0.151865 0.194844
v -0.314700 0.136061 0.193457
v -0.314709 0.152232 0.194526
v -0.314712 0.155045 0.190319
v -0.247949 0.181042 0.116432
v -0.247939 0.167134 0.122975
v -0.247931 0.154702 0.125587
v -0.247929 0.153258 0.132833
v -0.247852 0.180804 0.064217
v -0.314698 0.201103 0.055250
v -0.247648 0.085768 -0.017150
v -0.247822 0.051430 0.114928
v -0.247827 0.053628 0.099474
v -0.247830 0.051610 0.086425
v -0.314661 0.051991 0.087719
v -0.314660 0.044864 0.074562
v -0.247829 0.046626 0.077065
v -0.247826 0.038424 0.068377
v -0.247820 0.024905 0.061883
v -0.314655 0.033197 0.065109
v -0.314688 0.155511 -0.047967
v -0.314649 0.018826 0.060856
v -0.314640 0.003824 0.062417
v -0.247812 0.009863 0.061060
v -0.247802 -0.004310 0.066010
v -0.247509 -0.114653 0.071406
v -0.314630 -0.009356 0.069548
v -0.247793 -0.015553 0.076049
v -0.314622 -0.018866 0.081202
v -0.247786 -0.022103 0.089585
v -0.247782 -0.022965 0.104456
v -0.314614 -0.023167 0.103135
v -0.314616 -0.022628 0.092587
v -0.314512 -0.114692 0.071423
v -0.314549 -0.130060 0.183543
v -0.291800 -0.159965 0.091428
v -0.314566 -0.099518 0.185003
v -0.247652 -0.097839 0.187001
v -0.247752 -0.111212 0.187562
v -0.247770 -0.099730 0.184507
v -0.314549 -0.127147 0.188233
v -0.247729 -0.127499 0.188343
v -0.247926 -0.226484 0.120820
v -0.247570 -0.159940 0.091414
v -0.247926 -0.185178 0.214303
v -0.198042 -0.140841 0.194633
v -0.186194 -0.108123 0.180177
v -0.144081 -0.073260 0.164851
v -0.144080 -0.069084 0.174302
v -0.247752 -0.123475 0.198339
v -0.175562 -0.069101 0.174313
v -0.247509 -0.069129 0.174325
v -0.175569 -0.054469 0.181871
v -0.175562 -0.114585 0.071372
v -0.174910 -0.023033 0.103106
v 0.189639 -0.022661 0.104342
v 0.189635 -0.021800 0.089489
v -0.175599 -0.072848 0.052934
v -0.174908 -0.018606 0.117410
v -0.174913 -0.022496 0.092562
v -0.174921 -0.018741 0.081196
v 0.189628 -0.015257 0.075970
v -0.174929 -0.009244 0.069555
v 0.189619 -0.004035 0.065948
v -0.174938 0.003915 0.062434
v -0.175695 0.046708 0.000109
v -0.174944 0.018906 0.060874
v 0.189609 0.010131 0.060999
v 0.189542 0.068401 -0.009477
v 0.189601 0.025139 0.061822
v -0.174942 0.033252 0.065120
v 0.189589 0.038651 0.068312
v 0.189559 0.117886 0.105718
v 0.189389 0.114168 0.093662
v 0.189592 0.046837 0.076983
v -0.174956 0.044905 0.074558
v -0.175688 0.113957 0.093755
v 0.189592 0.051815 0.086333
v -0.174956 0.052024 0.087705
v -0.175683 0.120153 0.130898
v 0.189594 0.053830 0.099366
v -0.174953 0.053600 0.100382
v -0.175677 0.117183 0.146091
v -0.175664 0.106948 0.167152
v 0.189599 0.051635 0.114799
v -0.174948 0.050326 0.118662
v -0.175640 0.083848 0.190363
v 0.189616 0.037293 0.147734
v -0.174950 0.036563 0.148055
v -0.175608 0.019976 0.212091
v -0.175633 0.053228 0.206205
v 0.189631 0.006286 0.138093
v -0.174911 0.002581 0.136477
v -0.175590 -0.010730 0.207133
v 0.189638 -0.009409 0.128247
v -0.174908 -0.010323 0.127725
v -0.175584 -0.040355 0.190760
v 0.189640 -0.017736 0.118486
v 0.189676 -0.051778 0.183463
v 0.100718 -0.068951 0.174222
v 0.189660 -0.015038 0.204720
v 0.189741 -0.197434 0.107984
v 0.100775 -0.197485 0.108006
v 0.100718 -0.114426 0.071306
v 0.189644 -0.056785 0.045838
v -0.086602 -0.114535 0.071351
v -0.142558 -0.178400 0.099574
v -0.146333 -0.164122 0.093266
v -0.086589 -0.073220 0.164856
v -0.086844 -0.185085 0.214263
v -0.086844 -0.226391 0.120779
v -0.154020 -0.159110 0.091050
v -0.142610 -0.171650 0.096591
v -0.143344 -0.169484 0.095634
v -0.087207 -0.198936 0.108647
v -0.142081 -0.146158 0.165298
v -0.144106 -0.138044 0.161715
v -0.142331 -0.176144 0.098575
v -0.142430 -0.191653 0.067826
v -0.143169 -0.183201 0.064103
v -0.133474 -0.179737 0.045210
v -0.128588 -0.196448 0.052596
v -0.148067 -0.162631 0.092607
v -0.148371 -0.176268 0.061028
v -0.144757 -0.169975 0.040892
v -0.156465 -0.172129 0.059211
v -0.160058 -0.165683 0.038999
v -0.156399 -0.158465 0.090766
v -0.165659 -0.172234 0.059243
v -0.162908 -0.157806 0.090473
v -0.174933 -0.162827 0.092691
v -0.375567 -0.060632 0.047537
v -0.374228 0.005740 0.018209
v -0.086615 -0.114534 0.071352
v -0.168774 -0.159307 0.091136
v -0.160508 -0.128147 0.157341
v -0.186194 -0.119835 0.153669
v -0.149292 -0.112861 0.150587
v -0.171203 -0.130764 0.158497
v -0.150028 -0.131405 0.158780
v -0.124238 -0.138606 0.161963
v -0.124238 -0.126893 0.188471
v -0.136086 -0.159612 0.202926
v -0.136086 -0.171324 0.176420
v -0.146610 -0.157167 0.170164
v -0.158041 -0.162791 0.172649
v -0.172988 -0.166586 0.206007
v -0.172988 -0.178298 0.179502
v -0.175066 -0.157496 0.170309
v -0.167365 -0.161924 0.172266
v -0.198042 -0.152554 0.168126
v -0.179455 -0.149930 0.166965
v -0.179412 -0.139960 0.162560
v -0.176065 -0.164287 0.093336
v -0.179777 -0.172152 0.096812
v -0.179302 -0.180460 0.100483
v -0.174425 -0.187466 0.103580
v -0.244256 -0.278002 0.143580
v -0.167989 -0.191279 0.105263
v -0.169874 -0.190649 0.104986
v -0.178455 -0.182125 0.101219
v -0.172533 -0.203030 0.072865
v -0.178285 -0.196379 0.069913
v -0.193410 -0.197161 0.052903
v -0.190240 -0.208330 0.057839
v -0.180047 -0.189822 0.067016
v -0.180144 -0.173699 0.097495
v -0.190802 -0.183153 0.046720
v -0.178934 -0.183146 0.064066
v -0.173916 -0.176090 0.060961
v -0.178324 -0.170150 0.040974
v -0.281528 -0.130961 0.023653
v -0.257474 -0.183472 0.046854
v -0.315495 -0.192805 0.050978
v -0.306785 -0.178214 -0.067078
v -0.301751 -0.260757 0.081001
v -0.282730 -0.230728 -0.043875
v -0.340752 -0.240061 -0.039749
v -0.366168 -0.184575 -0.064266
v -0.340911 -0.137319 0.026461
v -0.378483 -0.124466 -0.090828
v -0.318441 -0.121325 -0.092215
v -0.292589 -0.044530 -0.014538
v -0.293185 -0.074069 -0.001486
v -0.291993 -0.024254 -0.048553
v -0.351968 -0.014788 -0.027682
v -0.351968 -0.024051 -0.048643
v -0.291993 -0.014991 -0.027590
v -0.366049 0.053076 -0.057666
v -0.023799 0.086075 -0.072247
v -0.086615 -0.134851 0.025371
v -0.292863 0.100737 -0.078726
v -0.309439 0.107403 -0.081671
v -0.255352 0.152860 -0.101757
v -0.103956 0.169103 -0.108932
v -0.292863 0.091474 -0.099688
v -0.309439 0.098140 -0.102634
v -0.255352 0.143597 -0.122720
v -0.269805 0.153213 -0.126970
v -0.208027 0.189191 -0.142865
v -0.208027 0.198454 -0.121901
v -0.219802 0.210650 -0.127292
v -0.161352 0.250076 -0.144711
v -0.152709 0.235767 -0.138389
v -0.091522 0.263366 -0.150582
v -0.152709 0.226504 -0.159353
v -0.161352 0.240813 -0.165675
v -0.091522 0.254103 -0.171547
v -0.096702 0.269973 -0.178559
v -0.026817 0.270926 -0.178981
v -0.026817 0.280189 -0.158016
v -0.013184 0.242422 -0.141328
v 0.038918 0.285590 -0.160402
v 0.067739 0.273903 -0.155239
v 0.038918 0.276327 -0.181367
v 0.041121 0.293456 -0.188935
v -0.028335 0.287749 -0.186415
v 0.094375 0.265946 -0.175317
v 0.096560 0.262216 -0.150075
v 0.096482 0.239762 -0.251761
v 0.101695 0.291471 -0.186595
v 0.108918 0.273684 -0.266749
v 0.041121 0.302719 -0.167971
v 0.108996 0.296139 -0.165064
v 0.172605 0.255069 -0.258523
v 0.118327 0.322949 -0.176909
v 0.172683 0.277523 -0.156839
v 0.044640 0.330092 -0.180067
v -0.030761 0.323897 -0.177329
v 0.043741 0.343345 -0.130963
v 0.115913 0.336348 -0.127870
v 0.183631 0.316555 -0.119123
v 0.066973 0.179711 -0.058661
v -0.013184 0.262740 -0.095345
v -0.102805 0.318375 -0.119928
v -0.030111 0.337276 -0.128279
v 0.066973 0.159394 -0.104643
v -0.103956 0.189421 -0.062949
v -0.171547 0.287369 -0.106229
v -0.286864 0.194224 -0.065072
v -0.233696 0.245448 -0.087705
v -0.329007 0.135667 -0.039199
v -0.023799 0.106393 -0.026264
v 0.058128 0.102111 -0.024371
v 0.055236 0.123911 -0.034004
v 0.052523 0.117313 -0.031088
v 0.065945 0.097856 -0.022491
v 0.056397 0.103599 -0.025030
v 0.054050 0.093403 -0.058126
v 0.065058 0.131801 0.054188
v 0.056102 0.138084 0.051412
v 0.052732 0.110864 -0.028238
v 0.052387 0.145681 0.048057
v 0.053837 0.155721 0.043618
v 0.034301 0.141540 0.049884
v 0.046149 0.174259 0.035427
v 0.046149 0.185971 0.061935
v 0.034301 0.153253 0.076391
v 0.059355 0.115795 0.061259
v 0.075956 0.131761 0.054206
v 0.059355 0.127508 0.087768
v 0.096257 0.122769 0.058179
v 0.096257 0.134482 0.084686
v 0.108105 0.155488 0.043721
v 0.084232 0.135777 0.052432
v 0.090322 0.146262 0.047798
v 0.088923 0.121564 -0.032967
v 0.088237 0.156050 0.043473
v 0.089534 0.109815 -0.027774
v 0.083525 0.101310 -0.024016
v 0.075314 0.097728 -0.022433
v 0.080794 0.163809 0.040045
v 0.068102 0.165725 0.039199
v 0.070776 0.131926 -0.037544
v 0.083051 0.181233 0.032347
v 0.079937 0.130128 -0.036752
v 0.080383 0.180576 -0.059040
v 0.061961 0.129880 -0.036641
v 0.080383 0.226179 0.044168
v -0.023268 0.096182 -0.021752
v 0.054251 0.122612 -0.033429
v 0.059804 0.162329 0.040699
v -0.175816 0.253950 -0.091460
v -0.175816 0.299553 0.011748
v -0.023268 0.141786 0.081458
v -0.175700 0.085809 -0.017169
v -0.175734 0.180845 0.064198
v -0.222696 0.253923 -0.091449
v -0.222696 0.299526 0.011761
v -0.270238 0.210869 -0.072428
v -0.270238 0.256473 0.030785
v 0.003629 0.114061 0.093710
v 0.108105 0.167200 0.070229
v 0.083051 0.192945 0.058854
v 0.045583 0.079755 -0.069446
v 0.041061 0.095228 -0.076283
v 0.052294 0.099966 -0.061028
v 0.058414 0.087959 -0.055723
v 0.058734 0.069188 -0.064779
v 0.066494 0.083823 -0.053879
v 0.072922 0.066976 -0.063805
v 0.077014 0.098010 -0.022559
v 0.075702 0.083905 -0.053931
v 0.084239 0.069663 -0.064992
v 0.082396 0.086762 -0.055192
v 0.093549 0.076094 -0.067835
v 0.084881 0.102663 -0.024614
v 0.087383 0.091740 -0.057390
v 0.100571 0.088027 -0.073104
v 0.089534 0.109816 -0.027776
v 0.089909 0.098087 -0.060198
v 0.089674 0.118381 -0.031560
v 0.089588 0.104835 -0.063178
v 0.096820 0.108867 -0.082310
v 0.100720 0.098063 -0.077543
v 0.085758 0.125892 -0.034878
v 0.085385 0.112391 -0.066501
v 0.086370 0.117906 -0.086310
v 0.074739 0.131956 -0.037558
v 0.077678 0.116989 -0.068549
v 0.075340 0.121419 -0.087860
v 0.068479 0.117993 -0.068977
v 0.063682 0.120803 -0.087588
v 0.061960 0.129879 -0.036641
v 0.060011 0.114683 -0.067529
v 0.053169 0.116153 -0.085534
v 0.053995 0.108248 -0.064671
v 0.045403 0.108183 -0.082012
v 0.295567 0.242084 -0.086219
v 0.244293 0.284726 -0.105060
v 0.187466 0.302740 -0.167978
v 0.249401 0.270243 -0.153622
v 0.315496 0.158754 -0.104360
v 0.229734 0.247589 -0.143611
v 0.301751 0.226706 -0.134384
v 0.342506 0.173803 -0.111010
v 0.335484 0.190269 -0.063323
v 0.362510 0.131271 -0.037255
v 0.370098 0.113566 -0.084394
v 0.375605 0.067356 -0.009016
v 0.383467 0.048311 -0.055561
v 0.374266 0.000984 0.020314
v 0.382100 -0.019455 -0.025618
v 0.366049 -0.087128 0.004284
v 0.286905 -0.187499 0.103594
v 0.358546 -0.065298 0.049598
v 0.329049 -0.128939 0.077720
v 0.335931 -0.152107 0.032996
v 0.292904 -0.211894 0.059413
v 0.268840 -0.200319 0.054297
v 0.219803 -0.244701 0.073909
v 0.233734 -0.238726 0.126229
v 0.238651 -0.264224 0.082535
v 0.174701 -0.306514 0.101219
v 0.171585 -0.280647 0.144752
v 0.161353 -0.284127 0.091327
v 0.161353 -0.293390 0.070362
v 0.096784 -0.288778 0.068326
v 0.096784 -0.279515 0.089291
v 0.028463 -0.278465 0.088826
v 0.028463 -0.287728 0.067862
v 0.105008 -0.327603 0.110539
v 0.030868 -0.314268 0.104645
v 0.030263 -0.283164 0.145864
v 0.102868 -0.300833 0.153670
v 0.100597 -0.199671 0.108973
v 0.100597 -0.219989 0.062990
v -0.087207 -0.219254 0.062663
v 0.100632 -0.115268 0.071678
v 0.100632 -0.135585 0.025695
v 0.280996 -0.027573 -0.022031
v 0.172090 -0.197583 0.052924
v 0.220023 -0.150881 0.032454
v 0.152769 -0.245186 0.074121
v 0.144111 -0.234946 0.032322
v 0.091604 -0.263644 0.082277
v 0.152769 -0.254449 0.053158
v 0.191950 -0.316310 0.010262
v 0.145028 -0.268094 -0.011043
v 0.144111 -0.254565 -0.012080
v 0.091604 -0.272907 0.061314
v 0.026945 -0.270905 0.060428
v 0.026945 -0.261642 0.081392
v -0.038791 -0.267847 0.084135
v -0.103053 -0.270676 0.085382
v -0.038791 -0.277110 0.063171
v -0.040994 -0.294238 0.070740
v -0.103053 -0.279940 0.064420
v -0.108892 -0.296715 0.071833
v -0.163423 -0.301585 0.073986
v -0.163423 -0.292322 0.094951
v -0.153007 -0.224075 0.064797
v -0.141668 -0.219059 0.062580
v -0.165595 -0.224745 0.065092
v -0.217426 -0.267465 0.083965
v -0.180128 -0.219665 0.062854
v -0.229733 -0.281640 0.090229
v -0.217426 -0.276728 0.063001
v -0.172673 -0.317365 0.080956
v -0.229733 -0.290903 0.069264
v -0.172673 -0.308101 0.101920
v -0.108892 -0.287452 0.092797
v -0.118293 -0.343345 0.117493
v -0.187469 -0.338453 0.115332
v -0.249400 -0.304294 0.100239
v -0.183598 -0.311460 0.158366
v -0.115842 -0.315657 0.160221
v -0.153777 -0.191086 0.105178
v -0.161006 -0.192449 0.105783
v -0.154757 -0.205479 0.073948
v -0.158543 -0.192213 0.105678
v -0.163995 -0.206159 0.074235
v -0.145846 -0.199462 0.071289
v -0.146433 -0.186278 0.103055
v -0.151599 -0.190004 0.104700
v -0.145174 -0.184434 0.102239
v -0.133276 -0.210446 0.058774
v -0.043575 -0.283313 0.145929
v -0.044521 -0.315026 0.104980
v -0.040994 -0.284975 0.091703
v -0.295530 -0.235360 0.124740
v -0.335447 -0.183545 0.101846
v -0.342505 -0.207854 0.057627
v -0.362471 -0.124545 0.075780
v -0.370097 -0.147617 0.031012
v -0.383467 -0.082362 0.002177
v -0.353226 -0.077210 -0.000100
v -0.382100 -0.014596 -0.027766
v 0.158259 -0.239137 -0.008326
v 0.175513 -0.236857 -0.041166
v 0.177150 -0.229658 -0.028477
v 0.207464 -0.223129 -0.015399
v 0.196041 -0.208376 -0.021917
v 0.188573 -0.244411 -0.021958
v 0.190464 -0.235966 -0.007051
v 0.185032 -0.240130 -0.004513
v 0.169683 -0.253891 -0.001807
v 0.180563 -0.241785 0.001585
v 0.179022 -0.239083 0.011094
v 0.158259 -0.227335 0.018385
v 0.169683 -0.242088 0.024905
v 0.188573 -0.220806 0.031465
v 0.181999 -0.233887 0.016295
v 0.177150 -0.206052 0.024946
v 0.196041 -0.196573 0.004795
v 0.206949 -0.183333 0.010693
v 0.231967 -0.201910 -0.056606
v 0.206915 -0.203430 -0.034675
v 0.218626 -0.206529 -0.038244
v 0.184643 -0.247503 -0.036461
v 0.231747 -0.295730 -0.015153
v 0.274361 -0.253592 -0.033771
v 0.191950 -0.322344 -0.003391
v 0.145956 -0.275082 -0.024275
v 0.217500 -0.286446 0.018783
v 0.222947 -0.284345 0.014615
v 0.228667 -0.279636 0.013265
v 0.232500 -0.272907 0.016664
v 0.196486 -0.229074 -0.004715
v 0.232675 -0.268998 0.021252
v 0.198191 -0.224407 0.002090
v 0.230633 -0.266622 0.026601
v 0.195792 -0.223246 0.010001
v 0.207464 -0.211326 0.011312
v 0.226804 -0.266774 0.031236
v 0.189521 -0.226767 0.015844
v 0.221217 -0.269572 0.034747
v 0.214538 -0.277250 0.033606
v 0.213305 -0.284015 0.026977
v 0.292863 -0.134789 0.025342
v 0.319120 -0.087404 -0.020653
v 0.309440 -0.141454 0.028288
v 0.319120 -0.078140 0.000313
v 0.292863 -0.144052 0.004378
v 0.309440 -0.150717 0.007324
v 0.337183 -0.090863 -0.019122
v 0.351968 -0.019264 -0.025702
v 0.351968 -0.028527 -0.046666
v 0.337183 -0.081600 0.001842
v 0.353227 0.043158 -0.053285
v 0.280996 -0.036836 -0.042994
v 0.383219 0.016869 -0.153275
v 0.340912 0.103268 -0.079844
v 0.312180 0.005216 -0.148126
v 0.370904 0.076978 -0.179833
v 0.366888 0.060695 -0.139184
v 0.362103 0.060523 -0.117292
v 0.366376 0.054330 -0.127793
v 0.367188 0.055805 -0.133564
v 0.364630 0.055853 -0.122088
v 0.308202 0.047091 -0.120159
v 0.316033 0.033240 -0.133198
v 0.308866 0.038552 -0.105392
v 0.305699 0.051313 -0.114927
v 0.310163 0.047526 -0.129659
v 0.309673 0.053411 -0.135888
v 0.312887 0.054152 -0.153337
v 0.308161 0.059244 -0.137325
v 0.365096 0.067488 -0.140778
v 0.306130 0.064753 -0.136029
v 0.303947 0.068813 -0.131959
v 0.302573 0.080375 -0.145672
v 0.362976 0.073081 -0.139193
v 0.360025 0.077994 -0.132882
v 0.358219 0.077038 -0.123386
v 0.302203 0.070528 -0.126506
v 0.295406 0.085687 -0.117864
v 0.301270 0.069256 -0.120522
v 0.301353 0.065659 -0.115709
v 0.303111 0.057891 -0.112675
v 0.298552 0.064775 -0.097723
v 0.359072 0.069785 -0.116896
v 0.287719 0.034348 -0.104158
v 0.277386 0.060642 -0.096682
v 0.274246 0.081342 -0.116766
v 0.273554 0.063441 -0.082262
v 0.289349 0.023281 -0.094004
v 0.295455 0.020307 -0.091517
v 0.309239 0.009787 -0.140398
v 0.300325 0.015146 -0.136588
v 0.303374 0.047692 -0.166893
v 0.295506 0.047456 -0.166789
v 0.294872 0.028895 -0.132099
v 0.291718 0.050018 -0.152296
v 0.279711 0.087332 -0.155691
v 0.281426 0.076171 -0.144439
v 0.268736 0.095466 -0.113105
v 0.274475 0.069747 -0.065033
v 0.270562 0.101215 -0.112436
v 0.283286 0.091785 -0.161800
v 0.276470 0.114619 -0.196465
v 0.246478 0.140908 -0.096474
v 0.156835 0.244598 -0.142290
v 0.217427 0.233414 -0.137348
v 0.156757 0.222144 -0.243976
v 0.217427 0.224150 -0.158314
v 0.229734 0.238326 -0.164576
v 0.345488 0.132464 -0.204350
v 0.300524 0.062105 -0.173263
v 0.282188 0.031505 -0.048134
v 0.281592 0.001966 -0.035082
v 0.339004 -0.048668 -0.012710
v -0.335931 0.118055 -0.086376
v -0.358506 0.072023 -0.011076
v -0.269805 0.162476 -0.106005
v -0.292903 0.177843 -0.112794
v -0.238620 0.230142 -0.135902
v -0.175166 0.272942 -0.154814
v -0.104981 0.304599 -0.168802
v -0.096702 0.279236 -0.157595
v -0.028335 0.297012 -0.165450
v -0.219802 0.201387 -0.148256
v -0.149292 -0.101149 0.177095
v 0.189649 0.007092 0.211282
v 0.189630 0.039795 0.209831
v 0.189608 0.072095 0.197869
v 0.189588 0.098860 0.177239
v 0.189571 0.115827 0.151267
v 0.189564 0.120250 0.130576
v -0.247781 -0.018029 0.118630
v -0.247783 -0.009696 0.128394
v -0.247793 -0.037849 0.232056
v -0.247808 -0.010045 0.239968
v -0.247790 -0.044218 0.229420
v -0.247771 -0.095352 0.190597
v -0.247780 -0.069176 0.214820
v -0.247777 -0.074983 0.210268
v -0.314574 -0.074675 0.210695
v -0.247769 -0.086152 0.216359
v -0.247758 -0.104842 0.216473
v -0.247760 -0.100961 0.220403
v -0.314556 -0.100617 0.220689
v -0.314562 -0.100529 0.201194
v -0.314555 -0.104605 0.216868
v -0.314576 -0.068732 0.215087
v -0.314587 -0.044663 0.229105
v -0.314572 -0.071613 0.226628
v -0.314580 -0.053250 0.237306
v -0.247771 -0.071985 0.242504
v -0.314568 -0.071663 0.242817
v -0.314569 -0.067287 0.245359
v -0.247773 -0.066848 0.245531
v -0.314590 -0.037359 0.232172
v -0.314598 -0.016830 0.249831
v -0.314587 -0.037281 0.244063
v -0.314588 -0.028431 0.261133
v -0.247789 -0.033687 0.259544
v -0.314585 -0.033302 0.259759
v -0.247792 -0.027865 0.261108
v -0.247811 -0.003227 0.240917
v -0.247811 0.007646 0.266525
v -0.314607 0.000308 0.252412
v -0.247828 0.025677 0.241685
v -0.247814 0.013605 0.266705
v -0.314619 0.021551 0.252917
v -0.247832 0.032526 0.240925
v -0.247850 0.060703 0.234463
v -0.247840 0.055271 0.261575
v -0.247836 0.049416 0.263006
v -0.314629 0.038793 0.251152
v -0.314642 0.059496 0.246358
v -0.314633 0.049844 0.262997
v -0.314636 0.054775 0.261853
v -0.314610 0.013126 0.266748
v -0.314608 0.008067 0.266630
v -0.314615 -0.010438 0.127797
v -0.314613 -0.018731 0.117473
v -0.314659 0.053570 0.100412
v -0.247936 0.173346 0.152052
v -0.247933 0.171391 0.157693
v -0.314732 0.173227 0.152528
v -0.314730 0.171549 0.157305
v -0.314745 0.181034 0.116611
v -0.314736 0.167097 0.122804
vn -1.0000 -0.0006 0.0003
vn 0.0021 0.4441 0.8960
vn -0.0049 -0.5384 0.8427
vn 0.0006 0.4604 0.8877
vn -0.0060 0.9990 0.0444
vn 1.0000 0.0006 -0.0003
vn 1.0000 0.0006 -0.0002
vn 0.0173 0.9984 -0.0533
vn 1.0000 0.0009 0.0003
vn -0.0085 0.9806 -0.1959
vn -0.0018 0.5656 0.8247
vn -0.0024 0.5611 0.8277
vn 1.0000 0.0010 0.0002
vn -0.0073 -0.5300 0.8480
vn 0.0182 -0.4033 0.9149
vn -0.0050 -0.3121 0.9500
vn 0.0020 0.6579 0.7531
vn 0.0010 0.6669 0.7451
vn -0.0060 0.9786 -0.2055
vn 0.0173 0.9538 -0.3001
vn -0.0085 0.9010 -0.4336
vn -1.0000 -0.0006 0.0002
vn -1.0000 -0.0007 0.0001
vn -0.0020 0.7530 0.6580
vn -1.0000 -0.0007 0.0002
vn 0.0060 -0.9056 -0.4241
vn -0.0060 0.2969 -0.9549
vn -1.0000 -0.0009 -0.0007
vn -1.0000 -0.0003 0.0004
vn -1.0000 -0.0006 0.0001
vn -1.0000 -0.0009 -0.0001
vn -1.0000 -0.0007 0.0006
vn 0.0069 0.3225 -0.9465
vn -0.0075 -0.0559 0.9984
vn -0.0026 0.8906 0.4548
vn -0.0021 0.8929 0.4502
vn 1.0000 0.0009 0.0008
vn 1.0000 0.0010 -0.0000
vn 1.0000 0.0040 0.0015
vn 0.0173 0.8492 -0.5279
vn -0.0085 0.7649 -0.6441
vn 0.0018 0.8243 0.5661
vn 0.0181 -0.1632 0.9864
vn -0.0051 -0.0660 0.9978
vn 0.0008 0.8313 0.5558
vn -0.0060 0.8968 -0.4424
vn -0.0074 -0.3027 0.9531
vn 1.0000 0.0010 0.0001
vn -0.0025 0.7498 0.6617
vn 1.0000 0.0014 0.0014
vn -0.0006 0.9277 -0.3732
vn 1.0000 0.0009 0.0014
vn 0.9992 0.0403 0.0077
vn 1.0000 0.0084 0.0025
vn -0.0000 0.4042 0.9147
vn 0.0001 0.4043 0.9146
vn 1.0000 0.0004 0.0021
vn 1.0000 0.0005 0.0019
vn 1.0000 0.0002 -0.0004
vn 1.0000 0.0002 -0.0003
vn 0.0042 -0.8793 0.4763
vn -0.0027 -0.9882 0.1529
vn 1.0000 -0.0019 0.0011
vn 0.0057 -0.8826 0.4700
vn 1.0000 -0.0012 0.0014
vn -0.0065 -0.7272 0.6864
vn 1.0000 -0.0004 0.0018
vn 0.0113 -0.6295 0.7769
vn -0.0102 -0.4329 0.9014
vn -1.0000 -0.0003 -0.0001
vn -1.0000 -0.0004 -0.0002
vn 0.0111 -0.2838 0.9588
vn -1.0000 -0.0007 -0.0005
vn -0.0104 -0.0546 0.9985
vn 0.0108 0.1035 0.9946
vn -0.0106 0.3297 0.9440
vn 1.0000 0.0022 0.0042
vn 1.0000 0.0004 0.0025
vn 1.0000 0.0029 0.0050
vn 1.0000 0.0028 0.0022
vn -0.0108 0.6660 0.7459
vn 0.0106 0.4758 0.8795
vn 1.0000 0.0028 0.0008
vn 0.0103 0.7747 0.6322
vn -0.0110 0.9001 0.4356
vn 1.0000 0.0030 -0.0001
vn 0.0066 0.9495 0.3137
vn -0.0042 0.9983 0.0579
vn -0.0056 0.9987 0.0510
vn -1.0000 -0.0012 0.0001
vn -1.0000 -0.0012 0.0002
vn -0.8802 -0.4702 -0.0647
vn -1.0000 -0.0006 -0.0004
vn -0.0000 -0.4042 -0.9147
vn -1.0000 -0.0011 -0.0002
vn -1.0000 -0.0012 -0.0012
vn -1.0000 -0.0011 -0.0008
vn -0.9999 0.0125 -0.0021
vn 0.0020 -0.7969 0.6041
vn 0.0007 -0.7768 0.6297
vn -0.0177 0.1161 0.9931
vn 0.0080 0.2571 0.9664
vn -0.0053 -0.8496 0.5275
vn -0.0014 0.0479 0.9989
vn -1.0000 0.0040 -0.0030
vn -1.0000 0.0028 -0.0013
vn 0.0140 -0.9500 0.3119
vn 0.0006 -0.9483 0.3174
vn -0.0052 0.4104 0.9119
vn -0.0066 0.4062 0.9138
vn -0.0084 0.4109 0.9116
vn -1.0000 -0.0015 -0.0017
vn 0.4954 -0.7946 0.3511
vn 0.4974 -0.8044 0.3249
vn -0.9999 0.0079 0.0089
vn 0.0001 0.4041 0.9147
vn -0.0003 0.4045 0.9146
vn -0.0004 0.9145 -0.4045
vn -0.0000 0.4039 0.9148
vn 0.0005 -0.4590 0.8885
vn -1.0000 0.0032 -0.0071
vn -0.0011 0.9147 -0.4042
vn -1.0000 0.0084 -0.0037
vn -0.0012 0.9983 0.0578
vn -0.0000 0.9553 -0.2956
vn -0.0015 0.9987 0.0509
vn -0.9999 0.0120 -0.0036
vn -0.9999 0.0036 0.0102
vn -0.9999 0.0129 0.0009
vn 0.0008 0.9495 0.3137
vn -0.9999 0.0104 0.0041
vn 0.0017 0.7749 0.6321
vn -0.0024 0.9001 0.4357
vn -0.9999 0.0085 0.0077
vn 0.0019 0.4759 0.8795
vn -0.0021 0.6661 0.7459
vn -0.9999 0.0069 0.0140
vn -0.9998 0.0065 0.0166
vn -0.9999 0.0010 0.0128
vn -0.0019 0.3298 0.9440
vn 0.0022 0.1035 0.9946
vn 1.0000 0.0005 -0.0006
vn 1.0000 0.0006 -0.0005
vn -0.0017 -0.0548 0.9985
vn 1.0000 0.0010 -0.0002
vn -0.0015 -0.4329 0.9014
vn 0.0024 -0.2838 0.9589
vn 1.0000 0.0025 0.0004
vn 1.0000 0.0010 -0.0014
vn 0.9998 0.0082 -0.0166
vn 0.0025 -0.6294 0.7771
vn -0.0007 -0.7272 0.6864
vn -0.9999 -0.0133 0.0096
vn -0.9999 -0.0090 0.0097
vn -0.9999 -0.0125 0.0068
vn 0.0013 -0.8793 0.4762
vn 0.0016 -0.8827 0.4699
vn -0.9999 -0.0120 0.0022
vn -0.9999 -0.0117 0.0017
vn -0.0000 -0.9883 0.1528
vn 0.0010 -0.9924 0.1234
vn -0.9999 -0.0102 -0.0016
vn -1.0000 -0.0088 -0.0036
vn -0.9999 -0.0111 -0.0017
vn 0.0002 -0.9900 -0.1409
vn 0.0017 -0.9843 -0.1763
vn -1.0000 -0.0073 -0.0062
vn -0.9999 -0.0102 -0.0049
vn -0.0009 -0.9168 -0.3993
vn 0.0014 -0.9056 -0.4241
vn -1.0000 0.0022 -0.0097
vn -0.9999 -0.0027 -0.0110
vn -0.9999 -0.0055 -0.0102
vn 0.0009 0.3225 -0.9466
vn -0.0014 0.2969 -0.9549
vn -1.0000 0.0009 -0.0094
vn -0.9999 0.0056 -0.0086
vn -0.0002 0.5613 -0.8276
vn -0.0016 0.5314 -0.8471
vn -1.0000 0.0045 -0.0086
vn -0.9999 0.0084 -0.0067
vn -0.0010 0.7608 -0.6490
vn -0.0000 0.7797 -0.6261
vn -0.0013 0.9444 -0.3288
vn -0.0039 -0.4580 0.8890
vn -0.0004 -0.4724 0.8814
vn 0.0002 -0.5329 0.8462
vn 0.0016 -0.5008 0.8656
vn 0.0005 -0.4601 0.8879
vn -0.0000 -0.4041 -0.9147
vn 0.0006 -0.9147 0.4042
vn -0.0001 -0.4041 -0.9147
vn 1.0000 -0.0020 0.0007
vn 1.0000 -0.0018 0.0008
vn -0.9551 -0.2737 0.1137
vn 0.0001 0.4044 0.9146
vn -0.0002 0.4038 0.9149
vn -1.0000 -0.0037 0.0091
vn -0.9749 -0.2062 0.0840
vn -0.9111 -0.3745 0.1723
vn -0.9984 -0.0495 0.0282
vn -0.9968 -0.0688 0.0416
vn -0.6161 -0.6558 -0.4364
vn -0.7671 -0.4334 -0.4731
vn -0.7490 -0.3208 -0.5797
vn -0.8909 -0.4183 0.1770
vn -0.6839 -0.6423 0.3460
vn -0.8247 -0.5163 0.2309
vn -0.5385 -0.7719 -0.3379
vn -0.3676 -0.8668 -0.3369
vn -0.5430 -0.7690 0.3373
vn -0.4875 -0.7944 0.3623
vn -0.2312 -0.9381 -0.2581
vn 0.0099 -0.9522 -0.3054
vn -0.2841 -0.8796 0.3815
vn -0.1101 -0.9120 0.3951
vn 0.0119 -0.9081 0.4185
vn 0.4152 -0.8392 0.3512
vn -0.0002 0.4044 0.9146
vn 0.0001 -0.4042 -0.9147
vn -0.1584 -0.9005 0.4051
vn 0.2693 -0.8839 0.3824
vn -0.0000 0.4040 0.9147
vn -0.0000 0.4041 0.9147
vn 0.2584 -0.8861 0.3848
vn -0.3218 -0.8695 0.3747
vn -0.5804 -0.7411 0.3374
vn -0.7748 -0.5820 0.2469
vn -0.0001 0.4041 0.9147
vn -0.0000 0.4043 0.9146
vn -0.0000 0.4040 0.9148
vn -0.0001 0.4042 0.9147
vn -0.7469 -0.6082 0.2687
vn -0.9493 0.2876 -0.1271
vn -0.2023 0.8958 -0.3958
vn 0.7469 0.6082 -0.2687
vn 0.0001 0.4042 0.9147
vn 0.9493 -0.2876 0.1271
vn 0.9180 -0.3581 0.1702
vn 0.7745 -0.5841 0.2427
vn 0.9986 0.0449 -0.0275
vn 1.0000 -0.0028 0.0036
vn 0.8435 0.4929 -0.2133
vn 0.8833 0.4267 -0.1939
vn 0.5435 0.7677 -0.3396
vn -0.0001 -0.4040 -0.9148
vn 0.6074 0.7230 -0.3290
vn 0.8230 0.5186 -0.2316
vn 0.7845 0.5713 -0.2412
vn 0.7463 -0.0908 -0.6594
vn 0.7467 -0.0799 -0.6603
vn 0.6050 0.1787 -0.7759
vn 0.9711 0.2193 -0.0945
vn 0.9836 0.1609 -0.0820
vn 0.9885 -0.1325 0.0732
vn 0.7697 -0.3610 -0.5265
vn 0.7626 -0.3747 -0.5272
vn 0.6335 -0.6411 -0.4332
vn 0.9156 -0.3771 0.1397
vn 0.8380 -0.4933 0.2331
vn 0.3402 -0.8783 -0.3360
vn 0.5955 -0.7247 -0.3467
vn 0.4551 -0.8163 0.3558
vn 0.2045 -0.9465 -0.2497
vn -0.0000 -0.4043 -0.9146
vn 0.0001 -0.4041 -0.9147
vn 0.0001 -0.4043 -0.9146
vn 0.1732 -0.8924 0.4166
vn 0.8941 0.2436 -0.3758
vn 0.8941 0.2435 -0.3758
vn 0.0001 -0.4038 -0.9148
vn -0.8941 -0.2435 0.3758
vn -0.9524 -0.0634 0.2981
vn 0.9708 -0.1130 -0.2114
vn 0.9704 -0.2145 -0.1109
vn -0.0429 0.4195 -0.9067
vn 0.9524 0.0634 -0.2981
vn 0.0037 0.9147 -0.4042
vn 0.0027 0.3867 -0.9222
vn 0.9998 -0.0169 0.0075
vn -0.4024 -0.8373 0.3700
vn 0.8353 -0.5029 0.2222
vn -0.4025 -0.8373 0.3700
vn 0.7252 -0.6298 0.2783
vn 0.7496 0.6054 -0.2675
vn -0.8753 -0.4424 0.1955
vn 0.4423 -0.8204 0.3625
vn 0.2734 -0.8798 0.3888
vn 0.2734 -0.8798 0.3887
vn 0.0895 -0.9110 0.4025
vn -0.4053 -0.8362 0.3695
vn 0.0235 -0.4066 -0.9133
vn -0.1958 -0.9726 0.1257
vn -0.3573 -0.9279 -0.1062
vn -0.9727 -0.2264 0.0507
vn -0.9673 0.2307 -0.1057
vn 0.0218 -0.4093 -0.9121
vn -0.9479 0.2821 -0.1480
vn 0.0117 0.9764 -0.2156
vn 0.0455 0.9137 -0.4037
vn 0.1039 0.9641 -0.2442
vn 0.2990 0.9318 -0.2060
vn 0.2989 0.9318 -0.2060
vn -0.0885 0.9613 -0.2610
vn 0.1042 0.9607 -0.2574
vn 0.3007 0.9237 -0.2376
vn -0.7496 -0.6055 0.2675
vn 0.6619 -0.6856 0.3029
vn 0.7496 0.6055 -0.2675
vn -0.0000 0.4049 0.9144
vn -0.6619 0.6856 -0.3030
vn 0.6844 0.6817 -0.2585
vn 0.9079 0.3781 -0.1809
vn 0.6086 0.7242 -0.3244
vn 0.5495 0.7663 -0.3329
vn 0.0001 -0.4044 -0.9146
vn 0.9128 0.3736 -0.1650
vn 0.9080 0.3827 -0.1705
vn 0.9913 -0.1230 0.0458
vn 0.9996 0.0286 -0.0085
vn -0.0002 0.4043 0.9146
vn -0.0001 0.4040 0.9148
vn -0.9988 -0.0390 0.0292
vn -0.9815 -0.1776 0.0713
vn -0.8831 0.4262 -0.1963
vn -0.0001 -0.4042 -0.9147
vn -0.8399 0.4977 -0.2166
vn -0.4305 0.8262 -0.3633
vn -0.4687 0.8069 -0.3595
vn 0.0041 0.9139 -0.4059
vn 0.0150 0.9144 -0.4046
vn -0.7517 -0.6037 0.2656
vn -0.1628 -0.9050 0.3929
vn -0.2097 -0.8946 0.3947
vn -0.7215 -0.6311 0.2848
vn -0.0002 -0.4041 -0.9147
vn 0.0002 -0.4041 -0.9147
vn -0.6649 0.6832 -0.3019
vn 0.7470 0.6081 -0.2687
vn 0.9583 -0.2607 0.1172
vn 0.7177 -0.6348 0.2863
vn 0.7710 -0.5836 0.2549
vn 0.4084 -0.8376 0.3628
vn 0.7491 0.6060 -0.2678
vn -1.0000 -0.0001 0.0001
vn 0.0006 -0.6504 0.7596
vn -0.0006 0.9147 -0.4042
vn -0.7036 0.6500 -0.2872
vn -0.8060 0.5415 -0.2392
vn -0.9995 -0.0134 -0.0273
vn -0.0006 0.9556 -0.2948
vn -0.0006 0.9556 -0.2947
vn 0.2023 -0.8958 0.3958
vn 0.2459 -0.8839 0.3978
vn 0.8122 -0.0203 -0.5831
vn 0.6528 0.2008 -0.7305
vn 0.9713 0.2217 -0.0866
vn 0.8107 -0.0412 -0.5841
vn 0.8064 0.5417 -0.2372
vn 0.5592 0.3679 -0.7429
vn 0.3953 0.4046 -0.8246
vn 0.5114 0.7850 -0.3497
vn 0.4889 0.7995 -0.3489
vn -0.0095 0.5049 -0.8631
vn 0.1414 0.5420 -0.8284
vn -0.0152 0.9127 -0.4083
vn -0.0105 0.9122 -0.4097
vn -0.2100 0.5181 -0.8292
vn -0.3436 0.4388 -0.8303
vn -0.4227 0.8331 -0.3568
vn -0.5037 0.3881 -0.7718
vn -0.5995 0.2674 -0.7544
vn -0.5430 0.7623 -0.3523
vn -0.7372 0.6221 -0.2636
vn -0.7637 0.0185 -0.6453
vn -0.7405 0.1461 -0.6560
vn -0.8593 0.4619 -0.2195
vn -0.9396 0.3182 -0.1260
vn -0.8337 -0.2559 -0.4893
vn -0.9998 0.0097 -0.0151
vn -0.9990 -0.0390 0.0194
vn -0.7194 -0.5729 -0.3927
vn -0.7933 -0.4615 -0.3971
vn -0.8186 -0.2221 -0.5296
vn -0.9026 -0.3948 0.1716
vn -0.8911 -0.4134 0.1870
vn -0.5788 -0.7777 -0.2453
vn -0.4426 -0.8579 -0.2609
vn -0.5156 -0.7858 0.3416
vn -0.5468 -0.7731 0.3215
vn -0.1177 -0.8986 0.4228
vn -0.2749 -0.9439 -0.1832
vn -0.0963 -0.9726 -0.2114
vn 0.0483 -0.9857 -0.1613
vn 0.1748 -0.9122 0.3706
vn 0.3218 -0.9204 -0.2219
vn 0.3924 -0.8349 0.3860
vn 0.6964 -0.6604 0.2810
vn 0.7603 -0.5905 0.2708
vn 0.3605 -0.9085 -0.2112
vn 0.6280 -0.7192 -0.2974
vn 0.9359 -0.3276 0.1294
vn 0.8033 -0.4445 -0.3963
vn 0.6132 -0.7304 -0.3010
vn 0.7989 -0.3720 -0.4727
vn 0.9827 -0.1634 0.0872
vn 0.0002 -0.4045 -0.9145
vn -0.0002 -0.4043 -0.9146
vn 0.0010 -0.4038 -0.9148
vn 0.4913 0.8475 -0.2011
vn 0.6640 0.7328 -0.1487
vn 0.8069 0.5848 -0.0831
vn 0.8069 0.5849 -0.0831
vn 0.9106 0.4133 -0.0086
vn 0.9707 0.2298 0.0700
vn 0.9879 0.0456 0.1482
vn 0.9660 -0.1306 0.2229
vn 0.0002 0.4041 0.9147
vn 0.9105 -0.2930 0.2919
vn 0.8262 -0.4381 0.3541
vn 0.7174 -0.5640 0.4088
vn 0.7177 -0.5632 0.4094
vn 0.5807 -0.6810 0.4462
vn 0.5870 -0.6687 0.4563
vn -0.0778 -0.9119 0.4029
vn 0.5935 -0.7362 0.3253
vn -0.0168 -0.9146 0.4041
vn -0.1881 -0.7853 0.5898
vn -0.2551 -0.8272 0.5007
vn 0.3108 -0.8006 0.5123
vn 0.3031 -0.8096 0.5027
vn 0.0043 0.9147 -0.4042
vn -1.0000 0.0003 -0.0002
vn 0.0043 0.9147 -0.4041
vn -0.0043 -0.9147 0.4042
vn -0.0036 -0.4056 -0.9141
vn 0.0004 -0.4018 -0.9157
vn -0.0002 -0.4042 -0.9147
vn -0.8359 0.4674 0.2877
vn -0.9497 -0.2864 0.1266
vn -0.3133 0.8686 -0.3838
vn -0.8847 -0.3372 -0.3218
vn -0.7460 -0.6274 0.2233
vn -0.9897 -0.0570 0.1315
vn 0.0338 0.9142 -0.4039
vn -0.1027 0.9099 -0.4020
vn -0.0481 0.9136 -0.4037
vn -0.3650 0.8516 -0.3763
vn 0.4495 0.8171 -0.3610
vn 0.0004 -0.4043 -0.9146
vn -0.0003 -0.4038 -0.9148
vn -0.7831 0.5688 -0.2513
vn -0.4522 -0.8158 0.3605
vn 0.3337 -0.8623 0.3810
vn -0.5096 -0.7075 0.4897
vn -0.5096 -0.7075 0.4896
vn -0.0762 -0.8416 0.5347
vn -0.0667 -0.8356 0.5453
vn 0.0003 0.4041 0.9147
vn -0.1045 0.9108 -0.3994
vn 0.1011 0.9078 -0.4071
vn 0.1804 0.9003 -0.3961
vn 0.0002 -0.4046 -0.9145
vn -0.2021 0.8919 -0.4047
vn -0.0796 0.9170 -0.3909
vn -0.0001 -0.4043 -0.9146
vn 0.2167 0.8877 -0.4063
vn -0.0605 0.4448 -0.8936
vn 0.2758 0.4050 -0.8717
vn 0.2849 0.3954 -0.8732
vn 0.3713 0.8556 -0.3605
vn -0.0002 -0.4046 -0.9145
vn -0.2504 0.8871 -0.3878
vn -0.4446 0.2829 -0.8499
vn -0.3396 0.3893 -0.8562
vn -0.0443 0.4377 -0.8980
vn -0.5939 0.7391 -0.3178
vn -0.5820 0.7453 -0.3252
vn -0.9119 0.3756 -0.1653
vn 0.0001 0.4047 0.9145
vn 0.0001 -0.4040 -0.9148
vn -0.6192 0.7198 -0.3139
vn -0.8483 0.4834 -0.2163
vn -0.9295 0.3392 -0.1445
vn -0.4770 0.7994 -0.3654
vn -0.4737 0.8012 -0.3658
vn -0.5831 0.2229 -0.7813
vn -0.7073 -0.0040 -0.7069
vn -0.9285 0.3413 -0.1462
vn -0.0000 -0.4038 -0.9149
vn -0.7461 -0.0434 -0.6644
vn 0.4298 -0.7187 0.5466
vn 0.3838 -0.7848 0.4865
vn 0.0107 -0.7907 0.6121
vn 0.0398 -0.9140 0.4038
vn 0.1019 -0.9099 0.4021
vn 0.0399 -0.9140 0.4038
vn 0.0021 -0.7982 0.6024
vn -0.6637 -0.6020 0.4439
vn -0.8066 -0.4541 0.3784
vn -0.9103 -0.2838 0.3013
vn -0.9705 -0.1025 0.2181
vn -0.9677 0.1822 0.1745
vn -0.9998 0.0169 -0.0075
vn -0.9878 0.0792 0.1341
vn -0.9660 0.2528 0.0536
vn -0.0000 -0.4040 -0.9148
vn 0.6007 0.1927 -0.7759
vn 0.1020 -0.9099 0.4020
vn -0.6445 -0.1018 -0.7578
vn -0.6649 0.6832 -0.3018
vn -0.4099 0.0839 0.9083
vn 0.4099 0.6150 0.6736
vn -0.6645 0.6832 -0.3027
vn -0.6649 0.6829 -0.3025
vn -0.6652 0.6826 -0.3025
vn -0.6653 0.6827 -0.3023
vn -0.6654 0.6827 -0.3018
vn -0.6656 0.6826 -0.3016
vn 0.8161 0.5286 -0.2336
vn 0.8161 0.5287 -0.2336
vn 0.4099 -0.0839 -0.9083
vn -0.6653 0.6833 -0.3009
vn -0.6654 0.6829 -0.3014
vn 0.4100 -0.0839 -0.9082
vn -0.4099 -0.6150 -0.6736
vn -0.6652 0.6827 -0.3024
vn -0.6667 0.6713 -0.3238
vn -0.6553 0.6819 -0.3249
vn -0.7209 0.5622 -0.4053
vn -0.7532 0.5065 -0.4198
vn -0.7086 0.5671 -0.4199
vn -0.6654 0.6827 -0.3019
vn 0.1176 0.9079 -0.4023
vn -0.7208 0.5814 -0.3774
vn -0.2477 0.1639 -0.9549
vn 0.3309 -0.1293 -0.9348
vn -0.2287 -0.5509 -0.8026
vn -0.6121 0.6808 -0.4024
vn -0.7469 -0.6081 0.2688
vn 0.5902 -0.7384 0.3263
vn 0.7413 0.5938 -0.3127
vn 0.7995 0.5611 -0.2143
vn 0.7282 -0.5652 0.3876
vn 0.6318 -0.5605 0.5354
vn 0.4747 -0.7777 0.4121
vn 0.7274 -0.5656 0.3885
vn 0.5937 -0.6773 0.4345
vn 0.6317 -0.6432 0.4327
vn 0.6853 -0.5993 0.4137
vn -0.5790 -0.0800 0.8114
vn -0.7793 -0.4084 0.4753
vn 0.6703 -0.5773 0.4663
vn -0.7988 -0.4426 0.4075
vn -0.7855 -0.6183 -0.0252
vn -0.6644 0.6836 -0.3023
vn -0.6642 0.6838 -0.3021
vn -0.7477 -0.6509 -0.1313
vn -0.6644 0.6837 -0.3018
vn -0.8161 -0.5287 0.2336
vn -0.4100 -0.6150 -0.6736
vn -0.6645 0.6838 -0.3013
vn -0.5744 -0.6512 -0.4960
vn -0.3411 -0.5972 -0.7260
vn -0.6646 0.6838 -0.3013
vn -0.6650 0.6834 -0.3012
vn 0.1984 -0.2693 -0.9424
vn -0.2405 -0.5356 -0.8095
vn 0.3173 -0.1365 -0.9384
vn 0.6514 -0.6296 0.4234
vn 0.6079 -0.6602 0.4412
vn 0.7015 0.2617 -0.6629
vn 0.5621 -0.6288 0.5372
vn 0.7527 0.3857 -0.5336
vn 0.5427 -0.6867 0.4837
vn 0.8011 0.5972 -0.0399
vn 0.7251 0.6665 0.1735
vn 0.5261 -0.7033 0.4780
vn 0.5710 -0.6872 0.4491
vn 0.6947 -0.5787 0.4272
vn 0.6416 -0.5796 0.5024
vn -0.4172 0.0570 0.9070
vn -0.0793 0.3626 0.9286
vn 0.3287 0.5980 0.7310
vn 0.0730 0.4480 0.8910
vn 0.5215 0.6460 0.5575
vn -0.6699 0.6737 -0.3121
vn -0.9207 0.3570 -0.1577
vn -0.9207 0.3570 -0.1578
vn -0.4024 -0.8374 0.3700
vn 0.9773 -0.1939 0.0857
vn 0.9207 -0.3570 0.1578
vn 0.9585 0.0095 0.2850
vn 0.0893 -0.9256 -0.3679
vn 0.9368 0.2742 0.2172
vn 0.9366 0.2831 0.2065
vn 0.1288 -0.9333 -0.3351
vn 0.9368 0.2829 0.2059
vn 0.9376 0.2856 0.1984
vn 0.9354 0.2343 0.2647
vn 0.9373 0.2825 0.2042
vn 0.9371 0.2764 0.2130
vn -0.1297 0.6754 -0.7260
vn -0.1564 0.9413 -0.2991
vn -0.1208 0.9925 0.0205
vn -0.9221 -0.3280 -0.2053
vn -0.9174 -0.3610 -0.1675
vn -0.9234 -0.3489 -0.1602
vn -0.1476 0.7340 -0.6629
vn -0.0525 0.7239 0.6879
vn -0.0641 0.7512 0.6570
vn -0.9188 -0.3204 -0.2305
vn -0.1245 0.9654 0.2292
vn 0.0246 0.2451 0.9692
vn -0.9392 -0.2890 -0.1853
vn -0.9300 -0.3179 -0.1848
vn 0.0878 -0.1973 0.9764
vn 0.0250 0.2346 0.9718
vn -0.9359 -0.3029 -0.1799
vn -0.9330 -0.3173 -0.1699
vn -0.9300 -0.3216 -0.1779
vn 0.1381 -0.6632 0.7356
vn 0.0890 -0.2402 0.9666
vn 0.9334 0.2910 0.2100
vn 0.1336 -0.7508 0.6469
vn 0.9325 0.2938 0.2101
vn 0.9385 0.2767 0.2064
vn 0.1193 -0.9899 -0.0769
vn 0.1573 -0.9265 0.3417
vn 0.9404 0.2659 0.2121
vn -0.9313 -0.2986 -0.2087
vn -0.9318 -0.3152 -0.1799
vn -0.9229 -0.3349 -0.1899
vn 0.1237 -0.9744 -0.1878
vn 0.0790 -0.7979 -0.5976
vn -0.9315 -0.2989 -0.2074
vn 0.0068 -0.3625 -0.9319
vn -0.9472 -0.2773 -0.1611
vn -0.9412 -0.2968 -0.1611
vn 0.0321 -0.6644 -0.7467
vn 0.9367 0.2881 0.1988
vn -0.0788 0.0169 -0.9967
vn 0.9356 0.2981 0.1892
vn -0.1042 0.2412 -0.9649
vn -0.9349 -0.3286 -0.1338
vn 0.0977 -0.6827 -0.7241
vn -0.0940 0.2379 -0.9667
vn -0.9292 -0.3202 -0.1848
vn 0.1031 -0.6845 -0.7216
vn -0.9309 -0.3117 -0.1903
vn -0.9316 -0.3117 -0.1871
vn -0.4574 -0.8871 0.0619
vn -0.5102 -0.4201 0.7505
vn -0.5039 -0.8630 0.0350
vn -0.9346 -0.3052 -0.1826
vn -0.5813 -0.5247 -0.6220
vn 0.0108 -0.6820 -0.7313
vn -0.9329 -0.3102 -0.1830
vn -0.9332 -0.3120 -0.1780
vn -0.1018 0.6795 0.7266
vn -0.2072 0.9497 -0.2348
vn -0.2027 0.9501 -0.2373
vn -0.9296 -0.3175 -0.1869
vn -0.0977 0.6827 0.7242
vn 0.0964 -0.2514 0.9631
vn -0.9300 -0.3163 -0.1872
vn -0.9333 -0.3159 -0.1711
vn 0.1042 -0.2411 0.9649
vn -0.9297 -0.3223 -0.1781
vn -0.9311 -0.3159 -0.1825
vn 0.2026 -0.9518 0.2304
vn -0.9300 0.2661 0.2534
vn -0.9942 -0.0728 0.0798
vn -0.9007 0.3204 -0.2933
vn -0.9310 -0.3159 -0.1826
vn -0.9007 0.3204 -0.2934
vn -0.8737 -0.4672 -0.1359
vn -0.8703 -0.4731 -0.1367
vn -0.8707 -0.4398 -0.2201
vn -0.2713 0.9077 -0.3200
vn -0.0002 -0.4037 -0.9149
vn 0.0001 -0.4045 -0.9145
vn 0.7831 -0.5688 0.2513
vn -0.1941 -0.9579 0.2117
vn -0.4754 -0.8047 0.3555
vn 0.6911 -0.5433 -0.4767
vn 0.5583 -0.6889 -0.4623
vn 0.5400 0.8218 -0.1819
vn 0.4976 0.7934 -0.3506
vn -0.2990 -0.9318 0.2060
vn -0.8784 -0.4599 -0.1302
vn -0.8526 -0.3429 -0.3944
vn 0.8751 0.4630 0.1407
vn -0.0164 0.1074 -0.9941
vn -0.7993 -0.1550 -0.5806
vn -0.9352 -0.2828 -0.2130
vn -0.8497 -0.4788 0.2207
vn 0.0001 -0.4039 -0.9148
vn -0.9584 -0.0989 -0.2676
vn -0.9615 -0.0809 -0.2625
vn -0.9636 0.0676 -0.2588
vn -0.9406 -0.2799 -0.1923
vn -0.9451 -0.2475 -0.2133
vn 0.2072 -0.9497 0.2348
vn -0.9371 -0.3259 -0.1250
vn -0.0876 0.2917 -0.9525
vn 0.9320 0.2952 0.2103
vn -0.3695 -0.8500 0.3756
vn -0.4541 0.0507 0.8895
vn -0.8510 0.4804 -0.2122
vn -0.0003 -0.4043 -0.9146
vn 1.0000 -0.0059 0.0026
vn 0.9995 0.0230 -0.0210
vn -0.9105 0.4130 -0.0205
vn -0.8263 0.5565 -0.0865
vn -0.7176 0.6816 -0.1432
vn -0.5873 0.7868 -0.1899
vn -0.4376 0.8704 -0.2258
vn -0.2734 0.8798 -0.3887
vn -0.4423 0.8204 -0.3625
vn -0.0895 0.9110 -0.4025
vn -0.2704 0.9297 -0.2500
vn -0.7252 0.6298 -0.2783
vn -0.8353 0.5029 -0.2222
vn 0.0002 -0.4044 -0.9146
vn 0.5322 0.7736 -0.3439
vn 0.5983 -0.7298 0.3308
vn -0.0000 0.4075 0.9132
vn -0.0004 0.4060 0.9139
vn 0.0008 0.4048 0.9144
vn -0.9359 0.3189 -0.1496
vn -0.0013 0.4045 0.9145
vn -0.0022 0.4040 0.9147
vn -0.0010 0.4033 0.9151
vn 0.0005 0.4019 0.9157
vn -0.0004 0.4021 0.9156
vn 0.0002 0.4039 0.9148
vn -0.9958 0.0830 -0.0386
vn 0.0004 0.4050 0.9143
vn 0.0006 -0.9146 0.4043
vn 1.0000 0.0007 -0.0004
vn 0.0001 -0.4837 0.8752
vn 0.0030 -0.2843 0.9587
vn 0.0038 0.0443 0.9990
vn -0.0034 -0.1594 0.9872
vn -0.0034 0.1743 0.9847
vn 0.0035 0.3473 0.9378
vn -0.0035 0.4595 0.8882
vn 0.0034 0.6105 0.7920
vn -0.0038 0.7088 0.7054
vn 0.0034 0.8372 0.5469
vn 0.0009 0.9814 0.1919
vn -0.0001 0.9779 0.2090
vn -0.0029 0.8994 0.4371
vn -0.0076 0.9955 -0.0946
vn -0.0004 0.9864 -0.1645
vn 0.0005 -0.4590 0.8884
vn -1.0000 0.0040 -0.0080
vn -0.9999 -0.0031 0.0109
vn 1.0000 -0.0007 -0.0017
vn 1.0000 0.0023 -0.0030
vn 1.0000 0.0018 -0.0041
vn 1.0000 0.0038 -0.0014
vn 1.0000 0.0035 -0.0016
vn 1.0000 0.0029 -0.0022
vn 1.0000 0.0032 0.0017
vn 1.0000 -0.0020 0.0060
vn 1.0000 -0.0011 0.0055
vn 1.0000 -0.0035 0.0067
vn 0.9996 0.0075 0.0281
vn 1.0000 -0.0060 0.0065
vn 1.0000 -0.0049 0.0067
vn 0.0022 -0.6169 0.7870
vn 0.0078 0.4788 0.8779
vn -0.0174 0.3594 0.9330
vn 0.0055 0.2634 0.9647
vn 0.0018 -0.6917 0.7221
vn -0.0007 -0.7115 0.7027
vn -0.0049 -0.9678 -0.2517
vn -1.0000 0.0008 -0.0035
vn -0.0074 -0.8794 -0.4760
vn 0.0181 -0.9387 -0.3443
vn -0.9999 0.0065 -0.0093
vn -0.0007 -0.5943 0.8042
vn -1.0000 0.0024 -0.0048
vn -0.0074 -0.9702 -0.2422
vn 0.0185 -0.9947 -0.1009
vn -0.0048 -1.0000 -0.0031
vn 0.0011 -0.5024 0.8646
vn 0.0016 -0.5077 0.8616
vn 0.0178 0.5799 0.8145
vn -0.0055 0.4976 0.8674
vn -0.0080 0.6907 0.7231
vn -1.0000 0.0006 -0.0025
vn -0.0018 -0.3824 0.9240
vn -0.0012 -0.3872 0.9220
vn -1.0000 -0.0001 -0.0016
vn -0.0073 -1.0000 0.0066
vn 0.0185 -0.9886 0.1497
vn -1.0000 -0.0005 0.0003
vn -0.0048 -0.9693 0.2457
vn 0.0015 -0.2715 0.9624
vn 0.0026 -0.2594 0.9658
vn -0.0057 0.6978 0.7163
vn 0.0175 0.7645 0.6444
vn -0.0082 0.8488 0.5286
vn -0.0047 -0.8225 0.5688
vn 1.0000 0.0005 0.0003
vn -0.0019 -0.1379 0.9904
vn 1.0000 0.0006 0.0003
vn -0.0011 -0.1454 0.9894
vn 0.0185 -0.9203 0.3908
vn -0.0073 -0.9669 0.2550
vn 1.0000 0.0007 0.0003
vn 0.0174 0.9005 0.4345
vn -0.0083 0.9536 0.3010
vn -0.0021 0.1103 0.9939
vn 0.0185 -0.7942 0.6074
vn -0.0073 -0.8731 0.4875
vn -0.0015 0.1053 0.9944
vn -0.0048 -0.7312 0.6822
vn 0.0013 0.2259 0.9741
vn 0.0023 0.2375 0.9714
vn -0.0059 0.9566 0.2914
vn 0.0173 0.9804 0.1964
vn -0.0084 0.9985 0.0543
vn -0.0022 0.3537 0.9353
vn 1.0000 0.0008 0.0003
vn -0.0058 0.8540 0.5202
vn 0.0009 -0.0301 0.9995
vn 0.0014 -0.0234 0.9997
vn -0.0048 -0.8778 0.4790
vn -0.0026 0.7607 -0.6491
vn -0.0067 0.5313 -0.8471
vn 0.0012 0.5613 -0.8276
vn -1.0000 -0.0008 0.0004
vn 0.0027 0.7796 -0.6262
vn -1.0000 -0.0007 0.0005
vn -0.0042 0.9444 -0.3289
vn -1.0000 -0.0009 0.0004
vn 0.0030 0.9553 -0.2956
vn -0.9991 0.0092 0.0403
vn -1.0000 -0.0000 -0.0001
vn -1.0000 -0.0003 0.0001
vn 0.0026 -0.9923 0.1235
vn -1.0000 -0.0003 0.0002
vn -1.0000 -0.0003 0.0003
vn 0.0068 -0.9843 -0.1763
vn -0.0011 -0.9900 -0.1408
vn -0.0070 -0.9168 -0.3992
vn -0.0000 0.9807 0.1954
vn -0.0022 0.9765 0.2155
vn 0.0173 0.6912 -0.7225
vn -0.0084 0.5806 -0.8141
vn -0.0060 0.7586 -0.6515
vn 0.0003 0.9449 0.3275
vn 0.0007 0.9435 0.3314
vn -0.0053 0.1843 0.9829
vn 0.0180 0.0877 0.9960
vn 0.0020 0.2056 0.9786
vn -0.0026 0.4060 0.9139
vn 0.0024 0.4257 0.9049
vn -0.0026 0.2291 0.9734
vn -1.0000 -0.0010 -0.0006
vn -1.0000 -0.0008 -0.0006
vn -0.0011 0.9280 -0.3726
vn -0.0073 -0.7244 0.6893
vn -0.0017 0.3491 0.9371
vn 0.0184 -0.6184 0.7857
s 0
usemtl Material.025
f 2//1 4//1 1//1
f 6//1 2//1 1//1
f 3//2 5//2 1//2
f 4//3 3//3 1//3
f 5//4 6//4 1//4
f 5//5 2//5 6//5
f 8//6 5//6 7//6
f 3//7 7//7 5//7
f 5//8 8//8 2//8
f 8//9 7//9 9//9
f 12//9 8//9 9//9
f 8//10 10//10 2//10
f 8//11 11//11 10//11
f 8//12 12//12 11//12
f 12//13 9//13 13//13
f 12//6 13//6 15//6
f 11//14 12//14 14//14
f 14//15 12//15 15//15
f 16//16 14//16 15//16
f 15//17 17//17 16//17
f 17//6 15//6 13//6
f 17//18 18//18 16//18
f 17//19 19//19 18//19
f 17//20 13//20 19//20
f 19//1 16//1 18//1
f 19//1 14//1 16//1
f 13//21 20//21 19//21
f 14//22 19//22 20//22
f 11//23 20//23 22//23
f 11//22 14//22 20//22
f 13//24 21//24 20//24
f 21//25 22//25 20//25
f 31//26 9//26 22//26
f 35//27 22//27 9//27
f 33//28 23//28 22//28
f 22//29 23//29 31//29
f 24//30 25//30 22//30
f 29//30 24//30 22//30
f 10//23 22//23 25//23
f 26//31 28//31 22//31
f 26//32 22//32 34//32
f 27//30 30//30 22//30
f 28//30 27//30 22//30
f 29//30 22//30 30//30
f 22//25 37//25 32//25
f 22//25 32//25 33//25
f 22//33 35//33 34//33
f 21//23 36//23 22//23
f 22//25 36//25 37//25
f 10//23 11//23 22//23
f 40//1 37//1 38//1
f 38//34 37//34 39//34
f 41//35 39//35 37//35
f 40//22 32//22 37//22
f 41//36 37//36 36//36
f 41//37 9//37 42//37
f 45//38 9//38 41//38
f 41//39 42//39 39//39
f 43//7 46//7 41//7
f 43//40 41//40 44//40
f 41//41 36//41 44//41
f 41//6 46//6 45//6
f 46//42 43//42 48//42
f 46//43 47//43 45//43
f 48//44 47//44 46//44
f 44//1 47//1 48//1
f 44//1 48//1 49//1
f 43//45 49//45 48//45
f 43//46 44//46 49//46
f 47//47 21//47 45//47
f 21//22 47//22 44//22
f 45//48 13//48 9//48
f 13//49 45//49 21//49
f 21//22 44//22 36//22
f 50//50 51//50 42//50
f 23//51 50//51 42//51
f 52//52 42//52 51//52
f 53//53 42//53 52//53
f 39//54 42//54 53//54
f 42//55 55//55 23//55
f 54//56 55//56 42//56
f 42//57 56//57 54//57
f 59//58 56//58 42//58
f 57//59 42//59 9//59
f 58//60 42//60 57//60
f 59//60 42//60 58//60
f 61//61 59//61 60//61
f 58//62 60//62 59//62
f 62//63 56//63 59//63
f 59//64 61//64 62//64
f 63//65 56//65 62//65
f 62//66 61//66 63//66
f 64//67 56//67 63//67
f 65//68 63//68 61//68
f 63//69 65//69 64//69
f 65//70 61//70 66//70
f 65//71 66//71 67//71
f 67//72 64//72 65//72
f 67//73 66//73 68//73
f 64//74 67//74 69//74
f 68//75 69//75 67//75
f 69//76 68//76 70//76
f 70//77 56//77 69//77
f 69//78 56//78 64//78
f 71//79 56//79 70//79
f 71//80 70//80 73//80
f 70//81 72//81 73//81
f 72//82 70//82 68//82
f 71//83 73//83 75//83
f 74//84 73//84 72//84
f 73//85 74//85 75//85
f 71//86 75//86 76//86
f 78//87 75//87 74//87
f 75//88 77//88 76//88
f 77//89 75//89 78//89
f 79//90 78//90 74//90
f 79//91 77//91 78//91
f 79//92 81//92 80//92
f 79//93 80//93 82//93
f 71//94 81//94 79//94
f 77//90 79//90 26//90
f 79//95 74//95 72//95
f 79//96 68//96 66//96
f 79//97 72//97 68//97
f 66//94 71//94 79//94
f 26//98 79//98 82//98
f 82//1 80//1 86//1
f 82//99 85//99 83//99
f 82//100 83//100 26//100
f 82//101 86//101 84//101
f 85//102 82//102 84//102
f 80//103 87//103 86//103
f 84//104 86//104 87//104
f 87//105 89//105 88//105
f 90//106 87//106 88//106
f 87//107 80//107 81//107
f 87//108 81//108 89//108
f 87//109 90//109 91//109
f 92//110 87//110 91//110
f 87//111 92//111 93//111
f 84//112 87//112 95//112
f 93//113 94//113 87//113
f 94//114 95//114 87//114
f 83//115 84//115 95//115
f 95//116 94//116 96//116
f 83//117 95//117 96//117
f 97//118 96//118 71//118
f 83//119 96//119 97//119
f 98//120 96//120 94//120
f 98//121 100//121 96//121
f 96//122 99//122 71//122
f 99//123 96//123 100//123
f 102//124 100//124 101//124
f 104//125 101//125 100//125
f 100//126 102//126 105//126
f 104//127 100//127 98//127
f 100//128 103//128 99//128
f 100//129 105//129 103//129
f 105//130 102//130 106//130
f 105//131 106//131 103//131
f 106//132 107//132 108//132
f 107//133 106//133 102//133
f 108//134 103//134 106//134
f 108//135 109//135 110//135
f 109//136 108//136 107//136
f 103//137 108//137 110//137
f 103//138 110//138 111//138
f 111//139 110//139 112//139
f 113//140 110//140 109//140
f 110//141 113//141 112//141
f 109//142 114//142 113//142
f 113//143 114//143 115//143
f 115//144 112//144 113//144
f 115//145 114//145 117//145
f 117//146 116//146 115//146
f 112//147 115//147 116//147
f 114//148 119//148 117//148
f 117//149 118//149 120//149
f 118//150 117//150 119//150
f 116//151 117//151 121//151
f 120//152 121//152 117//152
f 122//153 111//153 121//153
f 121//154 111//154 116//154
f 122//155 121//155 124//155
f 121//156 123//156 124//156
f 123//157 121//157 120//157
f 122//158 124//158 125//158
f 124//159 127//159 125//159
f 126//160 124//160 123//160
f 124//161 126//161 127//161
f 127//162 128//162 125//162
f 127//163 129//163 128//163
f 127//164 131//164 129//164
f 130//165 127//165 126//165
f 127//166 130//166 131//166
f 131//167 132//167 129//167
f 134//168 132//168 131//168
f 133//169 131//169 130//169
f 131//170 133//170 134//170
f 138//171 135//171 134//171
f 135//172 136//172 134//172
f 134//173 136//173 132//173
f 134//174 137//174 138//174
f 137//175 134//175 133//175
f 138//176 139//176 135//176
f 141//177 139//177 138//177
f 138//178 140//178 141//178
f 140//179 138//179 137//179
f 141//180 142//180 139//180
f 104//181 142//181 141//181
f 143//182 141//182 140//182
f 141//183 143//183 104//183
f 101//184 104//184 143//184
f 143//6 144//6 101//6
f 140//6 144//6 143//6
f 148//185 144//185 145//185
f 144//186 98//186 145//186
f 144//187 142//187 98//187
f 144//6 140//6 146//6
f 142//188 144//188 146//188
f 144//189 148//189 147//189
f 147//6 101//6 144//6
f 149//190 147//190 148//190
f 145//1 149//1 148//1
f 147//94 149//94 150//94
f 149//94 103//94 150//94
f 103//190 149//190 151//190
f 151//191 149//191 145//191
f 158//94 151//94 152//94
f 151//94 156//94 152//94
f 153//192 151//192 158//192
f 157//94 151//94 153//94
f 103//190 151//190 99//190
f 145//191 154//191 151//191
f 99//94 151//94 157//94
f 151//193 154//193 155//193
f 155//194 156//194 151//194
f 165//195 158//195 159//195
f 158//196 160//196 159//196
f 163//197 160//197 158//197
f 158//198 152//198 161//198
f 161//199 162//199 158//199
f 153//200 158//200 162//200
f 164//201 163//201 158//201
f 158//202 165//202 164//202
f 166//203 165//203 169//203
f 165//204 166//204 167//204
f 167//205 164//205 165//205
f 165//206 159//206 153//206
f 165//207 153//207 168//207
f 168//208 169//208 165//208
f 169//209 170//209 166//209
f 170//210 169//210 171//210
f 169//211 168//211 157//211
f 157//212 171//212 169//212
f 171//213 172//213 170//213
f 172//214 171//214 174//214
f 171//215 157//215 173//215
f 171//216 173//216 175//216
f 175//217 174//217 171//217
f 174//218 175//218 176//218
f 175//55 177//55 176//55
f 177//55 175//55 178//55
f 175//55 179//55 178//55
f 173//219 179//219 175//219
f 175//220 99//220 157//220
f 175//221 157//221 181//221
f 180//220 99//220 175//220
f 180//222 175//222 181//222
f 181//223 182//223 184//223
f 183//224 182//224 181//224
f 183//224 181//224 185//224
f 181//225 184//225 180//225
f 185//226 181//226 157//226
f 157//227 153//227 185//227
f 162//228 185//228 153//228
f 186//229 183//229 185//229
f 186//230 185//230 162//230
f 161//231 186//231 162//231
f 189//232 186//232 161//232
f 183//233 186//233 187//233
f 188//234 187//234 186//234
f 186//234 189//234 188//234
f 192//235 188//235 189//235
f 189//55 190//55 191//55
f 189//55 161//55 190//55
f 193//55 189//55 191//55
f 189//235 193//235 192//235
f 195//55 194//55 193//55
f 193//55 194//55 196//55
f 191//232 195//232 193//232
f 193//236 196//236 91//236
f 91//236 192//236 193//236
f 194//237 197//237 196//237
f 197//116 198//116 196//116
f 182//116 196//116 198//116
f 196//238 182//238 92//238
f 92//238 91//238 196//238
f 200//239 199//239 198//239
f 184//240 198//240 199//240
f 198//116 184//116 182//116
f 201//241 200//241 198//241
f 198//242 197//242 201//242
f 88//220 201//220 202//220
f 202//243 201//243 194//243
f 197//244 194//244 201//244
f 88//190 200//190 201//190
f 204//245 202//245 194//245
f 202//232 206//232 203//232
f 205//55 202//55 203//55
f 88//246 202//246 204//246
f 207//247 202//247 205//247
f 208//248 206//248 202//248
f 202//249 207//249 208//249
f 209//250 211//250 208//250
f 208//251 210//251 209//251
f 210//252 208//252 207//252
f 206//253 208//253 211//253
f 211//254 212//254 206//254
f 212//255 211//255 214//255
f 213//256 214//256 211//256
f 211//257 209//257 213//257
f 213//258 215//258 214//258
f 214//259 176//259 212//259
f 176//260 214//260 215//260
f 216//261 174//261 215//261
f 215//262 213//262 216//262
f 176//263 215//263 174//263
f 174//264 216//264 172//264
f 172//265 216//265 217//265
f 217//266 216//266 218//266
f 216//267 213//267 218//267
f 219//190 218//190 221//190
f 222//268 218//268 219//268
f 217//269 218//269 220//269
f 218//270 222//270 220//270
f 209//271 218//271 213//271
f 218//190 209//190 221//190
f 219//268 223//268 222//268
f 220//94 222//94 223//94
f 224//272 223//272 219//272
f 223//94 224//94 220//94
f 226//273 224//273 225//273
f 219//272 225//272 224//272
f 224//94 226//94 227//94
f 227//94 220//94 224//94
f 228//274 229//274 227//274
f 228//275 227//275 230//275
f 230//276 227//276 226//276
f 229//277 217//277 227//277
f 217//277 220//277 227//277
f 230//278 232//278 231//278
f 231//278 233//278 230//278
f 226//279 232//279 230//279
f 233//280 228//280 230//280
f 234//190 233//190 231//190
f 228//94 233//94 236//94
f 234//94 237//94 233//94
f 233//94 235//94 236//94
f 233//94 237//94 235//94
f 237//94 234//94 238//94
f 241//281 237//281 238//281
f 239//94 240//94 237//94
f 239//282 237//282 241//282
f 237//94 240//94 235//94
f 238//283 242//283 241//283
f 243//220 241//220 242//220
f 241//282 243//282 239//282
f 242//220 244//220 243//220
f 245//220 243//220 244//220
f 243//284 245//284 246//284
f 246//284 239//284 243//284
f 247//285 246//285 245//285
f 246//220 247//220 248//220
f 248//94 249//94 246//94
f 239//190 246//190 240//190
f 246//94 249//94 240//94
f 251//286 249//286 248//286
f 249//94 250//94 240//94
f 250//287 249//287 251//287
f 248//286 252//286 251//286
f 253//190 251//190 252//190
f 251//287 253//287 250//287
f 252//94 254//94 253//94
f 255//94 253//94 254//94
f 253//288 255//288 256//288
f 256//289 250//289 253//289
f 250//94 256//94 257//94
f 256//94 258//94 257//94
f 258//290 256//290 255//290
f 258//190 259//190 257//190
f 259//291 258//291 260//291
f 255//290 260//290 258//290
f 263//292 260//292 261//292
f 262//94 261//94 260//94
f 260//94 255//94 262//94
f 260//293 263//293 259//293
f 264//294 259//294 263//294
f 263//295 265//295 264//295
f 265//296 263//296 266//296
f 261//297 266//297 263//297
f 266//298 267//298 265//298
f 269//299 267//299 266//299
f 266//300 261//300 268//300
f 268//301 269//301 266//301
f 270//302 267//302 269//302
f 269//303 272//303 270//303
f 273//190 271//190 269//190
f 272//190 269//190 271//190
f 269//94 268//94 273//94
f 274//94 273//94 268//94
f 275//304 273//304 274//304
f 275//305 276//305 273//305
f 271//305 273//305 276//305
f 276//55 278//55 277//55
f 271//306 276//306 277//306
f 279//224 278//224 276//224
f 276//55 275//55 279//55
f 279//55 281//55 280//55
f 280//55 283//55 279//55
f 281//55 279//55 275//55
f 279//307 282//307 278//307
f 282//307 279//307 257//307
f 283//308 257//308 279//308
f 286//55 283//55 284//55
f 284//55 283//55 280//55
f 285//224 283//224 286//224
f 287//55 283//55 285//55
f 288//224 283//224 287//224
f 257//308 283//308 240//308
f 288//309 240//309 283//309
f 287//55 179//55 288//55
f 288//230 292//230 289//230
f 293//310 288//310 289//310
f 288//231 293//231 297//231
f 288//224 297//224 291//224
f 288//230 291//230 290//230
f 288//55 290//55 278//55
f 179//55 292//55 288//55
f 278//311 235//311 288//311
f 240//285 288//285 235//285
f 294//312 293//312 289//312
f 294//313 297//313 293//313
f 296//314 295//314 293//314
f 292//315 293//315 295//315
f 292//316 111//316 293//316
f 298//317 296//317 293//317
f 293//246 111//246 297//246
f 293//318 297//318 298//318
f 299//319 298//319 291//319
f 297//320 291//320 298//320
f 298//321 299//321 300//321
f 296//322 298//322 300//322
f 301//55 300//55 299//55
f 300//238 301//238 302//238
f 302//238 303//238 300//238
f 304//236 300//236 303//236
f 304//224 296//224 300//224
f 303//236 306//236 304//236
f 295//224 304//224 305//224
f 304//224 307//224 305//224
f 307//235 304//235 306//235
f 295//224 296//224 304//224
f 306//235 308//235 307//235
f 309//234 307//234 308//234
f 307//55 309//55 311//55
f 307//224 310//224 305//224
f 307//237 311//237 310//237
f 312//323 314//323 311//323
f 311//324 313//324 312//324
f 311//55 309//55 313//55
f 310//325 311//325 314//325
f 314//326 312//326 114//326
f 314//327 315//327 310//327
f 315//190 314//190 114//190
f 316//94 315//94 114//94
f 315//328 316//328 305//328
f 305//329 310//329 315//329
f 295//330 305//330 316//330
f 316//331 292//331 295//331
f 111//316 292//316 316//316
f 114//190 111//190 316//190
f 313//332 317//332 312//332
f 309//55 317//55 313//55
f 317//224 320//224 318//224
f 317//333 318//333 319//333
f 319//334 321//334 317//334
f 309//224 320//224 317//224
f 321//335 312//335 317//335
f 319//336 322//336 321//336
f 312//337 321//337 322//337
f 322//192 323//192 326//192
f 323//220 322//220 319//220
f 324//338 322//338 325//338
f 322//236 324//236 119//236
f 322//190 114//190 312//190
f 119//339 114//339 322//339
f 325//94 322//94 326//94
f 325//94 326//94 291//94
f 291//340 326//340 299//340
f 326//341 323//341 327//341
f 327//342 299//342 326//342
f 318//55 301//55 327//55
f 318//343 327//343 323//343
f 299//229 327//229 301//229
f 325//190 291//190 297//190
f 331//190 328//190 325//190
f 325//344 328//344 329//344
f 325//338 330//338 324//338
f 329//344 330//344 325//344
f 111//94 331//94 325//94
f 111//267 325//267 297//267
f 122//345 331//345 111//345
f 122//1 332//1 331//1
f 331//346 54//346 56//346
f 333//94 331//94 56//94
f 54//346 331//346 332//346
f 333//190 328//190 331//190
f 328//347 333//347 334//347
f 335//348 334//348 333//348
f 335//94 333//94 56//94
f 66//94 335//94 56//94
f 66//349 336//349 335//349
f 334//348 335//348 336//348
f 336//349 66//349 55//349
f 54//224 336//224 55//224
f 334//224 336//224 54//224
f 54//224 329//224 334//224
f 328//347 334//347 329//347
f 122//350 329//350 332//350
f 329//224 54//224 332//224
f 122//55 337//55 330//55
f 122//55 330//55 329//55
f 330//224 303//224 302//224
f 330//55 302//55 324//55
f 330//55 337//55 303//55
f 118//351 337//351 122//351
f 119//352 337//352 118//352
f 337//55 306//55 303//55
f 337//55 119//55 306//55
f 302//55 339//55 324//55
f 338//55 119//55 324//55
f 339//237 338//237 324//237
f 338//233 339//233 320//233
f 301//353 320//353 339//353
f 339//353 302//353 301//353
f 320//233 309//233 338//233
f 308//234 338//234 309//234
f 308//55 119//55 338//55
f 323//354 319//354 318//354
f 320//55 301//55 318//55
f 306//55 119//55 308//55
f 294//355 340//355 341//355
f 340//356 294//356 343//356
f 297//357 294//357 342//357
f 341//358 342//358 294//358
f 289//359 343//359 294//359
f 343//360 344//360 340//360
f 344//361 343//361 345//361
f 343//362 289//362 292//362
f 292//363 345//363 343//363
f 346//364 345//364 348//364
f 345//365 346//365 344//365
f 345//366 292//366 347//366
f 347//367 348//367 345//367
f 348//368 349//368 346//368
f 349//369 348//369 350//369
f 347//370 350//370 348//370
f 350//371 351//371 349//371
f 351//372 350//372 353//372
f 350//373 347//373 352//373
f 352//374 353//374 350//374
f 354//375 353//375 356//375
f 353//376 354//376 351//376
f 353//377 352//377 355//377
f 355//378 356//378 353//378
f 354//379 356//379 358//379
f 356//380 355//380 357//380
f 357//381 358//381 356//381
f 359//382 358//382 362//382
f 358//383 359//383 360//383
f 358//384 360//384 354//384
f 358//385 357//385 361//385
f 361//386 362//386 358//386
f 362//387 363//387 359//387
f 363//388 362//388 365//388
f 362//389 361//389 364//389
f 364//390 365//390 362//390
f 364//391 367//391 365//391
f 365//392 366//392 363//392
f 366//393 365//393 367//393
f 367//394 368//394 366//394
f 367//395 364//395 369//395
f 368//396 367//396 370//396
f 369//397 370//397 367//397
f 370//398 369//398 290//398
f 290//399 372//399 370//399
f 370//400 371//400 368//400
f 371//401 370//401 372//401
f 372//402 290//402 291//402
f 372//403 341//403 373//403
f 372//404 373//404 371//404
f 341//405 372//405 342//405
f 291//406 342//406 372//406
f 371//220 373//220 282//220
f 282//220 373//220 235//220
f 235//407 373//407 341//407
f 371//220 282//220 368//220
f 278//232 290//232 369//232
f 369//232 364//232 278//232
f 368//94 282//94 366//94
f 366//408 282//408 363//408
f 361//55 278//55 364//55
f 363//409 282//409 359//409
f 375//55 278//55 361//55
f 357//116 374//116 361//116
f 375//55 361//55 374//55
f 278//224 375//224 277//224
f 376//410 277//410 375//410
f 375//410 377//410 376//410
f 377//411 375//411 374//411
f 378//94 379//94 377//94
f 377//94 380//94 378//94
f 376//94 377//94 379//94
f 374//411 380//411 377//411
f 380//94 381//94 378//94
f 382//412 381//412 380//412
f 380//413 374//413 382//413
f 381//414 382//414 383//414
f 383//224 382//224 355//224
f 382//55 374//55 357//55
f 355//224 382//224 357//224
f 383//415 385//415 384//415
f 383//414 384//414 381//414
f 383//224 355//224 385//224
f 385//416 387//416 386//416
f 385//415 386//415 384//415
f 355//55 387//55 385//55
f 387//417 389//417 388//417
f 387//416 388//416 386//416
f 387//417 391//417 389//417
f 391//418 387//418 390//418
f 352//55 390//55 387//55
f 352//230 387//230 355//230
f 391//419 392//419 389//419
f 392//232 391//232 390//232
f 392//419 393//419 389//419
f 392//420 394//420 393//420
f 392//420 390//420 394//420
f 393//94 394//94 395//94
f 396//94 395//94 394//94
f 394//421 390//421 397//421
f 394//94 398//94 396//94
f 397//422 398//422 394//422
f 398//94 399//94 401//94
f 400//423 399//423 398//423
f 398//424 397//424 400//424
f 401//190 396//190 398//190
f 403//425 402//425 401//425
f 396//426 401//426 402//426
f 401//425 404//425 403//425
f 404//94 401//94 399//94
f 404//427 405//427 406//427
f 405//94 404//94 407//94
f 406//427 403//427 404//427
f 399//94 407//94 404//94
f 407//190 408//190 405//190
f 409//428 408//428 407//428
f 407//429 410//429 409//429
f 410//430 407//430 399//430
f 411//55 410//55 400//55
f 399//431 400//431 410//431
f 410//55 411//55 409//55
f 400//55 414//55 411//55
f 160//55 409//55 411//55
f 413//432 411//432 412//432
f 414//433 412//433 411//433
f 411//434 413//434 160//434
f 397//55 390//55 414//55
f 352//55 414//55 390//55
f 347//229 414//229 352//229
f 397//55 414//55 400//55
f 292//237 414//237 347//237
f 414//55 292//55 179//55
f 412//433 414//433 415//433
f 179//435 415//435 414//435
f 416//190 415//190 349//190
f 416//94 418//94 415//94
f 417//436 419//436 415//436
f 417//437 415//437 418//437
f 349//190 415//190 346//190
f 346//438 415//438 344//438
f 236//190 344//190 415//190
f 412//94 415//94 419//94
f 415//435 179//435 236//435
f 419//439 417//439 420//439
f 422//440 419//440 420//440
f 419//190 421//190 412//190
f 421//441 419//441 422//441
f 423//442 402//442 422//442
f 426//190 422//190 402//190
f 422//443 424//443 423//443
f 425//444 424//444 422//444
f 422//440 420//440 425//440
f 422//441 426//441 421//441
f 402//94 403//94 426//94
f 427//190 426//190 403//190
f 426//445 427//445 428//445
f 428//445 421//445 426//445
f 421//190 428//190 413//190
f 428//94 429//94 413//94
f 429//446 428//446 427//446
f 429//190 430//190 413//190
f 430//447 429//447 431//447
f 427//446 431//446 429//446
f 431//94 427//94 406//94
f 406//94 432//94 431//94
f 433//94 431//94 432//94
f 431//447 433//447 430//447
f 432//94 434//94 433//94
f 435//94 433//94 434//94
f 433//448 435//448 436//448
f 436//448 430//448 433//448
f 439//266 437//266 436//266
f 437//192 438//192 436//192
f 438//190 413//190 436//190
f 439//190 436//190 440//190
f 440//449 436//449 435//449
f 430//192 436//192 413//192
f 440//450 210//450 441//450
f 440//451 441//451 439//451
f 221//190 210//190 440//190
f 221//94 440//94 442//94
f 442//452 440//452 443//452
f 435//449 443//449 440//449
f 443//452 445//452 442//452
f 443//266 435//266 444//266
f 444//94 445//94 443//94
f 445//453 444//453 446//453
f 446//453 442//453 445//453
f 447//454 446//454 444//454
f 442//94 446//94 449//94
f 446//190 447//190 448//190
f 448//94 449//94 446//94
f 449//94 450//94 442//94
f 203//455 450//455 449//455
f 449//456 451//456 203//456
f 451//457 449//457 448//457
f 203//55 451//55 205//55
f 448//458 452//458 451//458
f 452//55 160//55 451//55
f 160//55 453//55 451//55
f 451//459 453//459 454//459
f 205//232 451//232 454//232
f 456//460 454//460 191//460
f 195//461 191//461 454//461
f 454//462 204//462 195//462
f 88//463 204//463 454//463
f 455//464 454//464 453//464
f 454//465 455//465 457//465
f 454//466 456//466 156//466
f 88//190 454//190 156//190
f 457//467 205//467 454//467
f 439//468 457//468 455//468
f 457//469 439//469 441//469
f 441//470 207//470 457//470
f 205//471 457//471 207//471
f 456//472 453//472 156//472
f 453//473 456//473 191//473
f 438//474 455//474 458//474
f 455//475 438//475 437//475
f 455//476 437//476 439//476
f 459//477 458//477 455//477
f 455//478 453//478 459//478
f 459//94 152//94 156//94
f 152//479 459//479 190//479
f 459//480 160//480 461//480
f 453//231 160//231 459//231
f 460//481 459//481 156//481
f 459//482 460//482 190//482
f 458//483 459//483 461//483
f 461//322 160//322 152//322
f 458//484 461//484 152//484
f 453//94 460//94 156//94
f 460//485 453//485 191//485
f 191//486 190//486 460//486
f 458//487 462//487 438//487
f 462//488 458//488 164//488
f 152//489 164//489 458//489
f 438//190 462//190 413//190
f 462//490 167//490 413//490
f 164//491 167//491 462//491
f 463//55 160//55 452//55
f 464//492 463//492 452//492
f 452//493 448//493 464//493
f 408//190 464//190 465//190
f 463//494 464//494 408//494
f 464//190 448//190 447//190
f 447//190 465//190 464//190
f 434//495 432//495 465//495
f 405//496 465//496 432//496
f 465//497 447//497 434//497
f 465//190 405//190 408//190
f 408//498 409//498 463//498
f 409//224 160//224 463//224
f 450//499 203//499 466//499
f 221//94 442//94 450//94
f 466//499 221//499 450//499
f 203//224 206//224 466//224
f 466//224 212//224 467//224
f 221//500 466//500 467//500
f 206//55 212//55 466//55
f 467//501 470//501 468//501
f 467//500 468//500 221//500
f 467//224 212//224 176//224
f 467//224 176//224 469//224
f 467//501 469//501 470//501
f 468//94 470//94 225//94
f 469//502 471//502 470//502
f 470//94 471//94 472//94
f 472//94 225//94 470//94
f 232//503 226//503 472//503
f 472//504 231//504 232//504
f 225//273 472//273 226//273
f 231//94 472//94 471//94
f 471//94 473//94 231//94
f 177//505 473//505 471//505
f 469//502 177//502 471//502
f 178//506 234//506 473//506
f 234//190 231//190 473//190
f 177//505 178//505 473//505
f 469//55 176//55 177//55
f 221//190 468//190 219//190
f 225//94 219//94 468//94
f 444//454 434//454 447//454
f 434//507 444//507 435//507
f 207//508 441//508 210//508
f 432//509 406//509 405//509
f 403//94 406//94 427//94
f 424//510 425//510 475//510
f 425//338 474//338 476//338
f 474//338 425//338 420//338
f 476//511 475//511 425//511
f 476//512 479//512 477//512
f 477//512 478//512 476//512
f 479//513 476//513 474//513
f 475//511 476//511 478//511
f 477//514 479//514 480//514
f 480//515 479//515 481//515
f 479//516 482//516 481//516
f 474//513 482//513 479//513
f 481//517 482//517 483//517
f 483//518 482//518 484//518
f 482//519 486//519 484//519
f 485//520 486//520 482//520
f 482//521 474//521 485//521
f 489//522 487//522 486//522
f 486//523 487//523 488//523
f 488//524 484//524 486//524
f 486//525 485//525 489//525
f 487//526 489//526 490//526
f 491//527 490//527 489//527
f 489//528 417//528 491//528
f 417//529 489//529 485//529
f 491//530 417//530 418//530
f 492//531 494//531 491//531
f 492//532 491//532 418//532
f 490//533 491//533 493//533
f 494//534 493//534 491//534
f 492//535 495//535 494//535
f 493//536 494//536 495//536
f 495//94 496//94 498//94
f 497//190 496//190 495//190
f 495//94 492//94 497//94
f 495//537 475//537 493//537
f 475//538 495//538 424//538
f 498//94 499//94 495//94
f 424//539 495//539 499//539
f 424//540 499//540 498//540
f 498//540 423//540 424//540
f 423//541 498//541 496//541
f 418//542 395//542 497//542
f 497//543 492//543 418//543
f 496//544 497//544 395//544
f 402//545 423//545 496//545
f 500//546 402//546 496//546
f 503//547 496//547 395//547
f 500//548 496//548 501//548
f 501//549 496//549 502//549
f 502//550 496//550 503//550
f 504//551 502//551 503//551
f 503//552 506//552 504//552
f 505//553 503//553 395//553
f 506//554 503//554 505//554
f 506//555 505//555 507//555
f 477//556 504//556 506//556
f 509//557 477//557 506//557
f 507//558 508//558 506//558
f 508//559 509//559 506//559
f 478//560 477//560 509//560
f 509//560 490//560 478//560
f 490//561 509//561 487//561
f 487//562 509//562 508//562
f 508//563 507//563 510//563
f 510//564 511//564 508//564
f 511//565 487//565 508//565
f 487//566 511//566 488//566
f 512//567 488//567 511//567
f 511//568 510//568 512//568
f 488//569 512//569 513//569
f 513//570 512//570 396//570
f 510//571 396//571 512//571
f 513//572 484//572 488//572
f 402//573 514//573 513//573
f 484//574 513//574 514//574
f 513//575 396//575 402//575
f 514//576 483//576 484//576
f 483//577 514//577 500//577
f 402//578 500//578 514//578
f 507//579 396//579 510//579
f 507//580 395//580 396//580
f 507//581 505//581 395//581
f 477//514 480//514 504//514
f 502//582 504//582 480//582
f 480//583 501//583 502//583
f 481//584 500//584 501//584
f 501//585 480//585 481//585
f 500//586 481//586 483//586
f 493//338 478//338 490//338
f 478//338 493//338 475//338
f 420//338 485//338 474//338
f 485//587 420//587 417//587
f 413//190 412//190 421//190
f 418//94 515//94 395//94
f 515//94 418//94 416//94
f 515//588 518//588 516//588
f 515//589 516//589 519//589
f 515//94 517//94 395//94
f 517//590 515//590 519//590
f 518//94 515//94 416//94
f 519//283 520//283 517//283
f 521//94 520//94 519//94
f 519//220 516//220 521//220
f 521//591 523//591 522//591
f 522//591 524//591 521//591
f 523//220 521//220 516//220
f 520//592 521//592 524//592
f 524//592 517//592 520//592
f 517//190 524//190 389//190
f 524//94 522//94 388//94
f 388//94 389//94 524//94
f 523//593 527//593 525//593
f 525//280 522//280 523//280
f 516//190 526//190 523//190
f 527//594 523//594 526//594
f 532//595 528//595 527//595
f 528//596 525//596 527//596
f 526//597 529//597 527//597
f 530//190 527//190 529//190
f 530//598 531//598 527//598
f 531//599 534//599 527//599
f 535//600 532//600 527//600
f 534//601 533//601 527//601
f 533//602 535//602 527//602
f 532//603 535//603 536//603
f 535//604 533//604 536//604
f 540//605 536//605 533//605
f 540//606 537//606 536//606
f 537//607 538//607 536//607
f 539//608 536//608 538//608
f 536//609 539//609 532//609
f 541//610 540//610 531//610
f 534//611 531//611 540//611
f 541//612 537//612 540//612
f 533//613 534//613 540//613
f 543//614 541//614 531//614
f 542//615 541//615 543//615
f 542//616 537//616 541//616
f 545//617 543//617 544//617
f 531//618 544//618 543//618
f 542//619 543//619 545//619
f 547//620 542//620 545//620
f 547//621 545//621 546//621
f 546//622 545//622 548//622
f 544//623 548//623 545//623
f 549//624 548//624 530//624
f 548//625 549//625 546//625
f 548//626 544//626 530//626
f 528//627 550//627 549//627
f 549//628 550//628 551//628
f 551//629 546//629 549//629
f 530//630 528//630 549//630
f 551//631 553//631 552//631
f 552//632 547//632 551//632
f 547//633 546//633 551//633
f 553//634 551//634 550//634
f 554//635 553//635 550//635
f 553//636 554//636 552//636
f 555//637 554//637 557//637
f 555//638 556//638 554//638
f 556//639 552//639 554//639
f 550//640 557//640 554//640
f 528//641 557//641 550//641
f 557//642 532//642 555//642
f 557//643 528//643 532//643
f 556//644 538//644 558//644
f 538//645 556//645 555//645
f 552//646 556//646 559//646
f 558//647 559//647 556//647
f 560//648 559//648 561//648
f 559//649 560//649 552//649
f 559//650 558//650 562//650
f 562//651 561//651 559//651
f 564//652 563//652 562//652
f 561//653 562//653 563//653
f 562//654 565//654 564//654
f 565//655 562//655 558//655
f 566//656 564//656 565//656
f 565//657 567//657 566//657
f 567//658 565//658 568//658
f 558//659 568//659 565//659
f 569//660 568//660 537//660
f 538//661 537//661 568//661
f 568//662 558//662 538//662
f 568//663 569//663 567//663
f 537//664 542//664 569//664
f 571//665 569//665 542//665
f 570//666 567//666 569//666
f 569//667 571//667 570//667
f 542//668 547//668 571//668
f 572//669 570//669 571//669
f 571//670 560//670 572//670
f 560//671 571//671 547//671
f 573//672 574//672 572//672
f 572//673 561//673 573//673
f 570//674 572//674 574//674
f 561//675 572//675 560//675
f 574//676 575//676 570//676
f 575//677 574//677 576//677
f 574//678 577//678 576//678
f 573//679 577//679 574//679
f 576//680 577//680 378//680
f 577//94 359//94 578//94
f 577//94 578//94 579//94
f 577//94 579//94 378//94
f 577//681 360//681 359//681
f 577//682 354//682 360//682
f 573//190 354//190 577//190
f 379//683 579//683 581//683
f 579//190 379//190 378//190
f 579//684 578//684 580//684
f 580//685 581//685 579//685
f 581//683 582//683 379//683
f 581//686 580//686 270//686
f 270//687 582//687 581//687
f 582//688 270//688 272//688
f 272//689 379//689 582//689
f 267//94 270//94 580//94
f 580//190 265//190 267//190
f 265//690 580//690 578//690
f 359//220 282//220 578//220
f 264//94 578//94 282//94
f 578//690 264//690 265//690
f 576//691 584//691 575//691
f 378//680 583//680 576//680
f 584//190 576//190 583//190
f 584//692 566//692 575//692
f 583//94 530//94 584//94
f 566//94 584//94 530//94
f 530//693 583//693 378//693
f 575//694 566//694 567//694
f 567//695 570//695 575//695
f 563//696 585//696 573//696
f 585//94 354//94 573//94
f 563//697 573//697 561//697
f 586//94 351//94 585//94
f 351//698 354//698 585//698
f 585//699 563//699 586//699
f 416//190 351//190 586//190
f 416//504 586//504 526//504
f 563//700 529//700 586//700
f 586//701 529//701 526//701
f 529//702 564//702 566//702
f 566//190 530//190 529//190
f 529//703 563//703 564//703
f 547//704 552//704 560//704
f 555//705 539//705 538//705
f 539//706 555//706 532//706
f 544//707 531//707 530//707
f 378//693 528//693 530//693
f 528//94 378//94 381//94
f 381//94 384//94 528//94
f 525//190 528//190 384//190
f 587//708 416//708 526//708
f 587//709 526//709 516//709
f 518//710 587//710 516//710
f 587//94 518//94 416//94
f 384//190 386//190 525//190
f 522//94 525//94 386//94
f 386//94 388//94 522//94
f 395//94 517//94 393//94
f 389//94 393//94 517//94
f 349//466 351//466 416//466
f 167//711 166//711 413//711
f 413//192 166//192 236//192
f 236//712 160//712 413//712
f 379//266 272//266 376//266
f 277//306 376//306 271//306
f 271//190 376//190 272//190
f 340//271 344//271 235//271
f 236//220 235//220 344//220
f 342//713 291//713 297//713
f 235//220 341//220 340//220
f 179//55 287//55 589//55
f 287//714 588//714 234//714
f 588//715 287//715 285//715
f 589//714 287//714 234//714
f 179//224 589//224 178//224
f 178//506 589//506 234//506
f 234//190 588//190 238//190
f 590//190 238//190 588//190
f 588//190 591//190 590//190
f 285//715 591//715 588//715
f 286//716 592//716 591//716
f 591//716 285//716 286//716
f 591//190 592//190 247//190
f 247//190 590//190 591//190
f 592//190 593//190 248//190
f 284//717 593//717 592//717
f 592//717 286//717 284//717
f 248//190 247//190 592//190
f 280//718 594//718 593//718
f 593//718 284//718 280//718
f 593//94 594//94 595//94
f 595//190 248//190 593//190
f 262//719 254//719 595//719
f 248//720 595//720 254//720
f 595//719 596//719 262//719
f 596//94 595//94 594//94
f 261//721 262//721 596//721
f 596//721 268//721 261//721
f 594//94 274//94 596//94
f 268//94 596//94 274//94
f 281//722 274//722 594//722
f 594//722 280//722 281//722
f 597//723 244//723 590//723
f 590//723 247//723 597//723
f 238//724 590//724 244//724
f 245//285 597//285 247//285
f 244//220 597//220 245//220
f 282//94 257//94 259//94
f 259//94 264//94 282//94
f 235//311 278//311 282//311
f 274//304 281//304 275//304
f 254//94 262//94 255//94
f 257//94 240//94 250//94
f 254//720 252//720 248//720
f 244//724 242//724 238//724
f 228//94 236//94 172//94
f 170//725 236//725 166//725
f 172//246 236//246 170//246
f 160//712 236//712 179//712
f 229//94 228//94 172//94
f 217//94 229//94 172//94
f 221//220 209//220 210//220
f 194//726 195//726 204//726
f 89//94 199//94 200//94
f 88//94 89//94 200//94
f 199//727 180//727 184//727
f 180//220 199//220 99//220
f 89//94 99//94 199//94
f 90//728 155//728 192//728
f 192//729 155//729 188//729
f 90//730 192//730 91//730
f 190//731 161//731 152//731
f 188//732 155//732 187//732
f 187//733 155//733 154//733
f 187//734 154//734 598//734
f 187//233 598//233 183//233
f 182//353 183//353 598//353
f 93//735 92//735 598//735
f 598//353 92//353 182//353
f 154//736 93//736 598//736
f 173//737 157//737 179//737
f 157//55 168//55 179//55
f 168//55 153//55 179//55
f 153//116 159//116 179//116
f 179//55 159//55 160//55
f 164//738 152//738 163//738
f 152//739 160//739 163//739
f 90//191 88//191 156//191
f 156//191 155//191 90//191
f 145//740 94//740 154//740
f 93//191 154//191 94//191
f 150//6 101//6 147//6
f 102//6 150//6 107//6
f 114//741 107//741 150//741
f 103//94 114//94 150//94
f 101//6 150//6 102//6
f 146//742 139//742 142//742
f 137//6 146//6 140//6
f 146//6 137//6 599//6
f 139//743 146//743 599//743
f 599//6 137//6 600//6
f 135//744 599//744 600//744
f 599//745 135//745 139//745
f 133//6 600//6 137//6
f 600//6 133//6 601//6
f 600//746 136//746 135//746
f 136//747 600//747 601//747
f 601//7 133//7 602//7
f 601//748 132//748 136//748
f 132//749 601//749 602//749
f 602//750 129//750 132//750
f 129//751 602//751 603//751
f 130//6 602//6 133//6
f 602//6 130//6 603//6
f 603//752 125//752 128//752
f 125//753 603//753 604//753
f 603//754 128//754 129//754
f 603//7 126//7 604//7
f 126//6 603//6 130//6
f 604//6 123//6 118//6
f 122//755 604//755 118//755
f 604//756 122//756 125//756
f 123//6 604//6 126//6
f 145//757 98//757 94//757
f 142//758 104//758 98//758
f 120//7 118//7 123//7
f 111//759 112//759 116//759
f 103//94 111//94 114//94
f 107//760 114//760 109//760
f 71//192 99//192 89//192
f 97//761 606//761 35//761
f 97//762 35//762 9//762
f 76//763 605//763 97//763
f 76//764 97//764 71//764
f 605//765 606//765 97//765
f 608//766 97//766 9//766
f 97//767 607//767 609//767
f 97//768 608//768 607//768
f 97//769 609//769 611//769
f 97//770 610//770 83//770
f 97//771 612//771 610//771
f 97//772 611//772 612//772
f 613//773 612//773 611//773
f 614//774 612//774 613//774
f 610//6 612//6 614//6
f 615//6 614//6 616//6
f 614//6 615//6 610//6
f 613//775 617//775 614//775
f 614//776 617//776 616//776
f 619//1 617//1 618//1
f 613//1 618//1 617//1
f 619//777 615//777 617//777
f 617//778 615//778 616//778
f 618//779 615//779 619//779
f 26//780 618//780 613//780
f 26//781 610//781 618//781
f 618//782 610//782 615//782
f 613//783 620//783 26//783
f 613//784 611//784 620//784
f 620//785 621//785 26//785
f 622//22 621//22 620//22
f 620//786 611//786 622//786
f 623//22 621//22 622//22
f 625//1 623//1 622//1
f 622//787 611//787 624//787
f 622//788 624//788 625//788
f 625//1 626//1 623//1
f 625//789 627//789 626//789
f 625//790 624//790 627//790
f 609//6 627//6 611//6
f 624//6 611//6 627//6
f 627//791 609//791 623//791
f 627//792 623//792 626//792
f 609//793 621//793 623//793
f 621//794 628//794 26//794
f 621//795 609//795 607//795
f 621//796 607//796 628//796
f 28//797 26//797 628//797
f 628//798 607//798 630//798
f 629//22 28//22 628//22
f 630//22 629//22 628//22
f 630//799 607//799 632//799
f 630//1 631//1 629//1
f 630//800 633//800 631//800
f 630//801 632//801 633//801
f 631//802 633//802 632//802
f 634//803 631//803 632//803
f 608//6 634//6 632//6
f 608//6 632//6 607//6
f 634//804 629//804 631//804
f 634//805 608//805 629//805
f 608//806 28//806 629//806
f 26//807 83//807 610//807
f 635//808 608//808 9//808
f 635//809 28//809 608//809
f 635//810 9//810 638//810
f 27//811 28//811 635//811
f 638//6 636//6 635//6
f 637//812 635//812 636//812
f 27//813 635//813 637//813
f 638//814 9//814 641//814
f 638//6 639//6 636//6
f 639//815 638//815 640//815
f 638//816 30//816 640//816
f 641//817 30//817 638//817
f 642//814 641//814 9//814
f 641//6 642//6 643//6
f 641//6 643//6 644//6
f 645//818 641//818 644//818
f 29//819 641//819 645//819
f 29//820 30//820 641//820
f 646//22 645//22 647//22
f 645//1 646//1 29//1
f 645//821 644//821 647//821
f 648//822 647//822 644//822
f 646//1 647//1 648//1
f 643//823 648//823 644//823
f 643//824 646//824 648//824
f 24//1 29//1 646//1
f 643//825 642//825 646//825
f 642//826 24//826 646//826
f 7//827 24//827 642//827
f 642//828 9//828 7//828
f 637//1 649//1 640//1
f 30//22 637//22 640//22
f 639//829 640//829 649//829
f 639//830 649//830 636//830
f 637//1 650//1 649//1
f 649//831 650//831 636//831
f 637//832 636//832 650//832
f 30//22 27//22 637//22
f 605//833 651//833 606//833
f 606//834 34//834 35//834
f 34//835 606//835 651//835
f 652//836 26//836 651//836
f 651//837 605//837 652//837
f 26//838 34//838 651//838
f 76//839 652//839 605//839
f 77//840 26//840 652//840
f 652//841 76//841 77//841
f 81//190 71//190 89//190
f 83//842 85//842 84//842
f 71//94 66//94 56//94
f 23//843 55//843 66//843
f 23//70 66//70 61//70
f 60//844 23//844 61//844
f 60//845 58//845 653//845
f 653//846 23//846 60//846
f 31//847 23//847 653//847
f 653//848 57//848 31//848
f 57//849 653//849 58//849
f 9//850 31//850 57//850
f 53//851 52//851 33//851
f 53//852 33//852 32//852
f 654//6 39//6 53//6
f 654//853 53//853 40//853
f 53//854 32//854 40//854
f 654//855 40//855 656//855
f 654//6 655//6 39//6
f 655//856 654//856 657//856
f 654//857 656//857 657//857
f 657//858 38//858 655//858
f 656//22 38//22 657//22
f 656//22 40//22 38//22
f 655//859 38//859 39//859
f 51//860 33//860 52//860
f 658//861 659//861 51//861
f 51//862 50//862 658//862
f 659//863 33//863 51//863
f 659//864 658//864 23//864
f 33//865 659//865 23//865
f 50//866 23//866 658//866
f 25//22 4//22 10//22
f 25//867 7//867 4//867
f 25//868 24//868 7//868
f 4//22 2//22 10//22
f 4//869 7//869 3//869
