# Blender 5.0.1
# www.blender.org
mtllib right_shoulder_z_link_visual_2.mtl
o i01.rightArm.rotate.full.003_visual.001
v 0.035189 -0.331641 0.219428
v -0.035259 -0.331644 0.219426
v 0.035187 -0.413822 0.422359
v 0.035189 -0.494551 0.435881
v 0.035202 -0.318790 -0.286934
v 0.035185 -0.359934 0.416883
v -0.035247 -0.318791 -0.286935
v 0.035187 -0.152933 0.096598
v 0.035204 -0.424372 -0.260960
v 0.035182 -0.073047 0.161078
v -0.035266 -0.073050 0.161077
v -0.035263 -0.007349 -0.062872
v 0.035186 -0.007347 -0.062870
v -0.035264 -0.359936 0.416882
v -0.035262 -0.413825 0.422357
v -0.035263 -0.407444 0.458850
v -0.035259 -0.494551 0.435878
v -0.035261 -0.487960 0.473220
v 0.035188 -0.487960 0.473222
v -0.035261 -0.497637 0.498362
v 0.035188 -0.497636 0.498363
v 0.035186 -0.407443 0.458851
v 0.035185 -0.388743 0.479727
v -0.035264 -0.388745 0.479725
v -0.035259 -0.528998 0.454501
v -0.035244 -0.424375 -0.260961
v 0.035207 -0.351693 -0.445913
v -0.035242 -0.351695 -0.445915
v -0.035244 -0.332257 -0.382936
v -0.035243 -0.331887 -0.444771
v -0.035243 -0.319559 -0.444365
v -0.035244 -0.317561 -0.406446
v 0.035206 -0.331885 -0.444770
v 0.035204 -0.332256 -0.382935
v 0.035206 -0.319559 -0.444362
v 0.035205 -0.317561 -0.406445
v 0.035200 -0.205761 -0.385807
v 0.035195 -0.132629 -0.284328
v 0.035189 -0.075943 -0.097847
v 0.035286 0.004904 -0.197243
v 0.035285 0.010744 -0.167665
v -0.035253 -0.132631 -0.284330
v -0.035260 -0.075946 -0.097848
v -0.035068 0.010741 -0.167667
v -0.035248 -0.205763 -0.385808
v -0.035067 0.004901 -0.197245
v -0.035066 0.010825 -0.226806
v -0.035066 0.027610 -0.251850
v 0.035287 0.010827 -0.226805
v 0.035201 -0.166691 -0.442998
v 0.035287 0.027612 -0.251848
v -0.035067 0.052701 -0.268564
v 0.035286 0.052704 -0.268562
v 0.035285 0.082281 -0.274403
v -0.035067 0.082279 -0.274405
v 0.035289 0.031461 -0.338984
v 0.035290 0.031517 -0.378735
v -0.035063 0.031515 -0.378737
v 0.035286 0.105579 -0.338803
v -0.035064 0.031459 -0.338987
v -0.035248 -0.166693 -0.442999
v -0.035066 0.105577 -0.338805
v -0.035065 0.105633 -0.378633
v 0.035287 0.105635 -0.378631
v -0.035262 0.284279 -0.479350
v -0.035265 0.337078 -0.417689
v -0.035265 0.348682 -0.442870
v 0.035187 0.284281 -0.479348
v -0.035069 0.111840 -0.268481
v -0.035264 0.341906 -0.480231
v 0.035184 0.348682 -0.442867
v 0.035185 0.341905 -0.480227
v 0.035183 0.337078 -0.417688
v 0.035282 0.153601 -0.226603
v 0.035283 0.136887 -0.251695
v 0.035180 0.462194 -0.436533
v 0.035284 0.111842 -0.268479
v 0.035175 0.459122 -0.233036
v 0.035175 0.528998 -0.344105
v 0.035170 0.432608 -0.016436
v 0.035169 0.481274 -0.026351
v 0.035180 0.489056 -0.498362
v -0.035274 0.528996 -0.344107
v 0.035159 0.492559 0.325478
v -0.035289 0.492556 0.325475
v 0.035161 0.433494 0.329779
v -0.035287 0.433492 0.329777
v -0.035285 0.340745 0.343451
v -0.035276 0.284015 0.091424
v -0.035289 0.440045 0.366288
v -0.035278 0.225054 0.242557
v -0.035275 0.197322 0.138013
v -0.035280 0.481271 -0.026352
v -0.035286 0.347522 0.380812
v -0.035284 0.406067 0.217155
v 0.035165 0.406070 0.217158
v -0.035279 0.432606 -0.016437
v -0.035274 0.459120 -0.233038
v -0.035071 0.153599 -0.226605
v -0.035072 0.159439 -0.197027
v -0.035274 0.263226 0.021389
v -0.035072 0.153515 -0.167465
v -0.035072 0.136730 -0.142422
v 0.035280 0.153518 -0.167464
v 0.035281 0.159441 -0.197025
v 0.035175 0.263228 0.021391
v 0.035280 0.136733 -0.142420
v -0.035072 0.111639 -0.125707
v 0.035281 0.111641 -0.125706
v 0.035181 0.138959 -0.062665
v -0.035071 0.082061 -0.119867
v 0.035282 0.082064 -0.119864
v -0.035070 0.052500 -0.125791
v 0.035283 0.052502 -0.125789
v -0.035069 0.027456 -0.142575
v 0.035284 0.027458 -0.142573
v -0.035268 0.138957 -0.062666
v 0.035174 0.197324 0.138014
v 0.035171 0.225055 0.242560
v 0.035172 0.284017 0.091426
v 0.035164 0.340745 0.343455
v 0.035166 0.283516 0.344335
v -0.035283 0.283514 0.344334
v 0.035163 0.347522 0.380815
v 0.035160 0.440047 0.366291
v 0.035162 0.335918 0.405995
v 0.035159 0.461034 0.387149
v -0.035286 0.335917 0.405993
v -0.035290 0.461032 0.387148
v -0.035070 0.136884 -0.251697
v -0.035269 0.462193 -0.436534
v -0.035268 0.489053 -0.498363
v -0.035267 0.434652 -0.493905
v -0.035268 0.441205 -0.457395
v 0.035181 0.441207 -0.457393
v 0.035182 0.434655 -0.493904
v -0.035247 -0.223944 -0.409155
v -0.035246 -0.225827 -0.446201
v 0.035203 -0.225825 -0.446199
v 0.035202 -0.223942 -0.409153
v -0.035262 -0.152935 0.096596
v 0.035190 -0.528996 0.454503
vn -0.0000 -0.5664 -0.8241
vn -0.0000 0.9997 0.0254
vn 1.0000 -0.0000 -0.0000
vn -0.0000 0.9596 0.2815
vn -0.0000 0.6655 0.7464
vn -1.0000 -0.0000 -0.0000
vn -0.0000 0.1011 0.9949
vn -0.0000 0.9851 -0.1722
vn -0.0000 -0.9848 0.1738
vn -0.0000 -0.9333 -0.3592
vn -0.0000 0.1687 0.9857
vn -0.0000 0.7449 -0.6672
vn -0.0000 0.4756 0.8797
vn -0.0000 -0.9307 -0.3657
vn -0.0000 -0.9895 -0.1447
vn -0.0000 0.0577 -0.9983
vn -0.0000 0.0329 -0.9995
vn -0.0000 0.0331 -0.9995
vn -0.0000 0.0576 -0.9983
vn -0.0000 0.9986 -0.0526
vn -0.0000 0.8480 0.5300
vn -0.0000 -0.0227 -0.9997
vn 1.0000 -0.0009 0.0003
vn -0.0000 -0.9568 0.2908
vn 1.0000 -0.0008 0.0002
vn 1.0000 -0.0013 0.0010
vn -0.0000 -0.0140 0.9999
vn -1.0000 0.0018 -0.0006
vn -1.0000 0.0016 -0.0003
vn -1.0000 0.0026 -0.0019
vn -0.0000 0.9811 -0.1937
vn -0.0000 0.9805 0.1965
vn -1.0000 0.0007 0.0001
vn -1.0000 0.0006 0.0004
vn -0.0000 0.8307 0.5567
vn 1.0000 -0.0004 -0.0001
vn 1.0000 -0.0003 -0.0002
vn -0.0000 0.8307 0.5568
vn -0.0000 0.5544 0.8323
vn 1.0000 -0.0002 -0.0003
vn -0.0000 0.1937 0.9811
vn 1.0000 -0.0006 0.0002
vn 1.0000 -0.0005 -0.0000
vn -0.0000 1.0000 0.0014
vn -0.0000 0.0024 -1.0000
vn -1.0000 0.0009 -0.0000
vn -1.0000 0.0011 -0.0004
vn -0.0000 0.0025 -1.0000
vn -1.0000 -0.0015 -0.0006
vn -1.0000 -0.0011 -0.0000
vn -0.0000 -1.0000 -0.0014
vn -1.0000 -0.0006 0.0004
vn -1.0000 -0.0000 0.0019
vn -1.0000 0.0002 0.0024
vn -0.0000 -0.0803 -0.9968
vn -0.0000 -0.0153 -0.9999
vn -1.0000 -0.0002 0.0008
vn 0.0001 -0.0153 -0.9999
vn -0.0000 0.9839 -0.1785
vn -0.0000 0.9082 0.4186
vn -0.0000 -0.1489 -0.9888
vn -0.0000 0.9082 0.4185
vn 1.0000 0.0003 -0.0002
vn 1.0000 0.0002 -0.0003
vn -0.0000 0.9681 -0.2507
vn -0.0000 0.9985 0.0543
vn -0.0000 0.0726 0.9974
vn -0.0000 0.9843 -0.1767
vn -0.0000 0.7175 -0.6965
vn -0.0000 -0.9936 -0.1129
vn -0.0000 -0.9926 -0.1215
vn -0.0000 0.7924 0.6101
vn -1.0000 -0.0007 0.0001
vn -1.0000 -0.0007 0.0004
vn -1.0000 -0.0007 -0.0001
vn -1.0000 -0.0008 -0.0006
vn -0.0000 -0.8307 -0.5568
vn -0.0000 -0.9805 -0.1965
vn 1.0000 0.0004 0.0001
vn 1.0000 0.0004 -0.0000
vn -0.0000 -0.9811 0.1937
vn 1.0000 0.0004 0.0003
vn -0.0000 -0.8307 -0.5567
vn -0.0000 -0.5544 -0.8322
vn -0.0000 -0.5544 -0.8323
vn 1.0000 0.0003 0.0004
vn 1.0000 0.0003 0.0015
vn 1.0000 -0.0014 0.0022
vn -0.0000 -0.1937 -0.9811
vn -0.0000 0.1965 -0.9805
vn 1.0000 -0.0004 0.0022
vn -0.0000 0.5567 -0.8307
vn 1.0000 -0.0000 0.0016
vn 1.0000 -0.0006 0.0010
vn -0.0000 0.8323 -0.5544
vn 1.0000 -0.0011 0.0008
vn -1.0000 0.0012 -0.0019
vn -1.0000 0.0022 -0.0015
vn -1.0000 0.0008 -0.0042
vn -1.0000 -0.0000 -0.0031
vn -1.0000 0.0029 -0.0044
vn -0.0000 -0.9602 0.2793
vn -0.0000 -0.0014 1.0000
vn -1.0000 -0.0006 -0.0029
vn -0.0000 -0.9666 0.2564
vn -0.0000 0.9587 -0.2846
vn -0.0000 -0.8671 0.4981
vn -0.0001 0.0154 0.9999
vn -0.0000 0.0154 0.9999
vn -0.0000 -0.9839 0.1785
vn -0.0000 -0.9082 -0.4185
vn -0.0000 0.1490 0.9888
vn -0.0000 0.1489 0.9888
vn -0.0000 0.7049 -0.7093
vn -0.0000 0.9843 -0.1766
vn -1.0000 -0.0006 -0.0008
vn -0.0000 -0.8322 0.5544
vn -0.0000 -0.8323 0.5544
vn -1.0000 -0.0005 0.0006
vn -0.0000 -0.5567 0.8307
vn -0.0000 -0.0817 -0.9967
vn -0.0000 -0.9843 0.1766
vn -0.0000 -0.7050 0.7092
vn -0.0000 -0.9843 0.1767
vn 1.0000 0.0001 -0.0004
vn -0.0000 -0.1965 0.9805
vn 1.0000 0.0008 0.0003
vn 1.0000 0.0006 -0.0000
vn 1.0000 -0.0001 -0.0012
vn 1.0000 -0.0000 -0.0009
vn -1.0000 0.0004 0.0006
vn -0.0000 0.0541 -0.9985
vn -0.0000 -0.9987 0.0508
vn -0.0000 -0.7890 0.6144
vn -1.0000 0.0008 -0.0017
vn -0.0000 -0.9298 -0.3681
vn 1.0000 -0.0004 0.0009
s 0
usemtl [Chris_Shoe_Sole]1
f 1//1 2//1 8//1
f 7//2 2//2 1//2
f 1//3 3//3 4//3
f 1//3 6//3 3//3
f 1//3 4//3 9//3
f 5//2 7//2 1//2
f 1//3 9//3 5//3
f 10//3 6//3 1//3
f 1//3 8//3 10//3
f 12//4 11//4 10//4
f 10//5 11//5 14//5
f 10//5 14//5 6//5
f 13//4 12//4 10//4
f 13//3 10//3 8//3
f 2//6 15//6 14//6
f 11//6 2//6 14//6
f 3//7 6//7 14//7
f 3//7 14//7 15//7
f 3//8 15//8 16//8
f 16//6 15//6 18//6
f 2//6 17//6 15//6
f 15//6 17//6 18//6
f 17//9 19//9 18//9
f 18//10 19//10 21//10
f 16//6 18//6 20//6
f 18//10 21//10 20//10
f 22//3 21//3 19//3
f 23//3 21//3 22//3
f 21//11 23//11 20//11
f 22//12 24//12 23//12
f 23//11 24//11 20//11
f 22//12 16//12 24//12
f 24//6 16//6 20//6
f 3//8 16//8 22//8
f 22//3 19//3 3//3
f 3//3 19//3 4//3
f 17//9 4//9 19//9
f 26//6 25//6 17//6
f 4//13 17//13 25//13
f 2//6 26//6 17//6
f 7//6 26//6 2//6
f 27//14 9//14 26//14
f 28//14 27//14 26//14
f 30//6 28//6 26//6
f 7//6 29//6 26//6
f 30//6 26//6 29//6
f 26//15 9//15 25//15
f 33//16 28//16 30//16
f 32//6 30//6 29//6
f 32//6 31//6 30//6
f 33//17 30//17 31//17
f 33//3 34//3 9//3
f 36//3 34//3 33//3
f 36//3 33//3 35//3
f 35//18 33//18 31//18
f 33//3 9//3 27//3
f 33//19 27//19 28//19
f 31//20 32//20 36//20
f 32//21 34//21 36//21
f 31//20 36//20 35//20
f 32//21 29//21 34//21
f 37//22 34//22 29//22
f 38//3 34//3 37//3
f 5//3 9//3 34//3
f 38//3 5//3 34//3
f 41//23 39//23 38//23
f 38//24 39//24 42//24
f 41//25 38//25 40//25
f 40//26 38//26 37//26
f 5//27 38//27 42//27
f 44//28 42//28 43//28
f 42//24 39//24 43//24
f 44//29 46//29 42//29
f 46//30 45//30 42//30
f 42//6 45//6 29//6
f 5//27 42//27 7//27
f 42//6 29//6 7//6
f 46//31 44//31 41//31
f 40//31 46//31 41//31
f 47//32 46//32 40//32
f 47//33 45//33 46//33
f 48//34 45//34 47//34
f 48//35 47//35 49//35
f 49//32 47//32 40//32
f 49//36 40//36 37//36
f 49//37 37//37 50//37
f 51//37 49//37 50//37
f 51//38 48//38 49//38
f 51//39 52//39 48//39
f 53//40 51//40 50//40
f 51//39 53//39 52//39
f 54//3 53//3 56//3
f 53//41 54//41 55//41
f 53//41 55//41 52//41
f 53//42 50//42 56//42
f 56//43 50//43 57//43
f 57//44 58//44 56//44
f 58//44 60//44 56//44
f 59//3 54//3 56//3
f 59//45 56//45 60//45
f 60//46 58//46 61//46
f 52//47 60//47 61//47
f 55//6 60//6 52//6
f 59//48 60//48 62//48
f 62//6 60//6 55//6
f 65//49 62//49 55//49
f 65//50 63//50 62//50
f 63//51 64//51 62//51
f 64//51 59//51 62//51
f 66//52 65//52 69//52
f 67//6 65//6 66//6
f 67//6 70//6 65//6
f 65//53 58//53 63//53
f 65//54 61//54 58//54
f 68//55 50//55 65//55
f 68//56 65//56 70//56
f 50//55 61//55 65//55
f 65//57 55//57 69//57
f 72//58 68//58 70//58
f 70//59 67//59 71//59
f 70//59 71//59 72//59
f 71//3 68//3 72//3
f 71//3 73//3 68//3
f 67//60 73//60 71//60
f 76//61 73//61 66//61
f 67//62 66//62 73//62
f 73//63 74//63 75//63
f 78//63 74//63 73//63
f 73//64 75//64 77//64
f 79//3 73//3 76//3
f 73//63 77//63 68//63
f 79//3 78//3 73//3
f 79//3 81//3 80//3
f 79//3 80//3 78//3
f 79//3 84//3 81//3
f 79//3 76//3 82//3
f 82//65 83//65 79//65
f 79//66 83//66 84//66
f 84//67 85//67 87//67
f 83//66 85//66 84//66
f 84//3 86//3 81//3
f 86//67 84//67 87//67
f 87//6 91//6 88//6
f 87//6 88//6 94//6
f 87//6 95//6 89//6
f 87//6 89//6 92//6
f 90//6 87//6 94//6
f 86//68 87//68 90//68
f 87//6 92//6 91//6
f 93//6 95//6 87//6
f 85//6 93//6 87//6
f 89//69 95//69 96//69
f 97//70 96//70 95//70
f 93//6 97//6 95//6
f 98//71 80//71 97//71
f 83//6 98//6 97//6
f 83//6 97//6 93//6
f 97//70 80//70 96//70
f 78//72 98//72 101//72
f 98//71 78//71 80//71
f 98//73 99//73 100//73
f 98//74 66//74 99//74
f 83//6 66//6 98//6
f 98//75 100//75 102//75
f 98//76 102//76 101//76
f 101//76 102//76 103//76
f 102//77 104//77 103//77
f 105//78 104//78 102//78
f 100//78 105//78 102//78
f 78//79 104//79 105//79
f 78//80 105//80 74//80
f 74//81 105//81 100//81
f 78//82 106//82 104//82
f 104//83 107//83 103//83
f 106//82 107//82 104//82
f 107//84 108//84 103//84
f 107//85 109//85 108//85
f 106//86 109//86 107//86
f 110//87 112//87 109//87
f 106//88 110//88 109//88
f 109//89 111//89 108//89
f 109//89 112//89 111//89
f 112//90 113//90 111//90
f 112//90 114//90 113//90
f 110//91 114//91 112//91
f 114//92 115//92 113//92
f 114//92 116//92 115//92
f 110//93 13//93 114//93
f 114//94 13//94 116//94
f 44//95 115//95 116//95
f 116//96 13//96 41//96
f 41//95 44//95 116//95
f 113//97 115//97 12//97
f 115//98 44//98 12//98
f 117//99 111//99 113//99
f 117//100 113//100 12//100
f 101//101 108//101 117//101
f 101//6 117//6 92//6
f 117//102 110//102 118//102
f 117//102 118//102 92//102
f 13//103 117//103 12//103
f 117//104 108//104 111//104
f 13//103 110//103 117//103
f 106//3 118//3 110//3
f 92//105 118//105 119//105
f 86//3 119//3 118//3
f 120//3 118//3 106//3
f 86//3 118//3 120//3
f 106//106 101//106 120//106
f 86//3 120//3 96//3
f 120//69 89//69 96//69
f 101//106 89//106 120//106
f 92//105 119//105 91//105
f 121//3 122//3 119//3
f 86//3 121//3 119//3
f 91//107 119//107 122//107
f 122//108 121//108 88//108
f 122//109 88//109 123//109
f 91//107 122//107 123//107
f 88//6 91//6 123//6
f 86//3 124//3 121//3
f 88//110 121//110 124//110
f 88//110 124//110 94//110
f 125//3 124//3 86//3
f 94//111 124//111 126//111
f 125//3 126//3 124//3
f 127//3 126//3 125//3
f 126//112 127//112 128//112
f 94//111 126//111 128//111
f 90//6 94//6 128//6
f 129//6 90//6 128//6
f 127//113 129//113 128//113
f 125//114 90//114 129//114
f 127//114 125//114 129//114
f 86//115 90//115 125//115
f 101//116 103//116 108//116
f 78//72 101//72 106//72
f 89//6 101//6 92//6
f 99//81 74//81 100//81
f 66//74 130//74 99//74
f 130//117 75//117 99//117
f 75//118 74//118 99//118
f 66//119 69//119 130//119
f 77//120 130//120 69//120
f 77//120 75//120 130//120
f 81//3 96//3 80//3
f 81//3 86//3 96//3
f 83//6 93//6 85//6
f 83//6 131//6 66//6
f 83//6 132//6 131//6
f 82//65 132//65 83//65
f 82//121 133//121 132//121
f 132//6 133//6 134//6
f 132//6 134//6 131//6
f 136//122 135//122 134//122
f 135//123 131//123 134//123
f 133//124 136//124 134//124
f 82//3 135//3 136//3
f 82//121 136//121 133//121
f 82//3 76//3 135//3
f 135//123 76//123 131//123
f 76//61 66//61 131//61
f 68//125 77//125 54//125
f 54//126 77//126 69//126
f 54//126 69//126 55//126
f 68//127 54//127 59//127
f 68//128 59//128 64//128
f 68//129 57//129 50//129
f 68//130 64//130 57//130
f 57//103 64//103 63//103
f 57//103 63//103 58//103
f 52//131 61//131 48//131
f 50//132 138//132 61//132
f 61//6 138//6 137//6
f 61//6 137//6 45//6
f 48//34 61//34 45//34
f 50//132 139//132 138//132
f 138//133 139//133 137//133
f 139//133 140//133 137//133
f 50//3 140//3 139//3
f 140//134 37//134 45//134
f 137//134 140//134 45//134
f 50//3 37//3 140//3
f 37//22 29//22 45//22
f 44//135 43//135 12//135
f 12//6 43//6 141//6
f 43//136 8//136 141//136
f 39//136 8//136 43//136
f 11//6 141//6 2//6
f 12//6 141//6 11//6
f 8//1 2//1 141//1
f 41//137 13//137 39//137
f 13//3 8//3 39//3
f 9//15 142//15 25//15
f 142//13 4//13 25//13
f 9//3 4//3 142//3
