# Blender 5.0.1
# www.blender.org
mtllib right_wrist_z_link_visual_4.mtl
o RotaWrist3V3_visual.001
v -0.231077 -0.095565 -0.035103
v -0.231296 -0.093486 -0.031300
v -0.243654 -0.078109 -0.042815
v -0.243672 -0.079858 -0.046763
v -0.243611 -0.081717 -0.050664
v -0.230858 -0.097644 -0.038905
v -0.243715 -0.076249 -0.038916
v -0.231516 -0.091407 -0.027496
v -0.243696 -0.074500 -0.034966
v 0.153307 0.138199 -0.134062
v 0.153527 0.136120 -0.137865
v 0.140950 0.153576 -0.145578
v 0.140889 0.155436 -0.141678
v 0.140907 0.157185 -0.137730
v 0.153088 0.140278 -0.130260
v 0.140932 0.151827 -0.149527
v 0.153746 0.134041 -0.141668
v 0.140992 0.149968 -0.153426
v -0.229500 -0.102942 -0.045644
v -0.230179 -0.100293 -0.042274
v -0.243168 -0.094792 -0.078439
v -0.241939 -0.098796 -0.082808
v -0.241130 -0.101286 -0.085329
v -0.228821 -0.105591 -0.049013
v -0.243686 -0.086536 -0.061775
v 0.154425 0.131392 -0.145038
v 0.155104 0.128743 -0.148407
v 0.141435 0.136893 -0.181202
v 0.140918 0.145148 -0.164538
v 0.142665 0.132888 -0.185572
v 0.155783 0.126094 -0.151776
v 0.143474 0.130399 -0.188092
v -0.226596 -0.111825 -0.054627
v -0.227709 -0.108708 -0.051820
v -0.239019 -0.105351 -0.086463
v -0.238021 -0.107221 -0.086875
v -0.236566 -0.109891 -0.087387
v -0.225484 -0.114942 -0.057434
v -0.240246 -0.102997 -0.085812
v 0.156895 0.122977 -0.154583
v 0.158008 0.119860 -0.157390
v 0.145585 0.126334 -0.189226
v 0.144358 0.128687 -0.188575
v 0.146583 0.124464 -0.189638
v 0.159120 0.116743 -0.160196
v 0.148038 0.121793 -0.190149
v -0.222477 -0.121873 -0.061707
v -0.223980 -0.118407 -0.059570
v -0.232647 -0.117184 -0.089052
v -0.231144 -0.119979 -0.089672
v -0.229640 -0.122757 -0.090254
v -0.220973 -0.125338 -0.063843
v -0.234150 -0.114472 -0.088622
v 0.160623 0.113277 -0.162333
v 0.162127 0.109812 -0.164470
v 0.151957 0.114501 -0.191814
v 0.150453 0.117213 -0.191384
v 0.153460 0.111706 -0.192434
v 0.163630 0.106347 -0.166606
v 0.154964 0.108928 -0.193016
v -0.217301 -0.133301 -0.067974
v -0.219137 -0.129018 -0.065226
v -0.225967 -0.129279 -0.091125
v -0.224131 -0.132457 -0.091371
v -0.222295 -0.135635 -0.091616
v -0.215465 -0.136981 -0.069357
v -0.227804 -0.126102 -0.090878
v 0.165467 0.102667 -0.167989
v 0.167303 0.098383 -0.170737
v 0.158636 0.102405 -0.193888
v 0.156800 0.105582 -0.193642
v 0.160473 0.099227 -0.194134
v 0.169139 0.094703 -0.172120
v 0.162309 0.096049 -0.194380
v -0.211267 -0.143887 -0.069148
v -0.213366 -0.140133 -0.068570
v -0.218097 -0.142808 -0.092013
v -0.215998 -0.146311 -0.092023
v -0.213899 -0.149562 -0.091463
v -0.209168 -0.148746 -0.072228
v -0.220196 -0.139221 -0.091815
v 0.171238 0.091552 -0.171334
v 0.173337 0.087798 -0.171911
v 0.166507 0.088877 -0.194777
v 0.164408 0.092463 -0.194578
v 0.168606 0.085374 -0.194786
v 0.175436 0.082939 -0.174991
v 0.170705 0.082123 -0.194226
v -0.204606 -0.156715 -0.073092
v -0.206887 -0.154137 -0.075843
v -0.209338 -0.156734 -0.090522
v -0.207057 -0.160166 -0.089703
v -0.204777 -0.163849 -0.089452
v -0.202326 -0.161905 -0.076251
v -0.211618 -0.153162 -0.091022
v 0.177717 0.077548 -0.178605
v 0.179997 0.074970 -0.175854
v 0.175266 0.074951 -0.193285
v 0.172985 0.078523 -0.193786
v 0.177547 0.071519 -0.192465
v 0.182278 0.069780 -0.179014
v 0.179827 0.067836 -0.192214
v -0.197576 -0.170957 -0.078889
v -0.199951 -0.165376 -0.075183
v -0.200027 -0.170791 -0.087315
v -0.197652 -0.174263 -0.086246
v -0.195277 -0.177566 -0.084799
v -0.195201 -0.174429 -0.077821
v -0.202402 -0.167320 -0.088384
v 0.184653 0.066308 -0.177945
v 0.187028 0.060727 -0.181652
v 0.184577 0.060893 -0.190077
v 0.182202 0.064365 -0.191146
v 0.186952 0.057422 -0.189009
v 0.189403 0.057256 -0.180584
v 0.189327 0.054119 -0.187561
v -0.190445 -0.180680 -0.074129
v -0.192823 -0.177554 -0.075975
v -0.190521 -0.183985 -0.081486
v -0.188144 -0.187111 -0.079639
v -0.185766 -0.190236 -0.077794
v -0.188068 -0.181696 -0.067508
v -0.192899 -0.180859 -0.083331
v 0.191781 0.054131 -0.178738
v 0.194158 0.051005 -0.176891
v 0.194082 0.047700 -0.184248
v 0.191705 0.050825 -0.186094
v 0.196460 0.044574 -0.182403
v 0.196536 0.049989 -0.170270
v 0.198838 0.041448 -0.180556
v -0.183489 -0.185508 -0.058991
v -0.185778 -0.184355 -0.064956
v -0.181187 -0.196310 -0.074395
v -0.178898 -0.199499 -0.073041
v -0.176608 -0.202578 -0.071436
v -0.181200 -0.188168 -0.056439
v -0.183476 -0.193231 -0.076000
v 0.198825 0.047329 -0.167718
v 0.201115 0.046177 -0.161754
v 0.203417 0.035375 -0.177157
v 0.201127 0.038453 -0.178762
v 0.205706 0.032186 -0.175803
v 0.203404 0.043517 -0.159202
v 0.207995 0.029107 -0.174199
v -0.176974 -0.191749 -0.048754
v -0.179087 -0.189657 -0.051913
v -0.172383 -0.208102 -0.068148
v -0.170270 -0.210948 -0.066693
v -0.168157 -0.213710 -0.065049
v -0.174861 -0.193841 -0.045592
v -0.174495 -0.205424 -0.069982
v 0.205517 0.042028 -0.154676
v 0.207630 0.039936 -0.151516
v 0.212221 0.023583 -0.170911
v 0.210108 0.026261 -0.172744
v 0.214334 0.020737 -0.169456
v 0.209743 0.037844 -0.148355
v 0.216447 0.017975 -0.167812
v -0.171151 -0.196227 -0.037161
v -0.173006 -0.194783 -0.040809
v -0.163779 -0.219380 -0.061539
v -0.161683 -0.222023 -0.059691
v -0.159586 -0.224733 -0.057998
v -0.169295 -0.197067 -0.032149
v -0.166167 -0.216297 -0.063476
v 0.211598 0.036902 -0.143571
v 0.213453 0.035458 -0.139923
v 0.220934 0.012140 -0.164263
v 0.218436 0.015388 -0.166239
v 0.223030 0.009498 -0.162416
v 0.215308 0.034618 -0.134912
v 0.225126 0.006788 -0.160722
v -0.166243 -0.198547 -0.024160
v -0.167769 -0.197808 -0.028154
v -0.155817 -0.229464 -0.054646
v -0.154068 -0.231584 -0.052924
v -0.151910 -0.234251 -0.050916
v -0.164716 -0.199287 -0.020165
v -0.157430 -0.227417 -0.056026
v 0.216835 0.033878 -0.130918
v 0.218361 0.033138 -0.126923
v 0.228896 0.002056 -0.157371
v 0.227283 0.004104 -0.158750
v 0.230646 -0.000063 -0.155648
v 0.219887 0.032398 -0.122928
v 0.232803 -0.002731 -0.153640
v -0.162439 -0.199303 -0.011790
v -0.163578 -0.199295 -0.015979
v -0.141185 -0.247488 -0.040706
v -0.141176 -0.240619 -0.025173
v -0.141138 -0.230777 -0.002961
v -0.161300 -0.199310 -0.007604
v -0.150043 -0.236479 -0.048997
v 0.221026 0.032390 -0.118741
v 0.222165 0.032382 -0.114553
v 0.243552 -0.016000 -0.143415
v 0.234670 -0.004958 -0.151721
v 0.243561 -0.009131 -0.127883
v 0.223304 0.032375 -0.110366
v 0.243599 0.000723 -0.105642
v -0.159885 -0.197861 0.000836
v -0.160593 -0.198586 -0.003384
v -0.141109 -0.227404 0.004628
v -0.141095 -0.225716 0.008423
v -0.141081 -0.224029 0.012218
v -0.159178 -0.197136 0.005055
v -0.141124 -0.229090 0.000834
v 0.224011 0.033099 -0.106147
v 0.224718 0.033824 -0.101927
v 0.243627 0.004097 -0.098053
v 0.243613 0.002410 -0.101848
v 0.243641 0.005784 -0.094258
v 0.225426 0.034549 -0.097707
v 0.243656 0.007471 -0.090464
v -0.158680 -0.194278 0.013235
v -0.158929 -0.195707 0.009145
v -0.141052 -0.220521 0.020109
v -0.141037 -0.218767 0.024055
v -0.141022 -0.217013 0.028001
v -0.158432 -0.192848 0.017324
v -0.141066 -0.222275 0.016164
v 0.225675 0.035978 -0.093617
v 0.225923 0.037408 -0.089528
v 0.243685 0.010979 -0.082572
v 0.243670 0.009225 -0.086518
v 0.243700 0.012733 -0.078626
v 0.226172 0.038837 -0.085439
v 0.243715 0.014488 -0.074679
v 0.086663 0.159059 -0.045038
v 0.086640 0.122774 -0.127142
v 0.086697 0.120913 -0.131041
v -0.188734 -0.006944 0.028309
v -0.188756 -0.043160 -0.053640
v -0.188700 -0.045022 -0.057539
v 0.086674 0.119161 -0.134988
v 0.086731 0.117299 -0.138886
v -0.188722 -0.046774 -0.061487
v -0.188666 -0.048636 -0.065385
v 0.086652 0.112477 -0.149998
v 0.087165 0.104219 -0.166659
v -0.188745 -0.053458 -0.076496
v -0.188231 -0.061715 -0.093158
v 0.088391 0.100212 -0.171029
v 0.089196 0.097720 -0.173549
v -0.187005 -0.065722 -0.097527
v -0.186201 -0.068215 -0.100047
v 0.090076 0.096007 -0.174029
v 0.091299 0.093650 -0.174680
v -0.185320 -0.069928 -0.100528
v -0.184097 -0.072284 -0.101178
v 0.092294 0.091778 -0.175092
v 0.093745 0.089105 -0.175602
v -0.183103 -0.074156 -0.101590
v -0.181652 -0.076829 -0.102100
v 0.096157 0.084523 -0.176836
v 0.097657 0.081810 -0.177265
v -0.179239 -0.081412 -0.103334
v -0.177739 -0.084125 -0.103764
v 0.099157 0.079013 -0.177884
v 0.100658 0.076232 -0.178465
v -0.176239 -0.086922 -0.104383
v -0.174739 -0.089703 -0.104963
v 0.102491 0.072885 -0.179090
v 0.104325 0.069706 -0.179335
v -0.172905 -0.093049 -0.105588
v -0.171072 -0.096228 -0.105833
v 0.106159 0.066527 -0.179580
v 0.107992 0.063347 -0.179825
v -0.169238 -0.099408 -0.106078
v -0.167404 -0.102587 -0.106323
v 0.110089 0.059760 -0.180023
v 0.112186 0.056172 -0.180222
v -0.165307 -0.106175 -0.106522
v -0.163210 -0.109763 -0.106720
v 0.114283 0.052668 -0.180230
v 0.116380 0.049416 -0.179669
v -0.161114 -0.113266 -0.106729
v -0.159017 -0.116519 -0.106168
v 0.118659 0.045816 -0.179229
v 0.120939 0.042242 -0.178727
v -0.156737 -0.120119 -0.105728
v -0.154458 -0.123693 -0.105227
v 0.123218 0.038810 -0.177908
v 0.125498 0.035126 -0.177657
v -0.152178 -0.127125 -0.104406
v -0.149899 -0.130809 -0.104156
v 0.127872 0.031654 -0.176588
v 0.130247 0.028183 -0.175519
v -0.147524 -0.134281 -0.103087
v -0.145150 -0.137752 -0.102018
v 0.132621 0.024711 -0.174451
v 0.134996 0.021408 -0.173003
v -0.142775 -0.141223 -0.100949
v -0.140401 -0.144527 -0.099502
v 0.137374 0.018115 -0.171536
v 0.139752 0.014989 -0.169690
v -0.138023 -0.147820 -0.098035
v -0.135645 -0.150945 -0.096189
v 0.142130 0.011864 -0.167845
v 0.144508 0.008739 -0.165998
v -0.133266 -0.154071 -0.094343
v -0.130888 -0.157196 -0.092498
v 0.146799 0.005744 -0.164206
v 0.149089 0.002666 -0.162601
v -0.128597 -0.160190 -0.090704
v -0.126307 -0.163268 -0.089100
v 0.151380 -0.000522 -0.161247
v 0.153671 -0.003600 -0.159642
v -0.124017 -0.166457 -0.087746
v -0.121726 -0.169535 -0.086141
v 0.155785 -0.006445 -0.158188
v 0.157900 -0.009122 -0.156356
v -0.119611 -0.172380 -0.084687
v -0.117496 -0.175057 -0.082854
v 0.160015 -0.011967 -0.154902
v 0.162130 -0.014728 -0.153258
v -0.115381 -0.177902 -0.081400
v -0.113266 -0.180662 -0.079757
v 0.164122 -0.017312 -0.151685
v 0.166608 -0.020536 -0.149715
v -0.111274 -0.183247 -0.078184
v -0.108868 -0.186352 -0.076241
v 0.168706 -0.023177 -0.147868
v 0.170805 -0.025886 -0.146176
v -0.106770 -0.188993 -0.074395
v -0.104670 -0.191701 -0.072701
v 0.172965 -0.028568 -0.144204
v 0.174581 -0.030613 -0.142827
v -0.102510 -0.194383 -0.070730
v -0.100894 -0.196428 -0.069353
v 0.176334 -0.032730 -0.141105
v 0.178495 -0.035396 -0.139098
v -0.099141 -0.198546 -0.067631
v -0.096981 -0.201211 -0.065623
v 0.180366 -0.037621 -0.137179
v 0.189248 -0.048656 -0.128877
v -0.095110 -0.203437 -0.063706
v -0.086244 -0.214449 -0.055413
v 0.189260 -0.041784 -0.113346
v 0.189302 -0.031929 -0.091109
v -0.086231 -0.207578 -0.039882
v -0.086190 -0.197732 -0.017667
v 0.189320 -0.030240 -0.087316
v 0.189339 -0.028551 -0.083523
v -0.086171 -0.196043 -0.013873
v -0.086153 -0.194353 -0.010079
v 0.189357 -0.026861 -0.079729
v 0.189375 -0.025172 -0.075935
v -0.086135 -0.192664 -0.006286
v -0.086116 -0.190975 -0.002493
v 0.189394 -0.023415 -0.071991
v 0.189413 -0.021659 -0.068046
v -0.086097 -0.189218 0.001452
v -0.086078 -0.187461 0.005397
v 0.189432 -0.019902 -0.064101
v 0.189451 0.016388 0.018000
v -0.086059 -0.185705 0.009342
v -0.086040 -0.149483 0.091289
v 0.170056 0.109317 -0.136783
v 0.171456 0.104251 -0.142897
v 0.170093 0.115761 -0.122257
v 0.169577 0.113229 -0.129826
v 0.213813 0.051830 -0.102696
v 0.213401 0.055649 -0.095698
v 0.203775 0.050816 -0.142256
v 0.207183 0.048659 -0.134407
v 0.209984 0.047896 -0.125693
v 0.212071 0.047877 -0.117987
v 0.213364 0.049206 -0.110222
v 0.179560 0.084427 -0.157107
v 0.182742 0.077870 -0.159956
v 0.186940 0.069588 -0.162907
v 0.191310 0.061093 -0.165716
v 0.195683 0.057452 -0.157545
v 0.199892 0.054064 -0.149437
v 0.176404 0.091380 -0.153285
v 0.173531 0.098493 -0.148049
v 0.212143 0.060517 -0.089497
v 0.210088 0.066247 -0.084332
v 0.173635 0.116844 -0.106688
v 0.176537 0.115340 -0.099276
v 0.207316 0.072618 -0.080399
v 0.171528 0.116892 -0.114405
v 0.115896 0.083375 -0.107183
v 0.115381 0.080843 -0.114751
v 0.117332 0.084506 -0.099331
v 0.119439 0.084458 -0.091614
v 0.122340 0.082954 -0.084202
v 0.179716 0.112996 -0.092703
v 0.125520 0.080611 -0.077629
v 0.182915 0.110095 -0.087307
v 0.128719 0.077709 -0.072232
v 0.187124 0.105199 -0.082610
v 0.132928 0.072814 -0.067536
v 0.191498 0.099449 -0.079214
v 0.137301 0.067063 -0.064140
v 0.195868 0.093063 -0.077249
v 0.141671 0.060678 -0.062175
v 0.200066 0.086289 -0.076788
v 0.145870 0.053903 -0.061714
v 0.203932 0.079385 -0.077852
v 0.149735 0.047000 -0.062778
v 0.153120 0.040232 -0.065325
v 0.155892 0.033861 -0.069257
v 0.157947 0.028131 -0.074423
v 0.159204 0.023263 -0.080624
v 0.159616 0.019444 -0.087623
v 0.159167 0.016820 -0.095148
v 0.157875 0.015491 -0.102913
v 0.155787 0.015510 -0.110620
v 0.152987 0.016273 -0.119333
v 0.149579 0.018430 -0.127182
v 0.145696 0.021678 -0.134363
v 0.141487 0.025066 -0.142471
v 0.137113 0.028707 -0.150642
v 0.132743 0.037202 -0.147833
v 0.128545 0.045484 -0.144881
v 0.125364 0.052041 -0.142033
v 0.122207 0.058995 -0.138210
v 0.119334 0.066108 -0.132976
v 0.117259 0.071865 -0.127823
v 0.115859 0.076931 -0.121709
v -0.160331 -0.085319 -0.041251
v -0.159815 -0.082788 -0.033683
v -0.214317 -0.115640 -0.019168
v -0.214833 -0.118171 -0.026735
v -0.158380 -0.081657 -0.025830
v -0.212881 -0.114509 -0.011315
v -0.156273 -0.081704 -0.018113
v -0.210774 -0.114556 -0.003597
v -0.153372 -0.083209 -0.010701
v -0.207873 -0.116061 0.003814
v -0.150192 -0.085552 -0.004128
v -0.204693 -0.118404 0.010387
v -0.146993 -0.088454 0.001267
v -0.201494 -0.121306 0.015783
v -0.142784 -0.093349 0.005964
v -0.197285 -0.126201 0.020479
v -0.138410 -0.099100 0.009359
v -0.192911 -0.131952 0.023876
v -0.134040 -0.105485 0.011326
v -0.188542 -0.138337 0.025842
v -0.129842 -0.112260 0.011786
v -0.184343 -0.145111 0.026302
v -0.125977 -0.119163 0.010722
v -0.180478 -0.152015 0.025238
v -0.122592 -0.125931 0.008175
v -0.177094 -0.158783 0.022691
v -0.119820 -0.132301 0.004243
v -0.174321 -0.165153 0.018759
v -0.117765 -0.138031 -0.000922
v -0.172266 -0.170883 0.013594
v -0.116508 -0.142899 -0.007124
v -0.171009 -0.175751 0.007392
v -0.116096 -0.146719 -0.014122
v -0.170597 -0.179571 0.000394
v -0.116544 -0.149343 -0.021647
v -0.171046 -0.182195 -0.007132
v -0.117837 -0.150671 -0.029412
v -0.172338 -0.183523 -0.014897
v -0.119924 -0.150652 -0.037119
v -0.174426 -0.183504 -0.022603
v -0.122725 -0.149890 -0.045834
v -0.177226 -0.182742 -0.031318
v -0.126133 -0.147732 -0.053682
v -0.180634 -0.180584 -0.039166
v -0.130016 -0.144484 -0.060863
v -0.184517 -0.177336 -0.046347
v -0.134225 -0.141096 -0.068971
v -0.188726 -0.173948 -0.054455
v -0.138598 -0.137455 -0.077142
v -0.193100 -0.170307 -0.062626
v -0.142968 -0.128960 -0.074332
v -0.197469 -0.161812 -0.059816
v -0.147167 -0.120678 -0.071382
v -0.201668 -0.153530 -0.056866
v -0.150348 -0.114121 -0.068533
v -0.204849 -0.146973 -0.054017
v -0.153505 -0.107168 -0.064711
v -0.208006 -0.140020 -0.050194
v -0.156377 -0.100055 -0.059476
v -0.210879 -0.132907 -0.044959
v -0.158452 -0.094297 -0.054322
v -0.212954 -0.127149 -0.039806
v -0.159852 -0.089231 -0.048208
v -0.214354 -0.122083 -0.033692
v -0.132519 0.134605 0.025487
v -0.096504 0.165347 0.026889
v -0.094949 0.162680 0.027838
v -0.160412 0.161108 0.013778
v -0.168639 0.112858 0.035096
v -0.188263 0.139462 0.023341
v -0.210216 0.103295 0.039322
v -0.179240 0.061286 0.057883
v -0.189843 0.017915 0.077046
v -0.224054 0.064091 0.056643
v -0.229247 0.023361 0.074640
v -0.224909 -0.010108 0.089428
v -0.225595 -0.017336 0.092622
v -0.222442 -0.017805 0.092829
v -0.211330 -0.042107 0.103566
v -0.213234 -0.056429 0.109895
v -0.191870 -0.069148 0.115515
v -0.192647 -0.092421 0.125798
v -0.172411 -0.096188 0.127462
v -0.164616 -0.123929 0.139719
v -0.134860 -0.139509 0.146604
v -0.130224 -0.149740 0.151124
v -0.128726 -0.143763 0.148482
v -0.090796 -0.168864 0.159574
v -0.153702 -0.122186 0.138949
v -0.047840 -0.180563 0.164743
v -0.003011 -0.184387 0.166432
v -0.040244 -0.131581 0.143101
v 0.008375 -0.132811 0.143643
v 0.041969 -0.180192 0.164578
v 0.085374 -0.168139 0.159253
v 0.044509 -0.111055 0.134031
v 0.125533 -0.148693 0.150661
v 0.082082 -0.088432 0.124035
v 0.119652 -0.065812 0.114040
v 0.160904 -0.122598 0.139132
v 0.155772 -0.044064 0.104431
v 0.190124 -0.090859 0.125108
v 0.212077 -0.054692 0.109127
v 0.174210 -0.003382 0.086456
v 0.224322 0.068804 0.054562
v 0.225915 -0.015489 0.091805
v 0.222053 0.075579 0.051568
v 0.212524 0.098547 0.041419
v 0.227452 0.065939 0.055827
v 0.194504 0.141024 0.022651
v 0.215095 0.105032 0.038554
v 0.193810 0.124552 0.029929
v 0.174349 0.151595 0.017981
v 0.154891 0.178633 0.006034
v 0.166477 0.172532 0.008730
v 0.132085 0.198343 -0.002675
v 0.132642 0.196203 -0.001729
v 0.126116 0.201240 -0.003955
v 0.092657 0.217467 -0.011125
v 0.049701 0.229166 -0.016294
v 0.082518 0.181901 0.004590
v 0.043863 0.189297 0.001322
v 0.004872 0.232990 -0.017983
v -0.040108 0.228795 -0.016129
v -0.021241 0.201604 -0.004116
v -0.057375 0.179848 0.005497
v -0.072956 0.214165 -0.009665
v -0.112828 0.157077 0.024574
v -0.130446 0.155405 0.020491
v -0.146677 0.160585 0.015252
v -0.243696 -0.040074 0.042947
v -0.141022 -0.182587 0.105916
v 0.243715 0.049059 0.003564
v 0.140907 0.191757 -0.059485
v -0.168640 0.090780 -0.014870
v -0.021252 0.179520 -0.054079
v 0.009442 -0.157610 0.094880
v 0.157631 -0.068320 0.055428
v -0.212788 0.115473 0.066787
v -0.190317 0.152113 0.050598
v -0.161950 0.174169 0.040854
v -0.083961 0.174458 0.016895
v -0.077106 0.187521 0.006301
v -0.076984 0.202546 -0.003288
v -0.039512 0.243044 0.010421
v -0.072838 0.227888 0.017118
v 0.006146 0.247488 0.008457
v 0.051608 0.243831 0.010074
v 0.095127 0.232208 0.015209
v 0.135025 0.213068 0.023665
v 0.169776 0.187149 0.035118
v 0.198040 0.155446 0.049126
v 0.218735 0.119178 0.065150
v 0.231057 0.079740 0.082576
v 0.234543 0.038641 0.100736
v 0.231108 0.025242 0.073809
v 0.229052 -0.002531 0.118927
v 0.214798 -0.042201 0.136456
v 0.192326 -0.078841 0.152644
v 0.162506 -0.111040 0.166871
v 0.126477 -0.137566 0.178591
v 0.085626 -0.157395 0.187353
v 0.041522 -0.169772 0.192822
v -0.004137 -0.174216 0.194785
v -0.049599 -0.170559 0.193169
v -0.093117 -0.158936 0.188033
v -0.133015 -0.139796 0.179577
v -0.167767 -0.113877 0.168124
v -0.196034 -0.082174 0.154117
v -0.216725 -0.045906 0.138092
v -0.229052 -0.006468 0.120667
v -0.232534 0.034631 0.102508
v -0.227043 0.075803 0.084315
v -0.103325 0.151010 0.015069
v -0.108745 0.145995 0.012545
v -0.096932 0.155475 0.014760
v -0.085119 0.160220 0.006260
v -0.090539 0.158709 0.011667
v -0.112366 0.141192 0.007573
v -0.113638 0.137333 0.000911
v -0.081498 0.159778 -0.000639
v -0.080227 0.157450 -0.007977
v -0.112366 0.135006 -0.006428
v -0.108745 0.134564 -0.013327
v -0.081498 0.153591 -0.014640
v -0.085119 0.148788 -0.019611
v -0.090539 0.143773 -0.022135
v -0.103325 0.136075 -0.018734
v -0.096932 0.139309 -0.021828
v -0.096504 0.171951 0.041833
v -0.112828 0.165886 0.044513
v -0.077106 0.198113 0.030273
v -0.083961 0.183267 0.036833
v -0.076984 0.214228 0.023153
v -0.130446 0.165998 0.044463
v -0.146677 0.172267 0.041693
v -0.053715 -0.086644 0.063524
v -0.044154 -0.056634 0.142832
v -0.044154 -0.090854 0.065384
v -0.053715 -0.052424 0.140972
v -0.034187 -0.094187 0.066857
v -0.023911 -0.062391 0.145375
v -0.023911 -0.096611 0.067927
v -0.034187 -0.059967 0.144305
v 0.106053 -0.000416 0.025425
v 0.105605 0.043502 0.098588
v 0.105605 0.009282 0.021140
v 0.106053 0.033804 0.102873
v 0.104121 0.018893 0.016893
v 0.101613 0.062545 0.090174
v 0.101613 0.028325 0.012726
v 0.104121 0.053113 0.094341
v -0.086146 -0.061955 0.052615
v -0.079074 -0.034972 0.133261
v -0.079074 -0.069192 0.055813
v -0.086146 -0.027735 0.130063
v -0.071260 -0.075760 0.058715
v -0.062780 -0.047376 0.138741
v -0.062780 -0.081596 0.061294
v -0.071260 -0.041540 0.136163
v 0.097536 -0.038216 0.042127
v 0.101180 0.005121 0.115546
v 0.101180 -0.029099 0.038098
v 0.097536 -0.003996 0.119575
v 0.103830 -0.019700 0.033945
v 0.105459 0.024112 0.107155
v 0.105459 -0.010108 0.029707
v 0.103830 0.014520 0.111393
v -0.105778 -0.027793 0.037521
v -0.102273 -0.002735 0.119017
v -0.102273 -0.036955 0.041569
v -0.105778 0.006427 0.114969
v -0.097801 -0.045758 0.045459
v -0.092409 -0.019898 0.126600
v -0.092409 -0.054118 0.049152
v -0.097801 -0.011538 0.122907
v 0.073853 -0.070157 0.056239
v 0.081034 -0.028790 0.130529
v 0.081034 -0.063010 0.053082
v 0.073853 -0.035937 0.133687
v 0.087414 -0.055253 0.049654
v 0.092933 -0.012742 0.123439
v 0.092933 -0.046962 0.045991
v 0.087414 -0.021033 0.127102
v 0.009259 0.098634 -0.018340
v -0.001337 0.133397 0.058867
v -0.001337 0.099177 -0.018580
v 0.009259 0.132854 0.059108
v -0.109624 0.010640 0.020539
v -0.110218 0.035168 0.102269
v -0.110218 0.000948 0.024821
v -0.109624 0.044860 0.097987
v -0.011939 0.098768 -0.018399
v -0.022447 0.131629 0.059649
v -0.022447 0.097409 -0.017799
v -0.011939 0.132987 0.059049
v -0.109771 -0.008750 0.029107
v -0.108286 0.015859 0.110802
v -0.108286 -0.018361 0.033354
v -0.109771 0.025470 0.106555
v 0.038610 -0.091377 0.065615
v 0.048234 -0.053067 0.141256
v 0.048234 -0.087287 0.063808
v 0.038610 -0.057157 0.143063
v 0.057374 -0.082354 0.061628
v 0.065941 -0.042406 0.136545
v 0.065941 -0.076626 0.059097
v 0.057374 -0.048134 0.139076
v 0.049550 0.087176 -0.013277
v 0.039988 0.125607 0.062310
v 0.039988 0.091387 -0.015138
v 0.049550 0.121396 0.064171
v -0.097098 0.047494 0.004256
v -0.101701 0.072968 0.085568
v -0.101701 0.038748 0.008121
v -0.097098 0.081714 0.081704
v 0.030021 0.094720 -0.016610
v 0.019745 0.131363 0.059767
v 0.019745 0.097143 -0.017681
v 0.030021 0.128940 0.060838
v -0.105345 0.029631 0.012148
v -0.107995 0.054452 0.093749
v -0.107995 0.020232 0.016301
v -0.105345 0.063851 0.089596
v -0.002829 -0.098645 0.068827
v 0.007774 -0.064015 0.146093
v 0.007774 -0.098235 0.068645
v -0.002829 -0.064425 0.146275
v 0.018282 -0.096877 0.068046
v 0.028593 -0.060364 0.144480
v 0.028593 -0.094584 0.067032
v 0.018282 -0.062657 0.145494
v 0.081981 0.062487 -0.002369
v 0.074908 0.103944 0.071881
v 0.074908 0.069724 -0.005567
v 0.081981 0.096707 0.075079
v 0.067095 0.076292 -0.008469
v 0.058615 0.116348 0.066401
v 0.058615 0.082128 -0.011047
v 0.067095 0.110512 0.068979
v -0.085199 0.063542 -0.002835
v -0.091580 0.090005 0.078040
v -0.091580 0.055785 0.000592
v -0.085199 0.097762 0.074613
v -0.013424 -0.063882 0.146034
v -0.013424 -0.098101 0.068586
v 0.098107 0.071707 0.086125
v 0.098107 0.037487 0.008677
v 0.093636 0.046290 0.004787
v 0.088243 0.088870 0.078542
v 0.088243 0.054651 0.001094
v 0.093636 0.080510 0.082235
v -0.032759 0.129336 0.060662
v -0.032759 0.095116 -0.016786
v -0.070107 0.111378 0.068597
v -0.078019 0.104909 0.071455
v -0.052399 0.122039 0.063886
v -0.061539 0.117107 0.066066
v -0.042775 0.126129 0.062079
v -0.078019 0.070689 -0.005993
v -0.042775 0.091909 -0.015368
v -0.070107 0.077158 -0.008851
v -0.052399 0.087819 -0.013562
v -0.061539 0.082887 -0.011382
v -0.048167 0.097439 0.003078
v -0.044191 0.101750 0.008266
v -0.071944 0.083425 0.009269
v -0.066878 0.085428 0.003644
v -0.042742 0.105362 0.015037
v -0.044191 0.107936 0.022267
v -0.053991 0.092986 0.000305
v -0.075186 0.083340 0.016400
v -0.071944 0.094856 0.035140
v -0.075186 0.089526 0.030401
v -0.066878 0.100363 0.037447
v -0.060586 0.104968 0.037076
v -0.048167 0.108870 0.028949
v -0.053991 0.107921 0.034107
v -0.060586 0.088802 0.000488
v -0.076407 0.085597 0.023770
vn -0.8350 -0.5017 0.2261
vn -0.8350 -0.5016 0.2262
vn 0.8350 0.5017 -0.2261
vn 0.8350 0.5016 -0.2262
vn 0.8350 0.5016 -0.2261
vn -0.8365 -0.4998 0.2244
vn -0.8369 -0.4992 0.2245
vn -0.8366 -0.4997 0.2243
vn -0.8360 -0.5011 0.2239
vn -0.8349 -0.5031 0.2233
vn -0.8356 -0.5009 0.2254
vn -0.8347 -0.5031 0.2238
vn 0.8365 0.4999 -0.2244
vn 0.8347 0.5031 -0.2238
vn 0.8356 0.5009 -0.2255
vn 0.8349 0.5031 -0.2233
vn 0.8360 0.5010 -0.2239
vn 0.8367 0.4997 -0.2243
vn 0.8369 0.4992 -0.2245
vn -0.8361 -0.5006 0.2245
vn -0.8368 -0.4990 0.2255
vn -0.8360 -0.5007 0.2247
vn -0.8378 -0.4972 0.2258
vn -0.8372 -0.4985 0.2250
vn -0.8362 -0.5004 0.2243
vn -0.8382 -0.4966 0.2252
vn 0.8361 0.5005 -0.2245
vn 0.8382 0.4967 -0.2252
vn 0.8362 0.5004 -0.2243
vn 0.8372 0.4985 -0.2250
vn 0.8378 0.4971 -0.2258
vn 0.8360 0.5007 -0.2247
vn 0.8368 0.4990 -0.2254
vn -0.8357 -0.5011 0.2249
vn -0.8363 -0.4997 0.2256
vn -0.8356 -0.5012 0.2250
vn -0.8363 -0.4998 0.2253
vn -0.8365 -0.4996 0.2252
vn -0.8357 -0.5011 0.2247
vn -0.8356 -0.5012 0.2247
vn 0.8356 0.5012 -0.2248
vn 0.8356 0.5012 -0.2247
vn 0.8357 0.5011 -0.2247
vn 0.8365 0.4996 -0.2251
vn 0.8363 0.4997 -0.2253
vn 0.8356 0.5012 -0.2250
vn 0.8363 0.4997 -0.2256
vn -0.8347 -0.5025 0.2252
vn -0.8357 -0.5005 0.2262
vn -0.8352 -0.5015 0.2257
vn -0.8358 -0.5004 0.2260
vn -0.8358 -0.5006 0.2255
vn -0.8353 -0.5015 0.2252
vn -0.8357 -0.5008 0.2253
vn 0.8348 0.5024 -0.2252
vn 0.8357 0.5009 -0.2253
vn 0.8353 0.5015 -0.2252
vn 0.8358 0.5005 -0.2255
vn 0.8358 0.5005 -0.2259
vn 0.8352 0.5016 -0.2257
vn 0.8357 0.5005 -0.2262
vn -0.8351 -0.5017 0.2258
vn -0.8356 -0.5003 0.2268
vn -0.8340 -0.5034 0.2259
vn -0.8354 -0.5011 0.2259
vn -0.8353 -0.5013 0.2258
vn -0.8358 -0.5003 0.2260
vn -0.8352 -0.5013 0.2260
vn 0.8351 0.5016 -0.2258
vn 0.8352 0.5013 -0.2260
vn 0.8358 0.5003 -0.2260
vn 0.8353 0.5013 -0.2258
vn 0.8354 0.5011 -0.2259
vn 0.8340 0.5034 -0.2259
vn 0.8356 0.5004 -0.2268
vn -0.8371 -0.4975 0.2278
vn -0.8346 -0.5012 0.2287
vn -0.8328 -0.5045 0.2277
vn -0.8352 -0.5008 0.2273
vn -0.8349 -0.5010 0.2280
vn -0.8329 -0.5047 0.2272
vn -0.8350 -0.5014 0.2267
vn 0.8371 0.4975 -0.2278
vn 0.8350 0.5014 -0.2267
vn 0.8329 0.5047 -0.2272
vn 0.8349 0.5010 -0.2280
vn 0.8352 0.5008 -0.2273
vn 0.8328 0.5046 -0.2277
vn 0.8345 0.5012 -0.2288
vn -0.8303 -0.5070 0.2315
vn -0.8351 -0.4982 0.2331
vn -0.8345 -0.4993 0.2329
vn -0.8346 -0.4993 0.2329
vn -0.8348 -0.5008 0.2287
vn 0.8303 0.5070 -0.2315
vn 0.8348 0.5008 -0.2287
vn 0.8348 0.5007 -0.2287
vn 0.8345 0.4993 -0.2329
vn 0.8351 0.4982 -0.2331
vn -0.8353 -0.4982 0.2325
vn -0.8351 -0.5004 0.2286
vn -0.8397 -0.4939 0.2257
vn -0.8353 -0.4982 0.2324
vn -0.8348 -0.4987 0.2333
vn 0.8353 0.4982 -0.2325
vn 0.8347 0.4988 -0.2334
vn 0.8353 0.4982 -0.2324
vn 0.8397 0.4940 -0.2257
vn 0.8352 0.5003 -0.2285
vn -0.8370 -0.4990 0.2248
vn -0.8344 -0.5022 0.2270
vn -0.8350 -0.5015 0.2265
vn -0.8342 -0.5023 0.2275
vn -0.8345 -0.5012 0.2289
vn -0.8353 -0.5003 0.2280
vn -0.8347 -0.5008 0.2291
vn 0.8370 0.4990 -0.2248
vn 0.8347 0.5008 -0.2291
vn 0.8353 0.5003 -0.2279
vn 0.8345 0.5012 -0.2289
vn 0.8343 0.5022 -0.2275
vn 0.8351 0.5014 -0.2264
vn 0.8344 0.5022 -0.2270
vn -0.8348 -0.5021 0.2258
vn -0.8340 -0.5032 0.2265
vn -0.8348 -0.5023 0.2256
vn -0.8339 -0.5032 0.2269
vn -0.8342 -0.5028 0.2268
vn -0.8355 -0.5013 0.2251
vn -0.8339 -0.5027 0.2277
vn 0.8348 0.5021 -0.2258
vn 0.8339 0.5027 -0.2277
vn 0.8355 0.5013 -0.2251
vn 0.8341 0.5028 -0.2268
vn 0.8339 0.5032 -0.2268
vn 0.8348 0.5023 -0.2256
vn 0.8340 0.5032 -0.2264
vn -0.8345 -0.5029 0.2253
vn -0.8337 -0.5038 0.2260
vn -0.8348 -0.5026 0.2247
vn -0.8340 -0.5034 0.2260
vn -0.8338 -0.5036 0.2264
vn -0.8349 -0.5024 0.2249
vn -0.8337 -0.5034 0.2268
vn 0.8344 0.5029 -0.2254
vn 0.8338 0.5034 -0.2268
vn 0.8349 0.5023 -0.2249
vn 0.8338 0.5035 -0.2263
vn 0.8340 0.5034 -0.2260
vn 0.8348 0.5026 -0.2247
vn 0.8337 0.5038 -0.2260
vn -0.8340 -0.5036 0.2255
vn -0.8336 -0.5041 0.2260
vn -0.8340 -0.5036 0.2254
vn -0.8334 -0.5042 0.2263
vn -0.8335 -0.5041 0.2264
vn -0.8341 -0.5034 0.2254
vn 0.8341 0.5035 -0.2254
vn 0.8337 0.5038 -0.2261
vn 0.8341 0.5035 -0.2255
vn 0.8335 0.5041 -0.2263
vn 0.8334 0.5042 -0.2263
vn 0.8340 0.5036 -0.2254
vn 0.8336 0.5040 -0.2260
vn -0.8340 -0.5034 0.2258
vn -0.8353 -0.5022 0.2239
vn -0.8344 -0.5026 0.2260
vn -0.8357 -0.5021 0.2225
vn -0.8348 -0.5029 0.2241
vn -0.8337 -0.5040 0.2258
vn 0.8340 0.5034 -0.2258
vn 0.8336 0.5041 -0.2260
vn 0.8337 0.5040 -0.2258
vn 0.8348 0.5029 -0.2241
vn 0.8357 0.5021 -0.2226
vn 0.8344 0.5026 -0.2260
vn 0.8353 0.5022 -0.2239
vn -0.5487 0.7653 -0.3366
vn -0.5503 0.7638 -0.3374
vn -0.5500 0.7505 -0.3664
vn -0.5503 0.7637 -0.3374
vn -0.5503 0.7644 -0.3361
vn -0.5503 0.7644 -0.3360
vn -0.5502 0.7674 -0.3291
vn -0.5496 0.7417 -0.3845
vn -0.5109 0.5573 -0.6545
vn -0.5109 0.5574 -0.6544
vn -0.5020 0.5294 -0.6839
vn -0.5020 0.5295 -0.6838
vn -0.3150 0.1032 -0.9435
vn -0.3148 0.1029 -0.9436
vn -0.3125 0.0986 -0.9448
vn -0.3150 0.1033 -0.9435
vn -0.2897 0.0558 -0.9555
vn -0.2899 0.0562 -0.9554
vn -0.2771 0.0329 -0.9603
vn -0.2899 0.0563 -0.9554
vn -0.2897 0.0559 -0.9555
vn -0.2772 0.0331 -0.9602
vn -0.3091 0.0922 -0.9465
vn -0.3091 0.0922 -0.9466
vn -0.2629 0.0073 -0.9648
vn -0.2898 0.0561 -0.9555
vn -0.2897 0.0560 -0.9555
vn -0.2846 0.0465 -0.9575
vn -0.2897 0.0561 -0.9555
vn -0.2845 0.0465 -0.9575
vn -0.2749 0.0288 -0.9610
vn -0.2748 0.0288 -0.9611
vn -0.2269 -0.0558 -0.9723
vn -0.2269 -0.0559 -0.9723
vn -0.2748 0.0286 -0.9611
vn -0.2268 -0.0561 -0.9723
vn -0.2169 -0.0731 -0.9735
vn -0.2169 -0.0730 -0.9735
vn -0.2170 -0.0729 -0.9735
vn -0.2168 -0.0731 -0.9735
vn -0.1930 -0.1131 -0.9746
vn -0.1141 -0.2396 -0.9641
vn -0.1140 -0.2397 -0.9641
vn -0.1931 -0.1130 -0.9746
vn -0.1363 -0.2049 -0.9692
vn -0.1283 -0.2175 -0.9676
vn -0.1282 -0.2176 -0.9676
vn -0.1364 -0.2047 -0.9693
vn -0.1363 -0.2050 -0.9692
vn -0.0846 -0.2845 -0.9549
vn -0.0848 -0.2842 -0.9550
vn -0.1608 -0.1659 -0.9729
vn -0.1609 -0.1658 -0.9730
vn -0.0846 -0.2844 -0.9550
vn -0.0847 -0.2843 -0.9550
vn -0.1610 -0.1656 -0.9730
vn -0.1609 -0.1659 -0.9729
vn -0.0552 -0.3280 -0.9431
vn -0.0551 -0.3281 -0.9430
vn -0.0026 -0.4029 -0.9152
vn 0.0001 -0.4068 -0.9135
vn 0.0527 -0.4779 -0.8769
vn 0.0527 -0.4778 -0.8769
vn 0.0002 -0.4068 -0.9135
vn 0.0003 -0.4069 -0.9135
vn 0.0527 -0.4777 -0.8769
vn 0.0526 -0.4777 -0.8770
vn 0.0526 -0.4777 -0.8769
vn 0.0555 -0.4815 -0.8747
vn 0.0554 -0.4814 -0.8748
vn 0.0284 -0.4454 -0.8949
vn 0.0284 -0.4455 -0.8948
vn 0.0556 -0.4815 -0.8747
vn 0.0283 -0.4453 -0.8949
vn -0.0079 -0.3956 -0.9184
vn -0.0080 -0.3955 -0.9184
vn 0.0283 -0.4453 -0.8950
vn -0.0078 -0.3957 -0.9184
vn 0.0284 -0.4455 -0.8949
vn 0.0248 -0.4405 -0.8974
vn 0.0247 -0.4404 -0.8974
vn 0.0832 -0.5173 -0.8518
vn 0.0831 -0.5172 -0.8518
vn 0.0246 -0.4403 -0.8975
vn 0.0833 -0.5174 -0.8517
vn 0.0542 -0.4798 -0.8757
vn 0.0542 -0.4797 -0.8757
vn 0.0586 -0.4856 -0.8722
vn 0.0587 -0.4857 -0.8721
vn 0.0593 -0.4867 -0.8716
vn 0.0586 -0.4855 -0.8723
vn 0.0644 -0.4930 -0.8676
vn 0.0651 -0.4941 -0.8670
vn 0.0876 -0.5231 -0.8478
vn 0.0877 -0.5232 -0.8477
vn 0.0640 -0.4928 -0.8678
vn 0.0639 -0.4926 -0.8679
vn 0.0877 -0.5231 -0.8477
vn 0.0642 -0.4929 -0.8677
vn 0.0641 -0.4928 -0.8678
vn 0.0984 -0.5367 -0.8380
vn 0.0985 -0.5368 -0.8379
vn 0.0797 -0.5130 -0.8547
vn 0.0795 -0.5128 -0.8548
vn 0.0984 -0.5366 -0.8381
vn 0.0984 -0.5366 -0.8380
vn 0.1206 -0.5642 -0.8168
vn 0.1208 -0.5643 -0.8167
vn 0.1037 -0.5433 -0.8331
vn 0.1036 -0.5432 -0.8332
vn 0.1207 -0.5642 -0.8168
vn 0.1338 -0.5801 -0.8035
vn 0.1339 -0.5802 -0.8034
vn 0.1037 -0.5434 -0.8331
vn 0.1336 -0.5799 -0.8036
vn 0.1039 -0.5436 -0.8329
vn 0.5498 -0.7640 0.3376
vn 0.5498 -0.7640 0.3375
vn 0.5498 -0.7641 0.3375
vn 0.8229 0.3726 -0.4290
vn 0.8329 0.5037 -0.2293
vn 0.8323 0.5053 -0.2281
vn 0.8334 0.5038 -0.2274
vn 0.8331 0.5049 -0.2257
vn 0.8375 0.4979 -0.2250
vn 0.8372 0.4993 -0.2232
vn 0.8391 0.4935 -0.2287
vn 0.8394 0.4932 -0.2284
vn 0.8381 0.4944 -0.2306
vn 0.8392 0.4938 -0.2278
vn 0.8395 0.4939 -0.2266
vn 0.8383 0.4949 -0.2287
vn 0.8375 0.4976 -0.2258
vn 0.8390 0.4950 -0.2260
vn 0.8375 0.4976 -0.2259
vn 0.8378 0.4959 -0.2283
vn 0.8382 0.4958 -0.2271
vn 0.8385 0.4971 -0.2233
vn 0.8377 0.4967 -0.2269
vn 0.8385 0.4965 -0.2245
vn 0.8383 0.4958 -0.2270
vn 0.8326 0.5040 -0.2297
vn 0.8328 0.5033 -0.2304
vn 0.8328 0.5034 -0.2304
vn 0.8294 0.5075 -0.2335
vn 0.8287 0.5076 -0.2356
vn 0.8273 0.5093 -0.2369
vn 0.8306 0.5049 -0.2348
vn 0.8343 0.4984 -0.2356
vn 0.8355 0.4966 -0.2353
vn 0.8437 0.4859 -0.2284
vn 0.8423 0.4881 -0.2290
vn 0.8300 0.5065 -0.2336
vn 0.8386 0.4917 -0.2344
vn 0.8314 0.5045 -0.2327
vn 0.8344 0.4983 -0.2356
vn 0.8308 0.5047 -0.2345
vn 0.8396 0.4920 -0.2301
vn 0.8366 0.4952 -0.2344
vn 0.8396 0.4920 -0.2303
vn 0.8366 0.4953 -0.2342
vn 0.8374 0.4946 -0.2325
vn 0.8375 0.4945 -0.2325
vn 0.8351 0.4978 -0.2343
vn 0.8324 0.5016 -0.2357
vn 0.8309 0.5053 -0.2330
vn 0.8391 0.4926 -0.2309
vn 0.8395 0.4924 -0.2300
vn 0.8326 0.5028 -0.2324
vn 0.8329 0.5027 -0.2316
vn 0.8317 0.5049 -0.2311
vn 0.8315 0.5055 -0.2305
vn 0.8325 0.5036 -0.2310
vn 0.8319 0.5052 -0.2295
vn 0.8331 0.5042 -0.2276
vn 0.8331 0.5038 -0.2283
vn 0.8331 0.5039 -0.2282
vn 0.8328 0.5042 -0.2286
vn 0.8327 0.5052 -0.2268
vn 0.8371 0.4985 -0.2252
vn 0.8370 0.4999 -0.2227
vn 0.8371 0.5001 -0.2218
vn 0.8332 0.5058 -0.2235
vn 0.8374 0.5003 -0.2201
vn 0.8334 0.5050 -0.2245
vn 0.8335 0.5047 -0.2250
vn 0.5457 -0.8052 0.2321
vn 0.5457 -0.8052 0.2322
vn 0.5185 -0.8546 0.0283
vn 0.4799 -0.8666 -0.1364
vn 0.4134 -0.8472 -0.3338
vn 0.3567 -0.8120 -0.4620
vn 0.2920 -0.7593 -0.5815
vn 0.2921 -0.7594 -0.5814
vn 0.1511 -0.6136 -0.7750
vn 0.0450 -0.4824 -0.8748
vn -0.0629 -0.3327 -0.9409
vn -0.1683 -0.1703 -0.9709
vn -0.2673 -0.0011 -0.9636
vn -0.2673 -0.0012 -0.9636
vn -0.3560 0.1679 -0.9193
vn -0.4311 0.3307 -0.8395
vn -0.4311 0.3306 -0.8396
vn -0.4895 0.4804 -0.7277
vn -0.4895 0.4805 -0.7276
vn -0.5292 0.6120 -0.5877
vn -0.5292 0.6120 -0.5878
vn -0.5485 0.7200 -0.4252
vn -0.5467 0.8002 -0.2464
vn -0.5467 0.8002 -0.2465
vn -0.5240 0.8498 -0.0582
vn -0.5240 0.8498 -0.0581
vn -0.4810 0.8666 0.1325
vn -0.4810 0.8666 0.1324
vn -0.4541 0.8630 0.2214
vn -0.4541 0.8630 0.2215
vn -0.3870 0.8323 0.3968
vn -0.3220 0.7851 0.5292
vn -0.3344 0.7951 0.5059
vn -0.3245 0.7872 0.5245
vn -0.3245 0.7872 0.5244
vn 0.3389 -0.1337 0.9313
vn 0.3485 -0.1528 0.9248
vn 0.3486 -0.1529 0.9247
vn 0.3762 -0.2095 0.9025
vn 0.4124 -0.2879 0.8643
vn 0.4591 -0.3989 0.7938
vn 0.4591 -0.3988 0.7938
vn 0.4885 -0.4775 0.7303
vn 0.5243 -0.5929 0.6113
vn 0.5477 -0.7126 0.4384
vn 0.5478 -0.7126 0.4384
vn 0.5467 -0.8046 0.2319
vn 0.5214 -0.8529 0.0275
vn 0.4842 -0.8641 -0.1375
vn 0.4192 -0.8437 -0.3354
vn 0.3635 -0.8079 -0.4639
vn 0.3635 -0.8079 -0.4638
vn 0.2996 -0.7548 -0.5835
vn 0.1597 -0.6085 -0.7773
vn 0.1597 -0.6084 -0.7774
vn 0.0539 -0.4770 -0.8773
vn 0.0540 -0.4771 -0.8772
vn -0.0539 -0.3274 -0.9433
vn -0.0540 -0.3273 -0.9434
vn -0.1597 -0.1650 -0.9733
vn -0.1597 -0.1651 -0.9733
vn -0.2594 0.0035 -0.9658
vn -0.2594 0.0036 -0.9658
vn -0.3491 0.1721 -0.9211
vn -0.4254 0.3340 -0.8411
vn -0.4853 0.4830 -0.7289
vn -0.5266 0.6136 -0.5884
vn -0.5476 0.7205 -0.4255
vn -0.5476 0.7997 -0.2462
vn -0.5266 0.8482 -0.0575
vn -0.5266 0.8482 -0.0574
vn -0.4853 0.8641 0.1336
vn -0.4591 0.8600 0.2227
vn -0.4591 0.8600 0.2228
vn -0.3933 0.8286 0.3985
vn -0.3292 0.7808 0.5311
vn -0.3291 0.7807 0.5312
vn -0.3415 0.7909 0.5078
vn -0.3317 0.7829 0.5264
vn 0.3317 -0.1380 0.9332
vn 0.3415 -0.1570 0.9267
vn 0.3415 -0.1571 0.9267
vn 0.3696 -0.2135 0.9043
vn 0.4064 -0.2915 0.8659
vn 0.4064 -0.2916 0.8659
vn 0.4540 -0.4019 0.7952
vn 0.4842 -0.4802 0.7314
vn 0.4842 -0.4801 0.7315
vn 0.5214 -0.5946 0.6121
vn 0.5214 -0.5946 0.6120
vn 0.5467 -0.7132 0.4387
vn -0.8282 -0.5094 0.2337
vn -0.8283 -0.5109 0.2302
vn -0.8425 -0.4905 0.2226
vn -0.8432 -0.4912 0.2185
vn -0.8243 -0.5072 0.2516
vn -0.8339 -0.4959 0.2424
vn -0.8360 -0.4893 0.2483
vn -0.8525 -0.4673 0.2344
vn -0.8443 -0.4801 0.2380
vn -0.8387 -0.4858 0.2461
vn -0.8387 -0.4860 0.2459
vn -0.8411 -0.4837 0.2422
vn -0.8456 -0.4771 0.2396
vn -0.8480 -0.4758 0.2335
vn -0.8440 -0.4801 0.2392
vn -0.8451 -0.4794 0.2368
vn -0.8411 -0.4836 0.2421
vn -0.8429 -0.4827 0.2376
vn -0.8452 -0.4810 0.2331
vn -0.8448 -0.4810 0.2346
vn -0.8452 -0.4814 0.2321
vn -0.8458 -0.4816 0.2297
vn -0.8440 -0.4832 0.2329
vn -0.8433 -0.4865 0.2284
vn -0.8439 -0.4832 0.2330
vn -0.8453 -0.4834 0.2278
vn -0.8433 -0.4892 0.2223
vn -0.8431 -0.4883 0.2252
vn -0.8430 -0.4852 0.2322
vn -0.8440 -0.4868 0.2251
vn -0.8439 -0.4889 0.2208
vn -0.8454 -0.4850 0.2237
vn -0.8443 -0.4846 0.2287
vn -0.8282 -0.5095 0.2336
vn -0.8286 -0.5079 0.2357
vn -0.8285 -0.5079 0.2356
vn -0.8230 -0.5125 0.2450
vn -0.8215 -0.5128 0.2494
vn -0.8189 -0.5157 0.2519
vn -0.8238 -0.5112 0.2451
vn -0.8413 -0.4810 0.2468
vn -0.8268 -0.5070 0.2436
vn -0.8333 -0.4935 0.2490
vn -0.8260 -0.5067 0.2469
vn -0.8339 -0.4940 0.2463
vn -0.8285 -0.5016 0.2491
vn -0.8256 -0.5089 0.2439
vn -0.8287 -0.5064 0.2383
vn -0.8292 -0.5044 0.2411
vn -0.8286 -0.5045 0.2425
vn -0.8287 -0.5065 0.2383
vn -0.8281 -0.5069 0.2395
vn -0.8270 -0.5099 0.2368
vn -0.8269 -0.5086 0.2401
vn -0.8265 -0.5097 0.2390
vn -0.8280 -0.5084 0.2365
vn -0.8274 -0.5107 0.2337
vn -0.8426 -0.4945 0.2133
vn -0.8425 -0.4904 0.2227
vn -0.8422 -0.4936 0.2168
vn -0.8292 -0.5092 0.2306
vn -0.8294 -0.5112 0.2252
vn -0.8287 -0.5088 0.2330
vn -0.8286 -0.5099 0.2310
vn -0.8290 -0.5109 0.2274
vn 0.8370 0.4996 -0.2233
vn 0.8370 0.4998 -0.2228
vn 0.8345 0.5031 -0.2246
vn 0.8356 0.5011 -0.2253
vn 0.8335 0.5046 -0.2251
vn 0.8341 0.5042 -0.2238
vn -0.8335 -0.5053 0.2235
vn -0.8317 -0.5071 0.2263
vn 0.8350 0.5022 -0.2249
vn 0.8375 0.4997 -0.2211
vn 0.8372 0.4981 -0.2257
vn 0.8372 0.4981 -0.2258
vn 0.8369 0.5003 -0.2221
vn 0.8373 0.4992 -0.2230
vn 0.8380 0.4974 -0.2243
vn 0.8392 0.4946 -0.2260
vn 0.8382 0.4970 -0.2246
vn 0.8389 0.4954 -0.2255
vn 0.8378 0.4977 -0.2244
vn 0.8349 0.5026 -0.2245
vn 0.8355 0.5015 -0.2246
vn 0.8355 0.5016 -0.2244
vn 0.8362 0.5004 -0.2245
vn 0.8360 0.5008 -0.2244
vn 0.8367 0.4998 -0.2239
vn 0.8359 0.5010 -0.2244
vn 0.8360 0.5010 -0.2241
vn 0.8366 0.4998 -0.2244
vn 0.8356 0.5019 -0.2234
vn 0.8374 0.4985 -0.2241
vn 0.8365 0.5001 -0.2238
vn 0.8373 0.4986 -0.2245
vn 0.8372 0.4987 -0.2244
vn 0.8362 0.5010 -0.2231
vn 0.8365 0.5004 -0.2232
vn 0.8365 0.5005 -0.2232
vn 0.8336 0.5044 -0.2251
vn 0.8328 0.5062 -0.2240
vn 0.8331 0.5038 -0.2284
vn 0.8329 0.5041 -0.2285
vn 0.8328 0.5041 -0.2285
vn 0.8327 0.5051 -0.2267
vn 0.8332 0.5048 -0.2257
vn 0.8328 0.5041 -0.2286
vn 0.8351 0.5019 -0.2252
vn 0.8338 0.5037 -0.2260
vn 0.8353 0.5013 -0.2259
vn 0.8347 0.5021 -0.2261
vn 0.8347 0.5025 -0.2254
vn 0.8290 0.3999 -0.3909
vn 0.8349 0.5019 -0.2260
vn 0.8362 0.5003 -0.2246
vn 0.8342 0.5030 -0.2259
vn 0.8355 0.5018 -0.2241
vn 0.8342 0.5034 -0.2253
vn 0.8335 0.5041 -0.2262
vn 0.8335 0.5043 -0.2256
vn 0.8348 0.5029 -0.2239
vn 0.8337 0.5039 -0.2259
vn 0.8333 0.5047 -0.2255
vn 0.8344 0.5041 -0.2226
vn 0.8326 0.5055 -0.2263
vn 0.8336 0.5047 -0.2245
vn 0.8327 0.5054 -0.2262
vn 0.8327 0.5055 -0.2259
vn 0.8329 0.5053 -0.2255
vn 0.8344 0.5036 -0.2239
vn 0.8332 0.5046 -0.2261
vn 0.8331 0.5051 -0.2256
vn 0.8332 0.5049 -0.2253
vn 0.8334 0.5047 -0.2254
vn 0.8342 0.5040 -0.2240
vn -0.8344 -0.4973 0.2377
vn -0.8306 -0.5048 0.2350
vn -0.8371 -0.4985 0.2254
vn -0.8333 -0.5010 0.2339
vn -0.8335 -0.5015 0.2318
vn -0.8368 -0.4989 0.2254
vn -0.8351 -0.5007 0.2279
vn -0.8336 -0.5019 0.2308
vn -0.8368 -0.4986 0.2261
vn -0.8365 -0.5002 0.2237
vn -0.8366 -0.5010 0.2216
vn -0.8367 -0.4988 0.2262
vn -0.8374 -0.4992 0.2228
vn -0.8376 -0.4993 0.2216
vn -0.8367 -0.4994 0.2247
vn -0.8369 -0.4993 0.2241
vn -0.8332 -0.4994 0.2372
vn -0.8343 -0.4975 0.2373
vn -0.8343 -0.4976 0.2374
vn -0.8343 -0.4977 0.2374
vn -0.8283 -0.5058 0.2412
vn -0.8351 -0.4947 0.2406
vn -0.8346 -0.4955 0.2408
vn -0.8355 -0.4959 0.2368
vn -0.8356 -0.4940 0.2400
vn -0.8418 -0.4865 0.2338
vn -0.8355 -0.4958 0.2368
vn -0.8349 -0.4966 0.2374
vn -0.8339 -0.4990 0.2358
vn -0.8396 -0.4919 0.2303
vn -0.8345 -0.4970 0.2379
vn -0.8345 -0.4984 0.2351
vn -0.8338 -0.5006 0.2327
vn -0.8337 -0.4991 0.2361
vn -0.8377 -0.4966 0.2272
vn -0.8341 -0.5003 0.2322
vn -0.8379 -0.4955 0.2289
vn -0.8345 -0.4984 0.2350
vn -0.8337 -0.5000 0.2344
vn -0.8339 -0.5005 0.2326
vn -0.8337 -0.5007 0.2329
vn -0.8337 -0.4999 0.2344
vn -0.8340 -0.4997 0.2339
vn -0.8332 -0.5036 0.2284
vn -0.8332 -0.5036 0.2283
vn -0.8329 -0.5055 0.2253
vn -0.8329 -0.5057 0.2250
vn -0.8341 -0.5027 0.2270
vn -0.8351 -0.5005 0.2283
vn -0.8375 -0.4952 0.2308
vn -0.8364 -0.4976 0.2298
vn -0.8308 -0.5049 0.2342
vn -0.8340 -0.4990 0.2352
vn -0.8341 -0.4995 0.2339
vn -0.8350 -0.4980 0.2341
vn -0.8341 -0.4997 0.2338
vn -0.8338 -0.5002 0.2336
vn -0.8315 -0.5049 0.2317
vn -0.8340 -0.5003 0.2326
vn -0.8349 -0.4994 0.2315
vn -0.8317 -0.5053 0.2301
vn -0.8370 -0.4957 0.2316
vn -0.8328 -0.5051 0.2267
vn -0.8345 -0.5011 0.2292
vn -0.8361 -0.4978 0.2306
vn -0.8344 -0.5003 0.2312
vn -0.8351 -0.4990 0.2318
vn -0.8356 -0.4984 0.2310
vn -0.8324 -0.5051 0.2279
vn -0.8350 -0.4991 0.2317
vn -0.8325 -0.5046 0.2286
vn 0.2179 -0.2118 -0.9527
vn -0.0000 -0.4041 -0.9147
vn -0.0000 -0.4042 -0.9147
vn -0.0002 -0.4042 -0.9147
vn -0.0001 -0.4042 -0.9147
vn -0.0003 -0.4043 -0.9146
vn -0.0001 -0.4043 -0.9146
vn -0.0581 0.3015 0.9517
vn -0.2858 -0.4649 -0.8380
vn 0.2696 -0.2737 -0.9232
vn 0.2411 -0.2493 -0.9379
vn 0.2247 -0.2487 -0.9422
vn 0.0889 -0.3228 -0.9423
vn -0.5503 0.7638 -0.3375
vn 0.8350 0.5045 -0.2197
vn 0.8354 0.5045 -0.2183
vn 0.8357 0.5029 -0.2210
vn 0.8359 0.5022 -0.2214
vn 0.8362 0.5016 -0.2217
vn 0.8368 0.5003 -0.2224
vn 0.8350 0.5033 -0.2224
vn 0.8334 0.5052 -0.2241
vn 0.8337 0.5050 -0.2233
vn 0.8339 0.5049 -0.2229
vn 0.8343 0.5047 -0.2217
vn 0.8347 0.5046 -0.2205
vn -0.8350 -0.5063 0.2156
vn -0.8355 -0.5050 0.2167
vn -0.8361 -0.5034 0.2180
vn -0.8366 -0.5022 0.2189
vn -0.8371 -0.5012 0.2195
vn -0.8375 -0.5002 0.2199
vn -0.8406 -0.4938 0.2224
vn -0.8350 -0.5033 0.2224
vn -0.8328 -0.5070 0.2221
vn -0.8331 -0.5068 0.2213
vn -0.8338 -0.5066 0.2194
vn -0.8345 -0.5064 0.2172
vn -0.8292 -0.5125 0.2232
vn -0.8302 -0.5090 0.2274
vn -0.8325 -0.5073 0.2229
vn 0.8350 0.5022 -0.2248
vn -0.8350 -0.5050 0.2187
vn -0.8354 -0.5049 0.2170
vn -0.8358 -0.5030 0.2202
vn -0.8361 -0.5022 0.2208
vn -0.8364 -0.5015 0.2212
vn -0.8367 -0.5008 0.2215
vn -0.8371 -0.5001 0.2218
vn -0.8375 -0.4992 0.2221
vn -0.8325 -0.5063 0.2250
vn -0.8329 -0.5060 0.2243
vn -0.8333 -0.5057 0.2235
vn -0.8335 -0.5055 0.2230
vn -0.8337 -0.5054 0.2224
vn -0.8342 -0.5052 0.2211
vn -0.8347 -0.5051 0.2197
vn -0.5498 0.7640 -0.3376
vn 0.5489 -0.7401 0.3884
vn 0.5490 -0.7406 0.3874
vn 0.5490 -0.7401 0.3884
vn 0.5493 -0.7402 0.3878
vn -0.6542 0.7280 -0.2049
vn -0.8987 -0.0992 0.4272
vn -0.8144 -0.4006 0.4198
vn -0.6635 -0.4614 0.5890
vn -0.5603 -0.5250 0.6407
vn -0.8679 -0.1950 0.4569
vn -0.8139 -0.4005 0.4209
vn -0.8141 -0.3997 0.4213
vn -0.4338 0.8618 -0.2627
vn 0.6054 0.7955 0.0254
vn 0.8227 0.5652 -0.0609
vn 0.8227 0.5651 -0.0609
vn 0.8854 0.4372 0.1580
vn 0.9016 0.3873 0.1929
vn 0.6137 0.7891 0.0271
vn 0.8226 0.5652 -0.0621
vn 0.8230 0.5646 -0.0626
vn -0.9754 0.1866 -0.1174
vn -0.5493 0.7392 -0.3896
vn 0.2048 0.8955 -0.3951
vn -0.5494 0.7406 -0.3868
vn 0.2030 0.8956 -0.3959
vn 0.2024 0.8952 -0.3970
vn -0.9828 0.1691 -0.0747
vn -0.9828 0.1691 -0.0746
vn 0.1457 -0.9677 0.2056
vn 0.5432 -0.6925 0.4747
vn 0.8256 -0.5639 0.0210
vn 0.9219 -0.3750 0.0970
vn 0.9447 -0.2782 0.1735
vn -0.0925 -0.8883 0.4498
vn -0.0276 -0.9370 0.3481
vn -0.8697 0.4159 -0.2659
vn -0.8722 0.4152 -0.2585
vn -0.6464 0.6722 -0.3610
vn -0.6466 0.6722 -0.3607
vn -0.2280 -0.5599 -0.7966
vn -0.2401 -0.5324 -0.8118
vn -0.2362 -0.5214 -0.8200
vn -0.1186 -0.4458 -0.8872
vn -0.4370 0.7966 -0.4177
vn -0.4447 0.7979 -0.4069
vn -0.1055 0.8772 -0.4684
vn -0.1011 0.8744 -0.4746
vn 0.0924 0.8673 -0.4891
vn 0.0873 0.8717 -0.4822
vn 0.2787 0.8306 -0.4821
vn 0.2835 0.8252 -0.4885
vn 0.4646 0.7498 -0.4710
vn 0.4610 0.7552 -0.4660
vn 0.6263 0.6486 -0.4325
vn 0.6283 0.6446 -0.4356
vn 0.7678 0.5140 -0.3825
vn 0.7673 0.5155 -0.3815
vn 0.8776 0.3619 -0.3143
vn 0.8773 0.3635 -0.3134
vn 0.9524 0.1990 -0.2310
vn 0.9527 0.1944 -0.2337
vn 0.9894 0.0204 -0.1439
vn 0.9898 0.0271 -0.1398
vn 0.9869 -0.1535 -0.0495
vn 0.9883 -0.1457 -0.0447
vn 0.9484 -0.3132 0.0487
vn 0.9462 -0.3207 0.0437
vn 0.8698 -0.4757 0.1308
vn 0.8724 -0.4698 0.1353
vn 0.7638 -0.6103 0.2102
vn 0.7617 -0.6139 0.2070
vn 0.6271 -0.7307 0.2699
vn 0.6262 -0.7319 0.2688
vn 0.4682 -0.8262 0.3133
vn 0.4673 -0.8272 0.3121
vn 0.2929 -0.8940 0.3392
vn 0.2900 -0.8963 0.3353
vn 0.1012 -0.9351 0.3395
vn 0.1056 -0.9324 0.3457
vn -0.0874 -0.9388 0.3333
vn -0.0925 -0.9410 0.3255
vn -0.2840 -0.9123 0.2951
vn -0.2791 -0.9111 0.3034
vn -0.4618 -0.8485 0.2583
vn -0.4654 -0.8487 0.2510
vn -0.6274 -0.7522 0.2013
vn -0.6294 -0.7519 0.1962
vn -0.7691 -0.6249 0.1341
vn -0.7685 -0.6252 0.1360
vn -0.8786 -0.4727 0.0676
vn -0.8789 -0.4724 0.0658
vn -0.9534 -0.3017 -0.0006
vn -0.9537 -0.3007 -0.0059
vn -0.9901 -0.1177 -0.0765
vn -0.9905 -0.1192 -0.0686
vn -0.9872 0.0680 -0.1440
vn -0.9886 0.0664 -0.1349
vn -0.9462 0.2484 -0.2073
vn -0.9485 0.2471 -0.1984
vn -0.5498 0.7640 -0.3375
vn -0.5498 0.7641 -0.3375
vn -0.0001 -0.4041 -0.9147
vn -0.3763 0.8475 -0.3745
vn -0.3763 0.8475 -0.3744
vn -0.9212 0.3559 -0.1572
vn -0.9567 0.2607 -0.1294
vn -0.9635 0.2447 -0.1081
vn -1.0000 0.0063 -0.0028
vn 0.0069 0.9147 -0.4041
vn -0.7022 0.6512 -0.2878
vn -0.7022 0.6512 -0.2877
vn 0.3891 0.8426 -0.3723
vn 0.0780 0.9119 -0.4029
vn 0.1348 0.8954 -0.4243
vn 0.4338 0.8242 -0.3642
vn 0.2496 0.8857 -0.3914
vn -0.9991 -0.0386 0.0170
vn -0.9717 -0.2161 0.0955
vn 0.7456 0.6096 -0.2693
vn 0.6012 0.7309 -0.3229
vn -0.9392 0.3141 -0.1388
vn -0.9881 0.1404 -0.0621
vn 0.9438 0.3022 -0.1335
vn 0.8613 0.4648 -0.2054
vn -0.7363 0.6189 -0.2735
vn -0.8542 0.4757 -0.2102
vn -0.0560 -0.9133 0.4035
vn 0.9984 -0.0512 0.0226
vn 0.1399 -0.9057 0.4002
vn 0.9902 0.1280 -0.0565
vn -0.4213 0.8296 -0.3665
vn -0.5901 0.7384 -0.3263
vn -0.4338 -0.8242 0.3641
vn 0.9010 -0.3968 0.1753
vn -0.2497 -0.8857 0.3914
vn 0.9683 -0.2284 0.1009
vn -0.0422 0.9139 -0.4038
vn -0.2363 0.8888 -0.3927
vn -0.7456 -0.6096 0.2693
vn -0.6012 -0.7309 0.3230
vn -0.6012 -0.7309 0.3229
vn 0.7991 -0.5499 0.2430
vn 0.3434 0.8591 -0.3796
vn 0.1536 0.9038 -0.3994
vn -0.9438 -0.3022 0.1335
vn -0.8613 -0.4648 0.2054
vn 0.6767 0.6735 -0.2976
vn 0.5200 0.7813 -0.3452
vn -0.9984 0.0512 -0.0226
vn -0.9902 -0.1280 0.0565
vn 0.9069 0.3854 -0.1703
vn 0.8073 0.5398 -0.2385
vn -0.9010 0.3968 -0.1753
vn -0.9683 0.2284 -0.1009
vn 0.0422 -0.9139 0.4038
vn 0.9991 0.0386 -0.0170
vn 0.2363 -0.8888 0.3927
vn 0.9717 0.2161 -0.0955
vn -0.6664 0.6820 -0.3013
vn -0.7991 0.5499 -0.2430
vn -0.3434 -0.8591 0.3796
vn 0.9392 -0.3141 0.1388
vn -0.1536 -0.9038 0.3994
vn 0.9881 -0.1405 0.0621
vn 0.9881 -0.1404 0.0621
vn -0.3304 0.8633 -0.3815
vn -0.5082 0.7878 -0.3481
vn -0.6767 -0.6735 0.2976
vn -0.5200 -0.7813 0.3452
vn 0.8542 -0.4756 0.2102
vn 0.0560 0.9133 -0.4035
vn -0.1399 0.9057 -0.4002
vn -0.9069 -0.3854 0.1703
vn -0.8073 -0.5398 0.2385
vn -0.0000 0.4042 0.9147
vn -0.0000 0.4041 0.9147
vn 0.0001 0.4041 0.9147
vn -0.0001 0.4042 0.9147
vn -0.0001 0.4041 0.9147
vn 0.0001 0.4042 0.9147
vn 0.0001 -0.4041 -0.9147
vn 0.0001 -0.4042 -0.9147
vn -0.6945 -0.1936 0.6929
vn 0.4640 0.6154 0.6371
vn 0.4641 0.6154 0.6371
vn -0.8192 -0.5721 0.0395
vn -0.4640 0.0567 0.8840
vn -0.4641 0.0566 0.8840
vn -0.8192 -0.4144 0.3964
vn 0.6945 0.6427 0.3234
vn 0.6945 0.1936 -0.6929
vn 0.4641 -0.0566 -0.8840
vn 0.1629 -0.2983 -0.9405
vn -0.4641 -0.6154 -0.6371
vn -0.4640 -0.6154 -0.6371
vn -0.1629 -0.4945 -0.8538
vn -0.1631 0.2982 0.9405
vn -0.1630 0.2982 0.9405
vn 0.8192 0.5721 -0.0395
vn 0.8192 0.4144 -0.3964
vn -0.6945 -0.6427 -0.3234
vn 0.1630 0.4945 0.8537
vn 0.5901 -0.7405 0.3216
vn 0.5720 -0.7443 0.3448
vn 0.5082 -0.7864 0.3511
vn 0.5084 -0.7862 0.3512
vn 0.4546 -0.8163 0.3563
vn 0.4213 -0.8275 0.3712
vn 0.6386 -0.6966 0.3271
vn 0.6663 -0.6894 0.2841
vn 0.5695 -0.7513 0.3333
vn 0.5901 -0.7399 0.3228
vn 0.5088 -0.7881 0.3465
vn 0.5082 -0.7883 0.3468
vn 0.4213 -0.8280 0.3701
vn 0.3962 -0.8471 0.3542
vn 0.3299 -0.8635 0.3815
vn 0.3304 -0.8580 0.3932
vn 0.4478 -0.8208 0.3547
vn 0.3475 -0.8592 0.3754
vn 0.3437 -0.8571 0.3838
vn 0.3857 -0.8330 0.3966
vn 0.3303 -0.8732 0.3583
vn 0.6664 -0.6785 0.3090
vn 0.6348 -0.7108 0.3030
vn 0.6888 -0.6684 0.2805
vn 0.6752 -0.6824 0.2800
vn 0.7311 -0.6241 0.2758
vn 0.6885 -0.6536 0.3143
vn 0.6944 -0.6504 0.3079
vn 0.7357 -0.6346 0.2367
vn 0.7361 -0.6105 0.2922
s 0
f 1//1 2//1 3//1
f 4//1 5//1 6//1
f 6//1 1//1 4//1
f 1//1 3//1 4//1
f 7//2 3//2 2//2
f 2//1 8//1 7//1
f 9//1 7//1 8//1
f 10//3 11//3 12//3
f 13//3 14//3 15//3
f 15//4 10//4 13//4
f 12//3 13//3 10//3
f 16//5 12//5 11//5
f 11//3 17//3 16//3
f 18//4 16//4 17//4
f 19//6 20//6 21//6
f 22//7 23//7 24//7
f 24//8 19//8 22//8
f 21//9 22//9 19//9
f 25//10 21//10 20//10
f 20//11 6//11 25//11
f 5//12 25//12 6//12
f 26//13 27//13 28//13
f 29//14 18//14 17//14
f 17//15 26//15 29//15
f 28//16 29//16 26//16
f 30//17 28//17 27//17
f 27//18 31//18 30//18
f 32//19 30//19 31//19
f 33//20 34//20 35//20
f 36//21 37//21 38//21
f 38//22 33//22 36//22
f 35//23 36//23 33//23
f 39//24 35//24 34//24
f 34//25 24//25 39//25
f 23//26 39//26 24//26
f 40//27 41//27 42//27
f 43//28 32//28 31//28
f 31//29 40//29 43//29
f 42//30 43//30 40//30
f 44//31 42//31 41//31
f 41//32 45//32 44//32
f 46//33 44//33 45//33
f 47//34 48//34 49//34
f 50//35 51//35 52//35
f 52//36 47//36 50//36
f 49//37 50//37 47//37
f 53//38 49//38 48//38
f 48//39 38//39 53//39
f 37//40 53//40 38//40
f 54//41 55//41 56//41
f 57//42 46//42 45//42
f 45//43 54//43 57//43
f 56//44 57//44 54//44
f 58//45 56//45 55//45
f 55//46 59//46 58//46
f 60//47 58//47 59//47
f 61//48 62//48 63//48
f 64//49 65//49 66//49
f 66//50 61//50 64//50
f 63//51 64//51 61//51
f 67//52 63//52 62//52
f 62//53 52//53 67//53
f 51//54 67//54 52//54
f 68//55 69//55 70//55
f 71//56 60//56 59//56
f 59//57 68//57 71//57
f 70//58 71//58 68//58
f 72//59 70//59 69//59
f 69//60 73//60 72//60
f 74//61 72//61 73//61
f 75//62 76//62 77//62
f 78//63 79//63 80//63
f 80//64 75//64 78//64
f 77//65 78//65 75//65
f 81//66 77//66 76//66
f 76//67 66//67 81//67
f 65//68 81//68 66//68
f 82//69 83//69 84//69
f 85//70 74//70 73//70
f 73//71 82//71 85//71
f 84//72 85//72 82//72
f 86//73 84//73 83//73
f 83//74 87//74 86//74
f 88//75 86//75 87//75
f 89//76 90//76 91//76
f 92//77 93//77 94//77
f 94//78 89//78 92//78
f 91//79 92//79 89//79
f 95//80 91//80 90//80
f 90//81 80//81 95//81
f 79//82 95//82 80//82
f 96//83 97//83 98//83
f 99//84 88//84 87//84
f 87//85 96//85 99//85
f 98//86 99//86 96//86
f 100//87 98//87 97//87
f 97//88 101//88 100//88
f 102//89 100//89 101//89
f 103//90 104//90 105//90
f 106//91 107//91 108//91
f 108//92 103//92 106//92
f 105//93 106//93 103//93
f 109//94 105//94 104//94
f 104//94 94//94 109//94
f 93//94 109//94 94//94
f 110//95 111//95 112//95
f 113//96 102//96 101//96
f 101//96 110//96 113//96
f 112//97 113//97 110//97
f 114//98 112//98 111//98
f 111//98 115//98 114//98
f 116//99 114//99 115//99
f 117//100 118//100 119//100
f 120//101 121//101 122//101
f 122//102 117//102 120//102
f 119//100 120//100 117//100
f 123//103 119//103 118//103
f 118//100 108//100 123//100
f 107//104 123//104 108//104
f 124//105 125//105 126//105
f 127//106 116//106 115//106
f 115//107 124//107 127//107
f 126//107 127//107 124//107
f 128//105 126//105 125//105
f 125//108 129//108 128//108
f 130//109 128//109 129//109
f 131//110 132//110 133//110
f 134//111 135//111 136//111
f 136//112 131//112 134//112
f 133//113 134//113 131//113
f 137//114 133//114 132//114
f 132//115 122//115 137//115
f 121//116 137//116 122//116
f 138//117 139//117 140//117
f 141//118 130//118 129//118
f 129//119 138//119 141//119
f 140//120 141//120 138//120
f 142//121 140//121 139//121
f 139//122 143//122 142//122
f 144//123 142//123 143//123
f 145//124 146//124 147//124
f 148//125 149//125 150//125
f 150//126 145//126 148//126
f 147//127 148//127 145//127
f 151//128 147//128 146//128
f 146//129 136//129 151//129
f 135//130 151//130 136//130
f 152//131 153//131 154//131
f 155//132 144//132 143//132
f 143//133 152//133 155//133
f 154//134 155//134 152//134
f 156//135 154//135 153//135
f 153//136 157//136 156//136
f 158//137 156//137 157//137
f 159//138 160//138 161//138
f 162//139 163//139 164//139
f 164//140 159//140 162//140
f 161//141 162//141 159//141
f 165//142 161//142 160//142
f 160//143 150//143 165//143
f 149//144 165//144 150//144
f 166//145 167//145 168//145
f 169//146 158//146 157//146
f 157//147 166//147 169//147
f 168//148 169//148 166//148
f 170//149 168//149 167//149
f 167//150 171//150 170//150
f 172//151 170//151 171//151
f 173//152 174//152 175//152
f 176//153 177//153 178//153
f 178//154 173//154 176//154
f 175//155 176//155 173//155
f 179//156 175//156 174//156
f 174//157 164//157 179//157
f 163//139 179//139 164//139
f 180//158 181//158 182//158
f 183//159 172//159 171//159
f 171//160 180//160 183//160
f 182//161 183//161 180//161
f 184//162 182//162 181//162
f 181//163 185//163 184//163
f 186//164 184//164 185//164
f 187//165 188//165 189//165
f 190//166 191//166 192//166
f 192//167 187//167 190//167
f 189//168 190//168 187//168
f 193//169 189//169 188//169
f 188//170 178//170 193//170
f 177//153 193//153 178//153
f 194//171 195//171 196//171
f 197//172 186//172 185//172
f 185//173 194//173 197//173
f 196//174 197//174 194//174
f 198//175 196//175 195//175
f 195//176 199//176 198//176
f 200//177 198//177 199//177
f 201//1 202//1 203//1
f 204//2 205//2 206//2
f 206//2 201//2 204//2
f 203//2 204//2 201//2
f 207//1 203//1 202//1
f 202//1 192//1 207//1
f 191//1 207//1 192//1
f 208//3 209//3 210//3
f 211//4 200//4 199//4
f 199//5 208//5 211//5
f 210//3 211//3 208//3
f 212//3 210//3 209//3
f 209//4 213//4 212//4
f 214//4 212//4 213//4
f 215//1 216//1 217//1
f 218//2 219//2 220//2
f 220//1 215//1 218//1
f 217//2 218//2 215//2
f 221//1 217//1 216//1
f 216//2 206//2 221//2
f 205//1 221//1 206//1
f 222//3 223//3 224//3
f 225//3 214//3 213//3
f 213//3 222//3 225//3
f 224//5 225//5 222//5
f 226//3 224//3 223//3
f 223//3 227//3 226//3
f 228//3 226//3 227//3
f 229//178 14//178 13//178
f 13//179 230//179 229//179
f 230//180 13//180 12//180
f 12//180 231//180 230//180
f 9//181 232//181 233//181
f 233//182 7//182 9//182
f 7//180 233//180 234//180
f 234//180 3//180 7//180
f 231//182 12//182 16//182
f 16//182 235//182 231//182
f 235//180 16//180 18//180
f 18//180 236//180 235//180
f 3//183 234//183 237//183
f 237//182 4//182 3//182
f 4//180 237//180 238//180
f 238//180 5//180 4//180
f 236//184 18//184 29//184
f 29//184 239//184 236//184
f 239//185 29//185 28//185
f 28//185 240//185 239//185
f 5//184 238//184 241//184
f 241//184 25//184 5//184
f 25//185 241//185 242//185
f 242//185 21//185 25//185
f 240//186 28//186 30//186
f 30//187 243//187 240//187
f 243//188 30//188 32//188
f 32//188 244//188 243//188
f 21//186 242//186 245//186
f 245//186 22//186 21//186
f 22//189 245//189 246//189
f 246//188 23//188 22//188
f 244//190 32//190 43//190
f 43//191 247//191 244//191
f 247//192 43//192 42//192
f 42//192 248//192 247//192
f 23//191 246//191 249//191
f 249//193 39//193 23//193
f 39//192 249//192 250//192
f 250//192 35//192 39//192
f 248//194 42//194 44//194
f 44//195 251//195 248//195
f 251//196 44//196 46//196
f 46//196 252//196 251//196
f 35//197 250//197 253//197
f 253//198 36//198 35//198
f 36//196 253//196 254//196
f 254//199 37//199 36//199
f 252//200 46//200 57//200
f 57//201 255//201 252//201
f 255//202 57//202 56//202
f 56//202 256//202 255//202
f 37//200 254//200 257//200
f 257//200 53//200 37//200
f 53//202 257//202 258//202
f 258//202 49//202 53//202
f 256//203 56//203 58//203
f 58//204 259//204 256//204
f 259//205 58//205 60//205
f 60//205 260//205 259//205
f 49//204 258//204 261//204
f 261//206 50//206 49//206
f 50//207 261//207 262//207
f 262//207 51//207 50//207
f 260//208 60//208 71//208
f 71//209 263//209 260//209
f 263//210 71//210 70//210
f 70//211 264//211 263//211
f 51//209 262//209 265//209
f 265//212 67//212 51//212
f 67//211 265//211 266//211
f 266//210 63//210 67//210
f 264//210 70//210 72//210
f 72//211 267//211 264//211
f 267//211 72//211 74//211
f 74//211 268//211 267//211
f 63//211 266//211 269//211
f 269//210 64//210 63//210
f 64//211 269//211 270//211
f 270//213 65//213 64//213
f 268//214 74//214 85//214
f 85//215 271//215 268//215
f 271//214 85//214 84//214
f 84//215 272//215 271//215
f 65//215 270//215 273//215
f 273//216 81//216 65//216
f 81//215 273//215 274//215
f 274//217 77//217 81//217
f 272//218 84//218 86//218
f 86//218 275//218 272//218
f 275//219 86//219 88//219
f 88//220 276//220 275//220
f 77//218 274//218 277//218
f 277//221 78//221 77//221
f 78//220 277//220 278//220
f 278//219 79//219 78//219
f 276//222 88//222 99//222
f 99//222 279//222 276//222
f 279//223 99//223 98//223
f 98//224 280//224 279//224
f 79//225 278//225 281//225
f 281//226 95//226 79//226
f 95//224 281//224 282//224
f 282//223 91//223 95//223
f 280//227 98//227 100//227
f 100//228 283//228 280//228
f 283//229 100//229 102//229
f 102//230 284//230 283//230
f 91//231 282//231 285//231
f 285//232 92//232 91//232
f 92//233 285//233 286//233
f 286//234 93//234 92//234
f 284//235 102//235 113//235
f 113//236 287//236 284//236
f 287//236 113//236 112//236
f 112//236 288//236 287//236
f 93//236 286//236 289//236
f 289//235 109//235 93//235
f 109//236 289//236 290//236
f 290//236 105//236 109//236
f 288//235 112//235 114//235
f 114//235 291//235 288//235
f 291//237 114//237 116//237
f 116//237 292//237 291//237
f 105//236 290//236 293//236
f 293//235 106//235 105//235
f 106//237 293//237 294//237
f 294//237 107//237 106//237
f 292//238 116//238 127//238
f 127//238 295//238 292//238
f 295//239 127//239 126//239
f 126//240 296//240 295//240
f 107//241 294//241 297//241
f 297//242 123//242 107//242
f 123//243 297//243 298//243
f 298//244 119//244 123//244
f 296//245 126//245 128//245
f 128//245 299//245 296//245
f 299//240 128//240 130//240
f 130//239 300//239 299//239
f 119//240 298//240 301//240
f 301//240 120//240 119//240
f 120//243 301//243 302//243
f 302//243 121//243 120//243
f 300//246 130//246 141//246
f 141//247 303//247 300//247
f 303//248 141//248 140//248
f 140//249 304//249 303//249
f 121//250 302//250 305//250
f 305//246 137//246 121//246
f 137//251 305//251 306//251
f 306//248 133//248 137//248
f 304//252 140//252 142//252
f 142//253 307//253 304//253
f 307//254 142//254 144//254
f 144//249 308//249 307//249
f 133//255 306//255 309//255
f 309//252 134//252 133//252
f 134//256 309//256 310//256
f 310//248 135//248 134//248
f 308//257 144//257 155//257
f 155//258 311//258 308//258
f 311//259 155//259 154//259
f 154//260 312//260 311//260
f 135//261 310//261 313//261
f 313//261 151//261 135//261
f 151//262 313//262 314//262
f 314//262 147//262 151//262
f 312//261 154//261 156//261
f 156//258 315//258 312//258
f 315//263 156//263 158//263
f 158//264 316//264 315//264
f 147//258 314//258 317//258
f 317//261 148//261 147//261
f 148//264 317//264 318//264
f 318//263 149//263 148//263
f 316//265 158//265 169//265
f 169//266 319//266 316//266
f 319//265 169//265 168//265
f 168//267 320//267 319//267
f 149//268 318//268 321//268
f 321//265 165//265 149//265
f 165//269 321//269 322//269
f 322//270 161//270 165//270
f 320//271 168//271 170//271
f 170//272 323//272 320//272
f 323//273 170//273 172//273
f 172//274 324//274 323//274
f 161//271 322//271 325//271
f 325//275 162//275 161//275
f 162//276 325//276 326//276
f 326//277 163//277 162//277
f 324//278 172//278 183//278
f 183//279 327//279 324//279
f 327//280 183//280 182//280
f 182//281 328//281 327//281
f 163//282 326//282 329//282
f 329//283 179//283 163//283
f 179//281 329//281 330//281
f 330//280 175//280 179//280
f 328//284 182//284 184//284
f 184//285 331//285 328//285
f 331//286 184//286 186//286
f 186//287 332//287 331//287
f 175//285 330//285 333//285
f 333//288 176//288 175//288
f 176//286 333//286 334//286
f 334//286 177//286 176//286
f 332//289 186//289 197//289
f 197//290 335//290 332//290
f 335//286 197//286 196//286
f 196//291 336//291 335//291
f 177//292 334//292 337//292
f 337//289 193//289 177//289
f 193//293 337//293 338//293
f 338//293 189//293 193//293
f 336//294 196//294 198//294
f 198//294 339//294 336//294
f 339//294 198//294 200//294
f 200//294 340//294 339//294
f 189//294 338//294 341//294
f 341//294 190//294 189//294
f 190//294 341//294 342//294
f 342//294 191//294 190//294
f 340//295 200//295 211//295
f 211//294 343//294 340//294
f 343//294 211//294 210//294
f 210//294 344//294 343//294
f 191//296 342//296 345//296
f 345//294 207//294 191//294
f 207//294 345//294 346//294
f 346//294 203//294 207//294
f 344//294 210//294 212//294
f 212//294 347//294 344//294
f 347//295 212//295 214//295
f 214//294 348//294 347//294
f 203//294 346//294 349//294
f 349//294 204//294 203//294
f 204//294 349//294 350//294
f 350//294 205//294 204//294
f 348//294 214//294 225//294
f 225//294 351//294 348//294
f 351//294 225//294 224//294
f 224//294 352//294 351//294
f 205//294 350//294 353//294
f 353//295 221//295 205//295
f 221//294 353//294 354//294
f 354//294 217//294 221//294
f 352//295 224//295 226//295
f 226//294 355//294 352//294
f 355//294 226//294 228//294
f 228//294 356//294 355//294
f 217//296 354//296 357//296
f 357//295 218//295 217//295
f 218//294 357//294 358//294
f 358//294 219//294 218//294
f 298//297 305//297 301//297
f 41//298 40//298 359//298
f 359//299 360//299 41//299
f 11//300 10//300 361//300
f 361//301 362//301 11//301
f 223//302 222//302 363//302
f 363//303 364//303 223//303
f 157//304 365//304 366//304
f 366//305 166//305 157//305
f 366//306 167//306 166//306
f 366//307 171//307 167//307
f 366//308 367//308 171//308
f 367//309 180//309 171//309
f 209//310 208//310 363//310
f 367//309 181//309 180//309
f 367//311 368//311 181//311
f 213//302 363//302 222//302
f 213//312 209//312 363//312
f 199//312 363//312 208//312
f 368//313 185//313 181//313
f 368//314 194//314 185//314
f 199//315 369//315 363//315
f 199//316 195//316 369//316
f 195//317 368//317 369//317
f 195//318 194//318 368//318
f 360//319 45//319 41//319
f 360//320 54//320 45//320
f 360//321 55//321 54//321
f 370//322 96//322 87//322
f 371//323 101//323 97//323
f 372//324 111//324 110//324
f 373//325 111//325 372//325
f 373//326 115//326 111//326
f 373//327 124//327 115//327
f 374//328 129//328 125//328
f 375//329 139//329 138//329
f 83//330 370//330 87//330
f 96//331 371//331 97//331
f 96//332 370//332 371//332
f 101//333 372//333 110//333
f 101//334 371//334 372//334
f 373//327 125//327 124//327
f 373//335 374//335 125//335
f 374//336 138//336 129//336
f 374//337 375//337 138//337
f 375//338 143//338 139//338
f 365//339 153//339 152//339
f 365//340 157//340 153//340
f 73//341 376//341 82//341
f 82//342 370//342 83//342
f 82//343 376//343 370//343
f 152//344 375//344 365//344
f 152//345 143//345 375//345
f 69//346 376//346 73//346
f 59//347 377//347 68//347
f 68//348 376//348 69//348
f 68//349 377//349 376//349
f 55//350 377//350 59//350
f 55//351 360//351 377//351
f 362//352 17//352 11//352
f 362//353 26//353 17//353
f 362//354 27//354 26//354
f 31//298 359//298 40//298
f 27//355 359//355 31//355
f 27//356 362//356 359//356
f 227//357 223//357 364//357
f 378//358 227//358 364//358
f 379//359 227//359 378//359
f 380//360 15//360 381//360
f 382//361 227//361 379//361
f 383//362 15//362 380//362
f 361//363 15//363 383//363
f 361//300 10//300 15//300
f 362//364 361//364 384//364
f 384//365 385//365 362//365
f 383//366 384//366 361//366
f 384//366 383//366 386//366
f 380//367 386//367 383//367
f 386//367 380//367 387//367
f 381//368 387//368 380//368
f 387//368 381//368 388//368
f 389//369 388//369 381//369
f 388//369 389//369 390//369
f 391//370 390//370 389//370
f 390//371 391//371 392//371
f 393//372 392//372 391//372
f 392//372 393//372 394//372
f 395//373 394//373 393//373
f 394//373 395//373 396//373
f 397//374 396//374 395//374
f 396//374 397//374 398//374
f 399//375 398//375 397//375
f 398//375 399//375 400//375
f 401//376 400//376 399//376
f 400//377 401//377 402//377
f 382//378 402//378 401//378
f 402//378 382//378 403//378
f 379//379 403//379 382//379
f 403//380 379//380 404//380
f 378//381 404//381 379//381
f 404//382 378//382 405//382
f 364//383 405//383 378//383
f 405//384 364//384 406//384
f 364//385 363//385 407//385
f 407//385 406//385 364//385
f 369//386 407//386 363//386
f 407//387 369//387 408//387
f 368//388 408//388 369//388
f 408//389 368//389 409//389
f 367//390 409//390 368//390
f 409//391 367//391 410//391
f 366//392 410//392 367//392
f 410//393 366//393 411//393
f 366//394 365//394 412//394
f 412//394 411//394 366//394
f 375//395 412//395 365//395
f 412//395 375//395 413//395
f 374//396 413//396 375//396
f 413//396 374//396 414//396
f 373//397 414//397 374//397
f 414//398 373//398 415//398
f 372//399 415//399 373//399
f 415//399 372//399 416//399
f 371//400 416//400 372//400
f 416//401 371//401 417//401
f 370//402 417//402 371//402
f 417//402 370//402 418//402
f 376//403 418//403 370//403
f 418//403 376//403 419//403
f 377//404 419//404 376//404
f 419//405 377//405 420//405
f 360//406 420//406 377//406
f 420//406 360//406 421//406
f 360//407 359//407 422//407
f 422//407 421//407 360//407
f 362//408 422//408 359//408
f 422//409 362//409 385//409
f 423//410 424//410 425//410
f 425//410 426//410 423//410
f 427//411 425//411 424//411
f 425//411 427//411 428//411
f 429//412 428//412 427//412
f 428//412 429//412 430//412
f 431//413 430//413 429//413
f 430//413 431//413 432//413
f 433//414 432//414 431//414
f 432//415 433//415 434//415
f 435//416 434//416 433//416
f 434//416 435//416 436//416
f 437//417 436//417 435//417
f 436//418 437//418 438//418
f 439//419 438//419 437//419
f 438//420 439//420 440//420
f 441//421 440//421 439//421
f 440//422 441//422 442//422
f 443//423 442//423 441//423
f 442//424 443//424 444//424
f 445//425 444//425 443//425
f 444//426 445//426 446//426
f 447//427 446//427 445//427
f 446//427 447//427 448//427
f 449//428 448//428 447//428
f 448//428 449//428 450//428
f 451//429 450//429 449//429
f 450//429 451//429 452//429
f 453//430 452//430 451//430
f 452//430 453//430 454//430
f 453//431 455//431 456//431
f 456//431 454//431 453//431
f 457//432 456//432 455//432
f 456//432 457//432 458//432
f 459//433 458//433 457//433
f 458//434 459//434 460//434
f 461//435 460//435 459//435
f 460//435 461//435 462//435
f 463//436 462//436 461//436
f 462//437 463//437 464//437
f 463//438 465//438 466//438
f 466//438 464//438 463//438
f 467//439 466//439 465//439
f 466//440 467//440 468//440
f 469//441 468//441 467//441
f 468//441 469//441 470//441
f 471//442 470//442 469//442
f 470//442 471//442 472//442
f 473//443 472//443 471//443
f 472//443 473//443 474//443
f 475//444 474//444 473//444
f 474//445 475//445 476//445
f 477//446 476//446 475//446
f 476//446 477//446 478//446
f 479//447 478//447 477//447
f 478//448 479//448 480//448
f 481//449 480//449 479//449
f 480//449 481//449 482//449
f 483//450 482//450 481//450
f 482//451 483//451 484//451
f 483//452 485//452 486//452
f 486//453 484//453 483//453
f 423//454 486//454 485//454
f 486//454 423//454 426//454
f 20//455 19//455 486//455
f 486//456 426//456 20//456
f 216//457 215//457 454//457
f 454//458 456//458 216//458
f 108//459 472//459 474//459
f 474//460 103//460 108//460
f 472//461 108//461 118//461
f 470//462 117//462 122//462
f 472//461 118//461 117//461
f 472//463 117//463 470//463
f 470//464 122//464 132//464
f 468//465 131//465 136//465
f 466//466 146//466 145//466
f 131//467 468//467 470//467
f 131//468 470//468 132//468
f 146//469 466//469 468//469
f 146//470 468//470 136//470
f 466//471 145//471 150//471
f 159//472 464//472 160//472
f 466//473 150//473 160//473
f 466//474 160//474 464//474
f 464//475 159//475 164//475
f 464//476 164//476 462//476
f 462//477 164//477 174//477
f 188//478 187//478 458//478
f 462//479 174//479 173//479
f 462//480 173//480 460//480
f 206//481 216//481 456//481
f 206//482 456//482 201//482
f 458//478 187//478 192//478
f 460//483 173//483 178//483
f 202//484 458//484 192//484
f 201//485 456//485 458//485
f 201//484 458//484 202//484
f 188//486 458//486 460//486
f 188//487 460//487 178//487
f 486//488 19//488 24//488
f 486//489 24//489 34//489
f 486//490 34//490 33//490
f 478//491 80//491 90//491
f 476//492 89//492 94//492
f 474//493 104//493 103//493
f 75//494 80//494 478//494
f 90//495 89//495 476//495
f 90//496 476//496 478//496
f 94//497 104//497 474//497
f 94//498 474//498 476//498
f 66//499 76//499 480//499
f 76//500 75//500 478//500
f 76//501 478//501 480//501
f 48//502 47//502 484//502
f 52//503 62//503 482//503
f 61//504 66//504 480//504
f 38//505 48//505 484//505
f 47//506 52//506 482//506
f 47//507 482//507 484//507
f 62//508 61//508 480//508
f 62//509 480//509 482//509
f 33//510 38//510 484//510
f 33//511 484//511 486//511
f 452//512 220//512 450//512
f 454//513 215//513 220//513
f 454//514 220//514 452//514
f 8//515 2//515 425//515
f 425//516 428//516 8//516
f 6//517 20//517 426//517
f 1//518 6//518 426//518
f 2//518 1//518 426//518
f 2//519 426//519 425//519
f 238//520 423//520 485//520
f 485//521 241//521 238//521
f 282//522 475//522 473//522
f 473//523 285//523 282//523
f 338//524 459//524 457//524
f 457//525 341//525 338//525
f 229//526 230//526 385//526
f 385//527 384//527 229//527
f 232//528 424//528 423//528
f 423//529 233//529 232//529
f 423//530 234//530 233//530
f 423//531 237//531 234//531
f 423//531 238//531 237//531
f 485//532 242//532 241//532
f 485//533 245//533 242//533
f 485//534 246//534 245//534
f 485//535 249//535 246//535
f 485//536 250//536 249//536
f 485//537 253//537 250//537
f 485//538 254//538 253//538
f 475//539 281//539 477//539
f 475//540 282//540 281//540
f 278//541 477//541 281//541
f 278//542 277//542 477//542
f 274//543 477//543 277//543
f 265//544 481//544 266//544
f 273//545 477//545 274//545
f 273//177 479//177 477//177
f 270//546 479//546 273//546
f 270//547 269//547 479//547
f 266//547 479//547 269//547
f 266//548 481//548 479//548
f 257//549 483//549 258//549
f 262//550 481//550 265//550
f 262//551 261//551 481//551
f 258//552 481//552 261//552
f 258//553 483//553 481//553
f 254//554 483//554 257//554
f 254//555 485//555 483//555
f 457//556 342//556 341//556
f 457//353 345//353 342//353
f 357//557 453//557 358//557
f 457//558 346//558 345//558
f 353//559 455//559 354//559
f 455//560 357//560 354//560
f 455//561 453//561 357//561
f 349//562 457//562 455//562
f 349//353 346//353 457//353
f 350//559 455//559 353//559
f 350//563 349//563 455//563
f 473//57 286//57 285//57
f 473//564 289//564 286//564
f 473//564 290//564 289//564
f 473//564 293//564 290//564
f 471//565 293//565 473//565
f 471//566 294//566 293//566
f 471//567 297//567 294//567
f 469//568 305//568 298//568
f 305//569 302//569 301//569
f 471//570 298//570 297//570
f 471//571 469//571 298//571
f 469//572 306//572 305//572
f 469//573 467//573 306//573
f 309//158 306//158 467//158
f 310//574 309//574 467//574
f 313//575 310//575 467//575
f 465//576 317//576 314//576
f 314//577 467//577 465//577
f 314//578 313//578 467//578
f 463//579 322//579 321//579
f 337//580 459//580 338//580
f 329//581 461//581 330//581
f 465//576 318//576 317//576
f 333//582 461//582 459//582
f 333//583 330//583 461//583
f 334//584 459//584 337//584
f 334//585 333//585 459//585
f 321//586 465//586 463//586
f 321//587 318//587 465//587
f 326//588 461//588 329//588
f 326//589 325//589 461//589
f 463//590 325//590 322//590
f 463//591 461//591 325//591
f 280//592 283//592 416//592
f 416//593 417//593 280//593
f 328//594 410//594 411//594
f 411//595 327//595 328//595
f 410//596 328//596 331//596
f 410//597 331//597 409//597
f 335//598 336//598 409//598
f 332//599 335//599 409//599
f 332//599 409//599 331//599
f 347//600 408//600 344//600
f 343//600 344//600 408//600
f 406//601 407//601 355//601
f 406//602 355//602 356//602
f 352//603 355//603 407//603
f 340//600 343//600 408//600
f 340//604 408//604 339//604
f 409//605 336//605 339//605
f 409//606 339//606 408//606
f 351//603 352//603 407//603
f 347//607 407//607 408//607
f 348//603 351//603 407//603
f 348//603 407//603 347//603
f 416//608 283//608 284//608
f 416//609 284//609 287//609
f 416//610 287//610 288//610
f 416//611 288//611 291//611
f 415//612 416//612 291//612
f 415//613 291//613 292//613
f 415//614 292//614 295//614
f 414//615 296//615 299//615
f 415//616 295//616 296//616
f 415//617 296//617 414//617
f 414//618 299//618 300//618
f 303//619 414//619 300//619
f 307//620 413//620 304//620
f 304//621 413//621 414//621
f 304//622 414//622 303//622
f 308//623 413//623 307//623
f 320//624 411//624 319//624
f 311//625 413//625 308//625
f 319//626 411//626 412//626
f 323//627 411//627 320//627
f 312//628 412//628 413//628
f 312//629 413//629 311//629
f 315//630 412//630 312//630
f 324//631 327//631 411//631
f 324//632 411//632 323//632
f 316//633 319//633 412//633
f 316//634 412//634 315//634
f 385//635 230//635 231//635
f 385//636 231//636 235//636
f 385//635 235//635 236//635
f 385//637 236//637 239//637
f 385//638 239//638 240//638
f 385//639 240//639 243//639
f 385//640 243//640 244//640
f 385//641 244//641 247//641
f 385//642 247//642 248//642
f 417//643 418//643 279//643
f 417//644 279//644 280//644
f 276//645 279//645 418//645
f 276//646 418//646 275//646
f 272//647 275//647 418//647
f 271//648 272//648 418//648
f 271//649 418//649 419//649
f 268//650 271//650 419//650
f 268//93 419//93 267//93
f 263//651 264//651 420//651
f 419//652 420//652 264//652
f 419//93 264//93 267//93
f 248//653 251//653 422//653
f 248//654 422//654 385//654
f 252//655 255//655 422//655
f 252//656 422//656 251//656
f 260//657 263//657 420//657
f 260//658 420//658 259//658
f 255//659 256//659 421//659
f 255//660 421//660 422//660
f 256//661 259//661 420//661
f 256//662 420//662 421//662
f 487//663 488//663 489//663
f 490//664 491//664 492//664
f 491//664 490//664 487//664
f 493//665 492//665 491//665
f 491//665 494//665 493//665
f 493//664 495//664 496//664
f 495//664 493//664 494//664
f 497//665 496//665 495//665
f 495//664 498//664 497//664
f 499//666 497//666 498//666
f 498//667 500//667 499//667
f 499//667 501//667 502//667
f 501//667 499//667 500//667
f 502//665 503//665 504//665
f 503//665 502//665 501//665
f 504//664 505//664 506//664
f 505//665 504//665 503//665
f 506//664 507//664 508//664
f 508//665 509//665 510//665
f 506//664 505//664 511//664
f 506//664 511//664 507//664
f 510//664 509//664 512//664
f 513//665 512//665 509//665
f 509//664 514//664 513//664
f 513//665 515//665 516//665
f 515//665 513//665 514//665
f 517//664 516//664 515//664
f 515//664 518//664 517//664
f 519//664 517//664 518//664
f 518//665 520//665 519//665
f 519//665 521//665 522//665
f 521//665 519//665 520//665
f 522//665 523//665 524//665
f 523//665 522//665 521//665
f 525//665 524//665 523//665
f 523//664 526//664 525//664
f 525//664 527//664 528//664
f 527//664 525//664 526//664
f 529//668 530//668 531//668
f 532//665 533//665 534//665
f 534//664 535//664 532//664
f 532//664 536//664 537//664
f 536//665 532//665 535//665
f 538//664 537//664 536//664
f 536//669 539//669 538//669
f 538//670 540//670 541//670
f 540//669 538//669 539//669
f 542//665 541//665 540//665
f 540//664 543//664 542//664
f 542//664 544//664 545//664
f 544//664 542//664 543//664
f 546//665 545//665 544//665
f 544//664 547//664 546//664
f 546//664 548//664 549//664
f 548//664 546//664 547//664
f 548//671 489//671 488//671
f 550//672 488//672 487//672
f 551//673 550//673 487//673
f 552//674 551//674 487//674
f 490//675 552//675 487//675
f 9//676 553//676 232//676
f 219//294 358//294 554//294
f 228//294 555//294 356//294
f 14//676 229//676 556//676
f 397//677 556//677 555//677
f 556//678 397//678 395//678
f 555//679 399//679 397//679
f 555//680 401//680 399//680
f 555//681 382//681 401//681
f 555//682 227//682 382//682
f 555//683 228//683 227//683
f 556//683 15//683 14//683
f 381//684 15//684 556//684
f 389//685 381//685 556//685
f 391//686 389//686 556//686
f 393//687 391//687 556//687
f 395//688 393//688 556//688
f 440//689 554//689 553//689
f 554//690 440//690 442//690
f 554//691 442//691 444//691
f 554//692 444//692 446//692
f 554//693 446//693 448//693
f 554//694 448//694 450//694
f 554//695 450//695 220//695
f 554//696 220//696 219//696
f 553//696 9//696 8//696
f 434//697 553//697 432//697
f 436//698 553//698 434//698
f 438//699 553//699 436//699
f 440//700 553//700 438//700
f 430//701 8//701 428//701
f 553//702 8//702 430//702
f 553//703 430//703 432//703
f 232//528 358//528 441//528
f 441//704 439//704 232//704
f 358//528 443//528 441//528
f 358//528 445//528 443//528
f 358//528 447//528 445//528
f 358//528 449//528 447//528
f 358//528 451//528 449//528
f 358//528 453//528 451//528
f 427//528 424//528 232//528
f 429//528 427//528 232//528
f 431//528 429//528 232//528
f 433//528 431//528 232//528
f 435//528 433//528 232//528
f 437//528 435//528 232//528
f 439//528 437//528 232//528
f 229//705 398//705 356//705
f 398//706 229//706 396//706
f 356//707 398//707 400//707
f 356//708 400//708 402//708
f 356//709 402//709 403//709
f 356//710 403//710 404//710
f 356//711 404//711 405//711
f 356//712 405//712 406//712
f 386//713 229//713 384//713
f 387//714 229//714 386//714
f 388//715 229//715 387//715
f 390//716 229//716 388//716
f 392//717 229//717 390//717
f 394//718 229//718 392//718
f 396//719 229//719 394//719
f 487//720 557//720 491//720
f 547//720 558//720 548//720
f 515//721 559//721 518//721
f 521//722 560//722 523//722
f 520//722 560//722 521//722
f 518//723 559//723 520//723
f 520//724 559//724 560//724
f 553//725 498//725 495//725
f 553//726 500//726 498//726
f 554//727 505//727 503//727
f 554//727 511//727 505//727
f 554//728 507//728 511//728
f 554//729 509//729 507//729
f 553//730 501//730 500//730
f 503//731 553//731 554//731
f 503//732 501//732 553//732
f 556//733 543//733 540//733
f 556//734 540//734 539//734
f 555//735 535//735 534//735
f 555//736 534//736 530//736
f 555//737 530//737 529//737
f 555//738 529//738 527//738
f 556//739 539//739 536//739
f 535//740 555//740 556//740
f 535//741 556//741 536//741
f 232//742 495//742 494//742
f 495//743 232//743 553//743
f 229//744 544//744 543//744
f 543//745 556//745 229//745
f 229//746 558//746 547//746
f 547//747 544//747 229//747
f 232//748 491//748 557//748
f 491//749 232//749 494//749
f 358//750 514//750 509//750
f 509//751 554//751 358//751
f 356//752 527//752 526//752
f 527//751 356//751 555//751
f 356//753 526//753 523//753
f 523//754 560//754 356//754
f 358//755 559//755 515//755
f 515//756 514//756 358//756
f 493//757 561//757 562//757
f 562//758 492//758 493//758
f 492//759 563//759 490//759
f 563//760 492//760 562//760
f 564//761 548//761 488//761
f 565//762 548//762 564//762
f 566//763 548//763 565//763
f 549//764 548//764 566//764
f 549//765 567//765 546//765
f 567//766 549//766 568//766
f 546//767 567//767 569//767
f 569//768 545//768 546//768
f 545//769 570//769 542//769
f 570//770 545//770 569//770
f 542//771 570//771 571//771
f 571//772 541//772 542//772
f 541//773 572//773 538//773
f 572//774 541//774 571//774
f 538//775 572//775 573//775
f 573//776 537//776 538//776
f 537//777 574//777 532//777
f 574//778 537//778 573//778
f 532//779 574//779 575//779
f 575//780 533//780 532//780
f 533//781 576//781 531//781
f 576//782 533//782 575//782
f 531//783 576//783 577//783
f 577//784 578//784 531//784
f 578//785 577//785 579//785
f 579//786 528//786 578//786
f 528//787 580//787 525//787
f 580//788 528//788 579//788
f 525//789 580//789 581//789
f 581//790 524//790 525//790
f 524//791 582//791 522//791
f 582//792 524//792 581//792
f 522//793 583//793 519//793
f 583//794 522//794 582//794
f 519//795 583//795 584//795
f 584//796 517//796 519//796
f 517//797 584//797 585//797
f 585//798 516//798 517//798
f 516//799 586//799 513//799
f 586//800 516//800 585//800
f 513//801 586//801 587//801
f 587//802 512//802 513//802
f 512//803 588//803 510//803
f 588//804 512//804 587//804
f 510//805 588//805 589//805
f 589//806 508//806 510//806
f 508//807 589//807 590//807
f 590//808 506//808 508//808
f 506//809 591//809 504//809
f 591//810 506//810 590//810
f 504//811 592//811 502//811
f 592//812 504//812 591//812
f 502//813 593//813 499//813
f 593//814 502//814 592//814
f 499//815 593//815 594//815
f 594//816 497//816 499//816
f 497//817 594//817 595//817
f 595//818 496//818 497//818
f 561//819 496//819 595//819
f 496//820 561//820 493//820
f 487//821 596//821 597//821
f 596//720 487//720 489//720
f 489//720 598//720 596//720
f 489//720 548//720 599//720
f 599//720 600//720 489//720
f 489//720 600//720 598//720
f 487//720 597//720 601//720
f 487//720 602//720 557//720
f 602//720 487//720 601//720
f 548//720 603//720 599//720
f 548//720 558//720 604//720
f 604//720 603//720 548//720
f 557//720 602//720 605//720
f 557//720 605//720 606//720
f 558//720 607//720 604//720
f 558//720 608//720 607//720
f 558//720 609//720 608//720
f 557//720 606//720 610//720
f 557//720 610//720 611//720
f 558//822 611//822 609//822
f 557//720 611//720 558//720
f 533//664 530//664 534//664
f 533//664 531//664 530//664
f 578//823 528//823 527//823
f 531//666 578//666 527//666
f 531//668 527//668 529//668
f 550//824 612//824 488//824
f 612//825 550//825 613//825
f 564//826 614//826 565//826
f 614//826 564//826 615//826
f 566//827 568//827 549//827
f 568//828 566//828 616//828
f 565//829 616//829 566//829
f 616//829 565//829 614//829
f 551//830 613//830 550//830
f 613//830 551//830 617//830
f 564//831 488//831 612//831
f 612//832 615//832 564//832
f 552//833 617//833 551//833
f 617//833 552//833 618//833
f 490//834 618//834 552//834
f 618//835 490//835 563//835
f 508//667 507//667 509//667
f 619//836 620//836 621//836
f 620//836 619//836 622//836
f 623//837 624//837 625//837
f 624//837 623//837 626//837
f 627//838 628//838 629//838
f 628//838 627//838 630//838
f 631//839 632//839 633//839
f 632//839 631//839 634//839
f 635//840 636//840 637//840
f 636//840 635//840 638//840
f 639//841 640//841 641//841
f 640//841 639//841 642//841
f 643//842 644//842 645//842
f 644//842 643//842 646//842
f 647//843 648//843 649//843
f 648//843 647//843 650//843
f 651//844 652//844 653//844
f 652//844 651//844 654//844
f 655//845 656//845 657//845
f 656//845 655//845 658//845
f 659//846 660//846 661//846
f 660//846 659//846 662//846
f 663//847 664//847 665//847
f 664//847 663//847 666//847
f 667//848 668//848 669//848
f 668//848 667//848 670//848
f 671//849 672//849 673//849
f 672//849 671//849 674//849
f 675//850 676//850 677//850
f 676//850 675//850 678//850
f 679//851 680//851 681//851
f 680//851 679//851 682//851
f 683//852 684//852 685//852
f 684//852 683//852 686//852
f 687//853 688//853 689//853
f 688//853 687//853 690//853
f 691//854 692//854 693//854
f 692//854 691//854 694//854
f 695//855 696//855 697//855
f 696//855 695//855 698//855
f 699//856 700//856 701//856
f 700//856 699//856 702//856
f 703//857 704//857 705//857
f 704//857 703//857 706//857
f 707//858 708//858 709//858
f 708//858 707//858 710//858
f 711//859 712//859 713//859
f 712//859 711//859 714//859
f 715//860 716//860 717//860
f 716//860 715//860 718//860
f 719//861 720//861 721//861
f 720//862 719//862 722//862
f 723//863 724//863 725//863
f 724//863 723//863 726//863
f 621//864 626//864 623//864
f 626//864 621//864 620//864
f 625//865 727//865 728//865
f 727//865 625//865 624//865
f 633//866 729//866 730//866
f 729//866 633//866 632//866
f 731//867 732//867 733//867
f 732//867 731//867 734//867
f 637//868 642//868 639//868
f 642//868 637//868 636//868
f 641//869 622//869 619//869
f 622//869 641//869 640//869
f 649//870 630//870 627//870
f 630//870 649//870 648//870
f 629//871 634//871 631//871
f 634//871 629//871 628//871
f 653//872 658//872 655//872
f 658//872 653//872 652//872
f 657//873 638//873 635//873
f 638//873 657//873 656//873
f 665//874 646//874 643//874
f 646//874 665//874 664//874
f 645//875 650//875 647//875
f 650//875 645//875 644//875
f 669//876 678//876 675//876
f 678//876 669//876 668//876
f 673//877 682//877 679//877
f 682//877 673//877 672//877
f 677//878 735//878 736//878
f 735//878 677//878 676//878
f 681//879 654//879 651//879
f 654//879 681//879 680//879
f 689//880 662//880 659//880
f 662//880 689//880 688//880
f 661//881 666//881 663//881
f 666//881 661//881 660//881
f 693//882 702//882 699//882
f 702//882 693//882 692//882
f 697//883 706//883 703//883
f 706//883 697//883 696//883
f 701//884 670//884 667//884
f 670//884 701//884 700//884
f 705//885 674//885 671//885
f 674//886 705//886 704//886
f 713//887 686//887 683//887
f 686//887 713//887 712//887
f 685//888 690//888 687//888
f 690//888 685//888 684//888
f 717//889 722//889 719//889
f 722//889 717//889 716//889
f 721//890 694//890 691//890
f 694//890 721//890 720//890
f 725//891 698//891 695//891
f 698//891 725//891 724//891
f 728//892 710//892 707//892
f 710//892 728//892 727//892
f 709//893 714//893 711//893
f 714//893 709//893 708//893
f 730//894 734//894 731//894
f 734//894 730//894 729//894
f 733//895 718//895 715//895
f 718//895 733//895 732//895
f 584//896 583//896 684//896
f 737//896 612//896 613//896
f 588//897 622//897 589//897
f 678//897 614//897 676//897
f 579//896 650//896 644//896
f 594//896 682//896 672//896
f 580//897 646//897 664//897
f 577//897 648//897 579//897
f 582//897 688//897 583//897
f 727//896 624//896 587//896
f 712//896 714//896 585//896
f 580//897 664//897 581//897
f 581//897 660//897 582//897
f 580//896 644//896 646//896
f 356//664 733//664 229//664
f 613//897 726//897 738//897
f 582//897 660//897 662//897
f 595//896 706//896 561//896
f 569//896 670//896 570//896
f 714//897 708//897 585//897
f 739//896 612//896 740//896
f 577//897 628//897 630//897
f 579//896 644//896 580//896
f 708//896 710//896 586//896
f 579//896 648//896 650//896
f 710//896 727//896 586//896
f 581//896 666//896 660//896
f 594//896 674//896 595//896
f 571//897 694//897 572//897
f 561//897 696//897 698//897
f 581//897 664//897 666//897
f 624//898 626//898 587//898
f 613//897 738//897 737//897
f 626//899 620//899 588//899
f 593//896 654//896 680//896
f 620//898 622//898 588//898
f 587//897 626//897 588//897
f 622//896 640//896 589//896
f 575//896 729//896 632//896
f 575//896 632//896 576//896
f 576//896 628//896 577//896
f 575//896 734//896 729//896
f 642//897 636//897 590//897
f 590//897 638//897 591//897
f 636//897 638//897 590//897
f 574//897 734//897 575//897
f 656//896 591//896 638//896
f 574//897 732//897 734//897
f 658//897 591//897 656//897
f 574//896 718//896 732//896
f 658//897 592//897 591//897
f 573//897 718//897 574//897
f 652//896 592//896 658//896
f 573//897 716//897 718//897
f 654//897 592//897 652//897
f 573//897 722//897 716//897
f 592//896 654//896 593//896
f 720//896 722//896 572//896
f 585//896 708//896 586//896
f 694//897 720//897 572//897
f 678//896 567//896 614//896
f 686//900 584//900 684//900
f 593//897 682//897 594//897
f 692//896 694//896 571//896
f 561//897 706//897 696//897
f 702//897 692//897 571//897
f 615//897 676//897 614//897
f 700//896 702//896 570//896
f 595//896 674//896 704//896
f 670//896 700//896 570//896
f 584//896 712//896 585//896
f 668//896 670//896 569//896
f 593//897 680//897 682//897
f 741//900 615//900 739//900
f 594//897 672//897 674//897
f 678//897 668//897 569//897
f 640//896 642//896 589//896
f 576//897 634//897 628//897
f 561//897 698//897 562//897
f 735//896 676//896 615//896
f 589//896 642//896 590//896
f 741//896 735//896 615//896
f 686//896 712//896 584//896
f 576//896 632//896 634//896
f 572//896 722//896 573//896
f 583//897 688//897 690//897
f 726//896 617//896 724//896
f 684//896 583//896 690//896
f 570//896 702//896 571//896
f 688//897 582//897 662//897
f 577//897 630//897 648//897
f 615//897 612//897 739//897
f 595//896 704//896 706//896
f 740//897 612//897 737//897
f 586//896 727//896 587//896
f 698//896 617//896 562//896
f 724//901 617//901 698//901
f 569//896 567//896 678//896
f 567//897 616//897 614//897
f 618//896 562//896 617//896
f 567//896 568//896 616//896
f 563//897 562//897 618//897
f 617//897 726//897 613//897
f 559//664 625//664 728//664
f 689//664 560//664 687//664
f 685//823 687//823 559//823
f 631//665 356//665 629//665
f 559//665 707//665 709//665
f 559//664 711//664 713//664
f 659//664 661//664 560//664
f 559//665 709//665 711//665
f 661//665 663//665 560//665
f 559//664 728//664 707//664
f 663//664 665//664 560//664
f 358//664 635//664 637//664
f 665//664 643//664 560//664
f 358//902 657//902 635//902
f 559//665 687//665 560//665
f 358//665 625//665 559//665
f 625//823 358//823 623//823
f 623//903 358//903 621//903
f 621//823 358//823 619//823
f 619//665 358//665 641//665
f 641//664 358//664 639//664
f 558//665 669//665 675//665
f 629//664 356//664 627//664
f 627//664 356//664 649//664
f 647//665 649//665 560//665
f 645//665 647//665 560//665
f 643//665 645//665 560//665
f 659//664 560//664 689//664
f 358//664 637//664 639//664
f 631//665 633//665 356//665
f 558//664 701//664 667//664
f 633//665 730//665 356//665
f 558//664 699//664 701//664
f 730//665 731//665 356//665
f 232//665 657//665 358//665
f 731//664 733//664 356//664
f 655//664 657//664 232//664
f 229//902 733//902 715//902
f 653//665 655//665 232//665
f 229//664 715//664 717//664
f 651//664 653//664 232//664
f 229//664 717//664 719//664
f 681//665 651//665 232//665
f 229//665 719//665 721//665
f 679//664 681//664 232//664
f 229//664 721//664 691//664
f 673//665 679//665 232//665
f 229//665 691//665 693//665
f 671//664 673//664 232//664
f 229//664 693//664 699//664
f 705//665 671//665 232//665
f 229//665 699//665 558//665
f 703//665 705//665 557//665
f 560//665 649//665 356//665
f 697//664 703//664 557//664
f 695//664 697//664 557//664
f 557//665 705//665 232//665
f 725//665 695//665 557//665
f 559//903 683//903 685//903
f 558//664 675//664 677//664
f 558//664 667//664 669//664
f 723//665 725//665 557//665
f 558//664 677//664 736//664
f 742//664 723//664 557//664
f 558//664 736//664 743//664
f 744//664 742//664 557//664
f 558//903 743//903 745//903
f 746//664 744//664 557//664
f 558//823 745//823 746//823
f 558//665 746//665 557//665
f 559//665 713//665 683//665
f 607//904 608//904 747//904
f 747//904 748//904 607//904
f 610//905 606//905 749//905
f 749//906 750//906 610//906
f 603//907 604//907 751//907
f 751//907 752//907 603//907
f 608//908 609//908 753//908
f 753//909 747//909 608//909
f 604//910 607//910 748//910
f 748//910 751//910 604//910
f 606//911 605//911 754//911
f 754//911 749//911 606//911
f 601//912 597//912 755//912
f 755//912 756//912 601//912
f 597//913 596//913 757//913
f 757//913 755//913 597//913
f 596//914 598//914 758//914
f 758//914 757//914 596//914
f 600//915 599//915 759//915
f 759//916 760//916 600//916
f 598//917 600//917 760//917
f 760//917 758//917 598//917
f 609//918 611//918 761//918
f 761//919 753//919 609//919
f 605//920 602//920 762//920
f 762//920 754//920 605//920
f 602//921 601//921 756//921
f 756//921 762//921 602//921
f 599//922 603//922 752//922
f 752//922 759//922 599//922
f 611//923 610//923 750//923
f 750//923 761//923 611//923
f 761//924 744//924 746//924
f 744//925 761//925 750//925
f 745//926 761//926 746//926
f 761//927 745//927 753//927
f 745//928 747//928 753//928
f 747//929 745//929 743//929
f 742//930 750//930 749//930
f 750//931 742//931 744//931
f 740//932 757//932 758//932
f 757//933 740//933 737//933
f 739//934 758//934 760//934
f 758//935 739//935 740//935
f 741//936 739//936 760//936
f 735//937 759//937 752//937
f 735//938 751//938 736//938
f 741//939 759//939 735//939
f 759//940 741//940 760//940
f 752//941 751//941 735//941
f 736//942 751//942 748//942
f 736//943 748//943 747//943
f 736//944 747//944 743//944
f 757//945 737//945 738//945
f 757//946 738//946 755//946
f 756//947 755//947 726//947
f 726//948 762//948 756//948
f 723//949 762//949 726//949
f 754//950 762//950 723//950
f 749//951 754//951 723//951
f 742//952 749//952 723//952
f 726//953 755//953 738//953
