# Blender 5.0.1
# www.blender.org
mtllib right_shoulder_z_link_visual_8.mtl
o i01.rightArm.rotate.full.009_visual.001
v 0.265447 0.000000 0.037625
v -0.305893 -0.009745 0.036343
v 0.265447 0.000000 0.060201
v -0.305893 0.000000 0.037625
v 0.265447 -0.009745 0.036343
v 0.265447 0.009731 0.036344
v 0.309656 -0.009745 0.036343
v 0.309656 0.000000 0.037625
v 0.309656 0.009731 0.036344
v 0.345400 0.009731 0.036344
v 0.309656 0.000000 0.060201
v 0.345400 0.000000 0.037625
v 0.345400 -0.009745 0.036343
v 0.309656 -0.018819 0.032582
v 0.345400 -0.018819 0.032582
v 0.345400 0.018806 0.032586
v 0.345400 0.026599 0.026608
v 0.309656 0.018806 0.032586
v 0.309656 0.026599 0.026608
v 0.265447 0.018806 0.032586
v 0.309656 0.051320 0.030571
v 0.265447 0.026599 0.026608
v -0.305893 0.026599 0.026608
v 0.309656 0.032579 0.018815
v 0.265447 0.032579 0.018815
v -0.305893 0.018806 0.032586
v 0.265447 0.051320 0.030571
v 0.309656 0.051320 -0.028689
v 0.265447 0.051320 -0.028689
v 0.265447 0.036338 0.009742
v 0.309656 0.036338 0.009742
v 0.309656 0.037621 0.000004
v -0.305893 0.036338 0.009742
v -0.305893 0.032579 0.018815
v 0.265447 0.037621 0.000004
v 0.309656 0.036340 -0.009734
v -0.305893 0.037621 0.000004
v 0.265447 0.036340 -0.009734
v -0.305893 0.036340 -0.009734
v 0.265447 0.032582 -0.018809
v 0.309656 0.032582 -0.018809
v 0.345400 0.026604 -0.026602
v 0.309656 0.026604 -0.026602
v 0.345400 0.032582 -0.018809
v 0.345400 -0.032586 -0.018815
v 0.345400 0.036340 -0.009734
v 0.345400 -0.036345 -0.009741
v 0.345400 -0.037628 -0.000003
v 0.309656 -0.036345 -0.009741
v 0.309656 -0.037628 -0.000003
v 0.265447 -0.032586 -0.018815
v 0.309656 -0.051320 -0.028689
v 0.309656 -0.032586 -0.018815
v 0.265447 -0.036345 -0.009741
v -0.305893 -0.036345 -0.009741
v 0.265447 -0.051320 -0.028689
v 0.265447 -0.037628 -0.000003
v -0.305893 -0.032586 -0.018815
v -0.305893 -0.026606 -0.026607
v -0.305893 0.026604 -0.026602
v 0.265447 -0.026606 -0.026607
v -0.305893 -0.056099 -0.032388
v -0.305893 0.032582 -0.018809
v 0.265447 0.026604 -0.026602
v -0.305893 0.056099 -0.032390
v -0.345399 0.056099 0.032390
v -0.305893 0.056099 0.032390
v -0.345399 0.056099 -0.032390
v -0.345399 0.000000 -0.064778
v -0.305893 0.018812 -0.032582
v -0.305893 0.000000 -0.064778
v -0.305893 -0.009738 -0.036343
v -0.305893 0.009738 -0.036342
v -0.305893 -0.018813 -0.032585
v -0.305893 0.000000 -0.037624
v -0.345399 -0.056099 -0.032388
v -0.305893 -0.056099 0.032390
v -0.345399 -0.056099 0.032390
v -0.345399 0.000000 0.064778
v -0.305893 0.000000 0.064778
v -0.305893 -0.026611 0.026603
v -0.305893 -0.018819 0.032582
v -0.305893 -0.032589 0.018809
v -0.305893 -0.036347 0.009735
v 0.265447 -0.032589 0.018809
v 0.265447 -0.026611 0.026603
v 0.309656 -0.026611 0.026603
v 0.265447 -0.051320 0.030571
v 0.265447 -0.018819 0.032582
v 0.309656 -0.051320 0.030571
v 0.265447 -0.036347 0.009735
v 0.309656 -0.036347 0.009735
v -0.305893 -0.037628 -0.000003
v 0.309656 -0.032589 0.018809
v 0.345400 -0.032589 0.018809
v 0.345400 0.036338 0.009742
v 0.345400 -0.036347 0.009735
v 0.345400 0.032579 0.018815
v 0.345400 -0.026611 0.026603
v 0.345400 0.037621 0.000004
v 0.265447 0.009738 -0.036342
v 0.265447 0.000000 -0.037624
v 0.265447 -0.009738 -0.036343
v 0.309656 -0.009738 -0.036343
v 0.309656 0.000000 -0.037624
v 0.265447 0.000000 -0.058318
v 0.309656 0.000000 -0.058318
v 0.265447 -0.018813 -0.032585
v 0.265447 0.018812 -0.032582
v 0.309656 0.018812 -0.032582
v 0.309656 0.009738 -0.036342
v 0.345400 0.018812 -0.032582
v 0.345400 0.009738 -0.036342
v 0.345400 -0.009738 -0.036343
v 0.345400 0.000000 -0.037624
v 0.345400 -0.018813 -0.032585
v 0.309656 -0.018813 -0.032585
v 0.345400 -0.026606 -0.026607
v 0.309656 -0.026606 -0.026607
v -0.305893 0.009731 0.036344
vn -0.0000 -0.1305 0.9914
vn -1.0000 -0.0000 -0.0000
vn -0.0000 0.1306 0.9914
vn 1.0000 -0.0000 -0.0000
vn -0.0000 -0.3828 0.9238
vn -0.0000 0.6087 0.7934
vn -0.0000 0.3826 0.9239
vn -0.0000 0.7933 0.6088
vn -0.0000 1.0000 -0.0000
vn -0.0000 0.5000 0.8660
vn -0.0000 0.9914 0.1306
vn -0.0000 0.9238 0.3828
vn -0.0000 0.9915 -0.1304
vn -0.0000 0.9239 -0.3826
vn -0.0000 0.7934 -0.6087
vn -0.0000 -0.9914 -0.1306
vn -0.0000 -0.9238 -0.3828
vn -0.0000 -0.7933 -0.6088
vn -0.0000 0.5000 -0.8660
vn -0.0000 -0.5000 -0.8660
vn -0.0000 -1.0000 -0.0000
vn -0.0000 -0.5000 0.8660
vn -0.0000 -0.9239 0.3826
vn 1.0000 0.0001 -0.0000
vn -0.0000 -0.7934 0.6087
vn -0.0000 -0.6088 0.7933
vn -0.0000 -0.9915 0.1304
vn -0.0000 0.1306 -0.9914
vn -0.0000 -0.1305 -0.9914
vn -0.0000 0.3828 -0.9239
vn -0.0000 0.6089 -0.7933
vn -0.0000 0.3828 -0.9238
vn -0.0000 -0.3826 -0.9239
vn -0.0000 -0.6087 -0.7934
s 0
usemtl Material.019
f 2//1 5//1 1//1
f 1//1 4//1 2//1
f 1//2 3//2 6//2
f 1//2 5//2 3//2
f 1//3 6//3 4//3
f 1//1 5//1 7//1
f 1//3 8//3 6//3
f 7//1 8//1 1//1
f 11//4 8//4 9//4
f 8//3 9//3 6//3
f 10//3 9//3 8//3
f 8//3 12//3 10//3
f 7//4 8//4 11//4
f 12//1 8//1 7//1
f 7//1 13//1 12//1
f 10//4 12//4 13//4
f 14//5 15//5 13//5
f 13//5 7//5 14//5
f 13//4 16//4 10//4
f 13//4 15//4 16//4
f 18//6 16//6 17//6
f 15//4 17//4 16//4
f 9//7 10//7 16//7
f 16//7 18//7 9//7
f 9//4 18//4 21//4
f 9//7 18//7 20//7
f 18//4 19//4 21//4
f 18//6 19//6 22//6
f 17//6 19//6 18//6
f 22//6 20//6 18//6
f 22//8 19//8 24//8
f 23//8 22//8 25//8
f 22//6 23//6 26//6
f 24//8 25//8 22//8
f 27//2 25//2 22//2
f 26//6 20//6 22//6
f 27//2 22//2 20//2
f 27//2 20//2 6//2
f 27//9 21//9 28//9
f 28//9 29//9 27//9
f 27//2 30//2 25//2
f 3//2 27//2 6//2
f 27//10 3//10 11//10
f 27//2 29//2 30//2
f 11//10 21//10 27//10
f 30//11 31//11 32//11
f 31//12 30//12 25//12
f 32//11 35//11 30//11
f 29//2 35//2 30//2
f 33//11 30//11 35//11
f 30//12 33//12 34//12
f 34//12 25//12 30//12
f 35//13 32//13 36//13
f 36//13 38//13 35//13
f 29//2 38//2 35//2
f 37//13 35//13 38//13
f 35//11 37//11 33//11
f 39//14 38//14 40//14
f 38//13 39//13 37//13
f 41//14 40//14 38//14
f 29//2 40//2 38//2
f 38//14 36//14 41//14
f 41//4 43//4 28//4
f 36//4 41//4 28//4
f 41//15 44//15 42//15
f 42//15 43//15 41//15
f 40//15 41//15 43//15
f 44//14 41//14 36//14
f 45//4 42//4 44//4
f 47//4 45//4 44//4
f 36//14 46//14 44//14
f 47//4 44//4 46//4
f 48//4 47//4 46//4
f 49//16 47//16 48//16
f 45//17 47//17 49//17
f 52//4 49//4 50//4
f 54//16 49//16 50//16
f 48//16 50//16 49//16
f 51//17 53//17 49//17
f 49//17 54//17 51//17
f 52//4 53//4 49//4
f 49//17 53//17 45//17
f 55//16 54//16 57//16
f 54//17 55//17 58//17
f 54//2 51//2 56//2
f 57//2 54//2 56//2
f 50//16 57//16 54//16
f 58//17 51//17 54//17
f 58//2 60//2 59//2
f 58//18 59//18 61//18
f 62//4 59//4 58//4
f 58//2 63//2 60//2
f 61//18 51//18 58//18
f 62//4 58//4 55//4
f 55//2 63//2 58//2
f 55//2 39//2 63//2
f 40//14 63//14 39//14
f 39//4 63//4 65//4
f 64//15 60//15 63//15
f 63//4 60//4 65//4
f 63//15 40//15 64//15
f 66//9 67//9 65//9
f 65//9 68//9 66//9
f 34//4 65//4 67//4
f 33//4 37//4 65//4
f 34//4 33//4 65//4
f 69//19 68//19 65//19
f 60//4 70//4 65//4
f 37//4 39//4 65//4
f 65//19 71//19 69//19
f 70//4 71//4 65//4
f 71//4 75//4 72//4
f 71//4 72//4 74//4
f 73//4 75//4 71//4
f 70//4 73//4 71//4
f 71//20 62//20 76//20
f 62//4 71//4 74//4
f 76//20 69//20 71//20
f 76//21 62//21 77//21
f 77//21 78//21 76//21
f 68//2 69//2 76//2
f 68//2 76//2 78//2
f 66//2 68//2 78//2
f 78//2 79//2 66//2
f 79//22 78//22 77//22
f 66//10 79//10 80//10
f 77//22 80//22 79//22
f 4//4 80//4 77//4
f 67//4 80//4 4//4
f 80//10 67//10 66//10
f 77//4 82//4 2//4
f 77//4 2//4 4//4
f 77//4 83//4 81//4
f 77//4 81//4 82//4
f 77//4 62//4 83//4
f 83//2 33//2 84//2
f 85//23 83//23 84//23
f 62//24 84//24 83//24
f 83//2 34//2 33//2
f 81//2 34//2 83//2
f 86//25 81//25 83//25
f 83//25 85//25 86//25
f 81//26 86//26 89//26
f 89//26 86//26 87//26
f 87//25 86//25 85//25
f 86//2 85//2 88//2
f 89//2 86//2 88//2
f 82//5 89//5 5//5
f 89//26 82//26 81//26
f 5//2 89//2 88//2
f 5//5 89//5 14//5
f 87//26 14//26 89//26
f 5//2 88//2 3//2
f 3//22 88//22 90//22
f 85//2 91//2 88//2
f 90//21 88//21 56//21
f 91//2 56//2 88//2
f 91//23 92//23 94//23
f 92//27 91//27 57//27
f 94//23 85//23 91//23
f 84//23 91//23 85//23
f 93//27 57//27 91//27
f 91//27 84//27 93//27
f 91//2 57//2 56//2
f 90//4 92//4 94//4
f 95//23 94//23 92//23
f 87//25 94//25 95//25
f 85//25 94//25 87//25
f 90//4 94//4 87//4
f 95//4 97//4 96//4
f 95//4 96//4 98//4
f 92//23 97//23 95//23
f 99//4 95//4 98//4
f 95//25 99//25 87//25
f 99//4 98//4 17//4
f 15//4 99//4 17//4
f 87//26 99//26 15//26
f 19//8 17//8 98//8
f 98//8 24//8 19//8
f 24//12 98//12 96//12
f 50//27 48//27 97//27
f 97//27 92//27 50//27
f 97//4 48//4 100//4
f 97//4 100//4 96//4
f 31//11 96//11 100//11
f 100//11 32//11 31//11
f 32//13 100//13 46//13
f 48//4 46//4 100//4
f 96//12 31//12 24//12
f 84//2 37//2 93//2
f 62//4 93//4 84//4
f 57//16 93//16 55//16
f 93//2 37//2 39//2
f 62//4 55//4 93//4
f 93//2 39//2 55//2
f 52//4 50//4 92//4
f 57//27 50//27 92//27
f 90//4 52//4 92//4
f 11//4 90//4 7//4
f 90//22 11//22 3//22
f 56//21 52//21 90//21
f 90//4 14//4 7//4
f 90//4 87//4 14//4
f 15//26 14//26 87//26
f 84//2 33//2 37//2
f 5//5 2//5 82//5
f 82//2 26//2 23//2
f 2//2 26//2 82//2
f 82//2 23//2 81//2
f 81//2 23//2 34//2
f 72//2 73//2 75//2
f 75//28 73//28 101//28
f 101//28 102//28 75//28
f 72//29 75//29 102//29
f 105//28 102//28 101//28
f 106//2 102//2 101//2
f 104//29 103//29 102//29
f 102//29 103//29 72//29
f 103//2 102//2 106//2
f 102//29 105//29 104//29
f 52//20 56//20 106//20
f 106//20 107//20 52//20
f 107//19 106//19 29//19
f 108//2 103//2 106//2
f 106//2 101//2 109//2
f 108//2 106//2 56//2
f 29//2 106//2 109//2
f 109//30 110//30 111//30
f 110//31 109//31 64//31
f 109//30 101//30 73//30
f 73//32 70//32 109//32
f 64//31 109//31 70//31
f 29//2 109//2 64//2
f 111//30 101//30 109//30
f 112//30 113//30 111//30
f 111//30 110//30 112//30
f 110//4 111//4 107//4
f 101//28 111//28 105//28
f 111//4 105//4 107//4
f 105//28 111//28 113//28
f 114//4 115//4 113//4
f 116//4 114//4 113//4
f 113//28 115//28 105//28
f 116//4 113//4 112//4
f 114//33 116//33 117//33
f 119//34 117//34 116//34
f 116//34 118//34 119//34
f 118//4 116//4 112//4
f 119//18 118//18 45//18
f 119//34 61//34 108//34
f 108//34 117//34 119//34
f 52//4 117//4 119//4
f 45//18 53//18 119//18
f 52//4 119//4 53//4
f 61//18 119//18 53//18
f 45//4 118//4 42//4
f 118//4 112//4 42//4
f 117//33 108//33 103//33
f 103//33 104//33 117//33
f 107//4 104//4 117//4
f 117//33 104//33 114//33
f 52//4 107//4 117//4
f 104//29 105//29 115//29
f 115//29 114//29 104//29
f 42//31 112//31 110//31
f 43//4 110//4 28//4
f 64//31 43//31 110//31
f 110//31 43//31 42//31
f 110//4 107//4 28//4
f 108//34 61//34 59//34
f 61//2 108//2 56//2
f 59//34 74//34 108//34
f 103//33 108//33 74//33
f 29//19 28//19 107//19
f 107//4 105//4 104//4
f 74//33 72//33 103//33
f 74//2 70//2 73//2
f 59//2 70//2 74//2
f 62//4 74//4 59//4
f 74//2 73//2 72//2
f 59//2 60//2 70//2
f 70//31 60//31 64//31
f 26//4 23//4 67//4
f 120//4 26//4 67//4
f 23//4 34//4 67//4
f 4//4 120//4 67//4
f 120//2 2//2 4//2
f 6//3 120//3 4//3
f 2//2 120//2 26//2
f 20//7 26//7 120//7
f 120//7 6//7 20//7
f 29//2 64//2 40//2
f 43//15 64//15 40//15
f 53//18 51//18 61//18
f 51//2 61//2 56//2
f 46//13 36//13 32//13
f 32//4 36//4 28//4
f 25//8 34//8 23//8
f 31//4 32//4 28//4
f 31//4 28//4 21//4
f 24//4 31//4 21//4
f 25//12 24//12 31//12
f 19//4 24//4 21//4
f 9//4 21//4 11//4
f 20//7 6//7 9//7
f 14//5 7//5 5//5
