# Blender 5.0.1
# www.blender.org
mtllib right_wrist_z_link_visual_3.mtl
o KidsBaseV4.005_visual.001
v 0.011152 -0.011010 0.025568
v 0.003790 0.001304 0.029668
v -0.004504 0.013273 0.026414
v 0.007713 -0.005008 0.028516
v -0.000370 0.007528 0.028953
v -0.008354 0.018179 0.022213
v -0.011678 0.021937 0.016611
v 0.015762 -0.020621 0.015127
v 0.013893 -0.016326 0.021009
v -0.014266 0.024312 0.009961
v 0.016479 -0.025153 0.000928
v 0.016643 -0.023627 0.008290
v -0.015957 0.025153 0.002682
v -0.016643 0.024408 -0.004769
v -0.016282 0.022124 -0.011925
v 0.015281 -0.025104 -0.006496
v 0.013125 -0.023484 -0.013515
v -0.014896 0.018445 -0.018335
v -0.012573 0.013601 -0.023598
v 0.010145 -0.020393 -0.019690
v -0.009458 0.007897 -0.027380
v -0.005747 0.001691 -0.029448
v 0.006530 -0.016026 -0.024631
v 0.002506 -0.010658 -0.028028
v -0.001674 -0.004626 -0.029668
vn -0.8312 -0.5405 0.1305
s 0
usemtl Material.073
f 21//1 22//1 25//1 24//1 23//1 20//1 17//1 16//1 11//1 12//1 8//1 9//1 1//1 4//1 2//1 5//1 3//1 6//1 7//1 10//1 13//1 14//1 15//1 18//1 19//1
