# Blender 5.0.1
# www.blender.org
mtllib right_elbow_x_link_visual_10.mtl
o i01.right.bicep.full.011_visual.001
v -0.014886 -0.037208 -0.021449
v -0.022510 0.023241 -0.031665
v 0.035519 -0.008646 -0.026276
v -0.025167 -0.021331 0.031280
v -0.033311 0.009937 -0.029416
v -0.036028 -0.007405 -0.026485
v -0.030811 -0.023654 -0.023740
v -0.010024 -0.029547 0.032669
v 0.034389 0.005141 -0.028605
v 0.026057 0.020073 -0.031130
v 0.002704 -0.039887 -0.020997
v 0.007756 0.030303 -0.032858
v 0.019182 -0.034741 -0.021866
v -0.010025 0.029546 -0.032729
v 0.031213 -0.021808 -0.024052
v 0.030424 -0.014552 0.030134
v 0.017308 -0.026414 0.032139
v 0.036028 0.005441 0.026755
v 0.002701 0.039887 0.020935
v 0.003959 -0.030661 0.032858
v -0.011232 0.038289 0.021205
v 0.019180 0.034742 0.021805
v 0.031212 0.021809 0.023990
v -0.034408 -0.006335 0.028747
v -0.036028 0.007405 0.026423
v -0.032193 0.020710 0.024177
v -0.023485 0.031556 0.022344
vn 0.0001 -0.1666 -0.9860
vn -0.0000 -0.1666 -0.9860
vn -0.6532 -0.7507 0.0987
vn -0.4820 -0.8605 0.1651
vn -0.1526 -0.9765 0.1520
vn -0.0000 -0.1667 -0.9860
vn -0.0000 -0.1665 -0.9860
vn 0.7369 -0.6685 0.1002
vn 0.9517 -0.3022 0.0543
vn 0.6759 -0.7245 0.1352
vn -0.0000 0.1666 0.9860
vn 0.9637 -0.2600 0.0598
vn 0.0001 0.1666 0.9860
vn -0.1155 0.9801 -0.1615
vn -0.0000 0.1668 0.9860
vn 0.3018 0.9431 -0.1397
vn -0.0431 0.9829 -0.1792
vn -0.0001 0.1666 0.9860
vn -0.0001 0.1665 0.9860
vn -0.0001 0.1667 0.9860
vn 0.0001 0.1665 0.9860
vn -0.7807 0.6154 -0.1088
vn -0.7840 0.6115 -0.1066
vn -0.4868 0.8620 -0.1415
vn -0.9618 0.2714 -0.0345
vn -0.9882 0.1478 -0.0414
vn -0.9932 -0.1119 0.0313
vn -0.9532 -0.3004 0.0338
vn -0.8544 -0.5081 0.1091
vn 0.7367 0.6702 -0.0900
vn 0.9603 0.2775 -0.0299
vn 0.8760 0.4725 -0.0968
vn 0.4930 0.8528 -0.1723
vn -0.4559 0.8769 -0.1524
vn -0.0805 -0.9821 0.1701
vn 0.3019 -0.9408 0.1541
vn 0.3070 -0.9389 0.1554
vn 0.9966 0.0766 -0.0299
s 0
usemtl Material.024
f 1//1 2//1 14//1
f 1//2 5//2 2//2
f 9//2 3//2 1//2
f 1//2 3//2 15//2
f 4//3 7//3 1//3
f 1//4 8//4 4//4
f 1//2 6//2 5//2
f 1//2 7//2 6//2
f 8//5 1//5 11//5
f 1//6 10//6 9//6
f 1//2 12//2 10//2
f 1//7 13//7 11//7
f 1//2 14//2 12//2
f 1//6 15//6 13//6
f 16//8 13//8 15//8
f 16//9 15//9 3//9
f 13//10 16//10 17//10
f 19//11 17//11 16//11
f 3//12 18//12 16//12
f 19//11 16//11 18//11
f 19//11 8//11 20//11
f 19//13 20//13 17//13
f 14//14 21//14 19//14
f 19//15 21//15 27//15
f 12//16 19//16 22//16
f 19//17 12//17 14//17
f 19//18 4//18 8//18
f 19//13 24//13 4//13
f 19//19 23//19 22//19
f 19//11 18//11 23//11
f 19//20 25//20 24//20
f 19//21 26//21 25//21
f 19//11 27//11 26//11
f 27//22 2//22 5//22
f 5//23 26//23 27//23
f 2//24 27//24 21//24
f 5//25 25//25 26//25
f 25//26 5//26 6//26
f 6//27 24//27 25//27
f 24//28 6//28 7//28
f 7//29 4//29 24//29
f 10//30 22//30 23//30
f 9//31 23//31 18//31
f 23//32 9//32 10//32
f 22//33 10//33 12//33
f 21//34 14//34 2//34
f 11//35 20//35 8//35
f 20//36 11//36 13//36
f 13//37 17//37 20//37
f 18//38 3//38 9//38
