# Blender 5.0.1
# www.blender.org
mtllib right_shoulder_x_link_visual_1.mtl
o i01.rightArm.shoulder.full.002_visual.001
v 0.356286 0.124717 0.074603
v 0.361064 0.124687 0.075073
v 0.351508 0.124687 0.075073
v 0.356286 0.160322 0.076944
v 0.351508 0.133476 -0.058592
v 0.356286 0.133445 -0.058124
v 0.356286 0.169049 -0.055782
v 0.361064 0.133476 -0.058592
v 0.351508 0.169080 -0.056251
v 0.361064 0.169080 -0.056251
v 0.365659 0.169171 -0.057641
v 0.361064 0.160291 0.077415
v 0.365659 0.160199 0.078805
v 0.365659 0.124595 0.076464
v 0.369893 0.124447 0.078722
v 0.365659 0.133567 -0.059982
v 0.369893 0.133716 -0.062242
v 0.369893 0.169320 -0.059899
v 0.373605 0.133915 -0.065281
v 0.373605 0.124247 0.081762
v 0.373605 0.169520 -0.062940
v 0.376651 0.169763 -0.066644
v 0.373605 0.159851 0.084104
v 0.369893 0.160051 0.081064
v 0.376651 0.159607 0.087806
v 0.376651 0.124003 0.085465
v 0.378914 0.123725 0.089692
v 0.376651 0.134159 -0.068985
v 0.378915 0.134437 -0.073211
v 0.378915 0.170041 -0.070868
v 0.380308 0.170342 -0.075454
v 0.378914 0.159330 0.092033
v 0.380308 0.159028 0.096617
v 0.380308 0.123424 0.094275
v 0.380779 0.123110 0.099044
v 0.387754 0.119845 0.149103
v 0.380308 0.134738 -0.077795
v 0.380779 0.135052 -0.082562
v 0.387754 0.138388 -0.132897
v 0.380779 0.170656 -0.080222
v 0.380308 0.170970 -0.084990
v 0.387754 0.174109 -0.130548
v 0.387754 0.155566 0.151453
v 0.356286 0.172263 -0.104662
v 0.361064 0.172232 -0.104192
v 0.365659 0.172141 -0.102801
v 0.369894 0.171992 -0.100542
v 0.373605 0.171792 -0.097503
v 0.376651 0.171549 -0.093801
v 0.378915 0.171271 -0.089574
v 0.309565 0.174109 -0.130548
v 0.351508 0.172232 -0.104192
v 0.351508 0.136628 -0.106533
v 0.346913 0.172141 -0.102801
v 0.346913 0.136537 -0.105144
v 0.342678 0.136388 -0.102885
v 0.309565 0.138388 -0.132897
v 0.309602 -0.258085 -0.158784
v 0.309565 0.119845 0.149103
v 0.332264 0.134738 -0.077795
v 0.338967 0.136188 -0.099844
v 0.335921 0.135945 -0.096141
v 0.333657 0.135667 -0.091916
v 0.332264 0.135365 -0.087331
v 0.331793 0.135052 -0.082562
v -0.309565 0.138388 -0.132897
v -0.309565 0.174108 -0.130548
v -0.309314 -0.258085 -0.158782
v 0.309602 -0.276630 0.123218
v -0.309314 -0.276630 0.123219
v -0.309565 0.119845 0.149103
v -0.387754 0.119845 0.149103
v -0.309565 0.155566 0.151453
v -0.351508 0.121552 0.122737
v -0.331793 0.123129 0.098765
v -0.332264 0.122815 0.103534
v -0.333658 0.122514 0.108118
v -0.335921 0.122236 0.112343
v -0.338967 0.121992 0.116048
v -0.342679 0.121792 0.119087
v -0.346913 0.121644 0.121346
v -0.332264 0.123442 0.093997
v 0.309565 0.155566 0.151453
v 0.346913 0.157230 0.123964
v 0.342678 0.157378 0.121705
v 0.338967 0.157578 0.118666
v 0.335921 0.157822 0.114963
v 0.333657 0.158100 0.110738
v 0.332263 0.158401 0.106153
v 0.331793 0.158715 0.101384
v 0.332263 0.159028 0.096617
v 0.332264 0.170343 -0.075454
v 0.351508 0.157138 0.125355
v -0.020309 0.244420 0.157483
v 0.309603 0.208337 -0.048556
v 0.309584 0.195084 0.154145
v 0.226324 0.195526 0.154222
v 0.226320 0.239575 0.157213
v 0.226320 0.195494 0.154315
v 0.225928 0.200697 0.074453
v 0.237002 0.201195 0.066887
v 0.244453 0.201801 0.057667
v 0.237002 0.245275 0.069786
v 0.244453 0.245882 0.060566
v 0.243923 0.250849 0.059006
v 0.249989 0.246573 0.050047
v 0.236856 0.250274 0.067752
v 0.236856 0.270019 0.069049
v 0.226353 0.249802 0.074928
v 0.243923 0.270595 0.060305
v 0.249174 0.271251 0.050328
v 0.226353 0.269548 0.076225
v -0.020309 0.264202 0.158784
v -0.020309 0.276630 -0.030197
v 0.226344 0.264202 0.158784
v 0.187192 0.276630 -0.030198
v 0.252408 0.271962 0.039502
v 0.253500 0.272703 0.028245
v 0.207761 0.276424 -0.028353
v 0.252408 0.273443 0.016988
v 0.249174 0.274155 0.006161
v 0.226344 0.244419 0.157483
v 0.225928 0.244778 0.077353
v 0.243924 0.274811 -0.003816
v 0.249174 0.254409 0.004863
v 0.252408 0.253697 0.015690
v 0.253500 0.252957 0.026947
v 0.253399 0.248885 0.014895
v 0.254550 0.248104 0.026765
v 0.253398 0.247324 0.038634
v 0.254550 0.204024 0.023867
v 0.252408 0.252217 0.038204
v 0.253398 0.203243 0.035735
v 0.249989 0.202493 0.047149
v 0.249174 0.251505 0.049030
v 0.253399 0.204804 0.011996
v 0.249989 0.205555 0.000584
v 0.249989 0.249635 0.003483
v 0.244453 0.250327 -0.007036
v 0.243924 0.255065 -0.005114
v 0.236856 0.255640 -0.013858
v 0.236856 0.275386 -0.012560
v 0.228246 0.275858 -0.019736
v 0.218421 0.276208 -0.025068
v 0.228246 0.256112 -0.021035
v 0.218421 0.256463 -0.026366
v 0.227924 0.251431 -0.023823
v 0.237002 0.250933 -0.016254
v 0.237002 0.206852 -0.019154
v 0.244453 0.206246 -0.009935
v 0.227924 0.207350 -0.026720
v 0.217566 0.207720 -0.032343
v 0.309584 0.213683 -0.127851
v 0.217566 0.251800 -0.029444
v 0.206327 0.252028 -0.032907
v 0.207761 0.256679 -0.029651
v 0.187192 0.256847 -0.031498
v 0.187322 0.262964 -0.124516
v -0.020309 0.256847 -0.031497
v 0.187338 0.252205 -0.034854
v 0.000144 0.262964 -0.124516
v -0.309314 0.262964 -0.124516
v 0.187457 0.214098 -0.127778
v 0.187338 0.208125 -0.037753
v 0.206327 0.207947 -0.035805
v -0.309314 0.244420 0.157483
v 0.356286 0.157107 0.125824
v 0.351508 0.121534 0.123013
v 0.356286 0.121503 0.123483
v 0.361064 0.121534 0.123013
v 0.361064 0.157138 0.125355
v 0.365659 0.157230 0.123964
v 0.369893 0.157378 0.121707
v 0.365659 0.121626 0.121623
v 0.369893 0.121774 0.119365
v 0.373605 0.121974 0.116324
v 0.373605 0.157578 0.118666
v 0.376651 0.157822 0.114963
v 0.378914 0.158100 0.110738
v 0.376651 0.122217 0.112621
v 0.378914 0.122495 0.108396
v 0.380308 0.122797 0.103811
v 0.380308 0.158401 0.106153
v 0.380779 0.158715 0.101384
v 0.346913 0.121626 0.121623
v 0.342678 0.121774 0.119364
v 0.338967 0.121974 0.116324
v 0.335921 0.122217 0.112621
v 0.333657 0.122495 0.108396
v 0.332263 0.122797 0.103811
v 0.331793 0.123110 0.099044
v 0.332263 0.123424 0.094275
v 0.333657 0.123725 0.089690
v 0.333657 0.134437 -0.073211
v 0.333657 0.159330 0.092031
v 0.335921 0.159607 0.087806
v 0.333657 0.170041 -0.070868
v 0.335921 0.169763 -0.066644
v 0.335921 0.134159 -0.068985
v 0.338967 0.133915 -0.065281
v 0.335921 0.124003 0.085465
v 0.338967 0.124247 0.081762
v 0.338967 0.159851 0.084104
v 0.342678 0.160051 0.081064
v 0.338967 0.169520 -0.062940
v 0.342678 0.169320 -0.059899
v 0.342678 0.133716 -0.062242
v 0.346913 0.133567 -0.059982
v 0.342678 0.124447 0.078721
v 0.346913 0.124595 0.076464
v 0.346913 0.160199 0.078805
v 0.351507 0.160291 0.077415
v 0.346913 0.169171 -0.057641
v 0.331793 0.170656 -0.080222
v 0.332264 0.170970 -0.084990
v 0.333657 0.171271 -0.089575
v 0.335921 0.171549 -0.093801
v 0.338967 0.171792 -0.097503
v 0.342678 0.171992 -0.100543
v -0.332264 0.159046 0.096338
v -0.333658 0.123744 0.089413
v -0.332263 0.134757 -0.078072
v -0.333658 0.159348 0.091754
v -0.335921 0.159626 0.087528
v -0.333657 0.170059 -0.071145
v -0.335921 0.169782 -0.066920
v -0.338967 0.169538 -0.063217
v -0.335921 0.134177 -0.069262
v -0.338967 0.133934 -0.065558
v -0.342678 0.133734 -0.062518
v -0.342679 0.124465 0.078444
v -0.338967 0.124265 0.081484
v -0.338967 0.159869 0.083824
v -0.335921 0.124022 0.085188
v -0.342679 0.160069 0.080786
v -0.346913 0.160218 0.078526
v -0.342678 0.169338 -0.060179
v -0.346913 0.169190 -0.057920
v -0.351507 0.169098 -0.056529
v -0.346913 0.133585 -0.060261
v -0.351508 0.133494 -0.058869
v -0.356286 0.133463 -0.058400
v -0.351508 0.124705 0.074795
v -0.351508 0.160309 0.077136
v -0.346913 0.124613 0.076184
v -0.356286 0.124736 0.074326
v -0.356286 0.160340 0.076667
v -0.361065 0.160309 0.077136
v -0.361064 0.169098 -0.056529
v -0.361064 0.124705 0.074795
v -0.356286 0.169067 -0.056060
v -0.365659 0.124613 0.076184
v -0.361064 0.133494 -0.058869
v -0.365659 0.133585 -0.060261
v -0.365659 0.169190 -0.057920
v -0.369893 0.169338 -0.060178
v -0.365659 0.160218 0.078526
v -0.369894 0.160069 0.080786
v -0.369894 0.124465 0.078444
v -0.373605 0.159869 0.083824
v -0.373605 0.124265 0.081484
v -0.376651 0.124022 0.085188
v -0.376651 0.134177 -0.069262
v -0.373605 0.133934 -0.065558
v -0.369893 0.133734 -0.062518
v -0.373605 0.169538 -0.063217
v -0.376651 0.169782 -0.066920
v -0.378914 0.170059 -0.071145
v -0.376651 0.159626 0.087528
v -0.378915 0.159348 0.091754
v -0.378915 0.123744 0.089413
v -0.380308 0.159046 0.096338
v -0.380308 0.123442 0.093997
v -0.380779 0.123129 0.098765
v -0.387754 0.138388 -0.132897
v -0.380308 0.134757 -0.078072
v -0.378914 0.134455 -0.073487
v -0.380779 0.135070 -0.082839
v -0.380308 0.170361 -0.075731
v -0.380779 0.170674 -0.080499
v -0.380308 0.170988 -0.085266
v -0.387754 0.174109 -0.130548
v -0.387754 0.155566 0.151453
v -0.356286 0.172281 -0.104938
v -0.378914 0.171289 -0.089851
v -0.376651 0.171567 -0.094077
v -0.373605 0.171811 -0.097781
v -0.369893 0.172011 -0.100820
v -0.365659 0.172159 -0.103078
v -0.361064 0.172251 -0.104470
v -0.351508 0.172251 -0.104470
v -0.346913 0.172159 -0.103078
v -0.351508 0.136646 -0.106812
v -0.346913 0.136555 -0.105420
v -0.342678 0.136406 -0.103162
v -0.338967 0.136206 -0.100122
v -0.342678 0.172011 -0.100820
v -0.338967 0.171811 -0.097781
v -0.335921 0.171567 -0.094077
v -0.335921 0.135963 -0.096417
v -0.333658 0.135685 -0.092193
v -0.332263 0.135384 -0.087607
v -0.333658 0.171289 -0.089851
v -0.332263 0.170988 -0.085266
v -0.331793 0.170674 -0.080499
v -0.331793 0.135070 -0.082839
v -0.332263 0.170361 -0.075731
v -0.333658 0.134455 -0.073487
v -0.356286 0.136677 -0.107280
v -0.361064 0.136646 -0.106812
v -0.365659 0.136555 -0.105420
v -0.369893 0.136406 -0.103162
v -0.373605 0.136206 -0.100122
v -0.376651 0.135963 -0.096417
v -0.378914 0.135685 -0.092193
v -0.380308 0.135384 -0.087607
v -0.356286 0.157126 0.125546
v -0.361065 0.157157 0.125077
v -0.365659 0.157248 0.123686
v -0.369894 0.157397 0.121428
v -0.373605 0.157596 0.118389
v -0.376651 0.157840 0.114685
v -0.378915 0.158118 0.110460
v -0.380308 0.158419 0.105875
v -0.380779 0.158733 0.101106
v -0.351508 0.157157 0.125077
v -0.346913 0.157248 0.123686
v -0.356286 0.121522 0.123205
v -0.361065 0.121552 0.122737
v -0.365659 0.121644 0.121346
v -0.369894 0.121792 0.119087
v -0.373605 0.121992 0.116048
v -0.376651 0.122236 0.112343
v -0.378915 0.122514 0.108118
v -0.380308 0.122815 0.103534
v -0.342678 0.157397 0.121428
v -0.338967 0.157596 0.118389
v -0.335921 0.157840 0.114685
v -0.333658 0.158118 0.110460
v -0.332264 0.158419 0.105875
v -0.331793 0.158733 0.101106
v 0.356286 0.136659 -0.107003
v 0.361064 0.136628 -0.106533
v 0.365659 0.136537 -0.105144
v 0.369893 0.136388 -0.102884
v 0.373605 0.136188 -0.099844
v 0.376651 0.135945 -0.096141
v 0.378915 0.135667 -0.091916
v 0.380308 0.135365 -0.087331
vn -0.0000 -0.9978 -0.0656
vn -0.0981 -0.0653 0.9930
vn 0.0981 -0.0653 0.9930
vn -0.0977 0.0653 -0.9931
vn 0.0977 0.0653 -0.9931
vn -0.2902 0.0628 -0.9549
vn -0.0000 0.9978 0.0656
vn -0.2902 -0.0628 0.9549
vn -0.4714 -0.0579 0.8800
vn -0.6345 0.0507 -0.7712
vn -0.4715 0.0579 -0.8799
vn -0.6344 0.0507 -0.7713
vn -0.7730 0.0416 -0.6330
vn -0.4715 -0.0579 0.8800
vn -0.6344 -0.0507 0.7713
vn -0.6345 -0.0507 0.7712
vn -0.7729 -0.0416 0.6332
vn -0.7730 -0.0416 0.6331
vn -0.8820 -0.0309 0.4703
vn -0.8819 0.0309 -0.4705
vn -0.8819 0.0309 -0.4704
vn -0.9570 0.0190 -0.2896
vn -0.8820 -0.0309 0.4702
vn -0.9569 -0.0191 0.2898
vn 0.0001 0.9978 0.0656
vn -0.0001 -0.9978 -0.0656
vn 0.0131 -0.9977 -0.0669
vn -0.9952 -0.0064 0.0978
vn 0.0036 -0.9978 -0.0656
vn -0.9952 0.0064 -0.0978
vn -0.9569 0.0190 -0.2896
vn 0.0131 -0.9978 -0.0643
vn -0.0712 0.9957 0.0584
vn -0.0119 0.9977 0.0668
vn 1.0000 -0.0000 -0.0000
vn -0.0192 0.9977 0.0656
vn -0.0000 0.0656 -0.9978
vn -0.0005 0.9975 0.0705
vn 0.0006 0.9974 0.0719
vn -0.0013 0.9976 0.0698
vn -0.0019 0.9976 0.0692
vn -0.0026 0.9976 0.0688
vn -0.0035 0.9976 0.0685
vn -0.0047 0.9977 0.0681
vn -0.0068 0.9977 0.0676
vn -0.0000 0.9975 0.0710
vn 0.2900 -0.0628 0.9550
vn 0.0011 0.9976 0.0693
vn 0.2902 -0.0628 0.9549
vn 0.4714 -0.0579 0.8800
vn -0.0002 -0.9978 -0.0663
vn -0.0003 -0.9978 -0.0662
vn 1.0000 0.0001 -0.0000
vn -0.0000 0.0652 -0.9979
vn -0.0012 -0.9978 -0.0656
vn -0.0015 -0.9979 -0.0655
vn -0.0004 -0.9978 -0.0661
vn -0.0005 -0.9978 -0.0660
vn -0.0006 -0.9978 -0.0659
vn -0.0007 -0.9978 -0.0658
vn -0.0010 -0.9978 -0.0657
vn -0.0000 -0.9978 -0.0666
vn -0.0000 0.0651 -0.9979
vn -0.0000 -0.0652 0.9979
vn -1.0000 -0.0006 -0.0000
vn -0.0000 -0.0651 0.9979
vn -0.0000 -0.9979 -0.0646
vn -0.0000 -0.0656 0.9978
vn 0.0012 -0.9978 -0.0656
vn 0.0002 -0.9979 -0.0649
vn 0.0015 -0.9978 -0.0658
vn 0.0010 -0.9979 -0.0655
vn 0.0007 -0.9979 -0.0654
vn 0.0006 -0.9979 -0.0653
vn 0.0005 -0.9979 -0.0652
vn 0.0004 -0.9979 -0.0651
vn 0.0003 -0.9979 -0.0651
vn 1.0000 -0.0010 -0.0001
vn 0.0063 0.9978 0.0656
vn 0.0011 0.9981 0.0619
vn 0.0016 0.9980 0.0626
vn 0.0021 0.9980 0.0631
vn 0.0025 0.9980 0.0635
vn 0.0031 0.9979 0.0640
vn 0.0039 0.9979 0.0644
vn 0.0053 0.9979 0.0651
vn 0.0083 0.9978 0.0664
vn -0.0000 0.9982 0.0602
vn -0.0000 -0.0677 0.9977
vn -0.0009 -0.0710 0.9975
vn 1.0000 -0.0005 0.0001
vn 0.0006 -0.0680 0.9977
vn -0.0002 -0.0677 0.9977
vn -0.1882 -0.9277 -0.3223
vn 0.0054 0.9978 0.0654
vn -0.9873 0.1579 0.0151
vn -0.0006 0.9979 0.0647
vn 0.7784 -0.0412 0.6264
vn 0.0026 0.9977 0.0677
vn 0.5650 -0.0541 0.8233
vn 0.8532 0.2369 0.4646
vn 0.7396 0.2722 0.6155
vn 0.8853 -0.0305 0.4640
vn 0.7396 0.2721 0.6156
vn 0.7784 -0.0411 0.6264
vn 0.7785 -0.0412 0.6263
vn 0.5213 0.3347 0.7850
vn 1.0000 -0.0000 0.0001
vn -0.0000 0.9979 0.0646
vn 0.0003 0.9978 0.0656
vn -0.0000 0.9978 0.0664
vn 0.0042 0.9979 0.0649
vn -0.0000 -0.0556 0.9985
vn 0.9962 -0.0868 -0.0056
vn 1.0000 -0.0046 -0.0052
vn 1.0000 0.0003 -0.0049
vn 0.8853 0.0305 -0.4640
vn 0.9583 0.0187 -0.2850
vn 0.9953 0.0063 -0.0961
vn 0.9736 0.2136 -0.0804
vn 0.9352 0.2361 -0.2638
vn 0.9736 0.2137 -0.0804
vn 0.9725 0.2063 0.1079
vn 0.9954 0.0063 -0.0961
vn 0.9953 -0.0063 0.0961
vn 0.9583 -0.0187 0.2850
vn 0.0041 0.9978 0.0668
vn 0.0093 0.9977 0.0665
vn 0.0074 0.9978 0.0652
vn 0.0032 0.9977 0.0673
vn 0.9319 0.2143 0.2925
vn 0.8532 0.2368 0.4647
vn 0.9320 0.2143 0.2925
vn 0.0072 0.9979 0.0649
vn 0.9583 0.0187 -0.2851
vn 0.0060 0.9979 0.0638
vn 0.9353 0.2359 -0.2639
vn 0.8588 0.2721 -0.4341
vn 0.8853 0.0305 -0.4639
vn 0.7784 0.0412 -0.6264
vn 0.7470 0.3199 -0.5827
vn 0.6410 0.0503 -0.7659
vn -0.0000 0.9978 0.0657
vn 0.4778 0.0577 -0.8766
vn 0.6411 0.0504 -0.7658
vn 0.6054 0.3760 -0.7015
vn 0.4777 0.0576 -0.8766
vn 0.4411 0.4366 -0.7841
vn 0.6054 0.3761 -0.7015
vn 0.7470 0.3199 -0.5828
vn 0.0052 0.9980 0.0629
vn 0.0047 0.9981 0.0619
vn 0.6411 0.0503 -0.7658
vn 0.0042 0.9982 0.0606
vn 0.4778 0.0576 -0.8766
vn 0.4779 0.0576 -0.8765
vn 0.0012 0.9980 0.0634
vn 0.0059 0.9977 0.0673
vn 0.2647 0.4969 -0.8264
vn 0.2950 0.0627 -0.9534
vn 0.0898 0.0653 -0.9938
vn 0.0789 0.5553 -0.8279
vn 0.9996 0.0291 0.0033
vn 0.0881 0.5855 -0.8059
vn -0.0000 0.0677 -0.9977
vn 0.0032 0.0788 -0.9969
vn -0.0000 0.0666 -0.9978
vn 0.0034 0.9978 0.0656
vn -0.0004 0.0680 -0.9977
vn 1.0000 0.0027 0.0015
vn 0.0025 0.9978 0.0662
vn -0.0004 0.9978 0.0668
vn 0.2950 0.0627 -0.9535
vn 0.1024 0.0653 -0.9926
vn 0.1025 0.0653 -0.9926
vn 1.0000 -0.0000 -0.0002
vn -1.0000 0.0028 0.0002
vn -1.0000 -0.0000 -0.0000
vn 1.0000 -0.0005 -0.0003
vn 0.0006 0.9982 0.0593
vn 0.0979 0.0653 -0.9930
vn 0.2902 0.0628 -0.9549
vn 0.0001 -0.9979 -0.0647
vn -0.0979 0.0653 -0.9930
vn -0.0001 -0.9979 -0.0644
vn -0.0013 0.9981 0.0614
vn -0.0005 0.9982 0.0607
vn -0.4712 0.0579 -0.8801
vn -0.0020 0.9981 0.0620
vn 0.0004 -0.9979 -0.0649
vn -0.4714 0.0579 -0.8800
vn 0.0002 -0.9979 -0.0648
vn 0.0005 -0.9979 -0.0650
vn -0.6346 0.0507 -0.7711
vn -0.7730 0.0416 -0.6331
vn -0.0035 0.9980 0.0628
vn -0.0026 0.9980 0.0624
vn -0.0047 0.9980 0.0631
vn 0.0009 -0.9979 -0.0651
vn -0.8819 0.0309 -0.4703
vn 0.0006 -0.9979 -0.0651
vn 0.0013 -0.9979 -0.0652
vn -0.9569 0.0190 -0.2897
vn -0.9569 0.0191 -0.2896
vn -0.9952 0.0064 -0.0979
vn -0.0120 0.9979 0.0644
vn -0.0067 0.9980 0.0636
vn -0.0704 0.9949 0.0724
vn 0.0023 -0.9979 -0.0654
vn -0.0002 -0.9979 -0.0649
vn 0.4715 0.0579 -0.8799
vn -0.0003 -0.9979 -0.0651
vn 0.4715 0.0579 -0.8800
vn 0.6344 0.0507 -0.7714
vn -0.0004 -0.9979 -0.0651
vn 0.7730 0.0416 -0.6331
vn -0.0005 -0.9979 -0.0652
vn 0.8819 0.0309 -0.4703
vn -0.0006 -0.9979 -0.0653
vn 0.8819 0.0309 -0.4704
vn 0.9569 0.0191 -0.2897
vn -0.0007 -0.9979 -0.0654
vn 0.9952 0.0064 -0.0978
vn -0.0010 -0.9979 -0.0655
vn 0.9952 -0.0064 0.0978
vn -0.0015 -0.9978 -0.0658
vn 0.9569 -0.0190 0.2897
vn 0.9569 -0.0190 0.2896
vn 0.8819 -0.0309 0.4704
vn 0.9570 0.0191 -0.2896
vn 0.8819 0.0309 -0.4705
vn 0.7730 0.0416 -0.6330
vn 0.7730 -0.0416 0.6331
vn 0.7729 -0.0416 0.6332
vn 0.6344 -0.0507 0.7713
vn 0.7731 0.0416 -0.6330
vn 0.6345 0.0507 -0.7712
vn 0.6346 -0.0507 0.7712
vn 0.4712 -0.0579 0.8801
vn 0.4715 -0.0579 0.8800
vn 0.4714 0.0579 -0.8800
vn 0.9569 0.0190 -0.2896
vn 0.0083 0.9979 0.0648
vn 0.0052 0.9978 0.0661
vn 0.9570 -0.0190 0.2896
vn 0.0039 0.9978 0.0668
vn 0.8819 -0.0309 0.4703
vn 0.0031 0.9977 0.0673
vn 0.8819 -0.0309 0.4705
vn 0.0025 0.9977 0.0677
vn 0.6345 -0.0507 0.7713
vn 0.0021 0.9977 0.0681
vn 0.6346 -0.0507 0.7711
vn 0.0016 0.9976 0.0686
vn -0.9569 -0.0190 0.2897
vn -0.8819 -0.0309 0.4704
vn -0.6343 -0.0507 0.7715
vn -0.7731 -0.0416 0.6330
vn -0.6344 -0.0507 0.7714
vn -0.4715 -0.0579 0.8799
vn -0.4714 0.0578 -0.8800
vn -0.2904 0.0628 -0.9548
vn -0.0979 0.0653 -0.9931
vn -0.0979 -0.0653 0.9930
vn -0.2900 -0.0628 0.9550
vn 0.0979 -0.0653 0.9930
vn 0.2904 0.0628 -0.9548
vn 0.4712 0.0579 -0.8801
vn 0.6344 -0.0507 0.7714
vn 0.6343 -0.0507 0.7715
vn 0.7730 -0.0416 0.6330
vn 0.6345 0.0507 -0.7713
vn -0.0131 -0.9977 -0.0669
vn -0.0036 -0.9978 -0.0656
vn 0.9569 0.0190 -0.2897
vn -0.0132 -0.9978 -0.0643
vn 0.0702 0.9958 0.0586
vn 0.0119 0.9977 0.0668
vn 0.0192 0.9977 0.0656
vn -0.0000 0.9975 0.0711
vn 0.0005 0.9975 0.0706
vn -0.0006 0.9974 0.0719
vn 0.0067 0.9977 0.0676
vn 0.0047 0.9977 0.0681
vn 0.0035 0.9976 0.0685
vn 0.0026 0.9976 0.0688
vn 0.0019 0.9976 0.0692
vn 0.0013 0.9976 0.0698
vn -0.0977 -0.0653 0.9931
vn -0.2906 -0.0628 0.9548
vn -0.0011 0.9976 0.0693
vn -0.2904 -0.0628 0.9548
vn 0.0002 -0.9978 -0.0663
vn 0.0003 -0.9978 -0.0662
vn 0.0004 -0.9978 -0.0661
vn -0.4713 -0.0579 0.8800
vn -0.0016 0.9976 0.0686
vn -0.6343 -0.0507 0.7714
vn -0.0020 0.9977 0.0681
vn -0.7730 -0.0416 0.6330
vn -0.0025 0.9977 0.0677
vn -0.7731 -0.0416 0.6329
vn 0.0005 -0.9978 -0.0660
vn 0.0006 -0.9978 -0.0659
vn 0.0007 -0.9978 -0.0658
vn -0.8819 -0.0309 0.4703
vn -0.0031 0.9977 0.0673
vn -0.0039 0.9978 0.0668
vn -0.0052 0.9978 0.0661
vn 0.0010 -0.9978 -0.0657
vn 0.0016 -0.9979 -0.0655
vn -0.0083 0.9979 0.0648
vn -0.9570 0.0191 -0.2896
vn -0.0063 0.9978 0.0656
vn 0.0001 -0.9978 -0.0656
vn -0.8819 0.0310 -0.4703
vn 0.0001 -0.9978 -0.0668
vn -0.0001 -0.9978 -0.0665
vn 0.0977 -0.0653 0.9931
vn -0.0002 -0.9978 -0.0664
vn 0.2904 -0.0628 0.9548
vn -0.0004 -0.9978 -0.0663
vn 0.4713 -0.0579 0.8800
vn 0.2906 -0.0628 0.9548
vn -0.0005 -0.9978 -0.0662
vn -0.0007 -0.9978 -0.0661
vn 0.7731 -0.0416 0.6329
vn -0.0009 -0.9978 -0.0661
vn -0.0013 -0.9978 -0.0660
vn -0.0022 -0.9978 -0.0658
vn -0.0006 0.9982 0.0594
vn 0.0005 0.9982 0.0607
vn 0.0012 0.9981 0.0615
vn 0.0019 0.9981 0.0620
vn 0.0026 0.9980 0.0624
vn 0.0035 0.9980 0.0628
vn 0.0047 0.9980 0.0631
vn 0.0067 0.9980 0.0636
vn 0.0119 0.9979 0.0644
vn 0.0713 0.9948 0.0724
vn -0.0011 0.9981 0.0619
vn 0.0001 -0.9979 -0.0644
vn -0.0001 -0.9979 -0.0647
vn -0.0002 -0.9979 -0.0648
vn 0.4714 0.0578 -0.8800
vn -0.0004 -0.9979 -0.0649
vn 0.6343 0.0507 -0.7715
vn -0.0005 -0.9979 -0.0650
vn -0.0006 -0.9979 -0.0651
vn 0.7731 0.0416 -0.6329
vn -0.0009 -0.9979 -0.0652
vn -0.0012 -0.9979 -0.0652
vn -0.0022 -0.9979 -0.0654
vn -0.4713 0.0578 -0.8800
vn -0.0016 0.9980 0.0626
vn -0.6343 0.0507 -0.7714
vn -0.0021 0.9980 0.0631
vn -0.6344 0.0507 -0.7714
vn -0.0025 0.9980 0.0635
vn -0.8819 0.0310 -0.4704
vn -0.7731 0.0416 -0.6329
vn -0.0031 0.9979 0.0640
vn -0.0039 0.9979 0.0644
vn -0.0052 0.9979 0.0651
vn -0.0083 0.9978 0.0664
vn 0.4717 -0.0579 0.8799
vn -0.4717 -0.0579 0.8799
vn -0.4712 0.0578 -0.8801
vn -0.8819 -0.0309 0.4705
vn -0.0001 -0.9978 -0.0668
vn 0.0001 -0.9978 -0.0665
vn 0.0002 -0.9978 -0.0664
vn 0.0003 -0.9978 -0.0663
vn 0.0005 -0.9978 -0.0662
vn 0.0006 -0.9978 -0.0661
vn 0.0009 -0.9978 -0.0661
vn -0.9570 -0.0190 0.2896
vn 0.0013 -0.9978 -0.0660
vn -0.9569 -0.0190 0.2896
vn 0.0022 -0.9978 -0.0658
s 0
usemtl Material.014
f 1//1 6//1 2//1
f 2//2 4//2 1//2
f 1//1 3//1 5//1
f 4//3 3//3 1//3
f 1//1 5//1 6//1
f 6//4 7//4 10//4
f 6//5 9//5 7//5
f 6//5 5//5 9//5
f 2//1 6//1 8//1
f 6//4 10//4 8//4
f 8//6 10//6 11//6
f 12//7 10//7 7//7
f 12//7 11//7 10//7
f 4//7 12//7 7//7
f 2//2 12//2 4//2
f 14//8 13//8 12//8
f 12//7 13//7 11//7
f 14//8 12//8 2//8
f 2//1 16//1 14//1
f 14//1 17//1 15//1
f 15//9 13//9 14//9
f 14//1 16//1 17//1
f 17//10 18//10 21//10
f 16//11 18//11 17//11
f 20//1 17//1 19//1
f 17//12 21//12 19//12
f 15//1 17//1 20//1
f 19//13 21//13 22//13
f 24//7 21//7 18//7
f 22//7 21//7 23//7
f 24//7 23//7 21//7
f 15//14 24//14 13//14
f 13//7 24//7 18//7
f 20//15 23//15 24//15
f 20//16 24//16 15//16
f 26//17 25//17 23//17
f 22//7 23//7 25//7
f 26//18 23//18 20//18
f 20//1 19//1 26//1
f 28//1 27//1 26//1
f 27//19 25//19 26//19
f 28//1 26//1 19//1
f 28//20 22//20 30//20
f 19//13 22//13 28//13
f 29//1 27//1 28//1
f 28//21 30//21 29//21
f 29//22 30//22 31//22
f 30//7 22//7 25//7
f 31//7 30//7 32//7
f 30//7 25//7 32//7
f 27//23 32//23 25//23
f 34//24 33//24 32//24
f 31//25 32//25 33//25
f 34//24 32//24 27//24
f 29//26 34//26 27//26
f 36//27 35//27 34//27
f 35//28 33//28 34//28
f 37//29 36//29 34//29
f 37//1 34//1 29//1
f 37//30 31//30 40//30
f 29//31 31//31 37//31
f 39//32 37//32 38//32
f 37//30 40//30 38//30
f 39//29 36//29 37//29
f 38//28 40//28 41//28
f 42//33 40//33 31//33
f 40//34 42//34 41//34
f 42//35 43//35 36//35
f 42//36 31//36 43//36
f 39//37 51//37 42//37
f 42//35 36//35 39//35
f 45//38 42//38 44//38
f 42//39 52//39 44//39
f 46//40 42//40 45//40
f 47//41 42//41 46//41
f 48//42 42//42 47//42
f 49//43 42//43 48//43
f 50//44 42//44 49//44
f 41//45 42//45 50//45
f 42//46 51//46 52//46
f 55//47 53//47 52//47
f 44//3 52//3 53//3
f 52//48 51//48 54//48
f 55//49 52//49 54//49
f 56//50 55//50 54//50
f 53//51 55//51 57//51
f 55//52 56//52 57//52
f 39//37 57//37 51//37
f 67//37 51//37 57//37
f 69//53 58//53 57//53
f 57//54 58//54 68//54
f 69//53 57//53 59//53
f 57//55 60//55 59//55
f 57//56 65//56 60//56
f 56//57 61//57 57//57
f 61//58 62//58 57//58
f 62//59 63//59 57//59
f 63//60 64//60 57//60
f 64//61 65//61 57//61
f 39//62 53//62 57//62
f 57//63 68//63 66//63
f 67//37 57//37 66//37
f 59//64 70//64 69//64
f 68//1 69//1 70//1
f 68//1 58//1 69//1
f 66//65 68//65 70//65
f 66//65 70//65 71//65
f 59//66 71//66 70//66
f 72//67 74//67 71//67
f 73//68 72//68 71//68
f 71//69 82//69 66//69
f 71//68 83//68 73//68
f 74//70 81//70 71//70
f 71//71 75//71 82//71
f 76//72 75//72 71//72
f 77//73 76//73 71//73
f 78//74 77//74 71//74
f 79//75 78//75 71//75
f 80//76 79//76 71//76
f 81//77 80//77 71//77
f 71//68 59//68 83//68
f 43//68 83//68 59//68
f 95//78 83//78 51//78
f 51//79 83//79 92//79
f 93//80 84//80 83//80
f 84//81 85//81 83//81
f 85//82 86//82 83//82
f 86//83 87//83 83//83
f 87//84 88//84 83//84
f 88//85 89//85 83//85
f 89//86 90//86 83//86
f 90//87 91//87 83//87
f 91//79 92//79 83//79
f 93//88 83//88 43//88
f 94//89 73//89 83//89
f 97//90 94//90 83//90
f 96//91 83//91 95//91
f 96//92 97//92 83//92
f 94//93 97//93 98//93
f 94//94 97//94 99//94
f 97//95 96//95 101//95
f 100//96 99//96 97//96
f 97//97 101//97 100//97
f 101//98 102//98 104//98
f 101//99 96//99 102//99
f 100//100 101//100 103//100
f 101//98 104//98 103//98
f 106//101 105//101 104//101
f 107//102 104//102 105//102
f 106//103 104//103 102//103
f 107//104 103//104 104//104
f 108//100 109//100 107//100
f 110//105 108//105 107//105
f 110//106 107//106 105//106
f 109//107 103//107 107//107
f 111//7 112//7 110//7
f 111//103 110//103 105//103
f 112//7 108//7 110//7
f 122//108 109//108 112//108
f 108//100 112//100 109//100
f 115//109 112//109 113//109
f 112//110 114//110 113//110
f 112//111 116//111 114//111
f 122//108 112//108 115//108
f 112//112 119//112 116//112
f 111//7 117//7 112//7
f 118//7 112//7 117//7
f 112//7 118//7 120//7
f 121//7 119//7 112//7
f 121//7 112//7 120//7
f 94//113 98//113 122//113
f 113//68 94//68 122//68
f 113//68 122//68 115//68
f 122//114 123//114 109//114
f 122//115 98//115 123//115
f 109//107 123//107 103//107
f 100//100 103//100 123//100
f 123//116 98//116 99//116
f 123//116 99//116 100//116
f 121//7 124//7 119//7
f 124//117 121//117 125//117
f 121//118 120//118 126//118
f 121//118 126//118 125//118
f 120//119 127//119 126//119
f 126//120 127//120 129//120
f 125//121 126//121 128//121
f 126//122 129//122 128//122
f 132//123 129//123 127//123
f 128//124 129//124 131//124
f 133//125 129//125 130//125
f 132//123 130//123 129//123
f 133//125 131//125 129//125
f 134//126 133//126 130//126
f 133//127 134//127 96//127
f 131//128 133//128 95//128
f 133//129 96//129 95//129
f 96//130 134//130 102//130
f 106//103 102//103 134//103
f 134//126 130//126 106//126
f 117//126 135//126 132//126
f 118//125 117//125 132//125
f 135//131 130//131 132//131
f 118//125 132//125 127//125
f 111//103 105//103 135//103
f 106//132 135//132 105//132
f 117//126 111//126 135//126
f 135//133 106//133 130//133
f 136//134 131//134 95//134
f 128//124 131//124 136//124
f 136//135 138//135 128//135
f 136//135 137//135 138//135
f 137//136 136//136 95//136
f 125//137 128//137 138//137
f 140//138 125//138 138//138
f 139//139 138//139 137//139
f 140//138 138//138 139//138
f 124//117 125//117 140//117
f 142//140 124//140 140//140
f 142//140 140//140 141//140
f 139//141 141//141 140//141
f 142//7 143//7 119//7
f 143//142 142//142 141//142
f 142//7 119//7 124//7
f 143//143 144//143 119//143
f 144//144 143//144 145//144
f 143//145 141//145 145//145
f 148//146 145//146 141//146
f 144//147 145//147 146//147
f 147//148 146//148 145//148
f 148//149 147//149 145//149
f 149//145 147//145 148//145
f 139//150 148//150 141//150
f 150//140 148//140 139//140
f 150//140 149//140 148//140
f 150//151 137//151 95//151
f 139//139 137//139 150//139
f 149//152 150//152 95//152
f 149//153 151//153 147//153
f 151//154 149//154 95//154
f 151//155 154//155 147//155
f 151//156 152//156 154//156
f 151//157 153//157 152//157
f 151//158 95//158 153//158
f 147//148 154//148 146//148
f 156//159 146//159 154//159
f 155//160 154//160 152//160
f 156//159 154//159 155//159
f 119//160 146//160 156//160
f 116//161 119//161 156//161
f 116//161 156//161 157//161
f 157//162 156//162 155//162
f 116//37 157//37 159//37
f 158//163 157//163 160//163
f 157//7 158//7 161//7
f 157//7 161//7 159//7
f 157//164 155//164 160//164
f 159//7 161//7 162//7
f 162//165 161//165 67//165
f 161//166 163//166 51//166
f 161//165 51//165 67//165
f 161//167 158//167 163//167
f 153//168 163//168 152//168
f 163//169 153//169 51//169
f 158//170 164//170 163//170
f 165//171 163//171 164//171
f 152//172 163//172 165//172
f 155//173 152//173 165//173
f 160//174 155//174 165//174
f 160//175 165//175 164//175
f 158//176 160//176 164//176
f 162//177 73//177 166//177
f 159//7 162//7 166//7
f 162//177 67//177 73//177
f 94//89 166//89 73//89
f 94//7 159//7 166//7
f 114//178 159//178 94//178
f 116//37 159//37 114//37
f 51//179 153//179 95//179
f 119//160 144//160 146//160
f 120//119 118//119 127//119
f 114//178 94//178 113//178
f 93//180 43//180 167//180
f 169//181 93//181 167//181
f 168//182 84//182 93//182
f 169//181 168//181 93//181
f 36//183 169//183 170//183
f 169//184 171//184 170//184
f 36//185 168//185 169//185
f 169//184 167//184 171//184
f 170//6 171//6 172//6
f 43//186 172//186 171//186
f 43//187 171//187 167//187
f 174//188 172//188 173//188
f 43//189 173//189 172//189
f 170//6 172//6 174//6
f 36//190 174//190 175//190
f 174//191 173//191 175//191
f 36//192 170//192 174//192
f 36//193 175//193 176//193
f 175//10 177//10 176//10
f 175//194 173//194 177//194
f 176//195 177//195 178//195
f 43//196 178//196 177//196
f 43//197 177//197 173//197
f 180//21 178//21 179//21
f 43//198 179//198 178//198
f 176//195 178//195 180//195
f 36//199 180//199 181//199
f 180//200 179//200 181//200
f 36//201 176//201 180//201
f 36//202 181//202 182//202
f 181//203 183//203 182//203
f 181//204 179//204 183//204
f 182//205 183//205 184//205
f 43//206 184//206 183//206
f 43//207 183//207 179//207
f 35//28 184//28 33//28
f 43//208 33//208 184//208
f 182//30 184//30 35//30
f 36//209 182//209 35//209
f 168//182 185//182 84//182
f 168//210 59//210 185//210
f 36//67 59//67 168//67
f 185//211 186//211 85//211
f 185//212 59//212 186//212
f 185//213 85//213 84//213
f 186//214 187//214 86//214
f 186//215 59//215 187//215
f 186//214 86//214 85//214
f 187//216 188//216 87//216
f 187//217 59//217 188//217
f 187//216 87//216 86//216
f 188//218 189//218 88//218
f 188//219 59//219 189//219
f 188//220 88//220 87//220
f 189//221 190//221 89//221
f 189//222 59//222 190//222
f 189//221 89//221 88//221
f 190//223 191//223 90//223
f 190//224 59//224 191//224
f 190//223 90//223 89//223
f 191//225 192//225 91//225
f 191//226 59//226 192//226
f 191//225 91//225 90//225
f 192//227 193//227 195//227
f 194//1 193//1 192//1
f 192//228 195//228 91//228
f 194//26 192//26 60//26
f 192//55 59//55 60//55
f 91//7 195//7 92//7
f 197//7 195//7 196//7
f 193//229 196//229 195//229
f 92//7 195//7 197//7
f 199//218 194//218 197//218
f 194//230 92//230 197//230
f 197//7 196//7 198//7
f 199//231 197//231 198//231
f 200//232 199//232 198//232
f 194//1 199//1 193//1
f 199//1 200//1 201//1
f 199//1 201//1 193//1
f 193//229 201//229 196//229
f 201//233 202//233 203//233
f 200//1 202//1 201//1
f 201//234 203//234 196//234
f 198//7 196//7 203//7
f 204//7 205//7 203//7
f 202//235 204//235 203//235
f 198//7 203//7 205//7
f 207//214 200//214 205//214
f 200//236 198//236 205//236
f 204//7 206//7 205//7
f 207//237 205//237 206//237
f 208//213 207//213 206//213
f 200//1 207//1 202//1
f 209//1 207//1 208//1
f 209//1 202//1 207//1
f 202//238 209//238 204//238
f 209//239 210//239 211//239
f 210//1 209//1 208//1
f 209//240 211//240 204//240
f 211//7 206//7 204//7
f 212//7 213//7 211//7
f 210//49 212//49 211//49
f 211//7 213//7 206//7
f 5//182 208//182 213//182
f 208//241 206//241 213//241
f 212//7 9//7 213//7
f 5//182 213//182 9//182
f 4//3 212//3 3//3
f 4//7 9//7 212//7
f 210//49 3//49 212//49
f 3//1 210//1 5//1
f 210//1 208//1 5//1
f 194//242 60//242 92//242
f 60//223 214//223 92//223
f 51//243 92//243 214//243
f 60//223 65//223 214//223
f 65//225 215//225 214//225
f 215//244 51//244 214//244
f 65//225 64//225 215//225
f 64//245 216//245 215//245
f 216//246 51//246 215//246
f 64//245 63//245 216//245
f 63//247 217//247 216//247
f 217//248 51//248 216//248
f 63//249 62//249 217//249
f 62//234 218//234 217//234
f 218//250 51//250 217//250
f 62//233 61//233 218//233
f 61//251 219//251 218//251
f 219//252 51//252 218//252
f 61//253 56//253 219//253
f 56//50 54//50 219//50
f 54//254 51//254 219//254
f 223//255 82//255 220//255
f 220//28 82//28 75//28
f 221//1 222//1 82//1
f 223//255 221//255 82//255
f 222//69 66//69 82//69
f 224//256 221//256 223//256
f 220//7 225//7 223//7
f 223//7 226//7 224//7
f 223//7 225//7 226//7
f 225//20 228//20 226//20
f 226//195 229//195 227//195
f 224//7 226//7 227//7
f 226//195 228//195 229//195
f 232//1 229//1 228//1
f 230//1 229//1 231//1
f 227//10 229//10 230//10
f 232//1 231//1 229//1
f 235//257 232//257 233//257
f 233//258 232//258 234//258
f 234//1 232//1 228//1
f 235//259 231//259 232//259
f 236//260 231//260 235//260
f 237//7 235//7 233//7
f 238//7 236//7 235//7
f 238//7 235//7 237//7
f 237//261 240//261 238//261
f 238//262 241//262 239//262
f 239//7 236//7 238//7
f 238//262 240//262 241//262
f 241//1 240//1 243//1
f 242//263 239//263 241//263
f 242//1 241//1 243//1
f 247//264 243//264 244//264
f 244//265 243//265 245//265
f 240//1 245//1 243//1
f 242//1 243//1 246//1
f 247//264 246//264 243//264
f 250//266 246//266 247//266
f 251//7 247//7 244//7
f 250//266 247//266 248//266
f 249//7 248//7 247//7
f 251//7 249//7 247//7
f 242//181 249//181 251//181
f 251//7 244//7 239//7
f 242//263 251//263 239//263
f 252//47 250//47 248//47
f 253//1 246//1 250//1
f 253//1 250//1 252//1
f 242//1 246//1 253//1
f 242//181 253//181 249//181
f 253//1 252//1 254//1
f 253//267 254//267 255//267
f 253//267 255//267 249//267
f 249//7 255//7 257//7
f 254//268 256//268 255//268
f 255//7 256//7 258//7
f 255//7 258//7 257//7
f 259//240 257//240 258//240
f 261//269 259//269 258//269
f 261//270 258//270 260//270
f 256//7 260//7 258//7
f 262//271 261//271 260//271
f 264//1 259//1 261//1
f 262//1 263//1 261//1
f 264//1 261//1 263//1
f 265//1 259//1 264//1
f 265//272 264//272 266//272
f 264//216 263//216 267//216
f 264//216 267//216 266//216
f 269//7 266//7 267//7
f 263//220 268//220 267//220
f 270//7 267//7 268//7
f 270//7 269//7 267//7
f 271//229 269//229 270//229
f 273//227 271//227 270//227
f 273//227 270//227 272//227
f 272//7 270//7 268//7
f 274//225 273//225 272//225
f 273//1 276//1 271//1
f 72//273 273//273 274//273
f 273//274 275//274 276//274
f 72//274 275//274 273//274
f 271//26 276//26 277//26
f 277//275 276//275 279//275
f 275//276 278//276 276//276
f 276//223 278//223 280//223
f 276//223 280//223 279//223
f 282//277 279//277 280//277
f 278//225 281//225 280//225
f 282//278 280//278 281//278
f 283//279 272//279 282//279
f 72//178 283//178 282//178
f 282//280 291//280 67//280
f 66//37 282//37 67//37
f 72//178 282//178 275//178
f 66//37 275//37 282//37
f 282//281 290//281 284//281
f 282//282 284//282 291//282
f 272//279 279//279 282//279
f 282//283 281//283 285//283
f 282//284 285//284 286//284
f 282//285 286//285 287//285
f 282//286 287//286 288//286
f 282//287 288//287 289//287
f 282//288 289//288 290//288
f 284//289 293//289 291//289
f 291//290 294//290 292//290
f 291//291 292//291 67//291
f 291//292 293//292 294//292
f 293//293 66//293 294//293
f 294//294 66//294 295//294
f 292//9 294//9 295//9
f 295//295 66//295 296//295
f 297//15 295//15 296//15
f 292//296 295//296 297//296
f 292//297 297//297 67//297
f 297//298 296//298 298//298
f 297//299 298//299 67//299
f 298//300 300//300 299//300
f 298//301 299//301 67//301
f 298//302 296//302 300//302
f 296//303 66//303 300//303
f 300//304 66//304 301//304
f 299//256 300//256 301//256
f 301//305 66//305 302//305
f 303//255 301//255 302//255
f 299//306 301//306 303//306
f 299//307 303//307 67//307
f 303//255 302//255 304//255
f 303//308 304//308 67//308
f 304//28 306//28 305//28
f 304//309 305//309 67//309
f 304//28 302//28 306//28
f 302//310 66//310 306//310
f 306//311 66//311 222//311
f 305//30 306//30 222//30
f 305//30 222//30 307//30
f 305//312 307//312 67//312
f 307//313 308//313 225//313
f 307//7 225//7 220//7
f 307//203 222//203 308//203
f 307//314 220//314 67//314
f 221//315 308//315 222//315
f 234//1 228//1 308//1
f 225//316 308//316 228//316
f 221//1 234//1 308//1
f 293//317 309//317 275//317
f 284//289 309//289 293//289
f 293//62 275//62 66//62
f 275//318 309//318 310//318
f 310//319 309//319 284//319
f 275//320 310//320 311//320
f 311//321 310//321 290//321
f 310//319 284//319 290//319
f 275//322 311//322 312//322
f 312//323 311//323 289//323
f 311//324 290//324 289//324
f 275//325 312//325 313//325
f 313//269 312//269 288//269
f 312//323 289//323 288//323
f 275//326 313//326 314//326
f 314//327 313//327 287//327
f 313//270 288//270 287//270
f 275//328 314//328 315//328
f 315//229 314//229 286//229
f 314//271 287//271 286//271
f 275//329 315//329 316//329
f 316//227 315//227 285//227
f 315//247 286//247 285//247
f 275//330 316//330 278//330
f 278//225 316//225 281//225
f 316//227 285//227 281//227
f 283//88 73//88 326//88
f 73//68 283//68 72//68
f 283//331 326//331 317//331
f 318//332 283//332 317//332
f 319//333 283//333 318//333
f 320//334 283//334 319//334
f 321//335 283//335 320//335
f 322//336 283//336 321//336
f 323//337 283//337 322//337
f 324//338 283//338 323//338
f 325//339 283//339 324//339
f 283//340 325//340 272//340
f 327//262 74//262 326//262
f 328//4 326//4 74//4
f 328//184 317//184 326//184
f 326//341 73//341 327//341
f 328//181 318//181 317//181
f 72//342 328//342 74//342
f 329//343 328//343 72//343
f 328//5 329//5 318//5
f 329//267 319//267 318//267
f 330//344 329//344 72//344
f 329//267 330//267 319//267
f 330//345 320//345 319//345
f 331//346 330//346 72//346
f 330//345 331//345 320//345
f 331//347 321//347 320//347
f 332//348 331//348 72//348
f 331//214 332//214 321//214
f 332//232 322//232 321//232
f 333//349 332//349 72//349
f 332//350 333//350 322//350
f 333//220 323//220 322//220
f 334//351 333//351 72//351
f 333//220 334//220 323//220
f 334//230 324//230 323//230
f 335//352 334//352 72//352
f 334//275 335//275 324//275
f 335//223 325//223 324//223
f 274//353 335//353 72//353
f 335//223 274//223 325//223
f 336//354 81//354 327//354
f 327//262 81//262 74//262
f 327//355 73//355 336//355
f 337//356 80//356 336//356
f 336//191 80//191 81//191
f 336//357 73//357 337//357
f 338//13 79//13 337//13
f 337//358 79//358 80//358
f 337//359 73//359 338//359
f 339//360 78//360 338//360
f 338//361 78//361 79//361
f 338//362 73//362 339//362
f 340//204 77//204 339//204
f 339//20 77//20 78//20
f 339//363 73//363 340//363
f 341//30 76//30 340//30
f 340//203 76//203 77//203
f 340//364 73//364 341//364
f 220//28 75//28 341//28
f 341//30 75//30 76//30
f 73//365 220//365 341//365
f 274//225 272//225 325//225
f 277//230 279//230 268//230
f 272//7 268//7 279//7
f 262//1 277//1 263//1
f 263//218 277//218 268//218
f 271//1 277//1 262//1
f 271//229 262//229 269//229
f 262//327 260//327 269//327
f 269//7 260//7 266//7
f 265//214 266//214 256//214
f 256//7 266//7 260//7
f 254//1 259//1 265//1
f 254//268 265//268 256//268
f 254//1 252//1 259//1
f 259//366 252//366 257//366
f 252//49 248//49 257//49
f 249//7 257//7 248//7
f 244//8 245//8 236//8
f 236//367 245//367 231//367
f 230//1 231//1 245//1
f 240//1 230//1 245//1
f 239//7 244//7 236//7
f 237//368 230//368 240//368
f 227//356 230//356 237//356
f 237//7 233//7 227//7
f 233//258 234//258 224//258
f 224//369 234//369 221//369
f 224//7 227//7 233//7
f 73//314 67//314 220//314
f 43//68 59//68 36//68
f 39//370 342//370 53//370
f 44//3 53//3 342//3
f 343//2 44//2 342//2
f 343//371 342//371 39//371
f 343//2 45//2 44//2
f 344//265 45//265 343//265
f 344//372 343//372 39//372
f 344//8 46//8 45//8
f 345//260 46//260 344//260
f 345//373 344//373 39//373
f 345//14 47//14 46//14
f 346//16 47//16 345//16
f 346//374 345//374 39//374
f 346//15 48//15 47//15
f 347//18 48//18 346//18
f 347//375 346//375 39//375
f 347//17 49//17 48//17
f 348//369 49//369 347//369
f 348//376 347//376 39//376
f 348//306 50//306 49//306
f 349//377 50//377 348//377
f 349//378 348//378 39//378
f 349//379 41//379 50//379
f 38//28 41//28 349//28
f 38//380 349//380 39//380
f 31//36 33//36 43//36
f 16//191 11//191 18//191
f 13//7 18//7 11//7
f 8//6 11//6 16//6
f 2//1 8//1 16//1
f 4//7 7//7 9//7
