# Blender 5.0.1
# www.blender.org
mtllib right_shoulder_x_link_visual_9.mtl
o i01.rightArm.shoulder.full.011_visual.001
v -0.000000 -0.038559 -0.058472
v -0.000000 -0.042237 -0.002541
v 0.021450 -0.038839 -0.054214
v -0.021450 -0.038839 -0.054214
v -0.000000 0.038766 -0.053388
v 0.021450 0.038486 -0.049130
v -0.021450 0.038486 -0.049130
v -0.039634 0.037689 -0.037006
v -0.016781 0.037747 -0.037884
v -0.031008 0.037123 -0.028399
v -0.040514 0.036189 -0.014202
v -0.031008 0.045072 -0.027876
v -0.040514 0.044138 -0.013680
v -0.043852 0.043037 0.003066
v -0.000000 0.043037 0.003066
v 0.016781 0.045695 -0.037360
v -0.000000 0.045914 -0.040691
v 0.031008 0.045072 -0.027876
v 0.040514 0.044138 -0.013680
v 0.043852 0.043037 0.003066
v 0.040514 0.041936 0.019810
v 0.031008 0.041003 0.034006
v 0.016781 0.040379 0.043492
v 0.000000 0.040160 0.046823
v -0.016781 0.040379 0.043492
v -0.031008 0.041003 0.034006
v -0.040514 0.041936 0.019810
v -0.016781 0.045695 -0.037360
v -0.000000 0.037965 -0.041214
v 0.016781 0.037747 -0.037884
v 0.031008 0.037123 -0.028399
v 0.040514 0.036190 -0.014204
v 0.039634 0.037689 -0.037006
v 0.051784 0.036496 -0.018861
v 0.039634 -0.039636 -0.042089
v 0.051784 -0.040829 -0.023944
v 0.056051 -0.042237 -0.002541
v 0.056051 0.035088 0.002542
v 0.051785 0.033681 0.023945
v 0.043852 0.035088 0.002542
v 0.040514 0.033988 0.019287
v 0.031008 0.033054 0.033484
v 0.039634 0.032488 0.042090
v 0.021450 0.031691 0.054215
v 0.039634 -0.044837 0.037006
v 0.051785 -0.043644 0.018863
v 0.021450 -0.045634 0.049131
v 0.000000 -0.045914 0.053389
v -0.000000 0.031411 0.058472
v -0.021450 0.031691 0.054215
v 0.000000 0.032211 0.046300
v 0.016781 0.032430 0.042970
v -0.016781 0.032430 0.042970
v -0.021450 -0.045634 0.049131
v -0.039634 -0.044837 0.037006
v -0.051784 -0.043644 0.018863
v -0.039634 0.032488 0.042090
v -0.051784 0.033681 0.023945
v -0.031008 0.033054 0.033484
v -0.040514 0.033987 0.019287
v -0.043852 0.035088 0.002542
v -0.051784 0.036496 -0.018861
v -0.056051 0.035088 0.002542
v -0.056051 -0.042237 -0.002541
v -0.051785 -0.040829 -0.023943
v -0.039634 -0.039636 -0.042089
vn -0.0000 -0.9978 -0.0656
vn 0.1951 0.0643 -0.9787
vn -0.1951 0.0643 -0.9787
vn -0.0000 0.9978 0.0656
vn -0.5556 0.0546 -0.8297
vn -0.8315 0.0364 -0.5544
vn -0.5556 0.0545 -0.8297
vn -0.9808 0.0128 -0.1947
vn -0.1951 0.0645 -0.9787
vn -0.5555 0.0547 -0.8297
vn 0.1951 0.0645 -0.9787
vn 0.5556 0.0546 -0.8297
vn 0.5555 0.0547 -0.8297
vn 0.8314 0.0365 -0.5544
vn 0.8315 0.0364 -0.5544
vn 0.5556 0.0545 -0.8297
vn 0.9808 0.0128 -0.1947
vn 0.9808 -0.0128 0.1947
vn 0.8315 -0.0364 0.5544
vn 0.5556 -0.0545 0.8297
vn 0.1951 -0.0643 0.9787
vn 0.1950 -0.0643 0.9787
vn -0.1950 -0.0643 0.9787
vn -0.1951 -0.0643 0.9787
vn -0.5556 -0.0545 0.8297
vn -0.8314 -0.0365 0.5544
vn -0.8315 -0.0364 0.5544
vn -0.9808 -0.0128 0.1947
vn -0.8315 0.0364 -0.5543
s 0
usemtl Material.015
f 4//1 1//1 2//1
f 2//1 1//1 3//1
f 1//2 6//2 3//2
f 1//3 4//3 7//3
f 1//2 5//2 6//2
f 1//3 7//3 5//3
f 7//4 8//4 10//4
f 8//5 7//5 4//5
f 5//4 7//4 9//4
f 7//4 10//4 9//4
f 10//6 11//6 13//6
f 8//4 11//4 10//4
f 9//7 10//7 12//7
f 10//6 13//6 12//6
f 11//8 14//8 13//8
f 15//4 12//4 13//4
f 15//4 13//4 14//4
f 15//4 18//4 16//4
f 15//4 16//4 17//4
f 15//4 17//4 28//4
f 15//4 19//4 18//4
f 15//4 20//4 19//4
f 15//4 21//4 20//4
f 15//4 22//4 21//4
f 15//4 23//4 22//4
f 15//4 24//4 23//4
f 15//4 25//4 24//4
f 15//4 26//4 25//4
f 15//4 27//4 26//4
f 15//4 14//4 27//4
f 15//4 28//4 12//4
f 29//9 9//9 28//9
f 9//10 12//10 28//10
f 29//3 28//3 17//3
f 5//4 29//4 30//4
f 5//4 9//4 29//4
f 29//11 16//11 30//11
f 29//2 17//2 16//2
f 6//4 30//4 31//4
f 5//4 30//4 6//4
f 30//12 18//12 31//12
f 30//13 16//13 18//13
f 33//4 31//4 32//4
f 31//14 19//14 32//14
f 31//15 18//15 19//15
f 6//4 31//4 33//4
f 35//15 33//15 34//15
f 33//4 32//4 34//4
f 3//12 6//12 33//12
f 3//16 33//16 35//16
f 2//1 3//1 35//1
f 2//1 35//1 36//1
f 35//15 34//15 36//15
f 2//1 36//1 37//1
f 36//17 38//17 37//17
f 36//17 34//17 38//17
f 34//4 40//4 38//4
f 39//4 38//4 40//4
f 37//18 38//18 39//18
f 34//4 32//4 40//4
f 32//17 20//17 40//17
f 40//18 21//18 41//18
f 39//4 40//4 41//4
f 40//18 20//18 21//18
f 41//19 22//19 42//19
f 43//4 41//4 42//4
f 41//19 21//19 22//19
f 43//4 39//4 41//4
f 44//4 43//4 42//4
f 45//20 43//20 44//20
f 46//19 39//19 43//19
f 46//19 43//19 45//19
f 37//18 39//18 46//18
f 2//1 37//1 46//1
f 2//1 46//1 45//1
f 2//1 45//1 47//1
f 45//20 44//20 47//20
f 2//1 47//1 48//1
f 47//21 49//21 48//21
f 47//22 44//22 49//22
f 49//23 50//23 54//23
f 49//4 53//4 50//4
f 49//4 51//4 53//4
f 49//4 52//4 51//4
f 49//4 44//4 52//4
f 49//24 54//24 48//24
f 2//1 48//1 54//1
f 2//1 54//1 55//1
f 50//25 55//25 54//25
f 2//1 55//1 56//1
f 57//26 56//26 55//26
f 50//25 57//25 55//25
f 50//4 59//4 57//4
f 57//27 58//27 56//27
f 57//4 60//4 58//4
f 57//4 59//4 60//4
f 60//27 59//27 26//27
f 61//28 60//28 27//28
f 58//4 60//4 61//4
f 60//27 26//27 27//27
f 11//8 61//8 14//8
f 62//4 61//4 11//4
f 61//28 27//28 14//28
f 62//4 63//4 61//4
f 58//4 61//4 63//4
f 58//28 63//28 64//28
f 63//8 62//8 65//8
f 63//8 65//8 64//8
f 2//1 64//1 65//1
f 2//1 65//1 66//1
f 62//29 66//29 65//29
f 2//1 66//1 4//1
f 8//7 4//7 66//7
f 62//6 8//6 66//6
f 58//28 64//28 56//28
f 2//1 56//1 64//1
f 8//4 62//4 11//4
f 59//25 53//25 25//25
f 50//4 53//4 59//4
f 59//25 25//25 26//25
f 53//24 51//24 24//24
f 53//24 24//24 25//24
f 42//20 23//20 52//20
f 44//4 42//4 52//4
f 52//21 24//21 51//21
f 52//21 23//21 24//21
f 42//20 22//20 23//20
f 32//17 19//17 20//17
