# Blender 5.0.1
# www.blender.org
mtllib right_elbow_x_link_visual_9.mtl
o i01.right.bicep.full.010_visual.001
v 0.066842 0.353680 0.074049
v 0.073939 0.366027 0.071962
v 0.073067 0.371113 0.107290
v -0.071684 0.363374 0.072411
v -0.067309 0.354952 0.073834
v 0.067367 0.341686 0.076076
v 0.066601 0.358433 0.109433
v -0.066536 0.345518 0.075428
v -0.066536 0.357064 0.109664
v -0.067838 0.345474 0.111622
v -0.069482 0.336512 0.076950
v 0.071743 0.333261 0.077499
v -0.075700 0.329303 0.078168
v -0.075034 0.335787 0.113260
v -0.083416 0.331181 0.114037
v 0.072290 0.338550 0.112794
v 0.079814 0.332676 0.113786
v 0.089046 0.330088 0.114223
v 0.079053 0.327132 0.078535
v 0.088189 0.324226 0.079026
v 0.097755 0.324988 0.078897
v 0.141195 0.302255 0.082767
v -0.084242 0.324988 0.078897
v -0.096411 0.324471 0.078984
v -0.095201 0.330179 0.114207
v -0.141416 0.302255 0.082767
v -0.141415 -0.308220 0.185928
v -0.112865 0.337261 0.076823
v -0.115753 0.348926 0.074852
v -0.141231 -0.374176 -0.205875
v -0.141416 0.308220 0.118064
v -0.106907 0.329842 0.078077
v -0.141415 0.385316 0.105036
v -0.141416 0.379351 0.069738
v -0.141231 0.236088 -0.309003
v 0.141380 -0.374176 -0.205875
v 0.141379 0.236089 -0.309004
v 0.141195 -0.308219 0.185928
v 0.141195 -0.302255 0.221227
v 0.141195 -0.379350 0.234256
v 0.141195 -0.385315 0.198957
v 0.114411 -0.347659 0.192567
v 0.098303 -0.331208 0.189786
v 0.108710 -0.337443 0.190841
v 0.088768 -0.330116 0.189603
v -0.081195 -0.331948 0.189912
v 0.087910 -0.324253 0.224800
v 0.097476 -0.325016 0.224928
v 0.079537 -0.332703 0.190040
v 0.078776 -0.327159 0.225290
v 0.072010 -0.338579 0.191032
v -0.071963 -0.339235 0.191143
v 0.066564 -0.348930 0.192782
v 0.071463 -0.333292 0.226326
v -0.067837 -0.340900 0.227612
v -0.072509 -0.332633 0.226215
v 0.066323 -0.344178 0.228167
v 0.067618 -0.363082 0.195174
v 0.067339 -0.355793 0.230129
v -0.066729 -0.350300 0.229200
v -0.070299 -0.361416 0.231079
v -0.066814 -0.357092 0.194161
v -0.067587 -0.347659 0.192568
v -0.070985 -0.368373 0.196068
v 0.074814 -0.372769 0.196811
v -0.079275 -0.369534 0.232450
v -0.080035 -0.375881 0.197336
v -0.089267 -0.378468 0.197775
v 0.085310 -0.378140 0.197719
v -0.088408 -0.372438 0.232948
v 0.088768 -0.372521 0.232963
v -0.097975 -0.371677 0.232813
v -0.141415 -0.379351 0.234256
v -0.106519 -0.367362 0.232083
v -0.112736 -0.360153 0.230865
v -0.141415 -0.302255 0.221227
v -0.116031 -0.348954 0.228973
v -0.141415 -0.385316 0.198957
v -0.107185 -0.372769 0.196811
v -0.113142 -0.365349 0.195557
v -0.116031 -0.353684 0.193586
v -0.098801 -0.377376 0.197589
v -0.112197 -0.335276 0.226662
v -0.111512 -0.340210 0.191309
v -0.101302 -0.326003 0.225094
v -0.102460 -0.332703 0.190040
v -0.093228 -0.330116 0.189603
v -0.089267 -0.324170 0.224787
v -0.080036 -0.326758 0.225222
v -0.141431 -0.287166 0.309003
v 0.141383 -0.287167 0.308998
v -0.141275 0.194498 0.177934
v -0.048007 -0.002203 0.260842
v -0.141228 0.202526 0.226247
v -0.048007 0.202398 0.226267
v -0.051051 0.201733 0.221458
v -0.051051 0.194372 0.177901
v -0.049096 0.220448 0.218246
v -0.047554 0.219823 0.173552
v -0.043127 0.237085 0.215951
v -0.039992 0.234382 0.171091
v -0.141319 0.314829 0.156990
v 0.141289 0.314839 0.157117
v -0.028104 0.247339 0.168901
v -0.012629 0.256139 0.167415
v 0.141195 0.308220 0.118064
v 0.028467 0.258248 0.167063
v 0.005770 0.260699 0.166644
v 0.010613 0.267846 0.213519
v -0.001032 0.266806 0.212054
v 0.021252 0.266964 0.212923
v 0.037059 0.265116 0.235690
v 0.033591 0.263502 0.212613
v 0.016256 0.270954 0.234705
v 0.058651 0.244300 0.239207
v -0.005326 0.269163 0.235007
v -0.011919 0.263504 0.214253
v -0.026357 0.258607 0.236790
v -0.046956 0.222646 0.242881
v -0.040588 0.241507 0.239679
v -0.046153 0.222671 0.222794
v -0.040749 0.238232 0.219728
v -0.048007 0.001101 0.280392
v 0.141382 0.001101 0.280391
v 0.141382 -0.002203 0.260841
v 0.141382 0.244305 0.239292
v 0.141431 0.240172 0.214971
v 0.060449 0.240232 0.216570
v 0.141335 0.232817 0.171429
v 0.141431 0.232809 0.171405
v 0.061400 0.232415 0.171424
v 0.050991 0.246562 0.169028
v 0.053817 0.250695 0.213135
v 0.043323 0.258232 0.215144
v 0.051460 0.251360 0.217945
v 0.051460 0.254657 0.237457
v -0.032394 0.250056 0.215569
v -0.022634 0.258137 0.213519
v 0.141195 0.379351 0.069738
v 0.106964 0.335787 0.113259
v 0.098581 0.331181 0.114038
v 0.114160 0.345474 0.111622
v 0.141195 0.385316 0.105036
v 0.115462 0.357065 0.109664
v 0.112516 0.366071 0.108142
v 0.114689 0.354952 0.073833
v 0.115462 0.345518 0.075427
v 0.112516 0.336512 0.076949
v 0.106298 0.329302 0.078169
v 0.110315 0.363373 0.072411
v 0.104284 0.374919 0.106647
v 0.103003 0.369505 0.071375
v 0.093868 0.372411 0.070883
v 0.084303 0.371650 0.071012
v 0.093009 0.378440 0.106050
v 0.083480 0.377348 0.106231
v -0.077714 0.374920 0.106647
v -0.088989 0.378441 0.106059
v -0.098522 0.377348 0.106236
v -0.097696 0.371649 0.071012
v -0.088130 0.372411 0.070885
v -0.078996 0.369506 0.071374
v -0.106240 0.367335 0.071742
v -0.106906 0.372741 0.107015
v -0.112458 0.360126 0.072959
v -0.114102 0.363055 0.108652
v -0.115405 0.351466 0.110610
v -0.112458 0.342458 0.112132
v -0.106240 0.335248 0.113350
v -0.069482 0.366070 0.108143
v 0.079535 -0.369934 0.232518
v 0.100804 -0.370690 0.232645
v 0.095528 -0.377978 0.197691
v 0.104006 -0.374947 0.197179
v 0.111699 -0.361417 0.231078
v 0.112238 -0.366098 0.195683
v 0.115184 -0.357092 0.194160
v 0.115269 -0.350300 0.229201
v 0.114161 -0.340901 0.227612
v 0.107838 -0.330638 0.225879
v 0.072011 -0.364060 0.231525
v 0.067617 0.346817 0.111395
vn -0.0000 -0.1666 -0.9860
vn 0.8699 -0.4847 0.0912
vn 0.8934 -0.4445 0.0658
vn -0.0000 -0.1667 -0.9860
vn 0.9990 0.0439 0.0009
vn -0.9967 -0.0773 0.0261
vn -0.9938 0.1056 -0.0356
vn -0.9516 0.3055 -0.0339
vn -0.7618 0.6395 -0.1037
vn -0.8067 0.5803 -0.1118
vn -0.4868 0.8606 -0.1498
vn -0.0000 0.1662 0.9861
vn -0.0000 0.1668 0.9860
vn -0.0000 0.1665 0.9860
vn -0.0000 0.1667 0.9860
vn 0.2735 0.9477 -0.1645
vn 0.6207 0.7723 -0.1349
vn 0.3070 0.9391 -0.1543
vn -0.0806 0.9835 -0.1618
vn -0.0000 -0.1678 -0.9858
vn -0.0000 -0.1679 -0.9858
vn -0.0000 -0.1665 -0.9860
vn -0.4559 0.8783 -0.1441
vn -0.0000 -0.1680 -0.9858
vn -0.0431 0.9864 -0.1584
vn -0.0859 0.9815 -0.1709
vn -0.0000 0.9860 -0.1665
vn -1.0000 -0.0001 -0.0005
vn -1.0000 -0.0000 -0.0000
vn -0.0008 -0.1668 -0.9860
vn -0.0005 -0.1670 -0.9859
vn -0.0011 -0.1666 -0.9860
vn -0.0004 -0.1672 -0.9859
vn 1.0000 0.0001 0.0005
vn 1.0000 -0.0000 -0.0000
vn 0.0010 -0.1666 -0.9860
vn -0.0000 -0.1655 -0.9862
vn -0.0000 -0.9861 0.1660
vn 0.0005 -0.1663 -0.9861
vn 0.0004 -0.1662 -0.9861
vn -0.0000 -0.1654 -0.9862
vn -0.0000 -0.1664 -0.9861
vn -0.0000 -0.1656 -0.9862
vn -0.1154 -0.9787 0.1698
vn 0.2734 -0.9477 0.1645
vn -0.0805 -0.9835 0.1618
vn 0.6208 -0.7723 0.1349
vn 0.3070 -0.9391 0.1543
vn 0.6479 -0.7518 0.1227
vn 0.8876 -0.4533 0.0817
vn -0.0000 0.1666 0.9860
vn 0.9065 -0.4175 0.0622
vn 0.9973 0.0738 -0.0031
vn 0.9963 0.0855 -0.0099
vn -0.9533 0.2968 -0.0552
vn -0.9967 -0.0787 0.0177
vn -0.9933 -0.1145 0.0150
vn -0.8900 -0.4488 0.0802
vn -0.0000 -0.1668 -0.9860
vn -0.9395 0.3391 -0.0490
vn -0.6438 0.7553 -0.1226
vn -0.6759 0.7252 -0.1309
vn -0.0000 -0.1672 -0.9859
vn -0.2734 0.9492 -0.1560
vn -0.3069 0.9377 -0.1628
vn -0.0000 0.1690 0.9856
vn -0.0000 0.1858 0.9826
vn 0.0005 0.1818 0.9833
vn 0.0805 0.9821 -0.1703
vn 0.0032 0.1693 0.9856
vn 0.0024 0.1714 0.9852
vn 0.0042 0.1678 0.9858
vn -0.0000 0.1861 0.9825
vn 0.0056 0.1666 0.9860
vn -0.0000 -0.9860 0.1666
vn -0.0000 -0.1702 -0.9854
vn -0.0000 -0.1701 -0.9854
vn -0.0006 -0.1671 -0.9859
vn -0.0005 -0.1674 -0.9859
vn -0.0010 -0.1666 -0.9860
vn -0.0001 -0.1691 -0.9856
vn 0.1154 0.9801 -0.1613
vn 0.4868 0.8620 -0.1413
vn 0.4559 0.8769 -0.1525
vn 0.9714 0.2352 -0.0314
vn 0.9494 -0.3081 0.0614
vn 0.9638 -0.2642 0.0353
vn -0.0006 -0.1664 -0.9861
vn -0.0004 -0.1662 -0.9861
vn 0.6437 -0.7553 0.1231
vn 0.6534 -0.7479 0.1171
vn -0.0002 -0.1659 -0.9861
vn 0.2734 -0.9464 0.1719
vn 0.0002 -0.1651 -0.9863
vn -0.1526 -0.9715 0.1814
vn 0.1526 -0.9771 0.1479
vn -0.2734 -0.9503 0.1487
vn -0.0000 0.1657 0.9862
vn 0.0006 0.1616 0.9868
vn -0.0000 0.1603 0.9871
vn -0.0000 0.1664 0.9861
vn -0.6207 -0.7725 0.1339
vn 0.0021 0.1643 0.9864
vn 0.0037 0.1656 0.9862
vn 0.9604 0.2739 -0.0513
vn 0.7840 0.6128 -0.0992
vn 0.7618 0.6381 -0.1122
vn -1.0000 -0.0000 -0.0002
vn -0.0000 -0.9855 0.1694
vn -1.0000 0.0006 0.0009
vn -1.0000 0.0020 0.0062
vn 0.0014 0.9905 -0.1378
vn -0.0002 0.9860 -0.1666
vn 0.0013 0.9865 -0.1639
vn -0.9909 0.1300 -0.0360
vn -0.9947 0.1010 -0.0171
vn 0.0006 0.1684 0.9857
vn -0.9422 0.3329 -0.0372
vn -0.8900 0.4472 -0.0891
vn -0.0035 0.1684 0.9857
vn -0.0003 0.1715 0.9852
vn -0.0004 0.1740 0.9848
vn -0.0000 0.9859 -0.1671
vn -0.0029 0.1692 0.9856
vn -0.0022 0.1703 0.9854
vn -0.0014 0.1720 0.9851
vn -0.0000 0.9859 -0.1674
vn -1.0000 0.0001 0.0025
vn 0.0011 0.1786 0.9839
vn -0.0702 0.9872 -0.1433
vn 0.0728 0.9848 -0.1577
vn -0.2438 0.9557 -0.1650
vn 0.1089 0.9796 -0.1691
vn 0.2661 0.9580 -0.1070
vn 0.2734 0.9553 -0.1123
vn 0.2643 0.9543 -0.1398
vn 0.0723 0.9839 -0.1636
vn -0.0838 0.9889 -0.1228
vn 0.0001 0.1667 0.9860
vn -0.3153 0.9362 -0.1551
vn -0.0739 0.9905 -0.1156
vn -0.4531 0.8861 -0.0977
vn 0.0001 0.1668 0.9860
vn -0.0004 0.1672 0.9859
vn -0.0015 0.1678 0.9858
vn -0.9488 0.3129 -0.0437
vn 0.0001 0.1669 0.9860
vn -0.9957 0.0843 -0.0397
vn -0.9988 0.0128 0.0476
vn -0.9463 0.3212 -0.0374
vn -0.0000 0.1670 0.9860
vn -0.0010 0.1666 0.9860
vn 1.0000 0.0002 0.0020
vn 0.0001 0.9859 -0.1675
vn -0.0026 0.9860 -0.1666
vn -0.0028 0.9842 -0.1771
vn 1.0000 -0.0006 -0.0021
vn -0.2537 -0.3440 -0.9041
vn 0.0047 -0.9428 0.3332
vn -0.0049 0.9853 -0.1707
vn -0.0009 0.1663 0.9861
vn 0.8094 0.5813 -0.0836
vn 0.0019 0.1694 0.9855
vn 0.4656 0.8717 -0.1529
vn 0.8551 0.5083 -0.1024
vn 0.5653 0.8171 -0.1128
vn -0.0000 0.1719 0.9851
vn 0.4985 0.8565 -0.1338
vn 0.5964 0.7812 0.1843
vn 0.6649 0.7365 -0.1245
vn 0.5924 0.8008 -0.0877
vn 0.4987 0.8562 -0.1348
vn 0.8251 0.5571 -0.0941
vn 0.7737 0.6314 -0.0521
vn 0.7611 0.5786 0.2931
vn 1.0000 -0.0017 -0.0051
vn 1.0000 0.0001 -0.0024
vn 1.0000 -0.0003 -0.0021
vn 1.0000 -0.0004 -0.0021
vn -0.8167 0.5770 -0.0002
vn -0.7730 0.6270 -0.0967
vn -0.7365 0.6175 0.2761
vn -0.8327 0.3703 0.4117
vn -0.7685 0.6332 -0.0919
vn -0.7416 0.6623 -0.1067
vn -0.6471 0.7554 -0.1035
vn -0.6479 0.7524 -0.1189
vn -0.4996 0.8540 -0.1454
vn -0.4365 0.8898 -0.1333
vn -0.4412 0.8930 -0.0886
vn -0.8539 0.3584 0.3774
vn -0.8632 0.1717 0.4748
vn -0.8435 0.1647 0.5112
vn -0.3136 0.9388 -0.1428
vn -0.0000 0.1728 0.9850
vn -0.0026 0.1685 0.9857
vn -0.0017 0.1697 0.9855
vn -0.0006 0.1717 0.9852
vn -0.0000 0.1730 0.9849
vn -0.0047 0.1671 0.9859
vn -0.0056 0.1666 0.9860
vn -0.0041 0.1653 0.9862
vn -0.9516 -0.3048 0.0385
vn 0.0009 -0.1665 -0.9860
vn 0.0007 -0.1669 -0.9860
vn -0.9516 0.3056 -0.0339
vn 0.0011 -0.1666 -0.9860
vn 0.0004 -0.1671 -0.9859
vn -0.4558 0.8783 -0.1441
vn -0.8900 -0.4473 0.0886
vn 0.0007 -0.1663 -0.9861
vn 0.0005 -0.1659 -0.9861
vn -0.7368 -0.6693 0.0959
vn -0.6478 -0.7491 0.1385
vn 0.0004 -0.1656 -0.9862
vn -0.3071 -0.9389 0.1553
vn -0.0007 -0.1581 -0.9874
vn 0.0805 -0.9821 0.1703
vn -0.3019 -0.9408 0.1539
vn 0.1154 -0.9801 0.1613
vn 0.0107 0.0718 0.9974
vn -0.0021 0.1605 0.9870
vn 0.4821 -0.8630 0.1509
vn 0.5191 -0.8441 0.1343
vn -0.0000 0.1675 0.9859
vn 0.0001 0.1650 0.9863
vn -0.0000 0.1486 0.9889
vn -0.0000 0.1472 0.9891
vn 0.0008 0.1529 0.9882
vn -0.0000 -0.1631 -0.9866
vn -0.0000 -0.1661 -0.9861
vn -0.0000 -0.1630 -0.9866
vn -0.0001 -0.1639 -0.9865
vn -0.3070 -0.9390 0.1553
vn -0.0005 -0.1658 -0.9862
vn 0.4559 -0.8769 0.1525
vn 0.7617 -0.6381 0.1122
vn 0.4868 -0.8620 0.1413
vn -0.0005 -0.1660 -0.9861
vn 0.9602 -0.2713 0.0665
vn 0.8066 -0.5849 0.0852
vn -0.0008 -0.1664 -0.9861
vn 0.9937 -0.1120 -0.0017
vn 0.0048 0.1661 0.9861
vn 0.0033 0.1643 0.9864
vn 0.0036 0.1677 0.9858
vn 0.0055 0.1666 0.9860
vn 0.9517 0.3019 -0.0554
vn 0.9714 0.2361 -0.0262
vn 0.0025 0.1687 0.9857
vn 0.4607 0.8760 -0.1430
vn 0.0015 0.1699 0.9855
vn 0.4222 0.8924 -0.1591
vn 0.0025 0.1623 0.9867
vn -0.0031 0.1638 0.9865
vn -0.0000 0.9860 -0.1666
vn -0.1155 0.9787 -0.1697
vn -0.0011 0.1779 0.9840
vn -0.0000 0.1693 0.9856
vn 0.2735 0.9454 -0.1775
vn -0.0160 0.9876 -0.1559
vn -0.1526 0.9718 -0.1796
vn -0.0000 -0.1700 -0.9854
vn 0.0004 -0.1677 -0.9858
vn -0.3408 0.9293 -0.1423
vn 0.0006 -0.1671 -0.9859
vn -0.6533 0.7425 -0.1481
vn -0.7369 0.6686 -0.0997
vn 0.0007 -0.1670 -0.9860
vn -0.9517 0.3021 -0.0545
vn 0.0012 -0.1665 -0.9860
vn -0.0042 0.1678 0.9858
vn -0.0062 0.1661 0.9861
vn -0.8761 -0.4745 0.0853
vn -0.0027 0.1649 0.9863
vn -0.0053 0.1666 0.9860
vn -0.8546 -0.5133 0.0784
vn -0.0017 0.1637 0.9865
vn -0.4821 -0.8647 0.1410
vn -0.5192 -0.8413 0.1505
vn -0.0029 0.1699 0.9855
vn 0.4605 0.8780 -0.1306
vn 0.6207 0.7709 -0.1433
vn 0.8735 0.4780 -0.0927
vn 0.8066 0.5854 -0.0817
vn -0.8735 -0.4807 0.0769
vn -0.6249 -0.7689 0.1350
vn -0.0003 0.1611 0.9869
vn -0.0005 0.1741 0.9847
vn 0.6478 0.7519 -0.1227
vn -0.0000 0.1669 0.9860
vn 0.8735 0.4793 -0.0854
vn 0.9963 0.0839 -0.0193
vn 0.8900 0.4502 -0.0717
s 0
usemtl Material.024
f 1//1 4//1 2//1
f 3//2 1//2 2//2
f 1//3 3//3 7//3
f 1//4 5//4 4//4
f 1//1 8//1 5//1
f 1//1 6//1 8//1
f 7//5 6//5 1//5
f 9//6 5//6 8//6
f 8//7 10//7 9//7
f 10//8 8//8 11//8
f 6//1 11//1 8//1
f 13//1 11//1 12//1
f 6//1 12//1 11//1
f 14//9 11//9 13//9
f 11//10 14//10 10//10
f 13//11 15//11 14//11
f 15//12 17//12 14//12
f 16//13 10//13 14//13
f 14//14 17//14 16//14
f 18//15 17//15 15//15
f 20//16 17//16 18//16
f 19//17 16//17 17//17
f 17//18 20//18 19//18
f 18//19 21//19 20//19
f 21//20 22//20 20//20
f 23//1 19//1 20//1
f 20//21 22//21 23//21
f 23//22 13//22 19//22
f 15//23 13//23 23//23
f 26//24 24//24 23//24
f 25//25 23//25 24//25
f 23//26 25//26 15//26
f 26//21 23//21 22//21
f 35//27 26//27 22//27
f 30//28 27//28 26//28
f 31//29 26//29 27//29
f 29//30 28//30 26//30
f 28//31 32//31 26//31
f 34//32 29//32 26//32
f 26//28 35//28 30//28
f 26//29 31//29 33//29
f 32//33 24//33 26//33
f 33//29 34//29 26//29
f 22//27 37//27 35//27
f 36//1 30//1 35//1
f 35//1 37//1 36//1
f 37//34 22//34 38//34
f 38//34 36//34 37//34
f 38//35 39//35 40//35
f 39//35 38//35 22//35
f 40//35 41//35 38//35
f 41//36 42//36 38//36
f 38//37 45//37 27//37
f 36//38 38//38 27//38
f 42//39 44//39 38//39
f 44//40 43//40 38//40
f 43//41 45//41 38//41
f 49//42 46//42 45//42
f 46//43 27//43 45//43
f 48//44 45//44 43//44
f 47//45 49//45 45//45
f 45//46 48//46 47//46
f 50//47 51//47 49//47
f 49//48 47//48 50//48
f 49//1 51//1 46//1
f 51//1 52//1 46//1
f 52//4 51//4 53//4
f 51//49 50//49 54//49
f 54//50 53//50 51//50
f 55//51 54//51 56//51
f 55//15 57//15 54//15
f 50//14 56//14 54//14
f 53//52 54//52 57//52
f 60//51 57//51 55//51
f 57//53 58//53 53//53
f 58//54 57//54 59//54
f 60//51 59//51 57//51
f 60//51 61//51 59//51
f 62//55 61//55 60//55
f 60//56 63//56 62//56
f 63//57 60//57 55//57
f 55//58 52//58 63//58
f 63//59 52//59 53//59
f 62//1 63//1 53//1
f 62//1 58//1 64//1
f 61//60 62//60 64//60
f 62//1 53//1 58//1
f 64//1 58//1 65//1
f 64//1 65//1 67//1
f 66//61 64//61 67//61
f 64//62 66//62 61//62
f 69//63 68//63 67//63
f 70//64 67//64 68//64
f 69//4 67//4 65//4
f 67//65 70//65 66//65
f 71//66 66//66 70//66
f 71//67 70//67 73//67
f 73//68 70//68 72//68
f 68//69 72//69 70//69
f 73//70 74//70 75//70
f 73//71 72//71 74//71
f 73//72 75//72 77//72
f 40//73 71//73 73//73
f 77//74 76//74 73//74
f 78//29 73//29 76//29
f 73//75 78//75 41//75
f 41//75 40//75 73//75
f 69//76 78//76 68//76
f 41//77 78//77 69//77
f 78//78 80//78 79//78
f 78//79 79//79 82//79
f 81//80 78//80 27//80
f 76//29 27//29 78//29
f 78//30 81//30 80//30
f 78//81 82//81 68//81
f 72//82 68//82 82//82
f 74//83 82//83 79//83
f 82//84 74//84 72//84
f 77//85 80//85 81//85
f 83//86 81//86 84//86
f 81//87 83//87 77//87
f 81//88 27//88 84//88
f 84//89 27//89 86//89
f 85//90 84//90 86//90
f 84//91 85//91 83//91
f 86//92 27//92 87//92
f 85//93 86//93 87//93
f 87//94 27//94 46//94
f 88//95 87//95 46//95
f 87//96 88//96 85//96
f 46//97 89//97 88//97
f 88//98 89//98 47//98
f 85//99 88//99 76//99
f 88//100 47//100 76//100
f 50//13 89//13 56//13
f 47//101 89//101 50//101
f 46//102 56//102 89//102
f 83//103 85//103 76//103
f 77//104 83//104 76//104
f 80//105 77//105 75//105
f 75//106 79//106 80//106
f 79//107 75//107 74//107
f 90//108 31//108 76//108
f 27//29 76//29 31//29
f 39//100 76//100 47//100
f 90//109 76//109 39//109
f 93//51 90//51 91//51
f 39//109 91//109 90//109
f 90//110 94//110 92//110
f 90//111 92//111 31//111
f 94//51 90//51 93//51
f 93//51 95//51 94//51
f 94//112 95//112 96//112
f 94//113 96//113 97//113
f 97//114 92//114 94//114
f 97//115 98//115 99//115
f 98//116 97//116 96//116
f 99//117 92//117 97//117
f 98//118 100//118 99//118
f 99//119 100//119 101//119
f 101//120 102//120 99//120
f 102//121 92//121 99//121
f 107//122 103//122 102//122
f 103//123 106//123 102//123
f 101//124 104//124 102//124
f 104//125 105//125 102//125
f 105//126 108//126 102//126
f 102//127 106//127 31//127
f 92//128 102//128 31//128
f 108//129 107//129 102//129
f 110//130 109//130 108//130
f 111//131 108//131 109//131
f 105//132 110//132 108//132
f 108//133 111//133 107//133
f 111//134 112//134 113//134
f 112//135 111//135 114//135
f 113//136 107//136 111//136
f 109//137 114//137 111//137
f 116//138 114//138 109//138
f 112//139 114//139 115//139
f 115//14 114//14 116//14
f 117//140 116//140 110//140
f 109//141 110//141 116//141
f 118//142 116//142 117//142
f 116//143 119//143 115//143
f 116//144 118//144 119//144
f 118//145 120//145 119//145
f 119//146 120//146 122//146
f 115//147 119//147 123//147
f 95//148 119//148 121//148
f 123//149 119//149 95//149
f 122//150 121//150 119//150
f 95//29 93//29 123//29
f 124//75 123//75 93//75
f 115//151 123//151 124//151
f 93//75 125//75 124//75
f 126//35 124//35 125//35
f 126//152 115//152 124//152
f 125//153 127//153 126//153
f 115//154 126//154 127//154
f 128//155 127//155 130//155
f 127//156 128//156 115//156
f 129//157 127//157 125//157
f 125//158 129//158 130//158
f 131//159 130//159 129//159
f 130//160 131//160 128//160
f 129//161 132//161 131//161
f 132//162 128//162 131//162
f 103//163 107//163 132//163
f 132//164 107//164 113//164
f 128//165 132//165 133//165
f 133//166 132//166 134//166
f 129//167 103//167 132//167
f 113//168 134//168 132//168
f 134//169 135//169 133//169
f 134//170 136//170 135//170
f 136//171 134//171 112//171
f 134//172 113//172 112//172
f 115//173 135//173 136//173
f 115//51 136//51 112//51
f 135//174 115//174 128//174
f 128//175 133//175 135//175
f 129//176 125//176 106//176
f 103//177 129//177 106//177
f 125//51 93//51 91//51
f 125//178 91//178 39//178
f 125//179 39//179 106//179
f 122//180 118//180 137//180
f 118//181 122//181 120//181
f 137//182 100//182 122//182
f 121//183 122//183 100//183
f 137//184 101//184 100//184
f 101//185 137//185 104//185
f 138//186 104//186 137//186
f 137//187 118//187 138//187
f 105//188 104//188 138//188
f 138//189 117//189 105//189
f 117//190 138//190 118//190
f 100//191 98//191 121//191
f 96//192 121//192 98//192
f 121//193 96//193 95//193
f 110//194 105//194 117//194
f 22//35 106//35 39//35
f 106//35 22//35 139//35
f 139//35 143//35 106//35
f 31//195 106//195 15//195
f 142//196 140//196 106//196
f 140//197 141//197 106//197
f 141//198 18//198 106//198
f 18//199 15//199 106//199
f 106//200 144//200 142//200
f 144//201 106//201 143//201
f 143//202 145//202 144//202
f 146//203 144//203 145//203
f 144//6 146//6 147//6
f 147//7 142//7 144//7
f 139//204 147//204 146//204
f 147//205 22//205 148//205
f 142//206 147//206 148//206
f 147//207 139//207 22//207
f 148//208 22//208 149//208
f 148//10 140//10 142//10
f 140//9 148//9 149//9
f 149//208 22//208 21//208
f 141//209 149//209 21//209
f 149//11 141//11 140//11
f 145//210 150//210 146//210
f 139//211 146//211 150//211
f 139//212 150//212 152//212
f 150//213 145//213 151//213
f 151//214 152//214 150//214
f 139//215 152//215 153//215
f 151//216 153//216 152//216
f 139//217 153//217 154//217
f 155//218 154//218 153//218
f 153//219 151//219 155//219
f 154//220 155//220 156//220
f 143//221 156//221 155//221
f 143//222 155//222 151//222
f 156//223 2//223 154//223
f 2//224 156//224 3//224
f 157//225 3//225 156//225
f 158//226 157//226 156//226
f 158//227 156//227 143//227
f 33//228 158//228 143//228
f 158//229 33//229 159//229
f 161//219 157//219 158//219
f 160//220 158//220 159//220
f 158//218 160//218 161//218
f 161//230 139//230 154//230
f 161//231 154//231 162//231
f 34//232 139//232 161//232
f 161//233 160//233 34//233
f 157//234 161//234 162//234
f 162//4 154//4 2//4
f 162//4 2//4 4//4
f 157//214 162//214 4//214
f 160//235 163//235 34//235
f 159//236 163//236 160//236
f 164//237 165//237 163//237
f 163//238 159//238 164//238
f 163//239 165//239 34//239
f 166//240 29//240 165//240
f 165//241 164//241 166//241
f 165//242 29//242 34//242
f 29//243 166//243 167//243
f 166//244 33//244 167//244
f 164//245 33//245 166//245
f 167//246 31//246 168//246
f 33//247 31//247 167//247
f 28//248 167//248 168//248
f 167//249 28//249 29//249
f 168//250 31//250 169//250
f 32//107 168//107 169//107
f 168//106 32//106 28//106
f 169//251 24//251 32//251
f 169//252 31//252 25//252
f 24//253 169//253 25//253
f 159//254 33//254 164//254
f 3//51 157//51 170//51
f 4//213 170//213 157//213
f 7//51 3//51 170//51
f 7//14 170//14 9//14
f 170//210 4//210 5//210
f 5//203 9//203 170//203
f 143//255 151//255 145//255
f 143//256 139//256 34//256
f 34//256 33//256 143//256
f 21//257 18//257 141//257
f 71//258 40//258 172//258
f 71//259 171//259 66//259
f 69//260 171//260 71//260
f 71//261 173//261 69//261
f 173//262 71//262 172//262
f 69//263 173//263 41//263
f 173//264 174//264 41//264
f 172//265 174//265 173//265
f 174//266 176//266 41//266
f 174//267 172//267 175//267
f 175//268 176//268 174//268
f 176//269 177//269 41//269
f 175//270 177//270 176//270
f 42//271 41//271 177//271
f 178//56 42//56 177//56
f 177//55 175//55 178//55
f 175//272 40//272 178//272
f 179//273 178//273 40//273
f 42//57 178//57 179//57
f 179//274 44//274 42//274
f 179//275 39//275 180//275
f 40//276 39//276 179//276
f 44//277 179//277 180//277
f 180//278 39//278 48//278
f 43//279 180//279 48//279
f 180//280 43//280 44//280
f 172//281 40//281 175//281
f 171//282 69//282 65//282
f 65//283 181//283 171//283
f 171//15 181//15 61//15
f 171//51 61//51 66//51
f 61//14 181//14 59//14
f 58//284 59//284 181//284
f 181//285 65//285 58//285
f 52//286 55//286 56//286
f 56//287 46//287 52//287
f 48//288 39//288 47//288
f 27//38 30//38 36//38
f 31//289 15//289 25//289
f 16//290 19//290 12//290
f 13//1 12//1 19//1
f 182//291 10//291 16//291
f 12//292 182//292 16//292
f 7//14 10//14 182//14
f 6//293 7//293 182//293
f 182//294 12//294 6//294
f 7//51 9//51 10//51
