# Blender 5.0.1
# www.blender.org
mtllib right_shoulder_y_link_visual_2.mtl
o i01.rightArm.omoplate.full.003_visual.001
v 0.035797 0.027251 -0.001922
v 0.000000 0.027251 -0.001922
v 0.035109 0.026760 -0.008886
v 0.035109 0.027743 0.005046
v 0.035797 -0.027251 0.001921
v 0.035109 -0.027742 -0.005046
v -0.000000 -0.027251 0.001921
v 0.033072 -0.028215 -0.011745
v 0.029764 -0.028650 -0.017917
v 0.033072 0.026288 -0.015587
v 0.029764 0.025853 -0.021759
v 0.025313 0.025471 -0.027170
v 0.025312 -0.029031 -0.023329
v 0.019888 -0.029344 -0.027771
v 0.013699 -0.029577 -0.031070
v 0.019888 0.025158 -0.031612
v 0.013699 0.024926 -0.034912
v 0.006984 0.024783 -0.036942
v 0.006984 -0.029720 -0.033101
v -0.000000 -0.029769 -0.033789
v -0.006984 -0.029720 -0.033101
v 0.000000 0.024734 -0.037630
v -0.006984 0.024783 -0.036942
v -0.013699 0.024926 -0.034912
v -0.019888 0.025158 -0.031612
v -0.013699 -0.029577 -0.031070
v -0.019888 -0.029344 -0.027771
v -0.025313 -0.029031 -0.023329
v -0.025313 0.025472 -0.027170
v -0.029764 0.025853 -0.021759
v -0.033072 0.026288 -0.015587
v -0.029764 -0.028650 -0.017917
v -0.033072 -0.028215 -0.011745
v -0.035110 -0.027742 -0.005046
v -0.035110 0.026760 -0.008886
v -0.035797 0.027251 -0.001922
v -0.035110 0.027743 0.005046
v -0.035797 -0.027251 0.001921
v -0.035110 -0.026760 0.008888
v -0.033072 -0.026288 0.015586
v -0.033072 0.028215 0.011744
v -0.029764 0.028650 0.017919
v -0.025313 0.029031 0.023328
v -0.029764 -0.025853 0.021761
v -0.025313 -0.025471 0.027170
v -0.019888 -0.025158 0.031611
v -0.019888 0.029344 0.027769
v -0.013699 0.029577 0.031070
v -0.006984 0.029720 0.033101
v -0.013699 -0.024926 0.034911
v -0.006984 -0.024783 0.036943
v -0.000000 -0.024734 0.037629
v -0.000000 0.029769 0.033787
v 0.006984 0.029720 0.033101
v 0.006984 -0.024783 0.036943
v 0.013699 -0.024926 0.034911
v 0.019888 -0.025158 0.031611
v 0.013699 0.029577 0.031070
v 0.019888 0.029344 0.027769
v 0.025313 0.029031 0.023328
v 0.025312 -0.025471 0.027172
v 0.029764 -0.025853 0.021761
v 0.033072 -0.026288 0.015586
v 0.029764 0.028650 0.017919
v 0.033072 0.028215 0.011744
v 0.035109 -0.026760 0.008888
vn -0.0000 0.9975 -0.0703
vn 0.9952 -0.0069 -0.0978
vn 0.9952 0.0069 0.0978
vn -0.0000 -0.9975 0.0703
vn 0.9569 -0.0204 -0.2895
vn 0.8819 -0.0332 -0.4704
vn 0.9570 -0.0204 -0.2895
vn 0.8819 -0.0332 -0.4703
vn 0.7730 -0.0446 -0.6328
vn 0.7731 -0.0446 -0.6328
vn 0.6345 -0.0543 -0.7710
vn 0.4713 -0.0620 -0.8798
vn 0.4714 -0.0620 -0.8797
vn 0.2901 -0.0673 -0.9546
vn 0.2902 -0.0673 -0.9546
vn 0.0982 -0.0700 -0.9927
vn -0.0982 -0.0700 -0.9927
vn -0.2901 -0.0673 -0.9546
vn -0.4714 -0.0620 -0.8797
vn -0.2902 -0.0673 -0.9546
vn -0.4713 -0.0620 -0.8798
vn -0.6345 -0.0543 -0.7710
vn -0.7730 -0.0446 -0.6328
vn -0.8819 -0.0332 -0.4703
vn -0.7731 -0.0446 -0.6328
vn -0.8818 -0.0332 -0.4704
vn -0.9570 -0.0204 -0.2895
vn -0.9952 -0.0069 -0.0978
vn -0.9952 0.0069 0.0978
vn -0.9569 0.0204 0.2896
vn -0.8820 0.0331 0.4701
vn -0.7729 0.0446 0.6330
vn -0.6344 0.0544 0.7711
vn -0.4715 0.0620 0.8797
vn -0.2902 0.0673 0.9546
vn -0.4714 0.0620 0.8797
vn -0.2903 0.0673 0.9546
vn -0.0980 0.0700 0.9927
vn 0.0980 0.0700 0.9927
vn 0.2903 0.0673 0.9546
vn 0.4714 0.0620 0.8797
vn 0.2902 0.0673 0.9546
vn 0.4715 0.0620 0.8797
vn 0.6344 0.0544 0.7711
vn 0.6343 0.0544 0.7712
vn 0.7730 0.0446 0.6328
vn 0.8820 0.0331 0.4701
vn 0.7729 0.0446 0.6329
vn 0.9569 0.0204 0.2896
s 0
usemtl Material.017
f 4//1 1//1 2//1
f 2//1 1//1 3//1
f 1//2 6//2 3//2
f 5//3 1//3 4//3
f 1//2 5//2 6//2
f 7//4 6//4 5//4
f 7//4 8//4 6//4
f 3//5 6//5 8//5
f 7//4 9//4 8//4
f 10//6 8//6 9//6
f 3//7 8//7 10//7
f 2//1 3//1 10//1
f 2//1 10//1 11//1
f 10//8 9//8 11//8
f 2//1 11//1 12//1
f 11//9 13//9 12//9
f 11//10 9//10 13//10
f 7//4 13//4 9//4
f 7//4 14//4 13//4
f 12//11 13//11 14//11
f 7//4 15//4 14//4
f 16//12 14//12 15//12
f 12//11 14//11 16//11
f 2//1 12//1 16//1
f 2//1 16//1 17//1
f 16//13 15//13 17//13
f 2//1 17//1 18//1
f 17//14 19//14 18//14
f 17//15 15//15 19//15
f 7//4 19//4 15//4
f 7//4 20//4 19//4
f 18//16 19//16 20//16
f 7//4 21//4 20//4
f 20//17 21//17 23//17
f 20//17 23//17 22//17
f 18//16 20//16 22//16
f 2//1 22//1 23//1
f 2//1 23//1 24//1
f 21//18 24//18 23//18
f 2//1 24//1 25//1
f 26//19 25//19 24//19
f 21//20 26//20 24//20
f 7//4 26//4 21//4
f 7//4 27//4 26//4
f 26//21 27//21 25//21
f 7//4 28//4 27//4
f 27//22 28//22 29//22
f 27//22 29//22 25//22
f 2//1 25//1 29//1
f 2//1 29//1 30//1
f 28//23 30//23 29//23
f 2//1 30//1 31//1
f 32//24 31//24 30//24
f 28//25 32//25 30//25
f 7//4 32//4 28//4
f 7//4 33//4 32//4
f 32//26 33//26 31//26
f 7//4 34//4 33//4
f 33//27 34//27 35//27
f 33//27 35//27 31//27
f 2//1 31//1 35//1
f 2//1 35//1 36//1
f 34//28 36//28 35//28
f 2//1 36//1 37//1
f 38//29 37//29 36//29
f 34//28 38//28 36//28
f 7//4 38//4 34//4
f 7//4 39//4 38//4
f 38//29 39//29 37//29
f 7//4 40//4 39//4
f 39//30 40//30 41//30
f 39//30 41//30 37//30
f 2//1 37//1 41//1
f 2//1 41//1 42//1
f 40//31 42//31 41//31
f 2//1 42//1 43//1
f 44//32 43//32 42//32
f 40//31 44//31 42//31
f 7//4 44//4 40//4
f 7//4 45//4 44//4
f 44//32 45//32 43//32
f 7//4 46//4 45//4
f 45//33 46//33 47//33
f 45//33 47//33 43//33
f 2//1 43//1 47//1
f 2//1 47//1 48//1
f 46//34 48//34 47//34
f 2//1 48//1 49//1
f 50//35 49//35 48//35
f 46//36 50//36 48//36
f 7//4 50//4 46//4
f 7//4 51//4 50//4
f 50//37 51//37 49//37
f 7//4 52//4 51//4
f 51//38 52//38 53//38
f 51//38 53//38 49//38
f 2//1 49//1 53//1
f 2//1 53//1 54//1
f 53//39 55//39 54//39
f 53//39 52//39 55//39
f 7//4 55//4 52//4
f 7//4 56//4 55//4
f 54//40 55//40 56//40
f 7//4 57//4 56//4
f 58//41 56//41 57//41
f 54//42 56//42 58//42
f 2//1 54//1 58//1
f 2//1 58//1 59//1
f 58//43 57//43 59//43
f 2//1 59//1 60//1
f 59//44 61//44 60//44
f 59//45 57//45 61//45
f 7//4 61//4 57//4
f 7//4 62//4 61//4
f 60//46 61//46 62//46
f 7//4 63//4 62//4
f 64//47 62//47 63//47
f 60//48 62//48 64//48
f 2//1 60//1 64//1
f 2//1 64//1 65//1
f 64//47 63//47 65//47
f 2//1 65//1 4//1
f 65//49 66//49 4//49
f 65//49 63//49 66//49
f 7//4 66//4 63//4
f 7//4 5//4 66//4
f 5//3 4//3 66//3
f 2//1 18//1 22//1
