# Blender 5.0.1
# www.blender.org
mtllib right_elbow_x_link_visual_6.mtl
o i01.right.bicep.full.007_visual.001
v 0.092832 -0.184945 0.083887
v 0.127209 -0.178210 0.030476
v 0.110922 -0.139820 0.155470
v 0.109241 -0.217516 -0.027267
v 0.070270 -0.198933 0.088392
v 0.083070 -0.158279 0.163626
v 0.088884 -0.254591 -0.078823
v 0.061266 -0.270108 -0.071966
v 0.124075 -0.230459 -0.089485
v 0.028000 -0.141862 -0.128633
v 0.019151 -0.146096 -0.126762
v 0.009891 -0.149515 -0.125251
v 0.028000 -0.133311 -0.109280
v 0.019151 -0.137545 -0.107409
v 0.009891 -0.140964 -0.105899
v 0.065482 -0.222328 -0.069947
v 0.108754 -0.191572 -0.083537
v 0.000309 -0.143537 -0.104761
v 0.074465 -0.168142 0.099491
v 0.018973 -0.246878 -0.059100
v -0.009503 -0.145239 -0.104010
v -0.019450 -0.146053 -0.103650
v -0.025285 -0.211643 0.118711
v 0.025413 -0.193715 0.110790
v -0.029436 -0.145971 -0.103686
v -0.028980 -0.264276 -0.051413
v -0.039365 -0.144994 -0.104117
v -0.076538 -0.273854 -0.047181
v -0.049142 -0.143132 -0.104940
v -0.058672 -0.140402 -0.106147
v -0.058672 -0.148953 -0.125500
v -0.049142 -0.151683 -0.124293
v -0.081203 -0.309323 -0.054639
v -0.039365 -0.153545 -0.123470
v -0.044057 -0.305297 -0.056417
v -0.014852 -0.299020 -0.059192
v -0.060399 -0.271453 0.038752
v -0.040700 -0.239935 0.109082
v -0.017819 -0.234077 0.107288
v -0.080993 -0.215385 0.188857
v -0.056123 -0.211954 0.187342
v -0.025125 -0.205035 0.184285
v -0.025189 -0.183448 0.174706
v 0.005145 -0.195502 0.180073
v 0.007474 -0.244142 0.058104
v 0.029053 -0.186317 0.176012
v 0.024832 -0.165761 0.166890
v 0.073229 -0.140529 0.155742
v 0.053620 -0.174729 0.170894
v 0.049129 -0.228522 0.047691
v 0.031614 -0.246709 0.026278
v 0.024732 -0.286455 -0.064743
v 0.000309 -0.152088 -0.124115
v -0.019450 -0.154604 -0.123003
v -0.009503 -0.153790 -0.123362
v -0.029436 -0.154522 -0.123038
v 0.118138 -0.108727 0.141689
v 0.063119 -0.134411 0.126476
v 0.118661 -0.070097 0.230541
v 0.074099 -0.123447 0.198794
v 0.066446 -0.109155 0.192480
v 0.107286 -0.058515 0.225423
v 0.107984 -0.064442 0.209770
v 0.142122 -0.023993 0.210169
v 0.158817 -0.032674 0.214005
v 0.192295 0.008575 0.195779
v 0.151374 -0.053606 0.183496
v 0.160100 -0.044349 0.178061
v 0.156435 -0.047157 0.182728
v 0.136770 -0.041560 0.179336
v 0.140908 -0.036667 0.177926
v 0.144977 -0.033972 0.171794
v 0.155744 -0.019141 0.174709
v 0.139340 -0.030847 0.195845
v 0.142770 -0.009688 0.170532
v 0.122936 -0.054355 0.190269
v 0.126366 -0.021393 0.191668
v 0.126366 -0.014978 0.206186
v 0.152006 0.003548 0.173672
v 0.109961 -0.044901 0.186091
v 0.100726 -0.051491 0.197991
v 0.122936 -0.066157 0.163556
v 0.109961 -0.056703 0.159380
v 0.100726 -0.069939 0.156240
v 0.139340 -0.054452 0.142422
v 0.126366 -0.044998 0.138245
v 0.142770 -0.021490 0.143821
v 0.155744 -0.030944 0.147998
v 0.126366 -0.051643 0.123205
v 0.139601 -0.068334 0.107764
v 0.152006 -0.014900 0.131922
v 0.172014 -0.019281 0.127801
v 0.192718 0.004847 0.064944
v 0.169964 -0.034512 0.082335
v 0.172102 0.003555 0.179726
v 0.174827 0.013601 0.193558
v 0.198366 0.032895 0.129713
v 0.213166 0.073718 0.111676
v 0.234107 0.075988 0.110673
v 0.217967 0.031468 0.130344
v 0.190786 -0.030500 0.107125
v 0.215739 0.012924 0.087937
v 0.231727 0.057024 0.068453
v 0.240578 0.119478 0.091457
v 0.238137 0.100103 0.049417
v 0.258114 0.066218 0.064369
v 0.248077 0.032444 0.079354
v 0.239648 0.011302 0.088693
v 0.250177 0.014194 0.008583
v 0.254790 0.027241 -0.009803
v 0.248095 -0.046844 -0.170616
v 0.242661 -0.044943 -0.093824
v 0.235826 -0.054758 -0.059485
v 0.228750 -0.059246 -0.026092
v 0.220278 -0.119898 -0.138336
v 0.235883 -0.086951 -0.152894
v 0.077260 -0.048766 -0.169767
v 0.078149 -0.057864 -0.165748
v 0.078060 -0.066998 -0.161711
v 0.076992 -0.076080 -0.157699
v 0.078149 -0.049313 -0.146395
v 0.078060 -0.058447 -0.142359
v 0.203529 -0.074781 -0.135141
v 0.076992 -0.067529 -0.138346
v 0.179128 -0.116355 -0.116773
v 0.074956 -0.076472 -0.134395
v 0.074956 -0.085023 -0.153748
v 0.204881 -0.144980 -0.127254
v 0.071972 -0.093740 -0.149896
v 0.068067 -0.102148 -0.146180
v 0.189215 -0.166295 -0.117834
v 0.071972 -0.085189 -0.130543
v 0.147129 -0.155788 -0.099348
v 0.068067 -0.093597 -0.126827
v 0.063281 -0.101614 -0.123285
v 0.063281 -0.110165 -0.142639
v 0.165932 -0.192817 -0.106116
v 0.057659 -0.117714 -0.139302
v 0.051254 -0.124723 -0.136206
v 0.148480 -0.209810 -0.098609
v 0.057659 -0.109163 -0.119949
v 0.051254 -0.116172 -0.116853
v 0.044129 -0.122573 -0.114024
v 0.044129 -0.131124 -0.133377
v 0.036353 -0.136855 -0.130845
v 0.036353 -0.128304 -0.111492
v 0.144292 -0.173535 0.000779
v 0.162965 -0.096684 0.136409
v 0.135322 -0.121434 0.147346
v 0.164506 -0.130971 0.049313
v 0.178888 -0.130515 0.006968
v 0.188148 -0.069379 0.124343
v 0.204590 -0.077686 0.044238
v 0.207324 -0.044516 0.113359
v 0.219042 -0.059478 0.025579
v 0.228474 -0.010684 0.098410
v 0.157833 -0.071574 0.125274
v 0.157921 -0.053746 0.163353
v 0.149515 -0.061385 0.171238
v 0.153776 -0.058636 0.164762
v 0.161137 -0.048466 0.165526
v 0.146079 -0.035843 0.164253
v 0.162013 -0.044415 0.172193
v 0.143345 -0.041731 0.159200
v 0.138262 -0.048155 0.159965
v 0.133808 -0.051352 0.166098
v 0.132623 -0.050123 0.172436
v 0.133703 -0.046526 0.177341
v 0.148705 -0.059226 0.178734
v 0.193613 -0.056623 0.050216
v 0.160214 -0.098254 0.068609
v 0.119982 -0.135910 0.085249
v 0.139976 -0.071771 0.098799
v 0.103897 -0.105504 0.113703
v 0.108521 -0.087919 0.158129
v 0.218904 -0.012612 0.030769
v 0.207357 0.044789 0.047297
v 0.235109 0.032085 0.011020
v 0.241606 0.075748 -0.008273
v 0.226102 0.008363 -0.171880
v 0.219390 -0.032668 -0.153749
v 0.077260 -0.040215 -0.150414
v 0.135958 0.038926 -0.185384
v 0.228402 0.050807 -0.190632
v 0.126531 0.027008 -0.203249
v 0.137269 0.031408 -0.205192
v 0.145776 0.039556 -0.208793
v 0.220167 0.088115 -0.207118
v 0.148172 0.051664 -0.191011
v 0.117278 0.034470 -0.183414
v 0.075399 -0.031240 -0.154380
v 0.072586 -0.022476 -0.158253
v 0.075399 -0.039791 -0.173733
v 0.072586 -0.031026 -0.177606
v 0.114792 0.026425 -0.202990
v 0.068847 -0.022556 -0.181349
v 0.068847 -0.014005 -0.161996
v 0.064219 -0.005911 -0.165572
v 0.102166 0.039233 -0.185518
v 0.058746 0.001729 -0.168948
v 0.064219 -0.014462 -0.184924
v 0.058746 -0.006822 -0.188301
v 0.100628 0.031355 -0.205170
v 0.089404 0.044736 -0.211082
v 0.093252 0.047018 -0.188958
v 0.052480 0.000291 -0.191443
v 0.045482 0.006808 -0.194323
v 0.045482 0.015359 -0.174970
v 0.052480 0.008842 -0.172091
v 0.037819 0.021217 -0.177559
v 0.088279 0.057337 -0.193518
v 0.029566 0.026360 -0.179831
v 0.087926 0.058956 -0.217364
v 0.088006 0.068620 -0.198503
v 0.092476 0.079149 -0.203155
v 0.020801 0.030738 -0.181766
v 0.011609 0.034309 -0.183343
v -0.008403 0.142748 -0.231258
v 0.091977 0.069592 -0.222064
v 0.039155 0.152326 -0.235490
v 0.040670 0.231677 -0.077170
v 0.084492 0.153713 -0.236102
v 0.121028 0.237380 -0.118874
v 0.130855 0.150922 -0.234868
v 0.114790 0.092453 -0.209034
v 0.101007 0.087320 -0.206766
v 0.170439 0.139155 -0.229670
v 0.167536 0.205726 -0.104887
v 0.125966 0.268914 -0.072412
v 0.210076 0.162013 -0.085572
v 0.199326 0.116912 -0.219841
v 0.147633 0.076292 -0.201893
v 0.140204 0.085289 -0.205869
v 0.129565 0.090996 -0.208390
v 0.138966 0.077784 -0.225684
v 0.124631 0.083431 -0.228179
v 0.148033 0.066681 -0.220778
v 0.177495 0.139689 -0.253033
v 0.163950 0.147272 -0.256387
v 0.210729 0.111831 -0.240727
v 0.195419 0.126156 -0.247056
v 0.239537 0.243191 -0.061046
v 0.223297 0.259592 -0.068295
v 0.214152 0.269103 -0.072495
v 0.207073 0.276377 -0.075708
v 0.153723 0.152068 -0.258507
v 0.199993 0.283652 -0.078923
v 0.143290 0.156600 -0.260509
v 0.192914 0.290927 -0.082137
v 0.185883 0.297930 -0.085232
v 0.132493 0.160577 -0.262266
v 0.121150 0.163725 -0.263658
v 0.111775 0.083097 -0.228031
v 0.096064 0.169662 -0.266281
v 0.109443 0.166319 -0.264804
v 0.100168 0.078008 -0.225782
v 0.179000 0.303973 -0.087905
v 0.165362 0.309323 -0.090266
v 0.148437 0.308904 -0.090081
v 0.105079 0.288522 -0.081075
v 0.045203 0.278291 -0.029315
v 0.030919 0.245590 -0.097128
v -0.009842 0.244483 -0.014378
v 0.032243 0.277099 -0.028752
v 0.090140 0.252021 -0.017708
v 0.039885 0.253950 -0.018560
v 0.050744 0.229108 -0.137863
v 0.038519 0.171009 -0.266880
v 0.066252 0.189820 -0.226014
v -0.004483 0.165053 -0.264242
v 0.018172 0.199833 -0.194145
v 0.001497 0.243294 -0.086349
v -0.014232 0.250728 -0.059658
v -0.014428 0.266859 -0.024222
v -0.059180 0.251489 -0.017430
v -0.041775 0.228974 -0.086008
v -0.045904 0.153932 -0.259329
v -0.063016 0.222194 -0.079998
v -0.081081 0.212447 -0.079762
v -0.078261 0.141468 -0.253822
v -0.111023 0.202904 -0.058796
v -0.047371 0.028893 -0.204082
v -0.114743 0.123341 -0.245813
v -0.037560 0.030595 -0.204833
v -0.027613 0.031409 -0.205193
v -0.047371 0.037444 -0.184729
v -0.037560 0.039146 -0.185480
v -0.056356 0.125351 -0.223570
v -0.027613 0.039960 -0.185840
v -0.017627 0.039878 -0.185804
v -0.017627 0.031327 -0.205157
v -0.007698 0.030350 -0.204724
v 0.002079 0.028488 -0.203902
v -0.007698 0.038901 -0.185372
v 0.002079 0.037039 -0.184549
v 0.011609 0.025758 -0.202696
v 0.020801 0.022187 -0.201118
v 0.029566 0.017809 -0.199183
v 0.037819 0.012666 -0.196912
v -0.102865 0.100800 -0.212723
v -0.060429 0.204155 -0.065010
v -0.009731 0.222082 -0.072930
v -0.056018 0.197459 -0.020163
v -0.109482 0.178581 -0.053711
v -0.097505 0.174772 -0.010480
v -0.146137 0.070044 -0.199133
v -0.166713 0.134349 -0.034166
v -0.176787 0.111844 0.017667
v -0.153457 0.133008 0.008316
v -0.195231 0.108693 -0.022830
v -0.209834 0.070629 0.035878
v -0.232036 0.062642 -0.002482
v -0.184512 0.034261 -0.183322
v -0.119034 -0.020904 -0.158947
v -0.216511 -0.005173 -0.165898
v -0.104721 0.003070 -0.169540
v -0.115130 -0.012496 -0.162663
v -0.110343 -0.004479 -0.166205
v -0.104721 -0.005481 -0.188893
v -0.110343 -0.013030 -0.185557
v -0.201939 0.055888 -0.216009
v -0.115130 -0.021047 -0.182015
v -0.119034 -0.029455 -0.178300
v -0.228682 0.025190 -0.202442
v -0.122019 -0.038172 -0.174449
v -0.220799 0.083548 -0.088663
v -0.238459 0.085087 -0.020802
v -0.247827 -0.001857 -0.190494
v -0.260473 0.050749 -0.007080
v -0.249442 0.070477 -0.012398
v -0.124054 -0.047114 -0.170497
v -0.259545 -0.022184 -0.181512
v -0.273459 0.039327 0.033562
v -0.125212 -0.065331 -0.162448
v -0.125123 -0.056197 -0.166484
v -0.273800 -0.053059 -0.167870
v -0.124322 -0.074429 -0.158428
v -0.284055 -0.086439 -0.153122
v -0.278124 -0.025529 -0.076929
v -0.285952 -0.006163 0.021739
v -0.291570 -0.024229 0.033148
v -0.291603 0.009136 0.089652
v -0.277564 0.048169 0.072405
v -0.257793 0.038268 0.076738
v -0.265751 0.071338 0.062167
v -0.229178 0.087172 0.055131
v -0.248525 0.099975 0.049515
v -0.226926 0.128089 0.037092
v -0.192864 0.132608 0.035055
v -0.212756 0.144686 0.029755
v -0.205964 0.120570 -0.046289
v -0.198007 0.159547 0.023192
v -0.170174 0.185087 0.011908
v -0.167192 0.155916 0.024756
v -0.108260 0.201563 0.004587
v -0.165478 0.204763 0.109093
v -0.115570 0.218686 0.051384
v -0.113059 0.218014 0.045782
v -0.134728 0.210937 0.000488
v -0.165075 0.178026 -0.014343
v -0.102080 0.230593 -0.008194
v -0.128017 0.180265 -0.083979
v -0.143595 0.104996 -0.237706
v -0.169627 0.085722 -0.229191
v -0.075063 0.018667 -0.199563
v -0.083416 0.013660 -0.197351
v -0.066214 0.022900 -0.201433
v -0.056953 0.026320 -0.202945
v -0.075063 0.027218 -0.180210
v -0.066214 0.031451 -0.182080
v -0.056953 0.034871 -0.183592
v -0.083416 0.022211 -0.177998
v -0.091192 0.016480 -0.175466
v -0.098317 0.010079 -0.172637
v -0.091192 0.007928 -0.194818
v -0.098317 0.001528 -0.191990
v -0.179748 0.149180 -0.047876
v -0.059863 0.226795 -0.006562
v -0.101486 0.224332 0.041633
v -0.009764 0.265233 0.027055
v -0.097943 0.229062 0.046808
v -0.063111 0.270755 0.079933
v -0.059646 0.254293 0.087208
v -0.110077 0.243338 0.092049
v -0.100777 0.230127 0.097885
v -0.010453 0.247247 0.035003
v -0.099073 0.231528 0.054175
v -0.091682 0.217908 0.055882
v -0.095328 0.218614 0.063228
v -0.103367 0.230694 0.059040
v -0.100606 0.216236 0.066308
v -0.108850 0.227739 0.061097
v -0.105883 0.212358 0.065992
v -0.114427 0.222465 0.058195
v -0.109530 0.207402 0.060525
v -0.121442 0.204751 0.075782
v -0.108073 0.205168 0.053136
v -0.121442 0.192948 0.049070
v -0.100606 0.200158 0.029922
v -0.110884 0.190877 0.081912
v -0.110884 0.179074 0.055201
v -0.102695 0.206518 0.047604
v -0.097202 0.210016 0.046809
v -0.108209 0.219607 0.041654
v -0.079770 0.219171 0.037483
v -0.093139 0.213949 0.049256
v -0.069212 0.205297 0.043613
v -0.090048 0.186284 0.036051
v -0.079770 0.230974 0.064196
v -0.069212 0.217100 0.070325
v -0.100606 0.223764 0.083344
v -0.090048 0.209890 0.089475
v -0.090048 0.216305 0.103992
v -0.056738 0.228484 0.074854
v -0.057940 0.222311 0.021708
v -0.056738 0.209615 0.032148
v -0.059684 0.246544 0.071705
v -0.010663 0.213615 -0.027301
v 0.034395 0.222334 -0.031154
v 0.035579 0.256010 0.031130
v 0.040437 0.274790 0.022832
v 0.072321 0.256219 0.031037
v 0.072321 0.227693 -0.033521
v 0.091864 0.272131 0.024007
v -0.090048 0.180594 0.023173
v -0.123358 0.167691 0.050673
v -0.138856 0.196619 0.093764
v -0.137182 0.172458 0.043736
v -0.123358 0.186560 0.093378
v -0.154499 0.192287 0.114606
v -0.257720 0.057288 0.118937
v -0.237845 0.019844 0.058319
v -0.266758 0.004010 0.091876
v -0.273169 -0.039069 0.110910
v -0.275599 -0.021021 0.153538
v -0.298136 -0.026319 0.105311
v -0.269128 0.022469 0.134321
v -0.241670 0.049954 0.122176
v -0.254211 -0.015234 0.150980
v -0.248277 0.024644 0.133360
v -0.250132 -0.043706 0.086397
v -0.244168 -0.004717 0.069170
v -0.254458 0.020889 0.015966
v -0.270125 -0.021646 0.034760
v -0.276622 -0.065308 0.054053
v -0.260786 -0.168267 -0.093835
v -0.273159 -0.106263 0.072149
v -0.263485 -0.129890 -0.110791
v -0.256773 -0.088859 -0.128921
v -0.111282 -0.100182 -0.123919
v -0.115910 -0.092088 -0.127495
v -0.119649 -0.083618 -0.131238
v -0.119649 -0.092169 -0.150591
v -0.115910 -0.100639 -0.146848
v -0.289301 -0.118327 -0.139028
v -0.111282 -0.108733 -0.143271
v -0.289907 -0.141402 -0.128836
v -0.288675 -0.159064 -0.121028
v -0.299744 -0.046427 0.114197
v -0.295950 -0.089994 0.059271
v -0.298808 -0.067825 0.123656
v -0.269751 -0.079476 0.128765
v -0.295254 -0.090265 0.133564
v -0.285619 -0.156512 -0.013004
v -0.288585 -0.110686 0.142591
v -0.285037 -0.179175 -0.112144
v -0.278020 -0.201038 -0.102485
v -0.105808 -0.116373 -0.139895
v -0.266746 -0.223976 -0.092349
v -0.099542 -0.123486 -0.136752
v -0.099542 -0.114935 -0.117399
v -0.105808 -0.107822 -0.120542
v -0.248789 -0.202509 -0.078704
v -0.227943 -0.231305 -0.065981
v -0.259875 -0.142929 0.088349
v -0.237272 -0.173904 0.102036
v -0.235456 -0.112933 0.116986
v -0.242451 -0.089533 0.166230
v -0.215379 -0.140510 0.129170
v -0.247188 -0.080248 0.102544
v -0.210773 -0.132834 0.150820
v -0.196849 -0.116105 0.158010
v -0.173194 -0.134284 0.189770
v -0.187736 -0.161918 0.138630
v -0.181343 -0.149645 0.192791
v -0.176064 -0.119079 0.230503
v -0.182705 -0.130428 0.239284
v -0.153582 -0.176333 0.145000
v -0.159105 -0.134235 0.258880
v -0.171502 -0.152343 0.266881
v -0.123434 -0.177219 0.222553
v -0.194085 -0.119363 0.252309
v -0.114683 -0.158462 0.214266
v -0.209650 -0.136125 0.259715
v -0.227551 -0.136321 0.214508
v -0.219292 -0.100050 0.243774
v -0.240571 -0.112128 0.249112
v -0.203715 -0.169985 0.168756
v -0.229983 -0.132156 0.218947
v -0.214976 -0.114326 0.215323
v -0.233995 -0.127124 0.220139
v -0.211351 -0.119254 0.213013
v -0.199328 -0.125673 0.225592
v -0.210001 -0.122899 0.206211
v -0.198370 -0.136650 0.198639
v -0.228231 -0.137849 0.206851
v -0.211634 -0.122742 0.200247
v -0.232190 -0.135130 0.200727
v -0.215289 -0.119970 0.195607
v -0.236554 -0.130387 0.199370
v -0.220636 -0.113787 0.194930
v -0.216172 -0.126052 0.178056
v -0.197796 -0.111091 0.171445
v -0.215573 -0.088717 0.177460
v -0.232327 -0.102358 0.183488
v -0.223893 -0.108622 0.199901
v -0.233243 -0.091347 0.210424
v -0.217497 -0.078526 0.204759
v -0.201643 -0.090710 0.226045
v -0.226244 -0.067516 0.207720
v -0.202590 -0.086451 0.237767
v -0.243536 -0.072870 0.213850
v -0.223374 -0.082721 0.166986
v -0.255214 -0.035580 0.215289
v -0.243082 -0.069069 0.230086
v -0.263084 -0.081276 0.235479
v -0.241615 -0.121870 0.208121
v -0.276315 -0.044754 0.219342
v -0.239094 -0.122317 0.215999
v -0.256645 -0.115653 0.144750
v -0.240005 -0.125748 0.201502
v -0.234344 -0.146214 0.158254
v -0.280562 -0.129148 0.150753
v -0.270688 -0.144537 0.157554
v -0.269715 -0.169908 0.077840
v -0.257627 -0.160969 0.164810
v -0.253855 -0.212351 0.015854
v -0.240429 -0.176464 0.171658
v -0.240264 -0.228281 0.013578
v -0.228008 -0.267618 -0.073065
v -0.250688 -0.246240 -0.082512
v -0.092544 -0.130003 -0.133873
v -0.207881 -0.281250 -0.067043
v -0.084882 -0.135861 -0.131284
v -0.084882 -0.127310 -0.111932
v -0.092544 -0.121452 -0.114520
v -0.199060 -0.253548 -0.056152
v -0.206229 -0.197997 0.112681
v -0.163244 -0.268383 -0.049598
v -0.121875 -0.275241 -0.046568
v -0.076628 -0.132453 -0.109659
v -0.123853 -0.222128 0.123344
v -0.167929 -0.214279 0.119876
v -0.114237 -0.183203 0.148034
v -0.075686 -0.221238 0.122951
v -0.071206 -0.182261 0.147618
v -0.024659 -0.148885 0.210034
v -0.070691 -0.157649 0.213906
v -0.026148 -0.173542 0.143766
v -0.025257 -0.166776 0.217939
v -0.075458 -0.176333 0.222162
v -0.074917 -0.192916 0.178888
v -0.122439 -0.193794 0.179276
v -0.158188 -0.212460 0.187562
v -0.132288 -0.215822 0.189052
v -0.104023 -0.216525 0.189362
v -0.165927 -0.186050 0.175855
v -0.182666 -0.206487 0.184926
v -0.200427 -0.199772 0.181958
v -0.207631 -0.225989 0.096169
v -0.221123 -0.189766 0.177540
v -0.188597 -0.290959 -0.062747
v -0.176500 -0.262893 0.033806
v -0.159686 -0.301253 -0.058205
v -0.161330 -0.267361 0.035572
v -0.134741 -0.251372 0.094753
v -0.125617 -0.307875 -0.055279
v -0.116091 -0.243652 0.118877
v -0.076628 -0.141004 -0.129011
v -0.098242 -0.282189 0.017172
v -0.067864 -0.145382 -0.127077
v -0.067864 -0.136831 -0.107724
v -0.080554 -0.266241 0.058137
v -0.221258 -0.220131 0.088167
v -0.277665 -0.170916 0.017493
v -0.219377 -0.109649 0.214000
v -0.223469 -0.106800 0.207507
v -0.218689 -0.104589 0.232177
v -0.183866 -0.113084 0.220030
v -0.181942 -0.123275 0.192729
v -0.287782 -0.106481 -0.144265
v -0.122462 -0.083404 -0.154463
v -0.122462 -0.074853 -0.135110
v -0.124322 -0.065878 -0.139075
v -0.240913 -0.046747 -0.147529
v -0.125123 -0.047646 -0.147132
v -0.125212 -0.056780 -0.143095
v -0.124054 -0.038563 -0.151144
v -0.122019 -0.029621 -0.155096
v 0.262807 0.219046 -0.050378
v 0.255376 0.135937 -0.013655
v 0.246358 0.108594 -0.061969
v 0.298925 0.176340 -0.031506
v 0.213321 0.083779 0.030067
v 0.220651 0.117635 0.015109
v 0.299744 0.164478 -0.026265
v 0.293265 0.187366 -0.036381
v 0.272777 0.208861 -0.045877
v 0.296244 0.154532 -0.021872
v 0.271215 0.117805 -0.005643
v 0.283344 0.197895 -0.041035
v 0.235592 0.139619 0.031957
v 0.264464 0.105660 0.047028
v 0.289843 0.144990 -0.017654
v 0.254368 -0.001758 -0.190537
v 0.253057 0.009245 -0.195399
v 0.251746 0.020249 -0.200262
v 0.249247 0.038605 -0.208371
v 0.245078 0.052121 -0.214344
v 0.150844 0.052638 -0.214574
v 0.150726 0.065376 -0.197070
v 0.241355 0.062120 -0.218762
v 0.237319 0.071962 -0.223111
v 0.224769 0.093893 -0.232800
v 0.232677 0.081441 -0.227299
v 0.260151 0.051186 -0.078098
v 0.259573 0.058608 -0.001931
v 0.237508 0.159885 0.073604
v 0.220651 0.146161 0.079668
v 0.219100 0.113596 0.094057
vn 0.6149 -0.7277 0.3040
vn 0.6145 -0.7281 0.3037
vn 0.5867 -0.7436 0.3205
vn 0.5880 -0.7486 0.3062
vn 0.5444 -0.7732 0.3252
vn 0.5446 -0.7757 0.3188
vn 0.5232 -0.7894 0.3210
vn -0.0000 -0.4042 -0.9147
vn -0.0000 -0.4041 -0.9147
vn 0.5996 -0.7429 0.2975
vn -0.3744 0.8482 -0.3748
vn -0.4635 0.8105 -0.3581
vn -0.0001 0.4041 0.9147
vn -0.0000 0.4041 0.9147
vn -0.0000 0.4042 0.9147
vn -0.6095 0.7639 -0.2120
vn 0.0001 0.4042 0.9147
vn -0.4964 0.8341 -0.2404
vn -0.3662 0.8912 -0.2678
vn -0.3581 0.8949 -0.2665
vn -0.4919 0.8361 -0.2430
vn -0.2135 0.9346 -0.2845
vn 0.2988 0.8729 -0.3857
vn 0.2039 0.8955 -0.3957
vn 0.2989 0.8729 -0.3857
vn 0.2285 -0.9071 0.3536
vn 0.1175 -0.9291 0.3506
vn 0.1873 -0.9149 0.3575
vn 0.2577 -0.8957 0.3623
vn 0.2579 -0.8986 0.3551
vn 0.1639 -0.9165 0.3648
vn 0.1490 -0.9214 0.3588
vn 0.2370 -0.8991 0.3682
vn -0.0005 0.4056 0.9140
vn -0.0004 0.4056 0.9140
vn 0.3255 -0.8741 0.3606
vn 0.3415 -0.8708 0.3538
vn 0.3871 -0.8539 0.3479
vn -0.0005 0.4055 0.9141
vn -0.0006 0.4055 0.9141
vn -0.0008 0.4055 0.9141
vn -0.4947 0.7758 -0.3917
vn -0.3602 0.8335 -0.4190
vn -0.0009 0.4055 0.9141
vn 0.5211 -0.7848 0.3354
vn 0.4855 -0.8076 0.3349
vn 0.4582 -0.8206 0.3416
vn 0.4517 -0.8276 0.3334
vn 0.4427 -0.8289 0.3419
vn 0.4923 -0.8055 0.3299
vn 0.3679 -0.8620 0.3486
vn 0.3735 -0.8581 0.3525
vn 0.4392 -0.8350 0.3314
vn -0.0001 -0.4042 -0.9147
vn 0.0001 -0.4041 -0.9147
vn 0.3276 -0.8782 0.3485
vn -0.1864 0.8987 -0.3971
vn -0.0890 0.9110 -0.4026
vn -0.1863 0.8987 -0.3971
vn 0.0089 0.9147 -0.4041
vn -0.0891 0.9111 -0.4025
vn 0.1069 0.9094 -0.4019
vn 0.0090 0.9146 -0.4042
vn -0.2816 0.8777 -0.3878
vn -0.2817 0.8777 -0.3878
vn -0.0010 0.4054 0.9141
vn 0.6122 -0.7265 0.3122
vn -0.8630 -0.4633 0.2013
vn -0.8667 -0.4550 0.2043
vn 0.6555 -0.7064 0.2670
vn -0.8979 -0.3942 0.1961
vn -0.6313 0.0046 0.7755
vn -0.4930 -0.1024 0.8640
vn -0.6396 0.7090 -0.2970
vn -0.7348 0.6228 -0.2686
vn 0.8025 -0.5585 0.2101
vn 0.7136 -0.6466 0.2695
vn 0.7809 -0.5874 0.2125
vn 0.7572 -0.6128 0.2261
vn 0.0687 -0.3294 -0.9417
vn 0.1102 -0.2025 -0.9731
vn -0.2796 -0.7098 -0.6466
vn -0.3079 -0.7788 -0.5465
vn -0.7620 0.6008 -0.2417
vn -0.7732 0.5801 -0.2561
vn -0.7600 0.5957 -0.2600
vn -0.7595 0.5933 -0.2667
vn -0.3117 -0.7078 -0.6339
vn 0.3116 0.0079 -0.9502
vn -0.7611 0.5933 -0.2621
vn -0.7611 0.5933 -0.2622
vn 0.3117 0.0079 -0.9501
vn 0.6231 0.7154 -0.3161
vn 0.3117 0.7078 0.6339
vn -0.3117 -0.0079 0.9502
vn -0.7789 -0.0386 -0.6259
vn -0.3736 0.4527 -0.8096
vn -0.0915 0.4278 -0.8992
vn 0.1162 0.9085 -0.4014
vn 0.1201 0.9087 -0.3998
vn -0.8811 0.4590 -0.1140
vn -0.9158 0.3681 -0.1604
vn -0.7917 0.5892 -0.1617
vn 0.1754 0.6379 0.7499
vn -0.7825 0.5669 -0.2576
vn -0.8801 0.4494 -0.1530
vn -0.1253 0.9013 0.4147
vn -0.8400 0.5208 -0.1523
vn 0.2166 0.9095 0.3547
vn -0.9463 0.3186 -0.0554
vn 0.0568 0.9352 0.3495
vn 0.8843 -0.4431 0.1473
vn 0.8728 -0.4519 0.1843
vn 0.9481 -0.3065 0.0842
vn 0.9896 -0.1434 0.0086
vn -0.0015 0.4046 0.9145
vn 0.0008 0.4041 0.9147
vn 0.0002 0.4055 0.9141
vn -0.0014 0.4045 0.9145
vn 0.9391 -0.3251 0.1117
vn 0.9649 -0.2459 0.0920
vn 0.9695 -0.2321 0.0785
vn 0.9677 -0.2419 0.0711
vn 0.9649 -0.2517 0.0745
vn 0.9446 -0.3082 0.1130
vn 0.9485 -0.2994 0.1033
vn 0.9158 -0.3751 0.1436
vn 0.9109 -0.3879 0.1409
vn 0.9171 -0.3768 0.1304
vn 0.9487 -0.2986 0.1035
vn 0.9627 -0.2602 0.0746
vn -0.9943 0.0978 -0.0432
vn -1.0000 0.0082 -0.0036
vn -0.9790 0.1865 -0.0824
vn -0.9543 0.2734 -0.1208
vn -0.9204 0.3576 -0.1580
vn -0.9543 0.2733 -0.1208
vn -0.8777 0.4384 -0.1937
vn -0.0001 -0.4042 -0.9146
vn -0.8265 0.5150 -0.2275
vn -0.7673 0.5866 -0.2592
vn -0.7008 0.6525 -0.2883
vn -0.7007 0.6526 -0.2883
vn -0.6274 0.7123 -0.3147
vn -0.5481 0.7651 -0.3380
vn -0.6274 0.7122 -0.3147
vn 0.6789 -0.6801 0.2768
vn 0.7288 -0.6328 0.2617
vn 0.6995 -0.6588 0.2770
vn 0.7171 -0.6441 0.2663
vn 0.6740 -0.6836 0.2801
vn 0.6775 -0.6790 0.2828
vn 0.7215 -0.6411 0.2617
vn 0.7574 -0.6029 0.2507
vn 0.7530 -0.6089 0.2492
vn 0.7795 -0.5821 0.2314
vn 0.7643 -0.5947 0.2494
vn 0.8058 -0.5489 0.2223
vn 0.8047 -0.5497 0.2242
vn 0.8297 -0.5192 0.2051
vn 0.8559 -0.4786 0.1958
vn 0.8171 -0.5317 0.2228
vn 0.8547 -0.4828 0.1909
vn 0.8880 -0.4292 0.1649
vn 0.8923 -0.4199 0.1658
vn 0.8717 -0.4577 0.1753
vn 0.8681 -0.4571 0.1938
vn -0.0014 0.4049 0.9144
vn -0.0015 0.4050 0.9143
vn 0.9067 -0.3923 0.1550
vn -0.0014 0.4050 0.9143
vn -0.0012 0.4050 0.9143
vn -0.0013 0.4052 0.9142
vn -0.0012 0.4052 0.9142
vn 0.7151 -0.6438 0.2721
vn 0.8062 -0.5392 0.2434
vn 0.7716 -0.5768 0.2683
vn 0.7692 -0.5794 0.2695
vn 0.7754 -0.5722 0.2672
vn -0.5886 -0.6542 0.4749
vn -0.4462 -0.4545 0.7710
vn 0.7972 -0.5567 0.2335
vn -0.3797 -0.1448 0.9137
vn -0.7603 0.5887 -0.2747
vn -0.7589 0.5933 -0.2687
vn -0.7727 0.5809 -0.2560
vn -0.1100 0.2029 0.9730
vn 0.3081 0.7334 0.6060
vn -0.0686 0.3296 0.9416
vn -0.7623 0.6010 -0.2404
vn -0.7602 0.5952 -0.2604
vn 0.3200 0.7779 0.5408
vn 0.5509 0.8325 -0.0584
vn -0.7571 0.6002 -0.2578
vn -0.7528 0.6021 -0.2660
vn -0.7569 0.5952 -0.2699
vn 0.5369 0.8244 -0.1794
vn 0.5627 0.6026 -0.5659
vn 0.7206 -0.6416 0.2627
vn 0.4483 0.4444 -0.7756
vn 0.7111 -0.6463 0.2768
vn 0.7373 -0.6049 0.3007
vn -0.7619 0.5835 -0.2812
vn 0.3744 0.1372 -0.9170
vn -0.5202 -0.8436 0.1332
vn -0.5134 -0.8435 -0.1579
vn 0.7832 -0.5640 0.2616
vn 0.7962 -0.5585 0.2326
vn -0.7565 0.6003 -0.2595
vn -0.7527 0.6022 -0.2661
vn -0.0012 0.4053 0.9142
vn -0.0011 0.4054 0.9141
vn 0.6358 -0.7107 0.3011
vn -0.7982 0.5858 -0.1403
vn -0.8013 0.5823 -0.1370
vn -0.7094 0.6819 -0.1783
vn -0.6884 0.2518 -0.6802
vn -0.7106 0.6809 -0.1773
vn -0.6141 0.3417 -0.7114
vn -0.6871 0.2519 -0.6815
vn -0.7148 0.6425 -0.2762
vn -0.8053 0.5416 -0.2413
vn -0.6135 0.3417 -0.7119
vn -0.7232 0.6646 -0.1878
vn -0.5883 0.7710 -0.2440
vn -0.5268 0.4154 -0.7416
vn -0.6111 0.7490 -0.2558
vn -0.6254 0.7079 -0.3283
vn -0.9114 -0.3781 0.1624
vn -0.7178 -0.3730 -0.5880
vn -0.6081 0.7651 -0.2119
vn -0.5266 0.4160 -0.7414
vn -0.8761 0.4730 -0.0932
vn -0.8804 0.4650 -0.0927
vn -0.7475 0.1429 -0.6487
vn -0.7892 0.0180 -0.6139
vn -0.7913 0.0168 -0.6112
vn -0.7478 0.1461 -0.6476
vn -0.9444 0.3269 -0.0350
vn -0.8091 -0.1326 -0.5725
vn -0.9869 0.1592 0.0280
vn -0.9410 0.3358 -0.0422
vn -0.9846 0.1726 0.0261
vn -0.2519 0.8611 -0.4415
vn -0.4087 0.8440 -0.3474
vn -0.7232 0.6285 -0.2864
vn -0.7513 0.5882 -0.2993
vn 0.0001 0.4040 0.9147
vn -0.9595 -0.2577 0.1138
vn -0.9825 -0.1704 0.0753
vn -0.0001 -0.4041 -0.9147
vn 0.0001 -0.4042 -0.9147
vn -0.9273 -0.3425 0.1513
vn -0.8861 -0.4239 0.1873
vn -0.8364 -0.5013 0.2215
vn 0.7923 0.5773 -0.1973
vn 0.6903 0.6513 -0.3152
vn 0.3258 0.8685 -0.3737
vn 0.3556 0.8477 -0.3936
vn -0.7787 -0.5739 0.2536
vn -0.7134 -0.6410 0.2832
vn -0.6413 -0.7018 0.3101
vn -0.0001 0.4042 0.9147
vn 0.9145 0.3543 -0.1956
vn 0.9950 0.1000 -0.0080
vn 0.9997 0.0182 -0.0136
vn 0.9322 -0.3323 0.1434
vn 0.9442 -0.2947 0.1470
vn 0.2148 -0.8739 0.4360
vn 0.0334 -0.8936 0.4476
vn 0.3103 -0.8168 0.4863
vn -0.0641 -0.8027 0.5929
vn 0.0002 0.4041 0.9147
vn -0.5911 -0.6699 0.4493
vn -0.3084 -0.8422 0.4422
vn -0.5854 -0.6406 0.4970
vn -0.7467 -0.6178 0.2463
vn -0.6434 -0.6815 0.3486
vn -0.7469 -0.6099 0.2647
vn -0.8338 -0.4998 0.2346
vn -0.7979 -0.5455 0.2564
vn -0.5058 -0.7958 0.3330
vn -0.3951 -0.8209 0.4123
vn -0.8011 -0.5402 0.2579
vn 0.0002 -0.4042 -0.9147
vn 0.7193 0.4983 -0.4841
vn 0.6941 0.5236 -0.4941
vn 0.6163 0.5820 -0.5305
vn -0.0000 0.4043 0.9146
vn -0.0000 0.4039 0.9148
vn 0.7259 0.4807 -0.4919
vn 0.7182 0.4736 -0.5098
vn 0.5045 0.6499 -0.5683
vn 0.7145 0.4638 -0.5239
vn 0.4400 0.6776 -0.5892
vn 0.7102 0.4531 -0.5388
vn 0.4120 0.6811 -0.6052
vn 0.6954 0.4509 -0.5595
vn 0.3576 0.6955 -0.6232
vn 0.2774 0.7168 -0.6398
vn 0.0284 -0.8985 0.4380
vn 0.4321 -0.8173 0.3811
vn 0.3770 -0.8532 0.3604
vn 0.7232 -0.6323 0.2777
vn 0.7468 -0.6013 0.2842
vn 0.2243 0.7244 -0.6519
vn 0.2506 0.7138 -0.6540
vn 0.3702 0.6512 -0.6625
vn 0.0001 0.4041 0.9147
vn -0.0002 0.4044 0.9146
vn 0.6487 0.4763 -0.5936
vn -0.0262 0.7881 -0.6150
vn -0.4539 0.7598 -0.4655
vn 0.4007 0.6921 0.6004
vn -0.5114 0.7343 -0.4464
vn -0.1006 0.9043 -0.4149
vn -0.1012 0.9043 -0.4148
vn 0.0030 0.4001 0.9165
vn 0.0296 0.9110 -0.4113
vn 0.3483 0.8068 0.4773
vn 0.0891 0.9155 -0.3924
vn -0.0156 0.9123 -0.4093
vn -0.0717 0.9120 -0.4039
vn 0.0256 0.9014 -0.4323
vn -0.1498 0.9041 -0.4002
vn -0.1650 0.9002 -0.4029
vn -0.1758 0.9033 -0.3914
vn -0.2139 0.8941 -0.3936
vn -0.2333 0.8879 -0.3966
vn -0.2177 0.8880 -0.4050
vn -0.2655 0.8769 -0.4007
vn -0.2314 0.8934 -0.3851
vn -0.3052 0.8661 -0.3959
vn 0.0005 0.4028 0.9153
vn 0.0006 0.4028 0.9153
vn -0.3515 0.8594 -0.3714
vn -0.3336 0.8680 -0.3679
vn -0.3747 0.8540 -0.3608
vn -0.3764 0.8477 -0.3738
vn -0.4472 0.8202 -0.3566
vn -0.4494 0.8246 -0.3435
vn -0.3881 0.8484 -0.3600
vn -0.4912 0.8037 -0.3357
vn -0.4772 0.8120 -0.3360
vn 0.0891 -0.9111 0.4025
vn 0.1863 -0.8987 0.3971
vn -0.0090 -0.9147 0.4041
vn -0.0089 -0.9147 0.4041
vn -0.1070 -0.9094 0.4018
vn -0.2038 -0.8955 0.3957
vn -0.1070 -0.9094 0.4019
vn -0.2039 -0.8955 0.3957
vn -0.2988 -0.8729 0.3857
vn -0.2989 -0.8729 0.3857
vn -0.3909 -0.8419 0.3720
vn -0.4793 -0.8028 0.3547
vn -0.5630 -0.7560 0.3340
vn 0.4992 -0.7708 0.3959
vn 0.3682 -0.8288 0.4214
vn 0.3048 -0.9371 -0.1699
vn 0.3602 -0.8328 0.4203
vn 0.4233 -0.8890 -0.1744
vn 0.4945 -0.7725 0.3984
vn 0.5474 -0.8067 -0.2227
vn 0.4344 -0.8787 -0.1978
vn 0.6127 -0.6996 0.3677
vn 0.6449 -0.6815 0.3461
vn 0.6079 -0.7646 -0.2139
vn 0.6044 -0.7670 -0.2156
vn 0.5436 -0.8163 -0.1954
vn 0.7004 -0.6311 0.3334
vn 0.6926 -0.6716 -0.2632
vn 0.6941 -0.6705 -0.2621
vn 0.8059 -0.5148 0.2926
vn 0.7128 -0.6169 0.3337
vn 0.8017 -0.5213 0.2925
vn 0.8264 -0.5150 0.2275
vn 0.8777 -0.4384 0.1937
vn 0.8265 -0.5150 0.2275
vn 0.9204 -0.3576 0.1580
vn -0.7820 0.5749 -0.2407
vn -0.8091 0.5438 -0.2229
vn -0.8394 0.5012 -0.2105
vn -0.8846 0.4286 -0.1839
vn -0.8780 0.4406 -0.1869
vn -0.8359 0.5058 -0.2130
vn -0.8983 0.4037 -0.1736
vn -0.9212 0.3542 -0.1609
vn -0.9627 0.2430 -0.1193
vn -0.9448 0.2984 -0.1352
vn -0.9601 0.2502 -0.1253
vn -0.9464 0.2944 -0.1329
vn -0.9671 0.2188 -0.1298
vn -0.9668 0.2279 -0.1151
vn -0.9498 0.2789 -0.1419
vn -0.9386 0.3014 -0.1678
vn 0.0016 0.4037 0.9149
vn 0.0015 0.4035 0.9150
vn -0.9062 0.3814 -0.1826
vn 0.0014 0.4035 0.9150
vn -0.9063 0.3812 -0.1824
vn -0.8761 0.4401 -0.1967
vn -0.8774 0.4375 -0.1970
vn 0.0013 0.4033 0.9150
vn -0.8182 0.5275 -0.2288
vn -0.8366 0.4992 -0.2255
vn 0.0012 0.4033 0.9150
vn 0.0012 0.4035 0.9150
vn -0.7881 0.5588 -0.2581
vn -0.7403 0.6189 -0.2624
vn -0.7584 0.5988 -0.2576
vn -0.8117 0.5396 -0.2235
vn 0.0009 0.4032 0.9151
vn 0.0011 0.4032 0.9151
vn -0.7082 0.6472 -0.2820
vn 0.0010 0.4030 0.9152
vn -0.6457 0.6803 -0.3469
vn -0.6288 0.6784 -0.3801
vn -0.6324 -0.6647 0.3978
vn 0.0008 0.4032 0.9151
vn -0.6363 0.6788 -0.3665
vn 0.5455 -0.2476 0.8007
vn 0.5459 -0.2476 0.8004
vn -0.6234 0.7162 -0.3137
vn -0.6254 0.7162 -0.3098
vn -0.5497 0.7699 -0.3241
vn -0.5480 0.7713 -0.3236
vn 0.0009 0.4028 0.9153
vn -0.6066 0.7365 -0.2992
vn -0.5559 0.7688 -0.3160
vn -0.5707 0.7589 -0.3137
vn -0.6290 0.7190 -0.2956
vn 0.4635 -0.8105 0.3581
vn 0.3744 -0.8482 0.3748
vn 0.4634 -0.8105 0.3581
vn 0.2817 -0.8777 0.3878
vn 0.2817 -0.8776 0.3878
vn 0.5481 -0.7650 0.3380
vn 0.6274 -0.7123 0.3147
vn 0.5481 -0.7651 0.3380
vn 0.7007 -0.6525 0.2883
vn 0.6274 -0.7122 0.3147
vn 0.7007 -0.6526 0.2883
vn 0.7673 -0.5866 0.2592
vn -0.6916 0.6688 -0.2727
vn -0.7103 0.6511 -0.2675
vn -0.7186 0.6439 -0.2625
vn -0.7172 0.6421 -0.2708
vn -0.6490 0.6936 -0.3126
vn -0.4700 0.8129 -0.3440
vn -0.4967 0.7953 -0.3474
vn -0.4948 0.7778 -0.3876
vn -0.4889 0.7842 -0.3821
vn -0.3602 0.8344 -0.4172
vn -0.3456 0.8312 -0.4354
vn -0.5194 0.7538 -0.4026
vn 0.6919 0.2695 0.6698
vn 0.6911 0.4088 0.5960
vn -0.5372 0.7482 -0.3894
vn -0.5728 0.7469 -0.3378
vn -0.5819 0.7129 -0.3914
vn -0.8032 -0.4801 -0.3526
vn -0.8799 -0.4745 0.0239
vn -0.5599 -0.5783 -0.5934
vn -0.5461 0.7392 -0.3942
vn -0.2752 -0.4732 -0.8368
vn -0.0836 -0.4603 -0.8838
vn 0.5641 -0.1496 -0.8120
vn 0.2411 -0.2518 -0.9373
vn -0.5091 0.7603 -0.4034
vn 0.7561 0.1472 -0.6377
vn 0.9211 0.2537 -0.2953
vn -0.5786 0.7505 -0.3194
vn -0.6052 0.7100 -0.3600
vn 0.5683 -0.7616 0.3114
vn 0.5850 -0.7419 0.3278
vn 0.8729 0.4873 0.0248
vn 0.5767 -0.7435 0.3384
vn 0.5640 -0.7393 0.3679
vn 0.4104 0.6113 0.6767
vn 0.5692 -0.7500 0.3370
vn 0.8207 0.5226 -0.2309
vn 0.5396 -0.7699 0.3407
vn -0.1052 0.3745 0.9213
vn 0.5169 0.5675 0.6409
vn 0.4485 0.5195 0.7273
vn -0.5550 0.7482 -0.3635
vn -0.5352 0.7598 -0.3691
vn -0.1949 0.2814 0.9396
vn 0.5702 -0.7543 0.3254
vn 0.5643 -0.7693 0.2996
vn -0.5902 0.1124 0.7994
vn 0.5767 -0.7509 0.3218
vn -0.9106 -0.2344 0.3403
vn -0.7551 -0.1362 0.6414
vn -0.8207 -0.5226 0.2309
vn -0.4104 0.0887 0.9076
vn -0.4103 0.0887 0.9076
vn -0.4104 -0.6113 -0.6767
vn 0.5717 -0.7462 0.3410
vn 0.5683 -0.7430 0.3535
vn 0.5438 -0.7676 0.3392
vn 0.4104 -0.0887 -0.9076
vn 0.5717 -0.7546 0.3221
vn 0.5668 -0.7536 0.3329
vn 0.5668 -0.7536 0.3330
vn 0.9872 0.1540 -0.0402
vn 0.9971 0.0693 -0.0306
vn 0.5913 0.2312 0.7726
vn 0.2880 -0.8569 0.4276
vn 0.5400 -0.7534 0.3752
vn 0.2750 0.5591 0.7822
vn 0.2838 -0.8589 0.4262
vn 0.3073 -0.9367 -0.1675
vn 0.1724 -0.9691 -0.1763
vn 0.2064 -0.8623 0.4623
vn 0.3600 -0.7949 0.4883
vn 0.2032 -0.8619 0.4646
vn 0.3527 -0.8239 0.4436
vn 0.0062 -0.9147 0.4042
vn 0.1522 -0.8706 0.4678
vn 0.6971 -0.6724 0.2489
vn 0.0596 -0.7250 -0.6862
vn 0.6649 -0.6832 0.3019
vn 0.0564 0.8915 -0.4496
vn 0.0419 0.8993 -0.4353
vn -0.2035 0.8756 -0.4381
vn 0.4028 -0.9061 -0.1291
vn 0.1701 -0.9700 -0.1738
vn 0.6593 -0.7518 -0.0160
vn 0.8024 -0.3319 -0.4960
vn 0.4081 -0.9105 0.0671
vn -0.2253 -0.9524 -0.2055
vn -0.4641 -0.8036 0.3726
vn -0.5041 -0.7900 0.3491
vn -0.0315 -0.0867 0.9957
vn -0.3860 0.1053 0.9165
vn 0.6505 -0.6752 0.3479
vn 0.6282 -0.6471 0.4321
vn 0.7174 -0.6054 0.3447
vn 0.6101 -0.7309 0.3060
vn -0.7780 -0.5520 0.3002
vn 0.5065 -0.7311 0.4572
vn 0.8151 0.4917 0.3063
vn -0.7729 0.5866 -0.2419
vn 0.6221 -0.1601 0.7664
vn 0.6239 -0.1607 0.7648
vn 0.6735 -0.0689 0.7359
vn 0.0014 0.4039 0.9148
vn 0.4192 0.8274 -0.3737
vn -0.9725 0.2129 -0.0942
vn 0.6611 -0.0335 0.7495
vn -0.9568 0.2432 -0.1592
vn 0.0012 0.4040 0.9148
vn -0.9896 0.1031 -0.1001
vn -0.9896 0.1030 -0.1001
vn 0.0014 0.4038 0.9148
vn 0.9892 -0.1001 0.1066
vn 0.9710 -0.1885 0.1471
vn 0.9716 -0.1853 0.1469
vn 0.9886 -0.1025 0.1102
vn 0.8600 -0.3745 -0.3466
vn 0.8022 -0.4624 -0.3777
vn 0.8248 -0.3267 -0.4615
vn 0.8264 -0.3285 -0.4574
vn 0.9950 0.0895 0.0442
vn 0.9943 0.1003 0.0367
vn 0.8157 -0.1747 -0.5514
vn 0.9886 -0.0957 0.1163
vn 0.9865 -0.1065 0.1242
vn 0.8861 0.4239 -0.1873
vn 0.9273 0.3425 -0.1513
vn -0.0000 -0.4040 -0.9147
vn -0.0000 -0.4043 -0.9146
vn -0.9972 -0.0745 -0.0112
vn -0.9990 0.0071 -0.0432
vn -0.9975 -0.0699 -0.0135
vn 0.0012 0.4041 0.9147
vn -0.9969 0.0547 -0.0566
vn 0.0011 0.4044 0.9146
vn -0.9982 -0.0549 -0.0254
vn -0.9882 -0.1527 0.0087
vn 0.0013 0.4043 0.9146
vn -0.9854 -0.1693 0.0203
vn -0.9918 -0.1275 0.0088
vn -0.9645 -0.2585 0.0534
vn -0.9567 -0.2836 0.0653
vn 0.0009 0.4046 0.9145
vn -0.9578 -0.2815 0.0587
vn 0.7787 0.5739 -0.2536
vn 0.8364 0.5014 -0.2215
vn 0.8364 0.5013 -0.2215
vn 0.8302 0.5402 -0.1376
vn 0.9491 0.3113 -0.0480
vn 0.7648 -0.0076 -0.6442
vn 0.9458 0.3209 -0.0494
vn 0.8282 0.5428 -0.1394
vn 0.6622 0.1598 -0.7321
vn 0.7596 0.6226 -0.1880
vn 0.9441 0.3290 -0.0223
vn 0.8258 0.4527 -0.3362
vn 0.6630 0.1596 -0.7314
vn 0.7646 -0.0103 -0.6444
vn 0.6853 -0.2817 -0.6716
vn 0.0440 0.3634 -0.9306
vn 0.6312 -0.4580 -0.6260
vn 0.6445 0.6671 -0.3736
vn 0.7120 0.6621 -0.2340
vn 0.8790 -0.4231 0.2199
vn 0.9039 -0.3852 0.1857
vn 0.4156 0.8753 -0.2474
vn 0.4160 0.8446 -0.3369
vn 0.3171 0.8944 -0.3153
vn 0.1697 0.9270 -0.3345
vn 0.6439 -0.1060 0.7577
vn 0.7044 -0.0151 0.7096
vn 0.4214 0.8389 -0.3445
vn -0.6770 -0.6843 0.2710
vn -0.6049 -0.7583 0.2428
vn -0.4201 -0.8591 0.2924
vn -0.6458 -0.7208 0.2519
vn -0.7531 -0.6383 0.1594
vn -0.5376 0.4477 -0.7145
vn -0.2592 0.0219 -0.9656
vn -0.3881 0.1415 -0.9107
vn 0.6849 0.6542 -0.3207
vn 0.6494 0.7164 -0.2551
vn -0.6669 0.5935 -0.4505
vn 0.6604 0.7034 -0.2630
vn 0.7024 0.6901 -0.1742
vn -0.6187 0.7625 0.1895
vn -0.6332 0.7679 -0.0970
vn 0.7077 0.6916 -0.1443
vn -0.4111 0.7045 0.5785
vn -0.3699 0.6399 0.6736
vn 0.0243 0.2954 0.9551
vn 0.0849 0.1807 0.9799
vn 0.7455 0.6172 -0.2514
vn 0.7006 0.6626 -0.2648
vn 0.3315 0.0097 0.9434
vn -0.3315 0.6910 0.6424
vn 0.7827 0.5834 -0.2170
vn 0.8052 0.5581 -0.2008
vn 0.7631 0.6280 -0.1525
vn 0.7380 0.6512 -0.1769
vn 0.3315 -0.6910 -0.6424
vn 0.7440 0.6414 -0.1870
vn 0.7453 0.6413 -0.1826
vn 0.5573 0.2790 0.7820
vn 0.2333 0.1387 0.9625
vn 0.7448 0.6442 -0.1739
vn -0.3093 0.6756 0.6693
vn 0.0072 0.7431 0.6692
vn -0.3873 0.8545 -0.3462
vn 0.7441 0.6414 -0.1870
vn -0.3073 0.8960 -0.3205
vn -0.0427 0.2276 -0.9728
vn 0.9500 0.3007 -0.0836
vn 0.8153 0.5583 -0.1535
vn 0.9487 0.3009 -0.0970
vn -0.7925 -0.5683 0.2213
vn -0.8312 -0.5369 0.1445
vn -0.8275 -0.5459 0.1311
vn -0.9462 -0.3190 0.0537
vn -0.7711 -0.6263 0.1147
vn -0.8106 -0.5694 0.1364
vn -0.8298 -0.5343 0.1611
vn 0.0011 0.4045 0.9145
vn 0.0011 0.4048 0.9144
vn 0.0012 0.4048 0.9144
vn -0.8606 -0.4882 0.1449
vn -0.8066 -0.5660 0.1703
vn 0.0011 0.4047 0.9145
vn -0.8154 -0.5533 0.1702
vn 0.0008 0.4050 0.9143
vn -0.7296 -0.6520 0.2064
vn -0.7000 -0.6789 0.2218
vn -0.7308 -0.6523 0.2012
vn -0.7150 -0.6691 0.2026
vn -0.6496 -0.7227 0.2362
vn -0.8326 -0.5314 0.1563
vn 0.6413 0.7018 -0.3101
vn 0.7134 0.6410 -0.2832
vn 0.6408 0.7369 -0.2153
vn 0.4102 0.8713 -0.2693
vn 0.1772 0.9399 -0.2918
vn 0.1899 0.9368 -0.2938
vn 0.4190 0.8683 -0.2656
vn 0.1536 0.5045 -0.8497
vn 0.1562 0.5012 -0.8511
vn 0.3370 0.4279 -0.8387
vn 0.3394 0.4283 -0.8375
vn -0.0199 0.5363 -0.8438
vn -0.0168 0.5385 -0.8424
vn 0.1872 0.9206 -0.3426
vn -0.0239 0.9365 -0.3500
vn -0.1750 0.5408 -0.8227
vn -0.2034 0.9184 -0.3394
vn -0.2066 0.9185 -0.3371
vn -0.0202 0.9373 -0.3479
vn -0.1719 0.5385 -0.8249
vn 0.9993 -0.0372 -0.0086
vn 0.9988 0.0461 -0.0162
vn 0.9992 0.0355 -0.0196
vn 0.2036 -0.9134 0.3526
vn 0.0202 -0.9335 0.3580
vn 0.0002 0.4053 0.9142
vn 0.0001 0.4056 0.9141
vn -0.1906 -0.9243 0.3306
vn -0.1551 -0.9237 0.3502
vn -0.0000 0.4055 0.9141
vn 0.0005 0.4054 0.9142
vn 0.0005 0.4053 0.9142
vn -0.4662 -0.8344 0.2941
vn -0.4316 -0.8519 0.2966
vn 0.0008 0.4053 0.9142
vn -0.4070 -0.8622 0.3016
vn -0.3811 -0.8712 0.3096
vn -0.3615 -0.8822 0.3017
vn -0.3018 -0.8983 0.3194
vn -0.3018 -0.8972 0.3226
vn -0.1957 -0.9210 0.3367
vn -0.2573 -0.9072 0.3330
vn -0.1924 -0.9221 0.3356
vn -0.2073 -0.9212 0.3293
vn -0.0413 -0.9367 0.3477
vn -0.0635 -0.9352 0.3483
vn -0.0356 -0.9376 0.3459
vn 0.4793 0.8028 -0.3547
vn 0.3909 0.8419 -0.3720
vn 0.0160 -0.9341 0.3567
vn 0.0159 -0.9341 0.3567
vn 0.0540 -0.9305 0.3622
vn 0.1006 -0.9296 0.3545
vn 0.1075 -0.9264 0.3608
vn 0.5630 0.7560 -0.3340
vn -0.0271 -0.9314 0.3631
vn -0.0711 -0.9327 0.3535
vn -0.1404 -0.9252 0.3525
vn -0.0002 -0.4041 -0.9147
vn 0.0002 -0.4043 -0.9146
vn -0.4808 -0.8303 0.2819
vn -0.6002 -0.7570 0.2581
vn -0.5121 -0.8130 0.2770
vn 0.0007 0.4053 0.9142
vn -0.5119 -0.8134 0.2762
vn -0.5931 -0.7652 0.2502
vn -0.6244 -0.7418 0.2446
vn -0.0000 0.4056 0.9141
vn -0.0003 0.4056 0.9141
vn -0.0003 0.4056 0.9140
vn -0.2024 0.9359 -0.2884
vn -0.0201 0.9552 -0.2953
vn -0.0332 0.9538 -0.2985
vn 0.5150 0.3106 -0.7989
vn 0.6437 0.7344 -0.2152
vn -0.8283 -0.5380 0.1565
vn -0.8703 -0.4736 0.1353
vn -0.9037 -0.4138 0.1101
vn -0.9275 -0.3619 0.0933
vn -0.9362 -0.3417 0.0828
vn -0.9100 -0.4015 0.1035
vn -0.9384 -0.3345 0.0868
vn -0.6443 -0.7314 0.2236
vn -0.7488 -0.6310 0.2027
vn 0.5091 -0.4081 0.7578
vn 0.3893 -0.1294 0.9120
vn 0.6559 -0.5708 0.4940
vn 0.2268 -0.4862 -0.8439
vn 0.4031 -0.7170 -0.5687
vn -0.7444 -0.6468 0.1658
vn 0.6155 -0.7509 -0.2396
vn 0.6349 -0.7586 0.1463
vn 0.7936 0.5508 -0.2586
vn 0.8163 0.5498 -0.1772
vn 0.7411 0.6390 -0.2059
vn 0.8001 0.5694 -0.1888
vn -0.0366 -0.3038 -0.9520
vn -0.3314 -0.0097 -0.9434
vn -0.3315 -0.0097 -0.9434
vn 0.6715 0.6960 -0.2542
vn -0.6649 0.6832 -0.3019
vn 0.7440 0.6415 -0.1870
vn -0.3261 0.8904 0.3176
vn -0.9978 -0.0587 -0.0320
vn -0.9945 -0.0992 -0.0341
vn -0.2172 0.9316 0.2914
vn 0.9962 0.0777 0.0401
vn 0.9652 0.2593 -0.0340
vn -0.6994 -0.7007 0.1410
vn -0.6464 -0.7351 0.2041
vn 0.6273 0.7714 -0.1072
vn 0.5147 0.3116 -0.7988
vn 0.9956 0.0904 0.0230
vn 0.8178 -0.1762 -0.5479
vn -0.0000 -0.4044 -0.9146
vn -0.9928 0.0955 -0.0719
vn -0.9865 0.1395 -0.0857
vn -0.9856 0.1444 -0.0880
vn 0.9825 0.1704 -0.0753
vn 0.9595 0.2576 -0.1138
vn 0.8797 -0.4093 0.2422
vn 0.9436 -0.2720 0.1887
vn 0.9457 -0.2652 0.1881
vn 0.9960 0.0815 -0.0360
vn 1.0000 -0.0082 0.0036
vn 0.9943 -0.0978 0.0432
vn 0.9790 -0.1865 0.0824
vn 0.9543 -0.2734 0.1208
vn 0.7657 -0.5612 -0.3142
vn 0.7648 -0.5552 -0.3270
vn 0.8954 -0.3746 0.2405
vn 0.4469 0.8192 -0.3595
vn -0.9859 0.1439 -0.0855
vn 0.2035 -0.8746 0.4400
vn -0.2816 0.8802 -0.3820
vn 0.7288 0.4919 -0.4764
vn -0.9724 0.2272 0.0529
vn -0.8343 -0.3983 0.3811
vn -0.0002 0.4043 0.9146
vn -0.5417 -0.2388 -0.8059
vn -0.7856 0.1256 -0.6059
vn -0.6408 0.6913 -0.3338
vn 0.0003 0.4041 0.9147
vn 0.6731 0.6971 0.2470
vn 0.6840 0.6885 0.2411
vn 0.8522 -0.4857 0.1945
vn 0.8472 -0.4780 0.2319
vn 0.9759 0.0202 -0.2174
vn 0.9691 0.0065 -0.2466
vn 0.9447 -0.3276 0.0110
vn 0.9618 0.0100 -0.2736
vn 0.8638 0.2501 -0.4374
vn 0.9273 0.1311 -0.3507
vn 0.9696 -0.0397 -0.2414
vn -0.9831 -0.1511 0.1034
vn -0.9849 0.1366 -0.1061
vn -0.9416 0.3235 -0.0934
vn 0.8370 0.3433 -0.4261
vn 0.8808 0.2550 -0.3990
vn 0.7242 0.4787 -0.4963
vn 0.7219 0.4912 -0.4875
vn 0.7886 0.4179 -0.4511
vn 0.9050 0.2068 -0.3718
vn 0.7249 0.4540 -0.5181
vn 0.9100 0.1722 -0.3772
vn -0.9680 -0.2313 0.0972
vn 0.9741 -0.2199 0.0534
vn 0.9911 -0.1328 0.0116
vn 0.9691 -0.2367 0.0696
vn 0.9897 -0.1419 0.0213
vn 0.9922 -0.1235 0.0196
vn 0.9891 -0.1425 0.0381
vn 0.9862 -0.1605 0.0401
vn 0.9868 -0.1585 0.0319
vn -0.0019 0.4027 0.9153
vn -0.0022 0.4040 0.9147
vn 0.9973 0.0362 -0.0635
vn 0.9962 0.0417 -0.0770
vn -0.9991 0.0398 -0.0176
vn -0.9878 0.1546 0.0172
vn -0.9781 0.2080 -0.0086
vn -0.9871 0.1588 0.0177
vn -0.8107 -0.1284 -0.5712
vn -0.9768 0.2100 0.0420
vn -0.9725 -0.1291 0.1937
vn -0.8494 -0.4793 0.2209
vn -0.1071 -0.9195 0.3782
vn 0.3206 -0.7992 0.5084
vn -0.0543 0.9260 -0.3737
vn -0.9949 0.0809 0.0610
vn -0.9960 -0.0815 0.0360
vn -0.9454 0.3206 -0.0587
vn -0.6231 -0.7154 0.3161
vn -0.9163 -0.3663 0.1619
vn -0.2623 -0.0323 0.9645
vn -0.4987 0.4134 0.7618
vn 0.3281 -0.8781 0.3484
vn 0.1069 0.9094 -0.4018
vn 0.6223 -0.7235 0.2989
s 0
usemtl Material.024
f 14//11 11//11 12//11
f 13//12 10//12 11//12
f 14//12 13//12 11//12
f 15//11 14//11 12//11
f 30//23 29//23 31//23
f 29//24 27//24 32//24
f 29//25 32//25 31//25
f 27//24 34//24 32//24
f 18//57 53//57 55//57
f 21//58 55//58 54//58
f 21//59 18//59 55//59
f 22//60 54//60 56//60
f 22//61 21//61 54//61
f 25//62 56//62 34//62
f 25//63 22//63 56//63
f 15//64 12//64 53//64
f 18//65 15//65 53//65
f 122//132 119//132 120//132
f 121//133 118//133 119//133
f 122//133 121//133 119//133
f 124//132 122//132 120//132
f 126//134 124//134 127//134
f 124//134 120//134 127//134
f 126//135 127//135 129//135
f 132//136 129//136 130//136
f 132//137 126//137 129//137
f 134//136 132//136 130//136
f 135//138 134//138 136//138
f 134//138 130//138 136//138
f 135//140 136//140 138//140
f 141//141 138//141 139//141
f 141//140 135//140 138//140
f 142//141 141//141 139//141
f 143//142 142//142 144//142
f 142//143 139//143 144//143
f 143//144 144//144 145//144
f 146//145 145//145 10//145
f 146//146 143//146 145//146
f 13//145 146//145 10//145
f 191//249 192//249 193//249
f 182//250 191//250 117//250
f 191//250 193//250 117//250
f 192//249 194//249 193//249
f 197//253 196//253 194//253
f 192//253 197//253 194//253
f 197//254 198//254 196//254
f 198//255 200//255 201//255
f 198//254 201//254 196//254
f 200//255 202//255 201//255
f 209//260 206//260 202//260
f 208//261 207//261 206//261
f 209//261 208//261 206//261
f 200//260 209//260 202//260
f 208//262 210//262 207//262
f 287//345 284//345 285//345
f 286//346 282//346 284//346
f 287//346 286//346 284//346
f 289//345 287//345 285//345
f 290//347 289//347 291//347
f 289//348 285//348 291//348
f 290//349 291//349 292//349
f 294//350 292//350 293//350
f 294//351 290//351 292//351
f 295//352 294//352 293//352
f 217//353 295//353 296//353
f 295//354 293//354 296//354
f 217//355 296//355 297//355
f 216//356 297//356 298//356
f 216//355 217//355 297//355
f 212//357 298//357 299//357
f 212//356 216//356 298//356
f 210//262 299//262 207//262
f 210//357 212//357 299//357
f 316//377 318//377 319//377
f 318//378 317//378 320//378
f 318//379 320//379 319//379
f 317//378 322//378 320//378
f 314//380 323//380 322//380
f 317//380 314//380 322//380
f 369//433 365//433 367//433
f 370//434 367//434 368//434
f 370//435 369//435 367//435
f 371//434 370//434 368//434
f 286//436 371//436 282//436
f 371//437 368//437 282//437
f 369//438 372//438 365//438
f 372//439 373//439 366//439
f 372//440 366//440 365//440
f 373//441 374//441 375//441
f 373//442 375//442 366//442
f 374//443 376//443 375//443
f 316//444 319//444 376//444
f 374//444 316//444 376//444
f 451//571 450//571 454//571
f 452//572 451//572 453//572
f 451//572 454//572 453//572
f 450//571 456//571 454//571
f 471//590 470//590 468//590
f 472//591 468//591 456//591
f 472//590 471//590 468//590
f 450//592 472//592 456//592
f 545//682 544//682 542//682
f 546//683 542//683 470//683
f 546//682 545//682 542//682
f 471//683 546//683 470//683
f 582//729 581//729 579//729
f 30//730 31//730 581//730
f 582//730 30//730 581//730
f 551//729 582//729 579//729
f 551//736 579//736 544//736
f 545//736 551//736 544//736
f 593//800 592//800 337//800
f 452//801 453//801 592//801
f 593//801 452//801 592//801
f 594//800 593//800 337//800
f 597//805 594//805 334//805
f 596//806 597//806 335//806
f 597//806 334//806 335//806
f 598//807 596//807 331//807
f 596//807 335//807 331//807
f 599//808 598//808 325//808
f 598//808 331//808 325//808
f 314//809 599//809 323//809
f 599//809 325//809 323//809
f 594//805 337//805 334//805
f 121//872 182//872 118//872
f 182//872 117//872 118//872
f 27//879 25//879 34//879
usemtl Material.031
f 1//1 4//1 2//1
f 1//2 2//2 3//2
f 1//3 3//3 6//3
f 4//4 1//4 7//4
f 5//5 1//5 6//5
f 7//6 1//6 5//6
f 7//7 5//7 8//7
f 8//8 11//8 7//8
f 7//9 10//9 9//9
f 7//10 9//10 4//10
f 11//9 10//9 7//9
f 12//8 11//8 8//8
f 13//13 14//13 16//13
f 14//14 15//14 16//14
f 13//15 16//15 17//15
f 17//16 16//16 19//16
f 16//17 15//17 18//17
f 20//15 16//15 18//15
f 20//18 19//18 16//18
f 18//14 21//14 20//14
f 20//15 21//15 22//15
f 20//15 22//15 25//15
f 20//19 26//19 23//19
f 23//20 24//20 20//20
f 19//21 20//21 24//21
f 26//15 20//15 25//15
f 26//15 27//15 29//15
f 26//17 25//17 27//17
f 28//15 26//15 29//15
f 28//22 23//22 26//22
f 29//15 30//15 28//15
f 31//8 32//8 33//8
f 33//8 32//8 35//8
f 32//8 34//8 35//8
f 35//8 34//8 36//8
f 36//26 38//26 35//26
f 33//27 35//27 37//27
f 37//28 35//28 38//28
f 38//29 39//29 42//29
f 36//30 39//30 38//30
f 40//31 37//31 38//31
f 38//32 41//32 40//32
f 42//33 41//33 38//33
f 43//34 42//34 44//34
f 41//35 42//35 43//35
f 39//36 44//36 42//36
f 39//37 45//37 44//37
f 46//38 44//38 45//38
f 44//39 46//39 47//39
f 47//40 43//40 44//40
f 49//41 48//41 47//41
f 19//42 47//42 48//42
f 43//43 47//43 24//43
f 47//42 19//42 24//42
f 46//41 49//41 47//41
f 49//44 6//44 48//44
f 6//45 49//45 5//45
f 49//46 50//46 5//46
f 50//47 49//47 46//47
f 50//48 51//48 8//48
f 46//49 51//49 50//49
f 50//50 8//50 5//50
f 52//51 51//51 45//51
f 45//52 51//52 46//52
f 52//53 8//53 51//53
f 52//8 53//8 8//8
f 55//54 53//54 52//54
f 54//55 55//55 52//55
f 36//8 54//8 52//8
f 36//56 52//56 45//56
f 56//54 54//54 36//54
f 34//8 56//8 36//8
f 53//55 12//55 8//55
f 3//66 57//66 48//66
f 48//67 57//67 59//67
f 6//66 3//66 48//66
f 58//68 48//68 60//68
f 19//69 48//69 58//69
f 59//70 60//70 48//70
f 60//71 61//71 58//71
f 62//72 61//72 60//72
f 60//73 59//73 62//73
f 62//74 63//74 61//74
f 64//75 63//75 62//75
f 62//15 65//15 64//15
f 65//15 62//15 59//15
f 68//76 66//76 65//76
f 66//15 64//15 65//15
f 67//77 65//77 59//77
f 67//78 69//78 65//78
f 68//79 65//79 69//79
f 70//80 71//80 69//80
f 69//81 67//81 70//81
f 68//82 69//82 71//82
f 71//83 72//83 68//83
f 71//84 73//84 72//84
f 74//85 71//85 70//85
f 74//86 73//86 71//86
f 76//87 74//87 70//87
f 75//88 73//88 74//88
f 74//88 77//88 75//88
f 77//89 74//89 76//89
f 78//90 77//90 80//90
f 77//90 78//90 79//90
f 79//91 75//91 77//91
f 76//92 80//92 77//92
f 81//90 80//90 83//90
f 80//90 81//90 78//90
f 80//93 76//93 82//93
f 82//93 83//93 80//93
f 83//90 84//90 81//90
f 84//90 83//90 86//90
f 83//94 82//94 85//94
f 85//94 86//94 83//94
f 89//90 86//90 87//90
f 88//95 87//95 86//95
f 86//95 85//95 88//95
f 86//90 89//90 84//90
f 84//96 89//96 90//96
f 91//97 90//97 89//97
f 87//90 91//90 89//90
f 92//98 90//98 91//98
f 92//99 91//99 79//99
f 91//91 87//91 75//91
f 75//91 79//91 91//91
f 79//100 95//100 92//100
f 92//101 93//101 94//101
f 95//102 93//102 92//102
f 90//103 92//103 94//103
f 78//104 64//104 95//104
f 95//105 64//105 96//105
f 96//106 93//106 95//106
f 95//107 79//107 78//107
f 64//15 66//15 96//15
f 96//108 97//108 93//108
f 97//109 96//109 66//109
f 97//14 99//14 98//14
f 98//110 93//110 97//110
f 99//15 97//15 100//15
f 66//111 100//111 97//111
f 101//112 102//112 100//112
f 100//113 66//113 101//113
f 103//114 100//114 102//114
f 100//114 103//114 99//114
f 103//115 105//115 104//115
f 104//115 99//115 103//115
f 103//116 102//116 107//116
f 105//117 103//117 106//117
f 103//118 107//118 106//118
f 102//119 108//119 107//119
f 109//120 107//120 108//120
f 106//121 107//121 109//121
f 109//122 110//122 106//122
f 111//123 110//123 109//123
f 109//124 112//124 111//124
f 108//125 113//125 109//125
f 112//126 109//126 113//126
f 114//127 113//127 108//127
f 115//128 113//128 114//128
f 113//129 115//129 116//129
f 112//130 113//130 116//130
f 112//131 116//131 111//131
f 111//8 116//8 117//8
f 116//9 118//9 117//9
f 119//8 118//8 116//8
f 119//8 116//8 115//8
f 120//9 119//9 115//9
f 122//15 123//15 121//15
f 122//15 124//15 123//15
f 125//14 123//14 124//14
f 126//14 125//14 124//14
f 127//9 120//9 115//9
f 129//8 127//8 128//8
f 127//9 115//9 128//9
f 129//8 128//8 131//8
f 130//8 129//8 131//8
f 134//15 133//15 132//15
f 133//15 125//15 132//15
f 126//15 132//15 125//15
f 134//14 135//14 133//14
f 136//9 131//9 137//9
f 136//55 130//55 131//55
f 138//139 136//139 137//139
f 139//9 138//9 140//9
f 138//9 137//9 140//9
f 135//15 141//15 133//15
f 141//14 142//14 133//14
f 142//15 143//15 17//15
f 133//15 142//15 17//15
f 144//8 139//8 140//8
f 9//8 144//8 140//8
f 145//9 144//9 9//9
f 10//8 145//8 9//8
f 146//15 13//15 17//15
f 143//14 146//14 17//14
f 9//147 140//147 147//147
f 147//148 140//148 137//148
f 147//149 148//149 149//149
f 148//150 147//150 150//150
f 147//151 2//151 9//151
f 149//152 2//152 147//152
f 150//153 147//153 137//153
f 151//154 148//154 150//154
f 137//155 151//155 150//155
f 137//156 131//156 151//156
f 148//157 151//157 152//157
f 152//158 151//158 153//158
f 151//159 131//159 153//159
f 153//160 131//160 128//160
f 154//161 153//161 155//161
f 152//162 153//162 154//162
f 155//163 153//163 128//163
f 155//164 115//164 114//164
f 155//165 114//165 156//165
f 115//166 155//166 128//166
f 155//167 156//167 154//167
f 101//168 156//168 102//168
f 154//169 156//169 101//169
f 108//168 102//168 156//168
f 108//170 156//170 114//170
f 152//171 154//171 101//171
f 157//172 152//172 101//172
f 152//173 157//173 148//173
f 157//174 57//174 148//174
f 159//175 57//175 157//175
f 157//176 101//176 161//176
f 160//177 157//177 158//177
f 158//178 157//178 161//178
f 159//179 157//179 160//179
f 161//180 163//180 162//180
f 164//181 161//181 162//181
f 163//182 161//182 101//182
f 158//183 161//183 164//183
f 164//184 162//184 88//184
f 88//185 85//185 164//185
f 85//186 165//186 164//186
f 165//187 158//187 164//187
f 166//188 160//188 165//188
f 158//189 165//189 160//189
f 166//190 165//190 82//190
f 85//191 82//191 165//191
f 160//192 166//192 159//192
f 167//193 159//193 166//193
f 166//194 82//194 167//194
f 82//195 76//195 167//195
f 76//196 168//196 167//196
f 159//197 167//197 169//197
f 167//198 168//198 169//198
f 169//199 57//199 159//199
f 67//200 169//200 168//200
f 169//201 59//201 57//201
f 59//202 169//202 67//202
f 76//203 70//203 168//203
f 70//204 67//204 168//204
f 162//205 163//205 72//205
f 68//206 72//206 163//206
f 68//207 163//207 66//207
f 163//208 101//208 66//208
f 72//209 73//209 162//209
f 73//210 88//210 162//210
f 148//211 57//211 149//211
f 57//212 3//212 149//212
f 149//213 3//213 2//213
f 133//214 170//214 125//214
f 170//215 133//215 171//215
f 17//216 171//216 133//216
f 171//217 94//217 170//217
f 171//218 17//218 172//218
f 172//219 173//219 171//219
f 94//220 171//220 173//220
f 90//221 173//221 174//221
f 173//222 90//222 94//222
f 173//223 172//223 174//223
f 90//224 174//224 175//224
f 174//225 61//225 175//225
f 58//226 174//226 172//226
f 174//227 58//227 61//227
f 63//228 175//228 61//228
f 84//229 175//229 63//229
f 175//230 84//230 90//230
f 19//231 172//231 17//231
f 172//232 19//232 58//232
f 123//233 125//233 170//233
f 170//234 176//234 123//234
f 176//235 170//235 94//235
f 177//236 176//236 93//236
f 176//237 177//237 178//237
f 94//238 93//238 176//238
f 178//239 123//239 176//239
f 179//240 178//240 177//240
f 178//241 179//241 180//241
f 123//242 178//242 181//242
f 180//243 181//243 178//243
f 183//15 182//15 181//15
f 123//14 181//14 182//14
f 181//15 180//15 183//15
f 180//14 184//14 183//14
f 184//15 188//15 183//15
f 185//244 190//244 183//244
f 186//245 185//245 183//245
f 183//15 191//15 182//15
f 186//246 183//246 187//246
f 183//247 189//247 187//247
f 188//248 189//248 183//248
f 191//14 183//14 190//14
f 192//15 191//15 190//15
f 193//9 185//9 117//9
f 193//8 194//8 185//8
f 185//251 194//251 195//251
f 194//252 196//252 195//252
f 197//15 192//15 190//15
f 198//14 197//14 190//14
f 190//14 199//14 198//14
f 199//15 200//15 198//15
f 203//252 195//252 201//252
f 196//251 201//251 195//251
f 202//252 203//252 201//252
f 204//9 203//9 206//9
f 204//256 205//256 203//256
f 203//257 205//257 199//257
f 206//9 203//9 202//9
f 203//258 199//258 190//258
f 203//259 190//259 195//259
f 207//9 204//9 206//9
f 209//15 199//15 205//15
f 209//14 200//14 199//14
f 205//14 208//14 209//14
f 210//263 208//263 211//263
f 208//14 205//14 211//14
f 204//264 211//264 205//264
f 211//265 204//265 213//265
f 212//14 210//14 211//14
f 214//14 212//14 211//14
f 211//266 213//266 214//266
f 214//15 215//15 220//15
f 219//267 215//267 214//267
f 216//15 212//15 214//15
f 219//268 214//268 213//268
f 216//14 214//14 217//14
f 218//15 217//15 214//15
f 218//15 214//15 220//15
f 218//269 220//269 221//269
f 222//270 221//270 220//270
f 222//15 220//15 215//15
f 221//271 222//271 223//271
f 222//272 224//272 223//272
f 215//15 224//15 222//15
f 227//14 224//14 225//14
f 224//14 226//14 225//14
f 224//273 215//273 226//273
f 228//274 223//274 224//274
f 224//275 227//275 228//275
f 229//276 223//276 228//276
f 229//277 228//277 230//277
f 231//278 228//278 227//278
f 228//279 231//279 230//279
f 232//14 188//14 231//14
f 231//15 233//15 232//15
f 231//15 227//15 233//15
f 188//280 230//280 231//280
f 235//281 232//281 233//281
f 235//282 233//282 234//282
f 234//15 233//15 227//15
f 235//8 236//8 239//8
f 236//283 235//283 234//283
f 237//8 235//8 240//8
f 235//284 237//284 232//284
f 238//285 235//285 239//285
f 238//251 241//251 235//251
f 235//9 241//9 240//9
f 242//286 241//286 243//286
f 241//287 242//287 240//287
f 241//288 238//288 243//288
f 229//289 242//289 243//289
f 229//290 243//290 244//290
f 243//291 238//291 244//291
f 229//14 244//14 245//14
f 244//292 239//292 245//292
f 238//293 239//293 244//293
f 245//294 246//294 247//294
f 239//295 246//295 245//295
f 229//15 245//15 247//15
f 247//296 248//296 249//296
f 246//297 248//297 247//297
f 229//14 247//14 249//14
f 229//15 249//15 250//15
f 249//298 251//298 250//298
f 248//299 251//299 249//299
f 248//251 236//251 251//251
f 251//252 253//252 252//252
f 251//300 252//300 250//300
f 236//8 253//8 251//8
f 253//301 236//301 225//301
f 253//8 256//8 254//8
f 255//8 253//8 254//8
f 252//8 253//8 255//8
f 253//302 226//302 256//302
f 253//303 225//303 226//303
f 215//304 256//304 226//304
f 219//305 256//305 215//305
f 254//8 256//8 219//8
f 252//306 255//306 257//306
f 255//307 254//307 257//307
f 257//308 254//308 258//308
f 229//309 257//309 258//309
f 229//310 250//310 257//310
f 250//311 252//311 257//311
f 229//15 258//15 259//15
f 258//312 254//312 259//312
f 260//14 229//14 259//14
f 259//313 254//313 260//313
f 260//314 261//314 229//314
f 254//315 261//315 260//315
f 261//316 267//316 262//316
f 262//317 264//317 261//317
f 264//318 263//318 261//318
f 263//14 266//14 261//14
f 254//319 267//319 261//319
f 229//320 261//320 265//320
f 261//14 266//14 265//14
f 267//321 254//321 269//321
f 268//322 267//322 269//322
f 262//323 267//323 268//323
f 269//324 254//324 268//324
f 270//54 268//54 219//54
f 268//252 254//252 219//252
f 270//325 271//325 268//325
f 268//326 271//326 262//326
f 272//327 271//327 270//327
f 262//328 271//328 272//328
f 272//329 274//329 264//329
f 272//330 264//330 262//330
f 274//331 272//331 273//331
f 273//332 272//332 270//332
f 276//333 274//333 273//333
f 263//334 264//334 274//334
f 263//335 274//335 275//335
f 276//336 275//336 274//336
f 277//337 276//337 273//337
f 277//338 278//338 276//338
f 275//339 276//339 278//339
f 275//340 278//340 279//340
f 279//341 278//341 280//341
f 278//342 277//342 280//342
f 281//343 279//343 280//343
f 280//344 283//344 281//344
f 280//8 282//8 283//8
f 284//9 282//9 280//9
f 277//9 284//9 280//9
f 285//9 284//9 277//9
f 288//15 287//15 289//15
f 286//14 287//14 288//14
f 288//17 289//17 290//17
f 292//252 291//252 270//252
f 270//9 291//9 277//9
f 291//54 285//54 277//54
f 293//54 292//54 270//54
f 218//15 290//15 294//15
f 218//15 294//15 295//15
f 218//15 295//15 217//15
f 213//8 296//8 293//8
f 213//9 297//9 296//9
f 298//8 297//8 213//8
f 298//8 213//8 204//8
f 299//9 298//9 204//9
f 299//252 204//252 207//252
f 219//8 213//8 293//8
f 293//9 270//9 219//9
f 218//15 288//15 290//15
f 288//15 300//15 286//15
f 300//358 288//358 301//358
f 218//359 301//359 288//359
f 302//360 303//360 301//360
f 301//361 218//361 302//361
f 304//362 301//362 303//362
f 301//363 304//363 300//363
f 307//364 304//364 305//364
f 303//365 305//365 304//365
f 306//366 300//366 304//366
f 304//367 307//367 306//367
f 308//368 307//368 309//368
f 307//369 308//369 310//369
f 305//370 309//370 307//370
f 310//371 306//371 307//371
f 311//372 310//372 308//372
f 310//373 311//373 312//373
f 312//374 313//374 310//374
f 306//375 310//375 313//375
f 317//15 313//15 314//15
f 313//15 315//15 314//15
f 313//376 312//376 315//376
f 318//14 316//14 313//14
f 306//15 313//15 316//15
f 317//15 318//15 313//15
f 319//8 320//8 321//8
f 320//9 322//9 321//9
f 322//8 323//8 324//8
f 322//8 324//8 321//8
f 325//9 328//9 324//9
f 323//9 325//9 324//9
f 321//381 324//381 326//381
f 324//382 327//382 326//382
f 327//383 324//383 328//383
f 332//384 329//384 328//384
f 329//385 330//385 328//385
f 325//8 331//8 328//8
f 328//386 330//386 327//386
f 331//8 332//8 328//8
f 333//387 329//387 332//387
f 331//8 335//8 332//8
f 333//388 332//388 336//388
f 335//8 334//8 332//8
f 334//8 336//8 332//8
f 334//9 337//9 336//9
f 337//9 338//9 336//9
f 339//389 336//389 338//389
f 339//390 333//390 336//390
f 340//391 339//391 338//391
f 333//392 339//392 340//392
f 340//393 341//393 342//393
f 338//394 341//394 340//394
f 340//395 342//395 343//395
f 340//396 343//396 333//396
f 342//397 344//397 343//397
f 343//398 344//398 345//398
f 333//399 343//399 345//399
f 344//400 346//400 345//400
f 347//400 345//400 346//400
f 333//401 345//401 329//401
f 330//402 345//402 347//402
f 330//403 329//403 345//403
f 348//404 347//404 346//404
f 347//405 348//405 327//405
f 327//406 330//406 347//406
f 346//407 349//407 348//407
f 350//408 348//408 349//408
f 348//409 350//409 327//409
f 350//410 352//410 351//410
f 350//411 351//411 326//411
f 326//412 327//412 350//412
f 350//413 349//413 352//413
f 352//414 354//414 353//414
f 351//415 352//415 353//415
f 349//414 354//414 352//414
f 354//416 355//416 359//416
f 358//417 355//417 354//417
f 357//418 354//418 356//418
f 356//419 354//419 309//419
f 354//420 359//420 353//420
f 354//421 357//421 358//421
f 354//422 308//422 309//422
f 308//423 354//423 349//423
f 360//424 353//424 359//424
f 360//425 359//425 362//425
f 281//426 359//426 361//426
f 362//427 359//427 281//427
f 355//428 361//428 359//428
f 360//429 362//429 363//429
f 283//430 362//430 281//430
f 363//431 362//431 283//431
f 363//9 366//9 364//9
f 363//432 364//432 360//432
f 367//9 365//9 363//9
f 365//8 366//8 363//8
f 283//8 367//8 363//8
f 368//54 367//54 283//54
f 369//14 370//14 300//14
f 370//15 371//15 300//15
f 300//15 371//15 286//15
f 306//15 372//15 369//15
f 300//15 306//15 369//15
f 373//14 372//14 306//14
f 374//15 373//15 306//15
f 366//9 375//9 364//9
f 375//8 376//8 364//8
f 376//9 319//9 321//9
f 376//9 321//9 364//9
f 374//14 306//14 316//14
f 282//9 368//9 283//9
f 364//445 377//445 360//445
f 364//446 321//446 377//446
f 321//447 351//447 377//447
f 353//448 377//448 351//448
f 377//449 353//449 360//449
f 378//428 275//428 361//428
f 279//450 361//450 275//450
f 361//428 355//428 378//428
f 279//451 281//451 361//451
f 378//452 355//452 379//452
f 378//453 379//453 381//453
f 378//454 380//454 263//454
f 380//455 378//455 382//455
f 378//456 381//456 382//456
f 275//335 378//335 263//335
f 382//457 386//457 380//457
f 386//458 382//458 383//458
f 385//15 383//15 382//15
f 387//459 384//459 382//459
f 382//14 384//14 385//14
f 387//460 382//460 381//460
f 387//461 390//461 384//461
f 389//462 387//462 388//462
f 387//463 381//463 388//463
f 390//464 387//464 389//464
f 390//465 392//465 384//465
f 391//466 390//466 389//466
f 390//467 391//467 392//467
f 392//468 393//468 394//468
f 391//469 393//469 392//469
f 394//470 384//470 392//470
f 393//471 395//471 394//471
f 394//472 395//472 357//472
f 356//473 394//473 357//473
f 394//474 356//474 384//474
f 396//475 395//475 393//475
f 396//476 398//476 395//476
f 395//477 397//477 357//477
f 398//478 397//478 395//478
f 397//479 398//479 402//479
f 399//480 398//480 401//480
f 398//481 399//481 402//481
f 400//482 401//482 398//482
f 398//482 396//482 400//482
f 402//483 399//483 403//483
f 403//484 404//484 402//484
f 402//485 358//485 397//485
f 358//486 402//486 404//486
f 358//487 404//487 355//487
f 404//488 379//488 355//488
f 404//489 403//489 379//489
f 399//490 405//490 403//490
f 403//491 405//491 406//491
f 403//492 406//492 379//492
f 406//493 405//493 388//493
f 388//494 381//494 406//494
f 379//495 406//495 381//495
f 409//496 405//496 407//496
f 408//497 407//497 405//497
f 405//498 399//498 408//498
f 405//476 409//476 388//476
f 407//496 410//496 409//496
f 411//499 409//499 410//499
f 409//500 411//500 389//500
f 389//501 388//501 409//501
f 391//502 411//502 393//502
f 411//502 391//502 389//502
f 396//503 411//503 412//503
f 410//499 412//499 411//499
f 411//504 396//504 393//504
f 412//505 410//505 414//505
f 400//506 412//506 413//506
f 412//503 400//503 396//503
f 414//506 413//506 412//506
f 415//507 417//507 414//507
f 414//508 416//508 415//508
f 416//506 414//506 410//506
f 413//509 414//509 417//509
f 418//510 383//510 417//510
f 385//511 417//511 383//511
f 417//512 385//512 413//512
f 415//513 418//513 417//513
f 303//514 302//514 418//514
f 419//515 418//515 302//515
f 418//516 419//516 420//516
f 415//517 303//517 418//517
f 420//518 386//518 418//518
f 383//519 418//519 386//519
f 386//15 420//15 421//15
f 422//15 421//15 420//15
f 420//520 423//520 422//520
f 423//521 420//521 419//521
f 229//522 265//522 423//522
f 419//523 229//523 423//523
f 424//524 423//524 265//524
f 423//524 424//524 422//524
f 421//14 422//14 424//14
f 424//525 266//525 421//525
f 266//526 424//526 265//526
f 421//15 380//15 386//15
f 380//527 421//527 266//527
f 229//528 419//528 221//528
f 302//529 221//529 419//529
f 425//530 305//530 416//530
f 416//531 305//531 415//531
f 425//506 416//506 407//506
f 410//506 407//506 416//506
f 426//532 305//532 425//532
f 426//506 425//506 408//506
f 407//506 408//506 425//506
f 428//533 305//533 426//533
f 427//534 428//534 426//534
f 426//535 429//535 427//535
f 429//506 426//506 401//506
f 408//506 401//506 426//506
f 385//536 427//536 429//536
f 429//537 413//537 385//537
f 413//506 429//506 400//506
f 401//506 400//506 429//506
f 427//538 430//538 428//538
f 428//539 309//539 305//539
f 428//540 430//540 309//540
f 385//541 430//541 427//541
f 309//542 430//542 356//542
f 384//15 356//15 430//15
f 430//14 385//14 384//14
f 305//543 303//543 415//543
f 401//480 408//480 399//480
f 358//544 357//544 397//544
f 266//527 263//527 380//527
f 326//545 351//545 321//545
f 349//546 311//546 308//546
f 311//547 349//547 346//547
f 311//548 346//548 344//548
f 433//549 344//549 342//549
f 431//550 432//550 344//550
f 433//551 431//551 344//551
f 344//552 432//552 311//552
f 431//553 433//553 437//553
f 434//554 433//554 436//554
f 433//555 434//555 435//555
f 435//556 437//556 433//556
f 436//557 433//557 342//557
f 437//14 438//14 431//14
f 438//15 437//15 440//15
f 437//15 435//15 439//15
f 439//15 440//15 437//15
f 440//558 439//558 441//558
f 440//559 432//559 438//559
f 432//560 440//560 442//560
f 441//561 442//561 440//561
f 442//562 443//562 432//562
f 443//563 442//563 444//563
f 445//564 444//564 442//564
f 442//565 441//565 445//565
f 446//566 448//566 445//566
f 445//567 447//567 446//567
f 447//568 445//568 441//568
f 444//569 445//569 448//569
f 449//15 448//15 451//15
f 448//570 449//570 444//570
f 446//14 450//14 448//14
f 450//14 451//14 448//14
f 452//15 449//15 451//15
f 454//573 457//573 455//573
f 453//8 454//8 455//8
f 454//9 456//9 457//9
f 456//574 458//574 457//574
f 457//575 458//575 459//575
f 457//576 459//576 455//576
f 460//577 459//577 458//577
f 459//578 434//578 436//578
f 436//579 455//579 459//579
f 459//580 461//580 434//580
f 461//581 459//581 460//581
f 463//582 461//582 460//582
f 462//583 434//583 461//583
f 463//578 462//578 461//578
f 463//584 458//584 466//584
f 460//585 458//585 463//585
f 463//586 466//586 464//586
f 463//587 464//587 465//587
f 463//588 465//588 462//588
f 468//9 467//9 466//9
f 466//589 467//589 464//589
f 456//9 466//9 458//9
f 456//8 468//8 466//8
f 468//8 469//8 467//8
f 468//8 470//8 469//8
f 473//14 471//14 472//14
f 446//15 473//15 472//15
f 450//15 446//15 472//15
f 473//15 474//15 471//15
f 474//593 473//593 475//593
f 446//594 475//594 473//594
f 447//595 477//595 475//595
f 475//596 446//596 447//596
f 475//597 476//597 474//597
f 476//598 475//598 477//598
f 478//599 481//599 477//599
f 478//600 477//600 480//600
f 481//601 479//601 477//601
f 477//602 479//602 476//602
f 477//603 447//603 480//603
f 481//604 482//604 483//604
f 482//605 481//605 478//605
f 483//606 485//606 481//606
f 479//607 481//607 484//607
f 481//608 485//608 484//608
f 485//609 483//609 486//609
f 486//610 487//610 485//610
f 484//611 485//611 488//611
f 489//612 485//612 487//612
f 489//613 488//613 485//613
f 493//614 488//614 489//614
f 494//15 490//15 489//15
f 491//615 489//615 490//615
f 489//616 491//616 493//616
f 489//15 492//15 494//15
f 487//617 492//617 489//617
f 494//618 499//618 495//618
f 495//619 498//619 494//619
f 496//15 494//15 492//15
f 494//15 496//15 497//15
f 490//620 494//620 498//620
f 499//621 494//621 497//621
f 497//622 501//622 499//622
f 499//623 502//623 495//623
f 499//624 501//624 500//624
f 500//625 502//625 499//625
f 503//626 502//626 500//626
f 503//627 504//627 502//627
f 502//628 504//628 495//628
f 503//629 505//629 504//629
f 507//630 504//630 505//630
f 507//631 506//631 504//631
f 495//632 504//632 506//632
f 507//633 505//633 509//633
f 508//634 506//634 507//634
f 507//635 509//635 508//635
f 510//636 508//636 509//636
f 509//637 511//637 510//637
f 509//638 512//638 511//638
f 505//639 512//639 509//639
f 512//640 513//640 514//640
f 513//641 512//641 505//641
f 514//640 515//640 512//640
f 512//642 515//642 511//642
f 515//524 514//524 518//524
f 515//643 517//643 516//643
f 516//644 511//644 515//644
f 518//524 517//524 515//524
f 521//645 519//645 518//645
f 517//646 518//646 519//646
f 520//647 518//647 514//647
f 518//648 520//648 521//648
f 487//649 486//649 521//649
f 521//650 496//650 487//650
f 519//651 521//651 486//651
f 496//652 521//652 520//652
f 520//653 522//653 496//653
f 522//654 520//654 523//654
f 514//655 523//655 520//655
f 523//656 478//656 522//656
f 478//657 523//657 482//657
f 523//647 514//647 513//647
f 513//647 482//647 523//647
f 522//658 478//658 524//658
f 496//659 522//659 525//659
f 525//660 522//660 524//660
f 496//14 525//14 526//14
f 524//15 526//15 525//15
f 526//15 524//15 528//15
f 526//661 527//661 529//661
f 527//662 526//662 530//662
f 529//663 497//663 526//663
f 526//15 497//15 496//15
f 528//664 530//664 526//664
f 530//665 510//665 531//665
f 530//666 531//666 527//666
f 510//667 530//667 532//667
f 530//668 462//668 465//668
f 530//664 528//664 462//664
f 532//669 530//669 534//669
f 533//670 530//670 465//670
f 533//669 534//669 530//669
f 535//671 534//671 533//671
f 536//672 534//672 535//672
f 536//673 532//673 534//673
f 535//674 537//674 536//674
f 536//675 538//675 532//675
f 536//676 537//676 539//676
f 536//677 539//677 538//677
f 539//678 537//678 541//678
f 541//679 540//679 539//679
f 538//680 539//680 540//680
f 541//9 470//9 542//9
f 541//8 542//8 540//8
f 470//8 541//8 469//8
f 469//681 541//681 537//681
f 542//252 544//252 543//252
f 540//251 542//251 543//251
f 547//15 545//15 546//15
f 474//15 547//15 546//15
f 474//14 546//14 471//14
f 545//15 547//15 549//15
f 474//684 548//684 547//684
f 549//685 547//685 548//685
f 551//15 549//15 550//15
f 549//686 552//686 550//686
f 551//15 545//15 549//15
f 552//687 549//687 553//687
f 548//688 553//688 549//688
f 554//689 553//689 488//689
f 553//690 554//690 552//690
f 484//691 488//691 553//691
f 553//692 548//692 484//692
f 554//693 556//693 555//693
f 555//694 552//694 554//694
f 488//695 493//695 554//695
f 556//696 554//696 493//696
f 559//697 555//697 556//697
f 557//698 556//698 558//698
f 556//699 557//699 559//699
f 493//700 558//700 556//700
f 555//701 559//701 23//701
f 560//702 559//702 557//702
f 559//703 560//703 43//703
f 23//704 559//704 43//704
f 558//15 560//15 557//15
f 560//15 558//15 561//15
f 561//705 43//705 560//705
f 561//706 491//706 563//706
f 491//15 561//15 558//15
f 43//705 561//705 562//705
f 563//706 562//706 561//706
f 563//707 567//707 564//707
f 564//708 565//708 563//708
f 565//708 566//708 563//708
f 563//709 490//709 567//709
f 490//710 563//710 491//710
f 562//711 563//711 566//711
f 568//712 564//712 567//712
f 569//712 568//712 567//712
f 498//620 567//620 490//620
f 569//713 567//713 498//713
f 570//714 569//714 571//714
f 570//715 572//715 569//715
f 571//716 569//716 498//716
f 572//717 573//717 569//717
f 569//718 573//718 568//718
f 573//719 572//719 574//719
f 575//720 573//720 574//720
f 568//721 573//721 575//721
f 564//722 575//722 576//722
f 568//723 575//723 564//723
f 575//724 577//724 576//724
f 575//725 574//725 577//725
f 577//726 580//726 578//726
f 578//727 576//727 577//727
f 579//9 581//9 577//9
f 574//8 579//8 577//8
f 577//8 581//8 33//8
f 577//728 33//728 580//728
f 581//8 31//8 33//8
f 550//15 28//15 582//15
f 28//17 30//17 582//17
f 582//15 551//15 550//15
f 578//731 580//731 583//731
f 33//732 583//732 580//732
f 40//733 566//733 583//733
f 578//731 583//731 566//731
f 37//734 583//734 33//734
f 40//735 583//735 37//735
f 544//8 579//8 574//8
f 578//737 566//737 565//737
f 565//738 576//738 578//738
f 565//739 564//739 576//739
f 572//740 544//740 574//740
f 543//741 544//741 572//741
f 543//742 572//742 570//742
f 571//743 538//743 584//743
f 570//744 571//744 584//744
f 538//745 571//745 498//745
f 570//746 584//746 543//746
f 584//747 540//747 543//747
f 540//748 584//748 538//748
f 566//749 40//749 562//749
f 43//750 562//750 41//750
f 40//751 41//751 562//751
f 558//14 493//14 491//14
f 23//752 28//752 555//752
f 552//753 555//753 28//753
f 28//754 550//754 552//754
f 476//755 484//755 548//755
f 548//756 474//756 476//756
f 532//675 538//675 498//675
f 537//757 535//757 469//757
f 535//758 533//758 469//758
f 469//759 533//759 585//759
f 465//760 585//760 533//760
f 465//761 464//761 585//761
f 469//762 585//762 467//762
f 464//763 467//763 585//763
f 508//764 532//764 498//764
f 532//765 508//765 510//765
f 511//766 516//766 531//766
f 510//767 511//767 531//767
f 527//768 531//768 516//768
f 501//769 529//769 586//769
f 586//770 529//770 587//770
f 497//771 529//771 501//771
f 529//772 527//772 587//772
f 587//773 527//773 516//773
f 586//774 587//774 517//774
f 587//775 516//775 517//775
f 586//776 588//776 500//776
f 517//777 588//777 586//777
f 500//778 501//778 586//778
f 589//779 503//779 588//779
f 588//780 519//780 589//780
f 588//781 503//781 500//781
f 519//646 588//646 517//646
f 503//782 589//782 590//782
f 486//647 589//647 519//647
f 483//647 590//647 589//647
f 589//647 486//647 483//647
f 590//782 505//782 503//782
f 482//783 513//783 590//783
f 505//641 590//641 513//641
f 590//647 483//647 482//647
f 435//784 528//784 524//784
f 528//785 435//785 434//785
f 434//786 462//786 528//786
f 524//787 439//787 435//787
f 439//788 524//788 480//788
f 524//789 478//789 480//789
f 498//790 506//790 508//790
f 498//791 495//791 506//791
f 487//792 496//792 492//792
f 484//793 476//793 479//793
f 480//794 441//794 439//794
f 441//795 480//795 447//795
f 453//796 455//796 591//796
f 591//797 455//797 436//797
f 592//9 453//9 591//9
f 436//798 341//798 591//798
f 592//8 591//8 338//8
f 338//799 591//799 341//799
f 337//9 592//9 338//9
f 595//15 449//15 593//15
f 452//14 593//14 449//14
f 594//15 595//15 593//15
f 315//15 595//15 596//15
f 443//802 595//802 315//802
f 596//15 595//15 597//15
f 597//14 595//14 594//14
f 595//803 444//803 449//803
f 444//804 595//804 443//804
f 598//14 315//14 596//14
f 599//15 315//15 598//15
f 599//14 314//14 315//14
f 311//810 432//810 443//810
f 443//811 312//811 311//811
f 315//812 312//812 443//812
f 432//813 431//813 438//813
f 341//814 436//814 342//814
f 221//815 302//815 218//815
f 270//816 277//816 273//816
f 246//8 236//8 248//8
f 239//8 236//8 246//8
f 229//15 601//15 242//15
f 242//817 600//817 240//817
f 601//15 600//15 242//15
f 602//818 179//818 601//818
f 230//819 602//819 601//819
f 230//277 601//277 229//277
f 603//820 607//820 601//820
f 606//14 603//14 601//14
f 604//821 605//821 601//821
f 601//822 179//822 604//822
f 612//823 601//823 605//823
f 609//309 606//309 601//309
f 601//263 607//263 611//263
f 601//263 608//263 600//263
f 601//824 611//824 608//824
f 614//289 609//289 601//289
f 601//15 610//15 614//15
f 613//825 610//825 601//825
f 601//826 612//826 613//826
f 609//827 614//827 616//827
f 610//828 615//828 614//828
f 616//829 614//829 615//829
f 187//8 616//8 615//8
f 617//830 609//830 616//830
f 187//8 617//8 616//8
f 609//831 617//831 606//831
f 187//9 618//9 617//9
f 618//832 606//832 617//832
f 607//833 603//833 618//833
f 619//834 607//834 618//834
f 620//8 619//8 618//8
f 603//835 606//835 618//835
f 187//8 620//8 618//8
f 620//836 621//836 237//836
f 620//837 189//837 621//837
f 620//838 187//838 189//838
f 620//9 237//9 624//9
f 620//8 622//8 619//8
f 620//8 623//8 622//8
f 620//9 625//9 623//9
f 620//9 624//9 625//9
f 624//839 608//839 625//839
f 625//840 611//840 623//840
f 608//841 611//841 625//841
f 600//842 608//842 624//842
f 240//843 600//843 624//843
f 237//8 240//8 624//8
f 623//844 611//844 622//844
f 611//845 607//845 622//845
f 622//846 607//846 619//846
f 188//15 621//15 189//15
f 232//847 237//847 621//847
f 188//14 232//14 621//14
f 626//848 615//848 610//848
f 186//8 187//8 615//8
f 615//8 111//8 186//8
f 111//849 615//849 626//849
f 626//850 610//850 613//850
f 626//851 627//851 111//851
f 613//852 627//852 626//852
f 613//853 106//853 627//853
f 106//854 110//854 627//854
f 627//855 110//855 111//855
f 105//856 106//856 613//856
f 613//857 612//857 105//857
f 105//858 612//858 628//858
f 628//782 612//782 605//782
f 605//782 629//782 628//782
f 104//15 628//15 629//15
f 628//859 104//859 105//859
f 629//15 630//15 104//15
f 630//860 629//860 605//860
f 630//14 98//14 99//14
f 98//861 630//861 604//861
f 605//862 604//862 630//862
f 99//14 104//14 630//14
f 604//863 177//863 98//863
f 177//864 604//864 179//864
f 602//865 184//865 179//865
f 184//866 602//866 188//866
f 230//867 188//867 602//867
f 236//868 234//868 225//868
f 227//15 225//15 234//15
f 221//869 223//869 229//869
f 195//870 190//870 185//870
f 185//55 186//55 111//55
f 117//8 185//8 111//8
f 184//871 180//871 179//871
f 121//14 123//14 182//14
f 93//873 98//873 177//873
f 87//874 88//874 73//874
f 73//874 75//874 87//874
f 63//875 81//875 84//875
f 64//876 78//876 81//876
f 81//877 63//877 64//877
f 36//878 45//878 39//878
f 24//43 23//43 43//43
f 9//880 2//880 4//880
