# Blender 5.0.1
# www.blender.org
mtllib right_shoulder_x_link_visual_3.mtl
o i01.rightArm.shoulder.full.004_visual.001
v -0.000000 -0.022390 0.082078
v -0.000000 -0.016920 -0.001112
v -0.016265 -0.022285 0.080481
v 0.016264 -0.022285 0.080481
v -0.000000 0.011450 0.084303
v -0.016265 0.011555 0.082705
v 0.016265 0.011555 0.082705
v 0.031905 0.011866 0.077970
v -0.000000 0.016920 0.001113
v -0.031905 0.011866 0.077970
v -0.046318 0.012372 0.070283
v -0.058952 0.013052 0.059937
v -0.069320 0.013881 0.047331
v -0.077024 0.014827 0.032948
v -0.081768 0.015853 0.017343
v -0.083370 0.016920 0.001113
v -0.081768 0.017987 -0.015118
v -0.077024 0.019013 -0.030724
v -0.069319 0.019959 -0.045106
v -0.058951 0.020788 -0.057713
v -0.046318 0.021468 -0.068056
v -0.031904 0.021974 -0.075745
v -0.016265 0.022285 -0.080480
v 0.000000 0.022390 -0.082078
v 0.016264 0.022285 -0.080480
v 0.031904 0.021974 -0.075745
v 0.046318 0.021468 -0.068056
v 0.058951 0.020788 -0.057713
v 0.069319 0.019959 -0.045106
v 0.077024 0.019013 -0.030724
v 0.081768 0.017987 -0.015118
v 0.083370 0.016920 0.001112
v 0.081768 0.015853 0.017343
v 0.077024 0.014827 0.032948
v 0.069319 0.013881 0.047331
v 0.058952 0.013052 0.059937
v 0.046318 0.012372 0.070283
v 0.046318 -0.021468 0.068057
v 0.031904 -0.021974 0.075745
v 0.058951 -0.020788 0.057713
v 0.069319 -0.019959 0.045106
v 0.077024 -0.019014 0.030724
v 0.081768 -0.017987 0.015119
v 0.083370 -0.016920 -0.001112
v 0.081768 -0.015853 -0.017342
v 0.077024 -0.014827 -0.032948
v 0.069319 -0.013881 -0.047330
v 0.058951 -0.013052 -0.059937
v 0.046318 -0.012372 -0.070282
v 0.031904 -0.011866 -0.077970
v 0.016265 -0.011555 -0.082705
v -0.000000 -0.011450 -0.084304
v -0.016265 -0.011555 -0.082705
v -0.031904 -0.011866 -0.077970
v -0.046318 -0.012372 -0.070282
v -0.058951 -0.013052 -0.059937
v -0.069319 -0.013881 -0.047332
v -0.077024 -0.014827 -0.032948
v -0.081768 -0.015853 -0.017343
v -0.083370 -0.016920 -0.001112
v -0.081768 -0.017987 0.015119
v -0.077024 -0.019013 0.030724
v -0.069320 -0.019959 0.045106
v -0.058952 -0.020788 0.057713
v -0.046318 -0.021468 0.068057
v -0.031904 -0.021974 0.075745
vn -0.0000 -0.9978 -0.0656
vn -0.0980 -0.0653 0.9930
vn 0.0980 -0.0653 0.9930
vn 0.2903 -0.0628 0.9549
vn -0.0000 0.9978 0.0656
vn 0.6344 -0.0507 0.7714
vn 0.4714 -0.0579 0.8800
vn 0.2904 -0.0628 0.9548
vn 0.6343 -0.0507 0.7714
vn 0.7730 -0.0416 0.6330
vn 0.8819 -0.0309 0.4704
vn 0.9569 -0.0191 0.2897
vn 0.9569 -0.0190 0.2897
vn 0.9952 -0.0064 0.0978
vn 0.9952 0.0064 -0.0978
vn 0.9569 0.0191 -0.2896
vn 0.9569 0.0190 -0.2897
vn 0.8819 0.0309 -0.4704
vn 0.7730 0.0416 -0.6330
vn 0.6344 0.0507 -0.7714
vn 0.6343 0.0507 -0.7714
vn 0.4714 0.0579 -0.8800
vn 0.2903 0.0628 -0.9549
vn 0.0980 0.0653 -0.9930
vn -0.0980 0.0653 -0.9930
vn -0.2903 0.0628 -0.9549
vn -0.4714 0.0579 -0.8800
vn -0.6344 0.0507 -0.7714
vn -0.7730 0.0416 -0.6331
vn -0.6343 0.0507 -0.7714
vn -0.8819 0.0309 -0.4704
vn -0.7730 0.0416 -0.6330
vn -0.9569 0.0190 -0.2897
vn -0.9952 0.0064 -0.0978
vn -0.9952 -0.0064 0.0978
vn -0.9569 -0.0190 0.2897
vn -0.8819 -0.0309 0.4704
vn -0.7730 -0.0416 0.6330
vn -0.6343 -0.0507 0.7714
vn -0.4714 -0.0579 0.8800
vn -0.6344 -0.0507 0.7714
vn -0.2904 -0.0628 0.9548
vn -0.2903 -0.0628 0.9549
s 0
usemtl Material.014
f 4//1 1//1 2//1
f 2//1 1//1 3//1
f 1//2 6//2 3//2
f 1//3 4//3 7//3
f 1//2 5//2 6//2
f 1//3 7//3 5//3
f 8//4 7//4 4//4
f 9//5 7//5 8//5
f 9//5 5//5 7//5
f 9//5 6//5 5//5
f 9//5 10//5 6//5
f 9//5 11//5 10//5
f 9//5 12//5 11//5
f 9//5 13//5 12//5
f 9//5 14//5 13//5
f 9//5 15//5 14//5
f 9//5 16//5 15//5
f 9//5 17//5 16//5
f 9//5 18//5 17//5
f 9//5 19//5 18//5
f 9//5 20//5 19//5
f 9//5 21//5 20//5
f 9//5 22//5 21//5
f 9//5 23//5 22//5
f 9//5 24//5 23//5
f 9//5 25//5 24//5
f 9//5 26//5 25//5
f 9//5 27//5 26//5
f 9//5 28//5 27//5
f 9//5 29//5 28//5
f 9//5 30//5 29//5
f 9//5 31//5 30//5
f 9//5 32//5 31//5
f 9//5 33//5 32//5
f 9//5 34//5 33//5
f 9//5 35//5 34//5
f 9//5 36//5 35//5
f 9//5 37//5 36//5
f 9//5 8//5 37//5
f 36//6 37//6 38//6
f 37//7 8//7 39//7
f 37//7 39//7 38//7
f 2//1 38//1 39//1
f 2//1 39//1 4//1
f 8//8 4//8 39//8
f 36//9 38//9 40//9
f 2//1 40//1 38//1
f 35//10 40//10 41//10
f 2//1 41//1 40//1
f 35//10 36//10 40//10
f 34//11 41//11 42//11
f 2//1 42//1 41//1
f 34//11 35//11 41//11
f 33//12 42//12 43//12
f 2//1 43//1 42//1
f 33//13 34//13 42//13
f 32//14 43//14 44//14
f 2//1 44//1 43//1
f 32//14 33//14 43//14
f 31//15 44//15 45//15
f 2//1 45//1 44//1
f 31//15 32//15 44//15
f 30//16 45//16 46//16
f 2//1 46//1 45//1
f 30//17 31//17 45//17
f 29//18 46//18 47//18
f 2//1 47//1 46//1
f 29//18 30//18 46//18
f 28//19 47//19 48//19
f 2//1 48//1 47//1
f 28//19 29//19 47//19
f 27//20 48//20 49//20
f 2//1 49//1 48//1
f 27//21 28//21 48//21
f 26//22 49//22 50//22
f 2//1 50//1 49//1
f 26//22 27//22 49//22
f 25//23 50//23 51//23
f 2//1 51//1 50//1
f 25//23 26//23 50//23
f 24//24 51//24 52//24
f 2//1 52//1 51//1
f 24//24 25//24 51//24
f 53//25 24//25 52//25
f 2//1 53//1 52//1
f 54//26 23//26 53//26
f 2//1 54//1 53//1
f 53//25 23//25 24//25
f 55//27 22//27 54//27
f 2//1 55//1 54//1
f 54//26 22//26 23//26
f 56//28 21//28 55//28
f 2//1 56//1 55//1
f 55//27 21//27 22//27
f 57//29 20//29 56//29
f 2//1 57//1 56//1
f 56//30 20//30 21//30
f 58//31 19//31 57//31
f 2//1 58//1 57//1
f 57//32 19//32 20//32
f 59//33 18//33 58//33
f 2//1 59//1 58//1
f 58//31 18//31 19//31
f 60//34 17//34 59//34
f 2//1 60//1 59//1
f 59//33 17//33 18//33
f 61//35 16//35 60//35
f 2//1 61//1 60//1
f 60//34 16//34 17//34
f 62//36 15//36 61//36
f 2//1 62//1 61//1
f 61//35 15//35 16//35
f 63//37 14//37 62//37
f 2//1 63//1 62//1
f 62//36 14//36 15//36
f 64//38 13//38 63//38
f 2//1 64//1 63//1
f 63//37 13//37 14//37
f 65//39 12//39 64//39
f 2//1 65//1 64//1
f 64//38 12//38 13//38
f 66//40 11//40 65//40
f 2//1 66//1 65//1
f 65//41 11//41 12//41
f 3//42 10//42 66//42
f 2//1 3//1 66//1
f 66//40 10//40 11//40
f 3//43 6//43 10//43
