# Blender 5.0.1
# www.blender.org
mtllib right_elbow_x_link_visual_0.mtl
o i01.right.bicep.full.001_visual.001
v 0.134796 0.366425 0.101344
v -0.000377 0.357758 -0.269264
v -0.135537 0.366428 0.101344
v 0.091905 0.367519 0.101153
v 0.134796 0.372692 0.138102
v 0.134796 0.442001 0.088526
v 0.104818 0.382876 0.098550
v 0.101714 0.372523 0.100306
v 0.100635 0.391391 0.097105
v 0.168168 0.366425 0.101344
v 0.168168 0.357757 -0.269263
v 0.111515 0.313411 -0.261770
v 0.111212 0.320254 -0.262927
v 0.107710 0.326362 -0.263959
v 0.098980 0.330453 -0.264650
v 0.168168 0.169649 -0.237475
v 0.142899 0.287099 -0.257324
v -0.000384 0.287100 -0.257324
v 0.097570 0.302557 -0.259936
v 0.143004 0.219376 0.054419
v 0.143004 0.169649 -0.237476
v 0.106423 0.305326 -0.260404
v 0.142899 0.354934 0.141102
v 0.142894 -0.280380 0.248463
v -0.143653 0.354937 0.141102
v 0.168168 0.372691 0.138102
v 0.168168 -0.197325 0.125105
v 0.168168 0.219376 0.054419
v 0.168168 -0.303496 0.252369
v 0.126341 -0.304569 0.252551
v 0.121272 -0.303496 0.252369
v 0.168164 -0.313238 0.199276
v 0.126388 -0.316904 0.182745
v 0.168168 -0.329000 0.109036
v 0.168168 -0.336271 0.042699
v 0.050018 -0.336271 0.042699
v 0.168168 -0.367725 0.011314
v 0.050018 -0.367725 0.011314
v 0.168168 -0.417333 -0.052968
v 0.168168 -0.416862 -0.138363
v 0.168167 -0.247097 -0.167051
v 0.143002 -0.247097 -0.167051
v 0.142895 -0.348220 -0.149962
v 0.113397 -0.379373 -0.144697
v 0.050406 -0.348219 -0.149962
v 0.143002 -0.197325 0.125105
v 0.100517 -0.367544 -0.146696
v 0.109320 -0.371758 -0.145985
v 0.132264 -0.432706 -0.135684
v 0.142894 -0.286579 0.212117
v 0.050406 -0.294489 0.178617
v -0.050812 -0.294488 0.178617
v -0.143306 -0.286577 0.212117
v -0.143306 -0.280378 0.248462
v -0.124147 -0.305202 0.252644
v -0.143365 -0.197482 0.125132
v -0.168166 -0.303493 0.252370
v -0.088718 -0.302012 0.252118
v 0.089638 -0.300616 0.251882
v 0.094383 -0.309836 0.190214
v 0.100516 -0.303082 0.252299
v 0.083690 -0.311415 0.190481
v 0.079312 -0.305936 0.252782
v -0.078416 -0.307104 0.252979
v -0.076207 -0.320074 0.191949
v -0.086905 -0.311353 0.190471
v -0.075214 -0.316533 0.254572
v -0.080558 -0.314463 0.191000
v -0.075824 -0.329655 0.193575
v -0.077758 -0.323996 0.255833
v 0.076013 -0.313748 0.254102
v 0.077075 -0.318615 0.191702
v 0.077590 -0.322001 0.255496
v -0.082956 -0.328431 0.256583
v 0.076229 -0.327950 0.193285
v 0.082522 -0.335956 0.194643
v 0.090122 -0.338466 0.195070
v 0.098109 -0.337367 0.194884
v 0.105744 -0.330963 0.193797
v 0.092060 -0.329657 0.256790
v 0.100813 -0.326994 0.256340
v 0.107106 -0.318985 0.254987
v 0.126342 -0.352071 0.260579
v 0.168168 -0.376794 0.264745
v -0.131564 -0.387836 0.266622
v 0.106291 -0.395646 0.267941
v 0.150531 -0.352103 0.260583
v 0.150577 -0.368350 0.188384
v 0.126387 -0.368334 0.188381
v -0.124153 -0.351582 0.260494
v -0.168166 -0.376304 0.264673
v -0.148160 -0.351582 0.260494
v -0.124153 -0.320274 0.183113
v -0.124153 -0.366908 0.188226
v -0.091273 -0.330437 0.256923
v -0.100559 -0.326406 0.256243
v 0.084236 -0.327865 0.256487
v -0.096996 -0.337623 0.194928
v -0.102474 -0.333269 0.194188
v -0.105241 -0.317974 0.254818
v -0.105351 -0.323743 0.192573
v -0.103453 -0.309795 0.253433
v -0.098578 -0.304401 0.252522
v -0.100557 -0.314917 0.191076
v -0.080957 -0.336131 0.194674
v -0.094280 -0.311653 0.190522
v -0.088717 -0.339310 0.195213
v -0.148160 -0.366908 0.188226
v -0.168166 -0.368321 0.188379
v -0.168166 -0.380349 0.114668
v -0.168166 -0.400505 0.131783
v -0.148160 -0.339178 0.185187
v -0.168166 -0.339178 0.185187
v -0.168166 -0.324018 0.255836
v -0.148160 -0.324018 0.255837
v -0.131729 -0.424916 0.013216
v -0.131564 -0.401994 0.192071
v -0.131564 -0.414022 0.118358
v -0.168166 -0.387620 0.048328
v -0.168166 -0.413722 0.006322
v -0.131626 -0.432582 -0.135706
v -0.168166 -0.418122 -0.080623
v -0.168166 -0.367725 0.011314
v -0.052170 -0.367725 0.011314
v -0.168166 -0.336271 0.042699
v -0.052170 -0.336271 0.042699
v -0.052170 -0.329000 0.109036
v -0.050812 -0.348218 -0.149962
v -0.095121 -0.369062 -0.146440
v -0.088772 -0.372175 -0.145914
v -0.084423 -0.377784 -0.144966
v -0.047951 -0.424084 -0.137141
v -0.143306 -0.348218 -0.149962
v -0.108773 -0.372625 -0.145838
v -0.113566 -0.381453 -0.144346
v -0.102493 -0.369361 -0.146389
v -0.143365 -0.247254 -0.167025
v -0.168166 -0.247254 -0.167025
v -0.168166 -0.416859 -0.138363
v -0.168166 -0.197482 0.125134
v -0.168166 0.219911 0.054329
v -0.143353 0.219910 0.054328
v -0.168168 -0.314012 0.196025
v -0.168166 0.372694 0.138101
v -0.135537 0.372694 0.138101
v -0.168166 0.366428 0.101345
v -0.168166 0.357759 -0.269260
v -0.110874 0.322980 -0.263387
v -0.168166 0.170183 -0.237567
v -0.103034 0.329638 -0.264512
v -0.112241 0.315101 -0.262055
v -0.143653 0.287101 -0.257325
v -0.109146 0.307306 -0.260739
v -0.143353 0.170183 -0.237567
v -0.095924 0.302973 -0.260007
v -0.102355 0.303298 -0.260061
v -0.101640 0.313564 -0.197888
v -0.085724 0.322039 -0.199327
v -0.110806 0.333225 -0.201225
v -0.092008 0.314668 -0.198076
v -0.112371 0.327042 -0.200176
v -0.085135 0.330018 -0.200680
v -0.109645 0.318468 -0.198721
v -0.088172 0.335846 -0.201668
v -0.087863 0.325240 -0.263769
v -0.084657 0.315068 -0.262050
v -0.089095 0.306461 -0.260596
v -0.094625 0.329535 -0.264495
v -0.093341 0.339678 -0.202318
v -0.106562 0.338249 -0.202076
v -0.099954 0.340613 -0.202476
v 0.088148 0.374001 0.137879
v -0.104442 0.387772 0.135553
v -0.135536 0.448274 0.125328
v 0.080457 0.377731 0.137250
v -0.090682 0.373995 0.137881
v -0.102878 0.381495 0.136612
v -0.102878 0.393953 0.134509
v -0.098375 0.376241 0.137500
v -0.098634 0.398980 0.133659
v -0.102944 0.388011 0.097679
v -0.095104 0.394666 0.096549
v -0.092026 0.401344 0.133259
v -0.085413 0.400411 0.133417
v -0.084077 0.393794 0.096697
v -0.080243 0.396578 0.134066
v 0.081651 0.370336 0.100677
v -0.135536 0.442002 0.088523
v -0.077793 0.386422 0.097949
v -0.077066 0.379891 0.099056
v -0.077205 0.390747 0.135050
v -0.078319 0.381130 0.136674
v -0.080146 0.372335 0.100337
v -0.084435 0.375564 0.137613
v -0.087994 0.368004 0.101072
v -0.094424 0.368329 0.101017
v -0.101215 0.372335 0.100337
v -0.104311 0.380133 0.099016
v 0.079688 0.390467 0.097261
v 0.085349 0.394515 0.096576
v 0.076894 0.377477 0.099465
v 0.076547 0.384560 0.098265
v 0.076079 0.386771 0.135722
v 0.078102 0.394492 0.134418
v 0.083700 0.400143 0.133463
v 0.094300 0.401361 0.133257
v 0.134796 0.448272 0.125328
v 0.093275 0.395144 0.096468
v 0.102180 0.395789 0.134198
v 0.104582 0.389353 0.135285
v 0.103832 0.382742 0.136403
v 0.097665 0.375514 0.137624
v -0.168166 -0.329000 0.109036
v -0.096933 -0.357951 -0.083338
v -0.106795 -0.360340 -0.082932
v -0.111668 -0.365733 -0.082017
v -0.086631 -0.363042 -0.082474
v -0.099488 -0.386373 -0.078517
v -0.083430 -0.372469 -0.080875
v -0.085974 -0.379932 -0.079608
v -0.084039 -0.387365 -0.143347
v -0.089174 -0.393844 -0.142252
v -0.096934 -0.397022 -0.141714
v -0.091168 -0.384365 -0.078856
v -0.105214 -0.395333 -0.142000
v -0.108773 -0.382344 -0.079200
v -0.110690 -0.390979 -0.142736
v -0.113456 -0.373912 -0.080630
v -0.052170 -0.387620 0.048328
v 0.000757 -0.448274 -0.133054
v -0.090204 -0.441244 -0.134241
v -0.045629 -0.446512 -0.133350
v 0.047538 -0.424084 -0.137141
v 0.082365 -0.385661 -0.143635
v 0.050018 -0.387620 0.048328
v 0.047154 -0.446453 -0.133360
v 0.091758 -0.441115 -0.134263
v 0.083212 -0.376323 -0.145213
v 0.096255 -0.396178 -0.141857
v 0.088656 -0.393666 -0.142282
v 0.090372 -0.383801 -0.078951
v 0.083726 -0.377938 -0.079947
v 0.082148 -0.369688 -0.081347
v 0.098196 -0.385593 -0.078649
v 0.113241 -0.374923 -0.080458
v 0.085447 -0.361875 -0.082672
v 0.112412 -0.365732 -0.082018
v 0.104244 -0.395079 -0.142043
v 0.106949 -0.382930 -0.079099
v 0.111879 -0.388675 -0.143126
v 0.106651 -0.359021 -0.083156
v 0.095775 -0.356554 -0.083575
v 0.089824 -0.369125 -0.146429
v 0.132264 -0.429768 -0.079345
v 0.046480 -0.438941 0.014959
v 0.091050 -0.433619 0.014432
v 0.087083 -0.422228 0.128185
v 0.046672 -0.428005 0.119890
v 0.132356 -0.425022 0.012292
v 0.136084 -0.410922 0.133603
v 0.168168 -0.404476 0.102562
v 0.168168 -0.380349 0.114666
v 0.168168 -0.387620 0.048328
v 0.168168 -0.368321 0.188379
v 0.168168 -0.319772 0.255120
v 0.150577 -0.335827 0.184818
v 0.168168 -0.335827 0.184818
v 0.150531 -0.319751 0.255116
v 0.000350 -0.417776 0.193802
v 0.046671 -0.415976 0.193604
v 0.000350 -0.429804 0.120089
v 0.000144 -0.440728 0.015115
v -0.045972 -0.428005 0.119890
v -0.045972 -0.415976 0.193604
v -0.090513 -0.396406 0.268070
v -0.090513 -0.410648 0.193019
v -0.045972 -0.401682 0.268962
v 0.000350 -0.403464 0.269263
v 0.046671 -0.401683 0.268962
v -0.090513 -0.422676 0.119305
v -0.046173 -0.438914 0.014893
v -0.090698 -0.433576 0.014251
v -0.052170 -0.316971 0.182753
v 0.050018 -0.316971 0.182753
v 0.050018 -0.329000 0.109036
v 0.106276 -0.309793 0.253434
v 0.107261 -0.321663 0.192219
v 0.103184 -0.314049 0.190929
v 0.110908 0.322014 -0.199323
v 0.104742 0.314785 -0.198096
v 0.095222 0.313273 -0.197839
v 0.083154 0.326041 -0.200006
v 0.087532 0.317003 -0.198473
v 0.109255 0.335059 -0.201535
v 0.111658 0.328623 -0.200443
v 0.088728 0.305304 -0.260400
v 0.085178 0.333762 -0.201316
v 0.083623 0.319531 -0.262805
v 0.090776 0.339412 -0.202271
v 0.088713 0.327615 -0.264171
v 0.101375 0.340629 -0.202479
v 0.083970 0.312447 -0.261607
vn -0.0000 0.9997 -0.0234
vn -0.0000 -0.1718 -0.9851
vn 0.0001 -0.1673 -0.9859
vn 1.0000 -0.0000 -0.0000
vn -0.0000 0.9858 -0.1680
vn 0.0001 -0.1672 -0.9859
vn -0.0000 -0.1666 -0.9860
vn 0.0001 -0.1667 -0.9860
vn -0.0000 -0.9858 0.1678
vn -0.0000 -0.1665 -0.9860
vn -1.0000 -0.0009 0.0001
vn -1.0000 -0.0002 -0.0010
vn -0.0000 0.1666 0.9860
vn 0.0260 -0.9832 0.1804
vn -0.0000 0.1674 0.9859
vn 1.0000 -0.0001 -0.0001
vn 0.0176 -0.9846 0.1740
vn 0.0184 -0.9849 0.1720
vn 1.0000 0.0006 -0.0001
vn -0.0000 -0.7063 0.7079
vn -0.0000 -0.9940 0.1090
vn -0.0000 0.9858 -0.1679
vn -0.0000 -0.1667 -0.9860
vn -0.0000 0.9858 -0.1678
vn -1.0000 0.0010 -0.0002
vn -0.0000 0.9732 -0.2298
vn -0.0259 0.9866 -0.1613
vn -0.0000 0.9858 -0.1681
vn -0.0003 0.1659 0.9861
vn 0.0003 0.1664 0.9861
vn 1.0000 0.0005 -0.0001
vn 0.0001 0.1666 0.9860
vn -0.0000 0.1667 0.9860
vn -0.2240 -0.9663 0.1272
vn 0.1481 -0.9764 0.1574
vn -0.0000 0.1671 0.9859
vn 0.4628 -0.8796 0.1099
vn -0.0000 0.1668 0.9860
vn -0.7944 -0.5994 0.0986
vn -0.9481 -0.3164 0.0329
vn -0.4480 -0.8858 0.1211
vn -0.4449 -0.8874 0.1207
vn -0.0008 0.1661 0.9861
vn -0.9992 -0.0370 0.0179
vn -0.9479 0.3133 -0.0579
vn 0.9230 -0.3821 0.0455
vn 0.9960 -0.0863 0.0237
vn 0.9827 0.1812 -0.0388
vn -0.0000 0.1669 0.9860
vn -0.0003 0.1671 0.9859
vn 0.7901 0.6083 -0.0755
vn -0.0001 0.1673 0.9859
vn -0.0001 0.1672 0.9859
vn -0.0000 0.1673 0.9859
vn -0.6477 0.7554 -0.0990
vn -0.2949 0.9443 -0.1464
vn -0.1382 0.9811 -0.1357
vn -0.7905 0.6041 -0.1007
vn 0.0001 0.1663 0.9861
vn 0.0002 0.1665 0.9860
vn 0.0013 0.9756 -0.2195
vn 0.0007 0.9756 -0.2197
vn 1.0000 0.0001 0.0006
vn -0.0002 0.1666 0.9860
vn -0.0000 0.9782 -0.2075
vn -1.0000 0.0001 0.0001
vn -1.0000 -0.0000 -0.0000
vn 0.0001 0.1664 0.9861
vn 0.0001 0.1665 0.9860
vn -0.0004 0.1669 0.9860
vn 0.3176 0.9390 -0.1317
vn 0.6668 0.7363 -0.1148
vn 0.2263 0.9633 -0.1446
vn -0.0014 0.1659 0.9861
vn 0.6274 0.7716 -0.1047
vn 0.4029 0.9042 -0.1420
vn 0.8771 0.4736 -0.0795
vn -0.0005 0.1670 0.9859
vn 0.9582 0.2846 -0.0281
vn 0.9774 -0.2107 0.0178
vn -0.0006 0.1670 0.9860
vn 0.7464 -0.6595 0.0888
vn 0.8816 -0.4653 0.0792
vn 0.0001 0.1673 0.9859
vn 0.0001 0.1672 0.9859
vn 0.4664 -0.8742 0.1346
vn 0.0411 -0.9877 0.1509
vn 0.2385 -0.9625 0.1291
vn -0.0000 0.1672 0.9859
vn -0.3835 0.9149 -0.1262
vn -0.7877 0.6108 -0.0800
vn -0.6543 0.7476 -0.1141
vn -0.2376 0.9600 -0.1479
vn 0.2023 0.9705 -0.1312
vn 0.0003 0.1679 0.9858
vn -0.0006 0.1695 0.9855
vn -0.0000 -0.1090 -0.9940
vn -0.0000 -0.1080 -0.9941
vn -0.0000 -0.1081 -0.9941
vn -0.0000 0.9869 -0.1610
vn 0.0001 -0.1089 -0.9941
vn -0.0000 -0.1089 -0.9941
vn -0.0000 0.9777 -0.2098
vn -0.3178 -0.9328 0.1699
vn -0.3094 -0.9457 0.0996
vn -0.3128 -0.9447 0.0984
vn -0.2921 -0.9439 0.1540
vn -0.3017 -0.9521 0.0488
vn -0.3039 -0.9515 0.0482
vn -0.0000 0.8808 0.4734
vn 0.9999 -0.0075 0.0075
vn 0.9987 -0.0504 0.0055
vn 0.9975 -0.0693 0.0113
vn 0.0260 0.9866 -0.1613
vn 0.9991 0.0399 0.0132
vn -0.3939 -0.9189 -0.0201
vn -0.0000 -0.1672 -0.9859
vn -0.0001 -0.1672 -0.9859
vn -0.0001 -0.1666 -0.9860
vn -0.0001 -0.1665 -0.9860
vn 1.0000 0.0025 -0.0004
vn -0.0001 -0.1664 -0.9861
vn 0.5136 0.8456 -0.1455
vn 0.0512 0.9853 -0.1633
vn -0.1154 0.9774 -0.1773
vn -0.0000 -0.1673 -0.9859
vn 0.5278 0.8367 -0.1463
vn 0.9542 0.2941 -0.0547
vn 0.9312 0.3600 -0.0573
vn 0.0001 -0.1671 -0.9859
vn -0.8895 -0.4511 0.0726
vn -0.9549 -0.2902 0.0633
vn -0.9973 0.0694 -0.0247
vn -0.8914 0.4486 -0.0650
vn -0.7655 0.6324 -0.1187
vn -0.4599 0.8774 -0.1366
vn -0.5415 -0.8279 0.1462
vn -0.6010 -0.7883 0.1316
vn -0.1418 -0.9765 0.1622
vn -0.0125 -0.9845 0.1748
vn 0.3409 -0.9285 0.1473
vn 0.0001 -0.1670 -0.9860
vn 0.7684 -0.6316 0.1033
vn 0.6525 -0.7448 0.1396
vn 0.9857 -0.1652 0.0340
vn 0.9703 -0.2390 0.0383
vn -0.0000 -0.9858 0.1679
vn -0.0000 0.1664 0.9861
vn -0.0000 0.1651 0.9863
vn -0.0002 0.1668 0.9860
vn 0.0001 0.1667 0.9860
vn 0.7685 -0.6319 0.1006
vn 0.6524 -0.7432 0.1484
vn 0.3411 -0.9295 0.1405
vn -0.0001 0.1665 0.9860
vn -0.1416 -0.9751 0.1706
vn -0.0800 -0.9795 0.1849
vn -0.6009 -0.7902 0.1205
vn -0.7655 -0.6311 0.1255
vn -0.0000 -0.1671 -0.9859
vn -0.0000 -0.1675 -0.9859
vn -0.8894 -0.4522 0.0668
vn -0.9940 -0.1058 0.0281
vn -0.9934 0.1089 -0.0367
vn -0.0000 0.1665 0.9860
vn -0.9277 0.3708 -0.0431
vn -0.6781 0.7214 -0.1405
vn -0.0000 0.1685 0.9857
vn -0.4884 0.8627 -0.1309
vn -0.2470 0.9534 -0.1732
vn 0.0001 -0.1721 -0.9851
vn -0.0000 -0.1686 -0.9857
vn 0.0512 0.9863 -0.1568
vn -0.0000 -0.1674 -0.9859
vn -0.0001 -0.1675 -0.9859
vn 0.2839 0.9430 -0.1738
vn 0.5135 0.8484 -0.1284
vn -0.0002 -0.1671 -0.9859
vn 0.7637 0.6334 -0.1249
vn 0.9311 0.3615 -0.0486
vn -0.0001 -0.1673 -0.9859
vn 0.9711 0.2342 -0.0455
vn -0.0002 -0.1673 -0.9859
vn 0.9856 -0.1646 0.0379
vn -0.0001 -0.1674 -0.9859
vn 0.8856 -0.4562 0.0872
vn 0.9987 0.0506 0.0095
vn 0.9681 -0.2491 0.0268
vn 0.7153 -0.6908 0.1054
vn 0.5870 -0.7960 0.1477
vn 0.1157 -0.9811 0.1549
vn 0.0803 -0.9832 0.1639
vn -0.5827 -0.8038 0.1196
vn -0.4594 -0.8736 0.1604
vn -0.9385 -0.3411 0.0541
vn -0.8999 -0.4272 0.0881
vn -0.9938 0.1085 -0.0255
vn -0.0002 0.1667 0.9860
vn -0.9587 0.2834 -0.0240
vn -0.7650 0.6301 -0.1335
vn -0.1591 0.9693 -0.1873
vn -0.4593 0.8801 -0.1204
vn -0.0002 -0.1670 -0.9860
vn 0.9022 0.4222 -0.0879
vn 0.8359 0.5427 -0.0825
vn 0.4413 0.8822 -0.1640
vn 0.2682 0.9530 -0.1407
vn 0.9703 -0.2392 0.0369
vn -0.0900 -0.9815 0.1691
vn -0.0767 -0.9744 0.2112
vn -0.0393 -0.9823 0.1834
vn -1.0000 -0.0004 -0.0000
vn -0.0000 -0.9931 0.1170
vn 1.0000 0.0004 0.0028
vn 0.2386 -0.9591 0.1525
vn 0.0411 -0.9838 0.1744
vn 0.4663 -0.8708 0.1554
vn 0.7466 -0.6569 0.1048
vn -0.4481 -0.8825 0.1425
vn -0.4452 -0.8841 0.1423
vn -0.7944 -0.5968 0.1127
vn -0.9482 -0.3151 0.0408
vn -0.9991 -0.0369 0.0185
vn 0.0003 -0.1675 -0.9859
vn -0.9478 0.3120 -0.0652
vn -0.7879 0.6085 -0.0949
vn -0.0001 -0.1667 -0.9860
vn -0.3836 0.9115 -0.1484
vn -0.6545 0.7445 -0.1319
vn -0.2378 0.9562 -0.1707
vn 0.2025 0.9670 -0.1547
vn 0.4028 0.9006 -0.1634
vn 0.6277 0.7686 -0.1234
vn 0.9584 0.2834 -0.0352
vn 0.8771 0.4718 -0.0906
vn 0.9775 -0.2098 0.0231
vn 0.8815 -0.4635 0.0900
vn 0.9994 0.0310 0.0166
vn -0.0000 0.9812 -0.1929
vn -0.9998 0.0182 0.0098
vn -0.9993 0.0382 0.0022
vn 0.6668 0.7334 -0.1323
vn 0.3178 0.9355 -0.1543
vn 0.7904 0.6059 -0.0904
vn 0.9826 0.1806 -0.0429
vn -0.0003 -0.1678 -0.9858
vn -0.1382 0.9775 -0.1594
vn 0.2263 0.9595 -0.1676
vn 0.0003 -0.1676 -0.9859
vn 0.0001 -0.1674 -0.9859
vn -0.2949 0.9405 -0.1689
vn -0.6479 0.7526 -0.1174
vn -0.7904 0.6017 -0.1149
vn 0.0001 -0.1666 -0.9860
vn -0.9872 0.1588 -0.0134
vn -0.7633 -0.6387 0.0971
vn -0.9960 -0.0892 0.0038
vn -0.8843 -0.4589 0.0860
vn -0.4367 -0.8851 0.1609
vn -0.2242 -0.9628 0.1508
vn 0.0001 -0.1675 -0.9859
vn 0.1482 -0.9724 0.1804
vn 0.4631 -0.8765 0.1315
vn 0.7411 -0.6595 0.1259
vn 0.9232 -0.3805 0.0549
vn 0.9960 -0.0860 0.0255
vn 0.2047 -0.9775 0.0510
vn 0.2057 -0.9773 0.0502
vn 0.1197 -0.9915 0.0508
vn 0.1190 -0.9916 0.0506
vn 0.2060 -0.9772 0.0504
vn 0.2078 -0.9725 0.1046
vn 0.1200 -0.9874 0.1031
vn 0.1191 -0.9876 0.1027
vn 0.2944 -0.9544 0.0491
vn 0.2124 -0.9714 0.1064
vn 0.3421 -0.9365 0.0774
vn 0.2896 -0.9517 0.1017
vn 0.3394 -0.9272 0.1583
vn -0.0000 0.9940 -0.1090
vn -0.0017 0.9869 -0.1610
vn 0.0007 0.9870 -0.1605
vn -0.0000 0.9870 -0.1609
vn -0.0001 -0.1090 -0.9940
vn -0.0000 -0.1089 -0.9940
vn -0.0000 0.9748 -0.2229
vn 0.0012 0.9749 -0.2226
vn -0.0001 0.1666 0.9860
vn -1.0000 -0.0001 -0.0006
vn 0.2952 -0.9398 0.1723
vn 0.2057 -0.9662 0.1555
vn 0.0390 -0.9862 0.1609
vn 0.1074 -0.9812 0.1601
vn 0.0390 -0.9939 0.1035
vn -0.0390 -0.9862 0.1609
vn -0.0390 -0.9939 0.1035
vn 0.0387 -0.9939 0.1034
vn -0.0389 -0.9817 0.1862
vn -0.1191 -0.9755 0.1851
vn -0.1193 -0.9755 0.1850
vn -0.1193 -0.9799 0.1599
vn -0.0390 -0.9817 0.1862
vn 0.1480 -0.9717 0.1843
vn 0.1021 -0.9797 0.1723
vn 0.0390 -0.9817 0.1862
vn 0.0389 -0.9817 0.1862
vn -0.2071 -0.9612 0.1824
vn -0.2072 -0.9655 0.1576
vn -0.2068 -0.9612 0.1825
vn -0.1195 -0.9875 0.1028
vn -0.2075 -0.9730 0.1013
vn -0.1199 -0.9875 0.1027
vn -0.1182 -0.9917 0.0508
vn -0.2075 -0.9770 0.0498
vn -0.1196 -0.9915 0.0504
vn -0.2079 -0.9729 0.1011
vn -0.0382 -0.9980 0.0510
vn -0.0393 -0.9979 0.0507
vn -0.0394 -0.9939 0.1033
vn 0.0395 -0.9979 0.0510
vn 0.0387 -0.9980 0.0507
vn 0.4062 -0.9125 0.0476
vn 0.3307 -0.9437 -0.0052
vn -0.2061 -0.9772 0.0502
vn 0.0460 -0.9859 0.1609
vn 0.9982 -0.0585 0.0096
vn -0.0000 -0.1809 -0.9835
vn 0.0009 -0.9869 0.1610
vn -0.9999 0.0168 -0.0027
vn -0.0000 -0.9868 0.1619
vn -0.9999 0.0144 -0.0016
vn -0.3043 -0.9358 0.1777
vn 1.0000 0.0001 0.0007
vn -0.9960 -0.0897 0.0014
vn -0.9872 0.1595 -0.0092
vn 0.0002 0.1673 0.9859
vn -0.8843 -0.4608 0.0751
vn -0.0003 0.1668 0.9860
vn -0.4368 -0.8886 0.1398
vn -0.7631 -0.6412 0.0814
vn 0.7411 -0.6622 0.1103
vn -0.9998 0.0199 -0.0032
vn -1.0000 0.0021 -0.0022
vn -0.8495 0.5215 -0.0801
vn -0.7653 0.6330 -0.1167
vn -0.3023 0.9412 -0.1510
vn -0.1591 0.9719 -0.1737
vn 0.0003 -0.1671 -0.9859
vn 0.3005 0.9417 -0.1511
vn 0.4415 0.8832 -0.1583
vn -0.0001 -0.1671 -0.9859
vn 0.9682 -0.2481 0.0329
vn 0.8495 -0.5183 0.0985
vn -0.0000 -0.1668 -0.9860
vn 0.7152 -0.6905 0.1078
vn 0.2699 -0.9475 0.1716
vn 0.1158 -0.9809 0.1561
vn -0.4291 -0.8886 0.1620
vn -0.5827 -0.8028 0.1263
vn 0.9988 0.0493 0.0023
vn 0.9023 0.4233 -0.0815
vn 0.8358 0.5421 -0.0863
vn -0.9990 -0.0420 0.0128
vn -0.9384 -0.3415 0.0524
vn -0.9938 0.1086 -0.0246
vn -0.8705 -0.4840 0.0890
s 0
usemtl Material.025
f 2//1 1//1 11//1
f 3//1 1//1 2//1
f 1//2 3//2 4//2
f 8//3 1//3 4//3
f 5//4 1//4 6//4
f 10//5 1//5 5//5
f 9//6 6//6 1//6
f 9//6 1//6 7//6
f 1//6 8//6 7//6
f 11//1 1//1 10//1
f 11//7 15//7 2//7
f 11//7 17//7 12//7
f 12//8 13//8 11//8
f 13//7 14//7 11//7
f 14//7 15//7 11//7
f 10//4 16//4 11//4
f 11//7 16//7 17//7
f 17//7 18//7 19//7
f 18//9 17//9 23//9
f 19//10 22//10 17//10
f 22//7 12//7 17//7
f 17//11 20//11 23//11
f 17//11 21//11 20//11
f 17//7 16//7 21//7
f 18//9 23//9 25//9
f 24//12 23//12 20//12
f 25//13 23//13 5//13
f 5//13 23//13 26//13
f 26//13 23//13 24//13
f 27//4 28//4 26//4
f 27//4 26//4 29//4
f 28//4 10//4 26//4
f 5//5 26//5 10//5
f 24//13 29//13 26//13
f 32//14 29//14 30//14
f 31//15 30//15 29//15
f 29//13 24//13 31//13
f 32//16 27//16 29//16
f 30//17 33//17 32//17
f 34//18 32//18 33//18
f 34//19 35//19 32//19
f 35//4 27//4 32//4
f 38//20 35//20 36//20
f 34//21 36//21 35//21
f 37//4 39//4 35//4
f 35//20 38//20 37//20
f 35//4 41//4 27//4
f 39//4 40//4 35//4
f 41//4 35//4 40//4
f 43//7 42//7 41//7
f 27//22 41//22 42//22
f 43//7 41//7 40//7
f 44//7 43//7 49//7
f 44//23 48//23 43//23
f 47//23 45//23 43//23
f 43//24 45//24 50//24
f 43//25 46//25 42//25
f 43//25 50//25 46//25
f 43//7 48//7 47//7
f 40//7 49//7 43//7
f 50//25 24//25 46//25
f 50//26 51//26 52//26
f 50//27 45//27 51//27
f 52//26 53//26 50//26
f 54//28 24//28 50//28
f 50//28 53//28 54//28
f 55//29 58//29 54//29
f 55//30 54//30 57//30
f 25//31 54//31 56//31
f 53//19 56//19 54//19
f 59//13 24//13 54//13
f 57//32 54//32 25//32
f 58//33 59//33 54//33
f 61//34 59//34 60//34
f 59//35 62//35 60//35
f 59//36 61//36 31//36
f 31//13 24//13 59//13
f 59//37 63//37 62//37
f 64//38 63//38 59//38
f 58//38 64//38 59//38
f 68//39 65//39 64//39
f 65//40 67//40 64//40
f 64//41 58//41 66//41
f 66//42 68//42 64//42
f 63//13 64//13 67//13
f 65//43 68//43 66//43
f 71//13 63//13 67//13
f 65//44 69//44 67//44
f 69//45 70//45 67//45
f 67//13 70//13 71//13
f 72//46 63//46 71//46
f 75//47 72//47 71//47
f 71//48 73//48 75//48
f 73//13 71//13 74//13
f 71//49 70//49 74//49
f 77//50 75//50 76//50
f 76//51 75//51 73//51
f 78//52 75//52 77//52
f 78//53 72//53 75//53
f 79//54 72//54 78//54
f 81//55 79//55 78//55
f 80//56 81//56 78//56
f 80//57 78//57 77//57
f 81//58 82//58 79//58
f 82//13 81//13 83//13
f 83//33 81//33 80//33
f 83//59 84//59 87//59
f 86//60 84//60 83//60
f 83//13 85//13 86//13
f 83//13 90//13 85//13
f 88//61 83//61 87//61
f 83//62 88//62 89//62
f 89//63 30//63 83//63
f 83//64 30//64 31//64
f 90//33 83//33 80//33
f 82//33 83//33 31//33
f 90//33 92//33 91//33
f 91//13 85//13 90//13
f 94//65 92//65 90//65
f 93//66 90//66 55//66
f 90//67 93//67 94//67
f 74//68 95//68 90//68
f 90//69 95//69 96//69
f 90//13 73//13 74//13
f 90//13 97//13 73//13
f 55//70 90//70 96//70
f 90//38 80//38 97//38
f 77//71 76//71 97//71
f 76//72 73//72 97//72
f 97//73 80//73 77//73
f 55//74 96//74 100//74
f 96//75 98//75 99//75
f 96//76 95//76 98//76
f 100//77 96//77 99//77
f 55//78 100//78 102//78
f 100//79 99//79 101//79
f 102//80 100//80 101//80
f 55//81 102//81 103//81
f 103//82 102//82 104//82
f 101//83 104//83 102//83
f 105//53 104//53 101//53
f 69//84 104//84 105//84
f 69//85 106//85 104//85
f 104//86 106//86 103//86
f 106//84 69//84 66//84
f 106//87 66//87 58//87
f 106//88 58//88 103//88
f 105//89 101//89 107//89
f 105//90 107//90 74//90
f 69//91 105//91 70//91
f 74//92 70//92 105//92
f 95//93 74//93 107//93
f 95//94 107//94 98//94
f 107//95 99//95 98//95
f 107//89 101//89 99//89
f 103//96 58//96 55//96
f 93//97 89//97 94//97
f 94//98 109//98 108//98
f 92//65 94//65 108//65
f 109//99 94//99 89//99
f 109//67 91//67 114//67
f 91//67 109//67 111//67
f 110//100 109//100 89//100
f 110//67 111//67 109//67
f 109//101 112//101 108//101
f 112//102 109//102 113//102
f 114//67 113//67 109//67
f 91//13 92//13 114//13
f 115//13 114//13 92//13
f 112//103 114//103 115//103
f 114//103 112//103 113//103
f 108//4 115//4 92//4
f 115//4 108//4 112//4
f 117//104 91//104 111//104
f 116//105 111//105 120//105
f 111//106 116//106 118//106
f 111//107 118//107 117//107
f 119//67 111//67 110//67
f 111//67 119//67 120//67
f 120//108 121//108 116//108
f 121//109 120//109 122//109
f 123//67 122//67 120//67
f 123//67 120//67 119//67
f 126//20 123//20 124//20
f 119//110 124//110 123//110
f 123//20 126//20 125//20
f 125//67 122//67 123//67
f 124//111 128//111 126//111
f 52//112 127//112 126//112
f 127//21 125//21 126//21
f 128//113 52//113 126//113
f 129//7 133//7 128//7
f 128//7 130//7 129//7
f 53//114 52//114 128//114
f 131//7 130//7 128//7
f 131//7 128//7 132//7
f 124//115 132//115 128//115
f 128//24 133//24 53//24
f 135//7 133//7 134//7
f 134//7 133//7 136//7
f 135//7 121//7 133//7
f 136//23 133//23 129//23
f 133//19 137//19 53//19
f 133//7 138//7 137//7
f 139//7 138//7 133//7
f 133//7 121//7 139//7
f 122//67 125//67 139//67
f 121//116 122//116 139//116
f 125//67 138//67 139//67
f 140//22 137//22 138//22
f 125//67 140//67 138//67
f 137//22 140//22 56//22
f 140//117 141//117 142//117
f 141//67 140//67 144//67
f 142//118 56//118 140//118
f 125//67 143//67 140//67
f 140//67 143//67 57//67
f 140//67 57//67 144//67
f 25//33 145//33 144//33
f 144//28 145//28 3//28
f 3//28 146//28 144//28
f 146//67 141//67 144//67
f 25//13 144//13 57//13
f 147//1 146//1 3//1
f 141//67 146//67 147//67
f 2//7 150//7 147//7
f 2//1 147//1 3//1
f 151//7 147//7 148//7
f 148//7 147//7 150//7
f 149//67 141//67 147//67
f 149//119 147//119 152//119
f 151//7 152//7 147//7
f 155//7 18//7 152//7
f 152//9 18//9 25//9
f 152//120 151//120 153//120
f 152//8 153//8 156//8
f 152//7 154//7 149//7
f 152//121 25//121 142//121
f 152//121 142//121 154//121
f 152//122 156//122 155//122
f 157//123 156//123 153//123
f 157//124 155//124 156//124
f 155//125 157//125 160//125
f 158//118 160//118 157//118
f 158//118 157//118 162//118
f 162//126 157//126 159//126
f 157//3 161//3 159//3
f 157//126 163//126 161//126
f 153//127 163//127 157//127
f 151//128 161//128 163//128
f 163//129 153//129 151//129
f 162//130 159//130 164//130
f 162//131 164//131 165//131
f 162//132 165//132 166//132
f 158//133 162//133 166//133
f 166//134 167//134 158//134
f 166//23 165//23 2//23
f 167//10 166//10 18//10
f 166//7 2//7 18//7
f 160//135 158//135 167//135
f 155//7 167//7 18//7
f 167//136 155//136 160//136
f 165//7 168//7 2//7
f 168//137 165//137 169//137
f 164//138 169//138 165//138
f 164//126 170//126 169//126
f 170//120 171//120 169//120
f 168//139 169//139 171//139
f 171//140 150//140 168//140
f 171//141 170//141 150//141
f 159//142 170//142 164//142
f 170//143 159//143 148//143
f 170//144 148//144 150//144
f 2//10 168//10 150//10
f 151//145 148//145 161//145
f 159//146 161//146 148//146
f 142//147 149//147 154//147
f 149//147 142//147 141//147
f 145//148 172//148 175//148
f 145//89 5//89 172//89
f 5//33 145//33 25//33
f 3//67 145//67 174//67
f 145//59 177//59 173//59
f 173//13 178//13 145//13
f 174//13 145//13 180//13
f 145//149 175//149 176//149
f 176//54 179//54 145//54
f 145//13 179//13 177//13
f 178//150 180//150 145//150
f 174//151 180//151 183//151
f 180//152 178//152 181//152
f 180//153 181//153 182//153
f 183//154 180//154 182//154
f 174//155 183//155 184//155
f 185//156 184//156 183//156
f 183//157 182//157 185//157
f 186//158 184//158 185//158
f 185//159 189//159 186//159
f 187//160 185//160 188//160
f 189//161 185//161 187//161
f 185//117 182//117 188//117
f 191//162 186//162 189//162
f 189//163 190//163 191//163
f 187//117 190//117 189//117
f 192//164 191//164 190//164
f 175//165 191//165 192//165
f 186//148 191//148 175//148
f 175//148 192//148 194//148
f 190//166 193//166 192//166
f 193//167 194//167 192//167
f 194//168 176//168 175//168
f 193//169 195//169 194//169
f 195//170 176//170 194//170
f 3//171 195//171 187//171
f 3//172 196//172 195//172
f 176//173 195//173 196//173
f 187//174 195//174 193//174
f 3//175 197//175 196//175
f 179//176 176//176 196//176
f 179//177 196//177 197//177
f 198//178 197//178 3//178
f 197//179 177//179 179//179
f 177//180 197//180 198//180
f 3//181 188//181 198//181
f 198//182 173//182 177//182
f 188//183 181//183 198//183
f 198//184 181//184 173//184
f 193//160 190//160 187//160
f 174//67 188//67 3//67
f 200//160 188//160 6//160
f 6//5 188//5 174//5
f 201//185 187//185 188//185
f 199//185 202//185 188//185
f 188//160 200//160 199//160
f 202//160 201//160 188//160
f 182//181 181//181 188//181
f 202//186 199//186 204//186
f 201//187 202//187 203//187
f 202//188 204//188 203//188
f 203//13 204//13 186//13
f 204//13 205//13 186//13
f 199//189 205//189 204//189
f 199//190 200//190 205//190
f 206//191 205//191 200//191
f 205//49 206//49 186//49
f 200//192 208//192 206//192
f 186//33 206//33 207//33
f 207//13 206//13 209//13
f 209//193 206//193 9//193
f 206//194 208//194 9//194
f 210//195 209//195 7//195
f 9//196 7//196 209//196
f 209//32 210//32 207//32
f 211//197 210//197 7//197
f 210//198 211//198 207//198
f 211//199 7//199 8//199
f 211//13 5//13 207//13
f 211//13 212//13 5//13
f 212//200 211//200 8//200
f 5//33 212//33 172//33
f 172//201 212//201 4//201
f 8//202 4//202 212//202
f 6//203 208//203 200//203
f 6//6 9//6 208//6
f 6//4 207//4 5//4
f 184//13 207//13 174//13
f 174//5 207//5 6//5
f 184//38 186//38 207//38
f 201//204 203//204 175//204
f 175//13 203//13 186//13
f 175//205 187//205 201//205
f 175//206 172//206 187//206
f 187//23 4//23 3//23
f 172//207 4//207 187//207
f 178//208 173//208 181//208
f 93//209 143//209 213//209
f 143//210 93//210 55//210
f 55//211 57//211 143//211
f 143//212 125//212 213//212
f 213//213 127//213 93//213
f 125//21 127//21 213//21
f 56//214 142//214 25//214
f 53//19 137//19 56//19
f 136//215 214//215 215//215
f 136//216 129//216 214//216
f 134//217 136//217 215//217
f 216//117 215//117 217//117
f 215//218 216//218 134//218
f 214//185 217//185 215//185
f 217//219 214//219 129//219
f 129//220 130//220 217//220
f 217//117 218//117 216//117
f 219//118 218//118 217//118
f 130//221 131//221 217//221
f 131//222 219//222 217//222
f 131//223 221//223 219//223
f 220//224 218//224 219//224
f 221//225 220//225 219//225
f 221//226 222//226 220//226
f 222//7 221//7 132//7
f 132//7 221//7 131//7
f 223//227 222//227 132//227
f 222//228 223//228 224//228
f 224//229 220//229 222//229
f 220//3 224//3 218//3
f 218//230 224//230 223//230
f 132//7 121//7 223//7
f 121//8 225//8 223//8
f 218//231 223//231 225//231
f 226//232 218//232 225//232
f 226//233 225//233 227//233
f 121//8 227//8 225//8
f 121//7 135//7 227//7
f 228//234 227//234 135//234
f 228//235 226//235 227//235
f 218//117 228//117 216//117
f 216//236 228//236 135//236
f 218//181 226//181 228//181
f 135//237 134//237 216//237
f 229//238 132//238 124//238
f 229//239 233//239 132//239
f 233//7 230//7 132//7
f 132//23 230//23 232//23
f 132//23 232//23 231//23
f 231//23 121//23 132//23
f 238//23 234//23 233//23
f 233//23 234//23 240//23
f 38//240 233//240 235//240
f 38//241 45//241 233//241
f 233//239 229//239 235//239
f 233//23 236//23 230//23
f 233//23 237//23 236//23
f 49//7 237//7 233//7
f 49//7 233//7 239//7
f 238//7 233//7 45//7
f 233//7 240//7 239//7
f 240//242 242//242 241//242
f 239//243 240//243 241//243
f 240//244 234//244 242//244
f 244//181 242//181 243//181
f 243//245 242//245 234//245
f 244//246 241//246 242//246
f 244//247 248//247 239//247
f 241//248 244//248 239//248
f 245//249 249//249 244//249
f 245//250 244//250 247//250
f 244//126 243//126 246//126
f 247//126 244//126 246//126
f 244//251 249//251 248//251
f 249//252 250//252 248//252
f 249//253 245//253 250//253
f 250//254 44//254 49//254
f 44//255 250//255 245//255
f 248//23 250//23 49//23
f 49//23 239//23 248//23
f 251//160 247//160 246//160
f 48//256 247//256 251//256
f 245//257 247//257 44//257
f 247//258 48//258 44//258
f 251//259 47//259 48//259
f 251//260 252//260 47//260
f 246//261 252//261 251//261
f 252//262 253//262 47//262
f 252//263 246//263 253//263
f 246//264 238//264 253//264
f 238//7 45//7 253//7
f 253//7 45//7 47//7
f 238//265 246//265 243//265
f 234//266 238//266 243//266
f 237//267 49//267 254//267
f 254//268 256//268 237//268
f 237//269 255//269 236//269
f 255//270 237//270 256//270
f 256//271 254//271 259//271
f 259//272 257//272 256//272
f 258//273 256//273 257//273
f 256//274 258//274 255//274
f 39//275 259//275 254//275
f 257//276 259//276 260//276
f 259//277 39//277 261//277
f 261//278 260//278 259//278
f 262//4 84//4 261//4
f 260//279 261//279 84//279
f 261//4 39//4 263//4
f 261//4 263//4 262//4
f 263//280 110//280 262//280
f 263//4 39//4 37//4
f 37//110 235//110 263//110
f 110//280 263//280 235//280
f 84//4 262//4 264//4
f 264//281 262//281 88//281
f 262//282 89//282 88//282
f 110//283 89//283 262//283
f 84//4 264//4 265//4
f 265//4 264//4 267//4
f 266//284 264//284 88//284
f 264//285 266//285 267//285
f 268//286 267//286 266//286
f 267//287 268//287 265//287
f 265//288 268//288 87//288
f 266//289 87//289 268//289
f 87//289 266//289 88//289
f 84//30 265//30 87//30
f 84//290 86//290 260//290
f 260//291 86//291 257//291
f 258//292 269//292 271//292
f 269//292 258//292 270//292
f 257//293 270//293 258//293
f 271//294 255//294 258//294
f 274//295 271//295 269//295
f 273//296 272//296 271//296
f 255//297 271//297 272//297
f 271//295 274//295 273//295
f 269//298 277//298 274//298
f 274//299 275//299 276//299
f 275//300 274//300 277//300
f 276//301 273//301 274//301
f 277//302 269//302 278//302
f 277//38 278//38 279//38
f 277//13 279//13 275//13
f 279//33 86//33 275//33
f 257//303 279//303 270//303
f 279//304 257//304 86//304
f 278//305 270//305 279//305
f 270//306 278//306 269//306
f 85//307 276//307 275//307
f 117//308 280//308 276//308
f 276//309 85//309 117//309
f 273//301 276//301 280//301
f 280//310 281//310 273//310
f 118//311 282//311 280//311
f 280//308 117//308 118//308
f 281//312 280//312 282//312
f 232//313 282//313 231//313
f 116//314 231//314 282//314
f 282//315 232//315 281//315
f 282//316 118//316 116//316
f 230//317 281//317 232//317
f 281//318 230//318 272//318
f 272//319 273//319 281//319
f 86//33 85//33 275//33
f 236//320 272//320 230//320
f 272//321 236//321 255//321
f 40//322 254//322 49//322
f 254//323 40//323 39//323
f 235//110 37//110 38//110
f 110//280 235//280 229//280
f 231//324 116//324 121//324
f 124//110 119//110 229//110
f 110//280 229//280 119//280
f 127//325 283//325 93//325
f 52//326 283//326 127//326
f 284//327 283//327 52//327
f 89//285 283//285 284//285
f 89//102 93//102 283//102
f 33//328 284//328 285//328
f 51//329 285//329 284//329
f 89//285 284//285 33//285
f 52//327 51//327 284//327
f 285//330 34//330 33//330
f 36//21 34//21 285//21
f 51//331 36//331 285//331
f 91//332 117//332 85//332
f 30//333 89//333 33//333
f 286//32 82//32 31//32
f 82//334 286//334 287//334
f 287//335 79//335 82//335
f 60//336 79//336 287//336
f 286//337 288//337 287//337
f 288//338 60//338 287//338
f 61//339 60//339 288//339
f 288//340 286//340 61//340
f 61//33 286//33 31//33
f 79//89 62//89 72//89
f 79//53 60//53 62//53
f 63//341 72//341 62//341
f 65//336 66//336 69//336
f 45//342 36//342 51//342
f 27//117 46//117 20//117
f 42//22 46//22 27//22
f 20//12 46//12 24//12
f 36//343 45//343 38//343
f 27//117 20//117 28//117
f 16//147 28//147 20//147
f 28//4 16//4 10//4
f 12//344 22//344 289//344
f 290//345 289//345 22//345
f 22//346 19//346 290//346
f 291//347 290//347 19//347
f 289//118 290//118 291//118
f 291//348 293//348 292//348
f 291//126 292//126 297//126
f 291//349 19//349 296//349
f 293//350 291//350 296//350
f 289//351 291//351 295//351
f 294//126 291//126 297//126
f 295//126 291//126 294//126
f 298//352 297//352 292//352
f 298//353 300//353 297//353
f 297//354 299//354 294//354
f 300//355 299//355 297//355
f 298//7 2//7 300//7
f 300//7 2//7 15//7
f 300//356 15//356 299//356
f 301//357 299//357 15//357
f 294//181 299//181 301//181
f 301//358 15//358 14//358
f 294//359 301//359 14//359
f 302//227 2//227 298//227
f 302//360 298//360 292//360
f 302//361 292//361 293//361
f 302//7 18//7 2//7
f 18//23 302//23 296//23
f 293//362 296//362 302//362
f 18//10 296//10 19//10
f 13//363 12//363 295//363
f 295//364 294//364 13//364
f 289//365 295//365 12//365
f 14//366 13//366 294//366
f 20//147 21//147 16//147
