# Blender 5.0.1
# www.blender.org
mtllib right_shoulder_z_link_visual_9.mtl
o i01.rightArm.rotate.full.010_visual.001
v 0.033646 -0.000466 0.079590
v -0.027870 -0.000387 0.081110
v 0.033619 -0.023946 0.077628
v 0.033646 -0.000456 0.081087
v -0.027871 -0.000398 0.079612
v 0.033656 0.009306 0.078969
v 0.033651 0.004529 0.079441
v 0.033620 -0.024271 0.082314
v -0.027894 -0.023580 0.087247
v -0.027898 -0.023877 0.077652
v -0.027896 -0.024202 0.082337
v 0.033623 -0.023649 0.087223
v 0.033647 -0.001496 0.085649
v 0.033626 -0.022338 0.092286
v 0.033646 -0.003527 0.090188
v -0.027872 -0.006172 0.094683
v -0.027870 -0.003458 0.090212
v 0.033645 -0.006240 0.094659
v -0.027870 -0.001427 0.085672
v 0.033630 -0.020372 0.097421
v -0.027874 -0.009516 0.099022
v 0.033643 -0.009584 0.098999
v 0.033635 -0.017785 0.102544
v 0.033640 -0.013562 0.103152
v -0.027876 -0.013493 0.103176
v -0.027882 -0.017717 0.102568
v -0.027886 -0.020304 0.097444
v -0.027890 -0.022269 0.092310
v 0.033619 -0.023529 0.076188
v -0.027898 -0.023460 0.076212
v -0.028012 0.003762 0.067614
v -0.028036 -0.017231 0.065637
v 0.033613 -0.028092 0.074668
v -0.027904 -0.028024 0.074692
v -0.027909 -0.032609 0.072834
v -0.027908 -0.031855 0.073125
v 0.033608 -0.031924 0.073102
v 0.033683 0.036254 0.070531
v 0.033607 -0.032678 0.072810
v 0.033687 0.040431 0.068173
v 0.033580 -0.057841 0.075508
v 0.033579 -0.056982 0.070336
v 0.033711 0.064228 0.062650
v 0.033607 -0.033300 0.074150
v -0.027910 -0.033231 0.074174
v 0.033605 -0.036114 0.077920
v -0.027911 -0.036046 0.077944
v 0.033582 -0.058116 0.080983
v 0.033602 -0.039806 0.081236
v 0.033584 -0.057836 0.086733
v -0.027935 -0.058047 0.081007
v -0.027914 -0.039737 0.081259
v -0.027932 -0.057767 0.086757
v -0.027936 -0.057772 0.075531
v -0.027938 -0.056913 0.070359
v 0.033579 -0.055557 0.065609
v -0.027938 -0.055488 0.065632
v -0.027937 -0.053291 0.061478
v 0.033580 -0.053360 0.061455
v 0.033580 -0.052386 0.060318
v 0.033708 0.062189 0.058141
v 0.033703 0.059513 0.054296
v 0.033701 0.058375 0.053294
v -0.027815 0.058444 0.053317
v -0.027809 0.062257 0.058165
v -0.027813 0.059582 0.054319
v -0.027829 0.040500 0.068197
v -0.027833 0.036323 0.070554
v -0.027838 0.031850 0.072703
v -0.027828 0.041258 0.069449
v -0.027991 0.024308 0.063004
v -0.027974 0.042458 0.052267
v -0.027801 0.065774 0.067697
v -0.027805 0.064296 0.062673
v -0.027798 0.066738 0.073092
v 0.033715 0.065705 0.067674
v 0.033718 0.066670 0.073069
v 0.033688 0.041189 0.069426
v 0.033693 0.044457 0.072810
v 0.033721 0.067147 0.078808
v 0.033699 0.048538 0.075633
v 0.033705 0.053186 0.078024
v -0.027818 0.048607 0.075656
v -0.027812 0.053254 0.078048
v -0.027823 0.044526 0.072834
v -0.027796 0.067215 0.078831
v 0.033711 0.058315 0.079989
v -0.027805 0.058384 0.080013
v -0.027798 0.063909 0.081529
v 0.033718 0.063840 0.081506
v -0.033590 0.042465 0.052269
v -0.027811 0.064517 0.045637
v -0.033580 0.056391 0.036456
v -0.027965 0.056385 0.036454
v -0.027812 0.063267 0.047328
v -0.027813 0.061547 0.049643
v 0.033704 0.061582 0.049471
v 0.033705 0.063198 0.047305
v 0.033570 -0.059380 0.053467
v 0.033705 0.064448 0.045614
v 0.033573 -0.057049 0.055892
v -0.027946 -0.059312 0.053490
v -0.027943 -0.056981 0.055915
v -0.027941 -0.055860 0.057088
v 0.033575 -0.055929 0.057065
v 0.033576 -0.055388 0.057569
v -0.027941 -0.055319 0.057590
v -0.027936 -0.052317 0.060341
v -0.028061 -0.036592 0.057280
v -0.028084 -0.052405 0.043353
v -0.033676 -0.036586 0.057282
v -0.033700 -0.052399 0.043356
v -0.033652 -0.017225 0.065639
v -0.033718 -0.063105 0.025232
v -0.033587 -0.016296 0.010727
v -0.033606 0.024314 0.063005
v -0.033627 0.003768 0.067616
v -0.033731 -0.067746 0.004659
v 0.006540 -0.016341 0.010711
v -0.033595 -0.017486 -0.008029
v -0.033551 0.016203 0.008666
v -0.033584 0.066727 -0.003869
v 0.006576 0.016158 0.008650
v -0.033560 0.015013 -0.010090
v -0.033578 0.064751 0.017124
v -0.027968 0.066721 -0.003872
v -0.027963 0.064744 0.017121
v -0.027807 0.074897 0.024734
v -0.027808 0.076262 0.019954
v -0.027808 0.077295 0.015279
v -0.027807 0.075660 0.022056
v 0.033709 0.074828 0.024711
v 0.033709 0.075591 0.022033
v 0.033709 0.076193 0.019931
v 0.033654 0.027888 0.018414
v 0.033649 0.020924 0.026320
v 0.033708 0.077226 0.015256
v 0.033715 0.083395 0.015346
v -0.027807 0.078782 0.015553
v 0.033710 0.078713 0.015530
v 0.033720 0.088244 0.014217
v -0.027796 0.088313 0.014241
v 0.033725 0.093104 0.012383
v 0.033729 0.098007 0.009894
v -0.027792 0.093173 0.012406
v -0.027787 0.098076 0.009918
v 0.033734 0.102843 0.006788
v -0.027783 0.102912 0.006812
v -0.027784 0.103093 0.002531
v 0.033732 0.103024 0.002507
v 0.033655 0.032081 0.008732
v 0.033726 0.098450 -0.000963
v -0.027791 0.098519 -0.000939
v 0.033719 0.093770 -0.003861
v -0.027797 0.093839 -0.003838
v -0.027803 0.089144 -0.006085
v 0.033707 0.084343 -0.007618
v 0.033713 0.089076 -0.006108
v -0.027809 0.084411 -0.007594
v -0.027816 0.078277 -0.008025
v -0.027815 0.079766 -0.008176
v 0.033702 0.079697 -0.008200
v 0.033700 0.078208 -0.008048
v -0.027819 0.077609 -0.012761
v 0.033652 0.033055 -0.001763
v 0.033698 0.077527 -0.012982
v 0.033695 0.076580 -0.017673
v -0.027822 0.076649 -0.017649
v 0.033646 0.030761 -0.012080
v 0.033696 0.078028 -0.018018
v 0.033704 0.086189 -0.023088
v 0.033700 0.082223 -0.020095
v 0.033636 0.025380 -0.021126
v 0.022105 0.030774 -0.012076
v 0.006567 0.014968 -0.010105
v 0.022095 0.025393 -0.021122
v 0.022111 0.033068 -0.001760
v 0.022114 0.032094 0.008736
v 0.022113 0.027901 0.018417
v 0.022108 0.020937 0.026323
v 0.033641 0.011850 0.031702
v 0.022100 0.011863 0.031705
v 0.033631 0.001564 0.034021
v 0.022089 0.001577 0.034026
v 0.033618 -0.008962 0.033022
v 0.022077 -0.008949 0.033026
v 0.022065 -0.018630 0.028832
v 0.033606 -0.018643 0.028828
v 0.022053 -0.026536 0.021869
v 0.022044 -0.031919 0.012795
v 0.033595 -0.026549 0.021865
v 0.033540 -0.075891 0.024966
v 0.033516 -0.097183 0.022273
v 0.033585 -0.031932 0.012791
v 0.033522 -0.092005 0.024122
v 0.033509 -0.102373 0.019803
v 0.033544 -0.074207 0.029666
v 0.033508 -0.102644 0.018209
v 0.033528 -0.086924 0.025326
v -0.027988 -0.086855 0.025350
v -0.027994 -0.091936 0.024145
v 0.033534 -0.082000 0.025834
v 0.033539 -0.077304 0.025424
v -0.027977 -0.077235 0.025446
v -0.027982 -0.081931 0.025858
v -0.027976 -0.075822 0.024990
v -0.028007 -0.098925 0.011581
v -0.028116 -0.067752 0.004657
v -0.027995 -0.085771 0.003199
v -0.027972 -0.074139 0.029689
v -0.028003 -0.094677 0.008118
v -0.028000 -0.090276 0.005293
v -0.028103 -0.063111 0.025229
v -0.028001 -0.097115 0.022296
v -0.028008 -0.102575 0.018231
v -0.028010 -0.103024 0.015602
v -0.028008 -0.102304 0.019826
v -0.027989 -0.079740 0.001995
v -0.027991 -0.081208 0.002032
v -0.027990 -0.079700 -0.000044
v 0.033527 -0.079809 0.001973
v 0.033521 -0.085840 0.003175
v 0.033526 -0.081277 0.002008
v 0.033579 -0.034224 0.002503
v 0.033527 -0.079769 -0.000066
v 0.033526 -0.079757 -0.003008
v 0.033576 -0.033251 -0.008020
v -0.027991 -0.079683 -0.002899
v 0.033524 -0.079410 -0.007780
v -0.027994 -0.080821 -0.007917
v -0.027992 -0.079341 -0.007757
v 0.033523 -0.080890 -0.007940
v 0.033517 -0.085313 -0.009469
v -0.028000 -0.085244 -0.009447
v -0.028005 -0.089557 -0.011916
v -0.028121 -0.065747 -0.016338
v -0.027994 -0.071550 -0.034717
v -0.028120 -0.057416 -0.035669
v -0.027994 -0.073537 -0.030377
v -0.033735 -0.057410 -0.035667
v -0.033737 -0.065741 -0.016336
v -0.028002 -0.079533 -0.031751
v 0.033520 -0.074970 -0.030965
v -0.027996 -0.074902 -0.030941
v 0.033515 -0.079602 -0.031773
v -0.028013 -0.089682 -0.030824
v -0.028007 -0.084502 -0.031632
v 0.033509 -0.084571 -0.031656
v 0.033504 -0.089751 -0.030847
v 0.033499 -0.095034 -0.029437
v -0.028018 -0.094965 -0.029414
v 0.033493 -0.100390 -0.027401
v -0.028023 -0.100321 -0.027379
v -0.028023 -0.101416 -0.023236
v 0.033494 -0.101485 -0.023260
v 0.033499 -0.097731 -0.018917
v 0.033581 -0.022095 -0.025609
v 0.033590 -0.013019 -0.030962
v 0.033600 -0.002705 -0.033286
v -0.028017 -0.097663 -0.018895
v -0.028011 -0.093690 -0.015102
v 0.033505 -0.093759 -0.015126
v 0.033511 -0.089626 -0.011938
v 0.033577 -0.029057 -0.017674
v 0.022035 -0.029044 -0.017671
v 0.022034 -0.033239 -0.008017
v 0.022037 -0.034211 0.002506
v 0.006532 -0.017531 -0.008044
v 0.022059 -0.002692 -0.033281
v 0.022040 -0.022082 -0.025604
v 0.022048 -0.013006 -0.030959
v 0.022071 0.007805 -0.032279
v 0.022084 0.017485 -0.028114
v 0.033612 0.007793 -0.032283
v 0.033710 0.096494 -0.035815
v 0.033625 0.017472 -0.028117
v 0.033709 0.093348 -0.031035
v -0.027810 0.089954 -0.026750
v -0.027806 0.096563 -0.035791
v -0.027808 0.093417 -0.031012
v 0.033706 0.089886 -0.026772
v -0.027809 0.095010 -0.039765
v 0.033700 0.089343 -0.041130
v -0.027839 0.068034 -0.039355
v -0.027816 0.089412 -0.041107
v 0.033707 0.094942 -0.039788
v 0.033522 -0.073606 -0.030400
v 0.033677 0.067965 -0.039379
v -0.027844 0.065419 -0.043572
v 0.033678 0.069247 -0.040110
v 0.033523 -0.071619 -0.034739
v 0.033673 0.065350 -0.043595
v 0.033671 0.064545 -0.044703
v 0.033523 -0.071088 -0.035734
v 0.033524 -0.069696 -0.038311
v -0.027993 -0.069628 -0.038288
v -0.027993 -0.071019 -0.035711
v -0.027993 -0.069201 -0.039134
v -0.028004 -0.076858 -0.047075
v -0.028000 -0.073918 -0.043077
v -0.027984 -0.054724 -0.057414
v -0.028009 -0.079354 -0.051667
v -0.027994 -0.070490 -0.039845
v 0.033524 -0.069269 -0.039158
v 0.033668 0.062557 -0.047519
v 0.033669 0.063746 -0.048385
v 0.033522 -0.070558 -0.039867
v 0.033517 -0.073987 -0.043100
v 0.033671 0.066739 -0.052025
v 0.033512 -0.076927 -0.047099
v 0.033508 -0.079423 -0.051691
v 0.033672 0.069150 -0.056362
v 0.033672 0.071046 -0.061233
v -0.027844 0.069218 -0.056338
v -0.027844 0.071115 -0.061210
v -0.027873 0.045956 -0.063799
v -0.027848 0.062626 -0.047495
v 0.033672 0.072464 -0.066525
v -0.027845 0.072532 -0.066502
v -0.027846 0.073446 -0.072158
v -0.027866 0.054659 -0.070571
v -0.027873 0.046813 -0.064983
v -0.027870 0.050377 -0.068094
v 0.033650 0.054590 -0.070595
v 0.033646 0.050308 -0.068118
v 0.033644 0.046745 -0.065007
v 0.033643 0.045887 -0.063822
v -0.027875 0.044744 -0.064626
v 0.033641 0.044675 -0.064650
v 0.033533 -0.054792 -0.057437
v 0.033534 -0.054015 -0.058109
v -0.027983 -0.053946 -0.058085
v -0.027981 -0.051751 -0.060035
v 0.033535 -0.051820 -0.060058
v 0.033536 -0.051204 -0.060605
v -0.027981 -0.051136 -0.060581
v -0.027978 -0.047524 -0.063384
v 0.033539 -0.047593 -0.063407
v -0.028110 -0.043489 -0.051482
v -0.033725 -0.043483 -0.051480
v -0.028094 -0.025339 -0.062218
v -0.033709 -0.025333 -0.062215
v -0.027977 -0.047201 -0.063630
v -0.027959 -0.026512 -0.074471
v -0.027983 -0.049899 -0.069172
v -0.027979 -0.048070 -0.064848
v 0.033539 -0.047270 -0.063654
v 0.033638 0.041779 -0.066615
v 0.033632 0.037639 -0.069038
v 0.033538 -0.048138 -0.064872
v 0.033632 0.038347 -0.070356
v 0.033534 -0.049968 -0.069194
v 0.033531 -0.051009 -0.074020
v 0.033632 0.039616 -0.074876
v 0.033558 -0.026581 -0.074494
v 0.033601 0.012572 -0.077741
v -0.027954 -0.022241 -0.075788
v -0.027959 -0.026996 -0.075855
v 0.033562 -0.022310 -0.075812
v 0.033604 0.015775 -0.077182
v 0.033557 -0.027065 -0.075878
v 0.033553 -0.029578 -0.079846
v 0.033528 -0.051426 -0.079253
v 0.033547 -0.032975 -0.083476
v -0.027969 -0.032906 -0.083454
v -0.027964 -0.029509 -0.079823
v -0.027988 -0.051357 -0.079230
v -0.027986 -0.050940 -0.073997
v -0.027990 -0.051196 -0.084725
v 0.033526 -0.051265 -0.084749
v 0.033542 -0.037030 -0.086782
v 0.033535 -0.041631 -0.089770
v 0.033525 -0.050522 -0.090423
v 0.033529 -0.046718 -0.092417
v -0.027991 -0.050453 -0.090400
v -0.027981 -0.041562 -0.089746
v -0.027988 -0.046650 -0.092393
v -0.027975 -0.036961 -0.086759
v 0.033604 0.016080 -0.078614
v -0.027912 0.016148 -0.078590
v 0.033630 0.040039 -0.079794
v -0.027912 0.015844 -0.077158
v -0.027885 0.037708 -0.069015
v -0.028048 0.016200 -0.064853
v -0.027885 0.039684 -0.074852
v -0.027886 0.040108 -0.079770
v -0.027916 0.012641 -0.077719
v -0.027918 0.011125 -0.077990
v 0.033599 0.011056 -0.078012
v 0.033565 -0.019556 -0.076525
v 0.033596 0.008521 -0.078305
v 0.033563 -0.021840 -0.075983
v -0.027954 -0.021771 -0.075960
v -0.027951 -0.019487 -0.076501
v -0.028072 -0.004764 -0.066831
v -0.027949 -0.017122 -0.077103
v -0.033664 0.016206 -0.064851
v -0.033688 -0.004758 -0.066829
v -0.027924 0.006168 -0.078580
v -0.027920 0.008590 -0.078281
v 0.033593 0.006099 -0.078603
v 0.033567 -0.017191 -0.077127
v 0.033592 0.006232 -0.080082
v -0.027924 0.006300 -0.080059
v -0.027952 -0.017342 -0.083253
v -0.027950 -0.017440 -0.078552
v 0.033590 0.005569 -0.084733
v -0.027926 0.005638 -0.084710
v 0.033587 0.003915 -0.089407
v -0.027930 0.003984 -0.089383
v -0.027935 0.001653 -0.094043
v -0.027952 -0.016321 -0.088097
v -0.027952 -0.014568 -0.093014
v -0.027951 -0.012195 -0.097943
v -0.027940 -0.001352 -0.098631
v 0.033564 -0.016389 -0.088120
v 0.033564 -0.014637 -0.093038
v 0.033582 0.001584 -0.094066
v 0.033565 -0.012264 -0.097967
v 0.033566 -0.009269 -0.102906
v 0.033577 -0.001421 -0.098655
v -0.027950 -0.009200 -0.102882
v 0.033571 -0.005016 -0.103176
v -0.027945 -0.004947 -0.103153
v 0.033565 -0.017411 -0.083277
v 0.033566 -0.017509 -0.078576
v -0.033639 0.035567 -0.056492
v -0.033616 0.051380 -0.042565
v -0.028023 0.035561 -0.056495
v -0.028000 0.051374 -0.042568
v -0.027879 0.041848 -0.066592
v -0.027845 0.064614 -0.044681
v -0.027982 0.062108 -0.024446
v -0.033597 0.062114 -0.024445
v -0.027912 0.018141 -0.082845
v -0.027888 0.039860 -0.085014
v 0.033628 0.039791 -0.085037
v 0.033625 0.038938 -0.090468
v -0.027891 0.039006 -0.090446
v 0.033605 0.018072 -0.082869
v 0.033607 0.020983 -0.086899
v -0.027910 0.021052 -0.086875
v 0.033609 0.024560 -0.090689
v 0.033612 0.028746 -0.094234
v -0.027907 0.024629 -0.090665
v -0.027904 0.028815 -0.094211
v 0.033617 0.033487 -0.097503
v -0.027899 0.034598 -0.097094
v -0.027895 0.037553 -0.095980
v -0.027900 0.033556 -0.097481
v 0.033618 0.034529 -0.097117
v 0.033622 0.037484 -0.096004
v -0.027884 0.038416 -0.070333
v 0.033503 -0.081498 -0.056762
v 0.033531 -0.055793 -0.058505
v 0.033526 -0.059721 -0.061140
v -0.027991 -0.059652 -0.061116
v -0.027985 -0.055724 -0.058481
v -0.028013 -0.081429 -0.056738
v 0.033499 -0.083119 -0.062257
v -0.028017 -0.083050 -0.062234
v -0.027996 -0.064213 -0.063033
v -0.028017 -0.082867 -0.062472
v -0.028002 -0.069248 -0.064409
v 0.033514 -0.069317 -0.064433
v 0.033520 -0.064282 -0.063056
v 0.033499 -0.082936 -0.062495
v 0.033508 -0.074743 -0.065276
v 0.033501 -0.080580 -0.065472
v -0.028009 -0.074674 -0.065253
v -0.028016 -0.080511 -0.065449
v 0.033671 0.073377 -0.072182
v 0.033655 0.059439 -0.072598
v -0.027862 0.059508 -0.072575
v 0.033670 0.072773 -0.072794
v -0.027847 0.072842 -0.072770
v 0.033660 0.064687 -0.074119
v 0.033666 0.070331 -0.075183
v -0.027850 0.070400 -0.075161
v -0.027856 0.064756 -0.074096
v -0.027848 0.063815 -0.048362
v -0.027846 0.066807 -0.052001
v 0.033683 0.073740 -0.041498
v 0.033694 0.083896 -0.041859
v -0.027838 0.069316 -0.040087
v -0.027834 0.073809 -0.041474
v -0.027828 0.078753 -0.041986
v -0.027823 0.083965 -0.041836
v 0.033688 0.078684 -0.042009
v -0.027813 0.086258 -0.023065
v -0.027816 0.082291 -0.020071
v -0.027820 0.078097 -0.017996
v 0.033513 -0.094746 0.008094
v 0.033517 -0.090345 0.005269
v 0.033510 -0.098994 0.011559
v 0.033507 -0.103093 0.015578
v -0.027968 -0.072221 0.034063
v 0.033548 -0.072290 0.034039
v -0.027970 -0.073594 0.034716
v 0.033547 -0.073662 0.034693
v 0.033544 -0.077325 0.037583
v -0.027973 -0.077256 0.037605
v 0.033541 -0.080592 0.041353
v 0.033727 0.087349 0.034887
v -0.027977 -0.083356 0.045741
v 0.033540 -0.083425 0.045717
v 0.033722 0.083931 0.030919
v -0.027975 -0.080523 0.041375
v -0.027795 0.084000 0.030943
v 0.033716 0.080270 0.027589
v -0.027800 0.080339 0.027613
v -0.027790 0.087418 0.034910
v -0.027784 0.090506 0.039465
v 0.033732 0.090437 0.039441
v 0.033539 -0.085941 0.050628
v 0.033737 0.093188 0.044470
v 0.033707 0.065691 0.046496
v -0.027780 0.093257 0.044493
v 0.033737 0.092434 0.045959
v -0.027780 0.092503 0.045982
v -0.027809 0.065760 0.046520
v -0.027804 0.070111 0.048251
v -0.027780 0.091350 0.048319
v -0.027786 0.085665 0.049188
v 0.033730 0.085597 0.049164
v 0.033736 0.091281 0.048295
v -0.027792 0.080198 0.049478
v -0.027798 0.074976 0.049158
v 0.033718 0.074907 0.049135
v 0.033724 0.080130 0.049455
v 0.033713 0.070042 0.048227
v 0.033539 -0.088035 0.055963
v -0.027977 -0.085873 0.050651
v -0.027978 -0.087966 0.055986
v -0.027975 -0.086124 0.058724
v 0.033542 -0.086193 0.058702
v -0.027947 -0.060406 0.054521
v -0.027951 -0.064503 0.056787
v 0.033569 -0.060474 0.054497
v 0.033565 -0.064572 0.056765
v 0.033561 -0.069311 0.058281
v -0.027956 -0.069242 0.058305
v -0.027961 -0.074383 0.059280
v 0.033543 -0.085660 0.059516
v 0.033555 -0.074451 0.059258
v 0.033549 -0.079911 0.059661
v -0.027974 -0.085592 0.059540
v -0.027967 -0.079843 0.059684
v -0.027806 0.076285 0.025211
v 0.033711 0.076216 0.025188
v -0.027801 0.083464 0.015369
v -0.027860 0.009375 0.078993
v -0.027836 0.032447 0.074080
v 0.033679 0.031782 0.072681
v 0.033680 0.032378 0.074057
v 0.033683 0.033264 0.078666
v -0.027834 0.033333 0.078689
v 0.033685 0.033267 0.083613
v 0.033657 0.009485 0.080456
v -0.027859 0.009554 0.080480
v 0.033661 0.011121 0.084848
v -0.027856 0.011189 0.084872
v -0.027852 0.013749 0.089121
v 0.033665 0.013680 0.089097
v 0.033670 0.016965 0.093186
v 0.033686 0.032578 0.088803
v 0.033687 0.031277 0.094145
v -0.027832 0.033335 0.083637
v -0.027830 0.032647 0.088827
v -0.027830 0.031345 0.094169
v -0.027846 0.017034 0.093210
v -0.027840 0.020899 0.097093
v -0.027830 0.029455 0.099576
v -0.027834 0.025342 0.100714
v 0.033676 0.020831 0.097070
v 0.033682 0.025273 0.100690
v 0.033687 0.029386 0.099553
v -0.027865 0.004598 0.079465
v -0.027918 -0.044045 0.084218
v -0.027922 -0.048857 0.086814
v 0.033589 -0.054243 0.088994
v -0.027927 -0.054175 0.089018
v 0.033594 -0.048926 0.086790
v 0.033598 -0.044114 0.084194
vn 0.0011 1.0000 -0.0068
vn 1.0000 -0.0011 -0.0004
vn 1.0000 -0.0011 -0.0003
vn 0.0004 0.0298 0.9996
vn 1.0000 -0.0011 -0.0000
vn -0.0011 -0.9921 0.1257
vn -0.0011 -0.9921 0.1258
vn -0.0011 -0.9976 -0.0692
vn -0.0010 -0.9681 0.2506
vn 0.0012 0.8549 0.5189
vn 0.0012 0.8548 0.5189
vn 0.0012 0.9128 0.4084
vn 0.0012 0.9128 0.4083
vn -1.0000 0.0011 0.0003
vn -1.0000 0.0011 0.0004
vn 0.0012 0.9750 0.2222
vn 0.0011 0.7921 0.6104
vn 0.0011 0.7921 0.6103
vn 0.0011 0.7222 0.6917
vn 0.0011 0.7223 0.6916
vn 0.0002 -0.1426 0.9898
vn -0.0008 -0.8927 0.4507
vn -1.0000 0.0012 0.0005
vn -0.0009 -0.9339 0.3576
vn -0.0009 -0.9339 0.3575
vn -0.0012 -0.9604 -0.2785
vn -0.9999 -0.0005 0.0116
vn -0.9999 -0.0001 0.0130
vn -0.9999 -0.0029 0.0113
vn -0.0000 -0.3160 0.9488
vn -1.0000 0.0013 -0.0001
vn -1.0000 0.0010 0.0009
vn -0.0001 -0.3600 0.9329
vn -0.0001 -0.3785 0.9256
vn -0.0001 -0.3783 0.9257
vn -0.0000 -0.3611 0.9325
vn 0.0012 0.9071 0.4210
vn 1.0000 -0.0011 -0.0005
vn 0.0011 0.8013 0.5983
vn -0.0011 -0.9988 0.0486
vn -0.0011 -0.9987 -0.0502
vn -0.0011 -0.9987 -0.0501
vn -0.0012 -0.9865 -0.1640
vn -0.0012 -0.9574 -0.2886
vn -0.0012 -0.9865 -0.1639
vn -0.0012 -0.8840 -0.4674
vn -0.0011 -0.7593 -0.6507
vn 0.0005 0.6610 -0.7504
vn 0.0007 0.8208 -0.5712
vn 0.0007 0.8208 -0.5713
vn -1.0000 0.0012 0.0006
vn 0.0009 0.4914 0.8709
vn -0.9999 0.0065 0.0107
vn -1.0000 0.0011 0.0005
vn -0.0008 -0.8555 0.5178
vn -0.9999 0.0068 0.0099
vn -0.9999 0.0093 0.0102
vn 0.0009 0.9111 -0.4121
vn 0.0010 0.9594 -0.2822
vn 0.0010 0.9844 -0.1759
vn 0.0011 0.9966 -0.0828
vn -0.0002 -0.4575 0.8892
vn -0.0003 -0.5688 0.8225
vn -0.0002 -0.4576 0.8892
vn -0.0003 -0.5689 0.8224
vn -0.0005 -0.7194 0.6946
vn -0.0005 -0.7193 0.6946
vn -0.0000 -0.3578 0.9338
vn 0.0001 -0.2645 0.9644
vn 0.0001 -0.2647 0.9643
vn 0.0010 0.6322 0.7748
vn -0.0008 -0.8555 0.5179
vn 0.0011 0.7504 0.6609
vn 0.0009 0.5091 0.8607
vn -0.9999 0.0094 0.0065
vn -0.9999 0.0098 0.0080
vn -0.9999 0.0093 0.0064
vn -0.9999 0.0095 0.0074
vn 0.0011 0.8027 0.5963
vn 0.0014 0.7640 0.6452
vn 0.0012 0.8015 0.5980
vn 0.0011 0.8041 0.5945
vn 0.0011 0.8041 0.5944
vn -0.0005 -0.7210 0.6930
vn -0.0006 -0.7231 0.6908
vn 1.0000 -0.0011 -0.0002
vn -0.0005 -0.6814 0.7319
vn -0.0005 -0.6754 0.7374
vn -0.0005 -0.6807 0.7325
vn -0.9999 -0.0063 0.0085
vn -0.0005 -0.6755 0.7373
vn -1.0000 -0.0063 0.0077
vn -1.0000 -0.0063 0.0076
vn -1.0000 -0.0063 0.0074
vn -0.9999 -0.0066 0.0091
vn -0.9999 -0.0033 0.0106
vn -0.0000 -0.3963 0.9181
vn -0.9999 -0.0057 0.0112
vn -0.0004 -0.6609 0.7504
vn -0.0003 -0.6609 0.7504
vn -1.0000 0.0025 -0.0011
vn -1.0000 0.0008 -0.0012
vn 0.0004 -0.0938 0.9956
vn 0.0007 0.2190 0.9757
vn 0.0006 0.2189 0.9757
vn -1.0000 0.0010 -0.0015
vn -1.0000 0.0028 -0.0000
vn -1.0000 0.0028 0.0003
vn 0.0011 0.9980 -0.0633
vn -0.0005 -0.0633 -0.9980
vn -1.0000 -0.0006 0.0002
vn -1.0000 -0.0005 0.0005
vn -0.0011 -0.9980 0.0633
vn -1.0000 -0.0005 -0.0006
vn 0.0012 0.9179 0.3969
vn 0.0012 0.9956 0.0938
vn -0.9999 0.0116 0.0049
vn -0.9999 0.0126 0.0036
vn -0.9999 0.0125 0.0014
vn -0.9999 0.0126 0.0037
vn -0.9999 0.0127 0.0030
vn 0.0012 0.9614 0.2753
vn 0.0012 0.9617 0.2740
vn 0.0012 0.9617 0.2741
vn 0.0012 0.9765 0.2157
vn 0.0002 -0.1809 0.9835
vn 0.0002 -0.1810 0.9835
vn 0.0006 0.2266 0.9740
vn 0.0008 0.3532 0.9355
vn 0.0009 0.4525 0.8918
vn 0.0009 0.5404 0.8414
vn 0.0011 0.9991 0.0422
vn 0.0004 0.6044 -0.7967
vn 0.0003 0.5265 -0.8502
vn 0.0001 0.4318 -0.9019
vn -0.0000 0.3039 -0.9527
vn -0.0000 0.3037 -0.9528
vn -1.0000 0.0010 0.0003
vn 0.0001 0.4317 -0.9020
vn -1.0000 0.0012 0.0004
vn -0.0002 0.1242 -0.9923
vn -0.0005 -0.1007 -0.9949
vn -0.0005 -0.1013 -0.9949
vn 1.0000 -0.0011 -0.0010
vn 0.0008 0.9906 -0.1366
vn 0.0011 0.9902 -0.1397
vn 0.0010 0.9802 -0.1981
vn 0.0006 0.9812 -0.1928
vn 1.0000 -0.0012 -0.0007
vn -0.0008 -0.8595 0.5112
vn -0.0010 -0.9762 0.2171
vn 0.6847 -0.6267 0.3721
vn 0.7143 -0.6833 0.1515
vn -0.0008 -0.8594 0.5112
vn 0.7484 -0.6619 0.0416
vn -0.0011 -0.9957 -0.0924
vn 0.7146 -0.6965 -0.0648
vn 0.6862 -0.6675 -0.2890
vn -0.0012 -0.9176 -0.3974
vn -0.0011 -0.7504 -0.6610
vn 0.7009 -0.5355 -0.4712
vn -0.0009 -0.5102 -0.8601
vn -0.0008 -0.5101 -0.8601
vn 0.7504 -0.3376 -0.5682
vn -0.0005 -0.2200 -0.9755
vn -0.0007 -0.2201 -0.9755
vn 0.8111 -0.1295 -0.5703
vn -0.0003 0.0945 -0.9955
vn -0.0002 0.0946 -0.9955
vn 0.8109 0.0544 -0.5826
vn 0.8436 -0.0349 -0.5358
vn 0.0001 0.3974 -0.9176
vn 0.7489 0.2626 -0.6084
vn 0.6978 0.4729 -0.5380
vn 0.0004 0.6610 -0.7504
vn 0.0001 0.3975 -0.9176
vn 0.0008 0.8601 -0.5102
vn 0.6820 0.6287 -0.3737
vn 0.0005 0.6609 -0.7505
vn 0.0001 -0.2307 0.9730
vn 0.0003 -0.1027 0.9947
vn 0.0001 -0.2305 0.9731
vn 0.0005 0.0870 0.9962
vn 0.0005 0.0874 0.9962
vn -1.0000 0.0011 0.0002
vn -0.9999 -0.0100 0.0029
vn -0.9999 -0.0111 0.0025
vn -0.9999 -0.0100 0.0045
vn -0.0009 -0.9414 0.3373
vn -0.0009 -0.9414 0.3372
vn 0.0007 0.3082 0.9513
vn 0.0007 0.3070 0.9517
vn -0.0004 -0.0253 -0.9997
vn -0.9999 -0.0106 0.0001
vn -0.0011 -0.9998 -0.0198
vn 1.0000 -0.0011 -0.0006
vn -0.0004 -0.0240 -0.9997
vn -0.0011 -1.0000 -0.0039
vn -0.0012 -1.0000 -0.0059
vn -0.0013 -0.9974 -0.0727
vn 1.0000 -0.0011 -0.0001
vn 0.0002 -0.1076 0.9942
vn -0.0011 -0.9975 -0.0703
vn -0.0000 -0.3267 0.9451
vn -0.0000 -0.3269 0.9451
vn -1.0000 0.0011 0.0007
vn -1.0000 -0.0034 0.0081
vn -0.0002 -0.4968 0.8679
vn -0.9999 -0.0021 0.0117
vn -1.0000 -0.0099 -0.0007
vn -0.0012 -0.9955 -0.0951
vn -1.0000 -0.0088 -0.0042
vn -0.9999 -0.0092 -0.0041
vn -1.0000 -0.0054 -0.0029
vn -0.0012 -0.9183 -0.3958
vn -0.9999 0.0038 -0.0112
vn -0.0002 0.1722 -0.9851
vn -0.0002 0.1718 -0.9851
vn -0.0004 -0.0238 -0.9997
vn -0.0004 -0.0234 -0.9997
vn -0.0006 -0.1543 -0.9880
vn -0.0005 -0.1544 -0.9880
vn -0.0006 -0.2578 -0.9662
vn -0.0007 -0.3553 -0.9347
vn -0.0007 -0.3552 -0.9348
vn -0.0012 -0.9668 -0.2556
vn -0.0012 -0.9668 -0.2554
vn -0.0006 -0.7566 0.6539
vn -0.0006 -0.7565 0.6540
vn -0.0005 -0.6905 0.7233
vn -1.0000 0.0015 -0.0000
vn -1.0000 0.0010 0.0005
vn -0.0004 -0.6106 0.7919
vn -0.0005 -0.6903 0.7235
vn -0.0004 -0.6108 0.7918
vn 0.0011 0.7517 0.6595
vn 0.0012 0.9172 0.3985
vn 0.0011 0.9958 0.0920
vn 0.6805 0.6721 0.2921
vn 0.7102 0.7010 0.0646
vn 0.0005 0.0633 0.9980
vn 0.8424 0.0332 0.5378
vn 0.7450 0.6657 -0.0425
vn 0.8093 0.1282 0.5733
vn 0.6954 0.5399 0.4742
vn 0.7473 0.3372 0.5726
vn 0.0009 0.5081 0.8613
vn 0.0006 0.2196 0.9756
vn 0.0008 0.5080 0.8613
vn 0.0005 0.2198 0.9755
vn 0.0011 0.7517 0.6596
vn 0.0003 -0.0951 0.9955
vn 0.8095 -0.0567 0.5843
vn -0.0001 -0.3952 0.9186
vn 0.7488 -0.2627 0.6085
vn 0.0002 -0.0951 0.9955
vn -0.0002 -0.3953 0.9186
vn -0.0006 -0.6624 0.7491
vn -0.0005 -0.6624 0.7492
vn 0.0011 0.7762 0.6305
vn 0.0011 0.7763 0.6303
vn 0.0011 0.8353 0.5498
vn 0.0010 0.7058 0.7084
vn 0.0009 0.9314 -0.3639
vn -0.0001 0.2331 -0.9725
vn 0.0009 0.9314 -0.3640
vn 1.0000 -0.0011 -0.0007
vn -0.0009 -0.4949 -0.8689
vn 0.0007 0.8499 -0.5269
vn 0.0008 0.8499 -0.5270
vn 0.0007 0.8089 -0.5879
vn -0.0012 -0.8823 -0.4707
vn -0.0012 -0.8799 -0.4752
vn -0.9999 -0.0093 -0.0052
vn -0.9999 -0.0093 -0.0053
vn -0.0012 -0.8927 -0.4506
vn -0.9999 -0.0094 -0.0047
vn -1.0000 0.0012 0.0003
vn -1.0000 0.0013 0.0002
vn -1.0000 0.0010 0.0006
vn -0.9999 -0.0086 -0.0073
vn -0.0012 -0.8929 -0.4502
vn -0.0002 -0.4832 0.8755
vn -0.0002 -0.4822 0.8761
vn -0.0005 -0.6861 0.7275
vn -0.0007 -0.8057 0.5923
vn -0.0005 -0.6859 0.7277
vn -0.0008 -0.8785 0.4777
vn 0.0012 0.8740 0.4859
vn 0.0012 0.9318 0.3629
vn 0.0012 0.9319 0.3628
vn 0.0012 0.9660 0.2587
vn 0.0012 0.9659 0.2587
vn 0.0012 0.9872 0.1595
vn -0.0010 -0.6577 -0.7533
vn -0.0009 -0.5007 -0.8656
vn -0.0011 -0.8101 -0.5863
vn -0.0011 -0.8099 -0.5866
vn 0.0003 0.5636 -0.8261
vn 0.0003 0.5641 -0.8257
vn -0.0010 -0.6640 -0.7477
vn -0.0010 -0.6541 -0.7564
vn -0.0010 -0.6638 -0.7479
vn -0.0010 -0.6645 -0.7472
vn -0.0010 -0.6639 -0.7479
vn -0.9999 -0.0068 -0.0085
vn -0.9999 -0.0061 -0.0090
vn -0.0010 -0.6131 -0.7900
vn -0.0010 -0.6130 -0.7901
vn -0.9999 -0.0066 -0.0087
vn -0.0009 -0.5091 -0.8607
vn -0.0011 -0.7504 -0.6609
vn -0.9999 -0.0074 -0.0072
vn -0.9999 -0.0047 -0.0095
vn -0.0010 -0.5091 -0.8607
vn -0.9999 -0.0046 -0.0106
vn -0.0007 -0.8140 0.5808
vn -0.0010 -0.6067 -0.7949
vn -0.0010 -0.6051 -0.7961
vn 1.0000 -0.0011 0.0005
vn -0.0009 -0.9209 0.3898
vn -0.0009 -0.9210 0.3896
vn -0.0010 -0.9775 0.2109
vn -0.0007 -0.2949 -0.9555
vn -0.0007 -0.2947 -0.9556
vn 0.0009 0.9440 -0.3299
vn 0.0007 0.8448 -0.5351
vn 0.0006 0.7301 -0.6833
vn 0.0006 0.7302 -0.6832
vn -0.0010 -0.9775 0.2110
vn -0.0011 -0.9968 0.0794
vn -1.0000 0.0011 0.0001
vn -0.0011 -0.9996 -0.0292
vn -0.0012 -0.9915 -0.1298
vn -0.0008 -0.4643 -0.8857
vn -0.0009 -0.4641 -0.8858
vn 0.0002 0.4615 -0.8872
vn 0.0003 0.5447 -0.8386
vn 0.0004 0.6317 -0.7752
vn 0.0004 0.6318 -0.7751
vn 0.0003 0.5448 -0.8386
vn -0.0002 0.1719 -0.9851
vn -0.0012 -0.9781 -0.2083
vn -0.0012 -0.9781 -0.2082
vn -0.9999 0.0054 -0.0112
vn -0.9999 0.0031 -0.0111
vn -0.0002 0.1725 -0.9850
vn -0.0002 0.1759 -0.9844
vn -0.0002 0.1765 -0.9843
vn -0.0002 0.1147 -0.9934
vn -0.0006 -0.2307 -0.9730
vn -0.0007 -0.3415 -0.9399
vn -0.0006 -0.2304 -0.9731
vn -0.0007 -0.3432 -0.9393
vn -1.0000 -0.0022 -0.0089
vn -0.9999 -0.0014 -0.0104
vn -0.9999 -0.0016 -0.0100
vn -0.9999 0.0003 -0.0124
vn -0.9999 -0.0014 -0.0109
vn -0.0006 -0.2188 -0.9758
vn -1.0000 -0.0019 -0.0095
vn -0.9999 0.0022 -0.0108
vn -0.9999 0.0023 -0.0105
vn -0.0002 0.0939 -0.9956
vn -0.9999 0.0025 -0.0103
vn -0.0003 0.1144 -0.9934
vn -0.0002 0.1223 -0.9925
vn -0.0002 0.1219 -0.9925
vn 0.0011 0.9960 0.0891
vn 0.0011 0.9960 0.0892
vn 0.0011 0.9900 -0.1410
vn 0.0009 0.9427 -0.3335
vn 0.0009 0.9427 -0.3336
vn 0.0008 0.8943 -0.4474
vn -0.0012 -0.9420 -0.3357
vn -0.0012 -0.9010 -0.4338
vn -0.0012 -0.9420 -0.3356
vn -0.0012 -0.8551 -0.5185
vn -0.0004 -0.0636 -0.9980
vn 0.0006 0.7827 -0.6224
vn 0.0006 0.7828 -0.6223
vn 0.0007 0.8365 -0.5479
vn 0.0007 0.8366 -0.5479
vn 0.0008 0.8943 -0.4475
vn -0.0012 -0.9785 -0.2064
vn -0.0011 -0.9998 -0.0208
vn -0.0010 -0.9767 0.2144
vn -0.0007 -0.2466 -0.9691
vn -0.0007 -0.2188 -0.9758
vn -1.0000 0.0015 0.0019
vn -1.0000 0.0010 0.0018
vn -1.0000 0.0006 0.0016
vn 0.0001 0.3964 -0.9181
vn -1.0000 -0.0000 0.0017
vn 0.0004 0.6609 -0.7504
vn -1.0000 0.0012 0.0023
vn -0.0000 0.3963 -0.9181
vn -0.9999 0.0056 -0.0101
vn -0.9999 0.0071 -0.0099
vn -0.9999 0.0079 -0.0093
vn -0.9999 0.0078 -0.0095
vn -0.9999 0.0087 -0.0082
vn 0.0002 0.5050 -0.8631
vn 0.0003 0.5616 -0.8274
vn 0.0003 0.5618 -0.8273
vn 0.0007 0.8604 -0.5096
vn -0.9999 0.0098 -0.0085
vn -0.9999 0.0107 -0.0064
vn -0.9999 0.0107 -0.0065
vn -0.9999 0.0107 -0.0056
vn -0.9999 0.0107 -0.0053
vn -0.9999 0.0130 -0.0043
vn -0.9999 0.0120 -0.0020
vn 0.0010 0.9758 -0.2188
vn 0.0009 0.8604 -0.5097
vn -1.0000 -0.0004 0.0013
vn -1.0000 -0.0006 0.0008
vn 0.0007 0.8167 -0.5770
vn 0.0007 0.8169 -0.5768
vn 0.0011 0.9963 0.0858
vn 0.0011 0.9989 -0.0472
vn 0.0011 0.9963 0.0857
vn 0.0010 0.9879 -0.1552
vn -0.0011 -0.7272 -0.6864
vn -0.0011 -0.8106 -0.5856
vn -0.0010 -0.6462 -0.7631
vn -0.0011 -0.7273 -0.6864
vn -0.0010 -0.6463 -0.7631
vn -0.0009 -0.5677 -0.8232
vn -0.0009 -0.5678 -0.8232
vn 0.0001 0.3482 -0.9374
vn -0.0000 0.3528 -0.9357
vn 0.0010 0.9672 -0.2541
vn 0.0010 0.9672 -0.2540
vn -0.0000 0.3467 -0.9380
vn 1.0000 -0.0010 -0.0003
vn -0.0012 -0.9056 -0.4241
vn -1.0000 0.0018 0.0006
vn 0.0012 0.9628 0.2702
vn 0.0012 0.8809 0.4733
vn 0.0002 0.5051 -0.8631
vn -1.0000 0.0020 0.0018
vn -1.0000 0.0024 0.0015
vn -0.0010 -0.6536 -0.7568
vn 0.0006 0.7297 -0.6837
vn 0.0003 0.5571 -0.8304
vn 0.0006 0.7294 -0.6840
vn -0.0009 -0.9255 0.3787
vn -0.0010 -0.9592 0.2829
vn -0.0010 -0.9591 0.2829
vn -1.0000 0.0011 0.0009
vn -0.0001 0.2636 -0.9646
vn -0.0001 0.2638 -0.9646
vn 0.0001 0.3875 -0.9219
vn 0.0001 0.3873 -0.9220
vn 1.0000 -0.0011 -0.0009
vn -0.0011 -0.7935 -0.6086
vn -0.0011 -0.7841 -0.6206
vn -0.0003 0.0335 -0.9994
vn -0.0002 0.1537 -0.9881
vn -0.0002 0.1535 -0.9881
vn -0.0011 -0.7936 -0.6085
vn -0.0008 -0.3819 -0.9242
vn 0.0005 0.7117 -0.7025
vn 0.0005 0.6996 -0.7145
vn 0.0005 0.6993 -0.7148
vn -0.0006 -0.1853 -0.9827
vn -0.0006 -0.1855 -0.9827
vn -0.0007 -0.2784 -0.9605
vn -0.0007 -0.2782 -0.9605
vn 0.0010 0.5891 0.8081
vn 0.0010 0.5887 0.8084
vn 0.0011 0.7724 0.6351
vn 0.0011 0.7725 0.6350
vn -0.0012 -0.9092 -0.4163
vn -0.0007 -0.2953 -0.9554
vn -0.0009 -0.4954 -0.8687
vn -0.0007 -0.2951 -0.9555
vn -0.0005 -0.1028 -0.9947
vn -1.0000 0.0011 -0.0001
vn -0.0002 0.1326 -0.9912
vn -0.0003 0.0289 -0.9996
vn -0.0004 0.0287 -0.9996
vn 1.0000 -0.0011 0.0001
vn 0.0001 0.3823 -0.9240
vn 0.0011 0.7060 0.7082
vn 0.0010 0.6024 0.7982
vn 0.0008 0.4438 0.8961
vn 0.0008 0.4434 0.8963
vn 0.0006 0.2319 0.9727
vn 0.0006 0.2331 0.9725
vn 0.6986 -0.4745 0.5355
vn 0.7106 0.6867 -0.1534
vn 0.0010 0.9761 -0.2175
vn 0.0001 0.3817 -0.9243
vn -1.0000 0.0028 0.0011
vn -1.0000 0.0028 0.0006
vn -0.0011 -0.9955 -0.0951
vn -0.9999 -0.0102 -0.0004
vn -0.9999 -0.0107 0.0004
vn -0.0009 -0.5401 -0.8416
vn -0.0008 -0.4216 -0.9068
vn -0.0010 -0.6321 -0.7749
vn -0.0010 -0.6320 -0.7750
vn -0.0010 -0.7001 -0.7140
vn -0.0011 -0.7002 -0.7139
vn -0.0010 -0.9857 0.1685
vn -0.0007 -0.2476 -0.9689
vn -0.0001 -0.4298 0.9029
vn -0.0010 -0.9859 0.1674
vn -0.0000 -0.3363 0.9418
vn -0.0007 -0.8610 0.5086
vn -0.0010 -0.9755 0.2201
vn -0.9999 -0.0087 0.0062
vn -0.9999 -0.0098 0.0051
vn -0.9999 -0.0092 0.0073
vn -0.0009 -0.9159 0.4014
vn -0.0008 -0.4298 -0.9029
vn -0.0008 -0.4293 -0.9032
vn -0.0010 -0.6196 -0.7849
vn -0.0010 -0.6194 -0.7850
vn -0.0011 -0.7557 -0.6549
vn -0.0011 -0.8388 -0.5444
vn -0.0011 -0.8387 -0.5446
vn 0.0005 0.6729 -0.7397
vn 0.0006 0.7576 -0.6528
vn 0.0006 0.7576 -0.6527
vn 0.0007 0.8276 -0.5613
vn 0.0007 0.8277 -0.5612
vn 0.0008 0.8773 -0.4799
vn 0.0012 0.8923 0.4515
vn 0.0012 0.8968 0.4424
vn -1.0000 0.0011 -0.0000
vn 0.0006 0.1511 0.9885
vn 0.0012 0.8967 0.4425
vn -1.0000 0.0011 0.0006
vn 0.0002 -0.1833 0.9831
vn 0.0003 -0.0611 0.9981
vn 0.0004 0.0531 0.9986
vn 0.0002 -0.1835 0.9830
vn -0.0001 -0.3696 0.9292
vn 0.0004 0.0530 0.9986
vn -0.0003 -0.5790 0.8153
vn -0.0003 -0.5786 0.8156
vn -0.0012 -0.9309 -0.3653
vn -0.0012 -0.8899 -0.4561
vn -0.0012 -0.9309 -0.3652
vn -0.0012 -0.8900 -0.4560
vn -0.0007 -0.8297 0.5582
vn -0.0007 -0.8298 0.5580
vn 0.0009 0.4841 0.8750
vn 0.0010 0.6858 0.7278
vn 0.0010 0.6855 0.7281
vn 0.0009 0.4842 0.8749
vn 0.0007 0.3048 0.9524
vn 0.0007 0.3049 0.9524
vn 0.0006 0.1864 0.9825
vn 0.0006 0.1866 0.9824
vn 1.0000 -0.0011 0.0002
vn 0.0005 0.0737 0.9973
vn 0.0003 -0.0250 0.9997
vn 0.0004 -0.0252 0.9997
vn -1.0000 0.0011 -0.0002
vn -0.0007 -0.8373 0.5467
vn -0.0007 -0.8371 0.5471
vn 0.0002 0.5096 -0.8604
vn 0.0002 0.5095 -0.8605
vn -0.0000 0.3250 -0.9457
vn -0.0000 0.3256 -0.9455
vn -0.0009 -0.9159 0.4015
vn -0.9999 0.0123 -0.0018
vn -0.9999 0.0127 -0.0013
vn -0.9999 0.0135 0.0009
vn -1.0000 0.0012 -0.0002
vn 0.0004 0.0391 0.9992
vn 0.0004 0.0393 0.9992
vn -0.9999 0.0122 0.0059
vn -0.0011 -0.7594 -0.6507
vn 0.0011 0.7661 0.6427
vn -0.9999 0.0039 0.0128
vn -0.9999 0.0042 0.0113
vn 0.0009 0.9176 -0.3976
vn 0.0008 0.4332 0.9013
vn 0.0008 0.4333 0.9012
vn 0.0009 0.9175 -0.3978
vn 0.0010 0.9820 -0.1888
vn 0.0011 1.0000 -0.0006
vn -0.0009 -0.9371 0.3490
vn -0.0011 -0.9928 0.1196
vn -0.0008 -0.8566 0.5161
vn -0.0006 -0.7796 0.6262
vn 0.0012 0.9716 0.2367
vn 0.0012 0.9913 0.1316
vn -0.0005 -0.7086 0.7056
vn -0.0004 -0.6318 0.7751
vn -0.0005 -0.7087 0.7055
vn -0.0004 -0.6317 0.7752
vn 0.0007 0.2664 0.9639
vn 0.0007 0.2666 0.9638
vn 0.0012 0.9440 0.3300
vn 0.0012 0.9439 0.3301
vn 0.0005 0.0983 0.9952
vn -1.0000 0.0012 0.0014
vn -0.9999 0.0019 0.0124
vn 0.0004 0.0294 0.9996
vn 0.0009 0.4915 0.8708
vn 0.0009 0.9112 -0.4120
vn -0.0003 -0.5326 0.8463
vn 0.0008 0.3829 0.9238
vn 0.0009 0.4748 0.8801
vn 0.0010 0.5661 0.8244
vn 0.0009 0.5662 0.8243
vn 0.0010 0.6681 0.7440
vn 0.0010 0.6682 0.7440
s 0
usemtl Lisanne_Tools
f 2//1 1//1 5//1
f 1//1 2//1 4//1
f 1//2 8//2 3//2
f 1//3 3//3 6//3
f 8//3 1//3 4//3
f 1//4 7//4 5//4
f 7//5 1//5 6//5
f 8//6 9//6 11//6
f 9//7 8//7 12//7
f 8//8 10//8 3//8
f 10//8 8//8 11//8
f 8//2 4//2 12//2
f 12//2 4//2 13//2
f 12//3 13//3 15//3
f 14//9 9//9 12//9
f 12//2 15//2 14//2
f 16//10 15//10 17//10
f 15//11 16//11 18//11
f 15//12 19//12 17//12
f 14//2 15//2 18//2
f 19//13 15//13 13//13
f 19//14 9//14 17//14
f 2//15 9//15 19//15
f 13//16 2//16 19//16
f 20//2 18//2 22//2
f 14//2 18//2 20//2
f 21//17 18//17 16//17
f 18//18 21//18 22//18
f 20//2 22//2 23//2
f 21//19 24//19 22//19
f 23//2 22//2 24//2
f 24//20 21//20 25//20
f 26//21 24//21 25//21
f 24//21 26//21 23//21
f 26//22 20//22 23//22
f 21//23 26//23 25//23
f 21//15 27//15 26//15
f 20//22 26//22 27//22
f 28//24 20//24 27//24
f 16//15 28//15 27//15
f 16//15 27//15 21//15
f 17//15 9//15 28//15
f 9//9 14//9 28//9
f 17//15 28//15 16//15
f 20//25 28//25 14//25
f 2//16 13//16 4//16
f 2//15 11//15 9//15
f 5//14 11//14 2//14
f 5//15 10//15 11//15
f 10//14 5//14 30//14
f 29//26 10//26 30//26
f 10//26 29//26 3//26
f 31//27 30//27 5//27
f 30//28 31//28 32//28
f 32//29 35//29 30//29
f 30//30 33//30 29//30
f 33//30 30//30 34//30
f 30//31 36//31 34//31
f 30//32 35//32 36//32
f 35//33 37//33 36//33
f 36//34 33//34 34//34
f 33//35 36//35 37//35
f 37//3 38//3 33//3
f 39//2 38//2 37//2
f 37//36 35//36 39//36
f 35//37 44//37 39//37
f 39//2 43//2 40//2
f 38//38 39//38 40//38
f 41//3 39//3 44//3
f 42//2 39//2 41//2
f 42//2 43//2 39//2
f 41//2 44//2 48//2
f 44//37 35//37 45//37
f 47//39 44//39 45//39
f 48//2 44//2 46//2
f 44//39 47//39 46//39
f 48//2 49//2 50//2
f 48//2 46//2 49//2
f 50//40 51//40 48//40
f 51//41 41//41 48//41
f 45//15 51//15 47//15
f 45//15 54//15 51//15
f 47//14 51//14 52//14
f 52//15 51//15 53//15
f 51//40 50//40 53//40
f 41//42 51//42 54//42
f 35//14 54//14 45//14
f 55//43 41//43 54//43
f 35//15 55//15 54//15
f 56//44 55//44 57//44
f 55//44 56//44 42//44
f 41//45 55//45 42//45
f 35//15 57//15 55//15
f 35//14 58//14 57//14
f 59//46 57//46 58//46
f 57//46 59//46 56//46
f 59//2 61//2 56//2
f 58//47 60//47 59//47
f 60//3 62//3 59//3
f 59//2 62//2 61//2
f 60//2 63//2 62//2
f 64//48 62//48 63//48
f 62//48 64//48 66//48
f 65//49 62//49 66//49
f 62//50 65//50 61//50
f 67//15 66//15 64//15
f 66//15 67//15 65//15
f 67//51 69//51 68//51
f 68//52 40//52 67//52
f 67//53 71//53 69//53
f 73//54 67//54 70//54
f 40//55 70//55 67//55
f 65//14 67//14 74//14
f 71//56 67//56 72//56
f 67//57 64//57 72//57
f 74//15 67//15 73//15
f 43//58 65//58 74//58
f 73//59 43//59 74//59
f 43//59 73//59 76//59
f 73//15 70//15 75//15
f 77//60 73//60 75//60
f 73//60 77//60 76//60
f 78//2 77//2 79//2
f 78//3 76//3 77//3
f 79//3 77//3 81//3
f 81//2 77//2 80//2
f 75//61 80//61 77//61
f 81//2 80//2 82//2
f 84//62 81//62 82//62
f 85//63 81//63 83//63
f 81//64 84//64 83//64
f 81//65 85//65 79//65
f 85//66 78//66 79//66
f 75//14 70//14 85//14
f 78//67 85//67 70//67
f 75//14 85//14 83//14
f 86//15 83//15 84//15
f 87//68 84//68 82//68
f 86//14 84//14 88//14
f 84//68 87//68 88//68
f 86//15 88//15 89//15
f 87//69 89//69 88//69
f 89//70 87//70 90//70
f 90//71 86//71 89//71
f 86//71 90//71 80//71
f 87//3 80//3 90//3
f 82//3 80//3 87//3
f 80//61 75//61 86//61
f 75//15 83//15 86//15
f 70//72 40//72 78//72
f 40//38 76//38 78//38
f 76//2 40//2 43//2
f 72//73 93//73 91//73
f 91//74 71//74 72//74
f 92//75 72//75 95//75
f 72//76 92//76 94//76
f 93//73 72//73 94//73
f 95//77 72//77 96//77
f 96//78 72//78 64//78
f 95//79 96//79 98//79
f 64//80 97//80 96//80
f 96//81 97//81 98//81
f 99//2 98//2 101//2
f 98//2 99//2 100//2
f 98//82 92//82 95//82
f 92//83 98//83 100//83
f 101//2 98//2 97//2
f 102//84 101//84 103//84
f 101//84 102//84 99//84
f 101//85 104//85 103//85
f 104//85 101//85 105//85
f 101//2 97//2 105//2
f 105//86 63//86 106//86
f 106//87 104//87 105//87
f 105//2 97//2 63//2
f 60//88 107//88 106//88
f 104//89 106//89 107//89
f 106//2 63//2 60//2
f 109//90 107//90 108//90
f 107//91 60//91 108//91
f 109//92 104//92 107//92
f 109//93 103//93 104//93
f 109//94 102//94 103//94
f 102//95 109//95 110//95
f 35//96 32//96 109//96
f 113//97 109//97 32//97
f 35//98 109//98 108//98
f 109//99 112//99 110//99
f 112//100 109//100 111//100
f 109//97 113//97 111//97
f 113//15 114//15 112//15
f 114//101 113//101 115//101
f 113//15 112//15 111//15
f 91//102 115//102 113//102
f 116//15 113//15 117//15
f 91//15 113//15 116//15
f 32//103 117//103 113//103
f 31//104 116//104 117//104
f 117//103 32//103 31//103
f 71//74 91//74 116//74
f 116//105 31//105 71//105
f 115//106 91//106 121//106
f 115//107 118//107 114//107
f 120//108 118//108 115//108
f 119//109 120//109 115//109
f 121//110 119//110 115//110
f 119//110 121//110 123//110
f 122//111 121//111 125//111
f 122//112 124//112 121//112
f 124//113 123//113 121//113
f 91//114 125//114 121//114
f 93//115 127//115 125//115
f 125//15 91//15 93//15
f 125//116 126//116 122//116
f 126//116 125//116 127//116
f 94//117 128//117 127//117
f 131//118 127//118 128//118
f 127//119 130//119 126//119
f 127//115 93//115 94//115
f 129//120 127//120 131//120
f 127//121 129//121 130//121
f 131//122 134//122 129//122
f 132//123 131//123 128//123
f 131//124 132//124 133//124
f 134//122 131//122 133//122
f 135//2 134//2 136//2
f 135//2 137//2 134//2
f 136//3 134//3 133//3
f 134//125 130//125 129//125
f 130//125 134//125 137//125
f 137//5 138//5 140//5
f 138//2 137//2 141//2
f 139//126 137//126 140//126
f 137//127 139//127 130//127
f 135//3 141//3 137//3
f 142//128 138//128 141//128
f 143//129 142//129 141//129
f 135//2 143//2 141//2
f 135//2 144//2 143//2
f 144//130 145//130 143//130
f 142//129 143//129 145//129
f 146//15 130//15 145//15
f 145//130 144//130 146//130
f 145//15 130//15 142//15
f 147//131 146//131 144//131
f 148//23 130//23 146//23
f 146//131 147//131 148//131
f 149//15 130//15 148//15
f 148//132 150//132 149//132
f 150//132 148//132 147//132
f 151//2 150//2 147//2
f 151//2 152//2 150//2
f 152//133 149//133 150//133
f 152//134 155//134 153//134
f 149//133 152//133 153//133
f 155//134 152//134 154//134
f 151//2 154//2 152//2
f 155//15 130//15 153//15
f 156//15 130//15 155//15
f 154//135 156//135 155//135
f 157//136 156//136 158//136
f 156//137 157//137 159//137
f 159//138 130//138 156//138
f 156//139 154//139 158//139
f 159//140 160//140 130//140
f 160//23 159//23 161//23
f 157//141 161//141 159//141
f 162//142 160//142 161//142
f 161//141 157//141 162//141
f 160//143 162//143 163//143
f 157//144 163//144 162//144
f 164//145 163//145 166//145
f 164//146 160//146 163//146
f 165//3 163//3 157//3
f 165//2 166//2 163//2
f 168//147 166//147 167//147
f 169//2 167//2 166//2
f 164//148 166//148 168//148
f 169//2 166//2 165//2
f 169//149 170//149 167//149
f 169//2 172//2 170//2
f 169//2 171//2 172//2
f 173//2 171//2 169//2
f 174//150 173//150 169//150
f 165//151 174//151 169//151
f 174//151 165//151 177//151
f 175//152 176//152 174//152
f 177//153 175//153 174//153
f 173//154 174//154 176//154
f 123//155 175//155 177//155
f 165//156 178//156 177//156
f 178//157 123//157 177//157
f 179//158 123//158 178//158
f 178//159 135//159 179//159
f 135//159 178//159 151//159
f 178//156 165//156 151//156
f 179//160 136//160 180//160
f 136//160 179//160 135//160
f 180//161 123//161 179//161
f 181//162 180//162 136//162
f 180//163 181//163 182//163
f 182//164 123//164 180//164
f 183//165 182//165 181//165
f 182//166 183//166 184//166
f 184//167 123//167 182//167
f 185//168 184//168 183//168
f 184//169 185//169 186//169
f 184//170 186//170 119//170
f 184//171 119//171 123//171
f 185//172 187//172 186//172
f 186//173 187//173 119//173
f 187//174 189//174 119//174
f 188//175 189//175 187//175
f 187//176 185//176 188//176
f 191//177 190//177 189//177
f 189//178 190//178 119//178
f 189//179 188//179 191//179
f 192//2 191//2 197//2
f 199//86 191//86 192//86
f 193//38 191//38 195//38
f 196//2 191//2 193//2
f 190//177 191//177 194//177
f 198//2 194//2 191//2
f 195//3 191//3 199//3
f 198//2 191//2 196//2
f 197//2 191//2 188//2
f 201//180 199//180 200//180
f 202//181 200//181 199//181
f 199//182 201//182 195//182
f 192//2 202//2 199//2
f 200//181 202//181 205//181
f 202//86 192//86 203//86
f 204//183 202//183 203//183
f 202//184 204//184 205//184
f 206//185 205//185 204//185
f 206//185 200//185 205//185
f 206//54 201//54 200//54
f 206//15 214//15 201//15
f 206//15 207//15 216//15
f 206//15 211//15 207//15
f 213//186 208//186 206//186
f 206//187 208//187 218//187
f 206//15 209//15 212//15
f 218//15 209//15 206//15
f 210//188 213//188 206//188
f 206//189 197//189 210//189
f 206//15 212//15 211//15
f 197//190 206//190 192//190
f 206//191 203//191 192//191
f 203//192 206//192 204//192
f 206//54 217//54 214//54
f 206//15 215//15 217//15
f 206//15 216//15 215//15
f 209//15 218//15 219//15
f 221//193 219//193 218//193
f 208//194 220//194 218//194
f 220//195 221//195 218//195
f 221//38 224//38 222//38
f 222//196 223//196 221//196
f 219//197 221//197 223//197
f 225//2 224//2 221//2
f 221//195 220//195 225//195
f 226//3 224//3 225//3
f 220//198 226//198 225//198
f 226//2 227//2 224//2
f 229//2 227//2 226//2
f 228//199 226//199 220//199
f 228//200 229//200 226//200
f 232//201 227//201 229//201
f 230//202 229//202 231//202
f 229//202 230//202 232//202
f 231//203 229//203 228//203
f 232//204 234//204 233//204
f 233//38 227//38 232//38
f 234//205 232//205 230//205
f 231//206 234//206 230//206
f 234//207 236//207 235//207
f 235//208 233//208 234//208
f 231//209 236//209 234//209
f 231//210 208//210 236//210
f 208//211 241//211 236//211
f 236//212 237//212 239//212
f 238//213 237//213 236//213
f 235//214 236//214 242//214
f 236//215 240//215 238//215
f 236//216 239//216 242//216
f 240//215 236//215 241//215
f 243//217 242//217 244//217
f 242//218 243//218 245//218
f 239//32 244//32 242//32
f 245//219 247//219 242//219
f 242//15 246//15 235//15
f 246//14 242//14 247//14
f 247//220 245//220 248//220
f 248//221 246//221 247//221
f 245//5 249//5 248//5
f 246//222 248//222 249//222
f 251//223 249//223 250//223
f 249//86 243//86 250//86
f 249//38 245//38 243//38
f 249//223 251//223 246//223
f 235//15 251//15 253//15
f 235//15 246//15 251//15
f 252//224 251//224 250//224
f 251//225 252//225 253//225
f 255//226 253//226 252//226
f 235//15 253//15 254//15
f 253//227 255//227 254//227
f 255//2 257//2 256//2
f 260//228 255//228 256//228
f 255//229 260//229 254//229
f 255//2 258//2 257//2
f 255//3 259//3 258//3
f 252//2 259//2 255//2
f 256//230 261//230 260//230
f 235//231 260//231 261//231
f 235//232 254//232 260//232
f 262//233 235//233 261//233
f 261//234 256//234 262//234
f 235//235 262//235 263//235
f 262//2 264//2 263//2
f 256//3 264//3 262//3
f 257//236 265//236 264//236
f 266//237 264//237 265//237
f 264//237 266//237 227//237
f 263//2 264//2 227//2
f 256//2 257//2 264//2
f 224//238 266//238 267//238
f 266//238 224//238 227//238
f 268//239 266//239 265//239
f 267//240 266//240 268//240
f 124//241 268//241 175//241
f 268//241 124//241 120//241
f 175//242 268//242 269//242
f 119//243 267//243 268//243
f 120//109 119//109 268//109
f 268//244 271//244 269//244
f 268//245 265//245 270//245
f 268//246 270//246 271//246
f 257//247 271//247 270//247
f 271//248 259//248 269//248
f 271//249 257//249 258//249
f 259//250 271//250 258//250
f 265//251 257//251 270//251
f 259//252 272//252 269//252
f 175//253 269//253 272//253
f 274//254 273//254 272//254
f 175//255 272//255 273//255
f 272//256 259//256 274//256
f 273//257 274//257 276//257
f 274//2 275//2 276//2
f 259//2 275//2 274//2
f 276//2 275//2 277//2
f 276//2 277//2 173//2
f 276//258 176//258 273//258
f 176//259 276//259 173//259
f 278//260 277//260 280//260
f 277//261 278//261 281//261
f 277//262 279//262 280//262
f 279//262 277//262 275//262
f 173//2 277//2 281//2
f 278//263 171//263 281//263
f 173//3 281//3 171//3
f 279//15 168//15 280//15
f 280//14 168//14 278//14
f 282//15 168//15 279//15
f 275//264 282//264 279//264
f 283//265 282//265 286//265
f 282//265 283//265 285//265
f 282//15 284//15 168//15
f 285//54 284//54 282//54
f 282//266 275//266 286//266
f 288//3 283//3 286//3
f 252//267 286//267 259//267
f 275//2 259//2 286//2
f 287//3 286//3 252//3
f 288//86 286//86 287//86
f 284//268 290//268 288//268
f 288//269 289//269 284//269
f 291//2 288//2 287//2
f 290//267 283//267 288//267
f 289//270 288//270 292//270
f 291//2 292//2 288//2
f 293//271 289//271 292//271
f 294//2 292//2 291//2
f 294//38 293//38 292//38
f 237//272 294//272 291//272
f 294//273 296//273 295//273
f 295//3 293//3 294//3
f 294//272 237//272 297//272
f 296//273 294//273 297//273
f 238//274 297//274 237//274
f 238//275 296//275 297//275
f 298//276 295//276 296//276
f 296//277 238//277 298//277
f 298//278 299//278 300//278
f 298//279 302//279 299//279
f 298//280 300//280 303//280
f 238//281 301//281 298//281
f 301//15 302//15 298//15
f 295//282 298//282 304//282
f 303//283 304//283 298//283
f 304//3 305//3 295//3
f 304//201 306//201 305//201
f 307//196 306//196 304//196
f 304//284 303//284 307//284
f 308//2 306//2 307//2
f 303//285 308//285 307//285
f 308//2 309//2 306//2
f 310//2 309//2 308//2
f 300//286 310//286 308//286
f 308//287 303//287 300//287
f 310//286 300//286 299//286
f 302//288 310//288 299//288
f 311//2 312//2 310//2
f 310//288 302//288 311//288
f 310//2 312//2 309//2
f 314//289 309//289 312//289
f 315//290 312//290 313//290
f 311//3 313//3 312//3
f 312//291 315//291 314//291
f 318//292 315//292 313//292
f 315//15 316//15 317//15
f 319//15 316//15 315//15
f 315//15 317//15 314//15
f 315//293 318//293 319//293
f 320//14 321//14 319//14
f 318//294 320//294 319//294
f 319//15 321//15 323//15
f 319//15 322//15 316//15
f 319//14 323//14 322//14
f 325//295 322//295 323//295
f 324//296 323//296 321//296
f 323//296 324//296 325//296
f 324//2 318//2 325//2
f 322//295 325//295 326//295
f 325//2 318//2 326//2
f 326//86 318//86 327//86
f 327//297 322//297 326//297
f 311//2 327//2 313//2
f 311//2 330//2 327//2
f 322//298 327//298 316//298
f 327//299 328//299 316//299
f 328//300 327//300 329//300
f 331//2 329//2 327//2
f 327//2 318//2 313//2
f 331//86 327//86 330//86
f 334//2 329//2 331//2
f 333//301 331//301 332//301
f 330//302 332//302 331//302
f 331//303 333//303 334//303
f 335//2 329//2 334//2
f 334//304 336//304 335//304
f 336//305 334//305 333//305
f 339//306 336//306 333//306
f 339//307 337//307 336//307
f 338//308 336//308 337//308
f 336//309 338//309 335//309
f 339//310 332//310 301//310
f 339//306 333//306 332//306
f 342//311 339//311 340//311
f 339//312 240//312 340//312
f 238//313 339//313 301//313
f 339//314 341//314 343//314
f 339//315 342//315 341//315
f 337//307 339//307 343//307
f 240//312 339//312 238//312
f 341//316 344//316 343//316
f 344//15 345//15 343//15
f 343//232 345//232 346//232
f 346//317 347//317 343//317
f 338//318 343//318 347//318
f 343//319 338//319 337//319
f 347//320 348//320 338//320
f 347//2 349//2 348//2
f 350//2 349//2 347//2
f 347//317 346//317 350//317
f 350//86 351//86 349//86
f 352//2 351//2 350//2
f 350//321 345//321 352//321
f 345//322 350//322 346//322
f 345//323 353//323 352//323
f 353//2 355//2 352//2
f 352//2 354//2 351//2
f 352//3 355//3 354//3
f 355//2 356//2 360//2
f 359//196 356//196 355//196
f 355//324 357//324 359//324
f 357//325 355//325 344//325
f 353//38 361//38 355//38
f 355//326 358//326 344//326
f 358//326 355//326 361//326
f 360//2 354//2 355//2
f 353//2 362//2 361//2
f 362//327 358//327 361//327
f 363//2 362//2 353//2
f 363//2 364//2 362//2
f 358//327 362//327 366//327
f 365//328 362//328 364//328
f 362//329 365//329 366//329
f 366//15 367//15 368//15
f 365//14 367//14 366//14
f 366//15 368//15 358//15
f 344//15 368//15 345//15
f 353//330 345//330 368//330
f 367//331 353//331 368//331
f 358//332 368//332 344//332
f 365//15 369//15 367//15
f 370//333 367//333 369//333
f 367//333 370//333 363//333
f 353//331 367//331 363//331
f 370//2 364//2 363//2
f 370//2 371//2 364//2
f 370//2 372//2 371//2
f 373//2 372//2 370//2
f 369//334 373//334 370//334
f 372//3 373//3 374//3
f 375//335 374//335 373//335
f 373//334 369//334 375//334
f 374//336 375//336 377//336
f 376//14 375//14 369//14
f 375//15 376//15 377//15
f 376//337 374//337 377//337
f 374//337 376//337 372//337
f 378//338 372//338 376//338
f 376//14 369//14 378//14
f 364//339 378//339 365//339
f 378//340 364//340 371//340
f 372//341 378//341 371//341
f 378//15 369//15 365//15
f 360//2 381//2 354//2
f 356//342 382//342 360//342
f 360//343 380//343 379//343
f 379//2 381//2 360//2
f 380//344 360//344 382//344
f 384//345 383//345 382//345
f 385//15 382//15 383//15
f 387//346 384//346 382//346
f 382//347 356//347 387//347
f 386//14 382//14 385//14
f 386//15 380//15 382//15
f 384//346 387//346 388//346
f 387//348 389//348 388//348
f 389//349 387//349 356//349
f 390//3 389//3 392//3
f 390//267 391//267 389//267
f 391//350 388//350 389//350
f 359//5 389//5 356//5
f 392//3 389//3 359//3
f 393//351 390//351 392//351
f 359//352 393//352 392//352
f 390//353 393//353 394//353
f 393//354 359//354 357//354
f 395//355 393//355 357//355
f 395//356 394//356 393//356
f 394//357 395//357 396//357
f 395//358 399//358 396//358
f 395//359 344//359 341//359
f 341//360 398//360 395//360
f 344//361 395//361 357//361
f 388//362 395//362 384//362
f 400//363 395//363 388//363
f 395//364 397//364 384//364
f 397//364 395//364 398//364
f 395//365 400//365 399//365
f 388//366 391//366 400//366
f 400//367 401//367 399//367
f 401//368 400//368 391//368
f 402//38 401//38 391//38
f 402//2 403//2 401//2
f 401//369 404//369 399//369
f 404//370 401//370 403//370
f 404//14 406//14 399//14
f 404//15 405//15 406//15
f 408//15 405//15 404//15
f 404//371 407//371 408//371
f 407//371 404//371 403//371
f 409//372 408//372 407//372
f 408//373 409//373 410//373
f 410//15 405//15 408//15
f 411//15 413//15 410//15
f 409//374 411//374 410//374
f 410//14 412//14 405//14
f 410//15 413//15 412//15
f 413//375 416//375 412//375
f 415//14 414//14 413//14
f 414//376 417//376 413//376
f 415//15 413//15 411//15
f 416//377 413//377 417//377
f 417//2 418//2 409//2
f 419//3 418//3 417//3
f 417//2 409//2 416//2
f 417//376 414//376 419//376
f 419//2 421//2 418//2
f 419//378 422//378 420//378
f 420//2 421//2 419//2
f 422//378 419//378 414//378
f 414//15 424//15 422//15
f 423//379 422//379 424//379
f 422//110 423//110 420//110
f 424//380 421//380 423//380
f 424//14 414//14 415//14
f 421//381 424//381 415//381
f 421//2 420//2 423//2
f 411//382 421//382 415//382
f 421//383 411//383 418//383
f 411//384 409//384 418//384
f 416//385 405//385 412//385
f 405//385 416//385 425//385
f 416//2 409//2 425//2
f 426//386 405//386 425//386
f 425//2 403//2 426//2
f 425//2 409//2 407//2
f 425//2 407//2 403//2
f 396//387 426//387 402//387
f 426//2 403//2 402//2
f 426//387 396//387 406//387
f 405//386 426//386 406//386
f 399//185 406//185 396//185
f 390//388 396//388 402//388
f 402//38 391//38 390//38
f 398//389 341//389 342//389
f 342//390 120//390 398//390
f 120//391 397//391 398//391
f 397//392 120//392 427//392
f 427//393 384//393 397//393
f 124//394 428//394 427//394
f 428//395 429//395 427//395
f 427//396 120//396 124//396
f 384//397 427//397 429//397
f 429//398 383//398 384//398
f 429//399 431//399 383//399
f 328//400 429//400 316//400
f 431//401 429//401 328//401
f 429//395 428//395 430//395
f 430//402 316//402 429//402
f 348//403 383//403 431//403
f 431//404 329//404 348//404
f 329//405 431//405 328//405
f 428//406 433//406 430//406
f 430//407 317//407 316//407
f 430//408 432//408 317//408
f 432//409 430//409 289//409
f 430//410 284//410 289//410
f 284//411 430//411 433//411
f 168//412 284//412 433//412
f 126//413 168//413 433//413
f 434//414 126//414 433//414
f 433//415 428//415 434//415
f 126//414 434//414 122//414
f 428//416 124//416 434//416
f 434//417 124//417 122//417
f 289//271 293//271 432//271
f 432//418 305//418 317//418
f 305//419 432//419 293//419
f 396//388 390//388 394//388
f 386//420 354//420 381//420
f 437//421 386//421 381//421
f 354//422 386//422 385//422
f 386//15 435//15 380//15
f 436//15 435//15 386//15
f 386//421 437//421 436//421
f 439//423 437//423 438//423
f 441//2 438//2 437//2
f 437//423 439//423 436//423
f 440//2 437//2 381//2
f 441//3 437//3 440//3
f 443//2 438//2 441//2
f 442//424 443//424 441//424
f 440//425 442//425 441//425
f 444//2 438//2 443//2
f 445//426 444//426 443//426
f 443//427 442//427 445//427
f 439//15 445//15 442//15
f 439//15 446//15 445//15
f 444//428 445//428 446//428
f 446//429 447//429 444//429
f 447//430 446//430 450//430
f 448//14 446//14 449//14
f 446//140 448//140 450//140
f 449//14 446//14 439//14
f 448//431 447//431 450//431
f 451//432 449//432 452//432
f 449//432 451//432 448//432
f 439//433 452//433 449//433
f 444//2 452//2 438//2
f 444//2 451//2 452//2
f 452//434 439//434 438//434
f 447//435 448//435 451//435
f 451//436 444//436 447//436
f 436//14 442//14 435//14
f 439//15 442//15 436//15
f 442//425 440//425 435//425
f 440//437 380//437 435//437
f 380//437 440//437 379//437
f 440//2 381//2 379//2
f 385//438 383//438 453//438
f 453//439 354//439 385//439
f 354//439 453//439 351//439
f 453//440 349//440 351//440
f 349//440 453//440 383//440
f 383//441 348//441 349//441
f 338//2 348//2 335//2
f 335//3 348//3 329//3
f 120//442 342//442 340//442
f 120//443 340//443 240//443
f 332//444 330//444 301//444
f 454//2 330//2 311//2
f 455//445 301//445 330//445
f 454//3 455//3 330//3
f 457//446 455//446 456//446
f 454//2 456//2 455//2
f 455//446 457//446 458//446
f 301//447 455//447 458//447
f 458//332 459//332 301//332
f 457//54 459//54 458//54
f 462//14 459//14 457//14
f 301//15 459//15 302//15
f 454//448 302//448 459//448
f 460//449 459//449 461//449
f 459//450 460//450 454//450
f 462//15 461//15 459//15
f 462//451 463//451 461//451
f 464//15 463//15 462//15
f 462//452 465//452 464//452
f 465//453 462//453 466//453
f 456//454 462//454 457//454
f 462//455 456//455 466//455
f 460//2 466//2 454//2
f 467//456 466//456 460//456
f 454//3 466//3 456//3
f 467//2 465//2 466//2
f 467//2 468//2 465//2
f 468//2 467//2 469//2
f 460//457 463//457 467//457
f 463//458 469//458 467//458
f 469//459 470//459 468//459
f 470//459 469//459 471//459
f 469//458 463//458 471//458
f 463//23 470//23 471//23
f 470//15 463//15 464//15
f 464//460 468//460 470//460
f 468//461 464//461 465//461
f 463//462 460//462 461//462
f 302//448 454//448 311//448
f 324//3 472//3 318//3
f 324//2 475//2 472//2
f 473//3 475//3 324//3
f 324//463 474//463 473//463
f 474//463 324//463 321//463
f 320//464 475//464 476//464
f 475//464 320//464 472//464
f 475//465 479//465 476//465
f 477//2 475//2 473//2
f 475//2 477//2 478//2
f 479//466 475//466 478//466
f 480//14 476//14 479//14
f 477//467 479//467 478//467
f 479//468 477//468 480//468
f 476//15 480//15 474//15
f 477//469 474//469 480//469
f 474//470 477//470 473//470
f 476//54 321//54 320//54
f 476//15 474//15 321//15
f 320//294 318//294 472//294
f 317//471 306//471 481//471
f 306//472 317//472 305//472
f 482//138 317//138 481//138
f 314//138 317//138 482//138
f 306//473 482//473 481//473
f 482//474 306//474 309//474
f 309//289 314//289 482//289
f 295//2 305//2 293//2
f 287//475 237//475 291//475
f 290//476 486//476 483//476
f 483//3 484//3 290//3
f 290//2 484//2 283//2
f 290//477 284//477 485//477
f 486//478 290//478 485//478
f 487//479 483//479 486//479
f 488//14 486//14 485//14
f 486//480 488//480 487//480
f 488//15 485//15 285//15
f 285//481 484//481 488//481
f 489//482 488//482 484//482
f 488//483 489//483 487//483
f 484//484 483//484 489//484
f 483//479 487//479 489//479
f 285//206 485//206 284//206
f 484//481 285//481 283//481
f 250//2 287//2 252//2
f 237//475 287//475 239//475
f 243//485 239//485 287//485
f 250//196 243//196 287//196
f 171//486 278//486 490//486
f 278//138 168//138 490//138
f 491//487 171//487 490//487
f 490//138 168//138 491//138
f 491//14 168//14 492//14
f 171//487 491//487 172//487
f 491//488 170//488 172//488
f 170//489 491//489 492//489
f 492//490 167//490 170//490
f 167//491 492//491 168//491
f 175//492 273//492 176//492
f 190//493 267//493 119//493
f 190//494 224//494 267//494
f 233//208 235//208 263//208
f 263//2 227//2 233//2
f 239//495 243//495 244//495
f 241//496 120//496 240//496
f 120//497 241//497 118//497
f 241//498 208//498 118//498
f 208//499 231//499 228//499
f 208//500 228//500 220//500
f 493//2 224//2 194//2
f 494//2 224//2 493//2
f 222//2 224//2 494//2
f 224//494 190//494 194//494
f 494//501 211//501 212//501
f 211//501 494//501 493//501
f 212//502 222//502 494//502
f 495//503 211//503 493//503
f 493//2 194//2 495//2
f 495//2 194//2 496//2
f 211//504 495//504 207//504
f 496//505 207//505 495//505
f 207//506 496//506 216//506
f 496//2 194//2 198//2
f 496//507 215//507 216//507
f 215//507 496//507 198//507
f 222//508 219//508 223//508
f 219//508 222//508 209//508
f 222//502 212//502 209//502
f 217//509 193//509 214//509
f 215//510 196//510 217//510
f 193//509 217//509 196//509
f 196//510 215//510 198//510
f 214//511 195//511 201//511
f 195//511 214//511 193//511
f 213//512 112//512 114//512
f 112//512 213//512 110//512
f 114//513 208//513 213//513
f 110//514 213//514 497//514
f 213//515 210//515 497//515
f 102//516 110//516 497//516
f 210//517 498//517 497//517
f 500//518 497//518 498//518
f 499//278 102//278 497//278
f 497//519 500//519 499//519
f 500//2 185//2 501//2
f 498//201 185//201 500//201
f 501//520 499//520 500//520
f 501//2 185//2 183//2
f 499//521 501//521 502//521
f 503//522 502//522 501//522
f 501//3 183//3 503//3
f 503//2 504//2 506//2
f 503//2 507//2 504//2
f 503//523 505//523 508//523
f 505//524 503//524 506//524
f 503//2 183//2 507//2
f 502//522 503//522 508//522
f 102//15 508//15 505//15
f 102//15 502//15 508//15
f 507//525 511//525 509//525
f 512//526 507//526 509//526
f 183//2 510//2 507//2
f 511//525 507//525 510//525
f 507//527 512//527 504//527
f 512//15 92//15 513//15
f 509//15 92//15 512//15
f 512//528 514//528 504//528
f 514//529 512//529 513//529
f 515//3 514//3 516//3
f 506//2 514//2 515//2
f 513//530 516//530 514//530
f 506//2 504//2 514//2
f 517//2 516//2 519//2
f 100//3 516//3 517//3
f 516//530 513//530 518//530
f 520//531 516//531 518//531
f 515//3 516//3 100//3
f 516//531 520//531 519//531
f 520//15 521//15 522//15
f 518//15 521//15 520//15
f 520//54 522//54 523//54
f 523//532 519//532 520//532
f 523//533 527//533 524//533
f 525//534 523//534 524//534
f 523//534 525//534 526//534
f 519//535 523//535 526//535
f 523//533 528//533 527//533
f 523//536 522//536 528//536
f 522//537 529//537 528//537
f 530//538 528//538 529//538
f 528//538 530//538 527//538
f 529//2 526//2 530//2
f 525//539 527//539 530//539
f 530//2 526//2 525//2
f 531//2 526//2 529//2
f 529//540 522//540 531//540
f 521//541 531//541 522//541
f 517//38 519//38 531//38
f 531//541 521//541 517//541
f 531//3 519//3 526//3
f 527//542 525//542 524//542
f 518//14 92//14 521//14
f 92//543 517//543 521//543
f 513//14 92//14 518//14
f 517//544 92//544 100//544
f 99//2 515//2 100//2
f 515//2 99//2 532//2
f 534//545 515//545 532//545
f 505//546 515//546 533//546
f 515//547 534//547 533//547
f 515//548 505//548 506//548
f 102//14 534//14 537//14
f 102//15 533//15 534//15
f 537//15 534//15 535//15
f 534//549 536//549 535//549
f 536//550 534//550 532//550
f 537//54 535//54 538//54
f 538//551 539//551 537//551
f 539//552 102//552 537//552
f 532//38 539//38 536//38
f 532//3 99//3 539//3
f 102//553 539//553 99//553
f 539//554 538//554 540//554
f 536//2 539//2 540//2
f 536//3 540//3 541//3
f 538//555 541//555 540//555
f 541//556 538//556 542//556
f 543//557 541//557 542//557
f 536//86 541//86 544//86
f 541//558 543//558 545//558
f 544//196 541//196 545//196
f 544//559 545//559 546//559
f 543//560 546//560 545//560
f 547//561 546//561 548//561
f 546//562 547//562 544//562
f 546//560 543//560 548//560
f 543//206 547//206 548//206
f 542//563 547//563 543//563
f 542//15 535//15 547//15
f 535//564 544//564 547//564
f 544//565 535//565 536//565
f 538//15 535//15 542//15
f 102//15 505//15 533//15
f 511//15 92//15 509//15
f 549//15 92//15 511//15
f 510//566 549//566 511//566
f 549//567 510//567 550//567
f 550//568 128//568 549//568
f 92//140 549//140 128//140
f 181//3 132//3 550//3
f 128//569 550//569 132//569
f 181//2 550//2 510//2
f 181//3 510//3 183//3
f 102//15 499//15 502//15
f 197//2 188//2 498//2
f 498//570 210//570 197//570
f 498//2 188//2 185//2
f 208//513 114//513 118//513
f 136//2 132//2 181//2
f 123//113 124//113 175//113
f 168//571 126//571 164//571
f 165//3 157//3 158//3
f 165//2 158//2 154//2
f 165//2 154//2 151//2
f 164//572 126//572 160//572
f 130//573 160//573 126//573
f 153//15 130//15 149//15
f 151//2 147//2 135//2
f 135//2 147//2 144//2
f 142//23 130//23 551//23
f 138//128 142//128 551//128
f 551//574 130//574 139//574
f 139//575 138//575 551//575
f 138//576 139//576 140//576
f 136//2 133//2 132//2
f 92//577 128//577 94//577
f 58//54 35//54 108//54
f 60//578 58//578 108//578
f 64//579 63//579 97//579
f 31//580 69//580 71//580
f 69//581 31//581 552//581
f 552//23 553//23 69//23
f 553//582 554//582 69//582
f 554//583 68//583 69//583
f 33//38 554//38 29//38
f 33//3 38//3 554//3
f 29//2 554//2 555//2
f 68//584 554//584 38//584
f 554//585 553//585 555//585
f 3//2 555//2 556//2
f 29//3 555//3 3//3
f 553//586 556//586 555//586
f 556//586 553//586 557//586
f 557//587 558//587 556//587
f 559//2 556//2 558//2
f 6//3 556//3 559//3
f 3//3 556//3 6//3
f 559//2 558//2 561//2
f 561//588 560//588 559//588
f 560//589 6//589 559//589
f 561//590 563//590 562//590
f 560//588 561//588 562//588
f 561//2 558//2 564//2
f 563//590 561//590 564//590
f 564//3 566//3 565//3
f 565//591 563//591 564//591
f 564//2 558//2 566//2
f 565//2 566//2 567//2
f 569//592 567//592 566//592
f 568//593 566//593 558//593
f 566//593 568//593 569//593
f 568//15 563//15 569//15
f 569//15 571//15 570//15
f 567//592 569//592 570//592
f 569//15 563//15 571//15
f 565//594 572//594 571//594
f 563//591 565//591 571//591
f 570//15 571//15 572//15
f 573//14 572//14 574//14
f 570//14 572//14 573//14
f 572//595 576//595 574//595
f 572//596 565//596 575//596
f 576//597 572//597 575//597
f 575//3 577//3 576//3
f 573//598 576//598 577//598
f 576//599 573//599 574//599
f 575//2 567//2 577//2
f 570//600 577//600 567//600
f 577//601 570//601 573//601
f 565//2 567//2 575//2
f 557//15 560//15 568//15
f 558//587 557//587 568//587
f 568//14 560//14 562//14
f 568//15 562//15 563//15
f 557//14 552//14 560//14
f 6//589 560//589 552//589
f 553//14 552//14 557//14
f 552//602 7//602 6//602
f 7//602 552//602 578//602
f 552//603 5//603 578//603
f 5//604 552//604 31//604
f 5//605 7//605 578//605
f 40//606 68//606 38//606
f 65//607 43//607 61//607
f 42//3 61//3 43//3
f 56//3 61//3 42//3
f 579//15 53//15 580//15
f 52//15 53//15 579//15
f 580//14 53//14 582//14
f 53//608 581//608 582//608
f 581//608 53//608 50//608
f 582//609 583//609 580//609
f 583//609 582//609 581//609
f 583//610 579//610 580//610
f 579//610 583//610 584//610
f 50//2 584//2 583//2
f 50//3 583//3 581//3
f 49//611 579//611 584//611
f 50//3 49//3 584//3
f 579//612 49//612 52//612
f 49//613 47//613 52//613
f 47//614 49//614 46//614
