# Blender 5.0.1
# www.blender.org
mtllib right_elbow_x_link_visual_3.mtl
o i01.right.bicep.full.004_visual.001
v -0.391424 -0.185803 0.521081
v -0.389173 -0.147996 0.504375
v -0.340211 -0.185012 0.520730
v -0.383109 -0.202502 0.429811
v -0.412675 -0.167132 0.512830
v -0.373847 -0.198616 0.526732
v -0.346268 -0.232849 0.407511
v -0.354503 -0.210880 0.532151
v -0.315068 -0.242696 0.454286
v -0.322009 -0.252050 0.373192
v -0.333025 -0.221797 0.536985
v -0.275413 -0.213858 0.533476
v -0.309019 -0.232414 0.541670
v -0.279106 -0.243229 0.546452
v -0.278332 -0.269049 0.389576
v -0.257468 -0.286999 0.331735
v -0.220038 -0.312163 0.253762
v -0.268003 -0.311406 0.156478
v -0.235576 -0.285134 0.377081
v -0.276118 -0.289163 0.273219
v -0.228473 -0.326474 0.160607
v -0.195693 -0.377890 -0.071682
v -0.189603 -0.361315 0.028622
v -0.197916 -0.330863 0.179554
v -0.219595 -0.352198 0.029249
v -0.232335 -0.350198 0.009498
v -0.185471 -0.406837 -0.212212
v -0.222747 -0.377923 -0.132677
v -0.265947 -0.327073 0.058024
v -0.241984 -0.370427 -0.143496
v -0.284825 -0.315009 0.064345
v -0.307522 -0.275751 0.261986
v -0.336816 -0.258308 0.248620
v -0.304947 -0.290507 0.160144
v -0.300903 -0.312914 -0.006212
v -0.318764 -0.284078 0.129343
v -0.343050 -0.258636 0.199964
v -0.341951 -0.264714 0.136202
v -0.355600 -0.230681 0.368929
v -0.379989 -0.212895 0.337267
v -0.296982 -0.325043 -0.099366
v -0.312307 -0.257718 0.086757
v -0.274641 -0.288589 0.100398
v -0.235440 -0.359390 -0.312644
v -0.232944 -0.373748 -0.350637
v -0.202042 -0.393682 -0.341830
v -0.252457 -0.389624 -0.343597
v -0.266276 -0.368025 -0.264274
v -0.205655 -0.381242 -0.302988
v -0.223066 -0.308111 0.103760
v -0.181133 -0.376658 -0.349352
v -0.162657 -0.399345 -0.294990
v -0.147466 -0.391808 -0.342658
v -0.141298 -0.399163 -0.388762
v -0.104885 -0.401713 -0.338282
v -0.113164 -0.408006 -0.291163
v -0.059030 -0.406843 -0.291677
v -0.156444 -0.327028 0.112118
v -0.070675 -0.328962 0.112973
v -0.201289 -0.228674 0.540024
v -0.202411 -0.258408 0.553153
v -0.179893 -0.259421 0.553584
v -0.132066 -0.259800 0.553777
v -0.231915 -0.254164 0.551286
v -0.120692 -0.228967 0.540154
v -0.086561 -0.255064 0.551683
v -0.044622 -0.273649 0.325810
v -0.036729 -0.214731 0.533863
v 0.022113 -0.229352 0.540322
v -0.031400 -0.245144 0.547299
v 0.007788 -0.257739 0.320964
v 0.047378 -0.186464 0.521372
v 0.068809 -0.211643 0.532498
v 0.049226 -0.236150 0.309241
v 0.140862 -0.175173 0.516382
v 0.194651 -0.096178 0.481482
v 0.149943 -0.175248 -0.007542
v 0.148785 -0.205650 -0.080476
v 0.051074 -0.287016 0.094440
v 0.160490 -0.221462 0.065474
v 0.246691 -0.096752 0.481730
v 0.249843 -0.045587 0.459127
v 0.151875 0.020538 0.429903
v 0.206832 -0.130787 0.496772
v 0.193236 -0.150996 0.439374
v 0.214388 -0.146921 0.367306
v 0.236455 -0.116399 0.423765
v 0.256930 -0.109123 0.345777
v 0.230283 -0.140671 0.320852
v 0.222453 -0.173613 0.188641
v 0.196443 -0.216511 0.091540
v 0.214586 -0.205342 0.060946
v 0.265582 -0.118810 0.231859
v 0.235465 -0.185531 0.051653
v 0.246499 -0.178671 0.020875
v 0.226075 -0.221993 -0.080161
v 0.201460 -0.280440 -0.239593
v 0.199204 -0.257254 -0.118457
v 0.227239 -0.254331 -0.247991
v 0.207027 -0.291618 -0.319874
v 0.252303 -0.219859 -0.233864
v 0.251765 -0.194561 -0.095242
v 0.230729 -0.267764 -0.333761
v 0.257760 -0.246352 -0.406926
v 0.226889 -0.285424 -0.389663
v 0.259715 -0.235155 -0.370876
v 0.274410 -0.220067 -0.418541
v 0.291358 -0.148086 -0.163859
v 0.286915 -0.174178 -0.281398
v 0.287286 -0.185993 -0.364553
v 0.275120 -0.176870 -0.175572
v 0.304967 -0.106530 -0.045815
v 0.297566 -0.107506 0.028726
v 0.280825 -0.138419 -0.005227
v 0.267357 -0.150235 0.032236
v 0.292829 -0.096139 0.150363
v 0.278984 -0.082667 0.350573
v 0.293717 -0.072282 0.291005
v 0.320880 -0.034181 0.278146
v 0.322858 -0.051397 0.125047
v 0.345572 0.008533 0.270845
v 0.329488 0.000055 0.438959
v 0.340415 0.006793 0.340766
v 0.316265 -0.028392 0.370709
v 0.284595 -0.058134 0.464670
v 0.284879 -0.004764 0.441088
v 0.267404 -0.025452 0.450229
v 0.230675 -0.154757 0.041264
v 0.221347 -0.159231 0.074114
v 0.176582 -0.296657 -0.340363
v 0.161354 -0.310325 -0.334323
v 0.205604 -0.181999 0.053301
v 0.167007 -0.190860 -0.087010
v 0.126284 -0.334887 -0.323471
v 0.168178 -0.160446 -0.014082
v 0.170343 0.035814 0.423137
v 0.054732 -0.375588 -0.305488
v 0.147398 -0.310928 -0.378566
v 0.114786 -0.333853 -0.368264
v 0.144793 -0.323921 -0.422009
v 0.048355 -0.371884 -0.351460
v 0.100480 -0.354881 -0.408329
v 0.051045 -0.380665 -0.396935
v 0.105712 -0.365413 -0.403675
v 0.151584 -0.334908 -0.417153
v 0.196428 -0.296936 -0.433932
v 0.156381 -0.323228 -0.372960
v 0.169508 -0.339540 -0.365750
v 0.197411 -0.315207 -0.376503
v 0.105740 -0.359107 -0.357106
v 0.201640 -0.281843 -0.391246
v 0.124356 -0.371779 -0.351506
v 0.098364 -0.372283 -0.285091
v 0.119185 -0.349472 -0.243315
v 0.094351 -0.389140 -0.343834
v 0.138642 -0.347688 -0.296642
v 0.168006 -0.321992 -0.284961
v 0.139126 -0.325291 -0.199247
v 0.141773 -0.291175 -0.052505
v 0.168605 -0.282737 -0.110126
v 0.173131 -0.239550 0.073505
v 0.133231 -0.273040 0.057317
v 0.150471 -0.237045 0.170555
v 0.134637 -0.230081 0.257227
v 0.109050 -0.289139 0.053924
v 0.108145 -0.264737 0.170818
v 0.102112 -0.346980 -0.185010
v 0.078000 -0.337174 -0.081169
v 0.066433 -0.384694 -0.260296
v 0.077242 -0.304919 0.064552
v 0.049422 -0.355328 -0.097519
v 0.050740 -0.307398 0.112318
v 0.056680 -0.256918 0.334083
v 0.020345 -0.334366 0.047533
v 0.082040 -0.267150 0.228096
v 0.033820 -0.289809 0.226460
v 0.002445 -0.318026 0.151185
v -0.001889 -0.290859 0.281618
v -0.025581 -0.294424 0.300392
v -0.018653 -0.338632 0.088422
v -0.010576 -0.382974 -0.119123
v 0.004407 -0.361752 -0.046700
v -0.043166 -0.319550 0.205452
v -0.054839 -0.351879 0.067449
v -0.032578 -0.366674 -0.020053
v -0.065405 -0.383164 -0.065659
v -0.045645 -0.406219 -0.185387
v -0.069180 -0.420265 -0.230720
v -0.066426 -0.440943 -0.320943
v -0.023365 -0.418585 -0.261436
v -0.026860 -0.434481 -0.323800
v -0.005008 -0.414461 -0.264839
v 0.004952 -0.426657 -0.327257
v 0.013337 -0.408912 -0.267814
v 0.055109 -0.408407 -0.335321
v -0.005129 -0.407618 -0.335672
v 0.051217 -0.387604 -0.344515
v 0.001800 -0.413920 -0.382242
v 0.054090 -0.393201 -0.391397
v -0.052420 -0.423550 -0.377987
v -0.054574 -0.417125 -0.331471
v -0.109504 -0.419363 -0.330482
v -0.104383 -0.423753 -0.377897
v -0.158766 -0.411159 -0.334107
v -0.114157 -0.442413 -0.320295
v -0.142569 -0.439320 -0.321661
v -0.175709 -0.432190 -0.324811
v -0.142891 -0.426610 -0.263466
v -0.162733 -0.405294 -0.173371
v -0.129867 -0.419163 -0.219832
v -0.156589 -0.360569 0.060230
v -0.133528 -0.377575 -0.017393
v -0.109043 -0.428467 -0.259739
v -0.101436 -0.410480 -0.176132
v -0.163334 -0.375022 -0.015871
v -0.178137 -0.384391 -0.081709
v -0.101294 -0.385087 -0.057399
v -0.081447 -0.384102 -0.059213
v -0.112010 -0.362650 0.051878
v -0.147348 -0.338981 0.166409
v -0.096770 -0.339943 0.152207
v -0.110811 -0.296814 0.360503
v -0.073961 -0.337031 0.150846
v -0.087926 -0.292150 0.369246
v -0.126236 -0.316882 0.270329
v -0.162039 -0.313239 0.287140
v -0.161593 -0.288716 0.406987
v -0.140088 -0.271171 0.493488
v -0.201425 -0.283248 0.424028
v -0.182033 -0.311037 0.293642
v -0.216726 -0.279833 0.428537
v -0.241075 -0.263043 0.490903
v -0.186378 -0.325199 0.220178
v -0.117799 -0.271707 0.485209
v -0.090757 -0.267780 0.489212
v -0.056488 -0.278707 0.408226
v -0.067566 -0.310207 0.270715
v -0.033955 -0.269297 0.430020
v 0.008554 -0.262638 0.397470
v 0.029728 -0.238203 0.477712
v 0.058047 -0.228739 0.466627
v 0.083754 -0.236416 0.367012
v 0.088435 -0.213593 0.467637
v 0.118054 -0.214683 0.382218
v 0.146394 -0.192686 0.404055
v 0.181746 -0.205886 0.206568
v 0.164045 -0.181892 0.394466
v 0.189967 -0.172291 0.340628
v -0.193194 -0.412141 -0.257261
v -0.213188 -0.406494 -0.275155
v -0.214021 -0.416797 -0.331614
v -0.230735 -0.396398 -0.271914
v -0.234005 -0.404588 -0.337006
v -0.256523 -0.377484 -0.272292
v -0.275162 -0.339032 -0.068870
v -0.260159 -0.363389 -0.177976
v -0.152041 -0.414613 -0.381935
v -0.188915 -0.401239 -0.387845
v -0.170718 -0.386423 -0.394392
v -0.099411 -0.409196 -0.384329
v -0.050909 -0.408304 -0.384723
v -0.055503 -0.400566 -0.338788
v -0.000069 -0.398656 -0.388986
v -0.003765 -0.390487 -0.343241
v -0.002326 -0.395881 -0.296520
v 0.006275 -0.306637 0.103108
v 0.027737 -0.383785 -0.182725
v 0.184991 -0.268524 -0.108245
v 0.238779 -0.235483 -0.411730
v 0.231762 -0.252385 -0.453616
v 0.258243 -0.205122 -0.474500
v 0.267703 -0.187265 -0.433035
v 0.291439 -0.189159 -0.432198
v 0.303929 -0.157757 -0.446073
v 0.286372 -0.138204 -0.454713
v 0.312292 -0.131031 -0.457880
v 0.294460 -0.090452 -0.475812
v 0.274955 -0.156998 -0.495763
v 0.258997 -0.155976 -0.496215
v 0.242631 -0.201048 -0.476299
v 0.283266 -0.108126 -0.517358
v 0.265584 -0.112014 -0.515639
v 0.282567 -0.060752 -0.538290
v 0.267894 -0.065996 -0.535973
v 0.272316 -0.025701 -0.553777
v 0.257592 -0.037689 -0.548480
v 0.271404 -0.050760 -0.493350
v 0.271988 -0.094860 -0.473865
v 0.295529 -0.026286 -0.459826
v 0.260716 -0.016900 -0.508311
v 0.280807 0.014839 -0.477998
v 0.276127 -0.004353 -0.513856
v 0.311086 -0.018159 -0.507747
v 0.302685 0.005453 -0.518174
v 0.290858 -0.045072 -0.495864
v 0.256371 0.024656 -0.526673
v 0.292088 0.023767 -0.526266
v 0.277786 0.042134 -0.534324
v 0.297856 0.046831 -0.468492
v 0.301078 0.097187 -0.384670
v 0.305413 0.024316 -0.476554
v 0.311552 0.070045 -0.391367
v 0.290810 0.088205 -0.425136
v 0.318706 0.151221 -0.258007
v 0.296294 0.170225 -0.285154
v 0.282999 0.085648 -0.447283
v 0.260531 0.044434 -0.491075
v 0.286425 0.216480 -0.158726
v 0.316513 0.426579 0.250498
v 0.315925 0.192255 -0.112064
v 0.351022 0.377796 0.272055
v 0.324767 0.355818 0.072174
v 0.311935 0.270204 -0.093329
v 0.307637 0.190448 -0.228348
v 0.331822 0.250120 -0.076507
v 0.324134 0.288268 -0.037624
v 0.350215 0.349777 0.123304
v 0.336797 0.297614 0.008552
v 0.354272 0.272368 0.022141
v 0.343184 0.254104 -0.039024
v 0.362092 0.344221 0.147827
v 0.370422 0.336186 0.163696
v 0.375474 0.377030 0.242932
v 0.353563 0.396673 0.205458
v 0.360349 0.414042 0.256039
v 0.334219 0.419458 0.195436
v 0.340023 0.391322 0.162066
v 0.335960 0.442413 0.243503
v 0.382364 0.376944 0.272426
v 0.392891 0.352015 0.283445
v 0.388994 0.331037 0.233983
v 0.372647 0.302415 0.129003
v 0.392048 0.292518 0.203943
v 0.396901 0.315867 0.255939
v 0.397226 0.271448 0.214619
v 0.404927 0.310965 0.301577
v 0.404224 0.272152 0.262247
v 0.409151 0.286056 0.312590
v 0.374854 0.315595 0.299536
v 0.336739 0.128779 -0.084017
v 0.382356 0.246535 0.330050
v 0.327777 0.161183 -0.098335
v 0.412675 0.246828 0.329923
v 0.337823 0.041036 0.008476
v 0.340765 0.083116 -0.063841
v 0.409090 0.195425 0.352633
v 0.373338 0.173276 0.362420
v 0.392066 0.125700 0.383441
v 0.402313 0.160399 0.368111
v 0.348137 0.098630 0.395404
v 0.314332 -0.028770 0.018551
v 0.291667 -0.121303 -0.417843
v 0.273180 -0.171562 -0.395636
v 0.278816 -0.110960 -0.061411
v 0.253897 -0.206205 -0.380330
v 0.206805 -0.267919 -0.353061
v 0.248070 -0.185442 -0.433841
v 0.231004 -0.216063 -0.420311
v 0.187284 -0.273441 -0.394958
v 0.226155 -0.230983 -0.463073
v 0.183432 -0.287340 -0.438170
v 0.265008 -0.139604 -0.454095
v 0.245830 -0.140341 0.034894
v 0.320214 0.046248 0.418548
v 0.355530 0.042671 0.420127
v 0.376526 0.083768 0.401967
v 0.372352 0.065951 0.256158
v 0.353920 0.015957 0.172629
v 0.329713 -0.047128 0.052410
v 0.330899 -0.053977 -0.036751
v 0.340903 -0.028698 -0.026738
v 0.370322 0.059472 0.168986
v 0.391132 0.122467 0.296963
v 0.383504 0.104109 0.183352
v 0.357854 0.021998 0.005887
v 0.360220 0.031721 -0.013031
v 0.342444 -0.027578 -0.117876
v 0.336817 -0.044498 -0.214426
v 0.327033 -0.074226 -0.160604
v 0.310097 -0.122050 -0.235475
v 0.307973 -0.137634 -0.361171
v 0.318292 -0.106837 -0.332772
v 0.313593 -0.122715 -0.420461
v 0.321691 -0.082136 -0.425233
v 0.323703 -0.085586 -0.356746
v 0.346834 -0.007723 -0.159881
v 0.329615 -0.056319 -0.343208
v 0.347470 0.010398 -0.209706
v 0.338079 -0.010771 -0.302382
v 0.356475 0.032032 -0.107430
v 0.360502 0.067621 -0.114244
v 0.377882 0.116058 0.042183
v 0.384860 0.151313 0.088511
v 0.358271 0.072407 -0.136840
v 0.382179 0.157270 0.063479
v 0.370733 0.137116 -0.028016
v 0.401511 0.213842 0.222741
v 0.395167 0.225430 0.177290
v 0.375609 0.181634 0.024889
v 0.362849 0.162721 -0.062819
v 0.379308 0.239547 0.090244
v 0.366833 0.243376 0.037021
v 0.355083 0.201870 -0.060401
v 0.349576 0.217660 -0.065578
v 0.346743 0.137002 -0.169002
v 0.334509 0.176880 -0.172841
v 0.332561 0.129811 -0.239041
v 0.334596 0.085551 -0.277412
v 0.340703 0.073964 -0.258380
v 0.347177 0.050535 -0.228654
v 0.324723 -0.005498 -0.413734
v 0.352244 0.092900 -0.175805
v 0.315461 -0.034179 -0.500661
v 0.335660 0.009564 -0.326187
v 0.323812 -0.046858 -0.433079
v 0.320767 0.033694 -0.397227
v 0.311471 0.032055 -0.439966
v 0.324387 -0.060993 -0.421731
v 0.318932 -0.090878 -0.475621
v 0.318454 -0.059206 -0.489616
v 0.319487 0.196299 -0.189316
v 0.405669 0.202911 0.284489
v 0.395563 0.171165 0.191230
v 0.399745 0.167449 0.264078
v 0.377066 0.091460 0.087028
v 0.368730 0.074959 -0.010928
v 0.396660 0.145707 0.278572
v 0.297863 -0.165822 -0.377088
v 0.311916 -0.106054 -0.134994
v 0.299186 -0.072267 -0.439509
vn -0.0000 0.4042 0.9147
vn -0.0000 0.4036 0.9149
vn -0.6741 -0.7350 0.0731
vn -0.6054 -0.7909 0.0896
vn -0.0001 0.4040 0.9148
vn -0.6005 -0.7946 0.0892
vn -0.5539 -0.8255 0.1089
vn -0.0005 0.4041 0.9147
vn -0.5098 -0.8524 0.1166
vn -0.4710 -0.8741 0.1186
vn -0.4395 -0.8873 0.1400
vn 0.0001 0.4038 0.9148
vn -0.4226 -0.8962 0.1347
vn -0.0001 0.4041 0.9147
vn -0.3573 -0.9219 0.1500
vn -0.4101 -0.9021 0.1345
vn -0.3749 -0.9151 0.1488
vn -0.4206 -0.8983 0.1271
vn -0.2800 -0.9447 0.1705
vn -0.2765 -0.9454 0.1724
vn -0.3760 -0.9138 0.1536
vn -0.3658 -0.9185 0.1499
vn -0.3636 -0.9194 0.1499
vn -0.2648 -0.9497 0.1669
vn -0.2418 -0.9555 0.1687
vn -0.3660 -0.9176 0.1550
vn -0.3236 -0.9325 0.1607
vn -0.2637 -0.9490 0.1728
vn -0.2474 -0.9523 0.1785
vn -0.3702 -0.9174 0.1459
vn -0.3761 -0.9143 0.1500
vn -0.3314 -0.9286 0.1672
vn -0.3828 -0.9113 0.1519
vn -0.4234 -0.8960 0.1338
vn -0.4061 -0.9017 0.1485
vn -0.4472 -0.8847 0.1315
vn -0.5046 -0.8544 0.1238
vn -0.4274 -0.8930 0.1413
vn -0.5085 -0.8539 0.1112
vn -0.4308 -0.8915 0.1399
vn -0.4295 -0.8930 0.1344
vn -0.5115 -0.8516 0.1148
vn -0.5114 -0.8522 0.1106
vn -0.5427 -0.8338 0.1013
vn -0.5442 -0.8321 0.1068
vn -0.5850 -0.8056 0.0943
vn -0.5434 -0.8336 0.0991
vn -0.5808 -0.8089 0.0917
vn -0.5884 -0.8045 0.0808
vn -0.6855 -0.7258 0.0574
vn -0.6287 -0.7751 0.0630
vn -0.6506 -0.7556 0.0767
vn -0.6149 -0.7841 0.0841
vn -0.6963 -0.7155 0.0569
vn -0.6649 0.6832 -0.3019
vn -0.6411 -0.7647 0.0643
vn -0.5807 -0.8086 0.0950
vn -0.5961 -0.7967 0.0994
vn -0.6648 0.6833 -0.3019
vn -0.6442 -0.7614 0.0720
vn -0.6242 -0.7768 0.0830
vn 0.6489 0.7567 -0.0794
vn 0.6472 0.7592 -0.0687
vn 0.5745 0.7774 -0.2560
vn 0.6197 0.7623 -0.1865
vn 0.6061 0.7916 -0.0782
vn 0.3585 0.9213 -0.1503
vn 0.4067 0.9020 -0.1448
vn -0.6647 0.6913 -0.2832
vn 0.3490 0.8964 0.2732
vn 0.3357 0.9080 0.2506
vn 0.1537 0.9673 0.2019
vn 0.4232 0.9018 -0.0873
vn 0.2368 0.9639 -0.1221
vn 0.2073 0.9642 0.1652
vn -0.0229 0.9797 -0.1992
vn -0.0201 0.9915 0.1289
vn 0.1828 0.9675 -0.1747
vn 0.2890 0.9418 -0.1717
vn 0.2899 0.9389 -0.1854
vn 0.0240 0.9818 -0.1883
vn 0.0242 0.9749 -0.2215
vn 0.0002 0.4039 0.9148
vn 0.0007 0.4039 0.9148
vn -0.0005 0.4033 0.9151
vn 0.2083 0.9604 -0.1853
vn 0.0039 0.9738 -0.2275
vn -0.0000 0.4041 0.9147
vn -0.1040 0.9656 -0.2382
vn -0.1804 0.9482 -0.2617
vn -0.3023 0.9201 -0.2491
vn -0.3418 0.9047 -0.2542
vn -0.4969 0.8440 -0.2020
vn -0.5505 0.8118 -0.1949
vn -0.5486 0.8125 -0.1971
vn -0.9504 -0.2814 0.1324
vn -0.9481 -0.2886 0.1333
vn -0.9967 0.0047 0.0804
vn -0.5421 0.8159 -0.2012
vn 0.0001 0.4041 0.9147
vn 0.5815 -0.8006 0.1442
vn 0.6049 -0.7851 0.1331
vn 0.6737 -0.7275 0.1300
vn 0.6716 -0.7296 0.1287
vn 0.6967 -0.7078 0.1169
vn 0.7090 -0.6947 0.1213
vn 0.6716 -0.7291 0.1317
vn 0.7032 -0.6986 0.1324
vn 0.6844 -0.7159 0.1379
vn 0.6760 -0.7237 0.1386
vn 0.6773 -0.7227 0.1378
vn 0.7120 -0.6905 0.1277
vn 0.7357 -0.6678 0.1127
vn 0.7280 -0.6736 0.1277
vn 0.7135 -0.6867 0.1391
vn 0.7430 -0.6585 0.1196
vn 0.7521 -0.6471 0.1254
vn 0.7264 -0.6739 0.1349
vn 0.7039 -0.6951 0.1462
vn 0.7088 -0.6915 0.1393
vn 0.7421 -0.6572 0.1318
vn 0.7269 -0.6715 0.1439
vn 0.7407 -0.6584 0.1333
vn 0.7804 -0.6146 0.1152
vn 0.7764 -0.6171 0.1282
vn 0.7717 -0.6245 0.1204
vn 0.7443 -0.6498 0.1541
vn 0.8111 -0.5696 0.1329
vn 0.8049 -0.5795 0.1278
vn 0.8013 -0.5882 0.1090
vn 0.8611 -0.4968 0.1082
vn 0.8607 -0.4975 0.1079
vn 0.8626 -0.4997 0.0783
vn 0.8522 -0.5160 0.0868
vn 0.8657 -0.4950 0.0742
vn 0.8099 -0.5765 0.1082
vn 0.8097 -0.5767 0.1084
vn 0.8531 -0.5150 0.0830
vn 0.8574 -0.5086 0.0785
vn 0.8264 -0.5546 0.0975
vn 0.8043 -0.5848 0.1051
vn 0.8156 -0.5672 0.1143
vn 0.8045 -0.5846 0.1048
vn 0.7970 -0.5955 0.1008
vn 0.7818 -0.6149 0.1037
vn 0.7771 -0.6179 0.1198
vn 0.8169 -0.5705 0.0851
vn 0.7896 -0.6061 0.0954
vn 0.8012 -0.5908 0.0952
vn 0.8250 -0.5580 0.0894
vn 0.8316 -0.5491 0.0837
vn 0.8687 -0.4908 0.0664
vn 0.8608 -0.5045 0.0678
vn 0.8684 -0.4932 0.0518
vn 0.8216 -0.5649 0.0763
vn 0.8614 -0.5043 0.0613
vn 0.8239 -0.5616 0.0762
vn 0.8070 -0.5841 0.0871
vn 0.8060 -0.5856 0.0863
vn 0.8034 -0.5876 0.0963
vn 0.7340 -0.6691 0.1162
vn 0.7549 -0.6478 0.1022
vn 0.0001 0.4042 0.9147
vn -0.7642 0.6315 -0.1310
vn -0.7841 0.6085 -0.1220
vn -0.7745 0.6199 -0.1257
vn -0.7601 0.6369 -0.1291
vn -0.6935 0.7028 -0.1581
vn -0.7590 0.6390 -0.1249
vn -0.7535 0.6436 -0.1342
vn 0.8279 0.4973 -0.2592
vn 0.8252 0.5020 -0.2587
vn -0.6079 0.7203 -0.3341
vn -0.6637 0.6841 -0.3024
vn -0.6635 0.6942 -0.2789
vn 0.7145 0.6416 -0.2790
vn -0.6637 0.6836 -0.3036
vn 0.7458 0.6064 -0.2759
vn -0.6709 0.6780 -0.3005
vn 0.0003 0.4047 0.9145
vn -0.5335 0.8311 0.1570
vn -0.5210 0.8324 -0.1891
vn -0.5412 0.8189 -0.1912
vn -0.4630 0.8754 0.1391
vn -0.9964 0.0193 0.0820
vn -0.5345 0.8306 0.1564
vn -0.6012 0.7756 -0.1924
vn -0.6045 0.7724 -0.1948
vn -0.4663 0.8742 0.1351
vn -0.5273 0.8152 -0.2396
vn -0.0000 -0.4042 -0.9147
vn -0.4884 0.8510 -0.1932
vn 0.6675 -0.7346 0.1217
vn 0.5776 -0.8025 0.1494
vn 0.0001 -0.4042 -0.9147
vn 0.5969 -0.7951 0.1073
vn 0.7006 -0.6953 0.1603
vn 0.5180 -0.8325 0.1964
vn 0.5286 -0.8248 0.2006
vn 0.5920 -0.7833 0.1898
vn 0.6086 -0.7726 0.1807
vn 0.6064 -0.7746 0.1795
vn 0.6080 -0.7744 0.1751
vn 0.5705 -0.8010 0.1814
vn 0.5795 -0.7961 0.1746
vn 0.5978 -0.7831 0.1713
vn 0.6055 -0.7779 0.1680
vn 0.6111 -0.7727 0.1714
vn 0.5729 -0.8004 0.1767
vn 0.5900 -0.7880 0.1760
vn 0.5702 -0.8040 0.1688
vn 0.5959 -0.7871 0.1595
vn 0.5285 -0.8307 0.1748
vn 0.5262 -0.8297 0.1864
vn 0.5135 -0.8392 0.1792
vn 0.4852 -0.8552 0.1823
vn 0.5172 -0.8351 0.1872
vn 0.4937 -0.8484 0.1911
vn 0.4868 -0.8524 0.1912
vn 0.4699 -0.8602 0.1979
vn 0.4440 -0.8732 0.2010
vn 0.4435 -0.8746 0.1959
vn 0.4381 -0.8769 0.1976
vn 0.3798 -0.9041 0.1956
vn 0.4340 -0.8809 0.1889
vn 0.3681 -0.9070 0.2049
vn 0.3657 -0.9076 0.2062
vn 0.4656 -0.8674 0.1757
vn 0.3570 -0.9138 0.1937
vn 0.3399 -0.9184 0.2026
vn 0.3018 -0.9313 0.2040
vn 0.3023 -0.9311 0.2041
vn 0.3116 -0.9289 0.2002
vn 0.3242 -0.9217 0.2130
vn 0.2531 -0.9440 0.2115
vn 0.3004 -0.9303 0.2104
vn 0.2440 -0.9477 0.2056
vn 0.2304 -0.9516 0.2034
vn 0.2221 -0.9505 0.2172
vn 0.1832 -0.9593 0.2150
vn 0.1895 -0.9591 0.2104
vn 0.2353 -0.9493 0.2085
vn 0.1651 -0.9631 0.2127
vn 0.1414 -0.9640 0.2253
vn 0.2004 -0.9560 0.2142
vn 0.2177 -0.9512 0.2185
vn 0.2557 -0.9401 0.2253
vn 0.1732 -0.9567 0.2341
vn 0.2517 -0.9440 0.2136
vn 0.2530 -0.9411 0.2243
vn 0.3645 -0.9051 0.2188
vn 0.3158 -0.9205 0.2302
vn -0.0000 -0.4042 -0.9146
vn 0.3501 -0.9273 0.1322
vn 0.3894 -0.9033 0.1802
vn 0.1847 -0.9699 0.1587
vn 0.1986 -0.9696 0.1431
vn 0.0428 -0.9894 0.1387
vn -0.0000 -0.4043 -0.9146
vn 0.0040 -0.9957 0.0926
vn -0.1690 -0.9829 0.0728
vn -0.0001 -0.4042 -0.9147
vn -0.2245 -0.9523 0.2067
vn -0.1158 -0.9705 0.2113
vn -0.1860 -0.9645 0.1872
vn -0.1296 -0.9703 0.2043
vn -0.1235 -0.9714 0.2027
vn -0.0046 -0.9744 0.2248
vn -0.1023 -0.9756 0.1943
vn -0.0479 -0.9786 0.2002
vn -0.0099 -0.9795 0.2010
vn -0.0287 -0.9767 0.2127
vn -0.1468 -0.9715 0.1862
vn -0.1680 -0.9656 0.1983
vn -0.1960 -0.9637 0.1812
vn -0.2096 -0.9604 0.1838
vn -0.2538 -0.9517 0.1727
vn -0.2386 -0.9547 0.1776
vn -0.2508 -0.9516 0.1778
vn 0.0140 -0.9778 0.2091
vn 0.0316 -0.9774 0.2090
vn 0.0865 -0.9705 0.2251
vn 0.0571 -0.9763 0.2087
vn 0.0243 -0.9788 0.2034
vn 0.0676 -0.9753 0.2105
vn 0.0674 -0.9760 0.2070
vn 0.0758 -0.9749 0.2091
vn -0.0058 -0.9772 0.2123
vn -0.0083 -0.9798 0.1999
vn 0.0417 -0.9758 0.2145
vn 0.1180 -0.9708 0.2090
vn 0.0634 -0.9764 0.2064
vn 0.1418 -0.9669 0.2122
vn 0.1362 -0.9678 0.2116
vn 0.1361 -0.9687 0.2078
vn 0.0377 -0.9790 0.2005
vn -0.0017 -0.9781 0.2083
vn -0.0055 -0.9797 0.2005
vn 0.0374 -0.9768 0.2110
vn -0.0486 -0.9785 0.2004
vn -0.0478 -0.9806 0.1900
vn -0.0541 -0.9806 0.1882
vn 0.0078 -0.9804 0.1969
vn 0.0209 -0.9808 0.1937
vn -0.1627 -0.9697 0.1825
vn -0.0420 -0.9784 0.2023
vn -0.1618 -0.9693 0.1852
vn -0.1857 -0.9646 0.1872
vn -0.2111 -0.9614 0.1764
vn -0.2258 -0.9571 0.1813
vn -0.2393 -0.9547 0.1767
vn -0.1507 -0.9745 0.1662
vn -0.2438 -0.9542 0.1734
vn -0.0415 -0.9782 0.2035
vn -0.1126 -0.9744 0.1945
vn -0.0444 -0.9782 0.2028
vn -0.1775 -0.9643 0.1964
vn -0.1557 -0.9702 0.1855
vn -0.1777 -0.9665 0.1852
vn -0.1865 -0.9644 0.1874
vn 0.0507 -0.9785 0.1999
vn 0.0431 -0.9828 0.1796
vn -0.0085 -0.9824 0.1864
vn 0.1114 -0.9730 0.2021
vn 0.1130 -0.9747 0.1928
vn 0.1103 -0.9753 0.1911
vn 0.1881 -0.9648 0.1838
vn 0.1649 -0.9658 0.2001
vn 0.1701 -0.9645 0.2021
vn 0.1216 -0.9721 0.2003
vn 0.1540 -0.9657 0.2088
vn 0.2036 -0.9578 0.2030
vn 0.2137 -0.9577 0.1926
vn 0.2183 -0.9553 0.1993
vn 0.2990 -0.9330 0.2002
vn 0.2902 -0.9385 0.1870
vn 0.2995 -0.9329 0.2002
vn 0.3698 -0.9076 0.1988
vn 0.3537 -0.9167 0.1858
vn 0.3272 -0.9246 0.1952
vn 0.3290 -0.9239 0.1954
vn 0.3770 -0.9068 0.1889
vn 0.3746 -0.9107 0.1743
vn 0.2992 -0.9391 0.1691
vn 0.3732 -0.9110 0.1755
vn 0.4432 -0.8777 0.1820
vn 0.4362 -0.8858 0.1586
vn 0.4340 -0.8827 0.1800
vn 0.4708 -0.8649 0.1743
vn 0.4713 -0.8645 0.1745
vn 0.4750 -0.8635 0.1697
vn 0.5277 -0.8349 0.1562
vn 0.5179 -0.8380 0.1719
vn 0.4659 -0.8652 0.1857
vn 0.5025 -0.8475 0.1711
vn 0.5758 -0.8024 0.1567
vn 0.5797 -0.7995 0.1572
vn 0.5749 -0.8037 0.1536
vn 0.6124 -0.7749 0.1566
vn 0.6011 -0.7851 0.1494
vn 0.5943 -0.7889 0.1565
vn 0.6266 -0.7642 0.1531
vn 0.6336 -0.7603 0.1430
vn 0.6333 -0.7590 0.1510
vn 0.5982 -0.7853 0.1599
vn 0.5895 -0.7895 0.1711
vn 0.6312 -0.7608 0.1509
vn 0.4360 -0.8798 0.1893
vn 0.1506 -0.9664 0.2082
vn 0.1815 -0.9617 0.2055
vn 0.2074 -0.9545 0.2142
vn 0.1775 -0.9611 0.2118
vn 0.1724 -0.9622 0.2108
vn 0.1425 -0.9664 0.2140
vn 0.0330 -0.9746 0.2217
vn -0.2611 -0.9463 0.1904
vn -0.3785 -0.9095 0.1720
vn -0.4011 -0.9013 0.1637
vn -0.3933 -0.9034 0.1707
vn -0.4688 -0.8677 0.1653
vn -0.5424 -0.8297 0.1316
vn -0.0002 -0.4042 -0.9147
vn -0.5876 -0.7986 0.1300
vn -0.6468 -0.7571 0.0920
vn -0.0011 -0.4043 -0.9146
vn -0.0001 -0.4043 -0.9146
vn -0.6539 -0.7511 0.0906
vn -0.5896 -0.8019 0.0971
vn -0.6234 -0.7768 0.0897
vn -0.5951 -0.7979 0.0963
vn -0.6640 -0.7444 0.0704
vn -0.5475 -0.8282 0.1195
vn -0.5368 -0.8362 0.1123
vn -0.5477 -0.8294 0.1098
vn -0.5698 -0.8150 0.1056
vn -0.6119 -0.7872 0.0767
vn -0.4755 -0.8694 0.1342
vn -0.3946 -0.9057 0.1551
vn -0.4309 -0.8899 0.1496
vn -0.3533 -0.9201 0.1689
vn -0.1918 -0.9805 0.0438
vn -0.3436 -0.9389 0.0195
vn -0.3807 -0.9237 0.0431
vn 0.4116 0.9057 -0.1012
vn -0.0000 -0.4041 -0.9147
vn 0.2437 0.9615 -0.1273
vn -0.0195 0.9856 -0.1680
vn -0.0246 0.9863 -0.1632
vn -0.0217 0.9912 0.1304
vn -0.1802 0.9767 0.1166
vn -0.1980 0.9631 -0.1821
vn -0.2034 0.9609 -0.1880
vn -0.1787 0.9768 0.1183
vn -0.3162 0.9413 0.1184
vn -0.3169 0.9409 0.1198
vn -0.3566 0.9143 -0.1921
vn -0.2967 0.9334 -0.2020
vn -0.3558 0.9137 -0.1964
vn -0.2020 0.9606 -0.1907
vn -0.4252 0.8828 -0.1994
vn -0.3017 0.9307 -0.2068
vn -0.2969 0.9324 -0.2060
vn -0.4950 0.8485 -0.1870
vn -0.4262 0.8795 -0.2119
vn -0.3527 0.9147 -0.1975
vn 0.4830 -0.8655 0.1329
vn 0.4921 -0.8627 0.1165
vn 0.4141 -0.8840 0.2169
vn 0.4840 -0.8527 0.1965
vn 0.4675 -0.8576 0.2142
vn 0.3507 -0.9126 0.2102
vn 0.3203 -0.9249 0.2048
vn 0.3359 -0.9173 0.2140
vn 0.3851 -0.9003 0.2027
vn 0.3661 -0.9067 0.2096
vn 0.3143 -0.9254 0.2120
vn 0.3599 -0.9105 0.2037
vn 0.4935 -0.8489 0.1892
vn 0.4392 -0.8750 0.2038
vn 0.4845 -0.8523 0.1973
vn 0.5270 -0.8284 0.1897
vn 0.6272 -0.7617 0.1624
vn 0.6359 -0.7546 0.1618
vn 0.6789 -0.7183 0.1521
vn 0.6350 -0.7542 0.1672
vn 0.6857 -0.7130 0.1463
vn 0.6782 -0.7194 0.1500
vn 0.6689 -0.7237 0.1696
vn 0.6841 -0.7139 0.1494
vn 0.7990 -0.5909 0.1114
vn 0.8797 -0.4736 0.0437
vn 0.8011 -0.5895 0.1037
vn 0.8616 -0.5072 0.0218
vn 0.9259 -0.3744 -0.0500
vn 0.0001 -0.4041 -0.9147
vn 0.9592 -0.2332 -0.1600
vn 0.9274 -0.3627 -0.0919
vn 0.9593 -0.2334 -0.1592
vn 0.9706 -0.0852 -0.2253
vn -0.9957 0.0745 0.0554
vn -0.9476 -0.2680 0.1738
vn -0.9901 0.0457 0.1330
vn -0.8584 0.1978 0.4733
vn -0.8122 0.0014 0.5834
vn -0.9574 -0.2192 0.1879
vn -0.6648 0.6913 -0.2832
vn -0.8151 -0.0363 0.5782
vn 0.0004 -0.4039 -0.9148
vn 0.0003 -0.4041 -0.9147
vn 0.9611 0.1946 -0.1958
vn 0.9382 0.2221 -0.2654
vn -0.8408 -0.4239 0.3366
vn 0.0005 -0.4015 -0.9159
vn 0.8129 0.5084 -0.2841
vn 0.8820 0.4008 -0.2480
vn 0.8255 0.4692 -0.3136
vn 0.8717 0.4046 -0.2766
vn 0.8940 0.3832 -0.2323
vn 0.8778 0.3928 -0.2741
vn 0.8459 0.4478 -0.2898
vn 0.8079 0.4941 -0.3211
vn 0.8286 0.4640 -0.3132
vn 0.7508 0.5718 -0.3308
vn 0.7836 0.5222 -0.3366
vn -0.6651 0.6831 -0.3017
vn -0.6652 0.6830 -0.3017
vn -0.8438 -0.4469 0.2971
vn -0.8397 -0.4271 0.3354
vn -0.6650 0.6832 -0.3019
vn -0.8364 -0.4601 0.2977
vn -0.8418 -0.4496 0.2988
vn -0.8406 -0.4536 0.2959
vn -0.6650 0.6832 -0.3018
vn 0.7941 0.5119 -0.3276
vn 0.7630 0.5456 -0.3466
vn 0.7948 0.5043 -0.3376
vn 0.7569 0.5547 -0.3456
vn 0.8098 0.4908 -0.3214
vn 0.7844 0.5262 -0.3283
vn 0.8034 0.5011 -0.3217
vn 0.8531 0.4370 -0.2851
vn 0.8524 0.4294 -0.2985
vn 0.8386 0.4523 -0.3037
vn 0.8383 0.4537 -0.3023
vn 0.8843 0.3795 -0.2720
vn 0.8340 0.4639 -0.2988
vn 0.8799 0.3971 -0.2608
vn 0.8571 0.4378 -0.2716
vn 0.8552 0.4441 -0.2672
vn 0.7887 0.5413 -0.2917
vn 0.8119 0.4922 -0.3140
vn 0.7876 0.5317 -0.3114
vn 0.7938 0.5075 -0.3351
vn 0.7431 0.5697 -0.3511
vn -0.6649 0.6831 -0.3021
vn 0.7853 0.5471 -0.2897
vn -0.6643 0.6837 -0.3020
vn 0.0002 0.4041 0.9147
vn 0.8788 0.4314 -0.2040
vn 0.0002 0.4044 0.9146
vn 0.9310 0.3038 -0.2022
vn 0.9248 0.3137 -0.2151
vn 0.9232 0.3144 -0.2209
vn 0.9467 0.2413 -0.2132
vn 0.9298 0.2917 -0.2243
vn 0.9543 0.2408 -0.1773
vn 0.9560 0.2237 -0.1897
vn 0.9649 0.2183 -0.1462
vn 0.9742 0.1575 -0.1616
vn 0.9761 0.1517 -0.1554
vn 0.9807 0.1302 -0.1460
vn 0.9857 0.1109 -0.1271
vn -0.9909 -0.0528 0.1242
vn -0.9650 -0.1848 0.1859
vn -0.0001 0.4042 0.9147
vn -0.9400 -0.2655 0.2143
vn -0.9646 -0.1829 0.1898
vn -0.9401 -0.2625 0.2175
vn -0.9405 -0.2643 0.2136
vn -0.9888 0.1421 0.0461
vn -0.9884 0.1450 0.0442
vn -0.9923 -0.0348 0.1192
vn -0.9499 0.3118 -0.0202
vn -0.9485 0.3159 -0.0229
vn -0.9484 0.3166 -0.0179
vn -0.9415 0.3364 -0.0224
vn -0.8846 0.4610 -0.0710
vn -0.8870 0.4558 -0.0745
vn -0.8919 0.4477 -0.0640
vn -0.7700 0.5620 0.3019
vn -0.8127 0.5726 -0.1075
vn -0.7143 0.6545 0.2476
vn -0.7697 0.5624 0.3020
vn -0.7151 0.6540 0.2470
vn -0.8832 0.4648 -0.0620
vn -0.8131 0.5721 -0.1074
vn -0.8850 0.4621 -0.0565
vn -0.8149 0.5690 -0.1104
vn -0.0001 -0.4041 -0.9147
vn -0.7128 0.6838 -0.1564
vn -0.6285 0.7533 0.1935
vn -0.7104 0.6849 -0.1622
vn -0.8094 0.4603 0.3648
vn -0.9381 0.3463 -0.0007
vn -0.9406 0.3396 -0.0043
vn -0.8104 0.4590 0.3642
vn -0.8325 0.3274 0.4470
vn -0.9798 0.1856 0.0740
vn -0.9814 0.1783 0.0707
vn -0.8151 0.5697 -0.1054
vn -0.6295 0.7507 0.2005
vn -0.7140 0.6833 -0.1529
vn -0.7141 0.6832 -0.1528
vn -0.7147 0.6812 -0.1587
vn -0.8195 0.5627 -0.1090
vn -0.8927 0.4454 -0.0689
vn -0.8384 0.5352 -0.1030
vn 0.8636 -0.5004 0.0618
vn 0.8955 -0.4441 0.0302
vn 0.9397 -0.3417 0.0148
vn 0.9273 -0.3738 0.0191
vn 0.8868 -0.4590 0.0540
vn 0.8954 -0.4432 0.0428
vn 0.8960 -0.4420 0.0421
vn 0.8905 -0.4513 0.0575
vn 0.9009 -0.4317 0.0452
vn 0.9263 -0.3760 0.0237
vn 0.9361 -0.3514 0.0176
vn 0.9358 -0.3524 0.0044
vn 0.9483 -0.3174 0.0004
vn 0.9487 -0.3163 0.0014
vn 0.9606 -0.2773 -0.0197
vn 0.9598 -0.2806 -0.0089
vn 0.9638 -0.2660 -0.0162
vn 0.9646 -0.2632 -0.0147
vn 0.9460 -0.3240 0.0120
vn 0.9496 -0.3133 -0.0004
vn 0.9617 -0.2741 -0.0080
vn 0.9461 -0.3236 0.0120
vn 0.9259 -0.3765 0.0310
vn 0.9247 -0.3794 0.0332
vn 0.9248 -0.3791 0.0331
vn 0.9440 -0.3297 0.0145
vn 0.9542 -0.2992 0.0082
vn 0.9584 -0.2854 0.0003
vn 0.9459 -0.3244 0.0080
vn 0.9599 -0.2797 0.0206
vn 0.9577 -0.2863 0.0303
vn 0.9808 -0.1947 0.0092
vn 0.9750 -0.2206 -0.0262
vn 0.9790 -0.2000 -0.0388
vn 0.9828 -0.1809 -0.0380
vn 0.9727 -0.2308 -0.0230
vn 0.9844 -0.1689 -0.0489
vn 0.9829 -0.1791 -0.0419
vn 0.9903 -0.1183 -0.0733
vn 0.9924 -0.0941 -0.0791
vn 0.9837 -0.1724 -0.0501
vn 0.9904 -0.1237 -0.0610
vn 0.9895 -0.1256 -0.0711
vn 0.9927 -0.0869 -0.0834
vn 0.9936 -0.0199 -0.1111
vn 0.9939 -0.0324 -0.1050
vn 0.9940 -0.0323 -0.1049
vn 0.9894 0.0525 -0.1353
vn 0.9911 0.0281 -0.1302
vn 0.9934 -0.0239 -0.1121
vn 0.9910 0.0296 -0.1308
vn 0.9891 0.0451 -0.1399
vn 0.9769 0.1295 -0.1701
vn 0.9834 0.0838 -0.1611
vn 0.9802 0.1174 -0.1595
vn 0.9515 0.2282 -0.2066
vn 0.9536 0.2179 -0.2078
vn 0.9576 0.2026 -0.2047
vn 0.9727 0.1487 -0.1783
vn 0.9485 0.2329 -0.2148
vn 0.9823 0.0895 -0.1645
vn 0.9410 0.2553 -0.2223
vn 0.9407 0.2546 -0.2243
vn 0.9598 0.2024 -0.1946
vn 0.9662 0.1755 -0.1890
vn 0.9360 0.2648 -0.2321
vn 0.9388 0.2671 -0.2175
vn 0.9488 0.2307 -0.2158
vn 0.9629 0.1856 -0.1960
vn 0.9628 0.1874 -0.1949
vn 0.9850 0.0755 -0.1550
vn 0.9854 0.0871 -0.1459
vn 0.9797 0.1157 -0.1635
vn 0.9837 0.0964 -0.1519
vn 0.9903 0.0355 -0.1345
vn 0.9905 0.0439 -0.1301
vn 0.9926 0.0326 -0.1165
vn 0.9736 0.1649 -0.1581
vn 0.9907 0.0392 -0.1305
vn 0.9913 0.0274 -0.1286
vn 0.9661 0.1767 -0.1880
vn 0.9380 0.2724 -0.2145
vn 0.9322 0.2744 -0.2362
vn 0.9431 0.2537 -0.2149
vn 0.9528 0.2227 -0.2064
vn 0.9350 0.2824 -0.2145
vn 0.9391 0.2699 -0.2126
vn 0.9685 0.1974 -0.1517
vn 0.9943 -0.0066 -0.1067
vn 0.9945 -0.0382 -0.0980
vn 0.9960 -0.0280 -0.0853
vn 0.9957 -0.0243 -0.0891
vn 0.9915 0.0703 -0.1093
vn 0.0004 -0.4037 -0.9149
vn 0.9921 -0.1210 -0.0333
vn 0.9846 -0.1734 -0.0238
vn 0.9896 -0.1319 -0.0580
vn 0.9914 -0.1166 -0.0591
vn 0.9934 -0.0149 -0.1137
vn 0.9922 0.0151 -0.1235
vn 0.0007 -0.4043 -0.9146
vn 0.9168 0.3122 -0.2489
vn 0.8827 0.3788 -0.2779
vn 0.9115 0.3254 -0.2517
vn 0.8878 0.3713 -0.2718
vn 0.8605 0.4151 -0.2953
vn 0.8600 0.4221 -0.2868
vn 0.8446 0.4414 -0.3030
vn 0.8147 0.4837 -0.3198
vn 0.8205 0.4736 -0.3201
vn 0.9306 0.2861 -0.2282
vn 0.9298 0.2803 -0.2387
vn 0.9909 0.0406 -0.1280
vn 0.9865 0.0743 -0.1461
vn 0.9934 -0.0723 -0.0895
vn 0.9939 -0.0755 -0.0803
vn 0.9932 0.0302 -0.1127
vn 0.9936 -0.0788 -0.0809
vn 0.9896 -0.1289 -0.0634
vn 0.9873 -0.1453 -0.0641
vn 0.9871 -0.1471 -0.0627
vn 0.9928 -0.0812 -0.0878
vn 0.9764 -0.2129 -0.0373
vn 0.9788 -0.2013 -0.0390
vn 0.9804 -0.1905 -0.0513
vn 0.9880 -0.1423 -0.0601
vn 0.9886 -0.1362 -0.0650
vn 0.9808 -0.1912 -0.0380
vn 0.9829 -0.1784 -0.0455
vn 0.9823 -0.1780 -0.0580
vn 0.9896 -0.1286 -0.0638
vn 0.9838 -0.1725 -0.0493
vn 0.9688 -0.2468 -0.0207
vn 0.9680 -0.2497 -0.0246
vn 0.9790 -0.2021 -0.0286
vn 0.9935 -0.0960 -0.0604
vn 0.9746 -0.2222 -0.0292
vn 0.9331 -0.3574 0.0403
vn 0.9358 -0.3513 0.0277
vn 0.9345 -0.3536 0.0408
vn 0.9016 -0.4260 0.0753
vn 0.8983 -0.4356 0.0570
vn 0.8877 -0.4553 0.0686
vn 0.8935 -0.4456 0.0548
vn 0.9031 -0.4264 0.0515
vn 0.8778 -0.4745 0.0659
vn 0.8901 -0.4508 0.0670
vn 0.8752 -0.4782 0.0731
vn 0.9591 -0.2831 0.0002
vn 0.9486 -0.3164 0.0016
vn 0.8926 -0.4485 0.0463
vn 0.8666 -0.4926 0.0796
vn 0.8725 -0.4856 0.0538
vn -0.9846 0.1696 0.0420
vn -0.8338 0.3251 0.4463
vn -0.8244 0.1726 0.5391
vn -0.9875 0.1501 0.0472
vn -0.9924 -0.0257 0.1205
vn -0.9919 -0.0333 0.1225
vn 0.9932 0.0413 -0.1086
vn -0.9466 -0.2478 0.2061
vn 0.9174 0.3129 -0.2457
vn 0.8111 0.4807 -0.3331
vn 0.8652 0.4064 -0.2938
vn 0.9492 0.2585 -0.1794
vn 0.9818 -0.0059 -0.1897
vn 0.8871 -0.4553 0.0758
vn 0.7351 -0.6610 0.1505
vn 0.6848 -0.7066 0.1780
vn 0.7066 -0.6925 0.1454
vn -0.6153 0.7666 0.1836
vn 0.7532 -0.6482 0.1123
vn 0.3585 0.9179 -0.1702
vn 0.4260 0.8932 -0.1440
vn 0.6203 0.7785 -0.0951
vn -0.4211 -0.8962 0.1394
s 0
usemtl Material.025
f 2//1 5//1 1//1
f 2//1 1//1 3//1
f 1//2 6//2 3//2
f 4//3 1//3 5//3
f 6//4 1//4 4//4
f 3//5 6//5 8//5
f 7//6 6//6 4//6
f 6//7 7//7 8//7
f 8//8 11//8 3//8
f 7//9 10//9 8//9
f 9//10 11//10 8//10
f 10//11 9//11 8//11
f 3//1 11//1 12//1
f 11//12 13//12 12//12
f 11//13 9//13 13//13
f 13//14 14//14 12//14
f 14//15 13//15 15//15
f 13//16 9//16 15//16
f 16//17 14//17 15//17
f 16//18 15//18 9//18
f 16//19 21//19 17//19
f 17//20 19//20 16//20
f 9//21 20//21 16//21
f 16//22 18//22 21//22
f 18//23 16//23 20//23
f 19//24 14//24 16//24
f 24//25 17//25 21//25
f 18//26 25//26 21//26
f 25//27 22//27 21//27
f 21//28 22//28 23//28
f 23//29 24//29 21//29
f 22//30 25//30 26//30
f 18//31 26//31 25//31
f 26//32 27//32 22//32
f 27//33 26//33 28//33
f 26//34 18//34 29//34
f 28//35 26//35 29//35
f 18//36 32//36 29//36
f 30//37 29//37 31//37
f 30//38 28//38 29//38
f 29//39 32//39 31//39
f 18//40 20//40 32//40
f 20//41 10//41 32//41
f 32//42 10//42 7//42
f 34//43 31//43 32//43
f 32//44 7//44 33//44
f 32//45 33//45 34//45
f 35//46 34//46 36//46
f 31//47 34//47 35//47
f 37//48 36//48 34//48
f 34//49 33//49 37//49
f 40//50 38//50 37//50
f 36//51 37//51 38//51
f 37//52 39//52 40//52
f 39//53 37//53 33//53
f 5//54 40//54 4//54
f 40//55 5//55 2//55
f 40//55 2//55 38//55
f 39//56 4//56 40//56
f 7//57 39//57 33//57
f 4//58 39//58 7//58
f 41//59 38//59 42//59
f 38//60 41//60 35//60
f 2//59 42//59 38//59
f 35//61 36//61 38//61
f 43//62 42//62 2//62
f 43//63 44//63 42//63
f 42//55 44//55 41//55
f 45//59 47//59 44//59
f 46//64 45//64 44//64
f 46//65 44//65 49//65
f 44//66 43//66 49//66
f 48//55 41//55 44//55
f 47//55 48//55 44//55
f 49//67 43//67 50//67
f 52//68 49//68 50//68
f 46//69 49//69 51//69
f 53//70 51//70 49//70
f 49//71 52//71 53//71
f 56//72 53//72 52//72
f 51//73 53//73 54//73
f 55//74 54//74 53//74
f 53//75 56//75 55//75
f 57//76 56//76 58//76
f 57//77 55//77 56//77
f 52//78 58//78 56//78
f 52//79 50//79 58//79
f 60//80 58//80 50//80
f 59//81 57//81 58//81
f 59//82 58//82 60//82
f 64//83 61//83 60//83
f 61//84 62//84 60//84
f 60//85 62//85 63//85
f 65//1 60//1 63//1
f 12//1 64//1 60//1
f 12//86 60//86 50//86
f 59//87 60//87 65//87
f 63//1 66//1 65//1
f 68//88 65//88 66//88
f 67//89 59//89 65//89
f 68//90 67//90 65//90
f 66//88 70//88 68//88
f 68//88 70//88 69//88
f 72//1 68//1 69//1
f 67//91 68//91 71//91
f 71//92 68//92 72//92
f 69//1 73//1 72//1
f 73//1 75//1 72//1
f 71//93 72//93 74//93
f 74//94 72//94 76//94
f 75//88 76//88 72//88
f 79//95 74//95 76//95
f 76//96 77//96 78//96
f 76//97 83//97 77//97
f 78//98 80//98 76//98
f 76//88 75//88 84//88
f 79//99 76//99 80//99
f 82//100 76//100 81//100
f 81//100 76//100 84//100
f 82//1 83//1 76//1
f 85//101 84//101 75//101
f 85//102 86//102 84//102
f 84//103 86//103 87//103
f 87//104 81//104 84//104
f 88//105 81//105 87//105
f 88//106 87//106 89//106
f 89//107 87//107 86//107
f 90//108 88//108 89//108
f 90//109 89//109 86//109
f 86//110 91//110 90//110
f 92//111 90//111 91//111
f 90//112 92//112 94//112
f 93//113 88//113 90//113
f 90//114 94//114 93//114
f 96//115 94//115 92//115
f 94//116 95//116 93//116
f 94//117 96//117 95//117
f 96//118 97//118 99//118
f 98//119 97//119 96//119
f 98//120 96//120 92//120
f 99//121 95//121 96//121
f 100//122 99//122 97//122
f 99//123 100//123 103//123
f 99//124 101//124 102//124
f 103//125 101//125 99//125
f 102//126 95//126 99//126
f 105//127 103//127 100//127
f 104//128 106//128 103//128
f 103//129 105//129 104//129
f 101//130 103//130 106//130
f 106//131 107//131 110//131
f 106//132 104//132 107//132
f 106//133 109//133 108//133
f 111//134 106//134 108//134
f 110//135 109//135 106//135
f 106//136 111//136 101//136
f 102//137 101//137 111//137
f 111//138 108//138 112//138
f 112//139 113//139 111//139
f 111//140 113//140 114//140
f 114//141 102//141 111//141
f 115//142 114//142 113//142
f 114//143 115//143 102//143
f 93//144 115//144 116//144
f 95//145 115//145 93//145
f 95//146 102//146 115//146
f 113//147 116//147 115//147
f 116//148 117//148 93//148
f 116//149 118//149 117//149
f 119//150 118//150 116//150
f 113//151 119//151 116//151
f 120//152 121//152 119//152
f 120//153 119//153 113//153
f 121//154 123//154 119//154
f 124//155 119//155 122//155
f 122//156 119//156 123//156
f 119//157 124//157 118//157
f 124//158 122//158 125//158
f 124//159 125//159 117//159
f 117//160 118//160 124//160
f 126//1 127//1 125//1
f 122//1 126//1 125//1
f 81//161 88//161 125//161
f 88//162 117//162 125//162
f 125//88 82//88 81//88
f 127//163 82//163 125//163
f 128//164 129//164 127//164
f 127//165 126//165 128//165
f 82//166 127//166 129//166
f 128//167 130//167 129//167
f 130//168 131//168 129//168
f 129//169 131//169 132//169
f 129//170 132//170 82//170
f 133//171 132//171 131//171
f 133//172 82//172 132//172
f 133//173 131//173 134//173
f 134//174 78//174 133//174
f 135//175 133//175 78//175
f 82//176 133//176 135//176
f 78//175 77//175 135//175
f 77//177 136//177 135//177
f 82//178 135//178 136//178
f 136//179 77//179 83//179
f 83//180 82//180 136//180
f 134//181 131//181 138//181
f 137//182 79//182 134//182
f 79//183 80//183 134//183
f 137//184 134//184 139//184
f 78//185 134//185 80//185
f 138//186 139//186 134//186
f 140//187 142//187 139//187
f 139//188 138//188 140//188
f 139//189 141//189 137//189
f 141//190 139//190 142//190
f 143//191 142//191 144//191
f 142//192 143//192 141//192
f 145//191 144//191 142//191
f 142//191 140//191 145//191
f 146//193 147//193 145//193
f 140//191 146//191 145//191
f 144//194 145//194 147//194
f 147//191 149//191 148//191
f 152//195 147//195 148//195
f 147//191 151//191 149//191
f 150//191 147//191 152//191
f 147//196 150//196 144//196
f 147//197 146//197 151//197
f 152//198 154//198 153//198
f 153//199 155//199 152//199
f 156//200 154//200 152//200
f 155//191 150//191 152//191
f 156//201 152//201 148//201
f 157//202 156//202 148//202
f 158//203 156//203 157//203
f 154//204 156//204 158//204
f 154//205 158//205 159//205
f 158//206 157//206 159//206
f 161//207 159//207 160//207
f 159//208 157//208 160//208
f 159//209 162//209 154//209
f 161//210 162//210 159//210
f 164//211 162//211 163//211
f 162//212 161//212 163//212
f 162//213 164//213 165//213
f 154//214 162//214 165//214
f 166//215 165//215 164//215
f 166//216 170//216 165//216
f 165//217 167//217 154//217
f 165//218 169//218 167//218
f 168//219 165//219 170//219
f 168//220 169//220 165//220
f 172//221 170//221 166//221
f 171//222 168//222 170//222
f 170//223 172//223 171//223
f 172//224 173//224 176//224
f 175//225 173//225 172//225
f 171//226 172//226 174//226
f 172//227 177//227 174//227
f 166//228 175//228 172//228
f 172//229 176//229 177//229
f 177//230 176//230 178//230
f 177//231 178//231 179//231
f 179//232 180//232 177//232
f 174//233 177//233 180//233
f 182//234 174//234 180//234
f 185//235 181//235 180//235
f 180//236 181//236 182//236
f 183//237 180//237 179//237
f 183//238 184//238 180//238
f 184//239 185//239 180//239
f 186//240 187//240 185//240
f 186//241 185//241 184//241
f 185//242 187//242 181//242
f 188//243 187//243 186//243
f 187//244 188//244 189//244
f 190//245 187//245 189//245
f 187//246 190//246 181//246
f 190//247 191//247 193//247
f 189//248 191//248 190//248
f 190//249 192//249 181//249
f 193//250 192//250 190//250
f 194//251 193//251 195//251
f 194//252 192//252 193//252
f 196//253 193//253 191//253
f 193//191 196//191 195//191
f 196//191 197//191 195//191
f 196//254 199//254 197//254
f 199//255 196//255 198//255
f 200//256 198//256 196//256
f 196//257 201//257 200//257
f 201//253 196//253 191//253
f 202//258 200//258 201//258
f 202//259 201//259 189//259
f 189//259 201//259 191//259
f 200//260 202//260 203//260
f 204//261 203//261 202//261
f 204//259 202//259 206//259
f 202//262 205//262 206//262
f 202//191 189//191 205//191
f 204//259 206//259 207//259
f 207//263 206//263 208//263
f 208//264 206//264 205//264
f 208//265 209//265 207//265
f 205//266 210//266 208//266
f 210//267 209//267 208//267
f 213//268 210//268 205//268
f 210//269 211//269 215//269
f 212//270 211//270 210//270
f 210//271 214//271 212//271
f 213//272 214//272 210//272
f 215//273 209//273 210//273
f 23//274 215//274 211//274
f 23//275 216//275 215//275
f 216//276 209//276 215//276
f 216//277 23//277 22//277
f 27//278 209//278 216//278
f 22//279 27//279 216//279
f 189//280 214//280 213//280
f 212//281 214//281 217//281
f 189//282 188//282 214//282
f 217//283 214//283 188//283
f 219//284 212//284 217//284
f 217//285 188//285 218//285
f 219//286 217//286 218//286
f 219//287 218//287 221//287
f 211//288 212//288 219//288
f 219//289 220//289 211//289
f 220//290 219//290 221//290
f 222//291 221//291 224//291
f 225//292 221//292 222//292
f 221//293 218//293 186//293
f 186//294 223//294 221//294
f 221//295 223//295 224//295
f 225//296 220//296 221//296
f 226//297 220//297 225//297
f 226//298 225//298 227//298
f 227//299 225//299 222//299
f 226//300 227//300 229//300
f 61//301 227//301 62//301
f 61//302 229//302 227//302
f 227//303 228//303 62//303
f 228//304 227//304 222//304
f 230//305 229//305 17//305
f 226//306 229//306 230//306
f 231//307 229//307 61//307
f 231//305 17//305 229//305
f 232//308 231//308 61//308
f 19//309 231//309 232//309
f 19//310 17//310 231//310
f 232//311 64//311 14//311
f 61//312 64//312 232//312
f 232//313 14//313 19//313
f 220//314 226//314 230//314
f 211//315 230//315 233//315
f 220//316 230//316 211//316
f 17//317 233//317 230//317
f 233//318 23//318 211//318
f 23//319 233//319 24//319
f 17//320 24//320 233//320
f 222//321 234//321 228//321
f 228//322 234//322 63//322
f 228//323 63//323 62//323
f 235//324 234//324 222//324
f 63//325 234//325 235//325
f 235//326 66//326 63//326
f 70//327 66//327 235//327
f 224//328 236//328 235//328
f 235//329 236//329 70//329
f 222//330 224//330 235//330
f 237//331 236//331 224//331
f 238//332 236//332 237//332
f 236//333 238//333 70//333
f 179//334 238//334 237//334
f 178//335 238//335 179//335
f 70//336 238//336 239//336
f 178//337 239//337 238//337
f 173//338 239//338 176//338
f 240//339 239//339 173//339
f 70//340 239//340 240//340
f 178//341 176//341 239//341
f 173//342 241//342 240//342
f 73//343 69//343 240//343
f 240//344 69//344 70//344
f 240//345 241//345 73//345
f 242//346 241//346 173//346
f 73//347 241//347 243//347
f 242//348 243//348 241//348
f 242//349 244//349 243//349
f 243//350 244//350 75//350
f 75//351 73//351 243//351
f 244//352 245//352 75//352
f 164//353 245//353 244//353
f 175//354 244//354 242//354
f 164//355 244//355 175//355
f 245//356 246//356 247//356
f 246//357 245//357 164//357
f 75//358 245//358 247//358
f 247//359 246//359 248//359
f 85//360 247//360 248//360
f 75//361 247//361 85//361
f 86//362 248//362 246//362
f 86//363 85//363 248//363
f 91//364 246//364 161//364
f 163//365 161//365 246//365
f 164//366 163//366 246//366
f 246//367 91//367 86//367
f 175//368 242//368 173//368
f 237//369 224//369 223//369
f 223//370 183//370 237//370
f 237//371 183//371 179//371
f 223//372 186//372 184//372
f 223//373 184//373 183//373
f 218//374 188//374 186//374
f 213//375 205//375 189//375
f 209//376 27//376 207//376
f 207//377 27//377 249//377
f 207//378 249//378 250//378
f 46//259 207//259 251//259
f 46//259 204//259 207//259
f 250//379 251//379 207//379
f 250//380 252//380 251//380
f 252//381 253//381 251//381
f 253//382 46//382 251//382
f 252//383 254//383 253//383
f 254//384 47//384 253//384
f 47//385 45//385 253//385
f 253//386 45//386 46//386
f 254//387 48//387 47//387
f 254//388 252//388 256//388
f 41//389 254//389 255//389
f 254//390 256//390 255//390
f 41//391 48//391 254//391
f 30//392 256//392 252//392
f 31//393 256//393 30//393
f 256//394 31//394 255//394
f 31//395 35//395 255//395
f 255//396 35//396 41//396
f 30//397 252//397 250//397
f 249//398 28//398 250//398
f 30//399 250//399 28//399
f 27//400 28//400 249//400
f 203//401 204//401 257//401
f 204//402 258//402 257//402
f 204//403 46//403 258//403
f 259//55 258//55 46//55
f 257//191 258//191 259//191
f 46//55 51//55 259//55
f 259//191 54//191 257//191
f 54//404 259//404 51//404
f 257//405 260//405 203//405
f 260//191 257//191 54//191
f 261//405 203//405 260//405
f 54//406 55//406 260//406
f 260//407 262//407 261//407
f 262//408 260//408 55//408
f 55//409 57//409 262//409
f 264//410 262//410 57//410
f 263//411 261//411 262//411
f 262//412 264//412 263//412
f 57//413 265//413 264//413
f 137//414 264//414 265//414
f 264//415 137//415 141//415
f 141//416 263//416 264//416
f 266//417 265//417 59//417
f 266//418 137//418 265//418
f 59//419 265//419 57//419
f 79//420 137//420 266//420
f 67//421 71//421 266//421
f 59//422 67//422 266//422
f 74//423 266//423 71//423
f 266//424 74//424 79//424
f 143//405 198//405 263//405
f 263//425 141//425 143//425
f 261//405 263//405 198//405
f 203//405 261//405 200//405
f 198//405 200//405 261//405
f 198//405 143//405 199//405
f 150//426 197//426 199//426
f 199//427 144//427 150//427
f 144//405 199//405 143//405
f 197//191 150//191 155//191
f 195//191 197//191 155//191
f 195//428 169//428 267//428
f 153//429 169//429 195//429
f 195//430 155//430 153//430
f 195//431 267//431 194//431
f 267//432 182//432 181//432
f 194//433 267//433 181//433
f 171//434 267//434 169//434
f 182//435 267//435 171//435
f 181//436 192//436 194//436
f 174//437 182//437 171//437
f 175//438 166//438 164//438
f 171//439 169//439 168//439
f 169//440 153//440 167//440
f 167//441 153//441 154//441
f 161//442 268//442 91//442
f 268//443 161//443 160//443
f 268//444 157//444 98//444
f 160//445 157//445 268//445
f 91//446 268//446 92//446
f 98//447 92//447 268//447
f 97//448 157//448 148//448
f 157//449 97//449 98//449
f 105//191 151//191 269//191
f 151//191 105//191 149//191
f 269//450 151//450 146//450
f 104//191 105//191 269//191
f 107//191 104//191 269//191
f 271//451 269//451 270//451
f 146//452 270//452 269//452
f 269//453 271//453 272//453
f 269//191 272//191 107//191
f 272//191 273//191 107//191
f 274//191 273//191 272//191
f 272//191 275//191 274//191
f 275//454 272//454 271//454
f 275//195 277//195 276//195
f 276//455 274//455 275//455
f 277//456 275//456 278//456
f 271//457 278//457 275//457
f 280//191 279//191 278//191
f 281//191 278//191 279//191
f 278//191 271//191 280//191
f 278//458 281//458 277//458
f 279//191 282//191 281//191
f 284//191 281//191 282//191
f 283//459 277//459 281//459
f 281//191 284//191 283//191
f 282//460 287//460 284//460
f 285//405 283//405 284//405
f 284//191 286//191 285//191
f 286//461 284//461 287//461
f 287//462 282//462 288//462
f 288//463 289//463 287//463
f 290//464 287//464 289//464
f 287//465 290//465 286//465
f 292//466 290//466 291//466
f 289//467 291//467 290//467
f 286//55 290//55 292//55
f 294//468 293//468 292//468
f 293//469 295//469 292//469
f 297//468 294//468 292//468
f 292//55 285//55 286//55
f 283//470 285//470 292//470
f 292//471 295//471 283//471
f 296//468 297//468 292//468
f 292//472 291//472 296//472
f 298//473 297//473 296//473
f 299//474 297//474 298//474
f 294//475 297//475 299//475
f 303//476 300//476 299//476
f 302//477 299//477 300//477
f 299//478 301//478 294//478
f 299//479 302//479 301//479
f 298//480 303//480 299//480
f 304//481 303//481 305//481
f 304//482 300//482 303//482
f 298//483 306//483 303//483
f 303//484 306//484 305//484
f 298//485 307//485 306//485
f 306//55 307//55 305//55
f 307//55 308//55 305//55
f 296//486 307//486 298//486
f 307//487 291//487 308//487
f 296//488 291//488 307//488
f 305//489 308//489 313//489
f 311//490 309//490 308//490
f 308//55 309//55 312//55
f 308//491 291//491 310//491
f 308//492 310//492 311//492
f 313//493 308//493 312//493
f 313//494 315//494 314//494
f 314//495 305//495 313//495
f 313//496 316//496 315//496
f 316//497 313//497 312//497
f 318//498 315//498 316//498
f 312//499 317//499 316//499
f 318//500 316//500 317//500
f 319//501 320//501 318//501
f 318//502 321//502 319//502
f 321//503 318//503 317//503
f 320//504 315//504 318//504
f 321//505 322//505 319//505
f 321//506 317//506 324//506
f 323//507 322//507 321//507
f 323//508 321//508 324//508
f 324//509 325//509 323//509
f 324//510 326//510 325//510
f 324//511 317//511 327//511
f 324//512 327//512 326//512
f 312//513 327//513 317//513
f 312//514 326//514 327//514
f 309//515 328//515 326//515
f 328//516 325//516 326//516
f 309//517 326//517 312//517
f 328//88 309//88 325//88
f 311//518 329//518 325//518
f 325//1 309//1 311//1
f 325//519 329//519 323//519
f 311//520 330//520 329//520
f 329//521 330//521 331//521
f 323//522 329//522 331//522
f 331//523 322//523 323//523
f 332//524 331//524 333//524
f 322//525 331//525 332//525
f 330//526 334//526 331//526
f 334//527 333//527 331//527
f 334//528 330//528 336//528
f 335//529 333//529 334//529
f 334//530 336//530 335//530
f 337//531 335//531 336//531
f 336//532 338//532 337//532
f 339//520 338//520 336//520
f 339//100 336//100 330//100
f 330//88 311//88 339//88
f 339//533 340//533 341//533
f 339//534 342//534 340//534
f 338//535 339//535 341//535
f 311//536 342//536 339//536
f 291//537 340//537 342//537
f 342//538 310//538 291//538
f 342//539 311//539 310//539
f 341//1 343//1 338//1
f 341//88 346//88 343//88
f 341//540 344//540 347//540
f 344//541 341//541 345//541
f 341//542 340//542 345//542
f 341//1 347//1 346//1
f 347//1 350//1 348//1
f 349//88 347//88 348//88
f 347//1 349//1 346//1
f 347//543 351//543 350//543
f 351//544 347//544 344//544
f 351//545 344//545 352//545
f 353//546 351//546 352//546
f 355//547 351//547 353//547
f 354//548 350//548 351//548
f 354//549 351//549 355//549
f 355//550 353//550 357//550
f 356//551 354//551 355//551
f 356//552 355//552 358//552
f 357//553 358//553 355//553
f 358//554 359//554 356//554
f 360//555 358//555 357//555
f 359//556 358//556 360//556
f 280//191 270//191 360//191
f 357//557 280//557 360//557
f 361//191 360//191 270//191
f 360//558 361//558 359//558
f 270//559 146//559 361//559
f 361//405 146//405 140//405
f 140//560 359//560 361//560
f 138//561 356//561 359//561
f 359//562 140//562 138//562
f 362//563 357//563 353//563
f 357//564 362//564 279//564
f 279//565 280//565 357//565
f 353//566 352//566 362//566
f 288//567 362//567 352//567
f 362//568 288//568 282//568
f 282//569 279//569 362//569
f 354//570 356//570 363//570
f 356//571 138//571 130//571
f 356//572 130//572 128//572
f 128//573 363//573 356//573
f 128//574 126//574 363//574
f 354//575 363//575 126//575
f 350//576 354//576 364//576
f 364//577 354//577 126//577
f 122//1 365//1 364//1
f 126//1 122//1 364//1
f 364//88 365//88 350//88
f 123//578 365//578 122//578
f 365//100 366//100 350//100
f 366//579 365//579 123//579
f 366//580 367//580 348//580
f 366//581 368//581 367//581
f 123//582 121//582 366//582
f 348//100 350//100 366//100
f 366//583 120//583 368//583
f 120//584 366//584 121//584
f 120//585 369//585 368//585
f 369//586 370//586 368//586
f 368//587 370//587 371//587
f 371//588 372//588 368//588
f 372//589 367//589 368//589
f 372//590 371//590 375//590
f 367//591 372//591 373//591
f 374//592 373//592 372//592
f 374//593 372//593 375//593
f 375//594 376//594 374//594
f 376//595 375//595 377//595
f 371//596 377//596 375//596
f 378//597 377//597 379//597
f 377//598 378//598 376//598
f 377//599 371//599 379//599
f 380//600 381//600 379//600
f 370//601 380//601 379//601
f 370//602 379//602 371//602
f 381//603 382//603 379//603
f 379//604 382//604 378//604
f 382//605 383//605 378//605
f 383//606 382//606 381//606
f 381//607 274//607 383//607
f 274//608 276//608 383//608
f 383//609 276//609 384//609
f 378//610 383//610 385//610
f 384//611 385//611 383//611
f 385//612 384//612 387//612
f 378//613 385//613 386//613
f 388//614 386//614 385//614
f 385//615 387//615 388//615
f 389//616 388//616 387//616
f 389//617 391//617 388//617
f 386//618 388//618 390//618
f 391//619 390//619 388//619
f 391//620 392//620 390//620
f 391//621 393//621 392//621
f 395//622 393//622 391//622
f 394//623 391//623 389//623
f 391//624 394//624 395//624
f 395//625 396//625 399//625
f 396//626 395//626 394//626
f 393//627 395//627 397//627
f 398//628 397//628 395//628
f 395//629 399//629 398//629
f 399//630 400//630 401//630
f 400//631 399//631 396//631
f 401//632 398//632 399//632
f 401//633 402//633 332//633
f 402//634 401//634 403//634
f 400//635 403//635 401//635
f 401//636 333//636 335//636
f 332//637 333//637 401//637
f 401//638 335//638 398//638
f 403//639 404//639 402//639
f 403//640 405//640 404//640
f 400//641 405//641 403//641
f 400//642 409//642 405//642
f 406//643 404//643 405//643
f 405//644 407//644 406//644
f 408//645 407//645 405//645
f 409//646 408//646 405//646
f 409//647 411//647 408//647
f 409//648 412//648 410//648
f 409//649 410//649 411//649
f 412//650 409//650 400//650
f 400//651 396//651 412//651
f 394//652 412//652 396//652
f 394//653 410//653 412//653
f 413//654 411//654 415//654
f 416//655 411//655 413//655
f 414//656 415//656 411//656
f 414//657 411//657 410//657
f 411//658 416//658 408//658
f 416//659 417//659 302//659
f 407//660 416//660 302//660
f 417//661 416//661 413//661
f 408//662 416//662 407//662
f 301//663 417//663 293//663
f 301//664 302//664 417//664
f 413//665 293//665 417//665
f 415//666 414//666 389//666
f 389//667 418//667 415//667
f 415//668 418//668 419//668
f 419//669 420//669 415//669
f 415//670 420//670 413//670
f 413//671 420//671 295//671
f 420//195 277//195 295//195
f 420//195 419//195 277//195
f 277//195 419//195 276//195
f 419//672 418//672 384//672
f 276//673 419//673 384//673
f 387//674 418//674 389//674
f 418//675 387//675 384//675
f 389//676 414//676 394//676
f 410//677 394//677 414//677
f 293//678 413//678 295//678
f 302//679 406//679 407//679
f 304//680 406//680 302//680
f 406//681 319//681 404//681
f 320//682 319//682 406//682
f 406//683 421//683 320//683
f 406//684 304//684 421//684
f 315//685 320//685 421//685
f 421//686 314//686 315//686
f 421//687 304//687 314//687
f 319//688 402//688 404//688
f 319//689 332//689 402//689
f 397//690 398//690 337//690
f 337//691 398//691 335//691
f 393//692 397//692 423//692
f 422//693 397//693 343//693
f 343//694 397//694 337//694
f 397//695 422//695 423//695
f 422//696 424//696 423//696
f 423//697 424//697 425//697
f 425//698 392//698 423//698
f 393//699 423//699 392//699
f 374//700 376//700 425//700
f 374//701 425//701 424//701
f 376//702 426//702 425//702
f 392//703 425//703 426//703
f 426//704 390//704 392//704
f 376//705 386//705 426//705
f 386//706 390//706 426//706
f 374//707 424//707 427//707
f 424//708 422//708 346//708
f 346//709 427//709 424//709
f 373//710 427//710 349//710
f 374//711 427//711 373//711
f 349//712 427//712 346//712
f 343//713 346//713 422//713
f 376//714 378//714 386//714
f 274//715 381//715 428//715
f 428//716 381//716 380//716
f 273//717 274//717 428//717
f 273//718 428//718 110//718
f 110//719 428//719 380//719
f 380//720 109//720 110//720
f 429//721 109//721 380//721
f 429//722 380//722 370//722
f 108//723 429//723 112//723
f 112//724 429//724 370//724
f 108//725 109//725 429//725
f 349//726 348//726 373//726
f 373//727 348//727 367//727
f 370//728 369//728 112//728
f 113//729 112//729 369//729
f 369//730 120//730 113//730
f 352//731 344//731 430//731
f 352//732 430//732 288//732
f 289//733 288//733 430//733
f 344//734 345//734 430//734
f 289//735 430//735 345//735
f 289//736 345//736 340//736
f 337//737 338//737 343//737
f 289//738 340//738 291//738
f 319//739 322//739 332//739
f 305//740 314//740 304//740
f 302//741 300//741 304//741
f 293//742 294//742 301//742
f 277//743 283//743 295//743
f 270//191 280//191 271//191
f 110//744 107//744 273//744
f 100//745 149//745 105//745
f 148//746 149//746 100//746
f 100//747 97//747 148//747
f 130//748 138//748 131//748
f 88//749 93//749 117//749
f 14//14 64//14 12//14
f 3//750 50//750 43//750
f 12//751 50//751 3//751
f 2//752 3//752 43//752
f 10//753 20//753 9//753
