# Blender 5.0.1
# www.blender.org
mtllib right_shoulder_x_link_visual_2.mtl
o i01.rightArm.shoulder.full.003_visual.001
v 0.000000 -0.029609 0.033927
v 0.000000 -0.027260 -0.001793
v -0.006983 -0.029564 0.033241
v 0.006984 -0.029564 0.033241
v 0.000000 0.024911 0.037513
v -0.006984 0.024957 0.036827
v 0.006984 0.024957 0.036827
v 0.013699 0.025090 0.034793
v 0.000000 0.027260 0.001793
v -0.013699 0.025090 0.034793
v -0.019888 0.025307 0.031492
v -0.025313 0.025599 0.027050
v -0.029764 0.025955 0.021638
v -0.033072 0.026361 0.015462
v -0.035109 0.026802 0.008762
v -0.035797 0.027260 0.001793
v -0.035109 0.027718 -0.005176
v -0.033072 0.028159 -0.011876
v -0.029764 0.028565 -0.018052
v -0.025312 0.028921 -0.023466
v -0.019888 0.029213 -0.027907
v -0.013699 0.029430 -0.031208
v -0.006983 0.029564 -0.033241
v 0.000000 0.029609 -0.033927
v 0.006984 0.029564 -0.033241
v 0.013699 0.029430 -0.031208
v 0.019888 0.029213 -0.027907
v 0.025313 0.028921 -0.023466
v 0.029764 0.028565 -0.018052
v 0.033072 0.028159 -0.011876
v 0.035110 0.027718 -0.005176
v 0.035797 0.027260 0.001793
v 0.035110 0.026802 0.008762
v 0.033072 0.026361 0.015462
v 0.029764 0.025955 0.021638
v 0.025313 0.025599 0.027050
v 0.019888 0.025307 0.031492
v 0.019888 -0.029213 0.027908
v 0.013699 -0.029430 0.031208
v 0.025313 -0.028921 0.023466
v 0.029764 -0.028565 0.018054
v 0.033072 -0.028159 0.011877
v 0.035110 -0.027718 0.005177
v 0.035797 -0.027260 -0.001792
v 0.035110 -0.026802 -0.008760
v 0.033072 -0.026361 -0.015461
v 0.029764 -0.025955 -0.021638
v 0.025313 -0.025599 -0.027051
v 0.019888 -0.025307 -0.031493
v 0.013699 -0.025090 -0.034794
v 0.006984 -0.024956 -0.036826
v 0.000000 -0.024911 -0.037512
v -0.006983 -0.024956 -0.036826
v -0.013699 -0.025090 -0.034794
v -0.019888 -0.025307 -0.031493
v -0.025312 -0.025599 -0.027051
v -0.029764 -0.025955 -0.021638
v -0.033072 -0.026361 -0.015461
v -0.035109 -0.026802 -0.008760
v -0.035797 -0.027260 -0.001792
v -0.035109 -0.027718 0.005177
v -0.033072 -0.028159 0.011877
v -0.029764 -0.028565 0.018054
v -0.025312 -0.028921 0.023466
v -0.019888 -0.029213 0.027908
v -0.013699 -0.029430 0.031208
vn -0.0000 -0.9978 -0.0656
vn -0.0979 -0.0653 0.9930
vn 0.0979 -0.0653 0.9930
vn 0.2905 -0.0628 0.9548
vn -0.0000 0.9978 0.0656
vn 0.6344 -0.0507 0.7713
vn 0.4714 -0.0579 0.8800
vn 0.4713 -0.0579 0.8801
vn 0.2904 -0.0628 0.9549
vn 0.7730 -0.0416 0.6331
vn 0.8820 -0.0309 0.4703
vn 0.8819 -0.0309 0.4704
vn 0.9569 -0.0191 0.2897
vn 0.9952 -0.0064 0.0978
vn 0.9952 0.0064 -0.0978
vn 0.9569 0.0190 -0.2897
vn 0.8820 0.0309 -0.4703
vn 0.8819 0.0309 -0.4704
vn 0.7730 0.0416 -0.6330
vn 0.7731 0.0416 -0.6330
vn 0.6344 0.0507 -0.7713
vn 0.6343 0.0507 -0.7714
vn 0.4714 0.0579 -0.8800
vn 0.2902 0.0628 -0.9549
vn 0.2904 0.0628 -0.9549
vn 0.0979 0.0653 -0.9930
vn -0.0979 0.0653 -0.9930
vn -0.2902 0.0628 -0.9549
vn -0.4714 0.0579 -0.8800
vn -0.2904 0.0628 -0.9549
vn -0.6344 0.0507 -0.7713
vn -0.7730 0.0416 -0.6330
vn -0.6343 0.0507 -0.7714
vn -0.8819 0.0309 -0.4703
vn -0.7731 0.0416 -0.6329
vn -0.9569 0.0190 -0.2897
vn -0.8819 0.0309 -0.4704
vn -0.9952 0.0064 -0.0978
vn -0.9952 -0.0064 0.0978
vn -0.9569 -0.0191 0.2897
vn -0.8820 -0.0309 0.4703
vn -0.7730 -0.0416 0.6331
vn -0.8819 -0.0309 0.4704
vn -0.6344 -0.0507 0.7713
vn -0.4713 -0.0579 0.8801
vn -0.6344 -0.0507 0.7714
vn -0.2903 -0.0628 0.9549
vn -0.4714 -0.0579 0.8800
vn -0.2905 -0.0628 0.9548
s 0
usemtl Material.014
f 4//1 1//1 2//1
f 2//1 1//1 3//1
f 1//2 6//2 3//2
f 1//3 4//3 7//3
f 1//2 5//2 6//2
f 1//3 7//3 5//3
f 8//4 7//4 4//4
f 9//5 7//5 8//5
f 9//5 5//5 7//5
f 9//5 6//5 5//5
f 9//5 10//5 6//5
f 9//5 11//5 10//5
f 9//5 12//5 11//5
f 9//5 13//5 12//5
f 9//5 14//5 13//5
f 9//5 15//5 14//5
f 9//5 16//5 15//5
f 9//5 17//5 16//5
f 9//5 18//5 17//5
f 9//5 19//5 18//5
f 9//5 20//5 19//5
f 9//5 21//5 20//5
f 9//5 22//5 21//5
f 9//5 23//5 22//5
f 9//5 24//5 23//5
f 9//5 25//5 24//5
f 9//5 26//5 25//5
f 9//5 27//5 26//5
f 9//5 28//5 27//5
f 9//5 29//5 28//5
f 9//5 30//5 29//5
f 9//5 31//5 30//5
f 9//5 32//5 31//5
f 9//5 33//5 32//5
f 9//5 34//5 33//5
f 9//5 35//5 34//5
f 9//5 36//5 35//5
f 9//5 37//5 36//5
f 9//5 8//5 37//5
f 36//6 37//6 38//6
f 37//7 8//7 39//7
f 37//8 39//8 38//8
f 2//1 38//1 39//1
f 2//1 39//1 4//1
f 8//9 4//9 39//9
f 36//6 38//6 40//6
f 2//1 40//1 38//1
f 35//10 40//10 41//10
f 2//1 41//1 40//1
f 35//10 36//10 40//10
f 34//11 41//11 42//11
f 2//1 42//1 41//1
f 34//12 35//12 41//12
f 33//13 42//13 43//13
f 2//1 43//1 42//1
f 33//13 34//13 42//13
f 32//14 43//14 44//14
f 2//1 44//1 43//1
f 32//14 33//14 43//14
f 31//15 44//15 45//15
f 2//1 45//1 44//1
f 31//15 32//15 44//15
f 30//16 45//16 46//16
f 2//1 46//1 45//1
f 30//16 31//16 45//16
f 29//17 46//17 47//17
f 2//1 47//1 46//1
f 29//18 30//18 46//18
f 28//19 47//19 48//19
f 2//1 48//1 47//1
f 28//20 29//20 47//20
f 27//21 48//21 49//21
f 2//1 49//1 48//1
f 27//22 28//22 48//22
f 26//23 49//23 50//23
f 2//1 50//1 49//1
f 26//23 27//23 49//23
f 25//24 50//24 51//24
f 2//1 51//1 50//1
f 25//25 26//25 50//25
f 24//26 51//26 52//26
f 2//1 52//1 51//1
f 24//26 25//26 51//26
f 53//27 24//27 52//27
f 2//1 53//1 52//1
f 54//28 23//28 53//28
f 2//1 54//1 53//1
f 53//27 23//27 24//27
f 55//29 22//29 54//29
f 2//1 55//1 54//1
f 54//30 22//30 23//30
f 56//31 21//31 55//31
f 2//1 56//1 55//1
f 55//29 21//29 22//29
f 57//32 20//32 56//32
f 2//1 57//1 56//1
f 56//33 20//33 21//33
f 58//34 19//34 57//34
f 2//1 58//1 57//1
f 57//35 19//35 20//35
f 59//36 18//36 58//36
f 2//1 59//1 58//1
f 58//37 18//37 19//37
f 60//38 17//38 59//38
f 2//1 60//1 59//1
f 59//36 17//36 18//36
f 61//39 16//39 60//39
f 2//1 61//1 60//1
f 60//38 16//38 17//38
f 62//40 15//40 61//40
f 2//1 62//1 61//1
f 61//39 15//39 16//39
f 63//41 14//41 62//41
f 2//1 63//1 62//1
f 62//40 14//40 15//40
f 64//42 13//42 63//42
f 2//1 64//1 63//1
f 63//43 13//43 14//43
f 65//44 12//44 64//44
f 2//1 65//1 64//1
f 64//42 12//42 13//42
f 66//45 11//45 65//45
f 2//1 66//1 65//1
f 65//46 11//46 12//46
f 3//47 10//47 66//47
f 2//1 3//1 66//1
f 66//48 10//48 11//48
f 3//49 6//49 10//49
