# Blender 5.0.1
# www.blender.org
mtllib right_shoulder_z_link_visual_4.mtl
o i01.rightArm.rotate.full.005_visual.001
v 0.035190 -0.331641 0.219427
v -0.035259 -0.331644 0.219425
v 0.035187 -0.413823 0.422357
v 0.035189 -0.494551 0.435880
v 0.035202 -0.318790 -0.286935
v 0.035185 -0.359934 0.416883
v -0.035247 -0.318791 -0.286936
v 0.035187 -0.152933 0.096595
v 0.035205 -0.424372 -0.260962
v 0.035182 -0.073047 0.161077
v -0.035266 -0.073050 0.161076
v -0.035263 -0.007349 -0.062874
v 0.035186 -0.007347 -0.062872
v -0.035264 -0.359936 0.416881
v -0.035262 -0.413825 0.422356
v -0.035263 -0.407444 0.458849
v -0.035259 -0.494551 0.435876
v -0.035261 -0.487960 0.473217
v 0.035188 -0.487960 0.473220
v -0.035261 -0.497637 0.498361
v 0.035188 -0.497636 0.498363
v 0.035186 -0.407443 0.458850
v 0.035185 -0.388743 0.479725
v -0.035264 -0.388745 0.479724
v -0.035259 -0.528998 0.454500
v -0.035244 -0.424375 -0.260962
v 0.035207 -0.351693 -0.445915
v -0.035242 -0.351695 -0.445917
v -0.035244 -0.332257 -0.382936
v -0.035243 -0.331887 -0.444772
v -0.035243 -0.319559 -0.444366
v -0.035244 -0.317561 -0.406448
v 0.035206 -0.331885 -0.444771
v 0.035205 -0.332256 -0.382936
v 0.035206 -0.319559 -0.444363
v 0.035205 -0.317561 -0.406445
v 0.035200 -0.205761 -0.385808
v 0.035195 -0.132629 -0.284330
v 0.035189 -0.075943 -0.097848
v 0.035286 0.004904 -0.197244
v 0.035285 0.010744 -0.167666
v -0.035253 -0.132631 -0.284331
v -0.035260 -0.075946 -0.097849
v -0.035068 0.010741 -0.167668
v -0.035248 -0.205763 -0.385810
v -0.035066 0.004901 -0.197247
v -0.035066 0.010825 -0.226808
v -0.035066 0.027610 -0.251852
v 0.035287 0.010827 -0.226806
v 0.035201 -0.166691 -0.443000
v 0.035287 0.027612 -0.251849
v -0.035066 0.052701 -0.268566
v 0.035286 0.052704 -0.268563
v 0.035285 0.082281 -0.274405
v -0.035067 0.082279 -0.274405
v 0.035289 0.031461 -0.338986
v 0.035290 0.031517 -0.378736
v -0.035063 0.031515 -0.378738
v 0.035286 0.105579 -0.338804
v -0.035064 0.031458 -0.338988
v -0.035248 -0.166693 -0.443002
v -0.035066 0.105577 -0.338806
v -0.035065 0.105633 -0.378634
v 0.035287 0.105635 -0.378632
v -0.035262 0.284279 -0.479351
v -0.035265 0.337077 -0.417690
v -0.035265 0.348682 -0.442871
v 0.035187 0.284281 -0.479350
v -0.035068 0.111840 -0.268483
v -0.035264 0.341906 -0.480232
v 0.035184 0.348682 -0.442868
v 0.035185 0.341905 -0.480229
v 0.035183 0.337078 -0.417689
v 0.035282 0.153601 -0.226604
v 0.035283 0.136887 -0.251696
v 0.035180 0.462194 -0.436534
v 0.035284 0.111842 -0.268480
v 0.035175 0.459122 -0.233037
v 0.035175 0.528998 -0.344106
v 0.035170 0.432608 -0.016437
v 0.035169 0.481273 -0.026353
v 0.035180 0.489056 -0.498363
v -0.035274 0.528996 -0.344109
v 0.035159 0.492559 0.325476
v -0.035289 0.492556 0.325474
v 0.035161 0.433495 0.329778
v -0.035287 0.433492 0.329775
v -0.035285 0.340745 0.343451
v -0.035276 0.284015 0.091423
v -0.035288 0.440045 0.366287
v -0.035278 0.225054 0.242556
v -0.035275 0.197322 0.138012
v -0.035280 0.481271 -0.026354
v -0.035286 0.347522 0.380810
v -0.035284 0.406067 0.217155
v 0.035165 0.406069 0.217156
v -0.035279 0.432606 -0.016438
v -0.035274 0.459120 -0.233040
v -0.035071 0.153599 -0.226606
v -0.035072 0.159439 -0.197029
v -0.035274 0.263226 0.021388
v -0.035072 0.153515 -0.167466
v -0.035072 0.136730 -0.142424
v 0.035281 0.153518 -0.167465
v 0.035281 0.159441 -0.197026
v 0.035175 0.263228 0.021389
v 0.035280 0.136732 -0.142421
v -0.035072 0.111639 -0.125709
v 0.035281 0.111642 -0.125707
v 0.035181 0.138959 -0.062666
v -0.035071 0.082061 -0.119868
v 0.035282 0.082064 -0.119866
v -0.035070 0.052500 -0.125793
v 0.035283 0.052502 -0.125790
v -0.035069 0.027456 -0.142577
v 0.035284 0.027458 -0.142574
v -0.035268 0.138957 -0.062667
v 0.035174 0.197324 0.138013
v 0.035171 0.225055 0.242558
v 0.035172 0.284017 0.091425
v 0.035164 0.340745 0.343454
v 0.035166 0.283516 0.344333
v -0.035283 0.283513 0.344332
v 0.035163 0.347522 0.380814
v 0.035160 0.440047 0.366289
v 0.035163 0.335918 0.405993
v 0.035159 0.461034 0.387148
v -0.035286 0.335917 0.405992
v -0.035290 0.461032 0.387148
v -0.035069 0.136884 -0.251698
v -0.035269 0.462192 -0.436535
v -0.035268 0.489053 -0.498363
v -0.035267 0.434653 -0.493907
v -0.035268 0.441205 -0.457396
v 0.035181 0.441207 -0.457394
v 0.035182 0.434655 -0.493905
v -0.035247 -0.223944 -0.409156
v -0.035246 -0.225827 -0.446203
v 0.035203 -0.225825 -0.446200
v 0.035202 -0.223942 -0.409154
v -0.035262 -0.152935 0.096594
v 0.035190 -0.528996 0.454501
vn -0.0000 -0.5664 -0.8241
vn -0.0000 0.9997 0.0254
vn 1.0000 -0.0000 -0.0000
vn -0.0000 0.9596 0.2815
vn -0.0000 0.6655 0.7464
vn -1.0000 -0.0000 -0.0000
vn -0.0000 0.1011 0.9949
vn -0.0000 0.9851 -0.1722
vn -0.0000 -0.9848 0.1738
vn -0.0000 -0.9333 -0.3592
vn -0.0000 0.1687 0.9857
vn -0.0000 0.7449 -0.6672
vn -0.0000 0.7448 -0.6672
vn -0.0000 0.4756 0.8797
vn -0.0000 -0.9307 -0.3657
vn -0.0000 -0.9895 -0.1447
vn -0.0000 0.0577 -0.9983
vn -0.0000 0.0329 -0.9995
vn -0.0000 0.0331 -0.9995
vn -0.0000 0.9986 -0.0526
vn -0.0000 0.8480 0.5300
vn -0.0000 -0.0227 -0.9997
vn 1.0000 -0.0009 0.0003
vn -0.0000 -0.9568 0.2908
vn 1.0000 -0.0008 0.0002
vn 1.0000 -0.0013 0.0010
vn -0.0000 -0.0140 0.9999
vn -1.0000 0.0018 -0.0006
vn -1.0000 0.0016 -0.0003
vn -1.0000 0.0026 -0.0019
vn -0.0000 0.9811 -0.1937
vn -0.0000 0.9805 0.1965
vn -1.0000 0.0007 0.0001
vn -1.0000 0.0006 0.0004
vn -0.0000 0.8307 0.5567
vn 1.0000 -0.0004 -0.0001
vn 1.0000 -0.0003 -0.0002
vn -0.0001 0.8307 0.5568
vn -0.0001 0.5544 0.8323
vn 1.0000 -0.0002 -0.0003
vn -0.0000 0.1937 0.9811
vn 1.0000 -0.0006 0.0002
vn 1.0000 -0.0005 -0.0000
vn -0.0000 1.0000 0.0014
vn -0.0000 0.0025 -1.0000
vn -1.0000 0.0009 -0.0000
vn -1.0000 0.0011 -0.0004
vn -1.0000 -0.0015 -0.0006
vn -1.0000 -0.0011 -0.0000
vn -0.0000 -1.0000 -0.0014
vn -1.0000 -0.0006 0.0004
vn -1.0000 -0.0000 0.0019
vn -1.0000 0.0002 0.0024
vn -0.0000 -0.0803 -0.9968
vn -0.0000 -0.0153 -0.9999
vn -1.0000 -0.0002 0.0008
vn -0.0000 0.9839 -0.1785
vn -0.0000 0.9082 0.4185
vn -0.0000 -0.1489 -0.9888
vn 1.0000 0.0003 -0.0002
vn 1.0000 0.0003 -0.0003
vn -0.0000 0.9681 -0.2507
vn -0.0000 0.9985 0.0543
vn -0.0000 0.0726 0.9974
vn -0.0000 0.9843 -0.1766
vn -0.0000 0.7175 -0.6965
vn -0.0000 -0.9936 -0.1129
vn -0.0000 -0.9926 -0.1215
vn -0.0001 0.7924 0.6101
vn -1.0000 -0.0007 0.0001
vn -1.0000 -0.0007 0.0004
vn -1.0000 -0.0007 -0.0002
vn -1.0000 -0.0008 -0.0006
vn -0.0000 -0.8307 -0.5568
vn -0.0000 -0.9805 -0.1965
vn 1.0000 0.0004 0.0001
vn 1.0000 0.0004 -0.0000
vn -0.0000 -0.9811 0.1937
vn 1.0000 0.0004 0.0003
vn -0.0000 -0.8307 -0.5567
vn 0.0001 -0.5544 -0.8322
vn -0.0000 -0.5544 -0.8323
vn 1.0000 0.0003 0.0004
vn 1.0000 0.0003 0.0015
vn 1.0000 -0.0014 0.0022
vn -0.0000 -0.1937 -0.9811
vn -0.0000 0.1965 -0.9805
vn 1.0000 -0.0004 0.0022
vn -0.0000 0.5567 -0.8307
vn 1.0000 -0.0000 0.0016
vn 1.0000 -0.0006 0.0010
vn -0.0000 0.8322 -0.5544
vn 1.0000 -0.0011 0.0008
vn -0.0000 0.8323 -0.5544
vn -1.0000 0.0012 -0.0019
vn -1.0000 0.0022 -0.0015
vn -1.0000 0.0008 -0.0042
vn -1.0000 -0.0000 -0.0031
vn -1.0000 0.0029 -0.0044
vn -0.0000 -0.9602 0.2793
vn -0.0000 -0.0014 1.0000
vn -1.0000 -0.0006 -0.0029
vn -0.0000 -0.9666 0.2564
vn -0.0000 0.9587 -0.2846
vn -0.0000 -0.8671 0.4981
vn -0.0001 0.0153 0.9999
vn -0.0000 0.0154 0.9999
vn -0.0000 -0.9839 0.1785
vn -0.0000 -0.9082 -0.4185
vn -0.0000 0.1489 0.9888
vn -0.0000 0.7050 -0.7092
vn -0.0000 0.7049 -0.7093
vn -1.0000 -0.0006 -0.0008
vn -0.0000 0.7924 0.6101
vn -0.0000 -0.8322 0.5544
vn -1.0000 -0.0005 0.0006
vn -0.0000 -0.5567 0.8307
vn -0.0000 -0.0816 -0.9967
vn -0.0000 -0.9843 0.1766
vn -0.0000 -0.7050 0.7092
vn -0.0000 -0.0817 -0.9967
vn -0.0000 -0.7050 0.7093
vn 1.0000 0.0001 -0.0004
vn -0.0000 -0.1965 0.9805
vn -0.0000 -0.1964 0.9805
vn 1.0000 0.0008 0.0003
vn 1.0000 0.0006 -0.0000
vn 1.0000 -0.0001 -0.0012
vn 1.0000 -0.0000 -0.0009
vn -1.0000 0.0004 0.0006
vn -0.0000 0.0541 -0.9985
vn -0.0000 0.0540 -0.9985
vn -0.0000 -0.9987 0.0508
vn -0.0000 -0.7890 0.6144
vn -1.0000 0.0008 -0.0017
vn -0.0000 -0.9298 -0.3681
vn 1.0000 -0.0004 0.0009
s 0
usemtl [Chris_Shoe_Sole]1
f 1//1 2//1 8//1
f 7//2 2//2 1//2
f 1//3 3//3 4//3
f 1//3 6//3 3//3
f 1//3 4//3 9//3
f 5//2 7//2 1//2
f 1//3 9//3 5//3
f 10//3 6//3 1//3
f 1//3 8//3 10//3
f 12//4 11//4 10//4
f 10//5 11//5 14//5
f 10//5 14//5 6//5
f 13//4 12//4 10//4
f 13//3 10//3 8//3
f 2//6 15//6 14//6
f 11//6 2//6 14//6
f 3//7 6//7 14//7
f 3//7 14//7 15//7
f 3//8 15//8 16//8
f 16//6 15//6 18//6
f 2//6 17//6 15//6
f 15//6 17//6 18//6
f 17//9 19//9 18//9
f 18//10 19//10 21//10
f 16//6 18//6 20//6
f 18//10 21//10 20//10
f 22//3 21//3 19//3
f 23//3 21//3 22//3
f 21//11 23//11 20//11
f 22//12 24//12 23//12
f 23//11 24//11 20//11
f 22//13 16//13 24//13
f 24//6 16//6 20//6
f 3//8 16//8 22//8
f 22//3 19//3 3//3
f 3//3 19//3 4//3
f 17//9 4//9 19//9
f 26//6 25//6 17//6
f 4//14 17//14 25//14
f 2//6 26//6 17//6
f 7//6 26//6 2//6
f 27//15 9//15 26//15
f 28//15 27//15 26//15
f 30//6 28//6 26//6
f 7//6 29//6 26//6
f 30//6 26//6 29//6
f 26//16 9//16 25//16
f 33//17 28//17 30//17
f 32//6 30//6 29//6
f 32//6 31//6 30//6
f 33//18 30//18 31//18
f 33//3 34//3 9//3
f 36//3 34//3 33//3
f 36//3 33//3 35//3
f 35//19 33//19 31//19
f 33//3 9//3 27//3
f 33//17 27//17 28//17
f 31//20 32//20 36//20
f 32//21 34//21 36//21
f 31//20 36//20 35//20
f 32//21 29//21 34//21
f 37//22 34//22 29//22
f 38//3 34//3 37//3
f 5//3 9//3 34//3
f 38//3 5//3 34//3
f 41//23 39//23 38//23
f 38//24 39//24 42//24
f 41//25 38//25 40//25
f 40//26 38//26 37//26
f 5//27 38//27 42//27
f 44//28 42//28 43//28
f 42//24 39//24 43//24
f 44//29 46//29 42//29
f 46//30 45//30 42//30
f 42//6 45//6 29//6
f 5//27 42//27 7//27
f 42//6 29//6 7//6
f 46//31 44//31 41//31
f 40//31 46//31 41//31
f 47//32 46//32 40//32
f 47//33 45//33 46//33
f 48//34 45//34 47//34
f 48//35 47//35 49//35
f 49//32 47//32 40//32
f 49//36 40//36 37//36
f 49//37 37//37 50//37
f 51//37 49//37 50//37
f 51//38 48//38 49//38
f 51//39 52//39 48//39
f 53//40 51//40 50//40
f 51//39 53//39 52//39
f 54//3 53//3 56//3
f 53//41 54//41 55//41
f 53//41 55//41 52//41
f 53//42 50//42 56//42
f 56//43 50//43 57//43
f 57//44 58//44 56//44
f 58//44 60//44 56//44
f 59//3 54//3 56//3
f 59//45 56//45 60//45
f 60//46 58//46 61//46
f 52//47 60//47 61//47
f 55//6 60//6 52//6
f 59//45 60//45 62//45
f 62//6 60//6 55//6
f 65//48 62//48 55//48
f 65//49 63//49 62//49
f 63//50 64//50 62//50
f 64//50 59//50 62//50
f 66//51 65//51 69//51
f 67//6 65//6 66//6
f 67//6 70//6 65//6
f 65//52 58//52 63//52
f 65//53 61//53 58//53
f 68//54 50//54 65//54
f 68//55 65//55 70//55
f 50//54 61//54 65//54
f 65//56 55//56 69//56
f 72//55 68//55 70//55
f 70//57 67//57 71//57
f 70//57 71//57 72//57
f 71//3 68//3 72//3
f 71//3 73//3 68//3
f 67//58 73//58 71//58
f 76//59 73//59 66//59
f 67//58 66//58 73//58
f 73//60 74//60 75//60
f 78//60 74//60 73//60
f 73//61 75//61 77//61
f 79//3 73//3 76//3
f 73//60 77//60 68//60
f 79//3 78//3 73//3
f 79//3 81//3 80//3
f 79//3 80//3 78//3
f 79//3 84//3 81//3
f 79//3 76//3 82//3
f 82//62 83//62 79//62
f 79//63 83//63 84//63
f 84//64 85//64 87//64
f 83//63 85//63 84//63
f 84//3 86//3 81//3
f 86//64 84//64 87//64
f 87//6 91//6 88//6
f 87//6 88//6 94//6
f 87//6 95//6 89//6
f 87//6 89//6 92//6
f 90//6 87//6 94//6
f 86//65 87//65 90//65
f 87//6 92//6 91//6
f 93//6 95//6 87//6
f 85//6 93//6 87//6
f 89//66 95//66 96//66
f 97//67 96//67 95//67
f 93//6 97//6 95//6
f 98//68 80//68 97//68
f 83//6 98//6 97//6
f 83//6 97//6 93//6
f 97//67 80//67 96//67
f 78//69 98//69 101//69
f 98//68 78//68 80//68
f 98//70 99//70 100//70
f 98//71 66//71 99//71
f 83//6 66//6 98//6
f 98//72 100//72 102//72
f 98//73 102//73 101//73
f 101//73 102//73 103//73
f 102//74 104//74 103//74
f 105//75 104//75 102//75
f 100//75 105//75 102//75
f 78//76 104//76 105//76
f 78//77 105//77 74//77
f 74//78 105//78 100//78
f 78//79 106//79 104//79
f 104//80 107//80 103//80
f 106//79 107//79 104//79
f 107//81 108//81 103//81
f 107//82 109//82 108//82
f 106//83 109//83 107//83
f 110//84 112//84 109//84
f 106//85 110//85 109//85
f 109//86 111//86 108//86
f 109//86 112//86 111//86
f 112//87 113//87 111//87
f 112//87 114//87 113//87
f 110//88 114//88 112//88
f 114//89 115//89 113//89
f 114//89 116//89 115//89
f 110//90 13//90 114//90
f 114//91 13//91 116//91
f 44//92 115//92 116//92
f 116//93 13//93 41//93
f 41//94 44//94 116//94
f 113//95 115//95 12//95
f 115//96 44//96 12//96
f 117//97 111//97 113//97
f 117//98 113//98 12//98
f 101//99 108//99 117//99
f 101//6 117//6 92//6
f 117//100 110//100 118//100
f 117//100 118//100 92//100
f 13//101 117//101 12//101
f 117//102 108//102 111//102
f 13//101 110//101 117//101
f 106//3 118//3 110//3
f 92//103 118//103 119//103
f 86//3 119//3 118//3
f 120//3 118//3 106//3
f 86//3 118//3 120//3
f 106//104 101//104 120//104
f 86//3 120//3 96//3
f 120//66 89//66 96//66
f 101//104 89//104 120//104
f 92//103 119//103 91//103
f 121//3 122//3 119//3
f 86//3 121//3 119//3
f 91//105 119//105 122//105
f 122//106 121//106 88//106
f 122//107 88//107 123//107
f 91//105 122//105 123//105
f 88//6 91//6 123//6
f 86//3 124//3 121//3
f 88//108 121//108 124//108
f 88//108 124//108 94//108
f 125//3 124//3 86//3
f 94//109 124//109 126//109
f 125//3 126//3 124//3
f 127//3 126//3 125//3
f 126//110 127//110 128//110
f 94//109 126//109 128//109
f 90//6 94//6 128//6
f 129//6 90//6 128//6
f 127//110 129//110 128//110
f 125//111 90//111 129//111
f 127//112 125//112 129//112
f 86//65 90//65 125//65
f 101//113 103//113 108//113
f 78//114 101//114 106//114
f 89//6 101//6 92//6
f 99//78 74//78 100//78
f 66//71 130//71 99//71
f 130//115 75//115 99//115
f 75//115 74//115 99//115
f 66//116 69//116 130//116
f 77//117 130//117 69//117
f 77//117 75//117 130//117
f 81//3 96//3 80//3
f 81//3 86//3 96//3
f 83//6 93//6 85//6
f 83//6 131//6 66//6
f 83//6 132//6 131//6
f 82//62 132//62 83//62
f 82//118 133//118 132//118
f 132//6 133//6 134//6
f 132//6 134//6 131//6
f 136//119 135//119 134//119
f 135//120 131//120 134//120
f 133//119 136//119 134//119
f 82//3 135//3 136//3
f 82//121 136//121 133//121
f 82//3 76//3 135//3
f 135//122 76//122 131//122
f 76//59 66//59 131//59
f 68//123 77//123 54//123
f 54//124 77//124 69//124
f 54//125 69//125 55//125
f 68//126 54//126 59//126
f 68//127 59//127 64//127
f 68//128 57//128 50//128
f 68//129 64//129 57//129
f 57//101 64//101 63//101
f 57//101 63//101 58//101
f 52//130 61//130 48//130
f 50//131 138//131 61//131
f 61//6 138//6 137//6
f 61//6 137//6 45//6
f 48//34 61//34 45//34
f 50//132 139//132 138//132
f 138//133 139//133 137//133
f 139//133 140//133 137//133
f 50//3 140//3 139//3
f 140//134 37//134 45//134
f 137//134 140//134 45//134
f 50//3 37//3 140//3
f 37//22 29//22 45//22
f 44//135 43//135 12//135
f 12//6 43//6 141//6
f 43//136 8//136 141//136
f 39//136 8//136 43//136
f 11//6 141//6 2//6
f 12//6 141//6 11//6
f 8//1 2//1 141//1
f 41//137 13//137 39//137
f 13//3 8//3 39//3
f 9//16 142//16 25//16
f 142//14 4//14 25//14
f 9//3 4//3 142//3
