# Blender 5.0.1
# www.blender.org
mtllib right_shoulder_z_link_visual_3.mtl
o i01.rightArm.rotate.full.004_visual.001
v -0.035290 -0.202282 0.567869
v 0.035256 -0.195115 0.566254
v -0.035290 -0.195117 0.566253
v 0.035256 -0.202280 0.567871
v -0.035290 -0.231409 0.607864
v -0.035290 -0.209624 0.568056
v -0.035288 -0.275646 0.597070
v -0.035288 -0.235251 0.555188
v -0.035289 -0.216862 0.566808
v -0.035289 -0.223717 0.564171
v 0.035258 -0.275644 0.597072
v 0.035262 -0.375669 0.555721
v -0.035289 -0.229927 0.560247
v 0.035256 -0.231406 0.607867
v -0.035284 -0.375671 0.555719
v -0.035287 -0.244086 0.535310
v -0.035278 -0.483776 0.476832
v -0.035288 -0.242469 0.542476
v -0.035288 -0.239486 0.549187
v -0.035287 -0.243024 0.520729
v -0.035287 -0.244273 0.527967
v 0.035259 -0.244083 0.535312
v 0.035259 -0.244271 0.527969
v 0.035259 -0.243022 0.520731
v 0.035268 -0.483773 0.476834
v -0.035287 -0.240388 0.513875
v 0.035259 -0.240386 0.513876
v 0.035259 -0.236462 0.507667
v -0.035287 -0.236464 0.507665
v -0.035287 -0.231405 0.502341
v 0.035259 -0.231402 0.502343
v -0.035287 -0.225404 0.498106
v -0.035287 -0.218692 0.495123
v 0.035259 -0.225402 0.498107
v 0.035259 -0.218689 0.495124
v 0.035259 -0.211525 0.493508
v 0.035242 -0.360188 0.358613
v -0.035287 -0.211527 0.493506
v 0.035261 -0.224234 0.406170
v 0.035242 -0.351644 0.356902
v 0.035242 -0.344405 0.352051
v 0.018700 -0.360188 0.358613
v 0.018700 -0.351645 0.356901
v 0.018709 -0.341344 0.386555
v 0.018700 -0.344406 0.352051
v 0.018708 -0.323634 0.374687
v 0.018708 -0.311815 0.356946
v 0.006136 -0.341344 0.386555
v 0.006136 -0.323635 0.374687
v 0.006136 -0.337948 0.394722
v 0.006136 -0.317372 0.380933
v 0.006136 -0.311815 0.356946
v 0.006135 -0.303638 0.360320
v 0.018709 -0.308749 0.344534
v 0.006136 -0.308749 0.344534
v 0.018708 -0.300568 0.340273
v 0.006136 -0.300229 0.340272
v 0.006136 -0.298839 0.336020
v -0.035216 -0.303640 0.360318
v 0.006137 -0.303704 0.311732
v 0.018708 -0.299517 0.336021
v -0.035216 -0.298840 0.336019
v 0.006136 -0.300241 0.331771
v 0.006136 -0.308772 0.327533
v 0.018709 -0.300579 0.331773
v 0.018709 -0.308772 0.327533
v 0.018700 -0.337886 0.336249
v 0.018700 -0.339597 0.327706
v 0.018709 -0.311871 0.315130
v 0.018710 -0.323739 0.297421
v 0.006137 -0.311872 0.315129
v 0.018700 -0.344448 0.320467
v 0.018701 -0.351700 0.315637
v 0.035242 -0.344448 0.320467
v 0.035243 -0.351700 0.315637
v 0.035267 -0.266753 0.207045
v 0.035243 -0.360248 0.313948
v 0.035275 -0.400190 0.078681
v 0.035243 -0.368792 0.315660
v 0.018701 -0.360249 0.313948
v 0.018712 -0.362394 0.281469
v 0.018701 -0.368793 0.315660
v 0.018701 -0.376032 0.320510
v 0.035243 -0.376031 0.320510
v 0.018713 -0.383297 0.285658
v 0.006139 -0.362395 0.281469
v 0.006140 -0.383297 0.285656
v 0.018713 -0.401006 0.297524
v 0.006140 -0.401007 0.297524
v 0.018701 -0.380863 0.327762
v 0.018713 -0.412826 0.315266
v 0.018701 -0.382551 0.336310
v 0.006140 -0.412826 0.315266
v 0.018712 -0.416956 0.336179
v 0.006140 -0.416957 0.336179
v 0.018712 -0.412769 0.357082
v 0.018701 -0.380839 0.344854
v 0.018711 -0.400902 0.374791
v 0.006139 -0.412769 0.357082
v 0.006138 -0.400902 0.374791
v 0.006139 -0.420937 0.360477
v 0.006140 -0.425802 0.336191
v -0.035211 -0.421004 0.311891
v 0.006141 -0.421003 0.311892
v -0.035212 -0.425804 0.336190
v -0.035212 -0.432720 0.336220
v -0.035212 -0.433394 0.339633
v -0.035212 -0.435323 0.342526
v -0.035211 -0.433403 0.332808
v -0.035211 -0.435340 0.329919
v -0.035213 -0.420939 0.360477
v -0.035212 -0.441623 0.345147
v -0.035212 -0.438212 0.344463
v -0.035214 -0.407150 0.381054
v 0.006139 -0.407148 0.381055
v -0.035211 -0.445036 0.344472
v 0.027007 -0.445034 0.344475
v 0.027006 -0.441621 0.345148
v -0.035211 -0.447931 0.342544
v -0.035211 -0.449867 0.339654
v 0.027007 -0.447929 0.342546
v 0.027007 -0.449865 0.339656
v 0.027007 -0.450549 0.336246
v -0.035211 -0.450551 0.336243
v -0.035211 -0.449876 0.332830
v 0.027007 -0.449875 0.332832
v -0.035211 -0.447948 0.329936
v -0.035271 -0.400192 0.078679
v -0.035211 -0.407271 0.291276
v -0.035212 -0.386695 0.277488
v 0.035274 -0.359342 0.062353
v -0.035272 -0.359345 0.062350
v -0.035268 -0.430650 -0.012502
v -0.035259 -0.504801 -0.290145
v -0.035264 -0.369430 -0.261989
v -0.035267 -0.282863 -0.262082
v -0.035269 -0.389211 -0.026921
v 0.035278 -0.430648 -0.012501
v 0.035282 -0.369428 -0.261988
v 0.035277 -0.389208 -0.026918
v 0.035279 -0.282860 -0.262081
v 0.035287 -0.504799 -0.290144
v 0.035289 -0.507709 -0.331617
v 0.035283 -0.370723 -0.303464
v -0.035263 -0.370725 -0.303466
v 0.035290 -0.479144 -0.432523
v 0.035280 -0.282541 -0.303559
v -0.035266 -0.282543 -0.303560
v -0.035266 -0.232855 -0.348443
v -0.035259 -0.370302 -0.451432
v -0.035256 -0.479148 -0.432525
v -0.035258 -0.507711 -0.331620
v -0.035256 -0.469534 -0.457690
v -0.035255 -0.476218 -0.495015
v -0.035254 -0.510617 -0.476308
v 0.035290 -0.469530 -0.457689
v 0.035291 -0.476214 -0.495014
v 0.035292 -0.510614 -0.476305
v 0.035287 -0.370299 -0.451429
v -0.035258 -0.389053 -0.472260
v -0.035257 -0.395524 -0.508737
v -0.035259 -0.341649 -0.514345
v 0.035287 -0.341646 -0.514344
v 0.035280 -0.232853 -0.348440
v 0.035289 -0.395521 -0.508736
v 0.035288 -0.389050 -0.472259
v 0.035279 -0.212335 -0.339689
v 0.035277 -0.186283 -0.303677
v 0.035276 -0.152566 -0.317397
v 0.035278 -0.213870 -0.312148
v -0.035270 -0.152568 -0.317398
v -0.035267 -0.212337 -0.339690
v -0.035268 -0.213872 -0.312150
v -0.035269 -0.227709 -0.267397
v 0.035278 -0.227707 -0.267395
v -0.035270 -0.200414 -0.258971
v -0.035270 -0.198773 -0.244110
v -0.035269 -0.186285 -0.303679
v 0.035277 -0.200412 -0.258970
v 0.035276 -0.198770 -0.244107
v -0.035276 -0.177750 -0.017459
v 0.035268 0.076115 -0.287089
v -0.035278 0.076112 -0.287092
v -0.035283 0.209810 -0.255842
v 0.035263 0.273738 -0.352695
v -0.035283 0.273735 -0.352697
v 0.035263 0.303944 -0.393609
v -0.035283 0.303942 -0.393611
v -0.035286 0.340946 -0.311206
v -0.035287 0.333809 -0.242784
v -0.035286 0.333489 -0.289639
v -0.035290 0.389988 -0.204825
v -0.035285 0.305288 -0.289502
v 0.035261 0.305290 -0.289500
v -0.035287 0.305352 -0.242612
v 0.035259 0.305354 -0.242610
v 0.035262 0.154017 -0.157005
v 0.035263 0.209813 -0.255841
v 0.035258 0.333812 -0.242783
v 0.035256 0.389991 -0.204823
v 0.018102 0.389990 -0.204823
v 0.035260 0.340792 -0.338862
v 0.035260 0.407711 -0.407745
v 0.015824 0.154016 -0.157007
v 0.035255 0.506813 -0.347593
v -0.035288 0.507290 -0.442323
v 0.035258 0.507293 -0.442322
v 0.035261 0.407538 -0.446859
v -0.035291 0.506811 -0.347595
v -0.019016 0.389989 -0.204825
v -0.035284 0.154015 -0.157008
v -0.001698 0.154016 -0.157007
v 0.035270 -0.177748 -0.017458
v 0.035269 -0.199411 0.037765
v -0.035279 -0.266755 0.207044
v -0.035277 -0.199413 0.037764
v -0.035216 -0.279382 0.329708
v -0.035216 -0.282277 0.327780
v -0.035214 -0.317494 0.291155
v -0.035215 -0.303706 0.311732
v -0.035212 -0.362408 0.272623
v -0.035213 -0.338108 0.277423
v -0.035217 -0.277445 0.332598
v -0.035285 -0.224236 0.406169
v -0.035217 -0.279365 0.342316
v -0.035216 -0.317373 0.380933
v -0.035285 -0.217924 0.415017
v -0.035217 -0.277436 0.339420
v -0.035217 -0.276762 0.336009
v -0.035217 -0.282255 0.344253
v -0.035216 -0.337949 0.394721
v -0.035215 -0.362236 0.399587
v -0.035215 -0.386536 0.394786
v 0.006137 -0.362235 0.399588
v 0.006137 -0.386535 0.394788
v 0.006137 -0.362247 0.390741
v 0.006137 -0.383161 0.386611
v 0.018709 -0.362247 0.390741
v 0.018700 -0.368737 0.356924
v 0.018710 -0.383160 0.386611
v 0.018701 -0.375989 0.352094
v 0.035242 -0.368737 0.356924
v 0.035243 -0.375988 0.352094
v 0.035243 -0.380839 0.344854
v 0.035243 -0.382550 0.336311
v 0.035243 -0.380862 0.327763
v -0.035217 -0.285665 0.344935
v 0.027027 -0.279363 0.342317
v 0.027027 -0.282253 0.344254
v 0.027027 -0.285663 0.344937
v 0.027028 -0.285687 0.327106
v 0.027028 -0.293908 0.339444
v 0.027028 -0.291971 0.342335
v 0.027027 -0.289076 0.344264
v -0.035216 -0.293910 0.339443
v -0.035216 -0.294593 0.336032
v 0.027028 -0.293917 0.332622
v 0.027028 -0.294591 0.336035
v -0.035216 -0.293919 0.332620
v -0.035216 -0.291990 0.329725
v -0.035216 -0.289100 0.327788
v 0.027028 -0.291988 0.329726
v 0.027028 -0.289098 0.327789
v -0.035216 -0.285689 0.327106
v -0.035216 -0.291973 0.342333
v -0.035216 -0.289078 0.344261
v 0.027028 -0.279380 0.329709
v 0.027028 -0.282275 0.327781
v 0.027027 -0.277434 0.339423
v 0.027027 -0.276760 0.336010
v 0.027027 -0.277443 0.332599
v 0.035261 -0.217922 0.415019
v -0.035286 -0.211841 0.418473
v -0.035286 -0.201716 0.420142
v 0.035260 -0.211839 0.418475
v -0.035288 -0.204184 0.493319
v 0.035258 -0.204182 0.493321
v -0.035288 -0.196947 0.494568
v 0.035258 -0.196944 0.494569
v -0.035287 -0.191315 0.424852
v -0.035288 -0.190091 0.497204
v -0.035287 -0.170017 0.435587
v -0.035289 -0.183882 0.501129
v 0.035258 -0.190089 0.497207
v 0.035260 -0.201714 0.420143
v 0.035257 -0.183880 0.501130
v 0.035259 -0.191313 0.424854
v 0.035259 -0.170015 0.435589
v 0.035256 -0.138980 0.479457
v 0.035257 -0.178555 0.506189
v -0.035289 -0.178558 0.506186
v 0.035257 -0.174320 0.512191
v -0.035289 -0.174322 0.512188
v -0.035290 -0.138982 0.479455
v -0.035290 -0.171339 0.518900
v -0.035291 -0.130957 0.542176
v -0.035290 -0.169723 0.526066
v 0.035255 -0.130954 0.542177
v -0.035292 -0.150638 0.588555
v -0.035290 -0.170785 0.540646
v -0.035290 -0.169536 0.533408
v 0.035256 -0.169533 0.533410
v 0.035256 -0.169721 0.526067
v 0.035257 -0.171337 0.518902
v 0.035256 -0.170782 0.540648
v -0.035290 -0.173421 0.547501
v 0.035256 -0.173419 0.547503
v 0.035254 -0.150636 0.588557
v 0.035255 -0.187179 0.607263
v -0.035291 -0.187182 0.607262
v -0.035290 -0.177345 0.553710
v -0.035290 -0.182404 0.559035
v -0.035290 -0.188405 0.563271
v 0.035256 -0.188403 0.563272
v 0.035256 -0.182402 0.559036
v 0.035256 -0.177342 0.553712
v 0.006139 -0.338106 0.277424
v 0.006140 -0.362407 0.272623
v 0.006140 -0.386693 0.277489
v 0.006141 -0.407270 0.291278
v 0.006137 -0.317493 0.291157
v 0.006139 -0.341481 0.285601
v 0.006138 -0.323739 0.297421
v 0.018711 -0.341480 0.285601
v -0.035286 0.407704 -0.407813
v -0.035285 0.407543 -0.447057
v -0.035285 0.479242 -0.546118
v -0.035282 0.333453 -0.446013
v -0.035281 0.354174 -0.526962
v -0.035278 0.301224 -0.588491
v -0.035281 0.365715 -0.552171
v 0.035265 0.365720 -0.552171
v -0.035282 0.305089 -0.432844
v 0.035265 0.354178 -0.526960
v 0.035264 0.305091 -0.432843
v 0.035261 0.479246 -0.546116
v 0.035263 0.333436 -0.446429
v 0.035268 0.301226 -0.588490
v 0.035266 0.358851 -0.589514
v -0.035280 0.358846 -0.589514
v 0.035262 0.334072 -0.405663
v -0.035283 0.334139 -0.405990
v 0.035263 0.304859 -0.413227
v 0.035262 0.510617 -0.607867
v 0.035262 0.458207 -0.566923
v -0.035284 0.458204 -0.566925
v -0.035282 0.451561 -0.603421
v -0.035284 0.510614 -0.607868
v 0.035263 0.451563 -0.603418
v 0.035260 0.333409 -0.289424
v -0.035211 -0.445058 0.327999
v 0.027007 -0.445056 0.328000
v 0.027007 -0.447946 0.329937
v -0.035211 -0.441647 0.327316
v 0.027007 -0.441645 0.327317
v -0.035211 -0.438235 0.327991
v 0.027007 -0.438232 0.327991
v 0.027007 -0.435338 0.329920
v 0.027006 -0.433401 0.332809
v 0.027006 -0.435321 0.342528
v 0.027006 -0.432718 0.336221
v 0.027006 -0.433392 0.339634
v 0.027006 -0.438210 0.344465
v 0.035242 -0.339597 0.327706
v 0.035242 -0.337885 0.336251
v 0.018700 -0.339575 0.344798
v 0.035242 -0.339574 0.344800
v 0.035258 -0.242467 0.542477
v 0.035258 -0.239484 0.549189
v 0.035258 -0.235249 0.555190
v 0.035258 -0.229924 0.560249
v 0.035257 -0.223715 0.564173
v 0.035257 -0.216860 0.566809
v 0.035257 -0.209622 0.568058
vn -0.0000 -0.2202 -0.9755
vn -0.0000 -0.2201 -0.9755
vn -1.0000 -0.0000 -0.0000
vn -0.0000 -0.0254 -0.9997
vn -0.0000 -0.2371 0.9715
vn -0.0000 -0.3820 0.9241
vn -0.0000 -0.5895 0.8078
vn -0.0000 0.9997 -0.0255
vn -0.0000 0.9854 0.1700
vn 1.0000 -0.0000 -0.0000
vn -0.0000 0.9333 0.3590
vn -0.0000 0.8454 0.5342
vn -0.0000 0.8454 0.5341
vn -0.0000 0.7248 0.6889
vn -0.0000 0.7249 0.6889
vn -0.0000 0.5766 0.8170
vn -0.0000 0.4061 0.9138
vn -0.0000 0.5767 0.8169
vn -0.0000 0.2200 0.9755
vn 1.0000 -0.0000 -0.0001
vn 1.0000 -0.0000 -0.0002
vn -0.0000 0.2201 0.9755
vn 1.0000 -0.0002 -0.0000
vn -0.0000 -0.1964 -0.9805
vn 1.0000 -0.0001 -0.0001
vn 0.0001 -0.5567 -0.8307
vn 0.0001 -0.1965 -0.9805
vn -1.0000 -0.0000 0.0003
vn -1.0000 0.0001 0.0003
vn -1.0000 0.0001 0.0002
vn -0.0000 -0.5566 -0.8308
vn -1.0000 0.0002 0.0002
vn -0.0000 -0.8322 -0.5544
vn -0.0000 -0.5567 -0.8307
vn -0.0000 -0.9708 -0.2398
vn -0.0000 -0.4619 -0.8869
vn -0.0120 -0.4473 -0.8943
vn -0.0256 -0.9502 -0.3106
vn -1.0000 0.0001 -0.0000
vn -0.0000 -0.9811 -0.1938
vn -0.0000 -0.9810 -0.1938
vn -0.0000 -0.9805 0.1964
vn -1.0000 -0.0002 -0.0000
vn -0.0522 -0.9695 -0.2396
vn -0.0512 -0.9484 0.3129
vn -0.0121 -0.4449 0.8955
vn -0.0262 -0.9698 0.2425
vn -0.0000 -0.4596 0.8881
vn -1.0000 0.0003 -0.0000
vn -1.0000 0.0003 -0.0001
vn -0.0000 -0.9702 0.2425
vn -1.0000 0.0002 -0.0002
vn -0.0000 -0.8307 0.5567
vn -0.0000 -0.9702 0.2424
vn -1.0000 0.0002 -0.0003
vn -0.0000 -0.5544 0.8323
vn 1.0000 -0.0000 0.0002
vn 1.0000 -0.0001 0.0002
vn -0.0000 -0.1938 0.9810
vn 1.0000 0.0001 0.0001
vn -0.0000 0.1966 0.9805
vn -1.0000 -0.0001 -0.0003
vn -1.0000 -0.0000 -0.0003
vn -0.0001 0.1965 0.9805
vn -1.0000 -0.0002 -0.0003
vn -0.0000 0.5566 0.8308
vn -0.0001 0.5566 0.8308
vn -0.0000 0.1965 0.9805
vn -0.0002 0.1964 0.9805
vn -0.0001 0.5567 0.8307
vn -0.0000 0.5567 0.8307
vn -0.0000 0.8322 0.5544
vn -1.0000 -0.0003 -0.0002
vn -1.0000 -0.0003 -0.0001
vn -0.0000 0.9810 0.1938
vn -1.0000 -0.0003 -0.0000
vn -0.0000 0.9805 -0.1964
vn -1.0000 -0.0003 0.0001
vn -0.0000 0.8307 -0.5567
vn -1.0000 -0.0001 -0.0000
vn -1.0000 -0.0001 0.0001
vn -0.0000 0.1936 -0.9811
vn -0.0000 0.5544 -0.8323
vn -1.0000 0.0002 -0.0004
vn -1.0000 0.0003 -0.0004
vn -0.0000 0.1941 -0.9810
vn -1.0000 0.0005 -0.0004
vn -0.0000 0.5546 -0.8322
vn -0.0000 0.9805 -0.1965
vn -1.0000 0.0010 -0.0002
vn -0.9999 0.0106 0.0020
vn -0.0000 0.9811 0.1937
vn -0.0000 0.8322 0.5545
vn -1.0000 0.0005 0.0003
vn -0.9998 0.0177 0.0037
vn -1.0000 0.0003 0.0003
vn -1.0000 0.0002 0.0003
vn -0.0000 -0.3712 -0.9286
vn -0.0000 0.9485 -0.3168
vn -0.0000 0.3286 0.9445
vn -0.0000 -0.9996 0.0274
vn -0.0000 -0.9975 0.0700
vn -0.0000 0.9995 -0.0312
vn -0.0000 0.0011 1.0000
vn -0.0000 -1.0000 -0.0077
vn -0.0001 0.9342 0.3569
vn -0.0000 -0.1711 -0.9852
vn -0.0001 0.9843 -0.1763
vn -0.0000 -0.4778 -0.8785
vn 0.0001 -0.4778 -0.8785
vn -0.0000 -0.9998 0.0201
vn -0.0000 -0.7432 0.6691
vn -0.0000 0.8362 -0.5484
vn -0.0000 -0.1035 -0.9946
vn -0.0000 -0.9846 0.1747
vn -0.0000 0.3923 -0.9198
vn -0.0000 0.3495 -0.9370
vn -0.0000 0.3924 -0.9198
vn -0.0000 0.2950 -0.9555
vn -0.0000 0.9554 0.2954
vn -0.0000 -0.9535 -0.3013
vn -0.0000 -0.2935 0.9560
vn -0.0000 -0.2936 0.9559
vn -0.0000 0.2949 -0.9555
vn -0.0000 0.1314 -0.9913
vn -0.0000 -0.3151 -0.9491
vn 0.0001 -0.8045 -0.5939
vn -0.0000 -0.8045 -0.5940
vn -0.0000 0.0048 1.0000
vn -0.0000 1.0000 -0.0014
vn -0.0000 -0.0060 -1.0000
vn -0.0000 -0.0061 -1.0000
vn -0.0001 0.1986 0.9801
vn -0.0001 0.7739 0.6333
vn -0.0000 1.0000 0.0051
vn -0.0000 0.7739 0.6333
vn -0.0000 0.1986 0.9801
vn -0.0000 0.3877 0.9218
vn -0.0000 0.9309 0.3652
vn -0.0001 0.3877 0.9218
vn -0.0000 0.9292 0.3696
vn -0.0000 0.9780 -0.2088
vn -1.0000 -0.0004 0.0005
vn -1.0000 -0.0008 0.0004
vn -1.0000 -0.0005 0.0003
vn -1.0000 -0.0006 0.0004
vn -1.0000 -0.0002 0.0007
vn -1.0000 -0.0018 0.0003
vn -1.0000 -0.0005 -0.0007
vn -1.0000 -0.0007 -0.0005
vn -1.0000 -0.0005 -0.0006
vn -1.0000 -0.0006 -0.0004
vn -1.0000 -0.0005 -0.0008
vn -0.0000 0.8141 -0.5808
vn -1.0000 -0.0010 -0.0002
vn -1.0000 -0.0017 0.0003
vn -1.0000 -0.0006 -0.0000
vn -1.0000 -0.0003 -0.0013
vn -1.0000 -0.0000 -0.0007
vn -1.0000 0.0001 -0.0007
vn -0.0000 0.1938 -0.9810
vn -0.0000 0.1937 -0.9811
vn -1.0000 -0.0001 0.0003
vn -0.0000 0.1938 -0.9811
vn -0.0000 0.5545 -0.8322
vn -1.0000 -0.0002 0.0002
vn -0.0000 0.8307 -0.5566
vn -0.0000 0.8308 -0.5566
vn 1.0000 0.0002 -0.0001
vn 1.0000 0.0001 -0.0001
vn 1.0000 0.0002 -0.0000
vn 1.0000 0.0004 0.0001
vn -0.0000 0.8323 0.5544
vn -0.0001 0.8322 0.5544
vn 1.0000 0.0001 -0.0002
vn -0.0000 0.5544 -0.8322
vn -1.0000 0.0003 -0.0005
vn -0.0000 -0.5568 -0.8307
vn -0.0000 -0.1963 -0.9805
vn -0.0000 -0.1966 -0.9805
vn -1.0000 -0.0000 -0.0001
vn -0.0000 0.5568 0.8307
vn -0.0000 0.1963 0.9805
vn -0.0000 0.5546 -0.8321
vn 0.0001 -0.8322 -0.5544
vn -0.0000 -0.8321 -0.5547
vn -0.0000 -0.9810 -0.1939
vn -1.0000 0.0001 -0.0001
vn -0.0000 0.8141 -0.5807
vn -0.0000 0.4940 -0.8695
vn -0.0000 0.1626 -0.9867
vn -0.0000 0.4940 -0.8694
vn -0.0000 0.0256 0.9997
vn -0.0000 0.0254 0.9997
vn -0.0000 -0.1701 0.9854
vn -0.0000 -0.1698 0.9855
vn -0.0000 -0.3589 0.9334
vn -0.0000 -0.5344 0.8453
vn -0.0000 -0.3591 0.9333
vn -0.0000 -0.5342 0.8454
vn -0.0000 0.4501 -0.8930
vn -0.0000 0.4126 -0.9109
vn -0.0000 0.8164 -0.5775
vn -0.0000 -0.6888 0.7249
vn -0.0000 -0.8170 0.5766
vn -0.0000 -0.9138 0.4061
vn -0.0000 0.9919 -0.1269
vn -0.0000 0.9205 0.3906
vn -0.0000 -0.9997 0.0255
vn -0.0000 -0.9854 -0.1701
vn -0.0000 -0.9755 0.2201
vn -0.0000 -0.9138 0.4062
vn -0.0000 -0.9854 -0.1700
vn -0.0000 -0.9333 -0.3590
vn -0.0000 0.4557 0.8902
vn -0.0000 0.4556 0.8902
vn -0.0000 0.0136 0.9999
vn -0.0000 -0.4060 -0.9139
vn -0.0000 -0.5766 -0.8170
vn 1.0000 0.0001 -0.0000
vn -0.0000 -0.7249 -0.6888
vn -0.0000 -0.8454 -0.5342
vn -0.0000 -0.7250 -0.6888
vn -0.0000 0.0137 0.9999
vn -0.0000 -0.6887 0.7250
vn -0.0000 0.4125 -0.9109
vn -0.0000 0.1625 -0.9867
vn -0.0000 -0.8322 -0.5545
vn -0.0000 -0.5544 0.8322
vn -0.0000 0.1964 0.9805
vn -0.0000 -0.5545 0.8322
vn -1.0000 0.0001 -0.0003
vn -0.0001 -1.0000 0.0041
vn -0.0028 0.0141 0.9999
vn -0.0001 0.9092 0.4163
vn -0.0000 -0.1514 -0.9885
vn -0.0000 -0.0178 -0.9998
vn -0.0000 -0.9997 0.0248
vn -0.0001 0.9835 -0.1809
vn -0.0000 -0.0177 -0.9998
vn 0.0001 0.9999 -0.0156
vn 0.0059 0.0058 1.0000
vn 0.0046 -0.0283 -0.9996
vn 0.0010 0.9999 -0.0172
vn -0.0000 -0.9989 -0.0466
vn 0.0049 -0.9996 -0.0292
vn -0.0000 -0.9999 -0.0118
vn 0.0010 -0.0248 -0.9997
vn -0.0000 -0.7032 0.7110
vn -0.0000 -0.9838 0.1791
vn -0.0000 -0.0751 -0.9972
vn -0.0000 0.9998 0.0201
vn 0.0001 -1.0000 0.0044
vn -0.0030 -0.0027 1.0000
vn -0.0012 -1.0000 0.0068
vn -0.0000 -1.0000 0.0086
vn -0.0000 -0.0011 -1.0000
vn -0.0000 -0.9483 0.3173
vn -1.0000 -0.0003 -0.0003
vn -0.0000 -0.9805 0.1965
vn -0.0000 -0.8321 -0.5546
vn -1.0000 -0.0001 -0.0001
vn 1.0000 -0.0002 0.0001
vn 1.0000 -0.0001 0.0001
vn 0.0001 -0.9810 -0.1938
vn 0.0001 -0.8323 -0.5544
vn -1.0000 0.0003 0.0001
vn -0.0000 0.9755 -0.2201
vn -0.0000 0.9755 -0.2200
vn -0.0000 0.9138 -0.4061
vn -0.0000 0.9138 -0.4062
vn -0.0000 0.8170 -0.5766
vn -0.0000 0.6888 -0.7249
vn -0.0000 0.5342 -0.8454
vn -0.0000 0.3589 -0.9334
vn -0.0000 0.1701 -0.9854
vn -0.0000 0.3590 -0.9333
vn -0.0000 0.1700 -0.9855
s 0
usemtl [Chris_Shoe_Sole]1
f 1//1 2//1 4//1
f 1//2 3//2 2//2
f 5//3 3//3 1//3
f 1//4 4//4 6//4
f 7//3 5//3 1//3
f 1//3 6//3 7//3
f 7//3 13//3 8//3
f 15//3 7//3 8//3
f 7//3 6//3 9//3
f 7//3 9//3 10//3
f 7//3 10//3 13//3
f 7//5 11//5 14//5
f 7//6 12//6 11//6
f 7//6 15//6 12//6
f 5//5 7//5 14//5
f 15//3 16//3 21//3
f 15//3 18//3 16//3
f 17//7 12//7 15//7
f 17//3 15//3 20//3
f 15//3 19//3 18//3
f 15//3 8//3 19//3
f 15//3 21//3 20//3
f 21//8 22//8 23//8
f 21//8 16//8 22//8
f 20//9 21//9 23//9
f 12//10 24//10 23//10
f 12//10 23//10 22//10
f 24//9 20//9 23//9
f 26//11 20//11 24//11
f 25//10 24//10 12//10
f 25//10 27//10 24//10
f 27//11 26//11 24//11
f 25//10 28//10 27//10
f 29//12 27//12 28//12
f 29//13 26//13 27//13
f 17//3 29//3 30//3
f 17//3 26//3 29//3
f 30//14 29//14 28//14
f 30//15 28//15 31//15
f 32//16 30//16 31//16
f 17//3 30//3 32//3
f 17//3 32//3 33//3
f 33//17 32//17 34//17
f 32//18 31//18 34//18
f 33//17 34//17 35//17
f 25//10 35//10 34//10
f 25//10 34//10 31//10
f 35//10 39//10 36//10
f 38//19 35//19 36//19
f 37//20 40//20 35//20
f 25//21 37//21 35//21
f 38//22 33//22 35//22
f 40//23 39//23 35//23
f 42//24 40//24 37//24
f 40//25 41//25 39//25
f 43//26 41//26 40//26
f 42//27 43//27 40//27
f 42//28 44//28 43//28
f 43//29 44//29 46//29
f 43//30 46//30 45//30
f 43//31 45//31 41//31
f 45//32 46//32 47//32
f 47//33 46//33 49//33
f 48//34 46//34 44//34
f 49//34 46//34 48//34
f 48//3 50//3 49//3
f 50//3 51//3 49//3
f 49//3 51//3 52//3
f 52//33 47//33 49//33
f 51//3 53//3 52//3
f 54//35 47//35 52//35
f 52//3 53//3 55//3
f 55//35 54//35 52//35
f 55//36 56//36 54//36
f 55//37 57//37 56//37
f 55//3 53//3 57//3
f 58//38 56//38 57//38
f 53//39 58//39 57//39
f 58//40 53//40 59//40
f 62//41 58//41 59//41
f 60//42 58//42 62//42
f 60//43 63//43 58//43
f 61//44 56//44 58//44
f 63//45 61//45 58//45
f 64//3 63//3 60//3
f 63//46 64//46 65//46
f 65//47 61//47 63//47
f 66//3 61//3 65//3
f 64//48 66//48 65//48
f 54//3 61//3 66//3
f 67//49 54//49 66//49
f 68//50 67//50 66//50
f 68//50 66//50 69//50
f 69//51 66//51 64//51
f 72//52 69//52 70//52
f 70//53 69//53 71//53
f 71//54 69//54 64//54
f 72//52 68//52 69//52
f 73//55 72//55 70//55
f 72//56 73//56 75//56
f 72//56 75//56 74//56
f 72//53 74//53 68//53
f 77//57 76//57 75//57
f 75//58 76//58 74//58
f 73//59 77//59 75//59
f 78//60 77//60 79//60
f 78//58 76//58 77//58
f 80//61 79//61 77//61
f 73//59 80//59 77//59
f 82//62 80//62 81//62
f 80//63 73//63 81//63
f 80//64 82//64 79//64
f 85//62 82//62 81//62
f 85//65 83//65 82//65
f 82//66 83//66 84//66
f 82//67 84//67 79//67
f 86//68 85//68 81//68
f 86//69 87//69 85//69
f 87//70 88//70 85//70
f 88//65 83//65 85//65
f 87//71 89//71 88//71
f 88//72 89//72 91//72
f 88//73 90//73 83//73
f 91//73 90//73 88//73
f 94//74 92//74 91//74
f 91//74 92//74 90//74
f 89//72 93//72 91//72
f 91//75 93//75 94//75
f 93//75 95//75 94//75
f 94//76 96//76 92//76
f 94//77 95//77 96//77
f 96//78 98//78 97//78
f 96//76 97//76 92//76
f 96//79 99//79 98//79
f 95//77 99//77 96//77
f 102//3 99//3 95//3
f 99//79 100//79 98//79
f 101//3 100//3 99//3
f 102//3 101//3 99//3
f 104//75 103//75 102//75
f 103//75 105//75 102//75
f 102//3 95//3 104//3
f 102//77 105//77 101//77
f 110//3 105//3 103//3
f 109//80 106//80 105//80
f 107//80 105//80 106//80
f 108//3 105//3 107//3
f 105//77 111//77 101//77
f 108//3 111//3 105//3
f 110//81 109//81 105//81
f 116//3 111//3 112//3
f 112//3 111//3 113//3
f 113//3 111//3 108//3
f 116//3 114//3 111//3
f 111//79 114//79 115//79
f 101//79 111//79 115//79
f 116//82 118//82 117//82
f 119//83 116//83 117//83
f 17//84 116//84 119//84
f 17//85 114//85 116//85
f 116//86 112//86 118//86
f 17//87 119//87 120//87
f 120//79 119//79 121//79
f 119//88 117//88 121//88
f 122//81 121//81 117//81
f 122//79 120//79 121//79
f 123//3 122//3 117//3
f 124//77 120//77 122//77
f 123//89 124//89 122//89
f 17//90 120//90 124//90
f 17//91 124//91 125//91
f 125//75 124//75 123//75
f 126//92 125//92 123//92
f 127//93 125//93 126//93
f 125//94 127//94 128//94
f 17//95 125//95 128//95
f 127//96 129//96 128//96
f 129//97 130//97 128//97
f 130//29 132//29 128//29
f 128//98 132//98 131//98
f 128//98 131//98 78//98
f 17//3 128//3 133//3
f 133//99 128//99 78//99
f 134//3 133//3 135//3
f 17//3 133//3 134//3
f 133//3 136//3 135//3
f 133//3 137//3 136//3
f 137//100 133//100 138//100
f 138//99 133//99 78//99
f 138//10 139//10 141//10
f 142//10 139//10 138//10
f 138//10 141//10 140//10
f 137//100 138//100 140//100
f 25//10 138//10 78//10
f 25//10 142//10 138//10
f 142//101 25//101 17//101
f 142//10 143//10 144//10
f 143//102 142//102 134//102
f 142//10 144//10 139//10
f 134//101 142//101 17//101
f 144//103 145//103 139//103
f 145//104 144//104 148//104
f 143//10 146//10 144//10
f 146//10 147//10 144//10
f 148//104 144//104 147//104
f 148//105 141//105 136//105
f 147//105 141//105 148//105
f 136//3 149//3 148//3
f 150//3 148//3 149//3
f 151//3 148//3 150//3
f 151//3 145//3 148//3
f 152//3 145//3 151//3
f 152//3 151//3 155//3
f 151//3 153//3 154//3
f 156//106 153//106 151//106
f 151//107 150//107 146//107
f 156//106 151//106 146//106
f 155//3 151//3 154//3
f 146//10 157//10 156//10
f 157//108 153//108 156//108
f 158//10 157//10 146//10
f 154//109 157//109 158//109
f 157//108 154//108 153//108
f 155//110 154//110 158//110
f 143//10 158//10 146//10
f 158//111 143//111 155//111
f 155//111 143//111 152//111
f 152//102 143//102 134//102
f 152//3 135//3 145//3
f 134//3 135//3 152//3
f 160//112 159//112 150//112
f 150//107 159//107 146//107
f 161//3 160//3 150//3
f 161//3 150//3 162//3
f 150//3 149//3 162//3
f 163//113 162//113 149//113
f 161//114 162//114 163//114
f 159//10 163//10 164//10
f 165//10 163//10 159//10
f 163//113 149//113 164//113
f 161//114 163//114 165//114
f 165//10 159//10 166//10
f 161//115 165//115 166//115
f 160//112 166//112 159//112
f 161//115 166//115 160//115
f 159//10 164//10 147//10
f 147//10 164//10 167//10
f 149//116 167//116 164//116
f 170//10 167//10 168//10
f 167//10 169//10 168//10
f 171//117 169//117 167//117
f 141//10 147//10 167//10
f 149//118 172//118 167//118
f 141//10 167//10 170//10
f 172//117 171//117 167//117
f 136//3 172//3 149//3
f 173//3 171//3 172//3
f 174//3 173//3 172//3
f 136//3 174//3 172//3
f 136//3 177//3 174//3
f 174//119 176//119 175//119
f 173//120 174//120 175//120
f 174//3 177//3 176//3
f 132//3 177//3 136//3
f 132//3 171//3 177//3
f 177//3 171//3 178//3
f 176//3 177//3 178//3
f 178//121 179//121 176//121
f 178//121 168//121 179//121
f 178//122 173//122 170//122
f 173//3 178//3 171//3
f 178//123 170//123 168//123
f 179//10 168//10 180//10
f 176//124 179//124 175//124
f 175//10 179//10 180//10
f 141//10 175//10 180//10
f 131//10 141//10 180//10
f 131//10 180//10 169//10
f 180//10 168//10 169//10
f 170//120 173//120 175//120
f 141//10 170//10 175//10
f 132//3 181//3 171//3
f 181//3 183//3 171//3
f 171//125 182//125 169//125
f 171//125 183//125 182//125
f 181//3 184//3 183//3
f 183//3 184//3 186//3
f 183//126 185//126 182//126
f 183//126 186//126 185//126
f 187//127 185//127 186//127
f 187//128 186//128 188//128
f 186//3 189//3 188//3
f 184//3 189//3 186//3
f 188//3 189//3 192//3
f 190//3 189//3 191//3
f 190//3 192//3 189//3
f 193//3 191//3 189//3
f 184//3 193//3 189//3
f 191//129 193//129 194//129
f 194//130 193//130 196//130
f 193//130 195//130 196//130
f 184//3 195//3 193//3
f 197//10 198//10 196//10
f 197//10 196//10 200//10
f 195//131 190//131 196//131
f 198//10 194//10 196//10
f 190//132 199//132 196//132
f 196//10 199//10 200//10
f 204//133 200//133 201//133
f 201//134 200//134 205//134
f 199//10 202//10 200//10
f 202//10 203//10 200//10
f 200//10 203//10 205//10
f 204//133 197//133 200//133
f 210//134 201//134 205//134
f 207//135 206//135 205//135
f 206//135 209//135 205//135
f 208//10 207//10 205//10
f 203//10 208//10 205//10
f 209//136 210//136 205//136
f 209//136 192//136 210//136
f 192//137 211//137 210//137
f 211//137 212//137 210//137
f 210//133 212//133 201//133
f 181//138 213//138 212//138
f 211//138 181//138 212//138
f 212//137 204//137 201//137
f 212//138 213//138 204//138
f 213//10 169//10 198//10
f 213//10 198//10 197//10
f 131//10 213//10 214//10
f 213//139 181//139 214//139
f 131//10 169//10 213//10
f 204//140 213//140 197//140
f 131//10 214//10 76//10
f 214//141 215//141 76//141
f 214//141 216//141 215//141
f 181//139 216//139 214//139
f 132//3 215//3 216//3
f 132//3 216//3 181//3
f 215//142 224//142 39//142
f 76//142 215//142 39//142
f 218//143 217//143 215//143
f 217//144 223//144 215//144
f 221//145 215//145 132//145
f 220//143 218//143 215//143
f 219//146 220//146 215//146
f 222//143 219//143 215//143
f 221//147 222//147 215//147
f 223//148 224//148 215//148
f 230//149 224//149 225//149
f 225//150 224//150 228//150
f 59//151 224//151 230//151
f 226//152 224//152 59//152
f 231//153 224//153 226//153
f 39//154 224//154 227//154
f 33//3 227//3 224//3
f 228//155 224//155 229//155
f 223//156 229//156 224//156
f 231//157 33//157 224//157
f 17//158 231//158 232//158
f 17//159 33//159 231//159
f 231//34 51//34 50//34
f 231//34 226//34 51//34
f 232//24 231//24 50//24
f 17//160 232//160 233//160
f 233//161 232//161 234//161
f 232//24 50//24 234//24
f 233//161 234//161 235//161
f 235//3 234//3 236//3
f 234//3 50//3 48//3
f 234//3 48//3 236//3
f 236//24 48//24 44//24
f 235//3 236//3 237//3
f 237//162 236//162 238//162
f 236//24 44//24 238//24
f 240//163 238//163 239//163
f 239//163 238//163 42//163
f 238//28 44//28 42//28
f 237//164 238//164 240//164
f 100//165 237//165 240//165
f 98//166 240//166 241//166
f 240//166 239//166 241//166
f 100//165 240//165 98//165
f 241//83 239//83 242//83
f 241//83 242//83 243//83
f 98//78 241//78 97//78
f 97//167 241//167 243//167
f 244//168 97//168 243//168
f 25//169 244//169 243//169
f 25//170 243//170 242//170
f 245//77 97//77 244//77
f 25//171 245//171 244//171
f 90//92 92//92 245//92
f 245//77 92//77 97//77
f 25//172 246//172 245//172
f 246//92 90//92 245//92
f 246//60 78//60 84//60
f 84//173 83//173 246//173
f 83//174 90//174 246//174
f 25//172 78//172 246//172
f 239//161 37//161 242//161
f 25//175 242//175 37//175
f 239//161 42//161 37//161
f 115//3 237//3 100//3
f 115//3 235//3 237//3
f 114//176 235//176 115//176
f 114//176 233//176 235//176
f 17//177 233//177 114//177
f 230//178 225//178 248//178
f 59//3 230//3 247//3
f 230//179 249//179 247//179
f 230//178 248//178 249//178
f 247//180 249//180 250//180
f 252//181 250//181 249//181
f 252//3 249//3 251//3
f 251//3 249//3 248//3
f 252//80 251//80 257//80
f 252//3 253//3 254//3
f 252//168 255//168 253//168
f 252//80 254//80 250//80
f 256//77 255//77 252//77
f 258//89 256//89 252//89
f 258//3 252//3 257//3
f 259//75 256//75 258//75
f 257//92 259//92 258//92
f 62//3 259//3 260//3
f 62//3 256//3 259//3
f 260//93 259//93 257//93
f 220//3 62//3 260//3
f 262//72 260//72 257//72
f 220//80 260//80 261//80
f 261//71 260//71 262//71
f 257//80 263//80 262//80
f 261//182 262//182 263//182
f 257//3 251//3 263//3
f 264//183 263//183 251//183
f 264//183 261//183 263//183
f 220//3 264//3 218//3
f 218//59 264//59 251//59
f 220//181 261//181 264//181
f 62//3 255//3 256//3
f 255//79 265//79 253//79
f 62//3 265//3 255//3
f 265//184 254//184 253//184
f 265//83 266//83 254//83
f 59//3 266//3 265//3
f 59//3 265//3 62//3
f 266//82 250//82 254//82
f 266//161 247//161 250//161
f 59//80 247//80 266//80
f 251//3 269//3 267//3
f 251//181 267//181 268//181
f 218//59 251//59 268//59
f 251//80 248//80 269//80
f 267//3 269//3 270//3
f 270//40 269//40 228//40
f 269//185 225//185 228//185
f 269//186 248//186 225//186
f 229//187 270//187 228//187
f 267//188 270//188 271//188
f 271//42 270//42 229//42
f 267//53 271//53 223//53
f 271//42 229//42 223//42
f 217//56 268//56 267//56
f 217//56 218//56 268//56
f 217//53 267//53 223//53
f 39//189 227//189 272//189
f 227//190 273//190 272//190
f 38//3 273//3 227//3
f 33//3 38//3 227//3
f 276//3 274//3 273//3
f 273//191 274//191 275//191
f 273//192 275//192 272//192
f 38//3 276//3 273//3
f 276//193 38//193 36//193
f 276//194 36//194 277//194
f 278//195 276//195 277//195
f 276//3 278//3 274//3
f 278//196 277//196 279//196
f 281//197 278//197 279//197
f 278//3 280//3 274//3
f 278//3 281//3 280//3
f 281//3 282//3 280//3
f 281//3 283//3 282//3
f 283//198 281//198 284//198
f 281//199 279//199 284//199
f 285//10 287//10 284//10
f 279//10 285//10 284//10
f 283//200 284//200 286//200
f 284//10 287//10 286//10
f 286//10 287//10 288//10
f 282//201 288//201 287//201
f 280//201 282//201 287//201
f 280//202 287//202 285//202
f 286//10 288//10 290//10
f 290//10 288//10 289//10
f 288//203 282//203 289//203
f 290//10 289//10 292//10
f 286//204 290//204 291//204
f 291//205 290//205 293//205
f 290//205 292//205 293//205
f 293//3 296//3 294//3
f 291//3 293//3 294//3
f 293//80 295//80 296//80
f 293//206 292//206 295//206
f 301//3 296//3 297//3
f 295//3 297//3 296//3
f 289//207 294//207 296//207
f 289//207 296//207 298//207
f 296//208 299//208 298//208
f 300//3 299//3 296//3
f 300//3 296//3 301//3
f 303//209 302//209 301//209
f 301//210 302//210 300//210
f 297//209 303//209 301//209
f 304//10 298//10 303//10
f 304//211 303//211 297//211
f 302//10 303//10 298//10
f 292//10 298//10 304//10
f 292//212 304//212 295//212
f 295//211 304//211 297//211
f 305//10 302//10 298//10
f 302//213 305//213 300//213
f 300//214 305//214 306//214
f 305//214 307//214 306//214
f 307//10 305//10 308//10
f 305//10 298//10 308//10
f 299//215 310//215 308//215
f 298//208 299//208 308//208
f 309//10 307//10 308//10
f 310//216 309//216 308//216
f 310//217 5//217 309//217
f 310//3 311//3 312//3
f 310//3 306//3 311//3
f 310//3 312//3 313//3
f 310//3 299//3 306//3
f 5//3 310//3 3//3
f 3//3 310//3 313//3
f 3//218 313//218 314//218
f 313//219 312//219 315//219
f 313//219 315//219 314//219
f 309//10 314//10 315//10
f 309//220 315//220 316//220
f 312//221 316//221 315//221
f 309//10 316//10 307//10
f 307//222 316//222 311//222
f 312//223 311//223 316//223
f 2//10 314//10 309//10
f 3//218 314//218 2//218
f 306//222 307//222 311//222
f 14//10 2//10 309//10
f 5//224 14//224 309//224
f 306//3 299//3 300//3
f 292//10 289//10 298//10
f 283//3 294//3 282//3
f 282//203 294//203 289//203
f 283//3 291//3 294//3
f 283//225 286//225 291//225
f 275//10 285//10 279//10
f 274//226 280//226 285//226
f 274//227 285//227 275//227
f 277//10 275//10 279//10
f 36//10 272//10 277//10
f 272//10 275//10 277//10
f 39//10 272//10 36//10
f 53//228 51//228 226//228
f 53//185 226//185 59//185
f 222//59 221//59 318//59
f 219//229 222//229 317//229
f 222//59 318//59 317//59
f 221//230 319//230 318//230
f 87//3 86//3 318//3
f 86//3 317//3 318//3
f 319//3 87//3 318//3
f 221//230 130//230 319//230
f 89//3 87//3 319//3
f 320//3 89//3 319//3
f 130//71 320//71 319//71
f 93//3 89//3 320//3
f 104//3 93//3 320//3
f 130//70 129//70 320//70
f 129//174 104//174 320//174
f 219//229 317//229 321//229
f 86//3 322//3 317//3
f 322//3 321//3 317//3
f 322//3 323//3 321//3
f 322//59 86//59 81//59
f 323//231 322//231 324//231
f 322//59 81//59 324//59
f 81//63 73//63 324//63
f 73//232 70//232 324//232
f 323//231 324//231 70//231
f 323//3 71//3 60//3
f 323//53 70//53 71//53
f 323//3 60//3 321//3
f 321//53 60//53 220//53
f 321//53 220//53 219//53
f 130//28 221//28 132//28
f 220//42 60//42 62//42
f 181//3 211//3 184//3
f 211//3 192//3 195//3
f 211//3 195//3 184//3
f 326//3 209//3 206//3
f 192//3 209//3 325//3
f 325//3 209//3 326//3
f 326//3 206//3 327//3
f 329//3 326//3 327//3
f 326//233 208//233 325//233
f 326//234 328//234 208//234
f 328//3 326//3 329//3
f 333//3 329//3 330//3
f 330//3 329//3 331//3
f 332//235 331//235 329//235
f 332//235 329//235 334//235
f 333//3 328//3 329//3
f 329//236 327//236 334//236
f 335//10 334//10 337//10
f 335//10 338//10 334//10
f 334//10 336//10 208//10
f 327//236 336//236 334//236
f 338//10 332//10 334//10
f 337//10 334//10 208//10
f 330//237 339//237 338//237
f 330//238 338//238 335//238
f 338//10 339//10 332//10
f 339//239 340//239 331//239
f 339//239 331//239 332//239
f 330//240 340//240 339//240
f 330//3 331//3 340//3
f 335//10 337//10 341//10
f 337//241 328//241 341//241
f 328//242 337//242 208//242
f 187//10 343//10 341//10
f 187//10 341//10 202//10
f 343//10 335//10 341//10
f 342//243 203//243 341//243
f 202//10 341//10 203//10
f 328//244 342//244 341//244
f 343//245 187//245 188//245
f 333//246 343//246 188//246
f 333//247 335//247 343//247
f 188//3 342//3 328//3
f 342//248 325//248 203//248
f 342//3 192//3 325//3
f 188//3 192//3 342//3
f 336//10 344//10 207//10
f 345//10 344//10 336//10
f 346//249 345//249 336//249
f 346//249 336//249 327//249
f 208//10 336//10 207//10
f 346//3 327//3 348//3
f 347//250 345//250 346//250
f 347//3 346//3 348//3
f 347//251 348//251 349//251
f 348//251 344//251 349//251
f 344//252 348//252 207//252
f 327//3 206//3 348//3
f 348//252 206//252 207//252
f 349//10 344//10 345//10
f 349//250 345//250 347//250
f 330//238 335//238 333//238
f 188//3 328//3 333//3
f 208//253 203//253 325//253
f 182//10 185//10 202//10
f 185//10 187//10 202//10
f 198//10 202//10 194//10
f 182//10 202//10 198//10
f 199//220 350//220 202//220
f 194//10 202//10 350//10
f 191//254 194//254 350//254
f 191//255 350//255 190//255
f 350//256 199//256 190//256
f 169//10 182//10 198//10
f 195//3 192//3 190//3
f 146//10 159//10 147//10
f 145//103 135//103 139//103
f 140//10 141//10 131//10
f 136//257 141//257 139//257
f 137//258 140//258 132//258
f 140//258 131//258 132//258
f 135//257 136//257 139//257
f 137//3 132//3 136//3
f 78//10 131//10 76//10
f 351//3 103//3 129//3
f 129//72 103//72 104//72
f 127//259 351//259 129//259
f 351//182 127//182 353//182
f 351//182 353//182 352//182
f 354//183 351//183 352//183
f 351//3 354//3 103//3
f 354//3 356//3 103//3
f 354//183 352//183 355//183
f 356//59 354//59 355//59
f 356//59 355//59 357//59
f 356//80 110//80 103//80
f 110//56 356//56 357//56
f 355//181 358//181 357//181
f 110//56 357//56 358//56
f 358//53 359//53 109//53
f 110//53 358//53 109//53
f 352//3 359//3 358//3
f 352//3 358//3 355//3
f 359//42 361//42 106//42
f 109//260 359//260 106//260
f 352//3 360//3 359//3
f 360//3 362//3 359//3
f 362//80 361//80 359//80
f 361//41 362//41 107//41
f 107//261 362//261 108//261
f 362//228 360//228 108//228
f 106//41 361//41 107//41
f 123//3 360//3 352//3
f 118//262 363//262 360//262
f 113//178 360//178 363//178
f 123//3 117//3 360//3
f 113//178 108//178 360//178
f 117//3 118//3 360//3
f 112//179 363//179 118//179
f 112//180 113//180 363//180
f 123//3 352//3 353//3
f 123//80 353//80 126//80
f 353//72 127//72 126//72
f 101//3 115//3 100//3
f 104//3 95//3 93//3
f 84//60 78//60 79//60
f 364//263 76//263 39//263
f 74//264 76//264 364//264
f 364//263 39//263 365//263
f 74//53 364//53 68//53
f 68//42 364//42 67//42
f 364//42 365//42 67//42
f 365//265 366//265 67//265
f 365//265 367//265 366//265
f 367//23 365//23 39//23
f 41//25 367//25 39//25
f 367//228 41//228 45//228
f 366//266 367//266 45//266
f 45//32 47//32 366//32
f 366//267 47//267 54//267
f 366//49 54//49 67//49
f 71//3 64//3 60//3
f 54//3 56//3 61//3
f 25//10 31//10 28//10
f 17//3 20//3 26//3
f 17//7 25//7 12//7
f 12//10 22//10 368//10
f 22//268 16//268 368//268
f 16//269 18//269 368//269
f 368//270 18//270 369//270
f 12//10 368//10 369//10
f 18//271 19//271 369//271
f 12//10 369//10 11//10
f 11//10 369//10 370//10
f 19//272 370//272 369//272
f 11//10 370//10 371//10
f 8//273 371//273 370//273
f 19//272 8//272 370//272
f 13//274 372//274 371//274
f 8//273 13//273 371//273
f 11//10 371//10 372//10
f 11//10 372//10 373//10
f 13//274 10//274 372//274
f 10//275 373//275 372//275
f 9//276 374//276 373//276
f 10//277 9//277 373//277
f 11//10 373//10 374//10
f 11//10 374//10 4//10
f 9//278 6//278 374//278
f 6//4 4//4 374//4
f 11//10 4//10 14//10
f 14//10 4//10 2//10
