# Blender 5.0.1
# www.blender.org
mtllib right_elbow_x_link_visual_5.mtl
o i01.right.bicep.full.006_visual.001
v -0.041870 0.133029 0.044951
v 0.019528 -0.005476 -0.099361
v 0.019102 0.070429 0.072611
v -0.039684 0.054892 -0.125782
v -0.095816 0.009174 -0.105581
v -0.091936 0.092257 0.062966
v -0.030951 0.029642 0.090632
v -0.083601 -0.013252 0.109586
v -0.017951 0.016297 0.096529
v -0.037519 -0.051957 -0.078857
v -0.024744 -0.065492 -0.072897
v 0.043071 -0.133029 -0.042837
v -0.070601 -0.026596 0.115481
v 0.032429 -0.018890 -0.093428
v 0.082487 0.098150 0.060362
v 0.095816 -0.090084 -0.061812
v 0.092951 -0.011897 0.108986
v 0.032103 0.057084 0.078508
v 0.046268 -0.049906 0.125781
v 0.069486 0.111495 0.054465
vn 0.7438 0.6113 -0.2702
vn 0.7467 0.6092 -0.2671
vn -0.0000 0.4041 0.9147
vn -0.6649 0.6759 -0.3179
vn -0.7460 -0.5904 0.3082
vn -0.0000 0.4042 0.9147
vn -0.6651 0.6826 -0.3028
vn -0.7521 -0.5820 0.3093
vn -0.0003 -0.4033 -0.9151
vn -0.7194 -0.6938 -0.0334
vn -0.0020 -0.4021 -0.9156
vn -0.0014 -0.4021 -0.9156
vn 0.0019 -0.4051 -0.9143
vn -0.7361 -0.5976 0.3180
vn 0.6651 -0.6826 0.3028
vn -0.7099 -0.7038 -0.0275
vn 0.0008 -0.4039 -0.9148
vn 0.7071 0.4326 -0.5594
vn 0.6653 -0.6824 0.3028
vn 0.0010 -0.4051 -0.9143
vn 0.7756 0.5787 -0.2519
vn 0.7783 0.5749 -0.2526
vn 0.6648 -0.6750 0.3201
vn -0.7474 -0.5902 0.3051
vn 0.7031 0.4372 -0.5608
vn -0.6653 0.6824 -0.3028
s 0
usemtl Material.025
f 2//1 4//1 1//1
f 1//2 3//2 2//2
f 3//3 1//3 6//3
f 1//4 4//4 5//4
f 5//4 6//4 1//4
f 7//5 6//5 5//5
f 6//6 7//6 3//6
f 10//7 8//7 7//7
f 9//6 7//6 8//6
f 5//8 10//8 7//8
f 3//6 7//6 9//6
f 11//9 10//9 2//9
f 8//10 10//10 11//10
f 10//11 5//11 4//11
f 4//12 2//12 10//12
f 12//13 11//13 14//13
f 9//14 11//14 12//14
f 9//15 13//15 11//15
f 11//16 13//16 8//16
f 2//17 14//17 11//17
f 15//18 14//18 2//18
f 14//19 15//19 18//19
f 14//20 16//20 12//20
f 17//21 16//21 14//21
f 14//22 18//22 17//22
f 17//3 18//3 9//3
f 3//6 18//6 15//6
f 9//6 18//6 3//6
f 16//23 17//23 19//23
f 9//6 19//6 17//6
f 12//24 19//24 9//24
f 19//23 12//23 16//23
f 2//25 20//25 15//25
f 15//6 20//6 3//6
f 2//26 3//26 20//26
f 8//3 13//3 9//3
