# Blender 5.0.1
# www.blender.org
mtllib right_shoulder_x_link_visual_11.mtl
o i01.rightArm.shoulder.full_visual.001
v 0.039377 0.010296 -0.013011
v 0.039377 0.008504 0.014249
v 0.039377 -0.010296 0.013013
v 0.039377 -0.008504 -0.014248
v -0.039377 -0.006298 -0.014103
v -0.039377 -0.008090 0.013158
v -0.039377 -0.010296 0.013013
v -0.039377 -0.008504 -0.014248
v -0.004410 0.008504 0.014249
v -0.004410 0.010296 -0.013011
vn 1.0000 -0.0000 -0.0000
vn -1.0000 -0.0000 -0.0000
vn -0.0000 -0.9978 -0.0656
vn -0.0000 0.9978 0.0656
vn -0.4295 0.9011 0.0593
vn -0.0000 -0.0656 0.9978
vn -0.0000 0.0657 -0.9978
vn -0.0000 0.0656 -0.9978
s 0
usemtl Material.014
f 1//1 3//1 4//1
f 5//2 7//2 6//2
f 7//3 4//3 3//3
f 10//4 2//4 1//4
f 10//5 6//5 9//5
f 9//6 7//6 3//6
f 2//6 9//6 3//6
f 9//6 6//6 7//6
f 10//7 4//7 8//7
f 5//8 10//8 8//8
f 10//7 1//7 4//7
f 1//1 2//1 3//1
f 5//2 8//2 7//2
f 7//3 8//3 4//3
f 10//4 9//4 2//4
f 10//5 5//5 6//5
