# Blender 5.0.1
# www.blender.org
mtllib right_elbow_x_link_visual_8.mtl
o i01.right.bicep.full.009_visual.001
v 0.013660 -0.035898 0.015563
v 0.013660 0.007276 0.008267
v -0.013659 0.007276 0.008267
v 0.013660 -0.039038 -0.003016
v -0.013659 -0.035898 0.015563
v -0.013659 -0.039038 -0.003016
v 0.013659 0.038909 -0.015564
v -0.013659 0.039038 -0.014880
vn 1.0000 -0.0000 -0.0000
vn -0.0000 0.1666 0.9860
vn -0.0000 -0.9860 0.1666
vn -1.0000 -0.0000 -0.0000
vn -0.0000 -0.1589 -0.9873
vn -0.0254 -0.1502 -0.9883
vn -0.0000 0.5890 0.8082
vn 0.0228 0.6016 0.7985
s 0
usemtl Material.024
f 2//1 1//1 4//1
f 1//2 2//2 3//2
f 3//2 5//2 1//2
f 6//3 4//3 1//3
f 1//3 5//3 6//3
f 5//4 3//4 6//4
f 3//4 8//4 6//4
f 7//5 4//5 6//5
f 6//6 8//6 7//6
f 8//7 3//7 2//7
f 2//8 7//8 8//8
f 2//1 4//1 7//1
