# Blender 5.0.1
# www.blender.org
mtllib right_elbow_x_link_visual_12.mtl
o i01.right.bicep.full_visual.001
v -0.036628 -0.104394 -0.110544
v 0.034719 -0.104394 -0.110544
v 0.034719 -0.090686 -0.115759
v -0.036628 -0.090686 -0.115759
v 0.034719 -0.080017 -0.125824
v -0.036628 -0.080018 -0.125824
v 0.034719 -0.074012 -0.139205
v -0.036628 -0.074012 -0.139205
v 0.034719 -0.073585 -0.153866
v -0.036628 -0.073585 -0.153866
v 0.034719 -0.078800 -0.167573
v -0.036628 -0.078800 -0.167573
v 0.034719 -0.088864 -0.178241
v -0.036628 -0.088864 -0.178241
v 0.034719 -0.102245 -0.184246
v -0.036628 -0.102245 -0.184246
v 0.034719 -0.116906 -0.184674
v -0.036628 -0.116906 -0.184674
v 0.034719 -0.130614 -0.179459
v -0.036628 -0.130614 -0.179459
v 0.034719 -0.141282 -0.169394
v -0.036628 -0.141282 -0.169394
v 0.034719 -0.147287 -0.156013
v -0.036628 -0.147287 -0.156013
v 0.034719 -0.147714 -0.141352
v -0.036628 -0.147714 -0.141352
v 0.034719 -0.142499 -0.127645
v -0.036628 -0.142499 -0.127645
v 0.034719 -0.132435 -0.116977
v -0.036628 -0.132435 -0.116977
v 0.034719 -0.119054 -0.110971
v -0.036628 -0.119054 -0.110971
v 0.034726 -0.177428 -0.195827
v 0.034719 -0.153555 -0.218200
v 0.034719 -0.124423 -0.229215
v 0.034719 -0.093290 -0.228371
v 0.034719 -0.064895 -0.215798
v -0.036628 -0.176250 -0.197003
v -0.036628 -0.153554 -0.218200
v -0.036628 -0.124423 -0.229216
v -0.036628 -0.093290 -0.228371
v -0.036628 -0.064896 -0.215798
v -0.168280 0.333054 0.065943
v -0.168281 -0.177669 0.152584
v -0.168281 -0.171375 0.189790
v -0.168280 0.339441 0.103698
v 0.168280 -0.177669 0.152561
v 0.168279 -0.195106 0.193858
v 0.168280 -0.373935 0.224095
v 0.168280 -0.352451 0.146166
v -0.168280 -0.352451 0.146166
v -0.168280 -0.373935 0.224095
v 0.109066 -0.334633 0.179609
v 0.112157 -0.333096 0.217211
v -0.112762 0.354315 0.062338
v -0.112626 0.359724 0.100275
v 0.113142 -0.342248 0.180896
v 0.097942 -0.352960 0.220564
v 0.096003 -0.359052 0.183733
v -0.105468 -0.358208 0.183590
v -0.099742 -0.353740 0.220695
v -0.097188 -0.359896 0.183876
v 0.097314 0.339391 0.064869
v 0.094970 0.345954 0.102599
v -0.113821 -0.344328 0.181247
v -0.113711 -0.341277 0.218593
v -0.109029 -0.349709 0.220015
v -0.110944 -0.353855 0.182854
v 0.088459 0.364446 0.060618
v 0.090523 0.372098 0.098187
v 0.084924 0.366447 0.099139
v 0.088472 0.342138 0.064404
v 0.087278 0.349685 0.101972
v 0.083715 0.349280 0.063191
v 0.082900 0.358725 0.100445
v 0.106692 -0.350298 0.220115
v 0.111624 -0.351550 0.182467
v 0.103991 -0.357953 0.183547
v 0.088402 -0.356541 0.183309
v 0.082110 -0.348533 0.181957
v 0.083472 -0.345305 0.219272
v 0.090120 -0.351170 0.220263
v -0.109028 -0.335500 0.179757
v -0.107046 -0.327702 0.216301
v -0.084294 -0.350241 0.182243
v -0.083685 -0.339835 0.218349
v -0.109898 0.351149 0.101723
v -0.109398 0.344137 0.064063
v -0.085978 0.358226 0.061674
v -0.085251 0.351695 0.062782
v -0.085390 0.362702 0.099773
v 0.106395 -0.326384 0.216078
v -0.091425 -0.351733 0.220357
v -0.089428 -0.356718 0.183339
v 0.112986 -0.342289 0.218763
v -0.102751 -0.332236 0.179206
v -0.097186 -0.325314 0.215898
v -0.111922 -0.333096 0.217212
v 0.111260 0.350243 0.063028
v 0.110653 0.354696 0.101124
v 0.083368 0.356361 0.061990
v 0.101121 0.373314 0.097981
v -0.110381 0.367355 0.098989
v -0.108658 0.363038 0.060858
v -0.092262 0.347350 0.102363
v -0.096180 0.339806 0.064798
v -0.090046 0.370400 0.098474
v 0.098727 0.367283 0.060138
v 0.081893 -0.337052 0.217878
v 0.107456 0.363192 0.060832
v 0.109001 0.367742 0.098921
v -0.101893 0.346246 0.102551
v -0.102610 0.340132 0.064743
v -0.104132 0.372364 0.098143
v -0.086885 -0.330407 0.216757
v -0.089026 -0.335049 0.179681
v -0.084677 -0.340658 0.180628
v -0.086227 -0.347298 0.219608
v 0.095519 -0.323918 0.215663
v 0.100264 -0.330418 0.178899
v -0.089988 0.363678 0.060750
v -0.097519 0.373298 0.097984
v -0.095835 0.366701 0.060236
v -0.102609 0.366410 0.060285
v 0.104487 0.347467 0.102344
v -0.088330 0.344137 0.064063
v -0.085978 0.354723 0.101119
v -0.095375 -0.331936 0.179155
v 0.106169 0.342159 0.064400
v 0.111403 0.361308 0.100009
v 0.110958 0.357086 0.061868
v 0.089570 -0.331998 0.179166
v 0.085193 -0.329239 0.216559
v 0.082956 -0.339199 0.180381
v 0.168280 0.397711 0.054976
v 0.168280 0.404107 0.092785
v -0.168280 0.404108 0.092784
v -0.168280 0.397713 0.054975
v -0.036628 -0.043562 -0.193409
v 0.034719 -0.043562 -0.193410
v -0.036628 -0.204658 -0.159483
v -0.036628 -0.032575 -0.164357
v 0.034719 -0.032577 -0.164359
v 0.034719 -0.205876 -0.157495
v 0.063397 0.105752 0.104496
v -0.065307 0.105761 0.104503
v -0.000000 -0.324317 0.215730
v -0.000000 0.397712 0.054975
v -0.000000 0.404108 0.092785
v -0.058301 0.016233 0.009893
v -0.038817 -0.000299 0.012698
v 0.056392 0.016232 0.009894
v 0.036907 -0.000300 0.012698
v 0.037424 -0.287391 -0.016076
v -0.000627 -0.288200 -0.015939
v -0.038678 -0.287120 -0.016122
v 0.063396 0.035223 0.047874
v -0.065307 0.035224 0.047874
v -0.136236 -0.366477 0.148545
v -0.132715 -0.387962 0.226475
v -0.046809 -0.401987 0.228854
v -0.046809 -0.380503 0.150926
v -0.000299 -0.382661 0.151292
v 0.021703 -0.404108 0.229216
v 0.046210 -0.381042 0.151016
v 0.132116 -0.388501 0.226567
v 0.135539 -0.367016 0.148638
v 0.089984 -0.397672 0.228123
v -0.091130 -0.396593 0.227939
v 0.135541 -0.311764 0.041030
v 0.168280 -0.297168 0.038568
v 0.000464 -0.327590 0.044002
v 0.046210 -0.350012 0.090228
v -0.046809 -0.349472 0.090137
v -0.168281 -0.297859 0.039741
v -0.136225 -0.312450 0.043324
v -0.046809 -0.324557 0.042273
v 0.046210 -0.325096 0.042364
v 0.132116 -0.273798 -0.018914
v 0.168280 -0.259233 -0.021386
v 0.089984 -0.320241 0.041541
v 0.089984 -0.282969 -0.017358
v -0.091130 -0.319162 0.041357
v -0.091130 -0.281890 -0.017542
v -0.132715 -0.273259 -0.019006
v -0.168280 -0.259233 -0.021386
v -0.082020 -0.316998 0.176517
v -0.088408 -0.377088 0.186659
v -0.102504 -0.378312 0.186865
v -0.071771 -0.325020 0.177872
v 0.093251 -0.313095 0.175906
v -0.133317 -0.343301 0.180958
v -0.129635 -0.330847 0.178855
v 0.064063 -0.336019 0.179775
v 0.070178 -0.325037 0.177921
v 0.120051 -0.369042 0.185349
v 0.108282 -0.375031 0.186357
v -0.075985 -0.370560 0.185558
v 0.062947 -0.348292 0.181847
v 0.080417 -0.316981 0.176562
v 0.088527 -0.375520 0.186442
v 0.076088 -0.369867 0.185488
v -0.108893 -0.314360 0.176070
v -0.095691 -0.312993 0.175840
v 0.067058 -0.360156 0.183849
v -0.125268 -0.366756 0.184915
v 0.113086 -0.316199 0.176429
v 0.124327 -0.324362 0.177808
v 0.130668 -0.334852 0.179578
v 0.104313 -0.313551 0.175983
v -0.115073 -0.374607 0.186243
v -0.064066 -0.348477 0.181831
v -0.067710 -0.360564 0.183871
v -0.065500 -0.336032 0.179731
v -0.120950 -0.320603 0.177126
v 0.132274 -0.347303 0.181680
v 0.128438 -0.359620 0.183757
v -0.131721 -0.355814 0.183069
v 0.097548 -0.376494 0.186606
v -0.066037 -0.355240 0.101518
v -0.064829 -0.365598 0.120914
v 0.123226 -0.368253 0.150561
v 0.124341 -0.337298 0.087731
v 0.130587 -0.345559 0.105396
v 0.112551 -0.375935 0.160843
v 0.099768 -0.380385 0.164565
v 0.071816 -0.342926 0.083369
v 0.082428 -0.335324 0.072897
v 0.063321 -0.362805 0.117750
v 0.065046 -0.352577 0.099055
v -0.128282 -0.365927 0.144423
v 0.108514 -0.330005 0.072496
v 0.086866 -0.381198 0.161316
v -0.072596 -0.344886 0.084502
v -0.067181 -0.371799 0.133853
v -0.072491 -0.377714 0.147540
v -0.097808 -0.331066 0.068851
v 0.129045 -0.361736 0.136413
v -0.130271 -0.343103 0.100707
v -0.120469 -0.335142 0.081309
v -0.083053 -0.336696 0.073217
v -0.107703 -0.379508 0.166556
v 0.116670 -0.331779 0.078928
v -0.110333 -0.332003 0.071591
v -0.132559 -0.354697 0.124179
v 0.131640 -0.354535 0.123446
v 0.075324 -0.378269 0.151445
v -0.082539 -0.382028 0.160256
v -0.094044 -0.382723 0.166469
v -0.121200 -0.371913 0.156272
v 0.095368 -0.330764 0.069175
v 0.067010 -0.371864 0.136258
vn -0.0000 -0.3556 -0.9347
vn -0.0000 -0.6862 -0.7274
vn -0.0000 -0.9123 -0.4094
vn -0.0000 -0.9996 -0.0292
vn -0.0000 -0.9346 0.3556
vn -0.0000 -0.7274 0.6862
vn -0.0000 -0.4094 0.9123
vn -0.0000 -0.0292 0.9996
vn -0.0000 0.3556 0.9346
vn -0.0000 0.6862 0.7274
vn -0.0000 0.9123 0.4094
vn -0.0000 0.9996 0.0291
vn -0.0000 0.9346 -0.3556
vn -0.0000 0.7274 -0.6862
vn -0.0000 0.4094 -0.9123
vn -0.0000 0.0291 -0.9996
vn 1.0000 0.0003 -0.0000
vn 1.0000 -0.0000 -0.0000
vn -1.0000 -0.0000 -0.0000
vn -0.8843 -0.4579 0.0914
vn -0.1383 0.9783 -0.1545
vn 0.2025 0.9681 -0.1478
vn 0.9582 0.2849 -0.0261
vn 0.4028 0.8993 -0.1704
vn 0.7152 -0.6915 0.1016
vn -0.6478 0.7538 -0.1099
vn 0.7903 0.6073 -0.0814
vn 0.6667 0.7326 -0.1375
vn -0.9477 0.3104 -0.0735
vn 0.9542 0.2958 -0.0456
vn 0.9508 0.3067 -0.0445
vn 0.4414 0.8824 -0.1632
vn 0.9023 0.4222 -0.0873
vn 0.8359 0.5427 -0.0825
vn -0.9940 -0.1060 0.0278
vn 0.6276 0.7695 -0.1182
vn -0.7632 -0.6401 0.0889
vn -0.3836 0.9123 -0.1435
vn -0.7902 0.6003 -0.1235
vn 0.2385 -0.9603 0.1450
vn 0.7465 -0.6579 0.0999
vn 0.9681 -0.2492 0.0271
vn -0.4292 -0.8873 0.1686
vn 0.9070 -0.4119 0.0876
vn -0.8588 -0.5072 0.0728
vn 0.9773 -0.2113 0.0144
vn 0.8770 0.4705 -0.0977
vn 0.9825 0.1792 -0.0514
vn 0.4665 -0.8699 0.1603
vn -0.2377 0.9552 -0.1762
vn 0.8494 -0.5172 0.1048
vn 0.5277 0.8363 -0.1487
vn 0.5136 0.8455 -0.1465
vn 0.6308 -0.7674 0.1154
vn 0.3006 0.9426 -0.1453
vn -0.4883 0.8640 -0.1226
vn -0.1155 0.9761 -0.1840
vn 0.8814 -0.4621 0.0978
vn -0.9990 -0.0354 0.0271
vn -0.6544 0.7440 -0.1355
vn -0.7878 0.6095 -0.0888
vn -0.2948 0.9394 -0.1749
vn -0.9959 -0.0906 -0.0042
vn 0.1481 -0.9704 0.1907
vn -0.4368 -0.8838 0.1679
vn 0.9987 0.0506 0.0090
vn -0.5827 -0.8038 0.1197
vn -0.8096 -0.5781 0.1018
vn 0.4923 -0.8566 0.1545
vn -0.1591 0.9709 -0.1788
vn 0.0412 -0.9830 0.1792
vn -0.4481 -0.8834 0.1371
vn -0.4452 -0.8850 0.1365
vn 0.3177 0.9361 -0.1508
vn 0.2261 0.9591 -0.1705
vn 0.9959 -0.0847 0.0331
vn -0.4644 -0.8720 0.1547
vn -0.3659 -0.9194 0.1443
vn 0.2698 -0.9463 0.1779
vn -0.9871 0.1604 -0.0039
vn -0.8495 0.5223 -0.0746
vn -0.3022 0.9421 -0.1452
vn 0.9604 -0.2764 0.0359
vn -0.7653 0.6301 -0.1314
vn -0.9973 0.0694 -0.0244
vn 0.0435 -0.9838 0.1739
vn 0.1417 -0.9770 0.1594
vn -0.9990 -0.0414 0.0162
vn -0.9938 0.1079 -0.0284
vn 0.1157 -0.9820 0.1492
vn -0.9481 -0.3164 0.0318
vn -0.7943 -0.5955 0.1204
vn 0.7410 -0.6578 0.1353
vn -0.2240 -0.9642 0.1416
vn -0.9278 0.3701 -0.0468
vn 0.0514 0.9857 -0.1604
vn -0.8705 -0.4833 0.0930
vn -0.9384 -0.3420 0.0488
vn 0.4630 -0.8783 0.1190
vn -0.7652 0.6321 -0.1223
vn 0.9230 -0.3817 0.0480
vn -0.0000 0.7240 -0.6898
vn -0.0000 0.4049 -0.9144
vn -0.0000 0.0271 -0.9996
vn -0.0000 -0.3537 -0.9354
vn 0.0008 -0.6826 -0.7308
vn -0.0000 -0.6838 -0.7297
vn -0.0032 -0.7973 -0.6036
vn -0.0000 0.9354 -0.3537
vn 0.0029 -0.8030 -0.5960
vn -0.0001 -0.1673 -0.9859
vn -0.0007 0.1665 0.9860
vn -0.0000 0.1662 0.9861
vn 0.0004 0.1664 0.9861
vn -0.0000 0.9860 -0.1668
vn 0.0001 0.1663 0.9861
vn -0.0004 0.1663 0.9861
vn -0.0000 0.1663 0.9861
vn -0.0002 0.1667 0.9860
vn -0.0000 0.1665 0.9860
vn -0.0001 0.1662 0.9861
vn 0.0001 0.1667 0.9860
vn 0.0001 0.1666 0.9860
vn 0.0003 0.1664 0.9861
vn -0.0000 0.1664 0.9861
vn -0.0001 0.1663 0.9861
vn -0.0000 0.1680 0.9858
vn -0.0000 -0.1672 -0.9859
vn 0.0001 -0.1671 -0.9859
vn 0.0001 -0.1675 -0.9859
vn -0.0001 -0.1671 -0.9859
vn -0.0000 -0.1673 -0.9859
vn -0.0001 -0.1674 -0.9859
vn -0.0000 -0.1671 -0.9859
vn -0.0001 -0.1672 -0.9859
vn 0.0001 -0.1672 -0.9859
vn 0.0007 -0.1673 -0.9859
vn 0.0003 0.1667 0.9860
vn 0.0001 0.1662 0.9861
vn 0.0002 0.1668 0.9860
vn 0.0007 0.1666 0.9860
vn -0.0000 0.1661 0.9861
vn -0.0000 0.1669 0.9860
vn -0.0001 0.1671 0.9859
vn -0.0006 0.1670 0.9860
vn -0.0013 0.1667 0.9860
vn -0.0005 0.1670 0.9860
vn -0.0000 0.1672 0.9859
vn 0.0166 -0.8661 -0.4996
vn -0.0008 -0.8644 -0.5029
vn -0.0222 -0.8665 -0.4987
vn -0.0000 0.9838 -0.1793
vn 0.9999 -0.0051 -0.0134
vn 0.9999 -0.0097 -0.0102
vn 0.9999 -0.0154 -0.0069
vn 0.9996 -0.0280 -0.0008
vn 0.9997 -0.0226 -0.0032
vn 0.9998 0.0143 -0.0136
vn 0.9977 0.0630 -0.0238
vn 0.9897 -0.1153 -0.0854
vn 0.9999 0.0108 -0.0102
vn 0.9998 0.0071 -0.0159
vn 0.9999 0.0144 -0.0055
vn 0.9998 0.0039 -0.0211
vn 0.9996 0.0008 -0.0271
vn 0.9999 0.0131 -0.0070
vn -0.9999 -0.0051 -0.0134
vn -0.9999 -0.0097 -0.0102
vn -0.9999 -0.0154 -0.0069
vn -0.9996 -0.0280 -0.0008
vn -0.9997 -0.0226 -0.0032
vn -0.9998 0.0143 -0.0136
vn -0.9977 0.0630 -0.0238
vn -0.9999 0.0082 -0.0078
vn -0.9999 0.0054 -0.0120
vn -0.9999 0.0110 -0.0042
vn -0.9998 0.0014 -0.0190
vn -0.9998 0.0006 -0.0205
vn -0.9999 0.0101 -0.0052
vn -0.9952 -0.0783 -0.0593
vn -0.0000 0.6260 -0.7798
vn -0.0000 0.8944 -0.4472
vn -0.3732 -0.8944 -0.2466
vn -0.3429 -0.9094 -0.2352
vn -0.0426 -0.9632 -0.2655
vn -0.0285 -0.9658 -0.2578
vn 0.0318 -0.9613 -0.2736
vn 0.3493 -0.9071 -0.2347
vn 0.3784 -0.8924 -0.2460
vn -0.0000 0.1671 0.9859
vn -0.0001 0.1666 0.9860
vn 0.3398 -0.8367 -0.4296
vn 0.3405 -0.8363 -0.4297
vn 0.0282 -0.8894 -0.4563
vn 0.0229 -0.8904 -0.4545
vn -0.0377 -0.8900 -0.4543
vn -0.0341 -0.8890 -0.4566
vn -0.3350 -0.8383 -0.4300
vn -0.3336 -0.8386 -0.4306
vn -0.0400 -0.8863 -0.4614
vn 0.0318 -0.8866 -0.4615
vn 0.3147 -0.7937 -0.5207
vn 0.2907 -0.8086 -0.5116
vn 0.1495 -0.8355 -0.5287
vn 0.1608 -0.8296 -0.5346
vn 0.0819 -0.8318 -0.5490
vn 0.0580 -0.8436 -0.5338
vn 0.0259 -0.8352 -0.5493
vn 0.0159 -0.8391 -0.5438
vn -0.0340 -0.8392 -0.5427
vn -0.0211 -0.8357 -0.5488
vn -0.0914 -0.8415 -0.5325
vn -0.0686 -0.8355 -0.5452
vn -0.1473 -0.8336 -0.5324
vn -0.1547 -0.8348 -0.5283
vn -0.3091 -0.8040 -0.5080
vn -0.2825 -0.8048 -0.5220
vn -0.0326 0.0996 -0.9945
vn -0.0551 0.0844 -0.9949
vn -0.1975 0.0669 -0.9780
vn 0.0369 0.0999 -0.9943
vn 0.1985 0.0681 -0.9777
vn 0.0528 0.0857 -0.9949
vn 0.0958 0.0745 -0.9926
vn -0.8562 0.3814 -0.3486
vn -0.7846 0.3881 -0.4834
vn -0.0973 0.0732 -0.9926
vn 0.8532 0.3863 -0.3505
vn 0.7791 0.3925 -0.4889
vn -0.0026 -0.1717 -0.9852
vn -0.0005 -0.1601 -0.9871
vn -0.0046 -0.1699 -0.9854
vn 0.0005 -0.1700 -0.9854
vn 0.0058 -0.1682 -0.9857
vn 0.0033 -0.1682 -0.9857
vn -0.0017 -0.1628 -0.9867
vn -0.0025 -0.1607 -0.9870
vn -0.0027 -0.1612 -0.9869
vn 0.0017 -0.1629 -0.9866
vn 0.0011 -0.1701 -0.9854
vn 0.0003 -0.1727 -0.9850
vn 0.0007 -0.1724 -0.9850
vn 0.0030 -0.1641 -0.9864
vn 0.0026 -0.1640 -0.9865
vn -0.0022 -0.1696 -0.9855
vn 0.0036 -0.1652 -0.9862
vn -0.0038 -0.1712 -0.9852
vn -0.0001 -0.1703 -0.9854
vn -0.0057 -0.1647 -0.9863
vn 0.0039 -0.1620 -0.9868
vn 0.0039 -0.1619 -0.9868
vn -0.0023 -0.1637 -0.9865
vn -0.0034 -0.1660 -0.9861
vn -0.0037 -0.1669 -0.9860
vn -0.0036 -0.1652 -0.9863
vn 0.0050 -0.1690 -0.9856
vn 0.0013 -0.1629 -0.9866
vn 0.0059 -0.1656 -0.9862
vn 0.0053 -0.1648 -0.9863
vn 0.0028 -0.1717 -0.9851
vn 0.0027 -0.1719 -0.9851
vn -0.0017 -0.1697 -0.9855
vn -0.0047 -0.1632 -0.9866
vn -0.0046 -0.1627 -0.9867
vn 0.0014 -0.1606 -0.9870
vn 0.0015 -0.1606 -0.9870
vn -0.0018 -0.1724 -0.9850
vn 0.0047 -0.1703 -0.9854
vn 0.0027 -0.1688 -0.9857
vn -0.0052 -0.1694 -0.9855
vn -0.0006 -0.1625 -0.9867
vn -0.0007 -0.1626 -0.9867
vn 0.0004 -0.1625 -0.9867
vn -0.0013 -0.1700 -0.9854
vn 0.0052 -0.1633 -0.9866
vn 0.0036 -0.1668 -0.9860
vn 0.0035 -0.1667 -0.9860
vn 0.0025 -0.1694 -0.9855
vn -0.0031 -0.1682 -0.9857
vn -0.0030 -0.1640 -0.9864
vn -0.0059 -0.1665 -0.9860
vn -0.0055 -0.1670 -0.9859
vn -0.9935 -0.1088 0.0335
vn -0.9977 -0.0609 0.0296
vn -0.7504 0.6589 -0.0535
vn -0.8589 -0.5069 0.0727
vn -0.8642 -0.4978 0.0728
vn -0.3511 0.9318 -0.0918
vn 0.6235 -0.7662 0.1558
vn 0.6655 -0.7326 0.1425
vn 0.9959 -0.0863 0.0254
vn 0.9938 -0.1058 0.0338
vn 0.8641 0.5005 -0.0541
vn -0.2926 -0.9462 0.1386
vn 0.1089 0.9807 -0.1622
vn -0.0061 0.9755 -0.2200
vn -0.1370 0.9730 -0.1856
vn -0.8716 -0.4779 0.1094
vn -0.9091 -0.4030 0.1052
vn -0.8608 0.4946 -0.1202
vn -0.7847 0.6187 -0.0377
vn 0.7672 -0.6346 0.0933
vn 0.7430 -0.6612 0.1041
vn -0.2848 -0.9443 0.1651
vn -0.3960 -0.9013 0.1758
vn 0.2863 0.9494 -0.1292
vn -0.7721 0.6079 -0.1853
vn -0.3136 -0.9394 0.1386
vn 0.4649 -0.8750 0.1351
vn 0.4174 -0.8969 0.1457
vn 0.9385 0.3452 -0.0068
vn 0.9921 0.1246 -0.0118
vn -0.9557 0.2932 -0.0260
vn -0.9542 0.2980 -0.0255
vn -0.9920 -0.1247 0.0191
vn -0.9969 -0.0762 0.0203
vn -0.6072 0.7937 -0.0374
vn 0.9921 -0.1201 0.0374
vn -0.5904 0.7816 -0.2013
vn 0.2269 0.9671 -0.1151
vn 0.6137 0.7877 -0.0547
vn -0.9584 0.2777 -0.0661
vn -0.9697 0.2358 -0.0632
vn 0.5051 0.8627 -0.0257
vn -0.0418 -0.9858 0.1624
vn 0.0171 -0.9873 0.1577
vn -0.6216 -0.7683 0.1527
vn -0.7065 -0.6909 0.1532
vn 0.9460 0.3146 -0.0784
vn 0.9598 0.2751 -0.0567
vn -0.5927 -0.7984 0.1058
vn -0.6585 -0.7449 0.1069
vn 0.6792 0.7331 -0.0355
vn 0.7354 0.6538 -0.1779
vn 0.7646 0.6256 -0.1547
vn 0.1045 -0.9809 0.1642
vn 0.1091 -0.9805 0.1635
vn -0.1761 0.9598 -0.2187
vn 0.2935 -0.9403 0.1721
vn 0.3685 -0.9159 0.1589
vn 0.4174 0.8801 -0.2265
vn 0.4172 0.8801 -0.2266
vn -0.4670 0.8446 -0.2619
vn -0.4582 0.8823 -0.1079
vn 0.8762 -0.4699 0.1071
vn 0.8844 -0.4555 0.1015
vn 0.9600 -0.2778 0.0358
vn -0.0874 0.9655 -0.2451
vn 0.1480 -0.9143 -0.3770
vn -0.0627 -0.8693 -0.4903
vn 0.3690 -0.8865 -0.2793
vn 0.1289 -0.9019 -0.4122
vn 0.1647 -0.9081 -0.3850
vn 0.2514 -0.9341 -0.2534
vn 0.1990 -0.9530 -0.2286
vn 0.0866 -0.9626 -0.2568
vn 0.0575 -0.9687 -0.2415
vn 0.1219 -0.9623 -0.2430
vn 0.0932 -0.9195 -0.3819
vn 0.0919 -0.8985 -0.4293
vn 0.1010 -0.8767 -0.4703
vn 0.1097 -0.8670 -0.4861
vn 0.1541 -0.8673 -0.4733
vn 0.1642 -0.8601 -0.4829
vn 0.0955 -0.9239 -0.3704
vn 0.0653 -0.8888 -0.4537
vn 0.0733 -0.8899 -0.4502
vn 0.1209 -0.8805 -0.4583
vn -0.1779 -0.8755 -0.4492
vn -0.0193 -0.9158 -0.4012
vn -0.1501 -0.8721 -0.4658
vn -0.1648 -0.8753 -0.4546
vn -0.1345 -0.9145 -0.3816
vn -0.1724 -0.8764 -0.4497
vn -0.1752 -0.8758 -0.4497
vn -0.1743 -0.8760 -0.4498
vn -0.0967 -0.8829 -0.4596
vn -0.0198 -0.8178 -0.5752
vn -0.1650 -0.8370 -0.5216
vn -0.1014 -0.9037 -0.4159
vn -0.0447 -0.9106 -0.4109
vn -0.0422 -0.8607 -0.5074
vn -0.0137 -0.8824 -0.4703
vn -0.0200 -0.9002 -0.4351
vn 0.0205 -0.8905 -0.4546
vn -0.1112 -0.9581 -0.2641
vn -0.0539 -0.9319 -0.3588
vn -0.0262 -0.9754 -0.2188
vn 0.0260 -0.9976 -0.0634
vn -0.1918 -0.9593 -0.2073
vn -0.2245 -0.9476 -0.2274
vn -0.3152 -0.9126 -0.2603
vn -0.2126 -0.9444 -0.2508
vn 0.0556 -0.9632 -0.2631
vn 0.1028 -0.8849 -0.4543
vn 0.1481 -0.8769 -0.4574
vn 0.0277 -0.9122 -0.4087
vn 0.1177 -0.8829 -0.4545
vn 0.1799 -0.8766 -0.4464
vn -0.9373 0.3155 -0.1479
vn 0.9352 0.3206 -0.1503
s 0
usemtl Material.025
f 1//1 3//1 2//1
f 3//1 1//1 4//1
f 4//2 5//2 3//2
f 5//2 4//2 6//2
f 6//3 7//3 5//3
f 7//3 6//3 8//3
f 8//4 9//4 7//4
f 9//4 8//4 10//4
f 10//5 11//5 9//5
f 11//5 10//5 12//5
f 12//6 13//6 11//6
f 13//6 12//6 14//6
f 14//7 15//7 13//7
f 15//7 14//7 16//7
f 16//8 17//8 15//8
f 17//8 16//8 18//8
f 18//9 19//9 17//9
f 19//9 18//9 20//9
f 20//10 21//10 19//10
f 21//10 20//10 22//10
f 22//11 23//11 21//11
f 23//11 22//11 24//11
f 24//12 25//12 23//12
f 25//12 24//12 26//12
f 26//13 27//13 25//13
f 27//13 26//13 28//13
f 28//14 29//14 27//14
f 29//14 28//14 30//14
f 30//15 31//15 29//15
f 31//15 30//15 32//15
f 32//16 2//16 31//16
f 2//16 32//16 1//16
f 25//17 33//17 34//17
f 25//18 34//18 23//18
f 19//18 21//18 35//18
f 17//18 19//18 35//18
f 15//18 17//18 35//18
f 11//18 13//18 36//18
f 9//18 11//18 36//18
f 34//18 35//18 21//18
f 34//18 21//18 23//18
f 35//18 36//18 13//18
f 35//18 13//18 15//18
f 9//18 36//18 37//18
f 26//19 39//19 38//19
f 26//19 24//19 39//19
f 20//19 40//19 22//19
f 18//19 40//19 20//19
f 16//19 40//19 18//19
f 12//19 41//19 14//19
f 10//19 41//19 12//19
f 39//19 22//19 40//19
f 39//19 24//19 22//19
f 40//19 14//19 41//19
f 40//19 16//19 14//19
f 10//19 42//19 41//19
f 43//19 44//19 45//19
f 45//19 46//19 43//19
f 47//18 48//18 49//18
f 49//18 50//18 47//18
f 45//19 44//19 51//19
f 51//19 52//19 45//19
f 54//20 53//20 57//20
f 58//21 78//21 59//21
f 61//22 62//22 60//22
f 66//23 68//23 65//23
f 67//24 61//24 60//24
f 69//25 70//25 71//25
f 76//26 77//26 78//26
f 79//27 80//27 81//27
f 79//28 81//28 82//28
f 85//29 118//29 86//29
f 55//30 56//30 87//30
f 87//31 88//31 55//31
f 73//32 64//32 72//32
f 74//33 75//33 73//33
f 73//34 72//34 74//34
f 89//35 90//35 91//35
f 67//36 60//36 68//36
f 53//37 54//37 92//37
f 94//38 62//38 93//38
f 76//39 95//39 77//39
f 96//40 97//40 84//40
f 84//41 98//41 83//41
f 101//42 71//42 75//42
f 102//43 108//43 110//43
f 103//44 55//44 104//44
f 91//45 107//45 89//45
f 98//46 66//46 65//46
f 66//47 67//47 68//47
f 109//48 81//48 80//48
f 83//49 96//49 84//49
f 61//50 93//50 62//50
f 101//51 69//51 71//51
f 88//52 87//52 112//52
f 112//53 113//53 88//53
f 104//54 114//54 103//54
f 64//55 63//55 72//55
f 126//56 106//56 105//56
f 106//57 112//57 105//57
f 65//58 83//58 98//58
f 117//59 85//59 86//59
f 93//60 118//60 94//60
f 85//61 94//61 118//61
f 58//62 76//62 78//62
f 95//63 54//63 57//63
f 119//64 132//64 120//64
f 92//65 120//65 53//65
f 74//66 101//66 75//66
f 111//67 102//67 110//67
f 121//68 89//68 107//68
f 104//69 124//69 114//69
f 64//70 125//70 63//70
f 96//71 128//71 97//71
f 115//72 97//72 128//72
f 128//73 116//73 115//73
f 59//74 79//74 82//74
f 82//75 58//75 59//75
f 80//76 134//76 109//76
f 123//77 121//77 107//77
f 123//78 107//78 122//78
f 69//79 108//79 70//79
f 57//80 77//80 95//80
f 99//81 129//81 100//81
f 129//82 63//82 125//82
f 103//83 56//83 55//83
f 105//84 127//84 126//84
f 127//85 91//85 90//85
f 124//86 123//86 122//86
f 122//87 114//87 124//87
f 131//88 99//88 130//88
f 100//89 130//89 99//89
f 102//90 70//90 108//90
f 117//91 86//91 115//91
f 116//92 117//92 115//92
f 133//93 134//93 132//93
f 92//94 119//94 120//94
f 90//95 126//95 127//95
f 112//96 106//96 113//96
f 110//97 131//97 111//97
f 130//98 111//98 131//98
f 119//99 133//99 132//99
f 125//100 100//100 129//100
f 134//101 133//101 109//101
f 48//18 47//18 135//18
f 135//18 136//18 48//18
f 43//19 46//19 137//19
f 137//19 138//19 43//19
f 139//102 140//102 37//102
f 37//102 42//102 139//102
f 36//103 41//103 42//103
f 42//103 37//103 36//103
f 41//104 36//104 35//104
f 35//104 40//104 41//104
f 40//105 35//105 39//105
f 34//105 39//105 35//105
f 33//106 38//106 39//106
f 39//107 34//107 33//107
f 33//108 141//108 38//108
f 142//109 143//109 140//109
f 140//109 139//109 142//109
f 141//110 33//110 144//110
f 43//111 145//111 146//111
f 45//112 147//112 73//112
f 73//113 46//113 45//113
f 48//114 73//114 147//114
f 135//115 148//115 149//115
f 149//115 136//115 135//115
f 148//115 138//115 137//115
f 137//115 149//115 148//115
f 130//116 48//116 136//116
f 100//117 48//117 130//117
f 125//116 48//116 100//116
f 111//118 136//118 102//118
f 130//119 136//119 111//119
f 70//120 102//120 149//120
f 71//121 70//121 149//121
f 75//122 71//122 149//122
f 73//123 75//123 149//123
f 48//118 125//118 64//118
f 48//124 64//124 73//124
f 136//125 149//125 102//125
f 91//125 73//125 149//125
f 127//118 73//118 91//118
f 105//118 73//118 127//118
f 107//125 149//125 122//125
f 91//120 149//120 107//120
f 114//123 122//123 137//123
f 46//125 112//125 87//125
f 103//120 114//120 137//120
f 56//126 103//126 137//126
f 46//120 87//120 56//120
f 46//125 56//125 137//125
f 73//127 105//127 112//127
f 73//118 112//118 46//118
f 149//125 137//125 122//125
f 90//128 148//128 145//128
f 126//129 90//129 145//129
f 106//111 126//111 145//111
f 121//130 123//130 148//130
f 89//131 121//131 148//131
f 90//132 89//132 148//132
f 124//129 138//129 123//129
f 43//128 113//128 106//128
f 104//133 138//133 124//133
f 43//132 88//132 113//132
f 55//132 138//132 104//132
f 43//134 55//134 88//134
f 43//128 138//128 55//128
f 145//128 43//128 106//128
f 148//132 123//132 138//132
f 99//128 135//128 47//128
f 129//128 99//128 47//128
f 63//128 129//128 47//128
f 110//132 108//132 135//132
f 131//128 110//128 135//128
f 99//128 131//128 135//128
f 69//128 148//128 108//128
f 145//135 72//135 63//135
f 101//128 148//128 69//128
f 145//136 74//136 72//136
f 145//137 101//137 74//137
f 145//128 148//128 101//128
f 47//128 145//128 63//128
f 135//132 108//132 148//132
f 95//138 49//138 48//138
f 76//116 49//116 95//116
f 58//139 49//139 76//139
f 92//140 48//140 119//140
f 54//138 48//138 92//138
f 95//141 48//141 54//141
f 133//142 119//142 147//142
f 109//120 133//120 147//120
f 48//143 147//143 119//143
f 115//125 147//125 97//125
f 86//120 147//120 115//120
f 84//144 97//144 45//144
f 52//126 61//126 67//126
f 98//145 84//145 45//145
f 52//121 67//121 66//121
f 66//146 98//146 45//146
f 52//147 66//147 45//147
f 147//148 45//148 97//148
f 150//128 152//128 153//128
f 153//132 151//132 150//132
f 144//149 154//149 155//149
f 141//150 144//150 155//150
f 155//151 156//151 141//151
f 143//152 142//152 151//152
f 151//152 153//152 143//152
f 153//153 2//153 3//153
f 153//154 3//154 5//154
f 153//155 5//155 7//155
f 153//156 7//156 9//156
f 153//157 9//157 37//157
f 153//158 37//158 140//158
f 153//159 140//159 143//159
f 154//160 144//160 33//160
f 27//161 29//161 154//161
f 31//162 154//162 29//162
f 25//163 27//163 154//163
f 2//164 153//164 154//164
f 2//165 154//165 31//165
f 33//166 25//166 154//166
f 151//167 4//167 1//167
f 151//168 6//168 4//168
f 151//169 8//169 6//169
f 151//170 10//170 8//170
f 151//171 42//171 10//171
f 151//172 139//172 42//172
f 151//173 142//173 139//173
f 28//174 156//174 30//174
f 32//175 30//175 156//175
f 26//176 156//176 28//176
f 1//177 156//177 151//177
f 1//178 32//178 156//178
f 38//179 156//179 26//179
f 38//180 141//180 156//180
f 145//181 157//181 158//181
f 158//181 146//181 145//181
f 157//182 152//182 150//182
f 150//182 158//182 157//182
f 52//183 51//183 159//183
f 159//184 160//184 52//184
f 161//185 162//185 163//185
f 163//186 164//186 161//186
f 164//187 163//187 165//187
f 49//188 166//188 167//188
f 167//189 50//189 49//189
f 81//120 109//120 147//120
f 49//140 58//140 166//140
f 166//123 58//123 164//123
f 166//190 164//190 168//190
f 82//122 81//122 147//122
f 164//122 82//122 147//122
f 58//123 82//123 164//123
f 61//119 52//119 160//119
f 147//120 86//120 118//120
f 93//191 164//191 147//191
f 93//125 147//125 118//125
f 160//190 169//190 161//190
f 61//191 164//191 93//191
f 160//190 161//190 164//190
f 160//191 164//191 61//191
f 50//192 167//192 170//192
f 170//193 171//193 50//193
f 165//194 163//194 172//194
f 172//195 173//195 165//195
f 163//196 162//196 174//196
f 174//197 172//197 163//197
f 159//198 51//198 175//198
f 175//199 176//199 159//199
f 172//200 174//200 177//200
f 172//201 178//201 173//201
f 171//202 170//202 179//202
f 179//203 180//203 171//203
f 170//204 181//204 182//204
f 182//205 179//205 170//205
f 181//206 178//206 154//206
f 154//207 182//207 181//207
f 178//208 172//208 155//208
f 155//209 154//209 178//209
f 172//210 177//210 156//210
f 156//211 155//211 172//211
f 177//212 183//212 184//212
f 184//213 156//213 177//213
f 183//214 176//214 185//214
f 185//215 184//215 183//215
f 176//216 175//216 186//216
f 186//217 185//217 176//217
f 47//18 50//18 171//18
f 47//18 171//18 180//18
f 44//19 175//19 51//19
f 44//19 186//19 175//19
f 153//218 182//218 154//218
f 152//219 179//219 182//219
f 182//220 153//220 152//220
f 151//221 156//221 184//221
f 150//222 151//222 184//222
f 184//223 185//223 150//223
f 150//224 185//224 186//224
f 150//225 186//225 158//225
f 146//226 158//226 186//226
f 152//227 180//227 179//227
f 152//228 157//228 180//228
f 145//229 180//229 157//229
f 116//230 128//230 187//230
f 188//231 189//231 62//231
f 117//232 116//232 190//232
f 120//233 132//233 191//233
f 192//234 193//234 65//234
f 194//235 195//235 134//235
f 196//236 197//236 78//236
f 62//237 94//237 198//237
f 198//238 188//238 62//238
f 201//239 202//239 79//239
f 200//240 191//240 132//240
f 128//241 96//241 203//241
f 203//242 204//242 128//242
f 80//243 79//243 202//243
f 202//244 205//244 80//244
f 207//245 208//245 53//245
f 205//246 199//246 80//246
f 187//247 190//247 116//247
f 191//248 210//248 120//248
f 212//249 213//249 85//249
f 68//250 60//250 211//250
f 211//251 206//251 68//251
f 78//252 77//252 196//252
f 77//253 57//253 216//253
f 209//254 216//254 57//254
f 216//255 217//255 77//255
f 83//256 65//256 193//256
f 79//257 59//257 201//257
f 218//258 192//258 65//258
f 65//259 68//259 218//259
f 96//260 83//260 215//260
f 215//261 203//261 96//261
f 53//262 120//262 207//262
f 94//263 85//263 213//263
f 213//264 198//264 94//264
f 60//265 62//265 189//265
f 189//266 211//266 60//266
f 204//267 187//267 128//267
f 193//268 215//268 83//268
f 132//269 134//269 195//269
f 190//270 214//270 117//270
f 59//271 78//271 197//271
f 197//272 219//272 59//272
f 219//273 201//273 59//273
f 210//274 207//274 120//274
f 206//275 218//275 68//275
f 134//276 80//276 199//276
f 199//277 194//277 134//277
f 195//278 200//278 132//278
f 57//279 53//279 208//279
f 208//279 209//279 57//279
f 217//280 196//280 77//280
f 85//281 117//281 214//281
f 214//282 212//282 85//282
f 212//283 214//283 220//283
f 220//284 221//284 212//284
f 196//285 217//285 222//285
f 209//286 208//286 223//286
f 223//287 224//287 209//287
f 225//288 226//288 197//288
f 200//289 195//289 227//289
f 227//290 228//290 200//290
f 194//291 199//291 229//291
f 229//292 230//292 194//292
f 218//293 206//293 231//293
f 207//294 210//294 232//294
f 201//295 219//295 226//295
f 226//296 233//296 201//296
f 219//297 197//297 226//297
f 214//298 190//298 234//298
f 234//299 220//299 214//299
f 235//300 236//300 213//300
f 238//301 222//301 217//301
f 215//302 193//302 239//302
f 239//303 240//303 215//303
f 187//304 204//304 237//304
f 237//305 241//305 187//305
f 211//306 189//306 242//306
f 198//307 213//307 236//307
f 232//308 243//308 207//308
f 203//309 215//309 240//309
f 240//310 244//310 203//310
f 231//311 245//311 218//311
f 192//312 218//312 245//312
f 217//313 216//313 246//313
f 246//314 238//314 217//314
f 216//315 209//315 224//315
f 224//316 246//316 216//316
f 222//317 225//317 196//317
f 245//318 239//318 192//318
f 236//319 248//319 198//319
f 249//320 242//320 189//320
f 206//321 211//321 250//321
f 213//322 212//322 221//322
f 221//323 235//323 213//323
f 242//324 250//324 211//324
f 210//325 191//325 251//325
f 251//326 232//326 210//326
f 190//327 187//327 241//327
f 241//328 234//328 190//328
f 199//329 205//329 252//329
f 252//330 229//330 199//330
f 208//331 207//331 243//331
f 243//332 223//332 208//332
f 250//333 231//333 206//333
f 205//334 202//334 247//334
f 247//335 252//335 205//335
f 204//336 203//336 244//336
f 244//337 237//337 204//337
f 248//338 249//338 188//338
f 191//339 200//339 228//339
f 228//340 251//340 191//340
f 202//341 201//341 233//341
f 233//342 247//342 202//342
f 188//343 198//343 248//343
f 197//344 196//344 225//344
f 195//345 194//345 230//345
f 230//346 227//346 195//346
f 193//347 192//347 239//347
f 189//348 188//348 249//348
f 251//349 181//349 232//349
f 170//350 223//350 243//350
f 166//351 225//351 222//351
f 232//352 170//352 243//352
f 232//353 181//353 170//353
f 226//354 225//354 166//354
f 226//355 166//355 168//355
f 168//356 164//356 165//356
f 233//357 168//357 165//357
f 226//358 168//358 233//358
f 247//359 233//359 165//359
f 247//360 165//360 252//360
f 230//361 229//361 173//361
f 227//362 230//362 173//362
f 228//363 227//363 178//363
f 251//364 228//364 178//364
f 181//365 251//365 178//365
f 165//366 173//366 229//366
f 165//367 229//367 252//367
f 173//368 178//368 227//368
f 240//369 239//369 176//369
f 244//370 183//370 237//370
f 244//371 176//371 183//371
f 244//372 240//372 176//372
f 159//373 231//373 250//373
f 159//374 245//374 231//374
f 245//375 176//375 239//375
f 159//376 176//376 245//376
f 174//377 241//377 177//377
f 174//378 234//378 241//378
f 237//379 177//379 241//379
f 237//380 183//380 177//380
f 236//381 235//381 162//381
f 220//382 234//382 174//382
f 221//383 220//383 174//383
f 162//384 235//384 221//384
f 221//385 174//385 162//385
f 169//386 162//386 161//386
f 162//387 248//387 236//387
f 249//388 162//388 169//388
f 249//389 248//389 162//389
f 160//390 249//390 169//390
f 160//391 242//391 249//391
f 160//392 250//392 242//392
f 250//393 160//393 159//393
f 167//394 166//394 222//394
f 246//395 170//395 167//395
f 238//396 246//396 167//396
f 222//397 238//397 167//397
f 224//398 223//398 170//398
f 246//399 224//399 170//399
f 146//132 44//132 43//132
f 146//400 186//400 44//400
f 145//401 47//401 180//401
