# Blender 5.0.1
# www.blender.org
mtllib torso_y_link_visual_51.mtl
o i01.torso.full.053_visual.001
v -0.078903 0.001820 0.511395
v -0.078914 0.066521 0.416903
v -0.078902 -0.008718 0.373978
v -0.033810 0.090018 0.505594
v -0.078907 0.081816 0.472172
v -0.078902 0.087506 0.505740
v -0.033805 0.043989 0.508622
v -0.033805 0.001820 0.511395
v 0.003545 0.000600 0.492842
v 0.272556 0.000600 0.492842
v 0.003545 0.042769 0.490069
v 0.272556 0.042769 0.490069
v 0.272557 0.065835 0.507184
v -0.033800 0.010375 0.374501
v 0.272556 0.010402 0.374499
v 0.272512 0.042327 0.424694
v 0.272557 0.060313 0.493228
v 0.261899 0.060221 0.486374
v 0.256956 0.050784 0.446671
v 0.253909 0.053949 0.460392
v 0.223555 0.046074 0.415334
v 0.233749 0.034322 0.372929
v 0.207444 0.038273 0.372696
v 0.240968 0.049294 0.436424
v 0.225306 0.066553 0.416749
v 0.242986 0.069739 0.438124
v 0.256091 0.074563 0.462369
v 0.232181 0.075154 0.459498
v 0.264192 0.080864 0.488694
v 0.270503 0.067820 0.511146
v 0.245126 0.084083 0.497128
v 0.273041 0.088551 0.513790
v 0.247354 0.099660 0.546530
v 0.277813 0.091180 0.546682
v 0.310200 0.079358 0.514338
v 0.329607 0.073323 0.548006
v 0.358051 0.063402 0.515370
v 0.304690 0.059578 0.511693
v 0.355402 0.042791 0.512678
v 0.410336 0.036276 0.517129
v 0.309616 0.056859 0.507795
v 0.413769 0.013003 0.514629
v 0.361771 0.038377 0.509205
v 0.272558 -0.023402 0.513010
v 0.409975 0.013331 0.510815
v 0.429041 0.006486 0.511091
v 0.429041 0.007682 0.514997
v 0.429041 0.029432 0.517593
v 0.429041 0.051501 0.472839
v 0.412650 0.077088 0.554520
v 0.429041 -0.023399 0.513053
v 0.429034 0.015956 0.372459
v 0.428976 0.075836 0.554575
v 0.409095 0.051684 0.474632
v 0.395738 0.037047 0.433299
v 0.391464 0.030060 0.416480
v 0.398788 0.016936 0.372435
v 0.387655 0.037634 0.431838
v 0.391481 0.022119 0.417180
v 0.387901 0.023078 0.432095
v 0.378172 0.046139 0.443555
v 0.390566 0.054047 0.473765
v 0.372729 0.064285 0.483482
v 0.393006 0.080648 0.554272
v 0.388734 0.047937 0.556450
v 0.370857 0.087474 0.553852
v 0.328496 0.110448 0.552356
v 0.342295 0.070020 0.452689
v 0.331574 0.079439 0.554392
v 0.325913 0.077764 0.552809
v 0.240366 0.110176 0.552326
v 0.304833 0.120096 0.551687
v 0.300408 0.088410 0.449044
v 0.281876 0.080176 0.402947
v 0.240604 0.139958 0.550329
v 0.240177 0.089337 0.498971
v 0.238960 0.121527 0.492931
v 0.232300 0.116301 0.471278
v 0.233145 0.082311 0.474013
v 0.221536 0.112417 0.451340
v 0.251094 0.078206 0.368354
v 0.206575 0.103971 0.365721
v 0.165670 0.095410 0.367146
v 0.207306 0.109841 0.434002
v 0.300268 0.061544 0.369475
v 0.429025 0.103869 0.365038
v 0.298551 0.069725 0.391838
v 0.322339 0.055524 0.387453
v 0.329581 0.046236 0.370464
v 0.335785 0.045936 0.379668
v 0.353235 0.034508 0.377322
v 0.361405 0.027941 0.371675
v 0.380780 0.019645 0.372224
v 0.367536 0.027968 0.380873
v 0.356489 0.019510 0.378570
v 0.368887 0.019798 0.382008
v 0.380583 0.024722 0.389637
v 0.388876 0.021125 0.402376
v 0.382420 0.020282 0.392461
v 0.388876 0.026115 0.402048
v 0.366010 0.007525 0.418734
v 0.363582 0.006515 0.408863
v 0.365943 -0.029484 0.420517
v 0.363299 -0.030069 0.411626
v 0.353845 -0.030532 0.404577
v 0.353236 0.006305 0.402043
v 0.344280 0.006219 0.402914
v 0.335829 0.019729 0.381367
v 0.322261 0.020239 0.389860
v 0.336556 0.006414 0.408081
v 0.309617 0.022159 0.417386
v 0.333028 0.007418 0.418331
v 0.333185 -0.029677 0.417578
v 0.313171 0.021125 0.402376
v 0.339979 -0.030361 0.407182
v 0.272556 -0.032442 0.375538
v -0.078905 -0.094997 0.379649
v 0.429041 -0.032442 0.375536
v 0.429041 -0.094997 0.379649
v 0.272556 -0.008879 0.373986
v 0.400273 -0.097391 0.343246
v 0.429041 -0.148058 -0.427383
v 0.400263 -0.136807 -0.256189
v 0.429041 0.088958 0.265889
v 0.429041 0.005457 -0.289371
v 0.429041 -0.066013 -0.284672
v 0.069900 0.103993 0.366216
v -0.141967 0.093081 0.293154
v 0.093467 0.005457 -0.289371
v 0.093462 -0.016395 -0.434459
v 0.093467 -0.066013 -0.284672
v 0.305788 -0.070025 -0.345695
v 0.093467 -0.075608 -0.430599
v 0.297443 -0.070786 -0.357269
v 0.290810 -0.075615 -0.430750
v 0.342015 -0.075609 -0.430663
v 0.300316 -0.071654 -0.370469
v 0.317250 -0.072098 -0.377223
v 0.209217 -0.031223 -0.435069
v 0.307695 -0.072027 -0.376144
v 0.263676 -0.044188 -0.434248
v 0.317776 -0.061771 -0.433126
v 0.289614 -0.056501 -0.507110
v 0.346049 -0.069890 -0.508164
v 0.259967 -0.044420 -0.477547
v 0.366367 -0.073229 -0.432359
v 0.396041 -0.075479 -0.431456
v 0.330481 -0.071004 -0.360588
v 0.327413 -0.071655 -0.370477
v 0.429032 -0.071231 -0.432464
v 0.429041 -0.075609 -0.430617
v 0.402354 -0.073316 -0.509043
v 0.306563 -0.090951 -0.505551
v 0.429039 -0.091152 -0.508171
v 0.429027 -0.073455 -0.509046
v 0.429030 -0.088595 -0.469235
v 0.278139 -0.088398 -0.466766
v 0.429041 -0.121858 -0.429106
v 0.335632 -0.124316 -0.466388
v 0.429040 -0.124316 -0.466486
v 0.230084 -0.093437 -0.464662
v 0.354685 -0.121829 -0.429107
v 0.261935 -0.148058 -0.427382
v 0.228821 -0.088877 -0.431280
v 0.185878 -0.081093 -0.431814
v 0.203694 -0.088778 -0.464447
v 0.203637 -0.110612 -0.462975
v 0.178854 -0.064677 -0.465478
v 0.176865 -0.068698 -0.492612
v 0.136365 -0.100137 -0.462523
v 0.088968 -0.054327 -0.465001
v 0.129193 -0.062845 -0.492427
v 0.250750 -0.080363 -0.466164
v 0.231676 -0.079299 -0.493087
v 0.200510 -0.071860 -0.498345
v 0.269031 -0.088546 -0.496586
v 0.292562 -0.090767 -0.503116
v 0.193604 -0.067523 -0.502478
v 0.143903 -0.063483 -0.498056
v 0.130861 -0.059310 -0.502147
v 0.184555 -0.061975 -0.504076
v 0.076601 -0.053709 -0.502984
v 0.259648 -0.047080 -0.506754
v 0.166653 -0.028816 -0.506004
v 0.072725 -0.020147 -0.505650
v 0.205473 -0.033166 -0.480046
v 0.120337 -0.019201 -0.435923
v 0.093501 -0.017854 -0.436112
v 0.033186 -0.016063 -0.435372
v -0.012918 -0.020291 -0.505610
v -0.023857 -0.016860 -0.435793
v -0.141924 -0.004977 -0.358756
v -0.084415 -0.016217 -0.433588
v -0.134855 -0.009245 -0.387128
v -0.142171 -0.025209 -0.234886
v -0.142025 -0.019126 -0.142269
v -0.140961 -0.029157 -0.365060
v -0.134779 -0.028814 -0.387394
v -0.183839 -0.035923 -0.350314
v -0.246449 -0.050807 -0.364849
v -0.095309 -0.027905 -0.505859
v -0.126489 -0.027921 -0.403534
v -0.200558 -0.036222 -0.265082
v -0.280319 -0.057194 -0.315049
v -0.186022 -0.043487 -0.478637
v -0.145347 -0.036360 -0.506163
v -0.228978 -0.056358 -0.506953
v -0.225133 -0.085782 -0.504885
v -0.331563 -0.092162 -0.508257
v -0.299622 -0.071428 -0.434381
v -0.337409 -0.069066 -0.241321
v -0.376678 -0.085343 -0.274237
v -0.372430 -0.093688 -0.397015
v -0.429018 -0.102064 -0.238659
v -0.429020 -0.115336 -0.376291
v -0.429002 -0.129221 -0.204157
v -0.428890 -0.152723 -0.422342
v -0.428976 -0.122039 -0.421189
v -0.424020 -0.125792 -0.447855
v -0.398743 -0.119505 -0.484568
v -0.377330 -0.142568 -0.496559
v -0.403982 -0.152043 -0.477286
v -0.393386 -0.148457 -0.486643
v -0.412822 -0.123732 -0.468616
v -0.348971 -0.100110 -0.507841
v -0.377330 -0.111822 -0.498581
v -0.359465 -0.135398 -0.503275
v -0.344191 -0.128242 -0.506454
v -0.356440 -0.137801 -0.502083
v -0.348491 -0.137942 -0.499356
v -0.339470 -0.130379 -0.504813
v -0.376025 -0.145696 -0.494891
v -0.372459 -0.147744 -0.490758
v -0.355954 -0.143008 -0.491185
v -0.392030 -0.151565 -0.485004
v -0.388340 -0.153561 -0.480952
v -0.397211 -0.158017 -0.465081
v -0.415507 -0.161271 -0.434103
v -0.357912 -0.142947 -0.449059
v -0.386172 -0.149571 -0.410380
v -0.372678 -0.147022 -0.435118
v -0.404829 -0.158943 -0.465477
v -0.419172 -0.161532 -0.438882
v -0.423298 -0.158716 -0.419493
v -0.422788 -0.159609 -0.443541
v -0.427334 -0.156499 -0.421469
v -0.427588 -0.148446 -0.367108
v -0.427403 -0.132615 -0.203416
v -0.423589 -0.151316 -0.370309
v -0.418335 -0.150971 -0.365180
v -0.423527 -0.135422 -0.208970
v -0.418310 -0.137692 -0.227378
v -0.418296 -0.129448 -0.165095
v -0.423660 -0.086505 0.096239
v -0.417705 -0.087858 0.091637
v -0.427673 -0.079757 0.118155
v -0.422409 -0.075274 0.153579
v -0.418557 -0.059521 0.214343
v -0.390698 -0.068445 0.161943
v -0.427585 -0.060946 0.197965
v -0.423759 -0.057461 0.219255
v -0.422432 -0.032575 0.303682
v -0.418646 -0.008501 0.375345
v -0.390591 -0.023021 0.321841
v -0.423185 0.024800 0.472712
v -0.427688 -0.025060 0.316092
v -0.427580 0.028257 0.474730
v -0.428981 0.031357 0.474688
v -0.429008 -0.067150 0.164309
v -0.429024 -0.053169 0.075011
v -0.428981 -0.043905 0.123531
v -0.429041 -0.025532 0.200783
v -0.400372 0.001155 0.254893
v -0.378854 -0.012450 0.189387
v -0.429039 0.006025 0.305169
v -0.349758 -0.019287 0.124928
v -0.287636 0.003400 0.158249
v -0.295099 -0.017458 0.069120
v -0.335654 0.003131 0.199451
v -0.341120 -0.029036 0.063935
v -0.358611 -0.053676 -0.069411
v -0.285463 -0.032356 -0.049932
v -0.335113 -0.063089 -0.189797
v -0.254192 -0.020106 -0.004019
v -0.283856 -0.048112 -0.177907
v -0.225736 -0.032697 -0.151635
v -0.277825 -0.052127 -0.240461
v -0.206130 -0.032881 -0.197313
v -0.166508 -0.019436 -0.113097
v -0.203303 -0.013704 -0.016685
v -0.142021 -0.004883 -0.000852
v -0.189409 -0.000172 0.061608
v -0.142021 0.006942 0.074528
v -0.142212 0.019120 0.132675
v -0.141956 0.037873 0.198192
v -0.182270 0.016967 0.139946
v -0.227128 0.031467 0.211863
v -0.181269 0.036496 0.206073
v -0.238657 -0.002669 0.088717
v -0.233911 0.012722 0.152909
v -0.279390 0.017061 0.200084
v -0.337475 0.022009 0.255028
v -0.278419 0.047949 0.288273
v -0.208796 0.090548 0.370015
v -0.329540 0.063790 0.370277
v -0.202678 0.050956 0.257023
v -0.334607 0.039788 0.307489
v -0.274072 0.109067 0.461686
v -0.196840 0.152217 0.549764
v -0.343724 0.104776 0.504993
v -0.270088 0.137897 0.550713
v -0.168875 0.127624 0.458508
v -0.115537 0.162320 0.549078
v -0.116173 0.118594 0.416458
v -0.072389 0.147538 0.493257
v -0.168030 0.084796 0.336609
v -0.114723 0.094196 0.349667
v -0.140192 0.074947 0.302398
v -0.134756 0.082048 0.320387
v -0.125961 0.088658 0.336867
v -0.114862 0.101280 0.347824
v -0.126262 0.099270 0.334459
v -0.134841 0.096798 0.318024
v -0.096861 0.103183 0.360444
v -0.060531 0.104240 0.366434
v -0.004598 0.105869 0.366755
v -0.018594 0.167698 0.548660
v -0.087158 0.101930 0.365005
v -0.099740 0.099227 0.360069
v 0.008462 0.149826 0.494882
v 0.007200 0.134034 0.550332
v 0.016120 0.141252 0.469559
v 0.007351 0.166695 0.548401
v 0.015885 0.107493 0.470891
v 0.027041 0.103491 0.451608
v 0.026975 0.134443 0.449694
v 0.041520 0.128247 0.432385
v 0.059523 0.122510 0.418038
v 0.040617 0.094900 0.434655
v 0.025594 0.099965 0.451440
v 0.033356 0.092289 0.434854
v 0.058685 0.089035 0.420190
v 0.079179 0.083680 0.409341
v 0.079289 0.117655 0.407785
v 0.067076 0.082029 0.409675
v 0.099272 0.075918 0.398430
v 0.054979 0.082539 0.408572
v 0.101968 0.079742 0.402641
v 0.124623 0.079528 0.401312
v 0.101837 0.113890 0.401187
v 0.123326 0.072718 0.395954
v 0.124343 0.075869 0.400032
v 0.146813 0.075095 0.403287
v 0.162108 0.069349 0.401172
v 0.169234 0.073793 0.409853
v 0.168975 0.108233 0.408346
v 0.147898 0.109026 0.401841
v 0.124416 0.110960 0.399231
v 0.189063 0.108410 0.419096
v 0.189273 0.074358 0.420813
v 0.207425 0.075527 0.435564
v 0.222234 0.078474 0.453665
v 0.197678 0.069470 0.419473
v 0.179254 0.064729 0.386036
v 0.203673 0.064946 0.399096
v 0.202481 0.044692 0.397951
v 0.173773 0.042337 0.372406
v 0.177923 0.044268 0.384878
v 0.154433 0.045198 0.377609
v 0.154451 0.065698 0.378359
v 0.124420 0.047560 0.373967
v 0.077695 0.051625 0.371797
v 0.124765 0.068150 0.374982
v 0.096849 0.051136 0.376413
v 0.070382 0.055544 0.384175
v 0.096804 0.071736 0.377593
v 0.110137 0.072189 0.390093
v 0.070348 0.076154 0.385395
v 0.046169 0.082164 0.397944
v 0.042483 0.062700 0.398797
v 0.014592 0.056178 0.371494
v -0.010123 0.074731 0.431905
v 0.025014 0.068280 0.413714
v 0.007481 0.075755 0.434594
v 0.024509 0.089041 0.415275
v 0.006832 0.096584 0.436361
v 0.011381 0.099845 0.455780
v 0.011509 0.104383 0.469797
v 0.002974 0.111681 0.492988
v -0.014378 0.113583 0.486571
v -0.006297 0.104840 0.460435
v -0.013521 0.092576 0.484279
v -0.004844 0.083268 0.457002
v -0.016709 0.086029 0.470654
v -0.026016 0.090987 0.509557
v -0.033801 0.085604 0.473953
v -0.033795 0.055405 0.371584
v -0.015875 0.096179 0.508050
v -0.110427 0.104420 0.512510
v -0.132295 0.084000 0.513937
v -0.027477 0.111626 0.512131
v -0.016761 0.117234 0.510616
v -0.033532 0.124806 0.541926
v -0.112649 0.122763 0.546228
v -0.018199 0.128728 0.546789
v 0.001841 0.127828 0.546928
v -0.183310 0.113488 0.546266
v -0.182343 0.119109 0.550642
v -0.108670 0.127387 0.550067
v -0.229333 0.089257 0.513580
v -0.251700 0.101134 0.547047
v -0.314488 0.070280 0.514969
v -0.229890 0.070928 0.514704
v -0.316464 0.051518 0.516195
v -0.136757 0.077458 0.492599
v -0.221087 0.063487 0.491826
v -0.285154 0.052266 0.498770
v -0.300595 0.021946 0.424331
v -0.341673 0.042256 0.512154
v -0.233560 0.043981 0.442040
v -0.153276 0.057383 0.435752
v -0.173967 0.005096 0.283626
v -0.225511 -0.001212 0.296929
v -0.241450 -0.039811 0.176940
v -0.185513 -0.028642 0.173983
v -0.279138 -0.021037 0.276587
v -0.390706 -0.023693 0.374100
v -0.337329 -0.050042 0.238174
v -0.313522 -0.065043 0.153138
v -0.390729 -0.064596 0.247561
v -0.390729 -0.052106 0.225132
v -0.390693 -0.093867 0.130516
v -0.390700 -0.124224 -0.177514
v -0.390699 -0.081240 0.096388
v -0.390686 -0.137644 -0.146651
v -0.316362 -0.099249 -0.039696
v -0.320829 -0.082985 0.073843
v -0.247188 -0.066483 0.055120
v -0.230956 -0.048374 0.130291
v -0.247298 -0.075823 -0.007214
v -0.246785 -0.089069 -0.117193
v -0.185717 -0.057282 0.031646
v -0.200503 -0.076334 -0.103676
v -0.214050 -0.090470 -0.245692
v -0.162457 -0.076985 -0.221704
v -0.142109 -0.067160 -0.121625
v -0.142021 -0.050961 0.026590
v -0.141815 -0.143225 -0.353819
v -0.142021 -0.033330 0.124647
v -0.142014 -0.100590 0.294579
v -0.110661 -0.106675 0.202062
v -0.110403 -0.105569 0.218873
v -0.110402 -0.114540 0.082449
v -0.140229 -0.099335 0.313684
v -0.110063 -0.101737 0.277123
v -0.110613 -0.115629 0.065935
v -0.142020 -0.013857 0.201878
v -0.141056 0.016470 0.302362
v -0.134841 -0.098132 0.331975
v -0.134841 0.024439 0.323915
v -0.126203 -0.097036 0.348647
v -0.126206 0.030959 0.340227
v -0.114723 -0.096145 0.362185
v -0.109376 0.050341 0.390573
v -0.114671 0.036877 0.353481
v -0.097295 0.043793 0.365196
v -0.097424 -0.095346 0.374342
v -0.086412 -0.098456 0.327048
v -0.071536 -0.097743 0.337886
v -0.053960 -0.097391 0.343246
v -0.007241 0.058536 0.317369
v 0.006152 0.060064 0.327703
v 0.018049 0.060651 0.331677
v 0.051965 0.042427 0.208374
v -0.016488 0.056749 0.305274
v 0.254213 0.060651 0.331677
v 0.051966 0.022978 0.073069
v 0.051966 0.040420 0.191805
v 0.399940 0.060580 0.331671
v 0.051966 0.020572 0.056791
v 0.051966 -0.000584 -0.091040
v 0.399942 -0.027184 -0.262597
v 0.088661 -0.030034 -0.264063
v 0.092572 -0.136922 -0.257948
v 0.051966 -0.003632 -0.105486
v -0.110402 -0.126384 -0.097679
v 0.051966 -0.025177 -0.249022
v -0.028953 -0.007896 -0.132134
v -0.029406 -0.005069 -0.125196
v -0.110402 -0.125419 -0.083009
v -0.029754 0.001608 -0.072259
v -0.110412 -0.120682 -0.010980
v -0.028730 0.017213 0.037129
v -0.110463 -0.127838 -0.119799
v -0.110380 -0.132336 -0.188214
v -0.110402 -0.135906 -0.242496
v -0.029682 -0.022644 -0.230850
v -0.110403 -0.136932 -0.258100
v 0.051965 -0.027235 -0.264515
v 0.065504 -0.032534 -0.280976
v -0.029251 -0.036965 -0.327651
v -0.029657 -0.031061 -0.283207
v -0.110578 -0.140334 -0.309833
v -0.107876 -0.142000 -0.335174
v -0.134840 -0.144922 -0.379603
v -0.096563 -0.143651 -0.360280
v -0.019857 -0.042006 -0.362837
v 0.015507 -0.046618 -0.394120
v -0.008674 -0.044362 -0.378819
v -0.086884 -0.144429 -0.372107
v -0.073699 -0.145091 -0.382180
v -0.100976 -0.147563 -0.419767
v -0.126203 -0.146018 -0.396276
v -0.114723 -0.146908 -0.409813
v -0.114743 -0.079850 -0.414202
v -0.126174 -0.080695 -0.400606
v -0.133984 -0.087529 -0.464338
v -0.134840 -0.081122 -0.383798
v -0.141419 -0.080541 -0.359563
v -0.190909 -0.089292 -0.333047
v -0.241399 -0.103444 -0.327906
v -0.263856 -0.123756 -0.465819
v -0.189848 -0.100803 -0.464851
v -0.135557 -0.069549 -0.465564
v -0.202480 -0.085787 -0.466238
v -0.212639 -0.090629 -0.493571
v -0.259300 -0.104348 -0.467036
v -0.301726 -0.120236 -0.494496
v -0.309455 -0.123581 -0.467924
v -0.326514 -0.131049 -0.464805
v -0.312062 -0.143103 -0.466518
v -0.324992 -0.141305 -0.399609
v -0.342921 -0.155791 -0.457301
v -0.326596 -0.149298 -0.463589
v -0.343082 -0.137692 -0.458442
v -0.390366 -0.165779 -0.387338
v -0.373232 -0.165325 -0.433146
v -0.357945 -0.161167 -0.447835
v -0.385980 -0.167697 -0.409403
v -0.390602 -0.147176 -0.386602
v -0.390698 -0.140059 -0.337535
v -0.390691 -0.158472 -0.336366
v -0.390697 -0.148277 -0.230511
v -0.284079 -0.109322 -0.219464
v -0.272758 -0.118663 -0.378979
v -0.291351 -0.104154 -0.140258
v -0.213340 -0.089468 -0.498955
v -0.286138 -0.113221 -0.499827
v -0.290699 -0.111479 -0.504082
v -0.227331 -0.090523 -0.503250
v -0.160320 -0.073893 -0.502598
v -0.140673 -0.072741 -0.498275
v -0.101565 -0.062672 -0.502196
v -0.113840 -0.060743 -0.503932
v -0.016371 -0.054548 -0.501871
v -0.015619 -0.051121 -0.503583
v 0.025436 -0.056683 -0.497715
v -0.023465 -0.057945 -0.497741
v -0.099172 -0.065258 -0.497979
v -0.096860 -0.065925 -0.492455
v -0.137725 -0.073257 -0.492754
v -0.086057 -0.060521 -0.465219
v -0.014377 -0.058059 -0.492492
v 0.076148 -0.058416 -0.492376
v -0.007983 -0.053285 -0.464946
v 0.012144 -0.093894 -0.462212
v -0.027924 -0.096137 -0.462301
v -0.027956 -0.073100 -0.463802
v -0.027854 -0.071100 -0.432449
v -0.083452 -0.076194 -0.431422
v -0.087635 -0.078961 -0.464027
v -0.100976 -0.078486 -0.424309
v -0.082592 -0.148051 -0.427114
v 0.185919 -0.138666 -0.428000
v -0.059677 -0.145478 -0.388073
v 0.065039 -0.145546 -0.389092
v -0.027924 -0.138666 -0.428002
v -0.027924 -0.146987 -0.462420
v -0.027924 -0.147309 -0.485540
v -0.027924 -0.099808 -0.485201
v 0.184158 -0.147309 -0.485540
v 0.203793 -0.146987 -0.462420
v 0.184084 -0.111603 -0.485764
v 0.164350 -0.144833 -0.509048
v 0.144541 -0.138459 -0.532811
v -0.027924 -0.144833 -0.509048
v 0.164300 -0.109234 -0.508939
v 0.141092 -0.105050 -0.509248
v 0.149684 -0.105469 -0.486124
v 0.143417 -0.100529 -0.533699
v 0.075946 -0.099150 -0.508447
v 0.074977 -0.094184 -0.532270
v 0.124530 -0.088222 -0.556562
v 0.124558 -0.126759 -0.557132
v -0.027924 -0.138459 -0.532811
v -0.027924 -0.126759 -0.557132
v 0.079999 -0.084390 -0.556382
v 0.012142 -0.083108 -0.556310
v 0.000127 -0.093776 -0.531814
v -0.027923 -0.085351 -0.556391
v -0.027923 -0.095525 -0.532185
v 0.000943 -0.098516 -0.508344
v -0.027923 -0.100392 -0.508516
v -0.000413 -0.097994 -0.485416
v 0.075317 -0.098486 -0.484914
v 0.080002 -0.095177 -0.462294
v 0.065029 -0.138044 -0.275008
v 0.065504 -0.046658 -0.394354
v 0.001453 -0.045645 -0.387503
v 0.082338 -0.057969 -0.497822
v 0.287939 -0.142204 -0.341123
v 0.313911 -0.141200 -0.325855
v 0.340150 -0.142173 -0.340664
v 0.287939 -0.111241 -0.343159
v 0.340150 -0.111211 -0.342699
v 0.313911 -0.110237 -0.327890
v 0.328339 -0.111642 -0.349255
v 0.319222 -0.111174 -0.342142
v 0.303119 -0.111387 -0.345374
v 0.311583 -0.111127 -0.341428
v 0.316842 -0.069895 -0.343719
v 0.327619 -0.070350 -0.350639
v 0.298764 -0.111794 -0.351562
v 0.297660 -0.112414 -0.360995
v 0.288205 -0.113219 -0.373240
v 0.302309 -0.112976 -0.369535
v 0.314443 -0.114193 -0.388047
v 0.309920 -0.113271 -0.374030
v 0.319056 -0.113252 -0.373734
v 0.325659 -0.112978 -0.369568
v 0.340416 -0.113189 -0.372779
v 0.330325 -0.112418 -0.361058
v 0.340416 -0.144151 -0.370743
v 0.314443 -0.145155 -0.386012
v 0.288205 -0.144181 -0.371203
v -0.029146 0.036960 0.173596
v -0.030164 0.025345 0.091533
v -0.024008 0.054312 0.288784
v -0.096562 -0.099269 0.314682
v -0.103982 -0.100236 0.299983
v -0.028170 0.051801 0.272159
v -0.029406 0.045324 0.225744
v -0.078903 0.051238 0.370035
v -0.182697 -0.042744 0.108340
v -0.390821 0.005936 0.456089
v -0.390806 0.024288 0.455359
v -0.382437 0.017538 0.480826
v -0.364456 0.030737 0.500429
v -0.362744 0.050007 0.500504
v -0.381812 0.036264 0.480512
v -0.412681 0.039510 0.504582
v -0.419719 0.040578 0.501244
v -0.412856 0.049066 0.514466
v -0.390821 0.055869 0.529114
v -0.338338 0.078919 0.548139
v -0.363168 0.071450 0.544764
v -0.388055 0.066076 0.537830
v -0.340908 0.061020 0.511283
v -0.401197 0.057914 0.527605
v -0.405649 0.087773 0.521807
v -0.387616 0.099360 0.536326
v -0.420210 0.075675 0.501271
v -0.398264 0.066469 0.446801
v -0.428831 0.063565 0.475078
v -0.396428 0.029627 0.335697
v -0.421257 0.044910 0.501493
v -0.364900 0.110598 0.547026
v -0.333845 0.121710 0.551819
v -0.337791 0.086690 0.553513
v -0.363846 0.077292 0.548779
v -0.260913 0.104843 0.551609
v -0.310554 0.087582 0.548191
v -0.238874 0.113560 0.552320
v -0.118010 0.130938 0.551137
v 0.008010 0.116036 0.496739
v -0.142094 0.065474 0.277804
v -0.380419 -0.078687 -0.195401
v -0.428990 -0.093137 -0.171637
v -0.423759 -0.156589 -0.446203
v -0.411374 -0.157567 -0.465075
v -0.412797 -0.154478 -0.466632
v -0.402887 -0.155237 -0.475370
v -0.126261 -0.011719 -0.403586
v -0.114552 -0.026762 -0.417869
v -0.101410 -0.015199 -0.426739
v -0.115115 -0.013700 -0.416759
v -0.100976 -0.025245 -0.427814
v -0.082916 -0.023080 -0.434933
v 0.313171 0.063706 0.399576
v 0.309677 0.070282 0.413756
v 0.312256 0.023078 0.432080
v 0.312256 0.075017 0.428664
v 0.323197 0.076609 0.443574
v 0.323010 0.024071 0.447057
v 0.338365 0.008489 0.430898
v 0.342974 0.024647 0.455854
v 0.334283 0.007926 0.424651
v 0.336511 -0.028754 0.431617
v 0.346780 -0.028396 0.437065
v 0.346488 0.008733 0.434457
v 0.353579 0.008773 0.434428
v 0.354340 -0.028425 0.436622
v 0.362378 0.008212 0.428735
v 0.363401 -0.028865 0.429930
v 0.363039 0.024485 0.453899
v 0.378275 0.023912 0.444906
v 0.362041 0.058670 0.452045
v 0.243070 0.104939 0.550834
v 0.387632 0.044577 0.555150
v 0.390970 0.040328 0.550113
v 0.415243 0.033253 0.555844
v 0.428999 0.031236 0.557132
v 0.429023 0.027050 0.549502
v 0.419597 0.028966 0.550388
vn -1.0000 -0.0002 -0.0000
vn -1.0000 -0.0000 0.0001
vn -0.0000 -0.9971 0.0765
vn -0.0000 0.0656 0.9978
vn -0.0004 0.0659 0.9978
vn 0.4457 0.0587 0.8933
vn 0.0047 -0.9972 0.0749
vn -0.0000 -0.9969 0.0782
vn 0.4456 0.0587 0.8933
vn -1.0000 -0.0000 -0.0000
vn -0.0000 0.9629 -0.2699
vn -0.0001 0.9629 -0.2697
vn -1.0000 -0.0025 0.0007
vn -1.0000 -0.0001 0.0007
vn -0.2228 -0.9065 0.3587
vn -0.1501 -0.9575 0.2463
vn -0.1648 -0.9540 0.2505
vn 0.0196 -0.9733 0.2289
vn -0.0467 -0.9756 0.2147
vn -0.0099 -0.9872 0.1589
vn -0.0465 -0.9793 0.1968
vn -0.1507 -0.9537 0.2603
vn -0.1457 -0.9548 0.2590
vn -0.7726 0.0222 0.6345
vn -0.7721 0.0234 0.6351
vn -0.8828 0.0486 0.4672
vn -0.8827 0.0483 0.4675
vn -0.0506 -0.9739 0.2211
vn -0.0537 -0.9673 0.2480
vn -0.9580 0.0753 0.2768
vn -0.9581 0.0749 0.2766
vn -0.9488 0.0708 0.3078
vn -0.9474 0.0764 0.3107
vn -0.0536 -0.9673 0.2480
vn -0.0275 -0.9530 0.3016
vn -0.0276 -0.9530 0.3017
vn -0.2670 -0.9568 0.1152
vn -0.0446 -0.1210 0.9916
vn -0.2402 -0.9642 0.1119
vn -0.3263 -0.9451 0.0187
vn -0.3165 -0.9485 0.0125
vn -0.0448 -0.1201 0.9917
vn -0.0619 -0.1215 0.9907
vn -0.0578 -0.1165 0.9915
vn -0.0943 -0.1201 0.9883
vn -0.0940 -0.1171 0.9887
vn -0.3037 -0.8200 0.4851
vn -0.3087 -0.9177 0.2500
vn -0.4449 -0.8541 0.2694
vn -0.0034 0.0664 0.9978
vn -0.0008 0.0626 0.9980
vn -0.4387 -0.8208 0.3658
vn 0.0030 0.0486 0.9988
vn -0.3283 -0.9032 0.2765
vn -0.3243 -0.9139 0.2440
vn -0.0651 -0.1183 0.9908
vn 1.0000 -0.0000 -0.0000
vn 0.0743 0.9558 -0.2845
vn -0.0184 0.9531 -0.3022
vn 1.0000 0.0010 0.0005
vn 1.0000 -0.0000 -0.0001
vn -0.0128 0.9426 -0.3338
vn -0.0208 0.9445 -0.3278
vn 0.1334 0.9199 -0.3689
vn 0.0310 0.9495 -0.3122
vn -0.2555 0.9141 -0.3148
vn 0.1395 0.9014 -0.4099
vn -0.9725 -0.0205 -0.2321
vn -0.9729 -0.0224 -0.2302
vn 0.1345 0.9195 -0.3693
vn -0.7856 -0.0242 -0.6183
vn 0.3313 0.8706 -0.3638
vn 0.1345 0.9426 -0.3057
vn 0.3443 0.8883 -0.3039
vn 0.3105 0.8806 -0.3579
vn 0.1731 0.9336 -0.3137
vn -0.0005 0.0665 0.9978
vn 0.0015 0.0662 0.9978
vn 0.2867 0.9121 -0.2930
vn 0.0003 0.0656 0.9978
vn 0.4657 0.8406 -0.2765
vn 0.4361 0.8581 -0.2712
vn 0.0003 0.0657 0.9978
vn -0.1838 -0.2717 0.9447
vn -0.1462 -0.3722 0.9166
vn -0.0003 0.0662 0.9978
vn -0.0015 0.0654 0.9979
vn 0.4060 0.8681 -0.2855
vn 0.3259 0.8993 -0.2917
vn 0.3669 0.8786 -0.3056
vn 0.2884 0.9127 -0.2895
vn -0.0004 0.0669 0.9978
vn -1.0000 0.0080 0.0004
vn -0.9988 -0.0306 0.0384
vn 0.2517 0.9193 -0.3024
vn -0.9569 0.0182 0.2899
vn 0.2556 0.9189 -0.3004
vn -0.8812 0.0161 0.4726
vn -0.9624 -0.0020 0.2717
vn 0.2682 0.9184 -0.2909
vn 0.2249 0.9265 -0.3018
vn 0.0282 0.1497 0.9883
vn 0.0098 0.1184 0.9929
vn 0.1914 0.9280 -0.3195
vn 0.2079 0.9282 -0.3086
vn 0.3100 0.8929 -0.3267
vn 0.0031 0.0949 0.9955
vn 0.0081 0.0799 0.9968
vn 0.3575 0.8856 -0.2965
vn 0.4550 0.8470 -0.2749
vn 0.4527 0.8494 -0.2714
vn 0.4926 0.8149 -0.3055
vn 0.4480 0.8509 -0.2742
vn 0.4885 0.8325 -0.2613
vn 0.0081 0.0800 0.9968
vn 0.0065 0.0813 0.9967
vn 0.4578 0.8341 -0.3076
vn 0.3863 0.8850 -0.2601
vn -0.2272 0.0317 0.9733
vn -0.2681 0.0889 0.9593
vn -0.5533 0.0241 0.8326
vn 0.3905 0.8850 -0.2536
vn -0.5990 0.2384 0.7644
vn -0.8380 0.0004 0.5457
vn -0.8328 0.0363 0.5524
vn 0.1881 0.9542 -0.2328
vn 0.1461 0.9502 -0.2754
vn -0.9849 0.0113 0.1725
vn -0.9848 0.0131 0.1730
vn 0.0684 0.9592 -0.2744
vn -0.5589 0.8276 0.0528
vn -0.4012 0.8971 0.1850
vn -0.3167 0.8736 0.3695
vn -0.9587 0.0288 0.2831
vn -0.9713 0.0132 0.2375
vn -0.5985 0.0649 0.7985
vn -0.2706 0.8831 0.3833
vn -0.5504 0.0482 0.8335
vn 0.0959 0.0699 0.9929
vn 0.0423 0.8539 0.5188
vn 0.0764 0.8644 0.4969
vn -0.1502 0.8704 0.4689
vn 0.3017 0.8565 0.4187
vn 0.5313 0.0565 0.8453
vn 0.2950 0.8583 0.4198
vn 0.5297 0.0557 0.8463
vn 0.1740 0.0640 0.9827
vn 0.1345 0.1111 0.9847
vn 0.5274 0.8439 0.0989
vn 0.5201 0.8517 0.0645
vn 0.5563 0.0315 0.8304
vn 0.9455 -0.0026 0.3257
vn 0.8373 0.0646 0.5429
vn 0.4626 0.8424 0.2763
vn -0.0000 -0.9978 0.0656
vn 0.1849 0.0924 0.9784
vn -1.0000 -0.0001 -0.0000
vn -0.0000 0.0657 0.9978
vn -0.0005 -0.9968 0.0795
vn 0.0002 -0.9978 0.0656
vn -0.0000 0.9889 -0.1487
vn 1.0000 0.0002 0.0002
vn 1.0000 0.0001 0.0001
vn -0.0004 0.9888 -0.1495
vn 0.0001 0.9890 -0.1479
vn -0.0005 0.9888 -0.1489
vn -0.0000 -0.0656 -0.9978
vn 1.0000 0.0001 -0.0000
vn -0.0000 0.9978 -0.0656
vn -0.0017 0.1724 0.9850
vn 0.0001 0.9978 -0.0656
vn 0.0143 0.1228 0.9923
vn 0.0008 0.0982 0.9952
vn 0.0213 0.1287 0.9915
vn 0.0432 0.2479 0.9678
vn 0.3095 0.9504 -0.0316
vn 0.3272 0.9432 -0.0574
vn 0.2305 0.9729 -0.0184
vn 0.2297 0.9731 -0.0187
vn 0.0748 0.9969 0.0239
vn 0.0115 0.4995 0.8662
vn -0.0012 0.9979 -0.0641
vn -0.0021 0.9979 -0.0650
vn -0.0034 0.9978 -0.0664
vn -0.0219 0.3885 0.9212
vn -0.1272 0.9917 0.0173
vn 0.0056 0.9978 -0.0656
vn 0.0612 0.9976 0.0328
vn -0.0214 -0.0808 -0.9965
vn -0.0207 -0.0848 -0.9962
vn -0.0004 -0.0494 -0.9988
vn 0.0052 0.9996 -0.0290
vn 1.0000 0.0007 0.0002
vn 1.0000 0.0001 -0.0001
vn 1.0000 0.0002 -0.0001
vn -0.0164 -0.0368 -0.9992
vn -0.0002 -0.9979 0.0655
vn -0.0002 -0.9978 0.0655
vn 1.0000 0.0003 -0.0000
vn -0.0010 -0.0767 -0.9971
vn 0.0001 -0.9978 0.0656
vn -0.0364 -0.0688 -0.9970
vn -0.2720 -0.9409 0.2018
vn -0.0004 -0.9978 0.0668
vn -0.2534 -0.9597 0.1215
vn -0.0000 -0.0657 -0.9978
vn 0.0006 -0.0654 -0.9979
vn -0.1784 -0.9750 0.1322
vn -0.1715 -0.9770 0.1270
vn 0.8802 0.0297 0.4736
vn -0.0238 -0.0672 -0.9975
vn -0.0191 -0.0624 -0.9979
vn -0.1198 -0.9808 0.1541
vn -0.1862 -0.9698 0.1574
vn -0.0165 -0.0633 -0.9979
vn -0.0131 -0.0675 -0.9976
vn -0.1125 -0.9837 0.1405
vn -0.0257 -0.0740 -0.9969
vn -0.2108 -0.9712 0.1110
vn -0.1862 -0.9520 -0.2430
vn -0.2373 -0.9709 0.0328
vn -0.2276 -0.9659 0.1231
vn -0.2069 -0.8686 -0.4503
vn -0.0854 -0.9959 0.0310
vn -0.2785 -0.9562 0.0898
vn -0.1846 -0.8160 -0.5478
vn -0.1145 -0.8545 -0.5067
vn -0.1181 -0.7771 -0.6182
vn -0.0511 -0.3525 -0.9344
vn -0.1075 -0.4332 -0.8949
vn -0.0602 -0.6908 -0.7206
vn -0.0152 -0.0662 -0.9977
vn -0.1472 -0.5788 -0.8021
vn -0.0258 -0.0578 -0.9980
vn -0.0264 -0.0463 -0.9986
vn -0.0217 -0.0697 -0.9973
vn 0.1474 0.9875 -0.0549
vn 0.1343 0.9898 -0.0470
vn -0.0112 -0.0805 -0.9967
vn 0.0913 0.9929 -0.0758
vn 0.1903 0.9742 -0.1214
vn 0.0030 0.0926 0.9957
vn -0.0023 0.0950 0.9955
vn 0.0504 0.9976 -0.0480
vn 0.9998 0.0015 0.0218
vn 0.0141 0.7500 -0.6613
vn 0.0291 0.9987 -0.0416
vn -0.0017 0.9983 -0.0590
vn -0.0136 0.9986 -0.0512
vn -0.0125 0.9852 -0.1711
vn 0.0074 0.9919 -0.1267
vn 0.0052 0.9895 -0.1446
vn -0.0004 0.9889 -0.1488
vn 0.0001 0.9889 -0.1487
vn -0.9691 0.0253 -0.2453
vn -1.0000 0.0018 -0.0003
vn -0.9999 0.0156 0.0006
vn -0.9993 -0.0377 -0.0081
vn -0.9638 -0.0001 -0.2668
vn -0.1661 0.9856 -0.0309
vn -0.1663 0.9856 -0.0314
vn -0.2250 0.9739 -0.0281
vn -0.2166 0.9741 -0.0647
vn -0.1660 0.9856 -0.0307
vn -0.1662 0.9851 -0.0438
vn -0.1904 0.9800 -0.0579
vn -0.2296 0.9724 -0.0416
vn -0.1703 0.9849 -0.0300
vn -0.2077 0.9767 -0.0540
vn -0.2547 0.9656 -0.0526
vn 0.0355 -0.0655 -0.9972
vn 0.0254 -0.0668 -0.9974
vn -0.3257 0.9375 -0.1223
vn -0.2779 0.9579 -0.0716
vn -0.2308 0.9688 -0.0902
vn -0.2862 0.9558 -0.0677
vn -0.3271 0.9420 -0.0756
vn -0.3267 0.9421 -0.0753
vn -0.3432 0.9324 -0.1133
vn -0.2814 0.9571 -0.0686
vn -0.3963 0.9084 -0.1331
vn -0.3497 0.9338 -0.0756
vn -0.3840 0.9191 -0.0886
vn -1.0000 -0.0033 -0.0002
vn -1.0000 -0.0005 0.0001
vn -1.0000 -0.0028 -0.0006
vn -0.3994 0.9067 -0.1358
vn -0.9830 0.0041 -0.1833
vn -0.5154 0.8302 -0.2126
vn -0.4212 0.8918 -0.1653
vn -0.5327 -0.0555 -0.8445
vn -0.5161 -0.0341 -0.8559
vn -0.7456 -0.0289 -0.6657
vn -0.6479 -0.0655 -0.7589
vn -0.4305 0.8911 -0.1438
vn -0.4142 0.9000 -0.1358
vn -0.4184 0.8961 -0.1482
vn -0.3293 -0.0620 -0.9422
vn -0.2971 -0.0351 -0.9542
vn -0.0983 -0.5387 -0.8367
vn 0.0138 -0.4303 -0.9026
vn -0.1684 -0.0771 -0.9827
vn -0.1116 -0.5035 -0.8567
vn 0.1610 -0.8433 -0.5127
vn 0.2118 -0.7253 -0.6550
vn 0.0770 -0.4944 -0.8658
vn 0.1400 -0.8338 -0.5340
vn 0.2709 -0.9550 -0.1209
vn 0.2521 -0.9086 -0.3331
vn 0.0349 -0.8832 -0.4677
vn 0.0352 -0.8835 -0.4671
vn 0.2808 -0.9534 -0.1107
vn 0.1166 -0.9925 -0.0354
vn 0.3101 -0.9470 0.0836
vn 0.3517 -0.9360 0.0177
vn 0.3303 -0.9409 0.0748
vn 0.3247 -0.9424 0.0800
vn 0.1285 -0.9712 -0.2008
vn 0.1222 -0.9920 -0.0307
vn -0.0915 -0.9881 0.1240
vn -0.4898 -0.8715 0.0223
vn -0.4910 -0.8709 0.0216
vn -0.2277 -0.9496 -0.2152
vn -0.5233 -0.8433 0.1225
vn -0.9275 -0.3705 0.0505
vn -0.9058 -0.4033 -0.1298
vn -0.9073 -0.4184 0.0415
vn -0.7809 -0.6211 0.0665
vn -0.5370 -0.8396 0.0818
vn -0.5105 -0.8508 0.1250
vn -0.0762 -0.9866 0.1443
vn -0.0457 -0.9879 0.1484
vn -0.0304 -0.9947 0.0980
vn -0.5017 -0.8609 0.0850
vn -0.0942 -0.9910 0.0955
vn 0.0316 -0.9909 0.1311
vn -0.1952 -0.9684 0.1551
vn -0.4390 -0.8872 0.1420
vn -0.1000 -0.9822 0.1593
vn -0.0729 -0.9784 0.1933
vn -0.4718 -0.8632 0.1794
vn -0.6136 -0.7793 0.1276
vn -0.1366 -0.9568 0.2567
vn 0.1435 -0.9602 0.2398
vn 0.1532 -0.9661 0.2079
vn -0.5843 -0.7897 0.1868
vn -0.4612 -0.8587 0.2234
vn -0.1105 -0.9528 0.2826
vn -0.6072 -0.7595 0.2334
vn -0.0579 -0.9454 0.3207
vn 0.1056 -0.9443 0.3116
vn 0.1186 -0.9492 0.2914
vn -0.5156 -0.8121 0.2733
vn -0.5641 -0.7902 0.2396
vn -0.5138 -0.8131 0.2736
vn -0.9033 -0.4064 0.1372
vn -0.9755 -0.2095 0.0666
vn -0.9356 -0.3381 0.1019
vn -1.0000 -0.0006 0.0001
vn -0.9630 -0.2658 0.0448
vn -0.7718 -0.6187 0.1467
vn -1.0000 -0.0012 0.0005
vn -1.0000 0.0021 0.0005
vn -1.0000 -0.0001 -0.0007
vn -1.0000 -0.0021 0.0007
vn -0.3260 0.9049 -0.2736
vn -0.3023 0.9087 -0.2880
vn -0.2942 0.9273 -0.2312
vn -0.2858 0.9322 -0.2219
vn -0.2384 0.9499 -0.2023
vn -0.2146 0.9458 -0.2439
vn -0.2202 0.9579 -0.1843
vn -0.2833 0.9319 -0.2267
vn -0.2882 0.9384 -0.1908
vn -0.2584 0.9554 -0.1426
vn -0.2409 0.9596 -0.1457
vn -0.2269 0.9640 -0.1390
vn -0.2472 0.9611 -0.1234
vn -0.2524 0.9600 -0.1214
vn -0.1811 0.9739 -0.1365
vn -0.2013 0.9719 -0.1222
vn -0.2026 0.9716 -0.1219
vn -0.2200 0.9719 -0.0836
vn -0.2608 0.9615 -0.0869
vn -0.2060 0.9742 -0.0923
vn -0.2708 0.9575 -0.0990
vn -0.2214 0.9729 -0.0662
vn -0.2192 0.9739 -0.0588
vn -0.2723 0.9606 -0.0562
vn -0.1561 0.9856 -0.0645
vn -0.1543 0.9861 -0.0613
vn -0.1699 0.9825 -0.0769
vn -0.1283 0.9870 -0.0972
vn -0.1309 0.9864 -0.0993
vn -0.1458 0.9827 -0.1141
vn -0.1156 0.9880 -0.1029
vn -1.0000 0.0007 -0.0000
vn -1.0000 0.0010 -0.0001
vn -0.1023 0.9831 -0.1518
vn -0.1055 0.9824 -0.1541
vn -0.9998 0.0192 -0.0073
vn -0.0906 0.9747 -0.2044
vn -0.9999 -0.0136 0.0078
vn -0.1010 0.9566 -0.2734
vn -0.0896 0.9746 -0.2051
vn -0.1394 0.9503 -0.2785
vn -0.1492 0.9471 -0.2840
vn -0.0898 0.9555 -0.2808
vn -0.1350 0.9658 -0.2216
vn -0.1577 0.9676 -0.1973
vn -0.1970 0.9406 -0.2764
vn -0.1906 0.9436 -0.2706
vn -0.1877 0.9582 -0.2159
vn -0.2243 0.9205 -0.3200
vn -0.2242 0.9205 -0.3199
vn -0.2292 0.9377 -0.2610
vn -0.1831 0.9285 -0.3232
vn -0.1664 0.9349 -0.3134
vn -0.1893 0.9276 -0.3222
vn -0.1746 0.9263 -0.3340
vn -0.2261 0.9205 -0.3187
vn -0.2450 0.9120 -0.3289
vn -0.2369 0.9240 -0.3002
vn -0.1870 0.9370 -0.2951
vn -0.1744 0.9360 -0.3057
vn -0.2372 0.9273 -0.2897
vn -0.2468 0.9196 -0.3058
vn -0.1742 0.9338 -0.3126
vn -0.0821 0.9459 -0.3140
vn -0.1203 0.9487 -0.2925
vn -0.1028 0.9382 -0.3304
vn -0.0842 0.9473 -0.3090
vn -0.1379 0.9341 -0.3292
vn -0.1424 0.9317 -0.3342
vn -0.1023 0.9307 -0.3512
vn -0.0808 0.9357 -0.3435
vn -0.0842 0.9393 -0.3326
vn -0.0896 0.9354 -0.3422
vn -0.0842 0.9396 -0.3319
vn -0.7641 0.1220 0.6334
vn -0.7738 0.1452 0.6165
vn -0.8920 0.0758 0.4456
vn -0.0041 0.9892 -0.1466
vn -0.0033 0.9891 -0.1469
vn -0.0007 0.9890 -0.1481
vn -0.8886 0.0676 0.4537
vn -0.0052 0.9897 -0.1432
vn -0.1012 0.8832 0.4579
vn 0.0016 0.9883 -0.1523
vn -0.0012 0.2320 -0.9727
vn -0.0257 0.9459 -0.3235
vn -0.0200 0.9456 -0.3247
vn -0.0632 0.9385 -0.3396
vn -0.0504 0.9437 -0.3269
vn -0.3950 0.2027 0.8960
vn -0.0673 0.9374 -0.3416
vn -0.5638 0.3391 0.7531
vn -0.6022 0.1899 0.7755
vn -0.0758 0.9361 -0.3436
vn 0.0338 0.9534 -0.2998
vn -0.0296 0.9440 -0.3286
vn -0.0145 0.9464 -0.3228
vn 0.0015 0.0507 0.9987
vn 0.0123 0.0590 0.9982
vn -0.0542 0.9541 -0.2945
vn 0.9998 -0.0033 0.0218
vn 0.8667 0.0136 0.4986
vn 0.9576 0.0047 0.2880
vn 0.8816 0.0310 0.4711
vn -0.0018 0.9457 -0.3251
vn 0.7721 0.0409 0.6342
vn 0.0104 0.9442 -0.3292
vn 0.7855 0.0208 0.6185
vn 0.6298 0.0358 0.7760
vn 0.0283 0.9399 -0.3404
vn 0.6622 -0.3045 0.6846
vn 0.3028 -0.8030 0.5133
vn 0.2762 -0.7198 0.6369
vn 0.6313 0.0340 0.7748
vn 0.1231 -0.7777 0.6164
vn 0.4754 0.0387 0.8789
vn 0.3135 -0.6556 0.6870
vn 0.4687 0.0450 0.8822
vn 0.0794 -0.7628 0.6418
vn -0.0688 -0.9459 0.3171
vn -0.0673 -0.9522 0.2979
vn 0.1093 -0.6488 0.7531
vn 0.2884 0.0418 0.9566
vn 0.0589 0.0427 0.9973
vn 0.0521 -0.3333 0.9414
vn -0.0630 -0.7820 0.6201
vn -0.0272 -0.7313 0.6815
vn -0.1172 -0.7714 0.6254
vn -0.1467 -0.3166 0.9371
vn -0.1555 -0.6783 0.7181
vn -0.2153 -0.7863 0.5792
vn -0.2787 0.0399 0.9595
vn -0.0796 0.0450 0.9958
vn -0.2928 0.0500 0.9549
vn 0.1294 0.9438 -0.3041
vn 0.1124 0.9432 -0.3126
vn -0.1050 0.0650 0.9924
vn 0.0926 0.9376 -0.3353
vn 0.0947 0.0664 0.9933
vn -0.4718 0.0350 0.8810
vn 0.1548 0.9397 -0.3049
vn -0.4803 0.0412 0.8761
vn -0.6316 0.0351 0.7745
vn -0.6339 0.0330 0.7727
vn 0.1855 0.9303 -0.3163
vn -0.5346 -0.6478 0.5428
vn -0.7758 0.0260 0.6305
vn -0.5564 -0.6083 0.5660
vn -0.3683 -0.7743 0.5146
vn -0.0843 -0.9777 0.1923
vn -0.0822 -0.9744 0.2092
vn -0.0928 -0.9775 0.1897
vn -0.0949 -0.9770 0.1908
vn -0.3186 -0.7175 0.6195
vn -0.3199 -0.7108 0.6264
vn -0.4713 -0.0221 0.8817
vn -0.6323 0.0005 0.7747
vn -0.6361 -0.0062 0.7716
vn -0.4695 -0.0194 0.8827
vn -0.0777 -0.9810 0.1778
vn -0.1187 -0.9676 0.2226
vn -0.1200 -0.9676 0.2224
vn -0.2967 -0.0347 0.9543
vn -0.0954 -0.9784 0.1833
vn -0.2967 -0.0346 0.9543
vn -0.1232 -0.0362 0.9917
vn -0.0982 -0.9799 0.1737
vn -0.0950 -0.9677 0.2336
vn -0.0965 -0.9491 0.2998
vn 0.0818 -0.0504 0.9954
vn -0.1167 -0.0469 0.9921
vn 0.2726 -0.0544 0.9606
vn -0.0859 -0.9633 0.2543
vn 0.0856 -0.0568 0.9947
vn 0.2737 -0.0564 0.9602
vn -0.1114 -0.9817 0.1545
vn -0.1039 -0.9744 0.1995
vn -0.1264 -0.9773 0.1702
vn -0.1567 -0.9739 0.1643
vn 0.4511 -0.0464 0.8913
vn 0.4531 -0.0519 0.8899
vn 0.6310 -0.0857 0.7710
vn -0.0458 -0.9600 0.2761
vn -0.0701 -0.9517 0.2989
vn -0.1265 -0.9648 0.2307
vn 0.0236 -0.9270 0.3743
vn 0.7601 -0.0303 0.6491
vn 0.0029 -0.9407 0.3392
vn 0.6156 -0.0442 0.7869
vn -0.1608 -0.9654 0.2054
vn -0.1687 -0.9702 0.1741
vn 0.7604 -0.0313 0.6487
vn -0.1707 -0.9644 0.2019
vn -0.0335 -0.9508 0.3081
vn 0.0227 -0.9512 0.3077
vn 0.0404 -0.9255 0.3766
vn -0.1984 -0.9461 0.2561
vn -0.2003 -0.9461 0.2546
vn -0.2141 -0.9539 0.2103
vn 0.8752 -0.0180 0.4835
vn 0.9545 0.0169 0.2979
vn 0.9560 0.0070 0.2933
vn 0.0060 -0.9471 0.3209
vn 0.1210 -0.9473 0.2968
vn 0.2264 -0.8976 0.3783
vn 0.8741 -0.0140 0.4855
vn 0.0800 -0.9532 0.2915
vn 0.0513 -0.9891 0.1383
vn 0.5808 -0.7785 0.2381
vn 0.0528 -0.9890 0.1380
vn 0.0619 -0.9573 0.2824
vn 1.0000 0.0001 0.0003
vn 1.0000 -0.0000 0.0001
vn 0.0158 -0.9540 0.2995
vn 0.0008 0.0647 0.9979
vn 1.0000 -0.0001 0.0001
vn 0.1997 -0.1073 0.9740
vn 0.4693 -0.8650 0.1776
vn 0.0556 -0.9896 0.1328
vn 0.0656 -0.9978 0.0007
vn 0.0152 -0.1227 0.9923
vn 0.0393 0.0276 0.9988
vn 0.1956 -0.1105 0.9744
vn 0.4649 -0.7708 0.4355
vn 0.0806 -0.9054 0.4169
vn 0.0505 -0.8492 0.5256
vn 0.0487 -0.8760 0.4798
vn 0.1441 -0.9414 0.3049
vn -0.0269 -0.4627 0.8861
vn -0.0449 -0.9526 0.3009
vn 0.0383 -0.6750 0.7368
vn -0.0136 -0.9580 0.2865
vn 0.6730 -0.7046 0.2250
vn 0.1142 -0.8682 0.4828
vn 0.0819 -0.6210 0.7795
vn 0.0818 -0.6773 0.7311
vn 0.0359 -0.6564 0.7535
vn 0.1152 -0.8694 0.4805
vn 0.0001 0.0696 0.9976
vn 0.2017 -0.8727 0.4446
vn 0.1655 -0.8893 0.4262
vn 0.0027 0.0611 0.9981
vn -0.0004 0.0612 0.9981
vn 0.0026 0.0650 0.9979
vn 0.2113 -0.9163 0.3403
vn 0.1300 -0.9552 0.2657
vn 0.1495 -0.9219 0.3574
vn 0.1991 -0.9068 0.3716
vn 0.2535 -0.8723 0.4181
vn 0.2150 -0.9192 0.3298
vn 0.2388 -0.9156 0.3234
vn 0.1967 -0.9286 0.3145
vn 0.1803 -0.9303 0.3193
vn 0.1798 -0.9375 0.2978
vn 0.1921 -0.9339 0.3015
vn 0.2251 -0.9267 0.3011
vn 0.2022 -0.9398 0.2755
vn 0.2432 -0.9323 0.2676
vn 0.1855 -0.9445 0.2711
vn 0.2275 -0.9256 0.3023
vn 0.2755 -0.9203 0.2776
vn 0.2706 -0.9197 0.2845
vn 0.2889 -0.9072 0.3059
vn 0.2508 -0.9389 0.2358
vn 0.2948 -0.9235 0.2455
vn 0.2991 -0.9080 0.2935
vn -1.0000 -0.0007 -0.0003
vn -1.0000 0.0016 0.0009
vn -1.0000 0.0003 -0.0004
vn -1.0000 0.0071 -0.0021
vn 0.2796 -0.9314 0.2330
vn 0.2959 -0.9372 0.1848
vn -1.0000 -0.0008 0.0001
vn -1.0000 -0.0003 0.0001
vn 0.2748 -0.9497 0.1500
vn 0.2675 -0.9523 0.1469
vn 0.2683 -0.9446 0.1890
vn 0.2509 -0.9574 0.1430
vn 0.2572 -0.9507 0.1735
vn 0.2242 -0.9483 0.2245
vn 0.2551 -0.9557 0.1469
vn 0.2315 -0.9657 0.1174
vn 0.2695 -0.9559 0.1164
vn 0.2003 -0.9690 0.1448
vn 0.2209 -0.9688 0.1123
vn 0.2448 -0.9668 0.0729
vn 0.2190 -0.9728 0.0759
vn 0.1733 -0.9830 0.0613
vn 0.1862 -0.9767 0.1066
vn 0.1558 -0.9803 0.1210
vn -1.0000 -0.0085 0.0015
vn -1.0000 -0.0013 -0.0002
vn 0.1607 -0.9714 0.1747
vn 0.0001 -0.9978 0.0657
vn -0.0001 -0.9978 0.0656
vn 0.0012 -0.9978 0.0658
vn -0.9957 0.0020 0.0929
vn -0.9999 0.0077 0.0073
vn -0.9594 0.0206 0.2813
vn -0.9624 0.0178 0.2709
vn 0.1651 -0.9447 0.2835
vn 0.1520 -0.9405 0.3039
vn -0.8883 0.0301 0.4582
vn 0.1715 -0.9427 0.2860
vn -0.7634 0.0424 0.6445
vn -0.7630 0.0425 0.6450
vn 0.1078 -0.9393 0.3256
vn 0.1326 -0.9390 0.3172
vn -0.5758 0.0536 0.8158
vn -0.5730 0.0543 0.8178
vn 0.1586 -0.9351 0.3168
vn -0.2771 0.0633 0.9588
vn -0.2760 0.0631 0.9591
vn 0.2893 -0.2028 -0.9355
vn 0.5658 -0.3319 -0.7548
vn 0.5983 -0.3413 -0.7249
vn 0.3191 -0.2130 -0.9235
vn -0.0001 -0.9892 0.1463
vn -0.0000 -0.9893 0.1462
vn -0.0000 -0.0730 -0.9973
vn -0.0005 -0.9895 0.1445
vn -0.0015 -0.9894 0.1453
vn 0.0161 -0.9926 0.1203
vn -0.0001 -0.0731 -0.9973
vn -0.0018 -0.9893 0.1462
vn 0.0019 -0.9899 0.1417
vn -0.0036 -0.9893 0.1461
vn -1.0000 -0.0021 0.0003
vn -0.0052 0.0569 0.9984
vn 0.0082 -0.9861 0.1661
vn 0.0270 -0.9781 0.2064
vn -0.0057 0.0583 0.9983
vn -1.0000 -0.0029 0.0002
vn 0.6038 -0.7954 0.0523
vn 0.2259 -0.3564 -0.9066
vn 0.0032 -0.9889 0.1484
vn -0.0699 -0.9865 0.1481
vn -0.0738 -0.9252 0.3721
vn 0.6063 -0.7781 0.1642
vn 0.2132 -0.2160 0.9528
vn 0.8423 -0.5378 0.0355
vn 0.8542 -0.5187 0.0363
vn 0.0005 -0.9978 0.0656
vn 0.8480 -0.5257 0.0671
vn 0.0068 -0.9900 0.1412
vn 0.2358 -0.3426 -0.9094
vn 0.0060 -0.9899 0.1417
vn 0.8347 -0.5496 0.0338
vn 0.8098 -0.5230 0.2660
vn 0.8283 -0.5590 0.0378
vn 0.8119 -0.5825 0.0380
vn 0.8174 -0.5706 0.0792
vn 0.0022 -0.9890 0.1477
vn 0.2036 -0.2426 0.9485
vn 0.5605 -0.8264 0.0543
vn 0.5631 -0.8192 0.1088
vn -0.0767 -0.9658 0.2478
vn -0.0770 -0.9883 0.1313
vn -0.0768 -0.9658 0.2477
vn 0.0163 -0.9911 0.1318
vn 0.2232 -0.3828 -0.8964
vn 0.7902 -0.6066 0.0878
vn 0.7988 -0.6005 0.0368
vn 0.7901 -0.6003 0.1237
vn 0.7453 -0.5531 0.3722
vn 0.7571 -0.5872 0.2863
vn 0.6611 -0.4845 0.5729
vn -0.0145 -0.9914 0.1298
vn -0.0001 -0.9893 0.1458
vn -0.0208 -0.9904 0.1363
vn 0.6772 -0.4927 0.5465
vn 0.5496 -0.3796 0.7443
vn -0.5873 -0.0530 -0.8076
vn -0.7634 -0.0424 -0.6446
vn -0.7634 -0.0424 -0.6445
vn -0.8881 -0.0300 -0.4586
vn 0.2029 -0.9759 0.0798
vn 0.1725 -0.9814 0.0841
vn -0.8883 -0.0301 -0.4582
vn -0.9650 -0.0172 -0.2615
vn 0.2078 -0.9749 0.0798
vn -0.9654 -0.0177 -0.2600
vn 0.2030 -0.9776 0.0562
vn 0.2150 -0.9733 0.0802
vn 0.1989 -0.9784 0.0556
vn -1.0000 0.0060 -0.0032
vn 0.2777 -0.9559 0.0956
vn 0.2751 -0.9596 0.0599
vn 0.2941 -0.9519 0.0855
vn 0.2315 -0.9716 0.0482
vn 0.2296 -0.9694 0.0865
vn 0.0248 -0.0658 -0.9975
vn 0.0269 -0.0695 -0.9972
vn 0.0330 -0.0643 -0.9974
vn 0.2341 -0.9685 0.0845
vn 0.3094 -0.9494 0.0532
vn 0.0373 -0.0712 -0.9968
vn 0.3142 -0.9473 0.0627
vn 0.3582 -0.9335 -0.0133
vn 0.0457 -0.0732 -0.9963
vn -0.1585 -0.0498 -0.9861
vn 0.3968 -0.9175 -0.0269
vn 0.0457 -0.0778 -0.9959
vn 0.3870 -0.9221 -0.0035
vn 0.3695 -0.9242 0.0962
vn 0.4043 -0.9089 0.1025
vn 0.4120 -0.9004 0.1400
vn -0.1706 -0.0647 -0.9832
vn -0.3371 -0.0622 -0.9394
vn -0.3364 -0.0611 -0.9397
vn -0.5189 -0.0583 -0.8528
vn 0.3437 -0.9389 0.0173
vn 0.3734 -0.9277 0.0038
vn 0.3674 -0.9226 0.1175
vn 0.3964 -0.9074 0.1393
vn 0.4505 -0.8641 0.2243
vn -0.5177 -0.0564 -0.8537
vn -0.6835 -0.0577 -0.7277
vn -0.6787 -0.0480 -0.7329
vn -0.8765 -0.0253 -0.4807
vn 0.4767 -0.8625 0.1697
vn -0.8790 -0.0349 -0.4755
vn -0.9809 -0.0208 -0.1932
vn 0.3694 -0.9195 0.1342
vn -0.9832 -0.0052 -0.1827
vn -0.9999 -0.0126 -0.0001
vn -1.0000 -0.0008 -0.0063
vn 0.3323 -0.9388 0.0904
vn -1.0000 -0.0004 -0.0000
vn 0.3299 -0.9365 0.1187
vn 0.3349 -0.9390 0.0788
vn 0.3614 -0.9268 0.1022
vn -1.0000 -0.0005 0.0002
vn 0.3156 -0.9448 0.0878
vn 0.3290 -0.9411 0.0785
vn 0.3653 -0.9264 0.0918
vn 0.2882 -0.9539 0.0838
vn 0.2798 -0.9583 0.0582
vn 0.2782 -0.9565 0.0880
vn 0.3129 -0.9455 0.0904
vn 0.2657 -0.9574 0.1128
vn 0.3099 -0.9428 0.1231
vn 0.2395 -0.9608 0.1398
vn 0.2848 -0.9542 0.0919
vn 0.2940 -0.9512 0.0941
vn 0.2491 -0.9563 0.1531
vn 0.2631 -0.9538 0.1451
vn 0.3085 -0.9208 -0.2388
vn 0.3654 -0.9030 -0.2261
vn 0.2978 -0.9012 -0.3150
vn 0.3636 -0.9198 -0.1473
vn 0.2602 -0.7632 -0.5914
vn 0.2879 -0.7377 -0.6107
vn 0.2483 -0.7380 -0.6275
vn 0.2144 -0.8446 -0.4907
vn 0.0997 -0.3653 -0.9256
vn 0.1374 -0.3791 -0.9151
vn 0.1814 -0.7626 -0.6209
vn 0.1636 -0.8382 -0.5202
vn 0.0750 -0.3595 -0.9301
vn 0.1278 -0.5365 -0.8342
vn 0.0489 -0.4778 -0.8771
vn 0.0225 -0.0622 -0.9978
vn 0.0477 -0.4547 -0.8893
vn 0.0098 -0.0641 -0.9979
vn 0.0176 -0.0685 -0.9975
vn -0.0067 -0.4457 -0.8952
vn 0.0043 -0.0787 -0.9969
vn -0.0004 -0.0656 -0.9978
vn 0.0092 -0.0664 -0.9978
vn 0.0811 -0.8285 -0.5541
vn 0.0023 -0.8801 -0.4749
vn 0.0207 -0.7893 -0.6137
vn 0.0823 -0.8344 -0.5449
vn 0.1747 -0.9662 -0.1897
vn 0.0954 -0.9827 -0.1585
vn 0.1757 -0.9671 -0.1843
vn 0.1489 -0.8031 -0.5770
vn 0.1745 -0.9774 0.1194
vn 0.2232 -0.9680 0.1142
vn 0.2231 -0.9523 -0.2082
vn 0.0938 -0.9830 0.1578
vn 0.1772 -0.9764 0.1234
vn 0.0932 -0.9787 -0.1828
vn -0.0034 -0.9603 -0.2790
vn -0.0041 -0.9851 0.1717
vn 0.0907 -0.9846 0.1496
vn 0.0258 -0.9975 -0.0663
vn 0.0097 -0.0674 -0.9977
vn 0.0058 -0.0643 -0.9979
vn -0.0013 -0.0678 -0.9977
vn 0.0074 -0.0650 -0.9979
vn -0.0105 -0.9882 0.1525
vn -1.0000 -0.0012 0.0033
vn 0.0922 -0.9937 0.0631
vn 0.0972 -0.9927 0.0718
vn 0.0102 -0.0654 -0.9978
vn 0.0190 -0.0663 -0.9976
vn 0.0190 -0.0661 -0.9976
vn 0.1808 -0.9808 0.0725
vn 0.1549 -0.9859 0.0638
vn -0.5875 -0.0531 -0.8075
vn -0.3718 -0.0609 -0.9263
vn 0.1622 -0.9828 0.0883
vn -0.3687 -0.0600 -0.9276
vn -0.0000 -0.0942 -0.9955
vn -0.0008 -0.0719 -0.9974
vn -0.0000 -0.9978 0.0658
vn -0.0002 -0.9978 0.0658
vn -0.0129 -0.0600 -0.9981
vn -0.0049 -0.0657 -0.9978
vn -1.0000 0.0010 -0.0002
vn -0.0000 -0.9720 0.2350
vn -0.0000 -0.9999 0.0139
vn -1.0000 -0.0000 0.0023
vn 0.7623 -0.0066 -0.6472
vn 0.8901 0.0308 0.4548
vn 0.8733 0.0112 0.4871
vn 0.7646 -0.0024 -0.6445
vn 0.7590 -0.0025 -0.6511
vn -0.0000 -0.9945 -0.1048
vn 0.7607 0.0031 -0.6491
vn -0.0000 -0.9659 -0.2591
vn 0.7685 0.0030 -0.6398
vn -0.0000 -0.9945 -0.1047
vn 0.1715 0.9657 0.1949
vn 0.1778 0.9829 -0.0483
vn 0.1758 0.9832 -0.0496
vn 0.7657 0.0076 -0.6431
vn 0.0909 0.9777 0.1894
vn 0.0946 0.9753 0.1995
vn 0.7745 0.0082 -0.6325
vn 0.0926 0.9067 0.4115
vn 0.7735 0.0099 -0.6337
vn -0.0000 -0.9011 -0.4335
vn -0.0000 0.0188 -0.9998
vn -0.0028 0.0148 -0.9999
vn -0.0007 0.0169 -0.9999
vn 0.0179 0.9250 0.3795
vn 0.0074 0.9155 0.4023
vn -0.0525 0.9247 0.3770
vn 0.0010 0.0179 -0.9998
vn -0.0625 0.9201 0.3867
vn -0.0636 0.9778 0.1997
vn -0.0647 0.9774 0.2010
vn -0.0647 0.9976 -0.0265
vn -0.0660 0.9975 -0.0250
vn 0.0076 0.9840 -0.1780
vn 0.0066 0.9997 -0.0224
vn -0.0662 0.9852 -0.1579
vn -0.0550 0.9879 -0.1448
vn 0.0859 0.9831 -0.1616
vn 0.0185 0.9887 -0.1485
vn 0.0899 0.9956 -0.0257
vn 0.0932 0.9955 -0.0166
vn 0.0893 0.9812 -0.1713
vn 0.0084 0.9996 -0.0280
vn -0.0097 -0.0640 -0.9979
vn -0.0024 -0.0656 -0.9978
vn 0.0086 0.9790 0.2037
vn 0.0065 0.9802 0.1977
vn 0.0805 0.9175 0.3895
vn 0.1742 0.9659 -0.1915
vn 0.1515 0.9791 -0.1357
vn -1.0000 0.0047 -0.0004
vn 0.0047 0.0531 0.9986
vn 0.0082 0.0548 0.9985
vn -0.0002 -0.9923 0.1236
vn -1.0000 0.0045 -0.0006
vn -0.5274 0.0504 0.8481
vn 0.3984 -0.2490 0.8828
vn 0.3714 -0.2325 0.8989
vn 0.0008 -0.9891 0.1471
vn 0.5697 -0.3919 0.7224
vn -0.0001 -0.0661 -0.9978
vn -0.0227 -0.9940 -0.1072
vn -0.0821 -0.9814 -0.1738
vn -0.0816 -0.9794 0.1845
vn -0.0890 -0.9887 -0.1204
vn -0.0744 -0.8082 -0.5842
vn -0.0745 -0.8070 -0.5858
vn -0.0188 -0.7813 -0.6239
vn 0.2202 -0.9472 -0.2330
vn 0.3067 -0.7698 -0.5598
vn 0.1546 -0.3635 -0.9187
vn 0.2140 -0.5708 -0.7927
vn -0.5914 0.0245 0.8060
vn 0.0016 -0.9977 0.0672
vn 0.0006 -0.9979 0.0647
vn -0.0000 -0.9980 0.0629
vn -0.4923 -0.0571 -0.8685
vn -0.0009 -0.9979 0.0640
vn 0.5076 -0.0565 -0.8598
vn 0.5076 -0.0565 -0.8597
vn -0.0933 -0.0434 -0.9947
vn 0.4232 -0.0343 -0.9054
vn 0.1763 -0.0770 -0.9813
vn -0.5412 -0.0632 -0.8385
vn 0.0001 0.9978 -0.0658
vn -0.6159 -0.0371 -0.7870
vn -0.9612 -0.0260 -0.2748
vn 0.8116 -0.0569 -0.5814
vn 0.8182 -0.0533 -0.5724
vn 0.9930 0.0157 -0.1173
vn 0.9768 -0.0140 0.2136
vn 0.8785 0.0531 0.4747
vn 0.6105 0.0473 0.7906
vn 0.5092 0.0714 0.8577
vn -0.0325 0.0830 0.9960
vn 0.1124 0.0569 0.9920
vn -0.5343 0.0413 0.8443
vn -0.5539 0.0462 0.8313
vn -1.0000 -0.0006 -0.0088
vn -0.5076 0.0565 0.8597
vn -0.0102 -0.9965 0.0829
vn -0.0000 -0.9976 0.0688
vn -0.0021 -0.9978 0.0656
vn 0.4923 0.0571 0.8685
vn 0.0015 -0.9977 0.0682
vn 0.0068 -0.9978 0.0657
vn 1.0000 0.0006 0.0088
vn 0.4923 0.0571 0.8686
vn -0.9861 0.0056 -0.1662
vn -0.8772 0.0478 0.4778
vn -0.9551 0.0002 0.2963
vn -0.0025 -0.9979 0.0652
vn 0.6430 -0.7647 0.0422
vn 0.6460 -0.7551 0.1116
vn 0.0042 -0.9894 0.1453
vn 0.6741 -0.7333 0.0889
vn 0.6716 -0.7399 0.0384
vn 0.2209 -0.3087 -0.9252
vn 0.0108 -0.9901 0.1400
vn 0.8731 -0.4841 0.0577
vn 0.8659 -0.4990 0.0347
vn 0.2106 -0.1832 0.9603
vn 0.8365 -0.4483 -0.3152
vn 0.7524 -0.4112 -0.5146
vn 0.7201 -0.4036 -0.5644
vn 0.8102 -0.4467 -0.3796
vn -0.0000 -0.9979 0.0655
vn 0.8738 -0.4630 -0.1488
vn 0.8621 -0.4662 -0.1987
vn -0.0057 -0.9904 0.1384
vn 0.8821 -0.4691 0.0420
vn 0.0026 -0.9889 0.1487
vn 0.2012 -0.1520 0.9677
vn 0.8803 -0.4737 0.0260
vn -0.2777 0.0630 0.9586
vn 0.2678 -0.8944 0.3583
vn 0.2306 -0.9251 0.3017
vn -1.0000 -0.0000 -0.0002
vn 0.1984 -0.9206 0.3363
vn 0.1594 -0.9401 0.3014
vn 0.1703 -0.9555 0.2409
vn 0.1452 -0.9498 0.2770
vn 0.1382 -0.9671 0.2137
vn 0.1535 -0.9719 0.1782
vn 0.1924 -0.9655 0.1754
vn 0.2086 -0.9543 0.2140
vn 0.2141 -0.9592 0.1848
vn 0.2022 -0.9542 0.2206
vn 0.2100 -0.9659 0.1516
vn 0.2026 -0.9611 0.1876
vn 0.2395 -0.9625 0.1273
vn 0.2503 -0.9558 0.1543
vn 0.1588 -0.9558 0.2472
vn 0.1421 -0.9480 0.2849
vn -1.0000 0.0021 -0.0022
vn 0.2755 -0.9040 0.3270
vn -1.0000 0.0007 -0.0019
vn -0.9489 0.0133 0.3154
vn 0.3164 -0.8956 0.3128
vn 0.2820 -0.8990 0.3351
vn 0.2785 -0.8989 0.3382
vn -0.7436 0.0635 0.6656
vn -0.4726 0.0386 0.8804
vn -0.7484 0.0361 0.6622
vn 0.1852 -0.9141 0.3608
vn 0.2197 -0.8891 0.4016
vn -0.9464 0.0370 0.3208
vn 0.1831 -0.9114 0.3685
vn 0.2197 -0.8906 0.3981
vn -0.4008 -0.6622 0.6331
vn -0.3490 -0.8060 0.4780
vn -0.3896 -0.7807 0.4887
vn -0.2316 -0.7014 0.6741
vn 0.2376 -0.8802 0.4109
vn 0.1827 -0.8390 0.5125
vn -0.0769 -0.6353 0.7684
vn -0.2293 -0.5954 0.7700
vn -0.2358 -0.6962 0.6780
vn 0.2386 -0.8784 0.4141
vn -0.6343 0.0552 0.7711
vn -0.7530 0.0155 0.6578
vn -0.8280 0.0482 0.5587
vn -0.6432 0.0430 0.7645
vn -0.3283 0.8938 -0.3055
vn -0.3385 0.8959 -0.2878
vn -0.3255 0.9007 -0.2879
vn -0.3061 0.9013 -0.3064
vn -0.3556 0.8874 -0.2933
vn -0.3605 0.8836 -0.2989
vn -0.3037 0.9028 -0.3044
vn -0.2841 0.9127 -0.2938
vn -0.2942 0.9004 -0.3205
vn -0.3599 0.8838 -0.2989
vn -0.3647 0.8836 -0.2936
vn -0.2992 0.9044 -0.3041
vn -0.9611 0.0011 0.2764
vn -0.9540 0.0346 0.2980
vn -0.8517 -0.3260 0.4102
vn -0.8437 0.0326 0.5359
vn -0.7535 -0.3012 0.5844
vn -0.4443 0.0463 0.8947
vn -0.3144 0.9058 -0.2839
vn -0.1757 0.0673 0.9821
vn -0.2868 0.9187 -0.2717
vn -0.4249 0.0342 0.9046
vn -0.1944 0.0454 0.9799
vn 0.0570 -0.5706 0.8193
vn 0.0565 -0.5611 0.8258
vn -0.1034 -0.5715 0.8140
vn 0.1023 -0.3349 0.9367
vn 0.1683 -0.6336 0.7552
vn 0.1757 -0.5683 0.8039
vn -0.0011 0.0484 0.9988
vn 0.0663 -0.3987 0.9147
vn 0.0490 -0.2036 0.9778
vn 0.0004 0.0665 0.9978
vn -0.0000 0.0659 0.9978
vn 0.0048 0.0651 0.9979
vn 0.0126 -0.2580 0.9661
vn 0.0314 -0.2117 0.9768
vn 0.0003 0.0654 0.9979
vn 0.2695 -0.8668 0.4195
vn 0.1521 -0.5939 0.7901
vn 0.2103 -0.8771 0.4319
vn 0.1242 -0.6322 0.7648
vn -0.2405 0.9279 -0.2848
vn -0.4660 0.0600 0.8828
vn 0.2506 -0.8776 0.4087
vn -0.1657 0.0817 0.9828
vn -0.1770 0.0528 0.9828
vn -0.8301 -0.3694 0.4178
vn 0.1479 -0.9321 0.3305
vn 0.1600 -0.9317 0.3261
vn 0.1864 -0.9422 0.2785
vn 0.1539 -0.9449 0.2889
vn 0.1645 -0.9507 0.2631
vn 0.1321 -0.9773 0.1656
vn 0.1045 -0.9567 0.2715
vn 0.1213 -0.6227 0.7730
vn 0.9951 0.0304 0.0940
vn -0.1565 -0.9787 0.1331
vn 0.9951 0.0304 0.0939
vn 0.4132 -0.8197 0.3968
vn 0.4557 -0.7872 0.4155
vn 0.4981 -0.8197 0.2828
vn 0.9569 0.0032 0.2905
vn 0.9997 -0.0123 0.0192
vn 0.4147 -0.7596 0.5010
vn 0.4996 -0.6731 0.5453
vn -0.0001 0.0656 0.9978
vn -0.0954 -0.9491 0.3002
vn -0.1302 -0.9175 0.3758
vn -0.0630 -0.9391 0.3379
vn -0.0907 -0.9805 0.1742
vn -0.1024 -0.9763 0.1906
vn -0.0000 0.0654 0.9979
vn -0.0966 -0.9772 0.1889
vn -0.0004 0.0679 0.9977
vn -0.4961 -0.7652 0.4103
vn -0.8823 0.0141 0.4704
vn -0.7747 0.0274 0.6318
vn 0.0871 0.9349 -0.3442
vn 0.0627 0.9439 -0.3244
vn 0.2872 0.0429 0.9569
vn 0.0635 0.9438 -0.3245
vn 0.7796 -0.3450 0.5227
vn 0.0213 0.9428 -0.3326
vn -0.9621 0.0377 0.2700
vn -0.9610 0.0450 0.2727
vn -0.9942 -0.0486 0.0956
vn -0.1028 0.9309 -0.3506
vn -1.0000 0.0069 -0.0041
vn -0.1171 0.9414 -0.3164
vn -0.0983 0.9402 -0.3261
vn -0.1436 0.9346 -0.3256
vn -0.2980 0.9008 -0.3158
vn -0.1303 0.9806 -0.1464
vn -0.1615 0.9744 -0.1562
vn -0.1790 0.9612 -0.2100
vn -0.2022 0.9681 -0.1481
vn -0.1517 0.9820 -0.1130
vn -0.3134 0.9448 -0.0956
vn -0.3078 0.9420 -0.1337
vn -0.3125 0.9452 -0.0946
vn -0.3262 0.9405 -0.0949
vn -0.3486 0.9252 -0.1500
vn -0.2803 0.9496 -0.1400
vn -1.0000 -0.0001 0.0004
vn -1.0000 0.0005 -0.0002
vn -0.3764 0.9183 -0.1222
vn -0.3527 0.9192 -0.1752
vn -0.2675 0.9222 -0.2794
vn -0.9082 -0.4132 0.0672
vn -0.9052 -0.4049 -0.1291
vn -0.6876 -0.5919 -0.4205
vn -0.2133 -0.9555 -0.2036
vn -0.7116 -0.5489 -0.4385
vn -0.5701 -0.5638 -0.5976
vn -0.2125 -0.9006 -0.3791
vn -0.0499 -0.9133 -0.4043
vn -0.0288 -0.9342 -0.3556
vn -0.5728 -0.5571 -0.6013
vn -0.4302 -0.5683 -0.7014
vn -0.8793 -0.0329 -0.4752
vn -0.7651 -0.0421 -0.6426
vn -0.8784 -0.0315 -0.4769
vn -0.9781 -0.0194 -0.2072
vn -0.2887 -0.5420 -0.7892
vn -0.4332 -0.5609 -0.7055
vn -0.2889 -0.5416 -0.7894
vn 0.0353 -0.0622 -0.9974
vn -0.0013 -0.0495 -0.9988
vn -0.8897 0.0110 -0.4564
vn -0.7688 0.0087 -0.6394
vn -0.1510 0.9875 -0.0458
vn -0.5943 0.0602 -0.8020
vn -0.5850 0.0436 -0.8099
vn -0.7615 0.0223 -0.6477
vn -0.1428 0.9888 -0.0441
vn -0.3740 0.0828 -0.9237
vn -0.1358 0.9898 -0.0436
vn -0.0338 0.1851 -0.9821
vn -0.3667 0.1011 -0.9248
vn -0.1053 0.9932 -0.0492
vn -0.0002 0.9889 -0.1488
vn 0.0003 0.9889 -0.1485
vn -0.0010 0.9888 -0.1495
vn -0.8862 0.0029 -0.4632
vn -0.0916 0.9938 -0.0632
vn 0.2045 0.9771 -0.0592
vn 0.2054 0.9744 -0.0910
vn 0.2978 0.9504 -0.0898
vn -0.1201 -0.9717 -0.2035
vn -0.1464 -0.9874 -0.0592
vn -0.0020 -0.9979 0.0643
vn -0.0380 -0.0546 -0.9978
vn 1.0000 -0.0002 -0.0053
vn -0.0332 -0.0615 -0.9976
vn 0.2319 0.9724 -0.0251
vn 0.0036 0.1475 0.9891
vn 0.9732 0.0151 0.2294
vn 0.8093 0.0385 0.5861
vn 0.8098 0.0381 0.5854
vn 0.9726 0.0163 0.2321
vn 0.4693 0.8547 -0.2219
vn 0.4843 0.8332 -0.2670
vn 0.9843 -0.0145 -0.1758
vn 0.9859 -0.0110 -0.1670
vn 0.4299 0.8364 -0.3400
vn 0.4038 0.8861 -0.2275
vn 0.8129 -0.0382 -0.5812
vn 0.8076 -0.0419 -0.5882
vn 0.3607 0.8618 -0.3567
vn 0.4147 0.8522 -0.3190
vn 0.4388 0.8191 -0.3695
vn 0.4456 0.8175 -0.3649
vn 0.2231 0.7990 -0.5585
vn 0.4040 -0.0576 -0.9129
vn 0.4125 -0.0617 -0.9089
vn 0.5188 0.8377 -0.1704
vn 0.9727 0.0151 -0.2315
vn 0.8381 -0.0522 -0.5430
vn 0.9807 0.0081 -0.1954
vn 0.4694 -0.0404 -0.8820
vn 0.4021 -0.0610 -0.9136
vn -0.0036 -0.0701 -0.9975
vn -0.0587 -0.0600 -0.9965
vn -0.5450 -0.0605 -0.8363
vn -0.5949 -0.0423 -0.8027
vn -0.9655 -0.0108 -0.2600
vn -0.9401 -0.0369 -0.3389
vn -0.2822 0.8090 -0.5157
vn -0.2747 0.8107 -0.5170
vn -0.4290 0.8214 -0.3758
vn -0.4791 0.8611 -0.1704
vn -0.4938 0.8367 -0.2368
vn -0.8001 -0.0401 -0.5985
vn -0.5091 -0.0546 -0.8590
vn -0.0532 0.7896 -0.6113
vn -0.0973 -0.0567 -0.9936
vn -0.5018 -0.0615 -0.8628
vn -0.0730 -0.0705 -0.9948
vn 0.4767 0.8230 -0.3091
vn 0.4668 0.8294 -0.3068
vn -0.0069 0.8018 -0.5975
vn 0.2207 0.7996 -0.5585
vn 0.4082 0.8875 -0.2139
vn 0.5313 0.8343 -0.1476
vn -0.4956 0.8681 0.0289
vn 0.0010 0.0844 0.9964
vn 0.0019 0.0841 0.9965
vn -0.6275 -0.6810 0.3775
vn -0.6084 -0.7026 0.3692
vn -0.8475 -0.4934 0.1957
vn -0.6392 -0.7259 0.2540
vn -0.6583 -0.7089 0.2532
vn -0.2016 -0.7120 0.6726
vn -0.2931 -0.8638 0.4098
vn -0.1318 -0.3341 0.9333
vn -0.2903 -0.8035 0.5197
vn -0.1954 -0.2975 0.9345
vn -0.4461 -0.8016 0.3981
vn -0.3468 -0.8175 0.4598
vn -0.4473 -0.8074 0.3847
vn -0.1264 -0.2494 0.9601
vn -0.1465 -0.3149 0.9378
vn 1.0000 0.0042 0.0009
vn 1.0000 0.0006 0.0010
vn 0.0078 0.0597 0.9982
vn -0.1714 -0.8365 0.5206
vn 0.0010 0.0572 0.9984
vn -0.1319 -0.8692 0.4765
vn -0.3420 -0.8519 0.3966
vn -0.3653 -0.9233 -0.1183
vn -0.2052 -0.9760 -0.0730
vn -0.3405 -0.9364 -0.0849
vn -0.4627 -0.8711 -0.1647
vn -0.0003 0.0655 0.9979
vn -0.0672 -0.1163 0.9909
vn -0.0007 0.0651 0.9979
vn -0.2248 -0.9093 0.3501
vn -0.2267 -0.9128 0.3399
vn -0.4534 -0.8822 -0.1270
vn -0.2050 -0.9135 0.3514
vn -0.0763 -0.9751 0.2084
vn 0.0004 0.0613 0.9981
vn -0.0000 0.0655 0.9979
vn -0.4765 -0.7421 0.4715
vn -0.0887 0.9662 -0.2421
s 0
usemtl Material.030
f 1//1 2//1 3//1
f 2//2 1//2 5//2
f 8//3 1//3 3//3
f 7//4 4//4 1//4
f 4//5 6//5 1//5
f 5//2 1//2 6//2
f 1//4 8//4 7//4
f 7//6 8//6 9//6
f 3//7 9//7 8//7
f 10//8 9//8 3//8
f 9//4 10//4 12//4
f 12//4 11//4 9//4
f 9//9 11//9 7//9
f 13//10 12//10 10//10
f 14//11 11//11 12//11
f 12//10 13//10 17//10
f 12//12 15//12 14//12
f 15//13 12//13 16//13
f 16//14 12//14 17//14
f 18//15 17//15 13//15
f 17//16 18//16 19//16
f 16//17 17//17 19//17
f 19//18 18//18 20//18
f 19//19 20//19 24//19
f 19//20 24//20 21//20
f 21//21 23//21 19//21
f 16//22 19//22 22//22
f 22//23 19//23 23//23
f 25//24 21//24 24//24
f 24//25 26//25 25//25
f 27//26 24//26 20//26
f 26//27 24//27 27//27
f 26//28 27//28 28//28
f 28//29 27//29 29//29
f 18//30 29//30 27//30
f 27//31 20//31 18//31
f 29//32 18//32 30//32
f 30//33 32//33 29//33
f 29//34 31//34 28//34
f 31//35 29//35 32//35
f 32//36 33//36 31//36
f 34//37 33//37 32//37
f 35//38 32//38 30//38
f 32//39 35//39 34//39
f 36//40 34//40 35//40
f 35//41 37//41 36//41
f 30//42 38//42 35//42
f 37//43 35//43 39//43
f 38//44 39//44 35//44
f 39//45 42//45 40//45
f 39//46 40//46 37//46
f 41//47 43//47 39//47
f 39//48 38//48 41//48
f 42//49 39//49 43//49
f 44//50 43//50 41//50
f 45//51 43//51 44//51
f 43//52 45//52 42//52
f 46//53 45//53 44//53
f 45//54 46//54 47//54
f 42//55 45//55 47//55
f 42//56 47//56 48//56
f 48//57 47//57 49//57
f 49//57 47//57 46//57
f 50//58 53//58 49//58
f 49//59 54//59 50//59
f 49//60 53//60 48//60
f 51//57 49//57 46//57
f 49//61 51//61 52//61
f 55//62 49//62 52//62
f 54//63 49//63 55//63
f 54//64 55//64 58//64
f 57//65 55//65 52//65
f 56//66 55//66 57//66
f 56//67 58//67 55//67
f 58//68 59//68 60//68
f 56//69 59//69 58//69
f 58//70 62//70 54//70
f 58//71 60//71 61//71
f 62//72 58//72 61//72
f 62//73 50//73 54//73
f 62//74 63//74 64//74
f 62//75 61//75 63//75
f 50//76 62//76 64//76
f 50//77 64//77 65//77
f 64//78 66//78 65//78
f 66//79 64//79 63//79
f 66//80 67//80 69//80
f 66//81 68//81 67//81
f 66//82 63//82 68//82
f 66//83 69//83 65//83
f 65//84 69//84 70//84
f 69//85 71//85 70//85
f 72//86 71//86 69//86
f 67//87 72//87 69//87
f 72//88 68//88 73//88
f 73//89 74//89 72//89
f 68//90 72//90 67//90
f 72//91 74//91 75//91
f 72//92 75//92 71//92
f 75//93 76//93 71//93
f 77//94 76//94 75//94
f 75//95 74//95 77//95
f 76//96 77//96 78//96
f 77//97 74//97 78//97
f 79//98 78//98 80//98
f 78//99 79//99 76//99
f 74//100 81//100 78//100
f 78//101 81//101 80//101
f 81//102 85//102 82//102
f 83//103 81//103 82//103
f 83//104 84//104 81//104
f 84//105 80//105 81//105
f 74//106 85//106 81//106
f 85//107 86//107 82//107
f 85//108 89//108 86//108
f 85//109 74//109 87//109
f 88//110 85//110 87//110
f 85//111 88//111 89//111
f 90//112 91//112 89//112
f 89//113 88//113 90//113
f 92//114 89//114 91//114
f 89//115 92//115 86//115
f 92//116 93//116 86//116
f 94//117 92//117 91//117
f 94//118 93//118 92//118
f 94//119 91//119 95//119
f 94//120 95//120 96//120
f 97//121 94//121 96//121
f 97//122 93//122 94//122
f 96//123 99//123 97//123
f 97//124 99//124 98//124
f 98//125 100//125 97//125
f 57//126 97//126 100//126
f 57//127 93//127 97//127
f 100//128 98//128 59//128
f 59//129 56//129 100//129
f 57//130 100//130 56//130
f 99//131 102//131 101//131
f 101//132 98//132 99//132
f 96//133 102//133 99//133
f 104//134 103//134 102//134
f 103//135 101//135 102//135
f 105//136 104//136 102//136
f 96//137 106//137 102//137
f 102//138 106//138 105//138
f 105//139 106//139 107//139
f 108//140 107//140 106//140
f 108//141 106//141 95//141
f 95//142 106//142 96//142
f 110//143 107//143 108//143
f 88//144 109//144 108//144
f 109//145 110//145 108//145
f 90//146 88//146 108//146
f 91//147 90//147 108//147
f 91//148 108//148 95//148
f 111//149 112//149 110//149
f 110//150 114//150 111//150
f 115//151 107//151 110//151
f 110//152 112//152 113//152
f 113//153 115//153 110//153
f 114//154 110//154 109//154
f 105//155 115//155 116//155
f 115//155 113//155 116//155
f 115//156 105//156 107//156
f 116//157 44//157 10//157
f 10//10 120//10 116//10
f 116//4 117//4 119//4
f 117//158 116//158 120//158
f 119//4 118//4 116//4
f 116//155 118//155 105//155
f 116//155 113//155 44//155
f 3//159 120//159 10//159
f 3//4 117//4 120//4
f 117//155 121//155 119//155
f 119//155 121//155 123//155
f 123//160 122//160 119//160
f 119//57 122//57 124//57
f 119//57 124//57 118//57
f 129//161 124//161 125//161
f 126//57 125//57 124//57
f 122//57 126//57 124//57
f 124//162 52//162 118//162
f 124//163 86//163 52//163
f 124//161 82//161 86//161
f 124//164 127//164 82//164
f 127//165 124//165 128//165
f 129//161 128//161 124//161
f 130//57 129//57 131//57
f 130//166 128//166 129//166
f 126//167 131//167 129//167
f 129//167 125//167 126//167
f 131//168 133//168 130//168
f 126//169 132//169 131//169
f 131//169 132//169 134//169
f 135//169 133//169 131//169
f 134//169 135//169 131//169
f 142//170 135//170 136//170
f 138//169 136//169 135//169
f 137//171 135//171 134//171
f 137//169 140//169 135//169
f 140//169 138//169 135//169
f 135//172 141//172 139//172
f 133//173 135//173 139//173
f 135//174 142//174 141//174
f 146//175 142//175 136//175
f 142//176 145//176 141//176
f 145//177 142//177 143//177
f 142//178 144//178 143//178
f 144//179 142//179 146//179
f 144//180 146//180 147//180
f 136//181 147//181 146//181
f 126//182 147//182 148//182
f 147//183 149//183 148//183
f 147//184 136//184 149//184
f 147//185 151//185 150//185
f 150//186 152//186 147//186
f 126//187 151//187 147//187
f 147//188 152//188 144//188
f 152//189 154//189 153//189
f 153//190 144//190 152//190
f 155//191 154//191 152//191
f 152//192 150//192 155//192
f 154//193 155//193 156//193
f 156//194 155//194 150//194
f 158//195 156//195 150//195
f 159//196 157//196 156//196
f 153//197 156//197 157//197
f 153//198 154//198 156//198
f 158//199 160//199 156//199
f 160//200 159//200 156//200
f 158//201 159//201 160//201
f 157//202 159//202 161//202
f 161//203 159//203 162//203
f 162//204 159//204 158//204
f 162//167 158//167 122//167
f 122//167 163//167 162//167
f 162//205 164//205 161//205
f 162//206 163//206 164//206
f 164//207 163//207 165//207
f 165//208 166//208 164//208
f 164//209 166//209 161//209
f 167//210 166//210 165//210
f 166//211 167//211 168//211
f 168//212 161//212 166//212
f 172//213 169//213 168//213
f 169//214 174//214 168//214
f 168//215 167//215 170//215
f 168//216 170//216 171//216
f 168//217 171//217 172//217
f 173//218 161//218 168//218
f 174//219 173//219 168//219
f 175//220 174//220 169//220
f 175//221 176//221 174//221
f 174//222 176//222 173//222
f 178//223 177//223 176//223
f 177//224 157//224 176//224
f 173//225 176//225 157//225
f 176//226 175//226 178//226
f 180//227 178//227 179//227
f 178//228 175//228 179//228
f 180//229 181//229 178//229
f 178//230 181//230 177//230
f 181//231 180//231 182//231
f 184//232 181//232 182//232
f 177//233 181//233 153//233
f 143//234 153//234 181//234
f 181//235 183//235 143//235
f 183//236 181//236 184//236
f 184//237 139//237 186//237
f 187//238 139//238 184//238
f 182//239 185//239 184//239
f 184//240 185//240 187//240
f 183//241 184//241 186//241
f 133//242 139//242 187//242
f 133//243 187//243 188//243
f 185//244 188//244 187//244
f 133//245 188//245 130//245
f 189//246 130//246 188//246
f 185//247 189//247 188//247
f 189//248 185//248 190//248
f 191//249 189//249 190//249
f 192//250 189//250 191//250
f 192//251 130//251 189//251
f 192//252 191//252 193//252
f 194//253 192//253 193//253
f 192//254 128//254 130//254
f 197//255 192//255 194//255
f 196//256 128//256 192//256
f 196//257 192//257 195//257
f 195//258 192//258 197//258
f 194//259 198//259 197//259
f 197//260 198//260 199//260
f 197//261 199//261 195//261
f 199//262 200//262 204//262
f 207//263 200//263 199//263
f 198//264 202//264 199//264
f 199//265 201//265 206//265
f 199//266 202//266 201//266
f 204//267 203//267 199//267
f 195//268 199//268 203//268
f 205//269 199//269 206//269
f 199//270 205//270 207//270
f 209//271 207//271 208//271
f 208//272 207//272 206//272
f 207//273 209//273 210//273
f 210//274 200//274 207//274
f 207//275 205//275 206//275
f 211//276 204//276 210//276
f 211//277 210//277 212//277
f 213//278 212//278 210//278
f 210//279 209//279 213//279
f 210//280 204//280 200//280
f 213//281 209//281 215//281
f 213//282 214//282 212//282
f 214//283 213//283 215//283
f 215//284 217//284 216//284
f 216//285 214//285 215//285
f 217//286 215//286 218//286
f 218//287 215//287 209//287
f 217//288 218//288 219//288
f 218//289 220//289 219//289
f 209//290 220//290 218//290
f 220//291 226//291 221//291
f 221//292 223//292 220//292
f 224//293 220//293 222//293
f 220//294 223//294 222//294
f 220//295 224//295 219//295
f 209//296 225//296 220//296
f 226//297 220//297 225//297
f 227//298 221//298 226//298
f 226//299 225//299 227//299
f 221//300 227//300 229//300
f 229//301 227//301 228//301
f 225//302 228//302 227//302
f 229//303 232//303 221//303
f 229//304 230//304 233//304
f 231//305 230//305 229//305
f 231//306 229//306 228//306
f 233//307 232//307 229//307
f 233//308 234//308 237//308
f 234//309 233//309 230//309
f 235//310 232//310 233//310
f 233//311 236//311 235//311
f 237//312 236//312 233//312
f 237//313 238//313 243//313
f 240//314 238//314 237//314
f 239//315 237//315 234//315
f 237//316 239//316 241//316
f 237//317 241//317 240//317
f 237//318 242//318 236//318
f 243//319 242//319 237//319
f 244//320 243//320 238//320
f 243//321 244//321 246//321
f 246//322 245//322 243//322
f 242//323 243//323 245//323
f 247//324 246//324 244//324
f 246//325 247//325 217//325
f 245//326 246//326 217//326
f 247//327 248//327 216//327
f 216//328 217//328 247//328
f 248//329 247//329 249//329
f 244//330 249//330 247//330
f 238//331 250//331 249//331
f 249//332 244//332 238//332
f 251//333 249//333 250//333
f 249//334 251//334 248//334
f 250//335 252//335 251//335
f 252//336 253//336 251//336
f 253//337 254//337 251//337
f 251//338 254//338 248//338
f 253//339 255//339 254//339
f 257//340 254//340 255//340
f 256//341 254//341 257//341
f 254//342 256//342 248//342
f 258//343 261//343 257//343
f 258//344 257//344 259//344
f 259//345 257//345 255//345
f 256//346 257//346 260//346
f 260//347 257//347 261//347
f 261//348 258//348 262//348
f 260//349 261//349 262//349
f 263//350 265//350 262//350
f 263//351 262//351 264//351
f 264//352 262//352 258//352
f 266//353 262//353 265//353
f 262//354 266//354 260//354
f 265//355 267//355 266//355
f 268//356 266//356 267//356
f 266//357 268//357 269//357
f 269//358 260//358 266//358
f 270//359 216//359 269//359
f 216//360 256//360 269//360
f 269//361 256//361 260//361
f 272//362 269//362 268//362
f 270//363 269//363 271//363
f 269//364 272//364 271//364
f 268//365 275//365 272//365
f 275//366 273//366 272//366
f 273//367 274//367 272//367
f 276//368 272//368 274//368
f 272//369 276//369 271//369
f 277//370 278//370 276//370
f 276//371 279//371 277//371
f 278//372 280//372 276//372
f 274//373 279//373 276//373
f 276//374 280//374 271//374
f 280//375 281//375 271//375
f 282//376 281//376 280//376
f 280//377 278//377 282//377
f 283//378 281//378 282//378
f 285//379 283//379 282//379
f 282//380 278//380 284//380
f 285//381 282//381 284//381
f 286//382 285//382 284//382
f 287//383 285//383 286//383
f 287//384 283//384 285//384
f 286//385 288//385 287//385
f 211//386 283//386 287//386
f 288//387 203//387 287//387
f 287//388 203//388 204//388
f 204//389 211//389 287//389
f 195//390 288//390 196//390
f 288//391 195//391 203//391
f 288//392 286//392 289//392
f 288//393 289//393 196//393
f 291//394 196//394 289//394
f 289//395 286//395 290//395
f 290//396 291//396 289//396
f 291//397 128//397 196//397
f 293//398 128//398 291//398
f 290//399 292//399 291//399
f 291//400 292//400 293//400
f 294//401 128//401 293//401
f 293//402 292//402 294//402
f 295//403 128//403 294//403
f 294//404 296//404 295//404
f 292//405 296//405 294//405
f 297//406 298//406 296//406
f 296//407 300//407 297//407
f 296//408 298//408 295//408
f 300//409 296//409 299//409
f 299//410 296//410 292//410
f 300//411 301//411 297//411
f 300//412 277//412 301//412
f 299//413 277//413 300//413
f 301//414 279//414 302//414
f 302//415 303//415 301//415
f 277//416 279//416 301//416
f 297//417 301//417 303//417
f 303//418 306//418 297//418
f 308//419 304//419 303//419
f 304//420 306//420 303//420
f 308//421 303//421 305//421
f 303//422 307//422 305//422
f 302//423 307//423 303//423
f 311//424 309//424 308//424
f 308//425 309//425 312//425
f 310//426 311//426 308//426
f 308//427 305//427 310//427
f 304//428 308//428 312//428
f 312//429 313//429 315//429
f 313//430 312//430 309//430
f 316//431 312//431 314//431
f 315//432 314//432 312//432
f 304//433 312//433 316//433
f 306//434 304//434 316//434
f 318//435 306//435 316//435
f 316//436 314//436 317//436
f 320//437 316//437 317//437
f 318//438 316//438 319//438
f 320//439 319//439 316//439
f 320//440 321//440 322//440
f 317//441 321//441 320//441
f 320//442 322//442 319//442
f 128//443 323//443 322//443
f 322//444 325//444 128//444
f 322//445 321//445 324//445
f 319//446 322//446 323//446
f 325//447 322//447 324//447
f 328//448 325//448 324//448
f 127//449 128//449 325//449
f 326//450 127//450 325//450
f 326//451 325//451 327//451
f 327//452 325//452 315//452
f 314//453 325//453 328//453
f 325//454 314//454 315//454
f 328//455 324//455 329//455
f 314//456 328//456 329//456
f 329//457 324//457 321//457
f 321//458 317//458 329//458
f 314//459 329//459 317//459
f 333//460 330//460 327//460
f 327//461 330//461 332//461
f 327//462 332//462 326//462
f 331//463 327//463 313//463
f 331//464 333//464 327//464
f 315//465 313//465 327//465
f 330//466 333//466 331//466
f 334//467 335//467 332//467
f 334//468 332//468 330//468
f 335//469 336//469 332//469
f 326//470 332//470 336//470
f 337//471 336//471 335//471
f 326//472 336//472 337//472
f 335//473 339//473 337//473
f 338//474 337//474 339//474
f 326//475 337//475 338//475
f 339//476 335//476 340//476
f 341//477 339//477 340//477
f 342//478 339//478 341//478
f 339//479 342//479 338//479
f 345//480 343//480 342//480
f 342//481 343//481 344//481
f 341//482 345//482 342//482
f 344//483 338//483 342//483
f 345//484 346//484 348//484
f 346//485 345//485 347//485
f 345//486 341//486 347//486
f 348//487 343//487 345//487
f 343//488 348//488 350//488
f 348//489 349//489 350//489
f 352//490 349//490 348//490
f 351//491 352//491 348//491
f 348//492 346//492 351//492
f 353//493 352//493 351//493
f 353//494 349//494 352//494
f 351//495 354//495 353//495
f 355//496 353//496 354//496
f 353//497 355//497 356//497
f 349//498 353//498 357//498
f 356//499 357//499 353//499
f 83//500 357//500 356//500
f 357//501 83//501 358//501
f 357//502 358//502 349//502
f 358//503 83//503 350//503
f 349//504 358//504 350//504
f 359//505 356//505 355//505
f 83//506 356//506 359//506
f 355//507 360//507 359//507
f 359//508 360//508 361//508
f 361//509 84//509 359//509
f 83//510 359//510 84//510
f 28//511 362//511 361//511
f 84//512 361//512 362//512
f 361//513 363//513 28//513
f 361//514 360//514 363//514
f 365//515 25//515 363//515
f 28//516 363//516 25//516
f 364//517 365//517 363//517
f 363//518 354//518 364//518
f 360//519 355//519 363//519
f 355//520 354//520 363//520
f 366//521 365//521 364//521
f 21//522 25//522 365//522
f 365//523 366//523 21//523
f 364//524 368//524 366//524
f 366//525 368//525 367//525
f 23//526 366//526 367//526
f 366//527 23//527 21//527
f 369//528 368//528 364//528
f 369//529 367//529 368//529
f 364//530 370//530 369//530
f 371//531 369//531 370//531
f 367//532 369//532 371//532
f 371//533 372//533 367//533
f 372//534 371//534 374//534
f 374//535 371//535 373//535
f 370//536 373//536 371//536
f 375//537 374//537 376//537
f 375//538 372//538 374//538
f 374//539 373//539 376//539
f 376//540 378//540 375//540
f 377//541 376//541 373//541
f 347//542 378//542 376//542
f 376//543 377//543 347//543
f 347//544 379//544 378//544
f 378//545 379//545 380//545
f 380//546 375//546 378//546
f 383//547 380//547 379//547
f 380//548 382//548 381//548
f 381//549 372//549 380//549
f 372//550 375//550 380//550
f 382//551 380//551 383//551
f 384//552 383//552 385//552
f 383//553 384//553 382//553
f 379//554 385//554 383//554
f 385//555 347//555 387//555
f 347//556 385//556 379//556
f 385//557 386//557 384//557
f 387//558 386//558 385//558
f 341//559 388//559 387//559
f 388//560 389//560 387//560
f 387//561 347//561 341//561
f 389//562 390//562 387//562
f 387//563 390//563 391//563
f 387//564 391//564 386//564
f 386//565 391//565 393//565
f 392//566 393//566 391//566
f 391//567 390//567 392//567
f 382//568 384//568 393//568
f 394//569 382//569 393//569
f 393//570 392//570 394//570
f 393//571 384//571 386//571
f 396//572 382//572 394//572
f 396//573 394//573 395//573
f 392//574 395//574 394//574
f 4//575 396//575 395//575
f 397//576 382//576 396//576
f 4//577 7//577 396//577
f 397//578 396//578 7//578
f 381//579 382//579 397//579
f 397//580 14//580 381//580
f 14//581 397//581 7//581
f 401//582 395//582 398//582
f 395//583 392//583 398//583
f 4//584 395//584 6//584
f 6//585 395//585 400//585
f 395//586 401//586 399//586
f 399//587 400//587 395//587
f 398//588 402//588 401//588
f 403//589 401//589 402//589
f 399//590 401//590 403//590
f 405//591 404//591 403//591
f 399//592 403//592 404//592
f 402//593 405//593 403//593
f 406//594 331//594 405//594
f 406//595 405//595 402//595
f 331//596 404//596 405//596
f 406//597 402//597 389//597
f 406//598 389//598 331//598
f 404//599 407//599 410//599
f 408//600 407//600 404//600
f 409//601 408//601 404//601
f 331//602 409//602 404//602
f 410//603 399//603 404//603
f 400//604 399//604 410//604
f 412//605 410//605 411//605
f 410//606 407//606 411//606
f 413//607 410//607 412//607
f 410//608 413//608 400//608
f 412//609 414//609 413//609
f 417//610 413//610 414//610
f 413//611 415//611 400//611
f 415//612 413//612 416//612
f 416//613 413//613 417//613
f 417//614 414//614 419//614
f 417//615 418//615 420//615
f 418//616 417//616 419//616
f 420//617 416//617 417//617
f 420//618 421//618 416//618
f 420//619 422//619 421//619
f 423//620 422//620 420//620
f 418//621 423//621 420//621
f 424//622 425//622 423//622
f 424//623 423//623 426//623
f 422//624 423//624 425//624
f 426//625 423//625 418//625
f 426//626 428//626 424//626
f 426//627 427//627 428//627
f 426//628 418//628 427//628
f 429//629 424//629 428//629
f 430//630 429//630 428//630
f 430//631 428//631 427//631
f 430//632 431//632 259//632
f 431//633 430//633 264//633
f 259//634 432//634 430//634
f 264//635 430//635 427//635
f 432//636 429//636 430//636
f 432//637 437//637 429//637
f 433//638 435//638 432//638
f 433//639 432//639 434//639
f 432//639 259//639 434//639
f 432//640 435//640 436//640
f 436//641 437//641 432//641
f 424//642 429//642 437//642
f 438//643 437//643 440//643
f 439//644 437//644 438//644
f 437//645 439//645 424//645
f 437//646 436//646 440//646
f 440//647 441//647 443//647
f 440//648 436//648 441//648
f 440//649 442//649 438//649
f 443//650 442//650 440//650
f 444//651 443//651 441//651
f 444//652 445//652 443//652
f 443//653 445//653 446//653
f 443//654 446//654 447//654
f 442//655 443//655 447//655
f 446//656 448//656 447//656
f 447//657 448//657 450//657
f 450//157 449//157 447//157
f 442//658 447//658 449//658
f 450//659 451//659 452//659
f 450//660 453//660 451//660
f 450//201 452//201 455//201
f 450//661 456//661 453//661
f 448//660 456//660 450//660
f 458//662 450//662 454//662
f 450//155 455//155 454//155
f 449//10 450//10 457//10
f 457//663 450//663 458//663
f 458//664 454//664 459//664
f 459//665 460//665 458//665
f 422//666 457//666 458//666
f 458//667 460//667 422//667
f 460//668 459//668 461//668
f 461//668 462//668 460//668
f 460//669 462//669 422//669
f 462//670 461//670 463//670
f 463//671 465//671 462//671
f 462//672 465//672 464//672
f 464//673 422//673 462//673
f 465//674 463//674 467//674
f 467//675 466//675 465//675
f 465//676 466//676 464//676
f 467//155 463//155 468//155
f 468//155 469//155 467//155
f 117//155 467//155 469//155
f 3//677 466//677 467//677
f 117//678 3//678 467//678
f 470//679 469//679 472//679
f 469//155 470//155 117//155
f 469//680 468//680 471//680
f 471//681 472//681 469//681
f 472//682 473//682 470//682
f 473//683 472//683 471//683
f 475//684 474//684 473//684
f 476//684 473//684 474//684
f 471//684 475//684 473//684
f 473//685 476//685 121//685
f 121//685 470//685 473//685
f 479//686 476//686 477//686
f 476//687 478//687 477//687
f 476//688 474//688 478//688
f 121//689 476//689 479//689
f 479//690 477//690 480//690
f 480//691 481//691 479//691
f 481//692 482//692 479//692
f 121//693 479//693 482//693
f 482//694 483//694 484//694
f 482//695 485//695 483//695
f 482//696 481//696 485//696
f 484//697 123//697 482//697
f 482//698 123//698 121//698
f 490//699 486//699 485//699
f 489//700 485//700 486//700
f 487//701 485//701 488//701
f 485//702 487//702 483//702
f 489//703 488//703 485//703
f 485//704 481//704 490//704
f 448//155 486//155 490//155
f 491//705 490//705 481//705
f 492//706 490//706 491//706
f 448//660 490//660 492//660
f 456//707 492//707 493//707
f 448//708 492//708 456//708
f 492//709 491//709 493//709
f 480//710 493//710 491//710
f 493//711 480//711 456//711
f 491//712 481//712 480//712
f 486//713 494//713 489//713
f 494//714 488//714 489//714
f 494//715 495//715 488//715
f 448//155 495//155 494//155
f 448//155 494//155 486//155
f 495//716 496//716 497//716
f 448//660 496//660 495//660
f 495//717 497//717 488//717
f 497//718 487//718 488//718
f 487//719 497//719 496//719
f 496//720 498//720 499//720
f 448//155 498//155 496//155
f 499//721 487//721 496//721
f 500//722 483//722 499//722
f 483//723 487//723 499//723
f 501//724 500//724 499//724
f 502//725 501//725 499//725
f 502//726 499//726 498//726
f 503//727 501//727 502//727
f 498//728 503//728 502//728
f 448//155 503//155 498//155
f 503//729 504//729 501//729
f 448//155 504//155 503//155
f 448//660 505//660 504//660
f 506//155 504//155 505//155
f 506//730 507//730 504//730
f 504//731 507//731 501//731
f 507//732 506//732 510//732
f 508//733 500//733 507//733
f 509//734 508//734 507//734
f 500//735 501//735 507//735
f 510//736 509//736 507//736
f 510//155 506//155 513//155
f 509//737 510//737 511//737
f 512//155 511//155 510//155
f 510//155 514//155 512//155
f 513//155 514//155 510//155
f 512//738 514//738 515//738
f 514//739 513//739 516//739
f 516//740 515//740 514//740
f 518//741 516//741 513//741
f 518//742 517//742 516//742
f 516//743 517//743 515//743
f 513//744 505//744 518//744
f 519//745 518//745 505//745
f 519//746 517//746 518//746
f 505//747 448//747 519//747
f 445//748 520//748 519//748
f 517//749 519//749 520//749
f 445//750 519//750 446//750
f 446//751 519//751 448//751
f 520//752 521//752 522//752
f 520//753 444//753 521//753
f 522//754 523//754 520//754
f 445//755 444//755 520//755
f 520//756 523//756 517//756
f 517//757 523//757 524//757
f 523//758 525//758 524//758
f 523//759 522//759 525//759
f 526//760 524//760 525//760
f 526//761 525//761 527//761
f 522//762 527//762 525//762
f 527//763 528//763 526//763
f 528//764 527//764 529//764
f 527//765 522//765 529//765
f 530//766 529//766 531//766
f 234//767 529//767 530//767
f 522//768 531//768 529//768
f 528//769 529//769 234//769
f 531//770 522//770 532//770
f 532//771 533//771 531//771
f 534//772 531//772 533//772
f 531//773 534//773 530//773
f 534//774 533//774 535//774
f 535//775 530//775 534//775
f 239//776 535//776 533//776
f 234//777 535//777 239//777
f 234//778 530//778 535//778
f 536//779 533//779 532//779
f 536//780 537//780 533//780
f 533//781 537//781 538//781
f 533//782 538//782 239//782
f 538//783 537//783 241//783
f 241//784 239//784 538//784
f 240//785 241//785 537//785
f 536//786 539//786 537//786
f 537//787 539//787 240//787
f 240//788 539//788 536//788
f 532//789 542//789 536//789
f 536//790 540//790 240//790
f 540//791 536//791 541//791
f 541//792 536//792 542//792
f 542//793 532//793 543//793
f 541//794 542//794 543//794
f 435//795 543//795 544//795
f 545//796 544//796 543//796
f 545//797 543//797 532//797
f 433//798 543//798 435//798
f 543//157 433//157 541//157
f 521//799 545//799 522//799
f 545//800 521//800 544//800
f 545//801 532//801 522//801
f 441//802 544//802 444//802
f 544//803 521//803 444//803
f 544//804 441//804 546//804
f 544//805 546//805 435//805
f 441//806 436//806 546//806
f 435//807 546//807 436//807
f 540//808 541//808 250//808
f 252//809 250//809 541//809
f 541//810 433//810 252//810
f 250//811 238//811 540//811
f 240//812 540//812 238//812
f 547//813 526//813 528//813
f 230//814 528//814 234//814
f 528//815 548//815 547//815
f 528//816 230//816 548//816
f 548//817 549//817 550//817
f 549//818 548//818 230//818
f 550//819 547//819 548//819
f 547//820 550//820 551//820
f 208//821 551//821 550//821
f 208//822 550//822 549//822
f 547//823 551//823 552//823
f 552//824 551//824 553//824
f 554//825 553//825 551//825
f 208//826 554//826 551//826
f 555//827 553//827 554//827
f 554//828 208//828 206//828
f 554//829 556//829 555//829
f 556//830 554//830 201//830
f 554//831 206//831 201//831
f 555//832 556//832 182//832
f 185//833 182//833 556//833
f 556//834 190//834 185//834
f 201//835 190//835 556//835
f 559//836 553//836 555//836
f 557//837 555//837 182//837
f 558//838 555//838 557//838
f 555//839 558//839 559//839
f 559//840 560//840 561//840
f 560//841 559//841 558//841
f 561//842 552//842 559//842
f 553//843 559//843 552//843
f 524//844 561//844 560//844
f 561//845 524//845 526//845
f 552//846 561//846 526//846
f 562//847 560//847 563//847
f 560//848 562//848 524//848
f 558//849 563//849 560//849
f 563//850 557//850 564//850
f 564//851 565//851 563//851
f 563//852 565//852 562//852
f 563//853 558//853 557//853
f 562//854 565//854 568//854
f 566//855 567//855 565//855
f 171//856 566//856 565//856
f 567//857 568//857 565//857
f 171//858 565//858 564//858
f 568//859 567//859 569//859
f 570//860 568//860 569//860
f 571//861 568//861 570//861
f 568//862 571//862 562//862
f 571//863 517//863 524//863
f 524//864 562//864 571//864
f 517//865 571//865 572//865
f 572//866 571//866 570//866
f 515//867 572//867 512//867
f 573//868 512//868 572//868
f 515//869 517//869 572//869
f 572//870 570//870 573//870
f 577//871 574//871 573//871
f 574//872 163//872 573//872
f 573//873 576//873 575//873
f 573//659 575//659 511//659
f 511//874 512//874 573//874
f 570//875 569//875 573//875
f 573//155 163//155 576//155
f 577//876 573//876 569//876
f 569//877 578//877 577//877
f 574//878 577//878 578//878
f 578//879 579//879 581//879
f 580//10 579//10 578//10
f 578//10 567//10 580//10
f 581//879 582//879 578//879
f 578//878 582//878 574//878
f 578//880 569//880 567//880
f 167//881 582//881 581//881
f 582//882 165//882 574//882
f 167//883 165//883 582//883
f 583//884 581//884 584//884
f 581//885 583//885 167//885
f 584//886 581//886 579//886
f 584//887 587//887 583//887
f 585//888 584//888 586//888
f 587//889 584//889 585//889
f 579//890 586//890 584//890
f 588//891 587//891 590//891
f 587//892 588//892 589//892
f 589//893 583//893 587//893
f 585//894 590//894 587//894
f 591//895 588//895 590//895
f 590//896 592//896 591//896
f 590//897 585//897 594//897
f 592//898 590//898 593//898
f 594//899 593//899 590//899
f 594//900 585//900 595//900
f 595//900 596//900 594//900
f 596//901 598//901 594//901
f 594//902 597//902 593//902
f 594//903 598//903 597//903
f 597//904 598//904 592//904
f 598//905 599//905 592//905
f 599//906 598//906 600//906
f 600//907 598//907 596//907
f 601//10 600//10 596//10
f 600//908 601//908 599//908
f 603//10 601//10 595//10
f 596//10 595//10 601//10
f 602//909 599//909 601//909
f 601//910 603//910 602//910
f 595//10 586//10 603//10
f 604//911 602//911 603//911
f 603//912 580//912 604//912
f 580//10 603//10 586//10
f 566//913 605//913 604//913
f 602//914 604//914 605//914
f 604//915 580//915 567//915
f 567//916 566//916 604//916
f 605//917 606//917 170//917
f 606//918 605//918 566//918
f 588//919 591//919 605//919
f 605//920 589//920 588//920
f 170//921 589//921 605//921
f 605//922 591//922 602//922
f 171//923 170//923 606//923
f 171//924 606//924 566//924
f 602//925 591//925 592//925
f 592//926 599//926 602//926
f 593//927 597//927 592//927
f 586//888 595//888 585//888
f 167//928 583//928 589//928
f 170//929 167//929 589//929
f 586//10 579//10 580//10
f 484//155 576//155 163//155
f 608//930 576//930 607//930
f 484//155 607//155 576//155
f 576//931 608//931 508//931
f 576//932 508//932 575//932
f 508//933 608//933 500//933
f 607//934 500//934 608//934
f 500//935 607//935 484//935
f 575//936 508//936 609//936
f 609//937 511//937 575//937
f 508//938 509//938 609//938
f 511//939 609//939 509//939
f 574//940 165//940 163//940
f 564//941 557//941 610//941
f 172//942 564//942 610//942
f 564//943 172//943 171//943
f 610//944 179//944 172//944
f 610//945 182//945 180//945
f 180//946 179//946 610//946
f 557//947 182//947 610//947
f 526//948 547//948 552//948
f 230//949 231//949 549//949
f 228//950 549//950 231//950
f 228//951 208//951 549//951
f 505//155 513//155 506//155
f 484//952 483//952 500//952
f 163//953 611//953 484//953
f 612//954 484//954 611//954
f 484//955 612//955 123//955
f 615//956 613//956 612//956
f 123//957 612//957 613//957
f 612//958 611//958 614//958
f 614//959 616//959 612//959
f 612//956 616//956 615//956
f 615//155 616//155 617//155
f 616//155 618//155 617//155
f 620//155 618//155 616//155
f 616//155 614//155 619//155
f 620//155 616//155 619//155
f 620//960 621//960 618//960
f 620//961 619//961 132//961
f 620//962 132//962 621//962
f 618//963 621//963 622//963
f 621//964 132//964 126//964
f 621//169 126//169 622//169
f 622//965 617//965 618//965
f 617//966 622//966 148//966
f 622//169 126//169 148//169
f 623//155 619//155 614//155
f 134//967 132//967 619//967
f 619//968 623//968 134//968
f 624//155 623//155 614//155
f 623//969 624//969 134//969
f 625//155 624//155 614//155
f 625//155 626//155 624//155
f 624//970 137//970 134//970
f 626//971 137//971 624//971
f 625//155 627//155 626//155
f 627//155 628//155 626//155
f 626//972 140//972 137//972
f 628//973 140//973 626//973
f 628//974 629//974 138//974
f 628//155 627//155 629//155
f 628//975 138//975 140//975
f 629//976 630//976 149//976
f 629//155 631//155 630//155
f 627//155 631//155 629//155
f 149//977 138//977 629//977
f 630//155 631//155 632//155
f 632//155 631//155 615//155
f 615//978 631//978 633//978
f 633//979 631//979 627//979
f 633//978 613//978 615//978
f 627//979 634//979 633//979
f 634//980 163//980 633//980
f 122//981 633//981 163//981
f 122//982 613//982 633//982
f 635//983 634//983 627//983
f 163//984 634//984 635//984
f 635//985 611//985 163//985
f 614//986 611//986 635//986
f 635//986 625//986 614//986
f 627//987 625//987 635//987
f 148//988 632//988 617//988
f 617//155 632//155 615//155
f 630//989 632//989 149//989
f 632//990 148//990 149//990
f 122//991 123//991 613//991
f 453//992 456//992 480//992
f 480//993 477//993 453//993
f 477//994 478//994 637//994
f 478//995 474//995 452//995
f 452//996 451//996 478//996
f 636//997 478//997 451//997
f 478//998 636//998 637//998
f 451//999 637//999 636//999
f 451//1000 453//1000 637//1000
f 477//1001 637//1001 453//1001
f 638//684 474//684 475//684
f 638//1002 475//1002 639//1002
f 475//1003 471//1003 468//1003
f 468//1004 639//1004 475//1004
f 639//1005 640//1005 638//1005
f 639//155 461//155 459//155
f 463//155 461//155 639//155
f 459//155 640//155 639//155
f 639//155 468//155 463//155
f 454//1006 455//1006 640//1006
f 640//155 459//155 454//155
f 641//1007 638//1007 640//1007
f 640//1008 455//1008 641//1008
f 642//1009 474//1009 641//1009
f 455//1010 642//1010 641//1010
f 641//1011 474//1011 638//1011
f 474//1012 642//1012 452//1012
f 455//1013 452//1013 642//1013
f 117//155 470//155 121//155
f 3//1014 643//1014 466//1014
f 466//1015 643//1015 464//1015
f 643//1016 2//1016 464//1016
f 643//1017 3//1017 2//1017
f 464//1018 2//1018 421//1018
f 464//1019 421//1019 422//1019
f 449//1020 457//1020 425//1020
f 425//1021 457//1021 422//1021
f 425//1022 644//1022 449//1022
f 644//1023 442//1023 449//1023
f 442//1024 644//1024 439//1024
f 644//1025 425//1025 439//1025
f 439//1026 438//1026 442//1026
f 439//1027 425//1027 424//1027
f 433//1028 434//1028 255//1028
f 434//1029 259//1029 255//1029
f 253//1030 252//1030 433//1030
f 433//1031 255//1031 253//1031
f 259//1032 431//1032 258//1032
f 431//1033 264//1033 258//1033
f 264//1034 427//1034 645//1034
f 418//1035 645//1035 427//1035
f 645//1036 646//1036 264//1036
f 646//1037 645//1037 647//1037
f 647//1038 645//1038 648//1038
f 419//1039 648//1039 645//1039
f 645//1040 418//1040 419//1040
f 648//1041 649//1041 650//1041
f 649//1042 648//1042 419//1042
f 650//1043 647//1043 648//1043
f 650//1044 651//1044 265//1044
f 651//1045 650//1045 649//1045
f 647//1046 650//1046 646//1046
f 265//1047 646//1047 650//1047
f 649//1048 654//1048 651//1048
f 651//1049 653//1049 652//1049
f 651//1050 652//1050 267//1050
f 267//1051 265//1051 651//1051
f 653//1052 651//1052 654//1052
f 658//1053 655//1053 654//1053
f 655//1054 656//1054 654//1054
f 656//1055 657//1055 654//1055
f 654//1056 657//1056 659//1056
f 654//1057 659//1057 653//1057
f 649//1058 658//1058 654//1058
f 660//1059 659//1059 657//1059
f 660//1060 653//1060 659//1060
f 653//1061 660//1061 662//1061
f 657//1062 661//1062 660//1062
f 661//1063 310//1063 660//1063
f 660//1064 663//1064 662//1064
f 660//1065 310//1065 663//1065
f 305//1066 663//1066 310//1066
f 663//1067 664//1067 662//1067
f 665//1068 664//1068 663//1068
f 663//1069 305//1069 665//1069
f 302//1070 665//1070 307//1070
f 307//1071 665//1071 305//1071
f 664//1072 665//1072 275//1072
f 275//1073 665//1073 273//1073
f 273//1074 665//1074 302//1074
f 664//1075 268//1075 666//1075
f 666//1076 662//1076 664//1076
f 275//930 268//930 664//930
f 652//1077 666//1077 268//1077
f 662//1078 666//1078 653//1078
f 653//1079 666//1079 652//1079
f 661//1080 657//1080 667//1080
f 667//1081 310//1081 661//1081
f 669//1082 668//1082 667//1082
f 668//1083 310//1083 667//1083
f 667//1084 657//1084 670//1084
f 667//1085 670//1085 669//1085
f 655//1086 669//1086 670//1086
f 670//1087 656//1087 655//1087
f 656//1088 670//1088 657//1088
f 669//1089 671//1089 673//1089
f 672//1090 671//1090 669//1090
f 672//1091 669//1091 655//1091
f 668//1092 669//1092 673//1092
f 674//1093 673//1093 408//1093
f 673//1094 671//1094 408//1094
f 309//80 673//80 674//80
f 673//1095 311//1095 668//1095
f 311//1096 673//1096 309//1096
f 313//1097 674//1097 331//1097
f 674//1098 409//1098 331//1098
f 674//1099 408//1099 409//1099
f 674//1100 313//1100 309//1100
f 412//1101 672//1101 655//1101
f 672//1102 411//1102 671//1102
f 411//1103 672//1103 412//1103
f 408//1104 671//1104 411//1104
f 668//1105 311//1105 310//1105
f 419//1106 658//1106 649//1106
f 658//1107 412//1107 655//1107
f 414//1108 412//1108 658//1108
f 658//1109 419//1109 414//1109
f 268//1110 267//1110 652//1110
f 263//1111 264//1111 646//1111
f 646//1112 265//1112 263//1112
f 421//1113 2//1113 415//1113
f 416//1114 421//1114 415//1114
f 2//1115 5//1115 415//1115
f 5//1116 6//1116 415//1116
f 415//1117 6//1117 400//1117
f 411//1118 407//1118 408//1118
f 390//1119 402//1119 398//1119
f 402//1120 390//1120 389//1120
f 398//1121 392//1121 390//1121
f 334//1122 675//1122 389//1122
f 389//1123 388//1123 334//1123
f 675//1124 331//1124 389//1124
f 675//1125 334//1125 330//1125
f 331//1126 675//1126 330//1126
f 340//1127 334//1127 388//1127
f 388//1128 341//1128 340//1128
f 381//1129 14//1129 372//1129
f 377//1130 351//1130 346//1130
f 354//1131 351//1131 377//1131
f 347//1132 377//1132 346//1132
f 354//1133 377//1133 373//1133
f 373//1134 370//1134 354//1134
f 14//1135 367//1135 372//1135
f 370//1136 364//1136 354//1136
f 23//1137 367//1137 14//1137
f 79//1138 362//1138 28//1138
f 80//1139 362//1139 79//1139
f 362//1140 80//1140 84//1140
f 350//1141 83//1141 127//1141
f 350//1142 127//1142 344//1142
f 350//1143 344//1143 343//1143
f 344//1144 127//1144 338//1144
f 335//1145 334//1145 340//1145
f 127//1146 326//1146 338//1146
f 319//1147 323//1147 128//1147
f 128//1148 318//1148 319//1148
f 318//1149 128//1149 676//1149
f 676//1150 306//1150 318//1150
f 676//1151 128//1151 295//1151
f 298//1152 306//1152 676//1152
f 295//1153 298//1153 676//1153
f 297//1154 306//1154 298//1154
f 273//1155 302//1155 279//1155
f 299//1156 292//1156 290//1156
f 290//1157 284//1157 299//1157
f 299//1158 278//1158 277//1158
f 284//1159 278//1159 299//1159
f 284//1160 290//1160 286//1160
f 677//1161 283//1161 211//1161
f 677//1162 281//1162 283//1162
f 212//1163 677//1163 211//1163
f 212//1164 678//1164 677//1164
f 678//1165 270//1165 677//1165
f 270//1166 281//1166 677//1166
f 216//1167 678//1167 214//1167
f 678//1168 216//1168 270//1168
f 678//1169 212//1169 214//1169
f 271//1170 281//1170 270//1170
f 274//1171 273//1171 279//1171
f 216//1172 248//1172 256//1172
f 217//1173 679//1173 245//1173
f 680//1174 245//1174 679//1174
f 245//1175 680//1175 242//1175
f 679//1176 681//1176 680//1176
f 682//1177 680//1177 681//1177
f 680//1178 682//1178 242//1178
f 682//1179 235//1179 236//1179
f 236//1180 242//1180 682//1180
f 681//1181 222//1181 682//1181
f 235//1182 682//1182 222//1182
f 681//1183 679//1183 219//1183
f 222//1184 681//1184 224//1184
f 219//1185 224//1185 681//1185
f 219//1186 679//1186 217//1186
f 232//1187 235//1187 223//1187
f 222//1188 223//1188 235//1188
f 223//1189 221//1189 232//1189
f 208//1190 228//1190 209//1190
f 225//1191 209//1191 228//1191
f 683//1192 202//1192 198//1192
f 684//1193 202//1193 683//1193
f 201//1194 202//1194 684//1194
f 687//1195 684//1195 685//1195
f 684//1196 686//1196 685//1196
f 683//1197 686//1197 684//1197
f 201//1198 684//1198 687//1198
f 688//1199 687//1199 685//1199
f 201//1200 687//1200 688//1200
f 191//1201 688//1201 193//1201
f 685//1202 193//1202 688//1202
f 191//1203 201//1203 688//1203
f 685//1204 686//1204 194//1204
f 686//1205 683//1205 194//1205
f 194//1206 193//1206 685//1206
f 198//1207 194//1207 683//1207
f 201//1208 191//1208 190//1208
f 139//1209 145//1209 186//1209
f 186//1210 145//1210 183//1210
f 183//1211 145//1211 143//1211
f 179//1212 169//1212 172//1212
f 179//1213 175//1213 169//1213
f 177//1214 153//1214 157//1214
f 157//1215 161//1215 173//1215
f 150//1216 151//1216 158//1216
f 158//57 151//57 126//57
f 122//57 158//57 126//57
f 153//1217 143//1217 144//1217
f 136//169 138//169 149//169
f 139//1218 141//1218 145//1218
f 83//1219 82//1219 127//1219
f 105//155 118//155 104//155
f 118//155 51//155 103//155
f 118//168 52//168 51//168
f 118//155 103//155 104//155
f 111//1220 114//1220 689//1220
f 88//1221 689//1221 114//1221
f 114//1222 109//1222 88//1222
f 689//1223 690//1223 111//1223
f 689//1224 88//1224 87//1224
f 87//1225 690//1225 689//1225
f 691//1226 111//1226 690//1226
f 690//1227 692//1227 691//1227
f 692//1228 690//1228 74//1228
f 690//1229 87//1229 74//1229
f 694//1230 691//1230 692//1230
f 692//1231 693//1231 694//1231
f 693//1232 692//1232 73//1232
f 74//1233 73//1233 692//1233
f 697//1234 691//1234 694//1234
f 694//1235 695//1235 697//1235
f 696//1236 695//1236 694//1236
f 68//1237 696//1237 694//1237
f 694//1238 693//1238 68//1238
f 691//1239 697//1239 112//1239
f 698//1240 113//1240 697//1240
f 697//1241 695//1241 698//1241
f 113//1242 112//1242 697//1242
f 699//1243 698//1243 695//1243
f 698//155 699//155 44//155
f 113//155 698//155 44//155
f 695//1244 700//1244 699//1244
f 699//1245 700//1245 701//1245
f 702//1246 699//1246 701//1246
f 699//155 702//155 44//155
f 702//155 51//155 44//155
f 51//155 702//155 704//155
f 702//1247 701//1247 703//1247
f 704//1248 702//1248 703//1248
f 103//1249 704//1249 101//1249
f 51//155 704//155 103//155
f 704//1250 703//1250 101//1250
f 703//1251 701//1251 705//1251
f 706//1252 703//1252 705//1252
f 60//1253 703//1253 706//1253
f 59//1254 703//1254 60//1254
f 101//1255 703//1255 59//1255
f 61//1256 60//1256 706//1256
f 61//1257 706//1257 705//1257
f 696//1258 705//1258 701//1258
f 707//1259 705//1259 696//1259
f 61//1260 705//1260 707//1260
f 696//1261 68//1261 707//1261
f 61//1262 707//1262 63//1262
f 68//1263 63//1263 707//1263
f 701//1264 700//1264 696//1264
f 696//1265 700//1265 695//1265
f 693//1266 73//1266 68//1266
f 112//1267 111//1267 691//1267
f 101//1268 59//1268 98//1268
f 93//1269 57//1269 86//1269
f 57//1270 52//1270 86//1270
f 79//1271 28//1271 31//1271
f 31//1272 76//1272 79//1272
f 708//1273 71//1273 76//1273
f 33//1274 708//1274 76//1274
f 76//1275 31//1275 33//1275
f 33//1276 34//1276 708//1276
f 70//1277 708//1277 34//1277
f 71//1278 708//1278 70//1278
f 70//1279 34//1279 36//1279
f 70//1280 709//1280 65//1280
f 709//1281 70//1281 36//1281
f 711//1282 709//1282 710//1282
f 36//1283 710//1283 709//1283
f 709//1284 711//1284 712//1284
f 712//1285 65//1285 709//1285
f 712//1286 713//1286 48//1286
f 48//1287 53//1287 712//1287
f 50//1288 65//1288 712//1288
f 712//1289 711//1289 714//1289
f 53//1290 50//1290 712//1290
f 714//1291 713//1291 712//1291
f 710//1292 714//1292 711//1292
f 48//1293 714//1293 710//1293
f 714//1294 48//1294 713//1294
f 710//1295 40//1295 48//1295
f 710//1296 36//1296 40//1296
f 51//1297 46//1297 44//1297
f 48//1298 40//1298 42//1298
f 10//2 44//2 13//2
f 44//1299 41//1299 13//1299
f 41//1300 38//1300 30//1300
f 30//1301 13//1301 41//1301
f 36//1302 37//1302 40//1302
f 13//1303 30//1303 18//1303
f 25//1304 26//1304 28//1304
f 14//1305 22//1305 23//1305
f 14//1306 15//1306 22//1306
f 15//1307 16//1307 22//1307
f 14//1308 7//1308 11//1308
