# Blender 5.0.1
# www.blender.org
mtllib torso_y_link_visual_30.mtl
o i01.torso.full.032_visual.001
v 0.161490 0.090059 -0.194940
v 0.139244 0.088141 -0.224079
v 0.157692 0.087471 -0.219024
v 0.186219 0.069309 -0.214099
v 0.183701 0.093991 -0.135072
v 0.149737 0.096230 -0.101052
v -0.048052 0.121950 0.290090
v 0.149737 0.092993 -0.150279
v 0.204050 0.071240 -0.167943
v 0.208370 0.085967 -0.116126
v 0.222373 0.099134 -0.056881
v 0.045841 0.121950 0.290090
v 0.246967 0.087642 -0.051028
v 0.315606 0.108594 0.087531
v 0.393414 0.116726 0.210646
v 0.287888 0.121933 0.289840
v 0.313347 0.116728 0.210681
v 0.428665 0.104635 0.219360
v 0.436973 0.120179 0.263765
v 0.379225 0.085328 0.119480
v 0.321444 0.042384 -0.041900
v 0.288353 0.064644 -0.044094
v 0.439435 0.086687 0.201725
v 0.344999 0.038843 -0.011963
v 0.357355 -0.013607 -0.079684
v 0.368663 0.007182 -0.026543
v 0.329669 -0.022013 -0.147127
v 0.419976 0.036708 0.096904
v 0.454415 0.056117 0.176199
v 0.461096 0.092012 0.243404
v 0.475188 0.054769 0.212380
v 0.454361 0.027433 0.144542
v 0.436320 0.012586 0.090991
v 0.451012 -0.000444 0.101961
v 0.476993 0.022079 0.183226
v 0.483121 -0.001844 0.167818
v 0.493639 0.015639 0.213171
v 0.500875 -0.008250 0.205912
v 0.509058 0.007933 0.246145
v 0.515233 0.030795 0.282711
v 0.501434 0.047175 0.263943
v 0.510842 0.047936 0.293509
v 0.484634 0.089462 0.286632
v 0.467789 0.102809 0.278803
v 0.457063 0.113050 0.289301
v 0.486843 0.087063 0.290890
v 0.526878 -0.093692 0.302843
v 0.509816 -0.098027 0.238998
v 0.235593 -0.099955 0.209542
v 0.212304 -0.099066 0.223130
v 0.521334 0.020412 0.295329
v 0.183484 -0.098516 0.231201
v 0.517385 -0.084586 0.256721
v 0.530919 -0.062837 0.300768
v 0.528098 -0.021862 0.298099
v -0.048052 -0.097717 0.304535
v 0.446887 0.121710 0.286448
v 0.067072 -0.101949 0.179196
v 0.115598 -0.099188 0.221195
v 0.165782 -0.098459 0.232319
v 0.141072 -0.098607 0.229999
v 0.052830 -0.103981 0.148325
v 0.082873 -0.100703 0.198181
v 0.096198 -0.099937 0.209843
v -0.048705 -0.120502 -0.041973
v 0.048199 -0.106231 0.114161
v 0.045838 0.027721 0.296286
v -0.048052 0.027721 0.296286
v 0.044698 0.030539 0.339141
v -0.193354 0.027721 0.296286
v -0.193351 0.121950 0.290090
v -0.049097 0.030501 0.338559
v -0.048705 0.004974 -0.050223
v -0.204573 0.007133 -0.017385
v -0.124505 0.007131 -0.017420
v -0.124505 0.010368 0.031806
v 0.314078 0.004934 -0.050224
v 0.284423 0.000772 -0.113771
v 0.149737 0.002039 -0.094858
v 0.069669 0.002039 -0.094858
v 0.069669 -0.001196 -0.144050
v -0.494109 -0.015131 -0.356107
v 0.139244 -0.006042 -0.217886
v -0.460748 -0.005667 -0.212185
v -0.287244 0.027721 0.296286
v -0.460748 0.000367 -0.120411
v -0.460748 0.094550 -0.126604
v -0.499958 -0.005667 -0.212185
v -0.499958 0.000367 -0.120411
v -0.499958 0.094550 -0.126604
v -0.204573 0.010368 0.031806
v -0.460764 0.027784 0.297241
v -0.460764 0.122013 0.291044
v -0.287244 0.121950 0.290090
v -0.288288 0.124730 0.332362
v -0.288288 0.030501 0.338559
v -0.194490 0.124768 0.332948
v -0.179244 0.126291 0.356103
v -0.194493 0.030539 0.339141
v -0.179245 0.032062 0.362300
v -0.305962 0.032062 0.362295
v -0.305961 0.126290 0.356099
v -0.204573 0.104559 0.025612
v -0.204573 0.101325 -0.023580
v -0.124505 0.101322 -0.023614
v -0.124505 0.104559 0.025612
v 0.069669 0.096230 -0.101052
v 0.069669 0.092996 -0.150244
v 0.149737 -0.001198 -0.144085
v -0.499958 0.088516 -0.218378
v -0.530919 0.087393 -0.235453
v -0.530919 0.095691 -0.109249
v -0.530919 0.001508 -0.103056
v -0.530919 -0.006790 -0.229261
v -0.460748 0.088516 -0.218378
v -0.494109 0.079052 -0.362300
v 0.257747 -0.002605 -0.163040
v 0.242518 -0.004061 -0.187746
v 0.230832 -0.005352 -0.207393
v 0.246394 -0.009809 -0.205288
v 0.240939 0.029680 -0.211445
v 0.260442 0.014665 -0.210346
v 0.242601 0.058590 -0.129133
v 0.264142 0.021224 -0.183805
v 0.299338 0.013483 -0.135087
v 0.281627 0.032523 -0.125914
v 0.301559 -0.011622 -0.182069
v 0.300962 -0.022670 -0.207987
v 0.325351 -0.048470 -0.206343
v 0.315131 -0.096615 -0.198092
v 0.325351 -0.125804 -0.196193
v 0.341956 -0.052187 -0.171714
v 0.353270 -0.089976 -0.203555
v 0.361071 -0.107234 -0.202404
v 0.358435 -0.079111 -0.172364
v 0.371718 -0.088931 -0.148621
v 0.372464 -0.030726 -0.075190
v 0.384334 -0.050878 -0.074190
v 0.393707 -0.067360 -0.069028
v 0.409279 -0.081804 -0.041453
v 0.387943 -0.093828 -0.105469
v 0.409459 -0.054014 -0.022275
v 0.398296 -0.027288 -0.018441
v 0.452070 -0.053424 0.068848
v 0.430706 -0.037814 0.034412
v 0.467487 -0.011096 0.125813
v 0.484130 -0.020019 0.156302
v 0.483829 -0.049103 0.143956
v 0.499204 -0.036411 0.187698
v 0.505160 -0.050359 0.200858
v 0.510585 -0.018542 0.229676
v 0.523447 -0.029298 0.271709
v 0.520333 -0.063220 0.258643
v 0.493118 -0.065241 0.167289
v 0.433219 -0.097501 0.013898
v 0.439087 -0.111534 0.033387
v 0.275835 -0.103448 0.156444
v 0.408997 -0.117476 -0.055462
v 0.370999 -0.116880 -0.042145
v 0.283083 -0.106531 0.109548
v 0.281891 -0.105006 0.132747
v 0.279601 -0.107983 0.087421
v 0.275962 0.013497 0.067421
v 0.282561 0.015273 0.094425
v 0.272513 -0.109318 0.067172
v 0.260699 -0.110639 0.047076
v 0.265725 0.012122 0.046506
v 0.065043 0.012200 0.047700
v 0.252731 0.010997 0.029401
v 0.075146 0.011285 0.033778
v 0.077831 -0.111204 0.038470
v 0.093173 0.010091 0.015631
v 0.095037 -0.112245 0.022651
v 0.236151 0.009998 0.014222
v 0.122356 0.009011 -0.000801
v 0.115560 -0.113064 0.010223
v 0.131746 -0.113457 0.004223
v 0.156060 -0.113778 -0.000684
v 0.149014 0.008547 -0.007854
v 0.171536 0.008486 -0.008778
v 0.198153 0.008761 -0.004604
v 0.204886 -0.113363 0.005651
v 0.183011 -0.113709 0.000384
v 0.221054 0.009388 0.004930
v 0.221054 -0.112882 0.012969
v 0.241788 -0.111984 0.026631
v 0.065137 -0.110064 0.055803
v 0.053885 -0.108513 0.079430
v 0.054775 0.013651 0.069763
v 0.048627 0.015474 0.097482
v 0.050765 0.017746 0.132035
v 0.282469 0.016898 0.119148
v 0.277779 0.018488 0.143342
v 0.266522 0.020093 0.167744
v 0.059709 0.019426 0.157585
v 0.071143 0.020695 0.176895
v 0.250184 0.021498 0.189114
v 0.082873 0.021566 0.190142
v 0.101988 0.022600 0.205861
v 0.222487 0.022882 0.210141
v 0.126270 0.023369 0.217552
v 0.190458 0.023659 0.221965
v 0.148066 0.023737 0.223160
v 0.165782 0.023811 0.224279
v 0.253753 -0.101039 0.193068
v 0.266427 -0.102180 0.175722
v 0.356960 -0.060395 -0.045885
v 0.337269 -0.024013 -0.048311
v 0.368951 -0.096452 -0.043509
v 0.343927 -0.122187 -0.127122
v 0.337650 -0.100718 -0.133479
v 0.382526 -0.123181 -0.140319
v 0.371539 -0.111768 -0.170680
v 0.367520 -0.126291 -0.201154
v 0.334514 -0.082971 -0.127951
v 0.308079 -0.084038 -0.198891
v 0.293525 -0.035423 -0.158015
v 0.287030 -0.050745 -0.201085
v 0.254825 -0.016825 -0.203271
v 0.270649 -0.025802 -0.186916
v 0.255021 -0.012908 -0.190131
v 0.274279 -0.008566 -0.146845
v 0.386985 -0.013317 -0.023846
v 0.059946 0.032062 0.362300
v -0.049097 0.124730 0.332362
v -0.066770 0.032062 0.362295
v -0.066770 0.126290 0.356099
v 0.059948 0.126291 0.356103
v 0.044701 0.124768 0.332948
v 0.393414 0.119963 0.259872
v 0.313347 0.119963 0.259872
v 0.393414 -0.011123 0.268493
v 0.393414 -0.014360 0.219266
v 0.386219 -0.030774 0.224792
v 0.313347 -0.014358 0.219300
v 0.320543 -0.028119 0.265168
v 0.320543 -0.030772 0.224818
v 0.313347 -0.011123 0.268493
v 0.386219 -0.028119 0.265168
vn 0.0681 0.9908 -0.1172
vn -0.0003 0.9979 -0.0654
vn 0.5501 0.8167 -0.1745
vn 0.5066 0.8275 -0.2423
vn 0.0001 0.9978 -0.0656
vn -0.0000 0.9978 -0.0656
vn 0.4826 0.8311 -0.2764
vn 0.5275 0.8155 -0.2379
vn 0.4946 0.8163 -0.2983
vn 0.0002 0.9979 -0.0655
vn 0.4612 0.8368 -0.2950
vn 0.4637 0.8128 -0.3526
vn -0.0000 0.9978 -0.0659
vn 0.0056 0.9976 -0.0694
vn -0.0000 0.9978 -0.0658
vn -0.0010 0.9978 -0.0659
vn 0.4584 0.8086 -0.3688
vn 0.4828 0.7839 -0.3905
vn 0.4735 0.8055 -0.3564
vn 0.6116 0.6823 -0.4005
vn 0.5316 0.7517 -0.3904
vn 0.4975 0.7821 -0.3753
vn 0.5449 0.7308 -0.4110
vn 0.5324 0.7449 -0.4021
vn 0.6398 0.6597 -0.3942
vn 0.6889 0.6285 -0.3611
vn 0.6251 0.6595 -0.4176
vn 0.5953 0.7052 -0.3850
vn 0.6489 0.6244 -0.4347
vn 0.6230 0.6582 -0.4227
vn 0.7097 0.5897 -0.3855
vn 0.6331 0.6549 -0.4127
vn 0.7733 0.4692 -0.4265
vn 0.7493 0.4901 -0.4454
vn 0.7103 0.5793 -0.3999
vn 0.8090 0.4155 -0.4158
vn 0.7569 0.5179 -0.3986
vn 0.7775 0.4964 -0.3861
vn 0.8386 0.3877 -0.3828
vn 0.8051 0.4529 -0.3829
vn 0.8207 0.4428 -0.3610
vn 0.8655 0.3660 -0.3418
vn 0.8737 0.3630 -0.3237
vn 0.8873 0.3086 -0.3428
vn 0.8744 0.3405 -0.3457
vn 0.8426 0.3898 -0.3715
vn 0.8006 0.4974 -0.3342
vn 0.8689 0.4033 -0.2869
vn 0.8326 0.4795 -0.2773
vn 0.6429 0.7611 -0.0857
vn 0.6756 0.6598 -0.3290
vn 0.7300 0.5789 -0.3633
vn 0.6525 0.7529 0.0858
vn 0.8470 0.5093 -0.1524
vn -0.0020 0.0655 0.9978
vn 0.0054 0.0672 0.9977
vn 0.9462 -0.2191 -0.2380
vn -0.0003 -0.9977 0.0678
vn 0.0003 -0.9978 0.0659
vn -0.0001 -0.9977 0.0676
vn 0.0031 0.0659 0.9978
vn -0.0009 0.0657 0.9978
vn 0.0071 -0.9994 0.0333
vn 0.9637 -0.1414 -0.2263
vn 0.0105 0.0657 0.9978
vn -0.3005 -0.0390 0.9530
vn 0.0024 0.0768 0.9970
vn 0.6634 0.6690 -0.3351
vn -0.0000 0.9977 -0.0674
vn 0.0214 0.0342 0.9992
vn -0.0032 -1.0000 0.0008
vn 0.0182 -0.9986 0.0504
vn 0.0232 -0.9982 0.0550
vn 0.0131 -0.9990 0.0435
vn 0.0100 -0.9993 0.0372
vn 0.0039 -0.9998 0.0219
vn 0.0329 -0.9976 0.0613
vn 0.0158 -0.9987 0.0475
vn -1.0000 0.0001 0.0019
vn 0.0413 -0.9970 0.0655
vn 0.0015 0.0645 0.9979
vn -0.0000 0.0656 0.9978
vn -0.0000 -0.9978 0.0656
vn -0.9997 -0.0016 -0.0246
vn -0.0000 -0.9979 0.0655
vn -0.0005 -0.9979 0.0652
vn -0.0000 -0.0656 -0.9978
vn -0.0001 -0.9979 0.0654
vn -0.0005 -0.9980 0.0635
vn -0.0004 -0.9979 0.0652
vn -1.0000 -0.0000 -0.0000
vn 0.0055 0.0656 0.9978
vn 0.8357 -0.0360 -0.5479
vn 0.9996 0.0017 0.0265
vn 0.8358 -0.0360 -0.5479
vn -0.8027 -0.0391 -0.5951
vn 1.0000 -0.0000 -0.0000
vn 0.0004 0.0656 0.9978
vn -0.0002 -0.9978 0.0656
vn -0.0002 -0.9979 0.0655
vn 0.4898 0.0572 0.8700
vn 0.4837 -0.0574 -0.8733
vn 0.4838 -0.0574 -0.8733
vn -0.9743 0.0148 0.2249
vn 0.2137 -0.0641 -0.9748
vn 0.0024 -0.9984 0.0574
vn -0.0036 -0.9975 0.0703
vn 0.1140 -0.0211 -0.9933
vn 0.2616 -0.0633 -0.9631
vn 0.1448 -0.0406 -0.9886
vn -0.2970 -0.9249 0.2374
vn 0.0930 -0.1408 -0.9857
vn -0.0290 -0.1066 -0.9939
vn 0.5969 0.7555 -0.2699
vn -0.0702 -0.1631 -0.9841
vn 0.5753 0.7773 -0.2547
vn 0.6015 0.7499 -0.2755
vn 0.5471 0.7863 -0.2872
vn 0.6427 0.7180 -0.2671
vn 0.5449 0.7767 -0.3161
vn 0.6092 0.7233 -0.3252
vn 0.6286 0.6979 -0.3432
vn 0.6541 0.6903 -0.3093
vn 0.7043 0.6471 -0.2920
vn 0.6699 0.6585 -0.3431
vn 0.6596 0.6754 -0.3297
vn -0.1842 -0.1279 -0.9745
vn -0.0916 -0.1493 -0.9845
vn -0.0940 -0.1296 -0.9871
vn 0.7672 0.5629 -0.3075
vn 0.7944 0.5125 -0.3259
vn 0.8820 0.3801 -0.2785
vn -0.1113 -0.1161 -0.9870
vn 0.8079 0.5020 -0.3086
vn 0.8697 0.3598 -0.3378
vn 0.8574 0.4111 -0.3096
vn 0.8152 0.4629 -0.3482
vn 0.7919 0.4933 -0.3600
vn 0.8599 0.3834 -0.3371
vn 0.9177 0.2380 -0.3180
vn 0.8932 0.2514 -0.3727
vn 0.8904 0.2896 -0.3512
vn 0.8479 0.3605 -0.3886
vn 0.8145 0.4005 -0.4197
vn 0.8333 0.4024 -0.3790
vn 0.8699 0.2763 -0.4086
vn 0.8668 0.2880 -0.4072
vn 0.8692 0.2541 -0.4241
vn 0.8395 0.3275 -0.4336
vn 0.8293 0.3446 -0.4399
vn 0.8805 0.2340 -0.4122
vn 0.8723 0.2953 -0.3897
vn 0.8287 0.3958 -0.3956
vn 0.9063 0.1571 -0.3923
vn 0.9194 0.1456 -0.3654
vn 0.9201 0.1728 -0.3516
vn 0.8871 0.2812 -0.3661
vn 0.9346 0.0700 -0.3488
vn 0.9452 0.1155 -0.3054
vn 0.9363 0.1499 -0.3177
vn 0.9546 0.1599 -0.2512
vn 0.9587 0.0830 -0.2721
vn 0.9275 0.2345 -0.2910
vn 0.9318 0.2289 -0.2816
vn 0.9805 0.0552 -0.1884
vn 0.9698 0.0049 -0.2438
vn 0.9676 0.0083 -0.2522
vn 0.9674 0.1410 -0.2102
vn 0.9641 -0.1113 -0.2413
vn 0.9555 -0.1071 -0.2747
vn 0.9502 -0.1259 -0.2851
vn 0.9361 0.0325 -0.3502
vn 0.9453 -0.1511 -0.2892
vn 0.9308 -0.1978 -0.3072
vn 0.9340 -0.0898 -0.3458
vn 0.9309 0.0079 -0.3652
vn 0.9471 -0.0453 -0.3177
vn 0.0069 -0.9979 0.0644
vn 0.0013 -0.9976 0.0694
vn -0.0026 -0.9978 0.0667
vn -0.9715 0.0099 0.2367
vn -0.9441 0.0258 0.3288
vn -0.9879 0.0149 0.1545
vn -0.8625 0.0377 0.5046
vn -0.0023 -0.9978 0.0670
vn -0.8985 0.0243 0.4382
vn -0.7969 0.0354 0.6030
vn 0.7102 0.0425 0.7027
vn 0.8100 0.0402 0.5851
vn 0.5188 0.0569 0.8530
vn 0.6776 0.0524 0.7336
vn 0.4914 0.0512 0.8694
vn 0.3483 0.0651 0.9351
vn 0.0131 -0.9948 0.1005
vn 0.0159 -0.9956 0.0919
vn 0.1982 0.0687 0.9777
vn 0.0098 -0.9935 0.1134
vn 0.2563 0.0592 0.9648
vn -0.0000 -0.9978 0.0657
vn 0.0410 0.0608 0.9973
vn -0.3850 0.0561 0.9212
vn -0.2345 0.0685 0.9697
vn -0.1552 0.0594 0.9861
vn -0.5250 0.0558 0.8493
vn -0.4131 0.0598 0.9087
vn -0.0014 -0.9976 0.0686
vn -0.5510 0.0592 0.8324
vn -0.0016 -0.9977 0.0680
vn -0.7348 0.0502 0.6764
vn -0.0019 -0.9977 0.0674
vn -0.6760 0.0436 0.7356
vn -0.0010 -0.9976 0.0698
vn -0.0003 -0.9973 0.0729
vn -0.0397 0.0710 0.9967
vn 0.0086 -0.9929 0.1189
vn 0.0187 -0.9961 0.0858
vn 0.8074 0.0396 0.5887
vn 0.0215 -0.9965 0.0813
vn 0.0250 -0.9967 0.0773
vn 0.9032 0.0291 0.4282
vn 0.9869 0.0185 0.1603
vn 0.0327 -0.9970 0.0709
vn 0.9070 0.0267 0.4204
vn 0.9764 0.0100 0.2159
vn 0.9981 -0.0119 -0.0610
vn -0.9818 -0.0165 -0.1892
vn -0.9987 -0.0010 -0.0512
vn -1.0000 -0.0047 -0.0034
vn -0.9690 -0.0111 -0.2469
vn -0.9084 -0.0303 -0.4171
vn 0.9083 -0.0193 -0.4178
vn 0.8609 -0.0381 -0.5073
vn 0.9440 -0.0280 -0.3286
vn 0.7693 -0.0375 -0.6378
vn 0.7494 -0.0434 -0.6607
vn 0.6360 -0.0551 -0.7697
vn 0.6594 -0.0493 -0.7502
vn 0.5059 -0.0519 -0.8610
vn 0.4346 -0.0645 -0.8983
vn 0.3273 -0.0565 -0.9432
vn 0.2497 -0.0683 -0.9659
vn 0.0937 -0.0609 -0.9937
vn 0.0632 -0.0655 -0.9959
vn -0.0936 -0.0697 -0.9932
vn -0.0631 -0.0655 -0.9959
vn -0.2702 -0.0572 -0.9611
vn -0.3470 -0.0706 -0.9352
vn -0.5047 -0.0497 -0.8618
vn -0.6055 -0.0607 -0.7935
vn -0.6727 -0.0434 -0.7386
vn -0.7951 -0.0427 -0.6050
vn -0.8080 -0.0377 -0.5879
vn -0.8991 -0.0278 -0.4369
vn 0.9909 -0.0012 -0.1342
vn 0.0016 -0.0657 -0.9978
vn -0.0036 -0.0670 -0.9977
vn 0.0002 -0.0661 -0.9978
vn -0.0007 -0.0665 -0.9978
vn -0.9409 -0.0722 0.3308
vn -0.9337 -0.1815 0.3088
vn -0.0040 -0.9980 0.0636
vn 0.0071 -0.9979 0.0649
vn -0.0054 -0.9986 0.0524
vn -0.0072 -0.9985 0.0542
vn 0.9459 0.1603 -0.2821
vn 0.9363 0.2526 -0.2439
vn 0.9338 0.1886 -0.3040
vn 0.9194 0.2940 -0.2613
vn -0.1174 -0.1045 -0.9876
vn 0.9288 0.2537 -0.2702
vn 0.9061 0.2902 -0.3078
vn -0.9258 -0.2515 0.2822
vn -0.9440 -0.1977 0.2642
vn -0.9074 -0.2626 0.3281
vn -0.8810 -0.3359 0.3333
vn -0.9039 -0.2792 0.3240
vn -0.8354 -0.4482 0.3181
vn -0.9041 -0.2966 0.3075
vn -0.1846 -0.1650 -0.9689
vn -0.1554 -0.1624 -0.9744
vn -0.8380 -0.4312 0.3344
vn -0.7657 -0.5325 0.3607
vn -0.8153 -0.4957 0.2993
vn -0.1380 -0.1936 -0.9713
vn -0.6968 -0.6407 0.3224
vn -0.6904 -0.6424 0.3326
vn -0.1128 -0.1841 -0.9764
vn -0.6472 -0.7279 0.2266
vn -0.6404 -0.6943 0.3285
vn -0.6934 -0.6370 0.3368
vn -0.6076 -0.7081 0.3596
vn -0.6219 -0.6828 0.3835
vn -0.6670 -0.6380 0.3847
vn -0.5525 -0.8205 0.1467
vn -0.4950 -0.7944 0.3519
vn -0.6545 -0.7219 0.2249
vn 0.0443 -0.2265 -0.9730
vn -0.6944 -0.6204 0.3647
vn -0.7410 -0.5702 0.3548
vn 0.9430 0.0113 -0.3326
vn 0.9091 0.1460 -0.3902
vn 0.9341 0.1240 -0.3346
vn 0.9146 0.0980 -0.3924
vn 0.7843 0.4854 -0.3864
vn 0.8010 0.4524 -0.3920
vn 0.7735 0.4559 -0.4403
vn 0.7379 0.5477 -0.3944
vn 0.7135 0.5875 -0.3817
vn 0.7571 0.4873 -0.4352
vn 0.7007 0.5697 -0.4295
vn 0.7443 0.5623 -0.3603
vn 0.7170 0.5919 -0.3681
vn 0.5882 0.7223 -0.3636
vn 0.5408 0.7669 -0.3455
vn 0.5394 0.7678 -0.3458
vn 0.6446 0.6735 -0.3618
vn 0.5003 0.8020 -0.3263
vn 0.5126 0.7950 -0.3244
vn 0.5359 0.7993 -0.2719
vn 0.0010 0.0656 0.9978
vn 0.9366 0.2035 -0.2854
vn 0.9250 0.3416 -0.1662
vn 0.5568 0.8026 -0.2140
vn 0.5816 0.7409 -0.3359
vn 0.6964 0.5766 -0.4274
vn 0.5700 0.7239 -0.3887
vn 0.5601 0.7436 -0.3651
vn 0.0007 0.9980 -0.0632
vn 0.0009 0.9978 -0.0656
vn -0.9187 0.3941 -0.0259
vn 0.0004 0.3189 0.9478
vn 0.9187 0.3941 -0.0259
vn 0.0004 0.3188 0.9478
vn -0.0000 0.1920 -0.9814
s 0
usemtl Material.027
f 1//1 3//1 2//1
f 5//2 1//2 2//2
f 3//3 1//3 4//3
f 1//4 5//4 4//4
f 5//5 8//5 6//5
f 5//5 6//5 7//5
f 11//6 5//6 7//6
f 8//5 5//5 2//5
f 5//7 10//7 9//7
f 4//8 5//8 9//8
f 5//9 11//9 10//9
f 11//6 7//6 12//6
f 14//10 11//10 12//10
f 10//11 11//11 13//11
f 11//12 14//12 13//12
f 15//13 14//13 17//13
f 15//14 19//14 14//14
f 14//15 12//15 16//15
f 14//16 16//16 17//16
f 18//17 14//17 19//17
f 18//18 20//18 14//18
f 13//19 14//19 20//19
f 20//20 24//20 21//20
f 22//21 20//21 21//21
f 22//22 13//22 20//22
f 18//23 23//23 20//23
f 24//24 20//24 23//24
f 25//25 24//25 26//25
f 27//26 24//26 25//26
f 28//27 26//27 24//27
f 27//28 21//28 24//28
f 24//29 29//29 28//29
f 24//30 23//30 29//30
f 30//31 31//31 29//31
f 23//32 30//32 29//32
f 29//33 31//33 32//33
f 28//34 29//34 32//34
f 33//35 28//35 32//35
f 31//36 35//36 32//36
f 33//37 32//37 34//37
f 35//38 34//38 32//38
f 37//39 35//39 31//39
f 36//40 34//40 35//40
f 35//41 37//41 36//41
f 38//42 36//42 37//42
f 38//43 37//43 39//43
f 37//44 40//44 39//44
f 41//45 40//45 37//45
f 31//46 41//46 37//46
f 41//47 31//47 43//47
f 40//48 41//48 42//48
f 42//49 41//49 43//49
f 45//50 43//50 44//50
f 43//51 30//51 44//51
f 30//52 43//52 31//52
f 46//53 43//53 45//53
f 43//54 46//54 42//54
f 46//55 47//55 42//55
f 45//56 47//56 46//56
f 47//57 48//57 53//57
f 48//58 47//58 49//58
f 49//59 47//59 50//59
f 50//60 47//60 52//60
f 47//61 55//61 51//61
f 42//62 47//62 51//62
f 52//63 47//63 56//63
f 47//64 53//64 54//64
f 47//65 54//65 55//65
f 57//66 47//66 45//66
f 56//67 47//67 57//67
f 19//68 57//68 45//68
f 16//69 57//69 19//69
f 16//70 56//70 57//70
f 56//71 60//71 52//71
f 58//72 63//72 56//72
f 56//73 62//73 58//73
f 56//74 64//74 59//74
f 56//75 59//75 61//75
f 56//76 61//76 60//76
f 62//77 56//77 66//77
f 63//78 64//78 56//78
f 68//79 65//79 56//79
f 66//80 56//80 65//80
f 16//81 67//81 56//81
f 56//82 67//82 68//82
f 68//83 67//83 69//83
f 68//82 7//82 71//82
f 7//84 68//84 72//84
f 69//83 72//83 68//83
f 71//82 70//82 68//82
f 73//85 68//85 70//85
f 65//79 68//79 73//79
f 74//83 86//83 73//83
f 75//83 74//83 73//83
f 76//83 75//83 73//83
f 76//86 73//86 85//86
f 77//87 65//87 73//87
f 78//88 77//88 73//88
f 79//89 78//89 73//89
f 80//83 79//83 73//83
f 81//83 80//83 73//83
f 83//90 81//90 73//90
f 84//83 82//83 73//83
f 82//83 83//83 73//83
f 86//83 84//83 73//83
f 73//85 70//85 85//85
f 93//91 87//91 86//91
f 86//82 87//82 90//82
f 91//85 85//85 86//85
f 85//85 92//85 86//85
f 88//83 84//83 86//83
f 86//83 89//83 88//83
f 90//82 89//82 86//82
f 74//83 91//83 86//83
f 86//91 92//91 93//91
f 93//92 92//92 85//92
f 85//92 94//92 93//92
f 87//6 93//6 94//6
f 94//6 95//6 97//6
f 96//84 95//84 94//84
f 94//84 85//84 96//84
f 97//6 71//6 94//6
f 87//6 94//6 71//6
f 98//6 97//6 95//6
f 99//93 97//93 98//93
f 97//94 99//94 70//94
f 70//94 71//94 97//94
f 99//83 100//83 96//83
f 98//95 100//95 99//95
f 99//83 96//83 85//83
f 85//83 70//83 99//83
f 100//83 101//83 96//83
f 102//82 101//82 100//82
f 100//82 98//82 102//82
f 102//6 98//6 95//6
f 101//96 102//96 95//96
f 95//96 96//96 101//96
f 104//97 103//97 91//97
f 76//87 91//87 103//87
f 91//97 74//97 104//97
f 85//85 91//85 76//85
f 75//98 104//98 74//98
f 104//98 75//98 105//98
f 87//6 103//6 104//6
f 104//6 105//6 2//6
f 87//6 104//6 2//6
f 106//91 105//91 75//91
f 105//6 106//6 2//6
f 107//6 108//6 106//6
f 106//6 7//6 107//6
f 75//91 76//91 106//91
f 103//87 106//87 76//87
f 103//6 71//6 106//6
f 108//6 2//6 106//6
f 7//6 106//6 71//6
f 109//98 108//98 81//98
f 80//97 81//97 108//97
f 108//97 107//97 80//97
f 108//98 109//98 8//98
f 8//6 2//6 108//6
f 83//85 109//85 81//85
f 6//91 8//91 109//91
f 109//91 79//91 6//91
f 109//99 78//99 79//99
f 109//100 83//100 78//100
f 79//87 80//87 107//87
f 107//87 6//87 79//87
f 107//6 7//6 6//6
f 87//6 71//6 103//6
f 110//6 90//6 87//6
f 111//6 90//6 110//6
f 111//6 112//6 90//6
f 89//101 90//101 112//101
f 112//101 113//101 89//101
f 113//91 112//91 111//91
f 114//83 89//83 113//83
f 111//91 114//91 113//91
f 114//83 88//83 89//83
f 114//102 111//102 110//102
f 110//103 88//103 114//103
f 87//6 115//6 110//6
f 88//87 110//87 115//87
f 2//6 115//6 87//6
f 84//104 115//104 116//104
f 115//87 84//87 88//87
f 116//6 115//6 2//6
f 116//104 82//104 84//104
f 83//105 82//105 116//105
f 116//105 2//105 83//105
f 118//106 117//106 83//106
f 117//107 78//107 83//107
f 119//83 118//83 83//83
f 4//108 119//108 83//108
f 3//109 83//109 2//109
f 4//110 83//110 3//110
f 118//111 119//111 120//111
f 121//112 120//112 119//112
f 121//113 119//113 4//113
f 121//114 124//114 122//114
f 122//115 120//115 121//115
f 9//116 121//116 4//116
f 123//117 124//117 121//117
f 9//118 123//118 121//118
f 127//119 122//119 124//119
f 126//120 124//120 123//120
f 125//121 124//121 126//121
f 125//122 127//122 124//122
f 127//123 128//123 122//123
f 128//124 127//124 129//124
f 127//125 27//125 129//125
f 125//126 27//126 127//126
f 129//127 131//127 130//127
f 129//128 130//128 128//128
f 133//129 131//129 129//129
f 129//130 27//130 132//130
f 132//131 133//131 129//131
f 135//132 134//132 133//132
f 134//133 131//133 133//133
f 132//134 135//134 133//134
f 135//135 139//135 136//135
f 136//136 134//136 135//136
f 135//137 137//137 138//137
f 135//138 132//138 137//138
f 138//139 139//139 135//139
f 136//140 139//140 141//140
f 140//141 139//141 142//141
f 140//142 141//142 139//142
f 138//143 142//143 139//143
f 142//144 143//144 145//144
f 142//145 138//145 143//145
f 144//146 140//146 142//146
f 145//147 144//147 142//147
f 146//148 144//148 145//148
f 34//149 146//149 145//149
f 143//150 34//150 145//150
f 147//151 144//151 146//151
f 146//152 36//152 147//152
f 146//153 34//153 36//153
f 148//154 144//154 147//154
f 149//155 148//155 147//155
f 147//156 38//156 149//156
f 38//157 147//157 36//157
f 150//158 148//158 149//158
f 150//159 149//159 151//159
f 149//160 38//160 151//160
f 151//161 51//161 152//161
f 152//162 150//162 151//162
f 151//163 39//163 51//163
f 151//164 38//164 39//164
f 55//165 54//165 152//165
f 152//166 54//166 153//166
f 153//167 150//167 152//167
f 55//168 152//168 51//168
f 153//169 54//169 53//169
f 150//170 153//170 53//170
f 53//171 154//171 150//171
f 148//172 150//172 154//172
f 154//173 53//173 48//173
f 154//174 48//174 156//174
f 155//175 154//175 156//175
f 155//176 148//176 154//176
f 156//83 48//83 157//83
f 157//83 161//83 156//83
f 156//177 158//177 155//177
f 156//178 159//178 158//178
f 159//179 156//179 162//179
f 162//85 156//85 160//85
f 160//83 156//83 161//83
f 165//180 159//180 162//180
f 163//181 162//181 164//181
f 163//182 165//182 162//182
f 160//183 164//183 162//183
f 167//184 166//184 165//184
f 166//185 159//185 165//185
f 165//186 163//186 167//186
f 166//187 167//187 169//187
f 163//83 168//83 167//83
f 167//83 168//83 170//83
f 167//83 170//83 169//83
f 170//188 171//188 172//188
f 168//189 171//189 170//189
f 169//83 170//83 172//83
f 176//190 172//190 173//190
f 173//191 172//191 171//191
f 169//83 172//83 174//83
f 174//83 172//83 175//83
f 172//192 176//192 175//192
f 175//193 176//193 177//193
f 176//194 65//194 177//194
f 173//195 65//195 176//195
f 179//196 177//196 178//196
f 177//197 65//197 178//197
f 177//198 179//198 175//198
f 181//199 175//199 179//199
f 179//200 178//200 180//200
f 181//83 179//83 180//83
f 182//201 184//201 181//201
f 182//202 181//202 183//202
f 183//203 181//203 180//203
f 184//83 175//83 181//83
f 174//83 175//83 184//83
f 185//204 174//204 184//204
f 184//205 182//205 185//205
f 185//206 182//206 159//206
f 174//207 185//207 186//207
f 186//208 185//208 159//208
f 169//209 186//209 166//209
f 186//210 159//210 166//210
f 174//211 186//211 169//211
f 182//212 183//212 159//212
f 178//213 159//213 183//213
f 180//214 178//214 183//214
f 65//215 159//215 178//215
f 65//216 173//216 171//216
f 171//217 168//217 187//217
f 65//218 171//218 187//218
f 65//219 187//219 188//219
f 168//220 188//220 187//220
f 190//221 66//221 188//221
f 65//222 188//222 66//222
f 188//223 168//223 189//223
f 188//224 189//224 190//224
f 164//83 190//83 189//83
f 66//225 190//225 191//225
f 192//83 191//83 190//83
f 192//83 190//83 164//83
f 192//226 161//226 193//226
f 192//227 160//227 161//227
f 160//228 192//228 164//228
f 193//83 191//83 192//83
f 193//229 161//229 157//229
f 157//230 194//230 193//230
f 194//83 195//83 193//83
f 193//83 195//83 191//83
f 62//231 195//231 58//231
f 196//232 58//232 195//232
f 62//233 191//233 195//233
f 194//83 196//83 195//83
f 196//234 63//234 58//234
f 197//83 198//83 196//83
f 197//83 196//83 194//83
f 63//235 196//235 198//235
f 64//236 198//236 199//236
f 197//83 199//83 198//83
f 198//237 64//237 63//237
f 64//238 199//238 59//238
f 200//83 201//83 199//83
f 200//83 199//83 197//83
f 59//239 199//239 201//239
f 201//240 61//240 59//240
f 203//241 61//241 201//241
f 202//83 201//83 200//83
f 202//85 203//85 201//85
f 203//242 60//242 61//242
f 204//83 203//83 202//83
f 60//243 203//243 204//243
f 52//244 204//244 202//244
f 204//245 52//245 60//245
f 52//246 202//246 50//246
f 200//247 50//247 202//247
f 50//248 200//248 49//248
f 49//249 200//249 197//249
f 49//250 197//250 205//250
f 194//251 205//251 197//251
f 49//83 205//83 48//83
f 206//83 48//83 205//83
f 205//252 194//252 206//252
f 194//253 157//253 206//253
f 157//83 48//83 206//83
f 191//254 62//254 66//254
f 163//83 189//83 168//83
f 164//83 189//83 163//83
f 208//255 207//255 159//255
f 207//256 209//256 159//256
f 65//257 77//257 159//257
f 77//258 208//258 159//258
f 209//259 211//259 159//259
f 211//260 210//260 159//260
f 212//261 159//261 210//261
f 212//262 158//262 159//262
f 214//263 212//263 131//263
f 212//264 210//264 131//264
f 141//265 212//265 213//265
f 212//266 214//266 213//266
f 141//267 158//267 212//267
f 214//268 134//268 213//268
f 214//269 131//269 134//269
f 136//270 213//270 134//270
f 141//271 213//271 136//271
f 215//272 131//272 211//272
f 131//273 210//273 211//273
f 209//274 215//274 211//274
f 216//275 215//275 207//275
f 209//276 207//276 215//276
f 216//277 130//277 215//277
f 131//278 215//278 130//278
f 128//279 130//279 216//279
f 128//280 216//280 218//280
f 208//281 216//281 207//281
f 217//282 216//282 208//282
f 217//283 218//283 216//283
f 219//284 122//284 218//284
f 219//285 218//285 220//285
f 220//286 218//286 217//286
f 218//287 122//287 128//287
f 219//288 220//288 221//288
f 221//289 220//289 117//289
f 222//290 220//290 217//290
f 117//291 220//291 222//291
f 78//292 117//292 222//292
f 222//293 217//293 78//293
f 120//294 221//294 118//294
f 118//295 221//295 117//295
f 221//296 120//296 219//296
f 122//297 219//297 120//297
f 78//298 217//298 77//298
f 217//299 208//299 77//299
f 155//300 158//300 144//300
f 140//301 144//301 158//301
f 141//302 140//302 158//302
f 148//303 155//303 144//303
f 137//304 223//304 143//304
f 138//305 137//305 143//305
f 34//306 143//306 223//306
f 137//307 25//307 223//307
f 25//308 26//308 223//308
f 33//309 34//309 223//309
f 26//310 33//310 223//310
f 137//311 132//311 25//311
f 25//312 132//312 27//312
f 125//313 126//313 21//313
f 123//314 22//314 126//314
f 22//315 21//315 126//315
f 125//316 21//316 27//316
f 13//317 22//317 123//317
f 13//318 123//318 10//318
f 123//319 9//319 10//319
f 226//83 72//83 224//83
f 224//83 72//83 69//83
f 72//84 225//84 7//84
f 225//96 72//96 226//96
f 226//96 227//96 225//96
f 227//82 226//82 224//82
f 227//6 228//6 225//6
f 224//82 228//82 227//82
f 228//6 229//6 225//6
f 69//95 229//95 228//95
f 228//95 224//95 69//95
f 229//6 12//6 7//6
f 67//94 12//94 229//94
f 229//94 69//94 67//94
f 7//6 225//6 229//6
f 16//320 12//320 67//320
f 51//321 39//321 40//321
f 40//322 42//322 51//322
f 45//323 44//323 19//323
f 30//324 19//324 44//324
f 28//325 33//325 26//325
f 18//326 30//326 23//326
f 30//327 18//327 19//327
f 16//328 19//328 230//328
f 15//329 230//329 19//329
f 230//91 15//91 233//91
f 231//87 230//87 232//87
f 231//6 16//6 230//6
f 233//91 232//91 230//91
f 233//98 17//98 235//98
f 17//98 233//98 15//98
f 232//330 233//330 234//330
f 235//331 234//331 233//331
f 238//97 235//97 17//97
f 235//332 238//332 236//332
f 236//332 237//332 235//332
f 234//333 235//333 237//333
f 17//97 231//97 238//97
f 232//87 238//87 231//87
f 239//334 236//334 238//334
f 238//334 232//334 239//334
f 234//330 239//330 232//330
f 237//6 239//6 234//6
f 237//6 236//6 239//6
f 17//6 16//6 231//6
