# Blender 5.0.1
# www.blender.org
mtllib torso_z_link_visual_18.mtl
o i01.torso.topStom.full.019_visual.001
v -0.052918 -0.058373 -0.138618
v -0.082314 -0.055914 -0.100851
v -0.028707 -0.061255 -0.182440
v -0.000530 -0.053406 -0.126604
v -0.059316 -0.032176 -0.129968
v -0.044545 -0.049483 -0.065926
v -0.058768 -0.031644 -0.053018
v -0.094022 -0.039092 -0.089795
v -0.043066 -0.070563 -0.064818
v -0.057992 -0.053262 -0.051529
v -0.072203 -0.068749 -0.036237
v 0.002659 -0.057732 -0.023649
v 0.002401 -0.034575 0.007051
v -0.038504 -0.058677 -0.001142
v 0.002167 -0.044382 0.041031
v -0.002378 -0.039310 0.014084
v -0.104943 -0.052834 0.060721
v -0.004028 -0.044083 0.027993
v -0.004486 -0.024421 0.025186
v 0.001102 -0.023647 0.037568
v 0.000610 -0.025567 0.007737
v 0.008326 -0.012137 0.014613
v 0.006055 -0.011571 0.023016
v 0.005716 0.064177 0.018576
v 0.010631 -0.010991 0.031826
v 0.021270 -0.010772 0.034767
v 0.010101 -0.023179 0.044460
v 0.015401 0.064910 0.029790
v 0.110069 0.075207 0.186389
v 0.028304 0.064654 0.025900
v 0.216623 0.067764 0.073195
v 0.160951 0.072068 0.138651
v 0.031575 0.063952 0.015213
v 0.030112 -0.011240 0.028049
v 0.035690 -0.023658 0.039202
v 0.042195 -0.024443 0.024848
v 0.031147 -0.011891 0.018147
v 0.024968 -0.012399 0.010413
v 0.036851 -0.025585 0.007472
v 0.024699 0.063270 0.004845
v 0.086842 0.043182 -0.300657
v 0.264015 0.062851 -0.001532
v 0.015208 -0.012468 0.009366
v -0.129484 0.047562 -0.235370
v 0.011297 0.063353 0.006111
v -0.185347 0.052358 -0.161102
v -0.151012 0.049901 -0.198460
v -0.141588 0.026331 -0.211044
v -0.166438 0.028490 -0.178214
v -0.197222 0.030289 -0.150858
v -0.090361 0.031246 -0.136305
v -0.053397 0.027253 -0.197026
v -0.143346 0.034573 -0.085705
v -0.094978 -0.031463 -0.126543
v -0.055588 -0.035524 -0.188255
v -0.027018 -0.035986 -0.187903
v -0.032004 -0.039928 -0.255270
v -0.006142 -0.040184 -0.251712
v -0.026499 -0.043942 -0.316284
v -0.000293 -0.044424 -0.316245
v -0.030585 0.022683 -0.266535
v -0.123633 0.023896 -0.248087
v -0.113271 0.021279 -0.287892
v -0.026499 0.019139 -0.320432
v -0.110947 0.041783 -0.321921
v -0.110947 0.019139 -0.320432
v -0.000523 0.036963 -0.321605
v 0.104958 0.042759 -0.321870
v -0.113864 0.044314 -0.283487
v 0.050296 -0.049958 -0.315888
v 0.105369 -0.062519 -0.315062
v 0.086821 -0.080107 -0.292505
v 0.158659 -0.067058 -0.289453
v 0.046195 -0.082581 -0.248295
v 0.051344 -0.071033 -0.314503
v 0.050834 -0.085584 -0.294080
v 0.159553 0.043428 -0.296909
v 0.089121 -0.069177 -0.182510
v 0.187885 -0.055442 -0.224658
v 0.027745 -0.078249 -0.182423
v 0.135031 -0.045399 -0.072346
v 0.166333 -0.050230 -0.145332
v 0.044187 -0.064870 -0.098654
v 0.089913 -0.040965 -0.003415
v 0.002903 -0.074776 -0.129604
v 0.024986 -0.056858 -0.179098
v 0.044159 -0.061133 -0.244104
v -0.011670 -0.064348 -0.229482
v -0.000159 -0.068820 -0.296647
v -0.000523 -0.054915 -0.315562
v 0.049785 -0.064492 -0.295198
v 0.130377 -0.023896 -0.066836
v 0.062594 -0.038845 0.029238
v 0.063048 -0.017835 0.027795
v 0.143075 -0.013308 -0.019703
v 0.042845 0.000494 0.046702
v 0.068109 0.009608 0.071421
v 0.088856 -0.008695 0.051380
v 0.043894 -0.020598 0.047818
v 0.024267 -0.036296 0.067828
v -0.047885 -0.032608 0.122734
v 0.023247 -0.015136 0.066367
v -0.032440 -0.012207 0.110932
v 0.011405 -0.039537 0.046295
v 0.025129 -0.031244 0.045651
v 0.025343 -0.022992 0.045396
v -0.005647 -0.003109 0.135400
v -0.082168 -0.000227 0.179229
v -0.101996 -0.009661 0.149644
v -0.165673 -0.008000 0.174895
v -0.161164 0.001850 0.210832
v -0.144674 -0.029582 0.169678
v -0.220448 -0.050529 0.103435
v -0.236654 -0.028036 0.193289
v -0.294010 -0.027679 0.199053
v -0.230363 -0.006967 0.190604
v -0.294952 -0.006481 0.198160
v -0.247454 0.003040 0.228915
v -0.321067 0.009387 0.197595
v -0.293191 0.003311 0.233043
v -0.321067 0.019187 0.232758
v -0.321067 -0.014073 0.180917
v -0.321067 -0.009302 0.198824
v -0.321067 0.074464 0.175095
v -0.295266 0.075537 0.191639
v -0.068483 0.082312 0.294441
v -0.134414 0.083822 0.317397
v -0.297903 0.070972 0.121977
v -0.220870 0.085097 0.336799
v -0.297742 -0.046034 0.128490
v -0.321067 -0.025574 0.145747
v -0.321003 -0.034482 0.110402
v -0.300955 -0.062590 0.058501
v -0.222304 -0.063289 0.045080
v -0.321067 -0.046606 0.056996
v -0.227978 -0.042110 0.045199
v -0.301977 -0.041407 0.057036
v -0.321067 -0.033931 0.003568
v -0.321067 -0.025513 0.055878
v -0.302865 -0.049005 0.004252
v -0.239301 -0.049577 -0.004837
v -0.226658 -0.024316 -0.010411
v -0.169234 -0.051394 -0.032470
v -0.276586 -0.023628 0.000052
v -0.172707 -0.043367 0.026073
v -0.113089 -0.045500 -0.006363
v -0.149023 -0.065127 0.017156
v -0.072909 -0.047614 -0.038519
v -0.106015 -0.054322 -0.076250
v -0.136678 -0.027186 -0.054059
v -0.098872 -0.029256 -0.085546
v -0.147459 -0.028306 -0.078513
v -0.192638 0.036550 -0.055643
v -0.197280 -0.026388 -0.049304
v -0.180930 -0.025520 -0.028708
v -0.246898 0.037859 -0.035735
v -0.251862 -0.025139 -0.030347
v -0.320955 0.038533 -0.025487
v -0.320858 -0.024571 -0.021771
v -0.321054 -0.023417 0.003265
v -0.321067 0.066220 0.049710
v -0.321067 0.057947 -0.002475
v -0.321067 0.032918 -0.110876
v -0.321067 0.055562 -0.112365
v -0.237910 0.054420 -0.128761
v -0.288379 0.055412 -0.114678
v -0.242795 0.031973 -0.125256
v -0.291987 0.032801 -0.112656
v -0.321067 0.069756 0.103492
v -0.342396 0.068540 0.084998
v -0.342389 -0.054370 0.093115
v -0.346154 0.073246 0.156563
v -0.346154 -0.036900 0.163805
v -0.285876 0.017634 0.347891
v -0.178778 0.016676 0.333511
v -0.321057 0.085584 0.344208
v -0.321070 0.033521 0.347147
v -0.321067 -0.001906 0.233874
v -0.291558 -0.017902 0.234155
v -0.250251 -0.018372 0.230579
v -0.193424 -0.019054 0.220210
v -0.139864 -0.020151 0.204619
v -0.084558 -0.021563 0.182033
v -0.077328 0.014718 0.302840
v -0.005301 0.080358 0.264729
v -0.000432 0.012277 0.266562
v 0.054442 0.077981 0.228576
v 0.074288 0.009179 0.219500
v -0.024018 -0.023671 0.148957
v 0.047347 -0.027520 0.094934
v 0.150643 0.021757 0.152211
v 0.125407 0.006409 0.177219
v 0.069049 -0.012204 0.072773
v 0.047154 -0.005938 0.092372
v 0.175345 0.003191 0.128222
v 0.089451 -0.029860 0.052313
v 0.123127 -0.032683 0.011892
v 0.240910 -0.002462 0.042453
v 0.176246 -0.038119 -0.074910
v 0.197145 -0.027111 -0.035944
v 0.315130 -0.012811 -0.114932
v 0.282403 -0.007423 -0.033031
v 0.210036 -0.044398 -0.164198
v 0.190131 -0.019215 -0.109533
v 0.222127 -0.026500 -0.220324
v 0.225921 -0.049068 -0.241520
v 0.335372 -0.018448 -0.197175
v 0.229989 -0.052461 -0.285719
v 0.344055 0.045418 -0.266653
v 0.345505 -0.023897 -0.282109
v 0.334619 0.049958 -0.197602
v 0.346154 0.041784 -0.321921
v 0.317997 0.054410 -0.129897
v 0.294377 0.058723 -0.064306
v 0.177133 0.041784 -0.321921
v 0.346144 -0.010224 -0.318501
v 0.229726 -0.017031 -0.318053
v 0.230820 -0.038686 -0.316624
v 0.228970 -0.030949 -0.287992
v 0.193700 -0.038538 -0.288652
v 0.193998 -0.024487 -0.317564
v 0.177133 -0.049049 -0.315948
v 0.194339 -0.059620 -0.288251
v 0.195047 -0.045562 -0.316177
v 0.194339 -0.063164 -0.342152
v 0.141283 -0.055903 -0.315496
v 0.122756 -0.076417 -0.337519
v 0.122617 0.040242 -0.345395
v 0.194609 0.040076 -0.347890
v 0.182449 -0.033037 -0.205859
v 0.163747 -0.028846 -0.142126
v 0.042294 -0.039215 0.019639
v 0.028580 -0.047819 0.002149
v 0.023216 -0.026128 -0.000396
v 0.010299 -0.041780 0.001869
v 0.012058 -0.026091 0.000396
vn -0.7888 0.0103 -0.6146
vn 0.0635 -0.9915 0.1139
vn 0.0702 -0.9921 0.1040
vn -0.8755 -0.0553 -0.4801
vn 0.0680 -0.9912 0.1134
vn -0.7191 -0.0734 -0.6910
vn -0.4162 -0.7270 0.5462
vn -0.4281 -0.6852 0.5892
vn -0.8090 -0.0873 -0.5812
vn -0.7166 -0.0866 -0.6921
vn 0.5417 -0.7875 -0.2941
vn -0.6919 -0.0743 -0.7182
vn -0.3265 -0.7366 0.5922
vn -0.3176 -0.7583 0.5693
vn 0.5283 -0.7980 -0.2901
vn 0.5695 -0.7698 -0.2883
vn 0.1163 -0.9693 0.2164
vn 0.0925 -0.9771 0.1916
vn 0.5309 -0.8189 -0.2180
vn 0.5268 -0.8265 -0.1985
vn 0.9021 -0.0403 -0.4296
vn 0.9904 0.0419 0.1319
vn 0.9118 -0.0217 -0.4101
vn 0.7172 -0.6363 -0.2839
vn 0.9557 -0.0766 0.2842
vn 0.7720 -0.5784 0.2635
vn 0.7691 -0.5892 0.2476
vn 0.9655 0.0195 0.2596
vn 0.6853 -0.6578 -0.3126
vn 0.8878 -0.0230 -0.4596
vn 0.2670 -0.0426 -0.9628
vn 0.2014 -0.7092 -0.6757
vn 0.4889 -0.6380 -0.5950
vn 0.7573 -0.0650 -0.6498
vn 0.0017 0.9978 -0.0666
vn -0.0000 0.9978 -0.0656
vn -0.2891 -0.0851 -0.9535
vn -0.9563 -0.0310 -0.2907
vn -0.6059 -0.0369 -0.7947
vn -0.4556 -0.6994 -0.5508
vn -0.7386 -0.6028 -0.3018
vn -0.7413 -0.6704 -0.0335
vn -0.9946 0.0016 -0.1041
vn -0.7819 0.0430 0.6219
vn -0.5814 -0.6368 0.5063
vn -0.7898 -0.5463 0.2789
vn -0.8339 0.0260 0.5513
vn 0.0004 0.9979 -0.0655
vn -0.1069 0.0726 0.9916
vn 0.0943 0.0476 0.9944
vn -0.0000 0.9979 -0.0653
vn 0.0002 0.9978 -0.0659
vn 0.9129 0.0100 0.4081
vn 0.6070 0.0653 0.7920
vn -0.0017 0.9979 -0.0642
vn -0.7972 0.0035 -0.6037
vn -0.8633 -0.0790 -0.4985
vn -0.7357 -0.1029 -0.6694
vn -0.0000 -0.9978 0.0656
vn -0.6639 0.0101 -0.7478
vn -0.8546 -0.0425 -0.5175
vn -0.6914 -0.0612 -0.7199
vn -0.8434 -0.0215 -0.5369
vn -0.0145 -0.9983 0.0564
vn -0.0169 -0.9981 0.0597
vn -0.0168 -0.9983 0.0563
vn -0.9435 -0.0133 -0.3312
vn -0.0187 -0.9978 0.0639
vn -0.0181 -0.9981 0.0597
vn -0.9502 -0.0342 -0.3096
vn -0.9959 0.0063 -0.0903
vn -0.0185 -0.9978 0.0640
vn -0.9972 -0.0050 -0.0753
vn 0.0003 -0.0656 -0.9978
vn -0.0000 -0.0657 -0.9978
vn -0.0000 -0.0656 -0.9978
vn 0.0011 -0.0657 -0.9978
vn -0.0549 0.9963 -0.0668
vn -0.0303 0.9856 -0.1664
vn 0.0437 0.9971 -0.0623
vn 0.0472 0.9975 -0.0520
vn -0.9501 -0.0718 -0.3036
vn -0.9671 0.0235 -0.2533
vn -0.9974 -0.0122 -0.0704
vn -0.9971 -0.0050 -0.0753
vn -0.0000 -0.0644 -0.9979
vn 0.0003 -0.0645 -0.9979
vn 0.7602 0.0427 0.6483
vn 0.7540 0.0453 0.6553
vn 0.0546 -0.0677 -0.9962
vn 0.1741 -0.9803 0.0938
vn 0.1623 -0.9822 0.0942
vn 0.1466 -0.9860 0.0795
vn 0.1479 -0.8072 -0.5714
vn 0.1251 -0.8297 -0.5440
vn 0.0516 -0.0659 -0.9965
vn 0.1771 -0.9795 0.0957
vn 0.1845 -0.9762 0.1143
vn 0.1456 -0.9837 0.1055
vn 0.1452 -0.9811 0.1282
vn 0.1685 -0.9757 0.1404
vn 0.1726 -0.9752 0.1386
vn 0.1273 -0.9783 0.1636
vn 0.1224 -0.9810 0.1507
vn 0.1468 -0.9738 0.1739
vn 0.1601 -0.9728 0.1673
vn 0.1384 -0.9819 0.1296
vn -0.9050 -0.0511 -0.4223
vn -0.8161 -0.0503 -0.5758
vn -0.8984 -0.0838 -0.4312
vn -0.9575 -0.0804 -0.2771
vn 0.0805 -0.9928 0.0890
vn 0.0755 -0.9928 0.0926
vn 0.0749 -0.9920 0.1016
vn -0.9828 0.0658 -0.1728
vn 0.0781 -0.9938 0.0795
vn -0.9404 -0.0106 -0.3399
vn -0.9497 -0.0647 -0.3064
vn 0.0745 -0.8028 -0.5916
vn -0.9990 0.0243 0.0371
vn -0.9936 -0.0739 -0.0852
vn 0.0873 -0.8162 -0.5712
vn 0.0839 -0.9937 0.0746
vn -0.9918 -0.0738 -0.1044
vn -0.9938 -0.0546 -0.0971
vn -0.9967 -0.0528 -0.0617
vn -0.0001 -0.0650 -0.9979
vn -0.9629 -0.0392 -0.2671
vn 0.8372 0.0415 0.5453
vn 0.8072 0.1780 0.5629
vn 0.1442 -0.9723 0.1838
vn 0.7676 0.0274 0.6404
vn 0.1591 -0.9716 0.1754
vn 0.1680 -0.9671 0.1909
vn 0.7157 0.0723 0.6946
vn -0.2330 -0.8108 0.5370
vn -0.2020 -0.8183 0.5382
vn 0.7200 0.0321 0.6932
vn -0.2581 -0.8064 0.5321
vn 0.5000 -0.8482 -0.1749
vn 0.6830 0.0724 0.7268
vn 0.6056 0.0018 0.7957
vn 0.1125 -0.9705 0.2130
vn 0.1136 -0.9732 0.2000
vn 0.5424 -0.8156 -0.2012
vn 0.5025 -0.8470 -0.1734
vn 0.6253 0.0837 0.7759
vn 0.6720 0.0832 0.7359
vn 0.5034 -0.8465 -0.1733
vn -0.5142 -0.0132 -0.8576
vn -0.0286 -0.0302 -0.9991
vn 0.0622 -0.1064 -0.9924
vn 0.0547 -0.6448 -0.7624
vn -0.4116 -0.6723 -0.6153
vn 0.5357 -0.1123 -0.8369
vn 0.6089 -0.0403 -0.7922
vn 0.1262 -0.9670 0.2213
vn 0.1038 -0.9640 0.2447
vn 0.0990 -0.9653 0.2414
vn 0.4857 0.1321 0.8641
vn 0.3683 0.1360 0.9197
vn 0.0759 -0.9640 0.2547
vn 0.0770 -0.9637 0.2557
vn 0.4355 -0.0282 0.8997
vn 0.0661 -0.9706 0.2313
vn 0.0849 -0.9677 0.2375
vn 0.0481 -0.9669 0.2507
vn 0.2488 0.0079 0.9685
vn 0.0187 -0.9691 0.2460
vn 0.1002 0.0463 0.9939
vn 0.2364 0.0530 0.9702
vn 0.1164 0.0913 0.9890
vn 0.0234 -0.9647 0.2624
vn 0.0186 -0.9629 0.2693
vn 0.0183 0.0656 0.9977
vn -0.5088 -0.8292 0.2311
vn -0.4799 -0.8381 0.2595
vn 0.1103 -0.9604 0.2559
vn 0.5611 -0.0543 -0.8259
vn -0.6762 -0.0610 -0.7342
vn 0.5406 -0.0646 -0.8388
vn -0.0000 0.9978 -0.0657
vn -0.0002 0.9979 -0.0654
vn -0.9993 0.0007 0.0378
vn 0.0010 0.9978 -0.0662
vn -0.9985 -0.0082 0.0549
vn 0.6191 0.0445 0.7840
vn -0.5571 -0.8055 0.2020
vn 0.0249 -0.9678 0.2504
vn 0.0178 -0.9732 0.2294
vn -0.5632 -0.7980 0.2146
vn 0.0276 -0.9767 0.2127
vn -0.1684 -0.0396 -0.9849
vn -0.6206 -0.7645 0.1743
vn 0.0206 -0.0680 -0.9975
vn -0.1582 -0.0757 -0.9845
vn 0.0165 -0.0530 -0.9985
vn -0.6394 -0.7591 0.1222
vn -0.6359 -0.7624 0.1204
vn 0.0137 -0.9894 0.1446
vn 0.0114 -0.9898 0.1423
vn -0.1417 -0.0171 -0.9898
vn -0.2053 -0.1118 -0.9723
vn -0.3673 -0.0214 -0.9299
vn 0.0285 -0.9901 0.1374
vn 0.0265 -0.9896 0.1417
vn -0.4760 -0.1639 -0.8640
vn 0.0397 -0.9896 0.1380
vn -0.3276 -0.0825 -0.9412
vn -0.3562 -0.0047 -0.9344
vn 0.0599 -0.9749 0.2145
vn 0.0856 -0.9782 0.1895
vn 0.0562 -0.9757 0.2116
vn -0.5680 0.0561 -0.8211
vn -0.6248 -0.1044 -0.7738
vn 0.0522 -0.9901 0.1303
vn 0.0438 -0.9906 0.1295
vn -0.6400 -0.1001 -0.7618
vn -0.5681 0.0306 -0.8224
vn -0.7171 -0.0533 -0.6949
vn 0.5431 -0.7548 -0.3678
vn 0.5359 -0.7762 -0.3322
vn -0.0119 -0.9985 0.0526
vn -0.0149 -0.9985 0.0523
vn -0.0121 -0.9986 0.0511
vn -0.7469 -0.0853 -0.6595
vn -0.7407 -0.0768 -0.6675
vn -0.0093 -0.9987 0.0498
vn -0.6759 -0.0400 -0.7359
vn -0.5215 -0.0632 -0.8509
vn -0.5066 -0.0493 -0.8608
vn -0.0093 -0.9987 0.0494
vn -0.0072 -0.9988 0.0478
vn -0.0059 -0.9988 0.0487
vn -0.3451 -0.0688 -0.9360
vn -0.3287 -0.0547 -0.9428
vn -0.0041 -0.9989 0.0463
vn -0.0023 -0.9989 0.0478
vn -0.1374 -0.0737 -0.9878
vn -0.1236 -0.0585 -0.9906
vn -0.0014 -0.9989 0.0460
vn -1.0000 -0.0020 -0.0077
vn -1.0000 -0.0000 -0.0002
vn -1.0000 0.0012 -0.0002
vn 0.0138 -0.0288 -0.9995
vn -1.0000 -0.0002 -0.0000
vn -1.0000 -0.0005 -0.0045
vn -0.0722 -0.0896 -0.9934
vn -0.0087 0.9876 -0.1566
vn -0.0165 0.9991 -0.0388
vn -1.0000 -0.0079 0.0018
vn -1.0000 -0.0000 -0.0000
vn 0.0031 0.9998 -0.0217
vn 0.0145 0.9997 -0.0184
vn -0.0707 -0.0777 -0.9945
vn -0.2693 -0.0911 -0.9587
vn -0.2486 -0.0469 -0.9675
vn -0.0612 -0.0655 -0.9960
vn -0.4904 -0.0293 -0.8710
vn -0.0008 0.9979 -0.0648
vn -0.5240 -0.1101 -0.8446
vn -1.0000 -0.0005 0.0011
vn 0.6553 -0.0496 -0.7537
vn 0.6559 -0.0497 -0.7532
vn -0.9986 -0.0034 -0.0523
vn 0.5834 0.0533 0.8104
vn -0.9986 -0.0035 -0.0522
vn 0.5585 -0.7978 0.2269
vn 0.5625 0.0679 0.8240
vn 0.5234 -0.8260 0.2091
vn -0.4974 -0.0995 -0.8618
vn -0.3720 -0.0333 -0.9276
vn -0.6531 -0.1028 -0.7502
vn -1.0000 0.0001 0.0012
vn 0.0739 0.0921 0.9930
vn 0.1333 0.0344 0.9905
vn 0.2193 0.0883 0.9716
vn 0.0043 0.0564 0.9984
vn -1.0000 0.0003 -0.0000
vn -0.4615 -0.8467 0.2648
vn -0.3987 -0.8695 0.2916
vn 0.0149 -0.9546 0.2975
vn -0.0867 -0.0588 -0.9945
vn -0.0192 -0.0529 -0.9984
vn -0.0205 -0.0539 -0.9983
vn -0.1799 -0.0528 -0.9823
vn 0.0425 -0.9544 0.2955
vn 0.0320 -0.9527 0.3022
vn -0.0901 -0.0655 -0.9938
vn -0.2795 0.0005 -0.9602
vn 0.0656 -0.9541 0.2924
vn -0.2052 -0.1191 -0.9714
vn 0.0906 -0.9553 0.2815
vn -0.3783 -0.1066 -0.9195
vn 0.0704 -0.9533 0.2936
vn 0.2899 0.0380 0.9563
vn 0.4263 0.0564 0.9028
vn 0.4275 0.0549 0.9024
vn 0.3294 0.0739 0.9413
vn 0.1020 -0.9544 0.2805
vn 0.5185 0.0601 0.8529
vn 0.5337 0.0425 0.8446
vn 0.1281 -0.9553 0.2663
vn 0.1139 -0.9563 0.2695
vn 0.1391 -0.9577 0.2521
vn -0.4802 -0.0612 -0.8750
vn -0.6031 0.0129 -0.7976
vn -0.4967 -0.1227 -0.8592
vn 0.1537 -0.9564 0.2485
vn 0.4629 -0.8832 -0.0749
vn 0.4831 -0.8665 -0.1258
vn -0.6787 -0.0926 -0.7286
vn -0.6319 -0.0970 -0.7690
vn 0.5069 -0.8457 -0.1669
vn 0.4747 -0.8643 -0.1665
vn 0.1296 -0.9663 0.2226
vn -0.6769 -0.0746 -0.7323
vn -0.1651 -0.8221 0.5448
vn -0.1429 -0.8485 0.5095
vn -0.7372 -0.0734 -0.6717
vn 0.1786 -0.9599 0.2159
vn -0.7690 -0.0497 -0.6373
vn -0.7167 -0.0508 -0.6955
vn 0.1916 -0.9588 0.2097
vn 0.1967 -0.9614 0.1924
vn -0.8520 0.0245 -0.5229
vn 0.1852 -0.9672 0.1739
vn -0.7905 -0.1532 -0.5930
vn 0.2154 -0.9595 0.1814
vn 0.2176 -0.9644 0.1504
vn 0.2185 -0.9639 0.1519
vn 0.2233 -0.9628 0.1522
vn -0.9339 0.0342 -0.3558
vn -0.9480 -0.1808 -0.2619
vn -0.9789 0.0257 -0.2027
vn 0.2322 -0.9648 0.1233
vn 0.2281 -0.9679 0.1053
vn 0.9711 0.0122 0.2382
vn 0.2321 -0.9680 0.0957
vn 0.2364 -0.9675 0.0903
vn 0.9908 0.0117 0.1346
vn 0.9929 -0.0057 0.1188
vn 0.9713 0.0115 0.2377
vn 0.9410 0.0348 0.3366
vn 0.9005 0.0416 0.4328
vn 0.9287 0.0071 0.3706
vn 0.9992 0.0126 0.0371
vn 0.9998 0.0010 0.0179
vn -0.0001 -0.0656 -0.9978
vn 0.0001 -0.0659 -0.9978
vn -0.9973 -0.0537 -0.0499
vn -0.9974 -0.0525 -0.0503
vn 0.2143 -0.8943 -0.3928
vn -0.9937 -0.0573 -0.0967
vn 0.1810 -0.8942 -0.4094
vn 0.1979 -0.8824 -0.4268
vn 0.2081 -0.9744 0.0851
vn 0.9992 0.0308 0.0252
vn 0.9972 0.0530 0.0520
vn 0.1976 -0.8776 -0.4368
vn 0.1623 -0.8650 -0.4748
vn 0.9946 0.0320 0.0988
vn 0.2006 -0.9760 0.0845
vn 0.1593 -0.8646 -0.4766
vn 0.8440 0.0352 0.5352
vn 0.1859 -0.8089 0.5578
vn 0.1577 -0.7852 0.5988
vn -0.0520 -0.0673 -0.9964
vn -0.7961 0.0398 0.6038
vn -0.7763 0.0249 0.6299
vn -0.0347 -0.0554 -0.9979
vn 0.8302 0.0288 0.5568
vn -0.8220 0.0450 0.5677
vn 0.9831 0.1339 0.1247
vn 0.1942 -0.9767 0.0913
vn 0.9652 0.0150 0.2612
vn 0.9582 0.0744 0.2763
vn 0.2024 -0.9715 0.1233
vn 0.2048 -0.9710 0.1230
vn 0.9190 0.0526 0.3907
vn 0.9124 0.0955 0.3981
vn 0.1785 -0.9735 0.1431
vn 0.2359 -0.9111 -0.3381
vn -0.9926 -0.0874 -0.0846
vn -0.8767 -0.1760 -0.4477
vn 0.1937 -0.9671 0.1651
vn 0.8766 0.0138 0.4810
vn 0.7947 0.0092 0.6069
vn 0.8448 0.0593 0.5318
vn 0.7124 0.0428 0.7004
vn 0.7623 0.0618 0.6443
vn 0.6857 0.0551 0.7258
vn 0.6381 0.0398 0.7689
vn 0.6850 0.0559 0.7264
vn 0.6050 0.0699 0.7932
vn -0.3721 -0.0798 -0.9248
vn 0.0435 -0.9617 0.2706
vn 0.0474 -0.9648 0.2585
vn -0.2619 -0.7687 0.5835
vn -0.2460 -0.7974 0.5511
vn -0.1784 -0.8451 0.5040
vn -0.8144 0.1701 0.5549
vn -0.2662 -0.7795 0.5670
vn -0.4990 -0.0218 0.8663
vn 0.0253 0.1227 0.9921
vn 0.0708 0.0854 0.9938
vn -0.3182 -0.7582 0.5692
vn 0.5817 0.0539 0.8116
vn 0.5403 0.0184 0.8413
vn 0.0568 -0.5582 0.8278
vn 0.4273 -0.5641 0.7066
vn -0.4071 -0.5324 0.7422
vn -0.0802 -0.6102 0.7881
vn -0.8989 0.1403 -0.4151
vn -0.9477 -0.1117 0.2989
vn -0.9966 -0.0537 -0.0632
vn -0.8995 0.0123 -0.4368
vn -0.8738 -0.0463 -0.4841
vn 0.4664 -0.6005 0.6495
vn 0.7861 0.1100 0.6083
s 0
usemtl Material.003
f 1//1 2//1 5//1
f 6//2 2//2 1//2
f 4//3 1//3 3//3
f 3//4 1//4 5//4
f 1//5 4//5 6//5
f 6//6 10//6 7//6
f 8//7 6//7 7//7
f 6//8 8//8 2//8
f 4//9 9//9 6//9
f 10//10 6//10 9//10
f 14//11 11//11 10//11
f 11//12 7//12 10//12
f 9//13 12//13 10//13
f 10//14 12//14 13//14
f 13//15 14//15 10//15
f 15//16 14//16 18//16
f 15//17 17//17 14//17
f 11//18 14//18 17//18
f 18//19 14//19 16//19
f 13//20 16//20 14//20
f 15//21 18//21 19//21
f 18//22 16//22 19//22
f 19//23 20//23 15//23
f 20//24 19//24 23//24
f 21//25 19//25 16//25
f 19//26 21//26 22//26
f 22//27 23//27 19//27
f 23//28 22//28 24//28
f 23//29 25//29 20//29
f 25//30 23//30 24//30
f 26//31 25//31 28//31
f 25//32 26//32 27//32
f 27//33 20//33 25//33
f 24//34 28//34 25//34
f 29//35 28//35 24//35
f 28//36 29//36 30//36
f 28//37 30//37 26//37
f 30//36 31//36 33//36
f 30//36 32//36 31//36
f 30//36 29//36 32//36
f 30//38 33//38 34//38
f 34//39 26//39 30//39
f 26//40 34//40 35//40
f 36//41 35//41 34//41
f 34//42 37//42 36//42
f 37//43 34//43 33//43
f 38//44 37//44 40//44
f 37//45 38//45 39//45
f 39//46 36//46 37//46
f 33//47 40//47 37//47
f 40//48 41//48 44//48
f 42//36 41//36 40//36
f 33//36 42//36 40//36
f 43//49 38//49 40//49
f 40//50 45//50 43//50
f 44//51 45//51 40//51
f 45//52 46//52 24//52
f 45//36 47//36 46//36
f 45//53 24//53 22//53
f 22//54 43//54 45//54
f 47//55 45//55 44//55
f 48//56 49//56 47//56
f 47//57 44//57 48//57
f 46//58 47//58 49//58
f 49//59 48//59 51//59
f 49//60 50//60 46//60
f 50//59 49//59 51//59
f 52//59 51//59 48//59
f 51//61 52//61 55//61
f 53//62 51//62 54//62
f 51//59 53//59 50//59
f 55//63 54//63 51//63
f 55//64 5//64 54//64
f 55//65 57//65 56//65
f 56//66 5//66 55//66
f 57//67 55//67 52//67
f 58//68 57//68 60//68
f 56//69 57//69 58//69
f 52//70 61//70 57//70
f 59//71 57//71 61//71
f 59//72 60//72 57//72
f 61//59 52//59 62//59
f 62//59 63//59 61//59
f 64//59 61//59 63//59
f 61//73 64//73 59//73
f 64//74 60//74 59//74
f 60//75 64//75 67//75
f 65//75 67//75 64//75
f 64//76 66//76 65//76
f 63//59 66//59 64//59
f 60//77 67//77 68//77
f 67//78 41//78 68//78
f 41//79 67//79 44//79
f 69//80 67//80 65//80
f 44//81 67//81 69//81
f 44//82 69//82 62//82
f 63//83 62//83 69//83
f 66//84 63//84 69//84
f 69//85 65//85 66//85
f 60//86 68//86 70//86
f 70//87 68//87 71//87
f 68//88 41//88 72//88
f 72//89 71//89 68//89
f 73//90 72//90 77//90
f 73//91 78//91 72//91
f 74//92 72//92 78//92
f 72//93 74//93 76//93
f 72//94 76//94 75//94
f 75//95 71//95 72//95
f 41//96 77//96 72//96
f 79//97 78//97 73//97
f 78//98 79//98 82//98
f 78//99 80//99 74//99
f 80//100 78//100 83//100
f 81//101 83//101 78//101
f 78//102 82//102 81//102
f 9//103 83//103 12//103
f 83//104 9//104 85//104
f 84//105 12//105 83//105
f 83//106 81//106 84//106
f 83//107 85//107 80//107
f 85//108 86//108 80//108
f 9//109 4//109 85//109
f 86//110 85//110 4//110
f 87//111 80//111 86//111
f 88//112 87//112 86//112
f 86//113 3//113 88//113
f 3//114 86//114 4//114
f 89//115 88//115 58//115
f 87//116 88//116 89//116
f 88//117 3//117 56//117
f 56//118 58//118 88//118
f 70//119 89//119 90//119
f 90//120 89//120 60//120
f 58//121 60//121 89//121
f 89//122 70//122 91//122
f 89//123 91//123 87//123
f 91//124 74//124 87//124
f 74//125 91//125 76//125
f 70//126 76//126 91//126
f 60//127 70//127 90//127
f 80//128 87//128 74//128
f 84//129 81//129 92//129
f 92//130 94//130 84//130
f 84//131 93//131 12//131
f 93//132 84//132 94//132
f 95//133 94//133 92//133
f 94//134 95//134 98//134
f 94//135 96//135 99//135
f 97//136 96//136 94//136
f 94//137 98//137 97//137
f 99//138 93//138 94//138
f 35//139 93//139 99//139
f 35//140 99//140 100//140
f 100//141 99//141 96//141
f 101//142 100//142 103//142
f 17//143 100//143 101//143
f 100//144 17//144 15//144
f 100//145 15//145 104//145
f 100//146 105//146 35//146
f 102//147 103//147 100//147
f 96//148 102//148 100//148
f 100//149 104//149 105//149
f 35//150 105//150 106//150
f 105//151 104//151 106//151
f 27//152 106//152 104//152
f 106//153 27//153 26//153
f 35//154 106//154 26//154
f 104//155 15//155 20//155
f 20//156 27//156 104//156
f 107//157 103//157 102//157
f 103//158 107//158 108//158
f 108//159 109//159 103//159
f 103//160 109//160 101//160
f 109//161 110//161 112//161
f 111//162 110//162 109//162
f 109//163 108//163 111//163
f 112//164 101//164 109//164
f 17//165 112//165 113//165
f 101//166 112//166 17//166
f 112//167 114//167 113//167
f 114//168 112//168 110//168
f 114//169 115//169 113//169
f 115//170 114//170 117//170
f 110//171 116//171 114//171
f 116//172 117//172 114//172
f 118//173 117//173 116//173
f 117//174 118//174 120//174
f 117//175 119//175 123//175
f 121//176 119//176 117//176
f 117//177 120//177 121//177
f 117//178 123//178 122//178
f 122//179 124//179 117//179
f 117//180 125//180 115//180
f 124//181 125//181 117//181
f 125//182 127//182 126//182
f 126//183 128//183 125//183
f 127//182 125//182 129//182
f 125//184 128//184 130//184
f 129//185 125//185 124//185
f 130//186 115//186 125//186
f 130//187 128//187 131//187
f 132//188 130//188 131//188
f 130//189 113//189 115//189
f 133//190 113//190 130//190
f 130//191 132//191 133//191
f 113//192 133//192 134//192
f 133//193 136//193 134//193
f 132//194 135//194 133//194
f 135//195 137//195 133//195
f 136//196 133//196 137//196
f 137//197 135//197 139//197
f 138//198 137//198 139//198
f 137//199 138//199 140//199
f 141//200 136//200 137//200
f 137//201 140//201 141//201
f 141//202 140//202 144//202
f 144//203 142//203 141//203
f 143//204 141//204 142//204
f 145//205 141//205 143//205
f 141//206 145//206 136//206
f 146//207 147//207 145//207
f 143//208 146//208 145//208
f 145//209 134//209 136//209
f 134//210 145//210 147//210
f 147//211 17//211 113//211
f 17//212 147//212 11//212
f 113//213 134//213 147//213
f 147//214 146//214 11//214
f 148//215 11//215 146//215
f 149//216 148//216 146//216
f 146//217 143//217 149//217
f 150//218 151//218 149//218
f 149//219 143//219 150//219
f 8//220 149//220 151//220
f 7//221 149//221 8//221
f 149//222 7//222 148//222
f 152//223 54//223 151//223
f 151//224 54//224 5//224
f 151//225 150//225 152//225
f 151//226 5//226 2//226
f 2//227 8//227 151//227
f 152//228 150//228 154//228
f 54//229 152//229 53//229
f 153//230 53//230 152//230
f 152//231 154//231 153//231
f 150//232 155//232 154//232
f 155//233 142//233 154//233
f 154//234 142//234 157//234
f 156//235 153//235 154//235
f 154//236 157//236 156//236
f 144//237 157//237 142//237
f 159//238 157//238 144//238
f 158//239 156//239 157//239
f 157//240 159//240 158//240
f 160//241 159//241 144//241
f 160//242 158//242 159//242
f 139//243 161//243 160//243
f 160//244 138//244 139//244
f 140//245 138//245 160//245
f 161//246 162//246 160//246
f 158//247 160//247 162//247
f 160//248 144//248 140//248
f 161//249 24//249 162//249
f 162//250 24//250 165//250
f 163//251 158//251 162//251
f 162//252 164//252 163//252
f 162//253 166//253 164//253
f 162//254 165//254 166//254
f 164//255 166//255 168//255
f 166//256 165//256 167//256
f 167//257 168//257 166//257
f 168//258 163//258 164//258
f 163//59 168//59 158//59
f 168//59 167//59 156//59
f 156//59 158//59 168//59
f 50//259 167//259 165//259
f 53//59 153//59 167//59
f 153//59 156//59 167//59
f 167//59 50//59 53//59
f 24//260 46//260 165//260
f 165//261 46//261 50//261
f 161//36 128//36 24//36
f 169//252 161//252 139//252
f 169//36 128//36 161//36
f 169//262 139//262 132//262
f 171//263 169//263 132//263
f 172//36 169//36 170//36
f 169//264 171//264 170//264
f 172//36 128//36 169//36
f 173//265 172//265 171//265
f 128//266 172//266 173//266
f 170//267 171//267 172//267
f 132//268 173//268 171//268
f 173//269 131//269 128//269
f 173//270 132//270 131//270
f 155//271 150//271 143//271
f 142//272 155//272 143//272
f 7//273 11//273 148//273
f 132//274 139//274 135//274
f 129//275 176//275 174//275
f 174//276 175//276 129//276
f 127//277 129//277 175//277
f 129//36 124//36 176//36
f 177//278 174//278 176//278
f 124//279 177//279 176//279
f 177//252 121//252 178//252
f 178//280 179//280 177//280
f 179//281 174//281 177//281
f 124//252 121//252 177//252
f 174//282 179//282 180//282
f 180//283 179//283 120//283
f 179//284 178//284 121//284
f 121//285 120//285 179//285
f 181//286 180//286 118//286
f 175//287 180//287 181//287
f 180//288 175//288 174//288
f 120//289 118//289 180//289
f 182//290 181//290 111//290
f 181//291 182//291 175//291
f 118//292 111//292 181//292
f 184//293 182//293 183//293
f 183//294 182//294 111//294
f 182//295 184//295 175//295
f 175//296 184//296 127//296
f 185//297 126//297 184//297
f 184//298 186//298 185//298
f 126//299 127//299 184//299
f 183//300 186//300 184//300
f 187//301 185//301 186//301
f 186//302 188//302 187//302
f 189//303 188//303 186//303
f 186//304 183//304 189//304
f 188//305 189//305 190//305
f 189//306 183//306 108//306
f 190//307 189//307 107//307
f 108//308 107//308 189//308
f 190//309 192//309 188//309
f 190//310 191//310 192//310
f 191//311 190//311 193//311
f 193//312 190//312 194//312
f 107//313 194//313 190//313
f 194//314 102//314 96//314
f 96//315 97//315 194//315
f 102//316 194//316 107//316
f 194//317 97//317 193//317
f 196//318 195//318 193//318
f 193//319 195//319 191//319
f 196//320 193//320 97//320
f 195//321 196//321 197//321
f 197//322 196//322 98//322
f 97//323 98//323 196//323
f 197//324 198//324 195//324
f 198//325 197//325 200//325
f 199//326 197//326 95//326
f 200//327 197//327 199//327
f 98//328 95//328 197//328
f 200//329 202//329 198//329
f 200//330 201//330 202//330
f 201//331 200//331 203//331
f 199//332 203//332 200//332
f 203//333 199//333 204//333
f 204//334 205//334 203//334
f 206//335 203//335 205//335
f 203//336 207//336 201//336
f 207//337 203//337 206//337
f 201//338 207//338 211//338
f 206//339 208//339 207//339
f 210//340 207//340 208//340
f 209//341 211//341 207//341
f 207//342 210//342 209//342
f 212//36 211//36 209//36
f 77//36 211//36 212//36
f 77//36 213//36 211//36
f 211//343 213//343 201//343
f 213//344 214//344 201//344
f 77//36 214//36 213//36
f 77//36 42//36 214//36
f 214//345 42//345 202//345
f 202//346 201//346 214//346
f 212//347 209//347 210//347
f 210//348 216//348 212//348
f 215//36 77//36 212//36
f 215//76 212//76 217//76
f 218//349 212//349 216//349
f 212//350 218//350 217//350
f 219//351 217//351 218//351
f 218//352 208//352 219//352
f 218//353 216//353 208//353
f 205//354 219//354 208//354
f 221//355 217//355 219//355
f 219//356 220//356 221//356
f 220//357 219//357 205//357
f 222//349 215//349 221//349
f 221//75 224//75 222//75
f 221//358 220//358 223//358
f 223//359 224//359 221//359
f 217//76 221//76 215//76
f 73//360 224//360 223//360
f 222//361 224//361 73//361
f 79//362 223//362 220//362
f 73//363 223//363 79//363
f 222//364 73//364 226//364
f 215//365 222//365 225//365
f 222//366 227//366 225//366
f 222//367 226//367 227//367
f 228//368 225//368 227//368
f 77//369 228//369 227//369
f 227//370 226//370 77//370
f 228//36 77//36 215//36
f 229//36 228//36 215//36
f 225//371 228//371 229//371
f 225//372 229//372 215//372
f 73//373 77//373 226//373
f 220//374 230//374 79//374
f 205//375 230//375 220//375
f 82//376 79//376 230//376
f 230//377 231//377 82//377
f 204//378 231//378 230//378
f 230//379 205//379 204//379
f 81//380 82//380 231//380
f 231//381 92//381 81//381
f 204//382 92//382 231//382
f 208//383 216//383 210//383
f 208//384 206//384 205//384
f 95//385 204//385 199//385
f 92//386 204//386 95//386
f 198//387 202//387 42//387
f 195//388 198//388 31//388
f 42//389 31//389 198//389
f 191//390 195//390 32//390
f 31//391 32//391 195//391
f 192//392 191//392 32//392
f 188//393 192//393 29//393
f 32//394 29//394 192//394
f 29//395 187//395 188//395
f 187//36 24//36 185//36
f 29//36 24//36 187//36
f 185//36 128//36 126//36
f 185//36 24//36 128//36
f 111//396 108//396 183//396
f 124//252 122//252 119//252
f 119//252 121//252 124//252
f 122//252 123//252 119//252
f 116//397 111//397 118//397
f 111//398 116//398 110//398
f 232//399 233//399 93//399
f 93//400 35//400 232//400
f 233//401 12//401 93//401
f 233//402 232//402 39//402
f 233//403 235//403 12//403
f 39//404 234//404 233//404
f 235//405 233//405 234//405
f 234//406 236//406 235//406
f 235//407 13//407 12//407
f 13//408 235//408 21//408
f 236//409 21//409 235//409
f 236//410 234//410 43//410
f 21//411 236//411 43//411
f 234//412 39//412 38//412
f 38//413 43//413 234//413
f 232//414 35//414 36//414
f 36//415 39//415 232//415
f 41//36 42//36 77//36
f 76//416 70//416 75//416
f 70//76 71//76 75//76
f 48//59 62//59 52//59
f 62//417 48//417 44//417
f 5//418 56//418 3//418
f 43//419 22//419 21//419
f 33//36 31//36 42//36
f 16//420 13//420 21//420
