# Blender 5.0.1
# www.blender.org
mtllib torso_y_link_visual_12.mtl
o i01.torso.full.014_visual.001
v 0.417374 0.162165 -0.566551
v -0.560691 0.216655 -0.570159
v 0.448450 0.191988 -0.568503
v 0.460298 0.192159 -0.521044
v 0.428628 0.161804 -0.499389
v 0.400778 0.145212 -0.565356
v 0.380288 0.116885 -0.563597
v 0.407535 0.131461 -0.480005
v 0.410120 0.146634 -0.522943
v 0.423216 0.133838 -0.399421
v 0.347972 0.078180 -0.561021
v 0.434885 0.153076 -0.440048
v 0.469099 0.171561 -0.365435
v 0.459525 0.171558 -0.422091
v 0.519709 0.208835 -0.372689
v 0.515184 0.210896 -0.412478
v 0.501504 0.210950 -0.458780
v 0.527846 0.226323 -0.422956
v 0.531997 0.221288 -0.390782
v 0.556830 0.231045 -0.351437
v 0.539595 0.221797 -0.347383
v 0.541704 0.222087 -0.320566
v 0.557828 0.232603 -0.327624
v 0.487487 0.181588 -0.313433
v 0.449030 0.150941 -0.333964
v 0.464920 0.162476 -0.268272
v 0.539626 0.220987 -0.260618
v 0.558469 0.234801 -0.294115
v 0.560691 0.242319 -0.180033
v 0.502265 0.245193 -0.136153
v 0.522445 0.254120 -0.000388
v 0.454068 0.215137 -0.296573
v 0.473006 0.227698 -0.402220
v 0.553574 0.254524 0.005670
v 0.471479 0.230646 -0.111001
v 0.432432 0.200815 -0.179171
v 0.399659 0.186018 -0.060120
v 0.396499 0.167694 -0.251631
v 0.371869 0.144868 -0.227248
v 0.343418 0.122928 -0.200352
v 0.322455 0.100266 -0.395964
v 0.304114 0.088010 -0.271722
v 0.383303 0.158572 -0.347432
v 0.333719 0.132459 -0.102818
v 0.259952 0.077198 -0.144400
v 0.288950 0.136283 -0.010706
v 0.221067 0.110989 0.014637
v 0.293133 0.202126 0.051298
v 0.365563 0.258880 0.072001
v 0.188414 0.266993 0.195381
v 0.159124 0.183365 0.166595
v 0.299428 0.261337 0.109366
v 0.217088 0.268367 0.216287
v 0.328953 0.262282 0.123731
v 0.287530 0.145534 0.165787
v 0.328367 0.149722 0.131515
v 0.216991 0.138643 0.224854
v 0.395594 0.259638 0.083524
v 0.428877 0.256730 0.039306
v 0.459393 0.257324 0.048344
v 0.394908 0.172141 0.089661
v 0.356869 0.135982 0.035254
v 0.456485 0.195857 0.053820
v 0.479008 0.192146 -0.014818
v 0.504834 0.214463 0.000824
v 0.401264 0.144876 -0.021184
v 0.510807 0.228331 0.026851
v 0.521590 0.227822 -0.003342
v 0.513792 0.213375 -0.039314
v 0.538966 0.235532 -0.041409
v 0.556124 0.250499 -0.055321
v 0.527255 0.218549 -0.081203
v 0.513864 0.201932 -0.144800
v 0.494636 0.194271 -0.067263
v 0.544324 0.231274 -0.109247
v 0.430205 0.147205 -0.096437
v 0.443706 0.150472 -0.157521
v 0.380159 0.095029 -0.192080
v 0.436966 0.139246 -0.267504
v 0.380029 0.089030 -0.270587
v 0.467252 0.166032 -0.196077
v 0.298871 0.017924 -0.411661
v 0.276026 0.001007 -0.383931
v 0.341208 0.054539 -0.431683
v 0.416461 0.123062 -0.360760
v 0.264297 -0.006256 -0.555412
v 0.293922 0.021519 -0.557312
v 0.274779 -0.001668 -0.479266
v 0.203885 -0.054117 -0.533202
v 0.198764 -0.058475 -0.495177
v 0.218188 -0.036380 -0.349754
v 0.171271 -0.076483 -0.535972
v 0.136639 -0.096294 -0.487856
v 0.188720 -0.061169 -0.431231
v 0.111861 -0.105890 -0.421481
v 0.189461 -0.049143 -0.314250
v 0.127304 -0.087856 -0.346460
v 0.048137 -0.128871 -0.349896
v 0.076548 -0.132832 -0.539861
v -0.023992 -0.185503 -0.540206
v 0.009542 -0.155831 -0.413822
v -0.094716 -0.202802 -0.436490
v -0.005569 -0.149569 -0.331020
v -0.144623 -0.198166 -0.313441
v 0.034912 -0.121252 -0.278672
v -0.008069 -0.139808 -0.281325
v -0.128374 -0.209716 -0.401059
v -0.167683 -0.231581 -0.452286
v -0.202855 -0.226355 -0.354934
v -0.253901 -0.260958 -0.475947
v -0.239739 -0.242916 -0.391073
v -0.272779 -0.240295 -0.342822
v -0.229922 -0.215869 -0.284243
v -0.185741 -0.200579 -0.271286
v -0.136901 -0.173535 -0.231778
v -0.198438 -0.187512 -0.216755
v -0.157156 -0.157251 -0.163542
v -0.210506 -0.169345 -0.154922
v -0.250806 -0.200939 -0.218431
v -0.279615 -0.180984 -0.143158
v -0.282438 -0.225407 -0.277768
v -0.313287 -0.208138 -0.203184
v -0.426321 -0.223724 -0.215990
v -0.336751 -0.153059 -0.043692
v -0.327197 -0.235050 -0.285985
v -0.385891 -0.233061 -0.255544
v -0.486324 -0.239543 -0.259516
v -0.379262 -0.243713 -0.296085
v -0.394825 -0.261815 -0.373447
v -0.345209 -0.251651 -0.343099
v -0.338014 -0.267658 -0.434068
v -0.296836 -0.254955 -0.393369
v -0.313427 -0.277055 -0.506387
v -0.422241 -0.278137 -0.433443
v -0.383692 -0.285787 -0.494724
v -0.447958 -0.290016 -0.485240
v -0.420215 -0.294956 -0.536470
v -0.359351 -0.289093 -0.536883
v -0.475919 -0.296924 -0.536379
v -0.277779 -0.274743 -0.537846
v -0.137883 -0.232369 -0.540503
v -0.222469 -0.257023 -0.513800
v -0.024869 -0.185044 -0.543736
v 0.183962 -0.066539 -0.551485
v 0.091648 -0.124075 -0.547688
v -0.560691 -0.299253 -0.536222
v -0.469436 -0.293708 -0.506632
v -0.515155 -0.298314 -0.520813
v -0.560526 -0.297628 -0.519229
v -0.558133 -0.289373 -0.478257
v -0.496117 -0.287628 -0.468319
v -0.479560 -0.271560 -0.387793
v -0.560573 -0.278838 -0.434391
v -0.560691 -0.222404 -0.519036
v -0.560691 -0.213933 -0.390214
v -0.560691 -0.211452 -0.352468
v -0.560676 -0.236632 -0.262526
v -0.549921 -0.255713 -0.326989
v -0.560691 -0.205631 -0.263943
v -0.486265 -0.209735 -0.261372
v -0.494028 -0.236662 -0.373598
v -0.441711 -0.172606 -0.157202
v -0.393945 -0.205653 -0.258337
v -0.397935 -0.228080 -0.376579
v -0.372097 -0.217519 -0.333135
v -0.425779 -0.240693 -0.416877
v -0.282968 -0.230011 -0.479211
v -0.377448 -0.250139 -0.504601
v -0.302639 -0.212001 -0.353107
v -0.302810 -0.186138 -0.224861
v -0.234156 -0.190487 -0.329679
v -0.215200 -0.159812 -0.236476
v -0.188863 -0.184411 -0.373443
v -0.141254 -0.174145 -0.418156
v -0.167466 -0.195289 -0.508240
v -0.072788 -0.139824 -0.371731
v -0.104689 -0.122611 -0.232159
v 0.004379 -0.076322 -0.222209
v -0.048453 -0.038658 -0.064359
v -0.154383 -0.080986 -0.079606
v -0.008010 -0.104263 -0.320814
v 0.037489 -0.088594 -0.361217
v 0.099637 -0.032975 -0.227027
v 0.083831 -0.068787 -0.401028
v -0.056049 -0.148923 -0.511251
v 0.064222 -0.085508 -0.490417
v 0.056864 -0.089448 -0.515205
v 0.168287 -0.022745 -0.471601
v 0.151173 -0.031045 -0.519038
v 0.233764 0.031468 -0.523156
v 0.250600 0.039163 -0.437558
v 0.142921 -0.029516 -0.343783
v 0.228822 0.028395 -0.311326
v 0.181494 0.022125 -0.180099
v 0.192637 0.007664 -0.279535
v 0.262600 0.051019 -0.341652
v 0.132789 0.032807 -0.082319
v 0.140396 0.063162 -0.017393
v 0.063574 0.003409 -0.074836
v 0.003992 0.045535 0.084023
v 0.005836 -0.037658 -0.114110
v -0.149367 0.280918 0.407158
v 0.148284 0.089516 0.045209
v -0.099299 -0.035901 -0.015484
v 0.078716 0.099357 0.139755
v -0.103809 0.013051 0.095679
v -0.245309 0.279393 0.383968
v -0.234535 -0.041226 0.099224
v -0.329437 0.278038 0.363352
v -0.274475 -0.047518 0.099692
v -0.234484 -0.103968 -0.046396
v -0.279590 -0.109958 -0.045795
v -0.337108 -0.117415 -0.045404
v -0.309476 -0.088870 0.016085
v -0.295076 -0.083644 0.028473
v -0.300463 -0.086689 0.018797
v -0.317640 -0.089251 0.018223
v -0.309476 -0.107807 -0.002490
v -0.333597 -0.107151 0.007480
v -0.322531 -0.107636 0.000101
v -0.323717 -0.085887 0.028721
v -0.343589 -0.105569 0.031548
v -0.340992 -0.106425 0.018522
v -0.340992 -0.104712 0.044575
v -0.376304 -0.063787 0.100618
v -0.322636 -0.084325 0.035781
v -0.333649 -0.103959 0.055493
v -0.317119 -0.080681 0.042341
v -0.319612 -0.083998 0.040289
v -0.314962 -0.083795 0.043390
v -0.320671 -0.104172 0.062839
v -0.333320 -0.109517 0.055598
v -0.308637 -0.101881 0.064005
v -0.375444 -0.094892 0.102372
v -0.401906 -0.127083 -0.044785
v -0.416406 -0.023715 0.256096
v -0.340971 -0.125626 0.021391
v -0.339468 -0.114440 0.046771
v -0.343064 -0.120169 0.034662
v -0.277127 -0.089389 0.080152
v -0.401047 -0.156224 -0.039868
v -0.375991 -0.006431 0.287858
v -0.383061 0.028556 0.353806
v -0.464618 0.036088 0.375400
v -0.306873 0.071497 0.410612
v -0.190305 0.040849 0.305838
v -0.227186 0.096911 0.429507
v -0.263922 -0.036242 0.184263
v -0.156289 -0.023266 0.157101
v -0.100247 -0.044008 0.076213
v -0.091504 0.028016 0.225934
v -0.205425 -0.076267 0.071492
v -0.276204 -0.138201 -0.031607
v -0.275733 -0.110970 0.031999
v -0.279245 -0.105234 0.045813
v -0.168665 -0.129846 -0.081878
v -0.070050 -0.082945 -0.040252
v -0.003789 -0.101863 -0.155451
v -0.006032 -0.049949 -0.015263
v -0.041425 -0.018793 0.089419
v 0.101399 0.063585 0.157473
v 0.077170 0.072023 0.197542
v 0.025685 0.072770 0.237785
v 0.049037 0.116375 0.311097
v 0.119278 0.111154 0.248714
v -0.008442 0.119816 0.353941
v -0.041376 0.168540 0.480121
v 0.031809 0.156865 0.412808
v -0.083650 0.129262 0.415764
v -0.124044 0.139130 0.453407
v -0.125650 0.283317 0.443639
v 0.044413 0.204479 0.506600
v 0.007626 0.284222 0.457387
v -0.304731 0.280252 0.397030
v 0.105754 0.288482 0.522189
v 0.144423 0.282361 0.429105
v 0.150027 0.282949 0.438045
v 0.217088 0.291524 0.568455
v 0.146308 0.281689 0.418883
v 0.110718 0.232206 0.527856
v 0.163586 0.236343 0.514397
v 0.131291 0.223730 0.498427
v 0.217063 0.265268 0.570159
v 0.203570 0.225766 0.457267
v 0.217081 0.214642 0.407202
v 0.208936 0.196893 0.377709
v 0.204173 0.211890 0.417064
v 0.196343 0.207756 0.412393
v 0.190955 0.216770 0.439571
v 0.190297 0.213372 0.419454
v 0.191918 0.212690 0.429549
v 0.185479 0.219404 0.450865
v 0.172985 0.234903 0.429609
v 0.172821 0.282375 0.429316
v 0.171134 0.281687 0.418847
v 0.171949 0.234540 0.424095
v 0.170633 0.235537 0.437649
v 0.168685 0.282851 0.436552
v 0.164003 0.235764 0.442709
v 0.172831 0.220426 0.461069
v 0.160919 0.218794 0.465154
v 0.146974 0.214193 0.463882
v 0.158507 0.235832 0.443740
v 0.145206 0.219027 0.463122
v 0.153033 0.235757 0.442598
v 0.160829 0.283124 0.440701
v 0.148414 0.235551 0.439459
v 0.145354 0.235248 0.434848
v 0.134289 0.218052 0.455766
v 0.127927 0.201900 0.447912
v 0.127006 0.216628 0.444715
v 0.138200 0.209600 0.459434
v 0.124095 0.206093 0.459149
v 0.092620 0.150789 0.359103
v 0.125233 0.194885 0.433100
v 0.124461 0.186207 0.414184
v 0.147696 0.188727 0.403548
v 0.128516 0.190468 0.420459
v 0.136391 0.188550 0.410233
v 0.145916 0.210955 0.400700
v 0.134775 0.211886 0.407921
v 0.127269 0.213291 0.418824
v 0.148618 0.234239 0.419511
v 0.145464 0.234539 0.424074
v 0.144318 0.234893 0.429461
v 0.124541 0.214956 0.431744
v 0.153300 0.234036 0.416427
v 0.155441 0.281262 0.412387
v 0.188414 0.278434 0.369382
v 0.164270 0.281321 0.413277
v 0.158796 0.233964 0.415331
v 0.164270 0.234034 0.416387
v 0.158995 0.210640 0.398254
v 0.172023 0.210989 0.400960
v 0.169606 0.194633 0.402663
v 0.156836 0.190589 0.401643
v 0.173361 0.188548 0.385181
v 0.181369 0.200680 0.409101
v 0.183014 0.211948 0.408403
v 0.189099 0.207132 0.418996
v 0.168889 0.234237 0.419475
v 0.180812 0.109672 0.192108
v 0.175232 0.077654 0.119019
v 0.243984 0.082412 0.048767
v 0.301764 0.128708 0.098727
v 0.148909 0.023927 0.003806
v 0.089066 0.018345 0.057275
v 0.039683 -0.050683 -0.062731
v 0.165700 -0.010198 -0.108366
v 0.046025 -0.085049 -0.166637
v 0.011659 -0.119110 -0.231959
v 0.076571 -0.093107 -0.241737
v 0.196365 -0.016392 -0.176063
v 0.224859 -0.010873 -0.216960
v 0.183033 -0.043293 -0.258399
v 0.277021 0.037413 -0.148947
v 0.209399 0.031306 -0.055380
v 0.265953 0.040796 -0.115455
v 0.344398 0.095566 -0.071013
v 0.310672 0.090274 -0.024923
v 0.355587 0.094194 -0.102328
v 0.365018 0.089916 -0.151041
v 0.412684 0.141152 -0.063570
v 0.314355 0.041773 -0.253743
v 0.297202 0.039609 -0.197014
v 0.226373 -0.019284 -0.261862
v 0.253267 -0.006755 -0.297038
v 0.093209 -0.097807 -0.300933
v -0.075442 -0.154298 -0.239317
v 0.328416 0.146122 0.115449
v -0.382946 0.051823 0.394433
v -0.385026 0.279087 0.379315
v -0.464633 0.277787 0.359532
v -0.455528 0.276280 0.336635
v -0.416675 0.006857 0.254823
v -0.275364 -0.105569 0.031548
v -0.286963 -0.102340 0.055255
v -0.296233 -0.084304 0.035648
v -0.297438 -0.079698 0.037910
v -0.299341 -0.083998 0.040289
v -0.303991 -0.079041 0.043077
v -0.303991 -0.083795 0.043390
v -0.297458 -0.101603 0.061848
v -0.309476 -0.083723 0.044479
v -0.309476 -0.078970 0.044166
v -0.277961 -0.106425 0.018522
v -0.279138 -0.117710 0.018103
v -0.285355 -0.107151 0.007480
v -0.296422 -0.107636 0.000101
v -0.286896 -0.123209 0.007906
v -0.297324 -0.127516 0.001760
v -0.306243 -0.129767 -0.000182
v -0.317800 -0.130987 0.000718
v -0.329595 -0.130404 0.006359
v -0.336268 -0.128538 0.013177
v -0.396994 -0.190810 -0.132127
v -0.420018 -0.149478 -0.102253
v -0.420016 -0.179678 -0.100262
v -0.442314 -0.203281 -0.156702
v 0.267212 0.063038 -0.525233
v 0.307244 0.218935 -0.535484
v 0.308905 0.104839 -0.510644
v 0.307244 0.105697 -0.528037
v 0.308905 0.220070 -0.518221
v 0.380229 0.219206 -0.531357
v 0.308905 0.286015 -0.522557
v 0.380229 0.285151 -0.535692
v 0.379786 0.218935 -0.535484
v 0.316728 0.288490 -0.485559
v 0.386869 0.287510 -0.499819
v 0.357305 0.152713 -0.483752
v 0.316739 0.106690 -0.473524
v 0.379249 0.297921 -0.502692
v 0.316643 0.296721 -0.520951
v 0.322934 0.298679 -0.491175
v 0.386869 0.174344 -0.492377
v 0.367032 0.154202 -0.439364
v 0.400893 0.181836 -0.457712
v 0.449190 0.222901 -0.475164
v 0.374237 0.166029 -0.532005
v 0.425821 0.218935 -0.535484
v 0.489446 0.220163 -0.516909
v 0.466985 0.216533 -0.570136
v 0.373917 0.296027 -0.531499
v -0.456919 0.218935 -0.535484
v -0.457054 0.152633 -0.464954
v -0.457054 0.223267 -0.469600
v -0.456907 0.148294 -0.530839
v -0.514481 0.217934 -0.550709
v -0.479155 0.218660 -0.539658
v -0.514482 0.284030 -0.555057
v -0.500868 0.223267 -0.469600
v -0.500868 0.289364 -0.473945
v -0.479155 0.284757 -0.544004
v -0.484641 0.295532 -0.539017
v -0.502179 0.299253 -0.482426
v -0.513176 0.294945 -0.547942
v -0.530758 0.298666 -0.491349
v -0.536249 0.288637 -0.484992
v -0.536249 0.222541 -0.480646
v -0.560611 0.151907 -0.476001
v -0.560611 0.222541 -0.480646
v -0.536249 0.151907 -0.476001
v -0.560611 0.147472 -0.543358
v -0.516955 0.147818 -0.538098
v -0.500868 0.152633 -0.464954
v -0.479612 0.148116 -0.533544
v -0.560691 0.098433 -0.540133
v -0.456919 -0.258067 -0.504118
v -0.478934 -0.261181 -0.503914
v -0.480322 -0.259702 -0.490584
v -0.281855 -0.232179 -0.505820
v 0.464503 0.235701 -0.020185
vn -0.0000 -0.0654 -0.9979
vn -0.0002 -0.0701 -0.9975
vn 0.6773 -0.7166 -0.1665
vn 0.6465 -0.7546 -0.1124
vn 0.7049 -0.6987 -0.1219
vn 0.7267 -0.6731 -0.1375
vn 0.0004 -0.0623 -0.9981
vn 0.7955 -0.5852 -0.1573
vn 0.7996 -0.5797 -0.1567
vn 0.7502 -0.6363 -0.1797
vn 0.7170 -0.6868 -0.1193
vn 0.7518 -0.6470 -0.1272
vn 0.7562 -0.6403 -0.1348
vn 0.7536 -0.6342 -0.1727
vn 0.6884 -0.7118 -0.1393
vn 0.6461 -0.7554 -0.1091
vn 0.6698 -0.7212 -0.1767
vn 0.5810 -0.8080 -0.0981
vn 0.5862 -0.8029 -0.1082
vn 0.5873 -0.7982 -0.1340
vn 0.6221 -0.7750 -0.1109
vn 0.6179 -0.7646 -0.1834
vn 0.6847 -0.6999 -0.2031
vn 0.6874 -0.6987 -0.1981
vn 0.4588 -0.8858 -0.0699
vn 0.6148 -0.7632 -0.1988
vn 0.6306 -0.7695 -0.1014
vn 0.5358 -0.8437 -0.0330
vn 0.5948 -0.8030 -0.0381
vn 0.4793 -0.8769 0.0373
vn 0.5894 -0.8063 -0.0502
vn 0.6478 -0.7573 -0.0830
vn 0.5874 -0.8076 -0.0520
vn 0.6281 -0.7779 -0.0153
vn 0.6179 -0.7859 -0.0238
vn 0.5987 -0.8010 0.0065
vn 0.5989 -0.8008 0.0053
vn 0.0078 0.9978 -0.0656
vn 0.5591 -0.8280 0.0436
vn 0.6344 -0.7720 0.0385
vn -0.0003 0.9978 -0.0658
vn 0.0007 0.9979 -0.0654
vn -0.0001 0.9978 -0.0656
vn -0.0002 0.9978 -0.0656
vn -0.4248 0.9053 0.0036
vn -0.5380 0.8430 0.0037
vn -0.5381 0.8429 0.0038
vn -0.4898 0.8663 -0.0985
vn -0.5517 0.8327 -0.0484
vn -0.6406 0.7635 -0.0815
vn -0.6791 0.7341 0.0012
vn -0.6480 0.7612 -0.0266
vn -0.5875 0.8030 -0.1000
vn -0.6833 0.7169 -0.1380
vn -0.6297 0.7761 -0.0330
vn -0.6682 0.7437 0.0212
vn -0.6981 0.7159 0.0152
vn -0.6359 0.7716 -0.0178
vn -0.5442 0.8280 -0.1350
vn -0.4771 0.8375 -0.2666
vn -0.4932 0.8256 -0.2740
vn -0.4266 0.8578 -0.2866
vn -0.4665 0.6219 -0.6289
vn -0.5350 0.5970 -0.5978
vn -0.3433 0.6760 -0.6521
vn -0.4306 0.7387 -0.5185
vn -0.4439 0.6510 -0.6157
vn -0.6201 0.4406 -0.6491
vn -0.5475 0.6466 -0.5312
vn -0.0000 0.9978 -0.0656
vn 0.6383 0.0503 0.7682
vn 0.6391 0.0498 0.7675
vn 0.6383 0.0502 0.7681
vn 0.5174 0.0564 0.8539
vn 0.4837 0.0575 0.8734
vn 0.5181 0.0558 0.8535
vn 0.4490 -0.8563 0.2552
vn 0.4671 -0.8513 0.2392
vn 0.4865 0.0547 0.8720
vn 0.4956 -0.8432 0.2082
vn 0.5552 -0.8006 0.2255
vn 0.5893 -0.7613 0.2704
vn 0.4773 -0.0711 0.8758
vn 0.4135 0.0614 0.9085
vn 0.4684 -0.8519 0.2342
vn 0.6409 -0.7287 0.2412
vn 0.5870 -0.7783 0.2228
vn 0.6153 -0.7786 0.1232
vn 0.6395 -0.7513 0.1631
vn 0.6601 -0.7356 0.1523
vn 0.6979 -0.7095 0.0974
vn 0.6899 -0.7199 0.0763
vn 0.6615 -0.7401 0.1212
vn 0.6961 -0.7108 0.1011
vn 0.6565 -0.7521 0.0583
vn 0.6159 -0.7843 0.0752
vn 0.6221 -0.7760 0.1041
vn 0.7496 -0.6582 0.0706
vn 0.6693 -0.7420 0.0390
vn 0.5869 -0.7970 0.1426
vn 0.5461 -0.8277 0.1292
vn 0.5639 -0.8219 0.0807
vn 0.5826 -0.8102 0.0644
vn 0.6241 -0.7754 0.0965
vn 0.6384 -0.7676 0.0576
vn 0.6007 -0.7983 0.0447
vn 0.6599 -0.7505 0.0362
vn 0.5873 -0.8087 0.0323
vn 0.6393 -0.7687 0.0172
vn 0.5960 -0.8028 0.0203
vn 0.6552 -0.7555 0.0039
vn 0.6225 -0.7818 0.0359
vn 0.6062 -0.7930 0.0596
vn 0.6614 -0.7500 0.0012
vn 0.6509 -0.7591 -0.0119
vn 0.6856 -0.7276 -0.0245
vn 0.7078 -0.7027 -0.0722
vn 0.7094 -0.6999 -0.0831
vn 0.6804 -0.7301 -0.0642
vn 0.6644 -0.7459 -0.0465
vn 0.6122 -0.7898 -0.0367
vn 0.6000 -0.7999 -0.0109
vn 0.6063 -0.7951 0.0144
vn 0.5966 -0.8024 0.0147
vn 0.5546 -0.8305 0.0521
vn 0.5629 -0.8250 0.0502
vn 0.5665 -0.8238 -0.0181
vn 0.5219 -0.8526 0.0246
vn 0.5234 -0.8508 0.0464
vn 0.5087 -0.8575 0.0769
vn 0.5080 -0.8588 0.0655
vn 0.4842 -0.8681 0.1090
vn 0.4993 -0.8612 0.0944
vn 0.4527 -0.8837 0.1193
vn 0.4426 -0.8902 0.1082
vn 0.4840 -0.8734 0.0544
vn 0.4630 -0.8841 0.0631
vn 0.4423 -0.8921 0.0921
vn 0.3816 -0.9139 0.1387
vn 0.3879 -0.9149 0.1119
vn 0.3989 -0.9061 0.1413
vn 0.3456 -0.9174 0.1976
vn 0.3450 -0.9201 0.1853
vn 0.4062 -0.8976 0.1714
vn 0.3783 -0.9045 0.1967
vn 0.3585 -0.9195 0.1611
vn 0.3372 -0.9312 0.1387
vn 0.3097 -0.9369 0.1622
vn 0.3204 -0.9297 0.1820
vn 0.2810 -0.9475 0.1524
vn 0.2880 -0.9302 0.2277
vn 0.2731 -0.9492 0.1562
vn 0.2255 -0.9522 0.2062
vn 0.2282 -0.9466 0.2278
vn 0.2550 -0.9375 0.2367
vn 0.2401 -0.9299 0.2787
vn 0.3081 -0.9185 0.2479
vn 0.2779 -0.9175 0.2846
vn 0.2582 -0.9121 0.3184
vn 0.2805 -0.9115 0.3008
vn 0.2262 -0.9217 0.3150
vn 0.2296 -0.9309 0.2840
vn 0.2106 -0.9220 0.3250
vn 0.1846 -0.9302 0.3172
vn 0.2047 -0.9385 0.2779
vn 0.1795 -0.9395 0.2918
vn 0.1405 -0.9293 0.3416
vn 0.0910 -0.9371 0.3370
vn 0.0940 -0.9432 0.3187
vn 0.1177 -0.9501 0.2890
vn 0.1522 -0.9472 0.2823
vn 0.0509 -0.9591 0.2784
vn 0.0519 -0.9638 0.2617
vn 0.1071 -0.9572 0.2690
vn 0.1128 -0.9631 0.2444
vn 0.0374 -0.9747 0.2205
vn 0.0686 -0.9744 0.2142
vn 0.0908 -0.9795 0.1795
vn 0.1507 -0.9663 0.2085
vn 0.1498 -0.9611 0.2321
vn 0.1218 -0.9758 0.1813
vn 0.1955 -0.9629 0.1862
vn 0.1966 -0.9652 0.1724
vn 0.1527 -0.9768 0.1504
vn 0.1683 -0.9686 0.1831
vn 0.1223 -0.9704 0.2081
vn 0.1503 -0.9726 0.1775
vn 0.1224 -0.9724 0.1984
vn 0.0858 -0.9862 0.1416
vn 0.0909 -0.9795 0.1795
vn 0.0959 -0.9865 0.1327
vn 0.1481 -0.9756 0.1620
vn 0.1733 -0.9769 0.1246
vn 0.0003 -0.0685 -0.9976
vn 0.0013 -0.0840 -0.9965
vn 0.0061 -0.0827 -0.9966
vn 0.2903 -0.9562 0.0368
vn 0.2577 -0.9594 0.1143
vn 0.1894 -0.9714 0.1433
vn -0.0003 -0.0651 -0.9979
vn -0.0000 -0.0656 -0.9978
vn -0.0009 -0.0629 -0.9980
vn -0.0004 -0.0645 -0.9979
vn 0.0008 -0.0671 -0.9977
vn 0.0031 -0.0715 -0.9974
vn 0.5084 -0.8610 0.0175
vn 0.5114 -0.8592 0.0144
vn 0.5220 -0.8452 -0.1147
vn 0.4584 -0.8827 -0.1032
vn 0.5936 -0.7979 -0.1048
vn 0.5681 -0.8207 -0.0614
vn 0.3725 -0.9039 -0.2101
vn 0.4528 -0.8628 -0.2247
vn 0.2852 -0.9484 0.1382
vn 0.3109 -0.9437 0.1134
vn 0.3782 -0.9198 0.1045
vn 0.3409 -0.9320 0.1235
vn 0.0274 -0.9994 -0.0202
vn 0.0716 -0.9932 0.0918
vn 0.0353 -0.9944 0.0998
vn 0.0416 -0.9819 0.1848
vn -0.0079 -0.9802 0.1979
vn -0.0117 -0.9954 0.0953
vn -0.0047 -0.9796 0.2011
vn 0.0081 -0.9867 0.1622
vn 0.0188 -0.9812 0.1919
vn -0.0277 -0.9792 0.2011
vn -0.0100 -0.9724 0.2330
vn -1.0000 -0.0022 -0.0001
vn -1.0000 -0.0019 0.0001
vn -1.0000 -0.0015 -0.0002
vn -0.2825 -0.9316 0.2286
vn -0.0352 -0.9763 0.2137
vn -0.3146 -0.9268 0.2051
vn -0.0488 -0.9599 0.2760
vn -0.0097 -0.9703 0.2417
vn -0.0379 0.0622 0.9973
vn -0.0320 0.0456 0.9984
vn -1.0000 -0.0005 -0.0000
vn -0.9224 0.0258 0.3853
vn -0.0936 0.9696 -0.2262
vn 0.2751 0.9304 -0.2423
vn 0.0572 0.9962 -0.0655
vn -0.0312 0.9456 -0.3237
vn -0.0373 0.9820 -0.1850
vn -0.0932 0.9788 -0.1825
vn -0.1248 0.9786 -0.1637
vn -0.0937 0.9668 -0.2378
vn -0.1601 0.9682 -0.1924
vn -0.1259 0.9791 -0.1595
vn -0.1549 0.9691 -0.1918
vn -0.1336 0.9714 -0.1961
vn -0.2336 0.9531 -0.1925
vn -0.2405 0.9549 -0.1739
vn -0.3084 0.9204 -0.2402
vn -0.3440 0.9104 -0.2297
vn -0.2803 0.9467 -0.1587
vn -0.3517 0.9218 -0.1628
vn -0.3214 0.9384 -0.1267
vn -0.3145 0.9409 -0.1258
vn -0.3030 0.9261 -0.2246
vn -0.3494 0.9169 -0.1929
vn -0.3655 0.9066 -0.2110
vn -0.3441 0.8808 -0.3253
vn -0.3058 0.8885 -0.3421
vn -0.2883 0.8958 -0.3383
vn -0.3511 0.9162 -0.1932
vn -0.4642 0.8658 -0.1870
vn -0.4100 0.9053 -0.1106
vn -0.4150 0.8923 -0.1776
vn -0.4845 0.8645 -0.1339
vn -0.4103 0.9055 -0.1083
vn -0.4424 0.8941 -0.0702
vn -0.4552 0.8874 -0.0730
vn -0.4661 0.8847 -0.0023
vn -0.5188 0.8547 0.0181
vn -0.5093 0.8592 -0.0490
vn -0.5249 0.8502 0.0406
vn -0.5993 0.7968 0.0768
vn -0.6134 0.7882 0.0498
vn -0.5919 0.8053 -0.0334
vn -0.5140 0.8559 -0.0567
vn -0.5414 0.8384 -0.0630
vn -0.5726 0.8095 -0.1299
vn -0.5221 0.8399 -0.1482
vn -0.6036 0.7766 -0.1806
vn -0.5400 0.8389 -0.0676
vn -0.5969 0.7994 -0.0685
vn -0.5743 0.8181 -0.0293
vn -0.6460 0.7630 -0.0201
vn -0.6429 0.7658 -0.0142
vn -0.4769 0.8606 -0.1786
vn -0.4643 0.8735 -0.1462
vn -0.4095 0.8622 -0.2982
vn -0.4458 0.8384 -0.3136
vn -0.4518 0.8273 -0.3339
vn -0.3980 0.8480 -0.3499
vn -0.4002 0.8654 -0.3017
vn -0.3833 0.8470 -0.3684
vn -0.3572 0.8609 -0.3623
vn -0.3566 0.8570 -0.3719
vn -0.4072 0.8618 -0.3025
vn -0.3069 0.8974 -0.3169
vn -0.4074 0.8616 -0.3027
vn -0.1020 0.7804 -0.6169
vn -0.2830 0.7063 -0.6488
vn -0.3585 0.8639 -0.3537
vn -0.3546 0.8769 -0.3245
vn -0.3184 0.8684 -0.3802
vn -0.3040 0.8673 -0.3943
vn 0.1410 0.7607 -0.6336
vn -0.2819 0.6318 -0.7221
vn -0.3624 0.8475 -0.3879
vn -0.1060 0.6149 -0.7814
vn 0.1693 0.6576 -0.7341
vn -0.1477 0.9083 -0.3914
vn -0.3931 0.8444 -0.3639
vn -0.3244 0.8821 -0.3415
vn -0.1270 0.9186 -0.3743
vn -0.1264 0.9132 -0.3875
vn -0.3671 0.8903 -0.2694
vn -0.1217 0.9189 -0.3752
vn -0.1219 0.9209 -0.3703
vn -0.2727 0.8876 -0.3713
vn -0.1422 0.9139 -0.3801
vn -0.1123 0.9227 -0.3687
vn 0.0488 0.9446 -0.3245
vn 0.1275 -0.7132 0.6892
vn 0.2145 -0.6840 0.6973
vn -0.1272 0.9208 -0.3687
vn 0.4715 -0.7232 0.5046
vn 0.3750 -0.6994 0.6084
vn 0.6941 -0.7140 -0.0914
vn 0.7047 -0.6849 0.1855
vn 0.5741 -0.6966 0.4303
vn 0.7495 -0.6613 0.0315
vn -0.1191 0.9212 -0.3703
vn 0.0944 0.9689 -0.2288
vn 0.6099 -0.7052 -0.3616
vn 0.6122 -0.7043 -0.3595
vn -0.1300 0.9092 -0.3956
vn 0.8057 -0.2841 -0.5197
vn 0.5490 0.1007 -0.8298
vn 0.4250 -0.6844 -0.5924
vn 0.3384 -0.7091 -0.6185
vn 0.1446 -0.8998 0.4116
vn 0.4927 0.0127 -0.8701
vn 0.2002 -0.7052 -0.6802
vn 0.1341 -0.9072 0.3987
vn 0.1439 -0.8987 0.4144
vn -0.9842 0.0008 0.1768
vn -0.9834 -0.0170 0.1806
vn -0.9700 -0.0403 -0.2398
vn 0.0475 -0.9015 0.4301
vn 0.1064 -0.9138 0.3921
vn 0.0682 -0.9205 0.3846
vn 0.1078 -0.9134 0.3926
vn 0.1385 -0.9028 0.4070
vn 0.1173 -0.9107 0.3961
vn 0.1463 -0.8927 0.4262
vn 0.0228 -0.8900 0.4553
vn 0.1353 -0.8692 0.4756
vn 0.0436 -0.8806 0.4719
vn 0.1695 -0.8724 0.4584
vn 0.1792 -0.8749 0.4500
vn 0.1799 -0.8764 0.4468
vn 0.1634 -0.8869 0.4320
vn 0.2138 -0.8784 0.4275
vn 0.2129 -0.8809 0.4227
vn 0.2522 -0.8809 0.4006
vn 0.2618 -0.8756 0.4059
vn 0.2341 -0.8722 0.4295
vn 0.2123 -0.8807 0.4234
vn 0.2277 -0.8958 0.3818
vn 0.2432 -0.8961 0.3713
vn 0.2017 -0.8854 0.4189
vn 0.2115 -0.8924 0.3987
vn 0.2567 -0.8916 0.3730
vn 0.2826 -0.8967 0.3407
vn 0.2598 -0.9039 0.3399
vn 0.2359 -0.9049 0.3542
vn 0.2685 -0.8905 0.3673
vn 0.3261 -0.8848 0.3329
vn 0.3063 -0.8954 0.3232
vn 0.3095 -0.8777 0.3659
vn 0.2943 -0.8808 0.3708
vn 0.3213 -0.8686 0.3772
vn 0.3260 -0.8703 0.3692
vn 0.2995 -0.8665 0.3993
vn 0.2829 -0.8707 0.4023
vn 0.2904 -0.8674 0.4040
vn 0.3055 -0.8609 0.4069
vn 0.3037 -0.8583 0.4138
vn 0.2675 -0.8632 0.4282
vn 0.2837 -0.8569 0.4304
vn 0.2174 -0.8901 0.4005
vn 0.2283 -0.8867 0.4020
vn 0.2405 -0.8871 0.3939
vn 0.2592 -0.8566 0.4462
vn 0.1787 -0.8877 0.4244
vn 0.2504 -0.8585 0.4475
vn 0.2369 -0.8563 0.4589
vn 0.2365 -0.8471 0.4758
vn -0.3263 0.0603 0.9433
vn -0.2496 0.0627 0.9663
vn -0.2491 0.0624 0.9665
vn -0.2524 0.0654 0.9654
vn -0.3221 0.0598 0.9448
vn -0.3194 0.0659 0.9453
vn -0.3295 0.0658 0.9419
vn -0.3844 0.0589 0.9213
vn -0.3850 0.0601 0.9209
vn 0.2339 -0.8785 0.4165
vn 0.1572 -0.9302 0.3317
vn 0.1678 -0.9099 0.3794
vn 1.0000 -0.0009 0.0004
vn 0.2989 -0.9113 0.2832
vn 0.1878 -0.9339 0.3043
vn 0.4523 -0.8138 0.3649
vn 0.5267 -0.7847 0.3268
vn 1.0000 -0.0001 -0.0000
vn 1.0000 -0.0008 -0.0002
vn 0.4141 -0.8585 0.3025
vn 0.2072 -0.9238 0.3220
vn 0.2652 -0.8982 0.3505
vn 0.2508 -0.8941 0.3711
vn -0.7400 -0.6589 0.1355
vn -0.8745 -0.4727 0.1085
vn 0.5543 -0.7510 0.3590
vn 0.2122 -0.9239 0.3184
vn -0.6604 -0.7361 -0.1486
vn -0.7235 -0.6665 0.1798
vn -0.9872 -0.0024 0.1593
vn -0.9598 -0.0050 -0.2805
vn -0.9828 0.0035 0.1844
vn -0.6696 -0.7297 -0.1385
vn -0.8685 -0.0472 -0.4934
vn -0.6071 -0.0434 -0.7934
vn -0.4334 -0.7753 -0.4595
vn -0.3886 -0.7904 -0.4735
vn 0.2017 -0.9178 0.3420
vn 0.1999 -0.9288 0.3119
vn 0.2341 -0.9197 0.3151
vn -0.1009 -0.7869 -0.6088
vn 0.2039 -0.9256 0.3188
vn 0.2614 -0.8934 0.3653
vn 0.1258 -0.1090 -0.9860
vn -0.1239 -0.7832 -0.6092
vn 0.1411 -0.7669 -0.6261
vn 0.0678 -0.7858 -0.6147
vn 0.5629 -0.0438 -0.8253
vn 0.2392 -0.0782 -0.9678
vn 0.3727 -0.7838 -0.4968
vn 0.2046 -0.0728 -0.9761
vn 0.8337 -0.0448 -0.5504
vn 0.5647 -0.7586 -0.3249
vn 0.3984 -0.7765 -0.4882
vn 0.8370 -0.0656 -0.5432
vn 0.7313 0.0430 -0.6807
vn 0.5967 -0.7454 -0.2972
vn 0.5621 -0.0963 -0.8214
vn 0.2130 -0.8894 0.4045
vn 0.4433 0.0212 -0.8961
vn 0.2024 -0.8529 0.4813
vn 0.2664 -0.8766 0.4008
vn 0.2612 -0.8744 0.4088
vn 0.2986 -0.8719 0.3880
vn 0.1733 -0.9019 0.3956
vn 0.2944 -0.8731 0.3885
vn 0.2444 -0.9005 0.3596
vn 0.2340 -0.9022 0.3623
vn 0.3306 -0.7750 0.5386
vn 0.2781 -0.8730 0.4006
vn 0.3155 -0.8673 0.3850
vn 0.3012 -0.8680 0.3947
vn 0.5015 0.1494 0.8522
vn 0.5470 0.1200 0.8285
vn 0.7974 0.1139 0.5926
vn 0.8258 0.0851 0.5575
vn 0.3973 -0.6042 0.6908
vn 0.5971 -0.6331 0.4926
vn 0.6203 -0.6279 0.4700
vn 0.9782 0.0054 0.2078
vn 0.7201 -0.6653 0.1970
vn 0.8232 0.0476 0.5658
vn 0.9834 -0.0008 0.1814
vn 0.9820 -0.0036 -0.1886
vn 0.6869 -0.7218 -0.0846
vn 0.7068 -0.7061 -0.0433
vn 0.7034 -0.6708 0.2350
vn 0.9817 0.0203 -0.1892
vn 0.9818 0.0211 -0.1886
vn 0.9785 0.0473 0.2005
vn 0.4224 -0.5988 0.6805
vn 0.5510 0.0463 0.8332
vn 0.5804 0.0390 0.8134
vn -0.1005 0.0547 0.9934
vn 0.1959 0.0748 0.9778
vn 0.1515 -0.5831 0.7982
vn -0.1898 0.0644 0.9797
vn -0.1464 -0.5852 0.7976
vn -0.1500 -0.5843 0.7975
vn -0.2050 0.1313 0.9699
vn 0.1351 -0.5871 0.7982
vn 0.1852 0.1443 0.9720
vn -0.1346 0.1792 0.9746
vn 0.2542 -0.8951 0.3662
vn 0.2589 -0.8920 0.3705
vn 0.1749 0.1389 0.9747
vn 0.2972 -0.8801 0.3702
vn 0.2861 -0.8799 0.3794
vn 0.2795 -0.8733 0.3991
vn 0.2865 -0.8778 0.3839
vn 0.4036 -0.9077 0.1152
vn -0.5376 0.1655 0.8268
vn -0.5637 0.1327 0.8153
vn -0.8249 0.1541 0.5439
vn 0.3520 -0.8857 0.3026
vn 0.3887 -0.8540 0.3459
vn -0.9704 0.1741 0.1675
vn -0.8359 0.1213 0.5353
vn -0.6299 -0.6269 0.4584
vn -0.6072 -0.6319 0.4816
vn -0.4115 -0.6011 0.6851
vn -0.4272 -0.5978 0.6783
vn -0.5566 0.0545 0.8290
vn -0.8342 0.0467 0.5494
vn -0.6310 0.0401 0.7748
vn -0.1653 0.9019 -0.3990
vn -0.9411 0.3373 -0.0222
vn 0.9712 0.0694 0.2280
vn 0.2607 -0.8810 0.3949
vn 0.2746 -0.8820 0.3830
vn 0.2864 -0.8777 0.3843
vn 0.8477 -0.0476 -0.5283
vn -0.4677 -0.0687 -0.8812
vn -0.1847 -0.0540 -0.9813
vn 0.3141 -0.8767 0.3644
vn 0.3741 -0.8599 0.3474
vn 0.3745 -0.8599 0.3469
vn 0.3325 -0.8614 0.3840
vn 0.3494 -0.8677 0.3534
vn 0.3746 -0.8594 0.3479
vn 0.3838 -0.8674 0.3168
vn 0.3983 -0.8551 0.3318
vn 0.3980 -0.8663 0.3018
vn 0.3692 -0.8717 0.3222
vn 0.3480 -0.8698 0.3499
vn 0.3701 -0.8629 0.3441
vn 0.3819 -0.8603 0.3377
vn 0.3309 -0.8832 0.3324
vn 0.3660 -0.8766 0.3123
vn 0.3931 -0.8617 0.3210
vn 0.3513 -0.8677 0.3518
vn 0.3908 -0.8665 0.3104
vn 0.4141 -0.8701 0.2672
vn 0.3924 -0.8839 0.2544
vn 0.3622 -0.8909 0.2740
vn 0.4144 -0.8715 0.2621
vn 0.4633 -0.8618 0.2065
vn 0.4871 -0.8438 0.2255
vn 0.4412 -0.8717 0.2133
vn 0.4802 -0.8426 0.2438
vn 0.4565 -0.8432 0.2840
vn 0.4468 -0.8475 0.2867
vn 0.4611 -0.8545 0.2393
vn 0.4779 -0.8534 0.2082
vn 0.4251 -0.8660 0.2633
vn 0.4704 -0.8489 0.2412
vn 0.5603 -0.8086 0.1795
vn 0.5645 -0.8114 0.1515
vn 0.5077 -0.8441 0.1724
vn 0.5242 -0.8218 0.2233
vn 0.5398 -0.8309 0.1347
vn 0.4957 -0.8433 0.2077
vn 0.5261 -0.8230 0.2141
vn 0.5637 -0.8192 0.1059
vn 0.5328 -0.8363 0.1292
vn 0.5076 -0.8437 0.1746
vn 0.5961 -0.7937 0.1210
vn 0.5279 -0.8292 0.1838
vn 0.5310 -0.8295 0.1733
vn 0.5562 -0.8197 0.1369
vn 0.4877 -0.8550 0.1766
vn 0.5567 -0.8199 0.1336
vn 0.5197 -0.8464 0.1162
vn 0.4883 -0.8603 0.1463
vn 0.5368 -0.8361 0.1126
vn 0.5730 -0.8159 0.0772
vn 0.5842 -0.8076 0.0809
vn 0.5782 -0.8116 0.0839
vn 0.4864 -0.8341 0.2601
vn 0.4504 -0.8429 0.2944
vn 0.4280 -0.8539 0.2962
vn 0.4168 -0.8631 0.2851
vn 0.4941 -0.8303 0.2578
vn 0.3953 -0.8697 0.2955
vn 0.4179 -0.8499 0.3211
vn 0.4678 -0.8718 0.1452
vn 0.4405 -0.8767 0.1934
vn 0.4590 -0.8753 0.1524
vn 0.4239 -0.8889 0.1738
vn 0.4502 -0.8811 0.1446
vn 0.4280 -0.8835 0.1905
vn 0.3918 -0.8893 0.2358
vn 0.3407 -0.9001 0.2717
vn 0.3458 -0.9066 0.2419
vn 0.3741 -0.8991 0.2275
vn 0.3374 -0.9138 0.2259
vn 0.3169 -0.9159 0.2463
vn 0.3181 -0.9019 0.2921
vn 0.3824 -0.8738 0.3004
vn 0.4108 -0.8749 0.2564
vn 0.2734 -0.9384 0.2111
vn 0.2615 -0.9417 0.2118
vn -0.2238 0.0656 0.9724
vn -0.2159 0.0628 0.9744
vn -0.2379 0.0623 0.9693
vn -0.2417 0.0636 0.9683
vn 0.1599 0.5877 -0.7931
vn -0.9295 -0.0242 -0.3680
vn -0.9309 -0.0236 -0.3644
vn -0.9725 -0.0731 -0.2211
vn -0.9309 -0.0234 -0.3645
vn -0.9693 -0.0187 -0.2452
vn 0.0513 -0.8667 0.4962
vn 0.1180 -0.8618 0.4933
vn -0.5332 0.6738 -0.5115
vn 0.1340 0.8692 -0.4759
vn 0.2403 -0.8782 0.4135
vn 0.3342 -0.8610 0.3834
vn 0.3090 -0.9003 0.3066
vn 0.1587 -0.9002 0.4056
vn -0.9637 0.0438 -0.2632
vn -0.7192 -0.6711 -0.1799
vn -0.6521 -0.6860 -0.3228
vn -0.9704 -0.1694 -0.1721
vn -0.8278 0.0574 -0.5581
vn -0.7193 -0.6716 -0.1777
vn -0.6091 -0.7059 -0.3614
vn -0.6214 -0.1506 -0.7689
vn -0.5557 -0.0548 -0.8296
vn -0.4035 -0.7257 -0.5573
vn -0.4015 -0.7262 -0.5580
vn 0.1112 -0.8793 0.4632
vn 0.1850 -0.8999 0.3950
vn -0.1409 -0.7369 -0.6611
vn -0.1119 -0.7301 -0.6741
vn 0.1439 -0.7216 -0.6772
vn -0.1951 -0.0646 -0.9786
vn 0.1936 -0.1902 -0.9625
vn 0.2452 -0.0639 -0.9674
vn -0.0930 0.8903 -0.4457
vn -0.0784 0.8878 -0.4534
vn -0.2153 0.8966 -0.3870
vn -0.1484 0.8986 -0.4129
vn -0.9784 0.0826 0.1896
vn -0.7432 -0.6415 0.1903
vn -0.8311 0.0662 0.5522
vn -0.9765 0.0947 0.1934
vn -0.6082 -0.6537 0.4503
vn -0.5332 -0.6754 0.5094
vn -0.4007 -0.6519 0.6438
vn -0.5554 0.0753 0.8281
vn -0.8160 0.0934 0.5704
vn -0.5341 0.0943 0.8401
vn 0.1414 -0.9123 0.3844
vn 0.1487 -0.9105 0.3857
vn 0.1463 -0.9115 0.3845
vn -0.2288 0.0684 0.9711
vn -0.1950 0.0904 0.9766
vn 0.1468 -0.9112 0.3849
vn 0.1269 -0.9088 0.3975
vn 0.0652 0.1138 0.9914
vn 0.1951 0.0654 0.9786
vn 0.4332 0.1114 0.8944
vn 0.1422 -0.9092 0.3912
vn 0.5556 0.0556 0.8296
vn 0.7241 0.0917 0.6836
vn 0.1451 -0.9090 0.3907
vn 0.8709 0.0220 0.4909
vn 0.1201 -0.9120 0.3922
vn -0.1314 -0.6942 0.7077
vn -0.0600 -0.6711 0.7389
vn 0.2151 -0.8984 0.3830
vn 0.2126 -0.9145 0.3442
vn 0.1569 -0.9237 0.3495
vn 0.0352 -0.9353 0.3522
vn 0.0669 -0.9333 0.3528
vn -0.9559 0.0212 0.2930
vn -0.9560 0.0192 0.2928
vn 0.0572 -0.9289 0.3658
vn -0.9332 0.0242 0.3586
vn -0.9332 0.0236 0.3585
vn -0.9221 0.0244 0.3861
vn 0.0107 -0.9444 0.3285
vn 0.0721 -0.9368 0.3425
vn -0.0839 0.9298 -0.3582
vn -0.1012 0.9225 -0.3726
vn -0.1428 0.9366 -0.3200
vn 0.0973 -0.9376 0.3340
vn 0.9788 0.0757 0.1901
vn 0.9889 0.0230 0.1465
vn 0.9808 -0.0064 -0.1951
vn 0.9453 0.0765 -0.3170
vn 0.8103 0.0369 -0.5849
vn 0.8297 0.0040 -0.5582
vn 0.8305 0.0832 0.5507
vn -0.1403 0.9166 -0.3743
vn -0.1475 0.8998 -0.4106
vn -0.1054 0.6151 -0.7814
vn -0.5532 0.6822 -0.4781
vn -0.3004 0.8823 -0.3623
vn -0.4363 0.7303 -0.5257
vn -0.3880 0.8659 -0.3156
vn -0.4033 0.8701 -0.2835
vn -0.4499 0.8819 -0.1407
vn -0.6825 0.7276 0.0688
vn -0.6705 0.7382 0.0740
vn -0.0000 0.0656 0.9978
vn -0.7229 0.6817 0.1126
vn -0.7220 0.6843 0.1027
vn -0.9954 0.0063 0.0954
vn -0.1815 -0.0645 -0.9813
vn -0.9785 0.0135 0.2060
vn 0.1889 0.3873 0.9024
vn 0.1997 0.0643 0.9778
vn 0.2247 0.0801 0.9711
vn 0.1739 0.0651 0.9826
vn -0.9785 0.0136 0.2058
vn 0.1901 0.3826 0.9042
vn -0.8126 0.5672 0.1339
vn -0.8118 0.5684 0.1341
vn -0.5691 0.8165 0.0973
vn -0.6061 0.7919 0.0741
vn 0.9834 -0.0119 -0.1812
vn 0.9537 -0.1040 -0.2822
vn -0.6271 0.7742 0.0864
vn -0.6200 0.7839 0.0331
vn -0.6907 0.6881 0.2224
vn 0.9890 -0.1102 -0.0988
vn 0.0007 0.9977 -0.0683
vn 0.0001 0.9976 -0.0690
vn -0.0000 -0.0664 -0.9978
vn 0.7572 -0.5904 -0.2793
vn 0.0002 0.9979 -0.0655
vn 0.7199 -0.6467 -0.2519
vn 0.6890 -0.6801 -0.2507
vn 0.6951 -0.6982 -0.1710
vn -0.6092 0.7792 0.1477
vn -0.6077 0.7911 0.0700
vn -0.6480 0.7595 0.0569
vn -0.5386 0.8425 0.0036
vn -0.7278 0.6720 0.1369
vn -0.7210 0.6842 0.1098
vn -0.7277 0.6791 0.0965
vn 0.8166 0.5461 -0.1871
vn -0.1715 0.2662 -0.9485
vn 0.8166 0.5460 -0.1871
vn -0.6906 0.7148 0.1101
vn -0.0000 0.0657 0.9978
vn -0.0002 0.0658 0.9978
vn 0.0007 0.0651 0.9979
vn 0.0001 0.0656 0.9978
vn -0.0005 0.0656 0.9978
vn 0.0001 0.0657 0.9978
vn -0.0003 0.0654 0.9979
vn 1.0000 0.0001 0.0020
vn 1.0000 0.0003 0.0022
vn 0.2992 -0.0626 -0.9521
vn 0.9554 0.0194 0.2948
vn 0.2477 0.5080 -0.8250
vn 0.9041 0.3409 0.2578
vn 0.2476 0.5081 -0.8250
vn -0.9039 0.3042 -0.3008
vn -0.2472 0.6117 0.7515
vn -0.9552 -0.0194 -0.2955
vn -0.2986 0.0626 0.9523
vn -0.0000 -0.9978 0.0657
vn -0.1204 0.0650 0.9906
vn -0.1213 0.0667 0.9904
vn -0.1200 0.0651 0.9906
vn -0.1401 0.9824 -0.1235
vn -0.0337 0.3007 0.9531
vn -0.0994 0.9937 -0.0519
vn 0.3508 0.9257 -0.1412
vn 0.4373 0.8974 -0.0590
vn 0.4361 0.8983 -0.0542
vn -0.1139 0.9791 -0.1682
vn -0.0695 0.9772 -0.2006
vn -1.0000 -0.0000 -0.0000
vn -1.0000 0.0022 0.0087
vn -1.0000 -0.0011 0.0001
vn -1.0000 0.0001 0.0009
vn -0.3845 0.9173 -0.1034
vn -0.3871 0.9159 -0.1062
vn -0.3115 0.8920 -0.3275
vn 0.0010 0.0622 0.9981
vn -0.3074 0.9473 -0.0901
vn -0.1850 0.9788 -0.0875
vn -0.0751 0.9368 -0.3416
vn -0.1367 0.9714 -0.1940
vn 0.3359 0.9399 -0.0618
vn -0.9999 -0.0022 0.0099
vn 0.0476 -0.9785 0.2008
vn 0.0697 -0.9670 0.2450
vn 0.0725 -0.9703 0.2308
vn 0.0489 -0.9913 0.1221
vn 0.1615 -0.9565 0.2429
vn 0.2026 -0.9476 0.2469
vn 0.7171 -0.6903 -0.0961
vn 0.6639 -0.7473 -0.0294
vn 0.6860 -0.7230 -0.0816
vn 0.6390 -0.7692 -0.0070
vn 0.6161 -0.7876 0.0075
vn 0.6634 -0.7478 0.0245
vn 0.0757 0.9952 -0.0625
vn 0.5913 -0.7917 0.1534
vn -0.0001 0.9978 -0.0658
vn -0.1475 0.9014 -0.4070
vn -0.3258 0.8130 -0.4825
vn -0.2382 0.8232 -0.5154
vn -0.2788 0.9574 -0.0747
vn -0.5706 0.8164 -0.0893
vn -0.5353 0.8368 -0.1146
vn -0.6299 0.7765 0.0128
vn 0.0001 0.9978 -0.0659
vn 0.6625 -0.7461 -0.0663
vn 0.6159 -0.7680 -0.1758
vn -0.0001 -0.0663 -0.9978
s 0
usemtl Material.027
f 2//1 3//1 1//1
f 6//2 2//2 1//2
f 1//3 3//3 4//3
f 4//4 5//4 1//4
f 6//5 1//5 5//5
f 9//6 6//6 5//6
f 6//7 7//7 2//7
f 8//8 7//8 6//8
f 6//9 9//9 8//9
f 9//10 5//10 8//10
f 10//11 8//11 12//11
f 10//12 11//12 8//12
f 11//13 7//13 8//13
f 8//14 5//14 12//14
f 12//15 13//15 10//15
f 12//16 14//16 13//16
f 12//17 5//17 14//17
f 15//18 13//18 14//18
f 16//19 15//19 14//19
f 14//20 5//20 16//20
f 15//21 16//21 19//21
f 17//22 16//22 5//22
f 16//23 17//23 18//23
f 18//24 19//24 16//24
f 21//25 19//25 20//25
f 19//26 18//26 20//26
f 19//27 21//27 15//27
f 22//28 21//28 23//28
f 21//29 22//29 24//29
f 20//30 23//30 21//30
f 24//31 15//31 21//31
f 25//32 13//32 24//32
f 15//33 24//33 13//33
f 26//34 25//34 24//34
f 27//35 26//35 24//35
f 27//36 24//36 28//36
f 22//37 28//37 24//37
f 28//38 23//38 20//38
f 23//39 28//39 22//39
f 27//40 28//40 29//40
f 30//41 29//41 28//41
f 20//42 30//42 28//42
f 20//43 33//43 30//43
f 34//44 30//44 31//44
f 35//45 31//45 30//45
f 36//46 30//46 32//46
f 33//47 32//47 30//47
f 34//44 29//44 30//44
f 30//48 36//48 35//48
f 37//49 35//49 36//49
f 36//50 39//50 37//50
f 39//51 36//51 38//51
f 32//52 38//52 36//52
f 39//53 44//53 37//53
f 44//54 39//54 40//54
f 39//55 42//55 40//55
f 43//56 39//56 38//56
f 39//57 43//57 41//57
f 42//58 39//58 41//58
f 40//59 45//59 44//59
f 45//60 46//60 44//60
f 46//61 37//61 44//61
f 46//62 45//62 47//62
f 47//63 48//63 46//63
f 37//64 46//64 48//64
f 49//65 48//65 52//65
f 48//66 49//66 37//66
f 48//67 50//67 52//67
f 50//68 48//68 51//68
f 48//69 47//69 51//69
f 52//70 50//70 53//70
f 49//70 52//70 54//70
f 53//70 54//70 52//70
f 54//70 58//70 49//70
f 54//71 53//71 57//71
f 55//72 56//72 54//72
f 54//73 57//73 55//73
f 58//74 54//74 56//74
f 58//70 59//70 49//70
f 60//70 59//70 58//70
f 60//75 58//75 61//75
f 56//76 61//76 58//76
f 62//77 61//77 56//77
f 62//78 63//78 61//78
f 61//79 63//79 60//79
f 63//80 66//80 64//80
f 64//81 65//81 63//81
f 65//82 67//82 63//82
f 63//83 67//83 34//83
f 34//84 60//84 63//84
f 63//85 62//85 66//85
f 65//86 68//86 67//86
f 67//87 68//87 34//87
f 68//88 70//88 34//88
f 68//89 65//89 69//89
f 69//90 70//90 68//90
f 71//91 70//91 72//91
f 70//92 71//92 34//92
f 72//93 70//93 69//93
f 72//94 75//94 71//94
f 75//95 72//95 73//95
f 72//96 74//96 73//96
f 72//97 69//97 74//97
f 29//98 71//98 75//98
f 29//99 75//99 73//99
f 64//100 74//100 69//100
f 64//101 76//101 74//101
f 74//102 76//102 77//102
f 73//103 74//103 77//103
f 78//104 77//104 76//104
f 77//105 78//105 80//105
f 77//106 79//106 81//106
f 80//107 79//107 77//107
f 77//108 81//108 73//108
f 26//109 81//109 79//109
f 73//110 81//110 26//110
f 80//111 82//111 84//111
f 83//112 82//112 80//112
f 80//113 78//113 83//113
f 84//114 79//114 80//114
f 84//115 82//115 88//115
f 79//116 84//116 85//116
f 84//117 10//117 85//117
f 87//118 10//118 84//118
f 86//119 87//119 84//119
f 88//120 86//120 84//120
f 89//121 86//121 88//121
f 89//122 88//122 90//122
f 88//123 82//123 83//123
f 83//124 90//124 88//124
f 91//125 94//125 90//125
f 83//126 91//126 90//126
f 92//127 89//127 90//127
f 93//128 92//128 90//128
f 94//129 93//129 90//129
f 95//130 94//130 91//130
f 95//131 93//131 94//131
f 97//132 95//132 96//132
f 91//133 96//133 95//133
f 97//134 98//134 95//134
f 98//135 101//135 95//135
f 93//136 95//136 99//136
f 99//137 95//137 100//137
f 100//138 95//138 101//138
f 101//139 103//139 102//139
f 102//140 100//140 101//140
f 103//141 101//141 98//141
f 104//142 103//142 106//142
f 104//143 107//143 103//143
f 105//144 103//144 98//144
f 106//145 103//145 105//145
f 107//146 102//146 103//146
f 107//147 108//147 102//147
f 108//148 107//148 109//148
f 104//149 109//149 107//149
f 109//150 110//150 108//150
f 109//151 104//151 114//151
f 109//152 111//152 110//152
f 112//153 111//153 109//153
f 113//154 112//154 109//154
f 113//155 109//155 114//155
f 116//156 113//156 114//156
f 104//157 115//157 114//157
f 114//158 115//158 116//158
f 116//159 117//159 118//159
f 115//160 117//160 116//160
f 118//161 119//161 116//161
f 119//162 113//162 116//162
f 119//163 118//163 120//163
f 120//164 122//164 119//164
f 121//165 113//165 119//165
f 121//166 119//166 122//166
f 120//167 124//167 122//167
f 124//168 123//168 122//168
f 122//169 123//169 126//169
f 125//170 122//170 126//170
f 122//171 125//171 121//171
f 123//172 127//172 126//172
f 128//173 126//173 127//173
f 128//174 125//174 126//174
f 125//175 128//175 130//175
f 128//176 127//176 129//176
f 128//177 129//177 130//177
f 129//178 131//178 130//178
f 112//179 130//179 132//179
f 125//180 130//180 112//180
f 132//181 130//181 131//181
f 132//182 111//182 112//182
f 110//183 111//183 132//183
f 132//184 131//184 110//184
f 131//185 133//185 110//185
f 131//186 129//186 134//186
f 135//187 133//187 131//187
f 135//188 131//188 134//188
f 135//189 136//189 137//189
f 136//190 135//190 134//190
f 137//191 138//191 135//191
f 135//192 138//192 133//192
f 140//193 133//193 138//193
f 140//194 138//194 139//194
f 138//195 137//195 139//195
f 140//196 143//196 141//196
f 141//197 142//197 140//197
f 142//198 110//198 140//198
f 133//199 140//199 110//199
f 87//200 140//200 11//200
f 2//201 11//201 140//201
f 139//201 2//201 140//201
f 140//202 145//202 143//202
f 86//203 144//203 140//203
f 140//204 144//204 145//204
f 140//205 87//205 86//205
f 145//206 93//206 99//206
f 93//207 145//207 92//207
f 144//208 92//208 145//208
f 145//209 99//209 143//209
f 89//210 144//210 86//210
f 89//211 92//211 144//211
f 100//212 141//212 143//212
f 143//213 99//213 100//213
f 142//214 108//214 110//214
f 141//215 108//215 142//215
f 102//216 141//216 100//216
f 141//217 102//217 108//217
f 148//218 146//218 139//218
f 146//201 2//201 139//201
f 148//219 139//219 147//219
f 137//220 147//220 139//220
f 151//221 148//221 147//221
f 150//222 149//222 148//222
f 149//223 146//223 148//223
f 151//224 150//224 148//224
f 136//225 151//225 147//225
f 151//226 136//226 152//226
f 152//227 153//227 151//227
f 150//228 151//228 153//228
f 153//229 154//229 149//229
f 155//230 154//230 153//230
f 156//230 155//230 153//230
f 153//231 157//231 156//231
f 153//232 158//232 157//232
f 153//233 152//233 158//233
f 150//234 153//234 149//234
f 158//235 127//235 157//235
f 127//236 158//236 152//236
f 127//237 160//237 157//237
f 160//238 159//238 157//238
f 156//239 157//239 159//239
f 162//240 160//240 127//240
f 164//241 161//241 160//241
f 160//242 161//242 156//242
f 156//243 159//243 160//243
f 163//244 160//244 162//244
f 163//245 164//245 160//245
f 164//246 163//246 165//246
f 169//247 164//247 165//247
f 161//248 164//248 166//248
f 164//249 168//249 166//249
f 164//250 169//250 167//250
f 168//251 164//251 167//251
f 165//252 170//252 169//252
f 170//253 171//253 169//253
f 171//254 167//254 169//254
f 171//255 170//255 172//255
f 172//256 173//256 171//256
f 167//257 171//257 173//257
f 173//258 176//258 174//258
f 175//259 173//259 174//259
f 173//260 175//260 167//260
f 173//261 172//261 177//261
f 176//262 173//262 177//262
f 181//263 177//263 178//263
f 179//264 178//264 177//264
f 180//265 179//265 177//265
f 180//266 177//266 172//266
f 177//267 181//267 176//267
f 178//268 182//268 181//268
f 182//269 176//269 181//269
f 182//270 178//270 183//270
f 183//271 184//271 182//271
f 176//272 182//272 185//272
f 186//273 182//273 184//273
f 182//274 186//274 185//274
f 186//275 187//275 185//275
f 188//276 187//276 186//276
f 184//277 188//277 186//277
f 187//278 188//278 189//278
f 188//279 190//279 189//279
f 191//280 190//280 188//280
f 193//281 191//281 188//281
f 188//282 184//282 192//282
f 192//283 193//283 188//283
f 42//284 193//284 45//284
f 193//285 194//285 45//285
f 194//286 193//286 195//286
f 193//287 192//287 195//287
f 193//288 42//288 196//288
f 191//289 193//289 196//289
f 41//290 196//290 42//290
f 196//291 41//291 191//291
f 195//292 183//292 194//292
f 183//293 195//293 192//293
f 183//294 197//294 194//294
f 197//295 45//295 194//295
f 45//296 197//296 198//296
f 199//297 198//297 197//297
f 197//298 183//298 199//298
f 198//299 199//299 200//299
f 199//300 179//300 200//300
f 179//301 199//301 201//301
f 183//302 201//302 199//302
f 178//303 179//303 201//303
f 201//304 183//304 178//304
f 205//305 200//305 202//305
f 200//306 206//306 202//306
f 203//307 200//307 205//307
f 200//308 203//308 198//308
f 204//309 200//309 179//309
f 200//310 204//310 206//310
f 207//311 202//311 206//311
f 207//312 206//312 208//312
f 204//313 208//313 206//313
f 209//314 208//314 210//314
f 209//315 207//315 208//315
f 211//316 210//316 208//316
f 180//317 211//317 208//317
f 208//318 204//318 180//318
f 170//319 212//319 211//319
f 210//320 211//320 212//320
f 180//321 170//321 211//321
f 212//322 170//322 213//322
f 217//323 212//323 213//323
f 212//324 215//324 210//324
f 214//325 212//325 217//325
f 212//326 214//326 216//326
f 212//327 216//327 215//327
f 217//328 220//328 218//328
f 218//329 214//329 217//329
f 217//330 213//330 221//330
f 219//331 217//331 221//331
f 217//332 219//332 220//332
f 224//333 222//333 221//333
f 222//334 223//334 221//334
f 221//335 223//335 219//335
f 221//336 226//336 224//336
f 225//337 221//337 213//337
f 226//338 221//338 225//338
f 227//339 224//339 226//339
f 226//340 229//340 227//340
f 228//341 226//341 225//341
f 228//342 229//342 226//342
f 230//343 229//343 228//343
f 229//344 230//344 231//344
f 231//345 227//345 229//345
f 234//346 232//346 231//346
f 231//347 232//347 227//347
f 233//348 231//348 230//348
f 231//349 233//349 234//349
f 234//350 233//350 240//350
f 235//351 241//351 234//351
f 234//352 225//352 235//352
f 236//353 225//353 234//353
f 242//354 236//354 234//354
f 234//355 124//355 237//355
f 234//356 241//356 124//356
f 234//357 237//357 239//357
f 234//358 238//358 232//358
f 234//359 239//359 238//359
f 240//360 242//360 234//360
f 242//361 244//361 236//361
f 245//362 243//362 242//362
f 242//363 243//363 244//363
f 247//364 245//364 242//364
f 246//365 247//365 242//365
f 242//366 248//366 246//366
f 242//367 240//367 248//367
f 249//368 246//368 248//368
f 248//369 240//369 249//369
f 250//370 249//370 252//370
f 251//371 249//371 250//371
f 249//372 251//372 246//372
f 249//373 240//373 252//373
f 252//374 254//374 253//374
f 256//375 252//375 253//375
f 252//376 255//376 254//376
f 255//377 252//377 240//377
f 252//378 256//378 250//378
f 256//379 117//379 257//379
f 118//380 117//380 256//380
f 256//381 253//381 118//381
f 257//382 250//382 256//382
f 257//383 258//383 259//383
f 258//384 257//384 117//384
f 259//385 260//385 257//385
f 257//386 260//386 250//386
f 262//387 260//387 261//387
f 260//388 259//388 261//388
f 263//389 260//389 262//389
f 260//390 251//390 250//390
f 263//391 251//391 260//391
f 263//392 262//392 265//392
f 265//393 264//393 263//393
f 264//394 266//394 263//394
f 251//395 263//395 266//395
f 266//396 267//396 269//396
f 266//397 268//397 267//397
f 266//398 264//398 268//398
f 251//399 266//399 269//399
f 269//400 267//400 270//400
f 251//401 269//401 246//401
f 246//402 269//402 247//402
f 247//403 269//403 270//403
f 270//404 267//404 271//404
f 247//405 270//405 271//405
f 245//406 247//406 271//406
f 271//407 274//407 245//407
f 272//408 275//408 271//408
f 271//409 267//409 272//409
f 275//70 273//70 271//70
f 273//70 202//70 271//70
f 202//70 207//70 271//70
f 271//70 207//70 274//70
f 272//410 280//410 275//410
f 279//70 275//70 276//70
f 276//70 275//70 277//70
f 278//70 277//70 275//70
f 278//411 275//411 280//411
f 273//70 275//70 279//70
f 278//412 280//412 283//412
f 282//413 280//413 272//413
f 283//414 280//414 281//414
f 282//415 281//415 280//415
f 285//416 278//416 283//416
f 284//417 285//417 283//417
f 284//418 283//418 281//418
f 286//419 285//419 287//419
f 286//420 57//420 285//420
f 53//421 278//421 285//421
f 285//422 57//422 53//422
f 285//423 284//423 287//423
f 289//424 287//424 284//424
f 288//425 287//425 289//425
f 288//426 286//426 287//426
f 289//427 293//427 290//427
f 291//428 289//428 290//428
f 288//429 289//429 291//429
f 292//430 289//430 284//430
f 289//431 292//431 293//431
f 293//432 296//432 290//432
f 295//433 293//433 294//433
f 297//434 294//434 293//434
f 293//435 295//435 296//435
f 292//436 297//436 293//436
f 298//437 294//437 297//437
f 299//438 298//438 297//438
f 292//439 300//439 297//439
f 300//440 299//440 297//440
f 292//441 284//441 300//441
f 284//442 281//442 300//442
f 301//443 300//443 281//443
f 299//444 300//444 301//444
f 281//445 282//445 301//445
f 302//446 301//446 282//446
f 301//447 302//447 304//447
f 301//448 303//448 299//448
f 305//449 303//449 301//449
f 301//450 304//450 305//450
f 305//451 307//451 277//451
f 306//452 305//452 277//452
f 307//453 305//453 304//453
f 305//454 306//454 303//454
f 308//455 277//455 307//455
f 308//456 307//456 309//456
f 304//457 309//457 307//457
f 310//458 311//458 309//458
f 312//459 310//459 309//459
f 309//460 311//460 308//460
f 309//461 304//461 312//461
f 310//462 312//462 313//462
f 312//463 304//463 302//463
f 313//464 312//464 302//464
f 314//465 313//465 268//465
f 268//466 313//466 272//466
f 314//467 316//467 313//467
f 315//468 310//468 313//468
f 313//469 316//469 315//469
f 313//470 302//470 282//470
f 313//471 282//471 272//471
f 317//472 319//472 316//472
f 314//473 317//473 316//473
f 318//474 315//474 316//474
f 319//475 318//475 316//475
f 317//476 320//476 319//476
f 319//477 320//477 321//477
f 319//478 321//478 318//478
f 318//479 321//479 322//479
f 323//480 321//480 320//480
f 324//481 322//481 321//481
f 321//482 323//482 324//482
f 325//483 324//483 279//483
f 322//484 324//484 325//484
f 324//485 323//485 279//485
f 279//486 276//486 325//486
f 308//487 325//487 276//487
f 325//488 308//488 311//488
f 311//489 326//489 325//489
f 325//490 326//490 322//490
f 310//491 326//491 311//491
f 315//492 326//492 310//492
f 315//493 322//493 326//493
f 320//494 327//494 323//494
f 323//495 327//495 328//495
f 328//496 279//496 323//496
f 329//70 328//70 330//70
f 328//70 329//70 279//70
f 330//497 328//497 331//497
f 327//498 331//498 328//498
f 333//499 331//499 327//499
f 331//500 332//500 330//500
f 332//501 331//501 333//501
f 333//502 334//502 332//502
f 333//503 335//503 334//503
f 327//504 320//504 333//504
f 320//505 336//505 333//505
f 333//506 336//506 335//506
f 335//507 336//507 337//507
f 317//508 337//508 336//508
f 317//509 336//509 320//509
f 288//510 335//510 337//510
f 286//511 288//511 337//511
f 337//512 317//512 314//512
f 314//513 286//513 337//513
f 288//514 338//514 335//514
f 334//515 335//515 338//515
f 334//516 338//516 339//516
f 339//517 338//517 340//517
f 288//518 340//518 338//518
f 288//519 291//519 340//519
f 290//520 340//520 291//520
f 339//521 340//521 290//521
f 296//522 341//522 339//522
f 339//523 290//523 296//523
f 334//524 339//524 341//524
f 341//525 332//525 334//525
f 341//526 330//526 332//526
f 341//527 296//527 295//527
f 330//528 341//528 295//528
f 329//70 330//70 295//70
f 279//70 329//70 273//70
f 329//529 51//529 273//529
f 329//70 294//70 278//70
f 53//70 329//70 278//70
f 329//70 295//70 294//70
f 50//530 51//530 329//530
f 53//70 50//70 329//70
f 318//531 322//531 315//531
f 314//532 268//532 264//532
f 264//533 265//533 314//533
f 265//534 286//534 314//534
f 277//535 308//535 276//535
f 306//70 277//70 278//70
f 298//536 299//536 306//536
f 299//537 303//537 306//537
f 298//70 306//70 278//70
f 294//70 298//70 278//70
f 286//538 265//538 342//538
f 286//539 342//539 57//539
f 55//540 57//540 342//540
f 265//541 261//541 342//541
f 343//542 342//542 261//542
f 343//543 55//543 342//543
f 346//544 344//544 343//544
f 345//545 343//545 344//545
f 345//546 55//546 343//546
f 343//547 347//547 346//547
f 347//548 343//548 261//548
f 348//549 347//549 261//549
f 348//550 346//550 347//550
f 348//551 259//551 258//551
f 258//552 350//552 348//552
f 346//553 348//553 349//553
f 259//554 348//554 261//554
f 349//555 348//555 350//555
f 353//556 349//556 350//556
f 352//557 350//557 351//557
f 351//558 350//558 258//558
f 350//559 352//559 353//559
f 353//560 355//560 354//560
f 354//561 356//561 353//561
f 355//562 353//562 352//562
f 358//563 353//563 356//563
f 349//564 353//564 357//564
f 357//565 353//565 358//565
f 360//566 358//566 359//566
f 361//567 359//567 358//567
f 360//568 357//568 358//568
f 358//569 356//569 361//569
f 361//570 362//570 76//570
f 76//571 363//571 361//571
f 362//572 361//572 356//572
f 359//573 361//573 363//573
f 76//574 64//574 363//574
f 64//575 66//575 363//575
f 363//576 66//576 359//576
f 364//577 78//577 362//577
f 365//578 364//578 362//578
f 362//579 356//579 365//579
f 78//580 76//580 362//580
f 354//581 365//581 356//581
f 365//582 354//582 366//582
f 366//583 364//583 365//583
f 366//584 354//584 355//584
f 364//585 366//585 367//585
f 91//586 366//586 96//586
f 355//587 96//587 366//587
f 367//588 366//588 91//588
f 367//589 91//589 83//589
f 364//590 367//590 83//590
f 78//591 364//591 83//591
f 360//592 359//592 62//592
f 345//593 360//593 62//593
f 345//594 344//594 360//594
f 360//595 344//595 357//595
f 62//596 359//596 66//596
f 344//597 346//597 357//597
f 346//598 349//598 357//598
f 96//599 355//599 97//599
f 355//600 352//600 368//600
f 368//601 97//601 355//601
f 105//602 98//602 368//602
f 98//603 97//603 368//603
f 368//604 352//604 105//604
f 105//605 352//605 351//605
f 351//606 258//606 369//606
f 106//607 351//607 369//607
f 351//608 106//608 105//608
f 104//609 106//609 369//609
f 104//610 369//610 115//610
f 258//611 115//611 369//611
f 370//612 55//612 345//612
f 345//613 62//613 370//613
f 55//614 370//614 56//614
f 56//615 370//615 62//615
f 371//616 245//616 274//616
f 274//617 372//617 371//617
f 274//70 209//70 372//70
f 207//70 209//70 274//70
f 244//618 371//618 372//618
f 209//70 374//70 372//70
f 372//619 373//619 244//619
f 372//70 374//70 373//70
f 374//620 209//620 225//620
f 244//621 373//621 374//621
f 244//622 374//622 375//622
f 375//623 374//623 225//623
f 375//624 236//624 244//624
f 236//625 375//625 225//625
f 244//626 243//626 371//626
f 243//627 245//627 371//627
f 51//628 205//628 273//628
f 273//629 205//629 202//629
f 268//630 272//630 267//630
f 265//631 262//631 261//631
f 258//632 117//632 115//632
f 255//633 240//633 377//633
f 254//634 255//634 376//634
f 255//635 378//635 376//635
f 255//636 377//636 378//636
f 378//637 379//637 215//637
f 379//638 378//638 380//638
f 378//639 215//639 376//639
f 377//640 380//640 378//640
f 381//641 379//641 380//641
f 380//642 382//642 381//642
f 383//643 382//643 380//643
f 380//644 377//644 383//644
f 240//645 233//645 383//645
f 240//646 383//646 377//646
f 383//647 384//647 382//647
f 383//648 233//648 384//648
f 230//649 384//649 233//649
f 382//650 384//650 385//650
f 384//651 230//651 228//651
f 228//652 385//652 384//652
f 385//653 228//653 210//653
f 381//654 385//654 210//654
f 385//650 381//650 382//650
f 379//655 381//655 210//655
f 210//656 215//656 379//656
f 386//657 254//657 376//657
f 386//658 376//658 215//658
f 388//659 387//659 386//659
f 386//660 387//660 254//660
f 388//661 386//661 215//661
f 215//662 216//662 388//662
f 389//663 388//663 216//663
f 389//664 390//664 388//664
f 388//665 390//665 387//665
f 389//666 391//666 390//666
f 253//667 387//667 390//667
f 253//668 390//668 391//668
f 253//669 391//669 392//669
f 392//670 391//670 218//670
f 218//671 391//671 389//671
f 253//672 392//672 124//672
f 124//673 392//673 393//673
f 392//674 218//674 393//674
f 393//675 218//675 220//675
f 393//676 220//676 394//676
f 124//677 393//677 394//677
f 394//678 220//678 219//678
f 394//679 219//679 395//679
f 124//680 394//680 395//680
f 395//681 219//681 237//681
f 395//682 237//682 124//682
f 214//683 218//683 389//683
f 389//684 216//684 214//684
f 254//685 387//685 253//685
f 120//686 118//686 253//686
f 124//687 120//687 253//687
f 398//688 396//688 241//688
f 124//689 241//689 396//689
f 241//690 235//690 397//690
f 397//691 398//691 241//691
f 399//692 396//692 398//692
f 162//693 399//693 398//693
f 398//694 397//694 162//694
f 127//695 399//695 162//695
f 127//696 123//696 399//696
f 396//697 399//697 123//697
f 170//698 162//698 397//698
f 397//699 213//699 170//699
f 213//700 397//700 235//700
f 396//701 123//701 124//701
f 239//702 223//702 222//702
f 237//703 223//703 239//703
f 239//704 222//704 224//704
f 238//705 239//705 224//705
f 238//706 227//706 232//706
f 224//707 227//707 238//707
f 237//708 219//708 223//708
f 225//709 213//709 235//709
f 210//710 228//710 225//710
f 209//711 210//711 225//711
f 51//712 203//712 205//712
f 179//713 180//713 204//713
f 203//714 51//714 47//714
f 47//715 198//715 203//715
f 198//716 47//716 45//716
f 184//717 183//717 192//717
f 191//718 400//718 190//718
f 400//719 191//719 41//719
f 400//720 401//720 190//720
f 41//721 402//721 400//721
f 403//720 401//720 400//720
f 400//722 402//722 403//722
f 403//723 404//723 401//723
f 404//723 403//723 402//723
f 404//724 407//724 405//724
f 408//70 404//70 405//70
f 407//724 404//724 406//724
f 404//725 409//725 406//725
f 402//725 409//725 404//725
f 404//70 408//70 401//70
f 413//726 409//726 410//726
f 416//727 410//727 409//727
f 409//728 411//728 416//728
f 411//729 409//729 412//729
f 409//730 402//730 412//730
f 409//731 413//731 415//731
f 409//732 414//732 406//732
f 414//733 409//733 415//733
f 417//734 416//734 411//734
f 416//735 417//735 418//735
f 405//736 410//736 416//736
f 416//737 420//737 405//737
f 419//738 416//738 418//738
f 416//739 419//739 420//739
f 420//740 419//740 421//740
f 420//720 421//720 408//720
f 420//741 408//741 405//741
f 422//43 421//43 419//43
f 422//742 423//742 421//742
f 423//743 2//743 421//743
f 2//70 408//70 421//70
f 2//744 423//744 3//744
f 3//745 423//745 422//745
f 419//43 33//43 422//43
f 422//746 33//746 18//746
f 18//747 17//747 422//747
f 4//748 422//748 17//748
f 4//749 3//749 422//749
f 418//750 33//750 419//750
f 43//751 418//751 417//751
f 418//752 43//752 32//752
f 33//753 418//753 32//753
f 411//754 412//754 417//754
f 41//755 417//755 412//755
f 417//756 41//756 43//756
f 424//70 415//70 413//70
f 415//70 424//70 414//70
f 413//757 407//757 424//757
f 407//758 414//758 424//758
f 414//758 407//758 406//758
f 407//759 413//759 410//759
f 402//760 41//760 412//760
f 407//736 410//736 405//736
f 2//70 401//70 408//70
f 425//761 185//761 401//761
f 425//70 401//70 2//70
f 189//762 401//762 187//762
f 187//763 401//763 185//763
f 190//764 401//764 189//764
f 168//765 425//765 428//765
f 175//766 425//766 168//766
f 185//767 425//767 175//767
f 429//70 425//70 2//70
f 425//768 427//768 426//768
f 426//769 428//769 425//769
f 427//70 425//70 430//70
f 425//70 429//70 430//70
f 430//770 429//770 431//770
f 431//770 434//770 430//770
f 430//70 432//70 427//70
f 433//771 432//771 430//771
f 430//771 434//771 433//771
f 435//772 434//772 431//772
f 433//773 434//773 435//773
f 435//773 436//773 433//773
f 436//70 435//70 437//70
f 431//774 437//774 435//774
f 438//775 437//775 431//775
f 437//70 438//70 436//70
f 431//775 439//775 438//775
f 433//776 436//776 438//776
f 438//776 439//776 433//776
f 439//777 431//777 429//777
f 433//778 439//778 440//778
f 440//777 439//777 429//777
f 440//720 441//720 443//720
f 441//720 440//720 442//720
f 440//70 2//70 442//70
f 432//778 440//778 443//778
f 2//70 440//70 429//70
f 440//778 432//778 433//778
f 443//778 446//778 432//778
f 443//779 444//779 445//779
f 444//779 443//779 441//779
f 446//779 443//779 445//779
f 432//720 446//720 426//720
f 445//779 447//779 446//779
f 426//779 446//779 447//779
f 447//780 448//780 449//780
f 448//781 447//781 445//781
f 447//779 428//779 426//779
f 448//782 154//782 449//782
f 451//783 449//783 450//783
f 449//784 154//784 450//784
f 449//785 451//785 168//785
f 428//765 449//765 168//765
f 155//786 161//786 451//786
f 154//787 155//787 451//787
f 450//788 154//788 451//788
f 451//789 166//789 168//789
f 166//790 451//790 161//790
f 2//791 154//791 448//791
f 444//792 2//792 448//792
f 441//793 2//793 444//793
f 2//794 441//794 442//794
f 426//720 427//720 432//720
f 174//795 185//795 175//795
f 185//796 174//796 176//796
f 170//797 180//797 172//797
f 452//798 175//798 168//798
f 452//799 167//799 175//799
f 168//800 167//800 452//800
f 162//801 170//801 163//801
f 170//802 165//802 163//802
f 161//803 155//803 156//803
f 154//791 2//791 146//791
f 146//804 149//804 154//804
f 152//805 136//805 134//805
f 152//806 129//806 127//806
f 129//807 152//807 134//807
f 147//808 137//808 136//808
f 121//809 125//809 112//809
f 112//810 113//810 121//810
f 87//811 11//811 10//811
f 85//812 25//812 26//812
f 10//813 25//813 85//813
f 85//814 26//814 79//814
f 73//815 26//815 27//815
f 27//816 29//816 73//816
f 29//817 34//817 71//817
f 69//818 65//818 64//818
f 60//70 31//70 59//70
f 34//819 31//819 60//819
f 31//820 453//820 59//820
f 37//821 59//821 453//821
f 59//822 37//822 49//822
f 31//823 35//823 453//823
f 35//824 37//824 453//824
f 45//825 40//825 42//825
f 38//826 32//826 43//826
f 33//827 20//827 18//827
f 25//828 10//828 13//828
f 5//829 4//829 17//829
f 11//830 2//830 7//830
