# Blender 5.0.1
# www.blender.org
mtllib torso_y_link_visual_66.mtl
o i01.torso.full.068_visual.001
v 1.033414 0.082267 -0.536379
v 1.033414 0.078101 -0.536688
v 1.043484 0.076055 -0.509052
v 1.043484 0.080221 -0.508745
v -0.032001 0.041145 0.019141
v 1.017193 0.084142 -0.561693
v 0.995635 0.085663 -0.582250
v 1.017193 0.079975 -0.562000
v 1.019178 0.080056 -0.563101
v 0.995635 0.081497 -0.582557
v 1.035429 0.078178 -0.537739
v 1.045518 0.076129 -0.510051
v 1.045518 0.078212 -0.509898
v 1.035429 0.080262 -0.537584
v 1.019178 0.082140 -0.562946
v 1.046103 0.080674 -0.543150
v 1.056293 0.078604 -0.515187
v 1.059752 0.031620 -0.487841
v 1.059752 0.076382 -0.484528
v 1.046103 0.035959 -0.546460
v 1.056293 0.033889 -0.518495
v 1.041310 0.018736 -0.545218
v 1.054892 0.014582 -0.489102
v 1.051453 0.016675 -0.517382
v 1.022786 0.002007 -0.536722
v 1.032748 -0.000017 -0.509384
v 0.999778 -0.008822 -0.482626
v 1.036106 -0.002098 -0.481503
v 0.982215 -0.005258 -0.530774
v 0.896364 -0.001082 -0.587170
v 0.941929 -0.002329 -0.570340
v 1.006738 0.003861 -0.561768
v 0.976323 -0.019340 -0.340558
v 1.000708 -0.014830 -0.340225
v 0.976323 -0.014830 -0.340225
v 0.976323 -0.033254 -0.152608
v 1.000708 -0.019340 -0.340558
v -0.893789 -0.001055 -0.587539
v 0.901423 0.007321 -0.608498
v -0.927832 0.007207 -0.607278
v -0.979525 -0.004947 -0.534983
v -0.937624 -0.002144 -0.572835
v -0.999214 -0.008532 -0.486546
v -1.022870 0.002007 -0.536722
v -1.032833 -0.000017 -0.509384
v -1.036210 -0.002073 -0.481606
v -0.999868 -0.079871 0.477074
v -0.982298 -0.083436 0.525230
v -1.032833 -0.075102 0.504839
v 0.976323 -0.057646 0.176871
v -0.896449 -0.087611 0.581622
v -1.036211 -0.073046 0.477065
v -1.054977 -0.057676 0.486930
v -1.054976 0.014582 -0.489102
v -1.059831 0.031786 -0.490088
v -1.051538 0.016676 -0.517382
v -1.056377 0.033889 -0.518497
v -1.046187 0.080674 -0.543150
v -1.046187 0.035959 -0.546460
v -1.056376 0.078604 -0.515187
v -1.049655 0.076130 -0.481771
v -1.046234 0.078212 -0.509898
v -1.059831 0.076501 -0.486778
v -1.049655 0.004258 0.489049
v -1.059831 0.003910 0.493748
v -1.059832 -0.040805 0.490438
v -1.051538 -0.059770 0.515210
v -1.056377 -0.042908 0.518847
v -1.041395 -0.061830 0.543045
v -1.056377 0.001807 0.522158
v -1.046188 -0.044978 0.546810
v -1.025056 -0.063718 0.568542
v -1.029774 -0.046874 0.572426
v -1.046187 -0.000264 0.550120
v -1.019895 -0.001752 0.570225
v -1.036146 0.000126 0.544863
v -1.029773 -0.002160 0.575737
v -0.998296 -0.003276 0.590819
v -1.007958 -0.048414 0.593227
v -1.007958 -0.003699 0.596539
v -0.972432 -0.004398 0.605962
v -0.981836 -0.004832 0.611834
v -0.981836 -0.049547 0.608522
v -0.948351 -0.067091 0.614107
v -0.977338 -0.066378 0.604474
v -0.952715 -0.050263 0.618199
v -0.912492 -0.052325 0.620161
v -0.917835 -0.067241 0.616119
v -0.952715 -0.005548 0.621511
v -0.913233 -0.005255 0.617546
v -0.943600 -0.005107 0.615545
v -0.922050 -0.005698 0.623533
v 0.921963 -0.005698 0.623533
v -0.912472 -0.020553 0.622416
v -0.912472 -0.020873 0.626732
v -0.581697 -0.020553 0.622416
v -0.533121 -0.020553 0.622416
v -0.533121 -0.052330 0.620065
v -0.581697 -0.052330 0.620065
v -0.581697 -0.020873 0.626731
v -0.581697 -0.052650 0.624377
v -0.912472 -0.052650 0.624377
v 0.917733 -0.067241 0.616119
v -0.901508 -0.082440 0.603954
v 0.927743 -0.082373 0.602731
v 0.921973 -0.050413 0.620221
v -0.387163 -0.052330 0.620065
v 0.948266 -0.067091 0.614109
v 0.959868 -0.081593 0.592517
v 0.977253 -0.066378 0.604474
v 0.952630 -0.050263 0.618199
v 0.952630 -0.005548 0.621511
v 0.981750 -0.049547 0.608522
v 1.003256 -0.065251 0.589250
v 0.981750 -0.004832 0.611834
v 1.007873 -0.048414 0.593227
v 1.024971 -0.063718 0.568542
v 1.029688 -0.046874 0.572426
v 1.007873 -0.003700 0.596539
v 0.997578 -0.003276 0.590819
v 1.019177 -0.001752 0.570225
v 1.029688 -0.002160 0.575737
v 1.035429 0.000126 0.544863
v 1.046102 -0.000263 0.550123
v 1.046102 -0.044978 0.546812
v 1.041310 -0.061830 0.543045
v 1.051453 -0.059770 0.515210
v 1.056292 -0.042908 0.518847
v 1.059751 0.004124 0.491504
v 1.056292 0.001807 0.522158
v 1.059751 -0.040638 0.488192
v 1.059752 0.000332 0.015258
v 1.059752 0.006775 0.007817
v 1.056851 -0.016014 0.017277
v 1.054891 -0.057676 0.486930
v 1.059559 -0.006639 0.017817
v 1.031140 -0.000142 0.015557
v 1.031140 -0.007769 0.017965
v 1.031141 -0.019003 -0.016544
v 1.031140 -0.015858 0.017249
v 1.031140 -0.024020 0.011735
v 1.048308 -0.027682 0.005503
v 1.054840 -0.022647 0.012950
v 1.031137 -0.028481 0.001946
v 1.031140 -0.026325 -0.008749
v 1.047258 -0.027817 -0.004884
v 1.036125 -0.073046 0.477065
v 1.051029 -0.024056 -0.012023
v 1.055359 -0.018972 -0.016287
v 1.058173 -0.008695 -0.018591
v 1.059832 0.000298 -0.015705
v 1.031138 -0.006285 -0.018418
v 1.031140 0.002381 -0.013940
v 1.059752 0.007359 -0.007128
v 1.031140 0.007151 -0.007420
v 1.031140 0.008541 0.000492
v 1.059752 0.008469 0.000906
v 1.031140 0.006531 0.008303
v 1.032748 -0.075102 0.504839
v 1.000282 -0.079847 0.476740
v 0.979435 -0.083748 0.529445
v 1.022786 -0.077126 0.532182
v 0.976323 -0.071539 0.364530
v 1.000707 -0.071539 0.364530
v 1.000707 -0.057646 0.176871
v 1.000707 -0.067029 0.364864
v 0.976323 -0.067029 0.364864
v 1.000707 -0.053137 0.177205
v 0.976323 -0.053137 0.177205
v 1.000709 -0.033256 -0.152609
v 1.000707 -0.028745 -0.152273
v 0.976323 -0.028745 -0.152273
v 0.893701 -0.087638 0.581993
v 0.937526 -0.086551 0.567293
v 0.985409 -0.080486 0.577561
v 1.006737 -0.078980 0.557225
v 1.048942 0.004470 0.486828
v 1.045517 0.002176 0.517175
v 1.045517 0.000092 0.517023
v 1.048942 0.002386 0.486673
v 1.046902 0.073859 -0.478755
v 1.046902 0.002452 0.485790
v 1.048943 0.073929 -0.479695
v 1.048943 0.076012 -0.479543
v 1.046902 0.006619 0.486097
v 1.046902 0.078026 -0.478446
v 1.043483 0.000162 0.516082
v 1.035429 -0.001957 0.544709
v 1.043483 0.004328 0.516389
v 1.033413 -0.001884 0.543715
v 1.033413 0.002283 0.544024
v 1.017192 -0.003758 0.569028
v 1.019177 -0.003835 0.570071
v 0.997578 -0.005360 0.590667
v 0.995634 -0.005280 0.589586
v 0.971714 -0.006481 0.605809
v 0.971714 -0.004397 0.605965
v 0.942882 -0.005107 0.615545
v 0.912551 -0.005255 0.617547
v 0.942882 -0.007190 0.615390
v 0.969819 -0.006399 0.604702
v 0.941041 -0.007107 0.614264
v 0.905621 -0.007311 0.617015
v 0.941041 -0.002940 0.614573
v 0.910729 -0.003088 0.616570
v -0.911593 -0.007255 0.616261
v -0.913237 -0.007338 0.617392
v -0.943600 -0.007190 0.615390
v -0.941879 -0.007107 0.614264
v -0.972432 -0.006481 0.605809
v -0.970656 -0.006399 0.604702
v -0.998296 -0.005360 0.590667
v -0.996471 -0.005280 0.589584
v -1.019895 -0.003835 0.570071
v -1.018030 -0.003758 0.569028
v -1.036146 -0.001957 0.544709
v -1.046235 0.000092 0.517023
v -1.034251 -0.001884 0.543715
v -1.046235 0.002176 0.517175
v -1.044320 0.000162 0.516082
v -1.034251 0.002283 0.544024
v -1.018030 0.000409 0.569337
v -0.996471 -0.001113 0.589893
v -0.970656 -0.002232 0.605008
v -0.941879 -0.002940 0.614572
v -0.911591 -0.003088 0.616570
v -1.044320 0.004329 0.516389
v -1.047734 0.006407 0.488316
v -1.047734 0.002240 0.488007
v -1.049655 0.002175 0.488893
v -1.049655 0.074046 -0.481923
v -1.047733 0.073977 -0.480978
v -1.047733 0.078143 -0.480669
v -1.044320 0.076055 -0.509055
v -1.046234 0.076129 -0.510053
v -1.036146 0.078179 -0.537739
v -1.036146 0.080262 -0.537584
v -1.019894 0.082139 -0.562948
v -1.029773 0.082570 -0.568766
v -1.007958 0.084110 -0.589567
v -1.029773 0.037856 -0.572077
v -1.007958 0.039396 -0.592877
v -1.041395 0.018736 -0.545218
v -1.025056 0.020624 -0.570716
v -1.003340 0.022157 -0.591421
v -1.006822 0.003861 -0.561768
v -0.985493 0.005367 -0.582107
v -0.977338 0.023284 -0.606647
v -0.959953 0.006474 -0.597061
v -0.948351 0.023997 -0.616281
v -0.917837 0.024146 -0.618291
v -0.922058 0.041394 -0.619869
v -0.952715 0.041244 -0.617850
v -0.922057 0.086109 -0.616562
v -0.952715 0.085959 -0.614540
v -0.981835 0.040528 -0.608171
v -0.981835 0.085243 -0.604864
v -0.998295 0.083664 -0.583540
v -0.972431 0.084785 -0.598685
v -0.998295 0.081581 -0.583696
v -0.972431 0.082702 -0.598839
v -0.943599 0.085495 -0.608268
v -0.943599 0.083411 -0.608421
v -0.913247 0.085643 -0.610270
v 0.921983 0.086109 -0.616559
v 0.912540 0.085643 -0.610270
v -0.913248 0.083560 -0.610421
v 0.910755 0.083471 -0.609233
v -0.941878 0.083324 -0.607237
v 0.912535 0.083560 -0.610421
v -0.911592 0.083472 -0.609233
v -0.911584 0.087638 -0.608927
v -0.941878 0.087491 -0.606928
v -0.970656 0.086782 -0.597365
v -0.996471 0.085663 -0.582250
v -0.970656 0.082616 -0.597674
v -0.996471 0.081496 -0.582560
v -1.018029 0.084142 -0.561693
v -1.018029 0.079975 -0.562003
v -1.034250 0.082268 -0.536379
v -1.034250 0.078101 -0.536688
v -1.019894 0.080056 -0.563101
v -1.044320 0.080222 -0.508745
v 0.910762 0.087638 -0.608923
v 0.941042 0.087490 -0.606928
v 0.941042 0.083324 -0.607237
v 0.942883 0.083411 -0.608421
v 0.969820 0.082616 -0.597674
v 0.971715 0.082702 -0.598839
v 0.997579 0.081581 -0.583694
v 0.971715 0.084785 -0.598685
v 0.997579 0.083664 -0.583540
v 1.029689 0.082570 -0.568766
v 1.007874 0.084110 -0.589565
v 1.007874 0.039396 -0.592875
v 0.981752 0.085242 -0.604861
v 0.981751 0.040528 -0.608171
v 0.952631 0.041244 -0.617850
v 0.977253 0.023284 -0.606647
v 0.948267 0.023997 -0.616281
v 0.931397 0.007174 -0.606522
v 0.917759 0.024147 -0.618290
v 0.921973 0.041395 -0.619869
v -0.351543 0.039483 -0.619787
v 0.952631 0.085959 -0.614540
v 0.942883 0.085495 -0.608268
v -0.880389 0.039477 -0.619787
v -0.351543 0.071252 -0.617661
v -0.497439 0.039753 -0.623773
v -0.546376 0.039753 -0.623773
v -0.351543 0.039973 -0.626732
v -0.497439 0.039973 -0.626732
v -0.497439 0.071750 -0.624380
v -0.351543 0.071750 -0.624380
v -0.497439 0.071530 -0.621421
v -0.546376 0.071530 -0.621421
v -0.546376 0.039973 -0.626732
v -0.712081 0.071521 -0.621286
v -0.880389 0.071252 -0.617661
v -0.546376 0.071750 -0.624380
v -0.712081 0.071750 -0.624380
v -0.712081 0.039973 -0.626732
v -0.712081 0.039744 -0.623640
v -0.780335 0.071521 -0.621286
v -0.780335 0.039744 -0.623640
v -0.880389 0.039973 -0.626732
v -0.780335 0.039973 -0.626732
v -0.880389 0.071750 -0.624380
v -0.780335 0.071750 -0.624380
v 0.959868 0.006474 -0.597061
v 0.985409 0.005367 -0.582107
v 1.003256 0.022157 -0.591421
v 1.024972 0.020624 -0.570716
v 1.029689 0.037856 -0.572077
v 0.969820 0.086782 -0.597365
v 0.969819 -0.002232 0.605008
v 0.995634 -0.001113 0.589893
v 1.017192 0.000409 0.569337
v -0.387163 -0.020553 0.622416
v -0.387163 -0.052650 0.624377
v -0.387163 -0.020873 0.626729
v -0.533121 -0.020873 0.626731
v -0.533121 -0.052650 0.624377
v -0.931482 -0.082294 0.601977
v -0.959953 -0.081593 0.592517
v -0.985494 -0.080486 0.577561
v -0.942004 -0.086366 0.564797
v -1.003341 -0.065251 0.589248
v -1.006823 -0.078980 0.557225
v -1.022871 -0.077126 0.532182
vn 0.9399 0.0253 -0.3406
vn 0.8426 0.0398 -0.5370
vn 0.9399 0.0251 -0.3406
vn -0.0000 0.9973 0.0738
vn 0.6911 0.0531 -0.7208
vn 0.8426 0.0396 -0.5370
vn 0.0001 0.9973 0.0737
vn -0.9399 -0.0249 0.3406
vn -0.8426 -0.0399 0.5370
vn -0.9399 -0.0253 0.3406
vn -0.8426 -0.0398 0.5370
vn -0.0007 0.9974 0.0724
vn 0.9937 0.0083 -0.1115
vn 0.9937 0.0082 -0.1115
vn 0.9399 0.0252 -0.3406
vn 0.9563 -0.2633 -0.1274
vn 0.8967 -0.2745 -0.3471
vn 0.8967 -0.2746 -0.3471
vn 0.9514 -0.2762 -0.1361
vn 0.6276 -0.7671 -0.1331
vn 0.5756 -0.7729 -0.2670
vn 0.1840 -0.9783 -0.0952
vn 0.1564 -0.9792 -0.1295
vn 0.6275 -0.7672 -0.1328
vn -0.0000 -0.9973 -0.0738
vn 0.1185 -0.9741 -0.1928
vn 0.1498 -0.9743 -0.1681
vn -0.0000 -0.0736 0.9973
vn 1.0000 -0.0000 -0.0000
vn 0.0001 -0.9304 -0.3666
vn -0.0002 -0.9226 -0.3858
vn -0.0701 -0.9575 -0.2799
vn -0.1517 -0.9793 -0.1342
vn -0.1592 -0.9786 -0.1305
vn -0.1835 -0.9785 -0.0947
vn -0.1809 -0.9808 -0.0727
vn -0.1564 -0.9876 -0.0161
vn -0.1843 -0.9816 -0.0503
vn -0.1841 -0.9802 -0.0726
vn -0.6276 -0.7783 0.0187
vn -0.6501 -0.7578 -0.0561
vn -0.6276 -0.7671 -0.1331
vn -0.9514 -0.2763 -0.1361
vn -0.9619 -0.2726 -0.0202
vn -0.9927 0.0089 -0.1201
vn -0.9399 0.0252 -0.3406
vn -0.8967 -0.2746 -0.3471
vn -1.0000 -0.0000 -0.0000
vn -0.9514 -0.2933 0.0940
vn -0.9927 -0.0089 0.1201
vn -0.8967 -0.3227 0.3029
vn -0.9927 -0.0089 0.1200
vn -0.9399 -0.0252 0.3406
vn -0.8036 -0.3380 0.4899
vn -0.0000 0.9973 0.0739
vn -0.8427 -0.0398 0.5370
vn -0.6911 -0.0534 0.7208
vn -0.5063 -0.0637 0.8600
vn -0.3075 -0.2994 0.9032
vn -0.4883 -0.3253 0.8098
vn -0.3161 -0.0701 0.9461
vn -0.0596 -0.2411 0.9687
vn -0.0524 -0.0737 0.9959
vn -0.0649 -0.2517 0.9656
vn -0.0660 -0.0854 0.9942
vn -0.0000 -0.0750 0.9972
vn 0.0065 -0.0708 0.9975
vn -1.0000 0.0006 -0.0000
vn -0.0000 -0.0738 0.9973
vn -0.0000 -0.0739 0.9973
vn -0.0000 -0.9971 -0.0767
vn -0.0000 -0.9973 -0.0739
vn -1.0000 -0.0004 0.0047
vn 0.0003 -0.2616 0.9652
vn -0.0000 -0.2558 0.9667
vn -0.0000 -0.6249 0.7807
vn 0.0005 -0.6624 0.7491
vn 0.0535 -0.6416 0.7652
vn 0.0002 -0.2369 0.9715
vn 0.0648 -0.2517 0.9656
vn 0.2160 -0.7529 0.6217
vn 0.2258 -0.7482 0.6238
vn 0.3076 -0.2993 0.9032
vn 0.0649 -0.2516 0.9657
vn 0.3075 -0.2994 0.9032
vn 0.0660 -0.0737 0.9951
vn 0.3161 -0.0701 0.9461
vn 0.4882 -0.3253 0.8098
vn 0.4883 -0.3252 0.8098
vn 0.5063 -0.0637 0.8600
vn 0.6616 -0.3394 0.6687
vn 0.6911 -0.0534 0.7208
vn 0.8426 -0.0398 0.5370
vn 0.8036 -0.3380 0.4899
vn 0.8967 -0.3227 0.3029
vn 0.9399 -0.0252 0.3406
vn 0.9937 -0.0083 0.1115
vn 0.9526 -0.2919 0.0859
vn 0.9996 -0.0285 -0.0025
vn 0.9608 -0.2764 -0.0204
vn 0.9618 -0.2729 -0.0202
vn 0.9554 -0.2796 0.0955
vn -0.0041 -0.3445 -0.9388
vn -0.0076 0.0597 -0.9982
vn 0.0070 -0.3011 -0.9536
vn 0.0016 0.0882 -0.9961
vn 0.0043 0.5598 -0.8286
vn 0.0115 0.5439 -0.8391
vn 0.0435 0.9091 -0.4144
vn -0.0204 0.8365 -0.5477
vn 1.0000 -0.0006 -0.0001
vn 0.0433 0.9793 0.1975
vn 1.0000 0.0003 0.0004
vn -0.0448 0.9990 -0.0084
vn -0.0267 0.8902 0.4548
vn 0.6501 -0.7578 -0.0561
vn 0.6510 -0.7570 -0.0560
vn 0.6501 -0.7577 -0.0561
vn 0.6497 -0.7581 -0.0561
vn -0.0089 0.6470 0.7624
vn 0.7400 -0.6709 -0.0483
vn 0.0295 0.7286 0.6843
vn -0.0107 0.2215 0.9751
vn 0.9632 -0.2682 -0.0200
vn 0.9840 -0.1776 -0.0120
vn -0.0208 -0.3020 0.9531
vn 0.0193 0.1457 0.9891
vn 0.0213 -0.4590 0.8882
vn 1.0000 0.0001 -0.0008
vn -0.0170 -0.7720 0.6354
vn -0.0002 -0.8071 0.5905
vn 0.0054 -0.9849 0.1729
vn -0.0045 -0.9906 0.1369
vn 0.0010 -0.9713 -0.2380
vn 0.0040 -0.9684 -0.2492
vn 0.0051 -0.7360 -0.6770
vn -0.0047 -0.7559 -0.6546
vn 1.0000 -0.0001 -0.0000
vn 0.9999 0.0107 0.0005
vn 0.6276 -0.7783 0.0187
vn 0.1866 -0.9798 -0.0725
vn 0.1866 -0.9812 -0.0499
vn 0.2061 -0.9759 -0.0715
vn 0.1518 -0.9883 -0.0131
vn 0.1578 -0.9873 -0.0156
vn 0.1883 -0.9794 -0.0725
vn -0.0000 0.0740 -0.9973
vn 0.1885 -0.9794 -0.0725
vn -0.0001 -0.9973 -0.0738
vn -1.0000 -0.0005 -0.0000
vn -0.0000 0.0742 -0.9972
vn -0.0001 -0.9742 0.2256
vn 0.0002 -0.9693 0.2458
vn 0.0701 -0.9882 0.1358
vn 0.0669 -0.9886 0.1350
vn 0.1032 -0.9893 0.1030
vn 0.1143 -0.9920 0.0531
vn 0.3358 -0.7886 0.5151
vn 0.4333 -0.8103 0.3945
vn 0.1199 -0.9914 0.0523
vn 0.4334 -0.8103 0.3945
vn 0.5143 -0.8142 0.2693
vn 0.1496 -0.9885 0.0227
vn 0.5756 -0.8038 0.1502
vn 0.5144 -0.8142 0.2693
vn 0.6489 -0.7588 -0.0561
vn 0.9605 -0.2777 -0.0206
vn -0.0007 0.9972 0.0753
vn -0.9937 0.0082 -0.1115
vn -0.9399 0.0248 -0.3406
vn -0.0006 0.9972 0.0753
vn 0.0001 0.9973 0.0738
vn -0.0001 0.9973 0.0738
vn -1.0000 0.0001 -0.0000
vn -0.0008 0.9974 0.0724
vn -0.9937 -0.0082 0.1115
vn -0.9937 -0.0081 0.1115
vn 0.9937 -0.0082 0.1115
vn -0.0002 0.9973 0.0738
vn 0.9399 -0.0251 0.3406
vn -0.0002 0.9973 0.0737
vn 0.9399 -0.0253 0.3406
vn -0.0001 0.9973 0.0737
vn -0.8426 0.0395 -0.5370
vn -0.6911 0.0528 -0.7209
vn -0.6911 0.0532 -0.7208
vn -0.5063 0.0642 -0.8600
vn -0.5063 0.0630 -0.8600
vn -0.3161 0.0706 -0.9461
vn -0.0660 0.0742 -0.9951
vn -0.0000 0.9973 0.0740
vn -0.0415 0.3793 -0.9243
vn 0.0656 0.0256 0.9975
vn 0.0776 -0.0737 0.9943
vn -0.0004 0.1052 0.9945
vn -0.0002 0.2512 -0.9679
vn 0.0660 0.0742 -0.9951
vn 0.0659 0.0737 -0.9951
vn -0.0000 0.9973 0.0741
vn -0.0001 0.9973 0.0740
vn 0.3161 0.0693 -0.9462
vn 0.3162 0.0706 -0.9461
vn -0.0001 0.9973 0.0739
vn 0.5063 0.0630 -0.8601
vn 0.6911 0.0528 -0.7209
vn 0.8426 0.0395 -0.5370
vn 0.0002 0.9973 0.0738
vn 0.9399 0.0248 -0.3406
vn 0.0002 0.9973 0.0737
vn 0.9927 0.0087 -0.1201
vn -0.5063 -0.0638 0.8600
vn -0.6911 -0.0535 0.7208
vn -0.3161 -0.0695 0.9462
vn -0.5064 -0.0632 0.8600
vn -0.0660 -0.0733 0.9951
vn -0.3161 -0.0697 0.9462
vn -0.0660 -0.0737 0.9951
vn -0.9399 -0.0251 0.3406
vn -0.9927 -0.0088 0.1201
vn -0.9927 0.0089 -0.1200
vn 0.9927 -0.0089 0.1200
vn 0.8427 -0.0398 0.5370
vn -0.8427 0.0398 -0.5370
vn -0.8426 0.0398 -0.5370
vn -0.6911 0.0534 -0.7208
vn -0.8036 -0.2622 -0.5343
vn -0.6615 -0.2373 -0.7114
vn -0.5143 -0.7657 -0.3863
vn -0.5144 -0.7657 -0.3863
vn -0.4334 -0.7434 -0.5095
vn -0.4334 -0.7433 -0.5095
vn -0.1199 -0.9729 -0.1977
vn -0.1496 -0.9744 -0.1680
vn -0.1143 -0.9734 -0.1986
vn -0.3358 -0.7041 -0.6257
vn -0.1032 -0.9634 -0.2476
vn -0.2160 -0.6531 -0.7258
vn -0.2258 -0.6482 -0.7273
vn -0.0669 -0.9579 -0.2791
vn -0.3076 -0.1631 -0.9374
vn -0.0535 -0.5219 -0.8513
vn -0.0648 -0.1067 -0.9922
vn -0.0659 0.0736 -0.9951
vn -0.0660 0.0737 -0.9951
vn -0.3162 0.0700 -0.9461
vn -0.3161 0.0700 -0.9461
vn -0.4882 -0.2025 -0.8489
vn -0.5063 0.0636 -0.8600
vn -0.4883 -0.2024 -0.8489
vn -0.5063 0.0637 -0.8600
vn 0.5063 -0.0634 0.8600
vn 0.5063 -0.0645 0.8599
vn 0.3162 -0.0697 0.9461
vn 0.0660 -0.0733 0.9951
vn 0.0659 -0.0725 0.9952
vn -0.0000 -0.0726 0.9974
vn -0.0000 0.9973 0.0737
vn -0.0659 0.0738 -0.9951
vn -0.0000 0.0733 -0.9973
vn -0.0660 0.0732 -0.9951
vn -0.3161 0.0702 -0.9461
vn -0.5063 0.0638 -0.8600
vn -0.5063 0.0640 -0.8600
vn 0.0001 0.9973 0.0740
vn -0.6911 0.0536 -0.7208
vn -0.8426 0.0400 -0.5370
vn 0.8426 -0.0394 0.5370
vn 0.6911 -0.0541 0.7208
vn 0.6910 -0.0528 0.7209
vn -0.9399 0.0253 -0.3406
vn 0.0659 0.0738 -0.9951
vn 0.0659 0.0739 -0.9951
vn 0.3161 0.0702 -0.9461
vn -0.3162 -0.0697 0.9461
vn -0.5063 -0.0634 0.8600
vn -0.6910 -0.0535 0.7208
vn 0.6910 0.0534 -0.7208
vn 0.5063 0.0637 -0.8600
vn 0.5063 0.0636 -0.8600
vn 0.3076 -0.1632 -0.9374
vn 0.3162 0.0700 -0.9461
vn 0.4883 -0.2024 -0.8489
vn 0.3076 -0.1631 -0.9375
vn 0.2258 -0.6482 -0.7272
vn 0.0527 -0.5401 -0.8399
vn 0.0648 -0.1067 -0.9922
vn 0.0527 -0.5400 -0.8400
vn -0.0000 -0.5030 -0.8643
vn -0.0000 -0.0912 -0.9958
vn 0.0001 -0.1003 -0.9950
vn -0.0002 0.0738 -0.9973
vn -0.0659 -0.0733 0.9951
vn -0.0660 -0.0723 0.9952
vn -0.0000 -0.0971 -0.9953
vn -0.0000 -0.9977 -0.0682
vn 0.0001 0.0668 -0.9978
vn 0.0001 -0.9975 -0.0703
vn -0.0000 -0.9977 -0.0676
vn -0.0000 0.0738 -0.9973
vn -0.0000 0.0739 -0.9973
vn -0.0000 -0.9976 -0.0689
vn -0.0000 -0.9976 -0.0690
vn -0.0001 -0.9975 -0.0712
vn -0.0025 0.0668 -0.9978
vn -0.0023 -0.0917 -0.9958
vn 0.0054 0.0738 -0.9973
vn 0.2257 -0.6481 -0.7273
vn 0.0700 -0.9570 -0.2816
vn 0.0193 -0.9318 -0.3625
vn 0.3358 -0.7041 -0.6257
vn 0.1034 -0.9633 -0.2479
vn 0.0726 -0.9607 -0.2678
vn 0.4334 -0.7433 -0.5095
vn 0.6615 -0.2373 -0.7114
vn 0.6615 -0.2372 -0.7114
vn 0.8036 -0.2622 -0.5343
vn 0.6910 0.0534 -0.7209
vn 0.8427 0.0398 -0.5370
vn 0.4334 -0.7434 -0.5095
vn 0.5143 -0.7657 -0.3863
vn 0.1190 -0.9732 -0.1968
vn -0.6910 -0.0534 0.7208
vn 0.5064 0.0638 -0.8600
vn 0.5063 0.0634 -0.8600
vn -0.0005 -0.5449 -0.8385
vn -0.5756 -0.7729 -0.2670
vn 0.9927 -0.0088 0.1201
vn 0.9927 0.0090 -0.1200
vn 0.3162 -0.0701 0.9461
vn 0.3161 -0.0695 0.9462
vn 0.5063 -0.0632 0.8600
vn 0.6911 -0.0531 0.7208
vn 0.0001 0.9973 0.0739
vn -0.9399 0.0251 -0.3406
vn -0.8426 0.0396 -0.5370
vn -0.0007 0.9974 0.0723
vn -0.0194 -0.9750 0.2214
vn -0.0528 -0.6579 0.7512
vn -0.2257 -0.7482 0.6239
vn -0.0700 -0.9880 0.1376
vn -0.2257 -0.7482 0.6238
vn -0.3358 -0.7886 0.5151
vn -0.1034 -0.9893 0.1034
vn -0.0726 -0.9897 0.1234
vn -0.4334 -0.8103 0.3945
vn -0.6615 -0.3394 0.6687
vn -0.6616 -0.3395 0.6687
vn -0.1185 -0.9918 0.0473
vn -0.1190 -0.9916 0.0514
vn -0.5144 -0.8142 0.2693
vn -0.5143 -0.8142 0.2693
vn -0.1498 -0.9885 0.0228
vn -0.5756 -0.8038 0.1502
vn -0.6276 -0.7670 -0.1331
vn 0.1837 -0.9802 -0.0738
vn 0.5143 -0.7657 -0.3862
s 0
usemtl Material.030
f 3//1 2//1 1//1
f 6//2 1//2 2//2
f 1//3 4//3 3//3
f 4//4 1//4 5//4
f 1//4 6//4 5//4
f 7//5 6//5 8//5
f 6//4 7//4 5//4
f 2//6 8//6 6//6
f 10//7 8//7 9//7
f 11//7 9//7 8//7
f 8//5 10//5 7//5
f 8//4 2//4 11//4
f 12//4 11//4 2//4
f 11//8 12//8 13//8
f 9//9 11//9 14//9
f 13//10 14//10 11//10
f 14//11 15//11 9//11
f 15//4 14//4 16//4
f 14//4 13//4 17//4
f 17//4 16//4 14//4
f 19//12 17//12 13//12
f 17//13 19//13 18//13
f 18//14 21//14 17//14
f 17//15 21//15 20//15
f 20//15 16//15 17//15
f 21//16 18//16 23//16
f 21//17 24//17 22//17
f 22//18 20//18 21//18
f 23//19 24//19 21//19
f 26//20 24//20 23//20
f 24//21 26//21 25//21
f 25//21 22//21 24//21
f 27//22 26//22 28//22
f 26//23 27//23 29//23
f 29//23 25//23 26//23
f 23//24 28//24 26//24
f 33//25 30//25 29//25
f 29//25 30//25 31//25
f 32//26 29//26 31//26
f 29//27 32//27 25//27
f 29//25 27//25 33//25
f 34//28 35//28 33//28
f 33//28 37//28 34//28
f 36//29 33//29 35//29
f 36//25 38//25 33//25
f 37//25 33//25 27//25
f 33//25 38//25 30//25
f 39//30 30//30 38//30
f 38//31 40//31 39//31
f 40//32 38//32 42//32
f 38//25 43//25 41//25
f 38//25 41//25 42//25
f 36//25 43//25 38//25
f 44//33 41//33 43//33
f 43//34 45//34 44//34
f 43//25 36//25 47//25
f 43//35 46//35 45//35
f 46//36 43//36 47//36
f 47//25 51//25 48//25
f 49//37 47//37 48//37
f 47//38 49//38 52//38
f 51//25 47//25 50//25
f 50//25 47//25 36//25
f 47//39 52//39 46//39
f 53//40 52//40 49//40
f 52//41 53//41 54//41
f 54//41 46//41 52//41
f 46//42 54//42 56//42
f 54//43 55//43 57//43
f 55//44 54//44 53//44
f 57//43 56//43 54//43
f 60//45 57//45 55//45
f 58//46 59//46 57//46
f 57//46 60//46 58//46
f 56//47 57//47 59//47
f 61//4 62//4 60//4
f 60//4 63//4 61//4
f 58//4 60//4 62//4
f 55//45 63//45 60//45
f 64//4 61//4 63//4
f 63//4 65//4 64//4
f 63//48 55//48 66//48
f 66//48 65//48 63//48
f 53//44 66//44 55//44
f 66//49 53//49 67//49
f 67//49 68//49 66//49
f 65//50 66//50 68//50
f 68//51 67//51 69//51
f 69//51 71//51 68//51
f 68//52 70//52 65//52
f 70//53 68//53 71//53
f 71//54 69//54 72//54
f 72//54 73//54 71//54
f 74//11 71//11 73//11
f 71//53 74//53 70//53
f 75//55 76//55 74//55
f 74//4 77//4 75//4
f 70//4 74//4 76//4
f 73//56 77//56 74//56
f 78//4 75//4 77//4
f 77//4 80//4 78//4
f 77//57 73//57 79//57
f 79//57 80//57 77//57
f 81//4 78//4 80//4
f 80//4 82//4 81//4
f 80//58 79//58 83//58
f 83//58 82//58 80//58
f 83//59 85//59 84//59
f 84//59 86//59 83//59
f 85//60 83//60 79//60
f 82//61 83//61 86//61
f 88//62 87//62 86//62
f 89//63 86//63 87//63
f 86//64 84//64 88//64
f 86//61 89//61 82//61
f 90//4 91//4 89//4
f 89//4 92//4 90//4
f 82//4 89//4 91//4
f 87//65 92//65 89//65
f 92//4 93//4 90//4
f 94//66 93//66 92//66
f 87//67 94//67 92//67
f 96//66 93//66 94//66
f 95//68 94//68 87//68
f 96//4 94//4 95//4
f 97//66 93//66 96//66
f 95//4 100//4 96//4
f 98//69 97//69 96//69
f 96//69 99//69 98//69
f 99//29 96//29 100//29
f 101//70 100//70 95//70
f 100//29 101//29 99//29
f 101//71 102//71 87//71
f 95//70 102//70 101//70
f 87//72 99//72 101//72
f 87//73 102//73 95//73
f 99//74 87//74 88//74
f 103//75 99//75 88//75
f 98//75 99//75 103//75
f 103//76 88//76 104//76
f 104//77 105//77 103//77
f 105//78 108//78 103//78
f 107//79 103//79 106//79
f 106//80 103//80 108//80
f 107//75 98//75 103//75
f 108//81 105//81 109//81
f 109//82 110//82 108//82
f 111//83 108//83 110//83
f 108//84 111//84 106//84
f 110//85 113//85 111//85
f 93//86 106//86 111//86
f 111//86 112//86 93//86
f 112//87 111//87 113//87
f 113//88 110//88 114//88
f 114//89 116//89 113//89
f 113//87 115//87 112//87
f 115//90 113//90 116//90
f 116//91 114//91 117//91
f 117//91 118//91 116//91
f 119//92 116//92 118//92
f 116//90 119//90 115//90
f 121//4 120//4 119//4
f 115//4 119//4 120//4
f 119//4 122//4 121//4
f 118//92 122//92 119//92
f 123//4 121//4 122//4
f 122//4 124//4 123//4
f 125//93 124//93 122//93
f 122//93 118//93 125//93
f 126//94 125//94 118//94
f 125//95 126//95 127//95
f 127//95 128//95 125//95
f 124//96 125//96 128//96
f 129//97 130//97 128//97
f 128//97 131//97 129//97
f 131//98 128//98 127//98
f 128//96 130//96 124//96
f 131//99 136//99 132//99
f 131//29 132//29 133//29
f 133//29 129//29 131//29
f 136//100 131//100 134//100
f 134//101 131//101 135//101
f 127//102 135//102 131//102
f 137//103 132//103 136//103
f 138//104 136//104 134//104
f 136//105 138//105 137//105
f 138//29 139//29 137//29
f 140//29 139//29 138//29
f 134//106 140//106 138//106
f 134//107 141//107 140//107
f 141//29 139//29 140//29
f 141//108 134//108 143//108
f 142//109 144//109 141//109
f 141//110 143//110 142//110
f 144//111 139//111 141//111
f 146//112 145//112 144//112
f 145//113 139//113 144//113
f 144//114 142//114 146//114
f 145//115 146//115 148//115
f 147//116 28//116 146//116
f 147//117 146//117 142//117
f 28//118 23//118 146//118
f 146//119 23//119 148//119
f 139//120 148//120 149//120
f 148//121 23//121 149//121
f 148//122 139//122 145//122
f 139//123 149//123 150//123
f 149//124 23//124 150//124
f 23//101 18//101 150//101
f 151//125 150//125 18//125
f 152//126 150//126 151//126
f 150//127 152//127 139//127
f 151//128 153//128 152//128
f 153//129 139//129 152//129
f 153//130 151//130 154//130
f 154//131 155//131 153//131
f 155//29 139//29 153//29
f 154//132 156//132 155//132
f 156//29 139//29 155//29
f 156//133 154//133 157//133
f 156//134 157//134 133//134
f 133//135 158//135 156//135
f 158//29 139//29 156//29
f 132//136 137//136 158//136
f 137//29 139//29 158//29
f 158//137 133//137 132//137
f 129//29 157//29 19//29
f 154//29 19//29 157//29
f 157//138 129//138 133//138
f 151//139 18//139 154//139
f 18//29 19//29 154//29
f 142//116 135//116 147//116
f 127//140 159//140 147//140
f 147//140 135//140 127//140
f 160//141 28//141 147//141
f 160//142 147//142 159//142
f 28//143 160//143 164//143
f 161//25 163//25 160//25
f 162//144 161//144 160//144
f 160//145 159//145 162//145
f 164//25 160//25 163//25
f 165//48 164//48 166//48
f 164//146 165//146 28//146
f 167//147 166//147 164//147
f 164//147 163//147 167//147
f 167//25 169//25 168//25
f 168//25 166//25 167//25
f 169//29 167//29 163//29
f 168//69 169//69 50//69
f 163//29 50//29 169//29
f 50//69 165//69 168//69
f 166//48 168//48 165//48
f 170//148 28//148 165//148
f 170//25 165//25 50//25
f 50//149 36//149 170//149
f 170//147 36//147 172//147
f 170//146 37//146 28//146
f 37//150 170//150 171//150
f 172//151 171//151 170//151
f 35//29 172//29 36//29
f 172//25 35//25 34//25
f 34//25 171//25 172//25
f 171//48 34//48 37//48
f 163//25 51//25 50//25
f 161//25 173//25 163//25
f 51//25 163//25 173//25
f 104//152 51//152 173//152
f 173//153 105//153 104//153
f 105//154 173//154 174//154
f 174//72 173//72 161//72
f 174//155 109//155 105//155
f 174//156 175//156 109//156
f 175//157 174//157 161//157
f 110//158 109//158 175//158
f 175//158 114//158 110//158
f 114//159 175//159 176//159
f 161//160 176//160 175//160
f 176//161 117//161 114//161
f 117//162 176//162 162//162
f 161//163 162//163 176//163
f 126//164 162//164 159//164
f 162//165 126//165 117//165
f 159//164 127//164 126//164
f 135//166 142//166 143//166
f 135//167 143//167 134//167
f 177//168 178//168 130//168
f 130//168 129//168 177//168
f 124//4 130//4 178//4
f 178//169 177//169 180//169
f 123//170 178//170 179//170
f 178//4 123//4 124//4
f 180//169 179//169 178//169
f 179//171 180//171 182//171
f 181//172 182//172 180//172
f 180//173 183//173 181//173
f 183//174 180//174 177//174
f 183//175 12//175 3//175
f 12//176 183//176 184//176
f 3//175 181//175 183//175
f 177//48 184//48 183//48
f 184//177 13//177 12//177
f 13//12 184//12 19//12
f 184//4 177//4 129//4
f 129//173 19//173 184//173
f 186//29 185//29 182//29
f 187//178 182//178 185//178
f 182//29 181//29 186//29
f 182//168 187//168 179//168
f 188//4 179//4 187//4
f 187//179 190//179 188//179
f 185//178 189//178 187//178
f 190//180 187//180 189//180
f 193//181 188//181 190//181
f 192//93 190//93 191//93
f 189//182 191//182 190//182
f 190//183 192//183 193//183
f 194//183 193//183 192//183
f 188//184 193//184 121//184
f 193//185 194//185 120//185
f 120//186 121//186 193//186
f 196//4 194//4 195//4
f 192//4 195//4 194//4
f 194//187 196//187 197//187
f 197//188 120//188 194//188
f 198//189 197//189 196//189
f 197//4 198//4 112//4
f 120//4 197//4 115//4
f 112//4 115//4 197//4
f 199//190 198//190 200//190
f 198//4 199//4 93//4
f 196//189 200//189 198//189
f 93//4 112//4 198//4
f 201//4 202//4 200//4
f 200//191 196//191 201//191
f 203//4 200//4 202//4
f 200//192 203//192 199//192
f 204//193 205//193 203//193
f 203//194 202//194 204//194
f 206//195 203//195 205//195
f 203//4 206//4 207//4
f 203//196 207//196 199//196
f 208//4 207//4 206//4
f 207//197 208//197 91//197
f 91//198 90//198 207//198
f 90//147 199//147 207//147
f 206//199 209//199 208//199
f 210//200 208//200 209//200
f 208//201 210//201 81//201
f 81//202 91//202 208//202
f 209//191 211//191 210//191
f 212//203 210//203 211//203
f 210//204 212//204 78//204
f 78//204 81//204 210//204
f 214//7 212//7 213//7
f 211//7 213//7 212//7
f 212//5 214//5 75//5
f 75//205 78//205 212//205
f 213//7 215//7 214//7
f 216//7 214//7 215//7
f 214//6 216//6 76//6
f 76//206 75//206 214//206
f 217//207 216//207 218//207
f 216//208 217//208 219//208
f 215//209 218//209 216//209
f 219//3 76//3 216//3
f 76//4 219//4 70//4
f 64//210 219//210 217//210
f 219//4 64//4 65//4
f 65//4 70//4 219//4
f 218//11 215//11 222//11
f 220//10 218//10 221//10
f 218//203 220//203 217//203
f 222//11 221//11 218//11
f 221//4 222//4 5//4
f 223//57 222//57 215//57
f 222//4 223//4 5//4
f 224//211 223//211 213//211
f 223//4 224//4 5//4
f 215//212 213//212 223//212
f 224//4 225//4 5//4
f 225//213 224//213 211//213
f 213//214 211//214 224//214
f 226//215 225//215 209//215
f 211//216 209//216 225//216
f 225//4 226//4 5//4
f 226//4 205//4 5//4
f 205//70 226//70 206//70
f 209//217 206//217 226//217
f 221//218 227//218 220//218
f 227//4 221//4 5//4
f 227//50 228//50 229//50
f 228//4 227//4 5//4
f 229//219 220//219 227//219
f 220//4 229//4 230//4
f 231//4 230//4 229//4
f 232//48 229//48 228//48
f 229//173 232//173 231//173
f 228//48 233//48 232//48
f 234//220 232//220 233//220
f 235//173 231//173 232//173
f 232//4 234//4 235//4
f 236//4 235//4 234//4
f 235//96 236//96 237//96
f 231//221 235//221 62//221
f 237//182 62//182 235//182
f 238//222 237//222 236//222
f 62//4 237//4 58//4
f 237//4 238//4 239//4
f 239//4 58//4 237//4
f 240//4 239//4 238//4
f 239//223 241//223 59//223
f 59//224 58//224 239//224
f 241//225 239//225 240//225
f 243//226 59//226 241//226
f 240//225 242//225 241//225
f 244//227 241//227 242//227
f 241//226 244//226 243//226
f 44//228 243//228 244//228
f 244//229 246//229 44//229
f 242//227 245//227 244//227
f 246//230 244//230 245//230
f 245//231 247//231 246//231
f 41//232 246//232 247//232
f 41//233 44//233 246//233
f 247//234 42//234 41//234
f 248//235 249//235 247//235
f 247//235 245//235 248//235
f 42//236 247//236 249//236
f 250//237 40//237 249//237
f 249//238 248//238 250//238
f 42//239 249//239 40//239
f 253//240 250//240 248//240
f 40//241 250//241 251//241
f 252//242 251//242 250//242
f 250//242 253//242 252//242
f 254//243 252//243 253//243
f 253//244 255//244 254//244
f 255//245 253//245 256//245
f 248//240 256//240 253//240
f 256//246 257//246 255//246
f 245//247 242//247 256//247
f 257//248 256//248 242//248
f 256//249 248//249 245//249
f 258//4 259//4 257//4
f 257//4 240//4 258//4
f 255//4 257//4 259//4
f 242//250 240//250 257//250
f 260//251 261//251 259//251
f 259//252 258//252 260//252
f 262//253 259//253 261//253
f 259//4 262//4 255//4
f 261//253 263//253 262//253
f 264//254 262//254 263//254
f 262//4 264//4 254//4
f 254//4 255//4 262//4
f 263//255 267//255 264//255
f 264//55 266//55 265//55
f 265//4 254//4 264//4
f 266//256 264//256 267//256
f 270//191 267//191 268//191
f 271//257 268//257 267//257
f 269//257 271//257 267//257
f 267//257 263//257 269//257
f 267//256 270//256 266//256
f 271//258 269//258 273//258
f 268//259 271//259 272//259
f 273//260 272//260 271//260
f 273//4 274//4 5//4
f 274//261 273//261 269//261
f 272//4 273//4 5//4
f 274//4 275//4 5//4
f 275//262 274//262 276//262
f 269//261 276//261 274//261
f 276//263 277//263 275//263
f 277//264 276//264 261//264
f 263//264 261//264 276//264
f 276//4 269//4 263//4
f 278//265 275//265 277//265
f 277//265 279//265 278//265
f 261//55 260//55 277//55
f 279//55 277//55 260//55
f 280//266 278//266 279//266
f 279//223 281//223 280//223
f 260//4 282//4 279//4
f 281//4 279//4 282//4
f 282//4 236//4 281//4
f 236//267 282//267 238//267
f 282//268 260//268 258//268
f 258//269 238//269 282//269
f 283//270 280//270 281//270
f 281//270 234//270 283//270
f 234//4 281//4 236//4
f 280//4 283//4 5//4
f 233//220 283//220 234//220
f 283//4 233//4 5//4
f 278//4 280//4 5//4
f 275//4 278//4 5//4
f 284//4 272//4 5//4
f 272//151 284//151 268//151
f 284//271 285//271 286//271
f 285//4 284//4 5//4
f 286//272 268//272 284//272
f 268//191 286//191 287//191
f 289//55 287//55 286//55
f 288//273 286//273 285//273
f 286//200 288//200 289//200
f 290//200 289//200 288//200
f 287//274 289//274 291//274
f 289//211 290//211 292//211
f 292//275 291//275 289//275
f 15//276 292//276 290//276
f 292//4 15//4 293//4
f 291//4 292//4 294//4
f 293//4 294//4 292//4
f 294//4 296//4 291//4
f 295//277 294//277 293//277
f 294//278 295//278 297//278
f 297//279 296//279 294//279
f 300//280 298//280 297//280
f 296//281 297//281 298//281
f 299//282 297//282 295//282
f 297//283 299//283 300//283
f 301//284 300//284 299//284
f 300//285 301//285 39//285
f 298//286 300//286 302//286
f 39//287 302//287 300//287
f 251//288 302//288 39//288
f 303//289 302//289 251//289
f 302//286 303//286 298//286
f 251//290 304//290 303//290
f 265//291 303//291 304//291
f 305//198 298//198 303//198
f 303//198 265//198 305//198
f 266//4 306//4 305//4
f 305//55 265//55 266//55
f 296//4 305//4 306//4
f 298//281 305//281 296//281
f 270//292 287//292 306//292
f 291//274 306//274 287//274
f 306//293 266//293 270//293
f 306//4 291//4 296//4
f 251//294 307//294 304//294
f 310//295 304//295 307//295
f 308//29 304//29 311//29
f 304//296 308//296 265//296
f 304//297 309//297 311//297
f 304//298 310//298 309//298
f 309//72 312//72 311//72
f 311//299 312//299 313//299
f 313//299 314//299 311//299
f 311//29 314//29 308//29
f 314//55 313//55 315//55
f 314//55 315//55 308//55
f 309//48 315//48 313//48
f 316//299 315//299 309//299
f 315//4 316//4 308//4
f 308//4 316//4 319//4
f 316//29 310//29 317//29
f 317//29 320//29 316//29
f 309//299 310//299 316//299
f 316//191 318//191 319//191
f 321//4 318//4 316//4
f 320//55 321//55 316//55
f 321//48 322//48 323//48
f 317//299 322//299 321//299
f 321//299 320//299 317//299
f 323//48 318//48 321//48
f 323//72 322//72 310//72
f 324//300 318//300 323//300
f 323//301 310//301 307//301
f 307//302 325//302 323//302
f 323//300 325//300 324//300
f 325//303 307//303 326//303
f 325//72 326//72 327//72
f 324//29 325//29 327//29
f 327//299 326//299 328//299
f 328//299 329//299 327//299
f 327//29 329//29 324//29
f 329//4 328//4 324//4
f 328//48 326//48 307//48
f 328//55 319//55 324//55
f 307//48 319//48 328//48
f 324//55 319//55 318//55
f 310//72 322//72 317//72
f 308//299 319//299 254//299
f 254//304 319//304 307//304
f 313//48 312//48 309//48
f 308//300 254//300 265//300
f 307//305 251//305 252//305
f 307//306 252//306 254//306
f 299//307 330//307 301//307
f 30//308 301//308 330//308
f 30//309 39//309 301//309
f 330//310 299//310 332//310
f 332//310 331//310 330//310
f 31//311 330//311 331//311
f 330//312 31//312 30//312
f 295//282 332//282 299//282
f 331//313 332//313 333//313
f 334//314 333//314 332//314
f 332//315 295//315 334//315
f 333//316 334//316 20//316
f 334//2 293//2 16//2
f 293//317 334//317 295//317
f 16//318 20//318 334//318
f 333//319 32//319 331//319
f 32//320 333//320 22//320
f 20//316 22//316 333//316
f 31//321 331//321 32//321
f 16//4 293//4 15//4
f 9//4 290//4 10//4
f 290//322 9//322 15//322
f 288//4 10//4 290//4
f 285//273 335//273 288//273
f 10//323 288//323 335//323
f 7//4 335//4 5//4
f 335//324 7//324 10//324
f 335//4 285//4 5//4
f 287//191 270//191 268//191
f 238//4 258//4 240//4
f 39//325 40//325 251//325
f 59//47 243//47 56//47
f 45//326 56//326 243//326
f 243//326 44//326 45//326
f 233//4 228//4 5//4
f 230//138 231//138 61//138
f 62//327 61//327 231//327
f 230//173 217//173 220//173
f 217//328 230//328 64//328
f 61//29 64//29 230//29
f 205//4 204//4 5//4
f 336//329 204//329 202//329
f 204//4 336//4 5//4
f 202//330 201//330 336//330
f 337//331 336//331 201//331
f 336//4 337//4 5//4
f 201//251 195//251 337//251
f 338//332 337//332 195//332
f 337//4 338//4 5//4
f 195//92 192//92 338//92
f 191//93 338//93 192//93
f 338//4 191//4 5//4
f 195//333 201//333 196//333
f 199//4 90//4 93//4
f 191//4 189//4 5//4
f 189//168 185//168 5//168
f 179//334 188//334 123//334
f 121//335 123//335 188//335
f 185//4 186//4 5//4
f 4//13 186//13 181//13
f 186//336 4//336 5//336
f 181//14 3//14 4//14
f 118//94 117//94 126//94
f 340//29 107//29 339//29
f 93//69 339//69 107//69
f 98//72 107//72 340//72
f 107//70 106//70 93//70
f 339//29 341//29 340//29
f 340//69 341//69 342//69
f 342//70 343//70 340//70
f 340//72 343//72 98//72
f 343//48 342//48 97//48
f 97//48 98//48 343//48
f 339//4 97//4 342//4
f 342//55 341//55 339//55
f 339//66 93//66 97//66
f 51//337 104//337 344//337
f 84//338 344//338 104//338
f 104//338 88//338 84//338
f 85//339 345//339 344//339
f 51//340 344//340 345//340
f 344//341 84//341 85//341
f 348//342 346//342 345//342
f 347//343 345//343 346//343
f 345//344 347//344 51//344
f 345//342 85//342 348//342
f 346//345 348//345 72//345
f 73//346 72//346 348//346
f 79//60 348//60 85//60
f 348//347 79//347 73//347
f 48//72 51//72 347//72
f 349//348 48//348 347//348
f 347//349 346//349 349//349
f 69//350 350//350 349//350
f 349//351 72//351 69//351
f 72//345 349//345 346//345
f 48//352 349//352 350//352
f 67//353 49//353 350//353
f 350//353 69//353 67//353
f 48//37 350//37 49//37
f 91//4 81//4 82//4
f 49//40 67//40 53//40
f 56//354 45//354 46//354
f 27//355 28//355 37//355
f 22//356 25//356 32//356
f 2//203 3//203 12//203
