# Blender 5.0.1
# www.blender.org
mtllib torso_z_link_visual_25.mtl
o i01.torso.topStom.full.026_visual.001
v 0.302137 -0.265890 -0.001386
v 0.303020 -0.253806 0.102661
v 0.296242 -0.284465 -0.000165
v 0.332427 -0.281549 -0.000357
v 0.297246 -0.242146 -0.002953
v 0.276370 -0.224512 -0.004107
v 0.291306 -0.227607 0.100937
v 0.313463 -0.210926 -0.005001
v 0.332427 -0.285945 -0.067206
v 0.313463 -0.215321 -0.071852
v 0.242687 -0.192002 -0.006245
v 0.242687 -0.196398 -0.073095
v 0.190876 -0.243702 -0.002846
v 0.224811 -0.244471 -0.002800
v 0.248136 -0.223624 -0.004166
v 0.266991 -0.215109 0.100121
v 0.236662 -0.222879 0.100627
v 0.177305 -0.227182 0.100909
v 0.221716 -0.246799 0.102199
v 0.219699 -0.188455 0.098362
v 0.216265 -0.203467 -0.072631
v 0.253647 -0.142282 0.095326
v 0.251019 -0.157885 -0.075627
v 0.276127 -0.106466 -0.079008
v 0.339986 -0.124005 -0.077855
v 0.317135 -0.175079 -0.074497
v 0.317135 -0.163819 0.096742
v 0.337879 -0.118623 0.093771
v 0.373026 -0.255469 -0.069211
v 0.346234 -0.278206 0.104263
v 0.372418 -0.242977 0.101947
v 0.303998 -0.334832 -0.063992
v 0.298224 -0.328793 0.107591
v 0.280616 -0.337644 -0.063807
v 0.248841 -0.377548 -0.061184
v 0.248841 -0.366288 0.110056
v 0.209840 -0.318721 -0.065052
v 0.169512 -0.322385 -0.064811
v 0.123475 -0.270399 -0.068230
v 0.190876 -0.248098 -0.069696
v 0.124216 -0.343085 -0.063449
v 0.173198 -0.241459 -0.070131
v 0.169512 -0.311125 0.106428
v 0.224811 -0.273916 0.103988
v 0.128096 -0.256974 0.102867
v 0.118326 -0.333928 0.107927
v 0.248135 -0.294763 0.105352
v 0.276370 -0.293874 0.105294
v 0.230711 -0.288883 0.000126
v 0.252074 -0.302779 0.001040
v 0.280616 -0.333249 0.003043
v 0.209840 -0.314325 0.001799
v 0.278252 -0.299961 0.000854
v 0.295110 -0.279291 0.104336
v 0.221716 -0.271588 -0.001011
v 0.070153 -0.357859 -0.062478
v 0.049975 -0.350544 0.109014
v 0.073964 -0.276685 0.104164
v 0.069005 -0.289176 -0.066994
v 0.028804 -0.284324 0.104666
v 0.001989 -0.290128 0.038097
v -0.019253 -0.285153 0.104712
v 0.019466 -0.291440 0.017187
v 0.019220 -0.296412 -0.066506
v 0.015195 -0.290517 0.031242
v 0.019067 -0.338349 0.021299
v 0.016080 -0.337682 0.031651
v 0.008255 -0.336946 0.039045
v -0.002628 -0.337097 0.040626
v 0.032172 -0.357711 0.044056
v 0.006688 -0.356527 0.061896
v -0.018793 -0.353143 0.109179
v -0.012709 -0.337349 0.036427
v -0.027968 -0.357149 0.050411
v -0.070154 -0.346599 0.108761
v -0.038225 -0.359046 0.024409
v -0.019081 -0.338236 0.023026
v -0.019512 -0.291192 0.020960
v -0.015242 -0.292118 0.006905
v -0.016094 -0.338930 0.012675
v -0.008270 -0.339168 0.005250
v -0.032172 -0.360411 0.002997
v -0.049975 -0.361803 -0.062209
v -0.006699 -0.361573 -0.014839
v 0.027967 -0.360685 -0.003373
v 0.018792 -0.364402 -0.062039
v 0.002609 -0.339526 0.003701
v 0.012695 -0.339226 0.007896
v 0.012384 -0.292300 0.004269
v -0.002032 -0.292629 0.000057
v -0.028805 -0.295584 -0.066573
v -0.069007 -0.277915 0.104245
v -0.073965 -0.287945 -0.067075
v -0.123477 -0.259138 0.103010
v -0.128098 -0.268233 -0.068372
v -0.118328 -0.345187 -0.063311
v -0.124220 -0.331824 0.107790
v -0.169512 -0.322385 -0.064811
v -0.169512 -0.311125 0.106428
v -0.248842 -0.377548 -0.061184
v -0.208933 -0.319627 -0.064993
v -0.189636 -0.247766 -0.069718
v -0.177306 -0.238441 -0.070330
v -0.173200 -0.230198 0.101108
v -0.219699 -0.199715 -0.072878
v -0.216266 -0.192207 0.098609
v -0.268636 -0.215515 0.100142
v -0.251020 -0.146625 0.095613
v -0.229807 -0.230603 0.101134
v -0.245052 -0.218426 0.100333
v -0.254667 -0.222379 -0.004247
v -0.229998 -0.235861 -0.003364
v -0.242355 -0.190765 -0.006326
v -0.189636 -0.243370 -0.002868
v -0.220731 -0.261609 -0.001667
v -0.220197 -0.253097 0.102609
v -0.228224 -0.287003 -0.000005
v -0.226172 -0.275490 0.104086
v -0.239765 -0.290277 0.105058
v -0.256993 -0.303566 0.001092
v -0.248842 -0.366288 0.110056
v -0.262670 -0.296594 0.105472
v -0.303998 -0.323572 0.107247
v -0.287219 -0.295462 0.000566
v -0.285233 -0.289148 0.104983
v -0.299847 -0.270448 0.103754
v -0.301351 -0.243719 0.101998
v -0.301588 -0.271588 -0.001011
v -0.373026 -0.244211 0.102028
v -0.317135 -0.175080 -0.074497
v -0.372418 -0.254238 -0.069292
v -0.346234 -0.289468 -0.066976
v -0.317135 -0.163820 0.096742
v -0.339987 -0.112746 0.093384
v -0.337880 -0.129883 -0.077469
v -0.286864 -0.223985 0.100698
v -0.276127 -0.095208 0.092231
v -0.277849 -0.101700 -0.079322
v -0.253648 -0.153542 -0.075912
v -0.291971 -0.032516 0.088113
v -0.356639 -0.044541 0.088890
v -0.359244 0.024081 0.084378
v -0.359534 -0.038765 -0.005621
v -0.359518 -0.004584 0.038774
v -0.359529 -0.031059 0.022580
v -0.352686 -0.075935 -0.081017
v -0.359244 -0.024684 -0.084375
v -0.359615 -0.023174 -0.030749
v -0.293111 -0.032732 -0.083854
v -0.291971 0.031903 -0.088111
v -0.293829 -0.019711 -0.000693
v -0.356640 0.043934 -0.088890
v -0.293891 0.000441 -0.019214
v -0.293840 -0.013539 -0.014064
v -0.338733 -0.000490 -0.018745
v -0.338586 -0.013929 -0.013879
v -0.338366 -0.018776 0.003434
v -0.359541 0.004378 -0.038800
v -0.338652 0.010339 -0.015528
v -0.359529 0.030445 -0.022702
v -0.338667 0.017563 -0.005924
v -0.359572 0.037892 -0.001693
v -0.338560 0.017333 0.006856
v -0.359385 0.029368 0.024994
v -0.352686 0.075329 0.081017
v -0.293112 0.032119 0.083857
v -0.337879 0.129277 0.077470
v -0.339987 0.112139 -0.093383
v -0.317135 0.163214 -0.096742
v -0.276127 0.094601 -0.092229
v -0.277849 0.101093 0.079324
v -0.253648 0.152937 0.075913
v -0.251019 0.146021 -0.095611
v -0.242540 0.183980 -0.098107
v -0.219699 0.199108 0.072878
v -0.216266 0.191601 -0.098607
v -0.190324 0.236083 -0.101533
v -0.177305 0.237836 0.070332
v -0.173199 0.229592 -0.101106
v -0.128097 0.267628 0.068373
v -0.123475 0.258533 -0.103009
v -0.169512 0.310518 -0.106428
v -0.169512 0.321778 0.064812
v -0.209436 0.307258 -0.106214
v -0.124217 0.331218 -0.107789
v -0.250076 0.377548 0.061145
v -0.248842 0.365682 -0.110055
v -0.280765 0.326330 -0.107468
v -0.284147 0.339554 -0.108336
v -0.329609 0.308669 0.065675
v -0.334842 0.291649 -0.105186
v -0.332981 0.274226 -0.104041
v -0.372418 0.242372 -0.101947
v -0.372418 0.253632 0.069293
v -0.300721 0.255331 0.069181
v -0.291308 0.238261 0.070303
v -0.317135 0.174474 0.074497
v -0.266272 0.225315 0.071157
v -0.257062 0.218484 -0.033237
v -0.239764 0.231899 0.070722
v -0.287384 0.227389 -0.033820
v -0.313868 0.207447 -0.032511
v -0.300308 0.247107 -0.035118
v -0.301748 0.270742 -0.036667
v -0.332981 0.278622 -0.037190
v -0.280765 0.330725 -0.040617
v -0.209436 0.311654 -0.039363
v -0.262670 0.300383 -0.038621
v -0.285233 0.292937 -0.038132
v -0.286150 0.300140 0.066232
v -0.260634 0.307247 0.065767
v -0.301588 0.275377 0.067863
v -0.234925 0.297875 0.066384
v -0.239764 0.294066 -0.038206
v -0.222295 0.272150 -0.036764
v -0.221319 0.273384 0.067994
v -0.223457 0.244864 -0.034970
v -0.190324 0.240479 -0.034683
v -0.242540 0.188376 -0.031257
v -0.235338 0.228676 -0.033906
v -0.224236 0.249850 0.069541
v -0.313868 0.203051 -0.099361
v -0.118327 0.344581 0.063312
v -0.069006 0.277309 -0.104243
v -0.070154 0.345993 -0.108761
v -0.049975 0.361197 0.062210
v -0.020805 0.356425 -0.055710
v -0.038010 0.357922 -0.031706
v -0.018791 0.352537 -0.109180
v 0.007220 0.355942 -0.061919
v 0.049975 0.349938 -0.109013
v -0.019217 0.284548 -0.104711
v -0.028805 0.294977 0.066574
v 0.011953 0.289679 -0.034614
v -0.019467 0.290578 -0.021082
v -0.008065 0.289568 -0.036958
v 0.028804 0.283717 -0.104666
v 0.019253 0.295805 0.066509
v 0.073964 0.276079 -0.104162
v 0.019511 0.290580 -0.021049
v 0.069005 0.288569 0.066996
v 0.070153 0.357252 0.062479
v 0.124218 0.342477 0.063450
v 0.018794 0.363795 0.062040
v 0.123475 0.269792 0.068230
v 0.169511 0.321778 0.064812
v 0.173199 0.240852 0.070134
v 0.128096 0.256368 -0.102866
v 0.177305 0.226575 -0.100907
v 0.169511 0.310518 -0.106428
v 0.118327 0.333321 -0.107926
v 0.209547 0.307147 -0.106206
v 0.190476 0.236125 -0.101536
v 0.248841 0.365682 -0.110055
v 0.248841 0.376942 0.061184
v 0.280722 0.326177 -0.107457
v 0.298224 0.328187 -0.107589
v 0.303997 0.334225 0.063993
v 0.332826 0.274185 -0.104038
v 0.346233 0.277601 -0.104263
v 0.373025 0.254864 0.069212
v 0.372417 0.242372 -0.101947
v 0.317134 0.163214 -0.096742
v 0.313755 0.203163 -0.099368
v 0.313755 0.207559 -0.032517
v 0.242580 0.184133 -0.098117
v 0.332826 0.278581 -0.037189
v 0.300431 0.273913 -0.036881
v 0.283539 0.294066 -0.038206
v 0.280722 0.330573 -0.040607
v 0.300720 0.248467 -0.035208
v 0.291306 0.231396 -0.034085
v 0.297246 0.245936 0.069803
v 0.301659 0.276869 0.067765
v 0.285232 0.299801 0.066257
v 0.266340 0.306673 0.065804
v 0.243975 0.303669 0.066003
v 0.264922 0.299949 -0.038592
v 0.240428 0.294913 -0.038261
v 0.225499 0.278026 -0.037150
v 0.226171 0.286144 0.067156
v 0.209547 0.311542 -0.039355
v 0.190476 0.240520 -0.034685
v 0.220730 0.258534 -0.035870
v 0.220731 0.267430 0.068386
v 0.227061 0.244574 0.069888
v 0.228193 0.236020 -0.034389
v 0.242580 0.188529 -0.031267
v 0.247631 0.227529 0.071011
v 0.243135 0.223477 -0.033565
v 0.266991 0.218898 -0.033269
v 0.276370 0.228302 0.070958
v 0.251019 0.157280 0.075628
v 0.317134 0.174474 0.074497
v 0.337879 0.118016 -0.093769
v 0.339986 0.123399 0.077856
v 0.276126 0.105861 0.079010
v 0.253647 0.141677 -0.095325
v 0.277848 0.089834 -0.091916
v 0.291970 0.043169 0.083137
v 0.293110 0.020866 -0.087379
v 0.293828 0.018848 -0.003228
v 0.293838 0.015499 0.011026
v 0.293891 0.002900 0.018830
v 0.293111 -0.021464 0.087379
v 0.356596 0.055353 0.082320
v 0.352685 0.064070 -0.090222
v 0.359542 0.037765 -0.006834
v 0.359528 0.033146 0.018355
v 0.359517 0.009017 0.037879
v 0.359243 -0.013425 0.086843
v 0.359384 -0.026446 0.028664
v 0.352686 -0.064675 0.090222
v 0.359571 -0.038391 0.003325
v 0.356639 -0.055800 -0.082331
v 0.277849 -0.090438 0.091918
v 0.291970 -0.043768 -0.083135
v 0.359243 0.012819 -0.086842
v 0.293838 -0.016156 -0.011148
v 0.293891 -0.003552 -0.018951
v 0.293829 -0.019505 0.003109
v 0.338666 -0.018791 -0.003535
v 0.338560 -0.016889 0.009107
v 0.293839 -0.011632 0.015558
v 0.338695 -0.001536 0.019278
v 0.338619 0.015905 0.010502
v 0.338805 0.018130 -0.005361
v 0.338811 0.008962 -0.016851
v 0.359591 0.021544 -0.031968
v 0.359546 -0.010561 -0.037670
v 0.359528 -0.033758 -0.018480
v 0.338651 -0.012885 -0.014001
v 0.338732 -0.002570 -0.018610
v 0.293839 0.010978 -0.015675
v 0.219698 0.187849 -0.098360
v 0.216265 0.202861 0.072631
v -0.006816 0.360960 0.014737
v 0.027968 0.360071 0.003248
v 0.038224 0.358547 -0.022776
v 0.005356 0.338556 -0.004345
v 0.016896 0.337928 -0.014029
v 0.015158 0.291514 -0.007051
v 0.018214 0.337321 -0.026957
v 0.032171 0.357097 -0.044181
v 0.010805 0.336784 -0.037902
v 0.001047 0.336472 -0.040902
v -0.010436 0.336669 -0.038353
v -0.018633 0.337431 -0.026782
v -0.017626 0.338098 -0.016106
v -0.015415 0.291478 -0.007442
v -0.008716 0.338630 -0.005258
v 0.000404 0.292008 0.000054
v -0.032172 0.359796 -0.003122
v -0.073965 0.287339 0.067077
v -0.293891 -0.001012 0.019087
v -0.293829 0.019141 0.000568
v -0.293840 0.012967 0.013939
v -0.338695 0.003444 0.018950
v -0.338667 -0.011910 0.014723
v -0.293839 -0.014524 0.013001
v -0.293839 0.013954 -0.013127
v -0.242355 -0.195160 -0.073176
v -0.314371 -0.214415 -0.071910
v -0.314371 -0.210020 -0.005060
v -0.274122 -0.224053 -0.004138
v -0.291307 -0.234471 -0.003451
v -0.300721 -0.251543 -0.002330
v -0.333668 -0.281880 -0.000335
v -0.333668 -0.286276 -0.067185
v -0.280949 -0.334486 0.003124
v -0.208933 -0.315231 0.001858
v -0.280949 -0.338882 -0.063725
v -0.298224 -0.340054 -0.063648
v 0.038224 -0.359161 0.022653
v -0.012427 -0.290353 0.033883
vn -0.9794 -0.1996 0.0315
vn -0.9533 0.3008 -0.0268
vn -0.0000 -0.0656 -0.9978
vn -0.0002 -0.0659 -0.9978
vn -0.0001 -0.0654 -0.9979
vn -0.6460 -0.7602 0.0695
vn -0.9130 -0.4079 0.0049
vn 0.0002 -0.0656 -0.9978
vn -0.9659 -0.2583 0.0170
vn -0.2588 -0.9638 0.0634
vn 0.7071 -0.7056 0.0464
vn -0.0001 -0.0655 -0.9979
vn 0.6669 -0.7410 0.0783
vn -0.0315 -0.9957 0.0870
vn 0.2486 -0.9680 0.0341
vn -0.0001 0.0656 0.9978
vn -0.0000 0.0656 0.9978
vn 0.8484 -0.5292 0.0133
vn -0.6752 0.7358 -0.0510
vn -0.7958 0.6044 -0.0371
vn -0.0001 0.0657 0.9978
vn -0.8063 0.5901 -0.0415
vn -0.8990 0.4372 -0.0261
vn 0.8216 0.5688 -0.0374
vn 0.9092 -0.4155 0.0273
vn 0.9131 -0.4070 0.0240
vn 0.8032 -0.5939 0.0462
vn 0.7552 -0.6548 0.0308
vn 0.8204 0.5704 -0.0387
vn 0.7261 -0.6859 0.0486
vn 0.6131 -0.7885 0.0484
vn 0.6055 -0.7941 0.0522
vn -0.5717 -0.8187 0.0538
vn -0.0001 -0.0656 -0.9978
vn 0.4164 -0.9072 0.0597
vn 0.4077 -0.9110 0.0627
vn -0.0000 0.0654 0.9979
vn -0.0315 0.9965 -0.0778
vn 0.6671 0.7418 -0.0690
vn 0.5461 0.8366 -0.0437
vn -0.1073 0.9924 -0.0598
vn -0.6150 0.7865 -0.0569
vn -0.6534 0.7557 -0.0445
vn -0.9552 0.2948 -0.0249
vn 0.2588 0.9638 -0.0634
vn 0.9659 0.2583 -0.0170
vn 0.8875 0.4605 -0.0160
vn 0.9934 0.1116 -0.0268
vn -0.0001 -0.0658 -0.9978
vn 0.9934 -0.1116 0.0268
vn -0.7071 0.7056 -0.0464
vn 0.2367 -0.9691 0.0692
vn 0.2641 -0.9626 0.0605
vn -0.0001 0.0655 0.9978
vn -0.3265 0.9433 -0.0594
vn -0.3428 0.9372 -0.0643
vn -0.1671 0.9837 -0.0669
vn -0.0000 0.0655 0.9979
vn -0.0002 0.0655 0.9979
vn -0.0130 0.9966 -0.0817
vn -0.0173 0.9967 -0.0799
vn -0.2065 0.9768 -0.0574
vn -0.0380 0.9963 -0.0770
vn -0.1442 0.9876 -0.0617
vn -0.9570 -0.0172 -0.2896
vn -0.9610 -0.0204 -0.2759
vn -0.6876 -0.0192 -0.7258
vn -0.4611 -0.0796 -0.8838
vn -0.0842 -0.7538 -0.6517
vn -0.1431 -0.0392 -0.9889
vn -0.4499 -0.6627 -0.5987
vn -0.5173 -0.7108 -0.4766
vn -0.0049 -0.9976 0.0688
vn 0.0378 -0.9951 0.0916
vn 0.2423 -0.6774 -0.6946
vn 0.3122 -0.6294 -0.7116
vn 0.0257 -0.9944 0.1027
vn -0.0955 -0.9894 0.1098
vn -0.1266 -0.9881 0.0871
vn 0.7084 -0.6670 -0.2308
vn 0.6620 -0.6998 -0.2685
vn 0.9570 0.0215 0.2893
vn 0.9033 -0.0106 -0.4288
vn 0.9610 0.0166 0.2762
vn 0.7206 -0.6462 0.2513
vn 0.5174 -0.6421 0.5657
vn 0.6876 0.0765 0.7220
vn 0.7200 -0.6493 0.2450
vn -0.0257 -0.9993 0.0284
vn -0.0760 -0.9962 0.0420
vn 0.4500 -0.5785 0.6803
vn 0.0049 -0.9980 0.0625
vn -0.2422 -0.5806 0.7773
vn 0.0843 -0.6619 0.7448
vn -0.0378 -0.9985 0.0394
vn -0.3119 -0.5309 0.7879
vn -0.6618 -0.6588 0.3577
vn -0.8773 0.0312 0.4789
vn -0.3849 0.0686 0.9204
vn -0.9034 0.0451 0.4265
vn -0.0131 0.9982 -0.0593
vn -0.0057 0.9983 -0.0585
vn -0.2811 0.0467 0.9585
vn 0.0173 0.9985 -0.0512
vn 0.0130 0.9987 -0.0495
vn 0.4610 0.0371 0.8866
vn 0.1433 0.0908 0.9855
vn 0.1671 0.9840 -0.0624
vn 0.1442 0.9872 -0.0682
vn 0.2077 0.9756 -0.0710
vn -0.0000 -0.0658 -0.9978
vn 0.0003 -0.0656 -0.9978
vn 0.0381 0.9978 -0.0541
vn -0.0000 -0.0657 -0.9978
vn 0.3265 0.9430 -0.0647
vn 0.0001 -0.0657 -0.9978
vn 0.3428 0.9376 -0.0590
vn -0.2367 -0.9698 0.0583
vn -0.4077 -0.9113 0.0571
vn -0.2641 -0.9622 0.0661
vn -0.4164 -0.9072 0.0597
vn 0.5717 -0.8187 0.0538
vn 0.0001 -0.0656 -0.9978
vn 0.5187 0.8533 -0.0535
vn 0.6623 0.7474 -0.0518
vn 0.0001 -0.0655 -0.9978
vn 0.6753 0.7362 -0.0457
vn 0.7958 0.6040 -0.0424
vn -0.1227 -0.9912 0.0488
vn -0.4802 -0.8737 0.0772
vn -0.6249 -0.7797 0.0404
vn 0.0001 -0.0655 -0.9979
vn -0.9411 -0.3366 0.0323
vn -0.9199 -0.3916 0.0214
vn -0.9663 0.2572 -0.0094
vn -0.9593 0.2819 -0.0181
vn 0.0001 0.0658 0.9978
vn -0.7368 0.6734 -0.0600
vn -0.4996 0.8658 -0.0279
vn -0.2664 0.9607 -0.0787
vn 0.0001 0.0656 0.9978
vn 0.3140 0.9473 -0.0633
vn 0.2595 0.9644 -0.0503
vn 0.7885 0.6128 -0.0521
vn -0.0000 0.0655 0.9978
vn 0.9983 0.0550 -0.0172
vn 0.8572 0.5146 -0.0198
vn -0.8216 0.5688 -0.0374
vn -0.8204 0.5706 -0.0363
vn -0.8032 -0.5949 0.0320
vn -0.7552 -0.6532 0.0552
vn -0.9092 -0.4155 0.0273
vn -0.9131 -0.4066 0.0295
vn 0.0001 0.0657 0.9978
vn 0.9065 0.4215 -0.0251
vn 0.9696 0.2438 -0.0190
vn 0.8990 0.4369 -0.0314
vn -0.0000 0.0657 0.9978
vn -0.9989 -0.0360 0.0287
vn -0.0002 0.0656 0.9978
vn -0.9956 -0.0907 0.0250
vn -0.9767 -0.2141 0.0168
vn -0.9990 -0.0233 0.0388
vn -0.9716 -0.2358 0.0210
vn -0.9919 -0.1271 -0.0033
vn -0.9645 -0.2638 0.0146
vn -0.9953 -0.0841 -0.0490
vn 0.9952 0.0978 -0.0067
vn 0.9765 0.2156 -0.0067
vn 0.9997 -0.0163 0.0204
vn -0.0002 -0.0657 -0.9978
vn 0.9999 0.0153 0.0062
vn 0.9999 0.0068 0.0086
vn 0.0009 0.3405 0.9402
vn 0.0026 0.3457 0.9384
vn -0.0062 0.9079 0.4191
vn -0.6392 0.2557 0.7253
vn -0.7163 0.6695 0.1965
vn -0.6235 0.6634 0.4136
vn 0.0451 0.9621 0.2688
vn -0.6664 0.2108 0.7152
vn -0.7039 -0.1975 0.6823
vn -0.6239 -0.4105 0.6651
vn -0.9989 0.0360 -0.0294
vn -1.0000 0.0007 -0.0069
vn -0.9990 0.0243 -0.0386
vn -0.6987 -0.5722 0.4294
vn -0.6476 -0.7186 0.2534
vn -0.9968 0.0743 -0.0284
vn -0.9757 0.2185 -0.0177
vn -0.6979 -0.7162 -0.0071
vn -0.6304 -0.7408 -0.2322
vn -0.9944 0.0982 0.0383
vn -0.0001 0.0655 0.9979
vn -0.9645 0.2638 -0.0146
vn -0.9917 0.1278 0.0137
vn -0.9716 0.2358 -0.0210
vn -0.9131 0.4066 -0.0295
vn -0.0000 -0.0655 -0.9978
vn 0.9696 -0.2438 0.0190
vn 0.9065 -0.4215 0.0251
vn 0.8990 -0.4369 0.0314
vn 0.7958 -0.6040 0.0424
vn 0.8063 -0.5904 0.0362
vn 0.6752 -0.7362 0.0457
vn 0.6623 -0.7474 0.0518
vn 0.5187 -0.8533 0.0535
vn 0.5038 -0.8618 0.0593
vn -0.4164 0.9072 -0.0597
vn 0.5700 0.8199 -0.0539
vn 0.5717 0.8187 -0.0526
vn -0.5957 0.8010 -0.0598
vn -0.6554 0.7543 -0.0373
vn -0.6876 0.7243 -0.0511
vn -0.7958 0.6042 -0.0397
vn -0.7900 0.6120 -0.0368
vn -0.8204 -0.5705 0.0375
vn -0.9092 0.4155 -0.0273
vn 0.2823 0.9586 -0.0378
vn -0.2415 0.9667 -0.0846
vn 0.4600 0.8847 -0.0750
vn 0.8369 0.5468 -0.0256
vn -0.0000 -0.0655 -0.9979
vn 0.8761 0.4809 -0.0344
vn 0.9982 0.0608 -0.0008
vn 0.0002 -0.0654 -0.9979
vn 0.0001 -0.0658 -0.9978
vn -0.0004 -0.0656 -0.9978
vn 0.3140 -0.9470 0.0681
vn 0.8029 -0.5942 0.0481
vn 0.2688 -0.9614 0.0580
vn 0.8491 -0.5278 0.0221
vn 0.0001 0.0655 0.9978
vn 0.9991 0.0430 -0.0034
vn -0.2664 -0.9614 0.0684
vn -0.3431 -0.9380 0.0500
vn -0.7825 -0.6199 0.0588
vn -0.9990 0.0431 0.0088
vn -0.8745 -0.4849 0.0139
vn -0.4255 0.9038 -0.0458
vn -0.7570 0.6514 -0.0521
vn -0.8067 0.5899 -0.0342
vn -0.9924 0.1221 -0.0132
vn -0.4077 0.9113 -0.0571
vn -0.2641 0.9622 -0.0661
vn -0.2147 0.9747 -0.0613
vn -0.2367 0.9698 -0.0583
vn -0.0807 0.9895 -0.1195
vn -0.1266 0.9890 -0.0767
vn 0.0378 0.9950 -0.0925
vn 0.0011 0.9974 -0.0725
vn 0.2066 -0.9758 0.0710
vn 0.1442 -0.9872 0.0682
vn -0.0173 -0.9966 0.0807
vn -0.0032 -0.9972 0.0744
vn -0.0002 -0.0654 -0.9979
vn 0.0119 -0.9973 0.0720
vn -0.2022 -0.9776 0.0578
vn -0.1443 -0.9876 0.0617
vn -0.1671 -0.9837 0.0669
vn -0.0234 -0.9966 0.0792
vn -0.3265 -0.9433 0.0594
vn -0.5038 -0.8621 0.0540
vn -0.3428 -0.9372 0.0643
vn -0.5187 -0.8529 0.0587
vn 0.4077 0.9110 -0.0627
vn 0.2641 0.9626 -0.0605
vn 0.2367 0.9691 -0.0692
vn 0.4164 0.9072 -0.0597
vn -0.5717 0.8187 -0.0538
vn 0.6055 0.7941 -0.0522
vn 0.6131 0.7885 -0.0484
vn 0.7261 0.6859 -0.0486
vn 0.8032 0.5939 -0.0462
vn 0.7552 0.6548 -0.0308
vn 0.8204 -0.5704 0.0387
vn -0.9659 0.2583 -0.0170
vn -0.2588 0.9638 -0.0634
vn -0.7071 -0.7056 0.0464
vn -0.8760 0.4819 -0.0174
vn -0.9898 0.1393 -0.0294
vn -0.9999 -0.0106 0.0120
vn -0.8135 -0.5810 0.0260
vn -0.3425 -0.9378 0.0570
vn -0.7671 -0.6398 0.0476
vn -0.3019 -0.9511 0.0654
vn 0.1334 -0.9891 0.0619
vn 0.2018 -0.9765 0.0751
vn 0.7499 -0.6599 0.0465
vn 0.7022 -0.7110 0.0358
vn 0.9659 -0.2583 0.0170
vn 0.2588 -0.9638 0.0634
vn 0.9715 -0.2364 0.0202
vn 0.9638 0.2655 -0.0227
vn 0.9494 0.3137 -0.0154
vn 0.6389 0.7673 -0.0560
vn 0.6437 0.7631 -0.0572
vn -0.0002 -0.0656 -0.9978
vn 0.1888 0.9809 -0.0461
vn 0.0002 -0.0655 -0.9979
vn -0.4578 0.8882 -0.0389
vn -0.0269 0.9958 -0.0874
vn -0.6460 0.7602 -0.0695
vn 0.8216 -0.5688 0.0374
vn 0.9092 0.4155 -0.0273
vn 0.9131 0.4070 -0.0240
vn -0.9065 -0.4212 0.0304
vn -0.8990 -0.4372 0.0261
vn -0.9696 -0.2442 0.0131
vn -0.9765 -0.2147 0.0215
vn -0.9952 -0.0979 0.0061
vn -0.9990 -0.0430 -0.0094
vn -0.9997 -0.0163 -0.0196
vn -0.9997 -0.0188 -0.0181
vn 0.0003 0.0655 0.9979
vn 0.9756 0.2193 -0.0110
vn 0.9716 0.2365 -0.0101
vn 0.9962 0.0850 0.0161
vn 0.9989 0.0286 0.0359
vn 0.9989 0.0400 0.0239
vn 0.9917 -0.1249 0.0304
vn 1.0000 -0.0047 0.0035
vn 0.9944 -0.0923 0.0509
vn 0.9757 -0.2189 0.0111
vn 0.9716 -0.2365 0.0101
vn 0.9645 -0.2634 0.0201
vn -0.9696 0.2442 -0.0131
vn -0.9065 0.4212 -0.0304
vn -0.9765 0.2146 -0.0215
vn -0.9951 0.0982 -0.0062
vn -0.9997 0.0188 0.0181
vn -0.9990 0.0430 0.0094
vn -0.9997 0.0164 0.0197
vn 0.0002 -0.0657 -0.9978
vn 0.0184 0.9733 0.2286
vn -0.0378 0.9881 -0.1490
vn -0.9999 0.0143 -0.0082
vn 0.0222 0.8449 -0.5344
vn -0.9999 0.0057 -0.0094
vn 0.0315 0.2194 -0.9751
vn -0.0552 0.5518 -0.8322
vn 0.7160 -0.3113 -0.6249
vn -0.0356 -0.4493 -0.8927
vn 0.7200 0.3789 -0.5815
vn 0.5944 0.2002 -0.7789
vn 0.6298 -0.4888 -0.6037
vn 0.6601 -0.7389 -0.1351
vn 0.6810 -0.7263 -0.0939
vn 0.0074 -0.9903 -0.1388
vn -0.0052 -0.5266 -0.8501
vn 0.6799 -0.5731 0.4576
vn 0.0171 -0.7816 0.6236
vn -0.0264 -0.9732 -0.2286
vn 0.6402 -0.6449 0.4174
vn 0.9947 0.0871 -0.0543
vn 0.9918 0.1252 -0.0262
vn 1.0000 -0.0003 -0.0063
vn 0.6353 -0.1359 0.7602
vn 0.9989 -0.0297 -0.0350
vn 0.6258 0.4969 0.6012
vn 0.7046 0.2849 0.6499
vn 0.6452 -0.1195 0.7546
vn 0.9989 -0.0396 -0.0250
vn 0.0191 -0.1508 0.9884
vn -0.0026 -0.2200 0.9755
vn -0.0159 0.4080 0.9128
vn -0.9999 -0.0143 0.0082
vn -0.9999 -0.0057 0.0094
vn -0.0239 -0.8450 0.5342
vn 0.6987 0.6235 0.3508
vn 0.0157 0.5263 0.8502
vn -0.0323 0.8704 0.4912
vn 0.9968 -0.0774 -0.0184
vn 0.6475 0.7457 0.1571
vn 0.6304 0.7040 -0.3272
vn 0.6979 0.7091 -0.1008
vn 0.9645 0.2634 -0.0201
vn -0.8063 -0.5901 0.0415
vn -0.0001 -0.0657 -0.9978
vn -0.7958 -0.6044 0.0371
vn -0.6753 -0.7358 0.0510
vn -0.6623 -0.7478 0.0465
vn 0.7071 0.7056 -0.0464
vn 0.9604 -0.2782 0.0155
vn 0.0049 0.9980 -0.0625
vn -0.0378 0.9985 -0.0394
vn 0.1266 0.9910 -0.0430
vn 0.0002 0.0656 0.9978
vn -0.0000 0.0658 0.9978
vn -0.2503 0.5454 -0.8000
vn 0.0955 0.9952 -0.0206
vn -0.7230 0.6118 -0.3208
vn -0.4504 0.6783 -0.5806
vn -0.7132 0.6930 -0.1053
vn -0.9942 -0.0402 -0.0995
vn -0.9550 -0.0088 -0.2964
vn -0.6431 -0.0902 -0.7605
vn -0.5850 0.7266 0.3603
vn -0.7337 0.6596 0.1628
vn -0.8284 0.0189 0.5598
vn -0.8740 0.0370 0.4845
vn -0.4543 0.6621 0.5960
vn -0.2171 0.7471 0.6283
vn -0.2951 0.1369 0.9456
vn -0.1164 0.0663 0.9910
vn 0.1665 0.6985 0.6960
vn 0.2172 0.0398 0.9753
vn 0.6223 0.6749 0.3964
vn 0.1662 0.6986 0.6959
vn 0.8165 0.0554 0.5747
vn 0.8126 0.0581 0.5799
vn 0.6163 0.6788 0.3994
vn 0.7353 0.6686 -0.1111
vn 0.9950 0.0294 -0.0957
vn 0.9582 -0.0513 -0.2813
vn 0.0391 -0.9978 0.0542
vn 0.0102 -0.9987 0.0491
vn 0.4287 -0.0191 -0.9033
vn 0.7722 -0.0805 -0.6303
vn 0.0173 -0.9985 0.0522
vn -0.0052 -0.9983 0.0585
vn 0.0639 -0.1006 -0.9929
vn -0.4346 -0.0388 -0.8998
vn 0.0519 0.6637 -0.7462
vn 0.4544 0.5724 -0.6825
vn 0.5584 0.6684 -0.4914
vn -0.0258 0.9993 -0.0284
vn -0.0921 0.9947 -0.0464
vn 0.7565 0.6241 -0.1954
vn 0.0760 0.9931 -0.0888
vn 0.0268 0.9944 -0.1024
vn -0.0229 -0.9980 0.0595
vn 0.2192 0.9734 -0.0673
vn 0.1671 -0.9840 0.0624
vn 0.3265 -0.9430 0.0647
vn 0.3428 -0.9376 0.0590
vn 0.9765 -0.2156 0.0068
vn 0.9999 -0.0068 -0.0085
vn 0.9997 0.0163 -0.0204
vn 0.9951 -0.0982 0.0067
vn 0.9999 -0.0152 -0.0062
vn -0.0222 -0.9077 -0.4191
vn 0.0552 -0.6560 -0.7528
vn -0.0315 -0.3453 -0.9380
vn -0.7141 0.1846 -0.6753
vn 0.0293 0.2653 -0.9637
vn -0.5944 -0.3004 -0.7460
vn -0.7200 -0.4518 -0.5268
vn -0.6249 0.4076 -0.6659
vn -0.6986 0.6029 -0.3853
vn -0.0111 0.4106 -0.9118
vn 0.0299 0.8543 -0.5188
vn 0.9997 0.0136 -0.0216
vn -0.0132 0.9351 -0.3542
vn 0.9990 0.0413 -0.0149
vn 0.0378 -0.9991 -0.0183
vn -0.0184 -0.9350 0.3541
vn 0.9990 -0.0414 0.0150
vn -0.0157 -0.4106 0.9117
vn 0.0322 -0.7987 0.6009
vn 0.9997 -0.0136 0.0216
vn -1.0000 0.0051 0.0028
vn 0.0159 -0.2849 0.9584
vn -0.6239 0.7539 -0.2059
vn 0.8063 0.5904 -0.0362
vn -0.0002 -0.0655 -0.9979
vn -0.6131 -0.7880 0.0553
vn -0.6055 -0.7941 0.0522
vn -0.7261 -0.6864 0.0417
vn 0.0005 -0.0655 -0.9979
vn -0.0001 -0.0659 -0.9978
vn 0.9991 -0.0426 0.0092
vn 0.8761 -0.4804 0.0413
vn 0.8066 -0.5905 0.0250
vn 0.5192 -0.8523 0.0637
vn 0.0859 -0.9933 0.0768
vn 0.4221 -0.9051 0.0519
vn 0.5038 0.8618 -0.0593
vn 0.1266 -0.9910 0.0430
vn -0.7082 -0.6313 0.3161
vn 0.0956 -0.9952 0.0206
vn -0.7204 -0.6738 -0.1645
vn 0.2192 -0.9734 0.0673
vn 0.0759 -0.9932 0.0888
vn -0.7198 -0.6760 -0.1577
vn -0.2192 -0.9738 0.0607
vn 0.0131 0.9973 -0.0720
vn 0.8773 -0.0312 -0.4790
vn 0.0057 0.9973 -0.0727
vn 0.2809 -0.0791 -0.9565
vn 0.3851 -0.0522 -0.9214
vn -0.5187 0.8529 -0.0587
vn -0.5038 0.8621 -0.0540
vn -0.6623 0.7478 -0.0465
vn 0.0002 0.0655 0.9978
vn -0.4578 -0.8882 0.0389
s 0
usemtl Material.002
f 1//1 2//1 5//1
f 3//2 2//2 1//2
f 1//3 4//3 3//3
f 5//4 4//4 1//4
f 6//5 8//5 5//5
f 5//6 7//6 6//6
f 7//7 5//7 2//7
f 4//8 5//8 8//8
f 9//9 8//9 10//9
f 8//9 9//9 4//9
f 11//10 10//10 8//10
f 8//3 6//3 11//3
f 10//10 11//10 12//10
f 13//11 12//11 11//11
f 11//12 14//12 13//12
f 15//3 11//3 6//3
f 14//8 11//8 15//8
f 15//13 17//13 14//13
f 6//14 16//14 15//14
f 17//15 15//15 16//15
f 17//16 16//16 20//16
f 18//17 17//17 20//17
f 18//17 19//17 17//17
f 19//18 14//18 17//18
f 18//19 20//19 21//19
f 23//20 21//20 20//20
f 22//21 20//21 16//21
f 20//22 22//22 23//22
f 24//23 23//23 22//23
f 21//3 23//3 12//3
f 12//3 23//3 26//3
f 23//3 24//3 25//3
f 26//3 23//3 25//3
f 29//24 26//24 27//24
f 28//25 27//25 26//25
f 26//26 25//26 28//26
f 29//3 10//3 26//3
f 12//3 26//3 10//3
f 31//27 30//27 29//27
f 32//28 29//28 30//28
f 27//29 31//29 29//29
f 9//3 10//3 29//3
f 29//3 32//3 9//3
f 30//30 33//30 32//30
f 35//31 32//31 33//31
f 35//3 34//3 32//3
f 9//3 32//3 34//3
f 33//32 36//32 35//32
f 38//33 35//33 36//33
f 35//3 37//3 34//3
f 38//3 37//3 35//3
f 41//3 39//3 38//3
f 38//3 39//3 42//3
f 36//33 43//33 38//33
f 38//34 42//34 40//34
f 38//3 40//3 37//3
f 41//35 38//35 43//35
f 43//36 46//36 41//36
f 44//16 18//16 43//16
f 44//37 43//37 47//37
f 43//17 18//17 45//17
f 43//17 36//17 47//17
f 45//17 46//17 43//17
f 47//17 33//17 48//17
f 48//38 50//38 47//38
f 47//39 49//39 44//39
f 49//40 47//40 50//40
f 36//17 33//17 47//17
f 50//41 48//41 53//41
f 50//3 52//3 49//3
f 52//3 50//3 51//3
f 53//3 51//3 50//3
f 54//42 53//42 48//42
f 3//3 51//3 53//3
f 53//43 54//43 3//43
f 54//17 33//17 30//17
f 33//17 54//17 48//17
f 2//44 3//44 54//44
f 54//17 30//17 2//17
f 51//45 37//45 52//45
f 40//46 52//46 37//46
f 13//3 55//3 52//3
f 52//46 40//46 13//46
f 49//3 52//3 55//3
f 55//47 44//47 49//47
f 44//48 55//48 19//48
f 55//49 13//49 14//49
f 14//50 19//50 55//50
f 51//3 3//3 4//3
f 4//51 34//51 51//51
f 37//45 51//45 34//45
f 46//52 57//52 56//52
f 56//53 41//53 46//53
f 58//54 57//54 46//54
f 45//17 58//17 46//17
f 39//55 59//55 58//55
f 58//56 45//56 39//56
f 60//57 58//57 59//57
f 58//58 60//58 57//58
f 60//59 62//59 57//59
f 65//60 61//60 60//60
f 61//61 62//61 60//61
f 63//62 60//62 64//62
f 60//63 63//63 65//63
f 59//64 64//64 60//64
f 66//65 65//65 63//65
f 65//66 66//66 67//66
f 65//67 67//67 68//67
f 68//68 61//68 65//68
f 71//69 69//69 68//69
f 61//70 68//70 69//70
f 68//71 70//71 71//71
f 70//72 68//72 67//72
f 74//73 71//73 72//73
f 71//74 57//74 72//74
f 73//75 71//75 74//75
f 71//76 73//76 69//76
f 71//77 70//77 57//77
f 75//78 76//78 74//78
f 72//79 75//79 74//79
f 77//80 74//80 76//80
f 74//81 77//81 73//81
f 77//82 79//82 78//82
f 78//83 73//83 77//83
f 79//84 77//84 80//84
f 76//85 80//85 77//85
f 82//86 81//86 80//86
f 79//87 80//87 81//87
f 80//88 76//88 82//88
f 84//89 82//89 83//89
f 83//90 82//90 76//90
f 81//91 82//91 84//91
f 85//92 84//92 86//92
f 88//93 84//93 85//93
f 84//94 87//94 81//94
f 84//95 83//95 86//95
f 84//96 88//96 87//96
f 85//97 66//97 88//97
f 88//98 63//98 89//98
f 89//99 87//99 88//99
f 63//100 88//100 66//100
f 89//101 63//101 64//101
f 90//102 89//102 64//102
f 87//103 89//103 90//103
f 90//104 64//104 91//104
f 79//105 90//105 91//105
f 81//106 90//106 79//106
f 90//107 81//107 87//107
f 91//108 93//108 92//108
f 92//109 62//109 91//109
f 91//110 62//110 78//110
f 83//111 91//111 86//111
f 86//112 91//112 64//112
f 91//113 78//113 79//113
f 83//114 93//114 91//114
f 94//115 92//115 93//115
f 93//116 83//116 96//116
f 93//117 95//117 94//117
f 96//3 95//3 93//3
f 95//3 96//3 98//3
f 96//118 83//118 75//118
f 98//119 96//119 97//119
f 75//120 97//120 96//120
f 95//3 98//3 103//3
f 97//121 99//121 98//121
f 100//122 98//122 99//122
f 100//3 101//3 98//3
f 102//3 98//3 101//3
f 103//123 98//123 102//123
f 95//124 103//124 104//124
f 106//125 104//125 103//125
f 102//126 105//126 103//126
f 103//127 105//127 106//127
f 107//17 106//17 108//17
f 107//17 110//17 106//17
f 108//128 106//128 105//128
f 109//17 106//17 110//17
f 106//17 109//17 104//17
f 107//129 111//129 110//129
f 112//130 110//130 111//130
f 110//131 112//131 109//131
f 114//132 112//132 113//132
f 111//34 113//34 112//34
f 112//114 114//114 115//114
f 115//133 116//133 112//133
f 109//134 112//134 116//134
f 99//16 104//16 116//16
f 109//37 116//37 104//37
f 116//135 117//135 118//135
f 117//136 116//136 115//136
f 118//137 99//137 116//137
f 118//17 119//17 99//17
f 118//138 117//138 119//138
f 120//139 119//139 117//139
f 119//140 120//140 122//140
f 121//17 99//17 119//17
f 119//16 122//16 121//16
f 122//17 123//17 121//17
f 122//141 125//141 123//141
f 122//142 124//142 125//142
f 124//143 122//143 120//143
f 125//144 124//144 126//144
f 123//17 125//17 126//17
f 129//145 126//145 127//145
f 126//146 128//146 127//146
f 128//147 126//147 124//147
f 126//17 129//17 123//17
f 129//148 133//148 130//148
f 130//149 131//149 129//149
f 131//150 132//150 129//150
f 123//151 129//151 132//151
f 133//17 129//17 127//17
f 135//152 130//152 133//152
f 133//17 137//17 134//17
f 133//153 134//153 135//153
f 136//154 133//154 127//154
f 136//17 107//17 133//17
f 108//17 137//17 133//17
f 107//17 108//17 133//17
f 139//155 138//155 137//155
f 140//156 137//156 138//156
f 137//157 108//157 139//157
f 134//158 137//158 141//158
f 137//59 140//59 141//59
f 144//159 141//159 142//159
f 142//160 141//160 140//160
f 143//161 141//161 145//161
f 141//162 143//162 146//162
f 141//163 144//163 145//163
f 134//164 141//164 146//164
f 147//165 146//165 148//165
f 146//5 147//5 149//5
f 146//166 135//166 134//166
f 148//167 146//167 143//167
f 138//3 146//3 149//3
f 135//3 146//3 138//3
f 149//168 151//168 140//168
f 138//169 149//169 140//169
f 147//34 152//34 149//34
f 149//170 150//170 153//170
f 149//171 152//171 150//171
f 149//172 154//172 151//172
f 149//173 153//173 154//173
f 154//174 155//174 156//174
f 155//175 154//175 153//175
f 156//176 151//176 154//176
f 158//177 156//177 155//177
f 143//178 157//178 156//178
f 156//179 148//179 143//179
f 151//180 156//180 157//180
f 156//181 158//181 148//181
f 158//182 155//182 159//182
f 159//183 160//183 158//183
f 147//184 158//184 152//184
f 158//185 147//185 148//185
f 160//186 152//186 158//186
f 160//187 159//187 161//187
f 161//188 162//188 160//188
f 162//189 152//189 160//189
f 162//190 165//190 152//190
f 162//191 161//191 163//191
f 163//192 164//192 162//192
f 164//193 165//193 162//193
f 142//194 166//194 165//194
f 165//17 166//17 167//17
f 165//195 167//195 168//195
f 142//196 165//196 164//196
f 168//197 152//197 165//197
f 169//198 168//198 167//198
f 170//199 150//199 168//199
f 168//171 150//171 152//171
f 169//3 170//3 168//3
f 150//200 170//200 171//200
f 172//201 171//201 170//201
f 170//202 173//202 172//202
f 173//3 170//3 169//3
f 174//3 173//3 169//3
f 173//123 174//123 176//123
f 173//203 176//203 175//203
f 175//204 172//204 173//204
f 177//116 176//116 174//116
f 176//3 177//3 179//3
f 178//205 175//205 176//205
f 176//206 179//206 178//206
f 182//3 179//3 177//3
f 180//207 178//207 179//207
f 179//208 181//208 180//208
f 182//3 181//3 179//3
f 185//209 182//209 183//209
f 186//210 183//210 182//210
f 184//3 187//3 182//3
f 184//3 182//3 177//3
f 185//3 181//3 182//3
f 182//211 187//211 186//211
f 188//3 187//3 184//3
f 188//3 189//3 187//3
f 187//212 189//212 186//212
f 189//3 188//3 191//3
f 190//213 186//213 189//213
f 189//214 191//214 190//214
f 192//3 191//3 188//3
f 193//3 191//3 192//3
f 191//215 193//215 194//215
f 194//216 190//216 191//216
f 194//17 195//17 190//17
f 194//17 196//17 195//17
f 196//17 194//17 197//17
f 197//217 194//217 193//217
f 198//17 197//17 172//17
f 172//17 197//17 171//17
f 197//21 198//21 196//21
f 193//217 169//217 197//217
f 167//218 197//218 169//218
f 197//17 167//17 171//17
f 201//219 198//219 199//219
f 200//220 199//220 198//220
f 175//154 200//154 198//154
f 198//17 172//17 175//17
f 198//221 201//221 196//221
f 203//222 196//222 201//222
f 199//223 202//223 201//223
f 201//123 202//123 203//123
f 196//224 203//224 195//224
f 204//225 195//225 203//225
f 203//226 205//226 204//226
f 205//3 203//3 202//3
f 206//227 204//227 205//227
f 205//11 188//11 206//11
f 188//11 205//11 192//11
f 202//46 192//46 205//46
f 184//10 206//10 188//10
f 206//10 184//10 207//10
f 207//3 208//3 206//3
f 209//3 206//3 208//3
f 204//228 206//228 209//228
f 208//229 210//229 209//229
f 209//230 210//230 204//230
f 210//231 208//231 211//231
f 210//16 211//16 186//16
f 212//154 210//154 190//154
f 212//232 204//232 210//232
f 210//233 186//233 190//233
f 195//17 212//17 190//17
f 195//234 204//234 212//234
f 214//235 211//235 208//235
f 211//17 213//17 186//17
f 211//236 214//236 213//236
f 208//3 207//3 214//3
f 215//237 213//237 214//237
f 214//3 207//3 215//3
f 217//238 216//238 215//238
f 213//239 215//239 216//239
f 218//34 215//34 207//34
f 215//3 218//3 217//3
f 207//9 177//9 218//9
f 174//51 218//51 177//51
f 218//51 174//51 219//51
f 219//3 220//3 218//3
f 217//3 218//3 220//3
f 220//3 219//3 199//3
f 199//240 200//240 220//240
f 221//241 220//241 200//241
f 220//242 221//242 217//242
f 200//17 175//17 221//17
f 216//243 217//243 221//243
f 216//17 221//17 178//17
f 175//17 178//17 221//17
f 202//3 199//3 219//3
f 219//45 222//45 202//45
f 222//45 219//45 174//45
f 169//3 222//3 174//3
f 192//46 202//46 222//46
f 193//3 192//3 222//3
f 193//3 222//3 169//3
f 216//17 183//17 213//17
f 183//17 216//17 178//17
f 186//17 213//17 183//17
f 177//9 207//9 184//9
f 183//244 223//244 185//244
f 225//245 185//245 223//245
f 185//3 224//3 181//3
f 225//3 224//3 185//3
f 228//246 225//246 226//246
f 223//247 226//247 225//247
f 228//248 227//248 225//248
f 227//249 229//249 225//249
f 224//8 225//8 229//8
f 230//250 231//250 229//250
f 230//251 229//251 227//251
f 224//8 229//8 232//8
f 232//3 229//3 231//3
f 232//252 235//252 233//252
f 224//253 232//253 233//253
f 234//254 232//254 237//254
f 236//255 232//255 234//255
f 232//256 231//256 237//256
f 232//257 236//257 235//257
f 238//258 240//258 237//258
f 241//259 238//259 237//259
f 231//223 239//223 237//223
f 237//260 239//260 241//260
f 234//261 237//261 240//261
f 245//262 241//262 239//262
f 241//17 243//17 242//17
f 241//160 242//160 244//160
f 241//17 245//17 243//17
f 238//160 241//160 244//160
f 245//17 247//17 246//17
f 245//17 246//17 243//17
f 247//263 245//263 248//263
f 239//264 248//264 245//264
f 248//265 249//265 247//265
f 248//3 250//3 249//3
f 250//3 248//3 251//3
f 239//3 251//3 248//3
f 250//266 251//266 243//266
f 242//267 243//267 251//267
f 251//268 231//268 242//268
f 239//34 231//34 251//34
f 243//269 246//269 250//269
f 254//270 250//270 246//270
f 252//3 250//3 254//3
f 253//3 250//3 252//3
f 249//3 250//3 253//3
f 257//271 254//271 255//271
f 246//270 255//270 254//270
f 252//3 254//3 256//3
f 256//3 254//3 257//3
f 255//272 258//272 257//272
f 260//273 257//273 258//273
f 256//3 257//3 259//3
f 259//3 257//3 260//3
f 262//274 260//274 261//274
f 258//275 261//275 260//275
f 262//3 259//3 260//3
f 263//276 262//276 261//276
f 263//3 264//3 262//3
f 264//3 259//3 262//3
f 264//3 263//3 266//3
f 264//277 267//277 259//277
f 266//278 265//278 264//278
f 267//277 264//277 265//277
f 268//3 267//3 271//3
f 269//3 267//3 268//3
f 267//3 269//3 270//3
f 270//279 259//279 267//279
f 265//3 271//3 267//3
f 271//3 265//3 272//3
f 272//280 273//280 271//280
f 274//281 271//281 273//281
f 271//282 274//282 268//282
f 258//17 274//17 261//17
f 273//158 261//158 274//158
f 275//17 274//17 258//17
f 275//283 268//283 274//283
f 276//17 275//17 258//17
f 276//284 269//284 275//284
f 268//285 275//285 269//285
f 269//286 276//286 278//286
f 277//58 276//58 258//58
f 277//287 278//287 276//287
f 278//3 270//3 269//3
f 279//114 270//114 278//114
f 278//288 277//288 279//288
f 280//3 282//3 279//3
f 279//289 281//289 280//289
f 281//290 279//290 277//290
f 270//3 279//3 282//3
f 284//123 282//123 280//123
f 282//3 284//3 283//3
f 283//291 252//291 282//291
f 282//292 256//292 270//292
f 256//292 282//292 252//292
f 280//293 285//293 284//293
f 286//294 284//294 285//294
f 287//3 283//3 284//3
f 284//295 286//295 287//295
f 283//3 287//3 288//3
f 290//3 288//3 287//3
f 289//296 287//296 286//296
f 287//297 289//297 290//297
f 291//298 288//298 290//298
f 290//299 289//299 291//299
f 272//300 265//300 291//300
f 291//301 292//301 272//301
f 288//227 291//227 265//227
f 292//302 291//302 289//302
f 292//141 289//141 293//141
f 293//17 294//17 292//17
f 273//303 272//303 292//303
f 273//194 292//194 294//194
f 261//304 294//304 263//304
f 295//305 263//305 294//305
f 294//306 296//306 295//306
f 294//141 261//141 273//141
f 294//17 297//17 296//17
f 293//17 297//17 294//17
f 298//307 299//307 297//307
f 297//308 293//308 298//308
f 300//309 297//309 299//309
f 300//158 296//158 297//158
f 299//310 301//310 300//310
f 301//311 302//311 300//311
f 303//312 300//312 302//312
f 304//313 300//313 303//313
f 305//314 300//314 304//314
f 306//315 296//315 300//315
f 300//315 305//315 306//315
f 308//316 307//316 306//316
f 296//317 306//317 307//317
f 308//318 306//318 309//318
f 309//319 306//319 310//319
f 311//320 310//320 306//320
f 306//141 305//141 311//141
f 311//321 313//321 312//321
f 310//322 311//322 312//322
f 313//137 311//137 305//137
f 312//323 313//323 314//323
f 315//324 314//324 313//324
f 25//325 315//325 313//325
f 313//326 28//326 25//326
f 316//158 313//158 305//158
f 313//17 316//17 28//17
f 317//327 24//327 316//327
f 22//328 316//328 24//328
f 316//329 305//329 317//329
f 22//17 28//17 316//17
f 305//330 321//330 317//330
f 301//132 318//132 317//132
f 318//8 315//8 317//8
f 301//331 317//331 320//331
f 321//332 319//332 317//332
f 320//333 317//333 319//333
f 317//334 315//334 24//334
f 322//335 319//335 321//335
f 321//336 323//336 322//336
f 305//337 324//337 321//337
f 323//338 321//338 324//338
f 305//339 304//339 324//339
f 325//340 324//340 304//340
f 324//341 325//341 323//341
f 310//342 325//342 326//342
f 304//343 326//343 325//343
f 312//344 323//344 325//344
f 325//345 310//345 312//345
f 326//346 309//346 310//346
f 326//347 308//347 309//347
f 308//348 326//348 327//348
f 303//349 327//349 326//349
f 326//350 304//350 303//350
f 329//351 327//351 328//351
f 302//352 328//352 327//352
f 327//353 303//353 302//353
f 327//354 329//354 308//354
f 329//355 307//355 308//355
f 318//356 307//356 329//356
f 318//357 329//357 330//357
f 328//358 330//358 329//358
f 315//359 330//359 331//359
f 332//360 331//360 330//360
f 330//361 333//361 332//361
f 330//362 328//362 333//362
f 330//363 315//363 318//363
f 334//364 333//364 328//364
f 333//365 334//365 320//365
f 320//366 332//366 333//366
f 334//367 302//367 301//367
f 320//368 334//368 301//368
f 328//369 302//369 334//369
f 331//370 332//370 322//370
f 332//371 320//371 319//371
f 319//372 322//372 332//372
f 315//373 331//373 314//373
f 322//374 314//374 331//374
f 323//375 312//375 314//375
f 314//376 322//376 323//376
f 307//227 318//227 301//227
f 25//223 24//223 315//223
f 307//3 299//3 295//3
f 307//377 295//377 296//377
f 301//114 299//114 307//114
f 298//3 263//3 299//3
f 295//3 299//3 263//3
f 335//378 298//378 293//378
f 335//34 266//34 298//34
f 266//3 263//3 298//3
f 249//114 253//114 335//114
f 266//379 335//379 253//379
f 293//380 336//380 335//380
f 249//381 335//381 336//381
f 247//17 336//17 286//17
f 336//16 289//16 286//16
f 289//17 336//17 293//17
f 336//382 247//382 249//382
f 265//278 266//278 288//278
f 253//383 288//383 266//383
f 288//383 253//383 283//383
f 247//17 286//17 285//17
f 247//17 285//17 246//17
f 285//384 280//384 281//384
f 285//17 281//17 246//17
f 252//291 283//291 253//291
f 281//17 277//17 246//17
f 255//17 246//17 277//17
f 277//17 258//17 255//17
f 259//279 270//279 256//279
f 337//385 244//385 338//385
f 244//386 337//386 226//386
f 338//387 244//387 242//387
f 233//388 238//388 244//388
f 244//389 226//389 233//389
f 340//390 337//390 338//390
f 338//391 242//391 339//391
f 341//392 338//392 339//392
f 338//393 341//393 340//393
f 339//394 343//394 341//394
f 240//395 341//395 343//395
f 341//396 240//396 342//396
f 342//397 340//397 341//397
f 344//398 345//398 343//398
f 343//399 339//399 344//399
f 234//400 343//400 345//400
f 343//401 234//401 240//401
f 345//402 344//402 230//402
f 230//403 346//403 345//403
f 236//404 345//404 346//404
f 345//405 236//405 234//405
f 230//406 347//406 346//406
f 236//407 346//407 347//407
f 227//408 348//408 347//408
f 347//409 230//409 227//409
f 235//410 347//410 348//410
f 347//411 235//411 236//411
f 348//412 227//412 228//412
f 228//413 349//413 348//413
f 350//414 348//414 349//414
f 348//415 350//415 235//415
f 235//416 350//416 233//416
f 350//417 352//417 233//417
f 351//418 352//418 350//418
f 350//419 349//419 351//419
f 352//420 238//420 233//420
f 342//421 238//421 352//421
f 352//422 351//422 340//422
f 340//423 342//423 352//423
f 337//424 340//424 351//424
f 351//425 353//425 337//425
f 353//426 351//426 349//426
f 353//427 226//427 337//427
f 226//428 353//428 228//428
f 349//429 228//429 353//429
f 339//430 231//430 344//430
f 344//431 231//431 230//431
f 238//432 342//432 240//432
f 242//433 231//433 339//433
f 233//434 354//434 224//434
f 226//389 354//389 233//389
f 181//435 224//435 354//435
f 223//17 180//17 354//17
f 354//436 180//436 181//436
f 354//154 226//154 223//154
f 223//17 183//17 180//17
f 178//17 180//17 183//17
f 171//437 166//437 150//437
f 166//17 171//17 167//17
f 355//438 357//438 166//438
f 166//439 140//439 355//439
f 166//440 356//440 150//440
f 166//21 142//21 140//21
f 357//441 356//441 166//441
f 163//442 356//442 357//442
f 357//443 358//443 163//443
f 358//444 357//444 355//444
f 144//445 358//445 359//445
f 355//446 359//446 358//446
f 358//447 144//447 164//447
f 164//448 163//448 358//448
f 359//449 145//449 144//449
f 145//450 359//450 157//450
f 359//451 355//451 360//451
f 360//452 157//452 359//452
f 355//453 140//453 360//453
f 157//454 360//454 151//454
f 151//455 360//455 140//455
f 356//456 163//456 161//456
f 161//457 361//457 356//457
f 361//458 150//458 356//458
f 159//459 153//459 361//459
f 361//460 161//460 159//460
f 153//461 150//461 361//461
f 142//462 164//462 144//462
f 153//463 159//463 155//463
f 157//464 143//464 145//464
f 105//465 139//465 108//465
f 362//3 130//3 139//3
f 362//3 139//3 105//3
f 138//3 139//3 135//3
f 135//3 139//3 130//3
f 363//3 130//3 362//3
f 362//3 105//3 102//3
f 364//292 362//292 113//292
f 102//279 113//279 362//279
f 362//292 364//292 363//292
f 113//3 365//3 364//3
f 366//114 364//114 365//114
f 367//123 364//123 366//123
f 364//3 367//3 368//3
f 368//291 363//291 364//291
f 128//114 368//114 367//114
f 124//227 368//227 128//227
f 368//226 124//226 370//226
f 370//383 369//383 368//383
f 363//291 368//291 369//291
f 120//466 370//466 124//466
f 370//3 120//3 371//3
f 369//383 370//383 372//383
f 371//278 372//278 370//278
f 373//3 369//3 372//3
f 100//3 372//3 101//3
f 373//3 372//3 100//3
f 372//278 371//278 101//278
f 132//3 369//3 373//3
f 121//467 123//467 373//467
f 373//468 100//468 121//468
f 132//469 373//469 123//469
f 371//34 115//34 114//34
f 115//470 371//470 117//470
f 117//471 371//471 120//471
f 114//277 101//277 371//277
f 369//3 131//3 363//3
f 132//3 131//3 369//3
f 367//472 127//472 128//472
f 366//473 127//473 367//473
f 127//474 366//474 136//474
f 365//475 136//475 366//475
f 365//123 113//123 111//123
f 111//476 107//476 365//476
f 136//477 365//477 107//477
f 131//3 130//3 363//3
f 99//122 121//122 100//122
f 101//277 114//277 102//277
f 113//279 102//279 114//279
f 94//17 104//17 99//17
f 104//478 94//478 95//478
f 94//17 99//17 97//17
f 97//17 75//17 92//17
f 92//17 94//17 97//17
f 75//388 62//388 92//388
f 59//298 86//298 64//298
f 59//298 56//298 86//298
f 85//479 86//479 56//479
f 66//480 85//480 374//480
f 374//481 85//481 56//481
f 374//482 67//482 66//482
f 57//483 374//483 56//483
f 70//484 374//484 57//484
f 67//485 374//485 70//485
f 76//486 75//486 83//486
f 78//487 62//487 375//487
f 73//488 78//488 375//488
f 375//489 62//489 61//489
f 69//490 375//490 61//490
f 375//491 69//491 73//491
f 62//388 75//388 72//388
f 62//16 72//16 57//16
f 56//3 59//3 41//3
f 41//3 59//3 39//3
f 45//492 18//492 42//492
f 42//493 39//493 45//493
f 19//137 18//137 44//137
f 40//34 42//34 21//34
f 21//494 42//494 18//494
f 40//3 21//3 12//3
f 12//11 13//11 40//11
f 34//51 4//51 9//51
f 7//17 31//17 27//17
f 2//17 30//17 31//17
f 2//158 31//158 7//158
f 27//17 28//17 22//17
f 27//495 16//495 7//495
f 27//158 22//158 16//158
f 16//496 6//496 7//496
