# Blender 5.0.1
# www.blender.org
mtllib torso_z_link_visual_17.mtl
o i01.torso.topStom.full.018_visual.001
v 0.172527 -0.051151 -0.030400
v 0.226356 -0.049695 -0.008240
v 0.129965 -0.052889 -0.056833
v 0.183887 -0.025246 -0.026206
v 0.122527 -0.044993 -0.000268
v 0.201592 -0.042522 0.037307
v 0.119954 -0.027829 -0.065441
v 0.152950 -0.027865 -0.073442
v 0.067223 -0.031360 -0.119150
v 0.105832 -0.054202 -0.076844
v 0.099932 -0.030985 -0.120873
v 0.093714 -0.038959 -0.089382
v 0.081204 -0.055797 -0.100300
v 0.056510 -0.031639 -0.054549
v 0.070599 -0.047617 -0.039859
v 0.070812 -0.068601 -0.037254
v 0.056442 -0.053210 -0.052356
v 0.043366 -0.070423 -0.065128
v 0.035746 -0.057853 0.001519
v -0.003127 -0.034693 0.006412
v 0.004487 -0.059960 -0.030482
v 0.014223 -0.072775 -0.100786
v -0.018900 -0.044315 0.000769
v -0.064706 -0.038866 0.029091
v -0.034369 -0.046586 0.005641
v -0.046162 -0.065605 -0.105462
v -0.023438 -0.077256 -0.168921
v -0.095369 -0.073346 -0.229841
v -0.164807 -0.050138 -0.138943
v -0.132511 -0.044923 -0.066304
v -0.106993 -0.021245 -0.028144
v -0.141924 -0.025114 -0.086978
v -0.156672 -0.014523 -0.039794
v -0.194453 -0.019640 -0.117621
v -0.176849 -0.030911 -0.175145
v -0.184413 -0.054071 -0.205310
v -0.196334 -0.038529 -0.290547
v -0.222812 -0.025975 -0.213958
v -0.202120 -0.041992 -0.135420
v -0.226002 -0.048766 -0.234270
v -0.231111 -0.030953 -0.289669
v -0.230829 -0.052041 -0.286645
v -0.231854 -0.016956 -0.318525
v -0.346964 0.041855 -0.322450
v -0.346936 -0.010178 -0.319032
v -0.231584 -0.038031 -0.317140
v -0.196125 -0.024411 -0.318018
v -0.196125 -0.043100 -0.316791
v -0.177942 -0.046677 -0.316545
v -0.177942 0.041860 -0.322365
v -0.194532 0.043538 -0.296628
v -0.123560 -0.073488 -0.291403
v -0.336611 0.049639 -0.204068
v -0.195722 -0.059613 -0.288553
v -0.123560 0.043391 -0.299088
v -0.320654 0.054101 -0.136214
v -0.297671 0.058429 -0.070381
v -0.267923 0.062576 -0.007318
v -0.288527 -0.008022 -0.043709
v -0.319089 -0.013459 -0.126447
v -0.244901 -0.034452 -0.149200
v -0.335609 -0.017912 -0.194164
v -0.346656 -0.023735 -0.282871
v -0.345375 0.045091 -0.273234
v -0.161817 -0.036620 -0.046722
v -0.118665 -0.032222 0.018312
v -0.207958 0.000740 0.089487
v -0.247711 -0.003030 0.032165
v -0.231738 0.066496 0.052290
v -0.189492 0.070147 0.107817
v -0.030731 0.063715 0.010003
v -0.031582 0.064517 0.022197
v -0.030974 -0.011942 0.015745
v -0.031766 -0.011195 0.026719
v -0.019915 0.063315 0.003901
v -0.020730 -0.012334 0.008734
v -0.034765 -0.025660 0.004732
v -0.008757 0.063674 0.009370
v -0.008488 -0.011982 0.014754
v -0.019666 -0.026025 -0.000444
v -0.004541 -0.025672 0.004535
v 0.002374 -0.040795 0.015240
v 0.002812 -0.024961 0.015960
v 0.003295 -0.024040 0.029347
v -0.007093 -0.011289 0.025671
v -0.013069 0.064899 0.028010
v -0.006961 0.064389 0.020258
v -0.013474 -0.010795 0.033202
v -0.022972 0.064980 0.029242
v -0.023409 -0.010738 0.034090
v -0.008158 -0.023126 0.043274
v -0.015541 -0.037307 0.047065
v 0.002480 -0.045626 0.033879
v -0.026295 -0.023001 0.045152
v -0.036141 -0.023489 0.039522
v -0.025156 -0.036234 0.067333
v -0.042301 -0.023952 0.029184
v -0.044885 -0.020510 0.047550
v -0.043652 -0.037375 0.022843
v -0.041925 -0.024950 0.016133
v -0.045154 0.000496 0.045118
v -0.025488 -0.015164 0.065175
v -0.014285 -0.004008 0.120115
v 0.025381 -0.012470 0.105306
v -0.070430 0.009609 0.069824
v -0.049485 -0.005936 0.090784
v 0.007568 -0.034413 0.094620
v 0.064583 -0.031826 0.132571
v 0.116628 -0.051762 0.069709
v 0.135798 -0.065469 0.010338
v 0.216642 -0.063259 0.043936
v 0.226235 -0.050253 0.105206
v 0.124462 -0.029957 0.161360
v 0.189337 -0.028518 0.183301
v 0.290557 -0.027642 0.199668
v 0.182753 -0.007613 0.179173
v 0.249952 -0.006727 0.192638
v 0.180214 0.002228 0.214948
v 0.289098 0.003199 0.232479
v 0.292677 -0.006472 0.196515
v 0.319890 0.009401 0.196194
v 0.319898 0.074565 0.175008
v 0.319898 -0.016268 0.180980
v 0.319889 -0.011605 0.198627
v 0.319872 0.019201 0.231355
v 0.319814 0.085655 0.343665
v 0.319867 -0.002382 0.233871
v 0.319815 0.033647 0.347075
v 0.285248 0.017414 0.347208
v 0.291058 -0.017681 0.234057
v 0.246588 -0.018290 0.230136
v 0.235232 0.017404 0.342920
v 0.169988 -0.019433 0.214602
v 0.150462 0.016343 0.326828
v 0.066795 0.014481 0.298464
v 0.110809 0.000686 0.191504
v 0.078661 -0.021231 0.180296
v 0.009276 0.012365 0.271641
v 0.006244 -0.024398 0.137275
v -0.069710 0.009537 0.223322
v 0.061672 0.082250 0.291872
v -0.001231 0.080255 0.261539
v -0.060607 0.077840 0.224815
v 0.298633 0.068640 0.084900
v 0.294842 0.073411 0.157454
v 0.319916 -0.025473 0.145658
v 0.294810 -0.036924 0.163728
v 0.343245 -0.045672 0.128430
v 0.343449 0.070991 0.120621
v 0.195202 0.084894 0.332087
v 0.127388 0.083801 0.315471
v 0.264408 0.085516 0.341541
v 0.345915 0.075713 0.192459
v 0.346964 -0.027476 0.198974
v 0.298605 -0.054531 0.092976
v 0.319961 -0.046505 0.056908
v 0.299463 -0.062444 0.058010
v 0.319820 0.070797 0.102923
v 0.319934 -0.034446 0.110255
v 0.319962 -0.025499 0.054475
v 0.298967 -0.041377 0.055873
v 0.302026 -0.048850 0.005437
v 0.319979 -0.023284 0.003633
v 0.319987 -0.033790 0.004093
v 0.320000 0.038560 -0.026697
v 0.274237 -0.024736 -0.025826
v 0.320000 -0.024521 -0.022550
v 0.319987 0.058088 -0.001948
v 0.255311 -0.023673 -0.002235
v 0.218343 -0.025692 -0.040344
v 0.170695 0.035909 -0.067008
v 0.223158 0.037503 -0.042770
v 0.279312 0.038394 -0.029221
v 0.210424 0.031004 -0.141600
v 0.256445 0.032413 -0.120177
v 0.205211 0.053465 -0.145883
v 0.259553 0.054846 -0.120653
v 0.319805 0.033070 -0.110182
v 0.319967 0.055704 -0.111958
v 0.169316 0.028886 -0.173820
v 0.158920 0.050777 -0.186764
v 0.138842 0.026220 -0.214356
v 0.130906 0.047851 -0.230665
v 0.116636 0.045343 -0.269417
v 0.117799 0.023079 -0.262129
v 0.000328 0.037046 -0.321961
v -0.052288 0.041864 -0.322304
v 0.000328 -0.044344 -0.316609
v 0.109638 0.019230 -0.320660
v 0.025689 0.019222 -0.320777
v 0.109348 0.041880 -0.321985
v 0.028921 0.022230 -0.275040
v 0.025690 -0.043858 -0.316628
v 0.028172 -0.041182 -0.275949
v 0.041701 -0.037494 -0.219869
v 0.002796 -0.041376 -0.271479
v 0.016287 -0.037647 -0.214785
v 0.035759 -0.034616 -0.168670
v 0.017307 -0.062916 -0.209309
v 0.041745 -0.059409 -0.155979
v -0.047327 -0.061488 -0.251122
v -0.028928 -0.057155 -0.185224
v 0.005284 -0.066049 -0.256978
v -0.004121 -0.053679 -0.132374
v 0.041578 -0.049511 -0.067832
v 0.000623 -0.068692 -0.296766
v 0.000328 -0.054832 -0.315920
v -0.051922 -0.064490 -0.296784
v -0.052423 -0.049877 -0.316272
v -0.051988 -0.085655 -0.294219
v -0.052154 -0.070952 -0.314886
v -0.106259 -0.062348 -0.315394
v -0.159358 -0.069931 -0.340147
v -0.106184 0.041863 -0.322330
v -0.142093 -0.055825 -0.315925
v -0.087673 -0.082448 -0.335517
v -0.087639 0.040464 -0.343606
v -0.160231 0.040227 -0.347208
v -0.043886 -0.081548 -0.234207
v 0.065937 -0.034053 -0.167501
v 0.076531 0.030194 -0.153919
v 0.043425 0.025901 -0.219201
v 0.124004 0.033675 -0.100977
v -0.130110 0.074231 0.169931
v -0.175819 0.003254 0.127611
v -0.151885 0.021829 0.151693
v -0.126578 0.006447 0.176806
v -0.070349 -0.012136 0.072196
v -0.048444 -0.027270 0.094268
v -0.090554 -0.029968 0.051914
v -0.092036 -0.008833 0.049500
v -0.064512 -0.017710 0.026478
v 0.046701 -0.001339 0.160704
v 0.093700 -0.009790 0.146070
vn 0.3810 -0.0174 -0.9244
vn -0.0305 -0.9898 0.1393
vn 0.5283 -0.0794 -0.8454
vn -0.0420 -0.9903 0.1327
vn 0.5235 -0.0924 -0.8470
vn -0.0364 -0.9892 0.1417
vn 0.0107 -0.9988 0.0484
vn 0.0117 -0.9985 0.0526
vn 0.0142 -0.9986 0.0517
vn 0.7055 -0.2019 -0.6794
vn 0.6852 -0.0528 -0.7264
vn 0.6386 -0.0092 -0.7695
vn -0.5426 -0.7471 -0.3839
vn 0.7297 -0.1039 -0.6759
vn 0.4163 -0.6918 0.5900
vn -0.5008 -0.7822 -0.3705
vn 0.6767 -0.0766 -0.7323
vn -0.0516 -0.9905 0.1272
vn 0.6067 -0.0918 -0.7896
vn -0.0503 -0.9900 0.1316
vn 0.6779 -0.0838 -0.7304
vn 0.7427 -0.0700 -0.6660
vn 0.3482 -0.7147 0.6066
vn -0.5499 -0.7872 -0.2791
vn -0.5177 -0.8122 -0.2689
vn 0.3398 -0.7418 0.5781
vn -0.1286 -0.9786 0.1606
vn -0.1192 -0.9796 0.1621
vn 0.2972 -0.7460 0.5959
vn 0.2618 -0.7702 0.5815
vn -0.1478 -0.9737 0.1731
vn 0.1611 -0.8565 0.4904
vn -0.1271 -0.9827 0.1349
vn -0.1550 -0.9728 0.1720
vn -0.1578 -0.9797 0.1234
vn -0.1630 -0.9786 0.1254
vn -0.1679 -0.9751 0.1447
vn -0.9135 -0.0095 0.4068
vn -0.8117 -0.0613 0.5808
vn -0.8574 0.1159 0.5014
vn -0.9274 0.0986 0.3609
vn -0.1701 -0.9715 0.1649
vn -0.1926 -0.9686 0.1572
vn -0.1806 -0.9742 0.1356
vn -0.9563 -0.0603 0.2861
vn -0.9808 0.1145 0.1580
vn -0.2102 -0.9695 0.1256
vn -0.1860 -0.9778 0.0960
vn 0.9679 0.0777 -0.2392
vn 0.9555 -0.1095 -0.2741
vn 0.9934 -0.0446 -0.1060
vn -0.2100 -0.9738 0.0870
vn 0.9958 0.0002 -0.0918
vn 0.9997 0.0104 -0.0207
vn -0.2031 -0.8830 -0.4231
vn 0.0005 -0.0655 -0.9978
vn 0.0005 -0.0657 -0.9978
vn 0.0005 -0.0656 -0.9978
vn 0.9997 0.0115 -0.0195
vn -0.1762 -0.8750 -0.4510
vn -1.0000 -0.0005 -0.0079
vn 0.0006 -0.0655 -0.9979
vn -0.0000 0.9979 -0.0650
vn 0.8410 0.0216 0.5407
vn 0.8213 0.0374 0.5693
vn -0.0347 -0.0656 -0.9972
vn -0.0542 -0.0773 -0.9955
vn 0.0001 0.9978 -0.0656
vn 0.3716 -0.0767 -0.9252
vn -0.0002 0.9978 -0.0658
vn -0.0000 0.9978 -0.0656
vn -0.9046 0.0456 0.4237
vn -0.9443 0.0255 0.3280
vn -0.9382 0.0097 0.3459
vn -0.2272 -0.9626 0.1472
vn -0.2358 -0.9643 0.1209
vn -0.9716 0.0116 0.2363
vn -0.9924 0.0034 0.1234
vn -0.2381 -0.9668 0.0931
vn -0.2314 -0.9665 0.1112
vn -0.9735 0.0189 0.2277
vn -0.2341 -0.9687 0.0821
vn -0.9998 0.0166 0.0140
vn -0.2337 -0.9110 -0.3398
vn -0.9921 0.0009 0.1256
vn -0.9995 0.0016 0.0322
vn -0.2088 -0.9709 0.1170
vn -0.2141 -0.9647 0.1532
vn -0.2207 -0.9624 0.1586
vn 0.8337 -0.0211 -0.5518
vn -0.1980 -0.9603 0.1963
vn 0.9099 0.0180 -0.4145
vn 0.8990 -0.0740 -0.4316
vn -0.2126 -0.9609 0.1776
vn -0.1941 -0.9608 0.1978
vn -0.8809 0.0133 0.4730
vn -0.8222 0.0243 0.5686
vn -0.8552 0.0471 0.5161
vn -0.7964 0.0528 0.6025
vn -0.0001 0.9978 -0.0656
vn 0.9976 0.0017 0.0695
vn 0.9974 0.0022 0.0718
vn 0.5653 0.0606 0.8226
vn 0.4921 0.0502 0.8691
vn 0.2652 -0.5226 0.8103
vn 0.4191 -0.6360 0.6479
vn -0.4419 0.0621 0.8949
vn -0.4408 0.0619 0.8954
vn -0.3304 -0.6239 0.7082
vn -0.2489 -0.5526 0.7954
vn -0.4013 0.1258 0.9073
vn -0.8568 -0.0272 0.5150
vn -0.8408 -0.0013 0.5413
vn -0.3133 0.0498 0.9483
vn -0.6850 -0.5522 0.4752
vn -0.9991 0.0261 0.0342
vn -0.7832 -0.6177 0.0708
vn -0.7533 -0.6432 0.1370
vn -0.7637 -0.0401 -0.6443
vn -0.7861 -0.0427 -0.6166
vn -0.9920 0.0108 0.1260
vn -0.6101 -0.6341 -0.4752
vn -0.0892 -0.0631 -0.9940
vn -0.1236 -0.0672 -0.9900
vn -0.6127 -0.6413 -0.4618
vn -0.0714 -0.6493 -0.7572
vn -0.5660 0.0752 -0.8210
vn -0.1022 -0.2069 -0.9730
vn -0.7716 -0.1027 -0.6278
vn -0.0821 -0.6568 -0.7496
vn 0.4726 0.2419 -0.8474
vn 0.3659 -0.7306 -0.5765
vn 0.5313 -0.6330 -0.5631
vn -0.4777 -0.8548 -0.2030
vn -0.4975 -0.8461 -0.1912
vn 0.6777 -0.6322 -0.3755
vn 0.8454 0.1562 -0.5108
vn 0.2232 -0.7962 0.5623
vn 0.2313 -0.8026 0.5498
vn 0.8875 0.0367 0.4593
vn 0.2203 -0.8055 0.5502
vn 0.8401 0.1627 0.5175
vn 0.9923 -0.1176 0.0375
vn 0.7641 -0.6412 0.0710
vn 0.6842 -0.5621 0.4647
vn -0.7144 0.0714 0.6961
vn -0.6807 0.0640 0.7298
vn -0.6819 0.0755 0.7276
vn -0.1236 -0.9673 0.2216
vn -0.1331 -0.9656 0.2232
vn -0.6186 0.1244 0.7758
vn -0.4890 -0.8522 -0.1859
vn -0.4891 -0.8595 -0.1486
vn -0.6412 0.0682 0.7644
vn -0.1196 -0.9707 0.2082
vn -0.1036 -0.9696 0.2217
vn -0.5550 0.0460 0.8306
vn -0.1060 -0.9714 0.2125
vn -0.0916 -0.9764 0.1958
vn -0.0591 -0.9767 0.2064
vn -0.0565 -0.9748 0.2158
vn -0.0642 -0.9688 0.2393
vn -0.0840 -0.9678 0.2374
vn -0.0582 -0.9701 0.2358
vn -0.0327 -0.9667 0.2536
vn -0.1598 0.0215 0.9869
vn -0.3209 0.0852 0.9433
vn -0.1965 0.1300 0.9718
vn -0.0399 -0.9641 0.2624
vn -0.0356 -0.9610 0.2744
vn -0.0176 -0.9660 0.2580
vn -0.0902 0.1555 0.9837
vn 0.4873 -0.8299 0.2717
vn -0.0785 0.1545 0.9849
vn 1.0000 -0.0000 0.0005
vn -0.0276 0.1150 0.9930
vn 0.4548 -0.8578 0.2393
vn 1.0000 -0.0002 0.0006
vn 0.0239 -0.1158 -0.9930
vn 1.0000 -0.0000 0.0004
vn 0.4093 -0.8694 0.2769
vn 0.0320 -0.0724 -0.9969
vn 0.4509 -0.8457 0.2854
vn 0.0886 -0.0668 -0.9938
vn -0.0130 -0.9552 0.2956
vn -0.0460 -0.9537 0.2972
vn -0.0255 -0.9538 0.2993
vn 0.1573 -0.2059 -0.9658
vn 0.1993 -0.0785 -0.9768
vn -0.0773 -0.9537 0.2906
vn -0.0443 -0.9540 0.2964
vn -0.0923 -0.9574 0.2735
vn 0.3198 -0.1360 -0.9377
vn 0.3520 -0.0382 -0.9352
vn -0.0880 -0.9547 0.2843
vn -0.1275 -0.9559 0.2644
vn -0.1153 -0.9575 0.2646
vn -0.4237 0.0559 0.9041
vn -0.5225 0.0458 0.8514
vn -0.4351 0.0663 0.8979
vn -0.5268 0.0517 0.8484
vn -0.5695 -0.0465 -0.8207
vn -0.6298 -0.0674 -0.7738
vn 0.9986 0.0027 0.0520
vn -0.6048 -0.0521 -0.7947
vn -0.2384 0.0814 0.9677
vn -0.3386 0.0657 0.9386
vn -0.3217 0.0492 0.9456
vn -0.1356 0.0781 0.9877
vn -0.1869 0.0467 0.9813
vn -0.0384 0.0712 0.9967
vn -0.0853 0.0567 0.9947
vn 0.9994 0.0080 -0.0348
vn 0.9987 -0.0052 -0.0513
vn -0.5036 -0.8298 0.2406
vn -0.5579 0.0466 0.8286
vn -0.5368 0.0554 0.8419
vn -0.5461 -0.8107 0.2110
vn 0.9986 0.0032 0.0528
vn 0.5288 -0.8213 0.2143
vn 0.5270 -0.8216 0.2174
vn 0.4690 -0.8401 0.2725
vn -0.0167 -0.9705 0.2406
vn -0.0229 -0.9686 0.2474
vn 0.6091 -0.7702 0.1893
vn 0.5946 -0.7842 0.1776
vn -0.0204 -0.9752 0.2202
vn -0.6501 0.0499 0.7582
vn -0.6576 0.0517 0.7516
vn 1.0000 0.0011 0.0007
vn 0.0099 -0.1007 -0.9949
vn 0.6026 -0.7833 0.1526
vn 0.6430 -0.7557 0.1247
vn 1.0000 0.0013 0.0004
vn 1.0000 0.0007 0.0004
vn 0.0360 -0.1150 -0.9927
vn -0.0380 -0.0438 -0.9983
vn 1.0000 0.0001 0.0008
vn 1.0000 -0.0001 0.0006
vn 0.0018 -0.9989 0.0464
vn 0.0013 -0.9989 0.0472
vn 0.0904 -0.1331 -0.9870
vn 1.0000 -0.0000 0.0016
vn 0.0045 -0.9988 0.0486
vn 0.0063 -0.9989 0.0468
vn 0.3179 -0.1372 -0.9381
vn 0.1775 0.0295 -0.9837
vn 0.4523 -0.0359 -0.8912
vn 0.0077 -0.9987 0.0503
vn 0.2519 -0.0563 -0.9661
vn 0.4201 -0.0668 -0.9050
vn 0.2350 -0.0710 -0.9694
vn -0.0000 -0.9978 0.0656
vn 0.4227 -0.0741 -0.9032
vn 0.4215 -0.0776 -0.9035
vn 0.1561 -0.0426 -0.9868
vn 1.0000 -0.0073 -0.0018
vn 0.1431 -0.0784 -0.9866
vn 1.0000 0.0009 -0.0002
vn -0.0111 0.9997 -0.0217
vn 0.0063 0.9977 -0.0681
vn 0.1233 0.9883 -0.0898
vn 0.6609 -0.1238 -0.7402
vn 0.6171 -0.0068 -0.7869
vn 0.8422 -0.0916 -0.5313
vn 0.7984 0.0234 -0.6017
vn -0.0006 0.9978 -0.0661
vn -0.0504 0.9977 -0.0460
vn 0.9379 -0.0627 -0.3413
vn 0.9140 0.0303 -0.4046
vn -0.0252 0.9963 -0.0819
vn 0.0914 0.9930 -0.0744
vn 0.0024 -0.0584 -0.9983
vn 0.0014 -0.0643 -0.9979
vn -0.0442 0.9972 -0.0596
vn 0.9904 0.0067 -0.1377
vn 0.9904 0.0046 -0.1384
vn 0.9975 -0.0108 -0.0698
vn 0.9982 -0.0040 -0.0606
vn 0.9722 -0.0081 -0.2340
vn 0.0183 -0.9980 0.0612
vn 0.0184 -0.9980 0.0612
vn 0.0190 -0.9977 0.0645
vn 0.0177 -0.9982 0.0582
vn 0.9729 -0.0108 -0.2308
vn 0.9213 -0.0465 -0.3860
vn 0.9089 0.0060 -0.4169
vn -0.0731 -0.9924 0.0988
vn -0.0783 -0.9931 0.0872
vn -0.0767 -0.9935 0.0846
vn -0.0721 -0.9925 0.0991
vn 0.9694 -0.0442 -0.2416
vn 0.9037 -0.0922 -0.4181
vn 0.8110 -0.1543 -0.5643
vn -0.0666 -0.9916 0.1112
vn 0.8736 0.0365 -0.4853
vn 0.6873 -0.0350 -0.7255
vn 0.3592 -0.7312 0.5800
vn -0.0662 -0.9916 0.1112
vn 0.7747 -0.0155 -0.6321
vn -0.0778 -0.9941 0.0752
vn 0.9925 0.0306 -0.1183
vn 0.9999 -0.0011 -0.0162
vn -0.0645 -0.8089 -0.5844
vn -0.0795 -0.9941 0.0734
vn 0.9981 -0.0307 -0.0526
vn 0.9998 0.0117 -0.0170
vn -0.0711 -0.7989 -0.5972
vn 0.9950 -0.0151 -0.0991
vn 0.9999 -0.0045 -0.0112
vn -0.0011 -0.0656 -0.9978
vn -0.1233 -0.8091 -0.5746
vn -0.1743 -0.7725 0.6106
vn -0.1545 -0.8019 0.5771
vn -0.0009 -0.0664 -0.9978
vn 0.7550 0.0430 0.6543
vn -0.1477 -0.8521 -0.5021
vn -0.1636 -0.8444 -0.5101
vn 0.0529 -0.0656 -0.9964
vn 0.7545 0.0429 0.6549
vn 0.0497 -0.0635 -0.9967
vn -0.8221 0.0299 0.5685
vn -0.7960 0.0397 0.6040
vn -0.7759 0.0581 0.6282
vn 0.9891 0.0540 -0.1372
vn -0.1495 -0.9849 0.0876
vn -0.1641 -0.9834 0.0774
vn -0.1472 -0.9829 0.1107
vn 0.9538 0.0173 -0.2999
vn 0.9625 -0.0582 -0.2649
vn 0.8441 -0.0684 -0.5318
vn 0.8151 0.0198 -0.5789
vn 0.0164 -0.9982 0.0580
vn 0.0165 -0.9983 0.0552
vn 0.8083 -0.0088 -0.5887
vn 0.0143 -0.9984 0.0552
vn 0.9078 -0.0203 -0.4188
vn 0.8920 -0.0522 -0.4489
vn 0.9680 -0.0237 -0.2499
vn 0.7449 -0.0733 -0.6631
vn 0.5889 -0.0827 -0.8040
vn 0.6673 -0.0193 -0.7446
vn 0.0191 -0.9977 0.0646
vn 0.0620 -0.0655 -0.9959
vn 0.0716 -0.0593 -0.9957
vn 0.0013 0.9927 -0.1203
vn -0.0153 -0.9892 0.1456
vn 0.1864 -0.1738 -0.9670
vn 0.1677 -0.0956 -0.9812
vn -0.0164 -0.9890 0.1468
vn -0.0263 -0.9770 0.2115
vn -0.6205 0.0656 0.7815
vn -0.7235 0.0557 0.6880
vn -0.7340 0.0699 0.6756
vn -0.6925 0.0370 0.7205
vn -0.6340 0.0453 0.7720
vn -0.4885 -0.8657 -0.1088
vn -0.4536 -0.8870 -0.0862
vn -0.1509 -0.9569 0.2480
vn -0.1456 -0.9575 0.2491
vn 0.6189 -0.0371 -0.7846
vn 0.6808 -0.0769 -0.7284
vn 0.6715 -0.0874 -0.7358
vn 0.6404 -0.0933 -0.7624
vn 0.7206 -0.0286 -0.6927
vn 0.1837 -0.8217 0.5395
vn 0.7157 -0.0731 -0.6945
vn -0.1577 -0.9699 0.1854
vn -0.1749 -0.9664 0.1882
vn 0.2117 -0.7999 0.5615
vn 0.8052 -0.1525 -0.5731
vn 0.2131 -0.8256 0.5225
vn 0.7675 -0.0194 -0.6408
vn -0.7893 0.0824 0.6085
vn -0.7334 0.0899 0.6738
vn -0.1817 -0.9593 0.2163
vn 0.1324 -0.8441 0.5195
vn -0.7652 0.0338 0.6429
vn -0.1816 -0.9593 0.2164
vn 0.5114 -0.0244 -0.8590
vn 0.5531 -0.1350 -0.8221
vn 0.4306 -0.1793 -0.8845
vn -0.0930 -0.9620 0.2568
vn -0.1166 -0.9641 0.2386
vn -0.1013 -0.9671 0.2333
vn -0.3470 0.1700 0.9223
vn -0.0688 -0.9661 0.2487
vn -0.5106 0.1568 0.8454
vn -0.4337 0.0213 0.9008
vn -0.0665 -0.9632 0.2602
vn -0.0269 0.0654 0.9975
vn 0.3841 -0.0163 -0.9231
vn -0.0911 -0.9778 0.1887
vn 0.4267 -0.1823 -0.8858
vn 0.5916 -0.0338 -0.8055
vn 0.7766 -0.6223 0.0984
vn -0.4311 -0.8962 -0.1045
vn -0.5316 -0.8208 -0.2088
vn -0.5126 -0.8319 -0.2127
vn -0.9990 0.0412 0.0164
vn 0.6341 -0.0531 -0.7714
vn 0.6622 -0.0463 -0.7479
vn -0.9867 0.0080 0.1623
vn -0.5189 -0.8195 -0.2432
vn 0.2895 0.0754 0.9542
vn 0.3250 0.0472 0.9445
vn -0.1848 -0.9789 0.0869
vn -0.1868 -0.9782 0.0905
vn -0.9906 -0.0159 0.1356
vn -0.1925 -0.9670 0.1669
vn -0.2084 -0.8907 -0.4040
vn -0.1808 -0.9772 0.1113
s 0
usemtl Material.003
f 2//1 1//1 4//1
f 6//2 1//2 2//2
f 1//3 3//3 7//3
f 5//4 3//4 1//4
f 7//5 4//5 1//5
f 1//6 6//6 5//6
f 4//7 7//7 8//7
f 11//8 8//8 7//8
f 9//9 11//9 7//9
f 9//10 7//10 12//10
f 10//11 12//11 7//11
f 3//12 10//12 7//12
f 15//13 12//13 10//13
f 12//14 13//14 9//14
f 14//15 13//15 12//15
f 12//16 15//16 14//16
f 15//17 17//17 14//17
f 15//18 10//18 3//18
f 5//19 16//19 15//19
f 3//20 5//20 15//20
f 17//21 15//21 16//21
f 18//22 14//22 17//22
f 21//23 18//23 17//23
f 16//24 19//24 17//24
f 17//25 19//25 20//25
f 20//26 21//26 17//26
f 22//27 21//27 26//27
f 21//28 22//28 18//28
f 25//29 21//29 23//29
f 23//30 21//30 20//30
f 24//31 26//31 21//31
f 21//32 25//32 24//32
f 26//33 27//33 22//33
f 26//34 24//34 30//34
f 27//35 26//35 28//35
f 29//36 28//36 26//36
f 26//37 30//37 29//37
f 29//38 30//38 32//38
f 30//39 24//39 31//39
f 31//40 32//40 30//40
f 32//41 35//41 29//41
f 33//42 32//42 31//42
f 32//43 33//43 34//43
f 34//44 35//44 32//44
f 36//45 29//45 35//45
f 35//46 37//46 36//46
f 35//47 34//47 38//47
f 38//48 37//48 35//48
f 39//49 40//49 38//49
f 38//50 34//50 39//50
f 41//51 38//51 40//51
f 37//52 38//52 41//52
f 40//53 42//53 41//53
f 43//54 41//54 42//54
f 37//55 41//55 43//55
f 44//56 43//56 45//56
f 47//57 43//57 44//57
f 45//58 43//58 46//58
f 42//59 46//59 43//59
f 43//60 47//60 37//60
f 44//58 50//58 47//58
f 37//61 47//61 48//61
f 49//62 48//62 47//62
f 50//58 49//58 47//58
f 50//63 44//63 51//63
f 50//64 51//64 37//64
f 49//65 50//65 37//65
f 51//66 55//66 52//66
f 52//67 54//67 51//67
f 53//68 51//68 44//68
f 56//68 51//68 53//68
f 37//69 51//69 54//69
f 57//70 55//70 51//70
f 51//68 56//68 57//68
f 58//71 55//71 57//71
f 58//72 57//72 59//72
f 57//73 56//73 60//73
f 60//74 59//74 57//74
f 61//75 59//75 60//75
f 61//76 60//76 62//76
f 62//77 60//77 56//77
f 63//78 62//78 53//78
f 40//79 62//79 63//79
f 62//80 40//80 61//80
f 56//81 53//81 62//81
f 63//82 42//82 40//82
f 45//83 63//83 64//83
f 42//84 63//84 45//84
f 53//85 64//85 63//85
f 64//86 44//86 45//86
f 53//71 44//71 64//71
f 61//87 40//87 39//87
f 59//88 61//88 65//88
f 39//89 65//89 61//89
f 66//90 65//90 33//90
f 67//91 65//91 66//91
f 65//92 39//92 34//92
f 34//93 33//93 65//93
f 65//94 68//94 59//94
f 65//95 67//95 68//95
f 59//96 68//96 58//96
f 68//97 67//97 69//97
f 69//98 58//98 68//98
f 70//71 71//71 69//71
f 70//99 69//99 67//99
f 69//71 71//71 58//71
f 75//100 55//100 71//100
f 58//71 71//71 55//71
f 71//101 72//101 74//101
f 70//71 72//71 71//71
f 74//102 73//102 71//102
f 73//103 76//103 71//103
f 75//104 71//104 76//104
f 77//105 80//105 76//105
f 76//106 73//106 77//106
f 76//107 79//107 78//107
f 78//108 75//108 76//108
f 79//109 76//109 81//109
f 80//110 81//110 76//110
f 23//111 20//111 81//111
f 20//112 82//112 81//112
f 83//113 81//113 82//113
f 81//114 80//114 23//114
f 81//115 83//115 79//115
f 84//116 83//116 82//116
f 83//117 84//117 85//117
f 85//118 79//118 83//118
f 85//119 88//119 86//119
f 86//120 87//120 85//120
f 79//121 85//121 87//121
f 88//122 85//122 84//122
f 88//123 90//123 89//123
f 89//124 86//124 88//124
f 84//125 91//125 88//125
f 90//126 88//126 91//126
f 93//127 92//127 91//127
f 94//128 91//128 92//128
f 91//129 84//129 93//129
f 91//130 94//130 90//130
f 92//131 95//131 94//131
f 94//132 95//132 74//132
f 74//133 90//133 94//133
f 95//134 96//134 98//134
f 96//135 95//135 92//135
f 95//136 97//136 74//136
f 95//137 99//137 97//137
f 24//138 99//138 95//138
f 95//139 98//139 24//139
f 99//140 25//140 77//140
f 24//141 25//141 99//141
f 77//142 100//142 99//142
f 100//143 97//143 99//143
f 97//144 100//144 73//144
f 100//145 77//145 73//145
f 24//146 98//146 101//146
f 98//147 96//147 102//147
f 102//148 101//148 98//148
f 103//149 102//149 104//149
f 102//150 103//150 106//150
f 104//151 102//151 107//151
f 105//152 101//152 102//152
f 102//153 106//153 105//153
f 96//154 107//154 102//154
f 107//155 96//155 19//155
f 109//156 108//156 107//156
f 107//157 108//157 104//157
f 107//158 19//158 109//158
f 110//159 109//159 19//159
f 109//160 110//160 111//160
f 111//161 112//161 109//161
f 114//162 109//162 112//162
f 109//163 113//163 108//163
f 109//164 114//164 113//164
f 112//165 115//165 114//165
f 114//166 115//166 117//166
f 113//167 114//167 116//167
f 117//168 116//168 114//168
f 118//169 116//169 117//169
f 117//170 119//170 118//170
f 119//171 117//171 120//171
f 120//172 117//172 115//172
f 119//173 120//173 121//173
f 121//174 120//174 115//174
f 123//175 122//175 121//175
f 125//175 121//175 122//175
f 121//175 124//175 123//175
f 115//176 124//176 121//176
f 121//177 125//177 119//177
f 122//175 126//175 125//175
f 126//178 127//178 125//178
f 119//179 125//179 127//179
f 127//180 126//180 128//180
f 127//181 128//181 129//181
f 127//182 130//182 119//182
f 130//183 127//183 129//183
f 130//184 131//184 119//184
f 129//185 131//185 130//185
f 132//186 133//186 131//186
f 131//187 129//187 132//187
f 118//188 119//188 131//188
f 131//189 133//189 118//189
f 133//190 134//190 135//190
f 133//191 132//191 134//191
f 135//192 138//192 133//192
f 136//193 118//193 133//193
f 133//194 137//194 136//194
f 137//195 133//195 138//195
f 139//196 138//196 140//196
f 138//197 139//197 137//197
f 138//198 135//198 141//198
f 140//199 138//199 142//199
f 141//200 142//200 138//200
f 86//71 143//71 142//71
f 142//201 143//201 140//201
f 86//71 142//71 87//71
f 142//71 144//71 87//71
f 144//71 142//71 145//71
f 145//71 142//71 141//71
f 147//202 145//202 146//202
f 148//203 146//203 145//203
f 144//204 145//204 147//204
f 145//205 149//205 148//205
f 122//71 145//71 126//71
f 145//71 150//71 126//71
f 149//71 145//71 122//71
f 145//71 151//71 150//71
f 145//71 141//71 151//71
f 150//206 151//206 134//206
f 151//207 141//207 135//207
f 135//208 134//208 151//208
f 126//71 150//71 152//71
f 152//209 150//209 132//209
f 134//210 132//210 150//210
f 126//211 152//211 129//211
f 132//212 129//212 152//212
f 154//213 149//213 153//213
f 153//71 149//71 122//71
f 149//214 154//214 148//214
f 123//215 148//215 154//215
f 154//216 153//216 122//216
f 122//217 123//217 154//217
f 123//218 146//218 148//218
f 147//219 155//219 144//219
f 123//220 147//220 146//220
f 123//221 124//221 147//221
f 147//222 124//222 115//222
f 155//223 147//223 112//223
f 115//224 112//224 147//224
f 155//225 157//225 156//225
f 156//226 159//226 155//226
f 157//227 155//227 112//227
f 158//228 144//228 155//228
f 155//229 159//229 158//229
f 160//230 158//230 159//230
f 160//175 159//175 156//175
f 160//231 157//231 161//231
f 162//232 160//232 161//232
f 160//233 162//233 164//233
f 163//234 158//234 160//234
f 163//235 160//235 164//235
f 157//236 160//236 156//236
f 164//237 162//237 163//237
f 165//238 163//238 167//238
f 163//239 165//239 168//239
f 169//240 166//240 163//240
f 167//241 163//241 166//241
f 169//242 163//242 162//242
f 163//243 168//243 158//243
f 166//244 169//244 170//244
f 4//245 170//245 169//245
f 4//246 169//246 2//246
f 162//247 2//247 169//247
f 170//248 8//248 171//248
f 170//249 4//249 8//249
f 166//250 170//250 172//250
f 171//251 172//251 170//251
f 172//252 173//252 166//252
f 173//253 172//253 175//253
f 172//253 171//253 174//253
f 174//253 175//253 172//253
f 175//254 174//254 176//254
f 176//255 177//255 175//255
f 178//256 175//256 177//256
f 175//253 178//253 173//253
f 165//257 178//257 179//257
f 177//258 179//258 178//258
f 165//253 173//253 178//253
f 179//259 168//259 165//259
f 179//260 177//260 168//260
f 176//261 144//261 177//261
f 144//262 168//262 177//262
f 181//263 176//263 180//263
f 174//264 180//264 176//264
f 176//71 78//71 87//71
f 78//71 176//71 181//71
f 87//71 144//71 176//71
f 183//265 181//265 182//265
f 180//266 182//266 181//266
f 75//267 181//267 183//267
f 78//68 181//68 75//68
f 186//268 183//268 184//268
f 184//269 183//269 185//269
f 182//270 185//270 183//270
f 186//271 75//271 183//271
f 187//272 75//272 186//272
f 187//58 186//58 188//58
f 190//58 188//58 186//58
f 186//273 191//273 189//273
f 189//274 190//274 186//274
f 186//275 184//275 191//275
f 191//276 184//276 185//276
f 185//277 189//277 191//277
f 190//278 192//278 194//278
f 192//253 190//253 189//253
f 188//58 190//58 193//58
f 194//279 193//279 190//279
f 195//280 194//280 192//280
f 194//281 195//281 197//281
f 196//282 194//282 197//282
f 194//283 196//283 193//283
f 198//284 197//284 195//284
f 196//285 197//285 199//285
f 197//286 198//286 199//286
f 200//287 199//287 198//287
f 204//288 199//288 200//288
f 199//289 202//289 201//289
f 201//290 203//290 199//290
f 199//291 204//291 202//291
f 199//292 203//292 196//292
f 204//293 27//293 202//293
f 205//294 22//294 204//294
f 200//295 205//295 204//295
f 27//296 204//296 22//296
f 14//297 18//297 205//297
f 13//298 14//298 205//298
f 205//299 200//299 13//299
f 22//300 205//300 18//300
f 201//301 206//301 203//301
f 203//302 206//302 196//302
f 206//303 207//303 188//303
f 208//304 207//304 206//304
f 206//305 201//305 208//305
f 188//306 196//306 206//306
f 208//307 211//307 209//307
f 207//308 208//308 209//308
f 201//309 210//309 208//309
f 211//310 208//310 210//310
f 212//311 209//311 211//311
f 212//312 211//312 210//312
f 212//313 213//313 216//313
f 213//314 212//314 215//314
f 214//315 209//315 212//315
f 216//316 214//316 212//316
f 212//317 52//317 215//317
f 52//318 212//318 210//318
f 213//319 217//319 216//319
f 214//320 216//320 217//320
f 217//71 218//71 214//71
f 217//321 213//321 218//321
f 213//322 215//322 218//322
f 214//71 218//71 55//71
f 218//323 52//323 55//323
f 52//324 218//324 215//324
f 214//71 55//71 187//71
f 214//58 187//58 209//58
f 210//325 201//325 219//325
f 28//326 210//326 219//326
f 210//327 28//327 52//327
f 28//328 219//328 27//328
f 219//329 202//329 27//329
f 202//330 219//330 201//330
f 209//58 187//58 188//58
f 188//58 207//58 209//58
f 198//331 9//331 200//331
f 13//332 200//332 9//332
f 220//333 198//333 195//333
f 9//334 198//334 220//334
f 11//335 220//335 221//335
f 11//336 9//336 220//336
f 220//337 195//337 222//337
f 222//338 221//338 220//338
f 192//339 222//339 195//339
f 222//253 192//253 185//253
f 221//253 222//253 185//253
f 221//340 223//340 11//340
f 223//253 221//253 180//253
f 182//253 180//253 221//253
f 185//253 182//253 221//253
f 223//341 171//341 8//341
f 171//253 223//253 180//253
f 8//342 11//342 223//342
f 193//343 196//343 188//343
f 189//253 185//253 192//253
f 187//71 55//71 75//71
f 180//253 174//253 171//253
f 173//344 165//344 167//344
f 167//345 166//345 173//345
f 168//346 144//346 158//346
f 161//347 2//347 162//347
f 161//348 111//348 6//348
f 111//349 161//349 157//349
f 2//350 161//350 6//350
f 112//351 111//351 157//351
f 89//71 143//71 86//71
f 89//71 224//71 143//71
f 143//352 224//352 140//352
f 72//71 70//71 224//71
f 224//353 70//353 225//353
f 72//71 224//71 89//71
f 225//354 226//354 224//354
f 226//355 227//355 224//355
f 227//356 140//356 224//356
f 229//357 227//357 228//357
f 228//358 227//358 226//358
f 140//359 227//359 229//359
f 140//360 229//360 139//360
f 139//361 229//361 103//361
f 229//362 228//362 105//362
f 105//363 106//363 229//363
f 106//364 103//364 229//364
f 228//365 230//365 231//365
f 226//366 230//366 228//366
f 231//367 105//367 228//367
f 231//368 31//368 232//368
f 31//369 231//369 33//369
f 231//370 232//370 101//370
f 33//371 231//371 66//371
f 101//372 105//372 231//372
f 230//373 66//373 231//373
f 232//374 31//374 24//374
f 101//375 232//375 24//375
f 225//376 66//376 230//376
f 230//377 226//377 225//377
f 67//378 225//378 70//378
f 66//379 225//379 67//379
f 137//380 139//380 233//380
f 103//381 233//381 139//381
f 233//382 136//382 137//382
f 234//383 136//383 233//383
f 104//384 233//384 103//384
f 233//385 104//385 234//385
f 116//386 234//386 113//386
f 136//387 234//387 116//387
f 234//388 104//388 108//388
f 108//389 113//389 234//389
f 116//390 118//390 136//390
f 129//391 128//391 126//391
f 110//392 6//392 111//392
f 19//393 16//393 110//393
f 6//394 110//394 5//394
f 16//395 5//395 110//395
f 73//396 74//396 97//396
f 93//397 19//397 96//397
f 92//398 93//398 96//398
f 93//399 82//399 19//399
f 82//400 93//400 84//400
f 72//401 89//401 90//401
f 90//402 74//402 72//402
f 87//403 78//403 79//403
f 82//404 20//404 19//404
f 25//405 23//405 80//405
f 80//406 77//406 25//406
f 54//407 52//407 28//407
f 36//408 54//408 28//408
f 54//409 36//409 37//409
f 37//410 48//410 49//410
f 46//411 42//411 45//411
f 36//412 28//412 29//412
