# Blender 5.0.1
# www.blender.org
mtllib torso_y_link_visual_38.mtl
o i01.torso.full.040_visual.001
v -0.067092 0.054216 -0.032622
v -0.067092 -0.058021 -0.025243
v -0.000565 0.057149 0.011992
v -0.067092 -0.054216 0.032623
v -0.067092 0.058021 0.025245
v 0.067092 0.054216 -0.032622
v 0.067092 -0.058021 -0.025244
v 0.067092 -0.054216 0.032623
v 0.067092 0.058021 0.025245
v -0.000565 -0.055087 0.019370
vn -0.0000 -0.0656 -0.9978
vn -1.0000 -0.0000 -0.0000
vn -0.0000 0.9978 -0.0656
vn -0.0000 -0.9978 0.0656
vn 1.0000 -0.0000 -0.0000
vn -0.1926 0.0644 0.9792
vn 0.1958 0.0643 0.9785
s 0
usemtl Material.027
f 7//1 2//1 1//1
f 2//2 4//2 1//2
f 1//3 3//3 6//3
f 1//3 5//3 3//3
f 4//2 5//2 1//2
f 1//1 6//1 7//1
f 2//4 7//4 8//4
f 8//5 7//5 6//5
f 8//5 6//5 9//5
f 10//6 8//6 9//6
f 8//4 10//4 2//4
f 10//4 4//4 2//4
f 5//7 4//7 10//7
f 9//6 3//6 10//6
f 10//7 3//7 5//7
f 3//3 9//3 6//3
