# Blender 5.0.1
# www.blender.org
mtllib torso_y_link_visual_22.mtl
o i01.torso.full.024_visual.001
v -0.142162 0.001704 0.224729
v -0.214785 0.001703 0.224729
v -0.214785 -0.092702 0.230936
v -0.142162 -0.092702 0.230936
v -0.142162 -0.005661 0.112729
v -0.142162 -0.100067 0.118937
v -0.001997 0.005856 0.290097
v -0.241188 0.005856 0.290097
v -0.147296 0.005856 0.290097
v -0.148435 0.008674 0.332955
v -0.001997 -0.088405 0.296296
v -0.147298 -0.088405 0.296296
v -0.148438 -0.085587 0.339151
v -0.241189 -0.088405 0.296296
v -0.214785 -0.100079 0.118747
v -0.414693 -0.115804 -0.120398
v -0.242233 -0.085625 0.338569
v -0.414708 0.005919 0.291053
v -0.414709 -0.088342 0.297251
v -0.414693 -0.021544 -0.126596
v -0.214785 -0.005674 0.112538
v -0.002650 -0.019245 -0.091644
v -0.414693 -0.027578 -0.218370
v -0.453903 -0.021544 -0.126596
v -0.453903 -0.027578 -0.218370
v -0.453903 -0.115804 -0.120398
v -0.484864 -0.028701 -0.235445
v -0.484864 -0.020403 -0.109241
v -0.484864 -0.114663 -0.103044
v -0.484864 -0.122962 -0.229249
v -0.453903 -0.121839 -0.212173
v -0.414693 -0.121839 -0.212173
v 0.174972 -0.122197 -0.217743
v -0.448114 -0.131324 -0.356359
v -0.448057 -0.037043 -0.362309
v 0.181128 -0.027953 -0.224072
v 0.220271 0.010718 -0.217490
v 0.204939 -0.012086 -0.204730
v 0.249323 -0.027315 -0.214363
v 0.227139 -0.060034 -0.213788
v 0.197800 -0.026114 -0.196107
v 0.214039 -0.022779 -0.145391
v 0.210977 -0.010726 -0.184571
v 0.223015 0.012241 -0.197104
v 0.227706 0.015178 -0.174950
v 0.235425 0.034180 -0.213639
v 0.235587 0.029422 -0.159138
v 0.244352 0.040869 -0.135682
v 0.264586 0.036226 -0.213906
v 0.294475 0.043387 -0.214137
v 0.284730 0.044312 -0.099728
v 0.273703 0.011017 -0.212942
v 0.300907 0.048380 -0.138643
v 0.274383 0.008929 -0.185260
v 0.307421 0.051041 -0.100100
v 0.267470 -0.009188 -0.146285
v 0.236741 -0.059534 -0.137953
v 0.262505 -0.031304 -0.099874
v 0.266748 -0.039139 -0.062188
v 0.232199 -0.079119 -0.095611
v 0.201462 -0.115577 -0.117002
v 0.243230 -0.085464 -0.036321
v 0.277301 -0.039104 -0.025167
v 0.258469 -0.104345 0.054080
v 0.228790 -0.109499 -0.024517
v 0.292391 -0.051684 0.045240
v 0.321055 -0.068796 0.153628
v 0.348853 0.001693 0.102887
v 0.309898 -0.011445 0.023174
v 0.295584 -0.077581 0.103697
v 0.298038 -0.092219 0.146249
v 0.333114 -0.082591 0.248897
v 0.289277 -0.098623 0.140944
v 0.091893 -0.088405 0.296296
v 0.324881 -0.090771 0.260379
v 0.333984 -0.088408 0.295831
v 0.351141 -0.080423 0.294503
v 0.388947 -0.030715 0.291258
v 0.367827 -0.046920 0.256788
v 0.405929 0.007654 0.250568
v 0.414525 0.009032 0.279531
v 0.438051 0.042840 0.286354
v 0.478328 0.114720 0.281624
v 0.370369 0.131324 0.281723
v 0.461449 0.087486 0.270219
v 0.430945 0.065905 0.204743
v 0.426992 0.075567 0.180195
v 0.348840 0.049024 0.033179
v 0.464890 0.127337 0.221177
v 0.484864 0.131012 0.280375
v 0.411613 0.118558 0.092070
v 0.317509 0.122305 0.144285
v 0.305484 0.123573 0.163846
v 0.316732 -0.003036 0.154860
v 0.299480 -0.001425 0.179370
v 0.289893 0.124678 0.180651
v 0.271298 0.125563 0.194113
v 0.282559 -0.000405 0.194884
v 0.122320 -0.001529 0.177788
v 0.258665 0.000516 0.208905
v 0.142721 -0.000326 0.196091
v 0.160713 0.125856 0.198559
v 0.141083 0.125071 0.186632
v 0.162561 0.000436 0.207679
v 0.177785 0.000807 0.213306
v 0.177785 0.126283 0.205056
v 0.193590 0.126528 0.208787
v -0.002650 0.131324 0.281723
v 0.124165 0.124052 0.171123
v 0.107034 0.122453 0.146809
v 0.095878 0.120262 0.113505
v 0.094638 0.118506 0.086779
v 0.091896 0.005856 0.290097
v -0.002650 0.106230 -0.099895
v 0.267195 0.070176 -0.097524
v 0.287991 0.106148 -0.099889
v 0.249236 0.044028 -0.095510
v 0.223065 -0.019259 -0.091885
v 0.128913 0.113529 0.011097
v 0.142721 0.112746 -0.000807
v 0.169629 0.111771 -0.015677
v 0.098210 0.117020 0.064187
v 0.106149 0.115608 0.042719
v 0.118159 0.114324 0.023187
v 0.132235 -0.012167 0.016000
v 0.121185 -0.011390 0.027823
v 0.106771 -0.009997 0.048996
v 0.300510 -0.011577 0.024982
v 0.321993 -0.009175 0.061504
v 0.315228 -0.010141 0.046824
v 0.097716 -0.008327 0.074401
v 0.327777 -0.007719 0.083646
v 0.094538 -0.006838 0.097054
v 0.329106 -0.006218 0.106482
v 0.096866 -0.004882 0.126788
v 0.106149 -0.003188 0.152566
v 0.325927 -0.004728 0.129137
v 0.325435 0.120866 0.122839
v 0.329006 0.119392 0.100256
v 0.328076 0.117890 0.077398
v 0.380881 0.114202 0.022725
v 0.322678 0.116426 0.055158
v 0.311482 0.114866 0.031441
v 0.364565 0.111304 -0.021412
v 0.294731 0.113529 0.011097
v 0.282567 0.112826 0.000406
v 0.343165 0.106084 -0.100733
v 0.262944 0.112042 -0.011518
v 0.280922 -0.012730 0.007443
v 0.154611 -0.013239 -0.000273
v 0.261093 -0.013492 -0.004138
v 0.177786 -0.013862 -0.009772
v 0.241340 0.111522 -0.019421
v 0.239359 -0.013986 -0.011662
v 0.193583 -0.014107 -0.013501
v 0.218590 0.111289 -0.022975
v 0.216547 -0.014194 -0.014824
v 0.195602 0.111350 -0.022050
v 0.324531 0.076406 -0.100183
v 0.311288 0.051661 -0.086784
v 0.314182 0.046126 -0.062607
v 0.334892 0.062105 -0.025548
v 0.229981 0.010702 -0.131032
v 0.090756 0.008674 0.332955
v -0.003042 0.008636 0.332370
v 0.106003 0.010197 0.356112
v 0.090753 -0.085587 0.339151
v -0.003042 -0.085625 0.338569
v 0.106001 -0.084064 0.362309
v -0.020715 -0.084064 0.362306
v -0.020715 0.010196 0.356107
v 0.216572 0.126615 0.210106
v 0.195597 0.001071 0.217334
v 0.218602 0.001132 0.218257
v 0.234697 0.000989 0.216086
v 0.243048 0.126366 0.206295
v 0.191493 -0.117975 -0.153513
v 0.230906 -0.056905 -0.187804
v 0.054965 -0.103543 0.066068
v 0.058717 -0.104178 0.056409
v 0.054198 -0.104794 0.047050
v 0.043911 -0.105032 0.043424
v 0.044944 0.062630 0.032397
v 0.034671 0.062871 0.036060
v 0.033943 -0.104746 0.047786
v 0.030188 0.063487 0.045430
v 0.030190 -0.104110 0.057446
v 0.033978 0.064122 0.055082
v 0.034708 -0.103495 0.066804
v 0.043966 0.064407 0.059408
v 0.044999 -0.103256 0.070432
v 0.054238 0.064166 0.055743
v 0.058719 0.063550 0.046374
v 0.054929 0.062915 0.036723
v 0.206129 -0.090748 -0.188209
v -0.259906 -0.084064 0.362306
v -0.133190 -0.084064 0.362309
v -0.242233 0.008636 0.332370
v -0.133188 0.010197 0.356112
v -0.259906 0.010196 0.356107
vn -0.0000 0.9980 -0.0634
vn -0.0000 -0.0656 -0.9978
vn -1.0000 -0.0000 -0.0000
vn 0.0010 0.9978 -0.0656
vn -0.0000 0.9978 -0.0656
vn 0.9996 0.0017 0.0265
vn -0.0000 0.0656 0.9978
vn -0.0000 -0.9978 0.0656
vn -0.9997 -0.0016 -0.0246
vn 0.0055 0.0656 0.9978
vn 0.0001 0.9978 -0.0663
vn -0.0015 0.9979 -0.0650
vn 0.4898 0.0572 0.8700
vn 0.4897 0.0572 0.8700
vn 0.4837 -0.0574 -0.8733
vn 0.4838 -0.0574 -0.8733
vn -0.9743 0.0148 0.2249
vn 0.2176 -0.0795 -0.9728
vn 0.2150 -0.0616 -0.9747
vn 0.1407 0.0261 -0.9897
vn -0.6922 0.6458 0.3224
vn -0.7070 0.5949 0.3824
vn 0.1411 -0.1129 -0.9835
vn 0.1661 -0.0769 -0.9831
vn -0.8172 0.5298 0.2268
vn -0.8144 0.5419 0.2074
vn -0.7636 0.6180 0.1870
vn -0.8041 0.5477 0.2313
vn -0.8645 0.4964 0.0793
vn -0.8950 0.4258 0.1330
vn -0.8304 0.5475 0.1032
vn -0.8432 0.5325 0.0737
vn -0.8932 0.4478 0.0418
vn -0.8396 0.5410 0.0497
vn -0.0705 0.9945 -0.0773
vn 0.1719 0.0504 -0.9838
vn -0.0098 0.0095 -0.9999
vn 0.0013 -0.0377 -0.9993
vn -0.2331 0.9714 -0.0444
vn -0.0263 0.9975 -0.0660
vn -0.2839 0.9587 -0.0178
vn 0.0753 -0.0109 -0.9971
vn -0.2845 0.9585 -0.0181
vn 0.8666 -0.4933 -0.0756
vn 0.8493 -0.5266 -0.0375
vn 0.8656 -0.4878 -0.1126
vn 0.8423 -0.5302 -0.0970
vn 0.8699 -0.4749 -0.1332
vn 0.8294 -0.5336 -0.1656
vn 0.8609 -0.4701 -0.1947
vn 0.8272 -0.5386 -0.1604
vn 0.8186 -0.5370 -0.2038
vn 0.8013 -0.5711 -0.1782
vn 0.8047 -0.5557 -0.2092
vn 0.8197 -0.5331 -0.2096
vn 0.8098 -0.5397 -0.2303
vn 0.8061 -0.5281 -0.2671
vn 0.7945 -0.5537 -0.2496
vn 0.7698 -0.5863 -0.2522
vn 0.7946 -0.5742 -0.1971
vn 0.7978 -0.5263 -0.2941
vn 0.7700 -0.5667 -0.2931
vn 0.8220 -0.5035 -0.2661
vn 0.7825 -0.5523 -0.2874
vn 0.8001 -0.5159 -0.3060
vn 0.7631 -0.5963 -0.2492
vn 0.7284 -0.6339 -0.2601
vn 0.6405 -0.7535 -0.1482
vn 0.7295 -0.6577 -0.1876
vn 0.6496 -0.7382 -0.1818
vn 0.6033 -0.7871 -0.1281
vn 0.0001 -0.9978 0.0657
vn 0.5548 -0.8121 -0.1807
vn 0.0001 -0.9978 0.0665
vn 0.4185 -0.9070 -0.0470
vn 0.7751 -0.6020 -0.1919
vn 0.0725 0.0099 0.9973
vn 0.7206 -0.6450 -0.2542
vn 0.7845 -0.5744 -0.2339
vn 0.7909 -0.5758 -0.2073
vn 0.7910 -0.5726 -0.2155
vn 0.7244 -0.6634 -0.1878
vn 0.8259 -0.5571 -0.0871
vn 0.8211 -0.5273 -0.2186
vn 0.8645 -0.4914 -0.1061
vn 0.0101 0.0600 0.9981
vn 0.0100 0.0599 0.9982
vn 0.8300 -0.5136 -0.2174
vn 0.8215 -0.5260 -0.2202
vn 0.7933 -0.5121 -0.3293
vn 0.8672 -0.3997 -0.2970
vn 0.8655 -0.4265 -0.2627
vn 0.7941 -0.5480 -0.2631
vn 0.7915 -0.5306 -0.3034
vn 0.8023 -0.4937 -0.3354
vn 0.8703 -0.4064 -0.2783
vn 0.0020 0.9980 -0.0626
vn 0.8848 -0.3761 -0.2752
vn 0.0017 0.9976 -0.0685
vn 0.8669 -0.3714 -0.3325
vn -0.0002 0.9979 -0.0649
vn -0.8183 -0.0320 -0.5739
vn -0.8524 -0.0387 -0.5215
vn -0.7338 -0.0489 -0.6776
vn -0.5872 -0.0574 -0.8074
vn -0.6766 -0.0440 -0.7351
vn -0.0000 0.9978 -0.0655
vn -0.5069 -0.0506 -0.8605
vn 0.5052 -0.0552 -0.8613
vn 0.5201 -0.0575 -0.8522
vn 0.6686 -0.0472 -0.7421
vn 0.3564 -0.0625 -0.9323
vn -0.0000 0.9978 -0.0657
vn 0.3474 -0.0615 -0.9357
vn 0.2302 -0.0638 -0.9710
vn -1.0000 -0.0051 0.0020
vn -0.0000 0.0641 0.9979
vn 0.0033 0.0690 0.9976
vn -0.0000 0.0666 0.9978
vn -0.0014 -0.0759 -0.9971
vn 0.0003 0.9978 -0.0662
vn 0.0030 -0.0584 -0.9983
vn -0.0011 -0.0656 -0.9978
vn 0.7313 0.0427 0.6807
vn 0.7479 0.0456 0.6622
vn 0.8523 0.0303 0.5221
vn 0.8272 0.0406 0.5605
vn 0.9382 0.0219 0.3455
vn 0.9422 0.0235 0.3343
vn 0.9903 0.0105 0.1382
vn 0.9878 0.0088 0.1556
vn 0.9989 -0.0046 -0.0461
vn 0.9969 -0.0004 -0.0781
vn 0.9411 -0.0221 -0.3374
vn 0.9484 -0.0260 -0.3160
vn -0.9419 -0.0205 -0.3353
vn -0.9878 -0.0117 -0.1554
vn -0.9903 -0.0077 -0.1384
vn 0.0036 0.9978 -0.0657
vn 0.0037 0.9979 -0.0646
vn -0.9992 0.0012 0.0405
vn 0.0033 0.9979 -0.0641
vn 0.0013 0.9978 -0.0660
vn -0.9983 0.0052 0.0577
vn -0.9719 0.0140 0.2350
vn 0.0012 0.9978 -0.0662
vn -0.9047 0.0264 0.4253
vn -0.9677 0.0180 0.2516
vn 0.0009 0.9978 -0.0663
vn -0.9086 0.0241 0.4170
vn -0.8298 0.0436 0.5563
vn -0.7726 0.0347 0.6339
vn 0.0008 0.9978 -0.0666
vn -0.6609 0.0526 0.7486
vn 0.0010 0.9978 -0.0659
vn 0.0001 0.9978 -0.0664
vn 0.0005 0.9978 -0.0664
vn -0.5201 0.0546 0.8523
vn -0.6679 0.0504 0.7426
vn -0.5052 0.0581 0.8611
vn -0.0000 0.9979 -0.0655
vn -0.3278 0.0634 0.9426
vn -0.3442 0.0602 0.9370
vn -0.1547 0.0634 0.9859
vn -0.1376 0.0664 0.9883
vn 0.0403 0.0641 0.9971
vn 0.0576 0.0669 0.9961
vn -0.0003 0.9978 -0.0670
vn 0.2388 0.0622 0.9691
vn -0.0000 0.9978 -0.0667
vn 0.0001 0.9978 -0.0666
vn 0.2302 0.0606 0.9713
vn 0.0003 0.9978 -0.0665
vn 0.3800 0.0680 0.9225
vn 0.4845 0.0494 0.8734
vn 0.5890 0.0590 0.8060
vn 0.8258 -0.5318 -0.1878
vn -0.0153 -0.0089 -0.9998
vn 0.8363 -0.5278 -0.1482
vn 0.8399 -0.4863 -0.2408
vn 0.8606 -0.4643 -0.2093
vn 0.8120 -0.5402 -0.2209
vn 0.8102 -0.5472 -0.2098
vn 0.8495 -0.4775 -0.2245
vn 0.8442 -0.4792 -0.2402
vn 0.8234 -0.4802 -0.3025
vn 0.8359 -0.4592 -0.3008
vn 0.8330 -0.4792 -0.2765
vn 0.8428 -0.4655 -0.2703
vn 0.8288 -0.4828 -0.2826
vn -0.0517 0.0499 -0.9974
vn -0.0193 0.0097 -0.9998
vn -0.0418 -0.0415 -0.9983
vn 0.8228 -0.4584 -0.3359
vn 0.0032 0.9978 -0.0658
vn -0.9382 -0.0233 -0.3452
vn 0.8423 -0.0306 -0.5381
vn 0.6537 0.0467 0.7553
vn -0.9131 0.3852 0.1335
vn -0.9157 0.3805 0.1294
vn -0.8895 0.4418 0.1168
vn -0.9132 0.3989 0.0836
vn -0.8958 0.4382 0.0744
vn -0.1180 0.0046 -0.9930
vn -0.0170 0.9969 -0.0763
vn 0.0019 0.0656 0.9978
vn 0.8358 -0.0360 -0.5479
vn -0.8027 -0.0391 -0.5951
vn 0.8180 -0.0425 -0.5736
vn 0.6766 -0.0489 -0.7348
vn 0.0574 -0.0669 -0.9961
vn 0.2210 -0.0628 -0.9733
vn 0.0402 -0.0641 -0.9971
vn -0.1339 -0.0683 -0.9886
vn -0.2876 -0.0555 -0.9562
vn -0.3967 -0.0682 -0.9154
vn -0.1428 -0.0665 -0.9875
vn 0.8235 -0.4399 -0.3583
vn 0.0119 0.0717 0.9974
vn 0.8193 -0.4743 -0.3222
vn 0.0191 0.0609 0.9980
vn -0.0000 -0.9978 0.0657
vn -0.0002 -0.9979 0.0655
vn 0.8178 -0.5617 -0.1253
vn -0.0000 -0.9979 0.0655
vn 0.7802 -0.6010 -0.1736
vn -0.3331 0.0639 0.9407
vn 0.3365 0.0597 0.9398
vn 0.4017 0.0622 0.9137
vn 0.9324 0.0259 0.3606
vn 0.9024 0.0262 0.4300
vn 0.9311 -0.0261 -0.3639
vn 0.9009 -0.0264 -0.4332
vn 0.3331 -0.0598 -0.9410
vn 0.3982 -0.0623 -0.9152
vn -0.3367 -0.0638 -0.9394
vn -0.4018 -0.0580 -0.9139
vn -0.9025 -0.0304 -0.4296
vn -0.9311 0.0218 0.3642
vn -0.9324 -0.0216 -0.3608
vn -0.9009 0.0306 0.4330
vn -0.3983 0.0581 0.9154
vn 0.8439 -0.5363 -0.0123
vn 0.8261 -0.5610 -0.0522
vn 0.8301 -0.5433 -0.1258
vn 0.8340 -0.5484 -0.0619
vn 0.8016 -0.5854 -0.1212
vn 0.8063 -0.5897 -0.0459
vn 0.7716 -0.6161 -0.1580
vn 0.7634 -0.6322 -0.1321
vn 0.8390 -0.5407 -0.0614
vn -0.9114 0.4008 0.0932
vn -0.0000 0.9978 -0.0663
vn -0.0026 0.0656 0.9978
vn 1.0000 -0.0000 -0.0000
vn -0.0055 0.9978 -0.0656
s 0
usemtl Material.027
f 1//1 2//1 8//1
f 3//2 2//2 1//2
f 1//2 4//2 3//2
f 6//3 4//3 1//3
f 1//4 7//4 5//4
f 1//3 5//3 6//3
f 7//1 1//1 9//1
f 8//1 9//1 1//1
f 10//5 9//5 8//5
f 12//6 9//6 10//6
f 9//7 12//7 11//7
f 11//7 7//7 9//7
f 12//8 4//8 11//8
f 3//8 4//8 12//8
f 12//8 14//8 3//8
f 14//8 12//8 13//8
f 10//6 13//6 12//6
f 14//8 15//8 3//8
f 16//8 15//8 14//8
f 14//8 19//8 16//8
f 13//8 17//8 14//8
f 8//9 14//9 17//9
f 14//10 8//10 18//10
f 18//10 19//10 14//10
f 20//3 16//3 19//3
f 19//3 18//3 20//3
f 22//11 20//11 21//11
f 8//12 21//12 20//12
f 8//5 20//5 18//5
f 20//5 22//5 23//5
f 24//5 20//5 23//5
f 16//7 20//7 24//7
f 23//5 25//5 24//5
f 27//5 24//5 25//5
f 24//7 26//7 16//7
f 26//13 24//13 28//13
f 27//5 28//5 24//5
f 28//14 29//14 26//14
f 29//3 28//3 27//3
f 30//8 26//8 29//8
f 27//3 30//3 29//3
f 30//8 31//8 26//8
f 30//15 27//15 25//15
f 25//16 31//16 30//16
f 16//8 26//8 31//8
f 31//8 32//8 16//8
f 31//2 25//2 23//2
f 23//2 32//2 31//2
f 33//8 32//8 34//8
f 32//8 33//8 16//8
f 34//17 32//17 23//17
f 34//18 36//18 33//18
f 23//17 35//17 34//17
f 36//19 34//19 35//19
f 36//20 37//20 39//20
f 36//21 38//21 37//21
f 36//22 41//22 38//22
f 40//23 36//23 39//23
f 40//24 33//24 36//24
f 36//5 35//5 22//5
f 36//5 22//5 41//5
f 41//5 22//5 42//5
f 43//25 41//25 42//25
f 41//26 43//26 38//26
f 43//27 37//27 38//27
f 42//28 44//28 43//28
f 37//29 43//29 44//29
f 44//30 42//30 45//30
f 45//31 46//31 44//31
f 46//32 37//32 44//32
f 47//33 46//33 45//33
f 46//34 47//34 48//34
f 48//35 49//35 46//35
f 39//36 37//36 46//36
f 49//37 39//37 46//37
f 50//38 52//38 49//38
f 53//39 50//39 49//39
f 49//40 48//40 51//40
f 51//41 53//41 49//41
f 39//42 49//42 52//42
f 55//43 53//43 51//43
f 56//44 54//44 53//44
f 54//45 50//45 53//45
f 56//46 53//46 55//46
f 56//47 57//47 54//47
f 55//48 58//48 56//48
f 56//49 58//49 57//49
f 55//50 59//50 58//50
f 60//51 57//51 58//51
f 59//52 60//52 58//52
f 61//53 57//53 60//53
f 62//54 61//54 60//54
f 60//55 59//55 62//55
f 59//56 63//56 62//56
f 62//57 63//57 66//57
f 66//58 64//58 62//58
f 62//59 64//59 65//59
f 62//60 65//60 61//60
f 67//61 66//61 68//61
f 66//62 67//62 70//62
f 69//63 66//63 63//63
f 64//64 66//64 70//64
f 69//65 68//65 66//65
f 71//66 64//66 70//66
f 70//67 67//67 71//67
f 71//68 72//68 73//68
f 71//69 67//69 72//69
f 71//70 73//70 64//70
f 72//71 75//71 73//71
f 64//72 73//72 74//72
f 73//8 75//8 74//8
f 77//73 75//73 72//73
f 76//74 74//74 75//74
f 75//75 77//75 76//75
f 77//76 79//76 78//76
f 78//77 76//77 77//77
f 77//78 72//78 79//78
f 67//79 80//79 79//79
f 80//80 81//80 79//80
f 79//81 81//81 78//81
f 79//82 72//82 67//82
f 78//83 81//83 82//83
f 82//84 81//84 80//84
f 82//85 85//85 83//85
f 83//86 84//86 82//86
f 82//87 84//87 78//87
f 85//88 82//88 86//88
f 80//89 86//89 82//89
f 87//90 86//90 88//90
f 86//91 87//91 89//91
f 83//92 85//92 86//92
f 86//93 80//93 67//93
f 67//94 68//94 86//94
f 68//95 88//95 86//95
f 89//96 83//96 86//96
f 89//5 93//5 84//5
f 90//97 89//97 84//97
f 89//98 90//98 83//98
f 89//99 91//99 92//99
f 87//100 91//100 89//100
f 93//101 89//101 92//101
f 93//5 96//5 84//5
f 95//102 93//102 94//102
f 92//103 94//103 93//103
f 93//104 95//104 96//104
f 96//5 97//5 84//5
f 96//105 98//105 97//105
f 98//106 96//106 95//106
f 98//5 95//5 99//5
f 98//5 99//5 101//5
f 100//107 98//107 101//107
f 100//108 97//108 98//108
f 101//109 102//109 104//109
f 102//110 101//110 103//110
f 99//111 103//111 101//111
f 100//5 101//5 104//5
f 106//112 104//112 102//112
f 100//113 104//113 105//113
f 104//114 106//114 105//114
f 102//5 108//5 106//5
f 107//115 105//115 106//115
f 106//5 108//5 107//5
f 22//3 108//3 114//3
f 108//116 22//116 7//116
f 108//5 84//5 107//5
f 76//117 84//117 108//117
f 108//118 113//118 76//118
f 109//5 108//5 103//5
f 110//5 108//5 109//5
f 108//5 110//5 111//5
f 111//5 112//5 108//5
f 103//5 108//5 102//5
f 112//5 114//5 108//5
f 113//119 108//119 7//119
f 116//2 115//2 114//2
f 115//120 117//120 114//120
f 114//121 121//121 116//121
f 117//122 118//122 114//122
f 118//123 22//123 114//123
f 114//5 119//5 120//5
f 114//5 124//5 119//5
f 114//5 120//5 121//5
f 114//5 112//5 122//5
f 114//5 122//5 123//5
f 114//5 123//5 124//5
f 125//124 124//124 126//124
f 124//125 125//125 119//125
f 123//126 127//126 124//126
f 126//127 124//127 127//127
f 128//5 126//5 127//5
f 130//5 128//5 127//5
f 129//5 130//5 127//5
f 129//5 127//5 131//5
f 122//128 127//128 123//128
f 127//129 122//129 131//129
f 132//5 129//5 131//5
f 132//5 131//5 133//5
f 131//130 112//130 133//130
f 112//131 131//131 122//131
f 134//5 132//5 133//5
f 134//5 133//5 135//5
f 111//132 133//132 112//132
f 133//133 111//133 135//133
f 94//5 135//5 136//5
f 135//134 110//134 136//134
f 110//135 135//135 111//135
f 137//5 134//5 135//5
f 94//5 137//5 135//5
f 94//136 138//136 137//136
f 139//137 137//137 138//137
f 137//138 139//138 134//138
f 140//139 139//139 91//139
f 139//140 138//140 91//140
f 140//141 134//141 139//141
f 140//142 91//142 141//142
f 142//143 140//143 141//143
f 134//144 140//144 132//144
f 142//145 132//145 140//145
f 143//146 142//146 141//146
f 143//147 129//147 142//147
f 132//148 142//148 129//148
f 143//143 141//143 144//143
f 145//149 143//149 144//149
f 129//150 143//150 130//150
f 130//151 143//151 128//151
f 145//152 128//152 143//152
f 146//153 145//153 144//153
f 146//154 128//154 145//154
f 146//155 144//155 147//155
f 147//156 116//156 146//156
f 116//157 148//157 146//157
f 148//158 149//158 146//158
f 128//159 146//159 149//159
f 149//5 151//5 150//5
f 149//113 150//113 125//113
f 128//5 149//5 125//5
f 149//160 148//160 151//160
f 151//5 154//5 152//5
f 151//161 152//161 150//161
f 151//162 153//162 154//162
f 153//163 151//163 148//163
f 154//5 155//5 152//5
f 156//164 154//164 153//164
f 154//5 157//5 155//5
f 154//165 156//165 157//165
f 158//166 157//166 156//166
f 157//167 158//167 155//167
f 121//168 158//168 116//168
f 121//169 155//169 158//169
f 158//170 156//170 116//170
f 116//171 156//171 153//171
f 155//172 121//172 152//172
f 116//173 153//173 148//173
f 152//174 121//174 150//174
f 120//175 150//175 121//175
f 150//176 120//176 125//176
f 160//177 147//177 144//177
f 147//178 159//178 116//178
f 160//179 159//179 147//179
f 162//180 160//180 144//180
f 161//181 63//181 160//181
f 160//182 162//182 161//182
f 160//183 55//183 159//183
f 59//184 55//184 160//184
f 59//185 160//185 63//185
f 88//186 69//186 162//186
f 88//187 162//187 141//187
f 162//188 144//188 141//188
f 161//189 162//189 69//189
f 63//190 161//190 69//190
f 159//191 51//191 115//191
f 55//192 51//192 159//192
f 116//193 159//193 115//193
f 88//194 141//194 91//194
f 138//195 92//195 91//195
f 138//196 94//196 92//196
f 136//197 110//197 99//197
f 94//5 136//5 99//5
f 128//5 125//5 126//5
f 119//198 125//198 120//198
f 118//199 117//199 163//199
f 163//200 42//200 118//200
f 42//5 22//5 118//5
f 48//201 47//201 163//201
f 47//202 42//202 163//202
f 163//203 117//203 48//203
f 115//204 51//204 117//204
f 117//205 51//205 48//205
f 76//206 113//206 74//206
f 74//6 113//6 164//6
f 164//5 113//5 7//5
f 166//5 164//5 165//5
f 7//5 165//5 164//5
f 167//207 164//207 166//207
f 164//6 167//6 74//6
f 74//8 167//8 168//8
f 169//8 168//8 167//8
f 166//207 169//207 167//207
f 170//8 168//8 169//8
f 171//7 170//7 169//7
f 169//7 166//7 171//7
f 171//5 166//5 165//5
f 170//208 171//208 165//208
f 165//208 168//208 170//208
f 168//8 11//8 74//8
f 7//9 11//9 168//9
f 168//9 165//9 7//9
f 109//209 99//209 110//209
f 103//210 99//210 109//210
f 172//5 107//5 84//5
f 172//211 173//211 107//211
f 105//212 107//212 173//212
f 175//5 105//5 173//5
f 173//213 172//213 174//213
f 174//5 175//5 173//5
f 174//214 176//214 175//214
f 175//215 176//215 100//215
f 175//113 100//113 105//113
f 97//5 176//5 84//5
f 176//161 172//161 84//161
f 97//216 100//216 176//216
f 176//217 174//217 172//217
f 95//5 94//5 99//5
f 91//218 87//218 88//218
f 83//219 90//219 84//219
f 88//220 68//220 69//220
f 84//221 76//221 78//221
f 11//222 64//222 74//222
f 65//223 64//223 11//223
f 61//8 65//8 11//8
f 57//224 61//224 178//224
f 61//225 16//225 177//225
f 177//226 178//226 61//226
f 182//8 16//8 61//8
f 61//8 11//8 179//8
f 61//8 179//8 180//8
f 61//8 180//8 181//8
f 61//8 181//8 182//8
f 182//8 185//8 16//8
f 183//227 182//227 181//227
f 182//228 183//228 184//228
f 184//229 185//229 182//229
f 185//8 187//8 6//8
f 16//8 185//8 6//8
f 186//230 187//230 185//230
f 185//231 184//231 186//231
f 187//8 189//8 6//8
f 187//232 186//232 188//232
f 188//233 189//233 187//233
f 6//8 189//8 11//8
f 190//234 191//234 189//234
f 189//235 188//235 190//235
f 189//8 191//8 11//8
f 191//8 179//8 11//8
f 191//236 190//236 192//236
f 192//237 179//237 191//237
f 190//8 183//8 192//8
f 192//8 183//8 193//8
f 179//238 192//238 193//238
f 193//8 183//8 194//8
f 180//239 193//239 194//239
f 193//240 180//240 179//240
f 194//241 181//241 180//241
f 181//242 194//242 183//242
f 188//8 183//8 190//8
f 186//8 183//8 188//8
f 184//8 183//8 186//8
f 52//243 178//243 39//243
f 40//244 39//244 178//244
f 178//245 54//245 57//245
f 54//246 178//246 52//246
f 177//247 195//247 178//247
f 40//248 178//248 195//248
f 177//249 33//249 195//249
f 40//250 195//250 33//250
f 33//8 177//8 16//8
f 50//251 54//251 52//251
f 42//252 47//252 45//252
f 23//5 22//5 35//5
f 22//253 21//253 5//253
f 5//4 7//4 22//4
f 5//254 21//254 15//254
f 3//255 15//255 21//255
f 2//256 21//256 8//256
f 21//255 2//255 3//255
f 13//8 197//8 17//8
f 197//8 196//8 17//8
f 198//208 17//208 196//208
f 17//9 198//9 8//9
f 8//5 198//5 10//5
f 199//5 10//5 198//5
f 200//5 199//5 198//5
f 196//208 200//208 198//208
f 200//7 196//7 197//7
f 197//7 199//7 200//7
f 199//207 197//207 13//207
f 13//207 10//207 199//207
f 15//8 16//8 6//8
f 15//254 6//254 5//254
f 4//8 6//8 11//8
