# Blender 5.0.1
# www.blender.org
mtllib torso_z_link_visual_2.mtl
o i01.torso.topStom.full.003_visual.001
v 0.033360 -0.003259 -0.030711
v -0.030703 -0.024192 -0.022664
v 0.000213 -0.037892 -0.024981
v 0.016603 -0.032797 -0.027024
v 0.028570 -0.019791 -0.029125
v 0.005242 0.033105 -0.030174
v -0.012446 0.032460 -0.028291
v -0.017282 -0.035062 -0.023347
v 0.026134 0.020070 -0.031492
v -0.030165 0.022045 -0.025759
v -0.039008 -0.004423 -0.023098
v 0.034809 -0.015119 0.024969
v 0.039008 0.002105 0.023399
v 0.005529 0.037892 0.024532
v 0.030479 0.025236 0.022767
v -0.033159 -0.002908 0.031244
v -0.028847 0.018023 0.029419
v -0.017780 0.031145 0.027405
v 0.021052 -0.030405 0.027407
v -0.003169 -0.034130 0.030174
v -0.021861 -0.024571 0.031492
vn 0.1034 0.0652 0.9925
vn 0.1033 0.0653 0.9925
vn 0.9547 -0.2849 -0.0855
vn 0.1033 0.0652 0.9925
vn 0.1034 0.0654 0.9925
vn 0.9486 0.2896 -0.1277
vn 0.9670 -0.2427 -0.0769
vn 0.9338 0.3414 -0.1073
vn 0.5198 0.8455 -0.1221
vn 0.4464 0.8912 -0.0803
vn 0.1034 0.0653 0.9925
vn 0.1035 0.0651 0.9925
vn -0.2785 0.9604 -0.0040
vn -0.0455 0.9952 -0.0868
vn -0.4439 -0.8862 0.1325
vn -0.8786 -0.4566 0.1403
vn -0.6235 -0.7759 0.0964
vn -0.1541 -0.9864 0.0578
vn 0.1601 -0.9841 0.0769
vn 0.7408 -0.6711 -0.0275
vn 0.2988 -0.9542 0.0175
vn 0.7331 -0.6794 -0.0301
vn -0.7578 0.6492 0.0654
vn -0.5095 0.8600 -0.0285
vn -0.9729 0.2090 0.0989
vn -0.9461 0.3207 0.0460
vn -0.9173 -0.3829 0.1094
s 0
usemtl Material.007
f 1//1 11//1 2//1
f 1//2 2//2 8//2
f 1//2 8//2 3//2
f 1//1 3//1 4//1
f 1//2 4//2 5//2
f 7//4 1//4 6//4
f 1//4 9//4 6//4
f 1//5 7//5 10//5
f 1//1 10//1 11//1
usemtl Material.006
f 12//3 5//3 1//3
f 13//6 1//6 9//6
f 1//7 13//7 12//7
f 14//2 12//2 13//2
f 14//4 13//4 15//4
f 9//8 15//8 13//8
f 15//9 9//9 6//9
f 6//10 14//10 15//10
f 14//11 17//11 16//11
f 14//11 16//11 21//11
f 14//12 18//12 17//12
f 7//13 18//13 14//13
f 14//2 19//2 12//2
f 14//11 20//11 19//11
f 14//11 21//11 20//11
f 14//14 6//14 7//14
f 8//15 20//15 21//15
f 2//16 21//16 16//16
f 21//17 2//17 8//17
f 20//18 8//18 3//18
f 3//19 19//19 20//19
f 5//20 12//20 19//20
f 19//21 3//21 4//21
f 19//22 4//22 5//22
f 10//23 17//23 18//23
f 18//24 7//24 10//24
f 11//25 16//25 17//25
f 17//26 10//26 11//26
f 16//27 11//27 2//27
