# Blender 5.0.1
# www.blender.org
mtllib torso_y_link_visual_57.mtl
o i01.torso.full.064_visual.001
v -0.063690 0.005007 -0.091153
v -0.065014 -0.002220 -0.092006
v -0.033390 -0.004632 -0.085302
v -0.080919 -0.000005 -0.036946
v -0.065743 0.010377 -0.091182
v -0.032872 0.013957 -0.083742
v -0.026316 0.027589 -0.081248
v -0.037734 0.003401 -0.067266
v -0.035340 0.016415 -0.065727
v -0.028312 0.009572 -0.041851
v -0.025153 0.016353 -0.040767
v -0.029871 0.026568 -0.063749
v -0.029903 -0.000553 -0.042982
v -0.036508 -0.008351 -0.067916
v -0.027064 -0.012621 -0.043306
v -0.043347 -0.010340 0.021183
v -0.043551 -0.001883 0.021103
v -0.076389 -0.000740 0.014047
v -0.042497 0.006097 0.027122
v -0.079031 0.008588 0.026834
v -0.077623 0.006688 0.020216
v -0.043455 0.008064 0.038102
v -0.080468 0.007325 0.033382
v -0.051130 0.007038 0.078827
v -0.047784 0.002087 0.046523
v -0.081845 0.001734 0.039370
v -0.082337 -0.005030 0.041204
v -0.055464 -0.003288 0.077085
v -0.049567 -0.005916 0.048322
v -0.082158 -0.011725 0.039954
v -0.049186 -0.011275 0.047385
v -0.054979 -0.016674 0.076147
v -0.046910 -0.017037 0.043771
v -0.044226 -0.019936 0.038192
v -0.081055 -0.017871 0.034473
v -0.049634 -0.027478 0.076469
v -0.042571 -0.019915 0.032010
v -0.020321 -0.021912 -0.042640
v -0.040886 -0.035463 0.077752
v -0.088330 -0.072913 0.064493
v -0.030664 -0.038848 0.079717
v -0.068872 -0.065947 -0.024804
v -0.079647 -0.019770 0.027855
v 0.035885 -0.074641 0.091425
v 0.055343 -0.067675 0.002128
v -0.010652 -0.034599 0.084409
v -0.088696 0.054012 0.074323
v -0.021042 -0.038708 0.081823
v 0.012983 -0.026568 -0.035688
v 0.004070 -0.029592 -0.037872
v 0.009744 -0.040881 -0.060027
v -0.004857 -0.029494 -0.039789
v -0.004788 -0.040050 -0.063478
v -0.012970 -0.026903 -0.041343
v -0.024018 -0.029847 -0.066870
v -0.014333 -0.036490 -0.065282
v -0.006138 -0.037318 -0.081913
v -0.018707 -0.029734 -0.084062
v -0.027411 -0.019751 -0.085180
v -0.032160 -0.019359 -0.067827
v 0.013192 -0.071328 -0.080356
v 0.008123 -0.039754 -0.078997
v 0.019552 -0.038156 -0.076381
v 0.023355 -0.036448 -0.057065
v 0.031283 -0.032668 -0.073397
v 0.040657 -0.023583 -0.070646
v 0.031687 -0.030508 -0.054790
v 0.079966 -0.003739 -0.060533
v 0.017787 -0.076007 -0.079718
v 0.019566 -0.082335 -0.079824
v 0.084772 -0.008763 -0.059876
v 0.072087 -0.090359 -0.069006
v 0.094421 -0.069038 -0.062475
v 0.092687 -0.052703 0.011432
v 0.078069 -0.075753 0.006450
v 0.061618 -0.092066 0.001593
v 0.108403 -0.045568 -0.057603
v 0.116584 -0.019303 -0.053768
v 0.091014 -0.010437 -0.058647
v 0.097423 -0.008148 -0.057072
v 0.076859 -0.008781 -0.003251
v 0.082275 -0.007838 -0.001992
v 0.084423 -0.002121 -0.001082
v 0.101306 -0.002991 -0.055823
v 0.081952 0.002046 -0.001296
v 0.094295 0.012732 -0.056125
v 0.099742 0.008432 -0.055273
v 0.073085 -0.005796 -0.003840
v 0.077579 0.003325 -0.002150
v 0.072959 0.000312 -0.003386
v 0.078970 0.003995 -0.060145
v 0.087071 0.012925 -0.057684
v 0.081971 0.009744 -0.059043
v 0.037600 0.031410 -0.067020
v 0.044076 0.022462 -0.066308
v 0.048412 0.009845 -0.066348
v 0.038226 0.024404 -0.049063
v 0.043291 0.013772 -0.048802
v 0.027017 0.008249 -0.029893
v 0.045180 0.003598 -0.049186
v 0.028187 -0.004073 -0.030601
v 0.044723 -0.006710 -0.050089
v 0.048883 -0.003400 -0.067279
v 0.045689 -0.014764 -0.068862
v 0.040304 -0.019752 -0.051797
v 0.020121 -0.021233 -0.033700
v 0.025059 -0.014015 -0.031947
v 0.008900 -0.020122 0.041455
v -0.002959 -0.026827 0.086689
v 0.007104 -0.020824 0.049705
v 0.011735 -0.016244 0.036082
v 0.046434 -0.019292 0.046324
v 0.047575 -0.012812 0.041471
v 0.014490 -0.007373 0.032932
v 0.047910 -0.005874 0.040375
v 0.013318 0.000666 0.035110
v 0.047166 0.002964 0.044374
v 0.010792 0.005321 0.039165
v 0.045661 0.006586 0.051551
v 0.008292 0.007343 0.045059
v 0.044170 0.006354 0.058409
v 0.007114 0.005436 0.053777
v -0.003070 0.007736 0.089363
v 0.021323 0.018689 -0.030359
v 0.013369 0.025588 -0.031563
v 0.031587 0.032220 -0.049911
v 0.021983 0.039171 -0.051460
v 0.029871 0.038100 -0.068185
v 0.018999 0.087974 -0.066663
v 0.017833 0.081960 -0.067386
v 0.013386 0.076743 -0.068761
v 0.017115 0.043818 -0.070518
v 0.063469 0.099120 -0.056106
v 0.078911 0.087582 -0.053639
v 0.049991 0.092884 0.013487
v 0.068542 0.077775 0.016352
v 0.095370 0.070130 -0.051415
v 0.093032 0.042646 0.018947
v 0.081236 0.063140 0.017976
v 0.108927 0.046232 -0.050323
v 0.114923 0.027745 -0.050457
v 0.101346 0.016447 0.018714
v 0.118003 0.007991 -0.051329
v 0.102942 -0.011190 0.016906
v 0.054978 0.059250 0.011952
v 0.010113 0.108341 0.005992
v -0.073288 0.088968 -0.013682
v -0.031935 0.107903 -0.003194
v -0.008516 0.110011 0.002072
v -0.069236 0.060979 -0.014982
v 0.035520 0.052284 0.101252
v -0.057169 0.098943 -0.009391
v 0.029350 0.102920 0.009770
v 0.027173 0.113354 -0.062903
v 0.045731 0.107834 -0.059290
v 0.009206 0.098839 -0.067948
v 0.015707 0.095505 -0.066792
v 0.000631 0.115572 -0.068513
v -0.025987 0.110761 -0.074687
v 0.001494 0.097811 -0.069707
v -0.003517 0.091651 -0.071282
v -0.010377 0.085334 -0.014918
v -0.003933 0.083881 -0.071980
v -0.047167 0.101649 -0.080011
v 0.000325 0.077847 -0.071523
v -0.010350 0.080204 -0.015313
v -0.006654 0.076981 -0.014761
v -0.002048 0.077091 -0.013748
v 0.005888 0.075400 -0.070501
v 0.001338 0.081380 -0.012673
v -0.000462 0.087658 -0.012567
v -0.006996 0.088778 -0.013913
v -0.008402 0.041969 -0.076222
v 0.002684 0.044893 -0.073579
v 0.000836 0.043614 -0.055724
v -0.012865 0.040644 -0.059001
v -0.019393 0.022790 -0.038877
v -0.024017 0.033166 -0.061956
v -0.009353 0.028408 -0.036302
v -0.018474 0.036191 -0.078868
v 0.002331 0.029232 -0.033681
v -0.023950 0.019901 0.085762
v -0.043802 0.014957 0.081053
v -0.033010 0.019474 0.083754
v -0.014069 0.017024 0.087691
v 0.010929 0.042861 -0.053587
v -0.068818 0.085789 -0.085970
v -0.090792 0.073195 -0.018727
v -0.085896 0.064590 -0.091344
v -0.096156 0.043613 -0.095216
v -0.107707 0.047175 -0.024443
v -0.071740 0.015333 -0.092100
v -0.079794 0.014865 -0.093892
v -0.083813 0.005102 -0.037176
v -0.089947 0.005655 -0.038472
v -0.093918 0.000486 -0.039740
v -0.084488 0.011100 -0.095210
v -0.101197 0.024422 -0.097811
v -0.103163 0.001358 -0.100041
v -0.086949 0.005072 -0.096216
v -0.085269 -0.002128 -0.096411
v -0.080235 -0.006918 -0.095688
v -0.092151 -0.004800 -0.039769
v -0.087385 -0.007220 -0.038918
v -0.071948 -0.007875 -0.093955
v -0.082245 -0.004738 -0.037604
v -0.003033 -0.077408 -0.084365
v -0.044623 -0.095867 -0.094868
v 0.000263 -0.072810 -0.083288
v -0.003650 -0.083508 -0.084975
v -0.064219 -0.082229 -0.098073
v -0.008092 -0.081021 -0.027399
v -0.010655 -0.085817 -0.028331
v -0.079728 -0.065021 -0.100110
v -0.090398 -0.048119 -0.101118
v -0.104587 -0.055279 -0.031754
v -0.093986 -0.071535 -0.030713
v -0.077640 -0.089093 -0.028521
v -0.058515 -0.101944 -0.025356
v -0.027210 -0.103920 -0.091702
v -0.040473 -0.109961 -0.022050
v -0.000911 -0.109920 -0.086438
v -0.021900 -0.114327 -0.018343
v 0.001635 -0.115571 -0.013311
v 0.029724 -0.108411 -0.079647
v 0.022843 -0.111754 -0.008394
v 0.052216 -0.101278 -0.074189
v 0.042148 -0.104474 -0.003618
v 0.013070 -0.092558 -0.082038
v 0.017327 -0.088881 -0.080823
v -0.001484 -0.092141 -0.026824
v 0.001921 -0.087940 -0.025756
v 0.001251 -0.083134 -0.025528
v -0.002847 -0.079835 -0.026161
v 0.005640 -0.070135 -0.081906
v 0.005228 -0.093721 -0.083835
v -0.007626 -0.091758 -0.028128
v -0.001249 -0.089187 -0.084894
v -0.112716 -0.035713 -0.032000
v -0.098822 -0.026288 -0.101251
v -0.116887 -0.017928 -0.031521
v -0.118003 0.002014 -0.030208
v -0.115993 0.021252 -0.028270
v 0.001720 -0.004529 0.089449
v 0.041877 -0.005950 0.068193
v 0.042649 0.001725 0.065130
v 0.042117 -0.014096 0.066567
v 0.001864 -0.015835 0.088598
v 0.007635 -0.016857 0.056518
v 0.008206 -0.011905 0.059901
v 0.008255 -0.003677 0.060745
v 0.043288 -0.019952 0.060791
v 0.044674 -0.021509 0.054298
v 0.099980 -0.030650 0.014743
v 0.101922 0.003102 -0.055213
v -0.077932 -0.017999 0.020059
v -0.076548 -0.010385 0.014163
v -0.042431 -0.016970 0.025871
vn -0.9381 0.2049 -0.2792
vn 0.2123 0.0760 -0.9742
vn 0.2123 0.0759 -0.9743
vn -0.8864 -0.3407 -0.3133
vn 0.2122 0.0760 -0.9743
vn 0.9660 -0.0482 0.2541
vn 0.2122 0.0762 -0.9743
vn 0.8729 -0.4530 0.1814
vn 0.9674 -0.1968 0.1594
vn 0.9438 -0.1136 -0.3104
vn 0.8678 -0.3476 -0.3551
vn 0.8518 -0.3910 -0.3486
vn 0.8588 -0.4911 0.1458
vn 0.9366 -0.1339 -0.3238
vn 0.9507 0.1150 -0.2878
vn 0.9220 0.2254 -0.3147
vn 0.9483 0.2169 0.2318
vn 0.9639 -0.1740 0.2017
vn 0.9776 0.0256 0.2087
vn -0.2099 0.0042 0.9777
vn -0.1910 -0.5749 0.7956
vn 0.9477 -0.2623 0.1817
vn -0.0684 -0.9830 0.1702
vn -0.0677 -0.9627 0.2619
vn -0.1577 -0.6463 0.7466
vn 0.8800 -0.4482 0.1571
vn 0.8847 -0.4378 0.1599
vn 0.0863 -0.8329 -0.5467
vn 0.0426 -0.9827 -0.1802
vn 0.8676 -0.4736 0.1516
vn 0.8918 -0.4241 0.1574
vn 0.2006 -0.2701 -0.9417
vn 0.1457 -0.7396 -0.6571
vn 0.1985 -0.2568 -0.9459
vn 0.9012 -0.4045 0.1553
vn 0.9628 -0.1667 0.2126
vn 0.2134 0.1848 -0.9593
vn 0.2138 0.1829 -0.9596
vn 0.9796 0.0351 0.1977
vn 0.1730 0.5716 -0.8021
vn 0.9455 0.2273 0.2331
vn 0.9793 0.0214 0.2013
vn 0.1791 0.6725 -0.7181
vn 0.0933 0.9011 -0.4234
vn 0.8839 0.4191 0.2075
vn 0.8733 0.4383 0.2127
vn 0.8168 0.5332 0.2205
vn 0.8210 0.5268 0.2201
vn 0.7820 0.5833 0.2197
vn 0.6458 0.7386 0.1934
vn -0.2123 -0.0760 0.9743
vn -0.2123 -0.0760 0.9742
vn -0.2124 -0.0759 0.9742
vn -0.2122 -0.0762 0.9743
vn -0.9772 0.0136 -0.2119
vn 0.0029 -0.9970 -0.0772
vn -0.9772 0.0135 -0.2120
vn -0.2127 -0.0752 0.9742
vn -0.9773 0.0137 -0.2116
vn -0.2121 -0.0761 0.9743
vn -0.3657 0.9307 -0.0097
vn -0.3223 0.9466 0.0045
vn -0.0297 0.9971 0.0697
vn 0.1023 0.8967 -0.4307
vn -0.1733 0.8589 -0.4820
vn -0.0056 0.9970 0.0768
vn 0.1472 0.9036 -0.4023
vn 0.3467 0.8571 -0.3810
vn 0.2782 0.9512 0.1336
vn 0.2877 0.9480 0.1363
vn 0.5298 0.8280 0.1837
vn 0.5692 0.7518 -0.3330
vn 0.5699 0.7511 -0.3333
vn 0.3850 0.8490 -0.3619
vn 0.5380 0.8253 0.1716
vn 0.3280 0.9376 0.1150
vn 0.4820 0.8542 0.1950
vn 0.2058 0.0645 -0.9765
vn 0.7213 0.6544 0.2271
vn 0.2122 0.0759 -0.9743
vn 0.9024 0.3587 0.2388
vn 0.2123 0.0761 -0.9742
vn 0.7659 0.6125 0.1958
vn 0.9026 0.3584 0.2386
vn 0.8931 0.3505 -0.2819
vn 0.7796 0.5434 -0.3113
vn 0.7660 0.5671 -0.3026
vn 0.2124 0.0761 -0.9742
vn 0.1399 0.9809 0.1352
vn -0.1542 0.9854 0.0717
vn 0.2124 0.0760 -0.9742
vn 0.0438 0.9975 0.0555
vn -0.4245 0.9054 0.0035
vn -0.3048 0.9521 -0.0242
vn 0.2123 0.0760 -0.9743
vn -0.6836 0.7265 -0.0695
vn 0.2124 0.0758 -0.9742
vn -0.5633 0.8220 -0.0832
vn 0.2124 0.0759 -0.9742
vn 0.2126 0.0759 -0.9742
vn 0.2120 0.0761 -0.9743
vn 0.8384 -0.5278 0.1363
vn 0.8219 -0.5518 0.1412
vn 0.6871 -0.7206 0.0928
vn 0.6755 -0.7328 0.0825
vn 0.2120 0.0759 -0.9743
vn 0.9315 -0.3163 0.1794
vn -0.3147 0.9447 -0.0919
vn 0.2522 0.9670 0.0355
vn -0.1555 0.9854 -0.0692
vn -0.8836 0.3763 -0.2785
vn 0.2117 0.0755 -0.9744
vn -0.7556 0.6200 -0.2113
vn 0.2132 0.0756 -0.9741
vn -0.5678 -0.7745 -0.2788
vn -0.2299 -0.9442 -0.2358
vn -0.8063 -0.4947 -0.3243
vn 0.2115 0.0769 -0.9743
vn 0.2120 0.0747 -0.9744
vn 0.9943 0.0126 0.1061
vn 0.8798 -0.4713 0.0626
vn 0.5389 -0.8405 -0.0552
vn 0.5547 -0.8306 -0.0488
vn -0.7860 -0.5848 -0.2008
vn -0.9269 -0.3179 -0.1994
vn -0.8721 -0.4216 -0.2484
vn -0.6644 -0.3329 -0.6691
vn -0.7369 -0.1116 -0.6668
vn -0.9558 -0.1683 -0.2413
vn -0.7314 -0.0303 -0.6813
vn -0.7533 0.0905 -0.6514
vn -0.9727 0.0627 -0.2233
vn -0.9811 -0.0214 -0.1925
vn -0.9418 0.2887 -0.1723
vn -0.8517 0.5101 -0.1197
vn -0.9215 0.3374 -0.1922
vn -0.7522 0.6429 -0.1448
vn -0.5560 0.6043 -0.5707
vn -0.5817 0.5447 -0.6041
vn -0.7091 0.3090 -0.6339
vn -0.7004 0.3208 -0.6376
vn -0.8039 0.5810 -0.1271
vn -0.9327 0.3168 -0.1723
vn -0.8893 0.4283 -0.1602
vn -0.5874 -0.7855 -0.1947
vn -0.8265 0.5462 -0.1362
vn -0.1746 0.6097 0.7731
vn -0.0899 0.8295 0.5512
vn -0.1729 0.3768 0.9100
vn -0.9543 0.2275 -0.1939
vn -0.2214 0.1627 0.9615
vn -0.1964 -0.2830 0.9388
vn -0.9735 -0.0802 -0.2141
vn -0.9731 -0.0836 -0.2148
vn -0.2134 -0.4177 0.8832
vn -0.1460 -0.6936 0.7054
vn -0.9253 -0.3015 -0.2302
vn -0.1193 -0.8962 0.4273
vn -0.0708 -0.9524 0.2966
vn -0.8748 -0.4297 -0.2237
vn -0.0139 -0.9992 -0.0367
vn 0.0501 -0.9771 -0.2070
vn -0.8614 -0.4593 -0.2168
vn -0.8642 -0.4537 -0.2176
vn -0.8525 -0.4747 -0.2187
vn -0.5417 -0.5309 -0.6517
vn -0.6287 -0.3733 -0.6822
vn -0.6253 -0.7552 -0.1965
vn -0.4358 -0.6167 -0.6556
vn -0.5512 -0.8080 -0.2082
vn -0.3871 -0.6749 -0.6283
vn -0.7302 -0.6448 -0.2261
vn -0.6271 -0.7567 -0.1846
vn 0.2121 0.0760 -0.9743
vn -0.3869 -0.9137 -0.1240
vn 0.2123 0.0759 -0.9742
vn 0.5697 0.8014 0.1821
vn 0.6006 0.7748 0.1975
vn 0.7000 0.6856 0.1998
vn 0.8407 0.4944 0.2210
vn 0.8443 0.4890 0.2191
vn 0.7261 0.6535 0.2137
vn 0.9261 0.2987 0.2306
vn 0.9286 0.2927 0.2282
vn 0.9668 0.1414 0.2128
vn 0.9731 0.0414 0.2264
vn -0.2122 -0.0760 0.9743
vn -0.2118 -0.0752 0.9744
vn -0.2128 -0.0762 0.9741
vn -0.2123 -0.0759 0.9742
vn -0.2123 -0.0759 0.9743
vn -0.0029 0.9970 0.0772
vn 0.9772 -0.0136 0.2119
vn 0.9772 -0.0136 0.2118
vn 0.9772 -0.0135 0.2119
vn 0.4080 0.8987 0.1607
vn 0.2451 0.9607 0.1306
vn 0.2594 0.9570 0.1296
vn 0.4119 0.8970 0.1602
vn 0.0644 0.9940 0.0883
vn 0.0707 0.9937 0.0874
vn -0.1039 0.9925 0.0647
vn -0.1832 0.9828 0.0241
vn 0.2121 0.0758 -0.9743
vn 0.2130 0.0758 -0.9741
vn 0.7726 -0.6345 0.0229
vn 0.9915 -0.0633 0.1136
vn 0.8056 0.5782 0.1288
vn 0.9937 -0.0034 0.1123
vn 0.6467 0.7573 0.0911
vn 0.2124 0.0767 -0.9742
vn 0.2122 0.0761 -0.9743
vn -0.0168 0.9993 -0.0321
vn -0.1643 0.9850 -0.0523
vn -0.7405 0.6378 -0.2118
vn 0.2115 0.0772 -0.9743
vn 0.2139 0.0768 -0.9738
vn 0.1609 -0.9779 -0.1338
vn 0.7142 -0.6999 -0.0046
vn -0.1214 -0.9687 -0.2167
vn -0.4068 -0.8791 -0.2485
vn -0.8678 -0.3848 -0.3144
vn -0.9094 -0.2550 -0.3286
vn -0.7164 0.6657 -0.2089
vn -0.9357 0.2151 -0.2798
vn 0.3922 0.9178 0.0622
vn 0.2125 0.0760 -0.9742
vn -0.0577 -0.9953 -0.0773
vn 0.2568 -0.9664 -0.0078
vn 0.2223 -0.9739 -0.0468
vn 0.5201 -0.7156 -0.4662
vn 0.5789 -0.6941 -0.4280
vn 0.5509 -0.8340 0.0314
vn 0.2948 -0.8213 -0.4883
vn 0.4851 -0.8725 0.0586
vn 0.7200 -0.6858 0.1063
vn 0.2125 0.0759 -0.9742
vn 0.7269 -0.6767 0.1172
vn 0.0835 -0.9947 -0.0594
vn 0.1802 -0.8182 -0.5460
vn 0.4800 -0.8763 0.0405
vn 0.0607 -0.9962 -0.0622
vn 0.3846 -0.9231 0.0071
vn -0.2124 -0.0760 0.9742
vn -0.2121 -0.0759 0.9743
vn -0.2123 -0.0762 0.9742
vn 0.7158 -0.6909 0.1017
vn 0.7260 -0.6799 0.1033
vn -0.2129 -0.0768 0.9741
vn -0.2536 -0.9585 -0.1307
vn -0.2123 -0.0761 0.9742
vn -0.6150 -0.7637 -0.1963
vn -0.2873 -0.9484 -0.1342
vn 0.0538 -0.8346 -0.5482
vn -0.1466 -0.7856 -0.6012
vn -0.1447 -0.7869 -0.5998
vn -0.0579 -0.9953 -0.0774
vn -0.2852 -0.9454 -0.1577
vn 0.7379 -0.5474 -0.3948
vn 0.7394 -0.5461 -0.3937
vn -0.3908 0.9202 -0.0201
vn -0.5179 0.8545 -0.0406
vn -0.5766 0.8139 -0.0715
vn -0.7564 0.6416 -0.1270
vn -0.6558 0.7513 -0.0736
vn -0.8735 0.4578 -0.1656
vn -0.8198 0.5596 -0.1216
vn 0.0899 -0.9850 -0.1472
vn -0.0476 -0.9800 -0.1930
vn -0.5882 -0.7619 -0.2712
vn 0.2127 0.0755 -0.9742
vn 0.7908 -0.6119 0.0174
vn 0.6281 -0.7780 -0.0142
vn 0.2124 0.0762 -0.9742
vn 0.9179 -0.3884 0.0817
vn 0.9654 0.2216 0.1371
vn 0.2125 0.0763 -0.9742
vn 0.6759 0.7277 0.1165
vn 0.9407 0.3138 0.1291
vn 0.4433 0.8943 0.0606
vn 0.2130 0.0767 -0.9740
vn 0.1107 0.9937 0.0192
vn -0.4055 0.9056 -0.1245
vn -0.9149 0.2946 -0.2761
vn -0.5984 0.7865 -0.1531
vn 0.8084 -0.5876 0.0345
vn 0.9868 -0.1115 0.1175
vn 0.8771 -0.4780 0.0476
vn -0.7139 -0.6682 -0.2094
vn -0.8184 -0.5299 -0.2221
vn -0.8111 -0.5429 -0.2176
vn -0.7039 -0.6807 -0.2030
vn -0.5407 -0.8205 -0.1853
vn -0.5284 -0.8301 -0.1782
vn -0.3781 -0.9133 -0.1512
vn -0.3908 -0.9069 -0.1574
vn -0.2033 -0.9710 -0.1255
vn -0.1975 -0.9727 -0.1220
vn -0.0365 -0.9965 -0.0757
vn 0.0665 -0.9946 -0.0792
vn 0.1834 -0.9826 -0.0284
vn -0.2122 -0.0761 0.9743
vn 0.3056 -0.9520 -0.0152
vn 0.3512 -0.9363 0.0077
vn 0.5256 -0.8488 0.0574
vn 0.4757 -0.8791 0.0281
vn -0.9014 0.3477 -0.2581
vn -0.6164 0.7692 -0.1683
vn -0.7311 0.6473 -0.2156
vn -0.9406 -0.1160 -0.3190
vn 0.2123 0.0758 -0.9743
vn 0.2122 0.0757 -0.9743
vn -0.9158 -0.2522 -0.3126
vn -0.5726 -0.7669 -0.2898
vn -0.6620 -0.6900 -0.2927
vn 0.2125 0.0770 -0.9741
vn -0.1156 -0.9755 -0.1873
vn 0.2477 -0.9602 -0.1293
vn 0.2125 0.0762 -0.9742
vn 0.2120 0.0757 -0.9743
vn 0.4573 -0.8872 -0.0620
vn -0.1368 0.9896 -0.0435
vn 0.0664 0.9976 -0.0198
vn 0.2115 0.0753 -0.9745
vn 0.5596 0.8227 0.1001
vn 0.2131 0.0754 -0.9741
vn 0.8828 0.4543 0.1197
vn 0.2126 0.0760 -0.9742
vn 0.9128 0.3877 0.1287
vn 0.2119 0.0763 -0.9743
vn -0.8993 -0.3764 -0.2228
vn -0.9510 -0.2171 -0.2203
vn -0.9075 -0.3516 -0.2299
vn -0.9623 -0.1409 -0.2324
vn -0.9774 -0.0410 -0.2073
vn -0.9706 0.1223 -0.2074
vn -0.9434 0.2732 -0.1883
vn -0.9315 0.3226 -0.1683
vn -0.9739 0.1026 -0.2025
vn 0.2122 0.0764 -0.9742
vn -0.8179 -0.4779 -0.3203
vn -0.3367 0.9416 0.0096
vn 0.9772 -0.0135 0.2118
vn -0.9751 0.0043 -0.2219
vn -0.8904 0.4208 -0.1736
vn -0.9559 0.2327 -0.1794
vn -0.9769 0.0275 -0.2121
vn -0.9326 -0.2856 -0.2208
vn 0.1755 -0.3801 -0.9082
vn 0.1921 -0.5809 -0.7910
vn 0.2216 0.0982 -0.9702
vn 0.1959 0.5377 -0.8200
vn 0.2014 0.1974 -0.9594
vn 0.1443 0.7093 -0.6899
vn 0.1346 0.8517 -0.5064
vn -0.8911 0.4190 -0.1744
vn 0.0452 0.9736 -0.2239
vn 0.0076 0.9962 0.0864
vn -0.0546 0.9650 0.2563
vn 0.0895 -0.8296 -0.5511
vn -0.9046 -0.3549 -0.2359
vn -0.9772 0.0136 -0.2118
vn 0.9639 -0.1695 0.2055
vn 0.9781 -0.0684 0.1967
vn 0.9278 -0.3323 0.1698
vn -0.9475 0.1253 -0.2942
vn -0.8762 -0.3620 -0.3182
vn -0.2121 -0.0758 0.9743
vn -0.6924 0.7146 -0.0995
vn -0.3857 0.7478 -0.5404
vn -0.5865 0.8076 -0.0614
vn -0.4034 0.7402 -0.5379
vn 0.0100 -0.9856 -0.1687
vn 0.9849 0.1207 0.1239
vn 0.6098 0.7879 0.0855
vn 0.7109 0.6944 0.1115
vn -0.1748 0.8587 -0.4817
vn -0.9772 0.0135 -0.2118
vn -0.2114 -0.0757 0.9745
vn -0.0205 0.9759 0.2171
vn 0.0801 0.9625 -0.2591
vn 0.0034 1.0000 0.0044
vn -0.1440 0.6221 0.7696
vn -0.0963 0.8983 0.4287
vn -0.1731 0.5526 0.8153
vn 0.9310 0.2877 0.2249
vn 0.8797 0.4206 0.2219
vn -0.2069 0.0152 0.9783
vn 0.9766 0.0911 0.1947
s 0
usemtl Material.030
f 4//1 1//1 2//1
f 1//2 3//2 2//2
f 6//3 3//3 1//3
f 4//4 5//4 1//4
f 5//5 6//5 1//5
f 8//6 3//6 6//6
f 7//7 6//7 5//7
f 9//8 6//8 7//8
f 6//9 9//9 8//9
f 9//10 10//10 13//10
f 9//11 11//11 10//11
f 11//12 9//12 12//12
f 7//13 12//13 9//13
f 13//14 8//14 9//14
f 13//15 14//15 8//15
f 14//16 13//16 15//16
f 15//17 13//17 16//17
f 13//18 10//18 17//18
f 17//19 16//19 13//19
f 16//20 17//20 18//20
f 17//21 19//21 18//21
f 19//22 17//22 10//22
f 19//23 22//23 20//23
f 20//24 21//24 19//24
f 21//25 18//25 19//25
f 11//26 22//26 19//26
f 11//27 19//27 10//27
f 22//28 25//28 23//28
f 23//29 20//29 22//29
f 22//30 11//30 24//30
f 22//31 24//31 25//31
f 27//32 26//32 25//32
f 26//33 23//33 25//33
f 25//34 29//34 27//34
f 24//35 28//35 25//35
f 29//36 25//36 28//36
f 30//37 27//37 29//37
f 29//38 31//38 30//38
f 31//39 29//39 28//39
f 31//40 33//40 30//40
f 33//41 31//41 32//41
f 28//42 32//42 31//42
f 35//43 30//43 33//43
f 33//44 34//44 35//44
f 34//45 33//45 36//45
f 32//46 36//46 33//46
f 36//47 37//47 34//47
f 37//48 36//48 15//48
f 38//49 15//49 36//49
f 36//50 39//50 38//50
f 36//51 40//51 39//51
f 32//52 40//52 36//52
f 39//53 40//53 41//53
f 40//54 48//54 41//54
f 42//55 40//55 43//55
f 42//56 45//56 40//56
f 35//55 43//55 40//55
f 35//55 40//55 30//55
f 46//52 40//52 44//52
f 44//56 40//56 45//56
f 32//53 28//53 40//53
f 30//57 40//57 27//57
f 40//58 46//58 48//58
f 40//55 47//55 26//55
f 27//59 40//59 26//59
f 47//60 40//60 28//60
f 48//61 46//61 49//61
f 49//62 50//62 48//62
f 41//63 48//63 50//63
f 51//64 52//64 50//64
f 51//65 50//65 49//65
f 50//66 52//66 41//66
f 52//67 51//67 53//67
f 53//68 54//68 52//68
f 52//69 54//69 39//69
f 39//70 41//70 52//70
f 54//71 38//71 39//71
f 55//72 38//72 54//72
f 54//73 56//73 55//73
f 54//74 53//74 56//74
f 58//75 55//75 56//75
f 57//76 56//76 53//76
f 56//77 57//77 58//77
f 2//78 58//78 57//78
f 55//79 58//79 59//79
f 2//80 59//80 58//80
f 60//81 59//81 3//81
f 2//82 3//82 59//82
f 59//83 60//83 55//83
f 3//84 14//84 60//84
f 15//85 60//85 14//85
f 60//86 15//86 38//86
f 38//87 55//87 60//87
f 2//88 57//88 61//88
f 57//5 62//5 61//5
f 53//89 62//89 57//89
f 51//90 63//90 62//90
f 61//91 62//91 63//91
f 62//92 53//92 51//92
f 64//93 65//93 63//93
f 63//94 51//94 64//94
f 65//95 61//95 63//95
f 67//96 66//96 65//96
f 68//97 65//97 66//97
f 65//98 64//98 67//98
f 65//99 68//99 71//99
f 65//100 69//100 61//100
f 65//101 70//101 69//101
f 70//2 65//2 72//2
f 71//2 73//2 65//2
f 73//2 72//2 65//2
f 74//102 73//102 77//102
f 73//103 74//103 75//103
f 73//104 75//104 76//104
f 76//105 72//105 73//105
f 77//106 73//106 71//106
f 74//107 77//107 78//107
f 78//82 77//82 79//82
f 79//82 77//82 71//82
f 80//82 78//82 79//82
f 82//108 80//108 79//108
f 81//109 79//109 71//109
f 79//110 81//110 82//110
f 84//111 82//111 83//111
f 82//112 85//112 83//112
f 82//113 84//113 80//113
f 81//114 85//114 82//114
f 85//115 86//115 87//115
f 86//116 85//116 89//116
f 87//117 83//117 85//117
f 90//118 85//118 88//118
f 88//2 85//2 81//2
f 89//119 85//119 90//119
f 91//120 90//120 88//120
f 90//121 91//121 93//121
f 90//122 93//122 92//122
f 92//123 89//123 90//123
f 94//80 92//80 93//80
f 95//82 94//82 93//82
f 95//2 93//2 91//2
f 96//82 95//82 91//82
f 97//124 94//124 95//124
f 98//125 95//125 96//125
f 95//126 98//126 97//126
f 99//127 97//127 98//127
f 99//128 98//128 100//128
f 96//129 100//129 98//129
f 100//130 101//130 99//130
f 101//131 100//131 102//131
f 103//132 102//132 100//132
f 100//133 96//133 103//133
f 103//82 91//82 68//82
f 96//2 91//2 103//2
f 104//82 103//82 68//82
f 102//134 103//134 104//134
f 104//2 68//2 66//2
f 105//135 104//135 66//135
f 104//136 105//136 102//136
f 66//137 67//137 105//137
f 106//138 105//138 67//138
f 105//139 106//139 107//139
f 105//140 107//140 101//140
f 101//141 102//141 105//141
f 107//142 106//142 109//142
f 101//143 107//143 111//143
f 107//144 108//144 111//144
f 107//145 110//145 108//145
f 110//146 107//146 109//146
f 112//147 113//147 111//147
f 111//148 108//148 112//148
f 114//149 111//149 113//149
f 111//150 114//150 101//150
f 113//151 115//151 114//151
f 116//152 114//152 115//152
f 99//153 101//153 114//153
f 114//154 116//154 99//154
f 115//155 117//155 116//155
f 118//156 116//156 117//156
f 116//157 118//157 99//157
f 117//158 119//158 118//158
f 120//159 118//159 119//159
f 118//160 120//160 99//160
f 119//161 121//161 120//161
f 122//162 120//162 121//162
f 123//163 120//163 122//163
f 124//164 120//164 123//164
f 124//165 99//165 120//165
f 124//166 126//166 97//166
f 97//167 99//167 124//167
f 125//168 124//168 123//168
f 126//169 124//169 125//169
f 128//170 126//170 127//170
f 125//171 127//171 126//171
f 94//172 97//172 126//172
f 126//173 128//173 94//173
f 133//5 128//5 129//5
f 128//174 130//174 129//174
f 128//174 131//174 130//174
f 131//5 128//5 132//5
f 127//175 132//175 128//175
f 133//176 134//176 128//176
f 134//99 94//99 128//99
f 135//177 134//177 133//177
f 134//178 135//178 136//178
f 136//179 137//179 134//179
f 134//5 137//5 94//5
f 137//180 139//180 138//180
f 138//181 140//181 137//181
f 137//182 136//182 139//182
f 92//99 137//99 140//99
f 137//95 92//95 94//95
f 140//91 141//91 86//91
f 140//2 86//2 92//2
f 142//183 141//183 140//183
f 140//184 138//184 142//184
f 142//185 143//185 141//185
f 143//186 142//186 144//186
f 145//187 142//187 138//187
f 45//52 144//52 142//52
f 45//187 142//187 145//187
f 145//188 146//188 149//188
f 145//189 153//189 146//189
f 145//52 147//52 150//52
f 152//52 147//52 145//52
f 139//187 145//187 138//187
f 136//187 145//187 139//187
f 135//190 145//190 136//190
f 145//191 149//191 148//191
f 152//191 145//191 148//191
f 145//192 150//192 47//192
f 47//192 151//192 145//192
f 145//193 151//193 121//193
f 145//194 119//194 117//194
f 145//195 121//195 119//195
f 45//193 145//193 117//193
f 145//190 135//190 153//190
f 155//196 153//196 135//196
f 154//197 146//197 153//197
f 153//198 155//198 154//198
f 129//5 155//5 133//5
f 129//3 154//3 155//3
f 135//199 133//199 155//199
f 154//5 157//5 156//5
f 158//80 154//80 156//80
f 154//5 129//5 157//5
f 146//200 154//200 158//200
f 158//201 149//201 146//201
f 158//202 148//202 149//202
f 148//203 158//203 159//203
f 159//95 158//95 161//95
f 158//204 156//204 160//204
f 161//205 158//205 160//205
f 162//206 161//206 160//206
f 163//2 159//2 161//2
f 162//207 163//207 161//207
f 163//5 164//5 159//5
f 7//5 164//5 163//5
f 163//95 165//95 7//95
f 166//208 165//208 163//208
f 163//209 162//209 166//209
f 165//210 166//210 167//210
f 166//211 168//211 167//211
f 162//212 168//212 166//212
f 169//213 167//213 168//213
f 168//214 131//214 169//214
f 131//215 168//215 170//215
f 170//216 168//216 171//216
f 171//217 168//217 172//217
f 172//174 168//174 162//174
f 172//218 160//218 156//218
f 160//219 172//219 162//219
f 156//220 171//220 172//220
f 171//221 156//221 157//221
f 171//222 157//222 129//222
f 129//223 170//223 171//223
f 170//224 130//224 131//224
f 170//225 129//225 130//225
f 167//226 169//226 165//226
f 169//95 173//95 165//95
f 174//2 173//2 169//2
f 169//227 131//227 132//227
f 169//2 132//2 174//2
f 175//228 174//228 132//228
f 176//229 173//229 174//229
f 174//230 175//230 176//230
f 176//231 179//231 177//231
f 177//232 178//232 176//232
f 180//233 176//233 178//233
f 179//234 176//234 175//234
f 176//235 180//235 173//235
f 12//236 7//236 180//236
f 165//237 180//237 7//237
f 173//2 180//2 165//2
f 180//238 178//238 12//238
f 179//239 181//239 182//239
f 175//240 181//240 179//240
f 177//241 179//241 183//241
f 182//242 184//242 179//242
f 184//243 183//243 179//243
f 184//244 182//244 151//244
f 183//245 184//245 47//245
f 151//246 47//246 184//246
f 183//247 24//247 11//247
f 11//248 177//248 183//248
f 47//249 24//249 183//249
f 185//244 151//244 182//244
f 185//250 182//250 181//250
f 123//251 151//251 185//251
f 123//252 185//252 125//252
f 181//253 125//253 185//253
f 181//254 175//254 186//254
f 181//255 186//255 127//255
f 127//256 125//256 181//256
f 132//257 186//257 175//257
f 132//258 127//258 186//258
f 11//259 12//259 178//259
f 178//260 177//260 11//260
f 152//261 159//261 164//261
f 164//262 147//262 152//262
f 164//88 7//88 187//88
f 147//263 164//263 187//263
f 188//264 187//264 189//264
f 187//265 188//265 147//265
f 189//95 187//95 7//95
f 190//2 189//2 192//2
f 191//266 189//266 190//266
f 189//267 191//267 188//267
f 192//95 189//95 7//95
f 193//91 190//91 192//91
f 195//268 193//268 192//268
f 192//269 194//269 195//269
f 194//270 192//270 5//270
f 5//7 192//7 7//7
f 194//271 196//271 195//271
f 197//272 195//272 196//272
f 195//273 197//273 193//273
f 197//274 198//274 193//274
f 199//82 198//82 197//82
f 200//237 199//237 197//237
f 196//275 200//275 197//275
f 200//237 201//237 199//237
f 196//276 201//276 200//276
f 201//277 202//277 199//277
f 203//278 202//278 201//278
f 201//279 196//279 203//279
f 202//280 203//280 204//280
f 203//281 196//281 204//281
f 204//5 196//5 206//5
f 204//282 205//282 202//282
f 205//283 204//283 206//283
f 2//284 206//284 4//284
f 206//5 196//5 4//5
f 206//285 2//285 205//285
f 207//277 202//277 205//277
f 207//204 205//204 2//204
f 208//2 211//2 207//2
f 210//2 208//2 207//2
f 202//2 207//2 214//2
f 209//95 207//95 2//95
f 212//286 207//286 209//286
f 213//287 210//287 207//287
f 207//2 211//2 214//2
f 207//288 212//288 213//288
f 217//289 214//289 211//289
f 214//91 215//91 202//91
f 216//290 215//290 214//290
f 214//291 217//291 216//291
f 211//292 218//292 217//292
f 218//52 42//52 217//52
f 217//52 42//52 216//52
f 218//52 45//52 42//52
f 218//293 211//293 208//293
f 208//294 219//294 218//294
f 45//52 218//52 219//52
f 220//295 221//295 219//295
f 219//296 208//296 220//296
f 221//52 45//52 219//52
f 222//297 223//297 221//297
f 221//298 220//298 222//298
f 223//52 45//52 221//52
f 222//299 224//299 223//299
f 223//52 224//52 45//52
f 224//300 222//300 225//300
f 225//301 226//301 224//301
f 224//302 226//302 45//302
f 226//303 225//303 227//303
f 227//304 228//304 226//304
f 226//244 228//244 45//244
f 72//305 76//305 228//305
f 228//52 76//52 45//52
f 228//306 227//306 72//306
f 225//82 70//82 227//82
f 227//82 70//82 72//82
f 225//5 222//5 229//5
f 230//82 225//82 229//82
f 70//5 225//5 230//5
f 232//307 70//307 230//307
f 231//308 230//308 229//308
f 230//309 231//309 232//309
f 70//310 232//310 233//310
f 232//311 212//311 233//311
f 231//312 212//312 232//312
f 233//313 69//313 70//313
f 61//314 233//314 234//314
f 233//315 61//315 69//315
f 233//316 212//316 234//316
f 234//317 235//317 61//317
f 235//318 234//318 212//318
f 209//319 2//319 235//319
f 2//320 61//320 235//320
f 212//321 209//321 235//321
f 231//322 229//322 236//322
f 236//323 237//323 231//323
f 237//324 212//324 231//324
f 237//325 236//325 238//325
f 213//326 212//326 237//326
f 238//327 213//327 237//327
f 238//328 236//328 222//328
f 220//99 210//99 238//99
f 213//329 238//329 210//329
f 222//91 220//91 238//91
f 229//330 222//330 236//330
f 208//82 210//82 220//82
f 216//52 42//52 239//52
f 215//331 216//331 239//331
f 42//52 241//52 239//52
f 240//332 239//332 241//332
f 239//333 240//333 215//333
f 241//334 199//334 240//334
f 199//335 241//335 242//335
f 42//52 242//52 241//52
f 199//336 242//336 243//336
f 150//190 243//190 242//190
f 150//51 242//51 42//51
f 150//52 191//52 243//52
f 243//337 190//337 198//337
f 190//338 243//338 191//338
f 243//339 198//339 199//339
f 202//91 240//91 199//91
f 202//2 215//2 240//2
f 198//2 190//2 193//2
f 4//340 196//340 194//340
f 5//341 4//341 194//341
f 150//52 188//52 191//52
f 147//52 188//52 150//52
f 159//342 152//342 148//342
f 244//251 151//251 123//251
f 248//244 151//244 244//244
f 245//343 151//343 247//343
f 246//193 151//193 245//193
f 121//193 151//193 246//193
f 44//244 151//244 248//244
f 151//193 44//193 247//193
f 44//244 248//244 109//244
f 248//344 244//344 251//344
f 109//345 248//345 249//345
f 250//346 249//346 248//346
f 251//347 250//347 248//347
f 122//348 251//348 244//348
f 246//349 245//349 251//349
f 251//350 122//350 246//350
f 250//351 251//351 245//351
f 249//352 250//352 247//352
f 245//353 247//353 250//353
f 247//354 252//354 249//354
f 110//355 249//355 252//355
f 249//356 110//356 109//356
f 252//357 253//357 110//357
f 252//193 44//193 253//193
f 247//194 44//194 252//194
f 108//358 110//358 253//358
f 253//359 112//359 108//359
f 45//193 253//193 44//193
f 112//193 253//193 45//193
f 121//360 246//360 122//360
f 244//361 123//361 122//361
f 150//55 20//55 47//55
f 18//362 21//362 150//362
f 21//55 20//55 150//55
f 18//55 150//55 42//55
f 78//363 144//363 254//363
f 144//364 78//364 143//364
f 45//52 254//52 144//52
f 45//302 74//302 254//302
f 78//365 254//365 74//365
f 141//82 143//82 87//82
f 143//5 78//5 84//5
f 255//3 87//3 143//3
f 84//7 255//7 143//7
f 83//366 255//366 84//366
f 83//367 87//367 255//367
f 87//2 86//2 141//2
f 115//194 45//194 117//194
f 45//193 115//193 113//193
f 113//193 112//193 45//193
f 44//368 109//368 46//368
f 46//369 109//369 106//369
f 106//370 67//370 64//370
f 49//371 46//371 106//371
f 64//372 49//372 106//372
f 89//373 92//373 86//373
f 88//374 68//374 91//374
f 71//375 88//375 81//375
f 88//376 71//376 68//376
f 80//5 84//5 78//5
f 75//52 45//52 76//52
f 75//51 74//51 45//51
f 49//377 64//377 51//377
f 20//378 23//378 47//378
f 26//55 47//55 23//55
f 47//379 28//379 24//379
f 256//380 43//380 37//380
f 42//378 43//378 256//378
f 43//381 35//381 34//381
f 34//382 37//382 43//382
f 257//383 256//383 258//383
f 42//55 256//55 257//55
f 37//384 258//384 256//384
f 258//385 16//385 257//385
f 16//386 258//386 15//386
f 258//387 37//387 15//387
f 257//378 18//378 42//378
f 18//388 257//388 16//388
f 3//389 8//389 14//389
