# Blender 5.0.1
# www.blender.org
mtllib torso_y_link_visual_2.mtl
o i01.torso.full.004_visual.001
v 0.014122 -0.090508 -0.008699
v 0.010555 -0.091258 -0.000821
v 0.012694 -0.133140 -0.008192
v 0.013323 -0.089846 -0.015647
v 0.014288 -0.132421 -0.015755
v 0.035398 -0.090618 -0.007542
v 0.033115 -0.091510 0.001812
v 0.027269 -0.092494 0.012120
v 0.029544 -0.064052 0.011589
v 0.034830 -0.062880 -0.000710
v 0.034804 -0.061585 -0.014309
v 0.193090 -0.072028 0.095317
v 0.193090 -0.052374 -0.110997
v -0.004285 -0.058855 -0.042970
v 0.023107 -0.059645 -0.034669
v 0.031150 -0.060598 -0.024651
v 0.010704 -0.058972 -0.041736
v -0.193144 -0.052374 -0.110997
v 0.207346 -0.080380 -0.113547
v 0.208369 0.008224 -0.104816
v 0.193090 0.006076 -0.058115
v 0.193089 0.009404 -0.104250
v 0.220518 0.009745 -0.100873
v 0.229868 0.009071 -0.094676
v 0.227961 0.007380 -0.099014
v 0.220339 0.007289 -0.102964
v 0.226286 -0.054050 -0.106236
v 0.218047 -0.072248 -0.111211
v 0.251917 -0.079606 0.094595
v 0.244216 -0.094055 0.093218
v 0.232138 -0.039209 0.098443
v 0.234224 -0.100094 0.092643
v 0.226356 -0.038533 0.098509
v -0.234895 -0.100078 0.092646
v 0.042255 -0.095720 0.046021
v 0.070390 -0.091173 -0.001727
v 0.003984 -0.097058 0.060041
v 0.025309 -0.096610 0.055350
v 0.054583 -0.094603 0.034278
v 0.064256 -0.093167 0.019212
v 0.058219 -0.136355 0.025544
v 0.069693 -0.133761 -0.001666
v 0.065354 -0.135085 0.012222
v 0.070604 -0.132126 -0.018840
v 0.066945 -0.130292 -0.038088
v 0.069958 -0.089343 -0.020935
v 0.066253 -0.087984 -0.035196
v 0.056907 -0.086308 -0.052789
v 0.040653 -0.084833 -0.068269
v 0.056263 -0.128462 -0.057303
v 0.042579 -0.127167 -0.070896
v 0.024920 -0.126245 -0.080580
v 0.005458 -0.131286 -0.027652
v 0.011002 -0.131677 -0.023551
v 0.009716 -0.089359 -0.020767
v 0.004636 -0.089051 -0.024002
v 0.028109 -0.088293 -0.031958
v 0.020028 -0.087557 -0.039689
v 0.010071 -0.087114 -0.044330
v -0.001760 -0.086965 -0.045896
v -0.013003 -0.087213 -0.043288
v -0.003678 -0.089022 -0.024294
v -0.000871 -0.131188 -0.028681
v -0.012414 -0.089610 -0.018141
v -0.007145 -0.131357 -0.026910
v -0.021540 -0.087650 -0.038695
v -0.029204 -0.088429 -0.030530
v -0.013575 -0.059102 -0.040378
v -0.024253 -0.059725 -0.033826
v -0.033661 -0.061081 -0.019595
v -0.035423 -0.062352 -0.006260
v -0.034623 -0.089537 -0.018903
v -0.035158 -0.090789 -0.005754
v -0.014174 -0.090560 -0.008157
v -0.009984 -0.091316 -0.000221
v -0.013283 -0.133055 -0.009086
v -0.013759 -0.132098 -0.019135
v -0.030614 -0.092059 0.007552
v -0.022056 -0.092961 0.017042
v -0.033208 -0.063402 0.004769
v -0.024778 -0.064636 0.017737
v -0.193144 -0.072029 0.095317
v -0.012388 -0.065360 0.025313
v -0.014001 -0.093432 0.021989
v -0.002851 -0.093684 0.024639
v -0.003786 -0.091636 0.003142
v -0.003303 -0.133861 -0.000622
v 0.002608 -0.091665 0.003438
v 0.006338 -0.133767 -0.001635
v 0.006996 -0.093628 0.024051
v 0.016663 -0.093306 0.020664
v 0.022772 -0.064781 0.019243
v 0.010715 -0.065411 0.025885
v -0.002151 -0.065555 0.027369
v 0.022907 -0.138894 0.052203
v 0.042890 -0.137901 0.041781
v 0.006752 -0.139215 0.055578
v -0.010827 -0.139179 0.055192
v -0.029925 -0.138627 0.049405
v -0.014316 -0.096901 0.058399
v -0.027754 -0.096518 0.054387
v -0.044646 -0.095554 0.044269
v -0.058251 -0.094166 0.029694
v -0.046469 -0.137610 0.038727
v -0.056004 -0.136630 0.028439
v -0.008882 -0.133588 -0.003491
v -0.064021 -0.135410 0.015632
v -0.069370 -0.133873 -0.000503
v -0.066308 -0.092685 0.014152
v -0.070407 -0.091091 -0.002570
v -0.070184 -0.089459 -0.019715
v -0.070747 -0.131918 -0.021021
v -0.066307 -0.130185 -0.039215
v -0.065594 -0.087747 -0.037687
v -0.205411 -0.080471 -0.113606
v -0.056008 -0.086241 -0.053493
v -0.056796 -0.128490 -0.057013
v -0.037873 -0.126841 -0.074332
v -0.045815 -0.085209 -0.064328
v -0.033594 -0.084435 -0.072453
v -0.020388 -0.083895 -0.078128
v 0.001118 -0.083606 -0.081152
v -0.015905 -0.125977 -0.083390
v 0.005764 -0.125834 -0.084884
v 0.022721 -0.083970 -0.077338
v -0.214575 -0.076061 -0.112270
v -0.212725 0.008455 -0.104336
v -0.220474 0.009819 -0.100560
v -0.222556 -0.064258 -0.109033
v -0.193146 0.009566 -0.104031
v -0.226462 0.008094 -0.099981
v -0.232041 0.006352 -0.094353
v -0.228380 -0.045316 -0.103938
v -0.230238 0.008894 -0.094074
v -0.235569 0.005494 -0.057810
v -0.193144 0.006076 -0.058115
v -0.193434 0.114795 0.113119
v -0.193144 0.076786 -0.051378
v -0.234507 0.076962 -0.051289
v -0.228357 0.080761 -0.089761
v -0.237197 0.078851 -0.049384
v -0.231599 0.082390 -0.087386
v -0.229476 0.113285 -0.087431
v -0.232091 0.098247 -0.085061
v -0.227070 0.084218 -0.092646
v -0.224701 0.124829 -0.089976
v -0.217085 0.082480 -0.096233
v -0.210544 0.136920 -0.092422
v -0.193148 0.081897 -0.097092
v -0.207141 0.084440 -0.097731
v -0.193556 0.135554 -0.093170
v -0.198294 0.139215 -0.090849
v -0.197671 0.119590 0.113571
v -0.222306 0.083995 0.110181
v -0.228576 0.087323 0.110498
v -0.235267 0.119969 0.113607
v -0.235014 0.086750 0.110444
v -0.242949 0.117186 0.113344
v -0.208783 0.138890 -0.090187
v -0.218315 0.134176 -0.089720
v -0.250387 0.110255 0.112682
v -0.256097 0.096981 0.111417
v -0.240186 0.083046 0.110090
v -0.242726 0.076723 0.109488
v -0.239744 0.090271 0.039805
v -0.242510 0.084557 0.039261
v -0.241775 0.077331 0.038571
v -0.230932 0.070431 0.037915
v -0.229983 0.063760 0.108253
v -0.236644 0.065388 0.108407
v -0.233058 0.094167 0.040177
v -0.218790 0.083135 0.039125
v -0.236867 0.072216 0.038085
v -0.222339 0.073743 0.038229
v -0.223124 0.091733 0.039945
v -0.218919 0.077534 0.109564
v -0.220486 0.069754 0.108824
v -0.224450 0.065751 0.108442
v -0.228055 -0.015897 0.100665
v -0.221549 -0.019973 0.100277
v -0.219101 -0.025714 0.099729
v -0.218813 -0.022296 0.029080
v -0.219832 -0.032413 0.099091
v -0.220926 -0.014140 0.029858
v -0.226912 -0.009433 0.030308
v -0.235400 -0.009652 0.030285
v -0.233817 -0.016061 0.100649
v -0.239467 -0.019248 0.100344
v -0.241296 -0.015051 0.029770
v -0.243055 -0.027603 0.099550
v -0.242681 -0.022185 0.029093
v -0.239992 -0.028444 0.028495
v -0.239348 -0.035960 0.098753
v -0.233629 -0.032352 0.028125
v -0.233168 -0.039087 0.098455
v -0.227675 -0.032196 0.028138
v -0.226425 -0.038611 0.098500
v -0.222386 -0.029149 0.028428
v -0.244210 -0.093991 0.093226
v -0.250834 -0.082559 0.094316
v -0.254937 -0.068076 0.095693
v -0.258674 -0.040141 0.098354
v -0.240952 0.069277 0.108779
v -0.258868 0.079516 0.109755
v -0.237490 0.002716 -0.055791
v -0.231729 -0.020152 -0.097219
v 0.033932 -0.089342 -0.020965
v 0.221484 -0.034873 0.098856
v 0.221484 -0.028309 0.028510
v 0.228735 -0.032645 0.028096
v 0.232579 -0.009026 0.030345
v 0.237320 -0.030720 0.028279
v 0.241399 -0.026088 0.028720
v 0.237915 -0.037005 0.098654
v 0.241514 -0.032554 0.099077
v 0.256849 -0.056575 0.096788
v 0.258868 -0.028726 0.099442
v 0.231165 -0.026151 -0.098821
v 0.232084 0.006338 -0.093827
v 0.237065 0.003973 -0.056666
v 0.258638 0.084091 0.110192
v 0.234042 0.005961 -0.058095
v 0.237528 0.079948 -0.048129
v 0.235604 0.077236 -0.050934
v 0.230093 0.080617 -0.086969
v 0.231853 0.083134 -0.087054
v 0.193090 0.076787 -0.051378
v 0.193388 0.114707 0.113107
v 0.222976 0.081078 -0.092798
v 0.193165 0.133201 -0.093353
v 0.193090 0.081121 -0.095361
v 0.213721 0.082779 -0.096981
v 0.193092 0.083312 -0.097741
v 0.208902 0.136386 -0.092694
v 0.196254 0.138465 -0.091988
v 0.214313 0.136605 -0.090268
v 0.207190 0.139156 -0.090320
v 0.218840 0.131762 -0.091368
v 0.221675 0.130674 -0.088926
v 0.227135 0.083660 -0.092626
v 0.226428 0.121116 -0.089169
v 0.230772 0.107793 -0.086482
v 0.253930 0.103404 0.112025
v 0.234321 0.086980 0.110465
v 0.241006 0.082067 0.109996
v 0.247417 0.113865 0.113025
v 0.237399 0.119608 0.113576
v 0.228172 0.087223 0.110488
v 0.197484 0.119583 0.113575
v 0.222022 0.083961 0.110177
v 0.218688 0.075236 0.109345
v 0.229233 0.094404 0.040199
v 0.221699 0.090064 0.039785
v 0.218707 0.083107 0.039122
v 0.221103 0.075539 0.038401
v 0.221254 0.068632 0.108717
v 0.226072 0.071345 0.038003
v 0.227040 0.064280 0.108302
v 0.234869 0.071138 0.037983
v 0.235754 0.064798 0.108353
v 0.240554 0.075648 0.038411
v 0.240701 0.069164 0.108768
v 0.242496 0.080604 0.038883
v 0.242608 0.074567 0.109282
v 0.242056 0.086440 0.039440
v 0.237545 0.092091 0.039979
v 0.236512 -0.016898 0.100570
v 0.242632 -0.025040 0.099792
v 0.239440 -0.012507 0.030013
v 0.225854 -0.016373 0.100618
v 0.220189 -0.021980 0.100085
v 0.225201 -0.010266 0.030227
v 0.220541 -0.014753 0.029799
v 0.218741 -0.021329 0.029174
v 0.218915 -0.029225 0.099395
v 0.242744 -0.020093 0.029291
vn -0.0000 0.9955 0.0948
vn -0.9116 0.0256 -0.4103
vn -0.9786 0.0304 -0.2033
vn -0.0000 0.9955 0.0949
vn -0.9934 -0.0228 0.1121
vn -0.8708 0.0605 -0.4880
vn -0.0000 0.9955 0.0951
vn -0.9716 0.0376 -0.2336
vn -0.9192 0.0204 -0.3932
vn -0.9998 -0.0205 -0.0000
vn -0.0001 0.9955 0.0947
vn -0.0000 0.9955 0.0947
vn 0.0001 0.9955 0.0949
vn -1.0000 -0.0000 -0.0000
vn -0.0000 0.0907 -0.9959
vn 0.0143 0.0979 -0.9951
vn -0.0285 0.1085 -0.9937
vn 0.0492 0.8715 -0.4879
vn -0.0212 0.9972 0.0719
vn 0.3720 0.7977 -0.4745
vn 0.0106 0.9957 0.0923
vn 0.1664 0.6323 -0.7567
vn 0.3668 0.5875 -0.7213
vn 0.4574 0.0915 -0.8846
vn 0.3702 0.0852 -0.9250
vn 0.1596 0.0973 -0.9824
vn 0.1426 0.0954 -0.9852
vn 0.6192 -0.7685 -0.1612
vn 0.9147 -0.3694 -0.1637
vn 0.8773 -0.4523 -0.1606
vn 0.5178 -0.8426 -0.1481
vn -0.0000 -0.0948 0.9955
vn -0.0000 -0.0949 0.9955
vn 0.0002 -0.0948 0.9955
vn -0.0000 -0.9957 -0.0925
vn 0.0007 -0.9955 -0.0953
vn 0.0003 -0.9955 -0.0945
vn 0.0004 -0.9955 -0.0947
vn 0.0002 -0.9956 -0.0941
vn 0.0003 -0.9955 -0.0946
vn 0.9600 -0.0153 0.2797
vn 0.8425 -0.0390 0.5372
vn 0.8824 -0.0548 0.4674
vn 0.9549 -0.0244 0.2960
vn -0.0000 -0.9955 -0.0949
vn -0.0000 -0.9955 -0.0948
vn 0.9985 -0.0163 0.0514
vn -0.0000 -0.9955 -0.0947
vn 0.9825 0.0057 -0.1862
vn 0.9997 0.0141 -0.0211
vn 0.9681 0.0328 -0.2484
vn 0.0009 -0.9955 -0.0951
vn 0.0010 -0.9955 -0.0949
vn 0.0008 -0.9955 -0.0952
vn 0.8840 0.0463 -0.4652
vn 0.0006 -0.9954 -0.0955
vn 0.6913 0.0760 -0.7186
vn 0.7063 0.0647 -0.7049
vn 0.8749 0.0384 -0.4827
vn 0.4825 0.0761 -0.8726
vn -0.9220 -0.0219 0.3865
vn -0.8187 -0.0624 0.5708
vn -0.5964 -0.0707 0.7995
vn -0.5388 -0.0829 0.8383
vn -0.4240 -0.0737 0.9027
vn -0.6928 -0.0529 0.7192
vn -0.4967 -0.1003 0.8621
vn -0.1318 -0.0880 0.9874
vn 0.2269 -0.0806 0.9706
vn 0.0002 0.9955 0.0948
vn -0.0824 -0.1105 0.9905
vn -0.0353 -0.1057 0.9938
vn 0.2728 -0.0816 0.9586
vn -0.0001 0.9955 0.0950
vn 0.5775 -0.0974 0.8106
vn 0.7306 -0.0478 0.6812
vn 0.4755 -0.0810 0.8760
vn 0.5246 -0.0965 0.8458
vn 0.8350 -0.0815 0.5442
vn 0.9913 -0.0304 0.1281
vn 0.9070 -0.0204 0.4207
vn 0.9991 0.0101 0.0416
vn -0.0001 0.9955 0.0949
vn 0.8851 0.0287 -0.4645
vn 0.9987 0.0219 -0.0452
vn 0.9848 -0.0352 0.1702
vn -0.0000 0.9955 0.0950
vn 0.7439 0.0877 -0.6625
vn 0.9465 0.0548 -0.3180
vn 0.8392 0.0232 -0.5434
vn 0.0001 0.9955 0.0950
vn 0.5234 0.0705 -0.8492
vn 0.5250 0.0713 -0.8481
vn 0.2322 0.1012 -0.9674
vn 0.4786 0.0834 -0.8741
vn 0.0464 0.0892 -0.9949
vn -0.1049 0.1098 -0.9884
vn -0.4740 0.0638 -0.8782
vn -0.3319 0.1047 -0.9375
vn -0.6289 0.0962 -0.7715
vn -0.4840 0.0602 -0.8730
vn -0.1151 0.0795 -0.9902
vn -0.0002 0.9954 0.0954
vn 0.0001 0.9955 0.0946
vn 0.1977 0.0898 -0.9761
vn -0.0599 0.0979 -0.9934
vn -0.7503 0.0477 -0.6593
vn -0.0003 -0.9955 -0.0948
vn 0.0002 -0.9955 -0.0951
vn -0.7195 0.0846 -0.6893
vn -0.0221 -0.1067 0.9940
vn 0.2054 -0.0897 0.9746
vn -0.2912 -0.0976 0.9517
vn -0.0898 -0.0827 0.9925
vn -0.2873 -0.0960 0.9530
vn -0.5156 -0.0744 0.8536
vn -0.0003 -0.9955 -0.0943
vn -0.0003 -0.9956 -0.0940
vn -0.0004 -0.9955 -0.0945
vn -0.7325 -0.0576 0.6783
vn -0.5440 -0.0864 0.8346
vn -0.7350 -0.0589 0.6755
vn 0.7873 0.0679 -0.6129
vn 0.4590 0.0804 -0.8848
vn -0.8487 -0.0604 0.5255
vn -0.9496 -0.0401 0.3110
vn -0.8886 -0.0317 0.4576
vn -0.0004 -0.9955 -0.0946
vn -0.9714 -0.0121 0.2370
vn -0.0005 -0.9955 -0.0948
vn -0.9998 0.0136 -0.0117
vn -0.0004 -0.9955 -0.0947
vn -0.9977 -0.0210 0.0649
vn -0.9717 0.0248 -0.2348
vn -0.9692 0.0204 -0.2456
vn -0.0002 -0.9955 -0.0950
vn -0.0003 -0.9955 -0.0949
vn -0.8560 0.0587 -0.5136
vn -0.8828 0.0317 -0.4688
vn -0.6767 0.0475 -0.7348
vn -0.7299 0.0702 -0.6800
vn -0.0002 -0.9955 -0.0951
vn -0.5553 0.0927 -0.8265
vn -0.3963 0.0805 -0.9146
vn -0.0001 -0.9954 -0.0957
vn -0.1399 0.1082 -0.9842
vn -0.3826 0.0744 -0.9209
vn -0.0691 0.0803 -0.9944
vn 0.2202 0.0860 -0.9717
vn 0.1746 0.1057 -0.9789
vn 0.0003 -0.9953 -0.0969
vn 0.0005 -0.9954 -0.0959
vn 0.4529 0.0916 -0.8868
vn 0.0002 -0.9952 -0.0976
vn -0.0986 0.0952 -0.9906
vn -0.4464 -0.8826 -0.1477
vn -0.0218 0.1019 -0.9946
vn 0.0001 0.0924 -0.9957
vn -0.2512 0.6232 -0.7406
vn -0.0449 0.9066 -0.4196
vn -0.2491 0.0959 -0.9637
vn -0.3030 0.1022 -0.9475
vn 0.0091 0.1118 -0.9937
vn -0.6768 0.5355 -0.5052
vn -0.7199 0.0770 -0.6898
vn -0.4920 0.0819 -0.8668
vn -0.2908 0.9057 -0.3085
vn -0.0252 0.9943 0.1039
vn -0.8106 0.5821 -0.0646
vn -0.0130 0.9957 0.0914
vn 1.0000 0.0015 0.0008
vn 1.0000 -0.0002 0.0018
vn -0.0018 0.0948 -0.9955
vn 1.0000 -0.0001 -0.0001
vn 0.0189 0.9969 0.0758
vn -0.0084 0.0910 -0.9958
vn -0.5379 -0.8262 -0.1676
vn -0.0044 -0.9951 -0.0990
vn -0.5354 0.0846 -0.8403
vn -0.6421 -0.7488 -0.1643
vn -0.8280 0.0561 -0.5580
vn -0.7656 0.0517 -0.6412
vn -0.9892 -0.0092 -0.1466
vn -0.6594 -0.3216 -0.6795
vn -0.6250 0.0875 -0.7757
vn -0.3245 0.0809 -0.9424
vn -0.3681 -0.5111 -0.7767
vn -0.2496 0.0975 -0.9634
vn -0.1654 0.0886 -0.9822
vn -0.0343 -0.9495 -0.3119
vn -0.0430 -0.4595 -0.8872
vn -0.0359 0.0983 -0.9945
vn 0.0588 0.0732 -0.9956
vn 0.0065 0.5414 -0.8408
vn 0.6318 0.7718 0.0722
vn 1.0000 0.0076 0.0008
vn 1.0000 0.0071 0.0001
vn 0.7508 0.6573 0.0657
vn -0.0006 -0.0944 0.9955
vn 0.0001 -0.0949 0.9955
vn 0.0101 0.9954 0.0955
vn -0.0253 0.9957 0.0892
vn -0.3416 0.9389 0.0428
vn -0.0638 0.7730 -0.6312
vn -0.4238 0.8185 -0.3878
vn -0.4423 0.8966 0.0214
vn -0.4063 0.3012 -0.8627
vn -0.8232 0.5641 -0.0638
vn -0.6806 0.7324 -0.0213
vn -0.9121 0.4006 -0.0868
vn -0.0001 -0.0949 0.9955
vn -0.0002 -0.0949 0.9955
vn 0.9285 -0.3693 -0.0383
vn 0.5839 -0.8079 -0.0794
vn 0.9008 -0.4324 -0.0388
vn 0.9949 0.0999 0.0142
vn -0.0002 -0.0950 0.9955
vn 0.2384 0.9671 0.0885
vn -0.3610 0.9279 0.0929
vn 0.2891 0.9529 0.0916
vn -0.0000 -0.0946 0.9955
vn 0.0003 -0.0951 0.9955
vn -0.8938 -0.4469 -0.0372
vn -0.8865 -0.4609 -0.0405
vn -0.4705 -0.8777 -0.0912
vn -0.2390 -0.9678 -0.0790
vn -0.9805 0.1961 0.0138
vn 0.0004 -0.0948 0.9955
vn 0.0001 -0.0950 0.9955
vn -0.7121 0.6996 0.0582
vn -0.9359 0.3494 0.0443
vn -0.3398 0.9355 0.0963
vn 0.0001 -0.0948 0.9955
vn 0.0007 -0.0948 0.9955
vn -0.9205 -0.3886 -0.0403
vn -0.9941 0.1083 0.0012
vn -0.9683 -0.2494 -0.0160
vn -0.6199 -0.7816 -0.0702
vn 0.0003 -0.0948 0.9955
vn 0.0259 -0.9955 -0.0910
vn -0.5326 -0.8420 -0.0860
vn -0.0002 -0.0951 0.9955
vn 0.0286 -0.9954 -0.0913
vn 0.4930 -0.8653 -0.0899
vn 0.6769 -0.7335 -0.0612
vn 0.9194 -0.3904 -0.0471
vn 0.9818 -0.1897 -0.0094
vn 0.0001 -0.0945 0.9955
vn 0.9194 0.3917 0.0350
vn 0.0001 -0.0951 0.9955
vn 0.9148 0.4024 0.0347
vn 0.5251 0.8467 0.0858
vn -0.0001 -0.0944 0.9955
vn 0.4531 0.8877 0.0820
vn -0.0264 0.9951 0.0955
vn 0.0003 -0.0950 0.9955
vn -0.0708 0.9933 0.0918
vn -0.5009 0.8611 0.0874
vn -0.6865 0.7248 0.0583
vn -0.8875 0.4577 0.0532
vn -0.0002 -0.0947 0.9955
vn -0.0001 -0.0948 0.9955
vn -0.9825 -0.1177 -0.1441
vn -0.9541 -0.2555 -0.1561
vn -0.0000 -0.0950 0.9955
vn -0.0002 -0.0948 0.9955
vn 0.0003 -0.0949 0.9955
vn -0.9908 0.0113 -0.1350
vn -0.9911 0.0149 -0.1321
vn -0.9897 -0.0209 -0.1418
vn -0.9907 0.0031 -0.1362
vn -0.9851 -0.0924 -0.1452
vn -0.7933 0.0562 -0.6062
vn -0.8432 0.5331 -0.0689
vn -0.7615 0.0573 -0.6457
vn -0.9790 0.1665 -0.1174
vn 0.0001 -0.0947 0.9955
vn -0.9908 0.0125 -0.1350
vn -0.9811 0.1517 -0.1203
vn 0.9730 0.2304 0.0150
vn 0.6718 0.7374 0.0695
vn 0.7231 0.6871 0.0704
vn -0.8603 -0.4829 -0.1631
vn -0.9552 -0.2518 -0.1555
vn -0.5474 -0.8232 -0.1508
vn -0.8374 -0.5207 -0.1662
vn 0.0010 -0.0950 0.9955
vn -0.0003 -0.0948 0.9955
vn 0.0890 -0.9908 -0.1021
vn 0.5052 -0.8596 -0.0767
vn -0.9271 0.3627 -0.0944
vn 0.0089 -0.9938 -0.1111
vn 1.0000 -0.0000 -0.0000
vn -0.0002 -0.9956 -0.0934
vn 0.7286 -0.0789 0.6803
vn 0.4640 -0.0919 0.8810
vn 0.6914 -0.0620 0.7198
vn 0.4839 -0.0803 0.8714
vn 0.2158 -0.0847 0.9728
vn 0.9805 0.0056 -0.1963
vn 0.7630 -0.0393 0.6453
vn 0.2699 -0.0937 0.9583
vn -0.1612 -0.0881 0.9830
vn -0.8844 -0.0259 0.4660
vn 0.0002 0.9955 0.0950
vn -0.7810 -0.0777 0.6196
vn -0.9940 0.0051 0.1090
vn -0.9432 -0.0492 0.3286
vn 0.6025 0.7947 0.0742
vn 0.1167 0.9894 0.0867
vn 0.5149 0.8526 0.0887
vn -0.2197 0.9703 0.1012
vn -0.7519 0.6560 0.0649
vn -0.3580 0.9298 0.0861
vn -0.7789 0.6243 0.0586
vn 0.9698 -0.1936 -0.1484
vn 0.9886 -0.0584 -0.1389
vn 0.9800 -0.1317 -0.1492
vn 0.7878 0.0717 -0.6118
vn 0.7072 0.0635 -0.7042
vn 0.9903 -0.0067 -0.1385
vn 0.7420 0.4464 -0.5002
vn 0.7850 0.6160 -0.0660
vn 0.9907 0.0382 -0.1304
vn 0.9907 0.0149 -0.1352
vn 0.9912 0.0088 -0.1324
vn 0.4675 0.0782 -0.8805
vn 0.5464 0.8375 0.0089
vn 0.7935 0.0632 -0.6052
vn 0.8039 -0.5681 -0.1762
vn 0.0115 -0.9954 -0.0952
vn 0.8769 -0.4515 -0.1648
vn 0.0093 0.0998 -0.9950
vn -1.0000 0.0015 0.0015
vn -1.0000 0.0023 0.0013
vn 0.0070 -0.9952 -0.0981
vn 0.0126 -0.9955 -0.0941
vn 0.0008 0.0948 -0.9955
vn -1.0000 0.0014 0.0001
vn 0.0059 -0.7357 -0.6773
vn 0.0369 -0.8945 -0.4455
vn -1.0000 0.0014 0.0006
vn 0.0388 0.0831 -0.9958
vn 0.0240 0.0876 -0.9959
vn -0.0117 0.2575 -0.9662
vn 0.0696 0.6738 -0.7356
vn 0.1746 0.0941 -0.9801
vn 0.2612 0.7163 -0.6471
vn 0.3381 0.4974 -0.7989
vn 0.6152 0.6696 -0.4162
vn 0.6844 0.3564 -0.6360
vn 0.3033 0.0771 -0.9498
vn 0.3940 0.0918 -0.9145
vn 0.6892 0.0795 -0.7202
vn 0.8915 0.4453 -0.0827
vn 0.9515 0.2892 -0.1046
vn 0.9636 0.2451 -0.1070
vn -0.0002 -0.0945 0.9955
vn 0.8445 0.5318 -0.0634
vn 0.4979 0.8671 0.0159
vn 0.6290 0.7773 -0.0155
vn -0.0006 0.9954 0.0955
vn 0.3366 0.9408 0.0403
vn -0.7671 0.6384 0.0632
vn -0.0004 -0.0952 0.9955
vn -0.0767 0.9928 0.0917
vn 0.4702 -0.8787 -0.0827
vn 0.9347 -0.3534 -0.0394
vn 0.5008 -0.8621 -0.0770
vn 0.9193 -0.3918 -0.0382
vn 0.9537 0.2988 0.0337
vn 0.9327 0.3592 0.0333
vn 0.6467 0.7593 0.0732
vn 0.6028 0.7946 0.0716
vn 0.0236 0.9947 0.0996
vn -0.0597 0.9941 0.0903
vn -0.6231 0.7782 0.0779
vn -0.6634 0.7450 0.0700
vn -0.9317 0.3616 0.0353
vn -0.9434 0.3303 0.0298
vn -0.9972 -0.0746 -0.0048
vn -0.0001 -0.0950 0.9955
vn -0.9781 -0.2063 -0.0273
vn -0.7829 -0.6202 -0.0501
vn -0.5939 -0.8000 -0.0852
vn -0.2692 -0.9596 -0.0819
vn -0.8006 -0.5951 -0.0703
vn -0.0001 -0.0951 0.9955
vn -0.4541 -0.8879 -0.0741
vn -0.0495 -0.9929 -0.1085
vn 0.7050 -0.7058 -0.0690
vn 0.1665 -0.9822 -0.0867
vn 0.6952 -0.7156 -0.0685
vn -0.0001 -0.0947 0.9955
vn 0.9648 -0.2620 -0.0221
vn 0.9313 0.3623 0.0384
vn 0.9850 -0.1712 -0.0217
vn 0.9109 0.4108 0.0383
vn -0.0005 -0.0948 0.9955
vn -0.9174 -0.3968 -0.0293
vn -0.9760 0.2169 0.0215
vn -0.9892 0.1463 0.0087
vn -0.0396 -0.9940 -0.1021
vn 0.7645 0.0484 -0.6428
vn 0.9898 0.0465 -0.1346
vn 0.3040 -0.4328 -0.8487
vn 0.4423 -0.6726 -0.5932
vn 0.6493 -0.4741 -0.5947
vn -0.8667 0.4967 0.0454
vn 0.9844 0.1134 -0.1342
vn 0.0028 0.9964 0.0844
s 0
usemtl Material.027
f 1//1 2//1 7//1
f 1//2 3//2 2//2
f 5//3 3//3 1//3
f 4//4 1//4 6//4
f 4//5 5//5 1//5
f 1//4 7//4 6//4
f 9//6 7//6 8//6
f 2//7 8//7 7//7
f 10//8 6//8 7//8
f 10//9 7//9 9//9
f 11//10 6//10 10//10
f 13//1 11//1 10//1
f 12//4 10//4 9//4
f 13//1 10//1 12//1
f 13//11 14//11 17//11
f 18//1 14//1 13//1
f 13//12 15//12 16//12
f 13//4 17//4 15//4
f 13//13 16//13 11//13
f 13//14 12//14 21//14
f 18//15 13//15 19//15
f 20//16 19//16 13//16
f 22//17 20//17 13//17
f 13//14 21//14 22//14
f 20//18 22//18 23//18
f 21//19 23//19 22//19
f 25//20 23//20 24//20
f 21//21 24//21 23//21
f 20//22 23//22 26//22
f 23//23 25//23 26//23
f 27//24 26//24 25//24
f 28//25 26//25 27//25
f 28//26 20//26 26//26
f 19//27 20//27 28//27
f 30//28 19//28 28//28
f 29//29 28//29 27//29
f 30//30 28//30 29//30
f 32//31 19//31 30//31
f 31//32 32//32 30//32
f 30//33 29//33 31//33
f 32//34 31//34 33//34
f 32//33 33//33 12//33
f 32//32 12//32 34//32
f 32//35 34//35 37//35
f 32//36 36//36 19//36
f 32//37 35//37 39//37
f 35//37 32//37 38//37
f 32//38 40//38 36//38
f 32//39 37//39 38//39
f 32//40 39//40 40//40
f 40//41 42//41 36//41
f 39//42 41//42 40//42
f 40//43 41//43 43//43
f 40//44 43//44 42//44
f 3//45 43//45 41//45
f 3//45 42//45 43//45
f 5//46 44//46 42//46
f 36//47 42//47 44//47
f 5//48 42//48 3//48
f 5//46 45//46 44//46
f 46//49 44//49 45//49
f 36//50 44//50 46//50
f 46//51 45//51 47//51
f 46//52 47//52 19//52
f 19//53 36//53 46//53
f 19//54 47//54 48//54
f 47//55 45//55 48//55
f 19//56 48//56 49//56
f 48//57 51//57 49//57
f 48//58 50//58 51//58
f 48//59 45//59 50//59
f 54//45 51//45 50//45
f 53//46 52//46 51//46
f 49//60 51//60 52//60
f 53//46 51//46 54//46
f 54//61 5//61 4//61
f 55//62 54//62 4//62
f 54//45 45//45 5//45
f 53//63 54//63 55//63
f 54//46 50//46 45//46
f 55//1 4//1 57//1
f 56//1 55//1 58//1
f 56//64 53//64 55//64
f 55//1 57//1 58//1
f 17//65 59//65 58//65
f 56//4 58//4 59//4
f 15//66 58//66 57//66
f 17//67 58//67 15//67
f 17//68 60//68 59//68
f 56//4 59//4 60//4
f 14//69 61//69 60//69
f 62//1 60//1 61//1
f 62//70 56//70 60//70
f 17//71 14//71 60//71
f 62//72 63//72 56//72
f 65//73 63//73 62//73
f 64//74 62//74 66//74
f 64//75 65//75 62//75
f 62//1 61//1 66//1
f 69//76 67//76 66//76
f 64//4 66//4 67//4
f 68//77 66//77 61//77
f 68//78 69//78 66//78
f 18//12 69//12 68//12
f 18//4 70//4 69//4
f 70//79 67//79 69//79
f 18//4 71//4 70//4
f 71//80 72//80 70//80
f 70//81 72//81 67//81
f 64//4 67//4 72//4
f 71//82 73//82 72//82
f 74//1 72//1 73//1
f 74//1 64//1 72//1
f 75//83 74//83 78//83
f 75//84 76//84 74//84
f 76//85 77//85 74//85
f 74//86 77//86 64//86
f 74//87 73//87 78//87
f 81//88 79//88 78//88
f 75//11 78//11 79//11
f 80//89 78//89 73//89
f 80//90 81//90 78//90
f 82//1 81//1 80//1
f 82//91 83//91 81//91
f 83//92 84//92 81//92
f 81//93 84//93 79//93
f 83//94 85//94 84//94
f 86//1 84//1 85//1
f 75//1 79//1 84//1
f 86//1 75//1 84//1
f 86//95 87//95 75//95
f 88//96 87//96 86//96
f 88//1 86//1 85//1
f 89//97 87//97 88//97
f 2//83 88//83 91//83
f 2//98 89//98 88//98
f 88//1 85//1 90//1
f 88//1 90//1 91//1
f 93//99 91//99 90//99
f 92//100 8//100 91//100
f 2//70 91//70 8//70
f 92//101 91//101 93//101
f 93//102 90//102 94//102
f 12//103 93//103 94//103
f 12//104 92//104 93//104
f 82//1 12//1 94//1
f 82//1 94//1 83//1
f 94//105 85//105 83//105
f 94//106 90//106 85//106
f 92//1 12//1 9//1
f 92//107 9//107 8//107
f 89//108 97//108 87//108
f 3//109 41//109 89//109
f 3//110 89//110 2//110
f 89//46 95//46 97//46
f 89//46 96//46 95//46
f 89//46 41//46 96//46
f 87//46 97//46 98//46
f 37//111 98//111 97//111
f 37//112 97//112 95//112
f 87//45 98//45 99//45
f 101//113 99//113 98//113
f 100//114 98//114 37//114
f 101//115 98//115 100//115
f 101//116 102//116 99//116
f 34//117 102//117 101//117
f 34//118 101//118 100//118
f 103//119 102//119 34//119
f 103//120 104//120 102//120
f 102//121 104//121 99//121
f 76//46 104//46 105//46
f 103//122 105//122 104//122
f 106//46 99//46 104//46
f 106//46 104//46 76//46
f 106//123 76//123 75//123
f 87//124 106//124 75//124
f 87//46 99//46 106//46
f 76//46 105//46 107//46
f 103//125 107//125 105//125
f 76//45 107//45 108//45
f 109//126 108//126 107//126
f 109//127 107//127 103//127
f 34//128 109//128 103//128
f 109//129 110//129 108//129
f 34//130 110//130 109//130
f 111//131 112//131 110//131
f 34//132 111//132 110//132
f 110//133 112//133 108//133
f 77//46 112//46 113//46
f 114//134 113//134 112//134
f 77//45 108//45 112//45
f 111//135 114//135 112//135
f 115//136 116//136 114//136
f 111//137 115//137 114//137
f 116//138 117//138 114//138
f 114//139 117//139 113//139
f 77//46 113//46 117//46
f 65//46 117//46 118//46
f 119//140 118//140 117//140
f 77//46 117//46 65//46
f 116//141 119//141 117//141
f 115//136 119//136 116//136
f 115//142 120//142 119//142
f 120//143 118//143 119//143
f 115//142 121//142 120//142
f 121//144 118//144 120//144
f 115//145 122//145 121//145
f 121//146 122//146 123//146
f 121//147 123//147 118//147
f 63//46 123//46 124//46
f 122//148 124//148 123//148
f 65//46 118//46 123//46
f 65//46 123//46 63//46
f 53//46 124//46 52//46
f 125//149 52//149 124//149
f 63//46 124//46 53//46
f 125//150 124//150 122//150
f 19//151 125//151 122//151
f 19//152 49//152 125//152
f 49//153 52//153 125//153
f 19//154 122//154 115//154
f 126//155 127//155 115//155
f 34//156 126//156 115//156
f 127//157 18//157 115//157
f 18//158 19//158 115//158
f 34//132 115//132 111//132
f 131//159 128//159 127//159
f 130//160 127//160 128//160
f 129//161 127//161 126//161
f 129//162 131//162 127//162
f 127//163 130//163 18//163
f 132//164 134//164 131//164
f 133//165 132//165 131//165
f 133//166 131//166 129//166
f 131//167 134//167 128//167
f 136//168 128//168 134//168
f 132//169 135//169 134//169
f 136//170 134//170 135//170
f 137//171 82//171 136//171
f 138//172 137//172 136//172
f 138//173 136//173 139//173
f 136//174 82//174 130//174
f 136//175 130//175 128//175
f 136//176 135//176 139//176
f 142//177 140//177 139//177
f 138//178 139//178 140//178
f 135//179 141//179 139//179
f 142//180 139//180 141//180
f 144//181 143//181 142//181
f 142//182 143//182 145//182
f 144//183 142//183 141//183
f 140//184 142//184 145//184
f 143//185 146//185 145//185
f 146//186 147//186 145//186
f 147//187 140//187 145//187
f 146//188 148//188 147//188
f 147//189 148//189 150//189
f 149//190 140//190 147//190
f 149//191 147//191 150//191
f 150//192 148//192 151//192
f 149//193 150//193 151//193
f 148//194 152//194 151//194
f 153//195 151//195 152//195
f 151//196 138//196 149//196
f 151//197 137//197 138//197
f 137//198 151//198 153//198
f 154//199 137//199 153//199
f 153//200 155//200 154//200
f 153//32 156//32 155//32
f 152//201 156//201 153//201
f 152//202 159//202 156//202
f 156//34 158//34 157//34
f 157//32 155//32 156//32
f 156//203 159//203 158//203
f 148//204 159//204 152//204
f 148//205 160//205 159//205
f 158//206 159//206 160//206
f 146//207 160//207 148//207
f 161//208 160//208 146//208
f 158//209 160//209 161//209
f 161//210 146//210 162//210
f 163//211 161//211 162//211
f 157//212 158//212 161//212
f 163//211 157//211 161//211
f 164//213 166//213 163//213
f 164//211 163//211 162//211
f 163//214 165//214 157//214
f 163//215 166//215 165//215
f 164//216 167//216 166//216
f 167//217 168//217 166//217
f 166//33 168//33 165//33
f 170//218 169//218 168//218
f 169//219 174//219 168//219
f 170//220 168//220 173//220
f 171//200 168//200 175//200
f 165//211 168//211 171//211
f 173//221 168//221 167//221
f 172//222 168//222 174//222
f 175//32 168//32 172//32
f 176//223 175//223 172//223
f 176//224 154//224 175//224
f 155//225 175//225 154//225
f 155//226 171//226 175//226
f 177//227 176//227 172//227
f 82//228 176//228 177//228
f 137//229 154//229 176//229
f 137//212 176//212 82//212
f 178//230 177//230 174//230
f 82//32 177//32 178//32
f 177//231 172//231 174//231
f 178//232 174//232 169//232
f 179//233 178//233 169//233
f 178//32 179//32 180//32
f 178//234 180//234 181//234
f 82//32 178//32 181//32
f 180//235 184//235 181//235
f 82//32 181//32 183//32
f 181//236 182//236 183//236
f 181//237 184//237 182//237
f 180//238 185//238 184//238
f 185//239 182//239 184//239
f 179//240 186//240 185//240
f 179//241 185//241 180//241
f 185//242 186//242 182//242
f 187//243 186//243 179//243
f 188//244 186//244 187//244
f 188//245 189//245 186//245
f 189//211 182//211 186//211
f 188//246 190//246 189//246
f 190//247 191//247 189//247
f 191//248 182//248 189//248
f 190//249 192//249 191//249
f 192//250 182//250 191//250
f 190//251 193//251 192//251
f 193//252 194//252 192//252
f 194//253 182//253 192//253
f 193//254 195//254 194//254
f 195//255 196//255 194//255
f 196//256 182//256 194//256
f 197//257 196//257 195//257
f 197//258 198//258 196//258
f 198//32 182//32 196//32
f 183//259 198//259 197//259
f 183//260 182//260 198//260
f 82//32 183//32 197//32
f 82//32 197//32 34//32
f 34//233 197//233 195//233
f 195//32 200//32 199//32
f 34//233 195//233 199//233
f 195//261 201//261 200//261
f 193//262 201//262 195//262
f 202//263 133//263 201//263
f 202//33 201//33 193//33
f 201//264 133//264 200//264
f 202//262 190//262 169//262
f 190//265 202//265 193//265
f 202//266 169//266 170//266
f 202//32 203//32 204//32
f 170//267 203//267 202//267
f 202//268 204//268 141//268
f 202//269 141//269 205//269
f 202//270 205//270 132//270
f 202//271 132//271 206//271
f 202//272 206//272 133//272
f 206//273 132//273 133//273
f 132//274 205//274 135//274
f 135//275 205//275 141//275
f 204//276 162//276 143//276
f 204//233 164//233 162//233
f 204//277 203//277 164//277
f 204//278 144//278 141//278
f 204//279 143//279 144//279
f 203//280 167//280 164//280
f 170//281 173//281 203//281
f 203//282 173//282 167//282
f 200//283 129//283 199//283
f 200//284 133//284 129//284
f 34//285 199//285 126//285
f 199//286 129//286 126//286
f 188//287 169//287 190//287
f 169//288 188//288 187//288
f 169//262 187//262 179//262
f 157//289 171//289 155//289
f 157//290 165//290 171//290
f 162//291 146//291 143//291
f 138//292 140//292 149//292
f 18//293 130//293 82//293
f 76//46 108//46 77//46
f 34//294 100//294 37//294
f 39//295 96//295 41//295
f 38//296 95//296 96//296
f 35//297 96//297 39//297
f 35//298 38//298 96//298
f 37//299 95//299 38//299
f 82//1 80//1 71//1
f 18//1 82//1 71//1
f 82//32 34//32 12//32
f 80//300 73//300 71//300
f 77//301 65//301 64//301
f 18//1 68//1 14//1
f 68//302 61//302 14//302
f 63//303 53//303 56//303
f 16//304 57//304 207//304
f 4//305 207//305 57//305
f 16//306 15//306 57//306
f 11//307 207//307 6//307
f 4//104 6//104 207//104
f 16//308 207//308 11//308
f 12//261 33//261 208//261
f 33//309 209//309 208//309
f 31//310 210//310 33//310
f 33//311 210//311 209//311
f 212//32 211//32 210//32
f 210//233 211//233 209//233
f 31//312 212//312 210//312
f 213//233 211//233 212//233
f 214//313 213//313 212//313
f 214//314 212//314 31//314
f 214//211 31//211 29//211
f 216//233 214//233 29//233
f 215//315 213//315 214//315
f 215//233 214//233 216//233
f 216//316 29//316 27//316
f 216//32 217//32 215//32
f 216//317 218//317 217//317
f 216//318 27//318 218//318
f 218//319 25//319 219//319
f 27//320 25//320 218//320
f 217//321 218//321 219//321
f 219//322 25//322 24//322
f 24//323 220//323 219//323
f 217//324 219//324 220//324
f 217//325 220//325 221//325
f 221//326 220//326 223//326
f 222//327 224//327 220//327
f 24//328 222//328 220//328
f 220//329 224//329 223//329
f 224//330 225//330 226//330
f 227//331 225//331 224//331
f 224//332 226//332 223//332
f 227//333 224//333 222//333
f 12//14 227//14 21//14
f 12//334 228//334 227//334
f 228//335 230//335 227//335
f 227//336 231//336 229//336
f 227//337 229//337 225//337
f 227//338 222//338 21//338
f 230//339 231//339 227//339
f 231//340 233//340 232//340
f 231//341 232//341 229//341
f 230//342 233//342 231//342
f 234//343 232//343 233//343
f 234//344 233//344 230//344
f 234//345 230//345 235//345
f 237//346 234//346 235//346
f 238//347 232//347 234//347
f 236//348 234//348 237//348
f 238//349 234//349 236//349
f 238//350 236//350 239//350
f 241//351 238//351 239//351
f 240//352 232//352 238//352
f 240//353 238//353 241//353
f 242//354 240//354 241//354
f 243//355 241//355 239//355
f 243//356 242//356 241//356
f 244//267 243//267 246//267
f 245//34 243//34 244//34
f 221//357 242//357 243//357
f 221//358 243//358 245//358
f 243//359 239//359 246//359
f 246//267 247//267 244//267
f 246//360 236//360 247//360
f 246//361 239//361 236//361
f 248//33 244//33 247//33
f 249//33 248//33 247//33
f 249//362 247//362 237//362
f 247//363 236//363 237//363
f 249//364 235//364 228//364
f 250//365 249//365 228//365
f 250//33 248//33 249//33
f 249//366 237//366 235//366
f 250//367 252//367 248//367
f 228//33 251//33 250//33
f 251//368 254//368 250//368
f 250//369 253//369 252//369
f 250//370 254//370 253//370
f 251//371 255//371 254//371
f 254//265 252//265 253//265
f 255//211 252//211 254//211
f 256//372 255//372 251//372
f 256//373 257//373 255//373
f 257//288 252//288 255//288
f 258//374 257//374 256//374
f 258//375 259//375 257//375
f 259//32 252//32 257//32
f 258//376 260//376 259//376
f 260//377 261//377 259//377
f 261//34 252//34 259//34
f 262//378 261//378 260//378
f 262//379 263//379 261//379
f 263//233 252//233 261//233
f 264//380 263//380 262//380
f 264//381 265//381 263//381
f 265//382 252//382 263//382
f 245//383 265//383 264//383
f 245//384 266//384 265//384
f 266//33 252//33 265//33
f 245//385 244//385 266//385
f 244//386 252//386 266//386
f 221//266 264//266 262//266
f 221//261 245//261 264//261
f 267//34 262//34 260//34
f 262//233 267//233 217//233
f 217//211 221//211 262//211
f 260//262 270//262 267//262
f 267//387 269//387 268//387
f 217//388 267//388 268//388
f 267//389 211//389 269//389
f 270//390 211//390 267//390
f 258//262 270//262 260//262
f 258//34 271//34 270//34
f 271//391 273//391 270//391
f 270//392 272//392 211//392
f 270//393 273//393 272//393
f 274//394 211//394 273//394
f 271//395 274//395 273//395
f 273//32 211//32 272//32
f 209//394 211//394 274//394
f 275//396 209//396 274//396
f 271//397 275//397 274//397
f 208//398 209//398 275//398
f 12//200 208//200 275//200
f 258//399 275//399 271//399
f 12//32 275//32 258//32
f 268//400 269//400 276//400
f 269//277 211//277 276//277
f 276//32 211//32 213//32
f 215//401 276//401 213//401
f 215//402 268//402 276//402
f 215//32 217//32 268//32
f 12//32 258//32 256//32
f 12//266 256//266 251//266
f 248//403 252//403 244//403
f 12//32 251//32 228//32
f 240//404 242//404 226//404
f 221//405 226//405 242//405
f 240//406 229//406 232//406
f 225//407 229//407 240//407
f 226//408 225//408 240//408
f 228//409 235//409 230//409
f 221//410 223//410 226//410
f 21//411 222//411 24//411
