# Blender 5.0.1
# www.blender.org
mtllib torso_z_link_visual_26.mtl
o i01.torso.topStom.full.027_visual.001
v -0.351518 0.031125 0.326178
v -0.390994 0.028003 0.278690
v -0.347701 0.030195 0.312022
v -0.415077 0.033246 0.358423
v -0.338633 0.032232 0.342905
v -0.350877 -0.036269 0.321589
v -0.347451 -0.035271 0.340216
v -0.367214 -0.055015 0.331877
v -0.353918 -0.053302 0.357440
v -0.332174 -0.034784 0.347675
v -0.311620 -0.053357 0.357089
v -0.318234 -0.035258 0.340430
v -0.318813 0.031843 0.337087
v -0.330028 -0.052941 0.363661
v -0.436484 -0.041938 0.531059
v -0.560173 -0.090909 -0.213718
v -0.437398 0.090956 0.521181
v -0.419859 -0.066051 0.164322
v -0.415077 0.044150 0.524258
v -0.125215 -0.046088 0.467916
v -0.127870 -0.048525 0.431008
v -0.347548 -0.066051 0.164322
v -0.112003 -0.051817 0.380779
v -0.122514 0.036000 0.400315
v -0.081223 -0.054215 0.344313
v -0.100526 0.033216 0.357975
v -0.184167 -0.078323 -0.022319
v -0.298490 -0.054884 0.333837
v -0.305457 -0.056586 0.307990
v -0.322348 -0.057342 0.296732
v -0.322148 -0.036857 0.311998
v -0.313926 -0.036178 0.326425
v -0.313994 0.030807 0.321343
v -0.319863 0.030064 0.310031
v -0.333159 0.029709 0.304571
v -0.351885 0.023171 0.205212
v -0.289465 0.022708 0.198173
v -0.238703 0.025943 0.247370
v -0.351885 0.069977 0.202134
v -0.299254 0.018936 0.140806
v -0.299254 0.065742 0.137729
v -0.235122 0.062266 0.084869
v -0.347547 0.066916 0.155580
v -0.347548 0.059574 0.043925
v -0.184166 0.054643 -0.031062
v -0.296596 0.042058 -0.222462
v 0.184167 0.054643 -0.031062
v -0.347548 0.041815 -0.226150
v -0.347548 0.049157 -0.114496
v -0.161955 0.059684 0.045594
v 0.000000 0.057556 0.013241
v -0.082564 0.058093 0.021408
v 0.184167 -0.078323 -0.022319
v 0.045055 -0.067430 0.143341
v 0.023834 -0.067607 0.140650
v 0.058154 -0.066321 0.160218
v 0.296596 -0.090909 -0.213717
v 0.296596 0.042058 -0.222462
v 0.345963 -0.083809 -0.105753
v 0.345963 -0.091151 -0.217407
v 0.345963 -0.073392 0.052669
v 0.345963 -0.066051 0.164322
v 0.106153 -0.052376 0.372286
v 0.330590 -0.081052 -0.063807
v 0.328793 -0.082024 -0.078599
v 0.090276 -0.053646 0.352981
v 0.080119 -0.061768 0.229448
v 0.080119 -0.044225 0.228295
v 0.055691 -0.045369 0.210887
v 0.050974 -0.063033 0.210219
v 0.053908 -0.064834 0.183953
v 0.045054 -0.046700 0.190621
v 0.033140 -0.064008 0.195380
v 0.058867 -0.047939 0.170845
v 0.055518 -0.051559 0.116753
v 0.052289 -0.049495 0.148111
v 0.030274 -0.050131 0.138190
v 0.011153 -0.049543 0.147388
v 0.006356 -0.051474 0.118048
v 0.007084 0.017057 0.112229
v 0.003306 -0.048421 0.164453
v -0.048856 -0.037918 0.324212
v -0.048857 -0.055461 0.325365
v 0.010092 -0.047090 0.184701
v 0.006834 -0.045369 0.210887
v -0.048856 0.030699 0.319700
v -0.070929 0.031474 0.331472
v -0.189400 0.022613 0.196715
v -0.235122 0.015461 0.087947
v -0.161955 0.012878 0.048672
v -0.082564 0.011288 0.024486
v 0.000000 0.010751 0.016318
v 0.082564 0.011288 0.024486
v 0.082564 0.058093 0.021408
v 0.161955 0.059683 0.045594
v 0.235123 0.062266 0.084869
v 0.161955 0.012878 0.048672
v 0.056170 0.017143 0.113536
v 0.080119 0.024392 0.223783
v 0.235123 0.015460 0.087947
v 0.299254 0.018936 0.140806
v 0.090276 0.032515 0.347316
v 0.299254 0.065742 0.137729
v 0.240213 0.019378 0.147521
v 0.190912 0.022708 0.198173
v 0.240213 0.089573 0.142906
v 0.190912 0.092903 0.193558
v 0.241673 0.025943 0.247368
v 0.241673 0.096138 0.242753
v 0.290974 0.022613 0.196715
v 0.351886 0.023171 0.205210
v 0.106153 0.033785 0.366621
v 0.317602 0.030195 0.312023
v 0.313785 0.031125 0.326177
v 0.122029 0.035856 0.398117
v 0.334691 0.032194 0.342433
v 0.321757 0.032017 0.339893
v 0.305752 0.036126 0.402225
v 0.415078 0.033246 0.358423
v 0.127669 0.038439 0.437397
v 0.123334 -0.050023 0.408076
v 0.127669 -0.047722 0.443063
v 0.436485 -0.041938 0.531059
v 0.366814 -0.054887 0.333837
v 0.309904 -0.053439 0.355840
v 0.328630 -0.052949 0.363544
v 0.352461 -0.053246 0.358373
v 0.560173 -0.090909 -0.213718
v 0.125216 -0.046088 0.467916
v 0.415078 0.044150 0.524258
v 0.418275 -0.066051 0.164322
v 0.437400 0.090956 0.521181
v 0.415078 0.090956 0.521180
v 0.415078 0.080051 0.355346
v 0.423209 0.085503 0.438262
v 0.560173 0.042058 -0.222461
v 0.560173 0.029747 -0.409678
v 0.560173 -0.103219 -0.400933
v 0.418275 -0.083809 -0.105753
v 0.418275 -0.091151 -0.217407
v 0.418275 -0.073392 0.052669
v 0.528811 -0.103219 -0.400933
v 0.528812 0.029747 -0.409678
v 0.528811 -0.111200 -0.522315
v 0.439951 -0.045391 -0.526644
v 0.427951 -0.062906 -0.525492
v 0.296596 -0.111200 -0.522315
v 0.528811 0.021766 -0.531058
v 0.296596 0.021766 -0.531059
v 0.428090 -0.026271 -0.527900
v 0.412193 -0.017577 -0.382304
v 0.433859 -0.020250 -0.382133
v 0.408597 -0.029545 -0.527684
v 0.402618 -0.028319 -0.381598
v 0.400874 -0.045542 -0.526635
v 0.410836 -0.061375 -0.525591
v 0.402131 -0.041229 -0.380749
v 0.438459 -0.043050 -0.380629
v 0.411792 -0.052315 -0.380021
v 0.424562 -0.053664 -0.379931
v 0.418275 0.041815 -0.226150
v 0.345963 0.041815 -0.226150
v 0.345963 0.049157 -0.114496
v 0.418275 0.049157 -0.114496
v 0.345963 0.059574 0.043925
v 0.418275 0.059574 0.043925
v 0.418275 0.066916 0.155580
v 0.351886 0.069977 0.202132
v 0.390995 0.074808 0.275613
v 0.345963 0.066916 0.155580
v 0.390995 0.028003 0.278690
v 0.332143 0.029708 0.304571
v 0.351309 0.030807 0.321343
v 0.345440 0.030063 0.310031
v 0.343155 -0.036857 0.311998
v 0.351377 -0.036178 0.326425
v 0.342955 -0.057342 0.296732
v 0.359844 -0.056584 0.307991
v 0.327193 -0.037271 0.309805
v 0.323459 -0.057393 0.295679
v 0.304613 -0.056499 0.309478
v 0.298090 -0.055013 0.331877
v 0.315941 -0.036666 0.319010
v 0.314174 -0.035849 0.331754
v 0.320457 -0.035095 0.342888
v 0.334262 -0.034810 0.347235
v 0.347069 -0.035258 0.340429
v 0.346490 0.031843 0.337087
v 0.348880 -0.081104 -0.064610
v 0.343745 0.011324 -0.066364
v 0.351398 0.010497 -0.078947
v 0.350861 -0.081790 -0.075036
v 0.339618 -0.080818 -0.060260
v 0.343276 -0.082340 -0.083403
v 0.346121 0.009922 -0.087702
v 0.334691 0.009824 -0.089217
v 0.329637 0.011019 -0.071020
v 0.328008 0.010356 -0.081095
v 0.423209 0.038698 0.441339
v 0.376248 0.036126 0.402225
v 0.376248 0.040751 0.472569
v 0.305752 0.040751 0.472569
v 0.305753 0.110815 0.467962
v 0.376248 0.110815 0.467962
v 0.376248 0.106189 0.397618
v 0.305752 0.106189 0.397618
v 0.125216 0.040073 0.462250
v 0.290974 0.092807 0.192101
v -0.240163 0.019378 0.147519
v -0.189400 0.092809 0.192101
v -0.240163 0.089574 0.142904
v -0.289465 0.092905 0.193558
v -0.238703 0.096139 0.242754
v 0.031263 -0.045542 0.208266
v 0.006834 -0.062913 0.212040
v 0.026473 -0.046505 0.193590
v 0.010308 -0.064524 0.187221
v 0.003460 -0.066069 0.164042
v 0.010291 -0.067005 0.149817
v -0.347548 -0.091151 -0.217407
v -0.419859 0.059574 0.043925
v -0.419859 0.049157 -0.114496
v -0.347548 -0.083809 -0.105753
v -0.419859 -0.083809 -0.105753
v -0.342756 -0.082372 -0.083882
v -0.351531 -0.081804 -0.075258
v -0.329495 -0.082000 -0.078246
v -0.327326 0.010500 -0.078811
v -0.330650 -0.081115 -0.064733
v -0.338694 0.009765 -0.090090
v -0.337423 0.011336 -0.066217
v -0.349882 0.011019 -0.071020
v -0.350486 0.010160 -0.084096
v -0.348930 -0.081051 -0.063807
v -0.419859 -0.073392 0.052669
v -0.347548 -0.073392 0.052669
v -0.339901 -0.080818 -0.060260
v -0.560173 -0.103219 -0.400933
v -0.528811 -0.103219 -0.400932
v -0.560173 0.042058 -0.222462
v -0.560173 0.029747 -0.409676
v -0.419859 -0.091151 -0.217407
v -0.296596 -0.111200 -0.522314
v -0.419859 0.041815 -0.226150
v -0.528811 0.029747 -0.409677
v -0.296596 0.021766 -0.531058
v -0.528811 0.021766 -0.531058
v -0.404392 -0.034570 -0.527353
v -0.415337 -0.025900 -0.527922
v -0.401388 -0.047137 -0.526527
v -0.401282 -0.036492 -0.381062
v -0.407856 -0.049633 -0.380198
v -0.408694 -0.059889 -0.525689
v -0.420007 -0.054126 -0.379902
v -0.420954 -0.063695 -0.525438
v -0.435415 -0.048147 -0.380296
v -0.433105 -0.059203 -0.525734
v -0.528812 -0.111200 -0.522314
v -0.440141 -0.042182 -0.526852
v -0.439048 -0.030099 -0.381481
v -0.431450 -0.019635 -0.382171
v -0.430662 -0.028680 -0.527740
v -0.418008 -0.015800 -0.382422
v -0.404918 -0.024215 -0.381868
v -0.296596 -0.090909 -0.213718
v -0.419859 0.066916 0.155580
v -0.415077 0.080051 0.355346
v -0.390994 0.074809 0.275613
v -0.423209 0.085504 0.438264
v -0.423209 0.038698 0.441341
v -0.415077 0.090956 0.521180
v -0.374393 0.040775 0.472935
v -0.374393 0.036102 0.401861
v -0.303165 0.036102 0.401861
v -0.374393 0.106527 0.397230
v -0.303165 0.106527 0.397230
v -0.303165 0.111200 0.468304
v -0.374393 0.111200 0.468304
v -0.303165 0.040775 0.472935
v -0.125215 0.040073 0.462250
v -0.127669 0.038439 0.437397
v -0.338110 -0.037271 0.309805
v -0.341844 -0.057393 0.295679
v -0.360689 -0.056498 0.309479
vn -0.0000 0.9978 -0.0656
vn 0.9653 -0.0086 0.2609
vn -0.0001 0.9978 -0.0659
vn 0.7923 -0.0794 -0.6050
vn 0.9831 0.0217 -0.1820
vn 0.7325 -0.5889 -0.3415
vn 0.7235 -0.6835 -0.0965
vn 0.4392 -0.0216 -0.8981
vn 0.3265 -0.7115 -0.6222
vn -0.2821 -0.0951 -0.9547
vn -0.2673 -0.6544 -0.7074
vn -0.3477 -0.7006 -0.6231
vn -0.4619 -0.0481 -0.8856
vn 0.2040 -0.6332 -0.7466
vn 0.0011 -0.9978 0.0663
vn -0.0017 -0.9979 0.0645
vn -0.9865 0.0054 0.1635
vn -0.0000 -0.9978 0.0656
vn 0.0182 0.0742 0.9971
vn 0.1991 0.0279 0.9796
vn 0.0001 -0.9978 0.0659
vn -0.0001 -0.9979 0.0654
vn 0.0009 -0.9978 0.0658
vn 0.0016 -0.9978 0.0661
vn 0.8876 0.0037 0.4607
vn 0.9534 0.0478 0.2980
vn 0.7646 0.0687 0.6408
vn -0.0002 -0.9978 0.0658
vn -0.0001 -0.9979 0.0655
vn -0.0001 -0.9978 0.0657
vn 0.0011 -0.9979 0.0654
vn -0.4539 -0.5296 0.7166
vn -0.6562 -0.6373 0.4040
vn -0.7931 -0.5553 0.2503
vn -0.9564 -0.0231 -0.2912
vn -0.8689 0.0366 0.4935
vn -0.7230 -0.6674 -0.1785
vn -0.9560 -0.0228 -0.2925
vn -0.8880 0.0438 0.4578
vn -0.3805 0.0402 0.9239
vn 0.0003 0.9978 -0.0657
vn -0.0001 0.9978 -0.0656
vn 0.8832 0.0308 0.4680
vn 0.7750 0.0415 0.6306
vn 0.6368 0.0506 0.7693
vn -0.0000 -0.0656 -0.9978
vn 0.8627 -0.0332 -0.5046
vn -0.8627 -0.0332 -0.5046
vn -0.9967 0.0054 0.0816
vn 0.0063 -0.9980 0.0636
vn -0.5812 0.0534 0.8120
vn -0.5505 0.1158 0.8268
vn -0.0017 -0.9977 0.0682
vn -0.9726 0.1435 -0.1830
vn -0.4775 0.0883 -0.8742
vn -0.8102 -0.1919 -0.5539
vn -0.0021 -0.9977 0.0682
vn -0.9504 -0.1272 0.2837
vn -0.0011 0.9979 -0.0641
vn 0.0074 0.9977 -0.0672
vn -0.0025 0.9979 -0.0642
vn -0.0067 0.9978 -0.0664
vn 0.0007 0.9978 -0.0656
vn -0.4078 -0.0775 0.9098
vn -0.7851 0.1573 0.5990
vn -0.0008 0.9978 -0.0655
vn 0.4325 -0.0326 0.9011
vn -0.0000 0.9978 -0.0665
vn -0.1252 0.1834 0.9750
vn 0.0264 0.0843 0.9961
vn 0.9661 0.0116 0.2580
vn -0.0001 0.9978 -0.0657
vn -0.0002 0.9978 -0.0657
vn 0.8979 0.0289 0.4393
vn 0.4713 0.0578 0.8801
vn 0.0002 0.9979 -0.0655
vn 0.9657 0.0170 0.2593
vn 0.4714 0.0579 0.8800
vn 0.5060 0.0681 0.8599
vn 0.6678 0.0312 0.7437
vn 0.2920 0.0627 0.9544
vn 0.4737 0.0578 0.8788
vn 0.0987 0.0653 0.9930
vn -0.0987 0.0653 0.9930
vn -0.2920 0.0628 0.9544
vn -0.4737 0.0578 0.8788
vn -0.6368 0.0506 0.7693
vn -0.7173 -0.0457 -0.6952
vn -0.6967 0.0471 0.7158
vn 0.7174 0.0457 0.6952
vn -0.8934 0.0295 0.4484
vn -0.7730 0.0416 0.6330
vn -0.0005 0.9977 -0.0674
vn 0.0002 0.9979 -0.0650
vn -0.9018 0.0362 0.4305
vn -0.9899 0.0014 0.1420
vn -0.9924 0.0081 0.1224
vn -0.0013 -0.9978 0.0660
vn -0.0009 -0.9978 0.0658
vn 0.0001 -0.9979 0.0654
vn -0.0011 -0.9978 0.0663
vn 0.0016 -0.9979 0.0646
vn 0.9865 0.0054 0.1635
vn -0.1991 0.0279 0.9796
vn -0.0182 0.0742 0.9971
vn -0.0000 0.0656 0.9978
vn 0.9867 0.0107 0.1622
vn 1.0000 -0.0000 -0.0000
vn 0.1660 -0.9831 0.0768
vn -0.1227 -0.9914 0.0458
vn -0.0000 -0.0657 -0.9978
vn -0.8501 -0.5237 0.0553
vn 0.0001 -0.0655 -0.9979
vn 0.7472 -0.6636 0.0362
vn 0.9008 -0.4323 0.0405
vn 0.0001 -0.0658 -0.9978
vn 0.9992 -0.0382 -0.0075
vn 0.8469 0.5313 -0.0230
vn -0.0000 -0.0655 -0.9979
vn 0.7546 0.6546 -0.0457
vn 0.0893 0.9940 -0.0625
vn 0.1053 0.9926 -0.0606
vn 0.0001 -0.0656 -0.9978
vn -0.6077 0.7915 -0.0644
vn -0.9801 -0.1982 -0.0068
vn -0.0003 -0.0659 -0.9978
vn -0.8254 0.5643 -0.0175
vn -0.0001 -0.0654 -0.9979
vn -1.0000 -0.0000 -0.0000
vn -0.9575 0.0189 0.2880
vn -0.8832 0.0308 0.4680
vn 0.0001 0.9978 -0.0656
vn 0.0002 0.9979 -0.0653
vn -0.8690 0.0366 0.4935
vn -0.6563 -0.6373 0.4040
vn -0.0417 -0.5968 0.8013
vn -0.1378 0.0873 0.9866
vn -0.0986 -0.5595 0.8230
vn 0.4703 -0.5639 0.6789
vn 0.0010 -0.9978 0.0659
vn -0.0009 -0.9978 0.0656
vn 0.0002 -0.9978 0.0663
vn 0.7773 -0.5709 0.2643
vn 0.4924 -0.5891 0.6406
vn 0.0001 -0.9978 0.0657
vn 0.7583 -0.6354 0.1459
vn 0.6339 0.0648 0.7707
vn 0.9656 0.0032 0.2602
vn 0.9905 0.0171 0.1362
vn 0.7253 -0.6108 -0.3175
vn 0.8714 -0.0357 -0.4893
vn 0.6877 -0.6390 -0.3448
vn 0.3009 -0.0483 -0.9524
vn 0.8650 -0.0391 -0.5002
vn 0.2305 -0.6892 -0.6869
vn 0.3007 -0.6594 -0.6890
vn -0.4135 -0.0625 -0.9084
vn 0.1931 -0.0714 -0.9786
vn -0.4700 -0.0480 -0.8814
vn -0.3487 -0.7122 -0.6092
vn -0.1724 -0.6284 -0.7585
vn -0.9560 -0.0228 -0.2926
vn -0.7132 -0.5906 -0.3777
vn 0.0001 -0.9979 0.0655
vn 0.4567 0.0357 0.8889
vn -0.0014 -0.9978 0.0659
vn 0.0010 -0.9978 0.0657
vn -0.7931 -0.5553 0.2504
vn -0.0003 0.9978 -0.0657
vn -0.7750 0.0415 0.6306
vn -0.4258 -0.0408 -0.9039
vn -0.8547 -0.0573 -0.5160
vn -0.9825 -0.0022 -0.1865
vn 0.3664 -0.0778 -0.9272
vn -0.8569 0.0268 0.5147
vn -0.0001 -0.9978 0.0656
vn -0.7415 0.0540 0.6687
vn -0.1317 0.0502 0.9900
vn -0.0001 -0.9979 0.0653
vn 0.7727 0.0237 0.6343
vn 0.9871 0.0041 -0.1599
vn 0.3140 -0.0709 -0.9468
vn 0.9927 0.0008 -0.1206
vn 0.3153 0.0890 0.9448
vn -0.9952 -0.0064 -0.0972
vn -0.9952 0.0064 0.0972
vn -0.9952 -0.0064 -0.0978
vn -0.2096 0.0642 0.9757
vn 0.6967 -0.0471 -0.7158
vn -0.9766 0.0141 0.2145
vn -0.9773 0.0191 0.2110
vn -0.0267 0.0470 0.9985
vn 0.7173 0.0457 0.6952
vn -0.0000 0.9979 -0.0655
vn 0.1069 0.0652 0.9921
vn 0.3357 0.0316 -0.9414
vn -0.1574 -0.1596 -0.9746
vn 0.4768 -0.1199 -0.8708
vn 0.0015 -0.9978 0.0661
vn 0.9586 0.0150 -0.2842
vn -0.0016 -0.9977 0.0675
vn 0.9483 -0.0339 -0.3156
vn -0.0000 -0.9979 0.0648
vn -0.0024 -0.9979 0.0644
vn 0.9018 0.0155 0.4320
vn 0.9085 -0.0018 0.4179
vn 0.5611 0.0868 0.8232
vn 0.0411 0.1565 0.9868
vn -0.1066 -0.0091 0.9943
vn 0.0001 -0.9978 0.0656
vn -0.7048 0.0209 0.7091
vn -0.9960 0.0228 -0.0866
vn -0.3918 0.0790 0.9166
vn -0.0007 -0.9978 0.0657
vn 0.4538 0.0400 0.8902
vn 0.7016 0.0603 0.7100
vn 0.9989 -0.0157 -0.0451
vn 0.3603 -0.0691 -0.9303
vn 0.9752 -0.0072 -0.2211
vn 0.3664 -0.0698 -0.9278
vn -0.0003 -0.9978 0.0656
vn -0.4360 -0.0464 -0.8987
vn -0.0001 -0.0655 -0.9979
vn -0.9727 -0.2313 0.0176
vn -0.8947 0.4455 -0.0319
vn -0.8681 0.4955 -0.0299
vn -0.2971 0.9529 -0.0607
vn -0.3474 0.9355 -0.0639
vn 0.3624 0.9299 -0.0635
vn 0.3474 0.9354 -0.0656
vn -0.0000 -0.0655 -0.9978
vn 0.9244 0.3812 -0.0143
vn 0.9804 0.1958 -0.0236
vn 0.8098 -0.5852 0.0426
vn 0.8190 -0.5723 0.0400
vn 0.2749 -0.9595 0.0611
vn 0.1789 -0.9813 0.0714
vn -0.5415 -0.8393 0.0483
vn 0.0001 -0.0655 -0.9978
vn -0.0001 -0.0656 -0.9978
vn -0.9590 -0.2830 0.0167
vn -0.6217 -0.7814 0.0534
vn 0.9575 0.0189 0.2880
vn 0.9952 0.0064 0.0972
vn 0.9952 -0.0064 -0.0972
vn 0.9951 0.0049 -0.0986
vn 0.9903 -0.0125 0.1385
vn 0.2096 0.0642 0.9757
vn 0.9974 -0.0047 -0.0714
vn -0.9867 0.0107 0.1622
vn -0.7806 -0.0672 -0.6214
vn -0.0002 0.9979 -0.0654
vn 0.5109 -0.6103 0.6054
vn 0.6795 0.0726 0.7300
vn -0.0986 -0.5594 0.8230
vn 0.4703 -0.5638 0.6789
vn 0.0008 -0.9978 0.0657
vn 0.7943 -0.5454 0.2675
vn -0.0020 -0.9979 0.0655
vn -0.7149 -0.5967 -0.3645
vn -0.0000 0.9979 -0.0654
vn 0.0002 0.9978 -0.0662
s 0
usemtl Material.002
f 2//1 4//1 1//1
f 3//1 2//1 1//1
f 3//2 1//2 6//2
f 5//3 1//3 4//3
f 1//4 5//4 7//4
f 7//5 6//5 1//5
f 9//6 8//6 7//6
f 6//7 7//7 8//7
f 10//8 7//8 5//8
f 7//9 10//9 9//9
f 5//10 13//10 10//10
f 11//11 14//11 10//11
f 10//12 12//12 11//12
f 12//13 10//13 13//13
f 14//14 9//14 10//14
f 14//15 11//15 15//15
f 9//16 14//16 15//16
f 17//17 16//17 15//17
f 18//18 15//18 16//18
f 15//19 19//19 17//19
f 18//18 22//18 15//18
f 20//20 19//20 15//20
f 20//21 15//21 21//21
f 23//22 21//22 15//22
f 8//23 15//23 22//23
f 11//22 23//22 15//22
f 9//24 15//24 8//24
f 26//25 24//25 23//25
f 21//26 23//26 24//26
f 25//18 23//18 27//18
f 23//27 25//27 26//27
f 29//28 22//28 23//28
f 22//18 27//18 23//18
f 28//29 23//29 11//29
f 28//30 29//30 23//30
f 29//31 30//31 22//31
f 30//32 29//32 31//32
f 32//33 31//33 29//33
f 29//34 28//34 32//34
f 13//35 33//35 32//35
f 31//36 32//36 33//36
f 12//37 32//37 28//37
f 32//38 12//38 13//38
f 33//1 24//1 26//1
f 26//1 34//1 33//1
f 13//1 24//1 33//1
f 33//39 34//39 31//39
f 36//1 34//1 26//1
f 34//40 35//40 31//40
f 36//41 35//41 34//41
f 35//42 36//42 2//42
f 40//1 36//1 37//1
f 36//1 38//1 37//1
f 36//1 26//1 38//1
f 2//43 36//43 39//43
f 41//44 39//44 36//44
f 36//44 40//44 41//44
f 42//45 41//45 40//45
f 43//1 39//1 41//1
f 42//1 45//1 41//1
f 44//1 43//1 41//1
f 44//1 41//1 45//1
f 53//46 27//46 45//46
f 27//47 46//47 45//47
f 48//1 45//1 46//1
f 47//1 45//1 51//1
f 45//46 47//46 53//46
f 49//1 45//1 48//1
f 49//1 44//1 45//1
f 50//1 45//1 42//1
f 52//1 45//1 50//1
f 51//1 45//1 52//1
f 55//18 53//18 54//18
f 54//18 53//18 56//18
f 27//18 53//18 55//18
f 67//18 56//18 53//18
f 53//48 47//48 58//48
f 60//18 53//18 57//18
f 58//48 57//48 53//48
f 53//18 59//18 65//18
f 59//18 53//18 60//18
f 53//18 64//18 61//18
f 61//18 62//18 53//18
f 62//18 63//18 53//18
f 63//18 66//18 53//18
f 64//18 53//18 65//18
f 66//18 67//18 53//18
f 68//49 67//49 66//49
f 67//50 71//50 56//50
f 69//51 67//51 68//51
f 67//52 69//52 70//52
f 71//53 67//53 70//53
f 56//54 71//54 74//54
f 71//55 73//55 72//55
f 72//56 74//56 71//56
f 71//57 70//57 73//57
f 74//58 76//58 56//58
f 74//59 69//59 68//59
f 68//60 75//60 74//60
f 72//61 69//61 74//61
f 76//62 74//62 75//62
f 77//63 76//63 75//63
f 76//64 77//64 54//64
f 54//65 56//65 76//65
f 79//66 78//66 77//66
f 77//67 78//67 55//67
f 79//68 77//68 75//68
f 55//69 54//69 77//69
f 79//70 75//70 80//70
f 82//71 79//71 80//71
f 79//72 81//72 78//72
f 79//73 82//73 81//73
f 84//1 81//1 82//1
f 85//74 82//74 83//74
f 87//75 83//75 82//75
f 85//76 84//76 82//76
f 80//77 86//77 82//77
f 82//78 86//78 87//78
f 88//1 87//1 89//1
f 87//1 88//1 26//1
f 90//1 89//1 87//1
f 87//1 86//1 90//1
f 87//79 25//79 83//79
f 87//80 26//80 25//80
f 90//81 91//81 52//81
f 91//1 90//1 86//1
f 89//82 90//82 50//82
f 52//81 50//81 90//81
f 86//1 80//1 91//1
f 92//1 91//1 80//1
f 91//83 92//83 51//83
f 51//83 52//83 91//83
f 93//1 92//1 80//1
f 92//84 93//84 94//84
f 94//84 51//84 92//84
f 47//1 94//1 95//1
f 95//85 94//85 93//85
f 47//1 51//1 94//1
f 96//1 47//1 95//1
f 96//86 95//86 97//86
f 93//85 97//85 95//85
f 97//1 93//1 98//1
f 98//1 99//1 97//1
f 100//1 97//1 99//1
f 97//86 100//86 96//86
f 100//87 101//87 103//87
f 100//1 104//1 101//1
f 99//1 102//1 100//1
f 100//1 102//1 105//1
f 103//87 96//87 100//87
f 100//1 105//1 104//1
f 108//1 105//1 102//1
f 106//88 105//88 107//88
f 105//88 106//88 104//88
f 108//89 107//89 105//89
f 102//1 112//1 108//1
f 107//89 108//89 109//89
f 110//90 109//90 108//90
f 110//1 108//1 111//1
f 112//1 111//1 108//1
f 111//1 112//1 113//1
f 113//1 112//1 114//1
f 114//1 112//1 115//1
f 115//91 112//91 63//91
f 66//92 63//92 112//92
f 112//92 102//92 66//92
f 116//93 117//93 115//93
f 119//1 116//1 115//1
f 117//94 114//94 115//94
f 63//95 121//95 115//95
f 119//1 115//1 118//1
f 115//1 120//1 118//1
f 120//96 115//96 121//96
f 122//18 121//18 123//18
f 121//97 122//97 120//97
f 121//18 63//18 123//18
f 127//98 124//98 123//98
f 124//99 62//99 123//99
f 125//100 123//100 63//100
f 126//101 123//101 125//101
f 127//102 123//102 126//102
f 132//103 123//103 128//103
f 131//18 128//18 123//18
f 123//18 129//18 122//18
f 129//104 123//104 130//104
f 123//105 132//105 130//105
f 131//18 123//18 62//18
f 132//1 135//1 133//1
f 133//106 130//106 132//106
f 134//1 132//1 136//1
f 135//1 132//1 134//1
f 128//107 136//107 132//107
f 137//1 134//1 136//1
f 138//108 137//108 136//108
f 136//108 128//108 138//108
f 138//18 131//18 141//18
f 138//18 128//18 131//18
f 138//18 139//18 140//18
f 138//18 141//18 139//18
f 138//18 140//18 142//18
f 137//46 138//46 142//46
f 143//108 142//108 144//108
f 142//46 143//46 137//46
f 142//18 140//18 60//18
f 60//18 57//18 142//18
f 144//18 142//18 57//18
f 144//46 146//46 145//46
f 145//46 148//46 144//46
f 144//46 147//46 146//46
f 144//18 57//18 147//18
f 144//108 148//108 143//108
f 148//46 150//46 149//46
f 148//1 149//1 143//1
f 150//46 148//46 145//46
f 153//109 150//109 151//109
f 152//110 151//110 150//110
f 150//111 153//111 149//111
f 150//112 145//112 152//112
f 153//113 155//113 149//113
f 151//114 154//114 153//114
f 155//115 153//115 154//115
f 156//116 147//116 155//116
f 147//46 149//46 155//46
f 154//117 157//117 155//117
f 156//118 155//118 157//118
f 157//46 154//46 158//46
f 159//119 157//119 158//119
f 157//120 159//120 156//120
f 146//121 156//121 159//121
f 159//122 160//122 146//122
f 160//123 159//123 158//123
f 160//124 158//124 146//124
f 158//125 152//125 145//125
f 151//126 152//126 158//126
f 154//46 151//46 158//46
f 145//127 146//127 158//127
f 146//128 147//128 156//128
f 57//129 58//129 149//129
f 149//129 147//129 57//129
f 149//1 162//1 161//1
f 161//1 143//1 149//1
f 149//1 58//1 162//1
f 161//106 162//106 60//106
f 59//108 60//108 162//108
f 162//108 163//108 59//108
f 47//1 163//1 162//1
f 58//1 47//1 162//1
f 166//1 164//1 163//1
f 163//46 164//46 139//46
f 139//46 59//46 163//46
f 47//1 165//1 163//1
f 163//1 165//1 166//1
f 164//1 166//1 137//1
f 166//1 167//1 137//1
f 166//106 165//106 61//106
f 61//106 141//106 166//106
f 167//129 166//129 141//129
f 141//129 131//129 167//129
f 170//46 167//46 131//46
f 134//1 137//1 167//1
f 169//1 134//1 167//1
f 170//1 168//1 167//1
f 168//1 169//1 167//1
f 131//46 62//46 170//46
f 103//1 170//1 165//1
f 103//1 168//1 170//1
f 165//108 170//108 62//108
f 134//130 169//130 171//130
f 169//131 168//131 111//131
f 111//131 171//131 169//131
f 172//132 171//132 111//132
f 172//133 174//133 171//133
f 171//1 173//1 119//1
f 174//1 173//1 171//1
f 171//130 119//130 134//130
f 174//40 172//40 175//40
f 173//39 174//39 175//39
f 175//134 176//134 173//134
f 176//135 175//135 178//135
f 177//32 178//32 175//32
f 180//136 177//136 175//136
f 179//137 175//137 172//137
f 175//138 179//138 180//138
f 181//139 180//139 179//139
f 181//140 62//140 180//140
f 180//141 62//141 177//141
f 182//142 63//142 181//142
f 182//143 181//143 183//143
f 179//144 183//144 181//144
f 181//145 63//145 62//145
f 183//146 184//146 182//146
f 183//147 179//147 113//147
f 113//148 114//148 183//148
f 184//149 183//149 114//149
f 125//150 182//150 184//150
f 185//151 184//151 114//151
f 184//152 185//152 125//152
f 186//153 185//153 117//153
f 114//154 117//154 185//154
f 185//155 186//155 126//155
f 126//156 125//156 185//156
f 116//157 188//157 186//157
f 117//158 116//158 186//158
f 187//159 186//159 188//159
f 186//160 187//160 127//160
f 127//161 126//161 186//161
f 176//162 187//162 188//162
f 188//35 173//35 176//35
f 116//1 119//1 188//1
f 173//1 188//1 119//1
f 187//37 176//37 124//37
f 124//163 127//163 187//163
f 182//164 125//164 63//164
f 172//165 113//165 179//165
f 178//166 62//166 124//166
f 177//167 62//167 178//167
f 178//168 124//168 176//168
f 111//169 113//169 172//169
f 168//170 103//170 101//170
f 101//170 111//170 168//170
f 47//1 103//1 165//1
f 62//108 61//108 165//108
f 161//1 164//1 137//1
f 164//129 161//129 140//129
f 140//129 139//129 164//129
f 143//1 161//1 137//1
f 60//106 140//106 161//106
f 141//18 61//18 189//18
f 189//18 139//18 141//18
f 193//171 190//171 189//171
f 191//172 189//172 190//172
f 189//173 191//173 192//173
f 139//18 189//18 192//18
f 189//18 61//18 193//18
f 64//174 190//174 193//174
f 64//18 193//18 61//18
f 195//175 192//175 191//175
f 139//18 192//18 59//18
f 192//176 194//176 59//176
f 192//177 195//177 194//177
f 196//178 194//178 195//178
f 190//18 195//18 191//18
f 196//179 195//179 198//179
f 197//18 195//18 190//18
f 198//18 195//18 197//18
f 198//180 65//180 196//180
f 197//181 65//181 198//181
f 190//182 64//182 197//182
f 65//183 197//183 64//183
f 194//184 196//184 65//184
f 194//18 65//18 59//18
f 133//185 135//185 199//185
f 135//186 134//186 119//186
f 119//186 199//186 135//186
f 200//1 199//1 119//1
f 199//185 130//185 133//185
f 201//1 130//1 199//1
f 200//1 201//1 199//1
f 202//1 130//1 201//1
f 200//108 204//108 201//108
f 201//106 203//106 202//106
f 203//106 201//106 204//106
f 204//108 200//108 205//108
f 206//1 204//1 205//1
f 204//1 206//1 203//1
f 205//46 118//46 206//46
f 206//129 202//129 203//129
f 202//129 206//129 118//129
f 118//46 205//46 200//46
f 202//1 118//1 120//1
f 207//1 202//1 120//1
f 207//1 130//1 202//1
f 207//187 120//187 122//187
f 130//188 207//188 129//188
f 122//187 129//187 207//187
f 119//1 118//1 200//1
f 110//1 111//1 101//1
f 104//1 110//1 101//1
f 104//189 208//189 110//189
f 109//90 110//90 208//90
f 208//189 104//189 106//189
f 208//1 107//1 109//1
f 107//1 208//1 106//1
f 103//1 47//1 96//1
f 66//49 102//49 99//49
f 75//190 68//190 99//190
f 99//191 98//191 75//191
f 99//49 68//49 66//49
f 98//192 80//192 75//192
f 80//1 98//1 93//1
f 209//1 88//1 89//1
f 40//1 209//1 89//1
f 40//45 89//45 42//45
f 50//82 42//82 89//82
f 40//1 37//1 209//1
f 209//189 210//189 88//189
f 37//88 211//88 209//88
f 210//189 209//189 211//189
f 211//88 37//88 212//88
f 212//1 210//1 211//1
f 210//1 212//1 213//1
f 212//89 38//89 213//89
f 38//89 212//89 37//89
f 88//90 213//90 38//90
f 213//193 88//193 210//193
f 88//1 38//1 26//1
f 214//194 216//194 85//194
f 214//195 85//195 215//195
f 83//74 215//74 85//74
f 216//1 84//1 85//1
f 73//196 217//196 216//196
f 216//197 72//197 73//197
f 216//194 214//194 72//194
f 84//198 216//198 217//198
f 217//199 83//199 218//199
f 217//200 218//200 81//200
f 217//201 73//201 70//201
f 81//202 84//202 217//202
f 70//203 215//203 217//203
f 215//204 83//204 217//204
f 27//18 219//18 218//18
f 218//205 219//205 78//205
f 78//206 81//206 218//206
f 27//18 218//18 83//18
f 219//207 55//207 78//207
f 27//18 55//18 219//18
f 215//208 70//208 214//208
f 72//194 214//194 69//194
f 214//209 70//209 69//209
f 83//18 25//18 27//18
f 49//129 48//129 220//129
f 220//129 223//129 49//129
f 221//1 44//1 49//1
f 49//1 222//1 221//1
f 222//46 49//46 223//46
f 27//18 227//18 223//18
f 223//18 220//18 27//18
f 224//18 223//18 226//18
f 223//46 224//46 222//46
f 226//18 223//18 225//18
f 225//210 223//210 227//210
f 230//211 227//211 228//211
f 229//212 228//212 227//212
f 229//100 227//100 27//100
f 227//213 230//213 225//213
f 231//214 230//214 228//214
f 232//145 230//145 231//145
f 233//176 230//176 232//176
f 233//215 225//215 230//215
f 225//216 233//216 226//216
f 232//217 226//217 233//217
f 231//218 234//218 232//218
f 226//219 232//219 234//219
f 235//18 234//18 236//18
f 234//18 235//18 224//18
f 234//18 237//18 236//18
f 224//18 226//18 234//18
f 234//220 231//220 237//220
f 229//221 236//221 237//221
f 237//222 231//222 229//222
f 236//129 22//129 43//129
f 236//18 27//18 22//18
f 43//129 44//129 236//129
f 235//106 236//106 44//106
f 27//18 236//18 229//18
f 238//18 235//18 18//18
f 238//18 224//18 235//18
f 44//106 221//106 235//106
f 18//108 235//108 221//108
f 238//18 18//18 16//18
f 240//129 238//129 16//129
f 238//18 242//18 224//18
f 238//46 241//46 239//46
f 238//18 239//18 242//18
f 238//129 240//129 241//129
f 243//18 242//18 239//18
f 220//18 242//18 243//18
f 242//106 220//106 48//106
f 224//108 242//108 244//108
f 48//106 244//106 242//106
f 241//1 244//1 245//1
f 246//1 245//1 244//1
f 241//1 222//1 244//1
f 48//1 246//1 244//1
f 244//108 222//108 224//108
f 48//1 46//1 246//1
f 246//108 46//108 243//108
f 246//46 243//46 250//46
f 246//111 249//111 247//111
f 247//1 245//1 246//1
f 249//223 246//223 248//223
f 248//46 246//46 250//46
f 248//224 250//224 251//224
f 252//225 251//225 250//225
f 250//226 253//226 252//226
f 253//46 250//46 243//46
f 253//227 255//227 254//227
f 254//228 252//228 253//228
f 255//111 253//111 243//111
f 243//46 258//46 255//46
f 256//229 254//229 255//229
f 255//230 257//230 256//230
f 257//46 255//46 258//46
f 247//46 259//46 258//46
f 247//129 258//129 239//129
f 258//18 243//18 239//18
f 259//231 257//231 258//231
f 262//111 259//111 247//111
f 257//232 259//232 256//232
f 260//233 256//233 259//233
f 261//234 260//234 259//234
f 259//235 262//235 261//235
f 249//113 262//113 247//113
f 263//236 261//236 262//236
f 262//237 249//237 263//237
f 264//238 263//238 249//238
f 264//239 251//239 263//239
f 251//46 252//46 263//46
f 252//46 254//46 263//46
f 260//116 261//116 263//116
f 256//240 260//240 263//240
f 254//46 256//46 263//46
f 251//241 264//241 248//241
f 249//242 248//242 264//242
f 239//129 245//129 247//129
f 245//46 239//46 241//46
f 265//108 243//108 46//108
f 220//18 243//18 265//18
f 46//47 27//47 265//47
f 220//18 265//18 27//18
f 241//1 266//1 221//1
f 241//1 221//1 222//1
f 241//1 267//1 266//1
f 241//1 240//1 267//1
f 267//1 268//1 266//1
f 268//243 267//243 4//243
f 269//244 4//244 267//244
f 269//1 267//1 17//1
f 267//1 240//1 17//1
f 4//244 269//244 270//244
f 271//245 270//245 269//245
f 269//1 17//1 271//1
f 270//245 271//245 19//245
f 271//106 17//106 19//106
f 272//1 270//1 19//1
f 273//1 4//1 270//1
f 273//1 270//1 272//1
f 4//1 273//1 274//1
f 272//129 275//129 273//129
f 273//46 276//46 274//46
f 276//46 273//46 275//46
f 277//108 274//108 276//108
f 275//1 277//1 276//1
f 277//1 275//1 278//1
f 278//106 279//106 277//106
f 274//108 277//108 279//108
f 280//1 281//1 279//1
f 280//1 279//1 19//1
f 279//1 272//1 19//1
f 279//1 281//1 274//1
f 279//106 278//106 272//106
f 280//246 21//246 281//246
f 281//247 21//247 24//247
f 24//1 274//1 281//1
f 19//248 20//248 280//248
f 21//249 280//249 20//249
f 275//129 272//129 278//129
f 4//1 274//1 24//1
f 4//243 2//243 268//243
f 39//43 268//43 2//43
f 266//1 268//1 39//1
f 266//46 43//46 22//46
f 22//46 18//46 266//46
f 266//1 39//1 43//1
f 221//108 266//108 18//108
f 16//250 17//250 240//250
f 228//251 229//251 231//251
f 35//252 2//252 3//252
f 282//137 31//137 35//137
f 35//165 3//165 282//165
f 282//253 6//253 284//253
f 6//254 282//254 3//254
f 31//255 282//255 283//255
f 284//256 283//256 282//256
f 283//257 284//257 22//257
f 8//258 284//258 6//258
f 284//259 8//259 22//259
f 30//99 283//99 22//99
f 283//136 30//136 31//136
f 28//260 11//260 12//260
f 4//261 24//261 5//261
f 24//262 13//262 5//262
