# Blender 5.0.1
# www.blender.org
mtllib torso_y_link_visual_23.mtl
o i01.torso.full.025_visual.001
v 0.022083 0.050915 0.107807
v 0.040459 0.024833 0.096498
v 0.020202 0.024391 0.102456
v -0.000585 0.051151 0.109727
v 0.000080 0.042792 0.108843
v 0.042399 0.050455 0.101462
v 0.060584 0.049972 0.091911
v -0.078153 0.038741 -0.077497
v -0.091590 0.039753 -0.061544
v -0.022378 0.036735 -0.107729
v -0.042179 0.037179 -0.101571
v -0.060645 0.037916 -0.091546
v -0.107984 0.045288 0.022367
v -0.101447 0.046649 0.043291
v -0.101975 0.041107 -0.041714
v -0.108314 0.042419 -0.021302
v -0.110268 0.043912 0.001239
v -0.078169 0.049012 0.077194
v -0.061211 0.049852 0.091428
v -0.091362 0.047882 0.061599
v -0.042649 0.050485 0.101615
v -0.021776 0.050913 0.107874
v 0.077525 0.048894 0.078299
v 0.110268 0.043904 0.001066
v 0.108260 0.042450 -0.020768
v 0.091354 0.047869 0.061582
v 0.101976 0.046586 0.042140
v 0.108108 0.045251 0.021126
v 0.078903 0.038773 -0.076890
v 0.061540 0.037957 -0.090925
v 0.101742 0.040998 -0.042603
v 0.090878 0.039752 -0.062223
v 0.000547 0.036721 -0.109726
v 0.042808 0.037159 -0.101365
v 0.022330 0.036751 -0.107760
v 0.057663 0.023140 0.086740
v 0.035777 0.005600 0.089288
v 0.066442 0.003040 0.067913
v 0.073796 0.024095 0.074131
v 0.052167 0.003952 0.079602
v 0.043805 -0.012749 0.071032
v 0.029945 -0.015024 0.075649
v 0.055478 -0.014835 0.059926
v 0.031194 -0.029087 0.058167
v 0.012636 -0.040197 0.046143
v 0.007549 -0.028651 0.066130
v 0.026239 -0.040969 0.038071
v 0.048753 -0.029920 0.043393
v 0.066070 -0.015419 0.047266
v 0.073286 -0.016327 0.033511
v 0.037384 -0.041524 0.025643
v 0.057494 -0.030920 0.027560
v 0.077413 -0.017496 0.018768
v 0.061396 -0.032365 0.009771
v 0.040671 -0.043732 0.005754
v 0.020468 -0.048795 0.011915
v 0.060211 -0.033424 -0.007998
v 0.016829 -0.049901 -0.008261
v 0.035790 -0.044330 -0.017691
v 0.020952 -0.044995 -0.031895
v 0.038952 -0.035379 -0.043405
v 0.054412 -0.034513 -0.024583
v 0.065155 -0.021415 -0.040012
v 0.055395 -0.022261 -0.051620
v 0.073118 -0.019869 -0.026836
v 0.077588 -0.019063 -0.012020
v 0.091083 -0.002274 -0.015661
v 0.092798 -0.001364 0.002067
v 0.079181 -0.018116 0.003366
v 0.090860 -0.000608 0.020436
v 0.102911 0.017584 0.001106
v 0.084814 -0.000290 0.038215
v 0.094999 0.018658 0.039864
v 0.101115 0.019341 0.021759
v 0.079038 0.002597 0.052294
v 0.085891 0.021565 0.058398
v 0.100746 0.016729 -0.020039
v 0.085790 -0.002918 -0.033777
v 0.094635 0.015143 -0.038646
v 0.085605 0.014215 -0.055588
v 0.076246 -0.005208 -0.049385
v 0.072261 0.012275 -0.070967
v 0.064881 -0.005659 -0.063269
v 0.060298 0.028761 -0.089326
v 0.055470 0.010729 -0.084017
v 0.038663 0.013628 -0.094429
v 0.036016 -0.006099 -0.083137
v 0.050257 -0.006338 -0.074954
v 0.043399 -0.022360 -0.062108
v 0.018232 -0.036220 -0.054429
v 0.029299 -0.023090 -0.069074
v 0.014607 -0.022931 -0.073877
v -0.000335 -0.023860 -0.074260
v 0.017768 -0.006735 -0.088335
v 0.002451 -0.007375 -0.089648
v -0.017072 -0.008317 -0.087349
v -0.002940 0.008689 -0.099846
v 0.020344 0.010735 -0.098872
v -0.000436 0.029943 -0.108182
v -0.020277 0.011751 -0.099280
v -0.034880 -0.006711 -0.083086
v -0.039644 0.012189 -0.093466
v -0.062226 0.030275 -0.088490
v -0.057529 0.012516 -0.083670
v -0.051419 -0.006400 -0.074301
v -0.029487 -0.023759 -0.068224
v -0.065398 -0.005593 -0.062716
v -0.072981 0.011764 -0.070022
v -0.044170 -0.023318 -0.060315
v -0.056294 -0.021677 -0.051556
v -0.075939 -0.007071 -0.047360
v -0.048818 -0.034947 -0.033381
v -0.064713 -0.022414 -0.038442
v -0.073229 -0.020175 -0.025723
v -0.059221 -0.033763 -0.012047
v -0.091108 -0.002549 -0.014621
v -0.086103 -0.003461 -0.032041
v -0.077471 -0.019433 -0.010409
v -0.062357 -0.031598 0.011491
v -0.092483 -0.001788 0.003397
v -0.079151 -0.018039 0.004923
v -0.077470 -0.017269 0.019544
v -0.090323 -0.000672 0.022714
v -0.072899 -0.016348 0.034332
v -0.054161 -0.031142 0.033386
v -0.061101 -0.015216 0.054174
v -0.085194 0.001312 0.039994
v -0.077151 0.000865 0.053132
v -0.065725 0.003060 0.068590
v -0.085426 0.022232 0.059697
v -0.095251 0.019762 0.040433
v -0.072189 0.021800 0.074591
v -0.075334 0.040768 0.078608
v -0.057203 0.025720 0.087944
v -0.051247 0.005622 0.081638
v -0.038052 0.022023 0.096416
v -0.018754 0.003819 0.093189
v -0.034775 0.003647 0.088417
v -0.021185 0.025768 0.102804
v 0.000406 0.024078 0.104312
v -0.001780 0.004985 0.095769
v 0.018232 0.002324 0.092498
v -0.000216 -0.013496 0.082612
v 0.015316 -0.014509 0.080112
v -0.014844 -0.013494 0.081167
v -0.011622 -0.028229 0.065864
v -0.005030 -0.040259 0.047345
v -0.027708 -0.029472 0.059299
v -0.029942 -0.013806 0.076732
v -0.043071 -0.015963 0.068171
v -0.043591 -0.029698 0.048470
v -0.021713 -0.040976 0.040893
v -0.038564 -0.041796 0.024108
v -0.042510 -0.042928 0.002169
v -0.021338 -0.048787 0.010739
v -0.010660 -0.048558 0.022052
v 0.005315 -0.047638 0.027873
v 0.001313 -0.051151 0.003918
v 0.001036 -0.050471 -0.015872
v -0.019283 -0.049644 -0.008426
v -0.022684 -0.045219 -0.030515
v -0.039520 -0.043243 -0.014751
v -0.029867 -0.036152 -0.048809
v 0.000547 -0.045685 -0.036821
v -0.007123 -0.036914 -0.055759
v -0.015475 -0.023311 -0.073275
v -0.101303 0.019992 0.021796
v -0.102967 0.017653 0.001772
v -0.101049 0.016237 -0.017472
v -0.095804 0.016201 -0.037047
v -0.086180 0.013514 -0.054115
vn 0.2877 -0.2031 0.9359
vn 0.2802 -0.2089 0.9369
vn 0.1212 -0.2046 0.9713
vn 0.0068 0.9991 -0.0428
vn 0.0830 -0.0983 0.9917
vn 0.0169 0.9997 -0.0182
vn -0.0017 0.9979 -0.0648
vn -0.0037 0.9980 -0.0632
vn 0.0011 0.9977 -0.0676
vn 0.0016 0.9978 -0.0668
vn -0.0050 0.9979 -0.0641
vn 0.0031 0.9977 -0.0676
vn -0.0010 0.9979 -0.0649
vn -0.0011 0.9979 -0.0646
vn -0.0004 0.9978 -0.0670
vn -0.0013 0.9979 -0.0646
vn -0.0003 0.9978 -0.0661
vn 0.0008 0.9973 -0.0729
vn -0.0008 0.9983 -0.0581
vn -0.0007 0.9982 -0.0606
vn -0.0042 0.9968 -0.0803
vn 0.4655 -0.2161 0.8583
vn 0.4511 -0.2026 0.8692
vn 0.0429 0.9987 -0.0257
vn 0.6036 -0.2137 0.7681
vn 0.0003 0.9978 -0.0665
vn -0.0008 0.9977 -0.0671
vn 0.0071 0.9981 -0.0620
vn 0.0083 0.9981 -0.0610
vn 0.0061 0.9978 -0.0655
vn -0.0005 0.9978 -0.0663
vn -0.0060 0.9978 -0.0656
vn 0.0038 0.9979 -0.0654
vn 0.0046 0.9977 -0.0670
vn 0.0008 0.9978 -0.0662
vn 0.4299 -0.4204 0.7990
vn 0.4202 -0.4064 0.8113
vn 0.5766 -0.4101 0.7067
vn 0.5571 -0.4250 0.7135
vn 0.6088 -0.2196 0.7623
vn 0.3768 -0.5652 0.7338
vn 0.4937 -0.5798 0.6481
vn 0.3216 -0.7264 0.6074
vn 0.3412 -0.5837 0.7368
vn 0.4988 -0.5897 0.6351
vn 0.3924 -0.7366 0.5508
vn 0.1959 -0.7572 0.6231
vn 0.2213 -0.8624 0.4553
vn 0.1611 -0.8363 0.5241
vn 0.4034 -0.7517 0.5218
vn 0.3163 -0.8487 0.4238
vn 0.5571 -0.7567 0.3422
vn 0.5080 -0.7291 0.4586
vn 0.5585 -0.7494 0.3557
vn 0.3452 -0.8714 0.3486
vn 0.4249 -0.8580 0.2888
vn 0.6119 -0.7564 0.2313
vn 0.6060 -0.7711 0.1956
vn 0.4467 -0.8781 0.1713
vn 0.4484 -0.8776 0.1697
vn 0.2836 -0.9468 0.1520
vn 0.2456 -0.9693 0.0089
vn 0.4777 -0.8783 0.0205
vn 0.4287 -0.9010 -0.0663
vn 0.2675 -0.9631 -0.0311
vn 0.2015 -0.9654 -0.1653
vn 0.3077 -0.9097 -0.2788
vn 0.3715 -0.8901 -0.2642
vn 0.4368 -0.8946 -0.0940
vn 0.4823 -0.8044 -0.3470
vn 0.5763 -0.7757 -0.2572
vn 0.4712 -0.8097 -0.3498
vn 0.6001 -0.7879 -0.1382
vn 0.6063 -0.7788 -0.1609
vn 0.7447 -0.6398 -0.1899
vn 0.7742 -0.6315 -0.0425
vn 0.6344 -0.7728 -0.0181
vn 0.7737 -0.6322 -0.0412
vn 0.7755 -0.6221 0.1074
vn 0.7717 -0.6257 0.1138
vn 0.6263 -0.7796 0.0047
vn 0.6445 -0.7574 0.1045
vn 0.7435 -0.6174 0.2571
vn 0.7447 -0.6128 0.2642
vn 0.8790 -0.4635 0.1118
vn 0.8803 -0.4602 0.1157
vn 0.8318 -0.4725 0.2913
vn 0.8490 -0.4543 0.2697
vn 0.9269 -0.2432 0.2859
vn 0.9192 -0.2542 0.3009
vn 0.9592 -0.2559 0.1205
vn 0.9577 -0.2675 0.1060
vn 0.7853 -0.4584 0.4161
vn 0.7827 -0.4282 0.4517
vn 0.8528 -0.2504 0.4583
vn 0.6947 -0.4353 0.5726
vn 0.6874 -0.4159 0.5954
vn 0.8467 -0.2337 0.4780
vn 0.7531 -0.2310 0.6161
vn 0.6200 -0.5905 0.5167
vn 0.6847 -0.6059 0.4051
vn 0.6848 -0.6095 0.3995
vn 0.8793 -0.4724 -0.0609
vn 0.8823 -0.4651 -0.0715
vn 0.9556 -0.2816 -0.0865
vn 0.9607 -0.2686 -0.0704
vn 0.9254 -0.2777 -0.2578
vn 0.9153 -0.2938 -0.2755
vn 0.8457 -0.4781 -0.2370
vn 0.8451 -0.4827 -0.2298
vn 0.7812 -0.4877 -0.3897
vn 0.8486 -0.2999 -0.4359
vn 0.7703 -0.4983 -0.3979
vn 0.8447 -0.2911 -0.4492
vn 0.6846 -0.4994 -0.5310
vn 0.7471 -0.3074 -0.5894
vn 0.7356 -0.3181 -0.5981
vn 0.6747 -0.5076 -0.5358
vn 0.5565 -0.5104 -0.6556
vn 0.5912 -0.3694 -0.7169
vn 0.6390 -0.3168 -0.7009
vn 0.4455 -0.3606 -0.8195
vn 0.3939 -0.4959 -0.7739
vn 0.4182 -0.5224 -0.7431
vn 0.5490 -0.5166 -0.6571
vn 0.3602 -0.6725 -0.6465
vn 0.4854 -0.6639 -0.5689
vn 0.2974 -0.8153 -0.4968
vn 0.4049 -0.7928 -0.4556
vn 0.2922 -0.8112 -0.5065
vn 0.3545 -0.6754 -0.6467
vn 0.4914 -0.6706 -0.5557
vn 0.1802 -0.7962 -0.5776
vn 0.2235 -0.6724 -0.7057
vn 0.0612 -0.6866 -0.7245
vn 0.0655 -0.8182 -0.5712
vn 0.0910 -0.6730 -0.7340
vn 0.2243 -0.6730 -0.7049
vn -0.0539 -0.6765 -0.7345
vn 0.0945 -0.5244 -0.8462
vn -0.0713 -0.5515 -0.8311
vn 0.0809 -0.5147 -0.8535
vn 0.0713 -0.3715 -0.9257
vn 0.2498 -0.5269 -0.8124
vn 0.2780 -0.5051 -0.8171
vn 0.2714 -0.3296 -0.9043
vn 0.1157 -0.3290 -0.9372
vn -0.0929 -0.3541 -0.9306
vn 0.0877 -0.2333 -0.9684
vn -0.0850 -0.2096 -0.9741
vn -0.1206 -0.3271 -0.9373
vn -0.1196 -0.5214 -0.8449
vn -0.2784 -0.3286 -0.9025
vn -0.2573 -0.5142 -0.8182
vn -0.2427 -0.5241 -0.8163
vn -0.4560 -0.3435 -0.8210
vn -0.4392 -0.3172 -0.8405
vn -0.4209 -0.5081 -0.7515
vn -0.4093 -0.5163 -0.7523
vn -0.2877 -0.3218 -0.9020
vn -0.3557 -0.6755 -0.6458
vn -0.3629 -0.6812 -0.6358
vn -0.5636 -0.5173 -0.6440
vn -0.4980 -0.6667 -0.5545
vn -0.5570 -0.5061 -0.6585
vn -0.4921 -0.6702 -0.5556
vn -0.5973 -0.6822 -0.4218
vn -0.5895 -0.6584 -0.4680
vn -0.5015 -0.7839 -0.3660
vn -0.4129 -0.8081 -0.4201
vn -0.5558 -0.7984 -0.2316
vn -0.6630 -0.6742 -0.3253
vn -0.5553 -0.8003 -0.2264
vn -0.6194 -0.7735 -0.1341
vn -0.6942 -0.6509 -0.3072
vn -0.7442 -0.6447 -0.1749
vn -0.7451 -0.6421 -0.1804
vn -0.6286 -0.7777 0.0018
vn -0.6181 -0.7860 -0.0101
vn -0.7736 -0.6329 -0.0323
vn -0.7716 -0.6355 -0.0268
vn -0.6508 -0.7506 0.1143
vn -0.7729 -0.6227 0.1217
vn -0.7368 -0.6215 0.2664
vn -0.7732 -0.6222 0.1224
vn -0.6007 -0.7647 0.2333
vn -0.5943 -0.7681 0.2385
vn -0.5623 -0.7363 0.3764
vn -0.6544 -0.6256 0.4248
vn -0.7396 -0.6077 0.2893
vn -0.6871 -0.6066 0.4000
vn -0.7725 -0.4399 0.4580
vn -0.6897 -0.4431 0.5727
vn -0.6145 -0.5785 0.5363
vn -0.7542 -0.2204 0.6185
vn -0.8455 -0.2313 0.4813
vn -0.7783 -0.4350 0.4527
vn -0.8505 -0.2454 0.4652
vn -0.7263 -0.2556 0.6381
vn -0.6824 -0.4257 0.5942
vn -0.7498 -0.1473 0.6450
vn -0.6378 -0.0882 0.7651
vn -0.6037 -0.2597 0.7537
vn -0.5797 -0.2099 0.7873
vn -0.5518 -0.3941 0.7350
vn -0.4345 -0.3843 0.8145
vn -0.4659 -0.2018 0.8615
vn -0.4305 -0.2290 0.8731
vn -0.2414 -0.4117 0.8788
vn -0.2544 -0.4238 0.8693
vn -0.3876 -0.4252 0.8179
vn -0.3029 -0.2184 0.9277
vn -0.1096 -0.4090 0.9059
vn -0.0861 -0.2359 0.9680
vn -0.0949 -0.3975 0.9127
vn -0.1170 -0.1989 0.9730
vn -0.2780 -0.1961 0.9404
vn 0.0927 -0.4155 0.9049
vn 0.0568 -0.5758 0.8156
vn -0.0829 -0.5826 0.8085
vn -0.0257 -0.7419 0.6700
vn 0.0645 -0.7193 0.6917
vn 0.0888 -0.6003 0.7949
vn -0.0801 -0.5807 0.8102
vn -0.0677 -0.7258 0.6846
vn -0.0260 -0.8425 0.5381
vn -0.1398 -0.8523 0.5039
vn -0.1796 -0.7273 0.6624
vn -0.2038 -0.7410 0.6398
vn -0.2165 -0.5894 0.7783
vn -0.2259 -0.5844 0.7794
vn -0.3675 -0.5855 0.7225
vn -0.2845 -0.7309 0.6204
vn -0.3715 -0.5887 0.7180
vn -0.3576 -0.7616 0.5404
vn -0.4359 -0.7328 0.5224
vn -0.5013 -0.6105 0.6132
vn -0.4817 -0.5879 0.6499
vn -0.2870 -0.8515 0.4388
vn -0.4938 -0.7620 0.4189
vn -0.3228 -0.8725 0.3667
vn -0.3790 -0.8576 0.3477
vn -0.4465 -0.8859 0.1260
vn -0.4718 -0.8600 0.1945
vn -0.3040 -0.9470 0.1035
vn -0.2097 -0.9435 0.2566
vn -0.2142 -0.9514 0.2214
vn -0.0689 -0.9388 0.3374
vn 0.0043 -0.9895 0.1444
vn -0.0760 -0.9929 0.0918
vn 0.1076 -0.9936 0.0351
vn 0.0657 -0.9888 0.1340
vn 0.0529 -0.9980 -0.0350
vn -0.0529 -0.9980 -0.0336
vn -0.0935 -0.9950 0.0345
vn -0.1056 -0.9780 -0.1797
vn -0.2545 -0.9550 -0.1521
vn -0.2719 -0.9622 0.0139
vn -0.2918 -0.9559 -0.0338
vn -0.3321 -0.9121 -0.2404
vn -0.4461 -0.8789 -0.1688
vn -0.4396 -0.8961 -0.0610
vn -0.0793 -0.9722 -0.2202
vn -0.3163 -0.8936 -0.3186
vn -0.1500 -0.9080 -0.3911
vn -0.1207 -0.9185 -0.3765
vn 0.0521 -0.8249 -0.5629
vn -0.0676 -0.8033 -0.5917
vn -0.1727 -0.8161 -0.5515
vn 0.0475 -0.8989 -0.4355
vn -0.1899 -0.8259 -0.5309
vn -0.2283 -0.6791 -0.6976
vn -0.0720 -0.6867 -0.7234
vn -0.2293 -0.6798 -0.6966
vn 0.0869 -0.9708 -0.2238
vn 0.1211 -0.9199 -0.3729
vn -0.3945 -0.8169 -0.4208
vn -0.3026 -0.8007 -0.5170
vn 0.1225 -0.9758 -0.1812
vn -0.0813 -0.9456 0.3152
vn 0.0282 -0.9297 0.3673
vn 0.1845 -0.9520 0.2442
vn 0.1398 -0.9354 0.3249
vn -0.4905 -0.8713 0.0148
vn -0.1518 -0.8596 0.4879
vn 0.0375 -0.8611 0.5070
vn 0.2133 -0.6027 0.7689
vn 0.1727 -0.7388 0.6514
vn 0.0914 -0.4164 0.9046
vn 0.2383 -0.4171 0.8771
vn 0.2502 -0.5823 0.7735
vn 0.0944 -0.2327 0.9680
vn -0.5646 -0.4219 0.7093
vn -0.8344 -0.4619 0.3007
vn -0.8547 -0.4421 0.2721
vn -0.9218 -0.2501 0.2963
vn -0.9209 -0.2445 0.3036
vn -0.8783 -0.4610 0.1269
vn -0.9591 -0.2560 0.1204
vn -0.9581 -0.2641 0.1105
vn -0.8776 -0.4772 -0.0469
vn -0.8793 -0.4733 -0.0528
vn -0.8776 -0.4628 0.1249
vn -0.9610 -0.2685 -0.0655
vn -0.9580 -0.2768 -0.0751
vn -0.8484 -0.4822 -0.2185
vn -0.8493 -0.4767 -0.2267
vn -0.9238 -0.2925 -0.2470
vn -0.9221 -0.2788 -0.2684
vn -0.7922 -0.4851 -0.3703
vn -0.8553 -0.2921 -0.4280
vn -0.8508 -0.2980 -0.4328
vn -0.6882 -0.5113 -0.5148
vn -0.7675 -0.5095 -0.3891
vn -0.7463 -0.3192 -0.5841
vn -0.6822 -0.5160 -0.5180
vn -0.7372 -0.3080 -0.6014
vn -0.6470 -0.3163 -0.6938
vn -0.6095 -0.3538 -0.7095
vn -0.6210 -0.1768 -0.7636
vn -0.4704 -0.2420 -0.8486
vn 0.2371 -0.8953 -0.3772
vn 0.2885 -0.3171 -0.9035
vn 0.4259 -0.3240 -0.8448
vn 0.6200 -0.2149 -0.7546
vn 0.4826 -0.2129 -0.8496
vn 0.5906 -0.6616 -0.4620
vn 0.6776 -0.6560 -0.3325
vn 0.6884 -0.6480 -0.3259
vn 0.5936 -0.6668 -0.4506
vn 0.7455 -0.6372 -0.1952
vn 0.2158 -0.9475 0.2359
vn 0.5980 -0.6028 0.5282
vn 0.7454 -0.2179 0.6300
vn 0.2672 -0.3946 0.8791
vn -0.0853 -0.1115 0.9901
s 0
usemtl Material.027
f 2//1 6//1 1//1
f 1//2 3//2 2//2
f 1//3 5//3 3//3
f 4//4 1//4 7//4
f 4//5 5//5 1//5
f 1//6 6//6 7//6
f 8//7 9//7 7//7
f 12//8 8//8 7//8
f 9//9 15//9 7//9
f 10//10 11//10 7//10
f 33//11 10//11 7//11
f 11//12 12//12 7//12
f 17//13 13//13 7//13
f 13//14 14//14 7//14
f 14//15 20//15 7//15
f 15//16 16//16 7//16
f 16//17 17//17 7//17
f 20//18 18//18 7//18
f 18//19 19//19 7//19
f 19//20 21//20 7//20
f 22//21 4//21 7//21
f 21//14 22//14 7//14
f 36//22 7//22 2//22
f 6//23 2//23 7//23
f 23//24 26//24 7//24
f 7//25 36//25 23//25
f 24//26 25//26 7//26
f 28//27 24//27 7//27
f 25//26 31//26 7//26
f 26//28 27//28 7//28
f 27//29 28//29 7//29
f 29//30 30//30 7//30
f 32//31 29//31 7//31
f 30//32 34//32 7//32
f 31//33 32//33 7//33
f 35//34 33//34 7//34
f 34//35 35//35 7//35
f 36//36 37//36 40//36
f 2//37 37//37 36//37
f 38//38 39//38 36//38
f 36//39 40//39 38//39
f 39//40 23//40 36//40
f 41//41 40//41 37//41
f 40//42 41//42 38//42
f 44//43 41//43 42//43
f 37//44 42//44 41//44
f 43//45 38//45 41//45
f 44//46 43//46 41//46
f 44//47 42//47 46//47
f 44//48 45//48 47//48
f 45//49 44//49 46//49
f 43//50 44//50 48//50
f 47//51 48//51 44//51
f 49//52 48//52 50//52
f 48//53 49//53 43//53
f 52//54 50//54 48//54
f 48//55 47//55 51//55
f 51//56 52//56 48//56
f 50//57 52//57 53//57
f 54//58 53//58 52//58
f 52//59 51//59 55//59
f 55//60 54//60 52//60
f 56//61 55//61 51//61
f 55//62 56//62 58//62
f 55//63 57//63 54//63
f 57//64 55//64 59//64
f 58//65 59//65 55//65
f 59//66 58//66 60//66
f 61//67 59//67 60//67
f 59//68 61//68 62//68
f 59//69 62//69 57//69
f 63//70 62//70 64//70
f 65//71 62//71 63//71
f 61//72 64//72 62//72
f 62//73 65//73 66//73
f 66//74 57//74 62//74
f 67//75 66//75 65//75
f 66//76 67//76 68//76
f 57//77 66//77 69//77
f 68//78 69//78 66//78
f 69//79 68//79 70//79
f 70//80 53//80 69//80
f 69//81 54//81 57//81
f 54//82 69//82 53//82
f 53//83 70//83 50//83
f 72//84 50//84 70//84
f 68//85 71//85 70//85
f 74//86 70//86 71//86
f 72//87 70//87 73//87
f 70//88 74//88 73//88
f 74//89 28//89 27//89
f 27//90 73//90 74//90
f 28//91 74//91 24//91
f 71//92 24//92 74//92
f 72//93 73//93 75//93
f 75//94 73//94 76//94
f 73//95 27//95 76//95
f 75//96 76//96 38//96
f 38//97 76//97 39//97
f 26//98 76//98 27//98
f 76//99 26//99 39//99
f 49//100 75//100 38//100
f 75//101 49//101 72//101
f 50//102 72//102 49//102
f 71//103 68//103 67//103
f 67//104 77//104 71//104
f 77//105 25//105 71//105
f 24//106 71//106 25//106
f 25//107 77//107 31//107
f 79//108 31//108 77//108
f 78//109 79//109 77//109
f 77//110 67//110 78//110
f 79//111 78//111 80//111
f 31//112 79//112 80//112
f 81//113 80//113 78//113
f 80//114 32//114 31//114
f 80//115 81//115 82//115
f 32//116 80//116 29//116
f 82//117 29//117 80//117
f 83//118 82//118 81//118
f 82//119 83//119 85//119
f 85//120 84//120 82//120
f 29//121 82//121 84//121
f 85//122 86//122 84//122
f 87//123 86//123 85//123
f 85//124 88//124 87//124
f 88//125 85//125 83//125
f 88//126 89//126 87//126
f 89//127 88//127 83//127
f 89//128 61//128 90//128
f 61//129 89//129 64//129
f 90//130 91//130 89//130
f 91//131 87//131 89//131
f 83//132 64//132 89//132
f 90//133 92//133 91//133
f 87//134 91//134 92//134
f 95//135 92//135 93//135
f 90//136 93//136 92//136
f 94//137 92//137 95//137
f 92//138 94//138 87//138
f 93//139 96//139 95//139
f 98//140 94//140 95//140
f 97//141 95//141 96//141
f 95//142 97//142 98//142
f 97//143 99//143 98//143
f 94//144 98//144 87//144
f 86//145 87//145 98//145
f 98//146 35//146 86//146
f 35//147 98//147 99//147
f 99//148 97//148 100//148
f 33//149 35//149 99//149
f 99//150 10//150 33//150
f 100//151 10//151 99//151
f 96//152 100//152 97//152
f 100//153 102//153 10//153
f 101//154 102//154 100//154
f 100//155 96//155 101//155
f 103//156 102//156 104//156
f 102//157 103//157 11//157
f 104//158 102//158 105//158
f 102//159 101//159 105//159
f 102//160 11//160 10//160
f 106//161 105//161 101//161
f 109//162 105//162 106//162
f 107//163 108//163 105//163
f 110//164 107//164 105//164
f 104//165 105//165 108//165
f 105//166 109//166 110//166
f 111//167 110//167 113//167
f 110//168 111//168 107//168
f 110//169 112//169 113//169
f 109//170 112//170 110//170
f 113//171 112//171 114//171
f 113//172 114//172 111//172
f 115//173 114//173 112//173
f 114//174 115//174 118//174
f 114//175 117//175 111//175
f 118//176 116//176 114//176
f 117//177 114//177 116//177
f 119//178 121//178 118//178
f 118//179 115//179 119//179
f 116//180 118//180 120//180
f 121//181 120//181 118//181
f 121//182 119//182 122//182
f 120//183 121//183 122//183
f 124//184 123//184 122//184
f 122//185 123//185 120//185
f 122//186 119//186 124//186
f 125//187 124//187 119//187
f 124//188 125//188 126//188
f 126//189 128//189 124//189
f 124//190 127//190 123//190
f 127//191 124//191 128//191
f 128//192 130//192 127//192
f 130//193 128//193 129//193
f 126//194 129//194 128//194
f 20//195 130//195 133//195
f 130//196 20//196 14//196
f 131//197 127//197 130//197
f 14//198 131//198 130//198
f 133//199 130//199 132//199
f 132//200 130//200 129//200
f 18//201 20//201 133//201
f 133//202 19//202 18//202
f 133//203 132//203 134//203
f 134//204 19//204 133//204
f 135//205 134//205 132//205
f 135//206 136//206 134//206
f 19//207 134//207 21//207
f 136//208 21//208 134//208
f 137//209 139//209 136//209
f 137//210 136//210 138//210
f 136//211 135//211 138//211
f 21//212 136//212 139//212
f 139//213 137//213 141//213
f 5//214 139//214 140//214
f 141//215 140//215 139//215
f 139//216 5//216 22//216
f 139//217 22//217 21//217
f 140//218 141//218 142//218
f 141//219 143//219 142//219
f 143//220 141//220 137//220
f 46//221 143//221 146//221
f 46//222 144//222 143//222
f 144//223 142//223 143//223
f 137//224 145//224 143//224
f 145//225 146//225 143//225
f 147//226 46//226 146//226
f 147//227 146//227 148//227
f 146//228 145//228 149//228
f 149//229 148//229 146//229
f 137//230 149//230 145//230
f 149//231 137//231 138//231
f 149//232 138//232 135//232
f 148//233 149//233 150//233
f 135//234 150//234 149//234
f 148//235 150//235 151//235
f 151//236 150//236 126//236
f 129//237 126//237 150//237
f 150//238 135//238 129//238
f 152//239 148//239 151//239
f 125//240 151//240 126//240
f 151//241 153//241 152//241
f 153//242 151//242 125//242
f 119//243 154//243 153//243
f 119//244 153//244 125//244
f 153//245 154//245 155//245
f 156//246 152//246 153//246
f 153//247 155//247 156//247
f 152//248 156//248 157//248
f 156//249 158//249 157//249
f 155//250 158//250 156//250
f 56//251 158//251 58//251
f 56//252 157//252 158//252
f 58//253 158//253 159//253
f 160//254 159//254 158//254
f 160//255 158//255 155//255
f 160//256 161//256 159//256
f 160//257 162//257 161//257
f 155//258 154//258 160//258
f 162//259 160//259 154//259
f 112//260 161//260 162//260
f 162//261 115//261 112//261
f 115//262 162//262 154//262
f 164//263 159//263 161//263
f 161//264 112//264 163//264
f 161//265 163//265 165//265
f 165//266 164//266 161//266
f 93//267 90//267 165//267
f 93//268 165//268 166//268
f 165//269 106//269 166//269
f 164//270 165//270 90//270
f 106//271 165//271 163//271
f 96//272 166//272 101//272
f 166//273 96//273 93//273
f 106//274 101//274 166//274
f 159//275 164//275 60//275
f 90//276 60//276 164//276
f 109//277 163//277 112//277
f 106//278 163//278 109//278
f 60//279 58//279 159//279
f 157//280 147//280 152//280
f 45//281 147//281 157//281
f 47//282 157//282 56//282
f 157//283 47//283 45//283
f 154//284 119//284 115//284
f 148//285 152//285 147//285
f 46//286 147//286 45//286
f 142//287 144//287 42//287
f 144//288 46//288 42//288
f 3//289 140//289 142//289
f 3//290 142//290 37//290
f 42//291 37//291 142//291
f 5//292 140//292 3//292
f 132//293 129//293 135//293
f 131//294 123//294 127//294
f 167//295 123//295 131//295
f 167//296 131//296 13//296
f 131//297 14//297 13//297
f 123//298 167//298 168//298
f 167//299 13//299 17//299
f 17//300 168//300 167//300
f 120//301 168//301 116//301
f 169//302 116//302 168//302
f 168//303 120//303 123//303
f 168//304 17//304 16//304
f 16//305 169//305 168//305
f 116//306 169//306 117//306
f 170//307 117//307 169//307
f 169//308 16//308 170//308
f 15//309 170//309 16//309
f 117//310 170//310 171//310
f 170//311 15//311 9//311
f 9//312 171//312 170//312
f 111//313 171//313 108//313
f 111//314 117//314 171//314
f 9//315 108//315 171//315
f 108//316 107//316 111//316
f 108//317 9//317 8//317
f 103//318 108//318 8//318
f 103//319 104//319 108//319
f 103//320 8//320 12//320
f 12//321 11//321 103//321
f 61//322 60//322 90//322
f 34//323 86//323 35//323
f 34//324 84//324 86//324
f 84//325 30//325 29//325
f 30//326 84//326 34//326
f 64//327 83//327 81//327
f 63//328 81//328 65//328
f 78//329 65//329 81//329
f 81//330 63//330 64//330
f 65//331 78//331 67//331
f 56//332 51//332 47//332
f 38//333 43//333 49//333
f 23//334 39//334 26//334
f 37//335 2//335 3//335
f 4//336 22//336 5//336
