# Blender 5.0.1
# www.blender.org
mtllib torso_y_link_visual_47.mtl
o i01.torso.full.050_visual.001
v -0.110983 -0.216975 -0.344430
v -0.079209 -0.136403 -0.284314
v -0.112688 -0.200023 -0.295120
v -0.070378 -0.139905 -0.330976
v -0.113948 -0.206168 -0.304708
v -0.120293 -0.218544 -0.307785
v -0.129968 -0.252390 -0.344612
v -0.107677 -0.242983 -0.407912
v -0.080267 -0.194400 -0.411132
v -0.178995 -0.231675 -0.408659
v -0.070806 -0.166469 -0.387131
v -0.066582 -0.163626 -0.413155
v -0.061985 -0.142797 -0.383840
v -0.059385 -0.140034 -0.414705
v -0.087976 -0.072427 -0.419159
v -0.066543 -0.091749 -0.417881
v -0.059415 -0.134178 -0.325474
v -0.010944 -0.086579 -0.418221
v -0.038955 -0.043838 -0.154251
v -0.038955 -0.061305 -0.419882
v -0.010944 -0.069112 -0.152595
v -0.059385 -0.116393 -0.055133
v -0.059385 -0.130340 -0.267270
v 0.105226 0.115271 -0.164708
v 0.133237 0.089996 -0.163050
v -0.059382 -0.125208 -0.189636
v -0.116700 -0.069709 -0.134747
v -0.121269 -0.061270 -0.077955
v -0.088298 -0.133027 -0.234657
v -0.110178 -0.079426 -0.192554
v -0.096181 -0.130214 -0.189289
v -0.166746 -0.259223 -0.180808
v -0.127519 -0.115363 -0.190232
v -0.128444 -0.091278 -0.132099
v -0.149346 -0.131768 -0.116035
v -0.194273 -0.223202 -0.133354
v -0.206926 -0.261820 -0.180634
v -0.242161 -0.269521 0.019876
v -0.192351 -0.321046 -0.176740
v -0.231278 -0.320940 -0.176717
v -0.212010 -0.325199 -0.239423
v -0.212778 -0.340397 -0.241328
v -0.247678 -0.310032 -0.041286
v -0.238536 -0.346592 -0.182320
v -0.248794 -0.365633 -0.147259
v -0.212991 -0.371834 -0.241459
v -0.187265 -0.376193 -0.307300
v -0.189920 -0.358567 -0.300467
v -0.222926 -0.376275 -0.308555
v -0.260772 -0.369956 -0.212432
v -0.247476 -0.360195 -0.246784
v -0.274570 -0.343679 -0.183664
v -0.284300 -0.365903 -0.150816
v -0.282703 -0.350775 -0.145395
v -0.301449 -0.356229 -0.003724
v -0.263627 -0.356600 -0.009343
v -0.270599 -0.353899 0.031325
v -0.278921 -0.349568 0.097607
v -0.275081 -0.325770 0.092628
v -0.260389 -0.302743 0.053199
v -0.254512 -0.260697 0.111325
v -0.286409 -0.289182 0.213179
v -0.330151 -0.310972 0.214613
v -0.252916 -0.208807 0.207903
v -0.292883 -0.316620 0.214978
v -0.324511 -0.285836 0.212962
v -0.276098 -0.202780 0.139778
v -0.309031 -0.299063 0.114134
v -0.285810 -0.261334 0.066617
v -0.256478 -0.109883 0.201391
v -0.213832 -0.208588 0.207893
v -0.109367 0.015712 0.193144
v -0.231454 -0.052246 0.197600
v -0.218390 -0.111785 0.060479
v -0.245112 -0.193949 0.017285
v -0.161479 -0.033558 -0.023290
v -0.259814 -0.198671 0.077321
v -0.176504 -0.032052 0.042056
v -0.210772 -0.011043 0.194888
v -0.155803 0.001609 0.032150
v -0.194808 0.016311 0.193095
v -0.148002 0.015685 0.193138
v -0.018039 0.013967 0.162751
v -0.107885 0.007018 0.029857
v -0.132743 0.035828 0.191809
v -0.166392 0.055220 0.190533
v -0.085091 0.043789 0.052732
v -0.095782 0.079061 0.188972
v -0.094705 0.064348 0.146548
v -0.047316 0.102669 0.114172
v 0.010504 0.132409 0.041262
v -0.024876 0.093790 0.021006
v -0.035905 0.137605 0.185116
v -0.062130 0.166332 0.183225
v -0.108925 0.120570 0.186235
v 0.009674 0.156454 0.116044
v 0.009240 0.174824 0.182674
v 0.000629 0.217313 0.179879
v 0.076265 0.271554 0.176308
v 0.009215 0.131828 0.185480
v 0.233919 0.314949 0.173457
v 0.233917 0.271375 0.176379
v 0.234153 0.208508 0.150165
v 0.136584 0.257959 0.296862
v 0.130513 0.251961 0.289843
v 0.121358 0.245574 0.287478
v 0.009176 0.137135 0.203629
v 0.232860 0.314906 0.308949
v 0.137522 0.261532 0.306173
v 0.134651 0.261963 0.312962
v 0.147092 0.299971 0.407941
v 0.232080 0.347234 0.404803
v 0.192440 0.326315 0.406208
v 0.232094 0.255225 0.410884
v 0.058433 0.240647 0.411842
v 0.094516 0.266380 0.410150
v 0.007497 0.110053 0.420431
v 0.121315 0.170953 0.346825
v 0.153948 0.188610 0.326783
v 0.121315 0.213541 0.344026
v 0.153948 0.212305 0.325225
v 0.153948 0.209832 0.287626
v 0.153930 0.181578 0.289470
v 0.121315 0.208596 0.268826
v 0.121315 0.157837 0.272161
v 0.009344 0.072002 0.177485
v 0.088682 0.209832 0.287626
v 0.088682 0.140516 0.292184
v 0.088684 0.146507 0.329554
v 0.088682 0.212305 0.325225
v 0.107644 0.211659 0.315407
v 0.114498 0.212037 0.321147
v 0.105182 0.211269 0.309477
v 0.106121 0.238970 0.298109
v 0.105182 0.241310 0.307502
v 0.106121 0.210644 0.299973
v 0.112192 0.210159 0.292591
v 0.112192 0.240572 0.290590
v 0.121351 0.209976 0.289817
v 0.130512 0.210159 0.292591
v 0.136584 0.210644 0.299973
v 0.137522 0.211269 0.309478
v 0.134810 0.211721 0.316353
v 0.124798 0.257826 0.319670
v 0.123615 0.212148 0.322860
v 0.114498 0.250359 0.318627
v 0.107636 0.244759 0.313218
v 0.008662 0.155476 0.268252
v 0.008119 0.175101 0.336433
v 0.007504 0.201630 0.414407
v 0.009674 0.069528 0.144209
v 0.010883 0.116162 -0.016686
v 0.234330 0.207302 0.127558
v 0.069158 0.163228 -0.019942
v 0.069815 0.149587 -0.072589
v 0.108252 0.182394 -0.053289
v 0.134063 0.207281 -0.022395
v 0.171896 0.228614 -0.024193
v 0.169218 0.219296 -0.058996
v 0.265804 0.262448 -0.082751
v 0.125780 0.189172 -0.075197
v 0.179979 0.147767 -0.072512
v 0.265904 0.232740 -0.080786
v 0.333922 0.267195 -0.047633
v 0.333924 0.283804 0.024179
v 0.265748 0.225688 -0.122354
v 0.265917 0.263798 0.044230
v 0.265814 0.271942 -0.039693
v 0.234860 0.280716 0.054638
v 0.235505 0.260572 -0.026264
v 0.265815 0.293106 0.042302
v 0.265813 0.331193 0.172384
v 0.265916 0.301764 0.174319
v 0.181697 0.333117 0.172260
v 0.236084 0.360603 0.170453
v 0.296176 0.343680 0.171563
v 0.290084 0.382194 0.169038
v 0.333927 0.347279 0.171022
v 0.333919 0.326794 0.172544
v 0.296831 0.374862 0.169516
v 0.296178 0.323615 0.110575
v 0.296176 0.292382 0.008732
v 0.296835 0.312121 -0.035179
v 0.333929 0.303875 0.021913
v 0.333924 0.285534 -0.059754
v 0.296177 0.271277 -0.078632
v 0.296826 0.243971 -0.439923
v 0.296180 0.222232 -0.372810
v 0.333924 0.238653 -0.354578
v 0.296176 0.213850 -0.437975
v 0.284340 0.250925 -0.440408
v 0.333924 0.229564 -0.439008
v 0.291132 0.252153 -0.440481
v 0.333924 0.209151 -0.437657
v 0.266173 0.175124 -0.435416
v 0.295259 0.250226 -0.440364
v 0.206820 0.213374 -0.437943
v 0.223039 0.233169 -0.355906
v 0.146297 0.178486 -0.435647
v 0.190589 0.211923 -0.382595
v 0.178468 0.122443 -0.431964
v 0.105226 0.097804 -0.430345
v 0.134706 0.130336 -0.432484
v 0.133237 0.072530 -0.428683
v 0.178651 0.124949 -0.396928
v 0.266023 0.182669 -0.375345
v 0.178632 0.128645 -0.340375
v 0.198380 0.142824 -0.327679
v 0.210514 0.150832 -0.332107
v 0.178651 0.131581 -0.296069
v 0.265911 0.187788 -0.341817
v 0.192929 0.140620 -0.311416
v 0.193335 0.140357 -0.319146
v 0.192757 0.188322 -0.319429
v 0.194689 0.187977 -0.325602
v 0.174401 0.205122 -0.333216
v 0.198838 0.187640 -0.330611
v 0.180009 0.204433 -0.342793
v 0.185701 0.214451 -0.349158
v 0.176205 0.210960 -0.337716
v 0.191309 0.203911 -0.352255
v 0.204739 0.187413 -0.333657
v 0.199140 0.220791 -0.356450
v 0.201906 0.203587 -0.355796
v 0.212739 0.203497 -0.356575
v 0.213629 0.228169 -0.358049
v 0.213145 0.187405 -0.334005
v 0.223675 0.203728 -0.353660
v 0.233251 0.204049 -0.348189
v 0.219943 0.187653 -0.330388
v 0.224058 0.187967 -0.325246
v 0.242341 0.204761 -0.337250
v 0.234278 0.240007 -0.349673
v 0.254057 0.249634 -0.351530
v 0.240590 0.244348 -0.342419
v 0.245655 0.248874 -0.332133
v 0.246954 0.251186 -0.322095
v 0.246859 0.205700 -0.323191
v 0.225710 0.188294 -0.319364
v 0.245605 0.206731 -0.308073
v 0.225136 0.188750 -0.313066
v 0.238330 0.207518 -0.294726
v 0.245448 0.252181 -0.311061
v 0.240590 0.251602 -0.300932
v 0.216917 0.247108 -0.264082
v 0.233715 0.249788 -0.292839
v 0.269003 0.272373 -0.256880
v 0.285137 0.287579 -0.204656
v 0.184714 0.270979 -0.053279
v 0.284488 0.257427 -0.387234
v 0.192938 0.245081 -0.205315
v 0.161358 0.228972 -0.196813
v 0.133034 0.246551 -0.037156
v 0.110379 0.209344 -0.138236
v 0.155500 0.211241 -0.273721
v 0.191842 0.229242 -0.286761
v 0.182608 0.222891 -0.293326
v 0.191157 0.208266 -0.285686
v 0.201908 0.208438 -0.282036
v 0.201887 0.235048 -0.283790
v 0.212824 0.208429 -0.281259
v 0.213622 0.241443 -0.283568
v 0.226782 0.208136 -0.285409
v 0.223678 0.246104 -0.286661
v 0.222075 0.189137 -0.307290
v 0.217098 0.189387 -0.303199
v 0.217062 0.158962 -0.300839
v 0.207855 0.189625 -0.301015
v 0.207337 0.152156 -0.298894
v 0.197909 0.189195 -0.305614
v 0.197990 0.144788 -0.302274
v 0.193516 0.188787 -0.312648
v 0.179706 0.207474 -0.295314
v 0.172873 0.206643 -0.308521
v 0.171664 0.212510 -0.314964
v 0.176188 0.217835 -0.301247
v 0.171655 0.205698 -0.322617
v 0.172279 0.210693 -0.326534
v 0.100350 0.170212 -0.300104
v 0.134706 0.152102 -0.101464
v 0.083553 0.198237 -0.104555
v 0.108707 0.153809 -0.434011
v 0.079290 0.215076 -0.025822
v 0.032379 0.180154 -0.023839
v 0.039551 0.166896 -0.102431
v -0.016482 0.140641 -0.022205
v -0.040872 0.100935 -0.098102
v -0.015851 0.127609 -0.074480
v -0.059721 0.099045 -0.026993
v -0.098743 0.087999 0.064815
v -0.046858 0.135676 0.053055
v -0.086581 0.071437 -0.030944
v -0.098842 0.043691 -0.094336
v -0.109710 0.044943 -0.034726
v -0.120023 0.058131 0.043950
v -0.139245 0.031571 0.038770
v -0.137721 0.089611 0.188264
v -0.136858 0.009059 -0.024630
v -0.133980 -0.008679 -0.090881
v -0.129951 -0.015222 -0.134211
v -0.066492 -0.069926 -0.086865
v -0.109555 -0.043866 -0.280338
v -0.182409 -0.179268 -0.282601
v -0.167377 -0.117909 -0.198103
v -0.148328 -0.141267 -0.337152
v -0.179847 -0.189227 -0.317715
v -0.178351 -0.182413 -0.307827
v -0.184482 -0.200960 -0.325801
v -0.193325 -0.225900 -0.346521
v -0.178907 -0.178924 -0.297318
v -0.165464 -0.180847 -0.304472
v -0.165555 -0.178605 -0.293625
v -0.143366 -0.199860 -0.293764
v -0.165395 -0.179339 -0.282869
v -0.165555 -0.183568 -0.272318
v -0.143465 -0.200437 -0.285682
v -0.115207 -0.200487 -0.284865
v -0.143391 -0.205131 -0.278845
v -0.165767 -0.189835 -0.264066
v -0.189003 -0.185803 -0.268620
v -0.194604 -0.193259 -0.261263
v -0.165555 -0.199533 -0.257359
v -0.201355 -0.203338 -0.255554
v -0.165388 -0.209071 -0.254049
v -0.165643 -0.224629 -0.254200
v -0.207458 -0.213778 -0.253551
v -0.143465 -0.219079 -0.274657
v -0.143442 -0.210456 -0.275620
v -0.122511 -0.210056 -0.275445
v -0.145351 -0.239792 -0.243859
v -0.129600 -0.222855 -0.275710
v -0.132217 -0.230220 -0.282329
v -0.143468 -0.226140 -0.277905
v -0.165556 -0.243758 -0.265291
v -0.143412 -0.230413 -0.282644
v -0.165583 -0.235009 -0.258493
v -0.213459 -0.225576 -0.254481
v -0.219023 -0.238551 -0.260582
v -0.222054 -0.235739 -0.239397
v -0.221058 -0.246099 -0.268207
v -0.221671 -0.251572 -0.277835
v -0.239219 -0.260685 -0.213690
v -0.165555 -0.250001 -0.274479
v -0.165532 -0.253624 -0.285463
v -0.143390 -0.232626 -0.288894
v -0.132479 -0.232684 -0.288878
v -0.130458 -0.232203 -0.296036
v -0.165450 -0.253021 -0.299963
v -0.143420 -0.232158 -0.295586
v -0.165393 -0.247327 -0.312757
v -0.143359 -0.229781 -0.300649
v -0.165555 -0.239154 -0.321044
v -0.201991 -0.232927 -0.324921
v -0.208250 -0.242568 -0.318309
v -0.165233 -0.230151 -0.326257
v -0.165514 -0.214750 -0.329022
v -0.195934 -0.223075 -0.328376
v -0.143434 -0.223967 -0.305861
v -0.126190 -0.227432 -0.303330
v -0.143517 -0.214594 -0.307830
v -0.165674 -0.200379 -0.325601
v -0.143425 -0.206696 -0.304709
v -0.165512 -0.187765 -0.316118
v -0.143451 -0.202067 -0.299824
v -0.189610 -0.211280 -0.328512
v -0.207292 -0.255345 -0.347821
v -0.215160 -0.250954 -0.306155
v -0.220114 -0.254059 -0.291895
v -0.220215 -0.288891 -0.349860
v -0.235147 -0.293585 -0.297318
v -0.249946 -0.298669 -0.237125
v -0.246847 -0.332071 -0.298472
v -0.231350 -0.326990 -0.351135
v -0.193057 -0.346130 -0.401146
v -0.225411 -0.356143 -0.301824
v -0.214104 -0.322565 -0.402703
v -0.162838 -0.335881 -0.401830
v -0.200577 -0.280612 -0.405449
v -0.143019 -0.335861 -0.401832
v -0.127033 -0.286390 -0.405065
v -0.146758 -0.294763 -0.348231
v -0.158233 -0.332359 -0.348322
v -0.175654 -0.327469 -0.273905
v -0.160532 -0.282107 -0.269998
v -0.183947 -0.331861 -0.339768
v -0.198928 -0.335531 -0.297108
v -0.174363 -0.352928 -0.351577
v -0.170180 -0.373229 -0.353613
v -0.154229 -0.370522 -0.399549
v -0.157569 -0.349079 -0.400960
v -0.160165 -0.382184 -0.398767
v -0.189550 -0.369093 -0.399629
v -0.195572 -0.382194 -0.398741
v -0.261054 -0.337178 -0.242684
v -0.260949 -0.300412 -0.180770
v -0.269890 -0.273324 -0.054984
v -0.285109 -0.297962 -0.016026
v -0.296142 -0.331320 -0.004785
v -0.312055 -0.322033 0.091313
v -0.333929 -0.341741 0.216637
v -0.296555 -0.341741 0.216640
v -0.257110 -0.239922 -0.041409
v -0.189166 -0.163777 -0.209517
v -0.009213 0.192116 0.117013
v 0.018138 0.179478 0.008728
v 0.054739 0.211013 0.017996
v 0.081136 0.231261 0.025024
v 0.123366 0.251120 -0.001425
v 0.127564 0.261300 0.032992
v 0.167233 0.304792 0.105493
v 0.190828 0.292032 0.014553
v 0.236833 0.319865 0.035761
v 0.235377 0.306257 -0.014470
v 0.197659 0.281333 -0.035378
v 0.255111 0.300966 -0.063294
v 0.290237 0.311716 -0.071936
v 0.295194 0.308830 -0.075411
v 0.290357 0.332151 0.009924
v 0.291234 0.261041 -0.370307
v 0.295373 0.329484 0.009103
v 0.295253 0.363229 0.119247
v 0.290157 0.368794 0.129553
v 0.295263 0.380096 0.169175
v 0.295279 0.257595 -0.380535
v 0.265917 0.196879 -0.288972
v 0.265751 0.202426 -0.256893
v 0.178587 0.135168 -0.240100
v 0.226039 0.163437 -0.317574
v 0.223785 0.162632 -0.308100
v 0.333924 0.224161 -0.315531
v 0.333923 0.215212 -0.379550
v 0.333922 0.243732 -0.190818
v 0.265917 0.218583 -0.163004
v 0.265898 0.213363 -0.191627
v 0.178651 0.141448 -0.146008
v 0.178651 0.138826 -0.185897
v 0.178651 0.144366 -0.101639
v 0.220682 0.158174 -0.328040
v 0.013466 0.105045 -0.069698
v -0.024585 0.071672 -0.067468
v -0.072671 0.024710 -0.064398
v -0.053201 0.054119 -0.024045
v -0.078686 0.025080 -0.031038
v -0.093840 0.006185 -0.015927
v -0.112584 -0.021446 -0.014488
v -0.112978 -0.036497 -0.060387
v -0.122079 -0.054450 -0.059199
v -0.135879 -0.067419 -0.011638
v -0.123077 -0.210811 0.173143
v -0.161562 -0.132565 -0.045143
v -0.208045 -0.218508 -0.006423
v -0.214087 -0.236123 -0.049643
v -0.197973 -0.210232 -0.060927
v -0.224407 -0.216228 0.073489
v -0.227318 -0.239831 0.019661
v -0.122848 -0.195477 0.440274
v -0.070019 -0.090757 0.288509
v -0.085171 -0.122083 0.309450
v -0.085021 -0.119611 0.347051
v -0.138020 -0.090757 0.288509
v -0.138020 -0.122083 0.309451
v -0.138020 -0.119611 0.347051
v -0.138020 -0.085812 0.363710
v -0.138020 -0.103143 0.333252
v -0.138020 -0.099226 0.338355
v -0.138020 -0.104810 0.327039
v -0.194966 -0.104431 0.330304
v -0.191801 -0.103161 0.318106
v -0.138020 -0.102557 0.317061
v -0.187308 -0.095653 0.311173
v -0.138020 -0.095653 0.311173
v -0.183937 -0.088130 0.309396
v -0.138020 -0.087373 0.309425
v -0.181048 -0.080025 0.311759
v -0.138020 -0.080025 0.311759
v -0.179968 -0.075281 0.315919
v -0.138020 -0.056957 0.305168
v -0.138020 -0.073424 0.318591
v -0.138020 -0.072306 0.330761
v -0.180566 -0.071612 0.325479
v -0.148296 0.025565 0.363256
v -0.191788 -0.034289 0.429919
v -0.174893 -0.001587 0.427772
v -0.183565 -0.074079 0.334199
v -0.138020 -0.078319 0.339035
v -0.209122 -0.071698 0.432384
v -0.186429 -0.078319 0.339035
v -0.138020 -0.085239 0.342217
v -0.190371 -0.085979 0.342343
v -0.138020 -0.093655 0.341571
v -0.193208 -0.093655 0.341571
v -0.194698 -0.099226 0.338355
v -0.229444 -0.122343 0.435710
v -0.238845 -0.149009 0.437463
v -0.253771 -0.194927 0.440482
v -0.240016 -0.200078 0.351557
v -0.017891 0.028945 0.424974
v -0.054567 -0.054485 0.342768
v -0.069719 -0.085812 0.363710
v -0.157063 0.029183 0.425741
v -0.138020 -0.054485 0.342769
v -0.054717 -0.056958 0.305168
vn 0.8526 -0.4837 0.1977
vn 0.8538 -0.4825 0.1954
vn 0.8563 -0.4786 0.1941
vn 0.8452 -0.4846 0.2252
vn 0.8521 -0.4855 0.1957
vn 0.8632 -0.4638 0.1995
vn 0.8566 -0.4604 0.2332
vn 0.8531 -0.4657 0.2352
vn -0.0003 -0.0655 -0.9979
vn -0.0000 -0.0661 -0.9978
vn 0.8515 -0.4765 0.2189
vn 0.9113 -0.3984 0.1044
vn -0.0002 -0.0655 -0.9979
vn 0.9561 -0.2880 0.0547
vn 0.9261 -0.3605 0.1109
vn -0.0001 -0.0658 -0.9978
vn 0.0004 -0.0656 -0.9978
vn -0.0000 -0.0656 -0.9978
vn 0.7417 -0.6692 0.0442
vn 0.8792 -0.4754 0.0315
vn 0.6707 0.7401 -0.0487
vn 0.7416 -0.6694 0.0440
vn 0.7416 -0.6694 0.0439
vn 0.7417 -0.6693 0.0440
vn 0.7415 -0.6695 0.0442
vn 0.7420 -0.6690 0.0437
vn -0.0001 -0.0655 -0.9979
vn -0.0000 -0.0655 -0.9979
vn -0.6658 -0.7440 0.0570
vn -0.6702 -0.7405 0.0489
vn -0.6742 -0.7369 0.0483
vn 0.1648 -0.9842 0.0651
vn 0.1351 -0.9872 0.0847
vn 0.0007 0.0643 0.9979
vn 0.8680 -0.4630 0.1795
vn 0.0008 0.0651 0.9979
vn 0.0004 0.0643 0.9979
vn 0.8706 -0.4495 0.2001
vn 0.9014 -0.3948 0.1779
vn 0.8916 -0.4192 0.1711
vn 0.0001 0.0653 0.9979
vn 0.8746 -0.4592 0.1558
vn 0.8737 -0.4642 0.1453
vn 0.0001 0.0656 0.9978
vn 0.8794 -0.4559 0.1370
vn 0.9180 -0.3684 0.1472
vn 0.0008 0.0658 0.9978
vn 0.9508 -0.0854 0.2979
vn -0.0027 -0.9978 0.0669
vn 0.8788 -0.3250 0.3495
vn 0.9446 -0.2975 0.1384
vn 0.9307 -0.3380 0.1399
vn 0.9293 0.1335 0.3444
vn 0.9536 -0.2707 0.1320
vn 0.9168 -0.0079 0.3994
vn 0.9314 -0.0008 0.3640
vn -0.0000 -0.9978 0.0661
vn 0.9319 -0.0078 0.3626
vn 0.0008 -0.9978 0.0659
vn 0.0009 -0.9978 0.0660
vn -0.9307 -0.0177 -0.3653
vn -0.9232 -0.0713 -0.3776
vn -0.9311 -0.1074 -0.3485
vn 0.0010 -0.9978 0.0660
vn -0.9705 0.1654 -0.1756
vn -0.9812 0.1481 -0.1241
vn -0.0000 -0.9978 0.0656
vn 0.0010 -0.9979 0.0655
vn 0.9619 -0.2069 0.1786
vn 0.0001 -0.9978 0.0663
vn 0.9615 -0.2473 0.1196
vn 0.9826 -0.1309 0.1319
vn 0.0011 -0.9979 0.0653
vn 0.9430 -0.2708 0.1932
vn 0.9558 -0.2541 0.1482
vn 0.9228 -0.3544 0.1515
vn 0.9389 -0.2948 0.1777
vn 0.9240 -0.3481 0.1584
vn 0.9092 -0.3755 0.1797
vn 0.0001 0.0654 0.9979
vn 0.0001 0.0655 0.9979
vn 0.9635 -0.2171 0.1564
vn 0.9117 -0.3679 0.1826
vn -0.9146 0.3392 -0.2201
vn -0.9103 0.3736 -0.1782
vn -0.9245 0.3309 -0.1891
vn -0.9626 0.2043 -0.1781
vn -0.0002 0.0657 0.9978
vn -0.0001 0.0657 0.9978
vn -0.8947 0.3722 -0.2469
vn -0.9012 0.3551 -0.2484
vn -0.9001 0.3924 -0.1895
vn -0.8863 0.4057 -0.2233
vn -0.8844 0.4154 -0.2129
vn -0.8688 0.4187 -0.2645
vn -0.8979 0.3876 -0.2086
vn -0.8794 0.4036 -0.2527
vn -0.8555 0.4514 -0.2539
vn -0.8437 0.4761 -0.2480
vn -0.0000 0.0654 0.9979
vn -0.0002 0.0658 0.9978
vn -0.0007 0.9982 -0.0595
vn 0.0009 0.9986 -0.0528
vn -0.0000 0.0659 0.9978
vn 0.7840 -0.5792 0.2234
vn -0.0000 0.0657 0.9978
vn -0.0001 0.0655 0.9979
vn 0.7592 -0.6107 0.2252
vn 0.7371 -0.6404 0.2159
vn 0.7464 -0.6227 0.2349
vn 0.7059 -0.6634 0.2480
vn 0.7000 -0.6792 0.2206
vn 0.6561 -0.7199 0.2266
vn 0.6663 -0.7059 0.2404
vn 0.6881 -0.6887 0.2285
vn 0.6908 -0.6849 0.2317
vn -0.0001 0.0656 0.9978
vn -0.0000 0.0658 0.9978
vn 0.6286 -0.7487 0.2105
vn 0.6562 -0.7162 0.2376
vn -0.0000 0.0651 0.9979
vn -1.0000 0.0001 -0.0066
vn -0.0008 0.0669 0.9978
vn 1.0000 0.0005 0.0079
vn 1.0000 0.0005 0.0078
vn -0.4625 0.8413 -0.2799
vn -0.4779 0.8277 -0.2939
vn -0.4900 0.8159 -0.3070
vn -0.5127 0.7901 -0.3359
vn -0.5191 0.8201 -0.2410
vn -0.4633 0.8420 -0.2764
vn -0.4672 0.8476 -0.2514
vn -0.4648 0.8414 -0.2758
vn -0.4879 0.8201 -0.2990
vn 1.0000 0.0007 0.0079
vn -0.4549 0.8427 -0.2879
vn -0.0000 0.0656 0.9978
vn 0.0006 0.0659 0.9978
vn 0.5410 -0.8271 0.1525
vn 0.5411 -0.8271 0.1524
vn 0.5411 -0.8271 0.1523
vn -0.5000 -0.0568 -0.8642
vn -1.0000 -0.0000 -0.0000
vn -1.0000 0.0007 0.0004
vn 0.5456 -0.8236 0.1550
vn -0.5000 0.0567 0.8642
vn -0.5000 0.0568 0.8642
vn 0.5311 -0.8349 0.1444
vn 0.5281 -0.8383 0.1355
vn 0.5263 -0.8390 0.1383
vn 0.5000 0.0568 0.8642
vn 0.5001 0.0568 0.8641
vn 0.5283 -0.8382 0.1353
vn 1.0000 -0.0000 -0.0000
vn 0.5273 -0.8390 0.1345
vn 0.5000 -0.0568 -0.8642
vn 0.5404 -0.8278 0.1507
vn 0.9952 0.0064 0.0978
vn 0.9239 -0.0251 -0.3819
vn 0.7730 0.0416 0.6331
vn 0.2905 0.0628 0.9548
vn -0.2904 0.0628 0.9548
vn 0.2900 0.0627 0.9550
vn -0.7730 0.0416 0.6331
vn -0.9952 0.0064 0.0978
vn -0.7730 0.0416 0.6330
vn -0.9305 -0.0240 -0.3655
vn -0.5033 -0.0472 -0.8628
vn -0.5450 -0.0582 -0.8364
vn -0.9213 -0.0291 -0.3878
vn 0.0001 -0.9978 0.0657
vn 0.1850 -0.0645 -0.9806
vn 0.1525 -0.0728 -0.9856
vn -0.0001 -0.9978 0.0656
vn 0.6432 -0.0502 -0.7640
vn -0.4846 0.8375 -0.2524
vn -0.5496 0.7942 -0.2590
vn -0.5697 0.7823 -0.2516
vn -0.5535 0.7966 -0.2430
vn 0.9240 -0.0250 -0.3816
vn 0.6429 -0.0504 -0.7643
vn -0.5182 0.8153 -0.2584
vn -0.5284 0.8103 -0.2534
vn -0.5679 0.7684 -0.2949
vn -0.5893 0.7760 -0.2249
vn -0.5339 0.7885 -0.3054
vn -1.0000 0.0007 -0.0081
vn -1.0000 -0.0005 -0.0078
vn -0.5925 0.7729 -0.2272
vn -1.0000 0.0001 -0.0076
vn -0.5953 0.7637 -0.2497
vn -0.5959 0.7588 -0.2629
vn -1.0000 -0.0004 -0.0077
vn -0.5952 0.7597 -0.2619
vn 0.5239 -0.8491 0.0683
vn -1.0000 -0.0019 -0.0016
vn -1.0000 -0.0008 -0.0098
vn 0.6059 -0.7653 -0.2173
vn -1.0000 0.0017 -0.0070
vn -1.0000 -0.0014 -0.0089
vn 0.5248 -0.8498 0.0494
vn 0.4835 -0.8241 -0.2952
vn 0.5704 -0.7934 0.2127
vn 0.6220 -0.7561 0.2037
vn 0.5565 -0.8095 0.1872
vn 0.5179 -0.7823 -0.3462
vn 0.4567 -0.8356 -0.3053
vn 0.4891 -0.8512 0.1903
vn 0.5197 -0.8231 0.2289
vn 0.4403 -0.8752 0.2005
vn 0.4516 -0.8288 0.3304
vn 0.5221 -0.8380 0.1584
vn 0.0003 0.0654 0.9979
vn 0.0004 0.0653 0.9979
vn 0.0140 0.0829 0.9965
vn 0.5710 -0.7933 0.2114
vn 0.0192 0.0661 0.9976
vn 0.7040 -0.7006 0.1162
vn 0.3582 -0.9096 0.2104
vn 0.3863 -0.9096 0.1529
vn 0.3359 -0.9141 0.2271
vn -1.0000 -0.0033 0.0010
vn -1.0000 -0.0032 0.0009
vn -1.0000 -0.0034 0.0009
vn 0.4379 -0.8705 0.2247
vn 0.4271 -0.8766 0.2217
vn 0.4397 -0.8579 0.2660
vn 0.4371 -0.8783 0.1936
vn 0.4444 -0.8597 0.2517
vn -1.0000 -0.0034 0.0010
vn 0.4460 -0.8591 0.2510
vn 0.0005 0.0655 0.9979
vn -0.0946 0.9456 -0.3111
vn 0.0072 0.0740 0.9972
vn 0.0026 0.0637 0.9980
vn 0.9998 -0.0206 0.0068
vn 0.9998 -0.0198 0.0061
vn -0.1854 0.9395 -0.2881
vn 0.9998 -0.0197 0.0061
vn -0.1526 0.9489 -0.2762
vn 1.0000 -0.0002 0.0001
vn 1.0000 -0.0002 -0.0000
vn 1.0000 -0.0001 -0.0000
vn -0.2507 0.9445 -0.2121
vn -0.2092 0.9505 -0.2296
vn 1.0000 -0.0004 0.0001
vn 0.9998 -0.0196 0.0033
vn 0.9998 -0.0217 0.0052
vn -0.2788 0.9473 -0.1579
vn -0.3335 0.9310 -0.1480
vn -0.3469 0.9302 -0.1196
vn 0.9998 -0.0214 0.0027
vn 0.0010 -0.0652 -0.9979
vn -0.3848 0.9177 -0.0988
vn 0.0002 -0.0660 -0.9978
vn 0.0211 -0.0650 -0.9977
vn -0.0023 -0.0656 -0.9978
vn 0.0002 -0.0661 -0.9978
vn -0.0000 -0.0659 -0.9978
vn -0.4356 0.8909 -0.1288
vn -0.4752 0.8721 -0.1165
vn -0.4991 0.8577 -0.1239
vn 0.0002 -0.0657 -0.9978
vn 0.7417 -0.6692 0.0440
vn 0.5157 -0.8548 0.0584
vn 0.5295 -0.8415 0.1070
vn 0.5409 -0.8393 0.0550
vn 0.5460 -0.8338 0.0818
vn 0.5622 -0.8256 0.0475
vn 0.5607 -0.8262 0.0548
vn 0.5748 -0.8165 0.0539
vn 0.5579 -0.8201 0.1271
vn 0.5697 -0.8198 0.0577
vn 0.9545 0.0133 0.2980
vn 0.9986 0.0123 0.0520
vn 0.8540 0.0460 0.5182
vn 0.6060 0.7819 0.1459
vn 0.5597 0.7829 0.2715
vn 0.4873 0.8001 0.3498
vn 0.7708 0.0337 0.6361
vn 0.6407 0.1181 0.7586
vn 0.7748 -0.0392 0.6310
vn 0.8607 0.1161 0.4957
vn 0.4139 0.7910 0.4506
vn 0.4782 -0.0036 0.8782
vn 0.2930 0.8104 0.5073
vn 0.2112 0.8019 0.5589
vn 0.3181 0.0871 0.9440
vn 0.0721 0.0495 0.9962
vn 0.0489 0.8095 0.5851
vn 0.0810 0.0565 0.9951
vn -0.2583 0.0669 0.9637
vn -0.1700 0.8009 0.5741
vn 0.0248 0.8142 0.5801
vn -0.2559 0.0680 0.9643
vn -0.4967 0.0554 0.8662
vn -0.3136 0.8063 0.5016
vn -0.5074 0.0500 0.8602
vn -0.3025 0.8030 0.5135
vn -0.5014 0.7900 0.3529
vn -0.4931 0.7928 0.3581
vn -0.7698 0.0483 0.6365
vn -0.4441 0.8806 -0.1653
vn -0.4440 0.8846 -0.1430
vn -0.7679 0.0494 0.6386
vn -0.9000 0.0171 0.4357
vn -0.4537 0.8763 -0.1622
vn -0.9917 -0.0010 0.1285
vn -0.4272 0.8916 -0.1501
vn -0.9521 0.0363 0.3036
vn -0.6432 0.7584 -0.1051
vn -0.6129 0.7767 0.1451
vn -0.9965 0.0041 -0.0829
vn -0.6400 0.7600 -0.1133
vn -0.5673 0.7439 -0.3531
vn -0.8784 -0.0222 -0.4775
vn -0.9909 -0.0122 -0.1341
vn -0.9005 -0.0316 -0.4337
vn -0.4135 0.8970 -0.1562
vn -0.4357 0.8835 -0.1721
vn -0.7551 -0.0533 -0.6535
vn -0.4206 0.8947 -0.1506
vn -0.3768 0.9141 -0.1497
vn -0.3772 0.9140 -0.1496
vn -0.4166 0.8984 -0.1390
vn -0.4350 0.8835 -0.1740
vn -0.4131 0.8979 -0.1520
vn -0.4390 0.8875 -0.1399
vn -0.4834 0.8592 -0.1676
vn -0.4840 0.8579 -0.1723
vn -0.4741 0.8661 -0.1581
vn -0.5312 0.8267 -0.1853
vn -0.4654 0.8670 -0.1780
vn -0.5067 0.8478 -0.1569
vn -0.4840 0.8601 -0.1614
vn -0.4476 0.8732 -0.1930
vn -0.4826 0.8620 -0.1551
vn 0.6057 -0.0605 -0.7934
vn 0.3218 -0.0590 -0.9450
vn 0.3160 -0.0622 -0.9467
vn -0.4688 0.8663 -0.1726
vn 0.0708 -0.0655 -0.9953
vn 0.0575 -0.0711 -0.9958
vn -0.4580 0.8714 -0.1759
vn -0.2707 -0.0538 -0.9612
vn -0.2857 -0.0600 -0.9565
vn -0.4292 0.8875 -0.1680
vn -0.5042 -0.0696 -0.8608
vn -0.6287 -0.0340 -0.7769
vn -0.4118 0.7301 -0.5453
vn -0.4036 0.7321 -0.5488
vn -0.1824 0.7247 -0.6645
vn -0.6357 -0.0589 -0.7697
vn -0.2311 -0.0749 -0.9700
vn -0.1381 0.7345 -0.6644
vn -0.1597 -0.0536 -0.9857
vn 0.3793 -0.0575 -0.9235
vn 0.2556 0.7403 -0.6218
vn 0.4212 -0.0673 -0.9045
vn 0.2105 0.7265 -0.6542
vn 0.0501 0.7171 -0.6952
vn 0.5864 -0.8006 0.1236
vn 0.5749 -0.8164 0.0540
vn 0.8485 -0.0382 -0.5278
vn 0.8791 -0.0229 -0.4762
vn 0.6350 0.7626 -0.1233
vn 0.9938 -0.0149 -0.1102
vn 0.5392 0.7513 -0.3804
vn 0.5741 0.7431 -0.3438
vn 0.9904 0.1024 -0.0924
vn 0.9558 -0.1047 -0.2746
vn 0.8866 0.0370 -0.4610
vn 0.6416 0.7597 -0.1064
vn 0.9664 0.0726 0.2464
vn 0.6204 0.7752 0.1186
vn 0.9952 -0.0738 0.0644
vn -0.5314 0.8283 -0.1774
vn -0.4785 0.8632 -0.1610
vn -0.5269 0.8359 -0.1538
vn -0.0765 0.9971 -0.0031
vn 0.9431 -0.0369 0.3303
vn -0.5039 0.8556 -0.1186
vn -0.6712 -0.7397 0.0486
vn -0.6706 -0.7403 0.0485
vn -0.6709 -0.7399 0.0488
vn -0.5359 0.8276 -0.1669
vn -0.5466 0.8210 -0.1646
vn -0.5478 0.8256 -0.1353
vn -0.0005 -0.0654 -0.9979
vn -0.0003 -0.0672 -0.9977
vn -0.5788 0.7904 -0.2004
vn -0.5906 0.7820 -0.1992
vn -0.5759 0.7959 -0.1868
vn -0.6309 0.7510 -0.1948
vn -0.6217 0.7611 -0.1851
vn -0.6291 0.7548 -0.1860
vn -0.6702 0.7182 -0.1871
vn -0.6498 0.7446 -0.1525
vn -0.6870 0.6962 -0.2082
vn -0.6861 0.6972 -0.2077
vn -0.6634 0.7150 -0.2206
vn -0.6949 0.6998 -0.1656
vn -0.7345 0.6623 -0.1478
vn -0.6980 0.6957 -0.1695
vn -0.7226 0.6601 -0.2054
vn -0.7233 0.6591 -0.2059
vn -0.7743 0.5997 -0.2020
vn -0.7664 0.5996 -0.2305
vn -0.7554 0.6148 -0.2267
vn -0.7081 0.6668 -0.2323
vn -0.0002 0.0660 0.9978
vn -0.0003 0.0657 0.9978
vn -0.7193 0.6536 -0.2356
vn -0.8242 0.5099 -0.2463
vn -0.7931 0.5641 -0.2298
vn -0.8348 0.5082 -0.2119
vn -0.8065 0.5470 -0.2246
vn -0.8084 0.5667 -0.1593
vn -0.8477 0.4829 -0.2195
vn -0.8558 0.4891 -0.1681
vn -0.8223 0.5398 -0.1802
vn -0.8453 0.5111 -0.1558
vn 0.6728 0.7382 -0.0489
vn -0.0002 -0.0657 -0.9978
vn -0.7417 0.6693 -0.0440
vn 0.6690 0.7417 -0.0490
vn 0.6735 0.7375 -0.0506
vn 0.6704 0.7405 -0.0481
vn -0.8509 0.4726 -0.2295
vn -0.8697 0.4471 -0.2090
vn -0.8591 0.4658 -0.2122
vn -0.8639 0.4680 -0.1861
vn -0.8540 0.4783 -0.2046
vn -0.8540 0.4797 -0.2013
vn -0.8543 0.4780 -0.2039
vn -0.8535 0.4770 -0.2099
vn -0.8461 0.4763 -0.2394
vn -0.8511 0.4889 -0.1911
vn -0.8512 0.4713 -0.2308
vn 0.0328 -0.9480 0.3165
vn -0.0325 -0.9788 0.2021
vn 0.0285 -0.9995 -0.0166
vn -0.6913 -0.7215 -0.0390
vn -0.6843 -0.7153 0.1421
vn -0.0052 -0.9977 -0.0680
vn -0.0097 -0.9281 -0.3722
vn -0.6839 -0.6735 -0.2804
vn -0.6960 -0.7155 -0.0596
vn 0.0149 -0.8242 -0.5660
vn 0.0003 -0.9975 -0.0712
vn -0.6978 -0.5617 -0.4445
vn -0.6834 -0.6053 -0.4082
vn -0.0196 -0.7960 -0.6050
vn 0.0155 -0.7081 -0.7059
vn -0.0124 -0.5690 -0.8223
vn -0.6830 -0.4255 -0.5937
vn 0.0092 -0.4974 -0.8675
vn -0.0127 -0.3280 -0.9446
vn -0.7061 -0.2431 -0.6651
vn 0.0101 -0.1942 -0.9809
vn -0.0130 0.0099 -0.9999
vn -0.6804 0.0183 -0.7326
vn -0.7014 -0.0772 -0.7086
vn -0.6592 -0.3850 -0.6460
vn 0.0104 -0.1109 -0.9938
vn 0.0170 -0.5181 -0.8551
vn 0.8605 -0.4801 0.1702
vn 0.8174 -0.5739 0.0507
vn -0.0428 -0.6841 -0.7281
vn -0.0609 0.0544 -0.9967
vn 0.8653 -0.4683 0.1789
vn -0.0438 0.6763 -0.7353
vn 0.0448 0.4175 -0.9076
vn 0.0060 0.7426 -0.6697
vn -0.6977 0.5279 -0.4843
vn -0.6848 0.4458 -0.5765
vn -0.6944 0.3010 -0.6536
vn -0.0021 0.3822 -0.9241
vn 0.0074 0.4229 -0.9062
vn -0.0098 0.6135 -0.7896
vn -0.6882 0.2739 -0.6718
vn -0.8869 0.4241 -0.1832
vn -0.8686 0.4596 -0.1853
vn 0.0071 0.7097 -0.7044
vn -0.8877 0.4226 -0.1826
vn 0.0052 0.8692 -0.4944
vn -0.8882 0.4215 -0.1831
vn -0.0054 0.8271 -0.5620
vn -0.6883 0.6885 -0.2285
vn -0.0078 0.9496 -0.3133
vn -0.6915 0.6802 -0.2433
vn -0.6845 0.6030 -0.4097
vn 0.0052 0.9976 0.0685
vn 0.0055 0.9427 -0.3337
vn -0.6857 0.7274 0.0264
vn 0.0058 0.9976 0.0697
vn -0.6922 0.7197 0.0534
vn 0.0179 0.9050 0.4251
vn -0.7212 0.4861 0.4935
vn -0.6875 0.6646 0.2927
vn -0.6087 0.7210 0.3311
vn 0.0080 0.5620 0.8271
vn -0.0064 0.5013 0.8653
vn -0.0119 0.7118 0.7023
vn -0.7083 0.3725 0.5996
vn -0.6958 0.1146 0.7090
vn -0.0273 0.1762 0.9840
vn 0.0098 0.3256 0.9455
vn -0.6646 0.4940 0.5606
vn -0.6872 0.1434 0.7122
vn 0.0249 0.6676 0.7441
vn -0.0359 0.4667 0.8837
vn 0.0331 0.2057 0.9781
vn -0.6993 -0.2555 0.6676
vn -0.6823 -0.1765 0.7095
vn -0.0396 -0.2219 0.9743
vn 0.0065 -0.3675 0.9300
vn -0.6788 -0.4357 0.5912
vn 0.0130 -0.7258 0.6877
vn -0.6993 -0.5208 0.4896
vn 0.0101 -0.9396 0.3421
vn -0.0270 -0.8400 0.5419
vn -0.6552 -0.7068 0.2667
vn -0.7025 -0.6106 0.3656
vn -0.0285 -0.8594 0.5106
vn 0.0212 -0.8247 0.5651
vn -0.0278 -0.6004 0.7992
vn -0.0032 -0.2317 0.9728
vn 0.0089 -0.5698 0.8217
vn -0.0322 0.8450 0.5338
vn 0.8628 -0.4638 0.2014
vn 0.8598 -0.4680 0.2043
vn -0.8645 0.4627 -0.1963
vn -0.8651 0.4616 -0.1963
vn 0.0212 0.0002 0.9998
vn -0.8514 0.4791 -0.2133
vn -0.0151 -0.2471 0.9689
vn -0.8799 0.4236 -0.2152
vn -0.8791 0.4264 -0.2131
vn -0.8821 0.4212 -0.2110
vn 0.0165 0.8186 0.5742
vn -0.8775 0.4306 -0.2111
vn 0.0135 0.9760 0.2172
vn -0.0126 0.9135 0.4065
vn -0.9007 0.3731 -0.2226
vn -0.9066 0.3624 -0.2162
vn -0.9086 0.3717 -0.1905
vn 0.0125 0.9849 -0.1728
vn -0.8767 0.4476 -0.1762
vn -0.0128 0.9991 0.0415
vn -0.9347 0.2903 -0.2053
vn -0.9073 0.3744 -0.1914
vn -0.9298 0.2798 -0.2392
vn -0.9257 0.2887 -0.2445
vn -0.7067 -0.6430 -0.2950
vn -0.7039 -0.6479 -0.2910
vn -0.9180 0.2778 -0.2832
vn -0.7365 -0.6174 -0.2763
vn -0.0002 -0.0661 -0.9978
vn -0.0000 -0.0653 -0.9979
vn -0.9181 0.2775 -0.2830
vn -0.0000 -0.0654 -0.9979
vn 0.0001 -0.0652 -0.9979
vn -0.8950 0.3607 -0.2625
vn 0.0001 -0.0655 -0.9979
vn -0.8880 0.3741 -0.2675
vn 0.9192 -0.2789 0.2780
vn 0.8915 -0.3750 0.2542
vn 0.8889 -0.3795 0.2566
vn 0.9182 -0.2809 0.2794
vn 0.9292 -0.2842 0.2362
vn 0.9208 -0.3255 0.2148
vn 0.9005 -0.3756 0.2193
vn 0.9282 -0.3250 0.1810
vn 0.8833 -0.4309 0.1845
vn 0.8832 -0.4283 0.1912
vn 0.8891 -0.4245 0.1709
vn 0.9159 -0.3689 0.1585
vn 0.0003 -0.9978 0.0660
vn 0.0007 -0.9978 0.0665
vn 0.0027 -0.9978 0.0662
vn 0.8715 -0.4088 0.2709
vn 0.9131 0.2249 0.3400
vn 0.9209 0.2526 0.2969
vn 0.0025 -0.9979 0.0655
vn 0.9387 0.1630 0.3037
vn 0.9298 0.1583 0.3322
vn 0.8708 0.3691 0.3249
vn 0.9004 0.3072 0.3080
vn 0.9295 0.1664 0.3291
vn -0.0002 -0.0659 -0.9978
vn 0.8641 -0.4214 0.2752
vn -0.0005 -0.0667 -0.9978
vn -0.0004 -0.0660 -0.9978
vn -0.9330 -0.1637 -0.3204
vn -0.9389 -0.0008 -0.3442
vn -0.0007 -0.0673 -0.9977
vn -0.8766 0.3832 -0.2910
vn -0.0000 -0.9979 0.0655
vn 0.0003 -0.9979 0.0655
vn 0.8376 -0.4697 0.2789
vn 0.9380 0.0070 0.3465
vn 0.9691 -0.0783 0.2338
vn 0.9127 0.3198 0.2545
vn 0.0010 -0.9978 0.0656
vn -0.9284 0.0096 -0.3715
vn -0.7263 -0.6001 -0.3353
vn -0.9310 0.2988 -0.2097
vn -0.8515 -0.4562 -0.2586
vn -0.9392 0.2960 -0.1742
vn -0.9347 0.3063 -0.1803
vn -0.8534 -0.4596 -0.2460
vn -0.9264 0.3492 -0.1410
vn -0.9139 0.3785 -0.1465
vn -0.9412 0.3059 -0.1433
vn -0.9412 0.3064 -0.1426
vn -0.9168 0.3624 -0.1678
vn -0.9310 0.3308 -0.1545
vn -0.9536 0.2720 -0.1288
vn -0.9510 0.2564 -0.1726
vn -0.9193 0.3568 -0.1659
vn -0.9340 0.3060 -0.1842
vn -0.9719 0.2019 -0.1208
vn -0.9638 0.1977 -0.1787
vn -0.9819 0.1104 -0.1540
vn -0.9436 0.2874 -0.1643
vn -0.9811 0.1194 -0.1525
vn 0.9791 -0.1330 0.1538
vn 0.0002 0.0660 0.9978
vn -0.8991 0.4082 -0.1580
vn -0.9037 0.4037 -0.1425
vn -0.8763 0.4589 -0.1463
vn -0.8856 0.4359 -0.1604
vn -0.8914 0.4269 -0.1522
vn -0.8772 0.4591 -0.1402
vn -0.8669 0.4678 -0.1725
vn -0.8614 0.4750 -0.1801
vn -0.8632 0.4723 -0.1784
vn -0.8588 0.4793 -0.1810
vn -0.8710 0.4580 -0.1776
vn -0.8767 0.4552 -0.1557
vn -0.8728 0.4246 -0.2407
vn 0.8519 -0.4805 0.2083
vn -0.0063 0.9360 -0.3519
vn 0.8427 -0.5142 0.1598
vn -0.8657 0.4766 -0.1531
vn -0.8695 0.4571 -0.1874
vn 0.0044 0.0765 -0.9971
vn 0.8615 -0.4757 0.1774
vn 0.8670 -0.4760 0.1475
vn 0.0212 -0.9095 -0.4151
vn 0.8556 -0.4822 0.1884
vn 0.8554 -0.4821 0.1893
vn -0.0074 -0.9989 -0.0470
vn -0.8906 0.4206 -0.1729
vn -0.8831 0.4335 -0.1794
vn -0.6857 0.6866 -0.2417
vn -0.6408 0.7384 -0.2099
vn -0.6521 0.7163 -0.2483
vn -0.6550 0.7147 -0.2452
vn -0.6863 0.6859 -0.2420
vn -0.6135 0.7482 -0.2527
vn -0.5965 0.7643 -0.2450
vn -0.5980 0.7647 -0.2403
vn -0.5842 0.7702 -0.2559
vn -0.5515 0.8005 -0.2348
vn -0.5750 0.7872 -0.2228
vn -0.5784 0.7844 -0.2239
vn -0.5527 0.8007 -0.2311
vn -0.5319 0.8123 -0.2393
vn -0.5111 0.8392 -0.1859
vn -0.4985 0.8336 -0.2381
vn -0.4802 0.8429 -0.2429
vn -0.4900 0.8393 -0.2354
vn -0.4741 0.8584 -0.1960
vn -0.4227 0.8759 -0.2326
vn -0.4263 0.8761 -0.2250
vn -0.4362 0.8658 -0.2452
vn -0.4594 0.8535 -0.2458
vn -0.4248 0.8655 -0.2655
vn -0.4085 0.8865 -0.2173
vn -0.4423 0.8771 -0.1874
vn -0.3242 0.9328 -0.1572
vn -0.4066 0.8974 -0.1714
vn -0.3368 0.9118 -0.2349
vn 0.4162 0.8967 -0.1509
vn 0.3701 0.9022 -0.2213
vn 0.4298 0.8759 -0.2193
vn -0.3301 0.9159 -0.2282
vn -0.2730 0.9483 -0.1620
vn 0.4183 0.8686 -0.2657
vn 0.9712 0.2310 -0.0585
vn 0.9108 0.3949 -0.1200
vn 0.9275 0.3575 -0.1096
vn 0.4131 0.8709 -0.2661
vn 0.3612 0.8834 -0.2985
vn 0.9553 0.2801 -0.0948
vn 0.3651 0.8818 -0.2986
vn -0.0002 0.0649 0.9979
vn -0.3431 0.8985 -0.2737
vn -0.3396 0.8992 -0.2760
vn -0.3609 0.8829 -0.3003
vn -0.1199 0.9796 -0.1614
vn 0.3885 0.9088 -0.1525
vn 0.4650 0.8782 -0.1119
vn -0.2121 0.9695 -0.1225
vn 0.9204 0.3855 -0.0645
vn 0.4232 0.8992 -0.1109
vn 0.9701 0.2408 -0.0300
vn -0.3252 0.9151 -0.2385
vn 0.9025 0.4248 -0.0715
vn -0.4497 0.8531 -0.2645
vn -0.4422 0.8578 -0.2619
vn -0.4958 0.8329 -0.2459
vn -0.4746 0.8478 -0.2368
vn -0.5280 0.8126 -0.2468
vn -0.6237 0.7544 -0.2047
vn -0.5256 0.8298 -0.1877
vn 0.7970 -0.0727 -0.5996
vn -0.4838 0.8609 -0.1574
vn -0.4949 0.8526 -0.1677
vn 0.6443 -0.0227 -0.7644
vn 0.4142 0.7236 -0.5521
vn 0.5862 -0.7984 0.1378
vn 0.5862 -0.7984 0.1375
vn 0.4198 -0.8940 0.1568
vn 0.6215 -0.7714 0.1366
vn 0.5859 -0.7984 0.1389
vn 0.5956 -0.8016 0.0520
vn 0.6075 -0.7906 0.0774
vn 0.5762 -0.8055 0.1385
vn 0.4191 -0.8948 0.1539
vn 0.4299 -0.8942 0.1250
vn 0.4091 -0.9015 0.1415
vn 0.4015 -0.9034 0.1505
vn 0.3991 -0.9029 0.1595
vn 0.4005 -0.9015 0.1641
vn 0.3900 -0.9087 0.1489
vn 0.6708 -0.7297 0.1326
vn 0.6506 -0.7578 0.0498
vn 0.6492 -0.7504 0.1243
vn 0.6164 -0.7857 0.0523
vn 0.7418 -0.6692 0.0443
vn 0.6668 -0.7436 0.0489
vn 0.6929 -0.7098 0.1269
vn 0.6882 -0.7236 0.0531
vn 0.7415 -0.6695 0.0444
vn 0.4493 -0.8885 0.0927
vn 0.4350 -0.8899 0.1373
vn 0.4351 -0.8932 0.1133
vn -0.7269 -0.0260 -0.6863
vn -0.9730 0.0064 -0.2309
vn -0.8840 -0.0428 -0.4656
vn -0.9007 0.0617 0.4300
vn 0.5689 -0.8139 0.1181
vn -0.9958 -0.0196 -0.0893
vn -0.9628 0.0067 0.2700
vn -0.4706 0.0583 0.8804
vn -0.7814 0.0301 0.6234
vn -0.4177 0.0771 0.9053
vn 0.5627 -0.8229 0.0786
vn 0.7414 -0.6697 0.0438
vn -0.5690 0.7434 -0.3514
vn -0.4012 0.9045 -0.1445
vn -0.4405 0.8787 -0.1837
vn -0.1780 0.9768 -0.1189
vn -0.4127 0.9042 -0.1094
vn -0.6222 0.7716 0.1318
vn 0.0414 0.0488 0.9979
vn -0.4283 0.8848 -0.1836
vn -0.4616 0.8750 -0.1458
vn -0.4821 0.8655 -0.1359
vn 0.4596 0.0533 0.8865
vn 0.2908 0.0863 0.9529
vn -0.6707 -0.7401 0.0487
vn 0.3394 -0.9035 0.2618
vn 0.3429 -0.9018 0.2632
vn 0.4215 -0.8579 -0.2939
vn 1.0000 0.0006 0.0078
vn 0.7418 -0.6692 0.0441
vn -0.0009 0.0659 0.9978
vn 0.6148 -0.7654 0.1905
vn 0.0013 0.0652 0.9979
vn 0.6541 -0.7334 0.1855
vn 0.6543 -0.7331 0.1856
vn -0.0003 0.0655 0.9979
vn 0.6936 -0.6988 0.1746
vn 0.6952 -0.6968 0.1765
vn 0.7275 -0.6719 0.1386
vn 0.6845 -0.7040 0.1896
vn 0.7107 -0.6730 0.2047
vn 0.8275 -0.5396 0.1552
vn 0.7754 -0.6011 0.1935
vn 0.8447 -0.4635 0.2676
vn 0.7800 -0.5451 -0.3072
vn -0.0347 0.9990 -0.0288
vn 0.8193 -0.5468 0.1723
vn 0.8295 -0.5359 0.1574
vn 0.8872 -0.4407 0.1369
vn 0.0003 0.0658 0.9978
vn -0.0002 0.0655 0.9979
vn -0.6928 -0.6868 0.2198
vn 0.9188 -0.3566 0.1693
vn 0.8870 -0.4410 0.1371
vn 0.8337 -0.4068 -0.3735
vn 0.8258 -0.4403 -0.3525
vn 0.8311 -0.4100 -0.3757
vn 0.8890 -0.4306 0.1559
vn 0.8958 -0.4232 0.1361
vn 0.8064 -0.5784 0.1230
vn 0.8619 -0.5001 0.0833
vn 0.8932 -0.4388 0.0984
vn 0.0211 -0.9992 0.0328
vn 0.8310 -0.5246 0.1851
vn 0.8854 -0.4416 0.1454
vn 0.8831 -0.4403 0.1618
vn 0.8742 -0.4603 0.1546
vn 0.8833 -0.4189 0.2105
vn -0.0007 -0.9985 0.0550
vn 0.8837 -0.4442 0.1473
vn 0.8663 -0.4822 0.1306
vn 0.8806 -0.4567 0.1268
vn 0.8813 -0.4517 0.1389
vn 0.8886 -0.4340 0.1482
vn 0.0056 -0.9969 0.0784
vn -0.0025 -0.9984 0.0573
vn 0.9058 -0.4231 0.0235
vn 0.9061 -0.4224 0.0228
vn 0.9060 -0.4227 0.0232
vn -0.0000 0.9978 -0.0656
vn 0.9062 -0.4222 0.0242
vn -0.0000 0.5557 0.8314
vn -0.0000 0.5558 0.8313
vn -0.0000 0.4421 -0.8970
vn -0.0084 0.9658 -0.2590
vn 0.0127 0.9942 0.1068
vn -0.0067 0.9754 0.2202
vn 0.0067 0.6762 0.7367
vn -0.0000 0.6489 0.7609
vn -0.0040 0.2065 0.9784
vn -0.0000 0.2299 0.9732
vn -0.0000 -0.3027 0.9531
vn 0.0040 -0.2812 0.9596
vn -0.0000 -0.6593 0.7519
vn -0.0124 -0.7191 0.6948
vn -0.0276 -0.9954 0.0915
vn 0.0184 -0.9330 0.3593
vn 0.0174 -0.9636 -0.2667
vn -0.8895 0.4052 -0.2112
vn -0.8944 0.3853 -0.2270
vn -0.9003 0.3809 -0.2108
vn -0.9153 0.3380 -0.2191
vn -0.8673 0.4318 -0.2475
vn -0.0129 -0.8089 -0.5879
vn -0.0000 -0.7519 -0.6593
vn -0.9098 0.3351 -0.2449
vn -0.8867 0.3950 -0.2404
vn -0.0000 -0.4179 -0.9085
vn 0.0034 -0.3980 -0.9174
vn -0.9011 0.3581 -0.2445
vn -0.0035 0.0766 -0.9971
vn -0.0000 0.1001 -0.9950
vn -0.9012 0.3578 -0.2444
vn -0.0000 0.4999 -0.8661
vn -0.8905 0.3813 -0.2482
vn -0.0000 0.7933 -0.6089
vn 0.0091 0.8396 -0.5431
vn -0.8914 0.3935 -0.2247
vn -0.9061 0.3478 -0.2408
vn 0.0018 0.0649 0.9979
vn 0.0017 0.0648 0.9979
vn -0.9186 0.3075 -0.2482
vn 0.0019 0.0650 0.9979
vn -0.9414 0.2953 -0.1627
vn -0.9014 0.3774 -0.2121
vn -0.0041 -0.9984 0.0572
vn -0.0049 -0.9983 0.0582
vn -0.9040 0.3841 -0.1875
vn 0.0038 0.0662 0.9978
vn 0.0054 0.0633 0.9980
vn 0.9064 -0.4217 0.0236
vn 0.0001 0.9984 -0.0570
vn 0.0013 0.9983 -0.0575
vn 0.0014 0.9983 -0.0576
vn 0.0056 0.0626 0.9980
vn 0.0056 0.0627 0.9980
vn -0.8598 0.4884 -0.1489
vn 0.9062 -0.4222 0.0241
vn -0.0000 -0.5558 -0.8313
vn -0.0000 -0.4421 0.8970
vn 0.9069 -0.4207 0.0240
vn 0.9064 -0.4218 0.0233
vn -0.8918 0.3956 -0.2196
vn -0.8939 0.3854 -0.2291
vn -0.8909 0.4009 -0.2134
vn -0.9137 0.3694 -0.1692
vn -0.9083 0.3777 -0.1797
vn -0.9004 0.3899 -0.1930
vn 0.6655 -0.7175 0.2055
vn -0.9999 -0.0066 -0.0090
vn -0.8593 0.4671 -0.2083
vn -0.8955 0.4036 -0.1876
vn -0.8910 0.4048 -0.2057
vn 0.9803 -0.1264 0.1521
vn 0.9005 -0.4199 0.1134
vn 0.8768 -0.4604 0.1390
vn 0.2079 -0.9726 0.1042
vn 0.2414 -0.9683 0.0637
vn 0.4140 -0.9030 0.1151
vn 0.4006 -0.9049 0.1437
vn 0.9164 -0.3645 0.1654
s 0
usemtl Material.030
f 1//1 4//1 2//1
f 1//2 2//2 3//2
f 1//3 3//3 5//3
f 4//4 1//4 9//4
f 1//5 5//5 6//5
f 7//6 1//6 6//6
f 1//7 7//7 8//7
f 8//8 9//8 1//8
f 12//9 9//9 10//9
f 9//10 8//10 10//10
f 9//11 11//11 4//11
f 9//12 12//12 11//12
f 14//13 12//13 10//13
f 12//14 14//14 13//14
f 13//15 11//15 12//15
f 14//16 10//16 15//16
f 14//17 15//17 16//17
f 14//18 16//18 18//18
f 17//19 14//19 18//19
f 13//20 14//20 17//20
f 20//21 19//21 18//21
f 19//21 21//21 18//21
f 18//18 16//18 20//18
f 18//22 21//22 17//22
f 21//23 22//23 26//23
f 25//24 22//24 21//24
f 21//25 26//25 23//25
f 21//26 23//26 17//26
f 19//27 24//27 21//27
f 24//28 25//28 21//28
f 26//29 28//29 27//29
f 26//30 27//30 30//30
f 22//31 28//31 26//31
f 29//32 23//32 26//32
f 31//33 29//33 26//33
f 31//34 26//34 30//34
f 31//35 32//35 29//35
f 32//36 31//36 33//36
f 33//37 31//37 30//37
f 27//38 34//38 33//38
f 34//39 35//39 33//39
f 33//40 30//40 27//40
f 37//41 32//41 33//41
f 35//42 36//42 33//42
f 36//43 37//43 33//43
f 39//44 32//44 37//44
f 37//45 36//45 38//45
f 40//46 37//46 38//46
f 40//47 39//47 37//47
f 42//48 41//48 40//48
f 39//49 40//49 41//49
f 40//50 44//50 42//50
f 44//51 40//51 43//51
f 38//52 43//52 40//52
f 45//53 46//53 44//53
f 43//54 45//54 44//54
f 46//55 42//55 44//55
f 47//56 48//56 46//56
f 47//57 46//57 49//57
f 42//58 46//58 48//58
f 46//59 50//59 49//59
f 46//60 45//60 50//60
f 49//61 50//61 51//61
f 51//62 50//62 52//62
f 52//63 50//63 53//63
f 45//64 53//64 50//64
f 53//65 54//65 52//65
f 54//66 53//66 55//66
f 56//67 55//67 53//67
f 45//68 56//68 53//68
f 56//69 43//69 57//69
f 56//70 57//70 55//70
f 43//71 56//71 45//71
f 59//72 58//72 57//72
f 57//73 58//73 55//73
f 60//74 59//74 57//74
f 60//75 57//75 43//75
f 38//76 60//76 43//76
f 59//77 60//77 62//77
f 60//78 38//78 61//78
f 61//79 62//79 60//79
f 63//80 65//80 62//80
f 63//81 62//81 66//81
f 62//82 65//82 59//82
f 62//83 61//83 64//83
f 66//81 62//81 64//81
f 67//84 66//84 70//84
f 66//85 67//85 69//85
f 68//86 66//86 69//86
f 63//87 66//87 68//87
f 66//88 64//88 70//88
f 64//89 71//89 70//89
f 71//89 72//89 70//89
f 72//89 73//89 70//89
f 74//90 70//90 73//90
f 67//91 70//91 74//91
f 75//92 77//92 74//92
f 74//93 76//93 75//93
f 78//94 76//94 74//94
f 74//95 73//95 79//95
f 77//96 67//96 74//96
f 79//97 78//97 74//97
f 78//98 79//98 80//98
f 80//99 79//99 81//99
f 81//100 79//100 82//100
f 82//101 79//101 73//101
f 72//102 83//102 82//102
f 82//101 73//101 72//101
f 83//103 84//103 82//103
f 81//104 82//104 85//104
f 84//105 85//105 82//105
f 81//106 85//106 86//106
f 86//107 85//107 88//107
f 84//108 87//108 85//108
f 85//109 87//109 89//109
f 85//110 89//110 88//110
f 88//111 89//111 90//111
f 90//112 89//112 87//112
f 92//113 91//113 90//113
f 90//114 91//114 93//114
f 90//115 93//115 88//115
f 90//116 87//116 92//116
f 93//117 97//117 94//117
f 95//106 93//106 94//106
f 88//118 93//118 95//118
f 97//119 93//119 96//119
f 91//120 96//120 93//120
f 94//117 97//117 98//117
f 98//106 97//106 99//106
f 97//106 101//106 99//106
f 97//121 100//121 102//121
f 100//122 97//122 96//122
f 102//123 101//123 97//123
f 102//124 103//124 101//124
f 102//125 108//125 103//125
f 102//126 104//126 108//126
f 104//127 102//127 105//127
f 105//128 102//128 106//128
f 107//129 106//129 102//129
f 102//130 100//130 107//130
f 103//125 108//125 114//125
f 104//131 109//131 108//131
f 108//132 109//132 110//132
f 111//133 108//133 110//133
f 113//134 108//134 111//134
f 108//135 112//135 114//135
f 108//136 113//136 112//136
f 116//137 115//137 114//137
f 114//137 115//137 117//137
f 116//137 114//137 111//137
f 111//137 114//137 113//137
f 113//138 114//138 112//138
f 103//139 114//139 119//139
f 117//140 118//140 114//140
f 118//141 119//141 114//141
f 120//142 121//142 119//142
f 119//142 118//142 120//142
f 119//143 121//143 122//143
f 122//144 123//144 119//144
f 123//145 103//145 119//145
f 123//146 122//146 124//146
f 123//147 124//147 125//147
f 103//148 123//148 125//148
f 126//149 125//149 128//149
f 126//150 103//150 125//150
f 125//151 124//151 127//151
f 127//152 128//152 125//152
f 126//153 128//153 117//153
f 129//154 128//154 127//154
f 128//155 129//155 117//155
f 127//154 130//154 129//154
f 118//156 129//156 130//156
f 129//157 118//157 117//157
f 131//67 130//67 133//67
f 132//67 130//67 131//67
f 120//67 130//67 132//67
f 130//156 120//156 118//156
f 130//67 127//67 133//67
f 133//158 136//158 134//158
f 134//158 135//158 133//158
f 131//159 133//159 135//159
f 136//67 133//67 127//67
f 134//160 136//160 137//160
f 137//67 136//67 127//67
f 137//160 138//160 134//160
f 138//161 137//161 139//161
f 124//67 139//67 137//67
f 127//67 124//67 137//67
f 106//162 139//162 140//162
f 139//163 106//163 138//163
f 139//67 124//67 140//67
f 124//67 122//67 140//67
f 122//67 141//67 140//67
f 105//164 140//164 141//164
f 140//162 105//162 106//162
f 104//165 141//165 142//165
f 122//67 142//67 141//67
f 141//166 104//166 105//166
f 142//165 109//165 104//165
f 109//167 142//167 143//167
f 121//67 143//67 142//67
f 122//67 121//67 142//67
f 143//168 145//168 144//168
f 144//169 110//169 143//169
f 143//170 110//170 109//170
f 120//171 145//171 143//171
f 121//67 120//67 143//67
f 145//172 132//172 146//172
f 146//173 144//173 145//173
f 145//174 120//174 132//174
f 147//175 146//175 132//175
f 147//176 116//176 146//176
f 146//177 116//177 144//177
f 116//178 147//178 115//178
f 135//179 115//179 147//179
f 135//180 147//180 131//180
f 132//181 131//181 147//181
f 144//182 111//182 110//182
f 144//183 116//183 111//183
f 134//184 138//184 148//184
f 148//185 138//185 107//185
f 138//186 106//186 107//186
f 126//187 148//187 107//187
f 148//188 117//188 149//188
f 149//189 134//189 148//189
f 117//190 148//190 126//190
f 149//191 135//191 134//191
f 150//192 135//192 149//192
f 149//193 117//193 150//193
f 150//137 117//137 115//137
f 115//194 135//194 150//194
f 103//195 126//195 151//195
f 126//196 107//196 100//196
f 126//197 100//197 151//197
f 151//198 152//198 154//198
f 151//199 91//199 152//199
f 100//200 91//200 151//200
f 151//201 153//201 103//201
f 151//202 154//202 153//202
f 155//203 156//203 154//203
f 155//204 154//204 152//204
f 154//205 156//205 157//205
f 153//206 154//206 157//206
f 153//207 157//207 158//207
f 158//208 157//208 159//208
f 159//209 157//209 156//209
f 159//210 160//210 158//210
f 161//211 160//211 159//211
f 156//212 161//212 159//212
f 22//213 161//213 155//213
f 162//214 161//214 22//214
f 163//215 161//215 162//215
f 156//216 155//216 161//216
f 161//217 163//217 160//217
f 166//218 163//218 162//218
f 163//219 164//219 165//219
f 163//220 166//220 164//220
f 165//221 167//221 163//221
f 163//222 168//222 160//222
f 168//223 163//223 167//223
f 167//224 171//224 168//224
f 169//225 168//225 171//225
f 170//226 168//226 169//226
f 158//227 168//227 170//227
f 168//228 158//228 160//228
f 169//229 171//229 172//229
f 167//230 172//230 171//230
f 172//230 167//230 173//230
f 176//137 172//137 173//137
f 172//118 174//118 101//118
f 174//137 172//137 175//137
f 169//231 172//231 101//231
f 172//137 176//137 175//137
f 180//232 177//232 176//232
f 177//100 175//100 176//100
f 178//233 181//233 176//233
f 178//234 176//234 179//234
f 179//235 176//235 173//235
f 176//236 181//236 180//236
f 181//237 182//237 183//237
f 181//238 184//238 182//238
f 181//239 183//239 180//239
f 181//240 178//240 184//240
f 179//241 165//241 184//241
f 184//242 165//242 164//242
f 185//243 184//243 164//243
f 186//244 184//244 185//244
f 184//245 186//245 182//245
f 184//246 178//246 179//246
f 187//247 186//247 188//247
f 186//247 187//247 183//247
f 182//248 186//248 183//248
f 186//249 185//249 188//249
f 188//250 185//250 189//250
f 188//251 189//251 190//251
f 187//252 188//252 190//252
f 191//253 193//253 190//253
f 190//28 197//28 191//28
f 190//254 189//254 192//254
f 190//255 192//255 194//255
f 190//256 196//256 187//256
f 190//257 193//257 196//257
f 194//258 195//258 190//258
f 190//259 195//259 197//259
f 197//260 198//260 191//260
f 200//261 198//261 197//261
f 200//262 197//262 199//262
f 201//18 199//18 197//18
f 195//263 201//263 197//263
f 201//18 202//18 203//18
f 201//18 204//18 202//18
f 201//18 203//18 199//18
f 204//264 201//264 205//264
f 201//265 195//265 205//265
f 204//264 205//264 207//264
f 195//266 206//266 205//266
f 206//267 207//267 205//267
f 207//268 208//268 213//268
f 207//269 209//269 208//269
f 207//270 211//270 209//270
f 210//271 207//271 212//271
f 204//24 207//24 210//24
f 207//272 206//272 211//272
f 207//273 213//273 212//273
f 213//274 215//274 214//274
f 213//275 214//275 212//275
f 208//276 215//276 213//276
f 216//277 214//277 215//277
f 216//278 215//278 218//278
f 218//279 215//279 217//279
f 208//280 217//280 215//280
f 219//281 218//281 221//281
f 218//282 219//282 220//282
f 220//283 216//283 218//283
f 217//284 221//284 218//284
f 221//285 223//285 219//285
f 221//286 217//286 222//286
f 221//287 222//287 224//287
f 223//288 221//288 224//288
f 223//289 224//289 225//289
f 225//290 224//290 222//290
f 225//291 226//291 223//291
f 226//292 225//292 228//292
f 227//293 228//293 225//293
f 222//294 227//294 225//294
f 228//295 198//295 226//295
f 198//296 228//296 229//296
f 228//297 227//297 229//297
f 229//298 233//298 198//298
f 229//299 227//299 230//299
f 229//300 230//300 231//300
f 231//301 232//301 229//301
f 233//302 229//302 232//302
f 234//303 198//303 233//303
f 235//304 234//304 233//304
f 232//305 235//305 233//305
f 232//306 236//306 235//306
f 236//307 234//307 235//307
f 238//308 237//308 236//308
f 237//309 234//309 236//309
f 236//310 232//310 238//310
f 240//311 238//311 239//311
f 239//312 238//312 232//312
f 237//313 238//313 240//313
f 239//314 241//314 240//314
f 242//315 240//315 241//315
f 240//316 242//316 244//316
f 240//317 243//317 237//317
f 244//318 243//318 240//318
f 245//319 247//319 244//319
f 244//320 246//320 245//320
f 246//321 244//321 242//321
f 247//322 243//322 244//322
f 249//323 248//323 247//323
f 247//324 248//324 250//324
f 245//325 251//325 247//325
f 249//326 247//326 251//326
f 247//327 250//327 237//327
f 237//328 243//328 247//328
f 252//329 251//329 245//329
f 251//330 252//330 249//330
f 245//331 256//331 252//331
f 254//332 253//332 252//332
f 253//333 249//333 252//333
f 254//334 252//334 255//334
f 252//335 256//335 255//335
f 245//336 260//336 256//336
f 255//337 256//337 257//337
f 257//338 256//338 258//338
f 259//339 258//339 256//339
f 256//340 260//340 259//340
f 245//341 262//341 260//341
f 261//342 259//342 260//342
f 260//343 262//343 261//343
f 245//344 264//344 262//344
f 262//345 264//345 263//345
f 263//346 261//346 262//346
f 245//347 246//347 264//347
f 264//348 246//348 263//348
f 242//349 263//349 246//349
f 265//350 266//350 263//350
f 242//351 265//351 263//351
f 261//352 263//352 266//352
f 267//353 266//353 265//353
f 267//354 268//354 266//354
f 266//355 268//355 261//355
f 267//356 269//356 268//356
f 269//357 271//357 268//357
f 258//358 268//358 270//358
f 271//359 270//359 268//359
f 259//360 268//360 258//360
f 268//361 259//361 261//361
f 271//362 269//362 210//362
f 212//363 271//363 210//363
f 272//364 270//364 271//364
f 271//365 212//365 272//365
f 274//366 272//366 214//366
f 212//367 214//367 272//367
f 273//368 270//368 272//368
f 273//369 272//369 274//369
f 274//370 277//370 275//370
f 275//371 276//371 274//371
f 273//372 274//372 276//372
f 214//373 277//373 274//373
f 278//374 277//374 216//374
f 277//375 214//375 216//375
f 278//376 275//376 277//376
f 255//377 278//377 279//377
f 278//378 255//378 275//378
f 200//379 279//379 278//379
f 200//380 278//380 220//380
f 216//381 220//381 278//381
f 199//382 279//382 200//382
f 279//383 203//383 280//383
f 279//384 280//384 281//384
f 282//385 203//385 279//385
f 279//386 254//386 255//386
f 254//387 279//387 281//387
f 279//388 199//388 282//388
f 203//389 282//389 199//389
f 285//390 281//390 280//390
f 283//391 254//391 281//391
f 281//392 284//392 283//392
f 284//393 281//393 285//393
f 287//28 285//28 280//28
f 286//394 285//394 288//394
f 284//395 285//395 286//395
f 287//396 288//396 285//396
f 286//397 288//397 289//397
f 287//398 289//398 288//398
f 289//399 290//399 291//399
f 290//400 289//400 292//400
f 291//401 286//401 289//401
f 292//402 289//402 287//402
f 293//403 294//403 292//403
f 293//404 292//404 287//404
f 294//405 295//405 292//405
f 290//406 292//406 295//406
f 295//407 294//407 296//407
f 296//408 86//408 295//408
f 86//409 297//409 295//409
f 295//410 297//410 290//410
f 86//411 88//411 297//411
f 297//412 88//412 95//412
f 290//413 297//413 95//413
f 80//414 81//414 296//414
f 81//415 86//415 296//415
f 298//416 80//416 296//416
f 296//417 294//417 298//417
f 293//418 298//418 294//418
f 80//419 298//419 76//419
f 76//420 298//420 299//420
f 298//421 293//421 299//421
f 299//422 300//422 76//422
f 300//423 299//423 301//423
f 299//424 293//424 301//424
f 280//18 301//18 287//18
f 24//425 301//425 280//425
f 301//425 24//425 19//425
f 293//18 287//18 301//18
f 301//426 16//426 302//426
f 16//425 301//425 19//425
f 302//427 300//427 301//427
f 15//428 302//428 16//428
f 15//429 305//429 302//429
f 300//430 302//430 304//430
f 305//431 303//431 302//431
f 304//432 302//432 303//432
f 306//433 305//433 308//433
f 305//434 306//434 307//434
f 310//435 305//435 307//435
f 305//436 309//436 308//436
f 10//437 309//437 305//437
f 310//438 303//438 305//438
f 10//439 305//439 15//439
f 311//440 310//440 307//440
f 310//441 311//441 312//441
f 310//442 312//442 303//442
f 314//443 312//443 313//443
f 311//444 313//444 312//444
f 303//445 312//445 314//445
f 303//446 314//446 315//446
f 315//447 314//447 316//447
f 313//448 316//448 314//448
f 317//449 318//449 316//449
f 317//450 316//450 313//450
f 315//451 316//451 319//451
f 316//452 318//452 319//452
f 320//453 315//453 319//453
f 319//454 321//454 320//454
f 321//455 319//455 322//455
f 318//456 322//456 319//456
f 322//457 323//457 321//457
f 323//458 322//458 324//458
f 324//459 322//459 318//459
f 324//460 326//460 323//460
f 326//461 324//461 325//461
f 324//462 327//462 325//462
f 324//463 328//463 327//463
f 318//464 328//464 324//464
f 329//465 327//465 328//465
f 329//466 328//466 318//466
f 331//467 329//467 330//467
f 329//468 317//468 330//468
f 329//469 318//469 317//469
f 331//470 327//470 329//470
f 332//471 331//471 330//471
f 333//472 331//472 332//472
f 331//473 333//473 327//473
f 332//474 335//474 333//474
f 334//475 333//475 335//475
f 336//476 333//476 334//476
f 336//477 327//477 333//477
f 337//478 325//478 336//478
f 336//479 338//479 337//479
f 338//480 336//480 334//480
f 325//481 327//481 336//481
f 340//482 339//482 338//482
f 338//483 339//483 337//483
f 334//484 340//484 338//484
f 340//485 342//485 339//485
f 343//486 341//486 340//486
f 341//487 342//487 340//487
f 340//488 334//488 343//488
f 345//489 344//489 343//489
f 343//490 344//490 341//490
f 343//491 335//491 345//491
f 334//492 335//492 343//492
f 346//493 347//493 345//493
f 346//494 345//494 335//494
f 345//495 348//495 344//495
f 347//496 349//496 345//496
f 345//497 349//497 348//497
f 347//498 351//498 349//498
f 352//499 350//499 349//499
f 350//500 348//500 349//500
f 349//501 351//501 352//501
f 353//502 354//502 352//502
f 352//503 355//503 353//503
f 350//504 352//504 354//504
f 352//505 351//505 355//505
f 355//506 358//506 356//506
f 357//507 355//507 356//507
f 357//508 353//508 355//508
f 351//509 358//509 355//509
f 356//510 358//510 360//510
f 359//511 358//511 351//511
f 359//512 6//512 358//512
f 360//513 358//513 6//513
f 361//514 360//514 362//514
f 356//515 360//515 361//515
f 6//516 5//516 360//516
f 5//517 362//517 360//517
f 361//518 362//518 363//518
f 5//519 364//519 362//519
f 363//520 362//520 364//520
f 3//521 313//521 364//521
f 5//522 3//522 364//522
f 363//523 364//523 313//523
f 313//524 311//524 363//524
f 363//525 311//525 307//525
f 307//526 306//526 363//526
f 361//527 363//527 306//527
f 356//528 361//528 308//528
f 306//529 308//529 361//529
f 347//530 359//530 351//530
f 7//531 359//531 347//531
f 7//532 6//532 359//532
f 309//533 353//533 357//533
f 365//534 309//534 357//534
f 365//535 357//535 356//535
f 309//536 365//536 308//536
f 308//537 365//537 356//537
f 353//538 309//538 354//538
f 309//539 366//539 354//539
f 366//540 367//540 354//540
f 354//541 367//541 350//541
f 366//542 368//542 367//542
f 367//543 368//543 348//543
f 348//544 350//544 367//544
f 369//545 370//545 368//545
f 368//546 366//546 369//546
f 342//547 368//547 370//547
f 368//548 341//548 344//548
f 368//549 342//549 341//549
f 344//550 348//550 368//550
f 371//551 370//551 372//551
f 370//552 371//552 342//552
f 370//553 369//553 373//553
f 373//554 372//554 370//554
f 373//555 374//555 375//555
f 374//556 373//556 376//556
f 376//557 373//557 369//557
f 375//558 372//558 373//558
f 377//559 374//559 376//559
f 376//560 378//560 377//560
f 369//561 378//561 376//561
f 378//562 379//562 377//562
f 380//563 379//563 378//563
f 378//564 369//564 366//564
f 380//565 378//565 10//565
f 366//566 10//566 378//566
f 379//567 380//567 381//567
f 7//568 381//568 380//568
f 380//569 8//569 7//569
f 8//565 380//565 10//565
f 381//570 382//570 379//570
f 383//571 382//571 381//571
f 384//572 383//572 381//572
f 381//573 7//573 384//573
f 383//574 384//574 39//574
f 384//575 346//575 330//575
f 346//576 384//576 7//576
f 384//577 330//577 32//577
f 32//578 39//578 384//578
f 41//579 383//579 39//579
f 385//580 383//580 41//580
f 385//581 382//581 383//581
f 386//582 385//582 41//582
f 387//583 385//583 386//583
f 387//584 377//584 385//584
f 377//585 382//585 385//585
f 388//586 387//586 48//586
f 387//587 388//587 389//587
f 387//588 390//588 377//588
f 386//589 48//589 387//589
f 389//590 390//590 387//590
f 390//591 374//591 377//591
f 390//424 389//424 374//424
f 391//592 389//592 388//592
f 392//593 389//593 391//593
f 389//594 392//594 374//594
f 375//595 374//595 392//595
f 392//596 49//596 375//596
f 391//597 393//597 392//597
f 49//598 392//598 393//598
f 47//599 49//599 393//599
f 391//600 47//600 393//600
f 47//601 391//601 388//601
f 48//602 47//602 388//602
f 41//603 42//603 386//603
f 48//604 386//604 42//604
f 382//605 377//605 379//605
f 51//606 375//606 49//606
f 372//607 375//607 51//607
f 372//608 394//608 371//608
f 51//609 394//609 372//609
f 395//610 371//610 394//610
f 394//611 52//611 395//611
f 52//612 394//612 51//612
f 395//613 397//613 396//613
f 396//614 342//614 395//614
f 54//615 395//615 52//615
f 395//616 54//616 397//616
f 371//617 395//617 342//617
f 69//618 396//618 397//618
f 54//619 398//619 397//619
f 68//620 397//620 398//620
f 69//621 397//621 68//621
f 398//622 399//622 68//622
f 398//623 54//623 55//623
f 399//624 398//624 55//624
f 63//625 399//625 400//625
f 399//626 63//626 68//626
f 55//627 400//627 399//627
f 58//67 400//67 55//67
f 63//117 400//117 401//117
f 58//67 401//67 400//67
f 65//628 401//628 58//628
f 401//629 65//629 63//629
f 69//630 402//630 396//630
f 396//631 402//631 342//631
f 402//632 403//632 342//632
f 402//633 75//633 403//633
f 75//634 402//634 69//634
f 339//635 342//635 403//635
f 323//636 339//636 403//636
f 323//637 403//637 321//637
f 321//638 403//638 320//638
f 303//639 320//639 403//639
f 304//640 303//640 403//640
f 403//641 75//641 304//641
f 10//642 366//642 309//642
f 346//643 7//643 347//643
f 335//644 332//644 346//644
f 330//645 346//645 332//645
f 326//646 339//646 323//646
f 337//647 339//647 326//647
f 325//648 337//648 326//648
f 29//649 330//649 317//649
f 32//650 330//650 29//650
f 315//651 320//651 303//651
f 3//652 2//652 317//652
f 29//653 317//653 2//653
f 313//654 3//654 317//654
f 304//655 75//655 76//655
f 304//656 76//656 300//656
f 290//657 95//657 291//657
f 291//658 405//658 286//658
f 404//659 405//659 291//659
f 404//660 291//660 94//660
f 94//661 291//661 95//661
f 405//662 284//662 286//662
f 284//663 405//663 406//663
f 404//664 406//664 405//664
f 406//665 283//665 284//665
f 407//666 283//666 406//666
f 98//667 99//667 406//667
f 404//668 98//668 406//668
f 99//669 407//669 406//669
f 283//670 407//670 408//670
f 409//671 408//671 407//671
f 99//672 409//672 407//672
f 410//673 411//673 409//673
f 409//674 99//674 410//674
f 408//675 409//675 411//675
f 411//676 410//676 412//676
f 412//677 413//677 411//677
f 411//678 413//678 414//678
f 411//679 414//679 408//679
f 415//680 414//680 413//680
f 414//681 415//681 249//681
f 249//682 408//682 414//682
f 248//683 415//683 416//683
f 415//684 248//684 249//684
f 415//685 413//685 416//685
f 419//686 416//686 417//686
f 420//687 417//687 416//687
f 416//688 418//688 420//688
f 416//689 413//689 418//689
f 419//690 248//690 416//690
f 421//691 420//691 418//691
f 417//692 420//692 183//692
f 420//693 421//693 180//693
f 180//694 183//694 420//694
f 418//695 422//695 421//695
f 423//696 421//696 422//696
f 421//697 423//697 180//697
f 422//698 177//698 423//698
f 180//699 423//699 177//699
f 412//700 175//700 422//700
f 412//701 422//701 418//701
f 175//702 177//702 422//702
f 419//703 250//703 248//703
f 417//704 424//704 419//704
f 193//705 419//705 424//705
f 250//706 419//706 193//706
f 424//707 417//707 187//707
f 424//708 196//708 193//708
f 196//709 424//709 187//709
f 413//710 412//710 418//710
f 183//711 187//711 417//711
f 410//712 174//712 412//712
f 412//713 174//713 175//713
f 410//714 99//714 174//714
f 249//715 253//715 408//715
f 408//716 253//716 283//716
f 94//717 98//717 404//717
f 283//718 253//718 254//718
f 280//425 203//425 202//425
f 24//425 280//425 202//425
f 276//719 257//719 273//719
f 255//720 257//720 276//720
f 255//721 276//721 275//721
f 258//722 273//722 257//722
f 258//723 270//723 273//723
f 269//724 425//724 210//724
f 267//725 425//725 269//725
f 426//726 425//726 430//726
f 427//727 425//727 426//727
f 267//728 429//728 425//728
f 427//729 210//729 425//729
f 425//730 429//730 428//730
f 211//731 425//731 428//731
f 425//732 211//732 430//732
f 430//154 431//154 189//154
f 211//733 431//733 430//733
f 432//154 430//154 189//154
f 426//734 430//734 432//734
f 434//735 426//735 432//735
f 189//243 185//243 432//243
f 164//243 432//243 185//243
f 166//736 433//736 432//736
f 433//737 434//737 432//737
f 166//738 432//738 164//738
f 435//739 434//739 433//739
f 435//740 436//740 434//740
f 436//741 426//741 434//741
f 436//742 427//742 426//742
f 25//743 427//743 436//743
f 25//24 436//24 435//24
f 437//744 435//744 433//744
f 25//24 435//24 437//24
f 437//745 433//745 166//745
f 162//746 437//746 166//746
f 25//747 437//747 162//747
f 192//154 189//154 431//154
f 431//154 194//154 192//154
f 194//748 431//748 195//748
f 211//749 206//749 431//749
f 431//750 206//750 195//750
f 429//751 267//751 265//751
f 428//752 429//752 241//752
f 429//753 265//753 241//753
f 428//754 231//754 438//754
f 438//755 211//755 428//755
f 428//756 241//756 239//756
f 428//757 239//757 231//757
f 438//758 230//758 227//758
f 438//759 231//759 230//759
f 438//760 227//760 209//760
f 438//761 209//761 211//761
f 210//762 427//762 25//762
f 241//763 265//763 242//763
f 234//764 237//764 250//764
f 234//765 250//765 198//765
f 193//766 191//766 250//766
f 198//767 250//767 191//767
f 232//768 231//768 239//768
f 209//769 227//769 222//769
f 198//770 200//770 226//770
f 223//771 226//771 200//771
f 219//772 223//772 200//772
f 208//773 222//773 217//773
f 209//774 222//774 208//774
f 200//772 220//772 219//772
f 25//24 204//24 210//24
f 202//775 204//775 25//775
f 202//775 25//775 24//775
f 173//776 165//776 179//776
f 174//106 99//106 101//106
f 165//777 173//777 167//777
f 153//778 158//778 170//778
f 153//125 170//125 103//125
f 170//779 169//779 103//779
f 169//125 101//125 103//125
f 25//780 162//780 22//780
f 22//781 155//781 439//781
f 152//782 439//782 155//782
f 440//783 22//783 439//783
f 440//784 439//784 92//784
f 92//785 439//785 152//785
f 441//786 22//786 440//786
f 440//787 442//787 441//787
f 92//788 442//788 440//788
f 442//789 443//789 441//789
f 92//790 87//790 442//790
f 442//791 87//791 443//791
f 443//792 444//792 441//792
f 84//793 443//793 87//793
f 444//794 443//794 84//794
f 444//795 83//795 445//795
f 83//796 444//796 84//796
f 444//797 445//797 446//797
f 446//798 441//798 444//798
f 447//799 446//799 445//799
f 22//800 446//800 447//800
f 22//801 441//801 446//801
f 22//802 447//802 28//802
f 28//803 447//803 448//803
f 447//804 445//804 448//804
f 449//805 448//805 83//805
f 83//806 448//806 445//806
f 449//807 451//807 448//807
f 448//808 450//808 28//808
f 450//809 448//809 451//809
f 455//810 452//810 451//810
f 451//811 452//811 453//811
f 451//812 453//812 450//812
f 451//813 449//813 454//813
f 455//814 451//814 454//814
f 38//815 452//815 455//815
f 38//816 455//816 61//816
f 454//817 61//817 455//817
f 61//818 454//818 64//818
f 454//819 449//819 64//819
f 450//820 453//820 35//820
f 453//821 452//821 36//821
f 36//822 35//822 453//822
f 38//823 36//823 452//823
f 28//824 450//824 35//824
f 64//825 449//825 71//825
f 456//826 71//826 449//826
f 449//827 458//827 456//827
f 449//828 83//828 457//828
f 449//829 457//829 458//829
f 462//830 459//830 458//830
f 458//831 459//831 456//831
f 458//832 457//832 460//832
f 460//833 461//833 458//833
f 458//830 461//830 462//830
f 459//834 462//834 463//834
f 463//154 462//154 465//154
f 462//154 466//154 464//154
f 462//154 464//154 465//154
f 462//154 461//154 466//154
f 464//835 466//835 467//835
f 468//836 467//836 466//836
f 466//837 469//837 468//837
f 466//154 461//154 469//154
f 470//838 468//838 469//838
f 469//839 471//839 470//839
f 471//154 469//154 460//154
f 469//154 461//154 460//154
f 471//840 473//840 472//840
f 472//841 470//841 471//841
f 471//154 460//154 473//154
f 473//842 475//842 474//842
f 474//843 472//843 473//843
f 473//154 460//154 475//154
f 476//844 474//844 475//844
f 475//845 478//845 476//845
f 475//154 460//154 477//154
f 478//154 475//154 477//154
f 480//846 478//846 479//846
f 479//154 478//154 477//154
f 478//847 480//847 476//847
f 479//848 484//848 480//848
f 480//849 72//849 476//849
f 481//850 72//850 480//850
f 483//851 481//851 480//851
f 484//852 482//852 480//852
f 480//853 482//853 483//853
f 484//854 479//854 485//854
f 485//855 487//855 484//855
f 487//856 486//856 484//856
f 484//857 486//857 482//857
f 487//858 485//858 488//858
f 488//859 489//859 487//859
f 489//860 486//860 487//860
f 489//861 488//861 490//861
f 490//862 491//862 489//862
f 486//863 489//863 491//863
f 491//864 490//864 465//864
f 465//864 492//864 491//864
f 486//865 491//865 492//865
f 492//866 465//866 464//866
f 464//867 467//867 492//867
f 492//868 467//868 493//868
f 492//869 493//869 486//869
f 494//870 456//870 493//870
f 493//871 456//871 486//871
f 493//872 467//872 494//872
f 495//873 456//873 494//873
f 494//874 496//874 495//874
f 494//875 467//875 496//875
f 496//876 456//876 495//876
f 496//877 71//877 456//877
f 496//878 467//878 71//878
f 490//154 488//154 463//154
f 490//154 463//154 465//154
f 463//154 488//154 485//154
f 497//879 486//879 456//879
f 482//880 486//880 497//880
f 499//831 498//831 497//831
f 83//881 497//881 498//881
f 83//882 72//882 497//882
f 456//831 499//831 497//831
f 497//883 72//883 481//883
f 500//884 497//884 481//884
f 483//885 497//885 500//885
f 483//886 482//886 497//886
f 481//887 483//887 500//887
f 463//834 499//834 459//834
f 459//888 499//888 456//888
f 499//889 463//889 501//889
f 501//889 498//889 499//889
f 479//154 501//154 485//154
f 477//154 501//154 479//154
f 501//67 477//67 502//67
f 502//67 498//67 501//67
f 501//154 463//154 485//154
f 502//890 477//890 460//890
f 460//890 457//890 502//890
f 502//891 83//891 498//891
f 83//892 502//892 457//892
f 476//893 72//893 474//893
f 72//894 472//894 474//894
f 71//895 472//895 72//895
f 472//896 71//896 470//896
f 470//897 71//897 468//897
f 468//898 71//898 467//898
f 92//899 152//899 91//899
f 100//900 96//900 91//900
f 76//901 78//901 80//901
f 75//902 69//902 77//902
f 67//903 77//903 69//903
f 65//904 58//904 59//904
f 35//905 34//905 28//905
f 27//906 28//906 34//906
f 29//907 2//907 23//907
f 2//908 17//908 23//908
f 19//425 20//425 16//425
f 4//909 13//909 17//909
f 17//910 2//910 4//910
f 11//911 13//911 4//911
