# Blender 5.0.1
# www.blender.org
mtllib torso_z_link_visual_22.mtl
o i01.torso.topStom.full.023_visual.001
v -0.355451 -0.176909 -0.119878
v -0.355447 0.174089 -0.142960
v -0.316081 0.138173 -0.144743
v -0.316084 -0.141811 -0.126332
v -0.335508 0.150893 0.048695
v -0.335511 -0.129090 0.067105
v -0.320907 -0.155344 0.208086
v 0.015381 -0.179480 -0.158770
v 0.039066 -0.175943 -0.105021
v 0.017056 -0.171164 -0.032376
v 0.019347 -0.173718 -0.071212
v 0.027358 -0.168698 0.005134
v 0.053664 -0.166795 0.034098
v 0.017056 -0.246019 -0.027453
v 0.027358 -0.243553 0.010056
v 0.053664 -0.241650 0.039020
v 0.088073 -0.165538 0.053264
v 0.088073 -0.240392 0.058187
v 0.107068 -0.253181 -0.136281
v 0.068744 -0.177649 -0.130935
v 0.107070 -0.178326 -0.141204
v 0.039065 -0.250798 -0.100099
v 0.217706 -0.247420 -0.048576
v 0.181098 -0.251789 -0.115049
v 0.068744 -0.252504 -0.126012
v 0.146689 -0.253048 -0.134217
v 0.195696 -0.242642 0.024068
v 0.166018 -0.240936 0.049982
v 0.127692 -0.240258 0.060250
v 0.166018 -0.166081 0.045059
v 0.127694 -0.165404 0.055327
v 0.326647 -0.159840 0.140174
v 0.287577 -0.123822 0.141920
v -0.281540 -0.120245 0.201631
v 0.326643 -0.124092 0.137823
v 0.311913 -0.133551 -0.000795
v 0.292132 -0.181406 -0.187793
v 0.195697 -0.167787 0.019146
v 0.215416 -0.170011 -0.014662
v 0.217706 -0.172565 -0.053498
v 0.207404 -0.175031 -0.091008
v 0.207404 -0.249886 -0.086086
v 0.181098 -0.176934 -0.119971
v 0.146689 -0.178193 -0.139140
v 0.215415 -0.244866 -0.009740
v 0.253077 -0.145388 -0.186048
v 0.311914 -0.043053 -0.006747
v 0.292100 -0.055278 -0.196084
v 0.253078 -0.055008 -0.191991
v 0.273146 -0.042785 -0.002681
v 0.311915 0.053387 -0.013087
v 0.273147 0.053655 -0.009022
v 0.253079 0.041314 -0.198324
v 0.253080 0.134240 -0.204435
v 0.287592 0.155806 0.123532
v -0.281536 0.159738 0.183220
v -0.320903 0.195655 0.185004
v 0.326647 0.155536 0.119435
v 0.326647 0.191181 0.117091
v 0.306340 0.083586 0.126307
v 0.304627 0.098063 0.125534
v 0.306606 -0.055123 0.135404
v 0.307249 -0.075281 0.136658
v 0.293066 -0.068242 0.025761
v 0.302403 -0.055318 0.023927
v 0.323157 0.072192 0.125288
v 0.325802 -0.044335 0.132668
v 0.321060 -0.052539 0.021774
v 0.340378 -0.050496 0.131537
v 0.334790 -0.067161 0.021295
v 0.346978 -0.062739 0.131646
v 0.343328 0.080815 0.122593
v 0.333983 0.077217 0.011586
v 0.321672 0.066660 0.013576
v 0.379261 -0.124799 0.132328
v 0.346070 0.101175 0.120967
v 0.379264 0.155184 0.113916
v 0.369649 -0.130799 0.041080
v 0.311917 0.146432 -0.019206
v 0.369653 0.149184 0.022669
v 0.329868 0.114127 0.121819
v 0.313935 0.107300 0.011720
v 0.312254 0.110047 0.123943
v 0.332216 0.098191 0.010392
v 0.292467 0.082183 0.015626
v 0.305519 0.066587 0.015282
v 0.297525 0.099965 0.013930
v 0.292103 0.169616 -0.210873
v 0.292101 0.041044 -0.202417
v 0.207221 0.175989 -0.113954
v 0.003355 0.171610 -0.180589
v 0.146963 0.172866 -0.161468
v 0.181456 0.174083 -0.142958
v 0.146964 0.240515 -0.165915
v 0.181456 0.241732 -0.147406
v 0.196027 0.250862 -0.008552
v 0.215208 0.248644 -0.042287
v 0.207221 0.243639 -0.118402
v 0.217219 0.246099 -0.080977
v 0.217219 0.178450 -0.076530
v 0.215208 0.180994 -0.037841
v 0.196026 0.183213 -0.004104
v 0.166130 0.184876 0.021185
v 0.166131 0.252526 0.016737
v 0.127683 0.185532 0.031148
v 0.127687 0.253181 0.026699
v 0.088015 0.185418 0.029408
v 0.088016 0.253068 0.024961
v 0.053523 0.184202 0.010898
v 0.053524 0.251851 0.006450
v 0.027758 0.182295 -0.018106
v 0.027758 0.249944 -0.022553
v 0.017760 0.179834 -0.055532
v 0.019771 0.177290 -0.094223
v 0.017760 0.247483 -0.059979
v 0.019771 0.244939 -0.098671
v 0.038953 0.242720 -0.132404
v 0.038952 0.175071 -0.127956
v 0.068849 0.173408 -0.153245
v 0.107292 0.172752 -0.163208
v 0.068849 0.241057 -0.157693
v 0.107292 0.240401 -0.167656
v 0.343427 -0.076681 0.132938
v 0.331995 -0.084925 0.134685
v 0.318191 -0.084203 0.136091
v 0.309548 -0.092346 0.025609
v 0.323749 -0.090980 0.024022
v 0.333502 -0.080842 0.022329
v 0.297290 -0.084942 0.026414
v -0.320903 0.160010 0.187348
v -0.308579 0.120184 0.188669
v -0.369650 0.160348 0.192462
v -0.379261 0.154347 0.101213
v -0.297638 0.111262 0.188104
v -0.322384 0.120906 0.190075
v -0.337359 0.112464 0.080281
v -0.333816 0.112662 0.191822
v -0.323156 0.113830 0.078694
v -0.310899 0.106427 0.077891
v -0.348400 0.088645 0.083010
v -0.337367 0.098719 0.193113
v -0.347112 0.102326 0.081974
v -0.334670 0.074023 0.082521
v -0.330766 0.086476 0.193223
v -0.333523 -0.049962 0.202485
v -0.316190 0.080316 0.192093
v -0.314906 -0.042054 0.200009
v -0.296993 0.091105 0.189366
v -0.297548 -0.053545 0.198931
v -0.320010 -0.051080 0.088907
v -0.336164 -0.051153 0.090613
v -0.349016 -0.077092 0.093673
v -0.347662 -0.060546 0.092443
v -0.338514 -0.066475 0.204097
v -0.369653 -0.119636 0.210873
v -0.324079 -0.084026 0.203728
v -0.320906 -0.119973 0.205759
v -0.303462 -0.080004 0.201294
v -0.318205 -0.089108 0.091217
v -0.336918 -0.090121 0.093255
v -0.307565 -0.076838 0.089290
v -0.308792 -0.062318 0.088465
v -0.295835 -0.068020 0.199702
v -0.379264 -0.125636 0.119624
v -0.306675 0.089727 0.078544
v -0.316012 0.076802 0.080377
v 0.019346 -0.248573 -0.066289
vn -0.9945 0.0069 0.1043
vn -0.1045 -0.0653 -0.9924
vn -0.0000 -0.9978 0.0656
vn -0.0000 -0.9978 0.0657
vn -0.7410 0.0441 0.6701
vn -0.9644 0.0174 0.2637
vn -0.0001 -0.9978 0.0656
vn -0.4874 0.0573 0.8713
vn -0.2593 -0.0634 -0.9637
vn 0.0521 -0.0655 -0.9965
vn 0.2593 0.0634 0.9637
vn -0.0521 0.0655 0.9965
vn 0.1045 0.0653 0.9924
vn 0.9944 -0.0068 -0.1052
vn 0.9945 -0.0029 -0.1045
vn 0.9644 -0.0173 -0.2637
vn 0.7410 -0.0441 -0.6701
vn -0.0001 -0.9978 0.0657
vn 0.4875 -0.0573 -0.8713
vn -0.0001 -0.9978 0.0660
vn 0.4874 -0.0573 -0.8713
vn -0.0000 -0.9978 0.0658
vn 0.9983 0.0038 0.0586
vn 0.8643 0.0330 0.5019
vn 0.6585 0.0494 0.7509
vn 0.9946 -0.0068 -0.1035
vn 0.9946 -0.0066 -0.1037
vn 0.0001 0.9979 -0.0644
vn -0.9945 0.0069 0.1050
vn -0.1045 -0.0652 -0.9924
vn -0.9947 0.0068 0.1031
vn -0.9945 0.0086 0.1041
vn -0.9946 0.0068 0.1031
vn -0.0001 -0.9979 0.0651
vn -0.9945 0.0053 0.1043
vn 0.1046 0.0652 0.9924
vn 0.1046 0.0653 0.9924
vn 0.1050 0.0654 0.9923
vn 0.1043 0.0653 0.9924
vn 0.1049 0.0651 0.9924
vn 0.9918 0.0238 -0.1253
vn 0.8083 -0.5881 -0.0295
vn 0.4880 -0.8727 -0.0169
vn 0.1047 0.0652 0.9924
vn 0.1545 -0.9858 0.0663
vn -0.3824 -0.9201 0.0844
vn -0.7196 -0.6803 0.1393
vn -0.8748 -0.4706 0.1155
vn -0.6479 0.7611 0.0299
vn -0.9871 0.1392 0.0786
vn -0.3973 0.9168 -0.0401
vn 0.1045 0.0652 0.9924
vn 0.1048 0.0651 0.9924
vn 0.9945 -0.0069 -0.1043
vn -0.0002 0.9979 -0.0655
vn -0.0000 0.9978 -0.0656
vn 0.2287 -0.9731 0.0272
vn -0.4359 -0.8922 0.1184
vn -0.6182 -0.7798 0.0985
vn -0.9891 -0.0762 0.1260
vn 0.1045 0.0650 0.9924
vn 0.1043 0.0654 0.9924
vn 0.1044 0.0653 0.9924
vn -0.0097 0.9987 -0.0493
vn 0.5507 0.8245 -0.1303
vn 0.7616 0.6397 -0.1036
vn 0.9581 -0.2788 -0.0657
vn 0.1047 0.0648 0.9924
vn 0.9860 0.1100 -0.1250
vn 0.4112 -0.9111 0.0285
vn 0.8382 -0.5418 -0.0626
vn 0.5879 -0.0531 -0.8072
vn 0.5880 -0.0531 -0.8072
vn 0.9944 -0.0069 -0.1052
vn 0.9946 -0.0068 -0.1036
vn 0.9945 -0.0104 -0.1041
vn 0.7483 -0.0435 -0.6619
vn 0.4736 -0.0578 -0.8788
vn 0.9663 -0.0169 -0.2570
vn 0.9987 0.0034 0.0517
vn 0.8698 0.0324 0.4924
vn 0.6466 0.0500 0.7612
vn 0.2514 0.0635 0.9658
vn -0.0439 0.0656 0.9969
vn -0.0439 0.0655 0.9969
vn -0.4737 0.0578 0.8788
vn -0.7483 0.0435 0.6619
vn -0.9663 0.0169 0.2570
vn -0.9987 -0.0034 -0.0517
vn -0.8697 -0.0324 -0.4924
vn -0.6466 -0.0500 -0.7612
vn -0.2514 -0.0635 -0.9658
vn 0.0439 -0.0655 -0.9969
vn -0.0000 0.9978 -0.0657
vn -0.0065 -0.9978 0.0663
vn -0.0020 -0.9977 0.0683
vn 0.0442 0.9961 -0.0769
vn -0.5850 0.8111 -0.0008
vn -0.1008 0.9938 -0.0469
vn 0.1046 0.0651 0.9924
vn -0.7169 0.6961 0.0381
vn -0.9893 0.1012 0.1052
vn -0.9645 0.2528 0.0770
vn 0.5093 0.8544 -0.1028
vn 0.6232 0.7722 -0.1240
vn 0.1044 0.0655 0.9924
vn 0.1047 0.0653 0.9924
vn 0.9648 0.2398 -0.1082
vn -0.0456 -0.9969 0.0636
vn 0.1024 -0.9928 0.0624
vn 0.5831 -0.8122 -0.0171
vn -0.5079 -0.8535 0.1166
vn 0.8732 0.4696 -0.1305
vn 0.9909 -0.1001 -0.0901
vn 0.7234 0.6828 -0.1023
vn 0.1042 0.0653 0.9924
vn 0.3789 0.9180 -0.1166
vn 0.1048 0.0652 0.9923
vn -0.5456 -0.8329 0.0927
vn 0.0130 -0.9967 0.0804
vn 0.3910 -0.9204 0.0006
vn 0.6320 -0.7749 -0.0067
vn 0.9505 -0.2964 -0.0936
vn 0.9924 -0.0876 -0.0860
vn 0.7640 0.6312 -0.1334
vn 0.7254 0.6775 -0.1217
vn -0.1974 0.9788 -0.0545
vn -0.0592 0.9971 -0.0481
vn -0.9912 -0.0777 0.1071
vn -0.6995 -0.7032 0.1271
vn -0.9873 -0.1108 0.1137
vn -0.8399 0.5407 0.0461
vn -0.7511 0.6586 0.0461
vn -0.7690 -0.0419 -0.6379
vn 0.1044 0.0652 0.9924
vn 0.1049 0.0653 0.9923
vn -0.4928 0.8697 -0.0281
vn -0.8047 0.5903 0.0630
vn -0.9958 -0.0264 0.0873
vn 0.1039 0.0655 0.9924
vn -0.1508 0.9881 -0.0313
vn -0.9629 -0.2386 0.1263
vn 0.9628 -0.2538 -0.0927
vn 0.7187 -0.6950 -0.0216
vn -0.6248 -0.7731 0.1091
vn -0.0006 0.9978 -0.0656
vn -0.6585 -0.0494 -0.7509
vn -0.8643 -0.0330 -0.5019
vn -0.9983 -0.0038 -0.0586
s 0
usemtl Material.002
f 5//1 2//1 1//1
f 1//2 2//2 3//2
f 3//2 4//2 1//2
f 8//2 1//2 4//2
f 1//1 6//1 5//1
f 1//1 7//1 6//1
f 12//3 7//3 1//3
f 1//4 8//4 9//4
f 9//3 11//3 1//3
f 10//3 12//3 1//3
f 11//3 10//3 1//3
f 13//5 12//5 15//5
f 12//3 13//3 7//3
f 12//6 10//6 14//6
f 14//6 15//6 12//6
f 15//5 16//5 13//5
f 15//7 14//7 16//7
f 17//8 13//8 16//8
f 16//8 18//8 17//8
f 16//7 14//7 19//7
f 16//7 19//7 18//7
f 19//9 25//9 20//9
f 20//9 21//9 19//9
f 26//10 19//10 21//10
f 19//7 14//7 22//7
f 19//7 22//7 25//7
f 23//7 27//7 19//7
f 23//7 19//7 24//7
f 19//7 26//7 24//7
f 28//7 19//7 27//7
f 29//7 19//7 28//7
f 19//7 29//7 18//7
f 29//11 28//11 30//11
f 30//11 31//11 29//11
f 18//12 29//12 31//12
f 31//7 30//7 32//7
f 31//7 32//7 7//7
f 17//7 31//7 7//7
f 31//12 17//12 18//12
f 35//13 33//13 32//13
f 32//13 33//13 34//13
f 34//13 7//13 32//13
f 32//14 36//14 35//14
f 37//15 36//15 32//15
f 41//7 37//7 32//7
f 38//7 39//7 32//7
f 32//7 30//7 38//7
f 39//7 40//7 32//7
f 40//7 41//7 32//7
f 41//16 40//16 23//16
f 23//16 42//16 41//16
f 43//17 41//17 42//17
f 41//18 43//18 37//18
f 44//19 43//19 24//19
f 42//17 24//17 43//17
f 43//18 44//18 37//18
f 21//10 44//10 26//10
f 44//20 21//20 8//20
f 24//21 26//21 44//21
f 44//22 8//22 37//22
f 23//3 24//3 42//3
f 40//23 39//23 45//23
f 45//23 23//23 40//23
f 27//24 45//24 39//24
f 23//3 45//3 27//3
f 39//24 38//24 27//24
f 38//25 30//25 28//25
f 28//25 27//25 38//25
f 47//26 36//26 37//26
f 48//2 37//2 46//2
f 37//2 8//2 46//2
f 37//27 48//27 47//27
f 47//28 48//28 49//28
f 46//2 49//2 48//2
f 49//28 50//28 47//28
f 50//29 49//29 46//29
f 51//30 47//30 50//30
f 50//30 52//30 51//30
f 33//31 52//31 50//31
f 50//32 46//32 33//32
f 52//33 33//33 55//33
f 51//34 52//34 53//34
f 53//29 52//29 54//29
f 52//35 55//35 54//35
f 57//13 56//13 55//13
f 54//3 55//3 56//3
f 55//13 59//13 57//13
f 61//36 58//36 55//36
f 59//37 55//37 58//37
f 62//37 60//37 55//37
f 61//38 55//38 60//38
f 55//39 33//39 62//39
f 63//40 62//40 33//40
f 62//41 63//41 64//41
f 65//42 62//42 64//42
f 65//43 67//43 62//43
f 66//39 60//39 62//39
f 66//44 62//44 67//44
f 65//45 68//45 67//45
f 69//46 67//46 68//46
f 66//36 67//36 69//36
f 68//47 70//47 69//47
f 71//48 69//48 70//48
f 71//44 72//44 69//44
f 66//44 69//44 72//44
f 73//49 74//49 72//49
f 73//50 72//50 76//50
f 66//51 72//51 74//51
f 75//37 77//37 72//37
f 75//52 72//52 71//52
f 76//53 72//53 77//53
f 77//54 75//54 78//54
f 78//54 80//54 77//54
f 81//13 77//13 58//13
f 79//55 58//55 77//55
f 77//56 80//56 79//56
f 81//13 76//13 77//13
f 81//13 58//13 83//13
f 82//57 81//57 83//57
f 81//58 82//58 84//58
f 76//59 81//59 84//59
f 84//60 73//60 76//60
f 85//61 84//61 82//61
f 86//62 84//62 85//62
f 74//52 84//52 86//52
f 74//63 73//63 84//63
f 74//64 86//64 66//64
f 60//65 66//65 86//65
f 60//66 86//66 85//66
f 85//67 87//67 61//67
f 85//68 82//68 87//68
f 85//69 61//69 60//69
f 87//70 82//70 83//70
f 87//71 83//71 61//71
f 61//62 83//62 58//62
f 51//72 79//72 80//72
f 47//72 51//72 80//72
f 80//73 78//73 47//73
f 59//74 58//74 79//74
f 89//75 88//75 79//75
f 88//76 59//76 79//76
f 79//75 51//75 89//75
f 53//34 89//34 51//34
f 88//2 89//2 53//2
f 53//2 54//2 88//2
f 91//2 88//2 54//2
f 90//56 59//56 88//56
f 88//56 93//56 90//56
f 92//56 88//56 91//56
f 92//56 93//56 88//56
f 90//77 93//77 95//77
f 93//78 92//78 94//78
f 94//78 95//78 93//78
f 96//56 95//56 94//56
f 96//56 97//56 95//56
f 97//56 98//56 95//56
f 95//77 98//77 90//77
f 97//56 99//56 98//56
f 98//79 99//79 100//79
f 100//79 90//79 98//79
f 101//80 100//80 99//80
f 90//56 100//56 59//56
f 100//56 101//56 59//56
f 99//80 97//80 101//80
f 102//81 101//81 97//81
f 101//56 102//56 59//56
f 102//56 103//56 59//56
f 97//81 96//81 102//81
f 103//82 102//82 96//82
f 103//56 105//56 59//56
f 105//83 103//83 104//83
f 96//82 104//82 103//82
f 107//56 57//56 105//56
f 105//56 57//56 59//56
f 107//84 105//84 106//84
f 104//83 106//83 105//83
f 106//85 108//85 107//85
f 109//86 107//86 108//86
f 107//56 109//56 57//56
f 111//87 109//87 110//87
f 108//86 110//86 109//86
f 109//56 111//56 57//56
f 113//88 111//88 112//88
f 110//87 112//87 111//87
f 111//56 113//56 57//56
f 112//88 115//88 113//88
f 114//89 113//89 115//89
f 113//56 114//56 57//56
f 112//56 116//56 115//56
f 115//89 116//89 114//89
f 110//56 117//56 116//56
f 116//90 117//90 118//90
f 118//90 114//90 116//90
f 112//56 110//56 116//56
f 118//56 119//56 2//56
f 2//56 57//56 118//56
f 114//56 118//56 57//56
f 119//91 118//91 117//91
f 120//92 119//92 121//92
f 119//56 120//56 91//56
f 117//91 121//91 119//91
f 119//56 91//56 2//56
f 108//56 121//56 117//56
f 108//56 106//56 121//56
f 106//56 122//56 121//56
f 121//92 122//92 120//92
f 106//56 104//56 122//56
f 104//56 94//56 122//56
f 92//93 120//93 122//93
f 122//93 94//93 92//93
f 120//94 92//94 91//94
f 110//56 108//56 117//56
f 104//56 96//56 94//56
f 91//2 54//2 3//2
f 2//2 91//2 3//2
f 36//72 47//72 78//72
f 78//95 75//95 35//95
f 35//96 36//96 78//96
f 35//52 75//52 124//52
f 123//37 75//37 71//37
f 124//13 75//13 123//13
f 124//52 125//52 35//52
f 125//97 124//97 126//97
f 127//98 124//98 123//98
f 127//99 126//99 124//99
f 127//100 70//100 126//100
f 127//52 128//52 70//52
f 128//101 127//101 123//101
f 70//102 128//102 71//102
f 123//103 71//103 128//103
f 126//104 129//104 125//104
f 70//52 129//52 126//52
f 63//105 125//105 129//105
f 68//106 129//106 70//106
f 129//107 68//107 64//107
f 129//108 64//108 63//108
f 63//36 35//36 125//36
f 64//53 68//53 65//53
f 63//52 33//52 35//52
f 2//1 5//1 57//1
f 57//1 5//1 130//1
f 130//13 56//13 57//13
f 134//13 130//13 131//13
f 130//52 135//52 131//52
f 130//56 5//56 133//56
f 134//13 56//13 130//13
f 130//36 132//36 135//36
f 133//56 132//56 130//56
f 131//109 135//109 138//109
f 136//110 138//110 135//110
f 136//111 135//111 137//111
f 135//37 132//37 137//37
f 140//13 139//13 138//13
f 138//112 139//112 131//112
f 136//36 140//36 138//36
f 136//63 142//63 140//63
f 141//113 144//113 140//113
f 140//114 142//114 141//114
f 143//100 139//100 140//100
f 143//115 140//115 144//115
f 147//116 144//116 145//116
f 141//13 145//13 144//13
f 147//13 146//13 144//13
f 144//117 146//117 143//117
f 147//39 148//39 146//39
f 147//118 149//118 148//118
f 149//119 147//119 150//119
f 151//120 150//120 147//120
f 147//121 145//121 151//121
f 151//13 152//13 150//13
f 151//36 153//36 152//36
f 153//122 151//122 145//122
f 153//123 145//123 154//123
f 154//124 152//124 153//124
f 156//36 154//36 155//36
f 154//13 145//13 155//13
f 152//125 154//125 156//125
f 156//37 155//37 157//37
f 158//63 156//63 157//63
f 156//126 160//126 152//126
f 159//127 156//127 158//127
f 156//128 159//128 160//128
f 161//52 160//52 159//52
f 162//36 160//36 161//36
f 152//52 160//52 162//52
f 149//129 162//129 161//129
f 149//130 150//130 162//130
f 150//13 152//13 162//13
f 161//131 163//131 149//131
f 161//132 158//132 163//132
f 161//133 159//133 158//133
f 163//13 157//13 34//13
f 163//44 158//44 157//44
f 34//37 149//37 163//37
f 34//13 157//13 7//13
f 6//3 157//3 155//3
f 7//1 157//1 6//1
f 155//3 164//3 6//3
f 155//1 132//1 133//1
f 133//1 164//1 155//1
f 132//13 155//13 145//13
f 164//134 133//134 5//134
f 5//134 6//134 164//134
f 148//135 149//135 34//135
f 56//136 148//136 34//136
f 166//137 146//137 148//137
f 166//138 148//138 165//138
f 148//139 134//139 165//139
f 56//140 134//140 148//140
f 165//62 143//62 166//62
f 166//141 143//141 146//141
f 139//135 143//135 165//135
f 139//142 165//142 134//142
f 132//37 145//37 141//37
f 137//143 141//143 142//143
f 142//144 136//144 137//144
f 137//37 132//37 141//37
f 134//145 131//145 139//145
f 56//3 3//3 54//3
f 56//54 34//54 4//54
f 4//54 3//54 56//54
f 8//30 4//30 46//30
f 4//146 33//146 46//146
f 33//146 4//146 34//146
f 9//147 20//147 25//147
f 25//147 22//147 9//147
f 22//148 167//148 11//148
f 11//148 9//148 22//148
f 14//7 167//7 22//7
f 10//149 11//149 167//149
f 167//149 14//149 10//149
f 21//4 20//4 8//4
f 20//4 9//4 8//4
f 7//7 13//7 17//7
