# Blender 5.0.1
# www.blender.org
mtllib torso_y_link_visual_16.mtl
o i01.torso.full.018_visual.001
v 0.257106 0.315275 0.130808
v 0.243543 0.200564 0.138350
v 0.257106 0.049227 0.042868
v 0.256890 -0.204313 0.164974
v 0.187582 0.315275 0.130808
v 0.187582 0.308372 0.025827
v 0.257106 0.308372 0.025827
v 0.228433 0.218782 0.137153
v 0.242524 0.209387 0.137771
v 0.237079 0.216351 0.137314
v 0.231439 0.211737 0.032182
v 0.239218 0.207422 0.032466
v 0.243582 0.199738 0.032970
v 0.240926 0.187371 0.033782
v 0.231439 0.181582 0.034164
v 0.239218 0.192801 0.138861
v 0.234270 0.189502 0.139078
v 0.225427 0.188485 0.139145
v 0.222596 0.182599 0.034098
v 0.187581 0.056130 0.147848
v 0.217648 0.192801 0.138861
v 0.215623 0.188119 0.033735
v 0.213076 0.201102 0.138317
v 0.214342 0.209387 0.137771
v 0.215189 0.204798 0.032638
v 0.213181 0.196660 0.033173
v 0.187581 0.049227 0.042868
v -0.257106 0.040250 -0.093657
v -0.187581 0.049227 0.042868
v 0.257106 0.040250 -0.093657
v 0.081127 -0.067083 -0.086599
v 0.256819 -0.164974 -0.080141
v 0.186319 -0.164954 -0.080165
v 0.149801 -0.081601 -0.085645
v 0.000000 -0.057025 -0.087260
v 0.081127 -0.059859 0.023261
v 0.000000 -0.059374 0.018763
v -0.081127 -0.067083 -0.086599
v -0.081127 -0.059859 0.023261
v -0.081128 -0.051204 0.154905
v -0.149802 -0.065721 0.155861
v -0.149801 -0.081601 -0.085645
v -0.187274 -0.137034 0.160548
v -0.186319 -0.145072 0.007216
v -0.186319 -0.164954 -0.080165
v -0.197076 -0.225094 -0.007993
v -0.256819 -0.167828 -0.123544
v -0.186319 -0.167828 -0.123544
v -0.197076 -0.232414 -0.119297
v -0.256819 -0.164974 -0.080141
v -0.256819 -0.283136 -0.072369
v -0.257106 0.049227 0.042868
v -0.256890 -0.204070 0.164958
v -0.257106 0.315275 0.130808
v -0.257106 0.308372 0.025827
v -0.238708 0.185898 0.033880
v -0.233760 0.182599 0.034098
v -0.224917 0.181582 0.034164
v -0.243033 0.193661 0.033371
v -0.243175 0.203563 0.138153
v -0.242014 0.197739 0.138536
v -0.242014 0.202484 0.032790
v -0.240733 0.212103 0.137592
v -0.236482 0.209442 0.032332
v -0.227923 0.211879 0.032172
v -0.233760 0.217624 0.137228
v -0.224918 0.218641 0.137162
v -0.187582 0.315275 0.130808
v -0.219276 0.209448 0.032331
v -0.217138 0.214324 0.137446
v -0.213832 0.202484 0.032790
v -0.212813 0.206562 0.137957
v -0.212813 0.193661 0.033371
v -0.213832 0.197739 0.138536
v -0.187581 0.056130 0.147848
v -0.187581 0.308372 0.025827
v 0.000000 -0.069325 0.156096
v -0.227923 0.188344 0.139153
v -0.219364 0.190780 0.138994
v -0.217138 0.185898 0.033880
v -0.236482 0.190780 0.138994
v 0.081128 -0.051204 0.154905
v 0.149802 -0.065721 0.155861
v 0.188095 -0.138893 0.160669
v 0.186319 -0.145072 0.007218
v 0.197076 -0.225094 -0.007993
v 0.197682 -0.204313 0.164973
v 0.256819 -0.283136 -0.072369
v 0.186319 -0.283136 -0.072369
v 0.197076 -0.232414 -0.119297
v 0.186319 -0.285991 -0.115775
v 0.256819 -0.285991 -0.115775
v 0.256819 -0.167828 -0.123544
v 0.256819 -0.315275 -0.153949
v 0.256819 -0.147587 -0.164974
v 0.186319 -0.315275 -0.153949
v 0.197076 -0.235038 -0.159225
v 0.186319 -0.147587 -0.164974
v 0.186319 -0.167828 -0.123544
v -0.196945 -0.204070 0.164957
v -0.186319 -0.283136 -0.072369
v -0.186319 -0.285991 -0.115775
v -0.256819 -0.285991 -0.115775
v -0.256819 -0.315275 -0.153949
v -0.256819 -0.147587 -0.164974
v -0.186319 -0.315275 -0.153949
v -0.197076 -0.235038 -0.159225
v -0.186319 -0.147587 -0.164974
v 0.222596 0.210721 0.032248
v 0.219874 0.216345 0.137313
vn 0.0002 0.0656 0.9978
vn -0.0000 0.0656 0.9978
vn 1.0000 -0.0000 -0.0000
vn 1.0000 -0.0003 0.0010
vn -0.0000 0.9978 -0.0656
vn -0.0001 0.0657 0.9978
vn -0.7884 -0.6141 0.0362
vn -0.2713 -0.9608 0.0567
vn -0.4859 -0.8716 0.0643
vn -0.0000 -0.0656 -0.9978
vn -0.0001 -0.0656 -0.9978
vn -0.8700 -0.4917 0.0365
vn 0.0004 -0.0656 -0.9978
vn -0.9777 0.2098 -0.0020
vn -0.9934 -0.1147 0.0005
vn -0.8740 0.4844 -0.0392
vn -0.0002 -0.0656 -0.9978
vn -0.5217 0.8517 -0.0502
vn -0.5556 0.8298 -0.0519
vn 0.0001 0.0656 0.9978
vn -0.1144 0.9908 -0.0717
vn 0.1144 0.9917 -0.0587
vn 0.4859 0.8718 -0.0619
vn 0.6215 0.7820 -0.0468
vn 0.8764 0.4801 -0.0383
vn 0.0004 0.0655 0.9978
vn 0.0005 0.0657 0.9978
vn 0.9886 -0.1500 0.0145
vn 0.9710 -0.2389 0.0111
vn -0.0001 0.0656 0.9978
vn 0.9616 0.2743 -0.0106
vn 0.0003 -0.0657 -0.9978
vn -1.0000 -0.0000 -0.0000
vn 1.0000 -0.0014 0.0001
vn -0.1233 -0.9902 0.0651
vn -0.0048 -0.9997 -0.0222
vn 0.0048 -0.9997 -0.0222
vn 0.1233 -0.9902 0.0651
vn 0.2073 -0.9762 0.0642
vn 0.0096 -0.9978 0.0656
vn 0.8856 -0.4634 0.0305
vn 0.8847 -0.4653 0.0299
vn 0.9144 -0.3947 0.0898
vn 0.9898 -0.1391 0.0316
vn 0.9865 -0.1635 0.0108
vn -0.0003 0.9978 -0.0656
vn -0.0000 0.9978 -0.0661
vn 0.9865 -0.1636 0.0108
vn -0.0003 -0.0657 -0.9978
vn -1.0000 -0.0001 -0.0021
vn -1.0000 -0.0014 0.0001
vn -1.0000 -0.0009 -0.0000
vn -1.0000 -0.0003 0.0010
vn 0.0001 -0.0656 -0.9978
vn 0.9934 -0.1139 0.0121
vn 0.9808 0.1944 -0.0170
vn 0.8740 0.4852 -0.0273
vn 0.9616 -0.2741 0.0134
vn 0.7834 -0.6197 0.0473
vn 0.6215 -0.7821 0.0449
vn 0.2744 -0.9592 0.0677
vn 0.1145 -0.9916 0.0606
vn -0.2713 -0.9600 0.0696
vn -0.4859 -0.8725 0.0504
vn -0.8740 -0.4852 0.0273
vn -0.7884 -0.6135 0.0445
vn -0.9934 -0.1138 0.0140
vn -0.9934 0.1138 -0.0140
vn -0.2744 0.9591 -0.0696
vn -0.7834 0.6199 -0.0454
vn -0.4859 0.8725 -0.0508
vn 0.0002 -0.0656 -0.9978
vn -0.8740 0.4852 -0.0273
vn 0.2744 0.9592 -0.0677
vn 0.1144 0.9916 -0.0606
vn 0.5555 0.8300 -0.0503
vn 0.7834 0.6199 -0.0454
vn -0.2165 -0.9737 -0.0706
vn 0.2165 -0.9737 -0.0706
vn -0.2073 -0.9762 0.0642
vn -0.0096 -0.9978 0.0656
vn -0.8864 -0.4619 0.0304
vn -0.0002 0.0655 0.9979
vn -0.8842 -0.4663 0.0290
vn -0.9905 -0.1364 0.0170
vn -0.9894 -0.1436 0.0207
vn -0.9786 0.2048 -0.0212
vn -0.0000 -0.9490 0.3152
vn -0.9805 0.1960 -0.0129
vn -0.0000 -0.9978 0.0656
vn -0.0000 -0.7934 0.6087
vn -0.9901 -0.1258 -0.0615
vn -0.9865 -0.1636 0.0107
vn -0.9912 0.1323 -0.0087
vn -0.9865 -0.1636 0.0108
vn -0.0000 0.8985 0.4390
vn -0.9722 0.1858 -0.1425
vn 0.0003 0.9978 -0.0656
vn -0.9865 -0.1635 0.0108
vn 1.0000 -0.0009 -0.0000
vn 1.0000 -0.0001 -0.0021
vn -0.9898 -0.1391 0.0316
vn -0.9144 -0.3947 0.0898
vn 0.0002 -0.0657 -0.9978
vn -0.0002 -0.0655 -0.9978
vn -0.0002 0.0656 0.9978
vn -0.0003 0.0656 0.9978
vn 0.0001 0.0655 0.9979
vn -0.0000 -0.9487 0.3161
vn 0.9773 0.2103 -0.0263
vn 0.9898 -0.1417 0.0165
vn 0.9805 0.1960 -0.0129
vn 0.9901 -0.1258 -0.0615
vn 0.9865 -0.1636 0.0107
vn 0.9912 0.1323 -0.0087
vn 0.9722 0.1858 -0.1425
vn 0.9907 -0.1357 0.0133
vn 0.7834 -0.6207 0.0334
vn 0.6253 -0.7782 0.0579
vn 0.2744 -0.9598 0.0585
vn 0.1144 -0.9910 0.0698
s 0
usemtl Material.027
f 1//1 9//1 2//1
f 1//2 2//2 4//2
f 3//3 7//3 1//3
f 1//4 4//4 3//4
f 1//2 5//2 8//2
f 6//5 5//5 1//5
f 1//5 7//5 6//5
f 1//6 8//6 10//6
f 1//1 10//1 9//1
f 9//7 10//7 12//7
f 10//8 8//8 11//8
f 10//9 11//9 12//9
f 11//10 7//10 12//10
f 12//11 7//11 13//11
f 12//12 13//12 9//12
f 13//10 7//10 3//10
f 14//13 13//13 3//13
f 13//14 14//14 2//14
f 13//15 2//15 9//15
f 16//16 2//16 14//16
f 15//17 14//17 3//17
f 14//18 15//18 17//18
f 17//19 16//19 14//19
f 4//2 17//2 18//2
f 4//20 16//20 17//20
f 15//21 18//21 17//21
f 18//22 15//22 19//22
f 20//2 4//2 18//2
f 21//23 18//23 19//23
f 18//2 21//2 20//2
f 19//24 22//24 21//24
f 22//25 23//25 21//25
f 21//26 23//26 20//26
f 24//27 5//27 23//27
f 25//28 24//28 23//28
f 23//29 26//29 25//29
f 23//30 5//30 20//30
f 23//31 22//31 26//31
f 26//32 22//32 27//32
f 6//10 26//10 27//10
f 6//10 25//10 26//10
f 27//11 22//11 19//11
f 27//10 19//10 15//10
f 3//10 27//10 15//10
f 27//5 3//5 30//5
f 6//33 27//33 20//33
f 20//5 27//5 29//5
f 28//5 29//5 27//5
f 27//5 30//5 28//5
f 30//10 31//10 35//10
f 34//10 31//10 30//10
f 3//34 32//34 30//34
f 33//32 30//32 32//32
f 30//10 33//10 34//10
f 30//10 35//10 28//10
f 35//35 31//35 36//35
f 36//36 37//36 35//36
f 35//37 37//37 39//37
f 39//38 38//38 35//38
f 28//10 35//10 38//10
f 39//39 40//39 41//39
f 40//40 39//40 37//40
f 41//39 42//39 39//39
f 38//39 39//39 42//39
f 42//41 41//41 43//41
f 43//42 44//42 42//42
f 28//10 38//10 42//10
f 44//43 45//43 42//43
f 28//10 42//10 45//10
f 45//44 44//44 46//44
f 46//45 49//45 45//45
f 47//46 50//46 45//46
f 45//47 48//47 47//47
f 45//48 49//48 48//48
f 45//49 50//49 28//49
f 51//33 50//33 47//33
f 52//50 50//50 51//50
f 52//51 28//51 50//51
f 52//52 51//52 53//52
f 52//53 53//53 54//53
f 54//33 55//33 52//33
f 59//10 52//10 55//10
f 52//10 58//10 29//10
f 28//5 52//5 29//5
f 56//17 52//17 59//17
f 57//54 52//54 56//54
f 58//10 52//10 57//10
f 60//55 59//55 62//55
f 59//56 60//56 61//56
f 56//57 59//57 61//57
f 62//49 59//49 55//49
f 62//58 63//58 60//58
f 62//59 64//59 63//59
f 64//10 62//10 55//10
f 66//60 63//60 64//60
f 65//10 64//10 55//10
f 66//61 64//61 65//61
f 54//30 66//30 67//30
f 54//1 63//1 66//1
f 65//62 67//62 66//62
f 54//2 67//2 68//2
f 67//2 70//2 68//2
f 67//63 65//63 69//63
f 70//64 67//64 69//64
f 70//2 72//2 68//2
f 71//65 72//65 70//65
f 70//66 69//66 71//66
f 71//67 73//67 72//67
f 74//68 72//68 73//68
f 74//30 75//30 72//30
f 72//2 75//2 68//2
f 41//2 40//2 75//2
f 75//2 40//2 77//2
f 75//2 78//2 53//2
f 75//2 53//2 41//2
f 76//3 68//3 75//3
f 75//3 29//3 76//3
f 29//5 75//5 20//5
f 20//2 75//2 77//2
f 79//2 75//2 74//2
f 79//30 78//30 75//30
f 78//69 79//69 58//69
f 80//70 79//70 74//70
f 80//71 58//71 79//71
f 29//10 58//10 80//10
f 73//72 29//72 80//72
f 74//73 73//73 80//73
f 81//20 53//20 78//20
f 57//74 81//74 78//74
f 78//75 58//75 57//75
f 81//76 57//76 56//76
f 61//77 81//77 56//77
f 61//2 53//2 81//2
f 37//78 77//78 40//78
f 82//79 77//79 37//79
f 20//2 77//2 82//2
f 20//2 82//2 83//2
f 83//80 82//80 36//80
f 37//81 36//81 82//81
f 36//80 34//80 83//80
f 84//82 83//82 34//82
f 4//83 83//83 84//83
f 83//2 4//2 20//2
f 84//2 87//2 4//2
f 34//84 85//84 84//84
f 85//85 86//85 84//85
f 84//86 86//86 87//86
f 86//87 89//87 87//87
f 87//88 88//88 4//88
f 87//88 89//88 88//88
f 86//89 90//89 89//89
f 90//89 91//89 89//89
f 89//90 91//90 92//90
f 92//90 88//90 89//90
f 88//3 92//3 93//3
f 93//3 92//3 94//3
f 94//91 92//91 91//91
f 94//3 95//3 93//3
f 97//10 95//10 94//10
f 91//91 96//91 94//91
f 97//10 94//10 96//10
f 98//10 95//10 97//10
f 99//92 98//92 97//92
f 97//93 90//93 99//93
f 90//94 97//94 96//94
f 93//47 99//47 33//47
f 33//95 99//95 90//95
f 98//96 99//96 93//96
f 93//96 95//96 98//96
f 96//97 91//97 90//97
f 93//3 32//3 88//3
f 33//98 32//98 93//98
f 33//99 90//99 86//99
f 3//100 4//100 88//100
f 3//101 88//101 32//101
f 86//102 85//102 33//102
f 34//103 33//103 85//103
f 54//5 68//5 76//5
f 76//5 55//5 54//5
f 76//10 65//10 55//10
f 76//10 29//10 73//10
f 76//104 73//104 71//104
f 76//105 69//105 65//105
f 76//104 71//104 69//104
f 54//106 60//106 63//106
f 60//107 53//107 61//107
f 54//2 53//2 60//2
f 43//2 53//2 100//2
f 53//108 43//108 41//108
f 53//109 51//109 100//109
f 101//109 100//109 51//109
f 46//110 100//110 101//110
f 43//111 100//111 46//111
f 46//112 101//112 49//112
f 49//112 101//112 102//112
f 103//90 102//90 101//90
f 101//90 51//90 103//90
f 102//91 103//91 104//91
f 104//33 103//33 47//33
f 47//33 103//33 51//33
f 107//10 104//10 105//10
f 47//33 105//33 104//33
f 107//10 106//10 104//10
f 104//91 106//91 102//91
f 107//113 108//113 48//113
f 48//114 49//114 107//114
f 108//10 107//10 105//10
f 106//115 107//115 49//115
f 108//96 105//96 47//96
f 47//96 48//96 108//96
f 49//116 102//116 106//116
f 43//117 46//117 44//117
f 34//80 36//80 31//80
f 25//118 110//118 24//118
f 6//11 109//11 25//11
f 25//119 109//119 110//119
f 110//2 5//2 24//2
f 8//2 5//2 110//2
f 8//120 110//120 109//120
f 6//54 11//54 109//54
f 109//121 11//121 8//121
f 20//33 5//33 6//33
f 2//2 16//2 4//2
f 6//10 7//10 11//10
