# Blender 5.0.1
# www.blender.org
mtllib torso_y_link_visual_33.mtl
o i01.torso.full.035_visual.001
v 0.025378 0.254413 -0.155363
v 0.002879 0.254831 -0.149268
v 0.018129 0.254840 -0.148865
v 0.030440 0.253843 -0.164033
v 0.026670 0.258794 -0.154432
v 0.031988 0.258195 -0.163542
v 0.034225 0.264323 -0.174294
v 0.031988 0.265000 -0.163990
v 0.034225 0.257517 -0.173846
v 0.033162 0.263633 -0.184783
v 0.033162 0.256828 -0.184336
v 0.032570 0.253198 -0.173841
v 0.031557 0.252542 -0.183826
v 0.028901 0.256193 -0.193983
v 0.027502 0.251938 -0.193010
v 0.020803 0.251446 -0.200493
v 0.021862 0.255676 -0.201846
v 0.012733 0.262133 -0.207600
v 0.021862 0.262482 -0.202293
v 0.012733 0.255327 -0.207152
v 0.002406 0.261986 -0.209832
v 0.012112 0.251114 -0.205544
v 0.002406 0.255181 -0.209385
v -0.008105 0.262055 -0.208771
v 0.002283 0.250974 -0.207669
v -0.008105 0.255250 -0.208323
v -0.017775 0.262335 -0.204520
v -0.017775 0.255530 -0.204072
v -0.007722 0.251040 -0.206659
v -0.016926 0.251306 -0.202614
v -0.024426 0.251746 -0.195927
v -0.025653 0.255992 -0.197048
v -0.030971 0.263396 -0.188386
v -0.025653 0.262797 -0.197496
v -0.030971 0.256591 -0.187939
v -0.033209 0.264074 -0.178082
v -0.029488 0.252316 -0.187256
v -0.033209 0.257268 -0.177634
v -0.032144 0.264763 -0.167594
v -0.031618 0.252961 -0.177447
v -0.032145 0.257958 -0.167146
v -0.027885 0.265398 -0.157945
v -0.027885 0.258592 -0.157496
v -0.030606 0.253618 -0.167463
v -0.026550 0.254221 -0.158279
v -0.018637 0.259124 -0.147891
v -0.017652 0.254816 -0.149200
v -0.018430 0.266042 -0.148145
v -0.054468 0.266286 -0.144433
v 0.000771 0.288588 -0.151336
v 0.056003 0.288944 -0.145925
v -0.084695 0.275881 -0.344584
v 0.056010 0.266286 -0.144433
v -0.054469 0.288944 -0.145924
v 0.019054 0.266048 -0.148053
v 0.026670 0.265599 -0.154881
v 0.019054 0.259243 -0.147605
v -0.144628 0.285211 -0.202689
v -0.109706 0.289774 -0.133295
v -0.129780 0.284463 -0.214075
v -0.135038 0.285021 -0.205606
v -0.109707 0.267116 -0.131804
v -0.116512 0.265645 -0.154188
v -0.109707 0.197702 -0.127240
v -0.151369 0.197702 -0.127241
v -0.116512 0.196230 -0.149624
v -0.240300 0.197702 -0.127240
v -0.183166 0.194280 -0.179276
v -0.118809 0.194699 -0.172904
v -0.157144 0.192541 -0.205728
v -0.152641 0.192934 -0.199754
v -0.146941 0.193117 -0.196969
v -0.138831 0.193078 -0.197553
v -0.152180 0.285036 -0.205347
v -0.157667 0.284570 -0.212436
v -0.157635 0.191904 -0.215421
v -0.156309 0.283789 -0.224332
v -0.239172 0.280073 -0.280829
v -0.304376 0.283584 -0.227431
v -0.164891 0.277473 -0.320372
v -0.148653 0.283392 -0.230358
v -0.164888 0.185401 -0.314319
v -0.240300 0.289774 -0.133293
v -0.239170 0.188001 -0.274776
v -0.217355 -0.251615 -0.213088
v -0.239171 -0.253761 -0.245727
v -0.183167 -0.247481 -0.150228
v -0.304376 -0.250250 -0.192329
v -0.152372 0.191460 -0.222173
v -0.146356 0.191280 -0.224902
v -0.136838 0.191369 -0.223542
v -0.142537 0.283346 -0.231051
v -0.134616 0.283542 -0.228074
v -0.130285 0.283998 -0.221133
v -0.130359 0.191879 -0.215793
v -0.109707 0.191697 -0.218567
v -0.129752 0.192309 -0.209256
v -0.116512 0.193169 -0.196181
v -0.132480 0.192772 -0.202220
v -0.109707 0.261111 -0.223131
v -0.116512 0.262583 -0.200746
v -0.118809 0.264114 -0.177468
v -0.098656 0.259755 -0.243760
v -0.083784 0.258566 -0.261842
v -0.098656 0.190340 -0.239196
v -0.083784 0.189151 -0.257278
v -0.084693 0.253223 -0.343095
v -0.084693 0.183809 -0.338531
v -0.000372 0.275348 -0.352694
v -0.000372 0.252690 -0.351204
v 0.083949 0.253201 -0.343426
v 0.085328 0.258566 -0.261842
v 0.083949 0.275859 -0.344916
v 0.164602 0.277477 -0.320312
v 0.150523 0.283559 -0.227825
v 0.164604 0.185405 -0.314259
v 0.142558 0.283346 -0.231051
v 0.083950 0.183787 -0.338861
v 0.238951 0.280073 -0.280827
v 0.304155 0.283584 -0.227431
v 0.155323 0.284447 -0.214310
v 0.238949 0.188001 -0.274775
v 0.111251 0.289774 -0.133293
v 0.152269 0.284861 -0.208019
v 0.154807 0.283999 -0.221132
v 0.243336 0.289774 -0.133293
v 0.357668 0.287863 -0.162367
v 0.300939 0.293893 -0.070663
v 0.243337 0.197703 -0.127239
v 0.111250 0.267116 -0.131804
v 0.118055 0.196230 -0.149623
v 0.118055 0.265645 -0.154187
v 0.111250 0.197702 -0.127240
v 0.120352 0.194699 -0.172904
v 0.120352 0.264114 -0.177468
v 0.118055 0.193169 -0.196181
v 0.118055 0.262583 -0.200746
v 0.111250 0.191697 -0.218566
v 0.111250 0.261111 -0.223130
v 0.100199 0.259755 -0.243760
v 0.100199 0.190340 -0.239196
v 0.135025 0.191347 -0.223893
v 0.145986 0.191306 -0.224501
v 0.085328 0.189151 -0.257277
v 0.154360 0.191790 -0.217129
v 0.155117 0.192432 -0.207381
v 0.189897 0.193881 -0.185346
v 0.150974 0.192884 -0.200503
v 0.145119 0.193097 -0.197268
v 0.146858 0.285140 -0.203765
v 0.139932 0.285201 -0.202841
v 0.132841 0.285031 -0.205428
v 0.138091 0.193116 -0.196984
v 0.129710 0.192773 -0.202199
v 0.127548 0.284577 -0.212333
v 0.127099 0.192276 -0.209753
v 0.128329 0.191797 -0.217040
v 0.127957 0.283923 -0.222278
v 0.133838 0.283460 -0.229323
v 0.189897 -0.247880 -0.156298
v 0.189897 -0.305085 -0.152536
v 0.273455 -0.241906 -0.065445
v 0.238952 -0.253761 -0.245727
v 0.241311 -0.250976 -0.203380
v 0.324869 -0.302207 -0.108766
v 0.241311 -0.308181 -0.199618
v 0.304155 -0.250250 -0.192329
v 0.324869 -0.245002 -0.112528
v 0.367929 -0.244758 -0.108809
v 0.357669 -0.245971 -0.127264
v 0.273455 -0.299111 -0.061684
v 0.271864 -0.311146 -0.067752
v 0.318186 -0.313936 -0.110172
v 0.242903 -0.319318 -0.192027
v 0.196579 -0.316529 -0.149607
v 0.367930 0.289076 -0.143909
v 0.378987 0.294188 -0.066172
v 0.334148 0.319412 0.317437
v 0.378987 -0.214446 0.352168
v 0.378988 -0.239646 -0.031066
v 0.378987 0.319388 0.317066
v 0.334148 -0.214422 0.352540
v 0.300940 -0.239941 -0.035561
v 0.028901 0.262998 -0.194431
v -0.357888 -0.245972 -0.127264
v -0.321483 -0.245396 -0.118514
v -0.230216 -0.250863 -0.201653
v -0.230216 -0.308274 -0.197878
v -0.183167 -0.304892 -0.146452
v -0.232406 -0.319422 -0.190454
v -0.274434 -0.299425 -0.063312
v -0.190016 -0.316375 -0.144119
v -0.314635 -0.314497 -0.115548
v -0.272245 -0.311450 -0.069213
v -0.321483 -0.302807 -0.114738
v -0.274434 -0.242014 -0.067087
v -0.306021 -0.240175 -0.039116
v -0.306031 0.293680 -0.073889
v -0.367829 -0.244751 -0.108707
v -0.378986 -0.239656 -0.031224
v -0.378986 0.294177 -0.066329
v -0.367830 0.289083 -0.143808
v -0.357888 0.287863 -0.162367
v -0.378988 0.319378 0.316920
v -0.336681 0.319422 0.317592
v -0.378987 -0.214456 0.352022
v -0.336681 -0.214412 0.352694
vn -0.0009 -0.9979 0.0651
vn -0.0011 -0.9979 0.0644
vn 0.6183 -0.3335 0.7117
vn 0.8020 -0.3406 0.4906
vn 0.8020 -0.3407 0.4906
vn 0.9773 0.0139 0.2113
vn 0.8641 0.0331 0.5023
vn 0.9108 -0.3489 0.2207
vn 0.9949 -0.0066 -0.1004
vn 0.9314 -0.3569 -0.0709
vn 0.9109 -0.3487 0.2208
vn 0.9313 -0.3572 -0.0710
vn -0.0005 -0.9978 0.0657
vn -0.0007 -0.9979 0.0655
vn 0.8605 -0.3645 -0.3560
vn 0.8606 -0.3643 -0.3560
vn -0.0004 -0.9978 0.0658
vn -0.0003 -0.9978 0.0658
vn 0.7041 -0.3701 -0.6061
vn 0.7041 -0.3700 -0.6060
vn 0.5033 -0.0567 -0.8622
vn 0.7458 -0.0437 -0.6648
vn 0.4767 -0.3738 -0.7956
vn 0.2117 -0.0641 -0.9752
vn 0.2118 -0.0641 -0.9752
vn 0.4768 -0.3738 -0.7956
vn 0.2010 -0.3749 -0.9050
vn -0.1007 -0.0652 -0.9928
vn -0.1007 -0.0653 -0.9928
vn 0.2010 -0.3750 -0.9050
vn -0.0956 -0.3735 -0.9227
vn -0.4032 -0.0600 -0.9132
vn -0.4032 -0.0601 -0.9131
vn -0.3829 -0.3695 -0.8467
vn -0.0956 -0.3734 -0.9227
vn -0.3829 -0.3693 -0.8468
vn 0.0001 -0.9978 0.0659
vn -0.0000 -0.9978 0.0659
vn 0.0002 -0.9978 0.0658
vn -0.6317 -0.3634 -0.6847
vn -0.8641 -0.0330 -0.5023
vn -0.8641 -0.0331 -0.5022
vn -0.6662 -0.0490 -0.7441
vn -0.8171 -0.3559 -0.4536
vn -0.9773 -0.0139 -0.2113
vn -0.8170 -0.3560 -0.4535
vn -0.9207 -0.3478 -0.1770
vn -0.9949 0.0068 0.1004
vn -0.9949 0.0066 0.1005
vn -0.9333 -0.3396 0.1169
vn -0.9151 0.0265 0.4023
vn -0.9152 0.0266 0.4022
vn -0.8545 -0.3324 0.3992
vn 0.0007 -0.9979 0.0653
vn 0.0005 -0.9978 0.0656
vn -0.6566 -0.3528 0.6667
vn -0.6724 -0.3245 0.6653
vn 0.0009 -0.9979 0.0645
vn 0.0034 -0.2901 0.9570
vn -0.7209 0.0470 0.6914
vn 0.0707 0.0344 0.9969
vn -0.7204 0.0456 0.6921
vn -0.0000 -0.9978 0.0656
vn 0.1027 0.0532 0.9933
vn 0.0873 0.0663 0.9940
vn -0.0000 0.9978 -0.0656
vn -0.0977 0.0653 0.9931
vn -0.0977 0.0654 0.9931
vn 0.0977 0.0653 0.9931
vn -0.1118 0.0538 0.9923
vn 0.6683 0.0489 0.7423
vn -0.1197 0.0652 0.9907
vn -0.0253 -0.2701 0.9625
vn 0.6183 -0.3336 0.7116
vn 0.2233 0.0640 0.9726
vn -0.0001 0.9979 -0.0654
vn 0.0001 0.9978 -0.0657
vn 0.9569 -0.0190 -0.2897
vn -0.0000 0.0656 0.9978
vn -0.0002 0.0657 0.9978
vn -0.0000 -0.9978 0.0657
vn -0.0719 -0.0600 -0.9956
vn 0.4397 -0.0566 -0.8963
vn 0.3326 -0.0668 -0.9407
vn 0.7915 -0.0410 -0.6099
vn -0.0001 0.9978 -0.0656
vn 0.7992 -0.0392 -0.5998
vn 0.9987 0.0020 -0.0508
vn 0.9935 -0.0033 0.1136
vn -0.0001 0.9978 -0.0655
vn -0.6344 -0.0507 -0.7713
vn -0.4707 -0.0579 -0.8804
vn -0.0000 0.9978 -0.0657
vn 0.8319 -0.0364 -0.5537
vn 0.8789 -0.0232 -0.4765
vn 0.8631 -0.0331 -0.5040
vn 0.6193 0.0447 0.7839
vn 0.4139 0.0641 0.9081
vn -0.0001 -0.9978 0.0656
vn 0.7893 0.0480 0.6121
vn -0.1417 0.0718 0.9873
vn 0.1129 0.0616 0.9917
vn -0.3525 0.0544 0.9342
vn -0.7678 0.0499 0.6387
vn -0.8489 0.0313 0.5277
vn -0.9975 0.0049 0.0710
vn -0.9957 0.0045 0.0922
vn -0.9326 -0.0191 -0.3604
vn -0.8501 -0.0428 -0.5249
vn -0.5930 -0.0460 -0.8039
vn 0.9569 0.0190 0.2897
vn 0.9952 0.0064 0.0978
vn 0.9952 -0.0064 -0.0978
vn 0.8819 0.0309 0.4704
vn 0.7730 0.0416 0.6330
vn 0.9999 -0.0007 -0.0111
vn -0.2896 -0.0628 -0.9551
vn -0.0959 -0.0653 -0.9932
vn 0.0920 -0.0653 -0.9936
vn 0.0921 -0.0654 -0.9936
vn 0.2924 -0.0628 -0.9542
vn 0.2923 -0.0627 -0.9543
vn 0.4698 -0.0579 -0.8809
vn 0.2924 -0.0627 -0.9542
vn 0.6344 -0.0507 -0.7714
vn -0.7367 0.0444 0.6747
vn -0.9569 -0.0190 -0.2897
vn -0.2233 0.0640 0.9726
vn -0.9952 -0.0064 -0.0978
vn -0.9952 0.0064 0.0978
vn -0.9569 0.0190 0.2897
vn -0.8819 0.0309 0.4704
vn -0.7730 0.0416 0.6330
vn -0.9999 0.0011 0.0168
vn 0.0555 0.0729 0.9958
vn -0.6615 0.0595 0.7476
vn -0.3761 0.0518 0.9251
vn -0.9970 0.0080 0.0769
vn 0.0001 -0.9978 0.0657
vn -0.9972 0.0081 0.0748
vn -0.8427 0.0274 0.5377
vn -0.9000 -0.0307 -0.4348
vn -0.8571 -0.0300 -0.5143
vn -0.6189 -0.0553 -0.7835
vn -0.4845 -0.0525 -0.8732
vn -0.1325 -0.0673 -0.9889
vn 0.3434 -0.0664 -0.9368
vn -0.0403 -0.0626 -0.9972
vn 0.5291 -0.0476 -0.8472
vn 0.7942 -0.0482 -0.6057
vn 0.9453 -0.0137 -0.3258
vn 0.9861 0.0134 0.1656
vn 0.9991 -0.0037 0.0413
vn 0.7684 0.0394 0.6388
vn 0.1948 0.0602 0.9790
vn 0.7160 0.0503 0.6963
vn -0.7368 0.0444 0.6747
vn -0.8772 -0.0315 -0.4791
vn -0.6761 -0.0483 -0.7352
vn 0.7368 -0.0444 -0.6747
vn 0.6762 0.0483 0.7352
vn 0.6761 0.0484 0.7352
vn -0.7062 -0.2421 0.6654
vn 0.5982 -0.4224 0.6810
vn 0.5982 -0.4225 0.6810
vn 0.7062 -0.3270 -0.6280
vn -0.5982 -0.5080 -0.6198
vn 0.7062 -0.3271 -0.6280
vn -0.7062 -0.2420 0.6654
vn 0.8744 -0.0318 -0.4841
vn 0.8745 -0.0318 -0.4841
vn 0.7730 -0.0416 -0.6330
vn 0.9901 -0.0092 -0.1402
vn 1.0000 -0.0000 -0.0000
vn 0.0083 0.0656 0.9978
vn -0.9964 0.0056 0.0849
vn 0.6344 -0.0507 -0.7713
vn 0.7457 -0.0438 -0.6648
vn 0.9151 -0.0264 -0.4024
vn 0.9151 -0.0265 -0.4024
vn -0.7730 -0.0416 -0.6330
vn 0.7385 -0.0442 -0.6728
vn -0.6742 -0.0485 -0.7369
vn 0.6534 -0.5043 -0.5646
vn 0.6534 -0.5044 -0.5646
vn 0.6742 0.0485 0.7369
vn 0.6462 -0.2381 0.7250
vn 0.6462 -0.2382 0.7250
vn -0.6534 -0.4261 0.6257
vn -0.6534 -0.4260 0.6258
vn -0.7385 0.0442 0.6728
vn -0.6462 -0.3310 -0.6876
vn 0.6638 0.0486 0.7464
vn 0.6716 0.0490 0.7393
vn -0.9898 -0.0093 -0.1419
vn -0.8819 -0.0309 -0.4704
vn -1.0000 -0.0000 -0.0000
vn -0.0159 0.0656 0.9977
vn 0.9970 0.0051 0.0777
vn 0.6713 0.0486 0.7396
vn 0.6741 0.0485 0.7370
vn -0.2916 -0.0715 -0.9539
vn 0.0004 -0.9978 0.0657
vn 0.0003 -0.9978 0.0658
vn -0.0001 -0.9978 0.0659
vn -0.0002 -0.9978 0.0659
s 0
usemtl Material.027
f 4//1 1//1 2//1
f 1//2 3//2 2//2
f 3//3 1//3 5//3
f 1//4 4//4 6//4
f 6//5 5//5 1//5
f 6//6 9//6 7//6
f 7//6 8//6 6//6
f 5//7 6//7 8//7
f 9//8 6//8 4//8
f 9//9 11//9 10//9
f 10//9 7//9 9//9
f 11//10 9//10 12//10
f 4//11 12//11 9//11
f 12//12 13//12 11//12
f 13//13 12//13 2//13
f 12//14 4//14 2//14
f 14//15 11//15 13//15
f 13//16 15//16 14//16
f 15//17 13//17 2//17
f 16//18 15//18 2//18
f 15//19 16//19 17//19
f 17//20 14//20 15//20
f 17//21 20//21 18//21
f 18//21 19//21 17//21
f 14//22 17//22 19//22
f 20//23 17//23 16//23
f 20//24 23//24 21//24
f 21//25 18//25 20//25
f 16//26 22//26 20//26
f 23//27 20//27 22//27
f 24//28 21//28 23//28
f 23//29 26//29 24//29
f 22//30 25//30 23//30
f 26//31 23//31 25//31
f 27//32 24//32 26//32
f 26//33 28//33 27//33
f 28//34 26//34 29//34
f 25//35 29//35 26//35
f 29//36 30//36 28//36
f 30//37 29//37 2//37
f 29//38 25//38 2//38
f 31//39 30//39 2//39
f 30//40 31//40 32//40
f 32//40 28//40 30//40
f 32//41 35//41 33//41
f 33//42 34//42 32//42
f 28//43 32//43 34//43
f 35//44 32//44 31//44
f 35//45 38//45 36//45
f 36//45 33//45 35//45
f 31//46 37//46 35//46
f 38//47 35//47 37//47
f 38//48 41//48 39//48
f 39//49 36//49 38//49
f 41//50 38//50 40//50
f 37//47 40//47 38//47
f 41//51 43//51 42//51
f 42//52 39//52 41//52
f 43//53 41//53 44//53
f 40//50 44//50 41//50
f 45//54 44//54 2//54
f 44//53 45//53 43//53
f 2//55 44//55 40//55
f 45//56 47//56 46//56
f 46//57 43//57 45//57
f 47//58 45//58 2//58
f 46//59 47//59 2//59
f 43//60 46//60 48//60
f 48//61 46//61 2//61
f 48//62 42//62 43//62
f 48//63 49//63 42//63
f 49//64 48//64 50//64
f 48//65 2//65 50//65
f 52//66 50//66 51//66
f 50//67 53//67 51//67
f 50//66 52//66 54//66
f 53//68 50//68 55//68
f 50//69 54//69 49//69
f 55//70 50//70 2//70
f 56//71 55//71 57//71
f 53//63 55//63 56//63
f 57//72 55//72 2//72
f 57//71 5//71 56//71
f 3//73 57//73 2//73
f 5//74 57//74 3//74
f 8//7 56//7 5//7
f 53//63 56//63 8//63
f 54//75 62//75 49//75
f 58//76 54//76 61//76
f 58//66 59//66 54//66
f 62//75 54//75 59//75
f 60//66 54//66 52//66
f 61//77 54//77 60//77
f 63//63 49//63 62//63
f 63//78 62//78 64//78
f 62//79 65//79 64//79
f 65//80 62//80 59//80
f 64//63 65//63 66//63
f 69//63 66//63 65//63
f 59//79 67//79 65//79
f 68//63 65//63 67//63
f 68//63 70//63 65//63
f 72//63 69//63 65//63
f 70//63 71//63 65//63
f 71//63 72//63 65//63
f 69//81 72//81 73//81
f 73//82 72//82 58//82
f 71//83 74//83 72//83
f 58//84 72//84 74//84
f 75//66 59//66 74//66
f 75//85 74//85 71//85
f 74//86 59//86 58//86
f 71//87 70//87 75//87
f 70//88 76//88 75//88
f 78//66 59//66 75//66
f 77//89 75//89 76//89
f 77//90 78//90 75//90
f 78//91 84//91 79//91
f 79//66 83//66 78//66
f 81//66 80//66 78//66
f 78//92 80//92 82//92
f 81//93 78//93 77//93
f 83//66 59//66 78//66
f 82//92 84//92 78//92
f 79//91 84//91 88//91
f 84//94 85//94 86//94
f 84//95 87//95 85//95
f 86//91 88//91 84//91
f 87//96 84//96 68//96
f 84//63 70//63 68//63
f 76//63 70//63 84//63
f 89//63 76//63 84//63
f 89//63 84//63 82//63
f 77//97 89//97 81//97
f 89//98 90//98 81//98
f 90//99 89//99 82//99
f 76//100 89//100 77//100
f 91//63 90//63 82//63
f 90//101 91//101 92//101
f 92//102 81//102 90//102
f 52//66 92//66 93//66
f 93//103 92//103 91//103
f 92//66 80//66 81//66
f 52//66 80//66 92//66
f 91//104 95//104 93//104
f 52//66 93//66 94//66
f 94//105 93//105 95//105
f 96//63 97//63 95//63
f 96//63 95//63 91//63
f 60//106 94//106 95//106
f 95//107 97//107 60//107
f 97//63 96//63 98//63
f 99//63 97//63 98//63
f 97//108 99//108 60//108
f 98//63 73//63 99//63
f 60//109 99//109 61//109
f 99//110 73//110 61//110
f 73//63 98//63 69//63
f 100//111 101//111 98//111
f 98//111 96//111 100//111
f 69//112 98//112 101//112
f 101//63 49//63 102//63
f 101//112 102//112 69//112
f 100//63 49//63 101//63
f 102//113 63//113 66//113
f 66//113 69//113 102//113
f 63//63 102//63 49//63
f 103//114 100//114 96//114
f 103//63 49//63 100//63
f 96//114 105//114 103//114
f 104//63 49//63 103//63
f 104//115 103//115 105//115
f 105//63 96//63 91//63
f 105//115 106//115 104//115
f 106//63 105//63 82//63
f 105//63 91//63 82//63
f 107//116 104//116 106//116
f 108//63 106//63 82//63
f 106//116 108//116 107//116
f 80//117 107//117 108//117
f 108//117 82//117 80//117
f 107//63 110//63 104//63
f 109//118 107//118 52//118
f 107//118 109//118 110//118
f 80//117 52//117 107//117
f 113//119 110//119 109//119
f 112//63 110//63 111//63
f 110//120 113//120 111//120
f 104//63 110//63 112//63
f 52//66 114//66 113//66
f 114//121 111//121 113//121
f 52//66 113//66 109//66
f 119//66 114//66 115//66
f 115//86 114//86 117//86
f 117//66 114//66 52//66
f 118//122 114//122 116//122
f 119//123 116//123 114//123
f 114//124 118//124 111//124
f 120//125 122//125 119//125
f 119//66 126//66 120//66
f 119//66 125//66 121//66
f 119//66 121//66 124//66
f 116//123 119//123 122//123
f 119//66 123//66 126//66
f 123//66 119//66 124//66
f 119//66 115//66 125//66
f 120//66 126//66 127//66
f 126//66 128//66 127//66
f 130//79 126//79 123//79
f 126//126 129//126 128//126
f 129//79 126//79 130//79
f 130//127 132//127 131//127
f 131//127 133//127 130//127
f 53//63 132//63 130//63
f 130//79 133//79 129//79
f 123//128 53//128 130//128
f 131//63 129//63 133//63
f 53//63 135//63 132//63
f 132//129 135//129 134//129
f 134//129 131//129 132//129
f 135//63 53//63 137//63
f 135//130 137//130 136//130
f 136//130 134//130 135//130
f 137//131 139//131 138//131
f 138//131 136//131 137//131
f 137//63 53//63 139//63
f 139//63 53//63 140//63
f 139//132 140//132 141//132
f 141//132 138//132 139//132
f 141//63 116//63 143//63
f 144//63 116//63 141//63
f 141//63 142//63 138//63
f 141//81 143//81 142//81
f 144//133 141//133 140//133
f 140//133 112//133 144//133
f 112//134 118//134 144//134
f 118//63 116//63 144//63
f 142//135 143//135 117//135
f 143//99 116//99 145//99
f 143//136 145//136 115//136
f 117//137 143//137 115//137
f 145//138 146//138 121//138
f 145//139 122//139 146//139
f 145//63 116//63 122//63
f 121//140 125//140 145//140
f 125//141 115//141 145//141
f 147//63 129//63 146//63
f 147//63 146//63 122//63
f 124//142 121//142 146//142
f 146//143 148//143 124//143
f 146//63 129//63 148//63
f 150//144 124//144 148//144
f 148//81 129//81 149//81
f 148//145 149//145 150//145
f 150//66 123//66 124//66
f 150//66 151//66 51//66
f 151//146 150//146 149//146
f 51//66 123//66 150//66
f 152//66 51//66 151//66
f 151//147 153//147 152//147
f 149//148 153//148 151//148
f 153//81 149//81 134//81
f 153//63 134//63 136//63
f 154//81 153//81 136//81
f 153//149 154//149 152//149
f 154//99 136//99 156//99
f 155//150 152//150 154//150
f 154//151 156//151 155//151
f 156//63 136//63 138//63
f 138//63 157//63 156//63
f 156//152 157//152 158//152
f 158//153 155//153 156//153
f 158//66 159//66 52//66
f 159//154 158//154 157//154
f 158//66 52//66 155//66
f 117//93 52//93 159//93
f 117//155 159//155 142//155
f 157//156 142//156 159//156
f 138//63 142//63 157//63
f 52//66 51//66 155//66
f 152//66 155//66 51//66
f 149//63 129//63 134//63
f 160//157 129//157 147//157
f 122//158 160//158 147//158
f 128//157 129//157 160//157
f 160//158 122//158 163//158
f 162//157 128//157 160//157
f 162//157 160//157 161//157
f 164//159 161//159 160//159
f 160//63 163//63 164//63
f 163//63 167//63 164//63
f 165//160 166//160 164//160
f 165//160 164//160 168//160
f 161//159 164//159 166//159
f 164//63 167//63 168//63
f 169//63 162//63 168//63
f 169//63 168//63 170//63
f 167//63 170//63 168//63
f 171//161 168//161 162//161
f 168//162 171//162 165//162
f 162//157 161//157 171//157
f 161//163 172//163 171//163
f 173//164 171//164 172//164
f 171//165 173//165 165//165
f 173//63 172//63 174//63
f 174//166 165//166 173//166
f 172//63 175//63 174//63
f 175//167 166//167 174//167
f 165//168 174//168 166//168
f 172//169 161//169 175//169
f 166//167 175//167 161//167
f 170//170 176//170 169//170
f 176//171 170//171 127//171
f 167//172 127//172 170//172
f 128//66 177//66 176//66
f 176//66 127//66 128//66
f 169//173 176//173 177//173
f 178//66 181//66 177//66
f 128//66 178//66 177//66
f 179//174 180//174 177//174
f 177//174 181//174 179//174
f 177//173 180//173 169//173
f 182//175 179//175 181//175
f 181//175 178//175 182//175
f 180//63 182//63 183//63
f 180//63 179//63 182//63
f 178//176 183//176 182//176
f 128//157 162//157 183//157
f 162//63 169//63 183//63
f 183//176 178//176 128//176
f 169//63 180//63 183//63
f 120//177 167//177 122//177
f 127//172 167//172 120//172
f 167//177 163//177 122//177
f 140//63 53//63 112//63
f 131//63 134//63 129//63
f 53//128 123//128 51//128
f 118//134 112//134 111//134
f 112//63 21//63 104//63
f 112//63 53//63 10//63
f 112//63 10//63 184//63
f 18//63 21//63 112//63
f 19//63 18//63 112//63
f 112//63 184//63 19//63
f 19//178 184//178 14//178
f 184//179 10//179 11//179
f 11//180 14//180 184//180
f 104//63 36//63 49//63
f 21//63 24//63 104//63
f 27//63 104//63 24//63
f 27//63 34//63 104//63
f 34//63 33//63 104//63
f 33//63 36//63 104//63
f 52//86 94//86 60//86
f 185//181 79//181 88//181
f 88//63 186//63 185//63
f 86//63 187//63 88//63
f 88//63 187//63 186//63
f 187//182 189//182 188//182
f 186//183 187//183 188//183
f 86//63 85//63 187//63
f 187//63 85//63 87//63
f 189//182 187//182 87//182
f 189//184 190//184 188//184
f 190//185 189//185 192//185
f 191//186 189//186 87//186
f 191//187 192//187 189//187
f 193//63 190//63 192//63
f 193//63 192//63 194//63
f 192//188 191//188 194//188
f 194//189 195//189 193//189
f 195//190 194//190 191//190
f 186//183 188//183 195//183
f 191//191 186//191 195//191
f 188//192 193//192 195//192
f 193//192 188//192 190//192
f 191//186 87//186 196//186
f 186//191 191//191 196//191
f 197//193 196//193 198//193
f 199//63 196//63 197//63
f 196//63 199//63 186//63
f 198//194 196//194 67//194
f 87//186 67//186 196//186
f 199//63 197//63 200//63
f 201//195 199//195 200//195
f 199//195 201//195 202//195
f 203//196 199//196 202//196
f 199//196 203//196 185//196
f 185//63 186//63 199//63
f 203//66 202//66 198//66
f 79//181 185//181 203//181
f 203//66 198//66 83//66
f 79//66 203//66 83//66
f 198//66 202//66 201//66
f 205//66 201//66 204//66
f 201//197 206//197 204//197
f 198//66 201//66 205//66
f 206//197 201//197 200//197
f 207//198 204//198 206//198
f 200//63 207//63 206//63
f 205//199 207//199 197//199
f 200//63 197//63 207//63
f 204//198 207//198 205//198
f 197//199 198//199 205//199
f 198//200 67//200 83//200
f 68//201 67//201 87//201
f 67//79 59//79 83//79
f 61//202 73//202 58//202
f 64//78 66//78 63//78
f 53//63 7//63 10//63
f 53//63 8//63 7//63
f 36//63 39//63 49//63
f 42//63 49//63 39//63
f 2//203 40//203 37//203
f 2//204 37//204 31//204
f 34//43 27//43 28//43
f 25//205 22//205 2//205
f 22//206 16//206 2//206
