# Blender 5.0.1
# www.blender.org
mtllib torso_y_link_visual_49.mtl
o i01.torso.full.051_visual.001
v 0.110854 -0.216798 -0.344610
v 0.122240 -0.221599 -0.306788
v 0.129939 -0.252091 -0.344110
v 0.070821 -0.166469 -0.387115
v 0.105160 -0.237779 -0.408237
v 0.116459 -0.211636 -0.307329
v 0.113294 -0.204036 -0.302369
v 0.086401 -0.171406 -0.337952
v 0.112772 -0.199632 -0.293915
v 0.079457 -0.136321 -0.282901
v 0.069330 -0.139749 -0.334276
v 0.059401 -0.130340 -0.267255
v 0.059408 -0.134184 -0.325704
v 0.115590 -0.201043 -0.284484
v 0.088591 -0.132919 -0.232821
v 0.096197 -0.130215 -0.189275
v 0.120210 -0.206653 -0.277305
v 0.059396 -0.125216 -0.189604
v 0.166801 -0.259302 -0.180787
v 0.145496 -0.240048 -0.243855
v 0.143705 -0.256344 -0.294065
v 0.126855 -0.217416 -0.274499
v 0.131712 -0.227963 -0.278916
v 0.163243 -0.285440 -0.263311
v 0.192372 -0.321047 -0.176724
v 0.146903 -0.293804 -0.346325
v 0.175192 -0.327603 -0.276159
v 0.195142 -0.328954 -0.296516
v 0.212025 -0.325199 -0.239408
v 0.184671 -0.331719 -0.338566
v 0.158237 -0.332362 -0.348353
v 0.142961 -0.335835 -0.401817
v 0.162847 -0.335888 -0.401814
v 0.128108 -0.288991 -0.404889
v 0.214516 -0.322058 -0.402721
v 0.191775 -0.258746 -0.406878
v 0.207308 -0.255346 -0.347806
v 0.193397 -0.225224 -0.344809
v 0.169700 -0.214687 -0.409774
v 0.220598 -0.288376 -0.347774
v 0.242895 -0.295908 -0.267252
v 0.246863 -0.332071 -0.298457
v 0.220593 -0.253938 -0.289628
v 0.231365 -0.326990 -0.351120
v 0.225426 -0.356143 -0.301808
v 0.209469 -0.350229 -0.352927
v 0.192768 -0.346330 -0.401126
v 0.222942 -0.376276 -0.308539
v 0.189315 -0.368377 -0.399666
v 0.154029 -0.370677 -0.399514
v 0.160180 -0.382185 -0.398751
v 0.195587 -0.382194 -0.398726
v 0.187280 -0.376193 -0.307284
v 0.226477 -0.369592 -0.206701
v 0.189935 -0.358567 -0.300452
v 0.174379 -0.352928 -0.351562
v 0.157584 -0.349079 -0.400945
v 0.198943 -0.335532 -0.297092
v 0.211645 -0.362423 -0.245421
v 0.212793 -0.340397 -0.241313
v 0.238551 -0.346593 -0.182304
v 0.231293 -0.320982 -0.176716
v 0.250360 -0.352711 -0.112508
v 0.248038 -0.365824 -0.149589
v 0.284315 -0.365904 -0.150801
v 0.263642 -0.356601 -0.009328
v 0.267076 -0.368986 -0.197680
v 0.247491 -0.360196 -0.246769
v 0.247338 -0.372068 -0.244558
v 0.274585 -0.343679 -0.183649
v 0.261069 -0.337179 -0.242669
v 0.286698 -0.350101 -0.113839
v 0.262089 -0.299896 -0.172907
v 0.239057 -0.260345 -0.213754
v 0.281298 -0.272905 0.016378
v 0.285466 -0.298409 -0.014927
v 0.309040 -0.299072 0.114100
v 0.296086 -0.331635 -0.005613
v 0.312071 -0.322034 0.091329
v 0.301448 -0.356233 -0.003811
v 0.278939 -0.349567 0.097637
v 0.270506 -0.353945 0.030628
v 0.333915 -0.341742 0.216654
v 0.296564 -0.341741 0.216657
v 0.330012 -0.309991 0.214560
v 0.286973 -0.290537 0.213280
v 0.292494 -0.314272 0.214837
v 0.324937 -0.287008 0.213059
v 0.253041 -0.208820 0.207918
v 0.255215 -0.106669 0.201197
v 0.303102 -0.265235 0.147183
v 0.270455 -0.185210 0.144428
v 0.218242 -0.111267 0.060763
v 0.277448 -0.221535 0.111504
v 0.239838 -0.185568 0.010732
v 0.265052 -0.236278 0.015605
v 0.189041 -0.163589 -0.209732
v 0.158552 -0.116414 -0.234971
v 0.182427 -0.179266 -0.282600
v 0.169248 -0.102422 -0.150749
v 0.189021 -0.185806 -0.268600
v 0.222120 -0.235833 -0.239367
v 0.205757 -0.210695 -0.253693
v 0.197125 -0.196794 -0.258633
v 0.165649 -0.209589 -0.253866
v 0.165530 -0.189392 -0.264476
v 0.165570 -0.199533 -0.257343
v 0.143470 -0.212728 -0.274817
v 0.143457 -0.205096 -0.278857
v 0.143513 -0.200678 -0.284918
v 0.143443 -0.199772 -0.293345
v 0.165570 -0.183569 -0.272303
v 0.165442 -0.179380 -0.282681
v 0.165619 -0.178803 -0.297323
v 0.178366 -0.182414 -0.307812
v 0.165440 -0.183880 -0.310724
v 0.178920 -0.178925 -0.297305
v 0.099244 -0.057482 -0.346924
v 0.066549 -0.069972 -0.086847
v 0.112498 -0.039824 -0.259214
v 0.087704 -0.072708 -0.419132
v 0.184616 -0.201209 -0.325886
v 0.179810 -0.189052 -0.317501
v 0.165635 -0.193751 -0.321606
v 0.143499 -0.202981 -0.301403
v 0.165570 -0.204102 -0.326824
v 0.143427 -0.209625 -0.306332
v 0.143379 -0.217525 -0.307724
v 0.165529 -0.214719 -0.328962
v 0.143528 -0.226854 -0.304060
v 0.165570 -0.225968 -0.327536
v 0.195963 -0.223103 -0.328354
v 0.165517 -0.236774 -0.322928
v 0.204366 -0.236732 -0.322928
v 0.143529 -0.231372 -0.297797
v 0.165550 -0.246699 -0.313560
v 0.211905 -0.247357 -0.312634
v 0.165628 -0.252957 -0.300199
v 0.217974 -0.253215 -0.299060
v 0.165570 -0.253810 -0.288666
v 0.143435 -0.232712 -0.291591
v 0.132107 -0.232972 -0.290474
v 0.143410 -0.231701 -0.285361
v 0.165580 -0.251647 -0.277603
v 0.143440 -0.228393 -0.279923
v 0.143402 -0.222077 -0.275584
v 0.165570 -0.246099 -0.268191
v 0.165488 -0.237437 -0.259838
v 0.213420 -0.225446 -0.254436
v 0.219087 -0.238705 -0.260710
v 0.165519 -0.224256 -0.254157
v 0.221775 -0.250022 -0.273793
v 0.127708 -0.229429 -0.301464
v 0.189630 -0.211289 -0.328499
v 0.066559 -0.091749 -0.417866
v 0.059400 -0.140034 -0.414690
v 0.062000 -0.142797 -0.383824
v 0.010960 -0.086579 -0.418204
v 0.066597 -0.163626 -0.413139
v 0.080251 -0.194955 -0.411079
v 0.010960 -0.069113 -0.152575
v 0.038971 -0.061305 -0.419867
v 0.038971 -0.043839 -0.154244
v -0.133222 0.089996 -0.163031
v -0.134691 0.152102 -0.101448
v -0.105211 0.115270 -0.164698
v -0.105211 0.097803 -0.430329
v -0.178453 0.122443 -0.431949
v -0.134691 0.130336 -0.432467
v -0.133222 0.072529 -0.428668
v -0.178635 0.124949 -0.396913
v -0.178635 0.131581 -0.296054
v -0.178612 0.128744 -0.338628
v -0.194337 0.141908 -0.306881
v -0.193060 0.140151 -0.319047
v -0.200482 0.144209 -0.329232
v -0.211562 0.151563 -0.331881
v -0.266009 0.182666 -0.375353
v -0.265897 0.187790 -0.341791
v -0.219271 0.157078 -0.328911
v -0.224820 0.162194 -0.322304
v -0.225031 0.163451 -0.310275
v -0.265902 0.196879 -0.288957
v -0.333909 0.223911 -0.317031
v -0.333908 0.214687 -0.383547
v -0.265146 0.174670 -0.435372
v -0.333909 0.209150 -0.437650
v -0.333907 0.238848 -0.352830
v -0.333908 0.285166 -0.061389
v -0.296161 0.213850 -0.437960
v -0.296160 0.221992 -0.373930
v -0.333907 0.242196 -0.200175
v -0.333909 0.229564 -0.438993
v -0.333908 0.266814 -0.048982
v -0.265882 0.213362 -0.191611
v -0.265996 0.218781 -0.162722
v -0.265736 0.202425 -0.256878
v -0.178635 0.138825 -0.185882
v -0.178571 0.135167 -0.240086
v -0.178635 0.141448 -0.145993
v -0.178793 0.144935 -0.095310
v -0.178603 0.146253 -0.072379
v -0.265930 0.232972 -0.080802
v -0.126046 0.189065 -0.075196
v -0.265787 0.262409 -0.082746
v -0.265903 0.242172 -0.038943
v -0.265800 0.286080 0.016908
v -0.265902 0.261966 0.036862
v -0.333909 0.284091 0.025119
v -0.333909 0.314204 0.131097
v -0.265901 0.301891 0.174334
v -0.333908 0.327687 0.172621
v -0.296161 0.343687 0.171585
v -0.265799 0.331065 0.172415
v -0.233905 0.315085 0.173464
v -0.236334 0.360680 0.170466
v -0.290064 0.382194 0.169054
v -0.233365 0.316439 0.029142
v -0.290036 0.367658 0.126032
v -0.184380 0.334497 0.172190
v -0.197259 0.314241 0.083095
v -0.130208 0.303562 0.174209
v -0.061803 0.261919 0.176964
v -0.085009 0.251616 0.088631
v -0.156796 0.282182 0.047161
v -0.193435 0.291661 0.006487
v -0.137776 0.253595 -0.020926
v -0.068843 0.222093 0.020310
v -0.202046 0.282302 -0.039880
v -0.181614 0.265239 -0.073732
v -0.128918 0.235391 -0.077221
v -0.108014 0.232726 -0.031874
v -0.062710 0.202146 -0.028418
v -0.083540 0.198242 -0.104527
v -0.126343 0.214911 -0.161567
v -0.100458 0.170157 -0.298640
v -0.115118 0.177831 -0.312520
v -0.036500 0.164576 -0.102270
v 0.010178 0.126777 -0.099767
v 0.009444 0.146680 -0.023026
v 0.043940 0.141131 0.060674
v -0.023332 0.181308 0.000252
v 0.050109 0.115566 -0.001105
v 0.069303 0.085327 -0.046269
v 0.097772 0.080477 0.038702
v 0.110473 0.044552 -0.033030
v 0.137777 0.089516 0.188283
v 0.123475 0.047941 0.025890
v 0.108697 0.120772 0.186238
v 0.063103 0.165473 0.183295
v 0.036413 0.137168 0.185160
v 0.096305 0.078572 0.189019
v 0.171840 0.048229 0.191009
v 0.094720 0.064347 0.146564
v 0.138264 0.028967 0.192259
v 0.056785 0.097936 0.128814
v 0.020726 0.099690 0.028438
v 0.064828 0.058667 0.033213
v 0.088993 0.037901 0.048410
v 0.107722 0.007023 0.030020
v 0.077241 0.026745 -0.032287
v 0.072606 0.024790 -0.064389
v 0.093857 0.006184 -0.015924
v 0.024790 0.071489 -0.067441
v -0.013561 0.105133 -0.069687
v -0.066180 0.146818 -0.072393
v -0.010874 0.116168 -0.016661
v -0.061021 0.157007 -0.019152
v -0.010484 0.132544 0.041713
v -0.009659 0.069528 0.144224
v -0.234139 0.208516 0.150197
v -0.009200 0.131807 0.185511
v -0.234314 0.207302 0.127573
v -0.009351 0.071507 0.173123
v -0.088667 0.140516 0.292199
v -0.121300 0.157837 0.272176
v -0.009161 0.137162 0.203705
v -0.007482 0.110052 0.420446
v -0.008646 0.155475 0.268267
v -0.112177 0.240572 0.290606
v -0.008105 0.175096 0.336432
v -0.106105 0.238970 0.298124
v -0.106105 0.210644 0.299988
v -0.112177 0.210158 0.292606
v -0.105167 0.241310 0.307517
v -0.107628 0.211659 0.315422
v -0.105167 0.211269 0.309492
v -0.007486 0.201627 0.414425
v -0.107626 0.244764 0.313242
v -0.058422 0.240650 0.411858
v -0.094585 0.266434 0.410162
v -0.232079 0.255224 0.410899
v -0.232068 0.347240 0.404821
v -0.232824 0.315723 0.311550
v -0.192226 0.326204 0.406232
v -0.147172 0.300025 0.407952
v -0.121300 0.170953 0.346840
v -0.153933 0.188610 0.326798
v -0.121300 0.213540 0.344041
v -0.153933 0.212304 0.325240
v -0.153929 0.181591 0.289495
v -0.153933 0.209832 0.287642
v -0.121300 0.208596 0.268841
v -0.130496 0.210158 0.292606
v -0.088667 0.209832 0.287642
v -0.121336 0.209976 0.289832
v -0.121336 0.245568 0.287493
v -0.130497 0.251960 0.289858
v -0.233898 0.271330 0.176400
v -0.136568 0.257959 0.296877
v -0.234844 0.280732 0.054714
v -0.009225 0.174825 0.182689
v -0.009661 0.156488 0.116160
v -0.001277 0.217818 0.179859
v -0.020616 0.206966 0.089699
v 0.021999 0.185043 0.129478
v -0.000016 0.173476 0.038803
v -0.235479 0.260633 -0.026159
v -0.153872 0.219244 -0.023558
v -0.170118 0.220142 -0.057939
v -0.099629 0.184859 -0.021147
v -0.137507 0.211269 0.309493
v -0.136568 0.210644 0.299988
v -0.137228 0.261955 0.308034
v -0.134922 0.211711 0.316220
v -0.132994 0.261386 0.314660
v -0.124780 0.257822 0.319679
v -0.123975 0.212149 0.322870
v -0.114483 0.250358 0.318643
v -0.114483 0.212036 0.321162
v -0.088667 0.212304 0.325240
v -0.088668 0.146506 0.329568
v 0.018055 0.013966 0.162757
v 0.113024 -0.036540 -0.060369
v 0.112628 -0.021498 -0.014479
v 0.132649 -0.060796 -0.012341
v 0.122094 -0.054450 -0.059184
v 0.059401 -0.116392 -0.055110
v 0.121316 -0.061238 -0.077950
v 0.149666 -0.131673 -0.114035
v 0.116712 -0.069713 -0.134753
v 0.128459 -0.091278 -0.132084
v 0.160172 -0.127577 -0.037972
v 0.208087 -0.218589 -0.006089
v 0.198115 -0.210401 -0.060609
v 0.194268 -0.223200 -0.133460
v 0.214102 -0.236123 -0.049627
v 0.227333 -0.239831 0.019676
v 0.242166 -0.269671 0.019464
v 0.265090 -0.269940 0.146129
v 0.261052 -0.302693 0.057025
v 0.243313 -0.244920 0.092968
v 0.206945 -0.261829 -0.180619
v 0.247834 -0.310131 -0.040351
v 0.127500 -0.115299 -0.190223
v 0.110193 -0.079426 -0.192539
v 0.226628 -0.215647 0.085123
v 0.215270 -0.217522 0.025420
v 0.123088 -0.210801 0.173158
v 0.213848 -0.208589 0.207911
v 0.122864 -0.195477 0.440289
v 0.070034 -0.090756 0.288525
v 0.085186 -0.122084 0.309465
v 0.138036 -0.090757 0.288525
v 0.085037 -0.119611 0.347066
v 0.138036 -0.119611 0.347066
v 0.138036 -0.122083 0.309466
v 0.138036 -0.104810 0.327054
v 0.138036 -0.102558 0.317076
v 0.138036 -0.095654 0.311189
v 0.192739 -0.103972 0.320676
v 0.189098 -0.099041 0.313065
v 0.183910 -0.088091 0.309343
v 0.138036 -0.087492 0.309363
v 0.109350 0.015712 0.193160
v 0.181063 -0.080025 0.311774
v 0.138036 -0.077311 0.313530
v 0.179983 -0.075282 0.315934
v 0.138036 -0.071691 0.324265
v 0.180581 -0.071612 0.325494
v 0.185219 -0.076148 0.337449
v 0.138036 -0.075364 0.336551
v 0.148305 0.025565 0.363253
v 0.174946 -0.001658 0.427790
v 0.191803 -0.034289 0.429935
v 0.208670 -0.070711 0.432335
v 0.017907 0.028945 0.424990
v 0.069734 -0.085812 0.363726
v 0.054582 -0.054486 0.342783
v 0.157080 0.029182 0.425760
v 0.138036 -0.054486 0.342784
v 0.054732 -0.056958 0.305183
v 0.138036 -0.056958 0.305183
v 0.138036 -0.085812 0.363726
v 0.138036 -0.085351 0.342329
v 0.138036 -0.096201 0.340780
v 0.138036 -0.103144 0.333267
v 0.190372 -0.085938 0.342426
v 0.194361 -0.097265 0.340166
v 0.194981 -0.104432 0.330320
v 0.229459 -0.122343 0.435725
v 0.238860 -0.149010 0.437478
v 0.240042 -0.200075 0.351633
v 0.253786 -0.194927 0.440498
v 0.147769 0.015681 0.193153
v 0.228235 -0.045617 0.197174
v 0.201221 0.005880 0.193793
v 0.168937 -0.020003 0.036058
v 0.161473 -0.033411 -0.023027
v 0.137909 0.007125 -0.025398
v 0.146423 0.023770 0.045848
v 0.104931 0.035385 -0.093776
v 0.133968 -0.008723 -0.090867
v 0.130415 -0.014609 -0.130667
v 0.085581 0.057891 -0.095253
v 0.052444 0.090128 -0.097374
v 0.275096 -0.325770 0.092644
v -0.108690 0.153811 -0.433996
v -0.154685 0.210186 -0.276513
v -0.171561 0.211586 -0.319660
v -0.157235 0.185486 -0.436096
v -0.174017 0.202827 -0.379252
v -0.191438 0.217017 -0.353030
v -0.179928 0.212163 -0.343404
v -0.173074 0.210376 -0.330162
v -0.212395 0.223812 -0.381956
v -0.201873 0.222214 -0.357001
v -0.213608 0.228171 -0.358032
v -0.223656 0.233718 -0.355617
v -0.233758 0.239696 -0.350010
v -0.233936 0.227174 -0.438833
v -0.262288 0.248048 -0.384324
v -0.240575 0.244348 -0.342403
v -0.289095 0.252439 -0.440497
v -0.245413 0.248687 -0.332673
v -0.284766 0.259635 -0.373057
v -0.238927 0.251277 -0.298350
v -0.244057 0.252133 -0.307481
v -0.246966 0.251639 -0.318847
v -0.290349 0.310435 -0.077950
v -0.291123 0.259505 -0.380958
v -0.239588 0.268562 -0.203789
v -0.284765 0.291177 -0.183754
v -0.219477 0.248104 -0.265526
v -0.186180 0.243067 -0.196944
v -0.220850 0.244882 -0.285358
v -0.206194 0.237527 -0.283168
v -0.191779 0.229248 -0.286768
v -0.230161 0.248575 -0.290269
v -0.232885 0.207845 -0.289385
v -0.242374 0.207194 -0.300644
v -0.219887 0.189297 -0.305090
v -0.223912 0.188927 -0.310076
v -0.219635 0.208351 -0.282586
v -0.214252 0.189496 -0.302001
v -0.207837 0.189483 -0.301284
v -0.219418 0.160358 -0.302810
v -0.212001 0.155544 -0.299141
v -0.202214 0.148176 -0.299888
v -0.195427 0.189091 -0.308260
v -0.201688 0.189399 -0.303042
v -0.191133 0.208105 -0.285727
v -0.179886 0.207533 -0.295047
v -0.173085 0.206721 -0.307939
v -0.172963 0.214617 -0.308429
v -0.180408 0.221278 -0.295338
v -0.171533 0.205821 -0.322129
v -0.174404 0.205117 -0.333241
v -0.192508 0.188436 -0.318426
v -0.194743 0.187968 -0.325711
v -0.198987 0.187630 -0.330723
v -0.179993 0.204426 -0.342774
v -0.191353 0.203903 -0.352266
v -0.206833 0.187364 -0.334226
v -0.205543 0.203522 -0.356425
v -0.219694 0.203588 -0.355195
v -0.217879 0.187497 -0.332162
v -0.232609 0.204041 -0.348601
v -0.242623 0.204795 -0.336836
v -0.223922 0.187971 -0.325397
v -0.246953 0.205825 -0.322123
v -0.225877 0.188365 -0.318217
v -0.246202 0.206494 -0.311564
v -0.205014 0.208462 -0.281370
v -0.253555 0.300046 -0.064506
v -0.235277 0.306283 -0.014235
v -0.290211 0.333091 0.013371
v -0.295332 0.329265 0.008280
v -0.295247 0.363067 0.118506
v -0.295247 0.380096 0.169191
v -0.296818 0.374899 0.169529
v -0.296161 0.323527 0.110381
v -0.296831 0.311121 -0.042513
v -0.295246 0.307558 -0.080943
v -0.296161 0.292401 0.008820
v -0.296821 0.244127 -0.439929
v -0.296161 0.271290 -0.078555
v -0.333915 0.303950 0.022129
v -0.333911 0.347390 0.171154
v -0.295261 0.250197 -0.440349
v -0.295248 0.258311 -0.376632
vn -0.8629 -0.4638 0.2009
vn -0.8528 -0.4843 0.1953
vn -0.8577 -0.4606 0.2286
vn -0.8474 -0.4771 0.2331
vn -0.8453 -0.4875 0.2189
vn -0.8536 -0.4829 0.1952
vn -0.8613 -0.4704 0.1919
vn -0.8492 -0.4873 0.2035
vn -0.8534 -0.4831 0.1959
vn -0.8525 -0.4829 0.2002
vn -0.3912 -0.9099 0.1378
vn -0.2087 -0.9724 0.1041
vn -0.2392 -0.9689 0.0637
vn -0.8564 -0.4826 0.1837
vn -0.8555 -0.4822 0.1888
vn -0.1636 -0.9844 0.0650
vn -0.8679 -0.4628 0.1803
vn -0.1349 -0.9872 0.0849
vn -0.8600 -0.4775 0.1802
vn -0.8617 -0.4759 0.1763
vn -0.8671 -0.4758 0.1477
vn -0.8914 -0.4207 0.1684
vn -0.8674 -0.4633 0.1813
vn -0.8580 -0.4875 0.1619
vn -0.8637 -0.4719 0.1769
vn -0.8902 -0.4218 0.1720
vn -0.9302 -0.3190 0.1817
vn -0.9161 -0.3691 0.1564
vn -0.9207 -0.3262 0.2141
vn -0.9007 -0.3773 0.2153
vn -0.0006 -0.9978 0.0659
vn -0.0005 -0.9978 0.0657
vn -0.0005 -0.9978 0.0658
vn -0.9287 -0.2854 0.2369
vn -0.0001 -0.9978 0.0658
vn -0.9201 -0.2733 0.2806
vn -0.0027 -0.9978 0.0656
vn -0.9194 -0.2845 0.2717
vn -0.0000 -0.0654 -0.9979
vn -0.0000 -0.0655 -0.9979
vn -0.8878 -0.3810 0.2580
vn -0.0002 -0.0653 -0.9979
vn -0.8909 -0.3759 0.2550
vn 0.8968 0.3606 -0.2566
vn 0.8685 0.4263 -0.2529
vn 0.8722 0.4205 -0.2499
vn 0.9070 0.3068 -0.2885
vn -0.0002 -0.0657 -0.9978
vn 0.9265 0.2989 -0.2286
vn 0.9052 0.3656 -0.2165
vn 0.9279 0.2801 -0.2460
vn 0.9059 0.3643 -0.2157
vn 0.9201 0.2803 -0.2736
vn 0.7365 -0.6174 -0.2763
vn 0.7068 -0.6430 -0.2950
vn 0.7072 -0.6436 -0.2925
vn 0.9538 -0.0175 -0.2998
vn 0.9273 -0.1674 -0.3348
vn 0.7018 -0.6482 -0.2956
vn 0.9277 -0.1215 -0.3529
vn -0.0000 -0.0661 -0.9978
vn 0.0007 -0.0676 -0.9977
vn 0.8784 0.3789 -0.2913
vn -0.0003 -0.9979 0.0655
vn -0.0000 -0.9979 0.0655
vn -0.9317 -0.0004 0.3631
vn -0.9291 0.1380 0.3432
vn -0.8539 -0.4377 0.2816
vn -0.9553 0.0299 0.2941
vn -0.8709 0.3688 0.3249
vn -0.9280 0.1746 0.3292
vn -0.9012 0.3032 0.3096
vn -0.9004 0.3072 0.3080
vn -0.8474 -0.5042 0.1664
vn -0.8313 -0.5014 0.2400
vn -0.8827 0.2914 0.3687
vn -0.9704 0.0055 0.2414
vn -0.9454 0.0056 0.3258
vn -0.9160 -0.0951 0.3898
vn -0.9540 -0.0842 0.2876
vn -0.9348 -0.0175 0.3548
vn -0.9133 0.0509 0.4040
vn -0.8994 -0.3199 0.2979
vn -0.9454 -0.2972 0.1339
vn -0.9309 0.1247 0.3432
vn -0.9622 -0.2323 0.1424
vn -0.0000 -0.9978 0.0656
vn -0.9789 -0.1654 0.1198
vn 0.0003 -0.9978 0.0657
vn 0.9366 -0.0902 -0.3385
vn 0.8187 -0.4116 -0.4003
vn 0.9204 -0.0831 -0.3821
vn 0.0004 -0.9979 0.0655
vn 0.9594 -0.1535 -0.2366
vn 0.9353 0.3042 -0.1807
vn 0.9347 0.2854 -0.2119
vn 0.8515 -0.4562 -0.2586
vn 0.9341 0.3100 -0.1769
vn 0.9677 0.2031 -0.1492
vn 0.9434 0.3026 -0.1359
vn 0.9181 0.3573 -0.1717
vn 0.9132 0.3801 -0.1469
vn 0.9346 0.3263 -0.1414
vn 0.9447 0.2953 -0.1426
vn 0.9202 0.3545 -0.1663
vn 0.9512 0.2557 -0.1725
vn 0.9545 0.2690 -0.1287
vn 0.9640 0.1971 -0.1785
vn 0.9340 0.3060 -0.1843
vn 0.9719 0.2031 -0.1190
vn 0.9811 0.1190 -0.1523
vn 0.0001 -0.9978 0.0656
vn -0.0000 -0.9978 0.0663
vn -0.0011 -0.9979 0.0653
vn 0.9822 0.1415 -0.1238
vn 0.0001 0.0658 0.9978
vn 0.9819 0.1106 -0.1538
vn 0.9430 0.2886 -0.1655
vn -0.0001 0.0655 0.9979
vn -0.0003 0.0651 0.9979
vn -0.0002 0.0661 0.9978
vn 0.9631 0.2010 -0.1792
vn -0.0003 0.0654 0.9979
vn -0.0000 0.0657 0.9978
vn 0.9140 0.3387 -0.2232
vn 0.9127 0.3661 -0.1815
vn 0.9185 0.3468 -0.1898
vn 0.9012 0.3548 -0.2489
vn 0.8978 0.3779 -0.2263
vn 0.9081 0.3633 -0.2080
vn 0.8987 0.3927 -0.1953
vn 0.8876 0.4240 -0.1799
vn 0.9050 0.3872 -0.1765
vn 0.8761 0.4590 -0.1475
vn 0.8897 0.4268 -0.1624
vn 0.9057 0.3986 -0.1445
vn 0.9016 0.3962 -0.1735
vn 0.8771 0.4593 -0.1405
vn 0.8672 0.4648 -0.1787
vn 0.8676 0.4608 -0.1868
vn 0.8837 0.4400 -0.1597
vn 0.8591 0.4788 -0.1810
vn 0.8624 0.4736 -0.1790
vn 0.8674 0.4673 -0.1709
vn 0.8631 0.4726 -0.1782
vn -0.0052 -0.3377 -0.9412
vn -0.0244 -0.6815 -0.7314
vn -0.0102 -0.3269 -0.9450
vn 0.0165 -0.5752 -0.8179
vn 0.6850 -0.2333 -0.6902
vn 0.6855 -0.4170 -0.5968
vn 0.6992 -0.3335 -0.6324
vn 0.6917 -0.5866 -0.4211
vn 0.0148 -0.8081 -0.5889
vn -0.0277 -0.4677 -0.8835
vn 0.0007 -0.7877 -0.6160
vn 0.0106 -0.9885 -0.1510
vn 0.6939 -0.5794 -0.4275
vn -0.0026 -0.9943 -0.1069
vn 0.6987 -0.7107 -0.0823
vn 0.6833 -0.6741 -0.2805
vn 0.6850 -0.7283 -0.0204
vn 0.0080 -0.9273 -0.3744
vn 0.0069 -0.9992 -0.0393
vn -0.0092 -0.9489 0.3155
vn 0.0263 -0.9349 0.3539
vn 0.6886 -0.6811 0.2489
vn -0.0092 -0.9997 -0.0210
vn 0.8547 0.4820 -0.1927
vn 0.8547 0.4775 -0.2036
vn -0.6685 0.7421 -0.0484
vn -0.6709 0.7399 -0.0488
vn 0.8558 0.4666 -0.2233
vn 0.8482 0.4743 -0.2356
vn 0.8493 0.4738 -0.2329
vn 0.8539 0.4767 -0.2087
vn 0.8546 0.4779 -0.2031
vn 0.8548 0.4786 -0.2005
vn -0.0327 -0.8268 0.5616
vn -0.0439 -0.5789 0.8142
vn 0.0506 -0.7392 0.6715
vn 0.0244 -0.4502 0.8926
vn 0.6798 -0.5371 0.4995
vn 0.6998 -0.4304 0.5701
vn 0.6840 -0.3318 0.6496
vn 0.6907 -0.1296 0.7114
vn -0.0235 -0.1734 0.9846
vn 0.0147 -0.5959 0.8030
vn 0.6943 -0.1447 0.7050
vn 0.6828 0.0944 0.7245
vn 0.0303 0.0717 0.9970
vn -0.0292 0.3650 0.9305
vn 0.6964 0.2719 0.6641
vn 0.0148 0.1259 0.9919
vn -0.0122 0.3922 0.9198
vn 0.6947 0.2792 0.6629
vn -0.0004 0.3696 0.9292
vn -0.0008 0.6864 0.7272
vn 0.6554 0.6126 0.4418
vn 0.7065 0.4870 0.5135
vn -0.0045 0.6942 0.7198
vn 0.0044 0.9056 0.4241
vn 0.6819 0.6639 0.3070
vn -0.0041 0.9175 0.3978
vn 0.0033 0.9973 0.0738
vn 0.6848 0.7264 0.0571
vn 0.6985 0.6972 0.1611
vn -0.0016 0.9775 0.2110
vn -0.0384 0.9863 -0.1603
vn 0.6933 0.7118 -0.1127
vn -0.0133 0.8543 -0.5196
vn 0.0754 0.9159 -0.3944
vn 0.6889 0.7113 -0.1397
vn 0.6887 0.6178 -0.3796
vn -0.0500 0.5653 -0.8234
vn 0.6919 0.6223 -0.3661
vn 0.7007 0.4068 -0.5861
vn 0.6842 0.5095 -0.5217
vn -0.0046 0.4260 -0.9047
vn 0.0045 0.3958 -0.9183
vn 0.0047 0.6942 -0.7198
vn 0.6807 0.2886 -0.6733
vn 0.6861 0.0083 -0.7275
vn 0.6975 0.0535 -0.7145
vn -0.0046 0.0480 -0.9988
vn 0.0049 0.0198 -0.9998
vn -0.0126 0.7550 -0.6556
vn 0.8877 0.4225 -0.1830
vn 0.8689 0.4590 -0.1853
vn 0.8774 0.4463 -0.1758
vn 0.8878 0.4223 -0.1830
vn -0.0119 0.9709 -0.2392
vn 0.0095 0.8614 -0.5078
vn 0.8684 0.4604 -0.1840
vn -0.0422 0.0820 -0.9957
vn 0.0549 0.4071 -0.9117
vn -0.0011 0.9814 -0.1919
vn -0.8655 -0.4599 0.1982
vn -0.8723 -0.4588 0.1690
vn 0.0507 0.9563 0.2880
vn -0.8655 -0.4597 0.1990
vn -0.0360 0.8105 0.5847
vn 0.0390 0.5804 0.8134
vn -0.8621 -0.4648 0.2019
vn 0.0036 0.9971 0.0754
vn 0.8811 0.4232 -0.2113
vn 0.8779 0.4300 -0.2109
vn 0.8820 0.4214 -0.2110
vn 0.8781 0.4270 -0.2157
vn 0.8677 0.4576 -0.1943
vn -0.0195 0.0018 0.9998
vn 0.8655 0.4616 -0.1945
vn 0.0160 -0.2435 0.9698
vn 0.8519 0.4788 -0.2123
vn -0.0183 -0.1973 0.9802
vn -0.0111 -0.9290 0.3699
vn 0.0162 -0.8864 0.4627
vn 0.6949 -0.6664 0.2702
vn -0.0076 -0.5488 0.8359
vn -0.6700 0.7408 -0.0488
vn -0.0008 -0.0655 -0.9979
vn -0.0001 -0.0658 -0.9978
vn -0.9560 -0.2881 0.0547
vn -0.8788 -0.4762 0.0314
vn -0.7417 -0.6693 0.0441
vn -0.0000 -0.0656 -0.9978
vn 0.0001 -0.0656 -0.9978
vn -0.9261 -0.3605 0.1109
vn -0.9141 -0.3915 0.1056
vn -0.8471 -0.4772 0.2339
vn -0.0001 -0.0662 -0.9978
vn -0.7417 -0.6693 0.0440
vn -0.6707 0.7401 -0.0487
vn 0.7417 0.6693 -0.0440
vn -0.0001 -0.0657 -0.9978
vn 0.7417 0.6692 -0.0440
vn 0.6707 -0.7401 0.0487
vn -0.7418 -0.6692 0.0439
vn -0.7415 -0.6695 0.0442
vn -0.5409 -0.8393 0.0549
vn -0.5682 -0.8208 0.0589
vn -0.5745 -0.8167 0.0541
vn -0.5545 -0.8289 0.0738
vn -0.5611 -0.8260 0.0537
vn -0.5608 -0.8261 0.0551
vn -0.5589 -0.8194 0.1270
vn -0.5622 -0.8239 0.0706
vn -0.5719 -0.8074 0.1450
vn -0.5533 -0.8294 0.0770
vn -0.5830 -0.8007 0.1377
vn -0.4192 -0.8948 0.1539
vn -0.4360 -0.8894 0.1372
vn -0.4298 -0.8943 0.1240
vn -1.0000 0.0001 -0.0000
vn -0.4488 -0.8890 0.0910
vn -0.4349 -0.8934 0.1128
vn 0.3331 0.9312 -0.1480
vn -1.0000 -0.0000 -0.0000
vn 0.3847 0.9177 -0.0989
vn 0.3491 0.9296 -0.1182
vn -0.4087 -0.9017 0.1411
vn -0.3942 -0.9071 0.1477
vn -0.4018 -0.9033 0.1505
vn -0.4025 -0.9000 0.1672
vn -0.4200 -0.8939 0.1567
vn -0.6215 -0.7714 0.1366
vn -0.6492 -0.7504 0.1243
vn -0.6164 -0.7857 0.0523
vn -0.5956 -0.8016 0.0520
vn -0.7414 -0.6697 0.0438
vn -0.7418 -0.6692 0.0443
vn -0.6506 -0.7578 0.0498
vn -0.6673 -0.7432 0.0490
vn -0.7418 -0.6692 0.0437
vn -0.6711 -0.7291 0.1341
vn -0.7412 -0.6698 0.0447
vn -0.7061 -0.7066 0.0465
vn -0.6951 -0.7083 0.1233
vn -0.0140 0.0827 0.9965
vn -0.3797 -0.9115 0.1582
vn -0.0193 0.0660 0.9976
vn 1.0000 -0.0048 0.0004
vn -0.3598 -0.9112 0.2005
vn 1.0000 -0.0035 0.0009
vn 1.0000 -0.0036 0.0010
vn -0.3617 -0.9021 0.2356
vn -0.3354 -0.9175 0.2139
vn -0.3388 -0.9050 0.2572
vn -0.3313 -0.9061 0.2631
vn 1.0000 -0.0034 0.0010
vn -0.3458 -0.8924 0.2898
vn -0.0000 0.0656 0.9978
vn -0.4403 -0.8625 0.2495
vn 0.3616 0.8834 -0.2982
vn 0.3434 0.8983 -0.2740
vn 0.4415 0.8589 -0.2596
vn 0.4395 0.8601 -0.2591
vn 0.4861 0.8343 -0.2600
vn 0.0001 0.0653 0.9979
vn 0.0002 0.0664 0.9978
vn 0.5127 0.8269 -0.2311
vn 0.4626 0.8534 -0.2404
vn 0.4958 0.8334 -0.2440
vn 0.4867 0.8457 -0.2191
vn 0.4449 0.8561 -0.2628
vn 0.4378 0.8789 -0.1896
vn 0.4716 0.8523 -0.2261
vn 0.5079 0.8351 -0.2111
vn 0.5164 0.8238 -0.2338
vn 0.4563 0.8520 -0.2567
vn 0.4441 0.8787 -0.1749
vn 0.4724 0.8577 -0.2030
vn 0.5163 0.8353 -0.1889
vn 0.5543 0.7924 -0.2546
vn 0.5589 0.8061 -0.1943
vn 0.5442 0.8140 -0.2030
vn 0.5560 0.8115 -0.1801
vn 0.5390 0.8264 -0.1629
vn 0.6706 -0.7402 0.0486
vn 0.5761 0.8003 -0.1660
vn 0.0001 -0.0667 -0.9978
vn 0.5767 0.7925 -0.1985
vn -0.0000 -0.0660 -0.9978
vn 0.6239 0.7579 -0.1906
vn 0.6081 0.7737 -0.1778
vn 0.6578 0.7306 -0.1832
vn 0.6345 0.7432 -0.2122
vn 0.6661 0.7103 -0.2274
vn 0.5987 0.7520 -0.2757
vn 0.6737 0.7137 -0.1916
vn 0.6789 0.7101 -0.1869
vn 0.6897 0.6908 -0.2170
vn 0.7295 0.6545 -0.1986
vn 0.7212 0.6620 -0.2039
vn 0.7197 0.6544 -0.2320
vn 0.7170 0.6575 -0.2315
vn 0.6815 0.6916 -0.2393
vn 0.6870 0.6847 -0.2433
vn 0.0004 0.0656 0.9978
vn 0.0003 0.0661 0.9978
vn -0.0002 0.0650 0.9979
vn -0.7047 -0.6644 0.2489
vn -0.7496 -0.6187 0.2353
vn -0.6881 -0.6881 0.2303
vn -0.7026 -0.6757 0.2231
vn -0.6760 -0.6999 0.2306
vn -0.6842 -0.6909 0.2337
vn -0.7108 -0.6696 0.2153
vn -0.7416 -0.6356 0.2145
vn -0.7825 -0.5911 0.1957
vn -0.7676 -0.5999 0.2256
vn -0.7073 -0.6790 0.1969
vn -0.8244 -0.5451 0.1522
vn -0.6962 -0.7034 0.1434
vn -0.8419 -0.4713 0.2627
vn -0.7091 -0.6774 0.1958
vn -0.0004 0.0648 0.9979
vn 0.0004 0.0671 0.9977
vn -0.6539 -0.7329 0.1878
vn -0.6803 -0.7104 0.1801
vn -0.0002 0.0645 0.9979
vn -0.6500 -0.7368 0.1863
vn -0.6156 -0.7647 0.1903
vn -0.6242 -0.7540 0.2048
vn -0.6100 -0.7623 -0.2164
vn -0.6668 -0.7164 0.2054
vn 1.0000 0.0015 -0.0071
vn -0.4847 -0.8254 -0.2896
vn 1.0000 -0.0014 -0.0089
vn -0.5248 -0.8498 0.0497
vn -0.5241 -0.8493 0.0637
vn 0.9999 -0.0003 -0.0106
vn -0.5275 -0.8388 0.1347
vn -0.5277 -0.8387 0.1345
vn -0.5257 -0.8395 0.1375
vn 1.0000 -0.0022 -0.0015
vn 1.0000 0.0009 -0.0082
vn 1.0000 0.0002 -0.0076
vn 0.5679 0.7684 -0.2949
vn 0.5893 0.7760 -0.2248
vn 1.0000 -0.0005 -0.0078
vn 0.5925 0.7729 -0.2272
vn -0.9952 0.0064 0.0978
vn -0.7730 0.0416 0.6331
vn 0.5953 0.7637 -0.2497
vn -0.9240 -0.0251 -0.3817
vn -0.9239 -0.0251 -0.3818
vn 0.5959 0.7588 -0.2628
vn 0.5952 0.7597 -0.2619
vn 0.5536 0.7966 -0.2430
vn 0.5697 0.7824 -0.2516
vn -1.0000 0.0006 0.0079
vn -0.0005 0.0659 0.9978
vn -1.0000 0.0005 0.0078
vn -0.5411 -0.8271 0.1523
vn -0.5411 -0.8271 0.1524
vn -0.5410 -0.8271 0.1525
vn 0.5000 -0.0568 -0.8642
vn 1.0000 -0.0000 0.0001
vn -0.5455 -0.8237 0.1549
vn 0.5000 0.0568 0.8642
vn 1.0000 0.0002 -0.0000
vn 0.5000 0.0568 0.8641
vn -0.5311 -0.8349 0.1445
vn -0.5000 0.0568 0.8642
vn 0.2904 0.0628 0.9548
vn -0.2903 0.0628 0.9549
vn -0.2904 0.0628 0.9548
vn 0.2903 0.0628 0.9549
vn 0.5339 0.7885 -0.3054
vn 0.4899 0.8158 -0.3072
vn 0.5125 0.7901 -0.3361
vn 0.5189 0.8198 -0.2424
vn 0.4622 0.8414 -0.2800
vn 0.4778 0.8278 -0.2941
vn -1.0000 0.0006 0.0078
vn 0.0002 0.0655 0.9979
vn -1.0000 0.0004 0.0078
vn 0.0008 0.0670 0.9978
vn -0.6289 -0.7484 0.2104
vn 1.0000 0.0002 -0.0066
vn 0.0001 0.0657 0.9978
vn 0.0001 0.0656 0.9978
vn 0.6015 0.7676 -0.2214
vn 0.5814 0.7836 -0.2190
vn 0.6243 0.7545 -0.2024
vn 0.6144 0.7500 -0.2449
vn 0.6514 0.7165 -0.2496
vn 0.6586 0.7117 -0.2442
vn 0.6009 0.7722 -0.2066
vn 0.6026 0.7566 -0.2539
vn 0.6512 0.7172 -0.2481
vn 0.5590 0.8011 -0.2139
vn 0.5560 0.7961 -0.2389
vn 0.9999 -0.0065 -0.0090
vn -0.6562 -0.7162 0.2376
vn -1.0000 0.0005 0.0077
vn -0.4541 -0.8549 0.2509
vn -0.4226 -0.8788 0.2217
vn -0.4474 -0.8688 0.2124
vn -0.4388 -0.8743 0.2076
vn -0.4249 -0.8562 -0.2938
vn -0.4955 -0.8046 -0.3273
vn -0.4367 -0.8808 0.1833
vn -0.5285 -0.8177 0.2284
vn -0.5696 -0.7928 0.2167
vn -0.5161 -0.8358 0.1872
vn -0.5318 -0.7635 -0.3664
vn -0.5794 -0.7883 0.2070
vn -0.4521 -0.8269 0.3345
vn 0.9982 -0.0038 0.0604
vn 0.9952 0.0064 0.0979
vn 0.7730 0.0416 0.6330
vn 0.4637 0.8424 -0.2744
vn 0.9337 -0.0154 -0.3578
vn 0.8397 -0.0496 -0.5408
vn 0.5161 0.8162 -0.2596
vn 0.4637 0.8423 -0.2748
vn 0.5060 -0.0467 -0.8613
vn 0.5138 0.8174 -0.2605
vn -0.1511 -0.0715 -0.9859
vn 0.5200 -0.0504 -0.8527
vn 0.5496 0.7942 -0.2590
vn 0.5283 0.8104 -0.2534
vn -0.1775 -0.0646 -0.9820
vn -0.6429 -0.0502 -0.7643
vn 0.4845 0.8376 -0.2525
vn -0.0001 -0.9978 0.0656
vn -0.6428 -0.0503 -0.7643
vn -0.5000 -0.0568 -0.8642
vn -0.5404 -0.8278 0.1507
vn -0.5272 -0.8390 0.1345
vn 0.7729 0.0417 0.6331
vn -0.5001 0.0568 0.8641
vn 0.4878 0.8198 -0.2999
vn 0.4550 0.8425 -0.2884
vn -0.6547 -0.7177 0.2372
vn -0.0002 0.0659 0.9978
vn -0.7801 -0.5450 -0.3072
vn 0.0348 0.9990 -0.0287
vn -0.8292 -0.5361 0.1578
vn -0.8195 -0.5467 0.1721
vn -0.8259 -0.4400 -0.3527
vn -0.8874 -0.4404 0.1367
vn -0.8854 -0.4435 0.1394
vn 0.6928 -0.6868 0.2197
vn -0.0003 0.0659 0.9978
vn -0.9255 -0.3423 0.1622
vn 0.6658 -0.7439 0.0570
vn 0.6743 -0.7369 0.0483
vn -0.8997 -0.4210 0.1149
vn -0.8895 -0.4329 0.1462
vn -0.8767 -0.4603 0.1397
vn -0.8905 -0.4271 0.1567
vn -0.8837 -0.4447 0.1460
vn -0.8943 -0.4365 0.0980
vn -0.8955 -0.4226 0.1395
vn -0.8661 -0.4826 0.1305
vn -0.8809 -0.4561 0.1266
vn -0.8618 -0.5005 0.0825
vn -0.8816 -0.4511 0.1390
vn -0.8855 -0.4412 0.1454
vn -0.8049 -0.5806 0.1226
vn -0.9256 -0.3397 0.1668
vn -0.8872 -0.4330 0.1596
vn -0.9226 -0.3544 0.1523
vn -0.8832 -0.4402 0.1620
vn -0.9311 -0.3370 0.1398
vn -0.9180 -0.3682 0.1472
vn -0.8795 -0.4558 0.1369
vn -0.9470 -0.2900 0.1379
vn -0.9613 -0.2507 0.1143
vn -0.9617 -0.2076 0.1790
vn -0.9559 -0.2531 0.1491
vn -0.0001 0.0654 0.9979
vn -0.0003 0.0657 0.9978
vn -0.8737 -0.4642 0.1454
vn -0.0008 0.0652 0.9979
vn -0.8706 -0.4495 0.2001
vn -0.9018 -0.3940 0.1777
vn -0.8917 -0.4191 0.1710
vn -0.8746 -0.4592 0.1557
vn -0.0004 0.0643 0.9979
vn -0.0002 0.0642 0.9979
vn 0.6703 -0.7405 0.0488
vn -0.8724 -0.4404 0.2121
vn -0.8745 -0.4501 0.1805
vn -0.8527 -0.5000 0.1512
vn -0.9062 -0.3754 0.1946
vn -0.0173 -0.9992 0.0347
vn -0.8370 -0.5061 0.2080
vn -0.0136 -0.9992 0.0370
vn -0.9061 -0.4224 0.0228
vn -0.8342 -0.4070 -0.3721
vn -0.0059 -0.9969 0.0789
vn 0.0024 -0.9984 0.0573
vn -0.9058 -0.4231 0.0235
vn -0.9060 -0.4227 0.0232
vn -0.8302 -0.4118 -0.3758
vn 0.0004 -0.9985 0.0554
vn -0.0000 0.5558 0.8313
vn -0.0000 0.5557 0.8314
vn -0.9062 -0.4222 0.0242
vn -0.0000 0.9978 -0.0656
vn 0.0107 0.9754 0.2202
vn 0.0151 0.6488 0.7608
vn -0.0145 0.8360 0.5485
vn 0.9052 0.3824 -0.1853
vn 0.9115 0.3728 -0.1738
vn -0.0139 0.3158 0.9487
vn 0.8909 0.4010 -0.2134
vn -0.0034 -0.2897 0.9571
vn 0.0033 0.2182 0.9759
vn 0.8939 0.3848 -0.2299
vn -0.0110 -0.6607 0.7506
vn 0.0139 -0.3787 0.9254
vn 0.8917 0.3957 -0.2197
vn -0.0086 -0.9334 0.3588
vn 0.0163 -0.8858 0.4638
vn 0.8894 0.4054 -0.2112
vn -0.0088 -0.9361 -0.3517
vn 0.9113 0.3469 -0.2219
vn 0.0100 -0.9580 -0.2865
vn 0.9002 0.3810 -0.2109
vn 0.8944 0.3853 -0.2272
vn 0.8673 0.4318 -0.2475
vn -0.0054 0.0633 0.9980
vn 0.8865 0.3946 -0.2417
vn -0.0056 0.0627 0.9980
vn -0.0038 0.0662 0.9978
vn -0.9064 -0.4217 0.0236
vn -0.0014 0.9983 -0.0576
vn -0.0056 0.0624 0.9980
vn -0.0014 0.9983 -0.0575
vn -0.0001 0.9984 -0.0570
vn 0.8599 0.4883 -0.1490
vn -0.0000 -0.5558 -0.8313
vn -0.9069 -0.4207 0.0240
vn -0.0000 -0.4421 0.8970
vn -0.9064 -0.4218 0.0233
vn -0.0000 0.4421 -0.8970
vn 0.0034 0.1413 -0.9900
vn 0.0065 0.7344 -0.6787
vn -0.0070 0.1933 -0.9811
vn -0.0122 0.8081 -0.5889
vn 0.8934 0.3882 -0.2263
vn 0.8982 0.3651 -0.2447
vn 0.9056 0.3488 -0.2411
vn 0.9186 0.3075 -0.2482
vn -0.0018 0.0649 0.9979
vn -0.0017 0.0648 0.9979
vn 0.9014 0.3774 -0.2121
vn 0.9414 0.2953 -0.1627
vn -0.0019 0.0650 0.9979
vn 0.0041 -0.9984 0.0572
vn 0.0049 -0.9983 0.0582
vn 0.9040 0.3841 -0.1875
vn -0.0095 0.9987 0.0498
vn 0.9017 0.3879 -0.1911
vn 0.0084 0.9658 -0.2590
vn 0.9038 0.3519 -0.2435
vn -0.0034 -0.4546 -0.8907
vn 0.0082 -0.5008 -0.8655
vn -0.9062 -0.4222 0.0241
vn 0.0008 0.9982 -0.0598
vn 0.0002 0.0657 0.9978
vn 0.0003 0.0659 0.9978
vn 0.0001 0.0655 0.9978
vn 0.8922 0.3780 -0.2473
vn 0.8644 0.4371 -0.2486
vn 0.8774 0.4040 -0.2587
vn 0.8495 0.4812 -0.2165
vn 0.8831 0.4210 -0.2071
vn 0.8482 0.4842 -0.2145
vn 0.8368 0.4865 -0.2511
vn 0.8062 0.5440 -0.2328
vn 0.7941 0.5611 -0.2336
vn 0.7892 0.5780 -0.2074
vn 0.8072 0.5461 -0.2240
vn 0.8563 0.4879 -0.1696
vn 0.8114 0.5624 -0.1589
vn 0.8272 0.5327 -0.1788
vn 0.0002 -0.0657 -0.9978
vn -0.6732 0.7378 -0.0490
vn 0.8409 0.5195 -0.1519
vn 0.8838 0.4319 -0.1796
vn -0.6738 0.7372 -0.0507
vn 0.8658 0.4542 -0.2098
vn 0.8827 0.4324 -0.1840
vn 0.7532 0.6368 -0.1648
vn -0.0001 -0.0656 -0.9978
vn 0.7192 0.6801 -0.1419
vn 0.6933 0.7020 -0.1628
vn -0.0004 -0.0656 -0.9978
vn 0.6528 0.7434 -0.1455
vn 0.8860 0.4070 -0.2221
vn 0.8907 0.4204 -0.1729
vn 0.0004 0.0675 0.9977
vn -0.0008 0.9986 -0.0528
vn -0.7994 -0.5567 0.2258
vn -0.9420 -0.2737 0.1941
vn -0.9082 -0.3779 0.1801
vn -0.9385 -0.2954 0.1787
vn -0.9825 -0.1309 0.1322
vn -0.9803 -0.1265 0.1515
vn -0.9641 -0.2139 0.1574
vn -0.9119 -0.3665 0.1847
vn -0.7417 -0.6693 0.0439
vn 0.0002 0.0656 0.9978
vn 0.7591 0.6115 -0.2234
vn 0.5859 0.7732 -0.2428
vn 0.0001 -0.0655 -0.9979
vn 0.5301 0.8318 -0.1649
vn 0.5555 0.8208 -0.1329
vn 0.5456 0.8272 -0.1347
vn 0.5216 0.8347 -0.1769
vn 0.5213 0.8410 -0.1451
vn 0.4964 0.8603 -0.1159
vn 0.4848 0.8626 -0.1447
vn 0.4825 0.8635 -0.1467
vn 0.4962 0.8566 -0.1413
vn 0.2918 0.9445 -0.1509
vn 0.4828 0.8672 -0.1220
vn 0.4579 0.8784 -0.1368
vn 0.4858 0.8612 -0.1497
vn 0.4532 0.8808 -0.1375
vn 0.4442 0.8845 -0.1427
vn 0.4378 0.8868 -0.1482
vn 0.4771 0.8693 -0.1293
vn 0.4385 0.8916 -0.1134
vn 0.4386 0.8863 -0.1489
vn 0.4596 0.8734 -0.1610
vn 0.4055 0.9058 -0.1227
vn 0.4162 0.9002 -0.1282
vn 0.3969 0.9070 -0.1409
vn 0.1202 0.9863 -0.1130
vn 0.3284 0.9396 -0.0963
vn 0.5663 0.7821 -0.2600
vn 0.3932 0.9087 -0.1402
vn 0.4028 0.9033 -0.1476
vn 0.1832 0.9694 -0.1634
vn 0.2765 0.9480 -0.1580
vn 0.3879 0.9091 -0.1515
vn 0.4200 0.8934 -0.1592
vn 0.4415 0.8848 -0.1494
vn 0.4669 0.8692 -0.1628
vn 0.4623 0.8696 -0.1733
vn 0.4408 0.8806 -0.1736
vn 0.4559 0.8718 -0.1794
vn 0.4286 0.8877 -0.1682
vn 0.6664 -0.0607 -0.7431
vn 0.4505 -0.0495 -0.8914
vn 0.7651 -0.0264 -0.6433
vn 0.4948 0.7375 -0.4597
vn 0.4986 0.7365 -0.4572
vn 0.3079 0.7312 -0.6087
vn 0.2922 0.7253 -0.6234
vn 0.4575 -0.0521 -0.8877
vn 0.0779 0.7259 -0.6834
vn 0.1106 -0.0761 -0.9909
vn 0.4815 -0.0611 -0.8743
vn 0.4172 -0.0488 -0.9075
vn -0.5854 -0.7942 0.1629
vn -0.5861 -0.7984 0.1380
vn -0.5863 -0.7984 0.1375
vn -0.1125 -0.0489 -0.9924
vn -0.6798 -0.0371 -0.7324
vn -0.5818 -0.8102 0.0708
vn -0.6409 -0.0504 -0.7660
vn -0.2751 -0.0699 -0.9589
vn -0.4130 0.7342 -0.5389
vn -0.4114 0.7333 -0.5414
vn -0.1814 0.7212 -0.6685
vn -0.6388 -0.0405 -0.7683
vn -0.8848 -0.0152 -0.4658
vn -0.5770 0.7376 -0.3508
vn -0.8778 -0.0434 -0.4771
vn 0.4872 0.8586 -0.1598
vn -0.6262 -0.0574 -0.7775
vn 0.4853 0.8603 -0.1561
vn -0.9889 0.0543 -0.1380
vn -0.9940 0.0086 -0.1093
vn 0.4984 0.8506 -0.1673
vn -0.9863 -0.0691 0.1500
vn -0.9647 0.1018 0.2428
vn -0.6224 0.7747 0.1118
vn -0.6460 0.7541 -0.1185
vn -0.9561 0.0072 0.2929
vn -0.9943 0.0127 -0.1062
vn -0.9612 -0.0302 -0.2741
vn -0.6086 0.7817 0.1365
vn -0.6020 0.7669 -0.2223
vn -0.7962 0.0559 0.6024
vn -0.7638 0.0484 0.6436
vn -0.4828 0.8006 0.3549
vn -0.5597 0.7830 0.2714
vn -0.8632 0.0481 0.5026
vn -0.6416 0.0675 0.7641
vn -0.4133 0.7910 0.4511
vn -0.2603 0.8126 0.5215
vn -0.1887 0.7992 0.5707
vn -0.6308 0.0411 0.7749
vn -0.3321 0.0527 0.9418
vn -0.2823 0.0849 0.9556
vn -0.0655 0.0436 0.9969
vn 0.0550 0.8058 0.5897
vn 0.0867 0.0930 0.9919
vn 0.2987 0.7932 0.5306
vn 0.1150 0.8186 0.5628
vn 0.4555 0.0723 0.8873
vn 0.2582 0.0474 0.9649
vn 0.4867 0.7944 0.3634
vn 0.7621 0.0501 0.6455
vn 0.5073 0.0503 0.8603
vn 0.4824 0.7915 0.3754
vn 0.6197 0.7746 0.1262
vn 0.9594 0.0344 0.2799
vn 0.6186 0.7753 0.1278
vn 0.7593 0.0520 0.6487
vn 0.8980 0.0154 0.4396
vn 0.9648 -0.0021 0.2628
vn 0.6146 0.7628 -0.2010
vn 0.9719 -0.0409 -0.2318
vn 0.6454 0.7580 -0.0940
vn 0.9992 0.0382 0.0135
vn 0.6082 0.7496 -0.2612
vn 0.9439 -0.0148 -0.3299
vn 0.9974 0.0054 -0.0713
vn 0.9688 -0.0234 -0.2469
vn 0.9935 -0.0078 0.1133
vn 0.7466 0.0536 0.6631
vn 0.1840 0.0400 0.9821
vn 0.4069 0.0787 0.9101
vn 0.7773 0.0316 0.6284
vn -0.4085 0.0454 0.9116
vn -0.1763 0.0875 0.9804
vn -0.8896 -0.0414 0.4549
vn -0.1895 0.7241 -0.6632
vn -0.3003 -0.0561 -0.9522
vn 0.0522 0.7192 -0.6928
vn 0.0832 -0.0582 -0.9948
vn -0.2797 -0.0706 -0.9575
vn 0.7917 -0.0352 -0.6099
vn -0.5923 -0.7975 0.1150
vn 0.1123 -0.0715 -0.9911
vn 0.7788 -0.0293 -0.6265
vn 0.8693 -0.0424 -0.4924
vn 0.4851 0.8606 -0.1550
vn 0.4970 0.8525 -0.1621
vn 0.5072 0.8409 -0.1887
vn 0.4423 0.8797 -0.1747
vn 0.4768 0.8619 -0.1728
vn 0.3810 0.9093 -0.1673
vn 0.3200 0.9349 -0.1533
vn 0.4238 0.8671 -0.2617
vn 0.3434 0.9087 -0.2376
vn 0.4049 0.8911 -0.2048
vn 0.4130 0.8963 -0.1612
vn 0.3316 0.9152 -0.2289
vn 0.4187 0.8800 -0.2245
vn 0.3323 0.9153 -0.2276
vn 0.4290 0.8667 -0.2546
vn -0.3898 0.8805 -0.2697
vn -0.4376 0.8729 -0.2159
vn -0.3870 0.8817 -0.2699
vn 0.3400 0.8989 -0.2763
vn -0.9150 0.3860 -0.1177
vn -0.9546 0.2823 -0.0948
vn -0.3514 0.8875 -0.2982
vn -0.8781 0.4582 -0.1378
vn -0.9998 -0.0196 0.0060
vn -0.9998 -0.0206 0.0068
vn -0.0008 0.0657 0.9978
vn 0.0002 0.0648 0.9979
vn -0.9641 0.2578 -0.0636
vn -0.8760 0.4757 -0.0802
vn -0.9998 -0.0215 0.0052
vn -0.9998 -0.0194 0.0060
vn -0.9998 -0.0199 0.0033
vn -0.9998 -0.0198 0.0033
vn 0.2506 0.9445 -0.2124
vn 0.2098 0.9504 -0.2296
vn 0.2765 0.9479 -0.1582
vn -1.0000 -0.0000 -0.0001
vn -1.0000 -0.0003 0.0001
vn -1.0000 -0.0001 0.0001
vn 0.1859 0.9394 -0.2879
vn 0.1545 0.9485 -0.2765
vn -0.0041 0.0742 0.9972
vn 0.0963 0.9454 -0.3114
vn -0.9686 0.2468 -0.0312
vn -0.0146 -0.0652 -0.9978
vn -0.9160 0.3957 -0.0659
vn -0.9998 -0.0216 0.0028
vn -0.3869 0.9148 -0.1164
vn -0.4163 0.8969 -0.1494
vn -0.3418 0.9318 -0.1222
vn -0.0002 -0.0656 -0.9978
vn -0.3919 0.8938 -0.2178
vn -0.4319 0.8896 -0.1484
vn -0.3650 0.8819 -0.2982
vn 0.0001 -0.0658 -0.9978
vn 0.0004 -0.0655 -0.9979
vn -0.0000 -0.0657 -0.9978
vn 0.6709 -0.7399 0.0486
vn -0.0000 -0.0659 -0.9978
vn -0.5301 -0.8415 0.1045
vn -0.5168 -0.8541 0.0584
vn -0.7416 -0.6694 0.0441
vn -0.8963 -0.3683 0.2470
vn -0.8615 -0.4828 0.1572
vn -0.4077 -0.9057 0.1160
vn 0.0177 -0.8022 -0.5968
vn -0.0213 -0.9096 -0.4149
vn 0.0451 -0.2258 -0.9731
vn 0.9268 0.3328 -0.1740
vn -0.9789 -0.1348 0.1538
vn 0.9053 0.3808 -0.1882
vn 0.9343 0.0039 -0.3565
vn 0.9230 -0.0820 -0.3760
vn 0.7263 -0.6001 -0.3353
vn 0.0017 -0.9978 0.0666
vn -0.9241 0.0920 0.3710
vn -0.9005 -0.3777 0.2156
s 0
usemtl Material.030
f 3//1 2//1 1//1
f 6//2 1//2 2//2
f 5//3 3//3 1//3
f 4//4 5//4 1//4
f 1//5 8//5 4//5
f 1//6 6//6 7//6
f 1//7 7//7 9//7
f 1//8 10//8 8//8
f 1//9 9//9 10//9
f 11//10 8//10 10//10
f 13//11 11//11 10//11
f 15//12 12//12 10//12
f 10//13 12//13 13//13
f 14//14 10//14 9//14
f 15//15 10//15 14//15
f 15//16 18//16 12//16
f 15//17 19//17 16//17
f 16//18 18//18 15//18
f 14//19 17//19 15//19
f 15//20 17//20 20//20
f 19//21 15//21 20//21
f 21//22 24//22 20//22
f 20//23 23//23 21//23
f 17//24 22//24 20//24
f 23//25 20//25 22//25
f 24//26 19//26 20//26
f 24//27 27//27 25//27
f 24//28 25//28 19//28
f 26//29 27//29 24//29
f 26//30 24//30 21//30
f 29//31 25//31 27//31
f 30//32 28//32 27//32
f 28//33 29//33 27//33
f 26//34 31//34 27//34
f 30//35 27//35 31//35
f 33//35 30//35 31//35
f 34//36 32//36 31//36
f 31//37 32//37 33//37
f 31//38 26//38 34//38
f 34//39 35//39 32//39
f 34//40 36//40 35//40
f 3//41 5//41 34//41
f 5//42 36//42 34//42
f 34//43 26//43 3//43
f 37//44 40//44 36//44
f 38//45 37//45 36//45
f 36//46 39//46 38//46
f 35//47 36//47 40//47
f 5//48 39//48 36//48
f 40//49 41//49 42//49
f 43//50 41//50 40//50
f 42//51 44//51 40//51
f 40//52 37//52 43//52
f 35//53 40//53 44//53
f 44//54 42//54 45//54
f 45//55 46//55 44//55
f 35//56 44//56 46//56
f 46//57 45//57 48//57
f 47//58 46//58 49//58
f 46//59 47//59 35//59
f 48//60 49//60 46//60
f 51//61 50//61 49//61
f 50//61 47//61 49//61
f 49//62 52//62 51//62
f 48//63 52//63 49//63
f 51//64 52//64 53//64
f 53//65 52//65 48//65
f 53//65 48//65 54//65
f 55//66 53//66 54//66
f 56//67 50//67 53//67
f 53//68 50//68 51//68
f 53//69 55//69 56//69
f 56//70 33//70 57//70
f 50//71 56//71 57//71
f 58//72 33//72 56//72
f 56//73 55//73 58//73
f 28//74 58//74 60//74
f 28//75 30//75 58//75
f 58//76 55//76 59//76
f 59//77 60//77 58//77
f 58//78 30//78 33//78
f 29//79 60//79 61//79
f 60//80 29//80 28//80
f 60//81 59//81 54//81
f 54//82 61//82 60//82
f 61//83 62//83 29//83
f 62//84 61//84 63//84
f 61//85 54//85 64//85
f 64//86 63//86 61//86
f 64//87 67//87 65//87
f 64//87 65//87 66//87
f 63//88 64//88 66//88
f 54//89 67//89 64//89
f 65//90 67//90 70//90
f 67//91 68//91 71//91
f 68//92 67//92 69//92
f 54//93 69//93 67//93
f 71//94 70//94 67//94
f 70//95 71//95 41//95
f 71//96 42//96 41//96
f 42//97 71//97 68//97
f 41//98 73//98 70//98
f 70//99 72//99 65//99
f 72//100 70//100 73//100
f 74//101 73//101 41//101
f 73//102 74//102 75//102
f 75//103 76//103 73//103
f 73//104 76//104 72//104
f 75//105 77//105 76//105
f 78//106 76//106 77//106
f 78//107 72//107 76//107
f 80//108 78//108 79//108
f 77//109 79//109 78//109
f 78//110 80//110 72//110
f 79//111 83//111 80//111
f 66//112 65//112 80//112
f 66//113 80//113 82//113
f 82//114 80//114 81//114
f 81//112 80//112 83//112
f 72//115 80//115 65//115
f 84//116 83//116 85//116
f 81//87 83//87 84//87
f 83//117 79//117 85//117
f 79//118 77//118 85//118
f 85//119 86//119 87//119
f 85//120 88//120 86//120
f 85//121 87//121 84//121
f 85//122 77//122 88//122
f 88//123 89//123 86//123
f 88//124 90//124 89//124
f 90//125 88//125 92//125
f 88//126 91//126 92//126
f 77//127 91//127 88//127
f 92//128 93//128 90//128
f 94//129 93//129 92//129
f 91//130 94//130 92//130
f 93//131 94//131 95//131
f 95//132 94//132 96//132
f 96//133 94//133 91//133
f 74//134 97//134 96//134
f 96//135 97//135 95//135
f 75//136 74//136 96//136
f 75//137 96//137 91//137
f 97//138 74//138 102//138
f 98//139 97//139 99//139
f 100//140 97//140 98//140
f 97//141 100//141 95//141
f 99//142 97//142 101//142
f 104//143 101//143 97//143
f 103//144 97//144 102//144
f 104//145 97//145 103//145
f 104//146 103//146 105//146
f 101//147 104//147 106//147
f 105//148 107//148 104//148
f 107//149 106//149 104//149
f 107//150 105//150 108//150
f 106//151 107//151 109//151
f 108//152 109//152 107//152
f 106//153 109//153 110//153
f 110//154 109//154 17//154
f 109//155 108//155 17//155
f 17//156 14//156 110//156
f 14//157 9//157 110//157
f 112//158 106//158 110//158
f 9//159 111//159 110//159
f 110//160 111//160 113//160
f 113//161 112//161 110//161
f 114//162 113//162 111//162
f 112//163 113//163 99//163
f 99//164 113//164 114//164
f 115//165 117//165 114//165
f 114//166 116//166 115//166
f 111//167 116//167 114//167
f 117//168 99//168 114//168
f 117//169 118//169 99//169
f 117//170 115//170 118//170
f 118//171 119//171 120//171
f 119//172 118//172 121//172
f 99//173 118//173 120//173
f 118//174 39//174 121//174
f 39//175 118//175 38//175
f 118//176 122//176 38//176
f 123//177 122//177 118//177
f 118//178 115//178 123//178
f 116//179 123//179 115//179
f 124//180 122//180 123//180
f 123//181 116//181 124//181
f 122//182 124//182 126//182
f 125//183 124//183 116//183
f 124//184 125//184 127//184
f 127//185 126//185 124//185
f 126//186 127//186 128//186
f 6//187 128//187 127//187
f 6//188 127//188 125//188
f 128//189 129//189 126//189
f 131//190 129//190 128//190
f 128//191 6//191 2//191
f 2//192 130//192 128//192
f 128//193 130//193 131//193
f 132//194 129//194 131//194
f 132//195 131//195 133//195
f 133//196 131//196 130//196
f 133//197 134//197 132//197
f 134//198 133//198 136//198
f 130//199 135//199 133//199
f 136//200 133//200 135//200
f 136//201 137//201 134//201
f 137//202 136//202 138//202
f 138//203 136//203 135//203
f 138//204 139//204 137//204
f 139//205 138//205 140//205
f 140//206 138//206 141//206
f 135//207 141//207 138//207
f 142//208 141//208 135//208
f 142//209 143//209 141//209
f 140//210 141//210 143//210
f 23//211 145//211 143//211
f 142//212 23//212 143//212
f 143//213 144//213 140//213
f 144//214 143//214 145//214
f 23//215 146//215 145//215
f 145//216 147//216 144//216
f 146//217 148//217 145//217
f 145//218 148//218 147//218
f 149//219 150//219 148//219
f 148//220 151//220 149//220
f 147//221 148//221 150//221
f 146//222 151//222 148//222
f 108//223 105//223 151//223
f 151//224 146//224 108//224
f 103//225 149//225 151//225
f 151//226 105//226 103//226
f 150//227 152//227 147//227
f 152//228 150//228 102//228
f 150//229 149//229 102//229
f 43//230 152//230 74//230
f 152//231 102//231 74//231
f 144//232 152//232 43//232
f 144//233 147//233 152//233
f 149//234 103//234 102//234
f 108//235 146//235 22//235
f 23//236 22//236 146//236
f 43//237 140//237 144//237
f 142//238 153//238 21//238
f 21//239 23//239 142//239
f 135//240 153//240 142//240
f 21//241 153//241 3//241
f 153//242 135//242 130//242
f 153//243 130//243 2//243
f 3//244 153//244 2//244
f 140//245 43//245 139//245
f 37//246 137//246 139//246
f 37//247 139//247 43//247
f 37//248 134//248 137//248
f 38//249 134//249 37//249
f 38//250 132//250 134//250
f 129//251 132//251 154//251
f 154//252 132//252 38//252
f 129//253 154//253 122//253
f 38//254 122//254 154//254
f 122//255 126//255 129//255
f 9//256 125//256 111//256
f 125//257 9//257 7//257
f 116//258 111//258 125//258
f 125//259 7//259 6//259
f 121//260 155//260 119//260
f 156//261 155//261 121//261
f 156//262 121//262 39//262
f 157//263 156//263 159//263
f 156//264 157//264 13//264
f 156//265 13//265 158//265
f 156//266 158//266 155//266
f 156//267 39//267 159//267
f 159//268 4//268 157//268
f 4//269 159//269 160//269
f 159//267 39//267 160//267
f 160//270 5//270 4//270
f 160//271 39//271 5//271
f 161//272 158//272 13//272
f 162//273 158//273 161//273
f 158//266 162//266 155//266
f 163//273 162//273 161//273
f 119//274 155//274 162//274
f 162//274 163//274 119//274
f 163//48 161//48 164//48
f 166//275 163//275 164//275
f 163//274 165//274 119//274
f 166//274 165//274 163//274
f 166//276 167//276 165//276
f 166//277 164//277 167//277
f 168//266 169//266 167//266
f 168//266 167//266 170//266
f 165//274 167//274 169//274
f 167//277 164//277 170//277
f 170//272 171//272 168//272
f 170//278 173//278 171//278
f 170//272 164//272 172//272
f 172//279 173//279 170//279
f 178//280 171//280 173//280
f 173//281 174//281 175//281
f 172//282 174//282 173//282
f 173//283 175//283 176//283
f 173//284 176//284 177//284
f 173//285 177//285 179//285
f 173//286 179//286 178//286
f 180//287 179//287 177//287
f 180//288 181//288 179//288
f 181//289 182//289 179//289
f 179//290 182//290 183//290
f 183//291 184//291 179//291
f 179//292 185//292 178//292
f 179//293 184//293 185//293
f 185//294 184//294 188//294
f 187//295 186//295 185//295
f 185//296 186//296 178//296
f 187//294 185//294 188//294
f 191//297 188//297 189//297
f 189//298 188//298 192//298
f 190//299 193//299 188//299
f 191//300 190//300 188//300
f 184//294 192//294 188//294
f 188//298 193//298 187//298
f 190//266 187//266 193//266
f 197//301 192//301 184//301
f 192//298 194//298 189//298
f 196//302 194//302 192//302
f 195//303 192//303 197//303
f 196//304 192//304 195//304
f 197//305 184//305 183//305
f 199//306 197//306 183//306
f 198//307 195//307 197//307
f 198//308 197//308 199//308
f 199//309 183//309 172//309
f 164//310 199//310 172//310
f 164//311 198//311 199//311
f 200//312 195//312 198//312
f 164//272 200//272 198//272
f 201//313 196//313 200//313
f 164//314 201//314 200//314
f 200//315 196//315 195//315
f 164//316 202//316 201//316
f 201//317 202//317 203//317
f 203//318 196//318 201//318
f 203//319 202//319 204//319
f 203//320 194//320 196//320
f 204//321 205//321 203//321
f 206//322 203//322 205//322
f 206//323 194//323 203//323
f 207//324 208//324 206//324
f 205//325 207//325 206//325
f 208//326 194//326 206//326
f 208//327 209//327 194//327
f 208//328 210//328 209//328
f 211//329 210//329 208//329
f 211//330 208//330 207//330
f 207//330 214//330 211//330
f 210//331 211//331 212//331
f 212//123 211//123 213//123
f 213//332 211//332 214//332
f 214//333 207//333 215//333
f 214//332 215//332 216//332
f 214//332 216//332 213//332
f 217//332 213//332 216//332
f 216//334 219//334 217//334
f 218//335 219//335 216//335
f 218//336 216//336 220//336
f 220//332 216//332 215//332
f 221//337 218//337 220//337
f 221//338 220//338 222//338
f 220//339 215//339 222//339
f 215//340 223//340 222//340
f 222//341 223//341 224//341
f 225//342 221//342 222//342
f 224//343 225//343 222//343
f 224//344 227//344 225//344
f 225//345 218//345 221//345
f 218//346 225//346 226//346
f 227//347 226//347 225//347
f 228//348 232//348 227//348
f 228//349 227//349 224//349
f 227//350 229//350 226//350
f 229//351 227//351 230//351
f 231//352 230//352 227//352
f 227//353 232//353 231//353
f 233//354 232//354 228//354
f 233//355 234//355 232//355
f 231//356 232//356 234//356
f 234//357 235//357 231//357
f 234//358 237//358 235//358
f 234//359 165//359 236//359
f 237//360 234//360 236//360
f 234//361 238//361 165//361
f 233//362 238//362 234//362
f 238//363 239//363 165//363
f 240//364 239//364 238//364
f 233//365 240//365 238//365
f 240//366 243//366 239//366
f 242//367 241//367 240//367
f 240//368 241//368 243//368
f 240//369 233//369 242//369
f 244//370 239//370 243//370
f 243//371 245//371 244//371
f 243//372 241//372 245//372
f 245//373 248//373 246//373
f 246//374 244//374 245//374
f 245//375 249//375 247//375
f 248//376 245//376 247//376
f 245//377 241//377 249//377
f 250//378 249//378 241//378
f 249//124 250//124 251//124
f 252//124 249//124 251//124
f 247//379 249//379 252//379
f 253//380 247//380 252//380
f 253//381 252//381 255//381
f 256//382 254//382 252//382
f 255//383 252//383 254//383
f 256//384 252//384 251//384
f 259//385 254//385 256//385
f 257//386 258//386 256//386
f 251//387 257//387 256//387
f 256//388 258//388 259//388
f 255//389 254//389 259//389
f 259//390 261//390 260//390
f 260//391 255//391 259//391
f 261//392 259//392 258//392
f 262//393 263//393 261//393
f 262//394 261//394 264//394
f 263//395 260//395 261//395
f 258//396 264//396 261//396
f 262//397 264//397 202//397
f 264//398 265//398 202//398
f 257//399 265//399 264//399
f 264//400 258//400 257//400
f 202//401 265//401 266//401
f 257//402 267//402 265//402
f 267//403 266//403 265//403
f 267//404 268//404 266//404
f 270//405 268//405 267//405
f 257//406 269//406 267//406
f 270//407 267//407 269//407
f 270//408 273//408 268//408
f 272//409 270//409 269//409
f 271//410 273//410 270//410
f 270//411 274//411 271//411
f 274//412 270//412 272//412
f 274//413 278//413 275//413
f 274//414 275//414 276//414
f 274//415 276//415 271//415
f 274//416 272//416 277//416
f 274//417 277//417 279//417
f 278//418 274//418 279//418
f 282//419 279//419 280//419
f 279//420 277//420 280//420
f 279//421 281//421 278//421
f 281//422 279//422 282//422
f 285//423 282//423 283//423
f 284//424 283//424 282//424
f 282//424 280//424 284//424
f 281//425 282//425 285//425
f 286//426 289//426 285//426
f 285//427 287//427 286//427
f 283//423 287//423 285//423
f 288//428 281//428 285//428
f 290//429 288//429 285//429
f 285//430 289//430 290//430
f 288//332 290//332 278//332
f 291//431 290//431 289//431
f 291//332 292//332 290//332
f 292//332 278//332 290//332
f 294//432 292//432 293//432
f 295//433 293//433 292//433
f 291//332 296//332 292//332
f 271//434 292//434 294//434
f 296//332 295//332 292//332
f 297//435 292//435 298//435
f 278//436 292//436 297//436
f 271//437 298//437 292//437
f 299//438 297//438 298//438
f 298//438 300//438 299//438
f 300//439 298//439 301//439
f 301//440 298//440 271//440
f 302//441 301//441 303//441
f 301//442 302//442 300//442
f 301//443 276//443 303//443
f 271//444 276//444 301//444
f 305//445 303//445 276//445
f 303//87 304//87 302//87
f 306//87 304//87 303//87
f 305//87 284//87 303//87
f 303//87 284//87 306//87
f 304//446 306//446 307//446
f 280//447 307//447 306//447
f 306//448 284//448 280//448
f 307//449 308//449 304//449
f 280//450 277//450 307//450
f 308//451 307//451 309//451
f 277//452 309//452 307//452
f 309//453 277//453 272//453
f 309//454 294//454 310//454
f 310//455 308//455 309//455
f 309//456 271//456 294//456
f 309//457 272//457 312//457
f 311//458 309//458 215//458
f 271//456 309//456 311//456
f 312//459 215//459 309//459
f 312//332 223//332 215//332
f 312//460 313//460 251//460
f 272//461 313//461 312//461
f 314//462 223//462 312//462
f 251//463 250//463 312//463
f 250//463 314//463 312//463
f 316//464 315//464 314//464
f 314//465 315//465 223//465
f 250//466 316//466 314//466
f 315//467 316//467 317//467
f 316//468 241//468 317//468
f 316//469 250//469 241//469
f 242//470 228//470 317//470
f 315//471 317//471 228//471
f 241//472 242//472 317//472
f 315//473 228//473 224//473
f 315//474 224//474 223//474
f 272//475 269//475 313//475
f 269//476 251//476 313//476
f 318//477 271//477 311//477
f 311//478 215//478 207//478
f 318//479 311//479 207//479
f 205//480 319//480 318//480
f 318//481 207//481 205//481
f 273//477 271//477 318//477
f 273//482 318//482 319//482
f 319//483 321//483 273//483
f 320//484 319//484 205//484
f 321//485 319//485 320//485
f 321//486 204//486 266//486
f 320//487 204//487 321//487
f 273//488 321//488 268//488
f 266//489 268//489 321//489
f 204//490 320//490 205//490
f 310//491 324//491 322//491
f 322//492 323//492 310//492
f 308//493 310//493 323//493
f 310//494 294//494 324//494
f 322//495 324//495 325//495
f 325//496 324//496 326//496
f 326//497 324//497 296//497
f 296//498 324//498 294//498
f 325//499 326//499 327//499
f 327//500 326//500 296//500
f 328//501 327//501 329//501
f 327//502 328//502 325//502
f 329//503 327//503 291//503
f 327//504 296//504 291//504
f 329//505 330//505 328//505
f 330//506 329//506 289//506
f 289//507 329//507 291//507
f 328//508 330//508 299//508
f 299//87 330//87 331//87
f 330//87 286//87 331//87
f 289//509 286//509 330//509
f 275//298 332//298 331//298
f 331//298 305//298 275//298
f 331//510 332//510 297//510
f 297//510 299//510 331//510
f 286//87 287//87 331//87
f 331//87 287//87 305//87
f 332//511 278//511 297//511
f 275//512 278//512 332//512
f 299//87 325//87 328//87
f 300//87 322//87 325//87
f 300//87 325//87 299//87
f 323//513 304//513 308//513
f 302//87 304//87 323//87
f 302//87 323//87 322//87
f 302//87 322//87 300//87
f 276//514 275//514 305//514
f 284//87 305//87 283//87
f 283//87 305//87 287//87
f 295//515 296//515 294//515
f 294//516 293//516 295//516
f 281//421 288//421 278//421
f 257//517 251//517 269//517
f 202//518 266//518 204//518
f 263//519 335//519 333//519
f 333//520 260//520 263//520
f 334//521 263//521 262//521
f 263//522 334//522 335//522
f 333//523 335//523 336//523
f 337//524 335//524 334//524
f 337//525 336//525 335//525
f 339//526 337//526 338//526
f 338//527 337//527 334//527
f 339//528 336//528 337//528
f 18//529 341//529 339//529
f 338//530 18//530 339//530
f 339//531 342//531 340//531
f 340//532 343//532 339//532
f 341//533 342//533 339//533
f 336//534 339//534 343//534
f 340//535 345//535 343//535
f 343//536 345//536 344//536
f 343//537 344//537 336//537
f 345//538 346//538 347//538
f 345//539 340//539 346//539
f 344//540 345//540 347//540
f 349//541 347//541 346//541
f 348//542 347//542 349//542
f 348//543 344//543 347//543
f 350//544 349//544 351//544
f 349//545 350//545 352//545
f 354//546 351//546 349//546
f 348//547 349//547 352//547
f 349//548 62//548 354//548
f 349//549 353//549 62//549
f 353//550 349//550 346//550
f 63//551 354//551 62//551
f 354//552 63//552 66//552
f 82//553 354//553 66//553
f 354//554 82//554 351//554
f 25//332 353//332 19//332
f 353//555 355//555 19//555
f 62//556 353//556 25//556
f 346//557 355//557 353//557
f 19//558 355//558 16//558
f 355//559 342//559 341//559
f 342//560 355//560 340//560
f 341//561 356//561 355//561
f 340//562 355//562 346//562
f 355//563 356//563 16//563
f 16//564 356//564 18//564
f 18//565 356//565 341//565
f 89//566 357//566 352//566
f 352//567 357//567 358//567
f 358//568 348//568 352//568
f 352//569 350//569 89//569
f 358//570 357//570 359//570
f 348//571 358//571 344//571
f 344//572 358//572 359//572
f 359//573 362//573 333//573
f 359//574 333//574 336//574
f 89//575 360//575 359//575
f 361//576 359//576 360//576
f 359//577 361//577 363//577
f 359//578 363//578 362//578
f 359//579 336//579 344//579
f 357//580 89//580 359//580
f 363//581 367//581 364//581
f 364//582 362//582 363//582
f 363//583 361//583 365//583
f 363//584 365//584 366//584
f 366//584 367//584 363//584
f 368//298 369//298 367//298
f 366//298 368//298 367//298
f 369//298 364//298 367//298
f 371//585 369//585 368//585
f 372//586 370//586 369//586
f 370//298 364//298 369//298
f 369//587 371//587 372//587
f 372//588 371//588 360//588
f 373//589 372//589 360//589
f 370//590 372//590 373//590
f 360//591 375//591 373//591
f 374//592 373//592 376//592
f 373//593 374//593 370//593
f 375//594 376//594 373//594
f 377//595 376//595 378//595
f 376//596 377//596 374//596
f 378//597 376//597 375//597
f 378//598 380//598 379//598
f 379//599 377//599 378//599
f 380//600 378//600 375//600
f 380//601 381//601 382//601
f 381//602 380//602 385//602
f 382//603 379//603 380//603
f 384//604 380//604 383//604
f 383//605 380//605 375//605
f 380//606 384//606 385//606
f 385//607 387//607 386//607
f 381//608 385//608 386//608
f 384//609 387//609 385//609
f 388//583 387//583 389//583
f 361//583 387//583 388//583
f 387//610 361//610 386//610
f 333//611 389//611 387//611
f 390//612 383//612 387//612
f 384//613 390//613 387//613
f 387//614 383//614 375//614
f 333//615 387//615 375//615
f 383//616 390//616 384//616
f 388//617 389//617 391//617
f 391//87 389//87 392//87
f 392//618 389//618 333//618
f 392//87 393//87 391//87
f 362//619 393//619 392//619
f 392//620 333//620 362//620
f 377//298 393//298 364//298
f 379//298 393//298 377//298
f 393//298 379//298 391//298
f 362//619 364//619 393//619
f 391//298 379//298 382//298
f 391//298 382//298 394//298
f 391//617 394//617 388//617
f 394//298 382//298 395//298
f 396//298 394//298 395//298
f 394//298 396//298 366//298
f 365//621 388//621 394//621
f 394//621 366//621 365//621
f 366//298 396//298 397//298
f 396//622 395//622 398//622
f 397//623 396//623 399//623
f 398//624 399//624 396//624
f 399//625 400//625 397//625
f 399//626 401//626 400//626
f 386//627 399//627 398//627
f 399//628 386//628 401//628
f 401//629 402//629 400//629
f 402//630 401//630 361//630
f 401//631 386//631 361//631
f 402//632 403//632 400//632
f 402//633 404//633 403//633
f 404//634 402//634 361//634
f 403//635 404//635 361//635
f 403//636 361//636 360//636
f 403//637 360//637 400//637
f 368//638 400//638 371//638
f 371//639 400//639 360//639
f 400//640 368//640 397//640
f 398//641 381//641 386//641
f 381//642 398//642 395//642
f 366//298 397//298 368//298
f 395//643 382//643 381//643
f 365//644 361//644 388//644
f 374//298 377//298 364//298
f 360//462 90//462 375//462
f 375//645 405//645 333//645
f 405//646 375//646 406//646
f 375//647 90//647 406//647
f 405//648 406//648 407//648
f 406//649 90//649 93//649
f 407//650 406//650 408//650
f 93//651 408//651 406//651
f 409//652 410//652 408//652
f 408//653 93//653 409//653
f 408//654 410//654 411//654
f 407//655 408//655 411//655
f 407//656 411//656 253//656
f 248//657 253//657 411//657
f 411//658 246//658 248//658
f 411//659 410//659 246//659
f 413//660 410//660 409//660
f 246//661 410//661 412//661
f 410//662 413//662 412//662
f 412//663 413//663 119//663
f 413//664 414//664 119//664
f 409//665 414//665 413//665
f 414//666 409//666 100//666
f 414//667 120//667 119//667
f 414//668 98//668 120//668
f 98//669 414//669 100//669
f 412//670 415//670 246//670
f 415//671 412//671 119//671
f 416//266 415//266 119//266
f 415//672 244//672 246//672
f 415//673 416//673 244//673
f 239//674 416//674 119//674
f 239//675 244//675 416//675
f 95//676 409//676 93//676
f 409//677 95//677 100//677
f 407//123 253//123 255//123
f 407//678 255//678 405//678
f 333//679 405//679 260//679
f 260//680 405//680 255//680
f 370//298 374//298 364//298
f 89//646 90//646 360//646
f 82//681 417//681 351//681
f 350//682 351//682 86//682
f 86//683 351//683 417//683
f 82//684 81//684 417//684
f 87//685 417//685 81//685
f 417//686 87//686 86//686
f 350//687 86//687 89//687
f 161//688 18//688 338//688
f 161//272 338//272 202//272
f 262//332 202//332 338//332
f 338//689 334//689 262//689
f 253//690 248//690 247//690
f 233//691 228//691 242//691
f 119//692 165//692 239//692
f 237//693 419//693 235//693
f 418//694 237//694 236//694
f 418//695 421//695 237//695
f 237//696 420//696 419//696
f 422//697 420//697 237//697
f 422//698 237//698 421//698
f 424//699 422//699 423//699
f 422//700 426//700 423//700
f 422//701 424//701 425//701
f 422//702 425//702 420//702
f 422//703 421//703 426//703
f 427//704 426//704 428//704
f 423//705 426//705 427//705
f 429//706 428//706 426//706
f 429//707 426//707 430//707
f 432//708 430//708 426//708
f 421//709 431//709 426//709
f 432//710 426//710 431//710
f 433//711 430//711 432//711
f 435//712 433//712 432//712
f 434//713 436//713 432//713
f 431//714 434//714 432//714
f 436//715 435//715 432//715
f 441//716 436//716 434//716
f 436//717 437//717 438//717
f 444//718 437//718 436//718
f 438//719 439//719 436//719
f 439//720 435//720 436//720
f 436//721 441//721 440//721
f 440//722 443//722 436//722
f 442//723 436//723 443//723
f 444//724 436//724 442//724
f 442//725 445//725 444//725
f 448//726 444//726 445//726
f 446//727 444//727 447//727
f 444//728 446//728 449//728
f 444//729 448//729 447//729
f 444//730 449//730 437//730
f 450//731 437//731 449//731
f 450//732 449//732 446//732
f 437//733 450//733 451//733
f 451//734 450//734 453//734
f 450//735 452//735 453//735
f 455//736 452//736 450//736
f 450//737 454//737 455//737
f 446//738 454//738 450//738
f 456//739 455//739 454//739
f 458//740 455//740 456//740
f 457//741 452//741 455//741
f 455//742 458//742 457//742
f 459//743 172//743 458//743
f 458//744 172//744 183//744
f 458//745 183//745 457//745
f 458//746 456//746 459//746
f 459//747 460//747 174//747
f 174//748 172//748 459//748
f 459//749 461//749 460//749
f 459//750 456//750 461//750
f 463//751 460//751 461//751
f 461//752 462//752 463//752
f 462//753 461//753 456//753
f 466//754 463//754 462//754
f 465//755 464//755 463//755
f 463//756 464//756 460//756
f 463//757 466//757 465//757
f 419//758 465//758 466//758
f 462//759 448//759 466//759
f 419//760 466//760 448//760
f 465//761 420//761 467//761
f 467//762 464//762 465//762
f 420//763 465//763 419//763
f 420//764 425//764 467//764
f 468//765 467//765 425//765
f 467//766 468//766 469//766
f 469//767 464//767 467//767
f 469//768 470//768 175//768
f 175//769 174//769 469//769
f 174//770 460//770 469//770
f 468//771 470//771 469//771
f 464//772 469//772 460//772
f 176//773 175//773 470//773
f 470//774 471//774 176//774
f 471//775 470//775 472//775
f 468//776 472//776 470//776
f 424//777 472//777 468//777
f 473//778 472//778 424//778
f 472//779 473//779 471//779
f 473//780 474//780 471//780
f 473//781 475//781 474//781
f 424//782 423//782 473//782
f 423//783 427//783 473//783
f 427//784 475//784 473//784
f 427//785 428//785 475//785
f 474//786 475//786 476//786
f 476//787 475//787 428//787
f 477//788 476//788 478//788
f 476//789 477//789 474//789
f 478//790 476//790 429//790
f 428//791 429//791 476//791
f 477//792 478//792 479//792
f 479//793 478//793 430//793
f 429//794 430//794 478//794
f 479//795 480//795 477//795
f 480//796 479//796 482//796
f 435//797 481//797 479//797
f 482//798 479//798 481//798
f 430//799 433//799 479//799
f 433//800 435//800 479//800
f 480//801 482//801 181//801
f 453//802 482//802 483//802
f 182//803 482//803 453//803
f 481//804 483//804 482//804
f 482//805 182//805 181//805
f 483//806 451//806 453//806
f 438//807 451//807 483//807
f 439//808 483//808 481//808
f 483//809 439//809 438//809
f 481//810 435//810 439//810
f 477//811 480//811 181//811
f 474//812 477//812 177//812
f 180//813 177//813 477//813
f 181//814 180//814 477//814
f 471//815 474//815 176//815
f 177//816 176//816 474//816
f 425//817 424//817 468//817
f 456//818 484//818 462//818
f 448//819 462//819 484//819
f 454//820 484//820 456//820
f 447//821 484//821 454//821
f 484//822 447//822 448//822
f 452//823 457//823 182//823
f 457//824 183//824 182//824
f 454//825 446//825 447//825
f 182//826 453//826 452//826
f 451//827 438//827 437//827
f 448//828 235//828 419//828
f 448//829 445//829 235//829
f 231//830 235//830 445//830
f 442//831 230//831 445//831
f 445//832 230//832 231//832
f 442//833 443//833 485//833
f 485//834 443//834 440//834
f 485//835 486//835 229//835
f 485//836 440//836 486//836
f 229//837 230//837 485//837
f 485//838 230//838 442//838
f 486//839 487//839 218//839
f 226//840 486//840 218//840
f 440//841 487//841 486//841
f 226//842 229//842 486//842
f 487//843 488//843 489//843
f 488//844 487//844 440//844
f 489//845 219//845 487//845
f 218//846 487//846 219//846
f 491//847 489//847 488//847
f 491//848 490//848 489//848
f 219//849 489//849 490//849
f 488//850 493//850 491//850
f 492//851 491//851 493//851
f 213//852 491//852 492//852
f 491//853 213//853 217//853
f 491//854 217//854 490//854
f 493//855 488//855 494//855
f 496//856 493//856 494//856
f 495//857 493//857 497//857
f 492//858 493//858 495//858
f 191//859 493//859 496//859
f 493//860 191//860 497//860
f 497//861 189//861 498//861
f 495//862 497//862 498//862
f 497//863 191//863 189//863
f 498//864 189//864 194//864
f 498//865 209//865 210//865
f 498//865 194//865 209//865
f 210//866 499//866 498//866
f 492//867 495//867 498//867
f 498//868 499//868 492//868
f 499//866 210//866 212//866
f 499//869 212//869 213//869
f 213//870 492//870 499//870
f 501//871 500//871 496//871
f 190//872 496//872 500//872
f 494//873 501//873 496//873
f 496//874 190//874 191//874
f 500//875 501//875 441//875
f 501//876 494//876 441//876
f 441//877 434//877 500//877
f 190//878 500//878 434//878
f 440//879 494//879 488//879
f 440//880 441//880 494//880
f 490//881 217//881 219//881
f 190//266 434//266 431//266
f 190//882 431//882 186//882
f 186//275 431//275 421//275
f 169//883 421//883 418//883
f 168//884 421//884 169//884
f 186//671 421//671 168//671
f 236//885 169//885 418//885
f 236//277 165//277 169//277
f 161//272 202//272 164//272
f 187//886 190//886 186//886
f 186//887 171//887 178//887
f 168//888 171//888 186//888
f 161//889 12//889 18//889
f 13//278 12//278 161//278
f 157//890 4//890 8//890
f 8//891 11//891 157//891
f 11//892 13//892 157//892
f 98//139 99//139 120//139
f 106//893 112//893 101//893
f 99//894 101//894 112//894
f 22//895 17//895 108//895
f 77//896 75//896 91//896
f 87//897 81//897 84//897
f 41//898 43//898 74//898
f 69//899 48//899 45//899
f 54//93 48//93 69//93
f 45//900 68//900 69//900
f 68//901 45//901 42//901
f 25//902 29//902 62//902
f 54//903 59//903 55//903
f 57//61 47//61 50//61
f 57//884 33//884 47//884
f 33//266 35//266 47//266
f 35//266 33//266 32//266
f 21//904 3//904 26//904
