# Blender 5.0.1
# www.blender.org
mtllib torso_y_link_visual_35.mtl
o i01.torso.full.037_visual.001
v 0.067092 0.054216 -0.032622
v 0.067092 0.058021 0.025244
v 0.067092 -0.054216 0.032623
v 0.000565 0.057149 0.011987
v 0.067092 -0.058021 -0.025244
v -0.067092 0.054216 -0.032623
v -0.067092 -0.054216 0.032623
v -0.067092 0.058021 0.025244
v -0.067092 -0.058021 -0.025244
v 0.000565 -0.055087 0.019367
vn -0.0000 0.9978 -0.0656
vn 1.0000 -0.0000 -0.0000
vn -0.0000 -0.0656 -0.9978
vn -1.0000 -0.0000 -0.0000
vn -0.0000 -0.9978 0.0656
vn 0.1927 0.0644 0.9791
vn -0.1958 0.0643 0.9785
s 0
usemtl Material.027
f 1//1 4//1 2//1
f 3//2 1//2 2//2
f 5//2 1//2 3//2
f 4//1 1//1 6//1
f 5//3 6//3 1//3
f 7//4 6//4 9//4
f 7//4 8//4 6//4
f 4//1 6//1 8//1
f 9//3 6//3 5//3
f 5//5 7//5 9//5
f 10//6 8//6 7//6
f 8//6 10//6 4//6
f 7//5 5//5 10//5
f 10//5 5//5 3//5
f 10//7 2//7 4//7
f 2//7 10//7 3//7
