# Blender 5.0.1
# www.blender.org
mtllib torso_z_link_visual_23.mtl
o i01.torso.topStom.full.024_visual.001
v 0.616113 0.060946 -0.402466
v 0.597826 -0.115738 -0.431165
v 0.578479 0.056015 -0.477445
v 0.536504 0.056463 -0.470628
v 0.645814 0.066904 -0.311841
v 0.641583 -0.108320 -0.318356
v 0.585217 0.062812 -0.374084
v 0.618604 0.070815 -0.252370
v 0.536828 -0.117667 -0.460494
v 0.593943 -0.109617 -0.338101
v 0.620870 -0.102283 -0.226556
v 0.661552 -0.101904 -0.220804
v 0.666685 -0.093884 -0.098808
v 0.626769 0.076680 -0.163171
v 0.627142 -0.095053 -0.116578
v 0.623020 0.083012 -0.066841
v 0.616522 -0.088695 -0.019910
v 0.592992 0.091315 0.059441
v 0.592255 -0.082669 0.071733
v 0.648982 -0.086146 0.018849
v 0.658880 0.084442 -0.045122
v 0.616485 -0.079518 0.119668
v 0.640080 0.090125 0.041298
v 0.597484 0.097276 0.150050
v 0.569541 -0.073504 0.211153
v 0.564725 0.095624 0.124927
v 0.526864 0.100205 0.194662
v 0.534545 0.103990 0.252148
v 0.466170 0.109074 0.329467
v 0.516634 -0.068592 0.285820
v 0.446279 0.106728 0.293804
v 0.481958 -0.069944 0.265260
v 0.430778 -0.066350 0.319924
v 0.381639 0.110420 0.349946
v 0.349258 -0.062047 0.385365
v 0.381104 0.113748 0.400523
v 0.320011 0.113191 0.392093
v 0.271742 0.026823 0.423065
v 0.246230 0.115631 0.429187
v 0.271742 -0.059195 0.428721
v 0.277912 0.117576 0.458776
v 0.213912 -0.054782 0.495869
v 0.324057 -0.057988 0.447089
v 0.193968 0.119638 0.490129
v 0.159090 0.117626 0.459519
v 0.101708 0.121089 0.512211
v 0.121235 -0.053216 0.519659
v 0.038066 -0.052582 0.529301
v -0.000413 0.121527 0.518863
v -0.000413 0.118923 0.479262
v 0.059342 0.118763 0.476821
v 0.079240 0.030640 0.481097
v -0.000413 0.030899 0.485050
v 0.200577 0.028781 0.452867
v 0.222039 0.019261 0.308064
v -0.000501 0.019838 0.316832
v -0.000501 0.025872 0.408607
v -0.074014 0.030657 0.481373
v -0.039711 0.025872 0.408607
v -0.000501 -0.060146 0.414263
v -0.039711 -0.060146 0.414263
v -0.078410 -0.052750 0.526741
v -0.070672 -0.059023 0.431340
v -0.000501 -0.066181 0.322488
v -0.039711 -0.066181 0.322488
v -0.000339 -0.070595 0.255362
v -0.070672 0.018696 0.299478
v -0.039711 0.019838 0.316832
v -0.070672 -0.067322 0.305133
v -0.216926 -0.068155 0.292383
v -0.212484 -0.066905 0.311275
v -0.207877 -0.073024 0.218421
v -0.070672 0.026995 0.425682
v -0.224920 0.019528 0.312121
v -0.189619 0.029050 0.456920
v -0.270716 0.114978 0.419227
v -0.151537 0.117769 0.461698
v -0.272570 0.026823 0.423065
v -0.234738 0.020056 0.320149
v -0.225216 -0.051302 0.317245
v -0.249155 0.019988 0.319126
v -0.235336 -0.050764 0.324993
v -0.246613 -0.065280 0.336123
v -0.223302 -0.065646 0.330440
v -0.249711 -0.050862 0.323485
v -0.259642 -0.051251 0.308116
v -0.258659 0.019261 0.308064
v -0.266194 -0.066297 0.320518
v -0.267722 -0.067746 0.298489
v -0.299427 -0.066862 0.312128
v -0.272570 -0.059195 0.428721
v -0.214574 -0.054742 0.496443
v -0.320811 -0.060851 0.403550
v -0.335803 -0.058396 0.440885
v -0.299427 0.019156 0.306473
v -0.256970 0.018183 0.291671
v -0.299427 0.014541 0.236281
v -0.299427 -0.071477 0.241938
v -0.438837 -0.071477 0.241938
v -0.327964 -0.074300 0.199080
v -0.341319 -0.073129 0.216805
v -0.330793 -0.073435 0.212167
v -0.253424 -0.068840 0.281837
v -0.250785 -0.052749 0.290292
v -0.231701 -0.068940 0.280298
v -0.236999 -0.053219 0.288075
v -0.244826 0.017646 0.283500
v -0.230572 0.017778 0.285516
v -0.227446 -0.052875 0.293296
v -0.221963 0.018702 0.299566
v -0.221900 -0.052088 0.304854
v -0.207877 0.012995 0.212765
v -0.327516 0.009627 0.161558
v -0.000339 0.015424 0.249705
v 0.207200 0.012995 0.212765
v 0.207200 -0.073024 0.218421
v 0.223728 0.018183 0.291671
v 0.221166 -0.052100 0.304669
v 0.226807 -0.052884 0.293181
v 0.235872 0.017646 0.283500
v 0.239348 -0.053004 0.287338
v 0.250126 0.017778 0.285516
v 0.298599 0.019156 0.306473
v 0.298599 0.014541 0.236281
v 0.253251 -0.052875 0.293295
v 0.258735 0.018702 0.299565
v 0.258798 -0.052087 0.304852
v 0.255778 0.019528 0.312121
v 0.255483 -0.051301 0.317243
v 0.245960 0.020056 0.320149
v 0.231543 0.019988 0.319126
v 0.245365 -0.050763 0.324992
v 0.257283 -0.065654 0.330296
v 0.233174 -0.065267 0.336023
v 0.232750 -0.050849 0.324121
v 0.224378 -0.051310 0.317113
v 0.214663 -0.066305 0.320437
v 0.212667 -0.067562 0.301414
v 0.226086 -0.068754 0.282352
v 0.246110 -0.068970 0.279987
v 0.262330 -0.068296 0.290091
v 0.298599 -0.071477 0.241938
v 0.268036 -0.066906 0.311254
v 0.326856 -0.073675 0.208559
v 0.337776 -0.073145 0.216578
v 0.438009 -0.071477 0.241938
v 0.438009 0.014541 0.236281
v 0.298599 -0.066862 0.312128
v 0.507048 0.013934 0.227044
v 0.437060 0.010339 0.172380
v 0.326838 0.009627 0.161558
v 0.437060 -0.075679 0.178037
v 0.326838 -0.076391 0.167214
v 0.333290 -0.074813 0.191209
v 0.325948 -0.004730 0.199412
v 0.333014 -0.005500 0.187746
v 0.351855 -0.074382 0.197852
v 0.344029 -0.005568 0.186708
v 0.353034 -0.004773 0.198747
v 0.344749 -0.003961 0.211150
v 0.348348 -0.073362 0.213273
v 0.333658 -0.003987 0.210762
v 0.507048 -0.072085 0.232699
v 0.564725 -0.078419 0.136372
v 0.538325 0.010862 0.180334
v -0.438837 0.014541 0.236281
v -0.327516 -0.076391 0.167214
v -0.437738 -0.075679 0.178037
v -0.437738 0.010339 0.172382
v -0.565555 -0.078419 0.136372
v -0.508491 0.013918 0.226811
v -0.566097 0.007628 0.131113
v -0.592127 -0.082458 0.074990
v -0.553244 0.097282 0.150146
v -0.598661 0.090372 0.045052
v -0.612604 0.095202 0.118507
v -0.499375 0.102775 0.233726
v -0.571400 0.100435 0.198099
v -0.503583 0.106598 0.291845
v -0.531691 -0.069804 0.267390
v -0.575783 -0.074068 0.202512
v -0.507875 -0.072085 0.232697
v -0.616488 -0.079420 0.121119
v -0.645185 -0.084954 0.036965
v -0.642731 0.089653 0.034116
v -0.663254 0.083083 -0.065813
v -0.624483 0.082404 -0.076129
v -0.627591 0.076150 -0.171228
v -0.620943 -0.089926 -0.038634
v -0.628295 -0.098200 -0.164492
v -0.614559 -0.104693 -0.263209
v -0.666610 -0.099254 -0.180499
v -0.664785 -0.091903 -0.068700
v -0.618607 0.070641 -0.255018
v -0.595544 0.064603 -0.346843
v -0.667273 0.076048 -0.172785
v -0.652537 0.068222 -0.291807
v -0.615551 0.060784 -0.404917
v -0.646562 -0.107337 -0.303410
v -0.590755 -0.110332 -0.348957
v -0.614046 -0.113519 -0.397475
v -0.579305 -0.118028 -0.466003
v -0.535991 -0.117754 -0.461832
v -0.577073 0.055741 -0.481615
v -0.557837 0.058855 -0.434253
v -0.535540 0.056365 -0.472116
v -0.545146 0.052539 -0.530306
v -0.545253 -0.121527 -0.519221
v -0.473021 -0.069184 0.276814
v -0.431612 0.107693 0.308474
v -0.477229 -0.065597 0.331343
v -0.404657 -0.064752 0.344256
v -0.366499 0.111219 0.362101
v -0.406644 -0.061557 0.392805
v -0.416261 0.112029 0.374407
v -0.323988 0.116088 0.436130
v -0.246284 0.118456 0.472153
v -0.175763 0.120033 0.496149
v -0.066538 0.121357 0.516262
v -0.000413 0.033503 0.524651
v -0.053159 0.118804 0.477450
v -0.000413 -0.052516 0.530307
v -0.343515 -0.074819 0.191131
v -0.353249 -0.073895 0.205214
v -0.348095 -0.005432 0.188713
v -0.351253 -0.004267 0.206511
v -0.338631 -0.003915 0.211851
v -0.327312 -0.004573 0.201777
v -0.333508 -0.005453 0.188456
v 0.430705 -0.062795 0.374044
v 0.667273 0.078236 -0.139529
v 0.660408 0.071646 -0.239730
v 0.545863 0.052601 -0.529366
v 0.545870 -0.121444 -0.517957
v 0.564725 0.007599 0.130715
vn 0.9325 -0.0382 -0.3592
vn 0.8941 -0.0199 -0.4475
vn -0.0000 0.9978 -0.0656
vn 0.9504 -0.0114 -0.3107
vn -0.9645 0.0063 0.2641
vn -0.8932 0.0245 0.4491
vn -0.9064 0.0418 0.4202
vn -0.0000 -0.9978 0.0656
vn -0.9722 0.0221 0.2332
vn -0.9958 0.0006 0.0911
vn -0.9983 0.0130 0.0561
vn -0.9939 0.0076 -0.1097
vn -0.9992 -0.0125 -0.0381
vn -0.9729 -0.0259 -0.2296
vn -0.9668 -0.0139 -0.2551
vn 0.9772 0.0225 0.2111
vn 0.9889 -0.0015 0.1489
vn 0.9519 0.0091 0.3062
vn -0.0001 0.9978 -0.0656
vn 0.9313 0.0378 0.3623
vn 0.8900 0.0174 0.4556
vn 0.8517 0.0474 0.5219
vn -0.0000 0.9978 -0.0657
vn -0.0001 0.9978 -0.0657
vn 0.8165 0.0278 0.5767
vn 0.7498 0.0509 0.6597
vn -0.7766 -0.0554 -0.6276
vn -0.7307 -0.0374 -0.6817
vn -0.6565 -0.0547 -0.7523
vn -0.6268 -0.0421 -0.7780
vn -0.5653 -0.0628 -0.8225
vn -0.4634 -0.0581 -0.8843
vn -0.4499 -0.0679 -0.8905
vn -0.4889 -0.0482 -0.8710
vn 0.3505 0.0708 0.9339
vn 0.4056 0.0458 0.9129
vn 0.4923 0.0717 0.8674
vn 0.2332 0.0586 0.9707
vn 0.2491 0.0692 0.9660
vn 0.1154 0.0553 0.9918
vn 0.0651 0.0741 0.9951
vn -0.0409 -0.0576 -0.9975
vn -0.1712 -0.0863 -0.9814
vn -0.0497 -0.0655 -0.9966
vn -0.2270 -0.0331 -0.9733
vn -1.0000 0.0001 0.0011
vn -0.0000 0.0656 0.9978
vn 0.4838 0.0574 0.8733
vn 0.4898 -0.0572 -0.8700
vn 0.4897 -0.0572 -0.8700
vn -0.0000 -0.0656 -0.9978
vn -0.0001 -0.9978 0.0661
vn -0.0000 -0.9978 0.0657
vn -0.0001 -0.9978 0.0656
vn -1.0000 -0.0000 -0.0000
vn 0.4837 0.0574 0.8733
vn 0.3785 -0.0482 -0.9243
vn 0.3362 -0.0938 -0.9371
vn 0.2073 -0.0363 -0.9776
vn -0.6088 -0.0490 -0.7918
vn -0.6338 -0.0532 -0.7717
vn 0.0710 -0.0687 -0.9951
vn -0.4963 -0.6227 -0.6049
vn 0.0839 -0.6465 -0.7583
vn -0.2144 -0.4839 -0.8484
vn 0.1045 -0.0619 -0.9926
vn 0.5642 -0.4723 -0.6772
vn 0.7592 -0.0459 -0.6492
vn 0.6614 -0.6272 -0.4114
vn 0.8400 -0.0121 -0.5425
vn 0.9054 -0.4231 -0.0349
vn -0.0004 -0.9979 0.0655
vn 0.0004 -0.9978 0.0656
vn 0.0004 -0.9979 0.0655
vn 0.0001 -0.9979 0.0655
vn 0.4634 -0.0581 -0.8842
vn -0.9746 0.0147 0.2235
vn 0.0004 -0.9978 0.0657
vn -0.0002 -0.9978 0.0659
vn -0.0001 -0.9978 0.0657
vn 0.0002 -0.9978 0.0657
vn 0.0001 -0.9978 0.0659
vn 0.6716 -0.4279 0.6048
vn 0.1236 -0.4774 0.8700
vn 0.0620 -0.4257 0.9027
vn -0.3980 -0.5110 0.7619
vn -0.1403 0.0484 0.9889
vn 0.1609 0.0813 0.9836
vn -0.4803 0.0750 0.8739
vn -0.5588 -0.4272 0.7109
vn -0.8531 0.0197 0.5214
vn -0.9020 0.0314 0.4307
vn -0.7457 -0.5370 0.3944
vn -0.8633 -0.4478 0.2327
vn -0.9661 -0.0146 -0.2577
vn -0.7946 -0.5811 -0.1758
vn -0.9735 -0.0179 -0.2281
vn 0.3942 -0.0603 -0.9170
vn 0.1756 -0.0646 -0.9823
vn -1.0000 -0.0002 -0.0024
vn -0.1756 -0.0646 -0.9823
vn 0.8979 0.0482 0.4376
vn 0.9945 -0.0171 0.1036
vn 0.5591 0.0418 0.8281
vn -0.1403 0.0468 0.9890
vn 0.4218 0.0699 0.9040
vn -0.3931 0.0834 0.9157
vn -0.9019 0.0314 0.4307
vn -0.9662 -0.0146 -0.2575
vn -0.6090 -0.0490 -0.7917
vn 0.0710 -0.0686 -0.9951
vn -0.4992 -0.6164 -0.6090
vn -0.2108 -0.4733 -0.8553
vn 0.0575 -0.6345 -0.7707
vn 0.0692 -0.0690 -0.9952
vn 0.5669 -0.5144 -0.6434
vn 0.6427 -0.0430 -0.7649
vn 0.7591 -0.0580 -0.6484
vn 0.5700 -0.5118 -0.6428
vn 0.8087 -0.5623 -0.1730
vn 0.9683 -0.0000 -0.2499
vn -0.0000 -0.9978 0.0655
vn 0.0008 -0.9978 0.0655
vn 0.8801 -0.4708 -0.0612
vn 0.0043 -0.9979 0.0654
vn 0.7359 -0.4041 0.5433
vn 0.7611 -0.5042 0.4081
vn -0.0028 -0.9977 0.0675
vn 0.1045 -0.3790 0.9195
vn 0.3516 -0.5385 0.7658
vn 0.0003 -0.9978 0.0661
vn -0.4634 -0.4334 0.7729
vn -0.3354 -0.5075 0.7937
vn -0.0004 -0.9978 0.0656
vn 0.0001 -0.9978 0.0658
vn 1.0000 -0.0000 -0.0000
vn -0.0004 -0.9979 0.0654
vn 0.9746 0.0147 0.2235
vn 0.1329 0.0650 0.9890
vn -0.3942 -0.0603 -0.9170
vn 0.0979 -0.0653 -0.9930
vn 0.0003 -0.9978 0.0655
vn 0.9373 0.0579 0.3438
vn 0.8558 0.0292 0.5164
vn 0.0940 0.0500 0.9943
vn -0.0001 -0.9979 0.0651
vn -0.3371 0.1130 0.9347
vn -0.8009 0.0059 0.5987
vn -0.0000 -0.9978 0.0659
vn -0.9746 0.0194 -0.2229
vn -0.0000 -0.9979 0.0653
vn -0.8319 -0.0600 -0.5517
vn -0.2989 -0.0447 -0.9532
vn -0.0001 -0.9978 0.0659
vn 0.0350 -0.0817 -0.9960
vn -0.0000 -0.9979 0.0654
vn 0.5926 -0.0324 -0.8049
vn 0.8275 -0.0631 -0.5580
vn 0.0001 -0.9978 0.0656
vn -0.3109 -0.0624 -0.9484
vn -0.9184 -0.0260 -0.3947
vn -0.9203 -0.0237 -0.3904
vn -0.8793 -0.0313 -0.4753
vn -0.8832 -0.0383 -0.4674
vn -0.8313 -0.0176 -0.5555
vn -0.7927 -0.0400 -0.6082
vn -0.7543 -0.0717 -0.6526
vn -0.7811 -0.4709 -0.4101
vn -0.8658 -0.4268 0.2614
vn -0.7990 -0.5747 -0.1773
vn -0.7525 -0.5255 0.3970
vn -0.0002 -0.9979 0.0654
vn -0.0005 -0.9978 0.0655
vn -0.0979 -0.0653 -0.9930
vn 0.3067 -0.0561 -0.9502
vn 0.3105 -0.0623 -0.9485
vn 0.9406 -0.0641 -0.3334
vn 0.9180 -0.0184 -0.3962
vn 0.8571 -0.0135 -0.5150
vn 0.9182 -0.0336 -0.3946
vn 0.8410 -0.0443 -0.5392
vn -0.8885 0.0339 0.4577
vn 0.0001 0.9978 -0.0656
vn -0.8108 0.0483 0.5834
vn -0.8276 0.0350 0.5602
vn -0.8948 0.0266 0.4457
vn -0.9420 0.0260 0.3346
vn -0.9467 0.0186 0.3216
vn -0.9796 0.0170 0.2001
vn 0.9781 -0.0249 -0.2068
vn 0.9995 -0.0053 -0.0323
vn 0.9982 0.0077 -0.0588
vn 0.9905 0.0165 0.1367
vn 0.9943 0.0001 0.1066
vn 0.9700 0.0110 0.2429
vn -0.9924 0.0017 -0.1230
vn -0.9869 -0.0230 -0.1595
vn -0.9506 -0.0119 -0.3101
vn -0.9453 -0.0221 -0.3253
vn -0.8923 -0.0290 -0.4505
vn -0.8942 -0.0268 -0.4469
vn -0.8428 -0.0374 -0.5368
vn -0.8368 -0.0343 -0.5464
vn 0.9873 -0.0107 -0.1586
vn 0.9867 -0.0121 -0.1621
vn 0.8622 0.0276 0.5059
vn 0.9000 0.0436 0.4338
vn 0.9185 0.0204 0.3949
vn 0.9637 0.0232 0.2660
vn -0.9993 0.0081 0.0370
vn -0.9999 -0.0045 0.0166
vn -0.9833 0.0056 0.1820
vn 0.9694 -0.0059 -0.2455
vn 0.7853 -0.0345 -0.6181
vn 0.7993 -0.0353 -0.5999
vn -0.1350 0.0667 0.9886
vn -0.1329 0.0650 0.9890
vn 0.7416 -0.0539 -0.6687
vn 0.7030 -0.0375 -0.7102
vn 0.5782 -0.0428 -0.8148
vn 0.6365 -0.0601 -0.7689
vn -0.5624 0.0563 0.8249
vn -0.6575 0.0433 0.7522
vn -0.5568 0.0603 0.8284
vn -0.6877 0.0607 0.7234
vn -0.4213 0.0499 0.9055
vn -0.4174 0.0530 0.9072
vn -0.3227 0.0733 0.9436
vn -0.2176 0.0500 0.9748
vn -0.1815 0.0714 0.9808
vn -0.0429 0.0629 0.9971
vn -0.0394 0.0656 0.9971
vn 0.1584 -0.0813 -0.9840
vn 0.0344 -0.0656 -0.9973
vn 0.0500 -0.0562 -0.9972
vn -0.0458 0.0655 0.9968
vn 0.0262 0.0656 0.9975
vn -1.0000 0.0004 0.0007
vn 0.5130 -0.0699 -0.8555
vn -0.7620 0.0317 0.6468
vn 0.9838 -0.0315 0.1766
vn 0.8226 0.0739 0.5637
vn 0.6971 -0.0066 -0.7170
vn 0.0002 -0.9979 0.0653
vn 0.3903 -0.0808 -0.9171
vn -0.4040 -0.0497 -0.9134
vn -0.6653 -0.0784 -0.7425
vn 0.0005 -0.9978 0.0657
vn -0.0003 -0.9978 0.0655
vn 0.0177 0.0360 0.9992
vn -0.4555 0.0998 0.8846
vn -0.9065 -0.0078 0.4221
vn -0.9770 0.0174 -0.2123
vn -0.0002 -0.9979 0.0655
vn 0.5590 0.0326 0.8286
vn -0.0007 -0.9978 0.0656
vn 0.7084 -0.5810 0.4009
vn 0.8957 0.0696 0.4392
vn 0.9945 -0.0138 0.1034
vn 0.4488 -0.0483 -0.8924
vn -0.0000 -0.9979 0.0655
vn -0.7777 -0.4787 -0.4076
vn -0.3293 -0.0833 -0.9405
vn -0.3869 -0.0477 -0.9209
vn 0.5658 0.0354 0.8238
vn -0.0001 -0.9979 0.0655
vn 0.7171 0.0326 0.6963
vn 0.6418 0.0657 0.7640
vn 0.9960 0.0173 0.0874
vn 0.9977 -0.0009 -0.0683
vn 0.9991 -0.0132 -0.0412
vn 0.9798 -0.0153 -0.1996
vn 0.9802 -0.0163 -0.1973
vn -0.9876 -0.0110 -0.1566
vn -0.9879 -0.0102 -0.1548
vn 0.8585 -0.0410 -0.5112
vn 0.8473 -0.0347 -0.5300
s 0
usemtl Material.002
f 2//1 1//1 6//1
f 1//2 2//2 3//2
f 4//3 1//3 3//3
f 4//3 7//3 1//3
f 7//3 5//3 1//3
f 5//4 6//4 1//4
f 7//3 8//3 5//3
f 8//5 7//5 10//5
f 7//6 4//6 9//6
f 9//7 10//7 7//7
f 9//8 2//8 10//8
f 10//8 2//8 6//8
f 10//9 11//9 8//9
f 10//8 6//8 11//8
f 11//8 6//8 12//8
f 11//8 12//8 13//8
f 11//8 13//8 15//8
f 14//10 8//10 11//10
f 11//11 15//11 14//11
f 15//12 17//12 16//12
f 16//13 14//13 15//13
f 17//8 15//8 13//8
f 18//14 16//14 17//14
f 17//15 19//15 18//15
f 19//8 17//8 20//8
f 20//8 17//8 13//8
f 23//16 20//16 21//16
f 13//17 21//17 20//17
f 22//8 19//8 20//8
f 20//18 23//18 22//18
f 18//19 23//19 16//19
f 23//3 21//3 16//3
f 24//19 23//19 18//19
f 24//20 22//20 23//20
f 22//21 24//21 25//21
f 28//22 25//22 24//22
f 26//23 24//23 18//23
f 27//3 24//3 26//3
f 28//24 24//24 27//24
f 31//23 28//23 27//23
f 25//25 28//25 30//25
f 28//3 31//3 29//3
f 29//26 30//26 28//26
f 31//27 27//27 32//27
f 32//28 33//28 31//28
f 34//29 31//29 33//29
f 34//3 29//3 31//3
f 33//30 35//30 34//30
f 37//31 34//31 35//31
f 36//23 29//23 34//23
f 37//23 36//23 34//23
f 40//32 38//32 37//32
f 38//33 39//33 37//33
f 37//3 39//3 41//3
f 37//34 35//34 40//34
f 36//3 37//3 41//3
f 44//35 42//35 41//35
f 43//36 41//36 42//36
f 36//37 41//37 43//37
f 41//3 39//3 44//3
f 39//3 45//3 44//3
f 46//3 44//3 45//3
f 46//38 42//38 44//38
f 42//39 46//39 47//39
f 47//40 46//40 48//40
f 51//3 46//3 45//3
f 49//41 48//41 46//41
f 49//3 46//3 50//3
f 50//3 46//3 51//3
f 50//42 51//42 52//42
f 51//43 45//43 52//43
f 52//44 53//44 50//44
f 52//3 57//3 53//3
f 52//3 54//3 55//3
f 54//45 52//45 45//45
f 52//3 55//3 56//3
f 52//3 56//3 57//3
f 58//3 53//3 57//3
f 60//46 53//46 57//46
f 58//3 57//3 59//3
f 57//3 56//3 59//3
f 61//47 57//47 59//47
f 57//47 61//47 60//47
f 61//8 62//8 63//8
f 60//8 62//8 61//8
f 61//8 63//8 65//8
f 59//48 63//48 61//48
f 60//8 61//8 64//8
f 64//8 61//8 65//8
f 66//8 65//8 69//8
f 66//8 64//8 65//8
f 67//49 65//49 69//49
f 65//50 67//50 68//50
f 68//51 64//51 65//51
f 63//8 69//8 65//8
f 69//52 71//52 70//52
f 69//53 70//53 72//53
f 71//54 69//54 63//54
f 72//8 66//8 69//8
f 73//55 69//55 63//55
f 69//55 73//55 67//55
f 67//3 74//3 73//3
f 75//3 73//3 74//3
f 59//3 73//3 58//3
f 75//3 58//3 73//3
f 63//56 59//56 73//56
f 59//3 68//3 73//3
f 73//3 68//3 67//3
f 76//57 75//57 78//57
f 76//58 77//58 75//58
f 58//59 75//59 77//59
f 79//3 78//3 75//3
f 79//3 75//3 74//3
f 80//60 82//60 79//60
f 79//61 74//61 80//61
f 81//3 78//3 79//3
f 81//62 79//62 82//62
f 82//63 80//63 84//63
f 85//64 82//64 83//64
f 84//65 83//65 82//65
f 82//66 85//66 81//66
f 83//67 88//67 85//67
f 87//68 81//68 85//68
f 86//69 85//69 88//69
f 85//70 86//70 87//70
f 88//71 89//71 86//71
f 83//72 91//72 88//72
f 90//73 89//73 88//73
f 88//74 91//74 90//74
f 84//75 92//75 91//75
f 94//8 91//8 92//8
f 94//8 93//8 91//8
f 78//76 91//76 93//76
f 91//77 78//77 95//77
f 83//78 84//78 91//78
f 95//77 90//77 91//77
f 87//3 96//3 95//3
f 96//3 97//3 95//3
f 95//3 81//3 87//3
f 98//55 95//55 97//55
f 95//55 98//55 90//55
f 81//3 95//3 78//3
f 101//8 98//8 99//8
f 97//47 99//47 98//47
f 72//53 98//53 100//53
f 102//79 100//79 98//79
f 89//73 90//73 98//73
f 101//80 102//80 98//80
f 103//81 89//81 98//81
f 103//82 98//82 72//82
f 89//83 103//83 104//83
f 106//84 104//84 103//84
f 105//82 103//82 72//82
f 103//85 105//85 106//85
f 109//86 106//86 105//86
f 108//87 107//87 106//87
f 104//88 106//88 107//88
f 106//89 109//89 108//89
f 105//90 70//90 109//90
f 110//91 108//91 109//91
f 109//92 111//92 110//92
f 111//93 109//93 70//93
f 70//94 71//94 111//94
f 111//95 80//95 74//95
f 80//96 111//96 71//96
f 74//97 110//97 111//97
f 110//3 74//3 67//3
f 110//3 67//3 112//3
f 108//3 110//3 112//3
f 97//3 112//3 113//3
f 113//98 112//98 72//98
f 107//3 108//3 112//3
f 97//3 107//3 112//3
f 67//3 114//3 112//3
f 114//99 72//99 112//99
f 67//3 68//3 114//3
f 68//3 56//3 114//3
f 114//3 56//3 117//3
f 56//100 114//100 66//100
f 117//3 115//3 114//3
f 114//101 115//101 116//101
f 116//101 66//101 114//101
f 72//99 114//99 66//99
f 117//3 56//3 55//3
f 118//102 119//102 117//102
f 117//103 55//103 118//103
f 120//3 115//3 117//3
f 120//104 117//104 119//104
f 122//105 120//105 121//105
f 119//106 121//106 120//106
f 122//3 115//3 120//3
f 126//3 123//3 122//3
f 122//3 123//3 124//3
f 124//3 115//3 122//3
f 121//107 125//107 122//107
f 126//91 122//91 125//91
f 123//3 126//3 128//3
f 128//97 126//97 127//97
f 125//108 127//108 126//108
f 123//3 128//3 130//3
f 130//61 128//61 129//61
f 127//109 129//109 128//109
f 130//3 38//3 123//3
f 38//3 130//3 54//3
f 131//3 54//3 130//3
f 129//110 132//110 130//110
f 131//111 130//111 132//111
f 132//112 129//112 133//112
f 133//113 134//113 132//113
f 135//114 132//114 134//114
f 132//115 135//115 131//115
f 136//116 135//116 134//116
f 135//117 136//117 131//117
f 55//118 131//118 136//118
f 134//119 137//119 136//119
f 118//120 136//120 137//120
f 136//121 118//121 55//121
f 137//122 42//122 47//122
f 134//123 42//123 137//123
f 137//8 47//8 60//8
f 137//8 60//8 64//8
f 64//82 138//82 137//82
f 137//124 138//124 118//124
f 138//125 116//125 139//125
f 138//126 139//126 119//126
f 138//8 64//8 66//8
f 119//127 118//127 138//127
f 66//53 116//53 138//53
f 139//128 116//128 140//128
f 139//129 140//129 121//129
f 121//130 119//130 139//130
f 140//131 142//131 141//131
f 140//132 141//132 125//132
f 140//53 116//53 142//53
f 125//133 121//133 140//133
f 116//53 144//53 142//53
f 143//134 142//134 148//134
f 142//134 143//134 141//134
f 145//135 142//135 144//135
f 145//8 146//8 142//8
f 147//47 142//47 146//47
f 142//47 147//47 124//47
f 124//136 148//136 142//136
f 143//137 148//137 133//137
f 148//72 40//72 133//72
f 40//138 148//138 123//138
f 148//136 124//136 123//136
f 149//3 150//3 147//3
f 149//139 147//139 146//139
f 147//3 150//3 151//3
f 147//3 151//3 124//3
f 124//3 151//3 115//3
f 151//140 116//140 115//140
f 116//140 151//140 153//140
f 152//141 151//141 150//141
f 151//141 152//141 153//141
f 153//122 144//122 116//122
f 153//142 154//142 144//142
f 154//8 153//8 152//8
f 144//143 154//143 155//143
f 156//144 155//144 154//144
f 158//145 156//145 154//145
f 154//146 152//146 157//146
f 154//147 157//147 158//147
f 159//148 158//148 157//148
f 158//82 159//82 155//82
f 156//149 158//149 155//149
f 157//150 161//150 159//150
f 159//151 160//151 155//151
f 160//152 159//152 161//152
f 145//8 161//8 146//8
f 161//153 145//153 160//153
f 157//154 146//154 161//154
f 162//155 160//155 145//155
f 160//156 162//156 155//156
f 145//157 144//157 162//157
f 155//158 162//158 144//158
f 152//159 146//159 157//159
f 164//8 163//8 152//8
f 163//8 146//8 152//8
f 235//160 152//160 150//160
f 152//160 235//160 164//160
f 25//8 163//8 164//8
f 164//161 235//161 26//161 18//161
f 18//162 19//162 164//162
f 164//8 19//8 22//8
f 25//8 164//8 22//8
f 27//163 26//163 235//163
f 235//164 165//164 27//164
f 165//3 235//3 150//3
f 150//3 149//3 165//3
f 27//165 165//165 149//165
f 32//8 163//8 30//8
f 30//8 163//8 25//8
f 149//166 163//166 32//166
f 146//139 163//139 149//139
f 32//167 27//167 149//167
f 143//168 133//168 129//168
f 141//169 143//169 127//169
f 129//170 127//170 143//170
f 127//171 125//171 141//171
f 42//172 134//172 40//172
f 40//173 134//173 133//173
f 131//3 55//3 54//3
f 123//138 38//138 40//138
f 72//98 167//98 113//98
f 166//3 97//3 113//3
f 166//3 113//3 169//3
f 113//174 167//174 168//174
f 168//174 169//174 113//174
f 169//175 170//175 172//175
f 170//176 169//176 168//176
f 172//3 171//3 169//3
f 171//3 166//3 169//3
f 173//177 174//177 172//177
f 172//178 170//178 173//178
f 171//179 172//179 174//179
f 176//3 174//3 175//3
f 173//180 175//180 174//180
f 176//3 178//3 174//3
f 174//181 177//181 171//181
f 178//3 177//3 174//3
f 176//182 181//182 178//182
f 177//183 178//183 179//183
f 178//184 180//184 179//184
f 180//185 178//185 181//185
f 183//8 170//8 181//8
f 170//8 182//8 181//8
f 181//8 182//8 180//8
f 181//186 176//186 183//186
f 185//187 183//187 176//187
f 183//53 173//53 170//53
f 184//54 173//54 183//54
f 183//188 185//188 184//188
f 186//3 185//3 187//3
f 186//189 184//189 185//189
f 185//3 175//3 187//3
f 185//3 176//3 175//3
f 187//190 175//190 189//190
f 186//3 187//3 188//3
f 188//191 187//191 190//191
f 189//192 190//192 187//192
f 192//8 191//8 190//8
f 190//193 191//193 194//193
f 192//8 190//8 193//8
f 193//8 190//8 189//8
f 194//194 188//194 190//194
f 196//3 188//3 194//3
f 197//3 194//3 195//3
f 195//195 194//195 191//195
f 197//3 196//3 194//3
f 197//196 192//196 196//196
f 192//197 197//197 199//197
f 198//3 197//3 195//3
f 198//198 199//198 197//198
f 199//8 191//8 192//8
f 201//8 200//8 199//8
f 199//8 200//8 191//8
f 199//199 198//199 201//199
f 202//8 203//8 201//8
f 201//200 204//200 202//200
f 201//54 203//54 200//54
f 204//201 201//201 198//201
f 204//3 198//3 205//3
f 205//3 206//3 204//3
f 208//202 202//202 204//202
f 206//3 207//3 204//3
f 207//203 208//203 204//203
f 202//8 208//8 203//8
f 207//204 203//204 208//204
f 203//205 207//205 206//205
f 203//206 206//206 205//206
f 200//207 203//207 205//207
f 205//208 195//208 200//208
f 198//3 195//3 205//3
f 191//209 200//209 195//209
f 196//3 186//3 188//3
f 196//210 193//210 186//210
f 193//211 196//211 192//211
f 184//212 186//212 193//212
f 193//8 189//8 184//8
f 173//213 189//213 175//213
f 184//54 189//54 173//54
f 180//8 182//8 209//8
f 177//214 209//214 182//214
f 182//215 171//215 177//215
f 168//8 182//8 170//8
f 182//216 166//216 171//216
f 166//217 182//217 99//217
f 168//8 99//8 182//8
f 177//218 210//218 209//218
f 212//219 209//219 210//219
f 211//54 209//54 212//54
f 209//8 211//8 180//8
f 94//8 212//8 93//8
f 93//220 212//220 213//220
f 214//80 212//80 94//80
f 210//221 213//221 212//221
f 211//80 212//80 214//80
f 94//222 215//222 214//222
f 214//223 215//223 211//223
f 215//224 94//224 216//224
f 215//3 213//3 210//3
f 215//3 216//3 213//3
f 210//3 179//3 215//3
f 215//225 179//225 211//225
f 76//3 213//3 216//3
f 76//3 216//3 217//3
f 216//226 92//226 217//226
f 92//227 216//227 94//227
f 218//228 217//228 92//228
f 77//3 76//3 217//3
f 77//3 217//3 218//3
f 77//3 218//3 219//3
f 62//229 218//229 92//229
f 218//230 62//230 219//230
f 220//231 219//231 62//231
f 219//232 220//232 49//232
f 219//3 50//3 221//3
f 219//3 49//3 50//3
f 221//3 77//3 219//3
f 77//233 221//233 58//233
f 221//234 50//234 53//234
f 53//235 58//235 221//235
f 62//236 222//236 220//236
f 222//55 220//55 53//55
f 48//237 220//237 222//237
f 48//237 49//237 220//237
f 220//55 50//55 53//55
f 49//55 50//55 220//55
f 62//8 60//8 222//8
f 60//8 48//8 222//8
f 60//238 222//238 53//238
f 213//239 76//239 93//239
f 211//240 179//240 180//240
f 179//3 210//3 177//3
f 224//156 168//156 223//156
f 223//8 168//8 167//8
f 224//8 99//8 168//8
f 225//241 226//241 224//241
f 224//242 223//242 225//242
f 101//243 224//243 226//243
f 99//82 224//82 101//82
f 226//244 225//244 227//244
f 226//245 227//245 101//245
f 102//246 101//246 227//246
f 227//247 228//247 102//247
f 229//248 228//248 227//248
f 225//249 229//249 227//249
f 229//250 225//250 223//250
f 223//251 100//251 229//251
f 228//252 229//252 100//252
f 100//253 102//253 228//253
f 167//254 100//254 223//254
f 167//75 72//75 100//75
f 99//47 97//47 166//47
f 97//3 96//3 107//3
f 107//255 96//255 104//255
f 70//256 105//256 72//256
f 104//257 86//257 89//257
f 86//258 104//258 96//258
f 96//259 87//259 86//259
f 93//260 76//260 78//260
f 92//122 84//122 63//122
f 92//8 63//8 62//8
f 63//261 84//261 71//261
f 71//262 84//262 80//262
f 56//3 68//3 59//3
f 64//51 68//51 56//51
f 66//100 64//100 56//100
f 60//8 47//8 48//8
f 45//263 39//263 54//263
f 54//264 39//264 38//264
f 40//8 35//8 43//8
f 42//8 40//8 43//8
f 43//8 35//8 230//8
f 230//265 36//265 43//265
f 35//266 33//266 230//266
f 30//267 29//267 230//267
f 36//268 230//268 29//268
f 32//266 230//266 33//266
f 30//8 230//8 32//8
f 21//269 13//269 231//269
f 21//19 231//19 16//19
f 231//270 12//270 232//270
f 12//271 231//271 13//271
f 8//3 231//3 232//3
f 8//3 14//3 231//3
f 16//3 231//3 14//3
f 6//272 232//272 12//272
f 8//3 232//3 5//3
f 232//273 6//273 5//273
f 9//8 234//8 2//8
f 233//274 9//274 4//274
f 9//275 233//275 234//275
f 234//276 3//276 2//276
f 3//277 234//277 233//277
f 4//3 3//3 233//3
