# Blender 5.0.1
# www.blender.org
mtllib torso_y_link_visual_50.mtl
o i01.torso.full.054_visual.001
v 0.334990 -0.150174 -0.123292
v -0.000000 -0.078704 -0.127993
v -0.000000 -0.150174 -0.123292
v 0.127660 -0.154151 -0.183771
v 0.119815 -0.153924 -0.180323
v 0.133769 -0.154766 -0.193134
v 0.334990 -0.091003 -0.209888
v 0.334990 -0.078704 -0.127993
v 0.334990 -0.159640 -0.267253
v 0.334977 -0.049893 -0.274471
v -0.000000 0.089873 -0.283660
v 0.334951 0.089872 -0.283660
v -0.334974 -0.159640 -0.267253
v -0.000000 -0.159640 -0.267253
v -0.334956 0.089873 -0.283660
v 0.334990 0.051210 -0.219238
v 0.334990 0.100570 -0.222485
v 0.334990 0.059984 0.050426
v 0.135235 0.054907 -0.188993
v 0.142668 0.051211 -0.219234
v 0.142668 0.053642 -0.199666
v 0.144770 0.052322 -0.210458
v 0.229231 0.058260 -0.015696
v 0.248875 0.060542 0.027949
v 0.206669 0.059376 -0.024856
v 0.230447 0.059842 -0.002530
v 0.268749 0.059842 0.049571
v 0.172998 0.058450 -0.046679
v 0.204183 0.062708 -0.020458
v 0.173532 0.062321 -0.039199
v 0.131964 0.058002 -0.063084
v 0.121169 0.055747 -0.182382
v 0.136283 0.061961 -0.054535
v 0.094306 0.057662 -0.072835
v 0.108483 0.055602 -0.183565
v 0.093793 0.061669 -0.065927
v 0.050798 0.057242 -0.079469
v 0.097874 0.054782 -0.190339
v 0.048039 0.061252 -0.072874
v -0.000058 0.055984 -0.081567
v 0.000000 0.051210 -0.219238
v 0.089524 0.052322 -0.210458
v 0.091627 0.051211 -0.219234
v 0.091627 -0.090941 -0.209887
v 0.091627 0.053642 -0.199666
v -0.091627 0.051211 -0.219234
v -0.089524 0.052322 -0.210458
v -0.091627 0.053642 -0.199666
v -0.097874 0.054782 -0.190339
v -0.053256 0.057305 -0.079316
v -0.000000 -0.090936 -0.209892
v -0.091627 -0.090941 -0.209887
v -0.097395 -0.092486 -0.220782
v -0.089524 -0.089624 -0.201092
v -0.102235 -0.103877 -0.206930
v -0.100980 -0.102936 -0.200513
v -0.097307 0.098702 -0.233261
v -0.091627 0.100570 -0.222485
v -0.106575 0.097607 -0.239617
v 0.000000 0.100570 -0.222485
v 0.000000 0.103529 -0.094050
v 0.089524 0.101599 -0.213699
v 0.091627 0.100569 -0.222485
v -0.089524 0.101599 -0.213699
v -0.091627 0.102871 -0.202903
v 0.071345 0.105451 -0.090262
v -0.097874 0.103964 -0.193575
v 0.097874 0.103964 -0.193575
v 0.091627 0.102871 -0.202903
v 0.097306 0.098702 -0.233261
v 0.097395 -0.092486 -0.220781
v 0.106574 0.097607 -0.239616
v 0.115877 0.097222 -0.241764
v 0.109023 -0.093675 -0.227949
v 0.117149 -0.093745 -0.229192
v 0.112104 -0.105290 -0.216417
v 0.105810 -0.104675 -0.212374
v 0.101163 -0.155286 -0.201040
v 0.105809 -0.155809 -0.208992
v 0.102235 -0.103877 -0.206930
v 0.100980 -0.102936 -0.200513
v 0.102235 -0.101995 -0.194093
v 0.102235 -0.154603 -0.190645
v 0.089524 -0.089624 -0.201092
v 0.091627 -0.088047 -0.190335
v 0.097874 -0.086684 -0.181040
v 0.105963 -0.101181 -0.188545
v 0.105963 -0.154236 -0.185076
v 0.112301 -0.153970 -0.181029
v 0.112576 -0.100573 -0.184405
v 0.120020 -0.100529 -0.183868
v 0.109225 -0.085658 -0.174025
v 0.121639 -0.085543 -0.173250
v 0.135251 -0.086493 -0.179713
v 0.128053 -0.101054 -0.187562
v 0.132696 -0.101995 -0.194093
v 0.142668 -0.088047 -0.190335
v 0.133951 -0.102936 -0.200513
v 0.144770 -0.089624 -0.201092
v 0.132696 -0.155450 -0.203529
v 0.132696 -0.103877 -0.206930
v 0.129123 -0.104674 -0.212372
v 0.129123 -0.155809 -0.208991
v 0.142668 -0.090941 -0.209887
v 0.136680 -0.092538 -0.220963
v 0.136681 0.098657 -0.233535
v 0.127723 -0.093430 -0.227056
v 0.123774 -0.105208 -0.216008
v 0.123774 -0.156049 -0.212641
v 0.117466 -0.105395 -0.217283
v 0.114755 -0.156130 -0.213874
v 0.127719 0.097603 -0.239616
v 0.142668 0.100569 -0.222485
v 0.144770 0.101599 -0.213699
v 0.142668 0.102871 -0.202903
v 0.134270 0.104145 -0.191413
v 0.226085 0.105758 -0.025621
v 0.149481 0.105477 -0.069926
v 0.121546 0.104854 -0.185747
v 0.109225 0.104740 -0.186533
v 0.175862 0.104394 -0.048444
v 0.075926 0.104143 -0.079736
v 0.137902 0.104239 -0.064088
v 0.093834 0.100404 -0.068896
v 0.136380 0.100515 -0.057477
v 0.135823 0.095349 -0.054808
v 0.093556 0.095228 -0.066152
v 0.173671 0.100675 -0.042109
v 0.207387 0.104508 -0.029152
v 0.204375 0.100848 -0.023322
v 0.172870 0.095511 -0.039540
v 0.135823 0.066336 -0.052899
v 0.203273 0.095706 -0.020938
v 0.172870 0.066696 -0.037644
v 0.203273 0.067103 -0.019056
v 0.225865 0.095927 0.000286
v 0.225865 0.067540 0.002153
v 0.239777 0.096165 0.023314
v 0.239777 0.067992 0.025168
v 0.227093 0.063153 0.001051
v 0.242215 0.063671 0.026066
v 0.247982 0.064137 0.052120
v 0.244366 0.068450 0.049656
v 0.239858 0.071045 0.072562
v 0.244366 0.096417 0.047817
v 0.239784 0.098104 0.071096
v 0.247179 0.101612 0.047482
v 0.242793 0.103240 0.069874
v 0.233595 0.109718 0.096292
v 0.227658 0.105596 0.094888
v 0.251003 0.106867 0.067251
v 0.254864 0.105416 0.047250
v 0.262155 0.107998 0.063877
v 0.240965 0.112045 0.100986
v 0.211348 0.113319 0.118032
v 0.334990 0.117276 0.133920
v 0.187781 0.118562 0.140348
v 0.334990 0.127558 0.174005
v 0.334990 0.077907 0.176341
v 0.334990 0.137130 0.207198
v 0.334990 0.088241 0.215035
v 0.000000 0.136315 0.206558
v 0.077417 0.126211 0.171022
v 0.048374 0.125707 0.174212
v 0.147940 0.119533 0.149485
v 0.000000 0.129747 0.184759
v 0.091420 0.118848 0.160765
v 0.139069 0.115420 0.148586
v 0.135822 0.110113 0.148508
v 0.172841 0.106378 0.133490
v 0.175404 0.111750 0.133848
v 0.203273 0.103501 0.115049
v 0.182417 0.116043 0.135506
v 0.205437 0.108917 0.115665
v 0.225881 0.100159 0.094008
v 0.225853 0.073410 0.095807
v 0.203267 0.076773 0.116813
v 0.207284 0.072536 0.117680
v 0.230622 0.069063 0.095995
v 0.172876 0.079663 0.135231
v 0.135822 0.082091 0.150352
v 0.177795 0.075340 0.135550
v 0.136294 0.078061 0.152488
v 0.191254 0.072204 0.135845
v 0.218254 0.069636 0.119482
v 0.222864 0.070185 0.130234
v 0.253971 0.064283 0.082738
v 0.263206 0.064470 0.094019
v 0.334990 0.064661 0.094323
v 0.334990 0.106820 0.047345
v 0.334990 0.110455 0.091311
v 0.266639 0.106711 0.041631
v 0.250790 0.105192 0.025495
v 0.231410 0.104749 -0.006581
v 0.227351 0.101074 -0.001738
v 0.242728 0.101368 0.023715
v 0.243923 0.066683 0.074075
v 0.257822 0.061610 0.056823
v 0.139439 0.075335 0.158405
v 0.068370 0.078383 0.181970
v 0.094671 0.077530 0.169154
v 0.093855 0.079847 0.163768
v 0.047694 0.084929 0.168506
v 0.093556 0.083870 0.161587
v 0.047839 0.080909 0.170711
v 0.000000 0.085226 0.170847
v 0.048234 0.078602 0.176161
v 0.000000 0.081208 0.173059
v -0.047694 0.084929 0.168506
v -0.029775 0.078893 0.178148
v -0.047839 0.080909 0.170711
v -0.093556 0.083870 0.161587
v -0.093855 0.079847 0.163768
v -0.135822 0.082091 0.150352
v -0.108375 0.077041 0.166225
v -0.130188 0.078318 0.154110
v -0.172874 0.079663 0.135232
v -0.175703 0.075333 0.135538
v -0.183431 0.072181 0.135798
v -0.205778 0.072471 0.117300
v -0.203269 0.076773 0.116811
v -0.225853 0.073429 0.095806
v -0.225894 0.100123 0.093993
v -0.203270 0.103503 0.115051
v -0.205437 0.108916 0.115664
v -0.227631 0.105540 0.094896
v -0.172843 0.106385 0.133488
v -0.135823 0.110113 0.148508
v -0.175409 0.111762 0.133850
v -0.182362 0.116058 0.135542
v -0.211346 0.113319 0.118033
v -0.139069 0.115421 0.148586
v -0.094455 0.117978 0.159726
v -0.147940 0.119533 0.149485
v -0.192987 0.118500 0.139513
v -0.059430 0.127199 0.174669
v -0.334990 0.127558 0.174005
v 0.000000 0.120874 0.170758
v -0.047877 0.120355 0.168423
v 0.000000 0.126231 0.176572
v 0.047876 0.120355 0.168422
v 0.047694 0.114593 0.166554
v 0.093556 0.112906 0.159676
v 0.000000 0.115110 0.168881
v -0.047695 0.114593 0.166554
v -0.241095 0.111454 0.098505
v -0.334990 0.088241 0.215035
v -0.334990 0.137130 0.207198
v -0.334990 0.078151 0.177254
v -0.334990 0.117276 0.133920
v -0.262055 0.108020 0.064089
v -0.334990 0.110456 0.091311
v -0.334990 0.064812 0.095645
v -0.237210 0.064950 0.093208
v -0.211088 0.069847 0.128414
v -0.334990 0.059985 0.050426
v -0.334990 0.106820 0.047345
v -0.095786 0.077540 0.176306
v -0.252985 0.060264 0.050356
v -0.247518 0.063157 0.075716
v -0.241596 0.066626 0.073583
v -0.244474 0.068425 0.049103
v -0.227902 0.069103 0.096076
v -0.246372 0.064089 0.049405
v -0.239777 0.070918 0.072909
v -0.239784 0.098079 0.071095
v -0.244473 0.096406 0.047273
v -0.247283 0.101603 0.046978
v -0.242759 0.103207 0.069904
v -0.254952 0.105409 0.046873
v -0.250884 0.106846 0.067378
v -0.266519 0.106762 0.043484
v -0.233253 0.109748 0.096776
v -0.250789 0.105192 0.025495
v -0.230078 0.105802 -0.021566
v -0.334990 0.100570 -0.222485
v -0.155771 0.105448 -0.067766
v -0.231410 0.104749 -0.006581
v -0.134270 0.104145 -0.191413
v -0.207387 0.104508 -0.029152
v -0.204375 0.100848 -0.023322
v -0.175861 0.104394 -0.048445
v -0.227350 0.101074 -0.001738
v -0.225865 0.095927 0.000286
v -0.239777 0.096165 0.023314
v -0.242727 0.101368 0.023715
v -0.239776 0.067992 0.025168
v -0.241765 0.063669 0.025954
v -0.225865 0.067541 0.002153
v -0.226210 0.063134 0.000222
v -0.203273 0.095706 -0.020938
v -0.203273 0.067103 -0.019056
v -0.204180 0.062708 -0.020459
v -0.172869 0.095511 -0.039540
v -0.172869 0.066696 -0.037644
v -0.173532 0.062321 -0.039199
v -0.135822 0.066336 -0.052899
v -0.135823 0.095350 -0.054808
v -0.136380 0.100515 -0.057477
v -0.093840 0.100404 -0.068894
v -0.093556 0.095228 -0.066152
v -0.048126 0.100088 -0.075842
v -0.047694 0.094936 -0.073122
v -0.047694 0.065638 -0.071193
v -0.093556 0.066036 -0.064230
v -0.136284 0.061961 -0.054535
v -0.093848 0.061672 -0.065912
v -0.047975 0.061250 -0.072884
v -0.133206 0.058002 -0.062474
v -0.097109 0.057698 -0.072236
v -0.108482 0.055602 -0.183566
v -0.121169 0.055748 -0.182382
v -0.121547 0.104854 -0.185747
v -0.109224 0.104740 -0.186534
v -0.135235 0.054908 -0.188993
v -0.174830 0.058454 -0.045671
v -0.221990 0.058120 -0.022263
v -0.142668 0.102871 -0.202903
v -0.142668 0.053642 -0.199666
v -0.334990 0.051210 -0.219238
v -0.144770 0.052323 -0.210458
v -0.142668 0.051211 -0.219234
v -0.334990 -0.091003 -0.209888
v -0.144770 -0.089624 -0.201092
v -0.142668 -0.088047 -0.190335
v -0.142668 -0.090941 -0.209887
v -0.334990 -0.150174 -0.123292
v -0.334990 -0.078704 -0.127993
v -0.121638 -0.085543 -0.173250
v -0.135251 -0.086493 -0.179712
v -0.132696 -0.101995 -0.194093
v -0.128053 -0.101054 -0.187562
v -0.127661 -0.154150 -0.183771
v -0.133769 -0.154766 -0.193134
v -0.120020 -0.100529 -0.183868
v -0.119815 -0.153924 -0.180323
v -0.109225 -0.085658 -0.174026
v -0.112577 -0.100573 -0.184405
v -0.112302 -0.153970 -0.181028
v -0.097874 -0.086684 -0.181040
v -0.105963 -0.101181 -0.188545
v -0.091627 -0.088047 -0.190335
v -0.102235 -0.101995 -0.194093
v -0.105963 -0.154236 -0.185076
v -0.102235 -0.154603 -0.190645
v -0.101163 -0.155286 -0.201040
v -0.105809 -0.104675 -0.212373
v -0.105808 -0.155809 -0.208991
v -0.114751 -0.156130 -0.213873
v -0.112105 -0.105291 -0.216417
v -0.117149 -0.093744 -0.229192
v -0.117466 -0.105396 -0.217282
v -0.108871 -0.093565 -0.228008
v -0.115282 0.097208 -0.241843
v -0.127719 0.097603 -0.239616
v -0.136680 0.098657 -0.233536
v -0.127723 -0.093430 -0.227056
v -0.136680 -0.092538 -0.220963
v -0.123774 -0.105208 -0.216008
v -0.123775 -0.156049 -0.212641
v -0.129122 -0.104675 -0.212373
v -0.132696 -0.103877 -0.206930
v -0.129123 -0.155809 -0.208991
v -0.132696 -0.155450 -0.203529
v -0.133951 -0.102936 -0.200513
v -0.142668 0.100570 -0.222485
v -0.144770 0.101599 -0.213697
v -0.227153 0.059769 -0.005624
v -0.206659 0.059376 -0.024861
v -0.248664 0.060043 0.028286
v -0.072299 0.105445 -0.090324
v -0.137902 0.104239 -0.064088
v -0.082777 0.104272 -0.078702
v 0.000000 0.102345 -0.084972
v 0.000000 0.098693 -0.078143
v 0.000000 0.093555 -0.075392
v 0.048047 0.100085 -0.075854
v 0.047695 0.094936 -0.073122
v 0.047695 0.065638 -0.071193
v 0.000000 0.059853 -0.075167
v 0.093556 0.066036 -0.064230
v 0.000000 0.064250 -0.073463
v -0.173671 0.100675 -0.042109
v -0.212355 0.069420 0.118234
v -0.026139 0.078945 0.185431
v 0.000000 0.087426 0.214395
v 0.000000 0.101224 0.248966
v -0.334990 0.102129 0.249473
v -0.334990 0.121765 0.277673
v 0.334988 0.121271 0.277547
v 0.334990 0.102129 0.249473
v 0.334990 0.158514 0.253689
v 0.000013 0.157432 0.253418
v 0.000000 0.158603 0.265141
v 0.334989 0.142702 0.283659
v 0.334990 0.154952 0.275306
v 0.334990 0.131130 0.283015
v 0.334990 0.159640 0.265120
v -0.334989 0.130287 0.283029
v -0.334990 0.143221 0.283648
v -0.334990 0.158514 0.253689
v -0.334990 0.154952 0.275306
v -0.334990 0.159640 0.265120
v 0.000000 0.153915 0.275328
vn -0.0000 0.0656 0.9978
vn -0.0000 -0.9978 0.0656
vn 1.0000 -0.0045 -0.0031
vn 1.0000 -0.0000 -0.0000
vn 1.0000 0.0001 -0.0000
vn -0.0000 -0.0656 -0.9978
vn 1.0000 0.0002 -0.0005
vn 1.0000 -0.0000 -0.0002
vn 1.0000 -0.0000 -0.0006
vn -0.0040 -0.9995 0.0325
vn -0.0144 -0.9995 0.0271
vn -0.0006 -0.9931 0.1173
vn -0.0000 -0.9921 0.1256
vn -0.0002 -0.9926 0.1213
vn -0.1847 -0.9736 0.1340
vn -0.1760 -0.9757 0.1302
vn -0.1677 -0.9395 0.2986
vn -0.1007 -0.9867 0.1279
vn -0.0200 -0.9993 0.0302
vn 0.0018 -0.9997 0.0231
vn -0.2832 -0.8346 0.4724
vn 0.0011 -0.9997 0.0246
vn -0.2691 -0.8474 0.4577
vn -0.1753 -0.8692 0.4623
vn -0.0487 -0.9985 0.0233
vn 0.0042 -0.9998 0.0185
vn -0.1940 -0.8491 0.4912
vn -0.1121 -0.8789 0.4636
vn 0.0096 -0.9998 0.0198
vn 0.0067 -0.9998 0.0195
vn -0.1257 -0.8622 0.4908
vn -0.0674 -0.8652 0.4969
vn 0.0495 -0.9978 0.0432
vn 0.0266 -0.9991 0.0335
vn -0.0676 -0.8648 0.4975
vn -0.0003 -0.8545 0.5194
vn 0.0233 -0.9991 0.0347
vn 0.0004 -0.9926 0.1213
vn -0.0001 0.0656 0.9978
vn 0.0005 -0.9926 0.1211
vn 0.0001 0.0656 0.9978
vn -0.0004 -0.9926 0.1213
vn -0.0233 -0.9991 0.0346
vn -0.0005 -0.9926 0.1211
vn -0.0266 -0.9991 0.0334
vn -0.8852 0.0307 0.4642
vn -0.7087 0.6460 0.2835
vn -0.0001 0.9890 -0.1480
vn -0.7536 0.6521 0.0826
vn -0.7658 0.6407 0.0558
vn -0.8865 0.0304 0.4617
vn -0.0000 0.9853 -0.1707
vn -0.8864 0.0304 0.4619
vn 0.0008 0.9853 -0.1710
vn 0.0002 0.9851 -0.1722
vn -0.5691 0.0538 0.8205
vn -0.0257 0.9994 -0.0230
vn 0.0279 0.9993 -0.0230
vn -0.0000 0.9932 -0.1164
vn 0.0001 0.9931 -0.1170
vn -0.0001 0.9931 -0.1171
vn 0.0001 0.9932 -0.1162
vn -0.0002 0.9851 -0.1722
vn -0.0283 0.9994 -0.0216
vn -0.0001 0.9932 -0.1163
vn 0.5691 0.0538 0.8205
vn 0.8852 0.0307 0.4642
vn 0.8865 0.0304 0.4617
vn -0.0008 0.9853 -0.1710
vn 0.8864 0.0304 0.4619
vn 0.5281 0.0584 0.8471
vn 0.0005 0.9847 -0.1741
vn 0.2269 0.0622 0.9719
vn 0.4277 0.6944 0.5787
vn 0.1514 0.0659 0.9863
vn 0.1117 0.7149 0.6902
vn 0.4381 0.6892 0.5771
vn 0.8380 0.0448 0.5438
vn 0.8639 0.0332 0.5026
vn 0.5435 0.0554 0.8376
vn 0.6547 0.6799 0.3303
vn 0.7658 0.6407 0.0558
vn 0.9815 0.0015 0.1917
vn 0.7087 0.6460 0.2836
vn 0.9947 0.0045 -0.1029
vn 0.7415 0.6278 -0.2370
vn 0.9817 -0.0125 -0.1900
vn 0.7536 0.6521 0.0826
vn 0.0001 0.9890 -0.1480
vn -0.0002 0.9894 -0.1450
vn 0.0015 0.9893 -0.1461
vn 0.6170 0.6049 -0.5034
vn 0.0003 0.9890 -0.1477
vn 0.3907 0.5857 -0.7102
vn 0.8319 -0.0362 -0.5538
vn 0.5389 -0.0550 -0.8405
vn 0.5335 -0.0561 -0.8440
vn 0.0938 -0.0633 -0.9936
vn 0.0553 0.5787 -0.8137
vn 0.0722 -0.0664 -0.9952
vn 0.3881 0.5836 -0.7133
vn 0.0012 0.9892 -0.1466
vn 0.0001 0.9888 -0.1490
vn 0.0457 0.5742 -0.8174
vn -0.0006 0.9892 -0.1467
vn -0.3205 0.5673 -0.7585
vn -0.3117 0.5715 -0.7591
vn -0.0000 0.9888 -0.1494
vn -0.4203 -0.0615 -0.9053
vn -0.6172 0.5873 -0.5235
vn -0.8165 -0.0271 -0.5767
vn -0.8381 -0.0327 -0.5446
vn -0.7589 0.6065 -0.2372
vn -0.6223 0.5850 -0.5201
vn -0.9818 -0.0234 -0.1885
vn -0.7734 0.6312 0.0587
vn -0.7589 0.6065 -0.2373
vn -0.9817 0.0125 0.1901
vn -0.9947 0.0179 0.1014
vn -0.8374 0.0360 0.5455
vn -0.6949 0.6192 0.3656
vn -0.8378 0.0360 0.5449
vn -0.7782 0.6211 0.0931
vn -0.8811 0.0310 0.4718
vn -0.7072 0.6451 0.2893
vn 0.0003 0.9890 -0.1481
vn -0.5652 0.0541 0.8232
vn -0.4548 0.6856 0.5684
vn -0.4549 0.6856 0.5683
vn -0.5651 0.0545 0.8232
vn -0.1357 0.0655 0.9886
vn -0.1608 0.7034 0.6924
vn -0.1997 0.0763 0.9769
vn 0.1603 0.0577 0.9854
vn 0.4798 0.0688 0.8747
vn 0.1256 0.7108 0.6921
vn -0.5645 0.0545 0.8237
vn -0.1995 0.0643 0.9778
vn -0.5651 0.0541 0.8233
vn -0.1801 0.0634 0.9816
vn -0.0002 0.9848 -0.1736
vn 0.0004 0.9852 -0.1713
vn -0.8811 0.0311 0.4720
vn 0.0005 0.9853 -0.1708
vn -0.9728 0.0152 0.2311
vn -0.9728 0.0152 0.2312
vn -0.0000 0.9851 -0.1722
vn -0.9818 -0.0125 -0.1898
vn -0.0000 0.9931 -0.1170
vn -0.9818 -0.0125 -0.1897
vn -0.8221 -0.0373 -0.5681
vn -0.8089 -0.0447 -0.5862
vn 0.0007 0.9940 -0.1096
vn -0.4273 -0.0527 -0.9026
vn 0.0150 0.9997 -0.0180
vn 0.0029 0.9999 -0.0113
vn 0.0481 0.9987 -0.0170
vn -0.4088 -0.0593 -0.9107
vn 0.0011 1.0000 -0.0057
vn -0.0085 0.9999 -0.0107
vn 0.0641 -0.0687 -0.9956
vn -0.0512 0.9983 -0.0275
vn 0.5292 -0.0591 -0.8464
vn 0.0934 -0.0614 -0.9937
vn -0.1106 0.9765 0.1851
vn -0.0365 0.9896 0.1389
vn -0.0500 0.9925 0.1114
vn -0.0363 0.9898 0.1379
vn -0.1295 0.8517 0.5078
vn -0.1270 0.8765 0.4644
vn -0.1885 0.8736 0.4487
vn -0.2306 0.4662 0.8541
vn -0.3399 0.4604 0.8201
vn -0.2306 0.4655 0.8545
vn -0.1884 0.8740 0.4480
vn -0.3399 0.4607 0.8199
vn -0.2603 0.8692 0.4203
vn -0.2584 0.8727 0.4143
vn -0.4677 0.4508 0.7602
vn -0.3805 0.0607 0.9228
vn -0.3806 0.0607 0.9228
vn -0.4676 0.4523 0.7594
vn -0.5214 0.0560 0.8515
vn -0.3522 -0.3600 0.8639
vn -0.5213 0.0560 0.8515
vn -0.4838 -0.3571 0.7991
vn -0.3522 -0.3602 0.8639
vn -0.6842 0.0479 0.7278
vn -0.6373 -0.3508 0.6861
vn -0.4843 -0.3553 0.7995
vn -0.8556 0.0340 0.5165
vn -0.7996 -0.3469 0.4902
vn -0.6374 -0.3508 0.6861
vn -0.3742 -0.8288 0.4159
vn -0.4813 -0.8206 0.3080
vn -0.3746 -0.8286 0.4161
vn -0.7988 -0.3489 0.4901
vn -0.4490 -0.8861 0.1152
vn -0.8028 -0.5658 0.1878
vn -0.4744 -0.8255 0.3058
vn -0.8728 -0.4567 0.1721
vn -0.7439 -0.6644 -0.0712
vn -0.9814 -0.0126 -0.1917
vn -0.9829 0.0121 0.1840
vn -0.8651 0.4585 -0.2035
vn -0.9813 -0.0131 -0.1922
vn -0.8642 0.4781 0.1569
vn -0.8665 0.4561 -0.2029
vn -0.7896 0.3413 -0.5099
vn -0.4724 0.8038 -0.3616
vn -0.4709 0.8048 -0.3613
vn -0.4393 0.8857 -0.1504
vn -0.1766 0.9636 -0.2005
vn -0.4422 0.8843 -0.1495
vn -0.1294 0.9869 -0.0965
vn -0.1574 0.9680 -0.1954
vn -0.0144 0.9931 -0.1165
vn -0.2071 0.8809 -0.4256
vn -0.1212 0.9518 -0.2817
vn 0.0331 0.9681 -0.2483
vn -0.0175 0.9824 -0.1862
vn -0.0018 0.9608 -0.2771
vn -0.0022 0.9684 -0.2493
vn -0.0872 0.7288 -0.6792
vn -0.0850 0.7508 -0.6550
vn -0.1877 0.5783 -0.7939
vn -0.1365 0.7275 -0.6724
vn -0.0075 0.9575 -0.2885
vn -0.1232 0.7188 -0.6842
vn -0.2339 0.1572 -0.9595
vn -0.3466 0.2255 -0.9105
vn -0.3465 0.2261 -0.9104
vn -0.2282 0.6504 -0.7245
vn -0.4773 0.2832 -0.8319
vn -0.4766 0.2850 -0.8316
vn -0.3022 0.7302 -0.6128
vn -0.2276 0.6513 -0.7239
vn -0.6172 0.3279 -0.7152
vn -0.6215 0.3188 -0.7156
vn -0.3004 0.7321 -0.6114
vn -0.3682 0.7726 -0.5173
vn -0.7900 0.3406 -0.5099
vn -0.8558 -0.0338 -0.5163
vn -0.6841 -0.0482 -0.7278
vn -0.6843 -0.0479 -0.7276
vn -0.4629 -0.5766 -0.6733
vn -0.5697 -0.6445 -0.5100
vn -0.5691 -0.6462 -0.5085
vn -0.5214 -0.0562 -0.8515
vn -0.5213 -0.0561 -0.8515
vn -0.3805 -0.0607 -0.9228
vn -0.4629 -0.5764 -0.6734
vn -0.3599 -0.4690 -0.8066
vn -0.3598 -0.4695 -0.8063
vn -0.2047 -0.9121 -0.3551
vn -0.2175 -0.9533 -0.2093
vn -0.2176 -0.9533 -0.2094
vn -0.0507 -0.9961 0.0726
vn -0.0688 -0.9944 0.0803
vn -0.0717 -0.9946 0.0752
vn -0.2402 -0.9663 -0.0927
vn 0.0020 -0.9874 0.1580
vn -0.0920 -0.9915 0.0918
vn 0.0022 -0.9946 0.1038
vn 0.0008 -0.9944 0.1059
vn 0.0024 -0.9872 0.1594
vn -0.0026 0.9966 -0.0824
vn 0.0262 0.9871 -0.1580
vn 0.0058 0.9997 -0.0232
vn -0.0004 0.9999 -0.0139
vn 0.0032 0.9984 -0.0571
vn -0.2022 0.9734 0.1081
vn -0.1048 0.9944 0.0094
vn -0.1499 0.9848 -0.0872
vn -0.2064 0.9721 0.1113
vn -0.4554 0.8504 0.2634
vn -0.3493 0.8640 0.3627
vn -0.3490 0.8643 0.3623
vn -0.0807 0.9939 0.0752
vn -0.4606 0.8460 0.2685
vn -0.6186 0.4358 0.6538
vn -0.7828 0.4100 0.4682
vn -0.6186 0.4356 0.6539
vn -0.4406 0.8947 0.0733
vn -0.7833 0.4082 0.4690
vn -0.2786 -0.9587 0.0575
vn -0.2132 -0.9767 -0.0234
vn -0.1026 -0.9909 0.0869
vn -0.2777 -0.9494 -0.1469
vn -0.2753 -0.9595 0.0604
vn -0.3041 -0.9438 0.1292
vn -0.1128 -0.9910 0.0716
vn -0.6343 -0.7091 -0.3080
vn -0.6382 -0.7034 -0.3129
vn -0.7211 -0.6907 -0.0532
vn -0.0661 -0.9977 -0.0134
vn -0.0028 -0.9851 0.1718
vn -0.0649 -0.9956 -0.0669
vn 0.0010 -0.9914 0.1312
vn -0.1348 -0.9175 -0.3742
vn -0.1963 -0.9261 -0.3223
vn -0.1334 -0.9252 -0.3553
vn -0.1417 -0.4800 -0.8658
vn -0.1417 -0.4799 -0.8658
vn -0.2446 -0.4761 -0.8447
vn -0.0791 -0.9200 -0.3838
vn -0.0460 -0.4817 -0.8751
vn -0.0460 -0.4816 -0.8752
vn -0.0791 -0.9200 -0.3837
vn -0.0248 -0.9213 -0.3882
vn 0.0460 -0.4816 -0.8752
vn 0.0460 -0.4817 -0.8751
vn -0.0157 -0.8724 -0.4886
vn 0.0211 -0.9509 -0.3089
vn 0.1417 -0.4800 -0.8658
vn 0.1417 -0.4799 -0.8658
vn 0.0894 -0.8850 -0.4569
vn 0.2446 -0.4761 -0.8447
vn 0.0914 -0.8803 -0.4654
vn 0.1260 -0.9371 -0.3256
vn 0.3767 -0.3078 -0.8737
vn 0.2987 -0.7300 -0.6148
vn 0.2879 -0.7545 -0.5897
vn 0.3318 -0.8476 -0.4141
vn 0.5054 -0.3827 -0.7734
vn 0.5049 -0.3844 -0.7728
vn 0.6440 -0.4463 -0.6214
vn 0.6841 -0.0484 -0.7278
vn 0.6844 -0.0479 -0.7276
vn 0.5214 -0.0560 -0.8515
vn 0.4768 0.2850 -0.8315
vn 0.6183 0.3283 -0.7141
vn 0.6199 0.3184 -0.7171
vn 0.5213 -0.0562 -0.8515
vn 0.3465 0.2267 -0.9103
vn 0.3805 -0.0607 -0.9228
vn 0.4770 0.2836 -0.8319
vn 0.3465 0.2254 -0.9106
vn 0.3006 0.7323 -0.6110
vn 0.2274 0.6526 -0.7228
vn 0.3017 0.7297 -0.6136
vn 0.1724 0.5504 -0.8169
vn 0.2309 0.1554 -0.9605
vn 0.2280 0.6501 -0.7248
vn 0.0653 0.9185 -0.3900
vn 0.1651 0.6182 -0.7685
vn 0.1396 0.6974 -0.7029
vn 0.0019 0.9605 -0.2782
vn 0.0019 0.9691 -0.2468
vn 0.0079 0.9575 -0.2885
vn 0.0336 0.7349 -0.6773
vn 0.0273 0.6987 -0.7149
vn 0.0852 0.7463 -0.6601
vn 0.0276 0.9185 -0.3944
vn -0.0251 0.7351 -0.6775
vn -0.0251 0.7352 -0.6774
vn -0.0093 0.9188 -0.3946
vn -0.0430 0.3092 -0.9500
vn -0.1299 0.3094 -0.9420
vn -0.1680 0.1190 -0.9786
vn -0.0926 0.7351 -0.6716
vn -0.2491 0.0873 -0.9645
vn -0.2589 -0.0634 -0.9638
vn -0.1504 -0.0649 -0.9865
vn -0.1503 -0.0649 -0.9865
vn -0.0430 0.3093 -0.9500
vn -0.0493 -0.0656 -0.9966
vn 0.0430 0.3093 -0.9500
vn 0.0430 0.3094 -0.9500
vn 0.0493 -0.0656 -0.9966
vn 0.1593 0.3091 -0.9376
vn 0.1396 -0.0650 -0.9881
vn -0.0336 0.9681 -0.2483
vn 0.0169 0.9819 -0.1885
vn 0.0018 0.9608 -0.2771
vn -1.0000 -0.0000 -0.0000
vn 0.0197 0.9936 -0.1111
vn -0.0260 0.9871 -0.1580
vn 0.0039 -0.9950 0.0997
vn 0.0047 -0.9909 0.1343
vn -0.0050 -0.9854 0.1704
vn 0.0035 -0.9943 0.1062
vn -0.0019 -0.9869 0.1613
vn 0.0067 -0.9937 0.1119
vn 0.5028 -0.8643 -0.0098
vn 0.4499 -0.8757 -0.1753
vn 0.9040 -0.4052 -0.1361
vn 0.9043 -0.4047 -0.1361
vn 0.4455 -0.8781 -0.1746
vn 0.7991 -0.4080 -0.4416
vn 0.4998 -0.8661 -0.0079
vn 0.7998 -0.4063 -0.4418
vn 0.8556 -0.0343 -0.5165
vn 0.9813 -0.0126 -0.1923
vn 0.8558 -0.0337 -0.5161
vn 0.8662 0.4568 -0.2026
vn 0.8667 0.4556 -0.2029
vn 0.7903 0.3401 -0.5097
vn 0.7906 0.3387 -0.5102
vn 0.4724 0.8041 -0.3610
vn 0.4412 0.8850 -0.1490
vn 0.4426 0.8841 -0.1498
vn 0.1578 0.9690 -0.1903
vn 0.1298 0.9876 -0.0884
vn 0.1439 0.9848 -0.0976
vn 0.4767 0.7998 -0.3648
vn 0.1666 0.9660 -0.1979
vn 0.1388 0.9433 -0.3016
vn 0.3713 0.7742 -0.5127
vn 0.3850 0.7528 -0.5339
vn -0.0026 0.9982 -0.0604
vn -0.0000 0.9999 -0.0148
vn 0.1128 0.9935 0.0119
vn 0.2235 0.9684 0.1109
vn -0.0055 0.9997 -0.0232
vn -0.0150 0.9997 -0.0182
vn 0.1152 0.9773 0.1778
vn -0.0020 0.9999 -0.0109
vn 0.1605 0.9835 0.0834
vn 0.0825 0.9936 0.0772
vn 0.3489 0.8643 0.3623
vn 0.2571 0.8727 0.4150
vn 0.0999 0.9825 0.1575
vn 0.3494 0.8640 0.3626
vn 0.7825 0.4101 0.4685
vn 0.6186 0.4356 0.6539
vn 0.7834 0.4083 0.4686
vn 0.4542 0.8507 0.2646
vn 0.8638 0.4763 0.1643
vn 0.8634 0.4770 0.1645
vn 0.4412 0.8941 0.0774
vn 0.4605 0.8467 0.2665
vn 0.9813 0.0125 0.1922
vn 0.9812 0.0127 0.1924
vn 0.8556 0.0340 0.5165
vn 0.9050 -0.3833 0.1846
vn 0.9052 -0.3827 0.1847
vn 0.8178 -0.2852 0.4999
vn 0.8181 -0.2834 0.5004
vn 0.6374 -0.3506 0.6862
vn 0.6842 0.0479 0.7278
vn 0.4841 -0.3552 0.7997
vn 0.5213 0.0560 0.8515
vn 0.4840 -0.3571 0.7989
vn 0.3522 -0.3602 0.8638
vn 0.3806 0.0607 0.9228
vn 0.3805 0.0607 0.9228
vn 0.3400 0.4604 0.8200
vn 0.2305 0.4662 0.8541
vn 0.2307 0.4655 0.8545
vn 0.2589 0.0634 0.9638
vn 0.1354 0.4714 0.8714
vn 0.1358 0.4697 0.8723
vn 0.1503 0.0650 0.9865
vn 0.1503 0.0649 0.9865
vn 0.2588 0.0634 0.9638
vn 0.2390 -0.3620 0.9010
vn 0.2390 -0.3631 0.9006
vn 0.1367 -0.3642 0.9212
vn 0.1367 -0.3638 0.9214
vn 0.0688 -0.8603 0.5051
vn 0.1229 -0.8683 0.4806
vn 0.1230 -0.8676 0.4818
vn 0.0696 -0.8748 0.4794
vn -0.0034 -0.9998 0.0185
vn -0.0058 -0.9998 0.0194
vn -0.0097 -0.9998 0.0198
vn 0.4088 -0.0593 -0.9107
vn -0.0642 -0.0687 -0.9956
vn -0.0935 -0.0614 -0.9937
vn 0.0485 -0.9985 0.0236
vn 0.4273 -0.0527 -0.9026
vn -0.0010 -0.9997 0.0245
vn 0.0224 -0.9993 0.0309
vn 0.0144 -0.9995 0.0268
vn 0.8089 -0.0447 -0.5862
vn 0.8221 -0.0373 -0.5681
vn 0.0006 -0.9931 0.1173
vn 0.0044 -0.9995 0.0325
vn 0.0002 -0.9926 0.1213
vn -1.0000 -0.0000 -0.0006
vn -1.0000 -0.0000 -0.0003
vn -1.0000 -0.0000 -0.0005
vn -0.0003 0.9890 -0.1481
vn -0.0005 0.9894 -0.1450
vn -0.0001 0.9889 -0.1485
vn -1.0000 -0.0002 -0.0001
vn 0.0006 0.9892 -0.1467
vn 0.0009 0.9894 -0.1454
vn 0.3205 0.5674 -0.7585
vn 0.6223 0.5850 -0.5201
vn 0.6172 0.5873 -0.5235
vn 0.4203 -0.0615 -0.9053
vn 0.8381 -0.0327 -0.5446
vn 0.8165 -0.0271 -0.5766
vn 0.3117 0.5715 -0.7591
vn 0.4031 -0.0591 -0.9132
vn -0.0722 -0.0664 -0.9952
vn -0.0553 0.5787 -0.8137
vn -0.0458 0.5742 -0.8174
vn -0.5334 -0.0561 -0.8440
vn -0.0937 -0.0633 -0.9936
vn -0.3907 0.5857 -0.7102
vn -0.3880 0.5836 -0.7133
vn -0.5390 -0.0550 -0.8405
vn -0.6170 0.6049 -0.5034
vn -0.8319 -0.0362 -0.5538
vn -0.8315 -0.0363 -0.5543
vn -0.9947 0.0045 -0.1029
vn -0.9817 -0.0125 -0.1900
vn -0.9815 0.0015 0.1917
vn -0.8380 0.0448 0.5438
vn -0.8639 0.0332 0.5026
vn -0.5435 0.0554 0.8376
vn -0.4799 0.0687 0.8746
vn -0.1256 0.7108 0.6921
vn -0.1142 0.7142 0.6906
vn -0.1601 0.0577 0.9854
vn -0.4377 0.6903 0.5762
vn -0.1426 0.0668 0.9875
vn -0.5358 0.0576 0.8424
vn -0.4289 0.6946 0.5776
vn -0.2499 0.0617 0.9663
vn -0.0000 0.9850 -0.1728
vn -0.0005 0.9847 -0.1742
vn 0.0002 0.9848 -0.1737
vn 0.1778 0.0633 0.9820
vn -0.0004 0.9852 -0.1713
vn 0.5650 0.0541 0.8233
vn 0.1995 0.0643 0.9778
vn 0.1608 0.7034 0.6924
vn 0.5652 0.0541 0.8232
vn 0.4548 0.6856 0.5684
vn 0.5650 0.0545 0.8233
vn 0.1356 0.0655 0.9886
vn 0.1996 0.0763 0.9769
vn 0.4547 0.6856 0.5685
vn 0.6949 0.6192 0.3655
vn 0.7072 0.6451 0.2893
vn 0.8377 0.0360 0.5449
vn 0.5645 0.0545 0.8236
vn 0.8374 0.0360 0.5455
vn 0.9947 0.0179 0.1014
vn 0.9817 0.0125 0.1901
vn 0.9818 -0.0234 -0.1885
vn 0.7589 0.6065 -0.2372
vn 0.7589 0.6065 -0.2373
vn 0.7734 0.6312 0.0587
vn 0.7782 0.6211 0.0931
vn 0.8811 0.0310 0.4718
vn 0.8811 0.0311 0.4720
vn -0.0005 0.9853 -0.1708
vn -0.0000 0.9932 -0.1163
vn 0.9728 0.0152 0.2312
vn 0.9728 0.0152 0.2310
vn -0.0000 0.9931 -0.1171
vn 0.9818 -0.0125 -0.1898
vn -0.6547 0.6799 0.3303
vn -0.7415 0.6278 -0.2369
vn -0.7415 0.6278 -0.2370
vn -0.0003 0.9890 -0.1477
vn -0.0015 0.9893 -0.1461
vn 0.0002 0.9894 -0.1450
vn -0.0012 0.9892 -0.1466
vn -0.0002 0.9888 -0.1489
vn -0.0007 0.9940 -0.1096
vn 0.0120 -0.9989 0.0444
vn 0.2662 -0.9476 0.1765
vn 0.1028 -0.9862 0.1296
vn 0.1169 -0.9681 0.2217
vn 0.0034 -0.9999 0.0107
vn 0.5437 -0.7623 0.3511
vn 0.4901 -0.8653 0.1047
vn 0.5244 -0.7835 0.3333
vn 0.2715 -0.8492 0.4529
vn 0.3747 -0.8285 0.4161
vn 0.2795 -0.8347 0.4745
vn 0.3748 -0.8283 0.4163
vn 0.1876 -0.8593 0.4758
vn 0.1912 -0.8468 0.4963
vn 0.0085 0.9999 -0.0106
vn 0.0515 0.9983 -0.0271
vn -0.5292 -0.0591 -0.8465
vn 0.0329 0.9910 0.1297
vn 0.0254 0.9995 -0.0206
vn -0.0014 1.0000 -0.0055
vn 0.0380 0.9893 0.1406
vn 0.0341 0.9908 0.1307
vn 0.0329 0.9911 0.1294
vn 0.1229 0.8765 0.4654
vn 0.1340 0.8610 0.4907
vn 0.0724 0.8972 0.4356
vn 0.0594 0.8500 0.5234
vn -0.0336 0.9910 0.1294
vn -0.0329 0.9900 0.1374
vn -0.0533 0.8806 0.4708
vn 0.0480 0.8809 0.4709
vn 0.0555 0.4713 0.8802
vn 0.0557 0.4698 0.8810
vn -0.0556 0.4713 0.8802
vn -0.0497 0.8474 0.5286
vn -0.0555 0.4710 0.8804
vn -0.1357 0.4716 0.8713
vn -0.0714 0.9007 0.4286
vn -0.1356 0.4699 0.8723
vn -0.0493 0.0656 0.9966
vn -0.1503 0.0650 0.9865
vn -0.0339 -0.3611 0.9319
vn -0.0340 -0.3600 0.9323
vn -0.1367 -0.3639 0.9214
vn -0.1503 0.0649 0.9865
vn -0.0494 0.0656 0.9966
vn 0.0338 -0.3611 0.9319
vn 0.0338 -0.3612 0.9319
vn 0.0493 0.0656 0.9966
vn 0.0494 0.0656 0.9966
vn -0.1365 -0.3652 0.9209
vn -0.2389 -0.3629 0.9007
vn -0.2589 0.0634 0.9638
vn -0.2588 0.0634 0.9638
vn 0.0002 -0.8558 0.5173
vn 0.0006 -0.8558 0.5173
vn 0.0001 -0.8525 0.5228
vn 0.1882 0.8740 0.4480
vn 0.1886 0.8736 0.4486
vn 0.0462 0.9937 0.1023
vn 0.4680 0.4508 0.7601
vn 0.3399 0.4607 0.8199
vn 0.4673 0.4524 0.7596
vn 0.2617 0.8691 0.4197
vn -0.0473 0.9987 -0.0188
vn -0.5404 -0.0552 -0.8396
vn -0.0498 -0.9978 0.0427
vn 0.3522 -0.3600 0.8639
vn 0.6185 0.4358 0.6539
vn 0.5097 -0.8526 0.1154
vn 0.4423 0.8935 0.0771
vn 0.3775 -0.8910 -0.2521
vn 0.4660 -0.8268 -0.3151
vn 0.6740 -0.3594 -0.6455
vn 0.0755 -0.9966 0.0324
vn 0.1555 -0.9876 0.0220
vn 0.3334 -0.8460 -0.4161
vn 0.1146 -0.9865 -0.1174
vn 0.0899 -0.9940 -0.0631
vn 0.0163 -0.9994 0.0291
vn -0.0019 -0.9861 0.1660
vn -0.0056 -0.9999 0.0099
vn 0.0044 -0.9608 0.2773
vn -0.0051 -0.9584 0.2852
vn 0.0243 -0.9997 -0.0051
vn 0.0041 -0.9609 0.2767
vn -0.0019 -0.9661 0.2580
vn -0.0016 -0.9288 0.3707
vn 0.0016 -0.9288 0.3707
vn 0.0019 -0.9661 0.2580
vn -0.0019 -0.9274 0.3740
vn -0.0014 -0.8207 0.5714
vn -0.0005 -0.8160 0.5781
vn 0.0014 -0.8262 0.5633
vn 0.0019 -0.9274 0.3740
vn 1.0000 -0.0000 0.0001
vn -0.0026 0.9085 -0.4179
vn -0.0031 0.9950 -0.0994
vn -0.0031 0.9952 -0.0980
vn 1.0000 0.0001 0.0001
vn 1.0000 -0.0001 -0.0000
vn 1.0000 -0.0002 -0.0001
vn -0.0028 0.9084 0.4181
vn 0.0006 -0.4850 0.8745
vn 0.0001 -0.0555 0.9985
vn -1.0000 0.0001 0.0001
vn -0.0002 -0.5321 0.8467
vn -1.0000 -0.0001 -0.0001
vn -0.0001 -0.0478 0.9989
vn 0.0031 0.9950 -0.0994
vn 0.0026 0.9085 -0.4179
vn 0.0031 0.9952 -0.0980
vn 0.0028 0.9084 0.4181
vn 0.0017 0.5795 0.8150
vn -0.0017 0.5634 0.8262
vn 0.0005 0.6051 0.7961
vn -0.0014 0.9117 -0.4109
vn 0.0014 0.9117 -0.4109
vn 0.0025 0.9966 -0.0824
vn 0.1965 0.9016 -0.3854
vn 0.1000 0.9444 -0.3132
vn 0.1501 -0.0499 -0.9874
vn 0.2695 -0.0454 -0.9619
vn 0.2589 -0.0634 -0.9638
vn -0.0043 -0.9997 -0.0228
vn -0.0189 -0.9994 0.0277
vn -0.2446 -0.4763 -0.8446
vn -0.8575 -0.0302 -0.5136
vn -0.1225 0.9295 -0.3478
vn -0.0692 0.9144 -0.3989
vn -0.3958 0.7505 -0.5293
vn -0.2391 -0.3619 0.9010
vn -0.0936 0.9847 0.1472
vn 0.0005 0.9894 -0.1450
vn -0.0009 0.9894 -0.1454
vn 0.0001 0.9889 -0.1485
vn -0.4031 -0.0591 -0.9132
vn 0.8315 -0.0363 -0.5543
vn 0.9818 -0.0125 -0.1897
vn 0.8323 -0.0364 -0.5531
vn 0.5404 -0.0552 -0.8396
vn -0.8323 -0.0364 -0.5531
vn -0.9728 0.0152 0.2310
vn 0.9728 0.0152 0.2311
s 0
usemtl Material.030
f 1//1 8//1 2//1
f 2//1 3//1 1//1
f 3//2 5//2 1//2
f 1//2 5//2 4//2
f 1//2 4//2 6//2
f 9//2 1//2 6//2
f 10//3 7//3 1//3
f 8//4 1//4 7//4
f 1//5 9//5 10//5
f 10//6 11//6 12//6
f 15//6 11//6 10//6
f 16//7 10//7 12//7
f 10//6 14//6 13//6
f 13//6 15//6 10//6
f 14//6 10//6 9//6
f 16//8 7//8 10//8
f 16//9 12//9 17//9
f 18//4 16//4 17//4
f 23//10 16//10 18//10
f 16//11 23//11 19//11
f 16//12 19//12 21//12
f 16//13 22//13 20//13
f 7//1 16//1 20//1
f 16//14 21//14 22//14
f 24//15 26//15 23//15
f 23//16 27//16 24//16
f 28//17 23//17 25//17
f 26//18 25//18 23//18
f 19//19 23//19 28//19
f 27//20 23//20 18//20
f 28//21 25//21 29//21
f 28//22 31//22 19//22
f 29//23 30//23 28//23
f 31//24 28//24 30//24
f 31//25 32//25 19//25
f 34//26 32//26 31//26
f 30//27 33//27 31//27
f 34//28 31//28 33//28
f 32//29 34//29 35//29
f 34//30 37//30 35//30
f 33//31 36//31 34//31
f 37//32 34//32 36//32
f 35//33 37//33 38//33
f 37//34 41//34 38//34
f 36//35 39//35 37//35
f 40//36 37//36 39//36
f 37//37 40//37 41//37
f 43//13 42//13 41//13
f 42//38 45//38 41//38
f 44//39 43//39 41//39
f 41//39 51//39 44//39
f 45//40 38//40 41//40
f 46//13 41//13 47//13
f 41//41 46//41 52//41
f 47//42 41//42 48//42
f 40//43 50//43 41//43
f 48//44 41//44 49//44
f 50//45 49//45 41//45
f 52//41 51//41 41//41
f 57//46 53//46 52//46
f 55//47 52//47 53//47
f 52//48 54//48 51//48
f 56//49 54//49 52//49
f 52//50 55//50 56//50
f 52//51 46//51 57//51
f 57//52 58//52 60//52
f 57//53 46//53 58//53
f 59//54 57//54 11//54
f 11//55 57//55 60//55
f 53//56 57//56 59//56
f 60//57 61//57 66//57
f 61//58 60//58 67//58
f 63//59 60//59 62//59
f 62//60 60//60 69//60
f 70//52 60//52 63//52
f 58//59 64//59 60//59
f 64//61 65//61 60//61
f 65//62 67//62 60//62
f 11//63 60//63 70//63
f 66//64 68//64 60//64
f 69//65 60//65 68//65
f 72//66 70//66 71//66
f 44//67 71//67 70//67
f 70//68 43//68 44//68
f 72//69 11//69 70//69
f 63//70 43//70 70//70
f 71//71 74//71 72//71
f 73//72 11//72 72//72
f 73//73 72//73 74//73
f 74//74 71//74 77//74
f 74//75 75//75 73//75
f 75//76 74//76 76//76
f 77//77 76//77 74//77
f 77//78 80//78 78//78
f 78//79 79//79 77//79
f 76//80 77//80 79//80
f 80//81 77//81 71//81
f 81//82 80//82 44//82
f 80//83 81//83 78//83
f 71//84 44//84 80//84
f 83//85 78//85 81//85
f 82//86 81//86 84//86
f 81//87 82//87 83//87
f 44//88 84//88 81//88
f 44//89 51//89 84//89
f 84//86 85//86 82//86
f 84//90 51//90 85//90
f 2//91 86//91 85//91
f 85//92 86//92 87//92
f 51//93 2//93 85//93
f 87//92 82//92 85//92
f 90//94 87//94 86//94
f 82//95 87//95 88//95
f 89//96 88//96 87//96
f 87//97 90//97 89//97
f 5//98 89//98 90//98
f 91//99 90//99 92//99
f 90//100 91//100 5//100
f 86//101 92//101 90//101
f 92//102 86//102 2//102
f 93//103 92//103 2//103
f 92//104 93//104 91//104
f 93//105 8//105 94//105
f 93//106 94//106 95//106
f 95//107 91//107 93//107
f 2//108 8//108 93//108
f 91//109 95//109 4//109
f 96//110 95//110 94//110
f 95//111 96//111 6//111
f 6//112 4//112 95//112
f 98//113 96//113 97//113
f 94//114 97//114 96//114
f 96//115 98//115 6//115
f 101//116 98//116 99//116
f 97//117 99//117 98//117
f 98//118 101//118 100//118
f 100//119 6//119 98//119
f 103//120 100//120 101//120
f 102//121 101//121 104//121
f 101//122 102//122 103//122
f 99//123 104//123 101//123
f 105//124 104//124 20//124
f 20//1 104//1 7//1
f 104//125 105//125 102//125
f 7//126 104//126 99//126
f 107//127 105//127 106//127
f 106//124 105//124 20//124
f 108//128 102//128 105//128
f 105//129 107//129 108//129
f 102//130 108//130 109//130
f 111//131 109//131 108//131
f 110//132 108//132 107//132
f 108//133 110//133 111//133
f 110//134 76//134 111//134
f 79//135 111//135 76//135
f 9//2 111//2 14//2
f 111//2 79//2 14//2
f 9//2 109//2 111//2
f 76//136 110//136 75//136
f 107//132 75//132 110//132
f 109//137 103//137 102//137
f 9//2 103//2 109//2
f 75//138 107//138 112//138
f 106//139 112//139 107//139
f 112//140 73//140 75//140
f 73//141 112//141 12//141
f 112//142 106//142 12//142
f 20//143 113//143 106//143
f 106//144 113//144 12//144
f 114//59 17//59 113//59
f 22//145 114//145 113//145
f 113//146 20//146 22//146
f 113//147 17//147 12//147
f 114//148 22//148 21//148
f 17//149 114//149 115//149
f 21//150 115//150 114//150
f 115//151 21//151 19//151
f 19//152 116//152 115//152
f 17//153 115//153 116//153
f 116//154 19//154 32//154
f 117//155 17//155 116//155
f 118//156 117//156 116//156
f 119//157 118//157 116//157
f 32//158 119//158 116//158
f 66//159 118//159 119//159
f 120//160 66//160 119//160
f 120//161 119//161 32//161
f 120//162 68//162 66//162
f 68//163 120//163 35//163
f 32//164 35//164 120//164
f 117//165 118//165 121//165
f 118//166 66//166 122//166
f 123//167 121//167 118//167
f 122//168 123//168 118//168
f 123//169 122//169 124//169
f 124//170 125//170 123//170
f 121//171 123//171 125//171
f 127//172 126//172 125//172
f 128//173 125//173 126//173
f 125//174 124//174 127//174
f 125//175 128//175 121//175
f 126//176 131//176 128//176
f 129//177 121//177 128//177
f 128//178 130//178 129//178
f 130//179 128//179 131//179
f 131//180 126//180 132//180
f 132//181 134//181 131//181
f 131//182 133//182 130//182
f 133//183 131//183 134//183
f 134//184 132//184 33//184
f 134//185 135//185 133//185
f 135//186 134//186 30//186
f 33//187 30//187 134//187
f 135//188 137//188 136//188
f 136//188 133//188 135//188
f 137//189 135//189 29//189
f 30//190 29//190 135//190
f 137//191 139//191 138//191
f 138//191 136//191 137//191
f 139//192 137//192 140//192
f 29//193 140//193 137//193
f 25//194 26//194 140//194
f 141//195 140//195 26//195
f 140//196 29//196 25//196
f 140//197 141//197 139//197
f 142//198 141//198 24//198
f 141//199 142//199 143//199
f 26//200 24//200 141//200
f 143//201 139//201 141//201
f 144//202 143//202 142//202
f 145//203 143//203 144//203
f 143//204 145//204 138//204
f 138//204 139//204 143//204
f 145//205 146//205 148//205
f 144//206 146//206 145//206
f 138//207 145//207 147//207
f 148//208 147//208 145//208
f 150//209 148//209 146//209
f 148//210 150//210 149//210
f 149//211 151//211 148//211
f 147//212 148//212 151//212
f 151//213 149//213 154//213
f 151//214 152//214 147//214
f 152//215 151//215 153//215
f 154//216 153//216 151//216
f 154//217 156//217 153//217
f 157//218 154//218 155//218
f 149//219 155//219 154//219
f 158//220 156//220 154//220
f 157//221 158//221 154//221
f 161//4 159//4 158//4
f 156//4 158//4 159//4
f 158//222 162//222 160//222
f 158//4 160//4 161//4
f 158//222 163//222 162//222
f 163//223 158//223 157//223
f 166//224 163//224 164//224
f 164//225 163//225 167//225
f 163//226 165//226 168//226
f 163//227 157//227 165//227
f 163//228 166//228 162//228
f 168//229 167//229 163//229
f 167//230 168//230 169//230
f 170//231 169//231 168//231
f 168//232 171//232 170//232
f 171//233 168//233 165//233
f 172//234 170//234 171//234
f 171//235 174//235 172//235
f 174//236 171//236 173//236
f 165//237 173//237 171//237
f 175//238 172//238 174//238
f 174//239 150//239 175//239
f 173//240 155//240 174//240
f 150//241 174//241 155//241
f 146//242 175//242 150//242
f 176//243 175//243 146//243
f 175//244 176//244 177//244
f 177//245 172//245 175//245
f 180//246 177//246 178//246
f 179//247 178//247 177//247
f 177//248 176//248 179//248
f 177//249 180//249 170//249
f 170//250 172//250 177//250
f 180//251 181//251 169//251
f 169//251 170//251 180//251
f 178//252 182//252 180//252
f 181//253 180//253 182//253
f 182//254 183//254 181//254
f 183//255 182//255 184//255
f 185//256 184//256 182//256
f 182//257 178//257 185//257
f 184//258 185//258 186//258
f 188//259 186//259 185//259
f 185//260 187//260 188//260
f 187//261 185//261 178//261
f 186//262 188//262 189//262
f 27//263 188//263 187//263
f 189//264 188//264 27//264
f 189//4 18//4 190//4
f 190//4 191//4 189//4
f 27//265 18//265 189//265
f 159//4 189//4 191//4
f 189//266 159//266 186//266
f 191//267 190//267 153//267
f 156//268 191//268 153//268
f 191//4 156//4 159//4
f 190//269 17//269 117//269
f 17//4 190//4 18//4
f 190//270 117//270 192//270
f 190//271 192//271 153//271
f 192//272 117//272 194//272
f 193//273 152//273 192//273
f 153//274 192//274 152//274
f 194//275 193//275 192//275
f 193//276 194//276 195//276
f 130//277 195//277 194//277
f 194//278 129//278 130//278
f 129//279 194//279 117//279
f 195//280 196//280 193//280
f 195//281 130//281 133//281
f 196//282 195//282 136//282
f 133//283 136//283 195//283
f 152//284 193//284 196//284
f 196//284 147//284 152//284
f 147//207 196//207 138//207
f 136//285 138//285 196//285
f 198//286 187//286 197//286
f 179//287 197//287 187//287
f 187//288 198//288 27//288
f 178//289 179//289 187//289
f 197//290 142//290 198//290
f 24//291 198//291 142//291
f 198//292 24//292 27//292
f 197//293 179//293 176//293
f 176//294 144//294 197//294
f 142//295 197//295 144//295
f 199//296 184//296 186//296
f 199//297 186//297 159//297
f 199//298 200//298 201//298
f 200//299 199//299 159//299
f 199//300 201//300 202//300
f 184//301 199//301 183//301
f 202//302 183//302 199//302
f 202//303 205//303 203//303
f 203//304 204//304 202//304
f 183//305 202//305 204//305
f 205//306 202//306 201//306
f 206//307 203//307 205//307
f 205//308 208//308 206//308
f 201//309 207//309 205//309
f 208//310 205//310 207//310
f 209//311 206//311 208//311
f 208//312 211//312 209//312
f 207//313 210//313 208//313
f 211//314 208//314 210//314
f 212//315 209//315 211//315
f 211//316 213//316 212//316
f 213//317 211//317 210//317
f 214//318 212//318 213//318
f 213//318 216//318 214//318
f 210//319 215//319 213//319
f 216//320 213//320 215//320
f 217//321 214//321 216//321
f 216//321 218//321 217//321
f 218//322 216//322 215//322
f 215//323 219//323 218//323
f 220//324 218//324 219//324
f 218//325 220//325 221//325
f 221//326 217//326 218//326
f 222//327 221//327 220//327
f 221//328 222//328 223//328
f 223//329 224//329 221//329
f 217//330 221//330 224//330
f 227//331 224//331 225//331
f 226//332 225//332 224//332
f 224//333 223//333 226//333
f 224//334 227//334 217//334
f 228//335 227//335 229//335
f 217//336 227//336 228//336
f 225//337 229//337 227//337
f 229//338 232//338 228//338
f 229//339 225//339 231//339
f 232//340 229//340 230//340
f 231//341 230//341 229//341
f 233//342 232//342 234//342
f 233//343 228//343 232//343
f 230//344 234//344 232//344
f 234//345 230//345 235//345
f 234//346 236//346 233//346
f 236//347 234//347 235//347
f 236//348 237//348 162//348
f 237//349 236//349 235//349
f 166//350 236//350 162//350
f 236//351 240//351 238//351
f 238//352 239//352 236//352
f 239//353 233//353 236//353
f 236//354 166//354 240//354
f 241//355 238//355 240//355
f 240//356 164//356 241//356
f 164//357 240//357 166//357
f 238//358 241//358 242//358
f 243//359 242//359 241//359
f 241//360 167//360 243//360
f 167//361 241//361 164//361
f 169//362 243//362 167//362
f 204//363 243//363 169//363
f 203//364 242//364 243//364
f 243//365 204//365 203//365
f 242//366 244//366 238//366
f 242//367 203//367 206//367
f 206//367 244//367 242//367
f 239//368 238//368 244//368
f 244//369 245//369 239//369
f 245//370 244//370 206//370
f 233//371 239//371 245//371
f 233//372 245//372 209//372
f 206//370 209//370 245//370
f 250//373 237//373 246//373
f 237//374 235//374 246//374
f 237//375 248//375 162//375
f 247//376 248//376 237//376
f 237//376 249//376 247//376
f 249//376 237//376 250//376
f 250//377 246//377 251//377
f 252//378 250//378 251//378
f 253//376 250//376 252//376
f 250//376 253//376 249//376
f 254//379 253//379 260//379
f 255//380 253//380 254//380
f 258//381 253//381 255//381
f 253//382 256//382 259//382
f 257//376 256//376 253//376
f 253//383 258//383 249//383
f 253//376 252//376 257//376
f 259//384 260//384 253//384
f 260//385 259//385 261//385
f 254//386 260//386 261//386
f 261//387 264//387 262//387
f 262//388 265//388 261//388
f 261//389 263//389 254//389
f 263//390 261//390 265//390
f 264//391 261//391 259//391
f 265//392 222//392 263//392
f 222//393 265//393 266//393
f 266//394 265//394 262//394
f 266//395 223//395 222//395
f 262//394 267//394 266//394
f 266//396 267//396 268//396
f 268//397 269//397 266//397
f 223//398 266//398 269//398
f 269//399 226//399 223//399
f 226//400 269//400 271//400
f 269//401 268//401 270//401
f 270//402 271//402 269//402
f 273//403 271//403 251//403
f 272//404 251//404 271//404
f 271//405 270//405 272//405
f 271//406 273//406 226//406
f 251//407 246//407 273//407
f 231//408 273//408 246//408
f 273//409 231//409 225//409
f 225//410 226//410 273//410
f 257//411 251//411 272//411
f 257//412 272//412 275//412
f 270//413 274//413 272//413
f 275//414 272//414 274//414
f 276//415 257//415 275//415
f 276//416 275//416 279//416
f 277//417 275//417 280//417
f 275//418 277//418 279//418
f 274//419 278//419 275//419
f 278//420 280//420 275//420
f 283//421 281//421 280//421
f 282//422 280//422 281//422
f 280//423 282//423 277//423
f 280//424 278//424 283//424
f 285//425 284//425 283//425
f 281//426 283//426 284//426
f 283//427 286//427 285//427
f 286//428 283//428 278//428
f 286//429 268//429 267//429
f 267//430 285//430 286//430
f 268//431 286//431 274//431
f 278//432 274//432 286//432
f 285//433 267//433 262//433
f 262//434 287//434 285//434
f 284//435 285//435 287//435
f 287//436 262//436 264//436
f 264//437 288//437 287//437
f 289//438 287//438 288//438
f 287//435 289//435 284//435
f 288//439 290//439 289//439
f 292//440 289//440 290//440
f 291//441 284//441 289//441
f 289//441 292//441 291//441
f 290//440 293//440 292//440
f 295//442 292//442 293//442
f 292//443 295//443 294//443
f 294//443 291//443 292//443
f 293//444 296//444 295//444
f 297//445 295//445 296//445
f 295//446 297//446 298//446
f 298//447 294//447 295//447
f 294//448 298//448 299//448
f 300//449 299//449 298//449
f 298//450 301//450 300//450
f 301//451 298//451 297//451
f 301//452 303//452 302//452
f 302//453 300//453 301//453
f 304//454 303//454 301//454
f 301//455 305//455 304//455
f 297//456 305//456 301//456
f 305//457 297//457 306//457
f 306//458 307//458 305//458
f 304//459 305//459 307//459
f 307//460 308//460 304//460
f 308//461 307//461 310//461
f 307//462 306//462 309//462
f 309//463 310//463 307//463
f 310//464 50//464 308//464
f 312//465 310//465 309//465
f 50//466 310//466 311//466
f 312//467 311//467 310//467
f 279//468 313//468 312//468
f 312//469 313//469 314//469
f 314//470 311//470 312//470
f 312//471 309//471 315//471
f 312//472 315//472 279//472
f 309//473 316//473 315//473
f 317//474 315//474 316//474
f 317//475 320//475 315//475
f 318//476 279//476 315//476
f 315//477 319//477 318//477
f 320//478 319//478 315//478
f 256//479 320//479 317//479
f 320//13 322//13 321//13
f 320//480 321//480 319//480
f 322//1 320//1 323//1
f 276//376 320//376 256//376
f 320//481 276//481 15//481
f 13//482 323//482 320//482
f 320//483 15//483 13//483
f 323//484 324//484 326//484
f 323//485 325//485 324//485
f 328//486 325//486 323//486
f 323//1 326//1 322//1
f 13//487 327//487 323//487
f 328//376 323//376 327//376
f 329//488 330//488 328//488
f 2//108 329//108 328//108
f 330//489 325//489 328//489
f 2//1 328//1 327//1
f 332//490 330//490 329//490
f 331//491 325//491 330//491
f 330//492 332//492 331//492
f 333//493 332//493 335//493
f 332//494 333//494 334//494
f 334//495 331//495 332//495
f 329//496 335//496 332//496
f 335//497 336//497 333//497
f 336//498 335//498 338//498
f 337//499 338//499 335//499
f 335//500 329//500 337//500
f 339//501 338//501 341//501
f 338//502 339//502 336//502
f 340//503 341//503 338//503
f 338//504 337//504 340//504
f 341//505 344//505 339//505
f 341//506 340//506 342//506
f 342//506 343//506 341//506
f 344//507 341//507 343//507
f 343//508 345//508 344//508
f 345//2 3//2 344//2
f 339//2 344//2 3//2
f 56//509 346//509 345//509
f 345//510 343//510 56//510
f 345//2 346//2 3//2
f 346//511 56//511 55//511
f 346//512 55//512 347//512
f 348//2 14//2 346//2
f 3//2 346//2 14//2
f 347//513 348//513 346//513
f 349//2 14//2 348//2
f 348//514 347//514 350//514
f 350//515 349//515 348//515
f 351//516 352//516 350//516
f 350//517 353//517 351//517
f 349//518 350//518 352//518
f 353//519 350//519 347//519
f 354//520 351//520 353//520
f 59//521 353//521 53//521
f 347//522 53//522 353//522
f 353//523 59//523 354//523
f 15//524 354//524 11//524
f 354//525 59//525 11//525
f 354//526 15//526 355//526
f 351//527 354//527 355//527
f 355//528 15//528 356//528
f 357//529 355//529 356//529
f 355//530 357//530 351//530
f 352//531 351//531 357//531
f 356//532 358//532 357//532
f 359//533 357//533 358//533
f 357//531 359//531 352//531
f 360//534 359//534 361//534
f 359//535 360//535 349//535
f 349//536 352//536 359//536
f 358//537 361//537 359//537
f 326//538 362//538 361//538
f 361//539 358//539 326//539
f 363//540 361//540 362//540
f 361//541 363//541 360//541
f 13//2 360//2 363//2
f 13//2 363//2 364//2
f 362//542 364//542 363//542
f 13//2 364//2 334//2
f 365//543 334//543 364//543
f 364//544 362//544 365//544
f 334//545 365//545 331//545
f 325//546 331//546 365//546
f 365//547 324//547 325//547
f 324//548 365//548 362//548
f 362//549 326//549 324//549
f 13//2 349//2 360//2
f 322//550 326//550 358//550
f 358//550 356//550 322//550
f 356//551 366//551 322//551
f 356//552 15//552 366//552
f 367//553 366//553 276//553
f 366//147 15//147 276//147
f 321//554 322//554 366//554
f 366//555 367//555 321//555
f 276//556 318//556 367//556
f 319//557 321//557 367//557
f 367//557 318//557 319//557
f 13//2 14//2 349//2
f 53//558 347//558 55//558
f 54//559 56//559 343//559
f 343//560 342//560 54//560
f 51//561 342//561 2//561
f 2//562 342//562 340//562
f 54//563 342//563 51//563
f 337//564 2//564 340//564
f 336//2 339//2 3//2
f 329//565 2//565 337//565
f 327//2 333//2 336//2
f 3//2 327//2 336//2
f 13//2 334//2 327//2
f 327//2 334//2 333//2
f 327//1 3//1 2//1
f 276//566 279//566 318//566
f 370//567 256//567 317//567
f 370//568 317//568 368//568
f 369//569 368//569 317//569
f 316//570 369//570 317//570
f 259//571 256//571 370//571
f 370//572 368//572 290//572
f 259//573 370//573 288//573
f 290//574 288//574 370//574
f 369//575 316//575 296//575
f 368//576 369//576 293//576
f 296//577 293//577 369//577
f 293//578 290//578 368//578
f 306//579 296//579 316//579
f 316//580 309//580 306//580
f 371//581 314//581 313//581
f 67//582 314//582 371//582
f 311//583 314//583 67//583
f 61//584 371//584 373//584
f 67//585 371//585 61//585
f 277//586 371//586 313//586
f 371//587 277//587 372//587
f 372//588 373//588 371//588
f 373//589 374//589 61//589
f 373//590 372//590 299//590
f 299//591 300//591 373//591
f 300//592 302//592 373//592
f 374//593 373//593 302//593
f 66//594 61//594 374//594
f 374//595 122//595 66//595
f 122//596 374//596 375//596
f 302//597 375//597 374//597
f 303//598 376//598 375//598
f 375//599 302//599 303//599
f 377//600 375//600 376//600
f 375//601 377//601 122//601
f 376//602 378//602 377//602
f 124//603 377//603 378//603
f 377//604 124//604 122//604
f 378//605 127//605 124//605
f 379//606 378//606 376//606
f 127//607 378//607 379//607
f 379//608 382//608 380//608
f 380//609 39//609 379//609
f 381//610 379//610 39//610
f 379//611 381//611 127//611
f 376//612 382//612 379//612
f 308//613 380//613 382//613
f 382//614 304//614 308//614
f 382//615 376//615 303//615
f 303//616 304//616 382//616
f 39//617 36//617 381//617
f 132//618 381//618 36//618
f 126//619 127//619 381//619
f 381//620 132//620 126//620
f 39//621 380//621 40//621
f 50//622 40//622 380//622
f 380//623 308//623 50//623
f 372//624 282//624 383//624
f 383//625 299//625 372//625
f 282//626 372//626 277//626
f 291//627 294//627 383//627
f 299//628 383//628 294//628
f 383//629 281//629 291//629
f 281//630 383//630 282//630
f 277//631 313//631 279//631
f 67//632 49//632 311//632
f 50//633 311//633 49//633
f 296//634 306//634 297//634
f 284//635 291//635 281//635
f 288//636 264//636 259//636
f 256//376 257//376 276//376
f 274//637 270//637 268//637
f 263//638 220//638 384//638
f 384//639 254//639 263//639
f 220//640 263//640 222//640
f 384//641 219//641 255//641
f 254//642 384//642 255//642
f 219//643 384//643 220//643
f 258//644 255//644 219//644
f 219//645 215//645 258//645
f 385//646 258//646 215//646
f 249//647 258//647 385//647
f 200//648 385//648 210//648
f 385//649 200//649 386//649
f 249//650 385//650 386//650
f 215//651 210//651 385//651
f 200//652 159//652 386//652
f 249//653 386//653 247//653
f 247//654 386//654 387//654
f 161//655 387//655 386//655
f 159//656 161//656 386//656
f 247//657 387//657 388//657
f 389//658 388//658 387//658
f 387//659 390//659 389//659
f 387//660 391//660 390//660
f 161//661 391//661 387//661
f 391//662 392//662 390//662
f 160//4 392//4 391//4
f 391//4 161//4 160//4
f 160//663 393//663 392//663
f 392//664 393//664 394//664
f 394//665 398//665 392//665
f 395//666 397//666 392//666
f 392//667 396//667 395//667
f 392//4 398//4 396//4
f 392//668 397//668 390//668
f 396//669 398//669 394//669
f 390//670 397//670 399//670
f 399//671 397//671 395//671
f 399//672 401//672 389//672
f 389//673 390//673 399//673
f 399//674 400//674 401//674
f 399//675 395//675 400//675
f 401//376 400//376 402//376
f 401//376 402//376 403//376
f 394//676 393//676 401//676
f 248//677 401//677 393//677
f 388//376 401//376 248//376
f 401//376 388//376 389//376
f 401//678 403//678 394//678
f 394//679 403//679 402//679
f 402//679 404//679 394//679
f 404//680 402//680 400//680
f 394//669 404//669 396//669
f 395//681 396//681 404//681
f 400//682 395//682 404//682
f 160//683 162//683 393//683
f 248//684 393//684 162//684
f 248//376 247//376 388//376
f 257//685 252//685 251//685
f 246//686 235//686 231//686
f 230//687 231//687 235//687
f 209//688 212//688 233//688
f 228//689 233//689 212//689
f 228//336 214//336 217//336
f 212//690 214//690 228//690
f 210//691 207//691 200//691
f 207//692 201//692 200//692
f 169//363 181//363 204//363
f 204//693 181//693 183//693
f 146//694 144//694 176//694
f 155//695 173//695 157//695
f 173//696 165//696 157//696
f 155//697 149//697 150//697
f 36//698 33//698 132//698
f 121//699 129//699 117//699
f 9//2 100//2 103//2
f 9//2 6//2 100//2
f 7//700 99//700 97//700
f 94//701 8//701 97//701
f 8//702 7//702 97//702
f 4//703 5//703 91//703
f 5//2 3//2 89//2
f 89//2 3//2 88//2
f 83//2 88//2 3//2
f 88//704 83//704 82//704
f 83//2 3//2 78//2
f 79//2 78//2 14//2
f 3//2 14//2 78//2
f 12//524 11//524 73//524
f 42//705 62//705 69//705
f 69//557 45//557 42//557
f 69//706 68//706 38//706
f 38//706 45//706 69//706
f 35//707 38//707 68//707
f 49//708 67//708 65//708
f 47//150 48//150 65//150
f 65//708 48//708 49//708
f 65//150 64//150 47//150
f 64//709 58//709 46//709
f 46//145 47//145 64//145
f 43//555 63//555 62//555
f 62//710 42//710 43//710
