# Blender 5.0.1
# www.blender.org
mtllib torso_y_link_visual_9.mtl
o i01.torso.full.011_visual.001
v -0.056718 0.031389 -0.010380
v -0.037766 0.025976 -0.005010
v -0.027458 0.028583 0.016980
v -0.036447 0.021890 -0.017806
v -0.037283 0.006369 -0.072515
v -0.032051 0.017521 -0.027956
v -0.061093 0.010238 -0.093290
v -0.034815 0.027896 0.005658
v -0.099013 0.026437 -0.105578
v -0.112385 0.060250 0.000835
v -0.060532 0.052079 0.066780
v -0.018782 0.028463 0.024091
v -0.026090 0.046751 0.086807
v -0.068863 0.064290 0.112202
v -0.030701 0.054175 0.118783
v -0.109657 0.071079 0.055341
v -0.107131 0.080077 0.113699
v -0.144541 0.074439 0.016347
v -0.191904 0.083656 -0.002696
v -0.170932 0.090265 0.054882
v -0.150478 0.058963 -0.059409
v -0.172307 0.031201 -0.184719
v -0.218138 0.059243 -0.125502
v -0.125029 0.037992 -0.105018
v -0.123221 0.013826 -0.184976
v -0.100061 -0.000713 -0.191423
v -0.095930 0.000967 -0.184144
v -0.124567 0.010745 -0.192186
v -0.121261 0.003961 -0.197185
v -0.176449 0.027981 -0.193632
v -0.244379 0.044589 -0.192821
v -0.182744 0.024809 -0.198499
v -0.256634 0.035594 -0.201095
v -0.266532 0.042404 -0.199648
v -0.179704 0.018427 -0.199991
v -0.125086 -0.000196 -0.198781
v -0.117128 -0.034314 -0.196543
v -0.063467 -0.033290 -0.196625
v -0.054732 -0.068083 -0.194338
v -0.061887 -0.027932 -0.195031
v -0.022669 -0.049376 -0.195575
v -0.022070 -0.043743 -0.193983
v -0.018156 -0.082144 -0.193425
v 0.023993 -0.048915 -0.195603
v 0.019987 -0.044303 -0.193984
v 0.031770 -0.035104 -0.189379
v 0.061865 -0.027954 -0.195035
v -0.018393 -0.038356 -0.188139
v 0.016988 -0.039518 -0.189423
v 0.018842 -0.035105 -0.181648
v 0.033887 -0.030383 -0.182268
v 0.010002 -0.004250 -0.086491
v 0.038824 -0.003634 -0.106664
v -0.018958 -0.024470 -0.150510
v -0.010001 -0.004251 -0.086491
v 0.000000 0.007952 -0.045248
v -0.038823 -0.003634 -0.106664
v -0.023604 0.002307 -0.072270
v -0.011388 0.008416 -0.043752
v -0.023613 -0.029550 -0.034657
v -0.024465 0.012695 -0.036744
v -0.011011 -0.029937 -0.041218
v 0.000000 -0.030055 -0.042748
v -0.003960 -0.048583 -0.020061
v 0.010624 -0.030048 -0.041327
v 0.011390 0.008417 -0.043752
v 0.024058 -0.029385 -0.034395
v 0.020924 0.011215 -0.039104
v 0.023604 0.002307 -0.072270
v 0.037285 0.006550 -0.071913
v 0.057875 0.033876 -0.002644
v 0.029422 0.015629 -0.031808
v 0.061253 0.009730 -0.095176
v 0.059112 -0.019223 -0.182112
v 0.112867 0.028295 -0.122181
v 0.096006 0.001009 -0.184138
v 0.123056 0.013807 -0.184872
v 0.060512 -0.022855 -0.190095
v 0.099827 -0.000821 -0.191424
v 0.124629 0.010769 -0.192193
v 0.121194 0.003911 -0.197191
v 0.063718 -0.033165 -0.196632
v 0.124949 -0.000258 -0.198777
v 0.176601 0.027999 -0.193666
v 0.180776 0.024209 -0.198490
v 0.249071 0.045724 -0.192778
v 0.182571 0.019330 -0.200047
v 0.259811 0.041309 -0.199627
v 0.365295 0.054366 -0.200426
v 0.363246 0.060322 -0.194050
v 0.357422 0.048698 -0.201929
v 0.259550 0.036045 -0.201125
v 0.424963 0.018921 -0.199954
v 0.205712 -0.007519 -0.198275
v 0.190673 -0.010419 -0.198085
v 0.200095 -0.012481 -0.213350
v 0.247300 -0.016766 -0.197815
v 0.206041 -0.026588 -0.196848
v 0.173277 -0.028094 -0.161477
v 0.243697 -0.012676 -0.162496
v 0.200095 -0.032961 -0.212004
v 0.197877 -0.039286 -0.234269
v 0.164382 -0.047547 -0.233735
v 0.197885 -0.017921 -0.235676
v 0.164204 -0.026450 -0.235124
v 0.113587 -0.044088 -0.233976
v 0.116903 -0.034417 -0.196537
v 0.058489 -0.073696 -0.232045
v 0.054853 -0.068049 -0.194340
v 0.019270 -0.081794 -0.193445
v 0.022254 -0.088060 -0.231111
v 0.021126 -0.109381 -0.229711
v 0.055915 -0.096052 -0.230577
v -0.023688 -0.087557 -0.231146
v -0.058770 -0.073495 -0.232059
v -0.056134 -0.095938 -0.230585
v -0.023024 -0.108859 -0.229744
v -0.016368 -0.092168 -0.157269
v -0.051118 -0.079956 -0.158072
v -0.055333 -0.045148 -0.160358
v -0.018012 -0.058903 -0.159458
v -0.110318 -0.048903 -0.160116
v -0.106819 -0.017900 -0.162152
v -0.114182 -0.065000 -0.232601
v -0.164220 0.002494 -0.163493
v -0.164381 -0.047547 -0.233735
v -0.173278 -0.028093 -0.161476
v -0.206040 -0.026588 -0.196848
v -0.243697 -0.012676 -0.162495
v -0.200094 -0.032961 -0.212004
v -0.200094 -0.012481 -0.213350
v -0.197884 -0.017921 -0.235675
v -0.197877 -0.039286 -0.234268
v -0.164311 -0.026419 -0.235126
v -0.190809 -0.010392 -0.198087
v -0.114744 -0.043545 -0.234012
v -0.205805 -0.007501 -0.198276
v -0.247696 -0.016688 -0.197822
v -0.424815 0.018919 -0.199953
v -0.389672 -0.002455 -0.198749
v -0.343122 -0.004925 -0.198565
v -0.425242 -0.002841 -0.198409
v -0.429644 0.014252 -0.215165
v -0.465375 0.019091 -0.199950
v -0.357433 0.048698 -0.201929
v -0.452746 0.051929 -0.202112
v -0.459152 0.056835 -0.200603
v -0.364301 0.054303 -0.200425
v -0.523461 0.048712 -0.201881
v -0.523465 0.059308 -0.194043
v -0.523462 0.016170 -0.199740
v -0.523461 0.053748 -0.200268
v -0.523462 0.031964 -0.165431
v -0.523443 0.067580 -0.169425
v -0.523455 -0.000573 -0.163292
v -0.523459 0.055594 -0.069361
v -0.456493 0.036061 -0.165697
v -0.483520 0.046827 -0.118562
v -0.448952 0.053242 -0.094064
v -0.523422 0.091424 -0.071706
v -0.448927 0.102024 -0.036884
v -0.448950 0.088014 -0.096365
v -0.448944 0.070823 -0.014459
v -0.420872 0.063499 -0.052153
v -0.412380 0.077792 0.022951
v -0.381080 0.051067 -0.102396
v -0.341766 0.066741 -0.021816
v -0.320154 0.079976 0.056058
v -0.340193 0.042216 -0.127426
v -0.267014 0.069080 0.023387
v -0.376461 0.078584 0.030444
v -0.277473 0.056086 -0.042515
v -0.220068 0.040117 -0.071429
v -0.273606 0.032150 -0.137995
v -0.313676 0.029844 -0.165291
v -0.236967 0.018811 -0.164563
v -0.194344 0.018963 -0.131392
v -0.153205 0.017256 -0.097673
v -0.133462 0.034027 -0.004829
v -0.175381 0.050255 0.014145
v -0.116439 0.008382 -0.083732
v -0.076270 -0.010094 -0.084129
v -0.105741 0.032429 0.032245
v -0.092467 0.042972 0.111833
v -0.130763 0.053361 0.092102
v -0.076258 0.027016 0.066123
v -0.076243 -0.090929 0.073868
v -0.042170 0.013302 0.067033
v -0.062071 0.032354 0.112699
v -0.030822 -0.134567 0.100636
v -0.009596 0.018051 0.113480
v -0.079552 -0.134566 0.100620
v -0.292871 -0.128521 0.192580
v -0.141299 -0.134551 0.100824
v -0.214656 0.077337 0.109570
v -0.150520 0.063506 0.110406
v -0.292832 -0.134578 0.100472
v -0.130763 0.054609 0.111079
v -0.243180 0.079438 0.109447
v -0.260441 0.083713 0.109166
v -0.278323 0.083713 0.109166
v -0.292871 -0.092020 0.196074
v -0.292870 -0.088551 0.152429
v -0.292865 -0.010692 0.105565
v -0.314811 0.088080 0.108876
v -0.406794 0.088607 0.108833
v -0.390973 0.090642 0.108708
v -0.523451 -0.010672 0.105702
v -0.292848 -0.007668 0.151395
v -0.462052 0.089488 0.108776
v -0.523462 -0.004120 0.203356
v -0.523456 0.083609 0.109205
v -0.523461 -0.000900 0.207736
v 0.523462 -0.004088 0.203435
v 0.292852 -0.007670 0.151378
v -0.523461 0.035749 0.204766
v 0.523462 -0.001278 0.207484
v 0.523462 0.035753 0.204818
v 0.523462 0.037882 0.237205
v 0.523461 0.124948 0.230758
v 0.003131 0.037888 0.237291
v 0.523459 0.083741 0.109185
v 0.459935 0.089521 0.108774
v 0.459687 0.085542 0.087491
v 0.523453 -0.010671 0.105721
v 0.523439 0.123232 0.139991
v 0.523463 0.112286 0.044473
v 0.523461 0.075934 0.044963
v 0.479099 0.075129 0.018279
v 0.448949 0.077371 0.028248
v 0.523462 0.069395 0.003942
v 0.523460 0.105458 0.001506
v 0.449020 0.112935 0.025847
v 0.448931 0.106229 -0.014612
v 0.498618 0.117430 0.078007
v 0.448941 0.069932 -0.019215
v 0.426189 0.108990 0.010099
v 0.360128 0.106043 -0.004570
v 0.381877 0.098157 -0.044044
v 0.409760 0.121916 0.084908
v 0.423483 0.129186 0.151867
v 0.478537 0.126597 0.144139
v 0.331989 0.127403 0.146028
v 0.276179 0.119391 0.116427
v 0.266715 0.127838 0.223321
v 0.378431 0.134578 0.223100
v 0.325280 0.132953 0.223284
v 0.380473 0.132186 0.229090
v 0.321903 0.130248 0.229203
v 0.268535 0.125260 0.229609
v 0.293410 0.124831 0.231494
v 0.416616 0.128558 0.231257
v 0.218171 0.117681 0.230048
v 0.159569 0.102339 0.232985
v 0.047132 0.062738 0.235677
v 0.159689 0.105614 0.230888
v 0.106158 0.088494 0.231992
v 0.069736 0.074266 0.232966
v 0.102216 0.089917 0.225778
v 0.145568 0.104174 0.225158
v 0.159246 0.101463 0.149039
v 0.104674 0.080966 0.127356
v 0.190599 0.115348 0.224178
v 0.194810 0.110865 0.160704
v 0.177155 0.099647 0.100801
v 0.108022 0.070497 0.055171
v 0.176366 0.085260 0.021372
v 0.273312 0.104049 0.025736
v 0.279769 0.093220 -0.030685
v 0.228592 0.082927 -0.038686
v 0.231837 0.061015 -0.128559
v 0.284061 0.067287 -0.138603
v 0.192632 0.056220 -0.114523
v 0.146914 0.062633 -0.039350
v 0.151537 0.044855 -0.114186
v 0.174648 0.031021 -0.186570
v 0.113115 0.058378 -0.008533
v 0.061778 0.052821 0.067981
v 0.068694 0.064862 0.115825
v 0.030554 0.053934 0.117619
v 0.026312 0.043546 0.073638
v 0.018714 0.028438 0.024125
v 0.029252 0.028614 0.015130
v 0.036018 0.027556 0.002874
v 0.029304 -0.025899 0.018852
v 0.010641 -0.046663 0.008809
v 0.017332 -0.025405 0.028441
v 0.036357 -0.026852 0.005353
v 0.014697 -0.046995 0.003753
v 0.014514 -0.095299 0.007405
v 0.016536 -0.095706 0.001209
v 0.016488 -0.047378 -0.002428
v 0.015825 -0.096183 -0.006033
v 0.015823 -0.047830 -0.008604
v 0.037612 -0.027812 -0.009329
v 0.033334 -0.028761 -0.022891
v 0.036304 0.021511 -0.019065
v 0.037684 0.024925 -0.008599
v 0.012770 -0.048213 -0.014290
v 0.011703 -0.096604 -0.012445
v 0.006266 -0.048568 -0.019211
v 0.003743 -0.096905 -0.016996
v 0.076244 -0.100927 -0.078190
v -0.076243 -0.100927 -0.078187
v -0.007811 -0.096814 -0.015612
v -0.015555 -0.096247 -0.007003
v -0.011374 -0.048327 -0.015773
v -0.033246 -0.028760 -0.023306
v -0.016148 -0.047806 -0.008163
v -0.016113 -0.095489 0.004508
v -0.037621 -0.027344 -0.001466
v -0.036959 -0.028065 -0.012483
v -0.015904 -0.047194 0.000724
v -0.012918 -0.046815 0.006483
v -0.034814 -0.026636 0.009244
v -0.029060 -0.025982 0.019159
v -0.006297 -0.046515 0.011577
v -0.017494 -0.025416 0.028358
v -0.004780 0.028786 0.028837
v -0.007351 -0.025157 0.031735
v 0.003806 -0.046454 0.012410
v 0.003703 -0.025186 0.032387
v 0.007749 0.028638 0.028109
v 0.011518 0.047081 0.099597
v 0.009019 0.056151 0.159302
v -0.009018 0.056151 0.159302
v -0.011518 0.047081 0.099597
v -0.010160 0.062163 0.228449
v -0.027865 0.059136 0.159353
v -0.028440 0.064687 0.228323
v -0.064827 0.069697 0.163750
v -0.068928 0.076560 0.227188
v -0.103065 0.090265 0.225657
v -0.159124 0.108138 0.225256
v -0.161518 0.102047 0.148355
v -0.105389 0.088245 0.231983
v -0.069736 0.074262 0.232971
v -0.048528 0.063019 0.235665
v -0.031376 0.063134 0.233646
v -0.010001 0.060081 0.233925
v -0.000035 0.055710 0.236139
v 0.030937 0.063029 0.233687
v 0.010002 0.060081 0.233925
v 0.028504 0.064696 0.228349
v 0.009847 0.062114 0.228537
v 0.027864 0.059136 0.159357
v 0.064736 0.069626 0.163214
v 0.069094 0.076620 0.227155
v -0.150215 0.099629 0.233179
v -0.218100 0.117666 0.230052
v -0.250761 0.119389 0.231846
v -0.158954 0.105359 0.230991
v -0.266218 0.125033 0.229606
v -0.322259 0.126545 0.231371
v -0.321764 0.130237 0.229205
v -0.416045 0.128568 0.231258
v -0.380804 0.132199 0.229088
v -0.479936 0.130327 0.229125
v -0.366268 0.134301 0.223587
v -0.480244 0.132795 0.223330
v -0.373511 0.129636 0.159928
v -0.325208 0.126834 0.145343
v -0.413976 0.134403 0.216877
v -0.321072 0.132634 0.223241
v -0.268757 0.127936 0.223496
v -0.272581 0.121940 0.143203
v -0.218640 0.120258 0.224064
v -0.194216 0.110492 0.158795
v -0.272820 0.115491 0.093393
v -0.195999 0.102120 0.092130
v -0.279185 0.100576 0.003114
v -0.233655 0.077090 -0.066825
v -0.357961 0.105586 -0.006380
v -0.351031 0.096915 -0.044886
v -0.287248 0.070300 -0.129279
v -0.283911 0.050819 -0.193390
v -0.354548 0.062002 -0.187314
v -0.381653 0.069234 -0.170303
v -0.394938 0.064026 -0.188874
v -0.413183 0.091490 -0.083314
v -0.459240 0.066053 -0.187074
v -0.455797 0.061918 -0.195913
v -0.475045 0.080575 -0.126903
v -0.358407 0.058770 -0.195407
v -0.426188 0.108990 0.010099
v -0.405073 0.121952 0.084991
v -0.449036 0.113141 0.025773
v -0.499172 0.118103 0.083476
v -0.523462 0.112231 0.043853
v -0.523428 0.123350 0.142081
v -0.453985 0.127687 0.142604
v -0.523458 0.128740 0.223396
v -0.523461 0.124674 0.231035
v -0.523461 0.037883 0.237208
v -0.523461 0.105368 0.001512
v -0.523457 0.077513 0.056176
v -0.479964 0.075038 0.018011
v -0.459003 0.084938 0.083466
v -0.523457 0.069415 0.003891
v -0.448947 0.077367 0.028248
v 0.007602 -0.094848 0.014269
v -0.002947 -0.094754 0.015704
v -0.010269 -0.094976 0.012325
v 0.076244 -0.090929 0.073867
v 0.076285 -0.010161 -0.084123
v 0.047391 0.015157 0.066926
v 0.015257 0.007315 0.067408
v 0.076319 0.027211 0.066144
v 0.108274 0.024841 -0.004910
v 0.109215 0.047210 0.097465
v 0.095781 0.043937 0.111672
v 0.063178 0.032723 0.112617
v 0.088810 -0.134567 0.100634
v 0.036239 -0.134568 0.100624
v 0.009434 0.018071 0.113412
v -0.009867 0.006937 0.067432
v 0.144775 -0.134547 0.100899
v 0.292871 -0.128521 0.192579
v 0.292833 -0.134574 0.100529
v 0.215016 0.077325 0.109577
v 0.130764 0.054609 0.111079
v 0.150816 0.063605 0.110353
v 0.130764 0.053361 0.092102
v 0.175450 0.049643 0.011028
v 0.137745 0.034784 -0.007169
v 0.156299 0.018750 -0.095189
v 0.267963 0.060000 -0.020604
v 0.221440 0.033946 -0.098255
v 0.241833 0.019636 -0.164618
v 0.309569 0.029485 -0.165262
v 0.166346 0.003120 -0.163534
v 0.106771 -0.017922 -0.162150
v 0.110314 -0.048905 -0.160117
v 0.123175 0.010022 -0.087378
v 0.052454 -0.046495 -0.160270
v 0.050938 -0.080055 -0.158065
v 0.114194 -0.064995 -0.232601
v 0.016846 -0.059175 -0.159438
v 0.016951 -0.091941 -0.157283
v 0.050771 -0.023407 -0.083292
v -0.009967 -0.034476 -0.082558
v 0.009867 -0.034499 -0.082556
v 0.026527 -0.031518 -0.082755
v -0.027408 -0.031106 -0.082785
v -0.050349 -0.023562 -0.083281
v 0.378656 0.034962 -0.165627
v 0.339380 -0.000423 -0.163301
v 0.359263 0.046242 -0.118261
v 0.459459 0.036112 -0.165701
v 0.416836 0.063312 -0.053085
v 0.341995 0.066953 -0.020782
v 0.274637 0.071779 0.032949
v 0.320117 0.079969 0.056038
v 0.368323 0.078236 0.030401
v 0.412710 0.077774 0.022886
v 0.399290 0.087277 0.087637
v 0.391103 0.090644 0.108689
v 0.406830 0.088608 0.108837
v 0.404605 -0.010674 0.105670
v 0.292858 -0.010667 0.105767
v 0.278324 0.083713 0.109166
v 0.292871 -0.088551 0.152429
v 0.314797 0.088079 0.108877
v 0.281106 0.082501 0.092071
v 0.259608 0.083261 0.109160
v 0.244136 0.079967 0.109370
v 0.292871 -0.092020 0.196074
v 0.448945 0.053118 -0.094088
v 0.523449 0.055992 -0.069383
v 0.448942 0.088206 -0.096366
v 0.482389 0.046587 -0.119837
v 0.476249 0.080378 -0.127623
v 0.523456 0.091320 -0.071643
v 0.380813 0.069049 -0.171247
v 0.422477 0.092465 -0.079818
v 0.457342 0.066014 -0.187256
v 0.523465 0.059455 -0.193813
v 0.458542 0.061770 -0.195988
v 0.523429 0.067763 -0.168608
v 0.459226 0.056825 -0.200605
v 0.523462 0.053748 -0.200268
v 0.523462 0.048712 -0.201881
v 0.523462 0.016171 -0.199741
v 0.452816 0.051928 -0.202112
v 0.465304 0.019091 -0.199950
v 0.523462 0.031984 -0.165432
v 0.523455 -0.000558 -0.163293
v 0.464400 0.002620 -0.163502
v 0.523456 -0.017674 -0.235600
v 0.523458 0.003258 -0.236977
v 0.431874 0.007617 -0.237290
v 0.431905 -0.013290 -0.235897
v 0.429644 -0.006876 -0.213775
v 0.425235 -0.002738 -0.198540
v 0.429644 0.014252 -0.215165
v 0.402806 0.002806 -0.163513
v 0.381372 -0.002619 -0.198715
v 0.333990 -0.005857 -0.198504
v 0.345340 0.089639 -0.074993
v 0.481076 0.130194 0.229175
v 0.486171 0.132354 0.223053
v 0.523458 0.128746 0.223441
v 0.445649 0.133917 0.217015
v -0.399283 0.087279 0.087682
v -0.281105 0.082501 0.092071
v -0.254519 0.078768 0.088318
v -0.339380 -0.000423 -0.163301
v -0.378809 0.034973 -0.165627
v -0.388097 0.002386 -0.163486
v -0.460874 0.002823 -0.163515
v -0.431907 -0.013286 -0.235901
v -0.429644 -0.006876 -0.213775
v -0.523456 -0.017682 -0.235600
v -0.523442 0.003479 -0.236989
v -0.431862 0.007454 -0.237277
v -0.033866 -0.030382 -0.182241
v -0.058587 -0.019453 -0.182080
v -0.034485 -0.034081 -0.189475
v -0.059225 -0.023344 -0.189972
vn 0.3317 0.9082 -0.2552
vn 0.3318 0.9080 -0.2558
vn 0.3479 0.8946 -0.2804
vn 0.3059 0.9233 -0.2324
vn 0.3360 0.9092 -0.2458
vn 0.3626 0.8983 -0.2483
vn 0.3219 0.9088 -0.2653
vn 0.4466 0.8610 -0.2432
vn 0.4114 0.8823 -0.2287
vn 0.4146 0.8839 -0.2165
vn 0.2412 0.9297 -0.2784
vn 0.2822 0.9293 -0.2381
vn 0.2538 0.9496 -0.1839
vn 0.3934 0.8978 -0.1981
vn 0.2831 0.9379 -0.2002
vn 0.3899 0.9047 -0.1717
vn 0.2683 0.9503 -0.1581
vn 0.3714 0.9151 -0.1572
vn 0.3131 0.9284 -0.2001
vn 0.3086 0.9354 -0.1728
vn 0.2685 0.9395 -0.2130
vn 0.2657 0.9420 -0.2049
vn 0.3063 0.9277 -0.2135
vn 0.2487 0.9356 -0.2506
vn 0.2991 0.9193 -0.2558
vn 0.2361 0.9422 -0.2377
vn 0.3362 0.9127 -0.2321
vn 0.3874 0.8849 -0.2587
vn 0.3904 0.8904 -0.2339
vn 0.3203 0.9088 -0.2674
vn 0.3981 0.8182 -0.4148
vn 0.3947 0.8160 -0.4222
vn 0.4176 0.8690 -0.2653
vn 0.3006 0.8555 -0.4216
vn 0.3291 0.6588 -0.6765
vn 0.2355 0.6482 -0.7241
vn 0.2938 0.8472 -0.4426
vn 0.2111 0.8839 -0.4174
vn 0.1664 0.7137 -0.6804
vn 0.2349 0.6469 -0.7255
vn 0.0717 0.2594 -0.9631
vn 0.0794 0.3161 -0.9454
vn 0.1531 0.6822 -0.7150
vn 0.1106 0.2660 -0.9576
vn 0.1160 0.2782 -0.9535
vn -0.0002 -0.0655 -0.9979
vn -0.0003 -0.0655 -0.9979
vn 0.1553 0.2264 -0.9616
vn -0.0002 -0.0656 -0.9978
vn -0.0003 -0.0657 -0.9978
vn 0.1231 0.2494 -0.9605
vn 0.1621 0.2371 -0.9579
vn 0.0036 0.2716 -0.9624
vn 0.1273 0.2571 -0.9579
vn -0.0000 -0.0655 -0.9979
vn -0.0038 0.3283 -0.9446
vn 0.0097 0.7321 -0.6811
vn -0.1818 0.6164 -0.7661
vn -0.2890 0.6981 -0.6551
vn -0.1168 0.2372 -0.9644
vn -0.0037 0.6888 -0.7249
vn -0.2572 0.8655 -0.4299
vn 0.0106 0.8685 -0.4955
vn -0.2817 0.8359 -0.4711
vn -0.2968 0.9062 -0.3012
vn -0.0000 0.9512 -0.3084
vn -0.2432 0.9158 -0.3195
vn -0.0215 0.9378 -0.3464
vn 0.0181 0.9527 -0.3034
vn -0.0000 0.9589 -0.2837
vn 0.1298 0.9418 -0.3101
vn 0.2456 0.9140 -0.3230
vn 0.1955 0.9482 -0.2503
vn 0.2777 0.9185 -0.2816
vn 0.2755 0.9090 -0.3127
vn 0.0117 0.9767 -0.2142
vn 0.4851 0.0529 0.8729
vn 0.4623 0.0630 0.8845
vn 0.1860 0.9539 -0.2354
vn 0.1326 0.0650 0.9890
vn 0.1381 0.0666 0.9882
vn -0.0836 0.7789 0.6215
vn 0.0971 0.7625 0.6397
vn -0.1323 0.0650 0.9891
vn -0.1326 0.0650 0.9890
vn -0.0117 0.9767 -0.2142
vn -0.4532 0.0681 0.8888
vn -0.4601 0.0650 0.8855
vn -0.1730 0.9594 -0.2227
vn -0.2739 0.9097 -0.3122
vn -0.3841 0.8813 -0.2753
vn -0.2775 0.9186 -0.2815
vn -0.3599 0.8995 -0.2479
vn -0.3108 0.9121 -0.2674
vn -0.2587 0.9300 -0.2612
vn -0.3866 0.8778 -0.2828
vn -0.3777 0.8804 -0.2868
vn -0.4745 0.8386 -0.2676
vn -0.4380 0.8658 -0.2419
vn -0.4435 0.8585 -0.2574
vn -0.3984 0.8182 -0.4145
vn -0.4179 0.8679 -0.2685
vn -0.4514 0.7797 -0.4339
vn -0.4518 0.7800 -0.4329
vn -0.3293 0.5617 -0.7590
vn -0.3595 0.5983 -0.7161
vn -0.3943 0.8157 -0.4233
vn -0.3286 0.6583 -0.6773
vn -0.1617 0.2362 -0.9581
vn -0.2349 0.6466 -0.7257
vn -0.1552 0.2261 -0.9617
vn -0.1110 0.2645 -0.9580
vn -0.2381 0.6529 -0.7190
vn -0.1606 0.6957 -0.7002
vn -0.1633 0.7022 -0.6930
vn -0.0740 0.2783 -0.9577
vn -0.1111 0.2647 -0.9579
vn -0.0462 0.3155 -0.9478
vn -0.0934 0.7124 -0.6955
vn -0.1036 0.7541 -0.6486
vn -0.0435 0.2754 -0.9603
vn -0.0734 0.2763 -0.9583
vn 0.0003 -0.0656 -0.9978
vn -0.0011 -0.0545 -0.9985
vn 0.0001 -0.0658 -0.9978
vn -0.1866 0.9517 -0.2437
vn 0.9381 -0.0097 -0.3463
vn -0.0056 -0.0747 -0.9972
vn 0.3202 -0.9116 0.2578
vn 0.2134 -0.9643 0.1566
vn 0.2324 -0.9632 0.1352
vn 0.9340 -0.0234 -0.3566
vn 0.9952 -0.0067 -0.0972
vn 0.2359 -0.9407 0.2437
vn 0.2492 -0.9424 0.2230
vn 0.9953 -0.0064 -0.0970
vn -0.1462 0.9644 -0.2205
vn 0.0003 -0.0657 -0.9978
vn -0.2422 0.9415 -0.2344
vn -0.3260 0.9219 -0.2093
vn -0.3076 0.9335 -0.1843
vn 0.0004 -0.0657 -0.9978
vn 0.0003 -0.0655 -0.9979
vn 0.0002 -0.0656 -0.9978
vn 0.0002 -0.0655 -0.9979
vn -0.4704 0.8636 -0.1814
vn -0.4740 0.8630 -0.1750
vn -0.3584 0.9159 -0.1807
vn -0.3668 0.9142 -0.1723
vn 0.0002 -0.0655 -0.9978
vn -0.0093 0.9863 -0.1648
vn 0.0109 0.9896 -0.1436
vn 0.3567 0.9160 -0.1838
vn -0.0000 -0.0657 -0.9978
vn -0.0003 -0.0656 -0.9978
vn 0.3704 0.9131 -0.1706
vn -0.3592 -0.9059 0.2245
vn -0.0117 -0.9742 0.2254
vn -0.3268 -0.9140 0.2405
vn -0.4590 -0.8604 0.2214
vn -0.0001 0.0655 0.9978
vn 0.0001 0.0656 0.9978
vn -0.0000 0.0657 0.9978
vn -0.0000 0.0655 0.9979
vn -0.3247 -0.9195 0.2215
vn -0.4651 -0.8586 0.2155
vn 0.0002 0.0657 0.9978
vn -0.3109 -0.9267 0.2112
vn -0.3202 -0.9116 0.2578
vn -0.2134 -0.9643 0.1566
vn -0.0000 0.0658 0.9978
vn -0.2492 -0.9424 0.2230
vn -0.9340 -0.0234 -0.3566
vn -0.9953 -0.0064 -0.0970
vn -0.9952 -0.0067 -0.0972
vn -0.2359 -0.9407 0.2437
vn 0.2422 0.9416 -0.2342
vn 0.3070 0.9337 -0.1844
vn 0.3237 0.9233 -0.2069
vn 0.4688 0.8641 -0.1831
vn 0.1457 0.9644 -0.2206
vn 0.1866 0.9517 -0.2437
vn -0.0004 -0.0658 -0.9978
vn -0.0001 -0.0659 -0.9978
vn -0.9366 -0.0146 -0.3500
vn 0.0056 -0.0747 -0.9972
vn 0.0011 -0.0543 -0.9985
vn -0.0088 -0.0706 -0.9975
vn 0.0010 -0.0546 -0.9985
vn 0.0011 -0.0544 -0.9985
vn 0.9558 -0.0394 -0.2913
vn 0.0040 0.9556 -0.2945
vn -0.0157 0.2752 -0.9613
vn 0.0100 0.3058 -0.9521
vn 0.0111 0.2718 -0.9623
vn -1.0000 0.0002 -0.0008
vn -1.0000 -0.0003 -0.0001
vn -1.0000 -0.0000 -0.0000
vn -0.0196 0.3051 -0.9521
vn -1.0000 0.0006 0.0007
vn -1.0000 0.0005 -0.0001
vn -1.0000 -0.0002 0.0001
vn -0.0000 0.0656 0.9978
vn 0.0808 -0.9679 0.2381
vn 0.0601 -0.9651 0.2549
vn 0.0368 -0.9782 0.2042
vn 0.0164 -0.9727 0.2316
vn 0.0084 -0.9726 0.2324
vn 0.3159 0.0616 0.9468
vn 0.3163 0.0626 0.9466
vn -1.0000 0.0005 -0.0000
vn -1.0000 0.0001 0.0004
vn 0.0348 -0.9759 0.2155
vn -0.0046 -0.9823 0.1875
vn -0.0328 -0.9812 0.1904
vn -0.0051 -0.9716 0.2364
vn -0.0404 -0.9769 0.2097
vn -0.0591 -0.9813 0.1832
vn -0.0840 -0.9783 0.1896
vn -0.0729 -0.9717 0.2246
vn -0.0887 -0.9705 0.2241
vn -0.0947 -0.9737 0.2070
vn -0.0217 -0.9780 0.2073
vn -0.1596 -0.9634 0.2153
vn -0.1490 -0.9606 0.2348
vn -0.1082 -0.9653 0.2376
vn -0.1078 -0.9648 0.2398
vn -0.1671 -0.9541 0.2486
vn -0.1391 -0.9486 0.2844
vn -0.1927 -0.9484 0.2519
vn -0.2141 -0.9360 0.2793
vn -0.0000 0.0655 0.9978
vn -0.2446 -0.9366 0.2510
vn -0.2310 -0.9444 0.2341
vn -0.2316 -0.9445 0.2328
vn -0.3180 -0.9124 0.2578
vn -0.3106 -0.9217 0.2325
vn -0.2615 -0.9386 0.2251
vn -0.3481 -0.9110 0.2210
vn -0.3284 -0.9070 0.2637
vn -0.4057 -0.8868 0.2213
vn -0.4030 -0.8815 0.2460
vn -0.3132 -0.9296 0.1941
vn -0.3426 -0.9222 0.1793
vn -0.3772 -0.9079 0.1832
vn -0.4133 -0.8840 0.2184
vn -0.0003 0.0655 0.9979
vn -1.0000 -0.0001 0.0001
vn -0.3694 -0.9038 0.2161
vn -0.3279 -0.9221 0.2056
vn 0.0003 0.0721 -0.9974
vn 0.0363 0.0788 -0.9962
vn -0.2567 -0.9266 0.2748
vn 0.0517 0.0667 -0.9964
vn -0.0033 0.0628 -0.9980
vn -0.0000 -0.9978 0.0655
vn -0.0000 -0.9979 0.0655
vn 0.0023 0.0420 -0.9991
vn 0.0237 0.0494 -0.9985
vn 0.0569 0.0509 -0.9971
vn -0.0000 -0.9978 0.0656
vn 0.0355 0.0521 -0.9980
vn -0.4116 -0.9094 0.0598
vn -0.2913 -0.9546 0.0628
vn -1.0000 -0.0000 -0.0004
vn 0.0072 0.0402 -0.9992
vn 0.0252 0.0360 -0.9990
vn -0.0000 0.0398 -0.9992
vn -0.0192 0.0411 -0.9990
vn -1.0000 -0.0007 -0.0001
vn -1.0000 -0.0002 -0.0005
vn 0.0034 0.0342 -0.9994
vn 0.0123 0.0362 -0.9993
vn 0.0016 0.0347 -0.9994
vn -0.0106 0.0208 -0.9997
vn -1.0000 0.0003 0.0004
vn -0.0000 -0.9978 0.0669
vn -0.0006 0.0310 -0.9995
vn -0.0005 -0.9978 0.0658
vn -1.0000 -0.0000 -0.0001
vn -0.0001 -0.8057 0.5923
vn -0.0000 -0.9976 0.0685
vn -0.0000 -0.8215 0.5702
vn -0.0000 -0.9977 0.0681
vn 0.0003 0.0718 0.9974
vn 1.0000 -0.0000 -0.0000
vn -0.0000 0.0808 0.9967
vn 0.0098 0.0367 -0.9993
vn -0.0902 -0.9788 0.1840
vn -0.0717 -0.9891 0.1287
vn 1.0000 -0.0001 -0.0001
vn 1.0000 0.0007 -0.0003
vn 1.0000 0.0003 0.0002
vn -0.0545 -0.9912 0.1205
vn -0.0765 -0.9846 0.1570
vn -0.0268 -0.9896 0.1414
vn -0.3175 -0.0632 -0.9461
vn -0.3144 -0.0640 -0.9471
vn -0.3158 -0.0617 -0.9468
vn 1.0000 0.0006 -0.0023
vn -0.0577 0.9849 -0.1631
vn 1.0000 -0.0020 0.0002
vn 0.0478 0.9865 -0.1568
vn -0.3059 0.9284 0.2108
vn 0.0394 0.9916 -0.1229
vn -0.0002 0.9806 -0.1960
vn -0.0059 0.9852 -0.1715
vn -0.0501 0.9864 -0.1563
vn 0.0372 0.9861 -0.1622
vn -0.0126 0.9944 -0.1054
vn 0.0307 0.9930 -0.1141
vn 0.0403 0.9913 -0.1252
vn -0.0474 0.9877 -0.1489
vn -0.0613 0.9866 -0.1514
vn -0.0963 0.9916 -0.0869
vn -0.0140 0.9963 -0.0843
vn -0.0868 0.9931 -0.0789
vn -0.0307 0.9968 -0.0743
vn -0.0295 0.9154 0.4015
vn -0.0270 0.9252 0.3786
vn -0.0804 0.9231 0.3761
vn -0.0823 0.9135 0.3983
vn -0.0501 0.6009 0.7977
vn -0.0131 0.4470 0.8944
vn -0.0112 0.4282 0.9036
vn -0.0001 0.0669 0.9978
vn -0.0541 0.3834 0.9220
vn -0.0598 0.4492 0.8914
vn -0.0001 0.0670 0.9978
vn -0.1238 0.4128 0.9024
vn 0.0028 0.0599 0.9982
vn -0.0993 0.5393 0.8363
vn -0.1546 0.5369 0.8294
vn -0.3239 0.8566 0.4016
vn -0.2142 0.6011 0.7700
vn -0.2839 0.8797 0.3815
vn -0.2655 0.8585 0.4386
vn -0.2417 0.9672 -0.0779
vn -0.3183 0.9436 -0.0908
vn -0.3122 0.9454 -0.0938
vn -0.2221 0.9226 0.3155
vn -0.2290 0.9698 -0.0837
vn -0.1623 0.9835 -0.0802
vn -0.1725 0.8683 0.4651
vn -0.1492 0.9320 0.3305
vn -0.1528 0.9840 -0.0913
vn -0.1738 0.9760 -0.1315
vn -0.2177 0.9689 -0.1173
vn -0.2868 0.9431 -0.1680
vn -0.2981 0.9426 -0.1505
vn -0.2966 0.9438 -0.1456
vn -0.1798 0.9683 -0.1736
vn -0.1688 0.9727 -0.1592
vn -0.0915 0.9760 -0.1978
vn -0.1623 0.9654 -0.2039
vn -0.0798 0.9833 -0.1638
vn -0.1783 0.9649 -0.1926
vn -0.2017 0.9499 -0.2389
vn -0.1610 0.9575 -0.2393
vn -0.1559 0.9590 -0.2367
vn -0.2210 0.9480 -0.2290
vn -0.2473 0.9411 -0.2307
vn -0.2607 0.9355 -0.2383
vn -0.2593 0.9300 -0.2605
vn -0.2084 0.9383 -0.2761
vn -0.2148 0.9355 -0.2804
vn -0.2936 0.8477 -0.4418
vn -0.2996 0.8567 -0.4199
vn -0.3125 0.9097 -0.2736
vn -0.2093 0.8776 -0.4314
vn -0.3332 0.9053 -0.2634
vn -0.3314 0.9131 -0.2374
vn -0.3398 0.9094 -0.2400
vn -0.3010 0.9321 -0.2014
vn -0.4150 0.8798 -0.2320
vn -0.4150 0.8842 -0.2143
vn -0.3980 0.8948 -0.2021
vn -0.2786 0.9401 -0.1963
vn -0.3927 0.9037 -0.1707
vn -0.2772 0.9407 -0.1955
vn -0.2813 0.9290 -0.2403
vn -0.2484 0.9294 -0.2728
vn -0.3123 0.9217 -0.2300
vn -0.6478 -0.0525 -0.7600
vn -0.3281 0.9083 -0.2596
vn -0.8762 -0.0337 -0.4808
vn -0.5302 0.7046 -0.4716
vn -0.4411 0.6799 -0.5858
vn -0.6256 -0.0464 -0.7787
vn -0.8868 -0.0265 -0.4614
vn -0.6174 0.6934 -0.3715
vn -0.7807 -0.0442 -0.6233
vn -0.9508 -0.0198 -0.3091
vn -0.9606 -0.0218 -0.2770
vn -0.6528 0.7205 -0.2338
vn -0.9952 0.0063 0.0974
vn -0.9943 0.0056 0.1067
vn -0.6761 0.7366 0.0189
vn -0.6941 0.7120 -0.1059
vn -0.9538 0.0336 0.2985
vn -0.6651 0.7297 0.1587
vn -0.9963 0.0025 -0.0853
vn -0.9914 -0.0005 0.1308
vn -0.3276 0.9094 -0.2561
vn -0.3286 0.9098 -0.2535
vn -0.9900 -0.0126 -0.1408
vn -0.8829 0.0165 0.4693
vn -0.3427 0.9096 -0.2348
vn -0.7787 0.0569 0.6248
vn -0.5391 0.7442 0.3943
vn -0.5992 0.7533 0.2710
vn -0.4118 0.7690 0.4889
vn -0.8814 0.0250 0.4716
vn -0.6043 0.0436 0.7956
vn -0.8417 0.0391 0.5385
vn -0.0828 0.0499 0.9953
vn -0.0539 0.7708 0.6348
vn -0.4971 0.0656 0.8652
vn -0.3299 0.7548 0.5670
vn 0.0001 -0.9978 0.0657
vn 0.1192 0.0818 0.9895
vn 0.7441 0.0569 0.6656
vn 0.5013 0.0397 0.8644
vn 0.3405 0.7678 0.5427
vn 0.5313 0.7474 0.3988
vn 0.5733 0.7593 0.3077
vn 0.8476 0.0231 0.5301
vn 0.9988 0.0133 0.0475
vn 0.9996 -0.0065 -0.0270
vn 0.6768 0.7329 -0.0690
vn 0.6889 0.7249 -0.0060
vn 0.6574 0.7321 0.1785
vn 0.6069 0.7080 -0.3612
vn 0.8882 -0.0397 -0.4578
vn 0.6699 0.7084 -0.2223
vn 0.9675 -0.0141 -0.2526
vn 0.9644 -0.0173 -0.2637
vn 0.8654 -0.0329 -0.5001
vn 0.5961 0.7006 -0.3922
vn 0.8389 -0.0463 -0.5423
vn 0.6327 -0.0494 -0.7728
vn 0.6232 -0.0469 -0.7807
vn 0.4232 0.6872 -0.5905
vn 0.4291 0.6907 -0.5821
vn 0.3217 -0.0671 -0.9445
vn 0.3167 -0.0659 -0.9462
vn 0.2173 0.6756 -0.7045
vn 0.0586 -0.0563 -0.9967
vn 0.0556 0.6868 -0.7247
vn 0.0447 0.6841 -0.7281
vn -0.1963 0.6708 -0.7152
vn -0.0588 -0.0747 -0.9955
vn -0.2785 -0.0553 -0.9589
vn -0.0030 0.9683 -0.2497
vn -0.1866 0.9536 -0.2362
vn -0.3418 -0.0664 -0.9374
vn -0.0839 0.9566 -0.2790
vn -0.2011 0.9672 -0.1554
vn -0.1450 0.9660 -0.2142
vn -0.0000 0.9682 -0.2503
vn -0.0000 0.9887 -0.1502
vn 0.1803 0.9563 -0.2301
vn 0.1555 0.9669 -0.2021
vn 0.2022 0.9669 -0.1554
vn 0.1547 0.9793 -0.1306
vn -0.0000 0.9962 -0.0866
vn 0.1556 0.9843 -0.0830
vn 0.1369 0.9875 -0.0783
vn 0.2657 0.9611 -0.0751
vn 0.2573 0.9568 -0.1350
vn 0.2826 0.9555 -0.0851
vn 0.3744 0.9242 -0.0758
vn 0.3444 0.9337 -0.0975
vn 0.3741 0.9188 -0.1257
vn 0.2738 0.9541 -0.1215
vn 0.3283 0.8612 0.3881
vn 0.2781 0.8808 0.3833
vn 0.3032 0.9492 -0.0846
vn 0.3188 0.9428 -0.0974
vn 0.3261 0.8593 0.3940
vn 0.2505 0.8871 0.3876
vn 0.2024 0.5723 0.7947
vn 0.1037 0.4125 0.9050
vn 0.1285 0.9307 0.3424
vn 0.0717 0.5761 0.8143
vn 0.0869 0.6269 0.7743
vn 0.2483 0.8845 0.3950
vn 0.0002 0.0645 0.9979
vn -0.0000 0.0645 0.9979
vn -0.0847 0.6197 0.7802
vn -0.0721 0.5777 0.8131
vn -0.0000 0.4520 0.8920
vn -0.0000 0.9347 0.3554
vn -0.1248 0.9271 0.3534
vn -0.1269 0.9289 0.3478
vn 0.0008 0.9356 0.3530
vn 0.0028 0.9963 -0.0858
vn -0.1557 0.9843 -0.0829
vn -0.1375 0.9874 -0.0783
vn -0.1547 0.9791 -0.1320
vn -0.2579 0.9566 -0.1358
vn -0.2656 0.9612 -0.0750
vn -0.2787 0.9530 -0.1191
vn -0.3722 0.9199 -0.1236
vn -0.3488 0.9325 -0.0935
vn -0.2831 0.9553 -0.0852
vn -0.3742 0.9243 -0.0756
vn -0.3299 0.8617 0.3855
vn -0.2498 0.8875 0.3871
vn -0.2489 0.8865 0.3902
vn -0.1035 0.4155 0.9037
vn 0.1258 0.9285 0.3494
vn -0.0044 0.0555 0.9984
vn 0.1331 0.4303 0.8928
vn 0.0720 0.4274 0.9012
vn 0.0822 0.4624 0.8828
vn -0.0003 0.0656 0.9978
vn 0.1639 0.5600 0.8121
vn 0.1779 0.8876 0.4248
vn 0.2702 0.8696 0.4133
vn 0.0745 0.5374 0.8400
vn 0.0404 0.4621 0.8859
vn 0.0001 0.0669 0.9978
vn 0.0408 0.5015 0.8642
vn 0.0150 0.5045 0.8633
vn 0.0003 0.0676 0.9977
vn 0.0086 0.4500 0.8930
vn -0.0108 0.5883 0.8086
vn -0.0178 0.9487 0.3156
vn 0.0292 0.9055 0.4234
vn -0.0134 0.9938 0.1102
vn -0.0130 0.9197 0.3925
vn 0.0346 0.9964 -0.0770
vn 0.0126 0.9971 -0.0745
vn 0.0362 0.9964 -0.0761
vn 0.0370 0.9257 0.3763
vn 0.0895 0.9929 -0.0787
vn 0.0809 0.9216 0.3797
vn 0.0892 0.9929 -0.0784
vn 0.1518 0.9851 -0.0808
vn 0.1360 0.9155 0.3785
vn 0.0826 0.9130 0.3995
vn 0.1775 0.9089 0.3774
vn 0.1363 0.9136 0.3831
vn 0.2004 0.9771 -0.0712
vn 0.1609 0.9831 -0.0869
vn 0.2240 0.9710 -0.0839
vn 0.2097 0.9694 -0.1274
vn 0.1681 0.9775 -0.1274
vn 0.1681 0.9775 -0.1273
vn 0.1662 0.9710 -0.1721
vn 0.1756 0.9677 -0.1808
vn 0.1894 0.9653 -0.1798
vn 0.2386 0.9602 -0.1451
vn 0.1725 0.9622 -0.2108
vn 0.1448 0.9626 -0.2290
vn 0.0827 0.9823 -0.1681
vn 0.0866 0.9751 -0.2040
vn 0.1028 0.9683 -0.2277
vn 0.1665 0.9480 -0.2713
vn 0.1534 0.9477 -0.2800
vn 0.1263 0.9510 -0.2824
vn 0.0987 0.9627 -0.2521
vn 0.0916 0.9675 -0.2359
vn 0.1662 0.9548 -0.2464
vn 0.0595 0.9493 -0.3088
vn 0.0222 0.9584 -0.2847
vn 0.0563 0.9720 -0.2283
vn 0.0129 0.9698 -0.2435
vn 0.0169 0.9082 -0.4182
vn -0.0467 0.8977 -0.4381
vn -0.0649 0.9459 -0.3178
vn -0.0705 0.9653 -0.2515
vn -0.0420 0.9706 -0.2368
vn -0.0052 0.9718 -0.2359
vn -0.0265 0.9762 -0.2151
vn -0.0117 0.9738 -0.2272
vn -0.0369 0.6907 -0.7222
vn 0.0193 0.6711 -0.7411
vn -0.0471 0.7450 -0.6654
vn 0.0272 0.7306 -0.6823
vn 0.0303 0.8547 -0.5182
vn 0.0896 0.6893 -0.7189
vn 0.0612 0.9166 -0.3952
vn 0.1077 0.9045 -0.4126
vn 0.0949 0.7128 -0.6949
vn -0.0109 0.9733 -0.2293
vn 0.0352 0.9801 -0.1953
vn 0.1272 0.7475 -0.6519
vn -0.0046 0.9754 -0.2205
vn 0.0380 0.9856 -0.1645
vn 0.0590 0.9829 -0.1743
vn 0.0075 0.9850 -0.1726
vn -0.0378 0.9864 -0.1601
vn 0.2865 0.9433 0.1678
vn -0.0416 0.9917 -0.1215
vn -0.0384 0.9906 -0.1312
vn -0.0567 0.9921 -0.1123
vn -0.0611 0.9916 -0.1140
vn -0.0024 0.9949 -0.1010
vn -0.0615 0.9947 -0.0829
vn -0.0054 0.9962 -0.0872
vn -0.0313 0.9968 -0.0733
vn -0.0933 0.9935 -0.0659
vn -1.0000 0.0004 0.0003
vn -1.0000 0.0010 -0.0004
vn -0.0038 0.0487 0.9988
vn -0.0178 0.4407 0.8975
vn -0.0002 0.0709 0.9975
vn -0.0936 0.8789 0.4678
vn -0.0853 0.9150 0.3943
vn -1.0000 -0.0001 -0.0000
vn -0.0509 0.9858 -0.1598
vn -1.0000 -0.0002 -0.0000
vn 0.0586 -0.9897 0.1309
vn 0.0778 -0.9852 0.1526
vn 0.0659 -0.9913 0.1139
vn 0.3156 -0.0633 -0.9468
vn 0.3152 -0.0626 -0.9469
vn 0.0320 -0.9894 0.1415
vn 0.0279 -0.9897 0.1408
vn 0.0928 -0.9780 0.1870
vn 0.0949 -0.9777 0.1872
vn 0.0334 -0.9879 0.1514
vn -1.0000 -0.0024 0.0003
vn 0.3171 -0.0647 -0.9462
vn -1.0000 -0.0006 -0.0016
vn 0.0527 0.9873 -0.1497
vn 0.0238 0.9934 -0.1119
vn 0.0631 0.9864 -0.1518
vn 0.2093 0.9496 -0.2335
vn 0.0867 0.9879 -0.1283
vn 0.2877 0.9462 -0.1482
vn -0.4666 -0.0705 -0.8816
vn -0.1351 -0.0486 -0.9896
vn 0.0824 -0.0793 -0.9934
vn -0.3182 0.6953 -0.6444
vn 0.4198 -0.0484 -0.9063
vn 0.0001 -0.9978 0.0656
vn 1.0000 -0.0005 -0.0000
vn 1.0000 -0.0006 -0.0001
vn -0.0002 0.0652 0.9979
vn -0.0009 0.0650 0.9979
vn 0.3806 -0.8995 0.2143
vn 0.4212 -0.8802 0.2188
vn 0.3669 -0.9095 0.1954
vn 0.3938 -0.9045 0.1640
vn 0.3238 -0.9245 0.2012
vn -0.0508 0.0636 -0.9967
vn 0.0002 0.0715 -0.9974
vn -0.0358 0.0772 -0.9964
vn 0.2571 -0.9284 0.2681
vn 0.0149 -0.9732 0.2294
vn 0.2331 -0.9400 0.2493
vn -0.0036 0.0829 -0.9966
vn 0.0018 -0.9721 0.2346
vn -0.1908 -0.9540 0.2314
vn 0.0005 0.0653 0.9979
vn -0.0002 0.0839 -0.9965
vn 0.0047 0.0615 -0.9981
vn -0.0000 -0.9978 0.0658
vn -0.0025 0.0418 -0.9991
vn -0.0224 0.0483 -0.9986
vn -0.0326 0.0513 -0.9982
vn -0.0583 0.0493 -0.9971
vn 0.4104 -0.9099 0.0598
vn 0.2919 -0.9345 0.2038
vn 0.2075 -0.9603 0.1864
vn 0.2764 -0.9409 0.1955
vn 0.2608 -0.9386 0.2260
vn 0.2313 -0.9446 0.2330
vn 0.1763 -0.9638 0.2000
vn 0.1806 -0.9600 0.2139
vn 0.1416 -0.9578 0.2501
vn 0.2096 -0.9406 0.2672
vn 0.1350 -0.9610 0.2415
vn 0.2311 -0.9405 0.2491
vn -0.0002 0.0657 0.9978
vn 0.3264 -0.9067 0.2672
vn 0.3021 -0.9187 0.2545
vn 0.3269 -0.9181 0.2240
vn 0.3981 -0.8876 0.2314
vn 0.2986 -0.9259 0.2316
vn 0.3977 -0.8847 0.2434
vn 0.0001 0.0655 0.9979
vn 0.4590 -0.8604 0.2213
vn 0.3247 -0.9195 0.2215
vn 0.3109 -0.9267 0.2112
vn 0.4651 -0.8587 0.2155
vn 0.3535 -0.9081 0.2246
vn 0.3255 -0.9148 0.2390
vn 0.0067 -0.9721 0.2345
vn 0.3280 -0.9029 0.2780
vn 0.3096 -0.9063 0.2878
vn -0.0076 -0.9528 0.3035
vn -0.0012 -0.9522 0.3055
vn 0.1708 -0.9335 0.3151
vn -0.0001 0.0657 0.9978
vn -0.0002 -0.0658 -0.9978
vn -0.0001 -0.0657 -0.9978
vn -0.0000 -0.0656 -0.9978
vn -0.1840 -0.9311 0.3150
vn 0.0004 -0.0650 -0.9979
vn -0.3045 -0.9068 0.2914
vn -0.4580 -0.8479 0.2671
vn -0.3384 -0.9002 0.2740
vn -0.0012 -0.0653 -0.9979
vn -0.4517 -0.8528 0.2622
vn 0.4561 -0.8496 0.2648
vn 0.0014 -0.0652 -0.9979
vn 0.4514 -0.8532 0.2612
vn 0.1046 -0.9666 0.2340
vn 0.0777 -0.9622 0.2609
vn 0.0140 -0.9714 0.2371
vn 0.0157 -0.9706 0.2403
vn 0.0917 -0.9706 0.2225
vn 0.0455 -0.9755 0.2153
vn 0.0921 -0.9749 0.2030
vn 0.0804 -0.9787 0.1887
vn 0.0626 -0.9809 0.1840
vn 0.0242 -0.9788 0.2033
vn 0.0337 -0.9815 0.1887
vn -0.0320 -0.9893 0.1423
vn -0.0912 -0.9787 0.1840
vn 0.0148 -0.9888 0.1482
vn -0.0131 -0.9897 0.1425
vn -0.0339 -0.9874 0.1548
vn 0.0050 -0.9823 0.1873
vn -0.0021 -0.9876 0.1571
vn -0.1286 -0.9858 0.1077
vn 0.0172 -0.9983 0.0566
vn 0.0135 0.0316 -0.9994
vn -0.0017 0.0319 -0.9995
vn -0.0009 0.0297 -0.9996
vn -0.0000 -0.9977 0.0672
vn 0.0004 0.0307 -0.9995
vn 1.0000 0.0002 0.0001
vn 0.0007 -0.9978 0.0656
vn 0.0406 0.0422 -0.9983
vn -0.0120 0.0341 -0.9993
vn -0.0035 0.0323 -0.9995
vn 1.0000 -0.0002 -0.0006
vn 0.0834 -0.9837 0.1594
vn 0.1191 -0.9888 0.0894
vn 0.0336 -0.9874 0.1549
vn 0.0982 -0.9810 0.1672
vn 0.0240 -0.9969 0.0745
vn 0.0915 -0.9815 0.1680
vn -0.0213 0.0363 -0.9991
vn 0.2070 -0.9606 0.1856
vn -0.0006 0.0395 -0.9992
vn -0.0106 0.0388 -0.9992
vn 0.0904 -0.9858 0.1417
vn 1.0000 -0.0008 -0.0001
vn -0.0000 0.0130 0.9999
vn -0.0000 0.9969 0.0792
vn 1.0000 -0.0000 -0.0004
vn -0.0000 -0.0953 0.9954
vn -0.0000 -0.0953 0.9955
vn 0.0414 -0.9886 0.1446
vn 0.1583 -0.9683 0.1933
vn -0.0171 -0.9734 0.2286
vn -0.0300 -0.9753 0.2190
vn 1.0000 0.0001 -0.0000
vn -0.0137 -0.9733 0.2291
vn -0.0311 -0.9777 0.2076
vn -0.3163 0.0614 0.9467
vn -0.1273 -0.9513 0.2809
vn 0.0226 0.9763 -0.2152
vn 1.0000 0.0003 0.0001
vn -0.3166 0.0606 0.9466
vn 0.0078 0.9716 -0.2365
vn 0.0312 0.9757 -0.2171
vn -0.0113 0.9712 -0.2382
vn 0.0006 0.9687 -0.2484
vn 0.0466 0.9009 -0.4315
vn 0.0631 0.9479 -0.3123
vn -0.0226 0.8979 -0.4396
vn 0.0441 0.9680 -0.2471
vn -0.0328 0.9416 -0.3351
vn 1.0000 0.0037 0.0002
vn 0.0546 0.9703 -0.2357
vn 1.0000 -0.0002 -0.0002
vn 0.0366 0.6847 -0.7279
vn -0.0192 0.6809 -0.7321
vn 0.0488 0.7482 -0.6616
vn -0.0250 0.7265 -0.6867
vn 0.0196 0.3051 -0.9521
vn 1.0000 0.0002 -0.0006
vn 1.0000 -0.0002 -0.0001
vn 0.0157 0.2753 -0.9612
vn 1.0000 -0.0002 0.0001
vn -0.0635 -0.9682 0.2420
vn 1.0000 -0.0000 0.0001
vn 1.0000 -0.0003 0.0001
vn -0.0531 -0.9717 0.2300
vn -0.0000 -0.0665 -0.9978
vn -0.0473 -0.9709 0.2346
vn -0.9950 -0.0081 -0.0993
vn -0.1219 -0.9565 0.2649
vn -0.9617 -0.0180 -0.2735
vn -0.0816 -0.9675 0.2392
vn -0.9951 -0.0065 -0.0983
vn -0.9579 -0.0306 -0.2854
vn -0.0040 0.9556 -0.2946
vn -0.0071 0.9576 -0.2879
vn 0.0038 -0.0651 -0.9979
vn -0.0033 -0.9880 0.1543
vn -0.0030 -0.9880 0.1544
vn -0.0006 -0.0562 -0.9984
vn 0.0681 -0.9875 0.1420
vn 0.0509 -0.9913 0.1218
vn 0.1248 -0.9833 0.1327
vn -0.0011 -0.0544 -0.9985
vn 0.0460 0.9426 -0.3308
vn 0.0486 0.9437 -0.3273
vn 0.0004 -0.0656 -0.9978
vn -0.0110 0.2705 -0.9626
vn -0.0098 0.3058 -0.9520
vn -0.0331 0.9805 -0.1936
vn -0.0498 0.9728 -0.2264
vn -0.0490 0.9763 -0.2109
vn -0.0877 0.9741 -0.2085
vn -0.1069 0.9658 -0.2363
vn -0.0996 0.9649 -0.2431
vn -0.0425 0.9750 -0.2182
vn -0.1115 0.9538 -0.2791
vn 0.1271 -0.9837 0.1269
vn 0.3139 -0.9290 0.1959
vn 0.3269 -0.9239 0.1989
vn 0.2884 -0.9555 0.0628
vn 0.2922 -0.9547 0.0564
vn 0.8015 -0.0284 -0.5974
vn 0.6104 -0.0622 -0.7897
vn -0.7053 -0.0357 -0.7080
vn 0.0699 0.9598 -0.2717
vn 0.9982 0.0067 0.0595
vn 0.9947 0.0007 0.1023
vn 0.9461 0.0247 0.3229
vn -0.0001 -0.9978 0.0657
vn 0.7632 0.0472 0.6444
vn 0.7682 0.0443 0.6387
vn 0.9200 0.0156 0.3917
vn -1.0000 -0.0003 -0.0000
vn -0.3634 0.9194 -0.1502
vn -0.1244 0.9469 -0.2966
vn -0.1659 0.9484 -0.2703
vn -0.1323 0.9031 0.4085
vn 0.0110 0.5917 0.8061
vn 0.0185 0.4231 0.9059
vn 0.0002 0.0656 0.9978
vn 0.0072 0.0738 0.9972
vn 0.0181 0.9307 0.3654
vn 0.0845 0.9155 0.3934
vn 0.0195 0.9376 0.3471
vn 0.0922 0.8838 0.4587
vn 1.0000 0.0002 -0.0002
vn 0.0968 0.9931 -0.0657
vn 0.0499 0.9957 -0.0775
vn 0.0205 0.9927 0.1190
vn 0.0672 0.9946 -0.0791
vn 0.0032 0.9973 -0.0735
vn 0.0350 0.9958 -0.0842
vn 0.0634 0.9910 -0.1181
vn 0.0520 0.9922 -0.1137
vn 1.0000 -0.0000 -0.0001
vn -0.0000 0.0128 0.9999
vn -0.0105 0.0371 -0.9993
vn 0.0130 -0.9897 0.1424
vn -0.0160 -0.9982 0.0570
vn 0.1277 -0.9860 0.1072
vn 0.0100 -0.9880 0.1541
vn -0.0088 -0.9891 0.1468
vn -0.0335 -0.9874 0.1549
vn -0.0414 -0.9886 0.1446
vn -0.0834 -0.9837 0.1594
vn -0.1191 -0.9888 0.0894
vn -0.0953 -0.9805 0.1720
vn -0.0000 -0.9975 0.0707
vn -0.1085 -0.9737 0.2001
vn -0.1138 -0.9792 0.1680
vn -0.1257 -0.9774 0.1700
vn -0.0736 -0.9948 0.0710
vn -0.2398 -0.9577 0.1590
vn -0.2911 -0.9347 0.2039
vn -0.2094 -0.9599 0.1862
vn -0.1777 -0.9635 0.2003
vn -0.2759 -0.9411 0.1954
vn -0.1769 -0.9624 0.2064
vn -0.0771 -0.9624 0.2604
vn -0.0138 -0.9691 0.2462
vn -0.0600 -0.9679 0.2442
vn -0.0575 -0.9895 0.1324
vn -0.0060 -0.9880 0.1542
vn 0.0120 -0.9907 0.1355
vn -0.0530 -0.9890 0.1381
vn 0.1278 -0.9561 0.2639
vn 0.0474 -0.9708 0.2350
vn 0.0535 -0.9717 0.2299
vn 0.0744 -0.9696 0.2333
vn -1.0000 0.0006 -0.0007
vn -0.0001 -0.0655 -0.9979
vn -0.0487 0.9454 -0.3222
vn -0.0003 -0.0662 -0.9978
vn -0.0420 0.9425 -0.3315
vn 0.9950 -0.0087 -0.0992
vn 0.9952 -0.0064 -0.0978
vn 0.0041 0.9557 -0.2942
vn 0.9624 -0.0178 -0.2710
vn -0.1271 -0.9838 0.1261
vn -0.1222 -0.9828 0.1384
vn -1.0000 0.0011 -0.0000
vn 0.0453 0.3103 -0.9496
vn 0.0426 0.2665 -0.9629
vn -0.2321 -0.9632 0.1357
vn 0.4734 0.8634 -0.1745
vn 0.0001 -0.0655 -0.9979
vn -0.1241 0.2502 -0.9602
vn -0.2852 0.6268 -0.7251
vn -0.3615 0.8232 -0.4379
vn -0.3616 0.8227 -0.4386
vn -0.6616 0.0358 0.7490
vn -0.1298 0.9418 -0.3101
vn -0.1955 0.9482 -0.2503
vn 0.3176 0.7614 0.5652
vn 0.2812 0.9226 -0.2639
vn 0.3836 0.8814 -0.2755
vn 0.3763 0.8809 -0.2871
vn 0.2847 0.9094 -0.3032
vn 0.2636 0.8495 -0.4570
vn 0.3339 0.8860 -0.3219
vn 0.3588 0.8183 -0.4491
vn 0.3863 0.8780 -0.2827
vn 0.2893 0.6841 -0.6696
vn 0.2306 0.6388 -0.7340
vn 0.3658 0.8227 -0.4352
vn 0.2876 0.6293 -0.7220
vn 0.4505 0.7858 -0.4238
vn 0.3540 0.5925 -0.7236
vn 0.4737 0.8392 -0.2673
vn 0.4503 0.7795 -0.4355
vn 0.3301 0.5633 -0.7575
vn 0.2059 0.9364 -0.2841
vn 0.4493 0.8549 -0.2595
s 0
usemtl Material.027
f 1//1 8//1 2//1
f 1//2 2//2 4//2
f 1//3 3//3 8//3
f 3//4 1//4 11//4
f 4//5 6//5 1//5
f 7//6 1//6 5//6
f 1//7 6//7 5//7
f 9//8 1//8 7//8
f 1//9 9//9 10//9
f 10//10 11//10 1//10
f 12//11 3//11 11//11
f 11//12 13//12 12//12
f 11//13 15//13 13//13
f 11//14 10//14 16//14
f 11//15 14//15 15//15
f 16//16 14//16 11//16
f 18//17 17//17 16//17
f 14//18 16//18 17//18
f 10//19 18//19 16//19
f 20//20 17//20 18//20
f 19//21 18//21 21//21
f 18//22 19//22 20//22
f 18//23 10//23 21//23
f 21//24 22//24 23//24
f 21//25 24//25 22//25
f 21//26 23//26 19//26
f 21//27 10//27 24//27
f 24//28 9//28 25//28
f 9//29 24//29 10//29
f 22//30 24//30 25//30
f 26//31 25//31 27//31
f 25//32 26//32 28//32
f 27//33 25//33 9//33
f 28//34 22//34 25//34
f 29//35 28//35 26//35
f 29//36 30//36 28//36
f 22//37 28//37 30//37
f 30//38 31//38 22//38
f 32//39 31//39 30//39
f 30//40 29//40 32//40
f 35//41 33//41 32//41
f 33//42 34//42 32//42
f 31//43 32//43 34//43
f 36//44 32//44 29//44
f 32//45 36//45 35//45
f 36//46 37//46 35//46
f 38//47 37//47 36//47
f 29//48 38//48 36//48
f 41//49 39//49 38//49
f 37//50 38//50 39//50
f 40//51 41//51 38//51
f 38//52 29//52 40//52
f 45//53 41//53 42//53
f 41//54 40//54 42//54
f 44//55 43//55 41//55
f 39//47 41//47 43//47
f 41//56 45//56 44//56
f 48//57 45//57 42//57
f 46//58 45//58 49//58
f 45//59 46//59 47//59
f 47//60 44//60 45//60
f 45//61 48//61 49//61
f 49//62 50//62 46//62
f 49//63 48//63 50//63
f 46//64 50//64 51//64
f 53//65 51//65 50//65
f 50//66 55//66 52//66
f 52//67 53//67 50//67
f 54//68 50//68 48//68
f 55//69 50//69 54//69
f 52//70 55//70 56//70
f 55//71 58//71 56//71
f 57//72 55//72 54//72
f 55//73 57//73 58//73
f 57//74 5//74 58//74
f 5//75 59//75 58//75
f 56//76 58//76 59//76
f 60//77 59//77 61//77
f 59//78 60//78 62//78
f 61//79 59//79 5//79
f 59//80 63//80 56//80
f 63//81 59//81 62//81
f 64//82 65//82 63//82
f 62//83 64//83 63//83
f 66//84 63//84 65//84
f 63//85 66//85 56//85
f 56//86 66//86 69//86
f 66//87 67//87 68//87
f 67//88 66//88 65//88
f 68//89 70//89 66//89
f 70//90 69//90 66//90
f 73//91 53//91 70//91
f 53//92 69//92 70//92
f 73//93 70//93 71//93
f 71//94 70//94 72//94
f 72//95 70//95 68//95
f 74//96 51//96 73//96
f 73//97 51//97 53//97
f 74//98 73//98 76//98
f 71//99 75//99 73//99
f 75//100 76//100 73//100
f 77//101 79//101 76//101
f 76//102 75//102 77//102
f 76//103 78//103 74//103
f 78//104 76//104 79//104
f 47//105 79//105 81//105
f 79//106 47//106 78//106
f 79//107 77//107 80//107
f 80//108 81//108 79//108
f 81//109 82//109 47//109
f 84//110 81//110 80//110
f 82//111 81//111 83//111
f 85//112 83//112 81//112
f 81//113 84//113 85//113
f 85//114 86//114 88//114
f 86//115 85//115 84//115
f 88//116 87//116 85//116
f 83//117 85//117 87//117
f 91//118 88//118 89//118
f 90//119 89//119 88//119
f 88//120 86//120 90//120
f 88//121 91//121 92//121
f 87//122 88//122 92//122
f 93//123 94//123 92//123
f 93//123 92//123 91//123
f 94//123 87//123 92//123
f 97//124 94//124 93//124
f 94//125 95//125 87//125
f 96//126 95//126 94//126
f 98//127 96//127 94//127
f 94//128 97//128 98//128
f 99//129 101//129 98//129
f 99//130 98//130 100//130
f 98//131 97//131 100//131
f 96//132 98//132 101//132
f 104//133 101//133 102//133
f 101//134 103//134 102//134
f 99//135 103//135 101//135
f 101//136 104//136 96//136
f 104//137 95//137 96//137
f 102//138 105//138 104//138
f 95//139 104//139 105//139
f 103//138 106//138 105//138
f 105//140 106//140 107//140
f 107//141 95//141 105//141
f 105//138 102//138 103//138
f 87//142 95//142 107//142
f 107//143 83//143 87//143
f 82//144 107//144 109//144
f 107//145 82//145 83//145
f 108//146 107//146 106//146
f 107//147 108//147 109//147
f 109//144 44//144 82//144
f 109//148 111//148 110//148
f 44//145 109//145 110//145
f 111//149 109//149 108//149
f 113//150 111//150 108//150
f 112//55 114//55 111//55
f 111//145 113//145 112//145
f 111//151 43//151 110//151
f 43//152 111//152 114//152
f 114//153 39//153 43//153
f 114//154 112//154 117//154
f 114//155 116//155 115//155
f 39//156 114//156 115//156
f 116//50 114//50 117//50
f 116//157 117//157 119//157
f 112//158 118//158 117//158
f 117//159 118//159 119//159
f 119//160 122//160 116//160
f 122//161 119//161 120//161
f 119//162 121//162 120//162
f 121//163 119//163 118//163
f 122//161 120//161 123//161
f 122//164 123//164 125//164
f 122//165 126//165 124//165
f 122//166 124//166 116//166
f 125//167 127//167 122//167
f 122//168 127//168 126//168
f 127//169 128//169 130//169
f 127//170 129//170 128//170
f 125//171 129//171 127//171
f 127//172 130//172 126//172
f 128//173 131//173 130//173
f 132//174 130//174 131//174
f 130//175 132//175 133//175
f 130//176 133//176 126//176
f 134//50 133//50 132//50
f 133//50 134//50 126//50
f 136//50 126//50 134//50
f 132//177 135//177 134//177
f 37//178 134//178 135//178
f 37//179 136//179 134//179
f 126//155 136//155 124//155
f 37//180 115//180 136//180
f 115//155 124//155 136//155
f 132//181 131//181 135//181
f 131//182 137//182 135//182
f 35//183 37//183 135//183
f 35//184 135//184 137//184
f 131//185 128//185 137//185
f 128//186 138//186 137//186
f 138//187 139//187 137//187
f 35//50 137//50 33//50
f 33//155 137//155 139//155
f 139//188 140//188 142//188
f 140//189 139//189 141//189
f 141//190 139//190 138//190
f 142//191 143//191 139//191
f 144//192 139//192 143//192
f 146//155 139//155 144//155
f 145//47 139//47 146//47
f 33//155 139//155 145//155
f 149//193 147//193 146//193
f 148//194 146//194 147//194
f 144//155 149//155 146//155
f 146//195 148//195 145//195
f 149//50 144//50 151//50
f 152//196 149//196 150//196
f 150//197 149//197 153//197
f 151//198 153//198 149//198
f 147//199 149//199 152//199
f 154//200 150//200 153//200
f 156//201 154//201 153//201
f 153//202 151//202 155//202
f 153//203 155//203 157//203
f 153//204 158//204 156//204
f 158//205 153//205 157//205
f 159//206 156//206 158//206
f 159//207 158//207 157//207
f 164//208 159//208 157//208
f 156//209 159//209 160//209
f 162//210 160//210 159//210
f 163//211 161//211 159//211
f 162//212 159//212 161//212
f 164//213 163//213 159//213
f 164//214 165//214 163//214
f 167//215 165//215 164//215
f 157//216 166//216 164//216
f 167//217 164//217 166//217
f 167//218 168//218 171//218
f 170//219 168//219 167//219
f 167//220 166//220 169//220
f 169//221 172//221 167//221
f 167//222 172//222 170//222
f 165//223 167//223 171//223
f 172//224 173//224 170//224
f 173//225 172//225 174//225
f 169//226 174//226 172//226
f 174//227 169//227 175//227
f 174//228 176//228 173//228
f 174//229 175//229 176//229
f 173//230 176//230 177//230
f 125//231 177//231 176//231
f 129//232 125//232 176//232
f 129//203 176//203 175//203
f 125//233 178//233 177//233
f 178//234 173//234 177//234
f 173//235 178//235 180//235
f 178//236 125//236 181//236
f 179//237 178//237 181//237
f 180//238 178//238 179//238
f 179//239 181//239 183//239
f 123//240 181//240 125//240
f 183//241 181//241 182//241
f 182//242 181//242 123//242
f 183//243 185//243 179//243
f 185//244 183//244 184//244
f 186//245 184//245 183//245
f 183//246 182//246 186//246
f 187//247 188//247 186//247
f 182//248 187//248 186//248
f 186//249 188//249 189//249
f 186//250 189//250 184//250
f 192//251 189//251 190//251
f 191//252 190//252 189//252
f 188//253 191//253 189//253
f 189//254 192//254 184//254
f 194//255 184//255 192//255
f 193//256 194//256 192//256
f 193//257 192//257 190//257
f 197//258 195//258 194//258
f 196//259 194//259 195//259
f 198//260 194//260 196//260
f 194//261 193//261 197//261
f 184//262 194//262 198//262
f 196//263 185//263 198//263
f 184//264 198//264 185//264
f 193//265 202//265 197//265
f 195//266 197//266 199//266
f 199//267 197//267 200//267
f 197//268 201//268 200//268
f 201//269 197//269 204//269
f 202//270 203//270 197//270
f 203//271 204//271 197//271
f 205//272 204//272 207//272
f 201//273 204//273 205//273
f 204//274 210//274 206//274
f 207//275 204//275 206//275
f 204//276 203//276 209//276
f 211//277 208//277 204//277
f 210//278 204//278 208//278
f 204//279 209//279 211//279
f 211//280 216//280 212//280
f 208//280 211//280 212//280
f 211//198 213//198 216//198
f 211//281 217//281 213//281
f 215//282 214//282 211//282
f 211//283 214//283 217//283
f 211//284 209//284 215//284
f 218//285 213//285 217//285
f 214//286 218//286 217//286
f 221//261 218//261 219//261
f 219//286 218//286 220//286
f 220//286 218//286 222//286
f 221//261 216//261 218//261
f 218//287 216//287 213//287
f 214//286 222//286 218//286
f 222//288 225//288 223//288
f 222//289 223//289 224//289
f 222//290 224//290 229//290
f 225//291 222//291 214//291
f 222//292 226//292 220//292
f 222//293 227//293 226//293
f 228//286 227//286 222//286
f 228//294 222//294 229//294
f 228//295 229//295 231//295
f 224//296 230//296 229//296
f 229//297 230//297 233//297
f 231//298 229//298 232//298
f 233//299 232//299 229//299
f 233//300 236//300 234//300
f 237//301 233//301 234//301
f 236//302 233//302 230//302
f 227//303 232//303 233//303
f 237//304 235//304 233//304
f 227//305 233//305 235//305
f 238//306 237//306 239//306
f 240//307 237//307 238//307
f 239//308 237//308 234//308
f 237//309 240//309 235//309
f 243//310 241//310 240//310
f 241//311 242//311 240//311
f 235//312 240//312 242//312
f 243//313 240//313 238//313
f 244//314 243//314 238//314
f 244//315 245//315 243//315
f 243//316 246//316 241//316
f 245//317 247//317 243//317
f 246//318 243//318 247//318
f 249//319 248//319 247//319
f 248//320 246//320 247//320
f 245//321 249//321 247//321
f 249//322 245//322 250//322
f 250//323 251//323 249//323
f 251//324 248//324 249//324
f 248//325 251//325 252//325
f 251//326 221//326 252//326
f 254//327 251//327 253//327
f 251//328 250//328 253//328
f 254//329 221//329 251//329
f 257//330 255//330 254//330
f 255//331 221//331 254//331
f 254//332 253//332 256//332
f 257//333 254//333 256//333
f 259//334 258//334 257//334
f 255//335 257//335 258//335
f 257//336 260//336 259//336
f 260//337 257//337 256//337
f 263//338 261//338 260//338
f 260//339 261//339 262//339
f 259//340 260//340 262//340
f 256//341 263//341 260//341
f 261//342 263//342 264//342
f 245//343 264//343 263//343
f 253//344 263//344 256//344
f 253//345 245//345 263//345
f 264//346 245//346 244//346
f 244//347 265//347 264//347
f 261//348 264//348 265//348
f 266//349 265//349 267//349
f 266//350 262//350 265//350
f 265//351 262//351 261//351
f 267//352 265//352 268//352
f 265//353 244//353 268//353
f 238//354 269//354 268//354
f 269//355 270//355 268//355
f 244//356 238//356 268//356
f 267//357 268//357 270//357
f 270//358 271//358 273//358
f 270//359 272//359 271//359
f 272//360 270//360 269//360
f 270//361 273//361 267//361
f 273//362 274//362 267//362
f 274//363 273//363 275//363
f 273//364 276//364 275//364
f 86//365 276//365 273//365
f 271//366 86//366 273//366
f 80//367 276//367 84//367
f 276//368 80//368 77//368
f 276//369 77//369 275//369
f 84//370 276//370 86//370
f 75//371 275//371 77//371
f 277//372 274//372 275//372
f 275//373 75//373 277//373
f 277//374 267//374 274//374
f 267//374 277//374 266//374
f 277//375 75//375 71//375
f 71//376 278//376 277//376
f 277//377 278//377 266//377
f 279//378 278//378 280//378
f 266//379 278//379 279//379
f 280//380 278//380 281//380
f 278//381 282//381 281//381
f 282//382 278//382 283//382
f 283//383 278//383 71//383
f 285//384 282//384 283//384
f 71//385 284//385 283//385
f 285//386 283//386 284//386
f 286//387 285//387 289//387
f 285//388 286//388 287//388
f 282//389 285//389 287//389
f 284//390 288//390 285//390
f 288//391 289//391 285//391
f 290//392 286//392 289//392
f 289//393 291//393 290//393
f 291//394 289//394 292//394
f 289//395 288//395 292//395
f 292//396 293//396 291//396
f 293//397 292//397 294//397
f 295//398 294//398 292//398
f 295//399 292//399 288//399
f 297//400 296//400 295//400
f 294//401 295//401 296//401
f 298//402 295//402 288//402
f 295//403 298//403 297//403
f 71//404 298//404 284//404
f 71//405 297//405 298//405
f 288//406 284//406 298//406
f 296//407 297//407 72//407
f 297//408 71//408 72//408
f 72//409 67//409 296//409
f 299//410 296//410 67//410
f 296//411 299//411 294//411
f 67//412 301//412 299//412
f 294//413 299//413 293//413
f 299//414 301//414 300//414
f 299//415 300//415 293//415
f 302//416 301//416 64//416
f 65//417 64//417 301//417
f 301//418 302//418 300//418
f 301//419 67//419 65//419
f 302//420 303//420 300//420
f 304//261 303//261 302//261
f 302//261 305//261 304//261
f 302//421 64//421 305//421
f 307//422 306//422 305//422
f 305//261 306//261 304//261
f 307//423 305//423 64//423
f 64//424 60//424 307//424
f 308//425 307//425 60//425
f 307//426 308//426 309//426
f 309//427 306//427 307//427
f 309//428 310//428 306//428
f 313//429 310//429 309//429
f 311//430 313//430 309//430
f 311//431 309//431 312//431
f 312//432 309//432 308//432
f 315//433 314//433 313//433
f 314//434 310//434 313//434
f 311//435 315//435 313//435
f 311//436 2//436 315//436
f 8//437 315//437 2//437
f 315//438 8//438 316//438
f 314//439 315//439 316//439
f 3//440 316//440 8//440
f 12//441 316//441 3//441
f 316//442 12//442 318//442
f 316//443 317//443 314//443
f 317//444 316//444 318//444
f 319//445 318//445 12//445
f 318//446 319//446 320//446
f 317//447 318//447 320//447
f 320//448 319//448 322//448
f 320//449 321//449 317//449
f 321//450 320//450 322//450
f 287//451 321//451 322//451
f 322//452 319//452 323//452
f 323//453 287//453 322//453
f 319//454 324//454 323//454
f 281//455 323//455 324//455
f 287//456 323//456 282//456
f 323//457 281//457 282//457
f 325//458 280//458 324//458
f 281//459 324//459 280//459
f 324//460 319//460 327//460
f 324//461 326//461 325//461
f 326//461 324//461 327//461
f 319//462 13//462 327//462
f 13//463 15//463 327//463
f 15//464 326//464 327//464
f 326//465 15//465 329//465
f 328//466 325//466 326//466
f 329//467 328//467 326//467
f 328//468 329//468 330//468
f 330//469 329//469 331//469
f 15//470 331//470 329//470
f 332//471 330//471 331//471
f 331//472 333//472 332//472
f 333//473 331//473 17//473
f 331//474 14//474 17//474
f 15//475 14//475 331//475
f 333//476 337//476 332//476
f 334//477 336//477 333//477
f 335//478 334//478 333//478
f 333//479 17//479 335//479
f 337//480 333//480 336//480
f 339//481 332//481 337//481
f 336//482 338//482 337//482
f 338//483 339//483 337//483
f 340//484 330//484 339//484
f 339//485 341//485 340//485
f 341//486 339//486 338//486
f 339//487 330//487 332//487
f 341//488 221//488 255//488
f 341//489 338//489 221//489
f 342//490 341//490 255//490
f 341//491 342//491 343//491
f 340//492 341//492 343//492
f 343//493 328//493 340//493
f 343//494 344//494 345//494
f 344//495 343//495 342//495
f 328//496 343//496 345//496
f 325//497 328//497 345//497
f 345//498 346//498 325//498
f 346//499 345//499 344//499
f 280//500 325//500 346//500
f 347//501 280//501 346//501
f 346//502 344//502 347//502
f 347//503 279//503 280//503
f 347//504 262//504 279//504
f 347//505 259//505 262//505
f 347//506 344//506 348//506
f 259//507 347//507 348//507
f 258//508 259//508 348//508
f 348//509 342//509 258//509
f 342//510 348//510 344//510
f 255//511 258//511 342//511
f 330//512 340//512 328//512
f 338//513 349//513 221//513
f 338//514 336//514 349//514
f 349//515 350//515 351//515
f 350//516 349//516 352//516
f 349//517 351//517 221//517
f 349//518 336//518 352//518
f 334//519 350//519 352//519
f 336//520 334//520 352//520
f 353//521 351//521 350//521
f 353//522 354//522 351//522
f 351//523 354//523 221//523
f 354//524 353//524 355//524
f 357//525 354//525 355//525
f 354//526 356//526 221//526
f 354//527 357//527 356//527
f 358//528 356//528 357//528
f 357//529 359//529 358//529
f 355//530 359//530 357//530
f 360//531 359//531 363//531
f 358//532 359//532 360//532
f 359//533 362//533 361//533
f 361//534 363//534 359//534
f 362//535 359//535 364//535
f 359//536 355//536 364//536
f 362//537 364//537 365//537
f 355//538 365//538 364//538
f 365//539 366//539 362//539
f 365//540 367//540 366//540
f 353//541 367//541 365//541
f 365//542 355//542 353//542
f 350//543 334//543 367//543
f 367//544 353//544 350//544
f 334//545 368//545 367//545
f 367//546 368//546 366//546
f 334//547 335//547 368//547
f 335//548 370//548 368//548
f 366//549 368//549 369//549
f 370//550 369//550 368//550
f 369//551 370//551 371//551
f 371//552 370//552 19//552
f 370//553 20//553 19//553
f 20//554 370//554 335//554
f 371//555 19//555 372//555
f 372//556 375//556 371//556
f 371//557 373//557 369//557
f 373//558 371//558 374//558
f 371//559 375//559 374//559
f 375//560 23//560 31//560
f 375//561 31//561 376//561
f 376//562 377//562 375//562
f 378//563 375//563 377//563
f 374//564 375//564 378//564
f 372//565 23//565 375//565
f 378//566 377//566 379//566
f 381//567 378//567 379//567
f 374//568 378//568 380//568
f 380//569 378//569 381//569
f 379//570 382//570 381//570
f 382//571 150//571 381//571
f 154//572 381//572 150//572
f 383//573 381//573 160//573
f 381//574 154//574 160//574
f 383//575 380//575 381//575
f 160//576 162//576 383//576
f 383//577 162//577 380//577
f 152//578 382//578 147//578
f 147//579 382//579 148//579
f 382//580 152//580 150//580
f 384//581 148//581 382//581
f 382//582 379//582 384//582
f 148//583 384//583 34//583
f 384//584 379//584 377//584
f 376//585 384//585 377//585
f 34//586 384//586 376//586
f 162//587 161//587 380//587
f 380//588 161//588 374//588
f 34//589 376//589 31//589
f 385//590 373//590 374//590
f 161//591 385//591 374//591
f 387//592 385//592 161//592
f 386//593 373//593 385//593
f 386//594 385//594 388//594
f 388//595 385//595 387//595
f 389//596 388//596 387//596
f 391//597 386//597 388//597
f 389//598 390//598 388//598
f 391//599 388//599 390//599
f 386//600 391//600 361//600
f 360//601 391//601 390//601
f 391//602 363//602 361//602
f 391//603 360//603 363//603
f 390//604 392//604 360//604
f 390//265 393//265 392//265
f 212//605 390//605 389//605
f 393//606 390//606 212//606
f 393//607 221//607 356//607
f 356//608 358//608 393//608
f 221//609 393//609 394//609
f 393//198 216//198 394//198
f 212//280 216//280 393//280
f 358//610 392//610 393//610
f 221//261 394//261 216//261
f 392//611 358//611 360//611
f 396//612 212//612 389//612
f 387//613 395//613 389//613
f 389//614 395//614 396//614
f 396//615 397//615 398//615
f 397//616 396//616 399//616
f 396//617 398//617 212//617
f 395//612 399//612 396//612
f 387//618 397//618 399//618
f 387//619 399//619 395//619
f 400//620 165//620 398//620
f 397//621 400//621 398//621
f 210//622 398//622 165//622
f 212//623 398//623 210//623
f 400//624 163//624 165//624
f 387//625 163//625 400//625
f 397//626 387//626 400//626
f 161//627 163//627 387//627
f 386//628 362//628 373//628
f 362//629 386//629 361//629
f 369//630 373//630 362//630
f 372//631 19//631 23//631
f 369//632 362//632 366//632
f 335//633 17//633 20//633
f 401//634 321//634 286//634
f 401//635 402//635 321//635
f 321//636 402//636 317//636
f 321//637 287//637 286//637
f 404//261 187//261 402//261
f 402//261 187//261 403//261
f 317//638 402//638 403//638
f 404//261 402//261 401//261
f 401//639 290//639 404//639
f 291//261 404//261 290//261
f 303//640 405//640 404//640
f 303//261 404//261 291//261
f 405//641 408//641 404//641
f 404//642 408//642 406//642
f 404//643 406//643 407//643
f 404//203 407//203 187//203
f 406//644 408//644 412//644
f 409//645 408//645 405//645
f 409//646 410//646 408//646
f 408//647 410//647 411//647
f 408//648 411//648 412//648
f 413//649 412//649 411//649
f 412//650 413//650 414//650
f 414//651 415//651 412//651
f 406//652 412//652 415//652
f 415//653 416//653 407//653
f 406//654 415//654 407//654
f 414//655 191//655 415//655
f 416//656 415//656 191//656
f 416//657 191//657 188//657
f 188//658 187//658 416//658
f 187//203 407//203 416//203
f 193//261 414//261 413//261
f 190//261 414//261 193//261
f 191//659 414//659 190//659
f 411//660 417//660 413//660
f 193//661 413//661 417//661
f 418//261 193//261 417//261
f 417//261 419//261 418//261
f 420//662 419//662 417//662
f 417//663 422//663 420//663
f 417//664 411//664 421//664
f 417//665 421//665 422//665
f 423//666 422//666 421//666
f 424//667 422//667 423//667
f 424//668 420//668 422//668
f 424//669 423//669 425//669
f 425//670 426//670 424//670
f 426//671 428//671 424//671
f 424//672 427//672 420//672
f 427//673 424//673 428//673
f 428//674 429//674 430//674
f 428//675 431//675 429//675
f 428//676 430//676 427//676
f 431//677 428//677 426//677
f 431//203 100//203 429//203
f 431//171 99//171 100//171
f 99//678 431//678 433//678
f 431//679 434//679 432//679
f 432//164 433//164 431//164
f 431//680 426//680 434//680
f 425//681 409//681 434//681
f 409//682 405//682 434//682
f 425//683 434//683 426//683
f 434//684 405//684 432//684
f 435//685 433//685 432//685
f 435//162 436//162 433//162
f 436//686 113//686 433//686
f 433//687 437//687 103//687
f 433//688 103//688 99//688
f 433//689 113//689 437//689
f 106//123 103//123 437//123
f 437//123 113//123 106//123
f 436//203 438//203 439//203
f 438//203 436//203 435//203
f 113//690 436//690 112//690
f 112//691 436//691 439//691
f 118//692 112//692 439//692
f 438//203 118//203 439//203
f 440//693 438//693 435//693
f 438//694 440//694 443//694
f 438//695 441//695 121//695
f 441//696 438//696 442//696
f 438//697 443//697 442//697
f 118//698 438//698 121//698
f 443//699 303//699 442//699
f 303//700 443//700 440//700
f 303//701 441//701 442//701
f 444//702 121//702 441//702
f 444//703 441//703 303//703
f 121//704 444//704 445//704
f 304//154 445//154 444//154
f 304//154 444//154 303//154
f 123//705 120//705 445//705
f 121//706 445//706 120//706
f 304//707 182//707 445//707
f 182//708 123//708 445//708
f 432//709 440//709 435//709
f 303//710 440//710 405//710
f 405//711 440//711 432//711
f 427//712 430//712 448//712
f 446//713 448//713 430//713
f 430//685 447//685 446//685
f 429//203 100//203 430//203
f 447//164 430//164 100//164
f 449//714 448//714 446//714
f 448//715 449//715 450//715
f 427//716 448//716 451//716
f 450//717 451//717 448//717
f 427//718 451//718 452//718
f 453//719 452//719 451//719
f 454//720 453//720 451//720
f 451//721 455//721 454//721
f 450//722 455//722 451//722
f 224//723 455//723 230//723
f 224//724 223//724 455//724
f 455//725 456//725 454//725
f 456//726 455//726 223//726
f 230//727 455//727 236//727
f 450//728 236//728 455//728
f 456//729 457//729 454//729
f 457//730 456//730 458//730
f 458//731 456//731 223//731
f 457//732 458//732 459//732
f 223//733 459//733 458//733
f 457//734 459//734 460//734
f 214//735 459//735 225//735
f 214//735 460//735 459//735
f 223//736 225//736 459//736
f 462//737 460//737 215//737
f 460//738 214//738 215//738
f 461//739 460//739 419//739
f 460//740 461//740 463//740
f 463//741 457//741 460//741
f 460//742 462//742 419//742
f 464//743 453//743 463//743
f 461//744 464//744 463//744
f 463//745 453//745 457//745
f 465//746 452//746 464//746
f 465//747 464//747 461//747
f 453//748 464//748 452//748
f 466//749 465//749 419//749
f 465//750 466//750 452//750
f 461//751 419//751 465//751
f 419//752 420//752 466//752
f 466//753 420//753 452//753
f 467//754 419//754 462//754
f 215//755 203//755 462//755
f 203//756 467//756 462//756
f 418//757 419//757 467//757
f 193//758 418//758 467//758
f 203//756 202//756 467//756
f 202//759 193//759 467//759
f 454//760 457//760 453//760
f 427//761 452//761 420//761
f 468//762 450//762 449//762
f 450//763 468//763 236//763
f 236//764 468//764 470//764
f 471//765 468//765 449//765
f 468//766 471//766 469//766
f 468//767 469//767 470//767
f 471//768 449//768 469//768
f 475//769 234//769 470//769
f 234//770 236//770 470//770
f 470//771 469//771 473//771
f 472//772 476//772 470//772
f 473//773 472//773 470//773
f 476//774 474//774 470//774
f 470//775 474//775 475//775
f 478//776 476//776 477//776
f 476//777 479//777 477//777
f 478//778 90//778 476//778
f 472//779 479//779 476//779
f 474//780 476//780 90//780
f 479//781 469//781 477//781
f 479//782 472//782 473//782
f 473//783 469//783 479//783
f 478//784 481//784 480//784
f 478//785 480//785 89//785
f 481//786 478//786 477//786
f 90//787 478//787 89//787
f 482//788 480//788 481//788
f 481//789 477//789 482//789
f 485//123 482//123 483//123
f 483//286 482//286 486//286
f 477//790 486//790 482//790
f 480//791 482//791 484//791
f 482//123 485//123 484//123
f 487//203 486//203 449//203
f 486//792 487//792 483//792
f 486//793 469//793 449//793
f 469//794 486//794 477//794
f 489//795 483//795 487//795
f 449//164 488//164 487//164
f 489//796 487//796 488//796
f 490//291 483//291 489//291
f 490//123 489//123 491//123
f 491//797 489//797 492//797
f 492//798 489//798 488//798
f 493//799 491//799 492//799
f 493//800 492//800 488//800
f 494//801 495//801 493//801
f 488//802 494//802 493//802
f 491//803 493//803 495//803
f 495//804 494//804 93//804
f 485//805 495//805 93//805
f 485//806 491//806 495//806
f 494//807 497//807 93//807
f 496//808 497//808 494//808
f 488//809 496//809 494//809
f 497//810 498//810 93//810
f 447//811 498//811 497//811
f 496//812 447//812 497//812
f 447//813 97//813 498//813
f 498//814 97//814 93//814
f 446//203 447//203 496//203
f 449//203 446//203 496//203
f 488//164 449//164 496//164
f 485//815 490//815 491//815
f 490//816 485//816 483//816
f 485//817 93//817 484//817
f 89//818 484//818 91//818
f 93//143 91//143 484//143
f 484//819 89//819 480//819
f 475//820 239//820 234//820
f 474//821 499//821 475//821
f 239//822 475//822 499//822
f 269//823 238//823 499//823
f 269//824 499//824 272//824
f 474//825 272//825 499//825
f 239//826 499//826 238//826
f 90//827 272//827 474//827
f 97//828 447//828 100//828
f 423//829 410//829 425//829
f 409//830 425//830 410//830
f 421//831 410//831 423//831
f 410//832 421//832 411//832
f 314//833 403//833 310//833
f 403//261 187//261 310//261
f 317//834 403//834 314//834
f 286//835 290//835 401//835
f 13//836 319//836 12//836
f 312//837 2//837 311//837
f 2//838 312//838 4//838
f 308//839 4//839 312//839
f 306//840 310//840 304//840
f 304//261 310//261 187//261
f 61//841 308//841 60//841
f 6//842 308//842 61//842
f 4//843 308//843 6//843
f 304//844 187//844 182//844
f 293//261 303//261 291//261
f 300//261 303//261 293//261
f 266//845 279//845 262//845
f 86//846 272//846 90//846
f 272//847 86//847 271//847
f 250//848 245//848 253//848
f 252//849 500//849 248//849
f 500//850 252//850 220//850
f 252//851 221//851 219//851
f 219//852 220//852 252//852
f 246//853 248//853 500//853
f 500//854 502//854 501//854
f 500//855 501//855 246//855
f 502//856 500//856 220//856
f 502//857 220//857 226//857
f 501//858 502//858 226//858
f 503//859 501//859 242//859
f 501//860 503//860 246//860
f 242//861 501//861 226//861
f 241//862 246//862 503//862
f 241//863 503//863 242//863
f 226//864 235//864 242//864
f 235//865 226//865 227//865
f 232//764 228//764 231//764
f 227//866 228//866 232//866
f 209//867 203//867 215//867
f 208//868 212//868 210//868
f 504//869 210//869 165//869
f 206//870 210//870 504//870
f 207//871 206//871 504//871
f 504//872 171//872 207//872
f 504//873 165//873 171//873
f 207//874 168//874 205//874
f 171//875 168//875 207//875
f 168//876 505//876 205//876
f 201//877 205//877 505//877
f 505//878 168//878 170//878
f 505//879 200//879 201//879
f 200//880 505//880 506//880
f 170//881 506//881 505//881
f 195//882 506//882 170//882
f 506//883 195//883 199//883
f 200//884 506//884 199//884
f 180//885 185//885 196//885
f 196//886 195//886 180//886
f 170//887 180//887 195//887
f 179//888 185//888 180//888
f 180//889 170//889 173//889
f 175//203 507//203 129//203
f 507//203 175//203 508//203
f 169//890 508//890 175//890
f 166//891 157//891 508//891
f 157//203 509//203 508//203
f 509//203 507//203 508//203
f 508//892 169//892 166//892
f 509//893 141//893 507//893
f 510//164 509//164 157//164
f 142//894 509//894 510//894
f 509//895 142//895 140//895
f 141//896 509//896 140//896
f 512//897 510//897 511//897
f 511//898 510//898 513//898
f 157//164 155//164 510//164
f 513//899 510//899 155//899
f 510//900 512//900 142//900
f 514//901 513//901 151//901
f 513//202 155//202 151//202
f 514//902 511//902 513//902
f 144//903 514//903 151//903
f 511//904 514//904 515//904
f 144//905 515//905 514//905
f 515//906 512//906 511//906
f 512//907 515//907 143//907
f 144//908 143//908 515//908
f 143//909 142//909 512//909
f 507//910 138//910 129//910
f 138//911 507//911 141//911
f 160//912 154//912 156//912
f 34//913 145//913 148//913
f 145//914 34//914 33//914
f 129//915 138//915 128//915
f 124//155 115//155 116//155
f 37//916 39//916 115//916
f 113//145 108//145 106//145
f 43//917 44//917 110//917
f 44//918 47//918 82//918
f 47//919 46//919 78//919
f 78//920 51//920 74//920
f 46//921 51//921 78//921
f 68//922 67//922 72//922
f 52//923 56//923 69//923
f 53//924 52//924 69//924
f 60//925 64//925 62//925
f 6//926 61//926 5//926
f 57//927 7//927 5//927
f 7//928 57//928 516//928
f 57//929 54//929 516//929
f 516//930 48//930 518//930
f 516//931 54//931 48//931
f 518//932 517//932 516//932
f 516//933 517//933 7//933
f 518//934 42//934 40//934
f 518//935 48//935 42//935
f 517//936 518//936 519//936
f 519//937 518//937 40//937
f 517//938 519//938 26//938
f 40//939 26//939 519//939
f 517//940 27//940 7//940
f 26//941 27//941 517//941
f 40//942 29//942 26//942
f 22//943 31//943 23//943
f 9//944 7//944 27//944
