# Blender 5.0.1
# www.blender.org
mtllib torso_y_link_visual_74.mtl
o i01.torso.full.076_visual.001
v -0.002067 0.000333 -0.029773
v 0.002067 -0.004996 -0.029423
v -0.002678 -0.004393 -0.029372
v 0.002678 -0.000259 -0.029644
v -0.002509 0.004996 0.029322
v -0.003446 -0.000947 0.029713
v 0.002509 -0.001882 0.029774
v 0.003446 0.004061 0.029384
vn -0.0210 -0.0817 -0.9964
vn 0.0209 -0.0493 -0.9986
vn -0.9918 0.1264 -0.0203
vn 0.1254 0.9891 -0.0771
vn -0.9878 0.1544 -0.0196
vn 0.0001 0.0656 0.9978
vn -0.1554 -0.9863 0.0555
vn -0.1254 -0.9907 0.0531
vn 0.9878 -0.1557 0.0008
vn -0.0001 0.0655 0.9979
vn 0.9918 -0.1280 -0.0036
vn 0.1554 0.9851 -0.0741
s 0
usemtl Material.030
f 2//1 3//1 1//1
f 4//2 2//2 1//2
f 3//3 6//3 1//3
f 1//4 5//4 4//4
f 6//5 5//5 1//5
f 6//6 7//6 5//6
f 7//7 6//7 3//7
f 2//8 7//8 3//8
f 8//9 7//9 2//9
f 7//10 8//10 5//10
f 4//11 8//11 2//11
f 5//12 8//12 4//12
