# Blender 5.0.1
# www.blender.org
mtllib torso_y_link_visual_17.mtl
o i01.torso.full.019_visual.001
v 0.256719 0.083205 0.007101
v 0.256719 0.076250 -0.098669
v 0.256719 -0.081559 0.017936
v 0.256719 -0.088514 -0.087834
v 0.185962 0.083205 0.007101
v 0.326988 0.072651 -0.153399
v 0.291296 0.089509 0.102980
v 0.166515 0.092112 0.142568
v 0.291296 -0.075254 0.113814
v 0.326988 -0.092112 -0.142564
v 0.241864 -0.015949 0.125755
v 0.238557 -0.010954 0.126303
v 0.233609 -0.007545 0.127765
v 0.227772 -0.006267 0.129502
v 0.221936 -0.014381 0.023808
v 0.221936 -0.007305 0.131415
v 0.227772 -0.013222 0.023731
v 0.233609 -0.014381 0.023808
v 0.238557 -0.017680 0.024024
v 0.216987 -0.017680 0.024024
v 0.241864 -0.022617 0.024349
v 0.243025 -0.028441 0.024732
v 0.241864 -0.034266 0.025115
v 0.227772 -0.043661 0.025732
v 0.241864 -0.027594 0.126583
v 0.238557 -0.032465 0.127909
v 0.238557 -0.039203 0.025440
v 0.233609 -0.035647 0.129908
v 0.233609 -0.042502 0.025657
v 0.227772 -0.036697 0.131639
v 0.221936 -0.035411 0.133496
v 0.166497 -0.072468 0.153393
v 0.185962 -0.088514 -0.087834
v 0.185962 -0.081559 0.017936
v -0.185960 -0.088467 -0.087837
v -0.142659 -0.054015 0.152177
v -0.166510 -0.072578 0.153399
v 0.148166 0.006619 0.148190
v 0.142659 -0.054015 0.152177
v 0.213681 -0.015376 0.134468
v 0.212520 -0.021159 0.135486
v 0.213681 -0.027025 0.135235
v 0.216987 -0.032023 0.134643
v 0.216987 -0.039203 0.025440
v 0.221936 -0.042502 0.025657
v 0.213681 -0.034266 0.025115
v 0.212520 -0.028441 0.024732
v 0.213681 -0.022617 0.024349
v 0.216987 -0.010502 0.133175
v 0.142659 0.080522 -0.034493
v -0.142659 0.080522 -0.034493
v -0.185963 0.076250 -0.098669
v 0.185962 0.076250 -0.098669
v -0.185963 0.083205 0.007101
v -0.140158 0.092112 0.142568
v -0.148167 0.006619 0.148190
v -0.140500 0.053412 0.145113
v -0.166515 0.092112 0.142568
v -0.291297 0.089509 0.102980
v -0.222747 -0.007326 0.131102
v -0.217798 -0.010532 0.132719
v -0.228583 -0.006291 0.129144
v -0.214492 -0.015378 0.134439
v -0.217798 -0.017680 0.024024
v -0.214492 -0.022617 0.024349
v -0.213331 -0.021148 0.135647
v -0.213331 -0.028441 0.024732
v -0.214492 -0.027017 0.135354
v -0.214492 -0.034266 0.025115
v -0.217798 -0.032034 0.134465
v -0.217798 -0.039203 0.025440
v -0.222747 -0.035418 0.133390
v -0.222747 -0.042502 0.025657
v -0.228583 -0.036702 0.131559
v -0.228583 -0.043661 0.025732
v -0.291297 -0.075254 0.113814
v -0.234420 -0.035647 0.129907
v -0.239368 -0.032463 0.127951
v -0.234420 -0.042502 0.025657
v -0.239368 -0.039203 0.025440
v -0.242675 -0.027596 0.126554
v -0.242675 -0.034266 0.025115
v -0.243836 -0.021788 0.125917
v -0.239368 -0.017680 0.024024
v -0.243836 -0.028441 0.024732
v -0.242675 -0.015939 0.125903
v -0.242675 -0.022617 0.024349
v -0.239368 -0.010958 0.126252
v -0.234420 -0.007558 0.127568
v -0.234420 -0.014381 0.023808
v -0.228583 -0.013222 0.023731
v -0.222747 -0.014381 0.023808
v -0.256719 -0.081559 0.017936
v -0.185963 -0.081559 0.017936
v -0.326988 0.072651 -0.153399
v -0.326988 -0.092112 -0.142564
v -0.256719 -0.088514 -0.087834
v -0.256719 0.076250 -0.098669
v -0.256719 0.083205 0.007101
v 0.140158 0.092112 0.142568
v 0.140500 0.053412 0.145113
v 0.243025 -0.021790 0.125890
vn -0.0000 0.9978 -0.0656
vn -1.0000 -0.0000 -0.0000
vn -0.0000 -0.0656 -0.9978
vn 0.3030 0.0624 0.9509
vn 0.3046 0.0625 0.9504
vn 0.9905 0.0090 0.1373
vn 0.2759 0.0776 0.9581
vn 0.3167 0.0536 0.9470
vn 0.2980 0.0661 0.9523
vn 0.3011 0.0611 0.9516
vn 0.1951 -0.9787 0.0644
vn -0.1951 -0.9787 0.0644
vn -0.0000 0.0657 0.9978
vn -0.0000 0.0655 0.9979
vn -0.5556 -0.8297 0.0546
vn -0.0000 0.0656 0.9978
vn -0.8315 -0.5544 0.0365
vn -0.0004 0.0654 0.9979
vn 0.0001 0.0657 0.9978
vn -0.0002 0.0659 0.9978
vn -0.9808 0.1947 -0.0128
vn -0.8315 0.5544 -0.0365
vn -0.0002 0.0657 0.9978
vn -0.5556 0.8297 -0.0546
vn -0.1951 0.9787 -0.0644
vn 0.2812 0.0196 0.9595
vn 0.1951 0.9787 -0.0644
vn 0.3116 0.0436 0.9492
vn 0.3030 0.0594 0.9511
vn -0.0094 -0.9978 0.0656
vn -0.0001 -0.9978 0.0664
vn -0.0011 -0.9978 0.0668
vn 0.3055 0.0625 0.9501
vn -0.0001 0.0656 0.9978
vn 0.0003 -0.9978 0.0657
vn -0.0000 0.0658 0.9978
vn 0.2394 0.1214 0.9633
vn 0.3368 0.0264 0.9412
vn 0.2827 0.0898 0.9550
vn 0.2906 0.0793 0.9535
vn 0.8315 0.5544 -0.0365
vn 0.5556 0.8297 -0.0546
vn 0.0002 0.0657 0.9978
vn 0.0002 0.0659 0.9978
vn 0.9808 0.1947 -0.0128
vn -0.0001 0.0657 0.9978
vn 0.0001 0.0656 0.9978
vn 0.9808 -0.1947 0.0128
vn 0.0004 0.0654 0.9979
vn 0.8315 -0.5544 0.0365
vn 0.2996 0.0602 0.9521
vn 0.5556 -0.8297 0.0546
vn 0.2912 0.0558 0.9550
vn -0.9932 0.0947 0.0683
vn -0.0000 0.8113 0.5847
vn -0.0012 0.9978 -0.0656
vn -0.0000 0.9978 -0.0664
vn -0.0011 0.9979 -0.0655
vn -0.0000 0.9979 -0.0653
vn 0.9999 -0.0097 -0.0135
vn 0.9932 0.0947 0.0683
vn 0.9858 -0.1639 -0.0366
vn -0.3030 0.0614 0.9510
vn -0.3071 0.0642 0.9495
vn -0.2816 0.0488 0.9583
vn -0.3550 0.0881 0.9307
vn -0.3014 0.0626 0.9514
vn -0.1854 0.1655 0.9686
vn -0.9808 -0.1947 0.0128
vn -0.3357 0.0194 0.9418
vn -0.3172 0.0412 0.9475
vn -0.2751 0.0986 0.9563
vn -0.3081 0.0454 0.9503
vn -0.3030 0.0549 0.9514
vn -0.2724 0.0002 0.9622
vn -0.3220 0.0791 0.9434
vn -0.2987 0.0662 0.9521
vn -0.2465 0.0960 0.9644
vn -0.2761 0.0808 0.9577
vn -0.3118 0.0623 0.9481
vn -0.3144 0.0647 0.9471
vn -0.2948 0.0456 0.9545
vn -0.3095 0.0621 0.9489
vn -0.0000 -0.9978 0.0656
vn 0.0004 -0.9978 0.0661
vn -0.9905 0.0090 0.1373
vn 0.0007 -0.9979 0.0648
vn -0.0001 -0.9978 0.0668
vn 1.0000 -0.0000 -0.0000
vn 0.0068 -0.9979 0.0652
vn 0.0012 0.9978 -0.0656
vn 0.0011 0.9979 -0.0655
vn -0.9999 -0.0097 -0.0135
vn -0.9858 -0.1639 -0.0366
vn 0.3236 0.0886 0.9420
vn 0.2997 0.0557 0.9524
vn 0.2984 0.0541 0.9529
vn 0.3320 0.0876 0.9392
s 0
usemtl Material.027
f 6//1 2//1 1//1
f 4//2 1//2 2//2
f 3//3 5//3 1//3
f 1//2 4//2 3//2
f 5//1 7//1 1//1
f 1//1 7//1 6//1
f 7//1 5//1 8//1
f 7//4 8//4 14//4
f 11//5 9//5 7//5
f 7//6 9//6 10//6
f 10//6 6//6 7//6
f 7//7 12//7 11//7
f 7//8 13//8 12//8
f 7//9 14//9 13//9
f 14//10 8//10 16//10
f 14//11 16//11 15//11
f 15//11 17//11 14//11
f 13//12 14//12 17//12
f 18//13 17//13 15//13
f 17//12 18//12 13//12
f 18//14 15//14 19//14
f 12//15 13//15 18//15
f 18//15 19//15 12//15
f 19//16 20//16 23//16
f 19//14 15//14 20//14
f 11//17 12//17 19//17
f 19//18 22//18 21//18
f 19//17 21//17 11//17
f 19//19 23//19 22//19
f 24//16 23//16 20//16
f 23//20 24//20 27//20
f 22//21 23//21 25//21
f 26//22 25//22 23//22
f 23//22 27//22 26//22
f 27//23 24//23 29//23
f 28//24 26//24 27//24
f 27//24 29//24 28//24
f 30//25 28//25 29//25
f 29//25 24//25 30//25
f 28//26 30//26 9//26
f 31//27 30//27 24//27
f 30//28 31//28 32//28
f 9//29 30//29 32//29
f 33//30 34//30 32//30
f 33//31 32//31 35//31
f 9//32 32//32 34//32
f 40//33 8//33 32//33
f 38//34 32//34 8//34
f 32//35 37//35 35//35
f 32//13 36//13 37//13
f 36//36 32//36 39//36
f 38//34 39//34 32//34
f 40//37 32//37 41//37
f 32//38 42//38 41//38
f 31//39 43//39 32//39
f 43//40 42//40 32//40
f 42//41 43//41 44//41
f 45//42 44//42 43//42
f 43//42 31//42 45//42
f 24//43 44//43 45//43
f 24//27 45//27 31//27
f 46//44 44//44 24//44
f 44//41 46//41 42//41
f 41//45 42//45 46//45
f 46//46 20//46 47//46
f 46//45 47//45 41//45
f 24//47 20//47 46//47
f 40//48 41//48 47//48
f 47//49 20//49 48//49
f 47//48 48//48 40//48
f 49//50 40//50 48//50
f 48//50 20//50 49//50
f 16//51 8//51 49//51
f 16//52 49//52 20//52
f 49//53 8//53 40//53
f 39//54 38//54 50//54
f 39//55 50//55 51//55
f 51//55 36//55 39//55
f 52//56 54//56 51//56
f 53//57 52//57 51//57
f 51//57 50//57 53//57
f 58//58 51//58 54//58
f 58//59 55//59 51//59
f 51//60 55//60 57//60
f 36//61 51//61 56//61
f 51//62 57//62 56//62
f 58//63 59//63 62//63
f 58//1 54//1 59//1
f 58//64 62//64 60//64
f 58//65 60//65 61//65
f 58//66 61//66 63//66
f 63//67 37//67 58//67
f 56//16 58//16 37//16
f 57//16 58//16 56//16
f 55//16 58//16 57//16
f 63//68 66//68 37//68
f 63//17 61//17 64//17
f 64//17 65//17 63//17
f 66//69 63//69 65//69
f 37//70 66//70 68//70
f 65//69 67//69 66//69
f 68//21 66//21 67//21
f 68//71 70//71 37//71
f 67//21 69//21 68//21
f 70//22 68//22 69//22
f 70//72 72//72 37//72
f 69//22 71//22 70//22
f 72//24 70//24 71//24
f 72//73 74//73 37//73
f 71//24 73//24 72//24
f 74//25 72//25 73//25
f 37//74 74//74 76//74
f 73//25 75//25 74//25
f 77//27 74//27 75//27
f 74//75 77//75 76//75
f 75//27 79//27 77//27
f 77//76 78//76 76//76
f 78//42 77//42 79//42
f 79//42 80//42 78//42
f 75//43 80//43 79//43
f 81//41 78//41 80//41
f 80//41 82//41 81//41
f 82//44 80//44 75//44
f 83//45 81//45 82//45
f 82//45 85//45 83//45
f 75//47 84//47 82//47
f 82//46 84//46 85//46
f 86//48 83//48 85//48
f 85//48 87//48 86//48
f 85//49 84//49 87//49
f 88//50 86//50 87//50
f 87//50 84//50 88//50
f 89//52 88//52 84//52
f 89//77 59//77 88//77
f 88//78 59//78 86//78
f 84//52 90//52 89//52
f 62//79 59//79 89//79
f 62//11 89//11 90//11
f 64//14 90//14 84//14
f 92//14 90//14 64//14
f 90//11 91//11 62//11
f 92//13 91//13 90//13
f 92//15 64//15 61//15
f 91//12 92//12 60//12
f 61//15 60//15 92//15
f 60//12 62//12 91//12
f 86//80 59//80 76//80
f 86//81 76//81 83//81
f 75//16 69//16 84//16
f 64//16 84//16 69//16
f 76//82 81//82 83//82
f 78//83 81//83 76//83
f 76//84 93//84 94//84
f 93//84 76//84 96//84
f 37//85 76//85 94//85
f 76//86 59//86 95//86
f 95//86 96//86 76//86
f 96//84 97//84 93//84
f 35//87 97//87 96//87
f 33//88 35//88 96//88
f 96//84 10//84 33//84
f 95//3 10//3 96//3
f 52//16 98//16 97//16
f 97//16 35//16 52//16
f 98//89 93//89 97//89
f 93//89 98//89 99//89
f 99//1 98//1 95//1
f 98//1 52//1 95//1
f 59//1 54//1 99//1
f 95//1 59//1 99//1
f 99//3 94//3 93//3
f 94//3 99//3 54//3
f 95//1 52//1 53//1
f 53//1 6//1 95//1
f 10//3 95//3 6//3
f 54//2 35//2 94//2
f 37//90 94//90 35//90
f 71//23 75//23 73//23
f 69//20 75//20 71//20
f 64//19 69//19 67//19
f 64//18 67//18 65//18
f 56//16 37//16 36//16
f 35//2 54//2 52//2
f 2//16 53//16 33//16
f 53//1 2//1 6//1
f 53//91 50//91 5//91
f 34//89 53//89 5//89
f 53//89 34//89 33//89
f 5//92 50//92 8//92
f 8//59 50//59 100//59
f 50//93 101//93 100//93
f 50//94 38//94 101//94
f 8//16 100//16 101//16
f 8//16 101//16 38//16
f 9//84 34//84 3//84
f 5//3 3//3 34//3
f 33//16 4//16 2//16
f 4//84 33//84 10//84
f 26//95 28//95 9//95
f 25//96 26//96 9//96
f 9//97 102//97 25//97
f 25//21 102//21 22//21
f 11//98 102//98 9//98
f 102//69 11//69 21//69
f 21//69 22//69 102//69
f 20//52 15//52 16//52
f 10//84 9//84 3//84
f 3//84 4//84 10//84
