# Blender 5.0.1
# www.blender.org
mtllib torso_y_link_visual_43.mtl
o i01.torso.full.046_visual.001
v 0.196794 -0.156403 0.013625
v 0.194383 -0.156707 0.009003
v 0.196704 -0.148107 0.139798
v 0.196767 -0.100806 0.009414
v 0.248915 -0.118464 -0.058734
v 0.222222 -0.036649 0.135186
v 0.196804 -0.044004 0.133451
v 0.216438 -0.036088 0.139400
v 0.192505 -0.103838 0.004024
v 0.225321 -0.080884 0.039635
v 0.223190 -0.079219 0.044436
v 0.230348 -0.081007 0.036989
v 0.252696 -0.076408 0.037048
v 0.284756 -0.082433 0.009313
v 0.227627 -0.154496 0.042658
v 0.252280 -0.154537 0.042025
v 0.257852 -0.154211 0.046970
v 0.258174 -0.148096 0.139958
v 0.258502 -0.029176 0.133926
v 0.257953 -0.073464 0.041946
v 0.222812 -0.148032 0.140931
v 0.262192 -0.147696 0.146043
v 0.223355 -0.154130 0.048191
v 0.277494 -0.147639 0.146917
v 0.306635 -0.146489 0.164398
v 0.264139 -0.025667 0.138750
v 0.284408 -0.025577 0.131773
v 0.281995 -0.023694 0.136399
v 0.277387 -0.023329 0.138742
v 0.281957 -0.147795 0.144546
v 0.284393 -0.148093 0.140009
v 0.284586 -0.056188 0.068113
v 0.284816 -0.156391 0.013816
v 0.287172 -0.156688 0.009297
v 0.286770 -0.083909 0.004929
v 0.284224 -0.116660 -0.067737
v 0.291677 -0.084397 0.002168
v 0.314538 -0.156823 0.007240
v 0.313477 -0.081081 0.002078
v 0.291615 -0.156840 0.006983
v 0.319061 -0.078458 0.006178
v 0.326361 -0.104769 -0.051797
v 0.326855 0.245447 0.206527
v 0.326919 0.209885 -0.334368
v 0.326341 -0.215562 -0.306390
v 0.279530 -0.219854 -0.307655
v 0.326353 0.023796 0.221072
v 0.319507 -0.015089 0.141696
v 0.319434 -0.147397 0.150593
v 0.319555 -0.156459 0.012783
v 0.314630 -0.011377 0.150803
v 0.315295 -0.146862 0.158735
v 0.305073 -0.010546 0.155532
v 0.244362 -0.020797 0.156228
v 0.285325 0.031550 0.248940
v 0.286386 0.247373 0.234747
v 0.245889 0.247745 0.240407
v 0.245087 0.025679 0.254828
v 0.152767 0.009774 0.277781
v 0.092927 0.004318 0.292521
v 0.076051 0.250350 0.280031
v 0.144469 -0.049778 0.152940
v 0.150176 -0.046121 0.157534
v 0.079639 -0.076230 0.124313
v 0.116326 -0.148810 0.129101
v 0.117027 -0.069145 0.123788
v 0.008741 -0.086190 0.124813
v 0.048623 -0.045615 0.202554
v -0.000651 -0.060242 0.183886
v 0.032533 0.001049 0.305517
v -0.041930 0.005003 0.322710
v -0.095758 0.252890 0.318657
v -0.096878 0.010753 0.334368
v -0.091359 -0.050863 0.211046
v -0.062031 -0.075614 0.156834
v -0.057427 -0.074439 0.159074
v -0.064536 -0.077783 0.152322
v -0.186074 -0.120043 0.061697
v -0.064466 -0.110586 0.081649
v -0.145092 -0.048847 0.214822
v -0.143797 -0.017566 0.213717
v -0.185041 -0.088975 0.059654
v -0.248740 -0.103443 0.002467
v -0.238094 -0.109434 -0.008630
v -0.326919 -0.066497 0.058176
v -0.185041 -0.028452 0.055675
v -0.158564 -0.151492 -0.085859
v -0.069646 -0.089626 0.059696
v -0.075402 -0.037388 0.172264
v -0.087442 -0.010845 0.228746
v -0.242204 -0.105776 -0.001292
v -0.239196 -0.045722 -0.009751
v -0.244612 -0.042284 -0.003270
v -0.252017 -0.040333 -0.001520
v -0.326919 -0.005975 0.054196
v -0.259422 -0.102448 0.000686
v -0.260271 -0.039908 -0.003995
v -0.265942 -0.043050 -0.012997
v -0.265742 -0.104956 -0.007918
v -0.326919 -0.129014 -0.087337
v -0.264839 -0.108635 -0.016261
v -0.260275 -0.111833 -0.022185
v -0.263452 -0.047776 -0.023215
v -0.326919 -0.068492 -0.091316
v -0.257328 -0.050646 -0.027599
v -0.248771 -0.052108 -0.028410
v -0.249773 -0.114220 -0.024526
v -0.240577 -0.113304 -0.018898
v -0.238093 -0.048769 -0.017124
v -0.242204 -0.051138 -0.024552
v -0.158564 -0.090970 -0.089839
v 0.045748 -0.078588 0.058970
v 0.072225 -0.136084 -0.086871
v -0.043170 -0.150308 -0.085938
v 0.083622 -0.078566 0.048559
v 0.044631 -0.191032 -0.210061
v -0.050929 -0.178138 -0.149395
v 0.098939 -0.163945 -0.163138
v 0.115112 -0.099682 -0.013345
v 0.130067 -0.031220 0.132824
v 0.229364 -0.076039 -0.025843
v 0.177955 -0.057195 0.045650
v 0.145434 -0.135646 -0.117939
v 0.164898 -0.159711 -0.190631
v 0.088597 -0.223646 -0.316841
v 0.162527 -0.238308 -0.306328
v 0.087564 -0.254715 -0.314801
v 0.007695 -0.229876 -0.305910
v 0.161821 -0.207604 -0.308502
v 0.225004 -0.226505 -0.306870
v 0.224632 -0.195637 -0.308904
v 0.259947 -0.115124 -0.130342
v 0.306391 -0.149832 -0.226693
v 0.280370 -0.188376 -0.309734
v 0.306400 -0.184167 -0.308456
v 0.306400 0.209885 -0.334368
v 0.306400 0.226511 -0.081521
v 0.306400 0.200194 -0.079791
v 0.306401 0.209905 0.067887
v 0.227550 0.206906 0.022271
v 0.214631 0.202212 -0.049104
v 0.306401 -0.009942 0.082343
v 0.306366 -0.071159 -0.048700
v 0.268779 0.017734 0.158154
v 0.246491 -0.005724 0.118227
v 0.306011 0.054623 0.215358
v 0.306011 0.245172 0.202827
v 0.285641 0.246079 0.216609
v 0.306401 0.236221 0.066156
v 0.285641 0.061778 0.228727
v 0.244434 0.055520 0.234891
v 0.244476 0.246451 0.222262
v 0.071286 0.249068 0.262074
v 0.147740 0.039209 0.258179
v 0.077618 -0.045097 0.125477
v 0.089405 0.033959 0.272440
v 0.056678 -0.013971 0.201124
v 0.174407 0.000276 0.176106
v 0.003003 -0.040608 0.159761
v 0.025782 0.030826 0.285904
v -0.044770 0.034284 0.301976
v -0.103362 0.040628 0.314179
v -0.103362 0.251582 0.300307
v -0.013052 -0.069043 0.100348
v 0.227550 0.233222 0.020541
v 0.214631 0.228529 -0.050834
v 0.209542 0.264986 0.021765
v 0.195958 0.260326 -0.049106
v 0.177285 0.202712 -0.041500
v 0.177285 0.260576 -0.045304
v 0.191534 0.207339 0.028865
v 0.191534 0.265202 0.025062
v 0.006223 -0.261014 -0.303831
v -0.074215 -0.234134 -0.302424
v -0.075247 -0.265202 -0.300381
v -0.118764 -0.197009 -0.198264
v -0.141488 -0.204952 -0.141279
v -0.140455 -0.173884 -0.143323
v -0.120643 -0.226886 -0.194079
v -0.034444 -0.189041 -0.104729
v -0.159735 -0.182102 -0.083229
v -0.084792 -0.166273 -0.044334
v -0.063795 -0.141602 0.010097
v -0.057893 -0.143451 0.005413
v -0.017990 -0.140982 0.005352
v -0.014216 -0.156735 0.008578
v 0.002063 -0.137245 0.009933
v -0.012116 -0.138518 0.010045
v -0.018703 -0.156885 0.006305
v -0.016397 -0.146552 0.163407
v -0.057969 -0.156880 0.006371
v -0.063313 -0.156630 0.010173
v -0.057884 -0.146535 0.163702
v -0.062277 -0.146695 0.161261
v -0.064577 -0.147000 0.156630
v -0.011996 -0.146959 0.157248
v -0.016465 -0.073147 0.158281
v -0.012018 -0.075375 0.152697
v 0.001343 -0.089907 0.117770
v 0.003789 -0.087498 0.122448
v 0.001534 -0.149188 0.123351
v 0.006914 -0.148845 0.128571
v 0.005611 -0.156826 0.007230
v 0.001659 -0.156439 0.013083
v 0.047625 -0.156874 0.006474
v 0.054101 -0.150426 0.104524
v 0.008052 -0.138752 0.005200
v 0.040219 -0.162003 -0.061697
v 0.048811 -0.132908 0.005136
v 0.053453 -0.156591 0.010743
v 0.054061 -0.130011 0.010668
v 0.060100 -0.086866 0.107164
v 0.095328 -0.083350 0.101932
v 0.096084 -0.122217 0.010923
v 0.054347 -0.089933 0.102195
v 0.102759 -0.160783 -0.085184
v 0.102958 -0.123640 0.004391
v 0.048779 -0.205909 -0.176605
v 0.051405 -0.227522 -0.228942
v 0.127015 -0.118388 0.004856
v 0.158592 -0.205330 -0.222202
v 0.098527 -0.123555 0.006618
v 0.102700 -0.156864 0.006624
v 0.098278 -0.156704 0.009048
v 0.096033 -0.156416 0.013425
v 0.095665 -0.150419 0.104632
v 0.093245 -0.150124 0.109122
v 0.089693 -0.082020 0.106923
v 0.088746 -0.149967 0.111505
v 0.058121 -0.150027 0.110601
v 0.125907 -0.156841 0.006962
v 0.123054 -0.148997 0.126258
v 0.130760 -0.156483 0.012412
v 0.128000 -0.149312 0.121474
v 0.125183 -0.069227 0.119473
v 0.130779 -0.149791 0.114178
v 0.130510 -0.071641 0.111196
v 0.130890 -0.115129 0.010566
v 0.144244 -0.112031 0.010921
v 0.145211 -0.156597 0.010693
v 0.146524 -0.113312 0.006270
v 0.144002 -0.146930 0.157689
v 0.148492 -0.146544 0.163559
v 0.200660 -0.147696 0.146010
v 0.150970 -0.156857 0.006721
v 0.189844 -0.156844 0.006725
v 0.151331 -0.113244 0.003771
v 0.217557 -0.147664 0.146533
v 0.201520 -0.040091 0.139256
v 0.011562 -0.214743 -0.189136
v -0.011795 -0.156447 0.012961
vn 0.8870 -0.0344 -0.4604
vn -0.0000 -0.9978 0.0656
vn 1.0000 0.0005 0.0007
vn 1.0000 -0.0010 0.0001
vn 0.2075 -0.8966 0.3911
vn 0.1776 -0.9111 0.3720
vn 0.1716 -0.8912 0.4199
vn 0.2122 -0.8872 0.4096
vn 0.2338 -0.8840 0.4048
vn 0.7920 -0.0293 -0.6098
vn 0.1924 -0.8930 0.4069
vn 0.2012 -0.8944 0.3995
vn -0.4661 -0.0509 -0.8833
vn 0.0157 -0.0636 -0.9978
vn 0.1832 -0.8952 0.4062
vn 0.1736 -0.9052 0.3879
vn -0.0257 -0.0759 -0.9968
vn 0.6646 -0.0510 -0.7455
vn 0.0001 -0.9978 0.0656
vn 0.8350 -0.0302 -0.5494
vn 1.0000 -0.0030 -0.0045
vn 1.0000 -0.0015 -0.0034
vn -0.0003 -0.9978 0.0657
vn -1.0000 -0.0025 -0.0057
vn -0.7922 -0.0498 -0.6083
vn -0.9166 -0.0220 -0.3992
vn 0.0572 -0.0605 -0.9965
vn 0.6687 -0.0550 -0.7415
vn 0.1874 -0.8855 0.4252
vn 0.1557 -0.8839 0.4409
vn 0.1519 -0.8901 0.4298
vn 0.1559 -0.8824 0.4440
vn 0.0110 -0.0656 -0.9978
vn -0.4561 -0.0588 -0.8880
vn -0.4701 -0.0577 -0.8807
vn -0.8814 -0.0307 -0.4713
vn -0.8913 -0.0303 -0.4525
vn -1.0000 -0.0001 -0.0028
vn -1.0000 -0.0010 -0.0033
vn -0.8871 -0.0325 -0.4604
vn -0.9117 -0.0257 -0.4101
vn -0.4938 -0.0548 -0.8679
vn 0.2065 -0.8947 0.3960
vn 0.1368 -0.9049 0.4031
vn 0.0113 -0.0663 -0.9977
vn 0.0062 -0.0679 -0.9977
vn -0.4628 -0.0584 -0.8845
vn 0.1393 -0.9047 0.4027
vn 0.6050 -0.0457 -0.7949
vn 0.1123 -0.8994 0.4223
vn 0.0959 -0.9025 0.4198
vn 1.0000 -0.0022 0.0011
vn 1.0000 -0.0016 0.0002
vn 1.0000 -0.0013 0.0005
vn 0.0731 -0.9145 0.3980
vn 0.1100 -0.9138 0.3909
vn 0.1926 -0.8877 0.4182
vn 0.0961 -0.9018 0.4214
vn 0.8863 0.0306 0.4622
vn 1.0000 -0.0005 0.0009
vn 1.0000 0.0058 -0.0060
vn 0.1186 -0.8957 0.4286
vn 0.5481 0.0516 0.8348
vn 0.4470 0.0633 0.8923
vn 0.8918 0.0308 0.4513
vn 0.1329 -0.8950 0.4258
vn 0.0005 0.0651 0.9979
vn 0.1224 -0.8949 0.4292
vn 0.1549 -0.8880 0.4329
vn 0.1907 -0.8885 0.4174
vn 0.5729 0.0510 0.8181
vn 0.1387 0.0643 0.9882
vn 0.1354 0.0637 0.9887
vn 0.5679 0.0526 0.8214
vn 0.2531 -0.8758 0.4110
vn 0.2307 0.0622 0.9710
vn 0.2427 -0.8817 0.4046
vn 0.1830 -0.8922 0.4128
vn 0.2331 0.0652 0.9703
vn 0.2277 0.0635 0.9717
vn 0.1814 -0.8922 0.4136
vn 0.2395 -0.8824 0.4050
vn -0.0021 0.0648 0.9979
vn 0.0014 0.0665 0.9978
vn 0.1742 -0.8879 0.4258
vn 0.1300 -0.9048 0.4056
vn 0.1648 -0.8946 0.4154
vn 0.1111 -0.9033 0.4144
vn 0.1062 -0.8993 0.4242
vn 0.1402 -0.8934 0.4268
vn 0.0534 -0.8975 0.4377
vn 0.2276 0.0596 0.9719
vn 0.2067 0.0637 0.9763
vn 0.0369 -0.9001 0.4340
vn 0.2198 0.0636 0.9735
vn 0.2134 0.0623 0.9750
vn 0.0012 -0.8945 0.4470
vn 0.0236 -0.9045 0.4257
vn 0.0200 -0.9054 0.4242
vn 0.0363 -0.9009 0.4324
vn 0.0114 -0.9070 0.4210
vn -0.0043 -0.9063 0.4226
vn 0.0018 -0.9078 0.4194
vn -0.0022 -0.8946 0.4469
vn -0.9348 0.0511 0.3515
vn -0.9702 0.0485 0.2372
vn -0.9702 0.0479 0.2374
vn -0.1189 -0.9230 0.3660
vn -0.1478 -0.9071 0.3941
vn -0.9821 0.0203 -0.1874
vn -0.1247 -0.9196 0.3724
vn -0.1361 -0.9150 0.3799
vn -0.0000 0.0656 0.9978
vn 0.0053 0.9072 -0.4207
vn 0.0042 0.9068 -0.4215
vn 0.0090 0.9057 -0.4237
vn -0.5104 -0.0461 -0.8587
vn -0.8772 -0.0236 -0.4796
vn -0.7790 -0.0490 -0.6251
vn 0.1473 0.9195 -0.3646
vn 0.1538 0.9161 -0.3704
vn -0.2478 -0.0739 -0.9660
vn 0.1494 0.9187 -0.3657
vn 0.1551 0.9203 -0.3590
vn 0.1594 -0.0540 -0.9857
vn 0.2833 -0.0677 -0.9566
vn 0.1202 0.9113 -0.3938
vn 0.8517 -0.0401 -0.5225
vn 0.8101 -0.0328 -0.5854
vn -0.1431 -0.9112 0.3863
vn -0.1494 -0.9085 0.3903
vn -0.1592 -0.9102 0.3823
vn 0.9947 0.0116 0.1025
vn -0.1405 -0.9124 0.3844
vn 0.8040 0.0494 0.5926
vn 0.9721 0.0047 0.2347
vn 0.1362 0.9053 -0.4024
vn 0.1228 0.9118 -0.3918
vn 0.5947 0.0424 0.8029
vn 0.1196 0.9144 -0.3867
vn 0.1044 0.0604 0.9927
vn 0.2330 0.0746 0.9696
vn -0.1261 -0.9198 0.3715
vn -0.1262 -0.9197 0.3717
vn -0.5254 0.0616 0.8486
vn -0.1314 -0.9218 0.3648
vn -0.1211 -0.9188 0.3756
vn -0.9741 0.0313 0.2238
vn -0.5125 0.0645 0.8562
vn -0.8775 0.0206 0.4791
vn 0.1087 0.9044 -0.4125
vn 0.1455 0.9165 -0.3728
vn 0.1851 0.9252 -0.3312
vn 0.2033 0.9125 -0.3550
vn -0.0000 -0.0656 -0.9978
vn 0.1517 0.9179 -0.3667
vn 0.1251 0.9111 -0.3927
vn -0.1159 0.9148 -0.3870
vn -0.0000 -0.0655 -0.9979
vn -0.1053 0.9185 -0.3812
vn -0.1293 0.9166 -0.3784
vn -0.1288 0.9161 -0.3798
vn -0.1189 0.9164 -0.3821
vn -0.1274 0.9164 -0.3794
vn -0.1868 0.8969 -0.4010
vn -0.2326 0.8897 -0.3929
vn -0.2270 0.8989 -0.3749
vn -0.2274 0.8888 -0.3978
vn -0.1946 0.9089 -0.3689
vn -0.2414 0.9001 -0.3626
vn -0.1846 0.9172 -0.3531
vn -0.2258 0.9131 -0.3395
vn 0.1270 -0.0692 -0.9895
vn 0.1274 -0.0672 -0.9896
vn -0.1291 -0.0607 -0.9898
vn -0.1171 0.9353 -0.3339
vn -0.1600 0.9237 -0.3480
vn -0.1588 0.9161 -0.3681
vn 0.0047 -0.0705 -0.9975
vn 0.0061 -0.0657 -0.9978
vn -0.1764 0.9135 -0.3666
vn -0.0064 -0.0658 -0.9978
vn -0.0063 -0.0657 -0.9978
vn -0.1902 0.9085 -0.3720
vn -0.1219 0.9136 -0.3878
vn -0.1249 0.9143 -0.3853
vn 0.0598 -0.0674 -0.9959
vn -0.1290 0.9143 -0.3840
vn 0.0312 -0.0459 -0.9985
vn 0.0001 -0.0656 -0.9978
vn -1.0000 -0.0000 -0.0001
vn -0.0000 0.9978 -0.0656
vn 0.0002 0.9978 -0.0656
vn -1.0000 -0.0000 -0.0000
vn -0.3178 -0.0622 -0.9461
vn -1.0000 0.0002 0.0002
vn -1.0000 0.0001 -0.0002
vn -0.2078 0.8863 -0.4140
vn -0.1653 0.9179 -0.3608
vn -0.1534 0.9038 -0.3995
vn -0.1728 0.9049 -0.3890
vn -0.1988 0.8782 -0.4351
vn -0.2143 0.8785 -0.4270
vn -0.1876 0.8890 -0.4176
vn -1.0000 -0.0002 -0.0028
vn -0.5612 -0.0543 -0.8259
vn -0.0430 0.8521 -0.5215
vn -0.1379 -0.0653 -0.9883
vn -0.2017 0.8518 -0.4834
vn -0.1363 -0.0650 -0.9885
vn -0.0007 0.9975 -0.0712
vn -0.0012 0.9975 -0.0709
vn -0.2245 -0.0637 -0.9724
vn -0.0013 0.9975 -0.0710
vn -0.2234 -0.0643 -0.9726
vn -0.0008 0.9975 -0.0711
vn -0.2313 -0.0663 -0.9706
vn -0.2572 0.8381 -0.4811
vn -0.1649 0.8696 -0.4653
vn -0.2423 0.8718 -0.4258
vn -0.1951 0.8531 -0.4839
vn -0.1633 0.8698 -0.4657
vn -0.2900 0.8452 -0.4488
vn -0.2435 0.8858 -0.3951
vn -0.1334 0.9030 -0.4085
vn -0.0607 0.8732 -0.4835
vn -0.1485 0.8510 -0.5038
vn -0.2245 -0.0594 -0.9727
vn -0.0699 0.8669 -0.4935
vn -0.2036 -0.0642 -0.9769
vn -0.0418 0.8726 -0.4866
vn -0.1052 0.8912 -0.4412
vn -0.2101 -0.0642 -0.9756
vn -0.0153 0.8552 -0.5181
vn -0.2143 -0.0653 -0.9746
vn -0.0011 0.9975 -0.0706
vn -0.9242 0.0251 0.3812
vn -0.9343 0.0369 0.3547
vn 0.0339 0.8588 -0.5111
vn -0.9397 0.0265 0.3410
vn -0.1290 0.9076 -0.3995
vn -0.0306 0.9048 -0.4248
vn -0.0977 0.9303 -0.3535
vn -0.1272 0.9058 -0.4041
vn -0.0915 0.9339 -0.3455
vn -0.0265 0.9063 -0.4219
vn -0.1806 0.8966 -0.4043
vn -0.0957 0.8807 -0.4640
vn -0.0016 0.9979 -0.0654
vn -0.5016 0.0568 0.8633
vn 0.8412 0.5046 -0.1944
vn 0.8516 0.4900 -0.1864
vn -0.3177 -0.0622 -0.9461
vn -0.1999 -0.0643 -0.9777
vn -0.9802 0.0130 0.1976
vn 0.1805 0.0645 0.9815
vn -0.5016 0.0567 0.8633
vn -0.0037 0.9975 -0.0710
vn -0.0009 0.9976 -0.0693
vn -0.2436 0.8847 -0.3974
vn -0.1767 0.9038 -0.3898
vn 0.1752 -0.9104 0.3748
vn 0.1170 -0.9131 0.3905
vn -0.1289 -0.0600 -0.9898
vn -0.0391 -0.0647 -0.9971
vn -0.0631 0.9403 -0.3345
vn -0.0919 0.9347 -0.3434
vn -0.0389 -0.0643 -0.9972
vn -0.9188 0.0046 -0.3946
vn -0.0154 0.9397 -0.3415
vn -0.9292 0.0067 -0.3696
vn -0.9292 0.0066 -0.3696
vn -0.9193 0.0027 -0.3936
vn 0.0180 0.9241 -0.3818
vn 0.0423 -0.9340 0.3547
vn 0.0240 -0.9287 0.3701
vn -0.2504 -0.9251 0.2854
vn 0.0012 -0.9270 0.3750
vn 0.0459 -0.9164 0.3977
vn 0.0325 -0.9150 0.4022
vn 0.0575 -0.9188 0.3904
vn 0.0556 -0.9181 0.3925
vn -0.0093 -0.9198 0.3922
vn 0.0049 -0.9149 0.4036
vn 0.4527 -0.0735 -0.8886
vn 0.6266 -0.0095 -0.7793
vn 0.0857 -0.9223 0.3769
vn 0.0823 -0.9178 0.3884
vn 0.0022 -0.0599 -0.9982
vn -0.0017 -0.0711 -0.9975
vn -0.5805 -0.0547 -0.8124
vn -0.8961 0.0281 0.4430
vn -0.4866 0.0560 0.8718
vn -0.8804 0.0325 0.4731
vn -0.9995 -0.0321 -0.0065
vn -0.9999 -0.0086 -0.0056
vn -1.0000 0.0005 -0.0012
vn -0.4490 0.0601 0.8915
vn 0.0071 0.0640 0.9979
vn -0.6260 -0.0240 -0.7794
vn 0.8142 0.0371 0.5794
vn -0.0005 -0.9978 0.0656
vn 0.7899 0.0434 0.6116
vn 0.0171 0.0697 0.9974
vn 0.0675 -0.9071 0.4155
vn 0.0840 -0.9082 0.4100
vn 1.0000 0.0003 -0.0008
vn 0.0632 -0.9126 0.4039
vn -1.0000 -0.0037 -0.0051
vn 0.0850 -0.9121 0.4010
vn 0.1087 -0.9057 0.4097
vn -0.8937 0.0392 0.4469
vn -0.6971 0.0360 0.7161
vn -0.0006 -0.9978 0.0656
vn -0.9998 0.0207 -0.0025
vn -0.8288 -0.0736 -0.5547
vn -0.0180 -0.1092 -0.9939
vn -0.6207 -0.0042 -0.7841
vn 0.0065 -0.0561 -0.9984
vn 0.1165 -0.9194 0.3756
vn 0.1318 -0.9150 0.3814
vn 0.0773 -0.9176 0.3899
vn 0.5916 -0.0741 -0.8028
vn 0.7301 -0.0186 -0.6831
vn 0.0989 -0.9170 0.3865
vn 1.0000 -0.0041 -0.0013
vn 0.9997 -0.0229 -0.0054
vn 0.1492 -0.9061 0.3958
vn 0.1408 -0.9071 0.3968
vn 0.1657 -0.9064 0.3885
vn 0.1667 -0.9110 0.3772
vn 0.1582 -0.9139 0.3738
vn 0.1721 -0.9101 0.3770
vn 0.1907 -0.9069 0.3756
vn 0.1541 -0.9191 0.3627
vn 0.1153 -0.9161 0.3841
vn 0.1666 -0.9157 0.3656
vn 0.1947 -0.9066 0.3744
vn 0.1948 -0.9067 0.3742
vn 0.1657 -0.9112 0.3772
vn -0.4814 -0.0605 -0.8744
vn -0.4493 -0.0564 -0.8916
vn -0.8732 -0.0291 -0.4865
vn -0.8902 -0.0319 -0.4544
vn -1.0000 -0.0052 -0.0037
vn -1.0000 0.0009 -0.0087
vn -0.8807 -0.0235 -0.4732
vn -0.4688 -0.0529 -0.8817
vn -0.6697 -0.0588 -0.7403
vn 0.0029 -0.0673 -0.9977
vn 0.0295 -0.0552 -0.9980
vn 0.8346 -0.0246 -0.5503
vn 0.6710 -0.0612 -0.7390
vn 0.1507 -0.8996 0.4098
vn 0.0146 -0.0672 -0.9976
vn 0.7475 -0.0578 -0.6618
vn 0.0314 -0.0556 -0.9980
vn 0.6959 0.0424 0.7169
vn 0.8458 0.0430 0.5318
vn 0.9348 0.0168 0.3549
vn 1.0000 -0.0029 0.0050
vn 0.1984 -0.8994 0.3894
vn 0.2119 -0.8931 0.3969
vn 1.0000 0.0034 -0.0004
vn 0.2288 -0.8917 0.3905
vn -0.8996 -0.0173 -0.4363
vn -0.9997 -0.0217 -0.0068
vn 0.2112 -0.9108 0.3546
vn 0.1995 -0.9032 0.3800
vn -1.0000 0.0048 -0.0005
vn -0.7949 0.0334 0.6059
vn -0.0000 -0.9979 0.0655
vn 0.0001 -0.9978 0.0659
vn -0.6478 0.0564 0.7597
vn -0.0053 0.0600 0.9982
vn 0.0001 -0.0675 -0.9977
vn 0.0003 -0.9979 0.0655
vn -0.5684 -0.0665 -0.8200
vn -0.4600 -0.0562 -0.8861
vn 0.2027 -0.8976 0.3914
vn 0.2068 -0.8940 0.3976
vn 0.0180 -0.0518 -0.9985
vn 0.2078 -0.9034 0.3750
vn 0.4491 -0.0680 -0.8909
vn -0.0029 -0.9978 0.0657
vn 0.8440 -0.0335 -0.5353
vn -0.0001 -0.9978 0.0664
vn 0.0310 -0.0629 -0.9975
vn 0.7899 -0.0447 -0.6116
vn 0.2332 -0.8835 0.4062
vn 0.0267 -0.0635 -0.9976
vn -0.7301 -0.0391 -0.6822
vn -0.5914 -0.0574 -0.8043
vn 0.8342 -0.0272 -0.5507
vn 0.4673 0.0625 0.8819
vn 0.2035 -0.8929 0.4016
vn 0.3900 0.0579 0.9190
vn 0.1480 -0.9049 0.3991
vn 0.1927 -0.9105 0.3659
vn 0.1592 -0.9166 0.3668
vn 0.1672 -0.9174 0.3610
vn 0.0889 -0.9191 0.3840
vn 0.0729 -0.9261 0.3702
vn 0.1186 -0.9311 0.3449
vn 0.0983 -0.9271 0.3616
vn 0.0633 -0.9265 0.3708
vn 0.1315 -0.9261 0.3537
vn 0.1051 -0.9339 0.3416
vn 0.0003 -0.9978 0.0656
vn -0.0049 0.0600 0.9982
vn -0.4442 0.0665 0.8934
vn 0.0460 -0.9119 0.4079
vn 0.0368 -0.9013 0.4316
vn 0.9998 0.0179 0.0002
vn 0.8753 -0.0623 -0.4795
vn -0.9526 0.0117 -0.3040
vn -0.9526 0.0103 -0.3042
vn -0.9820 0.0214 -0.1876
vn 0.0201 0.9337 -0.3575
vn -0.0097 0.9162 -0.4006
vn -0.9900 -0.0196 -0.1400
vn 0.1410 0.9222 -0.3601
vn 0.1227 0.9118 -0.3918
vn -0.1499 -0.9078 0.3917
vn -0.0032 0.0633 0.9980
vn 0.7421 -0.0519 -0.6682
vn 0.1483 -0.9042 0.4006
vn 0.1564 -0.8900 0.4284
vn 0.1879 -0.8967 0.4008
vn -1.0000 -0.0057 -0.0080
vn 0.6945 -0.0455 -0.7180
vn 0.1569 -0.9118 0.3795
s 0
usemtl Material.030
f 2//1 4//1 1//1
f 1//3 4//3 3//3
f 3//4 4//4 7//4
f 12//5 4//5 5//5
f 9//6 5//6 4//6
f 11//7 6//7 4//7
f 4//8 6//8 8//8
f 4//9 8//9 7//9
f 4//10 2//10 9//10
f 10//11 4//11 12//11
f 11//12 4//12 10//12
f 15//13 10//13 12//13
f 16//14 12//14 13//14
f 12//15 14//15 13//15
f 14//16 12//16 5//16
f 12//17 16//17 15//17
f 13//18 17//18 16//18
f 18//20 19//20 22//20
f 18//21 20//21 19//21
f 17//22 20//22 18//22
f 11//24 23//24 21//24
f 10//25 15//25 23//25
f 23//26 11//26 10//26
f 26//27 24//27 22//27
f 22//28 19//28 26//28
f 20//29 26//29 19//29
f 27//30 28//30 26//30
f 27//31 26//31 20//31
f 28//32 29//32 26//32
f 29//33 24//33 26//33
f 28//34 24//34 29//34
f 24//35 28//35 30//35
f 28//36 31//36 30//36
f 31//37 28//37 27//37
f 32//38 31//38 27//38
f 14//38 31//38 32//38
f 14//39 33//39 31//39
f 35//40 34//40 33//40
f 33//41 14//41 35//41
f 37//42 34//42 35//42
f 36//43 35//43 14//43
f 35//44 36//44 37//44
f 37//45 38//45 40//45
f 39//46 38//46 37//46
f 34//47 37//47 40//47
f 37//48 36//48 39//48
f 38//49 39//49 41//49
f 39//50 42//50 41//50
f 42//51 39//51 36//51
f 47//52 42//52 43//52
f 42//53 44//53 43//53
f 42//54 45//54 44//54
f 42//55 46//55 45//55
f 42//56 36//56 46//56
f 47//57 48//57 42//57
f 42//58 48//58 41//58
f 51//59 49//59 48//59
f 50//60 48//60 49//60
f 48//61 50//61 41//61
f 47//62 51//62 48//62
f 51//63 25//63 52//63
f 25//64 51//64 53//64
f 49//65 51//65 52//65
f 47//66 53//66 51//66
f 25//67 53//67 54//67
f 53//68 47//68 55//68
f 53//69 55//69 54//69
f 55//70 58//70 54//70
f 55//71 43//71 56//71
f 55//72 56//72 57//72
f 58//73 55//73 57//73
f 47//74 43//74 55//74
f 58//75 59//75 54//75
f 59//76 58//76 57//76
f 54//77 59//77 63//77
f 59//78 60//78 64//78
f 60//79 59//79 61//79
f 59//80 57//80 61//80
f 59//81 64//81 62//81
f 63//82 59//82 62//82
f 65//83 64//83 67//83
f 65//84 66//84 64//84
f 62//85 64//85 66//85
f 68//86 67//86 64//86
f 64//87 60//87 68//87
f 67//88 68//88 69//88
f 68//89 70//89 69//89
f 60//90 70//90 68//90
f 70//91 71//91 69//91
f 70//92 61//92 71//92
f 70//93 60//93 61//93
f 71//94 74//94 69//94
f 71//95 61//95 72//95
f 71//96 72//96 73//96
f 71//97 73//97 74//97
f 74//98 75//98 76//98
f 74//99 77//99 75//99
f 74//100 76//100 69//100
f 79//101 77//101 74//101
f 74//102 80//102 78//102
f 79//103 74//103 78//103
f 73//104 80//104 74//104
f 73//105 81//105 80//105
f 81//106 82//106 80//106
f 80//107 82//107 78//107
f 82//108 83//108 91//108
f 82//109 85//109 83//109
f 82//110 87//110 78//110
f 87//111 82//111 84//111
f 82//112 91//112 84//112
f 82//113 86//113 85//113
f 88//113 86//113 82//113
f 88//114 82//114 89//114
f 90//115 82//115 81//115
f 89//116 82//116 90//116
f 91//117 83//117 93//117
f 91//118 92//118 84//118
f 93//119 92//119 91//119
f 86//120 92//120 93//120
f 86//121 93//121 94//121
f 83//122 94//122 93//122
f 86//123 94//123 95//123
f 94//124 97//124 95//124
f 83//125 96//125 94//125
f 96//126 97//126 94//126
f 97//127 98//127 95//127
f 97//128 99//128 98//128
f 96//129 99//129 97//129
f 101//130 99//130 100//130
f 99//131 85//131 100//131
f 96//132 85//132 99//132
f 99//133 101//133 98//133
f 102//134 101//134 100//134
f 101//135 102//135 103//135
f 98//136 101//136 103//136
f 105//137 104//137 103//137
f 103//138 104//138 98//138
f 102//139 105//139 103//139
f 106//140 104//140 105//140
f 107//141 106//141 105//141
f 107//142 105//142 102//142
f 87//143 107//143 100//143
f 107//144 102//144 100//144
f 107//145 108//145 106//145
f 87//146 108//146 107//146
f 87//147 84//147 108//147
f 84//148 109//148 108//148
f 108//149 110//149 106//149
f 109//150 110//150 108//150
f 111//151 106//151 110//151
f 111//152 110//152 109//152
f 112//153 113//153 111//153
f 112//154 111//154 86//154
f 87//155 111//155 113//155
f 87//155 104//155 111//155
f 111//156 109//156 86//156
f 111//157 104//157 106//157
f 113//158 117//158 114//158
f 87//159 113//159 114//159
f 115//160 113//160 112//160
f 119//161 113//161 115//161
f 118//162 116//162 113//162
f 113//163 116//163 117//163
f 119//164 118//164 113//164
f 120//165 119//165 115//165
f 122//166 119//166 120//166
f 121//167 123//167 119//167
f 122//168 121//168 119//168
f 123//169 118//169 119//169
f 121//170 124//170 123//170
f 124//171 125//171 123//171
f 123//172 125//172 118//172
f 127//173 125//173 126//173
f 126//174 125//174 129//174
f 127//175 128//175 125//175
f 125//176 128//176 116//176
f 118//177 125//177 116//177
f 124//178 129//178 125//178
f 126//179 129//179 130//179
f 130//180 129//180 131//180
f 131//181 129//181 124//181
f 130//182 131//182 46//182
f 46//183 131//183 134//183
f 131//184 124//184 132//184
f 133//185 131//185 132//185
f 133//186 134//186 131//186
f 46//187 134//187 135//187
f 135//188 134//188 133//188
f 46//189 135//189 45//189
f 45//190 135//190 44//190
f 136//191 135//191 133//191
f 135//155 136//155 44//155
f 44//192 136//192 43//192
f 43//193 136//193 137//193
f 137//194 136//194 138//194
f 138//194 136//194 133//194
f 141//195 137//195 138//195
f 139//2 140//2 138//2
f 139//194 138//194 142//194
f 138//2 140//2 141//2
f 142//196 138//196 143//196
f 138//197 133//197 143//197
f 142//198 143//198 122//198
f 143//199 121//199 122//199
f 143//200 133//200 132//200
f 143//201 132//201 121//201
f 142//202 122//202 145//202
f 142//203 144//203 146//203
f 142//204 145//204 144//204
f 146//205 139//205 142//205
f 147//205 149//205 146//205
f 146//206 148//206 147//206
f 139//205 146//205 149//205
f 146//206 150//206 148//206
f 146//207 144//207 150//207
f 151//208 152//208 150//208
f 150//209 144//209 151//209
f 150//210 152//210 148//210
f 56//211 148//211 152//211
f 152//212 153//212 61//212
f 154//213 153//213 152//213
f 57//214 152//214 61//214
f 154//215 152//215 151//215
f 56//216 152//216 57//216
f 156//217 153//217 154//217
f 151//218 158//218 154//218
f 154//219 120//219 155//219
f 154//220 155//220 157//220
f 154//221 157//221 156//221
f 158//222 120//222 154//222
f 151//223 145//223 158//223
f 145//224 120//224 158//224
f 155//225 159//225 157//225
f 157//226 159//226 160//226
f 156//227 157//227 160//227
f 160//228 161//228 153//228
f 160//229 90//229 161//229
f 160//230 153//230 156//230
f 160//231 159//231 89//231
f 160//232 89//232 90//232
f 161//233 162//233 163//233
f 161//234 90//234 162//234
f 161//235 163//235 153//235
f 153//236 163//236 72//236
f 72//237 163//237 162//237
f 73//238 162//238 81//238
f 90//239 81//239 162//239
f 72//240 162//240 73//240
f 155//241 164//241 159//241
f 159//242 164//242 89//242
f 115//243 112//243 164//243
f 115//244 164//244 155//244
f 112//245 88//245 164//245
f 164//246 88//246 89//246
f 120//247 115//247 155//247
f 61//212 153//212 72//212
f 144//248 145//248 151//248
f 43//249 149//249 147//249
f 43//193 137//193 149//193
f 139//250 149//250 165//250
f 149//192 137//192 166//192
f 149//192 166//192 165//192
f 167//251 166//251 168//251
f 167//252 165//252 166//252
f 141//253 166//253 137//253
f 170//254 168//254 166//254
f 169//254 166//254 141//254
f 169//254 170//254 166//254
f 167//192 168//192 170//192
f 167//192 170//192 172//192
f 171//255 170//255 169//255
f 172//255 170//255 171//255
f 165//256 167//256 172//256
f 171//256 165//256 172//256
f 141//2 171//2 169//2
f 140//2 171//2 141//2
f 140//256 165//256 171//256
f 139//257 165//257 140//257
f 147//258 148//258 56//258
f 43//259 147//259 56//259
f 145//260 122//260 120//260
f 121//261 132//261 124//261
f 130//262 36//262 126//262
f 46//263 36//263 130//263
f 173//264 128//264 127//264
f 173//265 174//265 128//265
f 128//266 174//266 117//266
f 116//267 128//267 117//267
f 175//268 174//268 173//268
f 176//269 174//269 175//269
f 117//270 174//270 176//270
f 177//271 176//271 179//271
f 178//272 176//272 177//272
f 176//273 175//273 179//273
f 117//274 176//274 178//274
f 180//275 179//275 175//275
f 180//276 182//276 179//276
f 179//277 181//277 177//277
f 182//278 181//278 179//278
f 183//279 79//279 182//279
f 183//280 182//280 184//280
f 185//281 184//281 182//281
f 185//282 182//282 180//282
f 182//283 78//283 181//283
f 79//284 78//284 182//284
f 185//285 186//285 189//285
f 186//286 185//286 188//286
f 185//287 187//287 188//287
f 180//288 187//288 185//288
f 185//289 189//289 184//289
f 184//290 189//290 191//290
f 192//291 184//291 191//291
f 194//292 77//292 195//292
f 193//293 75//293 194//293
f 77//294 194//294 75//294
f 195//295 183//295 192//295
f 183//296 195//296 79//296
f 79//297 195//297 77//297
f 75//298 193//298 76//298
f 190//299 76//299 193//299
f 184//300 192//300 183//300
f 198//301 190//301 196//301
f 190//303 198//303 197//303
f 76//304 190//304 197//304
f 69//305 197//305 198//305
f 69//306 198//306 199//306
f 196//307 188//307 198//307
f 188//308 199//308 198//308
f 187//309 201//309 199//309
f 199//310 188//310 187//310
f 69//311 199//311 200//311
f 201//312 200//312 199//312
f 202//313 200//313 201//313
f 187//315 204//315 201//315
f 187//316 203//316 204//316
f 207//317 205//317 203//317
f 207//318 203//318 187//318
f 209//319 205//319 207//319
f 208//320 207//320 180//320
f 209//321 207//321 208//321
f 187//322 180//322 207//322
f 209//323 210//323 205//323
f 211//324 210//324 209//324
f 211//325 209//325 208//325
f 206//326 211//326 215//326
f 210//327 211//327 206//327
f 213//328 212//328 211//328
f 211//329 212//329 215//329
f 211//330 214//330 213//330
f 214//331 211//331 216//331
f 216//332 211//332 208//332
f 222//333 216//333 217//333
f 217//334 216//334 220//334
f 216//335 208//335 218//335
f 216//336 218//336 219//336
f 221//337 216//337 219//337
f 5//338 220//338 216//338
f 5//339 216//339 221//339
f 214//340 216//340 222//340
f 222//341 223//341 224//341
f 223//342 222//342 217//342
f 224//343 214//343 222//343
f 214//344 224//344 225//344
f 213//345 225//345 226//345
f 225//346 213//346 214//346
f 213//347 226//347 227//347
f 229//348 228//348 227//348
f 213//349 227//349 228//349
f 228//350 229//350 212//350
f 212//351 229//351 230//351
f 206//352 215//352 230//352
f 230//353 215//353 212//353
f 213//354 228//354 212//354
f 217//355 231//355 223//355
f 231//356 220//356 233//356
f 231//357 217//357 220//357
f 235//358 232//358 234//358
f 235//359 234//359 237//359
f 236//360 237//360 234//360
f 237//361 233//361 238//361
f 238//362 239//362 237//362
f 62//363 235//363 237//363
f 233//364 237//364 236//364
f 239//365 62//365 237//365
f 241//366 240//366 239//366
f 239//367 240//367 242//367
f 239//368 220//368 241//368
f 239//369 238//369 220//369
f 239//370 242//370 62//370
f 62//371 242//371 243//371
f 62//374 243//374 63//374
f 25//375 63//375 243//375
f 247//376 246//376 245//376
f 241//378 245//378 240//378
f 245//379 241//379 247//379
f 247//380 5//380 9//380
f 5//381 247//381 220//381
f 246//382 247//382 9//382
f 241//383 220//383 247//383
f 9//384 2//384 246//384
f 3//386 7//386 244//386
f 249//388 248//388 244//388
f 249//389 244//389 7//389
f 7//390 8//390 249//390
f 8//391 248//391 249//391
f 6//392 21//392 248//392
f 6//393 248//393 8//393
f 238//394 233//394 220//394
f 66//395 232//395 235//395
f 62//396 66//396 235//396
f 232//397 66//397 65//397
f 36//398 5//398 221//398
f 36//399 221//399 126//399
f 126//400 221//400 127//400
f 221//401 219//401 127//401
f 218//402 250//402 219//402
f 219//403 250//403 173//403
f 127//404 219//404 173//404
f 208//405 250//405 218//405
f 250//406 175//406 173//406
f 208//407 180//407 250//407
f 250//408 180//408 175//408
f 65//410 67//410 202//410
f 200//411 202//411 67//411
f 69//412 200//412 67//412
f 197//413 69//413 76//413
f 188//414 196//414 251//414
f 188//415 251//415 186//415
f 181//416 178//416 177//416
f 87//417 178//417 181//417
f 78//418 87//418 181//418
f 117//419 178//419 87//419
f 114//420 117//420 87//420
f 88//113 112//113 86//113
f 92//421 109//421 84//421
f 86//422 109//422 92//422
f 87//155 100//155 104//155
f 98//423 104//423 95//423
f 95//194 104//194 85//194
f 85//194 104//194 100//194
f 83//424 85//424 96//424
f 85//113 86//113 95//113
f 25//425 54//425 63//425
f 38//426 41//426 50//426
f 36//427 14//427 5//427
f 32//428 27//428 20//428
f 32//429 20//429 14//429
f 11//430 21//430 6//430
f 17//431 13//431 20//431
f 13//432 14//432 20//432
usemtl Material.029
f 3//2 2//2 1//2
f 18//19 16//19 17//19
f 18//2 15//2 16//2
f 18//2 21//2 23//2
f 22//2 21//2 18//2
f 18//23 23//23 15//23
f 25//2 21//2 22//2
f 25//2 22//2 24//2
f 25//2 30//2 31//2
f 25//2 31//2 33//2
f 25//2 33//2 34//2
f 38//2 25//2 40//2
f 25//2 34//2 40//2
f 186//2 190//2 189//2
f 189//2 190//2 191//2
f 191//2 194//2 192//2
f 190//19 193//19 191//19
f 193//2 194//2 191//2
f 194//2 195//2 192//2
f 196//302 190//302 186//302
f 202//2 201//2 203//2
f 203//314 201//314 204//314
f 206//2 202//2 203//2
f 206//19 203//19 205//19
f 65//2 224//2 223//2
f 65//2 225//2 224//2
f 65//2 226//2 225//2
f 65//2 227//2 226//2
f 65//2 229//2 227//2
f 65//2 230//2 229//2
f 65//2 202//2 230//2
f 230//2 202//2 206//2
f 231//2 65//2 223//2
f 234//2 232//2 231//2
f 231//2 232//2 65//2
f 234//2 231//2 233//2
f 236//2 234//2 233//2
f 243//2 242//2 240//2
f 25//372 243//372 244//372
f 244//373 243//373 3//373
f 245//19 243//19 240//19
f 3//2 243//2 245//2
f 3//377 245//377 246//377
f 3//385 246//385 2//385
f 25//387 244//387 248//387
f 25//2 248//2 21//2
f 206//409 205//409 210//409
f 251//2 196//2 186//2
f 52//2 25//2 38//2
f 49//2 52//2 38//2
f 49//2 38//2 50//2
f 25//2 24//2 30//2
