# Blender 5.0.1
# www.blender.org
mtllib torso_z_link_visual_24.mtl
o i01.torso.topStom.full.025_visual.001
v -0.154120 -0.033393 -0.029341
v -0.125453 -0.110895 -0.030849
v -0.173566 -0.109841 -0.014650
v -0.114245 -0.033819 -0.035816
v -0.074916 -0.033211 -0.026567
v -0.193979 -0.031674 -0.003246
v -0.200107 -0.108172 0.010535
v -0.217543 -0.106085 0.042182
v -0.215838 -0.029229 0.033993
v -0.208957 -0.023706 0.118057
v -0.184359 -0.098915 0.151331
v -0.207419 -0.100687 0.124372
v -0.056609 -0.021526 0.151114
v -0.182394 -0.021741 0.147872
v -0.220494 -0.103195 0.086234
v -0.025489 -0.023945 0.114191
v -0.022977 -0.029699 0.026839
v -0.221207 -0.026602 0.073946
v -0.028332 -0.107509 0.020633
v -0.042137 -0.031662 -0.003010
v -0.015255 -0.105001 0.058773
v -0.014053 -0.027199 0.064839
v -0.017799 -0.102356 0.098998
v 0.020901 -0.097442 0.173719
v 0.052394 -0.101461 0.112601
v -0.032733 -0.100265 0.130786
v -0.061632 -0.098366 0.159660
v -0.028007 -0.094259 0.222131
v -0.092888 -0.092825 0.243937
v -0.104326 -0.020253 0.170307
v -0.093707 -0.097525 0.172462
v -0.124401 -0.097318 0.175613
v -0.160944 -0.092825 0.243937
v -0.158556 -0.097871 0.167199
v -0.151392 -0.020602 0.165188
v -0.221339 -0.094830 0.213454
v -0.221420 0.035383 0.205032
v -0.268744 -0.097998 0.165276
v -0.268788 0.032214 0.156837
v -0.289303 0.027956 0.092086
v -0.092964 0.037381 0.235422
v -0.256431 0.019434 -0.037516
v -0.288001 0.023461 0.023728
v -0.289325 -0.102250 0.100599
v -0.288098 -0.106738 0.032346
v -0.256605 -0.110757 -0.028773
v -0.240763 0.009766 -0.184547
v -0.240763 -0.120437 -0.175986
v 0.289324 -0.120439 -0.175985
v 0.289324 -0.123893 -0.228503
v -0.240763 -0.123891 -0.228509
v 0.289325 0.114225 -0.191416
v 0.173683 0.019434 -0.037516
v -0.055041 -0.109497 -0.009611
v -0.086684 -0.110556 -0.025710
v -0.098724 0.042804 -0.039066
v 0.173683 0.123893 -0.044384
v 0.052394 0.028742 0.104039
v -0.118466 0.039954 -0.038867
v 0.110907 0.060314 -0.040213
v 0.113034 0.083884 -0.041772
v 0.074551 0.039362 -0.038841
v 0.097659 0.044889 -0.039198
v 0.076990 0.054052 -0.060321
v 0.089431 0.057293 -0.060513
v 0.080097 0.041989 -0.239416
v 0.094143 0.049624 -0.239918
v 0.096468 0.065804 -0.061072
v 0.098007 0.063853 -0.240854
v 0.097367 0.078670 -0.061941
v 0.101439 0.101077 -0.042886
v 0.090726 0.076656 -0.241696
v 0.088139 0.090124 -0.062694
v 0.078384 0.110329 -0.043549
v 0.075067 0.080752 -0.241964
v 0.075413 0.091916 -0.062789
v 0.052370 0.097816 -0.042684
v 0.064276 0.085524 -0.062391
v 0.044098 0.075416 -0.041203
v 0.060040 0.073316 -0.061566
v 0.061853 0.070026 -0.241261
v -0.095353 0.060075 -0.240606
v -0.103130 0.077935 -0.241779
v 0.062264 0.050540 -0.239976
v -0.101905 0.046880 -0.239738
v 0.064110 0.061083 -0.060783
v 0.051109 0.052818 -0.039725
v -0.082557 0.060314 -0.040209
v -0.104035 0.057293 -0.060513
v -0.096998 0.065804 -0.061072
v -0.080428 0.083886 -0.041766
v -0.096099 0.078670 -0.061941
v -0.092027 0.101077 -0.042886
v -0.105327 0.090124 -0.062694
v -0.115082 0.110337 -0.043540
v -0.211667 0.123893 -0.044384
v -0.118053 0.091916 -0.062789
v -0.141092 0.097812 -0.042690
v -0.129190 0.085524 -0.062391
v -0.149368 0.075416 -0.041204
v -0.141349 0.050430 -0.039667
v -0.133426 0.073316 -0.061566
v -0.132641 0.055312 -0.240293
v -0.129356 0.061083 -0.060783
v -0.131613 0.070027 -0.241260
v -0.120541 0.079693 -0.241896
v -0.211667 0.110771 -0.243938
v -0.211667 0.114225 -0.191417
v 0.289325 0.110771 -0.243938
v -0.240763 0.006313 -0.237070
v -0.118667 0.041813 -0.239404
v -0.116477 0.054052 -0.060321
v 0.020938 0.032749 0.164976
v -0.028039 0.035941 0.213514
v -0.161040 0.037386 0.235496
vn 0.3195 0.0998 0.9423
vn 0.1606 0.0402 0.9862
vn 0.5483 0.0212 0.8360
vn -0.0000 -0.9978 0.0656
vn -0.0000 -0.9978 0.0658
vn 0.6889 0.0747 0.7210
vn 0.8762 0.0166 0.4817
vn 0.8629 0.0346 0.5042
vn 0.0001 -0.9978 0.0655
vn -0.0000 -0.9979 0.0655
vn 0.7474 -0.0487 -0.6626
vn 0.7606 -0.0380 -0.6481
vn 0.9461 -0.0077 -0.3238
vn 0.0001 -0.9979 0.0654
vn 0.9636 -0.0336 -0.2654
vn 0.0001 -0.9978 0.0657
vn -0.0003 -0.9978 0.0656
vn 0.9977 0.0198 0.0655
vn 0.9910 -0.0077 0.1337
vn -0.0003 -0.9978 0.0657
vn -0.8419 0.0149 0.5394
vn -0.9460 0.0394 0.3218
vn -0.9735 -0.0028 0.2288
vn -0.9977 0.0204 -0.0644
vn -0.9736 -0.0524 -0.2222
vn -0.9052 -0.0065 -0.4249
vn -0.7651 -0.0666 -0.6405
vn -0.7075 -0.0323 -0.7060
vn -0.3738 -0.0783 -0.9242
vn -0.3713 -0.0768 -0.9253
vn -0.1023 -0.0418 -0.9939
vn 0.2397 -0.0475 -0.9697
vn 0.1083 -0.0963 -0.9894
vn 0.4884 -0.0679 -0.8700
vn 0.0002 -0.9978 0.0666
vn 0.5247 -0.0514 -0.8498
vn -0.7140 0.0447 0.6988
vn -0.4514 0.0573 0.8905
vn -0.7136 0.0451 0.6991
vn -0.0000 0.9978 -0.0656
vn -0.9535 0.0192 0.3008
vn -0.9998 -0.0011 -0.0190
vn -0.9531 0.0199 0.3020
vn -0.9998 -0.0004 -0.0179
vn 0.0001 -0.9979 0.0655
vn -0.8893 -0.0295 -0.4563
vn -0.8893 -0.0296 -0.4564
vn -0.0002 -0.9978 0.0659
vn -0.0001 -0.9978 0.0658
vn -0.9944 -0.0058 -0.1056
vn -0.9943 -0.0070 -0.1065
vn -0.0001 -0.9979 0.0653
vn 1.0000 -0.0000 -0.0000
vn 0.0063 -0.9965 0.0835
vn -0.0000 -0.9978 0.0657
vn 0.7732 0.0116 0.6340
vn 0.7867 0.0405 0.6161
vn -0.4541 0.0789 0.8874
vn -0.1317 0.0828 0.9878
vn -0.2294 0.0457 0.9723
vn -0.7500 0.0685 0.6579
vn -0.5842 0.0281 0.8111
vn 0.0002 0.0684 0.9977
vn -0.0000 0.0665 0.9978
vn -0.0003 0.0656 0.9978
vn 0.7601 0.0426 0.6484
vn -0.0000 0.0657 0.9978
vn -0.0001 0.0657 0.9978
vn 0.0001 0.0660 0.9978
vn -0.0002 0.0653 0.9979
vn -0.1880 0.8205 0.5398
vn -0.6093 0.5602 0.5612
vn -0.2026 0.8104 0.5498
vn -0.4784 0.8767 -0.0500
vn -0.2525 0.9651 -0.0694
vn -0.7713 0.6346 -0.0474
vn -0.6149 0.5458 0.5692
vn -0.9976 0.0690 -0.0093
vn -0.9652 0.2614 -0.0111
vn -0.7980 0.0959 0.5950
vn -0.8032 0.1112 0.5852
vn -0.6664 -0.4090 0.6234
vn -0.6084 -0.4471 0.6557
vn -0.8697 -0.4921 0.0376
vn -0.7794 -0.6255 0.0358
vn -0.3099 -0.7285 0.6109
vn -0.1052 -0.7103 0.6960
vn -0.2536 -0.9649 0.0689
vn -0.1396 -0.9883 0.0618
vn 0.3580 -0.7016 0.6162
vn 0.3971 -0.6516 0.6463
vn 0.4985 -0.8653 0.0529
vn 0.7576 -0.2397 0.6072
vn 0.7567 -0.2210 0.6153
vn 0.9450 -0.3268 0.0155
vn 0.6310 -0.7736 0.0585
vn -0.0000 -0.0655 -0.9978
vn -0.0000 -0.0658 -0.9978
vn -0.0000 -0.0655 -0.9979
vn 0.9997 0.0217 0.0097
vn -0.0000 -0.0657 -0.9978
vn -0.0000 -0.0653 -0.9979
vn 0.4331 0.8998 -0.0531
vn 0.4800 0.8755 -0.0565
vn 0.9490 0.3140 -0.0283
vn 0.4038 0.7389 0.5393
vn 0.3848 0.7409 0.5504
vn 0.7593 0.2899 0.5826
vn -0.0000 0.0651 0.9979
vn -0.0000 0.0656 0.9978
vn 0.0001 0.0653 0.9979
vn 0.7703 0.2766 0.5746
vn -0.0000 0.0659 0.9978
vn -0.5979 0.5877 0.5451
vn 0.0001 0.0650 0.9979
vn -0.0000 0.0706 0.9975
vn 0.0002 0.0686 0.9976
vn -0.0000 0.0621 0.9981
vn 0.0006 0.0664 0.9978
vn -0.0000 0.0611 0.9981
vn 0.0005 0.0660 0.9978
vn 0.0001 0.0656 0.9978
vn 0.0020 0.0620 0.9981
vn 0.7693 0.2821 0.5732
vn 0.7617 0.2905 0.5792
vn 0.9490 0.3140 -0.0275
vn 0.9976 -0.0689 0.0113
vn 0.6584 -0.7506 0.0561
vn -0.0000 -0.0656 -0.9978
vn 0.0001 -0.0654 -0.9979
vn -0.9635 0.2672 -0.0176
vn -1.0000 -0.0000 -0.0000
vn -0.2900 0.9552 -0.0589
vn -0.2525 0.9656 -0.0629
vn 0.6955 0.7176 -0.0358
vn 0.4800 0.8748 -0.0657
vn -0.1151 0.8350 0.5380
vn -0.1966 0.7892 0.5818
vn 0.3748 0.7245 0.5784
vn 0.3350 0.7729 0.5389
vn -0.0000 -0.0654 -0.9979
vn -0.9195 0.3923 -0.0258
vn -0.9585 0.2591 -0.1192
vn -0.1007 -0.9925 0.0691
vn 0.4985 -0.8653 0.0521
vn -0.0012 0.0736 0.9973
vn -0.1396 -0.9880 0.0655
vn -0.7794 -0.6257 0.0330
vn -0.9976 0.0689 -0.0113
vn -0.9171 -0.3969 0.0375
vn -0.8960 0.4435 -0.0224
vn -0.7714 0.6347 -0.0460
vn -0.0011 0.0688 0.9976
vn 0.0002 0.0648 0.9979
vn 0.8893 0.0300 0.4563
vn 0.8890 0.0304 0.4569
vn 0.7047 0.0473 0.7079
vn 0.7043 0.0471 0.7084
vn 0.3203 0.0626 0.9452
vn 0.3192 0.0620 0.9457
vn 0.0011 0.0653 0.9979
vn -0.0000 0.0647 0.9979
vn -0.4512 0.0574 0.8906
s 0
usemtl Material.002
f 3//1 2//1 1//1
f 4//2 1//2 2//2
f 1//3 6//3 3//3
f 5//4 1//4 4//4
f 6//5 1//5 5//5
f 7//6 3//6 6//6
f 8//7 7//7 6//7
f 6//8 9//8 8//8
f 10//9 9//9 6//9
f 10//10 6//10 5//10
f 10//11 14//11 11//11
f 11//12 12//12 10//12
f 12//13 15//13 10//13
f 10//14 16//14 13//14
f 14//5 10//5 13//5
f 18//15 10//15 15//15
f 17//4 10//4 5//4
f 16//16 10//16 17//16
f 18//17 9//17 10//17
f 15//18 8//18 18//18
f 9//19 18//19 8//19
f 22//20 16//20 17//20
f 17//21 20//21 19//21
f 19//22 21//22 17//22
f 5//4 20//4 17//4
f 22//23 17//23 21//23
f 21//24 23//24 22//24
f 16//25 22//25 23//25
f 23//26 26//26 16//26
f 23//4 24//4 26//4
f 25//4 24//4 23//4
f 21//4 25//4 23//4
f 13//27 16//27 26//27
f 26//4 24//4 27//4
f 26//28 27//28 13//28
f 28//4 29//4 27//4
f 24//4 28//4 27//4
f 27//4 29//4 31//4
f 30//29 13//29 27//29
f 27//30 31//30 30//30
f 31//4 29//4 32//4
f 31//31 32//31 30//31
f 33//4 32//4 29//4
f 32//4 33//4 34//4
f 32//32 34//32 35//32
f 35//33 30//33 32//33
f 14//4 13//4 35//4
f 14//34 35//34 34//34
f 30//35 35//35 13//35
f 34//36 11//36 14//36
f 34//4 36//4 11//4
f 34//4 33//4 36//4
f 11//4 36//4 38//4
f 39//37 36//37 37//37
f 33//38 37//38 36//38
f 36//39 39//39 38//39
f 37//40 40//40 39//40
f 40//41 38//41 39//41
f 41//40 40//40 37//40
f 40//40 41//40 42//40
f 43//40 40//40 42//40
f 43//42 44//42 40//42
f 38//43 40//43 44//43
f 15//4 44//4 45//4
f 44//4 15//4 12//4
f 12//4 38//4 44//4
f 44//44 43//44 45//44
f 45//16 46//16 8//16
f 45//45 8//45 15//45
f 45//46 42//46 46//46
f 42//47 45//47 43//47
f 46//48 3//48 7//48
f 46//49 7//49 8//49
f 46//50 42//50 47//50
f 46//51 47//51 48//51
f 46//4 48//4 49//4
f 46//52 49//52 3//52
f 49//4 48//4 51//4
f 52//53 49//53 50//53
f 51//4 50//4 49//4
f 3//54 49//54 2//54
f 2//55 49//55 55//55
f 25//56 49//56 53//56
f 25//4 19//4 49//4
f 49//57 52//57 53//57
f 55//4 49//4 54//4
f 54//4 49//4 19//4
f 55//58 54//58 5//58
f 2//59 55//59 4//59
f 5//60 4//60 55//60
f 54//61 19//61 20//61
f 20//62 5//62 54//62
f 59//63 53//63 56//63
f 56//64 53//64 62//64
f 61//65 53//65 57//65
f 52//57 57//57 53//57
f 58//66 25//66 53//66
f 53//40 42//40 58//40
f 53//67 59//67 42//67
f 53//68 60//68 63//68
f 60//69 53//69 61//69
f 63//70 62//70 53//70
f 63//71 64//71 62//71
f 60//72 65//72 63//72
f 64//73 63//73 65//73
f 66//74 65//74 67//74
f 65//75 66//75 64//75
f 68//76 67//76 65//76
f 65//77 60//77 68//77
f 70//78 69//78 68//78
f 67//79 68//79 69//79
f 68//80 61//80 70//80
f 61//81 68//81 60//81
f 71//82 70//82 61//82
f 70//83 71//83 73//83
f 69//84 70//84 72//84
f 73//85 72//85 70//85
f 74//86 73//86 71//86
f 73//87 74//87 76//87
f 72//88 73//88 75//88
f 76//89 75//89 73//89
f 77//90 76//90 74//90
f 76//91 77//91 78//91
f 78//92 75//92 76//92
f 79//93 78//93 77//93
f 78//94 79//94 80//94
f 80//95 81//95 78//95
f 75//96 78//96 81//96
f 81//97 82//97 83//97
f 81//98 84//98 82//98
f 75//99 81//99 83//99
f 81//100 80//100 84//100
f 84//101 85//101 82//101
f 84//102 66//102 85//102
f 84//103 64//103 66//103
f 64//104 84//104 86//104
f 86//105 84//105 80//105
f 62//106 86//106 87//106
f 86//107 62//107 64//107
f 80//108 87//108 86//108
f 87//109 88//109 56//109
f 87//110 56//110 62//110
f 79//111 88//111 87//111
f 87//112 80//112 79//112
f 79//113 91//113 88//113
f 88//114 89//114 56//114
f 89//77 88//77 90//77
f 91//81 90//81 88//81
f 77//115 93//115 91//115
f 77//113 91//113 79//113
f 93//82 92//82 91//82
f 90//80 91//80 92//80
f 74//116 95//116 93//116
f 74//117 93//117 77//117
f 92//83 93//83 94//83
f 95//86 94//86 93//86
f 57//118 96//118 95//118
f 95//119 96//119 98//119
f 57//120 95//120 74//120
f 94//87 95//87 97//87
f 98//90 97//90 95//90
f 98//121 96//121 100//121
f 97//91 98//91 99//91
f 100//93 99//93 98//93
f 96//122 42//122 100//122
f 100//123 42//123 101//123
f 101//124 102//124 100//124
f 99//94 100//94 102//94
f 102//125 101//125 104//125
f 104//126 103//126 102//126
f 105//127 102//127 103//127
f 102//95 105//95 99//95
f 106//128 99//128 105//128
f 106//129 105//129 107//129
f 105//129 103//129 107//129
f 75//129 83//129 107//129
f 109//129 75//129 107//129
f 107//129 103//129 110//129
f 83//130 106//130 107//130
f 108//40 109//40 107//40
f 47//131 108//131 107//131
f 107//131 110//131 47//131
f 111//129 66//129 110//129
f 50//129 110//129 66//129
f 103//101 111//101 110//101
f 110//132 51//132 48//132
f 48//132 47//132 110//132
f 51//129 110//129 50//129
f 66//101 111//101 85//101
f 111//133 89//133 85//133
f 89//134 111//134 112//134
f 103//135 104//135 111//135
f 112//136 111//136 104//136
f 56//137 112//137 59//137
f 112//138 56//138 89//138
f 104//139 101//139 112//139
f 59//140 112//140 101//140
f 69//129 109//129 50//129
f 109//129 69//129 72//129
f 109//141 72//141 75//141
f 50//53 109//53 52//53
f 108//40 52//40 109//40
f 96//40 57//40 108//40
f 108//142 42//142 96//142
f 42//143 108//143 47//143
f 108//40 57//40 52//40
f 83//144 97//144 106//144
f 99//145 106//145 97//145
f 59//146 101//146 42//146
f 97//147 83//147 94//147
f 94//148 83//148 92//148
f 92//149 82//149 90//149
f 82//150 92//150 83//150
f 85//151 90//151 82//151
f 90//152 85//152 89//152
f 57//153 74//153 71//153
f 57//154 71//154 61//154
f 67//101 69//101 50//101
f 50//129 66//129 67//129
f 58//155 24//155 25//155
f 42//40 113//40 58//40
f 24//156 58//156 113//156
f 114//157 24//157 113//157
f 42//40 41//40 113//40
f 113//40 41//40 114//40
f 24//158 114//158 28//158
f 41//159 28//159 114//159
f 28//160 41//160 29//160
f 115//161 29//161 41//161
f 115//40 41//40 37//40
f 29//162 115//162 33//162
f 37//163 33//163 115//163
f 11//4 38//4 12//4
f 21//4 19//4 25//4
