# Blender 5.0.1
# www.blender.org
mtllib torso_z_link_visual_10.mtl
o i01.torso.topStom.full.011_visual.001
v 0.351756 -0.054357 0.175204
v 0.348676 -0.051591 0.210664
v 0.365943 -0.056011 0.176976
v 0.357698 0.077976 0.167199
v 0.338986 -0.060908 0.174139
v 0.344063 0.081374 0.165379
v 0.333684 0.091575 0.163490
v 0.330201 0.092662 0.199010
v 0.345261 0.081058 0.201541
v 0.361798 0.082698 0.203372
v 0.333975 -0.059459 0.209458
v 0.331265 -0.075737 0.174210
v 0.326984 -0.074815 0.209651
v 0.305392 -0.126779 0.210680
v 0.335150 -0.092085 0.175739
v 0.331687 -0.090778 0.211249
v 0.342958 -0.099524 0.213145
v 0.345971 -0.101387 0.177619
v 0.362508 -0.102773 0.179648
v 0.309550 -0.129112 0.175200
v -0.305391 -0.133832 0.103450
v 0.355731 0.126813 -0.237104
v 0.355732 -0.155188 -0.218563
v -0.309548 -0.131499 0.138928
v 0.387209 -0.128516 0.184261
v 0.309549 0.152889 0.156657
v -0.258998 0.122095 -0.308830
v -0.305392 0.148169 0.084907
v 0.332351 0.110656 0.162081
v 0.305391 0.155222 0.192137
v 0.344846 0.125198 0.162588
v 0.387208 0.153485 0.165719
v 0.383051 0.155818 0.201198
v 0.383051 -0.126183 0.219741
v 0.346152 0.129893 0.198435
v 0.367054 0.125118 0.201198
v 0.375065 0.112947 0.202937
v 0.375403 0.096416 0.204062
v 0.362951 -0.054441 0.212523
v 0.374828 -0.065802 0.214656
v 0.381178 0.102343 0.168351
v 0.372929 0.085116 0.168514
v 0.379548 -0.069521 0.179459
v 0.374086 -0.087365 0.215993
v 0.377569 -0.090937 0.180634
v 0.359706 -0.100029 0.215140
v 0.372282 0.121908 0.166019
v 0.358777 0.127310 0.164082
v 0.328222 0.114048 0.197374
v -0.309549 0.150502 0.120385
v 0.179454 0.156763 0.217723
v 0.300836 0.157699 0.231279
v -0.319642 0.156324 0.208682
v -0.319642 -0.125881 0.227235
v 0.173632 0.159907 0.266248
v -0.032594 0.065304 0.248302
v -0.034895 -0.122386 0.280376
v -0.032593 -0.123678 0.260727
v 0.173635 0.067369 0.272017
v -0.034896 0.066597 0.267951
v 0.210107 -0.037958 0.303452
v 0.198337 0.065839 0.295250
v 0.224517 0.046979 0.299555
v 0.209770 0.060745 0.274945
v 0.235151 0.026074 0.302176
v 0.193477 0.066904 0.271442
v 0.204993 0.063434 0.226749
v 0.179343 0.066730 0.223576
v 0.229046 0.048939 0.230511
v 0.227270 0.046549 0.277144
v 0.245850 0.017678 0.234544
v 0.240004 0.002977 0.282393
v 0.243699 -0.012124 0.236257
v 0.238037 0.025506 0.280328
v 0.233816 -0.018796 0.282753
v 0.231929 -0.034694 0.236355
v 0.300811 -0.124291 0.249945
v 0.218062 -0.125041 0.240722
v 0.210440 -0.120455 0.308830
v 0.212540 -0.041252 0.280746
v 0.217678 -0.045188 0.235377
v 0.223959 -0.032502 0.282483
v 0.228038 -0.022691 0.304549
v 0.236956 0.004552 0.303802
v -0.383052 0.147573 0.075846
v -0.387209 0.149906 0.111324
v -0.331246 0.103418 0.120797
v -0.340696 0.119964 0.118600
v -0.361597 0.124739 0.115837
v -0.331322 -0.080723 0.132895
v -0.335811 -0.067123 0.131474
v -0.332115 -0.068390 0.095989
v -0.327101 -0.086815 0.097788
v -0.337569 -0.098769 0.133348
v -0.335131 0.087010 0.121419
v -0.345952 0.077543 0.120773
v -0.328780 0.087532 0.086126
v -0.345242 0.073679 0.085109
v -0.329520 0.109085 0.084623
v -0.346134 0.122500 0.081794
v -0.369095 0.116073 0.079526
v -0.376744 0.113146 0.114823
v -0.376678 0.093361 0.080133
v -0.367035 -0.064202 0.091621
v -0.376485 -0.080892 0.091614
v -0.374725 0.083532 0.117007
v -0.380553 0.099276 0.115299
v -0.364140 0.075945 0.082746
v -0.360139 0.075672 0.119234
v -0.348657 -0.059023 0.093434
v -0.351756 -0.056496 0.128907
v -0.372263 -0.062778 0.126918
v -0.381160 -0.082479 0.127184
v -0.371179 -0.101415 0.129584
v -0.371471 -0.099317 0.093410
v -0.387208 -0.132095 0.129867
v -0.383051 -0.134428 0.094388
v -0.355324 -0.106253 0.131762
v -0.357196 -0.108029 0.095655
v -0.338407 -0.105240 0.097674
v -0.258997 -0.159907 -0.290289
vn 0.4466 -0.8882 0.1081
vn -0.1237 -0.9901 0.0665
vn 0.1162 -0.0652 -0.9911
vn 0.1161 -0.0652 -0.9911
vn 0.1163 -0.0652 -0.9911
vn 0.6959 0.7167 0.0463
vn 0.2418 0.9703 0.0005
vn 0.6117 0.7910 -0.0133
vn -0.0849 0.9892 -0.1195
vn -0.1163 0.0652 0.9911
vn -0.1162 0.0652 0.9911
vn -0.1161 0.0652 0.9911
vn -0.1159 0.0652 0.9911
vn 0.8781 -0.4565 0.1433
vn 0.9041 -0.4101 0.1199
vn 0.4629 -0.8805 0.1018
vn -0.1095 0.0651 0.9919
vn -0.1122 0.0662 0.9915
vn 0.9646 0.2395 0.1103
vn 0.9537 0.2892 0.0824
vn 0.6479 0.7609 0.0352
vn -0.1142 0.0677 0.9912
vn 0.6119 0.7909 0.0104
vn 0.1161 -0.0660 -0.9910
vn 0.0889 0.9950 -0.0446
vn 0.1158 -0.0656 -0.9911
vn 0.1149 -0.0652 -0.9912
vn 0.1154 -0.0653 -0.9912
vn -0.0001 -0.9978 0.0661
vn -0.0000 -0.9978 0.0656
vn 0.9932 0.0076 0.1160
vn 0.1161 -0.0662 -0.9910
vn 0.1150 -0.0652 -0.9912
vn 0.0001 0.9978 -0.0661
vn -0.0000 0.9978 -0.0656
vn 0.1157 -0.0648 -0.9912
vn 0.1161 -0.0642 -0.9912
vn 0.9932 0.0076 0.1159
vn -0.1346 0.0650 0.9888
vn -0.1171 0.0610 0.9912
vn -0.1161 0.0596 0.9914
vn -0.1201 0.0626 0.9908
vn -0.1316 0.0646 0.9892
vn -0.1160 0.0652 0.9911
vn -0.1157 0.0651 0.9912
vn -0.1338 0.0651 0.9889
vn -0.9859 -0.0314 -0.1646
vn -0.8997 0.4301 -0.0741
vn -0.6949 0.6979 -0.1735
vn 0.1165 -0.0652 -0.9911
vn -0.4184 0.9055 -0.0708
vn -0.9906 0.0857 -0.1062
vn -0.9904 0.0257 -0.1355
vn -0.7028 -0.7112 -0.0191
vn 0.1193 -0.0652 -0.9907
vn 0.1184 -0.0653 -0.9908
vn 0.1165 -0.0658 -0.9910
vn -0.6498 0.7472 -0.1395
vn -0.6098 0.7850 -0.1088
vn -0.1188 0.0682 0.9906
vn -0.1159 0.0701 0.9908
vn 0.0389 0.9965 -0.0740
vn -0.1161 0.0706 0.9907
vn -0.1288 0.0658 0.9895
vn 0.1200 -0.0651 -0.9906
vn 0.1172 -0.0648 -0.9910
vn -0.9084 -0.4169 -0.0327
vn 0.1164 -0.0645 -0.9911
vn -0.8283 -0.5555 -0.0724
vn -0.3748 -0.9266 0.0289
vn 0.1160 -0.0639 -0.9912
vn 0.1358 -0.9830 0.1238
vn -0.2217 -0.9751 -0.0082
vn -0.6886 -0.7247 -0.0260
vn -0.1990 -0.9796 0.0265
vn -0.1142 0.0628 0.9915
vn 0.6579 -0.7494 0.0742
vn 0.9911 0.0772 0.1085
vn 0.9906 0.0988 0.0941
vn -0.1089 0.0658 0.9919
vn 0.7473 -0.6474 0.1496
vn -0.0000 0.9978 -0.0658
vn 0.9933 0.0076 0.1151
vn -0.1103 0.0652 0.9918
vn -0.0006 0.9980 -0.0632
vn 0.0002 0.9982 -0.0592
vn -0.9936 -0.0074 -0.1131
vn 0.0003 0.9979 -0.0646
vn -0.9932 -0.0076 -0.1159
vn -0.0024 0.9978 -0.0659
vn -0.1146 0.0618 0.9915
vn -0.1158 0.0652 0.9911
vn -0.0051 0.9975 0.0711
vn -0.1160 0.0653 0.9911
vn 0.5681 0.8149 0.1154
vn 0.3594 0.9327 -0.0316
vn 0.0245 0.9989 0.0397
vn 0.1325 0.9903 -0.0427
vn 0.3503 0.9365 0.0175
vn 0.0231 0.9997 -0.0105
vn 0.9931 0.0073 0.1169
vn -0.1144 0.0646 0.9913
vn 0.9929 0.0065 0.1187
vn 0.5165 0.8563 -0.0034
vn -0.1113 0.0655 0.9916
vn -0.1139 0.0682 0.9911
vn 0.6239 0.7789 0.0637
vn 0.8762 0.4785 0.0579
vn -0.1126 0.0673 0.9914
vn 0.8835 0.4629 0.0716
vn 0.9835 0.0997 0.1508
vn 0.9927 -0.0658 0.1011
vn -0.1058 0.0647 0.9923
vn 0.8797 0.4651 0.0991
vn 0.8811 0.4613 0.1044
vn 0.9870 0.0979 0.1278
vn 0.9497 -0.2672 0.1635
vn 0.8803 -0.4586 0.1213
vn -0.1132 0.0634 0.9915
vn -0.1088 0.0657 0.9919
vn 0.9933 0.0076 0.1154
vn -0.1111 0.0650 0.9917
vn 0.0020 -0.9980 0.0635
vn -0.0001 -0.9977 0.0672
vn 0.9938 0.0128 0.1104
vn 0.9937 0.0122 0.1115
vn -0.1164 0.0658 0.9910
vn -0.0011 -0.9985 0.0547
vn 0.5815 -0.8022 0.1354
vn 0.5888 -0.7961 0.1396
vn 0.5814 -0.7940 0.1775
vn 0.9944 0.0109 0.1050
vn 0.7991 -0.5779 0.1655
vn 0.8060 -0.5817 0.1097
vn 0.6250 -0.7497 0.2178
vn 0.9428 -0.2646 0.2026
vn 0.9400 -0.3034 0.1561
vn 0.9867 0.0928 0.1336
vn 0.0002 -0.9978 0.0656
vn -0.1155 0.0642 0.9912
vn 0.6241 0.7789 0.0617
vn 0.0002 -0.9980 0.0635
vn -0.1225 0.0651 0.9903
vn -0.1191 0.0636 0.9908
vn -0.1170 0.0614 0.9912
vn -0.1198 0.0663 0.9906
vn -0.9433 -0.3204 -0.0868
vn -0.9609 -0.2682 -0.0690
vn -0.9329 0.3188 -0.1675
vn -0.1166 0.0652 0.9910
vn -0.6511 0.7515 -0.1060
vn -0.9604 0.2210 -0.1695
vn 0.1172 -0.0652 -0.9910
vn 0.1171 -0.0651 -0.9910
vn -0.6375 0.7645 -0.0955
vn -0.9978 -0.0380 -0.0535
vn 0.1160 -0.0652 -0.9911
vn 0.1165 -0.0647 -0.9911
vn -0.6319 -0.7741 0.0400
vn -0.8552 -0.5043 -0.1198
vn 0.1161 -0.0641 -0.9912
vn 0.1159 -0.0644 -0.9912
vn 0.2492 -0.9523 0.1758
vn -0.2182 -0.9753 -0.0350
vn 0.1149 -0.0649 -0.9913
vn 0.6037 -0.7945 0.0650
vn 0.9349 -0.3074 0.1771
vn 0.1159 -0.0652 -0.9911
vn 0.1125 -0.0652 -0.9915
vn 0.9353 0.3510 0.0440
vn 0.7978 0.5917 0.1155
vn 0.9549 -0.2572 0.1485
vn 0.4793 0.8764 -0.0460
vn 0.1198 0.9928 -0.0057
vn 0.2617 -0.9608 0.0913
vn -0.4948 -0.8688 0.0186
vn 0.2848 -0.9552 0.0807
vn -0.5513 -0.8339 -0.0276
vn 0.8607 -0.4874 0.1471
vn 0.9072 -0.4083 0.1010
vn -0.1148 0.0652 0.9912
vn -0.1111 0.0671 0.9915
vn 0.8834 0.4682 0.0200
vn 0.9523 0.2725 0.1373
vn -0.1144 0.0652 0.9913
vn -0.0967 0.0653 0.9932
vn -0.0952 0.0653 0.9933
vn -0.1161 0.0707 0.9907
vn -0.1150 0.0692 0.9910
vn 0.2991 0.9522 -0.0624
vn -0.1174 0.0684 0.9907
vn -0.3716 0.9150 -0.1572
vn -0.1424 0.9890 -0.0413
vn 0.1167 -0.0655 -0.9910
vn 0.1161 -0.0661 -0.9910
vn -0.8497 0.5219 -0.0747
vn 0.1163 -0.0664 -0.9910
vn 0.5152 0.8559 0.0455
vn 0.1158 -0.0658 -0.9911
vn 0.1126 -0.0652 -0.9915
vn 0.1146 -0.0654 -0.9913
vn -0.1183 0.9869 -0.1093
vn -0.1080 0.0637 0.9921
vn -0.1138 0.0620 0.9916
vn 0.1173 -0.0652 -0.9910
vn -0.9932 -0.0077 -0.1165
s 0
usemtl Material.007
f 2//1 5//1 1//1
f 2//2 1//2 3//2
f 1//3 4//3 3//3
f 1//4 6//4 4//4
f 1//4 5//4 6//4
f 7//5 6//5 5//5
f 8//6 6//6 7//6
f 9//7 4//7 6//7
f 6//8 8//8 9//8
f 4//9 9//9 10//9
f 11//10 9//10 8//10
f 2//11 10//11 9//11
f 2//12 9//12 11//12
f 8//13 13//13 11//13
f 11//14 12//14 5//14
f 12//15 11//15 13//15
f 5//16 2//16 11//16
f 13//17 8//17 14//17
f 16//18 13//18 14//18
f 13//19 15//19 12//19
f 15//20 13//20 16//20
f 16//21 18//21 15//21
f 17//22 16//22 14//22
f 18//23 16//23 17//23
f 20//24 18//24 19//24
f 17//25 19//25 18//25
f 18//26 20//26 15//26
f 12//27 20//27 7//27
f 15//28 20//28 12//28
f 23//29 20//29 21//29
f 24//30 21//30 20//30
f 22//31 26//31 20//31
f 20//31 23//31 22//31
f 20//30 14//30 24//30
f 19//32 25//32 20//32
f 14//30 20//30 25//30
f 26//33 7//33 20//33
f 26//34 22//34 27//34
f 27//34 28//34 26//34
f 30//35 26//35 28//35
f 26//33 29//33 7//33
f 31//36 29//36 26//36
f 26//35 30//35 33//35
f 32//37 31//37 26//37
f 33//35 32//35 26//35
f 32//38 33//38 34//38
f 33//39 38//39 34//39
f 36//40 33//40 35//40
f 33//41 30//41 35//41
f 37//42 33//42 36//42
f 38//43 33//43 37//43
f 39//44 38//44 10//44
f 39//45 40//45 38//45
f 38//46 40//46 34//46
f 41//47 38//47 37//47
f 38//48 41//48 42//48
f 42//49 10//49 38//49
f 3//4 42//4 43//4
f 41//50 43//50 42//50
f 3//4 4//4 42//4
f 10//51 42//51 4//51
f 44//52 43//52 45//52
f 43//53 44//53 40//53
f 40//54 3//54 43//54
f 41//55 25//55 43//55
f 25//56 45//56 43//56
f 25//57 19//57 45//57
f 45//58 46//58 44//58
f 46//59 45//59 19//59
f 34//60 44//60 46//60
f 14//61 46//61 17//61
f 19//62 17//62 46//62
f 46//63 14//63 34//63
f 34//64 40//64 44//64
f 32//65 25//65 41//65
f 41//66 47//66 32//66
f 37//67 47//67 41//67
f 47//68 48//68 32//68
f 47//69 37//69 36//69
f 36//70 48//70 47//70
f 31//71 32//71 48//71
f 35//72 31//72 48//72
f 48//73 36//73 35//73
f 3//74 40//74 39//74
f 2//12 39//12 10//12
f 3//75 39//75 2//75
f 35//76 30//76 49//76
f 31//77 35//77 49//77
f 49//78 7//78 29//78
f 7//79 49//79 8//79
f 30//80 8//80 49//80
f 49//81 29//81 31//81
f 34//38 25//38 32//38
f 25//30 34//30 14//30
f 28//35 50//35 30//35
f 53//82 30//82 50//82
f 52//83 14//83 30//83
f 30//84 14//84 8//84
f 51//85 52//85 30//85
f 53//86 51//86 30//86
f 24//87 54//87 53//87
f 53//87 50//87 24//87
f 56//12 53//12 54//12
f 53//88 55//88 51//88
f 55//12 53//12 56//12
f 57//89 60//89 56//89
f 56//89 58//89 57//89
f 58//12 56//12 54//12
f 59//90 56//90 60//90
f 56//91 59//91 55//91
f 61//92 62//92 60//92
f 61//92 60//92 57//92
f 60//93 62//93 59//93
f 65//94 63//94 62//94
f 63//95 64//95 62//95
f 64//96 66//96 62//96
f 65//12 62//12 61//12
f 59//97 62//97 66//97
f 68//98 66//98 67//98
f 66//99 64//99 67//99
f 66//100 68//100 59//100
f 55//101 59//101 68//101
f 67//102 51//102 68//102
f 68//103 51//103 55//103
f 67//104 64//104 69//104
f 52//105 51//105 67//105
f 69//106 52//106 67//106
f 70//107 69//107 64//107
f 71//108 69//108 70//108
f 69//109 71//109 52//109
f 70//110 74//110 71//110
f 74//111 72//111 71//111
f 71//112 72//112 73//112
f 71//113 73//113 52//113
f 74//114 70//114 63//114
f 63//115 65//115 74//115
f 72//116 74//116 65//116
f 75//117 73//117 72//117
f 76//118 73//118 75//118
f 77//119 73//119 76//119
f 73//120 77//120 52//120
f 77//121 14//121 52//121
f 78//122 77//122 76//122
f 77//123 78//123 14//123
f 78//124 79//124 58//124
f 80//125 79//125 78//125
f 78//126 81//126 80//126
f 78//127 76//127 81//127
f 78//128 58//128 14//128
f 76//129 80//129 81//129
f 80//130 76//130 82//130
f 82//131 61//131 80//131
f 79//132 80//132 61//132
f 82//133 76//133 75//133
f 75//134 83//134 82//134
f 61//135 82//135 83//135
f 72//136 83//136 75//136
f 83//137 72//137 84//137
f 83//11 84//11 61//11
f 65//138 84//138 72//138
f 61//11 84//11 65//11
f 79//139 57//139 58//139
f 79//140 61//140 57//140
f 64//141 63//141 70//141
f 58//142 54//142 24//142
f 58//142 24//142 14//142
f 24//143 50//143 90//143
f 50//35 28//35 85//35
f 85//35 86//35 50//35
f 89//41 50//41 86//41
f 87//143 90//143 50//143
f 88//144 87//144 50//144
f 89//145 88//145 50//145
f 94//146 24//146 90//146
f 90//10 95//10 91//10
f 92//147 90//147 91//147
f 90//148 92//148 93//148
f 93//149 94//149 90//149
f 87//150 95//150 90//150
f 96//12 91//12 95//12
f 97//151 96//151 95//151
f 97//152 95//152 87//152
f 97//153 28//153 93//153
f 99//154 28//154 97//154
f 98//4 97//4 92//4
f 96//155 97//155 98//155
f 87//156 99//156 97//156
f 92//157 97//157 93//157
f 100//158 28//158 99//158
f 88//159 100//159 99//159
f 99//160 87//160 88//160
f 100//161 85//161 28//161
f 85//162 100//162 101//162
f 89//163 101//163 100//163
f 100//164 88//164 89//164
f 85//165 101//165 103//165
f 101//166 89//166 102//166
f 102//167 103//167 101//167
f 108//157 104//157 103//157
f 105//168 103//168 104//168
f 105//169 85//169 103//169
f 103//170 107//170 106//170
f 106//171 108//171 103//171
f 103//172 102//172 107//172
f 108//173 106//173 109//173
f 109//174 98//174 108//174
f 98//4 110//4 108//4
f 108//4 110//4 104//4
f 111//175 104//175 110//175
f 111//176 110//176 92//176
f 98//3 92//3 110//3
f 109//12 112//12 111//12
f 104//177 111//177 112//177
f 109//12 111//12 96//12
f 92//178 91//178 111//178
f 96//12 111//12 91//12
f 112//179 105//179 104//179
f 105//180 112//180 113//180
f 113//181 112//181 106//181
f 109//11 106//11 112//11
f 113//182 116//182 114//182
f 115//183 113//183 114//183
f 113//184 115//184 105//184
f 113//185 106//185 107//185
f 113//186 107//186 86//186
f 116//187 113//187 86//187
f 21//30 24//30 116//30
f 116//30 117//30 21//30
f 116//188 24//188 118//188
f 114//189 116//189 118//189
f 117//89 116//89 86//89
f 119//190 114//190 118//190
f 118//191 24//191 94//191
f 120//192 118//192 94//192
f 118//193 120//193 119//193
f 120//194 93//194 21//194
f 117//195 120//195 21//195
f 94//196 93//196 120//196
f 120//197 117//197 119//197
f 114//198 119//198 115//198
f 115//199 119//199 117//199
f 117//200 85//200 105//200
f 105//201 115//201 117//201
f 86//89 85//89 117//89
f 98//202 109//202 96//202
f 86//203 107//203 102//203
f 86//204 102//204 89//204
f 21//205 93//205 28//205
f 121//206 21//206 28//206
f 28//206 27//206 121//206
f 121//4 27//4 22//4
f 21//29 121//29 23//29
f 22//4 23//4 121//4
f 7//4 5//4 12//4
