# Blender 5.0.1
# www.blender.org
mtllib torso_y_link_visual_48.mtl
o i01.torso.full.052_visual.001
v 0.078903 0.001820 0.511395
v 0.078902 0.087506 0.505740
v 0.033810 0.090018 0.505593
v 0.078907 0.081816 0.472171
v 0.078902 -0.008718 0.373978
v 0.078914 0.066524 0.416912
v 0.033805 0.001820 0.511395
v 0.033805 0.043989 0.508622
v -0.003545 0.042769 0.490068
v 0.033795 0.055405 0.371584
v 0.033801 0.085605 0.473954
v -0.003545 0.000600 0.492842
v 0.033800 0.010375 0.374500
v -0.077701 0.051624 0.371796
v -0.207446 0.038273 0.372696
v -0.233749 0.034322 0.372931
v -0.014593 0.056179 0.371494
v -0.272556 0.010403 0.374500
v -0.272556 0.042769 0.490068
v -0.173776 0.042337 0.372406
v -0.177923 0.044269 0.384878
v -0.202481 0.044692 0.397953
v -0.154423 0.045198 0.377607
v -0.124421 0.047561 0.373966
v -0.124766 0.068150 0.374981
v -0.096849 0.051136 0.376413
v -0.154451 0.065698 0.378359
v -0.162108 0.069349 0.401169
v -0.179254 0.064729 0.386038
v -0.203673 0.064946 0.399095
v -0.197671 0.069469 0.419467
v -0.189273 0.074356 0.420811
v -0.169233 0.073794 0.409853
v -0.232180 0.075154 0.459500
v -0.207424 0.075527 0.435564
v -0.225306 0.066554 0.416748
v -0.240968 0.049295 0.436423
v -0.223555 0.046074 0.415334
v -0.242986 0.069739 0.438124
v -0.256091 0.074563 0.462369
v -0.261899 0.060221 0.486375
v -0.253909 0.053950 0.460392
v -0.264192 0.080864 0.488695
v -0.273041 0.088550 0.513790
v -0.245127 0.084084 0.497129
v -0.270503 0.067820 0.511145
v -0.309614 0.056860 0.507794
v -0.272557 0.065835 0.507186
v -0.304693 0.059577 0.511692
v -0.310201 0.079358 0.514339
v -0.355408 0.042788 0.512677
v -0.358052 0.063401 0.515370
v -0.329613 0.073320 0.548007
v -0.277808 0.091182 0.546681
v -0.243071 0.104937 0.550833
v -0.325916 0.077762 0.552809
v -0.247355 0.099659 0.546530
v -0.240177 0.089337 0.498970
v -0.232300 0.116301 0.471278
v -0.238960 0.121528 0.492930
v -0.240365 0.110176 0.552325
v -0.240604 0.139959 0.550332
v -0.233145 0.082311 0.474013
v -0.221537 0.112418 0.451340
v -0.222234 0.078474 0.453664
v -0.207306 0.109841 0.434001
v -0.165693 0.095407 0.367146
v -0.189062 0.108411 0.419096
v -0.251100 0.078204 0.368353
v -0.206578 0.103971 0.365723
v -0.281871 0.080179 0.402949
v -0.300266 0.061545 0.369474
v -0.429025 0.103870 0.365040
v -0.322339 0.055524 0.387454
v -0.298551 0.069725 0.391840
v -0.329580 0.046236 0.370464
v -0.361404 0.027942 0.371675
v -0.335785 0.045936 0.379668
v -0.353235 0.034508 0.377322
v -0.367536 0.027968 0.380873
v -0.356489 0.019510 0.378570
v -0.335829 0.019729 0.381367
v -0.322261 0.020239 0.389860
v -0.336556 0.006414 0.408081
v -0.344280 0.006219 0.402913
v -0.353236 0.006305 0.402044
v -0.353845 -0.030532 0.404577
v -0.368893 0.019798 0.382010
v -0.363582 0.006515 0.408863
v -0.382420 0.020283 0.392461
v -0.363299 -0.030068 0.411626
v -0.365943 -0.029484 0.420517
v -0.366010 0.007525 0.418734
v -0.362378 0.008213 0.428733
v -0.391481 0.022119 0.417181
v -0.388876 0.021125 0.402376
v -0.363401 -0.028865 0.429930
v -0.429041 -0.023399 0.513053
v -0.354340 -0.028425 0.436621
v -0.346780 -0.028396 0.437065
v -0.353579 0.008773 0.434428
v -0.272558 -0.023402 0.513010
v -0.272556 0.000600 0.492842
v -0.409974 0.013332 0.510815
v -0.429041 0.006486 0.511090
v -0.361774 0.038376 0.509204
v -0.333185 -0.029677 0.417580
v -0.336511 -0.028754 0.431618
v -0.272556 -0.032442 0.375538
v -0.429041 -0.032441 0.375538
v -0.429041 -0.094997 0.379651
v 0.078905 -0.094997 0.379649
v -0.339979 -0.030361 0.407182
v -0.272556 -0.008879 0.373988
v 0.071536 -0.097743 0.337886
v 0.097424 -0.095346 0.374342
v 0.053960 -0.097390 0.343246
v -0.400273 -0.097390 0.343246
v -0.018815 0.060652 0.331677
v -0.399942 -0.027184 -0.262597
v -0.254204 0.060652 0.331677
v -0.399940 0.060580 0.331670
v -0.400263 -0.136806 -0.256188
v -0.313911 -0.141199 -0.325855
v -0.340150 -0.142173 -0.340664
v -0.429041 -0.148058 -0.427384
v -0.092572 -0.136922 -0.257949
v -0.065504 -0.032534 -0.280977
v -0.088661 -0.030034 -0.264064
v -0.065039 -0.145545 -0.389092
v -0.065029 -0.138044 -0.275008
v -0.287939 -0.142203 -0.341125
v -0.261991 -0.148058 -0.427382
v -0.185878 -0.081092 -0.431814
v 0.082592 -0.148051 -0.427114
v -0.185919 -0.138665 -0.428001
v -0.228821 -0.088877 -0.431280
v -0.354686 -0.121829 -0.429107
v -0.314444 -0.145155 -0.386012
v -0.340416 -0.144151 -0.370745
v -0.288205 -0.144181 -0.371203
v -0.314443 -0.114193 -0.388048
v -0.287939 -0.111241 -0.343160
v -0.288205 -0.113219 -0.373240
v -0.302309 -0.112975 -0.369536
v -0.297660 -0.112414 -0.360995
v -0.297443 -0.070786 -0.357269
v -0.300316 -0.071654 -0.370469
v -0.298764 -0.111793 -0.351562
v -0.303119 -0.111387 -0.345374
v -0.305788 -0.070025 -0.345695
v -0.313911 -0.110237 -0.327890
v -0.311583 -0.111127 -0.341428
v -0.319222 -0.111174 -0.342143
v -0.316842 -0.069895 -0.343720
v -0.429041 -0.066012 -0.284672
v -0.327619 -0.070350 -0.350639
v -0.330481 -0.071004 -0.360588
v -0.328339 -0.111642 -0.349255
v -0.330325 -0.112418 -0.361059
v -0.340150 -0.111211 -0.342699
v -0.340416 -0.113189 -0.372780
v -0.325659 -0.112978 -0.369569
v -0.319056 -0.113251 -0.373734
v -0.309920 -0.113271 -0.374030
v -0.327413 -0.071654 -0.370477
v -0.317250 -0.072098 -0.377223
v -0.342015 -0.075608 -0.430662
v -0.290822 -0.075615 -0.430750
v -0.307695 -0.072027 -0.376144
v -0.317788 -0.061774 -0.433125
v -0.263675 -0.044187 -0.434248
v -0.209216 -0.031222 -0.435070
v -0.093467 -0.066012 -0.284672
v -0.093467 -0.075608 -0.430599
v -0.120333 -0.019201 -0.435924
v -0.093464 -0.017442 -0.436018
v -0.034209 -0.016101 -0.435318
v -0.072725 -0.020147 -0.505649
v -0.093467 0.005457 -0.289371
v 0.141965 0.093069 0.293159
v 0.134756 0.082048 0.320386
v 0.060531 0.104240 0.366434
v 0.140192 0.074947 0.302398
v 0.142094 0.065474 0.277804
v 0.141956 0.037874 0.198192
v 0.142212 0.019119 0.132670
v 0.142025 -0.019125 -0.142268
v -0.069912 0.103991 0.366215
v 0.142021 0.006941 0.074521
v 0.142021 -0.004883 -0.000854
v -0.429041 0.082341 0.221885
v 0.126262 0.099270 0.334459
v 0.134841 0.096798 0.318024
v 0.141897 -0.005002 -0.358922
v 0.142171 -0.025208 -0.234886
v 0.140961 -0.029157 -0.365061
v 0.023725 -0.016849 -0.435795
v 0.084415 -0.016217 -0.433589
v 0.134855 -0.009245 -0.387128
v 0.126261 -0.011719 -0.403586
v 0.115115 -0.013700 -0.416759
v 0.134779 -0.028814 -0.387395
v 0.101410 -0.015199 -0.426737
v 0.082916 -0.023080 -0.434933
v 0.100976 -0.025244 -0.427814
v 0.114552 -0.026761 -0.417869
v 0.126489 -0.027921 -0.403533
v 0.095308 -0.027904 -0.505859
v 0.015619 -0.051121 -0.503584
v 0.113841 -0.060742 -0.503933
v 0.145349 -0.036361 -0.506163
v 0.012919 -0.020291 -0.505609
v 0.183841 -0.035923 -0.350310
v 0.280316 -0.057193 -0.315053
v 0.200556 -0.036221 -0.265082
v 0.228982 -0.056359 -0.506952
v 0.186023 -0.043488 -0.478642
v 0.246439 -0.050806 -0.364864
v 0.299623 -0.071427 -0.434371
v 0.376676 -0.085341 -0.274235
v 0.337411 -0.069067 -0.241331
v 0.372431 -0.093688 -0.397016
v 0.331558 -0.092160 -0.508259
v 0.344191 -0.128242 -0.506454
v 0.225127 -0.085780 -0.504883
v 0.429020 -0.115336 -0.376295
v 0.398739 -0.119503 -0.484571
v 0.428976 -0.122039 -0.421190
v 0.348971 -0.100110 -0.507842
v 0.359465 -0.135398 -0.503275
v 0.377330 -0.111822 -0.498581
v 0.377330 -0.142568 -0.496559
v 0.356440 -0.137801 -0.502084
v 0.393386 -0.148457 -0.486644
v 0.376025 -0.145696 -0.494891
v 0.392030 -0.151565 -0.485004
v 0.372459 -0.147744 -0.490757
v 0.348487 -0.137940 -0.499358
v 0.397211 -0.158016 -0.465081
v 0.355954 -0.143008 -0.491186
v 0.388340 -0.153560 -0.480953
v 0.404829 -0.158942 -0.465478
v 0.402886 -0.155237 -0.475372
v 0.403982 -0.152043 -0.477287
v 0.411374 -0.157567 -0.465075
v 0.412797 -0.154478 -0.466632
v 0.424020 -0.125792 -0.447856
v 0.412822 -0.123732 -0.468616
v 0.423759 -0.156588 -0.446203
v 0.422788 -0.159609 -0.443540
v 0.428890 -0.152723 -0.422342
v 0.427334 -0.156499 -0.421471
v 0.427588 -0.148445 -0.367106
v 0.429002 -0.129221 -0.204163
v 0.428990 -0.093138 -0.171642
v 0.429018 -0.102065 -0.238667
v 0.429024 -0.053168 0.075016
v 0.429008 -0.067149 0.164311
v 0.427403 -0.132614 -0.203413
v 0.427673 -0.079758 0.118155
v 0.423660 -0.086506 0.096232
v 0.422409 -0.075273 0.153580
v 0.427585 -0.060948 0.197955
v 0.422433 -0.032573 0.303685
v 0.423759 -0.057461 0.219254
v 0.427688 -0.025058 0.316098
v 0.427580 0.028258 0.474730
v 0.423184 0.024800 0.472711
v 0.428981 0.031358 0.474690
v 0.429041 -0.025535 0.200771
v 0.429039 0.006025 0.305168
v 0.428831 0.063565 0.475078
v 0.419719 0.040578 0.501244
v 0.421257 0.044910 0.501493
v 0.420210 0.075675 0.501270
v 0.412856 0.049067 0.514466
v 0.405647 0.087774 0.521809
v 0.390822 0.055869 0.529114
v 0.401197 0.057914 0.527605
v 0.412680 0.039509 0.504580
v 0.362744 0.050008 0.500504
v 0.381812 0.036264 0.480512
v 0.364456 0.030737 0.500429
v 0.382437 0.017538 0.480826
v 0.390806 0.024288 0.455358
v 0.390821 0.005936 0.456089
v 0.418646 -0.008501 0.375345
v 0.390591 -0.023021 0.321842
v 0.390706 -0.023692 0.374102
v 0.390729 -0.064599 0.247553
v 0.418558 -0.059523 0.214336
v 0.390729 -0.052106 0.225134
v 0.390698 -0.068446 0.161942
v 0.390694 -0.093851 0.130580
v 0.417705 -0.087856 0.091645
v 0.390699 -0.081237 0.096399
v 0.390699 -0.124225 -0.177519
v 0.390697 -0.148279 -0.230528
v 0.390698 -0.140059 -0.337540
v 0.390686 -0.137614 -0.146489
v 0.418297 -0.129452 -0.165117
v 0.418309 -0.137691 -0.227377
v 0.423527 -0.135421 -0.208961
v 0.418334 -0.150972 -0.365195
v 0.390602 -0.147176 -0.386602
v 0.423589 -0.151316 -0.370316
v 0.415506 -0.161271 -0.434103
v 0.423298 -0.158716 -0.419495
v 0.419172 -0.161531 -0.438882
v 0.386172 -0.149571 -0.410380
v 0.390366 -0.165779 -0.387337
v 0.385980 -0.167697 -0.409404
v 0.373232 -0.165325 -0.433146
v 0.372678 -0.147022 -0.435119
v 0.357944 -0.161166 -0.447836
v 0.357912 -0.142946 -0.449059
v 0.342921 -0.155790 -0.457301
v 0.343082 -0.137691 -0.458442
v 0.326596 -0.149298 -0.463589
v 0.326513 -0.131049 -0.464806
v 0.309455 -0.123580 -0.467922
v 0.312062 -0.143102 -0.466517
v 0.324991 -0.141304 -0.399608
v 0.263857 -0.123757 -0.465819
v 0.190909 -0.089292 -0.333045
v 0.241400 -0.103444 -0.327905
v 0.272758 -0.118663 -0.378981
v 0.259295 -0.104346 -0.467036
v 0.202481 -0.085787 -0.466238
v 0.189851 -0.100803 -0.464851
v 0.135557 -0.069549 -0.465565
v 0.133960 -0.087524 -0.464338
v 0.114743 -0.079850 -0.414202
v 0.087637 -0.078961 -0.464027
v 0.100976 -0.078486 -0.424309
v 0.141419 -0.080541 -0.359561
v 0.134840 -0.081121 -0.383799
v 0.126174 -0.080694 -0.400607
v 0.114723 -0.146908 -0.409813
v 0.126203 -0.146018 -0.396276
v 0.086884 -0.144428 -0.372107
v 0.134840 -0.144922 -0.379604
v 0.096563 -0.143651 -0.360280
v 0.107876 -0.142000 -0.335173
v 0.019857 -0.042006 -0.362838
v -0.015507 -0.046618 -0.394121
v 0.029250 -0.036964 -0.327650
v 0.008674 -0.044361 -0.378819
v -0.001453 -0.045645 -0.387504
v 0.073699 -0.145091 -0.382181
v 0.100976 -0.147562 -0.419767
v 0.059677 -0.145478 -0.388074
v 0.110578 -0.140334 -0.309832
v 0.029657 -0.031060 -0.283207
v -0.051965 -0.027235 -0.264516
v 0.110402 -0.135906 -0.242496
v 0.110403 -0.136932 -0.258100
v -0.051966 -0.025177 -0.249022
v -0.051966 -0.003632 -0.105486
v 0.028953 -0.007896 -0.132132
v 0.029682 -0.022644 -0.230850
v 0.110380 -0.132336 -0.188213
v 0.141843 -0.143216 -0.353681
v 0.110463 -0.127838 -0.119798
v 0.110402 -0.126383 -0.097679
v 0.029406 -0.005069 -0.125196
v 0.110402 -0.125419 -0.083010
v -0.051966 -0.000583 -0.091040
v 0.110412 -0.120682 -0.010983
v 0.029754 0.001608 -0.072261
v -0.051966 0.020572 0.056791
v 0.028730 0.017213 0.037129
v 0.110613 -0.115629 0.065935
v 0.110402 -0.114539 0.082449
v 0.110661 -0.106675 0.202061
v 0.030164 0.025345 0.091533
v -0.051966 0.022978 0.073069
v -0.051966 0.040420 0.191806
v 0.029146 0.036960 0.173596
v -0.051965 0.042427 0.208374
v 0.110403 -0.105569 0.218873
v 0.141624 -0.099762 0.307150
v 0.110063 -0.101737 0.277123
v 0.029406 0.045324 0.225744
v 0.028170 0.051802 0.272158
v 0.103982 -0.100235 0.299982
v 0.024008 0.054312 0.288786
v 0.016488 0.056749 0.305273
v 0.096562 -0.099269 0.314681
v 0.134841 -0.098132 0.331974
v 0.126203 -0.097035 0.348647
v 0.086412 -0.098455 0.327048
v 0.114723 -0.096145 0.362185
v 0.126206 0.030959 0.340227
v 0.114670 0.036877 0.353481
v 0.097295 0.043793 0.365196
v 0.109377 0.050340 0.390570
v 0.173970 0.005100 0.283640
v 0.153277 0.057385 0.435758
v 0.078903 0.051238 0.370035
v 0.136758 0.077459 0.492603
v 0.221090 0.063487 0.491826
v 0.233565 0.043984 0.442052
v 0.225512 -0.001212 0.296929
v 0.300591 0.021951 0.424341
v 0.285155 0.052266 0.498770
v 0.341676 0.042255 0.512152
v 0.316465 0.051518 0.516195
v 0.229886 0.070929 0.514704
v 0.132303 0.084000 0.513938
v 0.229337 0.089257 0.513579
v 0.314487 0.070280 0.514969
v 0.310550 0.087584 0.548191
v 0.251728 0.101128 0.547047
v 0.340908 0.061020 0.511283
v 0.338335 0.078920 0.548140
v 0.337791 0.086687 0.553513
v 0.363171 0.071448 0.544763
v 0.363843 0.077294 0.548781
v 0.364903 0.110597 0.547024
v 0.388052 0.066078 0.537831
v 0.387619 0.099358 0.536325
v 0.343718 0.104769 0.504965
v 0.329542 0.063787 0.370270
v 0.274087 0.109055 0.461660
v 0.333844 0.121711 0.551818
v 0.270075 0.137900 0.550712
v 0.398267 0.066467 0.446795
v 0.396430 0.029623 0.335688
v 0.334607 0.039788 0.307489
v 0.337479 0.022008 0.255027
v 0.400371 0.001158 0.254901
v 0.335658 0.003131 0.199455
v 0.378853 -0.012449 0.189387
v 0.349762 -0.019288 0.124929
v 0.295098 -0.017457 0.069123
v 0.287637 0.003400 0.158247
v 0.428980 -0.043906 0.123528
v 0.341120 -0.029036 0.063937
v 0.285464 -0.032356 -0.049926
v 0.358610 -0.053675 -0.069413
v 0.380421 -0.078688 -0.195403
v 0.335112 -0.063089 -0.189796
v 0.283857 -0.048112 -0.177905
v 0.277828 -0.052127 -0.240460
v 0.206129 -0.032880 -0.197311
v 0.225734 -0.032697 -0.151638
v 0.254192 -0.020105 -0.004016
v 0.203304 -0.013704 -0.016684
v 0.166509 -0.019436 -0.113097
v 0.238656 -0.002668 0.088723
v 0.189409 -0.000171 0.061607
v 0.182269 0.016968 0.139946
v 0.227133 0.031466 0.211859
v 0.181267 0.036499 0.206079
v 0.233909 0.012722 0.152908
v 0.279390 0.017062 0.200084
v 0.278423 0.047952 0.288280
v 0.202673 0.050960 0.257034
v 0.208786 0.090552 0.370021
v 0.168033 0.084788 0.336587
v 0.168882 0.127623 0.458507
v 0.115538 0.162320 0.549079
v 0.072416 0.147536 0.493255
v 0.116172 0.118600 0.416474
v 0.196921 0.152204 0.549765
v 0.238870 0.113560 0.552319
v 0.117993 0.130939 0.551137
v -0.007200 0.134033 0.550331
v 0.108680 0.127387 0.550067
v 0.182326 0.119112 0.550642
v 0.260921 0.104842 0.551609
v 0.183312 0.113488 0.546266
v 0.112638 0.122764 0.546228
v 0.018199 0.128728 0.546789
v 0.110463 0.104417 0.512511
v 0.033532 0.124807 0.541927
v 0.016761 0.117234 0.510618
v 0.027476 0.111626 0.512131
v 0.026017 0.090987 0.509557
v 0.015875 0.096180 0.508050
v 0.014378 0.113583 0.486571
v 0.013521 0.092576 0.484279
v 0.004844 0.083269 0.457002
v 0.016709 0.086030 0.470654
v 0.006297 0.104840 0.460435
v -0.011385 0.099843 0.455772
v -0.006832 0.096585 0.436362
v -0.007481 0.075755 0.434594
v -0.024509 0.089042 0.415275
v -0.025013 0.068280 0.413714
v -0.054980 0.082539 0.408570
v -0.046170 0.082164 0.397944
v -0.042484 0.062700 0.398797
v -0.070347 0.076155 0.385395
v -0.070382 0.055545 0.384175
v -0.096804 0.071736 0.377593
v -0.110188 0.072182 0.390083
v -0.099266 0.075919 0.398431
v -0.123325 0.072718 0.395954
v -0.101965 0.079744 0.402641
v -0.124344 0.075869 0.400032
v -0.146819 0.075095 0.403288
v -0.147902 0.109026 0.401843
v -0.168975 0.108233 0.408345
v -0.124623 0.079528 0.401312
v -0.124416 0.110960 0.399230
v -0.101839 0.113891 0.401187
v -0.079289 0.117655 0.407785
v -0.079179 0.083680 0.409341
v -0.058687 0.089033 0.420187
v -0.067081 0.082028 0.409671
v -0.033356 0.092290 0.434854
v -0.025593 0.099966 0.451442
v -0.040619 0.094899 0.434654
v -0.011509 0.104383 0.469795
v -0.002973 0.111682 0.492990
v -0.015885 0.107494 0.470892
v -0.008462 0.149827 0.494884
v -0.016120 0.141252 0.469558
v -0.008010 0.116036 0.496740
v -0.027041 0.103491 0.451607
v -0.041520 0.128247 0.432385
v -0.026975 0.134444 0.449693
v 0.004590 0.105870 0.366754
v 0.018616 0.167697 0.548658
v -0.059523 0.122510 0.418038
v -0.007351 0.166695 0.548401
v -0.001841 0.127828 0.546927
v 0.010124 0.074732 0.431906
v 0.087158 0.101930 0.365005
v 0.114723 0.094197 0.349667
v 0.099740 0.099227 0.360069
v 0.096861 0.103183 0.360444
v 0.114862 0.101280 0.347824
v 0.125961 0.088659 0.336867
v 0.279136 -0.021030 0.276605
v 0.337334 -0.050042 0.238176
v 0.241446 -0.039808 0.176947
v 0.230954 -0.048373 0.130293
v 0.313523 -0.065044 0.153133
v 0.320829 -0.082986 0.073836
v 0.185509 -0.028641 0.173980
v 0.142021 -0.033330 0.124647
v 0.182698 -0.042744 0.108340
v 0.142020 -0.013859 0.201869
v 0.141056 0.016470 0.302362
v 0.134841 0.024439 0.323915
v 0.185717 -0.057282 0.031645
v 0.247187 -0.066483 0.055117
v 0.142021 -0.050961 0.026590
v 0.247299 -0.075824 -0.007215
v 0.200506 -0.076334 -0.103673
v 0.246787 -0.089070 -0.117195
v 0.142109 -0.067160 -0.121628
v 0.162458 -0.076985 -0.221707
v 0.214044 -0.090468 -0.245689
v 0.284080 -0.109322 -0.219460
v 0.291461 -0.104181 -0.140176
v 0.316260 -0.099265 -0.040049
v 0.007240 0.058536 0.317369
v -0.006152 0.060064 0.327703
v -0.065504 -0.046658 -0.394355
v 0.083449 -0.076193 -0.431425
v 0.027956 -0.073100 -0.463802
v 0.027854 -0.071100 -0.432450
v 0.027924 -0.146986 -0.462420
v 0.027924 -0.138666 -0.428002
v 0.027924 -0.096137 -0.462302
v 0.027924 -0.099808 -0.485201
v 0.000414 -0.097994 -0.485415
v 0.007983 -0.053285 -0.464946
v -0.012143 -0.093893 -0.462213
v -0.088964 -0.054327 -0.465001
v -0.080001 -0.095176 -0.462295
v -0.075317 -0.098486 -0.484914
v -0.136366 -0.100137 -0.462523
v -0.141092 -0.105050 -0.509249
v -0.149683 -0.105469 -0.486124
v -0.000944 -0.098516 -0.508346
v -0.075947 -0.099150 -0.508448
v -0.074978 -0.094184 -0.532270
v -0.143418 -0.100529 -0.533698
v -0.124558 -0.126759 -0.557132
v -0.124530 -0.088222 -0.556563
v -0.144541 -0.138459 -0.532811
v -0.164300 -0.109233 -0.508939
v -0.164350 -0.144833 -0.509048
v -0.184084 -0.111603 -0.485763
v -0.203637 -0.110611 -0.462976
v -0.184158 -0.147309 -0.485540
v -0.203793 -0.146986 -0.462420
v 0.027924 -0.147309 -0.485540
v 0.027924 -0.144833 -0.509048
v 0.027924 -0.138459 -0.532811
v 0.027923 -0.100392 -0.508518
v 0.027923 -0.095525 -0.532185
v 0.027923 -0.085350 -0.556391
v 0.027924 -0.126759 -0.557132
v -0.000128 -0.093776 -0.531814
v -0.012143 -0.083107 -0.556311
v -0.079999 -0.084389 -0.556383
v -0.178854 -0.064677 -0.465478
v -0.203694 -0.088778 -0.464447
v -0.230085 -0.093437 -0.464662
v -0.250750 -0.080363 -0.466166
v -0.278004 -0.088371 -0.466764
v -0.335631 -0.124316 -0.466389
v -0.429040 -0.124316 -0.466486
v -0.429030 -0.088597 -0.469235
v -0.429041 -0.121858 -0.429107
v -0.429032 -0.071231 -0.432462
v -0.429041 -0.075609 -0.430617
v -0.396041 -0.075478 -0.431456
v -0.402354 -0.073315 -0.509043
v -0.346048 -0.069889 -0.508165
v -0.366363 -0.073228 -0.432359
v -0.306569 -0.090951 -0.505551
v -0.289615 -0.056501 -0.507108
v -0.184555 -0.061975 -0.504077
v -0.259966 -0.044419 -0.477546
v -0.259647 -0.047079 -0.506754
v -0.205472 -0.033166 -0.480045
v -0.166656 -0.028816 -0.506005
v -0.075594 -0.051324 -0.503632
v -0.079802 -0.054857 -0.501940
v 0.016371 -0.054548 -0.501871
v 0.099171 -0.065258 -0.497979
v 0.101565 -0.062672 -0.502196
v -0.025431 -0.056683 -0.497716
v 0.023465 -0.057945 -0.497741
v 0.096859 -0.065925 -0.492455
v 0.014378 -0.058059 -0.492491
v 0.086056 -0.060521 -0.465219
v -0.076148 -0.058416 -0.492376
v -0.082339 -0.057969 -0.497822
v -0.129190 -0.062844 -0.492427
v -0.143903 -0.063483 -0.498057
v -0.176865 -0.068697 -0.492612
v -0.231678 -0.079299 -0.493086
v -0.200510 -0.071859 -0.498346
v -0.271773 -0.088328 -0.498530
v -0.225860 -0.074171 -0.502753
v -0.173639 -0.064265 -0.502375
v -0.292585 -0.090779 -0.503157
v -0.269709 -0.088898 -0.493311
v 0.137722 -0.073256 -0.492753
v 0.140665 -0.072739 -0.498274
v 0.212639 -0.090629 -0.493572
v 0.213341 -0.089468 -0.498955
v 0.301726 -0.120236 -0.494497
v 0.286139 -0.113222 -0.499828
v 0.227332 -0.090523 -0.503251
v 0.290699 -0.111479 -0.504083
v 0.339470 -0.130379 -0.504812
v 0.160320 -0.073893 -0.502598
v -0.429039 -0.091152 -0.508171
v -0.429027 -0.073455 -0.509046
v 0.390691 -0.158469 -0.336350
v -0.429034 0.015957 0.372459
v -0.429041 0.005457 -0.289371
v -0.395738 0.037047 0.433298
v -0.398788 0.016936 0.372435
v -0.429041 0.051501 0.472841
v -0.412652 0.077088 0.554520
v -0.429041 0.029433 0.517593
v -0.409095 0.051685 0.474633
v -0.428976 0.075836 0.554574
v -0.429041 0.007682 0.514997
v -0.413769 0.013004 0.514629
v -0.410331 0.036278 0.517128
v -0.390966 0.040330 0.550115
v -0.419596 0.028966 0.550388
v -0.415243 0.033254 0.555845
v -0.387631 0.044579 0.555149
v -0.428999 0.031236 0.557131
v -0.388735 0.047936 0.556450
v -0.370855 0.087476 0.553852
v -0.393008 0.080647 0.554272
v -0.331572 0.079440 0.554392
v -0.328495 0.110449 0.552357
v -0.304838 0.120095 0.551689
v -0.300402 0.088412 0.449043
v -0.342293 0.070021 0.452687
v -0.323197 0.076609 0.443574
v -0.372728 0.064286 0.483481
v -0.362040 0.058671 0.452046
v -0.323010 0.024072 0.447056
v -0.342975 0.024647 0.455856
v -0.338366 0.008489 0.430898
v -0.363040 0.024485 0.453899
v -0.346489 0.008733 0.434456
v -0.378172 0.046139 0.443555
v -0.378276 0.023912 0.444906
v -0.387901 0.023078 0.432095
v -0.387656 0.037633 0.431835
v -0.391464 0.030060 0.416479
v -0.390565 0.054049 0.473769
v -0.388876 0.026115 0.402048
v -0.380583 0.024722 0.389636
v -0.380781 0.019645 0.372223
v -0.334283 0.007926 0.424651
v -0.333028 0.007418 0.418332
v -0.312256 0.023078 0.432080
v -0.312256 0.075017 0.428664
v -0.309677 0.070282 0.413756
v -0.309617 0.022159 0.417386
v -0.313171 0.063707 0.399576
v -0.313171 0.021125 0.402376
v -0.429023 0.027051 0.549504
v -0.272557 0.060314 0.493230
v -0.256963 0.050785 0.446678
v -0.272512 0.042327 0.424694
vn 1.0000 -0.0000 0.0001
vn 0.0004 0.0659 0.9978
vn -0.0000 0.0657 0.9978
vn -0.0000 -0.9971 0.0765
vn 1.0000 -0.0002 -0.0000
vn -0.0000 0.0656 0.9978
vn 0.0887 0.9662 -0.2421
vn -0.4457 0.0587 0.8933
vn -1.0000 0.0001 0.0003
vn -1.0000 -0.0001 0.0001
vn -1.0000 -0.0000 0.0001
vn -0.0000 0.0655 0.9979
vn -0.0003 0.0616 0.9981
vn 0.0004 0.0679 0.9977
vn -0.0008 0.0646 0.9979
vn 0.0001 0.9629 -0.2697
vn -0.0000 0.9629 -0.2699
vn 0.0954 -0.9784 0.1833
vn 0.0777 -0.9810 0.1778
vn 0.1187 -0.9676 0.2226
vn 0.0950 -0.9676 0.2340
vn 0.0982 -0.9799 0.1737
vn -0.0818 -0.0504 0.9954
vn 0.1168 -0.0469 0.9921
vn 0.0965 -0.9491 0.2998
vn 0.1232 -0.0362 0.9917
vn 0.1024 -0.9763 0.1906
vn 0.2968 -0.0346 0.9543
vn 0.0967 -0.9772 0.1889
vn 0.2967 -0.0348 0.9543
vn 0.4696 -0.0195 0.8827
vn 0.4713 -0.0220 0.8817
vn 0.0949 -0.9770 0.1908
vn 0.0927 -0.9775 0.1897
vn 0.3683 -0.7743 0.5145
vn 0.3185 -0.7176 0.6193
vn 0.3198 -0.7110 0.6263
vn 0.5565 -0.6082 0.5661
vn 0.0822 -0.9744 0.2092
vn 0.0842 -0.9777 0.1923
vn 0.7721 0.0234 0.6351
vn 0.7726 0.0223 0.6345
vn 0.6323 0.0006 0.7747
vn 0.0763 -0.9751 0.2084
vn 0.8827 0.0482 0.4675
vn 0.0506 -0.9739 0.2211
vn 0.9580 0.0753 0.2768
vn 0.9581 0.0749 0.2766
vn 0.8828 0.0486 0.4672
vn 0.0537 -0.9673 0.2480
vn 0.9488 0.0708 0.3079
vn 0.9474 0.0763 0.3107
vn 0.0275 -0.9530 0.3016
vn 0.0536 -0.9673 0.2480
vn 0.2053 -0.9134 0.3515
vn 0.2266 -0.9127 0.3401
vn 0.2248 -0.9093 0.3501
vn 0.0446 -0.1211 0.9916
vn 0.0449 -0.1202 0.9917
vn 0.0579 -0.1166 0.9915
vn 0.0619 -0.1215 0.9907
vn 0.3166 -0.9485 0.0124
vn 0.2402 -0.9642 0.1120
vn 0.3263 -0.9451 0.0187
vn 0.2015 -0.7120 0.6727
vn 0.2931 -0.8639 0.4096
vn 0.2903 -0.8035 0.5197
vn 0.2669 -0.9568 0.1152
vn 0.6392 -0.7259 0.2540
vn 0.0276 -0.9530 0.3017
vn 0.6582 -0.7090 0.2532
vn 0.9569 0.0182 0.2899
vn 0.9624 -0.0020 0.2717
vn 0.9988 -0.0306 0.0384
vn 0.8475 -0.4935 0.1957
vn 1.0000 0.0080 0.0004
vn 0.6083 -0.7026 0.3692
vn 0.8812 0.0161 0.4725
vn 0.8823 0.0141 0.4704
vn 0.4962 -0.7651 0.4103
vn 0.6276 -0.6809 0.3775
vn 0.7747 0.0273 0.6318
vn 0.7757 0.0260 0.6305
vn 0.5347 -0.6475 0.5429
vn 0.6339 0.0330 0.7727
vn -0.1855 0.9303 -0.3163
vn -0.1914 0.9280 -0.3195
vn -0.2079 0.9282 -0.3086
vn -0.0281 0.1494 0.9884
vn -0.0098 0.1183 0.9929
vn -0.2682 0.9184 -0.2909
vn -0.3100 0.8929 -0.3267
vn -0.2249 0.9265 -0.3019
vn -0.0031 0.0949 0.9955
vn -0.0081 0.0799 0.9968
vn -0.4527 0.8494 -0.2713
vn -0.4550 0.8470 -0.2749
vn -0.3576 0.8856 -0.2965
vn -0.0080 0.0799 0.9968
vn -0.4885 0.8325 -0.2613
vn -0.4480 0.8509 -0.2742
vn -0.4926 0.8149 -0.3055
vn -0.4578 0.8341 -0.3076
vn 0.2272 0.0317 0.9733
vn -0.1345 0.1111 0.9847
vn -0.1740 0.0640 0.9827
vn -0.5298 0.0557 0.8463
vn -0.5313 0.0565 0.8453
vn -0.2950 0.8583 0.4198
vn -0.0764 0.8645 0.4969
vn -0.3018 0.8565 0.4187
vn -0.0422 0.8538 0.5188
vn 0.5503 0.0482 0.8335
vn -0.0956 0.0699 0.9930
vn 0.1502 0.8704 0.4688
vn 0.2706 0.8831 0.3833
vn 0.5589 0.8276 0.0528
vn 0.3168 0.8736 0.3695
vn 0.5985 0.0649 0.7985
vn 0.9587 0.0288 0.2831
vn 0.9713 0.0132 0.2376
vn 0.4938 0.8367 -0.2369
vn 0.9401 -0.0369 -0.3390
vn 0.4956 0.8681 0.0289
vn 0.4012 0.8971 0.1850
vn 0.9655 -0.0108 -0.2600
vn -0.0000 -0.9978 0.0656
vn 0.5948 -0.0423 -0.8027
vn 0.0588 -0.0599 -0.9965
vn 0.5451 -0.0604 -0.8362
vn 1.0000 -0.0001 -0.0000
vn 0.0006 0.0651 0.9979
vn 0.0034 0.0664 0.9978
vn -0.0030 0.0485 0.9988
vn 0.0008 0.0626 0.9980
vn 0.0003 0.0655 0.9979
vn 1.0000 -0.0000 -0.0000
vn 0.0005 -0.9968 0.0795
vn -0.1849 0.0924 0.9784
vn -0.5564 0.0315 0.8303
vn -0.8373 0.0647 0.5428
vn 0.2760 0.0631 0.9591
vn -0.0000 -0.0730 -0.9973
vn 1.0000 -0.0029 0.0002
vn 1.0000 -0.0021 0.0003
vn 0.0001 -0.0731 -0.9973
vn 0.0057 0.0583 0.9983
vn -0.0000 -0.9980 0.0629
vn 0.0009 -0.9979 0.0640
vn 0.0025 -0.9979 0.0652
vn -0.0001 -0.9978 0.0656
vn 0.5274 0.0504 0.8481
vn 0.5914 0.0245 0.8060
vn 0.0052 0.0569 0.9984
vn -0.0006 -0.9979 0.0647
vn -0.0016 -0.9977 0.0672
vn -0.0000 -0.0661 -0.9978
vn -0.0006 -0.0654 -0.9979
vn 0.0008 -0.0720 -0.9974
vn -0.0000 -0.0657 -0.9978
vn -0.0000 -0.0656 -0.9978
vn -0.0014 -0.9977 0.0682
vn 0.0101 -0.9965 0.0828
vn -0.0000 -0.9976 0.0688
vn -0.0068 -0.9978 0.0657
vn -0.4923 0.0571 0.8685
vn -1.0000 0.0006 0.0088
vn -0.9930 0.0157 -0.1173
vn -0.9768 -0.0140 0.2136
vn -0.8785 0.0531 0.4747
vn -0.8182 -0.0533 -0.5724
vn -0.4232 -0.0343 -0.9054
vn -0.8116 -0.0569 -0.5814
vn -0.1762 -0.0770 -0.9813
vn 0.0934 -0.0434 -0.9947
vn -0.0001 0.9978 -0.0657
vn -0.0000 0.9978 -0.0656
vn 0.5411 -0.0632 -0.8386
vn 0.9612 -0.0260 -0.2748
vn 0.6158 -0.0371 -0.7870
vn 0.9861 0.0056 -0.1662
vn 1.0000 -0.0006 -0.0088
vn 0.4923 -0.0571 -0.8685
vn 0.5076 0.0565 0.8597
vn 0.5342 0.0412 0.8443
vn 0.0325 0.0830 0.9960
vn 0.5539 0.0462 0.8313
vn -0.1124 0.0569 0.9920
vn -0.6105 0.0473 0.7906
vn -0.5091 0.0714 0.8577
vn -0.0213 0.1287 0.9915
vn 0.0017 0.1724 0.9850
vn -0.0142 0.1228 0.9923
vn -0.0008 0.0982 0.9952
vn -0.0001 0.9978 -0.0656
vn -0.0030 0.0926 0.9957
vn -0.0026 0.0928 0.9957
vn -1.0000 -0.0000 -0.0000
vn -0.0654 0.9962 -0.0582
vn -0.0207 0.9895 -0.1433
vn -0.0221 0.9987 -0.0454
vn 0.0141 0.9879 -0.1543
vn 0.9610 0.0450 0.2727
vn 0.9621 0.0377 0.2700
vn -0.0016 0.9883 -0.1525
vn 0.0031 0.9891 -0.1473
vn 0.9942 -0.0486 0.0956
vn 1.0000 0.0070 -0.0041
vn 0.9999 -0.0136 0.0078
vn 0.9998 0.0192 -0.0073
vn 1.0000 0.0022 -0.0004
vn 1.0000 0.0007 -0.0000
vn -0.0001 0.9890 -0.1481
vn 1.0000 0.0010 -0.0002
vn 0.0022 0.9889 -0.1487
vn -0.0000 0.9889 -0.1487
vn 0.0016 0.9890 -0.1479
vn 0.9999 0.0165 0.0005
vn 0.9993 -0.0367 -0.0082
vn 0.9690 0.0249 -0.2457
vn 0.0113 0.9855 -0.1693
vn -0.0050 0.9895 -0.1447
vn 0.0004 0.9889 -0.1488
vn 0.9638 -0.0001 -0.2668
vn 0.8862 0.0029 -0.4632
vn -0.0002 0.9889 -0.1486
vn 0.0001 0.9889 -0.1488
vn 0.0011 0.9888 -0.1496
vn 0.3668 0.1009 -0.9248
vn 0.3740 0.0829 -0.9237
vn 0.5943 0.0604 -0.8020
vn 0.5849 0.0436 -0.8099
vn 0.7688 0.0087 -0.6394
vn 0.1510 0.9875 -0.0458
vn 0.1428 0.9888 -0.0441
vn 0.7616 0.0222 -0.6477
vn -0.0092 -0.0663 -0.9978
vn -0.0098 -0.0641 -0.9979
vn -0.0176 -0.0685 -0.9975
vn 0.1358 0.9898 -0.0436
vn 0.1904 0.9800 -0.0579
vn 0.1662 0.9851 -0.0438
vn 0.0916 0.9938 -0.0632
vn 0.1053 0.9932 -0.0492
vn 0.1703 0.9849 -0.0300
vn 0.1663 0.9856 -0.0314
vn 0.1661 0.9856 -0.0309
vn 0.2250 0.9739 -0.0281
vn 0.2296 0.9724 -0.0416
vn 0.1660 0.9856 -0.0307
vn 0.2547 0.9656 -0.0526
vn 0.2166 0.9741 -0.0647
vn 0.2077 0.9767 -0.0540
vn 0.2814 0.9571 -0.0686
vn 0.2779 0.9579 -0.0716
vn 0.3267 0.9421 -0.0753
vn 0.3271 0.9420 -0.0755
vn 0.2862 0.9558 -0.0677
vn 0.3432 0.9324 -0.1133
vn 0.3257 0.9375 -0.1223
vn 0.0013 -0.0495 -0.9988
vn -0.0354 -0.0623 -0.9974
vn -0.0356 -0.0655 -0.9972
vn 0.3963 0.9084 -0.1331
vn 0.3994 0.9067 -0.1358
vn 0.4142 0.9000 -0.1357
vn 0.4212 0.8918 -0.1653
vn 0.1684 -0.0771 -0.9827
vn 0.2971 -0.0351 -0.9542
vn 0.4184 0.8961 -0.1482
vn 0.5327 -0.0555 -0.8445
vn 0.3293 -0.0620 -0.9422
vn 0.5160 -0.0341 -0.8559
vn 0.1117 -0.5035 -0.8567
vn 0.0984 -0.5386 -0.8368
vn 0.2889 -0.5416 -0.7894
vn 0.2886 -0.5422 -0.7891
vn -0.1400 -0.8339 -0.5339
vn -0.0350 -0.8832 -0.4677
vn -0.1610 -0.8434 -0.5126
vn -0.2520 -0.9085 -0.3332
vn -0.2709 -0.9550 -0.1210
vn -0.2808 -0.9534 -0.1107
vn -0.0352 -0.8835 -0.4672
vn -0.1285 -0.9712 -0.2008
vn 0.0287 -0.9342 -0.3555
vn 0.0499 -0.9132 -0.4044
vn 0.2126 -0.9006 -0.3790
vn 0.4302 -0.5682 -0.7015
vn 0.5729 -0.5570 -0.6012
vn 0.5701 -0.5638 -0.5975
vn 0.8784 -0.0315 -0.4769
vn 0.8793 -0.0329 -0.4752
vn 0.7651 -0.0421 -0.6425
vn 0.7116 -0.5489 -0.4386
vn 0.9781 -0.0194 -0.2072
vn 0.9052 -0.4049 -0.1291
vn 0.6876 -0.5920 -0.4205
vn 0.9830 0.0041 -0.1833
vn 1.0000 -0.0028 -0.0006
vn 1.0000 -0.0033 -0.0002
vn 0.9058 -0.4032 -0.1298
vn 0.9275 -0.3705 0.0506
vn 0.7809 -0.6212 0.0665
vn 1.0000 -0.0005 0.0001
vn 1.0000 -0.0001 0.0004
vn 1.0000 0.0005 -0.0002
vn 1.0000 -0.0006 0.0001
vn 0.9630 -0.2658 0.0448
vn 0.9073 -0.4184 0.0415
vn 0.9082 -0.4132 0.0671
vn 0.7719 -0.6186 0.1467
vn 0.4718 -0.8633 0.1794
vn 0.6136 -0.7792 0.1276
vn 0.5843 -0.7897 0.1868
vn 0.6073 -0.7594 0.2334
vn 0.5642 -0.7901 0.2395
vn 0.9356 -0.3381 0.1019
vn 0.4613 -0.8587 0.2234
vn 0.5156 -0.8120 0.2733
vn 0.5138 -0.8131 0.2736
vn 0.9033 -0.4064 0.1372
vn 0.9755 -0.2095 0.0666
vn 1.0000 -0.0021 0.0007
vn 1.0000 -0.0012 0.0005
vn 1.0000 0.0047 -0.0004
vn 0.9610 0.0011 0.2764
vn 0.8517 -0.3261 0.4103
vn 0.8299 -0.3696 0.4178
vn 0.9539 0.0346 0.2980
vn 0.8437 0.0326 0.5359
vn 0.7534 -0.3013 0.5844
vn 0.8280 0.0482 0.5587
vn 0.7530 0.0155 0.6578
vn 0.2315 -0.7015 0.6740
vn 0.2358 -0.6962 0.6780
vn 0.4007 -0.6622 0.6331
vn -0.2197 -0.8906 0.3981
vn 0.3491 -0.8060 0.4780
vn -0.1852 -0.9141 0.3608
vn 0.3895 -0.7807 0.4887
vn -0.2197 -0.8891 0.4016
vn 0.7436 0.0635 0.6656
vn 0.7485 0.0361 0.6622
vn 0.9464 0.0370 0.3208
vn -0.1831 -0.9114 0.3685
vn 0.9489 0.0133 0.3153
vn 1.0000 0.0007 -0.0019
vn -0.1600 -0.9317 0.3261
vn -0.1479 -0.9321 0.3305
vn 1.0000 0.0021 -0.0022
vn 1.0000 0.0071 -0.0021
vn 1.0000 0.0016 0.0009
vn -0.1421 -0.9480 0.2849
vn -0.1186 -0.9492 0.2914
vn -0.1056 -0.9443 0.3116
vn 1.0000 -0.0007 -0.0003
vn -0.1588 -0.9558 0.2472
vn 1.0000 -0.0003 0.0001
vn 1.0000 0.0003 -0.0004
vn -0.1435 -0.9602 0.2398
vn -0.1532 -0.9661 0.2079
vn -0.2025 -0.9611 0.1876
vn 1.0000 -0.0003 -0.0000
vn -0.2100 -0.9659 0.1516
vn 1.0000 -0.0008 0.0001
vn 1.0000 -0.0005 0.0002
vn -0.2940 -0.9512 0.0941
vn -0.2395 -0.9625 0.1273
vn -0.2504 -0.9558 0.1543
vn 0.0942 -0.9910 0.0955
vn -0.0316 -0.9909 0.1311
vn -0.2848 -0.9542 0.0919
vn -0.2395 -0.9608 0.1398
vn -0.2491 -0.9563 0.1531
vn 0.0304 -0.9947 0.0980
vn 0.0761 -0.9866 0.1443
vn -0.2631 -0.9538 0.1451
vn -0.1166 -0.9925 -0.0354
vn -0.3101 -0.9470 0.0836
vn 0.0457 -0.9879 0.1484
vn 0.0915 -0.9881 0.1240
vn 0.9832 -0.0052 -0.1827
vn 0.9809 -0.0208 -0.1932
vn 0.8790 -0.0349 -0.4755
vn 0.8765 -0.0253 -0.4807
vn -0.3247 -0.9424 0.0800
vn 0.6787 -0.0480 -0.7329
vn 0.6835 -0.0577 -0.7277
vn -0.3303 -0.9409 0.0748
vn 0.5177 -0.0564 -0.8537
vn 0.5189 -0.0584 -0.8528
vn -0.3517 -0.9360 0.0177
vn -0.3437 -0.9389 0.0173
vn -0.3734 -0.9277 0.0038
vn 0.3364 -0.0611 -0.9397
vn 0.3371 -0.0622 -0.9394
vn -0.3968 -0.9175 -0.0269
vn 0.1584 -0.0498 -0.9861
vn 0.1705 -0.0648 -0.9832
vn -0.4120 -0.9004 0.1401
vn -0.4043 -0.9089 0.1025
vn -0.3695 -0.9242 0.0962
vn -0.0456 -0.0778 -0.9959
vn -0.2777 -0.9559 0.0956
vn -0.2941 -0.9519 0.0855
vn -0.3156 -0.9448 0.0878
vn -0.3653 -0.9264 0.0918
vn -0.0457 -0.0732 -0.9963
vn -0.0373 -0.0712 -0.9968
vn -0.0330 -0.0643 -0.9974
vn -0.0248 -0.0659 -0.9975
vn -0.0269 -0.0695 -0.9972
vn -0.2295 -0.9694 0.0865
vn -0.0190 -0.0664 -0.9976
vn -0.1622 -0.9828 0.0883
vn -0.1725 -0.9814 0.0841
vn -0.1808 -0.9808 0.0725
vn -0.2151 -0.9733 0.0802
vn -0.2079 -0.9749 0.0798
vn -0.2029 -0.9759 0.0798
vn 0.7634 -0.0424 -0.6446
vn 0.7634 -0.0424 -0.6445
vn 0.8881 -0.0300 -0.4586
vn 0.8883 -0.0301 -0.4582
vn -0.7453 -0.5531 0.3722
vn -0.6611 -0.4845 0.5729
vn -0.7571 -0.5872 0.2862
vn 0.0145 -0.9914 0.1298
vn 0.0001 -0.9893 0.1458
vn 0.0208 -0.9904 0.1363
vn -0.6772 -0.4926 0.5465
vn -0.0008 -0.9891 0.1471
vn -0.5698 -0.3919 0.7223
vn -0.5496 -0.3796 0.7442
vn 0.0002 -0.9978 0.0658
vn -0.0001 -0.9978 0.0657
vn -0.3713 -0.2325 0.8989
vn -0.0000 -0.9978 0.0658
vn -0.0082 0.0549 0.9985
vn -0.3984 -0.2490 0.8828
vn 0.5873 -0.0530 -0.8076
vn 0.5875 -0.0531 -0.8075
vn 0.3718 -0.0609 -0.9263
vn -0.7901 -0.6003 0.1237
vn -0.7902 -0.6066 0.0878
vn 0.0768 -0.9658 0.2477
vn -0.0163 -0.9911 0.1318
vn -0.5631 -0.8192 0.1088
vn -0.5605 -0.8264 0.0543
vn -0.2232 -0.3828 -0.8964
vn 0.0767 -0.9658 0.2478
vn 0.0770 -0.9884 0.1313
vn -0.0032 -0.9889 0.1484
vn 0.0699 -0.9865 0.1481
vn -0.0022 -0.9890 0.1477
vn -0.2036 -0.2426 0.9485
vn -0.8174 -0.5706 0.0792
vn -0.8119 -0.5825 0.0380
vn 0.0001 -0.9978 0.0656
vn -0.8283 -0.5590 0.0378
vn -0.8347 -0.5496 0.0338
vn -0.8098 -0.5230 0.2660
vn 0.0738 -0.9252 0.3722
vn -0.2259 -0.3564 -0.9066
vn -0.6038 -0.7954 0.0523
vn -0.6063 -0.7781 0.1642
vn -0.2132 -0.2160 0.9528
vn -0.8423 -0.5378 0.0355
vn -0.0060 -0.9899 0.1417
vn -0.8480 -0.5257 0.0671
vn -0.0068 -0.9900 0.1412
vn -0.8542 -0.5187 0.0363
vn -0.2358 -0.3426 -0.9094
vn -0.0005 -0.9978 0.0656
vn 0.0036 -0.9978 0.0659
vn -0.6430 -0.7647 0.0423
vn -0.8659 -0.4990 0.0347
vn -0.2106 -0.1832 0.9603
vn -0.6460 -0.7551 0.1116
vn -0.0042 -0.9894 0.1453
vn 0.0005 -0.9895 0.1445
vn 0.0018 -0.9893 0.1462
vn 0.0015 -0.9894 0.1453
vn -0.2209 -0.3087 -0.9252
vn -0.0108 -0.9901 0.1400
vn -0.6716 -0.7399 0.0384
vn -0.0161 -0.9926 0.1203
vn -0.6741 -0.7333 0.0889
vn -0.8803 -0.4737 0.0260
vn -0.2012 -0.1520 0.9677
vn 0.0057 -0.9904 0.1384
vn -0.8821 -0.4691 0.0420
vn -0.8621 -0.4662 -0.1987
vn -0.8738 -0.4629 -0.1488
vn -0.0026 -0.9889 0.1486
vn -0.0000 -0.9893 0.1462
vn -0.8365 -0.4483 -0.3152
vn -0.8102 -0.4467 -0.3796
vn -0.7201 -0.4036 -0.5644
vn 0.7630 0.0425 0.6450
vn 0.7634 0.0424 0.6445
vn 0.5758 0.0536 0.8158
vn 0.5730 0.0543 0.8178
vn -0.1586 -0.9351 0.3168
vn -0.1078 -0.9393 0.3256
vn -0.1594 -0.9401 0.3014
vn -0.1326 -0.9390 0.3172
vn -0.1984 -0.9207 0.3362
vn -0.2306 -0.9251 0.3017
vn -0.2678 -0.8944 0.3583
vn 0.2777 0.0630 0.9586
vn 1.0000 -0.0000 -0.0002
vn -0.1864 -0.9422 0.2785
vn -0.1539 -0.9449 0.2890
vn -0.1803 -0.9303 0.3193
vn -0.1798 -0.9375 0.2978
vn -0.1921 -0.9339 0.3015
vn -0.2251 -0.9267 0.3011
vn -0.1967 -0.9286 0.3146
vn -0.2150 -0.9192 0.3298
vn -0.2535 -0.8723 0.4181
vn -0.2388 -0.9156 0.3234
vn -0.1991 -0.9068 0.3715
vn -0.2113 -0.9163 0.3403
vn 0.0004 0.0612 0.9981
vn -0.1300 -0.9552 0.2657
vn -0.0026 0.0650 0.9979
vn -0.0027 0.0612 0.9981
vn -0.1494 -0.9219 0.3574
vn -0.2104 -0.8771 0.4319
vn -0.2695 -0.8668 0.4195
vn -0.2018 -0.8727 0.4446
vn 0.1657 0.0817 0.9828
vn -0.2506 -0.8776 0.4087
vn -0.2376 -0.8802 0.4109
vn -0.0570 -0.5707 0.8192
vn -0.1757 -0.5683 0.8038
vn -0.0566 -0.5612 0.8257
vn -0.1827 -0.8391 0.5124
vn 0.1944 0.0455 0.9799
vn 0.4250 0.0342 0.9045
vn 0.1034 -0.5715 0.8140
vn 0.6432 0.0430 0.7645
vn 0.6342 0.0552 0.7712
vn 0.4443 0.0463 0.8947
vn 0.2293 -0.5953 0.7701
vn 0.0770 -0.6353 0.7684
vn 0.3284 0.8938 -0.3055
vn 0.3144 0.9058 -0.2839
vn 0.3061 0.9013 -0.3065
vn 0.2468 0.9196 -0.3058
vn 0.2372 0.9273 -0.2897
vn 0.3255 0.9007 -0.2879
vn 0.2868 0.9186 -0.2717
vn 0.2405 0.9279 -0.2848
vn 0.3037 0.9028 -0.3044
vn 0.3556 0.8874 -0.2933
vn 0.3384 0.8959 -0.2878
vn 0.3605 0.8836 -0.2989
vn 0.2840 0.9127 -0.2938
vn 0.2942 0.9004 -0.3205
vn 0.2992 0.9044 -0.3041
vn 0.3599 0.8838 -0.2989
vn 0.3647 0.8836 -0.2936
vn 0.2980 0.9008 -0.3158
vn 0.2675 0.9222 -0.2794
vn 0.3260 0.9049 -0.2736
vn 0.3023 0.9087 -0.2880
vn 0.2942 0.9273 -0.2312
vn 0.2833 0.9319 -0.2267
vn 0.2384 0.9499 -0.2023
vn 0.2202 0.9579 -0.1843
vn 0.2146 0.9458 -0.2439
vn 0.2858 0.9322 -0.2219
vn 0.2882 0.9384 -0.1908
vn 0.2409 0.9596 -0.1457
vn 0.2269 0.9640 -0.1390
vn 0.2584 0.9554 -0.1426
vn 0.3527 0.9192 -0.1752
vn 0.2803 0.9496 -0.1400
vn 0.2472 0.9611 -0.1234
vn 0.3078 0.9420 -0.1337
vn 0.2708 0.9575 -0.0990
vn 0.3134 0.9448 -0.0956
vn 0.2524 0.9600 -0.1214
vn 0.2608 0.9615 -0.0869
vn 0.2192 0.9739 -0.0588
vn 0.2214 0.9729 -0.0662
vn 0.2200 0.9719 -0.0836
vn 0.2060 0.9742 -0.0923
vn 0.2723 0.9606 -0.0562
vn 0.2026 0.9716 -0.1219
vn 0.1516 0.9820 -0.1130
vn 0.1458 0.9827 -0.1141
vn 0.1699 0.9825 -0.0769
vn 0.1309 0.9864 -0.0993
vn 0.1156 0.9880 -0.1029
vn 0.1283 0.9870 -0.0972
vn 0.1615 0.9744 -0.1562
vn 0.1303 0.9806 -0.1464
vn 0.1023 0.9831 -0.1518
vn 0.1055 0.9824 -0.1541
vn 0.0906 0.9747 -0.2044
vn 0.1577 0.9676 -0.1973
vn 0.0896 0.9746 -0.2051
vn 0.1492 0.9472 -0.2840
vn 0.1394 0.9503 -0.2785
vn 0.0898 0.9555 -0.2808
vn 0.1010 0.9566 -0.2734
vn 0.1350 0.9658 -0.2216
vn 0.1877 0.9582 -0.2159
vn 0.1970 0.9406 -0.2764
vn 0.1906 0.9436 -0.2706
vn 0.2292 0.9377 -0.2610
vn 0.1831 0.9285 -0.3232
vn 0.2242 0.9205 -0.3199
vn 0.2243 0.9205 -0.3200
vn 0.1664 0.9349 -0.3134
vn 0.2261 0.9205 -0.3187
vn 0.1893 0.9276 -0.3222
vn 0.1746 0.9263 -0.3340
vn 0.2450 0.9120 -0.3289
vn 0.2369 0.9240 -0.3002
vn 0.1424 0.9317 -0.3342
vn 0.1742 0.9338 -0.3126
vn 0.1379 0.9341 -0.3292
vn 0.0822 0.9459 -0.3140
vn 0.1204 0.9487 -0.2925
vn 0.0842 0.9473 -0.3090
vn 0.1028 0.9382 -0.3304
vn 0.1744 0.9360 -0.3057
vn -0.0003 0.0656 0.9978
vn -0.0000 0.0659 0.9978
vn -0.0003 0.0654 0.9979
vn 0.1870 0.9370 -0.2951
vn -0.0048 0.0651 0.9979
vn -0.0126 -0.2579 0.9661
vn -0.0314 -0.2118 0.9768
vn -0.0663 -0.3988 0.9146
vn -0.1213 -0.6227 0.7730
vn -0.1242 -0.6322 0.7648
vn -0.0490 -0.2035 0.9779
vn -0.0819 -0.6210 0.7796
vn -0.0818 -0.6772 0.7312
vn -0.0359 -0.6565 0.7535
vn -0.0382 -0.6750 0.7368
vn -0.0505 -0.8493 0.5256
vn -0.1142 -0.8682 0.4828
vn -0.1152 -0.8694 0.4805
vn -0.0487 -0.8760 0.4798
vn -0.1441 -0.9414 0.3049
vn -0.4649 -0.7709 0.4355
vn -0.0806 -0.9054 0.4169
vn -0.1954 -0.1106 0.9745
vn -0.0152 -0.1227 0.9923
vn -0.1997 -0.1073 0.9740
vn -0.9951 0.0304 0.0940
vn -0.9951 0.0304 0.0939
vn -0.4693 -0.8650 0.1776
vn -0.9560 0.0070 0.2933
vn -0.5807 -0.7785 0.2381
vn -0.9545 0.0169 0.2979
vn -0.2264 -0.8976 0.3783
vn 0.2002 -0.9461 0.2546
vn 0.2141 -0.9539 0.2103
vn -0.8752 -0.0180 0.4835
vn 0.1706 -0.9644 0.2019
vn -0.8741 -0.0140 0.4855
vn -0.7604 -0.0314 0.6487
vn 0.1608 -0.9654 0.2054
vn -0.7601 -0.0303 0.6491
vn -0.6155 -0.0442 0.7869
vn 0.1687 -0.9702 0.1742
vn -0.4511 -0.0464 0.8913
vn -0.6310 -0.0857 0.7711
vn 0.1567 -0.9739 0.1644
vn -0.4531 -0.0519 0.8899
vn -0.2737 -0.0564 0.9602
vn 0.1039 -0.9744 0.1995
vn -0.2726 -0.0544 0.9606
vn -0.0856 -0.0568 0.9947
vn 0.1115 -0.9817 0.1545
vn 0.1263 -0.9773 0.1702
vn 0.0907 -0.9805 0.1742
vn 0.1302 -0.9178 0.3751
vn 0.0954 -0.9491 0.3001
vn 0.0630 -0.9390 0.3380
vn 0.1555 -0.6785 0.7180
vn 0.0271 -0.7312 0.6816
vn 0.0631 -0.7820 0.6201
vn 0.1172 -0.7715 0.6254
vn 0.2927 0.0500 0.9549
vn 0.0797 0.0449 0.9958
vn 0.2787 0.0399 0.9595
vn 0.1467 -0.3166 0.9371
vn 0.2153 -0.7864 0.5791
vn 0.1051 0.0650 0.9923
vn -0.0947 0.0664 0.9933
vn -0.0589 0.0427 0.9973
vn -0.0521 -0.3333 0.9414
vn -0.2872 0.0429 0.9569
vn -0.0626 0.9439 -0.3244
vn -0.0871 0.9348 -0.3442
vn -0.2885 0.0418 0.9566
vn -0.0927 0.9375 -0.3353
vn -0.4753 0.0387 0.8790
vn -0.1092 -0.6492 0.7527
vn -0.1230 -0.7778 0.6163
vn -0.3135 -0.6556 0.6870
vn 0.0673 -0.9522 0.2979
vn -0.0794 -0.7626 0.6419
vn 0.0688 -0.9459 0.3171
vn 0.0335 -0.9508 0.3081
vn -0.0403 -0.9255 0.3765
vn -0.4994 -0.6733 0.5453
vn -0.3026 -0.8031 0.5133
vn -0.2761 -0.7199 0.6368
vn -0.0228 -0.9512 0.3077
vn -0.4557 -0.7873 0.4154
vn -0.4146 -0.7597 0.5010
vn -0.9569 0.0031 0.2905
vn -0.9576 0.0047 0.2880
vn -0.8667 0.0137 0.4986
vn -0.4132 -0.8197 0.3968
vn -0.7798 -0.3447 0.5226
vn -0.7721 0.0409 0.6342
vn -0.7855 0.0208 0.6185
vn -0.8816 0.0310 0.4711
vn -0.6624 -0.3041 0.6847
vn 0.0018 0.9457 -0.3251
vn -0.0104 0.9442 -0.3293
vn 0.0012 0.2316 -0.9728
vn 0.0257 0.9459 -0.3235
vn 0.0145 0.9464 -0.3228
vn -0.0283 0.9399 -0.3403
vn -0.0214 0.9428 -0.3326
vn -0.0635 0.9437 -0.3245
vn -0.4687 0.0449 0.8822
vn -0.6298 0.0358 0.7759
vn -0.6314 0.0340 0.7747
vn -0.0015 0.0508 0.9987
vn -0.0122 0.0589 0.9982
vn 0.0200 0.9456 -0.3247
vn -0.0338 0.9534 -0.2998
vn 0.0293 0.9441 -0.3285
vn 0.0542 0.9541 -0.2946
vn -0.9998 -0.0033 0.0218
vn -0.9997 -0.0123 0.0192
vn -0.4981 -0.8197 0.2828
vn 0.1565 -0.9787 0.1331
vn 0.0136 -0.9580 0.2865
vn -0.6729 -0.7046 0.2251
vn 0.1984 -0.9461 0.2561
vn 0.0269 -0.4628 0.8861
vn 0.0448 -0.9526 0.3009
vn -0.1124 0.9432 -0.3126
vn 0.4718 0.0350 0.8810
vn -0.1549 0.9397 -0.3049
vn -0.1294 0.9438 -0.3041
vn 0.1265 -0.9648 0.2307
vn 0.0859 -0.9633 0.2543
vn -0.0237 -0.9270 0.3744
vn 0.0458 -0.9600 0.2761
vn 0.0701 -0.9517 0.2989
vn -0.0158 -0.9540 0.2994
vn -0.0619 -0.9573 0.2824
vn -0.0800 -0.9532 0.2915
vn -0.0029 -0.9407 0.3392
vn -0.0060 -0.9471 0.3209
vn -0.1210 -0.9473 0.2968
vn -0.0513 -0.9891 0.1383
vn -0.0528 -0.9890 0.1380
vn -0.0555 -0.9896 0.1328
vn -0.0656 -0.9978 0.0007
vn -0.0394 0.0277 0.9988
vn -0.0001 0.0696 0.9976
vn -0.1655 -0.8893 0.4262
vn -0.1023 -0.3351 0.9366
vn -0.1521 -0.5939 0.7900
vn -0.1684 -0.6337 0.7551
vn -0.0004 0.0664 0.9978
vn 0.0011 0.0485 0.9988
vn 0.0808 0.9357 -0.3435
vn 0.0673 0.9374 -0.3416
vn 0.0632 0.9385 -0.3396
vn 0.0758 0.9361 -0.3436
vn 0.0504 0.9437 -0.3269
vn 0.5638 0.3391 0.7531
vn 0.3950 0.2027 0.8960
vn 0.6022 0.1899 0.7755
vn 0.7641 0.1221 0.6334
vn 0.7738 0.1452 0.6166
vn 0.0006 0.9890 -0.1482
vn 0.8920 0.0758 0.4456
vn 0.0842 0.9393 -0.3325
vn 0.0842 0.9395 -0.3319
vn 0.1012 0.8832 0.4579
vn 0.0052 0.9897 -0.1432
vn 0.1023 0.9307 -0.3512
vn 0.0896 0.9354 -0.3422
vn 0.1436 0.9346 -0.3256
vn 0.1171 0.9414 -0.3164
vn 0.1028 0.9309 -0.3506
vn 0.0983 0.9402 -0.3261
vn 0.1789 0.9612 -0.2100
vn 0.2022 0.9681 -0.1481
vn 0.1811 0.9739 -0.1365
vn 0.2013 0.9719 -0.1222
vn 0.1561 0.9856 -0.0645
vn 0.1543 0.9861 -0.0613
vn 0.3125 0.9452 -0.0946
vn 0.3262 0.9405 -0.0949
vn 0.3486 0.9252 -0.1500
vn 1.0000 -0.0001 -0.0007
vn 1.0000 0.0021 0.0005
vn 0.1757 0.0673 0.9821
vn -0.2386 -0.8784 0.4141
vn 0.4660 0.0599 0.8828
vn 0.1770 0.0527 0.9828
vn -0.1045 -0.9567 0.2715
vn 0.4726 0.0386 0.8805
vn -0.2785 -0.8989 0.3382
vn -0.2820 -0.8990 0.3351
vn -0.2275 -0.9257 0.3023
vn -0.2889 -0.9072 0.3059
vn -0.2755 -0.9040 0.3271
vn -0.2431 -0.9323 0.2676
vn -0.2706 -0.9197 0.2845
vn -0.2755 -0.9203 0.2776
vn -0.2022 -0.9542 0.2206
vn -0.2242 -0.9483 0.2245
vn -0.2022 -0.9398 0.2755
vn -0.2508 -0.9389 0.2358
vn -0.2683 -0.9446 0.1890
vn -0.1855 -0.9445 0.2711
vn -0.1452 -0.9498 0.2770
vn -0.2086 -0.9543 0.2140
vn -0.1382 -0.9671 0.2137
vn -0.1703 -0.9555 0.2409
vn -0.1651 -0.9447 0.2835
vn 1.0000 0.0052 0.0080
vn 1.0000 -0.0035 0.0009
vn 0.9624 0.0178 0.2710
vn 0.9648 0.0155 0.2626
vn -0.1520 -0.9405 0.3039
vn -0.1715 -0.9427 0.2860
vn 0.8883 0.0301 0.4582
vn -0.1924 -0.9655 0.1754
vn -0.1535 -0.9719 0.1782
vn -0.2003 -0.9690 0.1448
vn -0.2141 -0.9592 0.1848
vn -0.1607 -0.9714 0.1747
vn -0.1558 -0.9803 0.1210
vn -0.2209 -0.9688 0.1123
vn -0.2315 -0.9657 0.1174
vn -0.2448 -0.9668 0.0729
vn -0.1862 -0.9767 0.1066
vn -0.1733 -0.9830 0.0613
vn -0.2190 -0.9728 0.0759
vn -0.2882 -0.9539 0.0838
vn -0.2315 -0.9716 0.0482
vn -0.2751 -0.9596 0.0599
vn -0.2798 -0.9583 0.0582
vn -0.3289 -0.9411 0.0785
vn -0.2783 -0.9565 0.0879
vn -0.3299 -0.9365 0.1188
vn -0.3128 -0.9455 0.0904
vn -0.3349 -0.9390 0.0788
vn -0.2658 -0.9574 0.1128
vn -0.3098 -0.9428 0.1230
vn -0.2695 -0.9559 0.1164
vn -0.2550 -0.9557 0.1468
vn -0.2674 -0.9523 0.1469
vn -0.2748 -0.9497 0.1500
vn -0.1989 -0.9784 0.0556
vn -0.2030 -0.9776 0.0562
vn 1.0000 0.0065 -0.0033
vn 1.0000 -0.0080 0.0015
vn -0.2509 -0.9574 0.1430
vn 1.0000 -0.0074 0.0013
vn -0.2572 -0.9507 0.1735
vn 1.0000 -0.0043 0.0006
vn -0.2958 -0.9372 0.1848
vn -0.2796 -0.9314 0.2330
vn -0.2949 -0.9235 0.2455
vn -0.2991 -0.9080 0.2935
vn -0.1645 -0.9507 0.2631
vn -0.1321 -0.9773 0.1656
vn 0.2771 0.0633 0.9588
vn -0.5658 -0.3319 -0.7548
vn -0.7524 -0.4112 -0.5145
vn -0.0000 -0.9892 0.1463
vn -0.5983 -0.3413 -0.7249
vn -0.3017 -0.2071 -0.9306
vn -0.2894 -0.2028 -0.9355
vn 0.0001 -0.9978 0.0655
vn -0.8731 -0.4841 0.0577
vn -0.0019 -0.9899 0.1417
vn -0.0270 -0.9781 0.2064
vn 0.0036 -0.9893 0.1461
vn 0.9655 -0.0178 -0.2597
vn -0.0082 -0.9861 0.1661
vn -0.7988 -0.6005 0.0368
vn -0.0047 0.0531 0.9986
vn 0.0002 -0.9923 0.1236
vn 1.0000 0.0045 -0.0006
vn 0.9650 -0.0172 -0.2615
vn 0.3688 -0.0600 -0.9276
vn -0.1548 -0.9859 0.0638
vn -0.0972 -0.9927 0.0718
vn 0.0129 -0.0600 -0.9981
vn -0.0922 -0.9937 0.0631
vn 1.0000 -0.0000 0.0023
vn 0.0049 -0.0657 -0.9978
vn 1.0000 -0.0012 0.0033
vn 0.0662 0.9852 -0.1579
vn 0.0550 0.9879 -0.1448
vn -0.0058 -0.0643 -0.9979
vn -0.0073 -0.0650 -0.9979
vn -0.0076 0.9840 -0.1780
vn 0.0013 -0.0678 -0.9977
vn 0.0024 -0.0656 -0.9978
vn -0.0185 0.9887 -0.1485
vn -0.0859 0.9831 -0.1616
vn -0.0893 0.9812 -0.1713
vn -0.0932 0.9955 -0.0166
vn -0.0899 0.9956 -0.0257
vn -0.0066 0.9997 -0.0224
vn -0.0084 0.9996 -0.0280
vn -0.0946 0.9753 0.1995
vn -0.0086 0.9790 0.2037
vn -0.0909 0.9777 0.1894
vn -0.7745 0.0081 -0.6325
vn -0.7735 0.0099 -0.6337
vn -0.0926 0.9067 0.4115
vn -0.1715 0.9657 0.1949
vn -0.7657 0.0076 -0.6431
vn -0.7685 0.0030 -0.6398
vn -0.7607 0.0030 -0.6491
vn -0.1778 0.9829 -0.0483
vn -0.1758 0.9832 -0.0496
vn -0.7590 -0.0025 -0.6511
vn -0.1742 0.9659 -0.1915
vn -0.7646 -0.0024 -0.6445
vn -0.0000 -0.9999 0.0139
vn -0.7623 -0.0066 -0.6472
vn -0.0000 -0.9945 -0.1048
vn -0.0000 -0.9659 -0.2591
vn 0.0647 0.9774 0.2010
vn 0.0647 0.9976 -0.0265
vn 0.0660 0.9975 -0.0250
vn 0.0625 0.9201 0.3867
vn 0.0636 0.9778 0.1997
vn -0.0065 0.9802 0.1977
vn -0.0074 0.9155 0.4023
vn 0.0525 0.9247 0.3770
vn -0.0010 0.0179 -0.9998
vn -0.0179 0.9250 0.3795
vn 0.0007 0.0169 -0.9999
vn -0.0000 0.0188 -0.9998
vn 0.0028 0.0147 -0.9999
vn -0.0805 0.9175 0.3895
vn -0.0000 -0.9011 -0.4335
vn -0.8901 0.0307 0.4548
vn -0.8733 0.0112 0.4871
vn -0.0000 -0.9720 0.2350
vn 0.0166 -0.0633 -0.9979
vn 0.0238 -0.0672 -0.9975
vn -0.8802 0.0296 0.4736
vn -0.1515 0.9791 -0.1357
vn 0.1784 -0.9750 0.1322
vn 0.1714 -0.9770 0.1270
vn 0.0191 -0.0624 -0.9979
vn 0.0380 -0.0547 -0.9978
vn 0.0257 -0.0741 -0.9969
vn 0.2534 -0.9597 0.1215
vn 0.0365 -0.0689 -0.9970
vn 0.2720 -0.9409 0.2018
vn 0.0010 -0.0767 -0.9971
vn 0.0164 -0.0367 -0.9992
vn 0.0004 -0.9978 0.0668
vn -1.0000 0.0003 -0.0000
vn -1.0000 0.0002 -0.0001
vn -1.0000 -0.0002 -0.0053
vn 0.0219 0.3881 0.9213
vn -0.0056 0.9978 -0.0656
vn 0.1272 0.9917 0.0173
vn -0.0612 0.9976 0.0328
vn -0.0749 0.9969 0.0238
vn 0.0012 0.9979 -0.0641
vn 0.0021 0.9979 -0.0650
vn 0.0034 0.9978 -0.0664
vn -0.0115 0.4996 0.8662
vn -0.2297 0.9731 -0.0187
vn -0.0432 0.2480 0.9678
vn 0.0333 -0.0614 -0.9976
vn 0.0207 -0.0849 -0.9962
vn -0.2305 0.9729 -0.0184
vn 0.0264 -0.0464 -0.9986
vn 0.0258 -0.0578 -0.9980
vn -0.3272 0.9432 -0.0574
vn -0.2978 0.9504 -0.0898
vn 0.0217 -0.0697 -0.9973
vn -0.2054 0.9744 -0.0910
vn -0.1903 0.9742 -0.1214
vn 0.0098 -0.0655 -0.9978
vn -0.0913 0.9929 -0.0758
vn -0.1474 0.9875 -0.0549
vn 0.0103 -0.0636 -0.9979
vn -0.1343 0.9898 -0.0470
vn 0.0020 -0.4339 -0.9010
vn 0.0505 -0.4797 -0.8760
vn 0.0015 -0.4468 -0.8946
vn 0.0007 -0.0646 -0.9979
vn -0.0823 -0.8345 -0.5449
vn -0.0811 -0.8285 -0.5541
vn -0.0477 -0.4549 -0.8892
vn -0.0489 -0.4780 -0.8770
vn 0.0032 -0.9022 -0.4314
vn -0.0207 -0.7893 -0.6137
vn -0.0933 -0.9787 -0.1827
vn -0.0954 -0.9827 -0.1585
vn -0.0258 -0.9975 -0.0663
vn -0.0938 -0.9830 0.1578
vn -0.0907 -0.9846 0.1496
vn 0.0034 -0.9603 -0.2790
vn 0.0041 -0.9851 0.1717
vn 0.0227 -0.9940 -0.1072
vn 0.0821 -0.9814 -0.1737
vn 0.0105 -0.9882 0.1525
vn 0.0816 -0.9794 0.1845
vn 0.1125 -0.9837 0.1405
vn 0.1198 -0.9808 0.1541
vn 0.0890 -0.9887 -0.1204
vn 0.1201 -0.9717 -0.2035
vn 0.1862 -0.9698 0.1574
vn 0.1862 -0.9520 -0.2429
vn 0.1464 -0.9874 -0.0592
vn 0.2251 -0.9734 -0.0431
vn 0.1777 -0.7621 -0.6225
vn 0.1647 -0.8491 -0.5020
vn 0.1143 -0.7500 -0.6515
vn 0.0905 -0.8813 -0.4638
vn 0.0481 -0.4380 -0.8977
vn 0.0728 -0.3479 -0.9347
vn 0.2111 -0.8358 -0.5068
vn 0.1605 -0.6264 -0.7628
vn 0.1518 -0.9743 -0.1665
vn 0.1454 -0.5710 -0.8080
vn 0.0010 -0.9978 0.0656
vn 0.0648 -0.9971 0.0400
vn 0.2418 -0.9611 0.1333
vn 0.2409 -0.9499 -0.1991
vn 0.2782 -0.9547 0.1059
vn 0.2108 -0.9712 0.1110
vn 0.0754 -0.8173 -0.5713
vn 0.0193 -0.8033 -0.5953
vn -0.0097 -0.0674 -0.9977
vn -0.0102 -0.0654 -0.9978
vn -0.0190 -0.0661 -0.9976
vn -0.1772 -0.9764 0.1234
vn -0.1745 -0.9774 0.1194
vn -0.1747 -0.9662 -0.1897
vn -0.1756 -0.9670 -0.1843
vn -0.2231 -0.9523 -0.2082
vn -0.2232 -0.9680 0.1142
vn -0.3094 -0.9494 0.0532
vn -0.2341 -0.9685 0.0845
vn -0.2202 -0.9472 -0.2330
vn -0.3085 -0.9208 -0.2388
vn -0.3142 -0.9473 0.0627
vn -0.2978 -0.9012 -0.3150
vn -0.3636 -0.9198 -0.1473
vn -0.3654 -0.9030 -0.2262
vn -0.3870 -0.9221 -0.0035
vn -0.3582 -0.9335 -0.0133
vn -0.2483 -0.7380 -0.6274
vn -0.2602 -0.7632 -0.5915
vn -0.2879 -0.7377 -0.6107
vn -0.1372 -0.3786 -0.9153
vn -0.2139 -0.5705 -0.7929
vn -0.1547 -0.3637 -0.9186
vn -0.3066 -0.7697 -0.5600
vn -0.0771 -0.4945 -0.8657
vn -0.2119 -0.7252 -0.6551
vn -0.0995 -0.3647 -0.9258
vn -0.2144 -0.8446 -0.4906
vn -0.1278 -0.5364 -0.8342
vn -0.0750 -0.3597 -0.9301
vn -0.1814 -0.7627 -0.6209
vn -0.1636 -0.8383 -0.5201
vn -0.1489 -0.8031 -0.5770
vn -0.2045 0.9771 -0.0592
vn -0.2319 0.9724 -0.0251
vn -0.3095 0.9504 -0.0316
vn 0.0214 -0.0808 -0.9965
vn 0.0002 -0.9979 0.0655
vn 0.0004 -0.9978 0.0660
vn -1.0000 0.0007 0.0002
vn 0.0004 -0.0494 -0.9988
vn -0.0052 0.9996 -0.0290
vn -1.0000 0.0001 -0.0001
vn 0.0131 -0.0675 -0.9976
vn 0.0097 -0.0640 -0.9979
vn -0.0000 -0.0942 -0.9956
vn -0.3614 -0.9268 0.1022
vn -0.3674 -0.9226 0.1175
vn -0.3323 -0.9388 0.0904
vn -0.3694 -0.9195 0.1342
vn 1.0000 -0.0008 -0.0063
vn 1.0000 -0.0004 -0.0000
vn -0.3964 -0.9074 0.1393
vn -0.4505 -0.8642 0.2242
vn -0.4766 -0.8626 0.1697
vn 0.9999 -0.0127 -0.0001
vn 0.2277 -0.9496 -0.2153
vn -0.1222 -0.9920 -0.0307
vn 0.4898 -0.8715 0.0223
vn 0.4910 -0.8709 0.0216
vn 0.5233 -0.8433 0.1225
vn 0.5104 -0.8508 0.1250
vn 0.5017 -0.8609 0.0850
vn 0.5370 -0.8396 0.0818
vn 0.1952 -0.9684 0.1551
vn 0.4391 -0.8871 0.1420
vn 0.0999 -0.9822 0.1593
vn 0.0730 -0.9784 0.1932
vn 0.1105 -0.9529 0.2826
vn 0.1365 -0.9568 0.2567
vn 0.0579 -0.9454 0.3207
vn -0.3164 -0.8956 0.3128
vn 0.3764 0.9184 -0.1222
vn 0.3497 0.9338 -0.0756
vn 0.3840 0.9191 -0.0886
vn 0.2133 -0.9555 -0.2036
vn 0.7456 -0.0289 -0.6658
vn 0.4305 0.8911 -0.1438
vn 0.5153 0.8302 -0.2126
vn 0.6479 -0.0655 -0.7589
vn 0.4331 -0.5611 -0.7054
vn -0.0137 -0.4301 -0.9027
vn -0.0225 -0.0622 -0.9978
vn -0.0254 -0.0668 -0.9974
vn 0.2308 0.9688 -0.0902
vn 0.0004 -0.0655 -0.9979
vn 0.0017 0.9983 -0.0584
vn 0.0125 0.9986 -0.0512
vn 0.8897 0.0110 -0.4564
vn 0.0338 0.1849 -0.9822
vn 0.8886 0.0675 0.4537
vn -1.0000 0.0001 0.0001
vn 0.0004 0.9888 -0.1493
vn -1.0000 0.0002 0.0001
vn 0.0128 0.9426 -0.3338
vn -0.0310 0.9495 -0.3122
vn -0.0019 0.0841 0.9965
vn -1.0000 -0.0000 -0.0001
vn -1.0000 0.0001 -0.0000
vn 0.0208 0.9445 -0.3278
vn 0.0184 0.9531 -0.3022
vn -0.0742 0.9558 -0.2845
vn -1.0000 0.0010 0.0005
vn 0.0651 -0.1183 0.9908
vn 0.3243 -0.9139 0.2440
vn 0.3283 -0.9032 0.2765
vn 0.0672 -0.1163 0.9909
vn 0.0943 -0.1200 0.9883
vn 0.4449 -0.8541 0.2695
vn 0.4387 -0.8208 0.3658
vn 0.0940 -0.1171 0.9887
vn 0.4534 -0.8822 -0.1270
vn 0.4627 -0.8711 -0.1647
vn 0.3405 -0.9364 -0.0849
vn 0.4473 -0.8073 0.3849
vn 0.3653 -0.9233 -0.1183
vn 0.3419 -0.8519 0.3966
vn 0.3468 -0.8174 0.4600
vn 0.1262 -0.2487 0.9603
vn 0.1465 -0.3151 0.9377
vn 0.1955 -0.2977 0.9344
vn 0.4461 -0.8016 0.3981
vn -0.0015 0.0662 0.9978
vn -0.0003 0.0657 0.9978
vn 0.0005 0.0665 0.9978
vn -0.0079 0.0596 0.9982
vn 0.1838 -0.2717 0.9447
vn -0.0003 0.0655 0.9979
vn 0.0015 0.0653 0.9979
vn 0.0003 0.0661 0.9978
vn 0.1462 -0.3721 0.9166
vn 0.0004 0.0668 0.9978
vn -0.2884 0.9127 -0.2895
vn -0.3259 0.8993 -0.2917
vn -0.4060 0.8681 -0.2855
vn -0.3669 0.8786 -0.3056
vn -0.4125 -0.0617 -0.9089
vn -0.4082 0.8875 -0.2139
vn -0.4657 0.8406 -0.2765
vn -0.4668 0.8294 -0.3069
vn -0.4361 0.8581 -0.2712
vn 0.0729 -0.0706 -0.9948
vn -0.4041 -0.0577 -0.9129
vn 0.0974 -0.0567 -0.9936
vn -0.2206 0.7997 -0.5584
vn -0.2231 0.7990 -0.5584
vn 0.0532 0.7896 -0.6113
vn 0.0068 0.8019 -0.5974
vn -0.4020 -0.0611 -0.9136
vn 0.0035 -0.0701 -0.9975
vn 0.5091 -0.0546 -0.8590
vn 0.5019 -0.0614 -0.8628
vn 0.2823 0.8090 -0.5157
vn 0.2747 0.8107 -0.5170
vn 0.8001 -0.0401 -0.5985
vn 0.4290 0.8215 -0.3758
vn 0.9725 -0.0205 -0.2321
vn 0.7857 -0.0243 -0.6182
vn 0.4791 0.8611 -0.1704
vn -0.1334 0.9199 -0.3688
vn -0.1346 0.9195 -0.3693
vn 0.9729 -0.0224 -0.2302
vn -0.1395 0.9014 -0.4099
vn -0.3313 0.8706 -0.3638
vn -0.1345 0.9426 -0.3057
vn -0.1731 0.9336 -0.3137
vn -0.3443 0.8883 -0.3039
vn -0.3105 0.8806 -0.3579
vn 0.9848 0.0132 0.1730
vn 0.2554 0.9141 -0.3149
vn -0.0683 0.9592 -0.2744
vn 0.9849 0.0113 0.1725
vn 0.8328 0.0363 0.5524
vn -0.1881 0.9542 -0.2328
vn 0.5991 0.2384 0.7644
vn 0.8380 0.0004 0.5456
vn 0.5533 0.0240 0.8326
vn -0.3905 0.8850 -0.2536
vn -0.1462 0.9502 -0.2754
vn -0.0066 0.0812 0.9967
vn -0.0010 0.0844 0.9964
vn -0.3863 0.8850 -0.2601
vn -0.4766 0.8230 -0.3091
vn -0.4456 0.8175 -0.3649
vn -0.4694 -0.0404 -0.8821
vn -0.8381 -0.0522 -0.5431
vn -0.5188 0.8378 -0.1704
vn -0.9807 0.0081 -0.1954
vn -0.9727 0.0151 -0.2315
vn -0.4388 0.8191 -0.3695
vn -0.8128 -0.0382 -0.5812
vn -0.9859 -0.0110 -0.1670
vn -0.9843 -0.0145 -0.1758
vn -0.5313 0.8343 -0.1476
vn -0.9732 0.0151 0.2294
vn -0.9726 0.0163 0.2321
vn -0.5201 0.8517 0.0645
vn -0.5274 0.8439 0.0989
vn -0.8093 0.0385 0.5861
vn -0.8098 0.0381 0.5854
vn -0.4626 0.8424 0.2763
vn -0.4693 0.8547 -0.2220
vn -0.4843 0.8332 -0.2670
vn -0.4298 0.8365 -0.3400
vn -0.4038 0.8861 -0.2275
vn -0.4147 0.8522 -0.3190
vn -0.3607 0.8618 -0.3567
vn -0.8076 -0.0419 -0.5882
vn -0.9455 -0.0026 0.3257
vn -0.2867 0.9121 -0.2930
vn -0.0011 0.0572 0.9984
vn 0.1713 -0.8365 0.5205
vn -1.0000 0.0042 0.0009
vn -1.0000 0.0006 0.0010
vn 0.1319 -0.8692 0.4766
vn 0.2052 -0.9760 -0.0730
vn -0.0036 0.1473 0.9891
vn 0.9551 0.0002 0.2963
vn 0.8772 0.0477 0.4778
vn -0.5076 -0.0565 -0.8597
vn 0.5076 0.0565 0.8598
vn 0.0021 -0.9978 0.0656
vn 0.3037 -0.8200 0.4851
vn -0.0000 -0.9969 0.0782
vn 0.2682 0.0890 0.9593
vn -0.2517 0.9193 -0.3024
vn -0.2556 0.9189 -0.3004
vn 0.6317 0.0351 0.7744
vn 0.4803 0.0411 0.8762
vn 0.1318 -0.3340 0.9333
vn 0.3087 -0.9177 0.2501
vn 0.2228 -0.9065 0.3586
vn 1.0000 -0.0001 0.0007
vn 0.1648 -0.9540 0.2505
vn 0.1501 -0.9575 0.2463
vn 1.0000 -0.0025 0.0007
vn 0.1507 -0.9537 0.2603
vn 0.4765 -0.7421 0.4715
vn 0.1457 -0.9548 0.2590
vn -0.0195 -0.9733 0.2289
vn 0.0467 -0.9756 0.2147
vn 0.0098 -0.9872 0.1589
vn 0.0465 -0.9793 0.1968
vn 0.6360 -0.0061 0.7716
vn 0.1199 -0.9676 0.2224
vn -0.0047 -0.9972 0.0749
s 0
usemtl Material.030
f 4//1 2//1 1//1
f 3//2 1//2 2//2
f 8//3 1//3 3//3
f 6//1 4//1 1//1
f 7//4 5//4 1//4
f 1//5 5//5 6//5
f 1//6 8//6 7//6
f 13//7 9//7 8//7
f 8//8 9//8 12//8
f 3//9 11//9 8//9
f 13//10 8//10 10//10
f 10//11 8//11 11//11
f 12//8 7//8 8//8
f 17//12 14//12 13//12
f 13//12 14//12 20//12
f 13//13 15//13 16//13
f 15//14 13//14 20//14
f 13//12 16//12 18//12
f 10//15 17//15 13//15
f 13//16 18//16 19//16
f 19//17 9//17 13//17
f 23//18 21//18 20//18
f 22//19 20//19 21//19
f 15//20 20//20 22//20
f 20//21 14//21 24//21
f 24//22 23//22 20//22
f 26//23 25//23 24//23
f 24//24 25//24 27//24
f 14//25 26//25 24//25
f 27//26 23//26 24//26
f 28//27 27//27 25//27
f 23//28 27//28 29//28
f 27//29 28//29 29//29
f 29//30 21//30 23//30
f 22//31 21//31 29//31
f 29//32 30//32 22//32
f 29//33 28//33 31//33
f 31//34 30//34 29//34
f 35//35 31//35 32//35
f 32//36 31//36 33//36
f 33//37 31//37 28//37
f 34//38 31//38 35//38
f 36//39 31//39 34//39
f 30//40 31//40 36//40
f 36//41 39//41 37//41
f 37//42 38//42 36//42
f 30//43 36//43 38//43
f 34//44 39//44 36//44
f 39//45 40//45 37//45
f 39//46 34//46 40//46
f 40//47 43//47 41//47
f 41//48 42//48 40//48
f 40//49 42//49 37//49
f 43//50 40//50 34//50
f 46//51 41//51 43//51
f 43//52 44//52 46//52
f 44//53 43//53 45//53
f 34//54 45//54 43//54
f 48//55 41//55 46//55
f 47//56 48//56 46//56
f 46//57 49//57 47//57
f 46//58 44//58 50//58
f 50//59 49//59 46//59
f 49//60 50//60 51//60
f 51//61 50//61 52//61
f 53//62 52//62 50//62
f 54//63 50//63 44//63
f 50//64 54//64 53//64
f 55//65 54//65 57//65
f 56//66 54//66 55//66
f 56//67 53//67 54//67
f 44//68 57//68 54//68
f 58//69 55//69 57//69
f 45//70 57//70 44//70
f 57//71 45//71 58//71
f 59//72 60//72 58//72
f 58//73 63//73 59//73
f 60//74 62//74 58//74
f 58//75 61//75 55//75
f 62//76 61//76 58//76
f 63//77 58//77 45//77
f 64//78 59//78 63//78
f 63//79 65//79 64//79
f 63//80 34//80 65//80
f 45//81 34//81 63//81
f 66//82 64//82 65//82
f 65//83 35//83 66//83
f 35//84 65//84 34//84
f 68//85 66//85 35//85
f 67//86 66//86 68//86
f 67//87 69//87 66//87
f 66//88 69//88 64//88
f 69//89 70//89 72//89
f 67//90 70//90 69//90
f 71//91 59//91 69//91
f 71//92 69//92 72//92
f 59//93 64//93 69//93
f 72//94 70//94 73//94
f 72//95 73//95 76//95
f 72//96 76//96 74//96
f 74//97 75//97 72//97
f 72//98 75//98 71//98
f 76//99 73//99 77//99
f 77//100 79//100 76//100
f 76//101 78//101 74//101
f 78//102 76//102 79//102
f 80//103 79//103 77//103
f 80//104 81//104 79//104
f 79//105 81//105 82//105
f 79//106 82//106 78//106
f 78//107 82//107 74//107
f 74//108 82//108 83//108
f 83//109 82//109 84//109
f 82//110 81//110 86//110
f 84//111 82//111 85//111
f 82//112 86//112 85//112
f 87//113 86//113 89//113
f 87//114 85//114 86//114
f 81//115 88//115 86//115
f 88//116 89//116 86//116
f 93//117 89//117 90//117
f 88//118 90//118 89//118
f 89//119 91//119 87//119
f 89//120 92//120 91//120
f 92//121 89//121 93//121
f 93//122 95//122 94//122
f 97//123 93//123 94//123
f 93//124 96//124 95//124
f 90//125 96//125 93//125
f 92//126 93//126 97//126
f 98//127 92//127 97//127
f 98//127 97//127 99//127
f 97//128 94//128 99//128
f 99//127 102//127 98//127
f 99//129 101//129 100//129
f 100//127 102//127 99//127
f 99//130 94//130 101//130
f 48//1 102//1 103//1
f 103//131 102//131 109//131
f 102//132 48//132 47//132
f 102//133 47//133 106//133
f 105//134 102//134 104//134
f 104//135 102//135 106//135
f 98//136 102//136 105//136
f 107//127 102//127 108//127
f 109//127 102//127 107//127
f 108//127 102//127 100//127
f 109//6 110//6 111//6
f 109//127 87//127 110//127
f 111//6 112//6 109//6
f 112//6 114//6 109//6
f 113//127 109//127 107//127
f 87//127 109//127 113//127
f 109//137 114//137 103//137
f 103//138 114//138 5//138
f 5//6 114//6 112//6
f 113//139 85//139 87//139
f 113//140 84//140 85//140
f 84//141 113//141 107//141
f 112//142 116//142 5//142
f 112//127 117//127 115//127
f 115//127 116//127 112//127
f 112//127 118//127 117//127
f 112//127 111//127 118//127
f 118//143 119//143 117//143
f 118//143 121//143 119//143
f 118//144 123//144 120//144
f 120//145 122//145 118//145
f 118//146 122//146 121//146
f 123//127 118//127 111//127
f 120//147 123//147 127//147
f 127//148 123//148 124//148
f 123//149 125//149 124//149
f 126//150 125//150 123//150
f 111//151 126//151 123//151
f 127//152 131//152 128//152
f 128//153 129//153 127//153
f 127//154 129//154 120//154
f 127//127 130//127 131//127
f 127//127 133//127 130//127
f 124//155 132//155 127//155
f 133//156 127//156 132//156
f 136//157 133//157 134//157
f 137//158 134//158 133//158
f 135//127 130//127 133//127
f 136//159 135//159 133//159
f 138//160 137//160 133//160
f 138//161 133//161 126//161
f 133//162 141//162 139//162
f 139//163 140//163 133//163
f 126//164 133//164 140//164
f 141//165 133//165 132//165
f 142//166 139//166 141//166
f 141//166 144//166 142//166
f 141//167 132//167 143//167
f 143//167 144//167 141//167
f 144//127 145//127 142//127
f 144//127 146//127 145//127
f 144//127 143//127 146//127
f 149//168 147//168 146//168
f 146//169 147//169 148//169
f 145//170 146//170 148//170
f 146//127 143//127 149//127
f 147//171 149//171 150//171
f 149//127 143//127 150//127
f 153//172 151//172 150//172
f 150//173 151//173 147//173
f 152//127 150//127 143//127
f 153//127 150//127 152//127
f 153//174 155//174 151//174
f 153//175 154//175 155//175
f 153//127 152//127 154//127
f 155//176 156//176 151//176
f 155//177 157//177 156//177
f 157//178 155//178 154//178
f 157//177 158//177 156//177
f 158//179 157//179 159//179
f 154//180 159//180 157//180
f 161//127 159//127 152//127
f 152//127 159//127 154//127
f 159//181 160//181 158//181
f 159//127 161//127 160//127
f 161//182 125//182 140//182
f 124//183 125//183 161//183
f 140//182 162//182 161//182
f 161//183 152//183 124//183
f 160//127 161//127 162//127
f 142//184 162//184 140//184
f 163//127 160//127 162//127
f 164//127 163//127 162//127
f 142//127 164//127 162//127
f 166//185 163//185 164//185
f 165//127 164//127 142//127
f 165//186 167//186 164//186
f 164//187 167//187 166//187
f 168//177 166//177 167//177
f 167//177 169//177 168//177
f 170//177 169//177 167//177
f 165//188 170//188 167//188
f 148//177 169//177 170//177
f 145//189 148//189 170//189
f 165//190 145//190 170//190
f 169//191 172//191 171//191
f 171//192 168//192 169//192
f 169//193 173//193 172//193
f 175//194 173//194 169//194
f 148//195 147//195 169//195
f 147//177 174//177 169//177
f 169//177 174//177 175//177
f 175//196 176//196 173//196
f 175//197 177//197 176//197
f 177//198 175//198 174//198
f 179//199 176//199 177//199
f 181//200 178//200 177//200
f 179//201 177//201 178//201
f 174//198 180//198 177//198
f 177//202 180//202 181//202
f 182//203 184//203 181//203
f 181//204 194//204 182//204
f 189//205 183//205 181//205
f 193//206 181//206 183//206
f 184//207 185//207 181//207
f 185//208 186//208 181//208
f 186//209 187//209 181//209
f 187//210 190//210 181//210
f 195//211 181//211 188//211
f 191//212 188//212 181//212
f 189//213 181//213 192//213
f 190//214 191//214 181//214
f 195//215 178//215 181//215
f 180//216 192//216 181//216
f 181//217 193//217 194//217
f 188//218 196//218 195//218
f 196//219 197//219 195//219
f 200//220 195//220 197//220
f 195//221 198//221 178//221
f 195//222 199//222 198//222
f 200//223 199//223 195//223
f 197//224 203//224 200//224
f 201//225 200//225 203//225
f 202//226 200//226 201//226
f 204//227 200//227 202//227
f 200//228 204//228 199//228
f 205//229 199//229 204//229
f 204//230 206//230 205//230
f 206//231 204//231 207//231
f 207//232 204//232 202//232
f 201//233 208//233 207//233
f 209//234 207//234 208//234
f 209//235 206//235 207//235
f 207//236 202//236 201//236
f 210//237 213//237 209//237
f 209//238 211//238 210//238
f 211//239 209//239 212//239
f 209//240 205//240 206//240
f 214//241 209//241 208//241
f 214//242 212//242 209//242
f 209//243 213//243 198//243
f 198//244 205//244 209//244
f 196//245 216//245 214//245
f 197//246 196//246 214//246
f 197//247 214//247 203//247
f 215//248 219//248 214//248
f 214//249 216//249 215//249
f 203//250 214//250 208//250
f 217//251 218//251 214//251
f 214//252 219//252 217//252
f 218//253 212//253 214//253
f 220//254 219//254 215//254
f 220//255 217//255 219//255
f 223//256 220//256 221//256
f 222//257 221//257 220//257
f 222//258 220//258 215//258
f 220//259 223//259 224//259
f 217//260 220//260 224//260
f 230//261 225//261 224//261
f 224//262 225//262 226//262
f 226//263 217//263 224//263
f 223//264 227//264 224//264
f 224//265 227//265 229//265
f 224//266 228//266 230//266
f 229//267 228//267 224//267
f 230//268 231//268 225//268
f 231//269 230//269 232//269
f 232//270 230//270 228//270
f 233//271 232//271 228//271
f 232//272 233//272 231//272
f 228//273 235//273 233//273
f 233//274 236//274 234//274
f 234//275 231//275 233//275
f 236//276 233//276 235//276
f 235//277 237//277 236//277
f 234//278 236//278 238//278
f 238//279 236//279 237//279
f 238//280 239//280 234//280
f 239//281 238//281 241//281
f 240//282 241//282 238//282
f 238//283 242//283 240//283
f 237//284 242//284 238//284
f 240//285 242//285 243//285
f 244//286 243//286 242//286
f 242//287 237//287 244//287
f 246//288 243//288 244//288
f 245//289 244//289 237//289
f 244//290 245//290 247//290
f 247//291 246//291 244//291
f 247//292 249//292 248//292
f 248//293 250//293 247//293
f 249//294 247//294 245//294
f 246//295 247//295 250//295
f 252//296 250//296 248//296
f 251//297 250//297 252//297
f 250//298 251//298 246//298
f 248//299 229//299 252//299
f 229//300 227//300 252//300
f 255//301 252//301 227//301
f 252//302 253//302 251//302
f 252//303 254//303 253//303
f 254//304 252//304 255//304
f 227//305 257//305 255//305
f 257//306 256//306 255//306
f 256//307 258//307 255//307
f 259//308 255//308 258//308
f 255//309 259//309 261//309
f 255//310 260//310 254//310
f 255//311 261//311 260//311
f 264//312 261//312 259//312
f 263//313 262//313 261//313
f 262//314 260//314 261//314
f 261//315 264//315 263//315
f 265//316 266//316 264//316
f 264//317 267//317 265//317
f 267//318 264//318 259//318
f 264//319 266//319 263//319
f 269//320 265//320 267//320
f 269//321 267//321 268//321
f 268//322 267//322 270//322
f 259//323 270//323 267//323
f 271//324 272//324 270//324
f 270//325 259//325 271//325
f 272//326 273//326 270//326
f 275//327 270//327 273//327
f 270//328 275//328 274//328
f 274//329 268//329 270//329
f 273//330 276//330 275//330
f 277//331 275//331 276//331
f 277//332 274//332 275//332
f 276//333 278//333 277//333
f 278//334 280//334 277//334
f 279//335 281//335 277//335
f 277//336 280//336 279//336
f 281//337 274//337 277//337
f 281//338 279//338 282//338
f 268//339 274//339 281//339
f 269//340 281//340 283//340
f 281//341 269//341 268//341
f 282//342 283//342 281//342
f 283//343 282//343 284//343
f 284//344 285//344 283//344
f 286//345 283//345 285//345
f 283//346 286//346 269//346
f 285//347 287//347 286//347
f 289//348 286//348 287//348
f 288//349 269//349 286//349
f 286//350 289//350 288//350
f 287//351 290//351 289//351
f 289//352 290//352 291//352
f 293//353 289//353 291//353
f 293//354 292//354 289//354
f 289//355 292//355 265//355
f 289//356 265//356 288//356
f 294//357 293//357 291//357
f 292//358 293//358 294//358
f 297//359 294//359 295//359
f 291//360 295//360 294//360
f 294//361 263//361 292//361
f 294//362 296//362 263//362
f 297//363 296//363 294//363
f 298//364 297//364 295//364
f 298//365 296//365 297//365
f 295//366 301//366 298//366
f 301//367 299//367 298//367
f 300//131 298//131 299//131
f 303//368 298//368 300//368
f 298//369 303//369 302//369
f 298//370 302//370 296//370
f 304//371 303//371 305//371
f 304//372 302//372 303//372
f 300//373 305//373 303//373
f 305//374 300//374 306//374
f 306//375 308//375 305//375
f 305//376 307//376 304//376
f 307//377 305//377 308//377
f 308//378 306//378 311//378
f 310//379 308//379 240//379
f 240//380 308//380 311//380
f 308//381 309//381 307//381
f 308//382 310//382 309//382
f 311//383 306//383 312//383
f 312//384 313//384 311//384
f 311//385 313//385 314//385
f 314//386 315//386 311//386
f 311//387 315//387 240//387
f 316//388 317//388 315//388
f 315//389 314//389 316//389
f 240//390 315//390 317//390
f 317//391 316//391 318//391
f 318//392 319//392 317//392
f 241//393 240//393 317//393
f 317//394 319//394 241//394
f 319//395 321//395 241//395
f 320//396 321//396 319//396
f 319//397 318//397 320//397
f 241//398 321//398 322//398
f 323//399 322//399 321//399
f 321//400 320//400 323//400
f 320//401 318//401 323//401
f 324//402 323//402 318//402
f 323//403 324//403 325//403
f 325//404 322//404 323//404
f 325//405 327//405 326//405
f 326//406 331//406 325//406
f 327//407 325//407 328//407
f 328//408 325//408 324//408
f 329//409 322//409 325//409
f 325//410 330//410 329//410
f 331//411 330//411 325//411
f 333//412 332//412 331//412
f 331//413 332//413 330//413
f 333//414 331//414 326//414
f 332//415 333//415 335//415
f 334//416 336//416 333//416
f 339//417 334//417 333//417
f 333//418 336//418 335//418
f 333//419 326//419 337//419
f 337//420 338//420 333//420
f 338//421 339//421 333//421
f 339//422 341//422 340//422
f 340//423 334//423 339//423
f 341//424 339//424 338//424
f 341//127 344//127 342//127
f 342//127 340//127 341//127
f 344//127 341//127 343//127
f 338//425 343//425 341//425
f 343//127 345//127 344//127
f 344//426 345//426 346//426
f 342//427 344//427 346//427
f 345//428 348//428 346//428
f 347//429 346//429 128//429
f 349//430 346//430 347//430
f 128//431 346//431 348//431
f 346//432 349//432 342//432
f 347//433 350//433 349//433
f 349//434 350//434 351//434
f 351//435 342//435 349//435
f 135//436 352//436 351//436
f 351//437 353//437 135//437
f 353//438 351//438 350//438
f 342//127 351//127 352//127
f 135//439 353//439 130//439
f 130//440 353//440 347//440
f 350//441 347//441 353//441
f 334//442 340//442 352//442
f 352//443 336//443 334//443
f 336//444 352//444 135//444
f 352//127 340//127 342//127
f 348//445 345//445 354//445
f 354//446 355//446 348//446
f 348//447 356//447 128//447
f 355//448 356//448 348//448
f 357//449 359//449 356//449
f 356//450 358//450 357//450
f 355//451 358//451 356//451
f 128//452 356//452 129//452
f 129//453 356//453 359//453
f 359//454 361//454 360//454
f 360//455 129//455 359//455
f 362//456 361//456 359//456
f 359//457 357//457 362//457
f 363//458 361//458 362//458
f 363//459 362//459 357//459
f 364//460 363//460 357//460
f 364//127 365//127 363//127
f 361//461 363//461 365//461
f 364//151 366//151 365//151
f 366//462 367//462 365//462
f 365//463 367//463 361//463
f 367//464 360//464 361//464
f 367//465 366//465 360//465
f 364//127 368//127 366//127
f 360//466 366//466 368//466
f 368//467 369//467 360//467
f 371//468 369//468 368//468
f 364//460 370//460 368//460
f 370//469 371//469 368//469
f 371//470 372//470 369//470
f 370//471 373//471 371//471
f 372//472 371//472 373//472
f 373//473 370//473 374//473
f 373//474 374//474 372//474
f 364//475 374//475 370//475
f 364//476 375//476 374//476
f 372//477 374//477 375//477
f 376//151 375//151 364//151
f 376//478 377//478 375//478
f 378//479 375//479 377//479
f 375//480 378//480 372//480
f 378//481 377//481 379//481
f 122//482 378//482 121//482
f 122//483 372//483 378//483
f 121//484 378//484 379//484
f 380//485 376//485 379//485
f 379//486 377//486 380//486
f 379//487 376//487 382//487
f 121//488 379//488 381//488
f 382//489 381//489 379//489
f 383//437 382//437 376//437
f 383//127 384//127 382//127
f 384//490 385//490 382//490
f 381//491 382//491 385//491
f 385//492 386//492 381//492
f 384//493 386//493 385//493
f 386//494 384//494 387//494
f 387//495 388//495 386//495
f 386//496 388//496 381//496
f 388//497 389//497 381//497
f 390//498 389//498 388//498
f 388//499 387//499 390//499
f 391//127 392//127 390//127
f 390//127 387//127 391//127
f 390//127 392//127 394//127
f 389//500 390//500 393//500
f 394//127 393//127 390//127
f 395//501 396//501 394//501
f 394//502 392//502 395//502
f 116//503 394//503 396//503
f 393//127 394//127 116//127
f 396//504 397//504 116//504
f 396//505 398//505 397//505
f 395//506 398//506 396//506
f 398//507 399//507 400//507
f 398//508 395//508 399//508
f 398//509 400//509 6//509
f 401//510 398//510 6//510
f 397//511 398//511 401//511
f 5//512 397//512 401//512
f 401//513 6//513 5//513
f 402//514 6//514 400//514
f 403//515 402//515 400//515
f 404//516 403//516 400//516
f 404//517 400//517 399//517
f 405//518 404//518 399//518
f 406//519 404//519 405//519
f 404//520 407//520 403//520
f 407//521 404//521 406//521
f 407//522 408//522 409//522
f 406//523 408//523 407//523
f 403//524 407//524 410//524
f 407//525 409//525 410//525
f 411//526 410//526 412//526
f 410//527 411//527 402//527
f 410//528 409//528 413//528
f 413//529 412//529 410//529
f 402//530 403//530 410//530
f 413//531 414//531 415//531
f 413//532 417//532 414//532
f 415//533 412//533 413//533
f 416//534 413//534 409//534
f 417//535 413//535 416//535
f 416//536 279//536 417//536
f 420//537 418//537 417//537
f 414//538 417//538 418//538
f 417//539 419//539 420//539
f 417//540 279//540 419//540
f 418//541 420//541 421//541
f 421//542 420//542 422//542
f 419//543 422//543 420//543
f 278//544 423//544 422//544
f 422//545 280//545 278//545
f 423//546 421//546 422//546
f 279//547 280//547 422//547
f 419//548 279//548 422//548
f 423//549 278//549 424//549
f 421//550 423//550 424//550
f 425//551 424//551 429//551
f 426//552 424//552 425//552
f 424//553 426//553 428//553
f 278//554 429//554 424//554
f 427//555 421//555 424//555
f 427//556 424//556 428//556
f 429//557 430//557 425//557
f 429//558 276//558 273//558
f 278//559 276//559 429//559
f 430//560 429//560 273//560
f 431//561 430//561 432//561
f 425//562 430//562 431//562
f 433//563 432//563 430//563
f 273//564 272//564 430//564
f 272//565 433//565 430//565
f 433//566 434//566 432//566
f 434//567 433//567 435//567
f 272//568 271//568 433//568
f 433//569 271//569 435//569
f 436//570 435//570 271//570
f 435//571 436//571 434//571
f 438//572 436//572 437//572
f 437//573 436//573 440//573
f 436//574 438//574 434//574
f 271//575 439//575 436//575
f 436//576 439//576 440//576
f 441//577 440//577 442//577
f 440//578 441//578 437//578
f 440//579 439//579 442//579
f 439//580 258//580 442//580
f 258//581 443//581 442//581
f 444//582 441//582 442//582
f 443//583 444//583 442//583
f 222//584 446//584 444//584
f 443//585 222//585 444//585
f 445//586 441//586 444//586
f 446//587 445//587 444//587
f 446//588 215//588 216//588
f 447//589 446//589 216//589
f 448//590 445//590 446//590
f 446//591 447//591 448//591
f 215//592 446//592 222//592
f 449//593 445//593 448//593
f 449//594 448//594 450//594
f 451//595 450//595 448//595
f 447//596 451//596 448//596
f 191//597 451//597 188//597
f 450//598 451//598 191//598
f 447//599 188//599 451//599
f 452//600 449//600 450//600
f 450//601 453//601 452//601
f 450//602 191//602 453//602
f 191//603 190//603 453//603
f 190//604 187//604 453//604
f 453//605 454//605 452//605
f 453//606 187//606 454//606
f 455//607 457//607 454//607
f 454//608 456//608 455//608
f 454//609 186//609 456//609
f 187//610 186//610 454//610
f 457//611 452//611 454//611
f 452//612 457//612 438//612
f 457//613 455//613 458//613
f 458//614 438//614 457//614
f 438//615 458//615 434//615
f 455//616 459//616 458//616
f 458//617 459//617 432//617
f 432//618 434//618 458//618
f 455//619 460//619 459//619
f 426//620 425//620 459//620
f 459//621 461//621 426//621
f 461//622 459//622 460//622
f 459//623 425//623 431//623
f 459//624 431//624 432//624
f 462//625 461//625 460//625
f 463//626 426//626 461//626
f 461//627 462//627 463//627
f 463//628 465//628 464//628
f 464//629 467//629 463//629
f 465//630 463//630 466//630
f 462//631 466//631 463//631
f 426//632 463//632 467//632
f 469//633 468//633 467//633
f 428//634 467//634 468//634
f 467//635 464//635 469//635
f 428//636 426//636 467//636
f 470//637 469//637 464//637
f 469//638 470//638 471//638
f 469//639 471//639 472//639
f 469//640 472//640 468//640
f 472//641 474//641 415//641
f 415//642 473//642 472//642
f 468//643 472//643 473//643
f 472//644 475//644 474//644
f 471//645 475//645 472//645
f 470//646 475//646 471//646
f 470//647 476//647 475//647
f 478//648 475//648 476//648
f 412//649 474//649 475//649
f 475//650 477//650 412//650
f 477//651 475//651 478//651
f 478//652 476//652 479//652
f 479//653 480//653 478//653
f 477//654 478//654 480//654
f 480//655 479//655 482//655
f 477//656 480//656 481//656
f 482//657 481//657 480//657
f 482//658 479//658 483//658
f 483//659 484//659 482//659
f 481//660 482//660 484//660
f 484//661 483//661 487//661
f 484//662 486//662 481//662
f 487//663 485//663 484//663
f 485//664 486//664 484//664
f 488//665 487//665 483//665
f 488//666 489//666 487//666
f 485//667 487//667 489//667
f 491//668 489//668 488//668
f 489//669 490//669 485//669
f 490//670 489//670 491//670
f 488//671 493//671 491//671
f 491//672 492//672 490//672
f 492//673 491//673 494//673
f 494//674 491//674 493//674
f 495//675 494//675 496//675
f 494//676 495//676 492//676
f 493//677 496//677 494//677
f 496//678 497//678 495//678
f 497//679 496//679 498//679
f 498//680 496//680 493//680
f 498//681 26//681 497//681
f 26//682 498//682 25//682
f 499//683 25//683 498//683
f 493//684 499//684 498//684
f 25//685 499//685 28//685
f 499//686 501//686 28//686
f 499//687 500//687 501//687
f 500//688 499//688 493//688
f 504//689 28//689 501//689
f 501//690 500//690 502//690
f 502//691 503//691 501//691
f 501//692 503//692 504//692
f 504//693 505//693 506//693
f 505//694 504//694 507//694
f 506//695 33//695 504//695
f 503//696 507//696 504//696
f 33//697 28//697 504//697
f 507//698 508//698 505//698
f 507//699 509//699 508//699
f 502//700 509//700 507//700
f 502//701 507//701 503//701
f 511//702 510//702 509//702
f 509//703 510//703 189//703
f 509//704 189//704 67//704
f 509//705 502//705 511//705
f 508//706 509//706 67//706
f 510//707 511//707 512//707
f 513//708 511//708 502//708
f 513//709 512//709 511//709
f 512//710 513//710 514//710
f 493//711 514//711 513//711
f 502//712 500//712 513//712
f 493//713 513//713 500//713
f 514//714 488//714 517//714
f 488//715 514//715 493//715
f 515//716 514//716 517//716
f 514//717 515//717 516//717
f 514//718 516//718 512//718
f 517//719 488//719 518//719
f 519//720 517//720 518//720
f 517//721 519//721 515//721
f 522//722 520//722 519//722
f 519//723 520//723 521//723
f 519//724 521//724 523//724
f 518//725 522//725 519//725
f 523//726 515//726 519//726
f 523//727 525//727 524//727
f 524//728 516//728 523//728
f 523//729 521//729 525//729
f 515//730 523//730 516//730
f 526//731 525//731 521//731
f 526//732 524//732 525//732
f 526//733 183//733 189//733
f 526//734 527//734 183//734
f 527//735 526//735 521//735
f 526//736 528//736 524//736
f 189//737 528//737 526//737
f 510//738 528//738 189//738
f 512//739 528//739 510//739
f 516//740 524//740 528//740
f 528//741 512//741 516//741
f 464//742 527//742 470//742
f 470//743 527//743 529//743
f 527//744 465//744 183//744
f 529//745 527//745 520//745
f 527//746 521//746 520//746
f 465//747 527//747 464//747
f 470//748 529//748 520//748
f 520//749 522//749 470//749
f 522//750 518//750 470//750
f 518//751 483//751 479//751
f 530//752 518//752 479//752
f 530//753 470//753 518//753
f 518//754 488//754 483//754
f 530//755 476//755 470//755
f 530//756 479//756 476//756
f 505//757 508//757 67//757
f 33//758 506//758 68//758
f 67//759 68//759 506//759
f 67//760 506//760 505//760
f 14//761 495//761 497//761
f 497//762 26//762 14//762
f 531//763 492//763 495//763
f 495//764 17//764 531//764
f 17//765 495//765 14//765
f 10//766 531//766 17//766
f 10//767 11//767 531//767
f 11//768 486//768 531//768
f 492//769 531//769 490//769
f 531//770 485//770 490//770
f 486//771 485//771 531//771
f 11//772 481//772 486//772
f 3//773 481//773 11//773
f 3//774 2//774 481//774
f 2//775 411//775 481//775
f 481//776 411//776 477//776
f 412//777 477//777 411//777
f 412//778 415//778 474//778
f 468//779 473//779 418//779
f 414//780 473//780 415//780
f 414//781 418//781 473//781
f 427//782 428//782 468//782
f 468//783 418//783 427//783
f 462//784 533//784 466//784
f 466//785 534//785 532//785
f 466//786 532//786 183//786
f 466//787 533//787 534//787
f 183//788 465//788 466//788
f 536//789 535//789 534//789
f 532//790 534//790 535//790
f 534//791 533//791 536//791
f 537//792 193//792 536//792
f 533//793 537//793 536//793
f 193//794 535//794 536//794
f 537//795 182//795 193//795
f 537//796 533//796 462//796
f 537//797 462//797 182//797
f 532//798 535//798 183//798
f 183//799 535//799 193//799
f 184//800 462//800 460//800
f 184//801 182//801 462//801
f 455//802 456//802 460//802
f 456//803 185//803 460//803
f 185//804 184//804 460//804
f 186//805 185//805 456//805
f 452//806 438//806 437//806
f 449//807 452//807 437//807
f 441//808 449//808 437//808
f 445//809 449//809 441//809
f 196//810 188//810 447//810
f 447//811 216//811 196//811
f 221//812 222//812 443//812
f 221//813 443//813 256//813
f 256//814 443//814 258//814
f 439//815 271//815 259//815
f 258//816 439//816 259//816
f 421//817 427//817 418//817
f 282//818 279//818 416//818
f 282//819 416//819 408//819
f 409//820 408//820 416//820
f 402//821 411//821 2//821
f 408//822 284//822 282//822
f 287//823 408//823 406//823
f 408//824 287//824 284//824
f 538//825 406//825 405//825
f 290//826 406//826 538//826
f 290//827 287//827 406//827
f 540//828 538//828 405//828
f 538//829 539//829 290//829
f 538//830 540//830 539//830
f 541//831 540//831 544//831
f 540//832 541//832 543//832
f 540//833 405//833 544//833
f 542//834 539//834 540//834
f 543//835 542//835 540//835
f 399//836 544//836 405//836
f 544//837 399//837 547//837
f 541//838 544//838 546//838
f 544//839 545//839 546//839
f 545//840 544//840 547//840
f 399//841 548//841 547//841
f 547//842 548//842 383//842
f 545//843 547//843 383//843
f 548//844 549//844 391//844
f 391//845 383//845 548//845
f 548//846 399//846 549//846
f 549//847 399//847 395//847
f 549//848 395//848 392//848
f 392//848 391//848 549//848
f 541//849 546//849 550//849
f 546//850 545//850 550//850
f 553//851 551//851 550//851
f 550//852 551//852 541//852
f 550//853 545//853 552//853
f 550//854 552//854 554//854
f 553//855 550//855 554//855
f 553//856 554//856 555//856
f 555//857 554//857 558//857
f 554//858 552//858 556//858
f 554//859 556//859 557//859
f 558//860 554//860 557//860
f 555//861 558//861 559//861
f 557//862 326//862 558//862
f 326//863 327//863 558//863
f 559//864 558//864 327//864
f 328//865 559//865 327//865
f 560//866 555//866 559//866
f 559//867 299//867 301//867
f 301//868 560//868 559//868
f 328//869 299//869 559//869
f 560//870 561//870 555//870
f 301//871 561//871 560//871
f 555//872 561//872 553//872
f 543//873 553//873 561//873
f 561//874 295//874 543//874
f 295//875 561//875 301//875
f 557//876 556//876 337//876
f 557//877 337//877 326//877
f 556//878 364//878 337//878
f 556//879 552//879 364//879
f 553//880 543//880 551//880
f 552//881 545//881 364//881
f 551//882 543//882 541//882
f 545//883 383//883 364//883
f 542//884 543//884 295//884
f 295//885 291//885 542//885
f 291//886 539//886 542//886
f 291//887 290//887 539//887
f 6//888 402//888 4//888
f 4//889 402//889 2//889
f 5//890 116//890 397//890
f 562//891 393//891 115//891
f 116//127 115//127 393//127
f 393//892 562//892 389//892
f 562//497 119//497 389//497
f 119//893 562//893 563//893
f 115//894 563//894 562//894
f 117//895 119//895 563//895
f 563//896 115//896 117//896
f 383//897 391//897 387//897
f 389//497 119//497 381//497
f 387//460 384//460 383//460
f 364//460 383//460 376//460
f 119//497 121//497 381//497
f 376//898 380//898 377//898
f 372//899 122//899 369//899
f 120//900 360//900 369//900
f 369//901 122//901 120//901
f 337//902 364//902 343//902
f 364//127 345//127 343//127
f 364//127 354//127 345//127
f 364//127 358//127 354//127
f 364//127 357//127 358//127
f 120//903 129//903 360//903
f 358//904 355//904 354//904
f 130//905 347//905 564//905
f 347//906 128//906 564//906
f 131//326 130//326 564//326
f 564//907 128//907 131//907
f 343//908 338//908 337//908
f 135//909 565//909 336//909
f 336//910 565//910 335//910
f 335//911 565//911 566//911
f 565//912 135//912 567//912
f 565//913 567//913 566//913
f 568//914 570//914 567//914
f 567//214 569//214 568//214
f 569//915 567//915 135//915
f 566//916 567//916 570//916
f 570//917 571//917 572//917
f 571//137 570//137 568//137
f 572//918 574//918 570//918
f 574//919 573//919 570//919
f 570//920 573//920 566//920
f 574//921 572//921 577//921
f 575//922 573//922 574//922
f 575//923 574//923 576//923
f 576//924 574//924 577//924
f 578//925 576//925 577//925
f 577//926 580//926 578//926
f 579//927 580//927 577//927
f 577//928 582//928 579//928
f 577//929 572//929 581//929
f 581//930 582//930 577//930
f 582//931 583//931 584//931
f 583//932 582//932 581//932
f 584//933 579//933 582//933
f 585//934 587//934 584//934
f 584//935 586//935 585//935
f 586//936 584//936 583//936
f 584//937 588//937 579//937
f 588//938 584//938 587//938
f 587//939 589//939 588//939
f 590//940 588//940 589//940
f 580//941 579//941 588//941
f 588//942 590//942 580//942
f 591//943 590//943 592//943
f 591//944 580//944 590//944
f 589//945 592//945 590//945
f 568//946 593//946 592//946
f 592//946 594//946 568//946
f 592//947 593//947 591//947
f 594//948 592//948 589//948
f 568//137 594//137 571//137
f 589//948 595//948 594//948
f 571//137 594//137 595//137
f 595//949 589//949 587//949
f 587//949 596//949 595//949
f 597//137 595//137 596//137
f 595//137 597//137 571//137
f 581//950 597//950 598//950
f 597//951 581//951 572//951
f 596//137 598//137 597//137
f 572//952 571//952 597//952
f 600//137 599//137 598//137
f 601//953 598//953 599//953
f 598//137 596//137 600//137
f 598//954 601//954 581//954
f 581//955 601//955 583//955
f 602//956 583//956 601//956
f 599//957 602//957 601//957
f 599//958 600//958 602//958
f 603//959 583//959 602//959
f 585//960 603//960 602//960
f 600//961 585//961 602//961
f 585//962 586//962 603//962
f 583//963 603//963 586//963
f 585//964 600//964 596//964
f 596//964 587//964 585//964
f 593//965 136//965 134//965
f 591//966 593//966 134//966
f 136//967 593//967 568//967
f 604//968 578//968 591//968
f 605//969 604//969 591//969
f 591//970 134//970 605//970
f 580//971 591//971 578//971
f 134//972 137//972 605//972
f 137//973 606//973 605//973
f 604//974 605//974 606//974
f 608//975 607//975 606//975
f 607//976 604//976 606//976
f 138//977 606//977 137//977
f 608//978 606//978 609//978
f 606//979 138//979 609//979
f 612//151 610//151 609//151
f 610//980 611//980 609//980
f 609//981 611//981 608//981
f 138//982 612//982 609//982
f 612//983 611//983 610//983
f 612//984 613//984 611//984
f 613//985 612//985 614//985
f 138//161 126//161 612//161
f 126//198 156//198 612//198
f 612//198 156//198 614//198
f 615//986 613//986 614//986
f 156//987 615//987 614//987
f 613//988 615//988 616//988
f 617//989 616//989 615//989
f 615//990 618//990 617//990
f 156//991 158//991 615//991
f 615//992 158//992 166//992
f 615//993 166//993 168//993
f 168//994 618//994 615//994
f 617//995 618//995 171//995
f 618//996 168//996 171//996
f 617//997 620//997 619//997
f 616//998 617//998 619//998
f 171//999 620//999 617//999
f 620//1000 623//1000 621//1000
f 621//1001 619//1001 620//1001
f 622//1002 620//1002 171//1002
f 623//1003 620//1003 622//1003
f 623//1004 625//1004 621//1004
f 624//1005 623//1005 622//1005
f 623//1006 624//1006 625//1006
f 625//1007 179//1007 626//1007
f 625//1008 176//1008 179//1008
f 625//1009 624//1009 173//1009
f 626//1010 621//1010 625//1010
f 176//1011 625//1011 173//1011
f 628//1012 627//1012 626//1012
f 627//1013 621//1013 626//1013
f 626//1014 210//1014 628//1014
f 210//1015 626//1015 179//1015
f 629//1016 632//1016 628//1016
f 628//1017 630//1017 629//1017
f 628//1018 210//1018 211//1018
f 211//1019 630//1019 628//1019
f 631//1020 627//1020 628//1020
f 632//1021 631//1021 628//1021
f 633//1022 634//1022 632//1022
f 632//1023 629//1023 633//1023
f 634//1024 631//1024 632//1024
f 634//1025 633//1025 635//1025
f 635//1026 573//1026 634//1026
f 634//1027 636//1027 631//1027
f 636//1028 634//1028 573//1028
f 636//1029 637//1029 631//1029
f 637//1030 636//1030 638//1030
f 575//1031 636//1031 573//1031
f 636//1032 575//1032 638//1032
f 638//1033 575//1033 604//1033
f 604//1034 640//1034 638//1034
f 638//1035 639//1035 637//1035
f 639//1036 638//1036 640//1036
f 640//1037 604//1037 641//1037
f 642//1038 640//1038 641//1038
f 639//1039 640//1039 642//1039
f 642//1040 641//1040 643//1040
f 644//1041 642//1041 643//1041
f 645//1042 642//1042 644//1042
f 645//1043 639//1043 642//1043
f 639//1044 645//1044 627//1044
f 627//1045 645//1045 621//1045
f 645//1046 644//1046 621//1046
f 643//1047 646//1047 644//1047
f 644//1048 646//1048 621//1048
f 643//1049 647//1049 646//1049
f 646//1050 619//1050 621//1050
f 646//1051 608//1051 619//1051
f 646//1052 647//1052 608//1052
f 641//1053 607//1053 647//1053
f 643//1054 641//1054 647//1054
f 607//1055 608//1055 647//1055
f 641//1056 604//1056 607//1056
f 637//1057 639//1057 627//1057
f 631//1058 637//1058 627//1058
f 566//1059 573//1059 635//1059
f 635//1060 335//1060 566//1060
f 335//1061 635//1061 332//1061
f 332//1062 635//1062 633//1062
f 633//1063 648//1063 332//1063
f 648//1064 633//1064 629//1064
f 629//1065 649//1065 648//1065
f 650//1066 648//1066 649//1066
f 648//1067 650//1067 332//1067
f 329//1068 330//1068 650//1068
f 330//1069 332//1069 650//1069
f 649//1070 651//1070 650//1070
f 652//1071 650//1071 651//1071
f 650//1072 652//1072 329//1072
f 651//1073 653//1073 652//1073
f 652//1074 653//1074 239//1074
f 239//1075 241//1075 652//1075
f 652//1076 241//1076 322//1076
f 652//1077 322//1077 329//1077
f 653//1078 651//1078 654//1078
f 654//1079 655//1079 653//1079
f 239//1080 653//1080 655//1080
f 226//1081 655//1081 654//1081
f 225//1082 655//1082 226//1082
f 225//1083 656//1083 655//1083
f 655//1084 656//1084 239//1084
f 656//1085 225//1085 234//1085
f 656//1086 234//1086 239//1086
f 226//1087 654//1087 657//1087
f 651//1088 657//1088 654//1088
f 226//1089 657//1089 211//1089
f 211//1090 657//1090 630//1090
f 651//1091 649//1091 657//1091
f 630//1092 657//1092 649//1092
f 649//1093 629//1093 630//1093
f 173//1094 624//1094 622//1094
f 173//1095 622//1095 172//1095
f 171//1096 172//1096 622//1096
f 619//1097 658//1097 616//1097
f 619//1098 611//1098 658//1098
f 619//1099 608//1099 611//1099
f 658//1100 611//1100 659//1100
f 659//1101 616//1101 658//1101
f 616//1102 659//1102 613//1102
f 611//1103 613//1103 659//1103
f 604//1104 575//1104 578//1104
f 576//1105 578//1105 575//1105
f 568//967 569//967 136//967
f 569//1106 135//1106 136//1106
f 328//1107 324//1107 299//1107
f 324//1108 318//1108 312//1108
f 660//1109 299//1109 324//1109
f 312//1110 660//1110 324//1110
f 300//1111 660//1111 312//1111
f 300//1112 299//1112 660//1112
f 312//1113 318//1113 314//1113
f 318//1114 316//1114 314//1114
f 312//1115 314//1115 313//1115
f 306//1116 300//1116 312//1116
f 251//1117 310//1117 243//1117
f 240//1118 243//1118 310//1118
f 253//1119 309//1119 310//1119
f 310//1120 251//1120 253//1120
f 309//1121 253//1121 254//1121
f 254//1122 307//1122 309//1122
f 260//1123 304//1123 307//1123
f 307//1124 254//1124 260//1124
f 302//1125 304//1125 262//1125
f 304//1126 260//1126 262//1126
f 302//1127 262//1127 296//1127
f 296//1128 262//1128 263//1128
f 265//1129 292//1129 266//1129
f 263//1130 266//1130 292//1130
f 265//1131 269//1131 288//1131
f 285//1132 284//1132 287//1132
f 256//1133 257//1133 221//1133
f 221//1134 257//1134 223//1134
f 257//1135 227//1135 223//1135
f 243//1136 246//1136 251//1136
f 245//1137 228//1137 249//1137
f 228//1138 248//1138 249//1138
f 229//1139 248//1139 228//1139
f 228//1140 245//1140 235//1140
f 237//1141 235//1141 245//1141
f 234//1142 225//1142 231//1142
f 211//1143 212//1143 226//1143
f 226//1144 212//1144 217//1144
f 217//1145 212//1145 218//1145
f 179//1146 213//1146 210//1146
f 178//1147 213//1147 179//1147
f 198//1148 213//1148 178//1148
f 203//1149 208//1149 201//1149
f 198//1150 199//1150 205//1150
f 182//1151 194//1151 193//1151
f 192//216 73//216 70//216
f 192//1152 661//1152 73//1152
f 192//1153 70//1153 189//1153
f 180//216 662//216 192//216
f 192//1154 110//1154 661//1154
f 111//198 110//198 192//198
f 111//198 192//198 126//198
f 126//198 192//198 156//198
f 156//198 192//198 662//198
f 156//161 662//161 180//161
f 663//1155 661//1155 665//1155
f 664//1156 661//1156 663//1156
f 73//1157 661//1157 664//1157
f 665//1158 661//1158 98//1158
f 110//1159 98//1159 661//1159
f 668//1160 663//1160 665//1160
f 666//1161 668//1161 665//1161
f 665//1162 669//1162 666//1162
f 667//198 665//198 670//198
f 665//1163 667//1163 669//1163
f 98//198 105//198 665//198
f 665//198 105//198 670//198
f 667//1164 670//1164 671//1164
f 671//1165 670//1165 104//1165
f 104//1166 670//1166 105//1166
f 671//1167 672//1167 667//1167
f 51//1168 672//1168 671//1168
f 106//1169 51//1169 671//1169
f 671//1170 104//1170 106//1170
f 51//1171 52//1171 672//1171
f 53//1172 672//1172 52//1172
f 673//1173 672//1173 53//1173
f 673//1174 667//1174 672//1174
f 676//1175 673//1175 53//1175
f 667//1176 673//1176 674//1176
f 675//1177 674//1177 673//1177
f 673//1178 676//1178 675//1178
f 677//1179 675//1179 676//1179
f 676//1180 678//1180 677//1180
f 678//1181 676//1181 56//1181
f 53//1182 56//1182 676//1182
f 680//1183 678//1183 679//1183
f 679//1184 678//1184 681//1184
f 666//1185 678//1185 680//1185
f 666//1186 677//1186 678//1186
f 56//1187 681//1187 678//1187
f 679//1188 681//1188 682//1188
f 682//1189 681//1189 683//1189
f 683//1190 681//1190 61//1190
f 681//1191 56//1191 61//1191
f 683//1192 61//1192 62//1192
f 683//1193 62//1193 71//1193
f 684//1194 683//1194 71//1194
f 683//1195 684//1195 685//1195
f 685//1196 682//1196 683//1196
f 685//1197 686//1197 689//1197
f 686//1198 685//1198 684//1198
f 679//1199 682//1199 685//1199
f 688//1200 687//1200 685//1200
f 679//1201 685//1201 687//1201
f 688//1202 685//1202 690//1202
f 689//1203 690//1203 685//1203
f 690//1204 692//1204 688//1204
f 690//1205 691//1205 693//1205
f 690//1206 689//1206 691//1206
f 101//1207 692//1207 690//1207
f 690//1208 693//1208 101//1208
f 100//1209 693//1209 691//1209
f 100//1210 101//1210 693//1210
f 694//1211 692//1211 695//1211
f 694//1212 688//1212 692//1212
f 94//1213 692//1213 101//1213
f 695//1214 692//1214 94//1214
f 694//1215 695//1215 696//1215
f 696//1216 695//1216 94//1216
f 697//1217 696//1217 95//1217
f 697//1218 694//1218 696//1218
f 95//1219 696//1219 94//1219
f 697//1220 663//1220 668//1220
f 668//1221 699//1221 697//1221
f 698//1222 697//1222 95//1222
f 698//1223 663//1223 697//1223
f 699//1224 694//1224 697//1224
f 699//1225 668//1225 666//1225
f 666//1226 680//1226 699//1226
f 699//1227 680//1227 687//1227
f 699//1228 687//1228 694//1228
f 700//1229 698//1229 95//1229
f 698//1230 664//1230 663//1230
f 664//1231 698//1231 700//1231
f 95//1232 96//1232 700//1232
f 701//1233 700//1233 96//1233
f 664//1234 700//1234 701//1234
f 701//1235 90//1235 88//1235
f 96//1236 90//1236 701//1236
f 88//1237 80//1237 701//1237
f 701//1238 80//1238 702//1238
f 664//1239 701//1239 702//1239
f 77//1240 73//1240 702//1240
f 702//1241 73//1241 664//1241
f 80//1242 77//1242 702//1242
f 694//1243 687//1243 688//1243
f 703//1244 691//1244 689//1244
f 691//1245 108//1245 100//1245
f 108//1246 691//1246 703//1246
f 704//1247 703//1247 705//1247
f 107//1248 703//1248 704//1248
f 703//1249 107//1249 108//1249
f 689//1250 705//1250 703//1250
f 706//1251 705//1251 689//1251
f 705//1252 706//1252 707//1252
f 707//1253 708//1253 705//1253
f 705//1254 708//1254 704//1254
f 709//1255 710//1255 708//1255
f 708//1256 707//1256 709//1256
f 708//1257 710//1257 84//1257
f 84//1258 704//1258 708//1258
f 710//1259 709//1259 74//1259
f 74//1260 83//1260 710//1260
f 710//1261 83//1261 84//1261
f 709//1262 75//1262 74//1262
f 75//1263 709//1263 707//1263
f 71//1264 707//1264 706//1264
f 707//1265 71//1265 75//1265
f 706//1266 684//1266 71//1266
f 686//1267 684//1267 706//1267
f 689//1268 686//1268 706//1268
f 107//1269 704//1269 84//1269
f 679//1270 687//1270 680//1270
f 669//1271 677//1271 666//1271
f 674//1272 675//1272 677//1272
f 677//1273 667//1273 711//1273
f 667//1274 677//1274 669//1274
f 677//1275 711//1275 674//1275
f 674//1276 711//1276 667//1276
f 67//1277 189//1277 70//1277
f 180//161 174//161 156//161
f 156//177 174//177 151//177
f 174//177 147//177 151//177
f 160//1278 166//1278 158//1278
f 163//1279 166//1279 160//1279
f 142//127 145//127 165//127
f 124//1280 152//1280 143//1280
f 143//1280 132//1280 124//1280
f 140//1281 139//1281 142//1281
f 126//1282 140//1282 125//1282
f 87//127 91//127 110//127
f 110//127 91//127 92//127
f 110//127 92//127 98//127
f 51//1283 106//1283 47//1283
f 103//137 19//137 48//137
f 5//1284 12//1284 103//1284
f 19//6 103//6 12//6
f 80//1285 88//1285 81//1285
f 62//1286 60//1286 71//1286
f 60//1287 59//1287 71//1287
f 35//1288 32//1288 68//1288
f 68//1289 32//1289 33//1289
f 61//1290 56//1290 55//1290
f 51//1291 47//1291 49//1291
f 41//1292 48//1292 712//1292
f 19//137 712//137 48//137
f 714//1293 712//1293 19//1293
f 714//1294 713//1294 712//1294
f 712//1295 713//1295 41//1295
f 18//1296 714//1296 19//1296
f 714//1297 16//1297 713//1297
f 18//1298 16//1298 714//1298
f 16//1299 15//1299 713//1299
f 713//1300 42//1300 41//1300
f 713//1301 37//1301 42//1301
f 38//1302 37//1302 713//1302
f 713//1303 15//1303 38//1303
f 38//1304 22//1304 30//1304
f 22//1305 38//1305 15//1305
f 12//6 9//6 19//6
f 5//1306 7//1306 12//1306
