# Blender 5.0.1
# www.blender.org
mtllib torso_y_link_visual_37.mtl
o i01.torso.full.039_visual.001
v -0.067092 0.054187 -0.032623
v -0.067092 -0.057993 -0.025247
v -0.000568 0.057121 0.011992
v 0.067092 0.054187 -0.032623
v 0.067092 -0.057993 -0.025247
v -0.067092 -0.054188 0.032622
v -0.067092 0.057993 0.025244
v -0.000565 -0.055059 0.019368
v 0.067092 -0.054188 0.032622
v 0.067092 0.057993 0.025244
vn -0.0000 -0.0656 -0.9978
vn -1.0000 -0.0000 -0.0000
vn -0.0000 0.9978 -0.0656
vn 0.1958 0.0644 0.9785
vn -0.0000 -0.9978 0.0656
vn -0.1926 0.0644 0.9792
vn 1.0000 -0.0000 -0.0000
s 0
usemtl Material.027
f 5//1 2//1 1//1
f 2//2 6//2 1//2
f 1//3 3//3 4//3
f 1//3 7//3 3//3
f 1//1 4//1 5//1
f 6//2 7//2 1//2
f 7//4 6//4 8//4
f 8//4 3//4 7//4
f 8//5 6//5 2//5
f 9//5 8//5 2//5
f 8//6 9//6 10//6
f 10//6 3//6 8//6
f 3//3 10//3 4//3
f 9//7 4//7 10//7
f 2//5 5//5 9//5
f 9//7 5//7 4//7
