# Blender 5.0.1
# www.blender.org
mtllib torso_z_link_visual_11.mtl
o i01.torso.topStom.full.012_visual.001
v 0.032401 -0.022038 -0.022290
v -0.001599 -0.037727 -0.025244
v -0.020148 -0.028942 -0.027994
v -0.031515 0.009889 -0.031879
v 0.014522 0.033313 -0.028026
v 0.027050 -0.016975 0.031878
v -0.030594 -0.014694 -0.030156
v 0.038456 -0.005306 -0.022680
v 0.019264 -0.033242 -0.023093
v -0.013252 0.031143 -0.031137
v 0.035538 0.015127 -0.024367
v 0.014023 -0.029079 0.031149
v -0.005905 -0.034353 0.029160
v -0.038456 0.011475 0.022332
v -0.036255 -0.012791 0.024185
v -0.025526 -0.026172 0.026322
v 0.032233 -0.000493 0.031403
v -0.024091 0.031517 0.022698
v 0.009580 0.035959 0.026351
v -0.007483 0.037727 0.024236
v 0.028226 0.020496 0.029552
vn -0.1162 0.0652 0.9911
vn -0.1161 0.0651 0.9911
vn -0.1161 0.0652 0.9911
vn -0.1162 0.0651 0.9911
vn 0.6705 -0.7297 0.1344
vn 0.9340 -0.3351 0.1236
vn -0.1164 0.0652 0.9911
vn 0.6399 -0.7590 0.1201
vn 0.2455 -0.9645 0.0977
vn -0.9902 -0.0974 -0.0997
vn -0.8059 0.5798 -0.1201
vn -0.9910 -0.0459 -0.1255
vn 0.9741 0.1959 0.1126
vn 0.6361 0.7713 0.0203
vn 0.6530 0.7573 0.0131
vn -0.3431 0.9363 -0.0756
vn 0.1077 0.9934 -0.0386
vn -0.0650 0.9917 -0.1111
vn -0.7466 0.6470 -0.1548
vn 0.9838 0.1487 0.1000
vn 0.9463 -0.2937 0.1350
vn -0.7759 -0.6292 -0.0447
vn -0.3879 -0.9213 0.0264
vn -0.4285 -0.9036 0.0037
vn -0.8004 -0.5963 -0.0625
vn 0.2020 -0.9764 0.0766
s 0
usemtl Material.007
f 1//1 2//1 9//1
f 1//2 3//2 2//2
f 1//3 7//3 3//3
f 1//3 10//3 4//3
f 1//4 4//4 7//4
f 1//3 11//3 5//3
f 1//3 5//3 10//3
f 1//7 8//7 11//7
usemtl Material.006
f 1//5 6//5 12//5
f 6//6 1//6 8//6
f 12//8 9//8 1//8
f 9//9 12//9 13//9
f 14//3 13//3 12//3
f 14//3 12//3 6//3
f 14//4 16//4 13//4
f 7//10 15//10 14//10
f 14//4 15//4 16//4
f 14//2 6//2 17//2
f 14//3 17//3 21//3
f 4//11 14//11 18//11
f 14//2 20//2 18//2
f 14//3 21//3 19//3
f 14//2 19//2 20//2
f 14//12 4//12 7//12
f 11//13 21//13 17//13
f 5//14 19//14 21//14
f 21//15 11//15 5//15
f 10//16 18//16 20//16
f 5//17 20//17 19//17
f 20//18 5//18 10//18
f 18//19 10//19 4//19
f 17//20 8//20 11//20
f 8//21 17//21 6//21
f 3//22 16//22 15//22
f 2//23 13//23 16//23
f 16//24 3//24 2//24
f 15//25 7//25 3//25
f 13//26 2//26 9//26
