# Blender 5.0.1
# www.blender.org
mtllib torso_bottom_link_visual_1.mtl
o i01.torso.midstom.full.002_visual.001
v 0.038773 -0.429531 -0.043380
v 0.069734 -0.446885 -0.042239
v 0.069734 -0.437547 0.099781
v -0.000383 -0.429530 -0.043380
v 0.069734 -0.342830 -0.049080
v 0.038773 -0.420192 0.098640
v -0.000383 -0.359907 -0.047957
v 0.038773 -0.359907 -0.047957
v 0.081728 -0.469667 -0.040738
v 0.000151 -0.429524 -0.043380
v 0.000151 -0.420186 0.098640
v 0.094389 -0.472371 0.102072
v 0.087107 -0.473798 0.102165
v 0.075362 -0.491126 0.103305
v 0.080935 -0.477864 0.102433
v 0.076810 -0.483949 0.102833
v 0.000147 -0.599732 0.110446
v 0.000147 -0.571069 -0.034073
v -0.100699 -0.568296 -0.034254
v -0.070996 -0.524043 -0.037164
v -0.061306 -0.500471 -0.038713
v -0.081729 -0.531269 -0.036689
v -0.063825 -0.513228 -0.037875
v -0.100698 -0.600179 0.110475
v -0.000383 -0.420192 0.098640
v 0.100699 -0.568289 -0.034254
v 0.070996 -0.524036 -0.037163
v 0.061306 -0.500465 -0.038713
v 0.081729 -0.531262 -0.036689
v 0.063825 -0.513222 -0.037875
v 0.100698 -0.600172 0.110476
v 0.196785 -0.592121 0.109945
v 0.094389 -0.509881 0.104538
v 0.087107 -0.508454 0.104445
v 0.107842 -0.504388 0.104177
v 0.101670 -0.508454 0.104445
v 0.140212 -0.589533 0.079049
v 0.142969 -0.589415 0.079313
v 0.137562 -0.589663 0.078252
v 0.135119 -0.589611 0.076940
v 0.132977 -0.589331 0.075161
v 0.131220 -0.588862 0.072984
v 0.129914 -0.588428 0.070507
v 0.129110 -0.587826 0.067811
v 0.128839 -0.587085 0.065000
v 0.129110 -0.586412 0.062192
v 0.128839 -0.484843 0.058277
v 0.129110 -0.484662 0.061028
v 0.129914 -0.484488 0.063673
v 0.142969 -0.484843 0.058277
v 0.156828 -0.484662 0.061028
v 0.156024 -0.485198 0.052880
v 0.156828 -0.485024 0.055526
v 0.150820 -0.485614 0.046552
v 0.152961 -0.485499 0.048306
v 0.142969 -0.485770 0.044177
v 0.145726 -0.485753 0.044448
v 0.135119 -0.485614 0.046552
v 0.137562 -0.485700 0.045250
v 0.129914 -0.485198 0.052880
v 0.131220 -0.485358 0.050442
v 0.132977 -0.484188 0.068247
v 0.131220 -0.484328 0.066110
v 0.140212 -0.483934 0.072105
v 0.137562 -0.483987 0.071303
v 0.148377 -0.483987 0.071303
v 0.145726 -0.483934 0.072105
v 0.154718 -0.484328 0.066110
v 0.152961 -0.484188 0.068247
v 0.157100 -0.484843 0.058277
v 0.154718 -0.485358 0.050444
v 0.148377 -0.485700 0.045250
v 0.140212 -0.485753 0.044448
v 0.132977 -0.485499 0.048306
v 0.129110 -0.485024 0.055526
v 0.135119 -0.484072 0.070000
v 0.142969 -0.483916 0.072376
v 0.150820 -0.484072 0.070000
v 0.156024 -0.484488 0.063673
v 0.156024 -0.585704 0.070328
v 0.156828 -0.584870 0.067616
v 0.157100 -0.584105 0.064804
v 0.156828 -0.583626 0.062009
v 0.156024 -0.583093 0.059318
v 0.196786 -0.557207 -0.034983
v 0.285340 -0.409090 -0.044723
v 0.143532 -0.197318 -0.058647
v 0.099106 -0.221013 -0.057089
v 0.050901 -0.235605 -0.056129
v 0.127470 -0.500465 -0.038713
v 0.124952 -0.513221 -0.037875
v 0.124952 -0.487708 -0.039553
v 0.117781 -0.524036 -0.037164
v 0.190043 -0.318269 -0.050694
v 0.117781 -0.476893 -0.040264
v 0.154718 -0.582622 0.056839
v 0.152961 -0.582370 0.054676
v 0.150820 -0.582282 0.052909
v 0.148377 -0.582165 0.051594
v 0.145726 -0.582283 0.050796
v 0.285340 -0.399751 0.097296
v 0.362959 -0.336188 0.093117
v 0.143532 -0.187980 0.083371
v 0.362959 -0.345527 -0.048902
v 0.182472 -0.156091 0.081274
v 0.099106 -0.211675 0.084929
v 0.050901 -0.226266 0.085890
v 0.000151 -0.350562 0.094063
v 0.038773 -0.350569 0.094063
v 0.000147 -0.231200 0.086213
v 0.069734 -0.333494 0.092940
v 0.107842 -0.477864 0.102433
v 0.111967 -0.483949 0.102833
v 0.111967 -0.492038 -0.020191
v 0.113415 -0.491126 0.103305
v 0.107842 -0.485954 -0.020591
v 0.101670 -0.481888 -0.020859
v 0.107048 -0.469667 -0.040739
v 0.094388 -0.467130 -0.040906
v 0.094388 -0.480460 -0.020952
v 0.087107 -0.481888 -0.020859
v 0.080935 -0.485954 -0.020591
v 0.070996 -0.476893 -0.040264
v 0.076810 -0.492038 -0.020191
v 0.063825 -0.487708 -0.039553
v 0.075362 -0.499216 -0.019719
v 0.076810 -0.506393 -0.019247
v 0.076810 -0.498304 0.103777
v 0.080935 -0.504388 0.104177
v 0.080935 -0.512478 -0.018847
v 0.087107 -0.516544 -0.018579
v 0.094389 -0.517971 -0.018486
v 0.094389 -0.533800 -0.036521
v 0.101670 -0.516544 -0.018579
v 0.107048 -0.531262 -0.036689
v 0.107842 -0.512478 -0.018847
v 0.111967 -0.506393 -0.019247
v 0.111967 -0.498304 0.103777
v 0.113415 -0.499216 -0.019719
v 0.101670 -0.473798 0.102165
v -0.050901 -0.226273 0.085890
v 0.000147 -0.240538 -0.055806
v -0.000383 -0.350568 0.094063
v -0.050901 -0.235611 -0.056129
v -0.099106 -0.221020 -0.057089
v -0.196786 -0.557213 -0.034984
v -0.285340 -0.409096 -0.044723
v -0.196785 -0.592128 0.109945
v -0.143532 -0.197325 -0.058647
v -0.127470 -0.500471 -0.038713
v -0.124952 -0.513228 -0.037875
v -0.124952 -0.487714 -0.039553
v -0.117781 -0.524043 -0.037164
v -0.190043 -0.318275 -0.050694
v -0.117781 -0.476900 -0.040264
v -0.156828 -0.583633 0.062009
v -0.156024 -0.583099 0.059317
v -0.154718 -0.582628 0.056837
v -0.152961 -0.582377 0.054674
v -0.150820 -0.582288 0.052908
v -0.148377 -0.582171 0.051592
v -0.145726 -0.582290 0.050794
v -0.285340 -0.399758 0.097296
v -0.362959 -0.336195 0.093117
v -0.143532 -0.187986 0.083371
v -0.362959 -0.345533 -0.048902
v -0.182472 -0.156098 0.081275
v -0.099106 -0.211681 0.084929
v -0.214429 -0.117242 0.078720
v -0.182472 -0.165436 -0.060743
v -0.214429 -0.126580 -0.063299
v -0.238175 -0.082250 -0.066214
v -0.349046 -0.224323 -0.056872
v -0.190043 -0.224323 -0.056871
v -0.349047 -0.318275 -0.050694
v -0.404276 -0.317653 -0.050735
v -0.252798 -0.034149 -0.069377
v -0.334497 -0.034149 -0.069377
v -0.334497 -0.028052 0.023342
v -0.334497 0.065898 -0.075954
v -0.334497 0.021971 0.020053
v -0.252798 -0.028052 0.023342
v -0.252798 -0.024810 0.072642
v -0.238175 -0.072912 0.075805
v -0.257865 0.021971 0.020053
v -0.252797 0.071995 0.016765
v -0.257735 0.025213 0.069353
v -0.334497 0.071995 0.016765
v -0.252798 0.075237 0.066064
v -0.404276 -0.308315 0.091284
v -0.373377 0.370047 0.046679
v -0.374702 -0.214123 0.085090
v -0.374701 0.250230 0.054558
v -0.375575 0.297620 0.051441
v -0.402043 0.294771 0.008122
v -0.419058 0.297620 0.051441
v -0.419058 0.370047 0.046679
v -0.442491 0.368747 0.026915
v -0.402494 0.360709 -0.095340
v -0.737858 0.360709 -0.095341
v -0.508460 0.365396 -0.024053
v -0.349045 0.350192 -0.094648
v -0.373163 0.360709 -0.095340
v -0.349046 0.257492 -0.088553
v -0.662086 0.173392 -0.083023
v -0.654845 0.162683 -0.082319
v -0.652301 0.150050 -0.081489
v -0.668343 0.158564 -0.062973
v -0.666913 0.151299 -0.062495
v -0.668343 0.144033 -0.062017
v -0.666913 0.159388 0.060531
v -0.668344 0.152123 0.061007
v -0.672418 0.145964 0.061414
v -0.668344 -0.084039 0.076537
v -0.672418 -0.077879 0.076132
v -0.678516 -0.073764 0.075861
v -0.672418 -0.085969 -0.046893
v -0.678516 -0.081853 -0.047165
v -0.685709 -0.080408 -0.047259
v -0.672924 -0.070144 -0.067010
v -0.685709 -0.067632 -0.067175
v -0.685709 0.117039 -0.079318
v -0.698493 -0.070144 -0.067010
v -0.692901 -0.081853 -0.047165
v -0.698999 -0.085969 -0.046894
v -0.692901 -0.073764 0.075861
v -0.698999 -0.077879 0.076131
v -0.703074 -0.084038 0.076537
v -0.729548 -0.074498 0.075909
v -0.679544 -0.308572 0.091301
v -0.739390 0.051729 0.067610
v -0.729548 -0.083837 -0.066111
v -0.704504 -0.091304 0.077014
v -0.739390 0.042390 -0.074409
v -0.703074 -0.098570 0.077493
v -0.698999 -0.104729 0.077897
v -0.703074 -0.106659 -0.045533
v -0.704504 -0.099393 -0.046011
v -0.703074 -0.092128 -0.046489
v -0.719116 -0.100642 -0.065005
v -0.716573 -0.088010 -0.065836
v -0.709331 -0.077300 -0.066540
v -0.716573 -0.113275 -0.064175
v -0.709331 -0.123984 -0.063471
v -0.679543 -0.317910 -0.050718
v -0.698999 -0.112818 -0.045128
v -0.692901 -0.116934 -0.044858
v -0.692902 -0.108844 0.078168
v -0.685709 -0.110290 0.078262
v -0.641429 -0.214122 0.085090
v -0.636871 -0.214737 0.075756
v -0.598739 -0.308486 0.091295
v -0.641454 0.250231 0.054558
v -0.668344 -0.098570 0.077493
v -0.672418 -0.104729 0.077897
v -0.678516 -0.108844 0.078168
v -0.666913 -0.091304 0.077014
v -0.379958 -0.214737 0.075756
v -0.537223 -0.308400 0.091290
v -0.537223 -0.317739 -0.050730
v -0.598739 -0.317824 -0.050724
v -0.654844 -0.113275 -0.064175
v -0.662086 -0.123985 -0.063470
v -0.672418 -0.112818 -0.045128
v -0.672925 -0.131140 -0.063000
v -0.678516 -0.116934 -0.044858
v -0.685709 -0.118379 -0.044763
v -0.685709 -0.133653 -0.062835
v -0.698493 -0.131140 -0.063000
v -0.668343 -0.106659 -0.045533
v -0.666913 -0.099393 -0.046011
v -0.652301 -0.100642 -0.065005
v -0.654845 -0.088010 -0.065836
v -0.668343 -0.092128 -0.046489
v -0.662086 -0.077300 -0.066540
v -0.654844 0.137417 -0.080658
v -0.662086 0.126708 -0.079954
v -0.672418 0.137874 -0.061612
v -0.678516 0.133759 -0.061341
v -0.678516 0.141848 0.061684
v -0.685709 0.140403 0.061779
v -0.685709 -0.072318 0.075767
v -0.692902 0.141848 0.061684
v -0.698999 0.145964 0.061414
v -0.692901 0.133759 -0.061341
v -0.698999 0.137874 -0.061612
v -0.703074 0.144033 -0.062017
v -0.709331 0.126708 -0.079954
v -0.716573 0.137417 -0.080658
v -0.719116 0.150050 -0.081489
v -0.738568 0.172731 -0.082980
v -0.738568 0.182070 0.059039
v -0.716573 0.162683 -0.082319
v -0.698493 0.180548 -0.083494
v -0.709331 0.173392 -0.083023
v -0.698999 0.164724 -0.063378
v -0.703074 0.158564 -0.062973
v -0.704504 0.151299 -0.062495
v -0.703074 0.166654 0.060053
v -0.704504 0.159388 0.060531
v -0.703074 0.152123 0.061007
v -0.698999 0.172813 0.059648
v -0.692901 0.176929 0.059377
v -0.692901 0.168839 -0.063648
v -0.685709 0.170284 -0.063743
v -0.685709 0.183061 -0.083660
v -0.672924 0.180548 -0.083494
v -0.678516 0.168839 -0.063648
v -0.672418 0.164724 -0.063378
v -0.678516 0.176929 0.059377
v -0.672418 0.172813 0.059648
v -0.668344 0.166654 0.060053
v -0.685709 0.178374 0.059282
v -0.737858 0.370047 0.046679
v -0.592571 0.370047 0.046679
v -0.640995 0.297620 0.051441
v -0.617683 0.294739 0.007639
v -0.592571 0.297620 0.051441
v -0.572885 0.296322 0.031704
v -0.581741 0.292360 -0.028542
v -0.572885 0.368747 0.026915
v -0.546180 0.291099 -0.047729
v -0.581959 0.244970 -0.025318
v -0.618098 0.247362 0.010990
v -0.618119 -0.216974 0.041821
v -0.401619 -0.216974 0.041821
v -0.581905 -0.219388 0.005179
v -0.510395 -0.202834 -0.032460
v -0.437833 -0.219389 0.005179
v -0.546299 0.243688 -0.044830
v -0.510393 0.242575 -0.061748
v -0.510393 0.289972 -0.064864
v -0.508460 0.292971 -0.019262
v -0.478157 0.290957 -0.049885
v -0.478157 0.243582 -0.046770
v -0.437915 0.244962 -0.025449
v -0.438266 0.292343 -0.028804
v -0.401632 0.247377 0.011231
v -0.442490 0.296322 0.031704
v -0.698493 0.119552 -0.079484
v -0.685709 0.132313 -0.061247
v -0.672925 0.119552 -0.079484
v -0.190042 0.257492 -0.088552
v -0.214428 0.158330 -0.082032
v -0.238174 0.113999 -0.079118
v -0.238175 0.123338 0.062901
v -0.252797 0.065898 -0.075954
v -0.214428 0.167668 0.059986
v -0.182471 0.206524 0.057431
v -0.287545 0.405239 0.044365
v -0.182471 0.197186 -0.084587
v -0.143531 0.229074 -0.086684
v -0.143531 0.238412 0.055334
v -0.099105 0.252768 -0.088242
v -0.246602 0.590834 -0.110472
v -0.163515 0.481835 -0.103304
v -0.176175 0.484373 -0.103472
v -0.186907 0.491599 -0.103947
v -0.194079 0.502414 -0.104657
v -0.190042 0.350192 -0.094648
v -0.287546 0.395900 -0.097653
v -0.246712 0.443043 -0.100754
v -0.246710 0.452382 0.041265
v -0.246600 0.600172 0.031547
v -0.099105 0.262107 0.053777
v -0.050900 0.276698 0.052817
v -0.181093 0.517331 0.036995
v -0.156234 0.507181 0.037662
v -0.163515 0.505753 0.037756
v -0.170796 0.507181 0.037662
v -0.176969 0.511247 0.037395
v -0.050900 0.267360 -0.089202
v -0.100697 0.590834 -0.110471
v 0.000147 0.272286 -0.089526
v 0.000147 0.281625 0.052493
v -0.000383 0.376196 -0.096359
v 0.050900 0.267366 -0.089203
v 0.069734 0.358842 -0.095218
v 0.000151 0.376203 -0.096361
v 0.038773 0.376196 -0.096359
v 0.050900 0.276705 0.052815
v 0.099105 0.262114 0.053776
v 0.150061 0.511253 0.037393
v 0.156234 0.507188 0.037661
v 0.145937 0.517338 0.036993
v 0.069734 0.368179 0.046803
v 0.069734 0.472233 0.039960
v 0.038773 0.385534 0.045661
v 0.038773 0.455158 0.041082
v -0.000383 0.385535 0.045661
v 0.000151 0.385541 0.045659
v -0.100695 0.600172 0.031548
v -0.000383 0.455158 0.041082
v -0.000383 0.445820 -0.100938
v 0.038773 0.445820 -0.100938
v -0.000118 0.600172 0.031548
v -0.000118 0.590834 -0.110472
v 0.069734 0.462897 -0.102060
v 0.000151 0.445827 -0.100939
v 0.000151 0.455165 0.041081
v 0.000151 0.600179 0.031546
v 0.000151 0.590840 -0.110475
v 0.100697 0.590840 -0.110473
v 0.100695 0.600179 0.031546
v 0.246600 0.600179 0.031546
v 0.156234 0.541843 0.035381
v 0.150061 0.537777 0.035649
v 0.145937 0.531693 0.036049
v 0.144488 0.524515 0.036521
v 0.163515 0.543271 0.035287
v 0.163515 0.535181 -0.087737
v 0.170796 0.541843 0.035381
v 0.170796 0.533753 -0.087643
v 0.176969 0.537777 0.035649
v 0.176969 0.529688 -0.087375
v 0.181093 0.531693 0.036049
v 0.181093 0.523603 -0.086975
v 0.182542 0.524515 0.036521
v 0.182541 0.516426 -0.086503
v 0.181093 0.517338 0.036993
v 0.181093 0.509248 -0.086031
v 0.176969 0.511253 0.037393
v 0.176969 0.503164 -0.085631
v 0.170796 0.507188 0.037661
v 0.170796 0.499098 -0.085363
v 0.163515 0.505760 0.037754
v 0.163515 0.497670 -0.085270
v 0.156234 0.499098 -0.085363
v 0.150855 0.484379 -0.103473
v 0.150061 0.503164 -0.085631
v 0.140122 0.491605 -0.103948
v 0.099105 0.252775 -0.088243
v 0.132951 0.502420 -0.104659
v 0.130433 0.515177 -0.105498
v 0.145937 0.509248 -0.086031
v 0.144488 0.516426 -0.086503
v 0.145937 0.523603 -0.086975
v 0.132951 0.527933 -0.106337
v 0.140122 0.538748 -0.107048
v 0.150855 0.545974 -0.107523
v 0.150061 0.529688 -0.087375
v 0.156234 0.533753 -0.087643
v 0.163515 0.548512 -0.107690
v 0.246602 0.590840 -0.110473
v 0.176175 0.545974 -0.107523
v 0.186907 0.538748 -0.107048
v 0.194079 0.527934 -0.106337
v 0.196597 0.515177 -0.105498
v 0.194079 0.502420 -0.104659
v 0.143531 0.229080 -0.086685
v 0.186907 0.491605 -0.103948
v 0.176175 0.484379 -0.103473
v 0.163515 0.481842 -0.103306
v 0.143531 0.238419 0.055334
v 0.182471 0.197192 -0.084589
v 0.190042 0.350198 -0.094650
v 0.182471 0.206530 0.057430
v 0.190042 0.257498 -0.088554
v 0.349045 0.257498 -0.088554
v 0.349045 0.350198 -0.094650
v 0.214428 0.158336 -0.082034
v 0.214428 0.167675 0.059985
v 0.238174 0.114006 -0.079119
v 0.238175 0.123344 0.062900
v 0.252798 0.075243 0.066063
v 0.373377 0.370054 0.046678
v 0.252797 0.072002 0.016765
v 0.252797 0.065905 -0.075955
v 0.257865 0.021978 0.020055
v 0.334497 0.072002 0.016765
v 0.334497 0.065905 -0.075956
v 0.257735 0.025220 0.069352
v 0.252798 -0.024804 0.072642
v 0.404276 -0.308308 0.091284
v 0.374702 -0.214116 0.085090
v 0.374701 0.250237 0.054556
v 0.375575 0.297626 0.051440
v 0.402043 0.294778 0.008121
v 0.419058 0.297626 0.051440
v 0.419058 0.370054 0.046678
v 0.442491 0.368754 0.026914
v 0.402494 0.360715 -0.095342
v 0.737858 0.360715 -0.095342
v 0.508460 0.365403 -0.024054
v 0.373163 0.360715 -0.095342
v 0.662086 0.173398 -0.083025
v 0.654845 0.162689 -0.082320
v 0.652301 0.150056 -0.081490
v 0.668343 0.158571 -0.062973
v 0.666913 0.151305 -0.062495
v 0.668343 0.144040 -0.062017
v 0.666913 0.159395 0.060529
v 0.668344 0.152129 0.061007
v 0.672418 0.145970 0.061411
v 0.668344 -0.084032 0.076535
v 0.672418 -0.077873 0.076131
v 0.678516 -0.073757 0.075860
v 0.672418 -0.085962 -0.046893
v 0.678516 -0.081847 -0.047164
v 0.685709 -0.080401 -0.047259
v 0.672924 -0.070138 -0.067011
v 0.685709 -0.067625 -0.067176
v 0.685709 0.117046 -0.079320
v 0.698493 -0.070138 -0.067011
v 0.692901 -0.081847 -0.047164
v 0.698999 -0.085962 -0.046893
v 0.692902 -0.073757 0.075860
v 0.698999 -0.077873 0.076131
v 0.703074 -0.084032 0.076535
v 0.729548 -0.074492 0.075909
v 0.679544 -0.308565 0.091300
v 0.739390 0.051736 0.067608
v 0.729548 -0.083831 -0.066111
v 0.704504 -0.091297 0.077013
v 0.739390 0.042397 -0.074410
v 0.703074 -0.098563 0.077491
v 0.698999 -0.104722 0.077896
v 0.703074 -0.106652 -0.045533
v 0.704504 -0.099387 -0.046011
v 0.703074 -0.092121 -0.046489
v 0.719116 -0.100636 -0.065006
v 0.716573 -0.088003 -0.065836
v 0.709331 -0.077294 -0.066541
v 0.716573 -0.113269 -0.064176
v 0.709331 -0.123978 -0.063471
v 0.679543 -0.317904 -0.050718
v 0.698999 -0.112812 -0.045128
v 0.692901 -0.116927 -0.044857
v 0.692902 -0.108838 0.078167
v 0.685709 -0.110283 0.078261
v 0.641429 -0.214115 0.085090
v 0.636871 -0.214731 0.075756
v 0.598739 -0.308479 0.091294
v 0.641454 0.250237 0.054555
v 0.668344 -0.098563 0.077491
v 0.672418 -0.104722 0.077896
v 0.678516 -0.108838 0.078167
v 0.666913 -0.091297 0.077014
v 0.379958 -0.214731 0.075756
v 0.537223 -0.308394 0.091289
v 0.537223 -0.317732 -0.050730
v 0.404276 -0.317647 -0.050735
v 0.349047 -0.318269 -0.050694
v 0.349046 -0.224316 -0.056872
v 0.334497 -0.034142 -0.069378
v 0.654844 -0.113269 -0.064175
v 0.652301 -0.100636 -0.065005
v 0.654845 -0.088004 -0.065836
v 0.668343 -0.092122 -0.046489
v 0.662086 -0.077294 -0.066541
v 0.654844 0.137424 -0.080659
v 0.666913 -0.099387 -0.046010
v 0.668343 -0.106652 -0.045533
v 0.672418 -0.112812 -0.045128
v 0.678516 -0.116927 -0.044857
v 0.662086 -0.123978 -0.063471
v 0.672925 -0.131134 -0.063000
v 0.598739 -0.317818 -0.050724
v 0.685709 -0.133647 -0.062835
v 0.685709 -0.118372 -0.044763
v 0.698493 -0.131134 -0.063000
v 0.662086 0.126714 -0.079955
v 0.672418 0.137880 -0.061613
v 0.678516 0.133765 -0.061341
v 0.678516 0.141855 0.061683
v 0.685709 0.140409 0.061777
v 0.685709 -0.072312 0.075765
v 0.692902 0.141855 0.061683
v 0.698999 0.145970 0.061411
v 0.692901 0.133765 -0.061341
v 0.698999 0.137881 -0.061613
v 0.703074 0.144040 -0.062017
v 0.709331 0.126714 -0.079955
v 0.716573 0.137424 -0.080659
v 0.719116 0.150056 -0.081490
v 0.738568 0.172737 -0.082982
v 0.738568 0.182077 0.059037
v 0.716573 0.162689 -0.082320
v 0.698493 0.180554 -0.083495
v 0.709331 0.173398 -0.083025
v 0.698999 0.164730 -0.063378
v 0.703074 0.158571 -0.062973
v 0.704504 0.151305 -0.062495
v 0.703074 0.166660 0.060051
v 0.704504 0.159395 0.060529
v 0.703074 0.152129 0.061007
v 0.698999 0.172820 0.059646
v 0.692902 0.176935 0.059376
v 0.692901 0.168846 -0.063648
v 0.685709 0.170291 -0.063744
v 0.685709 0.183067 -0.083660
v 0.672924 0.180554 -0.083495
v 0.678516 0.168846 -0.063648
v 0.672418 0.164730 -0.063378
v 0.678516 0.176935 0.059376
v 0.672418 0.172820 0.059646
v 0.668344 0.166660 0.060051
v 0.685709 0.178380 0.059280
v 0.737858 0.370054 0.046677
v 0.592571 0.370054 0.046677
v 0.640995 0.297626 0.051439
v 0.617683 0.294746 0.007638
v 0.592571 0.297626 0.051439
v 0.572885 0.296328 0.031702
v 0.581741 0.292367 -0.028543
v 0.572885 0.368754 0.026914
v 0.546180 0.291105 -0.047729
v 0.581959 0.244977 -0.025319
v 0.618098 0.247368 0.010989
v 0.618120 -0.216967 0.041822
v 0.401619 -0.216967 0.041822
v 0.581905 -0.219382 0.005179
v 0.437833 -0.219382 0.005179
v 0.510395 -0.202828 -0.032459
v 0.437915 0.244968 -0.025449
v 0.478157 0.243589 -0.046771
v 0.510393 0.242582 -0.061748
v 0.478157 0.290964 -0.049886
v 0.510393 0.289979 -0.064864
v 0.508460 0.292977 -0.019265
v 0.546299 0.243694 -0.044830
v 0.442490 0.296328 0.031702
v 0.438266 0.292350 -0.028804
v 0.401632 0.247383 0.011230
v 0.698493 0.119558 -0.079485
v 0.685709 0.132320 -0.061247
v 0.672925 0.119558 -0.079485
v 0.334497 -0.028045 0.023343
v 0.252798 -0.034142 -0.069377
v 0.334497 0.021978 0.020054
v 0.252798 -0.028046 0.023342
v 0.238175 -0.082244 -0.066215
v 0.238175 -0.072905 0.075805
v 0.214429 -0.117235 0.078720
v 0.214429 -0.126574 -0.063299
v 0.182472 -0.165430 -0.060744
v 0.190043 -0.224317 -0.056872
v 0.287546 0.395906 -0.097655
v 0.287545 0.405246 0.044363
v 0.246712 0.443049 -0.100756
v 0.246710 0.452388 0.041264
v -0.156234 0.541836 0.035383
v -0.150061 0.537771 0.035650
v -0.145937 0.531686 0.036051
v -0.144488 0.524509 0.036522
v -0.145937 0.517331 0.036995
v -0.163515 0.543264 0.035290
v -0.163515 0.535175 -0.087736
v -0.170796 0.541836 0.035383
v -0.170796 0.533747 -0.087643
v -0.176969 0.537771 0.035650
v -0.176969 0.529681 -0.087375
v -0.181093 0.531686 0.036051
v -0.181093 0.523597 -0.086975
v -0.182542 0.524509 0.036522
v -0.182542 0.516419 -0.086503
v -0.181093 0.509242 -0.086031
v -0.196597 0.515171 -0.105496
v -0.194079 0.527927 -0.106335
v -0.186907 0.538742 -0.107046
v -0.176175 0.545968 -0.107521
v -0.163515 0.548506 -0.107688
v -0.150855 0.545968 -0.107521
v -0.156234 0.533747 -0.087642
v -0.150061 0.529681 -0.087375
v -0.140122 0.538742 -0.107046
v -0.145937 0.523597 -0.086975
v -0.132951 0.527927 -0.106335
v -0.144488 0.516419 -0.086503
v -0.130433 0.515170 -0.105496
v -0.145937 0.509242 -0.086031
v -0.132951 0.502413 -0.104657
v -0.150061 0.503157 -0.085630
v -0.150061 0.511246 0.037395
v -0.140122 0.491599 -0.103947
v -0.156234 0.499092 -0.085363
v -0.150855 0.484373 -0.103472
v -0.163515 0.497664 -0.085270
v -0.170796 0.499092 -0.085363
v -0.176969 0.503157 -0.085630
v -0.142969 -0.582545 0.050538
v -0.145726 -0.485759 0.044446
v -0.142969 -0.485777 0.044175
v -0.140212 -0.485759 0.044446
v -0.142969 -0.484849 0.058275
v -0.156828 -0.484669 0.061026
v -0.156024 -0.485204 0.052879
v -0.156828 -0.485031 0.055525
v -0.150820 -0.485620 0.046552
v -0.152961 -0.485505 0.048305
v -0.135119 -0.485620 0.046552
v -0.137562 -0.485706 0.045249
v -0.129914 -0.485204 0.052879
v -0.131220 -0.485365 0.050442
v -0.129110 -0.484669 0.061026
v -0.128839 -0.484850 0.058275
v -0.132977 -0.484194 0.068245
v -0.131220 -0.484335 0.066110
v -0.140213 -0.483940 0.072104
v -0.137562 -0.483993 0.071302
v -0.148377 -0.483993 0.071302
v -0.145726 -0.483940 0.072104
v -0.154718 -0.484335 0.066110
v -0.152961 -0.484194 0.068245
v -0.157100 -0.484850 0.058275
v -0.154718 -0.485365 0.050442
v -0.148377 -0.485706 0.045249
v -0.132977 -0.485505 0.048305
v -0.129110 -0.485031 0.055525
v -0.129914 -0.484495 0.063671
v -0.135119 -0.484079 0.070000
v -0.142969 -0.483923 0.072375
v -0.150820 -0.484079 0.070000
v -0.156024 -0.484495 0.063671
v -0.156024 -0.585711 0.070326
v -0.156828 -0.584877 0.067616
v -0.157100 -0.584111 0.064802
v -0.154718 -0.586411 0.072821
v -0.152961 -0.587300 0.075025
v -0.150820 -0.588066 0.076838
v -0.148377 -0.588677 0.078186
v -0.145726 -0.589047 0.079015
v -0.142969 -0.589422 0.079312
v -0.140213 -0.589540 0.079048
v -0.137562 -0.589669 0.078251
v -0.135119 -0.589618 0.076939
v -0.132977 -0.589337 0.075159
v -0.131220 -0.588868 0.072983
v -0.129914 -0.588435 0.070505
v -0.129110 -0.587833 0.067810
v -0.128839 -0.587091 0.064999
v -0.129110 -0.586418 0.062191
v -0.129914 -0.585736 0.059490
v -0.131220 -0.585011 0.056993
v -0.132977 -0.584175 0.054793
v -0.135119 -0.583656 0.052998
v -0.137562 -0.583212 0.051661
v -0.140212 -0.582802 0.050828
v -0.107048 -0.469673 -0.040739
v -0.107842 -0.485960 -0.020593
v -0.111967 -0.492045 -0.020192
v -0.111967 -0.483955 0.102833
v -0.113415 -0.499222 -0.019720
v -0.113415 -0.491133 0.103305
v -0.111967 -0.498310 0.103777
v -0.111967 -0.506399 -0.019249
v -0.107842 -0.504395 0.104177
v -0.107842 -0.512484 -0.018848
v -0.101670 -0.508460 0.104445
v -0.101670 -0.516550 -0.018581
v -0.094389 -0.509888 0.104538
v -0.094389 -0.517978 -0.018488
v -0.087107 -0.508460 0.104445
v -0.087107 -0.516550 -0.018581
v -0.080935 -0.512484 -0.018848
v -0.080935 -0.504395 0.104177
v -0.076810 -0.506400 -0.019249
v -0.076810 -0.498310 0.103777
v -0.075362 -0.499222 -0.019720
v -0.075362 -0.491133 0.103305
v -0.076810 -0.492045 -0.020192
v -0.063825 -0.487715 -0.039553
v -0.070996 -0.476900 -0.040264
v -0.081728 -0.469673 -0.040739
v -0.080935 -0.485960 -0.020593
v -0.080935 -0.477871 0.102433
v -0.087107 -0.481894 -0.020860
v -0.076810 -0.483956 0.102833
v -0.087107 -0.473805 0.102165
v -0.094388 -0.480467 -0.020954
v -0.094388 -0.467136 -0.040906
v -0.101670 -0.481894 -0.020860
v -0.101670 -0.473805 0.102165
v -0.107842 -0.477871 0.102433
v -0.094389 -0.472378 0.102072
v -0.094389 -0.533806 -0.036522
v -0.107049 -0.531269 -0.036689
v 0.000151 -0.359900 -0.047957
v 0.142969 -0.582538 0.050540
v 0.140212 -0.582796 0.050829
v 0.137562 -0.583206 0.051661
v 0.135119 -0.583650 0.052999
v 0.132977 -0.584168 0.054794
v 0.131220 -0.585005 0.056994
v 0.129914 -0.585729 0.059491
v 0.154718 -0.586405 0.072822
v 0.152961 -0.587294 0.075027
v 0.150820 -0.588059 0.076838
v 0.148377 -0.588670 0.078186
v 0.145726 -0.589041 0.079017
vn -0.0001 -0.0658 -0.9978
vn -0.4897 -0.8700 0.0572
vn -0.0000 -0.0656 -0.9978
vn -0.4898 -0.8700 0.0572
vn -0.0000 -0.9978 0.0656
vn 0.0002 0.9978 -0.0656
vn -0.0000 -0.0657 -0.9978
vn -1.0000 -0.0000 -0.0000
vn -0.0000 0.0657 0.9978
vn -0.0000 0.0655 0.9979
vn 0.0001 0.0657 0.9978
vn -0.0000 0.0656 0.9978
vn -0.0265 -0.9762 -0.2151
vn 1.0000 0.0030 0.0006
vn 0.0043 -0.9809 -0.1945
vn -0.0042 -0.9809 -0.1945
vn 1.0000 0.0037 -0.0002
vn 0.0266 -0.9762 -0.2151
vn 0.0001 -0.0657 -0.9978
vn -0.0000 -0.0655 -0.9979
vn 0.0801 -0.9707 -0.2264
vn 0.1059 -0.9711 -0.2139
vn 0.0001 0.0656 0.9978
vn -0.0001 0.0656 0.9978
vn 0.1066 -0.9748 -0.1959
vn 0.0649 -0.9671 -0.2459
vn 0.0929 -0.9730 -0.2111
vn 0.0684 -0.9696 -0.2351
vn 0.0514 -0.9669 -0.2498
vn 0.0916 -0.9715 -0.2185
vn 0.0666 -0.9694 -0.2362
vn 0.0324 -0.9656 -0.2579
vn 0.9952 0.0064 0.0978
vn 0.1280 -0.9672 -0.2194
vn 0.9952 -0.0064 -0.0978
vn 0.9570 -0.0190 -0.2896
vn -0.0000 -0.9978 0.0657
vn -0.8818 -0.0309 -0.4705
vn -0.9569 -0.0190 -0.2897
vn -0.9570 -0.0190 -0.2896
vn 0.1054 -0.9588 -0.2638
vn 0.0934 -0.9629 -0.2531
vn -0.9952 -0.0064 -0.0978
vn -0.0082 -0.9858 -0.1679
vn -0.9952 0.0064 0.0978
vn 0.1011 -0.9697 -0.2225
vn -0.9569 0.0190 0.2897
vn 0.0741 -0.9695 -0.2336
vn 0.1102 -0.9697 -0.2179
vn 0.8588 -0.5112 0.0336
vn 0.9011 -0.4215 -0.1015
vn -0.0001 -0.0657 -0.9978
vn 0.0854 -0.9696 -0.2292
vn 0.1225 -0.9695 -0.2122
vn 0.1314 -0.9693 -0.2078
vn 0.0798 -0.9688 -0.2346
vn 0.1091 -0.9697 -0.2185
vn 0.6344 -0.7713 0.0507
vn -0.4714 0.8800 -0.0579
vn -0.2903 0.9549 -0.0628
vn -0.0970 0.9931 -0.0653
vn 1.0000 -0.0000 -0.0000
vn -0.4837 0.8733 -0.0574
vn 0.0002 0.0657 0.9978
vn -0.9803 -0.1970 0.0130
vn -0.8283 -0.5591 0.0368
vn -0.5509 -0.8328 0.0548
vn -0.4492 -0.7034 -0.5509
vn -0.6670 -0.4890 -0.5622
vn -0.4412 -0.7063 -0.5536
vn -0.1575 -0.8217 -0.5477
vn 0.0001 -0.0656 -0.9978
vn -0.0000 -0.0658 -0.9978
vn 0.1574 -0.8217 -0.5477
vn 0.1540 -0.8216 -0.5489
vn -0.1540 -0.8216 -0.5489
vn 0.1928 -0.9791 0.0644
vn 0.5509 -0.8328 0.0548
vn 0.4412 -0.7063 -0.5536
vn 0.8283 -0.5590 0.0368
vn 0.6670 -0.4890 -0.5622
vn 0.4492 -0.7034 -0.5509
vn 0.9803 -0.1970 0.0130
vn 0.7930 -0.1979 -0.5761
vn 0.6733 -0.4832 -0.5596
vn 0.9803 0.1970 -0.0130
vn 0.7941 0.1211 -0.5956
vn 0.7945 -0.1947 -0.5751
vn 0.8283 0.5590 -0.0368
vn 0.5509 0.8328 -0.0548
vn 0.4427 0.6302 -0.6379
vn 0.6720 0.4048 -0.6201
vn 0.6692 0.4129 -0.6178
vn 0.1928 0.9791 -0.0644
vn 0.1542 0.7438 -0.6504
vn 0.4483 0.6238 -0.6402
vn -0.1928 0.9791 -0.0644
vn -0.1574 0.7422 -0.6514
vn 0.1574 0.7422 -0.6514
vn -0.1542 0.7438 -0.6504
vn -0.0001 -0.0656 -0.9978
vn -0.4483 0.6238 -0.6402
vn -0.5509 0.8328 -0.0548
vn -0.4427 0.6302 -0.6379
vn -0.8283 0.5590 -0.0368
vn -0.6720 0.4048 -0.6201
vn -0.6692 0.4129 -0.6178
vn -0.9803 0.1970 -0.0130
vn -0.7939 0.1175 -0.5965
vn -0.7941 0.1211 -0.5956
vn -0.7945 -0.1947 -0.5751
vn -0.7930 -0.1979 -0.5761
vn 0.7939 0.1175 -0.5965
vn 0.0001 -0.0655 -0.9978
vn -0.1928 -0.9791 0.0644
vn -0.0002 0.0654 0.9979
vn -0.6733 -0.4833 -0.5596
vn 0.0963 0.9932 -0.0653
vn 1.0000 -0.0044 0.0003
vn 0.2903 0.9549 -0.0628
vn -0.1102 -0.9697 -0.2179
vn -0.8588 -0.5112 0.0336
vn -0.0741 -0.9695 -0.2336
vn -0.9011 -0.4215 -0.1015
vn -0.1012 -0.9697 -0.2224
vn -0.0855 -0.9696 -0.2292
vn -0.1226 -0.9695 -0.2122
vn -0.1313 -0.9693 -0.2079
vn -0.0799 -0.9688 -0.2346
vn -0.1092 -0.9697 -0.2185
vn -0.6344 -0.7713 0.0507
vn 0.4714 0.8800 -0.0579
vn 0.7730 0.6330 -0.0416
vn 0.6344 0.7713 -0.0507
vn 0.8819 0.4704 -0.0309
vn -0.0000 0.9978 -0.0656
vn 0.9949 0.1003 -0.0066
vn 0.9569 0.2897 -0.0190
vn 0.9949 -0.1005 0.0040
vn 0.9952 0.0976 -0.0090
vn 0.9952 -0.0978 0.0064
vn -0.8537 0.0185 0.5204
vn -0.6456 0.0501 0.7621
vn -0.6645 -0.4866 -0.5672
vn -0.7834 -0.1965 -0.5897
vn -0.7849 -0.1933 -0.5888
vn -0.7838 0.1142 -0.6105
vn -0.9812 -0.1924 0.0126
vn -0.9812 0.1924 -0.0127
vn -0.0007 0.0656 0.9978
vn -0.8346 0.5497 -0.0361
vn 0.0003 0.0656 0.9978
vn -0.5603 -0.8265 0.0543
vn -0.8346 -0.5497 0.0361
vn -0.1974 -0.9782 0.0643
vn -0.1599 -0.8309 -0.5330
vn -0.4525 -0.7064 -0.5443
vn -0.1564 -0.8308 -0.5342
vn 0.1600 -0.8309 -0.5330
vn 0.1564 -0.8308 -0.5342
vn 0.5602 -0.8265 0.0543
vn 0.4526 -0.7064 -0.5443
vn 0.1974 -0.9782 0.0643
vn 0.8346 -0.5497 0.0361
vn -0.0000 0.0658 0.9978
vn -0.9780 -0.2080 0.0137
vn -0.9970 -0.0774 0.0051
vn -0.0001 0.0655 0.9979
vn 0.0001 0.0658 0.9978
vn 0.8346 0.5497 -0.0361
vn 0.0002 0.0656 0.9978
vn 0.9812 0.1924 -0.0126
vn 0.7838 0.1142 -0.6104
vn 0.9812 -0.1924 0.0127
vn 0.7849 -0.1933 -0.5888
vn 0.7834 -0.1965 -0.5897
vn 0.6645 -0.4866 -0.5672
vn 0.4446 -0.7094 -0.5468
vn 0.6707 -0.4808 -0.5648
vn 0.7840 0.1177 -0.6095
vn 0.6685 0.4010 -0.6264
vn 0.6657 0.4092 -0.6240
vn 0.5603 0.8265 -0.0543
vn 0.4511 0.6266 -0.6355
vn 0.1974 0.9782 -0.0643
vn 0.8989 0.0288 0.4371
vn -0.0000 0.9978 -0.0658
vn -0.0000 0.9978 -0.0657
vn 0.0003 0.0657 0.9978
vn 0.0006 -0.9978 0.0656
vn 0.0014 -0.9978 0.0656
vn -0.6657 0.4091 -0.6240
vn -0.4510 0.6266 -0.6355
vn -0.4454 0.6331 -0.6331
vn -0.5602 0.8265 -0.0543
vn -0.1974 0.9782 -0.0643
vn -0.1597 0.7527 -0.6387
vn 0.1597 0.7527 -0.6387
vn -0.1565 0.7543 -0.6376
vn 0.1565 0.7543 -0.6376
vn 0.4455 0.6331 -0.6331
vn -0.6685 0.4010 -0.6264
vn -0.5603 0.8265 -0.0543
vn -0.7838 0.1142 -0.6104
vn -0.7840 0.1177 -0.6095
vn -0.6657 0.4091 -0.6241
vn -0.4511 0.6266 -0.6355
vn 0.5602 0.8265 -0.0543
vn 0.6657 0.4091 -0.6241
vn -1.0000 0.0063 -0.0004
vn -1.0000 0.0038 -0.0002
vn 0.4446 -0.7094 -0.5469
vn 0.6706 -0.4808 -0.5649
vn 0.7848 -0.1933 -0.5888
vn -0.0002 0.0657 0.9978
vn 0.4526 -0.7063 -0.5442
vn -0.1600 -0.8309 -0.5330
vn -0.4526 -0.7063 -0.5443
vn -0.0001 0.0657 0.9978
vn -0.4446 -0.7094 -0.5469
vn -0.6706 -0.4808 -0.5649
vn 0.7838 0.1142 -0.6105
vn 0.8832 0.0223 0.4686
vn 0.7088 0.0465 0.7039
vn 0.7093 0.0463 0.7034
vn 0.6213 0.0517 0.7819
vn 0.7102 0.0435 0.7027
vn 0.4756 0.0575 0.8778
vn 0.7095 0.0446 0.7033
vn 0.8818 0.0256 0.4710
vn 0.7095 0.0467 0.7031
vn 0.8818 0.0302 0.4707
vn 0.8757 0.0319 0.4818
vn 0.7120 0.0461 0.7007
vn 0.4538 0.0611 0.8890
vn -0.0000 0.9154 0.4026
vn 0.4808 0.0575 0.8749
vn 0.4270 0.0593 0.9023
vn 0.4808 0.0523 0.8753
vn 0.4326 0.0539 0.9000
vn -0.4222 0.0595 0.9046
vn -0.4221 0.0595 0.9046
vn -0.4689 0.0579 0.8813
vn -0.4689 0.0580 0.8813
vn -0.4486 0.0610 0.8916
vn -0.7117 0.0444 0.7011
vn -0.4680 0.0590 0.8817
vn -0.7117 0.0462 0.7010
vn -0.7120 0.0461 0.7007
vn -0.8498 0.0272 0.5264
vn -0.7146 0.0396 0.6984
vn -0.8498 0.0336 0.5260
vn -0.8434 0.0353 0.5361
vn -0.6122 0.0522 0.7890
vn -0.6450 0.0504 0.7625
vn 0.6212 0.0517 0.7819
vn 0.4455 0.6331 -0.6330
vn 0.1596 0.7528 -0.6387
vn -0.1596 0.7528 -0.6386
vn -0.4455 0.6331 -0.6330
vn -0.4447 -0.7094 -0.5468
vn -0.6707 -0.4808 -0.5648
vn 0.0011 -0.9978 0.0656
vn -0.8718 0.0321 0.4888
vn 0.0006 0.0656 0.9978
vn 0.9569 -0.2897 0.0190
vn 0.8819 -0.4704 0.0309
vn 0.7730 -0.6330 0.0416
vn 0.4714 -0.8800 0.0579
vn -0.7566 0.6525 -0.0429
vn -1.0000 0.0007 -0.0000
vn 0.2903 -0.9549 0.0628
vn 0.0963 -0.9932 0.0653
vn 1.0000 0.0051 -0.0003
vn -0.0967 -0.9932 0.0653
vn -0.2903 -0.9549 0.0628
vn 1.0000 -0.0018 0.0001
vn -0.4838 0.8733 -0.0574
vn -0.0002 -0.9978 0.0656
vn 0.4427 0.6301 -0.6379
vn -0.0002 -0.0657 -0.9978
vn 0.7940 0.1175 -0.5965
vn 0.6691 0.4130 -0.6178
vn 0.8283 0.5591 -0.0368
vn 0.7946 -0.1946 -0.5751
vn 0.8283 -0.5591 0.0368
vn 0.1575 -0.8217 -0.5477
vn -0.7946 -0.1946 -0.5751
vn -0.7940 0.1175 -0.5965
vn -0.6691 0.4130 -0.6178
vn -0.4427 0.6301 -0.6379
vn -0.4714 -0.8800 0.0579
vn -0.7730 -0.6330 0.0416
vn -0.8819 -0.4704 0.0309
vn -0.9569 -0.2897 0.0190
vn -0.9952 -0.0978 0.0064
vn -0.9949 -0.1005 0.0040
vn -0.9952 0.0976 -0.0090
vn 0.8537 0.0185 0.5204
vn 0.6456 0.0501 0.7621
vn 0.9812 -0.1924 0.0126
vn 0.9812 0.1924 -0.0127
vn -0.0002 0.0656 0.9978
vn 0.5603 -0.8265 0.0543
vn 0.1599 -0.8309 -0.5330
vn 0.4526 -0.7064 -0.5442
vn -0.5603 -0.8265 0.0544
vn -0.4526 -0.7064 -0.5442
vn -0.5602 -0.8265 0.0544
vn 0.9780 -0.2080 0.0137
vn 0.9970 -0.0774 0.0051
vn -0.9812 -0.1924 0.0127
vn -0.7834 -0.1964 -0.5897
vn -0.0000 -0.0655 -0.9978
vn 0.0001 -0.0655 -0.9979
vn -0.8989 0.0288 0.4371
vn 0.0003 0.0655 0.9978
vn -0.0006 -0.9978 0.0656
vn -0.0014 -0.9978 0.0656
vn 0.5602 -0.8266 0.0544
vn 0.7838 0.1143 -0.6104
vn 0.5603 0.8265 -0.0544
vn -0.0011 -0.9978 0.0656
vn 0.1596 0.7528 -0.6386
vn 0.6684 0.4011 -0.6264
vn 0.6657 0.4092 -0.6241
vn 0.4512 0.6265 -0.6355
vn -0.6684 0.4010 -0.6264
vn -0.4512 0.6265 -0.6355
vn 1.0000 0.0063 -0.0004
vn 1.0000 0.0038 -0.0002
vn -0.9812 0.1924 -0.0126
vn 0.4447 -0.7094 -0.5468
vn -0.8831 0.0222 0.4686
vn -0.7088 0.0465 0.7039
vn -0.7093 0.0463 0.7034
vn -0.6213 0.0517 0.7819
vn -0.7102 0.0435 0.7027
vn -0.4756 0.0575 0.8778
vn -0.7095 0.0446 0.7033
vn -0.8817 0.0256 0.4710
vn -0.7095 0.0467 0.7031
vn -0.8818 0.0302 0.4707
vn -0.8757 0.0320 0.4818
vn -0.7120 0.0461 0.7006
vn 0.7120 0.0461 0.7006
vn 0.4486 0.0610 0.8916
vn 0.4690 0.0580 0.8813
vn 0.4690 0.0579 0.8813
vn 0.4221 0.0595 0.9046
vn -0.4326 0.0539 0.9000
vn -0.4270 0.0593 0.9023
vn -0.4808 0.0575 0.8749
vn -0.4538 0.0611 0.8890
vn -0.4808 0.0523 0.8753
vn 0.6122 0.0522 0.7890
vn 0.6451 0.0504 0.7625
vn 0.7146 0.0396 0.6984
vn 0.4680 0.0590 0.8817
vn 0.7117 0.0444 0.7011
vn 0.8498 0.0272 0.5264
vn 0.7117 0.0462 0.7010
vn 0.8498 0.0336 0.5260
vn 0.8434 0.0353 0.5361
vn -0.1565 0.7544 -0.6375
vn 0.1565 0.7544 -0.6375
vn -0.9949 0.1003 -0.0066
vn -0.9569 0.2897 -0.0190
vn -0.8819 0.4704 -0.0309
vn -0.7730 0.6330 -0.0416
vn -0.6344 0.7713 -0.0507
vn 0.8718 0.0321 0.4888
vn 0.0007 0.0656 0.9978
vn 0.3809 0.9226 -0.0612
vn 0.3801 0.9230 -0.0607
vn 0.7566 0.6525 -0.0429
vn 1.0000 0.0007 -0.0000
vn 0.0001 0.0655 0.9979
vn -0.0004 0.0658 0.9978
vn 0.0002 0.0658 0.9978
vn 0.7930 -0.1979 -0.5762
vn 0.7945 -0.1946 -0.5752
vn 0.6732 -0.4833 -0.5597
vn 0.6669 -0.4890 -0.5622
vn 0.1575 -0.8217 -0.5478
vn -0.1575 -0.8217 -0.5478
vn -0.4413 -0.7063 -0.5536
vn -0.6669 -0.4890 -0.5622
vn -0.6732 -0.4832 -0.5597
vn -0.7930 -0.1979 -0.5762
vn -0.7945 -0.1946 -0.5752
vn -0.8283 0.5591 -0.0368
vn -0.7939 0.1175 -0.5966
vn -0.6691 0.4129 -0.6179
vn -0.6720 0.4049 -0.6201
vn 0.6691 0.4129 -0.6179
vn 0.6720 0.4049 -0.6201
vn 0.0002 -0.0657 -0.9978
vn 0.7939 0.1175 -0.5966
vn -0.3801 0.9230 -0.0607
vn -0.3809 0.9226 -0.0612
vn -0.5602 -0.8266 0.0544
vn 0.2903 0.0628 0.9549
vn -0.1099 -0.9698 -0.2178
vn 0.0981 0.0653 0.9930
vn 0.0980 0.0653 0.9930
vn -0.0980 0.0653 0.9930
vn 0.8820 -0.0309 -0.4703
vn 0.9569 -0.0191 -0.2897
vn -0.1055 -0.9588 -0.2638
vn -0.0934 -0.9629 -0.2531
vn 0.0080 -0.9857 -0.1680
vn -0.0741 -0.9696 -0.2333
vn -0.1228 -0.9505 -0.2855
vn 0.7729 -0.0416 -0.6331
vn 0.7728 -0.0416 -0.6333
vn -0.1114 -0.9558 -0.2720
vn 0.6347 -0.0507 -0.7711
vn 0.4713 -0.0579 -0.8801
vn -0.0993 -0.9616 -0.2558
vn 0.2899 -0.0628 -0.9550
vn -0.0699 -0.9747 -0.2125
vn 0.2898 -0.0628 -0.9550
vn -0.1018 -0.9592 -0.2636
vn 0.0983 -0.0653 -0.9930
vn -0.0983 -0.0653 -0.9930
vn -0.0648 -0.9671 -0.2459
vn -0.0979 -0.0653 -0.9930
vn -0.0801 -0.9707 -0.2264
vn -0.2899 -0.0628 -0.9550
vn -0.1067 -0.9748 -0.1959
vn -0.2903 -0.0628 -0.9549
vn -0.0928 -0.9730 -0.2112
vn -0.4715 -0.0579 -0.8800
vn -0.4713 -0.0579 -0.8801
vn -0.6344 -0.0507 -0.7713
vn -0.0685 -0.9696 -0.2351
vn -0.6347 -0.0507 -0.7711
vn -0.7729 -0.0416 -0.6331
vn -0.0514 -0.9669 -0.2499
vn -0.0917 -0.9715 -0.2184
vn -0.8820 -0.0309 -0.4703
vn -0.7728 -0.0416 -0.6333
vn -0.9569 -0.0191 -0.2898
vn -0.0664 -0.9694 -0.2363
vn -0.0325 -0.9656 -0.2578
vn -0.1281 -0.9672 -0.2194
vn -0.1059 -0.9711 -0.2139
vn -0.9569 0.0191 0.2897
vn -0.1063 -0.9711 -0.2138
vn -0.9570 0.0190 0.2896
vn -0.8820 0.0309 0.4702
vn -0.1207 -0.9685 -0.2178
vn -0.1667 -0.9585 -0.2314
vn -0.7729 0.0416 0.6332
vn -0.8819 0.0309 0.4704
vn -0.0695 -0.9774 -0.1995
vn -0.6345 0.0507 0.7713
vn -0.7731 0.0416 0.6329
vn -0.0686 -0.9776 -0.1991
vn -0.4712 0.0579 0.8801
vn -0.6342 0.0507 0.7715
vn -0.0860 -0.9747 -0.2061
vn -0.2902 0.0628 0.9549
vn -0.4713 0.0579 0.8801
vn -0.0703 -0.9774 -0.1993
vn -0.0983 0.0653 0.9930
vn -0.2905 0.0628 0.9548
vn 0.2905 0.0628 0.9548
vn 0.4713 0.0579 0.8801
vn 0.8819 0.0309 0.4704
vn 0.7731 0.0416 0.6329
vn 0.6342 0.0507 0.7715
vn 0.9570 0.0190 0.2896
vn 0.8819 0.0309 0.4703
vn 0.6732 -0.4833 -0.5596
vn 0.6669 -0.4891 -0.5622
vn -0.7941 0.1212 -0.5956
vn -0.7945 -0.1947 -0.5752
vn -0.6733 -0.4832 -0.5597
vn -0.6669 -0.4891 -0.5622
vn -0.8283 -0.5590 0.0368
vn 0.1539 -0.8216 -0.5489
vn 0.4413 -0.7063 -0.5536
vn 0.6692 0.4129 -0.6179
vn 0.7945 -0.1947 -0.5752
vn -0.2903 0.0628 0.9549
vn -0.0981 0.0653 0.9930
vn 0.1099 -0.9698 -0.2178
vn 0.0704 -0.9774 -0.1994
vn 0.2902 0.0628 0.9549
vn 0.0860 -0.9747 -0.2061
vn 0.4712 0.0579 0.8801
vn 0.0686 -0.9776 -0.1992
vn 0.4711 0.0579 0.8802
vn 0.6345 0.0507 0.7712
vn 0.0694 -0.9774 -0.1995
vn 0.6347 0.0507 0.7711
vn 0.7729 0.0416 0.6332
vn 0.1668 -0.9585 -0.2314
vn 0.7728 0.0416 0.6333
vn 0.8820 0.0309 0.4703
vn 0.1207 -0.9685 -0.2178
vn 0.9569 0.0190 0.2897
vn 0.1063 -0.9711 -0.2138
vn -0.4711 0.0579 0.8802
vn -0.4710 0.0579 0.8802
vn -0.6344 0.0507 0.7713
vn -0.6347 0.0507 0.7711
vn -0.8819 0.0309 0.4705
vn -0.8818 0.0309 0.4705
vn -0.9569 0.0190 0.2896
vn 0.0742 -0.9696 -0.2334
vn -0.8819 -0.0309 -0.4704
vn 0.1227 -0.9505 -0.2854
vn -0.7731 -0.0416 -0.6329
vn 0.1115 -0.9558 -0.2721
vn -0.6343 -0.0507 -0.7714
vn -0.6342 -0.0507 -0.7715
vn -0.4716 -0.0579 -0.8799
vn 0.0993 -0.9616 -0.2558
vn -0.2902 -0.0628 -0.9549
vn 0.0699 -0.9747 -0.2124
vn -0.2904 -0.0628 -0.9548
vn 0.1019 -0.9592 -0.2637
vn -0.0980 -0.0653 -0.9930
vn 0.0980 -0.0653 -0.9930
vn 0.6342 -0.0507 -0.7715
vn 0.4715 -0.0579 -0.8800
vn 0.4716 -0.0579 -0.8799
vn 0.2902 -0.0628 -0.9549
vn 0.2903 -0.0628 -0.9549
vn 0.7731 -0.0416 -0.6329
vn 0.8818 -0.0309 -0.4705
vn 0.8819 -0.0309 -0.4704
vn 0.9569 -0.0190 -0.2897
s 0
usemtl Material.011
f 2//1 9//1 1//1
f 3//2 1//2 2//2
f 5//3 2//3 1//3
f 1//4 3//4 6//4
f 6//5 4//5 1//5
f 1//3 4//3 7//3
f 5//3 1//3 8//3
f 1//6 11//6 6//6
f 8//3 1//3 7//3
f 1//7 9//7 10//7
f 1//6 10//6 11//6
f 18//8 11//8 10//8
f 11//9 12//9 3//9
f 12//10 11//10 13//10
f 13//11 11//11 15//11
f 16//12 11//12 14//12
f 17//12 14//12 11//12
f 15//12 11//12 16//12
f 6//12 11//12 3//12
f 18//8 17//8 11//8
f 18//13 24//13 19//13
f 22//3 18//3 19//3
f 18//14 25//14 17//14
f 18//15 17//15 24//15
f 31//16 17//16 18//16
f 23//3 18//3 20//3
f 20//3 18//3 22//3
f 23//3 21//3 18//3
f 18//3 21//3 4//3
f 18//17 4//17 25//17
f 31//18 18//18 26//18
f 29//3 26//3 18//3
f 30//19 27//19 18//19
f 27//20 29//20 18//20
f 30//3 18//3 28//3
f 18//3 10//3 28//3
f 32//21 31//21 38//21
f 32//12 35//12 31//12
f 31//22 26//22 45//22
f 31//23 33//23 34//23
f 31//24 36//24 33//24
f 34//12 17//12 31//12
f 31//24 35//24 36//24
f 37//25 31//25 39//25
f 38//26 31//26 37//26
f 40//27 39//27 31//27
f 41//28 40//28 31//28
f 42//29 41//29 31//29
f 43//30 42//30 31//30
f 44//31 43//31 31//31
f 45//32 44//32 31//32
f 46//33 47//33 45//33
f 45//34 26//34 46//34
f 45//35 48//35 44//35
f 45//35 47//35 48//35
f 44//36 48//36 49//36
f 48//5 50//5 49//5
f 47//5 50//5 48//5
f 79//5 50//5 51//5
f 51//5 50//5 70//5
f 52//5 50//5 71//5
f 53//5 50//5 52//5
f 70//5 50//5 53//5
f 54//5 50//5 72//5
f 55//5 50//5 54//5
f 71//5 50//5 55//5
f 56//5 50//5 73//5
f 57//5 50//5 56//5
f 72//5 50//5 57//5
f 58//37 50//37 74//37
f 59//5 50//5 58//5
f 73//5 50//5 59//5
f 60//5 50//5 75//5
f 61//5 50//5 60//5
f 74//37 50//37 61//37
f 75//5 50//5 47//5
f 62//5 50//5 76//5
f 63//5 50//5 62//5
f 49//5 50//5 63//5
f 64//5 50//5 77//5
f 65//5 50//5 64//5
f 76//5 50//5 65//5
f 66//5 50//5 78//5
f 67//5 50//5 66//5
f 77//5 50//5 67//5
f 68//5 50//5 79//5
f 69//5 50//5 68//5
f 78//5 50//5 69//5
f 80//38 68//38 79//38
f 81//39 80//39 79//39
f 81//40 79//40 51//40
f 81//41 32//41 80//41
f 82//42 32//42 81//42
f 82//43 81//43 51//43
f 83//44 32//44 82//44
f 83//45 82//45 70//45
f 82//43 51//43 70//43
f 85//46 83//46 84//46
f 84//47 83//47 53//47
f 83//45 70//45 53//45
f 85//48 32//48 83//48
f 100//49 26//49 85//49
f 85//3 26//3 93//3
f 101//50 85//50 86//50
f 85//3 94//3 86//3
f 101//51 32//51 85//51
f 85//3 87//3 94//3
f 88//3 87//3 85//3
f 89//3 88//3 85//3
f 85//3 5//3 89//3
f 90//7 92//7 85//7
f 85//3 91//3 90//3
f 85//3 93//3 91//3
f 92//52 95//52 85//52
f 85//3 95//3 5//3
f 85//53 84//53 96//53
f 85//54 96//54 97//54
f 85//55 97//55 98//55
f 85//56 98//56 99//56
f 85//57 99//57 100//57
f 106//12 32//12 101//12
f 101//58 104//58 102//58
f 101//12 102//12 105//12
f 101//58 86//58 104//58
f 106//12 101//12 103//12
f 101//12 105//12 103//12
f 106//59 103//59 87//59
f 106//12 107//12 32//12
f 107//60 106//60 88//60
f 106//59 87//59 88//59
f 107//60 88//60 89//60
f 110//61 107//61 89//61
f 107//12 108//12 109//12
f 108//12 107//12 110//12
f 32//12 107//12 111//12
f 107//12 109//12 111//12
f 112//12 111//12 3//12
f 2//62 111//62 3//62
f 111//12 6//12 3//12
f 5//63 109//63 111//63
f 111//62 2//62 5//62
f 111//12 109//12 6//12
f 111//64 112//64 113//64
f 32//12 111//12 113//12
f 115//12 32//12 113//12
f 114//65 115//65 113//65
f 116//66 114//66 113//66
f 116//66 113//66 112//66
f 117//67 116//67 112//67
f 116//68 118//68 95//68
f 114//69 116//69 95//69
f 116//70 117//70 118//70
f 95//3 118//3 5//3
f 117//71 119//71 118//71
f 119//7 2//7 118//7
f 118//72 2//72 5//72
f 2//73 119//73 9//73
f 121//74 9//74 119//74
f 121//75 119//75 120//75
f 117//76 120//76 119//76
f 120//77 13//77 121//77
f 121//78 13//78 15//78
f 122//79 9//79 121//79
f 121//78 15//78 122//78
f 122//80 15//80 16//80
f 124//81 123//81 122//81
f 122//82 123//82 9//82
f 122//80 16//80 124//80
f 124//83 16//83 14//83
f 126//84 125//84 124//84
f 124//85 125//85 123//85
f 124//83 14//83 126//83
f 126//86 14//86 128//86
f 127//87 28//87 126//87
f 126//88 28//88 125//88
f 126//86 128//86 127//86
f 127//89 128//89 129//89
f 128//24 17//24 129//24
f 128//12 14//12 17//12
f 127//89 129//89 130//89
f 130//90 129//90 34//90
f 129//12 17//12 34//12
f 131//91 27//91 130//91
f 130//92 27//92 30//92
f 130//90 34//90 131//90
f 130//93 30//93 127//93
f 131//94 34//94 33//94
f 132//95 29//95 131//95
f 131//96 29//96 27//96
f 131//94 33//94 132//94
f 134//97 132//97 33//97
f 132//98 135//98 133//98
f 132//99 133//99 29//99
f 132//100 134//100 135//100
f 26//3 135//3 93//3
f 26//101 133//101 135//101
f 134//102 93//102 135//102
f 134//97 33//97 36//97
f 136//103 134//103 36//103
f 134//104 136//104 93//104
f 136//103 36//103 35//103
f 137//105 136//105 35//105
f 136//106 91//106 93//106
f 136//107 137//107 91//107
f 137//105 35//105 138//105
f 139//108 137//108 138//108
f 137//109 90//109 91//109
f 137//110 139//110 90//110
f 139//108 138//108 115//108
f 114//65 139//65 115//65
f 139//111 92//111 90//111
f 139//112 114//112 92//112
f 32//11 138//11 35//11
f 32//12 115//12 138//12
f 26//72 29//72 133//72
f 127//113 30//113 28//113
f 125//3 28//3 10//3
f 123//3 125//3 10//3
f 9//114 123//114 10//114
f 120//115 140//115 12//115
f 120//77 12//77 13//77
f 120//115 117//115 140//115
f 117//67 112//67 140//67
f 3//11 12//11 140//11
f 140//116 112//116 3//116
f 114//117 95//117 92//117
f 110//118 144//118 141//118
f 143//12 110//12 141//12
f 110//61 89//61 142//61
f 110//118 142//118 144//118
f 108//8 110//8 142//8
f 143//119 142//119 110//119
f 141//120 144//120 145//120
f 142//3 146//3 144//3
f 144//3 146//3 145//3
f 162//121 146//121 19//121
f 146//3 153//3 19//3
f 146//122 163//122 147//122
f 146//3 147//3 154//3
f 146//123 156//123 148//123
f 146//124 148//124 163//124
f 146//3 154//3 149//3
f 145//3 146//3 149//3
f 155//3 146//3 142//3
f 150//19 146//19 152//19
f 146//3 150//3 151//3
f 146//3 151//3 153//3
f 152//19 146//19 155//19
f 146//125 157//125 156//125
f 146//126 158//126 157//126
f 146//127 159//127 158//127
f 146//128 160//128 159//128
f 146//129 161//129 160//129
f 146//130 162//130 161//130
f 163//12 148//12 168//12
f 163//12 167//12 164//12
f 163//131 164//131 166//131
f 163//131 166//131 147//131
f 163//12 168//12 165//12
f 163//12 165//12 167//12
f 168//132 149//132 165//132
f 168//12 148//12 141//12
f 141//120 145//120 168//120
f 168//132 145//132 149//132
f 167//133 171//133 169//133
f 164//12 167//12 169//12
f 165//134 170//134 167//134
f 167//133 170//133 171//133
f 169//135 171//135 172//135
f 171//3 170//3 174//3
f 171//3 173//3 172//3
f 171//3 174//3 173//3
f 154//3 173//3 174//3
f 149//3 154//3 174//3
f 149//3 174//3 170//3
f 175//3 173//3 154//3
f 176//3 173//3 175//3
f 172//3 173//3 177//3
f 173//3 176//3 178//3
f 177//3 173//3 178//3
f 182//136 178//136 179//136
f 179//62 178//62 181//62
f 182//136 177//136 178//136
f 176//3 180//3 178//3
f 181//62 178//62 180//62
f 185//137 183//137 182//137
f 183//138 184//138 182//138
f 182//138 172//138 177//138
f 182//138 184//138 172//138
f 185//3 182//3 179//3
f 185//3 188//3 186//3
f 186//139 187//139 185//139
f 185//140 187//140 183//140
f 185//3 179//3 181//3
f 185//3 181//3 188//3
f 181//62 180//62 188//62
f 186//5 188//5 180//5
f 186//141 189//141 187//141
f 187//12 189//12 191//12
f 190//12 183//12 187//12
f 190//24 187//24 192//24
f 187//12 191//12 194//12
f 192//12 187//12 193//12
f 187//12 194//12 193//12
f 193//142 194//142 195//142
f 195//5 194//5 196//5
f 196//12 194//12 197//12
f 194//12 191//12 197//12
f 198//143 196//143 197//143
f 197//136 199//136 198//136
f 191//136 199//136 197//136
f 200//3 199//3 205//3
f 200//136 201//136 199//136
f 199//136 201//136 198//136
f 199//3 202//3 204//3
f 203//3 202//3 199//3
f 191//136 203//136 199//136
f 204//3 206//3 199//3
f 205//3 199//3 206//3
f 208//144 205//144 206//144
f 209//145 206//145 207//145
f 204//3 207//3 206//3
f 209//146 208//146 206//146
f 210//147 209//147 207//147
f 208//148 209//148 211//148
f 209//149 210//149 212//149
f 209//149 212//149 211//149
f 214//150 211//150 212//150
f 210//151 213//151 212//151
f 215//152 212//152 213//152
f 215//24 214//24 212//24
f 218//153 215//153 216//153
f 216//12 215//12 213//12
f 217//154 214//154 215//154
f 218//153 217//153 215//153
f 219//155 218//155 216//155
f 218//156 219//156 221//156
f 217//157 218//157 220//157
f 218//158 221//158 220//158
f 222//3 221//3 223//3
f 220//3 221//3 222//3
f 221//159 219//159 224//159
f 221//160 224//160 223//160
f 227//161 225//161 224//161
f 223//162 224//162 225//162
f 226//163 224//163 219//163
f 227//161 224//161 226//161
f 228//164 225//164 227//164
f 228//165 227//165 229//165
f 227//10 226//10 229//10
f 235//24 229//24 230//24
f 230//166 229//166 232//166
f 229//12 226//12 231//12
f 229//167 231//167 234//167
f 229//167 234//167 232//167
f 233//168 228//168 229//168
f 235//169 233//169 229//169
f 236//170 237//170 235//170
f 235//171 230//171 236//171
f 235//172 238//172 233//172
f 235//172 237//172 238//172
f 240//173 238//173 237//173
f 233//174 238//174 239//174
f 241//175 239//175 238//175
f 241//176 238//176 240//176
f 242//177 239//177 241//177
f 232//3 242//3 241//3
f 232//3 241//3 240//3
f 223//178 225//178 242//178
f 242//179 225//179 239//179
f 232//3 223//3 242//3
f 240//180 237//180 243//180
f 243//3 232//3 240//3
f 243//181 237//181 246//181
f 243//182 246//182 244//182
f 243//101 244//101 245//101
f 243//3 245//3 232//3
f 248//183 247//183 246//183
f 244//184 246//184 247//184
f 236//170 246//170 237//170
f 248//183 246//183 236//183
f 249//185 247//185 248//185
f 249//11 248//11 250//11
f 248//24 236//24 250//24
f 251//186 253//186 250//186
f 258//187 251//187 250//187
f 258//188 250//188 192//188
f 259//12 192//12 250//12
f 259//12 250//12 252//12
f 250//12 230//12 252//12
f 236//12 230//12 250//12
f 250//12 253//12 257//12
f 254//24 255//24 250//24
f 257//189 254//189 250//189
f 255//12 256//12 250//12
f 256//24 249//24 250//24
f 259//12 190//12 192//12
f 176//190 190//190 259//190
f 260//191 259//191 252//191
f 176//190 259//190 260//190
f 260//3 262//3 176//3
f 260//191 252//191 261//191
f 263//3 260//3 261//3
f 262//3 260//3 263//3
f 264//192 262//192 263//192
f 266//193 264//193 263//193
f 266//194 263//194 265//194
f 263//3 261//3 265//3
f 264//195 266//195 256//195
f 266//196 267//196 249//196
f 267//197 266//197 265//197
f 266//196 249//196 256//196
f 249//185 267//185 247//185
f 269//198 247//198 267//198
f 267//199 265//199 268//199
f 269//200 267//200 268//200
f 244//201 247//201 269//201
f 244//72 269//72 245//72
f 269//3 268//3 245//3
f 245//3 268//3 265//3
f 265//3 261//3 245//3
f 270//151 264//151 255//151
f 264//202 270//202 262//202
f 264//203 256//203 255//203
f 271//149 270//149 254//149
f 270//204 271//204 272//204
f 270//205 272//205 262//205
f 270//151 255//151 254//151
f 271//145 273//145 272//145
f 272//3 273//3 176//3
f 176//3 262//3 272//3
f 274//144 275//144 273//144
f 271//146 274//146 273//146
f 275//3 276//3 273//3
f 176//3 273//3 204//3
f 276//3 204//3 273//3
f 210//205 207//205 276//205
f 278//202 210//202 276//202
f 278//206 276//206 277//206
f 275//72 277//72 276//72
f 207//3 204//3 276//3
f 278//195 279//195 280//195
f 279//207 278//207 277//207
f 210//151 278//151 213//151
f 278//203 280//203 213//203
f 216//24 213//24 280//24
f 279//196 281//196 280//196
f 280//12 281//12 282//12
f 280//23 282//23 216//23
f 226//163 219//163 282//163
f 283//24 226//24 282//24
f 219//155 216//155 282//155
f 283//12 282//12 281//12
f 281//185 285//185 283//185
f 283//208 286//208 284//208
f 284//23 231//23 283//23
f 283//208 285//208 286//208
f 283//12 231//12 226//12
f 284//170 286//170 287//170
f 289//181 287//181 286//181
f 288//184 286//184 285//184
f 289//209 286//209 288//209
f 288//3 234//3 289//3
f 289//3 234//3 291//3
f 290//180 287//180 289//180
f 289//3 291//3 290//3
f 231//210 291//210 234//210
f 292//211 200//211 291//211
f 294//3 291//3 200//3
f 231//210 292//210 291//210
f 290//3 291//3 293//3
f 293//3 291//3 295//3
f 295//7 291//7 294//7
f 295//177 297//177 293//177
f 294//212 296//212 295//212
f 295//213 296//213 297//213
f 293//214 297//214 298//214
f 299//164 297//164 296//164
f 300//174 298//174 297//174
f 300//174 297//174 299//174
f 301//172 298//172 300//172
f 301//168 300//168 292//168
f 300//12 299//12 292//12
f 284//170 287//170 301//170
f 301//215 231//215 284//215
f 301//172 287//172 298//172
f 301//12 292//12 231//12
f 299//164 296//164 302//164
f 299//9 302//9 292//9
f 302//161 304//161 303//161
f 302//12 303//12 292//12
f 302//161 296//161 304//161
f 306//160 304//160 294//160
f 294//216 304//216 296//216
f 303//163 304//163 305//163
f 306//159 305//159 304//159
f 294//101 200//101 306//101
f 308//158 306//158 307//158
f 306//72 200//72 307//72
f 308//217 305//217 306//217
f 309//218 308//218 307//218
f 308//153 309//153 311//153
f 305//155 308//155 310//155
f 308//153 311//153 310//153
f 311//12 253//12 310//12
f 309//154 312//154 311//154
f 312//24 253//24 311//24
f 208//148 211//148 312//148
f 211//12 253//12 312//12
f 309//154 208//154 312//154
f 305//155 310//155 313//155
f 310//23 253//23 313//23
f 303//163 305//163 313//163
f 313//219 253//219 303//219
f 309//220 307//220 205//220
f 208//221 309//221 205//221
f 307//72 200//72 205//72
f 253//12 292//12 303//12
f 293//176 298//176 290//176
f 290//222 298//222 287//222
f 292//12 253//12 314//12
f 292//211 314//211 200//211
f 315//136 200//136 314//136
f 315//12 314//12 316//12
f 314//12 253//12 316//12
f 253//223 317//223 316//223
f 317//5 318//5 316//5
f 315//12 316//12 318//12
f 318//224 319//224 321//224
f 319//5 318//5 320//5
f 318//5 317//5 320//5
f 318//225 321//225 315//225
f 319//226 201//226 321//226
f 321//136 201//136 200//136
f 315//136 321//136 200//136
f 324//227 320//227 317//227
f 320//5 322//5 319//5
f 323//228 322//228 320//228
f 324//229 323//229 320//229
f 253//230 324//230 317//230
f 325//231 323//231 324//231
f 251//232 324//232 253//232
f 251//233 325//233 324//233
f 251//187 326//187 325//187
f 326//187 327//187 325//187
f 325//234 327//234 323//234
f 330//235 327//235 328//235
f 329//236 328//236 327//236
f 326//187 329//187 327//187
f 330//237 323//237 327//237
f 331//238 330//238 328//238
f 330//238 331//238 332//238
f 323//239 330//239 322//239
f 330//240 332//240 322//240
f 322//5 332//5 333//5
f 332//5 334//5 333//5
f 335//241 334//241 332//241
f 335//242 332//242 331//242
f 336//243 334//243 335//243
f 336//244 335//244 329//244
f 335//242 331//242 328//242
f 335//245 328//245 329//245
f 338//246 337//246 336//246
f 336//247 337//247 334//247
f 326//248 338//248 336//248
f 326//249 336//249 329//249
f 193//250 195//250 338//250
f 338//251 195//251 337//251
f 258//252 193//252 338//252
f 258//253 338//253 326//253
f 196//5 337//5 195//5
f 334//5 337//5 339//5
f 196//5 339//5 337//5
f 334//5 339//5 333//5
f 201//254 333//254 339//254
f 201//254 339//254 198//254
f 198//255 339//255 196//255
f 322//5 333//5 319//5
f 319//256 333//256 201//256
f 251//187 258//187 326//187
f 288//257 285//257 340//257
f 340//3 234//3 288//3
f 222//72 223//72 340//72
f 223//3 234//3 340//3
f 340//258 285//258 341//258
f 340//200 341//200 222//200
f 281//185 341//185 285//185
f 279//196 341//196 281//196
f 341//259 279//259 342//259
f 341//199 342//199 222//199
f 279//260 277//260 342//260
f 220//101 222//101 342//101
f 220//3 342//3 277//3
f 220//3 277//3 275//3
f 217//261 220//261 275//261
f 274//262 217//262 275//262
f 217//154 274//154 214//154
f 274//148 271//148 257//148
f 274//148 257//148 214//148
f 271//149 254//149 257//149
f 261//263 230//263 245//263
f 261//263 252//263 230//263
f 192//264 193//264 258//264
f 214//265 257//265 211//265
f 257//12 253//12 211//12
f 230//166 232//166 245//166
f 228//164 239//164 225//164
f 233//174 239//174 228//174
f 234//3 223//3 232//3
f 344//3 204//3 343//3
f 204//3 202//3 343//3
f 176//3 204//3 180//3
f 345//3 204//3 344//3
f 345//3 180//3 204//3
f 186//266 345//266 346//266
f 346//267 345//267 344//267
f 347//3 180//3 345//3
f 347//266 345//266 186//266
f 186//5 180//5 347//5
f 346//267 344//267 348//267
f 348//12 191//12 346//12
f 186//266 346//266 189//266
f 346//12 191//12 189//12
f 348//268 351//268 349//268
f 348//12 349//12 350//12
f 348//268 344//268 351//268
f 348//12 350//12 191//12
f 349//58 351//58 352//58
f 344//3 343//3 351//3
f 352//3 351//3 343//3
f 349//58 352//58 353//58
f 353//269 352//269 354//269
f 356//3 354//3 352//3
f 355//3 352//3 360//3
f 355//3 359//3 352//3
f 357//72 356//72 352//72
f 358//3 357//3 352//3
f 359//101 358//101 352//101
f 352//3 343//3 360//3
f 203//3 360//3 202//3
f 343//3 202//3 360//3
f 361//3 360//3 203//3
f 362//3 360//3 361//3
f 355//3 360//3 362//3
f 362//270 361//270 350//270
f 355//271 362//271 363//271
f 362//270 350//270 363//270
f 350//12 353//12 363//12
f 355//271 363//271 364//271
f 363//12 365//12 364//12
f 363//12 353//12 365//12
f 365//272 372//272 366//272
f 368//12 365//12 366//12
f 364//12 365//12 367//12
f 353//269 354//269 365//269
f 365//272 354//272 372//272
f 365//64 371//64 367//64
f 369//23 365//23 368//23
f 370//24 365//24 369//24
f 371//23 365//23 370//23
f 366//273 372//273 374//273
f 354//3 373//3 372//3
f 373//3 374//3 372//3
f 373//3 376//3 374//3
f 376//274 375//274 374//274
f 381//275 375//275 374//275
f 379//8 374//8 375//8
f 366//273 374//273 375//273
f 381//275 374//275 377//275
f 377//3 374//3 378//3
f 378//3 374//3 380//3
f 379//3 380//3 374//3
f 384//12 381//12 382//12
f 382//276 381//276 377//276
f 383//24 381//24 384//24
f 385//23 381//23 383//23
f 386//23 381//23 385//23
f 381//12 386//12 375//12
f 380//4 386//4 388//4
f 386//2 380//2 378//2
f 378//62 387//62 386//62
f 387//12 386//12 385//12
f 387//12 388//12 386//12
f 386//12 388//12 375//12
f 387//12 389//12 388//12
f 389//12 390//12 388//12
f 388//6 380//6 379//6
f 388//5 376//5 380//5
f 376//5 388//5 390//5
f 391//12 375//12 388//12
f 379//6 391//6 388//6
f 379//8 375//8 391//8
f 390//12 392//12 375//12
f 393//12 392//12 390//12
f 376//274 390//274 375//274
f 389//12 393//12 390//12
f 392//12 393//12 396//12
f 393//277 394//277 397//277
f 393//136 395//136 394//136
f 395//136 393//136 389//136
f 393//277 397//277 396//277
f 392//136 396//136 397//136
f 394//3 373//3 397//3
f 392//136 397//136 373//136
f 399//3 398//3 395//3
f 398//3 380//3 395//3
f 389//278 398//278 395//278
f 395//3 380//3 394//3
f 395//279 389//279 400//279
f 400//279 399//279 395//279
f 400//8 402//8 399//8
f 400//8 401//8 402//8
f 401//12 400//12 387//12
f 400//12 389//12 387//12
f 402//136 401//136 404//136
f 402//3 398//3 399//3
f 403//136 402//136 404//136
f 403//3 398//3 402//3
f 405//136 403//136 404//136
f 404//12 410//12 405//12
f 407//11 406//11 404//11
f 406//11 410//11 404//11
f 408//24 407//24 404//24
f 409//12 408//12 404//12
f 385//12 409//12 404//12
f 404//12 387//12 385//12
f 404//12 401//12 387//12
f 412//219 405//219 410//219
f 411//115 412//115 410//115
f 411//77 410//77 406//77
f 414//219 405//219 412//219
f 413//67 414//67 412//67
f 411//115 413//115 412//115
f 416//12 405//12 414//12
f 415//66 416//66 414//66
f 413//67 415//67 414//67
f 418//12 405//12 416//12
f 417//65 418//65 416//65
f 415//66 417//66 416//66
f 405//12 418//12 420//12
f 419//108 420//108 418//108
f 417//65 419//65 418//65
f 405//12 420//12 382//12
f 382//215 420//215 422//215
f 421//105 422//105 420//105
f 419//108 421//108 420//108
f 422//23 424//23 382//23
f 423//103 424//103 422//103
f 421//105 423//105 422//105
f 424//24 426//24 382//24
f 425//97 426//97 424//97
f 423//103 425//103 424//103
f 426//23 384//23 382//23
f 428//94 426//94 427//94
f 425//97 427//97 426//97
f 428//94 384//94 426//94
f 430//90 384//90 428//90
f 427//95 429//95 428//95
f 428//96 429//96 431//96
f 428//280 431//280 430//280
f 433//3 431//3 432//3
f 431//3 429//3 432//3
f 430//92 431//92 433//92
f 403//281 434//281 433//281
f 432//3 403//3 433//3
f 435//282 433//282 434//282
f 430//283 433//283 435//283
f 436//86 385//86 435//86
f 435//284 385//284 383//284
f 435//87 434//87 436//87
f 435//284 383//284 430//284
f 437//83 409//83 436//83
f 436//86 409//86 385//86
f 436//285 434//285 438//285
f 436//84 438//84 437//84
f 434//3 403//3 438//3
f 438//3 403//3 439//3
f 437//85 438//85 439//85
f 439//3 403//3 440//3
f 441//82 439//82 440//82
f 437//81 439//81 441//81
f 442//78 407//78 441//78
f 441//286 407//286 408//286
f 441//79 440//79 442//79
f 441//286 408//286 437//286
f 411//77 406//77 442//77
f 442//78 406//78 407//78
f 442//287 440//287 443//287
f 442//75 443//75 411//75
f 403//3 444//3 443//3
f 445//3 443//3 444//3
f 440//3 403//3 443//3
f 413//71 443//71 445//71
f 413//76 411//76 443//76
f 446//3 445//3 444//3
f 415//70 413//70 445//70
f 415//68 445//68 446//68
f 447//3 446//3 444//3
f 417//69 415//69 446//69
f 417//117 446//117 447//117
f 448//3 447//3 444//3
f 419//112 417//112 447//112
f 419//288 447//288 448//288
f 444//19 449//19 448//19
f 421//110 419//110 448//110
f 421//289 448//289 449//289
f 444//3 450//3 449//3
f 449//101 450//101 451//101
f 423//290 421//290 449//290
f 423//106 449//106 451//106
f 451//3 450//3 452//3
f 425//291 423//291 451//291
f 425//102 451//102 452//102
f 452//3 450//3 453//3
f 427//98 452//98 453//98
f 427//100 425//100 452//100
f 453//3 450//3 432//3
f 429//3 453//3 432//3
f 427//99 453//99 429//99
f 454//292 432//292 450//292
f 457//131 454//131 450//131
f 457//131 450//131 455//131
f 458//3 455//3 450//3
f 444//101 456//101 450//101
f 458//3 450//3 456//3
f 461//3 458//3 459//3
f 459//3 458//3 460//3
f 458//3 456//3 460//3
f 461//3 455//3 458//3
f 462//293 455//293 461//293
f 464//294 462//294 461//294
f 464//294 461//294 463//294
f 463//3 461//3 459//3
f 462//12 464//12 466//12
f 467//295 465//295 464//295
f 464//12 465//12 466//12
f 467//295 464//295 463//295
f 472//296 465//296 467//296
f 467//5 468//5 471//5
f 468//295 467//295 463//295
f 472//297 467//297 469//297
f 469//3 467//3 470//3
f 467//5 471//5 470//5
f 472//12 466//12 465//12
f 473//298 472//298 469//298
f 474//12 472//12 473//12
f 474//12 475//12 472//12
f 472//12 477//12 466//12
f 475//12 476//12 472//12
f 472//12 476//12 477//12
f 476//299 478//299 477//299
f 478//5 479//5 477//5
f 479//12 480//12 477//12
f 477//12 480//12 466//12
f 479//300 481//300 480//300
f 480//136 481//136 482//136
f 466//136 480//136 482//136
f 483//3 486//3 482//3
f 483//136 482//136 484//136
f 482//136 481//136 484//136
f 482//3 459//3 460//3
f 485//3 482//3 460//3
f 466//136 482//136 485//136
f 459//3 482//3 487//3
f 486//3 487//3 482//3
f 489//177 487//177 486//177
f 459//3 487//3 488//3
f 490//176 488//176 487//176
f 490//175 487//175 489//175
f 491//173 488//173 490//173
f 489//301 492//301 490//301
f 490//302 493//302 491//302
f 490//302 492//302 493//302
f 495//12 493//12 492//12
f 496//171 494//171 493//171
f 491//170 493//170 494//170
f 496//303 493//303 495//303
f 497//12 494//12 496//12
f 499//304 497//304 496//304
f 498//164 496//164 495//164
f 499//304 496//304 498//304
f 500//163 497//163 499//163
f 499//305 502//305 500//305
f 498//306 501//306 499//306
f 499//160 501//160 502//160
f 501//3 503//3 502//3
f 504//3 502//3 503//3
f 505//156 500//156 502//156
f 505//158 502//158 504//158
f 505//307 506//307 508//307
f 506//308 505//308 504//308
f 500//155 505//155 507//155
f 505//309 508//309 507//309
f 506//154 509//154 508//154
f 509//10 510//10 508//10
f 508//9 510//9 507//9
f 511//310 513//310 510//310
f 516//12 511//12 510//12
f 510//311 515//311 512//311
f 510//12 512//12 507//12
f 510//311 513//311 515//311
f 516//12 510//12 514//12
f 514//12 510//12 509//12
f 518//151 517//151 516//151
f 516//23 517//23 511//23
f 519//149 516//149 514//149
f 519//149 518//149 516//149
f 518//204 519//204 521//204
f 520//312 519//312 514//312
f 519//146 520//146 522//146
f 519//313 522//313 521//313
f 520//144 523//144 522//144
f 513//7 522//7 523//7
f 513//314 521//314 522//314
f 506//261 504//261 523//261
f 520//262 506//262 523//262
f 513//315 523//315 504//315
f 518//205 521//205 524//205
f 524//72 521//72 513//72
f 527//202 518//202 524//202
f 527//192 524//192 525//192
f 524//101 526//101 525//101
f 524//72 513//72 526//72
f 527//203 528//203 529//203
f 528//207 527//207 525//207
f 518//151 527//151 517//151
f 527//203 529//203 517//203
f 528//196 530//196 529//196
f 530//219 531//219 529//219
f 529//23 531//23 517//23
f 539//187 531//187 532//187
f 532//316 531//316 534//316
f 540//12 531//12 475//12
f 539//187 475//187 531//187
f 531//12 533//12 511//12
f 540//12 533//12 531//12
f 517//12 531//12 511//12
f 531//12 538//12 534//12
f 535//12 531//12 536//12
f 538//317 531//317 535//317
f 536//12 531//12 537//12
f 537//23 531//23 530//23
f 542//318 540//318 474//318
f 540//12 475//12 474//12
f 541//319 533//319 540//319
f 542//318 541//318 540//318
f 104//3 543//3 542//3
f 102//320 104//320 542//320
f 102//320 542//320 474//320
f 541//3 542//3 546//3
f 542//3 543//3 544//3
f 544//3 545//3 542//3
f 542//3 459//3 548//3
f 542//3 471//3 459//3
f 542//3 545//3 471//3
f 542//3 547//3 546//3
f 547//3 542//3 548//3
f 552//214 548//214 549//214
f 549//177 548//177 550//177
f 552//176 547//176 548//176
f 550//101 548//101 551//101
f 551//3 548//3 459//3
f 552//302 535//302 553//302
f 553//321 547//321 552//321
f 549//301 538//301 552//301
f 552//302 538//302 535//302
f 553//170 536//170 554//170
f 554//181 546//181 553//181
f 553//180 546//180 547//180
f 553//170 535//170 536//170
f 554//183 537//183 555//183
f 555//184 556//184 554//184
f 554//182 556//182 546//182
f 554//322 536//322 537//322
f 556//3 557//3 558//3
f 555//257 557//257 556//257
f 546//3 556//3 541//3
f 556//3 558//3 541//3
f 541//319 558//319 533//319
f 557//3 526//3 558//3
f 558//323 526//323 511//323
f 558//323 511//323 533//323
f 560//324 557//324 555//324
f 526//3 557//3 559//3
f 560//200 559//200 557//200
f 555//185 530//185 560//185
f 528//196 560//196 530//196
f 560//259 528//259 561//259
f 560//199 561//199 559//199
f 528//260 525//260 561//260
f 525//101 526//101 561//101
f 561//3 526//3 559//3
f 555//185 537//185 530//185
f 563//325 551//325 491//325
f 491//180 551//180 488//180
f 550//101 551//101 562//101
f 563//326 562//326 551//326
f 488//3 551//3 459//3
f 563//183 565//183 564//183
f 564//327 562//327 563//327
f 491//170 494//170 563//170
f 563//322 494//322 565//322
f 497//303 565//303 494//303
f 567//23 566//23 565//23
f 564//185 565//185 566//185
f 567//12 565//12 497//12
f 568//12 567//12 507//12
f 500//155 507//155 567//155
f 500//163 567//163 497//163
f 568//24 566//24 567//24
f 570//196 566//196 568//196
f 571//203 568//203 569//203
f 569//11 568//11 512//11
f 571//203 570//203 568//203
f 568//12 507//12 512//12
f 572//151 571//151 569//151
f 571//328 572//328 574//328
f 570//329 571//329 573//329
f 571//206 574//206 573//206
f 574//3 576//3 515//3
f 573//3 574//3 515//3
f 572//205 575//205 574//205
f 574//101 575//101 576//101
f 512//330 515//330 576//330
f 579//3 483//3 576//3
f 577//331 576//331 483//331
f 512//330 576//330 577//330
f 575//3 578//3 576//3
f 578//7 580//7 576//7
f 580//3 579//3 576//3
f 582//144 580//144 578//144
f 581//261 579//261 580//261
f 582//262 581//262 580//262
f 583//146 582//146 578//146
f 581//154 582//154 584//154
f 582//312 583//312 585//312
f 582//312 585//312 584//312
f 586//12 577//12 585//12
f 583//332 586//332 585//332
f 585//12 577//12 584//12
f 572//151 569//151 586//151
f 586//24 569//24 512//24
f 583//332 572//332 586//332
f 586//12 512//12 577//12
f 581//154 584//154 587//154
f 584//9 577//9 587//9
f 589//309 587//309 588//309
f 587//10 577//10 588//10
f 589//309 581//309 587//309
f 589//158 591//158 579//158
f 581//308 589//308 579//308
f 590//155 589//155 588//155
f 589//156 590//156 591//156
f 579//3 591//3 483//3
f 591//3 592//3 483//3
f 593//160 592//160 591//160
f 593//305 591//305 590//305
f 594//216 592//216 593//216
f 593//304 596//304 594//304
f 590//163 595//163 593//163
f 593//304 595//304 596//304
f 596//24 595//24 534//24
f 597//12 596//12 534//12
f 594//164 596//164 597//164
f 492//12 597//12 534//12
f 489//301 597//301 492//301
f 594//164 597//164 489//164
f 595//12 598//12 534//12
f 590//163 598//163 595//163
f 590//155 588//155 598//155
f 598//24 588//24 534//24
f 489//179 486//179 594//179
f 594//333 486//333 592//333
f 592//3 486//3 483//3
f 534//12 588//12 577//12
f 583//145 578//145 575//145
f 572//204 583//204 575//204
f 577//331 483//331 599//331
f 577//12 599//12 534//12
f 600//136 599//136 483//136
f 600//12 601//12 599//12
f 599//12 601//12 534//12
f 602//334 534//334 601//334
f 602//5 601//5 603//5
f 600//12 603//12 601//12
f 603//335 606//335 604//335
f 604//5 605//5 603//5
f 603//5 605//5 602//5
f 603//336 600//336 606//336
f 604//337 606//337 484//337
f 606//136 483//136 484//136
f 600//136 483//136 606//136
f 605//338 609//338 602//338
f 605//5 604//5 607//5
f 607//339 608//339 605//339
f 605//340 608//340 609//340
f 602//341 609//341 534//341
f 608//342 610//342 609//342
f 609//343 532//343 534//343
f 609//344 610//344 532//344
f 611//187 532//187 610//187
f 613//187 611//187 610//187
f 613//187 610//187 612//187
f 608//345 612//345 610//345
f 611//346 613//346 615//346
f 616//347 613//347 614//347
f 613//236 612//236 614//236
f 615//348 613//348 616//348
f 615//349 616//349 618//349
f 616//350 614//350 617//350
f 616//350 617//350 619//350
f 616//350 619//350 618//350
f 607//5 620//5 619//5
f 619//5 620//5 618//5
f 619//351 621//351 607//351
f 619//352 617//352 621//352
f 617//352 614//352 621//352
f 621//353 612//353 608//353
f 621//354 614//354 612//354
f 607//355 621//355 608//355
f 618//5 620//5 622//5
f 622//356 620//356 484//356
f 604//337 484//337 620//337
f 607//5 604//5 620//5
f 618//5 622//5 623//5
f 479//5 623//5 622//5
f 622//356 484//356 481//356
f 479//357 622//357 481//357
f 624//358 623//358 478//358
f 479//5 478//5 623//5
f 615//359 618//359 623//359
f 624//360 615//360 623//360
f 476//361 624//361 478//361
f 611//362 615//362 624//362
f 539//363 624//363 476//363
f 539//364 611//364 624//364
f 611//187 539//187 532//187
f 570//260 573//260 625//260
f 625//3 573//3 515//3
f 504//3 503//3 625//3
f 504//3 625//3 515//3
f 626//259 570//259 625//259
f 626//365 625//365 503//365
f 570//196 626//196 566//196
f 564//185 566//185 626//185
f 626//324 627//324 564//324
f 626//366 503//366 627//366
f 564//257 627//257 562//257
f 501//3 627//3 503//3
f 501//3 562//3 627//3
f 501//3 550//3 562//3
f 549//179 550//179 498//179
f 498//333 550//333 501//333
f 498//164 495//164 549//164
f 549//301 495//301 538//301
f 545//136 631//136 628//136
f 628//8 630//8 545//8
f 629//3 545//3 544//3
f 545//136 629//136 631//136
f 630//8 471//8 545//8
f 473//367 469//367 631//367
f 473//368 631//368 633//368
f 631//368 629//368 632//368
f 631//368 632//368 633//368
f 628//3 631//3 469//3
f 474//12 473//12 633//12
f 474//12 633//12 634//12
f 634//369 633//369 632//369
f 102//12 474//12 634//12
f 102//12 634//12 105//12
f 105//370 634//370 635//370
f 634//369 632//369 635//369
f 105//370 635//370 636//370
f 637//3 636//3 635//3
f 635//3 632//3 544//3
f 637//3 635//3 544//3
f 87//3 637//3 94//3
f 94//3 637//3 544//3
f 87//3 636//3 637//3
f 103//371 105//371 636//371
f 103//371 636//371 87//371
f 632//3 629//3 544//3
f 469//3 470//3 630//3
f 630//8 470//8 471//8
f 628//3 469//3 630//3
f 543//3 94//3 544//3
f 86//3 94//3 543//3
f 86//3 543//3 104//3
f 475//372 539//372 476//372
f 495//373 492//373 538//373
f 538//12 492//12 534//12
f 511//310 526//310 513//310
f 506//154 520//154 509//154
f 520//312 514//312 509//312
f 515//3 513//3 504//3
f 638//374 466//374 485//374
f 638//3 485//3 456//3
f 485//3 460//3 456//3
f 638//375 639//375 466//375
f 639//376 638//376 640//376
f 640//3 638//3 456//3
f 444//3 640//3 456//3
f 641//377 640//377 444//377
f 639//376 640//376 641//376
f 639//12 641//12 454//12
f 641//377 444//377 405//377
f 641//12 405//12 382//12
f 641//12 382//12 454//12
f 457//12 639//12 454//12
f 462//12 466//12 639//12
f 462//12 639//12 457//12
f 468//3 463//3 471//3
f 463//3 459//3 471//3
f 462//293 457//293 455//293
f 454//292 382//292 432//292
f 405//136 444//136 403//136
f 437//83 408//83 409//83
f 382//276 377//276 432//276
f 378//3 432//3 377//3
f 403//3 432//3 398//3
f 398//3 432//3 378//3
f 430//90 383//90 384//90
f 398//63 389//63 387//63
f 387//62 378//62 398//62
f 398//3 378//3 380//3
f 373//3 394//3 376//3
f 380//3 376//3 394//3
f 392//12 364//12 647//12
f 364//136 392//136 373//136
f 366//12 375//12 392//12
f 366//12 392//12 646//12
f 643//12 392//12 642//12
f 642//12 392//12 647//12
f 644//219 392//219 643//219
f 645//378 392//378 644//378
f 646//379 392//379 645//379
f 649//12 647//12 364//12
f 648//115 642//115 647//115
f 649//77 648//77 647//77
f 651//12 649//12 364//12
f 651//78 650//78 649//78
f 649//77 650//77 648//77
f 653//9 651//9 364//9
f 653//286 652//286 651//286
f 651//78 652//78 650//78
f 655//168 653//168 364//168
f 655//83 654//83 653//83
f 653//286 654//286 652//286
f 364//380 367//380 655//380
f 367//86 656//86 655//86
f 655//83 656//83 654//83
f 658//87 656//87 657//87
f 367//86 657//86 656//86
f 659//381 654//381 656//381
f 659//382 656//382 658//382
f 659//3 355//3 660//3
f 658//72 355//72 659//72
f 660//383 654//383 659//383
f 660//3 355//3 661//3
f 661//82 652//82 660//82
f 660//384 652//384 654//384
f 661//3 355//3 662//3
f 662//385 650//385 661//385
f 661//79 650//79 652//79
f 373//3 662//3 355//3
f 663//3 662//3 373//3
f 664//386 662//386 663//386
f 662//75 648//75 650//75
f 664//76 648//76 662//76
f 664//67 643//67 642//67
f 648//115 664//115 642//115
f 665//387 664//387 663//387
f 664//67 665//67 643//67
f 665//66 644//66 643//66
f 665//68 663//68 666//68
f 667//388 665//388 666//388
f 665//66 667//66 644//66
f 667//65 645//65 644//65
f 667//389 666//389 668//389
f 669//390 667//390 668//390
f 667//65 669//65 645//65
f 669//108 646//108 645//108
f 669//391 668//391 670//391
f 671//110 669//110 670//110
f 669//108 671//108 646//108
f 671//392 674//392 646//392
f 671//393 670//393 672//393
f 673//394 671//394 672//394
f 671//105 673//105 674//105
f 674//12 368//12 366//12
f 646//24 674//24 366//24
f 673//103 368//103 674//103
f 673//395 672//395 675//395
f 676//104 673//104 675//104
f 673//103 676//103 368//103
f 676//97 369//97 368//97
f 676//102 675//102 677//102
f 678//100 676//100 677//100
f 676//97 678//97 369//97
f 369//94 678//94 679//94
f 357//95 679//95 678//95
f 357//99 678//99 356//99
f 678//98 677//98 356//98
f 369//94 679//94 370//94
f 370//90 679//90 680//90
f 358//91 680//91 679//91
f 358//96 679//96 357//96
f 370//90 680//90 371//90
f 371//89 680//89 657//89
f 359//396 657//396 680//396
f 359//397 680//397 358//397
f 675//3 354//3 677//3
f 677//101 354//101 356//101
f 672//72 354//72 675//72
f 373//398 672//398 670//398
f 354//3 672//3 373//3
f 670//3 668//3 373//3
f 668//3 666//3 373//3
f 666//3 663//3 373//3
f 355//52 658//52 359//52
f 658//399 657//399 359//399
f 371//89 657//89 367//89
f 364//136 373//136 355//136
f 191//400 350//400 361//400
f 191//401 361//401 203//401
f 349//12 353//12 350//12
f 164//12 169//12 190//12
f 164//402 190//402 176//402
f 190//12 169//12 184//12
f 190//12 184//12 183//12
f 169//135 172//135 184//135
f 164//402 176//402 166//402
f 166//3 176//3 175//3
f 147//3 175//3 154//3
f 147//3 166//3 175//3
f 165//134 149//134 170//134
f 161//403 162//403 682//403
f 681//404 162//404 19//404
f 162//405 681//405 683//405
f 162//406 683//406 682//406
f 681//407 684//407 683//407
f 683//5 684//5 685//5
f 682//5 683//5 685//5
f 714//5 686//5 685//5
f 686//5 705//5 685//5
f 687//37 706//37 685//37
f 688//5 687//5 685//5
f 705//5 688//5 685//5
f 689//37 707//37 685//37
f 690//5 689//5 685//5
f 706//5 690//5 685//5
f 707//5 682//5 685//5
f 691//5 708//5 685//5
f 692//37 691//37 685//37
f 684//5 692//5 685//5
f 693//5 709//5 685//5
f 694//37 693//37 685//37
f 708//5 694//5 685//5
f 695//5 710//5 685//5
f 696//5 695//5 685//5
f 709//5 696//5 685//5
f 697//5 711//5 685//5
f 698//5 697//5 685//5
f 710//5 698//5 685//5
f 699//5 712//5 685//5
f 700//5 699//5 685//5
f 711//5 700//5 685//5
f 701//5 713//5 685//5
f 702//5 701//5 685//5
f 712//5 702//5 685//5
f 703//5 714//5 685//5
f 704//5 703//5 685//5
f 713//5 704//5 685//5
f 703//408 715//408 714//408
f 714//409 715//409 716//409
f 714//36 716//36 686//36
f 716//410 715//410 148//410
f 717//411 716//411 148//411
f 686//35 716//35 717//35
f 156//412 717//412 148//412
f 705//33 717//33 156//33
f 686//35 717//35 705//35
f 715//413 718//413 148//413
f 703//408 718//408 715//408
f 718//414 719//414 148//414
f 704//415 719//415 718//415
f 704//416 718//416 703//416
f 719//417 720//417 148//417
f 713//418 720//418 719//418
f 713//418 719//418 704//418
f 701//419 720//419 713//419
f 720//420 721//420 148//420
f 701//419 721//419 720//419
f 702//421 721//421 701//421
f 721//422 722//422 148//422
f 702//423 722//423 721//423
f 722//424 723//424 148//424
f 712//425 723//425 722//425
f 712//425 722//425 702//425
f 699//426 723//426 712//426
f 723//427 724//427 24//427
f 699//428 724//428 723//428
f 148//429 723//429 24//429
f 700//430 724//430 699//430
f 724//431 725//431 24//431
f 700//432 725//432 724//432
f 726//433 24//433 725//433
f 711//434 726//434 725//434
f 711//435 725//435 700//435
f 727//436 726//436 711//436
f 727//437 24//437 726//437
f 727//438 711//438 697//438
f 728//439 727//439 697//439
f 728//440 24//440 727//440
f 729//441 24//441 728//441
f 729//442 728//442 698//442
f 728//443 697//443 698//443
f 729//442 698//442 710//442
f 730//444 729//444 710//444
f 730//445 24//445 729//445
f 730//40 710//40 695//40
f 731//43 730//43 695//43
f 731//446 24//446 730//446
f 731//447 732//447 19//447
f 732//45 731//45 696//45
f 731//43 695//43 696//43
f 24//448 731//448 19//448
f 732//45 696//45 709//45
f 733//449 732//449 709//449
f 732//450 733//450 19//450
f 733//451 709//451 693//451
f 734//452 733//452 693//452
f 734//453 19//453 733//453
f 735//454 19//454 734//454
f 735//455 734//455 694//455
f 734//456 693//456 694//456
f 19//457 735//457 736//457
f 736//458 735//458 708//458
f 735//459 694//459 708//459
f 736//460 737//460 19//460
f 737//461 736//461 691//461
f 736//462 708//462 691//462
f 737//463 738//463 19//463
f 738//464 737//464 692//464
f 737//465 691//465 692//465
f 738//466 681//466 19//466
f 681//467 738//467 684//467
f 738//468 692//468 684//468
f 161//469 682//469 707//469
f 689//470 161//470 707//470
f 687//471 158//471 706//471
f 706//472 158//472 159//472
f 706//472 159//472 690//472
f 705//33 156//33 688//33
f 159//473 689//473 690//473
f 689//470 160//470 161//470
f 159//473 160//473 689//473
f 688//474 156//474 157//474
f 688//474 157//474 687//474
f 687//475 157//475 158//475
f 142//3 739//3 155//3
f 155//476 741//476 152//476
f 739//82 740//82 155//82
f 155//477 740//477 741//477
f 744//83 741//83 742//83
f 742//286 741//286 740//286
f 152//381 741//381 743//381
f 744//83 743//83 741//83
f 148//12 745//12 744//12
f 744//12 742//12 148//12
f 745//86 743//86 744//86
f 148//12 747//12 745//12
f 747//89 746//89 745//89
f 745//86 746//86 743//86
f 148//12 24//12 747//12
f 24//24 749//24 747//24
f 749//90 748//90 747//90
f 747//89 748//89 746//89
f 24//23 751//23 749//23
f 751//94 750//94 749//94
f 749//90 750//90 748//90
f 24//24 753//24 751//24
f 754//97 752//97 751//97
f 751//94 752//94 750//94
f 754//97 751//97 753//97
f 755//103 754//103 753//103
f 754//102 20//102 22//102
f 752//100 754//100 22//100
f 754//104 755//104 20//104
f 755//103 753//103 756//103
f 757//392 755//392 756//392
f 755//106 23//106 20//106
f 755//394 757//394 23//394
f 757//392 756//392 758//392
f 759//108 757//108 758//108
f 757//393 21//393 23//393
f 757//478 759//478 21//478
f 759//108 758//108 760//108
f 761//65 759//65 760//65
f 759//479 762//479 21//479
f 759//390 761//390 762//390
f 762//3 4//3 21//3
f 763//3 4//3 762//3
f 761//480 763//480 762//480
f 764//3 4//3 763//3
f 765//68 764//68 763//68
f 761//481 765//481 763//481
f 765//482 768//482 766//482
f 767//67 765//67 766//67
f 765//482 761//482 768//482
f 765//387 767//387 764//387
f 768//12 760//12 25//12
f 766//12 768//12 25//12
f 761//65 760//65 768//65
f 767//67 766//67 769//67
f 770//115 767//115 769//115
f 767//386 771//386 764//386
f 767//76 770//76 771//76
f 764//3 771//3 7//3
f 771//3 739//3 7//3
f 771//483 770//483 772//483
f 771//287 772//287 739//287
f 774//78 772//78 773//78
f 773//77 772//77 770//77
f 739//484 772//484 740//484
f 774//78 740//78 772//78
f 773//23 141//23 774//23
f 774//215 141//215 742//215
f 742//286 740//286 774//286
f 141//12 773//12 143//12
f 773//219 775//219 143//219
f 773//77 770//77 775//77
f 143//12 775//12 25//12
f 775//10 769//10 25//10
f 770//115 769//115 775//115
f 769//219 766//219 25//219
f 7//3 4//3 764//3
f 17//12 25//12 760//12
f 758//12 17//12 760//12
f 758//24 756//24 17//24
f 756//11 753//11 17//11
f 753//12 24//12 17//12
f 777//99 752//99 776//99
f 752//98 22//98 776//98
f 777//95 750//95 752//95
f 19//3 153//3 777//3
f 19//3 777//3 776//3
f 153//96 750//96 777//96
f 19//3 776//3 22//3
f 153//91 748//91 750//91
f 151//92 748//92 153//92
f 151//485 746//485 748//485
f 150//399 746//399 151//399
f 150//87 743//87 746//87
f 152//486 743//486 150//486
f 141//12 148//12 742//12
f 7//3 739//3 142//3
f 143//119 7//119 142//119
f 143//136 8//136 7//136
f 8//136 143//136 109//136
f 109//12 143//12 25//12
f 89//3 5//3 142//3
f 142//3 8//3 778//3
f 142//3 5//3 8//3
f 108//8 142//8 778//8
f 108//279 778//279 8//279
f 109//12 25//12 6//12
f 108//279 8//279 109//279
f 109//278 5//278 8//278
f 99//487 57//487 100//487
f 100//488 56//488 779//488
f 779//489 26//489 100//489
f 100//407 57//407 56//407
f 779//406 73//406 780//406
f 780//490 26//490 779//490
f 779//406 56//406 73//406
f 780//491 59//491 781//491
f 781//492 26//492 780//492
f 780//491 73//491 59//491
f 781//493 58//493 782//493
f 782//494 26//494 781//494
f 781//495 59//495 58//495
f 782//496 74//496 783//496
f 26//497 782//497 783//497
f 782//498 58//498 74//498
f 783//499 61//499 784//499
f 783//500 784//500 26//500
f 783//501 74//501 61//501
f 784//502 60//502 785//502
f 784//503 785//503 26//503
f 784//502 61//502 60//502
f 785//474 60//474 75//474
f 785//504 75//504 46//504
f 46//505 26//505 785//505
f 99//506 98//506 54//506
f 99//507 54//507 72//507
f 99//464 72//464 57//464
f 97//508 54//508 98//508
f 97//459 96//459 71//459
f 97//459 71//459 55//459
f 97//509 55//509 54//509
f 96//510 84//510 52//510
f 96//511 52//511 71//511
f 84//512 53//512 52//512
f 80//513 32//513 786//513
f 80//514 786//514 68//514
f 786//515 32//515 787//515
f 786//516 787//516 69//516
f 786//516 69//516 68//516
f 787//517 32//517 788//517
f 787//518 788//518 78//518
f 787//519 78//519 69//519
f 788//520 66//520 78//520
f 788//521 32//521 789//521
f 788//435 789//435 66//435
f 789//522 67//522 66//522
f 789//523 32//523 790//523
f 789//524 790//524 67//524
f 790//525 32//525 38//525
f 790//526 38//526 77//526
f 790//526 77//526 67//526
f 38//527 64//527 77//527
f 41//528 76//528 40//528
f 39//529 40//529 76//529
f 39//530 76//530 65//530
f 41//528 62//528 76//528
f 46//33 75//33 47//33
f 37//531 65//531 64//531
f 37//532 39//532 65//532
f 38//527 37//527 64//527
f 42//533 63//533 62//533
f 43//534 49//534 63//534
f 43//535 63//535 42//535
f 42//533 62//533 41//533
f 44//536 49//536 43//536
f 4//5 6//5 25//5
