# Blender 5.0.1
# www.blender.org
mtllib torso_y_link_visual_31.mtl
o i01.torso.full.033_visual.001
v 0.157867 0.031329 -0.247407
v 0.238945 0.027161 -0.310786
v 0.158140 -0.046017 -0.242735
v 0.156018 0.030908 -0.253799
v 0.155882 0.031850 -0.239476
v 0.105535 0.037667 -0.151011
v 0.155197 -0.045401 -0.233367
v 0.150530 0.032175 -0.234532
v 0.148295 -0.045071 -0.228334
v 0.144359 0.032300 -0.232639
v 0.141981 -0.045032 -0.227753
v 0.134792 0.032120 -0.235372
v 0.073627 0.036733 -0.165224
v 0.135377 -0.045194 -0.230206
v 0.129627 -0.045702 -0.237945
v 0.129714 0.031570 -0.243749
v 0.129972 0.031107 -0.250772
v 0.164552 0.024552 -0.350464
v 0.131305 -0.046453 -0.249352
v 0.133951 0.030657 -0.257641
v 0.138835 -0.046842 -0.255278
v 0.142768 0.030426 -0.261145
v 0.147246 -0.046865 -0.255623
v 0.150949 0.030555 -0.259171
v 0.154053 -0.046595 -0.251513
v 0.083832 0.022946 -0.374899
v 0.164552 -0.070232 -0.344232
v 0.083832 -0.071838 -0.368667
v -0.000115 -0.072381 -0.376917
v -0.000115 -0.063236 -0.237841
v 0.057390 -0.062869 -0.232264
v 0.057269 -0.057329 -0.232029
v -0.000115 -0.057695 -0.237595
v 0.112684 -0.061783 -0.215743
v 0.112448 -0.056245 -0.215545
v 0.163644 -0.060019 -0.188917
v 0.238945 -0.067623 -0.304554
v 0.304151 0.030672 -0.257388
v 0.304151 -0.064112 -0.251156
v 0.229777 -0.064802 -0.261658
v 0.181804 -0.061353 -0.209207
v 0.274888 -0.055779 -0.124434
v 0.181804 0.033431 -0.215439
v 0.229777 0.029982 -0.267890
v 0.208310 -0.057645 -0.152816
v 0.207874 -0.052115 -0.152748
v 0.244967 -0.054753 -0.108827
v 0.163301 -0.054484 -0.188774
v 0.111406 -0.047958 -0.213397
v 0.161750 -0.046211 -0.186876
v 0.205871 -0.043865 -0.151195
v 0.109481 -0.041318 -0.209441
v 0.158994 -0.039604 -0.183377
v 0.155443 -0.034076 -0.177794
v 0.202392 -0.037298 -0.148299
v 0.107178 -0.035752 -0.203285
v 0.052856 -0.033663 -0.211640
v 0.103791 -0.032663 -0.196424
v 0.054785 -0.036787 -0.219018
v 0.055757 -0.042374 -0.225492
v -0.000115 -0.034001 -0.216779
v 0.000274 -0.037140 -0.224382
v -0.000115 -0.042730 -0.230910
v -0.053085 -0.033663 -0.211640
v -0.054240 -0.036796 -0.219169
v -0.055986 -0.042374 -0.225492
v -0.104021 -0.032663 -0.196424
v -0.106679 -0.035770 -0.203580
v -0.109710 -0.041318 -0.209441
v -0.150963 -0.031038 -0.171711
v -0.155023 -0.034104 -0.178219
v -0.159223 -0.039604 -0.183377
v -0.192108 -0.028851 -0.138454
v -0.197414 -0.031857 -0.144055
v -0.202621 -0.037298 -0.148299
v -0.225874 -0.026187 -0.097933
v -0.232222 -0.029119 -0.102404
v -0.238237 -0.034487 -0.105558
v -0.250965 -0.023147 -0.051701
v -0.258111 -0.025993 -0.054862
v -0.264702 -0.031281 -0.056795
v -0.266416 -0.019848 -0.001535
v -0.274086 -0.022600 -0.003261
v -0.280999 -0.027802 -0.003883
v -0.279532 -0.019071 0.050418
v -0.271634 -0.016418 0.050632
v -0.266035 -0.013247 0.090386
v -0.250965 -0.009689 0.152966
v -0.244542 -0.009569 0.146681
v -0.255415 -0.013145 0.100647
v -0.260417 -0.016433 0.050633
v -0.255815 -0.020887 -0.025636
v -0.274239 -0.015540 0.104112
v -0.280999 -0.020565 0.106169
v -0.286502 -0.024184 0.051143
v -0.258413 -0.012145 0.155756
v -0.264701 -0.017086 0.159079
v -0.225874 -0.006649 0.199198
v -0.232659 -0.009014 0.203368
v -0.238236 -0.013880 0.207843
v -0.192107 -0.003984 0.239719
v -0.197968 -0.006269 0.245119
v -0.202620 -0.011069 0.250585
v -0.150962 -0.001798 0.272975
v -0.155675 -0.004012 0.279395
v -0.159222 -0.008763 0.285660
v -0.104020 -0.000173 0.297687
v -0.107405 -0.002337 0.304896
v -0.109709 -0.007049 0.311723
v -0.053084 0.000828 0.312902
v -0.055011 -0.001303 0.320627
v -0.055985 -0.005994 0.327774
v -0.012380 0.001537 0.315219
v -0.000505 -0.000949 0.325990
v -0.000114 -0.005637 0.333195
v 0.052857 0.000828 0.312902
v 0.054012 -0.001293 0.320779
v 0.103792 -0.000173 0.297685
v 0.055757 -0.005994 0.327774
v 0.106451 -0.002318 0.305192
v 0.109482 -0.007049 0.311723
v 0.150734 -0.001797 0.272975
v 0.154790 -0.003984 0.279828
v 0.158994 -0.008763 0.285660
v 0.191879 -0.003984 0.239719
v 0.197188 -0.006233 0.245664
v 0.202392 -0.011069 0.250585
v 0.225646 -0.006649 0.199195
v 0.231996 -0.008972 0.204011
v 0.238008 -0.013880 0.207841
v 0.250737 -0.009689 0.152964
v 0.257884 -0.012098 0.156472
v 0.264473 -0.017086 0.159079
v 0.266188 -0.012987 0.102800
v 0.273858 -0.015491 0.104871
v 0.280770 -0.020565 0.106169
v 0.271405 -0.016418 0.050632
v 0.279304 -0.019021 0.051191
v 0.286273 -0.024184 0.051143
v 0.266188 -0.019848 -0.001538
v 0.274011 -0.022551 -0.002504
v 0.280770 -0.027802 -0.003883
v 0.250737 -0.023147 -0.051701
v 0.258185 -0.025947 -0.054148
v 0.264473 -0.031281 -0.056795
v 0.225645 -0.026187 -0.097933
v 0.232430 -0.029077 -0.101760
v 0.238008 -0.034487 -0.105558
v 0.191879 -0.028851 -0.138454
v 0.197743 -0.031821 -0.143506
v 0.150734 -0.031038 -0.171711
v 0.169249 -0.029255 -0.152892
v 0.077297 -0.032433 -0.201231
v 0.099499 -0.032007 -0.186216
v -0.026452 -0.033091 -0.211237
v 0.050668 -0.032966 -0.200806
v -0.000115 -0.033290 -0.205730
v -0.050897 -0.032966 -0.200806
v 0.000305 -0.035318 -0.198125
v -0.049007 -0.035006 -0.193432
v -0.047548 -0.041369 -0.184385
v -0.093316 -0.040470 -0.170747
v -0.096449 -0.034080 -0.179341
v -0.135501 -0.039013 -0.148571
v -0.099728 -0.032007 -0.186216
v -0.140180 -0.032573 -0.156410
v -0.172481 -0.037054 -0.118716
v -0.178536 -0.030543 -0.125511
v -0.144731 -0.030449 -0.162526
v -0.184176 -0.028353 -0.130645
v -0.126188 -0.031128 -0.181379
v -0.206732 -0.026842 -0.116200
v -0.240603 -0.022884 -0.047473
v -0.216548 -0.025799 -0.091795
v -0.210032 -0.028066 -0.087843
v -0.233461 -0.025239 -0.044847
v -0.225404 -0.031931 -0.040817
v -0.239312 -0.028969 0.004243
v -0.247923 -0.022170 0.001827
v -0.244030 -0.025887 0.051103
v -0.255415 -0.019722 0.000620
v -0.252862 -0.018978 0.050382
v -0.248090 -0.015783 0.098952
v -0.239373 -0.022805 0.097970
v -0.225520 -0.019842 0.143045
v -0.233882 -0.033020 0.097698
v -0.220321 -0.030126 0.141738
v -0.198302 -0.027452 0.182318
v -0.197459 -0.035608 0.182322
v -0.219392 -0.038266 0.141908
v -0.214584 -0.039879 0.117373
v -0.203765 -0.037970 0.146414
v -0.232898 -0.041149 0.098059
v -0.222330 -0.042115 0.083375
v -0.238458 -0.036033 0.051905
v -0.237459 -0.044148 0.052456
v -0.224106 -0.044998 0.039527
v -0.233875 -0.039045 0.006110
v -0.232899 -0.047146 0.006853
v -0.217273 -0.047849 -0.003835
v -0.220308 -0.041943 -0.037922
v -0.219392 -0.050030 -0.036999
v -0.202101 -0.050557 -0.045016
v -0.198279 -0.044611 -0.078506
v -0.197459 -0.052687 -0.077410
v -0.179161 -0.053020 -0.082467
v -0.168638 -0.046950 -0.114071
v -0.167943 -0.055016 -0.112834
v -0.132197 -0.056048 -0.128523
v -0.158591 -0.054546 -0.105682
v -0.132516 -0.048866 -0.143265
v -0.131976 -0.056928 -0.141904
v -0.105764 -0.057117 -0.144779
v -0.090942 -0.058348 -0.163503
v -0.091311 -0.050287 -0.164954
v -0.046595 -0.051173 -0.178308
v -0.000098 -0.051465 -0.182816
v 0.000037 -0.041674 -0.188970
v -0.046418 -0.059223 -0.176807
v -0.031098 -0.058728 -0.169285
v -0.073852 -0.058051 -0.158993
v -0.000115 -0.059518 -0.181298
v 0.034725 -0.058691 -0.168715
v -0.000115 -0.058853 -0.171185
v 0.046189 -0.059223 -0.176807
v 0.046398 -0.051171 -0.178303
v 0.093374 -0.040462 -0.170630
v 0.047619 -0.041364 -0.184327
v 0.091112 -0.050287 -0.164942
v 0.132317 -0.048864 -0.143245
v 0.135530 -0.039000 -0.148403
v 0.090713 -0.058348 -0.163506
v 0.077299 -0.057965 -0.157681
v 0.105535 -0.057117 -0.144779
v 0.131747 -0.056928 -0.141904
v 0.135099 -0.055895 -0.126205
v 0.167714 -0.055016 -0.112834
v 0.168433 -0.046947 -0.114049
v 0.202779 -0.034645 -0.082081
v 0.172469 -0.037038 -0.118505
v 0.198070 -0.044606 -0.078479
v 0.220093 -0.041938 -0.037891
v 0.225295 -0.031911 -0.040535
v 0.197230 -0.052687 -0.077410
v 0.193328 -0.051606 -0.060967
v 0.167432 -0.053939 -0.096450
v 0.219164 -0.050030 -0.036999
v 0.206946 -0.049775 -0.033130
v 0.217994 -0.047600 -0.000050
v 0.232670 -0.047146 0.006853
v 0.233653 -0.039042 0.006145
v 0.243802 -0.025866 0.051407
v 0.239146 -0.028947 0.004537
v 0.238230 -0.036030 0.051939
v 0.233646 -0.033020 0.097732
v 0.239085 -0.022785 0.098268
v 0.237230 -0.044148 0.052456
v 0.221530 -0.041861 0.087222
v 0.224069 -0.044742 0.043411
v 0.232670 -0.041149 0.098059
v 0.210473 -0.039068 0.129704
v 0.219164 -0.038266 0.141908
v 0.220080 -0.030123 0.141767
v 0.202612 -0.017089 0.184841
v 0.225177 -0.019820 0.143324
v 0.198052 -0.027458 0.182345
v 0.168407 -0.025112 0.217920
v 0.172253 -0.014700 0.221223
v 0.197231 -0.035608 0.182322
v 0.191318 -0.036470 0.169223
v 0.164812 -0.034167 0.204245
v 0.167714 -0.033279 0.217741
v 0.142066 -0.032780 0.225328
v 0.132289 -0.023195 0.247108
v 0.131748 -0.031368 0.246811
v 0.113547 -0.031455 0.245482
v 0.091083 -0.021773 0.268793
v 0.090714 -0.029947 0.268414
v 0.085653 -0.030562 0.259068
v 0.052491 -0.029837 0.270096
v 0.046284 -0.023534 0.281823
v 0.046190 -0.029073 0.281715
v 0.008936 -0.029438 0.276155
v -0.000114 -0.023238 0.286324
v -0.000114 -0.028777 0.286206
v -0.034973 -0.029605 0.273618
v -0.046632 -0.020882 0.282146
v -0.046417 -0.029073 0.281715
v -0.065173 -0.030076 0.266462
v -0.091342 -0.021765 0.268784
v -0.090942 -0.029947 0.268414
v -0.097804 -0.030895 0.254002
v -0.132543 -0.023197 0.247089
v -0.131976 -0.031368 0.246814
v -0.135328 -0.032400 0.231112
v -0.168663 -0.025113 0.217892
v -0.167942 -0.033279 0.217744
v -0.167664 -0.034357 0.201354
v -0.191547 0.058314 0.162991
v -0.165048 0.060616 0.198002
v -0.186463 -0.035978 0.176702
v -0.284965 0.067777 0.306895
v -0.132196 0.062536 0.227198
v -0.158488 0.067777 0.306895
v -0.094286 0.063998 0.249431
v -0.065173 0.064708 0.260231
v -0.175881 0.072381 0.376917
v -0.031112 0.065216 0.267957
v 0.012818 0.065333 0.269733
v 0.175668 0.072381 0.376917
v 0.056274 0.064885 0.262918
v 0.158556 0.067777 0.306895
v 0.097571 0.063889 0.247772
v 0.135112 0.062383 0.224872
v 0.285033 0.067777 0.306895
v 0.167431 0.060428 0.195128
v 0.193322 0.058095 0.159655
v 0.385486 0.061760 0.215389
v 0.211786 0.055475 0.119811
v 0.385486 0.053461 0.089185
v 0.222101 0.052669 0.077143
v 0.223877 0.049786 0.033295
v 0.421914 0.045128 -0.037544
v 0.217047 0.046936 -0.010056
v 0.397427 0.039832 -0.118093
v 0.201866 0.044226 -0.051261
v 0.274888 0.039005 -0.130667
v 0.357664 0.034951 -0.192323
v 0.186235 0.042466 -0.078024
v 0.164813 0.040655 -0.105565
v 0.131969 0.038736 -0.134755
v 0.322861 0.035556 -0.183117
v 0.357664 -0.059833 -0.186090
v 0.322861 -0.059228 -0.176885
v 0.397427 -0.054952 -0.111860
v 0.272206 -0.051452 -0.058636
v 0.421914 -0.049656 -0.031312
v 0.288979 -0.047872 -0.004179
v 0.294643 -0.044148 0.052456
v 0.455657 0.054584 0.106261
v 0.455657 -0.040200 0.112494
v 0.385486 -0.041322 0.095419
v 0.416448 -0.040200 0.112494
v 0.416448 0.054584 0.106261
v 0.272206 -0.036843 0.163547
v 0.288979 -0.040424 0.109088
v 0.385486 -0.033024 0.221622
v 0.244967 -0.033543 0.213735
v 0.285032 -0.027007 0.313128
v 0.455657 -0.034165 0.204268
v 0.416448 0.060619 0.198036
v 0.416448 -0.034165 0.204268
v 0.456057 -0.022403 0.383146
v 0.267641 0.072381 0.376914
v 0.267641 -0.022403 0.383146
v 0.456057 0.072381 0.376914
v 0.455657 0.060619 0.198036
v 0.267641 0.069808 0.337790
v 0.267641 -0.024976 0.344023
v 0.208311 -0.030650 0.257724
v 0.158554 -0.027007 0.313128
v 0.163644 -0.028276 0.293827
v 0.112685 -0.026512 0.320653
v 0.175668 -0.024976 0.344023
v 0.175668 0.069808 0.337790
v 0.175668 -0.022403 0.383146
v -0.000114 -0.025059 0.342751
v 0.057390 -0.025426 0.337173
v -0.175880 -0.022403 0.383149
v -0.057618 -0.025426 0.337173
v -0.112912 -0.026512 0.320653
v -0.175880 -0.024976 0.344023
v -0.158489 -0.027007 0.313128
v -0.175881 0.069808 0.337790
v -0.163872 -0.028276 0.293827
v -0.284967 -0.027007 0.313128
v -0.245196 -0.033543 0.213735
v -0.208539 -0.030650 0.257726
v -0.385886 -0.033024 0.221622
v -0.267853 -0.022403 0.383149
v -0.267853 -0.024976 0.344023
v -0.267853 0.069808 0.337790
v -0.456041 -0.022403 0.383149
v -0.456057 0.060619 0.198036
v -0.456057 -0.034165 0.204268
v -0.456041 0.072381 0.376917
v -0.385886 0.061760 0.215389
v -0.267853 0.072381 0.376917
v -0.210700 0.055716 0.123474
v -0.416847 0.060619 0.198036
v -0.416847 -0.034165 0.204268
v -0.385886 0.053461 0.089187
v -0.224297 0.050041 0.037180
v -0.221758 0.052922 0.080990
v -0.422142 0.045128 -0.037544
v -0.416848 0.054584 0.106261
v -0.385886 -0.041323 0.095417
v -0.422142 -0.049656 -0.031312
v -0.272434 -0.036843 0.163547
v -0.294871 -0.044148 0.052456
v -0.289208 -0.040424 0.109090
v -0.416848 -0.040200 0.112494
v -0.456057 0.054584 0.106261
v -0.456057 -0.040200 0.112494
v -0.288603 -0.034930 0.108609
v -0.271864 -0.031356 0.162953
v -0.242302 -0.020053 0.210836
v -0.269201 -0.023317 0.161244
v -0.244683 -0.028063 0.213036
v -0.208102 -0.025177 0.256933
v -0.206097 -0.017197 0.254312
v -0.161979 -0.014849 0.289988
v -0.111633 -0.013103 0.316509
v -0.163529 -0.022808 0.292961
v -0.112676 -0.021048 0.319729
v -0.057497 -0.019964 0.336214
v -0.057011 -0.012029 0.332843
v -0.000191 -0.011671 0.338375
v -0.000114 -0.019598 0.341781
v 0.056614 -0.012023 0.332875
v 0.057270 -0.019964 0.336214
v 0.111251 -0.013096 0.316570
v 0.112449 -0.021048 0.319729
v 0.161614 -0.014847 0.290082
v 0.163301 -0.022808 0.292958
v 0.205753 -0.017190 0.254427
v 0.207874 -0.025177 0.256933
v 0.241983 -0.020047 0.210972
v 0.244455 -0.028063 0.213036
v 0.268910 -0.023308 0.161395
v 0.271636 -0.031357 0.162951
v 0.285499 -0.026848 0.107594
v 0.288374 -0.034930 0.108609
v 0.291111 -0.030527 0.051641
v 0.294026 -0.038646 0.052094
v 0.285531 -0.034208 -0.004317
v 0.288374 -0.042362 -0.004421
v 0.268975 -0.037747 -0.058125
v 0.271636 -0.045936 -0.058764
v 0.242077 -0.041010 -0.107723
v 0.244454 -0.049229 -0.108849
v -0.285759 -0.026858 0.107436
v -0.294255 -0.038646 0.052094
v -0.291339 -0.030538 0.051479
v -0.285728 -0.034219 -0.004475
v -0.288603 -0.042362 -0.004421
v -0.289208 -0.047872 -0.004179
v -0.272435 -0.051453 -0.058636
v -0.271865 -0.045935 -0.058764
v -0.244683 -0.049229 -0.108849
v -0.245196 -0.054753 -0.108824
v -0.269140 -0.037756 -0.058273
v -0.242211 -0.041013 -0.107856
v -0.205982 -0.043870 -0.151308
v -0.208103 -0.052116 -0.152748
v -0.163530 -0.054484 -0.188774
v -0.208539 -0.057645 -0.152816
v -0.163873 -0.060019 -0.188917
v -0.112913 -0.061783 -0.215743
v -0.239174 -0.067623 -0.304554
v -0.188543 -0.061770 -0.215552
v -0.273498 0.039121 -0.128901
v -0.188543 0.033013 -0.221785
v -0.273498 -0.055663 -0.122669
v -0.241107 -0.064918 -0.263423
v -0.304380 -0.064112 -0.251156
v -0.326062 -0.058811 -0.170539
v -0.241107 0.029866 -0.269655
v -0.239175 0.027161 -0.310786
v -0.304380 0.030672 -0.257388
v -0.326062 0.035973 -0.176771
v -0.357893 0.034950 -0.192325
v -0.397656 -0.054952 -0.111858
v -0.397656 0.039832 -0.118090
v -0.357893 -0.059833 -0.186092
v -0.203765 0.044458 -0.047736
v -0.218221 0.047183 -0.006293
v -0.181483 0.041970 -0.085574
v -0.158591 0.040238 -0.111915
v -0.135329 0.038888 -0.132438
v -0.105764 0.037667 -0.151011
v -0.150301 0.032120 -0.235372
v -0.140735 0.032300 -0.232639
v -0.134563 0.032175 -0.234532
v -0.077523 0.036819 -0.163915
v -0.127226 0.031329 -0.247407
v -0.129075 0.030908 -0.253799
v -0.129211 0.031850 -0.239475
v -0.164782 0.024552 -0.350464
v -0.084061 0.022946 -0.374899
v -0.034955 0.036093 -0.174947
v -0.000115 0.022403 -0.383149
v -0.000115 0.035931 -0.177417
v 0.030872 0.036056 -0.175517
v -0.084061 -0.071838 -0.368667
v -0.164782 -0.070232 -0.344232
v -0.057619 -0.062869 -0.232264
v -0.112677 -0.056245 -0.215545
v -0.057499 -0.057329 -0.232029
v -0.056851 -0.049027 -0.229760
v -0.111490 -0.047962 -0.213456
v -0.161842 -0.046217 -0.186966
v -0.000029 -0.049384 -0.235254
v 0.056781 -0.049024 -0.229730
v -0.134141 0.030555 -0.259169
v -0.142322 0.030425 -0.261146
v -0.151139 0.030656 -0.257645
v -0.155122 0.031107 -0.250772
v -0.153788 -0.046453 -0.249353
v -0.146257 -0.046843 -0.255278
v -0.137851 -0.046865 -0.255622
v -0.136798 -0.045071 -0.228334
v -0.131041 -0.046596 -0.251513
v -0.126954 -0.046017 -0.242735
v -0.129898 -0.045402 -0.233366
v -0.155466 -0.045702 -0.237945
v -0.149716 -0.045195 -0.230206
v -0.143113 -0.045033 -0.227753
v -0.155380 0.031570 -0.243749
v -0.203011 -0.017106 0.184590
v -0.172703 -0.014707 0.221013
v -0.210503 -0.009878 0.188748
v -0.179137 -0.007393 0.226521
v -0.135757 -0.012742 0.250912
v -0.140889 -0.005354 0.257541
v -0.093600 -0.011284 0.273135
v -0.097227 -0.003838 0.280615
v -0.047852 -0.010375 0.286840
v -0.000146 -0.015328 0.288456
v -0.049838 -0.002899 0.294862
v -0.000114 -0.008307 0.293047
v -0.000542 -0.002578 0.299728
v 0.047804 -0.008612 0.288399
v 0.046779 -0.015627 0.283910
v 0.093090 -0.011276 0.273251
v 0.135269 -0.012732 0.251082
v 0.048780 -0.002889 0.295023
v 0.096219 -0.003818 0.280932
v 0.047871 0.000871 0.305447
v 0.099499 -0.000859 0.287479
v 0.139955 -0.005325 0.258003
v 0.144502 -0.002417 0.263789
v 0.178306 -0.007355 0.227113
v 0.209805 -0.009834 0.189439
v 0.183948 -0.004513 0.231908
v 0.216320 -0.007068 0.193059
v 0.206500 -0.004907 0.217396
v 0.125967 -0.000621 0.282566
v 0.240374 -0.009982 0.148737
v 0.255585 -0.010862 0.126829
v 0.255187 -0.013144 0.100647
v 0.265742 -0.017580 0.024655
v 0.260188 -0.016433 0.050633
v 0.255187 -0.019722 0.000620
v 0.252633 -0.018923 0.051216
v 0.247859 -0.022117 0.002645
v 0.233556 -0.025189 -0.044076
v 0.210276 -0.028020 -0.087151
v 0.240374 -0.022884 -0.047473
v 0.216319 -0.025798 -0.091795
v 0.235425 -0.024039 -0.073570
v 0.183947 -0.028353 -0.130645
v 0.144502 -0.030449 -0.162526
v 0.140661 -0.032543 -0.155943
v 0.178905 -0.030505 -0.124923
v 0.097002 -0.034059 -0.179023
v 0.049609 -0.034996 -0.193267
v 0.247695 -0.015730 0.099771
v 0.233234 -0.012661 0.146442
v -0.000114 0.000424 0.306995
v -0.050896 0.000100 0.302069
v -0.099727 -0.000859 0.287479
v -0.125922 -0.000612 0.282712
v -0.206533 -0.004891 0.217631
v -0.144730 -0.002417 0.263791
v -0.184176 -0.004513 0.231908
v -0.216548 -0.007068 0.193059
v -0.233787 -0.012711 0.145671
v -0.202836 -0.034663 -0.082331
vn -0.0000 0.9978 -0.0657
vn 0.0001 0.9979 -0.0655
vn -0.9702 -0.0180 -0.2416
vn -0.9608 0.0133 0.2770
vn -0.0000 0.9978 -0.0656
vn 0.0001 0.9978 -0.0656
vn -0.6793 -0.0519 -0.7320
vn -0.9542 -0.0152 -0.2988
vn -0.5900 -0.0476 -0.8060
vn -0.2939 -0.0680 -0.9534
vn 0.2752 -0.0691 -0.9589
vn -0.0919 -0.0600 -0.9940
vn 0.3490 -0.0598 -0.9352
vn 0.8033 -0.0336 -0.5947
vn 0.8556 -0.0397 -0.5161
vn -0.0001 0.9978 -0.0657
vn 0.9993 0.0016 0.0366
vn -0.0006 0.9978 -0.0658
vn 0.8657 0.0240 0.5000
vn 0.9893 0.0196 0.1442
vn 0.3700 0.0516 0.9276
vn 0.6192 0.0629 0.7827
vn -0.2349 0.0557 0.9704
vn 0.0411 0.0736 0.9964
vn -0.5176 0.0639 0.8532
vn -0.7280 0.0386 0.6845
vn 0.0001 0.9978 -0.0657
vn -0.9069 0.0354 0.4199
vn -0.0002 0.9978 -0.0658
vn -0.0001 0.9978 -0.0656
vn 0.4714 -0.0579 -0.8800
vn 0.2903 -0.0628 -0.9549
vn 0.0980 -0.0653 -0.9930
vn -0.0000 -0.9978 0.0656
vn -0.2851 -0.0467 0.9574
vn -0.0962 -0.0442 0.9944
vn -0.2851 -0.0464 0.9574
vn -0.4638 -0.0514 0.8844
vn 0.6344 -0.0507 -0.7713
vn 0.6741 -0.0485 -0.7370
vn 0.7386 0.0442 0.6727
vn -0.7642 -0.0681 0.6413
vn -0.6256 -0.0589 0.7779
vn -0.6256 -0.0588 0.7779
vn -0.4638 -0.0516 0.8844
vn -0.4401 -0.2767 0.8542
vn -0.4401 -0.2783 0.8537
vn -0.5935 -0.2840 0.7530
vn -0.5934 -0.2858 0.7525
vn -0.3735 -0.5523 0.7453
vn -0.5032 -0.5590 0.6590
vn -0.3737 -0.5511 0.7461
vn -0.2809 -0.7618 0.5837
vn -0.3784 -0.7668 0.5186
vn -0.2797 -0.7652 0.5798
vn -0.5036 -0.5577 0.6598
vn -0.1724 -0.7619 0.6244
vn -0.0925 -0.9242 0.3705
vn -0.0921 -0.9254 0.3677
vn -0.1493 -0.9271 0.3437
vn -0.1729 -0.7584 0.6284
vn -0.0588 -0.7602 0.6471
vn -0.0312 -0.9233 0.3828
vn -0.0314 -0.9245 0.3800
vn -0.0583 -0.7565 0.6513
vn 0.0571 -0.7600 0.6474
vn 0.0312 -0.9233 0.3827
vn 0.0305 -0.9245 0.3801
vn 0.0583 -0.7566 0.6512
vn 0.1708 -0.7619 0.6248
vn 0.0925 -0.9242 0.3704
vn 0.0913 -0.9254 0.3679
vn 0.1729 -0.7584 0.6285
vn 0.2782 -0.7653 0.5805
vn 0.1503 -0.9260 0.3463
vn 0.1485 -0.9271 0.3441
vn 0.2809 -0.7618 0.5837
vn 0.3750 -0.7701 0.5160
vn 0.2022 -0.9286 0.3113
vn 0.2001 -0.9296 0.3094
vn 0.3784 -0.7667 0.5186
vn 0.4577 -0.7762 0.4335
vn 0.2464 -0.9318 0.2666
vn 0.2441 -0.9328 0.2653
vn 0.5228 -0.7834 0.3362
vn 0.4615 -0.7730 0.4354
vn 0.2813 -0.9354 0.2142
vn 0.2786 -0.9364 0.2133
vn 0.5270 -0.7801 0.3373
vn 0.5678 -0.7910 0.2278
vn 0.3053 -0.9394 0.1558
vn 0.3025 -0.9404 0.1555
vn 0.5722 -0.7878 0.2280
vn 0.5909 -0.7988 0.1125
vn 0.3148 -0.9445 0.0940
vn 0.3175 -0.9436 0.0938
vn 0.0579 -0.9958 0.0713
vn 0.3176 -0.9477 0.0309
vn 0.0600 -0.9973 0.0423
vn 0.2580 -0.9661 -0.0072
vn 0.0643 -0.9954 0.0712
vn -0.0840 -0.9917 0.0969
vn -0.0594 -0.9957 0.0714
vn -0.2591 -0.9650 0.0407
vn 0.3170 -0.9479 0.0311
vn 0.5953 -0.8035 -0.0067
vn 0.5683 -0.8139 -0.1207
vn 0.5911 -0.8066 -0.0052
vn 0.3028 -0.9526 -0.0302
vn 0.5722 -0.8108 -0.1229
vn 0.5236 -0.8205 -0.2293
vn 0.2814 -0.9554 -0.0899
vn 0.2792 -0.9562 -0.0881
vn 0.5270 -0.8175 -0.2322
vn 0.4587 -0.8263 -0.3268
vn 0.2466 -0.9586 -0.1425
vn 0.2447 -0.9594 -0.1402
vn 0.4615 -0.8233 -0.3304
vn 0.3763 -0.8310 -0.4096
vn 0.2023 -0.9613 -0.1871
vn 0.2008 -0.9621 -0.1845
vn 0.2797 -0.8346 -0.4745
vn 0.3784 -0.8281 -0.4137
vn 0.1502 -0.9634 -0.2221
vn 0.1494 -0.9641 -0.2194
vn 0.2810 -0.8316 -0.4791
vn 0.1725 -0.8369 -0.5194
vn 0.0925 -0.9648 -0.2463
vn 0.0921 -0.9656 -0.2433
vn 0.1729 -0.8341 -0.5239
vn 0.0588 -0.8382 -0.5422
vn 0.0315 -0.9655 -0.2584
vn 0.0316 -0.9657 -0.2578
vn 0.0584 -0.8353 -0.5467
vn -0.0571 -0.8382 -0.5423
vn -0.0179 -0.9784 -0.2060
vn -0.0305 -0.9663 -0.2557
vn -0.0584 -0.8353 -0.5468
vn -0.0925 -0.9648 -0.2462
vn -0.0913 -0.9656 -0.2436
vn -0.1709 -0.8370 -0.5198
vn -0.2783 -0.8346 -0.4755
vn -0.1729 -0.8340 -0.5240
vn -0.1502 -0.9634 -0.2221
vn -0.1485 -0.9642 -0.2197
vn -0.2809 -0.8317 -0.4790
vn -0.3750 -0.8311 -0.4107
vn -0.2023 -0.9613 -0.1870
vn -0.2002 -0.9621 -0.1851
vn -0.4577 -0.8264 -0.3281
vn -0.3784 -0.8281 -0.4137
vn -0.2466 -0.9586 -0.1424
vn -0.2441 -0.9595 -0.1409
vn -0.5229 -0.8206 -0.2308
vn -0.4616 -0.8233 -0.3305
vn -0.2813 -0.9554 -0.0899
vn -0.2787 -0.9563 -0.0889
vn -0.5270 -0.8175 -0.2323
vn -0.5679 -0.8140 -0.1223
vn -0.3053 -0.9517 -0.0315
vn -0.3025 -0.9526 -0.0310
vn -0.5722 -0.8108 -0.1229
vn -0.5909 -0.8067 -0.0069
vn -0.3176 -0.9477 0.0306
vn -0.3148 -0.9487 0.0304
vn -0.5953 -0.8035 -0.0067
vn -0.5911 -0.7989 0.1108
vn -0.3176 -0.9436 0.0938
vn -0.3148 -0.9446 0.0931
vn -0.5684 -0.7911 0.2262
vn -0.5953 -0.7957 0.1119
vn -0.3053 -0.9394 0.1558
vn -0.3028 -0.9404 0.1546
vn -0.5722 -0.7877 0.2280
vn -0.5236 -0.7834 0.3348
vn -0.2813 -0.9354 0.2142
vn -0.2791 -0.9365 0.2125
vn -0.5270 -0.7801 0.3373
vn -0.4587 -0.7764 0.4322
vn -0.2465 -0.9317 0.2667
vn -0.2446 -0.9328 0.2646
vn -0.4615 -0.7729 0.4354
vn -0.3764 -0.7702 0.5149
vn -0.2022 -0.9286 0.3113
vn -0.2008 -0.9296 0.3089
vn -0.0313 -0.9917 0.1247
vn -0.1113 -0.9731 0.2017
vn -0.0311 -0.9917 0.1244
vn -0.1502 -0.9260 0.3463
vn 0.0874 -0.9910 -0.1011
vn 0.0200 -0.9998 -0.0012
vn 0.0181 -0.9923 -0.1224
vn -0.0065 -0.9912 0.1323
vn 0.0180 -0.9926 -0.1198
vn -0.0509 -0.9709 0.2342
vn 0.0313 -0.9653 -0.2591
vn -0.0313 -0.9654 -0.2590
vn -0.0067 -1.0000 -0.0038
vn -0.0305 -0.9662 -0.2559
vn -0.1789 -0.8181 -0.5465
vn -0.0592 -0.8210 -0.5679
vn -0.1777 -0.8196 -0.5446
vn -0.0912 -0.9656 -0.2437
vn -0.2911 -0.8155 -0.5002
vn -0.2895 -0.8171 -0.4985
vn -0.0926 -0.9647 -0.2467
vn -0.1485 -0.9642 -0.2199
vn -0.3923 -0.8117 -0.4327
vn -0.3905 -0.8133 -0.4313
vn -0.2001 -0.9621 -0.1852
vn -0.1505 -0.9632 -0.2225
vn -0.0325 -0.9995 0.0041
vn -0.2026 -0.9611 -0.1875
vn -0.1161 -0.9901 -0.0785
vn -0.1179 -0.9897 -0.0807
vn 0.0422 -0.9922 0.1174
vn -0.0540 -0.9919 -0.1151
vn 0.0827 -0.9718 0.2209
vn 0.0192 -0.9914 0.1294
vn 0.0193 -0.9914 0.1297
vn -0.1638 -0.9862 -0.0239
vn 0.0586 -0.9935 0.0971
vn 0.0419 -0.9922 0.1171
vn 0.1356 -0.9748 0.1771
vn -0.1614 -0.9866 -0.0227
vn -0.0532 -0.9984 0.0213
vn -0.2819 -0.9552 -0.0902
vn -0.2469 -0.9585 -0.1427
vn -0.2787 -0.9562 -0.0890
vn -0.5445 -0.8025 -0.2439
vn -0.5938 -0.7939 -0.1311
vn -0.5915 -0.7956 -0.1310
vn -0.3027 -0.9526 -0.0312
vn -0.6178 -0.7862 -0.0105
vn -0.6156 -0.7880 -0.0108
vn -0.3059 -0.9515 -0.0316
vn -0.3149 -0.9486 0.0303
vn -0.6179 -0.7782 0.1126
vn -0.6157 -0.7800 0.1118
vn -0.3150 -0.9445 0.0931
vn -0.3181 -0.9476 0.0305
vn -0.5940 -0.7700 0.2332
vn -0.8393 -0.4610 0.2882
vn -0.8734 -0.4726 0.1179
vn -0.8400 -0.4592 0.2889
vn -0.8729 -0.0900 0.4796
vn -0.7731 -0.4480 0.4490
vn -0.9488 -0.1020 0.2989
vn -0.8729 -0.0896 0.4796
vn -0.9488 -0.1016 0.2989
vn -0.9877 -0.1144 0.1063
vn -0.9877 -0.1148 0.1062
vn -0.9877 -0.1277 -0.0904
vn -0.9877 -0.1273 -0.0904
vn -0.9489 -0.1398 -0.2831
vn -0.9488 -0.1403 -0.2831
vn -0.8729 -0.1516 -0.4638
vn -0.8728 -0.1518 -0.4638
vn -0.7632 -0.1623 -0.6254
vn -0.7633 -0.1617 -0.6254
vn -0.6248 -0.1707 -0.7619
vn -0.6249 -0.1704 -0.7619
vn -0.4632 -0.1776 -0.8683
vn -0.2527 -0.5274 -0.8112
vn -0.2518 -0.5294 -0.8101
vn -0.4108 -0.5241 -0.7461
vn -0.2847 -0.1825 -0.9411
vn -0.0960 -0.1845 -0.9781
vn -0.0851 -0.5294 -0.8441
vn -0.0846 -0.5309 -0.8432
vn -0.2848 -0.1818 -0.9412
vn -0.0960 -0.1841 -0.9782
vn 0.0961 -0.1845 -0.9781
vn 0.0960 -0.1842 -0.9782
vn 0.2528 -0.5276 -0.8110
vn 0.2529 -0.5291 -0.8100
vn 0.0853 -0.5292 -0.8442
vn 0.2848 -0.1822 -0.9411
vn 0.4633 -0.1776 -0.8682
vn 0.4109 -0.5240 -0.7460
vn 0.4109 -0.5257 -0.7448
vn 0.2848 -0.1818 -0.9412
vn 0.4633 -0.1771 -0.8683
vn 0.6249 -0.1709 -0.7618
vn 0.6249 -0.1704 -0.7619
vn 0.6765 -0.5114 -0.5300
vn 0.6760 -0.5132 -0.5288
vn 0.5540 -0.5186 -0.6513
vn 0.7633 -0.1622 -0.6253
vn 0.8729 -0.1521 -0.4636
vn 0.7731 -0.5029 -0.3864
vn 0.7726 -0.5045 -0.3855
vn 0.7633 -0.1621 -0.6254
vn 0.8729 -0.1514 -0.4638
vn 0.9488 -0.1402 -0.2830
vn 0.9488 -0.1399 -0.2830
vn 0.8743 -0.4822 -0.0557
vn 0.8734 -0.4840 -0.0549
vn 0.8400 -0.4931 -0.2262
vn 0.9877 -0.1277 -0.0903
vn 0.9877 -0.1148 0.1064
vn 0.8743 -0.4708 0.1185
vn 0.8733 -0.4725 0.1190
vn 0.9877 -0.1273 -0.0904
vn 0.9877 -0.1144 0.1063
vn 0.9488 -0.1019 0.2990
vn 0.9488 -0.1016 0.2989
vn 0.7730 -0.4481 0.4491
vn 0.7720 -0.4498 0.4492
vn 0.8400 -0.4592 0.2890
vn 0.8728 -0.0899 0.4797
vn 0.7633 -0.0788 0.6412
vn 0.6763 -0.4377 0.5924
vn 0.6752 -0.4396 0.5923
vn 0.8729 -0.0894 0.4796
vn 0.7633 -0.0788 0.6413
vn 0.6248 -0.0696 0.7776
vn 0.6247 -0.0701 0.7777
vn 0.4633 -0.0620 0.8840
vn 0.4631 -0.0628 0.8841
vn 0.2809 -0.0572 0.9580
vn 0.2858 -0.0235 0.9580
vn 0.0964 -0.0210 0.9951
vn 0.0964 -0.0211 0.9951
vn -0.0960 -0.0548 0.9939
vn -0.0905 -0.0211 0.9957
vn -0.2848 -0.0572 0.9569
vn -0.2848 -0.0578 0.9568
vn -0.4633 -0.0626 0.8840
vn -0.4632 -0.0620 0.8841
vn -0.6249 -0.0693 0.7777
vn -0.6249 -0.0696 0.7776
vn -0.7633 -0.0786 0.6412
vn -0.7633 -0.0790 0.6412
vn 0.7980 -0.0432 -0.6011
vn 0.7958 -0.0449 -0.6039
vn 0.6780 -0.0446 -0.7337
vn 0.8688 -0.0251 -0.4946
vn 0.6651 -0.0527 -0.7449
vn 0.5216 -0.0523 -0.8516
vn 0.5067 -0.0602 -0.8600
vn 0.3574 -0.0582 -0.9321
vn 0.3485 -0.0615 -0.9353
vn 0.2217 -0.0671 -0.9728
vn 0.2310 -0.0638 -0.9709
vn 0.0405 -0.0692 -0.9968
vn 0.0578 -0.0618 -0.9964
vn -0.1381 -0.0613 -0.9885
vn -0.1553 -0.0685 -0.9855
vn -0.3162 -0.0591 -0.9469
vn -0.3450 -0.0684 -0.9361
vn -0.5215 -0.0670 -0.8506
vn -0.4386 -0.0520 -0.8972
vn -0.6806 -0.0532 -0.7307
vn -0.5779 -0.0461 -0.8148
vn -0.6780 -0.0519 -0.7333
vn -0.8083 -0.0423 -0.5872
vn -0.7980 -0.0359 -0.6016
vn -0.9002 -0.0249 -0.4347
vn -0.9077 -0.0312 -0.4186
vn -0.9721 -0.0190 -0.2338
vn -0.9679 -0.0128 -0.2511
vn -0.9983 -0.0001 -0.0578
vn -0.9992 -0.0063 -0.0401
vn -0.9904 0.0127 0.1376
vn -0.9879 0.0065 0.1552
vn -0.9487 0.0239 0.3153
vn -0.9386 0.0158 0.3447
vn -0.8640 0.0260 0.5029
vn -0.8986 0.0358 0.4372
vn -0.8083 0.0455 0.5870
vn -0.7900 0.0371 0.6120
vn -0.6780 0.0519 0.7333
vn -0.6651 0.0453 0.7454
vn -0.5246 0.0558 0.8495
vn -0.5328 0.0586 0.8442
vn 0.7730 -0.0416 -0.6330
vn 0.8819 -0.0309 -0.4704
vn 0.9569 -0.0190 -0.2897
vn 0.9737 -0.0150 -0.2275
vn -0.0000 0.0656 0.9978
vn -0.4838 0.0574 0.8733
vn -0.4837 0.0574 0.8733
vn 1.0000 -0.0000 -0.0000
vn -0.4897 -0.0572 -0.8700
vn 1.0000 -0.0001 -0.0022
vn -0.0000 -0.0656 -0.9978
vn -1.0000 -0.0000 -0.0000
vn -0.8719 -0.0321 -0.4887
vn 0.8752 -0.0317 -0.4827
vn 0.8752 -0.0318 -0.4827
vn -1.0000 -0.0000 0.0001
vn 0.4897 -0.0572 -0.8700
vn 0.4837 0.0574 0.8733
vn 0.4838 0.0574 0.8733
vn -0.9734 -0.0150 -0.2286
vn 0.9889 -0.1169 -0.0912
vn 0.9500 -0.1295 -0.2841
vn 0.9500 -0.1294 -0.2841
vn 0.8283 -0.3648 -0.4253
vn 0.8287 -0.3632 -0.4259
vn 0.9006 -0.3524 -0.2542
vn 0.8740 -0.1411 -0.4651
vn 0.8740 -0.1411 -0.4650
vn 0.7245 -0.3742 -0.5788
vn 0.7248 -0.3725 -0.5795
vn 0.7642 -0.1515 -0.6269
vn 0.5933 -0.3819 -0.7086
vn 0.6141 -0.6342 -0.4698
vn 0.5032 -0.6405 -0.5801
vn 0.5037 -0.6392 -0.5811
vn 0.3734 -0.6455 -0.6663
vn 0.4400 -0.3882 -0.8097
vn 0.5935 -0.3805 -0.7092
vn 0.3737 -0.6440 -0.6675
vn 0.6256 -0.1601 -0.7635
vn 0.4638 -0.1668 -0.8701
vn 0.4401 -0.3863 -0.8106
vn 0.6256 -0.1604 -0.7635
vn 0.2706 -0.3919 -0.8793
vn 0.4638 -0.1672 -0.8700
vn 0.2851 -0.1718 -0.9430
vn 0.2706 -0.3904 -0.8800
vn 0.0915 -0.3941 -0.9145
vn 0.2298 -0.6486 -0.7257
vn 0.0777 -0.6500 -0.7559
vn 0.0776 -0.6489 -0.7569
vn 0.0913 -0.3923 -0.9153
vn -0.0910 -0.3938 -0.9147
vn -0.0772 -0.6503 -0.7557
vn -0.0776 -0.6489 -0.7569
vn -0.0913 -0.3924 -0.9153
vn -0.2701 -0.3921 -0.8794
vn -0.2293 -0.6488 -0.7256
vn -0.2298 -0.6474 -0.7267
vn -0.2706 -0.3903 -0.8800
vn -0.4396 -0.3880 -0.8101
vn -0.3731 -0.6452 -0.6667
vn -0.3736 -0.6443 -0.6673
vn -0.4401 -0.3862 -0.8107
vn -0.5930 -0.3818 -0.7089
vn -0.5029 -0.6405 -0.5804
vn -0.5036 -0.6393 -0.5811
vn -0.5935 -0.3803 -0.7093
vn -0.7242 -0.3742 -0.5792
vn -0.6138 -0.6343 -0.4700
vn -0.6148 -0.6329 -0.4706
vn -0.7248 -0.3726 -0.5795
vn -0.8280 -0.3648 -0.4257
vn -0.7014 -0.6266 -0.3397
vn -0.7023 -0.6254 -0.3401
vn -0.9000 -0.3540 -0.2542
vn -0.8287 -0.3631 -0.4259
vn -0.7621 -0.6177 -0.1943
vn -0.7630 -0.6165 -0.1945
vn -0.9369 -0.3423 -0.0715
vn -0.9007 -0.3524 -0.2542
vn -0.7930 -0.6079 -0.0396
vn -0.7940 -0.6066 -0.0395
vn -0.9369 -0.3300 0.1151
vn -0.9375 -0.3406 -0.0714
vn -0.7931 -0.5975 0.1184
vn -0.7940 -0.5962 0.1186
vn -0.9375 -0.3283 0.1153
vn -0.9002 -0.3176 0.2979
vn -0.7622 -0.5868 0.2731
vn -0.7630 -0.5856 0.2735
vn -0.8284 -0.3058 0.4693
vn -0.9007 -0.3160 0.2982
vn -0.7017 -0.5767 0.4185
vn -0.7025 -0.5752 0.4191
vn -0.7246 -0.2949 0.6229
vn -0.8288 -0.3040 0.4698
vn -0.6141 -0.5672 0.5487
vn -0.6147 -0.5659 0.5495
vn -0.8740 -0.0791 0.4795
vn -0.8740 -0.0792 0.4795
vn -0.7642 -0.0684 0.6413
vn -0.7249 -0.2934 0.6233
vn -0.9500 -0.0912 0.2986
vn -0.9889 -0.1040 0.1057
vn -0.9889 -0.1039 0.1057
vn -0.9890 -0.1169 -0.0912
vn -0.9889 -0.1169 -0.0912
vn -0.9500 -0.1295 -0.2841
vn -0.9500 -0.1294 -0.2841
vn -0.8740 -0.1412 -0.4650
vn -0.8740 -0.1411 -0.4650
vn -0.7642 -0.1515 -0.6269
vn -0.6256 -0.1605 -0.7635
vn -0.6256 -0.1601 -0.7635
vn -0.4638 -0.1673 -0.8700
vn -0.4638 -0.1672 -0.8700
vn -0.2851 -0.1717 -0.9430
vn -0.2851 -0.1718 -0.9430
vn -0.0962 -0.1740 -0.9800
vn -0.0962 -0.1741 -0.9800
vn 0.0962 -0.1740 -0.9800
vn 0.0962 -0.1741 -0.9800
vn 0.2851 -0.1717 -0.9430
vn 0.2298 -0.6475 -0.7266
vn 0.7642 -0.1517 -0.6269
vn 0.7016 -0.6266 -0.3393
vn 0.9002 -0.3540 -0.2537
vn 0.7621 -0.6177 -0.1939
vn 0.7023 -0.6254 -0.3400
vn 0.9369 -0.3423 -0.0709
vn 0.9375 -0.3406 -0.0714
vn 0.7931 -0.6078 -0.0391
vn 0.7630 -0.6164 -0.1945
vn 0.7930 -0.5975 0.1188
vn 0.9369 -0.3299 0.1157
vn 0.9375 -0.3283 0.1153
vn 0.7940 -0.6066 -0.0395
vn 0.9500 -0.0912 0.2986
vn 0.9889 -0.1039 0.1057
vn 0.9007 -0.3160 0.2982
vn 0.8287 -0.3042 0.4698
vn 0.8740 -0.0790 0.4795
vn 0.8740 -0.0791 0.4795
vn 0.9000 -0.3177 0.2984
vn 0.8281 -0.3059 0.4698
vn 0.7621 -0.5869 0.2736
vn 0.7015 -0.5765 0.4189
vn 0.7631 -0.5856 0.2735
vn 0.6138 -0.5672 0.5491
vn 0.7242 -0.2951 0.6232
vn 0.7249 -0.2934 0.6233
vn 0.7024 -0.5753 0.4190
vn 0.5935 -0.2842 0.7530
vn 0.6256 -0.0588 0.7779
vn 0.7643 -0.0681 0.6413
vn 0.6256 -0.0589 0.7779
vn 0.4638 -0.0516 0.8844
vn -0.7386 -0.0442 -0.6727
vn -0.6741 0.0485 0.7370
vn -0.8819 -0.0309 -0.4704
vn -0.7730 -0.0416 -0.6330
vn 0.9444 0.0179 0.3282
vn 0.9386 0.0263 0.3441
vn 0.8622 0.0296 0.5058
vn 0.7555 0.0399 0.6540
vn 0.8532 0.0379 0.5201
vn 0.7492 0.0435 0.6609
vn 0.6624 0.0492 0.7476
vn 0.5328 0.0524 0.8446
vn 0.6552 0.0527 0.7536
vn 0.4163 0.0596 0.9072
vn 0.5247 0.0558 0.8495
vn 0.0002 0.9978 -0.0657
vn 0.4076 0.0630 0.9110
vn 0.2514 0.0598 0.9660
vn 0.2345 0.0674 0.9698
vn 0.0709 0.0623 0.9955
vn 0.0613 0.0655 0.9960
vn -0.0613 0.0655 0.9960
vn -0.0709 0.0686 0.9951
vn -0.2345 0.0601 0.9702
vn -0.0980 -0.0653 -0.9930
vn -0.2903 -0.0628 -0.9549
vn 0.2851 -0.0464 0.9574
vn 0.2851 -0.0467 0.9574
vn 0.0962 -0.0442 0.9944
vn 0.2706 -0.2717 0.9236
vn 0.0913 -0.2691 0.9588
vn 0.2701 -0.2734 0.9232
vn 0.2294 -0.5477 0.8046
vn 0.4396 -0.2783 0.8540
vn 0.3731 -0.5523 0.7455
vn 0.3737 -0.5510 0.7461
vn 0.5930 -0.2857 0.7528
vn 0.4401 -0.2767 0.8542
vn 0.5028 -0.5590 0.6593
vn 0.5037 -0.5576 0.6598
vn 0.0910 -0.2708 0.9583
vn 0.0773 -0.5454 0.8346
vn 0.2299 -0.5465 0.8053
vn -0.0913 -0.2691 0.9588
vn -0.0915 -0.2707 0.9583
vn -0.0777 -0.5457 0.8344
vn 0.0775 -0.5443 0.8353
vn -0.2298 -0.5479 0.8044
vn -0.2707 -0.2733 0.9231
vn -0.2706 -0.2716 0.9236
vn -0.0775 -0.5442 0.8354
vn 0.4638 -0.0514 0.8844
vn -0.4714 -0.0579 -0.8800
vn -0.0001 0.9979 -0.0655
vn 0.8656 0.0240 0.5001
vn 0.6191 0.0629 0.7828
vn 0.3697 0.0516 0.9277
vn 0.0410 0.0736 0.9964
vn 0.0002 0.9978 -0.0658
vn -0.5173 0.0639 0.8534
vn -0.2354 0.0557 0.9703
vn 0.9893 0.0197 0.1443
vn -0.0001 0.9979 -0.0654
vn -0.9542 -0.0152 -0.2989
vn -0.6792 -0.0519 -0.7321
vn -0.7281 0.0387 0.6844
vn -0.2938 -0.0680 -0.9534
vn 0.9904 0.0054 0.1381
vn 0.9879 0.0139 0.1547
vn -0.9569 -0.0190 -0.2897
vn -0.6344 -0.0507 -0.7713
vn 0.6147 -0.5659 0.5494
vn 0.7941 -0.5962 0.1186
vn 0.9890 -0.1169 -0.0912
vn 0.6147 -0.6330 -0.4706
vn 0.9679 -0.0233 -0.2504
vn 0.9983 -0.0074 -0.0574
vn 0.9751 -0.0114 -0.2214
vn 0.9992 0.0010 -0.0405
vn 0.9002 -0.0396 -0.4337
vn 0.9373 -0.0159 -0.3482
vn -0.5539 -0.4291 0.7134
vn -0.6763 -0.4379 0.5923
vn -0.6759 -0.4398 0.5914
vn -0.4791 -0.7546 0.4484
vn -0.4778 -0.7565 0.4465
vn -0.3929 -0.7482 0.5347
vn -0.5537 -0.4308 0.7126
vn -0.3920 -0.7501 0.5326
vn -0.2918 -0.7431 0.6023
vn -0.4109 -0.4237 0.8073
vn -0.4109 -0.4218 0.8082
vn -0.2913 -0.7449 0.6002
vn -0.1797 -0.7394 0.6489
vn -0.2529 -0.4190 0.8721
vn -0.2527 -0.4169 0.8731
vn -0.0737 -0.4139 0.9073
vn -0.0848 -0.5450 0.8341
vn -0.1797 -0.7414 0.6465
vn -0.0556 -0.7372 0.6733
vn -0.0590 -0.7597 0.6476
vn 0.0584 -0.7560 0.6519
vn 0.0775 -0.5454 0.8346
vn 0.0773 -0.5459 0.8343
vn 0.2362 -0.5480 0.8024
vn 0.0915 -0.2594 0.9614
vn 0.2790 -0.2613 0.9240
vn 0.2409 -0.4180 0.8759
vn 0.4099 -0.4236 0.8078
vn 0.2911 -0.7429 0.6027
vn 0.1663 -0.7582 0.6305
vn 0.1777 -0.7412 0.6473
vn 0.4108 -0.4218 0.8083
vn 0.0841 -0.9350 0.3446
vn 0.0974 -0.9243 0.3689
vn 0.2895 -0.7449 0.6012
vn 0.1486 -0.9270 0.3444
vn 0.3923 -0.7482 0.5351
vn 0.3904 -0.7500 0.5340
vn 0.2003 -0.9295 0.3097
vn 0.1506 -0.9257 0.3469
vn 0.4786 -0.7545 0.4490
vn 0.4765 -0.7564 0.4482
vn 0.2442 -0.9327 0.2655
vn 0.2027 -0.9283 0.3118
vn 0.2470 -0.9315 0.2671
vn 0.1160 -0.9714 0.2074
vn 0.0532 -0.9925 0.1096
vn 0.1178 -0.9707 0.2094
vn 0.0556 -0.9659 0.2528
vn 0.0325 -0.9914 0.1268
vn -0.0192 -0.9998 0.0015
vn -0.0827 -0.9923 -0.0918
vn -0.0174 -0.9998 0.0059
vn -0.0422 -0.9990 0.0136
vn 0.1614 -0.9752 0.1517
vn 0.1638 -0.9746 0.1529
vn -0.1356 -0.9896 -0.0479
vn -0.0586 -0.9977 0.0338
vn -0.0419 -0.9990 0.0138
vn -0.0583 -0.9977 0.0340
vn -0.0661 -0.9961 0.0589
vn -0.1679 -0.9857 0.0131
vn 0.0659 -0.9941 0.0857
vn 0.1822 -0.9798 0.0826
vn 0.1849 -0.9793 0.0828
vn 0.3182 -0.9434 0.0939
vn 0.3182 -0.9475 0.0305
vn 0.0685 -0.9959 0.0586
vn 0.3151 -0.9486 0.0314
vn 0.5940 -0.7938 -0.1303
vn 0.5920 -0.7955 -0.1289
vn 0.6157 -0.7879 -0.0087
vn 0.3030 -0.9525 -0.0301
vn 0.5454 -0.8025 -0.2420
vn 0.2793 -0.9561 -0.0881
vn 0.5471 -0.8008 -0.2438
vn 0.3059 -0.9515 -0.0317
vn 0.1752 -0.9845 0.0108
vn 0.2818 -0.9552 -0.0901
vn 0.0607 -0.9976 0.0326
vn 0.1777 -0.9840 0.0099
vn 0.1414 -0.9885 -0.0529
vn -0.1548 -0.9768 0.1482
vn -0.0633 -0.9944 0.0849
vn 0.1435 -0.9881 -0.0547
vn -0.0514 -0.9928 0.1081
vn -0.0636 -0.9943 0.0850
vn 0.2026 -0.9612 -0.1875
vn 0.0437 -0.9990 0.0116
vn 0.2010 -0.9620 -0.1846
vn 0.2470 -0.9584 -0.1428
vn 0.3929 -0.8117 -0.4322
vn 0.3920 -0.8134 -0.4299
vn 0.4779 -0.8084 -0.3437
vn 0.2448 -0.9594 -0.1402
vn 0.2918 -0.8155 -0.4998
vn 0.2913 -0.8171 -0.4974
vn 0.1495 -0.9641 -0.2194
vn 0.1797 -0.8181 -0.5464
vn 0.1797 -0.8197 -0.5439
vn 0.0922 -0.9655 -0.2434
vn 0.1505 -0.9632 -0.2225
vn 0.0610 -0.8194 -0.5700
vn 0.0613 -0.8208 -0.5680
vn 0.0927 -0.9646 -0.2467
vn 0.0315 -0.9662 -0.2557
vn 0.0863 -0.9914 -0.0987
vn 0.4791 -0.8068 -0.3457
vn 0.6155 -0.7798 0.1139
vn 0.3149 -0.9444 0.0941
vn 0.6179 -0.7862 -0.0097
vn 0.5914 -0.7717 0.2340
vn 0.6178 -0.7781 0.1134
vn 0.3059 -0.9392 0.1560
vn 0.3027 -0.9403 0.1556
vn 0.5937 -0.7700 0.2339
vn 0.5444 -0.7637 0.3469
vn 0.2819 -0.9352 0.2145
vn 0.2788 -0.9363 0.2135
vn -0.1747 -0.9812 0.0820
vn -0.0658 -0.9961 0.0589
vn 0.5467 -0.7620 0.3472
vn 0.0198 -0.9399 0.3408
vn 0.0142 -0.9878 0.1549
vn -0.0108 -0.9999 0.0015
vn 0.0304 -0.9244 0.3801
vn -0.0313 -0.9231 0.3832
vn -0.0059 -0.9921 0.1255
vn -0.0927 -0.9240 0.3709
vn -0.0531 -0.9690 0.2413
vn -0.0315 -0.9244 0.3801
vn -0.0724 -0.9462 0.3155
vn 0.0181 -0.9998 0.0029
vn 0.0827 -0.9923 -0.0918
vn -0.1176 -0.9707 0.2095
vn 0.0421 -0.9990 0.0135
vn -0.0324 -0.9914 0.1268
vn 0.0419 -0.9990 0.0138
vn -0.1495 -0.9271 0.3438
vn -0.1505 -0.9257 0.3469
vn -0.2026 -0.9283 0.3117
vn -0.1161 -0.9713 0.2074
vn -0.2469 -0.9315 0.2670
vn -0.0532 -0.9925 0.1096
vn -0.2010 -0.9296 0.3089
vn -0.2787 -0.9351 0.2187
vn -0.2448 -0.9327 0.2647
vn -0.1720 -0.9726 0.1562
vn 0.1356 -0.9896 -0.0479
vn 0.0583 -0.9977 0.0340
vn 0.0545 -0.9978 0.0366
vn -0.0923 -0.9253 0.3679
vn 0.0570 -0.7596 0.6478
vn 0.5530 -0.4305 0.7133
vn 0.5539 -0.4289 0.7136
vn 0.0916 -0.2588 0.9616
vn -0.0994 -0.2593 0.9607
vn -0.5454 -0.7639 0.3450
vn -0.2573 -0.9452 0.2012
vn -0.5472 -0.7619 0.3466
vn -0.5921 -0.7718 0.2320
vn -0.3030 -0.9404 0.1546
vn -0.2659 -0.9542 0.1369
vn -0.7724 -0.4500 0.4482
vn 0.8389 -0.4609 0.2893
vn 0.8393 -0.4948 -0.2254
vn 0.5538 -0.5203 -0.6500
vn -0.4163 0.0596 0.9073
vn -0.2514 0.0672 0.9656
vn -0.4076 0.0568 0.9114
vn 0.0857 -0.5310 -0.8430
vn -0.0602 -0.8191 -0.5704
vn -0.5539 -0.5186 -0.6513
vn -0.4100 -0.5257 -0.7454
vn -0.6764 -0.5114 -0.5301
vn -0.5530 -0.5202 -0.6508
vn -0.7731 -0.5028 -0.3866
vn -0.6754 -0.5131 -0.5297
vn -0.4766 -0.8084 -0.3453
vn -0.5468 -0.8008 -0.2445
vn -0.4787 -0.8067 -0.3464
vn -0.7720 -0.5047 -0.3865
vn -0.8401 -0.4930 -0.2264
vn -0.8743 -0.4822 -0.0558
vn -0.8390 -0.4947 -0.2265
vn -0.8743 -0.4708 0.1183
vn -0.8733 -0.4840 -0.0561
vn -0.3181 -0.9434 0.0938
vn -0.0659 -0.9968 0.0453
vn -0.1821 -0.9822 0.0464
vn -0.2442 -0.9594 -0.1411
vn -0.0532 -0.9922 -0.1127
vn 0.0172 -0.9704 0.2410
vn -0.0065 -0.9912 0.1319
vn -0.0511 -0.9929 0.1079
vn 0.0169 -0.9998 0.0092
vn 0.5953 -0.7957 0.1118
vn 0.1679 -0.9789 0.1161
vn 0.0583 -0.9936 0.0970
vn -0.2299 -0.5464 0.8053
s 0
usemtl Material.027
f 2//1 4//1 1//1
f 2//2 1//2 5//2
f 5//3 1//3 3//3
f 1//4 4//4 3//4
f 5//5 6//5 2//5
f 8//6 6//6 5//6
f 8//7 5//7 7//7
f 3//8 7//8 5//8
f 10//5 6//5 8//5
f 7//9 9//9 8//9
f 10//10 8//10 9//10
f 12//5 6//5 10//5
f 12//11 10//11 11//11
f 9//12 11//12 10//12
f 13//5 6//5 12//5
f 12//6 16//6 13//6
f 11//13 14//13 12//13
f 14//14 15//14 12//14
f 16//15 12//15 15//15
f 16//16 17//16 13//16
f 17//17 16//17 15//17
f 17//5 18//5 13//5
f 20//18 18//18 17//18
f 20//19 17//19 19//19
f 15//20 19//20 17//20
f 22//6 18//6 20//6
f 22//21 20//21 21//21
f 19//22 21//22 20//22
f 24//5 18//5 22//5
f 24//23 22//23 23//23
f 21//24 23//24 22//24
f 2//5 18//5 24//5
f 2//5 24//5 4//5
f 23//25 25//25 24//25
f 4//26 24//26 25//26
f 25//5 23//5 21//5
f 3//27 25//27 21//27
f 25//28 3//28 4//28
f 7//5 3//5 21//5
f 19//29 15//29 21//29
f 15//6 14//6 21//6
f 14//30 11//30 21//30
f 11//5 9//5 21//5
f 9//5 7//5 21//5
f 27//31 18//31 2//31
f 18//5 26//5 13//5
f 28//32 26//32 18//32
f 18//32 27//32 28//32
f 26//33 28//33 29//33
f 27//34 31//34 28//34
f 29//34 28//34 30//34
f 31//34 30//34 28//34
f 34//35 32//35 31//35
f 33//36 31//36 32//36
f 31//36 33//36 30//36
f 34//34 31//34 27//34
f 32//37 34//37 35//37
f 36//38 35//38 34//38
f 36//34 34//34 37//34
f 37//34 34//34 27//34
f 2//31 37//31 27//31
f 37//39 2//39 38//39
f 38//39 39//39 37//39
f 37//34 39//34 40//34
f 40//34 41//34 37//34
f 41//34 36//34 37//34
f 42//40 41//40 43//40
f 41//34 42//34 45//34
f 41//41 40//41 44//41
f 44//41 43//41 41//41
f 41//34 45//34 36//34
f 47//42 46//42 45//42
f 48//43 45//43 46//43
f 45//44 48//44 36//44
f 42//34 47//34 45//34
f 35//45 36//45 48//45
f 48//46 49//46 35//46
f 49//47 48//47 50//47
f 46//48 50//48 48//48
f 50//49 46//49 51//49
f 50//50 52//50 49//50
f 51//51 53//51 50//51
f 52//52 50//52 53//52
f 53//53 56//53 52//53
f 55//54 54//54 53//54
f 56//55 53//55 54//55
f 53//56 51//56 55//56
f 59//57 52//57 56//57
f 57//58 56//58 58//58
f 56//59 57//59 59//59
f 54//60 58//60 56//60
f 52//61 59//61 60//61
f 62//62 60//62 59//62
f 61//63 59//63 57//63
f 59//64 61//64 62//64
f 60//65 62//65 63//65
f 65//66 63//66 62//66
f 64//67 62//67 61//67
f 62//68 64//68 65//68
f 63//69 65//69 66//69
f 68//70 66//70 65//70
f 67//71 65//71 64//71
f 65//72 67//72 68//72
f 66//73 68//73 69//73
f 71//74 69//74 68//74
f 70//75 68//75 67//75
f 68//76 70//76 71//76
f 69//77 71//77 72//77
f 74//78 72//78 71//78
f 73//79 71//79 70//79
f 71//80 73//80 74//80
f 72//81 74//81 75//81
f 77//82 75//82 74//82
f 76//83 74//83 73//83
f 74//84 76//84 77//84
f 80//85 78//85 77//85
f 75//86 77//86 78//86
f 79//87 77//87 76//87
f 77//88 79//88 80//88
f 78//89 80//89 81//89
f 83//90 81//90 80//90
f 82//91 80//91 79//91
f 80//92 82//92 83//92
f 81//93 83//93 84//93
f 85//94 84//94 83//94
f 83//95 86//95 85//95
f 86//96 83//96 82//96
f 82//97 87//97 86//97
f 87//98 85//98 86//98
f 87//99 89//99 88//99
f 88//100 93//100 87//100
f 87//101 82//101 92//101
f 89//102 87//102 90//102
f 90//103 87//103 91//103
f 92//104 91//104 87//104
f 85//105 87//105 93//105
f 95//106 93//106 94//106
f 96//107 94//107 93//107
f 93//108 95//108 85//108
f 93//109 88//109 96//109
f 94//110 96//110 97//110
f 99//111 97//111 96//111
f 98//112 96//112 88//112
f 96//113 98//113 99//113
f 97//114 99//114 100//114
f 102//115 100//115 99//115
f 101//116 99//116 98//116
f 99//117 101//117 102//117
f 100//118 102//118 103//118
f 105//119 103//119 102//119
f 104//120 102//120 101//120
f 102//121 104//121 105//121
f 108//122 106//122 105//122
f 103//123 105//123 106//123
f 107//124 105//124 104//124
f 105//125 107//125 108//125
f 106//126 108//126 109//126
f 111//127 109//127 108//127
f 110//128 108//128 107//128
f 108//129 110//129 111//129
f 109//130 111//130 112//130
f 114//131 112//131 111//131
f 113//132 111//132 110//132
f 111//133 113//133 114//133
f 112//134 114//134 115//134
f 117//135 115//135 114//135
f 116//136 114//136 113//136
f 114//137 116//137 117//137
f 115//138 117//138 119//138
f 118//139 117//139 116//139
f 117//140 118//140 120//140
f 120//141 119//141 117//141
f 123//142 121//142 120//142
f 119//143 120//143 121//143
f 122//144 120//144 118//144
f 120//145 122//145 123//145
f 121//146 123//146 124//146
f 126//147 124//147 123//147
f 125//148 123//148 122//148
f 123//149 125//149 126//149
f 129//150 127//150 126//150
f 124//151 126//151 127//151
f 128//152 126//152 125//152
f 126//153 128//153 129//153
f 132//154 130//154 129//154
f 127//155 129//155 130//155
f 131//156 129//156 128//156
f 129//157 131//157 132//157
f 130//158 132//158 133//158
f 135//159 133//159 132//159
f 134//160 132//160 131//160
f 132//161 134//161 135//161
f 133//162 135//162 136//162
f 138//163 136//163 135//163
f 137//164 135//164 134//164
f 135//165 137//165 138//165
f 136//166 138//166 139//166
f 141//167 139//167 138//167
f 140//168 138//168 137//168
f 138//169 140//169 141//169
f 144//170 142//170 141//170
f 139//171 141//171 142//171
f 143//172 141//172 140//172
f 141//173 143//173 144//173
f 142//174 144//174 145//174
f 147//175 145//175 144//175
f 146//176 144//176 143//176
f 144//177 146//177 147//177
f 145//178 147//178 148//178
f 150//179 148//179 147//179
f 149//180 147//180 146//180
f 147//181 149//181 150//181
f 148//182 150//182 55//182
f 54//183 55//183 150//183
f 151//184 150//184 149//184
f 150//185 151//185 54//185
f 153//186 151//186 152//186
f 149//187 152//187 151//187
f 151//188 153//188 58//188
f 58//189 54//189 151//189
f 152//190 154//190 153//190
f 156//191 153//191 154//191
f 153//192 157//192 155//192
f 155//193 57//193 153//193
f 157//194 153//194 156//194
f 58//195 153//195 57//195
f 156//196 159//196 157//196
f 157//197 160//197 158//197
f 158//198 155//198 157//198
f 160//199 157//199 159//199
f 162//200 160//200 161//200
f 159//201 161//201 160//201
f 160//202 162//202 163//202
f 163//203 158//203 160//203
f 164//204 163//204 162//204
f 163//205 164//205 166//205
f 158//206 163//206 165//206
f 166//207 165//207 163//207
f 167//208 166//208 164//208
f 166//209 167//209 168//209
f 168//210 169//210 166//210
f 165//211 166//211 169//211
f 169//212 171//212 165//212
f 169//213 168//213 170//213
f 170//214 171//214 169//214
f 171//215 170//215 172//215
f 172//216 70//216 171//216
f 155//217 165//217 171//217
f 67//218 171//218 70//218
f 64//219 171//219 67//219
f 171//220 64//220 155//220
f 172//221 173//221 92//221
f 92//222 76//222 172//222
f 70//223 172//223 73//223
f 73//224 172//224 76//224
f 173//225 172//225 174//225
f 174//226 172//226 170//226
f 174//227 176//227 173//227
f 170//228 175//228 174//228
f 176//229 174//229 175//229
f 175//230 177//230 176//230
f 178//231 176//231 177//231
f 176//232 178//232 179//232
f 179//233 173//233 176//233
f 180//234 179//234 178//234
f 179//235 180//235 182//235
f 173//236 179//236 181//236
f 182//237 181//237 179//237
f 184//238 182//238 180//238
f 182//239 184//239 183//239
f 183//240 91//240 182//240
f 181//241 182//241 91//241
f 185//242 183//242 184//242
f 184//243 187//243 185//243
f 180//244 186//244 184//244
f 187//245 184//245 186//245
f 187//246 189//246 188//246
f 188//247 185//247 187//247
f 186//248 190//248 187//248
f 189//249 187//249 190//249
f 190//34 193//34 191//34
f 192//34 190//34 191//34
f 189//34 190//34 192//34
f 190//250 186//250 193//250
f 194//34 191//34 193//34
f 193//34 196//34 194//34
f 193//251 195//251 196//251
f 195//252 193//252 186//252
f 197//34 194//34 196//34
f 196//34 199//34 197//34
f 198//253 196//253 195//253
f 196//254 198//254 199//254
f 200//34 197//34 199//34
f 200//34 199//34 202//34
f 199//255 201//255 202//255
f 201//256 199//256 198//256
f 203//34 202//34 205//34
f 203//34 200//34 202//34
f 202//257 204//257 205//257
f 204//258 202//258 201//258
f 206//34 203//34 205//34
f 206//34 205//34 208//34
f 207//259 205//259 204//259
f 205//260 207//260 208//260
f 209//34 208//34 212//34
f 209//34 210//34 208//34
f 210//34 206//34 208//34
f 211//261 208//261 207//261
f 208//262 211//262 212//262
f 213//34 209//34 212//34
f 213//34 212//34 214//34
f 215//263 212//263 211//263
f 212//263 215//263 214//263
f 215//264 161//264 216//264
f 161//265 215//265 162//265
f 211//266 162//266 215//266
f 216//267 214//267 215//267
f 217//268 219//268 216//268
f 216//269 218//269 217//269
f 218//270 216//270 161//270
f 214//271 216//271 219//271
f 220//34 221//34 219//34
f 220//34 219//34 222//34
f 221//34 214//34 219//34
f 219//272 217//272 222//272
f 223//34 224//34 222//34
f 225//34 223//34 222//34
f 224//34 220//34 222//34
f 226//273 222//273 217//273
f 222//274 226//274 225//274
f 226//275 227//275 229//275
f 227//276 226//276 228//276
f 217//277 228//277 226//277
f 229//278 225//278 226//278
f 230//279 232//279 229//279
f 229//280 231//280 230//280
f 231//281 229//281 227//281
f 225//282 229//282 232//282
f 232//34 233//34 225//34
f 232//34 234//34 233//34
f 232//34 235//34 234//34
f 232//283 230//283 235//283
f 235//34 236//34 234//34
f 235//34 237//34 236//34
f 238//284 235//284 230//284
f 235//285 238//285 237//285
f 238//286 239//286 241//286
f 239//287 238//287 240//287
f 230//288 240//288 238//288
f 241//289 237//289 238//289
f 242//290 244//290 241//290
f 241//291 243//291 242//291
f 243//292 241//292 239//292
f 237//293 241//293 244//293
f 244//34 245//34 246//34
f 244//34 247//34 245//34
f 237//34 244//34 246//34
f 244//294 242//294 247//294
f 247//34 248//34 245//34
f 247//34 249//34 248//34
f 247//34 250//34 249//34
f 251//295 247//295 242//295
f 247//296 251//296 250//296
f 251//297 252//297 254//297
f 252//298 251//298 253//298
f 242//299 253//299 251//299
f 254//300 250//300 251//300
f 255//301 257//301 254//301
f 254//302 256//302 255//302
f 256//303 254//303 252//303
f 250//304 254//304 257//304
f 257//34 258//34 259//34
f 257//34 260//34 258//34
f 250//34 257//34 259//34
f 257//305 255//305 260//305
f 260//34 261//34 258//34
f 260//34 262//34 261//34
f 263//306 260//306 255//306
f 260//307 263//307 262//307
f 263//308 264//308 266//308
f 264//309 263//309 265//309
f 255//310 265//310 263//310
f 266//311 262//311 263//311
f 267//312 269//312 266//312
f 266//313 268//313 267//313
f 268//314 266//314 264//314
f 262//315 266//315 269//315
f 262//34 269//34 270//34
f 269//34 271//34 270//34
f 269//34 272//34 271//34
f 269//316 267//316 272//316
f 272//34 273//34 271//34
f 272//34 275//34 273//34
f 272//317 274//317 275//317
f 274//318 272//318 267//318
f 276//34 275//34 278//34
f 275//34 276//34 273//34
f 275//319 277//319 278//319
f 277//320 275//320 274//320
f 279//34 276//34 278//34
f 278//34 280//34 279//34
f 280//34 278//34 282//34
f 281//321 278//321 277//321
f 278//322 281//322 282//322
f 283//34 280//34 282//34
f 282//34 285//34 283//34
f 284//323 282//323 281//323
f 282//324 284//324 285//324
f 286//34 283//34 285//34
f 288//34 286//34 285//34
f 285//325 287//325 288//325
f 287//326 285//326 284//326
f 289//34 286//34 288//34
f 291//34 289//34 288//34
f 288//327 290//327 291//327
f 290//328 288//328 287//328
f 294//34 292//34 291//34
f 289//34 291//34 292//34
f 293//329 291//329 290//329
f 291//330 293//330 294//330
f 295//34 292//34 294//34
f 294//34 297//34 295//34
f 294//331 296//331 297//331
f 296//332 294//332 293//332
f 298//34 295//34 297//34
f 297//34 189//34 298//34
f 297//333 188//333 189//333
f 188//334 297//334 296//334
f 301//34 298//34 189//34
f 298//335 299//335 300//335
f 299//336 298//336 301//336
f 300//337 295//337 298//337
f 301//34 189//34 192//34
f 299//338 301//338 192//338
f 302//5 303//5 300//5
f 300//5 299//5 302//5
f 295//339 300//339 303//339
f 303//5 302//5 304//5
f 305//5 303//5 304//5
f 303//340 292//340 295//340
f 292//341 303//341 305//341
f 306//5 305//5 304//5
f 305//342 289//342 292//342
f 289//343 305//343 306//343
f 304//5 307//5 306//5
f 306//5 307//5 308//5
f 286//344 306//344 308//344
f 306//345 286//345 289//345
f 308//5 307//5 309//5
f 283//346 308//346 309//346
f 308//347 283//347 286//347
f 310//5 309//5 307//5
f 311//5 309//5 310//5
f 309//348 280//348 283//348
f 280//349 309//349 311//349
f 311//5 310//5 312//5
f 313//5 311//5 312//5
f 311//350 279//350 280//350
f 279//351 311//351 313//351
f 314//5 313//5 312//5
f 276//352 313//352 314//352
f 313//353 276//353 279//353
f 314//5 312//5 315//5
f 315//5 316//5 314//5
f 314//354 271//354 273//354
f 314//355 273//355 276//355
f 271//356 314//356 316//356
f 316//5 315//5 317//5
f 270//357 316//357 317//357
f 316//358 270//358 271//358
f 317//5 318//5 319//5
f 317//5 315//5 318//5
f 317//359 261//359 270//359
f 261//360 317//360 319//360
f 319//5 318//5 320//5
f 320//5 321//5 319//5
f 258//361 319//361 321//361
f 319//362 258//362 261//362
f 320//5 322//5 321//5
f 321//363 259//363 258//363
f 259//364 321//364 322//364
f 322//5 320//5 323//5
f 323//5 324//5 322//5
f 322//365 249//365 259//365
f 249//366 322//366 324//366
f 323//5 325//5 324//5
f 324//5 325//5 326//5
f 324//367 248//367 249//367
f 248//368 324//368 326//368
f 328//5 327//5 326//5
f 327//5 329//5 326//5
f 325//5 328//5 326//5
f 245//369 326//369 329//369
f 326//370 245//370 248//370
f 327//5 330//5 329//5
f 329//371 246//371 245//371
f 246//372 329//372 330//372
f 330//5 43//5 331//5
f 327//5 43//5 330//5
f 330//373 236//373 246//373
f 236//374 330//374 331//374
f 43//5 2//5 331//5
f 331//5 2//5 6//5
f 234//375 331//375 6//375
f 331//376 234//376 236//376
f 328//5 38//5 332//5
f 39//377 38//377 328//377
f 328//377 333//377 39//377
f 328//5 332//5 327//5
f 333//378 328//378 325//378
f 333//34 334//34 39//34
f 333//34 335//34 334//34
f 325//378 335//378 333//378
f 335//34 42//34 334//34
f 335//34 47//34 42//34
f 335//34 336//34 47//34
f 335//34 337//34 336//34
f 335//379 325//379 323//379
f 323//379 337//379 335//379
f 337//34 338//34 336//34
f 337//34 339//34 338//34
f 337//34 342//34 339//34
f 337//380 323//380 340//380
f 340//380 341//380 337//380
f 337//34 341//34 343//34
f 337//34 343//34 342//34
f 344//381 343//381 341//381
f 343//382 344//382 320//382
f 320//383 342//383 343//383
f 323//5 320//5 344//5
f 323//5 344//5 340//5
f 341//381 340//381 344//381
f 342//34 345//34 346//34
f 342//34 347//34 345//34
f 342//34 346//34 339//34
f 342//384 320//384 318//384
f 318//384 347//384 342//384
f 347//34 348//34 345//34
f 348//34 347//34 349//34
f 349//34 347//34 353//34
f 350//34 347//34 352//34
f 347//34 350//34 353//34
f 347//385 318//385 351//385
f 351//385 352//385 347//385
f 353//34 355//34 349//34
f 353//381 354//381 355//381
f 354//381 353//381 356//381
f 350//386 356//386 353//386
f 356//5 315//5 354//5
f 315//5 356//5 318//5
f 356//386 350//386 357//386
f 318//5 356//5 357//5
f 357//5 351//5 318//5
f 357//387 350//387 352//387
f 352//387 351//387 357//387
f 358//388 359//388 355//388
f 355//388 354//388 358//388
f 355//34 359//34 349//34
f 315//389 349//389 359//389
f 359//389 358//389 315//389
f 354//5 315//5 358//5
f 360//34 348//34 349//34
f 349//34 361//34 360//34
f 312//381 361//381 349//381
f 349//381 315//381 312//381
f 361//34 363//34 362//34
f 361//34 362//34 360//34
f 361//34 366//34 363//34
f 361//34 364//34 366//34
f 365//390 364//390 361//390
f 361//391 312//391 365//391
f 366//34 369//34 367//34
f 368//34 366//34 367//34
f 366//34 368//34 363//34
f 366//381 307//381 369//381
f 310//384 366//384 364//384
f 307//381 366//381 310//381
f 367//34 369//34 370//34
f 370//34 369//34 371//34
f 369//34 373//34 371//34
f 372//34 373//34 369//34
f 374//388 372//388 369//388
f 369//388 307//388 374//388
f 374//5 307//5 304//5
f 372//389 374//389 304//389
f 375//34 373//34 376//34
f 375//34 371//34 373//34
f 302//381 376//381 373//381
f 373//381 304//381 302//381
f 304//389 373//389 372//389
f 375//34 376//34 378//34
f 377//34 378//34 376//34
f 379//34 377//34 376//34
f 376//34 383//34 379//34
f 383//34 376//34 380//34
f 380//34 376//34 381//34
f 382//390 381//390 376//390
f 376//391 302//391 382//391
f 380//381 386//381 383//381
f 379//34 383//34 385//34
f 384//392 383//392 386//392
f 383//392 384//392 385//392
f 386//381 380//381 388//381
f 387//5 384//5 386//5
f 302//5 387//5 386//5
f 386//5 388//5 302//5
f 388//384 380//384 381//384
f 388//5 382//5 302//5
f 381//384 382//384 388//384
f 299//5 389//5 387//5
f 299//5 387//5 302//5
f 389//5 392//5 387//5
f 384//5 387//5 390//5
f 391//393 390//393 387//393
f 387//393 379//393 391//393
f 379//388 387//388 392//388
f 393//5 395//5 392//5
f 392//5 394//5 393//5
f 392//5 389//5 394//5
f 396//5 392//5 395//5
f 397//394 392//394 396//394
f 392//388 397//388 379//388
f 400//34 397//34 398//34
f 398//34 397//34 402//34
f 401//34 399//34 397//34
f 379//34 397//34 399//34
f 400//34 401//34 397//34
f 396//395 402//395 397//395
f 398//34 402//34 404//34
f 402//381 396//381 403//381
f 403//381 404//381 402//381
f 395//396 398//396 404//396
f 404//396 403//396 395//396
f 403//5 396//5 395//5
f 400//397 405//397 401//397
f 406//398 401//398 405//398
f 401//399 406//399 399//399
f 407//400 406//400 408//400
f 406//401 407//401 409//401
f 405//402 408//402 406//402
f 409//403 399//403 406//403
f 399//404 409//404 377//404
f 411//405 409//405 407//405
f 409//406 411//406 410//406
f 410//407 377//407 409//407
f 412//408 410//408 411//408
f 407//409 103//409 411//409
f 411//410 106//410 412//410
f 106//411 411//411 103//411
f 412//412 109//412 413//412
f 413//413 414//413 412//413
f 410//414 412//414 414//414
f 109//415 412//415 106//415
f 378//416 414//416 375//416
f 415//417 375//417 414//417
f 414//418 413//418 415//418
f 414//419 378//419 410//419
f 417//420 415//420 413//420
f 375//421 415//421 371//421
f 416//422 371//422 415//422
f 415//423 417//423 416//423
f 418//424 416//424 417//424
f 413//425 112//425 417//425
f 417//426 115//426 418//426
f 115//427 417//427 112//427
f 416//428 418//428 419//428
f 420//429 419//429 418//429
f 418//430 119//430 420//430
f 119//431 418//431 115//431
f 419//432 420//432 421//432
f 422//433 421//433 420//433
f 420//434 121//434 422//434
f 121//435 420//435 119//435
f 421//436 422//436 423//436
f 424//437 423//437 422//437
f 422//438 124//438 424//438
f 124//439 422//439 121//439
f 423//440 424//440 425//440
f 426//441 425//441 424//441
f 424//442 127//442 426//442
f 127//443 424//443 124//443
f 425//444 426//444 427//444
f 428//445 427//445 426//445
f 426//446 130//446 428//446
f 130//447 426//447 127//447
f 427//448 428//448 429//448
f 430//449 429//449 428//449
f 428//450 133//450 430//450
f 133//451 428//451 130//451
f 432//452 431//452 430//452
f 429//453 430//453 431//453
f 430//454 136//454 432//454
f 136//455 430//455 133//455
f 434//456 433//456 432//456
f 431//457 432//457 433//457
f 432//458 139//458 434//458
f 139//459 432//459 136//459
f 436//460 435//460 434//460
f 433//461 434//461 435//461
f 434//462 142//462 436//462
f 142//463 434//463 139//463
f 435//464 436//464 437//464
f 438//465 437//465 436//465
f 436//466 145//466 438//466
f 145//467 436//467 142//467
f 440//468 439//468 438//468
f 437//469 438//469 439//469
f 438//470 148//470 440//470
f 148//471 438//471 145//471
f 51//472 441//472 440//472
f 439//473 440//473 441//473
f 440//474 55//474 51//474
f 55//475 440//475 148//475
f 441//476 336//476 439//476
f 336//477 441//477 47//477
f 46//478 47//478 441//478
f 441//479 51//479 46//479
f 338//480 439//480 336//480
f 439//480 338//480 437//480
f 339//481 437//481 338//481
f 437//482 339//482 435//482
f 435//483 346//483 433//483
f 346//484 435//484 339//484
f 433//485 345//485 431//485
f 345//486 433//486 346//486
f 348//487 431//487 345//487
f 431//488 348//488 429//488
f 429//489 360//489 427//489
f 360//489 429//489 348//489
f 427//490 362//490 425//490
f 362//491 427//491 360//491
f 363//492 425//492 362//492
f 425//493 363//493 423//493
f 423//494 368//494 421//494
f 368//495 423//495 363//495
f 421//496 367//496 419//496
f 367//497 421//497 368//497
f 370//498 419//498 367//498
f 419//499 370//499 416//499
f 371//500 416//500 370//500
f 112//501 413//501 109//501
f 377//502 410//502 378//502
f 408//503 100//503 407//503
f 408//504 405//504 442//504
f 442//505 97//505 408//505
f 100//506 408//506 97//506
f 442//507 443//507 444//507
f 443//508 442//508 405//508
f 444//509 94//509 442//509
f 97//510 442//510 94//510
f 445//511 95//511 444//511
f 444//512 446//512 445//512
f 446//513 444//513 443//513
f 94//514 444//514 95//514
f 448//515 446//515 447//515
f 443//516 447//516 446//516
f 449//517 445//517 446//517
f 446//515 448//515 449//515
f 450//518 452//518 449//518
f 449//519 451//519 450//519
f 451//520 449//520 448//520
f 445//521 449//521 452//521
f 452//522 450//522 453//522
f 452//523 84//523 445//523
f 453//524 81//524 452//524
f 84//525 452//525 81//525
f 454//526 78//526 453//526
f 453//527 455//527 454//527
f 455//528 453//528 450//528
f 81//529 453//529 78//529
f 456//530 454//530 455//530
f 455//531 458//531 456//531
f 450//532 457//532 455//532
f 458//533 455//533 457//533
f 459//534 456//534 458//534
f 461//34 458//34 457//34
f 459//34 458//34 460//34
f 461//34 460//34 458//34
f 465//34 460//34 461//34
f 462//535 463//535 461//535
f 461//535 464//535 462//535
f 465//536 461//536 463//536
f 461//34 457//34 464//34
f 466//34 460//34 465//34
f 467//34 466//34 465//34
f 463//536 468//536 465//536
f 467//41 465//41 468//41
f 468//5 469//5 470//5
f 469//5 468//5 463//5
f 468//5 470//5 471//5
f 468//41 471//41 467//41
f 471//5 470//5 472//5
f 471//5 472//5 462//5
f 471//40 462//40 464//40
f 464//40 467//40 471//40
f 462//5 472//5 476//5
f 473//537 474//537 472//537
f 472//537 475//537 473//537
f 474//5 476//5 472//5
f 475//538 472//538 470//538
f 477//5 476//5 474//5
f 478//5 462//5 476//5
f 200//539 476//539 477//539
f 476//540 200//540 203//540
f 203//541 478//541 476//541
f 479//5 462//5 478//5
f 206//542 479//542 478//542
f 478//543 203//543 206//543
f 479//544 206//544 210//544
f 210//545 480//545 479//545
f 480//5 463//5 479//5
f 479//5 463//5 462//5
f 469//5 463//5 480//5
f 480//5 481//5 469//5
f 209//546 481//546 480//546
f 480//547 210//547 209//547
f 482//5 481//5 483//5
f 469//5 481//5 482//5
f 483//5 481//5 484//5
f 484//5 481//5 485//5
f 213//548 485//548 481//548
f 481//549 209//549 213//549
f 488//5 484//5 485//5
f 486//30 488//30 485//30
f 487//550 486//550 485//550
f 489//5 487//5 485//5
f 485//5 490//5 489//5
f 491//5 490//5 485//5
f 485//551 213//551 221//551
f 221//552 491//552 485//552
f 491//5 492//5 490//5
f 493//5 492//5 491//5
f 491//553 221//553 220//553
f 220//554 493//554 491//554
f 494//5 492//5 493//5
f 493//555 220//555 224//555
f 224//556 494//556 493//556
f 26//5 492//5 494//5
f 13//5 26//5 494//5
f 494//557 224//557 223//557
f 223//558 13//558 494//558
f 495//559 490//559 492//559
f 492//559 29//559 495//559
f 29//33 492//33 26//33
f 497//34 496//34 495//34
f 490//560 495//560 496//560
f 495//34 29//34 30//34
f 30//34 497//34 495//34
f 497//34 459//34 496//34
f 497//561 498//561 459//561
f 498//562 497//562 499//562
f 30//563 499//563 497//563
f 499//564 501//564 498//564
f 33//565 500//565 499//565
f 501//566 499//566 500//566
f 499//563 30//563 33//563
f 500//567 69//567 501//567
f 502//568 498//568 501//568
f 501//569 72//569 502//569
f 72//570 501//570 69//570
f 454//571 456//571 502//571
f 498//572 502//572 456//572
f 502//573 75//573 454//573
f 75//574 502//574 72//574
f 500//575 33//575 503//575
f 503//576 66//576 500//576
f 69//577 500//577 66//577
f 32//578 503//578 33//578
f 503//579 32//579 504//579
f 504//580 63//580 503//580
f 66//581 503//581 63//581
f 49//582 60//582 504//582
f 504//583 35//583 49//583
f 35//584 504//584 32//584
f 63//585 504//585 60//585
f 456//586 459//586 498//586
f 496//560 489//560 490//560
f 489//587 496//587 460//587
f 459//34 460//34 496//34
f 489//5 505//5 487//5
f 489//5 506//5 505//5
f 506//6 489//6 507//6
f 507//5 489//5 469//5
f 460//587 469//587 489//587
f 507//588 469//588 508//588
f 507//589 508//589 509//589
f 509//590 510//590 507//590
f 506//591 507//591 510//591
f 510//5 509//5 511//5
f 510//592 511//592 506//592
f 518//5 512//5 511//5
f 512//30 515//30 511//30
f 509//16 516//16 511//16
f 514//593 513//593 511//593
f 511//594 513//594 505//594
f 515//5 514//5 511//5
f 516//2 517//2 511//2
f 517//30 518//30 511//30
f 505//595 506//595 511//595
f 512//12 518//12 483//12
f 518//13 517//13 482//13
f 482//11 483//11 518//11
f 517//14 516//14 482//14
f 519//15 482//15 516//15
f 508//17 519//17 516//17
f 516//596 509//596 508//596
f 519//597 469//597 482//597
f 508//27 469//27 519//27
f 514//598 515//598 488//598
f 515//9 512//9 484//9
f 484//599 488//599 515//599
f 488//3 486//3 514//3
f 486//4 487//4 514//4
f 513//28 514//28 487//28
f 487//600 505//600 513//600
f 483//601 484//601 512//601
f 395//5 477//5 474//5
f 395//5 393//5 477//5
f 197//602 477//602 393//602
f 477//603 197//603 200//603
f 470//538 466//538 475//538
f 475//34 466//34 467//34
f 475//34 467//34 473//34
f 398//604 395//604 474//604
f 474//604 473//604 398//604
f 448//34 398//34 473//34
f 473//34 464//34 451//34
f 473//34 467//34 464//34
f 451//34 448//34 473//34
f 466//605 470//605 469//605
f 469//605 460//605 466//605
f 464//34 457//34 451//34
f 457//532 450//532 451//532
f 78//606 454//606 75//606
f 448//34 447//34 398//34
f 447//516 443//516 400//516
f 447//34 400//34 398//34
f 95//607 445//607 84//607
f 405//608 400//608 443//608
f 103//609 407//609 100//609
f 377//34 379//34 399//34
f 191//610 394//610 389//610
f 194//611 393//611 394//611
f 394//612 191//612 194//612
f 393//613 194//613 197//613
f 390//387 391//387 385//387
f 385//34 391//34 379//34
f 385//387 384//387 390//387
f 192//614 389//614 299//614
f 389//615 192//615 191//615
f 312//5 310//5 365//5
f 364//384 365//384 310//384
f 334//34 40//34 39//34
f 40//536 334//536 332//536
f 334//535 42//535 327//535
f 327//535 332//535 334//535
f 332//5 38//5 44//5
f 332//536 44//536 40//536
f 43//40 327//40 42//40
f 293//616 521//616 296//616
f 296//617 520//617 188//617
f 520//618 296//618 521//618
f 521//619 522//619 520//619
f 522//620 521//620 523//620
f 524//621 523//621 521//621
f 521//622 293//622 524//622
f 523//623 524//623 525//623
f 526//624 525//624 524//624
f 524//625 290//625 526//625
f 290//626 524//626 293//626
f 525//627 526//627 527//627
f 528//628 527//628 526//628
f 526//629 287//629 528//629
f 287//630 526//630 290//630
f 529//631 528//631 287//631
f 528//632 529//632 531//632
f 527//633 528//633 530//633
f 531//634 530//634 528//634
f 530//635 531//635 532//635
f 533//636 532//636 531//636
f 531//637 534//637 533//637
f 534//638 531//638 529//638
f 535//639 533//639 534//639
f 529//640 281//640 534//640
f 277//641 534//641 281//641
f 534//642 277//642 535//642
f 535//643 274//643 536//643
f 536//644 538//644 535//644
f 535//645 537//645 533//645
f 537//646 535//646 538//646
f 274//647 535//647 277//647
f 538//648 539//648 537//648
f 539//649 538//649 540//649
f 538//650 536//650 541//650
f 541//651 540//651 538//651
f 268//652 541//652 536//652
f 541//653 268//653 543//653
f 543//654 542//654 541//654
f 540//655 541//655 542//655
f 264//656 543//656 268//656
f 543//657 264//657 544//657
f 544//658 545//658 543//658
f 542//659 543//659 545//659
f 545//660 544//660 546//660
f 545//661 548//661 542//661
f 546//662 547//662 545//662
f 548//663 545//663 547//663
f 539//664 540//664 548//664
f 542//665 548//665 540//665
f 116//666 548//666 118//666
f 118//667 548//667 122//667
f 548//668 116//668 539//668
f 547//669 122//669 548//669
f 549//670 547//670 546//670
f 547//671 549//671 550//671
f 125//672 547//672 128//672
f 550//673 128//673 547//673
f 122//674 547//674 125//674
f 128//675 550//675 131//675
f 552//676 134//676 550//676
f 131//677 550//677 134//677
f 551//678 550//678 549//678
f 553//679 550//679 551//679
f 550//680 553//680 552//680
f 551//681 555//681 553//681
f 553//682 556//682 554//682
f 554//683 552//683 553//683
f 556//684 553//684 555//684
f 243//685 556//685 253//685
f 556//686 243//686 557//686
f 555//687 253//687 556//687
f 557//688 554//688 556//688
f 557//689 239//689 558//689
f 558//690 559//690 557//690
f 239//691 557//691 243//691
f 554//692 557//692 559//692
f 559//693 552//693 554//693
f 559//694 558//694 560//694
f 560//695 561//695 559//695
f 552//696 559//696 561//696
f 562//697 561//697 560//697
f 143//698 561//698 146//698
f 140//699 561//699 143//699
f 561//700 562//700 152//700
f 152//701 146//701 561//701
f 561//702 140//702 552//702
f 562//703 564//703 563//703
f 563//704 152//704 562//704
f 564//705 562//705 565//705
f 560//706 565//706 562//706
f 231//707 565//707 240//707
f 565//708 231//708 564//708
f 558//709 240//709 565//709
f 565//710 560//710 558//710
f 227//711 564//711 231//711
f 564//712 227//712 566//712
f 566//713 563//713 564//713
f 228//714 566//714 227//714
f 566//715 228//715 567//715
f 567//716 154//716 566//716
f 563//717 566//717 154//717
f 218//718 567//718 228//718
f 567//719 218//719 159//719
f 154//720 567//720 156//720
f 159//721 156//721 567//721
f 154//722 152//722 563//722
f 240//723 558//723 239//723
f 568//724 252//724 555//724
f 555//725 551//725 568//725
f 253//726 555//726 252//726
f 569//727 256//727 568//727
f 252//728 568//728 256//728
f 549//729 568//729 551//729
f 568//730 549//730 569//730
f 256//731 569//731 265//731
f 544//732 265//732 569//732
f 546//733 569//733 549//733
f 569//734 546//734 544//734
f 137//735 552//735 140//735
f 134//736 552//736 137//736
f 265//737 544//737 264//737
f 570//738 537//738 539//738
f 539//739 113//739 570//739
f 113//740 539//740 116//740
f 537//741 570//741 532//741
f 571//742 532//742 570//742
f 570//743 113//743 571//743
f 572//744 530//744 571//744
f 571//745 573//745 572//745
f 532//746 571//746 530//746
f 573//747 571//747 113//747
f 113//748 107//748 573//748
f 104//749 573//749 107//749
f 574//750 575//750 573//750
f 573//751 101//751 574//751
f 572//752 573//752 575//752
f 101//753 573//753 104//753
f 527//754 575//754 525//754
f 575//755 527//755 572//755
f 576//756 525//756 575//756
f 575//757 574//757 576//757
f 577//758 523//758 576//758
f 576//759 574//759 577//759
f 525//760 576//760 523//760
f 89//761 522//761 577//761
f 523//762 577//762 522//762
f 89//763 577//763 574//763
f 98//764 574//764 101//764
f 88//765 574//765 98//765
f 574//766 88//766 89//766
f 530//767 572//767 527//767
f 532//768 533//768 537//768
f 536//769 267//769 268//769
f 267//770 536//770 274//770
f 281//771 529//771 284//771
f 287//772 284//772 529//772
f 578//773 520//773 522//773
f 522//774 89//774 578//774
f 520//775 578//775 185//775
f 183//776 185//776 578//776
f 578//777 90//777 183//777
f 90//778 578//778 89//778
f 185//779 188//779 520//779
f 262//34 270//34 261//34
f 265//780 255//780 256//780
f 250//34 259//34 249//34
f 253//781 242//781 243//781
f 237//34 246//34 236//34
f 240//782 230//782 231//782
f 6//783 233//783 234//783
f 233//34 223//34 225//34
f 13//784 223//784 233//784
f 233//785 6//785 13//785
f 228//786 217//786 218//786
f 221//34 213//34 214//34
f 161//787 159//787 218//787
f 207//788 164//788 211//788
f 162//789 211//789 164//789
f 204//790 167//790 207//790
f 164//791 207//791 167//791
f 201//792 579//792 204//792
f 167//793 204//793 579//793
f 168//794 579//794 175//794
f 177//795 175//795 579//795
f 579//796 168//796 167//796
f 579//797 201//797 177//797
f 198//798 177//798 201//798
f 195//799 178//799 198//799
f 177//800 198//800 178//800
f 186//801 180//801 195//801
f 178//802 195//802 180//802
f 91//803 183//803 90//803
f 181//804 92//804 173//804
f 91//805 92//805 181//805
f 175//806 170//806 168//806
f 165//807 155//807 158//807
f 61//808 155//808 64//808
f 57//809 155//809 61//809
f 146//810 152//810 149//810
f 107//811 113//811 110//811
f 84//812 85//812 95//812
f 79//813 92//813 82//813
f 76//814 92//814 79//814
f 60//815 49//815 52//815
f 2//5 44//5 38//5
f 44//5 2//5 43//5
