# Blender 5.0.1
# www.blender.org
mtllib torso_y_link_visual_42.mtl
o i01.torso.full.045_visual.001
v -0.124728 -0.154878 0.037144
v -0.163484 -0.156838 0.007340
v -0.119800 -0.155372 0.029633
v -0.125229 -0.150909 0.097515
v -0.125069 -0.106715 0.035747
v -0.119799 -0.111980 0.026509
v -0.083739 -0.088941 0.094287
v -0.111741 -0.115240 0.022540
v -0.083667 -0.114500 0.036109
v -0.118694 -0.077851 0.104223
v -0.112295 -0.155661 0.025236
v -0.062103 -0.156814 0.007710
v -0.098050 -0.155672 0.025081
v -0.097416 -0.117868 0.022638
v -0.088696 -0.117547 0.027075
v -0.090213 -0.155460 0.028306
v -0.083995 -0.154874 0.037208
v -0.062059 -0.148785 0.129817
v -0.083769 -0.150831 0.098697
v -0.087932 -0.150303 0.106733
v -0.088637 -0.083975 0.103381
v -0.098042 -0.080297 0.107847
v -0.095983 -0.149956 0.112007
v -0.112846 -0.149946 0.112155
v -0.121887 -0.150366 0.105763
v -0.163528 -0.148782 0.129862
v -0.110795 -0.077878 0.107594
v -0.164204 -0.057717 0.123717
v -0.063033 -0.078848 0.125440
v -0.130495 -0.066445 0.124591
v -0.170258 -0.148968 0.127025
v -0.172430 -0.156555 0.011640
v -0.177615 -0.155949 0.020870
v -0.177694 -0.102035 0.017051
v -0.173004 -0.106712 0.009272
v -0.164800 -0.110993 0.004445
v -0.175212 -0.149285 0.122212
v -0.177983 -0.149768 0.114857
v -0.171234 -0.057364 0.120332
v -0.177203 -0.059244 0.112642
v -0.191892 -0.055523 0.112125
v -0.180768 -0.035589 0.163051
v -0.151577 0.009525 0.278182
v -0.246095 0.025658 0.255021
v -0.198478 -0.050002 0.120267
v -0.205543 -0.046876 0.123024
v -0.264484 -0.032367 0.122087
v -0.306625 -0.148803 0.129545
v -0.204845 -0.148803 0.129539
v -0.226438 -0.150874 0.098049
v -0.238733 -0.149972 0.111753
v -0.195956 -0.149122 0.124686
v -0.230356 -0.150338 0.106193
v -0.254096 -0.149956 0.112008
v -0.226700 -0.154889 0.036977
v -0.204499 -0.156829 0.007484
v -0.306034 -0.156858 0.007034
v -0.198258 -0.101155 0.006743
v -0.205245 -0.100616 0.003627
v -0.196906 -0.156571 0.011400
v -0.259885 -0.155533 0.027192
v -0.232088 -0.155424 0.028843
v -0.239453 -0.155679 0.024963
v -0.252857 -0.155695 0.024723
v -0.240060 -0.084664 0.020181
v -0.253415 -0.081819 0.019955
v -0.260363 -0.079348 0.022516
v -0.267234 -0.074214 0.030811
v -0.267879 -0.046047 0.091258
v -0.254598 -0.042634 0.104848
v -0.260319 -0.150137 0.109245
v -0.263021 -0.042886 0.100245
v -0.226359 -0.055875 0.090963
v -0.237775 -0.046595 0.104877
v -0.229347 -0.051724 0.098396
v -0.226554 -0.082278 0.032735
v -0.232293 -0.084842 0.023890
v -0.265227 -0.150453 0.104450
v -0.267928 -0.150928 0.097229
v -0.267648 -0.154811 0.038173
v -0.264775 -0.155212 0.032063
v -0.191672 -0.156068 0.019058
v -0.193497 -0.100220 0.011742
v -0.191090 -0.097762 0.018627
v -0.198666 -0.121124 -0.039008
v -0.253140 -0.124123 -0.073920
v -0.118840 -0.121902 0.005022
v -0.161860 -0.188201 -0.181863
v -0.125357 -0.157830 -0.083309
v -0.034434 -0.212429 -0.182573
v -0.093625 -0.199483 -0.171978
v -0.016171 -0.178806 -0.089780
v -0.035131 -0.132725 0.013724
v -0.033216 -0.134920 0.009055
v 0.040751 -0.173312 -0.065459
v -0.061843 -0.131865 0.006013
v 0.067411 -0.206579 -0.142052
v -0.027943 -0.136752 0.006230
v 0.053979 -0.142905 0.006923
v -0.028933 -0.156818 0.007649
v -0.034660 -0.156498 0.012518
v 0.023111 -0.155632 0.025675
v 0.054284 -0.156796 0.007976
v -0.030669 -0.148790 0.129715
v 0.011747 -0.148780 0.129890
v 0.018081 -0.155361 0.029802
v 0.017036 -0.149117 0.124760
v 0.017986 -0.131090 0.028437
v 0.023696 -0.133461 0.023889
v 0.029698 -0.133713 0.024284
v 0.028621 -0.155657 0.025306
v 0.034229 -0.132363 0.028251
v 0.054924 -0.092400 0.122532
v 0.054619 -0.149039 0.125941
v 0.017274 -0.091228 0.119346
v 0.034218 -0.155377 0.029565
v 0.014771 -0.088753 0.124148
v -0.014733 -0.058189 0.185679
v 0.009154 -0.087623 0.126279
v -0.030197 -0.083647 0.125384
v -0.048052 -0.053088 0.187986
v -0.049062 -0.086048 0.113667
v -0.034980 -0.085132 0.120381
v -0.035246 -0.149187 0.123692
v -0.048422 -0.127543 0.020521
v -0.054660 -0.081567 0.121700
v -0.052792 -0.149130 0.124565
v -0.048571 -0.149751 0.115115
v -0.048829 -0.156019 0.019799
v -0.052533 -0.130971 0.011381
v -0.054573 -0.156577 0.011311
v -0.092913 0.004241 0.292753
v -0.028318 0.000930 0.306698
v -0.075015 0.250391 0.280368
v 0.038369 0.004698 0.322157
v 0.080761 -0.038273 0.236539
v 0.144040 -0.048444 0.215761
v 0.089196 -0.093841 0.120014
v 0.096097 0.010753 0.334413
v 0.059621 -0.090752 0.126242
v 0.082473 -0.090914 0.126728
v 0.086913 -0.091664 0.124934
v 0.085385 -0.148784 0.129832
v 0.089281 -0.149162 0.124073
v 0.067328 -0.156016 0.019849
v 0.066278 -0.139741 0.016030
v 0.082915 -0.107659 0.091173
v 0.101184 -0.141347 0.016649
v 0.185289 -0.120070 0.061702
v 0.185270 -0.088994 0.059658
v 0.144047 -0.017572 0.213756
v 0.158811 -0.182499 -0.083849
v 0.158799 -0.151506 -0.085866
v 0.140720 -0.205128 -0.141250
v 0.140712 -0.173902 -0.143340
v 0.118583 -0.228147 -0.197243
v 0.074449 -0.234174 -0.302456
v 0.119007 -0.197038 -0.198275
v 0.074449 -0.265232 -0.300413
v -0.007545 -0.261025 -0.303900
v -0.007470 -0.229910 -0.305945
v -0.088482 -0.254809 -0.314827
v -0.088372 -0.223680 -0.316873
v -0.161606 -0.238707 -0.306502
v -0.161606 -0.207631 -0.308546
v -0.224243 -0.226863 -0.306884
v -0.224421 -0.195667 -0.308936
v -0.277943 -0.220021 -0.307732
v -0.306208 -0.184196 -0.308498
v -0.280170 -0.188396 -0.309771
v -0.327197 -0.215599 -0.306430
v -0.327168 -0.109716 -0.062992
v -0.320413 -0.073843 0.015716
v -0.317729 -0.076979 0.009614
v -0.327168 0.023379 0.221118
v -0.326738 0.245474 0.206500
v -0.305056 -0.081857 0.002064
v -0.312787 -0.079845 0.004711
v -0.317442 -0.156389 0.014167
v -0.312558 -0.156679 0.009755
v -0.316070 -0.149137 0.124452
v -0.320618 -0.149733 0.115395
v -0.309258 -0.026111 0.120858
v -0.320600 -0.030823 0.107851
v -0.317015 -0.027846 0.115086
v -0.285947 0.031449 0.249046
v -0.286180 0.247394 0.234773
v -0.245783 0.247765 0.240424
v -0.244189 0.246480 0.222302
v -0.285446 0.061791 0.228756
v -0.147532 0.039219 0.258206
v -0.244224 0.055521 0.234921
v -0.285446 0.246107 0.216638
v -0.071567 0.249090 0.262005
v -0.025557 0.030829 0.285946
v 0.045001 0.034283 0.302014
v -0.089182 0.033965 0.272484
v 0.103615 0.251612 0.300354
v 0.096097 0.252899 0.318490
v 0.103615 0.040637 0.314227
v 0.087694 -0.010845 0.228776
v 0.075636 -0.037405 0.172293
v -0.002779 -0.040626 0.159777
v 0.013286 -0.069069 0.100340
v 0.069890 -0.089633 0.059701
v 0.185289 -0.028457 0.055678
v -0.045528 -0.078597 0.058975
v 0.069890 -0.053537 0.057327
v 0.158818 -0.090989 -0.089846
v 0.043400 -0.113549 -0.088363
v -0.071999 -0.136109 -0.086879
v 0.043400 -0.150322 -0.085944
v 0.051162 -0.178172 -0.149405
v -0.044398 -0.191055 -0.210091
v -0.098715 -0.163971 -0.163158
v -0.145214 -0.135659 -0.117949
v -0.114900 -0.099703 -0.013332
v -0.083398 -0.078583 0.048570
v -0.129916 -0.031191 0.132875
v -0.177752 -0.057212 0.045654
v -0.229159 -0.076103 -0.025961
v -0.306184 -0.071088 -0.048518
v -0.259783 -0.115185 -0.130473
v -0.164858 -0.159850 -0.191027
v -0.306193 -0.149990 -0.227032
v -0.306208 0.209911 -0.334413
v -0.306208 0.200218 -0.079803
v -0.306208 0.226539 -0.081534
v -0.326694 0.209911 -0.334413
v -0.214435 0.228557 -0.050832
v -0.214435 0.202237 -0.049101
v -0.306208 0.236252 0.066179
v -0.227341 0.233251 0.020551
v -0.306208 0.209931 0.067910
v -0.305812 0.245201 0.202856
v -0.305812 0.054624 0.215387
v -0.306208 -0.009955 0.082369
v -0.268583 0.017726 0.158188
v -0.246346 -0.005716 0.118234
v -0.174191 0.000271 0.176140
v -0.227341 0.206931 0.022282
v -0.191318 0.207365 0.028882
v -0.177074 0.202736 -0.041508
v -0.191317 0.265232 0.025075
v -0.209329 0.265014 0.021766
v -0.177074 0.260603 -0.045314
v -0.195745 0.260354 -0.049111
v -0.077411 -0.045081 0.125542
v -0.056456 -0.013983 0.201151
v 0.238517 -0.046616 -0.011744
v 0.327197 -0.068504 -0.091325
v 0.240241 -0.050480 -0.022182
v 0.248984 -0.052122 -0.028409
v 0.244851 -0.114176 -0.022610
v 0.259619 -0.050002 -0.026835
v 0.255492 -0.113426 -0.024380
v 0.327178 -0.129040 -0.087344
v 0.264250 -0.109651 -0.018272
v 0.265962 -0.104961 -0.007904
v 0.265961 -0.045398 -0.018360
v 0.327197 -0.005973 0.054199
v 0.265061 -0.041896 -0.009996
v 0.260502 -0.039922 -0.004003
v 0.250005 -0.040680 -0.001458
v 0.259649 -0.102477 0.000681
v 0.248976 -0.103450 0.002462
v 0.327178 -0.066509 0.058181
v 0.242433 -0.105784 -0.001282
v 0.242433 -0.043536 -0.005375
v 0.238318 -0.109451 -0.008615
v 0.239418 -0.112379 -0.016010
v -0.320380 -0.155911 0.021440
v -0.253067 -0.089701 0.002654
v 0.061149 -0.141905 0.010224
v 0.062175 -0.156542 0.011847
v 0.060113 -0.148760 0.130191
v -0.191317 -0.149726 0.115508
v -0.124923 -0.080346 0.095495
vn -0.0000 -0.9978 0.0656
vn 0.8366 0.0393 0.5463
vn 0.9999 0.0073 0.0078
vn 0.8733 0.0203 0.4867
vn -0.1727 -0.9009 0.3981
vn -0.1682 -0.9026 0.3963
vn 0.4584 0.0529 0.8872
vn -0.1686 -0.9017 0.3981
vn 0.5063 0.0619 0.8602
vn -0.2005 -0.8960 0.3963
vn 0.0109 0.0643 0.9979
vn 0.0054 0.0665 0.9978
vn -0.3813 0.0660 0.9221
vn -0.1682 -0.9022 0.3973
vn -0.4543 0.0471 0.8896
vn -0.1695 -0.9014 0.3984
vn -0.8203 0.0513 0.5696
vn -1.0000 0.0082 0.0031
vn -0.8764 0.0202 0.4811
vn -0.8884 -0.0326 -0.4580
vn -1.0000 0.0004 -0.0014
vn -0.8872 -0.0324 -0.4602
vn -0.1593 -0.9000 0.4057
vn -0.4491 -0.0665 -0.8910
vn -0.5488 -0.0480 -0.8346
vn -0.0088 -0.0599 -0.9982
vn 0.5781 -0.0428 -0.8149
vn 0.0078 -0.0634 -0.9980
vn 0.3913 -0.0692 -0.9177
vn -0.1778 -0.8948 0.4096
vn -0.0084 0.0673 0.9977
vn -0.3892 0.0591 0.9193
vn 0.0004 0.0625 0.9980
vn -0.0008 0.0642 0.9979
vn -0.8723 -0.0358 -0.4876
vn -0.8647 -0.0338 -0.5011
vn -0.5244 -0.0464 -0.8502
vn -0.4339 -0.0692 -0.8983
vn -0.6975 0.0448 0.7152
vn -0.9360 0.0167 0.3516
vn -0.7946 0.0468 0.6053
vn -1.0000 0.0087 0.0013
vn -0.2352 -0.8862 0.3992
vn -0.2384 -0.8860 0.3978
vn -0.2383 -0.8856 0.3987
vn -0.2498 -0.8784 0.4075
vn -0.2325 -0.8841 0.4054
vn -0.2538 -0.8785 0.4048
vn -0.2396 -0.8858 0.3974
vn -0.2465 -0.8830 0.3995
vn -0.2373 -0.8867 0.3969
vn -0.2366 -0.8860 0.3988
vn -0.2236 -0.8816 0.4157
vn 0.3863 0.0615 0.9203
vn -0.0001 0.0640 0.9980
vn 0.0001 0.0638 0.9980
vn 0.4800 0.0513 0.8758
vn 0.0044 -0.0684 -0.9976
vn 0.4591 -0.0633 -0.8861
vn 0.4030 -0.0573 -0.9134
vn 0.0005 -0.9978 0.0667
vn 0.3321 0.0633 0.9411
vn -0.0180 0.0670 0.9976
vn -0.0032 0.0644 0.9979
vn 0.3638 0.0593 0.9296
vn -0.1640 -0.8938 0.4174
vn -0.1662 -0.8945 0.4150
vn -0.1894 -0.8925 0.4093
vn -0.1968 -0.8912 0.4086
vn 0.4065 -0.0589 -0.9117
vn 0.4801 -0.0613 -0.8751
vn -0.0139 -0.0666 -0.9977
vn -0.2035 -0.8840 0.4209
vn -0.2182 -0.8885 0.4036
vn -0.2089 -0.8840 0.4182
vn -0.0167 -0.0662 -0.9977
vn -0.6294 -0.0548 -0.7751
vn -0.5538 -0.0501 -0.8311
vn -0.2298 -0.8861 0.4024
vn -0.9015 -0.0249 -0.4320
vn -0.9325 -0.0261 -0.3603
vn -1.0000 0.0011 0.0029
vn -1.0000 0.0023 0.0041
vn -0.8428 0.0331 0.5372
vn -0.2091 -0.8946 0.3949
vn -0.4669 0.0606 0.8823
vn -0.4291 0.0570 0.9014
vn -0.8342 0.0362 0.5503
vn 0.6995 -0.0422 -0.7133
vn 0.8844 -0.0363 -0.4653
vn 0.9369 -0.0203 -0.3490
vn -0.0003 -0.9978 0.0657
vn 1.0000 -0.0002 0.0048
vn 0.9053 0.0340 0.4235
vn 0.9999 -0.0040 0.0125
vn 0.7066 0.0478 0.7060
vn 0.7797 0.0333 0.6253
vn 0.8261 -0.0466 -0.5616
vn -0.0001 -0.9978 0.0656
vn 0.7272 -0.0398 -0.6853
vn 0.9452 -0.0118 -0.3262
vn -0.1991 -0.8988 0.3905
vn -0.2354 -0.8900 0.3906
vn -0.2027 -0.8968 0.3933
vn -0.1913 -0.9065 0.3764
vn -0.2182 -0.8990 0.3796
vn -0.2191 -0.8980 0.3814
vn -0.2318 -0.9021 0.3639
vn -0.2375 -0.8890 0.3916
vn -0.2348 -0.8901 0.3905
vn -0.2372 -0.8891 0.3915
vn -0.1525 -0.9115 0.3820
vn -0.1549 -0.9187 0.3634
vn -0.1316 -0.9145 0.3825
vn -0.2024 -0.9123 0.3561
vn -0.1009 -0.9156 0.3892
vn -0.1395 -0.9139 0.3813
vn -0.1104 -0.9153 0.3874
vn -0.0789 -0.9166 0.3918
vn -0.0716 -0.9237 0.3763
vn -0.0876 -0.9309 0.3546
vn -0.1663 -0.9145 0.3688
vn -0.0721 -0.9148 0.3975
vn 0.0031 -0.0707 -0.9975
vn -0.4821 -0.0381 -0.8753
vn 0.0039 -0.0755 -0.9971
vn -0.6483 -0.0782 -0.7574
vn 0.6352 0.0453 0.7711
vn 0.9999 0.0045 0.0107
vn 0.6339 0.0459 0.7720
vn -0.0673 -0.9169 0.3933
vn -0.0642 -0.9200 0.3866
vn -0.0637 0.0495 0.9967
vn 0.0670 0.0784 0.9947
vn -0.0624 -0.9139 0.4011
vn -0.9781 0.0178 0.2072
vn -0.6652 0.0429 0.7454
vn -0.9784 0.0123 0.2063
vn -0.0670 -0.9140 0.4002
vn -0.6064 0.0666 0.7924
vn 1.0000 -0.0033 0.0093
vn -0.0644 -0.9003 0.4305
vn 0.8941 0.0381 0.4463
vn -0.0654 -0.9058 0.4186
vn -0.0139 -0.8981 0.4395
vn 0.3661 0.0703 0.9279
vn 0.6970 0.0334 0.7163
vn -0.1009 -0.9070 0.4089
vn -0.0160 0.0664 0.9977
vn -0.0041 0.0588 0.9983
vn -0.7293 0.0506 0.6823
vn -0.1102 -0.9052 0.4105
vn -0.1353 -0.9051 0.4032
vn -0.1279 -0.9108 0.3925
vn -0.1337 -0.9049 0.4040
vn -1.0000 0.0041 -0.0004
vn -0.7968 0.0345 0.6032
vn 0.0003 -0.9978 0.0656
vn -0.9998 -0.0196 -0.0040
vn -0.1470 -0.9039 0.4017
vn 1.0000 0.0078 0.0034
vn -0.1455 -0.9037 0.4027
vn 0.8316 0.0465 0.5535
vn 0.9133 0.0163 0.4069
vn 0.9999 -0.0142 -0.0018
vn 0.9124 -0.0027 -0.4094
vn 0.8285 -0.0645 -0.5563
vn 0.4321 -0.0657 -0.8994
vn 0.5019 -0.0376 -0.8641
vn -0.1454 -0.9031 0.4042
vn -0.1452 -0.9039 0.4024
vn 0.4938 0.0505 0.8681
vn -0.1155 -0.9084 0.4018
vn 0.4238 0.0625 0.9036
vn -0.1699 -0.8962 0.4098
vn -0.1739 -0.8933 0.4144
vn -0.1384 -0.8926 0.4292
vn -0.1079 -0.8980 0.4266
vn -0.2286 0.0598 0.9717
vn -0.2074 0.0642 0.9761
vn -0.0484 -0.9021 0.4288
vn -0.0424 -0.8988 0.4363
vn -0.0483 -0.8996 0.4340
vn -0.0264 -0.9007 0.4336
vn -0.0038 -0.9027 0.4302
vn 0.0032 -0.8943 0.4475
vn -0.0013 -0.8940 0.4480
vn 0.0787 -0.8976 0.4337
vn -0.0156 -0.9017 0.4320
vn 0.0224 -0.9014 0.4324
vn 0.3837 0.0687 0.9209
vn 0.8288 0.0258 0.5590
vn 0.9119 0.0314 0.4092
vn 0.0001 -0.9978 0.0656
vn 0.9782 0.0146 -0.2070
vn 0.9777 -0.0162 -0.2096
vn 0.9783 -0.0136 -0.2065
vn 0.0142 -0.9029 0.4295
vn 0.0087 -0.9104 0.4137
vn -0.0492 -0.9146 0.4014
vn 0.9678 0.0171 0.2510
vn 0.9846 -0.0109 -0.1744
vn 0.9677 0.0161 0.2516
vn 0.0099 -0.9057 0.4238
vn 0.0237 -0.9203 0.3904
vn 0.9846 -0.0110 -0.1744
vn 0.9557 -0.0187 -0.2938
vn 0.0145 -0.9318 0.3628
vn 0.0018 -0.9250 0.3798
vn 0.9558 -0.0194 -0.2932
vn 0.9330 -0.0238 -0.3591
vn 0.0142 -0.9268 0.3754
vn 0.9224 -0.0254 -0.3855
vn 0.9333 -0.0246 -0.3584
vn -0.0217 -0.9378 0.3464
vn 0.0390 -0.0656 -0.9971
vn -0.0630 -0.9312 0.3590
vn -0.0827 -0.9357 0.3429
vn 0.0391 -0.0656 -0.9971
vn 0.1286 -0.0654 -0.9895
vn -0.1183 -0.9306 0.3465
vn -0.1269 -0.0646 -0.9898
vn 0.1286 -0.0655 -0.9895
vn -0.1593 -0.9151 0.3705
vn -0.2017 -0.9158 0.3474
vn -0.1391 -0.9251 0.3533
vn -0.1268 -0.0651 -0.9898
vn -0.0063 -0.0656 -0.9978
vn -0.1748 -0.9126 0.3695
vn 0.0074 -0.0656 -0.9978
vn -0.0063 -0.0657 -0.9978
vn -0.1225 -0.9136 0.3877
vn -0.1917 -0.9066 0.3760
vn -0.0597 -0.0684 -0.9959
vn -0.0305 -0.0454 -0.9985
vn 0.0066 -0.0639 -0.9979
vn -0.0716 -0.9147 0.3978
vn -0.1206 -0.9139 0.3876
vn -0.0998 -0.9021 0.4197
vn -0.1327 -0.8976 0.4205
vn -0.1058 -0.9013 0.4201
vn -1.0000 0.0017 -0.0006
vn -1.0000 0.0019 -0.0009
vn -0.1125 -0.8990 0.4232
vn -0.0920 -0.9037 0.4182
vn -0.6711 -0.0506 -0.7397
vn -0.7160 -0.0425 -0.6968
vn -0.3856 -0.0616 -0.9206
vn -0.3369 -0.0579 -0.9398
vn -0.4755 0.0520 0.8782
vn -0.8940 0.0285 0.4471
vn -0.6042 0.0567 0.7948
vn -0.9000 0.0266 0.4350
vn -0.1148 -0.8983 0.4242
vn -0.1063 -0.8999 0.4230
vn -0.5727 0.0535 0.8180
vn -0.5674 0.0552 0.8216
vn -0.1111 -0.8989 0.4237
vn -0.1388 0.0652 0.9882
vn -0.1914 -0.8896 0.4148
vn -0.1387 0.0651 0.9882
vn -0.1366 -0.8942 0.4264
vn 0.0007 0.9975 -0.0707
vn 0.0012 0.9975 -0.0706
vn -0.2272 0.0642 0.9717
vn -0.2282 0.0637 0.9715
vn 0.1363 -0.0650 -0.9885
vn 0.1379 -0.0653 -0.9883
vn 0.2246 -0.0637 -0.9724
vn 0.2234 -0.0643 -0.9726
vn 0.0007 0.9975 -0.0708
vn 0.0011 0.9975 -0.0705
vn 0.2315 -0.0662 -0.9706
vn 0.2244 -0.0594 -0.9727
vn 0.2035 -0.0643 -0.9770
vn 0.2143 -0.0652 -0.9746
vn 0.0010 0.9975 -0.0704
vn 0.9241 0.0251 0.3813
vn -0.2137 0.0641 0.9748
vn -0.2179 0.0651 0.9738
vn 0.2102 -0.0641 -0.9755
vn 0.9303 0.0136 0.3665
vn 0.0152 0.8552 -0.5181
vn -0.0337 0.8588 -0.5111
vn -0.0041 0.9069 -0.4214
vn 0.0699 0.8670 -0.4934
vn 0.1051 0.8911 -0.4415
vn -0.0093 0.9057 -0.4239
vn 0.0306 0.9048 -0.4247
vn 0.0418 0.8726 -0.4866
vn 0.0265 0.9063 -0.4218
vn -0.0052 0.9072 -0.4206
vn -0.0000 0.0656 0.9978
vn 0.0915 0.9341 -0.3452
vn -0.2041 0.9177 -0.3409
vn -0.2034 0.9124 -0.3551
vn -0.1843 0.9201 -0.3455
vn -0.0000 -0.0656 -0.9978
vn -0.1851 0.9252 -0.3312
vn 0.1158 0.9147 -0.3872
vn 0.0097 0.9161 -0.4008
vn 0.0632 0.9403 -0.3344
vn 0.0921 0.9347 -0.3434
vn 0.1190 0.9165 -0.3820
vn 0.0153 0.9397 -0.3415
vn -0.0203 0.9337 -0.3575
vn -0.0182 0.9240 -0.3820
vn 0.1171 0.9353 -0.3340
vn 0.1599 0.9237 -0.3481
vn 0.1287 0.9161 -0.3797
vn 0.1274 0.9164 -0.3794
vn 0.1948 0.9089 -0.3688
vn 0.2259 0.9131 -0.3395
vn 0.1291 0.9166 -0.3784
vn 0.1868 0.8968 -0.4010
vn 0.2271 0.8989 -0.3747
vn 0.2326 0.8896 -0.3930
vn 0.2275 0.8888 -0.3978
vn 0.2411 0.9001 -0.3628
vn 0.1654 0.9178 -0.3609
vn 0.1728 0.9049 -0.3890
vn 0.1766 0.9038 -0.3897
vn 0.1763 0.9135 -0.3666
vn 0.1902 0.9085 -0.3720
vn 0.1844 0.9172 -0.3532
vn 0.1589 0.9161 -0.3681
vn 0.1534 0.9038 -0.3995
vn 0.1218 0.9136 -0.3879
vn 1.0000 -0.0000 -0.0001
vn 1.0000 -0.0000 -0.0002
vn 0.1250 0.9144 -0.3851
vn 0.1287 0.9143 -0.3839
vn 1.0000 0.0001 -0.0000
vn 1.0000 -0.0000 -0.0000
vn -0.0002 0.9978 -0.0656
vn -0.0000 0.9978 -0.0656
vn -0.0002 -0.0656 -0.9978
vn -1.0000 0.0012 -0.0002
vn 0.3179 -0.0622 -0.9461
vn 0.5016 0.0568 0.8632
vn 1.0000 -0.0002 -0.0029
vn 0.0016 0.9979 -0.0653
vn 0.5613 -0.0543 -0.8259
vn 0.0034 0.9975 -0.0706
vn 0.0010 0.9976 -0.0691
vn 0.2144 0.8784 -0.4271
vn 0.1872 0.8892 -0.4175
vn 1.0000 0.0001 0.0001
vn 0.1986 0.8781 -0.4353
vn 0.2078 0.8863 -0.4139
vn 0.2435 0.8858 -0.3950
vn 0.2436 0.8847 -0.3975
vn 0.2901 0.8452 -0.4488
vn 0.0949 0.8808 -0.4639
vn 0.2572 0.8380 -0.4813
vn 0.1630 0.8698 -0.4657
vn 0.0427 0.8520 -0.5218
vn 0.2019 0.8517 -0.4836
vn 0.5612 -0.0543 -0.8259
vn -0.1806 0.0645 0.9814
vn 0.9802 0.0130 0.1975
vn -0.1804 0.0648 0.9815
vn -0.1811 0.0646 0.9813
vn 0.1996 -0.0643 -0.9778
vn 0.1997 -0.0645 -0.9777
vn -0.8410 0.5049 -0.1944
vn -0.8516 0.4900 -0.1862
vn 0.1651 0.8696 -0.4653
vn 0.1807 0.8966 -0.4043
vn 0.1334 0.9030 -0.4084
vn 0.1291 0.9076 -0.3995
vn 0.1273 0.9058 -0.4041
vn 0.2425 0.8717 -0.4258
vn 0.0607 0.8732 -0.4836
vn 0.1952 0.8531 -0.4839
vn 0.1485 0.8509 -0.5038
vn 0.1051 0.9185 -0.3812
vn 0.0973 0.9307 -0.3527
vn -0.1533 0.9182 -0.3652
vn -0.1515 0.9179 -0.3668
vn -0.1251 0.9111 -0.3928
vn -0.1166 0.9077 -0.4031
vn 0.1580 0.0814 0.9841
vn 0.5843 0.0368 0.8107
vn -0.1238 0.9119 -0.3914
vn -0.1556 0.0483 0.9866
vn 0.1265 -0.9200 0.3708
vn 0.1260 -0.9198 0.3715
vn 0.1319 -0.9166 0.3774
vn -0.5906 0.0696 0.8040
vn 0.1452 -0.9102 0.3878
vn -0.9882 0.0265 0.1511
vn -0.8062 0.0223 0.5912
vn -0.1228 0.9118 -0.3918
vn -0.1193 0.9112 -0.3944
vn -0.1297 0.9088 -0.3966
vn -0.9949 -0.0175 -0.0998
vn -0.1215 0.9117 -0.3925
vn -0.8005 -0.0313 -0.5986
vn -0.1537 0.9200 -0.3605
vn -0.2303 -0.0695 -0.9706
vn -0.8097 -0.0328 -0.5859
vn -0.1591 -0.0589 -0.9855
vn 0.1484 -0.9073 0.3933
vn 0.1603 -0.9105 0.3812
vn 0.1478 -0.9072 0.3940
vn 1.0000 -0.0003 0.0001
vn 0.1492 -0.9085 0.3904
vn 0.1195 -0.9228 0.3663
vn 0.5109 -0.0564 -0.8578
vn 0.4771 -0.0626 -0.8766
vn -0.1407 0.9225 -0.3595
vn -0.1540 0.9160 -0.3704
vn 0.8586 -0.0336 -0.5116
vn 0.1370 -0.9146 0.3805
vn 0.8774 -0.0266 -0.4790
vn 0.1157 -0.9175 0.3804
vn 0.1246 -0.9197 0.3724
vn 0.9869 0.0049 0.1611
vn 0.9892 0.0015 0.1466
vn 0.1343 -0.9225 0.3618
vn 0.7779 0.0521 0.6262
vn -0.1494 0.9187 -0.3657
vn -0.1848 -0.8906 0.4155
vn -1.0000 -0.0000 -0.0020
vn -0.0175 0.0702 0.9974
vn -1.0000 -0.0006 -0.0025
vn -0.9275 -0.0264 -0.3729
vn -0.9199 -0.0258 -0.3914
vn 0.0013 -0.0661 -0.9978
vn -0.1409 -0.9029 0.4060
vn 0.0046 -0.0687 -0.9976
vn -0.2116 -0.8914 0.4009
vn 0.9309 0.0235 0.3644
vn -0.0492 -0.9209 0.3867
vn -0.0490 -0.9213 0.3857
vn -0.0383 -0.9213 0.3869
vn -0.0510 -0.9174 0.3947
vn 0.4253 -0.0702 -0.9023
vn 0.7530 -0.0201 -0.6577
vn 0.8407 -0.0717 -0.5367
vn 0.4412 -0.0582 -0.8955
vn 0.0142 0.0543 0.9984
vn -0.6126 0.0485 0.7889
vn -0.0207 0.0677 0.9975
vn -0.6298 0.0501 0.7751
vn -0.2349 0.0659 0.9698
vn -0.1834 -0.8909 0.4155
vn -0.9250 0.0009 -0.3799
vn 0.0037 -0.0679 -0.9977
vn 0.0047 -0.0722 -0.9974
vn -0.0024 -0.0631 -0.9980
vn -0.2551 -0.8703 0.4213
vn 1.0000 0.0063 0.0057
vn 0.9999 -0.0100 -0.0030
vn -0.2359 -0.8864 0.3984
vn 0.8928 0.0216 0.4498
vn 0.7920 0.0473 0.6086
vn -0.4306 0.0612 0.9005
vn -1.0000 -0.0018 -0.0038
vn 0.9270 -0.0147 -0.3747
vn 0.0002 -0.9978 0.0655
vn 0.8195 -0.0482 -0.5711
vn 1.0000 -0.0044 -0.0005
vn -0.1961 -0.8969 0.3963
vn -0.1756 -0.9036 0.3908
s 0
usemtl Material.030
f 6//2 1//2 3//2
f 1//3 5//3 4//3
f 5//4 1//4 6//4
f 7//5 10//5 6//5
f 9//6 7//6 6//6
f 6//7 11//7 8//7
f 9//8 6//8 8//8
f 6//9 3//9 11//9
f 10//10 5//10 6//10
f 14//11 11//11 13//11
f 11//12 14//12 8//12
f 14//13 13//13 16//13
f 9//14 8//14 14//14
f 16//15 15//15 14//15
f 9//16 14//16 15//16
f 17//17 15//17 16//17
f 19//18 9//18 17//18
f 17//19 9//19 15//19
f 21//20 19//20 20//20
f 9//21 19//21 7//21
f 19//22 21//22 7//22
f 22//23 7//23 21//23
f 21//24 23//24 22//24
f 23//25 21//25 20//25
f 24//26 22//26 23//26
f 10//27 24//27 25//27
f 22//28 24//28 27//28
f 27//29 24//29 10//29
f 10//30 22//30 27//30
f 28//31 26//31 30//31
f 28//32 31//32 26//32
f 29//33 26//33 18//33
f 30//34 26//34 29//34
f 33//35 34//35 32//35
f 35//36 32//36 34//36
f 36//37 32//37 35//37
f 32//38 36//38 2//38
f 31//39 39//39 37//39
f 40//40 38//40 37//40
f 40//41 37//41 39//41
f 34//42 38//42 40//42
f 39//43 42//43 40//43
f 34//44 40//44 41//44
f 42//45 41//45 40//45
f 43//46 44//46 42//46
f 30//47 43//47 42//47
f 42//48 44//48 46//48
f 28//49 30//49 42//49
f 41//50 42//50 45//50
f 46//51 45//51 42//51
f 28//52 42//52 39//52
f 46//53 44//53 47//53
f 49//54 45//54 46//54
f 47//55 48//55 46//55
f 46//56 48//56 49//56
f 45//57 49//57 52//57
f 57//58 59//58 56//58
f 56//59 58//59 60//59
f 58//60 56//60 59//60
f 66//62 61//62 64//62
f 65//63 64//63 63//63
f 64//64 65//64 66//64
f 61//65 66//65 67//65
f 66//66 68//66 67//66
f 69//67 68//67 66//67
f 70//68 69//68 66//68
f 65//69 70//69 66//69
f 71//70 70//70 54//70
f 70//71 71//71 72//71
f 74//72 54//72 70//72
f 69//73 70//73 72//73
f 73//74 70//74 65//74
f 73//75 74//75 70//75
f 54//76 74//76 51//76
f 75//77 53//77 74//77
f 51//78 74//78 53//78
f 74//79 73//79 75//79
f 53//80 75//80 50//80
f 73//81 50//81 75//81
f 76//74 73//74 65//74
f 76//82 50//82 73//82
f 50//83 76//83 55//83
f 77//84 55//84 76//84
f 65//85 77//85 76//85
f 77//86 63//86 62//86
f 63//87 77//87 65//87
f 55//88 77//88 62//88
f 72//89 71//89 78//89
f 78//90 69//90 72//90
f 79//91 69//91 78//91
f 80//93 69//93 79//93
f 68//94 80//94 81//94
f 69//95 80//95 68//95
f 67//96 81//96 61//96
f 81//97 67//97 68//97
f 83//98 82//98 60//98
f 83//100 60//100 58//100
f 82//101 83//101 84//101
f 83//102 85//102 84//102
f 58//103 85//103 83//103
f 58//104 86//104 85//104
f 85//105 86//105 88//105
f 87//106 36//106 85//106
f 89//107 87//107 85//107
f 88//108 89//108 85//108
f 34//109 84//109 85//109
f 35//110 85//110 36//110
f 34//111 85//111 35//111
f 92//112 87//112 89//112
f 92//113 89//113 90//113
f 90//114 89//114 91//114
f 91//115 89//115 88//115
f 93//116 92//116 94//116
f 93//117 96//117 92//117
f 94//118 92//118 98//118
f 95//119 98//119 92//119
f 97//120 95//120 92//120
f 97//121 92//121 90//121
f 92//122 96//122 87//122
f 99//123 98//123 95//123
f 100//124 98//124 99//124
f 98//125 100//125 94//125
f 100//126 99//126 103//126
f 101//127 94//127 100//127
f 109//128 106//128 102//128
f 106//129 108//129 107//129
f 108//130 106//130 109//130
f 109//131 112//131 108//131
f 112//132 109//132 110//132
f 111//133 110//133 109//133
f 109//134 102//134 111//134
f 113//135 115//135 112//135
f 112//136 114//136 113//136
f 110//137 116//137 112//137
f 114//138 112//138 116//138
f 115//139 108//139 112//139
f 116//140 110//140 111//140
f 107//141 108//141 115//141
f 113//142 117//142 115//142
f 117//143 107//143 115//143
f 113//144 118//144 117//144
f 118//145 119//145 117//145
f 105//146 117//146 119//146
f 117//147 105//147 107//147
f 119//148 118//148 120//148
f 104//149 119//149 120//149
f 119//150 104//150 105//150
f 123//151 104//151 120//151
f 118//152 121//152 120//152
f 122//153 120//153 121//153
f 122//154 123//154 120//154
f 93//155 123//155 122//155
f 93//156 124//156 123//156
f 123//157 124//157 104//157
f 93//159 101//159 124//159
f 125//160 93//160 122//160
f 128//161 125//161 122//161
f 121//162 126//162 122//162
f 127//163 122//163 126//163
f 128//164 122//164 127//164
f 125//165 128//165 129//165
f 125//166 129//166 130//166
f 130//167 129//167 131//167
f 96//168 131//168 12//168
f 131//169 96//169 130//169
f 130//170 93//170 125//170
f 130//171 96//171 93//171
f 126//172 18//172 127//172
f 121//173 29//173 126//173
f 18//174 126//174 29//174
f 29//175 121//175 30//175
f 121//176 132//176 30//176
f 133//177 132//177 121//177
f 118//178 133//178 121//178
f 133//179 135//179 134//179
f 133//180 134//180 132//180
f 135//181 133//181 136//181
f 136//182 133//182 113//182
f 113//183 133//183 118//183
f 140//184 136//184 113//184
f 137//185 136//185 138//185
f 137//186 139//186 136//186
f 139//187 135//187 136//187
f 136//188 142//188 138//188
f 141//189 136//189 140//189
f 136//190 141//190 142//190
f 143//191 142//191 141//191
f 144//192 142//192 143//192
f 144//193 138//193 142//193
f 145//195 146//195 144//195
f 144//196 146//196 147//196
f 144//197 147//197 138//197
f 149//198 138//198 147//198
f 149//199 147//199 148//199
f 146//200 148//200 147//200
f 151//201 149//201 150//201
f 150//202 149//202 152//202
f 137//203 149//203 151//203
f 149//204 137//204 138//204
f 149//205 148//205 152//205
f 150//206 152//206 153//206
f 153//207 152//207 154//207
f 154//208 152//208 97//208
f 148//209 97//209 152//209
f 153//210 154//210 155//210
f 154//211 156//211 155//211
f 154//212 97//212 156//212
f 156//213 157//213 158//213
f 156//213 159//213 157//213
f 155//214 156//214 158//214
f 156//215 97//215 159//215
f 159//216 160//216 157//216
f 159//217 90//217 160//217
f 159//218 97//218 90//218
f 160//219 161//219 157//219
f 160//220 162//220 161//220
f 160//221 90//221 162//221
f 162//222 164//222 163//222
f 162//223 163//223 161//223
f 162//224 88//224 164//224
f 162//225 91//225 88//225
f 90//226 91//226 162//226
f 164//227 165//227 163//227
f 164//228 166//228 165//228
f 164//229 88//229 166//229
f 166//230 168//230 167//230
f 166//231 167//231 165//231
f 166//232 86//232 168//232
f 88//233 86//233 166//233
f 168//234 169//234 170//234
f 168//235 171//235 169//235
f 168//236 170//236 167//236
f 168//237 172//237 171//237
f 86//238 172//238 168//238
f 173//239 172//239 174//239
f 172//240 173//240 175//240
f 174//241 172//241 178//241
f 176//242 171//242 172//242
f 176//243 172//243 175//243
f 86//244 177//244 172//244
f 178//245 172//245 177//245
f 179//246 178//246 180//246
f 179//247 174//247 178//247
f 180//248 178//248 57//248
f 177//249 57//249 178//249
f 48//250 183//250 181//250
f 181//251 184//251 182//251
f 185//252 181//252 183//252
f 184//253 181//253 185//253
f 186//254 185//254 183//254
f 186//255 184//255 185//255
f 186//256 187//256 176//256
f 175//257 186//257 176//257
f 175//258 184//258 186//258
f 186//259 188//259 187//259
f 47//260 44//260 186//260
f 44//261 188//261 186//261
f 47//262 186//262 183//262
f 189//263 187//263 188//263
f 134//264 189//264 188//264
f 43//265 188//265 44//265
f 43//266 134//266 188//266
f 190//267 193//267 189//267
f 192//268 190//268 189//268
f 191//269 189//269 194//269
f 191//270 192//270 189//270
f 189//271 193//271 187//271
f 194//272 189//272 134//272
f 197//273 191//273 194//273
f 195//274 194//274 196//274
f 195//275 197//275 194//275
f 196//276 194//276 198//276
f 199//272 194//272 134//272
f 198//277 194//277 199//277
f 139//278 198//278 199//278
f 135//279 139//279 199//279
f 135//280 199//280 134//280
f 196//281 198//281 200//281
f 139//278 200//278 198//278
f 139//282 151//282 200//282
f 200//283 201//283 196//283
f 151//284 201//284 200//284
f 150//285 201//285 151//285
f 201//286 195//286 196//286
f 201//287 202//287 195//287
f 150//288 202//288 201//288
f 202//289 204//289 203//289
f 202//290 203//290 195//290
f 202//291 205//291 204//291
f 150//292 205//292 202//292
f 205//293 150//293 206//293
f 205//293 206//293 208//293
f 205//293 208//293 207//293
f 205//294 207//294 204//294
f 208//295 210//295 207//295
f 206//296 209//296 208//296
f 209//297 210//297 208//297
f 153//298 210//298 209//298
f 153//298 212//298 210//298
f 210//299 211//299 207//299
f 212//298 211//298 210//298
f 213//300 211//300 212//300
f 153//301 213//301 212//301
f 157//302 161//302 213//302
f 213//303 161//303 214//303
f 213//304 214//304 211//304
f 158//305 157//305 213//305
f 153//306 155//306 213//306
f 155//307 158//307 213//307
f 161//308 163//308 214//308
f 214//309 163//309 215//309
f 214//310 215//310 211//310
f 211//311 215//311 217//311
f 215//312 216//312 217//312
f 163//313 216//313 215//313
f 211//314 217//314 218//314
f 218//315 217//315 219//315
f 217//316 216//316 221//316
f 217//317 220//317 219//317
f 217//318 221//318 220//318
f 216//319 224//319 221//319
f 220//320 221//320 222//320
f 221//321 223//321 222//321
f 224//322 223//322 221//322
f 165//323 167//323 224//323
f 224//324 167//324 223//324
f 163//325 224//325 216//325
f 163//326 165//326 224//326
f 223//327 225//327 222//327
f 167//328 225//328 223//328
f 222//329 225//329 226//329
f 225//330 169//330 226//330
f 167//331 170//331 225//331
f 170//332 169//332 225//332
f 222//333 226//333 227//333
f 227//334 226//334 228//334
f 228//335 226//335 176//335
f 226//336 229//336 176//336
f 169//298 229//298 226//298
f 171//337 229//337 169//337
f 176//338 229//338 171//338
f 230//336 228//336 232//336
f 231//339 228//339 230//339
f 227//339 228//339 231//339
f 228//335 176//335 232//335
f 230//336 232//336 233//336
f 234//340 233//340 232//340
f 235//341 234//341 232//341
f 235//342 232//342 176//342
f 236//341 237//341 235//341
f 236//343 235//343 193//343
f 235//341 237//341 234//341
f 193//344 235//344 187//344
f 187//345 235//345 176//345
f 238//346 237//346 236//346
f 239//347 237//347 238//347
f 237//334 227//334 234//334
f 237//348 222//348 227//348
f 220//349 237//349 239//349
f 220//350 222//350 237//350
f 219//351 239//351 240//351
f 219//352 220//352 239//352
f 240//353 239//353 192//353
f 192//354 239//354 238//354
f 191//355 240//355 192//355
f 219//356 240//356 191//356
f 238//357 236//357 190//357
f 192//358 238//358 190//358
f 236//359 193//359 190//359
f 241//340 233//340 234//340
f 241//1 234//1 227//1
f 231//1 241//1 227//1
f 242//360 233//360 241//360
f 242//1 241//1 231//1
f 242//361 243//361 246//361
f 243//1 242//1 231//1
f 242//362 245//362 233//362
f 242//363 244//363 245//363
f 242//361 246//361 244//361
f 246//336 247//336 245//336
f 246//336 245//336 244//336
f 243//364 230//364 246//364
f 230//365 247//365 246//365
f 245//366 247//366 230//366
f 245//367 230//367 233//367
f 231//364 230//364 243//364
f 248//368 219//368 191//368
f 218//369 219//369 248//369
f 203//370 248//370 249//370
f 203//371 204//371 248//371
f 204//372 218//372 248//372
f 249//373 248//373 191//373
f 203//374 249//374 195//374
f 249//375 191//375 197//375
f 195//376 249//376 197//376
f 207//377 211//377 218//377
f 204//378 207//378 218//378
f 153//298 209//298 251//298
f 252//379 209//379 250//379
f 250//380 209//380 206//380
f 251//381 209//381 253//381
f 253//382 209//382 252//382
f 254//383 256//383 253//383
f 254//384 253//384 252//384
f 251//385 253//385 255//385
f 256//386 255//386 253//386
f 256//387 254//387 153//387
f 257//388 256//388 153//388
f 257//389 258//389 256//389
f 256//390 258//390 255//390
f 257//391 259//391 258//391
f 260//392 258//392 259//392
f 260//393 255//393 258//393
f 251//394 260//394 261//394
f 261//395 260//395 262//395
f 251//396 255//396 260//396
f 262//397 260//397 259//397
f 261//398 262//398 263//398
f 263//399 262//399 259//399
f 261//400 263//400 264//400
f 265//401 264//401 263//401
f 263//402 259//402 265//402
f 266//403 264//403 265//403
f 267//404 266//404 265//404
f 267//405 265//405 259//405
f 267//406 150//406 266//406
f 150//293 267//293 206//293
f 267//407 251//407 261//407
f 267//407 257//407 251//407
f 267//293 261//293 206//293
f 267//408 259//408 257//408
f 266//409 150//409 268//409
f 268//410 269//410 266//410
f 266//411 269//411 264//411
f 269//412 250//412 206//412
f 264//413 269//413 206//413
f 268//414 250//414 269//414
f 268//415 150//415 270//415
f 268//416 270//416 250//416
f 271//417 270//417 153//417
f 270//418 150//418 153//418
f 270//419 252//419 250//419
f 270//420 271//420 252//420
f 254//421 271//421 153//421
f 271//422 254//422 252//422
f 261//423 264//423 206//423
f 153//298 251//298 257//298
f 173//424 184//424 175//424
f 173//425 182//425 184//425
f 183//426 48//426 47//426
f 182//427 173//427 272//427
f 272//428 173//428 179//428
f 174//429 179//429 173//429
f 57//430 177//430 273//430
f 273//431 177//431 86//431
f 57//432 273//432 59//432
f 59//433 273//433 86//433
f 139//434 137//434 151//434
f 274//435 148//435 146//435
f 99//436 148//436 274//436
f 148//437 95//437 97//437
f 99//438 95//438 148//438
f 275//439 99//439 274//439
f 146//440 275//440 274//440
f 275//441 146//441 145//441
f 99//442 275//442 103//442
f 143//443 141//443 276//443
f 276//444 140//444 114//444
f 276//445 141//445 140//445
f 113//446 114//446 140//446
f 132//447 134//447 43//447
f 132//448 43//448 30//448
f 94//449 101//449 93//449
f 2//450 96//450 12//450
f 2//451 87//451 96//451
f 2//452 36//452 87//452
f 58//453 59//453 86//453
f 277//454 84//454 41//454
f 82//455 84//455 277//455
f 41//456 84//456 34//456
f 41//457 52//457 277//457
f 45//458 52//458 41//458
f 31//459 28//459 39//459
f 34//460 33//460 38//460
f 4//461 278//461 25//461
f 25//463 278//463 10//463
f 4//464 5//464 278//464
f 5//465 10//465 278//465
f 7//466 22//466 10//466
usemtl Material.029
f 1//1 2//1 3//1
f 2//1 1//1 4//1
f 11//1 2//1 12//1
f 3//1 2//1 11//1
f 11//1 12//1 13//1
f 16//1 12//1 17//1
f 13//1 12//1 16//1
f 18//1 19//1 17//1
f 17//1 12//1 18//1
f 18//1 20//1 19//1
f 18//1 23//1 20//1
f 18//1 24//1 23//1
f 26//1 24//1 18//1
f 26//1 25//1 24//1
f 26//1 2//1 25//1
f 26//1 32//1 2//1
f 31//1 32//1 26//1
f 37//1 33//1 32//1
f 37//1 32//1 31//1
f 38//1 33//1 37//1
f 49//1 50//1 55//1
f 49//1 53//1 50//1
f 49//1 51//1 53//1
f 49//1 54//1 51//1
f 48//1 54//1 49//1
f 49//1 56//1 52//1
f 55//1 56//1 49//1
f 61//1 57//1 56//1
f 52//1 56//1 60//1
f 61//61 56//61 64//61
f 62//1 56//1 55//1
f 63//1 56//1 62//1
f 64//1 56//1 63//1
f 78//92 57//92 79//92
f 48//1 78//1 71//1
f 48//1 57//1 78//1
f 57//1 80//1 79//1
f 80//1 57//1 81//1
f 81//1 57//1 61//1
f 48//1 71//1 54//1
f 52//99 60//99 82//99
f 104//1 101//1 100//1
f 102//1 100//1 103//1
f 106//1 100//1 102//1
f 104//1 100//1 105//1
f 105//1 100//1 106//1
f 105//1 106//1 107//1
f 116//1 103//1 114//1
f 111//1 103//1 116//1
f 124//158 101//158 104//158
f 127//1 129//1 128//1
f 127//1 131//1 129//1
f 127//1 12//1 131//1
f 18//1 12//1 127//1
f 143//194 145//194 144//194
f 181//1 179//1 180//1
f 48//1 180//1 57//1
f 181//1 180//1 48//1
f 182//1 179//1 181//1
f 182//1 272//1 179//1
f 143//1 275//1 145//1
f 276//1 275//1 143//1
f 276//1 103//1 275//1
f 114//1 103//1 276//1
f 102//1 103//1 111//1
f 52//1 82//1 277//1
f 25//462 2//462 4//462
