# Blender 5.0.1
# www.blender.org
mtllib torso_y_link_visual_60.mtl
o i01.torso.full.067_visual.001
v -0.053185 -0.047009 0.220387
v -0.040370 -0.023597 0.220117
v -0.044292 -0.009459 0.222480
v -0.053527 -0.001157 0.225354
v -0.082902 -0.004246 0.231380
v -0.091245 -0.016514 0.231881
v -0.091599 -0.031286 0.230376
v -0.067815 0.002519 0.228854
v -0.043304 -0.035968 0.219431
v -0.084450 -0.043975 0.227482
v -0.069428 -0.050813 0.223504
v -0.045548 -0.041717 0.217350
v -0.054471 -0.049217 0.218718
v -0.066192 -0.052249 0.220693
v -0.059256 -0.042766 0.179513
v -0.069412 -0.047607 0.181194
v -0.080532 -0.047755 0.183583
v -0.069297 -0.063522 0.179472
v -0.054222 -0.058432 0.176749
v -0.082548 -0.063695 0.182317
v -0.077204 -0.063605 0.175358
v -0.090227 -0.061434 0.178407
v -0.094714 -0.059717 0.185374
v -0.107293 -0.050689 0.189059
v -0.104349 -0.053961 0.182244
v -0.090833 -0.043733 0.186238
v -0.087512 -0.043384 0.226214
v -0.077343 -0.050539 0.223287
v -0.098459 -0.035679 0.188749
v -0.092808 -0.034318 0.228362
v -0.115390 -0.037072 0.192263
v -0.101977 -0.027451 0.190389
v -0.094731 -0.022720 0.229858
v -0.102726 -0.018455 0.191508
v -0.118022 -0.026854 0.193921
v -0.118160 -0.016235 0.195084
v -0.119438 -0.016591 0.189509
v -0.119077 -0.027200 0.188298
v -0.115172 -0.039988 0.186090
v -0.121785 -0.027098 0.188897
v -0.138625 -0.026159 0.179071
v -0.134616 -0.042577 0.176452
v -0.116165 -0.043895 0.185888
v -0.121445 -0.011694 0.190467
v -0.138375 -0.009638 0.180781
v -0.163628 0.012323 0.188584
v -0.168834 -0.008358 0.187504
v -0.133286 0.006700 0.181422
v -0.117380 0.000357 0.190872
v -0.156588 0.027348 0.188666
v -0.122556 0.023445 0.180890
v -0.106164 0.035726 0.178655
v -0.125120 0.060130 0.185356
v -0.106567 0.015483 0.190153
v -0.144206 0.044346 0.187801
v -0.131616 0.061360 0.163636
v -0.147224 0.048299 0.165622
v -0.160251 0.031810 0.166677
v -0.170141 0.074933 0.173418
v -0.168875 0.013287 0.166565
v -0.173452 -0.005874 0.165510
v -0.179219 -0.012129 0.143708
v -0.173994 -0.028417 0.163240
v -0.179554 -0.021498 0.142785
v -0.176806 -0.102495 0.155926
v -0.167831 -0.051345 0.159442
v -0.163596 -0.052336 0.181679
v -0.168633 -0.032858 0.184846
v -0.156541 -0.067029 0.178585
v -0.158279 -0.069662 0.155423
v -0.146989 -0.080144 0.175120
v -0.121997 -0.062068 0.171645
v -0.135247 -0.091256 0.171394
v -0.102911 -0.074675 0.166170
v -0.102455 -0.058639 0.181351
v -0.083734 -0.065880 0.176529
v -0.083723 -0.079076 0.161551
v -0.066016 -0.064751 0.172816
v -0.064012 -0.076866 0.157525
v -0.049879 -0.057285 0.170124
v -0.052359 -0.055751 0.170823
v -0.064458 -0.061522 0.172822
v -0.042876 -0.046699 0.169738
v -0.042283 -0.048016 0.175282
v -0.036466 -0.039064 0.174980
v -0.052865 -0.036328 0.178818
v -0.041003 -0.033849 0.217208
v -0.048763 -0.028210 0.178799
v -0.039186 -0.025616 0.217669
v -0.047371 -0.019249 0.179453
v -0.032892 -0.028999 0.175282
v -0.037245 -0.037626 0.169487
v -0.031742 -0.015944 0.176425
v -0.033265 -0.024682 0.170008
v -0.033877 -0.008773 0.171837
v -0.036254 -0.041832 0.168826
v -0.030286 -0.022093 0.169642
v -0.031918 -0.006538 0.171654
v -0.019288 -0.023094 0.153591
v -0.020477 -0.003029 0.155986
v -0.025825 -0.045648 0.152598
v 0.007001 -0.026961 0.147490
v -0.043012 -0.066388 0.154101
v -0.046382 -0.102861 0.150935
v 0.012302 -0.034102 0.145580
v 0.018979 -0.037830 0.148584
v 0.018602 -0.037542 0.143850
v 0.011331 -0.032881 0.150766
v 0.009477 -0.010610 0.153544
v 0.015909 -0.003834 0.152876
v 0.007330 -0.024892 0.152485
v 0.007012 -0.017565 0.153335
v 0.006065 -0.016015 0.148861
v 0.010232 -0.007623 0.148854
v 0.015896 -0.002946 0.148127
v -0.040332 0.065773 0.167623
v -0.045086 0.068119 0.145643
v -0.050935 0.069928 0.170359
v 0.027331 0.064804 0.152884
v -0.064595 0.041624 0.170293
v -0.046432 0.034046 0.165556
v -0.029728 0.018381 0.160275
v -0.039094 0.009875 0.174957
v -0.056701 0.023538 0.180223
v -0.038639 0.003275 0.174154
v -0.044863 0.011658 0.176394
v -0.052917 0.018239 0.178838
v -0.064981 0.023531 0.182013
v -0.050952 0.017153 0.184111
v -0.062524 0.022605 0.187197
v -0.059429 0.003632 0.184502
v -0.078089 0.024033 0.190715
v -0.069674 0.007940 0.187176
v -0.057026 0.002555 0.224581
v -0.067793 0.004167 0.227026
v -0.080735 0.007486 0.189522
v -0.078164 0.001336 0.228998
v -0.090988 0.020638 0.193143
v -0.089037 0.004057 0.190951
v -0.086066 -0.004255 0.230135
v -0.095905 -0.001846 0.191806
v -0.100168 0.015369 0.194565
v -0.109526 0.006177 0.195609
v -0.090819 0.021913 0.187428
v -0.104392 0.013654 0.189482
v -0.112761 0.003526 0.190210
v -0.117292 -0.006149 0.190159
v -0.115795 -0.005838 0.195683
v -0.100631 -0.009620 0.191999
v -0.091331 -0.011667 0.230436
v -0.089004 0.025245 0.187390
v -0.077775 0.024601 0.184895
v -0.073974 0.027356 0.184367
v -0.087729 0.042466 0.175387
v -0.087127 0.073433 0.178559
v -0.106847 0.068758 0.182326
v -0.067121 0.073339 0.174225
v -0.077201 0.076220 0.153452
v -0.057059 0.072687 0.148721
v 0.077073 0.066369 0.119036
v 0.194034 0.072494 0.087784
v 0.077342 0.073864 0.119778
v 0.141468 0.065810 0.101342
v 0.196158 0.068914 0.086964
v 0.133181 0.062814 0.134624
v 0.135418 -0.102825 0.084658
v 0.127132 -0.105821 0.117938
v 0.022272 -0.104319 0.140777
v 0.024625 -0.038739 0.147267
v 0.021282 -0.103830 0.136199
v 0.071024 -0.102266 0.102350
v -0.051135 -0.100516 0.128958
v 0.023635 -0.038250 0.142687
v -0.062021 -0.104362 0.130901
v -0.081916 -0.107655 0.134851
v -0.058665 -0.107080 0.153143
v -0.079101 -0.110060 0.157243
v -0.098933 -0.108116 0.161742
v -0.102285 -0.106049 0.139430
v -0.174673 -0.105932 0.155098
v -0.117796 -0.101593 0.143261
v -0.132215 -0.094368 0.147148
v -0.118406 -0.101805 0.166627
v -0.145073 -0.084606 0.150971
v 0.172948 -0.104523 -0.005287
v -0.193119 -0.099250 0.072890
v -0.196020 -0.097257 0.073191
v -0.238867 -0.076757 -0.138078
v -0.241715 -0.075073 -0.138524
v -0.189831 -0.095690 0.105242
v -0.213698 0.019797 0.122731
v -0.221092 0.017824 0.124121
v -0.202453 0.032864 0.121694
v -0.207475 0.024376 0.121874
v -0.243225 -0.096884 0.140893
v -0.248097 -0.094395 0.117985
v -0.205080 -0.055159 0.112868
v -0.206647 -0.062763 0.112398
v -0.212027 -0.070682 0.112716
v -0.222387 -0.075756 0.114414
v -0.206352 -0.047568 0.113954
v -0.183435 0.077753 0.122370
v -0.190276 0.086372 0.088405
v -0.235343 0.108356 -0.119319
v -0.184190 -0.098017 0.128003
v -0.181417 -0.020726 0.135651
v -0.220184 -0.078341 0.137889
v -0.206368 -0.072253 0.135551
v -0.212736 -0.076621 0.136461
v -0.201166 -0.064209 0.135282
v -0.200480 -0.052622 0.136373
v -0.205981 -0.042593 0.138631
v -0.214291 -0.037806 0.140938
v -0.218165 -0.035564 0.117792
v -0.210287 -0.041043 0.115500
v -0.227469 -0.034680 0.119897
v -0.221836 -0.037049 0.142653
v -0.230829 -0.039921 0.144289
v -0.237529 -0.019922 0.147873
v -0.237193 -0.010554 0.148799
v -0.247657 -0.045554 0.147328
v -0.236708 -0.045711 0.144944
v -0.236608 -0.038018 0.121517
v -0.241660 -0.043268 0.122047
v -0.252608 -0.043111 0.124434
v -0.245136 0.024711 0.154281
v -0.250088 0.027154 0.131387
v -0.239139 0.026997 0.129001
v -0.235228 0.022402 0.127666
v -0.234187 0.024554 0.151896
v -0.230789 0.020405 0.150718
v -0.222669 0.015845 0.148477
v -0.228617 0.018735 0.125845
v -0.211270 0.016185 0.146046
v -0.203006 0.021434 0.144820
v -0.181081 -0.011357 0.136579
v -0.197806 0.029474 0.144552
v -0.177972 0.075302 0.145153
v -0.196948 0.039263 0.145410
v -0.200168 0.048136 0.147055
v -0.214660 0.056621 0.151094
v -0.207417 0.054439 0.149295
v -0.237867 0.075688 0.158151
v -0.243136 0.070034 0.158685
v -0.243343 0.077920 0.135344
v -0.223983 0.055497 0.152992
v -0.231394 0.056637 0.130488
v -0.224106 0.059006 0.129167
v -0.233584 0.048095 0.154279
v -0.238379 0.050556 0.131352
v -0.249247 0.050575 0.133703
v -0.244296 0.048132 0.156599
v -0.248236 0.072018 0.135774
v -0.216534 0.058507 0.127475
v -0.208277 0.054203 0.125230
v -0.202308 0.044462 0.122900
v -0.227669 -0.077174 0.139632
v -0.231980 -0.074950 0.116574
v -0.238588 -0.071285 0.118395
v -0.242500 -0.066689 0.119733
v -0.234150 -0.073281 0.141449
v -0.253600 -0.089637 0.119685
v -0.253449 -0.066532 0.122117
v -0.248844 -0.091553 0.142676
v -0.237548 -0.069132 0.142625
v -0.248497 -0.068975 0.145010
v -0.186184 0.088118 0.090514
v -0.225601 0.097567 -0.141630
v -0.232432 0.110402 -0.119641
v 0.133023 0.105175 -0.199219
v 0.117453 0.092424 -0.216368
v 0.135629 0.103182 -0.200131
v 0.180663 0.081659 0.017308
v 0.181041 0.079340 0.008228
v 0.174160 -0.100097 -0.012245
v 0.129510 -0.078933 -0.218071
v 0.181970 -0.100889 0.024280
v 0.192627 0.069995 0.064435
v 0.188187 0.072430 0.041430
v 0.221080 0.052973 0.032239
v 0.210013 0.049937 0.034308
v 0.199932 0.032078 0.034582
v 0.202122 0.041388 0.035102
v 0.247981 0.068915 0.052349
v 0.244042 0.071029 0.029199
v 0.230314 0.050355 0.029962
v 0.248713 0.065363 0.027584
v 0.253600 0.063583 0.050565
v 0.248301 0.043449 0.025335
v 0.253253 0.041006 0.048229
v 0.234371 0.048544 0.053120
v 0.242452 0.041231 0.050591
v 0.237500 0.043828 0.027714
v 0.224937 0.050372 0.055352
v 0.215821 0.047991 0.057070
v 0.207547 0.039825 0.057990
v 0.204746 0.028521 0.057390
v 0.189519 -0.016665 0.055860
v 0.208284 0.017581 0.055457
v 0.201205 0.024484 0.033498
v 0.206490 0.016400 0.031492
v 0.216727 0.011529 0.028758
v 0.215534 0.011277 0.053215
v 0.222776 0.009096 0.051415
v 0.245630 -0.017469 0.043638
v 0.230360 0.009789 0.049850
v 0.237225 0.013261 0.048738
v 0.226068 0.012435 0.026835
v 0.217717 -0.040712 0.022969
v 0.232821 0.016138 0.025769
v 0.236512 0.020184 0.025402
v 0.241464 0.017741 0.048296
v 0.252413 0.017585 0.045911
v 0.247461 0.020028 0.023018
v 0.249892 -0.052680 0.038960
v 0.245294 -0.026837 0.042710
v 0.238943 -0.052523 0.041344
v 0.244941 -0.050237 0.016066
v 0.234139 -0.049858 0.018441
v 0.226953 -0.043331 0.020693
v 0.235546 -0.048375 0.042523
v 0.229065 -0.044482 0.044338
v 0.219799 -0.043311 0.046468
v 0.189183 -0.026033 0.054934
v 0.212137 -0.046138 0.047825
v 0.206653 -0.043748 0.025039
v 0.206433 -0.050637 0.048577
v 0.199935 -0.050539 0.025767
v 0.201617 -0.061258 0.048485
v 0.196539 -0.059798 0.025514
v 0.202569 -0.070995 0.047240
v 0.198526 -0.071170 0.023870
v 0.204586 -0.078294 0.021799
v 0.207375 -0.079060 0.045341
v 0.186410 -0.103324 0.047286
v 0.215684 -0.083849 0.043033
v 0.241510 -0.103867 0.035311
v 0.225011 -0.084513 0.040943
v 0.211388 -0.081591 0.019978
v 0.218961 -0.082090 0.018286
v 0.238194 -0.101004 0.012107
v 0.226246 -0.079721 0.016963
v 0.243088 -0.095104 0.011679
v 0.247546 -0.099187 0.034505
v 0.249052 -0.076101 0.036642
v 0.238103 -0.075944 0.039027
v 0.233865 -0.080424 0.039465
v 0.233294 -0.073574 0.016093
v 0.244100 -0.073658 0.013748
v 0.190443 -0.026802 0.062242
v 0.189857 -0.106917 0.069562
v 0.190777 -0.017433 0.063163
v 0.187467 -0.110402 0.069688
v 0.070755 -0.109761 0.101608
v 0.111319 -0.065377 -0.231881
v 0.126788 -0.081751 -0.217930
v -0.231951 -0.060982 -0.157168
v -0.166773 0.077338 0.172945
v -0.112960 0.070613 0.160589
v -0.097209 0.074872 0.157638
v 0.025873 -0.001102 0.151013
v 0.028322 0.064316 0.157464
v 0.024905 -0.000504 0.146441
v -0.049352 -0.001825 0.222407
v -0.052992 -0.002462 0.182458
v -0.043764 -0.007870 0.220577
v -0.048831 -0.010358 0.180718
v -0.039851 -0.016623 0.218821
v -0.034789 -0.002900 0.178476
v -0.041120 0.008346 0.181046
vn 0.2100 -0.1037 0.9722
vn 0.2106 -0.1040 0.9720
vn 0.2093 -0.1038 0.9723
vn 0.2114 -0.1037 0.9719
vn 0.2095 -0.1043 0.9722
vn 0.2106 -0.1035 0.9721
vn 0.2102 -0.1041 0.9721
vn 0.2106 -0.1031 0.9721
vn 0.5871 -0.4682 0.6604
vn 0.2106 -0.1028 0.9721
vn 0.2885 -0.6787 0.6754
vn 0.6241 -0.6688 0.4039
vn 0.2273 -0.9648 -0.1319
vn 0.2891 -0.6759 0.6780
vn 0.6122 -0.7649 -0.2006
vn 0.3953 -0.8974 -0.1959
vn -0.0116 -0.9932 -0.1158
vn 0.2104 -0.1039 0.9721
vn 0.2102 -0.1038 0.9721
vn 0.2101 -0.1037 0.9722
vn 0.2106 -0.1037 0.9721
vn 0.0124 -0.9999 -0.0034
vn -0.1998 -0.9657 -0.1659
vn -0.3013 -0.9527 0.0408
vn 0.2104 -0.1038 0.9721
vn -0.4864 -0.8681 -0.0992
vn -0.5441 -0.8236 0.1603
vn 0.2104 -0.1036 0.9721
vn 0.2101 -0.1036 0.9722
vn -0.5641 -0.8239 0.0541
vn -0.7143 -0.6968 0.0654
vn -0.3713 -0.9278 -0.0352
vn -0.8995 -0.4129 0.1425
vn -0.8407 -0.5237 0.1379
vn 0.2103 -0.1038 0.9721
vn 0.2103 -0.1037 0.9721
vn -0.9624 -0.1852 0.1989
vn -0.9758 -0.1051 0.1917
vn 0.2102 -0.1036 0.9722
vn 0.2102 -0.1035 0.9722
vn -0.9420 -0.2741 0.1935
vn -0.9735 -0.0373 0.2256
vn -0.9808 -0.0548 0.1873
vn 0.2110 -0.1038 0.9720
vn 0.2111 -0.1034 0.9720
vn -0.9448 -0.3078 0.1122
vn -0.5057 -0.0813 0.8589
vn -0.4980 -0.2539 0.8292
vn -0.4511 -0.3014 0.8400
vn 0.2108 -0.1036 0.9720
vn 0.2107 -0.1037 0.9720
vn -0.5021 -0.0767 0.8614
vn -0.4825 0.1163 0.8681
vn 0.2103 -0.1036 0.9721
vn 0.2102 -0.1037 0.9721
vn -0.4681 0.1285 0.8743
vn -0.4027 0.2857 0.8696
vn -0.2467 0.4823 0.8405
vn -0.3617 0.3005 0.8826
vn -0.7773 0.5787 0.2469
vn -0.6039 0.7649 0.2239
vn -0.6097 0.7619 0.2187
vn -0.7600 0.6141 0.2129
vn 0.2101 -0.1038 0.9722
vn -0.8831 0.4098 0.2284
vn -0.8816 0.4119 0.2304
vn -0.9507 0.2148 0.2239
vn -0.9454 0.2257 0.2352
vn -0.9677 0.0150 0.2516
vn -0.9666 -0.0026 0.2564
vn -0.9786 0.0028 0.2058
vn -0.9642 0.0084 0.2649
vn -0.9640 0.0104 0.2656
vn 0.2120 -0.1040 0.9717
vn -0.9448 -0.2817 0.1674
vn -0.9452 -0.2734 0.1783
vn -0.9716 -0.0334 0.2342
vn -0.8792 -0.4531 0.1473
vn -0.8693 -0.4796 0.1197
vn -0.7853 -0.6058 0.1278
vn -0.2355 -0.6646 0.7091
vn -0.4286 -0.4681 0.7728
vn -0.3025 -0.5259 0.7949
vn 0.2160 -0.0981 0.9714
vn -0.0779 -0.6842 0.7251
vn 0.2105 -0.1032 0.9721
vn 0.2112 -0.1002 0.9723
vn 0.1832 -0.7376 0.6499
vn -0.0130 -0.7503 0.6610
vn 0.2103 -0.1031 0.9722
vn 0.2104 -0.1034 0.9721
vn 0.4167 -0.6852 0.5974
vn 0.2117 -0.7523 0.6238
vn 0.2100 -0.1034 0.9722
vn 0.2097 -0.1029 0.9723
vn 0.1177 -0.9714 -0.2064
vn 0.3747 -0.8833 -0.2818
vn 0.3095 -0.9490 -0.0601
vn 0.2100 -0.1035 0.9722
vn 0.6557 -0.7158 -0.2402
vn 0.6411 -0.7546 -0.1398
vn 0.8156 -0.5372 -0.2148
vn 0.2101 -0.1040 0.9721
vn 0.8413 -0.4901 -0.2283
vn 0.8664 -0.4383 -0.2394
vn 0.6789 -0.6984 -0.2266
vn 0.2102 -0.1039 0.9721
vn 0.9547 -0.1983 -0.2220
vn 0.9643 -0.1331 -0.2287
vn 0.9223 -0.3211 -0.2148
vn 0.9189 -0.2710 -0.2868
vn 0.9884 -0.0755 -0.1317
vn 0.2093 -0.1035 0.9724
vn 0.2094 -0.1037 0.9723
vn 0.9432 0.0736 -0.3240
vn 0.2092 -0.1035 0.9724
vn 0.8067 0.0082 0.5909
vn 0.7905 -0.2536 0.5575
vn 0.8242 -0.0187 0.5659
vn 0.7833 -0.2602 0.5646
vn 0.6638 -0.5105 0.5466
vn 0.2105 -0.1040 0.9721
vn 0.6404 -0.5169 0.5681
vn 0.4377 -0.6882 0.5786
vn -0.5196 -0.8482 0.1025
vn -0.4822 -0.8759 -0.0149
vn -0.8043 -0.5941 -0.0107
vn -0.8423 -0.4761 0.2526
vn -0.9023 0.3108 0.2987
vn -0.9806 -0.0641 0.1853
vn -0.8871 0.4406 0.1377
vn -0.9896 -0.0979 0.1057
vn -0.6187 0.7720 0.1459
vn -0.6718 0.6690 0.3178
vn 0.3691 0.9292 0.0193
vn 0.0357 0.9945 0.0984
vn 0.2112 -0.1035 0.9720
vn 0.7652 0.2087 0.6090
vn 0.6189 0.4408 0.6502
vn 0.5542 0.4425 0.7050
vn 0.7658 0.2127 0.6069
vn 0.2096 -0.1040 0.9722
vn 0.2097 -0.1044 0.9722
vn 0.2106 -0.1037 0.9720
vn 0.2101 -0.1041 0.9721
vn 0.3963 0.9178 -0.0239
vn 0.6186 0.7826 -0.0693
vn 0.4315 0.9018 0.0250
vn 0.1176 0.9857 0.1203
vn 0.3879 0.9217 0.0015
vn 0.1664 0.9824 0.0851
vn -0.0207 0.9952 0.0952
vn 0.2104 -0.1037 0.9721
vn -0.2306 0.9591 0.1644
vn -0.3517 0.9212 0.1664
vn -0.5436 0.8118 0.2134
vn -0.6227 0.7545 0.2073
vn 0.2101 -0.1038 0.9721
vn -0.4687 0.8650 0.1791
vn -0.6498 0.6962 0.3050
vn -0.5014 0.8557 0.1279
vn 0.2113 -0.1055 0.9717
vn 0.2117 -0.1050 0.9717
vn -0.7580 0.6366 0.1416
vn 0.2111 -0.1047 0.9718
vn 0.2105 -0.1038 0.9721
vn -0.8846 0.4131 0.2165
vn -0.8478 0.4441 0.2899
vn -0.9482 0.2015 0.2456
vn -0.9313 0.2739 0.2399
vn -0.8295 0.5100 0.2279
vn -0.9514 0.2132 0.2221
vn -0.7199 0.1865 0.6685
vn -0.3214 0.2653 0.9090
vn -0.7873 0.5689 0.2378
vn -0.9605 0.1844 0.2085
vn 0.2106 -0.1039 0.9720
vn -0.1851 0.9790 0.0856
vn -0.2124 0.9550 0.2068
vn 0.2103 -0.1040 0.9721
vn 0.1058 0.9891 0.1023
vn 0.3082 0.5577 0.7707
vn 0.1897 0.6235 0.7585
vn 0.0856 0.5654 0.8203
vn 0.2101 -0.1044 0.9721
vn -0.0651 0.5738 0.8164
vn 0.1834 0.9819 0.0472
vn 0.0312 0.9920 0.1224
vn 0.2199 0.9735 0.0619
vn 0.3602 0.9327 0.0170
vn 0.2103 -0.1029 0.9722
vn 0.2621 -0.1187 0.9577
vn 0.2618 -0.1044 0.9595
vn 0.2584 -0.1043 0.9604
vn 0.2573 -0.0682 0.9639
vn 0.9699 -0.0582 0.2363
vn -0.0357 -0.9945 -0.0985
vn -0.0357 -0.9945 -0.0984
vn -0.9770 0.0140 0.2129
vn -0.9770 0.0140 0.2127
vn -0.1553 -0.9853 -0.0715
vn 0.3021 -0.9388 -0.1655
vn 0.2102 -0.1042 0.9721
vn 0.1345 -0.9809 -0.1402
vn 0.2949 -0.9421 -0.1596
vn 0.1194 -0.9855 -0.1209
vn -0.1141 -0.9907 -0.0747
vn -0.0992 -0.9906 -0.0940
vn 0.2102 -0.1050 0.9720
vn -0.2862 -0.9571 -0.0457
vn -0.4522 -0.8917 -0.0199
vn -0.3121 -0.9499 -0.0168
vn -0.5213 -0.8522 0.0442
vn -0.5992 -0.8001 0.0278
vn -0.7380 -0.6716 0.0656
vn -0.6710 -0.7368 0.0829
vn -0.0387 -0.9950 -0.0926
vn -0.0302 -0.9968 -0.0742
vn -0.5612 -0.8256 0.0588
vn -0.8219 -0.5478 0.1562
vn -0.5114 -0.8591 0.0204
vn -0.5636 -0.8253 0.0342
vn -0.9704 -0.1435 0.1944
vn -0.9262 -0.3230 0.1946
vn -0.2104 0.1037 -0.9721
vn -0.2103 0.1038 -0.9721
vn -0.2107 0.1036 -0.9720
vn -0.0437 -0.9942 -0.0988
vn -0.0392 -0.9950 -0.0920
vn -0.2109 0.1036 -0.9720
vn -0.2106 0.1037 -0.9721
vn -0.2103 0.1039 -0.9721
vn -0.9778 0.0121 0.2091
vn -0.9409 -0.2689 0.2057
vn -0.9794 0.0162 0.2014
vn -0.9767 0.0174 0.2137
vn -0.9672 0.0096 0.2537
vn -0.9664 0.0089 0.2570
vn -0.8013 0.5535 0.2269
vn -0.9536 0.1817 0.2399
vn -0.9814 0.0404 0.1877
vn 0.2108 -0.1040 0.9720
vn -0.8119 0.5331 0.2379
vn -0.8601 -0.4973 0.1132
vn -0.9593 -0.1906 0.2083
vn -0.8373 -0.5334 0.1201
vn -0.4993 -0.8664 -0.0004
vn -0.5607 -0.8266 0.0490
vn -0.2100 0.1038 -0.9722
vn -0.2107 0.1037 -0.9720
vn -0.2101 0.1037 -0.9722
vn -0.1112 -0.9909 -0.0756
vn -0.1168 -0.9902 -0.0764
vn 0.2725 -0.9477 -0.1661
vn 0.2105 -0.1034 0.9721
vn 0.0843 -0.1010 0.9913
vn 0.2100 -0.1036 0.9722
vn 0.2105 -0.1037 0.9721
vn 0.6699 -0.7062 -0.2290
vn 0.6911 -0.6876 -0.2228
vn -0.9770 0.0140 0.2128
vn -0.2099 0.1038 -0.9722
vn -0.2102 0.1037 -0.9721
vn -0.2104 0.1032 -0.9722
vn 0.7568 0.6468 -0.0947
vn 0.7462 0.6601 -0.0865
vn 0.4858 0.8739 -0.0179
vn -0.0126 0.9967 0.0802
vn 0.1398 0.9862 0.0892
vn 0.4818 0.8761 -0.0148
vn -0.5076 0.8419 0.1833
vn -0.2237 0.9594 0.1719
vn 0.2098 -0.1035 0.9722
vn -0.9636 0.0093 0.2671
vn 0.0282 0.9946 0.1002
vn -0.9363 0.2458 0.2509
vn -0.9171 0.3038 0.2581
vn 0.2100 -0.1039 0.9722
vn -0.7001 0.6746 0.2341
vn 0.0227 0.9955 0.0920
vn 0.5749 -0.7855 -0.2291
vn 0.2828 -0.9487 -0.1412
vn 0.0892 -0.9853 -0.1456
vn 0.6267 -0.7500 -0.2116
vn -0.0237 -0.9945 -0.1018
vn -0.0252 -0.9946 -0.1007
vn -0.9765 0.0254 0.2139
vn -0.9751 0.0307 0.2197
vn -0.2104 0.1036 -0.9721
vn -0.7430 0.6320 0.2201
vn -0.2101 0.1038 -0.9722
vn -0.0818 -0.9940 -0.0729
vn -0.2104 0.1035 -0.9721
vn -0.2999 -0.9525 -0.0523
vn -0.4568 -0.8892 0.0251
vn -0.6505 -0.7589 0.0307
vn -0.8252 -0.5429 0.1557
vn -0.9228 -0.3603 0.1365
vn -0.9733 -0.0117 0.2291
vn -0.2103 0.1037 -0.9721
vn -0.9757 0.0673 0.2083
vn -0.8325 0.4978 0.2431
vn -0.8143 0.5342 0.2271
vn -0.5601 0.8009 0.2118
vn 0.3140 -0.9362 -0.1579
vn 0.0843 -0.1007 0.9913
vn -0.2003 0.9716 0.1258
vn -0.4019 0.8911 0.2109
vn -0.5368 0.8221 0.1896
vn 0.1054 0.9895 0.0991
vn 0.1682 0.9837 0.0634
vn 0.4837 0.8752 -0.0060
vn -0.2105 0.1038 -0.9721
vn 0.7461 0.6602 -0.0865
vn 0.5099 0.8599 -0.0237
vn -0.2106 0.1039 -0.9720
vn -0.6435 -0.7636 0.0538
vn -0.9794 -0.0148 0.2014
vn -0.6731 -0.7354 0.0780
vn -0.9775 -0.0068 0.2107
vn 0.2102 -0.1037 0.9722
vn -0.4676 0.8627 0.1927
vn -0.5472 0.8111 0.2064
vn -0.5216 0.6563 -0.5452
vn -0.8997 0.0762 -0.4298
vn 0.0355 0.9946 0.0977
vn -0.1022 0.8449 -0.5250
vn 0.2504 0.6542 -0.7137
vn -0.1032 0.8408 -0.5315
vn 0.5971 0.8010 -0.0444
vn 0.0374 0.9943 0.0998
vn 0.8134 0.5708 -0.1120
vn 0.0416 0.9918 0.1211
vn 0.8535 0.5122 -0.0953
vn 0.9777 -0.0136 -0.2094
vn 0.9769 -0.0131 -0.2133
vn 0.9767 -0.0117 -0.2142
vn 0.9769 -0.0140 -0.2132
vn 0.9154 0.3826 -0.1251
vn 0.9639 0.2097 -0.1638
vn 0.8468 0.5237 -0.0932
vn -0.2102 0.1038 -0.9721
vn 0.0407 0.9944 0.0974
vn 0.0433 0.9956 0.0836
vn 0.6794 0.7321 -0.0487
vn 0.7515 0.6506 -0.1094
vn 0.9782 0.0029 -0.2078
vn 0.9775 0.0068 -0.2107
vn -0.0419 -0.9944 -0.0970
vn -0.0570 -0.9933 -0.1004
vn -0.6599 -0.7491 0.0578
vn -0.6613 -0.7479 0.0574
vn -0.2101 0.1035 -0.9722
vn -0.2068 -0.9755 -0.0753
vn -0.2787 -0.9600 -0.0262
vn 0.2242 -0.9636 -0.1459
vn 0.2370 -0.9610 -0.1427
vn 0.6702 -0.7052 -0.2313
vn 0.9453 -0.2216 -0.2392
vn 0.7079 -0.6732 -0.2138
vn 0.9494 -0.2102 -0.2332
vn 0.9231 0.3327 -0.1930
vn 0.9667 0.1870 -0.1749
vn -0.2098 0.1037 -0.9722
vn 0.8234 0.5604 -0.0893
vn 0.4361 0.8994 0.0305
vn 0.6386 0.7648 -0.0855
vn 0.2939 0.9555 0.0242
vn -0.0651 0.9902 0.1237
vn 0.2101 -0.1039 0.9721
vn -0.0698 0.9895 0.1267
vn -0.4204 0.8892 0.1806
vn -0.2104 0.1038 -0.9721
vn -0.4477 0.8726 0.1952
vn -0.7096 0.6678 0.2247
vn -0.6979 0.6818 0.2192
vn 0.9770 -0.0140 -0.2128
vn 0.2096 -0.1038 0.9723
vn -0.0576 -0.9930 -0.1035
vn -0.7590 -0.6456 0.0841
vn -0.6553 -0.7506 0.0845
vn 0.2107 -0.1038 0.9720
vn 0.2101 -0.1035 0.9722
vn -0.5140 -0.8578 0.0042
vn -0.1465 -0.9846 -0.0959
vn -0.2777 -0.9604 -0.0219
vn 0.2104 -0.1035 0.9721
vn 0.3137 -0.9335 -0.1734
vn 0.2401 -0.9623 -0.1277
vn 0.5855 -0.7795 -0.2227
vn 0.6860 -0.7000 -0.1985
vn 0.8819 -0.3977 -0.2530
vn 0.9170 -0.3302 -0.2237
vn -0.2100 0.1037 -0.9722
vn 0.9708 0.1214 -0.2069
vn 0.9665 0.1933 -0.1686
vn 0.7502 0.6577 -0.0675
vn 0.8338 0.5318 -0.1482
vn 0.4928 0.8696 -0.0301
vn 0.0888 0.9928 0.0807
vn 0.4376 0.8992 0.0065
vn 0.0841 0.9929 0.0838
vn -0.2101 0.1036 -0.9722
vn 0.7349 -0.6281 -0.2559
vn 0.5874 -0.7888 -0.1812
vn -0.0277 -0.9926 -0.1185
vn 0.9789 -0.0454 -0.1993
vn -0.3915 0.9060 0.1609
vn -0.6984 0.6820 0.2169
vn -0.6225 0.7468 0.2341
vn -0.2103 0.1036 -0.9721
vn 0.0294 0.9946 0.0998
vn 0.0350 0.9948 0.0955
vn 0.9765 -0.0255 -0.2139
vn -0.2756 0.9453 0.1747
vn -0.0314 -0.9946 -0.0992
vn 0.9850 -0.0183 -0.1718
vn 0.9875 -0.0215 -0.1563
vn 0.9495 -0.2349 -0.2081
vn 0.8836 -0.4211 -0.2047
vn 0.8045 -0.5590 -0.2010
vn 0.2548 -0.1402 0.9568
vn 0.2585 -0.1043 0.9604
vn 0.9888 -0.0207 -0.1476
vn 0.9887 -0.0208 -0.1482
vn -0.0255 -0.9970 -0.0732
vn 0.8178 -0.5394 -0.2007
vn 0.2631 -0.0902 0.9605
vn -0.0308 -0.9965 -0.0783
vn 0.3335 -0.1040 0.9370
vn 0.9876 -0.0186 -0.1557
vn 0.9850 -0.0183 -0.1717
vn 0.3335 -0.1048 0.9369
vn 0.6281 0.0519 -0.7764
vn 0.6476 0.0531 -0.7601
vn 0.3569 -0.3872 -0.8501
vn 0.6954 -0.6828 -0.2241
vn 0.7849 -0.5756 -0.2295
vn -0.1570 -0.7222 -0.6736
vn -0.0352 -0.9945 -0.0989
vn -0.1535 -0.7337 -0.6619
vn -0.9060 0.0771 -0.4162
vn -0.2974 -0.6803 -0.6699
vn 0.0386 0.9919 0.1206
vn -0.4779 0.8495 0.2236
vn 0.0407 0.9923 0.1172
vn 0.0416 0.9932 0.1092
vn -0.5423 0.8061 0.2369
vn 0.2103 -0.1026 0.9722
vn -0.1982 0.9667 0.1620
vn -0.0479 0.9947 0.0915
vn -0.2323 0.9614 0.1474
vn -0.3938 0.8999 0.1875
vn -0.4145 0.8932 0.1745
vn -0.0353 -0.9945 -0.0984
vn -0.1693 -0.9845 -0.0464
vn -0.9778 0.0160 0.2090
vn -0.2301 0.9575 0.1739
vn -0.2260 0.9574 0.1795
vn -0.9770 0.0153 0.2128
vn -0.1378 0.4913 0.8600
vn -0.3000 0.5784 0.7586
vn -0.3525 0.2763 0.8941
vn -0.0755 0.7411 0.6671
vn -0.0351 0.4172 0.9081
vn 0.2547 0.7167 0.6492
vn 0.4944 0.8692 -0.0063
vn 0.5187 0.6131 0.5959
vn 0.3227 0.4748 0.8188
vn 0.6733 0.7357 -0.0731
vn 0.7204 0.6893 -0.0766
vn 0.5723 0.3862 0.7234
vn 0.6816 0.4572 0.5713
vn 0.8931 0.4274 -0.1402
vn 0.8629 0.4856 -0.1400
vn 0.8382 0.2809 0.4674
vn 0.9764 0.0969 -0.1930
vn 0.9627 0.1860 -0.1963
vn 0.7061 0.0783 0.7037
vn 0.9040 0.0122 0.4274
vn 0.2102 -0.1034 0.9722
vn 0.8645 0.4995 -0.0563
vn 0.9680 0.2384 -0.0779
vn 0.8898 0.3955 -0.2276
vn 0.6663 0.7457 -0.0053
vn 0.7667 0.6168 -0.1778
vn 0.4219 0.5709 0.7044
vn 0.2098 -0.1033 0.9723
vn 0.8193 -0.5155 -0.2511
vn 0.8019 -0.2084 0.5600
vn 0.7741 -0.2166 0.5949
vn 0.7989 -0.4544 0.3940
vn -0.7967 -0.6019 -0.0552
vn -0.8134 -0.5365 0.2248
vn -0.3833 -0.0845 0.9198
vn -0.6738 -0.2034 0.7104
vn -0.4148 -0.4320 0.8008
vn -0.3780 -0.4031 0.8335
vn -0.1641 -0.9849 -0.0559
vn -0.3710 -0.7509 0.5463
vn -0.0429 -0.9088 0.4149
vn -0.0423 -0.5702 0.8204
s 0
usemtl Material.030
f 2//1 1//1 9//1
f 3//2 1//2 2//2
f 4//3 1//3 3//3
f 8//4 1//4 4//4
f 5//5 1//5 8//5
f 6//6 1//6 5//6
f 7//7 1//7 6//7
f 10//8 1//8 7//8
f 1//9 12//9 9//9
f 11//10 1//10 10//10
f 11//11 13//11 1//11
f 1//12 13//12 12//12
f 14//13 16//13 13//13
f 13//14 11//14 14//14
f 15//15 12//15 13//15
f 15//16 13//16 16//16
f 16//17 14//17 17//17
f 16//18 19//18 15//18
f 20//19 16//19 17//19
f 16//20 20//20 18//20
f 19//21 16//21 18//21
f 21//22 18//22 20//22
f 20//23 22//23 21//23
f 22//24 20//24 23//24
f 17//25 23//25 20//25
f 23//26 25//26 22//26
f 25//27 23//27 24//27
f 23//28 26//28 24//28
f 23//29 17//29 26//29
f 27//30 26//30 28//30
f 27//31 29//31 26//31
f 28//32 26//32 17//32
f 24//25 26//25 29//25
f 30//33 32//33 29//33
f 29//34 27//34 30//34
f 32//35 31//35 29//35
f 24//36 29//36 31//36
f 32//37 30//37 33//37
f 33//38 34//38 32//38
f 32//39 35//39 31//39
f 35//40 32//40 34//40
f 38//41 31//41 35//41
f 37//42 35//42 36//42
f 35//36 34//36 36//36
f 35//43 37//43 38//43
f 37//44 40//44 38//44
f 38//45 40//45 39//45
f 31//46 38//46 39//46
f 40//47 45//47 41//47
f 40//48 41//48 42//48
f 42//49 43//49 40//49
f 39//50 40//50 43//50
f 40//51 37//51 44//51
f 45//52 40//52 44//52
f 44//53 48//53 45//53
f 48//54 46//54 45//54
f 47//55 45//55 46//55
f 47//19 41//19 45//19
f 48//56 44//56 49//56
f 49//57 51//57 48//57
f 48//19 50//19 46//19
f 50//19 48//19 51//19
f 53//55 51//55 52//55
f 54//58 52//58 51//58
f 51//36 53//36 55//36
f 51//59 49//59 54//59
f 51//55 55//55 50//55
f 58//60 50//60 55//60
f 56//61 55//61 53//61
f 55//62 56//62 57//62
f 55//63 57//63 58//63
f 58//35 59//35 60//35
f 57//64 59//64 58//64
f 46//65 58//65 60//65
f 58//66 46//66 50//66
f 60//35 59//35 61//35
f 47//67 60//67 61//67
f 60//68 47//68 46//68
f 62//69 61//69 59//69
f 62//70 63//70 61//70
f 63//71 47//71 61//71
f 63//72 62//72 64//72
f 63//73 64//73 65//73
f 65//74 66//74 63//74
f 67//75 63//75 66//75
f 63//76 67//76 68//76
f 47//77 63//77 68//77
f 41//55 47//55 68//55
f 67//36 42//36 68//36
f 41//19 68//19 42//19
f 66//78 69//78 67//78
f 42//36 67//36 69//36
f 69//79 66//79 70//79
f 70//80 71//80 69//80
f 71//55 72//55 69//55
f 69//55 72//55 42//55
f 72//35 71//35 73//35
f 73//35 74//35 72//35
f 75//81 72//81 74//81
f 43//82 42//82 72//82
f 72//83 75//83 43//83
f 25//84 43//84 75//84
f 74//85 76//85 75//85
f 76//86 22//86 75//86
f 25//87 75//87 22//87
f 77//88 78//88 76//88
f 76//89 74//89 77//89
f 21//90 76//90 78//90
f 22//91 76//91 21//91
f 79//92 80//92 78//92
f 78//93 77//93 79//93
f 81//94 78//94 80//94
f 78//90 82//90 21//90
f 78//95 81//95 82//95
f 18//96 21//96 82//96
f 19//97 82//97 81//97
f 82//98 19//98 18//98
f 81//99 80//99 83//99
f 84//100 81//100 83//100
f 81//101 84//101 19//101
f 83//102 85//102 84//102
f 86//55 84//55 85//55
f 84//103 15//103 19//103
f 15//55 84//55 86//55
f 86//104 87//104 12//104
f 88//105 87//105 86//105
f 86//106 12//106 15//106
f 85//107 88//107 86//107
f 88//108 89//108 87//108
f 90//109 89//109 88//109
f 91//54 90//54 88//54
f 91//35 88//35 85//35
f 92//110 91//110 85//110
f 91//111 92//111 94//111
f 94//112 93//112 91//112
f 90//36 91//36 93//36
f 96//113 94//113 92//113
f 97//114 95//114 94//114
f 93//115 94//115 95//115
f 94//116 96//116 97//116
f 100//117 98//117 97//117
f 95//3 97//3 98//3
f 97//118 101//118 99//118
f 97//119 99//119 100//119
f 101//120 97//120 96//120
f 96//121 103//121 101//121
f 102//25 99//25 101//25
f 103//122 102//122 101//122
f 103//123 96//123 80//123
f 80//124 79//124 103//124
f 104//35 103//35 79//35
f 105//35 103//35 104//35
f 103//35 105//35 102//35
f 105//125 106//125 108//125
f 106//126 105//126 107//126
f 104//35 107//35 105//35
f 108//127 102//127 105//127
f 106//55 110//55 108//55
f 108//25 110//25 109//25
f 108//64 109//64 112//64
f 111//50 108//50 112//50
f 102//128 108//128 111//128
f 113//129 112//129 109//129
f 113//130 111//130 112//130
f 109//131 114//131 113//131
f 111//132 113//132 102//132
f 113//25 99//25 102//25
f 100//54 113//54 114//54
f 113//54 100//54 99//54
f 110//133 115//133 114//133
f 115//28 116//28 114//28
f 114//134 109//134 110//134
f 100//55 114//55 116//55
f 117//135 118//135 116//135
f 119//136 117//136 116//136
f 120//55 116//55 118//55
f 115//36 119//36 116//36
f 116//36 120//36 121//36
f 122//20 116//20 121//20
f 116//137 122//137 100//137
f 123//138 100//138 122//138
f 123//139 122//139 121//139
f 121//140 124//140 123//140
f 100//141 123//141 98//141
f 123//142 95//142 98//142
f 127//143 123//143 124//143
f 95//144 123//144 125//144
f 125//64 123//64 126//64
f 126//64 123//64 127//64
f 124//145 128//145 127//145
f 130//146 127//146 128//146
f 129//147 126//147 127//147
f 127//148 130//148 129//148
f 128//149 132//149 130//149
f 130//25 131//25 129//25
f 131//64 130//64 133//64
f 133//107 130//107 132//107
f 133//150 134//150 131//150
f 133//151 135//151 134//151
f 135//152 133//152 136//152
f 133//153 132//153 136//153
f 135//154 136//154 137//154
f 139//155 137//155 136//155
f 138//19 139//19 136//19
f 136//36 132//36 138//36
f 137//156 139//156 140//156
f 140//157 139//157 141//157
f 142//19 141//19 139//19
f 142//158 139//158 138//158
f 144//159 142//159 138//159
f 145//160 143//160 142//160
f 141//36 142//36 143//36
f 142//161 144//161 145//161
f 144//162 54//162 145//162
f 54//163 146//163 145//163
f 143//164 145//164 146//164
f 146//165 54//165 49//165
f 49//166 147//166 146//166
f 148//167 146//167 147//167
f 146//168 148//168 143//168
f 148//19 149//19 143//19
f 148//107 34//107 149//107
f 147//169 36//169 148//169
f 34//35 148//35 36//35
f 150//170 149//170 33//170
f 150//171 141//171 149//171
f 33//172 149//172 34//172
f 141//153 143//153 149//153
f 33//173 6//173 150//173
f 6//174 140//174 150//174
f 141//175 150//175 140//175
f 44//144 147//144 49//144
f 147//144 44//144 37//144
f 36//176 147//176 37//176
f 152//29 151//29 144//29
f 54//177 144//177 151//177
f 132//178 152//178 144//178
f 144//179 138//179 132//179
f 151//158 152//158 153//158
f 153//180 152//180 128//180
f 132//181 128//181 152//181
f 120//182 153//182 124//182
f 153//183 120//183 154//183
f 154//184 151//184 153//184
f 128//185 124//185 153//185
f 154//55 156//55 52//55
f 151//186 154//186 52//186
f 156//36 154//36 155//36
f 154//20 157//20 155//20
f 120//35 157//35 154//35
f 157//187 159//187 158//187
f 157//188 158//188 155//188
f 159//189 157//189 118//189
f 157//35 120//35 118//35
f 118//190 117//190 159//190
f 159//35 117//35 160//35
f 158//191 159//191 160//191
f 160//19 162//19 158//19
f 160//192 163//192 161//192
f 161//193 162//193 160//193
f 160//136 119//136 163//136
f 117//136 119//136 160//136
f 164//194 163//194 166//194
f 164//195 161//195 163//195
f 163//196 165//196 167//196
f 119//136 165//136 163//136
f 167//196 166//196 163//196
f 168//19 167//19 169//19
f 170//197 167//197 168//197
f 169//36 167//36 165//36
f 167//198 170//198 166//198
f 172//198 170//198 104//198
f 170//55 107//55 104//55
f 172//198 171//198 170//198
f 166//198 170//198 171//198
f 169//199 170//199 168//199
f 170//200 169//200 173//200
f 107//55 170//55 173//55
f 169//201 107//201 173//201
f 174//35 171//35 172//35
f 104//202 174//202 172//202
f 175//203 171//203 174//203
f 176//204 175//204 174//204
f 174//205 104//205 176//205
f 175//206 176//206 177//206
f 74//19 177//19 176//19
f 74//54 176//54 104//54
f 179//207 177//207 178//207
f 74//153 178//153 177//153
f 177//208 179//208 175//208
f 180//107 179//107 181//107
f 180//209 175//209 179//209
f 178//210 181//210 179//210
f 180//40 181//40 182//40
f 183//211 182//211 181//211
f 181//212 178//212 183//212
f 182//213 183//213 73//213
f 74//55 73//55 183//55
f 74//55 183//55 178//55
f 180//35 182//35 184//35
f 73//214 184//214 182//214
f 70//35 180//35 184//35
f 71//215 70//215 184//215
f 184//216 73//216 71//216
f 180//55 70//55 65//55
f 185//217 175//217 180//217
f 180//218 186//218 185//218
f 186//219 180//219 187//219
f 187//220 180//220 65//220
f 188//221 187//221 189//221
f 188//222 186//222 187//222
f 190//223 189//223 187//223
f 187//224 65//224 190//224
f 191//225 190//225 192//225
f 194//226 190//226 191//226
f 201//227 192//227 190//227
f 193//226 190//226 194//226
f 190//226 193//226 202//226
f 190//228 195//228 196//228
f 195//229 190//229 205//229
f 196//226 200//226 190//226
f 197//230 190//230 198//230
f 190//231 197//231 201//231
f 198//232 190//232 199//232
f 190//232 200//232 199//232
f 190//233 204//233 189//233
f 205//234 190//234 65//234
f 202//235 203//235 190//235
f 204//236 190//236 203//236
f 207//35 195//35 205//35
f 206//55 210//55 205//55
f 205//237 64//237 206//237
f 64//238 205//238 65//238
f 205//36 209//36 207//36
f 205//107 208//107 209//107
f 205//6 210//6 208//6
f 199//239 210//239 198//239
f 198//240 210//240 197//240
f 211//241 197//241 210//241
f 210//242 206//242 211//242
f 210//243 199//243 208//243
f 206//39 212//39 211//39
f 212//244 201//244 211//244
f 197//245 211//245 201//245
f 201//246 212//246 215//246
f 212//39 206//39 213//39
f 213//247 214//247 212//247
f 215//248 212//248 214//248
f 215//249 192//249 201//249
f 214//250 192//250 215//250
f 216//251 192//251 214//251
f 214//252 217//252 216//252
f 217//253 214//253 213//253
f 219//64 218//64 217//64
f 218//254 216//254 217//254
f 213//255 219//255 217//255
f 64//256 220//256 219//256
f 206//198 64//198 219//198
f 220//257 221//257 219//257
f 222//55 219//55 221//55
f 219//258 222//258 218//258
f 219//35 213//35 206//35
f 222//259 223//259 218//259
f 223//260 222//260 224//260
f 225//198 222//198 221//198
f 222//198 225//198 224//198
f 227//225 224//225 225//225
f 226//261 225//261 221//261
f 225//261 226//261 227//261
f 224//262 227//262 223//262
f 227//263 229//263 223//263
f 229//264 227//264 228//264
f 227//136 230//136 228//136
f 230//136 227//136 226//136
f 226//36 231//36 230//36
f 231//265 228//265 230//265
f 231//20 220//20 232//20
f 231//36 226//36 220//36
f 228//266 231//266 229//266
f 232//267 229//267 231//267
f 234//268 192//268 232//268
f 233//269 232//269 192//269
f 220//18 234//18 232//18
f 229//270 232//270 233//270
f 236//158 235//158 234//158
f 235//271 191//271 234//271
f 192//272 234//272 191//272
f 234//55 220//55 236//55
f 236//153 237//153 235//153
f 238//55 237//55 236//55
f 62//136 236//136 220//136
f 62//237 238//237 236//237
f 238//18 240//18 239//18
f 237//273 238//273 239//273
f 240//55 238//55 242//55
f 242//35 238//35 241//35
f 243//35 241//35 238//35
f 238//274 62//274 59//274
f 202//275 243//275 238//275
f 238//276 203//276 202//276
f 203//277 238//277 59//277
f 244//278 246//278 243//278
f 245//279 244//279 243//279
f 243//280 202//280 245//280
f 243//153 246//153 241//153
f 246//55 244//55 249//55
f 249//281 247//281 246//281
f 248//282 246//282 247//282
f 246//283 248//283 241//283
f 247//284 249//284 250//284
f 249//285 251//285 250//285
f 251//286 249//286 252//286
f 249//55 244//55 252//55
f 252//287 253//287 251//287
f 253//288 252//288 244//288
f 247//289 253//289 245//289
f 244//290 245//290 253//290
f 253//291 250//291 251//291
f 253//289 247//289 250//289
f 254//292 241//292 248//292
f 245//293 254//293 248//293
f 245//291 248//291 247//291
f 241//294 254//294 242//294
f 255//295 242//295 254//295
f 254//263 202//263 255//263
f 254//263 245//263 202//263
f 242//296 255//296 240//296
f 256//297 240//297 255//297
f 255//263 202//263 256//263
f 240//298 256//298 239//298
f 193//299 239//299 256//299
f 202//300 193//300 256//300
f 239//301 193//301 237//301
f 194//302 237//302 193//302
f 237//303 194//303 235//303
f 191//304 235//304 194//304
f 192//263 216//263 233//263
f 223//300 229//300 233//300
f 223//263 233//263 216//263
f 221//36 220//36 226//36
f 216//305 218//305 223//305
f 220//306 64//306 62//306
f 209//307 200//307 207//307
f 200//308 209//308 199//308
f 208//309 199//309 209//309
f 258//310 207//310 200//310
f 257//55 195//55 207//55
f 207//311 258//311 257//311
f 259//312 257//312 258//312
f 196//263 258//263 200//263
f 196//226 259//226 258//226
f 262//313 260//313 259//313
f 260//314 261//314 259//314
f 257//315 259//315 261//315
f 259//316 196//316 262//316
f 195//317 262//317 196//317
f 264//318 263//318 262//318
f 260//263 262//263 263//263
f 262//319 195//319 264//319
f 263//320 264//320 266//320
f 265//257 264//257 261//257
f 264//36 265//36 266//36
f 195//321 261//321 264//321
f 266//136 260//136 263//136
f 260//136 266//136 265//136
f 261//265 260//265 265//265
f 261//55 195//55 257//55
f 267//322 204//322 203//322
f 267//323 269//323 204//323
f 269//324 268//324 204//324
f 268//325 189//325 204//325
f 267//326 270//326 269//326
f 270//327 268//327 269//327
f 271//328 270//328 272//328
f 268//329 270//329 271//329
f 270//330 273//330 272//330
f 270//331 267//331 273//331
f 274//332 272//332 273//332
f 161//333 273//333 267//333
f 161//334 274//334 273//334
f 277//335 275//335 274//335
f 276//336 274//336 275//336
f 274//337 276//337 272//337
f 274//338 279//338 277//338
f 278//339 274//339 164//339
f 274//340 278//340 279//340
f 274//341 161//341 164//341
f 281//226 279//226 280//226
f 285//300 280//300 279//300
f 279//342 281//342 283//342
f 282//300 279//300 283//300
f 282//300 277//300 279//300
f 284//343 279//343 278//343
f 279//344 284//344 285//344
f 280//226 285//226 286//226
f 287//263 286//263 285//263
f 285//345 284//345 288//345
f 288//346 287//346 285//346
f 288//347 289//347 287//347
f 289//348 288//348 290//348
f 288//25 292//25 290//25
f 284//36 291//36 288//36
f 288//36 291//36 292//36
f 292//349 289//349 290//349
f 289//350 292//350 293//350
f 291//351 293//351 292//351
f 293//225 287//225 289//225
f 293//352 291//352 286//352
f 286//353 287//353 293//353
f 284//99 294//99 291//99
f 294//354 280//354 291//354
f 286//355 291//355 280//355
f 294//19 284//19 278//19
f 278//36 295//36 294//36
f 295//356 280//356 294//356
f 295//28 278//28 296//28
f 280//357 295//357 281//357
f 296//358 281//358 295//358
f 278//36 297//36 296//36
f 297//359 283//359 296//359
f 281//360 296//360 283//360
f 298//19 299//19 297//19
f 297//20 278//20 298//20
f 283//361 297//361 282//361
f 299//362 300//362 297//362
f 282//363 297//363 300//363
f 301//263 277//263 300//263
f 277//364 282//364 300//364
f 300//365 299//365 301//365
f 302//300 277//300 301//300
f 301//366 303//366 302//366
f 303//367 301//367 299//367
f 303//35 298//35 304//35
f 299//35 298//35 303//35
f 304//368 302//368 303//368
f 305//55 304//55 298//55
f 305//158 306//158 304//158
f 306//369 302//369 304//369
f 305//370 307//370 306//370
f 302//371 306//371 308//371
f 307//372 308//372 306//372
f 310//373 309//373 308//373
f 308//263 309//263 302//263
f 308//374 307//374 310//374
f 309//313 310//313 311//313
f 310//375 312//375 311//375
f 312//376 310//376 307//376
f 312//36 305//36 313//36
f 305//50 312//50 307//50
f 313//136 311//136 312//136
f 305//36 315//36 313//36
f 311//136 313//136 314//136
f 315//377 314//377 313//377
f 315//378 305//378 316//378
f 316//55 317//55 315//55
f 317//198 318//198 315//198
f 314//377 315//377 318//377
f 319//263 314//263 318//263
f 318//379 317//379 319//379
f 314//226 319//226 320//226
f 321//380 319//380 317//380
f 319//381 321//381 320//381
f 317//382 316//382 321//382
f 316//383 322//383 321//383
f 322//384 320//384 321//384
f 316//36 323//36 322//36
f 323//385 309//385 322//385
f 320//386 322//386 309//386
f 323//36 316//36 324//36
f 324//387 325//387 323//387
f 325//388 326//388 323//388
f 309//389 323//389 326//389
f 327//390 326//390 325//390
f 326//391 327//391 328//391
f 328//300 302//300 326//300
f 326//300 302//300 309//300
f 329//392 328//392 327//392
f 328//393 329//393 330//393
f 302//394 328//394 330//394
f 277//263 330//263 332//263
f 302//251 330//251 277//251
f 331//395 330//395 329//395
f 330//396 331//396 332//396
f 277//226 332//226 333//226
f 332//397 334//397 333//397
f 334//398 332//398 331//398
f 331//55 335//55 334//55
f 334//55 335//55 336//55
f 336//399 333//399 334//399
f 336//387 337//387 338//387
f 337//36 336//36 335//36
f 338//400 339//400 336//400
f 333//401 336//401 339//401
f 341//300 339//300 340//300
f 339//402 338//402 340//402
f 339//226 341//226 277//226
f 277//403 333//403 339//403
f 342//226 341//226 340//226
f 342//342 343//342 341//342
f 344//404 341//404 343//404
f 341//405 344//405 337//405
f 337//406 277//406 341//406
f 346//36 344//36 345//36
f 343//407 345//407 344//407
f 344//64 346//64 347//64
f 347//55 337//55 344//55
f 337//55 347//55 338//55
f 347//408 342//408 338//408
f 346//409 348//409 347//409
f 342//410 347//410 348//410
f 343//411 342//411 348//411
f 343//263 348//263 349//263
f 348//412 345//412 349//412
f 345//413 348//413 346//413
f 345//414 343//414 349//414
f 340//415 338//415 342//415
f 277//416 337//416 335//416
f 350//417 335//417 324//417
f 335//418 350//418 351//418
f 329//55 335//55 331//55
f 329//36 324//36 335//36
f 335//419 275//419 277//419
f 275//420 335//420 351//420
f 353//421 275//421 351//421
f 353//422 351//422 166//422
f 164//423 166//423 351//423
f 352//424 351//424 350//424
f 351//425 352//425 164//425
f 171//193 354//193 353//193
f 185//426 353//426 354//426
f 275//427 353//427 185//427
f 353//428 166//428 171//428
f 175//19 354//19 171//19
f 185//429 354//429 175//429
f 350//430 305//430 352//430
f 298//136 352//136 305//136
f 352//431 278//431 164//431
f 278//432 352//432 298//432
f 305//433 350//433 316//433
f 350//198 324//198 316//198
f 327//19 324//19 329//19
f 325//158 324//158 327//158
f 311//263 320//263 309//263
f 320//263 311//263 314//263
f 271//434 276//434 355//434
f 276//435 271//435 272//435
f 355//436 276//436 356//436
f 276//437 185//437 356//437
f 276//438 275//438 185//438
f 188//439 355//439 356//439
f 185//440 188//440 356//440
f 268//300 355//300 357//300
f 355//441 188//441 357//441
f 355//263 268//263 271//263
f 189//442 268//442 357//442
f 357//443 188//443 189//443
f 267//444 358//444 158//444
f 203//445 358//445 267//445
f 162//446 267//446 158//446
f 161//447 267//447 162//447
f 360//19 358//19 359//19
f 358//19 56//19 359//19
f 56//54 358//54 57//54
f 59//387 57//387 358//387
f 203//448 59//448 358//448
f 158//449 358//449 360//449
f 360//450 156//450 155//450
f 155//451 158//451 360//451
f 156//452 360//452 359//452
f 359//453 53//453 156//453
f 53//454 359//454 56//454
f 188//455 185//455 186//455
f 107//456 169//456 106//456
f 165//36 361//36 169//36
f 361//20 106//20 169//20
f 165//36 362//36 361//36
f 110//55 106//55 361//55
f 362//457 363//457 361//457
f 363//458 110//458 361//458
f 110//459 363//459 115//459
f 119//1 115//1 363//1
f 363//460 362//460 119//460
f 165//136 119//136 362//136
f 53//321 52//321 156//321
f 52//461 54//461 151//461
f 140//462 5//462 137//462
f 5//463 140//463 6//463
f 137//464 8//464 135//464
f 8//465 137//465 5//465
f 8//466 134//466 135//466
f 364//467 131//467 134//467
f 134//468 4//468 364//468
f 134//469 8//469 4//469
f 131//470 364//470 365//470
f 365//471 364//471 366//471
f 364//472 4//472 3//472
f 3//473 366//473 364//473
f 367//474 366//474 368//474
f 365//475 366//475 367//475
f 3//476 368//476 366//476
f 89//477 90//477 368//477
f 367//478 368//478 90//478
f 2//479 368//479 3//479
f 368//480 2//480 89//480
f 369//481 365//481 367//481
f 90//35 93//35 367//35
f 369//36 367//36 93//36
f 125//482 370//482 369//482
f 365//158 369//158 370//158
f 95//483 369//483 93//483
f 369//484 95//484 125//484
f 126//485 129//485 370//485
f 131//55 370//55 129//55
f 370//486 125//486 126//486
f 365//107 370//107 131//107
f 124//487 121//487 120//487
f 104//19 77//19 74//19
f 77//107 104//107 79//107
f 96//488 83//488 80//488
f 83//488 96//488 92//488
f 85//489 83//489 92//489
f 2//490 87//490 89//490
f 9//491 87//491 2//491
f 9//492 12//492 87//492
f 66//321 65//321 70//321
f 43//4 25//4 39//4
f 24//493 39//493 25//493
f 39//494 24//494 31//494
f 6//495 33//495 7//495
f 7//496 33//496 30//496
f 10//497 30//497 27//497
f 7//498 30//498 10//498
f 28//499 17//499 14//499
f 28//500 10//500 27//500
f 14//501 11//501 28//501
f 10//502 28//502 11//502
