# Blender 5.0.1
# www.blender.org
mtllib torso_y_link_visual_4.mtl
o i01.torso.full.006_visual.001
v -0.019934 0.061472 0.067026
v 0.002730 0.056117 0.122716
v 0.034141 0.058862 0.094092
v 0.022064 0.057373 0.109618
v -0.025147 -0.097742 0.054285
v -0.027382 0.061197 0.069900
v -0.018536 -0.098002 0.050333
v -0.016414 0.061983 0.061703
v 0.043570 0.061565 0.065936
v 0.040341 0.060166 0.080509
v -0.016240 0.062716 0.054070
v -0.015705 -0.098636 0.040696
v 0.149521 -0.102652 -0.020378
v 0.189141 -0.108585 -0.110610
v 0.145258 -0.098442 0.043642
v -0.020231 -0.099142 0.032988
v -0.028884 -0.099324 0.030235
v -0.022081 0.063361 0.047365
v -0.003087 0.068803 -0.009314
v -0.022146 0.069183 -0.013229
v 0.018885 0.067586 0.003315
v 0.032078 0.066126 0.018489
v -0.031137 0.063454 0.046417
v -0.037148 0.069146 -0.012818
v -0.055061 0.068712 -0.008265
v -0.037535 0.063003 0.051117
v -0.036480 -0.099059 0.034264
v -0.039828 -0.098574 0.041636
v -0.145787 -0.100812 0.007593
v -0.137625 -0.105323 -0.061009
v -0.153632 -0.099451 0.028298
v -0.182665 -0.101774 -0.007036
v -0.146055 -0.105023 -0.056405
v -0.179274 -0.064059 -0.007755
v -0.145787 -0.063212 0.005120
v -0.153632 -0.061851 0.025826
v -0.060670 -0.074490 -0.166395
v -0.095870 -0.071876 -0.126646
v -0.143432 -0.067465 -0.059560
v -0.149675 -0.067435 -0.059104
v -0.134560 -0.061665 0.028650
v -0.137018 -0.067780 -0.064350
v -0.135404 -0.068344 -0.072921
v -0.135325 -0.105855 -0.069095
v -0.095870 -0.109477 -0.124173
v -0.019927 -0.112993 -0.177649
v -0.138774 -0.106381 -0.077102
v -0.129720 -0.110304 -0.136755
v -0.145892 -0.106576 -0.080054
v -0.139116 -0.068778 -0.079524
v -0.146059 -0.068993 -0.082799
v -0.143607 -0.072851 -0.141457
v -0.165597 -0.072705 -0.139238
v -0.154880 -0.068812 -0.080057
v -0.153462 -0.106486 -0.078689
v -0.128509 -0.072678 -0.138830
v -0.206480 -0.108343 -0.106938
v -0.158581 -0.106054 -0.072131
v -0.197350 -0.109082 -0.118174
v -0.183895 -0.109787 -0.128903
v -0.168692 -0.110228 -0.135608
v -0.149870 -0.110455 -0.139034
v -0.187387 -0.072044 -0.129195
v -0.205339 -0.070884 -0.111547
v -0.213562 -0.069822 -0.095404
v -0.159099 -0.068341 -0.072879
v -0.213130 -0.107497 -0.094062
v -0.217394 -0.106463 -0.078350
v -0.217696 -0.068705 -0.078422
v -0.217603 -0.105314 -0.060869
v -0.158621 -0.105562 -0.064646
v -0.156852 -0.067729 -0.063600
v -0.154266 -0.105169 -0.058663
v -0.197047 -0.102506 -0.018173
v -0.207802 -0.103381 -0.031486
v -0.214603 -0.104383 -0.046716
v -0.217465 -0.067635 -0.062141
v -0.214221 -0.066707 -0.048036
v -0.208159 -0.065842 -0.034879
v -0.196424 -0.064842 -0.019672
v -0.073030 -0.113441 -0.184465
v 0.118451 -0.114617 -0.202342
v -0.019927 -0.075393 -0.180120
v 0.118451 -0.077016 -0.204815
v 0.189141 -0.070985 -0.113082
v 0.110496 -0.075667 -0.184296
v -0.019460 -0.074142 -0.161104
v -0.019460 0.019858 -0.167285
v 0.110496 0.018333 -0.190477
v 0.167411 0.023190 -0.116622
v -0.008107 0.026633 -0.070540
v 0.026767 0.027032 -0.061360
v 0.064823 0.028792 -0.034832
v 0.069275 0.030685 -0.021985
v 0.049095 0.030613 -0.037937
v 0.026813 0.030305 -0.051288
v 0.089103 0.032040 0.007800
v 0.093736 0.034860 0.037674
v 0.086897 0.038380 0.037040
v 0.082776 0.037583 0.021055
v 0.076718 0.035551 0.002827
v 0.101635 0.032784 0.032200
v 0.104722 -0.061423 0.032330
v 0.080314 0.036601 0.070437
v 0.167411 -0.070811 -0.110441
v 0.149521 -0.065051 -0.022851
v 0.146603 -0.060859 0.040922
v 0.138492 -0.060634 0.044341
v 0.184047 -0.064042 -0.007491
v 0.194623 -0.101122 0.002892
v 0.155142 -0.060663 0.043887
v 0.196970 -0.063358 0.002909
v 0.181498 -0.101724 -0.006266
v 0.153366 -0.098351 0.045034
v 0.207275 -0.100125 0.018050
v 0.158322 -0.097929 0.051441
v 0.217696 -0.098145 0.048155
v 0.158838 -0.097497 0.058004
v 0.213318 -0.099295 0.030667
v 0.158707 -0.060241 0.050303
v 0.213009 -0.061748 0.027384
v 0.158577 -0.059864 0.056040
v 0.217017 -0.060845 0.041129
v 0.217383 -0.059424 0.062722
v 0.216536 -0.096727 0.069718
v 0.210971 -0.058054 0.083570
v 0.204342 -0.094928 0.097081
v 0.212021 -0.095833 0.083318
v 0.155518 -0.059509 0.061438
v 0.198587 -0.056865 0.101644
v 0.193164 -0.094145 0.108991
v 0.179010 -0.055908 0.116219
v 0.161260 -0.055525 0.122022
v 0.164396 -0.093159 0.123989
v 0.181027 -0.093595 0.117353
v 0.154673 -0.097054 0.064744
v 0.145185 -0.096886 0.067312
v 0.148908 -0.059296 0.064685
v 0.141597 -0.059363 0.063642
v 0.088795 -0.056864 0.101656
v 0.049459 -0.052059 0.174745
v 0.125104 -0.055643 0.120247
v 0.036726 -0.053116 0.158666
v 0.088796 -0.094465 0.104128
v 0.121284 -0.093341 0.121217
v 0.135221 -0.060125 0.052064
v 0.136307 -0.059744 0.057867
v 0.138470 -0.097134 0.063535
v 0.135379 -0.097521 0.057662
v 0.135868 -0.097918 0.051616
v 0.139119 -0.098252 0.046533
v 0.142283 -0.093024 0.126043
v 0.146804 -0.055418 0.123666
v 0.049459 -0.089659 0.177217
v -0.030802 -0.097757 0.054055
v -0.036625 -0.097982 0.050641
v -0.035224 0.061457 0.067214
v -0.054652 -0.087844 0.204816
v -0.147078 -0.093019 0.126113
v -0.147078 -0.055419 0.123641
v -0.054652 -0.050244 0.202344
v -0.049939 -0.051605 0.181641
v -0.063242 0.041873 0.164014
v -0.050032 0.042224 0.175444
v -0.128809 -0.056021 0.114483
v -0.128870 0.037766 0.108172
v -0.131188 0.036792 0.071078
v -0.127386 0.048456 0.087924
v -0.131891 0.103691 0.071064
v -0.132540 0.036444 0.047577
v -0.128195 0.040789 0.091713
v -0.122595 0.050168 0.104337
v -0.125106 0.043337 0.106500
v -0.113764 0.050545 0.115772
v -0.100869 0.042274 0.131314
v -0.086076 0.048795 0.142387
v -0.071224 0.043866 0.155378
v -0.102596 0.048153 0.128446
v -0.103204 0.097755 0.132795
v -0.060013 0.098406 0.125947
v -0.082428 0.096189 0.149058
v -0.088890 0.100944 0.099581
v -0.076970 0.099572 0.113826
v -0.118039 0.099669 0.112887
v -0.121005 0.058694 0.103687
v -0.126732 0.101456 0.094316
v -0.096391 0.102620 0.082143
v -0.093364 0.059588 0.086771
v -0.099341 0.061667 0.065150
v -0.099287 0.104064 0.067118
v -0.131608 0.105922 0.047846
v -0.098413 0.105680 0.050292
v -0.097861 0.063824 0.042694
v -0.093562 0.107283 0.033603
v -0.126952 0.107864 0.027614
v -0.127417 0.047329 0.022373
v -0.118575 0.109660 0.008917
v -0.119542 0.046586 0.004449
v -0.107784 0.048227 -0.013135
v -0.104597 0.111464 -0.009891
v -0.085926 0.108542 0.020484
v -0.089089 0.065936 0.020670
v -0.076480 0.109590 0.009557
v -0.057793 0.110796 -0.003035
v -0.087477 0.112888 -0.024745
v -0.074667 0.067548 0.003877
v -0.061781 0.114129 -0.037713
v -0.094882 0.052270 -0.025081
v -0.081558 0.049271 -0.034918
v -0.079983 0.039145 -0.041606
v -0.094607 0.044470 -0.028474
v -0.067962 0.048732 -0.041854
v -0.056723 0.039057 -0.050384
v -0.046709 0.047112 -0.048379
v -0.038511 0.036585 -0.055269
v -0.026195 0.042028 -0.052103
v -0.024506 0.049870 -0.049237
v -0.034941 0.114617 -0.042836
v -0.038374 0.111327 -0.008590
v -0.016751 0.114555 -0.042234
v -0.023381 0.111389 -0.009259
v 0.001819 0.114195 -0.038520
v -0.008613 0.111151 -0.006821
v 0.005359 0.110625 -0.001364
v 0.024807 0.113233 -0.028546
v 0.022686 0.109452 0.010824
v 0.043827 0.111829 -0.013966
v 0.036278 0.053285 -0.026274
v 0.020989 0.048062 -0.037498
v 0.018900 0.037591 -0.044844
v 0.002984 0.042843 -0.047238
v 0.037299 0.039328 -0.032950
v 0.035306 0.045978 -0.029819
v 0.006615 0.049546 -0.043330
v -0.008271 0.048222 -0.047689
v -0.016120 0.036566 -0.055286
v 0.007076 0.034803 -0.052021
v -0.035522 0.030620 -0.062594
v -0.003445 0.030768 -0.060106
v -0.059183 0.030683 -0.058537
v -0.065082 0.026616 -0.068421
v -0.076419 0.031353 -0.051893
v -0.060670 0.019510 -0.172576
v -0.108305 0.027728 -0.046674
v -0.114582 0.031713 -0.021143
v -0.102685 0.031230 -0.038286
v -0.134417 0.032583 0.022095
v -0.130273 0.039082 0.022985
v -0.118172 0.038661 -0.003440
v -0.130832 0.044609 0.037315
v -0.106858 0.038064 -0.021512
v -0.097316 0.037475 -0.032620
v 0.060387 0.037744 -0.014707
v 0.056228 0.045026 -0.010980
v 0.071939 0.040942 0.007111
v 0.067897 0.047163 0.008652
v 0.061605 0.054539 0.003067
v 0.051685 0.053743 -0.011333
v 0.055414 0.110547 -0.000648
v 0.066609 0.108750 0.018042
v 0.035396 0.107806 0.027935
v 0.042900 0.105867 0.048094
v 0.039008 0.064854 0.031711
v 0.043605 0.063209 0.048834
v 0.043332 0.103406 0.073715
v 0.075688 0.104679 0.060396
v 0.072108 0.102043 0.087836
v 0.035918 0.101346 0.095153
v 0.063146 0.099957 0.109571
v 0.049795 0.098096 0.128975
v 0.025024 0.099866 0.110591
v 0.030010 0.096429 0.146330
v 0.006484 0.098487 0.124972
v -0.016452 0.097748 0.132699
v 0.006065 0.095281 0.158330
v -0.013371 0.058472 0.159680
v 0.003888 0.059001 0.155496
v 0.020727 0.062100 0.148565
v -0.018059 0.094775 0.163653
v -0.029142 0.061587 0.161116
v -0.038974 0.094800 0.163419
v -0.046774 0.065704 0.160142
v -0.060212 0.095208 0.159223
v -0.038885 0.097764 0.132583
v -0.041256 0.055607 0.128116
v -0.019362 0.055515 0.129029
v -0.054847 0.056012 0.123917
v -0.068075 0.056678 0.117018
v -0.083370 0.058012 0.103145
v -0.060009 0.063081 0.156204
v -0.072283 0.057926 0.150738
v -0.070676 0.050292 0.152751
v -0.056584 0.052348 0.160529
v -0.048051 0.054126 0.163898
v -0.048783 0.046482 0.169890
v -0.030254 0.051294 0.163963
v -0.009836 0.044145 0.163371
v 0.036600 0.040803 0.152534
v 0.035228 0.043698 0.149836
v 0.017150 0.052358 0.151480
v -0.003053 0.050290 0.158656
v 0.031877 0.054607 0.143996
v 0.043447 0.053989 0.131646
v 0.045177 0.045792 0.131927
v 0.032151 0.063669 0.141725
v 0.056569 0.040880 0.115105
v 0.066321 0.038007 0.097445
v 0.071306 0.042622 0.085353
v 0.074265 0.050680 0.073009
v 0.077807 0.046377 0.061583
v 0.075577 0.055733 0.059809
v 0.075616 0.056299 0.047006
v 0.084564 0.039387 0.051265
v 0.080058 0.045598 0.046659
v 0.077113 0.049638 0.038002
v 0.081749 0.042597 0.035449
v 0.075999 0.043877 0.021336
v 0.072526 0.050683 0.023096
v 0.073708 0.059315 0.036036
v 0.068993 0.057027 0.018625
v 0.073240 0.106735 0.039004
v 0.058602 0.033346 -0.024447
v 0.034397 0.035029 -0.039764
v -0.039718 0.062187 0.059618
v 0.205991 -0.062655 0.013593
v -0.073030 -0.075841 -0.186937
vn 0.0001 0.9954 0.0957
vn 0.0002 0.9954 0.0956
vn -0.5088 0.0852 -0.8567
vn -0.3614 0.0861 -0.9284
vn -0.8353 0.0500 -0.5475
vn 0.0002 0.9954 0.0957
vn -0.9997 -0.0014 -0.0229
vn -0.9583 0.0329 -0.2838
vn -0.0000 -0.9978 0.0656
vn -0.8602 -0.0450 0.5080
vn -0.3003 -0.0875 0.9498
vn -0.7555 -0.0663 0.6518
vn -0.1046 -0.0998 0.9895
vn 0.4647 -0.0812 0.8817
vn 0.5938 -0.0794 0.8007
vn 0.9089 -0.0373 0.4153
vn 0.0002 -0.9978 0.0656
vn -0.9354 -0.0232 -0.3529
vn -0.3694 0.0509 0.9279
vn -0.3596 0.0612 0.9311
vn -0.9354 -0.0232 -0.3528
vn -0.0000 0.9978 -0.0656
vn 0.0001 0.9978 -0.0656
vn -0.9828 -0.0208 -0.1837
vn -0.0001 0.9978 -0.0657
vn -0.5992 -0.0614 -0.7982
vn -0.9620 -0.0088 -0.2730
vn -0.0001 -0.9978 0.0656
vn -0.9187 0.0382 0.3932
vn -0.3839 0.0656 0.9211
vn -0.4273 0.0543 0.9025
vn -0.8721 0.0236 0.4887
vn 0.2973 0.0458 0.9537
vn 0.1779 0.0725 0.9814
vn 0.1717 -0.0598 -0.9833
vn 0.3504 -0.0628 -0.9345
vn 0.7889 0.0519 0.6124
vn 0.1126 -0.0825 -0.9902
vn -0.1006 -0.0473 -0.9938
vn -0.1795 -0.0801 -0.9805
vn -0.4042 -0.0550 -0.9130
vn -0.4193 -0.0458 -0.9067
vn -0.6243 -0.0638 -0.7786
vn -0.7016 -0.0232 -0.7122
vn -0.8914 -0.0263 -0.4524
vn -0.7767 -0.0535 -0.6276
vn -0.8889 -0.0291 -0.4571
vn -0.9652 -0.0204 -0.2606
vn -0.9717 -0.0082 -0.2360
vn -0.9999 -0.0080 -0.0114
vn 0.9718 -0.0390 -0.2327
vn 0.9999 0.0138 0.0044
vn 0.8090 -0.0216 -0.5874
vn -0.9784 0.0106 0.2066
vn -0.9747 0.0177 0.2229
vn -0.9134 0.0235 0.4064
vn -0.9086 0.0290 0.4167
vn -0.7923 0.0474 0.6083
vn -0.5714 0.0670 0.8179
vn -0.7785 0.0378 0.6265
vn -0.6131 0.0415 0.7889
vn -0.0000 0.9978 -0.0658
vn -0.9999 0.0041 0.0140
vn 0.2656 -0.0436 -0.9631
vn 0.5316 -0.0745 -0.8437
vn -0.0002 -0.9979 0.0655
vn 0.0002 0.9979 -0.0655
vn 0.8626 0.0219 0.5054
vn 0.0001 0.9979 -0.0655
vn 0.3491 -0.0615 -0.9351
vn 0.1276 -0.0651 -0.9897
vn -0.1760 -0.0646 -0.9823
vn 0.7927 -0.0400 -0.6083
vn -0.1761 -0.0646 -0.9823
vn -0.0007 0.9976 -0.0698
vn 0.0014 0.9978 -0.0667
vn 0.0054 0.9980 -0.0638
vn 0.0005 0.9978 -0.0669
vn 0.1695 0.9371 -0.3053
vn 0.2953 0.9251 -0.2386
vn 0.1507 0.9691 -0.1950
vn 0.1683 0.9381 -0.3026
vn -0.0042 0.9973 -0.0736
vn 0.1742 0.9775 -0.1192
vn 0.4635 0.8726 -0.1542
vn 0.4422 0.8829 -0.1581
vn 0.3458 0.9130 -0.2167
vn 0.3652 0.8867 -0.2834
vn 0.0355 0.9982 -0.0487
vn 0.9150 0.0265 0.4027
vn 0.9159 0.0306 0.4002
vn 0.8743 0.0293 0.4846
vn 0.3001 0.9512 0.0724
vn -0.0001 0.9978 -0.0656
vn 0.9159 0.0263 0.4005
vn 0.4072 -0.0599 -0.9114
vn 0.9159 0.0263 0.4004
vn 0.6277 -0.0387 -0.7775
vn 0.5730 -0.0653 -0.8169
vn 0.4045 -0.0570 -0.9128
vn -0.1696 0.0772 0.9825
vn -0.0000 -0.9978 0.0657
vn -0.7915 0.0558 0.6086
vn -0.3286 0.0442 0.9434
vn -0.9969 0.0125 0.0776
vn -0.8745 0.0236 0.4844
vn -0.9997 -0.0081 -0.0222
vn -0.0000 0.9978 -0.0657
vn 0.9984 -0.0124 0.0545
vn 0.9997 0.0148 -0.0179
vn 0.9559 0.0330 0.2918
vn 0.8253 0.0575 0.5617
vn 0.8737 0.0211 0.4861
vn 0.9493 0.0243 0.3135
vn 0.5979 0.0704 0.7985
vn 0.7298 0.0285 0.6831
vn 0.3113 0.0755 0.9473
vn 0.3712 0.0478 0.9273
vn 0.5682 0.0551 0.8210
vn 0.0001 -0.9978 0.0656
vn -0.2617 -0.0415 -0.9642
vn -0.8511 -0.0270 -0.5243
vn -0.4416 -0.0688 -0.8945
vn 0.1415 -0.0830 -0.9864
vn 0.0001 0.9979 -0.0654
vn -0.0004 0.9978 -0.0663
vn 0.8810 0.0310 0.4721
vn -0.4565 0.0691 0.8870
vn -0.4663 0.0580 0.8827
vn 0.7380 -0.0592 -0.6722
vn 0.9830 -0.0231 -0.1823
vn 0.8853 -0.0192 -0.4647
vn 0.0001 -0.9978 0.0657
vn 0.9967 0.0161 0.0795
vn -0.0002 -0.9979 0.0654
vn 0.0002 -0.9978 0.0658
vn 0.8429 0.0453 0.5362
vn 0.9210 0.0111 0.3893
vn 0.4267 0.0597 0.9024
vn 0.4910 -0.0382 -0.8703
vn 0.0001 0.9978 -0.0658
vn -0.2244 0.0478 0.9733
vn 0.0927 0.0517 0.9944
vn -0.1559 0.0810 0.9844
vn 0.1132 0.0613 0.9917
vn 0.5015 0.0851 -0.8609
vn 0.0402 0.0983 -0.9944
vn 0.3253 0.0869 -0.9416
vn -0.6491 0.0499 0.7590
vn 0.2568 0.0634 0.9644
vn -0.6491 0.0507 0.7590
vn -0.6543 0.0492 0.7547
vn 0.2568 0.0639 0.9644
vn -0.9981 0.0035 0.0623
vn -0.6490 0.0506 0.7591
vn -0.9978 0.0055 0.0665
vn -0.9810 0.1587 0.1115
vn -0.9739 -0.0102 0.2269
vn -0.9983 -0.0105 0.0576
vn -0.9983 0.0095 0.0573
vn -0.8961 0.4417 0.0444
vn -0.9416 0.2237 0.2516
vn -0.9174 0.3773 0.1267
vn -0.8163 0.5731 0.0718
vn -0.7193 0.4357 0.5411
vn -0.5772 0.5666 0.5880
vn -0.6951 0.2089 0.6879
vn -0.6436 0.1842 0.7429
vn -0.5402 0.5596 0.6285
vn -0.6293 0.1252 0.7670
vn -0.6387 0.1776 0.7487
vn -0.7353 0.1103 0.6687
vn -0.6414 -0.0748 0.7635
vn -0.7548 -0.0665 0.6526
vn -0.6181 -0.0627 0.7836
vn -0.8030 -0.0349 0.5950
vn 0.0001 0.9954 0.0956
vn -0.9064 -0.0290 0.4215
vn -0.8705 -0.0470 0.4899
vn -0.9764 -0.0139 0.2153
vn -0.9179 -0.0363 0.3951
vn 0.9192 0.0224 -0.3932
vn 0.9641 0.0396 -0.2627
vn 0.9820 0.0075 -0.1886
vn 0.9987 -0.0036 0.0515
vn 0.9978 0.0012 0.0659
vn 0.9605 -0.0374 0.2756
vn -0.9133 0.0421 -0.4051
vn -0.9747 0.0267 -0.2218
vn -0.8324 0.0519 -0.5518
vn -0.9140 0.0426 -0.4034
vn -0.8038 0.0708 -0.5906
vn 0.8652 -0.0621 0.4976
vn 0.7580 -0.0534 0.6501
vn 0.5605 -0.0871 0.8235
vn 0.7601 -0.0547 0.6475
vn 0.5282 -0.0709 0.8461
vn -0.4521 0.0997 -0.8864
vn -0.6570 0.0844 -0.7491
vn -0.5812 0.0755 -0.8103
vn -0.5208 0.4126 -0.7473
vn -0.3875 0.4654 -0.7958
vn -0.5124 0.3273 -0.7939
vn -0.4491 0.0987 -0.8880
vn -0.3246 0.3847 -0.8641
vn -0.2223 0.4866 -0.8449
vn -0.2863 0.0875 -0.9541
vn -0.0202 0.5365 -0.8437
vn -0.1768 0.4390 -0.8809
vn -0.0804 0.3574 -0.9305
vn -0.0497 0.0903 -0.9947
vn -0.1883 0.1129 -0.9756
vn 0.0332 0.1036 -0.9941
vn 0.0448 -0.0984 0.9941
vn -0.1637 -0.0971 0.9817
vn 0.0275 -0.0928 0.9953
vn -0.3652 -0.1021 0.9253
vn -0.2021 -0.0838 0.9758
vn 0.3995 0.1017 -0.9111
vn 0.6101 0.0869 -0.7875
vn 0.5724 0.0786 -0.8162
vn 0.4548 0.4489 -0.7692
vn 0.2902 0.5101 -0.8097
vn 0.3851 0.3002 -0.8727
vn 0.4667 0.4873 -0.7380
vn 0.4830 0.3294 -0.8113
vn 0.3828 0.0968 -0.9187
vn 0.2253 0.3968 -0.8898
vn 0.2724 0.0915 -0.9578
vn 0.0231 0.5349 -0.8446
vn 0.1219 0.3174 -0.9404
vn 0.2338 0.4155 -0.8790
vn 0.1040 0.0947 -0.9901
vn 0.1970 0.1053 -0.9747
vn 0.1430 0.7986 -0.5846
vn 0.1570 0.5627 -0.8116
vn 0.0002 0.7754 -0.6314
vn -0.0002 0.5032 -0.8642
vn 0.0518 0.7029 -0.7094
vn 0.0250 0.9255 -0.3779
vn 0.1352 0.8990 -0.4166
vn 0.1948 0.7525 -0.6291
vn -0.1102 0.7482 -0.6543
vn -0.0576 0.9349 -0.3502
vn -0.0188 0.8661 -0.4995
vn -0.0029 0.9976 -0.0695
vn -0.1650 0.9124 -0.3747
vn -0.0913 0.9389 -0.3317
vn 0.0003 0.9977 -0.0681
vn -0.0088 0.9976 -0.0684
vn -0.5204 0.8149 -0.2551
vn -0.2682 0.9396 -0.2126
vn -0.1549 0.9443 -0.2904
vn -0.9352 -0.0232 -0.3534
vn -0.9354 -0.0226 -0.3529
vn -0.9355 -0.0232 -0.3525
vn -0.7632 0.5360 -0.3609
vn -0.8418 0.5394 -0.0197
vn -0.9974 0.0066 0.0725
vn -0.9368 0.3127 -0.1572
vn -0.8732 0.2724 -0.4042
vn -0.7719 0.5228 -0.3618
vn -0.9911 0.1069 -0.0799
vn -0.9755 0.0252 -0.2184
vn -0.9881 0.0138 -0.1534
vn -0.8841 0.2440 -0.3986
vn -0.7916 0.3569 -0.4960
vn -0.7903 0.3452 -0.5062
vn -0.5946 0.7001 -0.3954
vn -0.4533 0.7804 -0.4307
vn -0.5866 0.6885 -0.4265
vn -0.6090 0.4707 -0.6384
vn -0.6107 0.5652 -0.5546
vn -0.3476 0.7761 -0.5262
vn -0.4189 0.5776 -0.7007
vn -0.3348 0.6917 -0.6399
vn -0.2280 0.7128 -0.6633
vn -0.2378 0.7328 -0.6375
vn -0.0916 0.7083 -0.6999
vn 0.1963 0.7606 -0.6189
vn 0.3085 0.5973 -0.7403
vn 0.5627 0.4841 -0.6701
vn 0.5467 0.6073 -0.5764
vn 0.6529 0.2586 -0.7120
vn 0.6640 0.6045 -0.4401
vn 0.6839 0.5601 -0.4675
vn 0.8054 0.2998 -0.5113
vn 0.7548 0.3715 -0.5406
vn 0.6561 0.3142 -0.6862
vn 0.8210 0.0530 -0.5685
vn 0.6939 0.0614 -0.7174
vn 0.7559 0.0728 -0.6506
vn 0.8588 0.0612 -0.5086
vn -0.8040 -0.0698 0.5905
vn -0.9376 -0.0486 0.3443
vn -0.8866 -0.0340 0.4614
vn -0.9660 -0.0115 0.2582
vn -0.9998 -0.0163 0.0153
vn -1.0000 -0.0052 -0.0025
vn -0.9764 0.0340 -0.2131
vn -0.9454 0.0142 -0.3256
vn -0.9104 0.0483 -0.4109
vn -0.8183 0.0485 -0.5728
vn -0.7906 0.0690 -0.6084
vn -0.6146 0.0608 -0.7865
vn -0.5626 0.0936 -0.8214
vn -0.3205 0.0787 -0.9440
vn 0.2373 -0.0898 0.9673
vn 0.2164 -0.0786 0.9731
vn 0.3938 -0.0951 0.9143
vn 0.4496 -0.0635 0.8910
vn -0.0113 -0.0725 0.9973
vn 0.0707 -0.0995 0.9925
vn -0.0762 -0.0914 0.9929
vn -0.1946 -0.0581 0.9792
vn 0.0419 0.1029 -0.9938
vn 0.3009 0.0837 -0.9500
vn 0.0052 0.0862 -0.9963
vn -0.2759 0.1021 -0.9558
vn 0.2964 0.0817 -0.9516
vn 0.4641 0.0987 -0.8803
vn 0.6735 0.0850 -0.7343
vn 0.5832 0.0607 -0.8100
vn 0.8545 0.0671 -0.5151
vn 0.7683 0.0458 -0.6385
vn -0.2672 -0.0918 0.9593
vn -0.4176 -0.0710 0.9059
vn -0.3738 -0.0891 0.9232
vn -0.4507 0.1377 0.8820
vn -0.5622 0.0982 0.8212
vn -0.4732 -0.0870 0.8767
vn -0.5452 0.3567 0.7586
vn -0.4954 0.1840 0.8490
vn -0.4901 0.3654 0.7914
vn -0.4050 0.3223 0.8556
vn -0.3227 0.2634 0.9091
vn -0.4000 0.5889 0.7023
vn -0.4588 0.5291 0.7138
vn -0.5432 0.5549 0.6301
vn 0.0940 0.6086 0.7879
vn 0.1503 0.7679 0.6227
vn -0.4380 0.7582 0.4830
vn 0.1742 0.4239 0.8888
vn 0.2323 0.4747 0.8489
vn 0.2068 0.7178 0.6648
vn 0.2681 0.3927 0.8797
vn 0.2761 0.3744 0.8852
vn 0.1863 0.4603 0.8680
vn 0.3262 0.0818 0.9418
vn 0.1944 0.1234 0.9731
vn 0.2275 0.1668 0.9594
vn 0.3533 0.1467 0.9240
vn 0.4375 0.1065 0.8929
vn 0.3218 0.5218 0.7901
vn 0.7228 0.1755 0.6684
vn 0.7255 0.1466 0.6724
vn 0.7425 0.4788 0.4685
vn 0.4832 0.1991 0.8526
vn 0.5205 -0.0854 0.8496
vn 0.6611 -0.0619 0.7477
vn 0.6427 -0.0462 0.7647
vn 0.8376 0.1943 0.5105
vn 0.8342 0.2482 0.4924
vn 0.8778 0.0993 0.4686
vn 0.6691 0.6511 0.3583
vn 0.7542 -0.0690 0.6530
vn 0.8249 -0.0390 0.5639
vn 0.8707 -0.0511 0.4891
vn 0.9276 -0.0254 0.3727
vn 0.8803 0.0321 0.4733
vn 0.8721 0.2127 0.4408
vn 0.8880 0.0431 0.4578
vn 0.8810 0.0311 0.4721
vn 0.9251 -0.0283 0.3787
vn 0.9754 -0.0223 0.2192
vn 0.9598 0.0655 0.2728
vn 0.8219 0.4835 0.3011
vn 0.9453 0.2621 0.1943
vn 0.9721 0.2342 0.0133
vn 0.9184 0.3774 0.1189
vn 0.8556 0.4505 0.2551
vn 0.7757 0.6254 0.0844
vn 0.9140 0.3837 -0.1319
vn 0.7763 0.6248 0.0831
vn 0.6492 0.7535 -0.1038
vn 0.8311 0.5556 -0.0234
vn 0.6617 0.7215 -0.2041
vn 0.7620 0.5946 -0.2565
vn 0.6573 0.7250 -0.2056
vn 0.6361 0.6994 -0.3259
vn 0.7512 0.5703 -0.3322
vn 0.7841 0.4965 -0.3723
vn 0.8430 0.4885 -0.2252
vn 0.9012 0.2546 -0.3508
vn 0.9250 0.2716 -0.2657
vn 0.9086 0.3044 -0.2861
vn 0.8189 0.3605 -0.4465
vn 0.9004 0.0366 -0.4334
vn 0.9640 0.0261 -0.2645
vn 0.9538 0.0406 -0.2978
vn 0.9859 0.0201 -0.1660
vn 0.9934 0.0292 -0.1109
vn 0.9453 0.3170 -0.0773
vn 0.4568 0.8895 0.0120
vn 0.7025 0.6654 0.2524
vn 1.0000 -0.0023 0.0029
vn 0.9952 -0.0034 0.0976
vn 0.9915 0.0042 0.1297
vn 0.2561 0.0633 0.9646
vn 0.0383 0.2626 0.9641
vn 0.1367 0.2504 0.9584
vn 0.0190 0.3066 0.9516
vn 0.5166 0.7645 -0.3856
vn 0.5957 0.7521 -0.2818
vn 0.4006 0.8053 -0.4370
vn 0.5526 0.7169 -0.4250
vn 0.4298 0.6697 -0.6056
vn 0.2907 0.9187 -0.2674
vn 0.3067 0.8674 -0.3919
vn 0.3091 0.8659 -0.3933
vn 0.3179 0.7349 -0.5991
vn 0.3037 0.7947 -0.5256
vn 0.3041 0.7944 -0.5258
vn -0.5771 -0.0932 0.8114
vn -0.7561 -0.0484 0.6527
vn -0.4999 -0.0632 0.8637
vn 0.2762 -0.1009 0.9558
vn 0.2474 -0.0895 0.9648
vn -0.6985 0.2646 -0.6649
vn -0.6897 0.0717 -0.7206
vn 0.9294 -0.0148 0.3687
vn 0.8617 0.0450 -0.5055
vn 0.9407 0.0371 -0.3371
vn 0.9688 -0.0282 0.2461
vn -0.9999 0.0135 -0.0109
vn -0.7800 0.1908 0.5960
vn -0.9466 0.1959 0.2559
vn -0.9978 0.0044 0.0666
vn -0.8705 -0.0317 -0.4912
vn 0.9701 -0.0277 -0.2410
vn 0.9602 -0.0165 -0.2789
vn 0.9022 -0.0302 -0.4302
vn 0.8916 -0.0232 -0.4522
vn 0.7684 -0.0496 -0.6381
vn 0.7648 -0.0473 -0.6426
vn 0.3891 0.0526 0.9197
vn 0.0704 0.9486 -0.3086
vn -0.0730 -0.0784 -0.9942
vn -0.4800 -0.0401 -0.8763
s 0
usemtl Material.027
f 1//1 2//1 4//1
f 6//2 2//2 1//2
f 1//2 3//2 8//2
f 1//2 4//2 3//2
f 1//3 7//3 5//3
f 6//4 1//4 5//4
f 1//5 8//5 7//5
f 8//6 9//6 11//6
f 8//2 10//2 9//2
f 8//2 3//2 10//2
f 8//7 11//7 12//7
f 7//8 8//8 12//8
f 12//9 13//9 15//9
f 12//9 14//9 13//9
f 12//9 16//9 14//9
f 7//9 12//9 15//9
f 12//10 11//10 16//10
f 16//9 17//9 14//9
f 16//11 18//11 17//11
f 11//12 18//12 16//12
f 18//2 19//2 20//2
f 18//2 21//2 19//2
f 18//2 20//2 23//2
f 18//2 22//2 21//2
f 11//2 22//2 18//2
f 18//13 23//13 17//13
f 23//2 20//2 24//2
f 23//2 24//2 25//2
f 23//2 25//2 26//2
f 23//14 27//14 17//14
f 23//15 26//15 27//15
f 27//9 28//9 29//9
f 27//16 26//16 28//16
f 17//9 27//9 29//9
f 14//9 29//9 30//9
f 17//9 29//9 14//9
f 29//17 33//17 30//17
f 35//18 29//18 31//18
f 28//9 31//9 29//9
f 34//19 32//19 29//19
f 32//9 33//9 29//9
f 35//20 34//20 29//20
f 35//21 31//21 36//21
f 41//22 35//22 36//22
f 37//22 38//22 35//22
f 41//22 37//22 35//22
f 35//22 38//22 42//22
f 35//22 40//22 34//22
f 35//23 42//23 39//23
f 35//22 39//22 40//22
f 43//24 44//24 42//24
f 38//25 43//25 42//25
f 42//26 30//26 39//26
f 42//27 44//27 30//27
f 44//9 45//9 46//9
f 45//28 44//28 47//28
f 44//9 46//9 14//9
f 14//9 30//9 44//9
f 43//29 47//29 44//29
f 45//9 47//9 48//9
f 47//9 49//9 48//9
f 51//30 49//30 47//30
f 51//31 47//31 50//31
f 50//32 47//32 43//32
f 52//22 51//22 56//22
f 53//22 51//22 52//22
f 54//22 51//22 53//22
f 54//33 55//33 51//33
f 51//34 55//34 49//34
f 38//22 56//22 51//22
f 38//22 51//22 50//22
f 52//35 56//35 48//35
f 38//36 48//36 56//36
f 54//37 58//37 55//37
f 55//9 58//9 57//9
f 59//9 55//9 57//9
f 60//9 55//9 59//9
f 61//9 55//9 60//9
f 62//9 55//9 61//9
f 49//9 55//9 62//9
f 52//38 48//38 62//38
f 53//39 52//39 62//39
f 53//40 62//40 61//40
f 48//9 49//9 62//9
f 53//41 61//41 60//41
f 63//42 53//42 60//42
f 63//43 60//43 59//43
f 63//22 54//22 53//22
f 64//44 63//44 59//44
f 64//22 54//22 63//22
f 66//22 54//22 64//22
f 65//45 64//45 67//45
f 65//22 66//22 64//22
f 64//46 59//46 57//46
f 64//47 57//47 67//47
f 65//48 67//48 68//48
f 67//9 58//9 68//9
f 57//9 58//9 67//9
f 69//49 65//49 68//49
f 69//50 68//50 70//50
f 58//9 71//9 68//9
f 68//9 71//9 70//9
f 72//51 71//51 66//51
f 66//52 71//52 58//52
f 72//53 73//53 71//53
f 73//9 74//9 71//9
f 74//9 75//9 71//9
f 76//9 71//9 75//9
f 70//9 71//9 76//9
f 77//54 70//54 76//54
f 78//55 77//55 76//55
f 78//56 76//56 75//56
f 78//22 72//22 77//22
f 72//22 78//22 79//22
f 79//57 78//57 75//57
f 80//22 72//22 79//22
f 80//58 79//58 75//58
f 34//59 80//59 32//59
f 34//22 72//22 80//22
f 80//60 75//60 74//60
f 80//61 74//61 32//61
f 77//22 66//22 69//22
f 72//62 66//62 77//62
f 77//63 69//63 70//63
f 32//9 74//9 73//9
f 40//64 33//64 73//64
f 40//65 73//65 72//65
f 32//66 73//66 33//66
f 40//67 72//67 34//67
f 69//22 66//22 65//22
f 66//68 58//68 54//68
f 38//69 50//69 43//69
f 38//70 45//70 48//70
f 14//9 46//9 82//9
f 83//71 46//71 81//71
f 45//9 81//9 46//9
f 84//72 82//72 46//72
f 84//72 46//72 83//72
f 87//22 84//22 83//22
f 85//73 82//73 84//73
f 86//22 85//22 84//22
f 87//22 86//22 84//22
f 89//72 86//72 87//72
f 37//22 87//22 83//22
f 88//71 87//71 37//71
f 88//74 89//74 87//74
f 88//75 91//75 89//75
f 90//73 86//73 89//73
f 90//76 89//76 93//76
f 91//77 92//77 89//77
f 89//78 92//78 93//78
f 96//79 93//79 92//79
f 94//80 97//80 93//80
f 95//81 94//81 93//81
f 95//82 93//82 96//82
f 90//83 93//83 97//83
f 98//84 102//84 97//84
f 99//85 98//85 97//85
f 99//86 97//86 100//86
f 100//87 97//87 101//87
f 101//88 97//88 94//88
f 90//89 97//89 102//89
f 90//90 102//90 105//90
f 102//91 103//91 105//91
f 103//92 102//92 104//92
f 102//93 98//93 104//93
f 86//22 105//22 85//22
f 90//73 105//73 86//73
f 105//22 106//22 85//22
f 103//22 106//22 105//22
f 106//22 107//22 109//22
f 106//94 108//94 107//94
f 103//22 108//22 106//22
f 106//95 14//95 85//95
f 106//96 109//96 13//96
f 106//97 13//97 14//97
f 107//94 111//94 109//94
f 109//98 112//98 110//98
f 109//99 110//99 113//99
f 109//22 111//22 112//22
f 109//100 113//100 13//100
f 13//9 113//9 114//9
f 110//28 114//28 113//28
f 13//9 114//9 15//9
f 107//101 15//101 114//101
f 115//102 114//102 110//102
f 116//102 114//102 115//102
f 111//103 114//103 116//103
f 107//104 114//104 111//104
f 117//9 116//9 119//9
f 118//9 116//9 117//9
f 119//9 116//9 115//9
f 120//105 116//105 118//105
f 111//106 116//106 120//106
f 120//107 118//107 122//107
f 121//22 120//22 123//22
f 111//22 120//22 121//22
f 120//22 122//22 124//22
f 123//108 120//108 124//108
f 124//109 125//109 117//109
f 123//110 124//110 117//110
f 124//111 126//111 125//111
f 124//22 122//22 126//22
f 126//112 130//112 127//112
f 126//113 127//113 128//113
f 126//114 128//114 125//114
f 126//22 129//22 130//22
f 122//22 129//22 126//22
f 132//115 131//115 130//115
f 130//116 131//116 127//116
f 132//22 130//22 129//22
f 133//117 134//117 132//117
f 129//23 133//23 132//23
f 132//118 134//118 135//118
f 132//119 135//119 131//119
f 135//9 136//9 131//9
f 134//9 136//9 135//9
f 131//9 136//9 127//9
f 136//9 118//9 127//9
f 137//120 136//120 134//120
f 138//121 136//121 137//121
f 129//122 118//122 136//122
f 129//123 136//123 138//123
f 138//124 137//124 139//124
f 140//125 138//125 139//125
f 140//126 129//126 138//126
f 140//127 141//127 144//127
f 143//22 141//22 140//22
f 140//128 145//128 142//128
f 140//22 142//22 129//22
f 140//25 139//25 147//25
f 103//22 143//22 140//22
f 103//22 140//22 146//22
f 140//129 144//129 145//129
f 140//22 147//22 146//22
f 147//130 139//130 148//130
f 147//131 149//131 146//131
f 147//132 148//132 149//132
f 144//133 149//133 148//133
f 146//134 149//134 150//134
f 144//135 150//135 149//135
f 144//136 151//136 150//136
f 108//137 150//137 151//137
f 146//138 150//138 108//138
f 108//139 151//139 15//139
f 5//9 15//9 151//9
f 5//9 151//9 144//9
f 139//140 137//140 148//140
f 145//28 148//28 137//28
f 144//9 148//9 145//9
f 103//141 146//141 108//141
f 145//9 137//9 152//9
f 142//142 145//142 152//142
f 152//9 137//9 134//9
f 153//143 152//143 134//143
f 142//144 152//144 153//144
f 129//22 142//22 153//22
f 129//22 153//22 133//22
f 133//145 153//145 134//145
f 141//127 154//127 144//127
f 155//9 144//9 154//9
f 155//9 5//9 144//9
f 156//9 155//9 158//9
f 157//146 155//146 156//146
f 6//147 5//147 155//147
f 157//148 6//148 155//148
f 155//9 154//9 158//9
f 160//149 159//149 158//149
f 156//9 158//9 159//9
f 161//150 158//150 154//150
f 160//149 158//149 161//149
f 162//22 160//22 161//22
f 161//150 154//150 141//150
f 143//22 161//22 141//22
f 143//22 162//22 161//22
f 162//22 165//22 160//22
f 162//151 163//151 165//151
f 162//152 164//152 163//152
f 143//153 164//153 162//153
f 165//154 166//154 167//154
f 165//155 163//155 166//155
f 165//156 167//156 41//156
f 165//22 41//22 36//22
f 165//22 36//22 160//22
f 171//157 168//157 167//157
f 169//158 167//158 168//158
f 169//159 170//159 167//159
f 41//160 167//160 170//160
f 166//161 171//161 167//161
f 172//162 168//162 171//162
f 171//163 173//163 172//163
f 166//164 173//164 171//164
f 173//165 174//165 172//165
f 173//166 166//166 175//166
f 174//167 173//167 175//167
f 163//168 175//168 166//168
f 163//169 177//169 175//169
f 176//170 175//170 177//170
f 178//171 175//171 176//171
f 174//172 175//172 178//172
f 179//173 178//173 176//173
f 179//174 174//174 178//174
f 179//2 181//2 180//2
f 183//2 179//2 180//2
f 179//175 176//175 181//175
f 184//176 174//176 179//176
f 182//6 179//6 183//6
f 184//177 179//177 182//177
f 186//178 185//178 184//178
f 184//179 185//179 174//179
f 186//6 184//6 182//6
f 169//180 168//180 186//180
f 186//181 168//181 185//181
f 169//2 186//2 187//2
f 187//2 186//2 182//2
f 187//182 182//182 188//182
f 187//183 188//183 189//183
f 190//184 187//184 189//184
f 190//2 169//2 187//2
f 192//185 190//185 189//185
f 191//2 169//2 190//2
f 192//2 191//2 190//2
f 192//186 189//186 193//186
f 194//187 192//187 193//187
f 194//2 195//2 192//2
f 195//2 191//2 192//2
f 197//188 196//188 195//188
f 195//189 196//189 191//189
f 197//6 195//6 194//6
f 197//190 199//190 198//190
f 197//191 198//191 196//191
f 200//192 199//192 197//192
f 201//2 197//2 194//2
f 200//2 197//2 201//2
f 201//193 194//193 202//193
f 201//194 202//194 203//194
f 201//6 203//6 200//6
f 204//195 203//195 206//195
f 204//2 205//2 203//2
f 205//2 200//2 203//2
f 203//196 202//196 206//196
f 204//197 206//197 25//197
f 26//2 25//2 206//2
f 26//1 206//1 202//1
f 207//2 205//2 204//2
f 207//198 209//198 205//198
f 205//199 208//199 200//199
f 205//200 209//200 208//200
f 211//201 209//201 210//201
f 212//202 210//202 209//202
f 211//203 208//203 209//203
f 207//204 212//204 209//204
f 212//205 213//205 210//205
f 214//206 213//206 212//206
f 207//207 214//207 212//207
f 216//208 215//208 214//208
f 214//209 215//209 213//209
f 217//210 216//210 214//210
f 218//211 217//211 214//211
f 218//212 214//212 207//212
f 218//2 207//2 219//2
f 221//2 218//2 219//2
f 220//213 217//213 218//213
f 220//2 218//2 221//2
f 221//214 219//214 24//214
f 222//2 220//2 221//2
f 223//2 222//2 221//2
f 223//215 221//215 20//215
f 221//216 24//216 20//216
f 224//217 223//217 19//217
f 224//2 225//2 223//2
f 225//2 222//2 223//2
f 223//218 20//218 19//218
f 225//219 229//219 222//219
f 226//177 225//177 224//177
f 227//2 225//2 226//2
f 227//220 228//220 225//220
f 225//221 228//221 229//221
f 229//222 232//222 230//222
f 229//223 230//223 231//223
f 234//224 229//224 231//224
f 233//225 232//225 229//225
f 228//226 233//226 229//226
f 222//227 229//227 234//227
f 234//228 231//228 235//228
f 222//229 234//229 235//229
f 235//230 236//230 216//230
f 217//231 235//231 216//231
f 235//232 231//232 236//232
f 220//233 235//233 217//233
f 222//234 235//234 220//234
f 237//235 239//235 236//235
f 231//236 237//236 236//236
f 236//237 238//237 215//237
f 216//238 236//238 215//238
f 236//239 239//239 238//239
f 239//240 91//240 238//240
f 239//241 96//241 91//241
f 237//242 96//242 239//242
f 215//243 238//243 240//243
f 238//244 241//244 240//244
f 238//245 91//245 241//245
f 88//246 241//246 91//246
f 242//247 241//247 244//247
f 240//248 241//248 242//248
f 243//249 241//249 88//249
f 243//250 244//250 241//250
f 247//251 245//251 244//251
f 244//252 245//252 246//252
f 244//253 246//253 242//253
f 41//254 247//254 244//254
f 244//255 37//255 41//255
f 243//256 37//256 244//256
f 247//257 248//257 245//257
f 247//258 170//258 248//258
f 41//259 170//259 247//259
f 248//260 250//260 196//260
f 248//261 196//261 249//261
f 245//262 248//262 249//262
f 250//263 248//263 170//263
f 191//264 196//264 250//264
f 191//265 250//265 170//265
f 198//266 249//266 196//266
f 198//267 199//267 249//267
f 199//268 251//268 249//268
f 245//269 249//269 251//269
f 252//270 246//270 251//270
f 245//271 251//271 246//271
f 199//272 211//272 251//272
f 251//273 211//273 252//273
f 210//274 246//274 252//274
f 252//275 211//275 210//275
f 210//276 242//276 246//276
f 243//71 88//71 37//71
f 213//277 240//277 242//277
f 213//278 242//278 210//278
f 213//279 215//279 240//279
f 230//280 96//280 237//280
f 230//281 237//281 231//281
f 233//282 253//282 232//282
f 254//283 253//283 233//283
f 228//284 254//284 233//284
f 254//285 255//285 253//285
f 256//286 255//286 254//286
f 257//287 256//287 254//287
f 257//288 254//288 258//288
f 258//289 254//289 228//289
f 259//290 257//290 258//290
f 227//291 258//291 228//291
f 259//292 258//292 227//292
f 260//293 257//293 259//293
f 260//2 259//2 261//2
f 261//2 259//2 226//2
f 259//2 227//2 226//2
f 261//294 226//294 22//294
f 262//295 261//295 263//295
f 262//2 260//2 261//2
f 261//296 22//296 263//296
f 262//297 263//297 264//297
f 11//2 264//2 263//2
f 11//2 263//2 22//2
f 265//298 262//298 264//298
f 265//299 264//299 9//299
f 11//6 9//6 264//6
f 265//300 9//300 10//300
f 268//301 265//301 10//301
f 265//2 266//2 262//2
f 267//6 266//6 265//6
f 268//6 267//6 265//6
f 268//302 10//302 3//302
f 271//303 268//303 3//303
f 269//2 267//2 268//2
f 270//2 269//2 268//2
f 271//2 270//2 268//2
f 271//304 3//304 4//304
f 273//305 271//305 4//305
f 272//1 270//1 271//1
f 273//6 272//6 271//6
f 273//306 4//306 2//306
f 274//307 273//307 2//307
f 275//6 272//6 273//6
f 274//6 275//6 273//6
f 275//308 276//308 277//308
f 279//309 276//309 275//309
f 275//310 277//310 278//310
f 275//311 278//311 272//311
f 279//2 275//2 274//2
f 281//312 280//312 279//312
f 279//313 280//313 276//313
f 281//2 279//2 274//2
f 281//314 282//314 280//314
f 283//315 282//315 281//315
f 284//6 281//6 274//6
f 283//6 281//6 284//6
f 284//316 286//316 285//316
f 180//317 284//317 285//317
f 284//318 274//318 286//318
f 180//6 283//6 284//6
f 6//2 285//2 286//2
f 274//319 2//319 286//319
f 6//2 286//2 2//2
f 180//320 285//320 287//320
f 6//2 287//2 285//2
f 180//321 287//321 288//321
f 157//2 288//2 287//2
f 157//2 287//2 6//2
f 183//322 288//322 289//322
f 157//177 289//177 288//177
f 183//323 180//323 288//323
f 182//324 289//324 188//324
f 157//6 188//6 289//6
f 182//325 183//325 289//325
f 283//326 290//326 282//326
f 181//327 291//327 283//327
f 181//6 283//6 180//6
f 283//328 291//328 290//328
f 291//329 292//329 290//329
f 291//330 176//330 292//330
f 181//331 176//331 291//331
f 176//332 177//332 292//332
f 290//333 292//333 293//333
f 292//334 177//334 293//334
f 282//335 293//335 294//335
f 282//336 290//336 293//336
f 294//337 293//337 295//337
f 293//338 163//338 295//338
f 293//339 177//339 163//339
f 295//340 296//340 294//340
f 295//341 164//341 297//341
f 295//342 163//342 164//342
f 295//343 297//343 296//343
f 298//344 297//344 164//344
f 298//345 299//345 297//345
f 299//346 300//346 297//346
f 297//347 300//347 301//347
f 297//348 301//348 296//348
f 301//349 300//349 277//349
f 296//350 301//350 276//350
f 276//351 301//351 277//351
f 277//352 300//352 278//352
f 302//353 278//353 300//353
f 300//354 299//354 302//354
f 303//355 302//355 304//355
f 305//356 302//356 303//356
f 302//357 299//357 304//357
f 302//358 305//358 278//358
f 272//359 278//359 305//359
f 272//360 305//360 270//360
f 270//361 305//361 303//361
f 303//362 304//362 306//362
f 304//363 299//363 306//363
f 307//364 306//364 298//364
f 299//365 298//365 306//365
f 270//366 303//366 306//366
f 270//367 306//367 269//367
f 269//368 306//368 307//368
f 269//369 307//369 308//369
f 143//370 307//370 298//370
f 104//371 308//371 307//371
f 103//372 104//372 307//372
f 103//373 307//373 143//373
f 269//374 308//374 267//374
f 267//375 308//375 309//375
f 309//376 308//376 310//376
f 308//377 104//377 310//377
f 311//378 309//378 310//378
f 311//379 310//379 312//379
f 312//380 310//380 314//380
f 313//381 310//381 104//381
f 313//382 314//382 310//382
f 314//383 315//383 312//383
f 313//384 99//384 314//384
f 99//385 316//385 314//385
f 314//386 316//386 315//386
f 317//387 316//387 100//387
f 315//388 316//388 317//388
f 316//389 99//389 100//389
f 317//390 100//390 255//390
f 256//391 317//391 255//391
f 318//392 317//392 256//392
f 315//393 317//393 318//393
f 320//394 318//394 256//394
f 319//395 315//395 318//395
f 319//396 318//396 320//396
f 320//397 256//397 257//397
f 260//398 320//398 257//398
f 321//399 319//399 320//399
f 321//400 320//400 260//400
f 321//2 260//2 262//2
f 321//401 312//401 319//401
f 266//402 312//402 321//402
f 266//2 321//2 262//2
f 315//403 319//403 312//403
f 99//404 313//404 98//404
f 104//405 98//405 313//405
f 266//406 311//406 312//406
f 266//407 309//407 311//407
f 267//408 309//408 266//408
f 143//409 298//409 164//409
f 294//410 296//410 280//410
f 296//411 276//411 280//411
f 282//412 294//412 280//412
f 255//413 101//413 253//413
f 255//414 100//414 101//414
f 253//415 322//415 232//415
f 253//416 101//416 322//416
f 232//417 322//417 323//417
f 101//418 94//418 322//418
f 322//419 94//419 95//419
f 323//420 322//420 95//420
f 232//421 323//421 230//421
f 230//422 323//422 96//422
f 323//423 95//423 96//423
f 226//424 224//424 21//424
f 226//425 21//425 22//425
f 224//426 19//426 21//426
f 219//2 207//2 204//2
f 219//427 204//427 25//427
f 219//428 25//428 24//428
f 208//429 211//429 199//429
f 200//430 208//430 199//430
f 194//431 193//431 202//431
f 26//2 202//2 193//2
f 324//2 193//2 189//2
f 26//2 193//2 324//2
f 324//6 189//6 188//6
f 324//2 188//2 157//2
f 324//432 157//432 156//432
f 28//433 324//433 156//433
f 26//434 324//434 28//434
f 191//435 170//435 169//435
f 185//436 172//436 174//436
f 172//437 185//437 168//437
f 36//438 159//438 160//438
f 36//438 31//438 159//438
f 28//9 159//9 31//9
f 28//9 156//9 159//9
f 122//439 118//439 129//439
f 128//9 118//9 125//9
f 127//9 118//9 128//9
f 125//102 118//102 117//102
f 123//440 117//440 119//440
f 121//441 123//441 119//441
f 121//442 119//442 115//442
f 325//443 121//443 115//443
f 325//22 111//22 121//22
f 325//444 115//444 110//444
f 112//445 325//445 110//445
f 112//22 111//22 325//22
f 108//446 15//446 107//446
f 96//447 92//447 91//447
f 85//73 14//73 82//73
f 83//71 81//71 326//71
f 37//22 83//22 326//22
f 326//21 45//21 38//21
f 37//22 326//22 38//22
f 326//21 81//21 45//21
f 39//448 33//448 40//448
f 39//449 30//449 33//449
f 5//9 7//9 15//9
