# Blender 5.0.1
# www.blender.org
mtllib torso_z_link_visual_27.mtl
o i01.torso.topStom.full.028_visual.001
v 0.383609 -0.184331 -0.109921
v -0.279473 -0.153772 -0.189634
v 0.346023 -0.163238 0.210833
v 0.383610 0.175999 -0.133616
v 0.344294 -0.148986 -0.116853
v 0.361454 -0.136253 0.076797
v -0.090879 -0.185026 -0.120312
v -0.318445 -0.189716 -0.191837
v -0.061834 -0.181847 -0.072004
v -0.061921 -0.178613 -0.023083
v -0.131604 -0.186455 -0.142244
v -0.161121 -0.186673 -0.145557
v -0.158338 -0.253541 -0.141379
v -0.099179 -0.252254 -0.121820
v -0.129510 -0.253249 -0.136939
v -0.126375 -0.240862 0.051433
v -0.187244 -0.253271 -0.137273
v -0.246364 -0.250125 -0.089437
v -0.221735 -0.252140 -0.120094
v -0.258835 -0.247608 -0.051321
v -0.250960 -0.244487 -0.003575
v -0.222171 -0.241895 0.035549
v -0.119202 -0.174159 0.044751
v -0.154454 -0.240478 0.057282
v -0.188378 -0.240782 0.052657
v -0.099863 -0.241742 0.038053
v -0.060010 -0.246337 -0.031823
v -0.070687 -0.243897 0.005232
v -0.062081 -0.248578 -0.065907
v -0.075908 -0.250608 -0.096784
v -0.083608 -0.175832 0.019072
v -0.183934 -0.173792 0.050323
v -0.147004 -0.173696 0.051798
v -0.220894 -0.175034 0.031448
v -0.356032 -0.168624 0.128919
v -0.356032 -0.132980 0.126575
v -0.258335 -0.180693 -0.054608
v -0.317041 -0.132681 0.131124
v -0.340474 -0.141651 -0.005102
v -0.243280 -0.176704 0.006048
v -0.254942 -0.178459 -0.020641
v -0.340474 -0.045210 -0.011444
v -0.318445 -0.057749 -0.200515
v -0.406438 -0.139000 0.035192
v -0.416322 -0.133454 0.119540
v -0.377848 -0.072585 0.120048
v -0.406438 -0.042560 0.028851
v -0.369150 -0.101668 0.122981
v -0.382092 -0.086977 0.120498
v -0.416322 0.155867 0.100513
v -0.406438 0.053880 0.022510
v -0.406438 0.150320 0.016168
v -0.340474 0.147670 -0.024128
v -0.356032 0.155986 0.107574
v -0.356036 0.191734 0.105223
v -0.317060 0.156285 0.112122
v -0.368219 0.117120 0.108702
v -0.353095 0.115560 0.110577
v -0.345196 0.103874 0.112271
v -0.347860 0.090090 0.112865
v -0.334784 0.091331 0.026444
v -0.338390 0.105552 0.025085
v -0.358680 0.077560 0.024546
v -0.356206 0.112869 0.022511
v -0.371820 0.094621 0.021886
v -0.377977 0.109931 0.108031
v -0.375373 0.087589 0.109804
v -0.381008 0.097970 0.108463
v -0.361898 -0.065492 0.121458
v -0.362931 0.082505 0.111598
v -0.342754 0.080168 0.026244
v -0.347060 -0.075206 0.123828
v -0.363435 -0.074130 0.033965
v -0.346206 -0.072677 0.035891
v -0.363247 -0.105657 0.036060
v -0.372226 -0.089104 0.033921
v -0.336605 -0.082167 0.037638
v -0.335555 -0.094596 0.038579
v -0.347467 -0.093653 0.124992
v -0.344661 -0.105242 0.038212
v -0.279473 0.135194 -0.208633
v 0.306707 0.161426 0.184876
v -0.307141 0.054560 0.032647
v -0.307141 -0.041887 0.038987
v -0.279473 0.038872 -0.202302
v -0.340474 0.051230 -0.017785
v -0.318478 0.170643 -0.215537
v -0.318445 0.038573 -0.206849
v -0.196439 0.174143 -0.162142
v -0.230853 0.175614 -0.139827
v -0.163391 0.173649 -0.169647
v -0.257848 0.179508 -0.080540
v -0.250589 0.177653 -0.108749
v -0.258335 0.246509 -0.082700
v -0.249612 0.244360 -0.115382
v -0.165640 0.240529 -0.173640
v -0.226011 0.242154 -0.148880
v -0.194165 0.240937 -0.167430
v -0.131602 0.240746 -0.170334
v -0.254942 0.248743 -0.048730
v -0.243278 0.250498 -0.022038
v -0.218790 0.252313 0.005593
v -0.147471 0.253541 0.024238
v -0.114751 0.252887 0.014293
v -0.087223 0.251588 -0.005454
v -0.181303 0.253398 0.022076
v -0.066155 0.249442 -0.038098
v -0.059519 0.247239 -0.071591
v -0.065292 0.244734 -0.109686
v -0.092584 0.242107 -0.149575
v -0.095345 0.175108 -0.147527
v -0.068588 0.177414 -0.112390
v -0.058392 0.180469 -0.065859
v 0.346022 0.197095 0.187140
v -0.073603 0.183574 -0.018702
v -0.099865 0.185459 0.009963
v -0.138532 0.186610 0.027495
v -0.186367 0.186516 0.025992
v -0.222473 0.185207 0.006120
v -0.241955 0.183779 -0.015587
v -0.255779 0.181749 -0.046465
v 0.346023 0.161727 0.189465
v 0.361454 0.153068 0.057774
v 0.406438 0.162190 0.196513
v 0.416322 0.156644 0.112167
v 0.416322 -0.132677 0.131191
v 0.406438 -0.127130 0.215537
v 0.346023 -0.127593 0.208488
v 0.335368 -0.081893 0.204237
v 0.343241 -0.093543 0.205926
v 0.306707 -0.127895 0.203903
v 0.358317 -0.095098 0.207794
v 0.368045 -0.087932 0.208463
v 0.366541 -0.102194 0.121347
v 0.382106 -0.084003 0.121980
v 0.348780 -0.094899 0.118792
v 0.345186 -0.080722 0.117438
v 0.369007 -0.066996 0.119324
v 0.365450 -0.065659 0.206696
v 0.353131 -0.069595 0.117639
v 0.353047 -0.060591 0.204907
v 0.338023 -0.068154 0.203644
v 0.352022 0.087580 0.195053
v 0.373715 0.084848 0.109894
v 0.356597 0.083404 0.107985
v 0.367872 0.094627 0.196438
v 0.337282 0.097231 0.192682
v 0.335825 0.109535 0.191703
v 0.345500 0.096521 0.105815
v 0.349800 0.111723 0.105325
v 0.376718 0.112757 0.108412
v 0.363753 0.118172 0.106537
v 0.342310 0.119833 0.191786
v 0.359633 0.123142 0.193605
v 0.372089 0.108927 0.195992
v 0.382450 0.099725 0.109941
v 0.371067 -0.076008 0.208034
v 0.344294 0.140334 -0.135878
v -0.129508 0.173953 -0.165030
v -0.279473 -0.057450 -0.195968
v -0.246658 -0.183344 -0.094927
v -0.219638 -0.185331 -0.125143
v -0.189493 -0.186391 -0.141264
vn 0.1161 -0.0652 -0.9911
vn -0.0000 -0.9978 0.0656
vn 0.9932 0.0076 0.1159
vn -0.0000 -0.9979 0.0649
vn -0.0000 -0.9978 0.0657
vn -0.0000 -0.9978 0.0659
vn 0.4749 -0.0389 -0.8792
vn 0.1118 -0.0573 -0.9921
vn 0.1525 -0.0735 -0.9856
vn 0.4469 -0.0569 -0.8928
vn -0.0002 -0.9978 0.0658
vn 0.0003 -0.9979 0.0652
vn -0.0002 -0.9978 0.0663
vn 0.2044 0.0758 0.9760
vn 0.4513 0.0408 0.8915
vn -0.0001 -0.9979 0.0654
vn 0.0002 -0.9978 0.0657
vn 0.9129 -0.0405 -0.4061
vn 0.8567 0.0105 -0.5158
vn 0.7329 -0.0753 -0.6762
vn 0.9982 -0.0092 -0.0600
vn 0.7476 0.0069 0.6641
vn 0.9607 -0.0087 0.2774
vn 0.8886 0.0768 0.4521
vn -0.0001 -0.9978 0.0658
vn 0.0001 -0.9979 0.0652
vn 0.5855 0.0877 0.8059
vn 0.9996 0.0282 -0.0001
vn -0.4524 0.0610 0.8897
vn -0.1353 0.0435 0.9898
vn -0.0400 0.0862 0.9955
vn -0.0000 -0.9978 0.0655
vn -0.4556 0.0632 0.8880
vn -0.1161 0.0652 0.9911
vn -0.9931 -0.0077 -0.1168
vn -0.9932 -0.0041 -0.1161
vn -0.9863 -0.0172 0.1638
vn -0.9165 0.0474 0.3973
vn -0.9951 0.0123 0.0986
vn -0.7509 0.0547 0.6582
vn -0.8057 0.0072 0.5923
vn -0.9933 -0.0076 -0.1152
vn -0.5221 -0.0560 -0.8510
vn -0.1162 0.0652 0.9911
vn -0.1164 0.0653 0.9910
vn -0.9932 -0.0076 -0.1159
vn -0.1162 0.0651 0.9911
vn 0.0056 0.9979 -0.0650
vn 0.0017 0.9980 -0.0628
vn -0.9931 -0.0078 -0.1168
vn -0.9727 0.1818 -0.1446
vn -0.8211 -0.5658 -0.0750
vn -0.9644 -0.2522 -0.0801
vn -0.3847 -0.9221 0.0418
vn -0.1161 0.0651 0.9911
vn -0.1163 0.0652 0.9911
vn -0.1163 0.0656 0.9910
vn 0.7462 -0.6443 0.1678
vn 0.9643 -0.2403 0.1116
vn 0.7835 0.6161 0.0809
vn 0.8725 0.4831 0.0739
vn -0.1158 0.0652 0.9911
vn -0.1166 0.0652 0.9910
vn 0.3822 0.9235 -0.0338
vn -0.4373 0.8902 -0.1277
vn -0.1546 0.9859 -0.0636
vn -0.8076 0.5786 -0.1139
vn -0.1164 0.0653 0.9911
vn 0.3988 -0.9133 0.0832
vn -0.1156 0.0652 0.9912
vn -0.5443 -0.8384 -0.0294
vn 0.0729 -0.9926 0.0967
vn -0.1163 0.0654 0.9911
vn -0.7002 -0.7134 -0.0273
vn -0.9894 -0.0921 -0.1126
vn -0.9905 0.0132 -0.1367
vn -0.7534 0.6482 -0.1109
vn -0.3325 0.9333 -0.1354
vn -0.0169 0.9988 -0.0470
vn -0.1160 0.0652 0.9911
vn 0.8522 -0.5008 0.1517
vn 0.9537 -0.2777 0.1155
vn 0.8709 0.4837 0.0874
vn 0.7485 0.6629 0.0204
vn 0.5834 -0.8032 0.1209
vn -0.1067 -0.9937 0.0341
vn 0.9932 0.0062 0.1160
vn 0.0006 -0.9978 0.0657
vn 0.9934 0.0076 0.1143
vn 0.9932 0.0077 0.1164
vn 0.1018 -0.0653 -0.9927
vn 0.9934 0.0075 0.1141
vn -0.0009 -0.9978 0.0665
vn 0.0001 -0.9978 0.0658
vn -0.9933 -0.0076 -0.1151
vn -0.9933 -0.0078 -0.1152
vn -0.0001 -0.9978 0.0668
vn 0.1162 -0.0652 -0.9911
vn 0.1161 -0.0651 -0.9911
vn -0.0000 0.9979 -0.0655
vn 0.0001 0.9978 -0.0656
vn -0.9932 -0.0116 -0.1155
vn -0.8447 -0.0407 -0.5337
vn -0.9686 -0.0150 -0.2483
vn -0.9663 -0.0114 -0.2572
vn -0.0000 0.9978 -0.0656
vn -0.0002 0.9978 -0.0658
vn -0.8179 -0.0187 -0.5750
vn -0.5448 -0.0740 -0.8353
vn -0.5041 -0.0511 -0.8621
vn 0.0001 0.9979 -0.0653
vn -0.2219 -0.0694 -0.9726
vn -0.2132 -0.0654 -0.9748
vn -0.0000 0.9979 -0.0653
vn 0.0969 -0.0561 -0.9937
vn 0.0001 0.9978 -0.0658
vn 0.4704 -0.0463 -0.8812
vn 0.8257 -0.0178 -0.5638
vn 0.7962 -0.0512 -0.6029
vn 0.9766 -0.0393 -0.2114
vn 0.9887 0.0038 -0.1501
vn 0.9808 0.0330 0.1922
vn 0.9513 -0.0169 0.3079
vn 0.0001 0.9978 -0.0657
vn 0.7378 0.0163 0.6749
vn 0.8404 0.0635 0.5382
vn 0.4135 0.0329 0.9099
vn 0.5835 0.0769 0.8084
vn -0.0315 0.0444 0.9985
vn 0.2913 0.0853 0.9528
vn 0.0001 0.9979 -0.0655
vn -0.0000 0.9978 -0.0657
vn -0.4828 0.0334 0.8751
vn -0.4031 0.0839 0.9113
vn -0.0639 0.0632 0.9960
vn -0.7449 0.0461 0.6656
vn -0.9130 0.0213 0.4074
vn -0.7491 0.0490 0.6606
vn -0.9950 0.0158 0.0984
vn -0.9981 -0.0053 0.0610
vn -0.9166 0.0249 0.3989
vn 0.7048 -0.0465 -0.7079
vn -0.1163 0.0651 0.9911
vn -0.5832 0.8032 -0.1214
vn 0.1110 0.9913 -0.0708
vn 0.3787 0.9255 0.0097
vn -0.7549 0.6492 -0.0932
vn -0.1160 0.0648 0.9911
vn 0.8248 0.5638 0.0437
vn -0.1162 0.0653 0.9911
vn 0.9606 0.2543 0.1121
vn -0.1158 0.0649 0.9912
vn -0.7903 -0.6123 -0.0228
vn -0.3781 -0.9258 -0.0012
vn 0.1502 -0.9834 0.1016
vn 0.4415 -0.8925 0.0925
vn -0.3934 0.9102 -0.1294
vn -0.0782 0.9956 -0.0519
vn 0.5490 0.8357 -0.0112
vn -0.1167 0.0652 0.9910
vn 0.9879 0.1244 0.0924
vn 0.7563 0.6508 0.0662
vn 0.9530 -0.2648 0.1475
vn -0.1162 0.0649 0.9911
vn -0.1165 0.0654 0.9910
vn 0.4079 -0.9051 0.1202
vn 0.1807 -0.9814 0.0646
vn -0.3894 -0.9204 0.0341
vn -0.1158 0.0650 0.9911
vn -0.1161 0.0654 0.9911
vn -0.7446 -0.6640 -0.0684
vn -0.1159 0.0650 0.9911
vn -0.9504 0.2758 -0.1439
vn -0.9105 -0.4082 -0.0660
vn -0.8565 0.5032 -0.1147
vn -0.1160 0.0650 0.9911
vn 0.8394 -0.5296 0.1224
vn -0.8732 -0.4826 -0.0672
vn -0.9603 0.2381 -0.1453
vn 0.8033 -0.5762 0.1508
vn 0.9769 -0.1841 0.1080
vn 0.0001 0.9978 -0.0660
vn 0.4568 -0.0562 -0.8878
vn 0.0001 0.9978 -0.0661
vn 0.1353 -0.0742 -0.9880
vn 0.9932 0.0091 0.1157
vn -0.0001 0.9978 -0.0657
vn 0.0004 0.9978 -0.0660
vn 0.0001 0.9978 -0.0662
vn -0.9606 -0.0065 -0.2778
vn -0.7460 -0.0269 -0.6654
vn -0.7802 -0.0547 -0.6232
vn -0.9506 -0.0296 -0.3091
vn -0.4724 -0.0517 -0.8799
vn -0.1499 -0.0679 -0.9864
vn -0.4466 -0.0683 -0.8921
vn -0.1410 -0.0637 -0.9880
vn 0.2462 0.0520 0.9678
s 0
usemtl Material.002
f 1//1 8//1 2//1
f 1//1 2//1 5//1
f 10//2 1//2 3//2
f 1//3 6//3 3//3
f 1//3 4//3 6//3
f 4//1 1//1 5//1
f 1//4 7//4 11//4
f 1//5 9//5 7//5
f 11//2 8//2 1//2
f 1//6 10//6 9//6
f 12//2 8//2 11//2
f 11//7 7//7 14//7
f 12//8 11//8 13//8
f 15//9 13//9 11//9
f 14//10 15//10 11//10
f 15//2 14//2 16//2
f 13//2 15//2 16//2
f 14//2 30//2 16//2
f 17//2 13//2 16//2
f 19//2 17//2 16//2
f 18//2 19//2 16//2
f 20//11 18//11 16//11
f 21//12 20//12 16//12
f 22//13 21//13 16//13
f 25//4 22//4 16//4
f 24//14 16//14 23//14
f 16//15 26//15 23//15
f 24//2 25//2 16//2
f 28//16 26//16 16//16
f 27//17 28//17 16//17
f 29//2 27//2 16//2
f 30//2 29//2 16//2
f 29//18 30//18 9//18
f 7//19 9//19 30//19
f 30//20 14//20 7//20
f 27//21 29//21 9//21
f 26//22 28//22 31//22
f 28//23 27//23 10//23
f 10//24 31//24 28//24
f 10//25 3//25 31//25
f 31//26 3//26 23//26
f 31//27 23//27 26//27
f 9//28 10//28 27//28
f 22//29 25//29 32//29
f 25//30 24//30 32//30
f 33//31 32//31 24//31
f 33//32 35//32 32//32
f 32//33 34//33 22//33
f 34//2 32//2 35//2
f 35//34 38//34 36//34
f 35//35 36//35 39//35
f 37//2 41//2 35//2
f 8//2 37//2 35//2
f 38//34 35//34 3//34
f 3//2 35//2 33//2
f 39//36 8//36 35//36
f 41//2 40//2 35//2
f 40//2 34//2 35//2
f 20//37 21//37 41//37
f 40//38 41//38 21//38
f 41//39 37//39 20//39
f 34//40 40//40 22//40
f 21//41 22//41 40//41
f 39//17 36//17 45//17
f 43//42 8//42 39//42
f 39//42 42//42 43//42
f 42//43 39//43 44//43
f 45//2 44//2 39//2
f 50//44 45//44 46//44
f 49//45 46//45 45//45
f 47//46 44//46 45//46
f 51//46 47//46 45//46
f 48//47 45//47 36//47
f 48//44 49//44 45//44
f 45//46 50//46 52//46
f 52//46 51//46 45//46
f 52//48 50//48 54//48
f 51//43 52//43 53//43
f 54//49 53//49 52//49
f 54//34 56//34 55//34
f 55//50 53//50 54//50
f 59//34 56//34 54//34
f 57//34 58//34 54//34
f 54//44 50//44 57//44
f 59//44 54//44 58//44
f 56//34 59//34 38//34
f 60//34 38//34 59//34
f 61//51 60//51 59//51
f 59//52 58//52 62//52
f 62//53 61//53 59//53
f 64//54 62//54 58//54
f 63//55 62//55 65//55
f 62//56 63//56 61//56
f 65//57 62//57 64//57
f 65//58 64//58 66//58
f 66//59 68//59 65//59
f 63//60 65//60 67//60
f 68//61 67//61 65//61
f 68//62 46//62 67//62
f 68//56 50//56 46//56
f 66//44 50//44 68//44
f 69//44 70//44 67//44
f 69//63 67//63 46//63
f 67//64 70//64 63//64
f 69//44 60//44 70//44
f 71//65 70//65 60//65
f 71//66 63//66 70//66
f 71//67 60//67 61//67
f 61//68 63//68 71//68
f 69//69 46//69 73//69
f 69//70 72//70 60//70
f 72//71 69//71 74//71
f 73//72 74//72 69//72
f 74//55 75//55 77//55
f 75//55 74//55 76//55
f 73//73 76//73 74//73
f 72//74 74//74 77//74
f 72//75 77//75 78//75
f 77//44 75//44 78//44
f 78//76 79//76 72//76
f 78//77 80//77 79//77
f 78//44 75//44 80//44
f 80//78 48//78 79//78
f 48//79 80//79 75//79
f 48//80 36//80 79//80
f 79//34 36//34 38//34
f 79//47 38//47 72//47
f 76//81 73//81 46//81
f 76//82 46//82 49//82
f 75//83 76//83 49//83
f 75//84 49//84 48//84
f 72//34 38//34 60//34
f 57//44 50//44 66//44
f 64//85 57//85 66//85
f 58//86 57//86 64//86
f 83//87 81//87 56//87
f 82//88 56//88 81//88
f 55//34 56//34 82//34
f 56//89 38//89 83//89
f 83//90 85//90 81//90
f 83//91 84//91 47//91
f 84//92 83//92 38//92
f 85//93 83//93 86//93
f 83//94 51//94 86//94
f 47//91 51//91 83//91
f 86//95 53//95 87//95
f 53//43 86//43 51//43
f 87//96 88//96 86//96
f 86//97 88//97 85//97
f 88//98 87//98 81//98
f 81//99 85//99 88//99
f 89//100 91//100 87//100
f 90//101 89//101 87//101
f 90//100 87//100 93//100
f 4//100 87//100 91//100
f 87//1 4//1 81//1
f 87//102 53//102 55//102
f 55//101 92//101 87//101
f 87//101 92//101 93//101
f 90//103 93//103 95//103
f 93//104 92//104 94//104
f 94//105 95//105 93//105
f 95//106 94//106 96//106
f 97//107 95//107 96//107
f 95//108 97//108 90//108
f 89//109 90//109 97//109
f 97//110 98//110 89//110
f 98//111 97//111 96//111
f 91//112 89//112 98//112
f 98//113 96//113 91//113
f 110//114 99//114 96//114
f 96//115 99//115 91//115
f 94//106 100//106 96//106
f 100//106 101//106 96//106
f 101//106 102//106 96//106
f 102//106 106//106 96//106
f 106//106 103//106 96//106
f 103//106 104//106 96//106
f 104//106 105//106 96//106
f 105//106 107//106 96//106
f 107//106 108//106 96//106
f 108//106 109//106 96//106
f 109//116 110//116 96//116
f 99//117 110//117 111//117
f 110//118 109//118 112//118
f 112//119 111//119 110//119
f 112//100 113//100 4//100
f 113//120 112//120 109//120
f 112//100 4//100 111//100
f 109//121 108//121 113//121
f 108//122 107//122 113//122
f 115//123 113//123 107//123
f 114//106 4//106 113//106
f 114//124 113//124 115//124
f 116//125 115//125 105//125
f 107//126 105//126 115//126
f 114//106 115//106 116//106
f 117//100 114//100 116//100
f 117//127 116//127 104//127
f 105//128 104//128 116//128
f 118//129 117//129 103//129
f 104//130 103//130 117//130
f 118//131 55//131 117//131
f 117//132 55//132 114//132
f 119//133 118//133 102//133
f 106//134 102//134 118//134
f 103//135 106//135 118//135
f 118//132 119//132 55//132
f 120//136 119//136 102//136
f 119//124 120//124 55//124
f 121//137 120//137 101//137
f 102//138 101//138 120//138
f 120//101 121//101 55//101
f 100//139 94//139 121//139
f 92//140 121//140 94//140
f 101//141 100//141 121//141
f 92//101 55//101 121//101
f 123//3 4//3 114//3
f 82//55 114//55 55//55
f 82//44 122//44 114//44
f 114//3 122//3 123//3
f 4//3 123//3 6//3
f 6//142 123//142 125//142
f 124//106 125//106 123//106
f 123//106 122//106 124//106
f 126//142 6//142 125//142
f 126//3 125//3 124//3
f 124//3 127//3 126//3
f 126//2 127//2 128//2
f 128//2 6//2 126//2
f 129//143 128//143 130//143
f 129//55 131//55 128//55
f 128//55 132//55 130//55
f 128//55 127//55 132//55
f 128//34 131//34 3//34
f 3//3 6//3 128//3
f 132//34 127//34 133//34
f 134//144 132//144 133//144
f 130//145 132//145 134//145
f 134//146 136//146 130//146
f 135//147 134//147 133//147
f 135//148 136//148 134//148
f 129//149 130//149 136//149
f 138//150 136//150 135//150
f 136//80 138//80 137//80
f 136//151 137//151 129//151
f 137//152 138//152 140//152
f 138//153 135//153 139//153
f 139//154 141//154 138//154
f 140//155 138//155 141//155
f 140//156 141//156 142//156
f 141//55 143//55 142//55
f 139//143 143//143 141//143
f 143//157 146//157 144//157
f 144//158 145//158 143//158
f 147//159 143//159 145//159
f 139//70 146//70 143//70
f 142//160 143//160 147//160
f 129//44 147//44 82//44
f 82//143 147//143 148//143
f 142//62 147//62 129//62
f 149//161 148//161 147//161
f 147//162 145//162 149//162
f 149//148 152//148 150//148
f 149//163 150//163 148//163
f 149//164 151//164 152//164
f 145//165 151//165 149//165
f 150//166 152//166 153//166
f 152//167 154//167 153//167
f 154//168 152//168 151//168
f 154//169 155//169 124//169
f 154//170 124//170 122//170
f 153//63 154//63 122//63
f 151//171 155//171 154//171
f 155//172 146//172 124//172
f 156//173 146//173 155//173
f 151//174 156//174 155//174
f 156//175 144//175 146//175
f 151//34 145//34 156//34
f 144//176 156//176 145//176
f 148//44 153//44 122//44
f 150//177 153//177 148//177
f 148//44 122//44 82//44
f 127//34 124//34 146//34
f 146//80 157//80 127//80
f 157//80 146//80 139//80
f 133//55 127//55 157//55
f 157//178 139//178 135//178
f 133//179 157//179 135//179
f 140//180 142//180 137//180
f 137//181 142//181 129//181
f 131//44 129//44 82//44
f 131//46 82//46 158//46
f 3//55 131//55 38//55
f 38//106 131//106 5//106
f 158//46 5//46 131//46
f 4//1 158//1 81//1
f 5//1 158//1 4//1
f 81//88 158//88 82//88
f 111//182 4//182 159//182
f 111//183 159//183 99//183
f 159//184 4//184 91//184
f 159//185 91//185 99//185
f 160//90 84//90 2//90
f 84//186 38//186 2//186
f 84//187 42//187 47//187
f 42//188 84//188 160//188
f 160//1 2//1 8//1
f 8//1 43//1 160//1
f 160//189 43//189 42//189
f 44//43 47//43 42//43
f 2//106 38//106 5//106
f 161//2 37//2 8//2
f 37//190 161//190 20//190
f 161//191 162//191 19//191
f 19//192 18//192 161//192
f 18//193 20//193 161//193
f 161//2 8//2 162//2
f 162//194 163//194 19//194
f 8//2 163//2 162//2
f 12//2 163//2 8//2
f 163//195 12//195 13//195
f 17//196 19//196 163//196
f 13//197 17//197 163//197
f 23//2 3//2 33//2
f 23//198 33//198 24//198
