# Blender 5.0.1
# www.blender.org
mtllib torso_y_link_visual_41.mtl
o i01.torso.full.043_visual.001
v 0.065461 0.016962 0.017059
v 0.065461 0.014582 -0.019132
v 0.070609 0.041725 -0.020917
v 0.065460 -0.044104 -0.015273
v -0.070609 0.016962 0.017059
v -0.070609 -0.041724 0.020918
v 0.065460 -0.041725 0.020918
v 0.070609 0.044104 0.015275
v -0.070609 -0.044104 -0.015273
v -0.070609 0.014582 -0.019132
vn 0.9826 -0.1856 0.0122
vn 1.0000 -0.0000 -0.0000
vn -0.0000 0.0656 0.9978
vn -0.1891 0.9798 -0.0644
vn -0.0000 -0.9978 0.0656
vn -1.0000 -0.0000 -0.0000
vn -0.0000 -0.0656 -0.9978
s 0
usemtl Material.027
f 1//1 2//1 3//1
f 4//2 2//2 1//2
f 3//1 8//1 1//1
f 1//2 7//2 4//2
f 1//3 5//3 6//3
f 1//3 8//3 5//3
f 6//3 7//3 1//3
f 5//4 8//4 3//4
f 4//5 7//5 6//5
f 4//5 6//5 9//5
f 9//6 6//6 5//6
f 5//6 10//6 9//6
f 9//7 10//7 2//7
f 2//7 4//7 9//7
f 10//7 3//7 2//7
f 3//4 10//4 5//4
