# Blender 5.0.1
# www.blender.org
mtllib torso_z_link_visual_6.mtl
o i01.torso.topStom.full.007_visual.001
v -0.025549 0.049299 -0.042755
v -0.055702 -0.023560 -0.034648
v -0.025549 -0.054046 -0.035960
v -0.043625 -0.041792 -0.034778
v -0.004227 -0.058457 -0.038015
v 0.017095 -0.054353 -0.040630
v -0.059943 -0.002126 -0.035591
v -0.055702 0.019247 -0.037463
v 0.051489 -0.002928 -0.047794
v -0.043625 0.037305 -0.039979
v 0.035170 -0.042359 -0.043406
v 0.047248 -0.024301 -0.045922
v 0.035170 0.036738 -0.048608
v 0.047248 0.018506 -0.048738
v -0.004227 0.053403 -0.045370
v 0.017095 0.048992 -0.047425
v -0.017095 0.054353 0.034108
v 0.004227 0.058457 0.031493
v -0.005991 0.045873 0.033444
v 0.025549 0.054046 0.029438
v 0.027483 0.040211 0.030136
v 0.043625 0.041792 0.028255
v 0.055702 0.023560 0.028127
v 0.044499 0.018982 0.029659
v 0.059944 0.002126 0.029069
v 0.047963 -0.004872 0.030848
v 0.055702 -0.019247 0.030941
v 0.043624 -0.037305 0.033457
v 0.030163 -0.033713 0.034701
v 0.025548 -0.049299 0.036234
v 0.004227 -0.053403 0.038849
v -0.002829 -0.041326 0.038831
v -0.017095 -0.048992 0.040903
v -0.035171 -0.036738 0.042086
v -0.026596 -0.028192 0.040581
v -0.047249 -0.018506 0.042215
v -0.038880 -0.007420 0.040566
v -0.051490 0.002928 0.041272
v -0.047248 0.024301 0.039401
v -0.033479 0.026144 0.037766
v -0.035171 0.042359 0.036885
v -0.038011 0.013614 0.047118
v -0.018160 0.041065 0.043131
v 0.015314 0.046245 0.039108
v -0.032610 -0.020027 0.048738
v -0.005121 -0.040152 0.047037
v 0.028352 -0.034972 0.043015
v 0.048203 -0.007521 0.039025
v 0.042802 0.026121 0.037408
vn 0.1091 0.0652 0.9919
vn 0.1090 0.0653 0.9919
vn -0.5523 0.8337 0.0059
vn -0.1939 0.9801 -0.0431
vn 0.1939 0.9773 -0.0856
vn 0.1092 0.0653 0.9919
vn 0.1091 0.0653 0.9919
vn 0.5523 0.8257 -0.1150
vn 0.8265 0.5484 -0.1270
vn 0.1091 0.0651 0.9919
vn 0.9749 0.1877 -0.1196
vn 0.1092 0.0652 0.9919
vn 0.9749 -0.2017 -0.0940
vn 0.8265 -0.5603 -0.0541
vn 0.5522 -0.8337 -0.0059
vn 0.1939 -0.9801 0.0431
vn 0.5523 -0.8337 -0.0059
vn -0.1939 -0.9773 0.0856
vn -0.5522 -0.8257 0.1150
vn -0.8265 -0.5484 0.1270
vn -0.5523 -0.8257 0.1150
vn 0.1090 0.0652 0.9919
vn -0.9749 -0.1876 0.1196
vn -0.9749 0.2017 0.0940
vn -0.8265 0.5603 0.0541
vn -0.9491 0.1287 -0.2874
vn -0.5797 0.7273 -0.3673
vn -0.7039 0.5705 0.4232
vn -0.1050 0.9370 0.3332
vn 0.1050 0.8853 -0.4531
vn 0.5797 0.7691 0.2690
vn 0.9869 0.1595 0.0227
vn 0.7174 0.5836 -0.3805
vn 0.9858 0.1472 0.0803
vn 0.8132 -0.5750 0.0901
vn 0.8223 -0.5338 -0.1971
vn 0.1721 -0.9673 0.1864
vn 0.2117 -0.9721 -0.1011
vn -0.5344 -0.7610 0.3677
vn -0.4842 -0.8749 -0.0101
vn -0.8541 -0.5051 -0.1241
vn -0.8662 -0.1156 0.4862
s 0
usemtl Material.007
f 2//1 1//1 7//1
f 1//1 2//1 4//1
f 1//1 4//1 3//1
f 1//1 3//1 5//1
f 1//1 5//1 6//1
f 1//1 6//1 11//1
f 1//1 8//1 7//1
f 1//2 10//2 8//2
f 1//1 12//1 9//1
f 1//1 9//1 14//1
f 1//1 11//1 12//1
f 1//1 14//1 13//1
f 1//1 13//1 16//1
f 1//1 16//1 15//1
usemtl Material.006
f 17//3 1//3 10//3
f 18//4 15//4 1//4
f 1//4 17//4 18//4
f 20//1 18//1 19//1
f 18//1 17//1 19//1
f 15//5 18//5 20//5
f 22//6 20//6 21//6
f 19//7 21//7 20//7
f 16//8 20//8 22//8
f 20//5 16//5 15//5
f 23//6 22//6 21//6
f 22//8 13//8 16//8
f 13//9 22//9 23//9
f 21//10 24//10 23//10
f 25//1 23//1 24//1
f 23//9 14//9 13//9
f 14//11 23//11 25//11
f 27//12 25//12 26//12
f 24//7 26//7 25//7
f 25//11 9//11 14//11
f 9//13 25//13 27//13
f 28//1 27//1 26//1
f 12//14 27//14 28//14
f 27//13 12//13 9//13
f 26//1 29//1 28//1
f 30//1 28//1 29//1
f 11//15 28//15 30//15
f 28//14 11//14 12//14
f 31//1 30//1 29//1
f 6//16 30//16 31//16
f 30//17 6//17 11//17
f 29//1 32//1 31//1
f 33//1 31//1 32//1
f 5//18 31//18 33//18
f 31//16 5//16 6//16
f 34//1 33//1 32//1
f 3//19 33//19 34//19
f 33//18 3//18 5//18
f 32//1 35//1 34//1
f 36//1 34//1 35//1
f 4//20 34//20 36//20
f 34//21 4//21 3//21
f 38//22 36//22 37//22
f 35//1 37//1 36//1
f 2//23 36//23 38//23
f 36//20 2//20 4//20
f 39//22 38//22 37//22
f 7//24 38//24 39//24
f 38//23 7//23 2//23
f 41//1 39//1 40//1
f 37//1 40//1 39//1
f 8//25 39//25 41//25
f 39//24 8//24 7//24
f 17//1 41//1 40//1
f 10//3 41//3 17//3
f 41//25 10//25 8//25
f 40//1 19//1 17//1
f 40//26 37//26 42//26
f 19//27 40//27 43//27
f 42//28 43//28 40//28
f 43//29 44//29 19//29
f 44//1 43//1 42//1
f 21//30 19//30 44//30
f 44//31 49//31 21//31
f 44//7 42//7 45//7
f 44//1 45//1 46//1
f 44//1 46//1 47//1
f 44//1 47//1 48//1
f 44//1 48//1 49//1
f 49//32 48//32 26//32
f 24//33 21//33 49//33
f 26//34 24//34 49//34
f 48//35 47//35 29//35
f 29//36 26//36 48//36
f 47//37 46//37 32//37
f 32//38 29//38 47//38
f 46//39 45//39 35//39
f 35//40 32//40 46//40
f 37//41 35//41 45//41
f 45//42 42//42 37//42
