# Blender 5.0.1
# www.blender.org
mtllib torso_z_link_visual_1.mtl
o i01.torso.topStom.full.002_visual.001
v -0.332698 0.069501 0.169975
v -0.346375 0.086126 0.170320
v -0.342275 0.087094 0.205770
v -0.331831 0.074065 0.205536
v -0.318033 0.070145 0.204357
v -0.333460 -0.049265 0.177864
v -0.314430 -0.048057 0.175802
v -0.313469 0.069407 0.167979
v -0.302179 0.078162 0.166227
v -0.304441 0.074562 0.202651
v -0.294599 0.088133 0.200734
v -0.309781 -0.046367 0.211159
v -0.295601 -0.059150 0.210520
v -0.301498 -0.058633 0.175151
v -0.296342 -0.080703 0.212016
v -0.297710 -0.077572 0.176003
v -0.280624 -0.123512 0.213336
v -0.280624 0.149991 0.195354
v -0.298065 0.109445 0.199693
v -0.314439 0.119224 0.200756
v -0.284324 0.147655 0.159825
v -0.352245 0.148118 0.166868
v -0.348545 0.150454 0.202396
v -0.280238 -0.043846 0.212194
v -0.216863 0.151361 0.212591
v -0.280211 0.150357 0.199498
v 0.282667 0.146149 0.136941
v -0.191506 0.154154 0.255491
v 0.289558 0.150847 0.205520
v 0.289558 -0.122656 0.223502
v 0.352245 0.145675 0.129725
v 0.311370 0.108481 0.136285
v 0.300727 0.095736 0.138232
v 0.299678 0.081420 0.139284
v 0.282667 -0.127353 0.154923
v 0.278967 0.143813 0.101413
v 0.311078 0.108117 0.100389
v 0.348545 0.143339 0.094197
v 0.296000 0.077938 0.103944
v 0.297508 0.094541 0.102695
v 0.278966 -0.129689 0.119396
v 0.239673 0.119349 -0.273472
v -0.323406 0.123189 -0.215081
v -0.323406 -0.150314 -0.197096
v -0.284324 -0.125848 0.177809
v 0.239673 -0.154154 -0.255486
v -0.311208 -0.094170 0.178498
v -0.348545 -0.123048 0.220380
v -0.352245 -0.125385 0.184852
v -0.345869 -0.078271 0.181064
v -0.338684 -0.090482 0.181118
v -0.345973 -0.063626 0.180112
v -0.325159 -0.096081 0.180078
v -0.322853 -0.093735 0.215634
v -0.308646 -0.092069 0.214045
v -0.339228 -0.083957 0.216695
v -0.343020 -0.067269 0.216026
v -0.338353 -0.053943 0.214633
v -0.324058 -0.045219 0.212570
v 0.348545 -0.130164 0.112182
v 0.326607 -0.097943 0.112320
v 0.307681 -0.095402 0.114124
v 0.296000 -0.080192 0.114340
v 0.296761 -0.066079 0.113334
v 0.299688 -0.064699 0.148890
v 0.306641 -0.052193 0.111391
v 0.325477 -0.046513 0.145007
v 0.325456 -0.049677 0.109266
v 0.309683 0.061306 0.103612
v 0.309529 -0.051129 0.146973
v 0.308472 0.067019 0.139314
v 0.321764 0.062232 0.138244
v 0.331172 0.061903 0.101335
v 0.336099 0.064887 0.136578
v 0.343686 0.076264 0.099087
v 0.347780 0.079937 0.134366
v 0.342549 -0.055171 0.143800
v 0.339752 -0.058595 0.108365
v 0.348383 -0.071000 0.144226
v 0.344571 -0.084815 0.145537
v 0.344696 -0.074558 0.108898
v 0.352245 -0.127828 0.147709
v 0.331639 -0.095214 0.147568
v 0.340201 -0.088162 0.110262
v 0.310330 -0.092843 0.149632
v 0.300449 -0.078822 0.149738
v 0.342351 0.095365 0.097970
v 0.346273 0.096563 0.133434
v 0.332703 0.110323 0.133943
v 0.330047 0.106899 0.098493
v -0.191510 -0.119362 0.273471
v -0.216857 -0.122234 0.230636
v -0.280205 -0.123142 0.217537
v 0.100478 -0.067173 0.239464
v 0.058300 0.008652 0.238853
v 0.069114 -0.029577 0.240242
v 0.147597 -0.084741 0.235694
v 0.147586 -0.065059 0.259877
v 0.187001 -0.081813 0.231399
v 0.229670 -0.058535 0.225440
v 0.195936 -0.059390 0.254470
v 0.227197 -0.034509 0.249565
v 0.087776 0.056383 0.258104
v 0.078014 0.016274 0.261776
v 0.110207 -0.047353 0.262593
v 0.089157 -0.022377 0.263143
v 0.107953 0.081807 0.254335
v 0.136334 0.097481 0.250350
v 0.176225 0.100651 0.245999
v 0.243777 0.035712 0.243234
v 0.242008 -0.005600 0.246121
v 0.219748 0.078395 0.242930
v 0.065970 0.058322 0.234805
v 0.096399 0.096267 0.229125
v 0.131586 0.114107 0.224288
v 0.170988 0.117033 0.219991
v 0.218108 0.099468 0.216256
v 0.254560 0.052329 0.215559
v 0.258904 -0.007007 0.219005
v -0.331011 0.116675 0.202649
v -0.341654 0.103931 0.204595
v -0.342916 0.107398 0.168548
v -0.326542 0.116953 0.166214
v -0.309970 0.114178 0.164670
v -0.297415 0.096581 0.164520
vn -0.1043 -0.0652 -0.9924
vn 0.7668 0.6331 -0.1060
vn 0.7756 0.6235 -0.0989
vn 0.2608 0.9567 -0.1292
vn 0.0028 0.9998 -0.0199
vn -0.1034 -0.0653 -0.9925
vn -0.1033 -0.0653 -0.9925
vn -0.3152 0.9472 -0.0588
vn -0.6084 0.7926 0.0406
vn -0.8090 0.5878 0.0079
vn 0.1034 0.0652 0.9925
vn 0.1035 0.0653 0.9925
vn 0.1034 0.0653 0.9925
vn -0.6275 -0.7730 0.0933
vn -0.9695 -0.1868 0.1589
vn -0.6615 -0.7399 0.1223
vn 0.0955 0.0657 0.9933
vn -0.9985 0.0372 0.0412
vn 0.0939 0.0653 0.9934
vn 0.0931 0.0654 0.9935
vn 0.1018 0.0625 0.9928
vn 0.0974 0.0644 0.9932
vn 0.1034 0.0607 0.9928
vn -0.0000 0.9978 -0.0656
vn -0.9956 0.0062 0.0939
vn -0.9951 0.0066 0.0986
vn -0.0010 0.9971 -0.0755
vn 0.0025 0.9961 -0.0883
vn 0.0005 0.9979 -0.0653
vn -0.0002 0.9977 -0.0683
vn 0.9950 -0.0065 -0.0995
vn 0.1034 0.0615 0.9927
vn 0.1058 0.0633 0.9924
vn 0.1100 0.0648 0.9918
vn 0.1115 0.0652 0.9916
vn 0.0001 0.9979 -0.0651
vn -0.1037 -0.0649 -0.9925
vn -0.1034 -0.0645 -0.9925
vn -0.1049 -0.0652 -0.9923
vn -0.1044 -0.0651 -0.9924
vn 0.9946 -0.0068 -0.1038
vn -0.9946 0.0068 0.1032
vn -0.0001 -0.9979 0.0651
vn -0.1015 -0.0653 -0.9927
vn -0.1028 -0.0656 -0.9925
vn -0.1034 -0.0661 -0.9924
vn -0.0000 -0.9978 0.0656
vn -0.1073 -0.0652 -0.9921
vn -0.1041 -0.0657 -0.9924
vn -0.1036 -0.0659 -0.9924
vn -0.1074 -0.0652 -0.9921
vn -0.1033 -0.0662 -0.9924
vn -0.9946 0.0068 0.1031
vn 0.3755 0.9229 -0.0852
vn -0.1417 0.9883 -0.0560
vn -0.1219 0.9913 -0.0498
vn 0.1028 0.0706 0.9922
vn 0.1051 0.0685 0.9921
vn 0.4999 0.8532 -0.1488
vn 0.1154 0.0659 0.9911
vn 0.9659 0.2137 -0.1459
vn 0.8593 0.5052 -0.0795
vn 0.1258 0.0652 0.9899
vn 0.1229 0.0651 0.9903
vn 0.1094 0.0654 0.9918
vn 0.9342 -0.3389 -0.1112
vn 0.9966 0.0018 -0.0818
vn 0.1037 0.0652 0.9925
vn 0.7552 -0.6553 0.0171
vn 0.5163 -0.8555 -0.0401
vn 0.1033 0.0653 0.9925
vn -0.0744 -0.9956 0.0574
vn 0.0734 -0.9927 0.0958
vn 0.1011 0.0677 0.9926
vn -0.6780 0.7350 0.0054
vn 0.1034 0.0698 0.9922
vn -0.1048 -0.0652 -0.9924
vn -0.1035 -0.0652 -0.9925
vn -0.7668 0.6363 0.0845
vn -0.1048 -0.0653 -0.9923
vn -0.1035 -0.0659 -0.9924
vn -0.1038 -0.0657 -0.9924
vn -0.1055 -0.0650 -0.9923
vn 0.8111 -0.5833 -0.0441
vn 0.9951 -0.0593 -0.0796
vn 0.1418 -0.9861 0.0872
vn 0.2787 -0.9603 0.0061
vn 0.8054 -0.5908 -0.0477
vn 0.7693 0.6344 -0.0754
vn 0.8453 0.5159 -0.1388
vn 0.3257 0.9353 -0.1386
vn -0.0295 0.9994 -0.0164
vn -0.1882 0.9805 -0.0567
vn -0.7492 0.6605 0.0488
vn -0.7877 0.6154 0.0274
vn 0.1038 0.0653 0.9925
vn -0.5197 -0.8455 0.1227
vn -0.4465 -0.8913 0.0792
vn -0.9339 -0.3413 0.1067
vn 0.1045 0.0652 0.9924
vn 0.0629 0.0653 0.9959
vn 0.0971 0.0675 0.9930
vn -0.9596 0.2717 0.0728
vn -0.9485 -0.2895 0.1281
vn 0.1034 0.0696 0.9922
vn 0.0709 0.0654 0.9953
vn 0.9946 -0.0068 -0.1031
vn 0.1010 0.0681 0.9925
vn 0.1038 0.0690 0.9922
vn -0.6263 0.7795 0.0036
vn -0.5819 0.8130 0.0201
vn 0.1014 0.9907 -0.0912
vn 0.1060 0.0672 0.9921
vn 0.8107 0.5722 -0.1240
vn 0.7882 0.6068 -0.1025
vn 0.1251 0.9889 -0.0806
vn 0.1105 0.0655 0.9917
vn 0.9909 0.0458 -0.1263
vn -0.1023 -0.0657 -0.9926
vn -0.9433 0.3204 0.0865
vn -0.1029 -0.0658 -0.9925
vn -0.1037 -0.0653 -0.9925
vn -0.0954 -0.0653 -0.9933
vn -0.9907 -0.0621 0.1214
vn -0.9902 -0.0835 0.1123
vn 0.0912 0.0640 0.9938
vn -0.7064 -0.7004 0.1018
vn 0.1008 0.0627 0.9929
vn -0.6761 -0.7268 0.1209
vn -0.0538 -0.9935 0.1000
vn 0.1037 0.0611 0.9927
vn 0.0870 -0.9962 0.0094
vn -0.1029 -0.0648 -0.9926
vn -0.1007 -0.0651 -0.9928
vn -0.0979 -0.0653 -0.9931
vn 0.9916 -0.0966 -0.0866
vn 0.7073 -0.7069 0.0014
vn 0.7631 -0.6445 -0.0474
vn 0.9922 -0.0797 -0.0954
vn -0.0001 -0.9978 0.0669
vn 0.0003 -0.9977 0.0683
vn 0.0006 -0.9974 0.0715
vn -0.8611 0.0334 0.5073
vn -0.0039 -0.9961 0.0881
vn -0.2030 0.0644 0.9771
vn -0.9951 0.0062 0.0987
vn 0.1038 0.0660 0.9924
vn 0.1039 0.0656 0.9924
vn 0.1040 0.0655 0.9924
vn 0.1041 0.0652 0.9924
vn -0.8613 0.0333 0.5069
vn 0.1035 0.0686 0.9923
vn -0.2322 -0.7545 0.6139
vn 0.1254 -0.7694 0.6263
vn 0.1032 0.0672 0.9924
vn 0.4642 -0.7183 0.5183
vn 0.1027 0.0659 0.9925
vn 0.1598 -0.7381 0.6555
vn 0.5465 -0.5647 0.6184
vn 0.1035 0.0656 0.9925
vn 0.1033 0.0654 0.9925
vn -0.7004 0.2323 0.6749
vn 0.1049 0.0653 0.9923
vn 0.1030 0.0652 0.9925
vn -0.5852 0.5524 0.5936
vn 0.1035 0.0650 0.9925
vn 0.1030 0.0655 0.9925
vn 0.1033 0.0651 0.9925
vn 0.1032 0.0650 0.9925
vn 0.1032 0.0652 0.9925
vn 0.1039 0.0648 0.9925
vn 0.1040 0.0652 0.9924
vn -0.5856 0.5577 0.5883
vn -0.7744 0.1693 0.6097
vn 0.1038 0.0643 0.9925
vn -0.3161 0.7727 0.5505
vn -0.3304 0.7454 0.5790
vn -0.0082 0.8424 0.5389
vn 0.1036 0.0625 0.9927
vn -0.0046 0.8457 0.5336
vn 0.3430 0.8244 0.4502
vn 0.1027 0.0646 0.9926
vn 0.1035 0.0618 0.9927
vn 0.4108 0.7275 0.5495
vn 0.1026 0.0647 0.9926
vn 0.7292 0.5580 0.3960
vn 0.1016 0.0651 0.9927
vn 0.9085 0.0902 0.4081
vn 0.7339 0.4170 0.5363
vn 0.7916 -0.3904 0.4700
vn 0.1025 0.0658 0.9926
vn 0.7890 -0.3435 0.5094
vn 0.1006 0.0653 0.9928
vn 0.8487 0.0006 0.5288
vn -0.5669 -0.4924 0.6604
vn -0.7112 -0.1810 0.6793
vn -0.5729 -0.4915 0.6559
vn -0.2686 -0.6727 0.6894
vn -0.7160 -0.1780 0.6750
vn 0.1040 0.0614 0.9927
vn 0.1064 0.0626 0.9924
vn 0.1210 0.0647 0.9905
vn 0.7578 -0.6464 -0.0887
vn 0.9851 -0.1644 -0.0503
vn 0.9925 -0.0445 -0.1136
vn -0.1037 -0.0647 -0.9925
vn -0.1065 -0.0653 -0.9922
vn 0.5092 -0.8589 0.0559
vn -0.1034 -0.0644 -0.9926
vn -0.1033 -0.0645 -0.9926
vn 0.1533 -0.9881 0.0113
vn -0.1533 -0.9811 0.1182
vn -0.1028 -0.0649 -0.9926
vn -0.7978 -0.5709 0.1940
vn -0.5092 -0.8588 0.0570
vn -0.1013 -0.0653 -0.9927
vn -0.9866 -0.1585 0.0397
vn -0.9562 0.2598 0.1350
vn -0.1032 -0.0653 -0.9925
s 0
usemtl Material.007
f 1//1 6//1 2//1
f 3//2 1//2 2//2
f 1//3 3//3 4//3
f 1//4 4//4 5//4
f 5//5 8//5 1//5
f 1//6 7//6 6//6
f 1//7 8//7 7//7
f 8//8 5//8 10//8
f 8//6 9//6 7//6
f 10//9 9//9 8//9
f 9//10 10//10 11//10
f 13//11 11//11 10//11
f 10//12 12//12 13//12
f 5//13 12//13 10//13
f 13//14 7//14 14//14
f 13//15 14//15 16//15
f 7//16 13//16 12//16
f 15//17 17//17 13//17
f 16//18 15//18 13//18
f 17//19 18//19 13//19
f 11//20 13//20 18//20
f 20//21 19//21 18//21
f 19//22 11//22 18//22
f 20//23 18//23 23//23
f 21//24 18//24 27//24
f 18//24 21//24 22//24
f 22//24 23//24 18//24
f 24//25 18//25 17//25
f 26//26 18//26 24//26
f 18//27 25//27 27//27
f 26//28 25//28 18//28
f 25//29 28//29 27//29
f 28//30 29//30 27//30
f 27//31 29//31 30//31
f 30//31 35//31 27//31
f 27//24 36//24 21//24
f 31//32 27//32 32//32
f 36//24 27//24 31//24
f 32//33 27//33 33//33
f 33//34 27//34 34//34
f 27//35 35//35 34//35
f 43//36 21//36 36//36
f 37//37 40//37 36//37
f 38//38 37//38 36//38
f 31//24 38//24 36//24
f 36//39 39//39 41//39
f 40//40 39//40 36//40
f 42//41 36//41 41//41
f 36//36 42//36 43//36
f 21//42 43//42 44//42
f 44//6 43//6 42//6
f 44//42 45//42 21//42
f 45//43 44//43 46//43
f 42//6 46//6 44//6
f 46//43 41//43 45//43
f 41//41 46//41 42//41
f 45//44 16//44 21//44
f 47//45 16//45 45//45
f 49//46 47//46 45//46
f 17//47 45//47 41//47
f 45//47 17//47 48//47
f 48//47 49//47 45//47
f 52//48 50//48 49//48
f 50//49 51//49 49//49
f 51//50 53//50 49//50
f 49//51 22//51 52//51
f 47//52 49//52 53//52
f 49//53 48//53 23//53
f 23//53 22//53 49//53
f 54//54 53//54 51//54
f 54//55 47//55 53//55
f 47//56 54//56 55//56
f 55//57 54//57 48//57
f 56//58 48//58 54//58
f 51//59 56//59 54//59
f 57//60 48//60 56//60
f 50//61 57//61 56//61
f 56//62 51//62 50//62
f 57//63 3//63 23//63
f 48//64 57//64 23//64
f 57//65 58//65 3//65
f 52//66 58//66 57//66
f 57//67 50//67 52//67
f 58//68 4//68 3//68
f 4//13 58//13 59//13
f 58//69 52//69 6//69
f 6//70 59//70 58//70
f 5//71 4//71 59//71
f 5//13 59//13 12//13
f 7//72 12//72 59//72
f 59//73 6//73 7//73
f 55//74 17//74 15//74
f 47//75 55//75 15//75
f 48//76 17//76 55//76
f 52//77 22//77 2//77
f 52//78 2//78 6//78
f 15//79 16//79 47//79
f 41//47 35//47 17//47
f 61//46 60//46 41//46
f 35//47 41//47 60//47
f 64//80 41//80 39//80
f 41//81 62//81 61//81
f 62//82 41//82 63//82
f 63//83 41//83 64//83
f 65//84 64//84 66//84
f 65//85 63//85 64//85
f 39//6 66//6 64//6
f 67//86 66//86 68//86
f 66//87 67//87 70//87
f 68//6 66//6 69//6
f 39//6 69//6 66//6
f 66//88 70//88 65//88
f 71//13 65//13 70//13
f 67//13 71//13 70//13
f 71//89 69//89 39//89
f 39//90 34//90 71//90
f 34//12 65//12 71//12
f 69//91 71//91 72//91
f 67//13 72//13 71//13
f 72//92 73//92 69//92
f 73//93 72//93 74//93
f 67//71 74//71 72//71
f 74//94 75//94 73//94
f 75//95 74//95 76//95
f 76//96 74//96 77//96
f 67//71 77//71 74//71
f 77//97 68//97 78//97
f 68//98 77//98 67//98
f 78//99 79//99 77//99
f 76//100 77//100 79//100
f 76//101 79//101 82//101
f 82//102 79//102 80//102
f 81//103 80//103 79//103
f 79//104 78//104 81//104
f 83//105 35//105 82//105
f 60//47 82//47 35//47
f 31//106 76//106 82//106
f 38//107 31//107 82//107
f 82//107 60//107 38//107
f 82//108 80//108 83//108
f 35//109 83//109 85//109
f 84//110 83//110 80//110
f 83//111 84//111 61//111
f 61//112 85//112 83//112
f 85//113 86//113 35//113
f 63//114 86//114 85//114
f 85//115 62//115 63//115
f 85//116 61//116 62//116
f 86//117 65//117 35//117
f 63//118 65//118 86//118
f 60//119 84//119 81//119
f 80//120 81//120 84//120
f 60//121 61//121 84//121
f 75//122 81//122 78//122
f 75//123 60//123 81//123
f 75//6 78//6 73//6
f 68//7 73//7 78//7
f 76//124 87//124 75//124
f 87//125 76//125 88//125
f 76//126 31//126 88//126
f 87//127 88//127 89//127
f 88//128 31//128 89//128
f 89//129 90//129 87//129
f 89//130 37//130 90//130
f 32//131 89//131 31//131
f 37//132 89//132 32//132
f 87//133 90//133 38//133
f 90//38 37//38 38//38
f 75//134 87//134 38//134
f 38//135 60//135 75//135
f 68//6 69//6 73//6
f 65//35 34//35 35//35
f 33//136 39//136 40//136
f 32//137 40//137 37//137
f 40//138 32//138 33//138
f 39//139 33//139 34//139
f 92//140 35//140 91//140
f 30//141 91//141 35//141
f 17//142 35//142 92//142
f 25//143 92//143 91//143
f 92//144 93//144 17//144
f 92//145 25//145 26//145
f 26//145 93//145 92//145
f 17//146 93//146 24//146
f 96//147 91//147 94//147
f 94//148 91//148 97//148
f 91//149 96//149 95//149
f 28//150 91//150 95//150
f 91//151 28//151 25//151
f 91//152 30//152 97//152
f 98//153 94//153 97//153
f 98//154 97//154 99//154
f 99//155 97//155 30//155
f 101//156 99//156 100//156
f 100//157 99//157 30//157
f 99//158 101//158 98//158
f 100//159 102//159 101//159
f 103//160 101//160 102//160
f 103//161 98//161 101//161
f 113//162 104//162 103//162
f 103//163 104//163 106//163
f 103//13 106//13 105//13
f 103//164 105//164 98//164
f 113//165 103//165 107//165
f 103//166 108//166 107//166
f 103//167 109//167 108//167
f 103//168 112//168 109//168
f 103//169 111//169 110//169
f 103//170 110//170 112//170
f 103//71 102//71 111//71
f 28//171 95//171 113//171
f 114//172 28//172 113//172
f 107//173 114//173 113//173
f 104//174 113//174 95//174
f 115//175 28//175 114//175
f 108//176 115//176 114//176
f 114//177 107//177 108//177
f 115//178 108//178 109//178
f 28//179 115//179 116//179
f 109//180 116//180 115//180
f 109//181 117//181 116//181
f 29//182 116//182 117//182
f 29//183 28//183 116//183
f 117//184 109//184 112//184
f 29//185 117//185 118//185
f 112//186 118//186 117//186
f 118//187 119//187 29//187
f 110//188 119//188 118//188
f 118//189 112//189 110//189
f 102//190 100//190 119//190
f 119//191 100//191 30//191
f 119//192 111//192 102//192
f 30//193 29//193 119//193
f 119//194 110//194 111//194
f 94//195 105//195 106//195
f 96//196 106//196 104//196
f 106//197 96//197 94//197
f 94//198 98//198 105//198
f 104//199 95//199 96//199
f 23//200 120//200 20//200
f 23//201 121//201 120//201
f 23//202 3//202 121//202
f 122//203 120//203 121//203
f 121//204 2//204 122//204
f 2//205 121//205 3//205
f 22//206 123//206 122//206
f 22//207 122//207 2//207
f 120//208 122//208 123//208
f 123//209 22//209 21//209
f 21//210 124//210 123//210
f 123//211 20//211 120//211
f 20//212 123//212 124//212
f 124//213 21//213 125//213
f 19//214 124//214 125//214
f 124//215 19//215 20//215
f 125//216 21//216 16//216
f 125//217 11//217 19//217
f 11//218 125//218 9//218
f 14//7 9//7 125//7
f 14//219 125//219 16//219
f 14//6 7//6 9//6
