# Blender 5.0.1
# www.blender.org
mtllib torso_y_link_visual_24.mtl
o i01.torso.full.026_visual.001
v 0.061437 0.083420 -0.036554
v 0.058921 0.083143 -0.040767
v 0.065658 0.082427 -0.051665
v 0.066307 0.083594 -0.033916
v 0.062433 0.128927 -0.038505
v 0.058792 0.128539 -0.044401
v 0.067750 0.129030 -0.036933
v 0.042991 0.129908 -0.023582
v 0.062840 0.129730 -0.026291
v 0.056552 0.076031 -0.022416
v 0.081718 0.129793 -0.025333
v 0.081753 0.076062 -0.021940
v 0.104877 0.130226 -0.018745
v 0.106928 0.076564 -0.014307
v 0.065092 0.080172 0.040579
v 0.075997 0.080273 0.042096
v 0.077219 0.057039 0.043786
v 0.086442 0.080601 0.047079
v 0.087269 0.057417 0.049516
v 0.094713 0.081210 0.056354
v 0.094733 0.057950 0.057596
v 0.122269 0.077156 -0.005308
v 0.136673 0.077960 0.006929
v 0.148199 0.078942 0.021859
v 0.136775 0.131675 0.003299
v 0.122269 0.130877 -0.008841
v 0.151503 0.133016 0.023689
v 0.177958 0.126077 -0.081849
v 0.066307 0.127856 -0.054782
v 0.088008 0.121309 -0.154357
v 0.089776 0.121898 -0.145391
v 0.087970 0.122487 -0.136432
v 0.082866 0.122986 -0.128844
v 0.075240 0.123319 -0.123782
v -0.048770 0.129512 -0.029606
v 0.177958 0.118850 -0.191753
v 0.066254 0.123435 -0.122019
v 0.177958 0.062833 -0.091990
v 0.177958 0.052547 -0.024547
v 0.177958 0.065553 0.173252
v 0.177958 0.142518 0.168191
v 0.075999 0.128220 -0.049252
v 0.073065 0.127962 -0.053182
v 0.158772 0.134161 0.041105
v 0.162671 0.135301 0.058431
v 0.162259 0.137028 0.084698
v 0.162910 0.081725 0.064187
v 0.157268 0.080114 0.039679
v 0.098424 0.081798 0.065297
v 0.098602 0.058603 0.067558
v 0.099511 0.082524 0.076350
v 0.096480 0.083215 0.086843
v 0.096784 0.059927 0.087687
v 0.099435 0.059243 0.077273
v 0.162119 0.083305 0.088205
v 0.155515 0.084824 0.111320
v 0.142637 0.086246 0.132935
v 0.154607 0.138680 0.109833
v 0.090464 0.083809 0.095849
v 0.089927 0.060627 0.098302
v 0.082081 0.084217 0.102086
v 0.124588 0.087400 0.150491
v 0.141228 0.140082 0.131144
v 0.102598 0.088209 0.162787
v 0.122771 0.141209 0.148282
v 0.100505 0.141983 0.160061
v 0.172338 0.143076 0.176678
v 0.172338 0.066111 0.181739
v -0.043150 0.143076 0.176678
v -0.028979 0.143734 0.186692
v 0.158167 0.143734 0.186692
v 0.064453 0.142376 0.166031
v 0.083284 0.142276 0.164519
v 0.077061 0.088630 0.169188
v 0.050739 0.088572 0.168317
v 0.070020 0.084472 0.105944
v 0.054639 0.084327 0.103743
v 0.077270 0.061113 0.105755
v 0.064770 0.061232 0.107536
v 0.049383 0.060912 0.102703
v -0.043150 0.066111 0.181739
v -0.048770 0.065553 0.173252
v -0.048770 0.142518 0.168191
v 0.158167 0.066770 0.191753
v -0.028979 0.066770 0.191753
v -0.048770 0.052547 -0.024547
v -0.011276 0.139783 0.126597
v -0.028146 0.137129 0.086237
v -0.029692 0.135819 0.066316
v -0.023678 0.138259 0.103422
v 0.006213 0.140974 0.144715
v 0.022080 0.141648 0.154959
v 0.006121 0.087260 0.148357
v -0.011163 0.086056 0.130044
v 0.027697 0.088113 0.161333
v 0.044204 0.083878 0.096915
v 0.038118 0.083351 0.088914
v 0.038894 0.060208 0.091936
v 0.035167 0.059610 0.082870
v 0.034091 0.058899 0.072065
v 0.033987 0.082484 0.075714
v 0.036245 0.081554 0.061592
v -0.029082 0.083072 0.084669
v -0.028669 0.081345 0.058404
v -0.022871 0.084675 0.109042
v -0.025766 0.134260 0.042609
v -0.021015 0.079692 0.033261
v -0.007640 0.078291 0.011958
v -0.009048 0.132127 0.010166
v -0.018565 0.133113 0.025164
v 0.008996 0.130973 -0.007387
v 0.026295 0.130310 -0.017467
v 0.010806 0.077165 -0.005172
v 0.033092 0.076389 -0.016964
v 0.041164 0.081000 0.053161
v 0.049959 0.080473 0.045143
v 0.051964 0.057155 0.045555
v 0.039408 0.057887 0.056686
v 0.064858 0.056942 0.042286
v 0.060394 0.128095 -0.051145
v 0.060027 0.082693 -0.047608
v 0.040639 0.142145 0.162523
v -0.145363 -0.139363 -0.011929
v -0.145523 0.129509 -0.029607
v -0.177203 -0.143725 -0.078409
v -0.177958 0.125140 -0.096087
v -0.177958 0.062833 -0.091990
v -0.048770 0.062833 -0.091990
v -0.177958 0.056543 -0.187655
v -0.116181 0.061173 -0.117926
v -0.132764 0.060720 -0.124819
v -0.137836 0.060219 -0.132430
v -0.139603 0.059630 -0.141396
v -0.137798 0.059041 -0.150355
v -0.125160 0.061055 -0.119727
v -0.132764 0.122982 -0.128913
v -0.125160 0.123317 -0.123821
v -0.116181 0.123435 -0.122019
v -0.107195 0.123319 -0.123782
v -0.107195 0.061057 -0.119688
v -0.099569 0.060724 -0.124750
v -0.094465 0.060225 -0.132338
v -0.099569 0.122986 -0.128844
v -0.094465 0.122487 -0.136432
v 0.044600 0.122481 -0.136523
v 0.042832 0.121892 -0.145490
v -0.092659 0.121898 -0.145391
v -0.092659 0.059636 -0.141296
v 0.042832 0.059630 -0.141396
v 0.044599 0.060219 -0.132430
v -0.094427 0.059047 -0.150263
v 0.044637 0.059041 -0.150355
v -0.048770 0.056543 -0.187655
v -0.099499 0.058546 -0.157873
v -0.094427 0.121309 -0.154357
v 0.044638 0.121303 -0.154449
v -0.048770 0.118850 -0.191753
v -0.099498 0.120808 -0.161967
v -0.107103 0.058211 -0.162967
v -0.107103 0.120474 -0.167060
v -0.116081 0.058093 -0.164767
v -0.116081 0.120355 -0.168861
v -0.177958 0.118850 -0.191753
v -0.125068 0.058209 -0.163004
v -0.125068 0.120471 -0.167098
v -0.132694 0.058542 -0.157942
v -0.132694 0.120804 -0.162036
v -0.137797 0.121303 -0.154449
v -0.139603 0.121892 -0.145490
v -0.137836 0.122481 -0.136523
v 0.049742 0.120804 -0.162036
v 0.066353 0.120355 -0.168861
v 0.057367 0.120471 -0.167098
v 0.057367 0.058209 -0.163004
v 0.049742 0.058542 -0.157942
v 0.066353 0.058093 -0.164767
v 0.177958 0.056543 -0.187655
v 0.075332 0.120474 -0.167060
v 0.075332 0.058211 -0.162967
v 0.082936 0.058546 -0.157873
v 0.082937 0.120808 -0.161967
v 0.088008 0.059047 -0.150263
v 0.089776 0.059636 -0.141296
v 0.087970 0.060225 -0.132338
v 0.082866 0.060724 -0.124750
v 0.075240 0.061057 -0.119688
v 0.066254 0.061173 -0.117926
v 0.057276 0.061055 -0.119727
v 0.057276 0.123317 -0.123821
v 0.049671 0.122982 -0.128913
v 0.049671 0.060720 -0.124819
v 0.177958 -0.143734 -0.078407
v 0.177958 -0.139363 -0.011929
v 0.072515 0.082499 -0.050561
v 0.075999 0.082782 -0.046265
v 0.076709 0.083101 -0.041412
v 0.076580 0.128581 -0.043755
v 0.073066 0.083488 -0.035516
v 0.072519 0.128951 -0.038138
vn 0.8590 -0.0407 -0.5104
vn -0.0000 0.9978 -0.0656
vn 0.4771 -0.0481 -0.8775
vn 0.8513 -0.0395 -0.5231
vn 0.2840 -0.0725 -0.9561
vn 0.1355 0.0555 0.9892
vn -0.0189 0.0742 0.9971
vn -0.0508 0.0629 0.9967
vn -0.2742 0.0604 0.9598
vn -0.2907 0.0678 0.9544
vn -0.0001 0.9978 -0.0656
vn -0.1381 0.0646 0.9883
vn -0.4312 0.0429 0.9012
vn -0.4960 0.0733 0.8652
vn -0.7353 0.0449 0.6763
vn -0.7470 0.0348 0.6639
vn -0.7922 0.0427 0.6088
vn -0.6483 0.0526 0.7596
vn -0.8112 0.0298 0.5840
vn -0.6426 0.0503 0.7646
vn -0.0000 0.9978 -0.0657
vn 1.0000 -0.0000 -0.0000
vn -0.9999 -0.0061 -0.0153
vn -0.9746 0.0196 0.2230
vn -0.9757 0.0214 0.2182
vn -0.8916 0.0392 0.4512
vn -0.9231 0.0155 0.3842
vn -0.9952 0.0019 0.0977
vn -0.9324 0.0280 0.3603
vn -0.9239 0.0196 0.3821
vn -0.0000 0.9979 -0.0655
vn -0.9609 -0.0225 -0.2761
vn -0.0000 0.9978 -0.0658
vn -0.9692 -0.0066 -0.2463
vn -0.9964 0.0066 0.0850
vn -0.9995 0.0005 -0.0329
vn -0.9617 -0.0154 -0.2737
vn -0.8595 -0.0286 -0.5103
vn -0.9568 -0.0241 -0.2897
vn -0.8321 -0.0393 -0.5532
vn -0.5976 -0.0707 -0.7987
vn -0.0001 0.9979 -0.0655
vn -0.6980 -0.0420 -0.7148
vn -0.6812 -0.0530 -0.7302
vn -0.4889 -0.0523 -0.8708
vn -0.4684 -0.0629 -0.8813
vn 0.8343 0.0362 0.5501
vn 0.5780 0.0535 0.8143
vn -0.2511 -0.0550 -0.9664
vn -0.0802 -0.0772 -0.9938
vn -0.2436 -0.0586 -0.9681
vn 0.0332 -0.0509 -0.9982
vn 0.1419 -0.0995 -0.9849
vn -0.3052 -0.0870 -0.9483
vn 0.0001 0.9978 -0.0656
vn -0.1413 -0.0359 -0.9893
vn 0.0001 -0.9978 0.0657
vn 0.3001 -0.0250 -0.9536
vn -0.0001 -0.9978 0.0657
vn -0.0000 -0.9978 0.0656
vn -0.8343 0.0362 0.5501
vn -0.5779 0.0535 0.8143
vn -0.0000 0.0656 0.9978
vn -1.0000 -0.0000 -0.0000
vn 0.7202 -0.0482 -0.6921
vn 0.5432 -0.0577 -0.8376
vn 0.7280 -0.0424 -0.6843
vn 0.5162 -0.0477 -0.8552
vn 0.7965 -0.0520 -0.6024
vn 0.7167 -0.0141 -0.6973
vn 0.5481 -0.0861 -0.8320
vn 0.9252 -0.0185 -0.3791
vn -0.0002 -0.9979 0.0654
vn 0.9947 0.0199 -0.1004
vn 0.9543 -0.0433 -0.2958
vn 0.9870 -0.0203 0.1592
vn 0.9691 -0.0112 -0.2462
vn 0.8821 -0.0360 -0.4697
vn 0.8739 -0.0293 -0.4852
vn 0.9865 -0.0052 0.1637
vn 0.9567 0.0338 0.2890
vn 0.9998 0.0167 0.0146
vn 0.8474 0.0398 0.5294
vn 0.8449 0.0421 0.5333
vn 0.9246 0.0153 0.3807
vn 0.6981 0.0420 0.7148
vn 0.5042 0.0525 0.8620
vn 0.6813 0.0530 0.7301
vn 0.4685 0.0673 0.8809
vn 0.6744 0.0610 0.7358
vn 0.2893 0.0418 0.9563
vn 0.6640 0.0702 0.7444
vn 0.8640 0.0112 0.5033
vn 0.9446 0.0594 0.3227
vn 0.0001 -0.9979 0.0655
vn 0.2463 0.0686 0.9668
vn -0.0001 -0.9979 0.0655
vn -0.1207 0.0740 0.9899
vn 0.3446 0.0522 0.9373
vn 0.2268 0.0781 0.9708
vn 0.5854 0.0582 0.8087
vn 0.5248 0.0508 0.8497
vn 0.9730 0.0101 0.2306
vn 0.9872 0.0155 0.1586
vn 0.9970 -0.0150 -0.0764
vn 0.9679 -0.0095 -0.2510
vn 0.3781 -0.0702 -0.9231
vn 0.2906 -0.0486 -0.9556
vn 0.1460 -0.0791 -0.9861
vn -0.8979 0.0256 0.4395
vn -0.9023 0.0278 0.4303
vn -0.8991 0.0287 0.4368
vn -0.0000 -0.9980 0.0639
vn -0.0000 -0.0656 -0.9978
vn 0.0011 -0.9978 0.0656
vn 0.0002 -0.9979 0.0644
vn 0.0005 -0.9979 0.0649
vn 0.0007 -0.9979 0.0652
vn 0.0009 -0.9979 0.0654
vn 0.0016 -0.9978 0.0659
vn 0.5572 -0.0545 -0.8286
vn 0.1971 -0.0643 -0.9783
vn 0.1972 -0.0643 -0.9782
vn -0.1929 -0.0644 -0.9791
vn -0.1930 -0.0644 -0.9791
vn -0.0002 -0.9979 0.0645
vn -0.0005 -0.9979 0.0649
vn -0.5539 -0.0546 -0.8308
vn -0.0006 -0.9979 0.0652
vn -0.8303 -0.0366 -0.5561
vn -0.9804 -0.0129 -0.1968
vn -0.9812 0.0127 0.1926
vn -0.0000 -0.9978 0.0668
vn -0.0006 -0.9978 0.0660
vn -0.8327 0.0363 0.5525
vn -0.5574 0.0545 0.8285
vn -0.5573 0.0545 0.8285
vn -0.1970 0.0643 0.9783
vn -0.1971 0.0643 0.9783
vn 0.1930 0.0644 0.9791
vn 0.5539 0.0546 0.8308
vn 0.8303 0.0366 0.5562
vn 0.8303 0.0365 0.5561
vn 0.9804 0.0129 0.1967
vn 0.9804 0.0129 0.1968
vn 0.9812 -0.0127 -0.1926
vn 0.8327 -0.0363 -0.5525
vn 0.8327 -0.0363 -0.5526
vn 0.0007 -0.9978 0.0661
vn 0.0005 -0.9978 0.0664
vn 0.0003 -0.9978 0.0669
vn -0.0002 -0.9978 0.0669
vn -0.0000 -0.9977 0.0676
vn -0.0005 -0.9978 0.0663
vn 0.0004 -0.9978 0.0659
vn 0.0003 -0.9978 0.0661
vn 0.8302 0.0366 0.5562
vn 0.0002 -0.9978 0.0666
vn -0.0002 -0.9978 0.0666
vn -0.0003 -0.9978 0.0661
vn -0.0004 -0.9978 0.0659
vn -0.0006 -0.9978 0.0657
vn -0.0005 -0.9978 0.0656
vn -0.0005 -0.9979 0.0655
vn -0.0004 -0.9979 0.0653
vn -0.0003 -0.9979 0.0652
vn -0.0002 -0.9979 0.0647
vn 0.0002 -0.9979 0.0647
vn 0.0004 -0.9979 0.0653
vn 0.0003 -0.9979 0.0652
vn 0.8303 0.0366 0.5561
vn -0.0000 -0.9979 0.0645
vn -0.0000 -0.9979 0.0655
vn 0.0002 -0.9979 0.0654
vn -0.5080 -0.0309 -0.8608
vn -0.8475 -0.0398 -0.5294
vn -0.8405 -0.0305 -0.5409
vn 0.0001 -0.9978 0.0656
vn -0.2309 0.0588 0.9712
vn -0.8019 0.0392 0.5961
vn -0.7773 0.0456 0.6274
vn -0.9895 0.0095 0.1440
vn -0.9945 0.0026 0.1049
vn -0.8513 -0.0294 -0.5239
vn -0.8109 -0.0434 -0.5835
vn -0.2309 -0.0588 -0.9712
vn -0.2456 -0.0565 -0.9677
vn -0.1593 0.0698 0.9848
vn -0.0000 -0.9978 0.0657
vn -0.5068 0.0566 0.8602
vn -0.4957 0.0528 0.8669
s 0
usemtl Material.027
f 2//1 5//1 1//1
f 1//2 3//2 2//2
f 4//2 3//2 1//2
f 1//3 5//3 4//3
f 5//4 2//4 6//4
f 7//5 4//5 5//5
f 6//2 8//2 5//2
f 5//2 9//2 7//2
f 9//2 5//2 8//2
f 9//6 8//6 10//6
f 9//7 10//7 12//7
f 9//2 11//2 7//2
f 12//8 11//8 9//8
f 13//9 11//9 12//9
f 15//2 12//2 10//2
f 12//10 14//10 13//10
f 14//2 12//2 16//2
f 12//11 15//11 16//11
f 17//12 16//12 15//12
f 18//13 16//13 17//13
f 16//2 18//2 14//2
f 17//14 19//14 18//14
f 18//15 19//15 21//15
f 21//16 20//16 18//16
f 23//2 18//2 20//2
f 22//2 14//2 18//2
f 23//2 22//2 18//2
f 20//2 24//2 23//2
f 25//17 23//17 24//17
f 22//18 23//18 25//18
f 24//19 27//19 25//19
f 26//2 25//2 28//2
f 25//20 26//20 22//20
f 25//2 27//2 28//2
f 35//21 29//21 28//21
f 29//2 43//2 28//2
f 30//2 28//2 36//2
f 28//2 30//2 31//2
f 32//2 28//2 31//2
f 33//2 28//2 32//2
f 34//2 28//2 33//2
f 28//2 34//2 37//2
f 28//2 37//2 35//2
f 38//22 36//22 28//22
f 28//22 39//22 38//22
f 28//22 40//22 39//22
f 40//22 28//22 41//22
f 45//2 41//2 28//2
f 43//2 42//2 28//2
f 42//2 13//2 28//2
f 27//2 44//2 28//2
f 44//2 45//2 28//2
f 13//2 26//2 28//2
f 46//2 41//2 45//2
f 46//23 45//23 47//23
f 48//24 47//24 45//24
f 45//25 44//25 48//25
f 48//2 24//2 20//2
f 24//26 48//26 27//26
f 44//27 27//27 48//27
f 20//2 49//2 48//2
f 47//2 48//2 49//2
f 51//28 49//28 50//28
f 21//29 50//29 49//29
f 49//30 20//30 21//30
f 49//31 51//31 47//31
f 53//32 52//32 51//32
f 55//33 51//33 52//33
f 51//34 54//34 53//34
f 50//35 54//35 51//35
f 55//2 47//2 51//2
f 47//36 55//36 46//36
f 52//2 56//2 55//2
f 46//37 55//37 56//37
f 59//2 57//2 56//2
f 58//38 56//38 57//38
f 56//39 58//39 46//39
f 56//21 52//21 59//21
f 60//40 59//40 52//40
f 60//41 61//41 59//41
f 62//42 59//42 61//42
f 59//2 62//2 57//2
f 63//43 57//43 62//43
f 62//44 65//44 63//44
f 61//2 64//2 62//2
f 65//45 62//45 64//45
f 67//2 63//2 65//2
f 67//2 65//2 66//2
f 64//46 66//46 65//46
f 41//2 63//2 67//2
f 67//47 40//47 41//47
f 40//47 67//47 68//47
f 71//48 68//48 67//48
f 72//2 69//2 67//2
f 70//2 67//2 69//2
f 67//2 70//2 71//2
f 67//2 73//2 72//2
f 67//2 66//2 73//2
f 74//49 73//49 66//49
f 74//50 72//50 73//50
f 76//2 74//2 64//2
f 66//51 64//51 74//51
f 74//52 75//52 72//52
f 75//2 74//2 76//2
f 77//53 76//53 79//53
f 76//2 77//2 75//2
f 78//54 76//54 61//54
f 64//55 61//55 76//55
f 76//56 78//56 79//56
f 81//57 80//57 79//57
f 79//58 80//58 77//58
f 78//59 68//59 79//59
f 79//60 68//60 81//60
f 82//60 80//60 81//60
f 81//61 83//61 82//61
f 83//61 81//61 69//61
f 84//60 81//60 68//60
f 85//62 69//62 81//62
f 81//60 84//60 85//60
f 85//62 70//62 69//62
f 85//63 84//63 71//63
f 85//63 71//63 70//63
f 68//48 71//48 84//48
f 86//64 83//64 35//64
f 83//64 86//64 82//64
f 35//2 83//2 89//2
f 69//2 91//2 83//2
f 87//2 83//2 91//2
f 90//2 83//2 87//2
f 89//2 83//2 88//2
f 88//2 83//2 90//2
f 87//65 91//65 93//65
f 92//2 91//2 69//2
f 93//66 91//66 92//66
f 94//2 93//2 96//2
f 93//67 94//67 87//67
f 92//68 95//68 93//68
f 96//2 93//2 95//2
f 97//69 96//69 98//69
f 96//2 97//2 94//2
f 80//70 98//70 96//70
f 80//71 96//71 77//71
f 95//2 77//2 96//2
f 97//72 98//72 99//72
f 82//57 99//57 98//57
f 80//73 82//73 98//73
f 82//57 100//57 99//57
f 101//74 99//74 100//74
f 99//75 101//75 97//75
f 105//2 97//2 101//2
f 100//76 102//76 101//76
f 104//21 101//21 102//21
f 101//2 103//2 105//2
f 101//2 104//2 103//2
f 90//77 105//77 103//77
f 105//78 90//78 87//78
f 97//2 105//2 94//2
f 87//79 94//79 105//79
f 104//80 106//80 89//80
f 104//81 107//81 106//81
f 107//2 104//2 102//2
f 89//82 103//82 104//82
f 108//2 107//2 102//2
f 107//83 108//83 109//83
f 109//84 110//84 107//84
f 110//85 106//85 107//85
f 35//2 110//2 109//2
f 35//2 106//2 110//2
f 111//86 109//86 108//86
f 35//2 109//2 111//2
f 35//2 111//2 112//2
f 112//87 111//87 113//87
f 108//88 113//88 111//88
f 114//2 113//2 116//2
f 113//89 114//89 112//89
f 113//2 108//2 115//2
f 115//2 116//2 113//2
f 116//90 115//90 118//90
f 15//91 116//91 117//91
f 116//55 15//55 10//55
f 118//92 117//92 116//92
f 10//2 114//2 116//2
f 117//60 118//60 86//60
f 118//59 100//59 86//59
f 115//93 102//93 118//93
f 100//94 118//94 102//94
f 119//95 117//95 86//95
f 117//96 119//96 15//96
f 119//60 86//60 39//60
f 39//97 17//97 119//97
f 15//98 119//98 17//98
f 102//2 115//2 108//2
f 8//99 112//99 114//99
f 114//100 10//100 8//100
f 112//2 8//2 120//2
f 112//2 120//2 35//2
f 3//101 120//101 121//101
f 120//102 3//102 29//102
f 35//2 120//2 29//2
f 6//103 121//103 120//103
f 120//2 8//2 6//2
f 121//104 6//104 2//104
f 2//2 3//2 121//2
f 35//2 89//2 106//2
f 103//105 89//105 88//105
f 103//106 88//106 90//106
f 86//60 100//60 82//60
f 92//107 122//107 95//107
f 95//2 75//2 77//2
f 75//108 95//108 122//108
f 72//2 122//2 69//2
f 122//109 72//109 75//109
f 122//2 92//2 69//2
f 123//63 86//63 124//63
f 123//63 39//63 86//63
f 35//63 124//63 86//63
f 124//2 35//2 126//2
f 124//110 127//110 125//110
f 124//111 125//111 123//111
f 127//112 124//112 126//112
f 128//113 127//113 130//113
f 128//114 125//114 127//114
f 127//115 129//115 134//115
f 126//64 129//64 127//64
f 127//116 135//116 130//116
f 127//117 131//117 135//117
f 131//118 127//118 132//118
f 132//119 127//119 133//119
f 134//120 133//120 127//120
f 135//121 131//121 136//121
f 136//121 137//121 135//121
f 130//122 135//122 137//122
f 126//2 137//2 136//2
f 137//123 138//123 130//123
f 126//2 138//2 137//2
f 35//2 138//2 126//2
f 35//2 139//2 138//2
f 140//124 130//124 138//124
f 138//125 139//125 140//125
f 128//126 130//126 140//126
f 140//127 141//127 128//127
f 141//128 140//128 139//128
f 128//129 141//129 142//129
f 142//130 141//130 143//130
f 139//128 143//128 141//128
f 139//2 35//2 143//2
f 35//2 144//2 143//2
f 143//130 144//130 142//130
f 145//2 144//2 35//2
f 144//2 145//2 146//2
f 146//2 147//2 144//2
f 148//131 142//131 144//131
f 144//131 147//131 148//131
f 149//60 148//60 151//60
f 148//60 149//60 150//60
f 150//60 142//60 148//60
f 151//132 148//132 147//132
f 151//60 152//60 149//60
f 151//133 153//133 152//133
f 151//134 154//134 153//134
f 147//132 155//132 151//132
f 154//135 151//135 155//135
f 155//2 156//2 157//2
f 156//2 155//2 147//2
f 155//2 157//2 158//2
f 155//135 158//135 154//135
f 158//2 157//2 160//2
f 159//136 154//136 158//136
f 158//137 160//137 159//137
f 157//2 162//2 160//2
f 161//138 159//138 160//138
f 160//139 162//139 161//139
f 157//2 163//2 162//2
f 165//2 162//2 163//2
f 164//140 161//140 162//140
f 162//140 165//140 164//140
f 167//2 165//2 163//2
f 166//141 164//141 165//141
f 165//141 167//141 166//141
f 168//2 167//2 163//2
f 134//142 166//142 167//142
f 167//143 168//143 134//143
f 133//144 134//144 168//144
f 168//145 169//145 133//145
f 168//2 163//2 169//2
f 132//146 133//146 169//146
f 169//146 170//146 132//146
f 126//2 170//2 169//2
f 169//2 163//2 126//2
f 131//147 132//147 170//147
f 170//148 136//148 131//148
f 136//2 170//2 126//2
f 134//149 129//149 166//149
f 166//150 129//150 164//150
f 164//151 129//151 161//151
f 153//114 163//114 157//114
f 163//114 153//114 129//114
f 129//64 126//64 163//64
f 153//152 159//152 161//152
f 153//153 161//153 129//153
f 154//154 159//154 153//154
f 156//2 171//2 157//2
f 171//2 173//2 157//2
f 172//2 36//2 157//2
f 36//114 153//114 157//114
f 173//2 172//2 157//2
f 172//140 173//140 174//140
f 175//141 174//141 173//141
f 173//141 171//141 175//141
f 152//155 153//155 175//155
f 175//156 153//156 174//156
f 152//157 175//157 171//157
f 174//158 153//158 176//158
f 174//140 176//140 172//140
f 176//153 153//153 177//153
f 179//159 176//159 177//159
f 176//138 179//138 178//138
f 178//139 172//139 176//139
f 180//160 179//160 177//160
f 179//136 180//136 181//136
f 181//137 178//137 179//137
f 30//2 36//2 181//2
f 181//2 36//2 178//2
f 30//135 181//135 180//135
f 182//161 180//161 177//161
f 180//135 182//135 30//135
f 182//162 38//162 183//162
f 38//163 182//163 177//163
f 182//132 183//132 31//132
f 31//132 30//132 182//132
f 184//164 183//164 38//164
f 32//131 31//131 183//131
f 183//131 184//131 32//131
f 185//165 184//165 38//165
f 184//130 185//130 33//130
f 33//130 32//130 184//130
f 186//166 185//166 38//166
f 34//128 33//128 185//128
f 185//128 186//128 34//128
f 38//167 187//167 186//167
f 186//124 187//124 37//124
f 37//125 34//125 186//125
f 38//113 128//113 187//113
f 128//168 188//168 187//168
f 187//122 188//122 189//122
f 189//123 37//123 187//123
f 35//2 189//2 190//2
f 35//2 37//2 189//2
f 190//121 189//121 188//121
f 145//2 35//2 190//2
f 188//121 191//121 190//121
f 145//147 190//147 191//147
f 150//169 191//169 128//169
f 128//170 191//170 188//170
f 191//147 150//147 145//147
f 178//2 36//2 172//2
f 36//22 38//22 177//22
f 153//114 36//114 177//114
f 171//171 156//171 152//171
f 147//2 146//2 156//2
f 149//144 152//144 156//144
f 156//145 146//145 149//145
f 150//172 128//172 142//172
f 146//146 145//146 150//146
f 150//146 149//146 146//146
f 125//114 128//114 38//114
f 38//114 192//114 125//114
f 192//173 123//173 125//173
f 38//22 193//22 192//22
f 123//60 192//60 193//60
f 193//22 38//22 39//22
f 39//63 123//63 193//63
f 78//174 60//174 68//174
f 61//175 60//175 78//175
f 68//60 60//60 40//60
f 57//176 63//176 58//176
f 63//2 41//2 58//2
f 53//59 40//59 60//59
f 52//177 53//177 60//177
f 58//2 41//2 46//2
f 39//57 54//57 50//57
f 40//60 54//60 39//60
f 53//178 54//178 40//178
f 39//97 50//97 21//97
f 29//179 194//179 43//179
f 43//180 195//180 42//180
f 195//181 43//181 194//181
f 195//2 3//2 196//2
f 194//21 3//21 195//21
f 196//182 42//182 195//182
f 196//2 3//2 198//2
f 42//183 196//183 197//183
f 198//184 197//184 196//184
f 198//2 3//2 4//2
f 197//185 198//185 199//185
f 4//186 199//186 198//186
f 11//2 197//2 199//2
f 7//2 11//2 199//2
f 199//187 4//187 7//187
f 13//2 42//2 197//2
f 197//2 11//2 13//2
f 194//188 29//188 3//188
f 39//57 21//57 19//57
f 39//189 19//189 17//189
f 14//190 22//190 26//190
f 26//191 13//191 14//191
