# Blender 5.0.1
# www.blender.org
mtllib torso_y_link_visual_55.mtl
o i01.torso.full.058_visual.001
v 0.221987 0.064857 -0.107080
v 0.229438 0.044036 -0.098655
v 0.222000 0.041605 -0.105546
v 0.214884 0.082121 -0.098074
v 0.218768 0.082362 -0.094415
v 0.229414 0.065317 -0.100080
v 0.212294 0.064608 -0.110861
v 0.201811 0.064609 -0.110843
v 0.212268 0.035809 -0.108972
v 0.207437 0.081889 -0.100508
v 0.199274 0.082123 -0.098047
v 0.216847 0.128616 -0.099934
v 0.206560 0.128378 -0.103564
v 0.203268 0.124243 -0.164459
v 0.197001 0.128646 -0.099493
v -0.025205 0.125413 -0.147464
v -0.060301 0.125017 -0.127573
v -0.002396 0.122582 -0.160096
v -0.261852 0.144270 0.141344
v 0.021052 0.124242 -0.162175
v 0.267954 0.144422 0.143457
v -0.106975 0.129408 -0.082790
v -0.021126 0.122189 -0.153829
v -0.037106 0.123165 -0.145088
v 0.020116 0.133367 -0.027665
v 0.192835 0.129235 -0.090530
v -0.050523 0.133368 -0.027665
v -0.050523 0.206773 -0.032493
v -0.050523 0.214065 0.078408
v -0.050523 0.140659 0.083235
v 0.020116 0.140659 0.083235
v 0.020116 0.214065 0.078408
v 0.008934 0.234294 0.068947
v 0.008934 0.228067 -0.025763
v 0.020116 0.206773 -0.032493
v -0.039341 0.228067 -0.025763
v -0.039341 0.234294 0.068947
v 0.195405 0.082365 -0.094374
v 0.195433 0.129753 -0.082655
v 0.193316 0.082680 -0.089579
v 0.193326 0.083021 -0.084392
v 0.184787 0.067180 -0.071755
v 0.195433 0.083336 -0.079603
v 0.180757 0.066577 -0.080913
v 0.180738 0.065925 -0.090833
v 0.180738 0.003378 -0.086720
v 0.180757 -0.001100 -0.076455
v 0.155531 -0.037077 -0.026592
v 0.184774 -0.002138 -0.067209
v 0.155330 0.000596 -0.118743
v 0.120247 -0.022478 -0.115201
v 0.134316 -0.006394 -0.129301
v 0.115306 -0.058474 -0.026514
v 0.084375 -0.042057 -0.111544
v 0.088292 -0.031542 -0.127465
v 0.102315 -0.018697 -0.132878
v 0.064271 -0.036593 -0.129876
v 0.057016 -0.047950 -0.121843
v -0.000396 -0.084332 -0.089496
v 0.033809 -0.053958 -0.121820
v -0.014126 -0.082550 -0.100180
v -0.078038 -0.125724 -0.061598
v -0.076577 -0.132447 -0.053457
v -0.028848 -0.085470 -0.097371
v 0.012662 -0.059590 -0.118377
v -0.015246 0.016656 -0.147099
v 0.043725 -0.041303 -0.128619
v 0.008694 0.014745 -0.150035
v 0.012101 0.041658 -0.158966
v 0.039216 0.049743 -0.163061
v 0.049245 0.030407 -0.156763
v 0.112576 0.041448 -0.155991
v 0.112071 0.067530 -0.166943
v 0.182704 0.086587 -0.168447
v 0.116839 0.120388 -0.170452
v 0.044943 0.116383 -0.168295
v 0.044580 0.122481 -0.167227
v 0.013217 0.121296 -0.164357
v -0.009884 0.116548 -0.158548
v -0.009633 0.035105 -0.153114
v -0.024365 0.026707 -0.146425
v -0.038395 0.016979 -0.137968
v -0.058974 0.116980 -0.129629
v -0.036995 0.002743 -0.134950
v -0.060408 -0.001893 -0.120362
v -0.100226 0.126709 -0.092119
v -0.108527 -0.041798 -0.074482
v -0.057942 -0.012413 -0.119487
v -0.105774 -0.059300 -0.073200
v -0.083936 -0.069061 -0.082373
v -0.090337 -0.127395 -0.056674
v -0.113547 -0.149534 -0.039147
v -0.116898 -0.147014 -0.037637
v -0.139661 -0.072613 -0.048025
v -0.121476 -0.134010 -0.036063
v -0.114435 -0.149282 -0.032864
v -0.112785 -0.153461 -0.035213
v -0.108878 -0.152326 -0.038382
v -0.106464 -0.156126 -0.033017
v -0.102977 -0.156771 -0.024955
v 0.015383 -0.153990 0.097101
v -0.093282 -0.156616 -0.021277
v 0.066019 -0.150967 0.153969
v 0.071394 -0.144904 0.162461
v 0.074899 -0.149035 0.162685
v 0.081490 -0.148127 0.162778
v -0.031457 -0.143196 0.054688
v 0.074424 -0.148344 0.149637
v 0.095726 -0.142472 0.162543
v 0.132114 -0.124130 0.160748
v 0.069276 -0.096742 0.017404
v 0.067329 -0.076339 -0.036859
v -0.060272 -0.132215 -0.040443
v 0.144762 -0.071182 0.045228
v 0.194108 -0.088886 0.158079
v 0.190188 -0.031247 0.010691
v 0.228387 0.000599 -0.002663
v 0.192270 0.000019 -0.060259
v 0.235048 -0.049611 0.121662
v 0.285830 -0.027802 0.154183
v 0.241435 -0.059160 0.157400
v 0.269397 -0.038545 0.157888
v 0.191250 -0.088996 0.161220
v 0.310409 -0.007374 0.156078
v 0.116643 -0.130512 0.164008
v 0.083725 -0.145338 0.164954
v 0.076019 -0.142314 0.165014
v 0.070980 -0.130847 0.163915
v 0.064668 -0.078961 0.160717
v 0.051548 -0.080050 0.150883
v -0.109905 -0.137710 -0.023944
v 0.062064 -0.075344 0.160268
v 0.054349 -0.076040 0.158578
v 0.047512 -0.073649 0.160501
v -0.279300 0.134248 0.146816
v 0.031747 -0.079786 0.159125
v -0.004458 -0.087153 0.161086
v -0.072455 -0.107581 0.162217
v -0.057315 -0.104837 0.159670
v -0.006752 -0.089967 0.159105
v 0.024511 -0.083435 0.152295
v -0.025535 -0.096716 0.148637
v -0.057561 -0.110631 0.066570
v -0.110443 -0.121892 0.075713
v -0.156980 -0.135544 0.008397
v -0.132083 -0.132461 -0.001182
v -0.162439 -0.136128 0.029400
v -0.083336 -0.113788 0.159624
v -0.096454 -0.120035 0.151970
v -0.091722 -0.117790 0.161102
v -0.090876 -0.115000 0.162960
v -0.095595 -0.120794 0.163546
v -0.095625 -0.123699 0.161503
v -0.102128 -0.186449 0.165507
v -0.101611 -0.175410 0.167166
v -0.105801 -0.195335 0.166695
v -0.108014 -0.192110 0.168217
v -0.127070 -0.201863 0.168783
v -0.136435 -0.206256 0.166194
v -0.192168 -0.213304 0.167786
v -0.110611 -0.199422 0.166288
v -0.322958 -0.223738 0.170258
v -0.318396 -0.226553 0.167120
v -0.397245 -0.224952 0.170453
v -0.395013 -0.228536 0.165048
v -0.438326 -0.232611 0.062886
v -0.401255 -0.234294 0.060105
v -0.416611 -0.226710 0.164727
v -0.426424 -0.223092 0.165267
v -0.429031 -0.224890 0.144559
v -0.424547 -0.221317 0.170261
v -0.428256 -0.203586 0.169042
v -0.427308 -0.218049 0.166942
v -0.429882 -0.203342 0.165536
v -0.429794 -0.218589 0.165635
v -0.429740 -0.191425 0.164295
v -0.436145 -0.211159 0.146885
v -0.443426 -0.218375 0.118848
v -0.441074 -0.223542 0.115129
v -0.460640 -0.223636 0.062708
v -0.453751 -0.228365 0.062719
v -0.449956 -0.226746 0.059025
v -0.460895 -0.222040 0.060245
v -0.464355 -0.209707 0.059508
v -0.464599 -0.216628 0.061207
v -0.465751 -0.207383 0.061126
v -0.463656 -0.197501 0.059906
v -0.461873 -0.184571 0.062040
v -0.446660 -0.197654 0.114347
v -0.440086 -0.188856 0.127060
v -0.442997 -0.169884 0.098388
v -0.443037 -0.129607 0.061826
v -0.395042 0.010493 0.045036
v -0.407207 -0.128140 0.141165
v -0.403372 -0.083504 0.107019
v -0.358061 0.004255 0.122424
v -0.370392 0.077210 0.036866
v -0.326823 0.041494 0.152761
v -0.324601 0.081783 0.118268
v -0.305422 0.114932 0.121683
v -0.293604 0.113633 0.147913
v -0.355601 0.112667 0.032134
v -0.346047 0.129769 0.028661
v -0.372034 0.072173 0.031962
v -0.356006 0.110863 0.027360
v -0.347257 0.126332 0.024178
v -0.338069 0.135192 0.022253
v -0.308053 0.134539 0.013561
v -0.338694 -0.002439 0.028316
v -0.395927 -0.205575 0.050840
v -0.341599 0.134559 0.026321
v -0.270169 0.140855 0.146359
v -0.337066 0.136687 0.025344
v -0.214546 0.133970 -0.015122
v -0.214224 0.132040 -0.018369
v -0.135003 0.130738 -0.062811
v -0.131202 0.127982 -0.068275
v -0.136764 -0.054038 -0.053062
v -0.212236 -0.071496 -0.006151
v -0.198641 -0.160350 0.011127
v -0.246776 -0.171357 0.028358
v -0.194368 -0.152679 0.009684
v -0.269517 -0.085863 0.014879
v -0.204676 -0.097449 -0.001578
v -0.293527 0.121666 0.008888
v -0.307888 -0.110180 0.027239
v -0.356145 -0.160348 0.041214
v -0.309465 -0.151087 0.035404
v -0.348064 -0.177219 0.044010
v -0.372783 -0.210005 0.052297
v -0.327757 -0.202839 0.049234
v -0.383838 -0.229960 0.058391
v -0.386038 -0.232405 0.061741
v -0.309641 -0.200768 0.052920
v -0.280602 -0.179249 0.037397
v -0.282234 -0.185321 0.040752
v -0.250808 -0.178021 0.033953
v -0.271181 -0.187566 0.045528
v -0.275191 -0.201050 0.076971
v -0.230164 -0.203531 0.109620
v -0.243542 -0.181329 0.041035
v -0.196880 -0.166387 0.014330
v -0.194832 -0.172197 0.023623
v -0.168732 -0.193703 0.108452
v -0.111825 -0.199665 0.160970
v -0.189022 -0.170050 0.025270
v -0.110860 -0.194924 0.155990
v -0.191103 -0.159586 0.015505
v -0.181199 -0.143684 0.024397
v -0.189991 -0.143664 0.010745
v -0.180393 -0.140314 0.014561
v -0.186399 -0.139656 0.007470
v -0.192843 -0.139466 0.007356
v -0.186908 -0.135659 0.003832
v -0.142961 -0.130599 -0.022918
v -0.172892 -0.134840 -0.003230
v -0.169751 -0.137031 0.000618
v -0.152127 -0.133567 -0.014472
v -0.126946 -0.133772 -0.027877
v -0.149097 -0.134802 -0.011023
v -0.112246 -0.132314 -0.014099
v -0.112165 -0.135106 -0.022503
v 0.044018 -0.080045 0.150885
v -0.120747 -0.135313 -0.031803
v -0.118282 -0.137694 -0.032869
v -0.124357 -0.131737 -0.034034
v -0.262712 -0.216305 0.136841
v -0.298392 -0.215744 0.106299
v -0.343603 -0.224234 0.094784
v -0.317635 -0.224426 0.132854
v -0.331618 -0.214988 0.070744
v -0.293078 -0.223652 0.154573
v -0.362334 -0.230054 0.104498
v -0.411842 -0.227156 0.055677
v -0.262441 0.142951 0.146271
v 0.463561 0.144590 0.146120
v 0.465751 0.133102 0.146443
v 0.465097 0.144314 0.142739
v 0.278244 0.128573 -0.100006
v 0.462717 0.132414 0.137485
v 0.377784 0.133843 -0.004276
v 0.422335 0.137701 0.061837
v 0.422954 0.123594 0.063396
v 0.449496 0.118476 0.136668
v 0.380890 0.082899 0.066893
v 0.392948 0.133393 0.014530
v 0.393673 0.120812 0.016223
v 0.388520 0.114275 0.014857
v 0.322443 0.067287 -0.006544
v 0.327375 0.091102 -0.044762
v 0.365390 0.113759 -0.022560
v 0.289016 0.101668 -0.120906
v 0.359702 0.117974 -0.033544
v 0.288611 0.112583 -0.127938
v 0.362509 0.129667 -0.030113
v 0.283773 0.121819 -0.133786
v 0.301461 0.126224 -0.105228
v 0.258473 0.123973 -0.151543
v 0.267654 0.121021 -0.150311
v 0.270109 0.115891 -0.148655
v 0.273418 0.108154 -0.143007
v 0.214578 0.092681 -0.163301
v 0.233658 0.117870 -0.162517
v 0.204352 0.121180 -0.169696
v 0.224075 0.122889 -0.164216
v 0.205616 0.097984 -0.168122
v 0.193655 0.084862 -0.165658
v 0.175732 0.061224 -0.154478
v 0.207277 0.065263 -0.147097
v 0.143672 0.028470 -0.145030
v 0.159139 0.015721 -0.135648
v 0.243906 0.077814 -0.140620
v 0.194911 0.038030 -0.135576
v 0.250417 0.075590 -0.132603
v 0.269238 0.097277 -0.139502
v 0.248307 0.048536 -0.080228
v 0.287936 0.050211 -0.026598
v 0.199715 0.035780 -0.128080
v 0.201784 0.027874 -0.108423
v 0.192132 0.019195 -0.104028
v 0.192132 0.064860 -0.107030
v 0.184733 0.065322 -0.100002
v 0.184733 0.010309 -0.096385
v 0.273174 0.008433 0.052406
v 0.323559 0.050296 0.032760
v 0.222056 0.021854 -0.061785
v 0.229468 0.030879 -0.069445
v 0.212390 0.067887 -0.060993
v 0.222068 0.067636 -0.064806
v 0.212451 0.013159 -0.057401
v 0.201906 0.067888 -0.060974
v 0.201906 0.005296 -0.056858
v 0.192213 0.067640 -0.064754
v 0.199316 0.083577 -0.075943
v 0.207122 0.083774 -0.073595
v 0.202103 0.130098 -0.077400
v 0.212604 0.130080 -0.077682
v 0.214927 0.083575 -0.075969
v 0.218796 0.129750 -0.082695
v 0.221364 0.129232 -0.090579
v 0.220884 0.083018 -0.084439
v 0.218796 0.083333 -0.079643
v 0.229468 0.067174 -0.071833
v 0.233462 0.066571 -0.081003
v 0.233462 0.038264 -0.079141
v 0.233443 0.043034 -0.089417
v 0.233443 0.065919 -0.090923
v 0.220875 0.082677 -0.089626
v 0.314158 0.023244 0.089307
v 0.367581 0.052172 0.122080
v 0.373895 0.045653 0.151714
v 0.329293 0.006746 0.151865
v 0.129053 0.123163 -0.168239
v -0.411793 -0.159631 0.166129
v -0.427515 -0.188946 0.168090
vn -0.6867 0.0478 0.7253
vn -0.6872 0.0475 0.7250
vn -0.3640 0.0611 0.9294
vn -0.2952 -0.5345 0.7919
vn -0.5531 -0.5527 0.6233
vn -0.5533 -0.5527 0.6232
vn 0.0017 0.0655 0.9979
vn 0.0014 -0.5136 0.8580
vn -0.3637 0.0613 0.9295
vn -0.2443 -0.5480 0.8000
vn 0.2258 -0.5531 0.8019
vn -0.3117 0.0511 0.9488
vn 0.2897 0.0682 0.9547
vn -0.3334 0.0556 0.9411
vn 0.0008 0.9977 -0.0678
vn 0.3925 0.0477 0.9185
vn 0.0001 0.9977 -0.0678
vn -0.0002 0.9978 -0.0662
vn -0.2489 0.8719 -0.4217
vn -0.1558 0.9540 -0.2560
vn -0.1982 0.8173 -0.5411
vn -0.0991 0.9177 -0.3846
vn -0.0079 0.9974 -0.0716
vn -0.0018 0.9978 -0.0666
vn -0.0010 0.9966 -0.0826
vn 0.0017 0.9978 -0.0669
vn -0.0006 0.9979 -0.0646
vn -0.2606 0.7836 -0.5640
vn -0.0000 0.9978 -0.0663
vn -0.0003 0.9978 -0.0658
vn -0.0010 0.9978 -0.0656
vn -0.0000 -0.0656 -0.9978
vn -1.0000 -0.0000 -0.0000
vn -0.0000 0.0656 0.9978
vn -0.0000 0.9981 -0.0620
vn 0.8808 0.4724 -0.0311
vn -0.0000 0.4237 0.9058
vn 1.0000 -0.0000 -0.0000
vn -0.0000 0.3014 -0.9535
vn -0.0000 0.9978 -0.0656
vn -0.8808 0.4724 -0.0311
vn -0.0000 0.9981 -0.0622
vn 0.0008 0.9978 -0.0656
vn 0.9071 0.0152 0.4207
vn 0.9171 0.0176 0.3983
vn 0.9498 -0.0313 -0.3113
vn -0.0953 0.9949 -0.0340
vn 0.9999 0.0103 -0.0026
vn 0.7327 -0.6196 -0.2816
vn 0.7327 -0.6196 -0.2817
vn 0.9156 -0.0264 -0.4011
vn 0.7978 -0.6017 0.0380
vn 0.9156 -0.0264 -0.4012
vn 1.0000 -0.0001 -0.0019
vn 0.5180 -0.7837 -0.3429
vn 0.9158 -0.0265 -0.4008
vn 0.5163 -0.7969 -0.3137
vn 0.4951 -0.8039 -0.3296
vn 0.4952 -0.8036 -0.3300
vn 0.4452 -0.8381 -0.3153
vn 0.4691 -0.7775 -0.4189
vn 0.4053 -0.7769 -0.4819
vn 0.4288 -0.8452 -0.3191
vn 0.3965 -0.8079 -0.4360
vn 0.3256 -0.6463 -0.6901
vn 0.1980 -0.5563 -0.8071
vn 0.2100 -0.6504 -0.7300
vn 0.3480 -0.8194 -0.4556
vn 0.3302 -0.8624 -0.3838
vn 0.2625 -0.8386 -0.4772
vn 0.1643 -0.6374 -0.7528
vn 0.2023 -0.7837 -0.5873
vn -0.0145 -0.6542 -0.7561
vn 0.1205 -0.7547 -0.6449
vn 0.2817 -0.8197 -0.4988
vn -0.0351 -0.5953 -0.8028
vn 0.0526 -0.6572 -0.7519
vn -0.1428 -0.3943 -0.9078
vn -0.1968 -0.4079 -0.8916
vn -0.0222 -0.4596 -0.8879
vn -0.0702 -0.3940 -0.9164
vn -0.0138 -0.3644 -0.9311
vn -0.0514 -0.3087 -0.9498
vn -0.1395 -0.2959 -0.9450
vn -0.0316 -0.3243 -0.9454
vn 0.0783 -0.3847 -0.9197
vn 0.0736 -0.3572 -0.9311
vn 0.0222 -0.2992 -0.9539
vn 0.0273 -0.3670 -0.9298
vn -0.0035 -0.0659 -0.9978
vn 0.0841 -0.3844 -0.9193
vn -0.0264 -0.0639 -0.9976
vn -0.0347 -0.0753 -0.9966
vn -0.0390 0.1702 -0.9846
vn -0.1330 -0.0662 -0.9889
vn -0.0961 0.1662 -0.9814
vn -0.2313 -0.0625 -0.9709
vn -0.2571 0.0719 -0.9637
vn -0.0893 0.7351 -0.6721
vn -0.1105 0.7642 -0.6354
vn -0.1300 -0.0652 -0.9894
vn -0.3165 0.1526 -0.9362
vn -0.4126 -0.0619 -0.9088
vn -0.2410 -0.0654 -0.9683
vn -0.3850 -0.0584 -0.9211
vn -0.3017 -0.2113 -0.9297
vn -0.1788 -0.2554 -0.9502
vn -0.4886 -0.0525 -0.8709
vn -0.3571 -0.2639 -0.8960
vn -0.4817 -0.0515 -0.8748
vn -0.5942 -0.0554 -0.8024
vn -0.5674 -0.0482 -0.8220
vn -0.3601 -0.2272 -0.9048
vn -0.4823 -0.2268 -0.8461
vn -0.6698 -0.0446 -0.7412
vn -0.6782 -0.0490 -0.7332
vn -0.5828 -0.2022 -0.7871
vn -0.4927 -0.1863 -0.8500
vn -0.3435 -0.3947 -0.8522
vn -0.3136 -0.3873 -0.8670
vn -0.4272 -0.3501 -0.8336
vn -0.4834 -0.3136 -0.8173
vn -0.6060 -0.1525 -0.7807
vn -0.3053 -0.3556 -0.8833
vn -0.4822 -0.3083 -0.8200
vn -0.4991 -0.1521 -0.8531
vn -0.2989 -0.3797 -0.8755
vn -0.3988 -0.3007 -0.8663
vn -0.9363 -0.3096 -0.1657
vn -0.5041 -0.2688 -0.8207
vn -0.8901 -0.3489 0.2934
vn -0.8577 -0.4636 0.2223
vn -0.6565 -0.5937 -0.4654
vn -0.3147 -0.7016 -0.6393
vn -0.1745 -0.8389 -0.5156
vn -0.4179 -0.9020 0.1085
vn -0.6876 -0.5426 0.4824
vn 0.0551 -0.9931 -0.1033
vn -0.3356 -0.8764 0.3454
vn 0.0116 -0.9999 0.0115
vn -0.6759 -0.3480 0.6497
vn -0.6915 -0.3045 0.6551
vn -0.5739 -0.4498 0.6844
vn 0.2241 -0.9632 -0.1484
vn 0.1350 -0.9875 0.0814
vn 0.2419 -0.9636 -0.1141
vn -0.7103 -0.1638 0.6846
vn 0.3606 -0.9154 -0.1788
vn 0.4177 -0.8579 -0.2991
vn 0.4190 -0.8402 -0.3442
vn 0.3633 -0.8771 -0.3141
vn 0.3958 -0.8502 -0.3472
vn 0.3915 -0.8566 -0.3361
vn 0.3658 -0.8668 -0.3390
vn 0.4073 -0.8558 -0.3188
vn 0.3905 -0.8501 -0.3532
vn 0.3979 -0.8357 -0.3786
vn 0.4120 -0.8446 -0.3420
vn 0.4429 -0.8338 -0.3295
vn 0.4559 -0.8269 -0.3291
vn 0.4671 -0.8192 -0.3328
vn 0.4787 -0.8187 -0.3170
vn 0.5348 -0.7789 -0.3276
vn 0.5283 -0.7771 -0.3421
vn 0.4975 -0.7991 -0.3375
vn 0.4841 -0.8105 -0.3298
vn 0.5460 -0.7663 -0.3387
vn 0.5344 -0.7879 -0.3060
vn 0.5033 -0.8082 -0.3059
vn 0.5688 -0.7779 0.2671
vn 0.3631 -0.5109 0.7792
vn 0.4877 -0.7669 0.4172
vn 0.0341 0.0132 0.9993
vn 0.0124 0.0448 0.9989
vn 0.4119 -0.7011 0.5821
vn 0.4664 -0.7904 0.3971
vn 0.0111 0.0468 0.9988
vn 0.4200 -0.7893 0.4478
vn 0.2931 -0.6034 0.7416
vn 0.0175 0.0248 0.9995
vn -0.3553 -0.2526 0.9000
vn -0.4347 -0.1053 0.8944
vn -0.0008 0.0675 0.9977
vn -0.1070 0.0482 0.9931
vn -0.1137 -0.3083 0.9445
vn -0.7260 -0.0460 0.6861
vn -0.0142 0.1132 0.9935
vn -0.7080 -0.0954 0.6997
vn -0.5552 -0.3035 0.7743
vn -0.3810 -0.7140 0.5874
vn -0.0767 -0.7489 0.6582
vn -0.0231 -0.8831 0.4686
vn 0.0163 0.0021 0.9999
vn 0.0002 0.0659 0.9978
vn 0.0952 -0.4444 0.8908
vn -0.0042 0.0592 0.9982
vn 0.1641 -0.5976 0.7848
vn -0.0020 0.0619 0.9981
vn 0.2393 -0.7633 0.6001
vn 0.2049 -0.6697 0.7138
vn 0.1735 -0.6576 0.7331
vn 0.2482 -0.9389 0.2387
vn 0.2394 -0.9531 0.1849
vn 0.2816 -0.9533 0.1094
vn 0.2515 -0.9656 0.0656
vn 0.2206 -0.9722 0.0787
vn 0.2581 -0.9656 0.0328
vn 0.1568 -0.9834 0.0910
vn 0.2354 -0.9713 0.0342
vn 0.2196 -0.9729 0.0719
vn 0.2549 -0.9669 0.0110
vn 0.3253 -0.9455 -0.0138
vn 0.2400 -0.7011 0.6714
vn 0.3436 -0.8046 0.4844
vn 0.4972 -0.8535 -0.1556
vn 0.4305 -0.9026 -0.0011
vn 0.4043 -0.5887 0.7000
vn 0.7067 -0.5280 0.4710
vn 0.0109 0.0728 0.9973
vn 0.0230 0.0819 0.9964
vn 0.9882 -0.0947 0.1204
vn 0.6942 -0.4188 0.5854
vn 0.9561 -0.0868 0.2798
vn 0.0008 0.0660 0.9978
vn 0.4444 -0.1144 0.8885
vn 0.6058 -0.1459 0.7822
vn -0.0029 0.0639 0.9980
vn 0.1871 -0.3114 0.9317
vn -0.0030 0.0639 0.9980
vn 0.2051 -0.7833 0.5869
vn 0.1049 -0.6613 0.7427
vn 0.1876 -0.3133 0.9309
vn 0.0446 -0.3355 0.9410
vn 0.0002 0.0653 0.9979
vn 0.0012 -0.7435 0.6688
vn 0.0687 -0.6908 0.7198
vn 0.0150 -0.8305 0.5568
vn 0.0016 0.0652 0.9979
vn -0.0852 -0.9935 0.0757
vn -0.0410 -0.9975 0.0572
vn 0.0244 -0.9983 0.0533
vn -0.0794 -0.8456 0.5279
vn -0.3373 -0.9333 0.1235
vn -0.2943 -0.8603 0.4163
vn -0.3426 -0.9309 0.1270
vn -0.1089 -0.7855 0.6093
vn -0.8228 -0.1341 0.5523
vn 0.0022 0.0691 0.9976
vn -0.8567 -0.2915 0.4255
vn -0.4658 0.0031 0.8849
vn -0.9039 -0.1189 0.4110
vn -0.3749 -0.3507 0.8582
vn -0.9839 -0.0069 -0.1786
vn -0.9448 0.0180 0.3271
vn -0.7855 -0.6002 0.1510
vn -0.5986 -0.7732 0.2095
vn -0.9538 -0.1152 0.2774
vn -0.8104 -0.5372 0.2337
vn -0.5538 -0.8062 0.2081
vn -0.7748 -0.5617 0.2902
vn -0.6203 -0.7530 0.2193
vn -0.3583 -0.6622 -0.6581
vn -0.2129 -0.7956 -0.5672
vn -0.2647 -0.9568 0.1206
vn -0.5106 -0.7448 -0.4296
vn -0.1534 -0.1017 -0.9829
vn -0.8192 -0.5163 -0.2496
vn -0.4976 -0.1901 -0.8463
vn -0.8885 -0.3323 0.3163
vn -0.8563 -0.4191 0.3018
vn -0.9406 -0.1144 0.3197
vn -0.8237 -0.1075 -0.5567
vn -0.9541 0.1720 -0.2450
vn -0.7085 0.0634 -0.7029
vn -0.9430 0.0561 0.3280
vn -0.9393 0.1473 0.3100
vn -0.9478 0.0273 0.3177
vn -0.9178 0.2818 0.2796
vn -0.9172 0.2884 0.2747
vn -0.8805 0.3181 0.3514
vn -0.8907 0.3066 0.3357
vn -0.9460 0.3242 0.0011
vn -0.8510 0.3395 0.4005
vn -0.8578 0.3450 0.3810
vn -0.8519 0.3624 0.3780
vn -0.8321 0.3548 0.4262
vn -0.8453 0.3685 0.3868
vn -0.8305 0.3590 0.4258
vn -0.8165 0.3759 0.4382
vn -0.8366 0.3821 0.3924
vn -0.8353 0.3679 0.4085
vn -0.7976 0.4165 0.4364
vn -0.8144 0.4312 0.3883
vn -0.8141 0.4030 0.4182
vn -0.8098 0.3956 0.4333
vn -0.9238 0.3752 -0.0760
vn -0.8771 0.4691 -0.1029
vn -0.7586 0.5069 0.4093
vn -0.7644 0.4926 0.4159
vn -0.9246 0.3755 -0.0635
vn -0.8744 0.4691 -0.1236
vn -0.4949 0.1024 -0.8629
vn -0.6586 0.5784 -0.4814
vn -0.2757 0.0778 -0.9581
vn -0.2517 -0.0478 -0.9666
vn -0.1996 -0.0493 -0.9786
vn -0.2203 -0.0460 -0.9743
vn -0.7673 0.5920 -0.2467
vn -0.5520 0.7828 0.2874
vn -0.6121 0.7239 0.3183
vn -0.3854 0.9046 0.1819
vn -0.4558 0.8503 -0.2631
vn -0.1658 0.8140 -0.5567
vn 0.0005 0.9978 -0.0655
vn -0.0982 0.9080 -0.4072
vn -0.3050 0.9426 0.1361
vn -0.2736 0.8146 -0.5115
vn -0.1532 0.8426 -0.5163
vn 0.0014 0.9979 -0.0653
vn -0.3218 0.7363 -0.5952
vn 0.0004 0.9978 -0.0659
vn -0.4120 0.6656 -0.6223
vn -0.3334 0.8135 -0.4765
vn -0.6105 -0.0526 -0.7903
vn -0.5164 -0.0563 -0.8545
vn -0.5900 -0.0493 -0.8059
vn -0.5178 -0.0555 -0.8537
vn 0.0088 -0.1896 -0.9818
vn -0.2825 -0.2246 -0.9326
vn -0.2862 -0.2230 -0.9319
vn -0.2487 -0.2379 -0.9389
vn -0.3294 -0.0653 -0.9419
vn -0.4955 -0.1545 -0.8547
vn -0.3174 -0.0599 -0.9464
vn -0.4821 -0.2863 -0.8280
vn -0.3226 -0.0205 -0.9463
vn -0.3287 -0.0282 -0.9440
vn -0.2478 -0.0612 -0.9669
vn -0.2719 -0.0592 -0.9605
vn -0.0765 -0.1986 -0.9771
vn -0.2250 -0.0546 -0.9728
vn -0.1932 -0.1849 -0.9636
vn -0.0881 -0.1917 -0.9775
vn -0.0536 -0.2401 -0.9693
vn 0.0123 -0.2537 -0.9672
vn -0.0308 -0.2231 -0.9743
vn -0.0341 -0.1793 -0.9832
vn -0.0204 -0.2817 -0.9593
vn 0.3475 -0.8513 -0.3930
vn -0.1380 -0.2099 -0.9679
vn 0.2173 -0.7112 -0.6685
vn 0.2055 -0.8040 -0.5580
vn 0.0256 -0.4887 -0.8721
vn 0.0721 -0.8281 -0.5560
vn -0.0192 -0.6360 -0.7715
vn -0.1302 -0.4525 -0.8822
vn 0.1306 -0.7461 -0.6529
vn 0.2126 -0.9076 -0.3621
vn 0.2414 -0.9026 -0.3563
vn 0.1560 -0.9304 -0.3316
vn 0.1094 -0.8528 -0.5106
vn 0.1430 -0.9331 -0.3300
vn 0.0298 -0.8936 -0.4479
vn -0.0283 -0.8504 -0.5254
vn 0.0837 -0.9595 -0.2690
vn 0.1460 -0.9466 -0.2874
vn 0.1699 -0.9415 -0.2910
vn 0.1850 -0.9337 -0.3065
vn 0.4163 -0.8097 -0.4136
vn 0.6070 -0.6310 -0.4830
vn 0.7490 -0.5464 -0.3749
vn 0.6489 -0.7524 -0.1138
vn 0.2559 -0.9666 -0.0142
vn 0.8123 -0.2402 -0.5314
vn 0.8247 -0.3950 -0.4049
vn 0.4221 -0.7240 -0.5456
vn 0.7834 -0.3336 -0.5244
vn 0.6498 -0.4455 -0.6159
vn 0.8208 -0.2155 -0.5289
vn 0.8374 -0.2496 -0.4863
vn 0.8441 -0.1208 -0.5223
vn 0.6851 -0.2521 -0.6834
vn 0.5694 -0.3556 -0.7412
vn 0.6087 -0.2053 -0.7664
vn 0.4100 -0.8727 -0.2653
vn 0.4487 -0.7712 -0.4517
vn -0.0048 -0.6302 -0.7765
vn -0.3460 -0.2874 -0.8932
vn 0.0899 -0.1829 -0.9790
vn -0.0067 -0.6736 -0.7391
vn -0.1852 -0.8643 -0.4677
vn -0.4624 -0.3315 -0.8224
vn -0.3061 -0.6618 -0.6843
vn -0.1555 -0.9076 -0.3899
vn -0.0508 -0.8851 -0.4625
vn -0.2491 -0.7969 -0.5504
vn -0.3318 -0.7177 -0.6122
vn -0.1306 -0.9643 -0.2305
vn -0.0600 -0.9553 -0.2894
vn 0.0699 -0.9971 0.0310
vn 0.1282 -0.9916 0.0142
vn 0.0757 -0.9916 0.1049
vn 0.1113 -0.9938 0.0072
vn -0.1958 -0.9312 0.3075
vn 0.1236 -0.9761 0.1786
vn 0.1690 -0.9745 0.1474
vn 0.1793 -0.9740 0.1388
vn -0.0153 -0.9489 0.3151
vn 0.1844 -0.9347 0.3040
vn 0.1637 -0.9478 0.2736
vn -0.0005 -0.9495 0.3137
vn -0.4158 -0.6892 0.5934
vn -0.0004 -0.8867 0.4623
vn -0.4967 -0.7267 0.4745
vn -0.1446 -0.9773 0.1551
vn -0.5132 -0.7112 0.4804
vn -0.7089 -0.2350 0.6650
vn -0.7119 -0.6963 -0.0912
vn -0.8189 -0.2716 0.5056
vn -0.4730 -0.7579 -0.4494
vn -0.6632 -0.7399 -0.1128
vn -0.4684 -0.3164 -0.8249
vn -0.7038 -0.3309 -0.6286
vn -0.4865 -0.4085 -0.7723
vn -0.2978 -0.8620 -0.4102
vn 0.0870 -0.9825 -0.1649
vn 0.1738 -0.9799 -0.0981
vn 0.2063 -0.9781 0.0264
vn 0.2192 -0.9756 0.0101
vn 0.5625 -0.7952 -0.2263
vn 0.6661 -0.6750 -0.3174
vn -0.1973 -0.5038 -0.8410
vn 0.3495 -0.3576 -0.8660
vn 0.1403 -0.9502 -0.2782
vn 0.1823 -0.9558 -0.2305
vn 0.1820 -0.9292 -0.3216
vn 0.2384 -0.9403 -0.2428
vn 0.2204 -0.9630 -0.1552
vn 0.1576 -0.9667 -0.2019
vn 0.2585 -0.9300 -0.2614
vn 0.3354 -0.8933 -0.2992
vn 0.3278 -0.9250 -0.1923
vn 0.2611 -0.8854 -0.3844
vn 0.1606 -0.9853 -0.0576
vn 0.0843 -0.9946 -0.0599
vn 0.2192 -0.9634 -0.1544
vn 0.1548 -0.9780 -0.1402
vn 0.2197 -0.9704 -0.0999
vn 0.2538 -0.9633 -0.0877
vn 0.1248 -0.9921 -0.0146
vn 0.1045 -0.9943 -0.0191
vn 0.1225 -0.9734 -0.1936
vn 0.1200 -0.9818 -0.1473
vn -0.1543 -0.5788 -0.8007
vn -0.1439 -0.2158 -0.9658
vn -0.2075 -0.2060 -0.9563
vn 0.1598 -0.8444 -0.5113
vn 0.0356 -0.4881 -0.8721
vn 0.0594 -0.3215 -0.9450
vn -0.0737 -0.6462 -0.7596
vn -0.0867 -0.6148 -0.7839
vn 0.0171 -0.2306 -0.9729
vn -0.0881 -0.1556 -0.9839
vn -0.1678 -0.0618 -0.9839
vn -0.5559 -0.1357 -0.8201
vn -0.5564 -0.1474 -0.8177
vn -0.0116 0.0849 0.9963
vn -0.2529 0.9417 0.2219
vn -0.0022 0.9949 0.1008
vn 0.0001 0.0624 0.9980
vn -0.0013 0.9660 0.2585
vn 0.9005 0.1828 0.3944
vn 0.0312 0.0341 0.9989
vn -0.0000 0.0654 0.9979
vn 0.0002 0.9967 -0.0811
vn 0.0361 0.9951 -0.0923
vn 0.0003 0.9979 -0.0649
vn 0.9471 -0.0495 -0.3170
vn 0.8789 0.0343 -0.4758
vn 0.1569 0.9741 -0.1626
vn 0.8845 -0.0127 -0.4665
vn 0.7010 -0.6474 -0.2992
vn 0.6539 -0.7005 -0.2858
vn 0.6439 -0.6933 -0.3237
vn 0.8500 -0.0218 -0.5263
vn 0.8501 -0.0209 -0.5262
vn 0.7489 -0.4995 -0.4354
vn 0.6157 -0.7115 -0.3387
vn 0.6153 -0.7022 -0.3582
vn 0.7437 -0.4917 -0.4529
vn 0.6268 -0.6813 -0.3781
vn 0.6315 -0.6584 -0.4095
vn 0.7516 -0.3838 -0.5365
vn 0.7963 -0.2977 -0.5266
vn 0.7973 0.0362 -0.6025
vn 0.7631 -0.3298 -0.5558
vn 0.8263 -0.0335 -0.5622
vn 0.7968 -0.0141 -0.6041
vn 0.4567 0.7921 -0.4050
vn 0.3059 0.8940 -0.3274
vn 0.4204 0.8232 -0.3816
vn 0.3290 0.8718 -0.3630
vn 0.7084 0.1141 -0.6965
vn 0.7427 -0.0344 -0.6688
vn 0.3931 -0.4265 -0.8146
vn 0.7187 -0.1825 -0.6710
vn 0.3459 -0.1342 -0.9286
vn 0.3356 -0.2257 -0.9146
vn 0.3032 0.2695 -0.9140
vn 0.2319 -0.0533 -0.9713
vn 0.2517 0.1573 -0.9549
vn 0.3485 -0.2357 -0.9072
vn 0.0465 -0.0651 -0.9968
vn 0.1817 -0.3389 -0.9231
vn 0.2459 -0.3908 -0.8870
vn 0.2916 -0.5430 -0.7874
vn 0.1477 -0.4696 -0.8704
vn 0.1864 -0.5320 -0.8260
vn 0.2559 -0.5650 -0.7844
vn 0.2576 -0.4920 -0.8316
vn 0.2058 -0.4057 -0.8905
vn 0.3121 -0.4912 -0.8132
vn 0.3233 -0.5438 -0.7745
vn 0.4799 -0.6637 -0.5738
vn 0.2920 -0.4655 -0.8355
vn 0.5091 -0.6288 -0.5878
vn 0.3870 -0.4577 -0.8005
vn 0.3923 -0.4152 -0.8208
vn 0.5876 -0.6592 -0.4693
vn 0.6632 -0.4480 -0.5995
vn 0.5669 -0.7483 -0.3446
vn 0.5655 -0.7485 -0.3463
vn 0.5405 -0.7562 -0.3688
vn 0.5551 -0.7482 -0.3635
vn 0.5341 -0.7597 -0.3709
vn 0.5941 -0.7090 -0.3800
vn 0.4960 -0.6913 -0.5254
vn 0.5508 -0.7527 -0.3607
vn 0.5304 -0.7657 -0.3638
vn 0.4832 -0.7356 -0.4748
vn 0.4709 -0.7152 -0.5165
vn 0.3677 0.0610 0.9279
vn 0.5308 -0.7698 -0.3545
vn 0.0024 0.0657 0.9978
vn 0.3672 0.0609 0.9281
vn 0.2977 -0.5347 0.7909
vn 0.6894 0.0475 0.7228
vn 0.5554 -0.5529 0.6211
vn 0.5553 -0.5529 0.6212
vn 0.9171 0.0262 0.3978
vn 0.7338 -0.5776 0.3576
vn 0.6895 0.0475 0.7228
vn 0.5204 -0.7811 -0.3450
vn 0.5326 -0.7614 -0.3696
vn 0.5186 -0.7854 -0.3379
vn 0.5283 -0.7874 -0.3177
vn 0.5300 -0.7866 -0.3169
vn 0.5255 -0.7688 -0.3643
vn 0.5684 -0.7492 -0.3400
vn 0.5774 -0.7243 -0.3768
vn 0.5712 -0.7233 -0.3881
vn 0.5438 -0.7695 -0.3349
vn 0.4495 -0.7632 -0.4642
vn -0.6893 -0.0475 -0.7229
vn -0.3680 -0.0613 -0.9278
vn -0.3672 -0.0611 -0.9281
vn -0.0018 -0.0655 -0.9979
vn -0.0024 -0.0656 -0.9978
vn 0.5519 -0.7633 -0.3358
vn 0.3620 -0.0615 -0.9302
vn 0.5404 -0.7735 -0.3311
vn 0.3640 -0.0611 -0.9294
vn 0.6867 -0.0477 -0.7253
vn 0.5533 -0.6295 -0.5455
vn 0.5532 -0.6296 -0.5455
vn 0.2952 -0.6336 -0.7151
vn 0.6867 -0.0477 -0.7254
vn 0.2888 -0.0473 -0.9562
vn 0.2337 -0.6507 -0.7224
vn 0.6196 -0.0616 -0.7825
vn -0.0268 -0.0847 -0.9960
vn -0.0000 0.9979 -0.0647
vn -0.0009 0.9979 -0.0644
vn -0.2918 -0.0498 -0.9552
vn -0.6301 -0.0600 -0.7742
vn 0.0010 0.9979 -0.0644
vn 0.0008 0.9979 -0.0649
vn -0.9510 -0.0310 -0.3077
vn 0.0007 0.9979 -0.0654
vn -0.6894 -0.0475 -0.7228
vn -0.9171 -0.0261 -0.3977
vn -0.5554 -0.6294 -0.5434
vn -0.7339 -0.6194 -0.2789
vn -0.5554 -0.6295 -0.5435
vn -0.9171 -0.0262 -0.3977
vn -0.7338 -0.6195 -0.2789
vn -0.6894 -0.0476 -0.7228
vn -0.9171 -0.0262 -0.3978
vn 0.5123 -0.7786 -0.3624
vn 0.5073 -0.7734 -0.3801
vn -1.0000 0.0001 0.0019
vn 0.4890 -0.8187 -0.3008
vn -0.9161 0.0263 0.4000
vn -0.7978 -0.6015 0.0411
vn -0.7326 -0.5774 0.3604
vn -0.9156 0.0258 0.4012
vn -0.9156 0.0178 0.4017
vn -0.7327 -0.5774 0.3604
vn -0.9999 0.0105 0.0012
vn -0.9008 0.0144 0.4340
vn 0.0006 0.9978 -0.0659
vn -0.2977 -0.6335 -0.7141
vn -0.2361 -0.6507 -0.7217
vn -0.0015 -0.6218 -0.7832
vn 0.5435 -0.7888 -0.2870
vn 0.6073 -0.7228 -0.3297
vn 0.5814 -0.7673 -0.2704
vn 0.5943 -0.7550 -0.2771
vn 0.6355 -0.7295 -0.2529
vn 0.6326 -0.7171 -0.2925
vn 0.6281 -0.7211 -0.2924
vn 0.5996 -0.7261 -0.3366
vn 0.6053 -0.6924 0.3928
vn 0.5726 -0.7479 -0.3358
vn 0.5748 -0.7457 -0.3370
vn 0.6151 -0.7597 0.2111
vn 0.6866 -0.7247 -0.0575
vn 0.1476 -0.0958 0.9844
vn 0.5512 -0.7621 -0.3398
vn 0.3983 -0.6366 -0.6603
vn 0.3015 -0.5599 -0.7717
vn 0.2037 -0.4079 -0.8900
vn 0.1634 -0.3780 -0.9113
vn 0.1486 -0.4056 -0.9019
vn 0.0622 0.8671 -0.4942
vn 0.0657 0.9632 -0.2607
vn 0.2781 0.5311 -0.8004
vn 0.0090 -0.0417 -0.9991
vn 0.0012 0.6204 -0.7842
vn 0.0130 0.8643 -0.5028
vn -0.0120 0.9255 -0.3785
vn -0.0028 0.9747 -0.2235
vn -0.0143 0.6613 -0.7500
vn 0.7072 -0.3642 -0.6060
vn 0.0518 0.9928 -0.1085
vn 0.0282 0.9946 -0.0996
vn 0.1515 0.9705 -0.1877
vn 0.5823 0.6749 -0.4533
vn 0.8270 -0.0278 -0.5615
vn 0.4891 0.7872 -0.3755
vn 0.7177 -0.6695 -0.1917
vn 0.0006 0.9977 -0.0678
vn -0.1279 0.0396 -0.9910
vn -0.1209 -0.0741 -0.9899
vn -0.1389 -0.0553 -0.9888
vn -0.7826 0.2050 -0.5879
vn -0.9274 0.2980 -0.2260
vn -0.9388 0.3423 -0.0371
vn -0.7550 0.5434 0.3671
vn -0.0596 0.0942 0.9938
vn -0.8620 0.3860 0.3286
vn -0.0264 0.0774 0.9966
vn -0.8590 0.4737 0.1943
vn 0.0009 0.0663 0.9978
vn -0.8458 0.4620 0.2669
vn -0.8596 0.3884 0.3320
vn -0.0007 0.0659 0.9978
vn -0.0007 0.0649 0.9979
vn -0.8808 0.0750 0.4675
vn -0.8574 0.3849 0.3417
vn -0.9043 0.0548 0.4233
vn 0.7929 -0.5425 -0.2775
vn -0.6943 -0.2487 0.6753
vn -0.7211 -0.0923 0.6867
vn 0.0793 -0.6521 0.7540
vn 0.2979 -0.7243 0.6219
vn 0.5612 -0.7141 0.4184
vn 0.5183 -0.7963 -0.3118
vn 0.6865 -0.0477 -0.7256
vn 0.3399 -0.8460 -0.4108
vn 0.3581 -0.8267 -0.4340
vn 0.3575 -0.8260 -0.4359
vn 0.3897 -0.8675 -0.3092
vn 0.3540 -0.8780 -0.3222
vn 0.1870 -0.7600 -0.6224
vn 0.1517 -0.7486 -0.6454
vn -0.1762 -0.5233 -0.8337
vn -0.4372 0.7287 -0.5271
vn -0.6598 0.0821 -0.7469
vn -0.2391 -0.3992 -0.8852
vn -0.5938 0.1060 -0.7976
vn 0.1022 -0.3720 -0.9226
vn 0.0647 -0.5111 -0.8571
vn 0.6893 0.0561 0.7223
vn -0.6866 0.0580 0.7248
s 0
usemtl Material.030
f 1//1 2//1 6//1
f 1//2 3//2 2//2
f 3//3 1//3 7//3
f 7//4 1//4 4//4
f 5//5 4//5 1//5
f 1//6 6//6 5//6
f 9//7 7//7 8//7
f 10//8 8//8 7//8
f 7//9 9//9 3//9
f 4//10 10//10 7//10
f 8//11 10//11 11//11
f 10//12 4//12 12//12
f 11//13 10//13 13//13
f 12//14 13//14 10//14
f 14//15 13//15 12//15
f 13//16 15//16 11//16
f 14//17 16//17 13//17
f 16//18 15//18 13//18
f 16//19 24//19 17//19
f 16//20 17//20 22//20
f 16//21 18//21 23//21
f 16//22 20//22 18//22
f 16//23 22//23 19//23
f 16//24 19//24 27//24
f 14//25 20//25 16//25
f 25//26 21//26 16//26
f 21//27 26//27 16//27
f 24//28 16//28 23//28
f 25//29 16//29 27//29
f 16//30 26//30 15//30
f 30//31 27//31 19//31
f 25//32 27//32 28//32
f 29//33 28//33 27//33
f 27//33 30//33 29//33
f 32//34 29//34 30//34
f 30//35 19//35 31//35
f 30//34 31//34 32//34
f 34//36 33//36 32//36
f 29//37 32//37 33//37
f 32//36 35//36 34//36
f 35//38 32//38 31//38
f 28//32 35//32 25//32
f 31//38 25//38 35//38
f 34//39 35//39 28//39
f 28//39 36//39 34//39
f 33//40 34//40 36//40
f 37//41 36//41 28//41
f 36//40 37//40 33//40
f 33//37 37//37 29//37
f 28//41 29//41 37//41
f 19//42 21//42 31//42
f 25//43 31//43 21//43
f 38//44 15//44 26//44
f 26//45 40//45 38//45
f 41//46 26//46 39//46
f 26//47 21//47 39//47
f 26//48 41//48 40//48
f 41//49 43//49 42//49
f 42//50 44//50 41//50
f 39//51 43//51 41//51
f 40//52 41//52 44//52
f 47//53 44//53 42//53
f 44//52 45//52 40//52
f 46//54 45//54 44//54
f 44//54 47//54 46//54
f 46//55 47//55 50//55
f 42//56 49//56 47//56
f 47//57 49//57 48//57
f 48//58 51//58 47//58
f 50//59 47//59 51//59
f 53//60 51//60 48//60
f 52//61 50//61 51//61
f 51//62 55//62 52//62
f 53//63 54//63 51//63
f 54//64 55//64 51//64
f 56//65 52//65 55//65
f 55//66 57//66 56//66
f 58//67 57//67 55//67
f 54//68 58//68 55//68
f 58//69 54//69 59//69
f 58//70 59//70 61//70
f 57//71 58//71 60//71
f 60//72 58//72 61//72
f 61//73 62//73 64//73
f 61//74 63//74 62//74
f 61//75 59//75 63//75
f 61//76 64//76 65//76
f 60//77 61//77 65//77
f 66//78 68//78 65//78
f 65//79 64//79 66//79
f 60//80 65//80 67//80
f 68//81 67//81 65//81
f 67//82 68//82 71//82
f 69//83 70//83 68//83
f 66//84 69//84 68//84
f 68//85 70//85 71//85
f 71//86 73//86 72//86
f 57//87 71//87 72//87
f 71//88 70//88 73//88
f 67//89 71//89 57//89
f 74//90 73//90 75//90
f 74//91 72//91 73//91
f 76//92 75//92 73//92
f 73//93 70//93 76//93
f 77//94 75//94 76//94
f 78//95 76//95 70//95
f 78//96 77//96 76//96
f 79//97 78//97 69//97
f 78//98 79//98 18//98
f 77//99 78//99 20//99
f 18//100 20//100 78//100
f 70//101 69//101 78//101
f 23//102 18//102 79//102
f 23//103 79//103 80//103
f 69//104 80//104 79//104
f 80//105 81//105 23//105
f 81//106 80//106 66//106
f 69//107 66//107 80//107
f 81//108 82//108 24//108
f 82//109 81//109 66//109
f 24//110 23//110 81//110
f 82//111 85//111 83//111
f 83//112 24//112 82//112
f 66//113 84//113 82//113
f 85//114 82//114 84//114
f 85//115 87//115 86//115
f 86//116 83//116 85//116
f 87//117 85//117 88//117
f 84//118 88//118 85//118
f 88//119 84//119 64//119
f 88//120 64//120 62//120
f 90//121 88//121 62//121
f 90//122 89//122 88//122
f 88//123 89//123 87//123
f 90//124 62//124 91//124
f 89//125 90//125 91//125
f 92//126 93//126 91//126
f 92//127 91//127 62//127
f 93//128 89//128 91//128
f 94//129 93//129 95//129
f 89//130 93//130 94//130
f 93//131 96//131 95//131
f 96//132 93//132 97//132
f 92//133 97//133 93//133
f 98//134 97//134 92//134
f 99//135 97//135 98//135
f 100//136 97//136 99//136
f 96//137 97//137 100//137
f 100//138 99//138 102//138
f 101//139 103//139 100//139
f 101//140 100//140 102//140
f 103//141 96//141 100//141
f 107//142 103//142 104//142
f 103//143 105//143 104//143
f 103//144 101//144 108//144
f 103//145 106//145 105//145
f 108//146 106//146 103//146
f 96//147 103//147 107//147
f 108//148 109//148 106//148
f 108//149 110//149 109//149
f 111//150 110//150 108//150
f 101//151 102//151 108//151
f 108//152 102//152 111//152
f 53//153 111//153 112//153
f 111//154 59//154 112//154
f 53//155 114//155 111//155
f 111//156 113//156 59//156
f 113//157 111//157 102//157
f 111//158 114//158 110//158
f 53//159 48//159 114//159
f 114//160 115//160 110//160
f 115//161 114//161 116//161
f 48//162 116//162 114//162
f 117//163 116//163 118//163
f 119//164 116//164 117//164
f 118//165 116//165 48//165
f 115//166 116//166 119//166
f 119//167 117//167 120//167
f 121//168 119//168 120//168
f 115//169 119//169 121//169
f 122//170 121//170 120//170
f 121//171 122//171 123//171
f 121//172 123//172 115//172
f 122//173 124//173 123//173
f 124//174 125//174 123//174
f 125//175 110//175 123//175
f 115//176 123//176 110//176
f 125//177 124//177 127//177
f 109//178 110//178 125//178
f 126//179 109//179 125//179
f 127//180 126//180 125//180
f 104//181 105//181 127//181
f 127//182 128//182 104//182
f 127//183 124//183 129//183
f 127//184 129//184 128//184
f 126//185 127//185 105//185
f 128//186 129//186 107//186
f 124//187 132//187 129//187
f 107//188 129//188 131//188
f 132//189 130//189 129//189
f 130//190 131//190 129//190
f 133//191 132//191 134//191
f 130//192 132//192 133//192
f 134//193 132//193 124//193
f 135//194 134//194 124//194
f 133//195 134//195 136//195
f 135//196 137//196 134//196
f 136//197 134//197 137//197
f 137//198 135//198 138//198
f 138//199 139//199 137//199
f 140//200 137//200 139//200
f 137//201 140//201 136//201
f 140//202 141//202 136//202
f 140//203 142//203 141//203
f 142//204 140//204 139//204
f 142//205 143//205 141//205
f 142//206 144//206 143//206
f 144//207 142//207 139//207
f 145//208 146//208 144//208
f 145//209 144//209 147//209
f 143//210 144//210 146//210
f 148//211 147//211 144//211
f 139//212 148//212 144//212
f 139//213 138//213 148//213
f 151//214 148//214 138//214
f 149//215 147//215 148//215
f 150//216 149//216 148//216
f 151//217 150//217 148//217
f 150//218 151//218 152//218
f 135//219 151//219 138//219
f 151//220 135//220 152//220
f 154//221 153//221 152//221
f 152//222 153//222 150//222
f 155//223 154//223 152//223
f 135//224 155//224 152//224
f 156//225 155//225 157//225
f 154//226 155//226 156//226
f 135//227 157//227 155//227
f 156//228 157//228 158//228
f 157//229 135//229 158//229
f 158//230 159//230 161//230
f 159//231 158//231 160//231
f 156//232 158//232 161//232
f 162//233 160//233 158//233
f 135//234 162//234 158//234
f 165//235 163//235 162//235
f 163//236 160//236 162//236
f 164//237 165//237 162//237
f 135//238 164//238 162//238
f 168//239 166//239 165//239
f 167//240 165//240 166//240
f 165//241 167//241 163//241
f 168//242 165//242 164//242
f 168//243 169//243 170//243
f 169//244 168//244 171//244
f 166//245 168//245 170//245
f 164//246 171//246 168//246
f 171//247 172//247 173//247
f 171//248 164//248 172//248
f 169//249 171//249 173//249
f 173//250 174//250 175//250
f 172//251 174//251 173//251
f 169//252 173//252 175//252
f 175//253 174//253 176//253
f 177//254 175//254 176//254
f 170//255 169//255 175//255
f 179//256 170//256 175//256
f 177//257 178//257 175//257
f 178//258 179//258 175//258
f 181//259 179//259 180//259
f 178//260 180//260 179//260
f 170//261 179//261 181//261
f 182//262 181//262 183//262
f 182//263 166//263 181//263
f 166//264 170//264 181//264
f 180//265 183//265 181//265
f 183//266 184//266 182//266
f 183//267 180//267 185//267
f 185//268 184//268 183//268
f 177//269 185//269 178//269
f 178//270 185//270 180//270
f 186//271 185//271 177//271
f 186//272 184//272 185//272
f 187//273 186//273 188//273
f 186//274 187//274 184//274
f 177//275 189//275 186//275
f 189//276 188//276 186//276
f 176//277 189//277 177//277
f 190//278 191//278 189//278
f 190//279 189//279 176//279
f 192//280 189//280 191//280
f 188//281 189//281 192//281
f 188//282 192//282 193//282
f 192//283 195//283 193//283
f 192//284 191//284 194//284
f 194//285 195//285 192//285
f 195//286 196//286 193//286
f 195//287 194//287 196//287
f 196//288 197//288 193//288
f 196//289 199//289 197//289
f 196//290 198//290 199//290
f 194//291 198//291 196//291
f 199//292 200//292 202//292
f 200//293 199//293 201//293
f 198//294 201//294 199//294
f 202//295 197//295 199//295
f 204//296 197//296 202//296
f 203//297 205//297 202//297
f 202//298 135//298 203//298
f 200//299 135//299 202//299
f 202//300 205//300 204//300
f 206//301 205//301 203//301
f 206//302 204//302 205//302
f 206//303 211//303 207//303
f 208//304 206//304 207//304
f 209//305 206//305 208//305
f 210//306 204//306 206//306
f 209//307 210//307 206//307
f 203//308 211//308 206//308
f 211//309 135//309 212//309
f 135//310 211//310 203//310
f 213//311 211//311 212//311
f 211//312 213//312 207//312
f 214//313 208//313 213//313
f 213//314 19//314 214//314
f 213//315 208//315 207//315
f 212//316 19//316 213//316
f 215//317 214//317 216//317
f 214//318 215//318 208//318
f 19//319 216//319 214//319
f 216//320 217//320 215//320
f 216//321 19//321 22//321
f 217//322 216//322 22//322
f 217//323 22//323 86//323
f 217//324 86//324 87//324
f 215//325 217//325 219//325
f 87//326 218//326 217//326
f 217//327 218//327 219//327
f 219//328 222//328 220//328
f 219//329 220//329 221//329
f 221//330 223//330 219//330
f 224//331 222//331 219//331
f 219//332 223//332 225//332
f 219//333 218//333 94//333
f 215//334 219//334 225//334
f 219//335 94//335 224//335
f 225//336 208//336 215//336
f 225//337 209//337 208//337
f 209//338 225//338 226//338
f 223//339 226//339 225//339
f 229//340 227//340 226//340
f 226//341 227//341 209//341
f 223//342 228//342 226//342
f 228//343 229//343 226//343
f 229//344 228//344 231//344
f 230//345 210//345 229//345
f 230//346 229//346 231//346
f 227//347 229//347 210//347
f 230//348 231//348 232//348
f 233//349 232//349 231//349
f 231//350 228//350 235//350
f 231//351 234//351 233//351
f 234//352 231//352 236//352
f 231//353 235//353 236//353
f 238//354 236//354 237//354
f 221//355 237//355 236//355
f 236//356 235//356 221//356
f 236//357 238//357 234//357
f 239//358 238//358 240//358
f 239//359 234//359 238//359
f 241//360 240//360 238//360
f 237//361 241//361 238//361
f 241//362 244//362 240//362
f 241//363 237//363 242//363
f 242//364 243//364 241//364
f 244//365 241//365 243//365
f 244//366 159//366 240//366
f 243//367 245//367 244//367
f 159//368 244//368 245//368
f 243//369 246//369 245//369
f 245//370 246//370 247//370
f 247//371 156//371 245//371
f 245//372 156//372 161//372
f 245//373 161//373 159//373
f 154//374 247//374 246//374
f 247//375 154//375 156//375
f 243//376 242//376 246//376
f 246//377 248//377 154//377
f 242//378 248//378 246//378
f 250//379 249//379 248//379
f 249//380 153//380 248//380
f 248//381 153//381 154//381
f 222//382 250//382 248//382
f 248//383 242//383 222//383
f 222//384 253//384 250//384
f 249//385 250//385 251//385
f 250//386 252//386 251//386
f 252//387 250//387 253//387
f 224//388 254//388 253//388
f 224//389 253//389 222//389
f 252//390 253//390 254//390
f 255//391 256//391 254//391
f 224//392 255//392 254//392
f 256//393 252//393 254//393
f 257//394 256//394 258//394
f 256//395 257//395 252//395
f 258//396 256//396 255//396
f 258//397 255//397 259//397
f 260//398 258//398 259//398
f 258//399 260//399 257//399
f 259//400 261//400 260//400
f 145//401 260//401 146//401
f 146//402 260//402 261//402
f 260//403 145//403 257//403
f 261//404 259//404 262//404
f 146//405 261//405 143//405
f 261//406 141//406 143//406
f 261//407 263//407 141//407
f 262//408 263//408 261//408
f 136//409 141//409 263//409
f 263//410 133//410 136//410
f 130//411 263//411 131//411
f 263//412 262//412 131//412
f 130//413 133//413 263//413
f 262//414 264//414 265//414
f 264//415 262//415 259//415
f 265//416 131//416 262//416
f 131//417 265//417 96//417
f 95//418 265//418 264//418
f 95//419 96//419 265//419
f 266//420 264//420 259//420
f 264//421 266//421 95//421
f 224//422 94//422 266//422
f 266//423 94//423 95//423
f 255//424 224//424 266//424
f 259//425 255//425 266//425
f 251//426 252//426 257//426
f 257//427 145//427 251//427
f 147//428 251//428 145//428
f 149//429 251//429 147//429
f 149//430 249//430 251//430
f 149//431 153//431 249//431
f 220//432 242//432 237//432
f 222//433 242//433 220//433
f 267//434 240//434 159//434
f 268//435 240//435 267//435
f 239//436 240//436 268//436
f 271//437 268//437 269//437
f 269//438 268//438 270//438
f 267//439 270//439 268//439
f 268//440 271//440 239//440
f 271//441 233//441 234//441
f 233//442 271//442 269//442
f 239//443 271//443 234//443
f 163//444 273//444 270//444
f 163//445 270//445 272//445
f 273//446 269//446 270//446
f 267//447 272//447 270//447
f 167//448 273//448 163//448
f 269//449 273//449 233//449
f 167//450 233//450 273//450
f 272//451 160//451 163//451
f 159//452 272//452 267//452
f 272//453 159//453 160//453
f 237//454 221//454 220//454
f 228//455 223//455 235//455
f 235//456 223//456 221//456
f 233//457 167//457 232//457
f 167//458 274//458 232//458
f 230//459 232//459 274//459
f 166//460 182//460 274//460
f 274//461 167//461 166//461
f 230//462 274//462 210//462
f 210//463 274//463 182//463
f 210//464 209//464 227//464
f 218//465 89//465 94//465
f 218//466 87//466 89//466
f 135//467 275//467 212//467
f 275//468 19//468 212//468
f 275//469 276//469 21//469
f 276//470 275//470 135//470
f 21//471 19//471 275//471
f 277//472 278//472 276//472
f 124//473 277//473 276//473
f 276//474 135//474 124//474
f 278//475 21//475 276//475
f 281//476 279//476 278//476
f 21//477 278//477 279//477
f 278//478 277//478 280//478
f 278//479 280//479 283//479
f 281//480 278//480 282//480
f 278//481 283//481 282//481
f 280//482 284//482 283//482
f 283//483 284//483 285//483
f 288//484 283//484 285//484
f 283//485 287//485 286//485
f 286//486 282//486 283//486
f 283//487 288//487 287//487
f 285//488 289//488 288//488
f 290//489 288//489 289//489
f 291//490 287//490 288//490
f 291//491 288//491 290//491
f 290//492 292//492 291//492
f 291//493 292//493 293//493
f 291//494 293//494 287//494
f 293//495 294//495 296//495
f 292//496 294//496 293//496
f 287//497 293//497 295//497
f 295//498 293//498 296//498
f 281//499 296//499 297//499
f 296//500 298//500 297//500
f 281//501 295//501 296//501
f 299//502 298//502 296//502
f 296//503 300//503 299//503
f 300//504 296//504 294//504
f 301//505 302//505 300//505
f 301//506 300//506 294//506
f 303//507 299//507 300//507
f 303//508 300//508 302//508
f 303//509 305//509 299//509
f 304//510 303//510 306//510
f 303//511 304//511 305//511
f 303//512 302//512 306//512
f 306//513 74//513 304//513
f 306//514 307//514 74//514
f 306//515 302//515 307//515
f 302//516 309//516 307//516
f 72//517 74//517 307//517
f 308//518 72//518 307//518
f 307//519 309//519 308//519
f 310//520 308//520 309//520
f 311//521 310//521 309//521
f 309//522 312//522 311//522
f 302//523 312//523 309//523
f 312//524 314//524 313//524
f 313//525 311//525 312//525
f 312//526 315//526 314//526
f 312//527 302//527 315//527
f 315//528 302//528 301//528
f 315//529 292//529 314//529
f 292//530 315//530 301//530
f 314//531 3//531 9//531
f 2//532 3//532 314//532
f 316//533 2//533 314//533
f 9//534 318//534 314//534
f 314//535 317//535 316//535
f 317//536 314//536 292//536
f 318//537 313//537 314//537
f 319//538 318//538 9//538
f 318//539 319//539 50//539
f 50//540 52//540 318//540
f 313//541 318//541 52//541
f 321//542 320//542 319//542
f 50//543 319//543 320//543
f 8//544 319//544 9//544
f 319//545 8//545 321//545
f 11//546 321//546 8//546
f 320//547 321//547 322//547
f 38//548 322//548 321//548
f 321//549 11//549 38//549
f 323//550 322//550 45//550
f 40//551 45//551 322//551
f 322//551 38//551 40//551
f 322//552 323//552 320//552
f 45//550 46//550 323//550
f 323//553 46//553 50//553
f 320//554 323//554 50//554
f 326//555 317//555 117//555
f 324//556 117//556 317//556
f 317//557 325//557 324//557
f 316//558 317//558 326//558
f 325//559 317//559 289//559
f 289//560 317//560 290//560
f 292//561 290//561 317//561
f 117//562 330//562 326//562
f 326//563 327//563 316//563
f 327//564 326//564 329//564
f 326//565 330//565 328//565
f 328//566 329//566 326//566
f 331//567 328//567 330//567
f 330//568 332//568 331//568
f 330//569 117//569 332//569
f 332//570 118//570 333//570
f 118//571 332//571 117//571
f 333//572 331//572 332//572
f 42//573 333//573 118//573
f 333//574 42//574 43//574
f 43//575 334//575 333//575
f 331//576 333//576 334//576
f 334//577 43//577 39//577
f 336//578 335//578 334//578
f 334//579 335//579 331//579
f 39//580 336//580 334//580
f 336//581 337//581 335//581
f 336//582 21//582 337//582
f 39//583 21//583 336//583
f 338//584 335//584 337//584
f 338//585 337//585 339//585
f 337//586 279//586 339//586
f 279//587 337//587 21//587
f 339//588 340//588 341//588
f 279//589 340//589 339//589
f 339//590 342//590 338//590
f 341//591 342//591 339//591
f 329//592 338//592 342//592
f 343//593 342//593 341//593
f 342//594 343//594 329//594
f 343//595 344//595 345//595
f 341//596 344//596 343//596
f 329//597 343//597 327//597
f 345//598 327//598 343//598
f 345//599 346//599 316//599
f 316//600 327//600 345//600
f 346//601 345//601 344//601
f 316//602 346//602 2//602
f 2//603 346//603 347//603
f 344//601 347//601 346//601
f 341//604 348//604 347//604
f 6//605 347//605 348//605
f 347//604 344//604 341//604
f 347//606 6//606 2//606
f 5//607 348//607 340//607
f 348//608 5//608 6//608
f 348//609 341//609 340//609
f 340//610 12//610 5//610
f 279//611 12//611 340//611
f 338//612 329//612 328//612
f 328//613 335//613 338//613
f 335//614 328//614 331//614
f 325//615 349//615 324//615
f 289//616 285//616 325//616
f 349//617 325//617 350//617
f 350//618 325//618 285//618
f 284//619 350//619 285//619
f 351//620 350//620 284//620
f 350//621 351//621 352//621
f 349//622 350//622 352//622
f 352//623 351//623 124//623
f 349//624 352//624 324//624
f 324//625 352//625 120//625
f 352//626 124//626 120//626
f 351//627 284//627 277//627
f 124//628 351//628 277//628
f 117//629 324//629 120//629
f 52//630 311//630 313//630
f 52//631 56//631 311//631
f 310//632 311//632 56//632
f 310//633 56//633 72//633
f 310//634 72//634 308//634
f 14//635 305//635 304//635
f 305//636 14//636 298//636
f 298//637 299//637 305//637
f 75//638 304//638 74//638
f 304//639 75//639 353//639
f 353//640 14//640 304//640
f 20//641 353//641 77//641
f 20//642 14//642 353//642
f 75//643 77//643 353//643
f 301//644 294//644 292//644
f 279//645 281//645 298//645
f 298//646 14//646 279//646
f 297//647 298//647 281//647
f 281//648 286//648 295//648
f 287//649 295//649 286//649
f 286//650 281//650 282//650
f 277//651 284//651 280//651
f 14//652 12//652 279//652
f 184//653 187//653 210//653
f 210//654 182//654 184//654
f 204//655 210//655 187//655
f 204//656 187//656 188//656
f 193//657 204//657 188//657
f 193//658 197//658 204//658
f 201//659 135//659 200//659
f 198//660 135//660 201//660
f 354//661 198//661 194//661
f 135//662 198//662 354//662
f 354//663 176//663 355//663
f 164//664 354//664 355//664
f 190//665 176//665 354//665
f 194//666 190//666 354//666
f 135//667 354//667 164//667
f 164//668 355//668 172//668
f 172//669 355//669 176//669
f 191//670 190//670 194//670
f 176//671 174//671 172//671
f 149//672 150//672 153//672
f 107//673 131//673 96//673
f 104//674 128//674 107//674
f 106//675 126//675 105//675
f 126//676 106//676 109//676
f 120//677 124//677 122//677
f 49//678 118//678 48//678
f 118//679 49//679 42//679
f 59//680 113//680 63//680
f 99//681 63//681 113//681
f 99//682 113//682 102//682
f 54//683 53//683 112//683
f 54//684 112//684 59//684
f 99//685 98//685 62//685
f 63//686 99//686 62//686
f 98//687 92//687 62//687
f 17//688 86//688 22//688
f 17//689 83//689 86//689
f 84//690 66//690 64//690
f 83//691 17//691 24//691
f 57//692 72//692 56//692
f 57//693 60//693 67//693
f 38//694 11//694 15//694
f 4//695 5//695 12//695
