# Blender 5.0.1
# www.blender.org
mtllib torso_y_link_visual_58.mtl
o i01.torso.full.065_visual.001
v 0.691592 0.112517 0.258312
v -0.678032 0.027022 -0.307431
v 0.649071 0.119746 0.306148
v 0.618758 0.120985 0.314352
v -0.679955 0.116209 0.282743
v -0.652113 0.119535 0.304754
v -0.618763 0.022600 -0.336694
v 0.620558 0.022631 -0.336490
v -0.649065 0.023839 -0.328494
v -0.620564 0.120954 0.314146
v -0.692105 0.112160 0.255952
v 0.679953 0.027377 -0.305083
v -0.691651 0.031094 -0.280485
v 0.678032 0.116563 0.285087
v 0.652107 0.024050 -0.327099
v 0.692046 0.031398 -0.278474
v 0.699940 0.112608 0.283502
v 0.707828 0.109865 0.265049
v 0.721000 0.098586 0.257880
v 0.708272 0.026759 -0.284570
v 0.711715 0.103432 0.289948
v 0.718647 0.101120 0.274650
v 0.716025 0.090151 0.293808
v 0.722999 0.087825 0.278416
v 0.725367 0.085275 0.261546
v 0.722999 -0.005492 0.292518
v 0.718910 -0.017301 0.292651
v 0.711975 -0.014988 0.307957
v 0.716025 -0.003166 0.307910
v 0.725366 -0.008042 0.275648
v 0.721264 -0.019836 0.275878
v 0.725367 0.004089 -0.275687
v 0.725367 -0.089228 -0.261584
v 0.721264 -0.100563 -0.258317
v 0.722999 -0.091778 -0.278462
v 0.716025 -0.094104 -0.293855
v 0.723000 0.001538 -0.292565
v 0.718910 -0.103099 -0.275099
v 0.711975 -0.105412 -0.290403
v 0.708809 -0.110425 -0.266013
v 0.700911 -0.113175 -0.284475
v 0.709259 -0.027215 0.284340
v 0.694010 -0.031145 0.278558
v 0.693556 -0.112492 -0.259741
v 0.620481 -0.120985 -0.315943
v 0.650884 -0.119744 -0.307725
v 0.653930 -0.023773 0.327343
v -0.622296 -0.120954 -0.315739
v 0.681879 -0.027111 0.305255
v -0.679953 -0.026755 0.307611
v -0.694068 -0.112135 -0.257376
v 0.679947 -0.116551 -0.286601
v -0.620482 -0.022320 0.336955
v 0.622304 -0.022351 0.336749
v -0.693616 -0.030840 0.280574
v -0.653938 -0.119533 -0.306328
v -0.681881 -0.116195 -0.284245
v -0.650881 -0.023562 0.328740
v -0.675300 -0.020378 0.329595
v -0.657798 -0.019132 0.337836
v -0.635017 -0.018230 0.343653
v 0.636038 -0.018333 0.343458
v -0.645753 -0.008895 0.347576
v 0.645895 -0.009142 0.347496
v 0.668179 -0.009884 0.341732
v 0.648767 0.002859 0.347807
v 0.671979 0.001967 0.341878
v 0.689859 0.000695 0.333459
v 0.650205 0.096152 0.333499
v 0.671980 0.095284 0.327776
v 0.689859 0.094011 0.319357
v 0.685707 0.107270 0.315342
v 0.667935 0.108535 0.323712
v 0.645545 0.109306 0.329584
v 0.656884 0.117626 0.316706
v 0.674362 0.116382 0.308475
v 0.688958 0.114691 0.297285
v 0.700548 0.105550 0.303963
v 0.704790 0.092281 0.307908
v 0.704790 -0.001036 0.322010
v 0.700804 -0.012870 0.321976
v 0.685957 -0.011149 0.333360
v 0.657794 -0.019132 0.337836
v 0.675297 -0.020378 0.329595
v 0.689913 -0.022071 0.318387
v 0.700910 -0.024157 0.304587
v 0.634207 0.118477 0.322519
v -0.635140 0.118529 0.322308
v -0.645653 0.109538 0.329436
v -0.671983 0.095284 0.327774
v -0.648776 0.096183 0.333703
v -0.667939 0.108535 0.323712
v -0.689863 0.094011 0.319355
v -0.685711 0.107270 0.315342
v -0.656888 0.117625 0.316706
v -0.674366 0.116382 0.308475
v -0.688962 0.114691 0.297285
v -0.700552 0.105550 0.303963
v -0.711719 0.103432 0.289948
v -0.716028 0.090151 0.293808
v -0.704794 0.092281 0.307908
v -0.689863 0.000694 0.333457
v -0.704794 -0.001036 0.322010
v -0.716028 -0.003166 0.307910
v -0.711979 -0.014988 0.307957
v -0.700808 -0.012870 0.321976
v -0.685961 -0.011149 0.333360
v -0.700914 -0.024157 0.304585
v -0.689917 -0.022071 0.318387
v -0.708875 -0.027008 0.285958
v -0.709313 -0.110089 -0.264037
v -0.718913 -0.017301 0.292650
v -0.721264 -0.019651 0.277102
v -0.721264 -0.100749 -0.259552
v -0.723003 -0.005492 0.292518
v -0.725367 -0.007856 0.276880
v -0.725367 0.003902 -0.276926
v -0.725367 -0.089415 -0.262824
v -0.725367 0.085461 0.262778
v -0.723003 0.087825 0.278416
v -0.718651 0.101120 0.274650
v -0.721001 0.098771 0.259106
v -0.721001 0.017702 -0.277352
v -0.708326 0.109532 0.263135
v -0.707895 0.026568 -0.286128
v -0.699944 0.112608 0.283502
v -0.699944 0.023712 -0.304746
v -0.711718 0.013041 -0.308195
v -0.718651 0.015354 -0.292894
v -0.716028 -0.000788 -0.307957
v -0.723002 0.001538 -0.292565
v -0.723002 -0.091778 -0.278462
v -0.716028 -0.094105 -0.293855
v -0.711978 -0.105412 -0.290406
v -0.718913 -0.103099 -0.275100
v -0.700913 -0.113176 -0.284476
v -0.689916 -0.115261 -0.298278
v -0.700807 -0.107531 -0.304425
v -0.675300 -0.116955 -0.309485
v -0.657798 -0.118200 -0.317726
v -0.685960 -0.109251 -0.315809
v -0.704794 -0.096235 -0.307955
v -0.668182 -0.110516 -0.324182
v -0.689862 -0.097965 -0.319404
v -0.671983 -0.005921 -0.341925
v -0.671983 -0.099238 -0.327823
v -0.689862 -0.004648 -0.333506
v -0.700552 0.010924 -0.322209
v -0.685710 0.009204 -0.333589
v -0.704794 -0.002918 -0.322057
v -0.688961 0.021630 -0.318528
v -0.674366 0.019939 -0.329720
v -0.667938 0.007939 -0.341959
v -0.649779 -0.007237 -0.347719
v -0.645552 0.006940 -0.347796
v -0.656888 0.018695 -0.337951
v -0.634212 0.017790 -0.343755
v 0.645650 0.007207 -0.347723
v 0.635138 0.017902 -0.343568
v 0.667935 0.007939 -0.341956
v 0.656885 0.018695 -0.337951
v 0.674363 0.019939 -0.329720
v 0.685707 0.009204 -0.333589
v 0.704791 -0.002918 -0.322056
v 0.700549 0.010924 -0.322208
v 0.689860 -0.004648 -0.333505
v 0.671980 -0.099238 -0.327822
v 0.671980 -0.005921 -0.341924
v 0.689860 -0.097965 -0.319403
v 0.700804 -0.107531 -0.304425
v 0.685958 -0.109251 -0.315809
v 0.704791 -0.096235 -0.307954
v 0.716025 -0.000788 -0.307957
v 0.711715 0.013042 -0.308194
v 0.688959 0.021630 -0.318527
v 0.699941 0.023713 -0.304745
v 0.718648 0.015354 -0.292894
v 0.721001 0.017889 -0.276117
v 0.689913 -0.115261 -0.298278
v 0.675297 -0.116955 -0.309485
v 0.668179 -0.110516 -0.324182
v 0.657795 -0.118200 -0.317726
v 0.645753 -0.111298 -0.330056
v 0.649773 -0.099731 -0.333742
v -0.649170 -0.100616 -0.333546
v 0.649169 -0.006246 -0.347807
v -0.645904 -0.111511 -0.329905
v -0.636042 -0.119098 -0.323335
v 0.635016 -0.119057 -0.323550
v -0.671983 0.001967 0.341878
v -0.668183 -0.009884 0.341732
v -0.650209 0.002829 0.347602
vn -0.0000 0.9888 -0.1494
vn 0.1731 0.9830 -0.0609
vn 0.2180 0.9650 -0.1456
vn 0.1873 0.9801 -0.0656
vn 0.6079 0.7851 -0.1182
vn 0.6421 0.7662 -0.0257
vn 0.2210 0.9643 -0.1456
vn 0.5678 0.8141 0.1217
vn 0.5534 0.8233 0.1263
vn 0.8636 0.3774 0.3343
vn 0.9401 0.3309 0.0819
vn 0.9126 0.0611 0.4043
vn 0.9905 0.0205 0.1359
vn 0.9303 -0.3202 0.1789
vn 0.8542 -0.2909 0.4310
vn 0.9303 -0.3201 0.1789
vn 0.9436 -0.3273 0.0495
vn 1.0000 -0.0000 -0.0000
vn 0.9303 -0.3587 -0.0763
vn 0.9905 -0.0205 -0.1359
vn 0.8542 -0.4053 -0.3258
vn 0.9126 -0.0611 -0.4043
vn 0.9905 -0.0205 -0.1358
vn 0.6071 -0.7939 0.0348
vn 0.5189 -0.8481 -0.1070
vn 0.8541 -0.4054 -0.3258
vn 0.5336 -0.8394 -0.1033
vn 0.1645 -0.9834 0.0761
vn 0.5685 -0.8135 0.1225
vn 0.1944 -0.9699 0.1465
vn 0.1917 -0.9705 0.1465
vn -0.0000 -0.9888 0.1494
vn 0.1514 -0.9858 0.0723
vn -0.0714 -0.9127 0.4023
vn -0.1131 -0.9476 0.2988
vn -0.1075 -0.9236 0.3680
vn -0.0650 -0.9157 0.3965
vn -0.0000 -0.8535 0.5211
vn 0.0001 -0.4023 0.9155
vn -0.0000 -0.3875 0.9219
vn -0.1853 -0.5541 0.8116
vn 0.1902 -0.5586 0.8073
vn 0.2465 -0.0909 0.9649
vn 0.0001 -0.0259 0.9997
vn 0.2436 -0.0833 0.9663
vn 0.4132 -0.1436 0.8992
vn 0.4300 0.1349 0.8927
vn 0.2501 0.1430 0.9576
vn 0.2569 0.1444 0.9556
vn 0.4160 0.3804 0.8260
vn 0.4161 0.3803 0.8260
vn 0.2510 0.3530 0.9013
vn 0.2485 0.3561 0.9008
vn 0.1952 0.7365 0.6477
vn 0.3079 0.7867 0.5351
vn 0.3080 0.7867 0.5351
vn 0.1371 0.9901 0.0292
vn 0.1293 0.9912 0.0280
vn 0.1213 0.9867 0.1084
vn 0.4081 0.8162 0.4089
vn 0.1771 0.9842 -0.0076
vn 0.4955 0.8256 0.2700
vn 0.5869 0.3974 0.7054
vn 0.7460 0.3974 0.5344
vn 0.6128 0.1181 0.7814
vn 0.7855 0.0925 0.6119
vn 0.5818 -0.1983 0.7888
vn 0.7383 -0.2505 0.6262
vn 0.4132 -0.1437 0.8992
vn 0.3858 -0.6938 0.6081
vn 0.2931 -0.6315 0.7178
vn 0.2931 -0.6315 0.7179
vn 0.3858 -0.6938 0.6080
vn 0.1190 -0.9470 0.2983
vn 0.1079 -0.9233 0.3686
vn 0.4664 -0.7407 0.4836
vn 0.4664 -0.7406 0.4836
vn 0.1569 -0.9504 0.2687
vn 0.1176 -0.9491 0.2923
vn 0.1571 -0.9649 0.2105
vn 0.5205 -0.7861 0.3333
vn 0.5295 -0.7699 0.3562
vn 0.0705 -0.9128 0.4024
vn 0.1892 -0.5539 0.8108
vn 0.0719 -0.9217 0.3811
vn 0.1935 0.7376 0.6469
vn 0.0738 0.9869 0.1435
vn -0.0000 0.6103 0.7922
vn -0.0001 0.6214 0.7835
vn -0.0000 0.9559 0.2936
vn 0.0808 0.9854 0.1498
vn -0.2448 0.3465 0.9055
vn -0.2477 0.3522 0.9025
vn -0.0001 0.3043 0.9526
vn -0.1982 0.7407 0.6419
vn -0.4160 0.3802 0.8261
vn -0.4161 0.3803 0.8260
vn -0.1970 0.7374 0.6460
vn -0.3080 0.7867 0.5350
vn -0.0797 0.9854 0.1505
vn -0.3080 0.7867 0.5351
vn -0.1216 0.9866 0.1091
vn -0.0818 0.9887 0.1253
vn -0.4081 0.8162 0.4089
vn -0.1358 0.9904 0.0274
vn -0.7460 0.3974 0.5343
vn -0.4955 0.8256 0.2700
vn -0.5869 0.3974 0.7054
vn -0.5869 0.3973 0.7055
vn -0.6127 0.1181 0.7814
vn -0.7855 0.0925 0.6119
vn -0.5818 -0.1983 0.7888
vn -0.7384 -0.2505 0.6262
vn -0.7383 -0.2505 0.6262
vn -0.5818 -0.1982 0.7888
vn -0.3858 -0.6938 0.6081
vn -0.4664 -0.7407 0.4836
vn -0.3859 -0.6938 0.6081
vn -0.1204 -0.9463 0.3000
vn -0.1565 -0.9505 0.2684
vn -0.1648 -0.9620 0.2177
vn -0.5338 -0.7715 0.3462
vn -0.1514 -0.9632 0.2221
vn -0.1942 -0.9699 0.1467
vn -0.5703 -0.8121 0.1231
vn -0.6049 -0.7687 0.2076
vn -0.5183 -0.7791 0.3526
vn -0.1919 -0.9704 0.1468
vn -0.5825 -0.8037 0.1215
vn -0.9436 -0.3273 0.0495
vn -0.9286 -0.3195 0.1887
vn -0.9286 -0.3194 0.1887
vn -1.0000 -0.0000 -0.0000
vn -0.9890 0.0221 0.1462
vn -0.9528 0.3000 -0.0453
vn -0.9384 0.3331 0.0916
vn -0.9384 0.3331 0.0915
vn -0.6208 0.7752 -0.1171
vn -0.6437 0.7651 -0.0183
vn -0.6097 0.7837 -0.1189
vn -0.2208 0.9643 -0.1458
vn -0.5558 0.8248 0.1042
vn -0.1795 0.9809 -0.0743
vn -0.1869 0.9803 -0.0634
vn -0.1776 0.9841 -0.0072
vn -0.5633 0.8156 0.1320
vn -0.2182 0.9649 -0.1460
vn -0.1876 0.9557 -0.2267
vn -0.5680 0.7419 -0.3563
vn -0.6399 0.7396 -0.2085
vn -0.5528 0.7497 -0.3638
vn -0.8636 0.2617 -0.4308
vn -0.9384 0.2912 -0.1859
vn -0.8636 0.2618 -0.4309
vn -0.9385 0.2911 -0.1859
vn -0.9890 -0.0221 -0.1462
vn -0.9126 -0.0611 -0.4043
vn -0.9286 -0.3609 -0.0859
vn -0.8542 -0.4053 -0.3258
vn -0.5202 -0.8497 -0.0855
vn -0.5295 -0.8408 -0.1128
vn -0.6091 -0.7926 0.0277
vn -0.1569 -0.9873 0.0241
vn -0.4664 -0.8505 -0.2431
vn -0.1571 -0.9840 0.0840
vn -0.3859 -0.8425 -0.3759
vn -0.1190 -0.9929 -0.0052
vn -0.1176 -0.9931 0.0012
vn -0.1079 -0.9910 -0.0793
vn -0.2931 -0.8154 -0.4992
vn -0.5818 -0.4225 -0.6950
vn -0.2931 -0.8154 -0.4991
vn -0.4132 -0.4030 -0.8166
vn -0.4300 -0.1349 -0.8927
vn -0.4132 -0.4029 -0.8167
vn -0.6128 -0.1181 -0.7814
vn -0.4160 0.1193 -0.9015
vn -0.5869 0.1712 -0.7913
vn -0.5869 0.1712 -0.7914
vn -0.7855 -0.0925 -0.6119
vn -0.7460 0.2217 -0.6279
vn -0.4161 0.1192 -0.9015
vn -0.4081 0.6590 -0.6318
vn -0.3080 0.5935 -0.7436
vn -0.2480 0.0700 -0.9662
vn -0.2488 0.0689 -0.9661
vn -0.1952 0.5123 -0.8363
vn -0.3079 0.5935 -0.7436
vn -0.0738 0.9004 -0.4288
vn -0.1213 0.9106 -0.3951
vn -0.1935 0.5136 -0.8359
vn -0.0000 0.8265 -0.5630
vn -0.0808 0.8971 -0.4343
vn 0.0001 0.3622 -0.9321
vn -0.0000 0.3491 -0.9371
vn 0.0001 0.8316 -0.5554
vn 0.0797 0.8969 -0.4350
vn 0.1983 0.5181 -0.8320
vn 0.1970 0.5135 -0.8352
vn 0.0818 0.9075 -0.4119
vn 0.1216 0.9103 -0.3957
vn 0.3079 0.5934 -0.7437
vn 0.3080 0.5935 -0.7436
vn 0.5869 0.1711 -0.7913
vn 0.5870 0.1712 -0.7913
vn 0.4081 0.6590 -0.6318
vn 0.4160 0.1192 -0.9015
vn 0.4300 -0.1349 -0.8927
vn 0.4160 0.1193 -0.9015
vn 0.6128 -0.1181 -0.7814
vn 0.4132 -0.4029 -0.8167
vn 0.5818 -0.4225 -0.6950
vn 0.7855 -0.0925 -0.6119
vn 0.7383 -0.4244 -0.5242
vn 0.7384 -0.4243 -0.5241
vn 0.7460 0.2217 -0.6279
vn 0.8636 0.2618 -0.4309
vn 0.4955 0.7089 -0.5019
vn 0.5633 0.7402 -0.3671
vn 0.9401 0.2919 -0.1760
vn 0.9401 0.2920 -0.1760
vn 0.6466 0.7356 -0.2019
vn 0.5560 0.7568 -0.3438
vn 0.9528 0.3001 -0.0453
vn 0.6190 0.7766 -0.1174
vn 0.1795 0.9591 -0.2189
vn 0.1776 0.9423 -0.2839
vn 0.1344 0.9405 -0.3121
vn 0.1358 0.9380 -0.3188
vn 0.3859 -0.8425 -0.3759
vn 0.2931 -0.8154 -0.4992
vn 0.4133 -0.4028 -0.8167
vn 0.1873 -0.7678 -0.6127
vn 0.2474 -0.3712 -0.8950
vn 0.2468 -0.3720 -0.8948
vn -0.0000 -0.1488 -0.9889
vn -0.0000 -0.1501 -0.9887
vn 0.0001 -0.3036 -0.9528
vn 0.2579 -0.1444 -0.9553
vn 0.2491 -0.1425 -0.9579
vn 0.0001 0.0063 -1.0000
vn -0.0001 -0.0054 -1.0000
vn 0.2482 0.0709 -0.9661
vn -0.2469 -0.3729 -0.8944
vn -0.2490 -0.1469 -0.9573
vn -0.0001 -0.3170 -0.9484
vn -0.0001 -0.6547 -0.7559
vn -0.1902 -0.7722 -0.6062
vn -0.2465 -0.3720 -0.8949
vn -0.0000 -0.6425 -0.7663
vn 0.0650 -0.9920 -0.1082
vn 0.1853 -0.7692 -0.6115
vn -0.0000 -0.9694 -0.2457
vn 0.0714 -0.9908 -0.1146
vn -0.1892 -0.7688 -0.6108
vn -0.0705 -0.9909 -0.1146
vn -0.0001 -0.9714 -0.2373
vn 0.1075 -0.9911 -0.0786
vn 0.1204 -0.9927 -0.0070
vn 0.1131 -0.9936 -0.0055
vn 0.4664 -0.8505 -0.2431
vn 0.1565 -0.9874 0.0245
vn 0.4665 -0.8505 -0.2431
vn 0.2478 0.0700 -0.9663
vn -0.2579 -0.1444 -0.9553
vn -0.1371 0.9373 -0.3205
vn -0.1293 0.9387 -0.3196
vn -0.1771 0.9425 -0.2836
vn -0.4954 0.7090 -0.5019
vn -0.4954 0.7089 -0.5019
vn -0.7384 -0.4244 -0.5242
vn -0.0719 -0.9932 -0.0917
vn -0.7383 -0.4243 -0.5242
vn -0.1730 0.9572 -0.2321
vn -0.8636 0.3774 0.3343
vn -0.9126 0.0611 0.4043
vn -0.8542 -0.2909 0.4310
vn -0.1644 -0.9836 0.0741
vn -0.4133 -0.1436 0.8992
vn -0.4133 -0.1435 0.8992
vn -0.2931 -0.6315 0.7179
vn -0.2498 -0.0920 0.9639
vn -0.2470 -0.0960 0.9642
vn -0.1873 -0.5524 0.8122
vn -0.2931 -0.6315 0.7178
vn -0.0002 -0.0023 1.0000
vn -0.2569 0.1444 0.9556
vn -0.0002 0.1473 0.9891
vn -0.2502 0.1463 0.9571
vn -0.4300 0.1349 0.8927
vn -0.1343 0.9907 0.0202
vn 0.0002 0.2853 0.9584
vn 0.0002 0.1516 0.9884
vn -0.0001 0.9586 0.2847
vn 0.0001 -0.8580 0.5137
vn 0.1644 -0.9616 0.2200
vn 0.5806 -0.8051 0.1217
vn 0.6121 -0.7647 0.2015
vn 0.1870 0.9552 -0.2293
s 0
usemtl Material.030
f 13//1 1//1 2//1
f 2//1 1//1 9//1
f 3//1 1//1 4//1
f 14//1 1//1 3//1
f 4//1 1//1 10//1
f 5//1 1//1 11//1
f 6//1 1//1 5//1
f 10//1 1//1 6//1
f 9//1 1//1 7//1
f 8//1 7//1 1//1
f 8//1 1//1 15//1
f 11//1 1//1 13//1
f 12//1 1//1 16//1
f 15//1 1//1 12//1
f 1//2 14//2 17//2
f 16//3 1//3 18//3
f 17//4 18//4 1//4
f 20//5 18//5 19//5
f 22//6 19//6 18//6
f 18//7 20//7 16//7
f 18//8 17//8 21//8
f 21//9 22//9 18//9
f 23//10 24//10 22//10
f 22//10 21//10 23//10
f 19//11 22//11 24//11
f 26//12 24//12 23//12
f 24//11 25//11 19//11
f 25//13 24//13 26//13
f 30//14 26//14 27//14
f 28//15 27//15 26//15
f 26//15 29//15 28//15
f 23//12 29//12 26//12
f 26//13 30//13 25//13
f 27//16 31//16 30//16
f 33//17 30//17 31//17
f 32//18 25//18 30//18
f 30//18 33//18 32//18
f 31//17 34//17 33//17
f 35//19 33//19 34//19
f 32//20 33//20 35//20
f 36//21 35//21 38//21
f 37//22 35//22 36//22
f 35//23 37//23 32//23
f 34//19 38//19 35//19
f 38//24 34//24 40//24
f 39//25 38//25 40//25
f 38//26 39//26 36//26
f 40//27 41//27 39//27
f 41//28 40//28 44//28
f 42//29 40//29 34//29
f 40//30 42//30 43//30
f 43//31 44//31 40//31
f 46//32 44//32 45//32
f 48//32 45//32 44//32
f 52//32 44//32 46//32
f 54//32 44//32 47//32
f 47//32 44//32 49//32
f 48//32 44//32 56//32
f 49//32 44//32 43//32
f 50//32 44//32 58//32
f 55//32 44//32 50//32
f 51//32 44//32 55//32
f 57//32 44//32 51//32
f 44//33 52//33 41//33
f 58//32 44//32 53//32
f 53//32 44//32 54//32
f 56//32 44//32 57//32
f 58//34 53//34 61//34
f 50//35 58//35 59//35
f 60//36 59//36 58//36
f 61//37 60//37 58//37
f 62//38 61//38 53//38
f 61//39 62//39 64//39
f 64//40 63//40 61//40
f 60//41 61//41 63//41
f 65//42 64//42 62//42
f 64//43 65//43 67//43
f 63//44 64//44 66//44
f 67//45 66//45 64//45
f 68//46 67//46 65//46
f 70//47 67//47 68//47
f 69//48 66//48 67//48
f 67//49 70//49 69//49
f 68//47 71//47 70//47
f 70//50 71//50 72//50
f 72//51 73//51 70//51
f 69//52 70//52 73//52
f 73//53 74//53 69//53
f 74//54 73//54 75//54
f 76//55 75//55 73//55
f 73//56 72//56 76//56
f 76//57 77//57 14//57
f 14//58 3//58 76//58
f 75//59 76//59 3//59
f 77//60 76//60 72//60
f 77//61 17//61 14//61
f 72//60 78//60 77//60
f 17//62 77//62 78//62
f 71//63 79//63 78//63
f 21//64 78//64 79//64
f 78//63 72//63 71//63
f 78//62 21//62 17//62
f 79//64 23//64 21//64
f 80//65 79//65 71//65
f 29//66 23//66 79//66
f 79//66 80//66 29//66
f 71//65 68//65 80//65
f 80//67 68//67 82//67
f 29//68 80//68 81//68
f 82//67 81//67 80//67
f 65//69 82//69 68//69
f 81//70 82//70 84//70
f 82//71 65//71 83//71
f 83//72 84//72 82//72
f 84//73 85//73 81//73
f 85//74 84//74 47//74
f 84//75 83//75 47//75
f 28//76 81//76 85//76
f 85//77 86//77 28//77
f 86//78 85//78 49//78
f 47//79 49//79 85//79
f 42//80 86//80 49//80
f 86//81 42//81 27//81
f 27//82 28//82 86//82
f 83//83 62//83 54//83
f 62//84 83//84 65//84
f 54//85 47//85 83//85
f 81//68 28//68 29//68
f 75//86 87//86 74//86
f 87//87 75//87 3//87
f 89//88 74//88 87//88
f 87//89 88//89 89//89
f 88//90 87//90 4//90
f 3//91 4//91 87//91
f 90//92 91//92 89//92
f 89//93 92//93 90//93
f 74//94 89//94 91//94
f 92//95 89//95 88//95
f 93//96 90//96 92//96
f 92//97 94//97 93//97
f 88//98 95//98 92//98
f 94//99 92//99 95//99
f 95//100 88//100 10//100
f 95//101 96//101 94//101
f 96//102 95//102 6//102
f 10//103 6//103 95//103
f 96//104 97//104 98//104
f 97//105 96//105 6//105
f 98//104 94//104 96//104
f 98//106 99//106 100//106
f 99//107 98//107 97//107
f 94//108 98//108 101//108
f 100//106 101//106 98//106
f 101//109 93//109 94//109
f 102//110 93//110 101//110
f 101//110 103//110 102//110
f 103//111 101//111 100//111
f 102//112 103//112 106//112
f 103//113 104//113 105//113
f 100//111 104//111 103//111
f 105//114 106//114 103//114
f 106//115 107//115 102//115
f 107//116 106//116 109//116
f 108//117 109//117 106//117
f 106//117 105//117 108//117
f 109//118 59//118 107//118
f 59//119 109//119 50//119
f 109//120 108//120 50//120
f 108//121 110//121 55//121
f 110//122 108//122 105//122
f 55//123 50//123 108//123
f 110//124 111//124 51//124
f 111//125 110//125 113//125
f 112//126 113//126 110//126
f 105//127 112//127 110//127
f 51//128 55//128 110//128
f 113//129 114//129 111//129
f 114//130 113//130 116//130
f 113//131 112//131 115//131
f 115//132 116//132 113//132
f 117//133 118//133 116//133
f 116//133 119//133 117//133
f 116//130 118//130 114//130
f 119//134 116//134 115//134
f 117//135 119//135 122//135
f 119//136 120//136 121//136
f 115//134 120//134 119//134
f 121//137 122//137 119//137
f 122//135 123//135 117//135
f 123//138 122//138 124//138
f 122//139 121//139 124//139
f 124//140 125//140 123//140
f 125//141 124//141 11//141
f 126//142 124//142 121//142
f 124//143 126//143 5//143
f 5//144 11//144 124//144
f 97//107 126//107 99//107
f 126//145 97//145 5//145
f 121//146 99//146 126//146
f 11//147 13//147 125//147
f 127//148 125//148 13//148
f 125//149 127//149 128//149
f 129//150 123//150 125//150
f 128//151 129//151 125//151
f 129//152 128//152 130//152
f 123//153 129//153 131//153
f 130//154 131//154 129//154
f 131//155 117//155 123//155
f 118//156 117//156 131//156
f 131//156 132//156 118//156
f 132//157 131//157 130//157
f 118//158 132//158 135//158
f 130//157 133//157 132//157
f 132//159 133//159 134//159
f 134//159 135//159 132//159
f 136//160 111//160 135//160
f 135//161 134//161 136//161
f 114//162 135//162 111//162
f 135//158 114//158 118//158
f 136//163 137//163 57//163
f 137//164 136//164 134//164
f 111//165 136//165 57//165
f 134//164 138//164 137//164
f 139//166 137//166 138//166
f 137//167 139//167 56//167
f 56//168 57//168 137//168
f 138//166 141//166 139//166
f 139//169 140//169 56//169
f 140//170 139//170 141//170
f 141//171 138//171 142//171
f 142//171 144//171 141//171
f 141//172 143//172 140//172
f 143//173 141//173 144//173
f 145//174 146//174 144//174
f 144//174 147//174 145//174
f 144//175 146//175 143//175
f 147//176 144//176 142//176
f 145//177 147//177 149//177
f 147//178 150//178 148//178
f 148//179 149//179 147//179
f 142//176 150//176 147//176
f 150//180 142//180 133//180
f 133//180 130//180 150//180
f 150//181 130//181 128//181
f 128//181 148//181 150//181
f 149//182 153//182 145//182
f 149//183 148//183 151//183
f 151//183 152//183 149//183
f 153//184 149//184 152//184
f 154//185 145//185 153//185
f 153//186 155//186 154//186
f 155//187 153//187 156//187
f 152//188 156//188 153//188
f 157//189 156//189 9//189
f 156//190 152//190 9//190
f 156//191 157//191 155//191
f 159//192 157//192 7//192
f 9//193 7//193 157//193
f 157//194 159//194 158//194
f 158//195 155//195 157//195
f 7//196 8//196 159//196
f 161//197 159//197 8//197
f 160//198 158//198 159//198
f 159//199 161//199 160//199
f 8//200 15//200 161//200
f 162//201 161//201 15//201
f 163//202 160//202 161//202
f 161//203 162//203 163//203
f 164//204 166//204 163//204
f 163//205 165//205 164//205
f 165//206 163//206 162//206
f 160//207 163//207 166//207
f 166//208 169//208 167//208
f 167//208 168//208 166//208
f 166//209 168//209 160//209
f 169//210 166//210 164//210
f 167//211 169//211 171//211
f 170//212 171//212 169//212
f 169//212 172//212 170//212
f 164//210 172//210 169//210
f 172//213 164//213 173//213
f 173//213 36//213 172//213
f 172//214 36//214 39//214
f 39//215 170//215 172//215
f 173//216 164//216 165//216
f 37//217 173//217 174//217
f 36//22 173//22 37//22
f 165//216 174//216 173//216
f 174//217 177//217 37//217
f 174//218 165//218 175//218
f 175//218 176//218 174//218
f 177//219 174//219 176//219
f 32//220 37//220 177//220
f 177//221 178//221 32//221
f 178//222 177//222 20//222
f 176//223 20//223 177//223
f 25//224 32//224 178//224
f 178//224 19//224 25//224
f 19//225 178//225 20//225
f 20//226 176//226 12//226
f 176//227 175//227 12//227
f 15//228 12//228 175//228
f 175//229 162//229 15//229
f 162//206 175//206 165//206
f 171//230 170//230 179//230
f 179//230 180//230 171//230
f 181//231 171//231 180//231
f 171//232 181//232 167//232
f 180//231 182//231 181//231
f 183//233 181//233 182//233
f 181//234 183//234 184//234
f 184//235 167//235 181//235
f 154//236 186//236 184//236
f 184//237 185//237 154//237
f 185//238 184//238 183//238
f 168//239 167//239 184//239
f 184//240 186//240 168//240
f 155//241 158//241 186//241
f 186//242 154//242 155//242
f 168//243 186//243 158//243
f 146//244 185//244 187//244
f 154//245 185//245 146//245
f 183//246 187//246 185//246
f 189//247 188//247 187//247
f 143//248 187//248 188//248
f 187//249 143//249 146//249
f 187//250 183//250 189//250
f 189//251 182//251 46//251
f 182//252 189//252 183//252
f 188//253 189//253 45//253
f 46//254 45//254 189//254
f 188//255 140//255 143//255
f 140//256 188//256 48//256
f 45//257 48//257 188//257
f 182//258 180//258 46//258
f 180//259 179//259 52//259
f 52//260 46//260 180//260
f 41//261 179//261 170//261
f 179//262 41//262 52//262
f 170//263 39//263 41//263
f 158//264 160//264 168//264
f 146//265 145//265 154//265
f 152//266 151//266 2//266
f 2//267 9//267 152//267
f 151//268 127//268 2//268
f 127//269 151//269 148//269
f 148//270 128//270 127//270
f 133//271 142//271 138//271
f 48//272 56//272 140//272
f 138//273 134//273 133//273
f 13//274 2//274 127//274
f 99//275 121//275 120//275
f 120//275 100//275 99//275
f 104//276 100//276 120//276
f 120//276 115//276 104//276
f 104//277 115//277 112//277
f 112//277 105//277 104//277
f 57//278 51//278 111//278
f 107//279 191//279 190//279
f 190//280 102//280 107//280
f 191//281 107//281 59//281
f 192//282 190//282 191//282
f 191//283 63//283 192//283
f 63//284 191//284 60//284
f 59//285 60//285 191//285
f 66//286 192//286 63//286
f 90//287 190//287 192//287
f 91//288 192//288 66//288
f 192//289 91//289 90//289
f 93//290 102//290 190//290
f 190//290 90//290 93//290
f 6//291 5//291 97//291
f 91//292 69//292 74//292
f 66//293 69//293 91//293
f 4//294 10//294 88//294
f 53//295 54//295 62//295
f 49//296 43//296 42//296
f 34//297 31//297 42//297
f 31//298 27//298 42//298
f 12//299 16//299 20//299
