# Blender 5.0.1
# www.blender.org
mtllib torso_y_link_visual_32.mtl
o i01.torso.full.034_visual.001
v -0.156006 -0.063909 -0.248071
v -0.238945 -0.067623 -0.304554
v -0.150531 0.013084 -0.258125
v -0.157647 -0.063192 -0.237158
v -0.150091 -0.064251 -0.253276
v -0.156668 0.013492 -0.251919
v -0.138676 0.014789 -0.232203
v -0.157720 0.014005 -0.244123
v -0.155266 0.014438 -0.237533
v -0.150611 -0.062594 -0.228076
v -0.148495 0.014782 -0.232289
v -0.142476 -0.062494 -0.226555
v -0.105535 -0.057117 -0.144778
v -0.134941 -0.062663 -0.229120
v -0.073631 -0.058051 -0.158991
v -0.131330 0.014378 -0.238443
v -0.129749 -0.063192 -0.237166
v -0.129299 0.013764 -0.247793
v -0.129971 -0.063676 -0.244536
v -0.164553 -0.070232 -0.344232
v -0.133976 -0.064127 -0.251394
v -0.135128 0.013131 -0.257418
v -0.143001 -0.064362 -0.254968
v -0.144242 0.012957 -0.260052
v -0.083832 -0.071838 -0.368666
v -0.164553 0.024552 -0.350465
v -0.083832 0.022945 -0.374899
v 0.000114 0.022403 -0.383149
v 0.000114 0.031548 -0.244074
v -0.057390 0.031915 -0.238497
v -0.112684 0.033001 -0.221975
v 0.000114 0.026086 -0.243103
v -0.057270 0.026452 -0.237537
v -0.112448 0.027536 -0.221053
v -0.056781 0.018520 -0.234171
v 0.000029 0.018154 -0.239695
v 0.000114 0.012126 -0.234518
v 0.055986 0.012482 -0.229099
v 0.056849 0.018518 -0.234201
v 0.109710 0.013538 -0.213048
v 0.057498 0.026452 -0.237537
v 0.111486 0.019595 -0.217897
v 0.159223 0.015251 -0.186985
v 0.161840 0.021334 -0.191406
v 0.112677 0.027536 -0.221053
v 0.163530 0.029296 -0.194283
v 0.057619 0.031915 -0.238497
v 0.112913 0.033001 -0.221975
v 0.164782 0.024552 -0.350465
v 0.239174 0.027161 -0.310787
v 0.163873 0.034765 -0.195150
v 0.188543 0.033013 -0.221785
v 0.208539 0.037139 -0.159049
v 0.208103 0.031665 -0.158257
v 0.242211 0.026534 -0.112295
v 0.205980 0.023677 -0.155749
v 0.244683 0.034552 -0.114358
v 0.269139 0.029798 -0.062716
v 0.245196 0.040031 -0.115057
v 0.271864 0.037845 -0.064275
v 0.285728 0.033338 -0.008916
v 0.288603 0.041418 -0.009930
v 0.272434 0.043331 -0.064869
v 0.422142 0.045128 -0.037544
v 0.397656 0.039832 -0.118091
v 0.289208 0.046912 -0.010412
v 0.294254 0.045135 0.046585
v 0.294871 0.050636 0.046223
v 0.385886 0.053461 0.089184
v 0.288603 0.048851 0.103100
v 0.289208 0.054360 0.102857
v 0.272434 0.057941 0.157313
v 0.271864 0.052424 0.157444
v 0.269202 0.044232 0.156802
v 0.242302 0.047492 0.206399
v 0.244683 0.055717 0.207526
v 0.206100 0.050353 0.249870
v 0.245196 0.061241 0.207501
v 0.208102 0.058604 0.251424
v 0.161977 0.052693 0.285548
v 0.208539 0.064134 0.251493
v 0.163529 0.060973 0.287452
v 0.163872 0.066508 0.287595
v 0.111635 0.054437 0.312068
v 0.112676 0.062733 0.314220
v 0.057498 0.063817 0.330705
v 0.112912 0.068272 0.314421
v 0.057010 0.055512 0.328404
v 0.000192 0.055879 0.333934
v 0.000114 0.049218 0.329587
v 0.055985 0.048862 0.324167
v 0.109709 0.047807 0.308116
v 0.055014 0.043275 0.317697
v 0.000510 0.043627 0.323057
v -0.054012 0.043285 0.317847
v 0.000114 0.040490 0.315454
v -0.052857 0.040152 0.310316
v -0.077576 0.038917 0.299824
v -0.103792 0.039151 0.295098
v -0.106451 0.042262 0.302264
v -0.169489 0.035731 0.251376
v -0.150734 0.037526 0.270389
v -0.154796 0.040592 0.276896
v -0.191879 0.035340 0.237133
v -0.197184 0.038347 0.242736
v -0.225646 0.032675 0.196609
v -0.235569 0.030510 0.171984
v -0.250737 0.029635 0.150377
v -0.265773 0.024049 0.073721
v -0.255187 0.026210 0.098059
v -0.240374 0.029373 0.146149
v -0.216320 0.032287 0.190471
v -0.183948 0.034842 0.229320
v -0.233233 0.031728 0.143522
v -0.209803 0.034555 0.186522
v -0.178310 0.037031 0.224189
v -0.202609 0.041148 0.181013
v -0.225177 0.038418 0.139494
v -0.233646 0.045534 0.092566
v -0.220080 0.048427 0.136600
v -0.239085 0.035457 0.094439
v -0.243802 0.032375 0.047577
v -0.238229 0.042522 0.046775
v -0.247695 0.028659 0.096850
v -0.252634 0.025466 0.048298
v -0.247860 0.022273 -0.000275
v -0.239145 0.029293 0.000708
v -0.260189 0.022922 0.048045
v -0.255187 0.019633 -0.001969
v -0.240374 0.016471 -0.050061
v -0.233558 0.019200 -0.046993
v -0.255496 0.017332 -0.028441
v -0.271405 0.022906 0.048047
v -0.266188 0.019476 -0.004124
v -0.250737 0.016177 -0.054287
v -0.206304 0.011380 -0.118955
v -0.216320 0.013556 -0.094384
v -0.178906 0.013883 -0.127844
v -0.183948 0.011002 -0.133233
v -0.210276 0.016366 -0.090072
v -0.202778 0.023598 -0.085913
v -0.172470 0.021202 -0.122333
v -0.168433 0.031605 -0.119215
v -0.135528 0.019233 -0.152233
v -0.132313 0.029686 -0.148414
v -0.090714 0.036436 -0.169738
v -0.131747 0.037856 -0.148136
v -0.091958 0.022996 -0.171738
v -0.090899 0.030899 -0.169817
v -0.046284 0.030023 -0.183146
v -0.046189 0.035561 -0.183040
v -0.034742 0.036093 -0.174944
v -0.077299 0.036819 -0.163914
v 0.000114 0.035266 -0.187531
v 0.000096 0.027083 -0.187981
v 0.009177 0.035927 -0.177480
v 0.046418 0.035561 -0.183040
v 0.073857 0.036733 -0.165224
v 0.046597 0.027380 -0.183475
v 0.043838 0.036213 -0.173121
v 0.090942 0.036436 -0.169736
v 0.091307 0.028253 -0.170121
v 0.105764 0.037667 -0.151011
v 0.131976 0.037856 -0.148136
v 0.132517 0.029687 -0.148429
v 0.132194 0.038736 -0.134758
v 0.167942 0.039768 -0.119066
v 0.168636 0.031607 -0.119239
v 0.165038 0.040655 -0.105571
v 0.197459 0.042097 -0.083644
v 0.198280 0.033945 -0.083672
v 0.191546 0.042958 -0.070547
v 0.219392 0.044754 -0.043232
v 0.220308 0.036615 -0.043088
v 0.217274 0.046935 -0.010065
v 0.207174 0.045009 -0.039362
v 0.232898 0.047638 0.000621
v 0.233875 0.039508 0.000945
v 0.224106 0.049786 0.033294
v 0.237459 0.050636 0.046223
v 0.238458 0.042519 0.046741
v 0.222330 0.052669 0.077144
v 0.232898 0.053635 0.091825
v 0.233883 0.045528 0.092534
v 0.212014 0.055475 0.119810
v 0.219392 0.056518 0.135674
v 0.220321 0.048426 0.136571
v 0.193551 0.058095 0.159653
v 0.197459 0.059176 0.176088
v 0.198301 0.051090 0.177154
v 0.167662 0.060427 0.195123
v 0.167942 0.061505 0.211511
v 0.168661 0.053431 0.212729
v 0.135335 0.062383 0.224874
v 0.131976 0.063416 0.240581
v 0.132543 0.055353 0.241924
v 0.097815 0.063889 0.247764
v 0.090942 0.064836 0.262181
v 0.091340 0.056777 0.263619
v 0.046417 0.065711 0.275482
v 0.065173 0.064708 0.260230
v 0.034972 0.065179 0.267385
v 0.073848 -0.030244 0.263904
v 0.113769 -0.031455 0.245487
v 0.031116 -0.029568 0.274189
v 0.158488 -0.027007 0.313128
v 0.175881 -0.022403 0.383149
v 0.000114 -0.029442 0.276093
v 0.175881 0.072381 0.376916
v -0.175668 0.072381 0.376914
v -0.175668 -0.022403 0.383149
v 0.175881 -0.024976 0.344023
v 0.175881 0.069808 0.337790
v 0.158489 0.067777 0.306894
v 0.284967 0.067777 0.306894
v 0.284965 -0.027007 0.313128
v 0.191547 -0.036470 0.169222
v 0.173362 -0.034819 0.194328
v 0.149341 -0.033155 0.219637
v 0.385886 -0.033024 0.221622
v 0.267853 -0.022403 0.383149
v 0.456042 -0.022403 0.383149
v 0.267853 -0.024976 0.344023
v 0.267853 0.069808 0.337790
v 0.267853 0.072381 0.376916
v 0.456042 0.072381 0.376916
v 0.456057 0.060619 0.198035
v 0.456057 -0.034165 0.204268
v 0.385886 0.061760 0.215389
v 0.385886 -0.041323 0.095419
v 0.416847 0.060619 0.198035
v 0.416847 -0.034165 0.204268
v 0.416848 -0.040200 0.112494
v 0.422142 -0.049656 -0.031311
v 0.217273 -0.040447 0.108741
v 0.224297 -0.044742 0.043412
v 0.223155 -0.042706 0.074374
v 0.218221 -0.047601 -0.000061
v 0.207174 -0.049775 -0.033129
v 0.397656 -0.054952 -0.111857
v 0.193550 -0.051606 -0.060978
v 0.357893 -0.059833 -0.186092
v 0.357893 0.034951 -0.192326
v 0.304380 -0.064112 -0.251156
v 0.273498 -0.055663 -0.122669
v 0.326061 -0.058811 -0.170539
v 0.326061 0.035973 -0.176772
v 0.273498 0.039121 -0.128902
v 0.241107 -0.064918 -0.263422
v 0.239174 -0.067623 -0.304554
v 0.188543 -0.061770 -0.215552
v 0.241107 0.029866 -0.269655
v 0.304380 0.030672 -0.257389
v 0.167656 -0.053939 -0.096455
v 0.135329 -0.055895 -0.126204
v 0.105764 -0.057117 -0.144778
v 0.077525 -0.057965 -0.157681
v 0.142617 -0.062494 -0.226555
v 0.134483 -0.062594 -0.228076
v 0.150153 -0.062663 -0.229120
v 0.155344 -0.063192 -0.237166
v 0.153764 0.014378 -0.238443
v 0.146417 0.014788 -0.232203
v 0.128449 0.013488 -0.251986
v 0.135411 0.013044 -0.258725
v 0.136599 0.014782 -0.232289
v 0.142612 0.012969 -0.259870
v 0.127373 0.014005 -0.244123
v 0.129827 0.014438 -0.237533
v 0.150460 0.013157 -0.257012
v 0.155794 0.013762 -0.247823
v 0.155122 -0.063676 -0.244536
v 0.152076 -0.064056 -0.250312
v 0.164782 -0.070232 -0.344232
v 0.144749 -0.064333 -0.254511
v 0.136563 -0.064306 -0.254117
v 0.129153 -0.063918 -0.248210
v 0.127447 -0.063192 -0.237158
v 0.084061 -0.071838 -0.368666
v 0.000114 -0.072381 -0.376916
v 0.084061 0.022945 -0.374899
v 0.034968 -0.058690 -0.168712
v -0.008943 -0.058857 -0.171247
v -0.043609 -0.058571 -0.166888
v 0.207174 -0.038520 0.138037
v 0.456057 -0.040200 0.112494
v 0.456057 0.054584 0.106260
v 0.416848 0.054584 0.106260
v -0.034751 -0.029605 0.273617
v -0.077321 -0.030331 0.262580
v -0.175668 0.069808 0.337790
v -0.158556 -0.027007 0.313128
v -0.175668 -0.024976 0.344023
v -0.158554 0.067777 0.306894
v -0.285032 0.067777 0.306894
v -0.163644 0.066508 0.287595
v -0.208311 0.064134 0.251491
v -0.112685 0.068272 0.314421
v -0.112448 0.062733 0.314220
v -0.057390 0.069358 0.330939
v -0.163301 0.060973 0.287450
v -0.205755 0.050359 0.249985
v -0.161611 0.052699 0.285639
v -0.207874 0.058604 0.251424
v -0.244455 0.055717 0.207526
v -0.241984 0.047502 0.206532
v -0.268910 0.044241 0.156954
v -0.264473 0.037770 0.155471
v -0.238008 0.040976 0.204233
v -0.202392 0.043787 0.246977
v -0.231999 0.035610 0.201079
v -0.257884 0.032483 0.153542
v -0.273858 0.029090 0.101940
v -0.266188 0.026337 0.100215
v -0.279304 0.025560 0.048261
v -0.280770 0.034291 0.102561
v -0.286273 0.030672 0.047536
v -0.285499 0.040706 0.103152
v -0.291111 0.037027 0.047199
v -0.271636 0.052424 0.157442
v -0.288374 0.048851 0.103100
v -0.288979 0.054360 0.102855
v -0.294026 0.045135 0.046585
v -0.272206 0.057941 0.157313
v -0.385486 0.061760 0.215389
v -0.385486 0.053461 0.089187
v -0.244967 0.061241 0.207501
v -0.385486 -0.041323 0.095417
v -0.416448 0.054584 0.106260
v -0.385486 -0.033024 0.221622
v -0.421914 0.045128 -0.037544
v -0.294643 0.050636 0.046223
v -0.288979 0.046912 -0.010412
v -0.288374 0.041419 -0.009930
v -0.268974 0.029809 -0.062569
v -0.285531 0.033347 -0.008759
v -0.271636 0.037845 -0.064275
v -0.272206 0.043331 -0.064869
v -0.244454 0.034552 -0.114358
v -0.242077 0.026550 -0.112164
v -0.205872 0.023689 -0.155634
v -0.202392 0.017558 -0.151907
v -0.238008 0.020368 -0.109166
v -0.232430 0.015501 -0.104690
v -0.197738 0.012755 -0.146439
v -0.264473 0.023575 -0.060403
v -0.258184 0.018633 -0.057080
v -0.280770 0.027054 -0.007490
v -0.274012 0.022030 -0.005435
v -0.225646 0.013137 -0.100519
v -0.191879 0.010473 -0.141041
v -0.125683 0.007100 -0.184040
v -0.150734 0.008286 -0.174297
v -0.155447 0.010502 -0.180722
v -0.103792 0.006661 -0.199009
v -0.052856 0.005661 -0.214226
v -0.107178 0.008825 -0.206215
v -0.025906 0.005144 -0.213782
v 0.077821 0.005810 -0.203658
v 0.000114 0.005323 -0.219364
v 0.050897 0.006388 -0.203393
v 0.000114 0.006065 -0.208319
v -0.050668 0.006388 -0.203393
v -0.099499 0.007348 -0.188804
v -0.000306 0.009070 -0.201046
v -0.049615 0.009388 -0.196185
v -0.047804 0.015101 -0.189722
v -0.000037 0.016567 -0.192801
v -0.096999 0.010323 -0.181945
v -0.093881 0.016006 -0.175958
v -0.144502 0.008906 -0.165113
v -0.140661 0.011842 -0.158864
v -0.046844 0.022104 -0.185226
v 0.047548 0.016864 -0.188218
v 0.049009 0.009376 -0.196351
v 0.093316 0.017763 -0.174576
v 0.096445 0.010302 -0.182263
v 0.135503 0.019223 -0.152399
v 0.140183 0.011812 -0.159328
v 0.172479 0.021189 -0.122548
v 0.178537 0.013845 -0.128431
v 0.202838 0.023581 -0.086162
v 0.225404 0.026310 -0.044647
v 0.210033 0.016321 -0.090765
v 0.233461 0.019149 -0.047767
v 0.184176 0.011002 -0.133233
v 0.216548 0.013556 -0.094384
v 0.169718 0.008996 -0.155212
v 0.235798 0.014216 -0.075821
v 0.240603 0.016471 -0.050060
v 0.247923 0.022219 -0.001091
v 0.255415 0.019633 -0.001968
v 0.268808 0.021559 0.036018
v 0.252863 0.025411 0.047462
v 0.260417 0.022922 0.048045
v 0.258879 0.025484 0.095355
v 0.248089 0.028605 0.096031
v 0.233785 0.031677 0.142752
v 0.239373 0.035437 0.094141
v 0.225521 0.038402 0.139215
v 0.203010 0.041130 0.180760
v 0.172701 0.043523 0.217183
v 0.210503 0.034509 0.185826
v 0.179135 0.036992 0.223602
v 0.240602 0.029373 0.146151
v 0.216548 0.032287 0.190471
v 0.235653 0.030528 0.172249
v 0.184176 0.034841 0.229320
v 0.169481 0.035743 0.251566
v 0.140889 0.039031 0.254622
v 0.144730 0.036938 0.261203
v 0.097225 0.040550 0.277695
v 0.099727 0.038496 0.284892
v 0.064559 0.039263 0.305266
v 0.050896 0.039455 0.299480
v 0.049839 0.041485 0.291942
v 0.000541 0.041803 0.296809
v 0.000114 0.046608 0.289436
v 0.047851 0.047850 0.283010
v 0.046634 0.057651 0.276981
v 0.093596 0.046953 0.269307
v 0.000150 0.052965 0.283967
v 0.000114 0.060531 0.280815
v -0.047323 0.047853 0.283069
v -0.046368 0.057652 0.276988
v -0.090714 0.064836 0.262181
v -0.046190 0.065711 0.275482
v -0.091081 0.056785 0.263627
v -0.093086 0.046962 0.269422
v -0.131747 0.063416 0.240579
v -0.132290 0.055354 0.241941
v -0.135271 0.045501 0.247251
v -0.167714 0.061505 0.211509
v -0.168407 0.053435 0.212754
v -0.197231 0.059176 0.176088
v -0.172253 0.043541 0.217394
v -0.198052 0.051098 0.177181
v -0.219164 0.056518 0.135674
v -0.201871 0.057045 0.143696
v -0.217045 0.054337 0.102508
v -0.232670 0.053635 0.091825
v -0.222927 0.052077 0.068142
v -0.237230 0.050636 0.046223
v -0.224069 0.050042 0.037179
v -0.232670 0.047638 0.000621
v -0.217994 0.047184 -0.006285
v -0.233653 0.039510 0.000979
v -0.219164 0.044754 -0.043232
v -0.203535 0.044458 -0.047742
v -0.220092 0.036616 -0.043058
v -0.197231 0.042097 -0.083644
v -0.181252 0.041970 -0.085580
v -0.198072 0.033944 -0.083643
v -0.167714 0.039768 -0.119066
v -0.158363 0.040238 -0.111916
v -0.135100 0.038888 -0.132439
v -0.131974 -0.056048 -0.128519
v -0.105535 0.037667 -0.151011
v -0.158363 -0.054546 -0.105682
v -0.178929 -0.053020 -0.082471
v -0.181804 -0.061353 -0.209207
v -0.274889 -0.055779 -0.124434
v -0.357664 -0.059833 -0.186090
v -0.197542 -0.051080 -0.052969
v -0.322862 0.035556 -0.183118
v -0.274889 0.039005 -0.130667
v -0.322862 -0.059228 -0.176885
v -0.304151 -0.064112 -0.251156
v -0.229778 0.029982 -0.267890
v -0.229778 -0.064802 -0.261658
v -0.181804 0.033431 -0.215440
v -0.238945 0.027161 -0.310787
v -0.163644 0.034765 -0.195150
v -0.208310 0.037139 -0.159049
v -0.163301 0.029296 -0.194283
v -0.207874 0.031665 -0.158257
v -0.244967 0.040031 -0.115059
v -0.397427 0.039832 -0.118093
v -0.421914 -0.049656 -0.031311
v -0.397427 -0.054952 -0.111860
v -0.357664 0.034951 -0.192323
v -0.304151 0.030672 -0.257389
v -0.210470 -0.049228 -0.024801
v -0.219700 -0.047017 0.008824
v -0.223878 -0.044998 0.039527
v -0.222102 -0.042115 0.083375
v -0.214356 -0.039879 0.117373
v -0.203538 -0.037970 0.146412
v -0.186235 -0.035978 0.176702
v -0.285033 -0.027007 0.313128
v -0.167426 -0.034356 0.201366
v -0.135116 -0.032401 0.231102
v -0.456057 -0.022403 0.383146
v -0.267641 -0.024976 0.344023
v -0.267641 0.069808 0.337790
v -0.267641 -0.022403 0.383146
v -0.267641 0.072381 0.376914
v -0.456057 0.072381 0.376914
v -0.455657 0.060619 0.198035
v -0.455657 -0.034165 0.204268
v -0.416448 0.060619 0.198035
v -0.416448 -0.034165 0.204268
v -0.164810 0.060617 0.198013
v -0.113538 0.063329 0.239255
v -0.142066 0.062003 0.219096
v -0.105536 -0.031179 0.249685
v -0.073649 0.064539 0.257657
v -0.030893 0.065216 0.267955
v 0.000114 0.065341 0.269859
v 0.000114 0.066006 0.279973
v -0.186235 0.058806 0.170468
v -0.455657 -0.040200 0.112494
v -0.416448 -0.040200 0.112494
v -0.455657 0.054584 0.106260
v -0.161748 0.021342 -0.191318
v -0.158994 0.015252 -0.186985
v -0.109481 0.013538 -0.213048
v -0.111406 0.019600 -0.217838
v -0.055757 0.012482 -0.229099
v -0.000282 0.007437 -0.227308
v -0.054779 0.007791 -0.221950
v 0.053085 0.005661 -0.214226
v 0.054241 0.007780 -0.222098
v 0.104020 0.006661 -0.199009
v 0.106676 0.008805 -0.206511
v 0.155023 0.010474 -0.181150
v 0.150962 0.008286 -0.174297
v 0.192107 0.010473 -0.141041
v 0.197412 0.012719 -0.146985
v 0.225874 0.013137 -0.100519
v 0.232221 0.015459 -0.105333
v 0.250965 0.016177 -0.054287
v 0.258113 0.018586 -0.057793
v 0.266416 0.019476 -0.004122
v 0.274086 0.021979 -0.006193
v 0.279533 0.025509 0.047488
v 0.264702 0.023575 -0.060403
v 0.280999 0.027054 -0.007490
v 0.286502 0.030672 0.047536
v 0.280999 0.034290 0.102561
v 0.274240 0.029040 0.101181
v 0.291339 0.037016 0.047038
v 0.285759 0.040695 0.102993
v 0.264701 0.037769 0.155471
v 0.238236 0.040976 0.204236
v 0.258414 0.032436 0.152825
v 0.232660 0.035568 0.200441
v 0.197970 0.038311 0.242188
v 0.192107 0.035340 0.237133
v 0.225874 0.032675 0.196611
v 0.250965 0.029635 0.150380
v 0.266416 0.026336 0.100215
v 0.150962 0.037526 0.270389
v 0.155677 0.040563 0.276464
v 0.104020 0.039151 0.295101
v 0.107399 0.042243 0.301970
v 0.159222 0.046093 0.282052
v 0.202620 0.043786 0.246977
v 0.238237 0.020368 -0.109166
v 0.202621 0.017558 -0.151907
v -0.225295 0.026329 -0.044365
v -0.139952 0.039063 0.255088
v -0.096220 0.040572 0.278011
v -0.144502 0.036938 0.261201
v -0.099499 0.038496 0.284892
v -0.050668 0.039455 0.299480
v -0.048778 0.041496 0.292104
v 0.003525 0.039417 0.307257
v 0.135757 0.045488 0.247083
v 0.244030 0.032356 0.047274
v 0.239312 0.029275 0.000413
v 0.144731 0.008906 -0.165113
v 0.099728 0.007348 -0.188804
v -0.158994 0.046093 0.282052
v -0.109482 0.047807 0.308116
v -0.111254 0.054441 0.312131
v -0.056617 0.055514 0.328437
v -0.057270 0.063817 0.330705
v 0.000114 0.069725 0.336518
v 0.000114 0.064183 0.336272
v 0.057618 0.069358 0.330939
v -0.055757 0.048862 0.324167
vn -0.0000 -0.9978 0.0656
vn 0.7118 0.0410 0.7012
vn 0.6614 0.0507 0.7483
vn 0.9889 0.0158 0.1477
vn 0.9910 0.0129 0.1329
vn -0.0001 -0.9978 0.0657
vn 0.9374 -0.0304 -0.3470
vn -0.0000 -0.9979 0.0654
vn 0.6130 -0.0597 -0.7878
vn 0.7911 -0.0272 -0.6111
vn 0.0089 -0.0733 -0.9973
vn 0.1842 -0.0585 -0.9812
vn -0.3229 -0.0532 -0.9449
vn 0.0001 -0.9978 0.0656
vn -0.8408 -0.0260 -0.5408
vn -0.6482 -0.0615 -0.7590
vn -0.9995 0.0099 0.0295
vn -0.9773 -0.0234 -0.2107
vn -0.0001 -0.9978 0.0656
vn -0.8640 0.0286 0.5027
vn -0.8559 0.0275 0.5165
vn -0.3688 0.0668 0.9271
vn -0.2782 0.0586 0.9587
vn 0.2326 0.0675 0.9702
vn 0.2935 0.0615 0.9540
vn -0.4714 -0.0579 -0.8800
vn -0.2903 -0.0628 -0.9549
vn -0.0980 -0.0653 -0.9930
vn -0.0000 0.9978 -0.0656
vn 0.0962 0.1742 0.9800
vn 0.2851 0.1719 0.9430
vn 0.2706 0.3902 0.8801
vn 0.2851 0.1715 0.9430
vn 0.0913 0.3923 0.9153
vn 0.0915 0.3938 0.9146
vn -0.0775 0.6489 0.7569
vn 0.0777 0.6502 0.7558
vn -0.0773 0.6500 0.7560
vn -0.0910 0.3940 0.9146
vn -0.2299 0.6472 0.7268
vn -0.2294 0.6484 0.7259
vn -0.0913 0.3923 0.9153
vn -0.2702 0.3919 0.8795
vn -0.3737 0.6440 0.6676
vn -0.3731 0.6452 0.6668
vn -0.2706 0.3903 0.8800
vn -0.4396 0.3879 0.8101
vn -0.4401 0.3863 0.8106
vn -0.4638 0.1669 0.8701
vn -0.2851 0.1719 0.9430
vn -0.2851 0.1715 0.9430
vn -0.4638 0.1670 0.8701
vn -0.6256 0.1602 0.7635
vn -0.6256 0.1603 0.7635
vn -0.7242 0.3743 0.5792
vn -0.7248 0.3726 0.5795
vn -0.5935 0.3804 0.7093
vn -0.7642 0.1516 0.6269
vn -0.7643 0.1515 0.6269
vn -0.8280 0.3649 0.4257
vn -0.8287 0.3631 0.4259
vn -0.8740 0.1411 0.4650
vn -0.9000 0.3540 0.2542
vn -0.9007 0.3523 0.2542
vn -0.9500 0.1294 0.2841
vn -0.9500 0.1296 0.2841
vn -0.9889 0.1169 0.0912
vn -0.9889 0.1039 -0.1057
vn -0.9500 0.0911 -0.2986
vn -0.8740 0.0789 -0.4795
vn -0.9007 0.3160 -0.2982
vn -0.8283 0.3059 -0.4694
vn -0.8287 0.3042 -0.4698
vn -0.7246 0.2951 -0.6228
vn -0.7249 0.2933 -0.6233
vn -0.8740 0.0790 -0.4795
vn -0.7642 0.0681 -0.6413
vn -0.5933 0.2857 -0.7525
vn -0.5935 0.2844 -0.7529
vn -0.7642 0.0683 -0.6413
vn -0.6256 0.0591 -0.7779
vn -0.6256 0.0588 -0.7779
vn -0.4638 0.0516 -0.8844
vn -0.4400 0.2788 -0.8536
vn -0.4401 0.2768 -0.8542
vn -0.2706 0.2717 -0.9236
vn -0.2851 0.0468 -0.9574
vn -0.4638 0.0517 -0.8844
vn -0.2707 0.2734 -0.9230
vn -0.0777 0.5455 -0.8345
vn -0.0915 0.2708 -0.9583
vn -0.0776 0.5442 -0.8354
vn -0.2298 0.5479 -0.8044
vn -0.1729 0.7582 -0.6287
vn -0.2298 0.5467 -0.8052
vn -0.0588 0.7599 -0.6473
vn -0.0584 0.7565 -0.6514
vn 0.0305 0.9245 -0.3800
vn 0.0571 0.7600 -0.6474
vn -0.0314 0.9245 -0.3798
vn 0.0312 0.9234 -0.3826
vn 0.0065 0.9912 -0.1320
vn 0.0509 0.9708 -0.2342
vn 0.0925 0.9243 -0.3704
vn 0.1502 0.9260 -0.3463
vn 0.0913 0.9254 -0.3679
vn 0.0313 0.9917 -0.1247
vn 0.0311 0.9917 -0.1244
vn 0.1485 0.9271 -0.3441
vn 0.2022 0.9285 -0.3113
vn 0.1113 0.9731 -0.2017
vn 0.2002 0.9296 -0.3095
vn 0.2465 0.9317 -0.2667
vn 0.0511 0.9929 -0.1079
vn 0.0514 0.9928 -0.1081
vn 0.1548 0.9768 -0.1482
vn 0.0636 0.9944 -0.0849
vn -0.1778 0.9840 -0.0101
vn -0.1435 0.9881 0.0545
vn -0.1752 0.9845 -0.0108
vn -0.0607 0.9976 -0.0326
vn -0.2470 0.9584 0.1428
vn -0.1414 0.9885 0.0528
vn -0.2819 0.9552 0.0902
vn -0.2788 0.9562 0.0891
vn -0.4766 0.8085 0.3453
vn -0.2442 0.9594 0.1411
vn -0.5445 0.8025 0.2439
vn -0.5467 0.8008 0.2445
vn -0.8400 0.4931 0.2264
vn -0.8390 0.4949 0.2265
vn -0.7720 0.5047 0.3864
vn -0.5937 0.7939 0.1311
vn -0.8733 0.4840 0.0561
vn -0.6178 0.7863 0.0105
vn -0.8743 0.4822 0.0558
vn -0.5915 0.7956 0.1310
vn -0.6155 0.7880 0.0108
vn -0.3149 0.9486 -0.0303
vn -0.3027 0.9526 0.0312
vn -0.3059 0.9515 0.0317
vn -0.6157 0.7800 -0.1118
vn -0.3150 0.9445 -0.0931
vn -0.6179 0.7782 -0.1126
vn -0.3181 0.9476 -0.0305
vn -0.0685 0.9959 -0.0586
vn -0.3181 0.9434 -0.0938
vn -0.1822 0.9798 -0.0826
vn -0.3059 0.9392 -0.1560
vn -0.0659 0.9941 -0.0857
vn -0.3030 0.9404 -0.1546
vn -0.1848 0.9793 -0.0830
vn 0.0661 0.9961 -0.0588
vn 0.0658 0.9961 -0.0589
vn 0.1679 0.9857 -0.0131
vn 0.0586 0.9977 -0.0338
vn -0.1637 0.9746 -0.1531
vn -0.1614 0.9752 -0.1517
vn -0.2448 0.9328 -0.2646
vn -0.2469 0.9315 -0.2670
vn -0.0532 0.9925 -0.1096
vn -0.2818 0.9352 -0.2144
vn -0.4791 0.7546 -0.4484
vn -0.5454 0.7639 -0.3450
vn -0.4778 0.7565 -0.4466
vn -0.2793 0.9364 -0.2125
vn -0.6760 0.4396 -0.5915
vn -0.5540 0.4289 -0.7135
vn -0.5538 0.4307 -0.7126
vn -0.3929 0.7481 -0.5347
vn -0.4007 0.4206 -0.8139
vn -0.4632 0.0621 -0.8841
vn -0.4596 0.0281 -0.8877
vn -0.6249 0.0697 -0.7776
vn -0.4486 0.2674 -0.8528
vn -0.2858 0.0233 -0.9580
vn -0.2858 0.0234 -0.9580
vn -0.2716 0.2615 -0.9262
vn -0.0964 0.0208 -0.9951
vn -0.1001 0.0548 -0.9935
vn 0.0961 0.0543 -0.9939
vn 0.0960 0.0549 -0.9939
vn 0.2848 0.0571 -0.9569
vn 0.2847 0.0577 -0.9569
vn 0.4632 0.0623 -0.8841
vn 0.4632 0.0624 -0.8841
vn 0.6249 0.0693 -0.7777
vn 0.7633 0.0785 -0.6412
vn 0.6248 0.0696 -0.7777
vn 0.7632 0.0790 -0.6413
vn 0.8729 0.0895 -0.4796
vn 0.8728 0.0897 -0.4797
vn 0.9489 0.1015 -0.2989
vn 0.9488 0.1020 -0.2990
vn 0.9877 0.1144 -0.1063
vn 0.9877 0.1148 -0.1064
vn 0.9877 0.1274 0.0904
vn 0.9877 0.1278 0.0903
vn 0.9488 0.1399 0.2831
vn 0.8729 0.1516 0.4638
vn 0.9488 0.1403 0.2830
vn 0.8729 0.1521 0.4636
vn 0.7633 0.1619 0.6254
vn 0.7633 0.1623 0.6253
vn 0.6249 0.1706 0.7619
vn 0.6249 0.1709 0.7618
vn 0.4632 0.1773 0.8683
vn 0.4633 0.1778 0.8682
vn 0.2847 0.1820 0.9412
vn -0.2310 -0.0587 -0.9712
vn -0.3574 -0.0687 -0.9314
vn -0.4196 -0.0486 -0.9064
vn -0.2345 -0.0601 -0.9703
vn 1.0000 -0.0000 -0.0000
vn -0.0000 0.0656 0.9978
vn 0.8719 -0.0321 -0.4887
vn -0.8752 -0.0317 -0.4827
vn -1.0000 -0.0000 -0.0000
vn 1.0000 -0.0000 0.0001
vn -0.4897 -0.0572 -0.8700
vn -0.0000 -0.0656 -0.9978
vn -0.4837 0.0575 0.8733
vn -0.9993 -0.0076 -0.0364
vn -0.9857 -0.0036 -0.1685
vn -0.9904 0.0127 0.1376
vn -0.9992 -0.0063 -0.0401
vn -0.9879 0.0065 0.1552
vn -0.9487 0.0239 0.3153
vn 0.8819 -0.0309 -0.4704
vn 0.9569 -0.0190 -0.2897
vn 0.7730 -0.0416 -0.6330
vn -0.6741 -0.0485 -0.7370
vn -0.7386 0.0442 0.6727
vn 0.6741 0.0485 0.7370
vn 0.6344 -0.0507 -0.7713
vn 0.7386 -0.0442 -0.6727
vn -0.6780 0.0519 0.7333
vn -0.6651 0.0453 0.7454
vn -0.5328 0.0587 0.8442
vn -0.4163 0.0597 0.9072
vn -0.5247 0.0559 0.8495
vn -0.0001 -0.9979 0.0655
vn -0.0000 -0.9978 0.0655
vn -0.8849 0.0274 0.4650
vn -0.9774 -0.0234 -0.2101
vn -0.8653 0.0253 0.5006
vn -0.4980 0.0646 0.8648
vn -0.3427 0.0555 0.9378
vn 0.0482 0.0704 0.9964
vn 0.1573 0.0611 0.9857
vn 0.6241 0.0557 0.7793
vn 0.9883 0.0164 0.1515
vn 0.6963 0.0413 0.7166
vn -0.0000 -0.9978 0.0657
vn 0.9908 0.0131 0.1346
vn 0.4714 -0.0579 -0.8800
vn 0.2903 -0.0628 -0.9549
vn 0.0980 -0.0653 -0.9930
vn -0.2514 0.0672 0.9655
vn -0.2549 0.0686 0.9645
vn -0.0578 0.0765 0.9954
vn -0.1250 0.0577 0.9905
vn 0.1250 0.0725 0.9895
vn 0.0578 0.0545 0.9968
vn 0.2549 0.0583 0.9652
vn -0.4076 0.0568 0.9114
vn -0.8083 0.0423 0.5872
vn -0.7980 0.0359 0.6016
vn -0.8986 0.0288 0.4377
vn -0.8944 0.0262 0.4465
vn -0.9456 0.0213 0.3246
vn -0.9720 -0.0264 -0.2333
vn -0.9456 -0.0143 -0.3250
vn -0.8944 -0.0262 -0.4465
vn -0.9076 -0.0344 -0.4183
vn 0.9734 -0.0150 -0.2286
vn -0.4838 0.0574 0.8733
vn -0.5887 -0.0421 -0.8073
vn -0.7260 -0.0377 -0.6866
vn -0.6779 -0.0592 -0.7327
vn -0.8105 -0.0436 -0.5842
vn -0.8083 -0.0423 -0.5872
vn 0.4638 0.0517 -0.8844
vn 0.2851 0.0468 -0.9574
vn 0.4638 0.0519 -0.8844
vn 0.6256 0.0591 -0.7779
vn 0.5929 0.2859 -0.7528
vn 0.5935 0.2840 -0.7530
vn 0.4401 0.2769 -0.8542
vn 0.7248 0.2934 -0.6233
vn 0.7642 0.0680 -0.6413
vn 0.6257 0.0587 -0.7779
vn 0.7243 0.2950 -0.6232
vn 0.7014 0.5768 -0.4188
vn 0.8281 0.3059 -0.4698
vn 0.6138 0.5673 -0.5490
vn 0.7023 0.5754 -0.4190
vn 0.5270 0.7800 -0.3373
vn 0.4616 0.7728 -0.4355
vn 0.6147 0.5659 -0.5494
vn 0.5229 0.7832 -0.3363
vn 0.3025 0.9404 -0.1555
vn 0.5679 0.7910 -0.2278
vn 0.2787 0.9364 -0.2133
vn 0.3053 0.9394 -0.1558
vn 0.3176 0.9436 -0.0938
vn 0.1746 0.9812 -0.0820
vn 0.0632 0.9944 -0.0849
vn 0.3148 0.9445 -0.0940
vn 0.5910 0.7988 -0.1125
vn 0.5722 0.7877 -0.2281
vn 0.7630 0.5857 -0.2735
vn 0.5953 0.7957 -0.1119
vn 0.7940 0.5962 -0.1186
vn 0.7621 0.5869 -0.2735
vn 0.9000 0.3177 -0.2984
vn 0.7930 0.5975 -0.1188
vn 0.9369 0.3300 -0.1157
vn 0.9007 0.3160 -0.2982
vn 0.9500 0.0910 -0.2986
vn 0.9890 0.1039 -0.1057
vn 0.9375 0.3283 -0.1153
vn 0.9500 0.0912 -0.2986
vn 0.8740 0.0791 -0.4795
vn 0.8740 0.0790 -0.4795
vn 0.7642 0.0681 -0.6413
vn 0.4837 0.0574 0.8734
vn 0.9889 0.1039 -0.1057
vn 0.9889 0.1169 0.0912
vn 0.9500 0.1296 0.2841
vn 0.9002 0.3539 0.2537
vn 0.9007 0.3523 0.2542
vn 0.9375 0.3406 0.0714
vn 0.9500 0.1294 0.2841
vn 0.8740 0.1411 0.4650
vn 0.8287 0.3630 0.4259
vn 0.8283 0.3647 0.4253
vn 0.6141 0.6342 0.4698
vn 0.7246 0.3740 0.5789
vn 0.7017 0.6265 0.3394
vn 0.6148 0.6329 0.4707
vn 0.5270 0.8175 0.2322
vn 0.4587 0.8263 0.3268
vn 0.4614 0.8234 0.3304
vn 0.7024 0.6253 0.3401
vn 0.5722 0.8108 0.1229
vn 0.5236 0.8205 0.2293
vn 0.7622 0.6176 0.1939
vn 0.7630 0.6164 0.1945
vn 0.5684 0.8139 0.1207
vn 0.5953 0.8035 0.0067
vn 0.7940 0.6066 0.0395
vn 0.7931 0.6079 0.0391
vn 0.3149 0.9486 -0.0313
vn 0.5911 0.8066 0.0052
vn 0.3028 0.9526 0.0302
vn 0.3054 0.9517 0.0315
vn 0.2813 0.9554 0.0899
vn 0.2791 0.9562 0.0881
vn 0.1356 0.9896 0.0479
vn 0.2465 0.9586 0.1424
vn 0.0583 0.9977 -0.0340
vn 0.2446 0.9594 0.1402
vn 0.2022 0.9613 0.1870
vn 0.0421 0.9990 -0.0135
vn 0.0419 0.9990 -0.0138
vn 0.2008 0.9621 0.1845
vn 0.1502 0.9634 0.2221
vn 0.0827 0.9923 0.0918
vn 0.0192 0.9998 -0.0016
vn 0.0925 0.9648 0.2462
vn 0.1493 0.9642 0.2193
vn 0.0193 0.9998 -0.0012
vn 0.0172 0.9936 0.1119
vn 0.0183 0.9677 -0.2513
vn -0.0066 1.0000 0.0014
vn -0.0538 0.9682 -0.2442
vn 0.0179 0.9685 -0.2485
vn -0.0068 0.9909 -0.1348
vn -0.0313 0.9231 -0.3833
vn -0.0927 0.9240 -0.3709
vn -0.0531 0.9690 -0.2414
vn -0.0315 0.9244 -0.3801
vn -0.1727 0.7615 -0.6247
vn -0.0652 0.7566 -0.6506
vn -0.0613 0.7394 -0.6704
vn -0.0923 0.9253 -0.3678
vn -0.1731 0.7578 -0.6291
vn -0.2801 0.7649 -0.5801
vn -0.1495 0.9271 -0.3438
vn -0.1505 0.9258 -0.3468
vn -0.3920 0.7501 -0.5326
vn -0.2872 0.7425 -0.6052
vn -0.2026 0.9283 -0.3117
vn -0.2010 0.9296 -0.3090
vn -0.1162 0.9713 -0.2076
vn -0.0325 0.9914 -0.1268
vn -0.1177 0.9707 -0.2096
vn -0.3799 0.5524 -0.7420
vn -0.2295 0.5479 -0.8044
vn -0.2295 0.5485 -0.8040
vn -0.2717 0.2624 -0.9259
vn -0.0972 0.4158 -0.9043
vn -0.0706 0.5457 -0.8350
vn -0.0839 0.2587 -0.9623
vn 0.0852 0.4143 -0.9061
vn 0.0846 0.4161 -0.9054
vn 0.0602 0.7375 -0.6726
vn 0.2527 0.4167 -0.8732
vn 0.2518 0.4187 -0.8725
vn 0.0592 0.7396 -0.6704
vn 0.1789 0.7396 -0.6489
vn 0.4108 0.4219 -0.8083
vn 0.4100 0.4235 -0.8078
vn 0.1777 0.7414 -0.6471
vn 0.2911 0.7430 -0.6026
vn 0.5539 0.4288 -0.7136
vn 0.5530 0.4305 -0.7133
vn 0.2895 0.7448 -0.6012
vn 0.3923 0.7481 -0.5352
vn 0.6764 0.4376 -0.5925
vn 0.6753 0.4393 -0.5924
vn 0.4787 0.7545 -0.4490
vn 0.3905 0.7499 -0.5340
vn 0.7731 0.4479 -0.4491
vn 0.7720 0.4497 -0.4492
vn 0.4765 0.7564 -0.4482
vn 0.5467 0.7619 -0.3473
vn 0.5445 0.7637 -0.3469
vn 0.2787 0.9363 -0.2135
vn 0.2441 0.9327 -0.2655
vn 0.2469 0.9315 -0.2670
vn 0.1416 0.9731 -0.1819
vn 0.1436 0.9725 -0.1835
vn 0.0607 0.9933 -0.0983
vn 0.2819 0.9352 -0.2145
vn 0.1752 0.9774 -0.1182
vn 0.3027 0.9403 -0.1556
vn 0.3059 0.9392 -0.1560
vn 0.2498 0.9586 -0.1367
vn 0.0594 0.9957 -0.0714
vn 0.3149 0.9444 -0.0941
vn 0.3181 0.9434 -0.0938
vn 0.0885 0.9948 -0.0510
vn 0.2751 0.9604 -0.0431
vn 0.3150 0.9486 -0.0314
vn 0.5921 0.7955 0.1290
vn 0.2791 0.9600 0.0223
vn 0.6157 0.7879 0.0087
vn 0.5940 0.7938 0.1303
vn 0.7731 0.5029 0.3865
vn 0.7725 0.5047 0.3854
vn 0.8393 0.4948 0.2254
vn 0.5472 0.8007 0.2439
vn 0.6764 0.5116 0.5299
vn 0.6760 0.5133 0.5288
vn 0.4792 0.8068 0.3457
vn 0.5454 0.8024 0.2421
vn 0.2793 0.9562 0.0881
vn 0.4778 0.8084 0.3437
vn 0.2449 0.9594 0.1403
vn 0.2819 0.9552 0.0902
vn 0.0607 0.9976 -0.0326
vn 0.1414 0.9885 0.0529
vn 0.2469 0.9585 0.1428
vn 0.1434 0.9881 0.0547
vn 0.0437 0.9990 -0.0116
vn 0.2010 0.9620 0.1846
vn 0.2026 0.9612 0.1875
vn 0.1495 0.9641 0.2194
vn 0.1505 0.9632 0.2227
vn 0.0863 0.9914 0.0988
vn 0.1197 0.9782 0.1698
vn 0.0173 0.9998 -0.0078
vn 0.0927 0.9646 0.2467
vn 0.0923 0.9655 0.2436
vn 0.1797 0.8196 0.5440
vn 0.0590 0.8379 0.5426
vn 0.0315 0.9662 0.2557
vn 0.0556 0.8189 0.5712
vn 0.2529 0.5295 0.8097
vn 0.0737 0.5291 0.8453
vn 0.0848 0.6495 0.7556
vn 0.1798 0.8179 0.5466
vn -0.0993 0.3823 0.9187
vn 0.0994 0.3831 0.9184
vn -0.0732 0.5310 0.8442
vn -0.0843 0.6501 0.7551
vn -0.2525 0.5279 0.8109
vn -0.0920 0.1848 0.9785
vn -0.2847 0.1821 0.9411
vn -0.2848 0.1820 0.9412
vn -0.4108 0.5240 0.7461
vn -0.2519 0.5293 0.8102
vn -0.4633 0.1771 0.8683
vn -0.4631 0.1779 0.8683
vn -0.5539 0.5186 0.6513
vn -0.4099 0.5257 0.7454
vn -0.6248 0.1708 0.7618
vn -0.6248 0.1712 0.7618
vn -0.7633 0.1621 0.6254
vn -0.7633 0.1622 0.6254
vn -0.5530 0.5202 0.6508
vn -0.6763 0.5115 0.5300
vn -0.6753 0.5133 0.5297
vn -0.7731 0.5030 0.3865
vn -0.8729 0.1515 0.4638
vn -0.8728 0.1520 0.4638
vn -0.9488 0.1399 0.2831
vn -0.9488 0.1402 0.2831
vn -0.9877 0.1273 0.0904
vn -0.9877 0.1144 -0.1063
vn -0.9877 0.1278 0.0905
vn -0.9877 0.1148 -0.1062
vn -0.9489 0.1016 -0.2989
vn -0.9488 0.1019 -0.2989
vn -0.8729 0.0894 -0.4796
vn -0.7633 0.0787 -0.6412
vn -0.8729 0.0901 -0.4795
vn -0.7633 0.0789 -0.6412
vn -0.6249 0.0692 -0.7777
vn 0.5328 0.0524 0.8446
vn 0.6552 0.0527 0.7536
vn 0.6624 0.0492 0.7476
vn 0.7492 0.0435 0.6609
vn 0.6256 0.1603 0.7635
vn 0.6256 0.1602 0.7635
vn 0.7642 0.1516 0.6269
vn 0.8740 0.1413 0.4650
vn 0.7642 0.1517 0.6268
vn -0.9569 -0.0190 -0.2897
vn -0.8819 -0.0309 -0.4704
vn -0.7730 -0.0416 -0.6330
vn -0.6344 -0.0507 -0.7713
vn 0.9092 0.0343 0.4150
vn 0.9444 0.0106 0.3287
vn 0.9645 0.0247 0.2631
vn 0.9909 0.0036 0.1346
vn 0.9904 0.0054 0.1381
vn 0.9992 0.0010 -0.0405
vn 0.9993 0.0028 -0.0370
vn 0.9857 -0.0184 -0.1675
vn 0.9751 -0.0071 -0.2217
vn 0.9373 -0.0280 -0.3473
vn 0.8688 -0.0294 -0.4943
vn 0.9386 -0.0263 -0.3441
vn -1.0000 -0.0001 -0.0022
vn 0.4897 -0.0572 -0.8700
vn 0.6780 -0.0446 -0.7337
vn 0.6806 -0.0429 -0.7314
vn 0.5779 -0.0609 -0.8138
vn 0.5328 -0.0481 -0.8449
vn 0.4164 -0.0648 -0.9069
vn 0.4196 -0.0632 -0.9055
vn 0.2515 -0.0599 -0.9660
vn 0.2346 -0.0675 -0.9697
vn 0.0710 -0.0623 -0.9955
vn 0.0614 -0.0655 -0.9960
vn 0.0960 0.1845 0.9781
vn 0.0905 0.1514 0.9843
vn -0.0964 0.1513 0.9838
vn -0.0614 -0.0655 -0.9960
vn -0.0710 -0.0686 -0.9951
vn 0.7900 -0.0434 -0.6116
vn 0.7958 -0.0397 -0.6043
vn 0.8640 -0.0330 -0.5024
vn -0.9737 -0.0150 -0.2275
vn 0.4838 0.0574 0.8733
vn 0.5935 0.3803 0.7093
vn 0.7248 0.3726 0.5795
vn 0.5933 0.3820 0.7085
vn 0.5033 0.6404 0.5802
vn 0.3737 0.6439 0.6676
vn 0.3734 0.6452 0.6665
vn 0.4401 0.3879 0.8099
vn 0.2299 0.6472 0.7268
vn 0.2298 0.6485 0.7257
vn 0.4401 0.3862 0.8107
vn 0.2707 0.3918 0.8793
vn 0.0775 0.6489 0.7569
vn 0.0587 0.8383 0.5420
vn 0.0583 0.8354 0.5465
vn 0.1729 0.8342 0.5237
vn 0.0312 0.9655 0.2585
vn 0.0921 0.9655 0.2434
vn 0.0314 0.9663 0.2556
vn 0.1724 0.8371 0.5192
vn -0.0312 0.9655 0.2585
vn -0.0305 0.9663 0.2557
vn -0.0571 0.8384 0.5421
vn -0.0925 0.9648 0.2462
vn -0.0913 0.9656 0.2435
vn -0.0583 0.8354 0.5465
vn -0.1708 0.8371 0.5197
vn -0.1502 0.9634 0.2220
vn -0.1486 0.9642 0.2197
vn -0.2781 0.8347 0.4753
vn -0.1729 0.8341 0.5238
vn -0.2022 0.9613 0.1870
vn -0.0311 0.9995 -0.0066
vn -0.1113 0.9911 0.0725
vn -0.2465 0.9586 0.1423
vn -0.2001 0.9621 0.1850
vn -0.0511 0.9984 -0.0231
vn -0.0514 0.9984 -0.0229
vn -0.2441 0.9595 0.1409
vn -0.2813 0.9554 0.0898
vn -0.1547 0.9878 0.0190
vn -0.2787 0.9563 0.0889
vn -0.3053 0.9517 0.0315
vn -0.0619 0.9970 -0.0472
vn -0.0557 0.9973 -0.0484
vn -0.3175 0.9478 -0.0303
vn -0.3025 0.9526 0.0310
vn -0.3169 0.9480 -0.0302
vn -0.5909 0.8067 0.0069
vn -0.5679 0.8140 0.1223
vn -0.5722 0.8108 0.1229
vn -0.5953 0.8035 0.0067
vn -0.7940 0.6066 0.0395
vn -0.7630 0.6164 0.1945
vn -0.7621 0.6176 0.1943
vn -0.5953 0.7957 -0.1119
vn -0.7940 0.5962 -0.1186
vn -0.5911 0.7989 -0.1108
vn -0.7930 0.6079 0.0396
vn -0.7931 0.5975 -0.1184
vn -0.9369 0.3300 -0.1151
vn -0.9369 0.3422 0.0715
vn -0.9375 0.3406 0.0714
vn -0.7630 0.5856 -0.2735
vn -0.7621 0.5870 -0.2731
vn -0.9002 0.3177 -0.2979
vn -0.9375 0.3283 -0.1153
vn -0.5270 0.7801 -0.3373
vn -0.7024 0.5754 -0.4190
vn -0.5722 0.7878 -0.2281
vn -0.5237 0.7834 -0.3347
vn -0.2447 0.9328 -0.2646
vn -0.4588 0.7763 -0.4323
vn -0.2792 0.9364 -0.2126
vn -0.2466 0.9317 -0.2668
vn -0.2814 0.9354 -0.2142
vn -0.0513 0.9928 -0.1081
vn -0.0511 0.9929 -0.1079
vn -0.1547 0.9768 -0.1482
vn -0.3029 0.9404 -0.1547
vn -0.3053 0.9394 -0.1558
vn -0.0632 0.9944 -0.0849
vn -0.2667 0.9603 -0.0814
vn -0.3149 0.9446 -0.0931
vn -0.0633 0.9951 -0.0764
vn -0.0590 0.9948 -0.0831
vn -0.2023 0.9285 -0.3113
vn -0.1113 0.9731 -0.2016
vn -0.1502 0.9260 -0.3463
vn -0.2008 0.9297 -0.3089
vn -0.0274 0.9927 -0.1173
vn -0.0298 0.9919 -0.1233
vn -0.1494 0.9271 -0.3438
vn -0.0928 0.9243 -0.3703
vn -0.0927 0.9245 -0.3696
vn -0.1725 0.7616 -0.6247
vn -0.2797 0.7652 -0.5798
vn -0.2810 0.7616 -0.5839
vn -0.3737 0.5511 -0.7461
vn -0.3784 0.7667 -0.5186
vn -0.5037 0.5576 -0.6598
vn -0.5032 0.5591 -0.6590
vn -0.4615 0.7729 -0.4354
vn -0.6147 0.5659 -0.5494
vn -0.3764 0.7702 -0.5150
vn -0.6141 0.5672 -0.5488
vn -0.5684 0.7911 -0.2262
vn -0.7016 0.5767 -0.4185
vn -0.5270 0.8175 0.2322
vn -0.7024 0.6253 0.3401
vn -0.7015 0.6265 0.3398
vn -0.6147 0.6330 0.4706
vn -0.6138 0.6342 0.4701
vn -0.5228 0.8207 0.2307
vn -0.4615 0.8233 0.3304
vn -0.3784 0.8281 0.4137
vn -0.5037 0.6392 0.5811
vn -0.4576 0.8264 0.3281
vn -0.5029 0.6405 0.5804
vn -0.3750 0.8311 0.4106
vn -0.2809 0.8317 0.4789
vn -0.0509 0.9932 0.1051
vn -0.0314 0.9995 -0.0062
vn -0.0065 1.0000 0.0010
vn 0.2809 0.8317 0.4790
vn 0.3784 0.8281 0.4137
vn 0.2796 0.8346 0.4746
vn 0.5037 0.6392 0.5811
vn 0.4638 0.1670 0.8701
vn 0.4638 0.1669 0.8701
vn 0.8463 0.0381 0.5314
vn 0.8621 0.0264 0.5060
vn 0.7555 0.0399 0.6540
vn 0.4164 0.0597 0.9072
vn 0.5247 0.0559 0.8495
vn -0.6764 0.4377 -0.5924
vn -0.7725 0.4497 -0.4482
vn -0.7731 0.4480 -0.4490
vn -0.5471 0.7620 -0.3466
vn -0.8393 0.4610 -0.2882
vn -0.5940 0.7700 -0.2332
vn -0.5920 0.7718 -0.2320
vn -0.8400 0.4592 -0.2889
vn -0.8734 0.4726 -0.1178
vn -0.8743 0.4708 -0.1183
vn -0.3923 0.8118 0.4326
vn -0.4787 0.8068 0.3463
vn -0.3905 0.8134 0.4312
vn -0.2895 0.8172 0.4984
vn -0.1486 0.9641 0.2201
vn -0.2002 0.9621 0.1853
vn -0.1506 0.9632 0.2227
vn -0.0927 0.9646 0.2469
vn -0.0200 0.9998 0.0012
vn -0.0863 0.9914 0.0988
vn -0.0912 0.9655 0.2438
vn -0.0363 0.9655 0.2578
vn -0.0182 0.9912 0.1313
vn 0.0033 0.9997 0.0252
vn -0.0018 0.9915 -0.1304
vn 0.0056 0.9918 -0.1274
vn -0.0280 0.9728 0.2302
vn 0.0342 0.9764 0.2132
vn -0.1778 0.8195 0.5448
vn -0.0593 0.8209 0.5680
vn -0.1790 0.8180 0.5467
vn -0.2026 0.9611 0.1875
vn -0.0437 0.9990 -0.0117
vn -0.0876 0.9910 0.1010
vn -0.2912 0.8154 0.5003
vn -0.0515 0.8353 0.5473
vn 0.2527 0.5276 0.8110
vn 0.4109 0.5256 0.7449
vn 0.2918 0.8155 0.4998
vn 0.2914 0.8170 0.4976
vn 0.5538 0.5204 0.6500
vn 0.3929 0.8117 0.4321
vn 0.4109 0.5240 0.7460
vn 0.3920 0.8134 0.4298
vn 0.2848 0.1827 0.9410
vn -0.0343 0.9431 -0.3308
vn 0.1865 0.9824 -0.0081
vn 0.3037 0.9521 0.0364
vn 0.5540 0.5187 0.6512
vn 0.8734 0.4840 0.0550
vn 0.8400 0.4931 0.2262
vn 0.6179 0.7862 0.0097
vn 0.8733 0.4725 -0.1190
vn 0.8743 0.4822 0.0557
vn 0.6178 0.7781 -0.1133
vn 0.6155 0.7798 -0.1139
vn 0.8743 0.4707 -0.1184
vn 0.8390 0.4609 -0.2893
vn 0.5937 0.7699 -0.2339
vn 0.5915 0.7716 -0.2340
vn 0.0437 0.9919 -0.1193
vn 0.0876 0.9693 -0.2299
vn 0.0862 0.9699 -0.2275
vn 0.1505 0.9258 -0.3467
vn 0.2026 0.9283 -0.3117
vn 0.2001 0.9296 -0.3096
vn 0.0200 0.9910 -0.1321
vn 0.0927 0.9240 -0.3709
vn 0.1485 0.9271 -0.3442
vn 0.8400 0.4592 -0.2890
vn 0.0912 0.9253 -0.3681
vn 0.0305 0.9244 -0.3802
vn 0.0313 0.9231 -0.3832
vn 0.3763 0.8310 0.4096
vn 0.9369 0.3422 0.0709
vn 0.8287 0.3041 -0.4698
vn 0.3176 0.9477 -0.0306
vn 0.2442 0.9327 -0.2653
vn 0.4577 0.7763 -0.4335
vn 0.2814 0.9354 -0.2142
vn 0.3784 0.7667 -0.5186
vn 0.5036 0.5577 -0.6598
vn 0.5029 0.5590 -0.6593
vn 0.2810 0.7617 -0.5838
vn 0.3736 0.5513 -0.7460
vn 0.3751 0.7701 -0.5161
vn 0.3730 0.5525 -0.7454
vn 0.4396 0.2785 -0.8539
vn 0.2293 0.5480 -0.8044
vn 0.2702 0.2734 -0.9232
vn 0.2706 0.2717 -0.9236
vn 0.2851 0.0467 -0.9574
vn 0.0962 0.0442 -0.9944
vn 0.0913 0.2690 -0.9588
vn 0.0910 0.2707 -0.9583
vn -0.0913 0.2691 -0.9588
vn -0.0962 0.0442 -0.9944
vn -0.2851 0.0467 -0.9574
vn 0.0772 0.5456 -0.8345
vn 0.2298 0.5466 -0.8052
vn 0.1709 0.7617 -0.6250
vn 0.0584 0.7565 -0.6514
vn 0.1730 0.7581 -0.6287
vn 0.0776 0.5443 -0.8353
vn 0.2783 0.7651 -0.5807
vn -0.5216 -0.0670 -0.8506
vn 0.4077 0.0630 0.9110
vn 0.2514 0.0598 0.9660
vn -0.3734 0.5526 -0.7451
vn -0.5929 0.3820 0.7089
vn -0.0962 0.1742 0.9800
vn 0.0002 -0.9979 0.0655
s 0
usemtl Material.027
f 2//1 5//1 1//1
f 2//1 1//1 4//1
f 3//2 6//2 1//2
f 1//3 5//3 3//3
f 4//4 1//4 6//4
f 8//1 6//1 7//1
f 6//1 3//1 7//1
f 6//5 8//5 4//5
f 9//6 8//6 7//6
f 8//7 9//7 4//7
f 11//8 9//8 7//8
f 9//9 11//9 10//9
f 10//10 4//10 9//10
f 11//11 7//11 12//11
f 12//12 10//12 11//12
f 14//6 13//6 12//6
f 12//1 13//1 10//1
f 14//13 12//13 7//13
f 15//1 13//1 14//1
f 14//14 17//14 15//14
f 17//15 14//15 16//15
f 7//16 16//16 14//16
f 17//1 19//1 15//1
f 19//17 17//17 18//17
f 16//18 18//18 17//18
f 19//1 20//1 15//1
f 21//19 20//19 19//19
f 21//20 19//20 18//20
f 23//1 20//1 21//1
f 18//21 22//21 21//21
f 23//22 21//22 22//22
f 5//1 20//1 23//1
f 22//23 24//23 23//23
f 5//24 23//24 24//24
f 24//14 22//14 7//14
f 3//1 24//1 7//1
f 24//25 3//25 5//25
f 22//14 18//14 7//14
f 2//1 20//1 5//1
f 26//26 20//26 2//26
f 20//1 25//1 15//1
f 27//27 25//27 20//27
f 20//27 26//27 27//27
f 25//28 27//28 28//28
f 28//29 27//29 29//29
f 26//29 30//29 27//29
f 30//29 29//29 27//29
f 31//29 30//29 26//29
f 30//30 32//30 29//30
f 31//31 33//31 30//31
f 32//30 30//30 33//30
f 34//32 35//32 33//32
f 33//33 31//33 34//33
f 33//34 36//34 32//34
f 36//35 33//35 35//35
f 38//36 36//36 37//36
f 35//37 37//37 36//37
f 36//38 38//38 39//38
f 39//39 32//39 36//39
f 40//40 39//40 38//40
f 39//41 40//41 42//41
f 32//42 39//42 41//42
f 42//43 41//43 39//43
f 43//44 42//44 40//44
f 42//45 43//45 44//45
f 41//46 42//46 45//46
f 44//47 45//47 42//47
f 45//48 44//48 46//48
f 46//49 48//49 45//49
f 45//50 47//50 41//50
f 47//51 45//51 48//51
f 48//29 50//29 49//29
f 47//29 48//29 49//29
f 48//29 51//29 50//29
f 48//52 46//52 51//52
f 52//29 50//29 51//29
f 52//29 51//29 53//29
f 54//53 51//53 46//53
f 51//54 54//54 53//54
f 55//55 54//55 56//55
f 54//56 55//56 57//56
f 46//57 56//57 54//57
f 57//58 53//58 54//58
f 53//59 57//59 59//59
f 58//60 57//60 55//60
f 57//61 58//61 60//61
f 60//62 59//62 57//62
f 61//63 60//63 58//63
f 60//64 61//64 62//64
f 62//65 63//65 60//65
f 59//62 60//62 63//62
f 63//29 64//29 65//29
f 63//29 66//29 64//29
f 59//29 63//29 65//29
f 63//66 62//66 66//66
f 66//29 68//29 64//29
f 67//67 66//67 62//67
f 66//67 67//67 68//67
f 68//29 69//29 64//29
f 68//29 71//29 69//29
f 70//68 68//68 67//68
f 68//68 70//68 71//68
f 71//29 72//29 69//29
f 71//69 73//69 72//69
f 73//69 71//69 70//69
f 76//70 72//70 73//70
f 70//71 74//71 73//71
f 75//72 73//72 74//72
f 73//73 75//73 76//73
f 77//74 76//74 75//74
f 76//75 77//75 79//75
f 72//76 76//76 78//76
f 79//77 78//77 76//77
f 80//78 79//78 77//78
f 79//79 80//79 82//79
f 78//80 79//80 81//80
f 82//81 81//81 79//81
f 81//82 82//82 83//82
f 85//83 83//83 82//83
f 84//84 82//84 80//84
f 82//85 84//85 85//85
f 85//86 88//86 86//86
f 86//87 87//87 85//87
f 83//88 85//88 87//88
f 88//89 85//89 84//89
f 88//90 90//90 89//90
f 89//91 86//91 88//91
f 90//92 88//92 91//92
f 84//93 91//93 88//93
f 92//94 93//94 91//94
f 91//95 84//95 92//95
f 94//96 91//96 93//96
f 91//97 94//97 90//97
f 94//98 97//98 95//98
f 95//99 90//99 94//99
f 93//100 96//100 94//100
f 97//101 94//101 96//101
f 96//102 98//102 97//102
f 97//103 98//103 99//103
f 99//104 95//104 97//104
f 102//105 100//105 99//105
f 95//106 99//106 100//106
f 101//107 99//107 98//107
f 99//108 101//108 102//108
f 100//109 102//109 103//109
f 104//110 103//110 102//110
f 102//111 101//111 104//111
f 103//112 104//112 105//112
f 106//113 105//113 104//113
f 104//114 107//114 106//114
f 107//115 104//115 101//115
f 106//116 107//116 108//116
f 109//117 108//117 107//117
f 107//118 110//118 109//118
f 101//119 112//119 107//119
f 110//120 107//120 111//120
f 111//121 107//121 112//121
f 113//122 115//122 112//122
f 112//123 101//123 113//123
f 112//124 114//124 111//124
f 114//125 112//125 115//125
f 116//126 117//126 115//126
f 115//127 113//127 116//127
f 115//128 118//128 114//128
f 118//129 115//129 117//129
f 119//130 118//130 120//130
f 118//131 119//131 121//131
f 117//132 120//132 118//132
f 121//133 114//133 118//133
f 121//134 123//134 122//134
f 122//135 124//135 121//135
f 123//136 121//136 119//136
f 114//137 121//137 124//137
f 124//138 122//138 125//138
f 125//139 110//139 124//139
f 124//140 111//140 114//140
f 111//141 124//141 110//141
f 125//142 127//142 126//142
f 126//143 128//143 125//143
f 127//144 125//144 122//144
f 110//145 125//145 128//145
f 128//146 109//146 110//146
f 128//147 126//147 129//147
f 129//148 109//148 128//148
f 129//149 131//149 130//149
f 130//150 132//150 129//150
f 131//151 129//151 126//151
f 109//152 129//152 132//152
f 132//153 133//153 109//153
f 133//154 132//154 134//154
f 134//155 132//155 135//155
f 136//156 135//156 132//156
f 132//157 137//157 136//157
f 137//158 132//158 130//158
f 138//159 137//159 140//159
f 137//160 138//160 139//160
f 139//161 136//161 137//161
f 130//162 140//162 137//162
f 142//163 140//163 141//163
f 131//164 141//164 140//164
f 140//165 142//165 138//165
f 140//166 130//166 131//166
f 141//167 143//167 142//167
f 145//168 142//168 143//168
f 142//169 145//169 144//169
f 144//170 138//170 142//170
f 148//171 144//171 145//171
f 146//172 145//172 147//172
f 145//173 146//173 149//173
f 143//174 147//174 145//174
f 145//175 149//175 148//175
f 151//176 149//176 146//176
f 149//177 151//177 150//177
f 150//178 148//178 149//178
f 154//179 150//179 151//179
f 151//29 152//29 154//29
f 153//29 152//29 151//29
f 146//29 153//29 151//29
f 152//29 156//29 154//29
f 150//180 154//180 155//180
f 157//181 155//181 154//181
f 156//29 157//29 154//29
f 160//29 158//29 157//29
f 158//29 161//29 157//29
f 155//182 157//182 159//182
f 161//183 159//183 157//183
f 156//29 160//29 157//29
f 159//184 161//184 162//184
f 164//185 162//185 161//185
f 158//29 163//29 161//29
f 163//29 164//29 161//29
f 162//186 164//186 165//186
f 167//187 165//187 164//187
f 163//29 166//29 164//29
f 166//29 167//29 164//29
f 170//188 168//188 167//188
f 165//189 167//189 168//189
f 166//29 169//29 167//29
f 169//29 170//29 167//29
f 168//190 170//190 171//190
f 173//191 171//191 170//191
f 169//29 172//29 170//29
f 172//29 173//29 170//29
f 171//192 173//192 174//192
f 177//193 174//193 173//193
f 172//29 176//29 173//29
f 176//29 175//29 173//29
f 175//29 177//29 173//29
f 174//194 177//194 178//194
f 180//195 178//195 177//195
f 175//29 179//29 177//29
f 180//29 177//29 179//29
f 178//196 180//196 181//196
f 183//197 181//197 180//197
f 179//29 182//29 180//29
f 183//29 180//29 182//29
f 181//198 183//198 184//198
f 186//199 184//199 183//199
f 182//29 185//29 183//29
f 186//29 183//29 185//29
f 189//200 187//200 186//200
f 184//201 186//201 187//201
f 185//29 188//29 186//29
f 189//29 186//29 188//29
f 187//202 189//202 190//202
f 192//203 190//203 189//203
f 188//29 191//29 189//29
f 192//29 189//29 191//29
f 190//204 192//204 193//204
f 195//205 193//205 192//205
f 191//29 194//29 192//29
f 195//29 192//29 194//29
f 193//206 195//206 196//206
f 198//207 196//207 195//207
f 194//29 197//29 195//29
f 195//29 197//29 198//29
f 196//208 198//208 199//208
f 200//209 199//209 198//209
f 198//29 201//29 200//29
f 201//29 198//29 197//29
f 201//29 202//29 200//29
f 203//210 202//210 201//210
f 203//211 201//211 197//211
f 197//212 204//212 203//212
f 203//1 204//1 206//1
f 202//213 203//213 205//213
f 203//1 207//1 205//1
f 206//1 207//1 203//1
f 205//1 207//1 208//1
f 211//1 208//1 207//1
f 209//214 207//214 212//214
f 210//215 207//215 209//215
f 207//215 210//215 211//215
f 212//1 207//1 206//1
f 213//216 212//216 206//216
f 212//214 213//214 209//214
f 213//29 214//29 209//29
f 206//216 214//216 213//216
f 83//29 214//29 215//29
f 216//215 215//215 214//215
f 214//215 206//215 216//215
f 209//29 214//29 87//29
f 83//29 87//29 214//29
f 217//1 220//1 216//1
f 218//1 217//1 216//1
f 216//1 219//1 218//1
f 219//1 216//1 206//1
f 216//1 220//1 222//1
f 221//1 223//1 216//1
f 222//1 221//1 216//1
f 215//217 216//217 223//217
f 224//218 223//218 221//218
f 223//217 224//217 215//217
f 225//29 215//29 224//29
f 221//218 225//218 224//218
f 226//29 215//29 225//29
f 222//215 225//215 221//215
f 225//215 222//215 226//215
f 215//29 226//29 229//29
f 229//29 226//29 227//29
f 226//219 228//219 227//219
f 228//219 226//219 222//219
f 227//29 231//29 229//29
f 229//29 69//29 72//29
f 230//214 69//214 229//214
f 229//214 220//214 230//214
f 220//220 229//220 231//220
f 229//29 78//29 215//29
f 78//29 229//29 72//29
f 232//221 231//221 227//221
f 231//220 232//220 220//220
f 228//1 220//1 232//1
f 227//221 228//221 232//221
f 69//222 230//222 233//222
f 233//1 230//1 234//1
f 235//1 230//1 220//1
f 236//1 234//1 230//1
f 230//1 235//1 237//1
f 230//1 237//1 236//1
f 182//223 236//223 237//223
f 182//224 237//224 235//224
f 234//1 236//1 238//1
f 179//225 238//225 236//225
f 236//226 182//226 179//226
f 238//227 179//227 175//227
f 175//228 239//228 238//228
f 238//1 239//1 240//1
f 234//1 238//1 240//1
f 240//1 239//1 241//1
f 240//1 241//1 242//1
f 65//229 240//229 242//229
f 240//230 65//230 64//230
f 64//230 234//230 240//230
f 242//229 243//229 65//229
f 243//231 242//231 244//231
f 246//1 244//1 242//1
f 245//1 242//1 241//1
f 246//1 242//1 245//1
f 249//1 244//1 246//1
f 246//232 245//232 248//232
f 249//233 246//233 247//233
f 248//232 247//232 246//232
f 249//1 250//1 244//1
f 250//1 249//1 251//1
f 251//234 249//234 252//234
f 247//233 252//233 249//233
f 252//29 50//29 52//29
f 253//29 50//29 252//29
f 247//29 253//29 252//29
f 252//234 52//234 251//234
f 250//235 50//235 253//235
f 244//231 253//231 243//231
f 253//235 244//235 250//235
f 243//29 253//29 247//29
f 255//1 251//1 254//1
f 254//1 251//1 245//1
f 245//236 251//236 52//236
f 250//1 251//1 255//1
f 169//237 255//237 254//237
f 255//238 169//238 166//238
f 166//239 256//239 255//239
f 255//1 256//1 250//1
f 259//1 256//1 257//1
f 163//240 257//240 256//240
f 256//241 166//241 163//241
f 250//1 256//1 260//1
f 258//1 256//1 259//1
f 260//19 256//19 258//19
f 261//242 250//242 260//242
f 261//15 260//15 262//15
f 263//16 262//16 260//16
f 260//13 258//13 263//13
f 264//1 265//1 263//1
f 268//1 264//1 263//1
f 265//1 267//1 263//1
f 266//8 269//8 263//8
f 266//11 263//11 258//11
f 267//1 270//1 263//1
f 269//6 268//6 263//6
f 270//14 271//14 263//14
f 271//243 262//243 263//243
f 273//244 272//244 271//244
f 272//17 261//17 271//17
f 262//245 271//245 261//245
f 271//246 270//246 273//246
f 273//1 274//1 250//1
f 275//14 274//14 273//14
f 273//1 250//1 272//1
f 275//247 273//247 270//247
f 274//19 275//19 276//19
f 270//248 267//248 275//248
f 276//249 275//249 267//249
f 274//14 276//14 277//14
f 267//250 265//250 276//250
f 277//251 276//251 265//251
f 274//1 277//1 257//1
f 277//19 278//19 257//19
f 278//252 277//252 264//252
f 265//253 264//253 277//253
f 278//254 259//254 257//254
f 259//10 278//10 269//10
f 268//7 269//7 278//7
f 264//255 268//255 278//255
f 50//256 250//256 274//256
f 274//256 49//256 50//256
f 257//1 279//1 274//1
f 49//257 274//257 279//257
f 282//1 280//1 279//1
f 281//258 279//258 280//258
f 279//257 281//257 49//257
f 282//1 279//1 257//1
f 158//259 282//259 257//259
f 282//260 158//260 160//260
f 283//1 280//1 282//1
f 156//261 283//261 282//261
f 282//262 160//262 156//262
f 152//263 284//263 283//263
f 283//264 156//264 152//264
f 25//1 283//1 284//1
f 25//1 280//1 283//1
f 152//265 15//265 284//265
f 15//1 25//1 284//1
f 280//258 28//258 281//258
f 281//29 28//29 29//29
f 47//29 49//29 281//29
f 29//29 47//29 281//29
f 28//28 280//28 25//28
f 272//1 250//1 261//1
f 269//9 266//9 259//9
f 258//12 259//12 266//12
f 257//266 163//266 158//266
f 172//267 254//267 241//267
f 254//268 172//268 169//268
f 254//1 245//1 241//1
f 65//29 248//29 59//29
f 65//29 247//29 248//29
f 52//236 248//236 245//236
f 52//29 53//29 248//29
f 248//29 53//29 59//29
f 243//29 247//29 65//29
f 176//269 241//269 239//269
f 241//270 176//270 172//270
f 239//271 175//271 176//271
f 235//272 185//272 182//272
f 285//1 235//1 220//1
f 185//273 235//273 285//273
f 188//274 285//274 217//274
f 285//275 188//275 185//275
f 217//1 285//1 220//1
f 286//1 233//1 234//1
f 287//276 286//276 234//276
f 234//276 64//276 287//276
f 286//215 287//215 288//215
f 64//29 288//29 287//29
f 288//215 233//215 286//215
f 64//29 69//29 288//29
f 233//277 288//277 69//277
f 220//1 228//1 222//1
f 194//278 219//278 204//278
f 204//1 219//1 206//1
f 191//279 218//279 219//279
f 219//280 194//280 191//280
f 191//281 217//281 218//281
f 217//282 191//282 188//282
f 83//29 215//29 81//29
f 78//29 81//29 215//29
f 289//1 208//1 211//1
f 289//1 211//1 290//1
f 290//1 211//1 292//1
f 211//218 210//218 291//218
f 291//218 293//218 211//218
f 292//1 211//1 293//1
f 293//217 291//217 294//217
f 294//217 292//217 293//217
f 295//29 294//29 297//29
f 292//215 294//215 295//215
f 294//29 291//29 210//29
f 294//29 210//29 298//29
f 294//29 298//29 296//29
f 294//29 296//29 297//29
f 210//29 300//29 298//29
f 301//283 298//283 299//283
f 300//284 299//284 298//284
f 298//285 301//285 296//285
f 304//286 296//286 301//286
f 302//287 301//287 303//287
f 301//288 302//288 304//288
f 299//289 303//289 301//289
f 304//290 306//290 305//290
f 305//291 297//291 304//291
f 296//292 304//292 297//292
f 306//293 304//293 302//293
f 306//294 308//294 307//294
f 307//295 305//295 306//295
f 302//296 309//296 306//296
f 308//297 306//297 309//297
f 309//298 312//298 308//298
f 310//299 311//299 309//299
f 309//300 302//300 310//300
f 312//301 309//301 311//301
f 312//302 314//302 313//302
f 313//303 308//303 312//303
f 311//304 108//304 312//304
f 314//305 312//305 108//305
f 133//306 313//306 314//306
f 314//307 109//307 133//307
f 108//308 109//308 314//308
f 313//309 133//309 315//309
f 315//310 316//310 313//310
f 308//311 313//311 316//311
f 316//312 307//312 308//312
f 316//313 315//313 317//313
f 317//314 318//314 316//314
f 307//315 316//315 318//315
f 318//316 320//316 307//316
f 318//317 317//317 319//317
f 319//318 321//318 318//318
f 320//319 318//319 321//319
f 324//320 321//320 322//320
f 323//321 322//321 321//321
f 321//322 319//322 323//322
f 321//323 324//323 320//323
f 325//29 327//29 324//29
f 326//29 325//29 324//29
f 326//29 324//29 322//29
f 327//324 320//324 324//324
f 327//29 325//29 295//29
f 297//29 327//29 295//29
f 320//325 327//325 305//325
f 297//326 305//326 327//326
f 328//327 326//327 329//327
f 326//218 328//218 330//218
f 331//29 329//29 326//29
f 330//218 325//218 326//218
f 331//29 326//29 332//29
f 326//29 322//29 332//29
f 331//29 332//29 333//29
f 322//328 323//328 332//328
f 334//329 332//329 323//329
f 332//329 334//329 333//329
f 337//330 333//330 334//330
f 335//331 334//331 336//331
f 334//332 335//332 337//332
f 323//333 336//333 334//333
f 333//334 337//334 338//334
f 339//335 338//335 337//335
f 337//336 340//336 339//336
f 340//337 337//337 335//337
f 340//338 342//338 341//338
f 341//339 339//339 340//339
f 335//340 343//340 340//340
f 342//341 340//341 343//341
f 346//342 344//342 343//342
f 345//343 343//343 344//343
f 343//344 345//344 342//344
f 343//345 335//345 346//345
f 348//346 347//346 346//346
f 344//347 346//347 347//347
f 336//348 346//348 335//348
f 346//349 336//349 348//349
f 347//350 348//350 349//350
f 317//351 349//351 348//351
f 348//352 319//352 317//352
f 319//353 348//353 336//353
f 315//354 134//354 349//354
f 349//355 317//355 315//355
f 349//356 135//356 347//356
f 135//357 349//357 134//357
f 350//358 347//358 135//358
f 347//359 350//359 344//359
f 350//360 136//360 351//360
f 351//361 344//361 350//361
f 135//362 136//362 350//362
f 344//363 351//363 345//363
f 353//364 345//364 351//364
f 352//365 351//365 136//365
f 351//366 352//366 353//366
f 345//367 353//367 354//367
f 355//368 354//368 353//368
f 353//369 352//369 355//369
f 355//370 358//370 356//370
f 356//371 357//371 355//371
f 354//372 355//372 357//372
f 358//373 355//373 352//373
f 356//374 358//374 360//374
f 358//375 361//375 359//375
f 359//376 360//376 358//376
f 352//377 363//377 358//377
f 361//378 358//378 362//378
f 362//379 358//379 363//379
f 363//380 365//380 362//380
f 364//381 366//381 363//381
f 363//382 352//382 364//382
f 365//383 363//383 366//383
f 369//384 367//384 366//384
f 368//385 366//385 367//385
f 366//386 368//386 365//386
f 366//387 364//387 369//387
f 367//388 369//388 370//388
f 372//389 370//389 369//389
f 369//390 371//390 372//390
f 371//391 369//391 364//391
f 138//392 144//392 372//392
f 370//393 372//393 144//393
f 139//394 372//394 371//394
f 372//395 139//395 138//395
f 371//396 136//396 139//396
f 364//397 352//397 371//397
f 136//398 371//398 352//398
f 144//399 148//399 370//399
f 370//400 373//400 367//400
f 373//401 370//401 148//401
f 148//402 150//402 373//402
f 373//403 155//403 368//403
f 368//404 367//404 373//404
f 155//405 373//405 150//405
f 159//406 368//406 155//406
f 368//407 159//407 374//407
f 374//408 365//408 368//408
f 162//409 374//409 159//409
f 374//410 162//410 376//410
f 365//411 374//411 375//411
f 376//412 375//412 374//412
f 165//413 376//413 162//413
f 376//414 165//414 378//414
f 375//415 376//415 377//415
f 378//416 377//416 376//416
f 168//417 378//417 165//417
f 378//418 168//418 380//418
f 377//419 378//419 379//419
f 380//420 379//420 378//420
f 171//421 380//421 168//421
f 380//422 171//422 382//422
f 382//423 381//423 380//423
f 379//424 380//424 381//424
f 174//425 382//425 171//425
f 382//426 174//426 383//426
f 381//427 382//427 384//427
f 383//428 384//428 382//428
f 384//429 383//429 385//429
f 385//430 387//430 384//430
f 384//431 386//431 381//431
f 386//432 384//432 387//432
f 387//433 388//433 386//433
f 388//434 387//434 389//434
f 390//435 389//435 387//435
f 387//436 385//436 390//436
f 392//437 389//437 390//437
f 391//438 390//438 385//438
f 390//439 391//439 392//439
f 389//440 392//440 393//440
f 395//441 393//441 392//441
f 394//442 392//442 391//442
f 392//443 394//443 395//443
f 396//444 393//444 395//444
f 395//445 397//445 396//445
f 397//446 395//446 394//446
f 397//447 400//447 398//447
f 398//448 396//448 397//448
f 394//449 399//449 397//449
f 400//450 397//450 399//450
f 190//451 400//451 187//451
f 400//452 190//452 401//452
f 399//453 187//453 400//453
f 401//454 398//454 400//454
f 193//455 401//455 190//455
f 401//456 193//456 402//456
f 402//457 403//457 401//457
f 398//458 401//458 403//458
f 403//459 405//459 398//459
f 403//460 402//460 404//460
f 404//461 406//461 403//461
f 405//462 403//462 406//462
f 406//463 407//463 405//463
f 408//464 407//464 406//464
f 406//465 404//465 408//465
f 407//466 408//466 409//466
f 411//467 409//467 408//467
f 410//468 408//468 404//468
f 408//469 410//469 411//469
f 412//470 411//470 410//470
f 411//471 412//471 413//471
f 413//472 409//472 411//472
f 409//473 413//473 414//473
f 415//474 414//474 413//474
f 413//475 416//475 415//475
f 416//476 413//476 412//476
f 412//477 419//477 416//477
f 416//478 418//478 417//478
f 417//479 415//479 416//479
f 418//480 416//480 419//480
f 421//481 420//481 419//481
f 422//482 419//482 420//482
f 419//483 422//483 418//483
f 419//484 412//484 421//484
f 425//485 422//485 423//485
f 420//486 423//486 422//486
f 422//487 425//487 424//487
f 424//488 418//488 422//488
f 428//489 424//489 425//489
f 423//490 427//490 425//490
f 426//491 425//491 427//491
f 425//492 426//492 428//492
f 431//493 429//493 428//493
f 424//494 428//494 429//494
f 430//495 428//495 426//495
f 428//496 430//496 431//496
f 434//497 432//497 431//497
f 429//498 431//498 432//498
f 433//499 431//499 430//499
f 431//500 433//500 434//500
f 435//501 434//501 433//501
f 434//502 435//502 437//502
f 432//503 434//503 436//503
f 437//504 436//504 434//504
f 436//505 437//505 117//505
f 120//506 117//506 437//506
f 438//507 437//507 435//507
f 437//508 438//508 120//508
f 438//29 439//29 440//29
f 438//29 435//29 439//29
f 441//29 438//29 440//29
f 441//509 120//509 438//509
f 443//29 441//29 442//29
f 441//29 440//29 442//29
f 120//510 441//510 119//510
f 443//511 119//511 441//511
f 443//29 442//29 444//29
f 445//29 443//29 444//29
f 445//512 123//512 443//512
f 119//513 443//513 123//513
f 448//29 445//29 446//29
f 445//29 444//29 446//29
f 123//514 445//514 447//514
f 448//515 447//515 445//515
f 451//29 448//29 449//29
f 448//29 446//29 449//29
f 447//516 448//516 450//516
f 451//517 450//517 448//517
f 454//29 451//29 452//29
f 451//29 449//29 452//29
f 454//518 453//518 451//518
f 450//519 451//519 453//519
f 454//29 452//29 455//29
f 454//29 455//29 456//29
f 147//29 454//29 456//29
f 453//520 454//520 143//520
f 147//521 143//521 454//521
f 457//522 458//522 456//522
f 456//523 459//523 457//523
f 147//29 456//29 458//29
f 459//524 456//524 455//524
f 459//1 461//1 457//1
f 455//525 460//525 459//525
f 462//1 459//1 460//1
f 462//1 461//1 459//1
f 463//1 462//1 464//1
f 463//1 467//1 462//1
f 462//1 460//1 464//1
f 462//236 467//236 465//236
f 465//236 466//236 462//236
f 461//232 462//232 466//232
f 463//1 468//1 467//1
f 467//1 468//1 470//1
f 469//234 465//234 467//234
f 467//234 470//234 469//234
f 2//1 470//1 468//1
f 470//1 2//1 461//1
f 470//233 461//233 471//233
f 471//233 469//233 470//233
f 471//29 473//29 472//29
f 469//29 471//29 472//29
f 466//232 471//232 461//232
f 471//29 466//29 474//29
f 471//29 474//29 473//29
f 466//29 477//29 474//29
f 475//526 474//526 476//526
f 474//527 475//527 473//527
f 477//528 476//528 474//528
f 478//29 477//29 466//29
f 478//29 338//29 477//29
f 338//529 339//529 477//529
f 476//530 477//530 339//530
f 478//29 331//29 338//29
f 479//531 331//531 478//531
f 478//531 480//531 479//531
f 480//532 478//532 481//532
f 481//29 478//29 465//29
f 478//29 466//29 465//29
f 481//532 463//532 480//532
f 463//533 481//533 482//533
f 481//29 465//29 482//29
f 468//534 482//534 472//534
f 482//533 468//533 463//533
f 472//29 482//29 469//29
f 465//29 469//29 482//29
f 479//1 480//1 483//1
f 480//1 463//1 464//1
f 480//1 464//1 483//1
f 449//535 483//535 464//535
f 483//536 449//536 446//536
f 446//537 484//537 483//537
f 479//1 483//1 484//1
f 446//538 485//538 484//538
f 479//1 484//1 485//1
f 485//539 446//539 444//539
f 444//540 486//540 485//540
f 328//1 485//1 486//1
f 485//1 328//1 479//1
f 486//541 444//541 442//541
f 486//542 442//542 440//542
f 440//543 487//543 486//543
f 328//1 486//1 487//1
f 488//1 330//1 487//1
f 440//544 488//544 487//544
f 487//1 330//1 328//1
f 489//1 490//1 488//1
f 439//545 489//545 488//545
f 488//546 440//546 439//546
f 488//1 490//1 330//1
f 491//1 490//1 489//1
f 490//1 491//1 492//1
f 492//1 292//1 490//1
f 493//1 490//1 496//1
f 490//1 493//1 330//1
f 496//1 490//1 494//1
f 495//216 494//216 490//216
f 490//216 295//216 495//216
f 295//215 490//215 292//215
f 497//214 496//214 494//214
f 498//215 496//215 497//215
f 496//215 498//215 493//215
f 498//29 497//29 295//29
f 295//29 325//29 498//29
f 325//29 499//29 498//29
f 499//547 493//547 498//547
f 493//547 499//547 500//547
f 500//221 499//221 501//221
f 499//29 325//29 501//29
f 501//221 502//221 500//221
f 502//548 501//548 325//548
f 500//1 502//1 330//1
f 325//548 330//548 502//548
f 330//1 493//1 500//1
f 494//214 495//214 497//214
f 497//29 495//29 295//29
f 503//549 492//549 491//549
f 492//550 503//550 505//550
f 492//551 505//551 504//551
f 504//552 506//552 492//552
f 492//1 506//1 292//1
f 506//1 290//1 292//1
f 504//553 290//553 506//553
f 430//29 504//29 505//29
f 433//29 505//29 503//29
f 433//29 430//29 505//29
f 290//554 504//554 507//554
f 507//29 504//29 426//29
f 504//29 430//29 426//29
f 507//555 289//555 290//555
f 289//556 507//556 508//556
f 508//29 507//29 427//29
f 507//29 426//29 427//29
f 508//557 208//557 289//557
f 509//29 508//29 510//29
f 208//558 508//558 509//558
f 427//29 510//29 508//29
f 510//559 420//559 200//559
f 420//560 510//560 423//560
f 427//561 423//561 510//561
f 200//29 202//29 510//29
f 202//29 509//29 510//29
f 509//562 205//562 208//562
f 205//563 509//563 202//563
f 491//564 511//564 503//564
f 435//29 503//29 511//29
f 435//29 433//29 503//29
f 511//565 491//565 489//565
f 489//566 439//566 511//566
f 435//29 511//29 439//29
f 331//567 479//567 512//567
f 479//1 328//1 513//1
f 479//1 513//1 512//1
f 329//568 513//568 328//568
f 514//215 512//215 513//215
f 513//215 329//215 514//215
f 331//29 514//29 329//29
f 512//567 514//567 331//567
f 476//569 515//569 475//569
f 339//570 341//570 476//570
f 515//571 476//571 341//571
f 341//572 516//572 515//572
f 517//573 515//573 516//573
f 515//574 517//574 518//574
f 518//575 475//575 515//575
f 519//576 518//576 517//576
f 518//577 519//577 35//577
f 475//578 518//578 34//578
f 35//579 34//579 518//579
f 37//580 35//580 519//580
f 520//581 519//581 521//581
f 519//582 520//582 37//582
f 517//583 521//583 519//583
f 360//584 521//584 356//584
f 357//585 356//585 521//585
f 521//586 360//586 520//586
f 521//587 517//587 357//587
f 522//588 520//588 360//588
f 520//589 522//589 523//589
f 523//590 37//590 520//590
f 524//591 523//591 522//591
f 523//592 524//592 525//592
f 37//593 523//593 38//593
f 525//594 38//594 523//594
f 527//595 525//595 524//595
f 525//596 527//596 526//596
f 526//597 40//597 525//597
f 38//598 525//598 40//598
f 528//599 526//599 527//599
f 524//600 388//600 527//600
f 527//601 388//601 528//601
f 530//602 529//602 528//602
f 526//603 528//603 529//603
f 528//604 389//604 530//604
f 389//605 528//605 388//605
f 529//606 530//606 531//606
f 532//607 531//607 530//607
f 530//608 389//608 532//608
f 531//609 532//609 533//609
f 534//610 533//610 532//610
f 393//611 532//611 389//611
f 532//612 393//612 534//612
f 393//613 535//613 534//613
f 533//614 534//614 535//614
f 535//615 393//615 536//615
f 536//616 538//616 535//616
f 535//617 537//617 533//617
f 537//618 535//618 538//618
f 538//619 536//619 539//619
f 539//620 61//620 538//620
f 538//621 58//621 537//621
f 58//622 538//622 61//622
f 539//623 541//623 540//623
f 540//624 542//624 539//624
f 541//625 539//625 536//625
f 61//626 539//626 542//626
f 542//627 540//627 543//627
f 543//628 67//628 542//628
f 542//629 62//629 61//629
f 62//630 542//630 67//630
f 544//631 543//631 540//631
f 543//632 544//632 74//632
f 74//633 70//633 543//633
f 67//634 543//634 70//634
f 544//635 547//635 545//635
f 545//636 74//636 544//636
f 540//637 546//637 544//637
f 547//638 544//638 546//638
f 547//639 549//639 548//639
f 548//640 545//640 547//640
f 546//641 550//641 547//641
f 549//642 547//642 550//642
f 550//643 546//643 551//643
f 409//644 550//644 407//644
f 550//645 409//645 549//645
f 551//646 407//646 550//646
f 541//647 551//647 546//647
f 551//648 541//648 552//648
f 552//649 407//649 551//649
f 552//650 536//650 393//650
f 536//651 552//651 541//651
f 393//652 396//652 552//652
f 407//653 552//653 396//653
f 553//654 548//654 549//654
f 549//655 409//655 553//655
f 555//656 554//656 553//656
f 548//657 553//657 554//657
f 553//658 414//658 555//658
f 414//659 553//659 409//659
f 554//660 555//660 556//660
f 414//661 556//661 555//661
f 556//662 414//662 93//662
f 93//663 92//663 556//663
f 556//664 557//664 554//664
f 557//665 556//665 92//665
f 92//666 80//666 557//666
f 558//667 554//667 557//667
f 557//668 77//668 558//668
f 77//669 557//669 80//669
f 545//670 548//670 558//670
f 558//671 75//671 545//671
f 554//672 558//672 548//672
f 75//673 558//673 77//673
f 546//674 540//674 541//674
f 74//675 545//675 75//675
f 559//676 533//676 537//676
f 537//677 55//677 559//677
f 55//678 537//678 58//678
f 559//679 56//679 560//679
f 56//680 559//680 55//680
f 533//681 559//681 531//681
f 560//682 531//682 559//682
f 43//683 529//683 560//683
f 560//684 44//684 43//684
f 531//685 560//685 529//685
f 44//686 560//686 56//686
f 529//687 43//687 526//687
f 40//688 526//688 43//688
f 522//689 359//689 524//689
f 388//690 524//690 359//690
f 360//691 359//691 522//691
f 516//692 357//692 517//692
f 342//693 354//693 516//693
f 357//694 516//694 354//694
f 516//695 341//695 342//695
f 34//696 473//696 475//696
f 473//29 31//29 472//29
f 473//697 34//697 31//697
f 472//29 31//29 26//29
f 2//26 472//26 26//26
f 472//534 2//534 468//534
f 452//698 464//698 460//698
f 464//699 452//699 449//699
f 461//1 2//1 457//1
f 460//700 455//700 452//700
f 13//701 153//701 458//701
f 458//702 457//702 13//702
f 146//29 458//29 153//29
f 146//29 147//29 458//29
f 457//1 2//1 13//1
f 143//703 141//703 453//703
f 561//704 453//704 141//704
f 453//705 561//705 450//705
f 141//706 131//706 561//706
f 127//707 450//707 561//707
f 561//708 126//708 127//708
f 126//709 561//709 131//709
f 450//710 127//710 447//710
f 122//711 447//711 127//711
f 447//712 122//712 123//712
f 436//713 562//713 432//713
f 117//714 116//714 436//714
f 562//715 436//715 116//715
f 563//716 432//716 562//716
f 562//717 565//717 563//717
f 116//718 564//718 562//718
f 565//719 562//719 564//719
f 566//720 563//720 565//720
f 565//721 98//721 566//721
f 564//722 98//722 565//722
f 563//723 566//723 567//723
f 568//724 567//724 566//724
f 568//725 566//725 98//725
f 568//726 414//726 415//726
f 414//727 568//727 96//727
f 98//728 96//728 568//728
f 567//729 568//729 417//729
f 415//730 417//730 568//730
f 567//731 429//731 563//731
f 417//732 424//732 567//732
f 429//733 567//733 424//733
f 564//734 116//734 113//734
f 113//735 101//735 564//735
f 98//736 564//736 101//736
f 432//737 563//737 429//737
f 424//738 417//738 418//738
f 420//739 421//739 199//739
f 569//740 199//740 421//740
f 421//741 410//741 569//741
f 410//742 421//742 412//742
f 402//743 196//743 569//743
f 569//744 404//744 402//744
f 199//745 569//745 196//745
f 404//746 569//746 410//746
f 199//747 200//747 420//747
f 96//748 93//748 414//748
f 396//749 405//749 407//749
f 396//750 398//750 405//750
f 196//751 402//751 193//751
f 570//752 184//752 399//752
f 187//753 399//753 184//753
f 399//754 394//754 570//754
f 571//755 181//755 570//755
f 184//756 570//756 181//756
f 570//757 391//757 571//757
f 391//758 570//758 394//758
f 181//759 571//759 178//759
f 383//760 178//760 571//760
f 571//761 385//761 383//761
f 385//762 571//762 391//762
f 386//763 388//763 572//763
f 359//764 572//764 388//764
f 572//765 359//765 573//765
f 573//766 379//766 572//766
f 572//767 381//767 386//767
f 381//768 572//768 379//768
f 573//769 359//769 361//769
f 361//770 377//770 573//770
f 379//771 573//771 377//771
f 178//772 383//772 174//772
f 377//773 361//773 375//773
f 375//774 362//774 365//774
f 362//775 375//775 361//775
f 354//776 342//776 345//776
f 331//29 333//29 338//29
f 336//777 323//777 319//777
f 305//778 307//778 320//778
f 134//779 315//779 133//779
f 105//780 106//780 311//780
f 311//781 310//781 105//781
f 108//782 311//782 106//782
f 574//783 105//783 310//783
f 310//784 303//784 574//784
f 303//785 310//785 302//785
f 575//786 103//786 574//786
f 574//787 576//787 575//787
f 105//788 574//788 103//788
f 576//789 574//789 303//789
f 303//790 299//790 576//790
f 577//791 575//791 576//791
f 576//792 578//792 577//792
f 578//793 576//793 299//793
f 299//794 300//794 578//794
f 579//795 578//795 300//795
f 578//795 579//795 580//795
f 580//796 577//796 578//796
f 577//797 580//797 89//797
f 86//798 89//798 580//798
f 581//799 580//799 579//799
f 580//799 581//799 86//799
f 581//29 209//29 87//29
f 579//29 209//29 581//29
f 87//800 86//800 581//800
f 210//29 209//29 579//29
f 300//29 210//29 579//29
f 89//801 582//801 577//801
f 575//802 577//802 582//802
f 100//803 582//803 95//803
f 90//804 95//804 582//804
f 582//805 100//805 575//805
f 582//806 89//806 90//806
f 103//807 575//807 100//807
f 204//808 197//808 194//808
f 153//809 13//809 15//809
f 15//810 152//810 153//810
f 80//811 92//811 84//811
f 56//812 46//812 44//812
f 29//813 41//813 47//813
f 41//813 29//813 32//813
f 18//242 16//242 7//242
f 4//1 13//1 2//1
f 10//814 13//814 4//814
