# Blender 5.0.1
# www.blender.org
mtllib torso_y_link_visual_34.mtl
o i01.torso.full.036_visual.001
v 0.067092 0.054188 -0.032620
v 0.067092 -0.054188 0.032621
v 0.067092 -0.057993 -0.025246
v 0.067092 0.057993 0.025244
v 0.000565 0.057121 0.011990
v -0.067092 0.054188 -0.032621
v -0.067092 -0.057993 -0.025245
v -0.067092 -0.054188 0.032621
v -0.067092 0.057993 0.025244
v 0.000565 -0.055059 0.019365
vn 1.0000 -0.0000 -0.0000
vn -0.0000 -0.0656 -0.9978
vn -0.0000 0.9978 -0.0656
vn -1.0000 -0.0000 -0.0000
vn 0.1926 0.0644 0.9792
vn 0.1927 0.0644 0.9791
vn -0.0000 -0.9978 0.0656
vn -0.1958 0.0644 0.9785
vn -0.1958 0.0643 0.9785
s 0
usemtl Material.027
f 3//1 1//1 2//1
f 2//1 1//1 4//1
f 3//2 6//2 1//2
f 1//3 5//3 4//3
f 5//3 1//3 6//3
f 8//4 6//4 7//4
f 6//2 3//2 7//2
f 5//3 6//3 9//3
f 8//4 9//4 6//4
f 9//5 10//5 5//5
f 10//6 9//6 8//6
f 10//7 7//7 2//7
f 4//8 10//8 2//8
f 10//9 4//9 5//9
f 8//7 7//7 10//7
f 3//7 2//7 7//7
