# Blender 5.0.1
# www.blender.org
mtllib torso_bottom_link_visual_7.mtl
o i01.torso.midstom.full.008_visual.001
v 0.238270 0.057637 0.091467
v 0.239353 0.056006 0.101464
v 0.230890 0.055924 0.082957
v 0.223650 0.087573 0.083973
v 0.308633 0.086356 0.113117
v 0.226438 0.086961 0.090235
v 0.226375 0.085069 0.097359
v 0.296986 0.104874 0.121809
v 0.280664 0.088469 0.161723
v 0.182456 0.101803 -0.029893
v 0.318027 0.123180 0.081504
v 0.222955 0.081938 0.104457
v 0.217504 0.086766 0.078365
v 0.289957 0.068857 0.158050
v 0.277580 0.054822 0.197111
v 0.226332 0.047211 0.113227
v 0.235276 0.052227 0.109940
v 0.268287 0.073212 0.200864
v 0.214381 0.077790 0.108131
v 0.112819 0.033181 0.132284
v 0.206520 0.075516 0.105701
v 0.104278 0.020612 0.172461
v 0.099307 -0.028134 0.168736
v -0.045011 -0.062228 0.099334
v -0.076908 -0.068745 0.094304
v -0.058921 -0.099984 0.222073
v 0.129424 0.053650 0.079772
v 0.008399 -0.053679 0.133092
v -0.009655 -0.028003 0.001291
v -0.061689 -0.032538 -0.035431
v -0.092913 -0.102701 0.208092
v -0.084546 -0.136425 0.210309
v -0.132076 -0.105300 0.194132
v -0.125686 -0.139352 0.195987
v -0.125345 -0.108566 0.087141
v -0.156407 -0.140937 0.187731
v -0.070356 -0.088627 0.045855
v -0.127653 -0.096789 0.039570
v -0.049410 -0.133650 0.224287
v -0.047637 -0.075702 0.015416
v -0.072929 -0.065727 -0.045202
v -0.023883 -0.077039 0.043323
v -0.004920 -0.039562 -0.090166
v 0.015924 -0.052522 -0.006203
v 0.025015 -0.070833 0.081897
v 0.095597 -0.047912 0.097131
v 0.071896 -0.076482 0.166751
v 0.020552 -0.089359 0.147244
v 0.050008 -0.038485 -0.011927
v 0.145271 -0.021028 0.074032
v 0.081462 -0.009201 -0.082954
v 0.113294 -0.006776 -0.039229
v 0.164510 -0.001471 0.028014
v 0.160891 0.019360 -0.066070
v 0.187595 0.019406 -0.017625
v 0.222670 0.047107 -0.073142
v 0.148036 0.028425 0.026048
v 0.174095 0.051802 -0.026374
v 0.200924 0.072776 -0.069929
v 0.327320 0.101234 0.077983
v 0.221886 0.051826 0.081835
v 0.216508 0.048525 0.085161
v 0.209040 0.083842 0.077547
v 0.201781 0.079942 0.082146
v 0.198948 0.076153 0.092586
v 0.213089 0.045651 0.090866
v 0.212850 0.043354 0.101012
v 0.129424 0.009562 0.072020
v 0.112819 -0.010907 0.124532
v 0.115584 -0.058302 0.166249
v 0.218282 0.044112 0.109606
v 0.201830 0.075085 0.100713
v 0.073215 -0.109660 0.298436
v 0.059785 -0.076207 0.296191
v 0.034893 -0.082099 0.274431
v 0.047560 -0.115711 0.276642
v 0.059747 -0.042542 0.159950
v 0.006101 -0.087897 0.255140
v -0.025543 -0.094176 0.237033
v -0.014909 -0.127779 0.239243
v 0.013856 -0.122420 0.254862
v 0.200924 0.116864 -0.062177
v 0.041841 0.012899 -0.094587
v 0.045039 0.039609 -0.245428
v 0.116685 0.044835 -0.108261
v 0.018235 0.008559 -0.121155
v 0.114463 0.057658 -0.186296
v -0.015879 -0.008735 -0.092194
v -0.060713 -0.011987 -0.143526
v -0.028011 0.001935 -0.178127
v -0.097224 -0.027251 -0.101305
v -0.119747 -0.044300 -0.038889
v -0.157299 -0.039627 -0.098841
v -0.094324 -0.013456 -0.185173
v -0.133198 -0.006613 -0.292267
v -0.086615 0.004472 -0.297169
v -0.145802 -0.016416 -0.235949
v -0.212570 -0.020519 -0.282936
v -0.189654 -0.036426 -0.154963
v -0.229179 -0.049028 -0.103876
v -0.201583 -0.049790 -0.082547
v -0.190244 -0.074693 0.046597
v -0.230057 -0.059487 -0.045821
v -0.152963 -0.067860 0.041880
v -0.129870 -0.072881 0.075636
v -0.186280 -0.091423 0.117917
v -0.193343 -0.090858 0.111819
v -0.099383 -0.051308 0.010962
v -0.200003 -0.091304 0.110849
v -0.189795 -0.108004 0.115190
v -0.194802 -0.108213 0.112489
v -0.200443 -0.108244 0.112006
v -0.186743 -0.121805 0.104523
v -0.195911 -0.121873 0.101645
v -0.206147 -0.121529 0.102594
v -0.201835 -0.122814 0.101792
v -0.181521 -0.105606 0.040592
v -0.143388 -0.082827 -0.035115
v -0.196256 -0.097880 -0.002334
v -0.211148 -0.124372 0.104877
v -0.178922 -0.122643 0.111292
v -0.173621 -0.124364 0.122845
v -0.179277 -0.120993 0.110732
v -0.174571 -0.120421 0.119428
v -0.173536 -0.119841 0.129066
v -0.186309 -0.107722 0.119486
v -0.184733 -0.107348 0.124836
v -0.185362 -0.107009 0.130417
v -0.184776 -0.093418 0.127576
v -0.187705 -0.095425 0.134077
v -0.162435 -0.107121 0.185507
v -0.192972 -0.141361 0.180356
v -0.197810 -0.107509 0.178130
v -0.194250 -0.097566 0.139171
v -0.203004 -0.098323 0.139123
v -0.197654 -0.106391 0.140191
v -0.192388 -0.106466 0.138677
v -0.188048 -0.106692 0.135240
v -0.176229 -0.119181 0.138450
v -0.182375 -0.118670 0.146216
v -0.191049 -0.118352 0.151051
v -0.187229 -0.133273 0.150443
v -0.179483 -0.130394 0.144083
v -0.174669 -0.127703 0.135231
v -0.196798 -0.135046 0.153302
v -0.208675 -0.135445 0.151584
v -0.201120 -0.118228 0.152183
v -0.208559 -0.118409 0.150249
v -0.202890 -0.106375 0.139636
v -0.207694 -0.106565 0.137172
v -0.211275 -0.106842 0.132959
v -0.209259 -0.097992 0.135319
v -0.215366 -0.118670 0.146216
v -0.221513 -0.119181 0.138450
v -0.219896 -0.134023 0.142520
v -0.224125 -0.131618 0.130622
v -0.235218 -0.142832 0.174680
v -0.271729 -0.119239 0.072597
v -0.304258 -0.143958 0.170936
v -0.299482 -0.110105 0.168530
v -0.233493 -0.108720 0.173184
v -0.223395 -0.081142 0.061306
v -0.213289 -0.096073 0.126348
v -0.268216 -0.081764 0.053383
v -0.292559 -0.075717 0.019683
v -0.341618 -0.110011 0.171248
v -0.341618 -0.078592 0.028069
v -0.341618 -0.057156 -0.087914
v -0.341618 -0.111881 0.030258
v -0.341618 -0.089162 -0.088154
v -0.305936 -0.104067 -0.005555
v -0.341618 -0.060362 -0.276072
v -0.293864 -0.074541 -0.174942
v -0.341618 -0.029175 -0.278111
v -0.294301 -0.087191 -0.093879
v -0.239980 -0.086330 -0.077570
v -0.201184 -0.079960 -0.094604
v -0.234514 -0.104000 0.011578
v -0.341618 -0.143927 0.173478
v -0.217484 -0.065473 -0.196306
v -0.152818 -0.068994 -0.112411
v -0.188740 -0.048276 -0.282823
v -0.248614 -0.055859 -0.278180
v -0.261254 -0.025786 -0.279848
v -0.297260 -0.059142 -0.276557
v -0.293183 -0.027734 -0.278666
v -0.273582 -0.041175 -0.178800
v -0.312015 -0.056259 -0.089936
v -0.279118 -0.055466 -0.086244
v -0.130537 -0.037847 -0.289850
v -0.098507 -0.039667 -0.232623
v -0.081099 -0.048738 -0.146158
v -0.077757 -0.025514 -0.295146
v -0.123921 -0.055461 -0.162042
v -0.096659 -0.061253 -0.094354
v -0.056216 0.012905 -0.298435
v -0.048100 -0.017261 -0.296500
v -0.018134 -0.028376 -0.177149
v -0.001551 -0.006230 -0.272220
v 0.042294 -0.017148 -0.120005
v 0.048170 0.008131 -0.250608
v 0.153782 0.026516 -0.116857
v 0.100016 0.022273 -0.215352
v 0.072605 0.022245 -0.281174
v 0.183566 0.051944 -0.184406
v 0.135022 0.044335 -0.262984
v 0.174054 0.091892 -0.244599
v 0.109498 0.068589 -0.268152
v 0.194776 0.065799 -0.241558
v 0.258392 0.122497 -0.211505
v 0.267921 0.092229 -0.213793
v 0.296303 0.096210 -0.157593
v 0.267251 0.077773 -0.128190
v 0.323990 0.110273 -0.175301
v 0.274001 0.121904 -0.158127
v 0.301463 0.135917 -0.176520
v 0.319378 0.143958 -0.185233
v 0.341618 0.118232 -0.183595
v 0.239346 0.099517 -0.120512
v 0.166472 0.079773 -0.186233
v 0.053093 0.048647 -0.284516
v 0.021790 0.004703 -0.291092
v -0.010950 0.026830 -0.296085
v -0.012170 -0.006374 -0.295063
v -0.012618 0.023206 -0.274148
v -0.211272 -0.094002 0.118290
v -0.212479 -0.107553 0.122054
v -0.212980 -0.107166 0.127605
v -0.224205 -0.119841 0.129066
v -0.223701 -0.120268 0.121984
v -0.221247 -0.120722 0.114851
v -0.223339 -0.128978 0.120581
v -0.218829 -0.126684 0.111567
v -0.214926 -0.121224 0.107230
v -0.205639 -0.108107 0.113630
v -0.209903 -0.107874 0.117167
v -0.206605 -0.092219 0.113029
vn -0.9272 -0.3725 0.0396
vn 0.4206 -0.8871 -0.1902
vn -0.7232 -0.1868 0.6649
vn 0.4197 -0.8886 -0.1851
vn -0.8719 -0.3369 0.3553
vn -0.3380 0.9103 0.2388
vn -0.9002 -0.4188 -0.1192
vn -0.3383 0.9101 0.2395
vn 0.8304 0.3063 0.4655
vn -0.3377 0.9111 0.2364
vn -0.3365 0.9117 0.2356
vn -0.3383 0.9107 0.2370
vn 0.8315 0.3050 0.4644
vn 0.8049 0.2547 0.5359
vn -0.3380 0.9104 0.2387
vn -0.3385 0.9098 0.2400
vn 0.8500 0.3490 0.3947
vn 0.4291 -0.8847 -0.1819
vn 0.4195 -0.8912 -0.1727
vn 0.8552 0.3305 0.3992
vn 0.4292 -0.8847 -0.1820
vn 0.4319 -0.8826 -0.1858
vn -0.3439 0.9066 0.2446
vn -0.3378 0.9098 0.2413
vn -0.3320 0.9181 0.2166
vn -0.3412 0.9079 0.2434
vn -0.0896 -0.2424 0.9660
vn -0.1284 -0.0625 0.9897
vn -0.4284 -0.0253 0.9032
vn -0.5340 0.8326 0.1469
vn -0.2313 0.9407 0.2482
vn -0.2301 0.9440 0.2365
vn -0.1864 0.9448 0.2695
vn -0.3042 0.9196 0.2484
vn -0.5434 0.8341 0.0952
vn -0.5346 0.8308 0.1548
vn -0.3930 0.8212 0.4138
vn -0.2496 0.9387 0.2377
vn -0.3779 -0.0329 0.9253
vn -0.1566 0.9522 0.2621
vn -0.3275 -0.0191 0.9447
vn -0.3351 -0.0116 0.9421
vn -0.2597 0.0039 0.9657
vn 0.1218 -0.9552 -0.2698
vn 0.1434 -0.9524 -0.2689
vn 0.1592 -0.9516 -0.2628
vn 0.1630 -0.9558 -0.2445
vn 0.1630 -0.9557 -0.2450
vn 0.2199 -0.9394 -0.2629
vn 0.1785 -0.9489 -0.2604
vn 0.2115 -0.9464 -0.2440
vn 0.2231 -0.9460 -0.2352
vn 0.3007 -0.9285 -0.2180
vn 0.2219 -0.9465 -0.2342
vn 0.2942 -0.9292 -0.2235
vn 0.3091 -0.9192 -0.2440
vn 0.3477 -0.9030 -0.2522
vn 0.3443 -0.9121 -0.2228
vn 0.3204 -0.9169 -0.2381
vn 0.3184 -0.9175 -0.2384
vn 0.3385 -0.9137 -0.2248
vn 0.3398 -0.9130 -0.2260
vn 0.3385 -0.9137 -0.2251
vn 0.3760 -0.8964 -0.2347
vn 0.3612 -0.9071 -0.2161
vn 0.3624 -0.9072 -0.2135
vn 0.3831 -0.8969 -0.2210
vn 0.3803 -0.8986 -0.2187
vn 0.3712 -0.9021 -0.2202
vn 0.3783 -0.9021 -0.2076
vn 0.3807 -0.9008 -0.2090
vn 0.7118 0.4288 0.5562
vn 0.6451 0.4379 0.6261
vn 0.7080 0.4435 0.5497
vn 0.4100 -0.8945 -0.1782
vn 0.6376 0.4631 0.6157
vn 0.4218 -0.8874 -0.1861
vn 0.4035 -0.8997 -0.1663
vn 0.4261 -0.8849 -0.1880
vn 0.4195 -0.8888 -0.1844
vn -0.1582 0.0779 0.9843
vn 0.3843 0.2650 0.8843
vn 0.4249 -0.8848 -0.1913
vn -0.1241 0.0826 0.9888
vn 0.4028 0.2784 0.8719
vn -0.3395 0.9105 0.2362
vn 0.8517 0.3742 0.3670
vn -0.3386 0.9102 0.2385
vn 0.6939 0.3838 0.6092
vn -0.3387 0.9108 0.2361
vn 0.4248 -0.8849 -0.1912
vn 0.4247 -0.8851 -0.1903
vn 0.9037 0.4125 0.1147
vn 0.4248 -0.8849 -0.1911
vn 0.4283 -0.8795 -0.2074
vn 0.7934 0.4388 0.4219
vn 0.7510 0.4459 0.4870
vn 0.7568 0.4247 0.4969
vn 0.4396 -0.8742 -0.2063
vn 0.8170 0.4071 0.4084
vn 0.7984 0.4234 0.4282
vn 0.4336 -0.8817 -0.1859
vn 0.4317 -0.8806 -0.1953
vn 0.8020 0.2735 -0.5311
vn 0.4221 -0.8891 -0.1772
vn 0.3986 0.0354 -0.9164
vn 0.7087 0.1807 -0.6819
vn 0.9075 0.3125 -0.2808
vn -0.3387 0.9099 0.2396
vn -0.3414 0.9080 0.2427
vn -0.3399 0.9076 0.2463
vn 0.3722 -0.8960 -0.2423
vn 0.3716 -0.8994 -0.2303
vn 0.3704 -0.8968 -0.2419
vn 0.8368 0.3634 0.4094
vn 0.8174 0.4075 0.4072
vn -0.6218 -0.1843 0.7612
vn -0.4024 0.8887 0.2197
vn -0.6085 -0.1926 0.7698
vn -0.3769 0.8992 0.2223
vn -0.3909 0.8267 0.4046
vn -0.3432 0.9082 0.2393
vn -0.3276 0.9116 0.2482
vn -0.3248 0.9118 0.2514
vn -0.4007 -0.0530 0.9147
vn -0.3880 -0.0623 0.9195
vn -0.4802 -0.0946 0.8720
vn -0.2804 0.9218 0.2676
vn -0.4584 -0.1101 0.8819
vn 0.3120 -0.9135 -0.2612
vn 0.2769 -0.9200 -0.2775
vn 0.3409 -0.9067 -0.2482
vn -0.5177 -0.1396 0.8441
vn 0.3264 -0.9091 -0.2590
vn -0.5344 -0.1268 0.8357
vn 0.4024 -0.8868 -0.2274
vn -0.3376 0.9113 0.2359
vn 0.7042 0.3931 -0.5912
vn 0.8048 0.2548 0.5360
vn 0.7440 0.1157 -0.6581
vn -0.5555 0.8286 0.0688
vn -0.3358 0.9125 0.2336
vn 0.0871 0.1725 -0.9811
vn -0.3462 0.9250 0.1565
vn -0.3697 0.9162 0.1544
vn -0.3623 0.9180 0.1612
vn -0.3675 0.9199 0.1371
vn -0.3414 0.9276 0.1518
vn -0.5524 0.8315 0.0580
vn -0.3353 0.9181 0.2116
vn -0.2390 0.9491 0.2051
vn -0.2318 0.9496 0.2112
vn -0.2451 0.9573 0.1535
vn -0.2350 0.9612 0.1443
vn -0.3330 0.9288 0.1623
vn -0.1903 0.9623 0.1942
vn -0.2058 0.9604 0.1881
vn -0.1934 0.9692 0.1527
vn -0.2283 0.9619 0.1503
vn -0.2153 0.9665 0.1399
vn -0.1830 0.9747 0.1287
vn -0.2156 0.9664 0.1399
vn -0.2008 0.9685 0.1471
vn -0.1657 0.9745 0.1511
vn -0.1555 0.9785 0.1355
vn -0.1660 0.9745 0.1509
vn -0.1676 0.9740 0.1522
vn -0.1261 0.9814 0.1446
vn -0.1001 0.9813 0.1646
vn -0.1080 0.9787 0.1747
vn -0.0806 0.9774 0.1955
vn -0.1521 0.9679 0.2000
vn -0.1491 0.9686 0.1989
vn -0.1531 0.9568 0.2470
vn -0.1381 0.9615 0.2375
vn -0.1470 0.9617 0.2314
vn -0.1977 0.9599 0.1987
vn -0.1773 0.9620 0.2077
vn -0.1309 0.9617 0.2407
vn -0.1268 0.9574 0.2596
vn -0.1652 0.9536 0.2516
vn -0.2062 0.9538 0.2183
vn -0.6528 0.0138 0.7574
vn -0.1472 0.0505 0.9878
vn -0.0989 0.9670 0.2350
vn -0.4758 0.0738 0.8765
vn -0.3524 -0.6198 0.7012
vn -0.0854 0.0701 0.9939
vn -0.0637 -0.6173 0.7842
vn -0.2373 -0.5921 0.7701
vn 0.0760 -0.3317 0.9403
vn 0.0546 -0.5927 0.8036
vn 0.1477 -0.9638 -0.2220
vn 0.0820 -0.9677 -0.2385
vn 0.1539 -0.9649 -0.2128
vn 0.1378 -0.9655 -0.2211
vn 0.1345 -0.9662 -0.2201
vn 0.0805 -0.9662 -0.2449
vn 0.1526 -0.9595 -0.2368
vn 0.1012 -0.9663 -0.2366
vn -0.8880 0.1598 0.4312
vn 0.1562 -0.9640 -0.2153
vn -0.6425 0.1183 0.7571
vn -0.8783 -0.0275 0.4772
vn 0.1419 -0.9592 -0.2444
vn -0.7592 -0.6398 0.1200
vn -0.9838 -0.1383 0.1139
vn -0.6708 -0.6219 0.4041
vn -0.7095 -0.6570 0.2548
vn -0.7369 -0.6747 -0.0421
vn -0.9934 0.0192 -0.1131
vn -0.9594 0.0287 0.2805
vn -0.9886 -0.0320 0.1473
vn -0.9048 -0.0494 -0.4229
vn -0.0830 0.9621 0.2596
vn -0.1500 0.9634 0.2224
vn -0.1055 0.9578 0.2672
vn -0.1979 0.0292 0.9798
vn -0.2044 0.0351 0.9783
vn -0.0610 0.9685 0.2416
vn -0.2741 0.0144 0.9616
vn -0.1311 0.9569 0.2593
vn -0.1040 0.9575 0.2689
vn -0.5998 -0.0640 -0.7976
vn 0.0159 -0.1209 -0.9925
vn -0.0850 0.9673 0.2391
vn -0.2765 -0.0045 -0.9610
vn -0.6213 -0.0867 -0.7787
vn -0.4605 -0.7083 -0.5349
vn -0.6475 -0.6938 -0.3151
vn -0.8740 -0.0234 -0.4853
vn -0.5984 -0.6766 -0.4291
vn -0.4874 -0.0894 -0.8686
vn -0.3718 -0.6892 -0.6218
vn -0.7841 -0.0815 -0.6152
vn -0.6313 -0.0146 -0.7754
vn 0.1345 -0.9613 -0.2406
vn 0.1704 -0.9590 -0.2266
vn -0.8806 0.0177 -0.4736
vn 0.1879 -0.9635 -0.1907
vn -0.9935 0.0979 -0.0576
vn 0.1309 -0.9599 -0.2477
vn -0.9600 -0.0736 -0.2703
vn -0.2806 -0.0328 -0.9593
vn 0.1069 -0.9648 -0.2403
vn 0.1441 -0.0288 -0.9891
vn 0.0667 -0.9695 -0.2358
vn -0.1123 -0.0947 -0.9891
vn -0.0887 -0.6959 -0.7126
vn 0.1957 -0.6989 -0.6879
vn 0.2525 -0.0773 -0.9645
vn 0.0710 -0.7201 -0.6903
vn 0.4574 -0.0501 -0.8878
vn 0.3446 -0.7070 -0.6175
vn 0.1050 -0.0618 -0.9925
vn 0.5720 -0.6918 -0.4407
vn 0.7620 -0.0009 -0.6476
vn 0.5140 -0.0906 -0.8530
vn 0.3854 -0.6965 -0.6053
vn 0.5943 -0.6825 -0.4255
vn 0.7841 -0.0832 -0.6151
vn 0.5105 -0.0706 -0.8570
vn 0.6285 0.0018 -0.7778
vn 0.9429 0.0115 -0.3328
vn 0.0837 -0.9705 -0.2259
vn 0.0662 -0.9699 -0.2341
vn 0.0654 -0.9698 -0.2351
vn -0.1346 0.0458 0.9898
vn 0.0373 -0.9706 -0.2377
vn 0.0286 -0.9716 -0.2348
vn -0.1388 0.0504 0.9890
vn -0.0553 0.0785 0.9954
vn -0.0713 0.0473 0.9963
vn -0.0657 0.9693 0.2370
vn -0.0549 0.9706 0.2343
vn -0.0669 0.9701 0.2331
vn -0.0366 0.9726 0.2295
vn -0.0834 0.9715 0.2219
vn -0.0619 0.9700 0.2352
vn -0.0244 0.9808 0.1936
vn -0.0399 0.9781 0.2043
vn 0.0179 0.9697 0.2435
vn -0.0491 0.9784 0.2008
vn -0.0317 0.9763 0.2142
vn -0.0266 0.9830 0.1817
vn -1.0000 -0.0000 -0.0000
vn 0.0259 -0.9818 -0.1884
vn 0.0185 -0.9825 -0.1853
vn 0.0273 -0.9881 -0.1514
vn 0.0225 -0.9878 -0.1540
vn 0.0691 -0.9815 -0.1784
vn 0.0617 -0.9862 -0.1536
vn 0.0735 -0.9774 -0.1982
vn 0.0877 -0.9820 -0.1674
vn 0.0482 -0.9792 -0.1970
vn 0.0507 -0.9769 -0.2074
vn -0.0582 -0.9596 -0.2751
vn 0.0356 -0.9745 -0.2217
vn 0.0717 -0.9706 -0.2299
vn 0.0856 -0.9772 -0.1944
vn -0.0055 -0.9759 -0.2184
vn -0.0178 -0.9683 -0.2493
vn 0.0678 0.0654 0.9955
vn 0.0703 -0.9865 -0.1477
vn 0.1122 -0.9811 -0.1577
vn 0.1116 -0.9812 -0.1577
vn 0.1493 -0.9700 -0.1918
vn 0.1645 -0.9744 -0.1532
vn 0.1540 -0.9684 -0.1963
vn -0.0287 -0.0674 -0.9973
vn -0.0547 -0.0782 -0.9954
vn 0.0615 -0.9865 -0.1516
vn 0.1120 -0.9811 -0.1578
vn -0.0692 -0.0634 -0.9956
vn -0.0091 -0.0658 -0.9978
vn -0.0331 -0.0627 -0.9975
vn 0.0255 -0.9883 -0.1506
vn -0.0095 -0.0653 -0.9978
vn -0.0277 0.9888 0.1467
vn -0.0549 0.9881 0.1438
vn -0.0552 0.9881 0.1438
vn -0.0177 0.9839 0.1778
vn -0.0441 0.9823 0.1822
vn -0.0407 0.9878 0.1501
vn -0.0200 0.9892 0.1455
vn -0.0631 0.9817 0.1797
vn -0.0750 0.9862 0.1478
vn -0.0656 0.9876 0.1424
vn -0.0971 0.9843 0.1477
vn 0.1609 -0.9795 -0.1212
vn -0.1043 -0.0856 -0.9909
vn 0.1794 -0.9713 -0.1559
vn -0.1006 -0.0904 -0.9908
vn 0.2108 -0.9661 -0.1487
vn 0.2050 -0.9683 -0.1429
vn 0.2197 -0.9647 -0.1454
vn 0.2129 -0.9670 -0.1397
vn 0.1843 -0.9702 -0.1573
vn 0.2135 -0.9623 -0.1683
vn 0.2341 -0.9587 -0.1613
vn 0.1954 -0.9610 -0.1958
vn 0.2063 -0.9604 -0.1870
vn 0.2341 -0.9515 -0.1996
vn -0.0785 -0.0902 -0.9928
vn -0.0258 -0.0709 -0.9971
vn -0.0211 -0.0735 -0.9971
vn 0.2229 -0.9640 -0.1453
vn 0.2793 -0.9461 -0.1641
vn 0.2584 -0.9537 -0.1537
vn 0.3330 -0.9275 -0.1699
vn 0.3079 -0.9371 -0.1646
vn 0.3249 -0.9320 -0.1604
vn 0.3389 -0.9264 -0.1641
vn 0.3605 -0.9187 -0.1616
vn 0.3639 -0.9177 -0.1591
vn 0.3628 -0.9128 -0.1877
vn 0.3392 -0.9271 -0.1597
vn 0.3855 -0.9067 -0.1713
vn 0.3515 -0.9247 -0.1460
vn 0.3691 -0.9167 -0.1533
vn 0.3785 -0.9141 -0.1453
vn 0.3028 0.1171 -0.9458
vn 0.2952 0.1240 -0.9474
vn 0.2577 0.0657 -0.9640
vn 0.3806 -0.9130 -0.1467
vn 0.3165 0.1420 -0.9379
vn 0.2975 0.1647 -0.9404
vn 0.3793 -0.9166 -0.1266
vn 0.3911 -0.9091 -0.1437
vn 0.3956 -0.9017 -0.1746
vn 0.4867 0.4382 0.7557
vn 0.3651 0.3615 0.8579
vn 0.3826 -0.9149 -0.1284
vn 0.3885 0.3549 0.8504
vn -0.3676 0.9248 0.0978
vn 0.3011 0.3074 0.9027
vn -0.3847 0.9149 0.1227
vn 0.3203 0.2182 -0.9218
vn 0.2882 0.3069 0.9071
vn 0.3211 0.1715 -0.9314
vn 0.3684 -0.9239 -0.1036
vn -0.3977 0.9016 0.1702
vn 0.5296 0.4192 0.7374
vn -0.3924 0.9094 0.1379
vn -0.3804 0.9168 0.1214
vn -0.3873 0.9105 0.1451
vn -0.3810 0.9139 0.1403
vn -0.3867 0.9090 0.1557
vn -0.3951 0.9015 0.1765
vn 0.5997 0.4231 0.6792
vn 0.5490 0.4575 0.6995
vn 0.3979 -0.8998 -0.1790
vn 0.2560 0.0671 -0.9643
vn -0.3654 0.9206 0.1376
vn -0.3628 0.9205 0.1449
vn 0.1870 0.0138 -0.9823
vn 0.1687 0.0273 -0.9853
vn -0.3423 0.9285 0.1441
vn -0.3304 0.9349 0.1293
vn -0.2977 0.9453 0.1335
vn 0.0660 -0.0462 -0.9968
vn 0.0498 -0.0326 -0.9982
vn 0.1274 -0.0352 -0.9912
vn -0.3096 0.9376 0.1581
vn -0.3421 0.9263 0.1577
vn -0.3243 0.9332 0.1547
vn 0.2923 -0.9475 -0.1299
vn 0.3220 -0.9357 -0.1438
vn 0.3485 -0.9254 -0.1487
vn 0.3287 -0.9347 -0.1350
vn 0.3815 -0.9079 -0.1736
vn 0.3856 -0.9047 -0.1815
vn 0.3665 -0.9129 -0.1799
vn -0.2587 0.9546 0.1477
vn -0.0845 -0.0840 -0.9929
vn 0.0644 0.0617 0.9960
vn -0.0707 0.9819 0.1758
vn -0.0658 0.9703 0.2330
vn 0.9711 -0.0205 0.2379
vn 0.9008 -0.0920 -0.4244
vn 0.9529 -0.0078 -0.3031
vn 0.9955 0.0376 0.0872
vn 0.7447 -0.6578 0.1130
vn 0.7137 -0.6752 -0.1865
vn 0.7293 -0.6646 -0.1625
vn 0.7507 -0.6541 0.0928
vn 0.9453 -0.0132 0.3261
vn 0.7174 -0.6347 0.2873
vn 0.9971 0.0303 0.0692
vn 0.0332 -0.9724 -0.2308
vn 0.8794 0.1003 0.4655
vn 0.9964 0.0177 0.0827
vn 0.0534 -0.9668 -0.2501
vn 0.0594 -0.9626 -0.2645
vn 0.6182 0.1681 0.7679
vn 0.7678 -0.0408 0.6394
vn 0.4615 -0.1044 0.8810
vn 0.3566 -0.6014 0.7150
vn 0.5874 -0.6137 0.5276
vn 0.4731 -0.6336 0.6121
vn 0.6391 0.0679 0.7661
vn 0.6551 -0.6483 0.3880
vn 0.8849 0.0498 0.4632
vn 0.7447 0.0195 0.6671
vn 0.3058 0.0570 0.9504
vn -0.0597 0.9719 0.2276
vn -0.0993 0.9659 0.2391
vn 0.2992 0.0543 0.9527
vn 0.2179 -0.6247 0.7498
vn 0.9613 -0.0296 -0.2738
vn -0.0994 0.9741 0.2031
vn -0.0828 0.9678 0.2376
vn -0.2021 -0.7171 -0.6670
vn -0.7339 -0.6591 -0.1642
vn 0.0688 -0.9557 -0.2863
vn -0.5752 -0.6404 0.5089
vn -0.7770 0.0617 0.6264
vn -0.4707 -0.6024 0.6447
vn 0.2574 0.2879 0.9224
vn 0.2001 -0.9546 -0.2206
vn -0.2535 0.9564 0.1452
vn -0.3758 0.9127 0.1607
vn 0.2051 -0.9484 -0.2417
vn -0.3664 -0.0424 0.9295
vn -0.1903 0.9511 0.2431
vn -0.5456 0.8319 0.1014
vn 0.3054 -0.0392 -0.9514
vn -0.2612 -0.2788 -0.9241
vn -0.3387 0.9104 0.2375
vn -0.2129 -0.2410 -0.9469
vn -0.7397 -0.4058 -0.5368
vn -0.6514 -0.1727 0.7388
vn -0.7402 -0.4062 -0.5358
s 0
usemtl Material.008
f 1//1 2//1 6//1
f 1//2 5//2 2//2
f 4//3 3//3 1//3
f 1//4 3//4 5//4
f 1//5 6//5 4//5
f 6//6 7//6 8//6
f 2//7 7//7 6//7
f 6//8 8//8 4//8
f 14//9 8//9 9//9
f 8//10 12//10 9//10
f 10//11 13//11 8//11
f 10//12 8//12 11//12
f 14//13 5//13 8//13
f 5//14 11//14 8//14
f 7//15 12//15 8//15
f 4//16 8//16 13//16
f 14//17 18//17 15//17
f 14//18 15//18 16//18
f 5//19 14//19 2//19
f 14//20 9//20 18//20
f 16//21 17//21 14//21
f 2//22 14//22 17//22
f 9//23 19//23 18//23
f 19//24 21//24 18//24
f 18//25 20//25 22//25
f 21//26 20//26 18//26
f 22//27 15//27 18//27
f 22//28 23//28 15//28
f 24//29 23//29 22//29
f 20//30 24//30 22//30
f 31//31 24//31 25//31
f 30//32 25//32 24//32
f 31//33 26//33 24//33
f 28//34 24//34 26//34
f 29//35 24//35 27//35
f 20//36 27//36 24//36
f 23//37 24//37 28//37
f 30//38 24//38 29//38
f 31//39 32//39 26//39
f 25//40 33//40 31//40
f 31//41 34//41 32//41
f 33//42 34//42 31//42
f 34//43 33//43 36//43
f 36//44 35//44 34//44
f 37//45 34//45 35//45
f 34//46 37//46 32//46
f 38//47 37//47 35//47
f 37//48 38//48 41//48
f 42//49 39//49 37//49
f 37//50 39//50 32//50
f 40//51 37//51 41//51
f 42//52 37//52 40//52
f 42//53 43//53 44//53
f 40//54 43//54 42//54
f 44//55 45//55 42//55
f 45//56 39//56 42//56
f 47//57 45//57 46//57
f 45//58 49//58 46//58
f 47//59 48//59 45//59
f 48//60 39//60 45//60
f 44//61 49//61 45//61
f 49//62 43//62 51//62
f 44//63 43//63 49//63
f 49//64 50//64 46//64
f 49//65 52//65 50//65
f 49//66 51//66 52//66
f 52//67 53//67 50//67
f 52//68 55//68 53//68
f 52//69 51//69 54//69
f 52//70 54//70 55//70
f 54//71 56//71 55//71
f 57//72 53//72 55//72
f 58//73 55//73 56//73
f 58//74 57//74 55//74
f 58//75 59//75 60//75
f 59//76 58//76 56//76
f 57//77 58//77 61//77
f 58//78 60//78 5//78
f 61//79 58//79 3//79
f 58//80 5//80 3//80
f 13//81 61//81 3//81
f 64//82 62//82 61//82
f 62//83 57//83 61//83
f 13//84 63//84 61//84
f 64//85 61//85 63//85
f 10//86 64//86 63//86
f 66//87 64//87 65//87
f 27//88 65//88 64//88
f 62//89 64//89 66//89
f 27//90 64//90 10//90
f 66//91 57//91 62//91
f 68//92 66//92 67//92
f 66//93 65//93 67//93
f 68//94 57//94 66//94
f 67//95 69//95 68//95
f 68//96 69//96 50//96
f 57//97 68//97 53//97
f 68//98 50//98 53//98
f 23//99 69//99 15//99
f 69//100 23//100 70//100
f 69//101 70//101 50//101
f 71//102 15//102 69//102
f 71//103 69//103 67//103
f 67//104 72//104 71//104
f 16//105 15//105 71//105
f 71//106 21//106 16//106
f 71//107 72//107 21//107
f 67//108 65//108 72//108
f 27//109 72//109 65//109
f 21//110 72//110 20//110
f 72//111 27//111 20//111
f 46//112 50//112 70//112
f 47//113 70//113 73//113
f 47//114 46//114 70//114
f 74//115 73//115 70//115
f 23//116 74//116 70//116
f 75//117 76//117 74//117
f 74//118 77//118 75//118
f 74//119 76//119 73//119
f 77//120 74//120 23//120
f 77//121 23//121 28//121
f 77//122 78//122 75//122
f 79//123 77//123 28//123
f 79//124 78//124 77//124
f 26//125 39//125 79//125
f 79//126 39//126 80//126
f 79//127 80//127 78//127
f 28//128 26//128 79//128
f 78//129 80//129 81//129
f 80//130 48//130 81//130
f 80//131 39//131 48//131
f 81//132 47//132 76//132
f 76//133 75//133 81//133
f 47//134 81//134 48//134
f 81//135 75//135 78//135
f 47//136 73//136 76//136
f 63//137 13//137 10//137
f 82//138 11//138 60//138
f 5//139 60//139 11//139
f 82//140 60//140 59//140
f 10//141 82//141 83//141
f 10//142 11//142 82//142
f 83//143 82//143 59//143
f 84//144 86//144 83//144
f 83//145 87//145 84//145
f 85//146 87//146 83//146
f 83//147 59//147 85//147
f 88//148 83//148 86//148
f 10//149 83//149 29//149
f 88//150 29//150 83//150
f 91//151 30//151 88//151
f 30//152 29//152 88//152
f 90//153 89//153 88//153
f 89//154 91//154 88//154
f 86//155 90//155 88//155
f 92//156 91//156 93//156
f 91//157 92//157 30//157
f 94//158 93//158 91//158
f 94//159 91//159 89//159
f 94//160 96//160 95//160
f 94//161 95//161 97//161
f 96//162 94//162 89//162
f 94//163 97//163 93//163
f 99//164 93//164 97//164
f 97//165 95//165 98//165
f 99//166 97//166 98//166
f 93//167 99//167 101//167
f 99//168 98//168 100//168
f 99//169 100//169 101//169
f 100//170 103//170 101//170
f 102//171 101//171 103//171
f 101//172 102//172 104//172
f 101//173 104//173 93//173
f 108//174 104//174 105//174
f 106//175 105//175 104//175
f 107//176 104//176 102//176
f 92//177 93//177 104//177
f 108//178 92//178 104//178
f 106//179 104//179 107//179
f 33//180 108//180 105//180
f 108//181 33//181 30//181
f 92//182 108//182 30//182
f 110//183 106//183 107//183
f 109//184 111//184 107//184
f 107//185 102//185 109//185
f 111//186 110//186 107//186
f 110//187 111//187 113//187
f 109//188 112//188 111//188
f 111//189 112//189 114//189
f 111//190 114//190 113//190
f 115//191 116//191 114//191
f 112//192 115//192 114//192
f 114//193 116//193 117//193
f 113//194 114//194 117//194
f 38//195 117//195 118//195
f 118//196 117//196 119//196
f 117//197 120//197 119//197
f 117//198 116//198 120//198
f 38//199 121//199 117//199
f 121//200 113//200 117//200
f 121//201 122//201 124//201
f 35//202 122//202 121//202
f 123//203 113//203 121//203
f 121//204 124//204 123//204
f 38//205 35//205 121//205
f 127//206 124//206 125//206
f 125//207 124//207 122//207
f 126//208 123//208 124//208
f 127//209 126//209 124//209
f 127//210 125//210 128//210
f 127//211 128//211 129//211
f 126//212 127//212 106//212
f 127//213 129//213 106//213
f 130//214 129//214 128//214
f 130//215 131//215 129//215
f 129//216 105//216 106//216
f 131//217 105//217 129//217
f 36//218 131//218 132//218
f 132//219 131//219 133//219
f 134//220 133//220 131//220
f 36//221 33//221 131//221
f 33//222 105//222 131//222
f 134//223 131//223 130//223
f 134//224 130//224 138//224
f 135//225 134//225 136//225
f 135//226 133//226 134//226
f 137//227 136//227 134//227
f 134//228 138//228 137//228
f 138//229 140//229 137//229
f 128//230 139//230 138//230
f 130//231 128//231 138//231
f 138//232 139//232 140//232
f 141//233 140//233 142//233
f 137//234 140//234 141//234
f 140//235 139//235 143//235
f 140//236 143//236 142//236
f 35//237 132//237 143//237
f 143//238 132//238 142//238
f 139//239 144//239 143//239
f 143//240 144//240 35//240
f 125//241 122//241 144//241
f 144//242 122//242 35//242
f 139//243 125//243 144//243
f 141//244 142//244 145//244
f 145//245 142//245 132//245
f 147//246 145//246 146//246
f 146//247 145//247 132//247
f 147//248 141//248 145//248
f 136//249 141//249 147//249
f 149//250 147//250 148//250
f 148//251 147//251 146//251
f 149//252 136//252 147//252
f 135//253 149//253 150//253
f 148//254 150//254 149//254
f 135//255 136//255 149//255
f 153//256 151//256 150//256
f 151//257 152//257 150//257
f 135//258 150//258 152//258
f 148//259 153//259 150//259
f 153//260 154//260 151//260
f 153//261 155//261 154//261
f 148//262 146//262 153//262
f 153//263 146//263 155//263
f 156//264 154//264 155//264
f 156//265 155//265 157//265
f 146//266 157//266 155//266
f 157//267 146//267 132//267
f 132//268 133//268 157//268
f 158//269 156//269 157//269
f 158//270 157//270 159//270
f 157//271 133//271 161//271
f 157//272 160//272 159//272
f 157//273 161//273 160//273
f 133//274 135//274 161//274
f 161//275 162//275 164//275
f 161//276 163//276 162//276
f 161//277 164//277 160//277
f 161//278 135//278 152//278
f 161//279 152//279 163//279
f 167//280 164//280 165//280
f 165//281 164//281 103//281
f 164//282 166//282 160//282
f 164//283 162//283 103//283
f 167//284 166//284 164//284
f 168//285 167//285 165//285
f 167//286 169//286 166//286
f 168//286 170//286 167//286
f 167//286 170//286 169//286
f 171//287 169//287 170//287
f 170//288 175//288 171//288
f 170//289 172//289 173//289
f 174//286 172//286 170//286
f 175//290 170//290 173//290
f 174//286 170//286 168//286
f 171//291 175//291 176//291
f 173//292 176//292 175//292
f 176//293 177//293 178//293
f 173//294 177//294 176//294
f 171//295 176//295 178//295
f 178//296 179//296 171//296
f 158//297 179//297 178//297
f 120//298 158//298 178//298
f 178//299 119//299 120//299
f 178//300 177//300 119//300
f 166//286 169//286 179//286
f 171//301 179//301 169//301
f 159//302 179//302 158//302
f 166//303 179//303 159//303
f 183//304 177//304 173//304
f 180//305 182//305 177//305
f 183//306 180//306 177//306
f 118//307 177//307 181//307
f 181//308 177//308 182//308
f 119//309 177//309 118//309
f 185//310 184//310 183//310
f 184//311 98//311 183//311
f 173//312 185//312 183//312
f 180//313 183//313 182//313
f 183//314 98//314 182//314
f 172//315 186//315 185//315
f 186//316 184//316 185//316
f 173//317 172//317 185//317
f 172//318 174//318 186//318
f 174//319 188//319 186//319
f 187//320 184//320 186//320
f 188//321 187//321 186//321
f 168//322 165//322 188//322
f 165//323 189//323 188//323
f 187//324 188//324 189//324
f 188//325 174//325 168//325
f 189//326 165//326 100//326
f 100//327 187//327 189//327
f 100//328 184//328 187//328
f 98//329 184//329 100//329
f 191//330 182//330 190//330
f 182//331 95//331 190//331
f 181//332 182//332 191//332
f 98//333 95//333 182//333
f 191//334 190//334 193//334
f 191//335 192//335 194//335
f 191//336 193//336 192//336
f 181//337 191//337 194//337
f 194//338 195//338 181//338
f 194//339 192//339 195//339
f 192//340 43//340 195//340
f 118//341 181//341 195//341
f 118//342 195//342 41//342
f 41//343 195//343 43//343
f 190//344 96//344 193//344
f 193//345 196//345 197//345
f 96//346 196//346 193//346
f 193//347 43//347 192//347
f 193//348 198//348 43//348
f 193//349 197//349 198//349
f 200//350 43//350 198//350
f 198//351 197//351 199//351
f 199//352 200//352 198//352
f 201//353 200//353 199//353
f 203//354 200//354 201//354
f 200//355 203//355 202//355
f 51//356 200//356 202//356
f 51//357 43//357 200//357
f 202//358 203//358 205//358
f 204//359 203//359 201//359
f 203//360 204//360 206//360
f 206//361 205//361 203//361
f 208//362 207//362 206//362
f 206//363 207//363 209//363
f 206//364 204//364 208//364
f 209//365 205//365 206//365
f 207//366 210//366 209//366
f 209//367 210//367 211//367
f 212//368 209//368 211//368
f 205//369 209//369 212//369
f 205//370 212//370 213//370
f 213//371 212//371 215//371
f 212//372 214//372 216//372
f 212//373 211//373 214//373
f 215//374 212//374 216//374
f 210//375 216//375 217//375
f 216//376 214//376 217//376
f 215//377 216//377 210//377
f 210//378 217//378 218//378
f 214//379 218//379 217//379
f 211//380 210//380 218//380
f 211//381 218//381 214//381
f 220//382 219//382 215//382
f 219//383 213//383 215//383
f 220//384 215//384 207//384
f 215//385 210//385 207//385
f 208//386 87//386 220//386
f 207//387 208//387 220//387
f 220//388 87//388 219//388
f 219//389 87//389 59//389
f 219//390 59//390 56//390
f 56//391 213//391 219//391
f 205//392 213//392 56//392
f 208//393 204//393 221//393
f 84//394 208//394 221//394
f 208//395 84//395 87//395
f 204//396 222//396 221//396
f 221//397 222//397 223//397
f 84//398 221//398 223//398
f 225//399 84//399 223//399
f 225//400 223//400 196//400
f 196//401 223//401 197//401
f 197//402 223//402 224//402
f 222//403 224//403 223//403
f 90//404 225//404 196//404
f 84//405 225//405 86//405
f 225//406 90//406 86//406
f 199//407 197//407 224//407
f 222//408 199//408 224//408
f 204//409 201//409 222//409
f 222//410 201//410 199//410
f 205//411 56//411 202//411
f 202//412 56//412 54//412
f 202//413 54//413 51//413
f 96//414 90//414 196//414
f 95//415 96//415 190//415
f 166//416 159//416 160//416
f 165//417 103//417 100//417
f 162//418 163//418 226//418
f 227//419 226//419 163//419
f 151//420 163//420 152//420
f 228//421 163//421 151//421
f 227//422 163//422 228//422
f 230//423 227//423 228//423
f 154//424 228//424 151//424
f 154//425 229//425 228//425
f 230//426 228//426 229//426
f 230//427 232//427 231//427
f 227//428 230//428 231//428
f 232//429 230//429 229//429
f 233//430 232//430 158//430
f 231//431 232//431 233//431
f 232//432 229//432 156//432
f 232//433 156//433 158//433
f 120//434 233//434 158//434
f 234//435 233//435 120//435
f 231//436 233//436 234//436
f 234//437 120//437 115//437
f 235//438 234//438 115//438
f 236//439 231//439 234//439
f 236//440 234//440 235//440
f 235//441 237//441 236//441
f 227//442 231//442 236//442
f 236//443 226//443 227//443
f 236//444 237//444 226//444
f 237//445 112//445 109//445
f 237//446 109//446 162//446
f 226//447 237//447 162//447
f 237//448 235//448 112//448
f 235//449 115//449 112//449
f 156//450 229//450 154//450
f 102//451 103//451 162//451
f 109//452 102//452 162//452
f 137//453 141//453 136//453
f 128//454 125//454 139//454
f 36//455 132//455 35//455
f 126//456 110//456 123//456
f 110//457 126//457 106//457
f 110//458 113//458 123//458
f 115//459 120//459 116//459
f 38//460 118//460 41//460
f 90//461 96//461 89//461
f 85//462 59//462 87//462
f 40//463 41//463 43//463
f 26//464 32//464 39//464
f 33//465 25//465 30//465
f 29//466 27//466 10//466
f 16//467 21//467 19//467
f 19//468 12//468 17//468
f 19//469 9//469 12//469
f 19//470 17//470 16//470
f 12//471 2//471 17//471
f 4//472 13//472 3//472
f 12//473 7//473 2//473
