# Blender 5.0.1
# www.blender.org
mtllib torso_z_link_visual_16.mtl
o i01.torso.topStom.full.017_visual.001
v 0.021818 -0.043761 0.206154
v 0.057556 -0.048093 0.140281
v 0.006797 -0.014790 0.257000
v 0.006039 -0.039994 0.263426
v -0.037284 -0.038382 0.224432
v 0.023427 -0.018451 0.201335
v 0.046716 -0.021432 0.156002
v -0.017401 -0.041990 0.169550
v -0.030643 -0.061016 0.202171
v -0.008019 -0.064488 0.149414
v 0.016260 -0.045910 0.109949
v 0.043065 -0.069362 0.075987
v 0.082518 -0.050095 0.109776
v 0.045348 -0.048246 0.074409
v 0.057992 -0.053950 0.060546
v 0.058768 -0.032324 0.059191
v 0.094022 -0.034892 0.096627
v 0.075073 -0.024074 0.115820
v 0.111241 -0.026435 0.079909
v 0.106048 -0.051679 0.085904
v 0.161851 -0.054352 0.045088
v 0.150653 -0.028370 0.050434
v 0.072878 -0.050107 0.046494
v 0.072203 -0.071306 0.047415
v 0.137935 -0.053210 -0.001076
v 0.221676 -0.076578 -0.034448
v 0.140724 -0.074386 -0.001125
v 0.218795 -0.055414 -0.034600
v 0.214536 -0.055864 0.022075
v 0.263792 -0.056740 0.008772
v 0.259161 -0.031167 0.007950
v 0.203298 -0.030088 0.024353
v 0.224110 -0.028308 0.044002
v 0.159914 -0.026286 0.074767
v 0.280301 -0.029197 0.030476
v 0.219294 0.034885 0.041573
v 0.275240 0.033931 0.027078
v 0.321067 0.033718 0.023830
v 0.321067 0.039259 0.108097
v 0.291975 0.039376 0.109879
v 0.251884 0.040011 0.119532
v 0.321067 0.061903 0.106607
v 0.288365 0.062057 0.108922
v 0.321067 0.049878 -0.002649
v 0.248443 0.062738 0.119270
v 0.214473 0.041146 0.136793
v 0.211549 0.063955 0.137045
v -0.005827 0.053382 -0.023003
v 0.178441 0.065544 0.161970
v 0.181148 0.042738 0.161012
v 0.153201 0.044726 0.191247
v 0.090363 0.040931 0.133524
v 0.153870 0.037060 0.074648
v 0.094974 -0.022516 0.132066
v 0.055590 -0.018462 0.193768
v 0.053400 0.044923 0.194240
v 0.032004 -0.014052 0.260790
v 0.026499 -0.010043 0.321800
v -0.000254 -0.010529 0.321787
v 0.030585 0.049494 0.263758
v 0.026499 0.053038 0.317652
v 0.127350 0.047595 0.234864
v 0.113272 0.050899 0.285111
v 0.113864 0.073159 0.277730
v 0.110947 0.053038 0.317652
v 0.110947 0.075683 0.316162
v 0.000523 0.070862 0.316480
v -0.104958 0.076643 0.315984
v -0.086842 0.074284 0.294900
v 0.129487 0.070078 0.229594
v -0.025951 0.054169 -0.011021
v -0.011297 0.054113 -0.011870
v 0.151024 0.067563 0.192686
v -0.017675 -0.021450 -0.004689
v -0.009917 -0.021714 -0.008475
v -0.006073 -0.022212 -0.016265
v 0.001921 -0.034511 -0.005728
v 0.003896 -0.035575 -0.021515
v -0.008862 -0.022839 -0.025812
v -0.014090 0.052567 -0.035383
v -0.017489 -0.023151 -0.030559
v -0.004104 -0.036453 -0.035261
v -0.023156 -0.036613 -0.040332
v -0.003260 -0.056569 -0.033357
v -0.020479 -0.048125 -0.039736
v -0.024267 -0.052760 -0.060005
v -0.036138 -0.036458 -0.033094
v -0.042162 -0.035073 -0.014278
v -0.031280 -0.022486 -0.020224
v -0.026901 -0.022967 -0.027746
v -0.062594 -0.050234 -0.021413
v -0.042294 -0.049343 -0.011849
v -0.043894 -0.034577 -0.042225
v -0.042845 -0.013520 -0.043878
v -0.061822 -0.029135 -0.023133
v -0.068109 -0.007721 -0.069578
v -0.087995 -0.023197 -0.047561
v -0.109268 -0.025071 0.037821
v -0.117384 -0.020886 -0.012403
v -0.098831 -0.047313 0.022802
v -0.002640 -0.062035 0.033510
v -0.147075 -0.041888 0.104157
v -0.041980 -0.059609 0.109573
v -0.096085 -0.051364 0.203146
v -0.086820 -0.049010 0.302962
v -0.178705 -0.036067 0.192647
v -0.158581 -0.036159 0.298367
v -0.046195 -0.057252 0.259459
v -0.194996 -0.029941 0.293085
v -0.185494 -0.012856 0.223601
v -0.195047 -0.011663 0.321906
v -0.193998 0.009412 0.320520
v -0.193291 -0.008199 0.294407
v -0.229815 -0.001158 0.290378
v -0.230820 -0.004788 0.321450
v -0.229999 -0.022281 0.292978
v -0.229726 0.016868 0.320031
v -0.212317 -0.008121 0.181727
v -0.226087 -0.025190 0.249360
v -0.211856 -0.029910 0.177637
v -0.340973 0.002223 0.236206
v -0.345240 0.005495 0.285851
v -0.346154 0.075683 0.316162
v -0.344055 0.072049 0.260896
v -0.346144 0.023674 0.319585
v -0.331224 0.066297 0.173427
v -0.307046 0.060879 0.091030
v -0.328496 -0.002287 0.167619
v -0.159553 0.074038 0.291152
v -0.308903 -0.006686 0.100711
v -0.282405 -0.010928 0.036208
v -0.188461 -0.034318 0.110560
v -0.158017 -0.016884 0.048454
v -0.188852 -0.012676 0.112445
v -0.156763 -0.038510 0.046067
v -0.249291 -0.014965 -0.025186
v -0.121403 -0.042103 -0.007040
v -0.209932 -0.018752 -0.082778
v -0.089915 -0.044676 -0.044957
v -0.174681 -0.021555 -0.124884
v -0.069048 -0.029522 -0.068062
v -0.046631 -0.026171 -0.090026
v -0.150644 -0.006256 -0.151264
v -0.047651 -0.047276 -0.087153
v -0.125407 -0.024746 -0.174047
v -0.013991 -0.049165 -0.115215
v 0.042801 -0.030234 -0.154574
v -0.087214 -0.026863 -0.206137
v 0.045786 -0.051751 -0.155263
v -0.029781 -0.029474 -0.245835
v 0.120786 -0.032716 -0.192318
v 0.103025 -0.053715 -0.183610
v 0.031479 -0.031675 -0.279319
v 0.148845 -0.054938 -0.200608
v 0.162843 -0.034763 -0.326280
v 0.095920 -0.033445 -0.306231
v 0.217320 -0.034580 -0.220666
v 0.223925 -0.055745 -0.220429
v 0.222294 -0.035828 -0.337907
v 0.168234 0.033061 -0.332031
v 0.236978 0.032246 -0.344415
v 0.286257 -0.035972 -0.344135
v 0.290842 -0.056663 -0.227262
v 0.321067 -0.019351 -0.230780
v 0.293191 -0.035127 -0.228985
v 0.321070 -0.020119 -0.346060
v 0.321067 -0.040408 -0.229125
v 0.321057 0.031882 -0.349964
v 0.321067 0.043002 -0.180851
v 0.321067 -0.024462 -0.194638
v 0.295266 0.041899 -0.197394
v 0.295061 -0.040242 -0.192892
v 0.321067 -0.045535 -0.175030
v 0.321067 -0.043151 -0.193409
v 0.231624 -0.039822 -0.186502
v 0.294010 -0.061399 -0.191228
v 0.297569 -0.070745 -0.118682
v 0.251438 -0.061054 -0.187403
v 0.183835 -0.060237 -0.173877
v 0.152009 -0.038408 -0.165005
v 0.095261 -0.058003 -0.141012
v 0.184083 -0.071493 -0.077353
v 0.074922 -0.067042 -0.029588
v 0.036136 -0.065364 0.008893
v 0.026808 -0.055324 -0.100257
v 0.021224 -0.033976 -0.097600
v -0.023247 -0.031591 -0.061328
v 0.090602 -0.036725 -0.139400
v -0.002402 -0.043095 0.000022
v 0.004028 -0.055263 -0.019494
v 0.002380 -0.048713 -0.006333
v -0.009826 -0.033839 0.004878
v -0.010298 -0.049559 0.006105
v -0.020993 -0.033751 0.006443
v -0.028582 -0.055583 0.006618
v -0.033573 -0.034024 0.001696
v -0.029103 -0.021678 -0.009230
v -0.031646 0.053347 -0.023523
v -0.160951 0.045398 -0.144408
v -0.246395 0.052634 -0.034356
v -0.206558 0.048869 -0.091621
v -0.027252 0.052761 -0.032432
v -0.110051 0.042258 -0.192163
v -0.038986 0.038786 -0.244965
v 0.297903 0.046494 -0.127733
v 0.036499 0.036077 -0.286167
v 0.101144 0.034343 -0.312537
v 0.346154 -0.065926 -0.155078
v 0.346154 0.044220 -0.162319
v 0.321067 0.051246 -0.055470
v 0.321067 0.047710 -0.109249
v 0.321067 -0.052333 -0.138656
v 0.321004 -0.056535 -0.102448
v 0.321067 -0.040505 -0.049571
v 0.301318 -0.077390 -0.046687
v 0.321067 -0.061562 -0.047916
v 0.342389 -0.073988 -0.082707
v 0.342396 0.048926 -0.090756
v 0.301977 -0.056413 -0.048636
v 0.303043 -0.056996 0.004819
v 0.321067 -0.042000 0.003393
v 0.321054 -0.031538 0.002315
v 0.321067 -0.029363 0.027979
v -0.280011 0.056652 0.026748
v -0.154032 -0.019639 0.120433
v -0.122757 -0.039458 0.347104
v -0.122619 0.077228 0.339636
v -0.141283 -0.022004 0.322587
v -0.177133 0.075683 0.316163
v -0.194339 -0.025712 0.349963
v -0.194609 0.077390 0.342133
v -0.177133 -0.015150 0.322136
v -0.050834 -0.054234 0.305241
v -0.050659 -0.033338 0.302294
v -0.050296 -0.016059 0.322195
v 0.000682 -0.037202 0.306101
v 0.000523 -0.021015 0.322522
v -0.051344 -0.037134 0.323581
v -0.105368 -0.028620 0.323021
vn -0.0705 -0.9971 0.0273
vn 0.8784 0.0792 0.4713
vn 0.9640 0.0381 0.2631
vn 0.9580 -0.0063 0.2866
vn -0.0770 -0.9960 0.0443
vn -0.0793 -0.9962 0.0368
vn 0.8899 0.0301 0.4552
vn 0.9193 0.0324 0.3921
vn 0.9370 -0.0630 0.3436
vn 0.8655 -0.0814 0.4942
vn -0.0713 -0.9971 0.0253
vn 0.8185 0.1227 0.5613
vn 0.7722 -0.0361 0.6344
vn -0.0630 -0.9979 0.0140
vn -0.0630 -0.9979 0.0139
vn 0.7419 0.0154 0.6703
vn 0.7327 -0.0284 0.6800
vn 0.4217 -0.7865 -0.4511
vn 0.4324 -0.7544 -0.4939
vn 0.7240 0.0473 0.6882
vn 0.7034 -0.0280 0.7103
vn 0.6885 0.0304 0.7246
vn -0.5484 -0.6924 0.4689
vn -0.5377 -0.7290 0.4235
vn 0.5908 0.0896 0.8018
vn -0.0477 -0.9989 0.0003
vn 0.5997 0.0660 0.7975
vn 0.5907 0.0162 0.8068
vn 0.6761 0.0105 0.7367
vn -0.0477 -0.9989 -0.0000
vn 0.5787 0.0743 0.8122
vn 0.3837 0.0589 0.9216
vn 0.3813 0.0481 0.9232
vn -0.0315 -0.9995 -0.0103
vn -0.0322 -0.9994 -0.0081
vn 0.2612 0.0782 0.9621
vn -0.0203 -0.9997 -0.0095
vn 0.4008 0.0942 0.9113
vn 0.2822 0.0383 0.9586
vn 0.4441 0.0070 0.8959
vn 0.0055 -0.9964 0.0844
vn 0.0080 -0.9966 0.0818
vn 0.0081 -0.9966 0.0823
vn 0.4329 0.0675 0.8989
vn 0.2345 0.0710 0.9695
vn 0.0042 -0.9965 0.0832
vn 0.2513 0.0563 0.9663
vn 0.0708 0.0593 0.9957
vn -0.0000 -0.9978 0.0656
vn 0.0613 0.0655 0.9960
vn 0.2345 0.0782 0.9690
vn 0.0707 0.0533 0.9961
vn -0.0121 0.9936 -0.1120
vn -0.0031 0.9940 -0.1094
vn 0.2514 0.0492 0.9666
vn -0.0248 0.9925 -0.1195
vn 0.4348 0.0458 0.8994
vn 0.4197 0.0739 0.9047
vn -0.0009 0.9979 -0.0648
vn 0.0161 0.9960 -0.0877
vn 0.5887 0.0666 0.8056
vn 0.6022 0.0380 0.7975
vn 0.7350 0.0589 0.6755
vn 0.6623 0.0646 0.7464
vn 0.6806 0.0326 0.7320
vn 0.4519 0.0448 0.8909
vn 0.0135 -0.9968 0.0791
vn 0.0156 -0.9969 0.0765
vn 0.0113 -0.9969 0.0784
vn 0.8434 0.0490 0.5351
vn 0.0148 -0.9971 0.0749
vn 0.0165 -0.9973 0.0714
vn 0.0172 -0.9971 0.0744
vn 0.9435 0.0301 0.3300
vn 0.8546 0.0257 0.5186
vn 0.9959 0.0181 0.0887
vn 0.0181 -0.9976 0.0672
vn 0.0190 -0.9975 0.0677
vn 0.9502 0.0067 0.3114
vn 0.0185 -0.9973 0.0711
vn 0.9971 0.0050 0.0753
vn 0.9974 -0.0029 0.0714
vn 0.9621 0.0624 0.2655
vn -0.0000 0.0656 0.9978
vn -0.0437 0.9967 -0.0688
vn -0.0011 0.0651 0.9979
vn 0.0549 0.9964 -0.0643
vn 0.0303 0.9989 0.0359
vn -0.0472 0.9958 -0.0791
vn -0.0004 0.0651 0.9979
vn -0.0004 0.9978 -0.0657
vn -0.0000 0.9978 -0.0660
vn 0.0017 0.9978 -0.0670
vn 0.9507 -0.0178 0.3097
vn 0.8642 0.0355 0.5019
vn -0.0000 0.9978 -0.0656
vn 0.7467 0.0293 0.6645
vn 0.8606 0.0501 0.5068
vn -0.0001 0.9978 -0.0656
vn -0.4394 -0.0482 -0.8970
vn -0.0580 -0.0896 -0.9943
vn -0.8971 -0.0360 -0.4404
vn -0.8978 -0.0362 -0.4388
vn -0.9600 0.0280 0.2787
vn -0.6715 -0.6829 -0.2877
vn -0.8116 -0.5809 -0.0624
vn -0.7248 -0.6405 0.2539
vn -0.8321 0.0127 0.5545
vn -0.4827 0.0773 0.8723
vn -0.3635 -0.6136 0.7010
vn -0.7033 -0.5545 0.4448
vn -0.2571 -0.0098 0.9663
vn -0.2169 -0.5121 0.8311
vn -0.8645 0.0113 0.5024
vn -0.3132 0.0765 0.9466
vn -0.5045 -0.8164 0.2810
vn -0.4941 -0.8229 0.2805
vn 0.4823 0.1568 0.8618
vn 0.9524 0.0426 0.3018
vn 0.7874 -0.5428 0.2920
vn 0.6602 -0.6200 0.4239
vn 0.3981 -0.5605 0.7262
vn 0.2720 -0.8704 -0.4104
vn 0.2490 -0.8584 -0.4485
vn -0.5130 -0.8156 0.2678
vn -0.6830 -0.0233 -0.7301
vn -0.7327 -0.0286 -0.6799
vn -0.7313 -0.0171 -0.6818
vn 0.2412 -0.8685 -0.4331
vn 0.2045 -0.8781 -0.4325
vn -0.1595 -0.9848 -0.0685
vn -0.7868 0.0464 -0.6155
vn -0.1573 -0.9859 -0.0567
vn -0.7740 -0.0233 -0.6328
vn -0.1463 -0.9882 -0.0442
vn -0.1452 -0.9879 -0.0538
vn -0.8603 -0.0620 -0.5060
vn -0.1646 -0.9858 -0.0319
vn -0.1459 -0.9893 0.0028
vn -0.1658 -0.9861 -0.0090
vn -0.1272 -0.9913 -0.0341
vn -0.1211 -0.9925 -0.0183
vn -0.1454 -0.9894 0.0028
vn -0.1594 -0.9865 0.0381
vn -0.1786 -0.9831 0.0398
vn -0.1820 -0.9833 -0.0004
vn -0.1856 -0.9822 0.0298
vn -0.1455 -0.9890 0.0255
vn -0.1742 -0.9838 0.0428
vn -0.9898 0.0846 -0.1146
vn -0.9846 -0.0816 -0.1547
vn -0.9984 0.0476 -0.0319
vn -0.2166 -0.8246 0.5226
vn -0.9931 0.0829 -0.0828
vn -0.2164 -0.8121 0.5419
vn -0.1937 -0.9801 0.0431
vn 0.9985 -0.0487 0.0266
vn 0.9995 -0.0048 0.0318
vn 0.9960 0.0023 0.0892
vn -0.1823 -0.8399 0.5111
vn 0.9774 -0.1314 0.1658
vn -0.2157 -0.9761 0.0278
vn 0.9806 -0.0160 0.1956
vn -0.2366 -0.9706 0.0435
vn -0.2340 -0.9721 0.0175
vn -0.2366 -0.9706 0.0436
vn -0.9993 0.0035 -0.0382
vn -0.9997 -0.0019 -0.0258
vn -0.9963 -0.0140 -0.0847
vn -0.2351 -0.8583 0.4562
vn 0.0001 0.0657 0.9978
vn -0.2143 -0.8350 0.5068
vn -0.9893 0.0078 -0.1456
vn -0.9597 -0.0138 -0.2807
vn -0.9599 -0.0145 -0.2801
vn -0.9838 -0.0241 -0.1774
vn -0.9253 -0.0288 -0.3782
vn -0.2214 -0.9748 -0.0269
vn -0.2225 -0.9748 -0.0136
vn -0.2302 -0.9731 -0.0034
vn 0.9001 -0.0216 0.4352
vn 0.8975 0.0034 0.4409
vn 0.9439 -0.0117 0.3300
vn -0.2112 -0.9766 -0.0403
vn 0.8312 -0.0132 0.5558
vn 0.8317 -0.0173 0.5549
vn -0.1982 -0.9780 -0.0658
vn -0.2105 -0.9764 -0.0493
vn 0.7677 0.0165 0.6406
vn 0.7696 0.0086 0.6385
vn -0.1975 -0.9778 -0.0707
vn -0.1842 -0.9791 -0.0865
vn 0.1655 -0.8866 -0.4320
vn -0.1836 -0.9790 -0.0885
vn 0.7363 0.0162 0.6764
vn 0.7371 0.0152 0.6757
vn 0.6982 0.0197 0.7156
vn 0.6935 0.0641 0.7176
vn 0.1440 -0.9073 -0.3950
vn -0.4843 -0.8414 0.2397
vn 0.6410 0.0730 0.7640
vn -0.4630 -0.8658 0.1898
vn -0.1530 -0.9812 -0.1175
vn 0.5823 -0.0615 0.8106
vn 0.5574 0.0508 0.8287
vn -0.1324 -0.9821 -0.1343
vn -0.1531 -0.9812 -0.1174
vn -0.1086 -0.9825 -0.1511
vn -0.1343 -0.9824 -0.1296
vn 0.4362 0.0317 0.8993
vn 0.4437 -0.0036 0.8962
vn -0.1130 -0.9834 -0.1420
vn -0.0863 -0.9830 -0.1619
vn 0.3485 0.0921 0.9328
vn -0.0497 -0.9853 -0.1637
vn -0.0690 -0.9838 -0.1656
vn -0.0915 -0.9838 -0.1544
vn 0.2817 -0.0022 0.9595
vn 0.2551 0.0904 0.9627
vn -0.0545 -0.9846 -0.1662
vn -0.1776 -0.0556 -0.9825
vn -0.1927 -0.0677 -0.9789
vn -0.0968 -0.0740 -0.9925
vn -0.0191 -0.9846 -0.1736
vn -0.0305 -0.9855 -0.1667
vn 0.0203 0.0775 0.9968
vn 0.0193 0.0783 0.9967
vn 0.1023 0.0682 0.9924
vn 0.4000 -0.8997 -0.1750
vn 0.4609 -0.8744 -0.1517
vn 1.0000 -0.0000 -0.0000
vn -0.0210 -0.0749 -0.9970
vn 1.0000 0.0003 -0.0001
vn -0.0009 0.9979 -0.0652
vn -0.5406 0.0474 0.8400
vn -0.5578 0.0545 0.8282
vn -0.1128 -0.9854 -0.1278
vn -0.0272 -0.0656 -0.9975
vn 0.4799 -0.8648 -0.1474
vn 0.5090 -0.8523 -0.1205
vn -0.1004 -0.0731 -0.9923
vn -0.0206 -0.9900 -0.1392
vn 0.4509 0.0477 0.8913
vn -0.0897 -0.0416 -0.9951
vn 0.9986 -0.0152 -0.0509
vn -0.0194 -0.9917 -0.1268
vn -0.1959 -0.1416 -0.9704
vn -0.0353 -0.9926 -0.1163
vn -0.2605 0.0126 -0.9654
vn -0.3478 -0.1297 -0.9286
vn -0.0678 -0.9910 -0.1154
vn -0.0356 -0.9927 -0.1157
vn -0.0276 -0.9952 -0.0938
vn -0.0555 -0.9960 -0.0694
vn -0.0759 -0.9938 -0.0809
vn -0.0822 -0.9920 -0.0955
vn -0.1011 -0.9932 -0.0586
vn -0.1282 -0.9880 -0.0861
vn -0.0859 -0.9946 -0.0581
vn -0.1165 -0.9896 -0.0848
vn -0.1309 -0.9907 -0.0384
vn -0.0972 -0.9904 -0.0981
vn -0.5122 -0.0271 -0.8585
vn -0.6197 -0.0647 -0.7822
vn -0.6325 -0.0179 -0.7743
vn -0.1233 -0.9886 -0.0862
vn -0.1259 -0.9857 -0.1124
vn -0.1015 -0.9894 -0.1034
vn -0.5169 -0.0484 -0.8547
vn -0.3852 -0.0144 -0.9227
vn -0.0766 -0.9900 -0.1187
vn -0.0934 -0.9874 -0.1281
vn -0.6720 -0.0139 -0.7404
vn -0.5149 -0.8150 0.2657
vn -0.5426 -0.7421 0.3936
vn -0.5264 -0.7557 0.3897
vn -0.5281 -0.7930 0.3037
vn -0.5560 -0.7479 0.3627
vn -0.5318 -0.7828 0.3230
vn -0.9935 -0.0274 -0.1108
vn -0.7992 -0.0002 -0.6011
vn -0.8860 0.0415 0.4619
vn -0.9922 -0.0193 -0.1229
vn -0.6671 -0.1525 -0.7292
vn -0.5860 -0.0456 -0.8090
vn 0.3180 -0.8262 -0.4650
vn 0.3176 -0.8263 -0.4651
vn -0.1390 -0.0729 -0.9876
vn -0.0286 0.0020 -0.9996
vn 0.2662 -0.8471 -0.4600
vn 0.1785 -0.9038 -0.3890
vn 0.2619 -0.8385 -0.4778
vn 0.8104 0.0544 -0.5833
vn 0.3525 -0.1300 -0.9267
vn 0.8797 -0.0877 -0.4673
vn 0.7327 -0.5801 -0.3558
vn 0.2683 -0.6911 -0.6712
vn 0.3696 -0.0373 -0.9284
vn 0.9102 -0.0475 -0.4114
vn 0.9810 -0.0037 -0.1939
vn 0.7305 -0.6763 -0.0949
vn 0.2809 -0.6845 -0.6727
vn 0.8972 0.0235 0.4410
vn 0.8647 0.0350 0.5011
vn 0.2193 0.0613 0.9737
vn -0.5971 -0.0353 -0.8014
vn -0.6850 -0.0397 -0.7275
vn -0.6441 -0.0586 -0.7627
vn -0.4799 -0.0530 -0.8757
vn -0.4804 -0.0536 -0.8754
vn -0.5694 -0.0663 -0.8194
vn 0.0001 0.9978 -0.0658
vn -0.0000 0.9979 -0.0655
vn -0.3784 -0.0568 -0.9239
vn -0.3861 -0.0644 -0.9202
vn -0.2796 -0.0590 -0.9583
vn -0.2875 -0.0667 -0.9554
vn -0.0000 0.9978 -0.0657
vn -0.5834 -0.0533 -0.8104
vn -0.5625 -0.0406 -0.8258
vn 0.9993 -0.0057 -0.0375
vn -0.6195 -0.0587 -0.7828
vn -0.5234 -0.8463 -0.0991
vn 0.5631 -0.8210 -0.0943
vn 1.0000 -0.0001 -0.0012
vn 1.0000 -0.0007 -0.0010
vn 0.5678 -0.8165 -0.1049
vn 0.6210 -0.7804 -0.0727
vn -0.5586 -0.8207 -0.1205
vn -0.6553 0.0496 0.7537
vn 0.9986 0.0034 0.0523
vn 0.9986 0.0034 0.0522
vn -0.6559 0.0494 0.7532
vn -0.0165 0.0783 0.9968
vn -0.0125 0.0929 0.9956
vn 0.1522 0.0867 0.9845
vn 0.1667 0.0298 0.9856
vn -0.0076 -0.9999 -0.0108
vn 0.6385 -0.7694 -0.0211
vn 0.6394 -0.7686 -0.0217
vn -0.0146 -0.9998 -0.0154
vn 1.0000 0.0012 -0.0000
vn -0.0066 0.1025 0.9947
vn 1.0000 -0.0002 -0.0000
vn 1.0000 -0.0000 0.0002
vn 0.1003 0.0268 0.9946
vn 0.0909 0.0484 0.9947
vn 0.0018 -0.9963 0.0854
vn 0.0011 -0.9964 0.0844
vn 1.0000 -0.0002 -0.0001
vn 1.0000 -0.0000 -0.0005
vn -0.0241 -0.9956 -0.0906
vn 0.0091 0.9996 0.0259
vn -0.7574 -0.0348 -0.6521
vn -0.7675 -0.0453 -0.6395
vn -0.8215 -0.0335 -0.5693
vn -0.8766 -0.0276 -0.4804
vn -0.8262 -0.0408 -0.5619
vn -0.8806 -0.0350 -0.4726
vn -0.9221 -0.0214 -0.3864
vn -0.7227 -0.0528 -0.6891
vn -0.6857 -0.0404 -0.7268
vn -0.1105 -0.6504 -0.7516
vn -0.5433 -0.6234 -0.5623
vn -0.3326 -0.6993 -0.6327
vn -0.0596 -0.9887 -0.1379
vn -0.0527 -0.9901 -0.1299
vn -0.0227 -0.9896 -0.1423
vn -0.0660 -0.0518 -0.9965
vn 0.1092 0.0452 0.9930
vn -0.4672 -0.8422 0.2692
vn 0.9456 -0.0406 0.3229
vn -0.1957 -0.9807 -0.0018
vn -0.1901 -0.9814 -0.0270
vn -0.9476 0.1186 -0.2968
vn -0.1858 -0.9825 0.0079
vn -0.1715 -0.9848 -0.0282
vn -0.8745 0.0769 -0.4789
vn -0.9415 -0.0507 -0.3332
vn -0.1767 -0.9828 -0.0534
vn 0.7961 -0.0396 -0.6039
vn 0.7763 -0.0578 -0.6277
vn 0.8216 -0.0300 -0.5692
vn -0.0522 0.0648 0.9965
vn -0.0516 0.0652 0.9965
vn -0.8302 -0.0444 -0.5557
vn -0.8440 -0.0352 -0.5352
vn -0.1599 -0.7982 0.5807
vn -0.1630 -0.7989 0.5789
vn -0.1859 -0.8750 -0.4470
vn -0.1576 -0.8568 -0.4909
vn 0.0347 0.0758 0.9965
vn 0.0520 0.0637 0.9966
vn -0.2322 -0.9724 0.0217
vn -0.0001 0.0654 0.9979
vn -0.1466 -0.9879 0.0503
vn 0.9949 0.0058 0.1004
vn 0.9652 0.0272 0.2602
vn 0.9753 -0.1335 0.1762
vn 0.9999 -0.0098 -0.0098
vn -0.1049 -0.7500 0.6531
vn -0.0790 -0.9953 0.0552
vn -0.0823 -0.9953 0.0503
vn -0.0738 -0.7106 0.6997
vn 0.9958 0.0697 -0.0591
vn 0.9922 0.0019 0.1244
vn 0.9935 -0.0299 0.1101
vn 0.0004 0.0700 0.9975
vn 0.0007 0.0673 0.9977
vn 0.9966 -0.0450 0.0697
vn -0.0003 0.0667 0.9978
vn -0.7540 -0.0409 -0.6556
vn -0.1251 -0.7513 0.6480
vn -0.1479 -0.7254 0.6722
vn -0.7601 -0.0425 -0.6484
vn 0.3265 -0.8079 -0.4907
vn 0.2868 0.0481 0.9568
vn 0.2108 -0.6308 0.7467
vn -0.0017 0.0656 0.9978
vn 0.0116 -0.9967 0.0809
vn 0.6918 0.0204 0.7218
vn 0.8168 -0.0081 0.5769
vn 0.7741 0.0755 0.6285
s 0
usemtl Material.003
f 8//1 2//1 1//1
f 1//2 2//2 7//2
f 4//3 1//3 3//3
f 6//4 3//4 1//4
f 5//5 1//5 4//5
f 1//6 5//6 8//6
f 7//7 6//7 1//7
f 10//8 8//8 9//8
f 5//9 9//9 8//9
f 8//10 10//10 11//10
f 2//11 8//11 11//11
f 12//12 11//12 10//12
f 11//13 12//13 14//13
f 13//14 11//14 14//14
f 11//15 13//15 2//15
f 14//16 15//16 16//16
f 15//17 14//17 12//17
f 17//18 14//18 16//18
f 14//19 17//19 13//19
f 13//20 17//20 18//20
f 19//21 18//21 17//21
f 17//22 20//22 19//22
f 16//23 20//23 17//23
f 20//24 16//24 23//24
f 20//25 21//25 22//25
f 23//26 21//26 20//26
f 22//27 19//27 20//27
f 23//28 24//28 25//28
f 16//29 24//29 23//29
f 21//30 23//30 25//30
f 27//31 25//31 24//31
f 25//32 26//32 28//32
f 26//33 25//33 27//33
f 29//34 25//34 28//34
f 25//35 29//35 21//35
f 29//36 30//36 31//36
f 28//37 30//37 29//37
f 21//38 29//38 32//38
f 31//39 32//39 29//39
f 32//40 22//40 21//40
f 31//41 33//41 32//41
f 22//42 32//42 33//42
f 34//43 22//43 33//43
f 34//44 33//44 36//44
f 33//45 35//45 37//45
f 35//46 33//46 31//46
f 37//47 36//47 33//47
f 38//48 37//48 35//48
f 37//49 38//49 39//49
f 36//49 37//49 40//49
f 39//49 40//49 37//49
f 40//50 39//50 42//50
f 40//49 41//49 36//49
f 41//51 40//51 43//51
f 42//52 43//52 40//52
f 44//53 45//53 43//53
f 44//54 43//54 42//54
f 43//55 45//55 41//55
f 44//56 47//56 45//56
f 45//57 47//57 46//57
f 46//58 41//58 45//58
f 48//59 49//59 47//59
f 44//60 48//60 47//60
f 50//61 46//61 47//61
f 47//62 49//62 50//62
f 50//49 51//49 52//49
f 51//63 50//63 49//63
f 52//49 53//49 50//49
f 46//49 50//49 53//49
f 54//64 34//64 53//64
f 53//65 52//65 54//65
f 41//49 46//49 53//49
f 36//66 53//66 34//66
f 53//49 36//49 41//49
f 19//67 54//67 18//67
f 18//68 54//68 7//68
f 34//69 54//69 19//69
f 55//70 54//70 52//70
f 55//71 7//71 54//71
f 55//72 57//72 6//72
f 6//73 7//73 55//73
f 57//74 55//74 56//74
f 52//75 56//75 55//75
f 58//76 57//76 60//76
f 58//77 59//77 57//77
f 59//78 3//78 57//78
f 56//79 60//79 57//79
f 3//80 6//80 57//80
f 60//81 61//81 58//81
f 61//49 60//49 63//49
f 60//49 56//49 62//49
f 62//49 63//49 60//49
f 65//82 63//82 64//82
f 63//83 62//83 64//83
f 63//49 65//49 61//49
f 61//84 65//84 66//84
f 64//81 66//81 65//81
f 66//84 67//84 61//84
f 64//85 67//85 66//85
f 59//86 67//86 68//86
f 67//87 69//87 68//87
f 69//88 67//88 70//88
f 70//89 67//89 64//89
f 59//90 61//90 67//90
f 71//91 69//91 70//91
f 70//92 72//92 71//92
f 73//93 72//93 70//93
f 70//94 64//94 62//94
f 73//95 70//95 62//95
f 72//96 73//96 49//96
f 49//97 73//97 51//97
f 62//98 51//98 73//98
f 72//99 49//99 48//99
f 75//100 74//100 72//100
f 71//101 72//101 74//101
f 76//102 75//102 72//102
f 72//103 48//103 76//103
f 79//104 76//104 48//104
f 75//105 76//105 77//105
f 78//106 77//106 76//106
f 76//107 79//107 78//107
f 48//108 80//108 79//108
f 81//109 79//109 80//109
f 79//110 81//110 82//110
f 82//111 78//111 79//111
f 82//112 83//112 85//112
f 83//113 82//113 81//113
f 78//114 82//114 84//114
f 85//115 84//115 82//115
f 86//116 84//116 85//116
f 86//117 85//117 87//117
f 87//118 85//118 83//118
f 87//119 88//119 92//119
f 88//120 87//120 89//120
f 90//121 89//121 87//121
f 87//122 83//122 90//122
f 87//123 91//123 93//123
f 91//124 87//124 92//124
f 87//125 93//125 86//125
f 86//126 93//126 94//126
f 93//127 91//127 95//127
f 95//128 94//128 93//128
f 96//129 94//129 95//129
f 95//130 97//130 96//130
f 95//131 99//131 97//131
f 98//132 95//132 100//132
f 99//133 95//133 98//133
f 91//134 100//134 95//134
f 100//135 101//135 103//135
f 100//136 91//136 101//136
f 100//137 102//137 98//137
f 102//138 100//138 103//138
f 9//139 104//139 103//139
f 102//140 103//140 104//140
f 12//141 103//141 101//141
f 103//142 12//142 10//142
f 103//143 10//143 9//143
f 108//144 105//144 104//144
f 107//145 104//145 105//145
f 104//146 106//146 102//146
f 106//147 104//147 109//147
f 104//148 9//148 108//148
f 104//149 107//149 109//149
f 113//150 110//150 109//150
f 106//151 109//151 110//151
f 109//152 111//152 112//152
f 107//153 111//153 109//153
f 112//154 113//154 109//154
f 114//155 113//155 112//155
f 114//156 110//156 113//156
f 114//157 117//157 115//157
f 115//158 116//158 114//158
f 116//159 119//159 114//159
f 112//160 117//160 114//160
f 118//161 114//161 119//161
f 110//162 114//162 118//162
f 119//163 120//163 118//163
f 122//164 119//164 116//164
f 121//165 120//165 119//165
f 119//166 122//166 121//166
f 123//167 124//167 122//167
f 122//168 125//168 123//168
f 121//169 122//169 124//169
f 116//170 125//170 122//170
f 115//171 123//171 125//171
f 115//172 125//172 116//172
f 123//96 126//96 124//96
f 124//173 126//173 121//173
f 129//96 126//96 123//96
f 126//174 127//174 130//174
f 129//96 127//96 126//96
f 130//175 128//175 126//175
f 128//176 121//176 126//176
f 131//177 130//177 127//177
f 132//178 130//178 131//178
f 130//179 132//179 120//179
f 120//180 128//180 130//180
f 133//181 134//181 132//181
f 132//182 135//182 133//182
f 120//183 132//183 134//183
f 131//184 135//184 132//184
f 99//185 133//185 135//185
f 135//186 137//186 99//186
f 136//187 137//187 135//187
f 135//188 131//188 136//188
f 97//189 99//189 137//189
f 137//190 139//190 97//190
f 137//191 136//191 138//191
f 138//192 139//192 137//192
f 139//193 140//193 141//193
f 138//194 140//194 139//194
f 96//195 97//195 139//195
f 139//196 141//196 96//196
f 142//197 96//197 141//197
f 141//198 144//198 142//198
f 141//199 140//199 143//199
f 143//200 144//200 141//200
f 144//201 146//201 142//201
f 144//202 143//202 145//202
f 145//203 146//203 144//203
f 147//204 142//204 146//204
f 146//205 149//205 147//205
f 148//206 149//206 146//206
f 146//207 145//207 148//207
f 150//208 152//208 149//208
f 149//209 148//209 150//209
f 151//210 147//210 149//210
f 149//211 152//211 151//211
f 152//212 150//212 153//212
f 153//213 154//213 152//213
f 152//214 154//214 151//214
f 155//215 159//215 154//215
f 154//216 156//216 155//216
f 154//217 153//217 156//217
f 157//218 151//218 154//218
f 154//219 158//219 157//219
f 158//220 154//220 159//220
f 160//221 161//221 159//221
f 159//222 155//222 160//222
f 162//223 159//223 161//223
f 159//224 162//224 163//224
f 158//225 159//225 163//225
f 164//226 165//226 163//226
f 163//227 167//227 164//227
f 158//228 163//228 165//228
f 163//229 162//229 166//229
f 167//230 163//230 166//230
f 166//231 164//231 167//231
f 166//232 162//232 168//232
f 169//231 164//231 166//231
f 169//233 166//233 168//233
f 161//96 169//96 168//96
f 161//234 171//234 169//234
f 170//231 164//231 169//231
f 169//231 173//231 170//231
f 169//235 171//235 172//235
f 173//236 169//236 172//236
f 173//231 174//231 170//231
f 172//237 174//237 173//237
f 172//238 170//238 174//238
f 172//239 165//239 164//239
f 164//240 170//240 172//240
f 175//241 172//241 176//241
f 165//242 172//242 175//242
f 172//243 171//243 176//243
f 176//244 178//244 175//244
f 177//245 176//245 171//245
f 178//246 176//246 177//246
f 178//247 179//247 175//247
f 177//248 179//248 178//248
f 180//249 175//249 179//249
f 179//250 181//250 180//250
f 181//251 179//251 182//251
f 179//252 177//252 182//252
f 26//253 182//253 177//253
f 182//254 26//254 27//254
f 27//255 183//255 182//255
f 181//256 182//256 183//256
f 24//257 184//257 183//257
f 184//258 84//258 183//258
f 183//259 27//259 24//259
f 183//260 86//260 185//260
f 86//261 183//261 84//261
f 183//262 185//262 181//262
f 181//263 185//263 186//263
f 185//264 86//264 186//264
f 187//265 186//265 86//265
f 142//266 186//266 187//266
f 186//267 142//267 147//267
f 147//268 188//268 186//268
f 186//269 188//269 181//269
f 188//270 180//270 181//270
f 151//271 180//271 188//271
f 188//272 147//272 151//272
f 94//273 187//273 86//273
f 142//274 187//274 94//274
f 184//275 24//275 15//275
f 189//276 184//276 15//276
f 189//277 191//277 184//277
f 84//278 184//278 190//278
f 190//279 184//279 191//279
f 190//280 191//280 77//280
f 191//281 189//281 77//281
f 84//282 190//282 78//282
f 77//283 78//283 190//283
f 192//284 77//284 189//284
f 189//285 193//285 192//285
f 193//286 189//286 101//286
f 15//287 101//287 189//287
f 194//288 192//288 193//288
f 193//289 195//289 194//289
f 195//290 193//290 101//290
f 195//291 101//291 91//291
f 92//292 195//292 91//292
f 195//293 92//293 196//293
f 196//294 194//294 195//294
f 88//295 196//295 92//295
f 196//296 88//296 197//296
f 194//297 196//297 197//297
f 74//298 197//298 71//298
f 198//299 71//299 197//299
f 197//300 89//300 198//300
f 89//301 197//301 88//301
f 197//302 74//302 194//302
f 202//96 199//96 198//96
f 198//96 199//96 201//96
f 198//96 200//96 71//96
f 198//96 201//96 200//96
f 202//303 198//303 89//303
f 89//304 90//304 202//304
f 80//305 202//305 90//305
f 202//96 203//96 199//96
f 80//96 203//96 202//96
f 203//96 80//96 204//96
f 203//306 204//306 148//306
f 199//307 203//307 145//307
f 148//308 145//308 203//308
f 204//96 80//96 205//96
f 204//309 206//309 153//309
f 153//310 150//310 204//310
f 204//96 205//96 206//96
f 150//311 148//311 204//311
f 206//312 205//312 171//312
f 171//313 207//313 206//313
f 206//314 207//314 156//314
f 156//315 153//315 206//315
f 207//313 171//313 160//313
f 207//316 160//316 155//316
f 155//317 156//317 207//317
f 48//318 205//318 80//318
f 210//96 205//96 48//96
f 205//319 209//319 208//319
f 208//320 212//320 205//320
f 209//96 205//96 211//96
f 211//96 205//96 210//96
f 171//321 205//321 177//321
f 177//322 205//322 212//322
f 208//323 213//323 212//323
f 213//324 177//324 212//324
f 213//325 214//325 216//325
f 211//326 214//326 213//326
f 215//327 177//327 213//327
f 213//328 216//328 215//328
f 213//329 208//329 217//329
f 217//330 211//330 213//330
f 208//331 209//331 217//331
f 218//332 217//332 209//332
f 211//333 217//333 218//333
f 209//96 211//96 218//96
f 219//334 216//334 214//334
f 216//335 219//335 215//335
f 215//336 219//336 26//336
f 28//337 26//337 219//337
f 219//338 220//338 30//338
f 219//339 221//339 220//339
f 221//340 219//340 214//340
f 30//341 28//341 219//341
f 222//342 221//342 214//342
f 220//343 221//343 222//343
f 210//344 44//344 222//344
f 214//345 210//345 222//345
f 30//346 220//346 222//346
f 222//347 31//347 30//347
f 222//348 35//348 31//348
f 35//349 222//349 223//349
f 38//350 222//350 44//350
f 222//351 38//351 223//351
f 35//50 223//50 38//50
f 177//352 215//352 26//352
f 211//231 210//231 214//231
f 210//353 48//353 44//353
f 201//354 199//354 140//354
f 140//355 138//355 201//355
f 200//356 201//356 138//356
f 200//96 69//96 71//96
f 224//357 200//357 136//357
f 69//96 200//96 224//96
f 138//358 136//358 200//358
f 69//96 224//96 129//96
f 136//359 131//359 224//359
f 127//360 224//360 131//360
f 129//96 224//96 127//96
f 143//361 140//361 199//361
f 145//362 143//362 199//362
f 192//363 194//363 74//363
f 77//364 192//364 75//364
f 74//365 75//365 192//365
f 180//366 151//366 157//366
f 157//367 175//367 180//367
f 175//368 157//368 165//368
f 160//313 171//313 161//313
f 161//369 168//369 162//369
f 165//370 157//370 158//370
f 94//371 96//371 142//371
f 134//372 118//372 120//372
f 225//373 118//373 134//373
f 225//374 134//374 133//374
f 110//375 225//375 106//375
f 118//376 225//376 110//376
f 133//377 98//377 225//377
f 225//378 98//378 102//378
f 102//379 106//379 225//379
f 98//380 133//380 99//380
f 129//381 227//381 226//381
f 226//382 228//382 129//382
f 107//383 129//383 228//383
f 107//384 105//384 129//384
f 227//96 129//96 229//96
f 229//96 129//96 123//96
f 69//385 129//385 105//385
f 230//386 231//386 229//386
f 229//387 232//387 230//387
f 231//96 227//96 229//96
f 229//84 123//84 117//84
f 117//84 112//84 229//84
f 232//84 229//84 112//84
f 232//388 107//388 228//388
f 232//389 111//389 107//389
f 112//84 111//84 232//84
f 232//390 226//390 230//390
f 232//391 228//391 226//391
f 230//392 227//392 231//392
f 227//393 230//393 226//393
f 120//394 121//394 128//394
f 123//395 115//395 117//395
f 105//396 108//396 233//396
f 108//397 234//397 233//397
f 9//398 5//398 108//398
f 234//399 108//399 5//399
f 235//400 233//400 234//400
f 236//401 235//401 234//401
f 234//402 4//402 236//402
f 4//403 234//403 5//403
f 235//404 236//404 237//404
f 237//405 236//405 59//405
f 236//406 4//406 3//406
f 3//407 59//407 236//407
f 59//408 235//408 237//408
f 59//409 68//409 235//409
f 233//410 235//410 238//410
f 235//84 239//84 238//84
f 235//411 68//411 239//411
f 105//412 239//412 68//412
f 238//413 239//413 105//413
f 105//414 233//414 238//414
f 68//415 69//415 105//415
f 12//416 101//416 15//416
f 90//417 81//417 80//417
f 81//418 90//418 83//418
f 51//49 62//49 56//49
f 61//419 59//419 58//419
f 56//49 52//49 51//49
f 39//231 38//231 44//231
f 44//231 42//231 39//231
f 19//420 22//420 34//420
f 24//421 16//421 15//421
f 18//422 7//422 2//422
f 2//423 13//423 18//423
