# Blender 5.0.1
# www.blender.org
mtllib torso_y_link_visual_5.mtl
o i01.torso.full.007_visual.001
v 0.024755 0.061236 0.069265
v 0.032435 0.061271 0.068886
v 0.030900 -0.097751 0.054179
v 0.022740 -0.097810 0.053281
v 0.020034 0.061494 0.066586
v 0.011932 0.055645 0.127481
v 0.031249 0.055475 0.129214
v -0.002993 0.056162 0.122121
v 0.009723 0.097894 0.130999
v -0.003790 0.098397 0.125786
v -0.015558 0.056876 0.114728
v -0.019232 0.099352 0.115879
v -0.030877 0.058390 0.098990
v -0.033385 0.100964 0.099113
v -0.040823 0.060351 0.078580
v 0.016734 0.061943 0.061915
v 0.016073 -0.098714 0.039535
v 0.016652 0.062779 0.053213
v 0.017383 -0.098155 0.048037
v -0.043892 0.062322 0.058089
v -0.043673 0.103946 0.068100
v -0.042578 0.105788 0.048932
v -0.040594 0.064430 0.036113
v -0.037521 0.107372 0.032434
v -0.030584 0.066324 0.016403
v -0.028235 0.108805 0.017499
v -0.017145 0.067696 0.002110
v -0.017735 0.109828 0.006836
v -0.003556 0.110711 -0.002387
v 0.000686 0.068695 -0.008328
v 0.022798 0.063368 0.047078
v 0.021329 -0.099194 0.032228
v 0.030013 0.063462 0.046084
v 0.027239 -0.099316 0.030376
v 0.021259 0.069184 -0.013460
v 0.015709 0.111304 -0.008585
v 0.036335 0.111357 -0.009173
v 0.045763 0.068995 -0.011545
v 0.052976 0.110955 -0.005029
v 0.069042 0.067980 -0.001015
v 0.036883 0.063104 0.049799
v 0.039916 0.062413 0.056976
v 0.032889 -0.099252 0.031358
v 0.037844 -0.098962 0.035753
v 0.085468 0.066426 0.015124
v 0.095732 0.064615 0.033957
v 0.097650 0.106129 0.045125
v 0.091902 0.107647 0.029331
v 0.099780 0.062419 0.056800
v 0.099803 0.104219 0.064996
v 0.097069 0.060473 0.077072
v 0.095968 0.102353 0.084429
v 0.091432 0.059154 0.090809
v 0.037982 0.061722 0.064175
v 0.038340 -0.098114 0.048653
v 0.083619 0.057988 0.102955
v 0.077351 0.099555 0.113585
v 0.088270 0.100797 0.100643
v 0.066423 0.056521 0.118264
v 0.062681 0.098514 0.124454
v 0.048393 0.055760 0.126213
v 0.044726 0.097855 0.131340
v 0.072610 0.095631 0.154458
v 0.045907 0.094848 0.162612
v 0.027389 0.097676 0.133232
v 0.025366 0.094742 0.163778
v 0.028649 0.061475 0.161021
v 0.012451 0.056348 0.159406
v 0.007230 0.094945 0.161710
v -0.001917 0.057255 0.155871
v -0.010757 0.095485 0.156111
v -0.018479 0.057915 0.149486
v -0.029564 0.096426 0.146325
v -0.031664 0.063681 0.141768
v -0.049573 0.098105 0.128909
v -0.045496 0.052343 0.129167
v -0.057886 0.040359 0.112263
v -0.062780 0.099959 0.109633
v -0.066498 0.038943 0.096338
v -0.039497 0.102235 0.085904
v -0.071892 0.102059 0.087789
v -0.072578 0.047601 0.079707
v -0.075559 0.052191 0.062482
v -0.075426 0.104729 0.060012
v -0.075481 0.056263 0.047857
v -0.073025 0.106738 0.039097
v -0.072327 0.059048 0.030215
v -0.066181 0.108817 0.017445
v -0.064732 0.056937 0.009740
v -0.055279 0.110549 -0.000604
v -0.056774 0.052448 -0.004910
v -0.048421 0.054548 -0.014561
v -0.053213 0.042816 -0.015929
v -0.063849 0.043173 -0.002168
v -0.044125 0.046985 -0.021919
v -0.067078 0.048131 0.008699
v -0.076693 0.038901 0.012098
v -0.075762 0.043947 0.021301
v -0.074314 0.050918 0.028918
v -0.079327 0.046769 0.041537
v -0.079421 0.042185 0.061891
v -0.087067 0.036974 0.051558
v -0.084133 0.040581 0.036209
v -0.081132 0.033623 0.003432
v -0.091071 0.035864 0.035169
v -0.092956 0.034017 0.047695
v -0.101218 0.033118 0.032941
v -0.104545 -0.061414 0.032486
v -0.080617 0.030495 -0.011313
v -0.167546 0.023207 -0.116328
v -0.167546 -0.070793 -0.110147
v -0.149465 -0.065036 -0.022596
v -0.110792 -0.075658 -0.184126
v -0.189282 -0.070964 -0.112741
v -0.118792 -0.077006 -0.204626
v -0.189282 -0.108564 -0.110269
v -0.118792 -0.114606 -0.202154
v 0.019640 -0.113002 -0.177761
v 0.135580 -0.105619 -0.065483
v 0.095699 -0.109497 -0.124453
v 0.072727 -0.113458 -0.184695
v 0.019640 -0.075402 -0.180234
v 0.072727 -0.075858 -0.187168
v 0.019214 -0.074152 -0.161217
v 0.060412 -0.074505 -0.166597
v 0.108753 0.027747 -0.045507
v 0.060412 0.019495 -0.172779
v 0.019214 0.019849 -0.167398
v 0.095699 -0.071897 -0.126925
v 0.145904 -0.063240 0.004731
v 0.134728 -0.061691 0.028287
v 0.134654 0.032212 0.021907
v 0.131449 0.037021 0.070653
v 0.132786 0.036663 0.047184
v 0.129165 -0.056046 0.114130
v 0.153794 -0.061879 0.025421
v 0.147454 -0.055446 0.123249
v 0.147454 -0.093047 0.125722
v 0.153794 -0.099479 0.027893
v 0.039742 -0.098604 0.041211
v 0.145904 -0.100840 0.007204
v 0.180523 -0.101733 -0.006389
v 0.139982 -0.105211 -0.059280
v 0.146147 -0.105046 -0.056761
v 0.181891 -0.064169 -0.009377
v 0.196231 -0.064885 -0.020289
v 0.155593 -0.067671 -0.062663
v 0.148305 -0.067443 -0.059198
v 0.196173 -0.102466 -0.017531
v 0.158110 -0.105523 -0.064021
v 0.206278 -0.103278 -0.029870
v 0.154022 -0.105187 -0.058898
v 0.205602 -0.065611 -0.031339
v 0.213297 -0.066555 -0.045698
v 0.158859 -0.068087 -0.068993
v 0.217435 -0.067673 -0.062686
v 0.214131 -0.104305 -0.045494
v 0.217570 -0.105352 -0.061414
v 0.159022 -0.105933 -0.070258
v 0.217131 -0.106619 -0.080677
v 0.217643 -0.068742 -0.078961
v 0.213460 -0.069859 -0.095937
v 0.158104 -0.068551 -0.076065
v 0.151769 -0.068965 -0.082333
v 0.198043 -0.071460 -0.120283
v 0.207007 -0.070712 -0.108907
v 0.156511 -0.106319 -0.076125
v 0.211088 -0.107826 -0.099047
v 0.202134 -0.108766 -0.113312
v 0.150494 -0.106586 -0.080187
v 0.189893 -0.109534 -0.125016
v 0.175522 -0.110093 -0.133518
v 0.183433 -0.072227 -0.131989
v 0.160466 -0.072810 -0.140813
v 0.135588 -0.072822 -0.141023
v 0.159060 -0.110409 -0.138321
v 0.144578 -0.110471 -0.139274
v 0.144596 -0.106591 -0.080261
v 0.129526 -0.110329 -0.137110
v 0.139235 -0.106419 -0.077646
v 0.135971 -0.106090 -0.072640
v 0.144208 -0.068992 -0.082751
v 0.137132 -0.068665 -0.077794
v 0.135356 -0.068126 -0.069585
v 0.139260 -0.067628 -0.062004
v 0.055201 -0.087858 0.204625
v -0.048970 -0.089658 0.177253
v 0.055201 -0.050258 0.202152
v 0.050443 -0.051619 0.181460
v -0.036272 -0.053117 0.158674
v -0.048970 -0.052058 0.174781
v -0.088466 -0.056858 0.101777
v -0.088467 -0.094458 0.104250
v -0.121162 -0.093324 0.121506
v -0.138536 -0.097101 0.064067
v -0.135042 -0.097520 0.057683
v -0.136493 -0.098049 0.049664
v -0.142318 -0.098376 0.044680
v -0.138861 -0.060634 0.044350
v -0.135673 -0.060314 0.049217
v -0.135130 -0.059939 0.054930
v -0.138111 -0.059510 0.061474
v -0.144562 -0.096884 0.067365
v -0.143730 -0.059305 0.064568
v -0.150126 -0.059298 0.064679
v -0.123363 -0.055669 0.119862
v -0.181754 -0.056015 0.114603
v -0.141219 -0.055421 0.123631
v -0.163133 -0.055518 0.122129
v -0.156843 -0.059608 0.059972
v -0.155532 -0.097114 0.063868
v -0.150814 -0.096921 0.066798
v -0.152572 -0.093027 0.126015
v -0.171211 -0.093276 0.122238
v -0.190948 -0.094014 0.111005
v -0.205095 -0.094990 0.096191
v -0.198519 -0.056854 0.101805
v -0.210260 -0.057977 0.084764
v -0.215934 -0.096557 0.072334
v -0.215935 -0.059040 0.068604
v -0.217643 -0.060000 0.053995
v -0.158792 -0.060144 0.051819
v -0.155783 -0.098193 0.047460
v -0.158903 -0.097603 0.056428
v -0.155015 -0.060643 0.044218
v -0.215907 -0.061128 0.036864
v -0.210358 -0.099708 0.024420
v -0.215465 -0.098800 0.038229
v -0.217591 -0.097842 0.052788
v -0.207231 -0.062510 0.015841
v -0.199559 -0.100772 0.008260
v -0.194992 -0.063460 0.001378
v -0.183689 -0.101622 -0.004699
v -0.182567 -0.064066 -0.007844
v -0.146224 -0.060841 0.041185
v -0.149465 -0.102637 -0.020123
v -0.148271 -0.098430 0.043850
v -0.137820 -0.093051 0.125661
v -0.073057 0.037326 0.084188
v 0.050543 0.042201 0.175271
v -0.036023 0.040719 0.152596
v -0.034199 0.044688 0.149217
v -0.045802 0.044107 0.131361
v -0.005380 0.043889 0.158995
v 0.049569 0.044607 0.172038
v -0.000132 0.049215 0.158024
v -0.031132 0.054069 0.144657
v 0.024887 0.048115 0.164347
v 0.049210 0.047547 0.168657
v 0.037061 0.052527 0.163944
v 0.048447 0.054240 0.163651
v 0.047406 0.065383 0.160013
v 0.058542 0.049105 0.161348
v 0.061184 0.060775 0.155696
v 0.079035 0.053894 0.147119
v 0.070397 0.047609 0.154053
v 0.089191 0.041128 0.141818
v 0.065412 0.043002 0.161068
v 0.129056 0.037912 0.107798
v 0.102795 0.045162 0.128700
v 0.109071 0.098369 0.125869
v 0.096024 0.097083 0.139284
v 0.115694 0.053802 0.112836
v 0.117930 0.045636 0.112952
v 0.125710 0.042911 0.106139
v 0.122704 0.050740 0.103992
v 0.128113 0.042030 0.091350
v 0.128870 0.046216 0.082634
v 0.122488 0.058222 0.101288
v 0.127167 0.101466 0.093603
v 0.118397 0.099643 0.112594
v 0.132176 0.103666 0.070704
v 0.131858 0.105847 0.047998
v 0.129752 0.046908 0.029615
v 0.127290 0.107796 0.027718
v 0.122139 0.044375 0.007683
v 0.118653 0.109649 0.008454
v 0.107653 0.048144 -0.013702
v 0.104715 0.111441 -0.010180
v 0.081600 0.109073 0.014508
v 0.083223 0.113157 -0.027990
v 0.095158 0.052421 -0.025109
v 0.094671 0.044467 -0.028726
v 0.081553 0.052143 -0.034547
v 0.063239 0.049991 -0.043681
v 0.083523 0.042040 -0.037533
v 0.065154 0.041756 -0.046319
v 0.047665 0.037399 -0.053717
v 0.039956 0.043134 -0.051299
v 0.061317 0.033183 -0.054685
v 0.082654 0.032911 -0.047397
v 0.085372 0.027538 -0.057869
v 0.058052 0.028268 -0.064359
v 0.100286 0.034639 -0.033958
v 0.104038 0.030148 -0.040346
v 0.107492 0.040721 -0.018753
v 0.111436 0.036297 -0.018339
v 0.124617 0.034121 0.002945
v 0.114564 0.032449 -0.020000
v 0.130579 0.039344 0.024049
v 0.046021 0.026077 -0.074127
v 0.042722 0.031109 -0.061172
v 0.025261 0.027034 -0.070244
v -0.010685 0.026756 -0.067113
v 0.022597 0.030986 -0.061904
v 0.005546 0.037575 -0.052972
v 0.028688 0.036052 -0.056544
v -0.007391 0.028983 -0.061061
v 0.003804 0.032103 -0.058215
v -0.017739 0.033709 -0.049693
v -0.021096 0.038605 -0.043413
v -0.038034 0.033427 -0.039826
v -0.050173 0.028372 -0.044456
v -0.110792 0.018343 -0.190308
v -0.057656 0.032488 -0.027256
v -0.055885 0.036692 -0.020613
v -0.068563 0.037334 -0.004807
v -0.041580 0.038568 -0.030634
v -0.024490 0.044073 -0.037784
v 0.000168 0.044374 -0.047508
v -0.004107 0.050289 -0.044299
v -0.036668 0.052834 -0.025928
v -0.024436 0.052114 -0.034534
v -0.015652 0.113681 -0.033267
v -0.030571 0.112848 -0.024572
v -0.043727 0.111828 -0.013940
v 0.008173 0.114444 -0.041247
v 0.034831 0.114606 -0.042991
v 0.015919 0.050752 -0.048523
v 0.037383 0.049834 -0.049328
v 0.017910 0.042668 -0.051309
v 0.058496 0.114201 -0.038818
v 0.068438 0.110193 0.002883
vn 0.0001 0.9954 0.0956
vn -0.0496 0.0925 -0.9945
vn 0.1082 0.0981 -0.9893
vn 0.4952 0.0807 -0.8650
vn 0.0002 0.9954 0.0956
vn 0.3614 0.0874 -0.9283
vn 0.3394 0.0957 -0.9358
vn 0.5089 0.0839 -0.8568
vn 0.5417 0.0696 -0.8377
vn 0.7181 0.0808 -0.6912
vn 0.7655 0.0470 -0.6417
vn 0.8997 0.0543 -0.4332
vn 0.9999 -0.0028 -0.0097
vn 0.9880 0.0173 -0.1534
vn 0.8180 0.0530 -0.5727
vn 0.0002 0.9954 0.0957
vn 0.9983 -0.0185 0.0552
vn 0.9890 0.0297 -0.1452
vn 0.9889 0.0014 0.1485
vn 0.0002 0.9954 0.0955
vn 0.9563 -0.0437 0.2890
vn 0.8923 -0.0252 0.4508
vn 0.0001 0.9954 0.0957
vn 0.7301 -0.0579 0.6809
vn 0.8503 -0.0605 0.5228
vn 0.7141 -0.0682 0.6967
vn 0.5470 -0.0857 0.8327
vn 0.5069 -0.0703 0.8591
vn 0.7081 -0.0706 0.7026
vn 0.2960 -0.0896 0.9510
vn 0.1370 -0.0975 0.9858
vn 0.0286 -0.1112 0.9934
vn 0.2430 -0.0799 0.9667
vn -0.0783 -0.0731 0.9943
vn -0.2427 -0.1080 0.9641
vn -0.4137 -0.0699 0.9077
vn -0.9218 -0.0389 0.3857
vn -0.4773 -0.0876 0.8743
vn -0.6598 -0.0688 0.7483
vn -0.9847 -0.0014 0.1743
vn -0.9401 -0.0474 0.3376
vn -0.8788 -0.0270 0.4764
vn -0.9942 -0.0202 0.1058
vn -0.9912 0.0260 -0.1300
vn -0.9812 0.0081 -0.1929
vn -0.9257 0.0417 -0.3759
vn -0.6491 0.0721 -0.7573
vn -0.9661 0.0228 -0.2573
vn -0.6665 0.0888 -0.7402
vn -0.7657 0.0485 -0.6414
vn -0.8421 0.0626 -0.5357
vn -0.4049 0.0979 -0.9091
vn -0.5971 0.0647 -0.7996
vn -0.1732 0.1042 -0.9794
vn -0.3595 0.0819 -0.9296
vn -0.1090 0.0843 -0.9905
vn 0.0003 0.9954 0.0956
vn 0.1260 0.0889 -0.9880
vn 0.0898 0.1025 -0.9907
vn 0.0569 -0.0769 0.9954
vn -0.0708 -0.0893 0.9935
vn -0.1138 -0.0745 0.9907
vn -0.2433 -0.0906 0.9657
vn -0.2984 -0.0750 0.9515
vn -0.3614 -0.0894 0.9281
vn -0.4631 -0.0607 0.8842
vn -0.5303 -0.0834 0.8437
vn -0.6582 -0.0622 0.7502
vn -0.6482 -0.0535 0.7596
vn -0.7818 -0.0662 0.6200
vn -0.8261 -0.0431 0.5619
vn -0.9235 -0.0271 0.3826
vn -0.8766 -0.0509 0.4786
vn -0.9446 -0.0365 0.3263
vn -0.9858 -0.0124 0.1673
vn -0.9919 0.0085 0.1270
vn -1.0000 0.0023 -0.0046
vn -0.9934 0.0290 -0.1112
vn -0.9847 0.0179 -0.1732
vn -0.9538 0.0414 -0.2975
vn -0.9364 0.0258 -0.3500
vn -0.8714 0.0482 -0.4882
vn -0.8569 0.0600 -0.5119
vn -0.7616 0.0674 -0.6445
vn -0.8064 0.2765 -0.5228
vn -0.7630 0.1726 -0.6229
vn -0.7255 0.3847 -0.5707
vn -0.6257 0.4758 -0.6181
vn -0.7722 0.4593 -0.4390
vn -0.7145 0.6414 -0.2794
vn -0.6943 0.5542 -0.4592
vn -0.7661 0.5400 -0.3486
vn -0.8911 0.2796 -0.3574
vn -0.9580 0.2550 -0.1310
vn -0.8611 0.4730 -0.1866
vn -0.8834 0.4171 -0.2138
vn -0.8918 0.2752 -0.3592
vn -0.6913 0.7056 0.1557
vn -0.9317 0.3552 0.0757
vn -0.7874 0.6164 -0.0057
vn -0.6716 0.7084 -0.2171
vn -0.9419 0.3247 0.0854
vn -0.7316 0.6263 -0.2694
vn -0.5356 0.8148 -0.2220
vn -0.5251 0.8215 -0.2225
vn -0.5688 0.8183 0.0835
vn -0.4778 0.8766 0.0574
vn -0.2299 0.9631 -0.1400
vn -0.2801 0.9549 0.0987
vn -0.9151 0.0303 0.4022
vn -0.8729 0.0284 0.4871
vn -0.3272 0.9220 -0.2070
vn -0.0078 0.9980 -0.0628
vn -0.9142 0.0266 0.4044
vn -0.0000 0.9978 -0.0656
vn -0.7941 -0.0399 -0.6065
vn -0.9151 0.0265 0.4024
vn 0.1739 -0.0646 -0.9826
vn -0.0000 -0.9978 0.0656
vn -0.1298 -0.0651 -0.9894
vn 0.9346 -0.0215 -0.3550
vn 0.9351 -0.0233 -0.3537
vn 0.9337 -0.0235 -0.3572
vn 0.9973 0.0057 0.0727
vn 0.9983 0.0088 0.0568
vn 0.9979 0.0056 0.0643
vn 0.9979 0.0042 0.0644
vn 0.9346 -0.0233 -0.3549
vn -0.0000 -0.9978 0.0657
vn -0.0000 -0.9979 0.0655
vn 0.3662 0.0605 0.9286
vn 0.3657 0.0611 0.9287
vn 0.6064 0.0573 0.7931
vn -0.0001 0.9978 -0.0656
vn 0.5808 0.0435 0.8129
vn 0.7743 0.0385 0.6316
vn 0.7633 0.0461 0.6444
vn 0.8819 0.0342 0.4703
vn 0.9717 0.0227 0.2352
vn 0.8939 0.0222 0.4478
vn 0.9775 0.0106 0.2105
vn 0.9997 -0.0125 -0.0220
vn 0.9999 0.0040 0.0125
vn 0.9710 -0.0023 -0.2391
vn -0.0000 0.9978 -0.0657
vn -0.0000 0.9979 -0.0655
vn -0.7040 0.0286 0.7096
vn -0.0002 0.9978 -0.0658
vn -0.9943 -0.0079 0.1067
vn -0.9196 0.0382 0.3911
vn -0.0001 -0.9978 0.0656
vn -0.5603 0.0661 0.8257
vn 0.5099 -0.0719 -0.8572
vn 0.6918 -0.0586 -0.7197
vn 0.6260 -0.0372 -0.7789
vn 0.0001 0.9979 -0.0655
vn 0.3592 -0.0374 -0.9325
vn 0.0001 0.9978 -0.0656
vn 0.0084 -0.0444 -0.9990
vn 0.2806 -0.0739 -0.9570
vn 0.0658 -0.0684 -0.9955
vn -0.1426 -0.0799 -0.9866
vn -0.3511 -0.0614 -0.9343
vn -0.3338 -0.0443 -0.9416
vn 0.8382 0.0488 0.5432
vn 0.4391 0.0639 0.8961
vn 0.5745 0.0352 0.8178
vn 0.9774 -0.0012 0.2115
vn 0.0001 0.9978 -0.0657
vn -0.0001 0.9979 -0.0655
vn 0.8893 -0.0445 -0.4551
vn 0.9985 0.0119 0.0538
vn 0.2968 -0.0787 -0.9517
vn 0.8160 -0.0262 -0.5774
vn 0.3790 -0.0596 -0.9235
vn -0.0554 0.0587 0.9967
vn -0.0126 0.0659 0.9977
vn -0.0001 -0.9978 0.0657
vn 0.8474 -0.0473 -0.5288
vn 0.7861 -0.0292 -0.6174
vn 0.9500 -0.0339 -0.3103
vn 0.8957 -0.0196 -0.4443
vn -0.9895 0.0006 -0.1449
vn -0.8890 -0.0427 -0.4559
vn -0.7823 -0.0297 -0.6222
vn -0.2624 -0.0474 -0.9638
vn -0.4300 -0.0723 -0.8999
vn -0.9823 0.0193 -0.1864
vn -0.9434 -0.0313 0.3302
vn 0.6508 0.0498 0.7576
vn -0.2547 0.0635 0.9649
vn -0.2546 0.0634 0.9650
vn -0.8800 0.0312 0.4740
vn 0.4675 0.0580 0.8821
vn 0.0001 -0.9979 0.0655
vn -0.0004 -0.9978 0.0660
vn -0.0000 -0.9979 0.0653
vn -0.9840 0.0235 0.1765
vn -0.6509 0.0662 0.7563
vn -0.8370 0.0247 0.5466
vn -0.9955 0.0046 0.0943
vn -0.9104 -0.0324 -0.4125
vn -0.0002 0.9979 -0.0654
vn 0.0002 0.9978 -0.0659
vn -0.4831 -0.0544 -0.8739
vn -0.4808 -0.0549 -0.8751
vn -0.8776 -0.0231 -0.4788
vn -0.0175 -0.0738 -0.9971
vn -0.0001 0.9978 -0.0657
vn 0.5747 -0.0647 -0.8158
vn 0.5285 -0.0574 -0.8470
vn 0.0904 -0.0577 -0.9942
vn -0.4954 0.0377 0.8679
vn 0.0001 -0.9978 0.0657
vn -0.7238 0.0233 0.6897
vn -0.6075 0.0721 0.7911
vn -0.8238 0.0591 0.5637
vn -0.9104 0.0006 0.4136
vn -0.9437 0.0327 0.3293
vn -0.9933 0.0115 0.1154
vn 0.8959 0.0200 0.4439
vn 0.9446 0.0373 0.3262
vn 0.9726 -0.0313 -0.2305
vn -0.9382 -0.0235 -0.3454
vn -0.9246 -0.0101 -0.3809
vn -0.9895 -0.0168 -0.1434
vn -0.9949 0.0018 -0.1009
vn -0.8318 -0.0574 -0.5521
vn -0.7639 -0.0254 -0.6448
vn -0.6332 -0.0647 -0.7713
vn -0.5968 -0.0492 -0.8009
vn -0.4078 -0.0599 -0.9111
vn -0.4116 -0.0638 -0.9091
vn -0.0000 -0.9978 0.0660
vn -0.0000 -0.9979 0.0651
vn -0.1383 0.0775 0.9873
vn 0.4339 0.0687 0.8984
vn 0.3267 0.0491 0.9438
vn -0.3955 0.0442 0.9174
vn 0.0001 -0.9978 0.0656
vn -0.9964 -0.0041 0.0847
vn 0.9111 -0.0110 -0.4121
vn -0.1990 0.0454 0.9790
vn -0.3753 0.0830 0.9232
vn 0.0240 0.0560 0.9981
vn -0.0685 0.0837 0.9941
vn 0.2425 0.0565 0.9685
vn 0.2069 0.0713 0.9757
vn 0.4609 0.0656 0.8850
vn -0.8812 0.0301 0.4717
vn -0.8800 0.0324 0.4740
vn -0.2547 0.0639 0.9649
vn -0.2539 0.0632 0.9652
vn -0.8788 0.0332 0.4760
vn -0.8803 0.0315 0.4733
vn -0.2260 0.5106 0.8296
vn -0.8102 0.3921 0.4357
vn -0.6519 0.6425 0.4027
vn -0.2158 0.6886 0.6923
vn -0.2184 0.3791 0.8992
vn -0.1572 0.7689 0.6197
vn -0.2303 0.3895 0.8918
vn -0.2678 0.4906 0.8292
vn -0.4058 0.2221 0.8866
vn -0.7461 0.4721 0.4695
vn -0.4092 0.2418 0.8798
vn -0.7293 0.2013 0.6539
vn -0.7328 0.1584 0.6618
vn -0.2215 0.2060 0.9532
vn -0.2298 0.2217 0.9477
vn -0.1906 0.5050 0.8418
vn -0.3487 0.1694 0.9218
vn -0.1429 0.4737 0.8690
vn -0.0993 0.7457 0.6589
vn -0.1092 0.3850 0.9164
vn -0.0196 0.2937 0.9557
vn -0.0685 0.5925 0.8027
vn -0.1523 0.1746 0.9728
vn -0.0133 0.3092 0.9509
vn 0.3789 0.3190 0.8687
vn 0.4467 0.5679 0.6913
vn 0.3688 0.3362 0.8666
vn 0.3998 -0.0987 0.9113
vn 0.2931 -0.0622 0.9540
vn 0.2767 -0.0704 0.9584
vn 0.4944 0.2417 0.8350
vn 0.5291 0.2699 0.8045
vn 0.4935 0.5236 0.6945
vn 0.5695 0.1152 0.8139
vn 0.5926 0.4123 0.6919
vn 0.5132 0.5473 0.6611
vn 0.4023 0.7883 0.4656
vn 0.5166 0.6332 0.5765
vn 0.6508 0.0519 0.7575
vn 0.6545 0.0491 0.7545
vn 0.6439 0.2158 0.7341
vn 0.6507 0.0518 0.7576
vn 0.6460 0.2090 0.7342
vn 0.7904 -0.0608 0.6096
vn 0.7184 -0.0478 0.6940
vn 0.5903 -0.0866 0.8025
vn 0.7031 0.2022 0.6818
vn 0.6859 0.2887 0.6679
vn 0.5984 0.5829 0.5497
vn 0.6760 0.4247 0.6022
vn 0.9141 0.3855 0.1255
vn 0.8118 0.5757 0.0976
vn 0.9129 0.4051 0.0491
vn 0.9857 0.1014 0.1343
vn 0.9414 0.1383 0.3075
vn 0.9578 0.2176 0.1877
vn 0.9373 -0.0399 0.3463
vn 0.9085 -0.0242 0.4172
vn 0.8689 -0.0486 0.4926
vn 0.8000 0.2242 0.5565
vn 0.8195 -0.0453 0.5713
vn 0.9771 -0.0121 0.2125
vn 0.9998 0.0136 -0.0127
vn 0.9983 -0.0109 0.0571
vn 0.9758 -0.0108 0.2183
vn 0.9757 0.0327 -0.2166
vn 0.9867 0.0151 -0.1616
vn 0.9131 0.0535 -0.4042
vn 0.9433 0.0278 -0.3307
vn 0.8310 0.0509 -0.5539
vn 0.8020 0.0702 -0.5931
vn 0.6858 0.0721 -0.7242
vn 0.6398 0.0895 -0.7633
vn 0.6981 0.2605 -0.6670
vn 0.5675 0.0726 -0.8202
vn 0.5351 0.3223 -0.7809
vn 0.3818 0.3613 -0.8507
vn 0.4368 0.0843 -0.8956
vn 0.5386 0.3337 -0.7737
vn 0.4030 0.3308 -0.8533
vn 0.3056 0.6852 -0.6611
vn 0.2002 0.3408 -0.9186
vn 0.1499 0.6553 -0.7403
vn 0.1879 0.5852 -0.7888
vn 0.2628 0.6110 -0.7467
vn 0.1793 0.8513 -0.4930
vn 0.4211 0.6468 -0.6358
vn 0.2177 0.8902 -0.4002
vn 0.1253 0.8955 -0.4269
vn 0.3880 0.8456 -0.3667
vn 0.2867 0.8548 -0.4327
vn 0.6582 0.5376 -0.5270
vn 0.5880 0.6154 -0.5248
vn 0.4113 0.6002 -0.6860
vn 0.6845 0.5675 -0.4577
vn 0.7965 0.4014 -0.4522
vn 0.6205 0.6760 -0.3975
vn 0.6546 0.6772 -0.3361
vn 0.2326 0.9456 -0.2273
vn 0.4523 0.8530 -0.2603
vn 0.7159 0.6224 -0.3163
vn 0.8684 0.3650 -0.3357
vn 0.7642 0.5417 -0.3500
vn 0.9838 0.1627 -0.0750
vn 0.8725 0.3478 -0.3430
vn 0.8648 0.5014 -0.0244
vn 0.8101 0.3177 -0.4928
vn 0.6295 0.4277 -0.6487
vn 0.1505 0.9418 -0.3006
vn 0.1057 0.9346 -0.3398
vn 0.0033 0.9749 -0.2227
vn 0.0656 0.8805 -0.4695
vn 0.0568 0.8653 -0.4980
vn -0.0481 0.8793 -0.4739
vn -0.0452 0.8971 -0.4395
vn 0.0099 0.9049 -0.4255
vn 0.0211 0.7145 -0.6994
vn -0.0962 0.7044 -0.7032
vn -0.0514 0.7542 -0.6546
vn -0.0720 0.9481 -0.3096
vn -0.0701 0.7978 -0.5988
vn -0.2124 0.7105 -0.6709
vn -0.1225 0.8719 -0.4740
vn -0.2125 0.7123 -0.6689
vn -0.3418 0.6438 -0.6846
vn -0.2123 0.8864 -0.4113
vn -0.2208 0.8129 -0.5390
vn -0.1234 0.9512 -0.2828
vn 0.0012 0.9976 -0.0691
vn -0.0025 0.9977 -0.0676
vn -0.0030 0.9978 -0.0667
vn -0.2538 0.9099 -0.3282
vn -0.3192 0.8808 -0.3497
vn -0.3237 0.8361 -0.4428
vn -0.4461 0.8052 -0.3906
vn -0.4932 0.7695 -0.4057
vn -0.2281 0.9508 -0.2096
vn -0.4414 0.8488 -0.2910
vn -0.6349 0.6791 -0.3683
vn -0.5640 0.6722 -0.4797
vn -0.6043 0.6333 -0.4835
vn -0.4896 0.6543 -0.5763
vn -0.4818 0.6724 -0.5619
vn -0.3484 0.7544 -0.5563
vn -0.4656 0.4779 -0.7449
vn -0.6260 0.4615 -0.6286
vn -0.4667 0.5641 -0.6812
vn -0.3036 0.5855 -0.7517
vn -0.5921 0.2243 -0.7740
vn -0.3594 0.2308 -0.9042
vn -0.3802 0.3487 -0.8567
vn -0.5324 0.3202 -0.7836
vn -0.5052 0.0898 -0.8583
vn -0.4258 0.0793 -0.9013
vn -0.5707 0.0765 -0.8176
vn -0.6303 0.0815 -0.7721
vn -0.7573 0.0691 -0.6494
vn -0.6889 0.0643 -0.7220
vn -0.3189 0.1058 -0.9419
vn -0.0655 0.1054 -0.9923
vn -0.2075 0.0861 -0.9744
vn -0.0218 0.3209 -0.9469
vn -0.0332 0.0960 -0.9948
vn -0.2010 0.3509 -0.9146
vn -0.1749 0.2820 -0.9433
vn -0.0976 0.5150 -0.8516
vn -0.1213 0.5617 -0.8184
vn -0.0125 0.6079 -0.7939
vn -0.0055 0.2803 -0.9599
vn 0.1982 0.3459 -0.9171
vn 0.2120 0.0894 -0.9732
vn 0.1744 0.1027 -0.9793
vn 0.4027 0.0987 -0.9100
vn -0.6327 0.3247 -0.7031
vn -0.2855 0.4529 -0.8446
vn 0.0005 0.9976 -0.0686
vn 0.0455 0.7484 -0.6616
vn 0.0941 0.4915 -0.8658
vn 0.0036 0.9977 -0.0676
vn 0.1657 0.6968 -0.6978
vn -0.0001 0.9978 -0.0666
vn -0.0090 0.9977 -0.0679
vn 0.0316 0.9966 -0.0766
vn -0.4572 -0.0883 0.8850
vn -0.6637 -0.0782 0.7439
vn -0.7024 -0.0535 0.7098
vn -0.8223 -0.0664 0.5651
vn 0.7999 0.2269 0.5555
vn 0.5455 -0.0630 0.8357
vn 0.9979 0.0055 0.0641
vn 0.3446 0.7262 0.5948
vn 0.0709 -0.0841 0.9939
vn -0.8477 0.1658 0.5038
vn -0.5524 0.8016 0.2285
vn -0.8787 0.0308 0.4764
vn -0.8686 0.2316 0.4381
vn -0.7969 0.5015 0.3368
vn -0.9356 0.1769 0.3056
vn -0.9088 0.3362 0.2469
vn 0.9737 0.0089 -0.2276
vn 0.9083 0.0440 -0.4160
vn -0.9041 0.0320 -0.4262
vn -0.5919 0.0799 -0.8020
vn -0.1694 -0.0918 0.9813
vn 0.3075 -0.1027 0.9460
vn 0.8090 -0.0525 0.5854
vn 0.6954 0.0715 -0.7150
s 0
usemtl Material.027
f 1//1 7//1 2//1
f 1//2 2//2 3//2
f 1//3 3//3 4//3
f 1//4 4//4 5//4
f 1//5 5//5 8//5
f 1//5 8//5 6//5
f 1//5 6//5 7//5
f 9//6 8//6 10//6
f 9//7 6//7 8//7
f 10//8 8//8 11//8
f 5//5 11//5 8//5
f 10//9 11//9 12//9
f 12//10 11//10 13//10
f 5//5 13//5 11//5
f 12//11 13//11 14//11
f 14//12 13//12 15//12
f 16//5 15//5 13//5
f 5//5 16//5 13//5
f 16//13 17//13 18//13
f 19//14 17//14 16//14
f 16//5 18//5 20//5
f 5//15 19//15 16//15
f 16//16 20//16 15//16
f 21//17 20//17 22//17
f 21//18 15//18 20//18
f 22//19 20//19 23//19
f 18//20 23//20 20//20
f 22//21 23//21 24//21
f 24//22 23//22 25//22
f 18//23 25//23 23//23
f 26//24 25//24 27//24
f 24//25 25//25 26//25
f 18//23 27//23 25//23
f 26//26 27//26 28//26
f 28//27 27//27 29//27
f 29//28 27//28 30//28
f 31//5 30//5 27//5
f 18//16 31//16 27//16
f 18//29 32//29 31//29
f 31//30 32//30 34//30
f 31//5 33//5 35//5
f 31//31 34//31 33//31
f 31//5 35//5 30//5
f 36//32 35//32 37//32
f 36//33 30//33 35//33
f 37//34 35//34 38//34
f 33//5 38//5 35//5
f 37//35 38//35 39//35
f 39//36 38//36 40//36
f 41//1 40//1 38//1
f 33//5 41//5 38//5
f 41//16 42//16 46//16
f 41//37 44//37 42//37
f 33//38 43//38 41//38
f 43//39 44//39 41//39
f 41//5 46//5 45//5
f 41//16 45//16 40//16
f 47//40 46//40 49//40
f 48//41 46//41 47//41
f 48//42 45//42 46//42
f 42//16 49//16 46//16
f 47//43 49//43 50//43
f 50//44 49//44 51//44
f 42//5 51//5 49//5
f 50//45 51//45 52//45
f 52//46 51//46 53//46
f 54//16 53//16 51//16
f 42//5 54//5 51//5
f 54//5 2//5 56//5
f 54//47 55//47 2//47
f 42//48 55//48 54//48
f 54//16 56//16 53//16
f 57//49 56//49 59//49
f 58//50 56//50 57//50
f 58//51 53//51 56//51
f 2//5 59//5 56//5
f 60//52 59//52 61//52
f 57//53 59//53 60//53
f 2//5 61//5 59//5
f 62//54 61//54 7//54
f 60//55 61//55 62//55
f 2//5 7//5 61//5
f 63//23 62//23 64//23
f 60//1 62//1 63//1
f 62//16 65//16 64//16
f 62//56 7//56 65//56
f 65//5 9//5 66//5
f 64//57 65//57 66//57
f 65//58 6//58 9//58
f 65//59 7//59 6//59
f 64//60 66//60 67//60
f 66//61 68//61 67//61
f 66//62 69//62 68//62
f 66//5 9//5 69//5
f 69//63 70//63 68//63
f 69//64 71//64 70//64
f 69//1 9//1 71//1
f 71//65 72//65 70//65
f 71//66 73//66 72//66
f 71//1 10//1 73//1
f 9//5 10//5 71//5
f 73//67 74//67 72//67
f 73//68 75//68 74//68
f 73//16 12//16 75//16
f 10//23 12//23 73//23
f 75//69 76//69 74//69
f 75//70 77//70 76//70
f 75//71 78//71 77//71
f 75//5 14//5 78//5
f 12//5 14//5 75//5
f 78//72 81//72 79//72
f 78//73 79//73 77//73
f 78//5 80//5 81//5
f 14//16 80//16 78//16
f 81//74 82//74 79//74
f 81//75 83//75 82//75
f 81//76 84//76 83//76
f 81//16 21//16 84//16
f 80//5 21//5 81//5
f 84//77 85//77 83//77
f 84//78 86//78 85//78
f 21//5 22//5 84//5
f 84//5 22//5 86//5
f 86//79 87//79 85//79
f 86//80 88//80 87//80
f 86//5 24//5 88//5
f 22//5 24//5 86//5
f 88//81 89//81 87//81
f 88//82 91//82 89//82
f 24//5 26//5 88//5
f 88//5 26//5 90//5
f 88//83 90//83 91//83
f 90//84 92//84 91//84
f 89//85 91//85 96//85
f 92//86 95//86 91//86
f 91//87 93//87 94//87
f 91//88 95//88 93//88
f 91//89 94//89 96//89
f 96//90 97//90 98//90
f 96//91 94//91 97//91
f 99//92 96//92 98//92
f 89//93 96//93 99//93
f 99//94 85//94 87//94
f 100//95 85//95 99//95
f 99//96 98//96 100//96
f 87//97 89//97 99//97
f 102//98 101//98 100//98
f 83//99 100//99 101//99
f 102//100 100//100 103//100
f 100//101 98//101 103//101
f 85//102 100//102 83//102
f 98//103 97//103 103//103
f 97//104 104//104 103//104
f 103//105 104//105 105//105
f 105//106 102//106 103//106
f 106//107 102//107 105//107
f 105//108 104//108 107//108
f 107//109 106//109 105//109
f 107//110 111//110 108//110
f 108//111 106//111 107//111
f 104//112 109//112 107//112
f 110//113 107//113 109//113
f 110//114 111//114 107//114
f 108//115 111//115 112//115
f 110//116 113//116 111//116
f 111//115 114//115 112//115
f 113//115 114//115 111//115
f 112//117 114//117 116//117
f 114//116 115//116 117//116
f 113//115 115//115 114//115
f 114//116 117//116 116//116
f 115//118 118//118 117//118
f 116//119 117//119 118//119
f 119//119 116//119 118//119
f 119//119 118//119 120//119
f 120//119 118//119 121//119
f 122//120 121//120 118//120
f 115//118 122//118 118//118
f 124//115 122//115 115//115
f 122//120 123//120 121//120
f 125//115 123//115 122//115
f 125//115 122//115 124//115
f 126//121 131//121 125//121
f 127//122 126//122 125//122
f 127//120 125//120 128//120
f 128//120 125//120 124//120
f 125//115 130//115 129//115
f 125//115 129//115 123//115
f 131//115 130//115 125//115
f 131//123 126//123 132//123
f 131//124 132//124 134//124
f 131//125 134//125 133//125
f 135//126 131//126 133//126
f 135//115 136//115 131//115
f 131//115 136//115 130//115
f 136//127 137//127 138//127
f 135//115 137//115 136//115
f 130//128 136//128 139//128
f 136//127 138//127 139//127
f 140//129 139//129 55//129
f 55//119 139//119 138//119
f 140//119 141//119 139//119
f 130//128 139//128 141//128
f 44//119 141//119 140//119
f 43//129 141//129 44//129
f 34//130 141//130 43//130
f 34//119 116//119 141//119
f 145//131 141//131 142//131
f 142//119 141//119 144//119
f 116//119 143//119 141//119
f 141//119 143//119 144//119
f 130//132 141//132 145//132
f 145//133 149//133 146//133
f 145//134 146//134 147//134
f 148//115 145//115 147//115
f 130//115 145//115 148//115
f 145//135 142//135 149//135
f 142//119 152//119 149//119
f 149//119 150//119 151//119
f 152//119 150//119 149//119
f 153//136 149//136 151//136
f 146//137 149//137 153//137
f 153//138 151//138 154//138
f 153//115 154//115 147//115
f 146//115 153//115 147//115
f 154//115 156//115 155//115
f 147//115 154//115 155//115
f 154//139 157//139 156//139
f 154//140 151//140 157//140
f 157//119 151//119 150//119
f 158//119 157//119 150//119
f 156//141 157//141 158//141
f 159//119 158//119 150//119
f 160//119 158//119 159//119
f 161//142 158//142 160//142
f 156//143 158//143 161//143
f 161//144 160//144 162//144
f 161//145 162//145 163//145
f 155//146 161//146 163//146
f 156//115 161//115 155//115
f 163//147 164//147 167//147
f 163//148 165//148 164//148
f 166//115 165//115 163//115
f 162//115 166//115 163//115
f 155//149 163//149 159//149
f 163//150 167//150 159//150
f 167//119 168//119 159//119
f 169//129 168//129 167//129
f 171//151 169//151 167//151
f 164//152 170//152 167//152
f 170//119 171//119 167//119
f 173//153 171//153 172//153
f 172//119 171//119 170//119
f 165//154 169//154 171//154
f 165//155 171//155 173//155
f 165//156 173//156 164//156
f 173//134 174//134 164//134
f 173//157 172//157 174//157
f 174//158 175//158 164//158
f 174//159 177//159 175//159
f 174//160 172//160 176//160
f 174//161 176//161 177//161
f 177//119 176//119 170//119
f 178//151 177//151 170//151
f 179//119 177//119 178//119
f 175//162 177//162 179//162
f 180//119 179//119 178//119
f 120//119 179//119 180//119
f 129//163 179//163 120//163
f 129//164 175//164 179//164
f 183//165 181//165 180//165
f 120//119 180//119 181//119
f 182//166 180//166 178//166
f 182//167 183//167 180//167
f 183//168 184//168 181//168
f 129//169 183//169 182//169
f 129//170 184//170 183//170
f 184//171 185//171 119//171
f 184//172 119//172 181//172
f 130//158 185//158 184//158
f 130//115 184//115 129//115
f 130//115 148//115 185//115
f 185//173 148//173 144//173
f 185//174 143//174 119//174
f 185//175 144//175 143//175
f 164//158 175//158 182//158
f 129//115 182//115 175//115
f 164//176 182//176 170//176
f 182//177 178//177 170//177
f 120//178 181//178 119//178
f 176//119 172//119 170//119
f 166//179 168//179 169//179
f 166//180 169//180 165//180
f 162//181 160//181 168//181
f 168//119 160//119 159//119
f 162//182 168//182 166//182
f 155//183 159//183 150//183
f 147//184 155//184 150//184
f 147//185 150//185 152//185
f 148//186 152//186 144//186
f 142//119 144//119 152//119
f 148//187 147//187 152//187
f 116//130 119//130 143//130
f 140//188 55//188 42//188
f 44//189 140//189 42//189
f 3//119 138//119 186//119
f 3//119 55//119 138//119
f 137//190 186//190 138//190
f 3//119 186//119 187//119
f 188//191 187//191 186//191
f 137//190 188//190 186//190
f 190//115 188//115 189//115
f 189//115 188//115 137//115
f 190//115 191//115 188//115
f 188//192 191//192 187//192
f 190//115 192//115 191//115
f 192//193 193//193 191//193
f 191//193 193//193 187//193
f 3//119 187//119 193//119
f 3//119 193//119 197//119
f 192//194 194//194 193//194
f 193//119 194//119 195//119
f 193//195 195//195 196//195
f 193//196 196//196 197//196
f 3//197 197//197 198//197
f 200//198 197//198 196//198
f 199//199 198//199 197//199
f 200//200 199//200 197//200
f 108//115 199//115 200//115
f 108//115 200//115 201//115
f 201//201 200//201 196//201
f 108//115 201//115 192//115
f 202//202 201//202 196//202
f 192//203 201//203 202//203
f 192//204 202//204 204//204
f 204//205 202//205 203//205
f 202//206 195//206 203//206
f 202//207 196//207 195//207
f 205//208 204//208 203//208
f 192//115 204//115 205//115
f 205//115 208//115 206//115
f 192//115 205//115 206//115
f 205//115 210//115 207//115
f 205//209 207//209 209//209
f 205//158 209//158 208//158
f 205//210 211//210 210//210
f 205//211 212//211 211//211
f 205//212 203//212 212//212
f 203//119 213//119 212//119
f 213//119 214//119 212//119
f 214//119 215//119 212//119
f 212//119 215//119 211//119
f 207//213 215//213 214//213
f 215//214 216//214 211//214
f 217//215 216//215 215//215
f 207//216 217//216 215//216
f 218//217 216//217 217//217
f 207//158 210//158 217//158
f 218//145 217//145 210//145
f 218//218 219//218 216//218
f 220//219 219//219 218//219
f 220//115 218//115 210//115
f 221//220 219//220 220//220
f 222//115 220//115 210//115
f 221//115 220//115 222//115
f 225//221 222//221 223//221
f 222//222 224//222 223//222
f 222//223 210//223 224//223
f 225//115 226//115 222//115
f 226//145 221//145 222//145
f 226//224 227//224 228//224
f 230//225 227//225 226//225
f 226//226 228//226 229//226
f 226//227 229//227 221//227
f 230//115 226//115 225//115
f 230//228 231//228 227//228
f 232//229 231//229 230//229
f 232//115 230//115 225//115
f 232//230 233//230 231//230
f 234//231 233//231 232//231
f 234//115 232//115 225//115
f 112//232 236//232 234//232
f 112//115 234//115 235//115
f 235//134 234//134 225//134
f 234//233 236//233 233//233
f 17//119 237//119 236//119
f 17//119 236//119 116//119
f 112//117 116//117 236//117
f 236//119 237//119 233//119
f 19//119 237//119 17//119
f 4//119 237//119 19//119
f 4//234 3//234 237//234
f 3//235 198//235 237//235
f 235//236 237//236 198//236
f 225//237 223//237 237//237
f 237//119 223//119 233//119
f 235//238 225//238 237//238
f 112//158 235//158 199//158
f 235//239 198//239 199//239
f 231//240 233//240 223//240
f 227//129 231//129 223//129
f 229//119 228//119 224//119
f 219//119 229//119 224//119
f 221//241 229//241 219//241
f 228//119 227//119 224//119
f 224//119 227//119 223//119
f 210//242 211//242 224//242
f 211//119 216//119 224//119
f 216//119 219//119 224//119
f 209//243 214//243 213//243
f 209//244 207//244 214//244
f 238//119 213//119 203//119
f 208//245 213//245 238//245
f 208//246 209//246 213//246
f 206//247 238//247 194//247
f 194//119 238//119 203//119
f 206//248 208//248 238//248
f 192//249 206//249 194//249
f 194//151 203//151 195//151
f 108//115 112//115 199//115
f 108//115 192//115 190//115
f 190//250 79//250 239//250
f 108//251 190//251 239//251
f 190//252 189//252 240//252
f 190//253 240//253 241//253
f 190//254 241//254 77//254
f 190//255 77//255 79//255
f 241//256 240//256 244//256
f 77//257 241//257 243//257
f 242//258 243//258 241//258
f 241//259 244//259 242//259
f 244//260 245//260 246//260
f 240//261 245//261 244//261
f 244//262 246//262 72//262
f 242//263 244//263 247//263
f 244//264 72//264 247//264
f 247//265 243//265 242//265
f 247//266 72//266 74//266
f 76//267 243//267 247//267
f 74//268 76//268 247//268
f 68//269 70//269 246//269
f 248//270 68//270 246//270
f 245//271 248//271 246//271
f 246//272 70//272 72//272
f 249//273 250//273 248//273
f 245//274 249//274 248//274
f 250//275 68//275 248//275
f 251//276 67//276 250//276
f 249//277 251//277 250//277
f 250//278 67//278 68//278
f 252//279 67//279 251//279
f 252//280 251//280 254//280
f 251//281 249//281 253//281
f 251//282 253//282 254//282
f 63//283 254//283 255//283
f 63//284 64//284 254//284
f 64//285 252//285 254//285
f 255//286 254//286 256//286
f 254//287 253//287 256//287
f 256//288 253//288 258//288
f 255//289 256//289 257//289
f 256//290 258//290 257//290
f 245//291 258//291 253//291
f 245//292 240//292 258//292
f 240//293 257//293 258//293
f 189//294 135//294 257//294
f 189//295 257//295 240//295
f 260//296 257//296 259//296
f 135//297 259//297 257//297
f 260//298 255//298 257//298
f 261//299 260//299 263//299
f 261//300 262//300 260//300
f 262//301 255//301 260//301
f 263//302 260//302 264//302
f 264//303 260//303 265//303
f 265//304 260//304 259//304
f 265//305 266//305 264//305
f 267//306 266//306 265//306
f 265//307 259//307 267//307
f 259//308 133//308 267//308
f 267//309 133//309 268//309
f 267//310 269//310 266//310
f 267//311 268//311 269//311
f 270//312 269//312 268//312
f 270//313 271//313 269//313
f 271//314 263//314 269//314
f 269//315 263//315 266//315
f 271//316 261//316 263//316
f 271//5 58//5 261//5
f 270//5 58//5 271//5
f 272//317 270//317 268//317
f 272//16 52//16 270//16
f 52//5 58//5 270//5
f 273//318 272//318 134//318
f 272//319 133//319 134//319
f 272//320 268//320 133//320
f 273//5 50//5 272//5
f 50//5 52//5 272//5
f 275//321 273//321 274//321
f 273//322 134//322 274//322
f 47//5 50//5 273//5
f 275//5 47//5 273//5
f 277//323 275//323 276//323
f 275//324 274//324 276//324
f 48//5 47//5 275//5
f 277//16 48//16 275//16
f 277//325 276//325 278//325
f 279//326 277//326 278//326
f 279//5 48//5 277//5
f 279//327 278//327 282//327
f 281//16 280//16 279//16
f 280//5 48//5 279//5
f 281//328 279//328 282//328
f 282//329 278//329 283//329
f 281//330 282//330 284//330
f 283//331 284//331 282//331
f 285//332 284//332 287//332
f 281//333 284//333 285//333
f 283//334 286//334 284//334
f 284//335 286//335 287//335
f 287//336 286//336 291//336
f 285//337 287//337 289//337
f 288//338 287//338 290//338
f 289//339 287//339 288//339
f 287//340 291//340 290//340
f 290//341 291//341 293//341
f 294//342 291//342 286//342
f 292//343 291//343 294//343
f 291//344 292//344 293//344
f 294//345 297//345 295//345
f 295//346 292//346 294//346
f 296//347 297//347 294//347
f 296//348 294//348 283//348
f 294//349 286//349 283//349
f 296//350 276//350 297//350
f 298//351 297//351 276//351
f 299//352 295//352 297//352
f 298//353 299//353 297//353
f 126//354 295//354 299//354
f 126//355 299//355 298//355
f 126//356 298//356 132//356
f 300//357 298//357 276//357
f 132//358 298//358 300//358
f 274//359 134//359 300//359
f 274//360 300//360 276//360
f 132//361 300//361 134//361
f 278//362 276//362 296//362
f 278//363 296//363 283//363
f 126//364 292//364 295//364
f 293//365 292//365 301//365
f 293//366 301//366 303//366
f 302//367 290//367 293//367
f 302//368 293//368 303//368
f 301//369 304//369 303//369
f 305//370 303//370 304//370
f 305//371 302//371 303//371
f 307//372 302//372 305//372
f 306//373 305//373 309//373
f 307//374 305//374 306//374
f 308//375 305//375 304//375
f 309//376 305//376 308//376
f 306//377 309//377 310//377
f 310//378 309//378 308//378
f 311//379 306//379 310//379
f 311//380 310//380 312//380
f 310//381 313//381 312//381
f 310//382 308//382 313//382
f 308//383 304//383 313//383
f 314//384 313//384 304//384
f 110//385 313//385 314//385
f 110//386 109//386 313//386
f 312//387 313//387 315//387
f 315//388 313//388 109//388
f 316//389 312//389 315//389
f 317//390 316//390 315//390
f 317//391 315//391 104//391
f 315//392 109//392 104//392
f 97//393 317//393 104//393
f 94//394 317//394 97//394
f 94//395 316//395 317//395
f 93//396 316//396 94//396
f 93//397 318//397 316//397
f 318//398 312//398 316//398
f 318//399 311//399 312//399
f 319//400 311//400 318//400
f 95//401 318//401 93//401
f 95//402 319//402 318//402
f 320//403 311//403 319//403
f 322//404 319//404 95//404
f 321//405 320//405 319//405
f 323//406 321//406 319//406
f 322//407 323//407 319//407
f 325//408 324//408 323//408
f 324//409 321//409 323//409
f 325//410 323//410 322//410
f 325//5 29//5 324//5
f 28//5 29//5 325//5
f 326//5 28//5 325//5
f 326//411 325//411 322//411
f 90//412 326//412 92//412
f 90//5 26//5 326//5
f 26//5 28//5 326//5
f 326//413 322//413 92//413
f 324//414 327//414 321//414
f 324//16 36//16 327//16
f 29//5 36//5 324//5
f 36//23 37//23 327//23
f 327//415 328//415 329//415
f 327//5 37//5 328//5
f 327//416 329//416 321//416
f 329//417 330//417 331//417
f 328//418 330//418 329//418
f 321//419 329//419 320//419
f 329//420 331//420 320//420
f 331//421 307//421 306//421
f 320//422 331//422 306//422
f 331//423 289//423 307//423
f 330//424 289//424 331//424
f 330//425 285//425 289//425
f 332//426 285//426 330//426
f 328//427 332//427 330//427
f 37//5 39//5 332//5
f 328//5 37//5 332//5
f 332//1 39//1 281//1
f 332//428 281//428 285//428
f 92//429 322//429 95//429
f 320//430 306//430 311//430
f 110//116 314//116 113//116
f 128//118 124//118 314//118
f 128//431 314//431 304//431
f 314//118 124//118 113//118
f 307//432 288//432 302//432
f 289//433 288//433 307//433
f 128//434 304//434 301//434
f 288//435 290//435 302//435
f 127//436 128//436 301//436
f 127//437 301//437 292//437
f 127//438 292//438 126//438
f 333//16 280//16 281//16
f 39//1 333//1 281//1
f 39//439 40//439 333//439
f 333//440 40//440 280//440
f 280//441 40//441 45//441
f 280//442 45//442 48//442
f 266//443 263//443 264//443
f 261//5 57//5 262//5
f 57//5 60//5 262//5
f 262//444 63//444 255//444
f 262//5 60//5 63//5
f 58//16 57//16 261//16
f 135//445 133//445 259//445
f 245//446 253//446 249//446
f 64//447 67//447 252//447
f 76//448 77//448 243//448
f 106//449 239//449 102//449
f 108//450 239//450 106//450
f 79//451 82//451 239//451
f 239//452 101//452 102//452
f 82//453 101//453 239//453
f 189//115 137//115 135//115
f 123//128 129//128 120//128
f 124//115 115//115 113//115
f 123//128 120//128 121//128
f 32//119 116//119 34//119
f 17//119 116//119 32//119
f 82//454 83//454 101//454
f 80//455 15//455 21//455
f 14//456 15//456 80//456
f 52//457 53//457 58//457
f 2//458 55//458 3//458
f 33//459 34//459 43//459
f 29//460 30//460 36//460
f 17//461 32//461 18//461
f 4//462 19//462 5//462
