# Blender 5.0.1
# www.blender.org
mtllib torso_z_link_visual_12.mtl
o i01.torso.topStom.full.013_visual.001
v 0.042596 0.071668 -0.016863
v -0.016278 -0.083915 -0.013532
v -0.076093 -0.032503 -0.023922
v -0.051765 -0.065685 -0.018888
v 0.036084 0.075240 0.016356
v 0.066680 0.049617 0.021626
v 0.074758 -0.041740 -0.005638
v 0.084720 -0.010639 -0.006515
v 0.024855 -0.081816 -0.008849
v 0.053736 -0.066734 -0.006457
v -0.070534 0.038488 -0.027937
v -0.080496 0.007387 -0.027060
v -0.020631 0.078566 -0.024726
v -0.049512 0.063483 -0.027118
v 0.011713 0.081440 -0.021126
v 0.082107 0.021836 -0.008957
v 0.067314 0.050738 -0.012590
v 0.080782 0.010866 0.025826
v 0.076380 -0.029092 0.027938
v -0.016127 -0.082491 0.020610
v -0.078436 -0.034150 0.010129
v -0.053449 -0.065316 0.015107
v 0.023707 -0.078734 0.025030
v 0.052052 -0.062647 0.027294
v -0.027360 0.079904 0.008615
v -0.075847 0.038104 0.005681
v -0.055704 0.063818 0.006351
v -0.084720 0.006679 0.006708
v 0.004872 0.083915 0.012128
vn 0.1162 -0.0652 -0.9911
vn 0.1161 -0.0652 -0.9911
vn 0.1161 -0.0651 -0.9911
vn 0.6372 0.7695 0.0422
vn 0.3067 0.9509 -0.0421
vn 0.6420 0.7658 0.0370
vn 0.1162 -0.0651 -0.9911
vn 0.1161 -0.0654 -0.9911
vn 0.8881 0.4585 0.0315
vn 0.9244 0.3522 0.1463
vn 0.9943 0.0849 0.0646
vn -0.1161 0.0652 0.9911
vn 0.9780 -0.0980 0.1843
vn -0.1162 0.0652 0.9911
vn -0.4225 -0.9055 0.0396
vn 0.0462 -0.9981 0.0414
vn 0.0832 -0.9922 0.0931
vn -0.1161 0.0651 0.9911
vn 0.2698 0.9628 -0.0162
vn -0.0782 0.9929 -0.0900
vn -0.1165 0.9912 -0.0633
vn -0.9850 -0.1186 -0.1257
vn -0.9846 -0.1578 -0.0754
vn -0.9571 0.2665 -0.1141
vn -0.4852 0.8688 -0.0985
vn -0.7547 0.6396 -0.1460
vn -0.7804 0.6144 -0.1163
vn -0.9434 0.2981 -0.1457
vn -0.4509 0.8835 -0.1265
vn 0.4817 -0.8668 0.1290
vn 0.7948 -0.5796 0.1800
vn 0.7583 -0.6416 0.1155
vn 0.4545 -0.8856 0.0960
vn -0.7773 -0.6283 -0.0317
vn -0.4554 -0.8902 -0.0129
vn -0.7975 -0.5974 -0.0838
vn 0.9507 -0.3026 0.0681
s 0
usemtl Material.007
f 9//1 2//1 1//1
f 1//2 2//2 4//2
f 1//3 3//3 12//3
f 1//1 4//1 3//1
f 1//4 5//4 6//4
f 5//5 1//5 15//5
f 6//6 17//6 1//6
f 1//2 7//2 10//2
f 1//7 8//7 7//7
f 1//2 16//2 8//2
f 1//2 10//2 9//2
f 1//2 11//2 14//2
f 1//2 12//2 11//2
f 1//8 13//8 15//8
f 1//2 14//2 13//2
f 1//2 17//2 16//2
f 6//9 16//9 17//9
f 16//10 6//10 18//10
f 18//11 8//11 16//11
f 20//12 18//12 6//12
f 8//13 18//13 19//13
f 20//12 19//12 18//12
f 20//14 28//14 21//14
f 20//12 21//12 22//12
f 2//15 20//15 22//15
f 20//16 2//16 9//16
f 9//17 23//17 20//17
f 20//18 23//18 24//18
f 20//12 24//12 19//12
f 20//12 29//12 25//12
f 20//12 25//12 27//12
f 20//14 27//14 26//14
f 20//12 26//12 28//12
f 20//12 6//12 5//12
f 20//14 5//14 29//14
f 15//19 29//19 5//19
f 29//20 15//20 13//20
f 13//21 25//21 29//21
f 28//22 12//22 3//22
f 3//23 21//23 28//23
f 12//24 28//24 26//24
f 14//25 27//25 25//25
f 27//26 14//26 11//26
f 11//27 26//27 27//27
f 26//28 11//28 12//28
f 25//29 13//29 14//29
f 10//30 24//30 23//30
f 7//31 19//31 24//31
f 24//32 10//32 7//32
f 23//33 9//33 10//33
f 4//34 22//34 21//34
f 22//35 4//35 2//35
f 21//36 3//36 4//36
f 19//37 7//37 8//37
