# Blender 5.0.1
# www.blender.org
mtllib torso_y_link_visual_14.mtl
o i01.torso.full.016_visual.001
v -0.231757 0.110067 0.234634
v -0.237241 0.136650 0.232650
v -0.156373 0.136871 0.232978
v -0.223514 0.075249 0.188147
v -0.316690 0.109343 0.227116
v -0.153319 0.109551 0.234560
v -0.280878 0.081141 0.193207
v -0.334577 0.064510 0.163390
v -0.258294 0.020974 0.106667
v -0.179167 -0.001609 0.074582
v -0.176572 -0.010044 0.062076
v -0.149579 -0.082608 -0.045726
v -0.284457 -0.027534 0.028217
v -0.189875 0.037153 0.132568
v -0.145073 0.020438 0.107278
v -0.097810 0.021726 0.106917
v -0.176570 0.006863 0.087127
v -0.133230 0.055327 0.158462
v -0.157582 0.019516 0.105294
v -0.169181 0.014073 0.097728
v -0.169181 0.019727 0.097356
v -0.176572 0.019001 0.086319
v -0.159562 0.037344 0.072038
v -0.158459 0.037708 0.077570
v -0.179167 0.018145 0.073299
v -0.176572 0.017289 0.060280
v -0.158459 0.036980 0.066504
v -0.169181 0.016563 0.049241
v -0.169181 -0.017271 0.051466
v -0.158119 0.016078 0.041866
v -0.155318 0.036672 0.061814
v -0.148471 0.080236 0.054856
v -0.157607 0.080669 0.061443
v -0.150617 0.036466 0.058679
v -0.145072 0.015908 0.039277
v -0.145072 0.036393 0.057579
v -0.139527 0.080298 0.055796
v -0.139527 0.036466 0.058679
v -0.133131 0.080611 0.060555
v -0.134826 0.036672 0.061814
v -0.132024 0.016078 0.041866
v -0.132065 -0.021254 0.044306
v -0.121024 -0.016179 0.051339
v -0.120963 0.016563 0.049241
v -0.113569 -0.009098 0.062019
v -0.113571 0.017289 0.060280
v -0.131685 0.036980 0.066504
v -0.130533 0.081330 0.071495
v -0.130582 0.037344 0.072038
v -0.110976 0.018145 0.073299
v -0.113571 0.019001 0.086319
v -0.131685 0.037708 0.077570
v -0.134826 0.081848 0.079378
v -0.120963 0.019727 0.097356
v -0.134826 0.038016 0.082261
v -0.132359 0.019720 0.105111
v -0.141674 0.082116 0.083454
v -0.139527 0.038222 0.085396
v -0.145072 0.038295 0.086497
v -0.150617 0.082054 0.082514
v -0.150617 0.038222 0.085396
v -0.157011 0.081742 0.077757
v -0.155318 0.038016 0.082261
v -0.178319 0.084769 0.124319
v -0.159562 0.081176 0.069155
v -0.178319 0.076131 -0.007044
v -0.121412 0.076079 -0.007833
v -0.370341 -0.005830 -0.001986
v -0.397120 -0.002411 -0.002377
v -0.335591 -0.010460 -0.001433
v -0.532113 0.080195 -0.007311
v -0.178319 -0.024703 -0.000413
v -0.121412 -0.023942 -0.001256
v -0.532089 0.088740 0.124205
v -0.487271 0.084987 0.124306
v -0.532011 0.133537 0.185099
v -0.532050 0.112403 0.158122
v -0.501820 0.133510 0.187444
v -0.452016 0.134246 0.196331
v -0.506650 0.106499 0.188433
v -0.451698 0.107576 0.198180
v -0.552588 0.080895 0.153262
v -0.552542 0.106755 0.186121
v -0.506992 0.078835 0.153367
v -0.454850 0.092113 0.179551
v -0.413583 0.078986 0.170172
v -0.502580 0.052553 0.115022
v -0.355751 0.109225 0.220762
v -0.312274 0.136203 0.225871
v -0.349735 0.135807 0.220055
v -0.404936 0.135063 0.207883
v -0.316444 0.070003 0.125290
v -0.414832 0.078632 0.124727
v -0.178319 0.065975 0.125556
v -0.098871 0.084769 0.124319
v -0.098871 0.065168 0.125609
v 0.110450 0.084657 0.122618
v 0.105405 0.134593 0.200283
v -0.015484 0.135866 0.220736
v -0.086936 0.136431 0.229329
v -0.084314 0.109891 0.230850
v -0.014439 0.109181 0.222312
v -0.057048 0.089640 0.201015
v 0.012364 0.049107 0.135783
v 0.022896 -0.008246 0.049755
v 0.153933 0.069474 0.140472
v 0.148387 0.017820 0.067699
v 0.073741 0.108194 0.207869
v 0.150494 0.107344 0.192926
v 0.164338 0.133659 0.188138
v 0.267762 0.132304 0.164803
v 0.133716 0.134139 0.194461
v 0.283041 0.105340 0.163032
v 0.255442 0.064448 0.112835
v 0.211418 0.014431 0.047933
v 0.327704 0.062269 0.092990
v 0.432459 0.103130 0.124976
v 0.431073 0.129786 0.123526
v 0.378112 0.130307 0.137271
v 0.467047 0.128354 0.113483
v 0.525266 0.126755 0.096955
v 0.531532 0.099850 0.096582
v 0.428036 0.080927 0.093811
v 0.454554 0.078526 0.079392
v 0.347866 0.046846 0.057603
v 0.292434 0.036808 0.061011
v 0.271533 0.016081 0.031235
v 0.159808 -0.025051 -0.007849
v 0.216415 -0.023655 -0.027267
v 0.294544 0.004592 -0.002356
v 0.231264 0.008502 -0.024487
v 0.277636 0.024925 -0.009526
v 0.320751 0.041954 0.004024
v 0.350069 0.054328 0.013062
v 0.421038 0.057546 0.037138
v 0.375755 0.047787 0.044233
v 0.426942 0.066128 0.060069
v 0.464274 0.073572 0.052490
v 0.513557 0.088693 0.071816
v 0.552589 0.099037 0.088120
v 0.506198 0.113052 0.067037
v 0.459181 0.098283 0.048913
v 0.552590 0.125555 0.086377
v 0.426846 0.086338 0.037485
v 0.378233 0.066220 0.021749
v 0.348928 0.130867 0.144669
v 0.304204 0.131588 0.155982
v 0.199784 -0.003582 -0.033169
v 0.167470 -0.016521 -0.040916
v 0.118962 -0.061707 -0.050503
v 0.141669 -0.026758 -0.046869
v 0.113943 0.065659 0.095828
v 0.047556 -0.059874 -0.069433
v -0.047114 -0.111962 -0.088037
v -0.050751 -0.086326 -0.090534
v 0.030763 -0.091561 -0.071431
v -0.023530 -0.091210 -0.063486
v -0.018382 -0.055838 -0.015059
v 0.081445 -0.056448 -0.033797
v 0.105870 -0.019797 0.017188
v -0.100944 -0.074359 -0.035084
v -0.128169 -0.101020 -0.108538
v -0.185689 -0.107821 -0.120387
v -0.129723 -0.127791 -0.107083
v -0.183397 -0.134044 -0.118167
v -0.221319 -0.097239 -0.072120
v -0.248323 -0.110416 -0.135097
v -0.261166 -0.136871 -0.136169
v -0.274644 -0.093915 -0.074596
v -0.403630 0.041568 0.116720
v -0.334730 -0.092174 -0.085333
v -0.322493 -0.134282 -0.149576
v -0.386434 -0.088237 -0.093519
v -0.477548 -0.009439 0.013971
v -0.447881 0.048564 0.118041
v -0.519821 -0.021000 -0.015006
v -0.478071 -0.077555 -0.108457
v -0.504823 -0.073645 -0.109582
v -0.420707 -0.121647 -0.173898
v -0.488451 -0.100317 -0.164748
v -0.416194 -0.105356 -0.137234
v -0.375362 -0.129050 -0.162750
v -0.386714 -0.100909 -0.167297
v -0.416736 -0.095824 -0.174666
v -0.532026 -0.025213 -0.078403
v -0.481955 -0.084199 -0.189905
v -0.470385 -0.112764 -0.186095
v -0.511146 -0.106595 -0.192468
v -0.510996 -0.080108 -0.194074
v -0.498072 -0.081967 -0.192260
v -0.531789 -0.084066 -0.207978
v -0.552309 -0.115376 -0.219937
v -0.516765 -0.100319 -0.175101
v -0.538119 -0.083562 -0.137921
v -0.552582 -0.066842 -0.105411
v -0.552586 -0.081655 -0.132905
v -0.552503 0.105899 -0.234634
v -0.552540 0.133451 0.184370
v -0.532125 0.106819 -0.220634
v -0.552590 0.018401 0.051613
v -0.552585 0.058755 0.120763
v -0.532015 -0.042113 -0.111166
v -0.532035 0.015026 -0.004353
v -0.532033 -0.054918 -0.134221
v -0.352908 -0.105044 -0.158927
v -0.324018 -0.107620 -0.151653
v 0.113943 0.082821 0.094698
v -0.120965 0.014629 0.097696
v -0.113571 0.007602 0.087069
v -0.110976 -0.000571 0.074531
v -0.145096 -0.023156 0.041845
v -0.158119 -0.021839 0.044360
v -0.167292 -0.024663 0.040275
vn -0.0885 0.0560 0.9945
vn -0.0042 0.0736 0.9973
vn 0.0013 0.0580 0.9983
vn -0.0299 -0.8026 0.5958
vn -0.0047 -0.8008 0.5989
vn -0.0471 -0.7919 0.6088
vn -0.0772 -0.8051 0.5881
vn -0.0551 -0.8265 0.5602
vn -0.0349 -0.8248 0.5643
vn -0.0108 -0.8300 0.5576
vn -0.0129 -0.8324 0.5540
vn -0.0118 -0.8309 0.5563
vn -0.0494 -0.8421 0.5371
vn -0.0744 -0.8369 0.5423
vn -0.0155 -0.8291 0.5589
vn 0.0266 -0.8117 0.5835
vn -0.0206 -0.8505 0.5256
vn 0.0145 -0.8330 0.5530
vn 0.0145 -0.8300 0.5575
vn 0.0114 -0.8305 0.5569
vn 0.0049 -0.8234 0.5674
vn 0.0221 -0.8274 0.5612
vn 0.8315 -0.0365 -0.5544
vn 0.5633 -0.0542 -0.8245
vn 0.8314 -0.0368 -0.5545
vn 0.9808 -0.0128 -0.1947
vn 0.5881 -0.7312 -0.3457
vn 0.6937 -0.7144 -0.0913
vn 0.9808 -0.0126 -0.1945
vn 0.9808 0.0127 0.1947
vn 0.6937 -0.6963 0.1841
vn 0.9807 0.0128 0.1949
vn 0.8315 0.0364 0.5543
vn 0.5881 -0.6796 0.4385
vn 0.8315 0.0365 0.5544
vn 0.5555 0.0546 0.8297
vn 0.3929 -0.6668 0.6332
vn 0.5856 0.0373 0.8097
vn 0.5557 0.0453 0.8301
vn 0.8314 0.0479 0.5536
vn 0.3931 -0.6668 0.6332
vn 0.1949 0.0758 0.9779
vn 0.1380 -0.6599 0.7386
vn 0.1379 -0.6599 0.7386
vn -0.1047 0.0536 0.9931
vn -0.1949 0.0644 0.9787
vn -0.1379 -0.6599 0.7386
vn -0.5978 0.0526 0.7999
vn -0.5557 0.0452 0.8301
vn -0.3931 -0.6668 0.6331
vn -0.1380 -0.6599 0.7386
vn -0.1950 0.0642 0.9787
vn -0.5543 0.0549 0.8305
vn -0.5556 0.0542 0.8297
vn -0.3929 -0.6668 0.6332
vn -0.8308 0.0372 0.5553
vn -0.8315 0.0365 0.5543
vn -0.5881 -0.6796 0.4385
vn -0.9729 -0.0007 0.2311
vn -0.9807 0.0035 0.1953
vn -0.8314 0.0479 0.5536
vn -0.6937 -0.6963 0.1841
vn -0.9807 -0.0013 -0.1954
vn -0.6937 -0.7144 -0.0913
vn -0.8786 -0.0430 -0.4756
vn -0.8315 -0.0365 -0.5544
vn -0.5881 -0.7312 -0.3458
vn -0.5881 -0.7311 -0.3457
vn -0.3765 -0.7426 -0.5539
vn -0.3972 -0.7368 -0.5471
vn -0.5123 -0.0564 -0.8570
vn -0.5556 -0.0639 -0.8290
vn -0.1524 -0.7477 -0.6463
vn -0.1380 -0.7512 -0.6455
vn -0.1952 -0.0529 -0.9793
vn 0.1048 -0.0770 -0.9915
vn 0.1952 -0.0643 -0.9786
vn 0.1380 -0.7512 -0.6455
vn 0.5977 -0.0526 -0.8000
vn 0.5556 -0.0639 -0.8290
vn 0.1576 -0.7464 -0.6466
vn 0.3990 -0.7337 -0.5501
vn 0.8314 -0.0250 -0.5551
vn 0.3695 -0.7419 -0.5596
vn 0.5881 -0.7311 -0.3457
vn -0.0010 0.9979 -0.0653
vn -0.0004 0.9979 -0.0651
vn 0.9588 -0.0303 -0.2823
vn -0.0018 0.9978 -0.0656
vn -0.0009 0.9978 -0.0658
vn 0.9695 0.0161 0.2447
vn -0.0139 -0.0656 -0.9977
vn -0.0000 0.9978 -0.0662
vn 0.0112 0.9978 -0.0656
vn 0.0058 -0.0752 -0.9972
vn 0.0052 -0.0736 -0.9973
vn -0.0003 0.9978 -0.0660
vn 0.0001 -0.0595 -0.9982
vn 0.0005 -0.0656 -0.9978
vn 0.0115 0.9978 -0.0648
vn -0.0000 0.0266 0.9996
vn 1.0000 -0.0017 -0.0001
vn 0.0698 0.8181 -0.5708
vn 1.0000 -0.0034 0.0012
vn 0.0485 0.7862 -0.6160
vn 0.0307 0.7959 -0.6046
vn -0.0773 0.0503 0.9957
vn -0.1762 0.0675 0.9820
vn 0.0940 0.7997 -0.5930
vn -0.0497 0.0761 0.9959
vn -0.1755 0.0660 0.9823
vn -0.0997 -0.7573 0.6454
vn -0.0369 -0.7844 0.6192
vn -0.0355 -0.7853 0.6181
vn -0.1109 -0.7797 0.6162
vn -0.1229 -0.8030 0.5832
vn -0.1142 -0.7898 0.6027
vn -0.0700 -0.8266 0.5585
vn -0.1392 -0.7503 0.6463
vn -0.2296 0.0475 0.9721
vn -0.1603 0.0720 0.9844
vn -0.1538 0.0611 0.9862
vn -0.2157 0.0747 0.9736
vn -0.0930 -0.8042 0.5870
vn 0.1081 0.8340 -0.5411
vn 0.0752 0.8209 -0.5660
vn -0.2389 0.0643 0.9689
vn 0.1251 0.8140 -0.5673
vn -0.0000 0.0654 0.9979
vn -0.0000 0.0662 0.9978
vn 0.0741 0.8059 -0.5874
vn -0.0000 0.0657 0.9978
vn 0.0256 0.8408 -0.5408
vn 0.0448 0.8336 -0.5505
vn 0.0767 0.8314 -0.5504
vn -0.0000 0.8346 -0.5508
vn 0.0088 0.8338 -0.5521
vn -0.0244 0.8253 -0.5642
vn 0.0081 0.0657 0.9978
vn -0.0855 0.8355 -0.5428
vn -0.0836 0.8335 -0.5462
vn -0.0609 0.8259 -0.5605
vn 0.1197 0.0686 0.9904
vn 0.0528 0.0636 0.9966
vn 0.0533 0.0624 0.9966
vn 0.1217 0.0633 0.9905
vn 0.0653 -0.7969 0.6006
vn 0.0354 -0.8116 0.5832
vn 0.0780 -0.8074 0.5848
vn 0.0533 -0.8218 0.5673
vn 0.0370 -0.8092 0.5864
vn 0.0592 -0.8272 0.5587
vn 0.0540 -0.8191 0.5711
vn 0.0870 -0.8055 0.5862
vn 0.0909 -0.8234 0.5601
vn 0.0983 -0.8150 0.5710
vn 0.0971 -0.8087 0.5802
vn 0.1620 0.0881 0.9829
vn 0.1914 0.0521 0.9801
vn 0.1053 -0.8030 0.5866
vn 0.2020 0.0706 0.9768
vn 0.2204 0.0612 0.9735
vn 0.2028 0.0710 0.9766
vn 0.1200 -0.8012 0.5863
vn 0.2205 0.0610 0.9735
vn 0.1202 -0.8010 0.5865
vn 0.1147 -0.8142 0.5692
vn 0.1279 -0.8256 0.5495
vn 0.1263 -0.8253 0.5504
vn 0.1355 -0.8023 0.5813
vn 0.1358 -0.8034 0.5798
vn 0.2513 0.0656 0.9657
vn 0.2707 0.0663 0.9604
vn 0.2472 0.0567 0.9673
vn 0.2741 0.0614 0.9597
vn 0.2767 0.0511 0.9596
vn 0.1341 -0.8160 0.5623
vn 0.1470 -0.8153 0.5600
vn 0.1515 -0.8914 0.4271
vn 0.1673 -0.8754 0.4535
vn 0.1537 -0.8486 0.5062
vn 0.1866 -0.8872 0.4220
vn 0.1524 -0.8482 0.5072
vn 0.1587 -0.8591 0.4866
vn 0.1852 -0.8627 0.4706
vn 0.1548 -0.8683 0.4714
vn 0.1719 -0.8826 0.4376
vn 0.2018 -0.8761 0.4379
vn 0.1834 -0.8849 0.4283
vn 0.3261 -0.0615 -0.9433
vn 0.3256 -0.0688 -0.9430
vn 0.2292 -0.8799 0.4162
vn 0.3224 -0.0649 -0.9444
vn 0.3176 -0.0612 -0.9463
vn 0.3233 -0.0683 -0.9438
vn 0.2517 -0.8881 0.3847
vn 0.2443 -0.9271 0.2841
vn 0.2089 -0.9044 0.3721
vn 0.2427 -0.9274 0.2846
vn 0.2263 -0.9586 0.1730
vn 0.2000 -0.9293 0.3105
vn 0.2186 -0.9329 0.2862
vn 0.1978 -0.9395 0.2797
vn 0.1028 -0.9328 0.3455
vn 0.3981 -0.0594 -0.9154
vn 0.3817 -0.0656 -0.9220
vn -0.0803 0.9246 -0.3723
vn -0.1278 0.9049 -0.4059
vn 0.3746 -0.0568 -0.9255
vn 0.3979 -0.0602 -0.9155
vn -0.0992 0.9271 -0.3614
vn 0.3628 0.0716 0.9291
vn 0.3742 0.0608 0.9253
vn -0.0792 0.9073 -0.4129
vn -0.1715 0.8828 -0.4374
vn 0.3530 -0.0624 -0.9335
vn -0.1065 0.8897 -0.4440
vn 0.3280 -0.0548 -0.9431
vn -0.2006 0.8566 -0.4754
vn 0.3537 -0.0601 -0.9334
vn 0.3234 -0.0771 -0.9431
vn -0.2048 0.8453 -0.4934
vn -0.1056 0.8695 -0.4825
vn 0.2464 0.0600 0.9673
vn -0.1127 0.8585 -0.5003
vn 0.2457 0.0617 0.9674
vn -0.1942 0.8355 -0.5140
vn -0.1076 0.8511 -0.5138
vn 0.2360 0.0701 0.9692
vn -0.1653 0.8355 -0.5240
vn -0.1284 0.8411 -0.5254
vn 0.2825 -0.0477 -0.9581
vn -0.1682 0.8254 -0.5388
vn -0.1084 0.8414 -0.5294
vn -0.0975 0.8387 -0.5357
vn 0.2586 -0.0690 -0.9635
vn -0.1942 0.8133 -0.5484
vn 0.2469 -0.0599 -0.9672
vn 0.2581 -0.0727 -0.9634
vn -0.0990 0.8316 -0.5465
vn -0.1925 0.8085 -0.5561
vn -0.0905 0.8278 -0.5537
vn -0.1532 0.8156 -0.5580
vn 0.2542 -0.0648 -0.9650
vn 0.2256 -0.0627 -0.9722
vn 0.2223 -0.0564 -0.9733
vn -0.0800 0.7862 -0.6127
vn -0.0652 0.8071 -0.5869
vn 0.2538 -0.0737 -0.9644
vn 0.0821 -0.7986 0.5962
vn 0.0800 -0.8090 0.5824
vn 0.1072 -0.7949 0.5972
vn 0.1395 -0.8107 0.5685
vn 0.0999 -0.8300 0.5488
vn 0.1617 -0.8364 0.5238
vn 0.0978 -0.8309 0.5478
vn 0.1382 -0.8127 0.5661
vn 0.1398 -0.8646 0.4826
vn 0.1197 -0.8419 0.5262
vn 0.0961 -0.8354 0.5412
vn 0.0629 -0.8231 0.5644
vn 0.0476 -0.8234 0.5654
vn 0.0247 -0.8410 0.5404
vn 0.0392 -0.8089 0.5867
vn 0.0420 -0.8305 0.5554
vn 0.0221 -0.8269 0.5618
vn 0.0177 -0.8278 0.5607
vn 0.0538 -0.7875 0.6140
vn 0.0094 -0.8107 0.5853
vn -0.0187 0.8125 -0.5826
vn 0.2370 -0.0608 -0.9696
vn -0.0195 0.8126 -0.5826
vn 0.0204 0.8212 -0.5702
vn 0.2086 -0.0644 -0.9759
vn 0.2362 -0.0664 -0.9694
vn 0.2091 -0.0651 -0.9757
vn 0.2306 -0.0621 -0.9711
vn -0.0775 -0.8089 0.5828
vn -0.0329 -0.7938 0.6073
vn 0.2274 -0.0710 -0.9712
vn -0.0984 -0.8261 0.5548
vn -0.1174 -0.8461 0.5200
vn -0.0773 -0.8375 0.5410
vn -0.1222 -0.8263 0.5497
vn -0.1496 -0.8398 0.5219
vn -0.1321 -0.8467 0.5154
vn -0.1467 -0.8399 0.5226
vn -0.1445 -0.8525 0.5024
vn -0.1196 -0.8523 0.5091
vn -0.0905 -0.8587 0.5044
vn -0.1080 -0.8591 0.5003
vn -0.0941 -0.8698 0.4843
vn -0.1783 -0.8595 0.4790
vn -0.1472 -0.8740 0.4631
vn -0.1492 -0.9068 0.3942
vn -0.2255 -0.8880 0.4007
vn -0.2032 -0.8853 0.4184
vn -0.1765 -0.8698 0.4608
vn -0.2457 -0.8743 0.4187
vn -0.2019 -0.8575 0.4732
vn 0.2284 -0.0640 -0.9715
vn 0.2356 -0.0617 -0.9699
vn 0.2274 -0.0652 -0.9716
vn -0.2027 -0.8574 0.4730
vn 0.2272 -0.0639 -0.9718
vn 0.2602 0.8361 -0.4829
vn 0.1263 0.8660 -0.4839
vn 0.2454 0.8981 -0.3649
vn 0.2205 -0.0407 -0.9745
vn 0.1431 -0.0737 -0.9870
vn -0.1949 -0.9101 0.3657
vn -0.2435 -0.9133 0.3265
vn 0.5621 -0.0532 -0.8254
vn 0.1302 -0.0607 -0.9896
vn 0.1356 -0.0637 -0.9887
vn 0.5621 -0.0532 -0.8253
vn -0.1117 -0.9456 0.3056
vn -0.0216 -0.9425 0.3336
vn -0.0531 -0.9215 0.3848
vn -0.1446 -0.9070 0.3956
vn -0.0777 -0.9249 0.3722
vn -0.0915 -0.9015 0.4230
vn 0.0483 -0.8793 0.4737
vn 0.0024 -0.9324 0.3613
vn -1.0000 0.0004 -0.0001
vn -1.0000 -0.0011 -0.0028
vn -1.0000 0.0003 -0.0002
vn 0.5633 -0.0543 -0.8245
vn 0.5671 -0.0535 -0.8219
vn -0.0019 0.9978 -0.0656
vn -1.0000 0.0006 -0.0001
vn 0.0001 0.9978 -0.0657
vn -1.0000 0.0011 -0.0006
vn -0.0358 -0.8678 0.4956
vn -0.0865 -0.8756 0.4753
vn -0.0492 -0.8626 0.5034
vn -1.0000 0.0016 -0.0012
vn -0.0386 -0.8258 0.5626
vn -0.0380 -0.8263 0.5620
vn 1.0000 0.0001 -0.0008
vn 1.0000 0.0007 -0.0000
vn 1.0000 -0.0012 -0.0002
vn 1.0000 0.0012 0.0001
vn 1.0000 0.0005 -0.0002
vn 1.0000 0.0019 0.0026
vn 0.0684 0.9279 -0.3665
vn 0.1794 0.9277 -0.3274
vn -0.1322 0.8666 -0.4812
vn 0.0088 -0.0453 -0.9989
vn 0.1197 0.8723 -0.4740
vn 0.0261 0.8884 -0.4583
vn 0.1804 0.9105 -0.3720
vn -0.0357 0.0654 0.9972
vn -1.0000 0.0001 0.0013
vn -0.0834 -0.8763 0.4745
vn 0.2265 0.8345 -0.5024
vn 0.2318 -0.0692 -0.9703
vn 0.1166 0.8559 -0.5038
vn 0.2049 0.8290 -0.5204
vn 0.1209 0.8451 -0.5208
vn 0.2385 -0.0619 -0.9692
vn 0.1466 0.8357 -0.5292
vn 0.2110 -0.0629 -0.9755
vn 0.2106 -0.0640 -0.9755
vn -0.0909 -0.8329 0.5459
vn -0.1137 -0.8237 0.5555
vn -0.1015 -0.8458 0.5237
vn -0.0858 -0.8380 0.5388
vn -0.1031 -0.8238 0.5575
vn 0.1003 0.8150 -0.5708
vn 0.0781 0.8222 -0.5638
vn -0.0486 -0.8117 0.5820
vn -0.0348 -0.8309 0.5553
vn 0.0163 -0.8026 0.5963
vn 0.4001 -0.0602 -0.9145
vn 0.9923 0.0081 0.1236
vn 0.4001 -0.0601 -0.9145
vn 0.6592 0.6513 -0.3759
vn -0.0000 0.9978 -0.0656
vn 0.1994 -0.8294 0.5218
vn 0.1671 0.0647 0.9838
vn 0.0003 0.9979 -0.0651
vn 0.0006 0.9979 -0.0653
vn -0.0000 0.9979 -0.0648
vn 0.0017 0.9978 -0.0660
vn 0.0015 0.9978 -0.0659
vn -0.0902 0.0609 0.9941
vn -0.0961 -0.8012 0.5906
vn 0.0001 0.9978 -0.0661
vn 0.0003 0.9978 -0.0661
vn -0.0001 0.9979 -0.0648
vn -0.5617 -0.0549 -0.8255
vn 0.0167 -0.8121 0.5832
vn 0.0277 -0.8889 0.4572
vn -0.8315 -0.0365 -0.5543
vn 0.0279 -0.8248 0.5647
vn -0.8314 -0.0367 -0.5544
vn -0.9808 -0.0128 -0.1947
vn 0.0496 -0.8320 0.5526
vn -0.9808 0.0127 0.1946
vn 0.0287 -0.8287 0.5589
vn -0.9808 0.0128 0.1947
vn -0.1942 0.0645 0.9788
vn 0.0149 -0.8276 0.5611
vn 0.1955 0.0642 0.9786
vn 0.0190 -0.8419 0.5393
vn 0.0165 -0.8276 0.5610
vn 0.0106 -0.8336 0.5523
vn -0.0328 -0.8365 0.5470
vn 0.0121 -0.8281 0.5604
vn 0.1951 0.0644 0.9787
vn 0.9807 0.0035 0.1953
vn 0.0121 -0.8128 0.5824
s 0
usemtl Material.027
f 5//1 1//1 2//1
f 3//2 2//2 1//2
f 1//3 6//3 3//3
f 4//4 1//4 7//4
f 6//5 1//5 4//5
f 5//6 7//6 1//6
f 7//7 5//7 8//7
f 9//8 7//8 8//8
f 9//9 4//9 7//9
f 10//10 9//10 11//10
f 14//11 9//11 10//11
f 11//12 9//12 12//12
f 13//13 12//13 9//13
f 9//14 8//14 13//14
f 4//15 9//15 14//15
f 14//16 15//16 16//16
f 19//17 15//17 14//17
f 18//18 14//18 16//18
f 14//19 10//19 17//19
f 17//20 20//20 14//20
f 14//21 18//21 4//21
f 19//22 14//22 20//22
f 22//23 21//23 20//23
f 19//24 20//24 21//24
f 20//25 17//25 22//25
f 25//26 22//26 17//26
f 21//27 22//27 24//27
f 23//28 24//28 22//28
f 22//28 25//28 23//28
f 17//29 10//29 25//29
f 26//30 25//30 10//30
f 23//31 25//31 26//31
f 10//32 11//32 26//32
f 28//33 26//33 11//33
f 27//34 26//34 28//34
f 26//31 27//31 23//31
f 11//35 29//35 28//35
f 30//36 28//36 29//36
f 31//37 28//37 30//37
f 28//34 31//34 27//34
f 32//38 33//38 31//38
f 31//39 34//39 32//39
f 27//40 31//40 33//40
f 30//41 34//41 31//41
f 34//42 36//42 32//42
f 34//43 30//43 35//43
f 35//44 36//44 34//44
f 37//45 32//45 36//45
f 36//46 38//46 37//46
f 38//47 36//47 35//47
f 39//48 37//48 38//48
f 38//49 40//49 39//49
f 40//50 38//50 41//50
f 35//51 41//51 38//51
f 42//52 41//52 35//52
f 41//53 42//53 43//53
f 43//54 44//54 41//54
f 41//55 44//55 40//55
f 44//56 43//56 45//56
f 45//57 46//57 44//57
f 47//58 40//58 44//58
f 44//58 46//58 47//58
f 48//59 39//59 47//59
f 47//60 49//60 48//60
f 40//61 47//61 39//61
f 49//62 47//62 46//62
f 49//63 52//63 48//63
f 46//62 50//62 49//62
f 49//64 50//64 51//64
f 51//64 52//64 49//64
f 53//65 48//65 52//65
f 52//66 55//66 53//66
f 52//67 51//67 54//67
f 54//68 55//68 52//68
f 55//69 54//69 56//69
f 56//70 58//70 55//70
f 57//71 53//71 55//71
f 55//72 58//72 57//72
f 58//73 56//73 15//73
f 15//74 59//74 58//74
f 58//75 59//75 57//75
f 60//76 57//76 59//76
f 59//77 61//77 60//77
f 61//78 59//78 15//78
f 62//79 60//79 61//79
f 61//80 63//80 62//80
f 15//81 19//81 61//81
f 63//82 61//82 19//82
f 63//83 24//83 62//83
f 19//84 21//84 63//84
f 24//85 63//85 21//85
f 62//86 65//86 64//86
f 60//87 62//87 64//87
f 65//88 62//88 24//88
f 64//89 65//89 66//89
f 33//90 66//90 65//90
f 33//91 65//91 23//91
f 24//26 23//26 65//26
f 66//92 67//92 73//92
f 67//93 66//93 32//93
f 66//94 74//94 64//94
f 66//95 70//95 68//95
f 66//96 68//96 69//96
f 32//97 66//97 33//97
f 66//98 69//98 71//98
f 66//99 72//99 70//99
f 74//100 66//100 71//100
f 73//92 72//92 66//92
f 74//101 75//101 64//101
f 71//102 76//102 74//102
f 77//103 75//103 74//103
f 77//104 74//104 76//104
f 77//105 76//105 78//105
f 78//106 75//106 77//106
f 80//107 78//107 76//107
f 80//108 79//108 78//108
f 79//109 75//109 78//109
f 83//110 80//110 76//110
f 80//111 81//111 79//111
f 81//112 80//112 85//112
f 84//113 80//113 82//113
f 83//114 82//114 80//114
f 85//115 80//115 84//115
f 86//116 85//116 87//116
f 85//117 86//117 88//117
f 84//118 87//118 85//118
f 88//119 81//119 85//119
f 81//120 88//120 91//120
f 5//121 89//121 88//121
f 88//122 89//122 90//122
f 88//123 90//123 91//123
f 5//124 88//124 86//124
f 90//125 92//125 91//125
f 92//126 93//126 91//126
f 91//127 79//127 81//127
f 79//128 91//128 93//128
f 64//129 93//129 92//129
f 64//130 75//130 93//130
f 75//131 79//131 93//131
f 64//132 92//132 94//132
f 94//133 92//133 2//133
f 2//134 92//134 89//134
f 89//135 92//135 90//135
f 95//132 64//132 94//132
f 94//132 96//132 95//132
f 3//136 94//136 2//136
f 94//137 3//137 96//137
f 96//138 3//138 100//138
f 95//139 96//139 97//139
f 98//140 97//140 96//140
f 98//141 96//141 99//141
f 99//142 96//142 100//142
f 101//143 99//143 100//143
f 100//144 3//144 6//144
f 6//145 101//145 100//145
f 101//146 102//146 99//146
f 102//147 101//147 103//147
f 103//148 101//148 6//148
f 104//149 102//149 103//149
f 104//150 103//150 18//150
f 6//151 18//151 103//151
f 16//152 105//152 104//152
f 18//153 16//153 104//153
f 102//154 104//154 108//154
f 105//155 107//155 104//155
f 104//156 107//156 106//156
f 104//157 106//157 108//157
f 102//158 108//158 98//158
f 108//159 109//159 98//159
f 106//160 109//160 108//160
f 109//161 112//161 98//161
f 111//162 110//162 109//162
f 109//163 110//163 112//163
f 106//164 114//164 109//164
f 109//165 113//165 111//165
f 114//166 113//166 109//166
f 107//167 114//167 106//167
f 114//168 107//168 115//168
f 115//169 116//169 114//169
f 114//170 116//170 117//170
f 117//171 113//171 114//171
f 117//172 118//172 119//172
f 120//173 118//173 117//173
f 113//174 117//174 119//174
f 117//175 121//175 120//175
f 117//176 122//176 121//176
f 122//177 117//177 123//177
f 116//178 123//178 117//178
f 124//179 122//179 123//179
f 125//180 124//180 123//180
f 116//181 126//181 123//181
f 125//182 123//182 126//182
f 116//183 115//183 126//183
f 126//184 115//184 127//184
f 127//185 125//185 126//185
f 128//186 127//186 115//186
f 127//187 128//187 129//187
f 127//188 130//188 125//188
f 127//189 129//189 130//189
f 130//190 131//190 132//190
f 130//191 129//191 131//191
f 130//192 136//192 125//192
f 130//193 132//193 133//193
f 130//194 133//194 134//194
f 135//195 130//195 134//195
f 136//196 130//196 135//196
f 137//197 136//197 135//197
f 136//198 137//198 125//198
f 135//199 138//199 137//199
f 139//200 137//200 138//200
f 137//201 139//201 124//201
f 137//202 124//202 125//202
f 122//203 124//203 139//203
f 139//204 140//204 122//204
f 140//205 139//205 141//205
f 139//206 138//206 141//206
f 120//207 121//207 141//207
f 120//208 141//208 142//208
f 142//209 141//209 138//209
f 140//210 141//210 143//210
f 121//211 143//211 141//211
f 122//212 143//212 121//212
f 143//213 122//213 140//213
f 118//214 120//214 142//214
f 118//215 142//215 144//215
f 144//216 142//216 138//216
f 119//217 118//217 144//217
f 135//218 145//218 144//218
f 119//219 144//219 145//219
f 138//220 135//220 144//220
f 135//221 134//221 145//221
f 145//222 134//222 146//222
f 146//223 119//223 145//223
f 119//224 146//224 113//224
f 147//225 146//225 134//225
f 113//226 146//226 147//226
f 147//227 134//227 133//227
f 111//228 147//228 133//228
f 113//229 147//229 111//229
f 111//230 133//230 132//230
f 111//231 132//231 131//231
f 148//232 131//232 129//232
f 110//233 131//233 148//233
f 110//234 111//234 131//234
f 112//235 110//235 148//235
f 129//236 149//236 148//236
f 112//237 148//237 149//237
f 151//238 149//238 150//238
f 129//239 150//239 149//239
f 98//240 112//240 149//240
f 98//241 149//241 151//241
f 152//242 98//242 151//242
f 153//243 152//243 151//243
f 150//244 153//244 151//244
f 154//245 155//245 153//245
f 156//246 154//246 153//246
f 155//247 73//247 153//247
f 73//248 152//248 153//248
f 150//249 156//249 153//249
f 156//250 157//250 154//250
f 157//251 156//251 158//251
f 158//252 156//252 159//252
f 159//253 156//253 150//253
f 160//254 105//254 159//254
f 159//255 128//255 160//255
f 105//256 158//256 159//256
f 128//257 159//257 150//257
f 128//258 115//258 160//258
f 115//259 107//259 160//259
f 107//260 105//260 160//260
f 158//261 105//261 16//261
f 161//262 158//262 43//262
f 158//263 45//263 43//263
f 158//264 161//264 157//264
f 45//265 158//265 16//265
f 43//266 42//266 161//266
f 161//267 42//267 12//267
f 157//268 161//268 154//268
f 161//269 12//269 154//269
f 162//270 73//270 155//270
f 154//271 162//271 155//271
f 162//272 72//272 73//272
f 163//273 72//273 162//273
f 165//274 163//274 162//274
f 154//275 164//275 162//275
f 164//276 165//276 162//276
f 165//277 167//277 163//277
f 166//278 169//278 165//278
f 165//279 164//279 166//279
f 165//280 168//280 167//280
f 165//281 169//281 168//281
f 171//282 169//282 170//282
f 170//283 169//283 166//283
f 169//284 171//284 168//284
f 168//285 171//285 172//285
f 174//286 171//286 170//286
f 173//287 172//287 171//287
f 173//288 171//288 174//288
f 175//289 174//289 170//289
f 175//290 87//290 174//290
f 176//291 174//291 87//291
f 174//292 176//292 177//292
f 174//293 177//293 173//293
f 177//294 176//294 178//294
f 180//295 177//295 178//295
f 177//296 180//296 179//296
f 181//297 177//297 179//297
f 173//298 177//298 181//298
f 179//299 182//299 181//299
f 181//300 182//300 173//300
f 184//301 182//301 179//301
f 182//302 183//302 172//302
f 182//303 184//303 183//303
f 182//304 172//304 173//304
f 187//305 184//305 179//305
f 183//306 184//306 69//306
f 185//307 69//307 184//307
f 184//308 186//308 185//308
f 187//309 186//309 184//309
f 186//310 187//310 188//310
f 188//311 187//311 180//311
f 179//312 180//312 187//312
f 191//313 189//313 188//313
f 188//314 189//314 190//314
f 188//315 190//315 186//315
f 188//316 192//316 191//316
f 193//317 188//317 180//317
f 193//318 192//318 188//318
f 193//319 178//319 194//319
f 193//320 180//320 178//320
f 192//321 193//321 194//321
f 195//322 194//322 178//322
f 194//323 195//323 196//323
f 196//324 192//324 194//324
f 195//325 197//325 196//325
f 196//326 197//326 192//326
f 200//327 197//327 195//327
f 191//328 192//328 197//328
f 197//329 199//329 191//329
f 198//330 76//330 197//330
f 200//331 198//331 197//331
f 197//332 76//332 199//332
f 201//333 198//333 200//333
f 87//334 200//334 176//334
f 176//335 200//335 195//335
f 200//336 87//336 201//336
f 82//337 198//337 201//337
f 82//338 201//338 84//338
f 84//339 201//339 87//339
f 204//340 199//340 202//340
f 185//341 202//341 199//341
f 199//342 76//342 71//342
f 199//343 71//343 203//343
f 203//344 185//344 199//344
f 199//345 204//345 191//345
f 189//346 191//346 204//346
f 190//347 189//347 204//347
f 204//348 202//348 190//348
f 69//349 203//349 71//349
f 203//350 69//350 185//350
f 202//351 185//351 186//351
f 186//352 190//352 202//352
f 76//353 198//353 83//353
f 83//354 198//354 82//354
f 195//355 178//355 176//355
f 205//356 183//356 68//356
f 172//357 183//357 205//357
f 68//358 183//358 69//358
f 206//359 205//359 70//359
f 70//360 205//360 68//360
f 172//361 205//361 206//361
f 206//362 70//362 167//362
f 168//363 206//363 167//363
f 172//364 206//364 168//364
f 175//365 86//365 87//365
f 86//366 175//366 170//366
f 13//367 170//367 166//367
f 8//368 170//368 13//368
f 170//369 8//369 86//369
f 167//370 72//370 163//370
f 72//371 167//371 70//371
f 12//372 166//372 164//372
f 166//373 12//373 13//373
f 164//374 154//374 12//374
f 152//375 67//375 207//375
f 97//376 152//376 207//376
f 67//377 152//377 73//377
f 98//378 152//378 97//378
f 95//379 97//379 207//379
f 207//379 67//379 95//379
f 150//380 129//380 128//380
f 102//381 98//381 99//381
f 53//382 57//382 95//382
f 48//383 53//383 95//383
f 57//384 64//384 95//384
f 95//385 39//385 48//385
f 67//386 39//386 95//386
f 2//387 89//387 5//387
f 5//388 86//388 8//388
f 67//389 32//389 37//389
f 67//390 37//390 39//390
f 57//391 60//391 64//391
f 54//392 208//392 56//392
f 16//393 56//393 208//393
f 56//394 16//394 15//394
f 51//395 209//395 208//395
f 16//396 208//396 209//396
f 208//397 54//397 51//397
f 50//398 210//398 209//398
f 209//398 51//398 50//398
f 16//399 209//399 210//399
f 46//400 45//400 210//400
f 16//401 210//401 45//401
f 210//402 50//402 46//402
f 35//403 211//403 42//403
f 12//404 42//404 211//404
f 212//405 211//405 35//405
f 212//406 213//406 211//406
f 211//407 213//407 12//407
f 212//408 29//408 213//408
f 11//409 213//409 29//409
f 213//410 11//410 12//410
f 29//36 212//36 30//36
f 35//411 30//411 212//411
f 23//412 27//412 33//412
f 18//413 6//413 4//413
