# Blender 5.0.1
# www.blender.org
mtllib torso_y_link_visual_15.mtl
o i01.torso.full.017_visual.001
v 0.244847 0.109878 0.233433
v 0.316664 0.109143 0.226712
v 0.178592 0.109936 0.235040
v 0.264305 0.080196 0.193275
v 0.237350 0.136449 0.232235
v 0.178316 0.065775 0.125150
v 0.156117 0.136668 0.232561
v 0.316441 0.069804 0.124884
v 0.312271 0.136003 0.225466
v 0.355874 0.109024 0.220332
v 0.349732 0.135607 0.219648
v 0.404982 0.134861 0.207464
v 0.452013 0.134046 0.195925
v 0.414825 0.078432 0.124320
v 0.451816 0.107363 0.197747
v 0.452121 0.092468 0.180383
v 0.506410 0.106960 0.188072
v 0.504248 0.097312 0.178210
v 0.552593 0.068307 0.135547
v 0.500498 0.068634 0.139141
v 0.552545 0.106478 0.185705
v 0.552537 0.133251 0.183961
v 0.532008 0.133337 0.184693
v 0.532047 0.112202 0.157715
v 0.501821 0.133310 0.187037
v 0.532086 0.088540 0.123798
v 0.532122 0.106619 -0.221041
v 0.532110 0.079995 -0.007717
v 0.552500 0.105699 -0.235041
v 0.552583 -0.081855 -0.133311
v 0.552586 0.018345 0.051486
v 0.552306 -0.115587 -0.220351
v 0.531786 -0.084266 -0.208385
v 0.552579 -0.067232 -0.106203
v 0.504367 -0.078978 -0.121252
v 0.538120 -0.083737 -0.138271
v 0.510350 -0.057790 -0.080107
v 0.518835 0.009583 0.038829
v 0.478610 -0.010290 0.012197
v 0.476363 -0.078084 -0.108877
v 0.365152 -0.093819 -0.095837
v 0.420703 -0.121847 -0.174304
v 0.419626 -0.101720 -0.131763
v 0.488101 -0.100242 -0.164255
v 0.470382 -0.112964 -0.186502
v 0.511117 -0.106793 -0.192862
v 0.516675 -0.100561 -0.175592
v 0.498069 -0.082167 -0.192666
v 0.481954 -0.084399 -0.190312
v 0.510971 -0.080307 -0.194470
v 0.532030 -0.055117 -0.134626
v 0.532012 -0.042312 -0.111570
v 0.532023 -0.025413 -0.078809
v 0.532032 0.014826 -0.004759
v 0.397117 -0.002611 -0.002783
v 0.416735 -0.096024 -0.175074
v 0.375444 -0.129242 -0.163177
v 0.386711 -0.101108 -0.167704
v 0.310185 -0.135595 -0.147133
v 0.370338 -0.006030 -0.002392
v 0.352905 -0.105244 -0.159333
v 0.335669 -0.010650 -0.001841
v 0.323804 -0.107837 -0.152011
v 0.247348 -0.110587 -0.135287
v 0.184989 -0.107949 -0.120605
v 0.178316 -0.024903 -0.000819
v 0.229402 -0.136668 -0.129559
v 0.185184 -0.134422 -0.118880
v 0.268628 -0.094076 -0.073730
v 0.216598 -0.110403 -0.090289
v 0.160354 -0.074306 -0.033518
v 0.158698 -0.109606 -0.084397
v 0.110966 -0.074669 -0.035077
v 0.128375 -0.127761 -0.107160
v 0.128173 -0.101222 -0.108946
v 0.044553 -0.111262 -0.087888
v -0.047554 -0.060076 -0.069839
v -0.030761 -0.091763 -0.071838
v 0.050748 -0.086525 -0.090940
v 0.015828 -0.056925 -0.017080
v -0.007162 -0.022719 0.031059
v 0.113566 -0.009297 0.061613
v 0.060819 -0.002461 0.068501
v 0.121018 -0.016380 0.050936
v -0.081407 -0.056689 -0.034252
v -0.099698 0.011443 0.066689
v -0.117803 -0.022956 0.008735
v -0.118954 -0.061910 -0.050911
v -0.159728 -0.025301 -0.008311
v -0.216409 -0.023859 -0.027676
v -0.271212 0.016098 0.031385
v -0.210056 0.013600 0.046855
v -0.292583 0.037538 0.062287
v -0.169463 0.018426 0.063972
v -0.193194 0.069908 0.133600
v -0.327381 0.063878 0.095429
v -0.425328 0.080433 0.093827
v -0.283049 0.105140 0.162625
v -0.150510 0.107144 0.192518
v -0.435372 0.102790 0.123802
v -0.378115 0.130108 0.136866
v -0.267659 0.132106 0.164421
v -0.304206 0.131388 0.155576
v -0.348926 0.130667 0.144263
v -0.350074 0.054129 0.012657
v -0.378234 0.066020 0.021341
v -0.421069 0.057357 0.036740
v -0.426834 0.086133 0.037074
v -0.464284 0.073375 0.052087
v -0.459201 0.098089 0.048514
v -0.431064 0.129585 0.123121
v -0.467055 0.128154 0.113076
v -0.525198 0.126558 0.096575
v -0.506186 0.112848 0.066625
v -0.552592 0.098837 0.087714
v -0.513568 0.088496 0.071415
v -0.552593 0.125355 0.085972
v -0.531610 0.099658 0.096150
v -0.453082 0.077856 0.078537
v -0.426939 0.065928 0.059669
v -0.347640 0.046592 0.057191
v -0.375762 0.047588 0.043826
v -0.294561 0.004398 -0.002757
v -0.277683 0.024743 -0.009920
v -0.320745 0.041751 0.003615
v -0.230987 0.008198 -0.024972
v -0.164339 0.133460 0.187732
v -0.199777 -0.003785 -0.033578
v -0.133714 0.133939 0.194057
v -0.167473 -0.016721 -0.041324
v -0.141669 -0.026959 -0.047276
v -0.105408 0.134394 0.199877
v 0.014424 0.108981 0.221905
v -0.073819 0.107992 0.207448
v -0.113945 0.065459 0.095423
v 0.015481 0.135666 0.220329
v -0.110453 0.084457 0.122211
v 0.098868 0.064968 0.125203
v 0.086927 0.136231 0.228923
v 0.098868 0.084569 0.123913
v 0.132534 0.081483 0.076461
v 0.141672 0.081917 0.083048
v -0.113945 0.082621 0.094294
v 0.121409 0.075879 -0.008239
v 0.130739 0.080753 0.065359
v 0.178316 0.084569 0.123913
v 0.487248 0.084786 0.123900
v 0.159559 0.080976 0.068748
v 0.178316 0.075931 -0.007450
v 0.150614 0.081855 0.082108
v 0.157008 0.081542 0.077351
v 0.150614 0.038023 0.084990
v 0.155315 0.037816 0.081855
v 0.158456 0.037508 0.077164
v 0.169178 0.019527 0.096950
v 0.176569 0.018801 0.085913
v 0.159559 0.037144 0.071631
v 0.179164 0.017945 0.072893
v 0.176569 0.017089 0.059874
v 0.158456 0.036780 0.066098
v 0.157603 0.080469 0.061035
v 0.148470 0.080036 0.054450
v 0.155315 0.036472 0.061408
v 0.150614 0.036266 0.058272
v 0.158116 0.015878 0.041460
v 0.169178 0.016363 0.048835
v 0.176569 -0.010244 0.061669
v 0.169178 -0.017471 0.051060
v 0.158116 -0.022039 0.043954
v 0.167289 -0.024863 0.039868
v 0.145093 -0.023356 0.041439
v 0.145069 0.015708 0.038871
v 0.132063 -0.021453 0.043900
v 0.132021 0.015878 0.041460
v 0.120960 0.016363 0.048835
v 0.134823 0.036472 0.061408
v 0.139524 0.036266 0.058272
v 0.145069 0.036194 0.057173
v 0.137341 0.080154 0.056239
v 0.131682 0.036780 0.066098
v 0.130579 0.037144 0.071631
v 0.113568 0.017089 0.059874
v 0.110973 0.017945 0.072893
v 0.110973 -0.000771 0.074124
v 0.113568 0.007402 0.086662
v 0.120962 0.014429 0.097290
v 0.113568 0.018801 0.085913
v 0.120960 0.019527 0.096950
v 0.131682 0.037508 0.077164
v 0.134823 0.037816 0.081855
v 0.139524 0.038023 0.084990
v 0.132356 0.019517 0.104705
v 0.145069 0.020182 0.106915
v 0.104751 0.029430 0.118560
v -0.009437 0.055272 0.144750
v 0.083994 0.109141 0.230437
v 0.182446 0.075053 0.188071
v 0.157416 0.019204 0.105021
v 0.169178 0.013873 0.097322
v 0.221891 0.031739 0.124429
v 0.179164 -0.001803 0.074176
v 0.224426 -0.022089 0.042822
v 0.176567 0.006663 0.086720
v 0.311797 0.060899 0.161380
v 0.407977 0.079085 0.171295
v 0.403657 0.041327 0.116244
v 0.284564 -0.027676 0.027887
v 0.492747 0.051105 0.113417
v 0.145069 0.038095 0.086091
v 0.121409 -0.024142 -0.001662
vn 0.0937 0.0712 0.9931
vn 0.0489 -0.7917 0.6089
vn 0.0243 0.0519 0.9984
vn 0.0138 -0.8009 0.5987
vn 0.0902 0.0609 0.9941
vn 0.0043 0.0959 0.9954
vn -0.0000 0.8346 -0.5508
vn -0.0256 0.8408 -0.5408
vn -0.0448 0.8336 -0.5505
vn 0.1604 0.0719 0.9844
vn 0.1538 0.0609 0.9862
vn -0.0767 0.8314 -0.5504
vn 0.2157 0.0749 0.9736
vn -0.1081 0.8340 -0.5411
vn 0.2388 0.0644 0.9689
vn -0.1251 0.8140 -0.5673
vn -0.0752 0.8209 -0.5661
vn 0.2297 0.0476 0.9721
vn 0.0972 -0.7546 0.6490
vn 0.1391 -0.7504 0.6462
vn 0.1746 0.0658 0.9824
vn 0.1154 -0.7226 0.6816
vn 0.0569 -0.7945 0.6046
vn 0.0356 -0.8072 0.5891
vn 0.0992 -0.8067 0.5826
vn 0.0282 -0.7176 0.6959
vn 1.0000 0.0003 0.0007
vn 0.0359 0.0650 0.9972
vn 0.0519 0.0772 0.9957
vn -1.0000 -0.0034 0.0012
vn -0.0485 0.7862 -0.6160
vn 0.0772 0.0526 0.9956
vn -1.0000 -0.0017 -0.0001
vn -0.0001 0.9978 -0.0657
vn -1.0000 -0.0012 -0.0002
vn 0.0019 0.9978 -0.0656
vn 1.0000 0.0004 -0.0001
vn 1.0000 -0.0011 -0.0028
vn 1.0000 0.0003 -0.0002
vn 1.0000 0.0006 -0.0001
vn -0.5635 -0.0542 -0.8243
vn -0.5671 -0.0535 -0.8219
vn 0.0774 -0.8909 0.4475
vn 0.0870 -0.9012 0.4246
vn -0.0482 -0.8791 0.4742
vn 0.0978 -0.8747 0.4747
vn 0.0422 -0.8706 0.4902
vn 0.1084 -0.8683 0.4841
vn 0.1086 -0.8682 0.4841
vn 0.1630 -0.8866 0.4329
vn 0.1451 -0.9076 0.3939
vn 0.1778 -0.8600 0.4783
vn 0.1770 -0.8702 0.4598
vn 0.2244 -0.8874 0.4026
vn 0.1976 -0.8842 0.4233
vn 0.1949 -0.9103 0.3653
vn 0.2437 -0.9127 0.3279
vn 0.1460 -0.9076 0.3936
vn 0.1107 -0.9457 0.3056
vn 0.0618 -0.9227 0.3805
vn 0.0777 -0.9249 0.3723
vn 0.0212 -0.9426 0.3333
vn -0.1355 -0.0640 -0.9887
vn -0.1296 -0.0608 -0.9897
vn -0.1429 -0.0738 -0.9870
vn -0.5619 -0.0532 -0.8255
vn -0.5621 -0.0530 -0.8253
vn -0.1795 0.9277 -0.3273
vn -0.0685 0.9279 -0.3665
vn 0.1321 0.8666 -0.4812
vn -1.0000 0.0001 -0.0008
vn -1.0000 0.0019 0.0026
vn -0.1804 0.9105 -0.3720
vn -0.0261 0.8884 -0.4583
vn -1.0000 0.0007 -0.0000
vn -1.0000 0.0005 -0.0002
vn -0.1197 0.8723 -0.4740
vn -0.1263 0.8660 -0.4839
vn -0.2454 0.8981 -0.3649
vn -0.2284 -0.0640 -0.9715
vn -0.2275 -0.0652 -0.9716
vn -0.2272 -0.0639 -0.9718
vn -0.2205 -0.0407 -0.9745
vn -0.2601 0.8361 -0.4829
vn -0.2325 -0.0631 -0.9706
vn -0.2326 -0.0627 -0.9705
vn -0.2265 0.8345 -0.5024
vn -0.1166 0.8559 -0.5038
vn -0.2392 -0.0530 -0.9695
vn -0.2048 0.8290 -0.5203
vn -0.1209 0.8451 -0.5208
vn -0.2109 -0.0679 -0.9752
vn -0.1458 0.8358 -0.5294
vn -0.2112 -0.0688 -0.9750
vn -0.2310 -0.0544 -0.9714
vn -0.0999 0.8151 -0.5707
vn -0.0781 0.8221 -0.5640
vn -0.2374 -0.0649 -0.9693
vn 0.0976 -0.8122 0.5751
vn 0.1291 -0.8300 0.5426
vn 0.0747 -0.8175 0.5711
vn 0.0465 -0.8214 0.5684
vn 0.0686 -0.8097 0.5828
vn 0.0511 -0.7916 0.6089
vn 0.0311 -0.8012 0.5976
vn -0.0120 -0.8214 0.5703
vn 0.0297 -0.8004 0.5988
vn -0.2082 -0.0673 -0.9758
vn -0.2361 -0.0670 -0.9694
vn -0.0235 -0.8076 0.5892
vn -0.2090 -0.0651 -0.9758
vn -0.2257 -0.0634 -0.9721
vn -0.2220 -0.0562 -0.9734
vn -0.0842 -0.8067 0.5849
vn -0.2369 -0.0603 -0.9696
vn -0.0358 -0.7998 0.5992
vn -0.1074 -0.7949 0.5971
vn -0.0612 -0.8272 0.5586
vn -0.0982 -0.8328 0.5448
vn -0.0252 -0.8411 0.5403
vn -0.0363 -0.8343 0.5501
vn -0.0470 -0.8243 0.5641
vn -0.0979 -0.8330 0.5445
vn -0.1373 -0.8324 0.5369
vn -0.1395 -0.8107 0.5686
vn -0.1642 -0.8387 0.5192
vn -0.1382 -0.8127 0.5661
vn -0.1994 -0.8294 0.5219
vn -0.1719 -0.8826 0.4376
vn -0.1458 -0.8663 0.4778
vn -0.1547 -0.8684 0.4712
vn -0.1194 -0.8449 0.5214
vn -0.1582 -0.8591 0.4867
vn -0.1352 -0.8224 0.5526
vn -0.1038 -0.8163 0.5682
vn -0.1048 -0.8405 0.5316
vn -0.1377 -0.8407 0.5236
vn -0.1233 -0.8176 0.5625
vn -0.1444 -0.7979 0.5852
vn -0.1512 -0.8451 0.5128
vn -0.1286 -0.8050 0.5791
vn -0.1312 -0.8152 0.5641
vn -0.2205 0.0610 0.9735
vn -0.1214 -0.7970 0.5916
vn -0.2474 0.0560 0.9673
vn -0.2463 0.0601 0.9673
vn -0.2360 0.0701 0.9692
vn -0.2457 0.0618 0.9674
vn 0.1127 0.8585 -0.5003
vn 0.2048 0.8453 -0.4934
vn 0.1056 0.8695 -0.4825
vn -0.3234 -0.0772 -0.9431
vn -0.3280 -0.0548 -0.9431
vn 0.2006 0.8566 -0.4754
vn -0.3537 -0.0600 -0.9334
vn -0.3530 -0.0623 -0.9335
vn 0.1065 0.8897 -0.4440
vn 0.1715 0.8828 -0.4374
vn -0.2513 0.0649 0.9657
vn -0.2707 0.0679 0.9603
vn 0.0792 0.9073 -0.4129
vn -0.2741 0.0634 0.9596
vn 0.0803 0.9246 -0.3723
vn 0.1278 0.9050 -0.4059
vn -0.3817 -0.0656 -0.9219
vn -0.3745 -0.0567 -0.9255
vn 0.0992 0.9271 -0.3614
vn -0.3981 -0.0594 -0.9154
vn -0.3979 -0.0602 -0.9155
vn -0.3744 0.0608 0.9253
vn -0.3628 0.0718 0.9291
vn -0.1982 -0.9395 0.2794
vn -0.1026 -0.9326 0.3460
vn -0.1520 -0.8918 0.4262
vn -0.1352 -0.8154 0.5629
vn -0.2773 0.0510 0.9594
vn -0.2000 -0.9293 0.3104
vn -0.2185 -0.9327 0.2869
vn -0.1680 -0.8757 0.4526
vn -0.2291 -0.8798 0.4164
vn -0.2089 -0.9044 0.3721
vn -0.1851 -0.8857 0.4257
vn -0.1854 -0.8628 0.4704
vn -0.2016 -0.8760 0.4381
vn -0.3225 -0.0650 -0.9443
vn -0.3260 -0.0617 -0.9434
vn -0.3175 -0.0612 -0.9463
vn -0.3233 -0.0683 -0.9438
vn -0.2516 -0.8881 0.3847
vn -0.1833 -0.8848 0.4285
vn -0.3255 -0.0685 -0.9431
vn -0.2825 -0.0477 -0.9581
vn 0.1084 0.8414 -0.5295
vn 0.1683 0.8254 -0.5388
vn 0.1287 0.8411 -0.5254
vn -0.2587 -0.0690 -0.9635
vn 0.1942 0.8133 -0.5484
vn 0.0975 0.8387 -0.5357
vn -0.2581 -0.0727 -0.9634
vn 0.0990 0.8316 -0.5465
vn -0.2469 -0.0599 -0.9672
vn 0.1925 0.8085 -0.5561
vn -0.1671 0.0647 0.9838
vn -0.1620 0.0880 0.9829
vn -0.2020 0.0705 0.9768
vn -0.1914 0.0521 0.9801
vn 0.0906 0.8278 -0.5537
vn -0.6593 0.6512 -0.3759
vn 0.0836 0.8335 -0.5462
vn 0.0855 0.8355 -0.5428
vn 0.0609 0.8259 -0.5605
vn 0.0245 0.8253 -0.5642
vn -0.0081 0.0657 0.9978
vn -0.0000 0.0657 0.9978
vn -0.0088 0.8337 -0.5521
vn -0.0003 0.9979 -0.0651
vn -0.0009 0.9979 -0.0655
vn -0.0000 0.9979 -0.0648
vn -0.0000 0.9978 -0.0656
vn -0.0016 0.9978 -0.0659
vn -0.0000 0.0660 0.9978
vn -0.0000 0.0654 0.9979
vn -0.0000 0.0269 0.9996
vn 0.0018 0.9978 -0.0656
vn 0.0010 0.9979 -0.0653
vn -0.0112 0.9978 -0.0656
vn 0.0004 0.9979 -0.0651
vn 0.0001 0.9979 -0.0648
vn -0.5977 -0.0526 -0.8000
vn -0.9588 -0.0303 -0.2823
vn -0.5556 -0.0639 -0.8290
vn -0.8314 -0.0250 -0.5551
vn -0.5881 -0.7312 -0.3457
vn -0.5881 -0.7311 -0.3457
vn -0.6937 -0.7144 -0.0913
vn -0.9808 -0.0128 -0.1947
vn -0.6937 -0.6963 0.1841
vn -0.9807 0.0035 0.1953
vn -0.9695 0.0161 0.2447
vn 0.0009 0.9978 -0.0658
vn -0.5856 0.0373 0.8098
vn 0.0003 0.9978 -0.0660
vn -0.8314 0.0479 0.5536
vn -0.3931 -0.6668 0.6332
vn -0.5557 0.0453 0.8301
vn -0.3929 -0.6668 0.6332
vn -0.5881 -0.6796 0.4385
vn -0.8315 0.0365 0.5544
vn -0.8315 0.0364 0.5543
vn -0.5555 0.0546 0.8297
vn -0.0106 -0.8336 0.5523
vn 0.0329 -0.8365 0.5469
vn -0.0190 -0.8419 0.5392
vn -0.0080 -0.8290 0.5593
vn -0.0166 -0.8285 0.5598
vn -0.1955 0.0642 0.9786
vn 0.1942 0.0645 0.9788
vn -0.0152 -0.8284 0.5600
vn 0.1950 0.0642 0.9787
vn 0.5543 0.0549 0.8305
vn -0.0116 -0.8278 0.5609
vn -0.0212 -0.8265 0.5626
vn 0.5556 0.0542 0.8297
vn 0.1380 -0.6599 0.7386
vn 0.3929 -0.6668 0.6332
vn 0.3931 -0.6668 0.6332
vn 0.1379 -0.6599 0.7386
vn 0.5557 0.0660 0.8288
vn 0.1949 0.0551 0.9793
vn 0.1590 0.0489 0.9861
vn -0.0001 0.9978 -0.0661
vn 0.8105 0.0225 0.5852
vn -0.0006 0.9978 -0.0660
vn -0.1379 -0.6599 0.7386
vn -0.1949 0.0758 0.9779
vn 0.5881 -0.6796 0.4385
vn 0.8314 0.0271 0.5550
vn 0.6937 -0.6963 0.1841
vn 0.9807 0.0243 0.1939
vn 0.8315 0.0365 0.5543
vn 0.9808 0.0127 0.1946
vn 0.9808 0.0128 0.1947
vn 0.9808 -0.0128 -0.1947
vn -0.0336 -0.8341 0.5506
vn -0.0346 -0.8292 0.5579
vn 0.8315 -0.0365 -0.5543
vn -0.0438 -0.8191 0.5720
vn 0.6937 -0.7144 -0.0913
vn 0.5881 -0.7312 -0.3458
vn 0.8314 -0.0367 -0.5544
vn 0.5881 -0.7311 -0.3457
vn 0.8314 -0.0250 -0.5551
vn 0.9807 -0.0221 -0.1941
vn 0.3972 -0.7368 -0.5472
vn 0.5556 -0.0639 -0.8290
vn 0.3764 -0.7426 -0.5540
vn 0.5855 -0.0691 -0.8077
vn 0.1515 -0.7476 -0.6466
vn -0.0457 -0.8532 0.5195
vn -0.0068 -0.8196 0.5729
vn 0.5617 -0.0549 -0.8255
vn -0.0547 -0.8197 0.5702
vn -0.0537 -0.8179 0.5728
vn -0.0352 -0.8170 0.5756
vn -0.0164 -0.8274 0.5614
vn -0.0345 -0.8289 0.5583
vn 0.0606 -0.6689 0.7409
vn -0.1583 -0.7459 -0.6470
vn -0.5640 -0.0542 -0.8240
vn -0.0079 -0.8278 0.5610
vn -0.0073 -0.8288 0.5595
vn -0.3657 -0.7415 -0.5626
vn -0.4000 -0.7319 -0.5517
vn 0.0155 -0.8221 0.5691
vn -0.0066 -0.8290 0.5592
vn -0.0058 -0.8295 0.5585
vn 0.0074 -0.8346 0.5508
vn 0.0438 -0.8333 0.5510
vn 0.0389 -0.8283 0.5590
vn 0.0916 -0.8043 0.5871
vn 0.0687 -0.8050 0.5893
vn 0.0573 -0.8372 0.5438
vn 0.0984 -0.8242 0.5576
vn 0.0860 -0.8382 0.5386
vn 0.0538 -0.8447 0.5326
vn 0.0899 -0.8401 0.5349
vn 0.0477 -0.8396 0.5411
vn 0.1325 -0.8466 0.5154
vn 0.1100 -0.8566 0.5042
vn 0.1081 -0.8238 0.5565
vn 0.1208 -0.8469 0.5178
vn 0.0873 -0.8571 0.5077
vn 0.0390 -0.8672 0.4964
vn 0.0581 -0.8582 0.5101
vn 0.0331 -0.8306 0.5559
vn 0.0937 -0.8357 0.5412
vn 0.1178 -0.7937 0.5968
vn 0.1149 -0.7889 0.6037
vn 0.0934 -0.8025 0.5892
vn -0.8314 -0.0368 -0.5545
vn -0.9808 -0.0126 -0.1945
vn 0.0140 -0.8301 0.5574
vn 0.0137 -0.8306 0.5567
vn -0.9807 0.0128 0.1949
vn -0.9808 0.0127 0.1947
vn -0.8315 -0.0365 -0.5544
vn 0.0125 -0.8023 0.5968
vn -0.0222 -0.8035 0.5949
vn -0.0490 0.0610 0.9969
vn -0.0698 -0.8085 0.5844
vn -0.1197 0.0683 0.9905
vn -0.1216 0.0633 0.9906
vn -0.0996 -0.8141 0.5722
vn -0.0780 -0.8281 0.5551
vn -0.0872 -0.8048 0.5872
vn -0.0996 -0.8096 0.5785
vn 0.1381 -0.7508 -0.6459
vn -0.1381 -0.7508 -0.6459
vn -0.1952 -0.0643 -0.9786
vn 0.1952 -0.0529 -0.9793
vn -0.1048 -0.0770 -0.9915
vn 0.9871 -0.0263 -0.1578
vn 0.8308 0.0371 0.5553
vn -0.1951 0.0644 0.9787
vn -0.1380 -0.6599 0.7386
vn -0.0000 0.9978 -0.0662
vn 0.0139 -0.0656 -0.9977
vn -0.0115 0.9978 -0.0648
vn -0.0001 -0.0595 -0.9982
vn -0.0005 -0.0656 -0.9978
vn -0.0058 -0.0752 -0.9972
vn -0.0052 -0.0736 -0.9973
vn 0.0187 0.8125 -0.5826
vn 0.0800 0.7862 -0.6127
vn -0.4001 -0.0601 -0.9145
vn 0.0652 0.8071 -0.5869
vn 0.0195 0.8126 -0.5826
vn -0.0741 0.8059 -0.5874
vn -0.0940 0.7997 -0.5929
vn -0.0307 0.7959 -0.6046
vn -0.0698 0.8181 -0.5708
vn -0.4001 -0.0602 -0.9145
vn -0.9923 0.0081 0.1236
vn -0.0528 0.0481 0.9974
vn 0.1532 0.8156 -0.5580
vn -0.1049 -0.8046 0.5845
vn -0.2542 -0.0648 -0.9650
vn -0.2028 0.0711 0.9766
vn -0.2204 0.0612 0.9735
vn 0.1942 0.8355 -0.5140
vn 0.1076 0.8511 -0.5138
vn 0.1653 0.8355 -0.5240
vn -0.2443 -0.9272 0.2840
vn -0.2427 -0.9274 0.2846
vn -0.2263 -0.9586 0.1730
vn -0.2538 -0.0737 -0.9645
vn -0.0769 -0.8119 0.5788
vn -0.0198 0.8211 -0.5704
vn 0.1263 -0.8311 0.5416
vn 0.1959 -0.8526 0.4845
vn 0.1996 -0.8588 0.4717
vn 0.2459 -0.8737 0.4196
vn -0.0088 -0.0453 -0.9989
vn -1.0000 0.0012 0.0001
vn -0.0026 -0.9324 0.3614
vn 1.0000 0.0016 -0.0010
vn 0.1762 0.0693 0.9819
s 0
usemtl Material.027
f 5//1 1//1 2//1
f 2//2 1//2 4//2
f 1//3 5//3 3//3
f 1//4 3//4 4//4
f 2//5 9//5 5//5
f 3//6 5//6 7//6
f 7//7 5//7 6//7
f 6//8 5//8 8//8
f 5//9 9//9 8//9
f 2//10 10//10 9//10
f 10//11 11//11 9//11
f 9//12 11//12 8//12
f 10//13 12//13 11//13
f 11//14 12//14 8//14
f 15//15 13//15 12//15
f 13//16 14//16 12//16
f 8//17 12//17 14//17
f 15//18 12//18 10//18
f 15//19 16//19 18//19
f 10//20 16//20 15//20
f 13//21 15//21 17//21
f 18//22 17//22 15//22
f 18//23 19//23 21//23
f 19//24 18//24 20//24
f 16//25 20//25 18//25
f 17//26 18//26 21//26
f 21//27 19//27 22//27
f 21//28 22//28 23//28
f 23//29 17//29 21//29
f 24//30 23//30 26//30
f 24//31 25//31 23//31
f 17//32 23//32 25//32
f 28//33 26//33 23//33
f 29//34 27//34 23//34
f 27//35 28//35 23//35
f 29//36 23//36 22//36
f 34//37 30//37 29//37
f 30//38 32//38 29//38
f 31//39 34//39 29//39
f 31//40 29//40 22//40
f 29//41 32//41 33//41
f 33//42 27//42 29//42
f 34//43 37//43 35//43
f 35//44 36//44 34//44
f 36//45 30//45 34//45
f 37//46 34//46 31//46
f 38//47 37//47 31//47
f 39//48 37//48 38//48
f 37//49 39//49 40//49
f 37//50 40//50 35//50
f 44//51 35//51 40//51
f 39//52 41//52 40//52
f 41//53 43//53 40//53
f 40//54 42//54 44//54
f 43//55 42//55 40//55
f 44//56 45//56 46//56
f 42//57 45//57 44//57
f 47//58 35//58 44//58
f 47//59 44//59 46//59
f 36//60 35//60 47//60
f 32//61 36//61 47//61
f 47//62 46//62 32//62
f 49//63 48//63 46//63
f 48//64 50//64 46//64
f 46//65 45//65 49//65
f 46//66 50//66 33//66
f 33//67 32//67 46//67
f 51//68 50//68 48//68
f 50//69 51//69 33//69
f 48//70 52//70 51//70
f 51//71 52//71 27//71
f 27//72 33//72 51//72
f 52//73 48//73 49//73
f 49//74 53//74 52//74
f 53//75 27//75 52//75
f 54//76 27//76 53//76
f 54//77 53//77 55//77
f 53//78 56//78 55//78
f 56//79 53//79 49//79
f 42//80 57//80 56//80
f 57//81 58//81 56//81
f 45//82 42//82 56//82
f 45//83 56//83 49//83
f 58//84 55//84 56//84
f 57//85 59//85 58//85
f 59//86 61//86 58//86
f 61//87 60//87 58//87
f 60//88 55//88 58//88
f 59//89 63//89 61//89
f 63//90 62//90 61//90
f 62//91 60//91 61//91
f 64//92 63//92 59//92
f 63//93 64//93 62//93
f 59//94 67//94 64//94
f 67//95 65//95 64//95
f 64//96 65//96 66//96
f 66//97 62//97 64//97
f 65//98 67//98 68//98
f 70//99 68//99 67//99
f 69//100 67//100 59//100
f 67//101 69//101 70//101
f 71//102 72//102 70//102
f 70//103 69//103 71//103
f 68//104 70//104 72//104
f 74//105 72//105 73//105
f 71//106 73//106 72//106
f 72//107 74//107 68//107
f 74//108 75//108 65//108
f 76//109 75//109 74//109
f 74//110 73//110 76//110
f 65//111 68//111 74//111
f 76//112 77//112 79//112
f 77//113 76//113 78//113
f 80//114 78//114 76//114
f 76//115 79//115 75//115
f 76//116 73//116 80//116
f 80//117 85//117 78//117
f 80//118 83//118 81//118
f 81//119 85//119 80//119
f 80//120 84//120 82//120
f 82//121 83//121 80//121
f 84//122 80//122 73//122
f 85//123 81//123 86//123
f 85//124 86//124 87//124
f 85//125 88//125 78//125
f 87//126 89//126 85//126
f 89//127 88//127 85//127
f 89//128 90//128 88//128
f 91//129 90//129 89//129
f 89//130 87//130 92//130
f 89//131 92//131 91//131
f 87//132 94//132 92//132
f 91//133 92//133 93//133
f 94//134 93//134 92//134
f 94//135 86//135 95//135
f 94//136 87//136 86//136
f 96//137 93//137 94//137
f 94//138 95//138 96//138
f 98//139 97//139 96//139
f 96//140 97//140 93//140
f 95//141 98//141 96//141
f 98//142 100//142 97//142
f 102//143 98//143 99//143
f 95//144 99//144 98//144
f 101//145 100//145 98//145
f 98//146 104//146 101//146
f 98//147 102//147 103//147
f 98//148 103//148 104//148
f 105//149 104//149 103//149
f 106//150 104//150 105//150
f 104//151 106//151 101//151
f 107//152 106//152 105//152
f 107//153 108//153 106//153
f 101//154 106//154 108//154
f 108//155 107//155 109//155
f 109//156 110//156 108//156
f 101//157 108//157 111//157
f 111//158 108//158 110//158
f 100//159 101//159 111//159
f 100//160 111//160 112//160
f 111//161 110//161 112//161
f 100//162 112//162 113//162
f 112//163 114//163 113//163
f 112//164 110//164 114//164
f 114//165 109//165 116//165
f 109//166 114//166 110//166
f 113//167 114//167 117//167
f 115//168 114//168 116//168
f 114//169 115//169 117//169
f 118//170 117//170 115//170
f 117//171 118//171 113//171
f 116//172 119//172 118//172
f 116//173 118//173 115//173
f 119//174 97//174 118//174
f 97//175 100//175 118//175
f 113//176 118//176 100//176
f 119//177 116//177 120//177
f 120//178 121//178 119//178
f 97//179 119//179 121//179
f 121//180 122//180 123//180
f 122//181 121//181 120//181
f 121//182 93//182 97//182
f 91//183 93//183 121//183
f 91//184 121//184 123//184
f 123//185 125//185 124//185
f 123//186 124//186 126//186
f 123//187 105//187 125//187
f 105//188 123//188 107//188
f 122//189 107//189 123//189
f 123//190 90//190 91//190
f 126//191 90//191 123//191
f 90//192 126//192 128//192
f 127//193 126//193 102//193
f 127//194 128//194 126//194
f 102//195 126//195 124//195
f 90//196 128//196 130//196
f 129//197 130//197 128//197
f 129//198 128//198 127//198
f 130//199 88//199 90//199
f 132//200 130//200 129//200
f 88//201 130//201 131//201
f 132//202 131//202 130//202
f 133//203 136//203 132//203
f 133//204 132//204 134//204
f 99//205 132//205 129//205
f 134//206 132//206 99//206
f 132//207 135//207 131//207
f 135//208 132//208 137//208
f 132//209 136//209 138//209
f 132//210 138//210 137//210
f 136//211 139//211 138//211
f 138//212 139//212 7//212
f 140//213 137//213 138//213
f 140//214 138//214 6//214
f 6//215 138//215 7//215
f 141//216 140//216 142//216
f 145//217 140//217 141//217
f 142//218 140//218 146//218
f 143//219 137//219 140//219
f 140//219 144//219 143//219
f 6//214 146//214 140//214
f 144//220 140//220 145//220
f 146//221 14//221 147//221
f 146//222 8//222 14//222
f 26//223 146//223 147//223
f 146//214 6//214 8//214
f 146//224 149//224 148//224
f 151//225 146//225 148//225
f 26//226 149//226 146//226
f 150//227 146//227 151//227
f 142//228 146//228 150//228
f 152//229 150//229 151//229
f 154//230 151//230 148//230
f 151//231 153//231 152//231
f 151//232 154//232 153//232
f 154//233 156//233 155//233
f 155//234 153//234 154//234
f 156//235 154//235 157//235
f 148//236 157//236 154//236
f 157//235 158//235 156//235
f 159//237 158//237 157//237
f 157//237 160//237 159//237
f 161//238 160//238 157//238
f 157//239 148//239 161//239
f 161//240 148//240 149//240
f 163//241 161//241 162//241
f 162//242 161//242 149//242
f 161//243 163//243 160//243
f 163//244 164//244 165//244
f 162//245 164//245 163//245
f 165//246 166//246 163//246
f 160//247 163//247 166//247
f 166//248 168//248 167//248
f 167//249 159//249 166//249
f 168//250 166//250 165//250
f 166//247 159//247 160//247
f 165//250 169//250 168//250
f 169//251 170//251 168//251
f 167//252 168//252 170//252
f 169//253 171//253 170//253
f 170//254 71//254 167//254
f 71//255 170//255 171//255
f 172//256 171//256 169//256
f 173//257 171//257 172//257
f 171//258 173//258 71//258
f 172//259 174//259 173//259
f 84//260 173//260 174//260
f 73//261 71//261 173//261
f 73//262 173//262 84//262
f 174//263 175//263 84//263
f 177//264 174//264 172//264
f 176//265 175//265 174//265
f 174//266 177//266 176//266
f 172//267 178//267 177//267
f 179//268 176//268 177//268
f 179//269 177//269 178//269
f 178//270 162//270 179//270
f 144//271 179//271 162//271
f 176//272 179//272 145//272
f 144//273 145//273 179//273
f 164//274 178//274 172//274
f 162//275 178//275 164//275
f 175//276 176//276 180//276
f 145//277 180//277 176//277
f 180//276 182//276 175//276
f 182//278 180//278 181//278
f 145//279 181//279 180//279
f 175//280 182//280 82//280
f 184//281 82//281 182//281
f 181//278 183//278 182//278
f 182//282 183//282 184//282
f 185//283 184//283 183//283
f 83//284 184//284 185//284
f 83//285 82//285 184//285
f 186//286 185//286 187//286
f 83//287 185//287 186//287
f 183//283 187//283 185//283
f 187//288 183//288 181//288
f 188//289 187//289 189//289
f 187//290 188//290 186//290
f 181//288 189//288 187//288
f 189//291 190//291 188//291
f 141//292 190//292 189//292
f 141//293 189//293 181//293
f 190//294 191//294 192//294
f 142//295 191//295 190//295
f 192//296 188//296 190//296
f 190//297 141//297 142//297
f 193//298 192//298 191//298
f 192//299 193//299 194//299
f 194//300 186//300 192//300
f 192//301 186//301 188//301
f 194//302 195//302 83//302
f 196//303 195//303 194//303
f 194//304 197//304 196//304
f 197//305 194//305 198//305
f 194//306 83//306 186//306
f 194//307 193//307 198//307
f 152//308 198//308 193//308
f 155//309 199//309 198//309
f 198//310 199//310 200//310
f 198//311 200//311 197//311
f 153//312 155//312 198//312
f 198//313 152//313 153//313
f 200//314 4//314 197//314
f 203//315 200//315 199//315
f 200//316 203//316 201//316
f 200//317 201//317 202//317
f 200//318 202//318 204//318
f 4//319 200//319 204//319
f 204//320 205//320 2//320
f 4//321 204//321 2//321
f 202//322 207//322 204//322
f 205//323 204//323 206//323
f 204//324 207//324 206//324
f 202//325 71//325 207//325
f 207//326 69//326 206//326
f 71//327 69//327 207//327
f 39//328 206//328 41//328
f 208//329 206//329 39//329
f 205//330 206//330 208//330
f 41//331 206//331 69//331
f 38//332 208//332 39//332
f 31//333 208//333 38//333
f 31//334 19//334 208//334
f 20//335 208//335 19//335
f 208//336 20//336 205//336
f 205//337 20//337 16//337
f 16//338 10//338 205//338
f 2//339 205//339 10//339
f 156//340 203//340 199//340
f 158//341 201//341 203//341
f 203//236 156//236 158//236
f 201//342 167//342 202//342
f 71//343 202//343 167//343
f 159//344 167//344 201//344
f 201//345 158//345 159//345
f 199//346 155//346 156//346
f 3//347 197//347 4//347
f 3//348 196//348 197//348
f 139//349 196//349 3//349
f 195//350 196//350 133//350
f 196//351 139//351 136//351
f 196//352 136//352 133//352
f 86//353 195//353 95//353
f 86//354 83//354 195//354
f 133//355 134//355 195//355
f 195//356 134//356 95//356
f 191//357 209//357 193//357
f 193//358 209//358 152//358
f 150//359 152//359 209//359
f 142//360 209//360 191//360
f 209//361 142//361 150//361
f 181//362 145//362 141//362
f 82//363 84//363 175//363
f 169//364 165//364 172//364
f 172//365 165//365 164//365
f 144//366 162//366 149//366
f 210//367 144//367 149//367
f 149//368 26//368 28//368
f 149//369 28//369 55//369
f 149//370 62//370 66//370
f 149//371 60//371 62//371
f 149//367 66//367 210//367
f 149//372 55//372 60//372
f 75//373 79//373 210//373
f 79//374 77//374 210//374
f 135//375 144//375 210//375
f 210//376 77//376 135//376
f 75//377 210//377 66//377
f 147//378 14//378 13//378
f 13//379 25//379 147//379
f 25//380 24//380 147//380
f 24//381 26//381 147//381
f 144//382 135//382 143//382
f 137//383 143//383 135//383
f 3//384 7//384 139//384
f 77//385 131//385 135//385
f 95//386 134//386 99//386
f 88//387 131//387 77//387
f 99//388 129//388 127//388
f 99//389 127//389 102//389
f 103//390 125//390 105//390
f 102//391 125//391 103//391
f 102//392 124//392 125//392
f 107//393 122//393 120//393
f 120//394 109//394 107//394
f 116//395 109//395 120//395
f 88//396 77//396 78//396
f 81//397 83//397 86//397
f 65//398 75//398 66//398
f 59//399 41//399 69//399
f 43//400 41//400 59//400
f 57//401 43//401 59//401
f 43//402 57//402 42//402
f 55//403 28//403 54//403
f 27//404 54//404 28//404
f 30//405 36//405 32//405
f 19//406 31//406 22//406
f 17//407 25//407 13//407
