# Blender 5.0.1
# www.blender.org
mtllib torso_y_link_visual_64.mtl
o i01.torso.full.073_visual.001
v 0.002067 0.000333 -0.029773
v 0.002678 -0.004393 -0.029371
v 0.002509 0.004996 0.029321
v 0.003446 -0.000947 0.029712
v -0.002067 -0.004996 -0.029423
v -0.002678 -0.000259 -0.029644
v -0.003446 0.004061 0.029383
v -0.002509 -0.001882 0.029773
vn 0.9918 0.1264 -0.0203
vn 0.0212 -0.0819 -0.9964
vn 0.9878 0.1544 -0.0196
vn -0.1254 0.9891 -0.0771
vn -0.0209 -0.0493 -0.9986
vn -0.9918 -0.1280 -0.0036
vn -0.1554 0.9851 -0.0741
vn -0.9878 -0.1557 0.0008
vn 0.0001 0.0655 0.9979
vn 0.1254 -0.9907 0.0531
vn -0.0001 0.0656 0.9978
vn 0.1554 -0.9863 0.0555
s 0
usemtl Material.030
f 2//1 1//1 4//1
f 5//2 1//2 2//2
f 4//3 1//3 3//3
f 1//4 6//4 3//4
f 6//5 1//5 5//5
f 6//6 5//6 7//6
f 3//7 6//7 7//7
f 7//8 5//8 8//8
f 8//9 3//9 7//9
f 5//10 2//10 8//10
f 4//11 3//11 8//11
f 8//12 2//12 4//12
