# Blender 5.0.1
# www.blender.org
mtllib torso_bottom_link_visual_0.mtl
o i01.torso.midstom.full.001_visual.001
v -0.000000 -0.220732 0.084773
v -0.018467 -0.200402 0.083436
v -0.020376 -0.219734 0.084707
v -0.000000 -0.222455 -0.238123
v -0.000282 -0.217832 0.129660
v -0.000000 -0.284112 -0.234069
v -0.000000 -0.217832 0.129660
v -0.000000 -0.201307 0.083495
v 0.018467 -0.200402 0.083436
v 0.020375 -0.219733 0.084707
v 0.040554 -0.216747 0.084511
v 0.036756 -0.197695 0.083258
v 0.041346 -0.213846 0.129398
v -0.000000 -0.258575 0.257458
v 0.051049 -0.253648 0.257133
v 0.080122 -0.202039 0.128621
v 0.060343 -0.211801 0.084186
v 0.079550 -0.204943 0.083735
v 0.072100 -0.186996 0.082555
v 0.054692 -0.193212 0.082963
v 0.036756 -0.218843 -0.238360
v 0.054692 -0.214360 -0.238655
v 0.048811 -0.279315 -0.234384
v 0.072628 -0.273362 -0.234775
v 0.072100 -0.208144 -0.239063
v 0.088814 -0.179108 0.082036
v 0.095746 -0.265108 -0.235318
v 0.088814 -0.200256 -0.239582
v 0.104673 -0.169623 0.081412
v 0.117942 -0.254633 -0.236007
v 0.104673 -0.190771 -0.240206
v 0.119524 -0.158633 0.080689
v 0.119524 -0.179781 -0.240929
v 0.139002 -0.242037 -0.236835
v 0.164875 -0.318150 0.136255
v 0.194316 -0.300542 0.135098
v 0.158724 -0.227443 -0.237794
v 0.221885 -0.280140 0.133757
v 0.176916 -0.210989 -0.238876
v 0.133224 -0.167391 -0.241743
v 0.145641 -0.132572 0.078977
v 0.133224 -0.146243 0.079875
v 0.145640 -0.153720 -0.242641
v 0.156655 -0.117754 0.078002
v 0.156655 -0.138902 -0.243616
v 0.193405 -0.192836 -0.240070
v 0.417922 -0.367311 0.139488
v 0.298957 -0.293988 -0.233418
v 0.270368 -0.231762 0.130576
v 0.247317 -0.257139 0.132245
v 0.208032 -0.173157 -0.241364
v 0.321566 -0.263570 -0.235419
v 0.220654 -0.152142 -0.242746
v 0.166160 -0.123077 -0.244658
v 0.174065 -0.085251 0.075865
v 0.166160 -0.101929 0.076962
v 0.174065 -0.106399 -0.245753
v 0.180294 -0.067880 0.074722
v 0.180294 -0.089028 -0.246896
v 0.231152 -0.129994 -0.244203
v 0.323135 -0.143913 0.124800
v 0.308460 -0.174875 0.126835
v 0.239424 -0.106926 -0.245719
v 0.334699 -0.111666 0.122679
v 0.245390 -0.083160 -0.247282
v 0.184787 -0.071131 -0.248073
v 0.184787 -0.049983 0.073545
v 0.187500 -0.031733 0.072346
v 0.187500 -0.052881 -0.249272
v 0.188407 -0.013306 0.071134
v 0.188407 -0.034454 -0.250484
v 0.248993 -0.058925 -0.248875
v 0.250197 -0.034454 -0.250484
v 0.348075 -0.044563 0.118266
v 0.343039 -0.078442 0.120494
v 0.439879 -0.171169 0.126592
v 0.811672 -0.171169 0.126591
v 0.811672 -0.162977 0.251171
v 0.476804 -0.279378 0.133707
v 0.598886 -0.373352 0.139885
v 0.439879 0.016161 0.114274
v 0.439879 -0.162977 0.251172
v 0.404423 -0.365160 0.264466
v 0.537370 -0.365160 0.264465
v 0.598886 -0.365160 0.264466
v 0.439879 0.024354 0.238854
v 0.334644 -0.052186 0.243887
v 0.334644 0.047861 0.237309
v 0.334644 -0.053420 0.225121
v 0.334644 0.046627 0.218541
v 0.252945 -0.052186 0.243887
v 0.238322 -0.100287 0.247050
v 0.252945 -0.057980 0.155773
v 0.191990 -0.089753 0.121238
v 0.207829 -0.010354 0.116016
v 0.203753 -0.050831 0.118678
v 0.258012 -0.007956 0.152484
v 0.203753 0.030122 0.113355
v 0.252945 0.042067 0.149195
v 0.191990 0.069044 0.110796
v 0.238322 0.095962 0.234145
v 0.252945 0.047861 0.237309
v 0.214576 0.140292 0.231231
v 0.172888 0.104914 0.108438
v 0.183329 0.084474 0.064704
v 0.172841 0.101934 0.063556
v 0.160689 0.118284 0.062481
v 0.147181 0.136354 0.106370
v 0.115858 0.162157 0.104673
v 0.131874 0.147037 0.060591
v 0.146989 0.133366 0.061489
v 0.182618 0.179148 0.228676
v 0.492376 0.449696 0.210885
v 0.246747 0.478620 0.208983
v 0.439879 0.220572 0.225952
v 0.143678 0.211036 0.226578
v 0.080121 0.181330 0.103414
v 0.099252 0.234731 0.225019
v 0.069586 0.300729 0.220681
v 0.100843 0.478620 0.208983
v 0.041345 0.193136 0.102636
v 0.051047 0.249322 0.224061
v 0.069587 0.404782 0.213839
v 0.038625 0.387708 0.214961
v 0.069586 0.292538 0.096101
v 0.069586 0.396593 0.089258
v 0.038625 0.318084 0.219540
v 0.069586 0.331944 0.093509
v -0.000000 0.387708 0.214962
v -0.000000 0.379516 0.090382
v -0.000000 0.470428 0.084403
v -0.000000 0.478620 0.208983
v 0.038625 0.379516 0.090381
v -0.000530 0.379516 0.090381
v 0.038625 0.309892 0.094959
v -0.000530 0.387708 0.214962
v -0.000000 0.338650 0.093068
v -0.034282 0.336970 0.093178
v -0.000530 0.309892 0.094959
v -0.000000 0.302916 -0.011134
v -0.000000 0.309892 0.094959
v 0.031609 0.303292 -0.005417
v 0.024523 0.214002 -0.266822
v -0.024524 0.214002 -0.266822
v -0.000000 0.215204 -0.266901
v -0.000000 0.194120 0.057493
v -0.000000 0.174695 0.058771
v -0.020375 0.193121 0.057560
v -0.000000 0.153547 -0.262847
v -0.000282 0.197123 0.102374
v 0.020375 0.193121 0.057560
v -0.000000 0.197123 0.102375
v -0.000000 0.254249 0.223737
v -0.000530 0.318084 0.219540
v -0.051048 0.249322 0.224061
v -0.100843 0.478620 0.208983
v -0.000000 0.318084 0.219540
v -0.099253 0.234731 0.225019
v -0.246748 0.478620 0.208983
v -0.100845 0.470429 0.084403
v -0.000265 0.478620 0.208983
v -0.000265 0.470429 0.084403
v -0.254857 0.442958 0.086209
v -0.133847 0.312084 0.094814
v -0.068235 0.331944 0.093509
v -0.246749 0.470429 0.084403
v -0.101530 0.323622 0.094056
v -0.072629 0.204454 -0.266194
v -0.048811 0.210407 -0.266586
v -0.018467 0.152642 -0.262788
v -0.036756 0.149935 -0.262609
v -0.036757 0.171082 0.059009
v -0.018467 0.173790 0.058830
v -0.054692 0.145452 -0.262315
v -0.054692 0.166600 0.059303
v -0.072100 0.139236 -0.261906
v -0.095747 0.196200 -0.265652
v -0.164875 0.297441 0.095778
v -0.117942 0.185725 -0.264963
v -0.214864 0.263956 -0.270107
v -0.182310 0.283426 -0.271387
v -0.139002 0.173129 -0.264134
v -0.088814 0.131348 -0.261387
v -0.072100 0.160384 0.059712
v -0.088815 0.152496 0.060231
v -0.104673 0.121863 -0.260764
v -0.104673 0.143011 0.060854
v -0.119524 0.110873 -0.260041
v -0.158724 0.158534 -0.263175
v -0.245348 0.241396 -0.268623
v -0.342980 0.384203 0.090073
v -0.247317 0.236429 0.099790
v -0.221885 0.259430 0.098277
v -0.176916 0.142081 -0.262094
v -0.270368 0.211052 0.101459
v -0.193405 0.123928 -0.260900
v -0.133224 0.098483 -0.259226
v -0.133224 0.119631 0.062392
v -0.119524 0.132021 0.061577
v -0.145641 0.084812 -0.258327
v -0.145641 0.105960 0.063292
v -0.156655 0.069994 -0.257353
v -0.208032 0.104249 -0.259605
v -0.290814 0.183542 0.103267
v -0.308460 0.154165 0.105199
v -0.220655 0.083234 -0.258224
v -0.323135 0.123204 0.107234
v -0.231153 0.061086 -0.256767
v -0.166160 0.054169 -0.256312
v -0.156655 0.091142 0.064265
v -0.166160 0.075317 0.065306
v -0.174065 0.037491 -0.255216
v -0.174065 0.058639 0.066402
v -0.239424 0.038018 -0.255250
v -0.180294 0.020120 -0.254073
v -0.180294 0.041268 0.067545
v -0.245390 0.014252 -0.253688
v -0.184787 0.002223 -0.252896
v -0.184787 0.023371 0.068722
v -0.248993 -0.009983 -0.252093
v -0.187500 -0.016027 -0.251697
v -0.187500 0.005121 0.069921
v -0.250198 -0.034454 -0.250485
v -0.188407 -0.034454 -0.250485
v -0.188407 -0.013306 0.071133
v -0.248993 -0.058925 -0.248876
v -0.187500 -0.052881 -0.249273
v -0.187500 -0.031733 0.072345
v -0.245390 -0.083160 -0.247282
v -0.184787 -0.071131 -0.248073
v -0.184787 -0.049983 0.073545
v -0.239424 -0.106926 -0.245720
v -0.180294 -0.089028 -0.246897
v -0.180294 -0.067880 0.074721
v -0.174066 -0.106399 -0.245754
v -0.231153 -0.129994 -0.244203
v -0.308460 -0.174875 0.126835
v -0.220655 -0.152142 -0.242746
v -0.323135 -0.143913 0.124799
v -0.334699 -0.111666 0.122678
v -0.439879 -0.171169 0.126591
v -0.476804 -0.279378 0.133706
v -0.341078 -0.231086 -0.237556
v -0.449528 -0.324787 0.136692
v -0.598886 -0.373352 0.139885
v -0.537370 -0.373352 0.139885
v -0.404423 -0.373352 0.139885
v -0.598886 -0.365160 0.264465
v -0.417922 -0.367311 0.139488
v -0.537370 -0.365160 0.264465
v -0.404423 -0.365160 0.264465
v -0.439879 -0.162977 0.251171
v -0.811672 -0.162977 0.251171
v -0.334645 -0.052186 0.243886
v -0.439879 0.016161 0.114273
v -0.439879 0.024354 0.238853
v -0.439879 0.212379 0.101371
v -0.439879 0.220572 0.225951
v -0.334644 0.047861 0.237308
v -0.252945 0.047861 0.237308
v -0.252945 0.042067 0.149195
v -0.334644 0.046627 0.218541
v -0.238322 0.095962 0.234144
v -0.214576 0.140292 0.231230
v -0.182618 0.179148 0.228675
v -0.147182 0.136354 0.106370
v -0.172888 0.104914 0.108438
v -0.172841 0.101934 0.063556
v -0.183329 0.084474 0.064704
v -0.160689 0.118284 0.062480
v -0.191990 0.069044 0.110796
v -0.192051 0.066073 0.065913
v -0.203753 0.030123 0.113355
v -0.198924 0.046907 0.067174
v -0.203880 0.027161 0.068472
v -0.206874 0.007025 0.069797
v -0.207829 -0.010354 0.116016
v -0.207874 -0.013306 0.071133
v -0.206874 -0.033637 0.072470
v -0.203753 -0.050831 0.118678
v -0.203880 -0.053773 0.073794
v -0.198923 -0.073519 0.075092
v -0.192051 -0.092685 0.076353
v -0.191990 -0.089753 0.121238
v -0.183329 -0.111086 0.077562
v -0.252945 -0.057980 0.155773
v -0.214576 -0.144617 0.249965
v -0.238322 -0.100287 0.247049
v -0.172889 -0.125623 0.123596
v -0.172841 -0.128546 0.078711
v -0.160689 -0.144896 0.079786
v -0.182619 -0.183473 0.252519
v -0.147182 -0.157063 0.125664
v -0.131874 -0.173649 0.081676
v -0.146990 -0.159979 0.080778
v -0.143680 -0.215362 0.254616
v -0.115859 -0.182866 0.127360
v -0.097991 -0.196240 0.083162
v -0.115489 -0.185775 0.082474
v -0.099254 -0.239057 0.256174
v -0.080123 -0.202039 0.128620
v -0.060343 -0.211801 0.084185
v -0.079550 -0.204943 0.083735
v -0.041346 -0.213846 0.129397
v -0.051049 -0.253648 0.257133
v -0.000530 -0.332030 0.262288
v -0.100846 -0.470428 0.271388
v -0.196933 -0.470428 0.271388
v -0.196933 -0.478620 0.146808
v -0.285488 -0.435325 0.143961
v -0.285487 -0.427133 0.268541
v -0.363106 -0.373352 0.139885
v -0.363106 -0.365160 0.264465
v -0.247317 -0.257139 0.132244
v -0.270368 -0.231762 0.130575
v -0.221885 -0.280140 0.133757
v -0.194316 -0.300542 0.135098
v -0.176917 -0.210989 -0.238877
v -0.158724 -0.227443 -0.237795
v -0.139003 -0.242037 -0.236835
v -0.133224 -0.167391 -0.241744
v -0.119524 -0.179781 -0.240929
v -0.119524 -0.158633 0.080689
v -0.133224 -0.146243 0.079874
v -0.104674 -0.190771 -0.240207
v -0.104674 -0.169623 0.081412
v -0.117942 -0.254633 -0.236008
v -0.088815 -0.200256 -0.239582
v -0.095747 -0.265108 -0.235318
v -0.088815 -0.179108 0.082036
v -0.072100 -0.208144 -0.239064
v -0.072100 -0.186996 0.082555
v -0.054692 -0.214360 -0.238655
v -0.072629 -0.273362 -0.234776
v -0.068235 -0.352654 0.138524
v -0.101530 -0.344332 0.137977
v -0.048811 -0.279315 -0.234385
v -0.036757 -0.218843 -0.238360
v -0.034283 -0.357680 0.138855
v -0.024524 -0.282910 -0.234148
v -0.018467 -0.221550 -0.238182
v -0.036757 -0.197695 0.083258
v -0.040555 -0.216747 0.084511
v -0.054692 -0.193212 0.082963
v -0.000530 -0.409845 0.142285
v -0.000000 -0.359360 0.138966
v -0.000000 -0.344864 0.067103
v -0.000530 -0.340221 0.137707
v 0.024524 -0.282910 -0.234147
v -0.000000 -0.340221 0.137708
v 0.032560 -0.344477 0.072992
v 0.038625 -0.344270 0.076149
v 0.063956 -0.332780 0.037475
v 0.038625 -0.340221 0.137708
v 0.069586 -0.323145 0.136584
v 0.038625 -0.332030 0.262288
v 0.069587 -0.314955 0.261166
v 0.069587 -0.352654 0.138524
v 0.038625 -0.409845 0.142285
v 0.069587 -0.427199 0.143426
v -0.000000 -0.409845 0.142286
v 0.069586 -0.419009 0.268007
v 0.038625 -0.401654 0.266867
v -0.000000 -0.401654 0.266867
v -0.000530 -0.401654 0.266866
v -0.000000 -0.478620 0.146808
v -0.000000 -0.470428 0.271388
v 0.100845 -0.470428 0.271388
v 0.100846 -0.478620 0.146808
v -0.100846 -0.478620 0.146808
v -0.133847 -0.332794 0.137218
v -0.164876 -0.318150 0.136255
v 0.101530 -0.344332 0.137977
v 0.133847 -0.332794 0.137218
v 0.196933 -0.478620 0.146808
v 0.285488 -0.435325 0.143961
v 0.196933 -0.470428 0.271388
v 0.069586 -0.344462 0.263104
v 0.099254 -0.239057 0.256174
v 0.143679 -0.215362 0.254616
v 0.285487 -0.427133 0.268541
v 0.363106 -0.373352 0.139885
v 0.363106 -0.365160 0.264466
v 0.182619 -0.183473 0.252520
v 0.214576 -0.144618 0.249965
v 0.147182 -0.157063 0.125664
v 0.172889 -0.125623 0.123596
v 0.160689 -0.144896 0.079786
v 0.172841 -0.128546 0.078712
v 0.183329 -0.111086 0.077563
v 0.192051 -0.092685 0.076353
v 0.198923 -0.073519 0.075093
v 0.203880 -0.053773 0.073794
v 0.206873 -0.033637 0.072471
v 0.207874 -0.013306 0.071134
v 0.187500 0.005121 0.069922
v 0.206873 0.007025 0.069797
v 0.184787 0.023371 0.068723
v 0.203880 0.027161 0.068473
v 0.180294 0.041268 0.067545
v 0.198923 0.046907 0.067175
v 0.192051 0.066072 0.065914
v 0.174065 0.058639 0.066402
v 0.166160 0.075317 0.065307
v 0.180294 0.020120 -0.254073
v 0.174065 0.037491 -0.255216
v 0.166160 0.054169 -0.256311
v 0.239424 0.038018 -0.255250
v 0.231152 0.061086 -0.256766
v 0.220654 0.083234 -0.258223
v 0.323135 0.123204 0.107235
v 0.334699 0.090956 0.109356
v 0.343039 0.057733 0.111539
v 0.439879 0.212379 0.101372
v 0.492377 0.441504 0.086305
v 0.811672 0.441504 0.086305
v 0.290814 0.183542 0.103268
v 0.308460 0.154165 0.105199
v 0.342980 0.384203 0.090074
v 0.811672 0.212379 0.101371
v 0.811672 0.327465 0.160081
v 0.811672 0.331571 0.147693
v 0.811672 0.328309 0.153467
v 0.811672 0.220572 0.225951
v 0.811672 0.336754 0.143639
v 0.688305 0.331571 0.147693
v 0.688305 0.336754 0.143639
v 0.811672 0.343070 0.141918
v 0.688305 0.343070 0.141918
v 0.811672 0.349556 0.142797
v 0.811672 0.355226 0.146137
v 0.688305 0.349556 0.142797
v 0.688305 0.355226 0.146137
v 0.688305 0.344192 0.158980
v 0.688305 0.338827 0.175166
v 0.688305 0.356813 0.170267
v 0.688305 0.329168 0.166526
v 0.688305 0.360074 0.164494
v 0.688305 0.333158 0.171823
v 0.688305 0.360918 0.157881
v 0.688305 0.328309 0.153467
v 0.688305 0.359216 0.151435
v 0.688305 0.351629 0.174324
v 0.688305 0.345314 0.176044
v 0.688305 0.327465 0.160081
v 0.811672 0.338827 0.175166
v 0.811672 0.345314 0.176044
v 0.811672 0.449696 0.210885
v 0.811672 0.351629 0.174324
v 0.811672 0.356813 0.170267
v 0.811672 0.360074 0.164495
v 0.811672 0.360918 0.157881
v 0.811672 0.359216 0.151435
v 0.811672 0.333158 0.171823
v 0.811672 0.329168 0.166527
v 0.245348 0.241396 -0.268623
v 0.300365 0.415741 0.087999
v 0.158724 0.158534 -0.263174
v 0.270367 0.211052 0.101459
v 0.214863 0.263956 -0.270106
v 0.247317 0.236429 0.099790
v 0.221885 0.259430 0.098277
v 0.176916 0.142081 -0.262093
v 0.193405 0.123927 -0.260899
v 0.133224 0.098483 -0.259226
v 0.119524 0.110873 -0.260040
v 0.104673 0.143011 0.060855
v 0.119524 0.132021 0.061578
v 0.104673 0.121863 -0.260763
v 0.088814 0.131348 -0.261387
v 0.139002 0.173129 -0.264134
v 0.088814 0.152496 0.060231
v 0.115489 0.159163 0.059793
v 0.097991 0.169628 0.059105
v 0.072100 0.160384 0.059713
v 0.072100 0.139236 -0.261905
v 0.079550 0.178331 0.058533
v 0.054692 0.166600 0.059304
v 0.054691 0.145452 -0.262314
v 0.060343 0.185188 0.058082
v 0.036756 0.171082 0.059010
v 0.036756 0.149934 -0.262609
v 0.040554 0.190135 0.057756
v 0.018467 0.173790 0.058831
v 0.018467 0.152642 -0.262787
v 0.048811 0.210407 -0.266585
v 0.072628 0.204454 -0.266193
v 0.062081 0.288039 -0.036576
v 0.069586 0.283285 -0.044623
v 0.101530 0.323622 0.094056
v 0.133847 0.312084 0.094814
v 0.100845 0.470428 0.084403
v 0.246749 0.470428 0.084403
v 0.254857 0.442958 0.086209
v 0.164875 0.297440 0.095778
v 0.182310 0.283426 -0.271386
v 0.117942 0.185725 -0.264962
v 0.095746 0.196200 -0.265651
v 0.038625 0.303540 -0.001635
v 0.133224 0.119631 0.062392
v 0.145641 0.084812 -0.258327
v 0.145641 0.105960 0.063292
v 0.156655 0.069994 -0.257353
v 0.156655 0.091142 0.064265
v 0.208032 0.104249 -0.259604
v 0.245390 0.014252 -0.253687
v 0.348075 0.023854 0.113768
v 0.248993 -0.009983 -0.252093
v 0.349759 -0.010355 0.116016
v 0.187500 -0.016027 -0.251696
v 0.184787 0.002223 -0.252896
v 0.146989 -0.159979 0.080778
v 0.131874 -0.173649 0.081677
v 0.115489 -0.185775 0.082475
v 0.115859 -0.182866 0.127360
v 0.097991 -0.196240 0.083162
v 0.404423 -0.373352 0.139885
v 0.537370 -0.373352 0.139885
v 0.449528 -0.324787 0.136693
v 0.341078 -0.231086 -0.237556
v 0.069586 -0.330060 0.031432
v -0.000000 -0.332030 0.262288
v 0.018467 -0.221550 -0.238182
v -0.145641 -0.132573 0.078976
v -0.145641 -0.153721 -0.242642
v -0.156655 -0.117754 0.078001
v -0.156655 -0.138902 -0.243617
v -0.166160 -0.101929 0.076961
v -0.166160 -0.123077 -0.244658
v -0.174066 -0.085251 0.075864
v -0.208032 -0.173157 -0.241364
v -0.298958 -0.293988 -0.233419
v -0.321566 -0.263570 -0.235419
v -0.193405 -0.192836 -0.240070
v -0.252945 -0.052186 0.243886
v -0.334645 -0.053420 0.225120
v -0.258012 -0.007956 0.152484
v -0.146989 0.133366 0.061488
v -0.131874 0.147037 0.060590
v -0.115858 0.162157 0.104673
v -0.115489 0.159163 0.059793
v -0.097991 0.169628 0.059104
v -0.080122 0.181330 0.103413
v -0.079550 0.178331 0.058532
v -0.060343 0.185188 0.058082
v -0.040554 0.190135 0.057755
v -0.041345 0.193136 0.102635
v -0.143679 0.211036 0.226578
v -0.492376 0.449696 0.210885
v -0.811672 0.441504 0.086305
v -0.811672 0.449696 0.210885
v -0.492377 0.441504 0.086305
v -0.300365 0.415741 0.087998
v -0.811672 0.356813 0.170267
v -0.811672 0.351629 0.174324
v -0.811672 0.345314 0.176044
v -0.811672 0.220572 0.225951
v -0.811672 0.360919 0.157881
v -0.811672 0.360074 0.164494
v -0.688305 0.360074 0.164493
v -0.688305 0.360919 0.157881
v -0.688305 0.359216 0.151434
v -0.688305 0.344192 0.158980
v -0.688305 0.351629 0.174323
v -0.688305 0.355226 0.146137
v -0.688305 0.331571 0.147693
v -0.688305 0.328309 0.153467
v -0.688305 0.333158 0.171823
v -0.688305 0.343070 0.141918
v -0.688305 0.329168 0.166526
v -0.688305 0.356813 0.170267
v -0.688305 0.349556 0.142796
v -0.688305 0.327465 0.160081
v -0.688305 0.345314 0.176044
v -0.688305 0.338827 0.175165
v -0.688305 0.336754 0.143638
v -0.811672 0.336754 0.143638
v -0.811672 0.343070 0.141918
v -0.811672 0.349556 0.142796
v -0.811672 0.355226 0.146137
v -0.811672 0.359216 0.151434
v -0.811672 0.331571 0.147693
v -0.811672 0.212379 0.101371
v -0.811672 0.328309 0.153467
v -0.811672 0.327465 0.160081
v -0.811672 0.329168 0.166526
v -0.811672 0.333158 0.171823
v -0.811672 0.338827 0.175166
v -0.343039 0.057733 0.111539
v -0.334699 0.090956 0.109355
v -0.348075 0.023854 0.113768
v -0.349759 -0.010355 0.116016
v -0.348075 -0.044563 0.118266
v -0.343039 -0.078442 0.120494
v -0.811672 -0.268781 0.199350
v -0.811672 -0.269597 0.205870
v -0.811672 -0.272768 0.211558
v -0.811672 -0.309404 0.260799
v -0.811672 -0.171169 0.126591
v -0.811672 -0.270444 0.192995
v -0.811672 -0.274332 0.187769
v -0.811672 -0.317596 0.136219
v -0.811672 -0.286169 0.183599
v -0.811672 -0.300528 0.194973
v -0.811672 -0.279854 0.184470
v -0.811672 -0.301344 0.201492
v -0.811672 -0.292315 0.185289
v -0.811672 -0.297357 0.189283
v -0.688305 -0.300528 0.194972
v -0.688305 -0.297357 0.189283
v -0.688305 -0.292315 0.185289
v -0.688305 -0.285062 0.200420
v -0.688305 -0.283957 0.217242
v -0.688305 -0.301344 0.201491
v -0.688305 -0.290271 0.216372
v -0.688305 -0.268781 0.199350
v -0.688305 -0.270444 0.192995
v -0.688305 -0.277810 0.215552
v -0.688305 -0.274332 0.187769
v -0.688305 -0.295793 0.213073
v -0.688305 -0.269597 0.205870
v -0.688305 -0.286169 0.183599
v -0.688305 -0.299681 0.207848
v -0.688305 -0.272768 0.211558
v -0.688305 -0.279854 0.184469
v -0.811672 -0.277810 0.215552
v -0.811672 -0.283957 0.217242
v -0.811672 -0.290271 0.216372
v -0.811672 -0.295793 0.213073
v -0.811672 -0.299681 0.207848
v 0.811672 -0.309404 0.260799
v 0.811672 -0.283957 0.217243
v 0.811672 -0.301344 0.201492
v 0.811672 -0.317596 0.136219
v 0.811672 -0.290271 0.216372
v 0.811672 -0.295793 0.213074
v 0.811672 -0.272768 0.211559
v 0.811672 -0.299681 0.207848
v 0.811672 -0.277810 0.215553
v 0.688305 -0.272768 0.211559
v 0.688305 -0.277810 0.215553
v 0.688305 -0.283957 0.217243
v 0.688305 -0.285063 0.200421
v 0.688305 -0.290271 0.216372
v 0.688305 -0.279854 0.184470
v 0.688305 -0.299681 0.207848
v 0.688305 -0.286169 0.183600
v 0.688305 -0.269598 0.205870
v 0.688305 -0.295793 0.213074
v 0.688305 -0.292315 0.185289
v 0.688305 -0.268781 0.199350
v 0.688305 -0.300528 0.194973
v 0.688305 -0.274332 0.187769
v 0.688305 -0.297357 0.189283
v 0.688305 -0.270444 0.192995
v 0.688305 -0.301344 0.201492
v 0.811672 -0.300528 0.194973
v 0.811672 -0.297357 0.189283
v 0.811672 -0.292315 0.185289
v 0.811672 -0.286169 0.183599
v 0.811672 -0.279854 0.184470
v 0.811672 -0.274332 0.187769
v 0.811672 -0.270444 0.192995
v 0.811672 -0.268781 0.199350
v 0.811672 -0.269597 0.205870
vn -0.0000 0.0656 0.9978
vn 0.0491 0.9967 -0.0641
vn -1.0000 -0.0000 -0.0000
vn 0.9989 -0.0468 0.0093
vn -0.0491 0.9967 -0.0644
vn -0.0962 0.9917 -0.0855
vn -0.1467 0.9873 -0.0612
vn -0.0896 0.9489 0.3025
vn -0.0897 0.9489 0.3025
vn -0.2718 0.9127 0.3051
vn -0.2918 0.9532 -0.0795
vn -0.2430 0.9683 -0.0583
vn -0.3369 0.9398 -0.0565
vn -0.3369 0.9395 -0.0618
vn -0.2430 0.9679 -0.0636
vn -0.0000 -0.0656 -0.9978
vn -0.4276 0.9020 -0.0593
vn -0.5141 0.8559 -0.0563
vn -0.5957 0.8015 -0.0527
vn 0.4962 -0.8433 -0.2064
vn 0.5750 -0.7908 -0.2099
vn 0.6482 -0.7308 -0.2138
vn -0.7410 0.6701 -0.0441
vn -0.6716 0.7394 -0.0486
vn -0.8032 0.5944 -0.0391
vn -0.6772 -0.7330 0.0636
vn -0.6923 -0.7172 0.0798
vn 0.7152 -0.6640 -0.2182
vn -0.9040 0.4266 -0.0281
vn -0.8577 0.5130 -0.0337
vn -0.9415 0.3362 -0.0221
vn 0.8726 -0.4290 -0.2337
vn 0.9088 -0.3416 -0.2394
vn 0.9363 -0.2512 -0.2454
vn -0.9892 0.1464 -0.0096
vn -0.9700 0.2425 -0.0159
vn -0.9988 0.0490 -0.0032
vn 0.9641 -0.0644 -0.2577
vn 0.9548 -0.1585 -0.2515
vn -0.0000 0.9978 -0.0656
vn 1.0000 -0.0000 -0.0000
vn -0.9569 0.2897 -0.0190
vn -0.5615 0.7814 0.2722
vn -0.5660 0.2232 0.7936
vn -0.5877 0.1122 0.8013
vn -0.5879 0.1119 0.8012
vn -0.6465 0.1151 0.7541
vn -0.6465 -0.0153 0.7627
vn -0.6718 0.0486 0.7392
vn -0.5878 -0.0064 0.8090
vn -0.5877 -0.0060 0.8091
vn -0.5660 -0.1174 0.8160
vn -0.5615 -0.7390 0.3722
vn -0.0000 -0.9978 0.0656
vn -0.9569 -0.2897 0.0190
vn -0.8196 -0.4129 0.3972
vn -0.8204 -0.4107 0.3978
vn -0.7202 -0.5622 0.4065
vn -0.8829 -0.4696 0.0087
vn -0.8577 -0.5129 0.0350
vn -0.8032 -0.5943 0.0403
vn -0.7747 -0.6320 0.0218
vn -0.6365 -0.7705 0.0330
vn -0.5921 -0.6916 0.4136
vn -0.7188 -0.5645 0.4058
vn -0.6716 -0.7391 0.0521
vn -0.7409 -0.6699 0.0478
vn -0.5903 -0.6936 0.4128
vn -0.4407 -0.7939 0.4189
vn -0.4388 -0.7953 0.4183
vn 0.0001 0.0656 0.9978
vn -0.2717 -0.8647 0.4225
vn -0.2703 -0.8653 0.4220
vn 0.4837 -0.8733 0.0574
vn 0.4838 -0.8733 0.0574
vn -0.0000 -0.0655 -0.9978
vn -0.0474 0.9449 -0.3240
vn 0.9998 -0.0180 0.0062
vn 0.0474 0.9449 -0.3240
vn 1.0000 0.0030 0.0048
vn -0.0001 0.0656 0.9978
vn 0.0491 -0.9965 0.0670
vn 1.0000 0.0026 0.0061
vn -0.0491 -0.9966 0.0667
vn -0.0896 -0.9012 0.4241
vn -0.0897 -0.9011 0.4242
vn -0.0962 -0.9943 0.0451
vn 1.0000 0.0083 -0.0005
vn 1.0000 0.0020 -0.0033
vn 0.0897 -0.9012 0.4240
vn 1.0000 -0.0029 0.0002
vn -0.2345 0.9172 -0.3222
vn -0.3252 0.8897 -0.3204
vn -0.1416 0.9356 -0.3234
vn 0.1467 -0.9870 0.0649
vn 0.2430 -0.9679 0.0636
vn 0.3369 -0.9395 0.0618
vn -0.4127 0.8535 -0.3180
vn 0.8354 0.5464 -0.0605
vn 0.4276 -0.9020 0.0593
vn 0.5141 -0.8559 0.0563
vn 0.5957 -0.8015 0.0527
vn -0.6912 -0.7162 0.0970
vn -0.7182 -0.6925 0.0678
vn -0.6482 0.6965 -0.3077
vn -0.7152 0.6297 -0.3033
vn -0.0000 -0.0657 -0.9978
vn 0.6716 -0.7394 0.0486
vn 0.7410 -0.6701 0.0441
vn 0.8032 -0.5944 0.0391
vn -0.7753 0.5566 -0.2985
vn -0.8279 0.4780 -0.2933
vn -0.8726 0.3947 -0.2878
vn 0.8577 -0.5130 0.0337
vn 0.9040 -0.4266 0.0281
vn 0.9415 -0.3362 0.0221
vn 0.9700 -0.2425 0.0159
vn 0.9892 -0.1464 0.0096
vn 0.9988 -0.0490 0.0032
vn 0.9988 0.0490 -0.0032
vn 0.9892 0.1464 -0.0096
vn 0.9700 0.2425 -0.0159
vn 0.9415 0.3362 -0.0221
vn -0.8726 -0.4290 -0.2337
vn -0.9088 -0.3416 -0.2394
vn -0.5280 0.8451 -0.0831
vn -0.7912 -0.4986 -0.3541
vn -0.0000 -0.0655 -0.9979
vn 0.7188 -0.5645 0.4058
vn 0.7202 -0.5622 0.4065
vn 0.8196 -0.4129 0.3972
vn 0.8577 -0.5129 0.0350
vn 0.8032 -0.5943 0.0403
vn 0.8829 -0.4696 0.0087
vn 0.7747 -0.6320 0.0218
vn 0.8204 -0.4107 0.3978
vn 0.9415 -0.3362 0.0210
vn 0.9040 -0.4267 0.0270
vn 0.5615 -0.7390 0.3722
vn 0.5660 -0.1174 0.8160
vn 0.9571 -0.2896 -0.0052
vn 0.9700 -0.2426 0.0133
vn 0.9892 -0.1466 0.0069
vn 0.9988 -0.0490 0.0022
vn 0.9947 -0.1013 -0.0175
vn 0.9988 0.0489 -0.0042
vn 0.9947 0.0981 -0.0307
vn 0.9892 0.1462 -0.0124
vn 0.9700 0.2423 -0.0186
vn 0.9415 0.3361 -0.0232
vn 0.9571 0.2864 -0.0430
vn 0.9040 0.4266 -0.0291
vn 0.8829 0.4667 -0.0529
vn 0.5660 0.2232 0.7936
vn 0.5615 0.7814 0.2722
vn 0.8207 0.4594 0.3398
vn 0.8194 0.4613 0.3404
vn 0.8577 0.5131 -0.0325
vn 0.8032 0.5945 -0.0379
vn 0.7747 0.6294 -0.0612
vn 0.7205 0.6107 0.3284
vn 0.7186 0.6126 0.3291
vn 0.7409 0.6704 -0.0404
vn 0.6716 0.7396 -0.0452
vn 0.6365 0.7682 -0.0681
vn 0.5924 0.7401 0.3185
vn 0.5901 0.7416 0.3192
vn 0.5141 0.8562 -0.0513
vn 0.4735 0.8777 -0.0742
vn 0.5957 0.8018 -0.0471
vn 0.4409 0.8421 0.3105
vn 0.4387 0.8430 0.3112
vn 0.3369 0.9398 -0.0565
vn 0.2918 0.9532 -0.0795
vn 0.4275 0.9024 -0.0529
vn 0.2703 0.9130 0.3055
vn 0.2718 0.9127 0.3051
vn 0.0897 0.9489 0.3025
vn -0.4400 -0.8961 0.0589
vn -0.6248 -0.7791 0.0512
vn -0.5750 -0.7908 -0.2099
vn -0.6482 -0.7308 -0.2138
vn 0.6716 0.7394 -0.0486
vn 0.5957 0.8015 -0.0527
vn 0.5141 0.8559 -0.0563
vn 0.0001 -0.0656 -0.9978
vn 0.4276 0.9020 -0.0593
vn 0.3369 0.9395 -0.0618
vn -0.2345 -0.9515 -0.1993
vn -0.3252 -0.9240 -0.2011
vn -0.1416 -0.9699 -0.1981
vn -0.0474 -0.9792 -0.1975
vn 0.0491 0.9966 -0.0655
vn 0.1467 0.9870 -0.0649
vn 0.2430 0.9679 -0.0636
vn 0.2430 0.9683 -0.0583
vn 0.1467 0.9873 -0.0612
vn 0.9996 0.0280 0.0057
vn 0.0474 -0.9792 -0.1975
vn 0.1366 -0.9705 -0.1988
vn 0.1374 -0.9705 -0.1981
vn -0.4897 -0.8700 0.0572
vn -0.4898 -0.8700 0.0572
vn 1.0000 0.0077 -0.0005
vn -0.4127 -0.8878 -0.2035
vn -0.4962 -0.8433 -0.2064
vn 0.4400 -0.8961 0.0589
vn 0.6248 -0.7791 0.0512
vn -0.7186 0.6126 0.3291
vn -0.5901 0.7416 0.3192
vn -0.7205 0.6107 0.3284
vn -0.8207 0.4594 0.3398
vn -0.7747 0.6294 -0.0612
vn -0.8032 0.5945 -0.0379
vn -0.8577 0.5131 -0.0325
vn -0.8829 0.4667 -0.0529
vn -0.9040 0.4266 -0.0291
vn -0.9415 0.3361 -0.0232
vn -0.9571 0.2864 -0.0430
vn -0.9700 0.2423 -0.0186
vn -0.9892 0.1462 -0.0124
vn -0.9988 0.0489 -0.0042
vn -0.9947 0.0981 -0.0307
vn -0.9988 -0.0490 0.0022
vn -0.9947 -0.1013 -0.0175
vn -0.9892 -0.1466 0.0069
vn -0.0000 0.0657 0.9978
vn -0.9700 -0.2426 0.0133
vn -0.9571 -0.2896 -0.0052
vn -0.9415 -0.3362 0.0210
vn -0.9415 -0.3362 0.0221
vn -0.9040 -0.4266 0.0281
vn 0.9088 0.3073 -0.2821
vn 0.8726 0.3947 -0.2878
vn 0.9363 0.2169 -0.2762
vn 1.0000 -0.0000 0.0001
vn -0.0000 0.6161 0.7877
vn -0.0000 0.2628 0.9648
vn -0.0000 -0.1342 0.9910
vn -0.0000 -0.5077 0.8616
vn -0.0000 0.9920 0.1266
vn -0.0000 0.9668 -0.2554
vn -0.0000 0.1340 -0.9910
vn -0.0000 -0.2627 -0.9649
vn -0.0000 -0.6163 -0.7875
vn -0.0000 -0.8706 -0.4920
vn -0.0000 -0.8707 -0.4919
vn -0.0000 -0.9920 -0.1266
vn -0.0000 -0.9668 0.2554
vn -0.0000 -0.7988 0.6016
vn -0.0000 0.5080 -0.8614
vn -0.0000 0.7987 -0.6017
vn -0.0000 0.8707 0.4918
vn 0.6912 -0.7162 0.0970
vn 0.5495 0.7140 -0.4338
vn 0.7182 -0.6925 0.0678
vn 0.6482 0.6965 -0.3077
vn 0.7152 0.6297 -0.3033
vn -0.5957 -0.8015 0.0527
vn -0.6716 -0.7394 0.0486
vn -0.5141 -0.8559 0.0563
vn -0.4276 -0.9020 0.0593
vn -0.3369 -0.9395 0.0618
vn -0.2430 -0.9679 0.0636
vn -0.1467 -0.9870 0.0649
vn -0.0491 -0.9966 0.0655
vn 0.2345 0.9169 -0.3230
vn 0.1416 0.9354 -0.3239
vn 0.2438 0.9147 -0.3222
vn 0.2433 0.9149 -0.3222
vn 0.4897 0.8700 -0.0572
vn 0.3252 0.8897 -0.3204
vn -0.8507 0.5221 -0.0603
vn 0.4742 0.7642 -0.4371
vn -0.8354 0.5464 -0.0605
vn 0.4127 0.8535 -0.3180
vn 0.1172 0.9910 -0.0652
vn 0.4898 0.8700 -0.0572
vn 0.1378 0.9361 -0.3235
vn 0.1401 0.9365 -0.3214
vn -0.1467 -0.9868 0.0686
vn -0.2430 -0.9676 0.0690
vn -0.3369 -0.9392 0.0670
vn -0.2918 -0.9554 0.0460
vn -0.4275 -0.9016 0.0657
vn -0.4735 -0.8798 0.0414
vn -0.5141 -0.8555 0.0613
vn -0.5957 -0.8011 0.0583
vn -0.7410 -0.6701 0.0441
vn -0.8032 -0.5944 0.0391
vn -0.8577 -0.5130 0.0337
vn 0.8279 0.4780 -0.2933
vn 0.7753 0.5566 -0.2985
vn 0.9548 0.1242 -0.2701
vn 0.9641 0.0301 -0.2639
vn -0.9892 -0.1464 0.0096
vn -0.9700 -0.2425 0.0159
vn -0.9988 -0.0490 0.0032
vn -0.9040 -0.4267 0.0270
vn -0.7409 0.6703 -0.0404
vn -0.6716 0.7396 -0.0451
vn -0.5957 0.8018 -0.0471
vn -0.6365 0.7682 -0.0681
vn -0.4735 0.8777 -0.0742
vn -0.4409 0.8421 0.3105
vn -0.5924 0.7400 0.3185
vn -0.4387 0.8430 0.3112
vn -0.5141 0.8562 -0.0512
vn -0.4276 0.9024 -0.0529
vn -0.8194 0.4613 0.3404
vn 0.7912 -0.4986 -0.3541
vn 0.7409 -0.5737 -0.3492
vn 0.5280 0.8451 -0.0831
vn 0.5489 0.8321 -0.0792
vn -0.2703 0.9130 0.3055
vn 0.4127 -0.8878 -0.2035
vn 0.3252 -0.9240 -0.2011
vn 0.2411 -0.9498 -0.1995
vn 0.2438 -0.9489 -0.2002
vn 0.2437 -0.9490 -0.2002
vn 0.2345 -0.9513 -0.1999
vn 0.1416 -0.9698 -0.1986
vn -0.1467 0.9870 -0.0649
vn -0.0491 0.9966 -0.0655
vn 1.0000 -0.0020 0.0001
vn 1.0000 -0.0019 0.0011
vn 0.7410 0.6701 -0.0441
vn 0.8032 0.5944 -0.0391
vn 0.8577 0.5130 -0.0337
vn 0.9040 0.4266 -0.0281
vn 0.6923 -0.7172 0.0798
vn 0.6772 -0.7330 0.0636
vn -0.7152 -0.6640 -0.2182
vn -0.7409 -0.5737 -0.3492
vn 1.0000 -0.0075 -0.0046
vn 0.0968 0.9916 -0.0852
vn 0.0902 0.9489 0.3023
vn 0.9569 0.2897 -0.0190
vn 0.6465 0.1151 0.7541
vn 0.6718 0.0486 0.7392
vn 0.5877 -0.0060 0.8091
vn 0.5877 0.1122 0.8013
vn 0.6465 -0.0153 0.7627
vn 0.5878 -0.0064 0.8090
vn 0.5879 0.1119 0.8012
vn 0.7409 -0.6699 0.0478
vn 0.6716 -0.7391 0.0521
vn 0.6365 -0.7705 0.0330
vn 0.5957 -0.8011 0.0583
vn 0.5141 -0.8555 0.0613
vn 0.4735 -0.8798 0.0414
vn 0.4275 -0.9016 0.0657
vn 0.3369 -0.9392 0.0670
vn 0.2430 -0.9676 0.0690
vn 0.2918 -0.9554 0.0460
vn 0.1467 -0.9868 0.0686
vn 0.0968 -0.9943 0.0454
vn 0.0902 -0.9011 0.4242
vn 0.2703 -0.8653 0.4220
vn 0.2717 -0.8647 0.4225
vn 0.4407 -0.7939 0.4189
vn 0.4388 -0.7953 0.4183
vn 0.5903 -0.6936 0.4128
vn 0.5921 -0.6916 0.4136
vn -0.1172 0.9910 -0.0652
vn -0.4742 0.7642 -0.4371
vn -0.5495 0.7140 -0.4338
vn -0.0000 -0.9919 -0.1266
vn -0.0000 0.6162 0.7876
vn -0.0000 0.2627 0.9649
vn -0.0000 -0.1340 0.9910
vn -0.0000 -0.5078 0.8615
vn -0.0000 -0.7988 0.6017
vn -0.0000 0.5079 -0.8614
vn -0.0000 0.1342 -0.9910
vn -0.0000 -0.2628 -0.9648
vn -0.0000 -0.8707 -0.4918
vn -0.0000 -0.6162 -0.7876
vn 0.9569 -0.2897 0.0190
vn -0.9088 0.3073 -0.2821
vn -0.9363 0.2169 -0.2762
vn -0.9548 0.1242 -0.2701
vn -0.9641 0.0301 -0.2639
vn -0.9641 -0.0644 -0.2577
vn -0.9548 -0.1585 -0.2515
vn -0.9363 -0.2512 -0.2454
vn -0.2540 -0.9651 0.0635
vn -0.0000 0.8735 0.4868
vn -0.0000 0.6209 0.7839
vn -0.0000 -0.1364 0.9906
vn -0.0000 -0.5129 0.8585
vn -0.0000 -0.5130 0.8584
vn -0.0000 -0.8735 -0.4868
vn -0.0000 -0.6209 -0.7839
vn -1.0000 0.0001 -0.0000
vn -0.0000 -0.2651 -0.9642
vn -0.0000 0.1364 -0.9906
vn -0.0000 0.5130 -0.8584
vn -0.0000 0.8023 -0.5970
vn -0.0000 0.9674 -0.2531
vn -0.0000 0.9675 -0.2531
vn -0.0000 -0.1366 0.9906
vn -0.0000 0.2651 0.9642
vn -0.0000 -0.9923 -0.1242
vn -0.0000 -0.8023 0.5969
vn -0.0000 -0.9674 0.2531
vn -0.0000 0.9923 0.1242
vn -0.5489 0.8321 -0.0792
vn 0.8507 0.5221 -0.0603
vn 0.0491 -0.9966 0.0655
vn 0.2540 -0.9651 0.0635
vn -0.0000 0.2650 0.9643
vn -0.0000 -0.9923 -0.1243
vn -0.0000 0.8023 -0.5969
vn -0.0000 0.5128 -0.8585
vn -0.0000 0.1366 -0.9906
s 0
usemtl Material.009
f 1//1 2//1 3//1
f 2//1 1//1 8//1
f 1//2 3//2 5//2
f 4//3 6//3 1//3
f 4//3 1//3 8//3
f 1//4 5//4 6//4
f 1//3 6//3 7//3
f 1//5 7//5 10//5
f 9//1 8//1 1//1
f 1//1 10//1 9//1
f 13//6 10//6 7//6
f 10//1 11//1 12//1
f 11//7 10//7 13//7
f 12//1 9//1 10//1
f 13//8 7//8 14//8
f 14//9 15//9 13//9
f 16//10 13//10 15//10
f 16//11 17//11 13//11
f 11//12 13//12 17//12
f 17//1 18//1 19//1
f 18//13 17//13 16//13
f 11//1 17//1 20//1
f 19//1 20//1 17//1
f 22//14 20//14 19//14
f 21//15 12//15 20//15
f 20//1 12//1 11//1
f 20//15 22//15 21//15
f 23//16 21//16 22//16
f 22//16 24//16 23//16
f 24//16 22//16 25//16
f 19//14 25//14 22//14
f 25//17 19//17 26//17
f 26//17 28//17 25//17
f 27//16 25//16 28//16
f 25//16 27//16 24//16
f 28//18 26//18 29//18
f 29//18 31//18 28//18
f 30//16 28//16 31//16
f 28//16 30//16 27//16
f 31//19 29//19 32//19
f 32//19 33//19 31//19
f 34//16 31//16 33//16
f 31//16 34//16 30//16
f 35//20 30//20 34//20
f 34//20 36//20 35//20
f 36//21 34//21 37//21
f 33//16 37//16 34//16
f 37//21 38//21 36//21
f 38//22 37//22 39//22
f 40//16 39//16 37//16
f 37//16 33//16 40//16
f 40//23 42//23 41//23
f 41//23 43//23 40//23
f 42//24 40//24 33//24
f 39//16 40//16 43//16
f 43//25 41//25 44//25
f 44//25 45//25 43//25
f 46//16 43//16 45//16
f 43//16 46//16 39//16
f 47//26 49//26 46//26
f 46//27 48//27 47//27
f 48//16 46//16 51//16
f 46//28 49//28 50//28
f 50//28 39//28 46//28
f 45//16 51//16 46//16
f 51//16 52//16 48//16
f 52//16 51//16 53//16
f 54//16 53//16 51//16
f 51//16 45//16 54//16
f 54//29 56//29 55//29
f 55//29 57//29 54//29
f 56//30 54//30 45//30
f 53//16 54//16 57//16
f 57//31 55//31 58//31
f 58//31 59//31 57//31
f 60//16 57//16 59//16
f 57//16 60//16 53//16
f 62//32 53//32 60//32
f 60//32 61//32 62//32
f 61//33 60//33 63//33
f 59//16 63//16 60//16
f 63//33 64//33 61//33
f 64//34 63//34 65//34
f 66//16 65//16 63//16
f 63//16 59//16 66//16
f 66//35 67//35 68//35
f 67//36 66//36 59//36
f 68//35 69//35 66//35
f 65//16 66//16 69//16
f 69//37 68//37 70//37
f 70//37 71//37 69//37
f 72//16 69//16 71//16
f 69//16 72//16 65//16
f 74//38 72//38 73//38
f 71//16 73//16 72//16
f 75//39 65//39 72//39
f 72//39 74//39 75//39
f 75//16 74//16 76//16
f 64//16 75//16 76//16
f 65//34 75//34 64//34
f 81//16 76//16 74//16
f 76//16 77//16 80//16
f 78//40 77//40 76//40
f 76//40 82//40 78//40
f 79//16 61//16 76//16
f 79//16 76//16 80//16
f 82//41 76//41 81//41
f 61//16 64//16 76//16
f 82//1 85//1 78//1
f 84//1 82//1 83//1
f 83//1 82//1 87//1
f 84//1 85//1 82//1
f 81//41 86//41 82//41
f 82//1 86//1 87//1
f 87//1 86//1 88//1
f 87//3 88//3 90//3
f 83//1 87//1 91//1
f 90//3 89//3 87//3
f 91//40 87//40 89//40
f 91//42 93//42 92//42
f 83//1 91//1 92//1
f 89//40 93//40 91//40
f 93//43 94//43 92//43
f 93//44 96//44 94//44
f 93//45 97//45 95//45
f 95//46 96//46 93//46
f 89//47 97//47 93//47
f 97//48 90//48 99//48
f 89//49 90//49 97//49
f 97//50 99//50 98//50
f 98//51 95//51 97//51
f 98//52 99//52 100//52
f 99//53 101//53 100//53
f 99//54 90//54 88//54
f 88//54 102//54 99//54
f 99//55 102//55 101//55
f 88//1 101//1 102//1
f 88//1 103//1 101//1
f 101//56 103//56 104//56
f 104//57 100//57 101//57
f 108//58 104//58 103//58
f 105//59 100//59 104//59
f 106//60 105//60 104//60
f 107//61 106//61 104//61
f 107//62 104//62 108//62
f 109//63 110//63 108//63
f 109//64 108//64 112//64
f 103//65 112//65 108//65
f 108//66 110//66 111//66
f 108//67 111//67 107//67
f 112//1 113//1 114//1
f 113//1 112//1 115//1
f 115//1 112//1 103//1
f 112//1 114//1 116//1
f 112//68 116//68 109//68
f 117//69 109//69 116//69
f 116//70 118//70 117//70
f 116//1 114//1 118//1
f 118//1 119//1 122//1
f 118//71 123//71 119//71
f 114//1 120//1 118//1
f 118//1 120//1 123//1
f 121//72 117//72 118//72
f 118//73 122//73 121//73
f 124//1 123//1 129//1
f 123//1 124//1 127//1
f 126//74 123//74 124//74
f 128//3 125//3 123//3
f 123//41 125//41 126//41
f 125//41 123//41 119//41
f 123//3 126//3 128//3
f 123//1 127//1 119//1
f 129//1 123//1 120//1
f 131//3 130//3 129//3
f 129//54 130//54 133//54
f 129//3 132//3 131//3
f 120//1 132//1 129//1
f 133//54 124//54 129//54
f 137//16 134//16 133//16
f 136//40 133//40 134//40
f 135//16 137//16 133//16
f 135//16 133//16 126//16
f 133//40 136//40 124//40
f 124//75 133//75 126//75
f 133//76 130//76 126//76
f 138//16 134//16 137//16
f 140//77 138//77 137//77
f 139//16 137//16 135//16
f 139//78 140//78 137//78
f 141//3 140//3 146//3
f 141//40 142//40 140//40
f 142//79 143//79 140//79
f 140//79 143//79 145//79
f 138//77 140//77 144//77
f 139//80 146//80 140//80
f 140//77 145//77 144//77
f 140//3 145//3 146//3
f 151//81 146//81 147//81
f 148//71 147//71 146//71
f 149//3 147//3 146//3
f 150//82 148//82 146//82
f 146//83 139//83 150//83
f 145//3 149//3 146//3
f 152//84 146//84 151//84
f 146//3 152//3 141//3
f 152//85 121//85 122//85
f 122//86 153//86 152//86
f 152//87 151//87 121//87
f 141//3 152//3 153//3
f 153//88 139//88 154//88
f 139//89 153//89 150//89
f 154//1 156//1 153//1
f 155//90 150//90 153//90
f 155//1 153//1 156//1
f 153//3 157//3 141//3
f 153//1 127//1 157//1
f 122//1 127//1 153//1
f 141//40 157//40 127//40
f 158//1 155//1 156//1
f 159//1 158//1 156//1
f 160//40 159//40 156//40
f 161//40 160//40 156//40
f 156//1 136//1 161//1
f 136//1 156//1 154//1
f 136//91 162//91 161//91
f 160//40 161//40 162//40
f 162//91 136//91 134//91
f 134//16 160//16 162//16
f 159//40 160//40 166//40
f 164//16 163//16 160//16
f 160//16 163//16 166//16
f 167//16 164//16 160//16
f 134//16 165//16 160//16
f 167//16 160//16 165//16
f 167//92 169//92 168//92
f 168//93 164//93 167//93
f 169//92 167//92 165//92
f 165//94 144//94 169//94
f 171//16 168//16 169//16
f 169//16 170//16 171//16
f 170//16 169//16 144//16
f 171//95 173//95 172//95
f 172//96 174//96 171//96
f 173//95 171//95 170//95
f 168//16 171//16 174//16
f 174//96 172//96 175//96
f 175//97 176//97 174//97
f 174//16 177//16 168//16
f 177//16 174//16 176//16
f 164//93 168//93 177//93
f 177//98 178//98 164//98
f 178//98 177//98 179//98
f 176//16 179//16 177//16
f 180//16 179//16 182//16
f 179//16 180//16 181//16
f 181//99 178//99 179//99
f 183//16 182//16 179//16
f 179//16 176//16 183//16
f 183//100 184//100 185//100
f 184//100 183//100 176//100
f 185//101 186//101 183//101
f 182//16 183//16 186//16
f 186//101 185//101 187//101
f 187//102 188//102 186//102
f 189//16 186//16 188//16
f 186//16 189//16 182//16
f 189//103 191//103 190//103
f 190//16 182//16 189//16
f 191//104 189//104 193//104
f 192//105 189//105 194//105
f 189//105 192//105 193//105
f 188//16 194//16 189//16
f 194//106 195//106 192//106
f 195//106 194//106 196//106
f 197//16 196//16 194//16
f 194//107 188//107 197//107
f 197//108 199//108 198//108
f 198//109 200//109 197//109
f 199//108 197//108 188//108
f 196//16 197//16 200//16
f 200//109 198//109 201//109
f 201//110 202//110 200//110
f 203//16 200//16 202//16
f 200//16 203//16 196//16
f 204//111 196//111 203//111
f 203//112 205//112 204//112
f 205//112 203//112 206//112
f 202//16 206//16 203//16
f 207//113 206//113 208//113
f 206//113 207//113 205//113
f 209//16 208//16 206//16
f 206//16 202//16 209//16
f 209//114 210//114 211//114
f 210//114 209//114 202//114
f 211//115 212//115 209//115
f 208//16 209//16 212//16
f 212//115 211//115 213//115
f 213//116 215//116 212//116
f 214//16 212//16 215//16
f 212//16 214//16 208//16
f 215//116 213//116 216//116
f 216//117 218//117 215//117
f 215//16 217//16 214//16
f 217//16 215//16 218//16
f 218//117 216//117 219//117
f 219//118 221//118 218//118
f 220//16 218//16 221//16
f 218//107 220//107 217//107
f 221//118 219//118 222//118
f 222//119 224//119 221//119
f 223//16 221//16 224//16
f 221//16 223//16 220//16
f 224//119 222//119 225//119
f 225//120 227//120 224//120
f 224//16 226//16 223//16
f 226//16 224//16 227//16
f 227//120 225//120 228//120
f 228//121 230//121 227//121
f 229//16 227//16 230//16
f 227//16 229//16 226//16
f 230//121 228//121 231//121
f 231//122 233//122 230//122
f 232//16 230//16 233//16
f 230//16 232//16 229//16
f 233//122 231//122 234//122
f 234//123 235//123 233//123
f 233//16 236//16 232//16
f 236//16 233//16 235//16
f 237//124 236//124 238//124
f 236//124 237//124 239//124
f 239//125 232//125 236//125
f 235//16 238//16 236//16
f 239//16 241//16 240//16
f 232//125 239//125 240//125
f 242//16 241//16 239//16
f 242//16 239//16 237//16
f 242//16 245//16 241//16
f 237//126 243//126 242//126
f 243//127 244//127 242//127
f 246//16 242//16 244//16
f 246//16 245//16 242//16
f 246//128 249//128 247//128
f 247//54 250//54 246//54
f 248//54 246//54 250//54
f 246//54 248//54 245//54
f 246//16 244//16 249//16
f 250//1 251//1 252//1
f 250//54 247//54 251//54
f 250//1 252//1 248//1
f 252//1 253//1 248//1
f 241//40 253//40 252//40
f 252//3 255//3 241//3
f 251//1 254//1 252//1
f 252//1 254//1 256//1
f 255//3 252//3 256//3
f 254//1 259//1 256//1
f 257//3 256//3 258//3
f 256//3 257//3 255//3
f 258//1 256//1 259//1
f 254//41 262//41 259//41
f 259//1 260//1 263//1
f 259//54 261//54 260//54
f 261//54 259//54 262//54
f 259//1 263//1 264//1
f 258//1 259//1 264//1
f 258//1 264//1 265//1
f 264//129 266//129 265//129
f 266//130 264//130 267//130
f 263//131 267//131 264//131
f 268//132 267//132 269//132
f 270//133 267//133 268//133
f 269//134 267//134 271//134
f 270//135 266//135 267//135
f 267//136 263//136 271//136
f 272//137 271//137 274//137
f 269//138 271//138 272//138
f 261//139 271//139 263//139
f 273//140 271//140 261//140
f 274//141 271//141 273//141
f 274//1 213//1 272//1
f 213//1 274//1 216//1
f 275//1 216//1 274//1
f 274//142 273//142 275//142
f 216//1 275//1 219//1
f 276//1 219//1 275//1
f 275//143 273//143 276//143
f 276//144 277//144 278//144
f 276//145 273//145 277//145
f 278//1 222//1 276//1
f 219//1 276//1 222//1
f 277//146 279//146 278//146
f 279//1 225//1 278//1
f 222//1 278//1 225//1
f 280//147 279//147 277//147
f 280//148 281//148 279//148
f 281//1 228//1 279//1
f 225//1 279//1 228//1
f 282//1 231//1 281//1
f 228//1 281//1 231//1
f 280//149 282//149 281//149
f 283//1 234//1 282//1
f 284//150 283//150 282//150
f 231//1 282//1 234//1
f 284//151 282//151 280//151
f 284//152 285//152 283//152
f 289//153 285//153 284//153
f 286//154 284//154 280//154
f 286//155 288//155 284//155
f 284//156 287//156 289//156
f 287//157 284//157 288//157
f 289//158 290//158 285//158
f 289//159 291//159 290//159
f 293//160 291//160 289//160
f 289//161 292//161 293//161
f 292//162 289//162 287//162
f 295//163 291//163 293//163
f 295//164 293//164 294//164
f 293//165 297//165 294//165
f 293//166 296//166 297//166
f 296//167 293//167 292//167
f 299//168 297//168 298//168
f 297//169 301//169 298//169
f 299//170 294//170 297//170
f 297//171 300//171 301//171
f 300//172 297//172 296//172
f 303//173 301//173 302//173
f 301//174 304//174 302//174
f 303//175 298//175 301//175
f 305//176 301//176 300//176
f 301//177 305//177 304//177
f 307//1 306//1 305//1
f 306//1 14//1 305//1
f 307//1 305//1 308//1
f 300//1 308//1 305//1
f 14//178 304//178 305//178
f 296//1 308//1 300//1
f 308//1 296//1 311//1
f 309//54 307//54 308//54
f 308//179 310//179 309//179
f 310//179 308//179 311//179
f 292//1 311//1 296//1
f 311//1 292//1 313//1
f 312//180 311//180 313//180
f 311//180 312//180 310//180
f 287//1 313//1 292//1
f 313//1 287//1 251//1
f 247//54 313//54 251//54
f 313//54 247//54 312//54
f 316//16 312//16 314//16
f 314//16 312//16 315//16
f 312//16 249//16 315//16
f 247//128 249//128 312//128
f 310//16 312//16 316//16
f 317//16 310//16 316//16
f 319//181 317//181 316//181
f 316//182 318//182 319//182
f 318//182 316//182 314//182
f 317//181 319//181 320//181
f 322//16 320//16 319//16
f 319//16 321//16 322//16
f 321//16 319//16 318//16
f 322//183 324//183 323//183
f 323//184 325//184 322//184
f 324//183 322//183 321//183
f 320//16 322//16 325//16
f 325//184 323//184 326//184
f 326//185 328//185 325//185
f 327//186 325//186 328//186
f 325//16 327//16 320//16
f 329//16 328//16 331//16
f 328//16 329//16 327//16
f 328//185 326//185 330//185
f 330//187 331//187 328//187
f 331//187 330//187 332//187
f 332//188 333//188 331//188
f 334//16 331//16 333//16
f 331//16 334//16 329//16
f 335//189 334//189 337//189
f 334//189 335//189 336//189
f 336//190 329//190 334//190
f 333//16 337//16 334//16
f 337//191 339//191 335//191
f 337//16 333//16 338//16
f 338//16 340//16 337//16
f 339//191 337//191 340//191
f 340//16 338//16 341//16
f 341//16 6//16 340//16
f 6//192 339//192 340//192
f 6//16 341//16 4//16
f 2//193 4//193 341//193
f 341//194 342//194 2//194
f 342//194 341//194 338//194
f 3//1 342//1 343//1
f 344//1 343//1 342//1
f 342//1 3//1 2//1
f 338//195 344//195 342//195
f 343//81 344//81 302//81
f 333//188 332//188 344//188
f 332//1 302//1 344//1
f 344//195 338//195 333//195
f 343//196 302//196 304//196
f 343//197 304//197 3//197
f 345//16 335//16 339//16
f 345//16 339//16 346//16
f 339//192 347//192 346//192
f 339//192 6//192 347//192
f 347//198 348//198 346//198
f 348//198 347//198 6//198
f 349//199 347//199 6//199
f 350//3 6//3 347//3
f 349//199 351//199 347//199
f 350//54 347//54 351//54
f 351//200 353//200 352//200
f 354//54 351//54 352//54
f 349//201 353//201 351//201
f 351//54 354//54 350//54
f 353//75 355//75 354//75
f 356//75 354//75 355//75
f 358//16 354//16 355//16
f 354//75 355//75 357//75
f 357//74 356//74 354//74
f 354//40 306//40 356//40
f 350//54 354//54 356//54
f 354//75 352//75 353//75
f 346//16 348//16 354//16
f 306//40 354//40 348//40
f 359//16 346//16 354//16
f 359//16 354//16 358//16
f 359//16 358//16 360//16
f 345//16 346//16 359//16
f 363//54 345//54 359//54
f 361//16 359//16 360//16
f 362//202 359//202 360//202
f 363//40 359//40 361//40
f 359//203 362//203 363//203
f 364//1 362//1 363//1
f 361//40 364//40 363//40
f 357//1 363//1 362//1
f 363//1 306//1 365//1
f 306//1 363//1 356//1
f 357//1 356//1 363//1
f 345//54 363//54 365//54
f 307//1 365//1 306//1
f 307//1 367//1 365//1
f 365//204 366//204 345//204
f 366//204 365//204 367//204
f 368//1 364//1 367//1
f 366//3 367//3 364//3
f 369//54 368//54 367//54
f 367//54 366//54 369//54
f 367//54 370//54 366//54
f 370//54 367//54 307//54
f 370//16 336//16 335//16
f 370//16 335//16 345//16
f 309//16 371//16 370//16
f 370//16 371//16 336//16
f 370//16 345//16 366//16
f 307//54 309//54 370//54
f 329//190 336//190 371//190
f 371//205 327//205 329//205
f 327//205 371//205 372//205
f 309//16 372//16 371//16
f 372//206 320//206 327//206
f 320//206 372//206 317//206
f 372//16 310//16 317//16
f 309//16 310//16 372//16
f 369//16 361//16 360//16
f 369//16 366//16 361//16
f 369//16 358//16 373//16
f 369//16 373//16 374//16
f 375//16 369//16 374//16
f 368//54 369//54 375//54
f 369//16 360//16 358//16
f 375//16 35//16 376//16
f 377//207 375//207 376//207
f 375//16 374//16 35//16
f 375//54 377//54 368//54
f 378//81 377//81 357//81
f 362//1 377//1 378//1
f 368//1 377//1 362//1
f 357//1 377//1 15//1
f 379//1 15//1 377//1
f 380//1 379//1 377//1
f 377//1 381//1 380//1
f 376//207 381//207 377//207
f 382//208 383//208 381//208
f 381//208 376//208 382//208
f 381//1 383//1 384//1
f 384//1 380//1 381//1
f 385//1 384//1 383//1
f 384//209 385//209 387//209
f 380//210 384//210 386//210
f 387//211 386//211 384//211
f 94//212 387//212 385//212
f 386//213 387//213 388//213
f 387//214 389//214 388//214
f 387//215 390//215 389//215
f 387//216 94//216 390//216
f 389//1 390//1 56//1
f 55//1 56//1 390//1
f 390//1 391//1 55//1
f 94//217 391//217 390//217
f 391//1 392//1 58//1
f 58//1 55//1 391//1
f 94//218 392//218 391//218
f 94//219 96//219 392//219
f 392//1 393//1 67//1
f 67//1 58//1 392//1
f 96//220 393//220 392//220
f 68//1 67//1 393//1
f 393//1 394//1 68//1
f 96//221 394//221 393//221
f 394//1 395//1 70//1
f 70//1 68//1 394//1
f 95//222 395//222 394//222
f 96//223 95//223 394//223
f 396//1 70//1 395//1
f 395//1 397//1 396//1
f 397//224 395//224 95//224
f 397//1 399//1 398//1
f 398//1 396//1 397//1
f 397//225 95//225 98//225
f 399//226 397//226 98//226
f 400//227 398//227 399//227
f 399//1 401//1 400//1
f 401//228 399//228 98//228
f 401//229 98//229 100//229
f 402//230 401//230 100//230
f 401//1 402//1 403//1
f 403//1 400//1 401//1
f 405//231 400//231 403//231
f 406//232 403//232 404//232
f 404//1 403//1 402//1
f 403//231 406//231 405//231
f 404//232 407//232 406//232
f 409//16 406//16 407//16
f 408//16 405//16 406//16
f 406//16 409//16 408//16
f 412//233 408//233 409//233
f 411//234 409//234 410//234
f 407//16 410//16 409//16
f 409//233 411//233 412//233
f 408//235 412//235 413//235
f 413//16 412//16 414//16
f 412//16 411//16 414//16
f 414//16 415//16 416//16
f 419//16 415//16 414//16
f 420//16 414//16 416//16
f 411//16 418//16 414//16
f 417//16 419//16 414//16
f 418//16 417//16 414//16
f 115//54 414//54 420//54
f 414//41 115//41 86//41
f 86//41 81//41 414//41
f 413//16 414//16 81//16
f 416//41 425//41 420//41
f 424//41 420//41 421//41
f 421//41 420//41 423//41
f 423//41 420//41 422//41
f 422//236 420//236 425//236
f 420//54 424//54 115//54
f 428//41 425//41 416//41
f 425//237 427//237 426//237
f 426//237 422//237 425//237
f 427//238 425//238 428//238
f 430//41 428//41 416//41
f 428//238 429//238 427//238
f 429//239 428//239 430//239
f 431//41 430//41 416//41
f 432//240 430//240 431//240
f 430//239 432//239 429//239
f 431//240 433//240 432//240
f 433//41 434//41 432//41
f 432//41 434//41 429//41
f 439//41 434//41 435//41
f 435//41 434//41 444//41
f 443//41 434//41 436//41
f 436//41 434//41 438//41
f 437//41 434//41 439//41
f 445//41 434//41 437//41
f 429//41 434//41 427//41
f 438//41 434//41 440//41
f 427//41 434//41 426//41
f 440//41 434//41 442//41
f 426//41 434//41 441//41
f 441//41 434//41 445//41
f 442//41 434//41 433//41
f 444//41 434//41 443//41
f 423//241 441//241 445//241
f 445//241 421//241 423//241
f 421//242 445//242 437//242
f 446//243 435//243 444//243
f 444//243 447//243 446//243
f 447//244 444//244 443//244
f 448//41 424//41 447//41
f 448//236 447//236 449//236
f 447//41 424//41 446//41
f 443//244 449//244 447//244
f 448//41 449//41 450//41
f 449//245 443//245 436//245
f 436//245 450//245 449//245
f 448//41 450//41 451//41
f 438//246 451//246 450//246
f 450//247 436//247 438//247
f 448//41 451//41 452//41
f 440//248 452//248 451//248
f 451//248 438//248 440//248
f 453//41 416//41 452//41
f 452//41 416//41 448//41
f 442//249 453//249 452//249
f 452//249 440//249 442//249
f 453//250 442//250 433//250
f 416//41 453//41 431//41
f 433//250 431//250 453//250
f 424//1 448//1 115//1
f 115//1 448//1 113//1
f 113//40 448//40 416//40
f 435//251 446//251 454//251
f 446//41 424//41 454//41
f 454//41 424//41 455//41
f 454//251 439//251 435//251
f 439//252 454//252 455//252
f 455//41 424//41 421//41
f 437//242 455//242 421//242
f 455//252 437//252 439//252
f 441//253 423//253 422//253
f 422//253 426//253 441//253
f 417//16 459//16 419//16
f 458//254 456//254 419//254
f 419//255 456//255 460//255
f 419//16 457//16 415//16
f 460//255 457//255 419//255
f 419//256 462//256 458//256
f 459//16 461//16 419//16
f 461//16 462//16 419//16
f 458//257 462//257 461//257
f 461//257 463//257 458//257
f 463//258 461//258 459//258
f 459//258 464//258 463//258
f 465//16 463//16 464//16
f 466//16 458//16 463//16
f 463//16 465//16 466//16
f 466//259 468//259 467//259
f 467//259 469//259 466//259
f 468//260 466//260 465//260
f 458//16 466//16 469//16
f 471//16 469//16 470//16
f 472//261 470//261 469//261
f 469//261 467//261 472//261
f 469//16 471//16 458//16
f 473//1 474//1 472//1
f 472//1 467//1 473//1
f 470//262 472//262 475//262
f 475//1 472//1 474//1
f 476//263 475//263 478//263
f 475//262 476//262 470//262
f 474//1 477//1 475//1
f 478//1 475//1 477//1
f 478//263 479//263 476//263
f 479//264 478//264 481//264
f 477//1 480//1 478//1
f 481//1 478//1 480//1
f 481//264 482//264 479//264
f 482//265 481//265 484//265
f 480//1 483//1 481//1
f 484//1 481//1 483//1
f 485//266 484//266 147//266
f 484//265 485//265 482//265
f 483//1 151//1 484//1
f 147//1 484//1 151//1
f 486//16 482//16 485//16
f 485//16 143//16 486//16
f 143//16 485//16 149//16
f 147//266 149//266 485//266
f 482//16 486//16 487//16
f 486//267 489//267 487//267
f 143//268 488//268 486//268
f 488//267 489//267 486//267
f 128//3 489//3 125//3
f 490//269 489//269 128//269
f 490//270 487//270 489//270
f 125//271 489//271 488//271
f 490//16 128//16 492//16
f 487//272 490//272 491//272
f 490//16 492//16 491//16
f 130//16 492//16 126//16
f 492//16 128//16 126//16
f 491//16 492//16 494//16
f 492//40 120//40 114//40
f 114//40 493//40 492//40
f 492//16 493//16 494//16
f 130//16 131//16 492//16
f 492//40 131//40 132//40
f 132//40 120//40 492//40
f 494//16 493//16 457//16
f 495//16 491//16 494//16
f 495//273 494//273 496//273
f 496//274 494//274 457//274
f 496//275 497//275 495//275
f 497//16 496//16 460//16
f 457//274 460//274 496//274
f 460//16 471//16 497//16
f 470//16 497//16 471//16
f 495//276 497//276 498//276
f 476//16 498//16 497//16
f 497//16 470//16 476//16
f 498//276 491//276 495//276
f 491//272 498//272 487//272
f 498//16 476//16 479//16
f 479//16 487//16 498//16
f 493//16 415//16 457//16
f 415//277 493//277 114//277
f 125//278 488//278 135//278
f 142//279 488//279 143//279
f 499//280 488//280 142//280
f 135//271 488//271 499//271
f 135//40 499//40 142//40
f 487//16 479//16 482//16
f 121//281 151//281 483//281
f 121//282 483//282 480//282
f 117//283 480//283 477//283
f 121//284 480//284 117//284
f 117//285 477//285 474//285
f 117//286 474//286 109//286
f 109//287 474//287 473//287
f 110//227 473//227 467//227
f 109//288 473//288 110//288
f 456//16 458//16 471//16
f 471//16 460//16 456//16
f 465//260 500//260 468//260
f 467//1 468//1 110//1
f 468//1 500//1 111//1
f 111//1 110//1 468//1
f 501//289 502//289 500//289
f 500//289 465//289 501//289
f 500//1 502//1 107//1
f 107//1 111//1 500//1
f 503//290 504//290 502//290
f 502//290 501//290 503//290
f 106//1 107//1 502//1
f 502//1 504//1 106//1
f 407//291 404//291 504//291
f 504//227 404//227 105//227
f 105//1 106//1 504//1
f 504//291 503//291 407//291
f 505//16 503//16 501//16
f 410//107 407//107 503//107
f 503//16 505//16 410//16
f 418//292 410//292 505//292
f 417//293 505//293 464//293
f 501//16 464//16 505//16
f 505//292 417//292 418//292
f 464//16 501//16 465//16
f 464//293 459//293 417//293
f 410//234 418//234 411//234
f 416//40 415//40 113//40
f 114//277 113//277 415//277
f 506//294 413//294 507//294
f 413//235 506//235 408//235
f 507//16 413//16 81//16
f 507//294 508//294 506//294
f 508//295 507//295 509//295
f 81//16 509//16 507//16
f 509//295 73//295 508//295
f 73//38 509//38 74//38
f 509//16 81//16 74//16
f 511//16 506//16 508//16
f 510//16 508//16 73//16
f 508//16 510//16 511//16
f 398//296 511//296 510//296
f 511//297 398//297 400//297
f 400//297 405//297 511//297
f 506//16 511//16 405//16
f 510//296 396//296 398//296
f 396//298 510//298 71//298
f 73//16 71//16 510//16
f 405//16 408//16 506//16
f 402//1 105//1 404//1
f 105//299 402//299 100//299
f 71//298 70//298 396//298
f 388//1 389//1 44//1
f 56//1 44//1 389//1
f 512//1 388//1 41//1
f 512//300 386//300 388//300
f 44//1 41//1 388//1
f 513//1 512//1 42//1
f 512//301 513//301 386//301
f 41//1 42//1 512//1
f 514//1 513//1 32//1
f 514//302 515//302 513//302
f 42//1 32//1 513//1
f 386//303 513//303 515//303
f 515//304 516//304 16//304
f 515//305 16//305 379//305
f 386//306 515//306 380//306
f 379//307 380//307 515//307
f 514//308 516//308 515//308
f 18//1 516//1 26//1
f 18//309 16//309 516//309
f 516//1 514//1 29//1
f 29//1 26//1 516//1
f 32//1 29//1 514//1
f 383//1 83//1 385//1
f 83//1 92//1 385//1
f 385//310 92//310 94//310
f 383//54 382//54 517//54
f 517//54 83//54 383//54
f 517//128 382//128 47//128
f 84//54 83//54 517//54
f 517//54 518//54 84//54
f 518//128 517//128 47//128
f 518//16 47//16 519//16
f 518//16 519//16 79//16
f 518//16 79//16 80//16
f 518//54 80//54 85//54
f 85//54 84//54 518//54
f 520//311 79//311 519//311
f 519//311 52//311 520//311
f 52//312 519//312 47//312
f 62//313 79//313 520//313
f 520//314 53//314 62//314
f 53//16 520//16 52//16
f 376//16 38//16 382//16
f 38//16 50//16 382//16
f 50//16 49//16 382//16
f 382//16 49//16 47//16
f 15//315 379//315 16//315
f 378//3 357//3 355//3
f 355//3 358//3 378//3
f 362//3 378//3 358//3
f 35//16 36//16 376//16
f 36//16 38//16 376//16
f 374//316 27//316 30//316
f 30//316 35//316 374//316
f 27//317 374//317 373//317
f 24//318 373//318 521//318
f 521//319 373//319 358//319
f 373//317 24//317 27//317
f 23//320 521//320 353//320
f 24//321 521//321 23//321
f 355//74 353//74 521//74
f 521//3 358//3 355//3
f 368//1 362//1 364//1
f 364//3 361//3 366//3
f 358//3 360//3 362//3
f 360//41 357//41 362//41
f 358//41 357//41 360//41
f 357//41 358//41 355//41
f 357//1 15//1 356//1
f 355//74 357//74 356//74
f 356//1 15//1 522//1
f 356//54 522//54 350//54
f 522//1 15//1 14//1
f 7//3 350//3 522//3
f 522//3 14//3 7//3
f 23//322 353//322 349//322
f 7//3 6//3 350//3
f 349//16 523//16 21//16
f 523//16 349//16 6//16
f 21//16 23//16 349//16
f 523//323 9//323 12//323
f 9//324 523//324 4//324
f 12//323 21//323 523//323
f 6//16 4//16 523//16
f 5//325 306//325 348//325
f 5//326 348//326 6//326
f 330//1 303//1 332//1
f 302//1 332//1 303//1
f 326//1 298//1 330//1
f 303//1 330//1 298//1
f 323//1 299//1 326//1
f 298//1 326//1 299//1
f 321//327 524//327 324//327
f 524//71 295//71 324//71
f 324//1 294//1 323//1
f 294//1 324//1 295//1
f 524//327 321//327 525//327
f 525//328 526//328 524//328
f 526//1 291//1 524//1
f 295//1 524//1 291//1
f 527//329 528//329 526//329
f 526//328 525//328 527//328
f 528//1 290//1 526//1
f 291//1 526//1 290//1
f 529//330 530//330 528//330
f 528//329 527//329 529//329
f 530//1 285//1 528//1
f 290//1 528//1 285//1
f 530//330 529//330 235//330
f 235//123 234//123 530//123
f 234//1 283//1 530//1
f 285//1 530//1 283//1
f 531//16 529//16 527//16
f 529//16 531//16 238//16
f 238//16 235//16 529//16
f 532//16 531//16 534//16
f 531//16 532//16 533//16
f 533//16 238//16 531//16
f 527//16 534//16 531//16
f 534//331 249//331 532//331
f 249//332 534//332 315//332
f 534//333 314//333 315//333
f 314//333 534//333 318//333
f 525//16 318//16 534//16
f 534//16 527//16 525//16
f 238//16 533//16 243//16
f 249//334 533//334 532//334
f 244//127 243//127 533//127
f 533//334 249//334 244//334
f 318//16 525//16 321//16
f 299//1 323//1 294//1
f 306//335 5//335 14//335
f 304//336 5//336 3//336
f 304//337 14//337 5//337
f 251//1 288//1 535//1
f 251//1 287//1 288//1
f 535//338 288//338 286//338
f 251//1 535//1 254//1
f 535//40 536//40 254//40
f 536//40 535//40 286//40
f 262//41 254//41 536//41
f 536//339 286//339 537//339
f 536//340 537//340 262//340
f 273//341 537//341 277//341
f 286//342 277//342 537//342
f 537//343 261//343 262//343
f 537//344 273//344 261//344
f 277//345 286//345 280//345
f 272//1 211//1 269//1
f 211//1 272//1 213//1
f 266//346 270//346 538//346
f 270//1 198//1 538//1
f 268//227 201//227 270//227
f 198//227 270//227 201//227
f 538//1 199//1 539//1
f 266//347 538//347 539//347
f 199//227 538//227 198//227
f 540//348 266//348 539//348
f 540//349 539//349 541//349
f 539//1 187//1 541//1
f 187//1 539//1 199//1
f 541//227 185//227 542//227
f 540//350 541//350 542//350
f 185//1 541//1 187//1
f 542//1 184//1 544//1
f 184//227 542//227 185//227
f 543//351 540//351 542//351
f 543//352 542//352 544//352
f 544//1 175//1 545//1
f 543//353 544//353 545//353
f 175//1 544//1 184//1
f 545//1 172//1 546//1
f 547//354 545//354 546//354
f 547//355 543//355 545//355
f 172//1 545//1 175//1
f 547//356 546//356 148//356
f 150//357 547//357 148//357
f 150//358 155//358 547//358
f 158//359 547//359 155//359
f 547//360 158//360 543//360
f 546//1 173//1 148//1
f 173//1 546//1 172//1
f 543//361 548//361 540//361
f 548//362 543//362 158//362
f 548//1 158//1 159//1
f 265//1 548//1 159//1
f 265//363 540//363 548//363
f 540//364 265//364 266//364
f 269//1 210//1 268//1
f 210//1 269//1 211//1
f 201//1 268//1 210//1
f 265//1 159//1 549//1
f 549//1 258//1 265//1
f 258//1 549//1 551//1
f 159//365 552//365 549//365
f 550//40 549//40 552//40
f 549//40 550//40 551//40
f 257//16 550//16 552//16
f 191//16 257//16 552//16
f 552//365 159//365 166//365
f 166//16 553//16 552//16
f 191//16 552//16 553//16
f 553//366 181//366 180//366
f 181//366 553//366 163//366
f 163//16 553//16 166//16
f 180//367 191//367 553//367
f 551//3 554//3 555//3
f 551//3 559//3 554//3
f 551//3 555//3 556//3
f 551//3 556//3 557//3
f 557//1 258//1 551//1
f 551//3 558//3 559//3
f 558//3 551//3 550//3
f 560//247 554//247 559//247
f 561//248 559//248 558//248
f 559//368 561//368 560//368
f 561//3 562//3 563//3
f 558//249 562//249 561//249
f 560//3 561//3 563//3
f 574//3 564//3 563//3
f 564//3 571//3 563//3
f 562//3 565//3 563//3
f 565//3 572//3 563//3
f 576//3 566//3 563//3
f 566//3 567//3 563//3
f 567//3 573//3 563//3
f 570//3 568//3 563//3
f 568//3 575//3 563//3
f 571//3 560//3 563//3
f 569//3 576//3 563//3
f 572//3 569//3 563//3
f 573//3 570//3 563//3
f 575//3 574//3 563//3
f 577//369 566//369 576//369
f 576//370 578//370 577//370
f 578//370 576//370 569//370
f 579//3 550//3 578//3
f 569//371 579//371 578//371
f 578//3 550//3 577//3
f 580//3 550//3 579//3
f 572//372 580//372 579//372
f 579//371 569//371 572//371
f 580//372 572//372 565//372
f 565//373 581//373 580//373
f 550//3 580//3 581//3
f 581//3 558//3 550//3
f 562//249 558//249 581//249
f 581//373 565//373 562//373
f 566//369 577//369 582//369
f 582//3 577//3 583//3
f 550//3 583//3 577//3
f 584//3 582//3 583//3
f 585//3 584//3 583//3
f 583//16 550//16 257//16
f 557//3 585//3 583//3
f 583//54 258//54 557//54
f 258//54 583//54 257//54
f 573//241 584//241 585//241
f 586//3 585//3 557//3
f 570//242 585//242 586//242
f 585//242 570//242 573//242
f 586//252 568//252 570//252
f 568//252 586//252 587//252
f 587//3 586//3 557//3
f 588//3 587//3 557//3
f 575//251 587//251 588//251
f 587//374 575//374 568//374
f 556//3 588//3 557//3
f 574//243 588//243 556//243
f 588//375 574//375 575//375
f 584//241 573//241 567//241
f 567//253 582//253 584//253
f 582//253 567//253 566//253
f 556//376 564//376 574//376
f 554//377 560//377 571//377
f 555//378 571//378 564//378
f 571//245 555//245 554//245
f 564//244 556//244 555//244
f 261//379 263//379 260//379
f 589//16 257//16 590//16
f 589//16 255//16 257//16
f 204//16 257//16 191//16
f 205//16 257//16 204//16
f 590//16 257//16 207//16
f 207//16 257//16 205//16
f 590//380 208//380 214//380
f 214//381 589//381 590//381
f 208//380 590//380 207//380
f 591//16 255//16 589//16
f 589//381 214//381 217//381
f 217//382 591//382 589//382
f 591//382 217//382 220//382
f 255//16 591//16 592//16
f 220//383 592//383 591//383
f 592//16 593//16 255//16
f 223//384 593//384 592//384
f 592//383 220//383 223//383
f 255//16 593//16 241//16
f 594//16 241//16 593//16
f 226//385 594//385 593//385
f 593//384 223//384 226//384
f 594//385 226//385 229//385
f 240//16 241//16 594//16
f 229//386 240//386 594//386
f 595//3 253//3 599//3
f 596//3 253//3 595//3
f 597//3 253//3 596//3
f 253//3 597//3 598//3
f 598//1 248//1 253//1
f 253//40 241//40 599//40
f 599//3 600//3 595//3
f 599//3 601//3 600//3
f 599//3 602//3 601//3
f 241//16 245//16 599//16
f 602//16 599//16 245//16
f 603//3 602//3 607//3
f 605//3 602//3 603//3
f 604//3 602//3 606//3
f 608//3 602//3 604//3
f 601//3 602//3 605//3
f 606//3 602//3 598//3
f 245//387 598//387 602//387
f 607//3 602//3 608//3
f 609//388 608//388 604//388
f 608//388 609//388 610//388
f 610//389 607//389 608//389
f 607//389 610//389 611//389
f 611//3 610//3 612//3
f 610//3 609//3 612//3
f 615//3 613//3 612//3
f 613//3 618//3 612//3
f 609//3 614//3 612//3
f 614//3 623//3 612//3
f 620//3 615//3 612//3
f 622//3 611//3 612//3
f 621//3 616//3 612//3
f 616//3 617//3 612//3
f 617//3 619//3 612//3
f 618//3 624//3 612//3
f 619//3 625//3 612//3
f 623//3 620//3 612//3
f 624//3 621//3 612//3
f 625//3 622//3 612//3
f 605//390 622//390 625//390
f 625//391 601//391 605//391
f 601//392 625//392 619//392
f 597//393 621//393 624//393
f 624//394 626//394 597//394
f 626//394 624//394 618//394
f 598//395 597//395 626//395
f 627//3 598//3 626//3
f 618//396 627//396 626//396
f 598//3 627//3 628//3
f 613//397 628//397 627//397
f 627//396 618//396 613//396
f 628//397 613//397 615//397
f 628//3 629//3 598//3
f 615//398 629//398 628//398
f 629//3 630//3 598//3
f 620//399 630//399 629//399
f 629//398 615//398 620//398
f 630//399 620//399 623//399
f 623//400 606//400 630//400
f 630//3 606//3 598//3
f 606//401 623//401 614//401
f 622//402 605//402 603//402
f 603//403 611//403 622//403
f 621//393 597//393 596//393
f 596//404 616//404 621//404
f 619//405 600//405 601//405
f 600//405 619//405 617//405
f 595//406 617//406 616//406
f 617//406 595//406 600//406
f 616//404 596//404 595//404
f 614//407 604//407 606//407
f 604//407 614//407 609//407
f 611//403 603//403 607//403
f 598//387 245//387 248//387
f 243//408 237//408 238//408
f 240//386 229//386 232//386
f 202//110 201//110 210//110
f 196//111 204//111 195//111
f 204//16 191//16 195//16
f 188//102 187//102 199//102
f 195//16 191//16 192//16
f 192//16 191//16 193//16
f 191//367 180//367 190//367
f 182//16 190//16 180//16
f 176//97 175//97 184//97
f 178//409 181//409 163//409
f 178//16 163//16 164//16
f 147//1 148//1 173//1
f 170//410 147//410 173//410
f 144//16 149//16 170//16
f 147//410 170//410 149//410
f 138//16 165//16 134//16
f 144//94 165//94 138//94
f 139//54 127//54 154//54
f 127//1 136//1 154//1
f 149//16 144//16 145//16
f 149//16 145//16 143//16
f 135//40 142//40 141//40
f 127//40 135//40 141//40
f 127//54 139//54 135//54
f 136//1 127//1 124//1
f 119//203 135//203 125//203
f 135//16 126//16 125//16
f 135//203 119//203 127//203
f 122//1 119//1 127//1
f 115//1 88//1 86//1
f 115//1 103//1 88//1
f 631//411 85//411 80//411
f 631//1 78//1 85//1
f 631//41 635//41 632//41
f 632//41 639//41 631//41
f 638//41 631//41 633//41
f 633//41 631//41 634//41
f 80//411 634//411 631//411
f 78//41 631//41 637//41
f 635//41 631//41 636//41
f 636//41 631//41 638//41
f 631//41 639//41 637//41
f 639//394 641//394 640//394
f 640//394 637//394 639//394
f 641//396 639//396 632//396
f 632//396 642//396 641//396
f 642//41 643//41 641//41
f 641//41 643//41 640//41
f 649//41 643//41 644//41
f 644//41 643//41 642//41
f 653//41 643//41 645//41
f 645//41 643//41 647//41
f 640//41 643//41 648//41
f 656//41 643//41 646//41
f 646//41 643//41 649//41
f 647//41 643//41 650//41
f 648//41 643//41 651//41
f 650//41 643//41 654//41
f 651//41 643//41 655//41
f 654//41 643//41 652//41
f 652//41 643//41 656//41
f 655//41 643//41 653//41
f 633//400 656//400 646//400
f 656//407 633//407 657//407
f 657//407 652//407 656//407
f 657//41 633//41 634//41
f 658//41 657//41 634//41
f 652//388 657//388 658//388
f 654//389 658//389 659//389
f 659//41 658//41 634//41
f 658//388 654//388 652//388
f 660//41 659//41 634//41
f 659//389 650//389 654//389
f 650//403 659//403 660//403
f 660//412 647//412 650//412
f 661//41 660//41 634//41
f 647//402 660//402 661//402
f 662//41 661//41 634//41
f 645//391 661//391 662//391
f 661//390 645//390 647//390
f 77//41 662//41 634//41
f 77//41 663//41 662//41
f 662//391 653//391 645//391
f 653//405 662//405 663//405
f 77//41 664//41 663//41
f 663//405 655//405 653//405
f 655//406 663//406 664//406
f 665//41 664//41 78//41
f 651//404 664//404 665//404
f 664//406 651//406 655//406
f 664//41 77//41 78//41
f 637//41 665//41 78//41
f 648//393 665//393 637//393
f 665//413 648//413 651//413
f 638//414 646//414 649//414
f 649//414 636//414 638//414
f 636//415 649//415 644//415
f 637//393 640//393 648//393
f 646//400 638//400 633//400
f 644//415 635//415 636//415
f 635//416 644//416 642//416
f 642//416 632//416 635//416
f 634//16 80//16 77//16
f 79//16 62//16 61//16
f 59//36 58//36 67//36
f 45//30 44//30 56//30
f 47//312 48//312 52//312
f 39//22 50//22 38//22
f 33//24 32//24 42//24
f 26//1 19//1 18//1
f 4//324 8//324 9//324
f 4//193 2//193 8//193
