# Blender 5.0.1
# www.blender.org
mtllib torso_z_link_visual_9.mtl
o i01.torso.topStom.full.010_visual.001
v -0.040265 -0.013183 0.007695
v -0.038077 -0.014411 -0.010978
v -0.038077 0.012849 -0.012771
v -0.040265 0.014077 0.005903
v 0.003225 0.014411 0.010977
v 0.003225 -0.012849 0.012770
v 0.040197 0.013537 -0.002322
v 0.040265 -0.013769 -0.001221
vn -0.0000 -0.9978 0.0656
vn -0.9932 -0.0076 -0.1159
vn -0.1161 0.0651 0.9911
vn -0.1161 0.0652 0.9911
vn 0.3391 0.0617 0.9387
vn 0.3539 0.0386 0.9345
vn 0.1239 -0.0651 -0.9902
vn 0.1325 -0.0396 -0.9904
vn -0.0000 0.9978 -0.0656
s 0
usemtl Material.007
f 6//1 1//1 2//1
f 3//2 2//2 1//2
f 1//2 4//2 3//2
f 5//3 4//3 1//3
f 1//4 6//4 5//4
f 7//5 5//5 6//5
f 6//6 8//6 7//6
f 6//1 2//1 8//1
f 8//7 2//7 3//7
f 3//8 7//8 8//8
f 5//9 7//9 3//9
f 4//9 5//9 3//9
