# Blender 5.0.1
# www.blender.org
mtllib torso_y_link_visual_7.mtl
o i01.torso.full.009_visual.001
v -0.035594 -0.125948 0.009788
v 0.034961 -0.125948 0.009788
v -0.035594 -0.104220 0.340219
v 0.034960 -0.104220 0.340219
v -0.035595 0.112789 0.062852
v -0.035073 0.032173 -0.067134
v -0.035073 0.006267 -0.082084
v -0.035073 -0.011947 -0.105809
v -0.035073 -0.019694 -0.134698
v -0.035595 -0.249198 0.328534
v -0.035595 -0.263999 0.103441
v -0.035595 -0.271314 -0.007793
v -0.035595 -0.283265 -0.189560
v -0.035073 -0.000847 -0.190261
v -0.035073 -0.015796 -0.164353
v -0.035595 -0.290634 -0.301626
v -0.035595 -0.384507 -0.295454
v -0.035595 -0.177684 -0.393195
v -0.035595 -0.377138 -0.183386
v 0.034960 -0.271314 -0.007793
v 0.034960 -0.283265 -0.189560
v 0.035595 -0.000847 -0.190261
v 0.035595 -0.015796 -0.164353
v 0.035595 -0.019694 -0.134698
v 0.034960 -0.177684 -0.393195
v 0.034960 -0.384507 -0.295454
v 0.034960 -0.290634 -0.301626
v 0.034960 -0.377138 -0.183386
v 0.034960 -0.303165 -0.492196
v -0.035595 -0.303165 -0.492196
v -0.035595 -0.184706 -0.499985
v 0.034960 -0.184706 -0.499986
v 0.035595 0.051768 -0.216221
v 0.035595 0.081424 -0.212323
v 0.035595 0.022879 -0.208473
v 0.034960 0.122714 -0.412948
v -0.035595 0.122714 -0.412949
v -0.035073 0.081423 -0.212323
v -0.035073 0.051768 -0.216221
v -0.035595 0.115692 -0.519738
v -0.035595 0.241800 -0.336566
v -0.035595 0.229264 -0.527206
v 0.034960 0.115692 -0.519739
v 0.034959 0.229264 -0.527206
v 0.034959 0.241800 -0.336566
v 0.035595 0.107329 -0.197373
v 0.034959 0.343117 -0.231117
v 0.034959 0.249140 -0.224939
v -0.035595 0.335776 -0.342745
v 0.034959 0.335776 -0.342745
v -0.035595 0.343117 -0.231117
v -0.035595 0.249140 -0.224939
v -0.035073 0.107329 -0.197373
v -0.035073 0.125543 -0.173649
v -0.035595 0.255104 -0.134239
v -0.035073 0.129393 -0.115104
v -0.035073 0.133290 -0.144759
v -0.035595 0.261107 -0.042946
v 0.034959 0.255104 -0.134239
v -0.035595 0.349080 -0.140419
v -0.035595 0.355083 -0.049127
v 0.034959 0.355084 -0.049127
v 0.034959 0.349081 -0.140419
v 0.034959 0.261107 -0.042946
v 0.034959 0.283232 0.293524
v -0.035595 0.283232 0.293524
v 0.034965 0.112789 0.062852
v 0.035595 0.129393 -0.115104
v 0.035595 0.114443 -0.089198
v -0.035073 0.090717 -0.070985
v -0.035073 0.114443 -0.089198
v 0.035595 0.090717 -0.070985
v 0.035595 0.061828 -0.063236
v -0.035073 0.061828 -0.063236
v 0.035595 0.032173 -0.067134
v 0.035595 0.006266 -0.082085
v 0.035595 -0.011947 -0.105811
v 0.035595 0.133290 -0.144759
v 0.035595 0.125543 -0.173649
v -0.035555 0.130082 0.325841
v 0.034737 0.130082 0.325841
v 0.034959 0.290531 0.404526
v 0.034960 0.110200 0.422371
v 0.034960 0.089694 0.464027
v -0.035595 0.089694 0.464027
v -0.035595 0.110200 0.422373
v 0.034960 -0.058620 0.433472
v -0.035595 -0.058620 0.433472
v 0.034960 -0.028752 0.471816
v 0.034960 -0.236134 0.527206
v -0.035595 -0.236134 0.527206
v 0.034960 -0.249198 0.328534
v 0.034960 -0.025943 0.514532
v -0.035595 -0.025943 0.514532
v -0.035595 -0.028752 0.471816
v 0.034960 -0.263999 0.103441
v 0.034960 -0.343071 0.334705
v 0.034960 -0.335772 0.445707
v -0.035595 -0.343071 0.334705
v -0.035595 -0.335772 0.445707
v 0.034960 -0.365186 -0.001620
v 0.034960 -0.357872 0.109614
v -0.035595 -0.357872 0.109614
v -0.035595 -0.365186 -0.001620
v -0.035595 0.290530 0.404526
v -0.035595 0.384507 0.398345
v -0.035595 0.092503 0.506743
v 0.034959 0.384507 0.398345
v -0.035595 0.296295 0.492195
v 0.034959 0.296295 0.492195
v 0.034959 0.092503 0.506743
v 0.034959 0.377208 0.287344
v -0.035595 0.377208 0.287344
v -0.035073 0.022879 -0.208473
v 0.034960 -0.241899 0.439534
v -0.035595 -0.241899 0.439534
vn -0.0000 -0.2170 0.9762
vn -0.0000 0.9978 -0.0656
vn -1.0000 -0.0000 -0.0000
vn -1.0000 0.0010 -0.0047
vn -1.0000 0.0018 -0.0031
vn -1.0000 0.0026 -0.0020
vn -1.0000 0.0036 -0.0010
vn -1.0000 0.0024 -0.0019
vn -1.0000 0.0019 0.0010
vn -1.0000 0.0019 0.0011
vn -1.0000 0.0019 0.0003
vn -0.0000 0.0656 0.9978
vn -0.0000 -0.9978 0.0656
vn 1.0000 -0.0029 0.0023
vn 1.0000 -0.0000 -0.0000
vn 1.0000 -0.0023 -0.0012
vn 1.0000 -0.0023 -0.0013
vn 1.0000 -0.0023 -0.0003
vn -0.0000 -0.0656 -0.9978
vn 1.0000 -0.0007 -0.0027
vn 1.0000 0.0006 -0.0043
vn 1.0000 -0.0002 -0.0032
vn 1.0000 -0.0014 -0.0019
vn -1.0000 -0.0015 0.0023
vn -1.0000 -0.0003 0.0025
vn -1.0000 0.0002 0.0027
vn 1.0000 0.0017 -0.0029
vn 1.0000 0.0018 -0.0028
vn 1.0000 0.0044 -0.0003
vn -1.0000 -0.0036 0.0002
vn -1.0000 -0.0032 0.0025
vn -1.0000 -0.0041 0.0003
vn -1.0000 -0.0042 -0.0006
vn -1.0000 -0.0044 0.0012
vn 1.0000 0.0030 0.0042
vn 1.0000 0.0050 -0.0003
vn 1.0000 0.0037 0.0021
vn -0.0000 -0.6089 -0.7932
vn -0.0000 -0.8661 -0.4998
vn 1.0000 0.0032 0.0042
vn -0.0000 -0.2591 -0.9659
vn 1.0000 0.0012 0.0045
vn -1.0000 0.0006 -0.0044
vn -0.0000 0.1303 -0.9915
vn -1.0000 -0.0010 -0.0037
vn 1.0000 -0.0007 0.0053
vn -0.0000 0.4998 -0.8661
vn 1.0000 -0.0013 0.0056
vn 1.0000 -0.0022 0.0038
vn 1.0000 -0.0031 0.0024
vn -0.0000 0.7932 -0.6089
vn 1.0000 -0.0044 0.0012
vn -0.0000 0.9659 -0.2590
vn -1.0000 -0.0030 -0.0017
vn -1.0000 -0.0027 -0.0035
vn -1.0000 -0.0025 -0.0035
vn -0.0000 -0.9915 -0.1303
vn 1.0000 0.0052 0.0007
vn -0.0000 -0.9659 0.2590
vn 1.0000 0.0046 -0.0012
vn 1.0000 0.0053 -0.0003
vn 1.0000 0.0039 -0.0030
vn -0.0000 -0.7932 0.6089
vn 1.0000 -0.0013 0.0010
vn 1.0000 -0.0014 0.0001
vn 1.0000 -0.0002 -0.0024
vn 1.0000 0.0008 -0.0021
vn -0.0000 -0.0613 -0.9981
vn -0.0000 -0.8972 -0.4416
vn -0.0000 -0.8972 -0.4417
vn -0.0000 0.7889 -0.6145
vn -0.0000 0.0602 0.9982
vn -1.0000 -0.0000 -0.0004
vn -1.0000 0.0001 -0.0004
vn -1.0000 -0.0003 -0.0000
vn -0.0000 0.0712 0.9975
vn -1.0000 -0.0002 0.0002
vn -0.0000 -0.7932 0.6090
vn -0.0000 -0.4998 0.8661
vn -1.0000 -0.0014 0.0024
vn -0.0000 0.2590 0.9659
vn -0.0000 -0.1303 0.9915
vn -1.0000 0.0006 0.0022
vn -0.0000 0.6089 0.7932
vn -1.0000 0.0012 0.0015
vn -0.0000 0.9915 0.1303
vn -0.0000 0.8661 0.4998
s 0
usemtl Material.027
f 2//1 5//1 1//1
f 1//2 4//2 2//2
f 1//3 10//3 3//3
f 4//2 1//2 3//2
f 1//4 5//4 6//4
f 6//5 7//5 1//5
f 7//6 8//6 1//6
f 1//7 8//7 9//7
f 9//8 13//8 1//8
f 10//3 1//3 11//3
f 1//3 12//3 11//3
f 1//3 13//3 12//3
f 14//9 18//9 13//9
f 14//10 13//10 15//10
f 9//11 15//11 13//11
f 13//3 18//3 16//3
f 13//3 16//3 17//3
f 17//3 19//3 13//3
f 21//12 13//12 19//12
f 13//13 21//13 20//13
f 20//13 12//13 13//13
f 24//14 2//14 21//14
f 2//15 20//15 21//15
f 22//16 21//16 25//16
f 22//17 23//17 21//17
f 24//18 21//18 23//18
f 21//15 27//15 25//15
f 26//15 27//15 21//15
f 21//15 28//15 26//15
f 19//12 28//12 21//12
f 17//13 26//13 28//13
f 28//13 19//13 17//13
f 27//15 29//15 25//15
f 30//13 29//13 27//13
f 27//13 16//13 30//13
f 16//19 27//19 26//19
f 30//3 18//3 31//3
f 29//19 30//19 31//19
f 16//3 18//3 30//3
f 32//2 31//2 18//2
f 31//19 32//19 29//19
f 32//15 25//15 29//15
f 18//2 25//2 32//2
f 26//19 17//19 16//19
f 33//20 35//20 25//20
f 34//21 33//21 25//21
f 25//22 36//22 34//22
f 22//23 25//23 35//23
f 37//19 36//19 25//19
f 25//19 18//19 37//19
f 38//24 41//24 37//24
f 39//25 38//25 37//25
f 37//26 18//26 39//26
f 37//3 42//3 40//3
f 36//13 37//13 40//13
f 41//3 42//3 37//3
f 43//19 40//19 42//19
f 44//2 42//2 41//2
f 42//19 44//19 43//19
f 41//2 45//2 44//2
f 43//15 44//15 36//15
f 45//15 36//15 44//15
f 46//27 34//27 45//27
f 34//28 36//28 45//28
f 46//29 45//29 48//29
f 47//15 48//15 45//15
f 45//15 50//15 47//15
f 45//19 41//19 49//19
f 49//19 50//19 45//19
f 51//2 47//2 50//2
f 50//2 49//2 51//2
f 51//3 49//3 41//3
f 41//3 52//3 51//3
f 47//12 51//12 52//12
f 53//30 52//30 41//30
f 53//31 54//31 52//31
f 55//32 52//32 54//32
f 52//12 48//12 47//12
f 48//2 52//2 55//2
f 56//32 58//32 55//32
f 56//33 55//33 57//33
f 54//34 57//34 55//34
f 55//3 58//3 61//3
f 59//19 55//19 60//19
f 55//2 59//2 48//2
f 61//3 60//3 55//3
f 62//12 61//12 58//12
f 61//2 62//2 63//2
f 63//2 60//2 61//2
f 59//15 63//15 62//15
f 60//19 63//19 59//19
f 62//15 64//15 59//15
f 58//12 64//12 62//12
f 64//15 65//15 67//15
f 66//2 65//2 64//2
f 64//2 58//2 66//2
f 67//35 69//35 64//35
f 68//36 59//36 64//36
f 64//37 69//37 68//37
f 70//38 71//38 69//38
f 69//38 72//38 70//38
f 68//39 69//39 71//39
f 67//40 72//40 69//40
f 74//41 70//41 72//41
f 72//42 67//42 73//42
f 72//41 73//41 74//41
f 5//43 74//43 6//43
f 6//44 74//44 73//44
f 70//45 74//45 5//45
f 67//46 75//46 73//46
f 73//44 75//44 6//44
f 7//47 6//47 75//47
f 75//48 67//48 2//48
f 2//49 76//49 75//49
f 75//47 76//47 7//47
f 76//50 2//50 77//50
f 8//51 7//51 76//51
f 76//51 77//51 8//51
f 2//52 24//52 77//52
f 9//53 8//53 77//53
f 77//53 24//53 9//53
f 58//54 56//54 71//54
f 71//39 56//39 68//39
f 5//55 71//55 70//55
f 5//56 58//56 71//56
f 78//57 68//57 56//57
f 68//58 78//58 59//58
f 56//57 57//57 78//57
f 79//59 78//59 57//59
f 78//60 79//60 48//60
f 48//61 59//61 78//61
f 57//59 54//59 79//59
f 46//62 48//62 79//62
f 46//63 79//63 54//63
f 67//13 80//13 5//13
f 5//1 2//1 67//1
f 80//13 67//13 81//13
f 67//64 65//64 81//64
f 81//65 65//65 82//65
f 81//66 82//66 83//66
f 4//67 81//67 83//67
f 81//68 3//68 80//68
f 3//68 81//68 4//68
f 82//15 84//15 83//15
f 85//69 83//69 84//69
f 83//70 85//70 86//70
f 86//12 87//12 83//12
f 83//15 87//15 4//15
f 87//12 86//12 88//12
f 88//71 89//71 87//71
f 89//15 90//15 87//15
f 90//15 4//15 87//15
f 116//13 115//13 90//13
f 90//72 94//72 91//72
f 90//13 91//13 116//13
f 92//15 4//15 90//15 115//15
f 90//15 89//15 93//15
f 94//72 90//72 93//72
f 95//3 91//3 94//3
f 93//2 95//2 94//2
f 95//2 93//2 89//2
f 89//71 88//71 95//71
f 91//3 95//3 88//3
f 92//15 96//15 2//15
f 2//15 4//15 92//15
f 97//15 92//15 115//15
f 11//13 96//13 92//13
f 92//13 10//13 11//13
f 10//19 92//19 97//19
f 115//15 98//15 97//15
f 99//13 97//13 98//13
f 97//19 99//19 10//19
f 99//3 100//3 116//3
f 116//3 10//3 99//3
f 98//13 100//13 99//13
f 100//12 98//12 115//12
f 115//12 116//12 100//12
f 2//15 96//15 20//15
f 101//15 20//15 96//15
f 96//15 102//15 101//15
f 96//12 11//12 103//12
f 103//12 102//12 96//12
f 104//3 103//3 11//3
f 102//13 103//13 104//13
f 11//3 12//3 104//3
f 101//19 104//19 12//19
f 104//13 101//13 102//13
f 12//19 20//19 101//19
f 91//3 88//3 3//3
f 10//3 116//3 91//3 3//3
f 86//3 3//3 88//3
f 80//73 86//73 105//73
f 85//3 105//3 86//3
f 3//74 86//74 80//74
f 66//3 105//3 106//3
f 108//12 106//12 105//12
f 105//3 85//3 107//3
f 107//3 109//3 105//3
f 105//12 82//12 108//12
f 82//2 105//2 109//2
f 105//75 66//75 80//75
f 107//76 110//76 109//76
f 109//2 110//2 82//2
f 111//15 82//15 110//15
f 110//76 107//76 111//76
f 107//13 84//13 111//13
f 84//15 82//15 111//15
f 108//15 82//15 65//15
f 106//2 108//2 112//2
f 65//15 112//15 108//15
f 112//2 113//2 106//2
f 113//19 112//19 65//19
f 106//3 113//3 66//3
f 65//19 66//19 113//19
f 84//13 107//13 85//13
f 5//77 80//77 66//77
f 58//3 5//3 66//3
f 54//78 53//78 46//78
f 53//79 38//79 34//79
f 34//79 46//79 53//79
f 53//80 41//80 38//80
f 40//13 43//13 36//13
f 39//81 114//81 35//81
f 35//81 33//81 39//81
f 38//82 39//82 33//82
f 114//83 39//83 18//83
f 114//84 14//84 22//84
f 22//84 35//84 114//84
f 14//85 114//85 18//85
f 33//82 34//82 38//82
f 15//86 9//86 24//86
f 24//86 23//86 15//86
f 14//87 15//87 23//87
f 23//87 22//87 14//87
