# Blender 5.0.1
# www.blender.org
mtllib torso_z_link_visual_8.mtl
o i01.torso.topStom.full.009_visual.001
v 0.037101 0.014502 0.012712
v -0.006389 -0.013092 0.009429
v -0.006389 0.014168 0.007636
v 0.037101 -0.012758 0.014503
v 0.039289 0.013274 -0.005962
v 0.039289 -0.013986 -0.004169
v -0.039289 -0.014502 -0.012022
v -0.039196 0.012713 -0.014503
vn -0.1161 0.0651 0.9911
vn -0.1162 0.0652 0.9911
vn -0.0000 0.9978 -0.0656
vn 0.9932 0.0076 0.1159
vn -0.0000 -0.9978 0.0656
vn 0.0996 -0.0907 -0.9909
vn 0.1084 -0.0652 -0.9920
vn -0.5601 0.0771 0.8249
vn -0.5470 0.0549 0.8353
s 0
usemtl Material.007
f 2//1 4//1 1//1
f 1//2 3//2 2//2
f 3//3 1//3 5//3
f 1//4 4//4 6//4
f 6//4 5//4 1//4
f 4//5 2//5 6//5
f 2//5 7//5 6//5
f 6//6 7//6 8//6
f 8//7 5//7 6//7
f 3//3 5//3 8//3
f 3//8 8//8 7//8
f 7//9 2//9 3//9
