# Blender 5.0.1
# www.blender.org
mtllib torso_y_link_visual_6.mtl
o i01.torso.full.008_visual.001
v 0.035593 -0.125948 0.009788
v 0.035592 -0.104220 0.340219
v 0.035072 0.006267 -0.082084
v 0.035072 -0.011947 -0.105809
v 0.035072 -0.019694 -0.134698
v -0.034962 -0.125948 0.009788
v -0.034962 -0.104220 0.340219
v 0.035594 0.112788 0.062852
v 0.035072 0.032173 -0.067134
v 0.035593 -0.249198 0.328534
v 0.035594 -0.263999 0.103441
v 0.035594 -0.271314 -0.007793
v 0.035594 -0.283265 -0.189560
v -0.034960 -0.283265 -0.189560
v -0.034961 -0.271314 -0.007793
v 0.035594 -0.377138 -0.183386
v 0.035595 -0.384507 -0.295454
v 0.035595 -0.290634 -0.301626
v 0.035595 -0.177684 -0.393195
v 0.035072 -0.000847 -0.190261
v 0.035072 -0.015796 -0.164353
v -0.035596 -0.019694 -0.134698
v -0.035596 -0.015796 -0.164353
v -0.035596 -0.000847 -0.190261
v -0.035596 0.022879 -0.208473
v 0.035073 0.022879 -0.208473
v -0.034960 -0.177684 -0.393195
v -0.035596 0.081424 -0.212323
v -0.034959 -0.303165 -0.492196
v -0.034960 -0.290634 -0.301626
v -0.034959 -0.184706 -0.499986
v -0.034959 0.122714 -0.412949
v 0.035596 0.122714 -0.412949
v -0.035596 0.051768 -0.216221
v 0.035073 0.081423 -0.212323
v 0.035073 0.051768 -0.216221
v 0.035073 0.107329 -0.197373
v 0.035596 0.241800 -0.336566
v 0.035596 0.229264 -0.527206
v 0.035595 0.249140 -0.224939
v -0.034959 0.229264 -0.527206
v 0.035595 0.343117 -0.231117
v -0.034959 0.241800 -0.336566
v 0.035596 0.335776 -0.342745
v -0.034959 0.335777 -0.342745
v -0.034959 0.343117 -0.231117
v -0.034960 0.249140 -0.224939
v -0.035596 0.107329 -0.197373
v -0.035596 0.133290 -0.144759
v -0.035596 0.125543 -0.173649
v -0.034960 0.255104 -0.134239
v 0.035595 0.255104 -0.134239
v 0.035595 0.349080 -0.140419
v 0.035595 0.355083 -0.049127
v 0.035595 0.261107 -0.042946
v 0.035072 0.125543 -0.173649
v 0.035072 0.129393 -0.115104
v 0.035072 0.133290 -0.144759
v -0.035596 0.129393 -0.115104
v 0.035072 0.114443 -0.089198
v -0.035596 0.114443 -0.089198
v 0.035072 0.090717 -0.070985
v -0.035596 0.090717 -0.070985
v 0.035072 0.061828 -0.063236
v -0.035596 0.061828 -0.063236
v -0.035596 0.032173 -0.067134
v -0.034966 0.112789 0.062852
v -0.034738 0.130082 0.325841
v 0.035553 0.130082 0.325841
v -0.034960 0.261107 -0.042946
v -0.034961 0.283232 0.293524
v 0.035594 0.377208 0.287344
v 0.035594 0.283232 0.293524
v -0.034961 0.384507 0.398345
v -0.034961 0.290531 0.404526
v -0.034961 0.377208 0.287344
v 0.035594 0.384507 0.398345
v 0.035593 0.290530 0.404526
v 0.035593 0.089694 0.464027
v 0.035593 0.092502 0.506743
v 0.035593 0.110200 0.422373
v 0.035593 0.296295 0.492195
v -0.034962 0.296295 0.492195
v -0.034962 0.092503 0.506743
v -0.034962 0.089694 0.464027
v -0.034962 0.110200 0.422371
v -0.034962 -0.058620 0.433472
v 0.035593 -0.058620 0.433472
v -0.034962 -0.028752 0.471816
v -0.034962 -0.236134 0.527206
v -0.034962 -0.249198 0.328534
v 0.035592 -0.236134 0.527206
v -0.034962 -0.241899 0.439534
v 0.035593 -0.025943 0.514532
v -0.034962 -0.025943 0.514532
v 0.035593 -0.028752 0.471816
v 0.035593 -0.335772 0.445707
v -0.034962 -0.335772 0.445707
v -0.034962 -0.343071 0.334705
v 0.035593 -0.343071 0.334705
v -0.034961 -0.263999 0.103441
v -0.034961 -0.365186 -0.001620
v 0.035594 -0.357872 0.109614
v -0.034961 -0.357872 0.109614
v 0.035594 -0.365186 -0.001620
v -0.034960 0.355084 -0.049127
v -0.034960 0.349081 -0.140419
v -0.035596 0.006266 -0.082085
v -0.035596 -0.011947 -0.105811
v -0.034959 0.115692 -0.519739
v 0.035596 0.115692 -0.519738
v 0.035596 -0.184706 -0.499985
v 0.035595 -0.303165 -0.492196
v -0.034960 -0.384507 -0.295454
v -0.034960 -0.377138 -0.183386
v 0.035593 -0.241899 0.439534
vn 1.0000 -0.0000 -0.0000
vn -0.0000 0.9978 -0.0656
vn 1.0000 0.0026 -0.0020
vn 1.0000 0.0018 -0.0031
vn 1.0000 0.0036 -0.0010
vn 1.0000 0.0024 -0.0019
vn -0.0000 -0.2170 0.9762
vn 1.0000 0.0010 -0.0047
vn -0.0000 0.0656 0.9978
vn -0.0000 -0.9978 0.0656
vn 1.0000 0.0019 0.0010
vn 1.0000 0.0019 0.0011
vn 1.0000 0.0019 0.0003
vn -0.0000 0.9915 0.1303
vn -0.0000 0.8661 0.4998
vn -1.0000 -0.0023 -0.0013
vn -1.0000 -0.0023 -0.0003
vn -1.0000 -0.0014 -0.0019
vn -0.0000 0.6089 0.7932
vn -1.0000 -0.0023 -0.0012
vn -1.0000 -0.0000 -0.0000
vn -1.0000 0.0006 -0.0043
vn -1.0000 -0.0002 -0.0032
vn -0.0000 -0.0656 -0.9978
vn -1.0000 -0.0007 -0.0027
vn -0.0000 -0.1303 0.9915
vn -0.0000 0.2590 0.9659
vn 1.0000 0.0006 0.0022
vn 1.0000 -0.0003 0.0025
vn 1.0000 0.0002 0.0027
vn -0.0000 -0.4998 0.8661
vn 1.0000 -0.0014 0.0024
vn 1.0000 -0.0015 0.0023
vn 1.0000 -0.0036 0.0002
vn -1.0000 0.0044 -0.0003
vn -1.0000 0.0039 -0.0030
vn -1.0000 0.0046 -0.0012
vn -1.0000 0.0053 -0.0003
vn 1.0000 -0.0041 0.0003
vn 1.0000 -0.0044 0.0012
vn 1.0000 -0.0042 -0.0006
vn -0.0000 -0.9915 -0.1303
vn -0.0000 -0.9659 0.2590
vn -0.0000 -0.8661 -0.4998
vn 1.0000 -0.0030 -0.0017
vn -0.0000 -0.6089 -0.7932
vn 1.0000 -0.0027 -0.0035
vn 1.0000 -0.0025 -0.0035
vn -0.0000 -0.2591 -0.9659
vn 1.0000 -0.0010 -0.0037
vn 1.0000 0.0006 -0.0044
vn -0.0000 0.1303 -0.9915
vn -1.0000 -0.0007 0.0053
vn -1.0000 0.0012 0.0045
vn -1.0000 -0.0013 0.0056
vn -1.0000 -0.0013 0.0009
vn -1.0000 0.0032 0.0042
vn -1.0000 0.0030 0.0042
vn -1.0000 -0.0014 0.0001
vn 1.0000 -0.0000 -0.0004
vn 1.0000 -0.0003 -0.0000
vn -0.0000 0.0712 0.9975
vn -0.0000 -0.8972 -0.4416
vn -1.0000 -0.0002 -0.0024
vn -0.0000 -0.8972 -0.4417
vn -1.0000 0.0008 -0.0021
vn -0.0000 0.7889 -0.6145
vn -0.0000 0.0602 0.9982
vn 1.0000 0.0001 -0.0004
vn 1.0000 -0.0002 0.0002
vn -1.0000 0.0050 -0.0003
vn -1.0000 0.0037 0.0021
vn -0.0000 -0.0613 -0.9981
vn -0.0000 0.4998 -0.8661
vn -1.0000 -0.0022 0.0038
vn -1.0000 -0.0031 0.0024
vn -0.0000 0.7932 -0.6089
vn -0.0000 0.9659 -0.2590
vn -1.0000 -0.0044 0.0012
vn -1.0000 0.0052 0.0007
vn 1.0000 -0.0032 0.0025
vn -0.0000 -0.7932 0.6089
vn -1.0000 0.0017 -0.0029
vn -1.0000 0.0018 -0.0028
vn 1.0000 0.0012 0.0015
vn -1.0000 -0.0029 0.0023
s 0
usemtl Material.027
f 10//1 1//1 2//1
f 1//2 7//2 2//2
f 3//3 1//3 4//3
f 1//4 3//4 9//4
f 1//5 5//5 4//5
f 5//6 1//6 13//6
f 8//7 6//7 1//7
f 7//2 1//2 6//2
f 9//8 8//8 1//8
f 1//1 10//1 11//1
f 1//1 11//1 12//1
f 1//1 12//1 13//1
f 16//9 13//9 14//9
f 15//10 14//10 13//10
f 13//10 12//10 15//10
f 13//1 16//1 17//1
f 17//1 18//1 13//1
f 13//1 18//1 19//1
f 20//11 13//11 19//11
f 20//12 21//12 13//12
f 5//13 13//13 21//13
f 21//14 23//14 22//14
f 22//14 5//14 21//14
f 23//15 21//15 20//15
f 20//15 24//15 23//15
f 24//16 14//16 23//16
f 22//17 23//17 14//17
f 24//18 25//18 27//18
f 26//19 25//19 24//19
f 24//19 20//19 26//19
f 24//20 27//20 14//20
f 14//21 27//21 30//21
f 27//22 34//22 28//22
f 28//23 32//23 27//23
f 30//21 27//21 29//21
f 29//21 27//21 31//21
f 31//2 27//2 19//2
f 33//24 19//24 27//24
f 27//24 32//24 33//24
f 34//25 27//25 25//25
f 35//26 28//26 34//26
f 34//26 36//26 35//26
f 36//27 34//27 25//27
f 26//28 19//28 36//28
f 25//27 26//27 36//27
f 33//29 35//29 36//29
f 36//30 19//30 33//30
f 28//31 35//31 37//31
f 37//32 35//32 38//32
f 35//33 33//33 38//33
f 37//34 38//34 40//34
f 38//1 33//1 39//1
f 38//2 39//2 41//2
f 42//1 40//1 38//1
f 41//2 43//2 38//2
f 38//1 44//1 42//1
f 44//24 38//24 43//24
f 42//2 44//2 45//2
f 43//24 45//24 44//24
f 46//21 45//21 43//21
f 45//2 46//2 42//2
f 43//21 47//21 46//21
f 46//9 47//9 40//9
f 40//9 42//9 46//9
f 48//35 47//35 43//35
f 48//36 50//36 47//36
f 47//37 50//37 49//37
f 49//38 51//38 47//38
f 47//2 51//2 52//2
f 52//2 40//2 47//2
f 53//24 52//24 51//24
f 52//1 53//1 54//1
f 54//1 55//1 52//1
f 57//39 52//39 55//39
f 52//40 58//40 56//40
f 56//39 40//39 52//39
f 57//41 58//41 52//41
f 49//42 58//42 57//42
f 58//43 49//43 50//43
f 50//43 56//43 58//43
f 59//44 57//44 60//44
f 57//42 59//42 49//42
f 55//45 60//45 57//45
f 61//46 60//46 62//46
f 60//44 61//44 59//44
f 8//47 62//47 60//47
f 8//48 60//48 55//48
f 63//49 62//49 64//49
f 62//46 63//46 61//46
f 62//50 8//50 64//50
f 8//51 9//51 64//51
f 65//52 64//52 9//52
f 64//49 65//49 63//49
f 67//53 65//53 66//53
f 9//52 66//52 65//52
f 63//54 65//54 67//54
f 6//55 67//55 66//55
f 6//7 8//7 67//7
f 69//10 67//10 8//10
f 67//56 68//56 71//56
f 67//10 69//10 68//10
f 67//57 61//57 63//57
f 67//58 70//58 61//58
f 67//21 71//21 70//21
f 71//24 76//24 72//24
f 72//24 73//24 71//24
f 70//2 71//2 73//2
f 68//59 75//59 71//59
f 74//21 76//21 71//21
f 71//21 75//21 74//21
f 76//2 74//2 77//2
f 77//2 72//2 76//2
f 77//1 78//1 73//1
f 73//1 72//1 77//1
f 78//9 77//9 74//9
f 69//60 78//60 81//60
f 78//61 69//61 73//61
f 79//1 78//1 80//1
f 78//1 79//1 81//1
f 80//1 78//1 82//1
f 82//2 78//2 75//2
f 74//9 75//9 78//9
f 75//2 83//2 82//2
f 83//62 80//62 82//62
f 84//21 83//21 75//21
f 80//62 83//62 84//62
f 75//21 85//21 84//21
f 85//10 80//10 84//10
f 85//21 75//21 86//21
f 86//63 79//63 85//63
f 80//10 85//10 79//10
f 68//64 86//64 75//64
f 7//21 87//21 86//21
f 87//9 81//9 86//9
f 79//65 86//65 81//65
f 86//66 68//66 7//66
f 81//9 87//9 88//9
f 89//67 88//67 87//67
f 90//21 89//21 87//21
f 90//21 87//21 7//21
f 90//21 7//21 91//21 93//21
f 94//68 90//68 92//68
f 116//10 92//10 90//10
f 90//10 93//10 116//10
f 90//68 94//68 95//68
f 89//21 90//21 95//21
f 95//2 96//2 89//2
f 96//2 95//2 94//2
f 92//1 96//1 94//1
f 88//67 89//67 96//67
f 96//1 92//1 88//1
f 93//21 91//21 99//21
f 97//9 116//9 93//9
f 93//9 98//9 97//9
f 99//21 98//21 93//21
f 98//10 99//10 100//10
f 10//24 100//24 99//24
f 99//24 91//24 10//24
f 100//1 10//1 116//1
f 116//1 97//1 100//1
f 100//10 97//10 98//10
f 92//1 116//1 10//1 2//1
f 92//1 2//1 88//1
f 11//10 10//10 91//10
f 91//10 101//10 11//10
f 6//21 101//21 91//21
f 91//21 7//21 6//21
f 103//9 11//9 101//9
f 6//21 15//21 101//21
f 101//21 15//21 102//21
f 102//21 104//21 101//21
f 101//9 104//9 103//9
f 105//10 103//10 104//10
f 104//10 102//10 105//10
f 105//1 12//1 11//1
f 11//1 103//1 105//1
f 12//24 105//24 102//24
f 102//24 15//24 12//24
f 2//1 81//1 88//1
f 81//69 2//69 69//69
f 8//1 55//1 73//1
f 73//2 55//2 70//2
f 8//70 73//70 69//70
f 106//9 70//9 55//9
f 51//21 70//21 106//21
f 59//71 70//71 51//71
f 70//72 59//72 61//72
f 55//9 54//9 106//9
f 107//2 106//2 54//2
f 106//21 107//21 51//21
f 51//24 107//24 53//24
f 54//2 53//2 107//2
f 2//73 68//73 69//73
f 68//73 2//73 7//73
f 3//74 108//74 66//74
f 66//74 9//74 3//74
f 66//75 108//75 6//75
f 108//76 109//76 6//76
f 4//77 109//77 108//77
f 108//77 3//77 4//77
f 5//78 22//78 109//78
f 109//78 4//78 5//78
f 6//79 109//79 22//79
f 59//80 51//80 49//80
f 37//81 40//81 56//81
f 48//82 37//82 56//82
f 56//82 50//82 48//82
f 48//83 43//83 28//83
f 37//31 48//31 28//31
f 28//84 43//84 32//84
f 43//21 41//21 32//21
f 110//24 41//24 39//24
f 32//21 41//21 110//21
f 39//24 111//24 110//24
f 32//10 110//10 111//10
f 111//1 39//1 33//1
f 111//10 33//10 32//10
f 29//24 31//24 112//24
f 19//2 112//2 31//2
f 112//24 113//24 29//24
f 112//1 19//1 113//1
f 30//10 29//10 113//10
f 18//1 113//1 19//1
f 113//10 18//10 30//10
f 14//21 30//21 114//21
f 114//24 30//24 18//24
f 114//21 115//21 14//21
f 115//10 114//10 17//10
f 18//24 17//24 114//24
f 14//9 115//9 16//9
f 17//10 16//10 115//10
f 20//85 19//85 26//85
f 22//86 14//86 6//86
f 6//21 14//21 15//21
