# Blender 5.0.1
# www.blender.org
mtllib torso_y_link_visual_3.mtl
o i01.torso.full.005_visual.001
v -0.014083 -0.090734 -0.008210
v -0.014419 -0.132886 -0.012742
v -0.013457 -0.090083 -0.015045
v -0.011550 -0.091293 -0.002345
v -0.029980 -0.092344 0.008694
v -0.034801 -0.091130 -0.004054
v -0.035045 -0.089887 -0.017122
v -0.035170 -0.061996 -0.011873
v -0.034923 -0.062931 -0.002061
v -0.032075 -0.060942 -0.022936
v -0.029287 -0.088617 -0.030432
v -0.021875 -0.059691 -0.036082
v -0.010128 -0.089563 -0.020497
v -0.020482 -0.087765 -0.039372
v -0.003374 -0.089195 -0.024364
v -0.010070 -0.087293 -0.044333
v -0.008002 -0.059101 -0.042263
v 0.001046 -0.087147 -0.045854
v 0.002858 -0.059031 -0.043002
v 0.006297 -0.089276 -0.023514
v 0.014621 -0.087423 -0.042974
v 0.022252 -0.059756 -0.035362
v 0.012466 -0.059234 -0.040872
v 0.026121 -0.088240 -0.034386
v 0.031944 -0.060856 -0.023855
v 0.012699 -0.089892 -0.017053
v 0.032240 -0.089108 -0.025290
v 0.014369 -0.090756 -0.007981
v 0.035228 -0.090130 -0.014554
v 0.035301 -0.062062 -0.011182
v 0.034535 -0.091369 -0.001546
v 0.034859 -0.062996 -0.001374
v 0.029822 -0.064239 0.011673
v 0.028165 -0.092556 0.010913
v 0.008270 -0.091631 0.001207
v 0.021142 -0.093212 0.017802
v 0.020580 -0.065117 0.020888
v 0.012048 -0.093683 0.022740
v 0.009838 -0.065628 0.026236
v 0.000876 -0.091861 0.003616
v 0.001566 -0.093866 0.024664
v -0.003704 -0.065724 0.027271
v -0.010037 -0.093748 0.023420
v -0.013534 -0.065479 0.024688
v -0.006278 -0.091740 0.002349
v -0.020519 -0.093251 0.018210
v -0.022289 -0.064998 0.019643
v -0.031361 -0.063976 0.008917
v -0.193088 -0.072207 0.095313
v -0.193088 0.005897 -0.058119
v -0.193088 0.076608 -0.051382
v 0.193146 -0.072207 0.095313
v -0.193088 -0.052553 -0.111001
v 0.234904 -0.100253 0.092641
v -0.234532 -0.100251 0.092640
v -0.193421 0.114744 0.113123
v -0.225350 -0.038279 0.098547
v -0.220540 -0.033693 0.098982
v -0.220540 0.069464 0.108809
v -0.218796 -0.027705 0.099553
v -0.225373 0.064863 0.108371
v -0.221121 0.074916 0.038355
v -0.228061 0.070590 0.037944
v -0.233874 0.063797 0.108270
v -0.234713 0.071029 0.037985
v -0.240752 0.075324 0.038395
v -0.225814 -0.016904 0.100582
v -0.221151 -0.020595 0.100229
v -0.231468 -0.015847 0.100682
v -0.240296 0.068369 0.108706
v -0.238127 -0.018195 0.100459
v -0.258866 -0.028903 0.099439
v -0.258652 0.083679 0.110167
v -0.242776 0.075341 0.109369
v -0.240189 0.089933 0.039785
v -0.242655 0.082477 0.039075
v -0.240810 0.081929 0.109998
v -0.235160 0.086561 0.110440
v -0.252440 0.107082 0.112389
v -0.230025 0.110299 -0.087339
v -0.226092 0.123136 -0.088094
v -0.219884 0.132363 -0.089226
v -0.243287 0.116878 0.113326
v -0.212583 0.137511 -0.089324
v -0.234951 0.119800 0.113606
v -0.205856 0.139166 -0.090090
v -0.228399 0.087100 0.110489
v -0.197545 0.119442 0.113570
v -0.198426 0.139008 -0.090767
v -0.195049 0.137045 -0.092735
v -0.221779 0.083538 0.110150
v -0.224322 0.092366 0.040016
v -0.218818 0.084092 0.039230
v -0.218782 0.075384 0.109374
v -0.232387 0.093965 0.040170
v -0.193114 0.132282 -0.093393
v -0.210440 0.136885 -0.092368
v -0.221748 0.128041 -0.090994
v -0.193091 0.082188 -0.097505
v -0.210406 0.083065 -0.097403
v -0.223319 0.082835 -0.094460
v -0.219289 0.080884 -0.093842
v -0.228876 0.080479 -0.088633
v -0.232573 0.082522 -0.085109
v -0.229040 0.083771 -0.090982
v -0.234909 0.076880 -0.051197
v -0.234721 0.005638 -0.058029
v -0.237248 0.078903 -0.049065
v -0.237192 0.003348 -0.056447
v -0.232114 0.006917 -0.093019
v -0.228578 0.007421 -0.098517
v -0.229260 0.009109 -0.093705
v -0.231140 -0.026215 -0.098838
v -0.256856 -0.056696 0.096790
v -0.226114 -0.054730 -0.106419
v -0.251914 -0.079789 0.094590
v -0.222943 0.008460 -0.101400
v -0.218075 -0.072385 -0.111174
v -0.244486 -0.093873 0.093248
v -0.210904 0.007378 -0.104832
v -0.207415 -0.080570 -0.113548
v -0.065352 -0.087964 -0.037288
v 0.000454 -0.083791 -0.081082
v -0.056754 -0.086476 -0.052902
v -0.016490 -0.083988 -0.079021
v -0.030417 -0.084456 -0.074115
v -0.043029 -0.085188 -0.066427
v 0.205408 -0.080651 -0.113606
v 0.193146 -0.052552 -0.111001
v -0.069532 -0.089236 -0.023930
v -0.070461 -0.091286 -0.002413
v -0.069944 -0.131659 -0.025620
v -0.070086 -0.133756 -0.003599
v -0.063322 -0.093561 0.021461
v -0.053784 -0.137072 0.031199
v -0.063395 -0.135703 0.016819
v -0.049544 -0.095309 0.039824
v -0.038827 -0.138349 0.044606
v -0.035881 -0.096296 0.050175
v -0.020423 -0.096955 0.057083
v -0.016112 -0.139270 0.054270
v -0.003079 -0.097218 0.059851
v 0.008694 -0.139396 0.055592
v 0.016001 -0.097072 0.058330
v 0.032538 -0.138702 0.048302
v 0.032818 -0.096453 0.051821
v 0.045526 -0.095667 0.043570
v 0.049489 -0.137528 0.035987
v 0.056900 -0.094507 0.031393
v 0.061736 -0.136024 0.020192
v 0.065201 -0.093151 0.017165
v 0.069055 -0.134230 0.001368
v 0.070359 -0.091328 -0.001977
v 0.070787 -0.132367 -0.018187
v 0.069973 -0.089434 -0.021855
v 0.066190 -0.130271 -0.040190
v 0.064927 -0.087839 -0.038605
v 0.057642 -0.086617 -0.051426
v 0.055138 -0.128494 -0.058861
v 0.047843 -0.085566 -0.062453
v 0.043092 -0.127389 -0.070444
v 0.033660 -0.084597 -0.072627
v 0.030471 -0.126656 -0.078137
v 0.017742 -0.084017 -0.078725
v 0.014668 -0.126140 -0.083554
v 0.002939 -0.131375 -0.028601
v -0.005246 -0.126012 -0.084901
v -0.005458 -0.131465 -0.027655
v -0.019867 -0.126281 -0.082072
v -0.033826 -0.126811 -0.076512
v -0.011515 -0.131907 -0.023014
v -0.047781 -0.127767 -0.066478
v -0.059112 -0.129003 -0.053490
v -0.065680 -0.130241 -0.040500
v 0.010187 -0.131764 -0.024517
v 0.013515 -0.132284 -0.019064
v 0.014146 -0.132926 -0.012324
v 0.011610 -0.133493 -0.006367
v 0.006319 -0.133941 -0.001667
v -0.000818 -0.134061 -0.000404
v -0.008671 -0.133805 -0.003099
v 0.208524 0.008209 -0.104730
v 0.193149 0.009285 -0.104148
v 0.193146 0.005897 -0.058119
v 0.218657 0.009807 -0.100631
v 0.228945 0.009022 -0.095774
v 0.223097 0.008199 -0.101699
v 0.229036 0.006372 -0.098304
v 0.222579 -0.064402 -0.109010
v 0.214577 -0.076240 -0.112276
v 0.228366 -0.045570 -0.103944
v 0.258864 -0.037670 0.098603
v 0.254941 -0.068247 0.095691
v 0.250834 -0.082739 0.094310
v 0.231683 -0.020750 -0.097376
v 0.232126 0.007182 -0.092970
v 0.237108 0.003613 -0.056569
v 0.234743 0.005640 -0.058016
v 0.237170 0.078512 -0.049554
v 0.234532 0.076812 -0.051281
v 0.193146 0.076608 -0.051382
v 0.230799 0.082001 -0.088937
v 0.226604 0.080597 -0.090714
v 0.193145 0.081034 -0.095760
v 0.222075 0.083406 -0.095162
v 0.214645 0.081291 -0.095288
v 0.207102 0.083305 -0.097689
v 0.193161 0.131794 -0.093439
v 0.193146 0.083428 -0.097770
v 0.219106 0.131164 -0.091415
v 0.207851 0.137765 -0.092175
v 0.217521 0.134337 -0.090038
v 0.211467 0.138021 -0.089319
v 0.194721 0.136735 -0.092867
v 0.199440 0.139396 -0.090242
v 0.235136 0.119804 0.113605
v 0.199232 0.119763 0.113602
v 0.195032 0.117432 0.113379
v 0.193233 0.112735 0.112930
v 0.221849 0.083285 0.110127
v 0.226506 0.086488 0.110431
v 0.219142 0.077678 0.109591
v 0.221840 0.090228 0.039815
v 0.230701 0.070122 0.037898
v 0.230535 0.094243 0.040196
v 0.219097 0.084121 0.039232
v 0.219561 0.078414 0.038688
v 0.219926 0.070205 0.108881
v 0.226055 0.064609 0.108346
v 0.222974 0.073297 0.038201
v 0.219901 -0.022882 0.100013
v 0.225179 -0.016956 0.100576
v 0.220653 -0.014766 0.029812
v 0.231938 0.063742 0.108264
v 0.233053 -0.015970 0.100671
v 0.234143 -0.009283 0.030334
v 0.225889 -0.010134 0.030253
v 0.228881 -0.032804 0.028093
v 0.235936 -0.038444 0.098530
v 0.227803 -0.039289 0.098450
v 0.218853 -0.021747 0.029147
v 0.221780 -0.028741 0.028480
v 0.242835 -0.020590 0.029257
v 0.240527 -0.027941 0.028557
v 0.235782 -0.031720 0.028196
v 0.240815 -0.014599 0.029827
v 0.238229 -0.018440 0.100435
v 0.242255 -0.024004 0.099906
v 0.241686 -0.032811 0.099065
v 0.221186 -0.034717 0.098885
v 0.218990 -0.028769 0.099451
v 0.244211 -0.094171 0.093222
v 0.238639 0.066245 0.108501
v 0.242866 0.074832 0.109320
v 0.258866 0.079222 0.109739
v 0.242174 0.078662 0.038712
v 0.238529 0.073124 0.038184
v 0.242294 0.085784 0.039390
v 0.237709 0.091847 0.039968
v 0.240630 0.082297 0.110033
v 0.256089 0.096865 0.111420
v 0.233759 0.087201 0.110499
v 0.250625 0.109884 0.112659
v 0.223385 0.128012 -0.088500
v 0.228440 0.117002 -0.088398
v 0.242958 0.117014 0.113339
v 0.232071 0.097877 -0.085139
v -0.193083 0.009317 -0.104053
v -0.211280 0.009751 -0.102691
v -0.232499 -0.039415 0.098437
v -0.231723 -0.032802 0.028093
v -0.239181 -0.029636 0.028396
v -0.237864 -0.037160 0.098653
v -0.242312 -0.030965 0.099243
v -0.242765 -0.021647 0.029157
v -0.241868 -0.023505 0.099953
v -0.241299 -0.015533 0.029738
v -0.237093 -0.010813 0.030190
v -0.228505 -0.009188 0.030342
v -0.221482 -0.013572 0.029925
v -0.218768 -0.019925 0.029322
v -0.220409 -0.026766 0.028668
v -0.224597 -0.031159 0.028252
vn 0.9958 -0.0176 0.0896
vn 0.9187 0.0350 -0.3934
vn -0.0001 0.9955 0.0948
vn -0.0000 0.9955 0.0949
vn -0.0000 0.9955 0.0948
vn -0.0000 0.9955 0.0947
vn 0.9631 -0.0456 0.2652
vn 0.9997 0.0091 -0.0243
vn 0.9998 0.0056 -0.0181
vn 0.9182 -0.0147 0.3958
vn -0.0001 0.9955 0.0949
vn 0.7911 -0.0844 0.6058
vn 0.7139 -0.0465 0.6987
vn 0.4317 -0.0838 0.8981
vn 0.1361 -0.0825 0.9873
vn 0.4085 -0.0966 0.9076
vn -0.2084 -0.0854 0.9743
vn 0.0682 -0.1050 0.9921
vn 0.0001 0.9955 0.0948
vn -0.6000 -0.0541 0.7982
vn -0.4921 -0.1021 0.8645
vn -0.2174 -0.0891 0.9720
vn -0.8308 -0.0369 0.5553
vn -0.7661 -0.0822 0.6374
vn 0.0001 0.9955 0.0949
vn -0.9637 -0.0236 0.2660
vn -0.0001 0.9955 0.0947
vn -0.9669 -0.0279 0.2534
vn -0.9986 0.0089 -0.0524
vn -0.9990 0.0117 -0.0439
vn -0.9332 0.0129 -0.3591
vn -0.8910 0.0642 -0.4494
vn -0.7019 0.0601 -0.7098
vn -0.7077 0.0632 -0.7037
vn -0.4789 0.0864 -0.8736
vn -0.1813 0.1075 -0.9775
vn -0.4472 0.0758 -0.8912
vn -0.0766 0.0778 -0.9940
vn 0.1070 0.1116 -0.9880
vn 0.2552 0.0748 -0.9640
vn 0.4467 0.0951 -0.8896
vn 0.5010 0.0751 -0.8622
vn 0.7107 0.0800 -0.6989
vn 0.7648 0.0423 -0.6428
vn 1.0000 -0.0000 -0.0000
vn 1.0000 0.0016 0.0016
vn -0.0000 -0.0949 0.9955
vn -0.0000 -0.0948 0.9955
vn 0.0002 -0.0947 0.9955
vn -0.0001 -0.0949 0.9955
vn -0.6911 0.7202 0.0614
vn -0.5307 0.8429 0.0888
vn -0.1250 0.9885 0.0852
vn 0.0001 -0.0948 0.9955
vn 0.0662 0.9926 0.1014
vn 0.5813 0.8101 0.0764
vn 0.5817 0.8098 0.0763
vn 0.0003 -0.0948 0.9955
vn -0.0001 -0.0948 0.9955
vn -0.0010 -0.0950 0.9955
vn 0.9427 0.3327 0.0268
vn 0.0001 -0.0949 0.9955
vn 0.0003 -0.0947 0.9955
vn 0.9498 -0.3114 -0.0300
vn 0.9586 -0.2837 -0.0239
vn 0.9666 0.2547 0.0275
vn 0.0001 -0.0950 0.9955
vn 0.6357 -0.7676 -0.0819
vn -0.0003 -0.0948 0.9955
vn 0.0001 -0.0946 0.9955
vn -0.9528 0.2859 -0.1023
vn -0.9589 0.2643 -0.1034
vn -0.8316 0.5515 -0.0651
vn -0.7288 0.6840 -0.0319
vn -0.0004 -0.0949 0.9955
vn -0.5763 0.8172 -0.0041
vn -0.3318 0.9422 0.0457
vn -0.0002 -0.0948 0.9955
vn -0.2322 0.9709 0.0591
vn 0.0096 0.9953 0.0960
vn 0.0004 -0.0948 0.9955
vn 0.0298 0.9950 0.0952
vn 0.5347 0.8414 0.0783
vn 0.7529 0.6549 0.0650
vn -0.4754 -0.8749 -0.0929
vn -0.8337 -0.5508 -0.0391
vn -0.9391 -0.3412 -0.0419
vn -0.9702 0.2406 0.0304
vn -0.9590 0.2819 0.0297
vn 0.0003 -0.0950 0.9955
vn -0.0002 -0.0947 0.9955
vn -0.1954 -0.9771 -0.0843
vn 0.0797 -0.9917 -0.1013
vn 0.4607 -0.8844 -0.0750
vn 0.9275 0.3723 0.0330
vn -0.0250 0.1269 -0.9916
vn -0.0245 0.6865 -0.7267
vn -0.2614 0.8925 -0.3675
vn -0.5037 0.7048 -0.4995
vn -0.0443 0.7492 -0.6608
vn -0.4797 0.5014 -0.7201
vn -0.1902 0.0913 -0.9775
vn -0.0372 0.0817 -0.9960
vn -0.0011 0.0931 -0.9957
vn -0.1683 -0.5962 -0.7850
vn -0.2229 0.0822 -0.9714
vn -0.0440 -0.7992 -0.5995
vn -0.2819 -0.7655 -0.5784
vn 0.0326 -0.9922 -0.1200
vn -0.0093 -0.9955 -0.0945
vn -0.7372 -0.4165 -0.5320
vn -0.5967 -0.7839 -0.1715
vn -0.5046 -0.5181 -0.6906
vn -0.0069 -0.9953 -0.0968
vn -0.5865 0.0758 -0.8064
vn -0.0038 0.0955 -0.9954
vn -0.7257 -0.6689 -0.1613
vn -0.6358 0.0746 -0.7682
vn -0.9905 0.0017 -0.1374
vn -0.9908 0.0147 -0.1347
vn -0.9910 0.0123 -0.1336
vn -0.6880 0.7253 -0.0247
vn -0.9903 -0.0048 -0.1385
vn -0.6232 0.7062 -0.3360
vn -0.8419 0.0692 -0.5351
vn -0.6115 0.7911 -0.0166
vn -0.9886 -0.0583 -0.1390
vn -0.9798 -0.1330 -0.1495
vn -0.7111 0.0608 -0.7004
vn -0.9698 -0.1934 -0.1486
vn -0.9137 -0.3719 -0.1636
vn -0.4671 0.0933 -0.8793
vn -0.3502 0.0916 -0.9322
vn -0.8793 -0.4484 -0.1607
vn -0.6233 -0.7652 -0.1610
vn -0.2644 0.1000 -0.9592
vn -0.1489 0.0917 -0.9846
vn -0.0008 -0.9955 -0.0951
vn -0.0007 -0.9955 -0.0952
vn -0.0002 -0.9952 -0.0974
vn -0.0002 -0.9953 -0.0972
vn -0.0006 -0.9954 -0.0954
vn -0.0004 -0.9954 -0.0961
vn -0.0005 -0.9954 -0.0957
vn -0.0148 0.0980 -0.9951
vn -0.0000 0.0905 -0.9959
vn -0.0001 0.0923 -0.9957
vn -0.5399 -0.8283 -0.1501
vn -0.0009 -0.9955 -0.0949
vn -0.0007 -0.9955 -0.0951
vn -0.9991 0.0114 -0.0420
vn -0.9999 -0.0086 -0.0072
vn -0.9584 -0.0164 0.2850
vn -0.0005 -0.9955 -0.0947
vn -0.8326 -0.0592 0.5508
vn -0.8011 -0.0420 0.5971
vn -0.9507 -0.0323 0.3084
vn -0.0004 -0.9955 -0.0945
vn -0.6691 -0.0845 0.7384
vn -0.6056 -0.0626 0.7933
vn -0.0004 -0.9955 -0.0944
vn -0.4096 -0.0915 0.9077
vn -0.0003 -0.9956 -0.0942
vn -0.3929 -0.1008 0.9140
vn -0.1583 -0.0815 0.9840
vn -0.0002 -0.9956 -0.0934
vn -0.0534 -0.1151 0.9919
vn 0.0798 -0.0781 0.9937
vn -0.0000 -0.9957 -0.0921
vn 0.0002 -0.9956 -0.0933
vn 0.2935 -0.1121 0.9494
vn 0.3624 -0.0798 0.9286
vn 0.0003 -0.9956 -0.0941
vn 0.5463 -0.0731 0.8344
vn 0.0003 -0.9955 -0.0943
vn 0.5894 -0.0896 0.8028
vn 0.7323 -0.0536 0.6789
vn 0.0004 -0.9955 -0.0945
vn 0.7915 -0.0715 0.6069
vn 0.8647 -0.0345 0.5012
vn 0.0004 -0.9955 -0.0946
vn 0.9325 -0.0501 0.3578
vn 0.9657 -0.0091 0.2593
vn 0.0005 -0.9955 -0.0947
vn 0.9997 0.0174 -0.0177
vn 0.9960 -0.0236 0.0860
vn 0.0005 -0.9955 -0.0949
vn 0.9789 0.0011 -0.2044
vn 0.9578 0.0392 -0.2848
vn 0.0004 -0.9955 -0.0947
vn 0.0003 -0.9955 -0.0949
vn 0.8704 0.0442 -0.4903
vn 0.0002 -0.9955 -0.0950
vn 0.8615 0.0384 -0.5063
vn 0.7490 0.0721 -0.6587
vn 0.0002 -0.9955 -0.0951
vn 0.6947 0.0581 -0.7169
vn 0.5846 0.0877 -0.8066
vn 0.5222 0.0717 -0.8498
vn 0.3591 0.0944 -0.9285
vn 0.0002 -0.9955 -0.0952
vn 0.3256 0.0842 -0.9418
vn 0.1357 0.1031 -0.9854
vn 0.0001 -0.9954 -0.0957
vn 0.0678 0.0808 -0.9944
vn -0.0000 -0.9955 -0.0948
vn -0.1213 0.1056 -0.9870
vn -0.1908 0.0858 -0.9779
vn -0.3336 0.0943 -0.9380
vn -0.3715 0.0822 -0.9248
vn -0.5222 0.0900 -0.8481
vn -0.5855 0.0663 -0.8080
vn -0.7035 0.0794 -0.7063
vn -0.7550 0.0509 -0.6538
vn -0.8769 0.0552 -0.4776
vn -0.8932 0.0409 -0.4477
vn -0.0000 -0.9955 -0.0949
vn -0.9547 0.0299 -0.2959
vn -0.9616 0.0203 -0.2737
vn 0.9624 -0.0070 0.2714
vn 0.6099 -0.0669 0.7896
vn 0.8545 -0.0587 0.5161
vn 0.4984 -0.0917 0.8621
vn 0.1124 -0.0826 0.9902
vn -0.0879 -0.1126 0.9897
vn -0.4925 -0.0656 0.8679
vn -0.7119 -0.0816 0.6976
vn -0.8546 -0.0410 0.5176
vn -0.0001 -0.9955 -0.0949
vn -0.9836 -0.0274 0.1784
vn -0.9957 -0.0043 0.0929
vn -0.9207 0.0448 -0.3877
vn -0.8342 0.0331 -0.5505
vn -0.6657 0.0811 -0.7418
vn -0.1750 0.1003 -0.9794
vn -0.3110 0.0787 -0.9471
vn 0.1752 0.0864 -0.9807
vn 0.3259 0.1032 -0.9398
vn 0.8598 0.0672 -0.5062
vn 0.6666 0.0583 -0.7431
vn -1.0000 -0.0000 -0.0000
vn 0.0001 0.9955 0.0951
vn -0.0001 0.9955 0.0946
vn 0.0151 0.0989 -0.9950
vn -0.0299 0.1101 -0.9935
vn -1.0000 -0.0002 -0.0001
vn -0.0305 0.9968 0.0734
vn 0.0449 0.8883 -0.4571
vn 0.0254 0.9940 0.1067
vn 0.2394 0.9011 -0.3615
vn 0.1300 0.7720 -0.6222
vn 0.5288 0.5956 -0.6047
vn 0.5142 0.0860 -0.8533
vn 0.2026 0.1016 -0.9740
vn 0.2523 0.0952 -0.9630
vn 0.4873 0.0841 -0.8692
vn 0.9832 -0.1125 -0.1437
vn 0.9851 -0.0933 -0.1447
vn 0.9541 -0.2555 -0.1560
vn 0.9552 -0.2518 -0.1555
vn 0.7897 0.0562 -0.6109
vn 0.9906 0.0059 -0.1369
vn 0.8590 0.0665 -0.5076
vn 0.9908 0.0196 -0.1337
vn 0.6563 0.7544 -0.0159
vn 0.5001 0.8660 0.0008
vn 0.7180 0.4935 -0.4908
vn 0.0059 0.9961 0.0883
vn 0.0030 0.0942 -0.9955
vn 0.5671 0.0763 -0.8201
vn 0.5081 0.0826 -0.8573
vn 0.0020 0.0948 -0.9955
vn 0.0051 -0.9953 -0.0966
vn 0.3745 -0.9128 -0.1629
vn 0.6091 -0.7753 -0.1672
vn 0.0019 -0.9951 -0.0993
vn 0.4714 -0.4454 -0.7612
vn 0.0159 -0.9815 -0.1906
vn 0.2142 -0.7126 -0.6681
vn 0.0237 -0.7279 -0.6853
vn 0.1496 -0.4740 -0.8677
vn 0.0449 0.1000 -0.9940
vn 0.0066 0.0892 -0.9960
vn -0.0012 -0.6430 -0.7658
vn 0.1652 0.0873 -0.9824
vn 0.1243 0.0982 -0.9874
vn 0.0444 0.1011 -0.9939
vn 0.3551 0.5158 -0.7796
vn 0.3843 0.7394 -0.5529
vn 0.1289 0.9598 -0.2493
vn -0.0199 0.7198 -0.6939
vn 0.1075 0.9913 0.0765
vn -0.0011 0.9954 0.0959
vn -0.4870 0.8694 0.0832
vn -0.5231 0.8485 0.0802
vn -0.9343 0.3547 0.0346
vn -0.0003 -0.0951 0.9955
vn -0.0003 -0.0950 0.9955
vn 0.5684 -0.8188 -0.0809
vn 0.9013 -0.4311 -0.0427
vn -0.0001 -0.0950 0.9955
vn 0.4207 -0.9040 -0.0757
vn 0.9129 -0.4065 -0.0378
vn 0.9967 0.0807 0.0043
vn 0.9946 0.1035 0.0088
vn -0.0007 -0.0947 0.9955
vn 0.6759 0.7345 0.0613
vn 0.8330 0.5500 0.0600
vn 0.0002 -0.0948 0.9955
vn 0.7483 -0.6599 -0.0683
vn 0.6643 -0.7446 -0.0655
vn 0.1248 -0.9879 -0.0920
vn 0.1030 -0.9901 -0.0950
vn -0.1558 0.9833 0.0943
vn -0.1038 0.9905 0.0897
vn 0.4983 0.8626 0.0871
vn -0.6248 -0.7781 -0.0652
vn -0.8114 -0.5812 -0.0613
vn -0.9480 -0.3173 -0.0231
vn -0.9979 0.0650 -0.0050
vn -0.0001 -0.0951 0.9955
vn -0.9544 0.2962 0.0361
vn -0.7013 0.7102 0.0606
vn -0.0000 -0.0946 0.9955
vn -0.4322 -0.8971 -0.0920
vn -0.6248 0.7771 0.0757
vn 0.9231 0.3824 0.0402
vn 0.5702 0.8182 0.0743
vn 0.9386 0.3434 0.0325
vn 0.9883 -0.1513 -0.0170
vn 0.9686 -0.2480 -0.0183
vn 0.5474 -0.8232 -0.1508
vn 0.8376 -0.5203 -0.1662
vn 0.8603 -0.4830 -0.1631
vn -0.3513 0.9319 0.0907
vn 0.1464 0.9854 0.0868
vn -0.8980 0.4388 0.0326
vn -0.3595 0.9287 0.0914
vn -0.8365 0.5453 0.0547
vn -0.9998 0.0158 0.0106
vn -0.7989 -0.5996 -0.0484
vn -0.9583 -0.2835 -0.0366
vn -0.0000 -0.0951 0.9955
vn -0.5827 -0.8081 -0.0859
vn 0.9058 0.4151 -0.0852
vn 0.7375 0.6742 -0.0391
vn 0.9156 0.3925 -0.0871
vn 0.6797 0.7331 -0.0226
vn 0.5205 0.8538 0.0076
vn 0.3370 0.9404 0.0451
vn 0.9790 0.1657 -0.1188
vn 0.9790 0.1655 -0.1188
vn 0.6796 0.3059 -0.6668
vn 0.8332 0.0646 -0.5492
vn 0.5856 0.0519 -0.8089
vn 0.4367 0.0973 -0.8943
vn 0.9908 0.0128 -0.1350
vn 0.9858 -0.0400 -0.1630
vn 0.7077 0.5474 -0.4467
vn 0.0984 -0.9897 -0.1036
vn -0.3181 -0.9447 -0.0800
vn 0.0003 -0.0945 0.9955
vn 0.3815 0.9193 0.0971
vn -0.9542 0.2980 0.0279
vn -1.0000 0.0006 0.0004
vn -1.0000 0.0004 0.0002
vn -1.0000 -0.0001 0.0005
vn -1.0000 0.0003 0.0001
vn -1.0000 0.0003 -0.0000
vn 0.9907 0.0119 -0.1357
vn 0.4461 -0.8827 -0.1477
vn 0.0978 0.0955 -0.9906
vn 0.0313 0.1115 -0.9933
vn -0.0399 0.6659 -0.7450
vn -0.1543 0.6483 -0.7456
vn -0.1286 0.9738 -0.1877
vn 0.0293 0.9968 0.0742
vn 0.0062 0.9965 0.0836
vn 1.0000 -0.0001 0.0001
vn -0.1576 0.9833 0.0907
vn 0.3923 0.9154 0.0904
vn 0.3889 0.9168 0.0909
vn -0.0002 -0.0949 0.9955
vn 0.8135 0.5797 0.0468
vn 0.9130 0.4051 0.0480
vn 0.9982 -0.0581 -0.0142
vn -0.0000 -0.0947 0.9955
vn 0.9727 -0.2314 -0.0184
vn 0.8187 -0.5713 -0.0582
vn 0.7481 -0.6610 -0.0584
vn -0.0006 -0.0946 0.9955
vn 0.3339 -0.9380 -0.0936
vn 0.1866 -0.9788 -0.0848
vn -0.1845 -0.9777 -0.1003
vn -0.5312 -0.8441 -0.0724
vn -0.6224 -0.7791 -0.0749
vn -0.9202 -0.3900 -0.0346
vn -0.0001 -0.0946 0.9955
vn -0.9497 -0.3112 -0.0349
vn -0.9727 0.2309 0.0252
vn -0.0000 -0.0950 0.9955
vn -0.9605 0.2772 0.0255
vn -0.7253 0.6852 0.0662
vn 0.0001 -0.0945 0.9955
vn -0.6917 0.7193 0.0654
vn -0.2256 0.9695 0.0958
vn -0.0002 -0.0951 0.9955
vn -0.3415 0.8708 -0.3538
vn -0.0060 0.9954 0.0959
vn -0.9906 -0.0359 -0.1321
vn -0.0027 0.0948 -0.9955
vn -0.8599 0.0380 -0.5091
vn -0.5076 0.0834 -0.8576
vn -0.5608 0.0922 -0.8228
vn -0.9880 0.0800 -0.1324
vn 1.0000 0.0005 -0.0000
vn -0.7937 0.4898 -0.3608
vn -0.6678 0.1619 -0.7265
vn 1.0000 0.0017 0.0016
vn 0.0004 -0.0945 0.9955
vn -0.0001 -0.0944 0.9955
vn -0.0001 0.9955 0.0950
vn 0.0002 0.9955 0.0944
vn 0.9358 0.0483 -0.3493
vn 0.9516 0.0258 -0.3064
s 0
usemtl Material.027
f 3//1 1//1 2//1
f 1//2 4//2 2//2
f 3//3 7//3 1//3
f 1//4 5//4 4//4
f 1//5 6//5 5//5
f 1//6 7//6 6//6
f 10//7 8//7 7//7
f 8//8 9//8 7//8
f 9//9 6//9 7//9
f 10//10 7//10 11//10
f 3//11 11//11 7//11
f 12//12 10//12 11//12
f 12//13 11//13 14//13
f 13//5 11//5 3//5
f 13//5 14//5 11//5
f 12//14 14//14 16//14
f 15//5 16//5 14//5
f 15//5 14//5 13//5
f 17//15 16//15 18//15
f 17//16 12//16 16//16
f 15//3 18//3 16//3
f 19//17 18//17 21//17
f 17//18 18//18 19//18
f 20//5 18//5 15//5
f 20//19 21//19 18//19
f 22//20 21//20 24//20
f 23//21 21//21 22//21
f 23//22 19//22 21//22
f 20//5 24//5 21//5
f 25//23 24//23 27//23
f 25//24 22//24 24//24
f 26//4 24//4 20//4
f 26//25 27//25 24//25
f 25//26 27//26 29//26
f 28//27 29//27 27//27
f 28//25 27//25 26//25
f 30//28 25//28 29//28
f 30//29 29//29 31//29
f 28//5 31//5 29//5
f 32//30 30//30 31//30
f 33//31 32//31 31//31
f 33//32 31//32 34//32
f 28//5 34//5 31//5
f 33//33 34//33 36//33
f 35//5 36//5 34//5
f 35//5 34//5 28//5
f 37//34 33//34 36//34
f 37//35 36//35 38//35
f 35//4 38//4 36//4
f 39//36 38//36 41//36
f 39//37 37//37 38//37
f 40//4 38//4 35//4
f 40//5 41//5 38//5
f 39//38 41//38 42//38
f 42//39 41//39 43//39
f 40//5 43//5 41//5
f 44//40 42//40 43//40
f 44//41 43//41 46//41
f 45//4 43//4 40//4
f 45//4 46//4 43//4
f 47//42 44//42 46//42
f 47//43 46//43 5//43
f 4//4 5//4 46//4
f 4//5 46//5 45//5
f 47//44 5//44 48//44
f 47//5 48//5 49//5
f 49//4 44//4 47//4
f 53//45 50//45 49//45
f 49//45 50//45 51//45
f 49//46 51//46 56//46
f 52//47 49//47 54//47
f 52//5 42//5 49//5
f 53//5 49//5 8//5
f 49//27 42//27 44//27
f 49//5 9//5 8//5
f 49//5 48//5 9//5
f 55//47 54//47 49//47
f 55//47 49//47 57//47
f 49//48 56//48 59//48
f 49//49 58//49 57//49
f 49//50 60//50 58//50
f 49//50 59//50 61//50
f 49//48 61//48 60//48
f 61//51 59//51 62//51
f 61//52 62//52 63//52
f 64//53 61//53 63//53
f 60//54 61//54 64//54
f 64//55 63//55 65//55
f 64//56 65//56 66//56
f 70//57 64//57 66//57
f 64//58 67//58 68//58
f 64//59 69//59 67//59
f 64//60 68//60 60//60
f 69//48 64//48 70//48
f 74//61 70//61 66//61
f 70//48 72//48 71//48
f 70//54 71//54 69//54
f 72//62 70//62 73//62
f 73//63 70//63 74//63
f 74//64 76//64 75//64
f 74//65 75//65 77//65
f 74//66 66//66 76//66
f 73//67 74//67 77//67
f 78//68 77//68 75//68
f 78//69 79//69 77//69
f 73//70 77//70 79//70
f 79//71 81//71 80//71
f 73//72 79//72 80//72
f 79//73 82//73 81//73
f 79//74 83//74 82//74
f 78//75 83//75 79//75
f 83//76 84//76 82//76
f 85//77 84//77 83//77
f 85//78 83//78 78//78
f 85//79 86//79 84//79
f 88//80 86//80 85//80
f 87//81 85//81 78//81
f 88//62 85//62 87//62
f 88//82 89//82 86//82
f 88//83 90//83 89//83
f 88//84 56//84 90//84
f 91//48 56//48 88//48
f 91//59 88//59 87//59
f 91//85 87//85 92//85
f 91//86 92//86 93//86
f 94//87 91//87 93//87
f 56//48 91//48 94//48
f 94//88 93//88 62//88
f 59//89 94//89 62//89
f 59//90 56//90 94//90
f 93//91 92//91 65//91
f 62//67 93//67 65//67
f 87//92 95//92 92//92
f 92//54 95//54 65//54
f 87//93 78//93 95//93
f 78//94 75//94 95//94
f 95//48 75//48 65//48
f 56//95 96//95 90//95
f 90//96 96//96 97//96
f 97//97 89//97 90//97
f 84//98 86//98 97//98
f 82//99 84//99 97//99
f 97//100 86//100 89//100
f 98//101 82//101 97//101
f 98//102 97//102 100//102
f 97//103 96//103 99//103
f 97//104 99//104 100//104
f 100//105 102//105 101//105
f 101//106 98//106 100//106
f 99//107 102//107 100//107
f 103//108 101//108 102//108
f 99//109 51//109 102//109
f 51//110 103//110 102//110
f 104//111 105//111 103//111
f 106//112 104//112 103//112
f 105//113 101//113 103//113
f 51//114 106//114 103//114
f 109//115 106//115 107//115
f 51//116 107//116 106//116
f 108//117 104//117 106//117
f 109//118 108//118 106//118
f 72//119 109//119 110//119
f 72//120 73//120 109//120
f 73//121 108//121 109//121
f 110//122 109//122 107//122
f 72//123 110//123 113//123
f 110//124 112//124 111//124
f 113//125 110//125 111//125
f 110//126 107//126 112//126
f 114//127 72//127 113//127
f 114//128 113//128 115//128
f 115//129 113//129 111//129
f 114//130 115//130 116//130
f 116//131 115//131 118//131
f 115//132 111//132 117//132
f 118//133 115//133 117//133
f 119//134 116//134 118//134
f 119//135 118//135 121//135
f 118//136 117//136 120//136
f 121//137 118//137 120//137
f 121//138 122//138 130//138
f 121//139 124//139 122//139
f 121//140 128//140 123//140
f 121//141 123//141 125//141
f 121//142 127//142 124//142
f 121//143 125//143 126//143
f 121//144 126//144 127//144
f 120//145 53//145 121//145
f 129//146 121//146 53//146
f 129//147 128//147 121//147
f 55//148 119//148 121//148
f 121//149 130//149 131//149
f 55//150 121//150 131//150
f 131//151 130//151 132//151
f 131//152 132//152 133//152
f 134//153 131//153 133//153
f 55//154 131//154 134//154
f 134//155 136//155 135//155
f 137//156 134//156 135//156
f 134//157 133//157 136//157
f 55//158 134//158 137//158
f 137//159 135//159 138//159
f 139//160 137//160 138//160
f 139//161 55//161 137//161
f 139//162 138//162 140//162
f 55//163 139//163 140//163
f 140//164 138//164 141//164
f 142//165 140//165 141//165
f 55//166 140//166 142//166
f 142//167 141//167 143//167
f 144//168 142//168 143//168
f 55//169 142//169 54//169
f 54//170 142//170 144//170
f 144//171 143//171 145//171
f 146//172 144//172 145//172
f 54//173 144//173 146//173
f 146//174 145//174 147//174
f 54//175 146//175 147//175
f 147//176 145//176 148//176
f 149//177 147//177 148//177
f 149//178 54//178 147//178
f 149//179 148//179 150//179
f 151//180 149//180 150//180
f 54//181 149//181 151//181
f 151//182 150//182 152//182
f 151//183 152//183 153//183
f 54//184 151//184 153//184
f 155//185 153//185 154//185
f 153//186 152//186 154//186
f 54//187 153//187 155//187
f 155//188 154//188 156//188
f 155//189 156//189 157//189
f 54//190 155//190 128//190
f 128//191 155//191 157//191
f 158//192 157//192 156//192
f 128//193 157//193 158//193
f 158//194 156//194 159//194
f 158//195 159//195 160//195
f 128//193 158//193 160//193
f 128//196 160//196 162//196
f 160//197 159//197 161//197
f 162//198 160//198 161//198
f 162//199 161//199 163//199
f 164//200 162//200 163//200
f 128//201 162//201 164//201
f 164//202 163//202 165//202
f 164//203 165//203 123//203
f 128//204 164//204 123//204
f 123//205 165//205 167//205
f 166//206 167//206 165//206
f 166//206 165//206 163//206
f 125//207 123//207 167//207
f 125//208 167//208 169//208
f 168//206 169//206 167//206
f 166//206 168//206 167//206
f 126//209 125//209 169//209
f 126//210 169//210 170//210
f 168//206 170//206 169//206
f 127//211 126//211 170//211
f 127//212 170//212 172//212
f 168//206 171//206 170//206
f 171//206 172//206 170//206
f 124//213 127//213 172//213
f 124//214 172//214 173//214
f 171//206 173//206 172//206
f 122//215 124//215 173//215
f 122//216 173//216 174//216
f 171//217 174//217 173//217
f 130//218 122//218 174//218
f 130//219 174//219 132//219
f 2//206 132//206 174//206
f 171//206 2//206 174//206
f 171//220 3//220 2//220
f 168//221 13//221 171//221
f 13//222 3//222 171//222
f 15//223 13//223 168//223
f 166//224 15//224 168//224
f 20//225 15//225 166//225
f 175//226 20//226 166//226
f 175//206 166//206 161//206
f 166//206 163//206 161//206
f 26//227 20//227 175//227
f 176//206 175//206 156//206
f 176//228 26//228 175//228
f 175//229 161//229 159//229
f 175//206 159//206 156//206
f 28//230 26//230 176//230
f 177//231 28//231 176//231
f 177//217 176//217 154//217
f 176//206 156//206 154//206
f 178//232 28//232 177//232
f 178//206 177//206 150//206
f 177//206 154//206 152//206
f 177//217 152//217 150//217
f 35//233 28//233 178//233
f 179//206 178//206 148//206
f 179//234 35//234 178//234
f 178//206 150//206 148//206
f 180//206 179//206 143//206
f 180//235 40//235 179//235
f 40//236 35//236 179//236
f 179//217 148//217 145//217
f 179//206 145//206 143//206
f 45//237 40//237 180//237
f 181//206 180//206 141//206
f 181//238 45//238 180//238
f 180//206 143//206 141//206
f 2//217 181//217 136//217
f 2//239 4//239 181//239
f 4//240 45//240 181//240
f 181//206 138//206 135//206
f 181//206 135//206 136//206
f 181//206 141//206 138//206
f 2//217 136//217 133//217
f 2//206 133//206 132//206
f 129//5 30//5 32//5
f 129//5 32//5 52//5
f 129//241 52//241 183//241
f 129//27 25//27 30//27
f 129//242 22//242 25//242
f 129//243 23//243 22//243
f 129//4 19//4 23//4
f 129//5 53//5 19//5
f 182//244 128//244 129//244
f 182//245 129//245 183//245
f 184//246 183//246 52//246
f 184//247 185//247 183//247
f 183//248 185//248 182//248
f 184//249 186//249 185//249
f 187//250 185//250 186//250
f 182//251 185//251 187//251
f 186//252 188//252 187//252
f 191//253 187//253 188//253
f 190//254 182//254 187//254
f 189//255 190//255 187//255
f 191//256 189//256 187//256
f 192//257 193//257 191//257
f 192//258 191//258 195//258
f 193//259 194//259 191//259
f 194//260 189//260 191//260
f 195//261 191//261 188//261
f 192//262 195//262 196//262
f 195//263 188//263 196//263
f 192//264 196//264 197//264
f 196//265 198//265 197//265
f 196//266 186//266 198//266
f 186//267 196//267 188//267
f 184//268 198//268 186//268
f 184//269 200//269 198//269
f 198//270 199//270 197//270
f 198//271 200//271 199//271
f 201//272 200//272 184//272
f 201//273 203//273 200//273
f 203//274 202//274 200//274
f 202//275 199//275 200//275
f 201//276 204//276 203//276
f 203//277 205//277 202//277
f 203//278 204//278 206//278
f 205//279 203//279 206//279
f 204//280 207//280 206//280
f 206//281 207//281 205//281
f 207//282 208//282 211//282
f 209//283 208//283 207//283
f 204//284 209//284 207//284
f 205//285 207//285 210//285
f 210//286 207//286 211//286
f 211//287 208//287 214//287
f 211//288 212//288 210//288
f 211//289 213//289 212//289
f 213//290 211//290 215//290
f 211//291 214//291 215//291
f 216//292 213//292 215//292
f 215//293 217//293 216//293
f 218//294 217//294 215//294
f 218//295 215//295 214//295
f 214//296 219//296 218//296
f 220//48 217//48 218//48
f 220//297 218//297 219//297
f 219//298 222//298 220//298
f 220//299 223//299 221//299
f 220//63 221//63 217//63
f 222//300 223//300 220//300
f 223//301 226//301 224//301
f 225//62 223//62 224//62
f 221//302 223//302 225//302
f 222//303 226//303 223//303
f 226//301 227//301 224//301
f 228//304 227//304 226//304
f 222//305 228//305 226//305
f 52//48 231//48 228//48
f 52//306 228//306 222//306
f 228//307 229//307 230//307
f 228//58 232//58 229//58
f 228//308 230//308 227//308
f 228//309 231//309 232//309
f 232//310 231//310 233//310
f 232//311 233//311 237//311
f 232//59 234//59 229//59
f 232//59 235//59 234//59
f 232//312 236//312 235//312
f 232//313 237//313 236//313
f 237//47 233//47 238//47
f 236//47 237//47 238//47
f 239//314 245//314 238//314
f 239//315 238//315 240//315
f 240//316 238//316 242//316
f 241//297 242//297 238//297
f 233//54 241//54 238//54
f 243//59 246//59 238//59
f 244//48 243//48 238//48
f 245//67 244//67 238//67
f 246//62 236//62 238//62
f 247//317 236//317 246//317
f 248//318 247//318 246//318
f 248//319 246//319 243//319
f 249//320 248//320 243//320
f 192//54 234//54 248//54
f 234//78 247//78 248//78
f 192//321 248//321 249//321
f 249//322 243//322 244//322
f 239//323 249//323 244//323
f 192//324 249//324 239//324
f 247//325 235//325 236//325
f 234//54 235//54 247//54
f 239//326 244//326 245//326
f 250//327 242//327 241//327
f 250//328 240//328 242//328
f 52//48 250//48 251//48
f 52//59 240//59 250//59
f 251//329 250//329 241//329
f 52//90 251//90 231//90
f 231//330 251//330 241//330
f 231//331 241//331 233//331
f 52//47 54//47 240//47
f 54//50 252//50 240//50
f 252//48 239//48 240//48
f 54//332 190//332 252//332
f 252//333 190//333 189//333
f 194//334 252//334 189//334
f 239//54 252//54 194//54
f 239//47 194//47 193//47
f 192//48 239//48 193//48
f 253//335 224//335 234//335
f 229//336 234//336 224//336
f 192//54 253//54 234//54
f 253//337 254//337 256//337
f 253//59 255//59 254//59
f 192//59 255//59 253//59
f 253//338 257//338 224//338
f 253//339 256//339 257//339
f 257//48 256//48 224//48
f 256//48 258//48 224//48
f 254//340 258//340 256//340
f 258//62 259//62 224//62
f 260//341 259//341 258//341
f 254//342 260//342 258//342
f 254//343 255//343 260//343
f 260//48 261//48 263//48
f 255//54 261//54 260//54
f 260//344 262//344 259//344
f 260//59 263//59 262//59
f 263//345 265//345 264//345
f 263//346 264//346 212//346
f 263//347 261//347 265//347
f 266//348 263//348 212//348
f 262//62 263//62 266//62
f 266//349 212//349 213//349
f 216//350 266//350 213//350
f 216//59 262//59 266//59
f 255//351 267//351 265//351
f 255//352 265//352 261//352
f 265//353 210//353 264//353
f 267//354 202//354 265//354
f 202//355 205//355 265//355
f 205//356 210//356 265//356
f 255//357 199//357 267//357
f 267//358 199//358 202//358
f 264//359 210//359 212//359
f 216//59 221//59 262//59
f 262//360 221//360 225//360
f 262//361 225//361 259//361
f 259//62 225//62 224//62
f 192//357 199//357 255//357
f 227//362 230//362 224//362
f 229//363 224//363 230//363
f 219//48 52//48 222//48
f 217//48 221//48 216//48
f 214//364 208//364 219//364
f 208//365 201//365 219//365
f 219//366 184//366 52//366
f 201//367 184//367 219//367
f 208//368 209//368 204//368
f 208//369 204//369 201//369
f 192//370 197//370 199//370
f 54//371 128//371 190//371
f 190//372 128//372 182//372
f 268//373 53//373 120//373
f 268//374 120//374 269//374
f 117//375 269//375 120//375
f 117//376 112//376 269//376
f 50//377 268//377 269//377
f 50//378 269//378 112//378
f 53//379 268//379 50//379
f 270//62 119//62 55//62
f 119//47 270//47 116//47
f 270//380 57//380 271//380
f 270//381 271//381 272//381
f 273//382 270//382 272//382
f 273//62 116//62 270//62
f 55//383 57//383 270//383
f 274//384 273//384 272//384
f 114//50 116//50 273//50
f 274//47 114//47 273//47
f 274//385 272//385 275//385
f 276//386 274//386 275//386
f 114//50 274//50 72//50
f 72//387 274//387 276//387
f 276//388 275//388 277//388
f 71//389 276//389 277//389
f 72//67 276//67 71//67
f 71//390 277//390 278//390
f 278//391 277//391 275//391
f 69//392 71//392 278//392
f 69//393 278//393 279//393
f 279//90 278//90 275//90
f 67//394 69//394 279//394
f 67//395 279//395 280//395
f 280//387 279//387 275//387
f 67//396 280//396 68//396
f 68//397 280//397 281//397
f 281//398 280//398 275//398
f 60//399 68//399 281//399
f 60//400 281//400 282//400
f 282//401 281//401 275//401
f 58//402 60//402 282//402
f 58//403 282//403 283//403
f 283//404 282//404 275//404
f 57//405 58//405 283//405
f 57//406 283//406 271//406
f 271//407 283//407 275//407
f 272//54 271//54 275//54
f 117//408 111//408 112//408
f 50//409 112//409 107//409
f 73//410 104//410 108//410
f 51//411 50//411 107//411
f 105//412 104//412 80//412
f 105//413 98//413 101//413
f 105//414 80//414 98//414
f 73//415 80//415 104//415
f 96//416 51//416 99//416
f 81//417 82//417 98//417
f 80//418 81//418 98//418
f 56//419 51//419 96//419
f 76//420 66//420 65//420
f 75//59 76//59 65//59
f 63//421 62//421 65//421
f 53//4 12//4 17//4
f 53//5 10//5 12//5
f 53//5 8//5 10//5
f 53//5 17//5 19//5
f 52//5 33//5 37//5
f 52//422 37//422 39//422
f 52//5 32//5 33//5
f 52//423 39//423 42//423
f 48//424 5//424 6//424
f 48//425 6//425 9//425
