# Blender 5.0.1
# www.blender.org
mtllib torso_y_link_visual_76.mtl
o i01.torso.full.078_visual.001
v 0.460072 0.148930 0.078417
v 0.442045 0.150262 0.087836
v 0.458291 0.148306 0.068133
v 0.462275 0.102735 0.083866
v 0.458160 0.102083 0.073954
v 0.459229 0.102436 0.079319
v 0.466970 0.149535 0.083945
v 0.620130 0.153175 0.138626
v 0.472209 0.149421 0.084922
v 0.472209 0.103005 0.087974
v 0.487651 0.150266 0.087908
v 0.466833 0.102934 0.086906
v 0.461927 0.087110 0.099815
v 0.472209 0.087245 0.101858
v 0.453210 0.086728 0.094005
v 0.447386 0.086156 0.085307
v 0.461927 0.002859 0.105355
v 0.453210 -0.004035 0.099973
v 0.447386 -0.008314 0.091518
v 0.444629 -0.010107 0.106938
v 0.473854 0.011398 0.143132
v 0.445341 -0.009527 0.081292
v 0.403441 -0.039649 0.062710
v 0.441386 -0.010696 0.071277
v 0.409535 -0.038303 0.147245
v 0.481744 0.019885 0.115220
v 0.472209 0.011439 0.106842
v 0.482673 0.021064 0.104103
v 0.491302 0.028970 0.097725
v 0.497033 0.034362 0.088712
v 0.497033 0.086156 0.085307
v 0.507064 0.044672 0.078982
v 0.482491 0.087110 0.099815
v 0.491208 0.086728 0.094005
v 0.544501 0.073300 0.136209
v 0.525627 0.057309 0.144196
v 0.611962 0.136784 0.139471
v 0.619175 0.146341 0.139833
v 0.442902 0.006774 -0.142507
v 0.487804 0.050521 -0.148787
v 0.581759 0.127369 -0.006442
v 0.621681 0.148781 0.136016
v 0.621594 0.152471 0.135456
v 0.557591 0.129396 -0.158957
v 0.552908 0.124110 -0.162432
v 0.558315 0.133329 -0.156994
v 0.555081 0.133256 -0.162679
v 0.545738 0.131689 -0.164005
v 0.456822 0.148117 0.055235
v 0.110632 0.147493 0.045736
v -0.146370 0.133484 -0.162158
v 0.485892 0.148079 0.054667
v -0.150285 0.130902 -0.163831
v -0.215746 0.132721 -0.159988
v -0.216031 0.129327 -0.160997
v 0.091670 -0.167913 -0.144419
v -0.147785 -0.001577 -0.155196
v -0.237735 -0.111118 -0.147977
v -0.217317 -0.003664 -0.154258
v -0.221308 0.012727 -0.152822
v -0.239934 -0.087617 -0.148178
v -0.228817 -0.035949 -0.151362
v -0.226015 -0.054445 -0.127925
v -0.236637 -0.071313 -0.146591
v -0.246271 -0.105106 -0.145622
v -0.236097 -0.096058 -0.120833
v -0.223193 -0.092598 -0.089820
v -0.249750 -0.130256 -0.115319
v -0.256365 -0.128391 -0.143708
v -0.233549 -0.124771 -0.081450
v -0.227358 -0.114626 -0.066472
v -0.235542 -0.132630 -0.065521
v -0.248149 -0.147986 -0.083517
v -0.261029 -0.146929 -0.117014
v -0.247763 -0.150271 -0.067718
v -0.262757 -0.168692 -0.069415
v -0.284361 -0.184770 -0.091891
v -0.290270 -0.190802 -0.082145
v -0.328125 -0.207636 -0.130914
v -0.323730 -0.212683 -0.088865
v -0.298303 -0.180720 -0.139104
v -0.327880 -0.214932 -0.104977
v -0.280340 -0.184124 -0.070413
v -0.323589 -0.206271 -0.061786
v -0.323605 -0.210297 -0.073700
v -0.277433 -0.178316 -0.056108
v -0.263164 -0.165187 -0.053277
v -0.271063 -0.155457 -0.035955
v -0.315973 -0.191198 -0.043460
v -0.331577 -0.203399 -0.050185
v -0.328946 -0.185443 -0.031883
v -0.288204 -0.146510 -0.021441
v -0.344396 -0.172909 -0.019931
v -0.307248 -0.135707 -0.010879
v -0.279980 -0.100481 -0.005864
v -0.261168 -0.111004 -0.018455
v -0.253080 -0.091905 -0.018304
v -0.238539 -0.103330 -0.032996
v -0.246750 -0.121988 -0.033018
v -0.230249 -0.111609 -0.049410
v -0.238088 -0.128537 -0.048570
v -0.216598 -0.058784 -0.057381
v -0.228172 -0.056487 -0.033063
v -0.245874 -0.051293 -0.014543
v -0.217420 0.003645 -0.040999
v -0.205481 0.004143 -0.065415
v -0.239670 -0.003183 -0.017478
v -0.212865 0.037541 -0.046368
v -0.233018 0.042775 -0.025464
v -0.262608 0.036459 -0.008838
v -0.222356 0.082270 -0.033698
v -0.265358 -0.007834 -0.004731
v -0.249193 0.087252 -0.018767
v -0.288100 0.130553 -0.016303
v -0.288852 0.088711 -0.006458
v -0.295410 0.061784 -0.000738
v -0.222078 0.127270 -0.044251
v -0.247559 0.127245 -0.029734
v -0.279257 0.137249 -0.019354
v -0.244741 0.135859 -0.031432
v -0.219181 0.137360 -0.044808
v -0.238805 0.139276 -0.031868
v -0.272080 0.140370 -0.019447
v -0.310361 0.139887 -0.010143
v -0.203616 0.141695 -0.030257
v -0.238158 0.145648 0.017828
v -0.324317 0.143338 -0.000240
v -0.446688 0.147417 0.064184
v -0.391330 0.142973 0.019053
v -0.386988 0.136206 0.013160
v -0.464006 0.145052 0.059700
v -0.424748 0.138934 0.030915
v -0.452258 0.142608 0.047875
v -0.463924 0.136216 0.051620
v -0.476529 0.141054 0.062148
v -0.492154 0.143365 0.078317
v -0.483105 0.146116 0.076887
v -0.491263 0.139501 0.073843
v -0.480852 0.132364 0.063102
v -0.493982 0.094444 0.076229
v -0.493607 0.133094 0.074289
v -0.480945 0.100659 0.064763
v -0.481871 0.075093 0.064986
v -0.459679 0.076763 0.050910
v -0.417293 0.072219 0.029669
v -0.431741 0.130327 0.033448
v -0.484864 0.055742 0.064399
v -0.463528 0.042345 0.050377
v -0.488016 0.041742 0.063183
v -0.484178 0.023980 0.056106
v -0.422259 0.031256 0.031325
v -0.446067 0.015386 0.039502
v -0.479418 0.000613 0.047894
v -0.431990 -0.013569 0.031733
v -0.411682 0.002201 0.026306
v -0.387042 0.021899 0.018743
v -0.373688 -0.006373 0.016239
v -0.399223 -0.034953 0.020358
v -0.397731 -0.066915 0.013888
v -0.382653 -0.053290 0.014939
v -0.425841 -0.038933 0.025830
v -0.375206 -0.034728 0.015983
v -0.337528 -0.050883 0.011234
v -0.345323 -0.066992 0.011853
v -0.350190 -0.092440 0.005584
v -0.310093 -0.080996 0.003726
v -0.290420 -0.060295 0.002026
v -0.292888 -0.088141 0.001270
v -0.324699 -0.019440 0.006578
v -0.312140 -0.109737 -0.002742
v -0.293579 -0.013877 0.001686
v -0.325738 0.010507 0.004857
v -0.291091 0.023071 -0.001742
v -0.338298 0.048054 0.008965
v -0.319008 0.100039 -0.001429
v -0.388634 0.095644 0.016258
v -0.387857 0.057359 0.018416
v -0.354026 0.119953 0.004081
v -0.315774 0.132227 -0.009145
v -0.272347 -0.082819 -0.005434
v -0.266122 -0.049309 -0.003609
v -0.417043 -0.105718 0.004975
v -0.376000 -0.137103 -0.005341
v -0.437888 -0.143806 -0.007045
v -0.389206 -0.163049 -0.011723
v -0.395074 -0.184124 -0.018208
v -0.370106 -0.173793 -0.016885
v -0.429524 -0.180755 -0.019996
v -0.491408 -0.183361 -0.021638
v -0.396343 -0.211242 -0.030337
v -0.401519 -0.221631 -0.031250
v -0.374351 -0.220228 -0.035210
v -0.377129 -0.209973 -0.031545
v -0.473910 -0.210785 -0.028749
v -0.614497 -0.190966 -0.025187
v -0.604881 -0.201061 -0.027548
v -0.443368 -0.219109 -0.027156
v -0.519997 -0.210920 -0.026150
v -0.575228 -0.209456 -0.023336
v -0.608650 -0.206017 -0.026756
v -0.521831 -0.212574 -0.020196
v -0.441522 -0.221295 -0.020675
v -0.559362 -0.210703 -0.010813
v -0.492286 -0.215790 -0.008864
v -0.477426 -0.206954 0.146029
v -0.435905 -0.222488 -0.007505
v -0.555296 -0.200435 0.146308
v -0.481696 -0.204629 0.153514
v -0.607898 -0.199600 0.146132
v -0.560149 -0.198250 0.153255
v -0.505776 -0.199195 0.157262
v -0.610947 -0.196879 0.153331
v -0.574131 -0.195017 0.156910
v -0.501277 -0.195715 0.159383
v -0.614043 -0.190283 0.158415
v -0.607572 -0.194730 0.156916
v -0.532324 -0.184879 0.160421
v -0.615511 -0.194297 0.151212
v -0.613409 -0.181209 0.160248
v -0.618661 -0.182383 0.157405
v -0.618108 -0.189674 0.144649
v -0.620101 -0.182878 -0.016905
v -0.621026 -0.147498 0.156580
v -0.619269 -0.165092 0.159542
v -0.621681 -0.087239 0.154084
v -0.122466 -0.227190 0.164004
v -0.219423 -0.229342 0.163151
v -0.297994 -0.157758 0.160359
v -0.619167 -0.079561 0.154835
v -0.620828 -0.023157 0.149555
v -0.618379 -0.000507 0.148526
v -0.511720 0.000708 0.149137
v -0.541822 0.021490 0.146326
v -0.497067 0.039571 0.146256
v -0.507647 0.094684 0.140401
v -0.513278 0.063187 0.142574
v -0.523235 0.042144 0.144038
v -0.487360 0.144764 0.139082
v -0.443612 0.151990 0.139014
v -0.380713 0.153235 0.137842
v -0.480360 0.151095 0.137716
v -0.497650 0.149928 0.135026
v -0.502480 0.146599 0.136923
v -0.487512 0.149185 0.103284
v -0.500230 0.147248 0.102443
v -0.507252 0.147332 0.132926
v -0.508245 0.145636 0.112773
v -0.504179 0.144565 0.097189
v -0.508216 0.141311 0.097871
v -0.500292 0.140191 0.084321
v -0.502720 0.133766 0.084801
v -0.503727 0.092458 0.087339
v -0.511428 0.134858 0.099977
v -0.511367 0.090743 0.099919
v -0.505714 0.071277 0.086556
v -0.518572 0.065023 0.113050
v -0.513378 0.069900 0.097966
v -0.515548 0.087149 0.116656
v -0.519773 0.066051 0.136881
v -0.515287 0.093666 0.134334
v -0.514434 0.136296 0.113324
v -0.514403 0.138628 0.131413
v -0.512148 0.142308 0.113091
v -0.512207 0.143879 0.130891
v -0.511001 0.142699 0.134690
v -0.512916 0.095204 0.137759
v -0.507392 0.138196 0.137364
v -0.517768 0.065610 0.140112
v -0.523547 0.051141 0.141316
v -0.525860 0.051179 0.138164
v -0.528384 0.039105 0.098386
v -0.521488 0.055323 0.112956
v -0.530780 0.043750 0.139067
v -0.534709 0.032360 0.094538
v -0.532268 0.039169 0.142311
v -0.537450 0.037467 0.139891
v -0.549384 0.030888 0.139930
v -0.545223 0.030312 0.143425
v -0.570815 0.023652 0.144039
v -0.607454 0.019802 0.145530
v -0.572809 0.025320 0.140671
v -0.610165 0.023848 0.141795
v -0.608625 0.019722 0.078600
v -0.615146 0.018131 0.144711
v -0.614266 0.017248 0.076577
v -0.575031 0.020997 0.084366
v -0.616126 0.019279 0.140623
v -0.618807 0.009819 0.144913
v -0.618064 0.010095 0.073092
v -0.620502 -0.014897 0.053312
v -0.616893 0.007825 0.065625
v -0.611395 0.013966 0.069401
v -0.615875 0.000516 0.059282
v -0.618954 -0.034925 0.041706
v -0.582305 0.010477 0.067306
v -0.578372 -0.035049 0.041026
v -0.580682 -0.002004 0.058407
v -0.552240 0.011435 0.066982
v -0.540060 -0.001327 0.056973
v -0.533195 -0.020032 0.046735
v -0.527024 0.016370 0.067604
v -0.511558 0.006557 0.057491
v -0.500087 -0.009587 0.047721
v -0.513500 0.025174 0.069826
v -0.501315 0.016787 0.060729
v -0.506147 0.034167 0.071162
v -0.508345 0.046066 0.078353
v -0.518242 0.034034 0.078816
v -0.519782 0.042243 0.087286
v -0.528383 0.034352 0.086959
v -0.535982 0.024686 0.078465
v -0.555978 0.020003 0.077317
v -0.541370 0.027463 0.087710
v -0.555202 0.023532 0.085974
v -0.581612 0.017524 0.075511
v -0.522900 0.045439 0.095673
v -0.518646 0.059461 0.104088
v -0.514810 0.057331 0.092745
v -0.503317 0.057936 0.079218
v -0.495972 0.071015 0.075972
v -0.475857 -0.046563 0.031455
v -0.516791 -0.080453 0.020213
v -0.618597 -0.149932 -0.008829
v -0.618537 -0.186593 -0.022044
v -0.620213 -0.102513 0.012115
v -0.621282 -0.148193 -0.004916
v -0.617857 -0.197206 -0.023490
v -0.613986 -0.207742 -0.015329
v -0.613831 -0.205618 -0.024881
v -0.614565 -0.200905 -0.026296
v -0.618264 -0.199293 -0.014495
v -0.607649 -0.209390 -0.022456
v -0.607759 -0.210012 -0.011705
v -0.612557 -0.198222 0.145260
v -0.614734 0.011407 0.147199
v 0.030589 0.150777 0.095673
v -0.125913 0.143408 -0.018174
v 0.110632 0.150777 0.095673
v 0.110632 0.234777 0.039997
v 0.110632 0.238061 0.089933
v 0.035509 0.244322 0.086387
v 0.030589 0.238060 0.089933
v 0.105509 0.244322 0.086387
v 0.105509 0.241451 0.042719
v 0.035509 0.241451 0.042719
v 0.030589 0.234777 0.039997
v 0.030589 0.147493 0.045736
v -0.182765 0.136643 -0.111709
v -0.187188 0.139278 -0.065238
v -0.193670 0.137165 -0.071043
v -0.184602 0.136971 -0.095259
v -0.187633 0.136841 -0.083940
v -0.214077 0.139238 -0.045113
v -0.203100 0.137670 -0.058470
v -0.206182 0.133211 -0.058273
v -0.195935 0.133170 -0.071057
v -0.189884 0.132437 -0.084137
v -0.196507 0.098407 -0.067417
v -0.192569 0.071628 -0.080940
v -0.206987 0.079323 -0.049075
v -0.196497 0.074409 -0.066444
v -0.197106 0.035087 -0.096115
v -0.198867 0.018456 -0.084005
v -0.189923 0.102407 -0.094367
v -0.188251 0.135041 -0.108150
v -0.199643 0.040213 -0.106551
v -0.187439 0.134434 -0.096187
v -0.218193 -0.010351 -0.131349
v -0.214981 0.065763 -0.145639
v -0.192769 0.134524 -0.120565
v -0.212781 0.023239 -0.130245
v -0.209130 -0.040330 -0.097311
v -0.210951 -0.051618 -0.079065
v -0.218936 0.129323 -0.159309
v -0.216732 0.132492 -0.157313
v 0.146120 -0.151713 0.159634
v 0.000690 -0.210987 0.162096
v 0.402606 -0.034995 0.151626
v 0.072837 -0.192114 0.160807
v 0.283074 -0.111070 0.155584
v 0.165709 -0.161613 0.158668
v 0.183667 -0.157915 0.154899
v 0.135881 -0.174938 0.156771
v 0.235905 -0.135596 0.155231
v 0.233696 -0.137950 0.149337
v 0.296466 -0.107810 0.151706
v 0.307272 -0.100681 0.061275
v 0.263616 -0.123249 0.059053
v 0.335487 -0.083321 0.153563
v 0.361361 -0.070802 0.149159
v 0.356755 -0.071084 0.052788
v 0.387255 -0.051700 0.151142
v 0.447493 -0.007847 0.148578
v 0.391286 -0.035907 -0.136568
v 0.370037 -0.050116 -0.144904
v 0.304753 -0.092955 -0.122271
v 0.333892 -0.073855 -0.143331
v 0.285644 -0.099568 -0.145887
v 0.332456 -0.072081 -0.148005
v 0.267845 -0.111357 -0.140467
v 0.233751 -0.125557 -0.144495
v 0.187880 -0.149082 -0.137831
v 0.156499 -0.158495 -0.143155
v 0.131802 -0.170642 -0.136868
v 0.169413 -0.163959 0.078321
v 0.223166 -0.142070 0.067439
v 0.124422 -0.180070 0.150680
v 0.108632 -0.184860 0.083891
v 0.092226 -0.184338 -0.132964
v 0.071952 -0.188428 -0.140853
v 0.043813 -0.200269 -0.023877
v 0.039938 -0.204543 0.086969
v 0.035967 -0.200489 -0.135069
v -0.012135 -0.212880 -0.033720
v -0.002413 -0.209261 -0.136643
v -0.023356 -0.210697 -0.140278
v -0.045476 -0.217749 -0.136035
v -0.092555 -0.225102 -0.135741
v -0.084401 -0.224603 -0.040391
v -0.092277 -0.222415 -0.139374
v -0.218813 -0.237302 -0.138722
v -0.303045 -0.236146 -0.139850
v -0.284883 -0.243712 -0.135036
v -0.204820 -0.238322 -0.132278
v -0.308124 -0.242095 -0.138263
v -0.332058 -0.239074 -0.137797
v -0.318266 -0.243094 -0.134750
v -0.335376 -0.232937 -0.139368
v -0.265879 -0.154929 -0.144692
v -0.339338 -0.235116 -0.136832
v -0.341198 -0.229914 -0.137472
v -0.339726 -0.223925 -0.138256
v -0.332937 -0.214486 -0.139194
v -0.286378 -0.171144 -0.142359
v -0.325911 -0.205649 -0.137962
v -0.338105 -0.218139 -0.134419
v -0.342249 -0.227625 -0.134033
v -0.333650 -0.224391 -0.105514
v -0.331060 -0.228482 -0.088930
v -0.330229 -0.221557 -0.088384
v -0.333849 -0.230257 -0.104811
v -0.329036 -0.233245 -0.088594
v -0.340805 -0.233603 -0.133547
v -0.330629 -0.235543 -0.104150
v -0.319581 -0.239980 -0.087805
v -0.324380 -0.236555 -0.080396
v -0.336297 -0.237927 -0.132889
v -0.328815 -0.241169 -0.133371
v -0.318794 -0.238497 -0.052721
v -0.328719 -0.233241 -0.059803
v -0.328491 -0.232429 -0.074810
v -0.332454 -0.228023 -0.064350
v -0.331329 -0.226454 -0.073981
v -0.330790 -0.219687 -0.073914
v -0.334179 -0.220717 -0.063985
v -0.331428 -0.213475 -0.063451
v -0.339687 -0.217645 -0.054559
v -0.337504 -0.225560 -0.055228
v -0.338275 -0.231213 -0.046331
v -0.345991 -0.222860 -0.046799
v -0.355005 -0.227407 -0.039423
v -0.348848 -0.214106 -0.045611
v -0.358949 -0.220389 -0.039931
v -0.361653 -0.212164 -0.037801
v -0.359789 -0.193506 -0.029526
v -0.347777 -0.207289 -0.043746
v -0.345064 -0.199343 -0.039543
v -0.337680 -0.210101 -0.052828
v -0.330564 -0.236695 -0.039149
v -0.353422 -0.232123 -0.034546
v -0.372363 -0.226965 -0.034069
v -0.380027 -0.228718 -0.029789
v -0.347989 -0.234820 -0.028719
v -0.318456 -0.239476 -0.022223
v -0.200309 -0.237521 0.090912
v -0.276942 -0.233651 0.082781
v -0.337835 -0.228188 0.075424
v -0.304388 -0.241819 -0.049466
v -0.291269 -0.243731 -0.063739
v -0.275585 -0.244322 -0.084448
v -0.168368 -0.237031 0.055877
v -0.207792 -0.239296 -0.053720
v -0.100970 -0.231981 0.113989
v -0.037106 -0.223217 0.151769
v -0.128069 -0.235681 0.157015
v -0.062194 -0.225398 0.161314
v -0.123429 -0.233108 0.162023
v -0.192183 -0.236422 0.153122
v -0.165711 -0.235758 0.160259
v -0.221498 -0.232916 0.160497
v -0.166958 -0.232333 0.163298
v -0.279350 -0.229201 0.154188
v -0.001392 -0.215122 0.158920
v 0.057679 -0.200187 0.157768
v -0.272535 -0.153477 -0.141168
v -0.267462 -0.148417 -0.143810
v -0.253899 -0.128516 -0.145838
v 0.262181 -0.107380 -0.147573
v 0.460342 0.034277 -0.157628
v 0.373670 -0.043837 -0.150861
v 0.420381 -0.007088 -0.153648
v 0.416744 -0.013371 -0.150517
v 0.471372 0.036588 -0.155713
v 0.535359 0.102939 -0.159996
v 0.447665 -0.004066 0.044175
v 0.453210 -0.001775 0.061744
v 0.495421 0.037563 0.040510
v 0.472209 0.015046 0.052749
v 0.461927 0.005969 0.055398
v 0.453210 0.084235 0.056087
v 0.461927 0.083853 0.050277
v 0.472209 0.101161 0.059934
v 0.466833 0.101231 0.061001
v 0.472209 0.083719 0.048234
v 0.482491 0.023879 0.054220
v 0.482491 0.083853 0.050277
v 0.477586 0.101231 0.061001
v 0.477586 0.147648 0.057948
v 0.484168 0.148003 0.062924
v 0.482144 0.101431 0.064040
v 0.491208 0.084235 0.056087
v 0.485189 0.101730 0.068587
v 0.491208 0.031182 0.059576
v 0.497033 0.084807 0.064785
v 0.497033 0.035774 0.068008
v 0.499078 0.036650 0.078257
v 0.499078 0.085482 0.075046
v 0.486258 0.102083 0.073954
v 0.485189 0.102436 0.079319
v 0.485189 0.148852 0.076267
v 0.482144 0.102735 0.083866
v 0.477586 0.102934 0.086906
v 0.480088 0.149258 0.082682
v 0.486280 0.148602 0.070867
v 0.469451 0.147575 0.057012
v 0.462275 0.147847 0.060987
v 0.462275 0.101431 0.064040
v 0.459229 0.101730 0.068587
v 0.447386 0.084807 0.064785
v 0.445341 0.085482 0.075046
v 0.447386 -0.007059 0.070826
vn 0.0385 0.9970 -0.0672
vn 0.0100 0.9926 -0.1212
vn 0.9853 -0.0241 -0.1692
vn 0.8314 -0.0258 -0.5551
vn 0.6275 -0.0616 -0.7762
vn 0.9808 -0.0216 -0.1941
vn 0.0130 0.9946 -0.1025
vn -0.0486 0.9964 0.0698
vn 0.1815 -0.0645 -0.9813
vn 0.1844 0.0892 -0.9788
vn 0.1951 -0.0628 -0.9788
vn 0.5557 -0.0544 -0.8296
vn 0.1556 -0.6530 -0.7412
vn 0.4433 -0.6452 -0.6222
vn 0.1558 -0.6530 -0.7412
vn 0.4432 -0.6451 -0.6224
vn 0.8315 -0.0365 -0.5544
vn 0.6633 -0.6307 -0.4027
vn 0.5555 -0.0546 -0.8297
vn 0.6633 -0.6307 -0.4028
vn 0.8315 -0.0364 -0.5544
vn 0.5828 -0.8125 0.0098
vn 0.6018 -0.7973 0.0465
vn 0.6104 -0.7918 -0.0224
vn 0.6349 -0.7706 -0.0548
vn 0.6019 -0.7851 0.1460
vn 0.5268 -0.8500 -0.0046
vn 0.3132 -0.9496 -0.0128
vn 0.6121 -0.7896 -0.0426
vn 0.6042 -0.7962 -0.0309
vn 0.6314 -0.7734 -0.0567
vn 0.6351 -0.7705 0.0540
vn 0.6737 -0.7387 -0.0220
vn 0.6659 -0.7457 -0.0234
vn 0.6563 -0.7535 -0.0394
vn -0.8334 -0.0363 -0.5515
vn 0.7562 -0.6477 0.0933
vn -0.8315 -0.0371 -0.5544
vn 0.6655 -0.7437 -0.0633
vn -0.5603 -0.0552 -0.8264
vn -0.5555 -0.0543 -0.8297
vn 0.6745 -0.7241 0.1440
vn 0.6612 -0.7472 0.0664
vn 0.6850 -0.7235 -0.0862
vn 0.7885 -0.6002 0.1340
vn 0.2734 -0.2416 0.9311
vn 0.6815 -0.7282 -0.0728
vn 0.6896 -0.7196 -0.0817
vn 0.7199 -0.6861 -0.1047
vn 0.7555 -0.6451 -0.1148
vn 0.9117 0.0826 0.4025
vn 0.9775 -0.0089 -0.2109
vn 0.9754 -0.0764 -0.2069
vn 0.7831 -0.6082 -0.1302
vn 0.7979 -0.5874 -0.1353
vn 0.8423 -0.0226 0.5385
vn 0.1470 0.9844 -0.0962
vn 0.8654 0.0869 -0.4934
vn -0.0009 0.6494 -0.7604
vn 0.1505 -0.0624 -0.9866
vn 0.0001 0.9977 -0.0680
vn -0.0000 0.9977 -0.0681
vn 0.0003 0.9977 -0.0676
vn -0.0004 0.5441 -0.8390
vn 0.7131 -0.1877 -0.6754
vn 0.0039 0.9978 -0.0668
vn 0.2231 0.9683 -0.1122
vn -0.0319 0.5770 -0.8161
vn -0.0481 0.2883 -0.9563
vn -0.0002 -0.0650 -0.9979
vn -0.0414 -0.0658 -0.9970
vn -0.0003 -0.0650 -0.9979
vn -0.0118 -0.0561 -0.9984
vn -0.0005 -0.0654 -0.9979
vn -0.0120 -0.0505 -0.9987
vn -0.4789 -0.0398 -0.8770
vn -0.2834 0.0150 -0.9589
vn -0.1950 -0.0185 -0.9806
vn -0.1732 -0.0246 -0.9846
vn -0.9210 0.2446 0.3031
vn -0.9590 0.1551 0.2370
vn -0.9755 0.2050 -0.0794
vn -0.9212 0.2708 0.2795
vn -0.9213 0.2706 0.2793
vn -0.8156 0.2171 -0.5363
vn -0.8979 0.2760 0.3428
vn -0.8733 0.3650 0.3227
vn -0.8889 0.4032 0.2176
vn -0.8518 0.3955 0.3435
vn -0.8896 0.3928 0.2331
vn -0.9047 0.4161 0.0921
vn -0.9281 0.3388 0.1541
vn -0.8429 0.5168 0.1495
vn -0.8165 0.4858 0.3119
vn -0.7988 0.5075 0.3231
vn -0.7137 0.6356 0.2945
vn -0.8237 0.5580 0.1008
vn -0.7758 0.6215 0.1088
vn -0.7197 0.6582 0.2209
vn -0.6302 0.7706 0.0948
vn -0.5626 0.8109 0.1607
vn -0.7295 0.6287 0.2694
vn -0.5996 0.7689 0.2219
vn -0.6116 0.7522 0.2451
vn -0.5763 0.8165 0.0345
vn -0.6595 0.7449 0.1011
vn -0.4801 0.8424 -0.2445
vn -0.4812 0.8307 -0.2801
vn -0.5140 0.8562 -0.0522
vn -0.6444 0.7452 -0.1716
vn -0.4828 0.6510 -0.5858
vn -0.6471 0.7415 -0.1773
vn -0.4241 0.6625 -0.6175
vn -0.4146 0.7798 -0.4691
vn -0.2704 0.7064 -0.6541
vn -0.4068 0.7812 -0.4735
vn -0.3780 0.5875 -0.7156
vn -0.3327 0.5750 -0.7474
vn -0.2306 0.4413 -0.8672
vn -0.2514 0.4874 -0.8362
vn -0.2926 0.3530 -0.8887
vn -0.3737 0.3565 -0.8563
vn -0.4539 0.4121 -0.7900
vn -0.4636 0.2031 -0.8624
vn -0.5822 0.2527 -0.7727
vn -0.5826 0.2573 -0.7709
vn -0.4729 0.4119 -0.7789
vn -0.7615 0.3248 -0.5609
vn -0.7617 0.3359 -0.5541
vn -0.6388 0.5142 -0.5723
vn -0.6374 0.5103 -0.5773
vn -0.7841 0.5685 -0.2491
vn -0.7796 0.5719 -0.2552
vn -0.8907 0.3928 -0.2286
vn -0.8890 0.4007 -0.2215
vn -0.8848 0.1628 -0.4365
vn -0.9555 0.2167 -0.2002
vn -0.8367 0.1844 -0.5156
vn -0.6835 0.1866 -0.7056
vn -0.7173 0.0364 -0.6958
vn -0.8944 0.1025 -0.4354
vn -0.6462 0.1419 -0.7499
vn -0.8976 0.0513 -0.4378
vn -0.8945 0.1024 -0.4353
vn -0.7331 0.0532 -0.6780
vn -0.7242 -0.0150 -0.6894
vn -0.7214 -0.0127 -0.6924
vn -0.4823 -0.0437 -0.8749
vn -0.4809 -0.0513 -0.8753
vn -0.7133 0.0468 -0.6993
vn -0.4924 -0.0482 -0.8690
vn -0.4288 -0.0941 -0.8985
vn -0.3121 -0.1022 -0.9445
vn -0.2967 -0.2137 -0.9307
vn -0.3229 -0.2380 -0.9160
vn -0.2983 -0.1283 -0.9458
vn -0.4835 -0.2130 -0.8490
vn -0.5042 -0.1942 -0.8415
vn -0.3321 -0.0767 -0.9401
vn -0.3156 -0.0155 -0.9488
vn -0.4950 -0.0094 -0.8688
vn -0.4659 0.0852 -0.8807
vn -0.3976 0.6024 -0.6921
vn -0.3050 0.4210 -0.8543
vn -0.2536 0.5596 -0.7890
vn -0.1282 0.8664 -0.4826
vn -0.2143 0.4674 -0.8577
vn -0.0559 0.9703 -0.2353
vn -0.0362 0.9935 -0.1077
vn 0.0035 0.9897 -0.1434
vn -0.0096 0.9966 -0.0814
vn -0.0515 0.9857 -0.1603
vn -0.1509 0.8479 -0.5082
vn -0.3443 0.4811 -0.8062
vn -0.2702 0.5278 -0.8052
vn -0.0823 0.9769 -0.1972
vn -0.1789 0.9131 -0.3665
vn -0.3169 0.6799 -0.6613
vn -0.4791 0.4241 -0.7685
vn -0.4561 0.3541 -0.8165
vn -0.3505 0.7852 -0.5106
vn -0.3240 0.8410 -0.4333
vn -0.5436 0.5786 -0.6080
vn -0.3500 0.8269 -0.4401
vn -0.6201 0.2260 -0.7512
vn -0.5808 0.2024 -0.7885
vn -0.6601 -0.0313 -0.7505
vn -0.6497 -0.0379 -0.7593
vn -0.6423 0.1831 -0.7443
vn -0.5543 -0.0419 -0.8313
vn -0.6650 0.0176 -0.7466
vn -0.5362 0.0121 -0.8440
vn -0.5697 -0.0309 -0.8213
vn -0.4520 -0.0545 -0.8903
vn -0.4417 0.0633 -0.8949
vn -0.5383 0.1086 -0.8357
vn -0.4950 -0.0250 -0.8685
vn -0.5163 0.0710 -0.8534
vn -0.4161 0.0137 -0.9092
vn -0.4542 0.2433 -0.8570
vn -0.4594 0.1790 -0.8700
vn -0.3711 0.1305 -0.9194
vn -0.3906 0.1154 -0.9133
vn -0.2897 0.1142 -0.9503
vn -0.3389 0.2497 -0.9071
vn -0.3249 0.0946 -0.9410
vn -0.3460 0.0360 -0.9375
vn -0.3256 0.0446 -0.9445
vn -0.2642 -0.0395 -0.9636
vn -0.2962 0.0533 -0.9536
vn -0.2396 0.0746 -0.9680
vn -0.1060 0.1925 -0.9756
vn -0.2242 0.1833 -0.9572
vn -0.1789 0.1266 -0.9757
vn -0.2227 0.1694 -0.9601
vn -0.1794 0.0185 -0.9836
vn -0.1185 0.0153 -0.9928
vn -0.1172 0.0186 -0.9929
vn -0.0538 0.0776 -0.9955
vn 0.0070 0.2379 -0.9713
vn -0.1183 0.2588 -0.9587
vn -0.2017 0.0600 -0.9776
vn -0.2884 -0.0241 -0.9572
vn -0.1257 0.0380 -0.9913
vn -0.1075 0.0205 -0.9940
vn -0.0466 0.2225 -0.9738
vn -0.1092 0.2256 -0.9681
vn -0.1868 0.3379 -0.9225
vn -0.0798 0.2843 -0.9554
vn -0.1686 0.2656 -0.9492
vn -0.1522 -0.0176 -0.9882
vn -0.2084 -0.0595 -0.9762
vn -0.1442 -0.0618 -0.9876
vn -0.2093 -0.0633 -0.9758
vn -0.1582 -0.0807 -0.9841
vn -0.2009 0.0399 -0.9788
vn -0.2396 0.0261 -0.9705
vn -0.2209 0.0007 -0.9753
vn -0.1942 -0.0048 -0.9810
vn -0.2387 -0.1045 -0.9655
vn -0.1796 -0.1284 -0.9753
vn -0.1977 -0.0592 -0.9785
vn -0.1897 -0.0134 -0.9817
vn -0.3826 -0.0597 -0.9220
vn -0.3548 0.0052 -0.9349
vn -0.3403 -0.0165 -0.9402
vn -0.3862 -0.0547 -0.9208
vn -0.2348 -0.1471 -0.9609
vn -0.2929 -0.0610 -0.9542
vn -0.2567 -0.2151 -0.9422
vn -0.3021 -0.0820 -0.9498
vn -0.2606 -0.1968 -0.9452
vn -0.2474 0.0487 -0.9677
vn -0.2936 0.0833 -0.9523
vn -0.2398 -0.2183 -0.9460
vn -0.2178 -0.1518 -0.9641
vn -0.2054 -0.0767 -0.9757
vn -0.2065 -0.0776 -0.9754
vn -0.2410 -0.0017 -0.9705
vn -0.2172 -0.0219 -0.9759
vn -0.3456 0.1718 -0.9225
vn -0.3225 0.0542 -0.9450
vn -0.4607 0.1334 -0.8774
vn -0.2682 0.1020 -0.9579
vn -0.4668 0.2226 -0.8559
vn -0.4922 0.1665 -0.8544
vn -0.2162 -0.0224 -0.9761
vn -0.4762 -0.0150 -0.8792
vn -0.0430 0.2608 -0.9644
vn -0.0393 0.2422 -0.9694
vn -0.0821 0.1667 -0.9826
vn -0.0827 0.2816 -0.9560
vn -0.0067 0.3043 -0.9526
vn 0.0009 0.2384 -0.9712
vn -0.1103 0.2900 -0.9506
vn -0.0826 0.3127 -0.9463
vn -0.0795 0.3133 -0.9463
vn 0.0765 0.2737 -0.9588
vn -0.1224 0.2446 -0.9619
vn 0.0438 0.3393 -0.9397
vn 0.0867 0.4034 -0.9109
vn 0.0110 0.3330 -0.9429
vn 0.0111 0.3320 -0.9432
vn -0.0198 0.0973 -0.9951
vn -0.1505 0.1607 -0.9755
vn -0.0803 0.3161 -0.9453
vn -0.0842 0.4101 -0.9081
vn -0.0185 0.2399 -0.9706
vn 0.0086 0.2355 -0.9718
vn 0.0119 0.2581 -0.9660
vn -0.0465 -0.5215 -0.8520
vn -0.1139 -0.5734 -0.8113
vn -0.0513 -0.3663 -0.9291
vn -0.0464 -0.8940 -0.4456
vn -0.0396 -0.9595 -0.2789
vn -0.0019 -0.1563 -0.9877
vn -0.1053 -0.9493 -0.2963
vn -0.1080 -0.9942 -0.0007
vn -0.1050 -0.9510 -0.2908
vn -0.0726 -0.9931 -0.0925
vn -0.0567 -0.9980 -0.0276
vn -0.0830 -0.9944 0.0647
vn -0.1193 -0.9905 0.0680
vn -0.1169 -0.9923 -0.0400
vn -0.0774 -0.9947 0.0670
vn -0.0793 -0.9654 0.2483
vn -0.0798 -0.9639 0.2539
vn -0.0162 -0.9570 0.2898
vn -0.0161 -0.9977 0.0656
vn -0.0623 -0.7388 0.6710
vn -0.0248 -0.9385 0.3443
vn -0.0542 -0.8417 0.5372
vn -0.0203 -0.7861 0.6178
vn -0.0343 -0.4875 0.8725
vn -0.0336 -0.5489 0.8352
vn -0.0026 -0.3228 0.9465
vn -0.0072 -0.8547 0.5191
vn -0.3002 -0.6667 0.6822
vn -0.0110 -0.1972 0.9803
vn -0.0152 -0.1384 0.9903
vn -0.8121 -0.4234 0.4015
vn -0.5901 -0.6481 0.4814
vn -0.4451 -0.1473 0.8833
vn -0.9959 -0.0904 0.0085
vn -0.9358 -0.3220 0.1435
vn -0.9977 -0.0674 0.0084
vn -0.9745 -0.0609 0.2161
vn -0.4505 -0.1251 0.8840
vn -0.0064 0.0163 0.9998
vn -0.0002 0.0437 0.9990
vn -0.8187 0.0149 0.5740
vn -0.4236 0.0503 0.9044
vn -0.0035 0.0435 0.9990
vn -0.0088 0.0012 1.0000
vn -0.0038 0.0550 0.9985
vn -0.4715 0.0684 0.8792
vn -0.3295 0.0784 0.9409
vn -0.0066 0.0796 0.9968
vn 0.0001 0.0707 0.9975
vn -0.0071 0.1240 0.9923
vn -0.0334 0.0864 0.9957
vn 0.0019 0.0732 0.9973
vn -0.1322 0.0796 0.9880
vn -0.0996 0.0862 0.9913
vn -0.0739 0.1039 0.9918
vn -0.0667 0.1690 0.9834
vn -0.0098 0.0689 0.9976
vn -0.0047 0.0665 0.9978
vn -0.0005 0.6993 0.7148
vn 0.0002 0.1739 0.9848
vn -0.0213 0.9962 -0.0841
vn -0.0004 0.0686 0.9976
vn -0.0403 0.2531 0.9666
vn -0.1593 0.6529 0.7405
vn -0.0607 0.9972 -0.0427
vn -0.0972 0.3114 0.9453
vn -0.0214 0.9985 -0.0509
vn -0.0174 0.9978 -0.0632
vn -0.0801 0.9885 -0.1283
vn -0.1402 0.9805 -0.1374
vn -0.1457 0.9869 -0.0696
vn -0.2789 0.9580 -0.0669
vn -0.2484 0.9668 -0.0599
vn -0.3946 0.9039 -0.1651
vn -0.2969 0.9222 -0.2478
vn -0.3177 0.9137 -0.2534
vn -0.5792 0.7023 -0.4137
vn -0.6127 0.6732 -0.4139
vn -0.6347 0.7418 -0.2166
vn -0.6288 0.5221 -0.5762
vn -0.7313 0.2226 -0.6448
vn -0.7286 0.2271 -0.6462
vn -0.8206 0.2726 -0.5024
vn -0.7561 -0.0218 -0.6541
vn -0.8540 -0.0111 -0.5202
vn -0.8674 -0.0006 -0.4977
vn -0.8313 0.2523 -0.4952
vn -0.8302 0.1309 -0.5419
vn -0.8564 0.0991 -0.5066
vn -0.9646 0.1654 -0.2054
vn -0.9500 0.1187 -0.2888
vn -0.9701 -0.0010 -0.2425
vn -0.9754 0.0072 -0.2204
vn -0.9880 0.1442 -0.0560
vn -0.9868 0.1563 -0.0431
vn -0.9997 0.0231 0.0062
vn -0.9102 0.3368 -0.2412
vn -0.9998 0.0196 -0.0008
vn -0.9344 0.3536 -0.0440
vn -0.8962 0.3629 -0.2553
vn -0.6438 0.7345 -0.2145
vn -0.9232 0.3825 -0.0368
vn -0.6506 0.7563 -0.0689
vn -0.8367 0.3883 0.3862
vn -0.6288 0.6633 0.4056
vn -0.5595 0.8278 -0.0421
vn -0.7360 0.0732 0.6731
vn -0.3519 0.2531 0.9012
vn -0.4504 0.6121 0.6500
vn -0.5307 0.0759 0.8442
vn -0.1254 0.1250 0.9842
vn -0.1079 0.0698 0.9917
vn -0.4421 0.0650 0.8946
vn -0.8319 0.0523 0.5524
vn -0.8447 0.1786 0.5046
vn -0.4325 0.1417 0.8904
vn -0.7540 0.3475 0.5574
vn -0.3730 0.2239 0.9004
vn -0.7697 0.3605 0.5268
vn -0.8239 0.1833 0.5363
vn -0.4186 0.1368 0.8978
vn -0.8348 0.5394 -0.1107
vn -0.8893 0.4502 -0.0802
vn -0.6871 0.5171 0.5104
vn -0.9239 0.3696 -0.0995
vn -0.6882 0.7151 -0.1222
vn -0.6885 0.7149 -0.1221
vn -0.4914 0.6040 0.6275
vn -0.7021 0.5491 0.4534
vn -0.4674 0.7438 0.4778
vn -0.4792 0.8685 -0.1268
vn -0.3908 0.7124 0.5828
vn -0.1619 0.2514 0.9542
vn -0.3334 0.5810 0.7425
vn -0.0534 0.2933 0.9545
vn -0.2206 0.8856 0.4088
vn -0.0243 0.5538 0.8323
vn -0.0393 0.6634 0.7472
vn -0.0215 0.8909 0.4537
vn -0.1819 0.8342 0.5206
vn -0.0266 0.9975 -0.0658
vn -0.3796 0.9225 -0.0695
vn -0.6126 0.7105 0.3463
vn -0.2102 0.5833 0.7846
vn -0.6024 0.7970 -0.0428
vn -0.0415 0.9963 -0.0749
vn -0.9631 0.2689 -0.0089
vn -0.8652 0.3887 0.3166
vn -0.8741 0.4840 -0.0407
vn -0.9343 0.2727 -0.2294
vn -0.9944 0.1048 -0.0099
vn -0.7790 0.5554 -0.2910
vn -0.4570 0.7255 -0.5146
vn -0.1846 0.6293 -0.7549
vn -0.6643 0.4349 -0.6079
vn -0.0136 0.4452 -0.8953
vn -0.4087 0.4337 -0.8030
vn 0.0140 0.5981 -0.8013
vn 0.0215 0.5823 -0.8127
vn 0.0114 0.4661 -0.8847
vn -0.0383 0.5939 -0.8037
vn -0.0272 0.5780 -0.8156
vn -0.0390 0.4630 -0.8855
vn -0.0437 0.4672 -0.8830
vn -0.1074 0.4467 -0.8882
vn -0.1479 0.5871 -0.7959
vn -0.0894 0.5605 -0.8233
vn -0.1921 0.4046 -0.8941
vn -0.1164 0.4524 -0.8842
vn -0.2064 0.5254 -0.8254
vn -0.1769 0.4536 -0.8735
vn -0.2560 0.5152 -0.8179
vn -0.3477 0.2470 -0.9045
vn -0.3894 0.3921 -0.8335
vn -0.3477 0.4096 -0.8434
vn -0.4724 0.2362 -0.8491
vn -0.4692 0.4926 -0.7329
vn -0.5007 0.3781 -0.7787
vn -0.4977 0.3794 -0.7799
vn -0.5017 0.5738 -0.6473
vn -0.6313 0.4964 -0.5958
vn -0.3911 0.7615 -0.5168
vn -0.2740 0.6088 -0.7445
vn -0.3095 0.6145 -0.7257
vn -0.4324 0.7626 -0.4811
vn -0.1349 0.7383 -0.6609
vn -0.1272 0.7341 -0.6670
vn -0.1898 0.9043 -0.3823
vn -0.4697 0.8675 -0.1641
vn -0.4956 0.8584 -0.1324
vn -0.2146 0.9110 -0.3522
vn -0.2599 0.9601 -0.1029
vn -0.0884 0.9251 -0.3692
vn -0.1208 0.9901 -0.0712
vn -0.2332 0.9666 -0.1066
vn -0.0277 0.7595 -0.6499
vn -0.0689 0.9451 -0.3195
vn -0.0313 0.7639 -0.6446
vn 0.0437 0.7561 -0.6530
vn 0.0080 0.8466 -0.5321
vn 0.0310 0.9225 -0.3849
vn -0.5870 0.6594 -0.4696
vn -0.7824 0.5750 -0.2392
vn -0.6005 0.7383 -0.3071
vn -0.9247 0.3582 -0.1293
vn -0.7823 0.5661 -0.2598
vn -0.8101 0.4623 -0.3607
vn -0.7850 0.4225 -0.4530
vn -0.7218 0.3492 -0.5976
vn -0.7496 0.2105 -0.6275
vn -0.8078 0.3023 -0.5061
vn -0.6396 0.4390 -0.6310
vn -0.9023 0.2490 -0.3519
vn -0.6358 0.1702 -0.7529
vn -0.7121 0.2358 -0.6613
vn -0.6131 0.1185 -0.7810
vn -0.5756 0.2992 -0.7610
vn -0.7314 0.0936 -0.6755
vn -0.6244 0.0616 -0.7787
vn -0.7562 0.0714 -0.6505
vn -0.9169 0.3424 -0.2050
vn -0.9434 0.2852 -0.1693
vn -0.5594 0.1959 -0.8054
vn -0.1497 0.3193 -0.9358
vn -0.2004 0.2074 -0.9575
vn -0.1244 0.3301 -0.9357
vn -0.0841 0.3545 -0.9312
vn -0.1385 0.2867 -0.9480
vn -0.0489 0.3672 -0.9289
vn -0.0667 0.3858 -0.9202
vn -0.0603 0.3302 -0.9420
vn -0.0219 0.3720 -0.9280
vn 0.0061 0.3780 -0.9258
vn -0.0131 0.4019 -0.9156
vn -0.0164 0.3981 -0.9172
vn 0.0039 0.3706 -0.9288
vn -0.3431 0.3180 -0.8838
vn -0.7555 0.2211 -0.6167
vn -0.0141 0.4022 -0.9154
vn -0.0672 0.4012 -0.9135
vn -0.7434 0.2489 -0.6208
vn -0.9574 0.1203 -0.2626
vn -0.9334 0.0884 -0.3478
vn -0.9994 -0.0346 0.0017
vn -0.9999 0.0083 -0.0057
vn -0.9999 -0.0108 0.0016
vn -0.8012 0.2525 -0.5425
vn -0.5591 0.0766 -0.8255
vn -0.9612 -0.0242 -0.2749
vn -0.9899 -0.1215 -0.0731
vn -0.9036 -0.4148 -0.1070
vn -0.8887 -0.4360 -0.1415
vn -0.7874 -0.2865 -0.5459
vn -0.5825 0.0941 -0.8074
vn -0.9939 -0.1101 0.0076
vn -0.8907 -0.4538 0.0285
vn -0.8883 -0.4584 0.0286
vn -0.1257 0.1109 -0.9859
vn -0.1290 -0.0600 -0.9898
vn -0.3442 -0.3187 -0.8832
vn -0.4518 -0.8693 -0.2007
vn -0.2623 -0.7879 -0.5571
vn -0.0045 -0.9956 -0.0934
vn -0.0132 -0.9982 -0.0579
vn -0.0183 -0.7887 -0.6145
vn -0.3119 -0.9483 -0.0580
vn -0.0155 -0.9977 0.0658
vn -0.3729 -0.9259 0.0607
vn -0.2933 -0.9542 0.0592
vn -0.7643 -0.6433 0.0449
vn -0.5607 -0.7913 0.2436
vn -0.3139 -0.9244 0.2165
vn -0.2056 0.8563 -0.4738
vn -0.9981 0.0614 0.0019
vn -0.9999 0.0131 -0.0023
vn -0.8915 0.1163 0.4379
vn -0.5478 0.2606 0.7950
vn -0.5471 0.2562 0.7969
vn -0.1710 0.3327 0.9274
vn -0.0172 0.2093 0.9777
vn -0.0036 0.1118 0.9937
vn -0.2661 0.2707 0.9252
vn -0.9558 0.2879 -0.0606
vn -0.4035 0.2521 0.8796
vn -0.7492 -0.0259 -0.6618
vn -0.3276 0.7794 0.5340
vn -0.0075 0.9974 -0.0720
vn 0.0002 0.9985 -0.0554
vn 0.0001 0.9983 -0.0576
vn -0.0006 0.9980 -0.0638
vn -0.0000 0.9983 -0.0582
vn -0.0005 0.9980 -0.0637
vn 1.0000 -0.0000 -0.0000
vn -0.0000 0.0656 0.9978
vn -0.0000 0.9978 -0.0656
vn -0.0000 0.4928 0.8701
vn 0.7845 0.6188 -0.0407
vn -0.0000 0.3776 -0.9260
vn -0.7966 0.6033 -0.0397
vn -1.0000 -0.0000 -0.0000
vn -0.0000 -0.0656 -0.9978
vn -0.0000 0.9977 -0.0672
vn 0.0022 0.9976 -0.0691
vn 0.0007 0.9978 -0.0656
vn -0.0083 0.9961 -0.0878
vn -0.0073 0.9977 -0.0677
vn -0.0222 0.9980 -0.0587
vn -0.0105 0.9972 -0.0739
vn -0.1685 0.9717 -0.1654
vn -0.2074 0.9707 -0.1215
vn -0.9066 0.4076 -0.1094
vn -0.0813 0.9910 -0.1067
vn -0.4350 0.8942 -0.1062
vn -0.2165 0.9330 -0.2874
vn -0.6018 0.3851 -0.6997
vn -0.6941 0.4551 -0.5578
vn -0.7213 0.4109 -0.5575
vn -0.3392 0.8607 -0.3797
vn -0.7986 0.4541 -0.3949
vn -0.9078 -0.0289 -0.4184
vn -0.7793 -0.0526 -0.6245
vn -0.9657 -0.0109 -0.2595
vn -0.9456 0.0247 -0.3243
vn -0.8257 -0.0829 -0.5580
vn -0.8584 -0.0211 -0.5125
vn -0.8543 0.1018 -0.5096
vn -0.9526 0.1177 -0.2806
vn -0.8423 0.0840 -0.5325
vn -0.7013 0.0526 -0.7110
vn -0.7134 -0.1558 -0.6832
vn -0.6307 -0.1214 -0.7664
vn -0.9935 0.1049 0.0445
vn -0.9930 0.1167 0.0159
vn -0.9614 0.1279 -0.2436
vn -0.9934 0.0382 -0.1083
vn -0.9787 0.1204 0.1663
vn -0.9941 0.0811 0.0716
vn -0.9800 0.0653 -0.1880
vn -0.9556 0.0947 0.2789
vn -0.6286 0.7612 -0.1595
vn -0.8837 0.4564 -0.1036
vn -0.6792 0.7292 0.0831
vn -0.9142 0.1508 0.3763
vn -0.9040 0.1323 0.4065
vn -0.9000 0.1065 0.4227
vn -0.8914 0.1295 0.4344
vn -0.9426 0.1455 0.3006
vn -0.9347 0.1179 0.3352
vn -0.8941 0.1901 0.4055
vn -0.9607 0.2685 0.0703
vn -0.9853 0.1704 0.0071
vn -0.9852 0.1560 0.0709
vn -0.8883 0.2900 0.3562
vn -0.9602 0.2142 -0.1792
vn -0.9607 0.2661 0.0796
vn -0.9675 0.1526 -0.2015
vn -0.9461 0.1429 0.2908
vn -0.9434 0.0686 0.3244
vn -0.3300 0.9320 0.1497
vn -0.2496 0.9670 0.0505
vn -0.1367 0.9900 0.0344
vn -0.8310 0.0671 0.5522
vn -0.8189 0.2415 0.5207
vn -0.7331 0.6452 -0.2150
vn -0.4816 0.2866 -0.8282
vn -0.5020 -0.0379 -0.8640
vn -0.8871 0.0436 0.4594
vn -0.9219 0.1897 0.3377
vn -0.3118 0.9486 -0.0538
vn -0.9620 0.1400 -0.2345
vn -0.8123 0.4327 -0.3911
vn -0.6857 0.1577 -0.7106
vn -0.3109 0.7509 -0.5826
vn -0.0626 0.9908 -0.1198
vn -0.0132 0.9973 -0.0720
vn 0.0009 0.0547 0.9985
vn 0.0007 0.0651 0.9979
vn 0.0148 0.0052 0.9999
vn 0.0036 0.0607 0.9982
vn 0.0196 -0.0064 0.9998
vn 0.0265 0.0105 0.9996
vn 0.0334 -0.0315 0.9989
vn 0.0368 -0.0246 0.9990
vn 0.1741 -0.3481 0.9212
vn 0.2079 -0.5778 0.7892
vn 0.2814 -0.7201 0.6342
vn 0.2821 -0.6705 0.6862
vn 0.3825 -0.8985 0.2156
vn 0.4183 -0.8866 0.1974
vn 0.3515 -0.6852 0.6379
vn 0.4330 -0.9014 -0.0033
vn 0.4951 -0.8688 -0.0093
vn 0.4598 -0.8879 -0.0151
vn 0.3538 -0.6170 0.7030
vn 0.4455 -0.7472 0.4932
vn 0.5619 -0.8268 -0.0244
vn 0.5583 -0.8292 -0.0270
vn 0.5104 -0.8597 -0.0219
vn 0.4174 -0.6334 0.6516
vn 0.5220 -0.7498 0.4066
vn 0.4855 -0.6316 0.6045
vn 0.1851 -0.1979 0.9626
vn 0.1435 -0.1601 0.9766
vn 0.1022 -0.0575 0.9931
vn 0.1217 -0.0794 0.9894
vn 0.6044 -0.7633 0.2282
vn 0.5834 -0.6686 0.4612
vn 0.5684 -0.8213 -0.0489
vn 0.5651 -0.8235 -0.0499
vn 0.5466 -0.8358 -0.0519
vn 0.5074 -0.8607 -0.0432
vn 0.5226 -0.8512 -0.0489
vn 0.4416 -0.7854 -0.4337
vn 0.4608 -0.8346 -0.3019
vn 0.4806 -0.7607 -0.4363
vn 0.4870 -0.8662 -0.1118
vn 0.3868 -0.7972 -0.4635
vn 0.3964 -0.8622 -0.3153
vn 0.4627 -0.8855 -0.0430
vn 0.4250 -0.9041 -0.0449
vn 0.3249 -0.7835 -0.5296
vn 0.3246 -0.8618 -0.3898
vn 0.3582 -0.9331 -0.0336
vn 0.3714 -0.9279 -0.0321
vn 0.4147 -0.9091 -0.0402
vn 0.4204 -0.9073 -0.0084
vn 0.3768 -0.9263 -0.0019
vn 0.3245 -0.9455 -0.0274
vn 0.3710 -0.9286 0.0042
vn 0.3497 -0.9368 0.0089
vn 0.3244 -0.9459 -0.0089
vn 0.3229 -0.9461 -0.0267
vn 0.2907 -0.9175 -0.2715
vn 0.2766 -0.9339 -0.2266
vn 0.2765 -0.9609 -0.0176
vn 0.2542 -0.9667 -0.0284
vn 0.2744 -0.9613 -0.0231
vn 0.2160 -0.8633 -0.4562
vn 0.2222 -0.9749 -0.0137
vn 0.2233 -0.9747 -0.0132
vn 0.1656 -0.7260 -0.6674
vn 0.1528 -0.8154 -0.5584
vn 0.1931 -0.9810 -0.0163
vn 0.1606 -0.9870 -0.0054
vn 0.1214 -0.7628 -0.6351
vn 0.1217 -0.8024 -0.5843
vn 0.1543 -0.9880 -0.0080
vn 0.0126 -0.1505 -0.9885
vn 0.0916 -0.8039 -0.5877
vn 0.0114 -0.1326 -0.9911
vn 0.0082 -0.1181 -0.9930
vn 0.0093 -0.2651 -0.9642
vn 0.0982 -0.9278 -0.3599
vn 0.0745 -0.9473 -0.3117
vn 0.0374 -0.7592 -0.6497
vn -0.0203 -0.9447 -0.3274
vn -0.0533 -0.2745 -0.9601
vn -0.1143 -0.8186 -0.5628
vn -0.0371 -0.2279 -0.9730
vn -0.3296 -0.3973 -0.8564
vn -0.0199 -0.0504 -0.9985
vn -0.1018 0.0228 -0.9945
vn -0.4171 -0.2564 -0.8720
vn -0.3292 -0.0425 -0.9433
vn -0.1822 0.0333 -0.9827
vn -0.3343 0.2937 -0.8956
vn -0.6367 0.6542 -0.4082
vn -0.4514 0.4650 -0.7616
vn -0.7227 0.6178 -0.3098
vn -0.7516 0.4976 -0.4330
vn -0.7425 0.6429 0.1879
vn -0.8355 0.4962 0.2361
vn -0.7195 0.6939 -0.0304
vn -0.9007 0.3853 -0.2008
vn -0.8899 0.3978 0.2232
vn -0.9785 0.1033 0.1783
vn -0.9845 0.0534 0.1669
vn -0.8528 0.5153 0.0850
vn -0.9574 0.0662 0.2812
vn -0.9067 -0.3710 0.2007
vn -0.8517 -0.4987 0.1609
vn -0.8390 -0.4787 0.2588
vn -0.9449 -0.2077 0.2529
vn -0.7529 -0.6355 0.1710
vn -0.6937 -0.6935 0.1944
vn -0.5852 -0.7904 0.1810
vn -0.4828 -0.8711 0.0899
vn -0.4883 -0.8433 -0.2246
vn -0.4012 -0.9060 -0.1347
vn -0.6938 -0.7199 0.0218
vn -0.3898 -0.9151 0.1029
vn -0.2084 -0.9343 -0.2894
vn -0.1716 -0.9833 0.0604
vn -0.6574 -0.7503 0.0704
vn -0.5303 -0.8465 0.0477
vn -0.4884 -0.8718 0.0374
vn -0.7391 -0.6720 -0.0476
vn -0.7934 -0.6070 -0.0449
vn -0.8990 -0.4033 -0.1707
vn -0.9002 -0.4335 0.0426
vn -0.9203 -0.3868 0.0593
vn -0.9459 0.0785 -0.3148
vn -0.9956 0.0798 -0.0489
vn -0.9920 0.1217 -0.0344
vn -0.9641 -0.2202 -0.1485
vn -0.7638 0.3310 -0.5541
vn -0.8939 0.3594 -0.2679
vn -0.8728 -0.2032 -0.4437
vn -0.8800 -0.1860 -0.4369
vn -0.7114 -0.5636 -0.4198
vn -0.6435 -0.6196 -0.4494
vn -0.7026 -0.6815 -0.2049
vn -0.7199 -0.1411 -0.6796
vn -0.4903 -0.3338 -0.8051
vn -0.4264 -0.4382 -0.7913
vn -0.7192 -0.1425 -0.6800
vn -0.4732 -0.0351 -0.8803
vn -0.2875 -0.2289 -0.9300
vn -0.2883 0.1501 -0.9457
vn -0.5142 0.0527 -0.8561
vn -0.2908 0.4120 -0.8635
vn -0.3355 0.2351 -0.9122
vn -0.4756 0.3959 -0.7855
vn -0.4629 0.3009 -0.8338
vn -0.4792 0.5326 -0.6976
vn -0.3256 0.5265 -0.7854
vn -0.5912 0.2980 -0.7495
vn -0.5928 0.3266 -0.7361
vn -0.3685 0.6116 -0.7001
vn -0.5156 0.6811 -0.5198
vn -0.5169 0.6772 -0.5236
vn -0.7638 0.3304 -0.5545
vn -0.1336 0.5927 -0.7943
vn -0.2923 0.5746 -0.7645
vn -0.2986 0.7024 -0.6462
vn -0.1191 0.4910 -0.8630
vn -0.2855 0.4070 -0.8677
vn -0.2721 -0.7344 -0.6218
vn -0.3335 -0.8871 -0.3191
vn -0.2166 -0.7360 -0.6414
vn -0.2916 -0.2427 -0.9253
vn -0.1310 -0.2029 -0.9704
vn -0.2109 -0.7124 -0.6693
vn -0.1970 -0.7318 -0.6524
vn -0.1142 -0.5206 -0.8461
vn -0.1554 -0.9486 -0.2757
vn -0.1707 -0.9452 -0.2783
vn -0.1636 -0.9209 -0.3537
vn -0.2338 -0.9470 -0.2204
vn -0.1476 -0.9883 -0.0372
vn -0.1425 -0.9880 -0.0605
vn -0.1454 -0.9890 -0.0276
vn -0.0500 -0.9963 0.0694
vn -0.0586 -0.9952 0.0784
vn -0.1003 -0.9905 0.0946
vn -0.1318 -0.9874 0.0880
vn -0.1991 -0.9798 -0.0186
vn -0.1182 -0.9927 0.0243
vn -0.0185 -0.9998 -0.0019
vn -0.0431 -0.9991 -0.0041
vn 0.0086 -0.9993 0.0351
vn -0.1093 -0.9935 0.0326
vn 0.0393 -0.9990 0.0219
vn 0.0772 -0.9970 -0.0071
vn 0.0680 -0.9974 -0.0245
vn 0.0782 -0.9969 -0.0094
vn 0.0825 -0.9966 -0.0091
vn 0.1218 -0.9920 -0.0343
vn 0.1191 -0.9929 -0.0078
vn 0.1358 -0.9907 0.0003
vn 0.1537 -0.9876 -0.0307
vn 0.0961 -0.9951 -0.0250
vn 0.1428 -0.9781 0.1518
vn 0.1205 -0.9240 0.3630
vn 0.0388 -0.9030 0.4280
vn 0.0106 -0.9998 0.0163
vn 0.0076 -0.9979 0.0645
vn 0.0209 -0.9998 0.0050
vn -0.0309 -0.6695 0.7421
vn -0.0479 -0.9625 0.2671
vn 0.0102 -0.6615 0.7499
vn -0.0071 -0.0756 0.9971
vn 0.0220 -0.3207 0.9469
vn -0.0355 -0.5824 0.8121
vn -0.0798 -0.9853 0.1513
vn -0.0644 -0.4574 0.8869
vn -0.1085 -0.8684 0.4838
vn -0.0783 -0.5646 0.8216
vn -0.1255 -0.9888 0.0805
vn -0.0962 -0.9936 0.0587
vn -0.1142 -0.9910 0.0694
vn -0.0817 -0.9949 0.0592
vn -0.1028 -0.8319 0.5454
vn -0.1180 -0.9654 0.2325
vn -0.0530 -0.9983 0.0246
vn 0.0518 -0.3247 0.9444
vn 0.0510 -0.2748 0.9602
vn 0.1388 -0.6463 0.7504
vn 0.1710 -0.9579 0.2305
vn 0.2238 -0.9745 -0.0147
vn 0.2451 -0.9695 -0.0018
vn 0.1798 -0.6546 0.7343
vn 0.2750 -0.9614 -0.0098
vn 0.2886 -0.9574 0.0004
vn 0.3026 -0.9289 0.2133
vn 0.2326 -0.6933 0.6821
vn 0.1753 -0.6176 0.7667
vn 0.1630 -0.9861 -0.0330
vn 0.2152 -0.9762 -0.0254
vn -0.2126 -0.9756 -0.0548
vn -0.2344 -0.9710 0.0463
vn -0.2598 -0.9640 0.0567
vn -0.4073 -0.8822 -0.2361
vn -0.3859 -0.9124 -0.1363
vn -0.7300 0.5672 -0.3813
vn -0.6262 0.7389 -0.2489
vn -0.7901 0.6066 -0.0889
vn -0.8049 0.5837 -0.1066
vn -0.9610 -0.2429 -0.1320
vn -0.9040 -0.3530 -0.2412
vn -0.7975 0.5907 0.1230
vn -0.9045 0.1713 -0.3905
vn -0.6702 0.7422 -0.0013
vn -0.5750 0.4945 -0.6518
vn -0.7471 0.6041 -0.2773
vn -0.1815 0.0885 -0.9794
vn -0.7010 0.3915 -0.5960
vn -0.2480 0.0706 -0.9662
vn -0.6050 0.3389 -0.7205
vn -0.1111 -0.0189 -0.9936
vn -0.1650 0.0321 -0.9858
vn -0.9274 0.3042 -0.2177
vn -0.6324 0.2129 -0.7448
vn -0.7121 0.6851 0.1535
vn -0.8056 0.5432 0.2365
vn -0.0827 -0.0216 -0.9963
vn 0.1168 -0.9931 -0.0048
vn -0.0004 -0.0647 -0.9979
vn 0.0435 -0.2116 -0.9764
vn 0.2248 -0.9740 -0.0297
vn 0.0507 -0.2181 -0.9746
vn 0.2773 -0.8216 -0.4981
vn 0.3370 -0.9296 0.1492
vn 0.1498 -0.3882 -0.9093
vn 0.0450 -0.1781 -0.9830
vn 0.0132 -0.0892 -0.9959
vn 0.0535 -0.1449 -0.9880
vn 0.1561 -0.3221 -0.9338
vn 0.2004 -0.4098 -0.8899
vn 0.2248 -0.4938 -0.8400
vn 0.4213 -0.5879 -0.6906
vn 0.0657 -0.1583 -0.9852
vn 0.5178 -0.7271 -0.4508
vn 0.4700 -0.7352 -0.4885
vn 0.6267 -0.7723 -0.1040
vn 0.6379 -0.7246 -0.2607
vn 0.5947 -0.7835 -0.1804
vn 0.4871 -0.5987 -0.6359
vn 0.2247 -0.3061 -0.9251
vn 0.2204 -0.2771 -0.9352
vn 0.3247 -0.3693 -0.8708
vn 0.6860 -0.6785 -0.2626
vn 0.6770 -0.7180 -0.1616
vn 0.7565 -0.6416 -0.1265
vn 0.7242 -0.6807 -0.1105
vn 0.0771 -0.1323 -0.9882
vn 0.0001 -0.0655 -0.9979
vn 0.4605 -0.8866 -0.0436
vn 0.6319 -0.7727 -0.0610
vn 0.6127 -0.7886 -0.0522
vn 0.6131 -0.7884 -0.0508
vn 0.5639 -0.8228 -0.0707
vn 0.6217 -0.7775 -0.0948
vn 0.6533 -0.7547 -0.0605
vn 0.6411 -0.7498 -0.1637
vn 0.6371 -0.7597 -0.1304
vn 0.5555 0.0546 0.8297
vn 0.1953 0.0643 0.9786
vn 0.1557 -0.5502 0.8204
vn 0.1558 -0.5503 0.8203
vn 0.4432 -0.5580 0.7015
vn -0.1557 -0.5503 0.8204
vn -0.1953 0.0643 0.9786
vn -0.1558 -0.5502 0.8204
vn -0.1951 0.0644 0.9787
vn -0.6040 0.0523 0.7952
vn -0.5556 0.0440 0.8303
vn -0.4433 -0.5581 0.7015
vn -0.4432 -0.5580 0.7016
vn -0.6633 -0.5725 0.4819
vn -0.6634 -0.5725 0.4819
vn -0.5555 0.0546 0.8297
vn -0.8314 0.0365 0.5544
vn -0.8315 0.0364 0.5544
vn 0.6916 -0.7170 -0.0872
vn 0.7127 -0.6961 -0.0871
vn -0.9808 0.0128 0.1946
vn 0.7100 -0.6995 -0.0819
vn -0.9808 -0.0128 -0.1947
vn 0.7093 -0.7048 -0.0155
vn -0.9808 0.0128 0.1947
vn -0.9808 -0.0128 -0.1946
vn -0.7825 -0.6118 -0.1157
vn -0.7825 -0.5914 0.1948
vn -0.7825 -0.5914 0.1949
vn -0.6633 -0.6307 -0.4027
vn -0.8314 -0.0365 -0.5544
vn -0.6633 -0.6307 -0.4028
vn -0.5557 -0.0457 -0.8301
vn -0.4434 -0.6452 -0.6222
vn -0.7832 -0.0504 -0.6197
vn -0.2742 -0.0726 -0.9589
vn -0.0239 0.9875 -0.1560
vn -0.0574 0.9924 -0.1084
vn -0.1558 -0.6530 -0.7412
vn -0.1556 -0.6530 -0.7412
vn -0.4432 -0.6451 -0.6224
vn -0.1951 -0.0643 -0.9787
vn -0.1783 0.9806 -0.0814
vn -0.9802 -0.0126 -0.1975
vn -0.0180 0.9993 -0.0318
vn 0.0158 0.9950 -0.0985
vn -0.1752 0.9842 -0.0276
vn -0.9666 0.0174 0.2558
vn -0.9807 0.0023 0.1953
vn 0.6734 -0.7330 -0.0965
vn -0.8314 0.0494 0.5535
vn -0.0526 0.9986 -0.0018
vn -0.0186 0.9963 0.0841
vn -0.1147 0.0556 0.9918
vn 0.0062 0.9679 0.2514
vn 0.0419 0.9991 0.0072
vn 0.4854 0.0477 0.8730
vn 0.1951 0.0732 0.9781
vn 0.0736 0.9970 -0.0230
vn 0.8314 0.0365 0.5545
vn 0.5556 0.0546 0.8296
vn 0.8738 0.0223 0.4857
vn 0.7825 -0.5914 0.1948
vn 0.6633 -0.5725 0.4819
vn 0.9808 0.0216 0.1940
vn 0.7825 -0.6118 -0.1157
vn 0.9808 -0.0128 -0.1946
vn 0.9808 0.0128 0.1946
vn 0.9808 0.0128 0.1947
vn 0.8314 0.0365 0.5544
vn 0.5012 -0.8481 -0.1720
vn 0.5101 -0.8541 -0.1017
vn 0.4433 -0.5581 0.7014
vn 0.6567 -0.7440 -0.1232
vn 0.7224 -0.6853 -0.0920
vn 0.0652 -0.0506 0.9966
vn -0.0369 -0.1996 0.9792
vn -0.1138 0.3920 -0.9129
vn -0.2773 0.1535 -0.9484
vn -0.4079 -0.0421 -0.9120
vn -0.4199 0.0749 -0.9045
vn -0.4704 0.1250 -0.8736
vn -0.0920 0.9823 -0.1630
vn -0.2878 -0.0555 -0.9561
vn -0.4449 0.0027 -0.8956
vn -0.7589 0.6322 -0.1564
vn -0.5247 0.8416 -0.1281
vn -0.8175 0.5300 0.2253
vn 0.0898 0.9957 -0.0248
vn -0.1971 -0.0641 -0.9783
vn -0.1953 -0.0643 -0.9786
vn 0.1952 -0.0643 -0.9787
vn 0.1953 -0.0643 -0.9786
s 0
usemtl Material.030
f 1//1 3//1 2//1
f 2//2 7//2 1//2
f 3//3 1//3 5//3
f 4//4 6//4 1//4
f 7//5 4//5 1//5
f 5//6 1//6 6//6
f 8//7 7//7 2//7
f 8//8 11//8 7//8
f 7//9 9//9 10//9
f 9//10 7//10 11//10
f 10//11 12//11 7//11
f 7//12 12//12 4//12
f 12//13 10//13 14//13
f 15//14 4//14 12//14
f 14//15 13//15 12//15
f 12//16 13//16 15//16
f 16//17 15//17 18//17
f 15//18 16//18 6//18
f 17//19 18//19 15//19
f 13//19 17//19 15//19
f 6//20 4//20 15//20
f 18//21 19//21 16//21
f 19//22 18//22 20//22
f 17//23 20//23 18//23
f 21//24 25//24 20//24
f 26//25 21//25 20//25
f 17//26 26//26 20//26
f 22//27 19//27 20//27
f 22//28 20//28 24//28
f 20//29 23//29 24//29
f 20//30 25//30 23//30
f 21//31 26//31 29//31
f 27//32 26//32 17//32
f 26//33 27//33 28//33
f 26//34 28//34 29//34
f 29//35 35//35 21//35
f 30//36 29//36 31//36
f 32//37 29//37 30//37
f 31//38 29//38 34//38
f 29//39 32//39 35//39
f 29//40 28//40 33//40
f 34//41 29//41 33//41
f 36//42 35//42 37//42
f 21//43 35//43 36//43
f 32//44 37//44 35//44
f 42//45 38//45 37//45
f 37//46 38//46 36//46
f 32//47 39//47 37//47
f 39//48 40//48 37//48
f 41//49 37//49 40//49
f 42//50 37//50 41//50
f 42//51 43//51 8//51
f 42//52 46//52 43//52
f 44//53 46//53 42//53
f 44//54 42//54 45//54
f 45//55 42//55 41//55
f 8//56 38//56 42//56
f 46//57 47//57 43//57
f 47//58 46//58 44//58
f 48//59 53//59 47//59
f 48//60 47//60 45//60
f 47//61 50//61 49//61
f 49//62 52//62 47//62
f 47//63 51//63 50//63
f 47//64 53//64 51//64
f 44//65 45//65 47//65
f 8//66 47//66 52//66
f 43//67 47//67 8//67
f 53//68 54//68 51//68
f 53//69 55//69 54//69
f 53//70 48//70 56//70
f 53//71 57//71 55//71
f 57//72 53//72 56//72
f 57//73 58//73 59//73
f 58//74 57//74 56//74
f 59//75 55//75 57//75
f 59//76 60//76 55//76
f 60//77 59//77 62//77
f 62//78 59//78 61//78
f 58//79 61//79 59//79
f 62//80 64//80 63//80
f 60//81 62//81 63//81
f 62//82 61//82 64//82
f 64//83 66//83 63//83
f 64//84 65//84 66//84
f 64//85 61//85 65//85
f 63//86 66//86 67//86
f 70//87 67//87 66//87
f 65//88 69//88 66//88
f 66//89 68//89 70//89
f 66//90 69//90 68//90
f 70//91 72//91 71//91
f 71//92 67//92 70//92
f 70//93 73//93 72//93
f 73//94 70//94 68//94
f 68//95 74//95 73//95
f 73//96 74//96 77//96
f 73//97 75//97 72//97
f 73//98 76//98 75//98
f 73//99 77//99 76//99
f 77//100 78//100 83//100
f 80//101 78//101 77//101
f 74//102 81//102 77//102
f 82//103 77//103 79//103
f 81//104 79//104 77//104
f 77//105 82//105 80//105
f 83//106 76//106 77//106
f 83//107 84//107 86//107
f 83//108 85//108 84//108
f 85//109 83//109 78//109
f 76//110 83//110 86//110
f 86//111 88//111 87//111
f 86//112 87//112 76//112
f 86//113 89//113 88//113
f 89//114 86//114 84//114
f 91//115 89//115 90//115
f 84//116 90//116 89//116
f 92//117 89//117 91//117
f 89//118 92//118 88//118
f 92//119 93//119 94//119
f 93//120 92//120 91//120
f 92//121 94//121 95//121
f 95//122 96//122 92//122
f 88//123 92//123 96//123
f 97//124 96//124 95//124
f 96//125 97//125 98//125
f 96//126 98//126 99//126
f 96//127 99//127 88//127
f 100//128 101//128 99//128
f 99//129 98//129 100//129
f 88//130 99//130 101//130
f 101//131 87//131 88//131
f 75//132 87//132 101//132
f 72//133 75//133 101//133
f 71//134 72//134 101//134
f 101//135 100//135 71//135
f 103//136 102//136 100//136
f 71//137 100//137 102//137
f 100//138 98//138 103//138
f 97//139 104//139 103//139
f 105//140 103//140 104//140
f 105//141 102//141 103//141
f 103//142 98//142 97//142
f 108//143 106//143 105//143
f 105//144 106//144 102//144
f 105//145 104//145 107//145
f 105//146 107//146 109//146
f 109//147 108//147 105//147
f 109//148 110//148 113//148
f 112//149 110//149 109//149
f 108//150 109//150 111//150
f 113//151 111//151 109//151
f 109//152 107//152 112//152
f 110//153 116//153 113//153
f 113//154 115//154 114//154
f 114//155 118//155 113//155
f 113//156 116//156 115//156
f 118//157 117//157 113//157
f 113//158 117//158 111//158
f 119//159 120//159 118//159
f 118//160 114//160 119//160
f 120//161 117//161 118//161
f 117//162 120//162 121//162
f 121//163 120//163 122//163
f 123//164 122//164 120//164
f 120//165 119//165 123//165
f 123//166 124//166 127//166
f 124//167 123//167 119//167
f 123//168 125//168 122//168
f 126//169 125//169 123//169
f 126//170 123//170 127//170
f 126//171 127//171 128//171
f 128//172 127//172 129//172
f 124//173 129//173 127//173
f 130//174 132//174 129//174
f 124//175 130//175 129//175
f 129//176 131//176 128//176
f 133//177 131//177 129//177
f 133//178 129//178 132//178
f 135//179 133//179 134//179
f 132//180 134//180 133//180
f 133//181 135//181 131//181
f 135//182 136//182 137//182
f 135//183 138//183 136//183
f 137//184 131//184 135//184
f 138//185 135//185 139//185
f 134//186 139//186 135//186
f 140//187 141//187 139//187
f 139//188 142//188 140//188
f 139//189 141//189 138//189
f 142//190 139//190 134//190
f 140//191 142//191 143//191
f 143//192 142//192 144//192
f 134//193 144//193 142//193
f 146//194 145//194 144//194
f 148//195 144//195 145//195
f 147//196 143//196 144//196
f 144//197 134//197 146//197
f 144//198 148//198 147//198
f 145//199 151//199 148//199
f 150//200 149//200 148//200
f 149//201 147//201 148//201
f 148//202 152//202 150//202
f 152//203 148//203 151//203
f 152//204 154//204 153//204
f 153//205 150//205 152//205
f 154//206 152//206 155//206
f 151//207 155//207 152//207
f 155//208 151//208 156//208
f 156//209 157//209 155//209
f 155//210 158//210 154//210
f 158//211 155//211 157//211
f 158//212 160//212 159//212
f 159//213 161//213 158//213
f 162//214 160//214 158//214
f 154//215 158//215 161//215
f 157//216 162//216 158//216
f 157//217 163//217 162//217
f 164//218 162//218 163//218
f 162//219 164//219 160//219
f 165//220 160//220 164//220
f 164//221 166//221 165//221
f 164//222 163//222 166//222
f 163//223 169//223 166//223
f 166//224 167//224 168//224
f 166//225 169//225 167//225
f 166//226 168//226 170//226
f 166//227 170//227 165//227
f 95//228 170//228 168//228
f 165//229 170//229 94//229
f 170//230 95//230 94//230
f 171//231 167//231 169//231
f 163//232 157//232 169//232
f 169//233 172//233 171//233
f 157//234 172//234 169//234
f 172//235 173//235 171//235
f 172//236 174//236 173//236
f 157//237 174//237 172//237
f 174//238 116//238 173//238
f 174//239 157//239 156//239
f 174//240 176//240 175//240
f 116//241 174//241 175//241
f 174//242 177//242 176//242
f 156//243 177//243 174//243
f 176//244 177//244 145//244
f 177//245 151//245 145//245
f 177//246 156//246 151//246
f 130//247 176//247 145//247
f 176//248 178//248 175//248
f 178//249 176//249 130//249
f 114//250 178//250 179//250
f 130//251 179//251 178//251
f 178//252 114//252 175//252
f 114//253 179//253 124//253
f 130//254 124//254 179//254
f 115//255 175//255 114//255
f 175//256 115//256 116//256
f 171//257 173//257 112//257
f 110//258 112//258 173//258
f 110//259 173//259 116//259
f 167//260 171//260 112//260
f 180//261 95//261 168//261
f 168//262 167//262 180//262
f 180//263 181//263 104//263
f 181//264 180//264 167//264
f 95//265 180//265 97//265
f 104//266 97//266 180//266
f 112//267 181//267 167//267
f 181//268 112//268 104//268
f 183//269 182//269 165//269
f 159//270 165//270 182//270
f 160//271 165//271 159//271
f 94//272 183//272 165//272
f 184//273 182//273 183//273
f 183//274 185//274 184//274
f 185//275 183//275 93//275
f 93//276 183//276 94//276
f 186//277 185//277 187//277
f 188//278 185//278 186//278
f 93//279 187//279 185//279
f 185//280 188//280 184//280
f 190//281 188//281 186//281
f 188//282 189//282 184//282
f 189//283 188//283 190//283
f 194//284 190//284 191//284
f 191//285 190//285 192//285
f 190//286 193//286 192//286
f 190//287 186//287 193//287
f 190//288 194//288 189//288
f 196//289 195//289 194//289
f 189//290 194//290 195//290
f 198//291 196//291 194//291
f 197//292 194//292 191//292
f 194//293 197//293 198//293
f 199//294 200//294 198//294
f 198//295 201//295 199//295
f 200//296 196//296 198//296
f 201//297 198//297 197//297
f 204//298 201//298 202//298
f 197//299 202//299 201//299
f 201//300 204//300 203//300
f 203//301 199//301 201//301
f 207//302 204//302 205//302
f 206//303 205//303 204//303
f 202//304 206//304 204//304
f 207//305 203//305 204//305
f 208//306 210//306 207//306
f 207//307 205//307 208//307
f 209//308 207//308 210//308
f 209//309 203//309 207//309
f 211//310 210//310 208//310
f 210//311 212//311 209//311
f 211//312 213//312 210//312
f 212//313 210//313 213//313
f 213//314 211//314 214//314
f 214//315 215//315 213//315
f 216//316 213//316 215//316
f 213//317 216//317 212//317
f 216//318 215//318 212//318
f 217//319 219//319 215//319
f 215//320 214//320 217//320
f 215//321 220//321 218//321
f 218//322 212//322 215//322
f 220//323 215//323 219//323
f 221//324 220//324 222//324
f 218//325 220//325 221//325
f 222//326 220//326 223//326
f 223//327 220//327 224//327
f 219//328 224//328 220//328
f 217//329 227//329 224//329
f 219//330 217//330 224//330
f 223//331 224//331 225//331
f 229//332 225//332 224//332
f 228//333 224//333 226//333
f 226//334 224//334 227//334
f 228//335 229//335 224//335
f 225//336 229//336 230//336
f 229//337 231//337 230//337
f 229//338 232//338 231//338
f 229//339 228//339 232//339
f 231//340 232//340 233//340
f 234//341 233//341 232//341
f 228//342 234//342 232//342
f 235//343 234//343 238//343
f 236//344 234//344 235//344
f 234//345 236//345 237//345
f 233//346 234//346 237//346
f 239//347 238//347 234//347
f 234//348 228//348 239//348
f 239//349 8//349 240//349
f 8//350 239//350 38//350
f 240//351 241//351 239//351
f 38//352 239//352 228//352
f 238//353 239//353 241//353
f 243//354 241//354 242//354
f 244//355 242//355 241//355
f 241//356 243//356 238//356
f 244//357 241//357 240//357
f 240//358 128//358 244//358
f 244//359 128//359 137//359
f 137//360 245//360 244//360
f 245//361 242//361 244//361
f 245//362 247//362 246//362
f 246//363 242//363 245//363
f 248//364 247//364 245//364
f 136//365 248//365 245//365
f 245//366 137//366 136//366
f 248//367 136//367 250//367
f 250//368 249//368 248//368
f 247//369 248//369 249//369
f 138//370 250//370 136//370
f 250//371 138//371 141//371
f 141//372 251//372 250//372
f 249//373 250//373 251//373
f 252//374 251//374 141//374
f 251//375 252//375 254//375
f 254//376 253//376 251//376
f 251//377 253//377 249//377
f 255//378 257//378 254//378
f 254//379 252//379 255//379
f 256//380 258//380 254//380
f 256//381 254//381 257//381
f 253//382 254//382 258//382
f 258//383 261//383 253//383
f 258//384 256//384 259//384
f 259//385 260//385 258//385
f 261//386 258//386 260//386
f 253//387 261//387 263//387
f 260//388 262//388 261//388
f 263//389 261//389 262//389
f 263//390 249//390 253//390
f 249//391 263//391 247//391
f 262//392 264//392 263//392
f 247//393 263//393 264//393
f 264//394 262//394 265//394
f 246//395 264//395 265//395
f 264//396 246//396 247//396
f 266//397 265//397 262//397
f 267//398 243//398 265//398
f 243//399 246//399 265//399
f 267//400 265//400 266//400
f 243//401 267//401 238//401
f 238//402 267//402 235//402
f 266//403 235//403 267//403
f 262//404 260//404 266//404
f 268//405 266//405 260//405
f 235//406 266//406 268//406
f 270//407 269//407 268//407
f 236//408 268//408 269//408
f 268//409 259//409 270//409
f 260//410 259//410 268//410
f 268//411 236//411 235//411
f 273//412 270//412 271//412
f 272//413 271//413 270//413
f 269//414 270//414 273//414
f 272//415 270//415 259//415
f 271//416 274//416 273//416
f 273//417 274//417 276//417
f 275//418 273//418 276//418
f 273//419 275//419 269//419
f 278//420 275//420 276//420
f 277//421 276//421 274//421
f 276//422 277//422 278//422
f 278//423 233//423 237//423
f 275//424 278//424 237//424
f 278//425 279//425 233//425
f 279//426 278//426 277//426
f 279//427 280//427 233//427
f 279//428 282//428 280//428
f 282//429 279//429 281//429
f 277//430 281//430 279//430
f 282//431 286//431 283//431
f 285//432 282//432 283//432
f 287//433 284//433 282//433
f 282//434 284//434 280//434
f 287//435 282//435 285//435
f 282//436 281//436 286//436
f 288//437 287//437 289//437
f 287//438 288//438 284//438
f 285//439 289//439 287//439
f 290//440 289//440 291//440
f 289//441 290//441 288//441
f 289//442 285//442 291//442
f 292//443 291//443 285//443
f 291//444 292//444 293//444
f 293//445 290//445 291//445
f 294//446 293//446 296//446
f 293//447 294//447 290//447
f 295//448 293//448 292//448
f 293//449 295//449 297//449
f 297//450 296//450 293//450
f 298//451 299//451 297//451
f 297//452 295//452 298//452
f 296//453 297//453 299//453
f 299//454 300//454 296//454
f 300//455 299//455 302//455
f 299//456 301//456 302//456
f 299//457 298//457 301//457
f 303//458 302//458 153//458
f 302//459 303//459 300//459
f 302//460 301//460 304//460
f 305//461 153//461 302//461
f 304//462 305//462 302//462
f 150//463 153//463 305//463
f 306//464 150//464 305//464
f 305//465 304//465 306//465
f 149//466 150//466 306//466
f 308//467 306//467 304//467
f 306//468 307//468 149//468
f 307//469 306//469 308//469
f 308//470 310//470 309//470
f 309//471 307//471 308//471
f 310//472 308//472 311//472
f 308//473 304//473 301//473
f 301//474 311//474 308//474
f 311//475 313//475 310//475
f 298//476 312//476 311//476
f 311//477 301//477 298//477
f 313//478 311//478 312//478
f 313//479 274//479 310//479
f 277//480 274//480 313//480
f 312//481 314//481 313//481
f 313//482 314//482 277//482
f 312//483 286//483 314//483
f 281//484 314//484 286//484
f 281//485 277//485 314//485
f 295//486 315//486 312//486
f 286//487 312//487 315//487
f 312//488 298//488 295//488
f 292//489 315//489 295//489
f 315//490 292//490 283//490
f 283//491 286//491 315//491
f 309//492 310//492 316//492
f 271//493 316//493 310//493
f 271//494 310//494 274//494
f 272//495 317//495 316//495
f 316//496 271//496 272//496
f 318//497 316//497 317//497
f 316//498 318//498 309//498
f 318//499 319//499 307//499
f 255//500 319//500 318//500
f 318//501 257//501 255//501
f 307//502 309//502 318//502
f 317//503 257//503 318//503
f 319//504 320//504 143//504
f 319//505 255//505 320//505
f 143//506 147//506 319//506
f 307//507 319//507 147//507
f 320//508 255//508 252//508
f 320//509 140//509 143//509
f 252//510 140//510 320//510
f 257//511 317//511 256//511
f 272//512 256//512 317//512
f 147//513 149//513 307//513
f 161//514 303//514 153//514
f 159//515 303//515 161//515
f 159//516 321//516 303//516
f 300//517 303//517 321//517
f 182//518 321//518 159//518
f 322//519 321//519 182//519
f 322//520 300//520 321//520
f 182//521 184//521 322//521
f 184//522 189//522 322//522
f 323//523 322//523 189//523
f 323//524 296//524 322//524
f 296//525 300//525 322//525
f 195//526 323//526 189//526
f 195//527 324//527 323//527
f 323//528 324//528 326//528
f 323//529 294//529 296//529
f 294//530 323//530 325//530
f 325//531 323//531 326//531
f 290//532 325//532 326//532
f 324//533 222//533 326//533
f 326//534 222//534 223//534
f 290//535 326//535 225//535
f 223//536 225//536 326//536
f 290//537 294//537 325//537
f 327//538 324//538 195//538
f 324//539 327//539 222//539
f 222//540 327//540 331//540
f 327//541 329//541 328//541
f 328//542 331//542 327//542
f 330//543 329//543 327//543
f 195//544 330//544 327//544
f 222//545 331//545 221//545
f 331//546 328//546 218//546
f 218//547 221//547 331//547
f 330//548 195//548 196//548
f 196//549 200//549 330//549
f 329//550 330//550 200//550
f 332//551 328//551 329//551
f 200//552 332//552 329//552
f 332//553 199//553 203//553
f 203//554 333//554 332//554
f 199//555 332//555 200//555
f 328//556 332//556 333//556
f 333//557 203//557 209//557
f 328//558 333//558 209//558
f 209//559 334//559 328//559
f 334//560 218//560 328//560
f 218//561 334//561 212//561
f 334//562 209//562 212//562
f 285//563 283//563 292//563
f 230//564 288//564 290//564
f 225//565 230//565 290//565
f 288//566 230//566 231//566
f 335//567 284//567 288//567
f 288//568 231//568 335//568
f 284//569 335//569 280//569
f 233//570 280//570 335//570
f 233//571 335//571 231//571
f 237//572 269//572 275//572
f 256//573 272//573 259//573
f 269//574 237//574 236//574
f 141//575 140//575 252//575
f 243//576 242//576 246//576
f 240//577 126//577 128//577
f 240//578 2//578 338//578
f 240//579 8//579 2//579
f 240//580 336//580 337//580
f 336//581 240//581 338//581
f 126//582 240//582 337//582
f 338//583 50//583 339//583
f 339//583 340//583 338//583
f 336//584 338//584 340//584
f 2//585 50//585 338//585
f 340//584 342//584 336//584
f 340//586 343//586 341//586
f 341//586 342//586 340//586
f 343//587 340//587 339//587
f 339//587 344//587 343//587
f 341//585 343//585 344//585
f 345//588 344//588 339//588
f 344//585 345//585 341//585
f 342//589 341//589 345//589
f 342//589 345//589 346//589
f 339//588 346//588 345//588
f 347//590 342//590 346//590
f 50//591 347//591 346//591
f 346//591 339//591 50//591
f 51//592 347//592 50//592
f 337//593 347//593 51//593
f 347//594 337//594 336//594
f 347//590 336//590 342//590
f 125//595 126//595 337//595
f 348//596 337//596 51//596
f 348//597 349//597 337//597
f 349//598 125//598 337//598
f 349//599 350//599 354//599
f 349//600 352//600 350//600
f 349//601 348//601 351//601
f 125//602 349//602 353//602
f 349//603 351//603 352//603
f 353//604 349//604 354//604
f 121//605 354//605 355//605
f 356//606 355//606 354//606
f 354//607 350//607 356//607
f 354//608 121//608 353//608
f 357//609 356//609 350//609
f 357//610 358//610 356//610
f 355//611 356//611 358//611
f 359//612 361//612 358//612
f 358//613 357//613 359//613
f 358//614 360//614 355//614
f 360//615 358//615 361//615
f 106//616 108//616 361//616
f 106//617 361//617 359//617
f 361//618 108//618 360//618
f 111//619 360//619 108//619
f 117//620 360//620 111//620
f 117//621 355//621 360//621
f 364//622 362//622 359//622
f 362//623 363//623 359//623
f 359//624 363//624 106//624
f 364//625 359//625 357//625
f 365//626 366//626 364//626
f 364//627 367//627 365//627
f 357//628 367//628 364//628
f 362//629 364//629 366//629
f 352//630 351//630 367//630
f 367//631 357//631 352//631
f 367//632 351//632 365//632
f 372//633 366//633 368//633
f 368//634 366//634 371//634
f 366//635 369//635 371//635
f 366//636 370//636 369//636
f 362//637 366//637 372//637
f 366//638 365//638 370//638
f 372//639 368//639 63//639
f 373//640 372//640 67//640
f 372//641 373//641 363//641
f 362//642 372//642 363//642
f 67//643 372//643 63//643
f 102//644 373//644 71//644
f 67//645 71//645 373//645
f 102//646 363//646 373//646
f 60//647 368//647 371//647
f 369//648 60//648 371//648
f 54//649 370//649 348//649
f 365//650 348//650 370//650
f 54//651 375//651 370//651
f 374//652 369//652 370//652
f 375//653 374//653 370//653
f 374//654 375//654 54//654
f 55//655 374//655 54//655
f 374//656 55//656 60//656
f 60//657 369//657 374//657
f 63//658 368//658 60//658
f 351//659 348//659 365//659
f 106//660 363//660 102//660
f 350//661 352//661 357//661
f 355//662 117//662 121//662
f 122//663 353//663 121//663
f 353//664 122//664 125//664
f 348//665 51//665 54//665
f 376//666 228//666 226//666
f 376//667 38//667 228//667
f 377//668 376//668 226//668
f 378//669 38//669 376//669
f 379//670 376//670 377//670
f 380//671 378//671 376//671
f 379//672 381//672 376//672
f 376//673 381//673 380//673
f 384//674 380//674 381//674
f 383//675 381//675 379//675
f 381//676 383//676 382//676
f 381//677 382//677 384//677
f 385//678 384//678 382//678
f 384//679 385//679 386//679
f 386//680 380//680 384//680
f 385//681 388//681 386//681
f 387//682 390//682 386//682
f 386//683 388//683 387//683
f 386//684 389//684 380//684
f 389//685 386//685 390//685
f 23//686 390//686 391//686
f 390//687 23//687 25//687
f 390//688 387//688 391//688
f 390//689 392//689 389//689
f 392//690 390//690 25//690
f 25//691 393//691 392//691
f 393//692 378//692 392//692
f 389//693 392//693 378//693
f 378//694 393//694 38//694
f 393//695 36//695 38//695
f 21//696 393//696 25//696
f 21//697 36//697 393//697
f 394//698 391//698 395//698
f 391//699 394//699 23//699
f 397//700 395//700 391//700
f 391//701 387//701 396//701
f 396//702 397//702 391//702
f 397//703 398//703 399//703
f 398//704 397//704 400//704
f 395//705 397//705 399//705
f 400//706 397//706 396//706
f 401//707 398//707 400//707
f 400//708 402//708 401//708
f 396//709 388//709 400//709
f 402//710 400//710 388//710
f 402//711 403//711 401//711
f 402//712 404//712 403//712
f 402//713 405//713 404//713
f 402//714 406//714 405//714
f 388//715 406//715 402//715
f 406//716 388//716 385//716
f 405//717 406//717 385//717
f 409//718 404//718 405//718
f 385//719 382//719 405//719
f 407//720 405//720 382//720
f 407//721 408//721 405//721
f 405//722 408//722 409//722
f 404//723 409//723 410//723
f 413//724 410//724 409//724
f 409//725 411//725 413//725
f 409//726 412//726 411//726
f 412//727 409//727 408//727
f 413//728 415//728 410//728
f 413//729 411//729 414//729
f 413//730 414//730 415//730
f 410//731 415//731 416//731
f 415//732 417//732 416//732
f 414//733 417//733 415//733
f 417//734 414//734 419//734
f 420//735 416//735 417//735
f 417//736 418//736 420//736
f 419//737 418//737 417//737
f 421//738 416//738 420//738
f 421//739 420//739 418//739
f 421//740 422//740 56//740
f 416//741 421//741 56//741
f 421//742 425//742 422//742
f 418//743 424//743 421//743
f 424//744 423//744 421//744
f 425//745 421//745 423//745
f 423//746 427//746 425//746
f 428//747 425//747 426//747
f 427//748 426//748 425//748
f 428//749 422//749 425//749
f 430//750 428//750 426//750
f 429//751 422//751 428//751
f 433//752 429//752 428//752
f 430//753 431//753 428//753
f 431//754 432//754 428//754
f 428//755 432//755 433//755
f 433//756 434//756 429//756
f 433//757 81//757 434//757
f 81//758 433//758 435//758
f 433//759 436//759 435//759
f 436//760 433//760 432//760
f 79//761 436//761 82//761
f 438//762 82//762 436//762
f 435//763 436//763 79//763
f 432//764 437//764 436//764
f 436//765 437//765 438//765
f 439//766 440//766 438//766
f 438//767 441//767 439//767
f 440//768 82//768 438//768
f 441//769 438//769 437//769
f 442//770 439//770 441//770
f 441//771 444//771 442//771
f 443//772 444//772 441//772
f 437//773 443//773 441//773
f 446//774 442//774 444//774
f 444//775 443//775 447//775
f 445//776 444//776 447//776
f 445//777 446//777 444//777
f 447//778 430//778 426//778
f 448//779 447//779 426//779
f 443//780 430//780 447//780
f 447//781 448//781 445//781
f 427//782 448//782 426//782
f 427//783 445//783 448//783
f 442//784 446//784 451//784
f 446//785 445//785 449//785
f 449//786 450//786 446//786
f 451//787 446//787 450//787
f 451//788 450//788 452//788
f 453//789 451//789 452//789
f 451//790 453//790 439//790
f 439//791 442//791 451//791
f 454//792 453//792 455//792
f 453//793 454//793 440//793
f 440//794 439//794 453//794
f 453//795 452//795 455//795
f 456//796 455//796 457//796
f 455//797 456//797 454//797
f 458//798 457//798 455//798
f 455//799 452//799 458//799
f 458//800 450//800 459//800
f 459//801 460//801 458//801
f 450//802 458//802 452//802
f 457//803 458//803 460//803
f 461//804 463//804 460//804
f 460//805 459//805 461//805
f 460//806 462//806 457//806
f 462//807 460//807 463//807
f 463//808 461//808 192//808
f 464//809 463//809 192//809
f 463//810 464//810 462//810
f 465//811 464//811 193//811
f 192//812 193//812 464//812
f 464//813 465//813 466//813
f 466//814 462//814 464//814
f 468//815 466//815 467//815
f 465//816 467//816 466//816
f 462//817 466//817 468//817
f 468//818 457//818 462//818
f 90//819 468//819 467//819
f 84//820 456//820 468//820
f 468//821 90//821 84//821
f 457//822 468//822 456//822
f 93//823 91//823 467//823
f 467//824 465//824 93//824
f 90//825 467//825 91//825
f 93//826 465//826 187//826
f 193//827 187//827 465//827
f 469//828 470//828 461//828
f 461//829 459//829 469//829
f 471//830 461//830 470//830
f 471//831 192//831 461//831
f 191//832 192//832 471//832
f 472//833 471//833 470//833
f 472//834 191//834 471//834
f 191//835 472//835 197//835
f 202//836 197//836 472//836
f 470//837 473//837 472//837
f 472//838 473//838 202//838
f 473//839 470//839 469//839
f 473//840 474//840 206//840
f 469//841 474//841 473//841
f 206//842 202//842 473//842
f 479//843 475//843 474//843
f 475//844 476//844 474//844
f 476//845 477//845 474//845
f 206//846 474//846 477//846
f 478//847 474//847 469//847
f 479//848 474//848 478//848
f 479//849 427//849 423//849
f 423//850 480//850 479//850
f 475//851 479//851 480//851
f 427//852 479//852 478//852
f 475//853 480//853 481//853
f 482//854 481//854 480//854
f 424//855 480//855 423//855
f 424//856 482//856 480//856
f 482//857 483//857 481//857
f 483//858 482//858 419//858
f 419//859 482//859 424//859
f 483//860 484//860 485//860
f 419//861 484//861 483//861
f 485//862 481//862 483//862
f 484//863 486//863 485//863
f 487//864 485//864 486//864
f 485//865 487//865 489//865
f 485//866 488//866 475//866
f 489//867 488//867 485//867
f 481//868 485//868 475//868
f 490//869 489//869 491//869
f 489//870 490//870 488//870
f 491//871 489//871 487//871
f 491//872 226//872 227//872
f 487//873 226//873 491//873
f 491//874 227//874 490//874
f 490//875 492//875 488//875
f 211//876 490//876 214//876
f 490//877 211//877 492//877
f 490//878 227//878 214//878
f 206//879 477//879 492//879
f 492//880 477//880 476//880
f 492//881 205//881 206//881
f 492//882 476//882 488//882
f 211//883 208//883 492//883
f 492//884 208//884 205//884
f 476//885 475//885 488//885
f 226//886 487//886 486//886
f 486//887 377//887 226//887
f 493//888 377//888 486//888
f 484//889 493//889 486//889
f 493//890 484//890 412//890
f 494//891 493//891 412//891
f 377//892 493//892 494//892
f 412//893 408//893 494//893
f 407//894 494//894 408//894
f 494//895 407//895 383//895
f 379//896 494//896 383//896
f 494//897 379//897 377//897
f 484//898 419//898 414//898
f 484//899 414//899 412//899
f 478//900 469//900 449//900
f 445//901 478//901 449//901
f 445//902 427//902 478//902
f 449//903 469//903 459//903
f 449//904 459//904 450//904
f 85//905 454//905 456//905
f 85//906 456//906 84//906
f 454//907 85//907 80//907
f 80//908 440//908 454//908
f 443//909 437//909 431//909
f 431//910 430//910 443//910
f 440//911 80//911 82//911
f 432//912 431//912 437//912
f 81//913 435//913 79//913
f 434//914 81//914 495//914
f 495//915 496//915 434//915
f 496//916 429//916 434//916
f 496//917 495//917 69//917
f 497//918 429//918 496//918
f 69//919 497//919 496//919
f 58//920 497//920 61//920
f 497//921 58//921 429//921
f 497//922 65//922 61//922
f 497//923 69//923 65//923
f 495//924 81//924 74//924
f 69//925 495//925 74//925
f 422//926 429//926 58//926
f 418//927 419//927 424//927
f 56//928 422//928 58//928
f 416//929 56//929 410//929
f 411//930 412//930 414//930
f 56//931 403//931 410//931
f 404//932 410//932 403//932
f 383//933 407//933 382//933
f 403//934 498//934 401//934
f 498//935 403//935 56//935
f 498//936 56//936 499//936
f 498//937 499//937 500//937
f 498//938 500//938 399//938
f 399//939 398//939 498//939
f 398//940 401//940 498//940
f 502//941 500//941 501//941
f 500//942 499//942 501//942
f 502//943 395//943 500//943
f 399//944 500//944 395//944
f 502//945 39//945 394//945
f 502//946 503//946 39//946
f 395//947 502//947 394//947
f 503//948 502//948 501//948
f 499//949 503//949 501//949
f 499//950 45//950 503//950
f 45//951 504//951 503//951
f 40//952 503//952 504//952
f 40//953 39//953 503//953
f 41//954 504//954 45//954
f 504//955 41//955 40//955
f 48//956 45//956 499//956
f 499//957 56//957 48//957
f 388//958 396//958 387//958
f 394//959 39//959 505//959
f 505//960 23//960 394//960
f 23//961 505//961 24//961
f 24//962 505//962 506//962
f 506//963 505//963 509//963
f 507//964 505//964 39//964
f 507//965 508//965 505//965
f 505//966 508//966 509//966
f 510//967 506//967 509//967
f 511//968 509//968 508//968
f 509//967 511//967 510//967
f 512//969 513//969 511//969
f 511//970 514//970 512//970
f 510//971 511//971 513//971
f 508//968 514//968 511//968
f 517//972 512//972 514//972
f 514//973 508//973 515//973
f 515//973 516//973 514//973
f 514//974 516//974 517//974
f 518//975 512//975 517//975
f 519//976 518//976 517//976
f 517//977 520//977 519//977
f 521//978 520//978 517//978
f 517//979 516//979 521//979
f 522//980 520//980 521//980
f 521//981 524//981 522//981
f 516//982 523//982 521//982
f 521//983 523//983 525//983
f 525//984 524//984 521//984
f 507//985 525//985 523//985
f 507//986 32//986 525//986
f 524//987 525//987 526//987
f 32//988 526//988 525//988
f 526//989 30//989 31//989
f 32//990 30//990 526//990
f 526//991 527//991 524//991
f 31//992 527//992 526//992
f 529//993 528//993 527//993
f 527//994 528//994 522//994
f 522//995 524//995 527//995
f 527//993 31//993 529//993
f 529//996 31//996 34//996
f 530//992 528//992 529//992
f 531//997 530//997 529//997
f 34//998 531//998 529//998
f 533//999 531//999 532//999
f 532//1000 531//1000 34//1000
f 533//1001 530//1001 531//1001
f 9//1002 533//1002 532//1002
f 533//1003 9//1003 11//1003
f 530//1004 533//1004 11//1004
f 532//1005 33//1005 14//1005
f 14//1006 10//1006 532//1006
f 34//1007 33//1007 532//1007
f 532//1008 10//1008 9//1008
f 11//1009 534//1009 530//1009
f 530//1010 534//1010 528//1010
f 534//1011 8//1011 52//1011
f 8//1012 534//1012 11//1012
f 52//1013 519//1013 534//1013
f 534//1014 519//1014 528//1014
f 528//1015 519//1015 522//1015
f 507//1016 523//1016 515//1016
f 516//982 515//982 523//982
f 522//1017 519//1017 520//1017
f 52//1018 518//1018 519//1018
f 52//1019 535//1019 518//1019
f 518//1020 535//1020 512//1020
f 52//1021 49//1021 535//1021
f 49//1022 536//1022 535//1022
f 535//1023 536//1023 513//1023
f 513//1024 512//1024 535//1024
f 49//1025 3//1025 536//1025
f 536//1026 538//1026 537//1026
f 513//1027 536//1027 537//1027
f 536//1028 3//1028 538//1028
f 540//1029 539//1029 538//1029
f 537//1030 538//1030 539//1030
f 538//1029 5//1029 540//1029
f 5//1031 538//1031 3//1031
f 540//1032 5//1032 6//1032
f 6//1032 16//1032 540//1032
f 540//1033 16//1033 19//1033
f 541//1034 539//1034 540//1034
f 19//1033 22//1033 540//1033
f 540//1035 22//1035 541//1035
f 539//1036 541//1036 506//1036
f 506//1037 541//1037 24//1037
f 541//1038 22//1038 24//1038
f 539//1030 510//1030 537//1030
f 506//1036 510//1036 539//1036
f 513//1039 537//1039 510//1039
f 508//1040 507//1040 515//1040
f 507//1041 39//1041 32//1041
f 389//1042 378//1042 380//1042
f 214//1043 227//1043 217//1043
f 186//1044 187//1044 193//1044
f 161//1045 153//1045 154//1045
f 145//1046 146//1046 130//1046
f 130//1047 146//1047 132//1047
f 134//1048 132//1048 146//1048
f 131//1049 137//1049 128//1049
f 124//1050 119//1050 114//1050
f 112//1051 107//1051 104//1051
f 75//1052 76//1052 87//1052
f 78//1053 80//1053 85//1053
f 74//1054 68//1054 69//1054
f 50//585 2//585 49//585
f 49//1055 2//1055 3//1055
f 28//1056 27//1056 33//1056
f 33//1057 27//1057 14//1057
f 27//1058 17//1058 14//1058
f 14//1059 17//1059 13//1059
