# Blender 5.0.1
# www.blender.org
mtllib torso_y_link_visual_25.mtl
o i01.torso.full.027_visual.001
v -0.061437 0.083420 -0.036554
v -0.062434 0.128927 -0.038504
v -0.066308 0.083594 -0.033915
v -0.065658 0.082427 -0.051665
v -0.058921 0.083143 -0.040768
v -0.058792 0.128539 -0.044401
v -0.060027 0.082693 -0.047609
v -0.060395 0.128095 -0.051146
v 0.048770 0.129512 -0.029607
v -0.042993 0.129908 -0.023583
v -0.026296 0.130310 -0.017467
v -0.066307 0.127856 -0.054782
v -0.177958 0.126124 -0.081133
v -0.071168 0.082465 -0.051086
v -0.073066 0.127961 -0.053182
v -0.076000 0.128220 -0.049252
v -0.075107 0.082657 -0.048157
v -0.076709 0.083101 -0.041412
v -0.073066 0.083488 -0.035516
v -0.076580 0.128581 -0.043755
v -0.104875 0.130226 -0.018746
v -0.081722 0.129793 -0.025333
v -0.074064 0.128858 -0.039541
v -0.069192 0.129032 -0.036902
v -0.062840 0.129730 -0.026291
v -0.045169 0.076152 -0.020576
v -0.069134 0.075997 -0.022932
v -0.055802 0.080302 0.042537
v -0.068813 0.080179 0.040662
v -0.087894 0.076156 -0.020507
v -0.106928 0.076564 -0.014306
v -0.083749 0.080472 0.045121
v -0.122269 0.077156 -0.005308
v -0.122269 0.130877 -0.008841
v -0.136776 0.131676 0.003300
v -0.151504 0.133016 0.023690
v -0.148199 0.078942 0.021859
v -0.136673 0.077960 0.006929
v -0.095774 0.081302 0.057750
v -0.162910 0.081726 0.064187
v -0.157267 0.080114 0.039677
v -0.087450 0.057403 0.049295
v -0.099454 0.082203 0.071424
v -0.097543 0.058306 0.063028
v -0.177958 0.052547 -0.024547
v -0.099181 0.059427 0.080123
v -0.177958 0.065553 0.173252
v -0.094107 0.060275 0.092974
v -0.098126 0.082931 0.082520
v -0.159354 0.084113 0.100499
v -0.094445 0.083463 0.090612
v -0.152154 0.085260 0.117935
v -0.087140 0.084014 0.098992
v -0.142639 0.086246 0.132933
v -0.148616 0.139410 0.120930
v -0.124589 0.087400 0.150490
v -0.132562 0.140685 0.140316
v -0.177958 0.142518 0.168191
v -0.172338 0.143076 0.176678
v -0.118361 0.141388 0.151013
v -0.100505 0.141983 0.160061
v -0.102597 0.088209 0.162788
v -0.078193 0.084332 0.103828
v -0.077060 0.088630 0.169189
v -0.068612 0.084471 0.105947
v -0.050739 0.088572 0.168317
v -0.070267 0.061213 0.107251
v -0.057589 0.061157 0.106381
v -0.057955 0.084387 0.104663
v -0.027697 0.088113 0.161333
v -0.048565 0.084108 0.100417
v -0.006121 0.087260 0.148357
v -0.043795 0.060616 0.098198
v 0.011162 0.086056 0.130045
v -0.039646 0.083537 0.091710
v 0.022870 0.084675 0.109045
v -0.036891 0.059951 0.088066
v -0.034003 0.082529 0.076404
v 0.029082 0.083072 0.084670
v 0.028669 0.081345 0.058406
v -0.036227 0.081556 0.061610
v -0.033845 0.059025 0.073978
v 0.048770 0.065553 0.173252
v 0.048770 0.052547 -0.024547
v -0.039364 0.057885 0.056691
v -0.050214 0.057228 0.046651
v -0.043359 0.080810 0.050234
v -0.005045 0.077472 -0.000503
v 0.007639 0.078291 0.011957
v -0.021557 0.076729 -0.011795
v -0.008996 0.130973 -0.007387
v 0.009047 0.132127 0.010165
v 0.018565 0.133113 0.025164
v 0.021016 0.079692 0.033263
v 0.025765 0.134260 0.042605
v 0.029692 0.135819 0.066312
v 0.048770 0.142518 0.168191
v 0.027304 0.137465 0.091354
v 0.018040 0.139082 0.115943
v 0.007182 0.140099 0.131401
v -0.006212 0.140974 0.144715
v 0.043150 0.143076 0.176678
v -0.022080 0.141648 0.154959
v -0.040638 0.142145 0.162523
v -0.064453 0.142376 0.166031
v -0.083283 0.142276 0.164519
v 0.043150 0.066111 0.181739
v 0.028979 0.066770 0.191753
v 0.028979 0.143734 0.186692
v -0.158167 0.143734 0.186692
v -0.158167 0.066770 0.191753
v -0.172338 0.066111 0.181739
v -0.083131 0.060949 0.103259
v -0.063337 0.056937 0.042282
v -0.076016 0.057027 0.043579
v 0.145524 0.129509 -0.029608
v 0.145363 -0.139363 -0.011929
v 0.177202 -0.143725 -0.078409
v -0.177958 -0.143734 -0.078407
v -0.177958 -0.139363 -0.011929
v -0.177958 0.062833 -0.091990
v 0.048770 0.062833 -0.091990
v -0.177958 0.056543 -0.187655
v -0.177958 0.118850 -0.191753
v -0.066254 0.061173 -0.117926
v -0.087970 0.060225 -0.132338
v -0.089776 0.059636 -0.141296
v -0.075240 0.061057 -0.119688
v -0.082866 0.060724 -0.124750
v -0.088008 0.059047 -0.150263
v -0.089776 0.121898 -0.145391
v -0.088008 0.121309 -0.154357
v -0.082936 0.058546 -0.157873
v -0.075332 0.058211 -0.162967
v -0.082937 0.120808 -0.161967
v -0.075332 0.120474 -0.167060
v -0.066353 0.058093 -0.164767
v -0.066353 0.120355 -0.168861
v -0.057368 0.120471 -0.167098
v -0.057368 0.058209 -0.163004
v 0.048770 0.118850 -0.191753
v 0.094427 0.121309 -0.154357
v 0.107103 0.120474 -0.167060
v 0.099498 0.120808 -0.161967
v -0.044638 0.121303 -0.154449
v -0.049742 0.120804 -0.162036
v 0.048770 0.056543 -0.187655
v 0.177958 0.118850 -0.191753
v 0.116081 0.120355 -0.168861
v 0.116081 0.058093 -0.164767
v 0.125068 0.058209 -0.163004
v 0.125068 0.120471 -0.167098
v 0.132694 0.120804 -0.162036
v 0.132694 0.058542 -0.157942
v 0.137798 0.059041 -0.150355
v 0.177958 0.056543 -0.187655
v 0.177958 0.125140 -0.096087
v 0.177958 0.062833 -0.091990
v 0.116181 0.061173 -0.117926
v 0.125160 0.061055 -0.119727
v 0.132764 0.060720 -0.124819
v 0.137836 0.060219 -0.132430
v 0.139603 0.059630 -0.141396
v 0.139603 0.121892 -0.145490
v 0.137797 0.121303 -0.154449
v 0.137836 0.122481 -0.136523
v 0.132764 0.122982 -0.128913
v 0.125160 0.123317 -0.123821
v 0.116181 0.123435 -0.122019
v 0.107195 0.123319 -0.123782
v 0.107195 0.061057 -0.119688
v 0.099569 0.060724 -0.124750
v 0.094465 0.060225 -0.132338
v 0.099569 0.122986 -0.128844
v 0.094465 0.122487 -0.136432
v -0.042832 0.121892 -0.145490
v -0.044600 0.122481 -0.136523
v 0.092659 0.121898 -0.145391
v 0.092659 0.059636 -0.141296
v -0.042832 0.059630 -0.141396
v -0.044599 0.060219 -0.132430
v 0.094427 0.059047 -0.150263
v -0.044637 0.059041 -0.150355
v 0.099499 0.058546 -0.157873
v 0.107103 0.058211 -0.162967
v -0.049742 0.058542 -0.157942
v -0.049671 0.060720 -0.124819
v -0.057276 0.061055 -0.119727
v -0.049671 0.122982 -0.128913
v -0.057276 0.123317 -0.123821
v -0.066254 0.123435 -0.122019
v -0.075240 0.123319 -0.123782
v -0.082866 0.122986 -0.128844
v -0.087970 0.122487 -0.136432
v -0.162259 0.137028 0.084698
v -0.162672 0.135301 0.058430
v -0.157261 0.138225 0.102903
v -0.158771 0.134161 0.041105
v -0.162768 0.082893 0.081944
vn -0.4772 -0.0480 -0.8775
vn -0.8590 -0.0407 -0.5103
vn -0.0000 0.9978 -0.0656
vn -0.8513 -0.0395 -0.5231
vn -0.9872 0.0155 0.1586
vn -0.9730 0.0101 0.2306
vn -0.5853 0.0582 0.8087
vn -0.5247 0.0508 0.8498
vn -0.0000 0.9978 -0.0657
vn 0.1047 0.0696 0.9921
vn 0.2309 0.0544 0.9715
vn 0.8019 0.0300 0.5967
vn 0.5975 0.0617 0.7995
vn 0.9730 0.0246 0.2295
vn 0.8513 -0.0294 -0.5239
vn 0.9945 0.0026 0.1049
vn 0.8590 -0.0265 -0.5113
vn 0.4770 -0.0673 -0.8763
vn 0.2310 -0.0492 -0.9717
vn -0.2310 -0.0784 -0.9698
vn -0.1355 0.0608 0.9889
vn -0.0980 0.0735 0.9925
vn 0.0507 0.0564 0.9971
vn 0.1285 0.0742 0.9889
vn 0.3103 0.0666 0.9483
vn 0.2742 0.0548 0.9601
vn 0.4957 0.0528 0.8669
vn 0.5067 0.0566 0.8602
vn 0.6426 0.0503 0.7646
vn 0.8112 0.0298 0.5840
vn 0.7922 0.0427 0.6088
vn 0.6483 0.0526 0.7596
vn 0.8059 0.0729 0.5875
vn 0.7244 0.0085 0.6893
vn 0.9653 -0.0144 0.2607
vn -0.0000 -0.9978 0.0656
vn 0.0001 -0.9979 0.0655
vn 0.9946 0.0471 0.0923
vn 0.0002 -0.9978 0.0658
vn 0.9302 -0.0043 -0.3671
vn 0.9926 -0.0327 -0.1166
vn -0.0000 0.9979 -0.0655
vn 0.9106 -0.0287 -0.4123
vn 0.7545 -0.0556 -0.6540
vn 0.7708 -0.0566 -0.6346
vn 0.8449 -0.0257 -0.5344
vn 0.6979 -0.0322 -0.7154
vn 0.6025 -0.0618 -0.7958
vn 0.4528 -0.0627 -0.8894
vn 0.4889 -0.0480 -0.8710
vn 0.0001 0.9978 -0.0656
vn 0.2436 -0.0586 -0.9681
vn -0.0001 0.9978 -0.0656
vn -0.0686 -0.0510 -0.9963
vn 0.2163 -0.0700 -0.9738
vn -0.1198 -0.0751 -0.9899
vn -0.4127 -0.0737 -0.9079
vn -0.5108 -0.0225 -0.8594
vn -0.6990 -0.0748 -0.7112
vn 0.0001 0.9978 -0.0657
vn -0.8267 -0.0096 -0.5626
vn -0.9380 -0.0567 -0.3421
vn -0.9771 0.0154 -0.2123
vn -0.9884 -0.0221 0.1501
vn -0.9519 0.0639 0.2997
vn -0.0001 -0.9979 0.0654
vn -0.6795 0.0868 0.7286
vn -0.8473 0.0019 0.5311
vn -0.5266 0.0240 0.8498
vn 0.0001 0.9979 -0.0655
vn -0.0001 0.9978 -0.0657
vn -0.5653 0.0641 0.8224
vn -0.5042 0.0467 0.8623
vn -0.3446 0.0686 0.9362
vn -0.3492 0.0664 0.9347
vn -0.7015 0.0398 0.7115
vn -0.6981 0.0420 0.7148
vn -0.8448 0.0421 0.5334
vn -0.8474 0.0398 0.5294
vn -0.9567 0.0338 0.2890
vn -0.9246 0.0153 0.3807
vn -0.9865 -0.0052 0.1637
vn -0.9998 0.0166 0.0146
vn -0.9954 -0.0210 -0.0935
vn -0.9359 -0.0387 -0.3501
vn -0.9691 -0.0013 -0.2469
vn -0.8189 -0.0459 -0.5721
vn -0.8738 -0.0159 -0.4861
vn -0.7280 -0.0364 -0.6846
vn -0.7057 -0.0491 -0.7068
vn -0.5432 -0.0577 -0.8376
vn -0.3781 -0.0702 -0.9231
vn -0.5162 -0.0477 -0.8552
vn -0.1460 -0.0791 -0.9861
vn -0.2906 -0.0486 -0.9556
vn -0.0332 -0.0509 -0.9982
vn 0.0802 -0.0772 -0.9938
vn 0.2511 -0.0550 -0.9664
vn 0.8343 0.0362 0.5501
vn 0.5779 0.0535 0.8143
vn -0.0000 0.0656 0.9978
vn -0.5780 0.0535 0.8143
vn 0.0001 -0.9978 0.0658
vn -0.8343 0.0362 0.5501
vn 0.2969 -0.0395 -0.9541
vn -0.0001 -0.9979 0.0655
vn 0.6842 -0.0159 -0.7291
vn 0.4762 -0.0792 -0.8758
vn -0.0001 -0.9978 0.0658
vn 1.0000 -0.0000 -0.0000
vn 0.0002 -0.9978 0.0659
vn -0.3164 0.0917 0.9442
vn -0.0003 -0.9978 0.0661
vn -0.0000 -0.9978 0.0655
vn 0.1020 0.0931 0.9904
vn -0.1429 0.0353 0.9891
vn 0.4477 0.0891 0.8897
vn 0.2865 0.0315 0.9576
vn 0.9023 0.0278 0.4303
vn -0.0000 -0.9979 0.0655
vn -1.0000 -0.0000 -0.0000
vn -0.0000 -0.0656 -0.9978
vn -0.0000 -0.9980 0.0639
vn 0.0005 -0.9978 0.0656
vn 0.0002 -0.9979 0.0647
vn 0.0004 -0.9979 0.0653
vn 0.0005 -0.9979 0.0655
vn 0.0006 -0.9978 0.0657
vn 0.0003 -0.9979 0.0652
vn 0.9812 0.0127 0.1926
vn 0.8327 0.0363 0.5526
vn 0.0004 -0.9978 0.0659
vn 0.0003 -0.9978 0.0661
vn 0.5574 0.0545 0.8285
vn 0.8327 0.0363 0.5525
vn 0.5573 0.0545 0.8285
vn 0.1970 0.0643 0.9783
vn 0.1971 0.0643 0.9783
vn -0.1930 0.0644 0.9791
vn -0.5539 0.0546 0.8308
vn -0.0005 -0.9978 0.0664
vn -0.0007 -0.9978 0.0661
vn -0.8303 0.0366 0.5562
vn -0.0000 -0.9977 0.0676
vn -0.0003 -0.9978 0.0669
vn -0.0011 -0.9978 0.0656
vn -0.0002 -0.9979 0.0644
vn 0.8991 0.0287 0.4368
vn 0.8979 0.0256 0.4395
vn -0.0005 -0.9979 0.0649
vn -0.0007 -0.9979 0.0652
vn -0.0009 -0.9979 0.0654
vn -0.0016 -0.9978 0.0659
vn -0.9812 -0.0127 -0.1926
vn -0.9804 0.0129 0.1968
vn -0.9804 0.0129 0.1967
vn -0.8303 0.0365 0.5561
vn -0.8327 -0.0363 -0.5525
vn -0.8327 -0.0363 -0.5526
vn -0.5572 -0.0545 -0.8286
vn -0.1971 -0.0643 -0.9783
vn -0.1972 -0.0643 -0.9782
vn 0.1929 -0.0644 -0.9791
vn 0.1930 -0.0644 -0.9791
vn 0.0002 -0.9979 0.0645
vn 0.0005 -0.9979 0.0649
vn 0.5538 -0.0546 -0.8308
vn 0.0006 -0.9979 0.0652
vn 0.5539 -0.0546 -0.8308
vn 0.8303 -0.0366 -0.5561
vn 0.9804 -0.0129 -0.1968
vn -0.0000 -0.9978 0.0668
vn 0.0006 -0.9978 0.0660
vn 0.0005 -0.9978 0.0663
vn 0.0002 -0.9978 0.0669
vn -0.8302 0.0366 0.5562
vn -0.8303 0.0366 0.5561
vn -0.0004 -0.9978 0.0659
vn -0.0004 -0.9979 0.0653
vn -0.0000 -0.9979 0.0645
vn -0.0003 -0.9979 0.0652
vn -0.0002 -0.9979 0.0647
vn -0.0002 -0.9978 0.0666
vn 0.0002 -0.9978 0.0666
vn 0.9020 -0.0352 -0.4303
vn 0.9246 -0.0189 -0.3805
vn 0.9644 -0.0256 -0.2631
vn 0.9757 0.0214 0.2182
vn 0.9746 0.0196 0.2231
vn 0.9999 -0.0061 -0.0153
vn 0.9231 0.0155 0.3842
vn 0.9835 -0.0001 -0.1810
vn 0.9999 -0.0090 -0.0074
vn 0.8916 0.0392 0.4512
s 0
usemtl Material.027
f 1//1 3//1 2//1
f 5//2 1//2 2//2
f 3//3 1//3 4//3
f 1//3 5//3 4//3
f 2//4 6//4 5//4
f 7//5 5//5 6//5
f 5//3 7//3 4//3
f 6//6 8//6 7//6
f 4//7 7//7 8//7
f 9//3 12//3 8//3
f 11//3 9//3 8//3
f 11//3 8//3 10//3
f 8//3 6//3 10//3
f 8//8 12//8 4//8
f 9//9 13//9 12//9
f 12//3 13//3 15//3
f 14//10 4//10 12//10
f 12//11 15//11 14//11
f 15//3 13//3 16//3
f 15//12 16//12 17//12
f 17//13 14//13 15//13
f 17//3 18//3 4//3
f 18//14 17//14 16//14
f 14//3 17//3 4//3
f 18//3 19//3 4//3
f 19//15 18//15 20//15
f 16//16 20//16 18//16
f 21//3 20//3 16//3
f 20//3 21//3 22//3
f 22//3 23//3 20//3
f 20//17 23//17 19//17
f 22//3 24//3 23//3
f 23//18 24//18 19//18
f 2//3 24//3 25//3
f 25//3 24//3 22//3
f 3//19 19//19 24//19
f 24//20 2//20 3//20
f 25//3 10//3 2//3
f 26//21 10//21 25//21
f 25//22 27//22 26//22
f 25//23 22//23 27//23
f 28//3 26//3 27//3
f 27//3 29//3 28//3
f 27//3 30//3 29//3
f 30//24 27//24 22//24
f 29//3 30//3 31//3
f 21//25 31//25 30//25
f 30//26 22//26 21//26
f 31//27 21//27 34//27
f 31//3 32//3 29//3
f 32//3 31//3 33//3
f 34//28 33//28 31//28
f 21//3 13//3 34//3
f 33//29 34//29 35//29
f 34//3 13//3 35//3
f 35//3 13//3 36//3
f 35//30 36//30 37//30
f 37//31 38//31 35//31
f 35//32 38//32 33//32
f 38//3 37//3 39//3
f 39//3 32//3 38//3
f 32//3 33//3 38//3
f 39//3 41//3 40//3
f 40//9 43//9 39//9
f 39//3 37//3 41//3
f 44//33 42//33 39//33
f 32//34 39//34 42//34
f 44//35 39//35 43//35
f 45//36 42//36 44//36
f 45//37 44//37 46//37
f 43//38 46//38 44//38
f 47//36 45//36 46//36
f 48//39 47//39 46//39
f 48//40 46//40 49//40
f 46//41 43//41 49//41
f 51//3 49//3 50//3
f 50//42 49//42 43//42
f 49//43 51//43 48//43
f 50//3 52//3 51//3
f 52//3 54//3 51//3
f 51//44 53//44 48//44
f 53//3 51//3 54//3
f 55//45 57//45 54//45
f 54//46 52//46 55//46
f 54//3 56//3 53//3
f 56//47 54//47 57//47
f 57//3 55//3 58//3
f 58//3 59//3 57//3
f 59//3 60//3 57//3
f 57//48 60//48 56//48
f 59//3 61//3 60//3
f 60//49 61//49 62//49
f 62//50 56//50 60//50
f 65//51 63//51 62//51
f 56//3 62//3 63//3
f 64//52 62//52 61//52
f 62//3 64//3 65//3
f 65//3 64//3 66//3
f 66//53 69//53 65//53
f 65//54 68//54 67//54
f 63//55 65//55 67//55
f 68//56 65//56 69//56
f 70//3 71//3 69//3
f 69//3 66//3 70//3
f 68//57 69//57 71//57
f 71//3 72//3 74//3
f 70//3 72//3 71//3
f 73//58 68//58 71//58
f 73//59 71//59 75//59
f 74//42 75//42 71//42
f 78//60 75//60 76//60
f 74//3 76//3 75//3
f 75//61 77//61 73//61
f 75//62 78//62 77//62
f 76//3 79//3 78//3
f 79//3 80//3 78//3
f 81//9 78//9 80//9
f 82//63 77//63 78//63
f 78//64 81//64 82//64
f 84//36 83//36 82//36
f 83//36 77//36 82//36
f 85//39 84//39 82//39
f 81//65 85//65 82//65
f 86//66 84//66 85//66
f 87//67 86//67 85//67
f 85//68 81//68 87//68
f 86//69 87//69 28//69
f 87//3 89//3 88//3
f 87//3 88//3 90//3
f 89//70 87//70 81//70
f 90//71 28//71 87//71
f 91//72 90//72 88//72
f 90//73 91//73 11//73
f 90//74 11//74 10//74
f 10//75 26//75 90//75
f 28//3 90//3 26//3
f 91//76 88//76 89//76
f 89//77 92//77 91//77
f 9//3 91//3 92//3
f 9//3 11//3 91//3
f 9//3 92//3 93//3
f 94//78 93//78 92//78
f 92//79 89//79 94//79
f 81//3 94//3 89//3
f 81//3 80//3 94//3
f 95//80 94//80 80//80
f 94//81 95//81 93//81
f 9//3 93//3 95//3
f 9//3 95//3 96//3
f 96//82 95//82 80//82
f 96//3 98//3 97//3
f 9//3 96//3 97//3
f 80//83 79//83 96//83
f 98//84 96//84 79//84
f 98//3 99//3 97//3
f 99//85 98//85 76//85
f 79//86 76//86 98//86
f 99//3 100//3 97//3
f 74//87 100//87 99//87
f 76//88 74//88 99//88
f 100//89 74//89 72//89
f 100//3 101//3 97//3
f 72//90 101//90 100//90
f 102//3 97//3 101//3
f 103//3 102//3 101//3
f 103//91 101//91 72//91
f 104//3 102//3 103//3
f 70//92 104//92 103//92
f 72//93 70//93 103//93
f 105//3 102//3 104//3
f 66//94 105//94 104//94
f 104//95 70//95 66//95
f 105//96 66//96 64//96
f 106//97 105//97 64//97
f 59//3 105//3 106//3
f 105//3 59//3 102//3
f 61//98 106//98 64//98
f 59//3 106//3 61//3
f 97//99 102//99 107//99
f 108//100 107//100 102//100
f 109//3 102//3 59//3
f 108//100 102//100 109//100
f 59//3 110//3 109//3
f 108//101 109//101 110//101
f 112//102 111//102 110//102
f 108//101 110//101 111//101
f 110//102 59//102 112//102
f 113//103 67//103 112//103
f 112//36 47//36 113//36
f 67//36 107//36 112//36
f 111//36 112//36 107//36
f 47//104 112//104 59//104
f 67//105 113//105 63//105
f 48//106 113//106 47//106
f 113//107 48//107 53//107
f 53//108 63//108 113//108
f 107//36 108//36 111//36
f 107//36 67//36 68//36
f 107//109 68//109 73//109
f 83//36 107//36 73//36
f 107//99 83//99 97//99
f 84//110 9//110 97//110
f 97//110 83//110 84//110
f 114//111 84//111 86//111
f 28//112 114//112 86//112
f 45//113 114//113 115//113
f 114//114 45//114 84//114
f 115//115 114//115 29//115
f 114//116 28//116 29//116
f 45//36 115//36 42//36
f 32//117 42//117 115//117
f 115//118 29//118 32//118
f 117//101 84//101 45//101
f 9//101 84//101 116//101
f 117//101 116//101 84//101
f 116//119 117//119 118//119
f 119//120 118//120 117//120
f 117//36 120//36 119//36
f 45//101 120//101 117//101
f 120//121 45//121 121//121
f 121//121 119//121 120//121
f 118//122 121//122 122//122
f 121//122 118//122 119//122
f 121//121 13//121 124//121
f 13//121 121//121 45//121
f 121//123 125//123 122//123
f 121//124 123//124 130//124
f 124//121 123//121 121//121
f 121//125 128//125 125//125
f 129//126 121//126 126//126
f 126//127 121//127 127//127
f 130//128 127//128 121//128
f 128//129 121//129 129//129
f 130//130 131//130 127//130
f 131//130 130//130 132//130
f 133//131 132//131 130//131
f 130//132 123//132 133//132
f 133//133 123//133 134//133
f 134//134 135//134 133//134
f 132//135 133//135 135//135
f 132//3 135//3 124//3
f 135//136 134//136 136//136
f 135//3 136//3 124//3
f 137//137 136//137 134//137
f 136//138 137//138 138//138
f 136//3 138//3 124//3
f 139//3 141//3 138//3
f 138//139 140//139 139//139
f 140//139 138//139 137//139
f 138//3 141//3 124//3
f 142//3 144//3 141//3
f 142//3 141//3 145//3
f 141//3 143//3 149//3
f 144//3 143//3 141//3
f 145//3 141//3 146//3
f 146//3 141//3 139//3
f 147//122 141//122 148//122
f 124//122 141//122 147//122
f 141//3 149//3 148//3
f 143//138 150//138 149//138
f 151//139 149//139 150//139
f 149//139 151//139 152//139
f 152//3 148//3 149//3
f 153//3 148//3 152//3
f 152//140 154//140 153//140
f 154//140 152//140 151//140
f 154//141 151//141 156//141
f 155//142 154//142 156//142
f 155//143 153//143 154//143
f 147//144 156//144 150//144
f 151//145 150//145 156//145
f 156//110 148//110 157//110
f 157//110 158//110 156//110
f 158//146 155//146 156//146
f 148//122 156//122 147//122
f 122//123 159//123 158//123
f 158//147 159//147 160//147
f 122//122 158//122 118//122
f 158//148 157//148 116//148
f 116//149 118//149 158//149
f 158//150 160//150 161//150
f 161//151 162//151 158//151
f 162//152 163//152 158//152
f 155//153 158//153 163//153
f 162//154 164//154 163//154
f 165//155 163//155 164//155
f 163//156 165//156 155//156
f 165//3 164//3 148//3
f 153//157 155//157 165//157
f 165//3 148//3 153//3
f 164//154 162//154 166//154
f 157//3 164//3 166//3
f 164//3 157//3 148//3
f 161//158 166//158 162//158
f 166//159 161//159 167//159
f 167//3 157//3 166//3
f 160//160 167//160 161//160
f 167//160 160//160 168//160
f 157//3 167//3 168//3
f 159//161 168//161 160//161
f 168//162 159//162 169//162
f 157//3 168//3 169//3
f 171//163 169//163 159//163
f 9//3 169//3 170//3
f 169//164 171//164 170//164
f 9//3 157//3 169//3
f 122//165 171//165 159//165
f 171//166 122//166 172//166
f 172//167 170//167 171//167
f 122//168 173//168 172//168
f 170//169 172//169 174//169
f 173//170 174//170 172//170
f 170//3 174//3 9//3
f 9//3 174//3 175//3
f 174//170 173//170 175//170
f 175//3 176//3 177//3
f 176//3 175//3 178//3
f 177//3 9//3 175//3
f 175//171 179//171 178//171
f 179//171 175//171 173//171
f 180//36 182//36 179//36
f 179//36 181//36 180//36
f 181//36 179//36 173//36
f 182//130 178//130 179//130
f 182//36 180//36 183//36
f 182//172 183//172 147//172
f 182//173 147//173 184//173
f 184//135 142//135 182//135
f 178//130 182//130 142//130
f 184//174 147//174 185//174
f 185//134 144//134 184//134
f 142//135 184//135 144//135
f 147//175 150//175 185//175
f 150//137 143//137 185//137
f 144//136 185//136 143//136
f 183//176 146//176 186//176
f 146//177 183//177 145//177
f 183//178 186//178 147//178
f 180//156 145//156 183//156
f 186//140 139//140 140//140
f 139//140 186//140 146//140
f 186//113 140//113 147//113
f 181//154 176//154 180//154
f 176//154 181//154 177//154
f 187//158 177//158 181//158
f 181//179 122//179 187//179
f 181//180 173//180 122//180
f 122//181 188//181 187//181
f 188//160 189//160 187//160
f 177//158 187//158 189//158
f 177//3 189//3 9//3
f 189//160 188//160 190//160
f 9//3 189//3 190//3
f 9//3 190//3 191//3
f 190//162 125//162 191//162
f 125//161 190//161 188//161
f 128//163 191//163 125//163
f 191//164 128//164 192//164
f 13//3 191//3 192//3
f 13//3 9//3 191//3
f 129//169 192//169 128//169
f 192//169 129//169 193//169
f 192//3 193//3 13//3
f 193//3 194//3 13//3
f 193//170 126//170 194//170
f 126//170 193//170 129//170
f 194//3 131//3 13//3
f 194//171 127//171 131//171
f 127//171 194//171 126//171
f 122//182 125//182 188//182
f 145//155 180//155 176//155
f 178//3 145//3 176//3
f 145//3 178//3 142//3
f 116//3 157//3 9//3
f 140//183 137//183 147//183
f 137//144 123//144 147//144
f 147//122 123//122 124//122
f 134//184 123//184 137//184
f 13//3 131//3 132//3
f 132//3 124//3 13//3
f 73//37 77//37 83//37
f 63//3 53//3 56//3
f 59//104 58//104 47//104
f 196//3 13//3 58//3
f 47//121 58//121 13//121
f 195//3 196//3 58//3
f 197//3 195//3 58//3
f 55//3 197//3 58//3
f 197//185 55//185 52//185
f 52//186 50//186 197//186
f 195//187 197//187 50//187
f 198//3 13//3 196//3
f 41//188 198//188 196//188
f 196//189 40//189 41//189
f 40//190 196//190 195//190
f 41//191 36//191 198//191
f 36//3 13//3 198//3
f 195//192 50//192 199//192
f 195//193 199//193 40//193
f 43//3 199//3 50//3
f 43//3 40//3 199//3
f 13//121 45//121 47//121
f 36//194 41//194 37//194
f 16//3 13//3 21//3
f 19//3 3//3 4//3
f 6//3 2//3 10//3
