# Blender 5.0.1
# www.blender.org
mtllib torso_y_link_visual_29.mtl
o i01.torso.full.031_visual.001
v -0.161490 0.090059 -0.194940
v -0.183701 0.093991 -0.135072
v -0.186219 0.069309 -0.214099
v -0.139244 0.088141 -0.224079
v -0.157692 0.087471 -0.219024
v -0.139244 -0.006042 -0.217886
v -0.257747 -0.002605 -0.163040
v -0.284424 0.000772 -0.113771
v -0.149737 -0.001198 -0.144085
v -0.242518 -0.004061 -0.187746
v -0.230833 -0.005352 -0.207393
v 0.494108 0.079052 -0.362300
v -0.069669 -0.001196 -0.144050
v 0.048705 0.004974 -0.050223
v 0.494108 -0.015131 -0.356107
v 0.460748 -0.005667 -0.212185
v 0.499958 -0.005667 -0.212185
v 0.460748 0.088516 -0.218378
v 0.460748 0.000367 -0.120411
v 0.204573 0.010368 0.031806
v 0.204573 0.007133 -0.017385
v 0.460763 0.027784 0.297241
v 0.460763 0.122013 0.291044
v 0.499958 0.094550 -0.126604
v 0.287244 0.027721 0.296286
v 0.499958 0.000367 -0.120411
v 0.460748 0.094550 -0.126604
v 0.204573 0.104559 0.025612
v 0.204573 0.101325 -0.023580
v 0.193350 0.121950 0.290090
v 0.499958 0.088516 -0.218378
v 0.287243 0.121950 0.290090
v 0.194490 0.124768 0.332948
v 0.288288 0.030501 0.338559
v 0.288288 0.124730 0.332362
v 0.179243 0.126291 0.356103
v 0.305961 0.126290 0.356099
v 0.305961 0.032062 0.362295
v 0.179245 0.032062 0.362300
v 0.194493 0.030539 0.339141
v 0.193353 0.027721 0.296286
v 0.048052 0.027721 0.296286
v 0.048705 -0.120502 -0.041973
v 0.049097 0.030501 0.338559
v -0.044699 0.030539 0.339141
v 0.048052 0.121950 0.290090
v 0.048052 -0.097717 0.304535
v -0.045838 0.027721 0.296286
v -0.045841 0.121950 0.290090
v -0.287888 0.121933 0.289840
v -0.044701 0.124768 0.332948
v -0.059948 0.126291 0.356103
v 0.049097 0.124730 0.332362
v 0.066770 0.032062 0.362295
v 0.066770 0.126290 0.356099
v -0.059946 0.032062 0.362300
v -0.313347 0.116728 0.210681
v -0.393415 0.119963 0.259872
v -0.313347 0.119963 0.259872
v -0.446888 0.121710 0.286448
v -0.436974 0.120179 0.263765
v -0.315602 0.108594 0.087524
v -0.246965 0.087642 -0.051030
v -0.222373 0.099134 -0.056881
v -0.379228 0.085328 0.119484
v -0.393415 0.116726 0.210646
v -0.428670 0.104635 0.219367
v -0.461099 0.092010 0.243405
v -0.439437 0.086687 0.201727
v -0.345000 0.038843 -0.011961
v -0.454418 0.056117 0.176203
v -0.419970 0.036707 0.096891
v -0.454361 0.027433 0.144542
v -0.475188 0.054771 0.212382
v -0.476993 0.022079 0.183226
v -0.493641 0.015636 0.213171
v -0.484635 0.089462 0.286631
v -0.501439 0.047175 0.263954
v -0.515233 0.030795 0.282711
v -0.510842 0.047936 0.293509
v -0.526879 -0.093692 0.302843
v -0.486843 0.087063 0.290890
v -0.521335 0.020411 0.295330
v -0.510586 -0.018545 0.229675
v -0.509060 0.007930 0.246147
v -0.523449 -0.029303 0.271717
v -0.528098 -0.021862 0.298099
v -0.530919 -0.062840 0.300766
v -0.520333 -0.063218 0.258644
v -0.517386 -0.084585 0.256719
v -0.509817 -0.098026 0.239001
v -0.493111 -0.065246 0.167269
v -0.505162 -0.050359 0.200864
v -0.499204 -0.036411 0.187698
v -0.483830 -0.049103 0.143958
v -0.484131 -0.020020 0.156303
v -0.452072 -0.053421 0.068853
v -0.433217 -0.097503 0.013892
v -0.439089 -0.111534 0.033392
v -0.408996 -0.117476 -0.055465
v -0.382527 -0.123181 -0.140318
v -0.409276 -0.081808 -0.041466
v -0.387938 -0.093828 -0.105485
v -0.370999 -0.116880 -0.042145
v -0.279602 -0.107983 0.087421
v -0.368951 -0.096451 -0.043509
v -0.221054 -0.112882 0.012969
v -0.204886 -0.113363 0.005651
v -0.260699 -0.110639 0.047076
v -0.241789 -0.111984 0.026631
v -0.272514 -0.109318 0.067172
v -0.183011 -0.113709 0.000384
v -0.165782 -0.113787 -0.000796
v -0.141122 -0.113647 0.001461
v -0.356961 -0.060398 -0.045884
v -0.314078 0.004934 -0.050224
v -0.337271 -0.024015 -0.048311
v -0.343927 -0.122187 -0.127122
v -0.337651 -0.100717 -0.133477
v -0.334519 -0.082968 -0.127936
v -0.325351 -0.125804 -0.196193
v -0.325349 -0.048468 -0.206343
v -0.353271 -0.089976 -0.203555
v -0.361071 -0.107234 -0.202404
v -0.315131 -0.096615 -0.198092
v -0.367520 -0.126291 -0.201154
v -0.371539 -0.111768 -0.170682
v -0.371720 -0.088932 -0.148620
v -0.393709 -0.067361 -0.069026
v -0.358438 -0.079114 -0.172361
v -0.384334 -0.050875 -0.074187
v -0.372465 -0.030726 -0.075190
v -0.341957 -0.052186 -0.171712
v -0.329669 -0.022017 -0.147134
v -0.357356 -0.013607 -0.079684
v -0.386987 -0.013317 -0.023844
v -0.368665 0.007184 -0.026537
v -0.436320 0.012582 0.090985
v -0.451012 -0.000447 0.101957
v -0.398296 -0.027282 -0.018436
v -0.467490 -0.011095 0.125821
v -0.430709 -0.037812 0.034418
v -0.483122 -0.001845 0.167818
v -0.500874 -0.008252 0.205907
v -0.409457 -0.054007 -0.022275
v -0.321446 0.042384 -0.041896
v -0.299338 0.013482 -0.135091
v -0.301561 -0.011622 -0.182067
v -0.264143 0.021224 -0.183805
v -0.300969 -0.022676 -0.207987
v -0.260443 0.014664 -0.210346
v -0.254826 -0.016825 -0.203270
v -0.287030 -0.050745 -0.201085
v -0.246394 -0.009809 -0.205288
v -0.240941 0.029679 -0.211445
v -0.204050 0.071240 -0.167943
v -0.242604 0.058591 -0.129128
v -0.208370 0.085967 -0.116126
v -0.288351 0.064646 -0.044095
v -0.281628 0.032523 -0.125914
v -0.255021 -0.012908 -0.190131
v -0.270649 -0.025802 -0.186916
v -0.274279 -0.008566 -0.146845
v -0.293524 -0.035421 -0.158014
v -0.308079 -0.084039 -0.198891
v -0.136547 0.008712 -0.005349
v -0.160029 0.008486 -0.008778
v -0.115561 -0.113064 0.010222
v -0.115617 0.009213 0.002280
v -0.093171 0.010091 0.015632
v -0.095037 -0.112245 0.022651
v -0.077831 -0.111204 0.038469
v -0.075146 0.011285 0.033778
v -0.065043 0.012200 0.047701
v -0.065137 -0.110064 0.055803
v -0.053885 -0.108513 0.079429
v -0.054775 0.013651 0.069763
v -0.049717 0.015022 0.090610
v -0.048200 -0.106231 0.114160
v -0.048487 0.016722 0.116477
v -0.050784 -0.104628 0.138502
v -0.056147 0.018938 0.150179
v -0.055498 -0.103495 0.155710
v -0.065139 -0.102179 0.175724
v -0.068291 0.020405 0.172478
v -0.081002 -0.100787 0.196918
v -0.101463 0.022583 0.205602
v -0.079777 0.021370 0.187149
v -0.108918 -0.099393 0.218083
v -0.126270 0.023369 0.217552
v -0.141072 -0.098607 0.229999
v -0.148066 0.023737 0.223160
v -0.165782 -0.098459 0.232319
v -0.165782 0.023811 0.224279
v -0.183484 -0.098516 0.231201
v -0.190461 0.023659 0.221965
v -0.212306 -0.099066 0.223130
v -0.222488 0.022882 0.210140
v -0.235593 -0.099955 0.209542
v -0.250183 0.021498 0.189116
v -0.253753 -0.101039 0.193068
v -0.266427 -0.102180 0.175723
v -0.266523 0.020093 0.167743
v -0.275835 -0.103448 0.156445
v -0.277779 0.018488 0.143341
v -0.281891 -0.105006 0.132747
v -0.282469 0.016898 0.119148
v -0.283083 -0.106531 0.109547
v -0.282561 0.015273 0.094425
v -0.275963 0.013497 0.067421
v -0.265725 0.012122 0.046506
v -0.252731 0.010997 0.029401
v -0.236151 0.009998 0.014222
v -0.211790 0.009079 0.000231
v -0.183031 0.008550 -0.007804
v -0.457063 0.113050 0.289301
v -0.467789 0.102809 0.278803
v -0.393415 -0.014360 0.219266
v -0.393415 -0.011123 0.268493
v -0.313347 -0.014358 0.219300
v -0.386219 -0.030774 0.224792
v -0.386219 -0.028119 0.265168
v -0.320543 -0.030772 0.224818
v -0.320543 -0.028119 0.265168
v -0.313347 -0.011123 0.268493
v -0.149737 0.096230 -0.101052
v -0.069669 0.096230 -0.101052
v 0.124505 0.104559 0.025612
v 0.124505 0.101322 -0.023614
v 0.124505 0.010368 0.031806
v 0.124505 0.007131 -0.017420
v -0.069669 0.092996 -0.150244
v -0.149737 0.092993 -0.150279
v -0.069669 0.002039 -0.094858
v -0.149737 0.002039 -0.094858
v 0.530919 0.087393 -0.235453
v 0.530919 -0.006790 -0.229261
v 0.530919 0.001508 -0.103056
v 0.530919 0.095691 -0.109249
vn 0.0003 0.9979 -0.0654
vn -0.5066 0.8275 -0.2423
vn -0.5501 0.8167 -0.1745
vn -0.0681 0.9908 -0.1172
vn -0.2616 -0.0633 -0.9631
vn -0.1448 -0.0406 -0.9886
vn -0.0024 -0.9984 0.0574
vn 0.0036 -0.9975 0.0703
vn 0.0002 -0.9979 0.0655
vn -0.0000 -0.9979 0.0655
vn -0.2137 -0.0641 -0.9748
vn -0.0000 -0.9978 0.0656
vn -0.1140 -0.0211 -0.9933
vn 0.0004 -0.9979 0.0652
vn 0.9743 0.0148 0.2249
vn -0.0000 -0.0656 -0.9978
vn 1.0000 -0.0000 -0.0000
vn -0.0000 0.0656 0.9978
vn -0.0000 0.9978 -0.0656
vn -0.0055 0.0656 0.9978
vn 0.9997 -0.0016 -0.0246
vn 0.8027 -0.0391 -0.5951
vn -0.8358 -0.0360 -0.5479
vn -0.8357 -0.0360 -0.5479
vn -0.9996 0.0017 0.0265
vn 1.0000 0.0001 0.0019
vn -0.0010 0.0656 0.9978
vn -0.0015 0.0645 0.9979
vn 0.0010 0.9978 -0.0659
vn -0.0007 0.9980 -0.0632
vn -0.0000 0.9977 -0.0674
vn -0.0214 0.0342 0.9992
vn -0.0000 0.9978 -0.0658
vn -0.4735 0.8055 -0.3564
vn -0.4637 0.8128 -0.3526
vn -0.0002 0.9979 -0.0655
vn -0.4828 0.7839 -0.3905
vn -0.0000 0.9978 -0.0659
vn -0.0056 0.9976 -0.0694
vn -0.4584 0.8086 -0.3688
vn -0.5449 0.7308 -0.4110
vn -0.5601 0.7436 -0.3651
vn -0.5700 0.7239 -0.3887
vn -0.6230 0.6582 -0.4227
vn -0.5324 0.7449 -0.4021
vn -0.6331 0.6549 -0.4127
vn -0.7493 0.4901 -0.4454
vn -0.6489 0.6245 -0.4347
vn -0.7733 0.4692 -0.4265
vn -0.7097 0.5897 -0.3855
vn -0.8090 0.4155 -0.4158
vn -0.8386 0.3877 -0.3828
vn -0.8426 0.3898 -0.3715
vn -0.7300 0.5789 -0.3633
vn -0.8006 0.4974 -0.3342
vn -0.8744 0.3405 -0.3457
vn -0.8689 0.4033 -0.2869
vn -0.8326 0.4795 -0.2773
vn -0.8470 0.5093 -0.1523
vn -0.9250 0.3416 -0.1662
vn 0.0010 0.0657 0.9978
vn 0.0020 0.0655 0.9978
vn -0.9366 0.2035 -0.2854
vn -0.9275 0.2345 -0.2910
vn -0.9546 0.1599 -0.2512
vn -0.9674 0.1410 -0.2102
vn -0.0032 0.0659 0.9978
vn -0.9805 0.0552 -0.1884
vn -0.0111 0.0657 0.9978
vn -0.9641 -0.1112 -0.2413
vn -0.9698 0.0049 -0.2438
vn -0.9637 -0.1414 -0.2263
vn -0.9555 -0.1071 -0.2747
vn -0.9462 -0.2191 -0.2380
vn -0.9453 -0.1511 -0.2892
vn -0.9502 -0.1259 -0.2851
vn -0.9452 0.1155 -0.3054
vn -0.9346 0.0700 -0.3488
vn -0.9587 0.0830 -0.2721
vn -0.9361 0.0325 -0.3502
vn -0.9676 0.0083 -0.2522
vn -0.9194 0.1456 -0.3654
vn -0.9063 0.1571 -0.3923
vn -0.9309 0.0079 -0.3652
vn -0.9146 0.0980 -0.3924
vn -0.9430 0.0113 -0.3326
vn -0.9340 -0.0898 -0.3458
vn -0.9471 -0.0452 -0.3177
vn -0.9338 0.1886 -0.3040
vn -0.0071 -0.9979 0.0649
vn -0.9342 0.1240 -0.3346
vn -0.9091 0.1460 -0.3902
vn -0.0069 -0.9979 0.0644
vn 0.0026 -0.9978 0.0667
vn -0.0013 -0.9976 0.0694
vn 0.0037 -0.0670 -0.9977
vn 0.9409 -0.0722 0.3308
vn 0.0014 -0.9976 0.0686
vn 0.0016 -0.9977 0.0680
vn 0.0010 -0.9976 0.0698
vn 0.0019 -0.9977 0.0674
vn 0.0023 -0.9978 0.0670
vn 0.0004 -0.9974 0.0724
vn -0.0002 -0.0661 -0.9978
vn -0.0086 -0.9929 0.1190
vn -0.0021 -0.9964 0.0849
vn -0.0017 -0.0656 -0.9978
vn 0.0007 -0.0665 -0.9978
vn 0.9337 -0.1815 0.3088
vn 0.0040 -0.9980 0.0636
vn 0.9440 -0.1977 0.2642
vn 0.9074 -0.2625 0.3281
vn 0.9258 -0.2514 0.2822
vn 0.1842 -0.1279 -0.9745
vn 0.0940 -0.1296 -0.9871
vn 0.1113 -0.1161 -0.9870
vn 0.0072 -0.9985 0.0542
vn 0.1174 -0.1045 -0.9876
vn 0.9041 -0.2966 0.3076
vn 0.0054 -0.9986 0.0524
vn -0.9194 0.2940 -0.2613
vn -0.9363 0.2526 -0.2439
vn -0.9061 0.2901 -0.3078
vn -0.9459 0.1603 -0.2820
vn -0.9288 0.2537 -0.2702
vn -0.8698 0.3598 -0.3378
vn -0.9177 0.2380 -0.3180
vn -0.8574 0.4111 -0.3096
vn -0.8820 0.3801 -0.2785
vn -0.8599 0.3834 -0.3371
vn -0.8152 0.4629 -0.3482
vn -0.7919 0.4933 -0.3600
vn -0.8080 0.5020 -0.3086
vn -0.7443 0.5623 -0.3603
vn -0.7944 0.5125 -0.3260
vn -0.7672 0.5630 -0.3075
vn -0.7170 0.5919 -0.3681
vn -0.7379 0.5477 -0.3944
vn -0.7135 0.5875 -0.3817
vn -0.6398 0.6597 -0.3942
vn -0.6888 0.6285 -0.3611
vn -0.6964 0.5766 -0.4274
vn -0.6251 0.6595 -0.4176
vn -0.7006 0.5697 -0.4295
vn -0.7571 0.4873 -0.4352
vn -0.7103 0.5793 -0.3999
vn -0.7569 0.5179 -0.3986
vn -0.7735 0.4559 -0.4403
vn -0.8293 0.3446 -0.4399
vn -0.8052 0.4529 -0.3829
vn -0.7775 0.4964 -0.3861
vn -0.8287 0.3958 -0.3956
vn -0.8395 0.3275 -0.4336
vn -0.8871 0.2812 -0.3661
vn -0.8655 0.3660 -0.3418
vn -0.8723 0.2953 -0.3897
vn -0.8207 0.4428 -0.3610
vn -0.9318 0.2289 -0.2816
vn -0.9363 0.1499 -0.3177
vn -0.9201 0.1727 -0.3516
vn -0.8737 0.3630 -0.3237
vn -0.8667 0.2880 -0.4072
vn -0.8145 0.4004 -0.4197
vn -0.8692 0.2541 -0.4241
vn -0.8932 0.2515 -0.3727
vn -0.8699 0.2764 -0.4086
vn -0.8480 0.3605 -0.3886
vn -0.8333 0.4024 -0.3790
vn -0.8805 0.2340 -0.4122
vn -0.8010 0.4524 -0.3920
vn -0.7842 0.4855 -0.3864
vn -0.6699 0.6585 -0.3431
vn -0.6446 0.6735 -0.3618
vn -0.5953 0.7052 -0.3850
vn -0.6596 0.6754 -0.3297
vn -0.6427 0.7180 -0.2671
vn -0.6286 0.6979 -0.3432
vn -0.6541 0.6903 -0.3093
vn -0.7043 0.6471 -0.2920
vn 0.1381 -0.1936 -0.9713
vn -0.0444 -0.2266 -0.9730
vn 0.1128 -0.1841 -0.9764
vn 0.0702 -0.1631 -0.9841
vn -0.5969 0.7555 -0.2699
vn -0.6015 0.7499 -0.2755
vn -0.5471 0.7863 -0.2872
vn -0.5753 0.7773 -0.2547
vn 0.0290 -0.1066 -0.9939
vn -0.0930 -0.1408 -0.9857
vn -0.5359 0.7993 -0.2719
vn -0.5126 0.7950 -0.3244
vn -0.5408 0.7669 -0.3455
vn -0.5003 0.8020 -0.3263
vn -0.5449 0.7767 -0.3161
vn -0.5882 0.7224 -0.3636
vn -0.5394 0.7678 -0.3458
vn -0.6092 0.7233 -0.3252
vn -0.5316 0.7517 -0.3904
vn -0.4975 0.7821 -0.3753
vn -0.4826 0.8311 -0.2764
vn -0.4612 0.8368 -0.2950
vn -0.4946 0.8163 -0.2983
vn -0.5275 0.8155 -0.2379
vn 0.5525 -0.8205 0.1467
vn 0.6545 -0.7218 0.2249
vn 0.2970 -0.9249 0.2374
vn 0.6404 -0.6943 0.3285
vn 0.6472 -0.7279 0.2266
vn 0.4950 -0.7944 0.3519
vn 0.6934 -0.6370 0.3368
vn 0.6076 -0.7081 0.3596
vn 0.6904 -0.6424 0.3327
vn 0.6968 -0.6407 0.3224
vn 0.8153 -0.4957 0.2993
vn 0.7657 -0.5325 0.3607
vn 0.7410 -0.5702 0.3548
vn 0.6944 -0.6204 0.3647
vn 0.6670 -0.6380 0.3847
vn 0.1554 -0.1624 -0.9744
vn 0.8354 -0.4482 0.3181
vn 0.1846 -0.1650 -0.9689
vn 0.8380 -0.4312 0.3344
vn 0.8810 -0.3359 0.3333
vn 0.6219 -0.6828 0.3835
vn 0.0915 -0.1493 -0.9845
vn -0.6116 0.6823 -0.4005
vn -0.8904 0.2896 -0.3511
vn 0.9039 -0.2792 0.3240
vn 0.0001 -0.9979 0.0654
vn -0.0125 -0.9947 0.1025
vn -0.0913 0.0691 0.9934
vn -0.1448 0.0604 0.9876
vn -0.3249 0.0647 0.9435
vn -0.3431 0.0607 0.9373
vn -0.5120 0.0554 0.8572
vn -0.5188 0.0569 0.8530
vn -0.0159 -0.9956 0.0919
vn -0.6776 0.0524 0.7336
vn -0.0187 -0.9961 0.0858
vn -0.7102 0.0425 0.7027
vn -0.8100 0.0402 0.5851
vn -0.8074 0.0396 0.5887
vn -0.0215 -0.9965 0.0813
vn -0.9032 0.0291 0.4283
vn -0.0250 -0.9967 0.0773
vn -0.9070 0.0267 0.4204
vn -0.9719 0.0115 0.2351
vn -0.9869 0.0188 0.1603
vn -0.0327 -0.9970 0.0709
vn -0.9989 -0.0032 0.0477
vn -0.9944 -0.0003 -0.1055
vn -0.0413 -0.9970 0.0655
vn -0.0345 -0.9975 0.0620
vn -0.0278 -0.9979 0.0581
vn -0.9752 -0.0215 -0.2202
vn -0.9646 -0.0170 -0.2631
vn -0.0229 -0.9982 0.0547
vn -0.9013 -0.0243 -0.4325
vn -0.0190 -0.9985 0.0513
vn -0.8786 -0.0352 -0.4762
vn -0.8012 -0.0364 -0.5973
vn -0.0148 -0.9988 0.0463
vn -0.7881 -0.0412 -0.6142
vn -0.6488 -0.0542 -0.7590
vn -0.6050 -0.0444 -0.7950
vn -0.0103 -0.9992 0.0381
vn -0.4348 -0.0653 -0.8982
vn -0.3481 -0.0533 -0.9359
vn -0.0039 -0.9998 0.0219
vn -0.2497 -0.0683 -0.9659
vn -0.0937 -0.0609 -0.9937
vn 0.0032 -1.0000 0.0008
vn 0.0631 -0.0655 -0.9959
vn -0.0632 -0.0655 -0.9959
vn 0.0936 -0.0697 -0.9932
vn 0.2702 -0.0572 -0.9611
vn 0.0001 -0.9977 0.0676
vn -0.0071 -0.9994 0.0333
vn 0.3470 -0.0706 -0.9352
vn 0.5048 -0.0497 -0.8618
vn -0.0003 -0.9978 0.0659
vn 0.6055 -0.0607 -0.7936
vn 0.6727 -0.0434 -0.7386
vn 0.0003 -0.9977 0.0678
vn 0.8080 -0.0377 -0.5879
vn 0.7951 -0.0427 -0.6050
vn 0.8991 -0.0278 -0.4369
vn 0.9084 -0.0303 -0.4170
vn 0.9690 -0.0111 -0.2469
vn 0.9818 -0.0165 -0.1892
vn 0.9987 -0.0010 -0.0512
vn 1.0000 -0.0047 -0.0034
vn 0.9879 0.0149 0.1545
vn 0.9715 0.0099 0.2367
vn 0.9441 0.0258 0.3287
vn 0.8985 0.0243 0.4382
vn 0.8625 0.0377 0.5046
vn 0.7969 0.0354 0.6030
vn 0.7348 0.0502 0.6764
vn 0.6760 0.0436 0.7356
vn 0.5510 0.0592 0.8324
vn 0.4988 0.0525 0.8651
vn 0.4131 0.0635 0.9085
vn 0.2696 0.0577 0.9612
vn -0.0000 -0.9978 0.0657
vn 0.2345 0.0650 0.9699
vn 0.0685 0.0667 0.9954
vn 0.0424 0.0631 0.9971
vn -0.9308 -0.1979 -0.3072
vn -0.8873 0.3086 -0.3428
vn -0.6525 0.7529 0.0858
vn -0.0054 0.0672 0.9977
vn -0.5568 0.8026 -0.2140
vn -0.6429 0.7612 -0.0857
vn -0.6634 0.6690 -0.3351
vn 0.3005 -0.0390 0.9530
vn -0.5816 0.7409 -0.3359
vn -0.6756 0.6598 -0.3290
vn -0.0024 0.0768 0.9970
vn -0.0004 0.0656 0.9978
vn -0.0009 0.9978 -0.0656
vn 0.9187 0.3941 -0.0259
vn -0.0004 0.3189 0.9478
vn -0.0004 0.3188 0.9478
vn -0.9187 0.3941 -0.0259
vn -0.0000 0.1920 -0.9814
vn -1.0000 -0.0000 -0.0000
vn -0.0001 0.9978 -0.0656
vn 0.0002 -0.9978 0.0656
vn 0.0005 -0.9980 0.0635
vn 0.0005 -0.9979 0.0652
vn -0.4838 -0.0574 -0.8733
vn -0.4837 -0.0574 -0.8733
vn -0.4898 0.0572 0.8700
s 0
usemtl Material.027
f 2//1 4//1 1//1
f 1//2 3//2 2//2
f 5//3 3//3 1//3
f 1//4 4//4 5//4
f 5//5 4//5 6//5
f 3//6 5//6 6//6
f 10//7 6//7 7//7
f 7//8 6//8 8//8
f 9//9 8//9 6//9
f 6//10 13//10 9//10
f 6//11 4//11 12//11
f 11//12 6//12 10//12
f 3//13 6//13 11//13
f 12//11 15//11 6//11
f 6//14 14//14 13//14
f 15//12 14//12 6//12
f 16//15 15//15 12//15
f 16//12 14//12 15//12
f 19//12 14//12 16//12
f 12//15 18//15 16//15
f 19//12 16//12 17//12
f 18//16 17//16 16//16
f 21//12 19//12 20//12
f 20//10 19//10 25//10
f 21//12 14//12 19//12
f 23//17 22//17 19//17
f 25//10 19//10 22//10
f 19//17 27//17 23//17
f 19//18 24//18 27//18
f 24//18 19//18 26//18
f 17//12 26//12 19//12
f 27//19 29//19 28//19
f 27//19 28//19 30//19
f 27//19 4//19 29//19
f 4//19 27//19 18//19
f 27//19 32//19 23//19
f 27//19 30//19 32//19
f 31//19 18//19 27//19
f 27//19 24//19 31//19
f 23//20 32//20 25//20
f 32//19 30//19 33//19
f 33//19 35//19 32//19
f 32//21 34//21 25//21
f 34//21 32//21 35//21
f 37//19 35//19 36//19
f 36//19 35//19 33//19
f 38//22 35//22 37//22
f 35//22 38//22 34//22
f 39//12 34//12 38//12
f 37//18 39//18 38//18
f 40//12 34//12 39//12
f 39//18 37//18 36//18
f 36//23 40//23 39//23
f 40//12 41//12 25//12
f 25//12 34//12 40//12
f 40//24 36//24 33//24
f 33//25 41//25 40//25
f 14//10 25//10 41//10
f 14//10 41//10 42//10
f 41//25 33//25 30//25
f 42//18 41//18 30//18
f 42//26 43//26 14//26
f 43//26 42//26 47//26
f 42//12 44//12 45//12
f 46//21 44//21 42//21
f 30//18 46//18 42//18
f 45//12 48//12 42//12
f 47//18 42//18 48//18
f 48//25 51//25 49//25
f 50//27 48//27 49//27
f 50//28 47//28 48//28
f 51//25 48//25 45//25
f 51//19 53//19 46//19
f 46//19 49//19 51//19
f 45//23 52//23 51//23
f 52//19 53//19 51//19
f 44//21 46//21 53//21
f 55//19 53//19 52//19
f 54//22 53//22 55//22
f 53//22 54//22 44//22
f 56//18 55//18 52//18
f 55//18 56//18 54//18
f 52//23 45//23 56//23
f 56//12 45//12 44//12
f 54//12 56//12 44//12
f 62//29 57//29 50//29
f 57//19 59//19 50//19
f 50//30 58//30 61//30
f 59//19 58//19 50//19
f 50//31 61//31 60//31
f 50//32 60//32 47//32
f 62//33 50//33 49//33
f 63//34 65//34 62//34
f 64//35 63//35 62//35
f 62//36 49//36 64//36
f 67//37 62//37 65//37
f 66//38 57//38 62//38
f 66//39 62//39 61//39
f 67//40 61//40 62//40
f 67//41 65//41 69//41
f 68//42 61//42 67//42
f 67//43 69//43 68//43
f 70//44 71//44 69//44
f 70//45 69//45 65//45
f 71//46 68//46 69//46
f 72//47 73//47 71//47
f 70//48 72//48 71//48
f 71//49 73//49 74//49
f 68//50 71//50 74//50
f 74//51 73//51 75//51
f 74//52 75//52 76//52
f 76//53 78//53 74//53
f 68//54 74//54 77//54
f 78//55 77//55 74//55
f 78//56 76//56 79//56
f 79//57 80//57 78//57
f 77//58 78//58 80//58
f 80//59 82//59 77//59
f 79//60 83//60 80//60
f 80//61 83//61 81//61
f 82//62 80//62 81//62
f 79//63 85//63 83//63
f 84//64 83//64 85//64
f 84//65 86//65 83//65
f 87//66 83//66 86//66
f 81//67 83//67 87//67
f 88//68 87//68 86//68
f 81//69 87//69 88//69
f 90//70 88//70 89//70
f 89//71 88//71 86//71
f 81//72 88//72 90//72
f 90//73 89//73 93//73
f 90//74 91//74 81//74
f 91//75 90//75 92//75
f 93//76 92//76 90//76
f 93//77 84//77 94//77
f 93//78 94//78 95//78
f 86//79 84//79 93//79
f 92//80 93//80 95//80
f 86//81 93//81 89//81
f 94//82 96//82 95//82
f 96//83 97//83 95//83
f 98//84 92//84 95//84
f 95//85 97//85 98//85
f 97//86 100//86 98//86
f 99//87 92//87 98//87
f 98//88 100//88 99//88
f 103//89 101//89 100//89
f 101//90 104//90 100//90
f 100//91 102//91 103//91
f 102//92 100//92 97//92
f 99//93 100//93 104//93
f 111//94 105//94 104//94
f 104//95 105//95 99//95
f 115//96 104//96 106//96
f 106//97 104//97 119//97
f 107//98 104//98 108//98
f 110//99 104//99 107//99
f 108//100 104//100 112//100
f 110//101 109//101 104//101
f 109//102 111//102 104//102
f 113//103 112//103 104//103
f 116//104 43//104 104//104
f 43//105 114//105 104//105
f 114//106 113//106 104//106
f 117//107 104//107 115//107
f 116//108 104//108 117//108
f 119//109 104//109 118//109
f 101//110 118//110 104//110
f 121//111 119//111 118//111
f 120//112 106//112 119//112
f 121//113 120//113 119//113
f 122//114 125//114 121//114
f 123//115 122//115 121//115
f 124//116 123//116 121//116
f 101//117 121//117 118//117
f 126//118 124//118 121//118
f 120//119 121//119 125//119
f 126//120 121//120 101//120
f 126//121 127//121 124//121
f 101//122 127//122 126//122
f 128//123 127//123 103//123
f 103//124 127//124 101//124
f 128//125 124//125 127//125
f 130//126 128//126 129//126
f 103//127 129//127 128//127
f 130//128 124//128 128//128
f 130//129 123//129 124//129
f 131//130 130//130 129//130
f 130//131 131//131 132//131
f 130//132 132//132 133//132
f 133//133 123//133 130//133
f 132//134 135//134 133//134
f 133//135 122//135 123//135
f 133//136 134//136 122//136
f 135//137 134//137 133//137
f 132//138 136//138 135//138
f 135//139 136//139 137//139
f 135//140 137//140 70//140
f 134//141 135//141 70//141
f 72//142 137//142 138//142
f 72//143 70//143 137//143
f 137//144 136//144 138//144
f 138//145 136//145 139//145
f 138//146 73//146 72//146
f 138//147 139//147 73//147
f 139//148 136//148 140//148
f 140//149 142//149 139//149
f 143//150 75//150 139//150
f 75//151 73//151 139//151
f 141//152 143//152 139//152
f 139//153 142//153 141//153
f 143//154 96//154 144//154
f 144//155 76//155 143//155
f 141//156 96//156 143//156
f 143//157 76//157 75//157
f 84//158 85//158 144//158
f 94//159 84//159 144//159
f 94//160 144//160 96//160
f 144//161 85//161 76//161
f 142//162 145//162 97//162
f 145//163 142//163 140//163
f 141//164 142//164 97//164
f 102//165 145//165 129//165
f 97//166 145//166 102//166
f 131//167 129//167 145//167
f 145//168 140//168 131//168
f 141//169 97//169 96//169
f 131//170 140//170 132//170
f 132//171 140//171 136//171
f 148//172 122//172 134//172
f 147//173 134//173 146//173
f 134//174 70//174 146//174
f 147//175 148//175 134//175
f 148//176 149//176 151//176
f 147//177 149//177 148//177
f 151//178 150//178 148//178
f 150//179 122//179 148//179
f 152//180 153//180 151//180
f 151//181 154//181 152//181
f 153//182 150//182 151//182
f 151//183 155//183 154//183
f 155//184 151//184 149//184
f 157//185 155//185 149//185
f 156//186 155//186 157//186
f 156//187 3//187 155//187
f 155//188 3//188 11//188
f 155//189 11//189 154//189
f 157//190 158//190 156//190
f 63//191 158//191 157//191
f 157//192 160//192 159//192
f 63//193 157//193 159//193
f 157//194 149//194 160//194
f 147//195 146//195 160//195
f 159//196 160//196 146//196
f 147//197 160//197 149//197
f 159//198 146//198 65//198
f 159//199 65//199 63//199
f 2//200 156//200 158//200
f 158//201 63//201 64//201
f 2//202 158//202 64//202
f 3//203 156//203 2//203
f 161//204 154//204 10//204
f 154//205 161//205 152//205
f 10//206 154//206 11//206
f 161//207 7//207 162//207
f 152//208 161//208 162//208
f 10//209 7//209 161//209
f 163//210 164//210 162//210
f 7//211 163//211 162//211
f 162//212 164//212 153//212
f 152//213 162//213 153//213
f 164//214 165//214 153//214
f 164//215 117//215 165//215
f 117//216 164//216 116//216
f 8//217 116//217 164//217
f 163//218 8//218 164//218
f 150//219 153//219 165//219
f 165//220 120//220 125//220
f 150//221 165//221 125//221
f 117//222 115//222 165//222
f 165//223 115//223 120//223
f 8//224 163//224 7//224
f 122//225 150//225 125//225
f 65//226 146//226 70//226
f 129//227 103//227 102//227
f 106//228 120//228 115//228
f 8//229 14//229 116//229
f 43//16 116//16 14//16
f 168//230 114//230 43//230
f 167//231 113//231 114//231
f 114//232 166//232 167//232
f 168//233 166//233 114//233
f 166//234 168//234 169//234
f 168//235 170//235 169//235
f 170//236 168//236 171//236
f 171//237 168//237 43//237
f 170//238 171//238 172//238
f 43//239 172//239 171//239
f 172//240 173//240 170//240
f 172//241 174//241 173//241
f 174//242 172//242 175//242
f 43//243 175//243 172//243
f 176//244 174//244 175//244
f 43//245 176//245 175//245
f 174//246 176//246 177//246
f 177//247 176//247 178//247
f 179//248 178//248 176//248
f 43//249 179//249 176//249
f 179//250 180//250 178//250
f 181//251 180//251 179//251
f 179//252 43//252 47//252
f 181//253 179//253 47//253
f 183//254 181//254 47//254
f 181//255 182//255 180//255
f 182//256 181//256 183//256
f 47//257 184//257 183//257
f 182//258 183//258 184//258
f 184//259 47//259 186//259
f 184//260 185//260 182//260
f 186//261 185//261 184//261
f 47//262 189//262 186//262
f 185//263 186//263 188//263
f 188//264 186//264 187//264
f 189//265 187//265 186//265
f 47//266 191//266 189//266
f 187//267 189//267 190//267
f 191//268 190//268 189//268
f 47//269 193//269 191//269
f 191//270 192//270 190//270
f 193//271 192//271 191//271
f 47//272 195//272 193//272
f 195//273 194//273 193//273
f 192//274 193//274 194//274
f 194//275 195//275 196//275
f 196//276 195//276 197//276
f 197//277 195//277 81//277
f 195//278 47//278 81//278
f 197//279 198//279 196//279
f 198//280 197//280 199//280
f 199//281 197//281 81//281
f 198//282 199//282 200//282
f 200//283 199//283 201//283
f 91//284 199//284 81//284
f 199//12 91//12 201//12
f 202//12 201//12 91//12
f 203//285 201//285 202//285
f 201//286 203//286 200//286
f 204//287 203//287 202//287
f 203//288 204//288 205//288
f 200//12 203//12 185//12
f 203//12 182//12 185//12
f 203//12 205//12 182//12
f 206//289 205//289 204//289
f 206//290 207//290 205//290
f 205//12 180//12 182//12
f 205//12 207//12 180//12
f 208//291 207//291 206//291
f 207//292 208//292 209//292
f 207//12 209//12 180//12
f 209//293 208//293 105//293
f 105//294 210//294 209//294
f 209//12 178//12 180//12
f 209//12 177//12 178//12
f 209//12 210//12 177//12
f 111//295 210//295 105//295
f 210//296 111//296 211//296
f 210//12 211//12 174//12
f 210//12 174//12 177//12
f 109//297 211//297 111//297
f 211//298 109//298 212//298
f 211//12 173//12 174//12
f 211//12 212//12 173//12
f 110//299 212//299 109//299
f 110//300 213//300 212//300
f 212//12 170//12 173//12
f 212//12 213//12 170//12
f 107//301 213//301 110//301
f 213//302 107//302 214//302
f 213//12 214//12 169//12
f 213//12 169//12 170//12
f 108//303 214//303 107//303
f 108//304 215//304 214//304
f 214//12 166//12 169//12
f 214//305 215//305 166//305
f 215//306 108//306 112//306
f 113//307 215//307 112//307
f 215//308 113//308 167//308
f 215//305 167//305 166//305
f 105//10 208//10 99//10
f 208//12 206//12 99//12
f 204//12 99//12 206//12
f 99//12 204//12 91//12
f 204//12 202//12 91//12
f 198//12 200//12 187//12
f 200//12 185//12 188//12
f 200//12 188//12 187//12
f 198//12 187//12 190//12
f 196//12 198//12 190//12
f 196//10 190//10 192//10
f 194//12 196//12 192//12
f 92//309 99//309 91//309
f 76//310 85//310 79//310
f 82//311 216//311 77//311
f 216//312 82//312 81//312
f 216//313 61//313 217//313
f 216//314 217//314 77//314
f 61//315 216//315 60//315
f 60//316 216//316 81//316
f 68//317 217//317 61//317
f 77//318 217//318 68//318
f 47//319 60//319 81//319
f 218//320 57//320 66//320
f 218//17 66//17 58//17
f 66//321 61//321 58//321
f 221//322 218//322 219//322
f 58//17 219//17 218//17
f 221//323 220//323 218//323
f 57//320 218//320 220//320
f 219//322 222//322 221//322
f 223//19 221//19 222//19
f 220//324 221//324 223//324
f 220//325 223//325 224//325
f 223//19 222//19 224//19
f 225//326 224//326 222//326
f 224//325 225//325 220//325
f 222//326 219//326 225//326
f 59//16 225//16 219//16
f 57//327 220//327 225//327
f 225//327 59//327 57//327
f 219//16 58//16 59//16
f 64//19 46//19 2//19
f 64//19 49//19 46//19
f 227//19 226//19 46//19
f 2//328 46//328 226//328
f 228//19 227//19 46//19
f 46//19 30//19 228//19
f 28//19 228//19 30//19
f 232//19 228//19 4//19
f 229//19 4//19 228//19
f 227//19 228//19 232//19
f 231//17 229//17 228//17
f 228//17 230//17 231//17
f 230//16 228//16 28//16
f 9//320 232//320 233//320
f 232//320 9//320 13//320
f 233//19 232//19 4//19
f 234//327 227//327 232//327
f 232//327 13//327 234//327
f 13//12 14//12 234//12
f 227//16 234//16 235//16
f 234//12 14//12 235//12
f 9//329 235//329 8//329
f 235//330 14//330 8//330
f 235//16 226//16 227//16
f 226//17 235//17 9//17
f 233//328 4//328 2//328
f 9//17 233//17 226//17
f 2//328 226//328 233//328
f 231//320 29//320 229//320
f 29//320 231//320 21//320
f 231//12 14//12 21//12
f 230//12 14//12 231//12
f 25//10 230//10 20//10
f 230//331 25//331 14//331
f 28//16 20//16 230//16
f 29//19 4//19 229//19
f 31//332 237//332 17//332
f 17//16 18//16 31//16
f 236//19 31//19 24//19
f 237//333 31//333 236//333
f 237//12 238//12 26//12
f 237//12 26//12 17//12
f 236//17 238//17 237//17
f 238//17 236//17 239//17
f 239//334 26//334 238//334
f 236//19 24//19 239//19
f 26//334 239//334 24//334
f 29//327 21//327 20//327
f 20//327 28//327 29//327
f 25//20 22//20 23//20
f 12//19 4//19 18//19
