# Blender 5.0.1
# www.blender.org
mtllib torso_y_link_visual_61.mtl
o i01.torso.full.063_visual.001
v 0.063357 0.005013 -0.091112
v 0.080721 -0.000232 -0.036955
v 0.083338 0.004898 -0.037120
v 0.066810 0.012057 -0.091317
v 0.033963 0.004246 -0.084770
v 0.030975 0.018671 -0.082994
v 0.026162 0.027588 -0.081249
v 0.065826 -0.003890 -0.092344
v 0.032004 -0.008824 -0.085362
v 0.036355 -0.008351 -0.067917
v 0.030981 -0.021512 -0.067954
v 0.027258 -0.019751 -0.085181
v 0.018553 -0.029734 -0.084063
v 0.014179 -0.036490 -0.065283
v 0.007331 -0.036688 -0.082159
v 0.021543 -0.031689 -0.066512
v 0.021401 -0.020520 -0.042754
v 0.015184 -0.025682 -0.041792
v 0.048747 -0.028745 0.076527
v 0.004037 -0.029893 -0.039790
v 0.040128 -0.035549 0.077876
v 0.030556 -0.038905 0.079701
v -0.036038 -0.074641 0.091424
v 0.088177 -0.072913 0.064493
v 0.068718 -0.065947 -0.024806
v 0.080902 -0.017872 0.034472
v 0.079493 -0.019770 0.027854
v 0.082183 -0.005027 0.041203
v 0.082004 -0.011725 0.039953
v 0.081691 0.001734 0.039370
v 0.054825 -0.016674 0.076146
v 0.088542 0.054013 0.074321
v 0.055311 -0.003288 0.077085
v 0.049032 -0.011275 0.047384
v 0.049413 -0.005915 0.048321
v 0.047630 0.002087 0.046523
v 0.050988 0.007014 0.078822
v 0.043302 0.008064 0.038101
v 0.027747 0.010841 -0.041638
v 0.043637 0.014966 0.081055
v 0.023854 0.017797 -0.040263
v 0.016071 0.025281 -0.037940
v 0.023863 0.033166 -0.061957
v 0.029717 0.026567 -0.063750
v 0.018320 0.036191 -0.078869
v 0.035187 0.016414 -0.065728
v 0.037580 0.003400 -0.067267
v 0.029618 0.001487 -0.042799
v 0.029004 -0.005740 -0.043230
v 0.043398 -0.001882 0.021102
v 0.043193 -0.010340 0.021182
v 0.042277 -0.016970 0.025870
v 0.076235 -0.000738 0.014047
v 0.076394 -0.010385 0.014162
v 0.026229 -0.013912 -0.043327
v 0.042417 -0.019915 0.032010
v 0.043998 -0.019998 0.037864
v 0.077778 -0.017999 0.020058
v 0.046756 -0.017037 0.043769
v 0.042401 0.006113 0.027126
v 0.069083 0.060979 -0.014983
v 0.077469 0.006689 0.020215
v 0.078878 0.008588 0.026834
v 0.080315 0.007325 0.033381
v 0.115839 0.021253 -0.028271
v 0.016503 0.110040 0.000300
v 0.107553 0.047175 -0.024444
v 0.046584 0.103612 -0.006756
v -0.055132 0.059250 0.011953
v 0.070293 0.091134 -0.012895
v 0.090639 0.073194 -0.018728
v 0.063027 0.090454 -0.084377
v 0.079085 0.074322 -0.089135
v 0.072846 0.015417 -0.092371
v 0.091439 0.054081 -0.093407
v 0.099572 0.032564 -0.096856
v 0.103009 0.001357 -0.100042
v 0.080033 0.014744 -0.093988
v 0.085843 0.009093 -0.095695
v 0.093376 0.001449 -0.039582
v 0.089793 0.005655 -0.038472
v 0.086373 0.000948 -0.096446
v 0.092347 -0.004631 -0.039828
v 0.081689 -0.006270 -0.095987
v 0.072290 -0.073945 -0.099220
v 0.088593 -0.051566 -0.101027
v 0.002415 -0.076264 -0.084175
v 0.072913 -0.007961 -0.094208
v 0.087229 -0.007096 -0.038909
v 0.098668 -0.026287 -0.101252
v 0.116733 -0.017928 -0.031522
v 0.112561 -0.035715 -0.032001
v 0.104434 -0.055278 -0.031755
v 0.093832 -0.071535 -0.030714
v 0.080427 -0.086290 -0.028944
v 0.051624 -0.091797 -0.096111
v 0.061556 -0.100256 -0.025922
v 0.044210 -0.108455 -0.022781
v 0.030392 -0.102555 -0.092323
v 0.012097 -0.108072 -0.088766
v 0.003493 -0.085231 -0.085106
v 0.006240 -0.092445 -0.027912
v 0.010579 -0.086526 -0.028397
v -0.002721 -0.092566 -0.084327
v -0.014706 -0.110291 -0.083099
v -0.011728 -0.093277 -0.082420
v 0.000613 -0.091611 -0.026629
v -0.017481 -0.088881 -0.080824
v -0.019720 -0.082335 -0.079825
v -0.037359 -0.106522 -0.077868
v -0.002447 -0.086665 -0.025567
v -0.017941 -0.076007 -0.079719
v 0.000142 -0.081221 -0.025715
v -0.013346 -0.071328 -0.080357
v 0.004031 -0.079824 -0.026454
v -0.003986 -0.070457 -0.082324
v 0.007938 -0.081021 -0.027399
v -0.014054 -0.039363 -0.077708
v -0.037005 -0.027943 -0.071815
v -0.003889 -0.039441 -0.079928
v -0.026490 -0.035591 -0.074703
v -0.020326 -0.038132 -0.057890
v -0.034599 -0.028249 -0.054081
v -0.044755 -0.017416 -0.069306
v -0.018968 -0.022766 -0.034182
v -0.025385 -0.013845 -0.032010
v -0.041882 -0.016508 -0.051507
v -0.028341 -0.004073 -0.030602
v -0.044877 -0.006710 -0.050090
v -0.049287 -0.001927 -0.067110
v -0.045158 0.006558 -0.048990
v -0.047238 0.015678 -0.066184
v -0.027772 0.005250 -0.030001
v -0.025560 0.012114 -0.029946
v -0.040090 0.021565 -0.048676
v -0.041064 0.027268 -0.066626
v -0.031740 0.032220 -0.049911
v -0.020335 0.019998 -0.030492
v 0.011700 0.015933 0.088089
v 0.001685 0.005315 0.089437
v -0.013375 0.025446 -0.031535
v -0.008230 0.007660 0.045591
v -0.007330 0.004486 0.055059
v -0.012633 0.002942 0.036259
v -0.044324 0.006355 0.058408
v -0.045814 0.006586 0.051550
v -0.047319 0.002964 0.044374
v -0.048064 -0.005875 0.040374
v -0.014621 -0.007406 0.032930
v -0.055497 -0.067676 0.002126
v -0.047729 -0.012811 0.041471
v -0.011888 -0.016244 0.036080
v -0.046587 -0.019292 0.046323
v -0.009270 -0.019879 0.040832
v -0.044827 -0.021509 0.054297
v -0.007228 -0.020847 0.049654
v -0.043441 -0.019952 0.060790
v -0.007789 -0.016856 0.056518
v -0.042271 -0.014096 0.066566
v -0.008360 -0.011906 0.059899
v -0.042031 -0.005951 0.068192
v -0.035673 0.052284 0.101252
v 0.032857 0.019474 0.083753
v -0.001433 -0.018685 0.088247
v -0.042802 0.001725 0.065129
v -0.002094 -0.005526 0.089418
v 0.023796 0.019901 0.085761
v 0.004060 0.029269 -0.034874
v -0.005573 0.028543 -0.032958
v -0.023397 0.038412 -0.051249
v -0.012527 0.042613 -0.053290
v -0.018688 0.043524 -0.070232
v -0.000989 0.043614 -0.055726
v -0.002838 0.044893 -0.073580
v 0.012695 0.040651 -0.059005
v 0.008248 0.041969 -0.076223
v -0.005643 0.075501 -0.070580
v 0.001364 0.079397 -0.071803
v 0.007267 0.077361 -0.014898
v 0.047013 0.101649 -0.080013
v 0.004233 0.087615 -0.071788
v 0.010370 0.080614 -0.015321
v 0.002899 0.076690 -0.013999
v 0.010046 0.085728 -0.014851
v 0.001782 0.094514 -0.070715
v 0.006821 0.088723 -0.013915
v -0.002998 0.098173 -0.069387
v -0.009777 0.098879 -0.067856
v 0.002008 0.088540 -0.012879
v -0.016052 0.095103 -0.066783
v -0.001498 0.084233 -0.012451
v -0.017984 0.081500 -0.067423
v -0.018947 0.089211 -0.066611
v -0.000672 0.079616 -0.012992
v -0.053022 0.104744 -0.057975
v -0.031645 0.112529 -0.062025
v -0.000785 0.115572 -0.068514
v -0.043398 0.096855 0.012325
v -0.014156 0.107675 0.006792
v -0.068578 0.078265 0.016362
v -0.073493 0.092511 -0.054470
v -0.032808 0.036083 -0.067737
v -0.095524 0.070129 -0.051416
v -0.088400 0.013241 -0.057405
v -0.110760 0.042510 -0.050250
v -0.094831 0.039192 0.019034
v -0.083709 0.059601 0.018205
v -0.101313 0.015990 0.018638
v -0.117394 0.015851 -0.050883
v -0.103411 -0.007134 0.017291
v -0.117849 -0.011818 -0.052942
v -0.099228 -0.034659 0.014233
v -0.113145 -0.033239 -0.055636
v -0.092420 -0.052965 0.011319
v -0.106928 -0.048797 -0.058209
v -0.082903 -0.069571 0.007951
v -0.064943 -0.089640 0.002472
v -0.094574 -0.069038 -0.062476
v -0.072241 -0.090359 -0.069007
v -0.086738 -0.009757 -0.059561
v -0.076231 -0.008450 -0.003397
v -0.080763 -0.008665 -0.002426
v -0.081560 -0.005765 -0.060377
v -0.096073 -0.009447 -0.057497
v -0.084090 -0.005276 -0.001438
v -0.101460 -0.002991 -0.055825
v -0.102076 0.003102 -0.055214
v -0.084123 -0.000444 -0.001052
v -0.099672 0.008787 -0.055295
v -0.080631 0.002887 -0.001554
v -0.094798 0.012466 -0.056070
v -0.075664 0.002705 -0.002644
v -0.072736 -0.001210 -0.003594
v -0.073043 -0.005409 -0.003854
v -0.078784 0.001794 -0.060391
v -0.082069 0.009796 -0.059052
v -0.052370 -0.101278 -0.074190
v -0.042301 -0.104474 -0.003619
v -0.022996 -0.111754 -0.008395
v -0.001788 -0.115572 -0.013312
v 0.025295 -0.113847 -0.019079
v -0.012035 0.076098 -0.069139
v 0.025833 0.110761 -0.074688
v -0.008428 -0.003544 0.060732
v 0.005609 -0.030404 0.085799
v 0.016582 -0.037835 0.082829
v -0.008317 -0.028628 -0.036882
v -0.006904 -0.041052 -0.061041
v 0.004634 -0.040050 -0.063478
v 0.117849 0.002014 -0.030209
v 0.082518 -0.005272 -0.037741
vn 0.8421 -0.4396 -0.3126
vn 0.9187 0.2916 -0.2663
vn 0.8486 -0.4251 -0.3149
vn -0.2124 0.0757 -0.9742
vn -0.2122 0.0759 -0.9743
vn -0.2122 0.0760 -0.9743
vn -0.2122 0.0761 -0.9743
vn -0.9624 0.1335 0.2364
vn -0.9043 0.3686 0.2155
vn -0.8907 0.3908 0.2324
vn -0.7222 0.6547 0.2230
vn -0.2121 0.0758 -0.9743
vn -0.5158 0.8374 0.1811
vn -0.4936 0.8486 0.1903
vn -0.2113 0.0742 -0.9746
vn -0.7050 0.6816 0.1960
vn -0.7205 0.6259 -0.2985
vn -0.6324 0.6996 -0.3327
vn -0.5538 0.7652 -0.3284
vn -0.5903 0.7850 0.1878
vn -0.6090 0.7694 0.1927
vn -0.3267 0.9339 0.1451
vn -0.3857 0.8443 -0.3720
vn -0.3040 0.9425 0.1386
vn 0.2124 -0.0758 0.9742
vn 0.2127 -0.0769 0.9741
vn 0.2123 -0.0760 0.9743
vn 0.9772 0.0136 -0.2119
vn -0.0029 -0.9970 -0.0772
vn 0.9772 0.0136 -0.2118
vn 0.9773 0.0137 -0.2116
vn 0.9772 0.0136 -0.2120
vn 0.2121 -0.0761 0.9743
vn 0.2122 -0.0760 0.9743
vn -0.9796 0.0351 0.1977
vn -0.9793 0.0214 0.2013
vn -0.9628 -0.1668 0.2126
vn -0.9013 -0.4043 0.1554
vn 0.2115 -0.0756 0.9745
vn -0.8919 -0.4240 0.1574
vn -0.8125 -0.5662 0.1388
vn -0.8503 -0.5051 0.1480
vn 0.2128 -0.0768 0.9741
vn -0.7163 -0.6905 0.1007
vn -0.6755 -0.7315 0.0931
vn -0.6914 -0.5894 -0.4178
vn -0.7389 -0.5497 -0.3897
vn -0.8427 -0.4005 -0.3599
vn -0.7269 -0.6767 0.1172
vn -0.7200 -0.6858 0.1063
vn -0.8588 -0.4911 0.1458
vn -0.8507 -0.3896 -0.3529
vn -0.9534 -0.2226 0.2035
vn -0.9616 -0.1992 0.1891
vn -0.8585 -0.4918 0.1452
vn -0.9390 -0.1353 -0.3161
vn -0.9350 -0.1469 -0.3227
vn -0.9568 -0.2155 0.1950
vn -0.9485 0.0985 -0.3010
vn -0.9732 0.0696 0.2194
vn -0.9769 0.0256 0.2120
vn 0.2099 0.0042 0.9777
vn 0.1731 0.5526 0.8153
vn -0.9294 0.2899 0.2284
vn 0.2069 0.0151 0.9783
vn -0.9233 0.3108 0.2256
vn -0.7787 0.5879 0.2191
vn -0.7786 0.5414 -0.3173
vn -0.8320 0.5095 0.2194
vn -0.9018 0.3098 -0.3013
vn -0.8876 0.3632 -0.2833
vn -0.8789 0.4220 0.2225
vn -0.8006 0.5558 0.2241
vn -0.0022 0.9999 0.0148
vn 0.0962 0.8984 0.4286
vn 0.0205 0.9759 0.2171
vn 0.1440 0.6221 0.7696
vn -0.8851 0.4186 0.2034
vn -0.0901 0.9065 -0.4124
vn -0.0793 0.9625 -0.2593
vn -0.9455 0.2273 0.2331
vn -0.8702 0.4448 0.2119
vn -0.1730 0.5716 -0.8021
vn -0.1791 0.6725 -0.7181
vn 0.1909 -0.5754 0.7953
vn 0.1578 -0.6463 0.7466
vn 0.0674 -0.9627 0.2619
vn 0.0681 -0.9832 0.1692
vn -0.0426 -0.9827 -0.1802
vn -0.0863 -0.8329 -0.5467
vn -0.1457 -0.7396 -0.6571
vn 0.2123 -0.0760 0.9742
vn 0.2123 -0.0759 0.9742
vn 0.0029 0.9970 0.0772
vn 0.6899 0.7167 -0.1017
vn 0.6477 0.7584 -0.0731
vn 0.8190 0.5600 -0.1254
vn -0.2123 0.0760 -0.9742
vn 0.8316 0.5373 -0.1405
vn 0.9112 0.3726 -0.1756
vn 0.9316 0.3225 -0.1678
vn 0.9695 0.1281 -0.2088
vn -0.2124 0.0761 -0.9742
vn -0.2122 0.0758 -0.9743
vn -0.9896 -0.0757 0.1225
vn -0.7594 -0.6505 0.0133
vn -0.2125 0.0759 -0.9742
vn -0.6965 -0.7176 0.0050
vn -0.9797 0.1609 0.1192
vn -0.2125 0.0760 -0.9742
vn -0.8263 0.5453 0.1409
vn -0.2124 0.0760 -0.9742
vn -0.1828 0.9826 0.0320
vn -0.4254 0.9034 0.0544
vn 0.9623 -0.1409 -0.2324
vn 0.9032 -0.3620 -0.2305
vn 0.9510 -0.2171 -0.2203
vn 0.8986 -0.3762 -0.2257
vn 0.8118 -0.5431 -0.2147
vn 0.7130 -0.6719 -0.2006
vn 0.7790 -0.5856 -0.2244
vn 0.5670 -0.8044 -0.1772
vn 0.6220 -0.7557 -0.2048
vn 0.3989 -0.9036 -0.1559
vn 0.4218 -0.8912 -0.1671
vn 0.2623 -0.9557 -0.1332
vn -0.2121 0.0762 -0.9743
vn -0.2125 0.0756 -0.9742
vn -0.7969 0.5934 0.1131
vn -0.7515 0.6491 0.1180
vn -0.9841 -0.1307 0.1200
vn -0.2123 0.0761 -0.9742
vn -0.0766 0.9970 0.0100
vn 0.5735 0.8052 -0.1509
vn 0.1332 0.9893 -0.0590
vn 0.9011 0.3477 -0.2591
vn 0.8016 0.5475 -0.2400
vn 0.9161 -0.2523 -0.3118
vn 0.8507 -0.4134 -0.3248
vn -0.2152 0.0759 -0.9736
vn 0.6631 -0.6906 -0.2887
vn 0.2877 -0.9274 -0.2389
vn -0.2125 0.0761 -0.9742
vn 0.0552 -0.9834 -0.1728
vn -0.3159 -0.9421 -0.1126
vn -0.6713 -0.7411 0.0032
vn -0.8969 -0.4393 0.0504
vn -0.2112 0.0753 -0.9745
vn -0.2125 0.0763 -0.9742
vn -0.2118 0.0755 -0.9744
vn -0.2123 0.0760 -0.9743
vn 0.5535 0.8292 -0.0776
vn 0.2978 0.9540 0.0350
vn 0.5755 0.8153 -0.0640
vn 0.8226 0.5455 -0.1606
vn 0.7904 0.6049 -0.0968
vn 0.3901 0.7623 -0.5164
vn 0.5713 0.5575 -0.6023
vn 0.6189 0.5141 -0.5939
vn 0.9359 0.3102 -0.1669
vn 0.7059 0.3056 -0.6390
vn 0.7045 0.3078 -0.6394
vn 0.9410 0.2981 -0.1601
vn 0.9699 0.0405 -0.2400
vn 0.7559 0.0700 -0.6509
vn 0.9791 -0.1048 -0.1740
vn 0.9136 -0.3029 -0.2712
vn 0.7375 -0.0015 -0.6753
vn 0.7111 -0.2240 -0.6665
vn 0.7111 -0.2262 -0.6658
vn 0.8625 -0.4669 -0.1951
vn 0.7513 -0.6162 -0.2365
vn 0.5588 -0.5134 -0.6513
vn 0.5899 -0.4378 -0.6785
vn 0.5882 -0.7871 -0.1859
vn 0.6974 -0.6847 -0.2119
vn 0.8312 -0.5126 -0.2154
vn 0.4082 -0.6452 -0.6458
vn 0.8066 -0.5496 -0.2175
vn 0.8841 -0.4112 -0.2219
vn -0.0760 -0.9476 -0.3104
vn 0.0960 -0.9058 0.4126
vn 0.8947 -0.3842 -0.2279
vn 0.0224 -0.9990 -0.0386
vn 0.0942 -0.8966 0.4327
vn 0.2067 -0.4178 0.8847
vn -0.9772 -0.0136 0.2119
vn -0.9772 -0.0136 0.2118
vn 0.1902 -0.3335 0.9233
vn 0.2215 0.1627 0.9615
vn 0.1747 0.6097 0.7731
vn 0.1730 0.3777 0.9096
vn 0.0530 0.9650 0.2567
vn 0.0968 0.8155 0.5706
vn -0.0448 0.9736 -0.2240
vn -0.0039 0.9939 0.1100
vn -0.1346 0.8518 -0.5063
vn -0.1443 0.7094 -0.6899
vn -0.1960 0.5376 -0.8201
vn -0.2014 0.1974 -0.9594
vn -0.9772 -0.0135 0.2118
vn 0.2123 -0.0762 0.9742
vn 0.2124 -0.0760 0.9742
vn 0.2121 -0.0764 0.9743
vn 0.2128 -0.0758 0.9742
vn -0.0618 -0.9958 -0.0672
vn 0.0577 -0.9946 -0.0867
vn 0.2843 -0.9486 -0.1394
vn -0.0483 -0.8290 -0.5572
vn 0.1954 -0.7708 -0.6063
vn 0.1872 -0.7767 -0.6015
vn 0.3420 -0.9284 -0.1455
vn 0.0696 -0.9945 -0.0788
vn 0.3275 -0.9296 -0.1691
vn -0.0461 -0.8282 -0.5586
vn 0.0693 -0.9945 -0.0784
vn -0.2221 -0.9739 -0.0468
vn -0.2952 -0.8190 -0.4920
vn -0.2567 -0.9664 -0.0077
vn -0.4852 -0.8725 0.0585
vn -0.5507 -0.8341 0.0313
vn -0.3853 -0.7738 -0.5028
vn -0.5795 -0.6998 -0.4177
vn -0.7137 0.6934 0.0989
vn -0.4736 0.8770 0.0805
vn -0.9346 0.3261 0.1420
vn -0.9925 -0.0719 0.0990
vn -0.9348 -0.3452 0.0840
vn -0.6826 -0.7307 -0.0139
vn -0.2121 0.0759 -0.9743
vn -0.6123 -0.7902 -0.0262
vn -0.1345 -0.9805 -0.1432
vn -0.0024 -0.9829 -0.1843
vn 0.4651 -0.8466 -0.2589
vn 0.7200 -0.6176 -0.3164
vn 0.9452 0.1486 -0.2909
vn 0.9354 0.2014 -0.2906
vn 0.8489 -0.4262 -0.3127
vn 0.5976 0.7851 -0.1629
vn -0.3135 0.9379 0.1482
vn -0.0789 0.9928 0.0901
vn -0.3186 0.9364 0.1470
vn -0.0567 0.9939 0.0942
vn 0.2121 -0.0757 0.9743
vn 0.2124 -0.0759 0.9742
vn -0.5609 0.8032 0.2005
vn 0.2122 -0.0758 0.9743
vn -0.4854 0.8590 0.1628
vn -0.6869 0.7018 0.1888
vn -0.8505 0.4784 0.2185
vn -0.8535 0.4739 0.2165
vn -0.7467 0.6272 0.2216
vn -0.9387 0.2584 0.2282
vn 0.2121 -0.0759 0.9743
vn -0.9481 0.2307 0.2188
vn -0.9716 0.0751 0.2246
vn -0.9630 -0.1696 0.2093
vn -0.9795 0.0012 0.2013
vn -0.9546 -0.2330 0.1854
vn -0.9135 -0.3675 0.1745
vn 0.2123 -0.0761 0.9742
vn -0.9060 -0.3894 0.1657
vn -0.8453 -0.5140 0.1456
vn -0.8331 -0.5367 0.1340
vn -0.7245 -0.6797 0.1149
vn -0.6767 -0.7323 0.0765
vn -0.0503 0.9986 -0.0138
vn -0.5987 0.7955 0.0935
vn -0.2125 0.0762 -0.9742
vn -0.2128 0.0765 -0.9741
vn 0.0283 0.9994 -0.0221
vn 0.6704 0.7155 -0.1965
vn -0.2121 0.0760 -0.9743
vn -0.2120 0.0754 -0.9744
vn 0.7251 0.6578 -0.2039
vn -0.2124 0.0763 -0.9742
vn 0.9466 0.1255 -0.2970
vn -0.2123 0.0759 -0.9743
vn 0.9494 0.0314 -0.3126
vn 0.8729 -0.3735 -0.3138
vn 0.6347 -0.7109 -0.3029
vn 0.5492 -0.7870 -0.2810
vn -0.2124 0.0759 -0.9742
vn 0.0784 -0.9782 -0.1923
vn -0.0737 -0.9824 -0.1719
vn -0.2109 0.0789 -0.9743
vn -0.2119 0.0760 -0.9743
vn -0.2129 0.0764 -0.9741
vn -0.2125 0.0757 -0.9742
vn -0.6795 0.7271 0.0978
vn -0.9296 0.3418 0.1379
vn -0.9919 0.0658 0.1091
vn -0.9177 -0.3897 0.0771
vn -0.7990 -0.6012 0.0152
vn -0.4882 -0.8711 -0.0541
vn -0.2123 0.0759 -0.9742
vn -0.4757 -0.8791 0.0281
vn -0.5350 -0.8425 0.0631
vn -0.3512 -0.9363 0.0077
vn -0.1850 -0.9821 -0.0357
vn 0.2122 -0.0761 0.9743
vn -0.3304 -0.9438 -0.0028
vn 0.0456 -0.9954 -0.0838
vn -0.1735 -0.9839 -0.0423
vn 0.2489 -0.9602 -0.1267
vn 0.0623 -0.9936 -0.0941
vn 0.4445 -0.8865 -0.1285
vn 0.5614 -0.8012 -0.2073
vn 0.7045 -0.6837 -0.1904
vn 0.0854 0.9958 -0.0338
vn 0.6324 0.7536 -0.1794
vn 0.1850 0.9822 0.0325
vn 0.3903 0.9204 -0.0224
vn 0.2170 0.9755 0.0364
vn -0.1514 0.9885 0.0021
vn 0.4614 0.8870 -0.0211
vn 0.5599 0.8261 -0.0648
vn 0.3914 -0.6648 -0.6363
vn -0.3156 -0.9489 -0.0018
vn 0.9312 -0.2865 -0.2254
vn 0.9184 -0.3197 -0.2331
vn 0.9752 0.0677 -0.2106
vn 0.9726 0.0308 -0.2303
vn -0.2222 0.0948 -0.9704
vn -0.1883 -0.5494 -0.8141
vn -0.1745 -0.3800 -0.9084
vn -0.0918 -0.8297 -0.5506
vn 0.8322 0.5324 -0.1548
vn 0.9033 0.3988 -0.1580
vn 0.9563 0.2320 -0.1782
vn 0.5487 0.8339 -0.0593
vn 0.7976 0.5900 -0.1258
vn 0.7763 0.6204 -0.1117
vn 0.1140 0.9921 0.0526
vn 0.4758 0.8790 -0.0314
vn 0.0885 0.9945 0.0554
vn 0.2122 -0.0759 0.9743
vn 0.3014 0.7922 -0.5307
vn -0.0168 0.8888 -0.4580
vn 0.0872 0.8880 -0.4516
vn 0.2141 0.9768 0.0071
vn 0.0270 0.9956 0.0893
vn -0.0708 0.9948 0.0736
vn -0.1615 0.9055 -0.3924
vn -0.3266 0.9373 0.1215
vn -0.2087 0.9673 0.1440
vn -0.3853 0.8445 -0.3719
vn -0.3839 -0.9233 0.0089
vn 0.8886 0.4296 -0.1610
vn 0.7907 0.5993 -0.1253
vn 0.9546 0.2260 -0.1943
vn 0.9352 0.3080 -0.1745
vn 0.9759 -0.0458 -0.2132
vn 0.9677 -0.1135 -0.2251
vn -0.9772 -0.0135 0.2119
vn 0.9284 -0.2975 -0.2225
vn -0.2121 0.0761 -0.9743
vn -0.2111 0.0749 -0.9746
vn 0.9774 -0.0410 -0.2073
vn 0.9706 0.1223 -0.2074
vn 0.3371 0.9359 -0.1019
vn -0.2119 0.0766 -0.9743
vn -0.2119 0.0753 -0.9744
vn -0.2115 0.0765 -0.9744
vn -0.2131 0.0766 -0.9740
vn -0.2124 0.0762 -0.9742
vn 0.8946 0.3602 -0.2644
vn 0.4701 0.8742 -0.1216
vn 0.0727 -0.9771 -0.1998
vn -0.1234 -0.9826 -0.1392
vn 0.4378 -0.8643 -0.2477
vn -0.9486 -0.2573 0.1844
vn -0.8725 -0.4636 0.1541
vn -0.9486 0.1152 -0.2947
vn -0.9744 0.0902 0.2057
vn -0.1985 -0.2567 -0.9459
vn -0.2006 -0.2700 -0.9417
vn -0.2138 0.1829 -0.9596
vn -0.2134 0.1848 -0.9593
s 0
usemtl Material.030
f 3//1 2//1 1//1
f 8//2 1//2 2//2
f 1//3 4//3 3//3
f 7//4 4//4 1//4
f 5//5 1//5 9//5
f 1//6 5//6 6//6
f 7//7 1//7 6//7
f 1//6 8//6 9//6
f 5//8 9//8 10//8
f 11//9 10//9 9//9
f 9//10 12//10 11//10
f 8//6 12//6 9//6
f 12//11 13//11 11//11
f 8//12 13//12 12//12
f 14//13 16//13 13//13
f 13//14 15//14 14//14
f 8//15 15//15 13//15
f 16//16 11//16 13//16
f 11//17 16//17 17//17
f 18//18 17//18 16//18
f 16//19 14//19 18//19
f 18//20 21//20 19//20
f 18//21 19//21 17//21
f 21//22 18//22 20//22
f 20//23 18//23 14//23
f 20//24 22//24 21//24
f 19//25 21//25 24//25
f 23//26 21//26 22//26
f 24//27 21//27 23//27
f 25//28 27//28 24//28
f 25//29 24//29 23//29
f 26//30 29//30 24//30
f 26//28 24//28 27//28
f 28//31 30//31 24//31
f 29//32 28//32 24//32
f 31//33 19//33 24//33
f 24//28 30//28 32//28
f 31//34 24//34 33//34
f 32//34 33//34 24//34
f 33//35 35//35 34//35
f 34//36 31//36 33//36
f 33//37 36//37 35//37
f 36//38 33//38 37//38
f 32//39 37//39 33//39
f 38//40 36//40 37//40
f 38//41 37//41 39//41
f 37//42 41//42 39//42
f 32//43 40//43 37//43
f 41//44 37//44 40//44
f 40//45 42//45 41//45
f 41//46 42//46 43//46
f 43//47 44//47 41//47
f 39//48 41//48 44//48
f 44//49 43//49 45//49
f 45//50 7//50 44//50
f 46//51 44//51 7//51
f 44//52 46//52 39//52
f 6//53 5//53 46//53
f 47//54 46//54 5//54
f 7//55 6//55 46//55
f 46//56 47//56 48//56
f 48//57 39//57 46//57
f 50//58 39//58 48//58
f 49//59 48//59 47//59
f 51//60 48//60 49//60
f 48//61 51//61 50//61
f 53//62 50//62 51//62
f 54//63 51//63 52//63
f 55//64 52//64 51//64
f 51//65 54//65 53//65
f 51//66 49//66 55//66
f 19//67 55//67 17//67
f 17//68 55//68 11//68
f 19//69 56//69 55//69
f 55//70 49//70 10//70
f 10//71 11//71 55//71
f 55//72 56//72 52//72
f 56//73 19//73 57//73
f 27//74 56//74 57//74
f 58//75 52//75 56//75
f 56//76 27//76 58//76
f 25//28 54//28 58//28
f 25//28 58//28 27//28
f 52//77 58//77 54//77
f 57//78 19//78 59//78
f 26//79 57//79 59//79
f 57//80 26//80 27//80
f 31//81 34//81 59//81
f 59//82 19//82 31//82
f 29//83 59//83 34//83
f 59//84 29//84 26//84
f 54//30 25//30 53//30
f 53//85 60//85 50//85
f 60//86 53//86 62//86
f 61//28 53//28 25//28
f 53//30 61//30 62//30
f 60//87 62//87 63//87
f 62//28 61//28 63//28
f 63//88 38//88 60//88
f 38//89 63//89 64//89
f 61//28 32//28 63//28
f 63//28 32//28 64//28
f 64//90 36//90 38//90
f 36//91 64//91 30//91
f 30//28 64//28 32//28
f 61//92 25//92 65//92
f 61//92 65//92 67//92
f 68//92 66//92 61//92
f 61//93 66//93 69//93
f 61//92 67//92 71//92
f 70//27 68//27 61//27
f 32//94 61//94 69//94
f 70//92 61//92 71//92
f 73//95 72//95 71//95
f 70//96 71//96 72//96
f 71//97 67//97 73//97
f 75//98 74//98 73//98
f 74//98 7//98 73//98
f 75//99 73//99 67//99
f 72//98 73//98 7//98
f 76//6 74//6 75//6
f 76//100 75//100 67//100
f 67//101 65//101 76//101
f 77//102 76//102 65//102
f 77//103 79//103 76//103
f 78//104 74//104 76//104
f 79//98 78//98 76//98
f 79//105 82//105 80//105
f 80//106 81//106 79//106
f 79//107 77//107 82//107
f 78//108 79//108 81//108
f 83//109 80//109 82//109
f 77//110 84//110 82//110
f 82//111 84//111 83//111
f 84//112 86//112 85//112
f 84//98 85//98 87//98
f 84//112 90//112 86//112
f 87//5 88//5 84//5
f 84//113 88//113 89//113
f 89//114 83//114 84//114
f 84//110 77//110 90//110
f 90//115 77//115 91//115
f 86//116 90//116 92//116
f 91//117 92//117 90//117
f 25//92 92//92 91//92
f 93//27 92//27 25//27
f 92//118 93//118 86//118
f 94//92 93//92 25//92
f 93//119 94//119 86//119
f 94//120 95//120 85//120
f 95//92 94//92 25//92
f 85//121 86//121 94//121
f 95//122 97//122 96//122
f 96//123 85//123 95//123
f 97//92 95//92 25//92
f 97//124 98//124 99//124
f 98//92 97//92 25//92
f 99//125 96//125 97//125
f 96//103 99//103 101//103
f 100//103 101//103 99//103
f 100//126 99//126 98//126
f 100//127 104//127 101//127
f 101//128 87//128 96//128
f 102//129 103//129 101//129
f 101//130 104//130 102//130
f 87//131 101//131 103//131
f 104//132 100//132 105//132
f 104//6 105//6 106//6
f 104//133 106//133 102//133
f 108//98 106//98 105//98
f 106//134 108//134 107//134
f 107//135 102//135 106//135
f 109//98 108//98 110//98
f 108//136 109//136 111//136
f 110//98 108//98 105//98
f 111//137 107//137 108//137
f 109//138 112//138 111//138
f 113//139 111//139 112//139
f 111//140 113//140 107//140
f 112//141 114//141 113//141
f 115//142 113//142 114//142
f 113//143 115//143 107//143
f 114//144 116//144 115//144
f 117//145 115//145 116//145
f 115//103 117//103 107//103
f 116//146 87//146 117//146
f 103//147 117//147 87//147
f 117//148 103//148 107//148
f 8//149 87//149 116//149
f 8//150 116//150 114//150
f 8//151 114//151 15//151
f 120//103 15//103 114//103
f 114//112 121//112 118//112
f 114//6 118//6 120//6
f 114//7 119//7 121//7
f 119//107 114//107 112//107
f 123//152 122//152 121//152
f 118//153 121//153 122//153
f 121//154 119//154 123//154
f 127//155 123//155 124//155
f 119//156 124//156 123//156
f 122//157 123//157 125//157
f 126//158 125//158 123//158
f 123//159 127//159 126//159
f 129//160 127//160 124//160
f 128//161 126//161 127//161
f 127//162 129//162 128//162
f 124//163 130//163 129//163
f 131//164 129//164 130//164
f 129//165 131//165 128//165
f 130//166 132//166 131//166
f 135//167 131//167 132//167
f 133//168 128//168 131//168
f 134//169 133//169 131//169
f 131//170 135//170 134//170
f 132//171 136//171 135//171
f 137//172 135//172 136//172
f 135//173 137//173 138//173
f 138//174 134//174 135//174
f 139//175 138//175 141//175
f 138//176 139//176 140//176
f 140//177 142//177 138//177
f 141//178 138//178 137//178
f 142//179 134//179 138//179
f 140//180 143//180 142//180
f 145//181 142//181 143//181
f 147//182 144//182 142//182
f 134//183 142//183 144//183
f 142//184 145//184 146//184
f 142//185 146//185 147//185
f 144//186 147//186 148//186
f 148//187 147//187 69//187
f 69//188 147//188 146//188
f 148//189 149//189 144//189
f 149//190 148//190 151//190
f 69//187 150//187 148//187
f 150//187 151//187 148//187
f 152//191 151//191 153//191
f 151//192 152//192 149//192
f 151//187 150//187 153//187
f 154//193 153//193 155//193
f 153//194 154//194 152//194
f 153//187 150//187 155//187
f 156//195 155//195 157//195
f 155//196 156//196 154//196
f 157//187 155//187 23//187
f 150//187 23//187 155//187
f 157//197 158//197 156//197
f 158//198 157//198 159//198
f 159//188 157//188 23//188
f 159//199 160//199 158//199
f 160//200 159//200 161//200
f 161//201 159//201 162//201
f 162//187 159//187 23//187
f 32//202 162//202 163//202
f 163//203 162//203 167//203
f 139//203 167//203 162//203
f 140//204 139//204 162//204
f 69//94 162//94 32//94
f 162//203 23//203 164//203
f 166//203 162//203 164//203
f 69//187 145//187 162//187
f 165//187 161//187 162//187
f 145//187 165//187 162//187
f 166//205 140//205 162//205
f 168//206 163//206 167//206
f 167//207 169//207 168//207
f 169//208 167//208 139//208
f 168//209 169//209 171//209
f 169//210 141//210 170//210
f 170//211 171//211 169//211
f 139//212 141//212 169//212
f 173//213 171//213 172//213
f 171//214 170//214 172//214
f 171//215 173//215 168//215
f 172//216 174//216 173//216
f 175//217 173//217 174//217
f 173//218 175//218 168//218
f 174//219 176//219 175//219
f 176//220 45//220 175//220
f 43//221 175//221 45//221
f 42//222 168//222 175//222
f 175//223 43//223 42//223
f 177//151 178//151 176//151
f 174//98 177//98 176//98
f 176//98 178//98 45//98
f 179//224 182//224 178//224
f 178//225 177//225 179//225
f 7//98 178//98 180//98
f 178//112 7//112 45//112
f 180//5 178//5 181//5
f 181//226 178//226 182//226
f 184//103 182//103 183//103
f 182//5 179//5 183//5
f 182//227 184//227 181//227
f 185//228 181//228 184//228
f 184//229 186//229 185//229
f 186//230 184//230 183//230
f 189//143 186//143 183//143
f 187//231 185//231 186//231
f 188//232 187//232 186//232
f 186//233 189//233 188//233
f 191//103 189//103 183//103
f 190//234 188//234 189//234
f 189//235 191//235 190//235
f 192//236 193//236 191//236
f 191//237 194//237 192//237
f 193//238 190//238 191//238
f 194//103 191//103 183//103
f 194//239 183//239 192//239
f 192//98 195//98 193//98
f 193//98 195//98 196//98
f 196//112 190//112 193//112
f 196//240 195//240 198//240
f 197//98 188//98 196//98
f 197//241 196//241 199//241
f 196//98 188//98 190//98
f 198//242 199//242 196//242
f 199//243 66//243 197//243
f 69//244 66//244 199//244
f 69//245 199//245 198//245
f 200//246 198//246 201//246
f 69//247 198//247 200//247
f 195//248 201//248 198//248
f 201//151 192//151 202//151
f 195//7 192//7 201//7
f 201//151 202//151 203//151
f 201//249 203//249 200//249
f 203//98 136//98 204//98
f 204//98 205//98 203//98
f 203//250 205//250 206//250
f 203//151 202//151 136//151
f 206//251 207//251 203//251
f 207//252 200//252 203//252
f 207//34 206//34 69//34
f 200//247 207//247 69//247
f 208//253 206//253 205//253
f 69//254 206//254 208//254
f 205//255 209//255 208//255
f 210//256 208//256 209//256
f 69//34 208//34 210//34
f 212//257 210//257 211//257
f 209//258 211//258 210//258
f 150//92 210//92 212//92
f 150//92 69//92 210//92
f 211//259 213//259 212//259
f 214//260 212//260 213//260
f 150//261 212//261 214//261
f 213//262 215//262 214//262
f 216//263 214//263 215//263
f 150//93 214//93 216//93
f 215//264 218//264 216//264
f 217//265 216//265 218//265
f 216//92 217//92 150//92
f 220//98 119//98 218//98
f 218//98 119//98 219//98
f 215//230 220//230 218//230
f 218//266 219//266 217//266
f 119//132 220//132 223//132
f 222//267 221//267 220//267
f 223//268 220//268 221//268
f 213//269 220//269 215//269
f 224//270 220//270 213//270
f 220//271 224//271 222//271
f 225//272 222//272 224//272
f 211//273 224//273 213//273
f 224//274 211//274 226//274
f 224//275 226//275 225//275
f 226//276 211//276 227//276
f 226//277 227//277 225//277
f 209//6 227//6 211//6
f 227//278 209//278 229//278
f 228//279 225//279 227//279
f 227//280 229//280 228//280
f 230//281 228//281 229//281
f 209//278 231//278 229//278
f 229//282 231//282 230//282
f 205//283 204//283 231//283
f 205//151 231//151 209//151
f 231//284 204//284 230//284
f 232//285 230//285 204//285
f 232//286 233//286 230//286
f 222//287 225//287 230//287
f 225//288 228//288 230//288
f 234//7 221//7 230//7
f 221//98 222//98 230//98
f 233//289 234//289 230//289
f 221//290 234//290 223//290
f 235//291 223//291 234//291
f 234//292 233//292 235//292
f 236//293 235//293 233//293
f 235//98 132//98 130//98
f 124//98 235//98 130//98
f 235//132 124//132 223//132
f 136//98 132//98 235//98
f 236//278 136//278 235//278
f 233//294 232//294 236//294
f 204//295 236//295 232//295
f 136//278 236//278 204//278
f 223//296 124//296 119//296
f 109//98 219//98 119//98
f 237//132 219//132 109//132
f 219//297 237//297 238//297
f 238//298 217//298 219//298
f 239//299 238//299 237//299
f 239//245 150//245 238//245
f 238//92 150//92 217//92
f 240//300 239//300 110//300
f 240//301 150//301 239//301
f 237//302 110//302 239//302
f 241//303 240//303 105//303
f 241//27 25//27 240//27
f 110//304 105//304 240//304
f 240//92 25//92 150//92
f 98//305 241//305 100//305
f 241//203 98//203 25//203
f 105//306 100//306 241//306
f 110//5 237//5 109//5
f 202//307 172//307 170//307
f 170//308 137//308 202//308
f 202//98 242//98 172//98
f 202//273 192//273 242//273
f 136//309 202//309 137//309
f 177//310 242//310 183//310
f 242//311 192//311 183//311
f 242//110 177//110 174//110
f 242//132 174//132 172//132
f 243//151 185//151 197//151
f 243//312 197//312 66//312
f 197//283 185//283 187//283
f 197//5 187//5 188//5
f 181//151 243//151 180//151
f 180//313 243//313 68//313
f 66//314 68//314 243//314
f 181//132 185//132 243//132
f 183//315 179//315 177//315
f 180//98 72//98 7//98
f 68//316 70//316 180//316
f 72//317 180//317 70//317
f 137//318 170//318 141//318
f 163//319 168//319 42//319
f 166//320 244//320 143//320
f 143//321 140//321 166//321
f 244//322 166//322 164//322
f 164//323 160//323 244//323
f 161//324 244//324 160//324
f 165//325 143//325 244//325
f 244//326 161//326 165//326
f 143//327 165//327 145//327
f 156//328 164//328 245//328
f 164//329 156//329 158//329
f 164//330 158//330 160//330
f 164//27 23//27 245//27
f 125//331 245//331 246//331
f 245//332 125//332 154//332
f 154//333 156//333 245//333
f 23//92 246//92 245//92
f 246//334 20//334 247//334
f 246//335 247//335 125//335
f 20//336 246//336 22//336
f 23//337 22//337 246//337
f 125//338 247//338 122//338
f 247//339 20//339 248//339
f 248//340 122//340 247//340
f 122//341 248//341 118//341
f 120//342 118//342 248//342
f 248//343 249//343 120//343
f 249//344 248//344 20//344
f 249//345 14//345 15//345
f 15//346 120//346 249//346
f 14//347 249//347 20//347
f 40//254 32//254 163//254
f 42//348 40//348 163//348
f 126//349 152//349 154//349
f 126//350 154//350 125//350
f 128//351 149//351 152//351
f 152//352 126//352 128//352
f 23//29 150//29 25//29
f 149//353 128//353 133//353
f 133//354 144//354 149//354
f 69//355 146//355 145//355
f 144//356 133//356 134//356
f 119//357 112//357 109//357
f 103//358 102//358 107//358
f 96//132 87//132 85//132
f 250//359 91//359 77//359
f 25//92 91//92 250//92
f 65//360 250//360 77//360
f 25//34 250//34 65//34
f 251//361 89//361 88//361
f 83//362 89//362 251//362
f 80//363 83//363 251//363
f 2//364 3//364 251//364
f 3//365 81//365 251//365
f 81//366 80//366 251//366
f 2//367 251//367 8//367
f 88//368 8//368 251//368
f 87//366 8//366 88//366
f 81//369 3//369 74//369
f 74//370 78//370 81//370
f 7//278 74//278 4//278
f 4//371 74//371 3//371
f 39//372 50//372 60//372
f 39//373 60//373 38//373
f 47//374 10//374 49//374
f 10//375 47//375 5//375
f 28//376 35//376 36//376
f 36//377 30//377 28//377
f 29//378 34//378 35//378
f 35//379 28//379 29//379
