# Blender 5.0.1
# www.blender.org
mtllib torso_bottom_link_visual_8.mtl
o i01.torso.midstom.full.009_visual.001
v -0.236648 0.057437 0.088801
v -0.238921 0.057374 0.094156
v -0.232917 0.056544 0.084595
v -0.223651 0.087573 0.083973
v -0.315426 0.092059 0.099875
v -0.226439 0.086961 0.090235
v -0.226376 0.085069 0.097359
v -0.239354 0.056006 0.101464
v -0.306133 0.113036 0.103458
v -0.294538 0.102529 0.127457
v -0.280665 0.088469 0.161723
v -0.303831 0.082063 0.123839
v -0.224300 0.082987 0.102359
v -0.220621 0.080655 0.106042
v -0.236865 0.053483 0.107653
v -0.233252 0.050975 0.111224
v -0.289958 0.068857 0.158050
v -0.277581 0.054822 0.197111
v -0.228857 0.048501 0.112887
v -0.268288 0.073212 0.200864
v -0.214382 0.077790 0.108131
v -0.112820 0.033181 0.132284
v -0.206521 0.075516 0.105701
v -0.104279 0.020612 0.172461
v -0.099308 -0.028134 0.168736
v 0.044580 -0.062088 0.099579
v 0.027976 -0.044592 0.047262
v 0.076907 -0.068745 0.094304
v 0.058920 -0.099984 0.222073
v -0.008401 -0.053679 0.133092
v 0.092912 -0.102701 0.208092
v 0.084545 -0.136424 0.210309
v 0.127442 -0.105104 0.195567
v 0.125685 -0.139351 0.195989
v 0.107544 -0.075507 0.098156
v 0.099382 -0.051308 0.010962
v 0.129869 -0.072881 0.075638
v 0.061248 -0.038351 -0.011826
v 0.162434 -0.107121 0.185509
v 0.192971 -0.141361 0.180357
v 0.197809 -0.107509 0.178131
v 0.156406 -0.140937 0.187732
v 0.185220 -0.093901 0.129086
v 0.187704 -0.095425 0.134077
v 0.191948 -0.097019 0.137820
v 0.197229 -0.097909 0.139589
v 0.192387 -0.106466 0.138677
v 0.188047 -0.106692 0.135240
v 0.185361 -0.107009 0.130417
v 0.176228 -0.119180 0.138450
v 0.182374 -0.118670 0.146216
v 0.191048 -0.118352 0.151051
v 0.187228 -0.133273 0.150443
v 0.179482 -0.130394 0.144083
v 0.174667 -0.127703 0.135231
v 0.125344 -0.108566 0.087141
v 0.141394 -0.101908 0.051646
v 0.080879 -0.089685 0.042826
v 0.173553 -0.125668 0.127289
v 0.174375 -0.123830 0.120340
v 0.178921 -0.122643 0.111292
v 0.184896 -0.121786 0.105747
v 0.179276 -0.120993 0.110732
v 0.181520 -0.105606 0.040592
v 0.174570 -0.120421 0.119428
v 0.173535 -0.119841 0.129066
v 0.186308 -0.107721 0.119486
v 0.184732 -0.107348 0.124836
v 0.185349 -0.092004 0.120751
v 0.184739 -0.092784 0.125127
v 0.188041 -0.091115 0.115822
v 0.193342 -0.090858 0.111819
v 0.152962 -0.067860 0.041880
v 0.189793 -0.108004 0.115190
v 0.194801 -0.108213 0.112489
v 0.200442 -0.108244 0.112006
v 0.189016 -0.121880 0.103566
v 0.193617 -0.121981 0.102129
v 0.200002 -0.091303 0.110851
v 0.198870 -0.121605 0.101649
v 0.206146 -0.121529 0.102594
v 0.201834 -0.122814 0.101792
v 0.211230 -0.124407 0.104937
v 0.219594 -0.120060 0.085129
v 0.209246 -0.104951 0.024184
v 0.235519 -0.107477 0.027290
v 0.271728 -0.119239 0.072597
v 0.218828 -0.126684 0.111567
v 0.223337 -0.128977 0.120581
v 0.214925 -0.121224 0.107230
v 0.221246 -0.120722 0.114851
v 0.223700 -0.120267 0.121984
v 0.209902 -0.107874 0.117167
v 0.212478 -0.107553 0.122054
v 0.212979 -0.107166 0.127605
v 0.211271 -0.094002 0.118290
v 0.212967 -0.095369 0.123665
v 0.212523 -0.096787 0.129264
v 0.233492 -0.108720 0.173184
v 0.223393 -0.081142 0.061306
v 0.190243 -0.074693 0.046597
v 0.254966 -0.082311 0.058728
v 0.230056 -0.059487 -0.045821
v 0.208861 -0.092848 0.115116
v 0.205351 -0.092056 0.112424
v 0.205638 -0.108107 0.113630
v 0.204290 -0.047530 -0.097839
v 0.244941 -0.050999 -0.098995
v 0.192309 -0.056559 -0.041784
v 0.271101 -0.069578 -0.006458
v 0.281447 -0.082905 0.057100
v 0.279117 -0.055466 -0.086244
v 0.309217 -0.075097 0.013138
v 0.312597 -0.062667 -0.054417
v 0.311369 -0.053682 -0.106955
v 0.341617 -0.057155 -0.087914
v 0.341617 -0.078592 0.028069
v 0.341617 -0.110010 0.171248
v 0.341617 -0.111881 0.030258
v 0.341617 -0.089162 -0.088154
v 0.302101 -0.097744 -0.037792
v 0.341617 -0.060362 -0.276072
v 0.297089 -0.077803 -0.153984
v 0.307657 -0.071036 -0.201481
v 0.341617 -0.040425 -0.202120
v 0.310199 -0.087680 -0.094101
v 0.274367 -0.085786 -0.095276
v 0.239979 -0.086330 -0.077570
v 0.201183 -0.079960 -0.094604
v 0.244305 -0.100286 -0.008783
v 0.274099 -0.074421 -0.167637
v 0.247553 -0.063454 -0.228198
v 0.246206 -0.055689 -0.278323
v 0.302907 -0.059550 -0.276423
v 0.275756 -0.063619 -0.239542
v 0.217483 -0.065473 -0.196306
v 0.190020 -0.048563 -0.282683
v 0.152405 -0.042164 -0.287066
v 0.185846 -0.066997 -0.160537
v 0.193916 -0.017711 -0.284816
v 0.123952 -0.042754 -0.244185
v 0.149536 -0.009906 -0.290174
v 0.148994 -0.064043 -0.139020
v 0.126793 -0.058949 -0.144414
v 0.150824 -0.071955 -0.095119
v 0.109912 -0.049011 -0.184545
v 0.089898 -0.036540 -0.241165
v 0.081098 -0.048738 -0.146158
v 0.068415 -0.055123 -0.092874
v 0.052468 -0.034862 -0.195147
v 0.004919 -0.039562 -0.090166
v 0.018132 -0.028376 -0.177149
v 0.019054 -0.066226 0.005261
v -0.053360 -0.029384 -0.043593
v -0.028684 -0.024282 -0.107559
v 0.047635 -0.075702 0.015416
v -0.015925 -0.052522 -0.006203
v -0.081463 -0.009201 -0.082954
v 0.072927 -0.065727 -0.045202
v 0.127305 -0.081461 -0.026996
v 0.113742 -0.065033 -0.093218
v 0.110222 -0.085551 0.006142
v 0.152646 -0.085032 -0.031949
v 0.190742 -0.091573 -0.029038
v -0.160893 0.019359 -0.066070
v -0.123612 0.013750 -0.113818
v -0.103800 -0.007732 -0.051035
v -0.068805 -0.007173 -0.117999
v -0.048171 0.008131 -0.250608
v -0.078192 0.015654 -0.226659
v -0.124297 0.030011 -0.202878
v -0.055105 0.016120 -0.284981
v -0.087628 0.027570 -0.277133
v -0.119133 0.038757 -0.267979
v -0.112461 0.069773 -0.267169
v -0.073655 0.055960 -0.279002
v -0.143225 0.047252 -0.260182
v -0.174055 0.091892 -0.244599
v -0.194777 0.065799 -0.241558
v -0.170686 0.049312 -0.201926
v -0.305123 0.100873 -0.163685
v -0.188921 0.052510 -0.175102
v -0.240575 0.059539 -0.096018
v -0.267252 0.077773 -0.128189
v -0.290249 0.092585 -0.152270
v -0.174096 0.035470 -0.119067
v -0.219178 0.044483 -0.068069
v -0.197086 0.027238 -0.033702
v -0.179552 0.056130 -0.035602
v -0.200925 0.072776 -0.069929
v -0.221252 0.087057 -0.097366
v -0.114464 0.057657 -0.186296
v -0.116686 0.044834 -0.108261
v -0.200926 0.116863 -0.062177
v -0.327321 0.101234 0.077983
v -0.043525 0.013484 -0.094349
v -0.018237 0.008559 -0.121155
v -0.065810 0.028429 -0.130230
v -0.022151 -0.002290 -0.060081
v -0.185958 0.104820 -0.036743
v -0.148038 0.072513 0.033800
v -0.318029 0.123180 0.081504
v 0.009653 -0.028003 0.001291
v -0.219860 0.087199 0.080042
v -0.215113 0.086043 0.077741
v -0.209041 0.083842 0.077547
v -0.203725 0.081118 0.080416
v -0.221887 0.051826 0.081835
v -0.228233 0.054824 0.082118
v -0.163594 0.042521 -0.006148
v -0.148038 0.028425 0.026048
v -0.180590 0.013138 -0.004216
v -0.164511 -0.001471 0.028014
v -0.120543 -0.019526 0.025143
v -0.145272 -0.021028 0.074032
v -0.057754 -0.044361 0.023711
v -0.095598 -0.047912 0.097131
v -0.036945 -0.067930 0.087909
v 0.000257 -0.083505 0.097265
v -0.065527 -0.073260 0.146487
v -0.020553 -0.089359 0.147244
v -0.013857 -0.122420 0.254862
v 0.049409 -0.133650 0.224287
v 0.014908 -0.127779 0.239243
v -0.006102 -0.087897 0.255140
v 0.025542 -0.094176 0.237033
v -0.042257 -0.048436 0.157469
v -0.073344 -0.037791 0.163033
v -0.034894 -0.082099 0.274431
v -0.047561 -0.115711 0.276642
v -0.059714 -0.075898 0.296216
v -0.083973 -0.047089 0.218907
v -0.109802 -0.065568 0.184646
v -0.128109 -0.042254 0.126594
v -0.075545 -0.080429 0.187228
v -0.073216 -0.109660 0.298436
v -0.112820 -0.010907 0.124532
v -0.129425 0.009562 0.072020
v -0.218284 0.044111 0.109606
v -0.214044 0.043356 0.103631
v -0.212497 0.043866 0.097826
v -0.199636 0.075639 0.095508
v -0.201831 0.075085 0.100715
v -0.129425 0.053649 0.079772
v -0.199201 0.076954 0.089885
v -0.200626 0.078877 0.084572
v -0.213090 0.045651 0.090866
v -0.216510 0.048525 0.085161
v -0.224032 0.046232 0.112636
v 0.067721 -0.107243 0.115921
v 0.029108 -0.091133 0.091700
v 0.015878 -0.008735 -0.092194
v 0.065291 -0.030145 -0.050453
v 0.119746 -0.044300 -0.038889
v 0.077307 -0.023824 -0.094931
v 0.119256 -0.030707 -0.107892
v 0.060712 -0.011987 -0.143526
v 0.028010 0.001935 -0.178127
v 0.086613 0.004472 -0.297169
v 0.092545 -0.007158 -0.226789
v 0.108938 -0.016181 -0.187337
v 0.145800 -0.016416 -0.235949
v 0.156158 -0.033157 -0.138853
v 0.189653 -0.036426 -0.154963
v 0.157611 -0.042488 -0.084422
v 0.223818 -0.044715 -0.128647
v 0.225452 -0.022054 -0.282011
v 0.261252 -0.025786 -0.279848
v 0.304167 -0.028485 -0.278464
v 0.273581 -0.041174 -0.178800
v 0.302544 -0.035660 -0.226963
v 0.341617 -0.029272 -0.278116
v 0.120547 -0.003745 -0.293841
v 0.116594 -0.034766 -0.291455
v 0.081375 -0.026293 -0.294935
v 0.056214 0.012905 -0.298435
v 0.048099 -0.017261 -0.296500
v 0.012169 -0.006374 -0.295063
v -0.002235 -0.005172 -0.270279
v 0.022892 0.023021 -0.296996
v -0.005252 -0.016295 -0.202537
v -0.009963 0.033767 -0.293004
v 0.008949 0.024237 -0.272196
v -0.035175 0.037078 -0.252641
v 0.006036 0.013591 -0.204494
v -0.064588 0.044533 -0.228539
v -0.042192 0.044846 -0.286869
v -0.021792 0.004703 -0.291092
v -0.108819 0.063902 -0.240518
v -0.166473 0.079773 -0.186233
v -0.247751 0.105121 -0.130284
v -0.269683 0.119232 -0.154022
v -0.284106 0.127256 -0.165418
v -0.301465 0.135917 -0.176520
v -0.240313 0.115957 -0.218678
v -0.267922 0.092229 -0.213793
v -0.288360 0.133106 -0.198878
v -0.319379 0.143958 -0.185233
v -0.309555 0.106992 -0.197162
v -0.341617 0.118159 -0.183537
v -0.323992 0.110272 -0.175301
v 0.341617 -0.143927 0.173478
v 0.310522 -0.110895 0.026724
v 0.304257 -0.143958 0.170936
v 0.305473 -0.110045 0.168706
v 0.269406 -0.109558 0.170180
v 0.266977 -0.143459 0.172409
v 0.229855 -0.142600 0.175412
v 0.224124 -0.131618 0.130622
v 0.203809 -0.135309 0.152806
v 0.210823 -0.135363 0.150372
v 0.218274 -0.134424 0.144331
v 0.222259 -0.132921 0.137473
v 0.221512 -0.119180 0.138450
v 0.224204 -0.119841 0.129066
v 0.215365 -0.118670 0.146216
v 0.211273 -0.106842 0.132959
v 0.207693 -0.106565 0.137172
v 0.209258 -0.097992 0.135319
v 0.203003 -0.098323 0.139123
v 0.202889 -0.106375 0.139636
v 0.197653 -0.106391 0.140191
v 0.201119 -0.118228 0.152183
v 0.208558 -0.118409 0.150249
v 0.196797 -0.135045 0.153302
vn 0.8735 -0.3199 0.3670
vn -0.4172 -0.8893 -0.1876
vn 0.7118 -0.1991 0.6736
vn -0.4169 -0.8908 -0.1807
vn 0.8766 -0.3205 0.3590
vn 0.3386 0.9102 0.2387
vn 0.9002 -0.4188 -0.1192
vn 0.3376 0.9104 0.2392
vn 0.9203 -0.3907 -0.0186
vn 0.3373 0.9113 0.2360
vn -0.8359 0.2981 0.4608
vn 0.3381 0.9108 0.2369
vn -0.8140 0.2730 0.5128
vn -0.8135 0.2792 0.5101
vn 0.3385 0.9102 0.2385
vn 0.5334 -0.3641 -0.7635
vn 0.3389 0.9103 0.2377
vn 0.7679 -0.4122 -0.4904
vn 0.7727 -0.4152 -0.4801
vn 0.5198 -0.3567 -0.7763
vn -0.4309 -0.8833 -0.1845
vn -0.4320 -0.8825 -0.1859
vn -0.8500 0.3490 0.3947
vn -0.4292 -0.8847 -0.1819
vn -0.8337 0.3093 0.4575
vn -0.4201 -0.8907 -0.1734
vn -0.8552 0.3305 0.3992
vn 0.3439 0.9066 0.2446
vn 0.3378 0.9098 0.2413
vn 0.3320 0.9181 0.2166
vn 0.3412 0.9079 0.2434
vn 0.0896 -0.2424 0.9660
vn 0.1284 -0.0625 0.9897
vn 0.4282 -0.0254 0.9033
vn 0.5343 0.8324 0.1468
vn 0.5315 0.8396 0.1121
vn 0.2333 0.9421 0.2410
vn 0.2340 0.9402 0.2476
vn 0.1867 0.9445 0.2703
vn 0.3035 0.9197 0.2490
vn 0.3936 0.8194 0.4167
vn 0.3779 -0.0329 0.9253
vn 0.1771 0.9496 0.2585
vn 0.3275 -0.0191 0.9447
vn 0.1596 0.9531 0.2570
vn 0.3406 -0.0059 0.9402
vn 0.1419 0.9572 0.2524
vn 0.1755 0.9527 0.2480
vn 0.1309 0.9557 0.2636
vn 0.1793 0.9525 0.2463
vn 0.1448 0.9560 0.2550
vn 0.1979 0.0291 0.9798
vn 0.2044 0.0351 0.9783
vn 0.2770 0.0138 0.9608
vn 0.0613 0.9681 0.2430
vn 0.1058 0.9578 0.2671
vn 0.0759 0.9636 0.2564
vn 0.1167 0.9545 0.2744
vn 0.3059 -0.0719 -0.9493
vn 0.0826 0.9673 0.2397
vn 0.6478 -0.0586 -0.7595
vn 0.6217 -0.0420 -0.7821
vn 0.4606 -0.7083 -0.5349
vn 0.8740 -0.0234 -0.4853
vn 0.6475 -0.6938 -0.3151
vn 0.5984 -0.6766 -0.4291
vn 0.4874 -0.0894 -0.8686
vn 0.3718 -0.6892 -0.6219
vn 0.7841 -0.0815 -0.6152
vn 0.6313 -0.0146 -0.7754
vn -0.1345 -0.9613 -0.2406
vn -0.1704 -0.9590 -0.2266
vn 0.8806 0.0177 -0.4736
vn -0.1878 -0.9635 -0.1908
vn -0.1420 -0.9593 -0.2442
vn -0.1565 -0.9555 -0.2500
vn -0.1365 -0.9534 -0.2692
vn -0.1218 -0.9552 -0.2698
vn -0.0688 -0.9557 -0.2863
vn -0.1540 -0.9621 -0.2249
vn -0.1171 -0.9566 -0.2669
vn -0.1602 -0.9651 -0.2071
vn 0.8875 0.0712 0.4552
vn 0.6682 0.1058 0.7365
vn -0.0804 -0.9683 -0.2363
vn 0.8783 -0.0275 0.4772
vn -0.1537 -0.9593 -0.2368
vn 0.9937 -0.0277 0.1083
vn 0.7592 -0.6398 0.1200
vn 0.6708 -0.6219 0.4041
vn 0.7095 -0.6570 0.2548
vn 0.9937 -0.0006 -0.1120
vn 0.7369 -0.6747 -0.0421
vn 0.9593 0.0360 0.2800
vn 0.9905 -0.0032 0.1375
vn 0.9928 0.0019 -0.1199
vn 0.1166 0.9595 0.2565
vn 0.1732 0.9652 0.1962
vn 0.8765 0.0147 0.4813
vn 0.1317 0.9605 0.2452
vn 0.6012 0.0325 0.7984
vn 0.1339 0.9618 0.2390
vn 0.7771 0.0572 0.6268
vn 0.1376 0.9617 0.2372
vn 0.5752 -0.6404 0.5089
vn 0.3559 -0.6110 0.7071
vn 0.4758 0.0738 0.8765
vn 0.4785 -0.6056 0.6358
vn 0.0637 -0.6161 0.7851
vn 0.0854 0.0700 0.9939
vn 0.1470 0.0505 0.9879
vn 0.2270 -0.5979 0.7687
vn 0.3591 -0.6120 0.7046
vn 0.1153 -0.6035 0.7889
vn 0.0675 0.2787 0.9580
vn -0.1245 -0.1900 0.9739
vn -0.0966 -0.6027 0.7921
vn -0.1076 -0.9658 -0.2359
vn -0.0813 -0.9658 -0.2463
vn -0.2585 0.2926 0.9206
vn -0.0801 -0.9662 -0.2451
vn -0.1084 -0.9690 -0.2218
vn -0.0662 -0.9711 -0.2295
vn -0.0381 -0.9742 -0.2224
vn -0.0434 -0.9688 -0.2440
vn -0.0764 -0.9667 -0.2444
vn -0.6196 0.1665 0.7671
vn -0.0332 -0.9724 -0.2308
vn -0.8794 0.1003 0.4655
vn -0.7678 -0.0408 0.6394
vn -0.5874 -0.6137 0.5276
vn -0.9453 -0.0132 0.3261
vn -0.7174 -0.6347 0.2873
vn -0.6551 -0.6483 0.3880
vn -0.8849 0.0498 0.4632
vn -0.7447 -0.6578 0.1130
vn -0.9957 0.0283 0.0879
vn -0.9537 -0.0015 0.3006
vn 0.0527 0.9716 0.2305
vn 0.0318 0.9683 0.2479
vn -0.9958 -0.0299 -0.0865
vn 0.0692 0.9700 0.2329
vn 0.0994 0.9741 0.2031
vn 0.0828 0.9678 0.2376
vn 0.0551 0.9706 0.2343
vn 0.0526 0.9782 0.2010
vn 0.1362 0.9598 0.2456
vn 0.0473 0.9733 0.2245
vn 0.0685 0.9704 0.2314
vn -0.2740 0.0583 0.9600
vn -0.6009 0.0492 0.7978
vn -0.2992 0.0662 0.9519
vn -0.2179 -0.6247 0.7498
vn -0.4731 -0.6336 0.6121
vn -0.6392 0.0604 0.7667
vn -0.3566 -0.6014 0.7150
vn -0.7912 0.0286 0.6109
vn 0.0887 0.9794 0.1812
vn 0.0950 0.9794 0.1781
vn 0.0718 0.9816 0.1768
vn 0.0463 0.9782 0.2025
vn 0.0972 0.9745 0.2022
vn 0.0395 0.9792 0.1989
vn 0.0343 0.9792 0.1997
vn 0.0421 0.9831 0.1781
vn 0.0612 0.9818 0.1798
vn 0.0481 0.9819 0.1831
vn 0.0221 0.9830 0.1820
vn 0.0529 0.9845 0.1671
vn 0.0072 0.9857 0.1684
vn 0.0230 0.9831 0.1817
vn 0.0198 0.9822 0.1869
vn 0.0334 0.9762 0.2142
vn 1.0000 -0.0000 -0.0000
vn -0.0269 -0.9817 -0.1884
vn -0.0128 -0.9840 -0.1777
vn -0.0220 -0.9882 -0.1515
vn -0.0164 -0.9871 -0.1592
vn -0.0331 -0.9884 -0.1482
vn -0.0472 -0.9872 -0.1525
vn -0.0460 -0.9822 -0.1822
vn -0.0719 -0.9829 -0.1698
vn -0.0666 -0.9849 -0.1597
vn -0.0756 -0.9781 -0.1937
vn -0.0894 -0.9824 -0.1638
vn -0.0553 -0.9869 -0.1514
vn -0.0549 -0.9792 -0.1952
vn -0.0723 -0.9865 -0.1470
vn -0.0559 -0.9865 -0.1541
vn -0.0545 -0.9868 -0.1527
vn -0.1130 -0.9823 -0.1491
vn -0.0621 -0.9866 -0.1512
vn -0.0703 -0.9846 -0.1604
vn -0.0623 -0.9881 -0.1404
vn -0.0994 -0.9828 -0.1559
vn -0.1031 -0.9818 -0.1594
vn -0.1535 -0.9814 -0.1154
vn 0.1008 -0.0865 -0.9911
vn -0.1249 -0.9804 -0.1522
vn -0.1672 -0.9740 -0.1527
vn 0.0674 -0.0773 -0.9947
vn 0.1053 -0.0818 -0.9911
vn -0.1758 -0.9722 -0.1549
vn -0.1672 -0.9740 -0.1526
vn -0.1994 -0.9686 -0.1486
vn -0.1530 -0.9736 -0.1691
vn -0.1828 -0.9695 -0.1632
vn -0.1817 -0.9690 -0.1671
vn -0.2101 -0.9660 -0.1508
vn -0.1901 -0.9707 -0.1466
vn -0.1996 -0.9694 -0.1430
vn -0.2414 -0.9551 -0.1719
vn -0.2091 -0.9638 -0.1653
vn -0.2206 -0.9646 -0.1443
vn -0.2217 -0.9645 -0.1436
vn -0.3337 -0.9272 -0.1699
vn -0.2647 -0.9505 -0.1624
vn -0.2937 -0.9310 -0.2166
vn -0.2317 -0.9452 -0.2298
vn -0.3398 -0.9131 -0.2256
vn -0.3395 -0.9132 -0.2252
vn -0.3392 -0.9272 -0.1592
vn -0.2413 -0.9519 -0.1889
vn -0.2051 -0.9484 -0.2417
vn -0.2018 -0.9540 -0.2218
vn -0.2121 -0.9578 -0.1941
vn -0.2110 -0.9582 -0.1932
vn -0.1710 -0.9545 -0.2443
vn -0.2013 -0.9496 -0.2403
vn -0.1593 -0.9587 -0.2355
vn -0.1884 -0.9582 -0.2154
vn -0.2118 -0.9627 -0.1684
vn -0.1897 -0.9613 -0.1996
vn -0.1891 -0.9683 -0.1633
vn -0.1778 -0.9597 -0.2177
vn -0.1741 -0.9653 -0.1948
vn -0.1514 -0.9689 -0.1957
vn -0.1494 -0.9653 -0.2143
vn -0.1520 -0.9687 -0.1961
vn -0.1482 -0.9653 -0.2148
vn -0.1076 -0.9759 -0.1900
vn -0.0674 -0.9729 -0.2211
vn -0.1009 -0.9726 -0.2094
vn -0.3709 -0.9027 -0.2181
vn -0.3663 -0.9132 -0.1787
vn -0.3628 -0.9136 -0.1839
vn -0.3594 -0.9093 -0.2097
vn -0.3463 -0.9210 -0.1784
vn -0.3514 -0.9223 -0.1611
vn -0.3595 -0.9190 -0.1620
vn -0.3627 -0.9178 -0.1615
vn -0.3695 -0.9146 -0.1642
vn -0.3633 -0.9196 -0.1492
vn -0.3479 -0.9262 -0.1451
vn -0.3603 -0.9207 -0.1500
vn -0.2197 0.0440 -0.9746
vn -0.3519 -0.9334 -0.0705
vn -0.2520 0.0794 -0.9645
vn -0.2685 0.0689 -0.9608
vn -0.3709 -0.9160 -0.1531
vn -0.2795 0.0851 -0.9564
vn -0.3030 0.1207 -0.9453
vn -0.2969 0.1254 -0.9466
vn -0.3816 -0.9125 -0.1476
vn -0.3825 -0.9120 -0.1481
vn -0.3926 -0.9059 -0.1589
vn -0.3894 -0.9101 -0.1419
vn -0.3824 -0.9115 -0.1512
vn -0.3877 -0.9055 -0.1728
vn -0.3979 -0.8996 -0.1799
vn -0.3961 -0.9012 -0.1761
vn -0.3924 -0.9078 -0.1479
vn -0.3891 -0.9050 -0.1722
vn -0.3842 -0.9056 -0.1796
vn -0.3909 -0.9014 -0.1863
vn -0.3755 -0.9123 -0.1637
vn -0.3723 -0.9097 -0.1838
vn -0.5922 0.4270 0.6834
vn -0.3813 -0.9010 -0.2070
vn -0.6441 0.4324 0.6310
vn -0.6407 0.4541 0.6191
vn -0.4101 -0.8944 -0.1784
vn -0.5910 0.4479 0.6709
vn 0.3952 0.9015 0.1765
vn 0.3758 0.9127 0.1607
vn 0.3678 0.9196 0.1380
vn -0.7440 0.1157 -0.6581
vn -0.0872 0.1725 -0.9811
vn 0.3637 0.9183 0.1566
vn 0.3736 0.9089 0.1854
vn 0.3534 0.9210 0.1641
vn 0.5508 0.8336 0.0402
vn 0.5570 0.8280 0.0643
vn 0.3363 0.9122 0.2340
vn 0.3381 0.9112 0.2355
vn 0.5481 0.8319 0.0864
vn 0.3369 0.9117 0.2353
vn 0.3388 0.9105 0.2371
vn 0.5524 0.8313 0.0620
vn 0.3362 0.9120 0.2352
vn 0.3378 0.9113 0.2355
vn 0.0712 0.1091 0.9915
vn -0.3512 0.2613 0.8991
vn 0.3389 0.9106 0.2367
vn 0.0899 0.0967 0.9912
vn -0.4264 -0.8846 -0.1889
vn 0.4496 -0.0591 0.8913
vn -0.4244 -0.8859 -0.1873
vn 0.4253 -0.0520 0.9036
vn -0.4212 -0.8878 -0.1852
vn -0.7125 0.4477 0.5403
vn -0.4151 -0.8904 -0.1865
vn -0.6807 0.4511 0.5772
vn -0.6822 0.4334 0.5889
vn -0.4042 -0.9009 -0.1579
vn -0.4169 -0.8908 -0.1808
vn -0.3846 -0.8982 -0.2128
vn -0.3861 -0.8975 -0.2132
vn -0.3829 -0.8982 -0.2161
vn -0.7147 0.4301 0.5515
vn -0.3700 -0.9024 -0.2210
vn -0.3631 -0.9054 -0.2200
vn -0.3828 -0.8970 -0.2212
vn -0.3636 -0.9071 -0.2118
vn -0.3394 -0.9133 -0.2254
vn -0.3561 -0.9069 -0.2251
vn -0.3750 -0.8963 -0.2367
vn -0.3460 -0.9115 -0.2225
vn -0.3393 -0.9133 -0.2253
vn -0.3478 -0.9031 -0.2519
vn -0.3281 -0.9178 -0.2235
vn -0.3225 -0.9153 -0.2415
vn -0.3235 -0.9150 -0.2411
vn -0.3120 -0.9135 -0.2612
vn -0.3216 -0.9106 -0.2597
vn -0.3171 -0.9176 -0.2395
vn -0.2769 -0.9200 -0.2775
vn 0.4802 -0.0946 0.8720
vn 0.4584 -0.1101 0.8819
vn 0.3880 -0.0623 0.9195
vn 0.4007 -0.0530 0.9147
vn 0.2804 0.9218 0.2676
vn 0.3218 0.9130 0.2506
vn 0.3236 0.9128 0.2490
vn 0.3435 0.9081 0.2397
vn 0.3525 0.9050 0.2383
vn 0.3570 0.8826 0.3060
vn 0.6219 -0.1843 0.7611
vn 0.5177 -0.1396 0.8441
vn 0.3867 0.8950 0.2225
vn 0.4033 0.8916 0.2057
vn 0.5344 -0.1268 0.8357
vn -0.8230 0.3971 0.4062
vn 0.3824 0.8969 0.2220
vn -0.8222 0.4018 0.4031
vn -0.8122 0.4058 0.4191
vn -0.3705 -0.8964 -0.2432
vn -0.3729 -0.8993 -0.2286
vn -0.8375 0.3619 0.4095
vn -0.4007 -0.8882 -0.2251
vn 0.6085 -0.1927 0.7698
vn -0.3421 -0.9057 -0.2503
vn -0.3477 -0.9051 -0.2448
vn -0.3657 -0.8971 -0.2478
vn -0.7999 0.4184 0.4302
vn -0.3734 -0.8961 -0.2399
vn -0.3702 -0.8985 -0.2359
vn -0.8083 0.4213 0.4113
vn -0.4396 -0.8742 -0.2063
vn -0.4286 -0.8794 -0.2072
vn -0.7934 0.4388 0.4219
vn -0.4336 -0.8817 -0.1859
vn -0.4318 -0.8806 -0.1951
vn -0.7757 0.2451 -0.5815
vn -0.4248 -0.8849 -0.1910
vn -0.9112 0.3534 -0.2117
vn -0.8874 0.3102 -0.3410
vn 0.3387 0.9099 0.2396
vn -0.7086 0.1806 -0.6821
vn 0.3414 0.9080 0.2428
vn 0.3399 0.9076 0.2463
vn 0.5455 0.8247 0.1490
vn 0.5403 0.8370 0.0867
vn 0.5508 0.8265 0.1161
vn 0.3386 0.9107 0.2366
vn 0.3386 0.9101 0.2391
vn 0.3386 0.9102 0.2386
vn -0.6490 0.3527 0.6741
vn 0.3395 0.9101 0.2375
vn -0.8459 0.3869 0.3670
vn -0.6982 0.3772 0.6085
vn -0.3770 0.2766 0.8840
vn -0.4249 -0.8848 -0.1913
vn -0.4248 -0.8849 -0.1912
vn -0.4247 -0.8850 -0.1907
vn -0.8970 0.4037 0.1800
vn -0.4248 -0.8849 -0.1911
vn -0.9264 0.3762 0.0162
vn -0.4212 -0.8896 -0.1765
vn -0.4489 0.0573 -0.8917
vn -0.4263 -0.8865 -0.1801
vn -0.1031 -0.1096 -0.9886
vn -0.3062 -0.0421 -0.9510
vn -0.7510 0.4459 0.4870
vn -0.7568 0.4247 0.4969
vn 0.3962 0.8122 0.4283
vn -0.2241 -0.9375 -0.2663
vn -0.1789 -0.9485 -0.2614
vn -0.2924 -0.9227 -0.2511
vn 0.3664 -0.0424 0.9295
vn -0.2871 -0.9288 -0.2343
vn -0.2254 -0.9428 -0.2455
vn -0.2903 -0.9282 -0.2326
vn -0.2367 -0.9395 -0.2475
vn -0.1692 -0.9510 -0.2589
vn -0.1837 -0.9478 -0.2607
vn -0.1600 -0.9508 -0.2654
vn 0.6968 -0.1943 0.6904
vn 0.3375 0.9105 0.2391
vn 0.2329 0.9493 0.2112
vn 0.3343 0.9184 0.2116
vn 0.2465 0.9424 0.2260
vn 0.2491 0.9384 0.2394
vn 0.2421 0.9493 0.2003
vn 0.1915 0.9558 0.2231
vn 0.2022 0.9550 0.2169
vn 0.2084 0.9589 0.1926
vn 0.2151 0.9585 0.1873
vn 0.2088 0.9642 0.1636
vn 0.2421 0.9585 0.1508
vn 0.2451 0.9573 0.1535
vn 0.2535 0.9564 0.1452
vn 0.2218 0.9649 0.1407
vn 0.2073 0.9689 0.1354
vn 0.2184 0.9646 0.1480
vn 0.1932 0.9709 0.1418
vn 0.1986 0.9692 0.1459
vn 0.1922 0.9695 0.1523
vn 0.1988 0.9668 0.1604
vn 0.1659 0.9751 0.1470
vn 0.1673 0.9744 0.1502
vn 0.1522 0.9748 0.1630
vn 0.1471 0.9687 0.2000
vn 0.1946 0.9603 0.2001
vn 0.1593 0.9688 0.1901
vn 0.1809 0.9652 0.1888
vn 0.1746 0.9738 0.1461
vn 0.1223 0.9818 0.1455
vn 0.1135 0.9803 0.1615
vn 0.1254 0.9813 0.1463
vn 0.0521 -0.0770 -0.9957
vn 0.0803 -0.0596 -0.9950
vn 0.0938 0.9848 0.1465
vn 0.0575 0.9880 0.1434
vn 0.0280 -0.0667 -0.9974
vn 0.0290 -0.0654 -0.9974
vn 0.0724 0.9873 0.1415
vn 0.0817 0.9852 0.1506
vn 0.0737 0.9863 0.1479
vn 0.0431 0.9893 0.1392
vn 0.0417 0.9878 0.1500
vn 0.0522 0.9881 0.1445
vn 0.0195 0.9902 0.1386
vn 0.0283 0.9890 0.1451
vn 0.0275 0.9888 0.1465
vn 0.0079 -0.0656 -0.9978
vn 0.0077 -0.0659 -0.9978
vn 0.0882 0.9854 0.1459
vn 0.1567 0.9793 0.1284
vn 0.1915 0.9728 0.1300
vn 0.1905 0.9732 0.1291
vn 0.2199 0.9653 0.1410
vn 0.0765 -0.0862 -0.9933
vn 0.1030 -0.0893 -0.9907
vn 0.1071 -0.0859 -0.9905
vn -0.2173 -0.9646 -0.1494
vn 0.0776 -0.0853 -0.9933
vn -0.1849 -0.9738 -0.1325
vn 0.0275 -0.0714 -0.9971
vn 0.0205 -0.0759 -0.9969
vn -0.2530 -0.9569 -0.1423
vn -0.2923 -0.9483 -0.1239
vn -0.0538 -0.0460 -0.9975
vn -0.3062 -0.9377 -0.1642
vn -0.2609 -0.9530 -0.1542
vn -0.2353 -0.9592 -0.1564
vn -0.3119 -0.9353 -0.1675
vn -0.0578 -0.0484 -0.9972
vn -0.3396 -0.9256 -0.1671
vn -0.3441 -0.9247 -0.1627
vn -0.3142 -0.9364 -0.1563
vn 0.2931 0.9487 0.1183
vn -0.1267 -0.0190 -0.9918
vn 0.3228 0.9367 0.1356
vn 0.3136 0.9359 0.1606
vn 0.3294 0.9353 0.1290
vn 0.3407 0.9264 0.1603
vn 0.3448 0.9255 0.1563
vn 0.3178 0.9364 0.1491
vn 0.3083 0.9381 0.1578
vn 0.3487 0.9269 0.1388
vn 0.3603 0.9198 0.1552
vn 0.3556 0.9218 0.1541
vn 0.3456 0.9279 0.1397
vn 0.3614 0.9213 0.1437
vn -0.2293 0.0392 -0.9726
vn -0.1757 0.0143 -0.9843
vn -0.1836 0.0101 -0.9829
vn -0.3446 -0.9273 -0.1460
vn -0.3219 -0.9361 -0.1417
vn -0.1213 -0.0159 -0.9925
vn -0.3285 -0.9348 -0.1349
vn 0.3640 0.9202 0.1439
vn 0.3718 0.9154 0.1546
vn 0.3643 0.9203 0.1429
vn 0.3873 0.9104 0.1452
vn 0.3830 0.9131 0.1398
vn 0.3820 0.9121 0.1487
vn 0.3720 0.9159 0.1509
vn 0.3995 0.9004 0.1725
vn 0.3975 0.9019 0.1689
vn 0.3922 0.9086 0.1435
vn 0.3862 0.9078 0.1636
vn 0.3916 0.9097 0.1380
vn -0.3726 0.3532 0.8581
vn 0.3813 0.9168 0.1190
vn -0.4303 0.3857 0.8161
vn 0.3792 0.9179 0.1170
vn -0.4166 0.3859 0.8231
vn -0.3007 0.1562 -0.9408
vn -0.3157 0.1414 -0.9383
vn -0.3192 0.1799 -0.9304
vn 0.3713 0.9229 0.1016
vn -0.3064 0.1873 -0.9333
vn 0.3671 0.9249 0.0989
vn -0.3317 0.2087 -0.9200
vn -0.3182 0.2135 -0.9237
vn -0.3658 -0.9250 -0.1028
vn -0.3695 -0.9232 -0.1055
vn -0.3802 -0.9165 -0.1241
vn -0.2868 0.3069 0.9075
vn -0.3561 0.3539 0.8648
vn -0.3011 0.3074 0.9027
vn -0.3780 -0.9177 -0.1223
vn -0.5221 0.4288 0.7373
vn -0.5015 0.4362 0.7472
vn -0.5701 0.4345 0.6973
vn -0.5487 0.4455 0.7075
vn 0.2587 0.9546 0.1477
vn 0.3330 0.9288 0.1623
vn 0.1773 0.9620 0.2077
vn 0.3144 0.9310 0.1855
vn -0.7042 0.3931 -0.5912
vn -0.7982 0.2501 0.5480
vn 0.3652 0.9169 0.1611
vn -0.7982 0.2608 0.5430
vn -0.1897 -0.9719 -0.1392
vn -0.1348 -0.9777 -0.1609
vn -0.0395 -0.9865 -0.1591
vn -0.0197 -0.9921 -0.1240
vn -0.0435 -0.9766 -0.2106
vn -0.0324 -0.9758 -0.2163
vn -0.0491 -0.9772 -0.2067
vn -0.0536 -0.9798 -0.1927
vn -0.0564 -0.9764 -0.2084
vn -0.0061 -0.9759 -0.2184
vn -0.0085 -0.9800 -0.1987
vn 0.0178 -0.9683 -0.2493
vn -0.0678 0.0679 0.9954
vn -0.0701 0.0654 0.9954
vn -0.0178 0.9706 0.2399
vn 0.0226 0.9725 0.2316
vn 0.0416 0.0641 0.9971
vn 0.0361 0.9718 0.2329
vn 0.0421 0.9718 0.2321
vn 0.0403 0.0627 0.9972
vn 0.0846 0.0593 0.9946
vn -0.0224 -0.9713 -0.2368
vn -0.0417 -0.9705 -0.2375
vn 0.0818 0.0566 0.9950
vn -0.0645 -0.9691 -0.2382
vn 0.1343 0.0459 0.9899
vn -0.0326 -0.9717 -0.2341
vn 0.1388 0.0501 0.9890
vn -0.1327 -0.9664 -0.2200
vn -0.0831 -0.9724 -0.2179
vn -0.0651 -0.9708 -0.2311
vn -0.0446 -0.9701 -0.2385
vn -0.9627 -0.0333 -0.2683
vn -0.8635 -0.0111 -0.5042
vn -0.9613 -0.0296 -0.2738
vn -0.7293 -0.6646 -0.1625
vn -0.7844 -0.0711 -0.6161
vn -0.5943 -0.6825 -0.4255
vn -0.7137 -0.6752 -0.1865
vn -0.9527 0.0067 -0.3039
vn -0.5720 -0.6918 -0.4407
vn -0.7620 -0.0009 -0.6476
vn -0.8722 -0.0696 -0.4843
vn 0.0695 0.9706 0.2305
vn -0.5140 -0.0906 -0.8530
vn 0.0835 0.9715 0.2218
vn -0.0856 -0.0748 -0.9935
vn 0.0887 0.9668 0.2395
vn -0.1050 -0.0618 -0.9926
vn -0.4574 -0.0501 -0.8878
vn 0.0658 0.9693 0.2370
vn 0.2767 -0.0543 -0.9594
vn 0.2020 -0.7171 -0.6670
vn -0.0710 -0.7201 -0.6903
vn 0.0887 -0.6959 -0.7126
vn 0.1123 -0.0947 -0.9891
vn -0.2525 -0.0750 -0.9647
vn -0.1957 -0.6989 -0.6879
vn -0.0722 -0.0478 -0.9962
vn 0.2806 -0.0328 -0.9593
vn -0.1069 -0.9648 -0.2403
vn -0.0530 -0.9708 -0.2341
vn -0.5104 -0.0744 -0.8567
vn -0.3853 -0.6965 -0.6053
vn -0.3446 -0.7070 -0.6175
vn -0.3278 -0.0506 -0.9434
vn -0.6279 -0.0228 -0.7780
vn -0.7507 -0.6541 0.0928
vn -0.9971 0.0303 0.0692
vn -0.9964 0.0177 0.0827
vn -0.0534 -0.9668 -0.2501
vn 0.0224 0.9892 0.1449
vn 0.1518 0.9675 0.2021
vn 0.1470 0.9617 0.2314
vn 0.0988 0.9670 0.2350
vn -0.4620 -0.0989 0.8814
vn -0.0957 -0.9665 -0.2384
vn -0.1445 -0.9621 -0.2314
vn 0.1531 0.9568 0.2470
vn 0.9600 -0.0737 -0.2703
vn 0.7339 -0.6591 -0.1642
vn 0.9908 0.0422 -0.1282
vn 0.9935 -0.0303 0.1095
vn 0.8901 -0.0365 -0.4543
vn 0.2595 -0.0014 0.9657
vn 0.2396 0.9421 0.2345
vn 0.2017 -0.2512 -0.9467
vn 0.3387 0.9105 0.2374
vn 0.2117 -0.2577 -0.9428
vn -0.4174 -0.8926 -0.1704
vn -0.4240 -0.8853 -0.1908
s 0
usemtl Material.008
f 6//1 2//1 1//1
f 2//2 5//2 1//2
f 4//3 1//3 3//3
f 1//4 5//4 3//4
f 6//5 1//5 4//5
f 6//6 10//6 7//6
f 8//7 6//7 7//7
f 6//8 4//8 9//8
f 2//9 6//9 8//9
f 9//10 10//10 6//10
f 11//11 10//11 12//11
f 10//12 11//12 13//12
f 10//13 9//13 5//13
f 10//14 5//14 12//14
f 7//15 10//15 13//15
f 14//16 15//16 13//16
f 13//17 11//17 14//17
f 13//18 8//18 7//18
f 13//19 15//19 8//19
f 14//20 16//20 15//20
f 15//21 16//21 17//21
f 8//22 15//22 17//22
f 20//23 17//23 18//23
f 17//24 19//24 18//24
f 11//25 12//25 17//25
f 12//26 8//26 17//26
f 20//27 11//27 17//27
f 19//24 17//24 16//24
f 11//28 20//28 21//28
f 21//29 20//29 23//29
f 20//30 24//30 22//30
f 23//31 20//31 22//31
f 24//32 20//32 18//32
f 24//33 18//33 25//33
f 26//34 24//34 25//34
f 22//35 24//35 26//35
f 27//36 22//36 26//36
f 28//37 27//37 26//37
f 31//38 28//38 26//38
f 31//39 26//39 29//39
f 30//40 29//40 26//40
f 25//41 30//41 26//41
f 31//42 29//42 32//42
f 35//43 28//43 31//43
f 31//44 32//44 34//44
f 35//45 31//45 33//45
f 33//46 31//46 34//46
f 35//47 37//47 36//47
f 36//48 38//48 35//48
f 39//49 35//49 33//49
f 35//50 38//50 28//50
f 39//51 37//51 35//51
f 42//52 40//52 39//52
f 40//53 41//53 39//53
f 42//54 39//54 33//54
f 45//55 39//55 41//55
f 39//56 43//56 37//56
f 44//57 43//57 39//57
f 45//58 44//58 39//58
f 46//59 47//59 45//59
f 46//60 45//60 41//60
f 45//61 48//61 44//61
f 45//62 47//62 48//62
f 48//63 47//63 51//63
f 44//64 48//64 49//64
f 49//65 48//65 50//65
f 48//66 51//66 50//66
f 52//67 53//67 51//67
f 47//68 52//68 51//68
f 51//69 54//69 50//69
f 51//70 53//70 54//70
f 56//71 54//71 40//71
f 54//72 53//72 40//72
f 50//73 54//73 55//73
f 54//74 56//74 55//74
f 57//75 61//75 56//75
f 57//76 56//76 58//76
f 58//77 56//77 34//77
f 42//78 34//78 56//78
f 42//79 56//79 40//79
f 55//80 56//80 59//80
f 59//81 56//81 60//81
f 56//82 61//82 60//82
f 61//83 65//83 60//83
f 63//84 61//84 62//84
f 61//85 64//85 62//85
f 61//86 63//86 65//86
f 57//87 64//87 61//87
f 60//88 65//88 66//88
f 68//89 66//89 65//89
f 67//90 65//90 63//90
f 68//91 65//91 67//91
f 43//92 49//92 68//92
f 68//93 49//93 66//93
f 67//94 69//94 68//94
f 68//95 69//95 70//95
f 43//96 68//96 70//96
f 43//97 70//97 37//97
f 70//98 69//98 37//98
f 67//99 71//99 69//99
f 37//100 69//100 71//100
f 74//101 72//101 71//101
f 71//102 72//102 73//102
f 74//103 71//103 67//103
f 71//104 73//104 37//104
f 67//105 63//105 74//105
f 75//106 74//106 62//106
f 75//107 72//107 74//107
f 74//108 63//108 62//108
f 80//109 76//109 75//109
f 79//110 75//110 76//110
f 79//111 72//111 75//111
f 75//112 77//112 78//112
f 75//113 62//113 77//113
f 80//114 75//114 78//114
f 80//115 78//115 82//115
f 81//116 80//116 82//116
f 76//117 80//117 81//117
f 78//118 64//118 82//118
f 82//119 84//119 83//119
f 81//120 82//120 83//120
f 64//121 84//121 82//121
f 64//122 85//122 84//122
f 86//123 84//123 85//123
f 84//124 86//124 87//124
f 84//125 87//125 88//125
f 83//126 84//126 88//126
f 90//127 83//127 88//127
f 88//128 87//128 89//128
f 91//129 88//129 89//129
f 91//130 90//130 88//130
f 93//131 90//131 91//131
f 92//132 91//132 89//132
f 94//133 91//133 92//133
f 94//134 93//134 91//134
f 93//135 94//135 96//135
f 92//136 95//136 94//136
f 94//137 95//137 97//137
f 94//138 97//138 96//138
f 100//139 96//139 97//139
f 99//140 97//140 98//140
f 95//141 98//141 97//141
f 99//142 100//142 97//142
f 101//143 100//143 103//143
f 79//144 100//144 101//144
f 99//145 102//145 100//145
f 102//146 103//146 100//146
f 96//147 100//147 104//147
f 104//148 100//148 105//148
f 105//149 100//149 79//149
f 105//150 79//150 76//150
f 104//151 105//151 106//151
f 105//152 76//152 106//152
f 106//153 76//153 81//153
f 93//154 106//154 90//154
f 104//155 106//155 93//155
f 106//156 81//156 90//156
f 93//157 96//157 104//157
f 108//158 107//158 103//158
f 103//159 107//159 109//159
f 110//160 108//160 103//160
f 110//161 103//161 102//161
f 101//162 103//162 109//162
f 110//163 111//163 113//163
f 102//164 111//164 110//164
f 114//165 112//165 110//165
f 112//166 108//166 110//166
f 114//167 110//167 113//167
f 114//168 113//168 117//168
f 112//169 114//169 115//169
f 114//170 116//170 115//170
f 114//171 117//171 116//171
f 117//172 113//172 111//172
f 117//173 111//173 118//173
f 117//174 118//174 119//174
f 116//174 117//174 120//174
f 117//174 119//174 120//174
f 121//175 120//175 119//175
f 120//176 121//176 126//176
f 120//177 124//177 122//177
f 125//174 120//174 122//174
f 126//178 123//178 120//178
f 124//179 120//179 123//179
f 125//174 116//174 120//174
f 123//180 126//180 127//180
f 126//181 121//181 127//181
f 121//182 128//182 127//182
f 123//183 127//183 128//183
f 128//184 130//184 129//184
f 131//185 128//185 129//185
f 123//186 128//186 131//186
f 121//187 130//187 128//187
f 132//188 131//188 129//188
f 132//189 124//189 131//189
f 124//190 123//190 131//190
f 132//191 137//191 133//191
f 132//192 133//192 134//192
f 135//193 132//193 134//193
f 124//194 132//194 135//194
f 132//195 129//195 136//195
f 132//196 136//196 137//196
f 141//197 138//197 137//197
f 137//198 138//198 142//198
f 136//199 139//199 137//199
f 143//200 137//200 139//200
f 133//201 137//201 140//201
f 140//202 137//202 142//202
f 143//203 141//203 137//203
f 143//204 139//204 129//204
f 146//205 141//205 143//205
f 143//206 129//206 145//206
f 146//207 143//207 144//207
f 143//208 145//208 144//208
f 144//209 148//209 146//209
f 147//210 141//210 146//210
f 147//211 146//211 148//211
f 148//212 149//212 151//212
f 144//213 149//213 148//213
f 147//214 148//214 150//214
f 150//215 148//215 151//215
f 155//216 152//216 151//216
f 150//217 151//217 152//217
f 153//218 157//218 151//218
f 156//219 153//219 151//219
f 154//220 158//220 151//220
f 157//221 154//221 151//221
f 155//222 151//222 158//222
f 149//223 159//223 151//223
f 156//224 151//224 159//224
f 162//225 159//225 160//225
f 160//226 159//226 161//226
f 149//227 161//227 159//227
f 58//228 159//228 162//228
f 156//229 159//229 58//229
f 58//230 162//230 57//230
f 160//231 57//231 162//231
f 144//232 161//232 149//232
f 145//233 160//233 161//233
f 144//234 145//234 161//234
f 163//235 57//235 160//235
f 145//236 163//236 160//236
f 164//237 163//237 129//237
f 163//238 164//238 64//238
f 163//239 145//239 129//239
f 163//240 64//240 57//240
f 86//241 164//241 129//241
f 85//242 164//242 86//242
f 85//243 64//243 164//243
f 167//244 165//244 158//244
f 165//245 166//245 158//245
f 158//246 166//246 168//246
f 154//247 167//247 158//247
f 155//248 158//248 168//248
f 169//249 155//249 168//249
f 170//250 169//250 168//250
f 168//251 166//251 170//251
f 171//252 170//252 166//252
f 170//253 171//253 173//253
f 172//254 169//254 170//254
f 170//255 173//255 172//255
f 172//256 173//256 176//256
f 173//257 177//257 174//257
f 174//258 175//258 173//258
f 175//259 176//259 173//259
f 171//260 177//260 173//260
f 174//261 177//261 175//261
f 175//262 177//262 178//262
f 177//263 179//263 178//263
f 179//264 177//264 180//264
f 177//265 171//265 180//265
f 182//266 181//266 180//266
f 180//267 181//267 179//267
f 182//268 180//268 171//268
f 182//269 186//269 183//269
f 182//270 183//270 184//270
f 182//271 184//271 185//271
f 182//272 185//272 181//272
f 186//273 182//273 171//273
f 186//274 165//274 187//274
f 183//275 186//275 187//275
f 171//276 166//276 186//276
f 165//277 186//277 166//277
f 190//278 183//278 187//278
f 165//279 188//279 187//279
f 189//280 187//280 188//280
f 190//281 187//281 189//281
f 189//282 195//282 190//282
f 191//283 183//283 190//283
f 191//284 190//284 192//284
f 193//285 192//285 190//285
f 196//286 193//286 190//286
f 194//287 190//287 195//287
f 196//288 190//288 194//288
f 198//289 193//289 196//289
f 199//290 197//290 196//290
f 197//291 198//291 196//291
f 196//292 200//292 199//292
f 196//293 194//293 200//293
f 200//294 194//294 202//294
f 201//295 200//295 206//295
f 201//296 203//296 200//296
f 200//297 9//297 204//297
f 200//298 202//298 9//298
f 200//299 203//299 199//299
f 205//300 200//300 204//300
f 206//301 200//301 205//301
f 209//302 206//302 205//302
f 207//303 206//303 208//303
f 201//304 206//304 207//304
f 209//305 208//305 206//305
f 208//306 209//306 210//306
f 204//307 3//307 209//307
f 209//308 3//308 210//308
f 204//309 209//309 205//309
f 211//310 208//310 210//310
f 210//311 212//311 211//311
f 195//312 189//312 210//312
f 189//313 188//313 210//313
f 210//314 188//314 212//314
f 195//315 210//315 5//315
f 210//316 3//316 5//316
f 212//317 165//317 214//317
f 165//318 212//318 188//318
f 212//319 214//319 213//319
f 211//320 212//320 213//320
f 167//321 214//321 165//321
f 216//322 214//322 167//322
f 214//323 215//323 213//323
f 216//324 215//324 214//324
f 216//325 154//325 157//325
f 216//326 167//326 154//326
f 216//327 217//327 215//327
f 218//328 217//328 216//328
f 216//329 157//329 218//329
f 220//330 217//330 218//330
f 219//331 218//331 157//331
f 219//332 221//332 218//332
f 220//333 218//333 221//333
f 224//334 222//334 221//334
f 220//335 221//335 222//335
f 219//336 223//336 221//336
f 224//337 221//337 223//337
f 226//338 225//338 224//338
f 225//339 222//339 224//339
f 226//340 224//340 223//340
f 29//341 226//341 223//341
f 30//342 226//342 29//342
f 226//343 30//343 227//343
f 226//344 227//344 225//344
f 227//345 229//345 225//345
f 227//346 228//346 229//346
f 227//347 30//347 228//347
f 229//348 231//348 230//348
f 230//349 222//349 229//349
f 229//350 228//350 232//350
f 229//351 232//351 231//351
f 222//352 225//352 229//352
f 232//353 233//353 231//353
f 228//354 25//354 232//354
f 25//355 233//355 232//355
f 25//356 234//356 233//356
f 235//357 233//357 234//357
f 235//358 236//358 233//358
f 231//359 233//359 236//359
f 235//360 230//360 236//360
f 231//361 236//361 230//361
f 235//362 222//362 230//362
f 235//363 220//363 222//363
f 220//364 235//364 234//364
f 237//365 215//365 234//365
f 217//366 234//366 215//366
f 220//367 234//367 217//367
f 237//368 234//368 25//368
f 25//369 18//369 237//369
f 240//370 238//370 237//370
f 238//371 215//371 237//371
f 239//372 237//372 18//372
f 239//373 240//373 237//373
f 240//374 239//374 243//374
f 238//375 240//375 241//375
f 241//376 240//376 242//376
f 240//377 243//377 242//377
f 244//378 242//378 243//378
f 239//379 23//379 243//379
f 23//380 22//380 243//380
f 243//381 22//381 244//381
f 27//382 244//382 22//382
f 203//383 244//383 27//383
f 203//384 201//384 244//384
f 244//385 201//385 246//385
f 244//386 245//386 242//386
f 244//387 246//387 245//387
f 246//388 207//388 248//388
f 246//389 201//389 207//389
f 247//390 245//390 246//390
f 246//391 248//391 247//391
f 207//392 208//392 248//392
f 248//393 208//393 211//393
f 247//394 248//394 211//394
f 238//395 241//395 247//395
f 247//396 241//396 245//396
f 238//397 247//397 211//397
f 241//398 242//398 245//398
f 249//399 239//399 18//399
f 239//400 249//400 23//400
f 249//401 18//401 19//401
f 249//402 19//402 21//402
f 249//403 21//403 23//403
f 211//404 213//404 238//404
f 238//405 213//405 215//405
f 228//406 30//406 25//406
f 251//407 250//407 223//407
f 250//408 32//408 223//408
f 219//409 251//409 223//409
f 29//410 223//410 32//410
f 157//411 153//411 251//411
f 156//412 251//412 153//412
f 219//413 157//413 251//413
f 251//414 156//414 250//414
f 250//415 58//415 34//415
f 58//416 250//416 156//416
f 250//417 34//417 32//417
f 4//418 3//418 204//418
f 4//419 204//419 9//419
f 203//420 253//420 252//420
f 252//421 199//421 203//421
f 203//422 38//422 253//422
f 38//423 203//423 27//423
f 255//424 252//424 253//424
f 36//425 253//425 38//425
f 254//426 253//426 36//426
f 254//427 255//427 253//427
f 254//428 256//428 255//428
f 257//429 255//429 256//429
f 257//430 252//430 255//430
f 258//431 252//431 257//431
f 258//432 257//432 259//432
f 259//433 257//433 260//433
f 257//434 261//434 260//434
f 261//435 257//435 256//435
f 262//436 260//436 261//436
f 261//437 263//437 262//437
f 261//438 256//438 263//438
f 256//439 265//439 263//439
f 107//440 264//440 263//440
f 264//441 262//441 263//441
f 107//442 263//442 265//442
f 109//443 265//443 73//443
f 254//444 73//444 265//444
f 265//445 109//445 107//445
f 254//446 265//446 256//446
f 264//447 140//447 262//447
f 267//448 140//448 264//448
f 264//449 107//449 266//449
f 264//450 266//450 267//450
f 268//451 133//451 267//451
f 267//452 133//452 140//452
f 267//453 266//453 268//453
f 270//454 269//454 268//454
f 269//455 134//455 268//455
f 134//456 133//456 268//456
f 266//457 270//457 268//457
f 270//458 266//458 108//458
f 108//459 112//459 270//459
f 269//460 270//460 271//460
f 270//461 112//461 115//461
f 115//462 271//462 270//462
f 269//463 271//463 272//463
f 271//464 125//464 272//464
f 125//465 271//465 115//465
f 122//466 269//466 272//466
f 272//174 125//174 122//174
f 122//467 134//467 269//467
f 266//468 107//468 108//468
f 262//469 140//469 142//469
f 262//470 142//470 260//470
f 260//471 142//471 273//471
f 260//472 273//472 259//472
f 273//473 274//473 259//473
f 138//474 274//474 273//474
f 142//475 138//475 273//475
f 147//476 275//476 274//476
f 274//477 275//477 259//477
f 147//478 274//478 138//478
f 275//479 277//479 276//479
f 259//480 275//480 276//480
f 147//481 277//481 275//481
f 279//482 278//482 277//482
f 277//483 278//483 280//483
f 152//484 281//484 277//484
f 150//485 152//485 277//485
f 147//486 150//486 277//486
f 277//487 281//487 279//487
f 276//488 277//488 280//488
f 281//489 169//489 279//489
f 169//490 281//490 155//490
f 281//491 152//491 155//491
f 283//492 276//492 280//492
f 282//493 280//493 278//493
f 282//494 283//494 280//494
f 285//495 276//495 283//495
f 282//496 284//496 283//496
f 285//497 283//497 284//497
f 284//498 197//498 285//498
f 285//499 197//499 258//499
f 285//500 258//500 276//500
f 287//501 286//501 284//501
f 286//502 198//502 284//502
f 284//503 198//503 197//503
f 287//504 284//504 282//504
f 286//505 287//505 176//505
f 287//506 172//506 176//506
f 172//507 287//507 288//507
f 287//508 282//508 288//508
f 172//509 288//509 169//509
f 288//510 278//510 279//510
f 288//511 282//511 278//511
f 288//512 279//512 169//512
f 289//513 192//513 286//513
f 198//514 286//514 192//514
f 286//515 176//515 289//515
f 289//516 290//516 192//516
f 178//517 290//517 289//517
f 175//518 178//518 289//518
f 176//519 175//519 289//519
f 290//520 291//520 191//520
f 290//521 292//521 291//521
f 293//522 292//522 290//522
f 290//523 191//523 192//523
f 290//524 178//524 293//524
f 293//525 294//525 181//525
f 293//526 295//526 294//526
f 292//527 293//527 185//527
f 293//528 178//528 295//528
f 185//529 293//529 181//529
f 179//530 296//530 295//530
f 178//531 179//531 295//531
f 295//532 296//532 297//532
f 295//533 297//533 294//533
f 296//534 299//534 297//534
f 297//535 298//535 294//535
f 297//536 299//536 298//536
f 298//537 299//537 300//537
f 299//538 301//538 300//538
f 296//539 301//539 299//539
f 181//540 301//540 296//540
f 301//541 298//541 300//541
f 181//542 294//542 301//542
f 294//543 298//543 301//543
f 181//544 296//544 179//544
f 291//545 292//545 184//545
f 184//546 292//546 185//546
f 191//547 291//547 183//547
f 183//548 291//548 184//548
f 259//549 276//549 258//549
f 197//550 252//550 258//550
f 36//551 73//551 254//551
f 199//552 252//552 197//552
f 194//553 195//553 202//553
f 9//554 202//554 195//554
f 193//555 198//555 192//555
f 9//556 195//556 5//556
f 141//557 147//557 138//557
f 136//558 129//558 139//558
f 124//559 135//559 122//559
f 135//560 134//560 122//560
f 130//561 303//561 302//561
f 87//562 130//562 302//562
f 86//563 129//563 130//563
f 121//564 303//564 130//564
f 130//565 87//565 86//565
f 303//566 119//566 302//566
f 303//567 121//567 119//567
f 118//174 302//174 119//174
f 304//568 87//568 302//568
f 305//569 304//569 302//569
f 305//570 302//570 118//570
f 111//571 305//571 118//571
f 111//572 306//572 305//572
f 305//573 306//573 304//573
f 111//574 102//574 306//574
f 99//575 306//575 102//575
f 307//576 304//576 306//576
f 307//577 306//577 99//577
f 87//578 304//578 307//578
f 87//579 307//579 308//579
f 308//580 307//580 99//580
f 308//581 40//581 310//581
f 40//582 308//582 41//582
f 87//583 308//583 309//583
f 308//584 99//584 41//584
f 309//585 308//585 313//585
f 311//586 308//586 310//586
f 311//587 312//587 308//587
f 312//588 313//588 308//588
f 309//589 313//589 314//589
f 314//590 313//590 312//590
f 309//591 314//591 315//591
f 314//592 95//592 315//592
f 316//593 314//593 312//593
f 316//594 317//594 314//594
f 314//595 317//595 95//595
f 95//596 317//596 98//596
f 316//597 318//597 317//597
f 317//598 318//598 319//598
f 317//599 319//599 98//599
f 99//600 98//600 319//600
f 320//601 319//601 318//601
f 99//602 319//602 320//602
f 320//603 322//603 46//603
f 320//604 46//604 41//604
f 320//605 321//605 322//605
f 320//606 318//606 321//606
f 41//607 99//607 320//607
f 46//608 322//608 47//608
f 47//609 322//609 52//609
f 321//610 323//610 322//610
f 322//611 323//611 52//611
f 323//612 325//612 52//612
f 310//613 323//613 324//613
f 321//614 324//614 323//614
f 323//615 310//615 325//615
f 52//616 325//616 53//616
f 325//617 40//617 53//617
f 310//618 40//618 325//618
f 324//619 316//619 311//619
f 324//620 318//620 316//620
f 324//621 321//621 318//621
f 310//622 324//622 311//622
f 316//623 312//623 311//623
f 92//624 315//624 95//624
f 89//625 315//625 92//625
f 89//626 309//626 315//626
f 89//627 87//627 309//627
f 115//628 116//628 125//628
f 109//629 73//629 101//629
f 72//630 101//630 73//630
f 72//631 79//631 101//631
f 90//632 81//632 83//632
f 77//633 64//633 78//633
f 62//634 64//634 77//634
f 36//635 37//635 73//635
f 50//636 55//636 66//636
f 49//637 50//637 66//637
f 66//638 55//638 59//638
f 60//639 66//639 59//639
f 44//640 49//640 43//640
f 34//641 42//641 33//641
f 28//642 38//642 27//642
f 21//643 16//643 14//643
f 21//644 14//644 11//644
f 21//645 19//645 16//645
f 5//646 2//646 12//646
f 2//647 8//647 12//647
