# Blender 5.0.1
# www.blender.org
mtllib torso_y_link_visual_40.mtl
o i01.torso.full.042_visual.001
v -0.065461 0.016962 0.017058
v -0.070609 0.041725 -0.020917
v -0.065461 0.014582 -0.019133
v -0.065461 -0.041725 0.020917
v 0.070609 -0.041724 0.020917
v -0.065461 -0.044104 -0.015274
v -0.070609 0.044104 0.015274
v 0.070609 0.016962 0.017058
v 0.070609 -0.044104 -0.015274
v 0.070609 0.014582 -0.019133
vn -0.9826 -0.1856 0.0122
vn -1.0000 -0.0000 -0.0000
vn -0.0000 0.0656 0.9978
vn 0.1891 0.9798 -0.0644
vn 1.0000 -0.0000 -0.0000
vn -0.0000 -0.0656 -0.9978
vn -0.0000 -0.9978 0.0656
s 0
usemtl Material.027
f 2//1 3//1 1//1
f 1//1 7//1 2//1
f 1//2 3//2 6//2
f 1//3 4//3 5//3
f 6//2 4//2 1//2
f 5//3 8//3 1//3
f 1//3 8//3 7//3
f 2//4 7//4 8//4
f 8//5 5//5 9//5
f 9//5 10//5 8//5
f 8//4 10//4 2//4
f 10//6 3//6 2//6
f 3//6 10//6 9//6
f 9//6 6//6 3//6
f 6//7 9//7 5//7
f 6//7 5//7 4//7
